<svg xmlns="http://www.w3.org/2000/svg" id="Layer_2" data-name="Layer 2" viewBox="0 0 336.73 425.2"><!-- Source: https://football-logos.cc --><defs data-source="https://football-logos.cc"><style>.cls-1{fill:#fff}</style></defs><g id="Lager_1" data-name="Lager 1" data-source="https://football-logos.cc"><path d="M168.37 425.2c-13.3 0-26.65-3.08-38.61-8.9L25.91 365.73c-1.49-.72-3.01-1.63-4.67-2.78C8.01 354.44 0 339.8 0 323.91V109.85c0-15.91 8-30.53 21.4-39.1l79.94-51.15C121.39 6.78 144.57 0 168.37 0s46.97 6.78 67.02 19.6l79.94 51.14c13.4 8.57 21.4 23.19 21.4 39.1V323.9c0 15.89-8.01 30.53-21.42 39.16-1.47 1.03-3 1.94-4.49 2.66l-103.85 50.57c-11.96 5.82-25.31 8.9-38.61 8.9Z" style="fill:#b2b2b2"></path><path d="M328.24 323.9c0 12.99-6.55 24.96-17.58 32.06-1.29.9-2.45 1.59-3.55 2.12l-103.85 50.57c-10.81 5.26-22.87 8.04-34.89 8.04s-24.09-2.78-34.89-8.04L29.63 358.08c-1.09-.53-2.25-1.23-3.61-2.16C15.05 348.86 8.5 336.89 8.5 323.9v-5.5h319.74z" class="cls-1"></path><path d="M328.24 309.99H8.5V109.85c0-13 6.54-24.94 17.49-31.94l79.93-51.15C124.6 14.81 146.19 8.5 168.36 8.5s43.77 6.32 62.44 18.26l79.94 51.14c10.95 7 17.49 18.95 17.49 31.94v200.15Z" style="fill:#12326e"></path><path d="m48.6 287.57-1.15-8.82h-6.58l-1.36 8.82h-6.58l7.53-45.18h7.94l7.53 45.18zm-4.21-33.31-2.65 18.45h4.88l-2.24-18.45ZM59.52 287.57v-45.18h7.19v38.67h10.38v6.51zM81.16 287.57v-45.18h7.19v38.67h10.38v6.51zM111.88 288.38c-6.51 0-10.58-4-10.58-10.38v-4h6.58v3.87c0 2.85 1.29 4.48 3.8 4.48s3.8-1.56 3.8-4.07c0-3.93-1.97-6.85-5.76-10.85-3.73-3.73-8.07-9.02-8.07-14.79 0-6.11 3.53-11.06 10.51-11.06 6.04 0 9.97 4.21 9.97 10.38v4.07h-6.51v-4.07c0-2.51-1.15-4.21-3.46-4.21-2.1 0-3.53 1.36-3.53 3.66 0 4.41 1.97 6.58 6.17 11.06 4.41 4.55 7.67 9.09 7.67 14.79 0 7.19-4.68 11.12-10.58 11.12ZM139.83 287.57h-6.99l-8.14-45.18h7.39L136.5 274l4.68-31.61h6.92l-8.28 45.18ZM151.7 287.57v-45.18h18.04v6.38h-10.85v12.48h7.53v5.97h-7.53v13.77h10.85v6.58zM190.97 287.57l-7.6-20.49-2.51-6.92v27.4h-6.51v-45.18h6.38l7.05 20.69 2.31 6.99v-27.68h6.44v45.18h-5.56ZM211.66 288.38c-6.51 0-10.58-4-10.58-10.38v-4h6.58v3.87c0 2.85 1.29 4.48 3.8 4.48s3.8-1.56 3.8-4.07c0-3.93-1.97-6.85-5.76-10.85-3.73-3.73-8.07-9.02-8.07-14.79 0-6.11 3.53-11.06 10.51-11.06 6.04 0 9.97 4.21 9.97 10.38v4.07h-6.51v-4.07c0-2.51-1.15-4.21-3.46-4.21-2.1 0-3.53 1.36-3.53 3.66 0 4.41 1.97 6.58 6.17 11.06 4.41 4.55 7.67 9.09 7.67 14.79 0 7.19-4.68 11.12-10.58 11.12ZM241.51 287.57l-5.02-18.79-2.44 6.51v12.28h-7.19v-45.18h7.19v21.23l7.46-21.23h7.12l-7.26 19.2 7.53 25.98zM265.93 287.57l-1.15-8.82h-6.58l-1.36 8.82h-6.58l7.53-45.18h7.94l7.53 45.18zm-4.21-33.31-2.65 18.45h4.88l-2.24-18.45ZM293.4 287.57l-7.6-20.49-2.51-6.92v27.4h-6.51v-45.18h6.38l7.05 20.69 2.31 6.99v-27.68h6.44v45.18h-5.56Z" class="cls-1"></path><path d="M168.37 32.17c-52.55 0-95.3 42.75-95.3 95.3s42.75 95.3 95.3 95.3 95.3-42.75 95.3-95.3-42.75-95.3-95.3-95.3m58.87 154.17c-15.72 15.72-36.63 24.39-58.87 24.39s-43.15-8.66-58.87-24.39-24.38-36.63-24.38-58.87 8.66-43.14 24.38-58.87c32.46-32.47 85.28-32.47 117.74 0 15.72 15.73 24.38 36.63 24.38 58.86s-8.66 43.15-24.38 58.88" style="fill:#ffd600"></path><path d="m225.13 142.29-34.49-74.62c-3.67-7.95-12.35-13.14-21.97-13.14s-17.89 4.98-21.69 12.65c9.29.67 19.03 20.86 21.21 25.63l41.5 93.68c3.56-2.22 6.08-4.66 6.08-4.66 11.94-10.19 15.66-25.89 9.36-39.54" class="cls-1"></path><path d="M190.12 168.08c0-17.14-11.8-27.78-26.36-27.78h-15.63l14.08-31.79c.83-13.84-10.55-35.37-17.4-36.73l-32.59 70.51c-6.3 13.64-2.58 29.34 9.36 39.54 0 0 2.52 2.44 6.08 4.66l8.16-18.41z" class="cls-1"></path><path d="M193.7 373.37c-4.54 0-8.22 3.72-8.22 8.3s3.68 8.3 8.22 8.3 8.22-3.72 8.22-8.3-3.68-8.3-8.22-8.3" style="fill:#3aaa35;opacity:.95"></path><path d="M210.68 373.37c-4.54 0-8.22 3.72-8.22 8.3s3.68 8.3 8.22 8.3 8.22-3.72 8.22-8.3-3.68-8.3-8.22-8.3" style="fill:#3aaa35"></path><path d="M125.78 373.37c-4.54 0-8.22 3.72-8.22 8.3s3.68 8.3 8.22 8.3 8.22-3.72 8.22-8.3-3.68-8.3-8.22-8.3" style="fill:#3aaa35;opacity:.55"></path><path d="M142.76 373.37c-4.54 0-8.22 3.72-8.22 8.3s3.68 8.3 8.22 8.3 8.22-3.72 8.22-8.3-3.68-8.3-8.22-8.3" style="fill:#3aaa35;opacity:.65"></path><path d="M176.72 373.37c-4.54 0-8.22 3.72-8.22 8.3s3.68 8.3 8.22 8.3 8.22-3.72 8.22-8.3-3.68-8.3-8.22-8.3" style="fill:#3aaa35;opacity:.85"></path><path d="M159.71 373.37c-4.54 0-8.22 3.72-8.22 8.3s3.68 8.3 8.22 8.3 8.22-3.72 8.22-8.3-3.68-8.3-8.22-8.3" style="fill:#3aaa35;opacity:.75"></path><path d="M218.68 357.64h-14.27v-5.54h7.64c.17 0 .33-.07.45-.19s.19-.28.19-.45v-5.96c0-.35-.28-.63-.63-.63h-7.63v-4.66h13.42c.35 0 .63-.28.63-.63v-5.96c0-.17-.06-.33-.18-.45a.64.64 0 0 0-.45-.19l-21.34-.02c-.17 0-.33.07-.45.19s-.19.28-.19.45l-.03 30.59c0 .35.28.63.63.63l22.19.02c.17 0 .33-.07.45-.19s.19-.28.19-.45v-5.96c0-.35-.28-.63-.63-.63ZM144.39 332.99h-7.18c-.17 0-.33.07-.45.19s-.19.28-.19.45v15.96l-6.98-16.21a.64.64 0 0 0-.58-.38h-9.22c-.35 0-.63.28-.63.63v30.61c0 .35.28.63.63.63h7.28c.17 0 .33-.06.45-.18s.19-.28.19-.45v-18.1l8.04 18.35c.1.23.33.38.58.38h8.07c.17 0 .33-.07.45-.19s.19-.28.19-.45v-30.61c0-.35-.28-.63-.63-.63ZM112.93 332.99h-8.09a.3.3 0 0 0-.22.09q-.09.09-.09.21v19.65a3.91 3.91 0 1 1-7.82 0v-19.65a.3.3 0 0 0-.3-.3h-8.09c-.08 0-.16.03-.22.09s-.09.13-.09.21v19.65c0 6.95 5.66 12.61 12.61 12.61s12.61-5.66 12.61-12.61v-19.65a.3.3 0 0 0-.3-.3M159.5 333.63c0-.35-.28-.63-.63-.63h-7.29v-.01c-.35 0-.63.28-.63.63v30.58c0 .17.06.33.18.45s.28.19.45.19h7.29v.01c.17 0 .33-.07.45-.19s.19-.28.19-.45v-30.58ZM187.66 347.61a8.41 8.41 0 0 0 2.69-6.17c0-4.67-3.78-8.45-8.45-8.45h-15.82c-.35 0-.63.28-.63.63v30.59c-.01.17.05.33.17.45s.28.19.45.19h15.68c5.32 0 9.64-4.32 9.64-9.64 0-3.09-1.46-5.83-3.72-7.6Zm-13.86-8.24h6.38c1.26 0 2.27 1.02 2.27 2.27s-1.02 2.27-2.27 2.27h-6.38v-4.55Zm6.29 17.89h-6.29v-6.65h6.29c1.84 0 3.32 1.49 3.32 3.32s-1.49 3.32-3.32 3.32ZM248.26 333.22a.64.64 0 0 0-.45-.19l-23.93-.04c-.35 0-.63.28-.63.63v5.9c-.01.35.27.63.62.63l7.51.02-.04 24.04c0 .17.07.33.19.45s.28.19.45.19h7.57c.35 0 .63-.28.63-.63l.04-24.04h7.58v.01c.35 0 .63-.28.63-.63v-5.9a.62.62 0 0 0-.17-.45Z"></path></g><!-- source: https://football-logos.cc --></svg>