<svg xmlns="http://www.w3.org/2000/svg" viewBox="0 0 260 375.67"><!-- Source: https://football-logos.cc --><path fill="#006533" d="M130 29.387c-11.707 15.326-22.483 28.037-33.595 38.856-15.392 15.022-31.643 26.232-50.513 34.549-8.788 3.892-18.099 7.186-28.186 10.125 2.12 68.922 20.219 120.222 43.396 159.498 21.125 35.708 46.628 61.456 68.898 80.52 22.268-19.064 47.771-44.812 68.896-80.52 23.179-39.28 41.277-90.568 43.396-159.498-10.09-2.94-19.398-6.233-28.184-10.125-12.566-5.556-24.012-12.362-34.773-20.763-17.047-13.327-32.201-30.21-49.334-52.642" data-source="https://football-logos.cc"></path><path fill="#fff" d="M130 5.215c-21.93 30.12-39.196 50.594-58.213 65.429C52.58 85.63 31.685 94.668 3.07 101.942 3.925 254.587 79.95 330.932 130 371.728c50.047-40.796 126.072-117.141 126.93-269.787-28.617-7.275-49.51-16.31-68.719-31.298C169.195 55.81 151.927 35.336 130 5.215m84.109 97.577c8.786 3.89 18.094 7.186 28.184 10.124-2.119 68.93-20.218 120.22-43.396 159.499-21.126 35.708-46.629 61.456-68.896 80.52-22.27-19.064-47.773-44.812-68.899-80.52-23.177-39.276-41.275-90.576-43.396-159.497 10.088-2.94 19.397-6.236 28.186-10.125 18.871-8.32 35.122-19.527 50.514-34.55 11.112-10.819 21.887-23.53 33.596-38.855 17.133 22.432 32.286 39.315 49.334 52.64 10.76 8.4 22.206 15.208 34.773 20.764"></path><path fill="#006533" d="M130 0C83.868 63.87 59.211 84.889 0 99.555c0 157.317 79.446 235.358 130 276.118 50.555-40.76 130-118.8 130-276.118C200.789 84.889 176.131 63.87 130 0m126.93 101.942c-.858 152.645-76.883 228.99-126.93 269.786C79.951 330.932 3.925 254.587 3.07 101.942c28.615-7.274 49.51-16.312 68.716-31.298C90.804 55.81 108.07 35.337 130 5.215c21.927 30.122 39.195 50.595 58.211 65.429 19.21 14.987 40.102 24.02 68.718 31.298" data-source="https://football-logos.cc"></path><path fill="#fff" d="M117.2 247.974h16.313c5.44 0 8.4 2.453 8.4 9.186 0 6.013-3.6 9.306-8.4 9.306h-16.312zm-9.992 57.423h26.225c14.799 0 19.359-8.16 19.359-18.679 0-9.107-2.08-15.48-9.04-17.252v-.189c5.2-2.64 8.16-7.505 8.16-14.265 0-11.172-6.72-16.6-16.96-16.6h-27.744zm9.993-30.492h17.665c6.087 0 9.606 3.747 9.606 10.32 0 6.76-3.52 10.599-9.606 10.599h-17.665zM60.003 132.62h10.16v66.982h-10.16zM209.529 199.576l-20.226-31.973-8.813 9.48v22.493h-10.8v-66.943h10.8v30.465l27.479-30.465h13.32l-24.653 26.718 26.36 40.225z"></path><path fill="#fff" d="M193.182 236.157c-.602-11.137-17.443-14.748-28.273-21.985l-31.587-41.763 36.362-48.08v-.001c11.643 1.542 11.784-14.37 13.412-22.126-7.02 3.678-22.292 8.148-17.64 18.93L130 168.016 94.54 121.132c4.653-10.783-10.618-15.252-17.639-18.93 1.627 7.757 1.77 23.668 13.413 22.126v.001l36.362 48.08-31.587 41.763c-10.832 7.237-27.67 10.848-28.273 21.985-.371 6.863 3.49 9.005 3.408 11.2.093 2.492.003 2.928.558 3.347.555.422.951.217 3.373-.372 2.09-.677 5.203 2.455 11.704.228 10.552-3.612 9.444-20.799 13.458-33.191v.001l30.68-40.568 30.682 40.568v-.001c4.014 12.392 2.906 29.58 13.458 33.191 6.5 2.226 9.615-.905 11.705-.228 2.422.589 2.817.794 3.372.372.556-.419.465-.855.56-3.346-.083-2.196 3.777-4.338 3.407-11.201" data-source="https://football-logos.cc"></path><!-- source: https://football-logos.cc --></svg>