<svg xmlns="http://www.w3.org/2000/svg" xml:space="preserve" viewBox="0 0 197.29 197.29"><!-- Source: https://football-logos.cc --><path d="M1479.7 739.84C1479.7 331.23 1148.46 0 739.855 0 331.246 0 0 331.23 0 739.84s331.246 739.85 739.855 739.85c408.605 0 739.845-331.24 739.845-739.85" style="fill:#edc412;fill-opacity:1;fill-rule:nonzero;stroke:none" transform="matrix(.13333 0 0 -.13333 0 197.293)" data-source="https://football-logos.cc"></path><path d="M1463.16 739.84c0-399.481-323.83-723.309-723.305-723.309-399.472 0-723.316 323.828-723.316 723.309 0 399.47 323.844 723.31 723.316 723.31 399.475 0 723.305-323.84 723.305-723.31" style="fill:#fff;fill-opacity:1;fill-rule:nonzero;stroke:none" transform="matrix(.13333 0 0 -.13333 0 197.293)"></path><path d="M1436.85 946.336c-89.77 300.124-368.02 518.864-697.346 518.864-330.649 0-609.785-220.5-698.41-522.477 0 0 272.926 66.977 699.453 64.907 412.153-2 696.303-61.294 696.303-61.294" style="fill:#d71e25;fill-opacity:1;fill-rule:nonzero;stroke:none" transform="matrix(.13333 0 0 -.13333 0 197.293)"></path><path d="M1433.15 530.594c-89.19-298.133-365.58-515.446-692.72-515.446-328.477 0-605.778 219.051-693.809 519.028 0 0 271.129-66.528 694.824-64.477 409.435 2.012 691.705 60.895 691.705 60.895" style="fill:#349b3d;fill-opacity:1;fill-rule:nonzero;stroke:none" transform="matrix(.13333 0 0 -.13333 0 197.293)" data-source="https://football-logos.cc"></path><path d="M118.895 637.262s2.257 96.808 8.562 108.047c6.297 11.269 18.012 23.437 27.918 24.777 9.898 1.355 58.535 9.012 62.141 12.156 3.593 3.156 12.597 24.317 19.804 31.524 7.196 7.207 16.211 16.66 23.41 17.558 7.215.91 29.27 1.809 29.27 1.809l12.164 10.789 2.699-2.695 1.352-26.114s26.566-25.664 26.566-27.918c0-2.246-.453-16.211-3.152-17.558s-30.172 5.847-30.172 5.847-5.848-6.738-7.648-10.351c-1.809-3.602-9.454-31.531-10.36-39.18-.906-7.644-5.851-88.25-5.851-88.25h-20.719l-12.606 63.496s-6.3-5.41-18.906-5.859c-12.609-.449-22.066-1.348-35.125-.449-13.054.898-23.867 4.05-23.867 4.05l-26.566-61.238zM1361.81 637.262s-2.25 96.808-8.56 108.047c-6.31 11.269-18.01 23.437-27.92 24.777-9.9 1.355-58.53 9.012-62.13 12.156-3.6 3.156-12.6 24.317-19.82 31.524-7.2 7.207-16.2 16.66-23.41 17.558-7.2.91-29.27 1.809-29.27 1.809l-12.16 10.789-2.7-2.695-1.35-26.114s-26.56-25.664-26.56-27.918c0-2.246.45-16.211 3.15-17.558s30.17 5.847 30.17 5.847 5.85-6.738 7.66-10.351c1.79-3.602 9.44-31.531 10.35-39.18.9-7.644 5.86-88.25 5.86-88.25h20.72l12.6 63.496s6.31-5.41 18.91-5.859c12.61-.449 22.05-1.348 35.12-.449 13.05.898 23.86 4.05 23.86 4.05l26.57-61.238zM716.895 906.395l22.812 161.625 25.684-163.532 71.308 146.432-22.832-161.647 114.102 125.507-75.098-156.874 142.617 82.707-110.293-119.797 160.675 35.188-140.714-81.777 162.574-12.364-158.777-35.175 147.377-60.852-160.685 11.418 127.415-102.695-154.037 60.847 92.227-135.008-129.309 103.641L883.293 440.5l-94.145 139.762-.945-170.192-48.496 162.594-48.484-162.594-.95 167.348-95.074-135.969 51.34 160.688L515.32 494.695l92.235 139.754-153.082-61.785L585.68 678.199l-163.539-12.363 154.035 61.809-155.938 35.164 160.692 12.375-139.77 81.757 156.891-36.125-111.254 118.848 143.574-80.82-74.164 152.126 113.148-124.548-26.621 166.398z" style="fill:#edc412;fill-opacity:1;fill-rule:nonzero;stroke:none" transform="matrix(.13333 0 0 -.13333 0 197.293)"></path><path d="M548.961 1288.7v-95.56h13.242c11.289 0 19.324 1.25 24.098 3.76 4.769 2.5 8.508 6.88 11.215 13.12 2.699 6.25 4.05 16.36 4.05 30.36 0 18.53-3.019 31.21-9.066 38.05-6.047 6.85-16.062 10.27-30.059 10.27zm-54.043 39.6h80.285c15.828 0 28.61-2.14 38.356-6.44 9.742-4.29 17.793-10.46 24.156-18.49s10.976-17.38 13.84-28.03c2.859-10.66 4.297-21.95 4.297-33.88 0-18.7-2.129-33.19-6.383-43.48-4.258-10.31-10.16-18.94-17.723-25.89-7.551-6.96-15.66-11.59-24.336-13.9-11.847-3.18-22.586-4.77-32.207-4.77h-80.285zM763.945 1220.11l-19.304 62.86-19.106-62.86zm11.211-37.83h-61.355l-8.528-28.86h-55.175l65.73 174.88h58.945l65.715-174.88h-56.582zM851.563 1328.3h54.042v-131.82h84.336v-43.06H851.563zM290.945 375.57h42.137v-51.519l44.137 51.519h56.035l-49.758-51.461 51.992-84.879h-51.89l-28.743 56.071-21.773-22.801v-33.27h-42.137zM537.219 375.57h42.039v-81.23q.001-12.078-3.766-22.82c-2.508-7.161-6.449-13.418-11.808-18.77-5.368-5.359-10.993-9.129-16.887-11.301-8.184-3.027-18.012-4.551-29.484-4.551-6.633 0-13.872.473-21.715 1.403-7.844.929-14.403 2.769-19.668 5.527-5.278 2.75-10.094 6.684-14.465 11.75q-6.561 7.624-8.981 15.711c-2.601 8.68-3.906 16.359-3.906 23.051v81.23h42.043v-83.16c0-7.441 2.059-13.238 6.188-17.43q6.181-6.269 17.156-6.269c7.258 0 12.945 2.059 17.07 6.18q6.183 6.182 6.184 17.519zM649.094 320.328h17.761c1.915 0 5.645.621 11.165 1.863 2.781.559 5.066 1.989 6.835 4.278 1.766 2.301 2.645 4.922 2.645 7.902 0 4.41-1.387 7.789-4.18 10.141-2.793 2.359-8.027 3.527-15.722 3.527h-18.504Zm-42.321-81.098v136.34h70.219c13.028 0 22.969-1.109 29.863-3.34q10.313-3.345 16.641-12.421c4.219-6.039 6.328-13.411 6.328-22.09 0-7.571-1.621-14.09-4.844-19.578-3.222-5.493-7.656-9.93-13.3-13.34-3.606-2.18-8.535-3.973-14.805-5.403 5.02-1.679 8.672-3.347 10.977-5.027q2.314-1.664 6.738-7.172 4.405-5.49 5.898-8.461l20.403-39.508h-47.61l-22.519 41.668q-4.276 8.087-7.625 10.5-4.559 3.172-10.324 3.172h-3.719v-55.34zM796.113 344.691v-74.492h10.332c8.797 0 15.059.981 18.789 2.93 3.711 1.961 6.621 5.359 8.731 10.23q3.164 7.307 3.164 23.672c0 14.449-2.356 24.328-7.07 29.668-4.707 5.332-12.52 7.992-23.438 7.992zm-42.129 30.879h62.598q18.505 0 29.902-5.019c7.598-3.352 13.868-8.153 18.829-14.41 4.96-6.262 8.554-13.539 10.792-21.86 2.235-8.312 3.348-17.109 3.348-26.41 0-14.57-1.66-25.883-4.98-33.91-3.321-8.02-7.918-14.75-13.809-20.172-5.898-5.43-12.219-9.051-18.976-10.84q-13.857-3.72-25.106-3.719h-62.598zM963.398 375.57h104.172v-29.289h-61.86v-23.812h52.83v-27.528h-52.83V239.23h-42.312zM1089.49 375.57h104.18v-29.289h-61.85v-23.812h52.83v-27.528h-52.83V239.23h-42.33zM657.18 119.141h-69.188c.793 6.82 3.199 13.25 7.219 19.281 4.023 6.008 11.562 13.117 22.621 21.308 6.754 5.02 11.074 8.829 12.965 11.442 1.883 2.598 2.824 5.078 2.824 7.41 0 2.527-.93 4.688-2.801 6.488q-2.8 2.682-7.047 2.68-4.418.001-7.214-2.77c-1.871-1.851-3.125-5.109-3.766-9.8l-23.102 1.879c.907 6.48 2.571 11.55 4.981 15.191q3.626 5.472 10.223 8.379 6.595 2.923 18.253 2.922c8.118 0 14.43-.93 18.942-2.77 4.508-1.859 8.055-4.699 10.644-8.531 2.582-3.82 3.875-8.121 3.875-12.879 0-5.062-1.48-9.883-4.441-14.492-2.965-4.598-8.355-9.66-16.168-15.168-4.637-3.211-7.742-5.449-9.312-6.731q-2.352-1.933-5.516-5.039h36.008zM689.902 160.922c0-10.57.938-17.793 2.793-21.652 1.875-3.872 4.578-5.809 8.125-5.809 2.344 0 4.375.82 6.094 2.469 1.719 1.64 2.981 4.23 3.789 7.781.813 3.539 1.223 9.078 1.223 16.59 0 11.019-.942 18.429-2.805 22.219-1.875 3.8-4.668 5.691-8.406 5.691-3.82 0-6.574-1.93-8.274-5.801-1.699-3.879-2.539-11.039-2.539-21.488m-22.871.047c0 15.793 2.832 26.82 8.516 33.133 5.683 6.296 14.336 9.449 25.957 9.449q8.381-.001 13.762-2.071c3.582-1.371 6.511-3.16 8.777-5.378 2.266-2.211 4.043-4.524 5.352-6.961 1.289-2.43 2.343-5.282 3.132-8.52 1.555-6.191 2.317-12.641 2.317-19.359 0-15.063-2.539-26.082-7.637-33.063-5.098-6.98-13.867-10.48-26.328-10.48-6.984 0-12.617 1.121-16.926 3.34-4.305 2.23-7.832 5.492-10.586 9.8-2 3.051-3.562 7.231-4.676 12.539-1.113 5.301-1.66 11.161-1.66 17.571M767.227 160.922c0-10.57.937-17.793 2.812-21.652q2.794-5.809 8.125-5.809c2.332 0 4.363.82 6.074 2.469 1.719 1.64 2.989 4.23 3.797 7.781.813 3.539 1.223 9.078 1.223 16.59 0 11.019-.938 18.429-2.805 22.219-1.863 3.8-4.676 5.691-8.406 5.691-3.809 0-6.563-1.93-8.262-5.801-1.699-3.879-2.558-11.039-2.558-21.488m-22.872.047c0 15.793 2.852 26.82 8.528 33.133 5.672 6.296 14.324 9.449 25.957 9.449 5.586 0 10.164-.692 13.758-2.071 3.586-1.371 6.504-3.16 8.769-5.378 2.266-2.211 4.055-4.524 5.352-6.961 1.308-2.43 2.351-5.282 3.144-8.52 1.543-6.191 2.325-12.641 2.325-19.359q.001-22.593-7.645-33.063c-5.09-6.98-13.879-10.48-26.32-10.48-6.993 0-12.637 1.121-16.934 3.34-4.297 2.23-7.832 5.492-10.586 9.8-2.004 3.051-3.555 7.231-4.668 12.539-1.113 5.301-1.68 11.161-1.68 17.571M861.328 152.539v26.121l-22.207-26.121zm0-17.891h-42.012v18.973l42.012 49.93h20.098v-51.012h10.41v-17.891h-10.41v-15.507h-20.098z" style="fill:#fff;fill-opacity:1;fill-rule:nonzero;stroke:none" transform="matrix(.13333 0 0 -.13333 0 197.293)" data-source="https://football-logos.cc"></path><!-- source: https://football-logos.cc --></svg>