<svg xmlns="http://www.w3.org/2000/svg" xmlns:xlink="http://www.w3.org/1999/xlink" width="320" height="296.332" viewBox="0 0 240 222.249"><!-- Source: https://football-logos.cc --><clipPath id="b" data-source="https://football-logos.cc"><path d="M0 0h281.82v260.977H0zm0 0"></path></clipPath><clipPath id="c"><path d="M49 0c-1.078 11.809-1.496 7.227-4.828 18.89C36.254 37.228 17.5 53 0 53c0 5.5.504 11 1 16.5 7.754 85.852 70.254 162.309 148.172 191.477C304.379 187.227 280.5 46.5 280.5 46.5l-10.91-1.36C249.59 38.89 232.5 17.5 230.5 0zm0 0"></path></clipPath><radialGradient id="d" cx="0" cy="0" r="155.632" gradientTransform="matrix(0 -1.11111 .88889 0 118.626 85.47)" gradientUnits="userSpaceOnUse"><stop offset="0" stop-color="#78d3f6"></stop><stop offset=".008" stop-color="#77d3f6"></stop><stop offset=".012" stop-color="#77d2f6"></stop><stop offset=".016" stop-color="#77d2f6"></stop><stop offset=".02" stop-color="#76d2f6"></stop><stop offset=".023" stop-color="#76d1f5"></stop><stop offset=".027" stop-color="#76d1f5"></stop><stop offset=".031" stop-color="#75d0f5"></stop><stop offset=".035" stop-color="#75cff5"></stop><stop offset=".039" stop-color="#74cff4"></stop><stop offset=".043" stop-color="#74cef4"></stop><stop offset=".047" stop-color="#74cef4"></stop><stop offset=".051" stop-color="#73cdf4"></stop><stop offset=".055" stop-color="#73cdf3"></stop><stop offset=".059" stop-color="#72ccf3"></stop><stop offset=".063" stop-color="#72cbf3"></stop><stop offset=".066" stop-color="#71cbf2"></stop><stop offset=".07" stop-color="#71caf2"></stop><stop offset=".074" stop-color="#70caf2"></stop><stop offset=".078" stop-color="#70c9f2"></stop><stop offset=".082" stop-color="#6fc8f1"></stop><stop offset=".086" stop-color="#6fc8f1"></stop><stop offset=".09" stop-color="#6ec7f1"></stop><stop offset=".094" stop-color="#6ec6f0"></stop><stop offset=".098" stop-color="#6dc6f0"></stop><stop offset=".102" stop-color="#6dc5f0"></stop><stop offset=".105" stop-color="#6cc4ef"></stop><stop offset=".109" stop-color="#6cc4ef"></stop><stop offset=".113" stop-color="#6bc3ef"></stop><stop offset=".117" stop-color="#6bc2ee"></stop><stop offset=".121" stop-color="#6ac1ee"></stop><stop offset=".125" stop-color="#6ac1ee"></stop><stop offset=".129" stop-color="#69c0ed"></stop><stop offset=".133" stop-color="#69bfed"></stop><stop offset=".137" stop-color="#68bfed"></stop><stop offset=".141" stop-color="#68beec"></stop><stop offset=".145" stop-color="#67bdec"></stop><stop offset=".148" stop-color="#66bcec"></stop><stop offset=".152" stop-color="#66bceb"></stop><stop offset=".156" stop-color="#65bbeb"></stop><stop offset=".16" stop-color="#65baea"></stop><stop offset=".164" stop-color="#64b9ea"></stop><stop offset=".168" stop-color="#64b9ea"></stop><stop offset=".172" stop-color="#63b8e9"></stop><stop offset=".176" stop-color="#63b7e9"></stop><stop offset=".18" stop-color="#62b6e9"></stop><stop offset=".184" stop-color="#61b6e8"></stop><stop offset=".188" stop-color="#61b5e8"></stop><stop offset=".191" stop-color="#60b4e7"></stop><stop offset=".195" stop-color="#60b3e7"></stop><stop offset=".199" stop-color="#5fb3e7"></stop><stop offset=".203" stop-color="#5eb2e6"></stop><stop offset=".207" stop-color="#5eb1e6"></stop><stop offset=".211" stop-color="#5db0e6"></stop><stop offset=".215" stop-color="#5db0e5"></stop><stop offset=".219" stop-color="#5cafe5"></stop><stop offset=".223" stop-color="#5baee4"></stop><stop offset=".227" stop-color="#5bade4"></stop><stop offset=".23" stop-color="#5aade4"></stop><stop offset=".234" stop-color="#5aace3"></stop><stop offset=".238" stop-color="#59abe3"></stop><stop offset=".242" stop-color="#58aae2"></stop><stop offset=".246" stop-color="#58aae2"></stop><stop offset=".25" stop-color="#57a9e2"></stop><stop offset=".254" stop-color="#57a8e1"></stop><stop offset=".258" stop-color="#56a7e1"></stop><stop offset=".262" stop-color="#55a6e0"></stop><stop offset=".266" stop-color="#55a6e0"></stop><stop offset=".27" stop-color="#54a5e0"></stop><stop offset=".273" stop-color="#54a4df"></stop><stop offset=".277" stop-color="#53a3df"></stop><stop offset=".281" stop-color="#52a3de"></stop><stop offset=".285" stop-color="#52a2de"></stop><stop offset=".289" stop-color="#51a1de"></stop><stop offset=".293" stop-color="#51a0dd"></stop><stop offset=".297" stop-color="#509fdd"></stop><stop offset=".301" stop-color="#4f9fdc"></stop><stop offset=".305" stop-color="#4f9edc"></stop><stop offset=".309" stop-color="#4e9ddc"></stop><stop offset=".313" stop-color="#4d9cdb"></stop><stop offset=".316" stop-color="#4d9cdb"></stop><stop offset=".32" stop-color="#4c9bda"></stop><stop offset=".324" stop-color="#4c9ada"></stop><stop offset=".328" stop-color="#4b99d9"></stop><stop offset=".332" stop-color="#4a98d9"></stop><stop offset=".336" stop-color="#4a98d9"></stop><stop offset=".34" stop-color="#4997d8"></stop><stop offset=".344" stop-color="#4896d8"></stop><stop offset=".348" stop-color="#4895d7"></stop><stop offset=".352" stop-color="#4795d7"></stop><stop offset=".355" stop-color="#4794d6"></stop><stop offset=".359" stop-color="#4693d6"></stop><stop offset=".363" stop-color="#4592d6"></stop><stop offset=".367" stop-color="#4592d5"></stop><stop offset=".371" stop-color="#4491d5"></stop><stop offset=".375" stop-color="#4390d4"></stop><stop offset=".379" stop-color="#438fd4"></stop><stop offset=".383" stop-color="#428fd3"></stop><stop offset=".387" stop-color="#428ed3"></stop><stop offset=".391" stop-color="#418dd3"></stop><stop offset=".395" stop-color="#408cd2"></stop><stop offset=".398" stop-color="#408cd2"></stop><stop offset=".402" stop-color="#408bd1"></stop><stop offset=".406" stop-color="#408ad1"></stop><stop offset=".41" stop-color="#3f89d0"></stop><stop offset=".414" stop-color="#3f88d0"></stop><stop offset=".418" stop-color="#3f88cf"></stop><stop offset=".422" stop-color="#3f87cf"></stop><stop offset=".426" stop-color="#3e86ce"></stop><stop offset=".43" stop-color="#3e85ce"></stop><stop offset=".434" stop-color="#3e85ce"></stop><stop offset=".438" stop-color="#3e84cd"></stop><stop offset=".441" stop-color="#3e83cd"></stop><stop offset=".445" stop-color="#3d82cc"></stop><stop offset=".449" stop-color="#3d82cc"></stop><stop offset=".453" stop-color="#3d81cb"></stop><stop offset=".457" stop-color="#3d80cb"></stop><stop offset=".461" stop-color="#3d80ca"></stop><stop offset=".465" stop-color="#3c7fca"></stop><stop offset=".469" stop-color="#3c7ec9"></stop><stop offset=".473" stop-color="#3c7dc9"></stop><stop offset=".477" stop-color="#3c7dc9"></stop><stop offset=".48" stop-color="#3c7cc8"></stop><stop offset=".484" stop-color="#3b7bc8"></stop><stop offset=".488" stop-color="#3b7bc7"></stop><stop offset=".492" stop-color="#3b7ac7"></stop><stop offset=".496" stop-color="#3b79c6"></stop><stop offset=".5" stop-color="#3b79c6"></stop><stop offset=".504" stop-color="#3a78c6"></stop><stop offset=".508" stop-color="#3a77c5"></stop><stop offset=".512" stop-color="#3a77c5"></stop><stop offset=".516" stop-color="#3a76c4"></stop><stop offset=".52" stop-color="#3a75c4"></stop><stop offset=".523" stop-color="#3975c3"></stop><stop offset=".527" stop-color="#3974c3"></stop><stop offset=".531" stop-color="#3974c3"></stop><stop offset=".535" stop-color="#3973c2"></stop><stop offset=".539" stop-color="#3972c2"></stop><stop offset=".543" stop-color="#3972c1"></stop><stop offset=".547" stop-color="#3871c1"></stop><stop offset=".551" stop-color="#3870c1"></stop><stop offset=".555" stop-color="#3870c0"></stop><stop offset=".559" stop-color="#386fc0"></stop><stop offset=".563" stop-color="#386fbf"></stop><stop offset=".566" stop-color="#386ebf"></stop><stop offset=".57" stop-color="#376ebf"></stop><stop offset=".574" stop-color="#376dbe"></stop><stop offset=".578" stop-color="#376cbe"></stop><stop offset=".582" stop-color="#376cbe"></stop><stop offset=".586" stop-color="#376bbd"></stop><stop offset=".59" stop-color="#376bbd"></stop><stop offset=".594" stop-color="#376abd"></stop><stop offset=".598" stop-color="#366abc"></stop><stop offset=".602" stop-color="#3669bc"></stop><stop offset=".605" stop-color="#3669bc"></stop><stop offset=".609" stop-color="#3669bb"></stop><stop offset=".613" stop-color="#3668bb"></stop><stop offset=".617" stop-color="#3668bb"></stop><stop offset=".621" stop-color="#3568bb"></stop><stop offset=".625" stop-color="#3567bb"></stop><stop offset=".629" stop-color="#3567ba"></stop><stop offset=".633" stop-color="#3467ba"></stop><stop offset=".637" stop-color="#3466ba"></stop><stop offset=".641" stop-color="#3466ba"></stop><stop offset=".645" stop-color="#3366b9"></stop><stop offset=".648" stop-color="#3366b9"></stop><stop offset=".652" stop-color="#3365b9"></stop><stop offset=".656" stop-color="#3365b9"></stop><stop offset=".66" stop-color="#3265b9"></stop><stop offset=".664" stop-color="#3264b8"></stop><stop offset=".668" stop-color="#3264b8"></stop><stop offset=".672" stop-color="#3164b8"></stop><stop offset=".676" stop-color="#3163b8"></stop><stop offset=".68" stop-color="#3163b8"></stop><stop offset=".684" stop-color="#3063b7"></stop><stop offset=".688" stop-color="#3062b7"></stop><stop offset=".691" stop-color="#3062b7"></stop><stop offset=".695" stop-color="#3062b7"></stop><stop offset=".699" stop-color="#2f62b7"></stop><stop offset=".703" stop-color="#2f61b6"></stop><stop offset=".707" stop-color="#2f61b6"></stop><stop offset=".711" stop-color="#2e61b6"></stop><stop offset=".715" stop-color="#2e60b6"></stop><stop offset=".719" stop-color="#2e60b5"></stop><stop offset=".723" stop-color="#2e60b5"></stop><stop offset=".727" stop-color="#2d60b5"></stop><stop offset=".73" stop-color="#2d5fb5"></stop><stop offset=".734" stop-color="#2d5fb5"></stop><stop offset=".738" stop-color="#2c5fb4"></stop><stop offset=".742" stop-color="#2c5eb4"></stop><stop offset=".746" stop-color="#2c5eb4"></stop><stop offset=".75" stop-color="#2c5eb4"></stop><stop offset=".754" stop-color="#2b5eb4"></stop><stop offset=".758" stop-color="#2b5db3"></stop><stop offset=".762" stop-color="#2b5db3"></stop><stop offset=".766" stop-color="#2a5db3"></stop><stop offset=".77" stop-color="#2a5cb3"></stop><stop offset=".773" stop-color="#2a5cb3"></stop><stop offset=".777" stop-color="#2a5cb2"></stop><stop offset=".781" stop-color="#295cb2"></stop><stop offset=".785" stop-color="#295bb2"></stop><stop offset=".789" stop-color="#295bb2"></stop><stop offset=".793" stop-color="#285bb2"></stop><stop offset=".797" stop-color="#285bb1"></stop><stop offset=".801" stop-color="#285ab1"></stop><stop offset=".805" stop-color="#285ab1"></stop><stop offset=".809" stop-color="#275ab1"></stop><stop offset=".813" stop-color="#2759b0"></stop><stop offset=".816" stop-color="#2759af"></stop><stop offset=".82" stop-color="#2758ae"></stop><stop offset=".824" stop-color="#2758ad"></stop><stop offset=".828" stop-color="#2757ac"></stop><stop offset=".832" stop-color="#2757ab"></stop><stop offset=".836" stop-color="#2756aa"></stop><stop offset=".84" stop-color="#2656a9"></stop><stop offset=".844" stop-color="#2655a8"></stop><stop offset=".848" stop-color="#2655a7"></stop><stop offset=".852" stop-color="#2654a6"></stop><stop offset=".855" stop-color="#2654a5"></stop><stop offset=".859" stop-color="#2653a4"></stop><stop offset=".863" stop-color="#2653a3"></stop><stop offset=".867" stop-color="#2652a2"></stop><stop offset=".871" stop-color="#2652a1"></stop><stop offset=".875" stop-color="#2651a0"></stop><stop offset=".879" stop-color="#26519f"></stop><stop offset=".883" stop-color="#25509e"></stop><stop offset=".887" stop-color="#25509d"></stop><stop offset=".891" stop-color="#25509c"></stop><stop offset=".895" stop-color="#254f9b"></stop><stop offset=".898" stop-color="#254f9a"></stop><stop offset=".902" stop-color="#254e99"></stop><stop offset=".906" stop-color="#254e98"></stop><stop offset=".91" stop-color="#254d97"></stop><stop offset=".914" stop-color="#254d96"></stop><stop offset=".918" stop-color="#254c95"></stop><stop offset=".922" stop-color="#254c94"></stop><stop offset=".926" stop-color="#244b93"></stop><stop offset=".93" stop-color="#244b92"></stop><stop offset=".934" stop-color="#244b91"></stop><stop offset=".938" stop-color="#244a90"></stop><stop offset=".941" stop-color="#244a8f"></stop><stop offset=".945" stop-color="#24498e"></stop><stop offset=".949" stop-color="#24498e"></stop><stop offset="1" stop-color="#24498d"></stop></radialGradient><clipPath id="e"><path d="M94 29h79v105H94zm0 0"></path></clipPath><clipPath id="g"><path d="M108.5 31c-7.5 3.5-12.5 11.5-14 19l14-8.5c9-2 20.5 2.5 28 7.5-29 25.5 7 57-5 84.5L144 121c5-12-.5-26-2.5-36.5 5.5.5 8 7 12.5 9L167 82l-7.5-11-19 12c-7-9.5-4-24.5 0-34 2.605-.16 5.633.414 8.793.996 6.543 1.2 13.648 2.399 18.707-2.996-1-3.5 7-4.5 3-8.5-11.344 8.375-21.96 3.031-32.95-2.312-6.859-3.336-13.863-6.672-21.28-6.672-2.7 0-5.45.441-8.27 1.484"></path></clipPath><linearGradient id="a"><stop offset="0" stop-color="#fddf12"></stop><stop offset=".125" stop-color="#fcde12"></stop><stop offset=".152" stop-color="#fcdd12"></stop><stop offset=".176" stop-color="#fbdc12"></stop><stop offset=".199" stop-color="#fbdc12"></stop><stop offset=".223" stop-color="#fadb12"></stop><stop offset=".246" stop-color="#fada12"></stop><stop offset=".258" stop-color="#f9d912"></stop><stop offset=".277" stop-color="#f9d812"></stop><stop offset=".285" stop-color="#f8d812"></stop><stop offset=".293" stop-color="#f8d712"></stop><stop offset=".301" stop-color="#f8d712"></stop><stop offset=".309" stop-color="#f7d612"></stop><stop offset=".316" stop-color="#f7d612"></stop><stop offset=".324" stop-color="#f6d512"></stop><stop offset=".332" stop-color="#f6d413"></stop><stop offset=".34" stop-color="#f6d413"></stop><stop offset=".348" stop-color="#f5d313"></stop><stop offset=".355" stop-color="#f5d313"></stop><stop offset=".363" stop-color="#f4d213"></stop><stop offset=".371" stop-color="#f4d113"></stop><stop offset=".379" stop-color="#f4d113"></stop><stop offset=".387" stop-color="#f3d013"></stop><stop offset=".395" stop-color="#f3cf13"></stop><stop offset=".402" stop-color="#f2cf13"></stop><stop offset=".41" stop-color="#f2ce13"></stop><stop offset=".418" stop-color="#f1cd13"></stop><stop offset=".426" stop-color="#f1cc13"></stop><stop offset=".434" stop-color="#f0cb13"></stop><stop offset=".441" stop-color="#f0cb13"></stop><stop offset=".449" stop-color="#efca13"></stop><stop offset=".457" stop-color="#eec913"></stop><stop offset=".465" stop-color="#eec813"></stop><stop offset=".473" stop-color="#edc714"></stop><stop offset=".48" stop-color="#edc614"></stop><stop offset=".488" stop-color="#ecc514"></stop><stop offset=".496" stop-color="#ebc514"></stop><stop offset=".504" stop-color="#ebc414"></stop><stop offset=".508" stop-color="#ebc314"></stop><stop offset=".512" stop-color="#eac314"></stop><stop offset=".516" stop-color="#eac214"></stop><stop offset=".52" stop-color="#eac214"></stop><stop offset=".523" stop-color="#e9c114"></stop><stop offset=".527" stop-color="#e9c114"></stop><stop offset=".531" stop-color="#e9c014"></stop><stop offset=".535" stop-color="#e8c014"></stop><stop offset=".539" stop-color="#e8bf14"></stop><stop offset=".543" stop-color="#e8bf14"></stop><stop offset=".547" stop-color="#e7be14"></stop><stop offset=".551" stop-color="#e7be14"></stop><stop offset=".555" stop-color="#e6bd14"></stop><stop offset=".559" stop-color="#e6bd14"></stop><stop offset=".563" stop-color="#e6bc14"></stop><stop offset=".566" stop-color="#e5bc14"></stop><stop offset=".57" stop-color="#e5bb14"></stop><stop offset=".574" stop-color="#e5bb14"></stop><stop offset=".578" stop-color="#e4ba15"></stop><stop offset=".582" stop-color="#e4b915"></stop><stop offset=".586" stop-color="#e4b915"></stop><stop offset=".59" stop-color="#e3b815"></stop><stop offset=".594" stop-color="#e3b715"></stop><stop offset=".598" stop-color="#e3b615"></stop><stop offset=".602" stop-color="#e3b515"></stop><stop offset=".605" stop-color="#e3b515"></stop><stop offset=".609" stop-color="#e3b415"></stop><stop offset=".613" stop-color="#e3b315"></stop><stop offset=".617" stop-color="#e3b215"></stop><stop offset=".621" stop-color="#e3b115"></stop><stop offset=".625" stop-color="#e3b115"></stop><stop offset=".629" stop-color="#e3b015"></stop><stop offset=".633" stop-color="#e3af15"></stop><stop offset=".637" stop-color="#e3af15"></stop><stop offset=".641" stop-color="#e3ae15"></stop><stop offset=".645" stop-color="#e2ad15"></stop><stop offset=".648" stop-color="#e2ad15"></stop><stop offset=".652" stop-color="#e2ac15"></stop><stop offset=".656" stop-color="#e2ab15"></stop><stop offset=".66" stop-color="#e2ab15"></stop><stop offset=".664" stop-color="#e2aa15"></stop><stop offset=".668" stop-color="#e2aa15"></stop><stop offset=".672" stop-color="#e2a915"></stop><stop offset=".676" stop-color="#e2a915"></stop><stop offset=".68" stop-color="#e2a815"></stop><stop offset=".684" stop-color="#e2a815"></stop><stop offset=".688" stop-color="#e2a815"></stop><stop offset=".691" stop-color="#e2a715"></stop><stop offset=".695" stop-color="#e2a715"></stop><stop offset=".699" stop-color="#e2a615"></stop><stop offset=".703" stop-color="#e2a615"></stop><stop offset=".711" stop-color="#e2a515"></stop><stop offset=".719" stop-color="#e2a415"></stop><stop offset=".727" stop-color="#e2a415"></stop><stop offset=".734" stop-color="#e2a315"></stop><stop offset=".742" stop-color="#e2a315"></stop><stop offset=".75" stop-color="#e2a215"></stop><stop offset=".758" stop-color="#e2a215"></stop><stop offset=".77" stop-color="#e2a115"></stop><stop offset=".781" stop-color="#e2a115"></stop><stop offset=".793" stop-color="#e2a015"></stop><stop offset=".816" stop-color="#e2a015"></stop><stop offset=".859" stop-color="#e29f15"></stop><stop offset="1" stop-color="#e29f15"></stop></linearGradient><radialGradient xlink:href="#a" id="h" cx="0" cy="0" r="115.612" gradientTransform="rotate(27.734 -126.81 329)" gradientUnits="userSpaceOnUse"></radialGradient><clipPath id="i"><path d="M172 69h78v105h-78zm0 0"></path></clipPath><clipPath id="j"><path d="m172 89.5 11.5-7.5c11.5-4 21.5 1.5 31 6.5-28.5 24 5.5 56.5-7 85.5l13.5-13.5c5-10.5-.5-25.5-3-35.5 6 .5 8.5 6.5 12.5 8.5L244 123l-7.5-11.5c-7 3.5-14 9-20.5 10.5-6-10.5-1-23.5 2-33.5l21 3c5.5-2 7.5-7.5 11-11.5-5 2.5-9 6-15.5 4.5-14-6.5-27-14.5-43.5-15-9.5 2.5-17.5 9.5-19 20"></path></clipPath><clipPath id="k"><path d="M38 73h75v104H38zm0 0"></path></clipPath><clipPath id="l"><path d="M53 75c-8.5 4-14 13-14.5 22 2-4 6.5-5.5 9.5-8.5 10-6.5 22.5-.5 31 3L72 107c-7 25 20 43.5 10.5 70l10-11.5c8.5-14-3.5-27-4-39.5 4 2 8.5 4.5 10.5 8.5l13.5-13.5-8.5-9.5L85.5 125c-6.5-9-4-24-2-34.5 3.75.938 7.89.898 12.059.86 2.496-.024 5.004-.047 7.441.14 5-2 10.5-7.5 9.5-13.5-10.36 8.96-21.348 4.75-32.61.54-6.37-2.384-12.827-4.767-19.308-4.767-2.523 0-5.055.364-7.582 1.227"></path></clipPath><clipPath id="m"><path d="M131 150h13v19h-13zm0 0"></path></clipPath><clipPath id="n"><path d="M131.352 156.2h3.25c0-.626 0-2.9 2.398-2.9 1.926 0 2.227 1.626 2.227 2.274 0 2.301-1.926 2.403-2.977 2.403h-.55v2.5c1.624 0 3.976.097 3.976 2.523 0 1.977-1.227 2.926-2.625 2.926-2.352 0-2.602-2.153-2.602-3.102l.028-.023h-3.426c0 5.55 4.5 5.926 6.176 5.926 3.574 0 6.046-2.375 6.046-5.727 0-3.023-2.05-3.95-2.671-4.125v-.05c1-.45 2.125-1.575 2.125-3.376 0-3.75-3.125-4.949-5.5-4.949-4 0-5.875 2.375-5.875 5.7"></path></clipPath><clipPath id="o"><path d="M143 149h10v20h-10zm0 0"></path></clipPath><clipPath id="p"><path d="m149.125 149.824-5.676 18.903h2.926l5.676-18.903zm0 0"></path></clipPath><clipPath id="q"><path d="M152 150h9v19h-9zm0 0"></path></clipPath><clipPath id="r"><path d="M157.8 150.5c-.073 1.324-.976 3.074-4.35 3.074h-.5v2.45h4.226v12.226h3.5V150.5zm0 0"></path></clipPath><clipPath id="s"><path d="M147 183h18v26h-18zm0 0"></path></clipPath><clipPath id="t"><path d="M147.984 192.184h4.762c.035-1.82.14-4.653 3.57-4.653 2.38 0 3.43 1.89 3.43 3.535 0 2.797-1.785 4.059-6.266 7.313-5.39 3.922-5.601 6.965-5.777 9.871h16.977v-4.34h-10.782c.563-1.156 2.278-2.273 5.567-4.586 2.414-1.644 5.18-3.812 5.18-8.086 0-5.039-3.782-7.84-8.54-7.84-2.207 0-8.12.704-8.12 8.786"></path></clipPath><clipPath id="u"><path d="M16 21h251v226H16zm0 0"></path></clipPath><clipPath id="v"><path d="M60.5 21.5c-12.84 41.36-44 43-44 43 3.5 69 41 130 98 165 10.25 5 23.375 13.75 34.629 17.352 3.746-1.727 7.91-3.082 12.996-5.977C226 204.5 272.5 137 266 59.5c-18.5-4-38.5-19.5-45-38zM21.254 68.477C53.34 60.14 64.5 25 64.5 25H218c7.5 16.5 26.09 34.14 44.09 37.64C265.344 140.282 214.172 216.81 149 239 79 218 25.754 140.977 21.254 68.477"></path></clipPath><clipPath id="w"><path d="M60 7h9v9h-9zm0 0"></path></clipPath><clipPath id="x"><path d="M60.09 11.91c0 2.2 1.781 3.98 3.976 3.98a3.979 3.979 0 0 0 0-7.956 3.98 3.98 0 0 0-3.976 3.976"></path></clipPath><clipPath id="y"><path d="M80 7h9v9h-9zm0 0"></path></clipPath><clipPath id="z"><path d="M80.09 11.91c0 2.2 1.781 3.98 3.976 3.98a3.979 3.979 0 0 0 0-7.956 3.98 3.98 0 0 0-3.976 3.976"></path></clipPath><clipPath id="A"><path d="M97 8h9v9h-9zm0 0"></path></clipPath><clipPath id="B"><path d="M97.902 12.223c0 2.199 1.782 3.976 3.977 3.976a3.978 3.978 0 1 0-3.977-3.977"></path></clipPath><clipPath id="C"><path d="M118 7h9v9h-9zm0 0"></path></clipPath><clipPath id="D"><path d="M118.84 11.91c0 2.2 1.781 3.98 3.976 3.98a3.979 3.979 0 0 0 0-7.956 3.98 3.98 0 0 0-3.976 3.976"></path></clipPath><radialGradient xlink:href="#a" id="E" cx="0" cy="0" r="115.639" gradientTransform="rotate(27.734 -126.81 329)" gradientUnits="userSpaceOnUse"></radialGradient><clipPath id="F"><path d="M139 7h9v9h-9zm0 0"></path></clipPath><clipPath id="G"><path d="M139.152 11.91c0 2.2 1.782 3.98 3.977 3.98a3.979 3.979 0 0 0 0-7.956 3.98 3.98 0 0 0-3.977 3.976"></path></clipPath><clipPath id="H"><path d="M157 8h9v9h-9zm0 0"></path></clipPath><clipPath id="I" data-source="https://football-logos.cc"><path d="M157.902 12.223c0 2.199 1.782 3.976 3.977 3.976a3.978 3.978 0 1 0-3.977-3.977"></path></clipPath><clipPath id="J"><path d="M177 8h9v9h-9zm0 0"></path></clipPath><clipPath id="K"><path d="M177.277 12.223c0 2.199 1.782 3.976 3.977 3.976a3.978 3.978 0 1 0-3.977-3.977"></path></clipPath><clipPath id="L"><path d="M194 8h9v9h-9zm0 0"></path></clipPath><clipPath id="M"><path d="M194.465 12.223c0 2.199 1.781 3.976 3.976 3.976a3.978 3.978 0 1 0-3.977-3.977"></path></clipPath><clipPath id="N"><path d="M211 8h9v9h-9zm0 0"></path></clipPath><clipPath id="O"><path d="M211.652 12.535c0 2.2 1.782 3.98 3.977 3.98a3.977 3.977 0 1 0-3.977-3.98"></path></clipPath><clipPath id="P"><path d="M110 183h12v26h-12zm0 0"></path></clipPath><clipPath id="Q"><path d="M117.078 183.398c-.101 1.856-1.363 4.305-6.09 4.305h-.699v3.434h5.914v17.113h4.902v-24.852zm0 0"></path></clipPath><clipPath id="R"><path d="M128 183h18v26h-18zm0 0"></path></clipPath><clipPath id="S"><path d="M128.387 192.324c0 4.164 2.761 7.77 7.523 7.77 1.68 0 3.606-.418 4.727-2.098l.066.07c-.031 5.215-2.062 6.926-4.094 6.926-1.504 0-2.59-.73-2.87-2.445v-.035h-4.864c.422 3.953 3.465 6.402 7.7 6.402 4.48 0 9.03-3.113 9.03-12.738 0-3.5-.14-12.778-8.75-12.778-4.867 0-8.468 2.836-8.468 8.926m4.898-.7c0-3.57 2.274-4.198 3.535-4.198 2.52 0 3.746 1.75 3.746 4.586 0 2.937-1.89 4.164-3.605 4.164-1.856 0-3.676-.805-3.676-4.551"></path></clipPath><clipPath id="T"><path d="M167 183h18v26h-18zm0 0"></path></clipPath><clipPath id="U"><path d="M168.145 190.191c0 2.309 1.05 3.883 3.011 4.864-3.781 1.75-3.781 5.039-3.781 6.3 0 3.395 2.203 7.56 8.61 7.56 6.581 0 8.609-4.9 8.609-8.052 0-3.218-1.328-4.793-3.707-5.984 1.992-1.05 2.867-2.867 2.867-5.004 0-3.43-2.73-6.477-7.875-6.477-4.34 0-7.734 2.555-7.734 6.793m4.69.207c0-1.816 1.153-3.078 3.36-3.078 1.575 0 2.871 1.192 2.871 3.078 0 1.786-1.12 3.082-3.046 3.082-2.098 0-3.184-1.613-3.184-3.082m-.422 10.641c0-2.695 1.715-3.848 3.5-3.848 2.73 0 3.64 2.133 3.64 3.883 0 1.715-.98 3.918-3.534 3.918-2.239 0-3.606-1.57-3.606-3.953"></path></clipPath><g clip-path="url(#b)" transform="scale(.8516)"><g clip-path="url(#c)"><path fill="url(#d)" d="M0 260.977h281.82V0H0zm0 0"></path></g></g><g clip-path="url(#e)" transform="scale(.8516)"><g clip-path="url(#g)"><path fill="url(#h)" d="M111.934-3.64 51.668 110.98l105.898 55.68 60.266-114.625zm0 0"></path></g></g><g clip-path="url(#i)" transform="scale(.8516)"><g clip-path="url(#j)"><path fill="url(#h)" d="m188.89 37.371-59.933 114 104.152 54.758 59.934-113.996zm0 0"></path></g></g><g clip-path="url(#k)" transform="scale(.8516)"><g clip-path="url(#l)"><path fill="url(#h)" d="M54.742 42.883-4.02 154.645l101.278 53.25L156.02 96.129zm0 0"></path></g></g><g clip-path="url(#m)" transform="scale(.8516)"><g clip-path="url(#n)"><path fill="url(#h)" d="m133.7 145.465-10.157 19.312 17.086 8.985 10.152-19.317zm0 0"></path></g></g><g clip-path="url(#o)" transform="scale(.8516)"><g clip-path="url(#p)"><path fill="url(#h)" d="m145.313 146.281-9.649 18.352 14.524 7.633 9.648-18.348zm0 0"></path></g></g><g clip-path="url(#q)" transform="scale(.8516)"><g clip-path="url(#r)"><path fill="url(#h)" d="m154.625 147.32-8.984 17.086 13.363 7.028 8.984-17.09zm0 0"></path></g></g><g clip-path="url(#s)" transform="scale(.8516)"><g clip-path="url(#t)"><path fill="url(#h)" d="m151.383 176.406-13.914 26.461 23.535 12.375 13.91-26.46zm0 0"></path></g></g><g clip-path="url(#u)" transform="scale(.8516)"><g clip-path="url(#v)"><path fill="url(#h)" d="M71.941-83.95-76.324 198.048l293.383 154.25L365.324 70.305zm0 0"></path></g></g><g clip-path="url(#w)" transform="scale(.8516)"><g clip-path="url(#x)"><path fill="url(#h)" d="m61.813 4.66-5 9.508 9.507 4.996 5-9.508zm0 0"></path></g></g><g clip-path="url(#y)" transform="scale(.8516)"><g clip-path="url(#z)"><path fill="url(#h)" d="m81.813 4.66-5 9.508 9.507 4.996 5-9.508zm0 0"></path></g></g><g clip-path="url(#C)" transform="scale(.8516)"><g clip-path="url(#D)"><path fill="url(#E)" d="m120.563 4.66-5 9.508 9.507 4.996 5-9.508zm0 0"></path></g></g><g clip-path="url(#F)" transform="scale(.8516)"><g clip-path="url(#G)"><path fill="url(#h)" d="m140.875 4.66-5 9.508 9.508 4.996 5-9.508zm0 0"></path></g></g><g clip-path="url(#H)" transform="scale(.8516)"><g clip-path="url(#I)"><path fill="url(#h)" d="m159.625 4.973-5 9.507 9.508 4.997 5-9.508zm0 0"></path></g></g><g clip-path="url(#J)" transform="scale(.8516)"><g clip-path="url(#K)"><path fill="url(#h)" d="m179 4.973-5 9.507 9.508 4.997 5-9.508zm0 0"></path></g></g><g clip-path="url(#L)" transform="scale(.8516)"><g clip-path="url(#M)"><path fill="url(#h)" d="m196.188 4.973-5 9.507 9.507 4.997 5-9.508zm0 0"></path></g></g><g clip-path="url(#N)" transform="scale(.8516)"><g clip-path="url(#O)"><path fill="url(#h)" d="m213.375 5.285-5 9.508 9.508 4.996 5-9.504zm0 0"></path></g></g><g clip-path="url(#P)" transform="scale(.8516)"><g clip-path="url(#Q)"><path fill="url(#h)" d="m112.633 178.945-12.578 23.922 18.707 9.836 12.578-23.922zm0 0"></path></g></g><g clip-path="url(#R)" transform="scale(.8516)"><g clip-path="url(#S)"><path fill="url(#h)" d="m132.113 176.305-14.238 27.086 24 12.617 14.242-27.082zm0 0"></path></g></g><g clip-path="url(#T)" transform="scale(.8516)" data-source="https://football-logos.cc"><g clip-path="url(#U)"><path fill="url(#h)" d="m171.105 176.305-14.242 27.086 24 12.617 14.242-27.082zm0 0"></path></g></g><!-- source: https://football-logos.cc --></svg>