<svg xmlns="http://www.w3.org/2000/svg" xmlns:xlink="http://www.w3.org/1999/xlink" viewBox="-0.41 0 278.58 352.24"><!-- Source: https://football-logos.cc --><defs data-source="https://football-logos.cc"><clipPath id="f"><use xlink:href="#a" width="100%" height="100%" overflow="visible"></use></clipPath><clipPath id="g"><use xlink:href="#b" width="100%" height="100%" overflow="visible"></use></clipPath><clipPath id="n"><use xlink:href="#c" width="100%" height="100%" overflow="visible"></use></clipPath><clipPath id="o"><use xlink:href="#d" width="100%" height="100%" overflow="visible"></use></clipPath><clipPath id="q"><use xlink:href="#e" width="100%" height="100%" overflow="visible"></use></clipPath><path id="a" d="M47.025 6.162h405.002V534.51H47.025z"></path><path id="b" d="M261.91 151.455s0-.02-.04-.05c.021.03.021.03.04.05m7.599 376.201-7.326-3.829-.04-.021c-2.912-2.317-5.613-4.938-8.717-6.893 1.451-.423 2.953-.906 4.464-1.41.202.221.474.383.806.504 6.269 2.641 10.42 8.182 15.268 12.818-1.503-.201-2.993-.624-4.455-1.169m-6.379-14.429c1.612-.847 3.073-1.895 4.272-3.125h.102c1.38-.181 2.64-.221 3.899.223.826.322 1.099.584 1.401 1.289-.021-.039.02.162.039.303v.464c0 .241-.201.726-.402 1.007-.867 1.371-2.539 1.916-4.011 2.258-.655.162-1.129.545-1.401 1.008-1.199-1.252-2.478-2.42-3.899-3.427m-35.663.724a289 289 0 0 0 9.261-6.429 189 189 0 0 0 15.479-12.597c3.013 2.52 6.157 4.918 9.312 7.215-3.628 4.656-9.261 7.659-14.632 9.796-4.172 1.632-8.768 2.901-13.292 2.901-2.087.001-4.143-.28-6.128-.886m81.947 8.123c-19.207-8.002-37.477-17.394-53.529-30.534a235 235 0 0 0 8.444-8.344c.413-.423.826-.847 1.239-1.31 8.586 7.598 18.734 16.063 23.833 19.247 8.162 5.079 16.426 9.774 25.415 13.141-.443 2.66-1.895 5.22-3.508 7.457-.504.202-1.008.282-1.531.383-.121 0-.242-.02-.363-.04m-106.798-44.803c-2.64-4.596-3.859-9.756-6.228-14.432 3.86 2.258 8.455 3.104 12.606 4.959 6.439 2.881 14.159 9.029 15.519 16.284.101.564.333 1.008.645 1.29-3.083 2.258-6.258 4.434-9.523 6.449-5.461-4.272-9.511-8.403-13.019-14.55m77.937-11.247c3.266-1.351 8.163-2.015 11.811-2.298 4.435-.362 8.184-1.49 11.67-3.587.262-.081.545-.202.766-.323.242-.12.504-.281.746-.443-.686 1.25-1.33 2.5-2.016 3.729-2.58 3.85-5.199 7.68-8.203 11.268-5.038 5.885-11.588 10.016-18.965 12.254-.313.08-.604.322-.847.563a159 159 0 0 1-8.173-7.194c4.001-4.414 7.74-9.01 11.388-13.705.231.08.433.121.665.121a1.97 1.97 0 0 0 1.158-.385m-6.61-29.505c-4.334 5.2-8.314 10.782-12.647 15.982a5.4 5.4 0 0 0-1.22-1.108c-.393-.201-.745-.463-1.158-.686.02.605-.021.524-.201-.201a2.9 2.9 0 0 0-.585-.807c-.081-.04-1.673-1.289-.716-.423-.504-.423-.938-.907-1.572-1.128-1.44-.504-2.74-.908-4.272-.424-1.34.402-2.267 1.652-1.592 3.104 1.018 2.177 3.406 3.306 5.785 2.982.182-.039.413-.039.615-.039.252 0 .473 0 .685-.041.161-.041.302-.101.454-.121.614.363 1.107.887 1.632 1.391a170 170 0 0 1-7.578 8.162c-6.792-8.102-13-16.728-18.723-25.515a123 123 0 0 0 17.343 1.249c8.13 0 16.071-.826 23.75-2.377m-49.469 20.92c-5.512-7.9-10.692-16.607-14.672-25.557 6.379 2.258 12.979 4.031 19.792 5.221 5.593 10.137 12.072 19.711 19.418 28.599a159 159 0 0 1-10.48 9.312 178 178 0 0 1-14.058-17.575m-20.104 57.48c-4.575-1.995-8.828-4.655-13.373-6.771 7.598-1.693 14.733-6.369 21.525-9.714 9.986-4.959 19.197-11.529 28.004-18.301 8.263-6.369 15.458-13.887 21.958-22.009 4.666-5.845 11.852-17.011 15.237-22.411 8.032-1.936 15.73-4.615 23.007-8.063-1.996 3.225-3.729 6.712-5.543 9.916-2.861 5.079-6.57 9.694-10.117 14.27-7.518 9.674-14.864 19.429-23.359 28.297-7.91 8.223-16.637 15.68-25.797 22.451-3.971 2.943-8.092 5.645-12.244 8.385-2.388 1.572-4.847 3.365-7.407 4.797-1.491.766-2.872 1.129-4.232 1.169-2.661-.363-5.18-1.089-7.659-2.016m-54.83-130.641h.02l-.041.04zm-3.578.161-.121-.04c-3.174-1.733-5.593-3.789-7.095-7.356-1.411-3.386-1.864-6.912-1.945-10.48a65 65 0 0 0 1.36-6.167 116 116 0 0 0 11.599 23.5v.081c-.061.101-.121.221-.202.302.101-.12-.02-.081-.081 0-.05.04-.091.04-.05.04-.242.121-.494.242-.716.344.222-.121-.131-.061-.312 0-.081.02-.141.06-.081.06h-.212c-.672-.001-1.559-.041-2.144-.284m-51.695-5.098c-.726-7.961-3.9-15.78-8.828-22.17-.131-.383-.232-.726-.333-1.068-.988-3.446-1.451-7.014-1.492-10.601-.06-7.619 1.985-15.277 3.819-22.654 1.774-7.114 3.033-14.188 3.578-21.545.081-.927.121-1.854.141-2.781 2.288 5.865 5.28 11.469 8.213 17.07 4.726 9.11 7.205 18.623 8.354 28.74.05.242.131.484.211.686-1.119 10.117-.272 22.775 8.092 28.941 1.542 1.17 3.195-1.249 1.713-2.418-4.625-3.668-5.079-10.077-5.452-15.52-.252-3.668.081-7.457.615-11.205.05-.201.111-.443.111-.686v-.121c.353-2.277.786-4.555 1.219-6.771 1.663-8.264 4.142-16.305 6.208-24.467 1.119-4.435 1.693-8.869 2.025-13.322.101.504.202.967.282 1.471.292 1.451.604 2.861 1.038 4.313.222.887.353 1.855.675 2.762 13.009 35.33 11.377 45.327 9.724 57.299-.453 3.729-1.119 7.457-.786 11.166.373 4.191 3.486 7.859 6.439 10.52 3.326 3.004 7.165 5.201 11.146 7.176 2.106 1.008 4.232 2.016 6.318 3.023 1.461.725 2.953 1.692 4.454 2.418 12.284 13.544 27.571 24.266 44.844 31.078a103.2 103.2 0 0 0 8.303 19.912c-3.245-.664-6.439-1.451-9.493-2.781-3.577-1.531-5.532 3.971-2.086 5.604 1.582.746 3.426 1.289 5.22.927 1.259-.241 2.62-1.249 3.859-1.29 1.219-.08 2.741 1.532 3.799 2.237.987.706 1.773 1.572 2.721 2.157.232.342.413.645.625.986 3.9 6.047 8.294 11.791 13.02 17.213-1.451 1.107-3.053 2.277-4.666 3.123-.554-1.068-1.159-2.115-1.874-3.083-2.146-4.534-7.437-8.163-11.317-10.501-6.248-3.85-13.141-3.346-19.812-5.563l-.182-.04a1.17 1.17 0 0 0-.494-.322.81.81 0 0 0-.887-.161c-.232 0-.434.161-.544.383-.161.262-.201.544-.02.826-.02.161.02.363.061.564 2.499 6.813 2.378 13.927 5.784 20.477 2.288 4.395 5.673 7.941 9.493 10.984a28 28 0 0 0 2.802 2.297c-3.769 2.197-7.8 4.656-11.982 6.672a3 3 0 0 0-.373-.504c-.705-.766-1.511-1.351-2.297-2.076-.806-.766-1.169-2.861-1.24-3.93-.04-1.028.212-1.955.051-3.004-.212-1.391-1.179-2.7-1.965-3.828-1.814-2.621-5.653.604-3.799 3.225.705 1.008 1.259 2.136 1.965 3.184.736 1.109 1.34 1.572 1.632 3.004.383 1.994.242 4.191 1.169 6.006a46 46 0 0 1-3.527 1.107c-.313-1.209-1.32-2.196-2.892-1.954-12.294 2.075-25.667-4.091-35.945-10.278-6.399-3.85-13.05-7.78-18.905-12.396a46 46 0 0 1-3.527-3.083 2.4 2.4 0 0 0-.051-1.271c-.887-2.862-2.6-5.038-5.22-6.57-1.441-.826-3.033-1.249-4.615-1.632-2.217-1.271-4.152-2.822-5.905-4.615-1.985-2.057-3.759-4.354-5.492-6.833-2.56-3.647-5.26-7.72-8.424-11.165-2.449-2.923-5.22-5.502-8.626-7.801-5.875-3.909-12.153-7.215-16.839-12.616-3.386-3.909-4.575-8.344-5.593-12.898-.302-1.451-.574-2.942-.887-4.394 1.904 1.874 4.252 3.225 6.853 4.333.474.222.947.423 1.491.624 2.661 1.049 5.462 1.693 8.293 2.299 2.046.482 4.021.926 5.814 1.37.666.161 1.3.322 1.945.483a72 72 0 0 1 2.207.766c.313.121.645.162.907.201.171.041.333.102.494.162.232.08.454.141.706.161 8.979 2.862 17.272 7.216 21.857 16.163 1.461 2.842 6.006.727 4.515-2.176-4.575-8.787-12.254-14.048-21.172-17.373a3.3 3.3 0 0 0-.393-.867c-1.854-2.761-4.212-5.28-5.18-8.545l-.061-.121c-.061-.665-.393-1.311-.967-1.713a3.3 3.3 0 0 0-.625-.524c-2.741-1.773-6.621-2.015-9.714-3.124-1.37-.504-2.69-1.027-3.95-1.633-8.172-4.957-14.299-12.959-17.927-22.17-1.985-4.957-3.094-10.258-4.091-15.518-.413-2.439-.826-4.878-1.38-7.256-.041-.121-.061-.322-.101-.464-.191-.866-.393-1.733-.604-2.64-.736-3.406-1.401-6.793-2.348-10.078.222.201.434.424.655.585 1.018.907 2.277 2.116 3.658 3.204 3.719 3.063 7.8 5.725 11.307 8.344 7.871 5.926 16.658 13.906 20.477 23.42a25.8 25.8 0 0 1 1.139 4.998c.101.766.675 1.129 1.25 1.129.805 0 1.672-.606 1.592-1.673m293.426-21.827c3.346-13.504 6.934-26.947 9.938-40.51 1.511-6.894 2.64-13.847 3.445-20.881.061-.483.102-.947.121-1.451 1.29 5.644 2.6 11.287 3.951 16.91 1.41 5.985 2.861 11.971 3.869 18.018.987 5.744.846 11.428 1.41 17.172.041.201.081.423.182.584.141 2.539.705 5.079 1.008 7.779.041.383.545 2.54.907 2.802.563.767 1.895.907 2.298-.262.201-.585 1.33-2.781 1.834-5.663 1.431-8.445 12.959-21.988 12.959-21.988.807-.727 3.104-3.588 3.95-4.232 5.24-4.012 11.246-8.123 14.592-13.746-.806 14.27-1.733 28.579-6.974 42.043-3.003 7.738-7.537 14.994-12.557 21.524-2.519 3.306-5.34 6.328-8.323 9.21-2.217 2.156-4.958 3.891-6.993 6.269-.343.12-.625.343-.867.646-.443.08-.785.402-.967.766-1.936.664-3.91 1.289-5.805 1.975a65 65 0 0 0-3.567 1.391c.726-4.172 1.431-8.324 1.351-12.596-.041-3.004-.766-5.805-1.391-8.667l.121-3.548a286 286 0 0 0-.021-18.139c-.142-5.038-.222-10.258-.604-15.316.242-1.814.483-3.608.686-5.382.039-.585-.848-.806-1.008-.222-1.895 6.268-3.548 12.576-6.611 18.441-3.225 6.066-8.102 11.004-13.12 15.579-4.394 3.971-8.788 7.9-12.638 12.375-4.271 5.079-5.643 11.811-8.061 17.816-.564 1.472 1.793 2.317 2.257.847 1.955-6.248 6.651-11.568 10.763-16.547 4.212-5.1 9.352-9.372 13.865-14.209 4.213-4.596 7.861-9.674 10.32-15.398.543-1.168.967-2.418 1.37-3.627-.061 1.35-.202 2.7-.323 4.07-.302 2.943-.443 5.886-.564 8.869l-2.217 23.419c-.201 1.148-.383 2.338-.604 3.486a102 102 0 0 1-2.117 9.09c-.544 1.854-1.31 3.628-1.471 5.522-6.087 4.555-11.004 10.521-14.129 17.695-.806 1.854 2.157 2.922 2.963 1.088 4.838-11.286 16.365-17.413 27.188-22.25 4.776-1.733 9.554-3.507 13.826-6.328h.021c4.373-2.237 8.605-4.777 12.495-7.779.604-.383 1.21-.807 1.834-1.21-12.697 19.731-18.019 45.429-42.728 53.691-3.426 1.149-.987 6.208 2.419 5.079a46 46 0 0 0 2.761-1.068c.041.807.162 1.592.363 2.378-.041.544-.08 1.108-.08 1.673-.041 2.681.039 6.147 1.229 8.586-2.499 1.29-4.736 3.446-6.671 5.28-3.548 3.406-6.853 7.034-10.157 10.642-3.266 3.588-6.691 7.055-10.4 10.198-3.668 3.104-7.82 5.401-11.609 8.304-7.9 5.965-18.461 9.553-28.074 11.045-4.051.645-7.275 2.016-10.783 4.07-2.317 1.311-4.695 3.306-7.215 4.132-1.189.384-1.572 1.491-1.451 2.56-9.795-3.547-18.904-8.344-27.41-14.107 1.371-.564 2.58-1.351 3.91-2.057 2.137-1.129 4.373-1.994 6.57-3.002 4.313-2.036 7.881-4.918 11.206-8.324 1.249-1.29-.362-3.266-1.813-2.137-3.709 2.822-8.707 3.607-13.061 5.24v.021-.021c-.08-.322-.161-.443-.201-.766-.081-.403-.041-.807-.121-1.209 2.781-2.5 5.22-5.604 7.175-8.465 1.169-1.693 2.116-3.467 2.983-5.281 2.257-3.769 4.211-7.819 5.864-11.971.121-.202.241-.404.362-.585.263-.423.223-.866-.04-1.188.142-.424-.343-.807-.806-.646a61 61 0 0 0-4.857 2.015c-6.328 1.451-13.182.646-19.489 2.137 1.028-1.37 2.075-2.74 3.124-4.111 3.769-5.039 7.497-10.138 10.48-15.68 2.378-4.395 4.494-8.989 6.65-13.523 25.314-12.939 45.367-34.686 56.17-61.209.081.523.102 1.027.021 1.33-.826 2.62 2.499 4.354 4.192 2.197 1.491-1.875.483-5.342.121-7.518-.887-5.382.302-24.428 4.414-38.858 1.551-6.026 3.305-12.374 3.93-18.683 1.471 4.212 3.648 8.082 5.28 12.273 1.653 4.313 4.192 8.304 6.046 12.536.887 2.097 1.895 4.132 2.5 6.288.423 1.391.604 2.822.887 4.192-1.008 6.167-1.411 12.415-2.419 18.603-.161.746.524 1.189 1.149 1.189.424 0 .847-.222.987-.685m-24.869-76.748c.322.232.645.453.967.705 2.499 1.915 5.24 3.527 8.062 4.979 3.023 1.491 6.106 2.942 9.11 4.555 2.498 1.33 4.938 3.628 7.658 4.354h.121c.807 1.652 1.451 3.266 1.693 5.221.402 2.922-.283 5.985-.848 8.807-.624 3.003-1.611 5.926-2.498 8.828-.202.725-.504 1.491-.766 2.297-.787-1.391-1.613-2.781-2.379-4.111-2.338-4.131-4.979-7.9-6.974-12.213-1.048-2.157-1.935-4.273-2.64-6.611-.484-1.491-.727-3.145-1.27-4.676a29.4 29.4 0 0 0-1.27-4.998c-.263-.726-1.149-.262-1.109.363.121 3.144.545 6.268.162 9.432a102 102 0 0 1-1.936 10.682c0 .121-.041.242-.041.363-.923-9.718-2.959-19.109-6.042-27.977M61.143 324.138c-3.96-9.009-5.674-20.235-5.653-29.989.04-9.17 2.126-18.724 3.839-27.703 1.32-6.873 3.507-13.433 4.122-20.305 1.985 9.08 6.076 17.998 9.109 26.543 2.036 5.754 4.162 11.589 4.928 17.676.292 2.236.454 4.434.514 6.671-.061.181-.081.383-.061.646.02.12.061.262.061.423.02 1.511 0 3.022-.061 4.555-.514 3.668-1.36 7.315-1.421 11.044-.141 5.119 1.3 10.4 2.913 15.197.101.322.282.604.534.766-1.612 4.232-2.539 8.727-2.912 13.262a32.4 32.4 0 0 0 .101 6.086 35.3 35.3 0 0 0-6.106-3.668 22 22 0 0 0-.615-1.935c-.514-3.185-.272-6.106.141-9.433.181-1.652 0-3.365.252-5.038.242-1.532.867-2.983.826-4.534-.03-2.036-2.872-2.358-3.185-.303-.222 1.531.061 2.62-.393 4.191-.494 1.814-1.481 3.427-1.854 5.281-.04.161-.061.281-.081.402-1.713-3.225-3.507-6.49-4.998-9.835m353.679-13.745s6.408-49.832 19.268-69.079c0 0 30.191 48.36-16.365 96.408-3.266-10.964-2.903-27.329-2.903-27.329m-331.207-7.397c-.222-7.438-.242-15.056.666-22.452.806-6.913 2.993-13.937 5.159-20.537 2.439-7.407 7.699-13.685 11.367-20.538v-.02c.232-.282.413-.595.604-.927.373 4.958 1.461 9.966 1.996 14.804.786 7.296 3.597 14.239 4.212 21.645.191 2.389.474 4.787.605 7.186a16.6 16.6 0 0 0 .081 3.164c-.021.403-.021.847-.021 1.27-.211 3.971-1.098 8.042-1.884 11.932-.735 3.709-1.673 7.438-2.882 11.024-.131.384-.252.806-.414 1.21a22 22 0 0 0-.927-1.492c-5.986-9.513-8.838-19.973-12.597-30.393-.101-.332-.494-.353-.735-.161-.292-.03-.625.202-.584.574.806 8.616.604 17.282-.847 25.828-.766 4.515-1.814 8.969-3.013 13.362-.746-5.079-.655-10.541-.786-15.479m23.692 15.358c.03-.141.07-.222.07-.343.343-2.882 1.28-5.683 1.643-8.546.504-3.547 1.159-7.053 1.653-10.561.474-3.547.766-7.094.978-10.641.161-2.781.534-5.553.735-8.345 1.34-3.567 3.144-7.034 4.877-10.026 3.154-5.573 7.568-10.279 12.254-14.612 5.472-5.059 11.851-9.271 17.564-14.138 2.268-1.542 4.474-3.255 6.399-5.16-.887 2.933-1.713 5.946-2.086 9.02-3.174 26.956-21.112 47.211-21.897 47.635-2.741 1.572-.806 5.744 2.126 4.454.615-.263 1.24-.726 1.814-1.29a118.7 118.7 0 0 0-2.368 21.807c-1.26-3.265-2.519-6.489-3.557-9.835-1.209-3.81-2.761-7.659-3.668-11.589-.373-2.076-.645-4.212-.726-6.389 0-.121-.061-.242-.121-.363v-.141c.041-.928-1.401-1.068-1.461-.121 0 .08-.021.182-.021.262-.09.121-.171.283-.151.443 0 .344.02.686.04 1.028-.766 8.163-3.859 16.204-6.188 24.044-1.32 4.414-2.66 8.828-3.839 13.303-1.118-3.387-2.499-6.691-4.07-9.896m280.105-36.631-.021-.07c-1.067-2.842-2.66-5.502-4.192-8.213-1.895-4.706-3.305-9.734-4.293-15.065-2.418-13.1-2.136-26.453-2.217-39.724 3.709 3.718 7.578 7.225 11.246 10.954.322.353.727.544 1.109.685.201.574.423 1.159.664 1.693 1.25 5.452 3.387 10.752 5.482 15.912 2.137 5.3 4.877 10.218 7.76 15.085l5.341 45.155-.021.162c-1.209-3.83-2.52-7.619-3.809-11.428a77 77 0 0 1-1.613-5.039l-1.652-9.24c0-.172-.02-.332-.02-.504 0-2.056-.061-4.121-.424-6.127-.121-.766-1.33-.746-1.37.04-.04 1.472-.04 2.913-.04 4.374v.231l-2.137 12.798a51.1 51.1 0 0 1-9.793-11.679m-50.063-43.241a1090 1090 0 0 1-4.757-8.334c-2.58-4.545-5.381-9.644-8.768-14.078 2.157 1.259 4.495 2.247 6.772 3.154 5.079 2.005 10.259 3.819 15.357 5.744 9.211 3.507 17.333 8.415 23.419 15.952 1.754 5.341 1.473 11.921 2.883 16.96.928 3.225 2.076 6.359 3.325 9.432 1.572 5.945 3.85 11.891 6.954 17.242-10.117-4.816-29.546-20.093-45.185-46.072m69.19 24.397c-1.855-5.351-4.556-10.511-6.471-15.751-2.861-7.759-5.965-15.287-6.691-23.591-.685-7.759.283-15.66.223-23.419-.021-3.285-.201-6.611-.666-9.906 3.246 5.573 7.78 10.259 12.133 15.106 6.45 7.246 10.965 16.154 13.262 25.586 1.855 7.498 1.371 15.418 1.21 23.077-.161 7.538-.767 15.378-2.661 22.684l-.02.102a307 307 0 0 0-1.936 5.633c-.543 1.672-1.188 3.426-1.773 5.18-.806-8.689-2.801-17.174-6.61-24.701m-172.361-61.421a30 30 0 0 1 2.207-2.328 1048 1048 0 0 1 8.082-6.853c2.106-1.512 4.273-2.933 6.57-4.111.242-.141.414-.353.474-.534 5.099 4.293 9.906 8.888 14.319 13.947a123 123 0 0 0-15.639-1.008c-5.492 0-10.904.373-16.184 1.088.04-.08.1-.14.171-.201M70.636 256.601c-.414-.907-.827-1.794-1.22-2.701.333-.313.584-.726.625-1.34 1.179-13.352 4.968-26.292 11.226-38.122 5.019-9.513 11.145-18.351 16.98-27.339-.061.363-.121.736-.182 1.108-2.791 8.505-3.627 17.857-4.151 26.563-.373 6.127-.494 12.274-.907 18.411-.161 2.741-.534 5.512-.433 8.273.101 1.612-.162 3.074-.434 4.666-.04.222-.081.494-.101.766-1.733 3.013-3.446 6.026-5.341 8.908-2.61 3.9-5.472 7.598-7.437 11.871-.635 1.32-1.32 2.953-1.814 4.645-1.964-5.37-4.353-10.55-6.811-15.709m37.436-11.035c-1.401-9.563.786-17.897 5.139-26.321 1.673-2.248 3.447-4.414 5.079-6.681 5.26-7.407 12.193-13.211 18.472-19.731 3.013-3.114 5.28-6.58 7.366-10.359.726-1.28 1.471-2.519 2.227-3.759-.846 2.661-1.935 5.2-2.721 7.901-1.965 6.792-2.479 13.644-2.459 20.678.041 7.165-.373 14.31-1.461 21.364-.847 5.432-3.054 12.858-7.226 16.778a2.6 2.6 0 0 0-.474.604c-4.021 2.802-7.971 5.774-11.518 9.04-2.388 2.207-4.585 4.595-6.479 7.255a88 88 0 0 0-1.814 2.56c-1.47-6.43-3.203-12.809-4.131-19.329m219.381-46.809c-8.203-1.592-16.104-4.111-23.682-7.719-1.733-.827-3.508-1.753-5.16-2.852a50 50 0 0 0-1.129-.826c-4.271-3.446-6.973-7.508-8.887-12.425 9.512 4.313 20.98 3.638 31.178 3.033 7.68-.433 15.016.746 22.291 3.265 5.986 2.086 13.705 4.998 17.938 10.198.121.383.242.776.322 1.189 1.975 6.59 5.16 12.637 9.312 18.058-12.214-7.92-28.257-9.179-42.183-11.921m-137.544 14.048c5.089-5.26 10.299-10.4 15.68-15.348 8.958-8.263 18.471-15.872 28.417-22.896 4.605 3.104 9.1 6.318 13.393 9.725-8.001 6.188-15.781 12.778-23.651 19.237a118.4 118.4 0 0 0-42.617 19.066c2.661-3.485 5.785-6.69 8.778-9.784m-29.163 7.225c2.842-2.499 5.875-4.434 9.14-6.298 3.033-1.048 6.188-1.733 8.979-3.315 5.754-3.285 10.047-8.707 13.886-13.977 4.011-5.472 7.719-11.035 11.166-16.879 3.466-5.865 6.953-12.073 12.677-15.972 2.64 1.542 5.26 3.154 7.86 4.787 1.774 1.118 3.567 2.247 5.301 3.406a287 287 0 0 0-29.113 23.712c-5.331 4.958-10.47 10.138-15.529 15.377-4.746 4.968-9.362 10.148-12.465 16.325-.383.786-.302 1.481.07 2.016A117.7 117.7 0 0 0 156 246.756v-.242c.181-5.472.474-10.883 1.793-16.204.121-.554-.081-.987-.413-1.239-.534-.575-1.512-.695-2.146.141-2.267 2.993-4.524 5.613-7.518 7.911-1.733 1.3-3.688 2.287-5.693 3.174.625-1.441 1.179-2.913 1.693-4.313 2.438-6.681 2.832-14.34 3.033-21.404.151-4.263.02-8.495.101-12.728.051-.081.091-.121.151-.231 2.701-5.553 8.052-9.674 12.919-13.272 5.945-4.374 12.445-6.742 19.479-8.767 6.691-1.915 13.131-3.839 19.378-6.913 4.747-2.308 8.979-5.472 13.625-7.84-3.225 2.741-5.905 6.167-8.485 9.533-4.293 5.572-8.465 11.266-12.708 16.879-1.965 2.56-3.95 5.059-6.046 7.407a1.4 1.4 0 0 0-.463.504c-1.028 1.108-2.056 2.167-3.154 3.174-3.527 2.308-7.074 4.454-10.671 6.681-3.235 1.985-7.014 2.56-10.48 3.971-2.56 1.028-5.512 2.499-6.873 5.079-.988 1.834-1.199 4.787 1.572 5.049h.282c1.964-.002 4.029-1.877 5.37-3.076m215.219-9.654c-4.736-5.311-8.244-11.458-10.602-18.119-.041-.191-.081-.373-.201-.564-.363-1.088-.727-2.207-1.008-3.346-1.936-6.913-2.983-14.088-3.306-21.232-.121-2.6-.04-5.28-.182-7.9a29 29 0 0 0-.142-2.973c4.435 5.573 10.078 10.027 14.432 15.741 6.166 8.132 9.633 18.603 12.556 28.256.121.393.302.746.544 1.028-.967 5.623-1.491 11.458-1.129 17.131.041.998.121 2.086.242 3.225-3.788-3.679-7.678-7.266-11.204-11.247M149.187 170.29a78 78 0 0 0 1.34-4.454c3.074-4.908 7.991-6.5 13.292-8.233 2.247-.746 5.653-1.361 8.646-2.378-.947 2.066-1.733 4.212-2.519 6.318-1.753 4.726-3.819 8.999-6.722 13.13-4.424 6.268-10.369 11.408-15.65 17.041l.021-.06c1.058-6.994 2.005-14.159 4.212-20.88.393-1.199-1.219-2.086-1.965-1.038-.434.625-.796 1.26-1.129 1.925.162-.485.333-.938.474-1.371m159.804 45.78c-5.724-8.687-11.71-16.99-19.046-24.538-6.006-6.177-12.597-11.791-19.449-17.051 4.232-2.519 8.334-5.119 12.758-7.386 5.926-3.054 12.053-5.754 18.159-8.375 5.542-2.358 11.104-4.736 16.708-7.003 2.338 5.119 3.748 10.611 6.43 15.63.846 1.582 1.813 3.194 2.922 4.676-5.502-.615-12.053 2.045-17.172 3.386-7.699.847-15.316 1.159-22.693-2.721a.6.6 0 0 0-.363-.121.9.9 0 0 0-.463.02c-.464.141-.887.554-.766 1.109 1.914 8.092 6.791 14.591 13.241 19.217 5.583 4.868 14.329 7.538 21.263 9.473 8.889 2.499 18.099 3.719 27.107 5.845 8.304 1.935 17.212 4.666 23.521 10.732.343.302.665.514 1.028.655-.344 5.2-.524 10.44-.424 15.69-5.381-5.986-12.496-10.158-20.094-13.191-10.823-4.292-22.291-5.139-32.408-11.186a32 32 0 0 0-2.197-1.904c-.866-.635-1.713.524-1.189 1.31 2.781 4.021 5.543 7.9 7.9 12.193 1.089 1.955 2.097 3.96 3.104 5.986a118 118 0 0 0-17.877-12.446m41.579-35.723c-3.789-1.774-7.699-3.225-11.689-4.293a1.2 1.2 0 0 0-.424-.413c-4.736-2.58-8.243-7.226-10.984-11.76-2.539-4.293-4.998-8.606-7.457-12.929 5.039-1.975 10.238-3.769 15.156-6.086 4.434 3.305 8.505 6.873 12.174 11.024 4.998 7.941 7.376 18.099 7.617 26.664a81 81 0 0 0-4.393-2.207m-246.972 40.308-.041-.071-.061-.161c1.109-1.592 2.056-3.305 2.509-5.18 4.112-8.485 5.039-18.653 6.943-27.763 1.915-9.14 5.936-17.313 12.445-24.024 4.474-4.595 9.906-8.646 15.348-12.213 2.458-1.179 4.917-2.348 7.205-3.819 1.32-.847 2.56-1.794 3.799-2.761 1.068-.645 2.146-1.26 3.215-1.925.272-.06.524-.222.726-.453.353-.202.685-.434 1.008-.635-4.767 6.419-7.115 14.552-9.573 22.23-2.026 6.389-4.686 12.435-8.294 18.119-2.62 4.122-5.26 8.102-8.324 11.8-5.956 5.513-12.012 10.531-16.98 17.091-.231.312-.453.615-.685.907-.081.061-.121.141-.161.202l-.081.111c-.645.867-1.3 1.713-1.945 2.6-1.975 2.268-4.353 4.313-6.56 6.399a2.3 2.3 0 0 0-.493-.454m250.72-63.325c-3.305-6.721-8.122-12.334-14.632-14.733.665-.292 1.351-.554 2.036-.846l.181-.041c.081-.061.202-.101.282-.161.121-.02.242-.091.363-.131 2.801-1.068 5.521-.534 7.84.887q.997.997 1.935 2.025c.646.706 1.188 1.492 1.794 2.247.322.706.645 1.361.927 1.945 1.431 3.073 2.217 6.5 3.022 9.775.344 1.532.223 3.225-.02 4.917a43 43 0 0 0-3.728-5.884m-121.42-8.061.101-.111c3.235-4.948 10.128-6.087 15.519-7.608 4.122-1.159 8.958-1.632 12.958-3.406-1.259 2.096-2.166 4.434-3.385 6.641-1.129 2.025-2.146 4.111-3.427 6.066-1.501 2.378-3.547 4.031-5.593 5.945-.655.615-.826 1.481-.675 2.288a1124 1124 0 0 0-6.853-4.374c3.013-2.388 7.82-3.255 8.435-7.699.171-1.189-1.36-1.521-2.015-.736-.786.927-1.391 1.733-2.479 2.348-.947.534-2.005.927-2.993 1.421-1.511.766-2.912 1.552-4.131 2.67-1.814-1.138-3.628-2.297-5.462-3.445m28.438 1.753-.11-.111c-.101-.081-.242-.202-.362-.282l-.092-.111a2 2 0 0 0-.574-.454c.081-.222.182-.453.272-.695.866-2.227 1.3-4.585 2.167-6.832.734-1.834 1.672-3.567 2.498-5.412 2.49 3.658 5.855 6.853 9.927 8.344-4.272 2.066-8.525 4.202-12.697 6.439-.121-.171-.292-.313-.454-.454-.02 0-.04-.05-.1-.07.039.02.06.02.06.02-.162-.14-.353-.261-.535-.382m-99.048-12.697a8.2 8.2 0 0 0 2.56-1.3c.998-.434 1.925-.474 3.225-.101.514.121 1.068.353 1.612.494 1.854 1.401 4.162 2.459 5.916 3.467 5.391 3.094 10.752 6.318 16.265 9.18a333 333 0 0 1 6.56 3.426c-1.733.232-3.406.333-5.089.867-1.078.333-1.532 1.965-.212 2.398 2.026.635 4.071.746 6.188.706 1.653-.051 3.386-.111 4.817-.897a343 343 0 0 1 9.694 5.432c-1.521.514-2.953 1.3-4.374 2.146-3.507 2.025-6.853 3.98-10.692 5.432-8.132 3.013-16.426 4.867-24.81 7.114a51 51 0 0 0-9.301 3.537 44 44 0 0 0 2.288-2.953c5.28-7.437 6.439-16.537 10.319-24.608a10 10 0 0 0 .827-.887c.927-1.24-.272-3.235-1.834-2.862-2.479.635-4.877 2.106-7.387 2.882-3.326 1.058-6.691 1.884-9.977 3.104-1.915.695-4.353 1.793-6.369 3.295 1.933-7.366 4.272-14.531 9.774-19.872m97.638 28.478a396 396 0 0 0-6.742-4.575c9.039-5.25 18.32-10.017 27.713-14.551 6.973-3.366 13.967-6.752 21.102-9.725 3.506-1.441 7.054-2.872 10.561-4.272.484-.202.987-.454 1.491-.675 1.895-.564 3.789-1.24 5.663-1.905.686-.141 1.371-.262 2.036-.433 4.575-.222 9.009.947 13.442 2.318 1.411.433 2.802.967 4.172 1.542.727.686 1.33 1.492 1.291 2.52-.041 1.32-.706 1.904-1.532 2.459a112 112 0 0 1-3.548 1.582c-7.9 2.872-15.922 5.492-23.741 8.505-11.267 4.374-22.411 9.04-33.204 14.451-4.354 2.146-8.546 4.535-12.607 7.074a347 347 0 0 0-6.097-4.315m13.957 36.116c-1.139-1.481-2.338-2.922-3.508-4.354-3.406-4.041-7.164-7.719-11.064-11.246-8.293-7.507-17.665-13.806-27.138-19.751a354 354 0 0 0-31.602-17.706 528 528 0 0 1-17.947-9.291c-2.5-1.38-5.059-2.701-7.558-4.021-1.753-.947-3.94-1.794-5.341-3.285-.02-.081-.041-.182-.091-.262-.101-.292-.061-.625.131-.947 4.333-1.884 8.455-4.031 12.667-6.036 1.572.373 3.285 1.491 4.565 1.985.282.101.595.232.887.353a8 8 0 0 0 1.572.907c.534.212 1.068.434 1.603.595 1.038.484 2.086.937 3.124 1.371 2.761 1.733 5.774 3.154 8.667 4.615 6.248 3.144 12.052 6.731 17.907 10.51 11.579 7.447 23.238 14.793 34.635 22.533 10.4 7.084 20.346 14.904 29.314 23.752 5.926 5.885 10.964 12.244 15.6 18.945a120 120 0 0 0-26.423-8.667m-73.766-72.626c5.331-2.187 10.772-4.202 16.245-5.633 5.784-1.481 11.659-2.781 17.333-4.636 2.066-.665 4.273-1.451 6.419-2.418-3.688 4.152-6.702 9.12-9.775 13.352-2.872 3.94-6.198 7.367-9.745 10.692-2.681-1.612-5.341-3.245-8.072-4.766 1.652-.927 3.325-1.824 5.059-2.58 1.592-.726.413-3.225-1.179-2.458-2.328 1.159-4.706 2.146-7.074 3.214-3.013-1.663-6.087-3.275-9.211-4.767m79.539 11.317c-3.406-1.552-6.398-2.52-9.079-5.311-2.328-2.429-4.001-5.401-5.532-8.354-1.955-3.839-3.92-7.659-6.168-11.307 0-.131 0-.232-.04-.353a6.7 6.7 0 0 0-.665-1.733c3.346 2.308 6.832 4.333 10.772 5.441 3.899 1.119 7.972 1.764 11.911 2.771 4.777 1.199 9.514 2.701 14.008 4.746 1.854.847 3.748 1.895 5.24 3.285.887.836 1.289 1.854 1.773 2.842-.545.212-1.088.413-1.613.625a141 141 0 0 0-7.436 3.013c-.807-2.398-2.963-2.731-4.898-4.152-2.217-1.612-5.039-2.54-7.497-3.648-1.622-.726-2.55 1.542-1.351 2.549 1.794 1.492 3.77 1.905 5.926 2.69 1.27.494 2.861.695 3.85 1.733.604.615 1.088 1.209 1.652 1.794a678 678 0 0 0-9.694 4.434c-.221-.41-.625-.803-1.159-1.065m21.999-16.224c-4.173-3.013-9.372-4.666-14.249-6.046a100.5 100.5 0 0 0-14.391-2.973c-.906-.121-1.834-.272-2.771-.414-.061-.393-.161-.766-.182-1.179 0-.162-.061-.333-.141-.474 5.875.564 11.72 1.4 17.484 2.539 9.271 1.834 18.219 4.727 27.147 7.74.101.121.263.251.423.373.605.393 1.23.826 1.613 1.461.423.705-.081 1.259-.283 1.985v.313c-.181.061-.322.141-.482.222-1.613.333-3.246 1.038-4.797 1.532a155 155 0 0 0-4.313 1.441c-.402-2.641-2.942-5.009-5.058-6.52m-111.252.161c-.604-.302-1.219-.575-1.864-.867 0-.121-.02-.242-.061-.393a1.28 1.28 0 0 1-.02-.907c1.139-.454 2.297-.907 3.446-1.32 10.057-3.446 20.638-5.401 31.169-6.792a233 233 0 0 1 16.738-1.501c.04.252.04-.02.02.292-.02.081-.02.162-.02.202-2.993 1.119-6.046 1.945-9.412 2.6-6.066 1.179-12.133 2.045-18.119 3.638-5.663 1.521-11.206 3.467-16.416 6.188-.383.181-.756.413-1.128.615-1.401-.657-2.872-1.211-4.333-1.755m39.412 18.018-.061-.021c-.121-.02-.222-.06-.353-.101a8 8 0 0 1-.947-.373l-.061-.02c-.182-.121-.373-.232-.554-.373-.353-.242-.534-.434-.746-.655a58.6 58.6 0 0 0 5.785-6.651c2.821-3.839 5.18-8.092 7.648-12.153a83 83 0 0 1 6.479-9.1c.474-.191.958-.353 1.471-.474.242-.091.514-.131.766-.191.967-.02 1.915-.02 2.881-.02l.021.02c.745.806 1.884 1.099 2.871 1.552.474.242.907.635 1.28 1.088 2.56 5.351 3.819 11.397 6.339 16.698.241.554.554 1.098.846 1.652-3.346 2.005-7.104 1.36-10.984 2.066-3.254.574-6.5.967-9.764 1.733-3.195.766-9.261 2.328-12.274 5.421a2.2 2.2 0 0 0-.643-.098m-71.034-27.339c-3.446-1.32-6.52-5.492-2.025-8.012 2.025-1.119 3.93-2.288 6.006-3.265 2.65-1.25 6.006-1.814 8.606-.162 1.159.726 1.632 2.106 2.066 3.467-.242.867-.635 1.713-1.088 2.479a240 240 0 0 0-8.838 3.648c-1.461.645-3.013 1.28-4.535 1.945-.071-.04-.132-.08-.192-.1m179.737-2.107a214 214 0 0 0-10.621-3.739c-.907-.635-1.613-1.139-2.217-2.187-1.311-2.398 1.188-5.452 3.688-5.452 2.943-.02 5.966 1.804 8.666 2.771 2.58.907 5.119 1.753 7.316 3.366 1.027.736 2.035 2.248 2.035 3.567 0 1.421-.725 2.288-1.692 2.842-.847.091-1.692.272-2.499.413a112 112 0 0 1-4.676-1.581m-97.991-13.211c2.187-.041 4.404-.061 6.611-.021 17.646.373 34.786 2.268 52.079 5.946 8.827 1.854 17.635 3.94 26.079 7.225 3.85 1.481 7.739 2.993 11.589 4.475.947.373 1.875.705 2.842 1.028.08.04.161.07.262.091 2.741.927 5.543 1.854 8.063 3.114 1.451 1.159 2.6 2.741 3.002 4.494.888 4.031-5.965 1.885-7.658 1.3-4.313-1.501-8.424-3.215-12.818-4.475-5.603-1.612-11.084-3.507-16.607-5.351-20.678-6.893-41.699-10.419-63.516-10.379-20.567.061-41.145 2.58-60.695 9.19-4.353 1.461-8.394 3.366-12.405 5.341l-.121.041c-1.915.706-3.759 1.713-5.552 2.771a296 296 0 0 1-4.434 2.126c-3.326 1.481-6.953 2.822-10.672 2.64-2.005-.101-3.88-.947-4.887-2.771-.544-.947-.434-2.126-.041-3.275 3.769-5.291 10.914-7.125 16.839-9.13 8.545-2.902 17.151-5.563 25.959-7.588 9.1-2.106 18.229-3.96 27.43-5.2a18 18 0 0 0 1.793-.252 169 169 0 0 1 9.312-.947c.595.081 1.219.101 1.834.101 1.873 0 3.837-.242 5.712-.494m72.676 3.175c-6.59-1.229-13.221-2.62-19.791-3.96-4.111-.847-7.981-1.653-11.75-3.547-1.229-.615-2.812-1.441-3.719-2.479-.635-.735-.161-1.632.494-2.408 5.603-2.56 12.616-.504 18.239.846a239 239 0 0 0 13.483 2.922c3.084.605 11.307 1.824 12.395 5.533.847 2.993-1.451 3.739-4.07 3.739-2.015-.001-4.213-.455-5.281-.646M178.159 99.9c2.207-1.612 5.905-1.945 8.193-2.62a134 134 0 0 1 13.705-3.346c3.84-.746 7.558-1.904 11.337-2.771 3.789-.867 8.515-1.915 12.254-.363.333.403.615.796.907 1.27 1.3 2.298-.162 4.646-2.126 5.865-2.6.988-6.147 1.199-8.112 1.32-4.081.252-8.082 1.36-12.052 2.58a151 151 0 0 0-13.906 3.366 249 249 0 0 0-7.991 2.56c-2.702-1.613-4.577-5.281-2.209-7.861m67.658-11.951c3.376-.101 6.782.02 10.168.121 5.22.131 12.163-.373 16.577 2.852 3.013 2.207-1.512 5.16-3.547 5.401-4.344.504-8.606-.04-12.97-.101-5.401-.101-10.874-.161-16.234.373-2.933.252-5.553.373-8.405-.554-1.36-.454-2.025-1.26-2.227-2.167a4.7 4.7 0 0 0 .021-1.511l-.021-.081c.222-1.007.766-2.025 1.421-2.892.625-.413 1.3-.826 1.985-1.128 1.008-.02 1.995-.041 3.013-.091.454.05.887.091 1.34.151.594.081 1.239.121 1.854.121 2.339-.001 4.708-.434 7.025-.494m-95.904 8.918c1.25-.726 2.761-1.199 4.001-1.693a831 831 0 0 1 9.311-3.406c4.313-1.612 8.747-2.771 13.161-4.091 3.96-1.219 7.991-2.308 12.072-2.993 1.753-.302 3.547-.453 5.351-.322.675.02 1.34.161 1.975.343l.081.04c.272.313.433.353.604.645 1.794 3.366-16.859 8.465-18.844 9.06-3.799 1.159-7.538 2.358-11.226 3.839-3.527 1.38-7.034 2.781-10.792 3.346-.413.06-.826.101-1.26.101-2.973-.002-6.238-1.553-4.434-4.869m194.046 4.767c-8.143-2.67-16.123-5.573-24.326-7.991-.928-.514-1.914-.927-2.922-1.3-1.352-.453-2.781-.786-4.172-1.068a33 33 0 0 1-3.729-1.713c-2.238-1.159-6.511-3.759-2.54-5.804l.081-.061c6.771.373 12.999 2.872 19.348 5.099 4.354 1.501 8.787 2.56 13.182 3.819 3.909 1.088 9.955 2.479 11.891 6.399 1.088 2.227 1.008 3.174-1.492 3.466a6 6 0 0 1-.846.061c-1.493 0-3.104-.454-4.475-.907M202.737 85.228c-.101-2.167-.363-3.799 3.013-4.585 3.698-.827 7.639-1.008 11.417-1.532 4.313-.615 8.545-1.603 12.919-1.854 4.152-.252 8.273-.786 12.465-.454 3.608.313 6.147 1.28 4.646 4.868-1.793.866-3.698 1.431-6.046 1.733-3.345.434-6.731.434-10.097.434h-2.66c-3.507.07-6.833.645-10.239 1.239-2.065.151-4.142.564-6.208 1.058-1.259.182-2.56.302-3.819.302-1.944 0-3.818-.302-5.391-1.209m90.816 1.008c-2.641-.393-5.159-.988-7.84-1.24-3.325-.313-6.752-.101-10.098-.272-4.07-.182-7.951-.816-11.91-1.623-1.441-.292-6.46-1.239-6.742-3.305.061-.182.08-.393.08-.625-.04-.534.061-1.028.242-1.542l.041-.121c.131-.131.252-.252.372-.393 1.692-1.512 5.925-.947 8.011-.433 3.055.735 6.772.373 9.947.695 3.697.393 7.396.978 11.084 1.491 4.273.635 9.252-.081 12.396 3.587 1.008 1.179 1.169 3.547-.564 3.96-.524.151-1.089.191-1.632.191-1.15.002-2.319-.209-3.387-.37M186.292 70.445h.171l-.151.04zm4.091-1.179v.071l-.171.04zm23.732-.101c2.64-.353 5.3-.695 7.981-1.008.151-.02.313-.02.433-.061 6.671-.806 13.362-1.38 20.064-1.512 8.918-.161 17.997-.373 26.876.514.222.02.473.02.675-.02 6.046 1.118 12.224 1.199 18.29 2.338 3.486.655 6.934 1.501 10.439 2.187 3.648.726 7.518.867 11.045 2.025.223.081.424.101.625.121.968.393 1.955.726 3.084.947.826.141 1.612.333 2.438.494 1.33.494 2.66 1.038 3.991 1.451 5.038 1.582 10.398 2.268 15.357 4.142 4.655 1.774 9.473 3.205 14.168 4.938 4.192 1.521 8.082 3.749 12.113 5.613 1.37 1.34 2.418 2.993.745 4.666-1.915 1.955-4.615.242-6.51-.726a81 81 0 0 0-6.651-3.013c-.483-.313-.967-.574-1.391-.806-2.963-1.552-6.166-2.6-9.412-3.487-1.531-.726-3.285-1.118-4.836-1.652-1.693-.575-3.387-1.088-5.08-1.401-.201-.061-.383-.171-.543-.232-2.621-1.068-5.301-1.895-7.961-2.801l-.162-.081c-5.926-2.6-12.273-3.618-18.602-4.686-1.532-.252-3.084-.494-4.616-.746-1.895-.494-3.89-.746-5.765-.927a756 756 0 0 1-7.094-1.139c-3.507-.867-7.175-1.088-10.702-1.239a520 520 0 0 1-16.305-.806c-5.341-.363-10.561-.121-15.932 0-3.174.07-6.5-.061-9.654.544-7.759.182-15.217 1.995-22.875 3.366-6.933 1.25-14.693 1.32-21.525 3.527-2.761.494-5.522 1.28-8.042 2.056-5.492 1.652-10.611 4.131-16.042 5.986-4.102 1.431-8.102 3.043-12.133 4.666-.746.313-1.421.645-2.045 1.038-1.3.454-2.6.907-3.94 1.239-3.154.796-5.421-1.32-2.781-3.97 3.467-3.467 8.193-4.888 12.586-6.802 9.352-4.091 19.731-5.583 29.184-9.029l5.079-1.461.927-.272-.101-.041c2.66-.474 5.341-.846 8.042-1.26 4.252-.635 8.404-1.663 12.697-2.187 1.108-.121 2.227-.302 3.366-.494.081.02.161.04.222.04.081.001.172-.019.273-.039m-32.238-1.996c-.312-1.058-.413-2.237-.252-3.225.171-1.098.706-1.915 1.24-2.741a5.6 5.6 0 0 1 3.799-1.471 5.6 5.6 0 0 1 4.333 2.025c.101.141.211.313.292.433a4.57 4.57 0 0 1 .766 2.268c0 .191 0 .373.02.584-.151 2.66-2.499 4.807-5.412 4.807-2.064.001-3.878-1.097-4.786-2.68m130.278.797c-1.571-1.441-1.411-3.487-.927-5.482.04-.061.08-.151.121-.232.504-.806 1.129-1.481 1.773-2.207 1.652-.685 3.547-.705 5.078.373 2.379 1.713 1.109 6.298-1.067 7.588-.827.504-1.774.827-2.722.827-.825 0-1.61-.243-2.256-.867m-116.038-6.974c-.202-1.562.474-2.801 1.481-3.819 4.958-.947 10.017-2.408 15.045-2.509.091.06.171.121.272.161 3.718 1.521 2.6 6.751-.242 8.313a16 16 0 0 1-1.018.474c-1.612.393-3.174.826-4.767 1.119-2.479.474-5.734 1.421-8.545 1.441-1.299-1.34-1.974-3.406-2.226-5.18m100.399 4.414c-2.499-.454-5.441-.655-7.537-2.116-1.352-.938-1.653-2.58-1.572-4.253.121-.131.201-.251.262-.413 1.814-6.157 13.967-4.837 17.474-.998 1.774 2.005.524 5.593-1.089 7.226-.866.887-2.055 1.159-3.345 1.159-1.452 0-2.984-.373-4.193-.605m-74.642-3.608c-1.008-1.693-1.381-3.779-1.32-5.693a.5.5 0 0 0-.02-.252c.181-.675.474-1.28.847-1.935.453-.413.947-.826 1.542-1.139 1.844-.887 3.678-.141 4.978 1.24a5.48 5.48 0 0 1 1.24 3.507c0 2.872-2.086 5.18-4.646 5.18-.968 0-1.855-.353-2.621-.908m52.169-.594a4.5 4.5 0 0 1-.887-.998c-.635-2.247-.313-4.595.746-6.782a5.2 5.2 0 0 1 3.588-1.451c2.7 0 4.918 2.005 5.24 4.605-.484 2.852-3.295 5.492-6.107 5.492-.887.001-1.753-.251-2.58-.866M140.39 80.603c-1.441-2.277-2.58-4.666-3.749-7.104a72 72 0 0 1-3.205-7.648c-.635-1.784-1.461-3.91-1.219-5.865 3.265-3.466 7.538-4.504 12.163-6.006 3.769-1.199 7.447-2.832 11.166-4.192 3.446-1.28 7.719-3.86 11.619-4.082 3.315 1.34 4.706 5.774 5.774 8.929.786 2.317 1.612 4.585 2.418 6.853.242.705.514 1.36.786 2.045.363 1.673.595 3.225.474 4.978-.04.968-.333 1.955-.705 2.862-.353.847-.635 1.079-1.22 1.431-2.045.302-3.859 1.441-5.794.121-1.945-3.134-5.099-14.945-9.865-16.94-.232-.232-.584-.373-1.018-.393 0 0-1.229-.353-1.663-.393-.826-.09-1.411.162-2.177.333-1.25.262-2.701 1.209-3.416 2.348-2.126 1.834-3.063 4.999-3.285 7.991-.252 2.922.746 6.248 2.005 9.362.181.746.413 1.512.635 2.257.212.635.373 1.793.313 2.6-.212.323-.434.716-.081.454v.02c-.292.262-.604.675-.827 1.068-.292.151-.544.313-.887.494-.564.333-.867.393-1.471.645-1.108.454-2.328.454-3.507.695-1.299-.344-2.126-1.049-3.264-2.863m182.891-10.612c-.242-1.421-.182-2.872.039-4.313.283-1.199.545-2.368.807-3.567.524-1.864 1.129-3.698 1.613-5.452.967-3.668 1.49-8.152 3.788-11.307 3.991-1.572 9.614 1.3 13.181 2.721 7.418 2.973 14.875 5.785 22.19 9.04 6.248 2.832 3.427 9.513 1.31 14.43-1.773 4.082-3.647 11.146-8.545 12.032a81 81 0 0 0-7.014-2.812c-1.33-2.328.121-5.855.928-8.213.846-2.62 1.854-5.593 1.45-8.415-.705-4.998-4.636-8.777-9.795-8.303-5.966.564-8.082 9.15-9.835 13.563-.928 2.328-3.467 3.255-5.805 3.255-2.297.002-3.466-1.067-4.312-2.659M178.844 54.613c-1.491-.755-2.167-2.449-2.045-4.021.061-1.119.746-1.834 1.552-2.479 3.194-1.673 6.379-2.681 9.986-3.346 2.459-.423 4.888-.343 7.286-.322.494.06.967.101 1.441.161.272.161.534.373.826.474.101.04.212.061.313.081.333.413.655.867.907 1.3.434 2.005.162 3.91-1.693 5.23-.907.675-2.207 1.603-3.366 1.623-.474.041-1.048.393-1.481.524-.564.121-1.038.161-1.532.343-1.582.272-3.194.504-4.787.847-1.139-.041-2.146.393-3.285.544-.181.02-.363.041-.554.041-1.24-.002-2.54-.435-3.568-1m129.764-.926c-1.411-.262-3.265-.575-4.837-1.22-.162-.06-.322-.141-.504-.201-1.512-.686-2.762-1.713-3.124-3.366-.806-3.628 1.895-4.625 4.676-4.908 3.144.413 6.228 1.128 9.392 1.542 3.225.393 5.482.807 7.256 3.145.201.927.363 1.834.443 2.741-.121 1.26-.282 2.52-.826 3.608-.766.474-1.733.665-2.802.665-3.164-.001-7.275-1.593-9.674-2.006M205.176 48.98a2.3 2.3 0 0 0-.162-.353c-.564-1.874-.705-3.9.141-5.693 3.074-2.146 7.266-2.247 10.914-2.429 1.965-.111 3.88-.272 5.845-.272.595 0 1.139.081 1.673.181.202.111.454.171.706.191.474.121.967.282 1.421.474.061.041.121.101.202.162.292.211.584.474.867.705.393 1.24.746 2.459.937 3.779.02.282.061.554.101.846-1.28 2.509-7.145 2.126-9.664 2.54-2.348.393-4.646 1.481-7.054 1.501-.454 0-1.038.02-1.633.02-1.755.001-3.8-.18-4.294-1.652m80.92.454c-4.454-.776-8.707-.755-12.273-3.386-.102-.343-.212-.695-.252-1.048a6 6 0 0 1-.121-1.199c2.065-3.587 5.674-3.92 9.684-3.547 3.648.333 7.538 1.048 11.086 1.915 1.571.373 2.781 2.046 3.063 3.739a8.8 8.8 0 0 0-.242 2.308c-.322.706-.947 1.29-1.934 1.552a11.7 11.7 0 0 1-3.165.414c-1.956-.002-3.931-.375-5.846-.748m85.838-11.347 1.33-3.547 8.062 2.802-1.29 3.658zm-249.925-1.834 6.308-2.086 1.491 3.92-6.5 2.459zm133.302-3.578c1.834-.02 3.647-.04 5.481-.081 1.845.534 3.577 1.32 4.878 2.751 2.892 3.154 2.579 8.213 2.66 12.133.04 2.892-.313 5.754-.494 8.646-.121 1.521-.292 3.386-1.885 4.102-1.753.786-3.506 1.098-5.088-.202-.111-.081-.232-.141-.333-.202-.927-1.925-.866-4.545-.866-6.61.241-2.58.201-4.928-.394-7.548-1.099-4.666-6.601-9.765-11.68-7.538-4.011 1.774-4.917 6.752-5.492 10.611-.292 1.996.061 4.001-.251 5.986-.182 1.28.292 3.255-.061 4.495-.635 2.126-5.512 3.547-7.306 1.693-.766-5.361-1.834-10.712-2.499-16.093-.454-3.446-.575-7.024.806-10.138 2.358-1.572 5.684-1.592 8.737-1.532.534.03 1.068.03 1.603.03 4.071.001 8.132-.271 12.184-.503M123.309 53.999l-.111-.02c-.282-.061-.554-.121-.796-.272-.786-.393-1.391-1.048-1.673-1.875a3.28 3.28 0 0 1 .121-2.398 8.7 8.7 0 0 1 2.005-1.793l9.795-3.295c.131-.03.232-.05.333-.091 5.553-1.421 10.924-3.547 16.305-5.512l10.772-3.607c3.94-1.28 7.911-2.479 11.831-3.819.574-.202 1.895-.766 3.507-1.38l4.888-1.633c1.693-.453 3.265-.726 4.272-.494l.061.02a3.53 3.53 0 0 1 1.673 1.905 3.38 3.38 0 0 1-.182 2.509c-.393.786-1.038 1.36-1.844 1.612l-12.607 4.252a141 141 0 0 0-13.372 3.547c-5.885 1.904-11.519 4.444-17.333 6.459-4.605 1.592-11.206 2.146-15.065 5.411l-1.078.373a3.1 3.1 0 0 1-.967.161c-.192 0-.354-.02-.535-.06m253.3 1.179-7.356-2.6c-.263-.171-.564-.312-.827-.453-2.377-1.199-5.078-1.864-7.537-2.852-5.441-2.227-10.883-4.545-16.426-6.601-5.059-1.884-10.318-3.184-15.459-4.857-1.451-.454-2.982-.827-4.514-1.189l-4.857-1.733c-.928-.313-1.673-1.018-2.116-1.905a3.78 3.78 0 0 1-.121-2.892c.343-.947 1.008-1.713 1.935-2.146.363-.181.766-.262 1.189-.302 1.371.262 2.721.615 4.011 1.008l5.886 2.086c.766.313 1.571.635 2.377.967 4.676 1.895 9.473 3.446 14.229 5.139 3.749 1.34 7.558 2.6 11.327 3.86l20.799 7.387c1.936.685 2.922 2.832 2.237 4.787-.343.978-1.028 1.733-1.915 2.146a3.8 3.8 0 0 1-1.611.373 3.4 3.4 0 0 1-1.251-.223m-25.595-24.73 1.148-3.527 7.719 2.933-1.289 3.426zM145.096 28.06l7.598-2.792 1.461 3.779-7.689 3.053zm71.125-3.426a3.036 3.036 0 0 1 3.033-3.033h7.507c.313.041.584.081.887.101 6.278.534 12.557.353 18.824.222 6.399-.141 12.798.151 19.157.212 3.014 0 6.006 0 9.02-.141 2.952-.111 6.066-.726 8.888.322.081.021.161.041.242.081.161.151.302.292.524.353l-.021-.021c-.12-.181.303.393.344.434.121.121.302.252.443.353.02.333.04.706.02 1.079 0 1.068-.342 1.753-.846 2.348a2.98 2.98 0 0 1-1.915.726h-.786c-8.152-.867-16.517-.564-24.811-.292-4.293.141-8.585.312-12.818.292h-24.659a3.04 3.04 0 0 1-3.033-3.036m109.257-3.467.927-3.88 9.775 3.295-1.652 4.011zm-154.887-1.884 5.936-2.54 1.471 3.739-6.046 2.6zm103.472-8.979 9.292-.141.12 3.799h-9.412zm-28.558-.161h10.913v3.627h-10.913zm-26.977-.04 9.453.202v3.406h-9.453zm50.81-3.941-.021.696-.081 5.905c-.846.726-1.984.968-3.193 1.22-1.492.312-2.258-.041-2.813-.988l-.453-6.177-.041-.655H239.6l.081.756c.191 1.945.333 3.95.454 5.724-.121.494-.363.927-.796 1.128-1.22.584-2.046.786-3.326.564-1.38-.191-2.025-.867-2.338-1.753l.131-5.643.021-.736h-20.165l.02.736.222 8.717-.04.06c-2.126 2.661-3.9 5.926-3.386 9.453.333 2.025.978 3.839 2.066 5.552.433.696 1.552 1.854 2.106 2.993-3.255.695-6.419 1.794-9.613 2.701-3.527.988-7.931 2.268-11.559.967a2.3 2.3 0 0 1-.191-1.461q.03-.211 0-.393c.252-2.025.786-3.94 1.058-5.966.967-6.873-5.079-9.785-10.198-12.385a20 20 0 0 1-.927-1.108c-.705-1.985-1.32-3.9-1.572-5.14l-.162-.867-.806.303c-3.779 1.451-16.224 5.784-16.345 5.824l-.726.252.292.695 3.225 8.032c-.05.333-.131.655-.252.947a3.5 3.5 0 0 0-.594.353c-1.633 1.441-4.212 1.28-5.926.101l-2.539-7.226-.272-.675-.675.242c-.131.06-13.151 4.746-18.209 6.731l-1.028.413.786.786c.313.333 1.26 2.308 2.409 4.847.171 1.592-.081 3.154-1.693 3.859-1.088.494-2.116.494-3.275.413a1.25 1.25 0 0 1-.554-.181l-2.398-7.85-.231-.736-.716.282-16.385 5.986-.665.252.231.675 2.328 6.258c-2.328 3.174-2.933 6.54-2.348 9.825v.323c-.02.191-.02.373.02.584.021.201.081.413.141.614.021.111.041.232.061.353.061.211.141.413.191.604l.041.101c.574 1.814 1.461 3.295 2.56 4.595 2.167 3.285 5.18 6.218 8.233 8.445 3.487 6.671 6.54 13.231 7.759 20.93-.584 3.688-1.32 7.347.968 10.854 2.066 3.174 6.56 4.928 9.311 7.538.373.343.716.715 1.068 1.088 1.925 3.466 3.799 6.873 4.565 10.944-2.832 2.801-5.532 6.5-4.897 10.289.766 4.565 3.839 6.752 7.538 8.072.101.212.182.414.272.625-5.291 2.973-9.825 7.346-15.025 10.581-4.192 2.64-9.271 3.487-13.564 6.066-3.759 2.297-6.893 6.066-9.392 9.644-4.847 6.933-7.034 15.62-8.354 23.893-.746 4.666-1.34 9.372-2.146 14.017-.081.494-.171.947-.272 1.421-.04.171-.101.313-.161.474-.554.887-1.401 1.632-2.167 2.187-.786.584-1.239.625-1.532.333 0-3.588.494-6.954 1.239-10.46.988-4.484 3.759-12.566-.02-16.446-1.048-1.058-2.58-.272-2.781.776-.091.111-.151.171-.211.292-4.747 9.745-11.861 18.078-18.24 26.875-3.799 4.102-7.387 8.293-10.158 13.262-3.094 5.492-5.381 11.539-5.966 17.836a4 4 0 0 1-.262-.353c-.685-.867-1.804-.786-2.58-.262-1.018-.09-1.965.494-1.945 1.774a80 80 0 0 1-.393 9.382c-1.592 6.399-3.799 12.617-5.714 18.975-2.438 8.113-4.646 16.386-5.693 24.831-1.018 8.001-.625 16.405 1.895 24.104 1.239 3.769 2.892 7.235 5.099 10.561 1.481 2.298 3.285 4.373 4.948 6.53a119 119 0 0 0 1.592 2.821c.04.283.081.605.101.907v.302c-1.088-.685-2.227-1.209-3.295-1.773-2.64-1.37-5.039-2.619-6.873-5.078a12 12 0 0 1-.685-1.229c-1.068-2.116-3.96-.604-3.235 1.552.161.483.363.987.574 1.451 1.875 6.288 3.719 12.576 4.968 19.025 1.35 10.965 1.743 22.09 6.419 32.429a40.7 40.7 0 0 0 12.204 15.378c3.587 2.781 7.568 4.333 11.428 5.824-.534.303-.968.705-1.583.988l-.06.061c-2.54-.142-4.958.342-7.437.503-2.993-1.29-5.714-3.043-7.901-5.743l-.171-.142c-.595-1.048-2.469-1.008-2.53.483-.272 5.966 1.623 12.053 2.56 17.897.867 5.603 2.681 11.286 6.369 15.64 3.366 4.011 8.072 6.731 12.878 8.626 1.451.544 2.913 1.048 4.404 1.532 7.094 4.797 10.702 12.213 15.146 19.569 2.308 3.81 5.059 7.074 8.667 9.675 1.814 1.27 3.819 2.277 5.794 3.225 1.904.906 3.859 2.277 5.865 3.002 14.511 18.1 39.049 29.769 61.521 31.684.211.04.393.04.554 0 .292.121.604.242.887.423 1.945 1.391 3.779 2.963 5.825 4.253 3.245 1.995 6.671 3.708 10.026 5.4 2.973 1.492 6.319 2.661 9.664 2.52 3.447-.182 6.52-1.632 9.826-2.357-1.26 1.512-3.558 2.942-5.392 2.982-.353 0-.554.282-.554.564-.272.363-.232.928.182 1.209 4.272 3.104 9.12 1.492 13.826-.04 2.751-.887 5.311-2.298 7.891-3.587 2.64-1.27 5.552-1.773 8.213-2.943l.141-.08c4.545 3.486 9.392 6.248 14.511 8.828.272.12.534.201.786.322 3.174 1.652 6.742 2.801 10.319 3.769 1.652.544 3.274 1.108 4.888 1.773.191.061.393.142.574.142h.373c1.703-.162 2.75-2.682 1.179-3.81-.515-1.108-1.421-1.874-2.268-2.761-.987-1.049-1.713-2.277-2.519-3.467-.313-.464-.666-.928-.988-1.391 2.842-.968 5.774-1.148 8.797-1.351 1.734-.121 3.588-.182 5.24-.686 3.346 1.693 7.538 2.036 10.965 3.467 4.232 1.733 8.143 3.89 12.818 3.063 7.014-1.209 10.722-8.988 10.682-15.58 3.99-4.816 8.827-7.396 14.229-9.714 4.191-1.27 8.586-2.156 12.939-3.225.967-.061 1.895-.121 2.861-.262 4.636-.544 8.848-2.298 12.898-4.515 8.163-4.475 15.035-10.521 21.324-17.293 2.942-3.225 5.422-6.57 7.457-10.399.665-1.27 1.471-2.458 2.317-3.647 2.54-3.004 5.06-5.967 7.599-8.889v-.04c.443-.04.887-.202 1.189-.685 1.391-2.016.866-4.395.141-6.592-.726-2.196-1.129-4.051-1.29-6.046 6.691-6.328 15.116-10.561 20.779-18.058 3.003-3.971 5.481-9.332 6.51-14.169 1.169-5.361 3.346-11.126 4.091-16.688 2.117-5.078 4.232-10.117 6.471-14.873.1-.121.181-.242.302-.363a.84.84 0 0 0 .101-.402l.121-.121c.322-.363.121-.807-.222-1.049-.121-.463-.665-.846-1.229-.645-1.491.564-2.922 1.29-4.354 2.056-.927.483-1.854.806-2.821 1.129 2.237-3.124 4.132-6.651 5.966-9.675 3.346-5.521 6.167-11.387 8.183-17.533 2.338-7.135 3.225-14.814 3.426-22.573.182-2.942.303-5.905.323-8.868v-2.701c-.041-4.313-.223-8.625-.484-12.898-.08-1.169-1.391-1.41-2.236-.927-.465 0-.908.201-1.068.745-.564 1.834-1.33 3.648-2.137 5.422-.121 0-.222 0-.343.041l-.181.08c-.202 0-.363.04-.545.04.141-.624.262-1.249.463-1.895 1.129-3.97 2.701-7.698 3.508-11.771 1.652-7.94 1.108-16.203-.282-24.154-1.331-7.588-3.226-15.539-6.772-22.412-2.498-4.928-2.196-11.599-6.146-15.791a1.26 1.26 0 0 0-.826-.414c-.484-.262-1.109-.201-1.492.373-2.861 4.424-5.542 9.15-7.859 14.018a15 15 0 0 1-.081-1.34c0-.313-.04-.625-.04-.947.967-11.891-1.532-23.782-8.103-33.849-7.054-10.793-18.944-17.444-25.233-28.69l-.121-.161a1.7 1.7 0 0 0-.725-.998l-.041-.121-.121-.121a1.05 1.05 0 0 0-.887-.726c-.362-.373-1.088-.393-1.33.212a3.4 3.4 0 0 0-.242 1.542c-.08.131-.12.272-.16.454-3.607-7.387-7.498-14.833-13.121-20.819-3.467-3.719-8.203-5.805-11.75-9.332-3.89-3.839-5.199-10.148-7.658-14.894-.605-1.179-1.976-1.159-2.762-.504-.101-.101-.182-.182-.303-.282 2.561-2.005 4.435-4.504 4.576-7.739.1-.685.181-1.401.181-2.146-.04-3.346-1.995-7.659-5.119-9.271a54.4 54.4 0 0 1 2.076-7.759c.806-1.461 1.773-2.802 3.083-3.92 4.111-1.592 8.707-2.993 10.602-7.427 1.794-4.252-.121-8.213-.927-12.365-.161-1.199-.282-2.348-.202-3.446 1.734-7.951 6.329-14.844 12.939-19.65a40 40 0 0 0 1.471-1.169c.848-.524 1.653-1.078 2.379-1.764 2.66-2.509 3.124-5.421 2.66-8.394.021-2.5-.705-5.14-2.156-7.84l-.041-.091 3.186-7.9.281-.685-.664-.282-15.822-6.167-.766-.312-.201.806-1.814 7.386-.201.202-.061.081c-.766.484-1.592.806-2.499.686-1.068-.121-1.512-.867-1.714-1.733l2.58-7.467.223-.685-.666-.222-15.982-6.198-.766-.282-.222.756-1.692 6.117c-1.089.836-2.439 1.34-3.709 1.169-1.148-.121-1.814-.695-2.217-1.481a2.2 2.2 0 0 0-.121-.534v-.292l2.056-6.933.202-.666-.646-.222-19.288-6.913-.705-.272-.242.726-2.801 9.06c-3.366 1.34-6.732 3.335-8.687 6.419-1.854 3.013-.604 7.175.645 10.5-3.99-.101-7.981-.081-11.972-.514-3.789-.413-7.355-1.774-11.045-2.64 1.613-2.933 3.527-6.026 3.225-9.231-.16-1.975-.846-3.587-2.055-5.2-.887-1.179-1.492-2.268-2.057-3.487a96 96 0 0 1 0-9.745v-.736z"></path><path id="c" d="M47.025 6.162h405.002V534.51H47.025z"></path><path id="d" d="M359.559 339.616c.383-2.298.766-4.676 1.027-7.014 0-1.209.021-2.378.021-3.547 0-8.827-.161-17.494-.443-25.938a140 140 0 0 0-1.29-7.074c.644 14.309.866 29.021.685 43.573m-218.323-43.634a746 746 0 0 0-.715 33.073c0 3.587.02 7.175.06 10.682.333 1.753.675 3.487 1.088 5.2-.393-18.1-.121-36.479.827-54.176a116 116 0 0 0-1.26 5.221m211.047 67.579c.302-.727.625-1.492.947-2.258 1.249-28.781.806-59.174-1.371-86.805-.342-.766-.665-1.532-1.008-2.298 2.379 28.962 2.863 61.128 1.432 91.361m-202.834-91.754c-2.429 29.193-2.902 61.684-1.441 92.176.313.727.625 1.432.947 2.157-1.623-31.844-1.129-66.026 1.532-96.429a99 99 0 0 0-1.038 2.096m195.094 106.547c.263-.443.545-.887.787-1.311 1.008-15.055 1.531-31.199 1.531-47.987 0-25.294-1.209-49.157-3.386-70.057-.282-.434-.604-.887-.866-1.34 3.97 36.872 4.616 81.353 1.934 120.695m-186.73-121.179c-2.308 21.323-3.567 45.841-3.567 71.881 0 17.454.574 34.222 1.643 49.821.272.403.524.847.806 1.25-2.882-40.369-2.207-86.463 2.005-124.202-.292.404-.595.827-.887 1.25M336.461 389.66c.263-.344.525-.686.807-.988 1.451-18.179 2.258-38.334 2.258-59.616 0-30.191-1.613-58.176-4.455-81.414-.302-.323-.584-.655-.887-1.008 5.341 42.032 6.087 97.255 2.277 143.026M166.238 246.282c-2.973 23.49-4.646 51.978-4.646 82.774 0 21.808.826 42.444 2.368 60.987.252.322.534.645.786.967-3.98-46.516-3.195-103.109 2.328-145.696-.282.332-.574.635-.836.968m161.94 152.468c.303-.283.585-.524.848-.848 1.854-20.355 2.881-43.775 2.881-68.847 0-34.424-1.914-65.724-5.32-90.362-.282-.272-.604-.544-.887-.826 6.368 45.278 7.174 110.456 2.478 160.883M174.672 237.615c-3.487 24.79-5.472 56.492-5.472 91.44 0 25.536 1.058 49.338 2.973 69.976.292.282.564.524.846.807-4.847-50.99-4.021-117.399 2.52-163.029zm145.101 168.631c.283-.221.585-.482.887-.685 2.197-22.613 3.346-48.976 3.346-76.506 0-28.901-1.249-56.483-3.688-79.801-.666-6.359-1.391-12.304-2.197-17.807a55 55 0 0 1-.887-.705c6.974 47.182 7.821 121.653 2.539 175.504M183.137 230.561c-.887 5.754-1.673 12.002-2.358 18.693-2.409 23.318-3.688 50.9-3.688 79.801 0 27.913 1.199 54.578 3.446 77.393.313.202.575.464.887.686-5.432-54.235-4.565-129.854 2.6-177.238-.313.232-.594.434-.887.665m128.455 181.692c.241-.142.443-.323.685-.443.081-.806.161-1.612.263-2.419 2.196-23.379 3.385-51.151 3.385-80.335 0-29.144-1.188-56.937-3.385-80.315-.827-8.525-1.754-16.265-2.803-23.218-.281-.151-.523-.313-.766-.454 7.457 48.189 8.343 130.913 2.621 187.184M191.491 224.837c-1.108 7.104-2.066 15.105-2.902 23.903-2.237 23.379-3.406 51.172-3.406 80.315 0 29.184 1.169 56.956 3.406 80.335.101 1.049.202 2.076.302 3.104.232.162.474.322.706.464-5.845-56.532-4.958-140.305 2.64-188.594-.232.141-.494.312-.746.473m111.595 192.556c.262-.162.564-.344.826-.464 2.358-24.064 3.688-54.518 3.709-87.873 0-43.735-2.318-82.502-6.188-108.32a16 16 0 0 1-.826-.413c7.276 48.269 8.082 139.125 2.479 197.07M199.775 220.171c-3.951 25.818-6.278 64.827-6.278 108.884 0 33.657 1.34 64.333 3.759 88.438.262.161.554.282.826.443-5.704-58.105-4.877-149.878 2.489-198.168-.262.162-.534.283-.796.403m95.047 201.272c.283-.162.504-.242.766-.363 2.278-24.508 3.548-56.594 3.548-92.024 0-46.204-2.177-86.634-5.845-112.139-.262-.121-.504-.211-.766-.313 6.893 48.008 7.659 145.787 2.297 204.839m-86.945-204.98c-3.708 25.505-5.916 66.126-5.916 112.592 0 35.673 1.3 67.88 3.587 92.488.252.121.514.222.786.343-5.452-59.174-4.666-157.749 2.308-205.716-.241.081-.513.212-.765.293M286.6 424.668c.222-.08.484-.161.726-.262 2.036-24.851 3.225-58.146 3.225-95.351 0-48.271-1.976-90.04-5.28-115.152a30 30 0 0 0-.726-.252c6.166 47.414 6.851 151.279 2.055 211.017m-70.752-211.117c-3.285 25.072-5.26 67.014-5.26 115.505 0 37.386 1.149 70.862 3.215 95.692.252.081.514.202.746.263-4.847-59.839-4.172-164.359 2.025-211.692-.232.091-.484.151-.726.232m62.66 213.576c.201-.041.413-.081.615-.162 1.692-24.99 2.66-59.334 2.66-97.909 0-49.952-1.633-92.801-4.354-117.47a10 10 0 0 1-.655-.162c5.311 46.971 5.875 155.441 1.734 215.703m-54.82-215.783c-2.721 24.619-4.374 67.588-4.374 117.712 0 38.737.967 73.16 2.681 98.192.211.04.413.08.645.16-4.192-60.301-3.618-169.336 1.713-216.206-.212.021-.434.082-.665.142m46.626 217.596c.202-.04.414-.04.635-.081 3.033-60.463 2.621-172.672-1.259-218.937-.202-.03-.413-.07-.636-.111 3.882 46.155 4.314 158.748 1.26 219.129m-38.907-219.188c-3.879 46.214-4.292 158.807-1.239 219.27.211.04.433.08.645.121-3.074-60.463-2.661-173.389 1.26-219.492-.233.04-.434.08-.666.101m30.836 220.398c.202-.021.394-.061.595-.081 1.904-60.584 1.652-175.363-.786-221.225-.182-.04-.394-.04-.595-.061 2.439 45.772 2.681 160.783.786 221.367m-23.198-221.406c-2.438 45.811-2.681 160.822-.766 221.445.211.021.393.041.574.061-1.895-60.604-1.643-175.796.806-221.566zm15.106 221.971h.574c.646-60.686.564-176.774-.263-222.424-.191-.02-.372-.02-.563-.02.787 45.609.887 161.778.252 222.444m-7.507-222.465c-.826 45.63-.917 161.82-.272 222.504h.574c-.635-60.664-.554-176.935.252-222.504z"></path><path id="e" d="M47.025 6.162h405.002V534.51H47.025z"></path><radialGradient id="m" cx="66.853" cy="554.159" r="20.633" gradientTransform="matrix(5.6399 0 0 -5.6399 -126.293 3437.574)" gradientUnits="userSpaceOnUse"><stop offset="0" stop-color="#00509b"></stop><stop offset=".472" stop-color="#00509b"></stop><stop offset=".675" stop-color="#004081"></stop><stop offset=".803" stop-color="#003976"></stop><stop offset="1" stop-color="#003976"></stop></radialGradient><radialGradient id="p" cx="66.819" cy="554.146" r="20.654" gradientTransform="matrix(5.6399 0 0 -5.6399 -126.293 3437.574)" gradientUnits="userSpaceOnUse"><stop offset="0" stop-color="#5d78b4"></stop><stop offset=".472" stop-color="#5d78b4"></stop><stop offset=".619" stop-color="#566fa7"></stop><stop offset=".803" stop-color="#4f669a"></stop><stop offset="1" stop-color="#4f669a"></stop></radialGradient></defs><path fill="#dab177" d="M450.516 303.318c-.021-.121-.041-.141-.081-.161a.67.67 0 0 0-.585.04l-.241.141h-.282l-.08.021c-.524 1.672-1.23 3.486-2.197 5.542l-.222.464-.665.141-.223.08-.201.081h-.16l-1.814.081.282-1.311.464-1.955 1.391-4.394c.806-2.458 1.611-4.796 2.115-7.275 1.391-6.792 1.311-14.582-.302-23.792-1.048-5.946-2.882-14.693-6.651-22.12-1.088-2.106-1.672-4.464-2.217-6.751-.846-3.346-1.612-6.5-3.769-8.797-.081-.081-.121-.081-.182-.101h-.241l-.202-.121-.081-.02a124 124 0 0 0-7.84 13.947l-1.753 3.658-.282-5.411v-1.049c.967-12.244-1.773-23.711-7.941-33.204-3.265-4.958-7.658-9.15-11.891-13.171-4.918-4.666-9.977-9.473-13.402-15.58l-.061-.081-.162-.171v-.161a.48.48 0 0 0-.281-.373l-.242-.162-.182-.393.021.04.04.061-.201-.353v.02l-.363-.041-.04-.02c-.021.182-.081.333-.081.554v.312l-.08.272-.786 2.822-1.229-2.288c-3.668-7.538-7.457-14.753-12.939-20.618-1.732-1.854-3.828-3.285-6.006-4.787-1.935-1.34-3.99-2.751-5.744-4.484-2.721-2.701-4.212-6.479-5.663-10.127-.685-1.793-1.351-3.487-2.156-5.019-.101-.222-.263-.353-.464-.393a.98.98 0 0 0-.766.211l-.686.534-.887-.806-.927-.827.927-.786c2.721-2.126 4.071-4.414 4.192-6.974v-.142a10 10 0 0 0 .161-1.844v-.121c-.04-2.913-1.773-6.954-4.555-8.354l-.686-.353.162-.766c.563-2.852 1.229-5.432 2.136-7.9v-.081l.04-.071c.928-1.713 2.016-3.074 3.326-4.222l.141-.131 1.25-.474c3.627-1.36 7.376-2.781 8.928-6.439.484-1.129.665-2.248.665-3.386 0-1.814-.483-3.627-.968-5.502l-.685-2.872c-.161-1.179-.242-2.126-.242-2.973 0-.252 0-.494.021-.726v-.081l.02-.081c1.754-8.092 6.49-15.277 13.343-20.265l1.472-1.179.08-.061c.867-.514 1.592-1.038 2.197-1.612 1.692-1.592 2.498-3.446 2.498-5.714a9 9 0 0 0-.16-1.773v-.232c0-2.328-.686-4.787-2.036-7.266l-.302-.474.201-.494s2.902-7.104 3.104-7.639c-.544-.202-14.592-5.714-15.217-5.945-.342 1.451-1.793 7.306-1.793 7.306l-.162.151s-.12.161-.241.262l-.241.231q-1.573 1.028-3.145.847c-.968-.101-2.177-.645-2.62-2.54l-.081-.292s2.419-6.953 2.6-7.467c-1.854-.726-13.442-5.2-15.418-5.966-.362 1.239-1.732 6.107-1.732 6.107l-.262.211c-1.352 1.068-2.963 1.582-4.475 1.401-1.371-.162-2.358-.847-3.004-2.026l-.061-.141-.141-.766-.02-.262v-.171l.04-.262s1.834-6.157 1.995-6.671c-2.116-.746-16.547-5.926-18.744-6.691-.463 1.532-2.861 9.19-2.861 9.19l-.443.181c-3.971 1.592-6.65 3.578-8.183 6.026-.564.927-.806 2.005-.806 3.164 0 2.036.725 4.313 1.531 6.419l.523 1.421-3.748-.061c-3.225-.061-6.53-.101-9.815-.474-2.579-.292-5.059-.998-7.457-1.673l-4.978-1.32.604-1.179.322-.615c1.391-2.459 2.803-4.999 2.803-7.498 0-.161 0-.353-.021-.514-.16-1.693-.725-3.134-1.854-4.666a18.4 18.4 0 0 1-2.197-3.668l-.08-.191-.02-.202a98 98 0 0 1-.121-4.837c0-1.421.039-3.013.121-4.706h-16.84c-.02 1.199-.111 6.066-.111 6.066l-.342.292c-1.018.907-2.338 1.179-3.598 1.451-1.24.262-2.902.363-3.961-1.471l-.121-.202s-.412-5.613-.453-6.137h-21.031c.041.604.433 5.552.433 5.552l-.04.171q-.349 1.332-1.36 1.834c-1.26.615-2.318.907-3.95.635-1.583-.242-2.641-1.068-3.114-2.428l-.06-.191s.101-4.948.101-5.502h-18.038c.04 1.521.211 8.788.211 8.788l-.272.333c-2.167 2.761-3.235 5.24-3.235 7.568 0 .373.041.726.081 1.098a13.1 13.1 0 0 0 1.915 5.16l.604.826c.514.635 1.128 1.441 1.542 2.268l.584 1.179-1.3.262c-2.126.484-4.293 1.139-6.379 1.764l-3.144.927-.121.04c-3.648 1.028-8.192 2.308-12.072.927l-.413-.141-.161-.393a3.18 3.18 0 0 1-.292-2.086v-.332l.554-3.346.504-2.66c.061-.434.081-.847.081-1.26 0-5.119-4.767-7.548-9.412-9.906l-.514-.242-1.199-1.431-.041-.162c-.766-2.146-1.259-3.799-1.511-4.958-3.708 1.411-13.685 4.877-15.761 5.593.222.564 3.194 7.971 3.194 7.971l-.02.242a3.6 3.6 0 0 1-.353 1.31l-.121.262-.373.232-.333.181c-1.854 1.653-4.948 1.713-7.205.171l-.262-.211s-2.378-6.691-2.56-7.226c-1.925.706-12.737 4.625-17.524 6.48.313.474.907 1.632 2.358 4.807l.061.151.02.161c.04.333.061.625.061.887 0 2.459-1.26 3.557-2.358 4.051-1.34.575-2.6.554-3.769.474l-1.532-.494.061-.413s-2.146-6.983-2.308-7.538c-1.965.726-13.866 5.079-15.791 5.784.453 1.209 2.418 6.479 2.418 6.479l-.333.454c-1.592 2.126-2.368 4.434-2.368 6.913 0 .695.061 1.4.181 2.126l.021.061v.826l.101.373.04.182.061.333.171.534.041.101c.494 1.572 1.28 2.953 2.368 4.272l.05.041.04.061c1.935 2.932 4.767 5.845 7.961 8.163l.212.141.101.222c3.114 5.945 6.54 12.989 7.86 21.243l.02.161-.101.665c-.554 3.406-1.048 6.601.907 9.634 1.119 1.733 3.154 3.074 5.16 4.394 1.38.907 2.832 1.864 3.98 2.953l1.219 1.24.061.101c1.905 3.466 3.859 7.024 4.646 11.266l.121.544-.383.393c-3.537 3.466-5.079 6.621-4.605 9.361.595 3.537 2.701 5.785 6.873 7.286l.434.151.141.373.645 1.542-.806.393c-2.832 1.613-5.492 3.658-8.092 5.633-2.187 1.693-4.474 3.446-6.893 4.958-2.207 1.38-4.666 2.308-7.034 3.174-2.217.826-4.504 1.693-6.53 2.912-2.993 1.794-5.956 4.847-9.08 9.312-5.099 7.276-7.054 16.365-8.193 23.48l-.887 5.865-1.26 8.173-.282 1.521-.02.04-.211.605-.061.121c-.554.827-1.36 1.653-2.439 2.439-1.481 1.108-2.368.746-2.862.242l-.292-.302v-.433c0-3.346.393-6.651 1.259-10.672l.514-2.146c1.098-4.414 2.58-10.44-.292-13.373-.101-.101-.262-.252-.554-.171-.272.091-.453.292-.474.454l-.04.232-.252.313c-3.608 7.427-8.667 14.108-13.554 20.598l-4.787 6.459-.07.04c-3.547 3.88-7.235 8.132-10.007 13.081-3.366 6.006-5.341 11.851-5.834 17.403l-.252 2.6-1.854-2.378c-.434-.555-1.119-.121-1.199-.061l-.272.181-.353-.02c-.282-.02-.534.061-.675.191-.04.041-.191.182-.191.554.091 3.033-.061 6.238-.383 9.493l-.03.061v.081c-1.068 4.343-2.449 8.656-3.769 12.798L54.28 267c-2.025 6.742-4.515 15.641-5.653 24.648-1.078 8.506-.433 16.688 1.854 23.662 1.24 3.748 2.872 7.135 4.958 10.318 1.109 1.674 2.389 3.266 3.628 4.838l1.36 1.692.021.081 1.693 2.982.02.201.111.968v.202l.061 1.895-3.92-2.097-1.018-.524c-2.66-1.41-5.2-2.721-7.155-5.36l-.04-.04-.726-1.33c-.212-.404-.494-.524-.847-.404-.272.121-.726.525-.494 1.17l.554 1.37.04.121c2.005 6.69 3.759 12.778 4.999 19.106 0 .061.675 6.106.675 6.106.937 8.767 1.904 17.816 5.663 26.101A40.04 40.04 0 0 0 71.925 397.7c3.487 2.681 7.407 4.192 11.186 5.684l1.834.686-2.187 1.491-1.441.866-.272-.02c-1.501-.08-2.973.061-4.495.242l-3.094.281-.191-.121c-3.487-1.451-6.188-3.426-8.293-6.006l-.121-.121-.131-.181c-.101-.161-.343-.222-.514-.182-.061.021-.121.021-.121.202-.161 4.03.685 8.223 1.521 12.293l1.038 5.402c1.008 6.489 3.033 11.447 6.127 15.156 2.872 3.386 7.084 6.167 12.485 8.283l4.464 1.592.141.081c6.228 4.212 9.765 10.238 13.493 16.587l1.945 3.285c2.428 3.99 5.18 7.094 8.394 9.393 1.773 1.249 3.839 2.217 5.633 3.104l2.338 1.27c1.139.645 2.288 1.31 3.426 1.713l.262.101.191.222c13.665 17.031 37.538 29.305 60.796 31.32l.625-.021.282.101.333.142.686.302.061.041 2.066 1.572c1.169.926 2.408 1.895 3.688 2.66 3.033 1.854 6.298 3.506 9.453 5.119l.514.242c3.426 1.732 6.419 2.539 9.13 2.418 2.056-.08 3.98-.686 6.006-1.311a41 41 0 0 1 3.648-1.027l2.953-.605-1.935 2.299c-1.28 1.531-3.638 3.063-5.784 3.265l-.041.081c3.799 2.619 8.132 1.229 12.738-.283 2.126-.685 4.142-1.692 6.127-2.68l1.673-.847c1.481-.706 3.033-1.189 4.535-1.673 1.3-.383 2.519-.766 3.718-1.29l.595-.362.584.402c3.879 2.982 8.313 5.684 14.359 8.707l.414.182.332.141c2.721 1.411 5.945 2.58 10.127 3.709a61 61 0 0 1 5.039 1.813c.746.302 1.199-.423 1.28-.564.04-.081.483-.866-.161-1.33l-.212-.161-.121-.222c-.333-.706-.907-1.271-1.532-1.915l-.554-.584c-.766-.807-1.341-1.693-1.915-2.561l-.705-1.027-1.773-2.499 1.3-.464c2.933-1.008 5.985-1.189 8.938-1.391l.726-.04c1.491-.101 3.044-.181 4.414-.624l.383-.121.362.201c1.773.887 3.87 1.431 5.886 1.935 1.692.423 3.466.847 5.038 1.512l1.733.726c3.467 1.512 6.752 2.922 10.521 2.277 6.409-1.129 9.836-8.344 9.815-14.572v-.383l.222-.281c3.95-4.797 8.707-7.457 14.633-9.997l.08-.04h.04c2.842-.887 5.825-1.572 8.706-2.258l4.314-1.008h.12l2.802-.241c3.93-.483 7.9-1.874 12.557-4.435 7.255-3.949 13.946-9.392 21.041-17.051 2.982-3.264 5.4-6.609 7.336-10.238.604-1.148 1.391-2.378 2.338-3.729l2.459-2.842 5.481-6.469.483-.021c.081-.021.242-.04.403-.262 1.108-1.653.646-3.729 0-5.663-.806-2.379-1.188-4.273-1.351-6.309l-.02-.504.363-.322c2.619-2.52 5.582-4.717 8.424-6.854 4.555-3.405 8.828-6.609 12.213-11.084 2.924-3.87 5.361-9.15 6.35-13.766.463-2.197 1.108-4.454 1.732-6.672.947-3.264 1.895-6.65 2.318-9.916l.041-.16.039-.121c2.057-4.958 4.192-10.057 6.49-14.914l.041-.081.322-.443.04-.04s0-.081.04-.162l-.121-.1s-.04-.142-.08-.263c-1.492.564-2.902 1.29-4.152 1.915-.967.504-1.975.887-2.922 1.229l-3.043 1.068 1.873-2.64c1.553-2.196 2.923-4.556 4.273-6.894l1.633-2.74c3.426-5.643 6.146-11.488 8.082-17.333 2.075-6.228 3.164-13.503 3.365-22.25.488-7.192.447-14.931-.137-24.404m-8.848 72.657-.041.081z" clip-path="url(#f)" transform="matrix(.66669 0 0 .66669 -31.365 -4.108)"></path><path fill="#003976" d="M68.046 365.494c4.333 9.07 7.759 18.26 16.919 23.541 1.34.766 2.852-.726 1.834-2.016-2.721-3.507-5.341-7.055-8.082-10.561-3.104-3.99-6.258-7.417-8.565-11.973-.685-1.329-2.771-.361-2.106 1.009M92.725 323.271c.988 3.043 1.653 5.744 1.421 8.969-.181 2.539-.715 4.998-.887 7.497-.333 4.817.121 9.956 2.64 14.209.605.987 2.126.585 1.965-.646-.353-2.781-.575-5.32-.534-8.162.04-2.177.242-4.635-.041-6.813-.726-5.28-.02-10.883-1.431-16.063-.614-2.317-3.879-1.309-3.133 1.009M123.783 330.386c-.101 2.7-.343 5.36-.615 8.062-.313 3.023-1.24 5.966-1.461 8.989-.433 5.724 2.288 10.722 1.441 16.446-.192 1.168 1.753 1.652 2.086.463 1.219-4.454 1.3-9.936.846-14.49-.353-3.285-.978-6.57-.786-9.877.181-3.123.594-6.247.766-9.391.081-1.451-2.207-1.653-2.277-.202M64.932 272.079c.061 13.806-3.245 27.552-.04 41.296.635 2.741 4.908 2.016 4.354-.766-2.691-13.12-2.106-26.967-1.985-40.299-.001-1.511-2.329-1.732-2.329-.231M118.724 396.008c3.839 3.225 6.338 7.457 9.613 11.166.827.928 5.573 7.699 7.205 5.079 1.572-2.54-3.527-7.376-5.018-8.989-3.134-3.346-6.742-6.489-10.289-9.412-1.33-1.069-2.791 1.068-1.511 2.156M92.06 428.215c6.812 5.281 14.199 10.198 19.56 17.092.705.887 2.065-.082 1.632-1.068-1.915-4.495-4.293-7.518-8.132-10.541-3.607-2.862-8.092-5.059-12.193-7.135-.989-.485-1.674 1.047-.867 1.652M136.52 261.528c-1.421 3.557-3.375 6.943-5.854 9.866-1.159 1.35-2.318 2.579-3.326 4.07-1.048 1.502-1.068 3.366-2.368 4.807-.897.988.847 2.228 1.733 1.199 1.209-1.42 3.174-1.984 4.313-3.445 1.209-1.572 1.995-3.154 2.902-4.918 1.804-3.507 3.839-6.914 5.139-10.622.585-1.672-1.894-2.559-2.539-.957M87.757 214.347c-1.401 6.026-5.008 10.792-7.155 16.496-2.418 6.399.453 13.655-2.913 19.751-.574 1.068.907 2.187 1.592 1.108 3.467-5.472 4.182-11.307 4.948-17.686.786-6.661 5.099-12.445 5.845-19.126.141-1.329-2.005-1.883-2.317-.543M97.673 399.112c4.867 5.765 10.732 10.661 14.904 17.05.695 1.089 2.248-.08 1.814-1.168-2.892-7.498-10.067-11.428-15.357-17.011-.787-.846-2.127.243-1.361 1.129M205.307 472.514c1.904 1.936 3.497 3.951 5.593 5.705.867.725 1.925 1.31 2.832 2.035 1.199.927 1.875 1.935 2.761 3.265.665 1.008 2.237-.081 1.733-1.108-1.169-2.418-2.842-4.414-4.394-6.551-1.713-2.377-5.059-3.022-7.266-4.736-.846-.645-1.995.624-1.259 1.39M276.221 480.677c2.932-1.834 6.429-2.156 9.392-3.931 2.116-1.289 4.474-3.748 5.945-5.723.646-.807-.483-1.633-1.209-1.129-1.271.887-2.378 1.693-3.85 2.176-1.572.564-3.044.686-4.534 1.451-2.59 1.291-4.797 3.307-7.195 4.918-1.241.847.17 3.043 1.451 2.238M152.412 437.828c-.595.968-1.119 2.057-.786 3.246.353 1.249 1.139 2.74 2.519 3.083-.272-.182-.534-.383-.826-.585.191.303.393.545.625.807 1.36 1.572 4.122-.121 3.114-2.035a16 16 0 0 0-.454-.867l.061 1.531c.313-1.128.081-2.096-.333-3.123-.353-.907-.887-1.391-1.421-2.197-.564-.807-2.005-.666-2.499.14M164.041 426.28l-.02.142c.262-.383.534-.746.806-1.149a1.85 1.85 0 0 0-.665.383l-.041.061c.373-.262.292-.202-.232.161-.514.424-.776 1.088-.776 1.773-.02.968.454 2.197 1.522 2.459.081 0 .191.041.272.041-.494-1.028-.967-2.076-1.451-3.104.252-.443.313-.563.211-.362a2.2 2.2 0 0 0-.453 1.25 6 6 0 0 0-.041.604c0 .847.242 1.895 1.068 2.318.887.463 1.592.625 2.56.222.786-.323 1.38-1.21 1.431-2.056.021-.162.021-.363.021-.524 0-.282.02-.563-.021-.806-.07-.242-.151-.443-.211-.686-.121-.161-.081-.041.101.443a2.443 2.443 0 0 0-2.801-1.955c-.191.02-.474.02.202 0 .494.262.998.504 1.471.786a3.45 3.45 0 0 0-1.099-.826l1.179 1.391c-.101-.464-.232-.847-.574-1.189.101.343.201.706.322 1.028v-.141c0-.767-.454-1.432-1.26-1.512-.775-.082-1.42.503-1.521 1.248M139.694 450.063q0 .967.061 1.935c.081 1.29 1.36 2.257 2.499 2.54-.231-.202-.433-.403-.665-.605l.061.162c.313.645 1.119.725 1.653.342l.151-.101c-.191.081-.373.182-.564.263 1.259-.162 2.277-.867 2.731-2.076.222-.625.141-1.25.161-1.895.061-1.652-1.028-3.164-2.741-3.346-1.573-.122-3.326 1.108-3.347 2.781M351.496 449.599c.848-1.592 1.693-3.164 2.479-4.776.384-.807.706-1.612.947-2.459.323-1.048.806-1.773 1.411-2.66.523-.807-.121-2.258-1.209-1.936-1.854.605-3.547 1.855-4.817 3.346-1.552 1.734-2.116 4.193-2.962 6.329-1.007 2.418 2.842 4.534 4.151 2.156M391.281 430.15c1.189-1.008 2.338-2.016 3.688-2.802.968-.544 2.317-.767 3.325-1.31 2.298-1.25 3.951-2.943 5.583-4.918 1.391-1.693 2.56-3.99 3.427-5.967 1.431-3.305 4.212-3.748 6.953-5.441 1.531-.927.887-3.104-.968-2.963-4.515.384-7.457 5.967-10.581 8.728-2.076 1.813-4.454 3.285-6.51 5.079-2.539 2.176-4.515 4.877-6.953 7.175-1.47 1.412.484 3.749 2.036 2.419M391.039 374.201c-3.506 3.426-5.542 8.425-6.893 13.061-.806 2.781-2.963 5.28-4.272 7.9s-2.923 5.078-4.232 7.699c-.665 1.451 1.774 2.74 2.499 1.31 2.379-4.534 6.43-7.639 8.787-12.133 2.682-5.18 1.492-11.468 5.684-15.962 1.048-1.129-.424-3.004-1.573-1.875M375.078 329.721c-.242 4.897-.564 9.473-1.734 14.249a183 183 0 0 1-1.813 6.933c-.483 1.734-1.491 3.548-.968 5.321.443 1.491 1.895 2.036 3.185 1.149 3.104-2.157 2.983-9.252 3.185-12.557.303-4.877.726-10.359-.08-15.156-.183-.987-1.736-.947-1.775.061M96.363 261.881c-.968 4.091-.474 8.505-.554 12.697-.091 4.334 1.36 7.82 2.428 11.871.333 1.371 2.106.987 2.046-.322-.161-3.77 1.552-7.336-.02-11.075-1.814-4.374-1.381-8.485-2.167-13-.141-.826-1.532-1.078-1.733-.171M130.333 208.26c-2.167 1.653-3.114 3.971-4.082 6.47-1.26 3.255-2.812 6.349-3.991 9.654-2.469 7.054-4.575 13.997-4.766 21.525-.041 1.794 2.499 2.046 2.791.272 1.129-7.104 5.2-13.09 7.226-19.862.756-2.58.947-5.16 1.169-7.8.272-3.275 2.025-6.188 3.144-9.201.343-.927-.765-1.612-1.491-1.058M438.664 333.43c-3.85 6.187-6.55 13.039-10.098 19.408-3.506 6.288-9.895 10.641-12.857 17.252-.484 1.048 1.129 1.854 1.732.906 2.157-3.203 4.817-4.735 7.82-7.033 3.063-2.297 5.24-5.119 7.115-8.465 3.668-6.631 4.131-14.31 8.061-20.84.727-1.168-1.027-2.418-1.773-1.228" clip-path="url(#f)" transform="matrix(.66669 0 0 .66669 -31.365 -4.108)"></path><path fill="#003976" d="M147.736 407.013c.393-.282.614-.726.514-1.351-.121-10.057-10.007-17.07-18.199-20.94-9.412-4.434-21.757-6.711-28.529-15.176-.615-.786-1.521-.585-2.045-.04-.282.181-.494.463-.403.826-.03.161 0 .362.041.523-.131 7.658.061 15.922 3.094 23.098 1.773 4.151 4.928 7.195 8.152 10.197 2.106 2.539 4.414 4.959 6.772 7.275 2.187 2.157 4.948 4.254 7.275 6.592.313.402.645.806.958 1.249a.67.67 0 0 0 .041.483c.826 1.996-.806 4.958 1.068 6.53 1.119.947 3.366 1.128 3.739-.646.222-1.148-.272-2.418-.806-3.547a21 21 0 0 0-1.159-2.338 23 23 0 0 0-2.146-3.265 1 1 0 0 0-.454-.362c-.907-1.129-1.875-2.258-2.802-3.387-3.114-3.91-6.52-7.578-9.604-11.528-6.046-7.719-10.48-17.534-12.395-27.31 0-.241-.021-.504-.021-.745.323.403.675.766 1.028 1.128 4.545 5.08 11.498 8.627 17.232 11.488 4.787 2.419 9.765 4.757 14.32 7.599 3.719 2.358 8.677 6.046 10.904 10.339.373.907.715 1.834 1.068 2.781.313.928 1.471 1.049 2.207.625l.041-.02zM337.771 451.554c-1.311-.403-2.641-.483-3.406-1.895-.523-.987-.322-2.217-.121-3.427.443-1.33.727-2.721.767-4.191.282-8.021-6.007-14.773-14.028-15.076-8.061-.281-14.793 6.007-15.074 14.049-.242 6.025 3.265 11.307 8.424 13.705l.041.039c.523.344 1.027.787 1.611 1.028.545 1.008-.04 2.277-.362 3.325-.142.585-.443 1.23-.646 1.955-2.096 3.164-3.346 6.934-3.506 11.025-.424 12.012 8.988 22.109 21.021 22.553 12.013.422 22.109-8.99 22.532-21.002.382-10.761-7.075-19.953-17.253-22.088M313.445 442c.141-3.647 3.225-6.529 6.853-6.408a6.67 6.67 0 0 1 6.389 6.893c-.12 3.648-3.204 6.49-6.853 6.369-3.647-.122-6.51-3.185-6.389-6.854m18.663 42.93c-6.691-.242-11.932-5.846-11.669-12.536.221-6.651 5.824-11.892 12.516-11.649 6.671.242 11.891 5.845 11.669 12.536-.262 6.67-5.845 11.891-12.516 11.649M195.603 434.02c-4.625-6.228-13.372-7.537-19.59-2.922-4.615 3.426-6.5 9.17-5.26 14.45.04.524.04 1.068.141 1.612l-.02.182c-.101 1.793-1.693 1.773-2.973 2.236-.302.081-.615.202-.907.283a20.94 20.94 0 0 0-10.974 4.07c-9.291 6.893-11.226 19.994-4.333 29.305 6.893 9.271 20.013 11.206 29.304 4.313 8.415-6.247 10.793-17.654 5.986-26.644-.494-1.188-.967-2.338-.211-3.547.584-.887 1.572-1.391 2.499-1.935a13.4 13.4 0 0 0 3.426-1.854c6.217-4.594 7.517-13.382 2.912-19.549m-20.578 45.508c-5.159 3.829-12.445 2.741-16.285-2.419-3.819-5.159-2.741-12.436 2.418-16.285 5.16-3.809 12.445-2.74 16.265 2.419 3.83 5.159 2.762 12.456-2.398 16.285m12.365-31.944c-2.832 2.115-6.812 1.512-8.918-1.311-2.086-2.822-1.512-6.813 1.32-8.908 2.832-2.096 6.813-1.492 8.918 1.289a6.406 6.406 0 0 1-1.32 8.93M389.568 445.186c-2.842-1.17-5.664 2.378-7.356 4.07-1.048 1.049-8.263 7.357-10.036 8.908a1 1 0 0 0-.162-.443c-5.643-8.424-1.975-19.63-1.854-29.021.08-8.425-3.306-16.486-11.125-20.438-7.457-3.748-16.245-.967-20.941 5.604-2.6 3.628-3.123 8.264-2.74 12.576.16 2.177.463 5.764 2.076 7.719 0 .081.039.142.08.202 3.225 3.607 9.271.544 9.13-3.971-.101-3.668-2.036-6.61-.081-10.157 1.432-2.621 4.395-3.77 7.195-3.508 3.547.303 5.361 3.729 6.207 6.732 1.412 5.159.888 11.023.767 16.324-.081 4.676-.161 9.332-.202 14.027-.1 6.934.242 14.633 5.805 19.551.443.383.947.201 1.209-.182 4.435-3.285 8.264-7.639 12.456-11.287 4.03-3.506 8.183-6.852 12.536-9.936.443 0 .887-.282.927-.847.281-2.74-1.412-4.877-3.891-5.923M116.406 455.907l38.021-47.403 8.022 6.65-37.306 47z" clip-path="url(#f)" transform="matrix(.66669 0 0 .66669 -31.365 -4.108)"></path><path fill="#003976" d="M147.736 407.013c.393-.282.614-.726.514-1.351-.121-10.057-10.007-17.07-18.199-20.94-9.412-4.434-21.757-6.711-28.529-15.176-.615-.786-1.521-.585-2.045-.04-.282.181-.494.463-.403.826-.03.161 0 .362.041.523-.131 7.658.061 15.922 3.094 23.098 1.773 4.151 4.928 7.195 8.152 10.197 2.106 2.539 4.414 4.959 6.772 7.275 2.187 2.157 4.948 4.254 7.275 6.592.313.402.645.806.958 1.249a.67.67 0 0 0 .041.483c.826 1.996-.806 4.958 1.068 6.53 1.119.947 3.366 1.128 3.739-.646.222-1.148-.272-2.418-.806-3.547a21 21 0 0 0-1.159-2.338 23 23 0 0 0-2.146-3.265 1 1 0 0 0-.454-.362c-.907-1.129-1.875-2.258-2.802-3.387-3.114-3.91-6.52-7.578-9.604-11.528-6.046-7.719-10.48-17.534-12.395-27.31 0-.241-.021-.504-.021-.745.323.403.675.766 1.028 1.128 4.545 5.08 11.498 8.627 17.232 11.488 4.787 2.419 9.765 4.757 14.32 7.599 3.719 2.358 8.677 6.046 10.904 10.339.373.907.715 1.834 1.068 2.781.313.928 1.471 1.049 2.207.625l.041-.02z" clip-path="url(#f)" transform="matrix(.66669 0 0 .66669 -31.365 -4.108)"></path><path fill="url(#m)" d="M46.43 6.162h417.851V534.51H46.43z" clip-path="url(#g)" transform="matrix(.66669 0 0 .66669 -31.365 -4.108)" data-source="https://football-logos.cc"></path><g fill="#003976"><path d="M429.535 305.898c1.008-5.966 4.393-11.408 4.896-17.394.223-2.741-.221-5.432-.544-8.152-.362-3.427.464-7.457 1.411-10.712.443-1.492-1.733-2.308-2.258-.847-.927 2.579-1.512 5.159-1.895 7.86-.523 3.346-1.249 6.731-1.451 10.098-.402 6.469-1.935 12.556-2.963 18.885-.28 1.794 2.501 2.036 2.804.262M405.732 231.7c1.793 6.026 2.882 11.287 2.721 17.625-.061 2.146 3.184 2.5 3.346.333.927-12.677-3.588-23.822-8.344-35.229-.564-1.381-2.883-.665-2.5.806 1.352 5.551 3.145 10.993 4.777 16.465M382.816 242.331c1.492 8.959.766 20.296 7.074 27.622 1.693 1.935 4.777-.111 3.77-2.438-1.854-4.172-4.152-7.759-5.301-12.234-1.148-4.565-1.512-8.918-2.076-13.563-.242-2.249-3.869-1.634-3.467.613M357.563 249.738c3.567 4.727 7.356 9.08 11.427 13.373 1.17 1.199 3.104-.393 2.016-1.713-3.869-4.575-5.441-10.541-9.15-15.287-3.688-4.686-8.908-7.246-13.503-10.772-1.128-.847-2.66.806-1.692 1.813 3.888 3.859 7.617 8.233 10.902 12.586M371.168 190.585c.16 3.265 2.096 7.618 5.038 9.21 1.33.726 3.789-.101 3.225-2.066-1.008-3.214-3.063-6.318-4.474-9.412-1.674-3.648-2.178-7.659-3.91-11.307-.605-1.199-2.318-.333-1.854.887 1.491 4.152 1.813 8.334 1.975 12.688M331.785 155.093c2.218 5.039 4.072 10.521 8.345 14.158 2.901 2.479 6.489-3.205 2.56-4.867-4.777-2.025-6.934-5.664-9.049-10.178-.585-1.199-2.419-.332-1.856.887M316.852 187.864c-.887-.282-1.592.978-.786 1.491 4.757 2.912 10.178 1.955 15.56 2.409 6.167.503 11.729 2.358 17.292 4.998 1.692.826 2.781-1.713 1.431-2.761-4.434-3.577-9.049-5.865-14.713-6.55-6.189-.716-12.738 2.419-18.784.413M182.916 186.584c-8.707 7.225-19.52 10.914-27.43 19.207-1.139 1.199 0 3.477 1.673 2.58 10.087-5.321 19.006-12.093 27.43-19.812 1.239-1.128-.374-3.053-1.673-1.975M122.16 194.192c1.612-2.56 2.701-5.391 3.779-8.192 1.3-3.406 2.943-6.459 4.616-9.685 1.753-3.406 4.071-7.326 6.55-10.188 2.308-2.71 5.14-5.27 6.782-8.424.433-.806-.635-1.552-1.34-1.219-3.033 1.36-5.24 4.172-7.367 6.671-2.56 2.973-5.492 5.613-7.719 8.868-2.005 2.932-2.64 6.026-3.567 9.372-1.119 3.94-2.751 7.699-4.333 11.438-.666 1.541 1.712 2.78 2.599 1.359" clip-path="url(#n)" transform="matrix(.66669 0 0 .66669 -31.365 -4.108)"></path></g><path fill="url(#p)" d="M140.521 208.25h220.085v222.504H140.521z" clip-path="url(#o)" transform="matrix(.66669 0 0 .66669 -31.365 -4.108)"></path><path fill="#00265b" d="M316.791 367.449s-28.458.666-31.461.727c.101 2.962.967 28.881.967 28.881l-12.979.242.04 2.66 15.56-.322s-.947-28.056-.968-28.861c.806-.021 31.461-.727 31.461-.727v-14.873s-1.008.061-2.62.141zm17.212-46.093-.806 13.665s-45.59-1.109-48.834-1.189c.08 2.781.543 18.603.624 21.303.403-.039 1.29-.08 2.54-.121-.162-4.957-.545-17.896-.564-18.582l48.813 1.209.987-16.365zM212.684 326.133l.252-1.652-1.572-.584a14 14 0 0 0-1.219-.403l-.061.403c-4.746 31.643-.04 69.492.021 69.875l.101.887-.675.584c-.685.564-9.664 4.777-15.549.283l-.101.523.686.766c5.986 6.551 16.627 1.552 17.393.928l.867-.727-.141-1.129c-.043-.362-4.749-38.112-.002-69.754M224.01 278.689c-1.915-1.713-3.769-3.96-4.807-6.791a14.2 14.2 0 0 1-.847-5.029c.041-2.912.927-6.036 2.64-9.311 14.239-17.877 50.073-8.898 58.187-5.694l.12.041c.081.02.222.06.222.06 5.422 1.068 7.195-2.146 7.699-3.597.141-.323.424-1.774.463-3.134 0-.615-.08-1.179-.201-1.673l.121-4.887c0-2.126-1.773-3.567-2.963-4.051l-.161-.06c.343.544.544 1.179.544 1.904 0 0-.08 4.605-.08 4.908.121.494.161 1.058.161 1.632-.04 1.381-.323 2.761-.423 3.013-.464 1.34-2.117 4.333-7.236 3.326l-.15-.041-.121-.041c-8.173-3.225-44.269-12.244-58.7 5.875-1.733 3.346-2.64 6.52-2.681 9.493-.02 1.813.272 3.557.867 5.2 1.512 4.092 4.706 7.023 7.346 8.857m65.734 4.374-.443-1.401c-.443-1.512-.242-7.366.182-12.112l.061-.685-.363-.575c-.645-1.038-1.613-1.773-2.781-2.358.08.131.201.232.281.353l.283.474-.041.534c-.362 3.97-.686 10.51-.161 12.264l.444 1.42c.685 2.047 1.369 4.143.241 7.004-.423 1.028-1.068 2.58-16.567 6.188-7.306 1.693-14.551 3.084-14.611 3.084-.907.182-22.724 4.111-44.642-15.59l-.061-.04-.061-.061a45 45 0 0 1-1.521-1.794 37.6 37.6 0 0 0 3.355 4.264l.091.12.061.04c22.099 19.832 44.098 15.861 45.014 15.681.303-.04 7.468-1.411 14.633-3.083 15.7-3.669 16.365-5.261 16.85-6.43 1.207-3.005.461-5.201-.244-7.297" clip-path="url(#q)" transform="matrix(.66669 0 0 .66669 -31.365 -4.108)"></path><path fill="#dab177" d="m282.649 332.119 49.016 1.23.705-12.134-60.141 2.197.978 72.234 11.377-.203-.967-28.9 31.541-.705v-10.662l-31.763 1.693zM194.152 323.654s5.341 40.006-.252 69.572c5.099 5.584 14.551.727 14.551.727s-4.847-38.052 0-70.299c-7.759-2.922-14.299 0-14.299 0M285.27 267.151s-.928 10.157-.121 12.879c.807 2.73 1.915 4.483.766 7.325-1.168 2.842-29.959 8.284-29.959 8.284s-21.646 4.192-43.231-15.196c-19.509-21.444 5.754-40.198 10.974-41.811 4.706-3.265 37.316-12.304 58.025-4.293.504.182 1.652.988 1.652 2.106-.041 1.088-.08 5.079-.08 5.079s1.692 7.628-5.523 6.188c-5.925-2.328-45.055-13.352-60.674 6.52-10.521 19.982 10.551 28.377 10.551 28.377s18.633 8.758 39.25-1.834c4.908-4.545 3.195-8.293 3.195-8.293s-.283-2.933-.596-5.613c-.332-2.71 4.041-2.66 4.041-2.66s9.513-.605 11.73 2.942" clip-path="url(#q)" transform="matrix(.66669 0 0 .66669 -31.365 -4.108)" data-source="https://football-logos.cc"></path><!-- source: https://football-logos.cc --></svg>