<svg xmlns="http://www.w3.org/2000/svg" viewBox="2.8 5.24 294.76 310.66"><!-- Source: https://football-logos.cc --><path fill="none" d="M190.586 318.517c-.931 0-1.863-.116-2.795-.291-1.048-.175-12.053-2.33-31.968-10.83a241 241 0 0 1-3.727-1.573l-2.038-.873-2.038.873c-1.164.524-2.445 1.048-3.727 1.572-19.798 8.444-31.036 10.656-32.026 10.83a14 14 0 0 1-2.737.292c-6.58 0-10.889-5.474-10.947-9.258-.058-2.388 1.63-4.251 3.901-4.368h.7c9.549-.174 20.147-2.096 31.618-5.706-1.514-.408-2.911-.699-4.309-.874-1.165-.174-2.446-.233-4.193-.233-.99 0-5.415.117-6.696.117-2.154 0-4.018-.058-5.823-.233-7.977-.699-11.238-2.679-13.567-4.717-1.514-1.339-2.388-3.086-2.388-4.891 0-1.281.408-2.504 1.048-3.552-.29-.116-.699-.175-1.106-.291-.291.116-.64.291-.815.407-1.514.816-3.844 2.039-6.988 2.912-2.62.699-4.658 1.048-6.522 1.048-2.154 0-4.076-.466-5.823-1.514-2.562-1.456-4.076-3.843-4.076-6.522 0-.873.175-1.746.466-2.562a7 7 0 0 0-.932.233c-1.397.35-2.97.699-4.716.699a10.5 10.5 0 0 1-4.251-.873c-3.086-1.34-5.008-4.135-5.008-7.221 0-.815.117-1.63.35-2.387-1.573-1.34-2.213-2.795-2.446-3.902-.35-1.63 0-3.144.64-4.425-1.397-.583-3.377-1.572-4.658-3.494-.757.35-1.514.64-2.27.932l-3.32 1.28-30.047-42.856 6.29-1.63c1.339-.35 2.678-.7 3.959-1.166-2.038-.99-3.61-2.096-4.658-3.027-1.747-1.63-2.62-3.436-2.62-5.474 0-1.048.232-2.096.698-3.028-2.97-.175-5.415-.932-7.22-2.213q-3.495-2.532-3.494-6.114c0-2.795 1.339-5.008 3.552-6.056-1.165-.582-2.388-1.397-3.669-2.678-1.688-1.689-2.678-3.96-2.678-6.406q0-2.009.873-3.843a26 26 0 0 0-1.863-1.34c-.99-.64-1.98-1.28-2.795-2.212-.816-.931-1.922-2.329-1.922-4.425 0-2.33 1.281-4.368 3.261-5.357-.291-.35-.64-.7-.932-1.049-2.154-2.445-3.028-5.007-2.678-7.86.233-1.98 1.223-3.67 2.562-4.775-.815-.757-1.456-1.514-1.863-2.155-1.398-1.98-2.097-3.785-2.097-5.299 0-1.98.699-3.727 2.038-4.95.64-.582 1.34-1.048 2.155-1.28-.815-.641-1.747-1.398-2.62-2.563-.7-.931-1.631-2.329-1.631-4.309 0-3.435 2.62-6.23 5.94-6.58-.7-1.397-1.165-2.853-1.282-4.483-.116-1.864.583-3.669 1.864-5.066 1.339-1.398 3.26-2.271 5.24-2.271.583 0 1.165.058 1.69.175-.525-.816-1.224-2.097-1.224-3.785 0-1.864.757-3.669 2.097-4.95.64-.582 1.339-1.048 2.096-1.34-.699-.698-1.165-1.222-1.63-1.863-.758-1.106-1.631-2.503-1.631-4.25 0-2.504 1.572-4.717 3.843-5.649-.64-1.28-1.28-3.028-1.223-5.182.175-3.552 3.028-6.347 6.522-6.347.873 0 3.552.291 5.415 3.26.524-.174 1.165-.349 1.864-.349 1.921 0 3.843.932 5.008 2.446a5.4 5.4 0 0 1 1.106 2.679h.873v-.117c.291-3.086 2.737-5.415 5.707-5.415 1.223 0 2.329.35 3.26.99.35-.932.758-1.922 1.107-2.795 1.165-2.62 3.785-4.31 6.58-4.31h.233c-.815-.64-1.63-1.222-2.446-1.863l-3.901-2.853 31.677-36.976 2.97 1.106a52.6 52.6 0 0 0 18.284 3.261c19.216 0 36.86-10.481 46.118-27.31l3.96-7.22 3.96 7.22c9.258 16.829 26.96 27.31 46.117 27.31a52.6 52.6 0 0 0 18.284-3.26l2.97-1.107 31.444 37.034-3.901 2.853a68 68 0 0 0-2.446 1.864h.233c2.795 0 5.415 1.688 6.58 4.309.408.873.757 1.863 1.106 2.795.932-.64 2.038-.99 3.261-.99 2.97 0 5.416 2.33 5.707 5.415v.117h.873c.117-.932.466-1.922 1.106-2.679 1.165-1.514 3.087-2.445 5.008-2.445.699 0 1.34.116 1.864.349 1.863-2.97 4.542-3.26 5.415-3.26 3.494 0 6.347 2.794 6.522 6.346.116 2.155-.583 3.902-1.223 5.183 2.27.931 3.843 3.086 3.843 5.648 0 1.805-.815 3.144-1.63 4.25-.408.641-.874 1.165-1.63 1.864.756.291 1.455.757 2.095 1.34a6.87 6.87 0 0 1 2.097 4.949c0 1.688-.64 2.97-1.223 3.785a8 8 0 0 1 1.689-.175c1.98 0 3.843.815 5.24 2.271 1.281 1.398 1.98 3.144 1.864 5.008-.117 1.63-.583 3.086-1.281 4.483 3.319.35 5.939 3.145 5.939 6.58 0 1.98-.932 3.436-1.63 4.31-.932 1.164-1.806 1.98-2.62 2.562a6.2 6.2 0 0 1 2.154 1.28c1.28 1.223 2.038 3.029 2.038 4.95 0 1.514-.699 3.261-2.096 5.3-.408.581-1.049 1.338-1.864 2.154 1.398 1.106 2.33 2.795 2.562 4.774.35 2.854-.524 5.416-2.678 7.861-.35.35-.64.7-.932 1.049 1.98 1.048 3.26 3.028 3.26 5.357 0 2.096-1.105 3.552-1.92 4.425-.874.932-1.864 1.572-2.796 2.213-.64.408-1.28.815-1.863 1.34.582 1.164.873 2.503.873 3.842 0 2.446-.931 4.717-2.678 6.406-1.281 1.28-2.504 2.096-3.669 2.678 2.213 1.048 3.552 3.261 3.552 6.056q0 3.582-3.493 6.114c-1.806 1.281-4.193 2.038-7.221 2.213.466.932.699 1.922.699 3.028 0 1.98-.874 3.843-2.62 5.474-1.049.931-2.62 2.038-4.659 3.027 1.34.408 2.679.816 3.96 1.165l6.289 1.63-30.047 42.858-3.32-1.281a37 37 0 0 1-2.27-.932c-1.281 1.922-3.261 2.911-4.659 3.494.641 1.223.99 2.795.641 4.425-.233 1.107-.873 2.62-2.446 3.902.233.757.35 1.572.35 2.387 0 3.086-1.922 5.881-5.008 7.22a10.5 10.5 0 0 1-4.25.874c-1.69 0-3.32-.408-4.717-.699-.292-.058-.64-.174-.932-.233.35.815.466 1.689.466 2.562 0 2.679-1.456 5.066-4.076 6.522-1.747.99-3.669 1.514-5.823 1.514-1.805 0-3.902-.35-6.522-1.048-3.203-.873-5.474-2.096-6.988-2.912a5.3 5.3 0 0 0-.815-.407c-.407.116-.815.233-1.106.291.699.99 1.048 2.213 1.048 3.552 0 1.805-.815 3.552-2.388 4.891-2.329 2.038-5.59 4.018-13.567 4.717-1.805.175-3.669.233-5.823.233-1.281 0-5.765-.117-6.696-.117-1.747 0-3.028.059-4.193.233-1.398.175-2.795.466-4.309.874 11.471 3.668 22.127 5.59 31.619 5.706h.699c2.27.058 3.96 1.98 3.9 4.368.06 3.784-4.25 9.258-10.83 9.258m-65.683-49.088c3.668 0 6.522 2.62 7.57 6.813.175.699 1.688 6.813 4.95 9.666 2.212 1.922 5.648 4.542 12.693 7.628 7.046-3.086 10.482-5.706 12.695-7.628 3.26-2.795 4.774-8.967 4.95-9.666.989-4.192 3.9-6.813 7.569-6.813q1.136 0 2.27.35c-.057-1.514 0-2.854.117-4.076a73 73 0 0 1-27.542 5.415 73 73 0 0 1-27.543-5.415c.116 1.222.116 2.562.116 4.076.641-.233 1.398-.35 2.155-.35M61.782 174.4c.175 0 .35.057.524.057 3.668.525 6.463 3.96 6.522 8.036 0 .583 0 1.165-.059 1.864 10.365-13.976 16.014-30.862 16.014-48.506 0-21.836-8.91-42.74-24.224-57.939a5 5 0 0 1 .117.932c.116 1.98-.408 3.32-.816 4.542-.116.291-.233.582-.29.874 2.794.698 4.832 3.144 4.832 6.114 0 .931-.233 1.863-.64 2.736 1.106.35 2.154.932 2.97 1.806.931.99 1.63 2.212 1.921 3.552.291 1.222.291 2.387.058 3.61-.175 1.048-.582 2.096-1.223 3.202a13 13 0 0 1-1.339 1.98s-.116.175-.175.233c.059.058.117.058.175.117.699.466 1.747 1.339 2.504 2.62.35.582.64 1.223.815 1.922.117.349.175.698.175 1.106 0 .233 0 .35.058.466v.524a6.68 6.68 0 0 1-1.805 4.309c-.932.99-1.98 1.572-2.795 1.98-.233.116-.466.233-.757.35.175.29.35.581.466.873.174.465.29.873.407 1.339v.116l.059.291v.932c-.059.815-.292 1.63-.641 2.388-.291.64-.699 1.164-1.223 1.688.466.99.757 2.096.757 3.203.058 2.97-.407 4.076-1.863 6.987l-.175.408c-.35.699-1.164 2.33-1.048 2.737 0 0 .058.116.408.407 2.97 2.213 3.552 4.717 3.552 6.406 0 2.445-1.165 4.658-3.261 6.23a6.6 6.6 0 0 1-1.223.699c3.086.815 5.357 3.61 5.532 6.988.174 3.493-.874 5.473-2.096 7.686l-.292.582c-.349.64-.698 1.223-.99 1.805-.349.583-.698 1.223-.931 1.747M239.674 77.91c-15.315 15.198-24.224 36.103-24.224 57.94 0 17.643 5.649 34.53 16.014 48.505-.059-.7-.059-1.281-.059-1.864.059-4.018 2.854-7.453 6.522-8.035.175 0 .35-.059.524-.059-.291-.524-.64-1.164-.932-1.63-.29-.524-.698-1.165-.99-1.805l-.29-.583c-1.223-2.27-2.213-4.192-2.097-7.686.175-3.377 2.446-6.172 5.532-6.987a6.6 6.6 0 0 1-1.223-.7c-2.038-1.513-3.26-3.784-3.26-6.23 0-1.688.64-4.192 3.551-6.405.35-.233.408-.408.408-.408.058-.407-.699-2.038-1.048-2.736l-.175-.35c-1.456-2.97-1.863-4.018-1.863-6.987 0-1.107.29-2.213.757-3.203-.524-.524-.932-1.048-1.223-1.689a6.6 6.6 0 0 1-.64-2.387v-.932l.058-.35v-.057c.058-.466.232-.932.407-1.34.175-.35.291-.64.466-.931-.233-.117-.524-.233-.757-.35-.815-.407-1.863-.99-2.795-2.038-1.048-1.106-1.747-2.737-1.747-4.309v-.466c0-.174 0-.349.058-.524.058-.35.117-.698.175-1.106.175-.64.466-1.34.815-1.922.757-1.223 1.805-2.096 2.504-2.62l.117-.116c-.059-.059-.175-.233-.175-.233-.408-.583-.874-1.223-1.34-1.98q-.96-1.572-1.222-3.145c-.233-1.222-.175-2.387.058-3.552.35-1.397.99-2.62 1.921-3.61.816-.873 1.864-1.456 2.97-1.805a6.1 6.1 0 0 1-.64-2.737c0-2.97 2.038-5.473 4.833-6.114-.117-.291-.233-.582-.291-.873-.466-1.223-.932-2.563-.816-4.542 0-.408.059-.7.117-1.048" data-source="https://football-logos.cc"></path><path d="M289.286 148.952c2.97-.99 5.59-3.494 6.521-4.833.583-.874 1.63-2.562 1.63-3.902 0-1.28-.465-2.445-1.222-3.202-.699-.699-1.689-.99-2.737-.932-.407 0-.815.058-1.164.117-1.514.232-1.514.116-1.689-.292-.175-.582.408-1.455 1.805-2.562.408-.29.757-.582 1.106-.815.99-.699 1.922-1.397 2.912-2.679.524-.698 1.106-1.63 1.106-2.795a4.15 4.15 0 0 0-4.134-4.134c-1.048 0-1.863.408-2.504.757-.873.466-1.048.466-1.28.291-.117-.35.698-1.747 1.105-2.445 1.107-1.922 2.039-3.727 2.155-5.707a4.38 4.38 0 0 0-1.165-3.203c-.873-.931-2.154-1.455-3.435-1.455-1.63 0-3.145.873-4.018 2.329-.64 1.106-.99 2.27-1.34 3.319-.349 1.165-.698 2.213-1.164 2.33-.291.057-.524-.117-1.048-1.282-.058-.175-.175-.35-.233-.466-.699-1.339-2.096-2.154-3.61-2.154h-.408c.175-.699.699-1.456 2.271-2.504 2.737-1.922 4.31-3.26 5.415-4.717.525-.64 1.165-1.63 1.165-2.97 0-1.164-.466-2.329-1.34-3.144a3.9 3.9 0 0 0-3.027-1.164c-1.107.058-1.805-.059-1.98-.292-.233-.29-.058-.931.873-1.688 1.922-1.63 2.737-2.388 3.32-3.261.64-.874 1.164-1.805 1.164-2.853 0-1.922-1.572-3.552-3.61-3.61-.582 0-.932-.175-1.106-.35 0-.058-.059-.058-.059-.116.059-.466.35-1.049.7-1.806.64-1.222 1.455-2.795 1.397-4.833-.117-2.212-1.864-3.96-4.018-3.96-.874 0-2.97.35-4.135 3.786-.116.29-.174.407-.232.407s-.175-.058-.408-.233l-.117-.058c-.64-.466-1.397-.99-2.445-.99-1.165 0-2.388.583-3.086 1.456-.583.699-.757 1.572-.524 2.387.465 1.806.174 2.271.174 2.33-.058.058-.233.116-.582.174-.116 0-.233-.116-.524-.35-.408-.348-1.048-.873-1.98-.873-1.106 0-1.805.466-2.154.874-.874.99-.874 2.446-.816 3.494.059.815.117 1.28.117 1.63.058.466.058.874.116 1.747-.058-.058-.116-.116-.174-.116-.292-.233-.583-.408-.816-.641-.524-.524-.698-.64-.058-2.911.757-2.679 1.048-4.077.874-6.406-.175-1.805-1.514-3.144-3.261-3.144-1.107 0-2.097.524-2.679 1.397-.582.932-1.106 1.281-1.397 1.223-.233-.058-.583-.35-.757-1.048-.408-1.223-1.107-3.319-1.805-4.833-.757-1.747-2.504-2.853-4.31-2.853-2.562 0-4.541 1.98-4.716 4.658-.058 1.456.291 2.446.64 3.552.117.408.292.815.466 1.281.233.699.583 1.98.291 2.388-.174.233-.64.349-1.28.349-2.155.058-3.844 1.689-3.844 3.843 0 1.34.757 2.62 1.98 3.32.582.349 1.106.64 1.63.873 1.049.524 1.63.815 1.747 1.339.175.699-.29 1.34-1.164 1.747l-.291-.466c-.117-.233-.292-.408-.466-.582-.35-.35-.757-.64-1.165-.874-.407-.233-.873-.35-1.34-.407-.116 0-.232-.059-.348-.059h-.292c-.29 0-.465 0-.757.059-.931.116-1.863.64-2.503 1.28-.641.7-1.107 1.515-1.282 2.388-.174.874-.232 1.747-.058 2.62.175.874.524 1.69.932 2.388.408.699.815 1.281 1.281 1.863.408.583.815 1.107.932 1.573.058.232.058.349.058.465s-.117.291-.233.466c-.291.408-.815.815-1.34 1.223-.64.466-1.339 1.106-1.804 1.863a5 5 0 0 0-.525 1.281c-.058.233-.116.466-.116.7v.698c0 .932.466 1.98 1.106 2.678.64.7 1.398 1.107 2.097 1.456.698.35 1.514.583 2.038.815.524.233 1.048.641 1.106.816.058.116.058.116 0 .233-.058.116-.116.349-.291.582-.35.466-.99 1.048-1.398 1.98-.116.233-.174.466-.233.757v.815c.059.466.175.99.408 1.456a3.96 3.96 0 0 0 2.096 1.921l.524.175c-1.106.932-1.863 2.33-1.863 3.901 0 2.446.233 3.145 1.63 5.881l.175.35c1.398 2.853 2.096 4.6-.116 6.23-1.689 1.282-2.562 2.737-2.562 4.426 0 1.63.815 3.144 2.27 4.25.758.583 1.747.874 2.62 1.107 1.98.582 2.796.932 2.854 2.33.058 1.222-1.164 1.863-1.747 2.037-.698-.35-1.397-.582-2.154-.582-2.62 0-4.775 2.154-4.892 4.833-.116 2.853.7 4.367 1.806 6.464l.29.582c.292.582.641 1.164.99 1.747 1.049 1.863 2.097 3.61 1.573 4.6-.233.524-.815.582-1.98.699-.35 0-.699.058-.99.116-2.446.35-4.367 2.795-4.367 5.59 0 2.33.233 5.648 2.154 11.122a83.78 83.78 0 0 1-23.059-57.764c0-26.67 12.927-52.057 34.53-67.78l1.748-1.28-28.591-33.657-1.34.524a54.9 54.9 0 0 1-19.157 3.435 55.04 55.04 0 0 1-48.273-28.59l-1.805-3.261-1.805 3.26c-9.84 17.586-28.358 28.533-48.447 28.533A54.9 54.9 0 0 1 80.88 33.6l-1.339-.525-28.59 33.657 1.746 1.281c21.603 15.78 34.53 41.11 34.53 67.78a83.78 83.78 0 0 1-23.059 57.764c1.864-5.474 2.155-8.735 2.155-11.122 0-2.795-1.922-5.24-4.367-5.59-.292-.058-.64-.058-.99-.117-1.165-.058-1.747-.174-1.98-.698-.524-.99.524-2.795 1.572-4.6.35-.583.64-1.165.99-1.747l.291-.583c1.106-2.096 1.922-3.61 1.805-6.463-.116-2.737-2.27-4.833-4.891-4.833-.815 0-1.572.233-2.213.582-.35-.058-1.106-.291-1.456-.815-.232-.291-.349-.699-.29-1.223.174-1.514 1.164-1.863 2.91-2.387.874-.292 1.806-.583 2.563-1.107 1.456-1.048 2.27-2.62 2.27-4.25 0-1.631-.873-3.145-2.561-4.426-2.213-1.63-1.514-3.32-.117-6.23l.175-.35c1.34-2.795 1.63-3.436 1.63-5.881 0-1.572-.757-2.97-1.863-3.902l.524-.174a4.45 4.45 0 0 0 2.096-1.922c.233-.466.35-.932.408-1.456v-.815c-.058-.29-.116-.524-.233-.757-.407-.931-1.048-1.514-1.397-1.98-.175-.232-.292-.465-.292-.582v-.233c.059-.174.583-.582 1.107-.815s1.28-.466 2.038-.815c.699-.35 1.456-.815 2.096-1.456.64-.699 1.106-1.689 1.106-2.679v-.699c0-.29-.058-.465-.116-.698a5 5 0 0 0-.524-1.281c-.466-.757-1.165-1.398-1.805-1.863-.524-.408-1.048-.816-1.34-1.223-.174-.175-.232-.35-.232-.466s0-.233.058-.466c.116-.408.524-.99.932-1.572.407-.582.873-1.165 1.28-1.864.408-.698.758-1.455.932-2.387.175-.873.117-1.689-.058-2.62-.233-.874-.64-1.747-1.281-2.388a4.17 4.17 0 0 0-2.504-1.28c-.233-.059-.466-.059-.757-.059h-.291c-.116 0-.233 0-.35.058-.465.058-.931.233-1.339.408-.407.233-.815.466-1.164.873-.175.175-.35.35-.466.583l-.291.465c-.874-.407-1.34-1.048-1.165-1.746.117-.466.64-.757 1.747-1.34.466-.233 1.048-.524 1.63-.873 1.223-.757 1.98-1.98 1.98-3.32 0-2.096-1.688-3.784-3.843-3.842-.64 0-1.164-.117-1.28-.35-.292-.407.116-1.689.29-2.387.175-.466.291-.932.466-1.281.408-1.107.757-2.097.64-3.552-.174-2.679-2.154-4.659-4.716-4.659a4.69 4.69 0 0 0-4.31 2.854c-.698 1.514-1.455 3.552-1.804 4.833-.233.698-.524 1.048-.757 1.048-.291.058-.815-.35-1.398-1.223-.582-.874-1.572-1.398-2.678-1.398-1.689 0-3.086 1.34-3.261 3.145-.233 2.329.116 3.727.873 6.405.64 2.271.466 2.388-.058 2.912-.233.233-.524.407-.815.64-.058.058-.117.058-.175.117.058-.874.117-1.281.117-1.747.058-.408.058-.816.116-1.63.058-1.049.058-2.505-.815-3.495-.35-.407-1.048-.873-2.155-.873-.931 0-1.572.524-1.98.873-.29.233-.407.35-.523.35-.35 0-.525-.058-.583-.175-.058-.058-.29-.524.175-2.329.233-.815 0-1.689-.524-2.387-.699-.874-1.922-1.456-3.086-1.456-1.048 0-1.864.582-2.446.99l-.116.058c-.175.116-.35.175-.408.233-.058-.058-.117-.175-.233-.408-1.165-3.377-3.26-3.785-4.134-3.785-2.155 0-3.96 1.747-4.018 3.96-.058 2.038.699 3.552 1.397 4.833.35.699.7 1.34.7 1.805 0 .058 0 .117-.06.117-.116.174-.523.349-1.105.349-2.038.116-3.61 1.689-3.61 3.61 0 1.048.582 1.98 1.164 2.853s1.397 1.63 3.319 3.261c.932.816 1.106 1.398.873 1.689-.174.233-.873.35-1.98.291a3.99 3.99 0 0 0-3.027 1.165c-.874.815-1.34 1.98-1.34 3.144 0 1.34.7 2.33 1.165 2.97 1.165 1.456 2.737 2.795 5.415 4.716 1.514 1.049 2.097 1.806 2.271 2.504h-.407c-1.514 0-2.912.816-3.61 2.155-.059.175-.175.291-.233.466-.583 1.164-.757 1.339-1.049 1.28-.524-.116-.815-1.222-1.164-2.328-.291-1.049-.699-2.213-1.34-3.32-.873-1.455-2.387-2.329-4.017-2.329-1.281 0-2.504.524-3.436 1.456-.815.873-1.28 2.038-1.164 3.203.116 1.98 1.048 3.726 2.154 5.706.408.699 1.223 2.096 1.048 2.446-.233.175-.35.175-1.223-.291-.64-.35-1.514-.757-2.504-.757a4.15 4.15 0 0 0-4.134 4.134c0 1.223.582 2.155 1.107 2.795.99 1.281 1.921 1.922 2.911 2.679.35.233.699.524 1.106.815 1.398 1.106 1.98 1.98 1.806 2.562-.117.408-.175.524-1.69.291-.407-.058-.756-.116-1.164-.116-1.048-.059-2.038.29-2.737.931-.815.757-1.222 1.864-1.222 3.203 0 1.281 1.048 2.97 1.63 3.901.932 1.34 3.552 3.902 6.522 4.833.815.233 1.28.757 1.34 1.398.057.233 0 .466-.06.64a10 10 0 0 0-1.105-1.106c-.874-.757-1.864-1.165-2.854-1.165-2.154 0-3.843 1.63-4.134 4.018-.233 2.155.408 4.018 2.038 5.94.35.407.699.815 1.048 1.164.874.932 1.747 1.864 1.747 2.446s0 .757-.932.815c-2.038.117-3.552 1.689-3.552 3.61 0 1.223.64 2.097 1.281 2.737.64.7 1.456 1.223 2.33 1.805 1.28.816 2.562 1.69 3.552 3.087-.932 1.106-1.456 2.562-1.456 4.134 0 1.747.699 3.377 1.921 4.658 1.98 1.98 3.785 2.62 5.358 3.145.29.116.582.174.815.29.873.35 1.397.874 1.34 1.398-.117.583-1.05 1.281-2.854 1.398-2.33.175-3.843 1.805-3.843 4.25 0 1.573.815 2.912 2.504 4.135 2.678 1.98 6.987 1.922 9.316 1.689 1.165-.117 1.689.233 1.747.465.058.175-.175.641-.815.932-1.689.757-2.737 2.388-2.737 4.134 0 1.282.582 2.504 1.864 3.61 1.572 1.456 5.415 3.727 10.19 4.892-3.378 1.398-6.93 2.562-10.54 3.494l-2.853.757 26.786 38.49 1.514-.583c1.514-.582 2.97-1.222 4.425-1.863.64 3.028 3.61 4.193 5.124 4.717.233.116.466.174.64.233.467.233.816.64.874 1.106.058.291-.058.524-.29.699-.641.64-1.515 2.154-1.224 3.843.291 1.456 1.398 2.62 3.261 3.552-.699.932-1.106 2.038-1.106 3.26 0 2.155 1.339 3.96 3.552 4.95 2.678 1.165 5.066.583 7.395 0 1.106-.29 2.213-.524 3.32-.64.581-.058 1.28.058 1.63.64.232.466.116 1.107-.117 1.398-.873.99-1.34 2.154-1.34 3.377 0 1.747 1.049 3.377 2.796 4.367a9.3 9.3 0 0 0 4.6 1.165c1.63 0 3.494-.35 5.823-.99 2.911-.815 5.008-1.921 6.522-2.678.757-.408 1.397-.7 1.747-.816 4.192.932 4.833 1.747 4.89 2.155.06.582-.232.873-.93 1.514l-.059.058c-.757.64-1.165 1.63-1.165 2.737 0 1.106.524 2.154 1.514 3.028 2.038 1.747 4.892 3.494 12.17 4.076 1.747.175 3.552.233 5.59.233 1.281 0 2.446 0 3.61-.058 1.049 0 2.097-.059 3.087-.059 1.863 0 3.26.059 4.484.233 3.785.524 7.511 1.689 11.762 3.32-2.038.756-4.25 1.513-6.696 2.27-11.821 3.785-22.827 5.765-32.667 5.94h-.64c-.758 0-1.573.582-1.515 1.805.058 2.387 3.261 6.813 8.443 6.813.757 0 1.514-.117 2.213-.233.466-.058 11.413-2.096 31.56-10.714 1.456-.641 2.796-1.223 4.135-1.806.874-.349 1.747-.757 2.562-1.106.815.35 1.689.699 2.562 1.106 1.34.583 2.679 1.165 4.135 1.806 20.147 8.56 31.094 10.597 31.502 10.656.757.174 1.514.29 2.27.29 5.183 0 8.386-4.425 8.444-6.812 0-1.223-.757-1.805-1.514-1.805h-.64c-9.841-.175-20.847-2.155-32.667-5.94a127 127 0 0 1-6.697-2.27c4.251-1.631 7.978-2.796 11.763-3.32 1.28-.174 2.62-.233 4.483-.233.99 0 2.039 0 3.087.059 1.164 0 2.387.058 3.61.058 2.096 0 3.843-.058 5.59-.233 7.279-.64 10.132-2.33 12.17-4.076.99-.874 1.514-1.922 1.514-3.028s-.408-2.096-1.165-2.737l-.058-.058c-.699-.64-.99-.932-.932-1.514.059-.408.757-1.223 4.892-2.155.407.117 1.048.408 1.747.816 1.514.815 3.552 1.863 6.521 2.678 2.33.64 4.251.99 5.823.99 1.806 0 3.261-.408 4.6-1.165 1.806-1.048 2.796-2.62 2.796-4.367 0-1.164-.466-2.329-1.34-3.377-.233-.291-.35-.874-.116-1.398.291-.582 1.048-.698 1.63-.64 1.107.058 2.271.35 3.32.64 2.329.583 4.716 1.165 7.395 0 2.212-.99 3.552-2.853 3.552-4.95 0-1.164-.408-2.328-1.107-3.26 1.864-.874 2.912-2.096 3.261-3.552.35-1.689-.524-3.203-1.223-3.843a.92.92 0 0 1-.29-.699c.057-.408.465-.873.873-1.106.174-.059.407-.175.64-.233 1.514-.583 4.484-1.747 5.124-4.717 1.456.64 2.97 1.281 4.426 1.863l1.514.583 26.844-38.315-2.854-.757c-3.61-.932-7.162-2.097-10.54-3.494 4.776-1.165 8.56-3.436 10.191-4.892 1.223-1.164 1.863-2.329 1.863-3.61 0-1.747-1.048-3.377-2.736-4.134-.64-.291-.874-.757-.816-.932.059-.233.583-.524 1.747-.466 2.33.175 6.638.233 9.317-1.688 1.689-1.223 2.504-2.562 2.504-4.135 0-2.504-1.456-4.134-3.843-4.25-1.864-.117-2.795-.816-2.853-1.398-.059-.524.465-1.048 1.339-1.397.291-.117.582-.175.815-.292 1.572-.524 3.377-1.164 5.357-3.144a6.5 6.5 0 0 0 1.922-4.658c0-1.573-.524-2.97-1.456-4.135.99-1.455 2.271-2.27 3.552-3.086.873-.582 1.689-1.106 2.33-1.805.64-.699 1.28-1.572 1.28-2.737 0-1.98-1.514-3.494-3.552-3.61-.931-.058-.931-.233-.931-.815 0-.583.873-1.514 1.746-2.446.35-.35.7-.757 1.049-1.165 1.688-1.921 2.329-3.784 2.038-5.939-.292-2.33-1.98-4.018-4.135-4.018-1.048 0-2.038.408-2.853 1.165-.408.35-.757.757-1.106 1.106-.058-.233-.117-.466-.058-.64.349-.7.815-1.223 1.63-1.456zm-139.17 119.72a70.3 70.3 0 0 0 30.63-7.045c-.641 2.911-1.107 7.337-.292 13.276-.407-.175-.757-.582-1.048-.873-1.106-1.34-2.562-2.097-4.134-2.097-2.504 0-4.426 1.864-5.124 4.95-.292 1.28-1.98 7.686-5.707 10.947-2.737 2.387-6.638 5.182-14.325 8.443-7.686-3.319-11.529-6.056-14.324-8.443-3.727-3.26-5.415-9.724-5.707-10.947-.757-3.086-2.678-4.95-5.124-4.95-1.572 0-3.028.757-4.134 2.097-.291.349-.64.698-1.048.873.873-5.94.407-10.365-.291-13.276a70.1 70.1 0 0 0 30.628 7.045"></path><path d="M263.606 56.658c4.659 0 8.444 3.785 8.444 8.443s-3.785 8.443-8.444 8.443c-4.658 0-8.443-3.785-8.443-8.443-.058-4.658 3.785-8.443 8.443-8.443m0 15.605c3.902 0 6.813-3.144 6.813-7.162 0-4.076-2.911-7.162-6.813-7.162-3.96 0-6.87 3.144-6.87 7.162 0 4.076 2.91 7.162 6.87 7.162m-3.26-12.112h3.784c2.271 0 3.378.932 3.378 2.795 0 1.573-.99 2.737-2.562 2.737l2.795 4.367h-1.689l-2.737-4.367h-1.34v4.367h-1.63zm1.63 4.251h1.922c1.222 0 2.038-.233 2.038-1.572 0-1.106-.99-1.456-2.038-1.456h-1.922z"></path><path fill="#fff" d="m90.023 225.233 1.223 2.446c11.18 22.71 33.89 36.859 59.162 36.859 25.33 0 47.981-14.092 59.161-36.86l1.223-2.445 1.98 1.863a123.7 123.7 0 0 0 37.733 23.991l21.661-30.92c-37.209-10.947-63.005-45.245-63.005-84.317 0-27.251 12.811-53.164 34.414-69.76l-23.874-28.299c-6.172 2.096-12.636 3.203-19.216 3.203-20.38 0-39.305-10.54-50.077-27.66-10.773 17.12-29.698 27.66-50.078 27.66-6.58 0-13.044-1.048-19.216-3.203L57.182 65.974c21.603 16.596 34.413 42.508 34.413 69.76 0 39.072-25.737 73.37-63.004 84.316l21.661 30.92a123.7 123.7 0 0 0 37.733-23.99z"></path><path d="m274.612 126.825.99-.175zM235.248 114.072" data-source="https://football-logos.cc"></path><path fill="#e30613" d="M205.202 138.412c-17.47 6.114-36.044 9.317-55.086 9.317-19.04 0-37.616-3.203-55.085-9.317-1.048 37.966-25.388 71.157-60.734 83.793l17.062 24.34c12.403-5.415 23.816-12.81 33.831-22.127l5.707-5.241 3.435 6.93c5.066 10.248 12.87 18.924 22.535 25.096 9.958 6.29 21.429 9.667 33.308 9.667 11.82 0 23.35-3.32 33.307-9.667 9.666-6.172 17.47-14.848 22.535-25.097l3.436-6.929 5.706 5.24a120.8 120.8 0 0 0 33.832 22.128l17.061-24.34c-35.52-12.636-59.802-45.827-60.85-83.793m-112.15 44.022a2.61 2.61 0 0 1-2.621-2.62 2.61 2.61 0 0 1 2.62-2.62 2.61 2.61 0 0 1 2.62 2.62 2.61 2.61 0 0 1-2.62 2.62m30.395 31.386-6.289-1.281 4.542-22.128.117-.698-.699-.117-10.947-2.212-.582-.117-.117.582-4.542 22.186-6.289-1.281 9.725-47.574 6.289 1.281-3.61 17.644-.175.873.698.117 10.948 2.212.64.117.175-.815 3.61-17.644 6.289 1.281zm14.732-23.409a2.61 2.61 0 0 1-2.62-2.62 2.61 2.61 0 0 1 2.62-2.62 2.61 2.61 0 0 1 2.62 2.62c0 1.398-1.164 2.62-2.62 2.62m14.965 24.05h-6.405v-48.564h6.405zm9.667-24.166a2.61 2.61 0 0 1-2.62-2.62 2.61 2.61 0 0 1 2.62-2.62 2.61 2.61 0 0 1 2.62 2.62 2.61 2.61 0 0 1-2.62 2.62m15.547-20.031-.582.116.116.525 2.213 10.947.174.757.641-.117 9.783-1.98 1.28 6.29-9.84 1.98-.582.116.116.64 4.425 22.127-6.288 1.281-9.55-47.573 22.07-4.426 1.28 6.289zm27.66 12.81a2.61 2.61 0 0 1-2.621-2.62 2.61 2.61 0 0 1 2.62-2.62 2.61 2.61 0 0 1 2.62 2.62 2.61 2.61 0 0 1-2.62 2.62"></path><g fill="#0069b4"><path d="M147.904 121.176c-.699 0-1.223.524-1.223 1.165v8.618h2.446v-8.618c0-.64-.583-1.165-1.223-1.165m.582 9.084h-1.223v-7.86c0-.35.291-.641.64-.641s.641.29.641.64v7.861zM143.653 121.176c-.699 0-1.223.524-1.223 1.165v8.618h2.446v-8.618c.058-.64-.524-1.165-1.223-1.165m.64 9.084h-1.222v-7.86c0-.35.29-.641.64-.641s.64.29.64.64v7.861zM165.023 121.176c-.698 0-1.223.524-1.223 1.165v8.618h2.446v-8.618c0-.64-.582-1.165-1.223-1.165m.583 9.084h-1.223v-7.86c0-.35.29-.641.64-.641s.64.29.64.64v7.861zM152.387 121.176c-.698 0-1.222.524-1.222 1.165v8.618h2.445v-8.618c0-.64-.524-1.165-1.223-1.165m.641 9.084h-1.223v-7.86c0-.35.291-.641.64-.641s.641.29.641.64v7.861zM139.46 121.176c-.698 0-1.222.524-1.222 1.165v8.618h2.445v-8.618c0-.64-.524-1.165-1.223-1.165m.64 9.084h-1.222v-7.86c0-.35.291-.641.64-.641s.641.29.641.64v7.861zM169.216 121.176c-.699 0-1.223.524-1.223 1.165v8.618h2.446v-8.618c0-.64-.583-1.165-1.223-1.165m.582 9.084h-1.28v-7.86c0-.35.29-.641.64-.641.349 0 .64.29.64.64zM156.58 121.176c-.699 0-1.223.524-1.223 1.165v8.618h2.446v-8.618c.058-.64-.524-1.165-1.223-1.165m.64 9.084h-1.28v-7.86c0-.35.29-.641.64-.641s.64.29.64.64zM160.83 121.176c-.698 0-1.222.524-1.222 1.165v8.618h2.446v-8.618c0-.64-.583-1.165-1.223-1.165m.583 9.084h-1.281v-7.86c0-.35.291-.641.64-.641s.641.29.641.64zM114.247 122.4l2.33.407V117.1l-2.33-.407zm.699-4.31a.46.46 0 0 1 .465-.466.46.46 0 0 1 .466.466v3.26a.46.46 0 0 1-.466.467.46.46 0 0 1-.465-.466zM110.986 121.817l2.33.407v-5.706l-2.33-.408zm.757-4.251a.46.46 0 0 1 .466-.466.46.46 0 0 1 .466.466v3.26a.46.46 0 0 1-.466.467.46.46 0 0 1-.466-.466zM159.142 140.858c0-.058-.175-.117-.35-.117H141.44c-.174 0-.35.059-.35.117v4.891c2.97.175 5.94.233 8.968.233s6.056-.116 9.084-.233v-4.891M135.268 121.176c-.699 0-1.223.524-1.223 1.165v8.618h2.446v-8.618c0-.64-.524-1.165-1.223-1.165m.64 9.084h-1.222v-7.86c0-.35.29-.641.64-.641s.64.29.64.64v7.861zM131.075 121.176c-.698 0-1.223.524-1.223 1.165v8.618h2.446v-8.618c0-.64-.524-1.165-1.223-1.165m.64 9.084h-1.222v-7.86c0-.35.291-.641.64-.641s.641.29.641.64v7.861zM120.594 123.505l2.33.408v-5.706l-2.33-.408zm.757-4.367a.46.46 0 0 1 .466-.466.46.46 0 0 1 .466.466v3.261a.46.46 0 0 1-.466.466.46.46 0 0 1-.466-.466zM123.797 124.088l2.329.407v-5.706l-2.33-.408zm.757-4.426a.46.46 0 0 1 .465-.466.46.46 0 0 1 .466.466v3.261a.46.46 0 0 1-.466.466.46.46 0 0 1-.465-.466zM117.45 122.981l2.329.408v-5.707l-2.33-.407zm.698-4.367a.46.46 0 0 1 .466-.466.46.46 0 0 1 .466.466v3.261a.46.46 0 0 1-.466.466.46.46 0 0 1-.466-.466zM180.512 123.389l2.33-.408v-5.706l-2.33.407zm.757-4.775a.46.46 0 0 1 .466-.466.46.46 0 0 1 .466.466v3.261a.46.46 0 0 1-.466.466.46.46 0 0 1-.466-.466zM177.368 123.913l2.33-.408V117.8l-2.33.408zm.699-4.775a.46.46 0 0 1 .466-.466.46.46 0 0 1 .465.466v3.261a.46.46 0 0 1-.465.466.46.46 0 0 1-.466-.466zM174.165 124.495l2.33-.407v-5.707l-2.33.408zm.7-4.833a.46.46 0 0 1 .465-.466.46.46 0 0 1 .466.466v3.261a.46.46 0 0 1-.466.466.46.46 0 0 1-.466-.466zM183.715 122.807l2.33-.408v-5.706l-2.33.407zm.757-4.717a.46.46 0 0 1 .466-.466.46.46 0 0 1 .466.466v3.26a.46.46 0 0 1-.466.467.46.46 0 0 1-.466-.466zM186.918 122.224l2.329-.407v-5.707l-2.33.408zm.757-4.658a.46.46 0 0 1 .466-.466.46.46 0 0 1 .465.466v3.26a.46.46 0 0 1-.465.467.46.46 0 0 1-.466-.466z"></path><path d="m237.985 65.567-19.798-23.35q-8.734 2.62-17.993 2.62c-19.798 0-38.257-9.317-50.078-24.864-11.82 15.489-30.279 24.864-50.077 24.864-6.114 0-12.17-.873-17.993-2.62l-19.798 23.35c20.671 17.352 32.841 43.148 32.841 70.283v.64a155 155 0 0 0 15.548 4.66v-14.325c0-.466.349-.757.815-.7l14.79 2.563c.466.058.815.524.815.99v8.094c0 .466-.349.757-.815.698l-10.598-1.805c-.465-.058-.931-.174-1.048-.174s-.233.058-.233.174v5.299a178 178 0 0 0 17.702 2.97v-5.124c0-.175-.174-.291-.35-.35-.174-.058-.698-.116-1.164-.233l-1.28-.232c-.467-.059-.816-.525-.816-.99v-3.61c0-.466.35-.816.815-.816h41.926c.465 0 .815.35.815.815v3.61c0 .466-.35.874-.815.99l-1.281.233c-.466.059-.99.175-1.165.233s-.35.175-.35.35v5.124c5.998-.64 11.938-1.689 17.702-2.97v-5.299c0-.116-.116-.233-.232-.174-.117 0-.641.116-1.049.174l-10.597 1.805c-.466.059-.816-.232-.816-.698v-8.036c0-.466.35-.873.816-.99l14.79-2.562c.466-.058.815.233.815.699v14.266a152 152 0 0 0 15.431-4.658v-.64c-.116-27.136 12.054-52.932 32.725-70.284m-44.196 40.295-3.494-3.494v-4.367l3.494 3.494zm0-5.648-3.494-3.494V93.05c0-.116 0-.174-.058-.233a8.3 8.3 0 0 1 3.552 1.165zm-27.252-16.77 22.885-8.502-8.91-17.178-13.16 12.17a.457.457 0 0 1-.64 0 .457.457 0 0 1 0-.64l13.626-12.578c.116-.117.233-.117.35-.117s.232.117.29.233L190.353 75a.37.37 0 0 1 0 .35c-.058.116-.116.232-.233.232l-23.35 8.677h-.175a.44.44 0 0 1-.407-.292c.058-.233.175-.465.35-.524m2.912-11.821v2.736l-2.446-1.572V71.39c0-.117.058-.233.117-.35l.582-.524zm-1.048-1.747 1.048-.99v1.689zm1.048 5.532v2.678l-2.446-1.572v-2.679zm0 3.668v2.271l-1.864.699h-.174c-.117 0-.175 0-.233-.058-.117-.059-.175-.233-.175-.35v-4.134zm3.726-8.676v2.562l-2.853-1.805v-2.562zm-2.445-2.62 1.688-1.573.757.466v2.679zm2.445 6.23v2.737l-2.853-1.805v-2.737zm0 3.727v2.27l-.407.175-2.446-1.572v-2.678zm-1.455 2.795-1.398.524v-1.398zm5.124-15.082v2.62l-2.853-1.804V64.81l.757-.699zm-1.456-1.98 1.456-1.339v2.213zm1.456 5.59v2.68l-2.853-1.806v-2.679zm0 3.727v2.562l-2.853-1.805v-2.62zm0 3.552v2.33l-.408.174-2.445-1.572v-2.737zm-1.456 2.854-1.397.524v-1.398zm5.124-15.024v2.62l-2.853-1.805v-2.62zm-2.736-2.853 2.212-1.98c.117-.116.233-.116.35-.116s.174.058.233.116v3.785zm2.736 6.464v2.62l-2.853-1.805v-2.62zm0 3.668v2.679l-2.853-1.806v-2.678zm0 3.668v2.213l-.349.117-2.504-1.573v-2.562zm-1.339 2.737-1.456.524v-1.455zm5.066-11.355v2.62l-2.853-1.804v-2.62zm-2.853-2.853v-2.737l2.096 4.076zm2.853 6.522v2.62l-2.853-1.805v-2.62zm0 3.668v2.155l-.466.175-2.329-1.514v-2.679zm-1.514 2.679-1.34.466v-1.34zm4.367-4.484 1.049 1.98a.37.37 0 0 1 0 .35c-.059.116-.117.232-.233.232l-.524.175-2.33-1.514v-2.62zm-2.038-2.329v-1.63l1.223 2.387zm1.34 5.474-1.281.466V74.3zm-1.34 23.175v4.367l-3.493-3.493v-4.018l.29-.117s0 .059.059.059zm-2.329-3.552 2.33-.873v3.202zm2.33 9.142v4.367l-3.494-3.493v-4.368zm0 5.649v.29l-3.436.641-.058-.058v-4.367zm-18.401-10.074h-.175a.44.44 0 0 1-.408-.291.55.55 0 0 1 .233-.583l20.73-7.686a.55.55 0 0 1 .582.233.55.55 0 0 1-.232.582zm10.54 6.58v-4.368l3.493 3.494v4.368zm3.377 4.6-3.378.64v-4.017zm.116-11.122v4.367l-3.494-3.494v-3.61l.524-.175zm-2.038-3.26 2.038-.758v2.795zm-2.33 4.483v4.367l-3.493-3.494v-3.26l.815-.292zm-1.804-2.97 1.747-.64v2.445zm1.805 8.618v5.008l-.466.116h-.058q-.175 0-.35-.174l-2.62-3.203v-5.299zm-4.367-4.367v5.066l-4.833-5.94c-.117-.116-.117-.233-.059-.407.059-.117.117-.233.291-.291l2.213-.816zm-1.514-2.737 1.514-.582v2.038zm15.489-5.765 3.494 3.494v4.367l-3.494-3.493zm3.494 9.142v4.368l-3.494-3.494v-4.367zm0 5.59v.757l-3.087.583-.407-.408v-4.367zm0-12.46-2.62-2.621c.873-.291 1.746-.466 2.678-.466 0 .058-.058.058-.058.117zm-1.98-16.247-19.973 7.395c-.117.059-.175.059-.291.059a.88.88 0 0 1-.815-.583c-.175-.466.058-.931.524-1.106l19.972-7.395c.466-.175.932.058 1.107.524.116.407-.117.931-.524 1.106M166.42 95.672l1.456-.524v-5.183a.46.46 0 0 1 .465-.466.46.46 0 0 1 .466.466v4.833l2.213-.815V88.8a.46.46 0 0 1 .466-.465.46.46 0 0 1 .466.465v4.834l2.212-.816v-5.182a.46.46 0 0 1 .466-.466.46.46 0 0 1 .466.466v4.833l2.213-.815V86.53a.46.46 0 0 1 .466-.466.46.46 0 0 1 .465.466v4.833l2.213-.816v-5.066a.46.46 0 0 1 .466-.465.46.46 0 0 1 .466.465v4.833l2.213-.815v-5.182a.46.46 0 0 1 .465-.466c.292 0 .466.175.466.466v4.833l2.271-.815V82.57l-18.924 7.046c-.466.174-.932-.059-1.107-.524-.175-.466.058-.932.524-1.107l20.148-7.453a.82.82 0 0 1 .815.116.83.83 0 0 1 .35.7v7.627c0 .35-.234.699-.583.815l-20.439 7.57c-.116.058-.174.058-.29.058a.88.88 0 0 1-.816-.582c-.757-.466-.524-.99-.058-1.164m-.058-.932v-4.193a.46.46 0 0 1 .465-.465.46.46 0 0 1 .466.465v4.193a.46.46 0 0 1-.466.466.5.5 0 0 1-.465-.466m3.028-1.165v-4.192a.46.46 0 0 1 .465-.466c.292 0 .466.175.466.466v4.192a.46.46 0 0 1-.466.466c-.29 0-.465-.175-.465-.466m3.027-1.106v-4.193a.46.46 0 0 1 .466-.465.46.46 0 0 1 .466.465v4.193a.46.46 0 0 1-.466.466.5.5 0 0 1-.466-.466m3.087-1.106V87.17a.46.46 0 0 1 .465-.466.46.46 0 0 1 .466.466v4.193a.46.46 0 0 1-.466.465c-.29-.058-.465-.233-.465-.465m3.086-1.165v-4.193a.46.46 0 0 1 .466-.465.46.46 0 0 1 .466.465v4.193a.46.46 0 0 1-.466.466.46.46 0 0 1-.466-.466m3.028-1.106v-4.193a.46.46 0 0 1 .466-.466.46.46 0 0 1 .465.466v4.193a.46.46 0 0 1-.465.465c-.292-.058-.466-.232-.466-.465m3.086-1.165v-4.193a.46.46 0 0 1 .466-.465.46.46 0 0 1 .466.465v4.193a.46.46 0 0 1-.466.466.46.46 0 0 1-.466-.466m-47.457-40.528 12.286-12.286c.175-.175.408-.233.64-.233.234 0 .467.058.641.233l12.287 12.286c.35.35.35.874 0 1.223-.175.175-.408.233-.64.233-.234 0-.467-.058-.641-.233l-11.646-11.646-11.646 11.646c-.175.175-.408.233-.64.233-.234 0-.467-.058-.641-.233-.35-.291-.35-.874 0-1.223m12.868-5.59-7.919 7.92v6.87a.896.896 0 0 1-.873.874.896.896 0 0 1-.874-.874v-7.22c0-.233.117-.466.233-.64l8.793-8.735c.175-.175.408-.233.64-.233s.466.058.641.233l8.793 8.734c.174.175.233.408.233.64V56.6a.896.896 0 0 1-.874.874.896.896 0 0 1-.873-.874v-6.87zm-3.96 6.58h-.116c-.465 0-.582-.291-.233-.582l3.727-3.727c.175-.175.408-.233.64-.233.234 0 .467.058.641.233l3.727 3.727c.35.35.233.582-.233.582h-3.144v8.21a.896.896 0 0 1-.874.874h-.116a.896.896 0 0 1-.874-.874v-8.21zm-11.529 10.83v-8.326a.77.77 0 0 1 .757-.757h2.912a.77.77 0 0 1 .757.757v7.57h4.658v-7.57a.77.77 0 0 1 .757-.757h2.912a.77.77 0 0 1 .757.757v7.57h4.192v-7.57a.77.77 0 0 1 .757-.757h2.912a.77.77 0 0 1 .757.757v7.57h4.658v-7.57a.77.77 0 0 1 .757-.757h2.912a.77.77 0 0 1 .757.757v9.142a.77.77 0 0 1-.757.757h-29.698a.77.77 0 0 1-.757-.757zm.757 2.97h29.581c.466 0 .874.408.874.874a.896.896 0 0 1-.874.873h-29.581a.896.896 0 0 1-.873-.873c0-.466.407-.874.873-.874m-.873 5.94c0-1.63 1.34-2.912 2.97-2.912.815 0 1.572.35 2.096.874a3 3 0 0 1 2.096-.874c.815 0 1.572.35 2.096.874a3 3 0 0 1 2.097-.874c.815 0 1.572.35 2.096.874a3 3 0 0 1 2.096-.874h.117c.815 0 1.572.35 2.096.874a3 3 0 0 1 2.096-.874c.815 0 1.572.35 2.097.874a3 3 0 0 1 2.096-.874c.815 0 1.572.35 2.096.874a3 3 0 0 1 2.096-.874c1.63 0 2.97 1.281 2.97 2.912v4.542a.896.896 0 0 1-.873.873.896.896 0 0 1-.874-.873v-4.542c0-.64-.524-1.165-1.223-1.165-.698 0-1.222.524-1.222 1.165v4.542a.896.896 0 0 1-.874.873.896.896 0 0 1-.873-.873v-4.542c0-.64-.524-1.165-1.223-1.165s-1.223.524-1.223 1.165v4.542a.896.896 0 0 1-.873.873.896.896 0 0 1-.874-.873v-4.542c0-.64-.524-1.165-1.223-1.165s-1.223.524-1.223 1.165v2.213a.896.896 0 0 1-.873.873h-.116a.896.896 0 0 1-.874-.873v-2.213c0-.64-.524-1.165-1.165-1.165-.64 0-1.164.524-1.164 1.165v2.213a.896.896 0 0 1-.874.873h-.116a.896.896 0 0 1-.873-.873v-2.213c0-.64-.525-1.165-1.223-1.165-.7 0-1.223.524-1.223 1.165v4.542a.896.896 0 0 1-.874.873.896.896 0 0 1-.873-.873v-4.542c0-.64-.524-1.165-1.223-1.165s-1.223.524-1.223 1.165v4.542a.896.896 0 0 1-.873.873.896.896 0 0 1-.874-.873v-4.542c0-.64-.524-1.165-1.222-1.165-.7 0-1.223.524-1.223 1.165v4.542a.896.896 0 0 1-.874.873.896.896 0 0 1-.873-.873zm15.547 3.727h.117c.466 0 .873.407.873.873v2.096h2.038c.466 0 .874.408.874.874a.896.896 0 0 1-.874.873h-2.038v2.096a.896.896 0 0 1-.873.874h-.117a.896.896 0 0 1-.873-.874v-2.096h-2.038a.896.896 0 0 1-.874-.873c0-.466.408-.874.874-.874h2.038V72.73c0-.524.407-.873.873-.873m-.35-2.213v-1.34a.46.46 0 0 1 .467-.465.46.46 0 0 1 .466.466v1.339a.46.46 0 0 1-.466.466c-.291-.059-.466-.233-.466-.466m4.252 3.028v-4.367a.46.46 0 0 1 .465-.466.46.46 0 0 1 .466.466v4.367a.46.46 0 0 1-.466.466.5.5 0 0 1-.465-.466m-7.628 0a.46.46 0 0 1-.466.466.46.46 0 0 1-.466-.466v-4.367a.46.46 0 0 1 .466-.466.46.46 0 0 1 .466.466zm.465 6.172 1.63 1.63c.292.35.35.874.059 1.223l-12.81 15.49c-.292.349-.525.232-.525-.175V79.076c0-.466.35-.815.816-.815h9.433c.466 0 1.048.233 1.397.582m.583 8.676-8.269 23.7c-.291.873-1.281 1.572-2.213 1.572h-1.863c-.932 0-1.281-.64-.874-1.456l12.928-23.932c.524-.757.64-.757.29.116m-6.347 23.7 7.395-23.7c.29-.873.407-.815.29.059l-2.852 23.583c-.117.873-.932 1.63-1.864 1.63h-1.863c-.815 0-1.34-.699-1.106-1.572m8.909-23.583c.058-.582.116-.757.174-.64.059-.175.175.058.175.64l2.271 23.525c.117.931-.582 1.63-1.514 1.63h-1.921c-.932 0-1.573-.757-1.514-1.63zm1.572-.058c-.116-.874 0-.932.291-.059l7.395 23.7c.291.873-.233 1.572-1.164 1.572h-1.864c-.931 0-1.747-.757-1.863-1.63zm1.34-.059c-.292-.873-.175-.931.232-.116l12.927 23.932c.408.816.058 1.456-.873 1.456h-1.864c-.931 0-1.921-.699-2.212-1.572zm-.99-5.823a.9.9 0 0 1 .058-1.222l1.63-1.63c.291-.35.932-.583 1.398-.583h9.433c.466 0 .815.35.815.815v17.935c0 .466-.233.524-.524.175zm13.043-5.124h-8.56a.896.896 0 0 1-.873-.873c0-.466.407-.874.873-.874h8.56c.466 0 .873.408.873.874a.896.896 0 0 1-.873.873m-6.755-3.901v-4.367a.46.46 0 0 1 .466-.466.46.46 0 0 1 .466.466v4.367a.46.46 0 0 1-.466.466.5.5 0 0 1-.466-.466m4.193 0v-4.367a.46.46 0 0 1 .466-.466.46.46 0 0 1 .465.466v4.367a.46.46 0 0 1-.465.466.5.5 0 0 1-.466-.466m-20.206-4.367v4.367a.46.46 0 0 1-.466.466.46.46 0 0 1-.466-.466v-4.367a.46.46 0 0 1 .466-.466c.233.058.466.233.466.466m-4.193 0v4.367a.46.46 0 0 1-.465.466.46.46 0 0 1-.466-.466v-4.367a.46.46 0 0 1 .466-.466c.233.058.465.233.465.466m-2.562 6.521h8.56c.466 0 .874.408.874.874a.896.896 0 0 1-.874.873h-8.56a.896.896 0 0 1-.873-.873c0-.524.407-.874.873-.874m-2.445 14.79-18.983-7.045v5.765l2.27.815v-4.833a.46.46 0 0 1 .467-.466.46.46 0 0 1 .465.466v5.124l2.213.815v-4.775a.46.46 0 0 1 .466-.465.46.46 0 0 1 .466.465v5.125l2.213.815v-4.833a.46.46 0 0 1 .465-.466.46.46 0 0 1 .466.466v5.124l2.213.815v-4.833a.46.46 0 0 1 .466-.466.46.46 0 0 1 .466.466v5.183l2.212.815v-4.833a.46.46 0 0 1 .466-.466c.291 0 .466.175.466.466v5.182l2.213.815v-4.833a.46.46 0 0 1 .466-.466.46.46 0 0 1 .465.466v5.183l1.456.524c.466.175.699.699.524 1.106a.88.88 0 0 1-.815.582c-.116 0-.175 0-.291-.058l-20.439-7.57a.88.88 0 0 1-.582-.815v-7.628c0-.291.116-.582.35-.699.232-.174.523-.174.815-.116l20.147 7.453c.466.175.699.699.524 1.107-.699.465-1.164.698-1.63.524m.99.932v4.193a.46.46 0 0 1-.466.466.46.46 0 0 1-.466-.466v-4.193a.46.46 0 0 1 .466-.465c.233.058.466.232.466.465m-3.028-1.106v4.193a.46.46 0 0 1-.466.465.46.46 0 0 1-.466-.465V89.44a.46.46 0 0 1 .466-.466c.29 0 .466.175.466.466m-3.028-1.165v4.193a.46.46 0 0 1-.466.466.46.46 0 0 1-.466-.466v-4.193a.46.46 0 0 1 .466-.465c.233.058.466.232.466.465m-3.087-1.106v4.193a.46.46 0 0 1-.465.465.46.46 0 0 1-.466-.465V87.17a.46.46 0 0 1 .466-.466.46.46 0 0 1 .465.466m-3.086-1.165v4.193a.46.46 0 0 1-.466.466.46.46 0 0 1-.465-.466v-4.193a.46.46 0 0 1 .465-.465c.292.058.466.233.466.465m-3.028-1.106v4.193a.46.46 0 0 1-.465.465.46.46 0 0 1-.466-.465v-4.193a.46.46 0 0 1 .466-.466c.232 0 .465.233.465.466m-3.086-1.165v4.193a.46.46 0 0 1-.466.466.46.46 0 0 1-.465-.466v-4.193a.46.46 0 0 1 .465-.465c.291.058.466.233.466.465m15.198 15.955 2.213.816a.7.7 0 0 1 .291.29c.058.117 0 .292-.058.408l-4.833 5.94v-5.066zm-2.445 1.165v-2.038l1.513.582zm-15.49-8.967c-.233-.059-.349-.35-.233-.583.059-.233.35-.349.583-.233l20.73 7.687c.232.058.349.35.232.582a.44.44 0 0 1-.407.291h-.175zm11.122 13.334v-4.367l2.679-2.679.815.292v3.26zm3.494-2.27v5.298l-2.62 3.203c-.059.116-.233.175-.35.175h-.058l-.466-.117v-5.008zm-3.494-5.824 1.747.64-1.747 1.748zm-4.367 12.462v-4.368l3.494-3.494v4.368zm3.494-2.271v4.017l-3.378-.64zm-3.494-3.378v-4.367l2.97-2.97.524.175v3.61zm0-8.385 2.038.757-2.038 2.038zm-4.367 12.81v-4.367l3.494-3.493v4.367zm3.494-2.27v4.367l-.059.058-3.435-.64v-.291zm-3.494-12.17 2.329.873-2.33 2.33zm0 8.792V98.35l3.144-3.144s0-.058.058-.058l.292.116v4.018zm-4.367 5.59 3.493-3.493v4.367l-.407.408-3.086-.583zm-.059-15.43c0-.059-.058-.059-.058-.117.932 0 1.805.175 2.679.466l-2.62 2.62c.058-2.853.058-2.911 0-2.97m.059 14.208v-4.368l3.493-3.493v4.367zm0-5.59v-4.368l3.493-3.493V98zm1.455-23.001c.175-.466.7-.699 1.107-.524l19.973 7.395c.465.175.698.699.524 1.106a.88.88 0 0 1-.816.583c-.116 0-.174 0-.29-.059L112.848 79.6c-.407-.175-.64-.699-.524-1.106m-2.504-3.552 9.375-18.168c.059-.116.175-.233.292-.233s.29 0 .349.117l13.626 12.577a.457.457 0 0 1 0 .64.457.457 0 0 1-.64 0l-13.16-12.17-8.852 17.179 22.885 8.501c.233.058.349.35.233.582a.44.44 0 0 1-.408.292h-.175l-23.35-8.677c-.116-.058-.233-.116-.233-.233 0-.174 0-.29.058-.407m21.021 3.144v-2.678l2.446-1.573v2.679zm2.446-.582v4.134c0 .117-.058.291-.175.35-.058.058-.174.058-.233.058h-.174l-1.864-.699v-2.271zm-2.446-3.145v-2.736l1.747-1.107.583.524c.116.059.116.175.116.35v1.397zm0-3.784v-1.69l1.049.99zm-3.319 9.607-.407-.174v-2.271l2.853-1.805v2.678zm2.446-.524v1.398l-1.398-.524zm-2.853-2.911V74.01l2.853-1.805v2.737zm0-3.785V70.4l2.853-1.805v2.562zm0-3.61v-2.679l.757-.466 1.688 1.573zm-3.261 9.491-.408-.175V76.34l2.853-1.805v2.737zm2.445-.524v1.398l-1.397-.524zm-2.853-3.028V72.73l2.853-1.805v2.562zm0-3.552v-2.678l2.853-1.806v2.679zm0-3.668v-2.62l2.096-1.34.757.699v1.456zm0-3.669V62.19l1.456 1.34zm-3.319 13.044-.35-.117v-2.213l2.854-1.805v2.562zm2.446-.524v1.455l-1.456-.524zm-2.795-2.795v-2.679l2.853-1.805v2.678zm0-3.727v-2.62l2.853-1.806v2.62zm0-3.61v-2.62l2.853-1.806v2.62zm0-3.669v-3.785c.058-.058.116-.116.233-.116.116 0 .29 0 .349.116l2.213 1.98zm-3.203 13.044-.466-.175v-2.155l2.854-1.805v2.679zm2.33-.466v1.339l-1.34-.466zm-2.854-2.912v-2.62l2.853-1.805v2.62zm0-3.668v-2.62l2.853-1.806v2.62zm.757-4.076 2.096-4.076v2.736zm-3.901 9.782-.524-.174c-.117-.059-.233-.117-.233-.233a.37.37 0 0 1 0-.35l1.048-1.98 2.038-1.339v2.62zm2.329-.466v1.34l-1.281-.466zm-1.281-3.9 1.223-2.388v1.63zm-3.902 22.36c-.058.058-.058.174-.058.232v3.669l-3.494 3.494v-6.231a8 8 0 0 1 3.552-1.165m-3.552 8.617 3.494-3.493v4.367l-3.494 3.494zm-.873 5.3-.175.174a7.4 7.4 0 0 1-1.921-2.504l2.096-2.096zm0-5.649-2.504 2.504c-.291-.874-.466-1.747-.466-2.737a8.02 8.02 0 0 1 2.97-6.23zm.873 5.998 3.494-3.494v4.367l-.815.815c-.99-.174-1.863-.582-2.679-1.048zm2.504 3.726c.058-.466.524-.815.99-.698l16.013 2.795c.466.058.816.524.7.99-.06.407-.467.698-.874.698h-.175l-16.013-2.795c-.408-.058-.699-.466-.64-.99m17.586 5.882h-.059l-16.013-2.795c-.233-.059-.407-.292-.35-.525.059-.232.292-.407.525-.349l16.013 2.795c.233.058.408.291.35.524-.117.175-.292.35-.466.35m.407 1.688v6.638q0 .175-.174.35a.45.45 0 0 1-.292.116h-.058l-16.013-2.795c-.233-.058-.35-.233-.35-.407v-6.58q0-.175.175-.35c.117-.058.233-.116.35-.116l16.013 2.795c.233 0 .35.175.35.35m.175 8.618c-.058.408-.466.699-.874.699h-.174l-15.431-2.679c-.466-.058-.815-.524-.699-.99.058-.465.524-.815.99-.698l15.43 2.678c.525.117.816.524.758.99m-.466-15.489 19.041-23.932c.583-.7.64-.64.175.116l-14.208 23.758c-.466.757-1.572 1.397-2.504 1.397h-1.922c-.873-.058-1.164-.64-.582-1.339m45.478 20.322a.896.896 0 0 1-.874.874H128.98a.896.896 0 0 1-.873-.874v-9.491c0-1.63 1.339-2.912 2.97-2.912.815 0 1.572.35 2.096.874a3 3 0 0 1 2.096-.874c.815 0 1.572.35 2.096.874a3 3 0 0 1 2.096-.874c.816 0 1.573.35 2.097.874a3 3 0 0 1 2.096-.874c.815 0 1.572.35 2.096.874a3 3 0 0 1 2.096-.874c.932 0 1.747.408 2.271 1.048.525-.64 1.34-1.048 2.271-1.048.816 0 1.573.35 2.097.874a3 3 0 0 1 2.096-.874c.815 0 1.572.35 2.096.874a3 3 0 0 1 2.097-.874c.815 0 1.572.35 2.096.874a3 3 0 0 1 2.096-.874c.815 0 1.572.35 2.096.874a3 3 0 0 1 2.097-.874c1.63 0 2.97 1.281 2.97 2.912v9.491zm-.233-13.684h-43.614a.46.46 0 0 1-.466-.466.46.46 0 0 1 .466-.465h43.613a.46.46 0 0 1 .466.465.5.5 0 0 1-.465.466m0-1.863h-43.614a.896.896 0 0 1-.874-.874c0-.465.408-.873.874-.873h43.613c.466 0 .874.408.874.873 0 .466-.35.874-.873.874m-.874-3.494c-.931 0-2.038-.64-2.504-1.397l-14.208-23.758c-.466-.757-.407-.815.175-.117l19.041 23.933c.582.699.291 1.28-.64 1.28zm18.692 1.107-16.013 2.795h-.058c-.233 0-.408-.175-.408-.35-.058-.233.116-.466.35-.524l16.013-2.795c.232-.058.465.117.524.35a.56.56 0 0 1-.408.524m.408 1.688v6.58c0 .233-.175.408-.35.408l-16.013 2.795h-.058c-.117 0-.175-.058-.291-.117-.117-.058-.175-.233-.175-.349v-6.638c0-.233.175-.408.35-.408l16.013-2.795c.116 0 .232 0 .349.117.116.174.175.29.175.407m-.583 9.433-15.43 2.679h-.175c-.408 0-.757-.291-.874-.699-.058-.466.233-.931.699-.99l15.43-2.678c.467-.058.933.233.99.699.117.465-.174.931-.64.99m.932-13.16-16.013 2.796h-.175c-.408 0-.757-.292-.873-.7-.059-.465.233-.93.698-.99l16.014-2.794c.465-.058.931.233.99.699.174.465-.175.873-.641.99m.582-3.086-.815-.815v-4.367l3.494 3.494v.64c-.815.466-1.689.874-2.679 1.048m3.785-1.863-.175-.175v-4.367l2.097 2.096a10 10 0 0 1-1.922 2.446m2.271-3.32-2.504-2.503v-6.464a8.02 8.02 0 0 1 2.97 6.231c0 .932-.175 1.863-.466 2.737"></path></g><g fill="#fff" data-source="https://football-logos.cc"><path d="M107.201 310.656c-1.63-.99-3.552-1.34-3.96-1.34h-.116c.116.408.35 1.165 1.048 1.98.757.932 2.504 2.563 5.3 2.563.232 0 .523 0 .814-.059v-.116c-.116-.233-.931-1.747-3.086-3.028M202.116 279.736c3.96-.873 6.813-1.689 8.85-3.203.35-.29.932-.815.932-1.747 0-1.106-.873-1.98-2.096-2.038h-1.223c-.815 0-3.202 0-3.377-2.387-.058-1.456 1.28-2.62 2.562-3.727.524-.407 1.048-.873 1.397-1.28.466-.525.7-1.224.7-2.039 0-1.747-1.456-3.202-3.203-3.202-.757 0-1.514.29-2.271.931-2.62 2.213-3.61 3.086-4.542 3.96-.815.757-1.689 1.164-2.562 1.164-.64 0-2.271-.29-3.087-2.736-.174-.583-.64-1.281-2.329-1.281-1.048 0-1.98.582-2.911 1.747-1.398 1.863-1.922 3.377-2.62 5.473-.234.757-.525 1.63-.932 2.562-1.223 3.203-2.912 4.95-4.775 4.95-1.106 0-2.155-.583-3.086-1.747-.408-.524-1.281-1.34-2.562-1.34-2.038 0-2.854 2.097-3.145 3.378-.35 1.34-2.154 8.385-6.347 12.053-3.319 2.912-7.512 5.474-13.043 7.978.64.233 1.28.524 1.921.757 5.24-2.096 9.725-3.61 14.325-4.25a36 36 0 0 1 4.775-.292c.99 0 2.038 0 3.144.058 1.165 0 2.33.058 3.61.058 2.038 0 3.727-.058 5.416-.232 6.696-.583 9.258-2.097 11.005-3.61.524-.467.815-.99.815-1.515s-.174-.931-.466-1.222l-.058-.059c-.699-.64-1.747-1.572-1.63-3.202.29-2.097 2.911-3.087 6.813-3.96m-7.803-4.193c-.524.466-1.106.932-1.689 1.398-1.397 1.165-2.853 2.213-4.367 3.32a101 101 0 0 1-4.542 2.969c-.408.233-.815.466-1.281.757.582.35 1.223.699 1.863.99.932.466 1.922.873 2.912 1.164 1.98.64 4.134 1.048 6.23 1.107-2.154.174-4.309-.059-6.405-.524-1.048-.233-2.096-.583-3.086-.932-.932-.35-1.805-.699-2.679-1.165-.815.466-1.572.874-2.387 1.281-3.26 1.63-6.638 3.028-10.132 4.018a163 163 0 0 0 9.433-5.182c1.514-.932 3.086-1.864 4.542-2.853 1.514-.99 2.97-1.98 4.426-3.028.29-.175.582-.408.873-.64.291-1.748.64-3.437 1.048-5.183.524-2.038 1.048-4.018 1.98-5.94-.699 1.98-1.106 4.018-1.397 6.056-.175 1.398-.35 2.853-.466 4.25.757-.581 1.572-1.164 2.329-1.746 1.456-1.048 2.853-2.213 4.25-3.32 2.796-2.27 5.532-4.6 8.211-7.045-2.154 2.912-4.658 5.59-7.337 8.036-.408.407-.873.757-1.281 1.164 1.514.175 3.028.291 4.542.408 1.922.116 3.843.116 5.823.058a94 94 0 0 1-5.823.524c-1.747.058-3.669.117-5.59.058"></path><path d="M143.129 300.99a178 178 0 0 1-6.697 2.27c-11.121 3.553-21.603 5.59-31.094 5.999.058 0 .116 0 .174.058.932.233 1.806.524 2.62.99a10.8 10.8 0 0 1 2.272 1.747c.35.349.64.757.873 1.339.058.058.058.175.058.291 1.456-.291 12.345-2.62 31.037-10.54.757-.349 1.514-.64 2.27-.99-.057-.64-.756-.99-1.513-1.164M273.505 130.26c.233-.175.292-.815.233-1.514-.524.582-1.048 1.165-1.572 1.863.408 0 .874-.058 1.34-.349M257.958 99.34c-.757 0-1.514.291-2.038.874-.524.524-.757 1.164-.757 1.863 0 .35 0 .699.058 1.106.117 2.853.35 6.406-1.863 7.279-2.096.873-3.203-.582-3.901-1.514-.233-.291-.7-.466-1.34-.466-1.223 0-1.921 1.048-1.98 2.096-.116 1.63.117 2.97 1.922 5.183a20 20 0 0 0 2.096 2.213c1.048.99 1.98 1.863 1.98 3.144 0 1.747-1.397 2.446-2.387 2.912-.233.116-.524.232-.816.407-.757.466-1.63 1.223-1.63 2.33q0 1.047.699 1.746c.174.175.35.408.466.64.349.641.698 1.282.99 1.922.582 1.165 1.106 2.271 1.746 2.737s1.864.291 2.795-.757c.816-.873 2.038-1.397 3.378-1.397.815 0 1.572.233 2.27.582.292-2.388.525-4.775.641-7.162-.524-.466-.99-.932-1.455-1.456-.525-.582-1.049-1.165-1.514-1.805-.932-1.281-1.747-2.62-2.33-4.018.757 1.34 1.747 2.562 2.795 3.668a45 45 0 0 0 1.69 1.573c.29.233.581.465.93.698v-1.397c0-1.922-.116-3.902-.29-5.823-.175-1.922-.466-3.843-.816-5.823.466 1.921.932 3.785 1.281 5.706.35 1.922.64 3.902.816 5.823.349 3.902.174 6.639-.233 10.89.582.815.931 2.27.931 3.086v.174c.059 1.572.175 3.61.932 4.484.175-.35.291-.699.466-1.048.35-.699.699-1.456 1.106-2.155.233-.35.466-.698.699-.99.116-.174.233-.29.35-.465.116-.117.29-.35.465-.525a5.03 5.03 0 0 1 2.213-1.28c1.048-3.844 3.203-6.29 4.309-7.512.466-.466.815-.874 1.106-1.223.466-.582.64-.99.64-1.456 0-1.164-1.047-1.805-2.037-1.921-.699-.059-1.34.29-1.98.64-.932.524-2.038 1.165-3.26.466a2.46 2.46 0 0 1-1.282-1.63c-.233-1.34.699-2.854 3.086-5.358 1.398-1.455 2.33-3.61 2.33-5.357 0-1.223-.99-2.212-2.213-2.212-.524 0-.99.174-1.281.407-1.34 1.106-2.446 1.747-3.902 1.572-1.63-.233-2.678-1.805-2.795-4.192 0-.524-.058-1.048-.058-1.572 0-1.223-.058-2.504-.233-3.436-.35-1.456-1.28-2.27-2.795-2.27"></path><path d="M262.733 101.436c.233 1.107.233 2.504.291 3.785 0 .524 0 1.048.058 1.514.059 1.281.466 2.155.99 2.213.583.058 1.048-.058 2.096-.932.641-2.154 1.282-4.25 2.039-6.405-.292-.582-.583-1.106-.816-1.689a25 25 0 0 1-.815-2.212 20.7 20.7 0 0 1-.873-4.6q.436 2.27 1.397 4.367c.291.698.64 1.397 1.048 2.038.175.29.35.524.524.815.233-.64.466-1.223.7-1.863.581-1.63 1.28-3.203 1.92-4.833.7-1.573 1.398-3.145 2.213-4.659a68 68 0 0 0-1.746 4.833c-.525 1.63-.99 3.261-1.456 4.95a127 127 0 0 0-1.864 8.152c.175 0 .408-.058.583-.058 2.329 0 4.25 1.921 4.25 4.25 0 2.271-1.164 4.95-2.911 6.755-2.504 2.562-2.562 3.436-2.562 3.61 0 .059.116.117.175.175.233.117.64-.058 1.339-.466.873-.466 1.921-1.048 3.203-.931v-.99c0-1.34.64-2.562 1.688-3.32-.116-1.863.815-3.377 3.145-5.007 2.562-1.747 4.017-3.028 5.007-4.251.524-.64.757-1.165.757-1.689 0-.64-.29-1.222-.698-1.688-.408-.408-.99-.64-1.514-.583-1.922.059-2.97-.233-3.61-1.048-.175-.233-1.69-2.212 1.164-4.542 1.98-1.63 2.504-2.212 2.97-2.853.407-.64.815-1.223.815-1.689 0-.873-.699-1.572-1.63-1.63-1.049-.058-1.98-.408-2.504-1.048a2.13 2.13 0 0 1-.524-1.63c.058-.874.524-1.69.931-2.563.582-1.164 1.223-2.329 1.165-3.785-.058-1.164-.932-2.038-1.98-2.038-.408 0-1.456.233-2.213 2.388-.29.931-.815 1.514-1.514 1.747-.698.233-1.397.058-2.212-.524l-.117-.059c-.466-.35-.873-.64-1.281-.64-.524 0-1.165.29-1.456.699-.233.349-.174.582-.174.64.465 1.922.407 3.203-.175 4.018-.64.873-1.689.932-2.096.99-.932.058-1.573-.466-1.98-.815-.35-.292-.466-.408-.699-.408-.466 0-.64.175-.64.233-.175.175-.35.699-.292 1.922.059.815.117 1.28.117 1.63.058.524.058.99.175 2.213.174 2.27-.408 3.96-1.514 4.95.465.64.873 1.513 1.106 2.561M241.246 91.945c.524.291.99.582 1.456.815 1.28.64 2.446 1.223 2.795 2.679.35 1.397-.291 3.086-2.096 3.96.058.058.058.116.116.174l.524.99.117.233.058.058c0 .058.058.116.058.116s.058.117.117.117c.174.175.465.175.757 0 .174-.117.29-.233.407-.466l.233-.466c.117-.233.233-.407.408-.582.582-.699 1.397-1.281 2.329-1.514.466-.116.99-.116 1.397-.116.233 0 .408.058.64.058-.174-2.33-.407-4.717-.814-7.046-.524-2.912-1.107-5.823-1.922-8.676 1.165 2.737 2.096 5.59 2.97 8.443.757 2.679 1.397 5.357 1.863 8.152.35.233.64.583.874.874.058.058.116.174.174.233.233-.466.524-.874.874-1.281a4.89 4.89 0 0 1 3.494-1.456c.64 0 1.222.116 1.805.29.582-.232.873-.698 1.106-1.28h-.116c-.059-.35-.641-.757-1.165-1.165-.291-.233-.64-.466-.932-.757-1.455-1.339-1.28-2.504-.64-4.95.757-2.736.99-3.784.815-5.706-.058-.64-.466-1.28-1.223-1.28-.407 0-.757.174-.932.465-1.28 1.98-2.562 2.271-3.377 2.155-1.106-.175-1.98-1.049-2.446-2.446-.349-1.165-1.048-3.145-1.746-4.6-.466-.99-1.398-1.63-2.446-1.63-1.456 0-2.562 1.164-2.679 2.736-.058 1.048.175 1.747.524 2.737.175.407.292.873.466 1.397.408 1.223.874 2.912 0 4.193-.582.757-1.514 1.165-2.911 1.165-.99 0-1.805.815-1.805 1.805-.117.873.582 1.397.873 1.572"></path><path d="M235.132 114.014q0 .698.524 1.223c.35.35.815.699 1.398.99.582.29 1.164.466 1.98.815.349.175.756.35 1.106.64.35.292.757.641 1.048 1.223.291.524.35 1.34.175 1.864-.175.582-.466.99-.7 1.339-.523.64-.99 1.106-1.106 1.514-.174.291-.116.815.059 1.164.174.408.524.7 1.048.932.233.117.524.175.757.233l.582.117.582.116 2.795.699v-.117c0-1.63.932-3.086 2.62-4.076.35-.174.641-.35.932-.466 1.049-.524 1.223-.698 1.223-1.106s-.466-.873-1.339-1.689c-.64-.64-1.456-1.397-2.33-2.445-1.455-1.805-2.037-3.261-2.27-4.6h-.058a52 52 0 0 1-2.563-5.066 50 50 0 0 1-1.106-2.62c-.35-.874-.64-1.806-.815-2.738.35.874.815 1.69 1.281 2.504.466.816.99 1.572 1.514 2.33.582.873 1.223 1.688 1.863 2.503.524-1.747 2.038-2.911 3.843-2.911 1.223 0 2.33.466 2.912 1.28.815 1.107.99 1.107 1.514.874.815-.349.64-3.96.582-5.299v-.058c-.116-.233-.174-.407-.29-.64-.176-.291-.292-.583-.467-.874l-.29-.407c-.06-.117-.176-.233-.292-.35-.408-.407-.757-.698-1.281-.815-.466-.116-1.165-.175-1.572-.058-.466.116-.874.407-1.223.815a1.3 1.3 0 0 1-.233.291l-.291.466a3.15 3.15 0 0 1-1.048 1.106c-.466.292-.99.524-1.63.524-.583 0-1.224-.232-1.631-.582-.233-.175-.408-.407-.583-.64-.058-.059-.058-.117-.058-.117l-.058-.175-.116-.232-.525-.932c-.349-.582-.698-1.223-1.106-1.805l-.291-.466a.46.46 0 0 0-.233-.233 2.1 2.1 0 0 0-.582-.408c-.233-.116-.466-.174-.699-.233h-.757c-.466.059-.932.292-1.223.641-.35.35-.582.815-.699 1.34a4.1 4.1 0 0 0 0 1.688c.175 1.048.99 2.154 1.806 3.32.407.581.873 1.222 1.222 2.154.175.465.233 1.106.117 1.688-.117.583-.408 1.048-.699 1.456-.582.757-1.223 1.223-1.863 1.689-.524.349-.932.757-1.165 1.222-.116.233-.233.466-.291.7-.058.116-.058.232-.058.349v.29100000000000004zM252.368 145.109c.175-.117.35-.175.524-.291a4.53 4.53 0 0 1 2.912-.117c.465.117.873.35 1.28.582.35.233.758.524.99.7.525.407 1.049.64 1.398.581.35 0 .757-.29 1.165-.757.407-.465.698-1.106 1.048-1.746.174-.35.35-.757.524-1.107-1.922-1.164-2.038-4.018-2.096-6.347v-.175c-.059-1.572-1.223-2.736-2.679-2.736a2.6 2.6 0 0 0-1.863.757c-1.573 1.747-3.96 2.154-5.532.99-.99-.757-1.63-2.038-2.33-3.494-.29-.583-.582-1.223-.931-1.805-.582-.99-2.038-1.398-3.26-1.398-1.69 0-3.029 1.398-3.087 3.086 0 1.98.116 2.33 1.397 4.95l.175.35c1.223 2.561 2.97 5.997-.699 8.734q-1.746 1.31-1.747 2.795c0 1.339.874 2.212 1.398 2.562.466.35 1.223.582 1.98.815 1.747.524 4.192 1.223 4.367 4.193.116 1.746-.99 2.911-2.096 3.61.058.116.174.175.233.291.233.233.582.64 1.048.524.407-.116.815-.64.931-1.572.233-2.155.583-4.717 2.737-5.648-.116-.583-.233-1.107-.29-1.69a17 17 0 0 1 0-2.445c0-.407.116-.873.232-1.339.117-.466.35-.873.582-1.281.059-.117.175-.175.233-.291a65 65 0 0 1-3.435-6.23c-1.165-2.388-2.155-4.834-3.086-7.338a99 99 0 0 0 3.96 6.813c1.338 1.922 2.62 3.727 4.017 5.474"></path><path d="M245.905 189.189c-.525-.874-1.049-1.747-1.63-2.562-1.166-1.69-2.447-3.261-3.902-4.659 1.63 1.223 3.086 2.737 4.367 4.31.64.814 1.281 1.63 1.863 2.445l.699 1.048c.35-.699.815-1.34 1.223-1.98.407-.524 1.456-1.98 3.202-2.387a25 25 0 0 0-.99-3.378 51 51 0 0 0-1.746-4.076l-1.98-4.076c-.64-1.397-1.281-2.795-1.747-4.425a4.7 4.7 0 0 1-.175-1.34v-.6399999999999999c0-.233.059-.408.059-.64.116-.816.29-1.69.757-2.504.232-.408.524-.874.99-1.223s1.106-.583 1.688-.524c.291 0 .582.058.815.116l.175.058c.058.059.175.059.233.117.116.058.291.116.408.233.465.35.756.698.99.99.232.29.465.524.64.64.175.117.291.175.466.175h.35c.116 0 .232-.058.29-.058.117-.059.117-.059.175-.233s.058-.408 0-.757c-.058-.291-.116-.64-.175-.99-.174-.699-.407-1.398-.64-2.096-.233-.7-.466-1.456-.699-2.213l-.64-2.155c-.059-.29-.175-.582-.233-.873-.757.524-.99 1.747-1.223 3.843-.175 1.63-1.107 2.911-2.388 3.26-1.106.35-2.329-.116-3.202-1.164-.874-1.048-1.689-1.514-2.562-1.514-1.573 0-2.795 1.223-2.854 2.912-.116 2.27.466 3.377 1.573 5.415l.29.582c.292.583.641 1.107.932 1.63 1.34 2.33 2.62 4.543 1.63 6.58-.814 1.573-2.445 1.69-3.668 1.806-.29 0-.582.058-.815.058-1.456.233-2.62 1.805-2.62 3.61 0 2.737.407 6.813 3.61 14.558a76 76 0 0 0 5.24 4.484c.234-4.484.932-7.861 2.213-10.656a19 19 0 0 1-.99-1.747M219.643 252.368c-1.572 1.514-3.203 2.97-4.833 4.425-1.34 1.165-2.679 2.271-4.018 3.436.699.873 1.106 2.038 1.106 3.26v.234c11.472-.64 15.14-4.31 16.363-5.532l.175-.175c.64-.64.931-1.164.931-1.63 0-.757-.466-1.398-1.223-1.805-1.222-.583-1.98-2.097-1.63-3.494.233-1.106 1.281-2.33 3.377-2.33 1.34 0 2.912-.29 4.31-.698a157 157 0 0 1-6.697-4.018c-2.388 2.853-5.066 5.648-7.861 8.327M73.37 250.97c.349 1.398-.408 2.912-1.63 3.494-.758.35-1.224 1.048-1.224 1.805 0 .524.291.99.932 1.63l.175.176c1.222 1.222 4.891 4.89 16.362 5.531v-.233c0-1.222.408-2.329 1.107-3.26-1.34-1.107-2.679-2.271-4.018-3.436-1.63-1.456-3.261-2.911-4.833-4.425-2.795-2.679-5.416-5.416-7.92-8.386a157 157 0 0 1-6.696 4.018c1.456.466 2.97.7 4.309.7 2.155.116 3.144 1.28 3.436 2.386M62.655 249.573c.35.233.699.466 1.048.757.233.175.583.233.932.175s.699-.233.932-.408c-.815-.233-1.572-.524-2.33-.815-.174.058-.349.175-.582.291M81.114 245.206c.699.174 1.34-.408 2.388-1.98.524-.874 1.28-1.456 2.154-1.863.058-.99.175-1.864.233-2.679.175-2.038.35-3.494.058-4.717a149 149 0 0 1-5.881 4.717c.233 1.165.291 2.33.35 3.436 0 1.805.058 2.911.698 3.086"></path><path d="M86.005 255.57c.35.234.641.466.99.758-.058-.175-.058-.408-.116-.583-.175-.931-.233-1.863-.291-2.795-.058-1.863.116-3.726.64-5.473-.35 1.805-.35 3.61-.058 5.415.116.874.291 1.747.582 2.62.175.583.408 1.223.64 1.806.758.524 1.457 1.048 2.214 1.572q1.135-.699 2.62-.699c.582 0 1.165.116 1.747.291.116-.932-.058-2.096-.466-3.552-.233-.757-.408-1.34-.582-1.863-.524-1.572-.816-2.62-.932-4.251v-.291c-.99-1.864-1.922-3.494-3.26-4.6-.7-.583-1.398-.816-2.272-.816s-1.688.466-2.154 1.282c-.7 1.106-2.213 3.493-4.6 2.853-2.213-.524-2.271-2.912-2.33-5.066 0-.699-.058-1.398-.116-2.155-1.863 1.34-3.785 2.679-5.707 3.902 2.679 2.736 5.532 5.24 8.502 7.686 1.572 1.34 3.26 2.679 4.95 3.96M207.007 248.467v.29c-.116 1.631-.466 2.68-.932 4.252-.174.524-.35 1.164-.582 1.863-.466 1.456-.582 2.678-.466 3.552.582-.233 1.165-.291 1.747-.291q1.398 0 2.62.699c.7-.466 1.398-.99 2.097-1.456.233-.583.466-1.281.64-1.922.233-.873.408-1.747.583-2.62.232-1.805.232-3.61-.059-5.416.524 1.747.757 3.61.64 5.474-.057.932-.116 1.863-.29 2.795-.059.233-.059.466-.117.699.35-.291.757-.524 1.107-.815a111 111 0 0 0 5.124-4.018 96 96 0 0 0 8.501-7.687c-1.921-1.222-3.843-2.562-5.706-3.9-.058.698-.117 1.455-.117 2.154-.058 2.096-.116 4.483-2.329 5.066-2.387.582-3.901-1.747-4.6-2.854-.524-.815-1.281-1.28-2.154-1.28-.874 0-1.573.232-2.271.814-1.514 1.165-2.446 2.737-3.436 4.6"></path><path d="M214.286 241.363c.873.349 1.63.99 2.154 1.863.99 1.63 1.689 2.154 2.388 1.98.64-.175.698-1.281.757-3.145.058-1.106.058-2.27.349-3.435a149 149 0 0 1-5.881-4.717c-.291 1.223-.175 2.679.058 4.717 0 .873.116 1.747.175 2.737M236.18 250.33c.35-.291.699-.524 1.048-.757-.233-.116-.407-.233-.64-.35-.757.292-1.514.583-2.33.816.292.175.641.35.932.407.408.117.757.059.99-.116M206.134 245.788c.815-1.34 1.63-2.504 2.795-3.494.99-.815 2.038-1.223 3.26-1.28-.058-.758-.116-1.515-.174-2.155-.233-2.562-.466-4.542.29-6.347-.232-.233-.523-.466-.756-.7-2.33 4.31-5.066 8.27-8.21 11.996.931.233 1.746.757 2.387 1.456a3.2 3.2 0 0 1 .408.524M192.624 256.095c.524 0 .932-.233 1.34-.757.873-1.165 1.397-2.446 1.921-3.96a62 62 0 0 1-4.891 3.902c.407.465 1.048.815 1.63.815"></path><path d="M183.657 271.234c.35-.931.64-1.688.873-2.503.757-2.213 1.34-3.96 2.97-6.056 1.281-1.689 2.795-2.562 4.542-2.562 2.737 0 3.843 1.455 4.25 2.678.117.408.525 1.34 1.165 1.34.35 0 .757-.233 1.165-.641.932-.874 1.98-1.805 4.6-4.018q-.612-2.01.35-5.24c.232-.758.407-1.398.582-1.922.466-1.514.757-2.388.873-3.785.058-.699-.233-1.398-.699-1.98-.582-.64-1.455-.99-2.329-.99h-.174c-.874.99-1.806 1.922-2.737 2.853l-.175.524-.116.292c-.874 2.853-1.63 5.066-3.087 7.162-.757 1.048-1.805 1.63-2.97 1.63-1.222 0-2.503-.64-3.318-1.688-.64.407-1.223.815-1.864 1.222-1.456.932-2.911 1.747-4.425 2.563-.757 2.329-1.63 6.929-.757 13.625.35-.465.815-1.397 1.28-2.504M94.915 248.641c.116 1.398.349 2.213.873 3.785.175.524.35 1.165.582 1.922q.96 3.231.35 5.24c2.62 2.213 3.668 3.145 4.6 4.018.407.408.815.64 1.164.64.641 0 .99-.93 1.165-1.338.408-1.223 1.456-2.679 4.25-2.679 1.69 0 3.203.873 4.543 2.562 1.63 2.096 2.213 3.843 2.97 6.056.29.757.524 1.572.873 2.504q.612 1.66 1.397 2.62c.874-6.696-.058-11.238-.757-13.626-1.514-.815-2.97-1.63-4.425-2.562-.64-.407-1.281-.815-1.863-1.222-.816 1.048-2.097 1.688-3.32 1.688-1.164 0-2.212-.582-2.97-1.63-1.513-2.096-2.212-4.367-3.085-7.162l-.117-.292-.175-.524c-.931-.931-1.863-1.863-2.736-2.853h-.175c-.873 0-1.747.35-2.33.99-.581.466-.814 1.165-.814 1.863"></path><path d="M107.318 256.095c.582 0 1.222-.35 1.63-.815-1.689-1.223-3.32-2.563-4.891-3.902.524 1.514 1.106 2.737 1.921 3.96.35.524.815.757 1.34.757M87.869 238.859c-.058.64-.117 1.397-.175 2.154 1.223.058 2.271.466 3.261 1.281 1.165.99 2.038 2.155 2.795 3.494.116-.175.291-.35.408-.524a5.1 5.1 0 0 1 2.387-1.456c-3.144-3.668-5.881-7.686-8.21-11.995-.233.233-.524.466-.757.699.757 1.805.582 3.843.29 6.347M64.111 182.434c0-1.805-1.165-3.377-2.62-3.61-.291-.058-.524-.058-.816-.058-1.222-.117-2.853-.233-3.668-1.806-.99-1.98.291-4.192 1.63-6.58.292-.524.641-1.106.932-1.63l.291-.582c1.048-1.98 1.63-3.086 1.572-5.416-.058-1.63-1.28-2.911-2.853-2.911-.873 0-1.63.466-2.562 1.572-.815.932-2.038 1.34-3.203.99-1.28-.408-2.154-1.572-2.387-3.086-.233-2.097-.524-3.32-1.223-3.843-.058.29-.174.582-.233.873l-.64 2.155c-.233.757-.466 1.514-.699 2.212s-.466 1.398-.64 2.097a3.2 3.2 0 0 0-.175.99c-.058.29-.058.582 0 .756s.058.117.174.233c.059.059.175.059.292.059s.233.058.349 0c.175 0 .291-.059.466-.175.175-.117.407-.35.64-.64.233-.292.524-.641.99-.99.117-.059.233-.175.408-.233.058-.059.175-.059.233-.117l.174-.058c.233-.058.525-.117.816-.117.582 0 1.223.175 1.688.524.466.35.757.757.99 1.223.466.874.64 1.689.757 2.504 0 .233.058.408.058.64v.6419999999999999c0 .465-.116.93-.174 1.339-.408 1.63-1.107 3.027-1.747 4.425l-1.98 4.076c-.64 1.34-1.281 2.737-1.747 4.076-.407 1.107-.757 2.213-.99 3.377 1.747.408 2.795 1.864 3.203 2.388.466.582.815 1.223 1.223 1.922.233-.292.407-.641.64-.932.583-.815 1.223-1.63 1.864-2.446 1.339-1.572 2.736-3.028 4.367-4.309-1.514 1.398-2.795 2.97-3.902 4.659-.582.815-1.106 1.688-1.63 2.562-.291.524-.582 1.048-.815 1.572 1.28 2.795 1.98 6.172 2.27 10.772 1.806-1.455 3.553-2.911 5.241-4.483 3.087-7.803 3.494-11.88 3.436-14.616M26.436 130.26c.466.291.874.35 1.34.35-.524-.7-1.049-1.282-1.573-1.864-.058.699-.058 1.34.233 1.514M36.102 110.986c-1.455.175-2.562-.408-3.9-1.572-.35-.291-.816-.408-1.282-.408-1.223 0-2.213.99-2.213 2.213 0 1.747.932 3.901 2.33 5.357 2.445 2.504 3.319 4.018 3.086 5.357-.059.466-.35 1.165-1.281 1.63-1.223.641-2.388 0-3.261-.465-.699-.408-1.34-.757-1.98-.64-.99.116-2.038.756-2.038 1.92 0 .408.175.874.64 1.457.233.349.64.757 1.107 1.222 1.106 1.165 3.785 3.96 4.309 7.512.815.233 1.572.699 2.213 1.281.174.117.349.408.465.524.175.175.233.35.35.466.233.35.466.64.698.99.408.699.816 1.397 1.107 2.154.175.35.291.7.466 1.049.757-.816.815-2.912.931-4.484v-.175c.059-.815.175-2.213 1.107-3.144-.233-3.902-.35-5.707-.175-10.074.058-1.98.233-4.717.582-6.638.35-1.922.816-3.843 1.281-5.707-.29 1.922-.582 3.844-.815 5.823-.174 1.922-.291 3.902-.291 5.823v1.281c.291-.233.524-.407.815-.64.583-.466 1.107-.99 1.689-1.572a21.8 21.8 0 0 0 2.795-3.669 18.5 18.5 0 0 1-2.33 4.018c-.465.64-.99 1.223-1.513 1.805-.408.466-.874.932-1.398 1.34.117 2.445.35 4.832.64 7.278.7-.407 1.457-.582 2.272-.582 1.34 0 2.562.524 3.377 1.397.99 1.048 2.155 1.223 2.795.757.582-.465 1.165-1.572 1.747-2.736.291-.641.64-1.223.99-1.922.116-.233.291-.466.466-.64.466-.408.699-1.049.699-1.747 0-1.165-.874-1.922-1.63-2.33a5.3 5.3 0 0 0-.816-.407c-.99-.466-2.388-1.165-2.388-2.912 0-1.339.932-2.154 1.98-3.144a20 20 0 0 0 2.097-2.213c1.746-2.213 2.038-3.552 1.921-5.182-.058-1.048-.815-2.097-1.98-2.097-.582 0-1.106.175-1.339.466-.699.932-1.805 2.388-3.901 1.514-2.155-.873-1.98-4.425-1.864-7.279 0-.407.058-.757.058-1.106 0-.699-.232-1.34-.756-1.863-.525-.524-1.282-.874-2.039-.874-1.514 0-2.445.874-2.795 2.504-.174.932-.232 2.213-.232 3.436 0 .524 0 1.048-.059 1.572-.058 2.33-1.106 3.843-2.737 4.076"></path><path d="M56.949 152.038c.757-.233 1.514-.466 1.98-.815.524-.408 1.397-1.281 1.397-2.562q0-1.485-1.747-2.795c-3.668-2.737-1.98-6.23-.699-8.735l.175-.35c1.281-2.62 1.398-2.969 1.398-4.949a3.107 3.107 0 0 0-3.087-3.086c-1.222 0-2.678.466-3.26 1.398-.35.582-.64 1.222-.932 1.805-.699 1.456-1.34 2.737-2.33 3.494-1.571 1.164-3.959.757-5.531-.99a2.6 2.6 0 0 0-1.863-.757c-1.456 0-2.62 1.164-2.679 2.736v.175c-.116 2.33-.233 5.183-2.096 6.347.174.408.35.757.524 1.107.29.64.64 1.28 1.048 1.746.408.525.815.757 1.164.757.35.059.874-.174 1.398-.582.233-.175.582-.466.99-.699s.815-.465 1.281-.582c.932-.291 1.98-.233 2.911.117.175.058.35.174.525.29 1.397-1.688 2.736-3.551 3.96-5.415a99 99 0 0 0 3.959-6.813 89 89 0 0 1-3.086 7.337c-.99 2.097-2.097 4.193-3.436 6.231.058.116.175.175.233.291.233.408.466.815.582 1.281.117.466.233.932.233 1.34q.087 1.222 0 2.445a15 15 0 0 1-.291 1.689c2.155.931 2.504 3.494 2.737 5.648.058.699.407 1.223.932 1.398.407.116.815 0 1.048-.35l.174-.174a3.64 3.64 0 0 1-1.28-1.049c-.583-.757-.816-1.688-.7-2.736.35-2.97 2.68-3.669 4.368-4.193M59.394 98.758a19 19 0 0 0-1.106 1.805l-.524.932-.116.232-.059.175c0 .058-.058.058-.058.117-.175.29-.35.465-.582.64-.466.35-1.048.582-1.63.582a2.72 2.72 0 0 1-1.631-.524 3.15 3.15 0 0 1-1.048-1.106l-.291-.466c-.059-.116-.117-.233-.233-.291-.35-.408-.757-.699-1.223-.815-.408-.117-1.107-.058-1.572.058-.524.117-.932.408-1.281.815-.117.117-.175.233-.292.35l-.29.407c-.175.291-.35.583-.467.874-.116.174-.174.407-.29.64v.058c-.059 1.34-.234 4.95.582 5.3.524.232.698.232 1.514-.874.64-.815 1.688-1.281 2.911-1.281 1.805 0 3.32 1.223 3.843 2.911a70 70 0 0 0 1.864-2.504c.524-.757 1.048-1.513 1.514-2.329.465-.815.931-1.63 1.28-2.504-.174.932-.465 1.806-.815 2.737-.349.874-.698 1.747-1.106 2.62a52 52 0 0 1-2.562 5.067h-.058c-.233 1.339-.816 2.795-2.271 4.6-.815 1.048-1.63 1.805-2.33 2.445-.873.816-1.339 1.281-1.339 1.689s.175.582 1.223 1.106c.291.117.64.292.932.466 1.688.99 2.62 2.446 2.62 4.076v.117c.932-.233 1.863-.524 2.795-.699l.582-.116.583-.117c.233-.058.524-.116.757-.233a2.75 2.75 0 0 0 1.048-.932c.175-.349.233-.873.058-1.164-.175-.408-.582-.874-1.106-1.514-.291-.35-.524-.757-.699-1.34-.175-.523-.116-1.339.175-1.863.29-.582.698-.931 1.048-1.223.35-.29.757-.465 1.106-.64.815-.35 1.398-.524 1.98-.815s1.106-.583 1.397-.99c.35-.35.466-.757.525-1.223v-.40800000000000003c0-.058-.059-.233-.059-.349-.058-.233-.174-.466-.29-.699-.292-.466-.641-.815-1.165-1.223-.64-.465-1.281-.931-1.864-1.688a3.1 3.1 0 0 1-.699-1.456c-.116-.582-.058-1.223.117-1.689.35-.931.815-1.572 1.223-2.154.815-1.165 1.63-2.271 1.805-3.32a4.1 4.1 0 0 0 0-1.688c-.117-.524-.35-.99-.699-1.34-.35-.349-.757-.582-1.223-.64h-.7569999999999999c-.233.058-.466.117-.698.233a2.1 2.1 0 0 0-.583.408l-.233.233z"></path><path d="M40.179 97.593a5.9 5.9 0 0 1 1.805-.291c1.28 0 2.562.524 3.493 1.456.35.407.641.815.874 1.28.058-.057.116-.174.175-.232q.35-.524.873-.874c.466-2.795 1.048-5.473 1.863-8.152a73 73 0 0 1 2.97-8.443 75 75 0 0 0-1.921 8.676c-.408 2.33-.7 4.717-.816 7.046.233-.058.408-.058.64-.058.408 0 .933 0 1.398.116.932.233 1.747.815 2.33 1.514.174.175.29.35.407.583l.233.465c.117.233.291.35.408.466.29.175.582.175.757 0l.116-.116s.058-.059.058-.117l.059-.058.116-.233.524-.99c.058-.058.058-.116.117-.174-1.747-.874-2.446-2.563-2.097-3.96.35-1.398 1.514-2.038 2.795-2.679.466-.233.932-.466 1.456-.815.291-.175.99-.699.99-1.63 0-.99-.815-1.805-1.805-1.805-1.398 0-2.33-.408-2.912-1.165-.873-1.223-.349-2.912 0-4.193.175-.524.35-.99.466-1.397.35-1.048.583-1.689.524-2.737-.058-1.572-1.223-2.737-2.678-2.737-1.048 0-2.038.64-2.446 1.63-.64 1.456-1.34 3.378-1.747 4.6-.407 1.398-1.34 2.33-2.445 2.447-.816.116-2.097-.175-3.378-2.155-.174-.291-.524-.466-.931-.466-.757 0-1.165.699-1.223 1.281-.175 1.864.058 2.912.815 5.707.64 2.387.815 3.61-.64 4.95-.292.29-.641.523-.932.756-.524.408-1.107.874-1.165 1.165h-.116c.058.64.407 1.106.99 1.34M22.535 110.986c2.33 1.63 3.319 3.086 3.144 5.008.99.757 1.689 1.98 1.689 3.319v1.106c1.34-.174 2.387.408 3.203.932.757.408 1.106.582 1.339.466.058 0 .175-.117.175-.175.058-.175-.059-1.048-2.562-3.61-1.747-1.805-2.912-4.484-2.912-6.755 0-2.329 1.922-4.25 4.25-4.25.234 0 .408 0 .583.058a127 127 0 0 0-1.863-8.153c-.466-1.63-.932-3.319-1.456-4.95a68 68 0 0 0-1.747-4.832c.815 1.514 1.514 3.086 2.213 4.658a70 70 0 0 1 1.921 4.833c.233.583.408 1.165.641 1.747.175-.233.291-.466.408-.699.407-.64.757-1.339 1.048-2.038a19 19 0 0 0 1.397-4.367 21.4 21.4 0 0 1-.873 4.6c-.233.757-.524 1.456-.815 2.213-.233.524-.466 1.048-.757 1.572.757 2.155 1.455 4.31 2.038 6.522 1.106.873 1.572.99 2.096.932.582-.059.932-.932.99-2.213 0-.466.058-.99.058-1.514 0-1.34.058-2.737.291-3.785s.64-1.922 1.165-2.562c-1.107-.99-1.63-2.679-1.514-4.95.058-1.164.116-1.63.174-2.212.059-.408.059-.816.117-1.63.116-1.224-.117-1.748-.291-1.922-.058-.059-.175-.233-.64-.233-.175 0-.35.116-.7.407-.407.35-1.048.874-1.98.816-.407 0-1.455-.059-2.096-.99-.64-.816-.64-2.097-.174-4.018 0-.058.058-.35-.175-.64-.291-.408-.932-.7-1.456-.7-.407 0-.815.292-1.28.641l-.117.058c-.757.583-1.514.757-2.213.524s-1.223-.815-1.514-1.747c-.757-2.154-1.805-2.387-2.213-2.387-1.106 0-1.921.873-1.98 2.038-.058 1.456.525 2.679 1.165 3.785.466.873.874 1.689.932 2.562.058.64-.117 1.165-.524 1.63-.524.641-1.456.99-2.504 1.049-.932.058-1.63.757-1.63 1.63 0 .466.407 1.106.815 1.689.407.64.99 1.223 2.97 2.853 2.853 2.387 1.339 4.367 1.164 4.542-.64.815-1.747 1.106-3.61 1.048-.583 0-1.107.175-1.514.582a2.33 2.33 0 0 0-.699 1.689c0 .524.233 1.048.757 1.689 1.048 1.106 2.504 2.329 5.066 4.134M11.413 146.914c1.572.524 2.562 1.63 2.737 3.028.116.99-.175 1.98-.699 2.678.408.64.874 1.223 1.281 1.922l.291.466c.583.931 1.223 1.164 1.63 1.048a.62.62 0 0 0 .525-.524c.29-1.805 1.223-2.795 2.154-3.203v-.116c.175-.932.524-1.805 1.107-2.504.582-.699 1.397-1.34 2.329-1.63.175-.059.35-.117.524-.117-.175-.582-.35-1.165-.524-1.805-1.922-.99-3.843-1.922-5.881-2.737a48 48 0 0 0-3.087-1.165c-1.048-.349-2.096-.64-3.202-.815 1.106.058 2.213.291 3.26.524 1.107.233 2.155.583 3.203.874 1.747.582 3.494 1.164 5.241 1.863a673 673 0 0 0-6.813-20.904c3.436 7.977 6.755 15.955 9.9 24.048.64 0 1.338-.116 1.63-.29.174-.117.174-.175.174-.234 0-.058 0-.29-.116-.524-.058-.174-.291-.582-.524-.873l-.583-.99a25 25 0 0 1-1.106-2.154c-.291-.757-.582-1.573-.699-2.504-.116-.932.059-1.864.408-2.737.699-1.689 2.27-3.028 4.076-3.378.291-.058.582-.116.874-.116a4.2 4.2 0 0 0-.525-1.572H28.3c-.757.058-1.922.116-3.086-.64-1.514-1.049-1.165-3.32-.874-5.241-.408-.583-.873-1.398-.873-2.388 0-1.34.64-2.504 1.747-3.202v-1.864a2.09 2.09 0 0 0-2.097-2.096c-.757 0-1.456.408-1.805 1.048-.058.117-.116.291-.233.408-.524 1.048-1.34 2.795-3.319 2.387-1.689-.35-2.213-2.096-2.737-3.727-.29-.99-.582-1.98-1.106-2.853-.466-.815-1.34-1.34-2.271-1.34-.757 0-1.456.292-1.922.816-.465.466-.698 1.048-.64 1.689.058 1.514.932 3.086 1.921 4.775.99 1.746 2.271 3.843.466 5.124-1.28.931-2.504.29-3.377-.117-.524-.29-1.048-.524-1.63-.524a2.09 2.09 0 0 0-2.097 2.097c0 .465.233.931.699 1.572.815 1.048 1.514 1.572 2.504 2.27.35.292.757.583 1.164.874 1.398 1.107 3.145 2.795 2.446 4.833-.699 2.155-2.62 1.864-3.901 1.689-.35-.058-.699-.117-.99-.117-.524-.058-.932.117-1.223.408-.408.35-.582.99-.582 1.689 0 .524.524 1.63 1.28 2.737.99 1.28 3.262 3.377 5.649 4.134"></path><path d="M16.654 171.836c1.339 0 2.62.466 3.901 1.34-.582-1.34-.932-2.737-1.106-4.251-.058-.291-.058-.64-.058-1.048-.7-.757-1.34-1.573-2.039-2.33l-2.096-2.62c-1.34-1.805-2.62-3.61-3.61-5.59 1.34 1.805 2.853 3.377 4.367 4.95.757.756 1.572 1.513 2.388 2.27l1.397 1.223c.35-.698.932-1.339 1.689-1.747.466-.233.931-.407 1.456-.465.232 0 .582-.059.698 0 .291 0 .466.058.7.058.873.174 1.688.466 2.386.757.7.29 1.398.524 1.69.466.116 0 .174-.059.29-.175l.117-.117v-.17400000000000002c0-.117-.117-.291-.291-.524a7 7 0 0 0-.64-.7c-.467-.465-1.05-.93-1.631-1.397-1.165-.931-2.446-1.805-3.61-2.853a16 16 0 0 1-1.69-1.747c-.29-.35-.465-.64-.698-.99-.233-.349-.466-.698-.64-1.164-.059-.058-.059-.175-.117-.291-.175.29-.35.64-.408 1.164-.174 1.107-.99 1.98-2.096 2.155-1.397.29-2.795-.466-3.785-1.922l-.291-.466c-1.106-1.688-2.096-3.202-3.377-4.367-.466-.408-.99-.64-1.514-.64-1.281 0-1.98 1.106-2.097 2.212-.174 1.572.292 2.854 1.573 4.367.349.408.698.757.99 1.107 1.222 1.34 2.27 2.446 2.27 3.843 0 1.747-.931 2.737-2.853 2.853-.931.059-1.688.757-1.688 1.63 0 .467.29.874.757 1.398.465.524 1.164.932 1.98 1.456 1.222.815 2.736 1.805 3.959 3.436 1.165-.7 2.387-1.107 3.727-1.107M66.906 265.76h.466c2.154.117 2.562.06 2.97-.873.174-.349.233-.757.29-1.222.117-.816.35-1.864 1.165-2.62-.757-.583-1.222-1.107-1.63-1.456l-.175-.175c-.64-.64-1.572-1.689-1.572-3.086 0-1.514.932-2.912 2.387-3.61.408-.175.641-.758.525-1.223-.117-.641-.816-.757-1.34-.757-.64 0-1.339-.059-2.038-.175-.64.932-1.747 1.689-2.911 1.921-.932.175-1.864 0-2.562-.524-.7-.524-1.398-.99-1.98-1.28-1.398.698-2.795 1.397-4.251 2.037.175 2.097 2.038 2.97 3.901 3.669.292.116.583.233.757.291 1.049.466 1.864 1.514 2.038 2.62.175.932-.174 1.864-.931 2.562-.233.175-.757 1.049-.583 1.922.175.99 1.223 1.805 2.97 2.504.815-.408 1.63-.582 2.504-.524"></path><path d="M85.947 274.845c0-1.34.64-2.504 1.63-3.203-.465-.116-.873-.233-1.339-.35a79 79 0 0 0-5.357-1.047c-1.805-.233-3.61-.408-5.415-.466-1.805 0-3.669.116-5.474.466 1.747-.583 3.61-.874 5.416-.99a59 59 0 0 1 5.531-.059 89 89 0 0 1 5.532.524c1.805.233 3.61.583 5.416.99.698-.058.757-.233.757-.407 0-.408-1.165-1.456-1.864-2.038-.582-.466-1.106-.932-1.572-1.456a7.4 7.4 0 0 1-.757-1.106c-7.57-.35-12.112-1.922-14.849-3.494-.698.233-.815.699-.99 1.747-.116.524-.174 1.164-.465 1.747-.99 2.27-2.912 2.154-4.95 2.096h-.466a2.8 2.8 0 0 0-2.154.815c-.64.64-.99 1.456-.99 2.388 0 1.28.873 2.445 2.33 3.086 2.037.873 3.9.407 6.113-.117 1.165-.29 2.388-.582 3.669-.64 1.63-.117 2.97.524 3.552 1.805.582 1.164.407 2.678-.408 3.61-.582.64-.873 1.34-.873 1.98 0 1.397 1.106 2.213 1.805 2.62 2.154 1.223 4.542 1.223 8.909 0 2.446-.698 4.25-1.572 5.648-2.329-2.795-.699-4.95-1.572-6.696-2.853-1.048-.815-1.689-2.038-1.689-3.32M233.094 267.799h-.466c-2.038.116-3.96.175-4.95-2.096-.232-.583-.349-1.165-.465-1.747-.175-1.048-.291-1.514-.99-1.747-2.737 1.572-7.22 3.144-14.849 3.494-.174.407-.466.757-.757 1.106-.466.524-1.048.99-1.572 1.456-.699.582-1.922 1.572-1.863 2.038 0 .174.058.35.757.407 1.805-.407 3.61-.698 5.415-.99 1.863-.232 3.669-.465 5.532-.524 1.863-.116 3.727-.116 5.532.059 1.863.174 3.668.407 5.415.99-1.805-.408-3.61-.525-5.474-.466-1.805 0-3.61.174-5.415.466a41.5 41.5 0 0 0-5.357 1.048c-.466.116-.873.233-1.34.35.99.756 1.631 1.92 1.631 3.202 0 1.28-.64 2.562-1.805 3.377-1.747 1.281-3.901 2.096-6.696 2.853 1.397.7 3.202 1.63 5.648 2.33 4.367 1.222 6.755 1.222 8.909 0 .64-.408 1.805-1.223 1.805-2.62 0-.7-.291-1.34-.873-1.98-.816-.932-.99-2.446-.408-3.61.582-1.224 1.922-1.922 3.552-1.806 1.281.058 2.504.408 3.669.64 2.154.525 4.076.99 6.114.117 1.455-.64 2.329-1.805 2.329-3.086 0-.874-.35-1.747-.99-2.388-.466-.64-1.223-.931-2.038-.873"></path><path d="M237.403 251.96c-.699.524-1.572.757-2.562.524-1.165-.232-2.271-.99-2.912-1.921-.698.116-1.397.175-2.038.175-.524 0-1.223.116-1.339.757-.116.465.116 1.048.524 1.222 1.456.7 2.388 2.097 2.388 3.61 0 1.456-.874 2.446-1.573 3.087l-.174.175c-.35.349-.874.873-1.63 1.455.814.757.99 1.864 1.164 2.62.058.466.174.874.29 1.223.409.932.874.99 2.97.874h.466c.874-.058 1.69.175 2.446.524 1.747-.64 2.795-1.514 2.97-2.504.175-.873-.35-1.689-.582-1.922-.757-.698-1.049-1.572-.932-2.562.175-1.106.99-2.154 2.038-2.62.175-.116.466-.175.757-.291 1.921-.699 3.785-1.63 3.901-3.669-1.455-.64-2.853-1.339-4.25-2.038-.525.291-1.165.7-1.922 1.281M292.314 157.22c1.28-1.455 1.747-2.795 1.572-4.367-.117-1.106-.815-2.212-2.096-2.212-.524 0-1.049.232-1.514.64-1.34 1.165-2.271 2.62-3.378 4.367l-.29.466c-.99 1.514-2.388 2.213-3.786 1.922a2.67 2.67 0 0 1-2.096-2.155c-.117-.524-.233-.873-.408-1.164-.058.116-.058.174-.116.29a7.5 7.5 0 0 1-.64 1.165c-.234.35-.408.64-.7.99a16 16 0 0 1-1.688 1.747c-1.165 1.048-2.446 1.922-3.61 2.853-.583.466-1.165.932-1.63 1.398-.234.233-.467.466-.641.699-.175.233-.291.466-.291.524v.17400000000000002c.058.117.058.117.116.117.116.175.175.175.291.175.291.058.99-.175 1.689-.466s1.456-.583 2.387-.757c.233-.058.408-.058.699-.058h.699c.466.058.99.174 1.456.465a4.06 4.06 0 0 1 1.688 1.747l1.398-1.223c.815-.757 1.63-1.455 2.387-2.27 1.572-1.514 3.086-3.145 4.367-4.95-1.048 1.98-2.27 3.785-3.61 5.59a41 41 0 0 1-2.096 2.62c-.64.816-1.34 1.573-2.038 2.33 0 .349 0 .698-.058 1.048-.117 1.455-.525 2.911-1.107 4.25 1.281-.873 2.562-1.339 3.902-1.339 1.339 0 2.562.408 3.552 1.048 1.222-1.63 2.736-2.62 3.96-3.435.814-.524 1.513-.99 1.979-1.456s.757-.932.757-1.398c0-.873-.699-1.572-1.689-1.63-1.863-.116-2.853-1.048-2.853-2.853 0-1.398 1.048-2.562 2.271-3.843.524-.292.874-.64 1.165-1.049"></path><path d="M293.42 138.005c-.35 0-.64.058-.99.116-1.28.175-3.203.466-3.901-1.689-.64-1.98 1.106-3.726 2.445-4.833.408-.349.816-.64 1.165-.873.932-.699 1.689-1.223 2.504-2.271.466-.64.699-1.106.699-1.572a2.09 2.09 0 0 0-2.097-2.097c-.524 0-1.048.233-1.63.525-.874.465-2.096 1.048-3.377.116-1.747-1.281-.524-3.377.465-5.124.99-1.689 1.806-3.261 1.922-4.775.058-.64-.175-1.223-.64-1.689a2.74 2.74 0 0 0-1.922-.815c-.932 0-1.747.524-2.271 1.34-.524.873-.815 1.863-1.106 2.853-.525 1.688-1.049 3.377-2.737 3.726-1.98.408-2.795-1.339-3.32-2.387a.94.94 0 0 0-.232-.408 2.06 2.06 0 0 0-1.805-1.048 2.09 2.09 0 0 0-2.097 2.096v1.864c1.107.699 1.747 1.863 1.747 3.202 0 .99-.466 1.806-.873 2.388.35 1.863.699 4.192-.874 5.24-1.164.816-2.329.7-3.086.641-.233 0-.524-.058-.699 0a8.3 8.3 0 0 0-.524 1.572c.291 0 .583.058.874.117 1.805.35 3.377 1.688 4.076 3.377.35.873.466 1.805.407 2.737a8.4 8.4 0 0 1-.698 2.504c-.35.757-.699 1.455-1.107 2.154l-.582.99c-.175.291-.408.699-.524.874-.116.233-.116.407-.116.524 0 .058.058.116.174.233.35.232.99.29 1.63.29a672 672 0 0 1 9.9-24.048 670 670 0 0 0-6.813 20.846 54 54 0 0 1 5.124-1.805c1.048-.35 2.096-.64 3.203-.873 1.048-.233 2.154-.466 3.26-.525-1.106.175-2.154.466-3.202.816s-2.038.757-3.086 1.164c-1.922.815-3.843 1.747-5.765 2.679-.175.64-.408 1.223-.582 1.863.174.058.35.058.524.117a4.74 4.74 0 0 1 2.329 1.63c.582.757.99 1.572 1.106 2.504v.116c.932.408 1.864 1.398 2.155 3.203a.62.62 0 0 0 .524.524c.408.058 1.048-.175 1.63-1.048l.291-.466c.408-.64.816-1.28 1.282-1.921a3.32 3.32 0 0 1-.7-2.679c.175-1.456 1.165-2.562 2.738-3.028 2.387-.757 4.658-2.853 5.473-4.076.757-1.106 1.281-2.213 1.281-2.737 0-.699-.233-1.34-.582-1.689-.058-.349-.466-.465-.99-.465M194.371 309.259c.058 0 .117 0 .175-.059-9.492-.407-19.915-2.387-31.095-5.997-14.383-4.6-23.117-8.793-29.115-14.034-4.25-3.668-6.056-10.656-6.347-12.053-.291-1.281-1.106-3.378-3.144-3.378-1.281 0-2.155.816-2.562 1.34-.932 1.164-1.98 1.747-3.087 1.747-1.863 0-3.552-1.747-4.774-4.95-.35-.932-.64-1.805-.932-2.562-.699-2.096-1.223-3.669-2.62-5.474-.874-1.164-1.864-1.747-2.912-1.747-1.63 0-2.096.7-2.33 1.281-.814 2.504-2.445 2.737-3.085 2.737-.874 0-1.747-.407-2.562-1.164-.932-.874-1.922-1.747-4.542-3.96-.7-.582-1.456-.932-2.271-.932-1.747 0-3.203 1.456-3.203 3.203 0 .815.233 1.514.699 2.038.35.408.873.873 1.397 1.281 1.34 1.106 2.679 2.271 2.562 3.727-.116 2.387-2.562 2.387-3.377 2.387h-1.223c-1.164.058-2.096.932-2.096 2.038 0 .874.582 1.456.932 1.747 2.038 1.514 4.891 2.33 8.85 3.203 3.902.873 6.522 1.863 6.697 4.018.117 1.63-.932 2.562-1.63 3.202l-.059.059c-.29.29-.465.698-.465 1.222s.29 1.048.815 1.514c1.747 1.514 4.309 3.028 11.005 3.61 1.689.117 3.436.233 5.416.233 1.222 0 2.445 0 3.61-.058 1.106 0 2.096-.058 3.144-.058 1.98 0 3.436.058 4.775.291 6.755.932 13.218 3.727 22.244 7.628 1.34.583 2.678 1.165 4.134 1.747 18.867 8.036 29.814 10.307 31.037 10.54 0-.117.058-.175.058-.291.233-.583.582-.932.873-1.34a10.8 10.8 0 0 1 2.271-1.747c.932-.407 1.805-.757 2.737-.99m-73.428-23.409c-.524-.233-1.28-.64-2.445-1.28a23 23 0 0 1-2.737 1.222c-.99.35-2.038.699-3.086.932-2.097.465-4.251.698-6.406.524 2.155-.059 4.251-.466 6.231-1.107.99-.35 1.98-.698 2.911-1.164.641-.291 1.34-.699 1.922-1.048a11 11 0 0 0-1.223-.7c-1.572-.93-3.086-1.979-4.542-2.969a108 108 0 0 1-4.367-3.319c-.582-.466-1.106-.932-1.689-1.398-1.98.059-3.901 0-5.823-.058-1.921-.116-3.901-.233-5.823-.524 1.922.058 3.902.058 5.823-.058 1.573-.058 3.087-.233 4.659-.408a23 23 0 0 1-1.281-1.164c-2.62-2.504-5.183-5.124-7.337-8.036a187 187 0 0 0 8.21 7.046 271 271 0 0 0 4.251 3.319c.757.582 1.456 1.106 2.213 1.689-.117-1.398-.291-2.795-.466-4.193-.291-2.038-.699-4.076-1.398-6.056.874 1.864 1.456 3.902 1.98 5.94.408 1.688.757 3.377.99 5.066.35.233.64.465.99.698a118 118 0 0 0 4.425 3.028c1.514.99 3.028 1.922 4.542 2.854 3.087 1.863 6.231 3.552 9.434 5.182-3.378-.99-6.755-2.387-9.958-4.018"></path><path d="M193.556 310.248c-1.747.757-2.795 1.806-3.32 2.446-.232.35-.581 1.048-.581 1.106.29 0 .524.059.815.059 2.795 0 4.542-1.63 5.299-2.562.698-.874.99-1.573 1.048-1.98h-.117c-.466 0-1.397.233-3.144.931M44.953 162.286c.233-.756.466-1.513.7-2.212l.698-2.097.64-2.154c.408-1.456.816-2.853.99-4.25a12.6 12.6 0 0 0 0-2.097q0-.524-.174-.874a1.8 1.8 0 0 0-.35-.757c-.29-.465-.698-.873-1.223-1.048-.465-.174-1.048-.233-1.572-.058a2.2 2.2 0 0 0-.757.35c-.29.174-.466.349-.873.64-.35.233-.757.524-1.165.699-.466.174-.99.29-1.572.29a3.6 3.6 0 0 1-1.572-.523 5.7 5.7 0 0 1-1.048-.99c-.583-.699-.932-1.456-1.281-2.155-.35-.698-.64-1.455-.932-2.154-.291-.699-.582-1.398-.873-2.038a19 19 0 0 0-.99-1.863c-.175-.292-.408-.583-.583-.874a1.8 1.8 0 0 1-.29-.407l-.117-.117-.059-.058c-.058-.058-.116-.117-.116-.175-.815-.815-2.096-1.164-3.26-.932-1.165.233-2.155 1.107-2.621 2.155-.233.524-.291 1.165-.233 1.747s.233 1.223.524 1.863.64 1.281.99 1.922l.582.99c.175.35.408.582.64 1.106.175.466.35 1.048.234 1.689-.117.698-.64 1.28-1.107 1.572-.466.291-.99.408-1.397.524-.466.058-.874.116-1.34.116h-1.1640000000000001c-.233 0-.524.059-.757.117-.524.175-.99.524-1.34.99-.349.466-.64.99-.698 1.572a2.6 2.6 0 0 0 .174 1.63c.117.292.292.583.466.816.175.29.408.64.583.815.407.524.931 1.048 1.455 1.514a92 92 0 0 0 3.494 2.795c.582.466 1.223.932 1.805 1.514.291.291.583.582.874.99.29.407.582.815.64 1.514.058.35 0 .699-.116 1.048a1.7 1.7 0 0 1-.233.466c-.058.058-.175.233-.233.29-.35.467-.99.874-1.63.933-.641.058-1.107-.059-1.573-.175-.407-.117-.815-.291-1.164-.408-1.398-.582-2.679-.931-3.494-.466-.408.233-.757.641-.932 1.165-.174.524-.174 1.048-.116 1.805.116 1.398.64 2.679 1.164 4.018.816 1.98 1.98 3.785 3.378 5.532.29.233.582.466.873.64 1.34.874 1.689.524 2.562-.698 1.048-1.456 2.562-2.33 4.193-2.33 1.688 0 3.319.932 4.367 2.62 1.514 2.33 2.504 4.31 3.028 5.766.99 2.795 1.689 3.086 1.863 3.144.175.058.408-.175.524-.291l.117-.117c.64-.582 1.456-1.339 2.504-1.63.233-1.456.64-2.795 1.106-4.134.524-1.456 1.165-2.854 1.864-4.251l1.98-4.076c.64-1.34 1.28-2.737 1.572-4.018.058-.35.116-.64.116-.932v-.46499999999999997c0-.175-.058-.35-.058-.525-.058-.64-.233-1.339-.524-1.805-.117-.233-.291-.407-.408-.524-.116-.116-.233-.116-.466-.116-.116 0-.174 0-.29.058h-.06c-.057 0-.057.058-.116.058-.174.117-.349.35-.582.64-.233.292-.524.641-.932.99-.407.35-1.048.583-1.63.583-.291 0-.524 0-.815-.058a4.3 4.3 0 0 1-.815-.233 1.6 1.6 0 0 1-.757-.64c-.233-.292-.35-.583-.466-.874-.175-.583-.117-1.107-.059-1.514 0-.757.117-1.165.233-1.573m-3.96-2.853c-.349.99-.756 1.98-1.222 2.912-.35.757-.757 1.455-1.165 2.154 0 .117.059.233.059.408.29 1.572.64 3.144.815 4.716.466 3.145 1.28 9.608 1.28 12.811l-1.746-8.618c-1.572-.815-3.203-1.63-4.775-2.446-1.572-.873-3.144-1.688-4.716-2.678 1.63.757 3.26 1.456 4.95 2.154 1.397.583 2.794 1.107 4.192 1.63l-.583-2.561c-.35-1.514-.698-3.087-1.106-4.6-.35-1.515-.757-3.087-1.165-4.6-.29-1.165-.582-2.272-.873-3.436-1.572-.699-3.145-1.34-4.717-2.038-1.63-.64-3.202-1.34-4.891-1.864 1.689.35 3.377.874 5.066 1.34 1.397.407 2.795.815 4.134 1.28l-1.164-4.425-2.504-9.2c1.514 2.795 2.678 5.765 3.785 8.793.582 1.514 1.048 3.028 1.514 4.542s.873 3.086 1.28 4.6l.7 2.795c.232-.35.465-.757.698-1.107.524-.873.99-1.805 1.456-2.736a33.6 33.6 0 0 0 2.096-5.882c-.174 2.038-.698 4.076-1.397 6.056"></path><path d="M47.224 187.267c-.815 0-1.514.582-2.27 1.281l-.117.117c-.99.873-1.863.873-2.387.757-1.282-.35-2.271-1.69-3.261-4.426-.466-1.34-1.456-3.144-2.854-5.357-.407-.64-1.28-1.689-2.62-1.689-1.281 0-2.154.932-2.504 1.456-.757 1.048-2.329 3.32-5.357 1.223-1.281-.874-2.27-1.863-3.32-2.912a26 26 0 0 0-2.561-2.445c-1.107-.932-2.155-1.398-3.261-1.398a4.55 4.55 0 0 0-4.542 4.542c0 1.223.466 2.33 1.34 3.203 1.63 1.63 3.085 2.154 4.6 2.678.29.117.582.233.873.292 1.805.698 2.853 2.096 2.62 3.61-.233 1.397-1.572 2.911-4.775 3.144-.465.058-1.921.117-1.921 2.213 0 .873.524 1.63 1.63 2.446 1.572 1.164 4.484 1.63 7.978 1.339 2.445-.233 3.61.873 3.901 1.98.35 1.28-.466 2.62-1.921 3.319-.932.466-1.573 1.339-1.573 2.27 0 .7.35 1.398 1.165 2.155 1.456 1.34 6.23 4.193 12.112 4.95a80.4 80.4 0 0 0 15.14-8.968c-.233-6.696-1.282-10.772-3.669-14.033-.873-1.223-1.63-1.747-2.446-1.747m-10.54 13.51c-1.979.465-3.959.99-5.822 1.863 1.747-1.048 3.727-1.805 5.706-2.446 1.63-.524 3.32-.99 5.008-1.34-.291-.29-.582-.581-.932-.814a60 60 0 0 0-3.726-2.97c-1.281-.932-2.562-1.863-3.902-2.795l-.524-.35c-1.805 0-3.668.117-5.473.35-2.038.233-4.076.582-5.998 1.223 1.863-.816 3.901-1.398 5.881-1.805a52 52 0 0 1 4.193-.7 73 73 0 0 1-5.94-4.541c-2.504-2.096-4.775-4.484-6.813-6.988 2.563 2.038 5.008 4.076 7.628 5.94 1.34.931 2.62 1.863 3.96 2.737 1.34.931 2.679 1.805 4.018 2.736.932.64 1.863 1.281 2.737 1.98-.291-1.34-.524-2.678-.815-4.018-.466-2.038-.932-4.076-1.573-6.114.816 1.922 1.514 3.96 2.155 5.94a88 88 0 0 1 1.572 5.182 46 46 0 0 1 3.552 3.203c2.271 2.329 4.31 5.182 5.124 8.385a23.2 23.2 0 0 0-4.134-5.59c-1.98.233-3.901.524-5.881.931M283.288 173.874c-1.106 0-2.154.466-3.26 1.398-.99.873-1.806 1.688-2.563 2.445-1.048 1.049-2.038 2.038-3.319 2.912-3.028 2.096-4.6-.175-5.357-1.223-.408-.524-1.223-1.456-2.504-1.456-1.34 0-2.271 1.048-2.62 1.689-1.398 2.213-2.388 4.018-2.854 5.357-.99 2.737-1.98 4.076-3.26 4.426-.583.174-1.456.116-2.388-.757l-.116-.117c-.757-.699-1.398-1.28-2.271-1.28-.874 0-1.63.523-2.504 1.688-2.388 3.26-3.436 7.395-3.669 14.033a80.4 80.4 0 0 0 15.14 8.968c5.881-.757 10.656-3.61 12.112-4.95.815-.757 1.164-1.398 1.164-2.155 0-.99-.582-1.863-1.572-2.27-1.514-.7-2.27-2.039-1.921-3.32.29-1.106 1.455-2.154 3.901-1.98 3.494.292 6.405-.174 7.978-1.339 1.106-.815 1.63-1.63 1.63-2.445 0-2.097-1.456-2.213-1.922-2.213-3.202-.233-4.542-1.747-4.774-3.144-.233-1.514.815-2.912 2.62-3.61.291-.117.582-.234.873-.292 1.514-.524 2.97-1.048 4.6-2.678.874-.874 1.34-1.98 1.34-3.203a4.486 4.486 0 0 0-4.484-4.484m-8.56 12.578c-1.921 1.63-3.901 3.086-5.94 4.542 1.398.174 2.738.407 4.135.699 2.038.407 4.018.99 5.881 1.805-1.921-.64-3.96-.99-5.997-1.223a86 86 0 0 0-5.357-.35l-.525.35a60 60 0 0 0-3.9 2.795c-1.282.932-2.505 1.98-3.728 2.97-.29.29-.64.582-.931.873 1.688.35 3.319.815 4.95 1.281 1.979.64 3.9 1.398 5.706 2.446-1.864-.874-3.843-1.398-5.823-1.864-1.922-.407-3.843-.698-5.765-.931-1.63 1.63-3.086 3.435-4.134 5.59.815-3.203 2.795-5.998 5.124-8.385a35.5 35.5 0 0 1 3.435-3.145c.525-1.747 1.049-3.552 1.63-5.299.641-1.98 1.34-4.017 2.155-5.94-.64 1.98-1.106 4.077-1.572 6.115-.29 1.34-.582 2.737-.873 4.076.931-.699 1.921-1.397 2.853-2.096 1.34-.874 2.679-1.805 4.018-2.737 1.34-.873 2.62-1.805 3.96-2.737 2.62-1.863 5.124-3.901 7.628-5.94-2.155 2.621-4.426 5.009-6.93 7.105"></path><path d="m271.584 144.934.582-.99c.35-.64.699-1.281.99-1.921s.466-1.282.524-1.864 0-1.223-.233-1.747c-.466-1.106-1.456-1.98-2.62-2.154-1.165-.233-2.446.116-3.261.931-.058.059-.116.117-.116.175l-.059.058-.116.117c-.058.116-.233.291-.291.407-.233.292-.408.583-.583.874a19 19 0 0 0-.99 1.863c-.29.64-.582 1.34-.873 2.038a61 61 0 0 1-.932 2.155c-.349.699-.698 1.456-1.28 2.154-.292.35-.583.699-1.049.99-.407.291-.99.524-1.572.524-.582.058-1.106-.116-1.572-.29a3.9 3.9 0 0 1-1.165-.7c-.407-.29-.582-.465-.873-.64a2.2 2.2 0 0 0-.757-.35c-.466-.174-1.048-.116-1.572.059-.466.174-.932.582-1.223 1.048a2.2 2.2 0 0 0-.35.757c-.058.29-.116.524-.174.873a12.6 12.6 0 0 0 0 2.097c.116 1.397.524 2.795.99 4.25l.64 2.155.699 2.096c.233.699.524 1.456.699 2.213.116.407.174.815.233 1.223.058.465.058.931-.059 1.514-.058.29-.233.582-.466.873-.232.291-.524.466-.757.64-.29.117-.524.233-.815.233-.233.059-.524.059-.815.059-.582 0-1.165-.291-1.63-.583a7 7 0 0 1-.932-.99c-.233-.29-.466-.524-.582-.64-.059 0-.059-.058-.117-.058h-.058c-.117 0-.233-.058-.291-.058-.175 0-.291.058-.466.116-.117.116-.291.291-.408.524-.29.466-.466 1.165-.524 1.805 0 .175-.058.35-.058.524v.466c0 .291.058.582.116.932.35 1.34.99 2.678 1.573 4.018l1.98 4.076c.64 1.397 1.28 2.795 1.805 4.25.465 1.34.931 2.68 1.106 4.135 1.048.35 1.805 1.048 2.504 1.63l.116.117c.117.116.408.29.524.29.117-.057.874-.349 1.864-3.144.524-1.514 1.572-3.435 3.028-5.764 1.048-1.689 2.678-2.62 4.367-2.62 1.63 0 3.144.873 4.192 2.329.874 1.222 1.223 1.63 2.563.698.29-.233.582-.407.873-.64 1.398-1.747 2.62-3.61 3.377-5.532.524-1.281 1.049-2.62 1.165-4.018.116-.699.058-1.281-.116-1.805a2.1 2.1 0 0 0-.932-1.165c-.815-.465-2.096-.116-3.494.466-.35.117-.699.291-1.165.408-.407.116-.931.233-1.572.174-.64-.058-1.28-.465-1.63-.931-.058-.117-.175-.291-.233-.291a1.7 1.7 0 0 1-.233-.466c-.116-.35-.175-.699-.116-1.048.058-.64.349-1.107.64-1.514s.582-.699.873-.99c.583-.582 1.223-1.048 1.806-1.514 1.222-.932 2.445-1.805 3.493-2.795.524-.466 1.049-.99 1.456-1.514.175-.233.408-.582.582-.815.175-.292.35-.583.466-.816a2.6 2.6 0 0 0 .175-1.63 3.84 3.84 0 0 0-.699-1.572 2.8 2.8 0 0 0-1.34-.99 3.4 3.4 0 0 0-.756-.117h-1.164c-.408 0-.874 0-1.34-.116q-.7-.087-1.397-.524c-.466-.291-.99-.874-1.107-1.572-.116-.7.058-1.281.233-1.689.291-.175.466-.408.699-.757m2.795 8.385c-1.689.524-3.261 1.223-4.891 1.863-1.514.641-3.087 1.282-4.6 1.98-.292 1.165-.641 2.33-.932 3.494-.408 1.514-.815 3.028-1.165 4.6-.407 1.514-.757 3.086-1.106 4.6l-.583 2.504c1.34-.524 2.737-1.048 4.077-1.572 1.688-.699 3.319-1.34 4.95-2.154-1.515.931-3.087 1.805-4.718 2.678-1.513.815-3.086 1.63-4.658 2.388l-2.27 9.899c0-3.203 1.338-10.831 1.804-13.976.233-1.572.524-3.144.815-4.716 0-.117.059-.175.059-.291a22 22 0 0 1-1.223-2.271 26 26 0 0 1-1.223-2.912c-.699-1.98-1.223-4.018-1.514-6.056.524 2.038 1.165 4.018 2.096 5.882.466.931.932 1.863 1.456 2.736.233.408.524.816.815 1.223.233-.99.466-1.98.7-2.911.407-1.514.814-3.087 1.28-4.6.466-1.514.99-3.028 1.514-4.542 1.106-2.97 2.33-5.94 3.785-8.793l-2.504 9.2-1.164 4.367 4.017-1.222a85 85 0 0 1 5.183-1.398"></path></g><!-- source: https://football-logos.cc --></svg>