<svg xmlns="http://www.w3.org/2000/svg" xml:space="preserve" id="Lager_1" x="0" y="0" version="1.1" viewBox="0 0 198.27 193.1"><!-- Source: https://football-logos.cc --><style id="style12677" type="text/css" data-source="https://football-logos.cc">.st1{fill:#00854c}.st2{fill:#020302}.st3,.st4{fill:#fff;stroke:#fff;stroke-width:.2174;stroke-linecap:square;stroke-miterlimit:2}.st4{fill:#e40520;stroke:#df1d24}.st5{fill:#fff}</style><path id="path12679" d="M131.36 11.485c2-.6-.8-2.4 0-4.2.4-1.8-1.4-3.6.2-5 7.2-3.6 8.4 7 14.8 7.2 3.8 4.8 3.6 11 7.6 15.8-.4 2.8 2.8 1.8 4.2 3.2 1.6-2.2-2.4-2.6-2.2-4.6.6-3-3-6.2.4-8.4 4 .4 3.6 5 4.6 8-.2 1.4-1.8 3-.8 4.6 1 1 2.6.4 3.6-.2 1.6-1.2 1-3.8 3.4-4.4 2.4 2.2 8-.8 8.6 4.2-.6 5.2 2.4 9.6 1.6 14.6l-.2 7c.8.2.8-1 .8-1.8 2-.8 3-4.4 5.6-2.4 2 1.8.2 5.2 2.2 7 2.2.4 4-1.8 5.8 0 2.6 3.6 1 9.2 2 13.2-1.8 2.4-1.8 5.4-2.2 8.4 0 2.4-3.4 4.4-1.4 6.6 2.4.8 4.2-2 6.2 0 1.2 1.4 1 3.2.2 4.6-1.8 2.8-5.2 3.6-6.6 6.2 2.6 0 7-5 8.4 0l-.2 8.6c-2.8 3-3.6 7-6.2 10.2-2 3-6 5-7 8.6 2.4-.6 6-2.2 8.6-.4 1.2 1.2 1 3 .4 4.4-2.6 2.6-6.6 3.4-10.2 2.6-1 0-1.6.8-2.2 1.4v.8c2.4 0 5.4-.4 7.8 1 1.6 2 3 4.8 1.6 7.2-3.2 2.6-6.4 5.8-7.2 10-4.6 4.2-13.2.8-16.6 6.4 1.4 2.8 8.6 1.4 6.6 6.4-1.6 2.4-4.6 1.4-6.6.6-2.8-1.2-3.8-6.6-7.2-3.2-1.4 4.8 4.6 3.2 6.4 6.2 1.4 1 1.6 3.2 1 4.6-2.2 2.6-5.8 2.2-8 4.8-7 3-14.2-1.6-21.5-.8-1.4.8-.6 2.4 0 3.4 2.4 1.8 6 1.2 7.2 4.6.4 2-.4 4-2.4 4.4-1.6.2-3-1.4-3.6-2.8-.2-2.2.2-5.6-2.6-6.2-2-.8-4.4-2.8-6.4-.8 1 3.4 9 1.2 5.4 6.8 1.2 1.8 1.6 5.2-1.8 5.2-3.8 0-7.2 1.2-11 1.8-4.8-2.4-10-3.8-15.2-5l-.6.4c.8 4 5.6 6.4 5 10.6-2.4.8-4-3.2-7-2.2-3-3.4-2.2-9.4-7-11.2-6.2 2.4-7.4 11.6-14.8 12.8-.8.2-2.2.2-2.6-1 2.6-4.6 6.2-9.2 11-12v-.6c-7.6-.4-11.6 10-19.7 8.2-2.4-.4-5.4.2-6.6-2.6-1.4-3.8 3.6-5.6 3.4-9-1.8-.2-3.6.2-5 1.6-.4 2-1.6 4.2-3.8 4.6-1.2.4-2.6 1-3.8.4-1.4-.8-1.8-2.4-1.2-3.6.6-1 1.6-1.8 1.2-2.8-3.8-1.8-8.6 2.8-12-1-2.4-2.8-6.6-1.8-8.6-5.6-.8-2.8 1.2-5.2 3.4-6.8 1.6-.8 3.4-1 5-1.4.4-1 .4-2.8-1.2-2.8-2.4-1-3.2 2.2-5.2 2.4-2.8.4-6.6.6-8.6-2-.6-2.6 3.4-5.2 0-6.8-3.6-.4-8 3-9.8-2-2-2.4-4.8-5.4-3.4-8.6 2.4-.6 4.4-2 6.6-3 1.2-.2 2.8-1 1.6-2.4-.8-1.2-1.2-3-3-3.2-2.6 1.4-6 4.4-9 1.6-1.4-.8-3-2.4-2.6-4.2 1-3.2 5.4-2.4 8.6-2.8 1.2 0 2 2.4 3 .8-1.4-2.6-4-4.8-5.8-7-4.6-2.2-11.4-3.4-13-9.4-.2-1.6.2-2.6.8-3.8-.2-2.8-5-6.4-.6-8.4 1.6.6 3.6 1.6 5.4.6 1.4-1.2 1-3.2.8-4.8-2-1.2-5.4-1-6.2-4-.6-1.8-2-3.8-1-6 .8-1.2 2.8-1.4 3.8-.4 2 1.4 4.4 3.4 4.4 6 .8 1 1.4-.4 2.4-.2-.2-.6-1.4-.8-.6-1.8.4-.8 1.6-1.4.8-2.4-2.4-6.4-9.2-11-8.6-18.5.4-3 .2-6.8 3-8.4 4.8-2.8 6.4 9.4 10.2 2.2.6-3.6-4.4-2.4-4.8-5.6-.2-2.8-1.8-6 0-8.6.8-1.6 3.2-1.6 4.6-.8 3.2 1.8 2 5.8 3.4 8.4.2 1.4-2 2.8-.2 3.8 1.8 0 1.6-2 2.2-3.2 1.4-7.2-4.4-12.8-2.2-20.1 3.4-2.4 2.8-10.8 9-8.2 3.2 1.6-.8 7.4 4.2 6.8.8-1.2 1.4-3 .8-4.6-4.4-2.2-.8-6.6-.4-9.6 1-1.4 2.4-2 4-1.4 2.6 1.8 1.8 5.6 1.4 8.2-.4 2.2-3.8 3-2.8 5.8 1 .8 2.2-.2 3-.6 7.4-6.2 4.6-17 12-23.1 2-5.6 8.6-5 13-6.8 1-.2 1.6.4 1.8 1 1.4 4.6-3.8 6.8-3.4 11 3 2 3-2.6 5-3.8-.2-4.4 5-5.2 7.6-7.2 1.6-.2 3.4.2 4 1.8.8 2.6-5.4 5.6-1 6.2 5-.4 7-7.8 12.6-5.8 3.6 2.6 7-2 10.8.4 4-4.6 8.2 2.6 12.2-1.4 1.8.6 2.2 3 3.6 4.4 2.8 3 6.6 3.6 10.4 4.2 1 0 1.2-1.2.8-2-2-1.8-5.4.6-7.2-2.2-1.4-2.2-3.2-4.4-2.2-7.2.8-2 3-.6 4.4-.6 5 2.3 3.8 8.3 8.4 10.9z" style="fill:#020302;stroke:#020302;stroke-width:.2174;stroke-linecap:square;stroke-miterlimit:2"></path><path id="path12681" d="M121.56 2.485c0 .6-.2 1.4-1 1.2-.4 0-.8-.2-1-.6-.2-1.2 1.6-1.6 2-.6" class="st1" style="fill:#00854c"></path><path id="path12683" d="M63.56 4.085c-1 4-5 7-5.8 11-2.8 4.4-9.4 1.6-11 6.6l-3 7c1.6-3.6 1.2-10.2 6.8-10.6.6-1.4 2-2.6 1.8-4-1.6 0-3 3.4-4.4 2.2 3-4.4 5.4-11.2 11.6-11.4 1.2-1 3.2-3.2 4-.8" class="st1" style="fill:#00854c"></path><path id="path12685" d="M77.06 5.685c-.2 1-.8 1.8-1.6 2.2-1.2.2-2.4 0-3-1.2-.2-1.2 1-2.2 1.8-2.6 1-.2 3.2 0 2.8 1.6" class="st1" style="fill:#00854c"></path><path id="path12687" d="M144.86 11.285c3 2.2 2.2 6 4.6 8.6.2.6-.2 1.2-.8 1.6-3.4-1.2.6-5.6-3.4-6.2-3.4 1.8-4.8-1.4-6.2-3.6-1.6-1.8-4.4-.8-5.8-2.8 0-1.8.2-3.4.6-5 4.3 1.6 7.5 5 11 7.4" class="st1" style="fill:#00854c"></path><path id="path12689" d="M125.56 6.285c-.2.6-.4 1.6-1.4 1.4-.8.4-1.8-.4-1.8-1.2-.4-.8.4-1.4 1-1.8 1 0 2.2.6 2.2 1.6" class="st1" style="fill:#00854c"></path><path id="path12691" d="M112.36 5.485c2.8 3 6 6.6 10 7.6-3.4 1.8-6.6-.8-9.6-2-.8.4-.2 1.2.2 1.6 2.2 1.4 4.8 2.6 7.6 2.4 2 1.8 4.6-.8 5.8 1.2-4.4 1.4-11.2 2.6-15-1-2.8.2-5-1.4-7-3.2-.8-1.8-2-3.8-1.4-5.6 1.6-1.4 4-1.2 5.6-.4 1.2 1.4 3.6 1.4 3.8-.6" class="st1" style="fill:#00854c"></path><path id="path12693" d="M99.66 7.085c4 4.2-3.2 6.4-4.8 10-6.6 2.4-16 4.2-21.3-1.4l.4-1.4c5.2-2.6 10.2-5.8 15.6-8.2 3.5 2.8 6.7-1.6 10.1 1" class="st1" style="fill:#00854c"></path><path id="path12695" d="M72.16 8.685c.4 1-.4 1.2-1.2 1.6-1 0-2.4-.6-2.6-1.6l1.2-1.8c1.2 0 2 1 2.6 1.8" class="st1" style="fill:#00854c"></path><path id="path12697" d="M87.66 9.085c.6.8-.4 1.8-1.2 1.8h-.4c-.4-.6.2-2.4 1.6-1.8" class="st1" style="fill:#00854c"></path><path id="path12699" d="M92.66 10.685c-3.2 2.6-7.2 3.8-11.4 4.4-.4-.2-.2-.6-.2-1 3.6-.6 7.2-1.8 10.2-3.8z" class="st2" style="fill:#020302"></path><path id="path12701" d="M54.36 11.885c.2.6-.6.8-.8 1.2h-.4c.2-.4.4-1.4 1.2-1.2" class="st1" style="fill:#00854c"></path><path id="path12703" d="M70.36 12.485c-.4.4-1.4.6-2.2.2h-.2c.4-.8 1.8-.8 2.4-.2" class="st1" style="fill:#00854c"></path><path id="path12705" d="M139.96 15.885c.2.6 0 1.6.2 2.2-2 1.6-3.4-1-5.2-1.2-.6.4-.4 1.2-.2 1.6 5.6 2.4 10.8 6.2 15.6 10.6l.4 1.2c-2.6.8-4.8-2-7.6-1.8-1.6.2-3.4.4-4.8-.2-1.2-1 .2-3.6-2-3.6-1.6 0-4.2.2-4.6-2 1-3.6-6.2-6.2-1.8-9 2-.4 3.2 1.8 5 1.2l1.2-2.8c2.2 0 3.2 2 3.8 3.8" class="st1" style="fill:#00854c"></path><path id="path12707" d="M102.06 18.785c2.4 3 3 8.2 7.8 8.8 6.2-.8 12.6-1.2 17.8-4.6l.6.2c.6 1.2-1 2.2-2.2 2.8-1.6-.2-2.6 1-3.6 2.2.4 3.8 4 5 6.8 7.2 3.2 1 6.2-1.4 9.2 0 .4 2.4-5.2 2.8-3.4 6.2 1.8 1.8 4.4 2.6 6.6 1 .2 3 1.8 5.6 4.6 7.4 1 7.4 9.8 4 14.2 7.2-5.4 2-11.6 5.4-16.6 10.4-5.8 6.6-13.2 12.6-20.9 15 1-8.6 5-17.2 12-23.9-1.8-1.4-4.2.4-6.4.6-7.2 3.6-14.6 6.8-22.1 9.2 1.8 3.4 3 7.4 2.2 11.2-2-2.2-5.8-1.4-8.4-2.8-6-2.6-14-6.6-15.6-13.8-1-5.8.8-11.4 5.6-14.8 3.8-3.4 9.6-3.6 14-1.4 5 3.2 7.6 8.6 6.2 14.4l-1.8 3.8c3.2.2 6.4-1.4 9.4-2.6 7.6-5.4 16.8-8 26.1-7.2l.6-.6c-8.4-11.2-19.9-18.1-31.9-22.9l-11.4-8.4c-11 7.6-22.7 13.2-33.9 20.3-2.4-.2-4.4 1.8-5.2 3.8-.8 3.6-8.5 3.1-5.5 8.3-2.4.6-7-.9-14.2 2 .8-1.2-2.6-.6 4-3.5-3.6 2-4.7.9-7.9.7-.8-.2-1.4 1.4-2.6 1-.6-2.2 1.6-3.8 2.8-4.6 1.6 2 3.8 3 6.2 2 2-1 3-3.2 2.8-5.2.8-2.8-4.8-3.6-2.4-5.8.2-.8 1.8-1.6 1.2-2.8-.2-.8-.6-1.6-.2-2.4 3.4-1.4 7.2 0 10.8-1 4.2 1.4 9.2 1.6 13.6 1 2-1.6 1.8-5 .6-6.8-.6-1.6-2.8-1.8-2.8-3.6 1-1 2 0 3 .2.6 3 3.4 4.8 6 6 1 .2 1.6-.4 2.2-1 .6-2.6-1.2-4.6-3.2-5.4-1.2-1-4.6.4-3.8-2 3.2-2.2 5 2.4 7.8 3.2 5 1.6 10.6.4 15-2.4 5.2-2.2-1-10 5.8-10.8 1.1 1.3-.5 3 .5 4.2z" class="st3" style="fill:#fff;stroke:#fff;stroke-width:.2174;stroke-linecap:square;stroke-miterlimit:2"></path><path id="path12709" d="M72.36 17.085c.4 2-.4 4-1.4 5.8-3.2 1.4-5.4 4.4-8 6h-5c-2.6 2.6-6.4 3-10.2 3l-.6-.6c4.8-4.6 12.4-5.6 17.3-9.6h-2c-4.8 2.6-9.6 4.6-14.8 6 0-3.2 1.8-6.4 4.8-8 3.6 1.4 5.4-2.6 8.2-3.4 3.8 0 6.8-1.6 10.6-1z" class="st1" style="fill:#00854c"></path><path id="path12711" d="m111.76 18.785-.6 2c1.8 2.2 6-.6 6.2 2.6-2.6 1.4-5.2 3.6-8.4 2.4-1.6-3.6-7.4-6.4-4.8-10.8 2.7 1.3 6.2 1.3 7.6 3.8" class="st1" style="fill:#00854c"></path><path id="path12713" d="M146.66 23.585c-1.6 0-3-2-4-3.4-.2-1.4.4-2.6 1.4-3.4 3.4.7 2 4.8 2.6 6.8" class="st1" style="fill:#00854c"></path><path id="path12715" d="M158.06 19.385c0 .4-.4.8-.8.8-.8-.2-1.2-1.2-.4-1.8.6 0 1 .6 1.2 1" class="st1" style="fill:#00854c"></path><path id="path12717" d="M95.06 20.785c-.2 1.2-.8 2.4-2 2.6-1.4.2-2-1-2.6-2 .4-2 3-.8 4.2-1.6z" class="st1" style="fill:#00854c"></path><path id="path12719" d="M37.46 21.385c.2 1-.4 2.4-1.6 2.4-1.2.2-1.6-.8-1.4-1.8-.2-1.4 2.8-3.2 3-.6" class="st1" style="fill:#00854c"></path><path id="path12721" d="M79.06 22.785v.6c-1.4-.8-3-1.2-3.6-2.6 1.4-1.2 3 .8 3.6 2" class="st1" style="fill:#00854c"></path><path id="path12723" d="M90.86 23.585c0 .6-.6 1.2-1 1.2-1.2-.4-2-1.4-2.2-2.6l.6-1c1.2.2 1.8 1.6 2.6 2.4" class="st1" style="fill:#00854c"></path><path id="path12725" d="M87.66 25.385c-1.2.8-3 .6-4.4.6-.8-1-1.6-1.8-1.8-3 1.2-.6 3.6 2.2 3.2-1 1.4.4 2.8 2 3 3.4" class="st1" style="fill:#00854c"></path><path id="path12727" d="M120.56 22.985c-.2.2-.6 0-.8.2l.2-1c.2.2.8.2.6.8" class="st1" style="fill:#00854c"></path><path id="path12729" d="M158.86 23.985c-.6.6-1 .4-1.8.2-.2-.4-.2-1.2.4-1.2.8-.2 1.8.2 1.4 1" class="st1" style="fill:#00854c"></path><path id="path12731" d="M151.26 25.385c.2.8.2 1.6-.6 1.6-.8-.2-1.6-.6-1.8-1.4-.6-1.8 3-2.6 2.4-.2" class="st1" style="fill:#00854c"></path><path id="path12733" d="M36.46 25.985c.4.8-.6 1.2-1 1.4-.6-.2-1.8 0-1.8-1 .4-1 2.4-1.8 2.8-.4" class="st1" style="fill:#00854c"></path><path id="path12735" d="M134.96 26.785c.6 1.4-1.6 1.8-1.2 2.8 1.4 0 2.4 1 2.6 2.4 0 1-1.2 1.2-2 1.4-4.8 2.2-6.6-2.2-10-4.2l-.2-.4c1.6-1.2 4-1.6 5.8-3 1.8.2 4-.6 5 1" class="st1" style="fill:#00854c"></path><path id="path12737" d="M172.86 29.785c.4.8.4 2.8-1.2 2.4.2 1.8 3 3.2 2.2 5.4l-3.8-3.4-.4 1.8c-3.6-.4-1.2-4.8-3.8-6.4 0-1.2 0-2.6 1-3.4 1.6 2 5.6 0 6 3.6" class="st1" style="fill:#00854c"></path><path id="path12739" d="M30.06 35.785c-.2 1.6-1 3-2.2 4.2-1-.8-1-2.4-1.6-3.8-.4 2.4-1 5.2-2.8 7-4-.6-.2-5.2-1.2-7.8 3.2-1.6.8-6.6 5-7 2.2 1.8 1.4 5 2.8 7.4" class="st1" style="fill:#00854c"></path><path id="path12741" d="M74.46 28.585c0 .4-.4.2-.6.2-.2-.4.4-.2.6-.2" class="st1" style="fill:#00854c"></path><path id="path12743" d="M112.56 35.385c8.4 3.8 17.2 7.8 23.7 15.2-7 1.4-12.6 5.6-19.3 7.4-1.2-6.8-6-15.4-13.8-16.6-7.8-1.8-15.4 0-20.7 5.4-3.8 4-5.2 9.2-5.8 14.4-4.4-1.2-8.6-3.8-13.6-4.6-.6-.8-1-1.6-1-2.6 2-2.6 4.6.8 7-.8 1.6-1 3-2.8 3-4.8-.6-1 0-2 .6-2.4 9.2-7.4 19.1-12.4 29.5-16.8 3.7 1.6 6.8 4.6 10.4 6.2z" class="st4" style="fill:#e40520;stroke:#df1d24;stroke-width:.2174;stroke-linecap:square;stroke-miterlimit:2"></path><path id="path12745" d="M79.06 30.385c.2.6-.6 1-1 1.2-.8.2-1.4-.2-1.8-1 .2-1.2 2.4-1.8 2.8-.2" class="st1" style="fill:#00854c"></path><path id="path12747" d="m69.76 31.585-.4.4c-.8-.2-1.4-1.4-.8-2 1 0 1 1 1.2 1.6" class="st1" style="fill:#00854c"></path><path id="path12749" d="M161.26 32.185c.4-1 1.2-2 2.4-1.6 5.2.4-1 11.4 5.8 7.2 4 2.2-2.8 10.6 4.6 9 2 3.2-.8 6.2-.4 9.4 1.2 1.4 2 3.4 3.8 4.2 1.2-1 3.2-1 3.6.8 1.6 2.4-2 5.6 1 6.8.8-.2 1.6-.6 2.4-.2 3 3.2-4.2 6.4.4 8.6.4 2.8-2 4.6-2.2 7.4-1.2-5-1.8-10.2-3.6-15h-.7c.8 5.4 3.2 10.8 2.2 16.6-1.4-2.8-2.8-7.2-6.6-7.6-2.6-2.2 3.6-4.2-.6-6-.4-.2-.8-.8-1.4-.6-.6.8 1 1.8 0 2.6-.8 2-4-1.4-3 1.6 2.2 1.8 5 3.6 5.6 6.4.6.4 1.4 1 .8 1.8-1.4 1.4-3.4 1-5 .4 0-4.8-6.8-4.4-6.6-9.2 3.4 0 6.4-2 7.6-5 1.4-2.4 1.6-5.8-.2-8-1.6-2-3.4-3.2-5.6-4.2 2.2-.6 4.4 3 5.4.4-1.8-3.2-3.6-7.2-7.4-8.8-1.4.2-3.4.4-4.8-.6-1.2-1.4 1.6-2.2.6-3.6-2-1.6-6-1.4-5.6-4.6 4.8-2.8-5.8-7.2 1.4-9.8 2.7-1.2 3.7 3.6 6.1 1.6" class="st1" style="fill:#00854c"></path><path id="path12751" d="m68.36 33.185-.2 1c-1.8.8-2.6-1.6-3.2-2.8 1-1.6 3 .6 3.4 1.8" class="st1" style="fill:#00854c"></path><path id="path12753" d="M64.56 32.785c-.2.6.2 1.2-.4 1.4-1 0-2-1.2-2.4-2 0-2.4 2.6-.4 2.8.6" class="st1" style="fill:#00854c"></path><path id="path12755" d="M138.56 31.585c0 .2-.2.2-.4.2l-.2-.8c.2.2.8.2.6.6" class="st1" style="fill:#00854c"></path><path id="path12757" d="M147.66 32.185c-.8-.2-2.2.4-2.8-.6l.2-.6c1 .2 1.8.4 2.6 1.2" class="st1" style="fill:#00854c"></path><path id="path12759" d="M61.36 33.385c-.4.2-.2.6-.6.8-1-.2-1.8-1.2-2.2-2l.4-1c.8.6 2 1.2 2.4 2.2" class="st1" style="fill:#00854c"></path><path id="path12761" d="M43.56 34.785c-1 3.2 2 5.8.6 8.6-2 .2-4.8.8-5.8 3.4-.4 1-.4 2.8 0 3.8-1.6 1.6-4.8 2-6.8 3.8l-3.6 3.4c-1-1.8 1-4 1.8-5.8l6.2-10h-1.2c-3.4 4-5.6 8.6-8.2 13l-.7.3c.4-4.2-2-9.6 1.6-12.4 4-.6 2.8-5.8 6.6-7.2 3.6.3 6.9-6.3 9.5-.9" class="st1" style="fill:#00854c"></path><path id="path12763" d="M57.36 32.785v.4h-.8c-.2-.4.6-.8.8-.4" class="st1" style="fill:#00854c"></path><path id="path12765" d="M54.16 33.385c.2.6-.6.4-.8.8-.4 0-.6-.4-1-.6.2-.6 1.4-.8 1.8-.2" class="st1" style="fill:#00854c"></path><path id="path12767" d="M49.16 33.585c-.2.6-1 .8-1.6.6l-.2-.2c.2-.8 1.4-1.2 1.8-.4" class="st1" style="fill:#00854c"></path><path id="path12769" d="M151.86 37.185c.2.6-.6 1.2-1 1.2l-8.6-1.8-.4-.8c2.2-2.4 6-1.2 8.8-.2.4.4 1.4.8 1.2 1.6" class="st1" style="fill:#00854c"></path><path id="path12771" d="M170.86 50.585c.2 1.4 1.6 2.6 1.2 4-2.8-5.6-6.6-11.2-10.6-16.6 4 3 6.6 8.4 9.4 12.6" class="st2" style="fill:#020302"></path><path id="path12773" d="M139.76 39.985c.2.8-.4 1.2-1 1.4-.8.2-1.8.2-2.4-.6-.2-1 .8-1.2 1.4-1.6.8-.2 1.4.2 2 .8" class="st1" style="fill:#00854c"></path><path id="path12775" d="M174.46 41.785c-1 .6-1.4-.8-1.8-1.4l.2-.8c1.2.2 1.8 1.4 1.6 2.2" class="st1" style="fill:#00854c"></path><path id="path12777" d="M155.86 44.985c.4 2.6 1.2 4.8 2.6 6.8 1 1 3.6 1.4 3 3.4-3.8-.8-8.2-1.4-12.2-2.4-1.4-.6-.4-2.2-.2-3.2-2.4-1.2-5.2-3.8-5.2-6.4 3.2 1 4.8-3.2 7.8-1.2 1 1.6 2.6 2.6 4.2 3" class="st1" style="fill:#00854c"></path><path id="path12779" d="M173.26 43.785c.2.2-.2.4-.4.6l-.2-.8c.2 0 .6 0 .6.2" class="st1" style="fill:#00854c"></path><path id="path12781" d="M182.76 48.585c0 .6-.6 1.2-1.2 1.2-.8.2-1.2-.4-1.6-.8 0-1 .2-2 1-2.4 1 0 1.6 1 1.8 2" class="st1" style="fill:#00854c"></path><path id="path12783" d="M16.46 49.185c.4 1.4-.6 2.6-1.8 3-.8.4-1.8-.6-1.8-1.6 0-1.2.6-2.2 1.6-2.8s1.6.8 2 1.4" class="st1" style="fill:#00854c"></path><path id="path12785" d="M182.96 52.485c.2 1-.2 2-1.2 2-1 .2-2.2-.8-2.2-1.8-.2-.8.2-1.4.8-1.6 1.2.1 2 .7 2.6 1.4" class="st1" style="fill:#00854c"></path><path id="path12787" d="M17.46 54.285c-.2 1-.8 2-1.8 2l-.8-.2c-.4-1 .6-2.2 1.6-2.4.4.2 1 .2 1 .6" class="st1" style="fill:#00854c"></path><path id="path12789" d="m190.56 55.885-.2.2c-.6-.2-2-1.4-1-2.2.8.2 1.4 1.2 1.2 2" class="st1" style="fill:#00854c"></path><path id="path12791" d="M179.36 56.285c0 .4-.2.8-.6 1-.8 0-.6-1-.8-1.4v-.8c.6 0 1.4.6 1.4 1.2" class="st1" style="fill:#00854c"></path><path id="path12793" d="m189.96 59.085-.2.2c-1.6-.2-2.6-1.8-3.2-3.2l.2-.8c1.8.2 2.4 2.2 3.2 3.8" class="st1" style="fill:#00854c"></path><path id="path12795" d="M42.96 57.485c-4.4 2.6-9.2 4.4-13.4 8 .8-4 5.6-8 9.8-8.8 1.1.2 2.6.2 3.6.8" class="st5" style="fill:#fff"></path><path id="path12797" d="M187.56 59.885c0 .4-.2 1-.6 1.2-1.6-.4-2.2-2.2-3.4-3.2 1.2-2.8 3.2 1 4 2" class="st1" style="fill:#00854c"></path><path id="path12799" d="M25.46 61.085c0 2.4-.6 5.2 1.2 7-4.2 4.2-7 9.4-10.6 14-.6-4-5-8.6-1.2-12.4-.4-1.8 0-4 1.2-5.4 3.6-.2 4.4-5.6 8.4-5z" class="st1" style="fill:#00854c"></path><path id="path12801" d="M188.16 67.885c-1.4-.4-2.8-3.8-5.2-2.8-1-1.2-.8-3.2-.2-4.4.8-.6 1.6 0 2.2.4 1.2 2.2 3.2 4.4 3.2 6.8" class="st1" style="fill:#00854c"></path><path id="path12803" d="M12.86 68.285c-.2 1-.8 1.2-1.8 1.4-.8-.4-1.8-1-2.6-.2 2.8 1.8 1.8 5 2 7.6-.6.6-1.6.4-2-.2-1.8-2.4-1.4-5.6-3-8.2 2-2.4-1.6-8.8 3.6-7.6 1.8 2.2 3 4.4 3.8 7.2" class="st1" style="fill:#00854c"></path><path id="path12805" d="m190.36 64.885-.4.4c-.6-.4-1.2-1.4-.8-2.2 1 .2 1.2 1.2 1.2 1.8" class="st1" style="fill:#00854c"></path><path id="path12807" d="M60.96 66.085c3 7.6 8 14.4 13.2 21.1l.4.6 4.6 5.6c-1 7.4-7 14-13.8 17.3-9.8 2.8-21.9 1.4-29.3-6.2-6.4-8.4-7.2-21.3-1.6-30.3 4-6.4 10.4-10.2 17.5-10.8 3 .3 7.6-.7 9 2.7z" class="st3" style="fill:#fff;stroke:#fff;stroke-width:.2174;stroke-linecap:square;stroke-miterlimit:2"></path><path id="path12809" d="M79.06 86.785c-5.8-6.2-10.8-13-13.6-20.3 8.2 3.4 13.2 11.8 13.6 20.3z" class="st4" style="fill:#e40520;stroke:#df1d24;stroke-width:.2174;stroke-linecap:square;stroke-miterlimit:2"></path><path id="path12811" d="M21.26 73.485h-.4l.2-5.6c.6 1.4.4 3.8.2 5.6" class="st1" style="fill:#00854c"></path><path id="path12813" d="M162.46 74.285c-.6 4 4.6 6 4.8 10 2.8 3 9.8 2.2 9 8-.8 1.2-2.2 1.6-3.6 1.2-1.6-3.6-5.2-2.8-7.6-1.4-1.4 1.2-2.2 2.8-1.4 4.4 1.2 1.8 3.8 2.6 3.6 5-8.8-.6-5 13.6-14.8 10-5.4-5.6-3.2-14-4.6-21.1-4-3.8-10.4-2-15.6-3.6l.2-.6c7.8-5.2 14.8-12.6 23.3-16.2 2.9-.3 3.9 4.1 6.7 4.3z" class="st3" style="fill:#fff;stroke:#fff;stroke-width:.2174;stroke-linecap:square;stroke-miterlimit:2"></path><path id="path12815" d="M187.56 72.285v.4l-.6-1c.4-.2.4.4.6.6" class="st1" style="fill:#00854c"></path><path id="path12817" d="M104.66 81.485c7.6 13 22.1 15.6 29.3 28.3 2.6 4.2 5.2 8.2 8.4 12-11 15.4-26.9 27.7-43.3 35.1-14.8-10.8-32.3-15.4-46.1-28.3 8.8 0 18.7-1 26.9-4 1.6 4.8 3.8 10 8.4 13.6 5.8 3.8 14.2 5.6 20.9 2.6 5.6-2 11-7.6 12-13.4 1.2-6.4-.2-13-4.4-17.5-6-6-14.2-7.6-21.1-12 1.6-2.8 3.8-5.2 6-7.8-3.8-3.8-7.2-8.2-9.2-13z" class="st4" style="fill:#e40520;stroke:#df1d24;stroke-width:.2174;stroke-linecap:square;stroke-miterlimit:2"></path><path id="path12819" d="M12.86 80.085c.2.4 0 .8-.4.8-.6.2-.8-.2-1.2-.4-.4-1.2 1.8-1.6 1.6-.4" class="st1" style="fill:#00854c"></path><path id="path12821" d="M194.96 82.485c0 1.4-1.2 2.8-2.6 2.8-.8-.2-1.4-.8-1.8-1.6-.2-1.4 1.2-2 2-2.4 1 0 2.2 0 2.4 1.2" class="st1" style="fill:#00854c"></path><path id="path12823" d="M15.06 83.085c-.4 1-1.6 1.6-2.2 2.6-.2-.8.6-2.2-.4-3 .4-1.2 2.6-.8 2.6.4" class="st1" style="fill:#00854c"></path><path id="path12825" d="M183.56 86.285c-.6 0-1-1-.8-1.8z" class="st1" style="fill:#00854c"></path><path id="path12827" d="M189.96 86.285c-.2.6-.4.8-1.2 1-.4-.2-1.4-.4-1-1.2l.8-1.6c.8.2 1.2 1 1.4 1.8" class="st1" style="fill:#00854c"></path><path id="path12829" d="M4.86 87.185c.2.8-.2 1.2-.8 1.6-.6 0-1.4-.8-1.4-1.4-.5-1.7 2.2-1.7 2.2-.2" class="st1" style="fill:#00854c"></path><path id="path12831" d="M183.76 89.985c1 1.6-.4 5.4 2.8 5 1.2.2.8 1.8.6 2.6-.8 1.2-2.4 2.4-1.8 4 1 .6 2.6 1.2 1.6 2.6-.8 2.4-4.6 3.4-3.6 6 .8.6 1.2 1.4.8 2.2l-6.2 6.2-.4-1c.8-4 3.4-7.8 2.8-12h-.4c-1.6 5.8-2.8 12-7.4 16.6h-1.4c1-1.6 2.8-3.6 2.4-6.2l-1.4-.8c2-3 3.2-8 .8-11.4 4.6-1.2-1.2-5.8 1.6-8.6 4-.6 4.6-10.5 9.2-5.2" class="st1" style="fill:#00854c"></path><path id="path12833" d="M7.06 89.985c-.2.6-.4 1-1 1.4-.2 0-.4-.2-.6-.4-.2-.8 1-2 1.6-1" class="st1" style="fill:#00854c"></path><path id="path12835" d="M26.26 107.785c-.8 2.6-2.6 4.8-2.6 7.6-3.2-3.2-4.2-7.8-5.4-12 0-2.4-.8-4.4-2-6.2-.6 0-1 .6-.8 1.2.8 7.6 5.2 13.8 7.2 20.7l-.6.4c-2.6-1.6-4.6-4.2-7.4-5-.4-3-1.4-5.6-3.6-7.6-.4-2 2.8-3.2 1.2-5.4-1.2-1.6-3.2-3.4-1.6-5.4 1.6-.8 1.4-2.6 1.6-4 .2-.6-1.2-1.4 0-1.4 6.2 4.9 8.6 11.9 14 17.1" class="st1" style="fill:#00854c"></path><path id="path12837" d="m149.46 117.385 4.4 2.4c-1.2 3.2 2.2 6.8-1.4 9.4-2 0-4.6.2-5.2 2.6-.6 1.2.2 3-.8 4-1.6-.4-3.6-2.2-5.2-.6-.8 2.6-3.2 2.8-4.8 5 .2 5-1.8 9.4-1.8 14.4l-2.8.8c.6-2.6 3.8-6 1.2-9-.8-.8-2.2-2.2-3.2-.8-1.8 1.6-1.6 4.2-1.6 6.6.4 1.4 2 2.4 1.2 4.2-6.2 2.2-1.8-8.6-8.6-5.4-2.4 3-5.8 5.2-6.4 9-1.8 4.2-6.8 5.2-8.6 8.8-1.4-6.2-9.2-3.6-13.6-4.2-1.4-.8-.2-2.8-.8-4-.8-2.6-4.6-2-4.4-4.6l11 7c11-8.4 23.7-13.4 33.3-24.1 5.6-6 11.2-11.8 17.9-15.8-9.6-8.8-14.2-20.7-25.1-28.9-.8-1.2-3.2-1.4-2.6-3.2 14.4 2 18.6 17.4 27.9 26.4" class="st5" style="fill:#fff"></path><path id="path12839" d="M194.76 92.185c.2.4-.2.8-.6 1-.4-.2-1-.6-1-1.2l.4-.6c.4 0 .8.4 1.2.8" class="st1" style="fill:#00854c"></path><path id="path12841" d="M172.06 95.185c.2 2 1.2 4 .6 5.8h-1.2l-.2 1.4-3.4-1.2c2-3.8-6.4-5-1.4-8.2 2.2-1.6 5.4-.4 5.6 2.2" class="st1" style="fill:#00854c"></path><path id="path12843" d="m194.56 98.785-.4.2c-1.2-1.4-2.4-3.8-3-5.6 2.2.6 3.2 3.6 3.4 5.4" class="st1" style="fill:#00854c" data-source="https://football-logos.cc"></path><path id="path12845" d="M191.16 97.785c0 .4 0 .8-.6 1-.6-.2-1.6-1.6-.4-2.2.6 0 1.2.4 1 1.2" class="st1" style="fill:#00854c"></path><path id="path12847" d="M189.36 101.185c0 .6-.6.6-1 .6-.6-.4-1.2-1.4-.4-1.8.8-.2 1.4.6 1.4 1.2" class="st1" style="fill:#00854c"></path><path id="path12849" d="M9.26 103.785c-.8 1.4-.6 4 .2 5.4 1 .6 2.6 1.2 2.8 2.6 0 .8-.6 1.8-1.4 1.2-2-.6-1.8-3-3.4-3.4-.8 3 2.2 4.8 3.6 7-2.4.4-4.8-2-6.8-3.6-2.2-2.2.4-4.4.2-6.8.2-1.8-2.8-3-1.2-4.6 2 1 5.4-.8 6 2.2" class="st1" style="fill:#00854c"></path><path id="path12851" d="M104.06 106.185c0 6-3.6 10.8-7.8 15l.6.6 18.1.2c.4 4.2-1.8 7.8-4.6 11-3.8 4-9.2 5.4-15 4.2-3.4-1-6.8-3.8-8.2-7.4-1.8-4.8 0-10 2.8-14l3-2.6-.6-.4c-11.2 6.8-23.5 12.6-37.7 11-5-.8-10.2-1.2-15-3.2l-.8 1c0-1.2 1.6-2.6 0-3.6l-.6-.4c-3 .8-3.2 6.8-7 3.6 1-1.6 3.4-3.2 3.2-5.4-1.4-1.6-3.4-1.6-4.8-3-.6 1.8-2.4 1-3.4.4-1.4-1.8.8-3.2.8-4.6 11.2 11.2 26.9 16.6 42.5 11.2 9-2.6 17.9-9 22.7-17.3 4.4.5 8 2.5 11.8 3.7" class="st5" style="fill:#fff"></path><path id="path12853" d="M191.36 105.385c-.4.4-.8.8-1.2.4-.8-.6-.2-1.6.4-1.8 1-.2 1.2.8.8 1.4" class="st1" style="fill:#00854c"></path><path id="path12855" d="M188.76 108.185c0 .2-.4.4-.6.4-.8-.4-.2-1.2.2-1.2s.8.4.4.8" class="st1" style="fill:#00854c"></path><path id="path12857" d="M27.86 116.185v.4c-.6 0-1-.8-1-1.4.4.2 1 .4 1 1" class="st1" style="fill:#00854c"></path><path id="path12859" d="M32.86 116.785c.4.4-.2.8-.6 1-.8-.2-1.6-.2-2-1-.4-1.8 2.4-1.2 2.6 0" class="st1" style="fill:#00854c"></path><path id="polygon12861" d="M40.5 136.9v.4l-.6-.4z" class="st1" style="fill:#00854c" transform="translate(-13.64 -18.715)"></path><path id="path12863" d="M191.36 119.985c-.2.8-1 1.2-1.8 1.6-.8 0-1.4-.6-1.4-1.4-.2-1 .8-1.4 1.6-1.6.6.4 1.4.6 1.6 1.4" class="st1" style="fill:#00854c"></path><path id="path12865" d="M167.66 119.385c-.6 1.8 1.2 5-1.8 5.2-1.4.2-1.8-1.8-2.8-2-.8 1.6 1.4 2.2 1.6 3.6-.2 1.4.4 3.4-1.2 4l-2.6-1c-1.2 1-.4 3.2-2.2 4l-1-1c-.8-3.8-2.8-7.6-2.6-11.6 4.2.7 8.8.2 12.6-1.2" class="st1" style="fill:#00854c"></path><path id="path12867" d="M18.66 121.685c-.6 0-.6-1-.4-1.4.6.3.8.8.4 1.4" class="st1" style="fill:#00854c"></path><path id="path12869" d="M186.36 121.085c.4.8-.6.6-1 1l-.6-.2c-.6-1.1 1.4-2.1 1.6-.8" class="st1" style="fill:#00854c"></path><path id="path12871" d="M35.26 126.685c-.8 1.6-2 3.4-1 5.2.8 1.6 2.6 1.6 4 1 .6 0 .8-.8 1.4-.4-.6 5.6 6 8.4 4.8 14.2.2 0 .2 0 .4.2-1.4 1.4-4.2 1-6.2.4.6-1-.8-1.2-1.4-1.4-1.2-5-7-3.6-9.2-7 2.2-3.6-3-4.4-4.4-6.8 2.4-3.4-3.2-9.8 2.8-10.6 2.8 1.8 6.8 2 8.8 5.2" class="st1" style="fill:#00854c"></path><path id="path12873" d="M40.36 123.285c1 1 3.6 2.6 2.2 3.6.4.8.6 1.8.6 2.6-3-1-5.2-4.2-6.6-7 1.7-1.4 3 2 3.8.8" class="st1" style="fill:#00854c"></path><path id="path12875" d="M177.96 123.885c-.8 2.4 0 5 2.6 5.4.2 3.4-4 3.6-5.8 5.8-.2 2 2.8 1.4 1.6 3.4-2 1.8-5.8 1.6-6.6 4.6 0 .8 1 1.4.4 2.2-5.8.4-6.2 8.2-11.8 8.8-.4.4-.8 1-1.4 1 .8-1.4 2-3 1-4.6-.6-1.8-2.4-.6-3.4-.6 2.4-4.4 3.4-9.4 6.6-13.4-.2-1.4-.6-3.6 1.4-3.6 5.8 1 1.4-6.6 6.2-7.2 4.1 1.4 6.7-6.1 9.2-1.8" class="st1" style="fill:#00854c"></path><path id="path12877" d="M38.06 127.285v.2c-.2.2-1.4-.4-1-1 .6-.2 1 .4 1 .8" class="st1" style="fill:#00854c"></path><path id="path12879" d="M73.86 147.285c-1.2.4-3 1-3.4 2.6s-.6 3.4-.2 5.2h-.8c.8-6-5-9-7.8-13.6l-4-1.2c-1-.8-2.4-4.4-4.4-2.4-1 1.8-2.6 3.4-2.2 5.8-4.6-1.4.6-7.4-4.6-8.6-.8-1.2 1.8-4.6-1-5l-1.8-3.4c9.1 9.2 20.1 13.6 30.2 20.6" class="st5" style="fill:#fff"></path><path id="path12881" d="M18.06 129.685c0 .8-.8 1.4-1.4 1.6-.4-.2-1.4-.2-1.4-1 0-1 .6-1.8 1.4-2 .8.2 1.2.6 1.4 1.4" class="st1" style="fill:#00854c"></path><path id="path12883" d="M187.76 133.485c-.6.8-1 2-2.2 2.2l-1.4-.6c-.4.6-.4 1.4-1 1.6-1.2 0-1.6-1.2-1.8-2-.2-.6 0-1.2.4-1.6.8-.2 1.2.6 1.6 0 .2-1.2-1-2.4 0-3.8 1.4.4 1.4 2.6 2.8 3.2.8-1.4-1-2.4-.4-3.8 1.6.6 1.2 3.2 2 4.8" class="st1" style="fill:#00854c"></path><path id="path12885" d="M38.06 139.885c1 .6 2.2 2.2 3 3.4-4.2-2.2-7.6-6.8-10.4-10.6l-1.6-3.8c3.8 3 5.4 7.4 9 11" class="st2" style="fill:#020302"></path><path id="path12887" d="M156.66 135.285q-1.5-2.7-2.4-6l.4-.4c1.6 1.6 2.4 4 2 6.4" class="st1" style="fill:#00854c"></path><path id="path12889" d="M13.86 130.085c.2.4-.2.8-.6 1-.6.4-1.4-.2-1.6-.8 0-1.4 2.2-1.4 2.2-.2" class="st1" style="fill:#00854c"></path><path id="path12891" d="M150.86 132.685c.2.6-.6 1.2-1.2 1.2-.6.2-1-.6-1-1 0-.8.2-1.6 1-1.8.6.2 1.4.6 1.2 1.6" class="st1" style="fill:#00854c"></path><path id="path12893" d="M171.46 133.085c-1.6 5.8-6.4 11.2-11.4 15.4 2.4-3.6 5.8-6.4 8.2-10.2 1.2-1.6 1.6-4.2 3.2-5.2" class="st2" style="fill:#020302"></path><path id="path12895" d="M181.76 140.685c-2 .2-1-2.8-2-4.2-.6-.6-2.2-1.4-.8-2 1 1.8 3 3.8 2.8 6.2" class="st1" style="fill:#00854c"></path><path id="path12897" d="M156.26 140.085c-.6 4-2 8.2-5.2 10.8 1.2-5 1-11 3.4-15.8 1.6 1.2 0 3.8 1.8 5" class="st1" style="fill:#00854c"></path><path id="path12899" d="M151.66 135.885c0 .4-.2 1-.8 1.2h-.8c-.4-1 1-1.4 1.6-1.2" class="st1" style="fill:#00854c"></path><path id="path12901" d="M147.06 143.085c.6 4.6-4 7.8-6.8 11.4-.8.6-1.6 1.4-2.8 1.2-2.2-2.2-.6-5.6 0-8.2 0-3.2-.8-8.4 4-8.8.6-.6.8-3 2.4-2 2.2 1.6 1 4.6 3.2 6.4" class="st1" style="fill:#00854c"></path><path id="path12903" d="M150.06 141.685c-.2 2.6 0 5.8-2.2 7.4-.6-1.4 1.4-2.4 1.6-3.8 1-3-2-4.2-2-6.8 1.2.6 2.8 1.6 2.6 3.2" class="st1" style="fill:#00854c"></path><path id="path12905" d="m180.16 143.085-.6.6c-1.6-.8-2.2-2.8-1.6-4.4l.4-.6c1.8.6 1.6 2.8 1.8 4.4" class="st1" style="fill:#00854c"></path><path id="path12907" d="M63.96 147.085c.6.8.6 2.4 0 3.4-1.6.6-1.4-2.8-3.4-1.8 0 2.2-2.6 2-4.2 1.8-2.8-1-2.6-4.2-3.6-6.6 0-1.8 0-3.8 1.8-4.6 1.4 5.2 8.4 1.8 9.4 7.8" class="st1" style="fill:#00854c"></path><path id="path12909" d="M28.46 142.885c1.6 1 4 0 4.8 2.2-3.2 1-6.4-.6-9.6-.8-.8.8.4 1.6 1 1.8 2.2.8 5 .6 7 1.6-2.2 1.6-5.6 1.6-8.6 2-2.2-.2-1.4-2.6-2.4-3.8-1.2-1.2-4-1-3.8-3.4 2.4-.4 4.4-2 6.6-3 2.4-.4 3 2.8 5 3.4" class="st1" style="fill:#00854c"></path><path id="path12911" d="M177.76 143.285c0 .4 0 .8-.4 1-1.2-.2-1.6-1-1.8-2l.4-.6c.8 0 1.4.8 1.8 1.6" class="st1" style="fill:#00854c"></path><path id="path12913" d="M174.86 143.685c0 .4.2 1.2-.4 1.2-1 0-1.8-1.2-2.2-1.8v-1.2c1.2-.4 2.2.8 2.6 1.8" class="st1" style="fill:#00854c"></path><path id="path12915" d="M43.56 146.285c-1.2 0-2.4-1.2-2.4-2.6.8.8 2.2 1.4 2.4 2.6" class="st1" style="fill:#00854c"></path><path id="path12917" d="M131.96 147.485c0 .6-.6 1-1 1.4-1 .2-1-1.2-.8-1.6.4-1 2-.6 1.8.2" class="st1" style="fill:#00854c"></path><path id="path12919" d="M142.06 147.285c-.4 2.8-1.6 5.6-3.6 7.4.9-2.4 1.9-5.4 3.6-7.4" class="st2" style="fill:#020302"></path><path id="path12921" d="M78.66 150.285c0 1.8-1.2 3.2-2 4.8-.4-2.4-.8-5-2-7.2 1.6.2 3 1.2 4 2.4" class="st1" style="fill:#00854c"></path><path id="path12923" d="M53.36 151.085c4-.2 6.2 3.4 7.8 6.4 1.4 1 3.4 1.8 4 3.6-2.4 4.2-6-.8-8.8-2.4-1.6-1.6-3.4-3.4-5.2-4.4l-.4.2c3 4.4 7.4 7.6 11.8 9.8.6 1-1.4 1.6-.4 2.8-2.6.6-6.6 1-8.4-1.2 0-1.6.2-4.6-2.4-4-2.4.6-4.4-.6-5.4-2.6 1-3.6-4-6-1.8-9 2-1.6 4.6-1.6 6.8-2z" class="st1" style="fill:#00854c"></path><path id="path12925" d="M74.26 151.485c.2 1-.8 1.2-1.4 1.2-1-.2-1-1.4-.8-2 .8-1.2 2.6-.6 2.2.8" class="st1" style="fill:#00854c"></path><path id="path12927" d="M41.76 153.485c-.8 1.2-3.2-.2-3.8 1.2v2.6c-2.6-.2-1.4-4-3.8-5 1.4-2.8 4.2-.2 6.2.2.6.2 1 .4 1.4 1" class="st1" style="fill:#00854c"></path><path id="path12929" d="M156.26 151.485c0 4.4-6.4 6.4-6.6 10.8-1 1.6-3 3.2-5 2l-1.8-.6c.2 3-3.4 4.2-5.6 5.4-1-.4-2.6-.2-3.2-1.6 3-1.8 8-3.8 8.2-7.6l-8.4 6.8c1.2-3 2.8-6 4.4-8.6 4.6.6 5.4-5.6 9.4-5.6 2.8-.6 6.2 1.2 8.6-1" class="st1" style="fill:#00854c"></path><path id="path12931" d="m64.96 157.385.6.8c-2.8-1.2-3.6-4.4-6-6 2.4-1.6 3 2 5 3z" class="st1" style="fill:#00854c"></path><path id="path12933" d="M86.46 158.385c1 1.4 4.8.8 3.2 3.8-1.2.8-.6 2.6-2.4 2.8-3.6-1-8.2-2-9.4-6.4-1.4-2.6 1.8-4.4 2.6-6.4 2.8.7 5.2 3.6 6 6.2" class="st1" style="fill:#00854c"></path><path id="path12935" d="M124.96 159.785c.8 1.2 0 2.6-.8 3.6-1.2 3-3-.6-4.6-.4-1.2-.2-2.8.4-3.8-.6 2.2-2-.2-6.6 3.8-7.2l1.8-1c.8 1.8.6 5.2 3.6 5.6" class="st1" style="fill:#00854c"></path><path id="path12937" d="M73.86 155.485c-1.2.6-3 3.6-4.4 1.4 2.5.7 2.7-3.8 4.4-1.4" class="st1" style="fill:#00854c"></path><path id="path12939" d="M170.86 156.185c-.6.2-1 .8-1.8.6s-.4-1 0-1.4c.6-.9 2.4-.7 1.8.8" class="st1" style="fill:#00854c"></path><path id="path12941" d="M33.66 156.785c.4.8-.4.8-1 1-.4-.2-1-.4-1.4-1 0-1.3 2.6-1.7 2.4 0" class="st1" style="fill:#00854c"></path><path id="path12943" d="M135.36 156.785c-1.6 3.4-4.2 7.4-8 8.4.4-.8 1.2-1.4 1-2.2-.4-.4-1-.2-1.4.4 2.4-2.8 3-8 7.8-7.4z" class="st1" style="fill:#00854c"></path><path id="path12945" d="M160.06 164.985c-2 0-1.6-2.6-3-3.8-.8 0-.6 2-2 1.4l-1-1.6c.8-1.6 2.4-2.2 3.8-3 1.4 1.8 3 4.4 2.2 7" class="st1" style="fill:#00854c"></path><path id="path12947" d="M162.66 164.985c-1.4-.4-.8-2.2-1.2-3.4l.2-.8c.6 1.2 1.8 2.8 1 4.2" class="st1" style="fill:#00854c"></path><path id="path12949" d="M78.06 165.185c4.4.4 7.8 4.2 9.6 7.8l.8.6c-4.4-1.2-8.8-2.8-12.8-4.8l-.4.4c3.8 3.4 9 4.6 13.8 6.2-3-1-6.2.2-9 1-1.6.2-2.6-1.4-3.6-2.2-3.2.6-5.6-2-8-3.6-.2-2.4-3.8-4.2-1.8-7 1.8-1.6 4.2-1.2 6-2 2.6-.6 3.4 2.4 5.4 3.6" class="st1" style="fill:#00854c"></path><path id="path12951" d="M47.96 165.185c.4.6.2 1.8-.8 1.8-.6-.2-1 0-1.6.4 1 1.6 4.6 3.2 3.8 5.4-1 .4-2.6 1.2-3.6 0 .6-6.6-11.6-.6-7.6-8.2 2.4-3 7.8-2.2 9.8.6" class="st1" style="fill:#00854c"></path><path id="path12953" d="M154.86 168.185c-.2.6-1.2.4-1.6 0-.4-.8-1.4-2.2-.2-2.8 1.2.4 2 1.8 1.8 2.8" class="st1" style="fill:#00854c"></path><path id="path12955" d="M158.06 166.985q0 .6-.6 1.2c-.8-.2-1.2-1-1.2-1.6l.2-1c1-.2 1.2.8 1.6 1.4" class="st1" style="fill:#00854c"></path><path id="path12957" d="M150.66 167.785c-.6 0-1-.4-1.2-1 .4-1.4 2 .2 1.2 1" class="st1" style="fill:#00854c"></path><path id="path12959" d="M94.46 169.385c.4 2.2-2.2 1.2-2.8 2.2-1.2-1.2-2.4-2.8-3-4.6 2.2-1.2 5.2 0 5.8 2.4" class="st1" style="fill:#00854c"></path><path id="path12961" d="M131.36 168.585c.2 3.2-6.2 3.2-5 7.4-2.8 4.4-8.2-.8-11 3.2-3.4-.6-7.2-.8-10.4-2.2 5.6-.2 11.6-.6 15.8-3.8-4.2-.4-8.4 2.2-13 2.6-2-.4-3.6.4-5.4.2 4.8-3.4 10-8.4 16.4-7.6 1.8.2 3.8-.2 5.2-1.4 2.4 1.2 6.2-2.2 7.4 1.6" class="st1" style="fill:#00854c"></path><path id="path12963" d="M102.66 168.785c.2 1-1.4 1.8-2.2 1.8-.6-.2-1.4-.4-1.4-1.2-.2-1 1.2-1.2 1.8-2 .8 0 1.8.4 1.8 1.4" class="st1" style="fill:#00854c"></path><path id="path12965" d="M51.36 170.585v.4c-.8.2-1.6-.8-1.2-1.4.6 0 .8.6 1.2 1" class="st1" style="fill:#00854c"></path><path id="path12967" d="M67.76 171.385c-1.8 2.8-5.4 2.2-8.2 3.6-.4 0-1.2-.4-1.4-1-.4-1.8 2-1.8 3.2-2.4 2 0 4.6-1.6 6.4-.2" class="st1" style="fill:#00854c"></path><path id="path12969" d="m98.46 173.785-.4 2c-1.2.2-3 0-3.6-1.6 0-1 .6-2.2 1.8-2.2 1.4-.6 2 .8 2.2 1.8" class="st1" style="fill:#00854c"></path><path id="path12971" d="M131.36 178.785c-.2.8.4 2.6-1 2.6-1.4-.8-1.8-2.6-1.8-4.2.8-2.8 2.4.6 2.8 1.6" class="st1" style="fill:#00854c"></path><path id="path12973" d="M76.26 181.785v2.2c-2-1.8-4.2-4.2-5-6.8.8-1 1.6.2 2.2.6.4 1.6 1.6 3 2.8 4" class="st1" style="fill:#00854c"></path><path id="path12975" d="M61.16 177.585c-.2.2-.6 0-.8.2v-.8c.6-.2.6.2.8.6" class="st1" style="fill:#00854c"></path><path id="path12977" d="M133.16 178.985v.6c-.6-.2-1.6-1.6-1-2.6 1.4-.4 1 1.2 1 2" class="st1" style="fill:#00854c"></path><path id="path12979" d="M141.86 177.585c0 .4-.2.8-.6.8-.4.2-.6-.2-.8-.4.1-.4 1.1-1.4 1.4-.4" class="st1" style="fill:#00854c"></path><path id="path12981" d="M57.56 178.985c-.2.2-.6 0-1 .2l.2-.8c.4 0 1 0 .8.6" class="st1" style="fill:#00854c"></path><path id="path12983" d="M81.46 178.985c0 .2-.2.6-.4.6-.4 0-.6-.2-.8-.4-.2-.8 1-1.2 1.2-.2" class="st1" style="fill:#00854c"></path><path id="path12985" d="M128.16 181.185c.2.4 0 1-.6 1-.8 0-1.2-.8-1.6-1.2-.4-2.4 2.8-1.8 2.2.2" class="st1" style="fill:#00854c"></path><path id="path12987" d="M78.06 180.585c-.2-.2-1.2-.2-.6-.8.4.2.8.2.6.8" class="st1" style="fill:#00854c"></path><path id="path12989" d="m121.96 181.385-.2 1.4c-1 .4-2-.6-2.6-1.4l.6-1.6c1.2 0 1.6 1 2.2 1.6" class="st1" style="fill:#00854c"></path><path id="path12991" d="M73.06 182.785c-.8-.4-2.4-1.6-2-2.8 1.1.6 2 1.6 2 2.8" class="st1" style="fill:#00854c"></path><path id="path12993" d="M124.96 181.385c0 .6-.2 1-.8 1.2-.8-.4-1.2-2.2-.2-2.6.6 0 1 .8 1 1.4" class="st1" style="fill:#00854c"></path><path id="path12995" d="M70.36 182.785c-.8.4-1.2-.4-1.8-.8l.4-.6c.8 0 1 .8 1.4 1.4" class="st1" style="fill:#00854c"></path><path id="path12997" d="M107.96 188.385c-1.6.8-2.8-1-3.4-2.2l-1.4-4.8c2.7 1.6 3.9 4.4 4.8 7" class="st1" style="fill:#00854c"></path><path id="path12999" d="M90.26 182.185c0 1.2-1.2 1.4-2 2.2l-.2-.2c.4-.8.8-2.6 2.2-2" class="st1" style="fill:#00854c"></path><path id="polygon13001" d="m142.8 28.2 1.4 1.4z" class="st1" style="fill:#00854c" transform="translate(-13.64 -18.715)"></path><path id="polygon13003" d="m49.1 187.5 1.8 1.8z" class="st1" style="fill:#00854c" transform="translate(-13.64 -18.715)"></path><path id="path13005" d="M160.76 73.985c12.4 4.7 16.9-14.1 3.8-16.7-3.4-.4-7.7.9-7.7.9" style="fill:none;stroke:#fff;stroke-width:.69999999;stroke-miterlimit:3.86369991"></path><path id="path13007" d="M165.16 101.085c11.9-.7 9.3 8.6 8.9 10.7-1.8 5.7-8.3 12.5-22.4 7.5m-113.7-70.7c0-2.7 2.2-4.9 4.9-4.9s4.9 2.2 4.9 4.9-2.2 4.9-4.9 4.9-4.9-2.2-4.9-4.9zm24.2 0c0-2.7 2.2-4.9 4.9-4.9s4.9 2.2 4.9 4.9-2.2 4.9-4.9 4.9c-2.7.1-4.9-2.1-4.9-4.9zm-28.1 13.3c-10.5 6.3-14.5 15.5-18.2 19.9-3 3.1-5.6 6.3-5.5 7.2s5.3 4.9 6.7 7c5.9 8.8 8.4 11.6 12.4 15.1" style="fill:none;stroke:#fff;stroke-width:.75;stroke-miterlimit:3.86369991" data-source="https://football-logos.cc"></path><!-- source: https://football-logos.cc --></svg>