<svg xmlns="http://www.w3.org/2000/svg" viewBox="0 0 275 355.32"><!-- Source: https://football-logos.cc --><path fill="#140e0c" d="M274.918 214.02c-.14-.608-.293-.882-2.265-4.305-1.234-2.139-2.921-5.067-4.351-7.711-2.035-3.758-5.723-15.241-6.05-16.509l-.223-.864-.065-.059a16.3 16.3 0 0 0-2.12-4.058c-1.22-1.692-2.712-3.035-4.435-3.994-1.73-.965-3.652-1.519-5.713-1.648-.383-.024-.77-.037-1.15-.037-3.07 0-6.04.782-8.828 2.324-2.234 1.236-3.81 2.652-4.753 3.498-.265.238-.56.514-.876.83-2.433-8.95-6.056-25.053-5.582-40.224.692-22.284 12.278-41.38 16.64-48.57l2.605-4.128-34.154-30.058-.088-.088-.88-.878H62.369l-.88.88-.088.088-34.153 30.057s2.306 3.635 2.518 3.985l.086.14c4.362 7.19 15.948 26.288 16.641 48.572.472 15.171-3.148 31.274-5.582 40.224a23 23 0 0 0-.876-.83c-.942-.846-2.52-2.262-4.755-3.498-2.787-1.542-5.757-2.323-8.826-2.323-.38 0-.767.012-1.15.036-2.062.13-3.984.683-5.714 1.648-1.722.959-3.214 2.302-4.435 3.993a16.3 16.3 0 0 0-2.096 3.993l-.072.06-.24.93c-.327 1.267-4.013 12.746-6.049 16.508-1.431 2.645-3.12 5.574-4.352 7.713-1.972 3.42-2.125 3.695-2.264 4.303-.06.259-.218.951.177 2.617.181.763.54 1.944 1.218 3.242 1.154 2.202 3.445 5.14 7.81 6.62l.526.178c.531 6.72 1.962 12.788 4.363 18.526a57 57 0 0 0 3.614 7.16l.042.058-.009 5.213-.038 21.05-.003 1.624 1.358.892 26.717 17.548.013.01.013.008.19.122 2.506 1.608 1.508-2.303.83.66-.35.915c-.926 2.438-1.156 4.938-.666 7.232.533 2.498 1.891 4.65 3.929 6.228 2.25 1.741 5.19 2.624 8.74 2.624 2.317 0 4.46-.387 5.85-.714l.85-.199c-.09 1.216-.104 2.722.163 4.333.483 2.908 1.737 5.297 3.73 7.096.903.816 2.608 1.966 5.605 2.805 2.002.562 4.168.87 6.098.87 1.182 0 2.224-.118 3.096-.35l.02-.006.02-.005.02-.005c.006.852.087 1.949.335 3.13.588 2.804 1.914 5.14 3.837 6.755 4.066 3.415 8.005 4.13 10.593 4.13.873 0 1.603-.082 2.155-.176-.002 1.226.157 2.836.793 4.486.864 2.238 2.854 5.168 7.433 6.408 1.147.31 2.32.468 3.481.468 2.107 0 4.184-.507 6.166-1.51a16.6 16.6 0 0 0 3.905-2.77l.207.148c1.368.98 3.023 2.102 4.926 2.986 2.294 1.067 4.49 1.584 6.717 1.584.91 0 1.83-.091 2.73-.27 3.605-.721 6.544-2.724 8.497-5.792 1.106-1.734 1.853-3.785 2.11-5.71q1.216.38 2.69.38c.958 0 1.86-.116 2.616-.23 2.13-.32 5.046-1.426 6.835-3.57 1.807-2.161 2.85-4.928 2.933-7.788q.002-.105.002-.21c1.274.727 2.985 1.098 5.112 1.098.787 0 1.572-.055 2.153-.15 1.853-.307 4.717-1.445 6.605-3.025 3.36-2.81 4.242-6.335 3.688-9.372.699.16 1.423.244 2.164.244 1.697 0 3.503-.428 5.22-1.238 1.374-.646 2.64-1.518 3.478-2.389.524-.546 1.8-2.048 2.606-4.432l2.374-1.262 24.462-13.002.24-.128 1.206 1.844 2.516-1.653 26.894-17.673 1.358-.893-.002-1.623-.035-20.841-.009-4.998.196-.27a57 57 0 0 0 3.613-7.16c2.403-5.738 3.833-11.806 4.363-18.524l.529-.18c4.364-1.48 6.655-4.418 7.808-6.62a14 14 0 0 0 1.218-3.242c.396-1.666.237-2.358.178-2.617" data-source="https://football-logos.cc"></path><path fill="#ed1c24" d="M138.948 67.84h-2.896v58.393h2.896zM209.79 69.298l-1.151-1.458h-1.745v85.751l2.895.018zM206.894 166.553v23.929l2.895 3.65v-30.045q-.613.512-1.351 1.098zM186.174 67.84h-2.895v85.685h2.895zM162.56 67.84h-2.894v58.393h2.895zM115.333 67.84h-2.895v71.464h2.895zM91.72 67.84h-2.896v64.828h2.896zM90.753 199.789a19 19 0 0 0 .967-1.846v-31.925c-.826-1.755-1.783-3.1-2.896-4.06v40.26c.703-.647 1.34-1.45 1.93-2.43M68.106 67.84H66.36l-1.15 1.458v87.918a25 25 0 0 1 2.896-1.744zM136.052 275.591c.614.511 1.095.934 1.448 1.253a47 47 0 0 1 1.448-1.252V210.75h-2.896z"></path><path fill="#ed1c24" d="M138.948 67.84h-2.896v58.393h2.896zM209.79 69.298l-1.151-1.458h-1.745v85.751l2.895.018zM206.894 241.177q1.5-1.045 2.895-2.122v-28.31h-2.895zM206.894 166.553v23.929l2.895 3.65v-30.045q-.613.512-1.351 1.098zM183.28 253.374a176 176 0 0 0 2.894-1.179v-41.45h-2.895zM186.174 67.84h-2.895v85.685h2.895zM162.56 67.84h-2.894v58.393h2.895zM159.666 262.647c.98-.47 1.948-.917 2.895-1.343v-50.558h-2.895zM115.333 67.84h-2.895v71.464h2.895zM112.438 261.304q1.422.639 2.895 1.343V210.75h-2.895zM91.72 67.84h-2.896v64.828h2.896zM88.824 252.195q1.417.591 2.896 1.18v-42.643q-1.41.363-2.896.602zM90.753 199.789a19 19 0 0 0 .967-1.846v-31.925c-.826-1.755-1.783-3.1-2.896-4.06v40.26c.703-.647 1.34-1.45 1.93-2.43M68.106 67.84H66.36l-1.15 1.458v87.918a25 25 0 0 1 2.896-1.744zM65.21 239.055q1.395 1.077 2.896 2.122V208.49a26 26 0 0 1-2.896-1.736z"></path><path fill="#fff200" d="M194.567 303.583a16.4 16.4 0 0 0-3.735-5.227l-.149.055q-1.479.54-2.997 1.08a163 163 0 0 0-15.21 6.274l10.26 10.807c3.878 3.027 8.986.216 10.5-1.36 1.06-1.103 3.61-4.775 1.882-10.246q-.252-.719-.551-1.383M193.934 297.204a19.3 19.3 0 0 1 2.744 3.869 19.7 19.7 0 0 1 2.296 7.875l24.46-13.003-5.934-9.077c-6.898 3.563-14.684 6.98-23.566 10.336M169.634 307.147c-5.849 2.913-10.705 5.79-14.521 8.278l5.607 5.994 7.069 7.587c1.382 1.472 4.927 1.274 5.969 1.103 1.471-.243 3.774-1.198 5.167-2.365 3.706-3.098 3.053-6.933 1.668-8.983zM152.552 317.14c-5.871 4.033-9.468 7.242-10.862 8.556l-.078.078-1.997 2 8.451 8.9 3.271 3.126c1.386 1.407 3.646 1.19 5.43.924 1.446-.218 3.716-1.02 4.974-2.524 3.102-3.711 2.517-8.672 1.037-10.47zM249.9 262.76c-7.094 8.051-16.154 15.11-27.7 21.58q-1.002.561-2.031 1.118l6.988 10.69 26.894-17.671-.033-20.84a71 71 0 0 1-4.118 5.123M55.669 310.851c3.435 2.66 8.68 2.156 12.065 1.36l-14.358-11.375c-1.436 3.776-.762 7.65 2.293 10.015M98.32 316.795c-.086-.73-.507-1.885-1.433-2.929-.709-.8-1.974-1.813-3.979-2.086-2.912-.401-11.408.793-20.53 2.238-.276 2.282-.607 7.045 2.8 10.121 2.603 2.353 9.103 3.425 12.012 2.651a33 33 0 0 0 3.542-1.206l1.135-.503c6.45-3.061 6.607-6.985 6.453-8.286M114.246 335.716q.443-.269.972-.577a41 41 0 0 0 1.888-1.21c1.59-1.095 2.092-2.817 2.233-4.07.286-2.504-.629-5.323-2.328-7.178-3.193-3.485-5.587-2.604-7.697-1.825-.225.081-.437.16-.646.231-1.551.526-4.091 1.65-11.635 4.993l-4.105 1.818q-.408.19-.842.371l-1.019.451c-.093.699-.312 5.71 3.059 8.541 5.762 4.836 11.01 3.137 11.01 3.137 1.01-.253 5.4-2.512 8.864-4.535zM123.792 335.993c-1.527-.632-3.48-.051-5.206.76l-1.334.687c-.545.302-1.04.6-1.458.85-.392.237-5.889 3.283-7.79 4.17-.168 1.542-.39 7.333 5.949 9.05 4.66 1.26 8.685-.955 11.207-3.598 1.101-1.339 2.11-2.62 2.538-4.014.275-.891.264-2.526-.378-4.163-.487-1.242-1.495-2.9-3.528-3.742M52.64 284.34c-11.544-6.47-20.605-13.529-27.698-21.58a71 71 0 0 1-4.115-5.12l-.038 21.05 26.717 17.548.19.122 7.095-10.838a165 165 0 0 1-2.151-1.182"></path><path fill="#fff200" d="M133.598 326.127c-.45-.443-4.319-4.194-11.402-9.052-7.091-4.865-18.926-11.863-35.04-17.584-11.483-4.076-21.257-8.209-29.702-12.564l-5.715 8.74 19.495 15.49c11.256-1.79 18.879-2.793 22.082-2.354 2.31.316 4.322 1.378 5.82 3.072 1.178 1.33 1.988 3.037 2.168 4.57.107.912.132 2.75-.883 4.85 4.192-1.85 5.998-2.618 7.28-3.052.173-.06.368-.132.573-.207 2.235-.825 6.397-2.358 10.952 2.617 2.295 2.506 3.483 6.164 3.099 9.546a9.8 9.8 0 0 1-.637 2.55c1.091-.089 2.194.029 3.254.468 2.349.973 4.186 2.9 5.175 5.423.81 2.065.983 4.417.453 6.14-.402 1.307-1.1 2.453-1.893 3.525 3.06 2.193 7.148 4.77 12.034 3.795 6.409-1.283 8.297-7.276 8.294-9.994l-13.7-14.273z"></path><path fill="#140e0c" d="m149.743 318.624.113-.082z"></path><path fill="#fff200" d="M138.159 204.349h5.506c.582-2.388.99-5.824 1.018-10.755h-1.776l-.457-1.835c-1.217-4.893-2.838-6.308-7.238-6.308q-.124 0-.253.004v13.896c0 2.474.08 3.638.26 4.032.37.927 1.978.966 2.94.966M178.408 153.063c1.545.341 4.375.728 4.652-.875.477-2.348.366-4.295-1.861-4.84-1.893-.462-8.463 4.086-11.423 6.093h4.816c1.244-.497 2.62-.732 3.816-.378"></path><path fill="#fff200" d="M271.989 214.78c-.09-.392-3.609-6.229-6.33-11.256-2.227-4.116-5.996-15.946-6.316-17.187l-.003-.002c-.054-.21-.556-2.068-1.933-3.972-1.932-2.677-4.662-4.198-7.9-4.403-6.489-.408-10.725 3.398-12.535 5.022-.958.86-2.561 2.48-4.18 4.902-1.834-5.886-7.9-26.967-7.29-46.623.72-23.075 12.603-42.662 17.077-50.036l.666-1.1-.002-.001.547-.855-10.882-9.602q.524-.3 1.007-.609c4.084-2.622 9.602-6.731 8.983-9.14-.59-2.307-9.92 1.272-16.412 4.075l-.794-.701c4.914-3.25 11.853-8 14.951-10.875 5-4.757 10.67-11.218 10.67-13.842 0-2.621-7.933 3.914-8.906 4.646-7.51 4.787-21.15 11.636-21.15 11.636s19.082-11.16 26.273-18.72c5.247-5.487 8.781-13.904 2.99-8.658-5 4.571-25.181 17.866-27.981 18.782 0 0 25.236-18.354 29.87-26.589 4.695-8.23 5.608-13.84 0-7.684-5.61 6.223-20.363 17.989-30.786 23.784 0 0 21.852-31.16 23.969-38.437.96-3.304.843-7.042-.07-7.042 0 0-10.854 15.173-14.206 20.051s-19.263 21.706-31.947 32.5c-2.293 1.966-4.264 3.776-6.002 5.508a37 37 0 0 0-2.714 2.285H81.928c-2.186-2.198-4.18-4.083-5.586-5.292-4.268-3.781-40.724-37.257-43.893-41.341C30.374 11.38 22.757.678 22.757.678c-.488.06-.186 2.716.851 5.824 4.146 11.586 11.645 21.892 12.924 23.72 1.342 1.89 20.24 22.255 20.24 22.255s-12.194-9.145-15.363-12.5c-3.17-3.353-11.4-10.182-16.643-18.17-5.243-8.05-1.465 3.782-.181 6.404 3.718 7.681 11.765 18.11 21.52 26.89l7.82 5.666S42.69 54.369 37.692 49.673c-5.06-4.634-14.39-12.926-11.218-6.341 3.207 6.825 19.973 21.495 24.893 24.718l.595.368a11 11 0 0 1-.595-.368c-3.168-1.957-18.06-11.178-21.54-13.681-3.965-2.805.914 6.524 3.719 9.878 1.794 2.184 8.267 6.734 14.365 10.279l-1.536 1.357c-2.327-.72-4.44-1.421-5.59-1.917-3.597-1.462-8.52-2.402-4.984 1.927 1.128 1.36 2.948 3.012 5.26 4.684L31.21 89.27s.966 1.55 1.212 1.956c4.473 7.374 16.357 26.96 17.075 50.036.612 19.656-5.454 40.737-7.29 46.623-1.618-2.422-3.22-4.041-4.179-4.902-1.809-1.624-6.046-5.43-12.535-5.022-3.237.205-5.969 1.726-7.901 4.403-1.376 1.904-1.879 3.761-1.932 3.972l-.002.002c-.32 1.241-4.09 13.071-6.317 17.187-2.72 5.027-6.24 10.864-6.33 11.257-.09.39.686 6.74 7.241 8.963l18.787-25.437s-3.233-1.165-5.764-3.48c1.634-2.385 3.848-5.611 4.72-6.863.204.13.5.348.9.706 1.695 1.508 4.186 4.753 4.61 8.504l-2.685 3.766-.002-.001-16.867 22.934-1.215 1.622.007.088h-.002c.879 13.43 5.497 24.462 14.535 34.72 6.866 7.791 15.668 14.643 26.913 20.946 9.342 5.236 20.481 10.124 34.052 14.94 16.42 5.83 28.497 12.972 35.735 17.936 7.243 4.97 11.218 8.804 11.82 9.398l1.714 1.715 2.058-2.058-.004-.004c1.242-1.18 5.086-4.678 11.463-9.05 7.237-4.965 19.313-12.108 35.733-17.937 13.571-4.816 24.709-9.704 34.053-14.94 11.244-6.303 20.047-13.155 26.913-20.946 9.036-10.258 13.657-21.29 14.535-34.72h-.003l.008-.088-1.216-1.622-16.867-22.934-.001.001-2.686-3.766c.426-3.751 2.915-6.996 4.61-8.504.401-.358.696-.576.9-.706.872 1.252 3.086 4.478 4.72 6.864-2.53 2.314-5.763 3.479-5.763 3.479l18.786 25.437c6.555-2.223 7.33-8.572 7.24-8.963M225.714 82.93l2.01 1.777c-3.147-.132-4.517-.888-4.517-.888s1.021-.33 2.507-.89m-41.107-15.083c-2.094 3.26-3.716 6.715-5.391 10.09-1.11 1.948-2.296 4.05-3.62 6.372a29.4 29.4 0 0 1-3.008 4.318c-3.281 3.783-7.72 6.879-14.534 8.65-2.913.581-4.895.445-4.895.445l-29.689-.365c-8.251-2.12-14.267-5.832-18.738-9.794-2.272-2.42-4.99-5.545-7.706-8.73-.974-1.377-1.803-2.647-2.514-3.732-1.379-2.058-3.473-4.625-5.801-7.254zm-24.202 82.24c-.794-.642-1.46-1.218-1.942-1.693-2.559-2.621.853-5.306-.062-9.938-.972-4.696 1.283-1.281 1.71.73.059.335.297.83.66 1.419-.385.814-.646 1.63-.718 2.203-.177 1.503.151 5.27.352 7.279m-38.95-6.641c-.268-1.467-1.893-4.485-3.51-4.908 1.435-1.536 4.088-4.274 3.512-.449-.792 4.878 4.338 8.173.946 11.57l-.876.87c.083-2.057.182-5.643-.072-7.083M54.761 78.095c.798.35 1.535.642 2.188.858 0 0-.95-.26-2.4-.67zM47.5 84.51c3.964 2.035 8.518 3.72 13.195 4.417 0 0-9.958-1.51-12.335-2.24a10.3 10.3 0 0 0-2.876-.396zm-6.994 6.179 3.107-2.746c.152.212.368.445.658.704 3.843 3.421 8.905 6.454 15.244 7.794 0 0-7.99 1.176-10.436 1.189-1.27.006-3.314.023-4.523.384a150 150 0 0 0-4.05-7.325m9.233 97.284-.017-.004c.844-2.844 2.021-7.11 3.177-12.29 1.954-8.76 4.201-21.88 3.804-34.643-.333-10.707-2.912-21.943-7.666-33.396a126 126 0 0 0-2.932-6.525q.14.08.29.16c5.71 3.129 17.328 4.19 17.328 4.19s-4.08 1.216-5.37 1.65l-.302.078c-2.255.793-5.652 1.05-6.93 1.293-1.89.368 1.041 3.766 7.48 4.725 6.601.985 14.387-.366 14.387-.366s-8.168 3.536-10.423 4.267c-2.257.733-3.414 3.234-.245 3.72 3.232.61 10.668.793 12.56.429 0 0-4.084 2.56-6.707 3.352-2.5.732 0 3.841 4.269 3.659 0 0 7.854.21 12.305-1.68 0 0-2.368 2.291-4.198 3.813-2.012 1.71-8.535 7.257 1.951 5.43 0 0 6.45-1.374 12.12-3.996 0 0-5.9 4.177-8.159 5.336-2.29 1.13-2.593 2.228-1.49 2.794a7.56 7.56 0 0 1 4.996-1.878c1.354 0 2.626.356 3.729.98 4.463-1.335 6.85-2.505 6.85-2.505s-1.136 2.27-4.339 4.787a7.56 7.56 0 0 1 1.363 4.604c.795-.098 1.71-.351 2.733-.796 5.608-2.437 7.866-4.45 7.866-4.45s-2.622 4.633-3.354 5.246c-.794.547-3.965 4.816 1.83 3.9 3.42-.54 6.27-3.978 8.139-6.775-.092.865.026 1.722.512 2.439 1.279 1.83 1.643 0 2.377 2.803.683 2.418.64 4.02-.008 5.117h47.565a4 4 0 0 1-.442-.398c-1.037-1.04-1.315-2.733-.685-5.58.27-1.323.514-1.637.817-1.788 1.839 1.845 3.655 3.208 4.334 2.719 1.525-1.158 0-8.414 0-8.414s6.341 8.963 9.145 7.438c2.803-1.46-1.099-9.513-1.099-9.513s6.464 6.466 10.427 5.183c4.694-1.46-7.256-12.498-7.256-12.498s15.912 3.72 18.655 1.097c2.805-2.56-7.039-7.87-7.587-8.05-.55-.184 13.378 4.33 15.82 1.342 2.437-2.987-6.158-7.867-7.44-8.415 0 0 10.302.548 14.023-2.073 3.716-2.56-5.74-6.196-8.206-6.59-.98-.155-1.395-.466 2.698-.727h.994c6.283-.305 14.084-1.097 16.46-3.476 4.267-4.27-9.137-4.408-14.562-4.836 0 0 18.383-4.478 20.882-5.88a17 17 0 0 0 1.34-.666c-2.243 3.914-5.014 9.128-7.586 15.324-4.753 11.453-7.333 22.689-7.665 33.396-.398 12.763 1.849 25.883 3.803 34.643a186 186 0 0 0 3.178 12.29l-.017.004c2.585 9.353 3.152 17.901 1.686 25.403-1.363 6.973-4.52 13.22-9.383 18.57-4.886 5.373-11.187 10.117-19.262 14.504-6.81 3.697-14.957 7.158-24.904 10.58-6.95 2.39-17.346 6.648-27.409 13.356-4.446 2.962-7.26 5.355-8.489 6.465-1.23-1.11-4.045-3.503-8.49-6.465-10.062-6.708-20.46-10.966-27.409-13.355-9.947-3.423-18.093-6.884-24.904-10.581-8.075-4.387-14.375-9.13-19.261-14.505-4.863-5.349-8.02-11.596-9.383-18.569-1.467-7.502-.9-16.05 1.686-25.403m203.66 5.046c-2.239-3.27-4.706-6.86-4.887-7.078a1.58 1.58 0 0 0-1.106-.562c-.523-.04-1.328.097-2.9 1.495-.659.588-2.925 2.767-4.351 6.115a14 14 0 0 0-1.012 3.59c-.289 1.82-.579 4.402 1.17 7.208h-.004l16.08 21.864c.842 1.432.552 4.358.407 5.435-1.62 9.757-5.723 18.146-12.678 26.04-6.501 7.378-14.893 13.897-25.656 19.929-9.104 5.102-20 9.878-33.311 14.604-9.378 3.329-23.405 9.258-36.987 18.6-5.163 3.551-8.706 6.525-10.664 8.28-1.957-1.755-5.501-4.729-10.665-8.28-13.582-9.342-27.61-15.271-36.986-18.6-13.312-4.726-24.208-9.502-33.311-14.604-10.763-6.032-19.156-12.551-25.656-19.93-6.955-7.893-11.058-16.282-12.68-26.039-.143-1.077-.433-4.003.408-5.435l16.08-21.864h-.002c1.747-2.806 1.457-5.389 1.168-7.208a14 14 0 0 0-1.011-3.59c-1.428-3.348-3.692-5.527-4.352-6.115-1.572-1.398-2.375-1.534-2.9-1.495a1.58 1.58 0 0 0-1.106.562c-.181.218-2.648 3.809-4.888 7.078-2.054-2.496-4.39-6.392-1.394-10.054q.028-.033.052-.063c1.18-1.271 2.908-2.388 5.386-2.544 5.484-.346 9.06 2.87 10.778 4.413.954.857 3.39 3.274 5.397 7.19 2.05 4.001 3.071 8.365 3.037 12.967h.003c.024 11.164 3.632 20.752 10.8 28.635 5.07 5.576 11.576 10.481 19.893 14.997 6.928 3.764 15.194 7.277 25.268 10.742 12.312 4.235 21.363 9.427 26.789 13.037 5.872 3.906 8.879 6.852 8.917 6.89v.001l.003-.002.976.975 1.055-1.058c.531-.505 3.5-3.26 8.833-6.806 5.426-3.61 14.478-8.802 26.789-13.037 10.073-3.465 18.339-6.978 25.269-10.742 8.315-4.516 14.823-9.421 19.892-14.997 7.168-7.883 10.775-17.471 10.8-28.635h.003c-.036-4.602.987-8.966 3.036-12.966 2.007-3.917 4.443-6.335 5.397-7.191 1.72-1.544 5.295-4.759 10.778-4.413 2.479.156 4.207 1.273 5.387 2.544l.051.063c2.996 3.662.66 7.558-1.395 10.054"></path><path fill="#fff200" d="M154.183 207.692c6.474-1.743.197-17.592.197-17.592s7.984 14.875 11.703 12.442q.182-.12.334-.27c.062-.563.122-1.478.122-2.921v-4.52c-.958-3.39-2.47-6.557-2.47-6.557s.997 1.288 2.47 2.862v-26.38c0-3.005.046-3.497-.326-4.068-.554-.855-1.634-.92-2.939-.927h-3.609v14.336h-6.09l-.22-2.174c-.401-3.934-1.407-5.8-2.181-6.671l-.029-.031c-1.199-1.399-2.931-2.383-5.146-2.928-.907-.206-3.145-.551-8.025-.551h-3.015v15.418c5.348-.124 6.727-2.07 7.466-5.797l.386-1.948h5.828v24.179h-3.911c.399 1.833 3.618 15.669 9.455 14.098M109.965 168.018c3.892 7.823 4.073 17.61.663 25.868l4.732-3.726s-6.058 11.139-3.013 13.216c1.586 1.08 3.522.014 5.356-1.736.037-.564.063-1.312.063-2.29v-34.592c0-2.367-.16-3.61-.255-4.047-.095-.113-.308-.32-.68-.574-.358-.157-1.078-.373-2.326-.373h-.444c-1.188 2.604-3.343 4.49-5.472 5.808q.745 1.18 1.376 2.446M103.71 154.726c1.526-.548 3.459.143 4.981.875.654.287 1.098 1.087 1.662 2.27v-2.822l-.01-1.28c-1.982-2.044-8.215-5.056-9.742-4.59-2.193.671-2.193 2.62-1.585 4.938.367 1.586 3.17 1.038 4.694.609"></path><path fill="#140e0c" d="M144.684 193.393v.2h.044c-.03-.13-.044-.2-.044-.2M149.743 318.624l.113-.082z"></path><path fill="#140e0c" d="M144.683 193.594h.045c-.03-.13-.044-.2-.044-.2z"></path><path fill="#ed1c24" d="M101.923 226.374c-1.17.818-2.808 1.872-4.857 2.751v-3.951c1.376-.76 4.097-2.225 5.824-4.273h3.248v22.006h-4.215zM123.38 237.523c.03.703.438 1.99 2.254 1.99 3.043 0 3.248-3.218 3.482-6.497h-.06c-.76.966-1.637 1.99-3.949 1.99-3.19 0-6.438-2.106-6.438-6.789 0-4.623 3.073-7.316 7.11-7.316 7.492 0 7.521 8.34 7.521 10.857 0 4.975-1.082 11.5-7.813 11.5-4.536 0-6.204-3.13-6.32-5.472zm2.428-13.051c-2.252 0-2.925 1.96-2.925 3.482s.673 3.481 2.925 3.481c2.254 0 2.928-1.959 2.928-3.481s-.674-3.482-2.928-3.482M146.888 237.523c.03.703.439 1.99 2.254 1.99 3.042 0 3.248-3.218 3.482-6.497h-.06c-.76.966-1.639 1.99-3.949 1.99-3.191 0-6.44-2.106-6.44-6.789 0-4.623 3.074-7.316 7.113-7.316 7.49 0 7.52 8.34 7.52 10.857 0 4.975-1.083 11.5-7.814 11.5-4.535 0-6.203-3.13-6.32-5.472zm2.429-13.051c-2.254 0-2.926 1.96-2.926 3.482s.672 3.481 2.926 3.481 2.925-1.959 2.925-3.481-.672-3.482-2.925-3.482M175.725 226.637c-.03-.703-.438-1.99-2.254-1.99-3.042 0-3.248 3.218-3.482 6.497h.06c.76-.966 1.638-1.99 3.95-1.99 3.19 0 6.437 2.107 6.437 6.788 0 4.625-3.072 7.316-7.11 7.316-7.493 0-7.522-8.34-7.522-10.857 0-4.975 1.083-11.5 7.814-11.5 4.535 0 6.203 3.131 6.32 5.473zm-2.428 6.087c-2.254 0-2.927 1.96-2.927 3.483 0 1.52.673 3.48 2.927 3.48 2.252 0 2.924-1.96 2.924-3.48 0-1.523-.672-3.483-2.924-3.483"></path><path fill="#140e0c" fill-rule="evenodd" d="M154.735 118.472c.426-2.015 0 1.523-3.17 1.038-1.89-.306 2.623 1.645 3.17-1.038"></path><path fill="#fff200" d="M165.896 142.926c.955 0 1.925.695 2.89 2.066.351.501.637 1.007.836 1.39-.693-5.322-2.315-5.776-3.63-6.144-.292-.083-.569-.16-.82-.285a.7.7 0 0 0-.34-.1c-.531 0-.86.842-.86 1.622 0 .43.095.82.264 1.1.253.413.65.556 1.162.418.164-.043.333-.067.498-.067"></path><path fill="#ed1c24" d="m50.373 259.214-.726.413-.473-.332 2.14-3.197.345.242c-.44 1.322-.685 3.758.57 4.64.818.576 1.62.324 2.234-.547.665-.947.18-1.804-.66-2.965-.817-1.12-1.356-2.557-.166-4.248.985-1.4 2.907-1.814 4.653-.587a4.96 4.96 0 0 1 1.582 1.845l.558-.369.455.32-1.93 2.938-.327-.23c.537-1.499.402-3.278-.452-3.88-.746-.523-1.475-.22-1.961.47-.666.946-.358 1.515.613 2.877.948 1.32 1.238 2.801.215 4.256-1.292 1.836-3.328 1.872-5.038.671-1-.704-1.51-1.795-1.632-2.317M59.114 262.437l3.417-5.415-1.392-.877.51-.81 1.38.917 1.75-2.737 2.332 1.455-1.72 2.727 2.068 1.305-.51.809-2.068-1.306-3.334 5.284c-.474.751-.754 1.653-.002 2.127.77.487 1.32-.217 1.862-1.032l.45.283c-.998 1.5-2.473 2.463-4.184 1.383-1.504-.95-1.615-2.44-.559-4.113M65.922 263.596c1.373-2.519 3.961-3.968 6.518-2.574 2.597 1.415 2.503 3.77 1.396 5.8l-.148.272-4.822-2.627-.128.234c-1.255 2.303-1.537 4.352.103 5.247 1.034.563 1.971.518 3.34-.51l.193.485c-1.434 1.143-3.333 1.653-5.031.728-2.772-1.51-2.89-4.36-1.421-7.055m5.45 1.477c.83-1.522 1.65-3.075.675-3.607-.781-.427-1.75.514-2.883 2.454zM72.393 272.195c.292.108.533.168.822.178.389.004.627-.254.83-.699l2.716-5.994c.175-.385.203-.933.041-1.274-.129-.255-.458-.551-.753-.709l.183-.405 3.878 1.466.056.195-.614 1.357.04.02c1.186-.733 2.153-.929 3.004-.544.87.395 1.188 1.417.684 2.532-.432.951-1.336 1.493-2.147 1.127-.749-.34-1.095-1.084-.72-1.914.166-.364.493-.655.644-.88-.759-.319-1.527.137-1.797.357l-2.607 5.75c-.203.446-.178.824.062 1.102.218.27.79.628 1.064.776l-.193.425-5.386-2.442zM81.984 276.245l-.619.562-.533-.221 1.39-3.586.39.16c-.14 1.386.152 3.817 1.569 4.405.924.383 1.651-.037 2.06-1.024.442-1.066-.217-1.797-1.291-2.748-1.042-.913-1.88-2.198-1.089-4.11.656-1.58 2.441-2.404 4.412-1.587a4.93 4.93 0 0 1 1.947 1.456l.464-.481.514.212-1.242 3.288-.37-.154c.198-1.578-.322-3.286-1.287-3.685-.842-.35-1.488.105-1.811.885-.443 1.068-.02 1.556 1.226 2.674 1.213 1.08 1.82 2.463 1.138 4.106-.86 2.075-2.839 2.554-4.77 1.754-1.13-.469-1.865-1.423-2.098-1.906M91.046 276.889l1.892-4.584c.177-.431.154-.897-.02-1.234a1.97 1.97 0 0 0-.777-.68l.178-.434 3.965 1.348.044.187-2.706 6.555c-.55 1.337-.415 2.114.202 2.369.904.372 1.629-.218 1.974-.533l2.265-5.487c.17-.41.179-.84.025-1.168-.117-.24-.518-.55-.92-.741l.186-.452 3.985 1.357.065.195-3.13 7.582c-.186.453-.137.859.037 1.194.13.27.506.523.786.66l-.17.413-3.9-1.274-.064-.195.526-1.274-.062-.025c-.918.535-1.936 1.077-3.436.458-1.643-.678-1.742-2.306-.945-4.237M99.899 283.448c.293.108.534.167.824.174.367-.006.625-.255.825-.702l2.685-6.01c.191-.424.208-.953.034-1.273a1.96 1.96 0 0 0-.716-.685l.182-.408 3.864 1.437.057.195-.626 1.402.02.009c.994-.482 1.982-1.112 3.464-.45 1.623.726 1.901 2.288 1.038 4.215l-2.213 4.953c-.2.446-.245.766.007 1.073.189.23.335.395.642.58l-.19.425-4.69-2.094.192-.428c.252.09.514.158.741.138.287-.042.464-.329.664-.775l2.186-4.89c.626-1.401.474-2.152-.155-2.432-.892-.4-1.705.163-2.087.526l-2.476 5.542c-.2.447-.276.778-.125 1.04.171.271.357.404.562.544l-.19.426-4.71-2.105zM112.086 283.851c1.45-2.754 4.198-3.77 6.165-2.732a4.94 4.94 0 0 1 1.698 1.498l1.907-3.62c.229-.432.33-1.007.158-1.347-.21-.414-.796-.923-1.266-1.222l.207-.392 4.392 2.012.047.2-6.697 12.706a1.33 1.33 0 0 0-.065 1.172c.094.251.543.638.828.813l-.207.394-3.882-1.694-.066-.211.477-.905-.049-.05c-.611.255-1.804.657-2.845.108-2.047-1.077-2.388-3.72-.802-6.73m4.06 5.984 2.984-5.664c.174-.663.265-1.695-.56-2.13-1.003-.53-2.494.82-3.863 3.417-.984 1.868-1.544 3.837-.285 4.5.65.342 1.07.21 1.724-.123M121.14 293.937l-.673.497-.508-.275 1.749-3.426.372.2c-.281 1.364-.239 3.814 1.11 4.542.88.475 1.648.132 2.155-.807.549-1.018-.032-1.812-1.004-2.868-.943-1.013-1.646-2.378-.663-4.198.813-1.507 2.674-2.144 4.551-1.13a5 5 0 0 1 1.79 1.649l.51-.431.49.263-1.573 3.143-.352-.19c.357-1.55.015-3.302-.905-3.798-.8-.434-1.49-.047-1.892.696-.548 1.017-.178 1.547.946 2.786 1.097 1.198 1.56 2.635.713 4.2-1.067 1.975-3.085 2.25-4.923 1.256-1.076-.58-1.71-1.605-1.893-2.109"></path><path fill="#ed1c24" fill-rule="evenodd" d="M51.697 238.69a1.534 1.534 0 1 1-2.441-1.86 1.535 1.535 0 1 1 2.44 1.86M55.041 241.24a1.534 1.534 0 1 1-2.44-1.86 1.534 1.534 0 0 1 2.44 1.86M40.71 253.965c-1.098-.845-1.937-1.81-2.496-2.865-.636-1.203-.921-2.604-.826-4.056.204-3.103 2.45-6.15 5.34-7.244 1.413-.533 2.936-.672 4.289-.387 1.133.238 2.215.783 3.509 1.77q.18.138.357.278c2.361 1.815 3.484 4.705 2.937 7.55-.513 2.67-2.502 5.098-5.066 6.185-1.444.611-2.969.787-4.406.505-1.214-.237-2.422-.81-3.59-1.7zm.49-.578c-.52-.398-.907-.9-1.117-1.453-.4-1.06-.227-2.366.533-3.989.51-1.088 1.242-2.205 2.238-3.417 2.58-3.137 4.886-4.139 6.853-2.974l.023.015.097.07c.468.359.994.796 1.31 1.472.35.748.381 1.639.096 2.723-.44 1.673-1.518 3.148-2.585 4.516-1.036 1.325-2.329 2.775-4.063 3.47-.92.366-1.752.382-2.543.053a3.8 3.8 0 0 1-.842-.486"></path><path fill="#ed1c24" d="M155.451 288.6c-1.381-2.769-.73-5.533 1.845-6.817 2.633-1.314 5.156-.13 6.507 2.58 1.341 2.692.972 5.533-1.836 6.934-2.284 1.139-5.039.266-6.516-2.696m5.633-2.906c-1.015-2.032-2.297-4.075-3.537-3.458-1.317.657-.352 3.028.575 4.887 1.158 2.323 2.451 4.24 3.652 3.64 1.143-.568.477-2.727-.69-5.069M166.187 285.938l-2.524-5.695-1.463.649-.378-.851 1.458-.693-1.223-2.804 2.43-1.115 1.271 2.866 2.175-.963.376.85-2.175.965 2.463 5.557c.35.79.928 1.504 1.719 1.153.811-.36.54-1.185.173-2.063l.475-.212c.67 1.62.65 3.332-1.151 4.13-1.581.702-2.845-.015-3.626-1.774M173.182 286.085c-.265-.826-.788-2.224-1.374-3.667l-3.841-9.436c-.18-.44-.557-.849-.927-.956-.265-.077-.951.015-1.26.117l-.164-.4 3.91-1.871.178.09 2.666 6.552.068-.004c.177-.656.641-1.755 1.703-2.187 2.042-.832 4.19.49 5.43 3.534 1.15 2.826.288 5.583-1.997 6.511-1.782.725-2.842.245-3.454.004l-.552 1.743zm3.662-6.956c-.798-1.962-1.922-3.747-3.244-3.21-.643.261-.788.65-.944 1.297l2.38 5.85c.393.563 1.104 1.278 1.945.936.982-.4.907-2.307-.137-4.873M180.426 277.496c-1.123-2.883-.223-5.578 2.458-6.623 2.74-1.069 5.147.339 6.246 3.16 1.092 2.804.463 5.6-2.459 6.74-2.379.926-5.043-.194-6.245-3.277m5.874-2.382c-.825-2.117-1.92-4.269-3.208-3.765-1.37.535-.626 2.983.128 4.919.943 2.417 2.058 4.445 3.308 3.957 1.189-.463.722-2.673-.228-5.111"></path><path fill="#ed1c24" d="M191.04 278.27c.274-.132.5-.267.68-.456.286-.277.287-.626.11-1.068l-4.51-11.336c-.207-.524-.576-.866-.945-.975-.265-.08-1.028-.009-1.358.1l-.16-.404 3.985-1.865.176.094 5.286 13.286c.175.442.436.687.821.72.29.025.501.033.84-.054l.168.422-4.924 1.959zM196.404 276.138c.271-.136.493-.276.672-.467.28-.281.276-.63.094-1.07l-4.688-11.264c-.214-.52-.59-.856-.96-.96-.266-.076-1.029.008-1.356.12l-.166-.4 3.954-1.927.177.09 5.494 13.203c.182.439.447.68.833.707.29.019.503.025.838-.068l.176.419-4.893 2.036zM202.905 273.246l-.011.813-.511.233-1.628-3.373.374-.168c.892 1.02 2.815 2.427 4.174 1.81.886-.404 1.07-1.2.64-2.145-.465-1.023-1.422-1.04-2.811-.908-1.343.135-2.813-.125-3.646-1.956-.69-1.516-.09-3.333 1.802-4.192a4.85 4.85 0 0 1 2.329-.418l-.034-.648.492-.224 1.513 3.067-.355.16c-.99-1.189-2.552-1.954-3.477-1.532-.807.366-.913 1.128-.573 1.875.466 1.024 1.094 1.049 2.716.906 1.574-.147 2.96.341 3.674 1.916.905 1.99-.07 3.715-1.92 4.558-1.084.49-2.25.38-2.748.226M209.121 270.59c.275-.174.464-.325.622-.534.251-.308.192-.645-.035-1.063l-5.84-10.785c-.236-.438-.643-.783-1.023-.847-.272-.05-.964.127-1.279.272l-.205-.38 3.7-2.297.167.08 5.21 9.626c.255-1.073.674-2.8.82-4.256.037-.34-.007-.512-.099-.684-.113-.209-.854-.03-1.37.152l-.206-.382 3.747-2.028.207.382c-.778.79-1.14 1.304-1.425 2.048-.197.5-.391 1.368-.54 2.137 2.053.02 3.988 2.096 5.363 3.32.301.282.614.357.911.318.3-.038.616-.135.769-.218l.216.4-3.54 1.915c-1.085-1.28-3.48-3.478-4.298-3.034-.134.073-.233.297-.255.482l1.307 2.416c.227.419.446.643.794.652.332.017.628-.07.848-.163l.216.398-4.565 2.472zM218.892 265.145c.243-.184.434-.362.574-.583.224-.33.155-.673-.108-1.07l-6.714-10.186c-.31-.47-.738-.73-1.123-.761-.276-.025-1.009.197-1.31.37l-.238-.362 3.524-2.632.19.055 7.87 11.938c.261.397.567.585.95.54.288-.035.498-.07.812-.223l.25.378-4.426 2.916zM223.204 258.95l-3-3.779c-.283-.355-.69-.557-1.059-.567-.293.012-.662.139-.947.337l-.282-.355 3.022-2.732.18.051 4.292 5.404c.876 1.1 1.6 1.354 2.108.95.745-.593.586-1.487.483-1.93l-3.593-4.524c-.268-.339-.63-.549-.981-.575-.26-.014-.713.18-1.065.432l-.296-.373 3.04-2.744.195.036 4.965 6.252c.296.372.664.523 1.032.534.29.019.683-.183.933-.355l.27.34-2.929 2.711-.195-.036-.834-1.051-.052.04c.02 1.034 0 2.156-1.236 3.137-1.355 1.076-2.786.39-4.051-1.204M234.115 254.467c-.574-.65-1.61-1.725-2.725-2.814l-7.287-7.12c-.339-.332-.848-.556-1.229-.506-.274.034-.868.392-1.11.609l-.31-.303 2.839-3.274.2.012 5.058 4.944.06-.032c-.1-.671-.113-1.865.689-2.684 1.542-1.577 4.038-1.225 6.39 1.074 2.182 2.131 2.49 5.003.766 6.768-1.345 1.377-2.508 1.36-3.165 1.381l.19 1.819zm.581-7.838c-1.515-1.482-3.257-2.67-4.255-1.648-.484.494-.463.907-.35 1.563l4.518 4.414c.585.362 1.523.733 2.158.083.74-.759-.09-2.477-2.07-4.412M241.381 245.753c-.645-.581-1.8-1.527-3.034-2.479l-8.065-6.225c-.377-.29-.906-.455-1.28-.36-.27.065-.817.492-1.03.735l-.344-.265 2.439-3.582.199-.012 5.599 4.323.056-.039c-.176-.654-.33-1.838.372-2.745 1.349-1.748 3.87-1.687 6.472.323 2.414 1.863 3.055 4.68 1.548 6.632-1.177 1.524-2.332 1.642-2.983 1.741l.4 1.783zm-.333-7.852c-1.677-1.296-3.546-2.275-4.418-1.145-.424.548-.355.956-.165 1.594l4.998 3.86c.625.29 1.6.55 2.153-.168.65-.84-.376-2.452-2.568-4.141"></path><path fill="#ed1c24" fill-rule="evenodd" d="m146.54 283.608 1.332-.757c1.015-.577 1.745-.913 2.19-1.045.775-.222 1.488-.204 2.09.014.597.2 1.202.74 1.8 1.58l.365-.206-2.203-3.878-10.9 6.198.205.364.425-.242c.363-.206.685-.31.957-.323.289.015.527.081.665.183.156.132.442.53.803 1.165l4.82 8.48c.36.636.539 1.057.556 1.228.028.262-.013.507-.106.66-.149.265-.447.516-.81.723l-.425.24.207.363 6.66-3.787-.206-.363-.438.25c-.35.197-.67.3-.96.284-.272.016-.51-.05-.657-.167s-.433-.515-.794-1.153l-2.272-3.996.485-.276c1.575-.964 2.53-.622 3.653.56l.349-.198-2.727-4.799-.349.2c.424 1.275.346 2.382-1.408 3.39l-.484.274z"></path><path fill="#140e0c" fill-rule="evenodd" d="M116.12 140.783c1.574-.988 2.32 4.076-.011 3.588-2.454-.504-4.243 5.067-4.243 5.067-.565-7.892 2.899-7.88 4.255-8.655"></path><path fill="#fff200" d="m111.79 150.066-.044-.62c-.488-6.826 1.984-7.808 3.62-8.459.27-.107.503-.2.694-.309a.87.87 0 0 1 .46-.144c.736 0 1.192 1.116 1.193 2.15 0 1.357-.672 1.84-1.302 1.84q-.156 0-.328-.035a1.4 1.4 0 0 0-.29-.03c-2.176 0-3.797 4.965-3.813 5.016zm4.73-9.292a.64.64 0 0 0-.336.11c-.21.12-.463.22-.73.326-1.522.606-3.8 1.512-3.503 7.629.507-1.347 1.935-4.621 3.843-4.621q.17 0 .339.035.146.03.278.031c.782 0 1.062-.825 1.062-1.6-.002-.903-.392-1.91-.953-1.91M144.927 103.432c.758.345 1.487.402 2.306.268.55-.078 1.205-.27 1.984-.765 1.38-.879 1.705-3.013 1.151-4.132-.314.013-1.402.135-2.08.274-.136-.327-.422-.636-.702-.546-.301.114-.26.475-.08.86-.636.388-1.501 1.083-2.066 1.556q-.614.613-.946.95-.003 0-.008.007c-.188.256-.317.448-.302.795a.55.55 0 0 0 .162.348c.241.226.345.28.581.385m2.064-3.504c.835-.361 1.354 1.59.239 2.097-.952.358-1.496-1.623-.239-2.097M131.27 103.632c.027-.02.448-.276.504-.722.04-.317-.076-.544-.208-.644-.37-.243-1.097-.737-1.42-1.057-.094-.072-.177-.143-.266-.212.055.648-.487 1.381-1.068 1.22-.908-.461-.813-1.625.002-2.09-.244-.19-.46-.363-.636-.45-.515-.293-2.116-.653-2.337-.686-.082.143-.482.772-.485 1.532 0 .823.12 2.073 1.698 2.94.8.44 3.108.87 4.215.17"></path><path fill="#fff200" d="M129.549 100.646c.436.106.548-1.23 0-1.206-.279.012-.436 1.094 0 1.206M147.139 105.316a5.16 5.16 0 0 1-3.029-.41c-.83-.347-1.477-1.012-1.512-1.944-.014-.395.077-.985.35-1.405q.062-.095.118-.191c-.372.448-.778.9-1.216 1.377-.43.406-.649.857-.712 1.318-1.822-.653-4.768-.513-6.65.009-.029-.419-.208-.894-.522-1.298-.42-.54-.826-.922-1.187-1.357l.196.405c.227.403.318.808.37 1.267.093.847-.475 1.64-1.258 1.913-.982.326-1.884.446-2.9.236-.489-.1-1.5-.256-2.354-.517.299.484.621.93.957 1.302 1.663 1.843 3.174 1.552 3.926 1.452.25-.032.54-.149.838-.328-.16.813-.3 1.672-.516 2.407a7 7 0 0 1-1.017 2.11c.156-.051.312-.063.455-.07.51-.033 1.461-.092 2.897-3.52.242-.718 1.171-2.945 3.358-2.945q.136.002.275.012c1.534.016 2.28 1.404 2.776 2.324.084.157.162.303.235.428.134.206.254.503.403.876.613 1.53 1.341 3.022 2.896 3.022h.05c-.583-.792-1.658-2.158-1.533-4.572.404.3.82.5 1.169.553.793.124 1.797.48 3.944-1.556.572-.511 1.09-1.179 1.528-1.913-.735.507-1.728.928-2.335 1.015m-12.504.78a.661.661 0 1 1-.001-1.323.661.661 0 0 1 0 1.322m6.11 0a.66.66 0 1 1-.002-1.323.66.66 0 0 1 .002 1.323M140.557 115.147a4.9 4.9 0 0 0-.558 1.323q-.023.09-.05.18c.331-.338.759-.977 1.114-1.503q.28-.422.5-.732c-.48.25-.853.504-1.006.732"></path><path fill="#fff200" d="m140.029 114.832.001-.006.02-.03c.247-.338.509-.59.852-.816.52-.347 1.588-.739 2.53-1.035a.7.7 0 0 0 .138-.06.4.4 0 0 0 .111-.073c-1.956-.377-2.795-2.47-3.264-3.643-.12-.297-.232-.579-.308-.691l-.015-.022a14 14 0 0 1-.266-.481c-.534-.993-1.056-1.735-1.963-1.765l-.134-.001c-1.484 0-2.165 1.702-2.337 2.224l-.015.038c-1.183 2.829-2.175 3.743-3.034 4.048a2.5 2.5 0 0 1-.461.117c.076.066.123.083.234.128.452.143.897.297 1.233.46.31.15.619.345.94.598.36.282.61.608.783 1.024.316.606.527 1.133.71 1.765.113.36.236.728.375 1.075a5.64 5.64 0 0 1 1.288 2.17q.01-.03.02-.058l.01-.03c.255-.635.833-1.476 1.457-2.164.18-.365.332-.782.47-1.292.134-.537.322-.982.625-1.48"></path><path fill="#fff200" d="M134.506 115.084c-.05-.145-.26-.606-1.024-1.082q.036.056.067.114c.638 1.2 1.301 2.23 1.625 2.618a8.4 8.4 0 0 0-.654-1.613z" data-source="https://football-logos.cc"></path><path fill="#140e0c" d="M137.655 107.195c-1.76-.02-.582 8.779-.068 8.778.431 0 1.732-8.76.068-8.778"></path><path fill="#140e0c" fill-rule="evenodd" d="M181.616 148.607c-1.859-.064-.116 4.41 1.655 2.818 1.868-1.665 6.08 1.838 6.08 1.838-2.043-5.647-6.309-4.927-7.735-4.656M165.172 140.292c-1.733-.674-1.513 4.44.687 3.524 2.312-.956 5.117 4.18 5.117 4.18-.927-7.858-4.326-7.195-5.804-7.704"></path><path fill="#fff200" d="M170.871 148.052c-.025-.046-2.55-4.618-4.688-4.21a1.5 1.5 0 0 0-.279.084 1.6 1.6 0 0 1-.315.097c-.618.118-1.368-.23-1.623-1.562-.194-1.017.044-2.198.766-2.337a.87.87 0 0 1 .48.055c.208.072.454.118.74.173 1.729.332 4.342.833 5.143 7.629l.074.617zm-6.669-5.637c.146.76.574 1.518 1.342 1.371q.13-.025.268-.081a1.7 1.7 0 0 1 .327-.098c1.873-.358 3.89 2.589 4.643 3.817-.858-6.066-3.266-6.527-4.875-6.837-.282-.053-.55-.103-.778-.184a.66.66 0 0 0-.35-.043c-.552.105-.746 1.168-.577 2.055"></path><path fill="#140e0c" fill-rule="evenodd" d="M154.735 118.472c.426-2.015 0 1.523-3.17 1.038-1.89-.306 2.623 1.645 3.17-1.038"></path><path fill="#fff200" d="M165.896 142.926c.955 0 1.925.695 2.89 2.066.351.501.637 1.007.836 1.39-.693-5.322-2.315-5.776-3.63-6.144-.292-.083-.569-.16-.82-.285a.7.7 0 0 0-.34-.1c-.531 0-.86.842-.86 1.622 0 .43.095.82.264 1.1.253.413.65.556 1.162.418.164-.043.333-.067.498-.067"></path><path fill="#140e0c" d="m245.535.167-.018-.012a1.05 1.05 0 0 0-.675-.147 2.3 2.3 0 0 0-.983.344 5.7 5.7 0 0 0-1.305 1.08 15 15 0 0 0-1.102 1.28c-.608.78-1.095 1.461-1.631 2.274-1.556 2.345-3.188 4.65-5.291 7.474a249 249 0 0 1-11.785 14.734 162 162 0 0 1-6.734 7.355 93 93 0 0 1-6.666 6.258c-3.211 2.79-6.389 5.463-9.473 8.43-2.491 2.397-11.399 10.996-12.814 12.936a98 98 0 0 0-3.139 4.513c-.247.368-3.027 4.582-3.31 5.142-1.751 3.59-2.357 3.268-4.33 6.68a96 96 0 0 1-3.416 5.495 51 51 0 0 1-2.829 3.842c-.501.616-.958 1.131-1.52 1.712l-.017.018c-1.742 1.836-3.916 3.041-6.642 3.684-1.622.38-3.286.564-5.092.564-.43 0-.876-.012-1.329-.031-1.305-.062-2.564-.212-3.454-.411l-.068-.016a10 10 0 0 0-1.166-.213l-1.018-.093c-.504-.045-.965-.218-1.506-.464a10.5 10.5 0 0 0-1.508-.514c-3.044-.799-6.513-1.22-10.036-1.22-.358 0-.722.004-1.079.013-2.647.056-4.872.37-7.433 1.044-.174.034-.585.085-1.489.085-.607 0-1.182-.023-1.46-.036a40 40 0 0 1-4.03-.43l-.073-.01h-.01a41.4 41.4 0 0 1-7.36-1.633c-1.803-.577-3.499-1.372-4.534-2.13-.828-.603-2.027-1.75-3.469-3.315a96 96 0 0 1-2.598-2.925c-3.02-3.55-4.956-6.615-7.768-10.288-1.268-1.645-3.413-4.06-4.644-5.485-2.707-3.137-4.611-4.764-7.274-7.583-.974-1.03-1.856-1.8-2.936-2.788l-4.226-3.878-9.466-8.792a1039 1039 0 0 0-16.182-14.829 44 44 0 0 0-1.488-1.287c-.929-.79-2.167-1.92-3.788-3.457-.915-.865-1.691-1.61-2.6-2.491a196 196 0 0 1-7.158-7.258 57 57 0 0 1-2.816-3.213c-2.038-2.416-5.322-6.89-5.733-7.364-.775-.894-1.85-2.174-2.694-2.543a1.62 1.62 0 0 0-.899-.136 1.04 1.04 0 0 0-.695.391 1.06 1.06 0 0 0-.22.781l.005.03c.027.178.098.344.206.483 1.998 2.652 3.687 4.882 5.679 7.483 0 0 4.391 5.404 5.05 6.067s2.43 2.466 2.43 2.466l3.676 3.53c-.313 5.658.79 11.915.79 11.915s4.166 5.632 3.715 3.171c-.401-2.672.287-7.828.637-10.134 2.087 2 4.16 3.977 6.356 6.062-2.032 3.702-1.05 12.111-1.05 12.111l4.085 3.841c-1.275-4.385-.335-9.946.311-12.783l5.063 4.782c-2.06 6.661-.064 13.773-.064 13.773l-.013.117q-.816-.636-1.64-1.298a65 65 0 0 1-3.465-2.976.23.23 0 0 0-.358.057l-4.096-2.834c-2.621 2.742-.489 9.742-.489 9.742l2.195 1.768c-1.239-5.211 2.107-7.235 3.165-7.735.903.81 1.759 1.535 2.758 2.332q.934.752 1.857 1.467c-.118.74-.374 2.046-.888 3.506a65 65 0 0 0-1.193 4.1c-2.477-1.374-4.604-2.434-7.246-3.981l-1.523-.884c-2.317 1.28-.077 7.379-.077 7.379.366.488 2.5 1.953 2.5 1.953-1.429-3.229.172-6.456.62-7.252a388 388 0 0 0 5.592 3.168c-.192.152-.965.887-1.6 3.322-.432 1.528.041 3 .561 4.026a204 204 0 0 1-6.897-3.538l-1.754-.932c-.579 4.11 2.336 9.333 3.129 10.708 0 0-.207-.065-.354-.092-1.25-.25-3.035-.87-3.963-1.272-.09-.037-.386.304-.276.581l-2.526-.856c0 3.72 1.464 5.975 1.464 5.975s3.78 2.5 3.23 1.22c-1.25-2.71-1.164-5.152-1.113-5.805 1.047.358 2.742.861 3.982 1.182.603 4.285 2.838 8.053 2.838 8.053.43.184 3.765 1.041 3.765 1.041-2.524-3.75-3.412-7.48-3.564-8.187 1.84.671 3.604 1.284 5.414 1.878.497.444.88.592.88.592l.612 4.695c.37 1.897 1.14 2.92 1.806 3.469-7.754-1.62-14.486-3.204-15.644-3.315 0 0-.656.1-.63.118 0 3.47 1.666 5.114 1.666 5.114s4.005 1.905 3.37.89c-1.265-2.09-1.362-3.999-1.342-4.753 1.714.337 4.335.8 4.41.82l.394.097-.722-.082c-.322 2.202 1.347 6.115 1.347 6.115 1.3.33 4.086.802 4.086.802-1.79-1.897-2-4.83-1.991-6.184 2.134.489 4.202.91 6.28 1.273.098.653.323 2.367.323 4.233 0 1.445.728 2.377 1.32 2.897a196 196 0 0 1-5.92-.41l-.015-.042.01.04q-.63-.052-1.254-.111c-.097-.01-.18.079-.187.194q0 .03.005.056h-1.858c-.348 1.292 2.066 7.458 2.066 7.458l2.087.224 2.379.226c-1.68-2.937-2.758-6.378-3.115-7.613 2.226.19 4.307.332 6.444.438.068.039.11.058.11.058s-.244 3.353.487 6.158c.198.687.512 1.172.87 1.511a250 250 0 0 1-6.739.589c-.111.007-.196.087-.19.179.006.09.104.157.218.148q.496-.036.974-.073c-.816.22-1.787.495-2.023.626 0 0 1.142 2.718 1.734 3.856.56 1.08 2.35 2.734 2.35 2.734s3.353 0 3.719-.118c0 0-1.584-1.351-2.743-3.294-.895-1.534-1.546-3.303-1.757-3.905 1.484-.122 2.91-.254 4.502-.415l.327-.03c1.011.663 2.172.448 2.172.448s1.28 1.466 2.988 4.634c.53 1.022 1.148 1.674 1.743 2.093-1.13.235-2.28.468-3.497.71a.2.2 0 0 0-.165.216l-1.507.551s.425 1.095.791 2.131c.367 1.038 1.158 1.953 1.403 2.562.305.548 2.681 2.134 2.681 2.134s1.77-.305 2.5-.548c0 0-2.072-2.255-3.414-3.962-.672-.9-1.148-2.23-1.351-2.867.952-.19 1.98-.401 3.056-.626 1.044.537 1.906.41 1.906.41s2.438 1.342 3.352 4.696c.351 1.318 1.039 1.735 1.66 1.813q-.483.138-.973.274a132 132 0 0 1-3.423.89l-3.634.536-1.174.82s1.767 2.075 2.501 3.231c.73 1.221 2.639 1.997 2.639 1.997s1.761-.014 3.164-.44l.677-.29s-2.638-1.022-3.737-2.545c-.828-1.12-.654-2.254-.457-2.868 1.204-.294 2.304-.579 3.556-.923a82 82 0 0 0 2.374-.69 32 32 0 0 1 4.265 4.72q.221.297.444.539c-.775.392-1.521.764-2.22 1.106l-4.412 1.383a.3.3 0 0 0-.105.034l-1.066.335s.32-.02.707-.018c-.208.21-.477.565-.132.81.116.085.352.065.501.026.326-.094.624-.193.918-.303-.073.296-.003 1.187 2.393 2.945.751.55 4.33 2.073 4.33 2.073l3.29-1.22s-2.68-1.159-4.877-2.197c-1.522-.738-1.382-2.478-1.176-3.416.315-.153.634-.313.967-.48l1.307-.659c1.821 1.61 3.46.75 3.46.75s1.707 1.827 2.621 3.353c.315.524.873.868 1.471 1.092a135 135 0 0 1-2.9 1.762l-.043-.063-.633.444.024-.042-5.829 2.193.966 1.193-1.9 1.121c.67 1.708 3.334 2.81 3.334 2.81s2.988-.368 2.075-1.097c-1.878-1.513-2.863-2.667-3.108-2.97l3.456-2.065c1.664 2.24 4.87 3.416 5.396 3.416.609 0 2.377-.794 2.377-.794s-3.232-1.767-4.208-2.196c-.597-.318-1.244-1.078-1.623-1.568l.183-.086a46 46 0 0 0 3.162-1.832l.008-.004c.898.21 1.695.21 1.695.21s.61.367 2.437 2.197c.791.79 1.603 1.078 2.28 1.146-.804.59-1.63 1.155-2.468 1.706-.523.345-.96.646-1.469 1.006a.25.25 0 0 0-.067.326.23.23 0 0 0 .102.09l-.33.502s1.357 1.49 2.54 1.966c1.183.42 4.198 1.612 4.198 1.612.473-.178 2.248-1.73 2.248-1.73s-3.784-.952-4.672-1.61c-.754-.522-1.77-1.498-2.152-1.874a48 48 0 0 0 2.84-2.002c.52-.064.852-.225.852-.225s3.416 1.892 5.062 2.806c.442.237.832.325 1.166.328a55 55 0 0 1-4.967 4.8.22.22 0 0 0-.003.34.294.294 0 0 0 .383.003c.165-.139.192-.317.35-.454l-.545.895s3.627.994 4.624.872l1.202-2.313c-.424-.051-.92.013-1.353.02-1.174.036-2.172-.302-2.62-.484a54 54 0 0 0 2.653-2.618 20 20 0 0 0 1.088-1.244c.422-.205.643-.511.643-.511 2.255.73 6.338.366 6.338.366s.734-.914 2.075-1.28c.975-.307.548-1.648-.611-.733-.968.807-6.171.76-7.372.737a38 38 0 0 0 2.682-4.463c1.997.455 5.056.19 5.056.19s.67-.794 1.829-1.16c.916-.244.427-1.404-.548-.61s-6.584.61-6.584.61c-3.475.366-5.854-2.256-5.854-2.256-2.368 0-4.291-1.324-5.187-2.068.555-.377 1.117-.764 1.695-1.163a41 41 0 0 0 2.663-1.941c1.359 1.163 2.78.54 2.78.54s2.44 1.341 3.658 1.95c1.219.672 1.95-.243 1.95-.243 1.647.486 4.634.243 4.634.243s.55-.609 1.464-.915c.791-.184.49-1.16-.368-.489-.851.673-5.607.49-5.607.49-2.865.305-4.939-1.891-4.939-1.891-2.743 0-4.816-2.135-4.816-2.135-2.62-.244-4.695-3.476-4.695-3.476-3.474-.12-5.607-4.39-5.607-4.39-3.72-.242-5.366-4.39-5.366-4.39-3.168-.851-5.364-5.367-5.364-5.367-2.987-1.22-2.865-5.791-2.865-5.791-1.645-1.707-1.22-5.306-1.22-5.306a2.6 2.6 0 0 1-.668-.498.21.21 0 0 0-.11-.118c-1.62-1.785-2.27-5.909-2.27-5.909-1.891-1.707-2.438-6.829-2.438-6.829-.427-.852-.55-3.11-.427-4.024.12-.976.954-.896.954-1.994s1.259-4.17 1.382-4.657c.122-.55-.447-1.276-.447-1.276-.212-1.597.226-5.566.46-7.318a156 156 0 0 1 4.125 4.01c.714.709 1.377 1.38 2.026 2.058-1.195 3.504-.271 5.762-.271 5.762s-.12 1.037-.549 2.257a22 22 0 0 0-.791 2.438s-.61.367-1.037 1.89c-.426 1.526.915 2.99.915 2.99l.243 2.255c.305 2.257 1.769 2.743 1.769 2.743l.365 2.622c.426 2.014 1.769 2.258 1.769 2.258s.243 1.097.243 2.436c0 1.344 1.218 1.83 1.218 1.83s-.12 1.893.368 3.417c.426 1.521 2.01 1.218 2.01 1.218s.793.855 1.83 2.562c1.037 1.766 2.44 1.585 2.44 1.585s1.035.915 2.071 2.56 2.622 1.158 2.622 1.158.61.795 1.89 2.44c1.28 1.586 2.62.917 2.62.917s1.039 1.034 1.587 1.827c.487.853 2.317.855 2.317.855s.366.182 1.463 1.219c1.16 1.037 2.375.55 2.375.55s2.015.973 3.049 1.462c1.038.548 1.587-.184 1.587-.184 1.34.427 3.84.184 3.84.184s.426-.489 1.28-.672c.548-.182.245-.914-.426-.424-.672.548-4.572.424-4.572.424-2.38.183-4.086-1.462-4.086-1.462-2.254 0-3.901-1.585-3.901-1.585-2.196-.245-3.84-2.744-3.84-2.744-2.928-.062-4.697-3.354-4.697-3.354-2.985-.245-4.327-3.414-4.327-3.414-2.622-.609-4.451-4.087-4.451-4.087-2.438-.913-2.317-4.451-2.317-4.451-1.402-1.28-1.036-4.085-1.036-4.085-1.829-.793-2.5-5.062-2.5-5.062-1.584-1.217-2.01-5.182-2.01-5.182-.366-.668-.488-2.379-.366-3.11.12-.73.88-.73.88-1.585 0-.793.87-2.968.992-3.395.122-.43-.287-1.116-.287-1.116-.166-1.265.51-3.767.735-4.871.477.513.959 1.04 1.46 1.6.435.51 1.49 1.844 2.973 3.76l.254.33c-.22 1.794.919 3.875.919 3.875l.18 2.074c.307 2.073 1.465 2.5 1.465 2.5l.305 2.315c.366 1.892 1.462 2.074 1.462 2.074s.184 1.036.184 2.196c0 1.219.975 1.644.975 1.644s-.061 1.708.306 3.11c.366 1.343 1.706 1.097 1.706 1.097s.61.673 1.463 2.32c.795 1.584 2.012 1.4 2.012 1.4s.853.794 1.646 2.317c.855 1.465 2.133.977 2.133.977s.55.793 1.587 2.258c1.038 1.4 2.072.852 2.072.852s.855.915 1.279 1.647c.49.732 1.951.732 1.951.732s.305.183 1.22 1.096c.916.916 1.95.49 1.95.49s1.222.729 2.013 1.22c.854.426 1.769 0 1.769 0l1.096.184s.55-.125 1.159-.614c.427-.304.672-.79.062-.364-.61.489-2.258.303-2.258.303-1.891.186-3.29-1.28-3.29-1.28-1.83 0-3.23-1.462-3.23-1.462-1.77-.244-3.113-2.44-3.113-2.44-2.438-.062-3.84-3.05-3.84-3.05-2.44-.18-3.595-3.107-3.595-3.107-2.074-.551-3.597-3.66-3.597-3.66-1.95-.854-1.89-4.026-1.89-4.026-1.099-1.156-.856-3.657-.856-3.657-1.462-.73-2.01-4.572-2.01-4.572-1.343-1.099-1.707-4.696-1.707-4.696-.178-.403-.586-1.789-.744-2.74 2.325 3.002 4.382 5.637 6.696 8.583a187 187 0 0 0 4.941 6.062 32 32 0 0 0 1.904 2.078c1.51 1.494 4.452 3.005 6.072 3.773 1.843.871 3.425 1.583 5.287 2.379l1.941.863 1.008.482c.304.146.543.285.813.477.268.192.49.483.643.84.178.413.283.762.364 1.197.148.832.23 1.548.274 2.4.024.417.062.764.125 1.157l.003.014c.092.513.648 1.579 1.313 2.082.926.704 1.831 1.071 2.839 1.152l.071.013h.008a7 7 0 0 1-.032.346c-.187 1.467-.043 2.862.427 4.15.59 1.61 2.612 3.408 3.896 3.823l.083.028c.75.244 1.595.495 2.204.495q.055-.001.108-.005c.555.986 1.207 2.012 1.583 2.39l.024.022c.711.63 1.517 1.344 1.905 2.592.325 1.078.475 1.57 1.017 1.57.509 0 .656-.443.945-1.328q.048-.14.1-.298c.302-.74 1.256-1.956 1.973-2.514.48-.374.997-1.146 1.498-1.893.102-.15.22-.327.34-.5.776-.135 1.664-.327 2.083-.48 1.402-.51 2.927-1.784 3.624-3.03.588-1.054.91-2.549 1.103-3.441.04-.195.079-.364.101-.45.057-.208.101-.41.143-.605.031-.146.075-.342.113-.486 1.542-.383 3.228-2.607 3.49-3.034.55-.869.921-1.697 1.203-2.68.079-.273.233-.52.462-.75a4 4 0 0 1 .718-.575 8.3 8.3 0 0 1 2.023-.936 29.5 29.5 0 0 0 5.546-1.547 28.5 28.5 0 0 0 9.141-5.691c3.369-3.102 6.358-7.127 9.402-12.666a202 202 0 0 0 2.796-5.27c.274-.533.529-1.025.781-1.508-.186.878-.461 1.853-.607 2.178 0 0-.243 3.66-1.523 4.758 0 0-.429 3.84-1.893 4.633 0 0 .368 2.499-.729 3.718 0 0 .182 3.171-1.831 4.027 0 0-1.399 3.17-3.473 3.78 0 0-1.038 2.924-3.536 3.17 0 0-1.282 2.987-3.719 3.17 0 0-1.341 2.257-3.05 2.5 0 0-1.34 1.524-3.228 1.524 0 0-2.257 1.708-4.39 1.221-.851.123-.672.305-.243.548 0 0 1.947.732 2.741.243.856-.486 2.5-1.461 2.5-1.461s1.037.427 1.892-.49c.91-.975 1.156-1.157 1.156-1.157s1.525 0 1.955-.792c.423-.734 1.216-1.707 1.216-1.707s1.158.607 2.133-.855c1.037-1.463 1.462-2.377 1.462-2.377s1.345.547 2.136-.976c.791-1.585 1.584-2.379 1.584-2.379s1.22.184 2.013-1.462c.794-1.587 1.4-2.32 1.4-2.32s1.282.246 1.648-1.157c.304-1.402.182-3.05.182-3.05s.977-.548.977-1.707c-.062-1.218.122-2.317.122-2.317s1.096-.183 1.401-2.01l.18-2.317s1.222-.49 1.468-2.562l.121-2.013s1.112-2.229.801-4.01l.129-.243c1.582-2.932 4.674-6.511 6.988-8.997a175 175 0 0 1 4.274-4.434v.001c.243 1.098.976 6.037.794 7.927 0 0-.979.794-.794 1.341.12.488 1.465 3.66 1.525 4.756 0 1.1 1.217.792 1.4 1.709.123.914.063 3.17-.304 4.025 0 0-.426 5.183-2.316 6.827 0 0-.67 5.55-2.806 6.708 0 0 .488 3.598-1.097 5.367 0 0 .244 4.51-2.744 5.853 0 0-2.072 4.572-5.182 5.488 0 0-1.583 4.147-5.243 4.511 0 0-1.948 4.33-5.546 4.574 0 0-1.953 3.293-4.513 3.598 0 0-2.01 2.194-4.754 2.255 0 0-2.013 2.195-4.939 2.014 0 0-1.035.304-2.193.062-1.89-.367-.489.608.18.731.853.12 1.466.12 2.194-.123 0 0 .733.915 1.892.182 1.22-.67 3.718-2.072 3.718-2.072s1.524.671 2.866-.732c1.34-1.402 1.707-1.645 1.707-1.645s2.198-.062 2.867-1.16c.49-.808 1.25-1.75 1.616-2.19a87 87 0 0 0 5.45 3.022c-.429.135-.892.227-1.395.265 0 0-1.403 3.658-5.49 4.33 0 0-2.378 2.683-5.608 2.745 0 0-2.377 2.622-5.792 2.438h-4.144c-1.828 0 0 .974 0 .974 1.156.062 3.046.245 4.326-.184 0 0 .854 1.098 2.258.246 1.207-.703 3.37-1.948 4.09-2.362.584.92 1.797 2.706 2.79 4.119-.466.754-2.263 3.075-6.516 2.513 0 0-3.78.791-7.193-.306-1.16-.306-.124.915-.124.915.796.366 1.648.55 1.648.55s3.658.61 5.912-.184c0 0 2.076.914 3.723-.123 1.187-.705 2.662-1.695 3.39-2.192a22.771 22.771 0 0 0 3.036 3.424q.126.121.25.235c-.07.038-1.054.562-1.979 1.213-1.025.812-4.81 1.491-4.81 1.491l-.245.062s1.402 2.3 1.916 2.504c0 0 2.434-1.016 3.716-1.555 1.281-.54 3.077-1.825 3.077-1.825l-.318-.668c.21.121.406.202.556.202.665 0 4.709-1.21 6.43-3.827l-1.59-1.88s-.994 1.475-2.385 2.149c-.739.398-2.798 1.467-3.805 1.987-1.053-.986-2.255-2.376-3.396-3.82.083-.009 2.28-.267 3.897-1.463 1.043-.745 1.634-1.212 1.966-1.497.76.408 1.517.787 2.238 1.122a.21.21 0 0 0 .281-.1c.049-.108-.754-.581-.858-.632l.758.35a43 43 0 0 1-2.088-1.043c.066-.065.083-.092.083-.092s1.52-.181 3.107-.852c1.22-.488 2.624-1.4 2.624-1.4s2.422-1.565 4.533-4.082c.754.263 1.58.542 2.356.797-.263.587-1.366 2.98-2.38 4.258-1.097 1.524-4.415 3.009-4.415 3.009 1.29.312 2.83.589 2.83.589s3.168-1.403 4.574-2.99c1.095-1.28 2.607-3.982 2.607-3.982l-.662-.202a.21.21 0 0 0-.089-.359c-1-.276-2.915-.91-4.533-1.472q.057-.07.114-.142c1.22-1.587 1.523-1.403 1.523-1.403s3.963 0 5.548-2.99c.464-.905.83-1.509 1.122-1.91.486.098 1.385.279 2.065.407-.243.75-.828 2.383-1.595 3.337-1.342 1.71-4.02 3.99-4.02 3.99l-.194.114c.38.379 3.45.772 3.45.772s2.358-1.898 2.613-2.47c.318-.569 1.085-1.583 1.529-2.595.381-1.08.7-2.156.7-2.156l-2.359-1.393-.05.169a.213.213 0 0 0-.174-.238c-.585-.1-1.132-.203-1.67-.312.483-.547.658-.392.658-.392s2.744-.735 4.022-6.039c.239-1.056.403-1.73.5-2.122q.986.055 1.987.101c.116.005.265-.064.27-.18.008-.117-.678-.079-.793-.085l.593-.138q-.989-.047-1.954-.097l.01-.04s5.118-2.926 6.032-5.855c.256-.952.448-1.771.558-2.275 1.22-.1 2.45-.134 3.598-.234-.263 1.01-1.209 4.09-3.064 7.4l3.11-.183 1.402-1.768s2.379-4.146 2.012-5.61c0 0-3.42-.217-3.433-.17-.658.025-2.31.034-3.532.133l.02-.099s3.23-4.387 3.173-6.83c-.123-2.437-.306-4.754-.306-4.754s.099-.036.262-.126c2.25-.51 4.411-1.082 6.38-1.733-.683 2.273-2.694 8.755-4.09 11.15 0 0 3.597-1.036 4.085-1.218 0 0 3.623-8.498 3.383-11.094 3.132-1.243 9.808-4.038 9.713-4.013l-.169-.63c-5.992 2.756-12.28 4.917-18.038 6.42.543-.697 1.083-1.752 1.335-3.33l.407-3.85c2.255-.855 3.594-1.759 6.177-3.047.031-.017.056-.016.077-.043-.01 1.231-.292 4.741-3.003 8.24 0 0 3.415-1.219 3.904-1.403 0 0 2.144-4.492 2.631-8.822l-3.542 1.505s-.16.068-.25.115c-1.247.622-3.397 1.83-5.12 2.633.732-.667 1.718-2 2.014-4.473l.062-6.95s.112-.146.271-.404c2.315-1.35 4.487-2.632 6.366-3.735.113 1.313.342 6.666-2.886 10.969 0 0 4.412-3.047 4.872-3.225 0 0 2.131-5.443 1.351-9.693l-1.97 1.026c-.141-.06-.63-.065-.727-.008l-.087.07c-1.872 1.095-4.09 2.404-6.478 3.798.5-1.033 1.02-2.618.63-4.287-.366-1.544-1.028-2.194-1.43-2.456 1.98-1.304 3.904-2.578 5.735-3.778a.256.256 0 0 0 .077-.352.24.24 0 0 0-.34-.078l-.077.034c-1.887 1.236-3.869 2.548-5.903 3.89-.297-.234-.923-.853-1.414-2.2-.858-2.194-.613-4.754-.613-4.754s.128-.484.265-1.32c1.77-1.646 3.522-3.296 5.269-4.9a.24.24 0 0 0 .016-.342.244.244 0 0 0-.343-.015 561 561 0 0 1-4.813 4.377c.315-2.433.504-6.563-.877-10.74a852 852 0 0 0 3.74-3.54c.997-.952 1.957-1.89 2.998-2.932.725 2.107 1.566 5.365 1.02 8.057l2.891-3.994s.184-4.196-1.178-6.86c.744-.794 1.45-1.589 2.2-2.472l.014-.009.11-.136a116 116 0 0 0 4.622-6.141l.169-.24c.224 1.978.36 4.402-.02 6.093-.202 1.291.283 1.164.688.422.924-1.543 2.779-4.4 2.779-4.4s.595-3.466.535-7.842a571 571 0 0 0 8.424-12.74l.013-.016a1.063 1.063 0 0 0-.33-1.44M69.41 49.65c-1.714 5.631-.333 10.185-.333 10.185s-.045.396-.175 1.03c-2.564-1.601-5.042-3.301-7.544-5.173-.294-.614-.999-1.224-.999-1.224-.36-2.58.402-10.897.834-12.55 2.694 2.54 5.389 5.075 8.217 7.732m6.803 28.528c-2.468-.656-4.953-1.515-7.28-2.42l-.688-.268c-.1-.625-.142-1.023-.142-1.023-.488-.975-.672-3.659-.488-4.816.086-.516.44-.737.794-.95 1.743.868 3.436 1.68 5.023 2.399 1.035.472 1.966.87 2.962 1.268-.237.25-.664.857-1.037 2.222-.414 1.52.423 2.969.856 3.588m-7.989-14.87c-.609 2.012-1.098 3.904-1.098 3.904s-.11.064-.28.258c-1.116-.57-2.188-1.13-3.182-1.657a441 441 0 0 1-4.124-2.22c.055-.145.087-.318.087-.53 0-1.46 1.709-5.973 1.83-6.704q.001-.01.005-.02a108 108 0 0 0 7.337 5 18 18 0 0 1-.575 1.97M57.74 65.501c.178-.982 1.11-1.016 1.594-1.564 2.4 1.312 4.867 2.624 7.271 3.85-.286.432-.642 1.157-.94 2.349-.672 2.44 1.28 4.697 1.28 4.697l.012.14a131 131 0 0 1-4.697-2.012 238 238 0 0 1-3.908-1.804l-.004-.043c-.608-1.1-.792-4.331-.608-5.613m-3.899 12.085c-3.329-4.614-3.146-8.8-3.042-9.813 1.76.92 3.644 1.874 5.594 2.824.33.55.614.88.614.88l.367 4.087c.266 1.809.868 3.002 1.463 3.773a194 194 0 0 1-4.996-1.75m4.56-6.025c2.829 1.34 5.749 2.642 8.59 3.79l.257 2.955c.414 2.708 1.691 3.827 2.297 4.214a145 145 0 0 1-8.354-2.413c-1.853-2.22-2.6-7.054-2.79-8.546m6.578 17.673c-2.179-2.137-3.117-7.583-3.26-8.483.749.235 1.512.47 2.3.708 1.82.549 3.832 1.116 5.9 1.627l.44 3.697c.669 3.23 2.622 3.535 2.622 3.535l.029.18c-2.485-.266-5.25-.723-8.03-1.264m.794.744c2.349.375 4.743.686 7.296.95.09.696.216 1.917.216 3.292 0 1.88 1.502 2.706 1.783 2.845a164 164 0 0 1-7.935-.178c-1.636-2.287-1.425-6.111-1.36-6.909m1.721 7.353-.002-.002c.996.043 2.012.078 3.07.107 1.606.046 3.018.063 4.536.055-.024.883-.017 3.055.503 4.9.22.881.663 1.38 1.138 1.657a432 432 0 0 1-6.383.694c-3.013-2.2-2.862-7.411-2.862-7.411m9.458 14.733c-3.36-2.032-5.558-6.745-5.558-6.745a5 5 0 0 1-.595-.29c2.223-.227 4.339-.459 6.59-.723.615.146 1.137.036 1.137.036s1.16 1.28 2.562 4.087c.731 1.315 1.587 1.914 2.28 2.184-.624.15-1.258.299-1.935.455-1.568.358-3.028.684-4.48.996m1.757.754a6 6 0 0 1-1.227-.462 246 246 0 0 0 6.736-1.543c.288.026.465-.005.465-.005s1.465 1.462 2.927 4.083c1.13 1.975 2.767 1.957 3.455 1.845a80 80 0 0 1-5.894 2.134c-4.444-.874-6.462-6.052-6.462-6.052m7.283 6.216q2.837-.942 5.603-2.079c.361.522 1.206 1.727 2.537 3.547.347.458.692.796 1.023 1.045a338 338 0 0 1-4.82 2.54c-2.596-1.654-4.122-4.606-4.343-5.053m7.655 6.162c-.999-.05-1.91-.34-2.728-.769a312 312 0 0 0 3.698-1.944q.565-.299 1.105-.588c1.21.59 2.13.071 2.13.071s1.524 1.644 2.317 2.925c.68 1.1 2.748 1.256 3.325 1.279a346 346 0 0 1-5.193 3.346c-2.718-1.248-4.654-4.32-4.654-4.32m19.812 6.16c1.01.524 1.698.22 2.047-.046-.671 1.217-1.819 3.367-2.514 4.333-3.751.2-6.42-2.642-6.42-2.642q-.175 0-.348-.007a30 30 0 0 0 1.58-1.466 21 21 0 0 0 1.973-2.248c.942.53 2.692 1.514 3.682 2.076m-7.803-3.233c1.646 1.648 3.476.794 3.476.794l.246.138c-1.135 1.466-2.417 2.732-3.794 3.878-3.262-.443-5.536-2.92-5.536-2.92a5.2 5.2 0 0 1-1.08-.234 213 213 0 0 0 5.029-3.283c.296.28.812.778 1.659 1.627m-2.807-10.266c.404.47 1.126 1.34 1.588 2.095.731 1.039 2.927 1.039 2.927 1.039s.374.266 1.531 1.409c-.718.587-1.848 1.378-2.6 1.894-.502.345-1.111.755-1.791 1.208-.083-.078-.127-.123-.127-.123-3.05-.365-5.549-4.208-5.549-4.208a5.4 5.4 0 0 1-1.337-.231c1.225-.67 2.429-1.344 3.743-2.093l1.174-.697zm-8.96-6.197c1.281 2.134 3.17 1.464 3.17 1.464s.793 1.097 2.317 3.17c1.067 1.436 2.133 1.492 2.717 1.375-.988.608-2.964 1.722-5.316 3.002-2.122-.957-3.575-3.037-4.219-4.119a87 87 0 0 0 4.78-2.202.21.21 0 0 0 .094-.285.21.21 0 0 0-.283-.094 91 91 0 0 1-4.794 2.226c-.115-.207-.173-.33-.173-.33-4.389-.364-6.34-5.365-6.34-5.365l-.179-.05a102 102 0 0 0 3.405-.926 32 32 0 0 0 2.689-.888 18.7 18.7 0 0 1 2.133 3.022m-7.576-8.592c.284.346 1.107 1.41 2.088 3.225 1.22 2.26 3.05 2.013 3.05 2.013l.013.014c-.837.313-1.605.56-2.519.825a93 93 0 0 1-2.692.746l-1.244.318c-3.205-1.429-5.359-5.857-5.502-6.156 1.262-.15 1.956-.25 3.22-.418a65 65 0 0 0 3.586-.567m-2.607-1.712c.29 1.055.963 1.44 1.538 1.566a82 82 0 0 1-2.574.389 231 231 0 0 1-3.69.472c-2.533-1.453-2.856-5.094-2.892-6.3l.378-.005c2.428-.026 4.5-.141 6.868-.386-.016.608-.033 2.582.372 4.264m-1.889-6.831c0 1.15.744 1.854 1.193 2.174a75 75 0 0 1-6.554.356l-.395.003c-1.546-1.678-1.535-4.823-1.472-5.986 2.326.2 4.667.304 6.999.313.05.352.23 1.679.23 3.14m-2.927-9.452.487 3.292c.277 1.488.946 2.23 1.473 2.593a79 79 0 0 1-6.231-.304l.003-.03c-2.103-1.028-3.148-5.511-3.479-7.242 2.403.56 4.841 1.022 7.113 1.273.357.312.634.418.634.418m-1.112-.926c-2.243-.276-4.54-.731-6.722-1.253l-.032-.198c-1.578-1.365-2.379-4.85-2.717-6.818 1.464.571 2.9 1.099 4.282 1.563 1.346.454 2.53.806 3.872 1.148l.294 2.827c.16 1.308.59 2.173 1.023 2.73m-.23-15.169a39 39 0 0 0-.928 3.049c-2.477-1-5.22-2.282-7.837-3.582.236-.189.412-.438.412-.87 0-1.28 1.16-4.269 1.281-4.94a.9.9 0 0 0 .032-.257 121 121 0 0 0 7.646 4.173c-.085.532-.261 1.431-.605 2.427m.669-2.904a119 119 0 0 1-7.817-4.29c-.151-.504-.41-.976-.41-.976-.284-2.089.322-7.943.85-9.815 1.427 1.34 2.891 2.713 4.411 4.137l3.018 2.837c-1.242 4.452-.05 8.084-.05 8.084zM198.83 64.34c.139-.523 1.027-4.242-.456-8.58q.686-.677 1.406-1.376a470 470 0 0 1 5.847-5.586.3.3 0 0 0 .012.059c.549 1.156 1.585 7.133 1.342 9.389 0 0-.142.12-.318.305-2.648 2.113-5.289 4.088-7.833 5.789m.774 2.991c-.386-1.04-.6-1.935-.706-2.452a147 147 0 0 0 7.152-5.038l.015.052c.123.548 1.705 4.451 1.77 5.73q0 .013.002.025c-2.503 1.532-4.982 2.984-7.376 4.277-.191-.602-.511-1.598-.857-2.594m2.317 5.55c-.61-2.011-1.28-2.38-1.28-2.38q0-.001-.026-.085a161 161 0 0 0 7.334-4.245c.35.694 1.39.565 1.592 1.526.096.858.079 2.758-.165 4.014-2.797 1.53-5.476 2.93-7.792 4.023.355-.746.666-1.8.337-2.854m-1.221 6.829.245-2.925s.096-.119.233-.327c2.35-1.085 5.12-2.523 8.034-4.113-.03.084-.063.164-.096.232 0 0-.428 6.34-2.685 8.292 0 0-.012.108-.042.3a268 268 0 0 1-6.892 1.548c.494-.532 1.046-1.458 1.203-3.007m-2.376 7.013.306-3.355.052-.023c1.832-.464 4.704-1.111 7.649-1.791-.252 1.553-1.014 5.336-2.652 6.914-2.901.541-5.444.957-7.47 1.297.191-.053 1.66-.538 2.115-3.042m-3.782 8.72s1.524-.734 1.466-2.501a18 18 0 0 1 .118-2.734c2.17-.365 4.533-.735 6.97-1.134.087.785.384 4.411-1.298 6.306 0 0 .118 2.134-.65 4.11-2.357.117-4.68.19-6.872.196.5-1.98.266-4.243.266-4.243m-4.817 9.449c1.16-2.317 2.135-3.353 2.135-3.353s1.709.277 2.295-1.43c2.172-.004 4.472-.073 6.81-.187-.48 1.03-1.229 1.97-2.398 2.474 0 0-1.123 2.247-2.765 4.41-2.213-.23-4.432-.527-6.728-.919.23-.265.45-.592.651-.995m-5.304 5.49c1.158-2.135 2.318-3.356 2.318-3.356s.994.1 1.981-.778c2.293.391 4.546.693 6.795.93-1.242 1.571-2.744 3.024-4.265 3.448 0 0-.501 1.654-1.84 3.077a83 83 0 0 1-5.768-2.33c.275-.24.542-.562.78-.99m-8.122 6.286c.58.113 1.682.072 2.696-1.409 1.525-2.134 2.255-3.293 2.255-3.293s.987.307 1.996-.303c1.872.85 3.837 1.754 5.768 2.428-.87.792-2.031 1.447-3.553 1.595 0 0-1.085 2.782-3.794 3.925a85 85 0 0 1-5.368-2.943m-3.708 15.465c-1.123-1.482-2.121-2.922-2.766-3.943.527.134 1.937.328 3.196-.98q.41-.425.728-.743c.312.331.51.518 1.144 1.006.958.74 2.065 1.463 3.205 2.13-.983.864-3.007 2.339-5.507 2.53m11.892-4.983s-2.194 1.342-5.733 1.827c0 0-.114.126-.323.327-1.167-.677-2.3-1.412-3.278-2.164-.577-.448-.798-.654-1.1-.972.778-.77 1.046-.97 1.046-.97s2.682-.548 3.474-1.831c.731-1.34 1.829-2.5 1.829-2.5s.989.051 2.116-.37a65 65 0 0 0 6.706 2.788c-1.044 1.268-2.61 2.787-4.737 3.865m6.341-6.22s-.429.862-1.32 2.004a63.79 63.79 0 0 1-6.475-2.661c.46-.23.924-.548 1.33-.99 1.219-1.22 1.708-3.11 1.708-3.11s2.4-.047 3.958-1.736a74 74 0 0 0 5.78 1.678c.569.146 1.108.275 1.638.397-.85 1.37-2.945 4.014-6.619 4.418m7.072-5.242s-.073.165-.225.438a66.555 66.555 0 0 1-7.316-2.09q.186-.252.346-.547c1.403-2.682 1.707-2.804 1.707-2.804s2.924-.922 4.385-3.378c2.045.196 4.095.345 6.178.466-.469 1.384-2.471 6.85-5.075 7.915m5.33-8.307a164 164 0 0 1-6.226-.456l.043-.08c1.4-2.806 2.5-4.149 2.5-4.149s2.547-.867 3.45-2.881c2.172-.125 4.353-.281 6.466-.447-.745 1.72-3.034 6.447-6.233 8.013m6.497-8.649-.078.197c-2.119.167-4.307.325-6.49.452l.046-.16c.547-2.44-.43-3.842-.43-3.842s1.77-.853 1.71-2.986a22.7 22.7 0 0 1 .195-3.582c2.587-.434 5.225-.907 7.78-1.448-.082 1.2-.705 9.174-2.733 11.37m3.743-12.37c-2.82.697-5.507 1.273-7.98 1.757.606-.429 1.392-1.337 1.678-3.228l.382-3.621c3.084-.719 6.102-1.45 7.952-2.026l.216-.069c-.135 1.435-.633 5.25-2.248 7.187m2.292-7.75q0 .001-.003.058c-2.641.803-5.524 1.56-8.168 2.207l.001-.01s2.076-.852 2.438-4.451l.243-3.536s.52-.654.918-1.627a462 462 0 0 0 7.367-4.2c-.063 1.563-.49 9.42-2.796 11.56m2.424-18.966c.552.666.942 1.604 1.174 2.868.22 1.154-.205 2.755-.649 3.909a489 489 0 0 1-7.285 4.155c.219-.758.313-1.634.07-2.52-.731-2.375-1.586-2.801-1.586-2.801s-.025-.09-.073-.25a433 433 0 0 0 8.349-5.361m-.332-.399a431 431 0 0 1-8.164 5.253 66 66 0 0 0-.999-3.085 16.6 16.6 0 0 1-.827-2.956c2.918-2.276 5.736-4.785 8.504-7.334-.007.37-.023.695-.054.961 0 0-.737 1.403-.491 2.134.17.736 1.073 3.721 2.031 5.027m-1.49-8.924c-2.756 2.453-5.639 4.939-8.527 7.284.24-1.085.97-5.305-.8-10.13 1.618-1.51 3.251-3.02 4.995-4.628 1.099-1.015 2.139-1.98 3.165-2.936.41 1.478 1.101 7.069 1.168 10.41"></path><path fill="#140e0c" d="M38.587 37.206c-.365 6.341 1.107 10.721 1.107 10.721s5.792 6.952 4.694 3.78c-1.217-3.536-.404-9.347-.404-9.347zM39.425 51.177c-.426 5.06 1.123 6.932 1.123 6.932s4.388 5.061 3.534 1.464c-.548-2.256-.357-5.21-.357-5.21zM44.205 71.282c-1.525-3.172-1.216-8.44-1.216-8.44l-3.867-2.43c-.367 6.343 1.425 8.736 1.425 8.736s4.327 3.535 3.658 2.134M53.58 97.178l-2.743.306c-.794 3.353.79 5.363.79 5.363s3.779 1.527 3.233.489c-1.404-3.231-1.28-6.158-1.28-6.158M57.355 107.283l-2.327.53c-.124 2.44 1.839 4.288 1.839 4.288s3.78 1.157 3.11.06c-1.89-2.804-2.622-4.878-2.622-4.878M64.982 116.102l-2.075.793c-.122 2.257 1.281 3.779 1.281 3.779s3.17.489 2.744-.304c-1.77-2.866-1.95-4.268-1.95-4.268M71.386 123.055l-1.525.73c.61 1.708 2.134 4.085 2.134 4.085s3.72.062 3.11-.488c-2.074-1.89-3.72-4.327-3.72-4.327M84.886 134.044c-2.075-1.769-3.963-3.963-3.963-3.963l-1.646 1.283c.607 1.704 3.109 4.205 3.109 4.205s3.719-.548 2.5-1.525M102.059 143.008c-2.074-1.707-4.635-2.985-4.635-2.985l-1.953 1.707c.674 1.646 4.392 3.108 4.392 3.108s3.292-1.034 2.196-1.83M109.108 148.535s2.318-1.463 1.1-2.01c-2.44-1.158-4.999-1.282-4.999-1.282l-1.525 1.645c.547 1.708 5.424 1.647 5.424 1.647M147.663 122.618c-1.784-.335 1.78 2.066 3.291-.61.152-.286.255-.452.31-.532-.235.293-1.415 1.554-3.601 1.142M151.264 121.476c.057-.074.057-.087 0 0M151.87 124.45c-1.89-.368 1.95 1.768 3.293-.612.154-.29.257-.458.31-.537-.224.285-1.406 1.562-3.603 1.149M155.474 123.3c.051-.066.051-.077 0 0M151.788 126.23c.091-.11.09-.136 0 0M148.213 127.313c-1.892-.366 1.95 1.77 3.291-.608.131-.239.225-.39.284-.476-.285.34-1.46 1.484-3.575 1.084M152.235 129.57c-1.891-.366 1.95 1.768 3.353-.609.915-1.769-.125 1.219-3.353.61M153.684 132.504c.207-.194.189-.285 0 0M153.577 132.677q.06-.102.107-.173c-.336.315-1.266.903-3.034.6-1.768-.244 1.707 1.465 2.927-.427M154.505 135.932c.191-.182.19-.253 0 0M154.309 136.215q.119-.181.196-.283c-.357.34-1.383 1.06-3.121.772-1.71-.245 1.705 1.4 2.925-.489M148.884 135.85c.974-1.403-.122.914-2.99.242-1.431-.318 1.433 1.807 2.99-.242M147.97 130.788c.972-1.403-.123.914-2.99.245-1.705-.367 1.708 1.524 2.99-.245M148.149 139.875c-1.644-.369 1.646 1.523 2.989-.307.122-.165.21-.274.268-.342-.295.27-1.407 1.08-3.257.65M151.406 139.226c.104-.096.107-.122 0 0M145.896 126.154l.046-.061c-.43.297-1.38.677-2.975.305-1.707-.305 1.647 1.523 2.929-.244M145.942 126.093c.384-.265.354-.46 0 0M142.894 134.942c.085-.064.088-.08 0 0M139.555 135.24c-1.644-.61 1.462 1.647 2.99.061.17-.188.284-.3.349-.36-.286.211-1.496.941-3.34.298M141.793 139.457c.089-.066.091-.083 0 0"></path><path fill="#140e0c" d="M141.444 139.814c.168-.186.283-.299.35-.357-.294.214-1.503.934-3.336.295-1.584-.611 1.463 1.647 2.986.062M135.063 144.504c.09-.066.092-.083 0 0M131.729 144.8c-1.585-.612 1.463 1.646 2.986.061.168-.186.282-.298.348-.357-.292.214-1.5.934-3.334.296M127.508 132.265c-.077-.1-.078-.082 0 0M130.714 133.105c-1.904.317-2.956-.58-3.206-.84.055.07.148.2.281.412 1.16 1.892 4.634.183 2.925.428M129.923 136.704c-1.899.322-2.94-.612-3.18-.871.05.066.135.185.255.382 1.218 1.889 4.694.244 2.925.49M126.743 135.833c-.07-.094-.07-.079 0 0M135.35 136.092c-1.82.427-2.923-.35-3.224-.616.063.07.161.19.297.374 1.278 1.767 4.634-.124 2.926.242M132.126 135.476c-.113-.128-.111-.099 0 0M136.323 131.033c-2.863.67-3.96-1.648-2.987-.245 1.343 1.769 4.575-.122 2.987.245M129.933 139.282c-.19-.213-.184-.153 0 0M133.093 139.875c-1.697.405-2.791-.284-3.16-.593q.087.099.235.286c1.341 1.83 4.633-.062 2.925.307M126.448 139.02s-1.89.242-2.865-1.708c0 0 .73 2.805 2.865 1.708M156.794 138.569c-.095.181-.916 1.62-2.485 1.181-1.34-.365 1.34 1.71 2.256-.61.126-.348.204-.518.229-.571M156.794 138.569q.02-.038 0 0M124.558 142.8s.61 2.866 2.683 1.404c0 0-1.769.547-2.683-1.404M155.894 144.204c.089-.224.157-.375.201-.47-.233.375-1.048 1.399-2.455 1.017-.86-.244 1.386 1.648 2.254-.547M156.095 143.734c.096-.151.096-.198 0 0M204.926 119.51s.29 4.429-3.409 6.512c-.309.13 2.795.132 2.795.132s2.516-2.668 2.39-5.079zM192.532 132.736c-.117.06 3.171.183 3.171.183s2.502-2.44 3.17-4.146l-1.232-1.63s-2.06 3.884-5.11 5.593M181.178 141.088c-.575.07 1.783 1.436 1.783 1.436s4.396-1.436 5.035-3.354l-1.275-2.054s-2.104 3.354-5.543 3.972M179.486 143.69l-.587-1.93s-3.729.481-5.886 2.689c-.327.344 1.568 1.86 1.568 1.86s3.795-1.656 4.905-2.62M207.651 108.412s-.464 1.913-1.576 3.94c-1.114 2.027-4.138 4.31-4.138 4.31.37.19 3.397 0 3.397 0s2.778-2.472 3.397-3.612c.68-1.266 1.418-3.677 1.418-3.677-.492-.507-2.498-.961-2.498-.961M228.928 59.34s1.667-4.417.326-6.915c0 0-1.7 1.055-3.107 1.908 0 0 1.501 3.117-.082 6.835 0 0 2.804-1.829 2.863-1.829M228.748 50.986s1.929-6.476-.693-9.16l-3.493 2.226s1.804 2.665 1.747 8.826zM235.748 36.39s1.487 3.794.206 7.33c-1.098 3.173 4.51-2.438 4.51-2.438s1.533-3.196 1.165-9.477zM236.888 47.448s.22 2.003-.386 4.624c-.794 3.296 3.352-.243 3.352-.243s1.42-1.955 1.055-7.137zM236.265 56.872s-.01 5.635-1.474 8.866c-.974 1.951 3.293-2.073 3.293-2.073s2.442-2.717 2.078-9.058zM226.01 92.728c-.591 1.2 1.952-.061 1.952-.061s3.132-4.537 3.248-8.193l-3.421.136s-.279 4.931-1.779 8.118M221.398 99.45s-.71 2.268-2.073 4.83c-.59.984 2.426.097 2.426.097s3.08-1.674 2.959-4.483c-1.005-.199-2.25-.444-3.312-.444M209.716 115.215c-.617 1.02 2.869-.276 2.869-.276s1.352-1.151 1.403-3.615l-1.609-1.018s-.33 1.025-2.663 4.909M185.402 97.678s-1.71 3.537-4.27 4.208c0 0-1.282 3.233-4.327 3.537 0 0-1.584 3.29-4.512 3.537 0 0-1.648 2.437-3.78 2.742 0 0-1.648 1.647-3.902 1.769 0 0-1.646 1.645-4.022 1.525 0 0-1.162.12-2.319 0-1.767-.123-1.28.61 0 .793.796.12 1.77-.06 2.44-.306 0 0 .608.673 1.586.122.974-.489 2.986-1.586 2.986-1.586s1.28.488 2.379-.548c1.098-1.097 1.403-1.28 1.403-1.28s1.828 0 2.376-.853c.608-.854 1.526-1.891 1.526-1.891s1.338.609 2.558-1.035c1.222-1.649 1.83-2.501 1.83-2.501s1.585.487 2.561-1.16c.975-1.708 1.949-2.683 1.949-2.683s1.586.184 2.498-1.584c.916-1.769 1.711-2.622 1.711-2.622s1.583.244 2.01-1.282c.426-1.523.243-3.413.243-3.413s1.222-.55 1.159-1.891c0-1.343.182-2.5.182-2.5s1.405-.246 1.769-2.256l.243-2.621s1.466-.55 1.709-2.805l.185-2.258s1.338-1.462.79-2.988c-.49-1.584-1.036-1.83-1.036-1.83s-.368-1.218-.856-2.438a10 10 0 0 1-.61-2.255s.841-2.555-.684-6.215c0 0-.84.972-.776 1.215.119.853 1.097 3.717.852 5.243 0 0-.733.61-.61 1.036.124.367 1.218 2.867 1.218 3.66s1.04.55 1.158 1.281c.126.73.065 2.498-.241 3.11 0 0-.363 4.022-1.889 5.303 0 0-.552 4.208-2.317 5.063 0 0 .366 2.804-.916 4.146 0 0 .185 3.535-2.254 4.511M110.632 186.401c-.364 1.649 2.094 3.19 3.806 2.925 1.89-1.28-3.197-5.245-3.806-2.925M116.402 183.594c-.36-.66-2.824-2.404-4.206-2.764-.533-.139 4.791 3.838 4.206 2.764M158.397 194.99c1.524 1.646 6.28-1.1 6.28-2.807-.064-2.438-7.742 1.097-6.28 2.807M147.49 198.35c.974 2.072 6.34.61 6.764-.914.488-2.38-7.8-.975-6.765.913M136.146 198.235c.587 1.557 6.026 2.253 6.743.156.714-2.043-7.603-2.336-6.743-.156M115.525 193.69c-.058 1.706 4.697 4.453 6.16 2.743 1.523-1.707-6.16-5.18-6.16-2.744M164.475 185.472c1.005.095 5.075-2.373 5.125-2.791.21-1.396-7.078 2.466-5.125 2.79M161.94 181.09c1.315-.452 4.208-2.201 4.508-2.647 1.024-1.436-6.506 3.295-4.508 2.647M161.87 187.418c.35-1.47-6.793 1.947-5.03 2.483.913.199 4.935-2.042 5.03-2.483M159.62 182.457c1.147-1.342-6.771 2.712-4.723 2.24 1.35-.334 4.386-1.824 4.723-2.24M148.514 192.935c.704.314 4.348-.945 4.502-1.305.54-1.19-5.828.57-4.502 1.305M137.147 192.736c.553.58 4.69.613 4.997.298 1.057-1.028-5.98-1.54-4.997-.298M146.29 187.171c1.39-.06 4.66-.916 5.074-1.257 1.39-1.087-7.175 1.312-5.074 1.257"></path><path fill="#140e0c" d="M176.069 153.216a4.8 4.8 0 0 1 2.282.052l.008.002a13 13 0 0 0 1.599.261c.496.056.928.063 1.429.022.447-.03.824-.139 1.216-.36.367-.207.588-.56.664-.965.206-1.1.386-2.159.048-3.29a2.47 2.47 0 0 0-.86-1.244 3.1 3.1 0 0 0-1.212-.553 1.9 1.9 0 0 0-.767 0 6.6 6.6 0 0 0-1.598.514c-.595.263-1.087.504-1.658.814-2.461 1.34-5.208 3.176-7.422 4.7-.323.224-.996.68-1.328.883-.304.189-.697.183-1.032.127a4.4 4.4 0 0 1-2.5-1.283 2.96 2.96 0 0 1-.763-1.303c-.372-1.303-.147-2.821.135-4.079.117-.51.273-1.48.732-1.663.395-.162.602-.212.897-.492a3.42 3.42 0 0 0 1.029-2.436 5.5 5.5 0 0 0-.224-1.594 9.5 9.5 0 0 0-1.516-3.022c-.377-.518-.992-.94-1.649-.876-1.933.191-3.59 3.924-3.735 5.36-.06.696-.071 1.285-.039 1.984.031.795.046 1.17.102 1.966.117 1.636.241 3.016.422 4.647a7.4 7.4 0 0 1-.45 1.648c-.133.336-.337.696-.592.956a1 1 0 0 1-.611.298l.425.327c.175-.073.34-.182.486-.326l.008-.007c.31-.333.517-.669.68-1.094.233-.597.376-1.13.475-1.765l.004-.055c-.177-1.588-.7-6.72-.49-8.537.08-.683.409-1.54.734-2.213.352-.731.77-1.398 1.324-2.002.332-.358.786-.71 1.3-.764.242-.024.454.023.663.151.89.534 1.734 2.398 2.05 3.448.692 2.35-.533 3.447-.69 3.597-.25.24-.42.264-.762.407a1 1 0 0 0-.38.28c-.438-.005-1.593-.093-2.076-.85-.667-1.002-1.14-1.83-.767-.568.321 1.327 1.01 1.591 1.51 1.807.431.098.605.941-.127.983-.792.045-1.678-.513-1.35-.104.273.474 1.437.59 1.437.59s.614 1.125.08 1.398c-.528.337-.488 1.068-.36 2.282.193 1.213.358 3.033 1.001 3.606.518.52.018-1.456.987-.536.7.625 1.585.368 2.134.172q.193.047.398.08c.205.033.403.04.61.03.249-.014.502-.081.717-.214.477-.305.877-.569 1.342-.894a134 134 0 0 1 4.753-3.136c1.345-.85 2.791-1.69 4.256-2.339.578-.256 1.525-.61 2.104-.491.399.09.723.238 1.05.48 1.206.915.894 2.897.65 4.11-.059.29-.196.53-.458.683a2.4 2.4 0 0 1-1.041.303 7 7 0 0 1-1.35-.02 13 13 0 0 1-1.547-.25 5 5 0 0 0-2.475-.057c-.948.2-1.728.49-2.57.966a1.6 1.6 0 0 0-.535.467c-.39.51-.71 1.258-.96 1.883l-.498 1.19c-.49 1.167-1.258 2.602-2.547 3.057-.278.094-.51.19-.774.318-.217.102-.414.24-.549.426l.336.258a.5.5 0 0 1 .098-.111c.22-.187.717-.383 1.026-.491 1.429-.498 2.246-1.996 2.803-3.293.292-.692.716-1.78 1.056-2.444.105-.2.207-.359.343-.536.117-.153.241-.261.405-.356M122.208 153.648a7.5 7.5 0 0 1-.543-1.62c.09-1.639.134-3.023.157-4.664.012-.796.005-1.173-.009-1.97a14 14 0 0 0-.152-1.977c-.225-1.425-2.093-5.058-4.032-5.138-.66-.028-1.25.429-1.596.966a9.5 9.5 0 0 0-1.344 3.105 5.5 5.5 0 0 0-.132 1.604 3.43 3.43 0 0 0 1.164 2.372c.312.263.52.3.924.44.468.158.68 1.118.826 1.62.352 1.239.663 2.744.367 4.065-.12.52-.336.942-.69 1.344a4.4 4.4 0 0 1-2.422 1.423c-.331.076-.723.103-1.037-.069-.343-.184-1.129-2.437-1.464-2.642-2.297-1.397-5.056-1.236-7.588-2.436a22 22 0 0 0-1.703-.716 6.5 6.5 0 0 0-1.626-.424 1.9 1.9 0 0 0-.764.044 3.1 3.1 0 0 0-1.18.621 2.5 2.5 0 0 0-.787 1.29c-.274 1.15-.034 2.196.235 3.282.098.4.34.741.717.927a2.75 2.75 0 0 0 1.235.291c.504.012.934-.019 1.427-.104.561-.091 1.032-.196 1.58-.352l.007-.002a4.8 4.8 0 0 1 2.277-.182c.912.139 1.703.735 2.534 1.14.17.085.299.185.423.331.148.17.226-.036.341.157.379.644.863 1.706 1.195 2.38.63 1.262.939.952.382-.186l-.564-1.16c-.285-.609-.614-.979-1.033-1.467a1.6 1.6 0 0 0-.562-.436c-.868-.426-1.694-1.031-2.653-1.176a4.96 4.96 0 0 0-2.467.196c-.533.15-.985.252-1.53.34-.469.076-.87.105-1.347.096a2.4 2.4 0 0 1-1.057-.245c-.27-.136-.42-.37-.496-.655-.312-1.197-.736-3.16.415-4.142.314-.26.629-.424 1.023-.536.57-.153 1.536.146 2.127.369 1.5.565 3.133 1.59 4.713 1.773 2.74.317 2.855 1.824 4.567 2.863.484.298.924.857 1.417 1.135.22.12.479.173.728.173.207-.002.405-.02.608-.064a4.9 4.9 0 0 0 1.667-.7c.429-.164.853-.393 1.173-.713.916-.973.121 1.951.608 1.402.61-.609.67-2.436.794-3.657.059-1.219.059-1.952-.486-2.257-.551-.243 0-1.4 0-1.4s1.156-.183 1.4-.672c.304-.426-.55.181-1.343.181-.733 0-.608-.852-.183-.973.488-.245 1.161-.548 1.406-1.892.302-1.281-.124-.427-.735.612-.446.794-1.625.94-2.044.967a1 1 0 0 0-.293-.165c-.349-.123-.523-.137-.784-.363-.167-.14-1.452-1.167-.896-3.552.257-1.066.995-2.975 1.853-3.559.202-.14.41-.198.654-.19.514.026.988.352 1.34.691.588.57 1.043 1.213 1.436 1.924.362.651.738 1.489.859 2.167.313 1.801.081 6.956-.005 8.55l.007.055c.135.63.307 1.153.575 1.736.186.416.413.738.74 1.053l.008.008q.028.023.058.045l.329-.28a1 1 0 0 1-.102-.082c-.27-.245-.495-.593-.647-.92M234.777 70.669l-.04.012-.032.013c-.726.25-1.77.69-1.77.69s-.49 4.295-2.079 7.376c-.619 1.184 3.284-.721 3.284-.721s2.251-4.2 2.472-7.911c0 0-1.026.28-1.747.513q-.042.013-.088.028"></path><path fill="#140e0c" fill-rule="evenodd" d="M116.12 140.783c1.574-.988 2.32 4.076-.011 3.588-2.454-.504-4.243 5.067-4.243 5.067-.565-7.892 2.899-7.88 4.255-8.655"></path><path fill="#fff200" d="m111.79 150.066-.044-.62c-.488-6.826 1.984-7.808 3.62-8.459.27-.107.503-.2.694-.309a.87.87 0 0 1 .46-.144c.736 0 1.192 1.116 1.193 2.15 0 1.357-.672 1.84-1.302 1.84q-.156 0-.328-.035a1.4 1.4 0 0 0-.29-.03c-2.176 0-3.797 4.965-3.813 5.016zm4.73-9.292a.64.64 0 0 0-.336.11c-.21.12-.463.22-.73.326-1.522.606-3.8 1.512-3.503 7.629.507-1.347 1.935-4.621 3.843-4.621q.17 0 .339.035.146.03.278.031c.782 0 1.062-.825 1.062-1.6-.002-.903-.392-1.91-.953-1.91"></path><path fill="#ed1c24" fill-rule="evenodd" d="M80.936 145.698a5.186 5.186 0 0 1-5.189 5.187 5.188 5.188 0 1 1 5.189-5.187M95.157 145.698a5.187 5.187 0 0 1-5.19 5.187 5.189 5.189 0 1 1 5.189-5.187"></path><path fill="#fff200" d="M144.927 103.432c.758.345 1.487.402 2.306.268.55-.078 1.205-.27 1.984-.765 1.38-.879 1.705-3.013 1.151-4.132-.314.013-1.402.135-2.08.274-.136-.327-.422-.636-.702-.546-.301.114-.26.475-.08.86-.636.388-1.501 1.083-2.066 1.556q-.614.613-.946.95-.003 0-.008.007c-.188.256-.317.448-.302.795a.55.55 0 0 0 .162.348c.241.226.345.28.581.385m2.064-3.504c.835-.361 1.354 1.59.239 2.097-.952.358-1.496-1.623-.239-2.097M131.27 103.632c.027-.02.448-.276.504-.722.04-.317-.076-.544-.208-.644-.37-.243-1.097-.737-1.42-1.057-.094-.072-.177-.143-.266-.212.055.648-.487 1.381-1.068 1.22-.908-.461-.813-1.625.002-2.09-.244-.19-.46-.363-.636-.45-.515-.293-2.116-.653-2.337-.686-.082.143-.482.772-.485 1.532 0 .823.12 2.073 1.698 2.94.8.44 3.108.87 4.215.17"></path><path fill="#fff200" d="M129.549 100.646c.436.106.548-1.23 0-1.206-.279.012-.436 1.094 0 1.206M147.139 105.316a5.16 5.16 0 0 1-3.029-.41c-.83-.347-1.477-1.012-1.512-1.944-.014-.395.077-.985.35-1.405q.062-.095.118-.191c-.372.448-.778.9-1.216 1.377-.43.406-.649.857-.712 1.318-1.822-.653-4.768-.513-6.65.009-.029-.419-.208-.894-.522-1.298-.42-.54-.826-.922-1.187-1.357l.196.405c.227.403.318.808.37 1.267.093.847-.475 1.64-1.258 1.913-.982.326-1.884.446-2.9.236-.489-.1-1.5-.256-2.354-.517.299.484.621.93.957 1.302 1.663 1.843 3.174 1.552 3.926 1.452.25-.032.54-.149.838-.328-.16.813-.3 1.672-.516 2.407a7 7 0 0 1-1.017 2.11c.156-.051.312-.063.455-.07.51-.033 1.461-.092 2.897-3.52.242-.718 1.171-2.945 3.358-2.945q.136.002.275.012c1.534.016 2.28 1.404 2.776 2.324.084.157.162.303.235.428.134.206.254.503.403.876.613 1.53 1.341 3.022 2.896 3.022h.05c-.583-.792-1.658-2.158-1.533-4.572.404.3.82.5 1.169.553.793.124 1.797.48 3.944-1.556.572-.511 1.09-1.179 1.528-1.913-.735.507-1.728.928-2.335 1.015m-12.504.78a.661.661 0 1 1-.001-1.323.661.661 0 0 1 0 1.322m6.11 0a.66.66 0 1 1-.002-1.323.66.66 0 0 1 .002 1.323M140.557 115.147a4.9 4.9 0 0 0-.558 1.323q-.023.09-.05.18c.331-.338.759-.977 1.114-1.503q.28-.422.5-.732c-.48.25-.853.504-1.006.732"></path><path fill="#fff200" d="m140.029 114.832.001-.006.02-.03c.247-.338.509-.59.852-.816.52-.347 1.588-.739 2.53-1.035a.7.7 0 0 0 .138-.06.4.4 0 0 0 .111-.073c-1.956-.377-2.795-2.47-3.264-3.643-.12-.297-.232-.579-.308-.691l-.015-.022a14 14 0 0 1-.266-.481c-.534-.993-1.056-1.735-1.963-1.765l-.134-.001c-1.484 0-2.165 1.702-2.337 2.224l-.015.038c-1.183 2.829-2.175 3.743-3.034 4.048a2.5 2.5 0 0 1-.461.117c.076.066.123.083.234.128.452.143.897.297 1.233.46.31.15.619.345.94.598.36.282.61.608.783 1.024.316.606.527 1.133.71 1.765.113.36.236.728.375 1.075a5.64 5.64 0 0 1 1.288 2.17q.01-.03.02-.058l.01-.03c.255-.635.833-1.476 1.457-2.164.18-.365.332-.782.47-1.292.134-.537.322-.982.625-1.48"></path><path fill="#fff200" d="M134.506 115.084c-.05-.145-.26-.606-1.024-1.082q.036.056.067.114c.638 1.2 1.301 2.23 1.625 2.618a8.4 8.4 0 0 0-.654-1.613z"></path><path fill="#140e0c" d="M137.655 107.195c-1.76-.02-.582 8.779-.068 8.778.431 0 1.732-8.76.068-8.778"></path><path fill="#140e0c" fill-rule="evenodd" d="M165.172 140.292c-1.733-.674-1.513 4.44.687 3.524 2.312-.956 5.117 4.18 5.117 4.18-.927-7.858-4.326-7.195-5.804-7.704"></path><path fill="#fff200" d="M170.871 148.052c-.025-.046-2.55-4.618-4.688-4.21a1.5 1.5 0 0 0-.279.084 1.6 1.6 0 0 1-.315.097c-.618.118-1.368-.23-1.623-1.562-.194-1.017.044-2.198.766-2.337a.87.87 0 0 1 .48.055c.208.072.454.118.74.173 1.729.332 4.342.833 5.143 7.629l.074.617zm-6.669-5.637c.146.76.574 1.518 1.342 1.371q.13-.025.268-.081a1.7 1.7 0 0 1 .327-.098c1.873-.358 3.89 2.589 4.643 3.817-.858-6.066-3.266-6.527-4.875-6.837-.282-.053-.55-.103-.778-.184a.66.66 0 0 0-.35-.043c-.552.105-.746 1.168-.577 2.055"></path><path fill="#ed1c24" fill-rule="evenodd" d="M80.936 145.698a5.186 5.186 0 0 1-5.189 5.187 5.188 5.188 0 1 1 5.189-5.187M95.157 145.698a5.187 5.187 0 0 1-5.19 5.187 5.189 5.189 0 1 1 5.189-5.187M82.704 209.288c-4.686-.021-8.922-.893-12.586-2.589-4.175-1.93-7.816-5.116-10.534-9.211-5.812-8.76-6.017-21.555-.488-30.423 2.701-4.33 6.514-7.825 10.737-9.833 3.536-1.682 7.562-2.431 13.063-2.431q.767 0 1.533.015c10.065.039 19.01 5.51 23.37 14.28 4.096 8.235 3.725 18.839-.945 27.014-2.63 4.605-6.37 8.2-10.812 10.39-3.75 1.85-8.17 2.788-13.135 2.788zm.13-2.56c-2.214 0-4.282-.56-5.98-1.617-3.253-2.029-5.46-5.894-6.744-11.818-.86-3.967-1.181-8.473-.985-13.774.507-13.722 4.655-21.14 12.33-22.041l.093-.011.408-.002c1.991 0 4.302.097 6.537 1.27 2.474 1.294 4.384 3.623 5.838 7.12 2.25 5.402 2.37 11.58 2.304 17.443-.067 5.688-.57 12.236-3.808 17.657-1.73 2.87-3.93 4.619-6.734 5.356a12.9 12.9 0 0 1-3.26.416M132.54 159.322h5.434c4.138 0 6.978.247 8.584.617 2.78.68 4.941 1.977 6.424 3.706 1.482 1.668 2.408 4.39 2.78 8.034h1.723V155.86h-44.712v1.483h1.732c1.481 0 2.657.248 3.518.68.866.559 1.484 1.176 1.73 1.73.248.68.434 2.408.434 5.004v34.593c0 2.596-.186 4.202-.434 4.76-.369.86-.926 1.541-1.48 1.85-.925.556-2.287.807-3.768.807h-2.16v1.48h27.843v-1.48h-2.028c-1.709-.035-2.824-.303-3.522-.705-.838-.483-1.42-1.15-1.667-1.769-.246-.618-.432-2.347-.432-4.943v-16.307h1.976c6.55-.215 8.888 2.515 10.283 8.13h1.54V171.6h-1.54c-.927 4.68-3.11 7.955-10.283 7.986h-1.976zM192.428 175.943l13.627-12.37c3.272-3.075 5.325-4.421 6.318-4.914.987-.493 2.56-.967 4.289-1.09l.002-1.825h-18.635v1.481c2.223.061 3.253.113 3.81.36 1.151.503 1.598 1.394 1.565 2.322-.047 1.372-1.459 2.544-4.073 5.068l-18.021 15.601v-15.938c0-2.594.124-4.2.433-4.816.368-.865.926-1.483 1.605-1.791.802-.497 2.521-.806 4.25-.806v-1.48h-27.745v1.721h3.421c1.483 0 2.667-.017 3.52.44.952.508 1.521 1.211 1.705 1.765.308.683.46 2.373.46 4.967v34.596c0 2.593-.188 4.2-.496 4.757-.31.86-.804 1.545-1.483 1.851-.925.556-2.223.803-3.706.803h-2.207v1.483h26.247v-1.483c-1.73 0-3.164-.247-3.966-.74-.801-.369-1.42-1.054-1.668-1.606-.246-.618-.37-2.348-.37-5.065v-14.333l1.916-1.606 11.982 15.071c2.345 2.906 3.584 5.007 3.584 6.056 0 .497-.312 1.114-.806 1.42-.493.434-1.874.679-3.602.803v1.483h27.383v-1.483c-1.484 0-2.967-.429-4.264-1.174-1.85-1.11-4.198-3.397-6.794-6.485z"></path><path fill="#fff200" d="m189.615 153.64-.34-.284c-.028-.023-2.74-2.259-4.713-2.259q-.74 0-1.21.418c-.276.248-.57.374-.87.374-1.019 0-1.784-1.445-1.784-2.38 0-.64.33-1.023.878-1.023h.03a9 9 0 0 1 1.732-.182c2.844 0 4.962 1.7 6.126 4.919zm-5.053-2.784c1.652 0 3.713 1.43 4.522 2.045-1.163-2.892-3.095-4.356-5.746-4.356a9 9 0 0 0-1.7.18l-.013.002h-.049c-.212 0-.377.071-.483.212-.1.132-.155.33-.155.57 0 .844.692 2.14 1.544 2.14q.362-.001.709-.313c.356-.318.818-.48 1.37-.48"></path><path fill="#140e0c" fill-rule="evenodd" d="M101.064 150.532c1.851-.17.368 4.398-1.492 2.909-1.96-1.558-5.497 1.024-5.497 1.024 2.583-6.069 6.189-4.086 6.989-3.933"></path><path fill="#fff200" d="M98.942 150.105c-1.856 0-3.399 1.315-4.589 3.91.679-.434 2.226-1.31 3.666-1.31.642 0 1.189.175 1.628.524q.34.272.679.272c.503 0 .864-.446 1.034-.712.268-.42.434-.961.434-1.413 0-.316-.081-.845-.632-.845q-.041 0-.087.004l-.016.002-.017-.003c-.094-.018-.215-.058-.368-.105-.404-.129-1.016-.324-1.732-.324m-5.149 4.597.171-.4c1.253-2.945 2.928-4.437 4.978-4.437.753 0 1.386.201 1.804.334.137.043.247.078.326.095l.09-.004c.546 0 .873.407.873 1.086 0 .941-.682 2.366-1.71 2.366-.28 0-.559-.11-.828-.326-.395-.313-.892-.472-1.478-.472-1.794 0-3.853 1.487-3.873 1.501z" data-source="https://football-logos.cc"></path><!-- source: https://football-logos.cc --></svg>