<svg xmlns="http://www.w3.org/2000/svg" viewBox="0 0 305 315.94"><!-- Source: https://football-logos.cc --><path fill="#fff" d="M305 152.5c0 60.912-35.714 113.498-87.425 138.039-9.42 4.381-17.966 22.349-28.484 24.978-11.392 2.629-24.978-7.888-37.248-7.888-11.832 0-24.32 10.517-35.276 7.888-9.641-2.192-21.692-20.597-30.456-24.321C32.648 267.313 0 214.727 0 152.5 0 68.362 68.362 0 152.5 0S305 68.362 305 152.5" data-source="https://football-logos.cc"></path><path fill="#005a9f" d="M150.09 296.455c3.068 1.095 4.82 0 7.668-.658 5.697 1.315 11.395 3.067 16.214 6.573 3.068 1.973 7.45 1.973 10.956.877 1.753-.658 8.107-6.792 8.107-6.792s4.602-1.535 6.355-8.766c.219-.437 0-1.314-.439-1.533-3.067-.22-5.258 1.972-8.107 2.19-3.726.658-7.23 2.63-11.175 1.097 1.096-2.191 3.945-1.534 5.917-2.191 7.45-1.753 11.831-4.821 11.831-4.821 2.192-.658 3.725-1.973 6.135-2.848l1.096-.44c3.067-1.533 6.354-2.628 9.64-3.505l3.945-1.972c1.533-.657 1.314-3.068 3.287-3.287 1.533 0 2.629-.657 3.725-1.314 7.888-4.383 14.68-9.86 14.68-9.86 1.315-1.315 2.63-1.973 4.163-3.506 12.928-12.49 19.063-23.225 19.063-23.225 0-.658-.876-.877-.438-1.315 7.231-6.793 15.337-22.788 15.337-22.788s4.164-7.887 6.135-13.365c.22-.877.439-1.314.658-2.191.438-4.382 2.63-8.325 3.944-12.27.657-3.286 1.314-4.382 1.752-7.67.658-3.943.658-7.668.44-13.803 0-1.972.657-3.725.657-5.697.876-2.849 1.534-6.573 0-9.422.219-5.259 0-10.298-.439-15.338l-.219-2.19c-2.191-21.474-8.984-27.828-8.984-27.828-.657-8.326-6.573-16.652-6.573-16.652s-7.012-12.49-16.652-20.815c0 0-2.63-3.068-2.849-1.534 0 0-4.163 1.315-.219 22.35 0 0-12.708-6.355-18.405-3.069 0 0-1.315.658.438 3.506s4.382 7.669 6.354 11.394 5.916 12.708 9.86 17.967l.439.22c-1.096 1.095-1.534 2.847-.876 4.162 5.039 10.298 4.382 18.624 7.01 27.608.658 1.314-1.095 1.971-1.534 3.067-2.41 5.697 1.097 12.27-.657 18.405-1.096 3.944-2.19 5.696-1.972 8.984 0 0-1.753 6.355-2.19 8.107-2.85 10.737-8.985 19.5-14.9 28.484 0 0-2.849 4.82-6.574 12.05 0 0-1.096 2.63-7.669 6.356-6.573 3.944-10.517 1.972-22.349 10.298 0 0-4.381 1.972-17.528 9.202-12.928 7.231-17.09 5.698-27.389 13.147l-2.41.876c-3.944 3.068-5.697 0-5.697 0-10.299-7.668-15.995-7.01-29.142-14.242-12.927-7.23-17.309-8.546-17.309-8.546-11.613-8.326-15.995-7.011-22.35-10.736-6.572-3.944-7.668-6.355-7.668-6.355-4.82-2.19-6.573-12.05-6.573-12.05-5.917-8.765-12.051-17.53-14.9-28.484-.438-1.535-2.191-8.108-2.191-8.108.219-3.287-.877-4.82-1.972-8.983-1.754-6.355 1.753-12.708-.657-18.406-.439-1.096-2.192-1.753-1.535-3.068 2.63-9.202 1.972-17.528 7.011-27.607.658-1.315 0-3.068-.876-4.163l.438-.22c3.944-5.477 8.107-14.68 9.86-18.405 1.972-3.724 4.382-8.326 6.136-11.174 1.752-2.85.438-3.507.438-3.507-5.478-3.067-18.405 3.068-18.405 3.068 3.944-20.815-.22-22.348-.22-22.348-.218-1.754-2.847 1.533-2.847 1.533-9.641 8.327-16.653 20.816-16.653 20.816s-5.697 8.326-6.574 16.652c0 0-6.792 6.573-8.983 27.827l-.219 2.191c-.438 4.82-.657 10.079-.438 15.338-1.534 2.848-.877 6.574 0 9.422 0 1.972.876 3.725.657 5.697-.219 6.134-.219 9.64.438 13.804.439 3.067 1.096 4.381 1.753 7.668 1.315 3.944 3.506 7.888 3.945 12.27.219.658.438 1.314.657 2.191 2.19 5.48 6.135 13.367 6.135 13.367s7.888 15.994 15.338 22.787c.438.437-.438.657-.438 1.314 0 0 6.135 10.517 19.062 23.225 1.534 1.534 2.849 2.41 4.163 3.506 0 0 6.793 5.478 14.681 9.86 1.096.658 2.191 1.315 3.725 1.315 1.972.22 1.533 2.63 3.286 3.287l3.945 1.972c3.286.876 6.573 1.972 9.64 3.506l1.096.438c2.41 1.095 3.944 2.19 6.135 2.849 0 0 4.382 3.067 11.832 4.82 1.972.438 4.82 0 5.915 2.191-4.162 1.534-7.449-.438-11.174-1.096-2.848-.219-5.04-2.41-8.107-2.19-.657.218-.657 1.095-.438 1.533 1.753 7.23 6.354 8.764 6.354 8.764s6.354 6.355 8.107 6.793c3.506 1.096 7.67 1.096 10.956-.877 4.82-3.505 10.298-5.258 16.214-6.573"></path><path fill="#fff" d="M49.957 105.83c-2.849 3.944-4.383 9.203-9.86 10.298-1.972 1.315-3.944 3.725-5.478 5.04-1.096 1.095-1.315 3.067-2.848 3.286h-.22c-2.41-2.848-1.314-11.613-1.314-11.613-4.164-6.573-3.506-15.337-.438-22.13.658-2.63 1.752-4.602 3.505-7.23 2.41-3.506 5.04-7.67 7.67-10.737 1.533-1.315 2.848-4.163 5.258-3.725 1.752.22.219 9.203.219 9.203-.877 5.04-2.63 10.079-5.697 14.68-3.068 4.163-5.04 8.765-6.573 13.366-.439 2.629-1.535 5.477-1.096 8.545.22.438.657 1.534 1.315.22 2.41-3.944 1.972-8.765 3.944-12.928 2.848-7.45 9.421-15.996 17.529-17.967 1.534-1.096 4.382-1.315 6.135-1.315.657 0 1.534.22 1.315 1.096-.22-.219-8.984 15.557-13.366 21.911"></path><path fill="#005a9f" d="M44.041 76.47c-1.753 9.202-8.326 17.31-12.05 25.197 0 .658-.439 1.534-1.096 1.534-1.972-2.63.438-5.916 1.314-8.326.439-3.725 3.726-6.574 5.478-9.86.877-1.753 1.316-4.602 3.068-5.698-.22-.218 3.944-5.915 3.286-2.847M46.013 97.285c1.096-1.534 2.192-2.849 3.287-4.382 1.972-2.85 4.82-4.602 7.888-5.697h1.095c-.219 3.287-4.6 2.63-5.696 5.697-4.602 6.573-7.231 13.584-12.49 19.72-.438.437-1.533.218-1.533-.439 0-1.534 1.314-1.972 1.972-4.163 1.533-4.6 5.477-10.736 5.477-10.736"></path><path fill="#fff" d="M30.895 164.332c-1.534-1.096-3.944-2.63-5.04-4.382-2.41-3.506-4.601-6.135-6.792-11.832-1.972-5.04-2.192-11.175-1.534-16.433 2.41-27.17 6.135-23.444 6.135-23.444 1.972.438 3.067 4.163 3.067 4.163s2.85 3.944.877 38.344l.22 4.163c.438.658.657 1.972 1.314 1.753 0 0 .438-.876.657-5.04s.877-9.64.877-9.64c.438-5.916 1.753-11.393 5.04-16.214 0 0 8.764-11.832 10.079-7.012 0 0-.439 15.776-8.984 34.4-5.697 12.489-5.916 11.174-5.916 11.174"></path><path fill="#005a9f" d="M25.198 117.224c-.22 5.916-1.754 11.394-1.315 17.09-.22 3.944 0 8.107.22 12.051 0 .438-.877.22-1.096 0-3.506-9.203-2.63-20.158.219-29.36.657-.22 1.533-.438 1.972.219M38.782 140.01c-.876 3.726-1.972 7.232-4.82 9.86-.439.22-.877-.218-.877-.656.22-3.068 1.972-5.478 1.972-8.764 0-1.097.22-2.63.438-3.945 0 0 2.85-12.27 5.04-10.955 0 0 1.753-.877-1.753 14.46"></path><path fill="#fff" d="M40.754 154.253c1.753.219 2.192 2.848 3.506 16.214 1.315 13.366-1.533 23.883-1.533 23.883.219 3.944 0 4.82-1.753 6.573-.22.219-.22.219-.438.219-3.506-1.315-7.231-3.067-13.804-9.202-3.944-3.945-5.916-9.203-6.792-14.68-1.534-5.916-.438-12.052-2.191-17.967 0-.658 0-1.535.876-1.753 0 0 2.191-.22 3.945 2.19 0 0 7.23 7.013 9.202 26.293.22 2.63 1.315 5.478 3.068 8.765.219.437 1.095.877 1.753.437.657-1.314 0-3.286-.22-4.6-3.068-9.861-4.163-22.13 0-31.99.218 0 2.629-4.601 4.381-4.382"></path><path fill="#005a9f" d="M40.535 159.73c.438 1.096.438 3.287.22 4.164-.439 8.108 1.752 14.9.437 23.007-.438 2.19-.438 1.972-1.533.657-1.535-2.191-1.754-5.039-1.973-7.668-.876-8.546-.438-11.395 0-16.873.22-1.314 1.096-3.067 1.753-3.505h1.095zM25.417 170.03c2.191 6.573 2.191 13.804 5.697 19.72.438.657.219 1.532-.438 2.19-1.753 0-2.191-1.315-3.068-2.63-2.849-5.916-4.163-12.707-5.696-19.062-.438-1.753-.877-4.602.219-5.478 1.971-1.753 2.628 3.068 3.286 5.26"></path><path fill="#fff" d="M53.243 226.997c1.534 1.753 2.85 3.287 4.821 2.63 1.315-2.85-2.849-4.82-4.163-7.011-2.63-5.04-5.917-9.642-7.45-15.12-1.096-4.82-1.753-10.298 0-14.9.438-.874 1.314-.874 1.972-.656 1.972 1.096 2.629 2.848 3.725 5.04 2.19 2.63 3.725 4.82 4.82 7.231 1.534 2.63 4.602 5.696 5.26 8.545 0 0 3.067 5.259 4.382 11.613 0 0 2.41 7.23 2.41 14.68l-.438.219c-7.67-4.819-17.53-3.944-24.322-10.954-8.326-7.67-11.393-17.968-16.652-27.17 0-.658-.219-1.533.438-1.972 2.63-1.316 7.45 2.629 9.203 3.943 1.534 1.097 4.601 4.383 4.601 4.383 3.068 3.725 4.164 8.107 7.012 11.613 1.315 1.972 1.972 3.944 3.067 5.916z"></path><path fill="#005a9f" d="M42.727 213.85c-2.63-2.849-5.478-8.764-8.984-10.954-.657 0-1.534-.22-1.753.875l.876 2.411c3.506 6.574 6.793 9.86 9.641 14.023 3.068 4.163 5.916 7.67 9.64 10.298 0 0 1.096.439 1.096-.438.22-.876-7.23-12.708-10.516-16.214M59.817 215.165c1.753 2.85 5.478 7.45 2.63 9.202l-1.096-.657c-5.04-8.108-12.49-15.556-12.928-25.636.22-.658 0-1.972 1.096-1.752 1.096 1.095 1.096 1.314 1.753 2.41z"></path><path fill="#fff" d="M113.499 265.122c0 .658-.22 1.534-1.096 1.534-7.668-1.534-16.214.658-23.664.658-3.067 0-5.258-2.191-8.326-3.068l-1.972-.438c-6.354-1.314-10.956-9.203-15.995-12.708-3.286-3.506-5.696-6.793-9.203-10.298-.219-.439 0-1.096 0-1.535 1.753-1.314 3.725.22 5.478.22 6.574.22 11.394 4.601 16.434 7.67 0 0 7.888 5.477 11.393 9.421 3.726 3.944 5.916 4.82 5.916 4.82.438 0 1.315 0 1.534-.658-1.534-2.848-3.944-5.477-6.354-7.668-3.726-3.068-7.45-6.793-10.956-10.08l-1.533-1.972c-1.535-3.068-3.068-6.354-3.068-9.86 1.096-.876 2.41-.218 3.506 0 1.972 1.096 3.505 1.753 5.039 3.067 3.725 2.63 7.669 4.821 11.832 7.45l3.506 2.191c2.849 2.85 6.135 6.135 8.107 10.08l1.315 2.19z"></path><path fill="#005a9f" d="M95.751 250.004c1.534 1.534 4.163 3.505 4.383 5.697-1.535 1.315-2.85-1.096-4.164-1.534 0 0-7.23-3.506-15.557-11.832-1.753-1.753-3.944-3.726-3.506-6.355.438-.438 1.096-.658 1.534-.438 0 0 3.725 3.067 6.792 6.574 2.41 2.629 5.259 3.287 7.45 5.916zM78.441 258.987c-4.383-3.068-7.67-6.573-11.613-10.08-1.534-1.971-4.163-1.971-5.477-4.162 0-.877 0-1.753 1.314-1.534 6.136.438 9.641 7.669 14.461 11.612 3.287 3.287 7.45 5.04 11.394 7.012 0 .438.438.658.22 1.096-.877.438-1.973 0-3.068-.438z"></path><path fill="#fff" d="M95.313 270.819c7.012-4.821 25.197.438 25.197.438 6.574 2.63 13.804 5.04 21.035 6.793 1.096-.658 1.315-1.315 0-2.191-3.286-2.41-7.012-2.85-10.517-4.602-5.26-1.315-10.08-4.602-14.9-7.668-3.068-3.288-7.231-7.012-6.792-11.832.219-3.288 9.202 1.314 9.202 1.314l1.315.657 14.242 7.67c4.164 1.534 6.574 3.286 9.641 5.478 1.315 1.095 2.63 2.629 3.068 4.163 1.096 4.382.22 7.67-.657 11.831-.438 1.535-1.535 2.191-2.192 2.191-1.753.44-3.286 0-5.696 0-5.698-.219-10.737-.657-16.433-1.314-8.108-1.752-15.119-6.573-22.788-9.422-5.478-2.41-3.725-3.506-3.725-3.506"></path><path fill="#005a9f" d="M125.769 262.054c5.259 1.754 10.736 3.506 15.556 6.574 1.315.876 1.534 1.753 1.096 3.067l-.877.22c-5.04-3.506-10.298-5.697-15.994-7.011-1.973-.44-4.821-1.535-6.793-3.068-2.63-1.973-5.259-3.726-5.477-7.45 0-1.534 2.629.658 4.162 1.315 0 .438 1.753 3.506 8.327 6.353"></path><path fill="#fff" d="M154.252 290.1c0 1.973-.657 2.63-2.19 2.63-2.191-1.753-1.754-5.916-1.754-7.67 0-5.477-.438-9.64.22-15.336 0-.876.657-1.534 1.533-1.534 1.973 0 2.41 1.752 2.41 1.752.658 6.136-.219 20.159-.219 20.159"></path><path fill="#005a9f" d="M112.403 273.01c8.546 2.849 16.871 6.792 26.074 6.792 1.096.439 3.068 0 3.506 1.535-.438.658-1.534.658-2.191.658-9.86 0-18.843-2.85-27.608-5.917-2.848-.438-5.916-.658-8.107-2.191-.438-.438.22-1.096.658-1.534 0 0 2.41-1.315 7.668.657"></path><path fill="#fff" d="M146.584 291.634c0 2.191-1.972 1.972-4.164 2.411-1.314.22-2.41.657-3.724 1.096-2.191.876-3.506 1.095-5.259 1.534-2.191.438-3.506-1.315-5.478-1.534-.438-.22-.438-.658-.438-1.315 1.095-.876 2.63-.438 3.944-.876 4.163-1.315 8.545-1.315 12.927-2.191.658-.44 1.973-.22 2.192.875M241.896 83.7c-.22-.658.658-.877 1.315-1.096 1.753-.219 4.601.22 6.135 1.315 8.107 1.753 14.68 10.298 17.528 17.967 1.753 4.163 1.534 9.203 3.944 12.928.877 1.314 1.096 0 1.315-.22.439-3.067-.658-5.696-1.096-8.545-1.534-4.6-3.505-9.203-6.573-13.365-3.068-4.382-4.82-9.422-5.697-14.68 0 0-1.534-8.765.22-9.203 2.629-.439 3.944 2.41 5.258 3.724 2.63 3.287 5.259 7.231 7.67 10.737 1.752 2.848 2.848 4.6 3.505 7.23 3.068 6.793 3.505 15.557-.438 22.13 0 0 1.096 8.765-1.315 11.613h-.219c-1.534-.219-1.753-2.19-2.848-3.286-1.535-1.315-3.507-3.725-5.478-5.04-5.26-1.096-7.012-6.354-9.861-10.298-4.6-6.135-13.365-21.911-13.365-21.911"></path><path fill="#005a9f" d="M264.464 79.099c1.753 1.095 2.192 4.163 3.068 5.696 1.753 3.288 5.04 5.917 5.478 9.86.658 2.63 3.068 5.698 1.314 8.327-.657 0-1.095-.657-1.314-1.315-3.506-8.107-10.079-16.214-12.051-25.197-.657-3.068 3.505 2.629 3.505 2.629M264.464 108.021c.658 2.192 1.973 2.41 1.973 4.164-.22.657-1.096.876-1.535.438-5.258-6.136-7.887-13.366-12.489-19.72-1.096-2.849-5.477-2.41-5.697-5.697h1.096c3.068 1.096 5.697 2.848 7.888 5.697 1.096 1.534 1.972 3.068 3.287 4.382 0 0 4.163 6.135 5.477 10.736"></path><path fill="#fff" d="M268.19 152.938c-8.546-18.624-8.984-34.4-8.984-34.4 1.315-4.602 10.08 7.011 10.08 7.011 3.286 4.82 4.6 10.298 5.038 16.215 0 0 .658 5.696.877 9.64.22 4.164.658 5.04.658 5.04.658.219.658-1.096 1.314-1.753l.22-4.164c-1.973-34.4 1.095-38.344 1.095-38.344s1.315-3.505 3.067-4.163c0 0 3.726-3.506 6.136 23.445.437 5.478.437 11.613-1.535 16.433-2.19 5.478-4.601 8.326-6.792 11.831-1.096 1.534-3.506 3.287-5.04 4.383 0 .22-.219 1.535-6.134-11.174"></path><path fill="#005a9f" d="M279.803 117.224c.657-.657 1.315-.438 1.972 0 2.849 9.203 3.725 20.158.219 29.36-.22 0-1.096.439-1.096 0 0-3.724.439-8.106.22-12.05.437-5.916-1.096-11.394-1.315-17.31M264.464 125.55c2.192-1.315 5.04 10.955 5.04 10.955.439 1.096.439 2.848.439 3.945 0 3.286 1.752 5.477 1.972 8.764 0 .438-.438.877-.877.657-3.067-2.41-4.163-6.135-4.82-9.86-3.287-15.338-1.754-14.461-1.754-14.461" data-source="https://football-logos.cc"></path><path fill="#fff" d="M268.408 158.635c4.164 9.86 3.068 22.13 0 31.99-.219 1.315-1.095 3.286-.219 4.601.658.44 1.534 0 1.753-.438 1.972-3.287 2.849-6.135 3.067-8.764 2.192-19.28 9.203-26.293 9.203-26.293 1.972-2.41 3.944-2.19 3.944-2.19.877.219.877 1.095.877 1.752-1.973 5.917-.658 12.052-2.192 17.968-.876 5.476-2.63 10.735-6.793 14.68-6.573 6.354-10.298 7.887-13.803 9.201 0 0-.22 0-.44-.218-1.751-1.754-1.971-2.63-1.751-6.573 0 0-2.85-10.3-1.535-23.884 1.315-13.365 1.753-15.994 3.506-16.214 1.974-.22 4.383 4.382 4.383 4.382"></path><path fill="#005a9f" d="M264.464 159.73h.658c.658.44 1.535 2.192 1.753 3.506.438 5.48.876 8.108.22 16.872-.22 2.629-.438 5.478-1.973 7.67-.876 1.314-1.095 1.532-1.534-.658-1.315-8.108 1.096-14.9.439-23.007.219-1.314 0-3.286.437-4.383M279.803 170.03c.657-2.192 1.315-7.013 3.287-5.26 1.095.877.657 3.725.219 5.478-1.534 6.573-2.849 13.147-5.697 19.062-.876 1.316-1.315 2.63-3.067 2.63-.658-.438-.658-1.533-.439-2.19 3.286-5.917 3.505-13.147 5.697-19.72"></path><path fill="#fff" d="M253.071 225.025c1.096-1.972 1.753-3.943 3.068-5.916 2.848-3.506 3.943-8.108 7.01-11.613 0 0 3.288-3.286 4.602-4.382 1.753-1.315 6.355-5.26 9.203-3.944.657.219.438 1.314.438 1.972-5.478 9.202-8.326 19.501-16.652 27.17-6.793 6.792-16.652 6.135-24.32 10.954l-.44-.218c-.218-7.45 2.412-14.681 2.412-14.681 1.314-6.573 4.38-11.612 4.38-11.612.659-2.63 3.726-5.917 5.26-8.546 1.095-2.191 2.63-4.383 4.82-7.23 1.096-2.192 1.753-3.945 3.725-5.041.658-.219 1.534-.219 1.972.657 1.754 4.602 1.096 10.3 0 14.9-1.533 5.477-4.82 9.86-7.45 15.119-1.314 2.41-5.477 4.162-4.162 7.011 1.972.657 3.287-.877 4.82-2.63z"></path><path fill="#005a9f" d="M251.757 230.065c0 .877 1.095.438 1.095.438 3.944-2.629 6.793-5.915 9.64-10.298 2.85-4.163 6.136-7.45 9.641-14.023l.877-2.411c-.22-1.096-1.096-.875-1.752-.875-3.507 2.19-6.356 8.106-8.985 10.955-3.286 3.506-10.516 15.338-10.516 16.214M253.728 198.732c.44-1.095.658-1.314 1.754-2.41 1.095-.219 1.095 1.096 1.095 1.753-.438 10.08-7.669 17.528-12.927 25.636l-1.096.657c-2.63-1.752.876-6.354 2.629-9.202z"></path><path fill="#fff" d="m199.609 256.358 1.314-2.191c1.972-3.725 5.259-7.231 8.107-10.08l3.726-2.19c3.944-2.63 7.887-4.82 11.831-7.45 1.315-1.314 3.068-1.972 5.04-3.068 1.096-.218 2.629-.876 3.506 0-.22 3.506-1.535 6.793-3.068 9.86l-1.534 1.973c-3.506 3.287-7.23 7.012-10.956 10.079-2.41 2.19-4.82 4.82-6.354 7.669.219.658 1.096.658 1.534.658 0 0 2.41-.877 5.916-4.82 3.725-3.945 11.394-9.423 11.394-9.423 5.258-3.287 9.86-7.668 16.433-7.668 1.753 0 3.725-1.535 5.478-.22 0 .438.219 1.096 0 1.534-3.287 3.507-5.697 6.794-9.203 10.299-5.258 3.505-9.64 11.393-15.995 12.708l-1.972.438c-2.849.877-5.259 3.068-8.326 3.068-7.45.22-15.996-2.191-23.664-.658-.876 0-1.096-.877-1.096-1.534z"></path><path fill="#005a9f" d="M212.316 247.813c2.191-2.63 5.04-3.287 7.45-5.916 3.068-3.506 6.793-6.575 6.793-6.575.438-.437 1.315 0 1.534.44.438 2.629-1.973 4.6-3.506 6.354-8.326 8.326-15.557 11.832-15.557 11.832-1.096.657-2.63 2.848-4.163 1.533.22-2.19 2.63-4.382 4.382-5.696zM219.109 262.493c-1.095.438-2.19.657-3.067.438-.22-.658 0-.658.219-1.096 4.163-1.972 8.326-3.725 11.394-7.012 4.82-3.724 8.326-11.174 14.46-11.612 1.315 0 1.535.876 1.315 1.534-1.314 2.19-3.944 2.19-5.478 4.163-3.725 3.506-7.23 7.011-11.613 10.08z"></path><path fill="#fff" d="M205.963 274.106c-7.669 3.067-14.462 7.888-22.788 9.422-5.696.657-10.736 1.096-16.433 1.314-2.41 0-3.944.439-5.697 0-.657-.219-1.752-.658-2.191-2.19-.875-4.164-1.752-7.45-.657-11.833.438-1.534 1.753-3.286 3.068-4.163 3.067-2.191 5.477-3.944 9.64-5.478l14.242-7.67 1.315-.657s8.983-4.601 9.203-1.314c.437 4.82-3.726 8.545-6.793 11.831-4.601 3.068-9.422 6.355-14.9 7.67-3.505 1.753-7.23 2.41-10.517 4.6-1.315.877-1.096 1.535 0 2.192 7.23-1.752 14.461-4.163 21.034-6.792 0 0 18.186-5.478 25.198-.439.22.22 1.973 1.315-3.724 3.507"></path><path fill="#005a9f" d="M187.558 256.139c1.533-.658 4.163-2.849 4.163-1.315-.219 3.725-2.848 5.479-5.477 7.45-1.973 1.534-4.821 2.63-6.794 3.067-5.696 1.315-10.955 3.507-15.995 7.012l-.876-.219c-.439-1.315 0-2.192 1.096-3.068 4.601-3.287 10.079-5.04 15.556-6.573 6.573-3.286 8.327-6.354 8.327-6.354M200.484 272.353c.44.438 1.097 1.096.658 1.534-2.19 1.753-5.258 1.972-8.107 2.191-8.764 3.067-17.748 5.917-27.608 5.917-.657 0-1.752 0-2.19-.658.438-1.535 2.41-1.096 3.505-1.535 9.202 0 17.53-3.943 26.074-6.792 5.04-1.972 7.668-.657 7.668-.657"></path><path fill="#fff" d="M158.635 291.634c0-1.095 1.533-1.315 2.41-1.095 4.382.876 8.765 1.095 12.928 2.19 1.314.44 2.849 0 3.944.877 0 .658 0 1.096-.438 1.314-1.972.22-3.287 1.973-5.479 1.535-1.533-.22-3.067-.658-5.258-1.535-1.315-.437-2.41-.876-3.725-1.095-2.41-.438-4.382 0-4.382-2.19"></path><g fill="#005a9f"><path d="M97.504 80.852h12.27v38.344h-12.27zM125.111 80.852h30.456v8.326h-18.185v6.792h15.556v7.67h-15.556v15.775h-12.49V80.852zM166.742 80.852h12.27v14.46l12.928-14.46h16.433l-14.46 14.46 15.118 23.884h-15.119l-8.545-15.557-6.354 6.355v9.422h-12.271z"></path></g><path fill="#005a9f" d="M185.804 136.505c-6.354 0-12.927-.876-19.938-2.629-8.108-1.972-11.174-1.753-12.928-1.753h-1.533c-1.534 0-4.821-.22-12.928 1.753-13.585 3.286-25.417 3.286-36.372.438-12.708-3.506-25.198.22-25.417.22l-2.19.657V83.7l.437-.438c17.091-21.692 46.013-34.62 77.565-34.62 31.332 0 60.255 12.928 76.907 34.4l.44.439v51.49l-2.192-.657c-.22 0-12.49-3.724-25.417-.219-5.04 1.753-10.518 2.41-16.434 2.41m-31.77-7.887c1.973 0 5.697.219 12.708 1.972 12.928 3.068 24.322 3.287 34.62.438 10.517-2.848 20.596-1.314 24.978-.438V84.796C210.125 64.418 182.518 52.15 152.5 52.15c-30.237 0-57.844 12.27-74.059 32.646v45.795c4.383-.877 14.461-2.63 24.978.438 10.299 2.849 21.692 2.63 34.62-.438 8.545-1.973 12.05-1.973 13.804-1.973h2.191"></path><g fill="#005a9f"><path d="M228.093 169.372s-12.928-3.944-26.293-.22c-13.366 3.725-26.074 1.973-35.496-.218-9.422-2.19-12.49-1.753-13.804-1.753h-.22c-1.314 0-4.382-.438-13.803 1.753s-22.13 4.163-35.496.438c-13.365-3.725-26.293.219-26.293.219v-29.798s12.928-3.944 26.293-.22c13.366 3.725 26.293 1.754 35.496-.437 9.422-2.192 12.49-1.754 13.804-1.754h.219c1.315 0 4.382-.438 13.804 1.754 9.422 2.19 22.13 4.162 35.496.438 13.365-3.725 26.293.219 26.293.219z"></path><path d="M185.804 173.096c-6.354 0-12.927-.877-19.938-2.629-8.108-1.972-11.174-1.752-12.928-1.752h-1.533c-1.534 0-4.821-.22-12.928 1.752-13.585 3.287-25.417 3.287-36.372.438-12.49-3.504-24.979.22-24.979.22l-2.19.657v-33.304l1.314-.439c.438-.219 13.585-3.944 27.17-.219 10.298 2.849 21.691 2.63 34.619-.438 8.545-1.972 12.05-1.972 13.804-1.972h1.095c1.754 0 5.26-.22 13.804 1.972 12.928 3.068 24.322 3.287 34.62.438 13.803-3.725 26.73 0 27.169.22l1.315.438v33.304l-2.191-.657c-.22 0-12.49-3.725-25.417-.22-5.04 1.534-10.518 2.191-16.434 2.191m-31.77-7.887c1.973 0 5.697.22 12.708 1.972 12.928 3.067 24.322 3.287 34.62.438 10.517-2.848 20.596-1.315 24.978-.438v-26.074c-3.506-.877-13.584-2.629-24.102.22-10.955 3.068-22.787 2.848-36.372-.439-8.108-1.971-11.174-1.752-12.928-1.752h-1.533c-1.534 0-4.821-.22-12.928 1.752-13.585 3.287-25.417 3.287-36.372.439-10.517-2.849-20.597-.877-24.102-.22v26.074c4.382-.877 14.46-2.63 24.978.438 10.299 2.849 21.692 2.63 34.62-.438 8.545-1.972 12.05-1.972 13.804-1.972h2.629"></path></g><path fill="#005a9f" d="m152.5 257.892-77.565-38.125v-44.699l1.315-.438c.438-.219 13.585-3.944 27.17-.219 10.298 2.85 21.691 2.63 34.619-.437C146.584 172 150.089 172 151.843 172h1.095c1.754 0 5.26-.22 13.804 1.973 12.928 3.066 24.322 3.287 34.62.437 13.803-3.725 26.73 0 27.169.22l1.315.437v44.918zm-74.059-40.098 74.059 36.373 74.059-36.373v-40.096c-3.506-.877-13.585-2.63-24.102.219-10.956 3.067-22.787 2.847-36.373-.44-8.326-1.972-11.392-1.972-12.927-1.752h-1.534c-1.534 0-4.82-.219-12.927 1.753-13.585 3.286-25.416 3.286-36.373.439-10.517-2.85-20.596-.877-24.102-.22v40.097z"></path><path fill="#005a9f" d="M142.42 226.12c-14.46 0-18.623-8.545-19.061-9.64v-.219s3.725-9.86 19.062-9.86v-.438c0-14.461 8.545-18.624 9.64-19.062h.22s9.86 3.725 9.86 19.062v.438c14.46 0 18.624 8.546 19.062 9.642v.218s-3.725 9.86-19.063 9.86v.44c0 14.46-8.545 18.623-9.64 19.061h-.22s-9.86-3.724-9.86-19.062z"></path><path fill="#005a9f" d="m152.28 265.56-.656-.438-83.481-40.974V80.194l.438-.438c18.843-24.76 48.642-38.563 83.7-38.563s64.856 13.585 83.918 38.344l.438.438v144.173zm-80.85-43.602 80.85 39.659 80.852-39.66V81.072c-18.405-23.444-47.108-36.592-80.851-36.592-33.743.22-62.446 13.147-80.851 36.81v.44z"></path><path fill="#005a9f" d="M69.896 83.48 47.547 60.257l1.096-1.096c25.855-29.36 63.542-46.232 103.639-46.232 40.535 0 78.44 16.871 104.295 46.232l1.096 1.314-23.007 23.007-1.095-1.534c-18.406-23.883-47.11-37.03-81.071-37.03-33.962 0-62.884 13.147-81.29 37.03zM52.367 60.256l17.31 17.967c19.062-23.883 48.423-36.81 82.604-36.81 34.4 0 63.542 13.146 82.604 36.81l17.966-17.967c-25.197-28.046-61.788-44.04-100.57-44.04-38.563 0-74.936 15.994-99.914 44.04"></path><g fill="#005a9f"><path d="m88.958 58.502-4.82 3.287-19.5-12.708 4.6-3.287 10.737 7.67c1.315 1.095 4.164 3.286 4.164 3.286s-1.096-3.287-1.535-5.04L79.1 38.564l4.382-3.068zM108.897 48.204l-4.163-4.163-7.45 3.506.438 5.696-5.039 2.411-1.095-23.226 5.696-2.629 16.871 15.776zM98.38 37.468c-.876-.876-2.629-2.848-2.629-3.067 0 .219.438 2.848.657 3.944l.658 6.135 5.478-2.63zM128.398 42.288c-.438-.657-4.383-4.381-6.135-5.696-1.753-1.315-2.191-1.534-3.725-1.096l2.19 8.764-5.038 1.315-5.04-20.815 7.45-1.753c5.696-1.315 10.516-1.096 11.613 3.286.876 3.287-1.316 6.135-4.821 7.23 1.095.22 2.41.878 3.286 1.754 1.315 1.096 6.136 5.04 6.793 5.917zm-9.86-16.433-2.191.658 1.534 6.135 2.41-.657c3.286-.877 3.944-2.41 3.506-4.383-.438-2.19-2.41-2.63-5.26-1.753M150.09 39.878l-7.012-9.86c-1.095-1.533-2.848-4.382-2.848-4.82 0 .219.657 3.506.657 5.478.22 3.287.657 9.64.657 9.64l-5.04.22-1.095-21.473 5.478-.22 7.231 10.08c1.096 1.534 2.41 4.163 2.63 4.382 0-.219-.658-3.944-.658-6.135-.22-3.067-.438-8.984-.438-8.984l5.04-.219 1.096 21.473zM175.069 42.07l-1.096-5.478-8.326-1.315-2.85 5.04-5.258-.658 11.832-20.157 6.136.876 5.478 22.568zm-2.85-14.68c-.219-1.097-.437-3.945-.437-3.945 0 .22-1.096 2.63-1.754 3.725l-2.848 5.478 6.134.877zM203.552 51.272l3.725-12.49c.438-1.314 1.315-3.944 1.315-4.163-.22.22-1.752 2.41-2.63 3.506l-8.983 10.736-4.382-1.752.876-13.366c.22-1.753.658-4.382.658-4.82 0 .219-1.315 3.286-1.972 4.382L186.68 44.7l-5.04-1.972 10.079-19.063 6.573 2.63-1.096 12.927c-.219 1.315-.658 3.945-.658 4.163.22-.22 1.534-2.41 2.411-3.506l8.107-10.079 6.573 2.63-5.696 20.814zM218.233 60.255c-7.231-5.04-6.355-11.394-3.287-15.557 4.163-5.916 10.298-6.573 15.994-2.63 7.012 5.04 6.355 11.395 3.287 15.558-3.066 4.382-8.545 8.107-15.994 2.63m10.955-15.776c-4.382-3.068-7.669 1.096-9.203 3.288-1.752 2.41-4.82 6.792 0 10.297 4.602 3.287 7.45-.876 9.422-3.724 1.754-2.63 4.383-6.573-.219-9.86"></path></g><path fill="#005a9f" d="m98.161 28.265 3.067-1.533 1.753 2.848-3.067 1.534zM85.891 34.181l3.067-1.753 1.972 3.068-2.848 1.972z" data-source="https://football-logos.cc"></path><!-- source: https://football-logos.cc --></svg>