<svg xmlns="http://www.w3.org/2000/svg" viewBox="158.28 24.95 756.47 756.46"><!-- Source: https://football-logos.cc --><defs data-source="https://football-logos.cc"><clipPath id="a" clipPathUnits="userSpaceOnUse"><path d="M-402.382 18.714h800v-600h-800Z"></path></clipPath><clipPath id="b" clipPathUnits="userSpaceOnUse"><path d="M-596.027 496.03h800v-600h-800Z"></path></clipPath><clipPath id="c" clipPathUnits="userSpaceOnUse"><path d="M-193.288 399.012h800v-600h-800Z"></path></clipPath><clipPath id="d" clipPathUnits="userSpaceOnUse"><path d="M-172.894 277.731h800v-600h-800Z"></path></clipPath><clipPath id="e" clipPathUnits="userSpaceOnUse"><path d="M-159.272 233.082h800v-600h-800Z"></path></clipPath><clipPath id="f" clipPathUnits="userSpaceOnUse"><path d="M-217.553 206.167h800v-600h-800Z"></path></clipPath><clipPath id="g" clipPathUnits="userSpaceOnUse"><path d="M-237.045 99.417h800v-600h-800Z"></path></clipPath><clipPath id="h" clipPathUnits="userSpaceOnUse"><path d="M-265.564 79.567h800v-600h-800Z"></path></clipPath><clipPath id="i" clipPathUnits="userSpaceOnUse"><path d="M-345.263 90.814h800v-600h-800Z"></path></clipPath><clipPath id="j" clipPathUnits="userSpaceOnUse"><path d="M-397.03 39.308h800v-600h-800Z"></path></clipPath><clipPath id="k" clipPathUnits="userSpaceOnUse"><path d="M-494.427 93.96h800v-600h-800Z"></path></clipPath><clipPath id="l" clipPathUnits="userSpaceOnUse"><path d="M-526.764 127.836h800v-600h-800Z"></path></clipPath><clipPath id="m" clipPathUnits="userSpaceOnUse"><path d="M-579.657 176.215h800v-600h-800Z"></path></clipPath><clipPath id="n" clipPathUnits="userSpaceOnUse"><path d="M-621.528 174.428h800v-600h-800Z"></path></clipPath><clipPath id="o" clipPathUnits="userSpaceOnUse"><path d="M-602.476 243.756h800v-600h-800Z"></path></clipPath><clipPath id="p" clipPathUnits="userSpaceOnUse"><path d="M-610.273 284.434h800v-600h-800Z"></path></clipPath><clipPath id="q" clipPathUnits="userSpaceOnUse"><path d="M-622.503 330.602h800v-600h-800Z"></path></clipPath><clipPath id="r" clipPathUnits="userSpaceOnUse"><path d="M-631.847 408.675h800v-600h-800Z"></path></clipPath><clipPath id="s" clipPathUnits="userSpaceOnUse"><path d="M-339.773 505.435h800v-600h-800Z"></path></clipPath><clipPath id="t" clipPathUnits="userSpaceOnUse"><path d="M-369.16 549.218h800v-600h-800Z"></path></clipPath><clipPath id="u" clipPathUnits="userSpaceOnUse"><path d="M-423.887 513.446h800v-600h-800Z"></path></clipPath><clipPath id="v" clipPathUnits="userSpaceOnUse"><path d="M-479.46 521.472h800v-600h-800Z"></path></clipPath><clipPath id="w" clipPathUnits="userSpaceOnUse"><path d="M-233.85 459.133h800v-600h-800Z"></path></clipPath><clipPath id="x" clipPathUnits="userSpaceOnUse"><path d="M-568.911 459.133h800v-600h-800Z"></path></clipPath><clipPath id="y" clipPathUnits="userSpaceOnUse"><path d="M-402.363 104.82h800v-600h-800Z"></path></clipPath><clipPath id="z" clipPathUnits="userSpaceOnUse"><path d="M-433.146 444.056h800v-600h-800Z"></path></clipPath><clipPath id="A" clipPathUnits="userSpaceOnUse"><path d="M-400.422 486.174h800v-600h-800Z"></path></clipPath><clipPath id="B" clipPathUnits="userSpaceOnUse"><path d="M-357.717 453.688h800v-600h-800Z"></path></clipPath><clipPath id="C" clipPathUnits="userSpaceOnUse"><path d="M-366.243 479.715h800v-600h-800Z"></path></clipPath><clipPath id="D" clipPathUnits="userSpaceOnUse"><path d="M-438.111 484.654h800v-600h-800Z"></path></clipPath><clipPath id="E" clipPathUnits="userSpaceOnUse"><path d="M-452.241 454.009h800v-600h-800Z"></path></clipPath><clipPath id="F" clipPathUnits="userSpaceOnUse"><path d="M-535.13 435.165h800v-600h-800Z"></path></clipPath><clipPath id="G" clipPathUnits="userSpaceOnUse"><path d="M-385.619 238.735h800v-600h-800Z"></path></clipPath><clipPath id="H" clipPathUnits="userSpaceOnUse"><path d="M-416.634 160.978h800v-600h-800Z"></path></clipPath><clipPath id="I" clipPathUnits="userSpaceOnUse"><path d="M-404.963 165.803h800v-600h-800Z"></path></clipPath><clipPath id="J" clipPathUnits="userSpaceOnUse"><path d="M-392.964 159.947h800v-600h-800Z"></path></clipPath><clipPath id="K" clipPathUnits="userSpaceOnUse"><path d="M-395.727 175.566h800v-600h-800Z"></path></clipPath><clipPath id="L" clipPathUnits="userSpaceOnUse"><path d="M-396.561 365.031h800v-600h-800Z"></path></clipPath><clipPath id="M" clipPathUnits="userSpaceOnUse"><path d="M-409.566 366.568h800v-600h-800Z"></path></clipPath><clipPath id="N" clipPathUnits="userSpaceOnUse"><path d="M-352.38 282.455h800v-600h-800Z"></path></clipPath><clipPath id="O" clipPathUnits="userSpaceOnUse"><path d="M-436.676 348.516h800v-600h-800Z"></path></clipPath><clipPath id="P" clipPathUnits="userSpaceOnUse"><path d="M-419.55 326.44h800v-600h-800Z"></path></clipPath><clipPath id="Q" clipPathUnits="userSpaceOnUse"><path d="M-401.047 298.193h800v-600h-800Z"></path></clipPath><clipPath id="R" clipPathUnits="userSpaceOnUse"><path d="M-430.32 333.45h800v-600h-800Z"></path></clipPath><clipPath id="S" clipPathUnits="userSpaceOnUse"><path d="M-428.07 299.6h800v-600h-800Z"></path></clipPath><clipPath id="T" clipPathUnits="userSpaceOnUse"><path d="M-442.723 261.284h800v-600h-800Z"></path></clipPath><clipPath id="U" clipPathUnits="userSpaceOnUse"><path d="M-431.209 275.613h800v-600h-800Z"></path></clipPath><clipPath id="V" clipPathUnits="userSpaceOnUse"><path d="M-408.66 266.533h800v-600h-800Z"></path></clipPath><clipPath id="W" clipPathUnits="userSpaceOnUse"><path d="M-394.214 295.119h800v-600h-800Z"></path></clipPath><clipPath id="X" clipPathUnits="userSpaceOnUse"><path d="M-383.977 262.326h800v-600h-800Z"></path></clipPath><clipPath id="Y" clipPathUnits="userSpaceOnUse"><path d="M-380.754 288.538h800v-600h-800Z"></path></clipPath><clipPath id="Z" clipPathUnits="userSpaceOnUse"><path d="M-379.638 338.87h800v-600h-800Z"></path></clipPath><clipPath id="aa" clipPathUnits="userSpaceOnUse"><path d="M-376.518 340.174h800v-600h-800Z"></path></clipPath><clipPath id="ab" clipPathUnits="userSpaceOnUse"><path d="M-356.122 324.748h800v-600h-800Z"></path></clipPath><clipPath id="ac" clipPathUnits="userSpaceOnUse"><path d="M-352.66 289.45h800v-600h-800Z"></path></clipPath><clipPath id="ad" clipPathUnits="userSpaceOnUse"><path d="M-454.29 310.24h800v-600h-800Z"></path></clipPath><clipPath id="ae" clipPathUnits="userSpaceOnUse"><path d="M-452.712 286.562h800v-600h-800Z"></path></clipPath><clipPath id="af" clipPathUnits="userSpaceOnUse"><path d="M-377.726 390.352h800v-600h-800Z"></path></clipPath><clipPath id="ag" clipPathUnits="userSpaceOnUse"><path d="M-407.906 402.34h800v-600h-800Z"></path></clipPath><clipPath id="ah" clipPathUnits="userSpaceOnUse"><path d="M-396.222 402.262h800v-600h-800Z"></path></clipPath><clipPath id="ai" clipPathUnits="userSpaceOnUse"><path d="M-432.543 378.98h800v-600h-800Z"></path></clipPath><clipPath id="aj" clipPathUnits="userSpaceOnUse"><path d="M-442.571 355.74h800v-600h-800Z"></path></clipPath><clipPath id="ak" clipPathUnits="userSpaceOnUse"><path d="M-418.722 202.312h800v-600h-800Z"></path></clipPath><clipPath id="al" clipPathUnits="userSpaceOnUse"><path d="M-390.768 201.132h800v-600h-800Z"></path></clipPath><clipPath id="am" clipPathUnits="userSpaceOnUse"><path d="M-374.91 181.418h800v-600h-800Z"></path></clipPath><clipPath id="an" clipPathUnits="userSpaceOnUse"><path d="M-435.146 181.418h800v-600h-800Z"></path></clipPath><clipPath id="ao" clipPathUnits="userSpaceOnUse"><path d="M-383.92 176.106h800v-600h-800Z"></path></clipPath></defs><path d="M0 0c-156.674-.004-283.665-127-283.669-283.673C-283.665-440.336-156.675-567.345 0-567.347c156.665.002 283.674 127.011 283.681 283.674C283.678-127 156.665-.004 0 0" clip-path="url(#a)" style="fill:#d1ad54;fill-opacity:1;fill-rule:nonzero;stroke:none" transform="matrix(1.33333 0 0 -1.33333 536.51 24.953)"></path><path d="M0 0c-49.576-49.568-118.009-80.212-193.646-80.214-75.639.002-144.071 30.646-193.642 80.214-49.564 49.574-80.204 118.008-80.205 193.642.001 75.639 30.641 144.071 80.205 193.645 49.571 49.564 118.003 80.206 193.642 80.208 75.637-.002 144.07-30.644 193.646-80.208 49.568-49.574 80.212-118.006 80.216-193.645C80.212 118.008 49.568 49.574 0 0" clip-path="url(#b)" style="fill:#fff;fill-opacity:1;fill-rule:nonzero;stroke:none" transform="matrix(1.33333 0 0 -1.33333 794.703 661.372)"></path><path d="m0 0-20.24-1.181 14.817 13.784Zm8.688.44L.86 18.606l11.863 11.162-4.012 9.293-40.696-40.207 3.622-8.394.836.028L28.8-7.583 25 1.269Z" clip-path="url(#c)" style="fill:#d1ad54;fill-opacity:1;fill-rule:nonzero;stroke:none" transform="matrix(1.33333 0 0 -1.33333 257.717 532.016)"></path><path d="m0 0-1.016-13.684-18.493 8.311zm26.843-68.039-18.24-3.052-7.658 5.873L22.712-43.41l-1.677 10.033.691 9.241-14.842 6.824L8.358 2.411l15.668 4.397.747 10.095L-29.89.105l-.675-9.13.755-.361 49.504-23.722-26.058-26.801-25.358 18.936 2.051-12.153L-2.39-72.938l-23.324-3.9 1.516-9.082 1.211.2 51.345 8.577z" clip-path="url(#d)" style="fill:#d1ad54;fill-opacity:1;fill-rule:nonzero;stroke:none" transform="matrix(1.33333 0 0 -1.33333 230.525 370.308)"></path><path d="m0 0 3.186 9.656c2.723 7.973 6.982 10.827 13.198 10.903 2.651.002 5.674-.583 9.008-1.686C37.082 14.926 39.18 8.715 39.256 3.735c.001-2.37-.553-4.467-.995-5.806l-3.154-9.514zm39.962-22.886 5.852 17.72c1.228 3.724 1.841 7.173 1.841 10.36.036 11.057-7.512 18.577-20.249 22.711q-5.715 1.886-10.602 1.885c-10.467.048-17.824-6.662-21.58-18.264l-5.852-17.729 1.166-.385z" clip-path="url(#e)" style="fill:#d1ad54;fill-opacity:1;fill-rule:nonzero;stroke:none" transform="matrix(1.33333 0 0 -1.33333 212.363 310.776)"></path><path d="m0 0 19.987 32.035-6.918 4.305-15.107-24.205-12.831 8.003L-.892 42.554l-6.922 4.292-13.972-22.398-11.639 7.259 15.006 24.031-6.907 4.322-19.885-31.86 1.042-.651z" clip-path="url(#f)" style="fill:#d1ad54;fill-opacity:1;fill-rule:nonzero;stroke:none" transform="matrix(1.33333 0 0 -1.33333 290.07 274.89)"></path><path d="m0 0 16.2-40.073-38.554 19.467-8.342-7.683.83-.901L5.415-67.469l6.517 6.01-25.196 27.321 35.44-17.876 5.495 5.059-14.91 36.74 25.163-27.294 6.518 6.009L8.33 7.68Z" clip-path="url(#g)" style="fill:#d1ad54;fill-opacity:1;fill-rule:nonzero;stroke:none" transform="matrix(1.33333 0 0 -1.33333 316.06 132.556)"></path><path d="m0 0 .627-1.057 26.588-44.754 7.925 4.712L7.925 4.698Z" clip-path="url(#h)" style="fill:#d1ad54;fill-opacity:1;fill-rule:nonzero;stroke:none" transform="matrix(1.33333 0 0 -1.33333 354.085 106.09)"></path><path d="M0 0c0 1.745-.329 3.563-1.037 5.428-2.715 7.313-8.762 9.372-14.776 9.297-2.296 0-4.637-.257-6.924-.58-3.986-.561-7.826-1.293-10.845-1.289-1.662-.002-3.052.223-4.067.717-1.016.504-1.716 1.201-2.212 2.474-.387 1.02-.55 1.931-.55 2.757.007 1.817.769 3.3 2.106 4.632 1.331 1.32 3.242 2.405 5.302 3.189 1.938.734 3.754 1.106 5.395 1.106 3.574-.04 6.378-1.623 8.54-5.771l.5-.981 1.03.393 7.179 2.739-.499 1.171c-3.123 7.478-9.009 10.94-15.598 10.892-2.958 0-6.057-.655-9.183-1.839-7.285-2.765-13.7-8.533-13.736-16.423 0-1.799.345-3.68 1.08-5.611 2.418-6.515 7.915-8.372 13.453-8.299 2.588.002 5.267.343 7.884.726 3.613.542 7.131 1.159 10.036 1.156 1.869.003 3.459-.257 4.66-.854 1.199-.609 2.074-1.492 2.687-3.075.402-1.057.572-2.01.572-2.875-.005-2.057-.945-3.736-2.539-5.229-1.587-1.478-3.814-2.673-6.084-3.531-2.21-.837-4.484-1.304-6.602-1.302-4.44.051-8.086 1.861-10.003 6.773l-.436 1.144-8.282-3.132.437-1.15c3.116-8.342 9.797-12.075 17.102-12.075h.15c3.365 0 6.876.73 10.332 2.042C-7.527-14.547-.064-8.498 0 0" clip-path="url(#i)" style="fill:#d1ad54;fill-opacity:1;fill-rule:nonzero;stroke:none" transform="matrix(1.33333 0 0 -1.33333 460.35 121.086)"></path><path d="m0 0-12.226-1.494-21.001-26.378-2.865 23.467-9.159-1.125.148-1.217 6.321-51.671 9.148 1.125-2.236 18.345 6.204 7.394 20.82-22.71 11.523 1.41-26.722 28.38z" clip-path="url(#j)" style="fill:#d1ad54;fill-opacity:1;fill-rule:nonzero;stroke:none" transform="matrix(1.33333 0 0 -1.33333 529.374 52.41)"></path><path d="M0 0c0-.833-.168-1.771-.568-2.833-1.339-3.46-3.754-5.137-6.913-5.17-1.115 0-2.332.225-3.624.714L-25.83-1.761l5.317 14.165 13.318-5.008C-5.136 6.629-3.276 5.611-2 4.377-.722 3.13-.01 1.76 0 0m-17.648 20.025 4.818 12.83 11.52-4.323c2.132-.801 4.021-1.697 5.279-2.772 1.258-1.097 1.915-2.226 1.933-3.922 0-.846-.186-1.857-.636-3.057-1.223-3.04-2.728-4.26-5.718-4.327-1.496-.002-3.387.389-5.676 1.25zM-.185 36.799l-18.404 6.919-.432-1.15-18.292-48.725 24.139-9.06c2.324-.874 4.568-1.28 6.679-1.28h.016c6.969 0 12.317 4.453 14.472 10.228.687 1.835 1.042 3.668 1.042 5.45.014 3.435-1.355 6.644-3.989 9.113 4.219.988 7.633 3.935 9.293 8.441.627 1.675.914 3.327.914 4.908 0 3.213-1.182 6.096-2.962 8.326-2.654 3.261-8.263 5.222-12.476 6.83" clip-path="url(#k)" style="fill:#d1ad54;fill-opacity:1;fill-rule:nonzero;stroke:none" transform="matrix(1.33333 0 0 -1.33333 659.236 125.28)"></path><path d="M0 0v-.002zm-5.865 13.276c-.008 4.504 1.859 9.272 4.701 13.247 3.893 5.467 9.741 9.621 15.842 9.599 2.882-.004 5.869-.889 8.917-3.053 4.76-3.425 6.552-7.714 6.573-12.275.006-4.502-1.863-9.272-4.707-13.258-3.889-5.465-9.732-9.617-15.829-9.597-2.881.006-5.873.892-8.92 3.059-4.766 3.425-6.558 7.717-6.577 12.278M32.966 2.184c3.791 5.317 6.041 11.513 6.045 17.671.017 7.314-3.248 14.566-10.688 19.854l-.712-1 .712 1c-4.786 3.418-9.775 4.951-14.571 4.949-8.921-.008-17.027-5.227-22.414-12.784-3.795-5.314-6.048-11.502-6.05-17.659C-14.73 6.904-11.458-.347-4.021-5.641c4.785-3.416 9.772-4.952 14.564-4.952h.015c8.92.008 17.024 5.227 22.408 12.777" clip-path="url(#l)" style="fill:#d1ad54;fill-opacity:1;fill-rule:nonzero;stroke:none" transform="matrix(1.33333 0 0 -1.33333 702.352 170.449)"></path><path d="m0 0-17.533 20.389 34.205 29.419-6.009 6.993L9.731 56l-39.447-33.942L-6.173-5.329Z" clip-path="url(#m)" style="fill:#d1ad54;fill-opacity:1;fill-rule:nonzero;stroke:none" transform="matrix(1.33333 0 0 -1.33333 772.876 234.954)"></path><path d="m0 0 4.704-9.01c1.667-3.186 2.405-5.975 2.405-8.426.003-5.644-3.911-10.052-11.27-13.922-4.485-2.341-8.152-3.204-11.135-3.204-7.652-.011-11.338 5.722-12.843 8.571l-4.633 8.878zm-35.62-29.259c4.987-9.645 12.015-14.453 20.399-14.453h.082c4.971.004 10.336 1.617 16.073 4.609 9.69 5.023 14.65 12.058 14.625 20.383-.002 4.434-1.368 9.156-3.956 14.12L2.966 11.941l-1.088-.568-46.145-24.091Z" clip-path="url(#n)" style="fill:#d1ad54;fill-opacity:1;fill-rule:nonzero;stroke:none" transform="matrix(1.33333 0 0 -1.33333 828.704 232.57)"></path><path d="m0 0 17.998 4.25 8.032-5.355L5.755-24.316l2.67-11.288L33.68-5.923l26.542-17.204-2.83 11.992L28.844 6.813l23.011 5.453-2.116 8.967-1.195-.282L-2.112 8.968Z" clip-path="url(#o)" style="fill:#d1ad54;fill-opacity:1;fill-rule:nonzero;stroke:none" transform="matrix(1.33333 0 0 -1.33333 803.3 325.008)"></path><path d="m0 0 .23-36.126 8.148.056-.174 26.91 45.127.275-.056 9.217-1.228-.009Z" clip-path="url(#p)" style="fill:#d1ad54;fill-opacity:1;fill-rule:nonzero;stroke:none" transform="matrix(1.33333 0 0 -1.33333 813.698 379.245)"></path><path d="M0 0c-10.042.062-16.329-6.753-18.748-17.62-.546-2.345-.818-4.582-.818-6.695-.075-9.443 5.74-16.326 16.302-18.666h-.002l32.82-7.592 2.086 8.982-32.828 7.579c-6.899 1.675-10.021 5.235-10.085 10.776 0 1.163.15 2.424.464 3.777C-9.146-12.594-5.435-9.341.398-9.277c1.236 0 2.575-.16 4.01-.494l32.817-7.578 2.073 8.971L6.492-.797Q3.03 0 0 0" clip-path="url(#q)" style="fill:#d1ad54;fill-opacity:1;fill-rule:nonzero;stroke:none" transform="matrix(1.33333 0 0 -1.33333 830.004 440.803)"></path><path d="m0 0-5.685-10.906c-.981-1.893-2.016-3.563-3.143-4.686-1.14-1.127-2.265-1.71-3.707-1.717-.986 0-2.171.289-3.622 1.048-2.572 1.391-3.621 2.883-3.66 5.262-.004 1.631.597 3.767 1.977 6.417l5.685 10.906zm-19.382 10.087-6.562-12.621c-1.918-3.675-4.497-6.331-7.515-6.286-1.011.002-2.14.268-3.437.944-2.956 1.564-4.34 3.838-4.361 6.553 0 1.369.376 2.878 1.198 4.462l7.257 13.925zm-16.389 18.919-11.901-22.87c-1.513-2.888-2.201-5.741-2.199-8.414-.004-6.085 3.567-11.104 8.523-13.683 2.252-1.163 4.577-1.779 6.851-1.779 2.868-.008 5.627.994 7.97 2.96.459-4.315 2.995-8.062 7.256-10.259 2.104-1.096 4.25-1.584 6.292-1.584h.012c2.611 0 5.041.785 7.075 2.036C-2.335-22.339.28-17.02 2.407-13.033L11.479 4.41l-1.085.568Z" clip-path="url(#r)" style="fill:#d1ad54;fill-opacity:1;fill-rule:nonzero;stroke:none" transform="matrix(1.33333 0 0 -1.33333 842.462 544.9)"></path><path d="M0 0c-2.125-4.026-5.005-5.253-8.668-5.305-2.029-.002-4.265.445-6.546 1.151l-1.177.363-2.136-6.978 12.504-3.856-10.649-34.547 8.118-2.512.363 1.175L7.044-1.107.469.911z" clip-path="url(#s)" style="fill:#d1ad54;fill-opacity:1;fill-rule:nonzero;stroke:none" transform="matrix(1.33333 0 0 -1.33333 453.031 673.914)"></path><path d="M0 0c.458 4.74 4.138 7.573 9.059 7.623q.546 0 1.113-.054c4.828-.461 8.417-4.083 8.41-8.442q0-.359-.033-.733c-.466-4.636-3.903-7.749-8.799-7.789q-.51 0-1.038.049C3.286-8.787-.004-5.705-.045-.944q0 .455.045.944m10.835 14.097v-.002ZM3.827 22.01q-.001.414.04.859c.404 3.959 3.212 5.798 7.133 5.875q.5 0 1.019-.05c4.197-.47 6.615-2.552 6.668-6.352a8 8 0 0 0-.037-.799c-.449-4.178-3.051-6.189-6.831-6.264q-.428 0-.874.039c-4.308.484-7.071 2.514-7.118 6.692m8.475 14.477v-.002c-.637.061-1.269.087-1.898.087-7.458.063-14.602-4.296-15.338-12.684a12 12 0 0 1-.051-1.117 12.63 12.63 0 0 1 4.584-9.685C-5.243 10.979-8.33 6.604-8.799 1.09a21 21 0 0 1-.088-1.907c-.048-9.861 7.476-15.529 16.888-16.288q1.08-.098 2.142-.098h.167c8.772 0 16.25 5.422 17.069 15.001q.085.928.085 1.824c.046 4.93-2.112 9.051-6.287 11.596 3.478 2.054 5.932 5.633 6.314 9.723q.062.696.063 1.395c.088 6.537-4.515 13.273-15.252 14.151" clip-path="url(#t)" style="fill:#d1ad54;fill-opacity:1;fill-rule:nonzero;stroke:none" transform="matrix(1.33333 0 0 -1.33333 492.212 732.29)"></path><path d="M0 0v.002zm2.877-19.793a12 12 0 0 0-1.398-.081c-3.87.096-6.503 1.71-7.083 6.042a7 7 0 0 0-.055.906c.014 3.654 2.76 5.911 6.846 6.455q.667.08 1.293.079c3.743-.087 6.117-1.787 6.658-5.736.038-.359.058-.711.058-1.047-.048-3.802-2.42-6.091-6.319-6.618m1.29-24.686c-4.924.07-8.239 2.617-8.863 7.452a9 9 0 0 0-.063 1.061c.015 4.501 3.422 7.81 8.47 8.43q.612.073 1.214.072c4.566-.016 8.359-3.001 8.851-7.336q.068-.575.067-1.121c-.028-4.387-3.08-7.85-8.085-8.465a14 14 0 0 0-1.591-.093m9.572 22.787c2.638 2.404 4.246 5.817 4.252 9.406q.001.695-.082 1.394C17.264-4.611 12.388 1.474 2.885 1.403q-1.442 0-3.026-.182C-7.732.38-14.527-4.765-14.532-12.89q-.001-.866.104-1.768c.484-4.145 3.049-7.748 6.66-9.647-3.784-2.676-5.9-6.791-5.881-11.491 0-.647.041-1.308.118-1.975 1.058-9.676 8.268-14.543 16.818-14.545l.241.002q1.535 0 3.123.186c9.005.994 16.069 7.123 16.043 16.327q0 1.096-.134 2.24c-.604 5.726-3.665 10.026-8.821 11.869" clip-path="url(#u)" style="fill:#d1ad54;fill-opacity:1;fill-rule:nonzero;stroke:none" transform="matrix(1.33333 0 0 -1.33333 565.182 684.595)"></path><path d="M0 0c-.029-3.938-2.076-7.349-6.245-8.684a8.3 8.3 0 0 0-2.486-.387c-3.873-.017-7.452 2.853-8.684 6.767-.511 1.625-.797 3.269-.797 4.794.066 3.722 1.48 6.613 5.832 8.049 1.046.33 2.033.48 2.959.48 4.176.002 7.437-3.049 8.874-7.553A11.5 11.5 0 0 0 0 0m-8.189 19.102c-2.103 0-4.204-.397-6.268-1.05-7.825-2.444-12.631-8.789-12.606-16.283 0-1.92.307-3.911.942-5.922 2.453-7.913 8.219-13.095 15.802-13.071 1.916 0 3.93.323 6.018.986a14.44 14.44 0 0 1 8.584 7.283c.602-2.724.901-5.12.899-7.175-.081-5.55-1.913-8.364-5.996-9.722a10.2 10.2 0 0 0-3.044-.489c-2.948.031-5.347 1.372-6.592 4.335l-.432 1.045-1.077-.343-7.039-2.241.517-1.237c2.589-6.324 7.691-9.549 13.568-9.549h.118c2.028 0 4.151.357 6.317 1.037 8.18 2.508 12.177 8.846 12.094 17.465 0 4.447-.967 9.545-2.775 15.279C6.371 13.835-.642 19.139-8.189 19.102" clip-path="url(#v)" style="fill:#d1ad54;fill-opacity:1;fill-rule:nonzero;stroke:none" transform="matrix(1.33333 0 0 -1.33333 639.28 695.296)"></path><path d="M0 0c-6.432 0-11.643-5.212-11.643-11.642 0-6.433 5.211-11.642 11.643-11.644a11.65 11.65 0 0 1 11.642 11.644A11.653 11.653 0 0 1 0 0" clip-path="url(#w)" style="fill:#d1ad54;fill-opacity:1;fill-rule:nonzero;stroke:none" transform="matrix(1.33333 0 0 -1.33333 311.8 612.177)"></path><path d="M0 0c-6.422 0-11.631-5.212-11.631-11.642 0-6.433 5.209-11.642 11.631-11.644 6.432.002 11.641 5.211 11.641 11.644C11.641-5.212 6.432 0 0 0" clip-path="url(#x)" style="fill:#d1ad54;fill-opacity:1;fill-rule:nonzero;stroke:none" transform="matrix(1.33333 0 0 -1.33333 758.548 612.177)"></path><path d="M0 0c-109.122-.001-197.577-88.451-197.58-197.581.004-109.117 88.458-197.576 197.58-197.579 109.121.003 197.578 88.462 197.581 197.579C197.578-88.451 109.121-.001 0 0" clip-path="url(#y)" style="fill:#d1ad54;fill-opacity:1;fill-rule:nonzero;stroke:none" transform="matrix(1.33333 0 0 -1.33333 536.484 139.76)"></path><path d="M0 0c-11.391-5.528-21.536-7.515-30.099-7.515-8.133-.002-14.774 1.666-19.365 3.327a45 45 0 0 0-5.276 2.272c-.6.306-1.051.559-1.348.729-.298.174-.415.251-.416.25-.11.055-4.025 2.606-9.735 3.997 6.738 6.129 7.679 14.471 7.726 14.643l.021.17-.011.17c-1.019 15.105-10.521 42.653-19.762 66.728-8.922 23.191-17.614 42.963-18.213 44.323-4.61 13.557-6.036 24.389-6.036 32.625 0 6.939 1.013 12.035 2.004 15.374.495 1.667.987 2.896 1.345 3.692.178.399.324.688.42.871s.127.229.127.229l.131.219.068.246c3.805 13.815 9.482 22.277 14.146 27.296 2.331 2.506 4.415 4.153 5.892 5.164a21 21 0 0 0 1.717 1.065q.294.158.434.227l.106.049 2.148.943-1.429 1.861c-8.21 10.701-10.872 20.938-10.882 29.939-.002 8.998 2.713 16.779 5.442 22.305a54 54 0 0 0 3.743 6.452c.508.747.928 1.321 1.218 1.699.289.382.432.548.43.549l.938 1.12-9.887 13.138 17.739-2.418.582.393s.182.126.602.38c2.944 1.793 16.393 9.232 35.834 9.226 11.113-.002 24.198-2.414 38.52-9.718l.492-.253 21.478 2.459-10.921-13.115.92-1.169s.131-.166.398-.537c1.891-2.606 9.628-14.374 9.607-28.984-.017-9.327-3.051-19.835-12.831-30.332l-1.426-1.527 1.695-1.219s.046-.033.185-.142c2.095-1.655 20.849-17.204 24.406-55.862l.007-.064.01-.06c0-.001.047-.285.105-.964.055-.677.114-1.706.114-3.058-.004-6.526-1.346-20.606-10.81-39.595l-.037-.075-.028-.067c-.004-.014-7.859-19.766-15.72-41.912C12.585 64.47 8.654 52.798 5.694 42.676 2.739 32.523.734 24.046.714 18.863q0-.421.02-.805c.407-7.041 4.39-12.106 7.585-15.09C5.663 2.355 2.865 1.389 0 0" clip-path="url(#z)" style="fill:#fff;fill-opacity:1;fill-rule:nonzero;stroke:none" transform="matrix(1.33333 0 0 -1.33333 577.527 592.074)"></path><path d="M0 0a1.838 1.838 0 1 1 3.675 0v30.127c-1.245.024-2.473.07-3.675.149Z" clip-path="url(#A)" style="fill:#fff;fill-opacity:1;fill-rule:nonzero;stroke:none" transform="matrix(1.33333 0 0 -1.33333 533.897 648.232)"></path><path d="M0 0c-9.073-4.912-18.94-10.578-23.031-14.619a1.84 1.84 0 0 1 2.601-2.603c3.273 3.323 13.247 9.199 22.174 13.987a528 528 0 0 0 14.494 7.502 77 77 0 0 0-4.216 1.999A525 525 0 0 1 0 0" clip-path="url(#B)" style="fill:#fff;fill-opacity:1;fill-rule:nonzero;stroke:none" transform="matrix(1.33333 0 0 -1.33333 476.956 604.917)"></path><path d="M0 0a1.84 1.84 0 0 1 3.057-2.044l18.544 27.725q-1.95.454-3.771.975z" clip-path="url(#C)" style="fill:#fff;fill-opacity:1;fill-rule:nonzero;stroke:none" transform="matrix(1.33333 0 0 -1.33333 488.324 639.62)"></path><path d="M0 0a1.83 1.83 0 0 1 2.514-.658 1.837 1.837 0 0 1 .659 2.513l-17.007 29.079a77 77 0 0 0-3.763-.849z" clip-path="url(#D)" style="fill:#fff;fill-opacity:1;fill-rule:nonzero;stroke:none" transform="matrix(1.33333 0 0 -1.33333 584.148 646.206)"></path><path d="M0 0a279 279 0 0 1-9.655 7.16 93 93 0 0 0-3.796-1.824c.431-.3.89-.623 1.398-.981 3.917-2.774 9.901-7.158 15.27-11.673 5.358-4.47 10.132-9.273 11.41-12.129a1.84 1.84 0 0 1 2.444-.89 1.84 1.84 0 0 1 .889 2.442C15.38-12.553 7.446-5.851 0 0" clip-path="url(#E)" style="fill:#fff;fill-opacity:1;fill-rule:nonzero;stroke:none" transform="matrix(1.33333 0 0 -1.33333 602.988 605.345)"></path><path d="M0 0a188.6 188.6 0 0 0-38.567-29.684c-5.006 1.336-13.374 5.504-26.063 17.023-.168.135-8.376 7.599-21.349 7.627-.932 0-1.891-.054-2.869-.138-2.548 1.883-8.447 7.154-8.729 14.516q-.017.3-.017.629c-.018 4.294 1.9 12.797 4.832 22.781 4.39 15.021 11.004 33.654 16.516 48.511 5.264 14.199 9.516 24.928 9.89 25.875 9.698 19.479 11.163 34.138 11.159 41.162 0 2.634-.203 4.197-.253 4.538-3.279 35.754-19.368 52.735-24.517 57.298 9.372 10.665 12.519 21.691 12.506 31.393-.031 15.058-7.343 26.87-9.91 30.577l14.925 17.925-29.49-3.377c-14.648 7.379-28.177 9.871-39.695 9.869-20.691-.009-34.838-7.977-37.882-9.845l-25.112 3.421 13.468-17.902c-2.734-3.715-10.761-15.946-10.79-32.196-.009-9.248 2.664-19.767 10.373-30.476-4.597-2.904-16.026-12.164-22.314-34.871-.756-1.38-4.29-8.564-4.288-21.827 0-8.677 1.509-19.948 6.259-33.887l.025-.074.033-.077c.005-.012 2.24-5.065 5.635-13.133 5.091-12.103 12.774-30.946 19.354-49.461 6.543-18.381 11.979-36.555 12.701-47.098l-.031-.189c-.285-1.748-2.04-9.368-8.598-13.689l-.383-.257c-.666.052-1.341.087-2.032.089-4.639.009-9.811-1.256-14.559-4.977-.004-.002-1.589-1.239-4.268-3.13-4.016-2.835-10.446-7.095-17.369-10.615-5.306-2.711-10.928-4.952-15.852-5.837A188.5 188.5 0 0 0-265.534 0c-33.985 33.995-54.991 80.903-54.992 132.765.001 51.868 21.007 98.776 54.992 132.768 33.994 33.988 80.903 54.99 132.767 54.994 51.864-.004 98.774-21.006 132.767-54.994 33.986-33.992 54.991-80.9 54.995-132.768C54.991 80.905 33.986 33.995 0 0" clip-path="url(#F)" style="fill:#15a861;fill-opacity:1;fill-rule:nonzero;stroke:none" transform="matrix(1.33333 0 0 -1.33333 713.507 580.22)"></path><path d="m0 0-4.391-17.57a1.838 1.838 0 0 1 3.567-.891L3.62-.679c3.38-.544 7.16-.889 11.333-.961l.085-17.924a1.84 1.84 0 0 1 1.837-1.83h.01a1.835 1.835 0 0 1 1.828 1.848L18.63-1.645c3.654.081 7.597.383 11.827.948l3.587-18.212a1.839 1.839 0 1 1 3.61.708L34.099-.157a140 140 0 0 1 11.204 2.321l5.821-18.13a1.838 1.838 0 0 1 3.501 1.124L48.867 3.097c2.578.705 5.232 1.49 7.974 2.383l9.015-16.178a1.835 1.835 0 0 1 2.499-.714 1.84 1.84 0 0 1 .712 2.503L59.315 8.597a1.84 1.84 0 0 1-2.188.849C40.57 3.916 27.153 2.007 16.512 2.007 4.199 2.009-4.408 4.56-9.92 7.062c-2.755 1.253-4.736 2.496-6.013 3.409-.639.458-1.101.834-1.396 1.085a10 10 0 0 0-.317.282c-.065.059-.071.068-.071.068a1.841 1.841 0 0 1-2.858-.317L-32.244-6.906a1.837 1.837 0 0 1 .574-2.536 1.84 1.84 0 0 1 2.536.574v.002l10.55 16.72c1.216-.911 3.099-2.153 5.679-3.437l-7.656-17.387a1.84 1.84 0 0 1 1.683-2.579c.706 0 1.38.41 1.684 1.098L-9.55 2.913C-6.896 1.835-3.728.81 0 0" clip-path="url(#G)" style="fill:#d1ad54;fill-opacity:1;fill-rule:nonzero;stroke:none" transform="matrix(1.33333 0 0 -1.33333 514.158 318.314)"></path><path d="M0 0c1.015 0 1.838.823 1.838 1.839v5.825a1.84 1.84 0 0 1-3.677 0V1.839C-1.839.823-1.016 0 0 0" clip-path="url(#H)" style="fill:#d1ad54;fill-opacity:1;fill-rule:nonzero;stroke:none" transform="matrix(1.33333 0 0 -1.33333 555.512 214.637)" data-source="https://football-logos.cc"></path><path d="M0 0c1.014 0 1.839.825 1.839 1.839V9.58a1.84 1.84 0 0 1-3.678 0V1.839A1.84 1.84 0 0 1 0 0" clip-path="url(#I)" style="fill:#d1ad54;fill-opacity:1;fill-rule:nonzero;stroke:none" transform="matrix(1.33333 0 0 -1.33333 539.95 221.07)"></path><path d="M0 0q.174-.032.343-.032c.867 0 1.638.616 1.804 1.498l.908 4.827a1.838 1.838 0 0 1-3.615.679l-.907-4.826A1.84 1.84 0 0 1 0 0" clip-path="url(#J)" style="fill:#d1ad54;fill-opacity:1;fill-rule:nonzero;stroke:none" transform="matrix(1.33333 0 0 -1.33333 523.952 213.262)"></path><path d="m0 0 10.04-10.054L20.093 0a1.837 1.837 0 1 1-2.598 2.599l-7.452-7.452-7.442 7.452a1.84 1.84 0 0 1-2.6 0A1.837 1.837 0 0 1 0 0" clip-path="url(#K)" style="fill:#d1ad54;fill-opacity:1;fill-rule:nonzero;stroke:none" transform="matrix(1.33333 0 0 -1.33333 527.636 234.088)"></path><path d="M0 0v16.871a1.84 1.84 0 1 1-3.677 0V0A1.837 1.837 0 0 1 0 0" clip-path="url(#L)" style="fill:#d1ad54;fill-opacity:1;fill-rule:nonzero;stroke:none" transform="matrix(1.33333 0 0 -1.33333 528.748 486.708)"></path><path d="M0 0a1.84 1.84 0 0 1-1.841-1.839v-19.575a1.839 1.839 0 1 1 3.678 0v19.575A1.84 1.84 0 0 1 0 0" clip-path="url(#M)" style="fill:#d1ad54;fill-opacity:1;fill-rule:nonzero;stroke:none" transform="matrix(1.33333 0 0 -1.33333 546.089 488.758)"></path><path d="M0 0q.05-.004.102-.003c.969 0 1.78.757 1.834 1.737l.907 16.504a1.837 1.837 0 0 1-1.734 1.937 1.835 1.835 0 0 1-1.936-1.734l-.908-16.506A1.833 1.833 0 0 1 0 0" clip-path="url(#N)" style="fill:#d1ad54;fill-opacity:1;fill-rule:nonzero;stroke:none" transform="matrix(1.33333 0 0 -1.33333 469.84 376.606)"></path><path d="m0 0 6.847 13.575c.454.907.09 2.012-.815 2.47a1.84 1.84 0 0 1-2.471-.814L-3.283 1.654a1.838 1.838 0 0 1 1.642-2.667C-.97-1.013-.32-.645 0 0" clip-path="url(#O)" style="fill:#d1ad54;fill-opacity:1;fill-rule:nonzero;stroke:none" transform="matrix(1.33333 0 0 -1.33333 582.234 464.687)"></path><path d="M0 0a1.837 1.837 0 0 1-1.839-1.837v-16.507a1.84 1.84 0 0 1 3.678 0v16.507A1.837 1.837 0 0 1 0 0" clip-path="url(#P)" style="fill:#d1ad54;fill-opacity:1;fill-rule:nonzero;stroke:none" transform="matrix(1.33333 0 0 -1.33333 559.4 435.253)"></path><path d="M0 0a1.84 1.84 0 0 1-1.84-1.839v-18.493c0-1.016.824-1.841 1.84-1.841a1.84 1.84 0 0 1 1.837 1.841v18.493A1.84 1.84 0 0 1 0 0" clip-path="url(#Q)" style="fill:#d1ad54;fill-opacity:1;fill-rule:nonzero;stroke:none" transform="matrix(1.33333 0 0 -1.33333 534.73 397.591)"></path><path d="M0 0a1.84 1.84 0 1 1 3.615.677L.697 16.265a1.84 1.84 0 0 1-2.145 1.467 1.84 1.84 0 0 1-1.47-2.146z" clip-path="url(#R)" style="fill:#d1ad54;fill-opacity:1;fill-rule:nonzero;stroke:none" transform="matrix(1.33333 0 0 -1.33333 573.76 444.6)"></path><path d="m0 0 3.917 14.586a1.84 1.84 0 0 1-3.552.954L-3.553.954A1.84 1.84 0 0 1 0 0" clip-path="url(#S)" style="fill:#d1ad54;fill-opacity:1;fill-rule:nonzero;stroke:none" transform="matrix(1.33333 0 0 -1.33333 570.76 399.467)"></path><path d="M0 0a1.84 1.84 0 0 1-1.675-1.988l.907-10.659a1.838 1.838 0 1 1 3.664.311L1.988-1.677A1.837 1.837 0 0 1 0 0" clip-path="url(#T)" style="fill:#d1ad54;fill-opacity:1;fill-rule:nonzero;stroke:none" transform="matrix(1.33333 0 0 -1.33333 590.297 348.378)"></path><path d="M0 0q.184-.001.373.037a1.84 1.84 0 0 1 1.428 2.174l-2 9.66a1.836 1.836 0 0 1-2.173 1.427A1.843 1.843 0 0 1-3.8 11.125l2-9.661A1.84 1.84 0 0 1 0 0" clip-path="url(#U)" style="fill:#d1ad54;fill-opacity:1;fill-rule:nonzero;stroke:none" transform="matrix(1.33333 0 0 -1.33333 574.945 367.484)"></path><path d="M0 0a1.84 1.84 0 0 1-2.276 1.258A1.84 1.84 0 0 1-3.534-1.02L.383-14.597a1.84 1.84 0 0 1 2.276-1.256 1.837 1.837 0 0 1 1.256 2.276z" clip-path="url(#V)" style="fill:#d1ad54;fill-opacity:1;fill-rule:nonzero;stroke:none" transform="matrix(1.33333 0 0 -1.33333 544.879 355.378)"></path><path d="M0 0c.957 0 1.765.743 1.833 1.711l1.01 14.578a1.84 1.84 0 0 1-3.669.256L-1.837 1.966A1.84 1.84 0 0 1 0 0" clip-path="url(#W)" style="fill:#d1ad54;fill-opacity:1;fill-rule:nonzero;stroke:none" transform="matrix(1.33333 0 0 -1.33333 525.619 393.492)"></path><path d="M0 0a1.837 1.837 0 0 1-2.213-1.365l-3.918-16.504a1.84 1.84 0 0 1 1.79-2.263c.833 0 1.587.568 1.787 1.415L1.364-2.213A1.84 1.84 0 0 1 0 0" clip-path="url(#X)" style="fill:#d1ad54;fill-opacity:1;fill-rule:nonzero;stroke:none" transform="matrix(1.33333 0 0 -1.33333 511.97 349.768)"></path><path d="M0 0a1.84 1.84 0 0 1-1.955-1.715L-2.953-17.2a1.837 1.837 0 0 1 1.715-1.953q.06-.004.12-.004c.962 0 1.771.745 1.833 1.721L1.716-1.954A1.84 1.84 0 0 1 0 0" clip-path="url(#Y)" style="fill:#d1ad54;fill-opacity:1;fill-rule:nonzero;stroke:none" transform="matrix(1.33333 0 0 -1.33333 507.672 384.717)"></path><path d="M0 0a1.84 1.84 0 0 1 1.622 2.702L-6.132 17.29a1.838 1.838 0 1 1-3.247-1.727L-1.626.978A1.84 1.84 0 0 1 0 0" clip-path="url(#Z)" style="fill:#d1ad54;fill-opacity:1;fill-rule:nonzero;stroke:none" transform="matrix(1.33333 0 0 -1.33333 506.184 451.825)"></path><path d="M0 0a1.839 1.839 0 0 1-3.415-1.362L2.41-15.941a1.84 1.84 0 1 1 3.415 1.366z" clip-path="url(#aa)" style="fill:#d1ad54;fill-opacity:1;fill-rule:nonzero;stroke:none" transform="matrix(1.33333 0 0 -1.33333 502.024 453.565)"></path><path d="M0 0a1.84 1.84 0 0 1-2.346 1.121 1.837 1.837 0 0 1-1.12-2.346L2.368-17.72a1.836 1.836 0 0 1 2.346-1.12 1.84 1.84 0 0 1 1.121 2.347z" clip-path="url(#ab)" style="fill:#d1ad54;fill-opacity:1;fill-rule:nonzero;stroke:none" transform="matrix(1.33333 0 0 -1.33333 474.83 432.997)"></path><path d="M0 0a1.836 1.836 0 0 1-2.009-1.649l-2.009-20.422a1.84 1.84 0 0 1 1.649-2.011q.091-.007.181-.008c.936 0 1.735.71 1.828 1.66L1.65-2.009A1.837 1.837 0 0 1 0 0" clip-path="url(#ac)" style="fill:#d1ad54;fill-opacity:1;fill-rule:nonzero;stroke:none" transform="matrix(1.33333 0 0 -1.33333 470.214 385.934)"></path><path d="M0 0a1.839 1.839 0 0 1-3.521-1.066l2.929-9.671A1.837 1.837 0 0 1 1.7-11.964a1.84 1.84 0 0 1 1.227 2.293z" clip-path="url(#ad)" style="fill:#d1ad54;fill-opacity:1;fill-rule:nonzero;stroke:none" transform="matrix(1.33333 0 0 -1.33333 605.719 413.652)"></path><path d="m0 0 .911-15.577a1.837 1.837 0 0 1 1.941-1.726 1.84 1.84 0 0 1 1.73 1.94L3.673.214A1.84 1.84 0 0 1 1.73 1.942 1.84 1.84 0 0 1 0 0" clip-path="url(#ae)" style="fill:#d1ad54;fill-opacity:1;fill-rule:nonzero;stroke:none" transform="matrix(1.33333 0 0 -1.33333 603.616 382.083)"></path><path d="M0 0q.223 0 .449.058a1.84 1.84 0 0 1 1.336 2.229l-3.918 15.588a1.84 1.84 0 0 1-2.23 1.336 1.84 1.84 0 0 1-1.335-2.232l3.917-15.588A1.84 1.84 0 0 1 0 0" clip-path="url(#af)" style="fill:#d1ad54;fill-opacity:1;fill-rule:nonzero;stroke:none" transform="matrix(1.33333 0 0 -1.33333 503.635 520.47)"></path><path d="M0 0a1.84 1.84 0 0 1-1.854-1.824l-.356-39.834a1.836 1.836 0 0 1 1.82-1.854q.01-.002.019-.002c1.008 0 1.828.814 1.839 1.824l.356 39.833A1.844 1.844 0 0 1 0 0" clip-path="url(#ag)" style="fill:#d1ad54;fill-opacity:1;fill-rule:nonzero;stroke:none" transform="matrix(1.33333 0 0 -1.33333 543.875 536.454)"></path><path d="M0 0a1.84 1.84 0 0 1-1.839-1.839v-38.824c0-1.015.823-1.836 1.839-1.836 1.014 0 1.838.821 1.838 1.836v38.824A1.84 1.84 0 0 1 0 0" clip-path="url(#ah)" style="fill:#d1ad54;fill-opacity:1;fill-rule:nonzero;stroke:none" transform="matrix(1.33333 0 0 -1.33333 528.296 536.349)"></path><path d="M0 0a1.84 1.84 0 0 1-2.206-1.376l-2.918-12.577a1.839 1.839 0 0 1 3.584-.83L1.376-2.206A1.84 1.84 0 0 1 0 0" clip-path="url(#ai)" style="fill:#d1ad54;fill-opacity:1;fill-rule:nonzero;stroke:none" transform="matrix(1.33333 0 0 -1.33333 576.724 505.306)"></path><path d="M0 0a1.837 1.837 0 0 1-2.395-1.011l-3.928-9.659a1.837 1.837 0 0 1 1.704-2.53c.726 0 1.413.431 1.703 1.146l3.927 9.66A1.836 1.836 0 0 1 0 0" clip-path="url(#aj)" style="fill:#d1ad54;fill-opacity:1;fill-rule:nonzero;stroke:none" transform="matrix(1.33333 0 0 -1.33333 590.095 474.32)"></path><path d="m0 0-5.905-17.862a1.838 1.838 0 0 1 1.744-2.416c.773 0 1.491.488 1.749 1.261L3.492-1.155A1.84 1.84 0 0 1 0 0" clip-path="url(#ak)" style="fill:#d1ad54;fill-opacity:1;fill-rule:nonzero;stroke:none" transform="matrix(1.33333 0 0 -1.33333 558.296 269.75)"></path><path d="M0 0a1.84 1.84 0 0 1-1.221-2.295L4.287-20.35a1.837 1.837 0 0 1 2.295-1.223 1.84 1.84 0 0 1 1.222 2.294L2.295-1.223A1.84 1.84 0 0 1 0 0" clip-path="url(#al)" style="fill:#d1ad54;fill-opacity:1;fill-rule:nonzero;stroke:none" transform="matrix(1.33333 0 0 -1.33333 521.023 268.176)"></path><path d="M0 0a9.01 9.01 0 0 1 9.01-9.008c4.968.002 8.988 4.039 8.989 9.008 0 .033-.005.066-.005.1.869-.864 1.731-1.73 2.556-2.592 2.493-2.595 4.722-5.142 6.28-7.317 1.585-2.139 2.374-4.046 2.309-4.624 0-.013 0-.042-.004-.1q0-.019.002-.038c0-.019-.004-.037-.004-.057v-33.081a1.84 1.84 0 0 1 3.677 0v33.066l.004.098c.017.359.33 1.295 1.042 2.423C35.929-8.713 40.829-3.676 45.989 1.1a9 9 0 0 1-.075-1.1c.002-4.969 4.018-9.006 8.989-9.008A9.015 9.015 0 0 1 63.914 0c-.004 4.958-4.022 8.966-8.976 8.988 4.486 3.798 7.847 6.441 7.854 6.45a1.838 1.838 0 1 1-2.272 2.889c-.022-.015-7.714-6.067-15.442-13.076-3.867-3.508-7.74-7.249-10.699-10.641-1.294-1.485-2.397-2.894-3.275-4.229-3.123 5.163-9.842 11.853-15.941 17.517C8.926 13.669 3.401 18.216 3.384 18.231a1.839 1.839 0 1 1-2.336-2.839h-.001c.004-.004 1.778-1.462 4.46-3.787.907-.787 1.928-1.682 3.006-2.641C3.774 8.704.002 4.801 0 0" clip-path="url(#am)" style="fill:#d1ad54;fill-opacity:1;fill-rule:nonzero;stroke:none" transform="matrix(1.33333 0 0 -1.33333 499.88 241.891)"></path><path d="M0 0a5.35 5.35 0 0 0-5.333-5.333C-8.26-5.327-10.64-2.944-10.646 0a5.32 5.32 0 0 0 5.313 5.312A5.335 5.335 0 0 0 0 0" clip-path="url(#an)" style="fill:#fff;fill-opacity:1;fill-rule:nonzero;stroke:none" transform="matrix(1.33333 0 0 -1.33333 580.194 241.891)"></path><path d="M0 0a5.32 5.32 0 0 0 5.311-5.312C5.306-8.256 2.925-10.639 0-10.645a5.346 5.346 0 0 0-5.333 5.333C-5.328-2.385-2.946-.003 0 0" clip-path="url(#ao)" style="fill:#fff;fill-opacity:1;fill-rule:nonzero;stroke:none" transform="matrix(1.33333 0 0 -1.33333 511.893 234.809)" data-source="https://football-logos.cc"></path><!-- source: https://football-logos.cc --></svg>