<svg xmlns="http://www.w3.org/2000/svg" fill="none" viewBox="0 0 169.8 147.1"><!-- Source: https://football-logos.cc --><g clip-path="url(#a)" data-source="https://football-logos.cc"><path fill="#0D52A0" fill-rule="evenodd" d="M42.5 147.1 0 73.5 42.5 0h84.9l42.4 73.5-42.4 73.6z" clip-rule="evenodd"></path><path fill="#fff" d="m45.4 142-1.3-2.2-37-64-1.3-2.2 1.3-2.2 37-64 1.3-2.2h79l1.3 2.2 37 64 1.3 2.2-1.3 2.2-37 64-1.3 2.2zm5.1-8.9h68.8l34.4-59.6-34.4-59.6H50.5L16.1 73.5z"></path><path fill="#fff" d="m53.1 128.6-.5-.9-30.8-53.3-.5-.9.5-.9 30.8-53.3.5-.9h63.6l.5.9L148 72.6l.5.9-.5.9-30.8 53.3-.5.9zm2.1-3.6h59.5l29.7-51.5L114.6 22H55.2L25.4 73.5z"></path><path fill="#fff" fill-rule="evenodd" d="M47.9 104V71h8.3v33zM74.9 86.1q-.9.3-2.1.3c-1.5 0-2.6-.4-3.4-1.3q-1.2-1.35-1.2-3.6c0-1.4.4-2.6 1.3-3.4s2-1.3 3.4-1.3 2.4.5 3.2 1.4 1.2 2.2 1.2 3.8c0 .5 0 1-.1 1.5s-.2 1-.4 1.6c-.6.4-1.2.8-1.9 1m-3.7 9.6c-1.6 1.5-3.5 2.8-5.8 4.1l4.3 4.9c4.8-2.3 8.6-5.4 11.4-9.4q4.2-6 4.2-12.6c0-3.7-1.1-6.6-3.4-8.8s-5.4-3.3-9.2-3.3c-3.7 0-6.7 1.1-9.1 3.2-2.3 2.1-3.5 4.8-3.5 8.1q0 4.35 3 7.2c2 1.8 4.6 2.7 7.7 2.7.7 0 1.4-.1 2.1-.2.6-.1 1.2-.3 1.8-.5-.8 1.5-1.9 3.1-3.5 4.6M90 104V71h8.2v33zM103.1 102.5v-6.4c1.6.9 3 1.6 4.3 2s2.6.6 3.8.6c2 0 3.6-.4 4.6-1.1 1.1-.7 1.6-1.8 1.6-3.2 0-1.3-.5-2.4-1.6-3.2-1-.8-2.5-1.2-4.4-1.3V84c1.7-.1 3.1-.5 4.1-1.2q1.5-1.2 1.5-3c0-1.1-.5-2-1.5-2.6-1-.7-2.3-1-4-1-1.2 0-2.3.2-3.5.5s-2.4.8-3.7 1.4v-5.7c1.2-.6 2.6-1 4.1-1.3s3.2-.4 5-.4c3.5 0 6.4.8 8.5 2.3s3.1 3.6 3.1 6.1c0 1.6-.4 3.1-1.3 4.3s-2.2 2.3-4.1 3.2q3.15 1.05 4.8 3.3c1.1 1.4 1.6 3.2 1.6 5.3 0 2.9-1.2 5.3-3.5 7s-5.5 2.6-9.5 2.6c-2.1 0-4-.2-5.6-.5-1.6-.6-3.1-1.1-4.3-1.8M86.7 64.5c4.4 0 7.6-.8 9.8-2.4s3.3-4 3.3-7.1c0-2.2-.6-4-1.7-5.4s-2.9-2.5-5.2-3.2c1.4-.6 2.5-1.5 3.3-2.6.7-1.1 1.1-2.4 1.1-3.8q0-4.2-3.3-6.3c-2.2-1.4-5.5-2.1-9.8-2.1H71.9v33.1h14.8zm-6.4-20v-7.2h2.3q2.25 0 3.3.9c.7.6 1.1 1.6 1.1 2.8 0 1.1-.4 2-1.1 2.6s-1.8.8-3.3.8h-2.3zm0 5.9H83c2.1 0 3.6.3 4.5 1 1 .7 1.5 1.7 1.5 3.2 0 1.4-.5 2.4-1.4 3s-2.4.9-4.6.9h-2.8v-8.1z" clip-rule="evenodd"></path></g><defs data-source="https://football-logos.cc"><clipPath id="a"><path fill="#fff" d="M0 0h169.8v147.1H0z"></path></clipPath></defs><!-- source: https://football-logos.cc --></svg>