<svg xmlns="http://www.w3.org/2000/svg" viewBox="36.05 152.73 1000 497.24"><!-- Source: https://football-logos.cc --><defs data-source="https://football-logos.cc"><clipPath id="a" clipPathUnits="userSpaceOnUse"><path d="M-557.042 267.214h800v-600h-800Z"></path></clipPath><clipPath id="b" clipPathUnits="userSpaceOnUse"><path d="M-248.742 405.932h800v-600h-800Z"></path></clipPath><clipPath id="c" clipPathUnits="userSpaceOnUse"><path d="M-318.286 405.932h800v-600h-800Z"></path></clipPath><clipPath id="d" clipPathUnits="userSpaceOnUse"><path d="M-386.764 405.932h800v-600h-800Z"></path></clipPath><clipPath id="e" clipPathUnits="userSpaceOnUse"><path d="M-476.953 441.491h800v-600h-800Z"></path></clipPath><clipPath id="f" clipPathUnits="userSpaceOnUse"><path d="M-517.3 405.932h800v-600h-800Z"></path></clipPath><clipPath id="g" clipPathUnits="userSpaceOnUse"><path d="M-542.959 486.204h800v-600h-800Z"></path></clipPath><clipPath id="h" clipPathUnits="userSpaceOnUse"><path d="M0 600h800V0H0Z"></path></clipPath><clipPath id="i" clipPathUnits="userSpaceOnUse"><path d="M0 600h800V0H0Z"></path></clipPath><clipPath id="j" clipPathUnits="userSpaceOnUse"><path d="M0 600h800V0H0Z"></path></clipPath><clipPath id="k" clipPathUnits="userSpaceOnUse"><path d="M0 600h800V0H0Z"></path></clipPath><clipPath id="l" clipPathUnits="userSpaceOnUse"><path d="M0 600h800V0H0Z"></path></clipPath><clipPath id="m" clipPathUnits="userSpaceOnUse"><path d="M0 600h800V0H0Z"></path></clipPath><clipPath id="n" clipPathUnits="userSpaceOnUse"><path d="M-375.652 378.543h800v-600h-800Z"></path></clipPath><clipPath id="o" clipPathUnits="userSpaceOnUse"><path d="M-83.387 206.664h800v-600h-800Z"></path></clipPath><clipPath id="p" clipPathUnits="userSpaceOnUse"><path d="M-192.292 211.217h800v-600h-800Z"></path></clipPath><clipPath id="q" clipPathUnits="userSpaceOnUse"><path d="M-666.936 189.616h800v-600h-800Z"></path></clipPath><clipPath id="r" clipPathUnits="userSpaceOnUse"><path d="M-661.705 216.31h800v-600h-800Z"></path></clipPath><clipPath id="s" clipPathUnits="userSpaceOnUse"><path d="M-610.253 164.803h800v-600h-800Z"></path></clipPath><clipPath id="t" clipPathUnits="userSpaceOnUse"><path d="M-583.296 140.11h800v-600h-800Z"></path></clipPath><clipPath id="u" clipPathUnits="userSpaceOnUse"><path d="M-575.937 198.619h800v-600h-800Z"></path></clipPath><clipPath id="v" clipPathUnits="userSpaceOnUse"><path d="M-660.747 160.697h800v-600h-800Z"></path></clipPath><clipPath id="w" clipPathUnits="userSpaceOnUse"><path d="M-612.215 120.752h800v-600h-800Z"></path></clipPath><clipPath id="x" clipPathUnits="userSpaceOnUse"><path d="M-543.802 142.187h800v-600h-800Z"></path></clipPath><clipPath id="y" clipPathUnits="userSpaceOnUse"><path d="M-526.148 180.406h800v-600h-800Z"></path></clipPath><clipPath id="z" clipPathUnits="userSpaceOnUse"><path d="M-544.855 211.733h800v-600h-800Z"></path></clipPath><clipPath id="A" clipPathUnits="userSpaceOnUse"><path d="M-561.337 251.1h800v-600h-800Z"></path></clipPath><clipPath id="B" clipPathUnits="userSpaceOnUse"><path d="M-593.331 260.247h800v-600h-800Z"></path></clipPath><clipPath id="C" clipPathUnits="userSpaceOnUse"><path d="M-594.79 260.731h800v-600h-800Z"></path></clipPath><clipPath id="D" clipPathUnits="userSpaceOnUse"><path d="M-641.062 244.29h800v-600h-800Z"></path></clipPath></defs><path d="m0 0-43.731-60.007c-1.907 2.693-3.566 5.781-5.002 9.117L-8.684 4.291l-7.213 5.164-36.417-50.074c-1.137 4.05-2.046 8.227-2.751 12.348l32.444 44.818-5.764 7.836-28.355-39.285c-.339 4.139-.485 7.941-.485 11.14 0 18.279 4.715 55.71 23.285 64.441 5.053-21.924 19.694-40.165 39.284-50.082.445-4.289.677-8.303.755-11.798Zm-25.546-70.636c-4.486 0-8.362 1.443-11.725 3.889L6.063-7.683c-.715-22.124-7.517-62.953-31.609-62.953m169.457-3.413c-13.21 0-23.777 11.666-23.777 26.18 0 14.798 10.567 26.748 23.777 26.748s23.777-11.95 23.777-26.748c0-14.514-10.566-26.18-23.777-26.18m0 147.121c12.156 0 21.929-10.815 21.929-24.189s-9.773-24.189-21.929-24.189c-12.153 0-21.927 10.814-21.927 24.189s9.774 24.189 21.927 24.189M180.369 1.36v.569c18.233 6.546 31.441 25.897 31.441 48.662 0 40.978-33.819 61.181-67.899 61.181-12.031 0-24.021-2.53-34.511-7.592-10.736 28.335-38.116 48.485-70.211 48.485-29.159 0-54.418-16.638-66.847-40.928-55.257-1.475-78.983-60.707-78.983-115.784 0-21.909 3.714-44.473 11.682-63.799l-33.177-45.966h11.143l26.426 36.501a102 102 0 0 1 5.146-8.838l-20.119-27.663h11.144l14.537 20.029a79 79 0 0 1 6.411-6.999l-9.496-13.03h11.143l5.249 7.155c11.119-8.302 24.716-13.208 41.006-13.208 57.021 0 81.097 60.042 81.097 115.818q-.002 4.162-.183 8.343a74.75 74.75 0 0 1 30.469 14.508c5.509-7.824 12.999-13.782 21.618-16.875V1.36C83.676-7.177 67.824-26.812 67.824-54.983c0-44.392 41.743-64.882 76.087-64.882 34.347 0 76.088 20.49 76.088 64.882 0 28.171-15.851 47.806-39.63 56.343" clip-path="url(#a)" style="fill:#000;fill-opacity:1;fill-rule:nonzero;stroke:none" transform="matrix(1.33333 0 0 -1.33333 742.723 356.286)"></path><path d="m0 0-18.631-80.272h15.756L0-66.751h16.075l2.981-13.521h16.927L16.715 0Zm13.733-54.188H2.555l3.407 21.397 1.704 12.138h.212l1.81-12.138z" clip-path="url(#b)" style="fill:#000;fill-opacity:1;fill-rule:nonzero;stroke:none" transform="matrix(1.33333 0 0 -1.33333 331.656 541.242)"></path><path d="m0 0 7.772-47.376h.213L14.373 0h21.293l8.41-80.272H27.788l-3.833 57.807h-.212l-2.556-19.802-6.814-38.005H2.129L-5.643-41.84l-2.662 17.885v1.49h-.212l-2.342-57.807h-17.033L-20.865 0Z" clip-path="url(#c)" style="fill:#000;fill-opacity:1;fill-rule:nonzero;stroke:none" transform="matrix(1.33333 0 0 -1.33333 424.38 541.242)"></path><path d="m0 0-18.631-80.272h15.757L0-66.751h16.077l2.98-13.521h16.929L16.714 0Zm13.733-54.188H2.555l3.406 21.397 1.704 12.138h.213l1.81-12.138z" clip-path="url(#d)" style="fill:#000;fill-opacity:1;fill-rule:nonzero;stroke:none" transform="matrix(1.33333 0 0 -1.33333 515.686 541.242)"></path><path d="M0 0v-6.28c0-17.036-4.151-39.709-25.763-39.709S-54.4-22.78-54.4-5.002c0 18.523 5.961 41.84 28.637 41.84 12.243 0 20.229-7.666 23.634-19.058l-15.436-5.961c-.745 4.046-2.022 10.327-8.09 10.327-10.756.638-11.82-19.164-11.82-26.721 0-8.307.533-26.724 12.245-26.724 8.089 0 9.37 10.859 9.37 16.397h-10.117V0Z" clip-path="url(#e)" style="fill:#000;fill-opacity:1;fill-rule:nonzero;stroke:none" transform="matrix(1.33333 0 0 -1.33333 635.937 588.655)"></path><path d="M0 0v-14.902h-16.073v-17.462h14.156v-14.905h-14.156v-18.099H.215v-14.904h-32.152V0Z" clip-path="url(#f)" style="fill:#000;fill-opacity:1;fill-rule:nonzero;stroke:none" transform="matrix(1.33333 0 0 -1.33333 689.734 541.242)"></path><path d="M0 0v37.05h.214L14.16 0h16.712L16.927 36.518c7.882 4.364 11.393 11.921 11.393 20.76 0 21.931-18.101 22.994-28.213 22.994h-15.97V0zm0 67.178h2.129c7.987.426 10.753-4.261 10.753-10.007 0-6.6-2.875-11.497-10.114-11.497L0 45.778Z" clip-path="url(#g)" style="fill:#000;fill-opacity:1;fill-rule:nonzero;stroke:none" transform="matrix(1.33333 0 0 -1.33333 723.945 648.272)"></path><path d="M209.237 175.572H27.041v11.142h182.196z" clip-path="url(#h)" style="fill:#000;fill-opacity:1;fill-rule:nonzero;stroke:none" transform="matrix(1.33333 0 0 -1.33333 0 800)"></path><path d="M209.237 144.928H27.041v11.144h182.196z" clip-path="url(#i)" style="fill:#000;fill-opacity:1;fill-rule:nonzero;stroke:none" transform="matrix(1.33333 0 0 -1.33333 0 800)"></path><path d="M209.237 114.282H27.041v11.144h182.196z" clip-path="url(#j)" style="fill:#000;fill-opacity:1;fill-rule:nonzero;stroke:none" transform="matrix(1.33333 0 0 -1.33333 0 800)"></path><path d="M773.094 175.572H590.9v11.142h182.194z" clip-path="url(#k)" style="fill:#000;fill-opacity:1;fill-rule:nonzero;stroke:none" transform="matrix(1.33333 0 0 -1.33333 0 800)"></path><path d="M773.094 144.928H590.9v11.144h182.194z" clip-path="url(#l)" style="fill:#000;fill-opacity:1;fill-rule:nonzero;stroke:none" transform="matrix(1.33333 0 0 -1.33333 0 800)"></path><path d="M773.094 114.282H590.9v11.144h182.194z" clip-path="url(#m)" style="fill:#000;fill-opacity:1;fill-rule:nonzero;stroke:none" transform="matrix(1.33333 0 0 -1.33333 0 800)"></path><path d="m0 0 40.453 60.044c16.333 24.472 30.405 54.353 30.405 85.37 0 22.481-10.055 45.246-25.379 59.191-14.574 13.374-35.68 18.496-54.022 18.496-43.218 0-81.41-28.456-81.41-81.101 0-39.555 23.618-75.694 60.806-75.694 10.05 0 18.09 2.277 26.633 6.544l.504-.571L-56.033 0Zm-8.292 178.994c17.337 0 31.407-15.653 31.407-35.288s-14.07-35.285-31.407-35.285c-17.339 0-30.404 15.651-30.404 35.285 0 19.635 13.065 35.288 30.404 35.288" clip-path="url(#n)" style="fill:#000;fill-opacity:1;fill-rule:nonzero;stroke:none" transform="matrix(1.33333 0 0 -1.33333 500.87 504.724)"></path><path d="M0 0h3.984c15.082 0 32.441-1.139 32.441-20.773 0-18.213-15.367-20.773-30.165-20.773H0Zm30.164-171.879c39.271 0 77.687 14.797 77.687 59.759 0 29.88-13.091 50.653-43.824 54.638v.569c17.359 8.822 23.619 24.472 23.619 43.823 0 40.978-25.61 55.775-63.743 55.775h-79.679v-214.564ZM0-83.093h5.692c18.211 0 45.814 2.561 45.814-23.336 0-23.617-27.888-22.765-44.392-22.765H0Z" clip-path="url(#o)" style="fill:#000;fill-opacity:1;fill-rule:nonzero;stroke:none" transform="matrix(1.33333 0 0 -1.33333 111.182 275.552)" data-source="https://football-logos.cc"></path><path d="M0 0v47.238h86.508v-214.564H30.734V0Z" clip-path="url(#p)" style="fill:#000;fill-opacity:1;fill-rule:nonzero;stroke:none" transform="matrix(1.33333 0 0 -1.33333 256.39 281.622)"></path><path d="M0 0c0-3.822-.311-7.569-.895-11.226l-27.819 21.483.339 9.606 23.636 5.587A70.6 70.6 0 0 0 0 0" clip-path="url(#q)" style="fill:#fff;fill-opacity:1;fill-rule:nonzero;stroke:none" transform="matrix(1.33333 0 0 -1.33333 889.247 252.822)"></path><path d="m0 0-24.979-16.725-10.353 6.058-.613 37.014 11.441 6.707L3.549 11.386A70 70 0 0 0 0 0" clip-path="url(#r)" style="fill:#fff;fill-opacity:1;fill-rule:nonzero;stroke:none" transform="matrix(1.33333 0 0 -1.33333 882.273 288.413)"></path><path d="m0 0-1.902-14.475-33.713-15.851-14.223 8.367 4.254 36.495 16.277 7.281z" clip-path="url(#s)" style="fill:#fff;fill-opacity:1;fill-rule:nonzero;stroke:none" transform="matrix(1.33333 0 0 -1.33333 813.67 219.738)"></path><path d="m0 0 3.357 7.244 32.02 10.293a70.3 70.3 0 0 0 15.166-7.184l-1.119.246-5.635-25.679-14.714-6.565z" clip-path="url(#t)" style="fill:#fff;fill-opacity:1;fill-rule:nonzero;stroke:none" transform="matrix(1.33333 0 0 -1.33333 777.728 186.814)"></path><path d="m0 0 33.519 15.761 12.603-7.773.586-35.35-11.551-8.144L-.9-14.049Z" clip-path="url(#u)" style="fill:#fff;fill-opacity:1;fill-rule:nonzero;stroke:none" transform="matrix(1.33333 0 0 -1.33333 767.915 264.825)"></path><path d="m0 0-23.777-5.62-6.831 7.743 5.997 27.317A70.94 70.94 0 0 0 0 0" clip-path="url(#v)" style="fill:#fff;fill-opacity:1;fill-rule:nonzero;stroke:none" transform="matrix(1.33333 0 0 -1.33333 880.996 214.263)"></path><path d="m0 0-27.493-8.837-7.927 7.946a70.7 70.7 0 0 0 19.437 2.727C-10.483 1.836-5.14 1.187 0 0" clip-path="url(#w)" style="fill:#fff;fill-opacity:1;fill-rule:nonzero;stroke:none" transform="matrix(1.33333 0 0 -1.33333 816.286 161.003)"></path><path d="m0 0 17.141-8.014-4.283-36.731-11.75-6.425-18.045 17.415C-14.422-20.921-8.442-9.328 0 0" clip-path="url(#x)" style="fill:#fff;fill-opacity:1;fill-rule:nonzero;stroke:none" transform="matrix(1.33333 0 0 -1.33333 725.07 189.583)"></path><path d="m0 0 16.278-15.712v-12.649L3.892-34.078A70.5 70.5 0 0 0-.618-9.21c0 3.123.223 6.193.618 9.21" clip-path="url(#y)" style="fill:#fff;fill-opacity:1;fill-rule:nonzero;stroke:none" transform="matrix(1.33333 0 0 -1.33333 701.531 240.541)"></path><path d="m0 0 11.184-10.221L12.64-37.02C1.227-29.527-7.885-18.826-13.414-6.19z" clip-path="url(#z)" style="fill:#fff;fill-opacity:1;fill-rule:nonzero;stroke:none" transform="matrix(1.33333 0 0 -1.33333 726.473 282.31)"></path><path d="m0 0-1.58 29.089 14.106 5.726 34.138-20.319.335-12.514-20.563-11.13C17.842-7.811 7.275-4.138 0 0" clip-path="url(#A)" style="fill:#fff;fill-opacity:1;fill-rule:nonzero;stroke:none" transform="matrix(1.33333 0 0 -1.33333 748.45 334.8)"></path><path d="M0 0q-.123.003-.249.006l.185.077z" clip-path="url(#B)" style="fill:#000;fill-opacity:1;fill-rule:nonzero;stroke:none" transform="matrix(1.33333 0 0 -1.33333 791.108 346.995)"></path><path d="m0 0 15.001 8.227 9.722-3.873C17.951 1.991 11.37-.484 0 0" clip-path="url(#C)" style="fill:#fff;fill-opacity:1;fill-rule:nonzero;stroke:none" transform="matrix(1.33333 0 0 -1.33333 793.052 347.642)"></path><path d="m0 0-2.813 7.812L17.6 21.477A71 71 0 0 0 0 0" clip-path="url(#D)" style="fill:#fff;fill-opacity:1;fill-rule:nonzero;stroke:none" transform="matrix(1.33333 0 0 -1.33333 854.749 325.72)" data-source="https://football-logos.cc"></path><!-- source: https://football-logos.cc --></svg>