<svg xmlns="http://www.w3.org/2000/svg" xml:space="preserve" viewBox="0.56 13.16 253.33 232.66"><!-- Source: https://football-logos.cc --><path d="M845.211 617.305v907.275H691.473V617.305z" style="fill:#fff200;fill-opacity:1;fill-rule:evenodd;stroke:none" transform="matrix(.13333 0 0 -.13333 0 258.667)" data-source="https://football-logos.cc"></path><path d="M978.363 617.305v907.275H844.957V617.305z" style="fill:#231f20;fill-opacity:1;fill-rule:evenodd;stroke:none" transform="matrix(.13333 0 0 -.13333 0 258.667)"></path><path d="M1132.36 617.305v907.275H978.617V617.305z" style="fill:#fff200;fill-opacity:1;fill-rule:evenodd;stroke:none" transform="matrix(.13333 0 0 -.13333 0 258.667)"></path><path d="M1265.51 617.305v907.275H1132.1V617.305zM404.074 617.305v907.275H270.668V617.305z" style="fill:#231f20;fill-opacity:1;fill-rule:evenodd;stroke:none" transform="matrix(.13333 0 0 -.13333 0 258.667)"></path><path d="M558.066 617.305v907.275H404.332V617.305z" style="fill:#fff200;fill-opacity:1;fill-rule:evenodd;stroke:none" transform="matrix(.13333 0 0 -.13333 0 258.667)"></path><path d="M691.223 617.305v907.275h-133.41V617.305z" style="fill:#231f20;fill-opacity:1;fill-rule:evenodd;stroke:none" transform="matrix(.13333 0 0 -.13333 0 258.667)"></path><path d="M30.945 1071.79c0 410.21 332.52 742.77 742.692 742.77 410.163 0 742.693-332.56 742.693-742.77 0-410.216-332.53-742.774-742.693-742.774-410.172 0-742.692 332.558-742.692 742.774m742.692-449.134c248.013 0 449.083 201.086 449.083 449.134 0 248.04-201.07 449.13-449.083 449.13-248.02 0-449.082-201.09-449.082-449.13 0-248.048 201.062-449.134 449.082-449.134" style="fill:#fff;fill-opacity:1;fill-rule:evenodd;stroke:none" transform="matrix(.13333 0 0 -.13333 0 258.667)"></path><path d="M300.935 1071.72c0 261.09 211.656 472.76 472.745 472.76s472.75-211.67 472.75-472.76c0-261.078-211.66-472.738-472.75-472.738-261.089 0-472.745 211.66-472.745 472.738" style="fill:none;stroke:#231f20;stroke-width:7.62135983;stroke-linecap:butt;stroke-linejoin:miter;stroke-miterlimit:2.61310005;stroke-dasharray:none;stroke-opacity:1" transform="matrix(.13333 0 0 -.13334 0 258.667)"></path><path d="M75.293 1071.72c0 385.71 312.682 698.4 698.387 698.4 385.71 0 698.39-312.69 698.39-698.4 0-385.696-312.68-698.382-698.39-698.382-385.705 0-698.387 312.686-698.387 698.382" style="fill:none;stroke:#231f20;stroke-width:7.62135983;stroke-linecap:butt;stroke-linejoin:miter;stroke-miterlimit:2.61310005;stroke-dasharray:none;stroke-opacity:1" transform="matrix(.13333 0 0 -.13334 0 258.667)"></path><path d="M32.803 1071.72c0 409.17 331.71 740.88 740.877 740.88 409.17 0 740.88-331.71 740.88-740.88 0-409.16-331.71-740.867-740.88-740.867-409.167 0-740.877 331.707-740.877 740.867M194.792 795.166l-4.942 11.07" style="fill:none;stroke:#231f20;stroke-width:7.62135983;stroke-linecap:butt;stroke-linejoin:miter;stroke-miterlimit:2.61310005;stroke-dasharray:none;stroke-opacity:1" transform="matrix(.13333 0 0 -.13334 0 258.667)"></path><path d="M189.85 806.236c-3.566 7.992-4.578 14.452-3.047 19.378 1.54 4.921 5.786 8.941 12.736 12.046 6.441 2.871 12.207 3.359 17.282 1.453 5.094-1.906 9.032-5.988 11.821-12.238M228.642 826.875l6.176-13.843-40.026-17.866M255.784 822.387l-4.946 11.07M250.838 833.457c-4.137 9.265-5.359 16.663-3.672 22.163 1.7 5.5 6.633 10.066 14.79 13.722 7.34 3.265 13.501 3.89 18.478 1.863 4.992-2.027 9.188-6.859 12.594-14.484M293.028 856.721l6.594-14.76-43.838-19.574" style="fill:none;stroke:#231f20;stroke-width:7.62135983;stroke-linecap:butt;stroke-linejoin:miter;stroke-miterlimit:2.61310005;stroke-dasharray:none;stroke-opacity:1" transform="matrix(.13333 0 0 -.13334 0 258.667)"></path><path d="M313.17 867.92c-8.516 19.069-17.989 31.717-28.431 37.939-10.435 6.215-22.353 6.336-35.764.348-8.837-3.949-15.177-9.421-19.04-16.409-3.844-6.988-5.489-15.871-4.926-26.643-7.551 6.324-14.989 10.183-22.295 11.593-7.305 1.402-14.59.476-21.876-2.766-12.282-5.484-19.528-14.753-21.763-27.807-2.211-13.065.797-28.818 9.032-47.282" style="fill:none;stroke:#231f20;stroke-width:7.62135983;stroke-linecap:butt;stroke-linejoin:miter;stroke-miterlimit:2.61310005;stroke-dasharray:none;stroke-opacity:1" transform="matrix(.13333 0 0 -.13334 0 258.667)"></path><path d="m168.107 796.893 20.404-45.681 147.391 65.797-22.732 50.911M139.207 974.121c-1.43 9.55-.785 16.398 1.906 20.55q4.066 6.223 16.704 8.129c9.462 1.41 16.193.61 20.181-2.36 4.012-2.98 6.684-8.968 8.02-17.952" style="fill:none;stroke:#231f20;stroke-width:7.62135983;stroke-linecap:butt;stroke-linejoin:miter;stroke-miterlimit:2.61310005;stroke-dasharray:none;stroke-opacity:1" transform="matrix(.13333 0 0 -.13334 0 258.667)"></path><path d="m186.018 982.488 2.207-14.769-47.014-7.019-2.004 13.421M208.434 988.921l63.112 34.009-5.797 38.85-69.605-38.97" style="fill:none;stroke:#231f20;stroke-width:7.62135983;stroke-linecap:butt;stroke-linejoin:miter;stroke-miterlimit:2.61310005;stroke-dasharray:none;stroke-opacity:1" transform="matrix(.13333 0 0 -.13334 0 258.667)"></path><path d="M196.144 1022.81c-5.11 7.98-11.059 13.4-17.837 16.24-6.758 2.84-15.118 3.52-25.056 2.04-16.247-2.43-27.346-8.87-33.295-19.29q-8.902-15.645-4.227-47.062" style="fill:none;stroke:#231f20;stroke-width:7.62135983;stroke-linecap:butt;stroke-linejoin:miter;stroke-miterlimit:2.61310005;stroke-dasharray:none;stroke-opacity:1" transform="matrix(.13333 0 0 -.13334 0 258.667)"></path><path d="m115.729 974.738 8.212-54.934 159.462 23.807-5.598 37.478-66.711-9.956-2.66 17.788M254.311 1149.85c2.352-4.12 3.149-9.31 2.403-15.61-.489-4.12-1.59-7.85-3.317-11.18-1.715-3.33-3.961-6-6.743-7.98M246.654 1115.08l-67.769 49.43 64.761-7.66M243.646 1156.85c4.778-.57 8.329-2.9 10.665-7M132.629 1132.92c-1.907 4.29-2.505 9.46-1.786 15.53.524 4.46 1.606 8.27 3.247 11.45 1.656 3.17 3.773 5.53 6.371 7.09M140.461 1166.99l67.988-49.13-67.156 7.95M141.293 1125.81q-5.789.675-8.664 7.11M272.746 1095.58l-5.157 3.17" style="fill:none;stroke:#231f20;stroke-width:7.62135983;stroke-linecap:butt;stroke-linejoin:miter;stroke-miterlimit:2.61310005;stroke-dasharray:none;stroke-opacity:1" transform="matrix(.13333 0 0 -.13334 0 258.667)"></path><path d="M267.589 1098.75q3.46 6.645 5.84 14.64c1.579 5.32 2.751 11.22 3.512 17.67 2.207 18.67.16 33.52-6.141 44.53-6.293 11.02-16.391 17.34-30.279 18.99M240.521 1194.58l-82.5 9.77M158.021 1204.35a39.1 39.1 0 0 1-11.345-.28c-3.695-.64-7.387-1.88-11.059-3.72M135.617 1200.35l-18.173 13.1-3.231-27.29 5.094-3.32M119.307 1182.84a74 74 0 0 1-5.988-14.37c-1.508-5.04-2.598-10.4-3.274-16.06-2.203-18.68-.34-33.69 5.598-45 5.954-11.33 15.267-17.74 27.935-19.24M143.578 1088.17l82.489-9.76M226.067 1078.41c5.442-.65 10.325-.7 14.646-.12 4.328.57 8.207 1.79 11.653 3.65M252.366 1081.94l17.184-13.41 3.196 27.05M286.231 1212.24l-148.665 63.14 13.294 31.31 107.842 6.88" style="fill:none;stroke:#231f20;stroke-width:7.62135983;stroke-linecap:butt;stroke-linejoin:miter;stroke-miterlimit:2.61310005;stroke-dasharray:none;stroke-opacity:1" transform="matrix(.13333 0 0 -.13334 0 258.667)"></path><path d="M258.702 1313.57c2.047.11 4.735.18 8.071.2 3.355.01 6.918-.04 10.7-.16-4.786.66-9.173 1.41-13.169 2.23-3.985.82-6.864 1.62-8.649 2.37" style="fill:none;stroke:#231f20;stroke-width:7.62135983;stroke-linecap:butt;stroke-linejoin:miter;stroke-miterlimit:2.61310005;stroke-dasharray:none;stroke-opacity:1" transform="matrix(.13333 0 0 -.13334 0 258.667)"></path><path d="m255.655 1318.21-84.634 35.95 14.032 33.03 148.665-63.13-14.036-33.03-100.33-8.04M219.352 1282.99q-.608-.12-1.914-.12c-6.801-.57-12.559-.72-17.274-.44 5.668-.94 10.375-1.8 14.114-2.6 3.762-.79 6.426-1.52 7.992-2.18M222.27 1277.65l77.716-33.01-13.755-32.4M310.447 1364.25l19.775 30.49M330.222 1394.74c6.84-4.59 13.047-6.49 18.645-5.69 5.594.78 10.891 4.31 15.884 10.55 4.348 5.44 6.762 10.75 7.25 15.92s-1.097 9.2-4.738 12.13c-6.59 5.26-21.533 4-44.831-3.8-1.805-.62-3.18-1.06-4.125-1.33-22.642-7.35-38.463-11.04-47.468-11.08-8.996-.04-16.61 2.44-22.845 7.42-8.895 7.11-12.809 17.55-11.727 31.31 1.086 13.76 6.77 27.08 17.064 39.95q15.012 18.78 32.99 24.06 17.983 5.265 33.763-4.5M320.084 1509.68l-20.563-31.2" style="fill:none;stroke:#231f20;stroke-width:7.62135983;stroke-linecap:butt;stroke-linejoin:miter;stroke-miterlimit:2.61310005;stroke-dasharray:none;stroke-opacity:1" transform="matrix(.13333 0 0 -.13334 0 258.667)"></path><path d="M299.521 1478.48c-6.036 3.95-11.29 5.62-15.779 5.04q-6.714-.885-13.043-8.79c-3.852-4.82-5.895-9.52-6.126-14.09-.226-4.58 1.442-8.28 4.997-11.13 7.383-5.91 24.443-4.18 51.163 5.18 1.109.29 1.973.55 2.598.79 19.665 6.72 33.962 10.02 42.893 9.88q13.391-.21 23.665-8.43c9.165-7.32 13.204-17.69 12.118-31.09-1.094-13.4-6.965-26.76-17.618-40.09-11.79-14.75-24.189-24.02-37.194-27.82-13.004-3.81-25.251-1.7-36.748 6.32M335.62 1575.18l30.498 22.27 38.752-53.04 30.815 22.51-38.756 53.04 30.81 22.51 95.138-130.24-30.81-22.51-42.464 58.14-30.81-22.51 42.459-58.14-30.493-22.27zM605.901 1569.79c-2.578-3.93-6.828-6.99-12.743-9.17-3.871-1.44-7.684-2.15-11.418-2.13-3.731 0-7.106.79-10.126 2.35M571.614 1560.84l13.145 82.42 22.533-60.84M607.292 1582.42q2.483-6.735-1.391-12.63M535.8 1669.93c2.929 3.63 7.246 6.5 12.953 8.62 4.192 1.55 8.071 2.32 11.626 2.3 3.555-.01 6.61-.83 9.161-2.44" style="fill:none;stroke:#231f20;stroke-width:7.62135983;stroke-linecap:butt;stroke-linejoin:miter;stroke-miterlimit:2.61310005;stroke-dasharray:none;stroke-opacity:1" transform="matrix(.13333 0 0 -.13334 0 258.667)"></path><path d="m569.54 1678.41-12.763-82.47-23.368 63.08" style="fill:none;stroke:#231f20;stroke-width:7.62135983;stroke-linecap:butt;stroke-linejoin:miter;stroke-miterlimit:2.61310005;stroke-dasharray:none;stroke-opacity:1" transform="matrix(.13333 0 0 -.13334 0 258.667)"></path><path d="M533.409 1659.02c-1.34 3.63-.547 7.26 2.391 10.91M566.227 1528.26l.445 6.17M566.672 1534.43c5.005-.1 10.247.36 15.716 1.35 5.469 1 11.255 2.62 17.353 4.89 17.637 6.53 29.915 15.13 36.849 25.84 6.915 10.7 7.927 22.66 3.036 35.9M639.626 1602.41l-28.697 77.5M610.929 1679.91c-1.352 3.62-3.149 6.93-5.403 9.92-2.254 2.97-5.031 5.68-8.348 8.09M597.178 1697.92l3.461 22.05-25.857-9.57-.672-6.03M574.11 1704.37a74.5 74.5 0 0 1-15.508-1.22q-7.771-1.44-15.782-4.41c-17.642-6.53-30.158-15.01-37.565-25.42-7.383-10.41-8.883-21.57-4.477-33.47M500.778 1639.85l28.701-77.5M529.479 1562.35q2.842-7.68 6.551-13.05c2.473-3.57 5.328-6.46 8.567-8.66" style="fill:none;stroke:#231f20;stroke-width:7.62135983;stroke-linecap:butt;stroke-linejoin:miter;stroke-miterlimit:2.61310005;stroke-dasharray:none;stroke-opacity:1" transform="matrix(.13333 0 0 -.13334 0 258.667)"></path><path d="m544.597 1540.64-3.883-21.83 25.513 9.45M658.525 1563.78l-3.555 24.48M654.97 1588.26c.567.08 1.528.16 2.895.24 2.387.22 3.953.4 4.735.51 6.297.92 11.004 2.74 14.098 5.5 3.098 2.76 4.328 6.35 3.696 10.76M680.394 1605.27l-.391 2.7-17.403 119.86 37.486 5.45 17.107-117.82M717.193 1615.46c2.09-14.44.046-25.61-6.13-33.54-6.18-7.92-16.676-12.95-31.466-15.09M679.597 1566.83l-21.072-3.05M881.678 1704.39l12.114-2.39M893.792 1702c8.743-1.73 14.72-4.65 17.927-8.79 3.203-4.13 4.067-9.94 2.59-17.44-1.371-6.95-4.348-11.95-8.914-15-4.567-3.06-10.274-3.92-17.115-2.57M888.28 1658.2l-15.137 2.99 8.535 43.2M868.627 1638.32l12.11-2.39M880.737 1635.93c9.817-1.95 16.458-5.15 19.923-9.63 3.453-4.49 4.336-11.05 2.629-19.68-1.539-7.77-4.528-13.09-8.973-15.95-4.45-2.87-10.684-3.5-18.704-1.92M875.612 1588.75l-16.15 3.19 9.165 46.38" style="fill:none;stroke:#231f20;stroke-width:7.62135983;stroke-linecap:butt;stroke-linejoin:miter;stroke-miterlimit:2.61310005;stroke-dasharray:none;stroke-opacity:1" transform="matrix(.13333 0 0 -.13334 0 258.667)"></path><path d="M873.131 1565.49c20.489-4.05 36.283-3.61 47.382 1.3 11.09 4.94 18.055 14.58 20.895 28.96 1.868 9.45 1.024 17.77-2.512 24.96-3.543 7.18-9.938 13.65-19.18 19.4q14.565 3.75 22.755 11.46c5.457 5.15 8.953 11.63 10.5 19.46 2.602 13.19-.812 24.46-10.25 33.83q-14.163 14.025-44.077 19.95" style="fill:none;stroke:#231f20;stroke-width:7.62135983;stroke-linecap:butt;stroke-linejoin:miter;stroke-miterlimit:2.61310005;stroke-dasharray:none;stroke-opacity:1" transform="matrix(.13333 0 0 -.13334 0 258.667)"></path><path d="m898.644 1724.81-49.296 9.73-31.24-158.19 55.023-10.86M1023.46 1535.48c-4.22-1.07-9.22-.14-15 2.78-5.77 2.92-9.486 6.4-11.135 10.42-1.652 4.03-1.222 8.53 1.297 13.53M998.622 1562.21l40.658 80.46M1039.28 1642.67c2.52 4.99 5.88 7.98 10.08 9 4.2 1.01 9.18.05 14.95-2.86 5.78-2.93 9.5-6.37 11.18-10.35s1.26-8.46-1.26-13.45M1074.23 1625.01l-40.66-80.46" style="fill:none;stroke:#231f20;stroke-width:7.62135983;stroke-linecap:butt;stroke-linejoin:miter;stroke-miterlimit:2.61310005;stroke-dasharray:none;stroke-opacity:1" transform="matrix(.13333 0 0 -.13334 0 258.667)"></path><path d="M1033.57 1544.55c-2.52-4.98-5.89-8.01-10.11-9.07" style="fill:none;stroke:#231f20;stroke-width:7.62135983;stroke-linecap:butt;stroke-linejoin:miter;stroke-miterlimit:2.61310005;stroke-dasharray:none;stroke-opacity:1" transform="matrix(.13333 0 0 -.13334 0 258.667)"></path><path d="M966.628 1584.89c-6.633-13.14-7.219-25.33-1.754-36.59 5.473-11.25 16.685-21.16 33.647-29.73 16.759-8.47 31.399-11.6 43.939-9.37 12.53 2.23 21.99 9.66 28.37 22.27M1070.83 1531.47l37.33 73.9M1108.16 1605.37c5.79 11.46 5.75 22.81-.11 34.04-5.86 11.24-16.66 20.83-32.4 28.79-16.66 8.41-31.33 11.79-44.03 10.12s-21.91-8.18-27.65-19.53M1003.97 1658.79l-37.342-73.9M1072.33 1479.33l105.35 122.3 28.59-24.62-90.3-104.83 44.79-38.58-15.05-17.47zM1287.96 1455.1l5.03-7.15M1292.99 1447.95c6.05-8.59 9.24-15.78 9.56-21.57.3-5.78-2.24-10.57-7.64-14.38M1294.91 1412l-63.59-44.78M1231.32 1367.22c-4.76-3.35-9.18-4.48-13.29-3.39s-8.11 4.38-11.99 9.9M1206.04 1373.73l-11.15 15.83 93.07 65.54M1185.97 1361.06c12-17.03 23.65-27.4 34.97-31.13q16.98-5.58 36.24 7.98M1257.18 1337.91l58.98 41.54M1316.16 1379.45c12.43 8.75 18.72 19.34 18.85 31.76.14 12.42-5.82 27.19-17.88 44.32" style="fill:none;stroke:#231f20;stroke-width:7.62135983;stroke-linecap:butt;stroke-linejoin:miter;stroke-miterlimit:2.61310005;stroke-dasharray:none;stroke-opacity:1" transform="matrix(.13333 0 0 -.13334 0 258.667)"></path><path d="m1317.13 1455.53-31.17 44.26-132.15-93.06 32.16-45.67M1230.29 1290.1l151.84 54.23 12.71-35.58-64.11-22.89M1330.73 1285.86c2.84-.2 5.21-.41 7.12-.66 1.89-.23 3.38-.52 4.48-.87M1342.33 1284.33l67.09-16.4 12.78-35.8-66.23 21.64-83.93-80.57-13.41 37.58 65.43 57.72-22.1 7.08-58.96-21.06-12.71 35.58M1270.57 1162.73l160.73 16.4 3.84-37.49-137.87-14.06 6.03-59.09-22.87-2.33zM1440.84 1034.72l-5.59-38.756-123.75 17.846M1311.5 1013.81c-4.73.68-8.74-.62-12.04-3.93-3.29-3.28-5.38-7.95-6.25-13.979q-1.305-9.018 2.1-14.749c2.27-3.805 5.77-6.047 10.51-6.73" style="fill:none;stroke:#231f20;stroke-width:7.62135983;stroke-linecap:butt;stroke-linejoin:miter;stroke-miterlimit:2.61310005;stroke-dasharray:none;stroke-opacity:1" transform="matrix(.13333 0 0 -.13334 0 258.667)"></path><path d="m1305.82 974.422 123.74-17.847-5.48-38.119-119.52 17.234" style="fill:none;stroke:#231f20;stroke-width:7.62135983;stroke-linecap:butt;stroke-linejoin:miter;stroke-miterlimit:2.61310005;stroke-dasharray:none;stroke-opacity:1" transform="matrix(.13333 0 0 -.13334 0 258.667)"></path><path d="M1304.56 935.69c-14.14 2.043-24.24 8.605-30.33 19.674-6.07 11.09-7.76 25.948-5.07 44.588 2.72 18.878 8.6 32.758 17.6 41.668 9.01 8.92 20.76 12.32 35.24 10.23M1322 1051.85l118.84-17.13M1366.81 826.293l-4.94-11.065M1361.87 815.228c-3.58-7.996-7.7-13.066-12.39-15.218q-7.035-3.207-17.46 1.437c-6.44 2.883-10.65 6.84-12.63 11.894-1.98 5.07-1.57 10.722 1.22 16.976M1320.61 830.317l6.18 13.835 40.02-17.859M1305.82 853.503l-4.94-11.066M1300.88 842.437c-4.04-9.054-8.65-14.733-13.83-17.054q-7.77-3.457-20.01 1.996c-7.33 3.274-11.93 7.394-13.8 12.347-1.87 4.973-1.14 11.156 2.15 18.562" style="fill:none;stroke:#231f20;stroke-width:7.62135983;stroke-linecap:butt;stroke-linejoin:miter;stroke-miterlimit:2.61310005;stroke-dasharray:none;stroke-opacity:1" transform="matrix(.13333 0 0 -.13334 0 258.667)"></path><path d="m1255.39 858.288 6.59 14.761 43.84-19.546M1233.61 865.795c-8.5-19.073-11.59-34.568-9.24-46.489 2.34-11.91 10.22-20.866 23.62-26.85 8.83-3.934 17.16-4.965 24.96-3.098 7.82 1.887 15.58 6.711 23.28 14.495.28-10.007 2.32-18.237 6.12-24.701 3.79-6.441 9.33-11.285 16.61-14.539 12.29-5.48 24.03-4.687 35.23 2.371 11.19 7.074 20.9 19.831 29.14 38.295" style="fill:none;stroke:#231f20;stroke-width:7.62135983;stroke-linecap:butt;stroke-linejoin:miter;stroke-miterlimit:2.61310005;stroke-dasharray:none;stroke-opacity:1" transform="matrix(.13333 0 0 -.13334 0 258.667)"></path><path d="m1383.33 805.279 20.38 45.685-147.39 65.742-22.71-50.911M538.878 584.791l5.918 15.246M544.796 600.037c9.907-1.426 18.661-1.891 26.287-1.407 7.606.489 14.344 2.004 20.212 4.567" style="fill:none;stroke:#231f20;stroke-width:7.62135983;stroke-linecap:butt;stroke-linejoin:miter;stroke-miterlimit:2.61310005;stroke-dasharray:none;stroke-opacity:1" transform="matrix(.13333 0 0 -.13334 0 258.667)"></path><path d="m591.295 603.197 23.552-9.141-58.456-150.573-34.94 13.569 45.382 116.9-27.955 10.839M707.243 496.371c-3.614-1.114-7.614-1.352-12.013-.735q-9.467 1.307-13.403 6.562c-2.617 3.504-3.5 8.398-2.629 14.671M679.198 516.869l3.079 22.206M682.277 539.075c.734 5.262 2.898 9.074 6.512 11.437 3.594 2.359 8.387 3.125 14.364 2.301 6.207-.864 10.926-2.856 14.184-5.996q4.853-4.7 3.934-11.437M721.271 535.38l-4.567-32.951" style="fill:none;stroke:#231f20;stroke-width:7.62135983;stroke-linecap:butt;stroke-linejoin:miter;stroke-miterlimit:2.61310005;stroke-dasharray:none;stroke-opacity:1" transform="matrix(.13333 0 0 -.13334 0 258.667)"></path><path d="M716.704 502.429c-2.711-2.941-5.867-4.957-9.461-6.058M643.907 425.851c8.966-8.687 21.912-14.206 38.827-16.55 18.047-2.5 32.626-.91 43.768 4.754 11.117 5.691 17.548 14.815 19.294 27.401M745.796 441.456l11.368 81.936" style="fill:none;stroke:#231f20;stroke-width:7.62135983;stroke-linecap:butt;stroke-linejoin:miter;stroke-miterlimit:2.61310005;stroke-dasharray:none;stroke-opacity:1" transform="matrix(.13333 0 0 -.13334 0 258.667)"></path><path d="M757.164 523.392c1.984 14.394-1.282 26.058-9.81 34.983-8.535 8.921-21.876 14.651-40.033 17.171-19.396 2.679-34.576.394-45.514-6.867-10.958-7.269-17.622-19.448-19.99-36.56-2.266-16.343.067-29.237 6.997-38.69 6.93-9.444 18.305-15.272 34.138-17.471 5.54-.77 10.81-.723 15.845.152q7.52 1.305 14.938 4.961M713.735 481.071l-5.492-39.623M708.243 441.448c-.516-3.754-2.778-6.562-6.77-8.441-4-1.875-8.762-2.43-14.282-1.656-5.879.812-10.426 2.629-13.649 5.449-3.247 2.816-4.587 6.156-4.051 10.019M669.491 446.819l1.488 10.726-37.225 5.163-.687-4.945M633.067 457.763c-1.746-12.585 1.859-23.229 10.84-31.912M780.731 528.705l-1.453 15.886M779.278 544.591c9.524 3.195 17.575 6.761 24.173 10.69q9.875 5.896 16.04 13.461" style="fill:none;stroke:#231f20;stroke-width:7.62135983;stroke-linecap:butt;stroke-linejoin:miter;stroke-miterlimit:2.61310005;stroke-dasharray:none;stroke-opacity:1" transform="matrix(.13333 0 0 -.13334 0 258.667)" data-source="https://football-logos.cc"></path><path d="m819.491 568.742 25.275 2.304L859.4 410.309l-37.487-3.414-11.325 124.52-29.857-2.71M970.515 523.822q-4.061-3.93-10.332-6.015c-6.012-2.016-10.966-1.996-14.868.051-3.915 2.042-6.891 6.144-8.934 12.292M936.381 530.15l-7.259 21.698M929.122 551.848c-1.726 5.152-1.527 9.609.625 13.37q3.205 5.643 11.735 8.496c5.899 1.969 11.001 2.246 15.298.816 4.29-1.429 7.165-4.332 8.634-8.714M965.414 565.816l10.781-32.233M976.195 533.583c-1.082-3.894-2.98-7.148-5.68-9.761M945.354 433.222c11.832-3.711 25.837-2.859 42.006 2.55 17.24 5.77 29.6 13.621 37.06 23.55 7.47 9.925 9.2 20.827 5.23 32.717M1029.65 492.039l-26.41 78.937" style="fill:none;stroke:#231f20;stroke-width:7.62135983;stroke-linecap:butt;stroke-linejoin:miter;stroke-miterlimit:2.61310005;stroke-dasharray:none;stroke-opacity:1" transform="matrix(.13333 0 0 -.13334 0 258.667)"></path><path d="M1003.24 570.976c-4.621 13.839-12.739 22.873-24.326 27.1-11.602 4.226-26.075 3.445-43.428-2.352-18.532-6.206-31.08-15.011-37.635-26.416q-9.825-17.108-1.555-41.81 7.894-23.588 23.435-31.745c10.364-5.452 23.084-5.663 38.127-.617q7.891 2.633 14.036 7.094 6.125 4.452 11.13 10.933M983.024 513.163l12.665-37.862M995.689 475.301c1.183-3.542.41-7.027-2.321-10.44-2.742-3.426-6.731-6.016-11.981-7.773-5.578-1.867-10.434-2.262-14.532-1.192q-6.176 1.607-8.012 7.086M958.843 462.982l-3.391 10.155-35.393-11.843 1.559-4.675" style="fill:none;stroke:#231f20;stroke-width:7.62135983;stroke-linecap:butt;stroke-linejoin:miter;stroke-miterlimit:2.61310005;stroke-dasharray:none;stroke-opacity:1" transform="matrix(.13333 0 0 -.13334 0 258.667)"></path><path d="M921.618 456.619c3.969-11.89 11.884-19.687 23.736-23.397M368.775 627.469c11.907 0 21.563 9.655 21.563 21.565 0 11.909-9.656 21.561-21.563 21.561s-21.564-9.652-21.564-21.561 9.657-21.565 21.564-21.565M1181.97 627.469c11.91 0 21.57 9.655 21.57 21.565 0 11.909-9.66 21.561-21.57 21.561-11.9 0-21.56-9.652-21.56-21.561s9.66-21.565 21.56-21.565" style="fill:none;stroke:#231f20;stroke-width:7.62135983;stroke-linecap:butt;stroke-linejoin:miter;stroke-miterlimit:2.61310005;stroke-dasharray:none;stroke-opacity:1" transform="matrix(.13333 0 0 -.13334 0 258.667)"></path><path d="m1216.7 710.027 177.89-35.58M1394.59 674.447s-63.53-109.272-188.9-199.911c0 0-88.94 87.249-83.01 155.862 0 0-1.7 79.629 94.02 79.629" style="fill:none;stroke:#fff;stroke-width:15.24269962;stroke-linecap:butt;stroke-linejoin:miter;stroke-miterlimit:2.61310005;stroke-dasharray:none;stroke-opacity:1" transform="matrix(.13333 0 0 -.13334 0 258.667)"></path><path d="M1127.34 635.058 875.752 754.497l263.018-90.214" style="fill:none;stroke:#fff;stroke-width:15.24269962;stroke-linecap:butt;stroke-linejoin:miter;stroke-miterlimit:2.61310005;stroke-dasharray:none;stroke-opacity:1" transform="matrix(.13333 0 0 -.13334 0 258.667)"></path><path d="M1138.77 664.283s10.17-7.625 12.71-15.249-3.81-15.249-24.14-13.976" style="fill:none;stroke:#fff;stroke-width:15.24269962;stroke-linecap:butt;stroke-linejoin:miter;stroke-miterlimit:2.61310005;stroke-dasharray:none;stroke-opacity:1" transform="matrix(.13333 0 0 -.13334 0 258.667)"></path><path d="m872.848 747.551-71.789 39.07 82.906-27z" style="fill:#fff;fill-opacity:1;fill-rule:evenodd;stroke:none" transform="matrix(.13333 0 0 -.13333 0 258.667)"></path><path d="M1426.57 732.26s-52.1 56.543-54.85 165.815c0 0 7.62 107.575 93.18 107.575 0 0 19.48 1.7 41.08-12.913M1505.98 992.737l-79.41-260.477" style="fill:none;stroke:#fff;stroke-width:15.24269962;stroke-linecap:butt;stroke-linejoin:miter;stroke-miterlimit:2.61310005;stroke-dasharray:none;stroke-opacity:1" transform="matrix(.13333 0 0 -.13334 0 258.667)"></path><path d="M1428.39 298.996s-43.83.633-59.08-10.805c0 0-7.62-13.339-8.89-36.847l20.33-17.156 8.26 7.625s12.7-3.813 15.24-21.602c0 0 36.21-29.227 54-34.309 0 0 6.36.633 6.99 7.625 0 0 .64 3.176 14.61 3.176 0 0 16.52 6.988-5.72 34.945 0 0-7.62 11.434-21.59 4.446 0 0-7.63-8.258-5.72-20.332 0 0-3.82-8.258-8.89 2.543 0 0 1.9 1.269 1.9 8.261 0 0-6.35 11.434-13.98 13.34 0 0-1.27 3.813 6.99 8.895 0 0 8.89 13.34.64 26.051 0 0-1.27 4.445 5.72 12.707l-.64 11.437z" style="fill:#231f20;fill-opacity:1;fill-rule:evenodd;stroke:none" transform="matrix(.13333 0 0 -.13333 0 258.667)"></path><path d="M1535.96 627.891s-164.32 105.89-164.32 270.234c0 0 7.63 107.585 93.18 107.585 0 0 55.9 0 83.86-66.077 0 0 35.57 77.937 105.03 77.937 0 0 76.23-2.54 80.46-105.89 0 0-.84-219.407 9.32-243.973 10.17-24.566-1.69-128.766-1.69-128.766l-174.49 8.473z" style="fill:#fff;fill-opacity:1;fill-rule:evenodd;stroke:none" transform="matrix(.13333 0 0 -.13333 0 258.667)"></path><path d="M1536.05 627.855s-164.33 105.885-164.33 270.22c0 0 7.62 107.575 93.18 107.575 0 0 55.91 0 83.86-66.07 0 0 35.58 77.93 105.04 77.93 0 0 76.23-2.54 80.47-105.881 0 0-.84-219.394 9.32-243.959s-1.7-128.759-1.7-128.759l-174.49 8.472z" style="fill:none;stroke:#231f20;stroke-width:7.62135983;stroke-linecap:butt;stroke-linejoin:miter;stroke-miterlimit:2.61310005;stroke-dasharray:none;stroke-opacity:1" transform="matrix(.13333 0 0 -.13334 0 258.667)"></path><path d="m1518.18 425.426-2.54-60.988s-2.54-15.25-14.4-22.875l8.47 1.691s-11.86-27.106-43.2-28.801c0 0-8.47-4.234-25.41 8.473v-13.555s10.17-5.082 6.78-33.039l14.39-11.012s8.48.848 6.78 22.024l7.62 5.933 5.09-8.472 2.54 9.32 7.62 4.234 5.08-8.472 6.78 8.472 6.77-2.543.85 7.625h9.32s3.39 18.637 5.08 20.329l5.93-5.926s-3.39 6.773-1.69 15.246c0 0 17.79 5.93 31.34-1.695 0 0 5.93-88.946-39.81-109.278 0 0-32.19-9.32-39.81-43.203l1.69-11.016 30.5-15.246 6.77 3.391s19.48-3.391 25.41-16.098c0 0 12.71-20.332 60.99-11.859 0 0 23.72 31.344-11.86 49.98 0 0-6.78 2.539-13.55-2.543 0 0-3.39-11.011-13.56-5.082l-2.54 11.012-12.7.848v9.32l9.32 2.543-.85 5.93-8.47 1.695v5.926l14.4-.844 5.08-12.707s10.16 5.93 12.71 17.785l-22.87 5.93 5.92 22.027 6.78-5.929.85 24.566 10.16-5.082-4.23 17.789-.85 16.094 10.16-9.317-4.23 20.332 8.47-4.234-3.39 12.707s-5.08 22.023-8.47 24.563c-3.39 2.543-8.47 7.625-7.62 10.168s9.32-2.543 9.32-2.543v9.32s-14.4-.848-16.1 10.164c-1.69 11.012 8.47 10.164 14.4 11.012 5.93.847 7.62-18.633 7.62-18.633l5.09 9.316s6.77-2.539 8.46-23.722c1.7-21.176 6.79 14.406 6.79 14.406s6.77-.848 8.46-11.016c0 0-1.69-5.929 9.32-11.012 0 0 6.78-4.238 5.93-11.011 0 0 0-6.778 11.86-7.625 0 0-1.7-11.86 9.32-12.707 0 0-7.62-5.93 0-13.555 0 0 2.54-9.32 11.01-10.168 0 0 2.54-37.273-32.19-64.379 0 0-16.09-13.555-16.09-33.039 0 0 1.69-14.402 13.55-30.496l1.69-9.32 33.88-5.082 1.7 9.32 18.63-1.695 5.93-9.321 40.66-5.082s16.1-2.543 22.02 5.93c0 0 3.39 0-1.69 11.016 0 0 .85 8.472 5.93 13.554 0 0 15.25 19.481-22.87 28.801 0 0-5.93 1.692-22.87-5.082 0 0-17.79-8.473-18.64 11.859 0 0 3.39 9.321 6.78 13.555 0 0 10.16 11.86-10.16 23.715l-4.24 30.5 10.17-5.082-6.78 21.176 7.62 2.543-10.16 5.082-.85 14.402 6.77-4.234-10.16 15.246s-31.34 49.137-85.55 72.008l-.85 16.093s7.63-1.691 11.87-5.082c0 0 11-7.625 20.32-7.625 0 0 11.86-6.777 17.79-6.777 0 0 34.73-16.941 51.67-18.633l40.66 155.871s4.23 19.481 9.32 20.328l-14.41 6.778s-21.17 1.695-27.1 4.234c0 0 2.54 14.406-16.09 14.406 0 0-.85 9.317-7.63 10.164 0 0 0 11.86-7.62 13.551 0 0-7.63-.847-11.86-10.164 0 0-6.78.848-9.32 5.082l-2.54 5.082s-4.23-3.387-7.62-5.082c0 0-12.71 0-21.18 11.86 0 0-5.93-4.235-6.77-12.707l-11.02 6.777s-7.62-4.235-9.31-11.012z" style="fill:#231f20;fill-opacity:1;fill-rule:evenodd;stroke:none" transform="matrix(.13333 0 0 -.13333 0 258.667)"></path><path d="M1834.34 530.262s30.49-2.543 55.9 24.777c0 0 19.06 7.625 8.26 30.496 0 0-18.43 44.473-20.97 66.078 0 0 .64 17.153-14.61 27.953 0 0-9.53 11.434-2.54 26.688 0 0 13.98 33.035-5.08 48.922 0 0-6.35 5.078-15.88 1.269 0 0-5.08-4.449 7.62-8.261 0 0 9.53 0 9.53-24.141 0 0 1.91-19.695-13.98-24.781 0 0-10.16 11.437-41.29 15.246 0 0 0 53.371-34.3 52.101 0 0-8.26-8.257 1.9-10.164 0 0 15.89 4.446 20.97-26.683v-15.887S1749.84 691 1734.6 665.59l-26.69-.637s-28.58-6.988-31.12-36.215c0 0 3.17-50.828 57.17-72.429l2.54-22.871s36.85 3.808 56.54 2.539c0 0 11.44-1.903 41.3-5.715" style="fill:#231f20;fill-opacity:1;fill-rule:evenodd;stroke:none" transform="matrix(.13333 0 0 -.13333 0 258.667)"></path><path d="M1826.08 596.336s-68.61-22.871-94.66 5.719c0 0-22.87 34.308-29.86 5.086 0 0 8.9-35.582 47.65-36.852 0 0 16.52-1.91 74.33 21.598z" style="fill:#fff;fill-opacity:1;fill-rule:evenodd;stroke:none" transform="matrix(.13333 0 0 -.13333 0 258.667)"></path><path d="m1733.33 625.563 16.51-16.52s7.63-5.082 4.45 4.449l-8.26 8.258s1.27 10.168-10.16 11.438c0 0-5.72 0-2.54-7.625M1770.17 678.934s11.44-1.907 13.98-.637c2.54 1.269 0 6.988-6.99 6.351-6.99-.632-4.45-1.902-6.99-5.714" style="fill:#fff;fill-opacity:1;fill-rule:evenodd;stroke:none" transform="matrix(.13333 0 0 -.13333 0 258.667)"></path><path d="m1814.75 663.014 8.25-7.625" style="fill:none;stroke:#fff;stroke-width:15.24269962;stroke-linecap:butt;stroke-linejoin:miter;stroke-miterlimit:2.61310005;stroke-dasharray:none;stroke-opacity:1" transform="matrix(.13333 0 0 -.13334 0 258.667)"></path><path d="M1751.75 649.07s6.99-2.543 6.99 5.719c0 0 1.27 5.719-7.62 5.082 0 0-.64 9.531 10.16 9.531 0 0 12.7.633 12.07-12.707 0 0 1.27-16.519-12.07-16.519 0 0-9.53-4.446-9.53 8.894M1782.88 624.926s10.16-2.539 11.43 9.535c0 0 0 6.984-8.89 6.984 0 0-1.27 7.625 11.44 8.262 0 0 12.7.633 12.06-14.613 0 0 3.81-16.52-15.24-16.52 0 0-10.17-3.179-10.8 6.352M1571.33 394.297s6.35-5.082 14.61-5.719c0 0 7.63 7.625 0 12.07 0 0-6.35 5.082-12.71 4.45 0 0-5.71-5.082-1.9-10.801M1546.55 380.32s12.08-9.531 14.62-8.898c0 0 7.62-3.176 4.44 11.437 0 0-4.44 6.989-11.43 9.532 0 0-11.44 1.269-7.63-12.071M1525.59 375.871s1.91-24.141 8.89-33.039c0 0 1.91-4.445 9.53-3.176 0 0 13.35 5.719-6.98 38.754 0 0-8.26 6.356-11.44-2.539M1380.75 265.953l24.14-20.328.63 8.258-22.23 25.414zM1508.44 176.371s20.96-13.344 34.94-16.516c0 0 15.88-3.179 26.05-10.804 0 0 12.07-2.543 7.62 7.625 0 0-8.26 8.894-31.76 10.168 0 0-16.52 1.269-28.59 20.965 0 0-6.35 6.988-14.61 1.269 0 0-5.72-8.894 6.35-12.707" style="fill:#fff;fill-opacity:1;fill-rule:evenodd;stroke:none" transform="matrix(.13333 0 0 -.13333 0 258.667)"></path><path d="M1651.26 608.376s-117.75 123.669-118.6 249.888c0 0 3.39 61.837 16.1 83.859M1564.01 895.532l112.66-214.309" style="fill:none;stroke:#231f20;stroke-width:7.62135983;stroke-linecap:butt;stroke-linejoin:miter;stroke-miterlimit:2.61310005;stroke-dasharray:none;stroke-opacity:1" transform="matrix(.13333 0 0 -.13334 0 258.667)"></path><path d="m1586.88 161.116 1.69-7.625" style="fill:none;stroke:#fff;stroke-width:15.24269962;stroke-linecap:butt;stroke-linejoin:miter;stroke-miterlimit:2.61310005;stroke-dasharray:none;stroke-opacity:1" transform="matrix(.13333 0 0 -.13334 0 258.667)"></path><path d="M1594.41 163.664s5.08-6.777 7.63-8.469c0 0 3.38 8.469-.85 9.317 0 0-5.93 5.082-6.78-.848M1635.07 161.125s16.94-15.25 38.12-13.555c0 0 5.93 8.473-4.24 9.317 0 0-22.02 5.929-27.95 12.707 0 0-6.78 3.39-5.93-8.469M1696.9 148.418s11.86 4.234 12.71 7.625c0 0-4.23 6.773-11.86 3.387 0 0-10.16-5.082-.85-11.012" style="fill:#fff;fill-opacity:1;fill-rule:evenodd;stroke:none" transform="matrix(.13333 0 0 -.13333 0 258.667)"></path><path d="m1722.41 161.96 2.54-3.387" style="fill:none;stroke:#fff;stroke-width:15.24269962;stroke-linecap:butt;stroke-linejoin:miter;stroke-miterlimit:2.61310005;stroke-dasharray:none;stroke-opacity:1" transform="matrix(.13333 0 0 -.13334 0 258.667)"></path><path d="M1737.56 156.887s9.32-5.082 15.25 1.695c0 0 0 11.859-11.01 12.707 0 0-10.17 0-4.24-14.402M1681.66 173.828s5.08 2.543 5.08 6.777c0 0-3.39 5.93-6.78 5.93 0 0-5.92-4.234 1.7-12.707M1681.66 196.703s5.08 1.695 6.77 5.086c0 0-4.23 5.926-8.47 4.231 0 0-1.69-6.774 1.7-9.317M1675.73 214.492s5.93-3.387 15.24 2.543c0 0-4.23 8.469-12.7 8.469 0 0-9.32.848-15.25-5.93 0 0 2.54-5.082 12.71-5.082" style="fill:#fff;fill-opacity:1;fill-rule:evenodd;stroke:none" transform="matrix(.13333 0 0 -.13333 0 258.667)"></path><path d="M1878.67 464.047c21.47-35.012 18.66-88.934-6.1-121.504-26.35-36.473-67.82-52.82-111.86-46.598-37.68 5.731-76.35 36.961-87.82 74.168-15.85 44.528-2.8 93.567 32.81 124.43 30.62 27.937 81.37 35.742 119.42 18.055 20.98-9.149 42.57-27.45 53.55-48.551" style="fill:#231f20;fill-opacity:1;fill-rule:evenodd;stroke:none" transform="matrix(.13333 0 0 -.13333 0 258.667)"></path><path d="M1877.45 459.656c19.03-33.183 15.98-82.953-6.35-113.574-25.24-36.352-65.13-52.578-108.06-47.207-39.16 4.879-78.07 38.305-88.68 76.484-12.93 44.649 1.1 91.129 37.44 120.039 30.62 24.883 79.77 30.497 115.39 12.567 20.37-9.274 39.89-28.305 50.26-48.309" style="fill:#fff;fill-opacity:1;fill-rule:evenodd;stroke:none" transform="matrix(.13333 0 0 -.13333 0 258.667)"></path><path d="M1751.57 512.109v-2.07c-3.42-.734-6.1-3.418-9.88-3.297-.73.856-1.95 1.707-1.22 2.684 3.29 1.832 6.83 2.929 10.61 3.539zM1755.96 495.641c5.12-7.563 12.2-14.758 21.47-15.493 3.05-4.023-1.47-7.804-2.08-11.707-12.8 6.219-30.85 5-42.81-2.32-4.63-1.34-8.78-11.101-14.03-4.148v1.218c10.49 11.711 19.76 23.911 22.81 38.672 2.93 2.075 6.34 2.93 9.76 3.782 3.66-2.317 3.29-6.711 4.88-10.004M1861.1 479.906c5.74-6.832 10.86-13.906 13.42-21.961-1.83-1.34-2.81 2.442-4.03 0-6.46.493-12.07-.73-17.56-2.437-2.56 4.879-5.61 9.883-6.47 15.004 4.64 1.832 8.06 6.711 9.03 11.343 2.08.977 5.86 1.586 5.61-1.949M1840 467.828l1.22-.246c1.58-5 5.61-9.269 6.1-14.394-13.91-6.219-24.03-20.86-26.59-35.133-.25-.731-.98-1.094-1.47-1.707-5.24.734-10.24 1.953-15.49 2.316.61 18.422-5.73 36.234-21.71 46.602-.61 3.785 3.3 6.468 4.39 9.882l1.47.856c15.12-7.93 34.27-11.106 52.08-8.176M1718.27 455.02c-.36-4.395-4.39-7.196-5.61-11.223-6.1-13.539-5.25-32.57 2.68-45.016-3.17-2.437-6.1-7.929-10.25-7.074-6.09 9.758-13.41 21.594-24.63 26.348-.73 4.027-1.47 9.519 1.83 12.566 12.44 3.781 22.93 15.859 30.12 26.715 1.95-.731 4.27-.731 5.86-2.316M1676.43 428.668c-.85-3.535-.73-7.441-2.44-10.613-.49-.121-.73.246-1.1.609-.24-.363-.6-.242-.85-.242-1.47 3.293.73 6.711.85 10.246.49 1.469 3.06 1.469 3.54 0M1818.04 411.957c2.2-4.027 1.71-9.269 2.69-13.785 2.44-11.102 9.15-21.715 19.27-28.422-3.9-5.98-8.66-11.957-13.78-17.203-4.15-.488-7.32 3.297-11.35 4.027-10.97 3.172-23.54 4.149-34.51.364l-2.08.246c-2.93 6.222-4.88 12.687-7.32 19.031 14.4 5.367 29.64 19.762 32.81 35.742l1.71 1.098zM1728.15 382.926c10-6.102 21.83-8.785 34.27-7.93 3.3-1.59 3.17-5.613 4.76-8.418.98-4.027 2.8-8.422 2.93-12.078-1.71-.852-4.27-.488-6.22-1.465-9.39-4.512-19.76-9.515-25.98-19.273-5.61 1.097-10.25 4.636-15.25 7.074 2.2 15.492-4.88 29.523-13.18 41.844v1.707l8.43 6.222c4.14-.976 6.7-5.492 10.24-7.683M1872.2 362.184c1.83-.364 1.83-2.805.85-3.778-9.26-15.254-24.02-30.867-39.76-39.281-2.93 2.07.61 5.242.25 8.172.85 7.199-.98 13.297-2.93 19.398l.98 2.926c5.24 4.512 9.27 10.125 13.41 15.492l1.71.856c7.81-3.051 16.59-4.516 25.49-3.785M1735.84 330.59c-.13-7.688 5-13.176 9.87-18.789 3.05-2.438 7.32-3.781 9.4-6.465l-.61-.609c-19.76 4.882-37.09 15.375-52.7 30.5 0 .73.12 1.707.98 1.707 5.49-2.563 12.56-1.586 17.81 1.464 5.61-1.343 10.12-5.246 15.25-7.808" style="fill:#231f20;fill-opacity:1;fill-rule:evenodd;stroke:none" transform="matrix(.13333 0 0 -.13333 0 258.667)"></path><path d="M1652.01 440.676s-4.23-49.133 36.42-61.84c0 0 5.09-5.93 8.47 5.082 0 0 4.24 10.168-8.47 14.402 0 0-7.62 2.543 2.54 5.082 0 0 6.78-4.234 16.1-3.386 0 0 11.01-1.696 9.32 11.859 0 0-5.93 11.012-16.94 12.707 0 0-7.63.844.84 2.539 0 0 16.94-1.695 27.11 4.234 0 0 0 14.403-8.47 16.946 0 0-15.25 1.695-21.18 0 0 0-8.47-.848 1.7 5.929 0 0 .84-.843 22.02 1.696 0 0 11.86-.848 14.4 8.469 0 0-4.24 13.554-19.48 12.707 0 0-16.94 3.386-30.5-10.164 0 0 24.57 20.328 22.02 31.343 0 0-2.53 9.321-11.01 8.473 0 0-47.43-16.098-44.89-66.078" style="fill:#fff;fill-opacity:1;fill-rule:evenodd;stroke:none" transform="matrix(.13333 0 0 -.13333 0 258.667)"></path><path d="M1652.1 440.651s-4.23-49.13 36.43-61.836c0 0 5.08-5.93 8.47 5.081 0 0 4.23 10.168-8.47 14.402 0 0-7.62 2.543 2.54 5.082 0 0 6.78-4.234 16.09-3.387 0 0 11.02-1.695 9.32 11.859 0 0-5.93 11.011-16.94 12.706 0 0-7.62.844.85 2.539 0 0 16.94-1.695 27.11 4.234 0 0 0 14.402-8.48 16.945 0 0-15.24 1.695-21.17 0 0 0-8.47-.848 1.69 5.929 0 0 .85-.844 22.03 1.695 0 0 11.86-.847 14.39 8.468 0 0-4.23 13.554-19.48 12.707 0 0-16.94 3.386-30.49-10.164 0 0 24.56 20.327 22.02 31.342 0 0-2.54 9.32-11.01 8.472 0 0-47.44-16.096-44.9-66.074zM1824.91 261.493s22.87 3.812 34.3 21.6M1836.34 233.538s29.23 12.71 39.39 27.955M1814.75 280.551s22.86 5.081 33.03 21.604M1765.19 222.105s16.52-12.707 19.06-29.225M1758.84 200.504s15.24-8.894 17.79-22.873M1375.1 359.331s30.5-10.163 52.11-11.433M1371.3 337.731s5.08-11.437 39.38-7.625M1325.55 314.861l16.52 15.245M1347.15 294.53l16.52 19.058" style="fill:none;stroke:#231f20;stroke-width:7.62135983;stroke-linecap:butt;stroke-linejoin:miter;stroke-miterlimit:2.61310005;stroke-dasharray:none;stroke-opacity:1" transform="matrix(.13333 0 0 -.13334 0 258.667)"></path><path d="m1216.63 710.066 288.84-64.386s38.12-5.93 83.01-63.535c0 0 20.33-16.094 20.33-75.391 0 0-8.47-134.695-159.24-134.695 0 0-122.82-13.555-243.94 102.504 0 0-88.95 87.253-83.02 155.871 0 0-1.69 79.632 94.02 79.632" style="fill:#231f20;fill-opacity:1;fill-rule:evenodd;stroke:none" transform="matrix(.13333 0 0 -.13333 0 258.667)"></path><path d="M1194.61 650.766s-6.77-45.746-39.81-44.899c0 0-29.64-1.695-28.8 34.731 0 0 5.09 47.437 40.66 48.285 0 0 29.64 0 27.95-38.117M1250.52 693.121s77.92-5.086 77.08-68.617c0 0-.85-114.363-115.2-115.211 0 0-42.35-7.621-60.99 49.137 0 0 110.97-18.641 113.5 82.168 0 0 3.39 24.566-14.39 52.523" style="fill:#fff200;fill-opacity:1;fill-rule:evenodd;stroke:none" transform="matrix(.13333 0 0 -.13333 0 258.667)"></path><path d="M1127.27 635.094 875.703 754.539l263.007-90.219s10.16-7.625 12.7-15.25c2.55-7.625-3.81-15.25-24.14-13.976" style="fill:#231f20;fill-opacity:1;fill-rule:evenodd;stroke:none" transform="matrix(.13333 0 0 -.13333 0 258.667)"></path><path d="m984.969 713.875 153.741-55.91s10.22-3.027 8.89-11.438c-1.27-8.047-6.78-7.621-13.97-6.351z" style="fill:#fff;fill-opacity:1;fill-rule:evenodd;stroke:none" transform="matrix(.13333 0 0 -.13333 0 258.667)"></path><path d="M1408.91 656.695s94.87 0 88.09-82.172c0 0 3.39-155.871-171.1-160.109 0 0-37.27-9.316-82.16 38.973 0 0 163.48-13.559 175.34 159.258 0 0 3.38 24.562-10.17 44.05M1561.38 599.938s42.35-33.04 42.35-87.254c0 0-12.71-144.86-158.39-133.848 0 0 121.97 26.262 121.12 160.105 0 0 3.39 35.582-5.08 60.997" style="fill:#fff200;fill-opacity:1;fill-rule:evenodd;stroke:none" transform="matrix(.13333 0 0 -.13333 0 258.667)"></path><path d="m1447.53 256.411 17.79 3.813-30.49 25.408M1440.55 244.342l1.9-6.355" style="fill:none;stroke:#231f20;stroke-width:7.62135983;stroke-linecap:butt;stroke-linejoin:miter;stroke-miterlimit:2.61310005;stroke-dasharray:none;stroke-opacity:1" transform="matrix(.13333 0 0 -.13334 0 258.667)"></path><path d="m1475.49 218.929 1.91-3.179" style="fill:none;stroke:#fff;stroke-width:15.24269962;stroke-linecap:butt;stroke-linejoin:miter;stroke-miterlimit:2.61310005;stroke-dasharray:none;stroke-opacity:1" transform="matrix(.13333 0 0 -.13334 0 258.667)" data-source="https://football-logos.cc"></path><!-- source: https://football-logos.cc --></svg>