<svg xmlns="http://www.w3.org/2000/svg" viewBox="312.76 231.53 441.15 336.94"><!-- Source: https://football-logos.cc --><defs data-source="https://football-logos.cc"><clipPath id="a" clipPathUnits="userSpaceOnUse"><path d="M-565.432 300h800v-600h-800Z"></path></clipPath><clipPath id="b" clipPathUnits="userSpaceOnUse"><path d="M-543.023 256.026h800v-600h-800Z"></path></clipPath><clipPath id="c" clipPathUnits="userSpaceOnUse"><path d="M-245.32 300h800v-600h-800Z"></path></clipPath><clipPath id="d" clipPathUnits="userSpaceOnUse"><path d="M-376.475 219.867h800v-600h-800Z"></path></clipPath><clipPath id="e" clipPathUnits="userSpaceOnUse"><path d="M-420.361 369.025h800v-600h-800Z"></path></clipPath><clipPath id="f" clipPathUnits="userSpaceOnUse"><path d="M-328.798 217.2h800v-600h-800Z"></path></clipPath><clipPath id="g" clipPathUnits="userSpaceOnUse"><path d="M-335.432 378.297h800v-600h-800Z"></path></clipPath><clipPath id="h" clipPathUnits="userSpaceOnUse"><path d="M-466.914 379.945h800v-600h-800Z"></path></clipPath><clipPath id="i" clipPathUnits="userSpaceOnUse"><path d="M-484.64 226.986h800v-600h-800Z"></path></clipPath><clipPath id="j" clipPathUnits="userSpaceOnUse"><path d="M-510.45 219.2h800v-600h-800Z"></path></clipPath><clipPath id="k" clipPathUnits="userSpaceOnUse"><path d="M-389.913 205.216h800v-600h-800Z"></path></clipPath><clipPath id="l" clipPathUnits="userSpaceOnUse"><path d="M-376.475 219.867h800v-600h-800Z"></path></clipPath><clipPath id="m" clipPathUnits="userSpaceOnUse"><path d="M-466.954 335.068h800v-600h-800Z"></path></clipPath><clipPath id="n" clipPathUnits="userSpaceOnUse"><path d="M-480.752 333.346h800v-600h-800Z"></path></clipPath><clipPath id="o" clipPathUnits="userSpaceOnUse"><path d="M-353.127 285.512h800v-600h-800Z"></path></clipPath><clipPath id="p" clipPathUnits="userSpaceOnUse"><path d="M-386.478 315.517h800v-600h-800Z"></path></clipPath><clipPath id="q" clipPathUnits="userSpaceOnUse"><path d="M-345.6 237.416h800v-600h-800Z"></path></clipPath><clipPath id="r" clipPathUnits="userSpaceOnUse"><path d="M-320.275 258.968h800v-600h-800Z"></path></clipPath><clipPath id="s" clipPathUnits="userSpaceOnUse"><path d="M-300.838 332.014h800v-600h-800Z"></path></clipPath><clipPath id="t" clipPathUnits="userSpaceOnUse"><path d="M-365.117 283.164h800v-600h-800Z"></path></clipPath><clipPath id="u" clipPathUnits="userSpaceOnUse"><path d="M-388.292 263.538h800v-600h-800Z"></path></clipPath><clipPath id="v" clipPathUnits="userSpaceOnUse"><path d="M-393.185 294.885h800v-600h-800Z"></path></clipPath><clipPath id="w" clipPathUnits="userSpaceOnUse"><path d="M-488.784 334.53h800v-600h-800Z"></path></clipPath><clipPath id="x" clipPathUnits="userSpaceOnUse"><path d="M-475.958 306.361h800v-600h-800Z"></path></clipPath><clipPath id="y" clipPathUnits="userSpaceOnUse"><path d="M-488.139 353.104h800v-600h-800Z"></path></clipPath><clipPath id="z" clipPathUnits="userSpaceOnUse"><path d="M-444.73 278.396h800v-600h-800Z"></path></clipPath><clipPath id="A" clipPathUnits="userSpaceOnUse"><path d="M-483.864 273.71h800v-600h-800Z"></path></clipPath></defs><path d="M0 0c0 69.783-74.066 126.354-165.432 126.354S-330.864 69.783-330.864 0c0-69.784 74.067-126.354 165.432-126.354C-74.066-126.354 0-69.784 0 0" clip-path="url(#a)" style="fill:#c5a100;fill-opacity:1;fill-rule:nonzero;stroke:none" transform="matrix(1.33333 0 0 -1.33333 753.909 400)"></path><path d="M0 0c-3.977 7.185-8.938 14.053-14.766 20.501v-128.957C-8.934-102.005-3.973-95.132 0-87.945c7.563 13.674 11.648 28.438 11.654 43.972C11.648-28.44 7.563-13.676 0 0" clip-path="url(#b)" style="fill:#005ca8;fill-opacity:1;fill-rule:nonzero;stroke:none" transform="matrix(1.33333 0 0 -1.33333 724.031 341.369)"></path><path d="M0 0c.008-15.534 4.091-30.297 11.655-43.972 3.977-7.186 8.938-14.054 14.766-20.503V64.483c-5.833-6.451-10.793-13.324-14.766-20.51C4.091 30.297.008 15.533 0 0" clip-path="url(#c)" style="fill:#005ca8;fill-opacity:1;fill-rule:nonzero;stroke:none" transform="matrix(1.33333 0 0 -1.33333 327.094 400)"></path><path d="m0 0-.016-.039-.005-.014-.008-.02c2.67 6.506 7.51 11.691 13.487 14.734l-.02-.01.037.019-.017-.009c5.725 2.938 11.845 3.875 17.746 3.894q.114.003.153.002h.034c5.917-.007 11.338-1.541 15.963-3.968v19.51a206 206 0 0 1-23.829 1.368h-.036A206 206 0 0 1-.305 34.096V-.765c.093.238.185.476.284.712z" clip-path="url(#d)" style="fill:#005ca8;fill-opacity:1;fill-rule:nonzero;stroke:none" transform="matrix(1.33333 0 0 -1.33333 501.966 293.156)"></path><path d="m0 0-.023.021a23 23 0 0 0-2.06 2.157c-1.431-6.78-4.016-13.574-8.999-19.373a39 39 0 0 0-9.957-8.227c-3.985-2.283-9.068-4.223-14.997-4.242h-.088c-2.555.019-5.275.443-8.068 1.342v-16.883a206 206 0 0 1 23.83-1.369c8.108-.002 16.067.469 23.83 1.369v42.582A25 25 0 0 0 .043-.039z" clip-path="url(#e)" style="fill:#005ca8;fill-opacity:1;fill-rule:nonzero;stroke:none" transform="matrix(1.33333 0 0 -1.33333 560.482 492.034)"></path><path d="M0 0c5.888 1.819 12.033 2.601 18.218 2.609l.13.001h.022c.208 0 .411-.007.617-.009v23.415C6.34 22.611-5.526 18.012-16.362 12.419A159 159 0 0 1-28.673 5.36v-31.98c1.399 3.77 3.236 7.268 5.523 10.426C-17.261-8.003-8.88-2.715 0 0" clip-path="url(#f)" style="fill:#005ca8;fill-opacity:1;fill-rule:nonzero;stroke:none" transform="matrix(1.33333 0 0 -1.33333 438.398 289.6)"></path><path d="M0 0h-.223l-.032.002h-.053c-12.73.139-24.361 3.33-33.702 10.303q-.658.495-1.297 1.012V-9.865c13.922-8.832 30.033-15.895 47.661-20.643V1.265A59.7 59.7 0 0 0 .001 0Z" clip-path="url(#g)" style="fill:#005ca8;fill-opacity:1;fill-rule:nonzero;stroke:none" transform="matrix(1.33333 0 0 -1.33333 447.243 504.396)"></path><path d="M0 0h-.098C-4.418.004-9.469.24-14.7.763v-29.632c12.647 3.404 24.513 8.002 35.348 13.596a159 159 0 0 1 12.311 7.059v18.605a46 46 0 0 0-2.471-1.758C21.933 3.016 11.455-.007 0 0" clip-path="url(#h)" style="fill:#005ca8;fill-opacity:1;fill-rule:nonzero;stroke:none" transform="matrix(1.33333 0 0 -1.33333 622.552 506.594)"></path><path d="M0 0c5.23-1.61 10.433-3.982 14.972-7.747q.132-.111.26-.225V15.15c-13.92 8.831-30.031 15.893-47.659 20.641V1.074c5.761.843 11.38 1.373 16.001 1.392C-10.883 2.457-5.311 1.606 0 0" clip-path="url(#i)" style="fill:#005ca8;fill-opacity:1;fill-rule:nonzero;stroke:none" transform="matrix(1.33333 0 0 -1.33333 646.187 302.648)"></path><path d="M0 0a147 147 0 0 1-10.577 7.364v-23.122c-.086.074-.172.152-.261.225-4.539 3.764-9.741 6.137-14.972 7.747-5.31 1.606-10.882 2.457-16.425 2.466-4.621-.019-10.241-.549-16.001-1.392v34.717a196.4 196.4 0 0 1-28.385 5.427v-19.51c-4.626 2.427-10.047 3.961-15.964 3.968h-.033c-.028 0-.076.001-.153-.002-5.902-.019-12.021-.956-17.746-3.894-5.978-3.043-10.818-8.228-13.488-14.734l.008.02q-.146-.354-.284-.712v34.861a196.6 196.6 0 0 1-28.384-5.414V4.6c-.206.002-.409.009-.617.009h-.022l-.13-.001c-6.185-.008-12.33-.79-18.218-2.609-8.88-2.715-17.261-8.003-23.15-16.194-2.286-3.158-4.124-6.656-5.523-10.426v31.98c-10.898-6.915-20.451-14.902-28.383-23.676v-128.958c5.251-5.812 11.206-11.283 17.807-16.324a147 147 0 0 1 10.576-7.363v21.182q.639-.517 1.297-1.012c9.34-6.973 20.972-10.165 33.702-10.303h.053l.032-.002h.224a59.6 59.6 0 0 1 12.352 1.264v-31.772a196.4 196.4 0 0 1 28.384-5.426v16.883c2.793-.898 5.513-1.322 8.069-1.342h.087c5.929.02 11.012 1.959 14.998 4.242a39 39 0 0 1 9.956 8.227c4.983 5.799 7.568 12.594 8.999 19.373a23 23 0 0 1 2.06-2.156l.023-.022.043-.039a25 25 0 0 1 3.425-2.584v-42.582a196.4 196.4 0 0 1 28.385 5.416v29.632c5.231-.522 10.282-.759 14.602-.763h.098c11.455-.006 21.932 3.016 30.488 8.633.852.561 1.67 1.153 2.471 1.758v-18.604c10.9 6.915 20.451 14.901 28.385 23.676v128.958C12.556-10.513 6.602-5.041 0 0" clip-path="url(#j)" style="fill:#fff;fill-opacity:1;fill-rule:nonzero;stroke:none" transform="matrix(1.33333 0 0 -1.33333 680.6 292.266)"></path><path d="m0 0 .021.01.016.009Z" clip-path="url(#k)" style="fill:#fff;fill-opacity:1;fill-rule:nonzero;stroke:none" transform="matrix(1.33333 0 0 -1.33333 519.883 273.621)"></path><path d="m0 0-.021-.053.005.014z" clip-path="url(#l)" style="fill:#fff;fill-opacity:1;fill-rule:nonzero;stroke:none" transform="matrix(1.33333 0 0 -1.33333 501.966 293.156)"></path><path d="M0 0c-1.8 0-6.206.369-6.153 1.508l.777 16.953c.051 1.129 1.936 1.434 5.054 1.434 7.025 0 9.391-2.331 9.391-9.069C9.069 4.842 5.879 0 0 0m-2.634 74.075c6.182 0 8.01-2.813 8.01-6.291 0-4.517-3.223-8.173-7.205-8.173-1.57 0-3.943.206-3.996 1.177l-.591 10.796c-.124 2.258 1.69 2.491 3.782 2.491m-37.988-7.74c-1.709 1.498-3.753 2.347-5.443 2.699-1.707.365-3.096.366-4.162.373-.45 0-.838-.005-1.171-.005h-.066v-.001a4.2 4.2 0 0 0-1.197.2c-.69.22-1.184.55-1.496.949-.299.417-.711 1.02-.74 2.934-.001.035.003.169.021.55.014.372.031.907.031 1.601-.013 2.859-.281 5.452-.355 7.886a11.8 11.8 0 0 1 2.142-1.556c1.702-.971 3.741-1.501 5.743-1.492 1.808.006 3.449.421 4.894 1.054.312-1.744.692-3.408.877-4.764.463-3.289.91-6.997 1.316-10.789-.13.122-.261.247-.394.361m-47.924-40.071c-4.789 4.267-11.237 6.783-18.238 6.787-2.903.003-5.659-.584-8.07-1.668-3.634-1.623-6.401-4.311-8.177-7.291-1.781-2.994-2.67-6.285-2.678-9.592-.002-1.079.14-2.041.285-2.775.229-1.12.408-1.743.522-2.391s.21-1.369.214-2.576c-.008-1.061-.199-1.569-.375-1.912-.268-.473-.667-.941-1.978-1.498-1.275-.531-3.34-.916-5.8-.907-2.137.008-3.791.473-5.282 1.283-2.206 1.211-4.18 3.372-5.675 6.643-1.485 3.246-2.385 7.522-2.38 12.289-.006 3.746 1.595 7.239 4.11 9.817 2.51 2.583 5.799 4.007 8.616 3.982 1.266 0 1.996-.093 2.496-.186.38-.074.65-.148 1.042-.275.568-.177 1.52-.564 2.949-.92 1.421-.355 3.155-.577 5.126-.571a14.54 14.54 0 0 1 6.797 1.68 13.4 13.4 0 0 1 3.973 3.193c1.003 1.181 1.736 2.438 2.294 3.671q.433-.509.899-.964c2.091-2.032 4.521-3.219 6.85-3.929 2.342-.706 4.643-.96 6.824-.964 1.834.02 2.845.177 3.656.162.771-.037.871-.131 1.211-.399.313-.287.917-1.078 1.299-2.906.39-1.81.632-4.789.732-8.975-.402.41-.813.812-1.242 1.192m-36.908 48.704c1.205 1.032 3.346 2.004 6.734 2.011 1.62-.013 2.601-.254 3.71-.676 1.098-.426 2.346-1.139 4.024-2.142 1.929-1.139 4.077-2.505 6.567-3.706a28 28 0 0 1 3.48-1.403c-2.283-.76-4.791-2.033-6.925-4.232-1.07-1.103-2.209-2.551-3.083-4.408q-.048-.108-.095-.218c-.564.601-1.18 1.15-1.845 1.636-2.221 1.599-4.326 2.285-6.011 2.847-1.703.543-3.064.945-4.058 1.393-.655.263-2.065 1.244-2.932 2.347-.449.549-.788 1.115-.99 1.61-.205.5-.283.912-.284 1.306.035 1.507.512 2.565 1.708 3.635M41.063 36.944c-2.299 3.246-5.098 5.993-8.246 8.139 3.383 4.923 6.63 12.487 6.613 22.45-.001 5.788-.829 11.045-2.663 15.735-1.823 4.683-4.711 8.753-8.445 11.862-3.622 3.009-7.979 5.048-12.626 6.475-4.649 1.41-9.597 2.163-14.441 2.169-5.41-.014-13.061-.881-20.354-2.189-3.636-.658-7.132-1.425-10.193-2.307a57 57 0 0 1-1.908-.59c.07.694.119 1.395.121 2.11-.008 3.256-.828 6.383-2.18 9.334-2.043 4.415-5.32 8.495-9.701 11.625-4.366 3.117-9.947 5.232-16.186 5.226-5.26-.007-10.289-.835-14.795-3.155-4.507-2.284-8.254-6.271-10.298-11.265-1.369-3.295-2.219-6.9-2.794-10.931a28 28 0 0 1-2.576 2.318c-2.94 2.316-6.356 4.144-10.118 5.606-5.355 2.085-11.979 4.157-20.123 4.147-5.648-.002-11.148-.714-16.306-2.308-7.719-2.368-14.742-6.854-19.65-13.677-4.927-6.81-7.566-15.687-7.55-26.17a72.4 72.4 0 0 1 1.261-13.371c-4.716-4.204-9.238-9.014-12.808-14.995-4.38-7.303-7.132-16.332-7.108-27.223.013-8.512 2.234-17.027 5.821-24.607 3.614-7.57 8.565-14.241 14.722-18.855 7.942-5.925 18.027-8.813 29.718-8.95h.09l.138-.001c12.584-.001 23.572 4.179 31.956 11.302 2.14 1.816 4.218 3.905 6.178 6.182-1.489-3.969-3.02-7.242-4.337-10.569-1.318-3.36-2.492-6.952-2.5-11.126-.017-3.22.891-6.326 2.513-8.761 2.209-3.285 5.176-4.945 7.774-5.978 2.663-1.012 5.041-1.422 7.288-1.444 4.441.016 8.36 1.465 11.654 3.35a32.2 32.2 0 0 1 8.202 6.782c4.341 5.046 6.582 11.257 7.807 17.945 1.22 6.721 1.482 14.107 1.488 22.242-.002 9.287-.594 18.193-1.178 25.431-.293 3.618-.584 6.819-.797 9.405-.214 2.564-.343 4.593-.338 5.496-.001 1.835.225 3.087.461 3.815.407 1.107.529 1.011.668 1.148.155.106.78.355 2.028.36.117-.008.472-.039.904-.074.51-.04 1.148-.087 1.908-.088 2.627-.011 5.047.907 6.832 2.13 2.029 1.397 3.422 3.063 4.459 4.754.141-2.545.217-4.671.215-6.112.01-11.625-2.035-25.404-4.121-36.388-1.04-5.502-2.084-10.318-2.873-13.903-.397-1.795-.727-3.279-.971-4.431a51 51 0 0 1-.308-1.53 26 26 0 0 1-.118-.716c-.033-.282-.08-.532-.086-1.192a13.7 13.7 0 0 1 1.337-5.924c.867-1.814 2.089-3.349 3.455-4.609 2.721-2.443 5.74-3.705 9.076-4.84 4.992-1.633 10.788-2.65 16.594-3.332 5.796-.672 11.544-.973 16.244-.974l.068-.001c10.279 0 19.402 2.69 26.772 7.524 7.339 4.818 12.602 11.935 16.101 19.668 3.491 7.757 5.261 16.205 5.271 24.248.006 9.209-2.583 17.332-7.041 23.608" clip-path="url(#m)" style="fill:#005ca8;fill-opacity:1;fill-rule:nonzero;stroke:none" transform="matrix(1.33333 0 0 -1.33333 622.605 446.758)"></path><path d="M0 0c-1.412-2.839-3.777-5.439-6.939-6.964-2.081-1.018-4.442-1.534-6.829-1.534h-.031c-.82.003-1.764.047-2.828.147-1.067.107-2.194.251-3.465.572-.865.245-1.767.464-3.137 1.308-.759.51-1.832 1.28-2.726 2.987a7.3 7.3 0 0 0-.774 3.224q-.001.067.004.254l.005.102.778 16.953a7.7 7.7 0 0 0 .903 3.283 7.9 7.9 0 0 0 1.988 2.383c1.432 1.12 2.621 1.469 3.607 1.736 1.964.465 3.52.477 5.324.496 2.393-.008 4.643-.195 6.947-.926 2.277-.701 4.671-2.176 6.274-4.313 1.075-1.403 1.777-2.97 2.206-4.491.575-2.043.734-4.035.739-6.113C2.041 5.961 1.434 2.854 0 0m-26.996 70.074c0 .831.1 1.743.38 2.689a8.6 8.6 0 0 0 1.38 2.74c1.283 1.699 3.006 2.604 4.285 3.018.875.289 1.627.416 2.286.494.878.101 1.602.11 2.233.112 2.312-.003 4.469-.283 6.529-1.018 2.046-.722 4.001-1.991 5.411-3.692a11.8 11.8 0 0 0 2.07-3.633c.59-1.664.774-3.263.776-4.722-.004-3.875-1.374-7.499-3.803-10.261-2.395-2.748-6.052-4.687-10.149-4.687h-.029c-.711.001-1.523.027-2.441.128-.932.117-1.92.24-3.319.78-.91.399-2.196.93-3.558 2.683-.754.985-1.378 2.489-1.443 3.991l-.591 10.777a11 11 0 0 0-.017.601M7.746 41.149s11.111 7.384 11.111 24.662c0 10.285-2.963 17.617-8.68 22.402-5.281 4.419-14.476 7.062-22.72 7.062-9.369 0-30.127-3.305-34.699-6.718-1.896-1.415-2.578-3.388-2.578-5.311 0-1.592.8-4.532 1.185-7.26 1.793-12.707 3.276-30.912 3.276-37.972 0-24.758-8.479-56.252-8.479-58.16 0-2.155.926-3.997 2.615-5.557 5.734-5.295 25.561-7.348 37.317-7.348 9.16 0 16.906 2.344 23.133 6.417 11.952 7.82 18.304 24.195 18.304 38.245 0 15.916-8.849 26.742-19.785 29.538" clip-path="url(#n)" style="fill:#fff;fill-opacity:1;fill-rule:nonzero;stroke:none" transform="matrix(1.33333 0 0 -1.33333 641.003 444.46)" data-source="https://football-logos.cc"></path><path d="M0 0c0-1.882-.587-2.512-1.065-3.6-.715-1.629-1.751-2.96-3.308-3.781a7.8 7.8 0 0 0-3.639-.899c-5.43 0-5.194 1.953-11.613 1.953-9.894 0-19.5-9.202-19.5-20.575 0-14.917 7.311-26.989 20.111-26.989 8.251 0 14.928 3.106 14.928 11.092 0 4.279-1.022 5.699-1.022 7.742 0 5.432 4.087 11.776 12.151 11.776 10.729 0 19.411-7.744 19.411-17.314 0-9.073-8.39-22.03-16.566-28.94-7.242-6.12-16.521-9.701-27.721-9.701-10.689.142-19.179 2.711-25.763 7.611-9.975 7.426-17.813 23.431-17.813 38.027 0 19.6 9.523 30.497 20.659 39.746 0 0-2.004 6.734-2.004 15.843 0 25.056 16.428 35.38 36.732 35.38 7.013 0 12.625-1.731 17.673-3.689 8.693-3.37 14.373-8.76 14.373-15.453 0-3.289-.957-6.128-1.866-8.296-1.202-2.864-3.007-4.554-5.823-4.554-3.979 0-8 2.655-12.036 5.051C2.979 32.401 0 34.197-4.893 34.197c-9.409 0-15.216-5.556-15.216-12.421 0-5.484 4.723-9.898 8.233-11.455 3.154-1.401 6.489-1.817 8.822-3.52C-1.331 5.542 0 3.172 0 0" clip-path="url(#o)" style="fill:#fff;fill-opacity:1;fill-rule:nonzero;stroke:none" transform="matrix(1.33333 0 0 -1.33333 470.836 380.682)"></path><path d="M0 0c0 7.321-.197 12.343-.925 15.865-1.18 5.713-4.628 8.71-9.144 8.71-1.371 0-2.473-.162-3.657-.162-4.328 0-9.069 1.427-10.688 5.607-.465 1.201-.719 2.63-.719 4.318 0 2.823 1.245 4.808 2.61 6.214 2.478 2.556 6.188 3.205 9.412 3.504 4.661.431 9.791.94 11.589 6.943.574 1.917.58 4.394.58 7.607 0 14.881.644 25.135 3.429 31.789 3.052 7.292 9.766 10.261 18.844 10.261 12.565 0 21.293-11.183 21.293-19.41 0-6.398-4.732-13.55-9.463-13.55-3.604 0-5.701 3.512-5.701 7.85 0 3.334.861 3.603.861 5.861a3.197 3.197 0 0 1-3.199 3.199c-4.705 0-6.641-9.651-6.641-19.329 0-3.316.377-6.42.377-9.194 0-1.189-.055-1.608-.055-2.151 0-8.442 6.325-10.852 10.217-10.857 2.306-.003 4.563.175 6.383-1.399 1.48-1.29 2.434-3.312 2.434-6.671 0-2.903-2.661-8.817-7.204-8.817-1.049 0-2.177.161-2.742.161-5.528 0-10.002-2.635-10.002-12.098 0-5.412 2.314-22.332 2.314-40.332 0-15.948-1.126-28.197-7.65-35.762-3.322-3.851-8.965-7.781-14.727-7.781-2.465 0-7.292 1.162-9.403 4.369-.864 1.316-1.396 2.975-1.396 5.037C-12.973-48.841 0-39.587 0 0" clip-path="url(#p)" style="fill:#fff;fill-opacity:1;fill-rule:nonzero;stroke:none" transform="matrix(1.33333 0 0 -1.33333 515.304 420.689)"></path><path d="M0 0c5.796 0 12.103-3.636 15.102-5.756 4.336-3.067 5.233-5.938 8.001-5.938 1.802 0 3.261 1.474 3.261 3.297 0 1.697-1.849 3.412-4.292 5.548-1.739 1.521-3.965 3.07-6.624 4.393C11.288 3.615 6.067 5.135 0 5.135c-2.419 0-3.872-1.106-3.872-2.473C-3.872.941-2.419 0 0 0" clip-path="url(#q)" style="fill:#005ca8;fill-opacity:1;fill-rule:nonzero;stroke:none" transform="matrix(1.33333 0 0 -1.33333 460.8 316.555)"></path><path d="M0 0c0 6.129 1.255 7.563 1.255 10.503 0 1.362-.818 2.079-1.829 2.079-1.9 0-3.218-2.53-4.104-6.492-.684-3.064-1.344-7.218-1.344-11.252 0-4.767.143-9.642 3.979-9.642 1.822 0 3.298 1.523 3.298 3.406C1.255-10.323 0-6.667 0 0" clip-path="url(#r)" style="fill:#005ca8;fill-opacity:1;fill-rule:nonzero;stroke:none" transform="matrix(1.33333 0 0 -1.33333 427.033 345.291)"></path><path d="M0 0c1.836 0 2.125-2.711 3.417-4.627 2.29-3.395 5.399-7.729 11.141-11.76 4.082-2.865 9.493-4.948 16.886-4.948 8.101 0 15.31 3.026 19.984 6.226 5.242 3.588 8.329 7.395 10.413 7.395 1.784 0 3.226-1.491 3.226-3.333 0-.459-.124-.978-.363-1.539-.392-.921-5.412-6.013-12.637-10.101-5.62-3.178-12.105-5.28-19.727-5.28-11.208 0-18.875 4.436-24.475 10.444C3.561-12.905-2.056-4.488-2.056-2.18-2.056-.975-1.136 0 0 0" clip-path="url(#s)" style="fill:#005ca8;fill-opacity:1;fill-rule:nonzero;stroke:none" transform="matrix(1.33333 0 0 -1.33333 401.118 442.685)"></path><path d="M0 0a3.33 3.33 0 0 0 3.334 3.333c1.72 0 6.703-2.903 10.861-2.903 1.763 0 3.19-.968 3.19-2.545 0-1.828-1.763-2.581-3.943-2.581-3.046 0-6.278.264-8.446.667C1.743-3.425 0-2.28 0 0" clip-path="url(#t)" style="fill:#005ca8;fill-opacity:1;fill-rule:nonzero;stroke:none" transform="matrix(1.33333 0 0 -1.33333 486.823 377.551)"></path><path d="M0 0c0 6.238.688 17.757 1.2 24.234.567 7.161.979 11.754 3.37 11.754 1.144 0 2.07-.994 2.07-2.661 0-1.398-.511-.538-.511-6.99 0-12.771.592-18.947.592-26.337A3.43 3.43 0 0 0 3.28-3.424C1.467-3.424 0-1.892 0 0" clip-path="url(#u)" style="fill:#005ca8;fill-opacity:1;fill-rule:nonzero;stroke:none" transform="matrix(1.33333 0 0 -1.33333 517.722 351.384)"></path><path d="M0 0c1.505 0 2.532-.839 2.928-1.911.37-.996.37-1.781.37-5.616 0-7.208-.184-13.974-.521-20.034-.434-7.796-.975-14.69-1.776-19.716C.156-52.586 0-55.812-2.581-55.812c-1.367 0-2.474 1.492-2.474 3.334 0 .782 1.116 5.199 1.532 12.447.284 4.947.476 11.08.476 17.879 0 9.61-.394 15.377-.394 17.384C-3.441-1.183-2.008 0 0 0" clip-path="url(#v)" style="fill:#005ca8;fill-opacity:1;fill-rule:nonzero;stroke:none" transform="matrix(1.33333 0 0 -1.33333 524.246 393.18)"></path><path d="M0 0a3.403 3.403 0 0 0-3.405 3.404c0 1.47 1.326 2.223 1.326 7.635 0 5.986-1.649 7.743-1.649 9.07s1.058 2.401 2.366 2.401c2.043 0 3.158-3.278 4.248-7.029.75-2.575 1.236-5.373 1.236-7.489C4.122 3.574 2.976 0 0 0" clip-path="url(#w)" style="fill:#005ca8;fill-opacity:1;fill-rule:nonzero;stroke:none" transform="matrix(1.33333 0 0 -1.33333 651.712 446.04)"></path><path d="M0 0c-1.426 0-2.543 1.563-9.47 1.563-2.263 0-7.077-.145-10.039-1.37-1.275-.527-1.924-1.795-2.496-3.246-.566-1.439-.658-2.908-1.128-4.045-.449-1.087-1.245-2.028-3.13-2.028-1.814 0-3.281 1.491-3.281 3.334 0 1.532.754 3.843 1.356 5.385 1.07 2.745 2.556 4.682 4.154 5.791 2.572 1.786 8.471 1.934 10.406 1.934 7.742 0 13.311-1.56 14.969-2.781.755-.555 1.006-1.217 1.006-2.052C2.347 1.111 1.297 0 0 0" clip-path="url(#x)" style="fill:#005ca8;fill-opacity:1;fill-rule:nonzero;stroke:none" transform="matrix(1.33333 0 0 -1.33333 634.61 408.482)"></path><path d="M0 0c0 1.229-.96 2.223-2.146 2.223-2.027 0-3.715-3.668-22.856-3.668-9.194 0-22.133 1.23-23.182 4.554-.166.529-.243 1.118-.243 1.772 0 6.236 3.191 12.545 3.191 13.943 0 1.842-1.459 3.334-3.262 3.334-.757 0-1.395-.199-1.943-.58-2.593-1.805-4.832-12.969-4.832-16.053 0-1.879.308-3.504.885-4.902 2.833-6.865 17.431-8.496 25.156-8.496 8.509 0 18.134 1.672 23.939 3.877C-2.051-2.765 0-1.715 0 0" clip-path="url(#y)" style="fill:#005ca8;fill-opacity:1;fill-rule:nonzero;stroke:none" transform="matrix(1.33333 0 0 -1.33333 650.852 470.805)"></path><path d="M0 0c0 4.588-2.115 19.93-2.115 22.224 0 2.115.269 3.662 1.326 4.266 1.756 1.004 10.18 3.943 12.259 4.158 1.762.251 3.19 1.074 3.19 2.402 0 1.327-1.939 2.401-4.338 2.401-1.326 0-9.251-1.495-12.371-2.697-1.814-.698-2.974-1.708-3.686-2.644-1.013-1.328-3.047-4.624-3.047-8.638 0-1.506 2.079-18.891 2.079-20.683 0-3.011 1.555-4.122 3.476-4.122C-1.443-3.333 0-1.842 0 0" clip-path="url(#z)" style="fill:#005ca8;fill-opacity:1;fill-rule:nonzero;stroke:none" transform="matrix(1.33333 0 0 -1.33333 592.974 371.195)"></path><path d="M0 0c.802 0 1.409.292 1.866.911.801 1.08 1.36 8.418 1.36 11.24 0 3.886-.508 6.431-1.663 8.369-2.035 3.414-7.36 6.23-10.515 6.23-1.823 0-3.299-1.508-3.299-3.37 0-1.073.493-1.781.943-2.266 1.058-1.14 2.713-1.051 3.873-1.572.489-.22.961-.45 1.404-.744 2.343-1.555 4.149-3.969 4.149-11.593 0-2.794-.377-4.597-.377-5.055C-2.259.807-1.249 0 0 0" clip-path="url(#A)" style="fill:#005ca8;fill-opacity:1;fill-rule:nonzero;stroke:none" transform="matrix(1.33333 0 0 -1.33333 645.152 364.946)" data-source="https://football-logos.cc"></path><!-- source: https://football-logos.cc --></svg>