<svg xmlns="http://www.w3.org/2000/svg" xml:space="preserve" viewBox="23.22 4.68 211.27 249.45"><!-- Source: https://football-logos.cc --><path d="M930.113 932.629S903.469 387.84 859.055 293.09c0 0-29.606-54.777-45.891-69.578 0 0-56.258-48.856-1.484-119.914 0 0 42.933-65.141 145.086-69.582h19.871c102.153 4.441 145.073 69.582 145.073 69.582 54.78 71.058-1.47 119.914-1.47 119.914-16.29 14.801-45.9 69.578-45.9 69.578-44.41 94.75-71.06 639.539-71.06 639.539l-1.14.516s402.67-26.649 497.42-71.059c0 0 54.78-29.609 69.58-45.891 0 0 48.86-56.257 119.92-1.48 0 0 65.13 42.93 69.57 145.078v19.871c-4.44 102.156-69.57 145.086-69.57 145.086-71.06 54.77-119.92-1.48-119.92-1.48-14.8-16.29-69.58-45.9-69.58-45.9-94.75-44.41-497.42-71.06-497.42-71.06l.5-.04s26.65 544.79 71.06 639.54c0 0 29.61 54.77 45.89 69.58 0 0 56.26 48.85 1.49 119.91 0 0-42.94 65.14-145.084 69.58h-19.875c-102.144-4.44-145.082-69.58-145.082-69.58-54.777-71.06 1.481-119.91 1.481-119.91 16.289-14.81 45.894-69.58 45.894-69.58 44.414-94.75 71.059-639.54 71.059-639.54l1.144-.52s-402.672 26.65-497.422 71.06c0 0-54.773 29.61-69.578 45.89 0 0-48.851 56.26-119.914 1.48 0 0-65.137-42.93-69.582-145.075v-19.871c4.445-102.152 69.582-145.082 69.582-145.082 71.063-54.777 119.914 1.481 119.914 1.481 14.805 16.281 69.578 45.894 69.578 45.894 94.75 44.411 497.422 71.059 497.422 71.059z" style="fill:#31429e;fill-opacity:1;fill-rule:evenodd;stroke:none" transform="matrix(.13333 0 0 -.13333 0 258.667)" data-source="https://football-logos.cc"></path><path d="M1038.29 898.938s421.91-41.454 436.71-59.215c0 0 88.83-54.778 94.75-68.098 0 0 11.84-13.324 59.22-13.324l.74-2.223c-102.64-489.527-451.53-590.691-451.53-590.691 0 47.379-13.32 59.218-13.32 59.218-13.32 5.922-68.1 94.75-68.1 94.75-17.77 14.801-59.22 578.844-59.22 578.844zM1038.29 1041.8s421.91 41.45 436.71 59.21c0 0 88.83 54.78 94.75 68.1 0 0 11.84 13.33 59.22 13.33l.74 2.22c-102.64 489.52-451.53 590.68-451.53 590.68 0-47.37-13.32-59.21-13.32-59.21-13.32-5.92-68.1-94.75-68.1-94.75-17.77-14.8-59.22-578.84-59.22-578.84zM894.684 1041.8s-421.918 41.45-436.723 59.21c0 0-88.824 54.78-94.746 68.1 0 0-11.844 13.33-59.219 13.33l-.738 2.22c102.64 489.52 451.523 590.68 451.523 590.68 0-47.37 13.328-59.21 13.328-59.21 13.325-5.92 68.098-94.75 68.098-94.75 17.77-14.8 59.219-578.84 59.219-578.84zM894.684 898.938s-421.918-41.454-436.723-59.215c0 0-88.824-54.778-94.746-68.098 0 0-11.844-13.324-59.219-13.324l-.738-2.223c102.64-489.527 451.523-590.691 451.523-590.691 0 47.379 13.328 59.218 13.328 59.218 13.325 5.922 68.098 94.75 68.098 94.75 17.77 14.801 59.219 578.844 59.219 578.844z" style="fill:#ed1c24;fill-opacity:1;fill-rule:evenodd;stroke:none" transform="matrix(.13333 0 0 -.13333 0 258.667)" data-source="https://football-logos.cc"></path><path d="M618.574 1452.6c3.692 3.13 10.903 4.7 21.629 4.7q27.697 0 44.676-14.73c11.32-9.82 16.98-22.71 16.98-38.69q0-29.82-30.562-33.18l-11.078-.54-24.668.54q-12.505 0-17.516 3.81c-3.332 2.55-5 7.01-5 13.4v46.14c0 9.23 1.844 15.41 5.539 18.55m-46.621-166.3c0-20.07-7.047-31.17-21.117-33.3-3.195-.63-4.789-2.2-4.789-4.72 0-2.77 1.781-4.16 5.344-4.16q5.342 0 11.418.51c13.062 1.14 28.515 1.71 46.351 1.71l27.809-.47 36.195-.64q40.284 0 63.914 18.6c15.75 12.4 23.625 29.27 23.625 50.63 0 13.99-4.297 25.71-12.894 35.14-8.602 9.43-20.313 15.33-35.141 17.71-4.746.71-7.059 2.02-6.938 3.92.118 1.18 2.383 2.61 6.793 4.28q28.566 11.235 28.567 39.6.002 24.615-22.918 39.51c-15.277 9.93-35.567 14.9-60.887 14.9-9.629 0-21.453-.62-35.484-1.86-22.703-1.97-38.336-2.96-46.891-2.96q-4.634 0-21.215.66l-13.375.66-4.457.16c-3.332 0-4.988-1.66-4.988-4.99 0-2.84 1.297-4.39 3.898-4.63l8.141-1.06c19.359-2.02 29.039-13.88 29.039-35.61zm44.473 66.31c2.258 3.67 7.672 5.5 16.242 5.5 18.207 0 34.512-1.65 48.914-4.96 24.863-5.79 37.305-21.34 37.305-46.63 0-12.88-3.813-23.93-11.422-33.15-9.289-11.12-26.602-16.67-51.949-16.67-25.703 0-39.27 7.74-40.692 23.23l-1.25 13.82-.539 6.04v26.76c0 13.71 1.129 22.39 3.391 26.06M1275.71 1385.67c0-6.06.87-10.13 2.59-12.22 1.72-2.07 5.08-3.11 10.07-3.11l6.77.18 19.42.18c8.8 0 15.44 1.72 19.96 5.17 4.51 3.44 8.97 10.22 13.37 20.33 1.06 2.48 2.37 3.73 3.91 3.73q5.34 0 5.34-4.26 0-1.08-.36-4.26c-.12-1.31-.18-2.97-.18-4.99 0-6.27.36-13.57 1.09-21.86l2.78-30.58q.36-4.965.36-6.93c0-2.26-1.63-3.5-4.89-3.73-2.3-.12-3.75 1.3-4.35 4.27-2.38 11.4-6.36 19.03-11.94 22.88-5.58 3.86-15.31 5.79-29.2 5.79-17.81 0-28.09-1.01-30.82-3.02s-4.09-9.76-4.09-23.23l.17-12.95v-18.99c0-16.09 3.11-27.79 9.3-35.12 4.53-5.44 13.59-8.63 27.17-9.58q5.73-.555 5.73-4.44c0-2.96-1.32-4.44-3.93-4.44-2.39 0-5.85.27-10.38.79-4.29.22-12.94.32-25.93.32h-19.85c-8.95 0-16.64-.31-23.08-.93-8.7-1.1-14.54-1.66-17.52-1.66-3.93 0-5.9 1.36-5.9 4.07 0 2.22 1.67 3.82 5.02 4.81q10.755 3.195 14.52 11.1c2.52 5.27 3.77 14.36 3.77 27.28v132.92c0 13.63-2.61 22.51-7.84 26.66-5.94 4.74-14.61 7.35-26.02 7.82-3.09.24-4.63 1.6-4.63 4.07 0 3.21 2.03 4.81 6.07 4.81 1.31 0 4.41-.11 9.29-.32 7.14-.53 14.7-.79 22.68-.79l30.71.6 46.97.19c16.07 0 32.5.65 49.28 1.95 6.19.4 10.77.59 13.75.59 2.86 0 4.47-2.82 4.82-8.46.59-6.85.94-10.82 1.06-11.9l1.75-12.43c.34-2.52.53-4.68.53-6.48 0-8.9-2.28-13.34-6.82-13.34-2.51 0-3.77 1.48-3.77 4.45v5.53c0 2.14-.29 4.04-.89 5.7-4.88 14.26-20.59 21.39-47.12 21.39l-23.21.18-7.32-.18q-10.17 0-14.19-3.48t-4.02-12.21zM561.223 688.086V549.684l-.36-6.746 1.785-9.063c3.45-8.406 13.43-12.973 29.942-13.676q7.493-.388 7.492-4.144c0-3.899-5.18-5.848-15.519-5.848-2.266 0-9.875.43-22.84 1.293-6.778.617-16.176.922-28.184.922-11.898 0-22.129-.43-30.684-1.297q-5.18-.55-7.496-.551c-2.972 0-4.457 1.352-4.457 4.074 0 2.34 1.532 3.7 4.606 4.071q18.252 2.655 23.754 7.636c3.664 3.313 5.5 9.653 5.5 19.008l-.184 6.219v123.102q-.002 16.87-14.594 16.871-5.7 0-10.148-1.785l-4.449-1.786c-1.305-.472-2.496-.711-3.559-.711-3.09 0-4.629 1.309-4.629 3.926q0 3.99 4.469 6.176c2.984 1.457 9.059 3.094 18.238 4.914 17.168 3.32 29.383 8 36.657 14.039l8.402 6.934c1.305 1.066 2.918 1.601 4.824 1.601q3.57-.002 3.57-6.039c0-1.187-.117-3.324-.355-6.398l-1.43-14.395c-.238-2.961-.351-6.277-.351-9.945M733.621 700.734c8.836-7.941 13.258-17.66 13.258-29.16q-.002-13.689-8.453-23.023c-5.641-6.227-12.617-9.34-20.918-9.34-12.699 0-26.164 4.445-40.406 13.34-12.696 7.941-19.047 17.183-19.047 27.742q0 14.037 12.187 23.199c8.137 6.11 18.43 9.16 30.891 9.16 12.816 0 23.644-3.976 32.488-11.918m-80.148 5.59c-13.973-11.129-20.953-25.199-20.953-42.215 0-17.964 8.394-32.605 25.187-43.91 2.488-1.664 3.668-2.851 3.551-3.566-.121-.598-1.25-1.43-3.379-2.5-23.566-11.664-35.356-27.485-35.356-47.469 0-17.969 7.211-32.426 21.649-43.375 14.433-10.945 33.406-16.414 56.93-16.414 23.996 0 43.296 5.945 57.91 17.832 14.609 11.891 21.918 27.648 21.918 47.277q-.001 39.07-41.844 55.118c-6.785 2.617-10.125 4.457-10.004 5.531.113.949 3.168 2.379 9.156 4.285 9.817 2.977 17.657 8.004 23.532 15.094 5.855 7.082 8.796 15.039 8.796 23.851 0 13.805-5.98 25.121-17.921 33.934q-17.927 13.219-45.754 13.219-32.455 0-53.418-16.692m27.371-97.871q13.899-5.688 20.316-7.82l18.172-6.231q34.21-11.737 34.211-40.179c0-10.789-4.488-19.657-13.449-26.586q-13.45-10.4-34.469-10.399c-16.512 0-30.105 5.356-40.793 16.086-10.687 10.727-16.031 24.328-16.031 40.813 0 11.613 3.14 20.922 9.433 27.918q2.85 3.194 7.743 6.043c3.261 1.894 5.718 2.843 7.382 2.843 1.067-.121 3.567-.949 7.485-2.488M1247.62 700.734q13.26-11.91 13.26-29.16c0-9.125-2.82-16.801-8.45-23.023-5.64-6.227-12.62-9.34-20.92-9.34q-19.05-.001-40.41 13.34c-12.69 7.941-19.05 17.183-19.05 27.742 0 9.359 4.07 17.09 12.19 23.199 8.14 6.11 18.43 9.16 30.89 9.16 12.82 0 23.65-3.976 32.49-11.918m-80.15 5.59c-13.97-11.129-20.95-25.199-20.95-42.215 0-17.964 8.39-32.605 25.19-43.91 2.49-1.664 3.67-2.851 3.55-3.566-.12-.598-1.25-1.43-3.38-2.5-23.57-11.664-35.36-27.485-35.36-47.469 0-17.969 7.21-32.426 21.65-43.375 14.44-10.945 33.41-16.414 56.94-16.414q35.985 0 57.9 17.832c14.61 11.891 21.92 27.648 21.92 47.277 0 26.047-13.95 44.418-41.84 55.118-6.79 2.617-10.13 4.457-10.01 5.531.12.949 3.17 2.379 9.16 4.285 9.81 2.977 17.65 8.004 23.53 15.094 5.86 7.082 8.8 15.039 8.8 23.851 0 13.805-5.98 25.121-17.93 33.934q-17.925 13.219-45.75 13.219c-21.64 0-39.44-5.563-53.42-16.692m27.37-97.871c9.27-3.793 16.04-6.398 20.32-7.82l18.17-6.231c22.81-7.824 34.21-21.218 34.21-40.179 0-10.789-4.49-19.657-13.45-26.586-8.96-6.934-20.45-10.399-34.46-10.399-16.52 0-30.11 5.356-40.8 16.086-10.69 10.727-16.03 24.328-16.03 40.813 0 11.613 3.14 20.922 9.43 27.918 1.9 2.129 4.49 4.144 7.75 6.043q4.89 2.842 7.38 2.843c1.07-.121 3.57-.949 7.48-2.488M1431.06 609.18q13.32-17.611 13.32-46.426c0-13.75-3.4-24.836-10.19-33.258-6.8-8.418-15.73-12.633-26.81-12.633-13.7 0-25.83 6.731-36.38 20.192-10.55 13.457-15.82 28.836-15.82 46.152 0 12.57 3.84 22.977 11.53 31.215 7.68 8.242 17.43 12.367 29.23 12.367 14.53 0 26.24-5.871 35.12-17.609m-11.32 107.465c-29.4-8.684-53.74-24.68-73.01-47.985-19.28-23.308-28.93-48.398-28.93-75.273 0-25.449 7.47-46.235 22.41-62.348q22.395-24.164 57.75-24.164c24.16 0 43.79 7.262 58.91 21.785 15.11 14.528 22.67 33.528 22.67 56.988 0 16.911-5.58 31.133-16.74 42.688-11.15 11.547-24.84 17.324-41.06 17.324-6.69 0-14.62-1.394-23.8-4.191-9.19-2.801-16.77-6.09-22.73-9.891q-3.225-2.148-5.55-2.316c-2.26-.121-3.39 1.242-3.39 4.097 0 4.133 2.53 11.071 7.6 20.821 5.07 9.746 10.17 17.511 15.31 23.297 7.98 8.863 18.55 16.894 31.68 24.101s25.06 11.641 35.81 13.297c4.89.609 7.45 1.719 7.7 3.332l-.54 2.402-.89 2.59c-.25.864-1.55 1.297-3.93 1.297-8.81 0-21.9-2.621-39.27-7.851" style="fill:#fff;fill-opacity:1;fill-rule:evenodd;stroke:none" transform="matrix(.13333 0 0 -.13333 0 258.667)" data-source="https://football-logos.cc"></path><!-- source: https://football-logos.cc --></svg>