<svg xmlns="http://www.w3.org/2000/svg" viewBox="14.17 137.48 566.93 566.93"><!-- Source: https://football-logos.cc --><path d="M297.638 137.48a283.464 283.464 0 0 1 283.464 283.465 283.464 283.465 0 1 1-283.464-283.464" style="fill:#bba24d;fill-rule:evenodd" data-source="https://football-logos.cc"></path><path d="M297.638 150.243a270.7 270.7 0 0 1 270.701 270.702 270.701 270.702 0 1 1-270.701-270.702" style="fill:#fffefe;fill-rule:evenodd"></path><path d="M298.189 186.691c37.107 0 71.759 8.816 102.211 24.64 23.685 12.307 44.834 28.34 62.624 47.975l-32.24 33.187c34.403 33.48 56.138 81.413 56.138 133.74 0 46.885-17.216 90.07-45.644 123.085-34.784 40.396-86.357 65.852-143.722 65.852-65.014 0-122.22-33.024-156.179-83.058-20.494-30.196-32.47-66.642-32.47-105.878 0-52.022 22.494-100.877 55.247-133l-34.137-31.588c20.796-23.702 48.272-44.225 80.07-57.517 27.189-11.366 57.227-17.438 88.102-17.438" style="fill:#1a1919;fill-rule:evenodd"></path><path d="m138.676 261.258 34.416 31.847-4.621 4.532c-33.804 33.154-53.398 81.354-53.398 128.597 0 36.626 10.835 72.106 31.406 102.415 34.081 50.213 90.313 80.355 151.076 80.355 53.554 0 104.104-23.126 139.05-63.709 28.553-33.16 44.15-75.305 44.15-119.061 0-48.48-19.491-95.474-54.27-129.322l-4.416-4.297 32.445-33.398c-16.501-17.225-35.753-31.397-56.957-42.415-30.793-16-64.699-23.945-99.368-23.945-29.332 0-58.643 5.64-85.724 16.96-27.756 11.603-53.269 29.385-73.789 51.441" style="fill:#fffefe;fill-rule:evenodd"></path><path d="M297.61 290.069a137.51 137.51 0 0 1 137.511 137.51 137.51 137.51 0 1 1-137.51-137.51" style="fill:#1a1919;fill-rule:evenodd"></path><path d="M297.61 296.235a131.345 131.345 0 0 1 131.345 131.344 131.345 131.345 0 1 1-131.344-131.344" style="fill:#439549;fill-rule:evenodd" data-source="https://football-logos.cc"></path><path d="m217.744 337.79 102.229 100.811-6.774 6.869-102.228-100.811zM218.79 357.35l38.857 38.318-6.774 6.868-6.357-6.27-6.82 6.916 6.358 6.27-6.673 6.766-6.358-6.27-8.794 8.918 6.052 5.968-12.854 13.034-12.984-12.804 35.611-35.37-6.035-5.952-22.33 22.292-13.33-13.144-6.313 6.402 8.81 8.687-6.773 6.869-15.717-15.5 22.684-22.595 13.238 13.055 12.863-12.839-6.229-6.142-6.47 6.561-6.767-6.672zM342.291 439.702c2.069 2.04 2.071 5.419.008 7.462l-20.337 20.146c-2.073 2.053-5.472 2.059-7.55.01-2.07-2.04-2.073-5.418-.008-7.463l20.337-20.146c2.074-2.055 5.471-2.059 7.55-.01M328.495 437.904c.88.868.88 2.305.004 3.174l-12.828 12.707a2.3 2.3 0 0 1-3.211.004 2.24 2.24 0 0 1-.003-3.174l12.827-12.707a2.297 2.297 0 0 1 3.212-.004zM344.117 453.309c.88.868.88 2.305.004 3.174l-12.828 12.707a2.3 2.3 0 0 1-3.212.004 2.24 2.24 0 0 1-.003-3.174l12.828-12.707a2.297 2.297 0 0 1 3.212-.004zM343.863 461.34l39.079-.02a4.21 4.21 0 1 1 .527.582l.218 45.267a4.21 4.21 0 0 1 5.634 6.235 4.21 4.21 0 0 1-6.347-5.503l-45.786.026a4.21 4.21 0 0 1-6.347 5.489 4.21 4.21 0 0 1 5.46-6.38l.15-38.466zm2.9 10.324-.1 25.933 26.653-.015-.125-25.932zM376.83 337.79l-77.092 76.024 6.869 6.773 76.996-75.928zm-88.863 87.631-13.365 13.18 6.773 6.869 13.461-13.275zM375.785 357.35l-38.857 38.318 6.773 6.868 6.358-6.27 6.82 6.916-6.359 6.27 6.673 6.766 6.358-6.27 8.794 8.918-6.052 5.968 12.854 13.034 12.984-12.804-35.61-35.37 6.034-5.952 22.33 22.292 13.33-13.144 6.313 6.402-8.81 8.687 6.773 6.869 15.718-15.5-22.685-22.595-13.238 13.055-12.863-12.839 6.229-6.142 6.47 6.561 6.767-6.672zM252.283 439.702c-2.069 2.04-2.071 5.419-.008 7.462l20.337 20.146c2.073 2.053 5.472 2.059 7.55.01 2.07-2.041 2.073-5.418.008-7.463l-20.337-20.146c-2.074-2.055-5.471-2.059-7.55-.01zM266.08 437.904a2.24 2.24 0 0 0-.004 3.174l12.828 12.707a2.3 2.3 0 0 0 3.212.004 2.24 2.24 0 0 0 .003-3.174l-12.828-12.707a2.297 2.297 0 0 0-3.212-.004M250.457 453.309a2.24 2.24 0 0 0-.003 3.174l12.828 12.708a2.3 2.3 0 0 0 3.212.004 2.24 2.24 0 0 0 .003-3.175l-12.828-12.707a2.297 2.297 0 0 0-3.212-.004M250.711 461.34l-39.079-.02a4.21 4.21 0 1 0-.527.582l-.218 45.267a4.21 4.21 0 0 0-5.635 6.235 4.21 4.21 0 0 0 6.348-5.503l45.786.026a4.21 4.21 0 1 0 .887-.89l-.15-38.467zm-2.9 10.324.101 25.933-26.654-.015.125-25.932zM263.153 368.34c-4.351-11.341-10.381-21.148-16.392-27.522-5.826-6.178-10.89-9.979-18.52-11.051 6.774-3.827 14.696-3.686 22.737-.52 3.937-2.403 7.333-2.454 10.241-1.494 4.305 1.423 8.554 7.038 8.153 15.138-2.87-3.437-5.422-3.737-7.289-2.83-2.965 1.442-2.456 5.096-.931 7.437 1.412 2.169 4.177 3.87 7.037 3.022 7.085-2.1 13.598-3.673 20.18-4.465.015-2.083-.123-5.296-.711-7.327-.398-1.37-.806-3.032-2.22-3.643-1.007-.434-1.94-.051-2.416.955-.312.66-.377 1.478-.399 2.532-4.928-3.308-8.841-8.3-8.676-12.73.14-3.724 2.74-5.66 6.494-5.716 2.5-.037 5.5.993 8.585 2.248-.14-2.397-.04-4.872.26-6.885.46-3.083 1.531-5.642 3.064-7.881 1.843-2.692 3.75-4.927 5.045-7.948 1.144 3.043 3.236 5.294 5.053 7.948 1.533 2.239 2.603 4.798 3.063 7.88.301 2.014.4 4.49.26 6.886 3.086-1.255 6.086-2.285 8.586-2.248 3.754.056 6.354 1.992 6.493 5.717.166 4.43-3.747 9.421-8.675 12.729-.022-1.054-.088-1.873-.4-2.532-.475-1.006-1.409-1.389-2.415-.955-1.414.61-1.822 2.273-2.22 3.643-.59 2.034-.727 5.255-.711 7.338 6.552.795 13.038 2.363 20.09 4.454 2.86.848 5.625-.853 7.038-3.022 1.525-2.341 2.033-5.995-.932-7.436-1.866-.908-4.419-.608-7.288 2.83-.4-8.1 3.847-13.716 8.153-15.139 2.908-.96 6.304-.909 10.241 1.494 8.04-3.166 15.963-3.307 22.737.52-7.63 1.072-12.694 4.873-18.52 11.051-6.011 6.374-12.041 16.18-16.392 27.523-11.622-5.025-21.7-6.528-33.101-6.662-12.136-.143-23.595 1.84-35.302 6.662M212.1 527.262c8.07-.009 16.14-.058 24.21-.09a100 100 0 0 0 5.258-.164c6.153-.35 13.176-1.223 19.074-3.055 3.648-1.134 6.846-2.631 10.278-4.257.873-.413 1.748-.822 2.631-1.212 7.42-3.282 15.154-5.943 23.367-5.932 7.126.01 15.52 2.676 22.09 5.37 4.824 1.98 9.277 4.395 14.276 6.042 3.922 1.292 8.341 1.992 12.437 2.465 4.539.524 9.192.804 13.761.81 7.824.011 15.646.115 23.47.167a132 132 0 0 1-4.88 3.978c-6.198-.054-12.397-.121-18.596-.13a126 126 0 0 1-14.215-.836c-4.377-.506-9.043-1.26-13.234-2.64-2.69-.888-5.284-1.975-7.863-3.144-2.221-1.005-4.425-2.071-6.68-2.997-6.043-2.478-14.016-5.06-20.57-5.07-7.606-.01-14.87 2.55-21.739 5.589-.851.376-1.695.77-2.537 1.169-3.608 1.71-6.968 3.27-10.805 4.462-6.219 1.933-13.547 2.86-20.037 3.23a103 103 0 0 1-5.47.17c-6.443.026-12.886.062-19.33.08a132 132 0 0 1-4.897-4.005m151.969 13.616a131 131 0 0 1-7.257 3.967 136 136 0 0 1-11.81-.791c-4.497-.497-9.388-1.237-13.691-2.654-2.677-.881-5.246-1.97-7.804-3.148-2.19-1.007-4.365-2.077-6.597-2.991-5.999-2.46-13.472-5.063-19.997-5.07-7.546-.01-14.76 2.278-21.594 5.3-2.097.928-4.142 1.976-6.22 2.944-2.468 1.149-4.95 2.167-7.553 2.975-6.587 2.047-14.352 3.002-21.229 3.303q-1.017.045-2.035.069a131 131 0 0 1-7.232-3.965l5.26-.023a97 97 0 0 0 3.831-.092c6.524-.285 13.964-1.185 20.214-3.126 2.43-.755 4.745-1.709 7.049-2.781 2.103-.98 4.17-2.037 6.29-2.975 7.37-3.259 15.09-5.655 23.224-5.645 7.114.008 14.978 2.69 21.516 5.37 4.788 1.964 9.164 4.405 14.133 6.041 4.026 1.326 8.668 2.012 12.876 2.477 4.63.512 9.38.793 14.039.799q2.293.004 4.587.015m-26.07 11.706c-2.34.756-4.707 1.452-7.102 2.078-2.17-.806-4.29-1.744-6.391-2.717-2.327-1.08-4.649-2.233-7.021-3.205-5.955-2.44-12.937-4.634-19.424-4.64-7.308-.007-15.257 2.372-21.882 5.301q-.723.32-1.435.661c-1.816.865-3.597 1.798-5.42 2.652a55 55 0 0 1-4.814 1.998 131 131 0 0 1-7.222-2.106 56 56 0 0 0 4.215-1.12c4.173-1.297 7.618-3.193 11.514-5.049q.764-.365 1.538-.708c7.157-3.164 15.621-5.652 23.51-5.644 7.047.007 14.47 2.288 20.942 4.94 5.064 2.074 9.749 4.745 14.993 6.471 1.285.423 2.629.781 4 1.088" style="fill:#bba24d;fill-rule:evenodd"></path><path d="m315.014 279.673-37.462.392-.06-5.69 2.966-.03c3.297-.035 6.389-1.085 6.327-6.95l-.482-46.088c-.044-4.173-1.958-6.862-6.185-6.818l-3.54.037-.06-5.833 37.605-.394.061 5.834-3.539.037c-4.075.042-6.094 1.833-6.04 6.945l.477 45.659c.05 4.726 2.224 7.29 6.477 7.244l3.395-.035zM244.978 216.722l-.567.26c-4.131 1.893-6.67 6.43-3.646 13.029l23.622 51.547-5.852 2.682-64.984-28.944 14.865 32.438c1.865 4.07 4.157 6.213 6.912 6.856 1.885.44 3.994.022 6.054-.922l.959-.44 2.257 4.927-24.213 11.095-2.257-4.926.958-.439c1.664-.762 3.162-1.749 4.104-3.172 1.57-2.373 1.896-5.407-.394-10.404l-16.355-35.69c-.91-1.986-2.218-4.064-4.11-5.31-2.014-1.327-4.47-1.83-7.727-.338l-1.522.698-2.317-5.056 21.829-10.003 54.368 24.105-11.964-26.107c-2.406-5.25-6.726-8.23-12.232-5.707l-.958.439-2.317-5.056 23.17-10.618zM401.828 253.733l-4.869-1.991c.26-4 .952-8.95-1.809-12.842-1.656-2.334-4.52-3.78-8.384-5.355l-9.603-3.913-9.69 23.686.574.235 3.37 1.39c7.135 2.94 9.87 1.16 12.082-4.246l.227-.556 5.1 2.087-9.213 22.516-5.1-2.086.3-.733c1.915-4.68 2.387-8.588-5.063-11.636l-4.394-1.798-7.534 18.415c-.812 1.985-1.305 3.577-1.327 4.946-.022 1.37.295 2.47.833 3.362.949 1.576 2.694 2.564 4.78 3.418l1.684.688-2.008 4.908-35.338-14.458 2.008-4.908 1.284.526c1.594.652 3.366 1.14 4.902 1.108 1.348-.029 2.644-.478 3.877-1.742.958-.984 1.749-2.515 2.63-4.67l16.179-39.543c.944-2.307 1.736-4.933 1.012-6.748-.564-1.411-1.915-2.973-3.924-3.795l-3.01-1.231 2.062-5.04 55.448 22.685zM163.39 367.3l-2.6 7.637-23.953 5.022-.03.089 19.933 6.786-2.025 5.949-26.654-9.074 2.584-7.591 23.969-5.068.03-.089-19.933-6.785 2.025-5.95zM147.627 412.685l.01-.093-12.2-9.371-.922 9.24zm4.59-3.736-.346 3.453-.67 6.72-1.309 13.112-4.415-.44 1.262-12.646-6.97-.036-1.094 10.966-4.415-.44 1.039-10.407-7.942-.039-1.086 10.873-4.415-.44 1.039-10.407.68-6.813 6.478.082 1.249-12.506-6.023-4.654.7-7zM147.827 452.402q.852-3.242.543-6.746a9 9 0 0 0-.329-1.664 5.4 5.4 0 0 0-.77-1.62q-.475-.705-1.33-1.14-.813-.437-1.977-.32a1.95 1.95 0 0 0-1.42.8q-.537.714-.921 1.742-.375 1.122-.65 2.421-.32 1.258-.667 2.66a22 22 0 0 1-.783 2.717 9.3 9.3 0 0 1-1.337 2.442 7.6 7.6 0 0 1-1.964 1.846q-1.23.688-3.036.868-4.544.36-6.86-2.944t-2.83-8.436q-.25-2.52-.102-4.278.104-1.801.353-4.183l5.118.102q-1.341 3.621-.99 7.545a9 9 0 0 0 1.27 3.785q1.069 1.779 2.92 1.64 1.004-.099 1.67-.732a5.4 5.4 0 0 0 1.041-1.753q.75-2.243 1.358-5.084.346-1.401.867-2.678.477-1.32 1.213-2.478a7.6 7.6 0 0 1 1.964-1.846q1.179-.777 2.865-.945 4.665-.372 7.022 2.928 2.222 3.17 2.664 7.604.42 4.2-.226 7.893zM151.29 463.9l-2.475-9.046 4.28-1.171 6.682 24.426-4.28 1.17-2.475-9.046-22.878 6.26-1.733-6.334z" style="fill:#439549;fill-rule:evenodd"></path><path d="m158.513 475.742 3.021 6.353-16.36 17.073.041.085 23.528-1.997 2.8 5.887-30.161 2.139-3.464-7.285zM172.203 503.577l11.081 15.826-3.634 2.545-7.316-10.448-5.684 3.98 6.698 9.564-3.635 2.545-6.698-9.565-6.476 4.536 7.37 10.525-3.635 2.545-11.136-15.903zM185.102 521.992l6.364 6.302q5.589 5.42 7.41 11.312a11.17 11.17 0 0 1-.043 5.975q-.864 3.005-3.844 6.015-2.925 2.952-5.891 3.817a11.4 11.4 0 0 1-6.032.158q-2.973-.73-5.826-2.646-2.853-1.918-5.586-4.624L165.29 542zm-12.025 21.474 2.6 2.573q3.065 3.036 7.119 3.474 4.026.467 7.328-2.735 3.198-3.361 2.692-7.383-.506-4.02-3.572-7.057l-2.6-2.574zM217.193 549.668l5.58 3.46-14.837 23.93-5.58-3.46zM226.39 555.94l8.188 3.629q7.15 3.08 10.947 7.939a11.17 11.17 0 0 1 2.083 5.6q.261 3.116-1.455 6.989-1.684 3.798-4.15 5.661a11.4 11.4 0 0 1-5.581 2.293q-3.039.373-6.387-.404-3.349-.778-6.864-2.336l-8.19-3.629zm-3.608 24.345 3.344 1.482q3.945 1.748 7.89.716 3.929-.995 5.877-5.16 1.794-4.28-.108-7.858-1.902-3.579-5.847-5.326l-3.344-1.483zM256.96 580.609l2.1.492q1.232.29 2.502.421 1.215.16 2.265-.007a4.24 4.24 0 0 0 1.866-.764q.732-.657 1.017-1.874.295-1.258-.078-2.131a4.1 4.1 0 0 0-1.35-1.436 9 9 0 0 0-2.035-.974 80 80 0 0 0-2.456-.618l-2.1-.493zm-3.648-13.203 6.895 1.617q2.647.62 5.287 1.282 2.62.738 4.655 1.92 2.09 1.154 3.045 3.035.92 1.83.292 4.709-.57 2.435-2.72 3.795t-5.346 1.025l-.019.079q1.25.418 1.87 1.474t.846 2.146l2.598 11.92-7.122-1.67-1.827-9.46q-.235-1.673-.99-2.553-.813-.854-2.775-1.315l-2.055-.481-2.67 11.39-6.393-1.5zM295.628 577.987l-.094-.001-8.3 12.95 9.284.134zm-4.113-4.255 3.47.05 6.752.097 13.176.19-.063 4.436-12.708-.183.557 6.947 11.02.159-.065 4.437-10.456-.151.636 7.917 10.926.157-.064 4.436-10.457-.15-6.846-.099-.47-6.462-12.566-.18-4.125 6.395-7.034-.1z" style="fill:#439549;fill-rule:evenodd"></path><path d="m323.636 575.896-9.204 1.806-.854-4.354 24.85-4.876.854 4.354-9.204 1.806 4.567 23.276-6.443 1.264zM357.447 566.989q-3.353-.03-6.674 1.128a9 9 0 0 0-1.532.727 5.5 5.5 0 0 0-1.382 1.143q-.567.635-.778 1.569-.225.896.173 1.996.303.835 1.126 1.18t1.914.466q1.178.087 2.507.036 1.298.003 2.74-.005 1.43-.045 2.827.092 1.454.16 2.696.698a7.6 7.6 0 0 1 2.272 1.45q.968 1.023 1.586 2.73 1.463 4.318-1.171 7.374t-7.485 4.812q-2.381.861-4.122 1.149a92 92 0 0 1-4.142.683l-1.156-4.986q3.84.412 7.557-.891a9 9 0 0 0 3.357-2.16q1.462-1.473.875-3.233-.343-.948-1.12-1.44a5.4 5.4 0 0 0-1.955-.579q-2.358-.175-5.261-.069-1.445.008-2.81-.184-1.396-.137-2.7-.567a7.6 7.6 0 0 1-2.27-1.452q-1.043-.952-1.62-2.545-1.504-4.432 1.116-7.526 2.53-2.932 6.719-4.448 3.967-1.437 7.707-1.717zM371.399 554.156l15.084-10.175 2.482 3.679-9.642 6.503 3.88 5.752 9.175-6.188 2.481 3.678-9.175 6.189 6.903 10.233-5.443 3.672zM396.907 554.813q-4.65-4.65-4.498-10.335.09-5.68 5.598-11.246 5.562-5.448 11.276-5.57 5.685-.152 10.305 4.47 4.56 4.625 4.532 10.3-.037 5.799-5.518 11.394-5.629 5.514-11.332 5.513-5.713.123-10.363-4.526m4.841-4.842q2.762 2.83 6.428 3.443 3.75.7 7.288-2.725 1.79-1.79 2.424-3.679.632-1.887.335-3.644-.68-3.598-3.476-6.394-2.766-2.766-6.37-3.385-3.726-.61-7.232 2.783-3.358 3.472-2.715 7.165.552 3.67 3.318 6.436M424.374 522.55l1.255-1.754q.738-1.03 1.343-2.153a7.8 7.8 0 0 0 .857-2.098q.245-1.035.004-2.015-.329-.927-1.345-1.655-1.05-.752-2-.74a4.07 4.07 0 0 0-1.842.7 9 9 0 0 0-1.677 1.51q-.77 1.007-1.506 2.036l-1.256 1.754zm-13.597-1.66 4.123-5.757a362 362 0 0 1 3.2-4.4q1.68-2.14 3.549-3.572 1.862-1.492 3.966-1.66 2.043-.15 4.465 1.525 2.034 1.455 2.472 3.962.44 2.504-1.09 5.333l.066.047q.863-.998 2.076-1.167a7.1 7.1 0 0 1 2.306.036l12.012 2.14-4.259 5.948-9.443-1.916q-1.635-.42-2.738-.057-1.099.426-2.272 2.065l-1.228 1.716 9.511 6.81-3.821 5.338zM425.222 499.528l8.47-17.365 3.987 1.945-5.591 11.464 6.236 3.042 5.12-10.495 3.987 1.945-5.118 10.495 7.106 3.466 5.632-11.55 3.989 1.946-8.511 17.45zM434.789 479.612l2.218-7.755 23.674-6.204.026-.09-20.245-5.79 1.728-6.042 27.071 7.742-2.205 7.71-23.688 6.249-.025.09 20.245 5.79-1.728 6.042zM442.283 449.825l.8-6.516 27.947 3.431-.8 6.517zM443.968 439.385l-.053-8.066 20.973-12.613v-.093l-21.056.138-.042-6.283 28.156-.186.053 8.019-20.974 12.66v.093l21.057-.139.041 6.284zM443.385 383.404a24.6 24.6 0 0 0 .237 8.568q1.191 5.596 4.61 8.005 3.43 2.456 7.776 1.562 4.307-.885 6.399-4.332 2.22-3.424 1.202-8.577-.538-2.618-1.264-4.145l-7.192 1.479 1.398 6.798-4.347.893-2.662-12.953 14.857-3.055a44.5 44.5 0 0 1 3.556 10.09q1.625 7.899-.84 13.338-2.349 5.606-9.333 7.089-14.646 2.676-18.355-14.563-1.075-5.429-.79-9.652z" style="fill:#439549;fill-rule:evenodd"></path><path d="m103.627 311.81-1.531 2.858 13.18 7.062-.03.057-18.018 1.967-1.96 3.658 16.03 8.587 1.53-2.858-12.905-6.914.03-.057 17.62-1.886 2.082-3.886zM91.563 334.237l-1.236 3.379 3.138 4.77-3.305 9.043-4.429-1.24-3.861 10.565 2.153.787 2.838-7.763 5.783 1.63-2.682 7.338 2.153.787 2.738-7.49 5.136 1.43-3.083 8.432 2.154.788 4.885-13.366zm.659 17.773 2.715-7.429 6.605 10.008-.022.06zM94.557 384.623q.385-.719.702-1.495c.213-.523.401-1.04.565-1.562.165-.529.298-1.03.405-1.522a12.4 12.4 0 0 0 .303-2.859c-.02-.9-.164-1.723-.43-2.451a4.64 4.64 0 0 0-1.185-1.836q-.784-.738-1.966-1.007-1.032-.217-1.87.015a4.3 4.3 0 0 0-1.538.791q-.697.56-1.29 1.316-.589.75-1.124 1.578-.536.827-1.053 1.6-.522.765-1.072 1.358c-.365.39-.753.68-1.173.87q-.621.28-1.361.128-.782-.181-1.24-.715a3.24 3.24 0 0 1-.668-1.27 5.6 5.6 0 0 1-.196-1.514c0-.525.054-1.017.154-1.476.124-.542.294-1.091.51-1.636q.33-.824.694-1.54.365-.718.67-1.225l-2.298-.836a30 30 0 0 0-1.001 2.114c-.311.729-.551 1.478-.73 2.252a16.2 16.2 0 0 0-.394 3.194q-.023 1.528.369 2.774.385 1.247 1.26 2.096c.579.564 1.34.958 2.286 1.171.73.155 1.392.156 1.993.012a4.7 4.7 0 0 0 1.644-.768 8 8 0 0 0 1.378-1.296c.42-.494.81-1.017 1.18-1.566q.555-.825 1.064-1.592a14 14 0 0 1 1.035-1.371q.514-.593 1.072-.893a1.73 1.73 0 0 1 1.192-.164c.46.106.82.312 1.075.606.255.3.435.654.525 1.072.095.42.132.859.108 1.33a8 8 0 0 1-.19 1.374c-.09.406-.184.778-.286 1.104a10 10 0 0 1-.35.941 12 12 0 0 1-.44.915c-.167.313-.357.652-.572 1.025zM74.826 394.82l-.416 3.215 15.76 2.04-.904 6.977 2.273.294 2.224-17.166-2.274-.295-.904 6.976zM90.528 431.495l.076-3.403-15.728-7.517.001-.065 16.043-6.612.082-3.63-18.37 8.117-.09 4.05zM72.797 438.682l1.11 12.625 2.282-.2-.825-9.397 5.97-.524.75 8.556 2.284-.2-.751-8.557 5.294-.465.825 9.396 2.284-.2-1.11-12.626zM74.94 460.654l1.266 6.556q.53 2.752 1.528 4.828c.67 1.384 1.48 2.515 2.442 3.397a7.67 7.67 0 0 0 3.293 1.802q1.858.489 4.102.061 1.648-.327 2.911-1.183a7.8 7.8 0 0 0 2.116-2.142 10 10 0 0 0 1.31-2.904c.305-1.077.467-2.236.494-3.468a18 18 0 0 0-.342-3.836l-1.265-6.556zm16.218.172.718 3.724q.335 1.724.171 3.29-.164 1.56-.804 2.824a6.16 6.16 0 0 1-1.748 2.12q-1.111.85-2.677 1.16-2.3.436-3.98-.255c-1.12-.461-2.047-1.278-2.772-2.448-.726-1.17-1.267-2.666-1.616-4.497l-.644-3.342zM84.841 500.023l2.124 5.643q.606 1.633 1.353 3.006c.497.916 1.057 1.686 1.672 2.31.612.617 1.294 1.036 2.047 1.238.755.206 1.585.142 2.499-.19.799-.306 1.41-.779 1.842-1.415.434-.637.68-1.387.748-2.255q.103-1.294-.343-2.786l.048-.02q.769 1.245 1.642 2.033.872.786 1.875 1.015c.672.157 1.397.086 2.175-.201q1.173-.452 1.795-1.293.617-.844.75-2.026.136-1.178-.143-2.625a19 19 0 0 0-.908-3.104l-2.157-5.734zm8.895.116.742 1.972q.38.992.639 1.994c.175.673.257 1.312.251 1.926a3.14 3.14 0 0 1-.426 1.615c-.283.47-.745.834-1.397 1.085q-.857.315-1.557.102-.701-.216-1.272-.827a7 7 0 0 1-1.03-1.505 16 16 0 0 1-.849-1.921l-.856-2.275zm7.266-2.734 1.198 3.186c.172.443.306.912.4 1.396s.118.955.078 1.414q-.065.681-.426 1.223-.36.543-1.114.835-.937.342-1.652.125c-.472-.146-.896-.436-1.264-.87a7.2 7.2 0 0 1-1-1.597 26 26 0 0 1-.859-2.061l-.628-1.669zM103.02 520.472a7.8 7.8 0 0 1 2.04-.776 6.8 6.8 0 0 1 2.138-.15q1.073.09 2.095.548 1.017.462 1.924 1.333.9.865 1.616 2.182.721 1.316.961 2.54.243 1.236.08 2.34a6.5 6.5 0 0 1-.67 2.063 7 7 0 0 1-1.286 1.712 7.8 7.8 0 0 1-1.756 1.297 8.3 8.3 0 0 1-2.004.779 7 7 0 0 1-2.103.188 6.3 6.3 0 0 1-2.09-.522q-1.023-.447-1.942-1.328-.92-.885-1.675-2.255-.743-1.376-.988-2.625-.246-1.252-.068-2.357.177-1.104.695-2.034a6.8 6.8 0 0 1 1.293-1.672 8.3 8.3 0 0 1 1.74-1.263m-1.647-3.017q-1.821 1.004-2.985 2.46a8.3 8.3 0 0 0-1.591 3.293q-.434 1.825-.062 3.93.365 2.101 1.6 4.383c.832 1.515 1.775 2.755 2.82 3.717 1.047.967 2.157 1.66 3.338 2.075a8.3 8.3 0 0 0 3.63.443c1.237-.127 2.469-.516 3.684-1.18 1.19-.648 2.168-1.465 2.938-2.44a8.5 8.5 0 0 0 1.592-3.3q.444-1.838.089-3.943-.351-2.108-1.58-4.382c-.833-1.508-1.771-2.738-2.83-3.7q-1.578-1.436-3.365-2.06a8.5 8.5 0 0 0-3.637-.446c-1.234.12-2.449.506-3.64 1.15M108.41 548.708l7.202 10.47 1.889-1.3-5.365-7.798 13.094-9.006-1.838-2.671zM120.23 565.372l4.347 5.068q1.825 2.128 3.72 3.437c1.267.87 2.531 1.45 3.803 1.74a7.66 7.66 0 0 0 3.754-.066c1.239-.33 2.433-.99 3.593-1.979q1.27-1.101 1.943-2.47a7.8 7.8 0 0 0 .777-2.909 10 10 0 0 0-.301-3.172c-.269-1.087-.703-2.173-1.29-3.257a18 18 0 0 0-2.197-3.162l-4.347-5.068zm14.172-7.885 2.469 2.878q1.144 1.334 1.779 2.774c.42.956.653 1.909.7 2.85a6.16 6.16 0 0 1-.468 2.709q-.544 1.288-1.75 2.334c-1.187 1.01-2.384 1.596-3.585 1.75-1.2.154-2.41-.096-3.62-.753-1.21-.656-2.421-1.688-3.631-3.106l-2.216-2.583zM139.213 586.43l2.38 2.202 6.05-6.54 1.35 13.387 3.473 3.214-1.912-14.83 13.643.911-3.164-2.928-12.522-.69 5.432-5.87-2.38-2.202zM158.546 603.354l10.191 7.59 1.37-1.838-7.592-5.654 9.493-12.745-2.6-1.936zM199.495 608.996l-2.767-1.688-5.372 8.808a9.2 9.2 0 0 1-1.481 1.899q-.804.775-1.763 1.106-.952.334-2.084.138-1.133-.195-2.47-1.003-1.33-.82-2.022-1.737c-.463-.613-.738-1.249-.831-1.916a4.8 4.8 0 0 1 .176-2.074c.214-.714.55-1.44 1.01-2.186l5.372-8.807-2.767-1.688-5.549 9.096q-1.324 2.189-1.354 4.214-.03 2.027 1.18 3.812 1.209 1.783 3.591 3.243 2.39 1.449 4.527 1.708 2.14.26 3.93-.695 1.787-.954 3.126-3.133zM199.268 629.204l5.534 2.392q1.597.698 3.103 1.114 1.508.417 2.822.402c.87-.011 1.645-.21 2.313-.613.673-.4 1.203-1.04 1.6-1.929.334-.787.418-1.554.262-2.309q-.236-1.128-1.104-2.104c-.572-.649-1.32-1.209-2.242-1.688l.02-.048q1.43.313 2.602.231 1.173-.08 2.033-.644c.58-.375 1.032-.945 1.366-1.704q.49-1.157.317-2.19-.179-1.029-.936-1.947-.753-.916-1.987-1.72a19 19 0 0 0-2.864-1.503l-5.623-2.431zm6.263-6.318 1.934.836q.976.415 1.877.925a7.4 7.4 0 0 1 1.56 1.157q.651.639.866 1.43c.141.529.083 1.114-.19 1.757q-.37.835-1.009 1.192c-.426.236-.922.348-1.477.34a7 7 0 0 1-1.8-.305 16 16 0 0 1-1.97-.724l-2.231-.965zm3.08-7.126 3.124 1.35a8.3 8.3 0 0 1 1.283.683q.618.403 1.071.927.445.518.583 1.155.14.636-.174 1.382-.403.912-1.057 1.274c-.432.239-.936.342-1.503.306a7.2 7.2 0 0 1-1.844-.391 26 26 0 0 1-2.08-.813l-1.636-.708zM380.729 637.726l2.999-1.23-5.674-13.836.06-.024 15.151 9.948 3.838-1.575-6.9-16.823-2.998 1.23 5.555 13.545-.06.025-14.792-9.757-4.08 1.673zM402.5 628.628l3.128-1.777.694-5.668 8.371-4.755 2.575 3.81 9.78-5.555-1.132-1.994-7.188 4.083-3.354-4.985 6.793-3.86-1.132-1.992-6.934 3.938-2.992-4.413 7.808-4.435-1.132-1.993-12.374 7.029zm10.997-13.977-6.877 3.906 1.44-11.903.056-.032zM431.857 588.566q-.759.3-1.502.686-.749.388-1.442.826c-.467.295-.893.592-1.293.897a12.4 12.4 0 0 0-2.081 1.984c-.568.7-.99 1.42-1.257 2.147q-.408 1.098-.286 2.166.122 1.072.848 2.04.646.834 1.436 1.199a4.3 4.3 0 0 0 1.684.392 8 8 0 0 0 1.834-.169q.936-.19 1.879-.476.944-.283 1.838-.538.892-.246 1.696-.341.794-.093 1.458.095.654.188 1.12.784c.32.428.48.88.483 1.346q.007.708-.313 1.4a5.6 5.6 0 0 1-.83 1.283q-.512.599-1.073 1.025c-.445.333-.93.643-1.448.917q-.783.415-1.525.725-.742.311-1.302.501l1.21 2.124q1.076-.436 2.132-.964a13.4 13.4 0 0 0 2.013-1.244 16.3 16.3 0 0 0 2.367-2.18c.671-.768 1.175-1.55 1.514-2.354q.512-1.201.396-2.414c-.077-.804-.403-1.598-.986-2.371-.456-.591-.96-1.02-1.512-1.299a4.7 4.7 0 0 0-1.75-.479 8 8 0 0 0-1.89.096q-.957.16-1.912.431-.957.27-1.842.525-.894.255-1.676.376-.776.118-1.395-.012a1.73 1.73 0 0 1-1.015-.646c-.282-.38-.423-.77-.428-1.16 0-.392.092-.779.294-1.156.199-.38.455-.74.777-1.084.32-.336.666-.65 1.035-.924.33-.252.643-.474.932-.656.294-.186.585-.347.875-.492q.436-.217.93-.413.49-.194 1.098-.411zM452.796 594.101l2.383-2.198-10.777-11.678 5.17-4.77-1.555-1.685-12.721 11.738 1.554 1.685 5.17-4.77zM463.496 556.476l-2.233 2.569 7.293 15.832-.043.049-16.565-5.166-2.382 2.74 19.317 5.495 2.658-3.058zM480.839 562.789l7.27-10.383-1.878-1.315-5.41 7.727-4.909-3.437 4.927-7.036-1.877-1.315-4.928 7.037-4.353-3.049 5.41-7.727-1.877-1.315-7.27 10.383zM492.722 545.033l3.176-5.873q1.334-2.466 1.877-4.704.54-2.239.264-4.175a7.66 7.66 0 0 0-1.406-3.48c-.75-1.04-1.796-1.918-3.134-2.647q-1.483-.791-3.002-.93a7.8 7.8 0 0 0-2.995.316 10 10 0 0 0-2.854 1.417c-.918.64-1.777 1.435-2.579 2.37q-1.205 1.406-2.166 3.184l-3.176 5.874zm-12.436-10.41 1.803-3.335q.837-1.547 1.954-2.654 1.115-1.102 2.41-1.675a6.14 6.14 0 0 1 2.697-.532q1.398.046 2.806.799 2.055 1.12 2.918 2.72c.573 1.065.772 2.285.593 3.65s-.71 2.864-1.6 4.502l-1.62 2.994zM509.028 510.12l1.109-3.046-17.087-6.22-1.11 3.047zM512.646 499.07l.92-3.108-7.942-2.353 2.384-8.05-2.198-.65-2.384 8.049-5.096-1.51 2.495-8.422-2.198-.651-3.416 11.53zM519.796 468.87l.507-3.202-8.183-1.296 1.314-8.293-2.264-.358-1.314 8.292-5.248-.831 1.374-8.677-2.265-.358-1.881 11.878zM513.37 446.526a7.8 7.8 0 0 1-2.137-.448 6.8 6.8 0 0 1-1.882-1.024 6.4 6.4 0 0 1-1.469-1.593 6.9 6.9 0 0 1-.902-2.159c-.196-.81-.255-1.712-.185-2.71q.103-1.496.56-2.657.462-1.17 1.195-2.013a6.5 6.5 0 0 1 1.676-1.377 7 7 0 0 1 2.006-.748 7.8 7.8 0 0 1 2.178-.146c.728.051 1.427.192 2.107.424a7 7 0 0 1 1.873.976 6.3 6.3 0 0 1 1.48 1.565q.62.928.919 2.166.298 1.24.196 2.803-.117 1.558-.584 2.743-.468 1.187-1.212 2.021a6.2 6.2 0 0 1-1.683 1.34 6.8 6.8 0 0 1-1.99.71 8.3 8.3 0 0 1-2.146.127m-.24 3.427q2.074.137 3.84-.462a8.3 8.3 0 0 0 3.116-1.916c.901-.869 1.621-1.96 2.17-3.277q.825-1.966 1.016-4.554c.116-1.724-.01-3.277-.372-4.65q-.538-2.07-1.693-3.547a8.3 8.3 0 0 0-2.818-2.33c-1.11-.56-2.358-.897-3.74-.993-1.351-.095-2.616.066-3.789.471a8.5 8.5 0 0 0-3.12 1.921q-1.365 1.31-2.2 3.275c-.562 1.309-.903 2.823-1.032 4.541-.111 1.72.016 3.262.39 4.642q.554 2.061 1.723 3.549a8.5 8.5 0 0 0 2.822 2.336q1.659.846 3.687.994M523.314 420.795l-.373-6.668q-.156-2.798-.866-4.989-.714-2.19-1.963-3.694a7.66 7.66 0 0 0-3.021-2.228c-1.184-.491-2.535-.692-4.057-.612q-1.678.103-3.044.782a7.8 7.8 0 0 0-2.384 1.837 10 10 0 0 0-1.689 2.703c-.447 1.026-.762 2.153-.955 3.37a18 18 0 0 0-.176 3.846l.373 6.667zm-16.047-2.35-.212-3.787q-.098-1.754.273-3.284.372-1.522 1.176-2.69a6.15 6.15 0 0 1 2.018-1.865q1.214-.694 2.808-.79c1.557-.082 2.863.18 3.91.788 1.047.607 1.856 1.54 2.418 2.797.562 1.256.897 2.813.996 4.674l.19 3.398zM521.17 394.033l-.994-5.947a23 23 0 0 0-.749-3.21q-.469-1.493-1.195-2.589c-.482-.724-1.07-1.267-1.77-1.61-.701-.348-1.527-.445-2.488-.296-.843.147-1.534.493-2.082 1.034q-.819.81-1.168 2.068c-.235.834-.299 1.765-.2 2.8l-.052.01q-.513-1.37-1.219-2.31-.703-.942-1.644-1.358c-.629-.284-1.353-.355-2.172-.223q-1.239.217-2.012.923c-.51.474-.888 1.085-1.127 1.843q-.36 1.13-.365 2.603-.004 1.48.292 3.22l1.011 6.043zm-8.705-1.83-.348-2.078a18 18 0 0 1-.242-2.08c-.041-.694 0-1.336.125-1.938q.182-.893.73-1.502c.368-.407.89-.675 1.58-.796q.901-.143 1.547.201c.43.23.794.585 1.088 1.056a7 7 0 0 1 .721 1.677c.19.636.345 1.322.462 2.047l.401 2.398zm-7.657 1.281-.561-3.356a8.3 8.3 0 0 1-.124-1.448q.003-.739.197-1.403.196-.655.654-1.117t1.254-.604q.985-.155 1.645.196c.435.234.795.6 1.072 1.097a7.2 7.2 0 0 1 .673 1.76c.171.679.32 1.404.446 2.188l.294 1.758zM507.092 371.098a7.8 7.8 0 0 1-2.154.349 6.8 6.8 0 0 1-2.125-.283 6.4 6.4 0 0 1-1.942-.96 6.9 6.9 0 0 1-1.616-1.693c-.473-.685-.851-1.507-1.144-2.463s-.438-1.85-.43-2.682q.012-1.259.394-2.307.388-1.05 1.072-1.887a7 7 0 0 1 1.605-1.417 7.8 7.8 0 0 1 1.981-.916 8.3 8.3 0 0 1 2.12-.36 7 7 0 0 1 2.097.24 6.3 6.3 0 0 1 1.942.932q.913.644 1.635 1.692.723 1.051 1.187 2.546.45 1.497.438 2.77-.012 1.276-.407 2.322a6.2 6.2 0 0 1-1.09 1.853q-.694.812-1.604 1.378c-.611.378-1.261.673-1.959.886m1.005 3.286q1.985-.615 3.42-1.808a8.3 8.3 0 0 0 2.222-2.905c.53-1.134.81-2.412.852-3.837.042-1.42-.183-2.96-.685-4.615-.51-1.652-1.184-3.056-2.013-4.21q-1.244-1.737-2.852-2.703a8.3 8.3 0 0 0-3.467-1.166c-1.236-.125-2.521.009-3.846.413-1.295.396-2.418 1-3.368 1.799a8.5 8.5 0 0 0-2.224 2.911q-.805 1.712-.882 3.845c-.055 1.424.17 2.96.665 4.61.512 1.646 1.184 3.04 2.027 4.194q1.256 1.726 2.88 2.695a8.5 8.5 0 0 0 3.473 1.17q1.851.195 3.798-.393M507.543 343.378l-4.965-11.697-2.11.895 3.698 8.713-14.628 6.21 1.266 2.984zM499.898 325.558l-3.238-5.84q-1.36-2.452-2.951-4.115c-1.065-1.108-2.187-1.932-3.375-2.472a7.66 7.66 0 0 0-3.69-.691c-1.28.073-2.583.48-3.918 1.215-.977.547-1.778 1.226-2.4 2.028a7.8 7.8 0 0 0-1.348 2.693 10 10 0 0 0-.344 3.167c.044 1.119.25 2.27.607 3.45.356 1.18.863 2.364 1.516 3.54l3.237 5.84zm-15.47 4.869-1.84-3.317q-.851-1.537-1.183-3.075-.327-1.534-.112-2.934a6.16 6.16 0 0 1 1.005-2.558q.792-1.152 2.184-1.934c1.366-.75 2.657-1.083 3.864-.993 1.207.092 2.341.58 3.394 1.467s2.031 2.142 2.931 3.774l1.65 2.977zM263.193 650.05l3.159.488 3.099-20.03-2.812-.436-6.022 3.182 1.377 2.182 3.788-2.117zM278.66 651.55c.202.096.474.191.825.287.346.1.74.193 1.167.283q.648.13 1.314.23c.439.063.858.11 1.246.134q2.107.124 3.688-.406c1.053-.35 1.946-.874 2.69-1.563a8.6 8.6 0 0 0 1.816-2.424c.476-.925.834-1.92 1.084-2.986.245-1.065.406-2.15.472-3.252q.099-1.391-.002-2.789a12 12 0 0 0-.495-2.675 7.3 7.3 0 0 0-1.18-2.293q-.79-1.024-2.06-1.665c-.848-.423-1.894-.685-3.132-.77q-1.53-.098-2.852.277a6.7 6.7 0 0 0-2.356 1.177 6 6 0 0 0-1.64 2.008c-.414.803-.656 1.723-.728 2.77a7.1 7.1 0 0 0 .278 2.555c.242.792.63 1.49 1.161 2.102q.8.92 2.013 1.479c.814.372 1.755.598 2.834.673a7.3 7.3 0 0 0 2.6-.264q1.217-.357 2.399-1.276l.066-.025q-.12 1.469-.594 2.76a7.3 7.3 0 0 1-1.317 2.277 5.6 5.6 0 0 1-2.034 1.493c-.796.347-1.712.486-2.75.429a10 10 0 0 1-2.07-.347 8.6 8.6 0 0 1-1.83-.749zm3.242-13.496q.053-.824.34-1.569.298-.744.823-1.314a3.5 3.5 0 0 1 1.294-.877q.766-.301 1.773-.244c.653.047 1.218.22 1.69.507q.709.431 1.163 1.093.445.662.645 1.424a4.7 4.7 0 0 1 .15 1.489 4.5 4.5 0 0 1-.38 1.57 3.68 3.68 0 0 1-2.244 2.018c-.528.17-1.12.24-1.785.2-.627-.044-1.171-.205-1.624-.472a3.5 3.5 0 0 1-1.102-1.032 4.3 4.3 0 0 1-.607-1.349 4.6 4.6 0 0 1-.136-1.444M302.574 643.349l1.949-.063c.724-.029 1.423.007 2.087.11.664.1 1.268.29 1.799.563q.795.411 1.273 1.145c.32.488.495 1.112.524 1.862q.017.775-.286 1.36a3 3 0 0 1-.852 1.01c-.359.283-.772.51-1.235.694-.464.18-.944.311-1.453.406a10 10 0 0 1-1.492.16 10.6 10.6 0 0 1-1.87-.11 13 13 0 0 1-1.684-.362 12 12 0 0 1-1.37-.473l-.104 2.705q.716.17 1.567.322.846.147 1.76.234.907.086 1.81.062c.889-.024 1.755-.105 2.604-.234a12.3 12.3 0 0 0 2.373-.615 6.8 6.8 0 0 0 1.93-1.094c.551-.453.98-1.02 1.278-1.692q.449-1.01.413-2.396-.056-1.435-.713-2.437-.649-1.003-1.79-1.598c-.759-.402-1.641-.673-2.643-.825l-.002-.058a7.6 7.6 0 0 0 1.808-.605 5.8 5.8 0 0 0 1.497-1.017 4.45 4.45 0 0 0 1.005-1.399q.356-.789.332-1.749-.054-1.437-.671-2.457a4.85 4.85 0 0 0-1.648-1.666 7.3 7.3 0 0 0-2.364-.92 11.6 11.6 0 0 0-2.811-.234c-.634.02-1.287.085-1.955.184q-1.002.155-1.938.388c-.619.155-1.178.323-1.668.509l.276 2.576a12 12 0 0 1 2.2-.85 11.3 11.3 0 0 1 2.715-.413 7.7 7.7 0 0 1 1.672.115q.794.155 1.413.512.627.357.99.956c.248.398.38.888.405 1.468q.017.77-.309 1.347-.33.576-.9.973-.571.403-1.285.652a8.5 8.5 0 0 1-1.47.372c-.503.084-.987.129-1.455.144l-1.789.058zM322.801 651.279c.217.053.502.092.866.116.358.03.763.042 1.2.046q.66-.002 1.333-.036c.443-.026.863-.064 1.247-.117q2.09-.299 3.534-1.132c.962-.553 1.733-1.244 2.324-2.067a8.6 8.6 0 0 0 1.298-2.737c.283-1.002.436-2.048.469-3.142a20 20 0 0 0-.185-3.281 19.5 19.5 0 0 0-.557-2.733 12 12 0 0 0-1.017-2.523 7.3 7.3 0 0 0-1.614-2.012q-.977-.847-2.35-1.222c-.915-.246-1.992-.294-3.222-.131q-1.52.21-2.74.839c-.82.42-1.509.958-2.074 1.622a6 6 0 0 0-1.208 2.294c-.246.87-.3 1.82-.162 2.861.123.901.386 1.72.78 2.448a5.7 5.7 0 0 0 1.557 1.829q.966.74 2.267 1.048c.872.203 1.839.237 2.911.095a7.3 7.3 0 0 0 2.496-.776q1.122-.592 2.097-1.728l.06-.037q.175 1.462-.034 2.823a7.3 7.3 0 0 1-.837 2.493 5.6 5.6 0 0 1-1.696 1.868q-1.067.745-2.61.968a10 10 0 0 1-2.097.072 8.5 8.5 0 0 1-1.943-.37zm.49-13.872a5.3 5.3 0 0 1 .023-1.605q.142-.789.543-1.452a3.5 3.5 0 0 1 1.095-1.117q.69-.447 1.688-.592.976-.124 1.758.16.78.282 1.357.84.568.56.915 1.267a4.66 4.66 0 0 1 .384 3.045 3.681 3.681 0 0 1-1.797 2.425c-.485.27-1.05.456-1.71.55-.623.081-1.19.032-1.686-.14a3.5 3.5 0 0 1-1.286-.791 4.3 4.3 0 0 1-.862-1.201 4.6 4.6 0 0 1-.422-1.389M355.851 635.39c1.002-.18 1.935.348 2.083 1.177s-.543 1.648-1.546 1.827c-1.002.18-1.934-.348-2.082-1.178-.149-.83.543-1.647 1.545-1.826M237.24 633.866c-1.002-.18-1.934.348-2.083 1.177-.148.83.544 1.648 1.546 1.827s1.935-.348 2.083-1.178-.544-1.647-1.546-1.826" style="fill:#bba24d;fill-rule:evenodd" data-source="https://football-logos.cc"></path><!-- source: https://football-logos.cc --></svg>