<svg xmlns="http://www.w3.org/2000/svg" viewBox="25.78 149.14 543.71 543.61"><!-- Source: https://football-logos.cc --><path d="M296.56 155.363h-.342v.012c-71.812 0-137.815 29.508-185.887 77.315-48.08 47.813-78.228 113.92-78.322 187.11v.348h.012c0 73.462 29.606 140.15 77.583 188.42 47.827 48.12 113.918 77.947 187.143 77.947 73.35 0 139.987-29.94 188.28-78.218 48.279-48.262 78.228-114.859 78.228-188.196 0-72.818-30.272-138.541-78.366-186.284-48.782-48.426-115.886-78.36-188.33-78.454m-.342-6.212h.342c74.146.095 142.81 30.718 192.714 80.257 49.23 48.871 80.217 116.15 80.217 190.693 0 75.043-30.658 143.201-80.079 192.605-49.422 49.405-117.61 80.045-192.665 80.045-74.94 0-142.59-30.535-191.552-79.797-49.107-49.409-79.41-117.65-79.41-192.806h.012v-.349c.096-74.925 30.948-142.59 80.15-191.518 49.208-48.936 116.768-79.142 190.27-79.142z" style="fill:#091e9e;fill-rule:evenodd" data-source="https://football-logos.cc"></path><path fill="none" d="M296.56 155.363h-.342v.012c-71.812 0-137.815 29.508-185.887 77.315-48.08 47.813-78.228 113.92-78.322 187.11v.348h.012c0 73.462 29.606 140.15 77.583 188.42 47.827 48.12 113.918 77.947 187.143 77.947 73.35 0 139.987-29.94 188.28-78.218 48.279-48.262 78.228-114.859 78.228-188.196 0-72.818-30.272-138.541-78.366-186.284-48.782-48.426-115.886-78.36-188.33-78.454" style="fill:#ebda01;fill-opacity:0;fill-rule:evenodd"></path><defs><radialGradient id="a" cx=".5" cy=".5" r="1"><stop offset="0%" stop-color="#fff"></stop><stop offset="100%" stop-color="#ebda01"></stop></radialGradient></defs><path d="M563.255 420.101c0-72.818-30.272-138.541-78.366-186.284-48.782-48.426-115.886-78.36-188.33-78.454h-.341v.012c-71.812 0-137.815 29.508-185.887 77.315-48.08 47.813-78.228 113.92-78.322 187.11v.348h.012c0 73.462 29.606 140.15 77.583 188.42 47.827 48.12 113.918 77.947 187.143 77.947 73.35 0 139.987-29.94 188.28-78.218 48.279-48.262 78.228-114.859 78.228-188.196z" style="fill:url(#a);stroke:#1b1918;stroke-width:.5669;stroke-linecap:butt;stroke-linejoin:miter;stroke-dasharray:none"></path><path d="M563.255 420.101c0-72.818-30.272-138.541-78.366-186.284-48.782-48.426-115.886-78.36-188.33-78.454h-.341v.012c-71.812 0-137.815 29.508-185.887 77.315-48.08 47.813-78.228 113.92-78.322 187.11v.348h.012c0 73.462 29.606 140.15 77.583 188.42 47.827 48.12 113.918 77.947 187.143 77.947 73.35 0 139.987-29.94 188.28-78.218 48.279-48.262 78.228-114.859 78.228-188.196z" style="fill:#eada00;stroke:#1b1918;stroke-width:.5669;stroke-linecap:butt;stroke-linejoin:miter;stroke-dasharray:none"></path><path d="m419.744 355.388 4.119-.495.907 8.697-4.353.494c-2.74.311-5.95.595-5.733 2.692.236 2.278 3.044 1.94 5.786 1.609l43.48-5.255 1.05 11.71-44.277 4.693c-8.25.874-15.844-1.949-16.152-11.626-.308-9.694 6.935-11.53 15.173-12.519M365.317 280.765l-8.14 8.123-8.721-6.27 42.66-40.15 10.045 7.964-25.829 51.752-9.049-6.972 6.051-9.206zm20.37-17.979-1.769-1.384-12.09 12.155 5.185 4.018zM346.384 257.723l-9.258 21.03-9.997-4.407 23.14-53.204 13.436 5.805c8.89 3.841 11.346 9.907 8.08 17.534l-3.265 7.627c-3.265 7.628-9.42 11.06-18.323 7.247zm9.585-22.812-6.25 13.731 3.767 1.703c1.261.57 4.396.231 5.587-2.275l2.89-6.08c.664-1.396.37-4.355-2.18-5.447zM296.115 247.344l-.894 23.12-10.536-.568 2.337-57.149 16.928.889c9.672.507 12.12 5.315 11.667 13.598-.604 11.058-2.36 12.112-6.852 15.394 4.44 1.555 5.645 5.112 5.489 9.084l-.4 10.177c-.109 2.758.06 6.356 1.762 9.126l-11.333-.662c-1.481-2.068-.816-4.915-.698-7.673l.4-9.38c.118-2.758-2.04-5.693-3.868-5.776zm1.129-24.385c-.178 5.242-.403 9.593-.58 14.835 1.38.076 2.76.155 4.142.227 2.02.105 3.386-1.272 3.994-3.071.886-2.62.96-4.258.455-6.972s-1.24-4.634-4.009-4.792zM215.7 231.175l6.366 10.338-12.145 7.761 5.418 8.582 11.757-7.25 5.897 9.68-11.57 7.252 6.543 10.644 12.52-8.137 6.364 10.15-21.732 13.77-30.869-49.208zM209.459 309.173l-48.287-32.705 7.041-8.553 29.92 21.41-22.4-28.753 7.697-8.459 34.955 47.748zM155.852 284.164l47.945 32.259-6.376 8.269-47.827-31.204zM156.524 329.373l-17.84-15.804 4.406-10.615 20.613 19.567 33.495 2.777-4.734 10.006-30.357-3.577 27.091 11.422-4.131 9.866-53.524-21.91 4.131-10.523zM141.411 347.074l3.756.494-1.588 9.514-4.272-.307c-1.69-.121-4.2.415-4.765 3.308-.45 2.302 1.55 3.934 5.049 4.557 2.731.487 5.918-1.25 11.295-7.565 5.171-6.072 11.314-7.643 17.614-6.167l3.709.869c8.078 1.892 13.932 6.766 12.232 16.3-1.697 9.518-10.477 12.339-18.645 10.882l-4.083-.729 1.632-10.016 4.085.729c3.266.583 6.343.158 6.874-2.746.5-2.73-.551-4.788-5.37-5.398-6.525-.827-8.934 4.787-13.63 8.77-5.593 4.743-11.23 6.023-16.596 4.665l-3.99-1.01c-8.042-2.036-10.932-9.438-9.703-15.582 1.899-9.495 10.77-11.168 16.396-10.568M271.93 213.263l2.37 11.907-14.007 2.853 2.094 9.93 13.466-2.508 2.16 11.128-13.506 2.724 2.566 12.304 14.568-3.272 2.435 11.73-25.165 5.347-11.817-56.874zM396.825 234.148c-2.873 3.508-2.821 8.303.116 10.709s7.649 1.513 10.522-1.994c2.874-3.508 2.822-8.303-.116-10.709-2.937-2.406-7.648-1.514-10.522 1.994m7.962 6.272c1.36-1.916 1.268-4.316-.205-5.36s-3.768-.339-5.127 1.577c-1.36 1.916-1.267 4.316.205 5.36 1.473 1.045 3.768.339 5.127-1.577" style="fill:#091e9e;fill-rule:evenodd"></path><path d="m459.151 338.095-11.41 4.148-5.15-13.46-9.5 3.574 4.73 12.978-10.672 3.822-4.768-12.794-11.745 4.26 5.443 13.904-11.226 4.186-9.1-24.064 54.424-20.305zM386.035 318.134l43.766-39.913 6.73 9.664-32.617 26.766 37.867-17.796 6.189 9.711-54.487 22.217zM282.796 409.393c.775-5.016 1.583-10.038 3-14.812.428-1.441 1.77-2.57 3.094-3.282 5.673-3.048 11.622-4.954 17.344-5.343 2.807-.192 4.27.491 6.469 2.156 2.992 2.265 6.62 3.638 9.375 6.187 1.971 1.825 4.109 3.658 4.687 6.282.391 1.775-1.04 3.832-1.687 5.53-.509 1.334-1.47 2.734-2.063 4.032-1.12 2.451-2.383 3.958-4.219 5.25-2.813 1.98-6.21 2.967-9.375 4.313-2.54 1.08-4.965 2-7.406 3.094-2.397 1.074-4.382.72-6.187-.282-4.426-2.456-8.153-6.064-11.72-9.656-.87-.877-1.5-2.247-1.312-3.469m-15.059-80.972a58.3 58.3 0 0 0-15.594 10.844 56.7 56.7 0 0 0-7.223 8.565c-.018 1.169.842 2.07 2 1.288 3.73-2.516 7.438-4.688 11.25-7.125 3.376-4.031 5.726-7.739 9.633-11.203.928-.823.982-2.298-.066-2.37m-12.264 91.54c9.323 7.992 21.477 13.04 35.447 13.28.843-.51 1.452-.88 2.189-1.488 1.305-1.078 2.092-1.995 2.46-3.28.4-1.392-.055-2.565-1.616-3.54-4.467-2.793-8.88-6.057-12.375-9.727-1.054-1.106-2.187-1.706-3.516-1.687-4.949.07-11.41-.944-16.547-2.719-.951-.329-2.083.533-2.719 1.312a17.3 17.3 0 0 0-3.094 5.813c-.196.643-.333 1.318-.229 2.036m42.577 13.001c9.777-.924 18.62-4.05 26.1-8.845.75-1.224 1.308-2.586.999-3.894s-1.85-2.154-3.14-2.53c-.976-.285-2.04.307-2.954.75a185 185 0 0 1-17.906 7.546c-1.161.421-2.055.726-2.766 1.922-.495.833-1.007 1.75-1.031 2.719-.02.807-.22 1.646.698 2.332m26.1-8.845q.216-.136.428-.275l.016-.01zm24.988-42.367q.15-2.07.15-4.182c0-12.563-4.245-24-11.403-33.129-.719-.432-1.484-.609-2.244-.419-1.108.277-.85 1.953-.809 3.093.088 2.467.038 5.017-.469 7.454-.348 1.674.05 2.407.61 3.421 2.773 5.032 4.053 10.227 5.484 16.313.346 1.473 1.252 2.982 2.344 4.03 1.525 1.466 4.876 4.015 6.337 3.42m-17.242-43.796c-5.783-5.332-12.746-9.476-20.478-12.066-1.158.092-1.503 1.159-.338 1.791 6.627 3.595 12.104 6.56 17.696 10.571 1.852 1.38 2.857.511 3.12-.296m-71.694 42.47c2.763-1.91 4.821-1.773 7.782.656 3.581 2.94 6.82 5.969 10.594 9 1.704 1.37 2.732 2.815 2.718 4.594-.032 4.134-.689 8.274-1.312 12.375-.33 2.176-.782 2.66-2.72 2.719-5.19.159-10.388-.793-15.468-1.875-1.75-.372-3.653-1.05-4.781-2.437-2.265-2.788-3.782-6.173-4.97-9.563-.78-2.228-1.04-4.68-.843-7.031.096-1.144.851-2.216 1.688-3 2.216-2.078 4.814-3.71 7.312-5.438m53.84-17.322c.763-2.108 2.14-2.566 3.656-3 3.259-.93 6.738-1.065 10.125-.937 3.136.118 3.838.796 5.157 2.625 1.106 1.534 2.226 3.11 2.906 4.875.806 2.094 1.04 4.367 1.5 6.563.352 1.68.65 3.32 1.031 5.063.311 1.42.763 2.6-.562 4.593-2.18 3.275-4.558 6.475-7.407 9.188-1.425 1.356-2.55 1.582-5.156.187-4.165-2.23-8.371-4.553-11.906-7.687-1.308-1.16-2.002-2.532-2.157-4.781-.06-.885-.063-8.74 2.813-16.689m-23.567-21.247a41 41 0 0 1-5.156 2.625c-3.873 1.631-6.135 2.498-9.891 4.594-1.978 1.102-4.697.828-6.469-.376-2.66-1.807-4.458-3.347-6.563-5.437-.698-.693-.72-2.206-.14-3 2.425-3.325 5.823-6.618 8.906-9.656.936-.922 1.608-1.6 3.563-1.688 4.714-.21 9.42-1.017 14.016.047 1.79.414 3.335 2.3 3.797 4.078.365 1.409-.148 2.937-.14 4.407.008 1.864-.634 3.632-1.923 4.406m4.491-3.651c.405-2.632.784-4.695.868-7.197.039-1.162 1.961-2.033 3.094-2.297 2.801-.653 5.207-.448 8.156-.328 1.77.072 3.27 1.184 4.78 2.11 2.678 1.638 5.442 3.07 7.97 4.687 2.774 1.776 5.226 3.716 8.062 5.39 1.904 1.125 3.642 2.385 3.703 4.267.064 1.936-.295 3.685-.234 5.438.077 2.204-.33 3.146-1.265 4.406-.746 1.004-2.22 1.655-3.47 1.594-3.033-.148-5.563-.157-8.906.093-2.32.174-3.38.174-4.266-.937-4.54-5.693-10.534-9.074-16.218-13.125-1.273-.907-2.511-2.557-2.274-4.101m-31.94 34.047a5.3 5.3 0 0 1-1.71 3.094c-3.292 2.896-5.893 5.554-9.677 8.062-3.24 2.148-5.53 1.218-7.534-.61-1.618-1.474-3.3-2.938-4.553-4.733-.687-.986-1.224-2.224-1.138-3.422.45-6.224 1.482-12.43 3.272-18 .375-1.17 1.513-2.465 2.505-3.188 4.146-3.023 8-5.556 12.6-7.828 2.145-1.06 2.876-1.091 3.937-.375.941.636 1.912 1.186 2.813 1.968 1.296 1.128 2.466 2.244 3.468 3.563 1.653 2.175 1.089 6.34.329 8.625-1.518 4.564-3.48 7.688-4.313 12.844m28.702-52.81c.601-.007.687-.012.76-.012 16.673 0 31.768 6.42 42.673 16.94 10.834 10.452 17.528 24.941 17.528 41.199 0 16.478-6.496 31.339-17.443 42.041-10.702 10.462-25.654 16.933-42.939 17.029-16.966.093-31.503-6.489-42.022-16.839-11.162-10.982-17.792-26.213-17.99-42.211-.007-.557-.011-.504-.011-.652 0-15.316 6.702-29.601 17.494-40.102 10.768-10.478 25.621-17.19 41.95-17.394" style="fill:#091e9e;fill-rule:evenodd"></path><path d="M266.913 328.587c1.856-.754 2.016 1.205.89 2.203-3.907 3.464-6.257 7.172-9.632 11.203-3.813 2.437-7.52 4.61-11.25 7.125-1.437.969-2.415-.648-1.829-2.157" style="fill:none"></path><path d="M244.191 353.454c-.992.723-2.13 2.018-2.505 3.188-1.79 5.57-2.823 11.776-3.272 18-.086 1.198.45 2.436 1.139 3.422 1.252 1.795 2.934 3.26 4.552 4.734 2.004 1.827 4.295 2.757 7.534.61 3.784-2.51 6.385-5.167 9.678-8.063a5.3 5.3 0 0 0 1.708-3.094c.834-5.156 2.795-8.28 4.313-12.844.76-2.286 1.324-6.45-.329-8.625-1.002-1.32-2.172-2.435-3.468-3.563-.901-.782-1.872-1.332-2.813-1.968-1.06-.716-1.792-.685-3.937.375-4.6 2.272-8.454 4.805-12.6 7.828M246.92 348.836c3.73-2.515 7.345-4.687 11.157-7.124 3.187-4.406 5.82-7.458 9.726-10.922.929-.823.982-2.3-.068-2.37a58.3 58.3 0 0 0-15.592 10.845 56.7 56.7 0 0 0-7.223 8.565c-.018 1.169.842 1.788 2 1.006M262.256 340.26c-.58.795-.557 2.308.14 3 2.105 2.09 3.903 3.63 6.563 5.438 1.772 1.204 4.491 1.478 6.469.376 3.756-2.096 6.018-2.963 9.891-4.594a41 41 0 0 0 5.156-2.625c1.29-.774 1.93-2.542 1.922-4.406-.007-1.47.506-2.998.14-4.406-.461-1.778-2.006-3.664-3.796-4.079-4.597-1.064-9.302-.256-14.016-.046-1.955.087-2.627.765-3.562 1.687-3.084 3.039-6.482 6.33-8.907 9.656" style="fill:#ebda01;fill-rule:evenodd"></path><path d="M312.323 325.992c-1.83-.518-2.673.911-1.242 1.687 6.626 3.595 12.103 6.56 17.695 10.571 2.578 1.922 3.515-.516 3.093-1.078" style="fill:none"></path><path d="M311.418 325.888c-1.158.092-1.504 1.159-.338 1.791 6.627 3.595 12.104 6.56 17.696 10.571 1.852 1.38 2.857.511 3.12-.296-5.783-5.332-12.746-9.475-20.478-12.066M295.834 331.007c.039-1.162 1.961-2.033 3.094-2.297 2.801-.653 5.207-.448 8.156-.328 1.77.072 3.27 1.184 4.78 2.11 2.678 1.638 5.442 3.07 7.97 4.687 2.774 1.776 5.226 3.716 8.062 5.39 1.904 1.125 3.642 2.385 3.703 4.267.064 1.936-.295 3.685-.234 5.438.077 2.204-.33 3.146-1.265 4.406-.746 1.004-2.22 1.655-3.47 1.594-3.033-.148-5.563-.157-8.906.093-2.32.174-3.38.174-4.266-.937-4.54-5.693-10.534-9.074-16.218-13.125-1.273-.907-2.511-2.557-2.274-4.101.405-2.632.784-4.695.868-7.197" style="fill:#ebda01;fill-rule:evenodd" data-source="https://football-logos.cc"></path><path d="M339.52 345.942c-1.106-1.406-2.501-2.266-3.88-1.922-1.106.277-.848 1.953-.808 3.093.088 2.467.038 5.017-.469 7.454-.348 1.674.05 2.407.61 3.421 2.773 5.032 4.053 10.227 5.484 16.313.347 1.473 1.252 2.982 2.344 4.03 1.812 1.742 6.204 5.014 6.937 2.72" style="fill:none"></path><path d="M349.288 377.568c0-12.562-4.244-23.998-11.4-33.127-.72-.434-1.486-.611-2.247-.421-1.108.277-.85 1.953-.809 3.093.088 2.467.038 5.017-.469 7.454-.348 1.674.05 2.407.61 3.421 2.773 5.032 4.053 10.227 5.484 16.313.346 1.473 1.252 2.982 2.344 4.03 1.525 1.466 4.877 4.016 6.338 3.42q.149-2.072.149-4.183M314.042 363.102c.763-2.108 2.14-2.566 3.656-3 3.259-.93 6.738-1.065 10.125-.937 3.136.118 3.838.796 5.157 2.625 1.106 1.534 2.226 3.11 2.906 4.875.806 2.094 1.04 4.367 1.5 6.563.352 1.68.65 3.32 1.031 5.063.311 1.42.763 2.6-.562 4.593-2.18 3.275-4.558 6.475-7.407 9.188-1.425 1.356-2.55 1.582-5.156.187-4.165-2.23-8.371-4.553-11.906-7.687-1.308-1.16-2.002-2.532-2.157-4.781-.06-.885-.063-8.74 2.813-16.689M260.202 380.424c2.763-1.91 4.821-1.773 7.782.656 3.581 2.94 6.82 5.969 10.594 9 1.704 1.37 2.732 2.815 2.718 4.594-.032 4.134-.689 8.274-1.312 12.375-.33 2.176-.782 2.66-2.72 2.719-5.19.159-10.388-.793-15.468-1.875-1.75-.372-3.653-1.05-4.781-2.437-2.265-2.788-3.782-6.173-4.97-9.563-.78-2.228-1.04-4.68-.843-7.031.096-1.144.851-2.216 1.688-3 2.216-2.078 4.814-3.71 7.312-5.438M306.234 385.956c2.807-.192 4.27.491 6.469 2.156 2.992 2.265 6.62 3.638 9.375 6.187 1.971 1.825 4.109 3.658 4.687 6.282.391 1.775-1.04 3.832-1.687 5.53-.509 1.334-1.47 2.734-2.063 4.032-1.12 2.451-2.383 3.958-4.219 5.25-2.813 1.98-6.21 2.967-9.375 4.313-2.54 1.08-4.965 2-7.406 3.094-2.397 1.074-4.382.72-6.187-.282-4.426-2.456-8.153-6.064-11.72-9.656-.87-.877-1.5-2.247-1.312-3.469.775-5.016 1.583-10.038 3-14.812.428-1.441 1.77-2.57 3.094-3.282 5.673-3.048 11.622-4.954 17.344-5.343" style="fill:#ebda01;fill-rule:evenodd"></path><path d="M290.203 433.675c1.25-.766 1.976-1.154 2.906-1.922 1.305-1.078 2.092-1.995 2.46-3.28.4-1.392-.055-2.565-1.616-3.54-4.467-2.793-8.88-6.057-12.375-9.727-1.054-1.106-2.187-1.706-3.516-1.687-4.949.07-11.41-.944-16.547-2.719-.951-.329-2.083.533-2.719 1.312a17.3 17.3 0 0 0-3.094 5.813c-.33 1.08-.492 2.25.375 3.562" style="fill:none"></path><path d="M290.919 433.241c.843-.509 1.453-.88 2.19-1.488 1.305-1.078 2.092-1.995 2.46-3.28.4-1.392-.055-2.565-1.616-3.54-4.467-2.793-8.88-6.057-12.375-9.727-1.054-1.106-2.187-1.706-3.516-1.687-4.949.07-11.41-.944-16.547-2.719-.951-.329-2.083.533-2.719 1.312a17.3 17.3 0 0 0-3.094 5.813c-.196.643-.334 1.319-.229 2.037 9.322 7.991 21.477 13.04 35.446 13.279" style="fill:#ebda01;fill-rule:evenodd"></path><path d="M299.086 433.49c-2.078-.75-1.76-1.832-1.734-2.86.024-.969.536-1.886 1.031-2.719.71-1.196 1.605-1.5 2.766-1.922a185 185 0 0 0 17.906-7.546c.914-.443 1.978-1.035 2.953-.75 1.29.376 2.831 1.222 3.14 2.53.37 1.563-.5 3.204-1.452 4.594" style="fill:none"></path><path d="M297.352 430.63c-.02.807-.22 1.647.7 2.334 9.776-.925 18.618-4.051 26.098-8.845.75-1.225 1.308-2.587.999-3.896s-1.85-2.154-3.14-2.53c-.976-.285-2.04.307-2.954.75a185 185 0 0 1-17.906 7.546c-1.161.421-2.055.726-2.766 1.922-.495.833-1.007 1.75-1.031 2.719" style="fill:#ebda01;fill-rule:evenodd"></path><path d="m124.475 394.116 53.812-.563c-.66 31.487 15.254 43.873 36.376 59.813 25.562 19.291 49.607 38.286 50.814 73.125.73 21.11-6.76 36.095-19.875 46.876-13.686 11.25-28.3 15.562-44.438 15.562h-80.812v-47.625l73.875.937c9.827.124 20.931-6.513 21.938-17.531 1.003-10.979-7.928-19.384-17.343-26.72-15.43-12.02-32.27-22.276-47.156-35.626-18.36-16.464-29.998-36.865-27.191-68.248" style="fill:#091e9e;fill-rule:evenodd"></path><path d="M263.891 447.835c20.25 7.904 40.5 6.474 60.75.375l.001 140.813h-60.938z" style="fill:#091e9e;fill-rule:evenodd"></path><path d="m402.457 390.179 57 .375-74.25 98.906 96.375 99.376-68.25.375-92.439-94.875z" style="fill:#091e9e;fill-rule:evenodd" data-source="https://football-logos.cc"></path><!-- source: https://football-logos.cc --></svg>