<svg xmlns="http://www.w3.org/2000/svg" xml:space="preserve" viewBox="0 0 155.69 185.21"><!-- Source: https://football-logos.cc --><path d="M2.685 2.687v151.895c0 12.932 9.253 18.99 22.68 18.99h33.493c7.597 0 14.137 1.422 18.986 7.381 4.849-5.959 11.393-7.382 18.99-7.382h33.492c13.428 0 22.68-6.057 22.68-18.99V2.688Z" data-source="https://football-logos.cc"></path><path d="M-277.844 31.824v143.881c0 6.615 2.513 11.936 6.824 15.318 4.312 3.382 10.16 4.856 16.786 4.856h31.173c6.759 0 11.791 1.105 15.733 5.95l1.94 2.382 1.939-2.383c3.941-4.843 8.976-5.95 15.734-5.95h31.174c6.625 0 12.473-1.473 16.785-4.855s6.826-8.703 6.826-15.318V31.825Z" style="fill:#a00a0a;fill-opacity:1" transform="matrix(1.07438 0 0 1.07438 298.509 -34.191)"></path><path d="m90.649 13.503-.548 1.175c-1.281 2.759-3.57 5.478-3.57 9.44v27.995c0 4.308 2.254 6.812 3.57 9.457l.548 1.096.532-1.096c1.316-2.645 3.57-5.15 3.57-9.457V24.12c0-3.963-2.273-6.683-3.554-9.441z"></path><path d="M-270.393 30.536c0-.465-.272-.79-.437-1.148-.166.357-.438.683-.438 1.148v3.49c0 .512.267.806.438 1.148.17-.342.437-.636.437-1.147z" style="fill:#966531;fill-opacity:1;stroke:none;stroke-width:.00575445;stroke-linecap:round;stroke-linejoin:bevel;stroke-dasharray:none" transform="matrix(8.01633 0 0 8.01633 2261.713 -220.661)"></path><path d="m112.495 7.712-4.401 13.42-14.133-.096 11.42 8.328-4.45 13.42 11.446-8.28 11.373 8.374-4.33-13.443 11.468-8.232-14.134-.025z"></path><path d="m-268 30.212-.84-.619-.845.611.329-.99-.843-.614 1.043.007.325-.992.315.994 1.043.002-.847.608z" style="fill:#966531;fill-opacity:1;stroke:none;stroke-width:.01;stroke-linecap:round;stroke-linejoin:bevel;stroke-dasharray:none" transform="matrix(12.18211 0 0 12.18211 3387.414 -326.75)"></path><path d="M-272.217 85.133v101.861c0 5.658 1.82 9.138 4.98 11.616s8.033 3.906 14.262 3.906h33.82c6.984 0 13.687 1.989 19.15 6.827.088-.077.182-.14.27-.215V85.133Z" style="fill:#fff;fill-opacity:1;stroke:none;stroke-width:.601226;stroke-linecap:round;stroke-linejoin:miter;stroke-dasharray:none" transform="translate(277.844 -31.824)"></path><g style="fill:#000"><path d="M-278.3 35.737a.4.4 0 0 0-.4.4.4.4 0 0 0 .014.107l-.03-.001a.4.4 0 0 0-.4.4.4.4 0 0 0 .4.4.4.4 0 0 0 .276-.112c-.154.7-.356 1.412-.62 1.905.252-.008.53-.303.76-.017.228-.286.506.009.758.017-.263-.492-.465-1.203-.618-1.903a.4.4 0 0 0 .274.11.4.4 0 0 0 .4-.4.4.4 0 0 0-.4-.4l-.03.002a.4.4 0 0 0 .015-.108.4.4 0 0 0-.4-.4M-275.705 35.737a.4.4 0 0 0-.4.4.4.4 0 0 0 .015.107l-.03-.001a.4.4 0 0 0-.4.4.4.4 0 0 0 .4.4.4.4 0 0 0 .276-.112c-.154.7-.356 1.412-.62 1.905.252-.008.53-.303.76-.017.228-.286.506.009.758.017-.263-.492-.465-1.203-.618-1.903a.4.4 0 0 0 .274.11.4.4 0 0 0 .4-.4.4.4 0 0 0-.4-.4l-.03.002a.4.4 0 0 0 .015-.108.4.4 0 0 0-.4-.4M-280.897 35.737a.4.4 0 0 0-.4.4.4.4 0 0 0 .015.107l-.03-.001a.4.4 0 0 0-.4.4.4.4 0 0 0 .4.4.4.4 0 0 0 .276-.112c-.154.7-.356 1.412-.62 1.905.252-.008.53-.303.76-.017.228-.286.506.009.758.017-.263-.492-.465-1.203-.618-1.903a.4.4 0 0 0 .274.11.4.4 0 0 0 .4-.4.4.4 0 0 0-.4-.4l-.03.002a.4.4 0 0 0 .015-.108.4.4 0 0 0-.4-.4M-277.156 34.172c-.147.629-.334 1.247-.57 1.69.251-.01.53-.304.758-.018.229-.286.507.009.759.017-.236-.442-.422-1.06-.569-1.689zM-274.65 34.172c-.147.629-.334 1.247-.57 1.69.251-.01.53-.304.758-.018.229-.286.507.009.759.017-.237-.442-.423-1.06-.57-1.689zM-279.662 34.172c-.146.629-.333 1.247-.57 1.69.252-.01.53-.304.759-.018.228-.286.507.009.759.017-.237-.442-.423-1.06-.569-1.689zM-279.473 38.796a.4.4 0 0 0-.4.4.4.4 0 0 0 .015.108l-.03-.002a.4.4 0 0 0-.4.4.4.4 0 0 0 .4.4.4.4 0 0 0 .275-.112c-.153.7-.355 1.413-.619 1.906.252-.008.53-.304.759-.017.229-.287.507.009.759.017-.263-.493-.465-1.204-.618-1.903a.4.4 0 0 0 .274.11.4.4 0 0 0 .4-.4.4.4 0 0 0-.4-.4l-.03.001a.4.4 0 0 0 .015-.108.4.4 0 0 0-.4-.4M-276.968 38.796a.4.4 0 0 0-.4.4.4.4 0 0 0 .016.108l-.031-.002a.4.4 0 0 0-.4.4.4.4 0 0 0 .4.4.4.4 0 0 0 .276-.112c-.153.7-.356 1.413-.62 1.906.253-.008.531-.304.76-.017.228-.287.506.009.758.017-.263-.493-.464-1.204-.617-1.903a.4.4 0 0 0 .273.11.4.4 0 0 0 .4-.4.4.4 0 0 0-.4-.4l-.03.001a.4.4 0 0 0 .015-.108.4.4 0 0 0-.4-.4M-280.897 41.787a.4.4 0 0 0-.4.4.4.4 0 0 0 .015.107l-.03-.001a.4.4 0 0 0-.4.4.4.4 0 0 0 .4.4.4.4 0 0 0 .276-.112c-.154.7-.356 1.412-.62 1.905.252-.008.53-.303.76-.017.228-.286.506.01.758.017-.263-.492-.465-1.203-.618-1.903a.4.4 0 0 0 .274.11.4.4 0 0 0 .4-.4.4.4 0 0 0-.4-.4l-.03.002a.4.4 0 0 0 .015-.108.4.4 0 0 0-.4-.4M-273.867 44.344a.4.4 0 0 0-.4.4.4.4 0 0 0 .015.107l-.03-.001a.4.4 0 0 0-.4.4.4.4 0 0 0 .4.4.4.4 0 0 0 .275-.112c-.153.7-.355 1.413-.619 1.906.252-.009.53-.304.759-.018.228-.286.507.01.759.018-.263-.493-.465-1.204-.618-1.904a.4.4 0 0 0 .274.11.4.4 0 0 0 .4-.4.4.4 0 0 0-.4-.4l-.03.002a.4.4 0 0 0 .015-.108.4.4 0 0 0-.4-.4M-275.519 47.414a.4.4 0 0 0-.4.4.4.4 0 0 0 .015.108l-.03-.002a.4.4 0 0 0-.4.4.4.4 0 0 0 .4.4.4.4 0 0 0 .276-.111q-.034.15-.07.301h.42q-.036-.15-.07-.3a.4.4 0 0 0 .274.11.4.4 0 0 0 .4-.4.4.4 0 0 0-.4-.4l-.03.003a.4.4 0 0 0 .015-.108.4.4 0 0 0-.4-.4z" style="fill:#000;stroke:none;stroke-width:.0101369;stroke-linecap:round;stroke-linejoin:bevel;stroke-dasharray:none" transform="matrix(8.01633 0 0 8.01633 2261.713 -220.661)"></path><path d="M-272.564 47.414a.4.4 0 0 0-.4.4.4.4 0 0 0 .015.108l-.03-.002a.4.4 0 0 0-.4.4.4.4 0 0 0 .4.4.4.4 0 0 0 .275-.111c-.06.276-.129.555-.206.821q.111.068.218.143h.32v-.734l-.051-.228a.4.4 0 0 0 .051.04v-1.184a.4.4 0 0 0-.192-.052z" style="fill:#000;stroke:red;stroke-width:.0101369;stroke-linecap:round;stroke-linejoin:bevel;stroke-dasharray:none" transform="matrix(8.01633 0 0 8.01633 2261.713 -220.661)"></path></g><path d="M-270.059 44.053c-.34 0-.626.162-.882.363-.257.201-.49.445-.725.623l-.08.06.08.06c.236.178.468.421.725.622.256.202.542.364.882.364h4.754c.37 0 .662-.159.914-.36.253-.2.47-.445.696-.629l.072-.056-.072-.059c-.227-.184-.443-.428-.696-.629-.252-.2-.544-.36-.914-.36z" style="stroke-linecap:round" transform="matrix(8.01633 0 0 8.01633 2261.713 -220.661)"></path><path d="M-270.058 44.128c-.633 0-1.077.603-1.563.97.486.368.93.971 1.563.971h4.754c.696 0 1.096-.592 1.562-.97-.466-.378-.866-.971-1.562-.971z" style="fill:#966531;fill-opacity:1;stroke:none;stroke-width:.01;stroke-linecap:round;stroke-linejoin:bevel;stroke-dasharray:none" transform="matrix(8.01633 0 0 8.01633 2261.713 -220.661)"></path><path d="M-268.662 39.404v.371h.246v1.948h-.246v.369h4.338v-.37h-.246v-1.947h.246v-.37zm.617.371h.21v1.948h-.21zm.58 0h.207v1.948h-.207zm.578 0h.21v1.948h-.21zm.58 0h.207v1.948h-.207zm.578 0h.21v1.948h-.21zm.58 0h.208v1.948h-.207z" style="stroke-linecap:square" transform="matrix(8.01633 0 0 8.01633 2261.713 -220.661)"></path><path d="M-268.586 39.48v.22h.246v2.097h-.246v.22h4.187v-.22h-.245V39.7h.245v-.221zm.467.22h.358v2.097h-.358zm.579 0h.358v2.097h-.358zm.579 0h.358v2.097h-.358zm.58 0h.357v2.097h-.358zm.578 0h.358v2.097h-.358zm.58 0h.357v2.097h-.358z" style="fill:#966531;fill-opacity:1;stroke:none;stroke-width:.00587752;stroke-linecap:round;stroke-linejoin:bevel;stroke-dasharray:none" transform="matrix(8.01633 0 0 8.01633 2261.713 -220.661)"></path><path d="M-201.976 35.555v47.867h-71.339v3.956h71.339V208.56h3.956V35.555Z" style="fill:#966531;fill-opacity:1;stroke:none;stroke-width:16.0327;stroke-linecap:round;stroke-linejoin:miter;stroke-dasharray:none" transform="translate(277.844 -31.824)" data-source="https://football-logos.cc"></path><path d="M-202.272 35.26v47.863h-71.349v4.556h71.349v121.185h4.556V35.26Zm.594.595h3.351v172.398h-3.35V87.084h-71.333v-3.366h71.332z" style="stroke-width:8.01634;stroke-linecap:round" transform="translate(277.844 -31.824)"></path><path d="m-150.21 36.54-122.674 136.394v14.649c0 5.71 1.836 9.218 5.025 11.719s8.113 3.944 14.4 3.944h15.116L-127.12 79.578V36.54Z" style="fill:#966531;fill-opacity:1;stroke:none;stroke-width:.801633;stroke-linecap:round;stroke-linejoin:miter;stroke-dasharray:none" transform="translate(277.844 -31.824)"></path><path d="m-141.727 36.54-131.157 145.827v5.216c0 5.71 1.836 9.218 5.025 11.719s8.113 3.943 14.4 3.943h6.632l119.707-133.1V36.541Z" style="fill:#5e6d8a;fill-opacity:1;stroke:none;stroke-width:.400817;stroke-linecap:round;stroke-linejoin:miter;stroke-dasharray:none" transform="translate(277.844 -31.824)"></path><path d="M-275.418 40.441a.25.25 0 0 0-.172.08l-2.236 2.452a.25.25 0 0 0-.065.181l.18 3.783a.25.25 0 0 0 .262.237.25.25 0 0 0 .238-.262l-.068-1.414 1.129-1.312.927.25a.25.25 0 0 0 .307-.176.25.25 0 0 0-.176-.307l-.696-.187.721-.84a.25.25 0 0 0 .06-.18l-.147-2.074a.25.25 0 0 0-.168-.217.3.3 0 0 0-.096-.014m-.195.85.1 1.387-1.8 2.095-.074-1.54zM-271.383 36.034l-1.903 2.013c-.12.127-.18.225-.18.39v3.09c0 .434.428.593.712.287l1.975-2.12a.25.25 0 0 0 .066-.17v-.643a.25.25 0 0 0-.5 0v.543l-1.754 1.894v-2.7c0-.168.012-.193.107-.293l1.647-1.743v.26a.25.25 0 0 0 .5 0V36.2c0-.276-.326-.53-.67-.166M-266.798 30.769a.25.25 0 0 0-.173.08l-2.236 2.452a.25.25 0 0 0-.064.181l.18 3.783a.25.25 0 0 0 .261.236.25.25 0 0 0 .238-.261l-.068-1.414 1.13-1.313.927.25a.25.25 0 0 0 .306-.176.25.25 0 0 0-.175-.306l-.697-.188.722-.84a.25.25 0 0 0 .059-.18l-.147-2.074a.25.25 0 0 0-.168-.216.3.3 0 0 0-.095-.014m-.196.85.1 1.387-1.799 2.095-.074-1.541z" style="fill:#000;stroke:none;stroke-width:.01;stroke-linecap:round;stroke-linejoin:round;stroke-dasharray:none" transform="matrix(8.01633 0 0 8.01633 2261.713 -220.661)"></path><path d="M-176.79 164.304c-2.848 0-5.14 2.058-5.14 4.615s2.292 4.615 5.14 4.615h25.055c2.849 0 5.145-2.058 5.145-4.615s-2.296-4.615-5.145-4.615zm.398 1.976h24.263c1.608 0 2.9 1.178 2.9 2.64 0 1.46-1.292 2.638-2.9 2.638h-24.263c-1.607 0-2.904-1.178-2.904-2.639s1.297-2.639 2.904-2.639" style="fill:#000;stroke:none;stroke-width:.117044;stroke-linecap:round;stroke-linejoin:bevel;stroke-dasharray:none" transform="translate(277.844 -31.824)"></path><path d="M-275.158 34.51v151.896c0 12.933 9.252 18.99 22.68 18.99h33.493c7.596 0 14.136 1.423 18.985 7.382 4.849-5.96 11.393-7.383 18.99-7.383h33.492c13.428 0 22.68-6.056 22.68-18.989V34.511Zm3.604 3.613h143.104V186.41c0 5.606-1.786 9.053-4.917 11.508-3.13 2.456-7.983 3.87-14.155 3.87h-33.488c-6.92 0-13.58 1.97-18.994 6.764-5.414-4.794-12.053-6.765-18.973-6.765h-33.51c-6.17 0-11.003-1.413-14.133-3.869-3.131-2.455-4.934-5.902-4.934-11.508z" style="fill:#000;stroke:none;stroke-width:.0801634;stroke-linecap:round;stroke-linejoin:round;stroke-dasharray:none" transform="translate(277.844 -31.824)"></path><path d="m-127.338 69.94-119.713 133.1.454.407 119.697-133.1zM-141.946 36.34-273.104 182.17l.438.407 131.158-145.829z" style="stroke-width:8.01634;stroke-linecap:round" transform="translate(277.844 -31.824)"></path><path d="m-277.21 48.91 13.874-15.426" style="fill:#966531;stroke-linecap:round" transform="matrix(8.01633 0 0 8.01633 2261.713 -220.661)"></path><path d="M-263.31 33.455a.04.04 0 0 0-.053.004l-13.875 15.426a.04.04 0 0 0 .002.052.04.04 0 0 0 .052-.002l13.875-15.427a.04.04 0 0 0-.002-.053" style="stroke-linecap:round" transform="matrix(8.01633 0 0 8.01633 2261.713 -220.661)"></path><path d="m-266.216 28.115-15.303 17.014" style="fill:#966531;stroke-linecap:round" transform="matrix(8.01633 0 0 8.01633 2261.713 -220.661)"></path><path d="M-266.191 28.088a.04.04 0 0 0-.053.002l-15.303 17.014a.04.04 0 0 0 .002.052.04.04 0 0 0 .053-.002l15.303-17.013a.04.04 0 0 0-.002-.053" style="stroke-linecap:round" transform="matrix(8.01633 0 0 8.01633 2261.713 -220.661)" data-source="https://football-logos.cc"></path><!-- source: https://football-logos.cc --></svg>