<svg xmlns="http://www.w3.org/2000/svg" xml:space="preserve" id="Layer_1" x="0" y="0" version="1.1" viewBox="0 -0.1 35.5 86.1"><!-- Source: https://football-logos.cc --><style data-source="https://football-logos.cc">.st0{fill:#000}</style><path d="M19.4 67.8c-.7-.5-1.7-1-2-.9-.2 0-2.1 1.2-2.7 1.6s-1.5 1.2-1.9 1.7l.3.9.6 1.8c.3.9 1 2.4 1.4 2.5.3.1 1.6.2 1.9.2h2.0999999999999996c.4 0 1.4-.2 1.6-.4s.6-1.1.9-2c0 0 .4-1.1.8-2.5l.1-.4c-.4-.4-2.4-2-3.1-2.5M25.7 66.9c.3-.3.9-2.1 1-2.7s.1-1.3 0-1.7c-.1-.3-1.6-1.7-2-2s-1.2-.7-1.8-1l-.6.3c-.8.4-.9.5-.9.5-.8.5-2.5 1.9-2.2 2.4s1.5 1.7 1.9 1.9c.4.3 2 1.4 2.4 1.8s1.9.9 2.2.5M15.9 62c-.3-.5-1.3-1.2-2.1-1.7 0 0-.1-.1-1-.4l-.3-.1c-.5.1-2.2 1-2.6 1.3-.5.4-1.4 1.4-1.4 1.7 0 .4.2 1.8.2 2.2-.1.5.3 1.9.7 2 .3.2.7.3.9.2.2 0 .9-.5 1.1-.6.1-.1 2.1-1.5 2.8-2 .6-.5 2-2.1 1.7-2.6M28.4 70.9c-.3-.3-1.2-1-1.5-1s-1.2.4-1.3.6l-.9 2.7c-.2.6-.7 2.2-.8 2.6s-.1 1.1.1 1.5 2.5.5 3.1.4c.5-.1 1.8-.5 1.9-.7.2-.2.7-1.6.9-2 .1-.4.4-2 .2-2.3-.4-.5-1.4-1.5-1.7-1.8M10.7 74c-.1-.4-.6-2-.8-2.4-.2-.5-1.1-1.8-1.6-1.6s-1.7 1.1-2 1.4c-.4.3-1.3 1.4-1.3 1.9s.3 1.8.5 2.2c.1.4.4 1.1.5 1.2s.9.9 1.3 1 1.7.3 2 .3c.4.1 1.6-.1 1.8-.5s.4-.9.3-1.2c-.1-.2-.6-1.9-.7-2.3M21.2 78.9c-.3-.1-2.1-.2-2.6-.2h-3.1c-.6 0-1.7.1-1.8.3s-.3.9-.3 1.1.6 1.6.9 2.1c.2.4.9 1.4 1.2 1.6.3.1 1.5.3 2 .4.4 0 2.2-.3 2.6-.7s1.1-1.7 1.3-2.1.5-1 .5-1.1c-.1-.3-.4-1.3-.7-1.4M29.7 80.6h-2s-1.1.1-1.6.1c-.4 0-1.6.4-1.8.7s-.5 1-.5 1.2c-.1.2-.6 1.6-.8 2.1-.2.4-.3 1.1-.2 1.3 2.9-1 5.3-2.8 7.2-5.2-.1-.1-.2-.2-.3-.2M2.2 70.8c.1 0 1.8-1.4 2.4-1.9s1.5-1.4 1.5-1.7-.5-2.3-.7-3-.5-1.6-.5-1.7c-.1-.1-.4 0-.5.1s-.5.7-.7 1.2c-.2.3-.3.6-.4.9-.2.5-.5 1.2-.7 1.8 0 .1 0 .2-.1.3L2 68.3c-.1.7-.2 1.5-.2 2.3.1.1.3.2.4.2M31.9 64.5c-.4-.9-1-1.9-1.2-2-.1-.1-.5.2-.6.4s-.6 1.9-.8 2.5-.3 2-.2 2.2c.2.2 1.8 1.7 2.4 2.2s1.3 1 1.4 1 .2 0 .3-.1c0-1.7-.3-3.3-.9-4.7zM13.2 56c-.1.1 0 .4.1.5s.8.6 1.6 1.1c0 0 .6.4 1.6 1.1l.7.5c.7-.3 2-1 2.2-1.1.3-.2 1-.7 1.7-1.1l.6-.4.4-.3c-.2-.2-.6-.4-.8-.5-.1 0-.2 0-.3-.1-.5-.1-1.8-.3-2.3-.3-.5-.1-1-.1-1.4-.1h-.4c-.5 0-2.2.3-2.6.3-.3.1-.9.3-1.1.4M12.4 85.9c0-.2-.7-2.3-1-3s-.9-1.8-1.1-1.9-2.5-.3-3.3-.4-1.6-.1-1.8 0l-.1.1c1.8 2.4 4.3 4.2 7.2 5.2.1.1.1 0 .1 0" class="st0" data-source="https://football-logos.cc"></path><path d="M17.7 51.4c7.8 0 14.5 4.5 17.8 11v-.2c-.1-.4-.2-.7-.2-1.1l-.3-1.2-.9-2.4c-.2-.6-.5-1.2-.8-1.7-.2-.5-.5-1-.8-1.6-.2-.5-.5-1-.7-1.4-.4-.7-.8-1.5-1.2-2.2-.2-.4-.4-.7-.6-1.1-.3-.5-.6-1-.9-1.6-.5-.9-1-1.8-1.4-2.7-.4-.8-.7-1.5-1.1-2.3-.2-.5-.4-1.1-.6-1.7-.1-.6-.4-1.1-.5-1.7-.3-1-.6-2.1-.8-3.1-.2-.8-.4-1.6-.5-2.4-.1-.6-.2-1.1-.3-1.7s-.2-1.2-.3-1.9c-.1-.6-.1-1.2-.2-1.9s-.2-1.3-.2-2c-.2-.5-.2-1.3-.3-2.1 0-.7-.1-1.4-.1-2.2 0-.7-.1-1.4-.1-2.1s-.1-1.4-.1-2-.1-1.2-.1-1.9c0-.2-.1-.4-.1-.6-.1-.8-.1-1.5-.2-2.3l-.3-1.8c-.1-.8-.3-1.6-.5-2.3-.2-.9-.5-1.8-.8-2.7-.2-.7-.5-1.3-.8-1.9-.7-1.3-1.3-2.6-2-3.9-.1-.2-.3-.4-.4-.7 0 0-.1 0-.1-.1v.3c.3.6.6 1.3.9 2 .3.6.6 1.2.8 1.8.3.8.6 1.7.9 2.5.2.6.4 1.1.5 1.7.2.7.3 1.5.4 2.2s.2 1.4.2 2.1c.1.9.1 1.8.2 2.7 0 .8 0 1.5-.1 2.3-.1 1.3-.2 2.5-.6 3.8-.2.6-.5 1.2-.8 1.7q-.45.6-1.2.9c-.7.2-1.4.1-2.1 0-1.1-.3-2-1-2.7-1.8-1-1.2-1.6-2.6-2.1-4l-.9-2.7c-.2-.8-.5-1.5-.7-2.3-.1-.3-.2-.6-.2-.9-.1-.5-.2-1.1-.3-1.6-.3-.7-.4-1.3-.4-1.9C9 8 9 7.3 9 6.6V4s0 .1-.1.1c-.1.3-.1.6-.2.9 0 .5-.1 1-.2 1.6 0 .3-.1.6-.1.9 0 .9 0 1.7.1 2.6 0 .4 0 .8.1 1.2.2.8.4 1.8.6 2.7.1.7.3 1.4.5 2l1.2 3.6c.5 1.3 1.1 2.5 1.3 3.8l.3 1.8c.1.9.1 1.7-.1 2.6-.1.6-.2 1.1-.4 1.7-.4 1.1-1 1.9-1.9 2.6-.8.8-1.8 1.3-2.8 1.8-.8.4-1.7.7-2.6.8-.3 0-.6.1-.8.2-.5.2-.7.4-.5.9.1.3.3.7.4 1 .6 1 1.4 1.7 2.6 1.9.6.1 1.3.2 1.9.3 1 0 1.9 0 2.9-.1.6 0 1.3-.1 1.9-.2.3 0 .6-.1 1-.2.4 0 .6.1.6.5 0 .2 0 .4-.1.5-.2.6-.4 1.2-.7 1.7-.4.7-.7 1.5-1.1 2.2-.6 1.1-1.4 2.1-2.3 3-.6.7-1.3 1.4-2 2.1-.3.3-.6.5-.8.8-.7.9-1.4 1.7-2.1 2.5-1 1.1-1.9 2.3-2.8 3.5-.7 1.1-1.3 2.2-1.8 3.4-.5 1.1-.8 2.3-1 3.5 3.3-6.4 10-10.8 17.7-10.8" class="st0" data-source="https://football-logos.cc"></path><!-- source: https://football-logos.cc --></svg>