<svg xmlns="http://www.w3.org/2000/svg" viewBox="14.17 137.75 566.93 566.38"><!-- Source: https://football-logos.cc --><path d="M297.638 137.753a283.465 283.192 0 0 1 283.464 283.192 283.465 283.192 0 1 1-283.464-283.192" style="fill:#00527f;fill-rule:evenodd" data-source="https://football-logos.cc"></path><path d="M297.638 147.791a273.426 273.154 0 0 1 273.426 273.154A273.426 273.154 0 1 1 297.638 147.79" style="fill:#fff;fill-rule:evenodd"></path><path d="M288.652 345.857c-4.511-2.614-13.053-7.372-17.436-13.28-2.427-3.271-4.551-7.327-6.25-11.918-1.066-2.883-1.838-5.624-2.536-8.617-.699-2.997-1.103-5.411-1.467-8.436-.303-2.525 1.723-6.947 2.231-8.813.091-.336.155-.936.304.184.123.925-.038 3.389-.095 4.558-.127 2.587 1.592 13.949 2.927 14.167 1.035.217 2.656-1.07 3.939-3.62 2.268-4.515 4.169-10.467 6.521-13.6.591-.787.55-.555.333.234-.519 1.883-.595 3.025-.81 4.544-.357 2.533-.193 3.655-1.245 6.813a237 237 0 0 1-2.048 5.892c-.974 2.65-1.506 4.704-1.29 7.236.39 4.55 5.142 10.634 6.638 11.866 1.577 1.298 5.538 3.254 8.77 4.21.794.234 1.284.575.97-.461-.278-.913-.567-2.156-.695-3.242-.07-.596.068-.479.265-.003.264.637.852 1.908 1.74 3.052 2.106 2.71 5.552 5.89 7.845 6.093-.756-1.625-1.69-5.052-2.622-7.321-.53-1.292-1.37-6.902-1.52-11.958-.03-.964.23-.704.301-.272.65 3.086 1.942 7.192 2.804 9.913 1.234 3.287 5.627 11.026 8.556 15.28-3.724.445-9.049.89-12.773 1.334-1.167-1.278-2.19-2.556-3.357-3.835z" style="fill:#deb877;fill-rule:evenodd"></path><path d="M298.102 384.42c-3.845 1.187-7.005 1.785-9.68 2.02-3.441.303-6.15.014-10.19.508-7.573.926-18.172 5.19-20.206 13.35-.644 2.585-.985 5.754-.757 8.728.274 3.59 1.235 6.975 1.607 9.66.74 5.354-.308 10.283-1.496 15.025-1.382 5.511-2.644 11.213-4.033 16.175a81 81 0 0 1-2.136 6.495c-.725 1.952-2.248 4.744-2.506 5.968-.624 2.959-.565 5.92-.662 9.376-.082 2.9-.881 4.226-.895 5.479-.043 3.692.432 9.83.448 14.875.004 1.332-.079 2.506-.288 3.455-.535 2.43-1.378 3.38-.18 10.16.97-.303 3.951-4.475 4.922-4.778.116-1.807-.5-4.14-.515-5.814-.004-.507.274-2.174.27-3.535-.014-4.644-.014-10.628-.039-13.669-.007-.874.659-1.897 1.072-4.169.283-1.557.584-4.043 1.16-5.503.81-2.06 2.325-3.516 3.19-5.564 1.111-2.633 1.09-4.984 1.953-8.718.03-.13 1.56.153 3.122-2.122 1.688-2.458 4.343-7.22 7.673-16.268 1.628-4.423 1.973-5.875 2.103-8.733.306-6.727-.648-8.04-.596-12.323.026-2.09-.217-5.063 1.084-7.097 1.592 1.124 2.254 3.34 2.27 5.647.011 1.692-.103 3.455-.281 5.253-.237 2.387.39 3.334.538 5.792.249 4.114-1.311 7.876-2.614 11.886 7.567 3.438 15.079 5.56 19.61 4.505-.644 6.007.925 8.437 1.708 12.334.144.722.187 1.723.265 2.557.39 4.157.46 10.887.719 13.245.218 2.003.848 4.319 1.606 10.37 1.82-.97 2.7-2.541 4.521-3.512.508-3.487 1.561-7.951 1.434-11.395-.153-4.157-1.72-7.299-1.707-11.531.012-4.343 1.221-6.133.74-13.272 1.718-.053 3.158.638 4.893.27 1.041-.221 1.77-.736 4.16-1.805 2.184-1.335 4.914-4.163 7.371-4.041.061 4.58.668 5.794 1.548 7.736 3.428-2.549 3.628-6.098 4.326-9.192-4.732-15.048-8.695-30.186-13.428-45.233-4.186-.425-7.918-2.17-12.104-2.594" style="fill:#552f23;fill-rule:evenodd"></path><path d="M311.782 400.12c-1.035-.486-4.626.175-5.389-.689-.43-.485-.501-1.34-.22-2.065.383-.99.09-1.992-.766-2.074-1.327-.125-2.715.563-4.395 1.019-2.455.666-5.035 1.274-6.999.99-4.277-.62-4.37-2.633-6.688-2.897-1.54-.175-3.063.12-4.546-.07-1.85-.239-1.982-4.24-3.852-4.225-1.342.01-3.225.958-5.179 1.37-1.336.283-2.71-.1-3.967.455-1.031.455-1.989 1.015-2.786 1.698-1.248 1.067-1.178 2.367-1.77 4.577-.365 1.36 2.736 1.326 2.325 2.093-1.009 1.882-2.494 3.377-3.209 5.215-1.274 3.276-1.852 7.642-2.07 17.228 3.926-.363 2.02 5.68 2.036 9.023.005.935-2.03 2.768-2.127 3.731-.202 2.003-.832 6.81-1.705 9.819-.776 2.676-.722 5.124.067 6.497 2.747-1.892 2.413-3.706 3.688-6.746 1.126-2.683 3.15-2.934 4.268-7.492.357-1.454.167-3.27.781-4.51.135-.272 1.127-.829 1.274-1.092.707-1.268.986-4.517 1.108-7.327.146-3.392-.804-7.262-.698-10.608.05-1.558-.843-3.104-.586-4.622.156-.918 1.464-1.47 1.943-2.38.6-1.142 2.062 3.342 2.784 2.833 1.337-.942.315-3.251 1.071-5.168.174-.44 2.238-.176 2.411-.596.557-1.35 1.148-2.763 1.967-3.295.503-.327 1.348-.476 2.014-.146 3.142 1.557 6.3 6.63 7.318 9.668.462 1.378-.404 3.57-.901 5.706-.34 1.462-.498 2.823-.29 4.114.39 2.435 2.473 4.088 2.603 6.729.159 3.25.517 6.931 1.13 9.532.262 1.11 2.55 6.362 3.168 8.735.722 2.777.808 5.503 1.655 6.725.292.421 1.397.878 2.62.522.328-1.709 1.313-5.721.603-9.684-.131-.734-.438-1.578-.442-2.434s.293-1.728.112-2.516c-1.576-6.835-4.225-14.021-2.249-19.66.407-1.16 1.624-1.099 2.22-.22 1.083 1.597 2.616 4.48 4.082 6.56 1.294 1.836 2.502 3.047 3.8 2.199.333-.218.948-2.276.193-4.484-1.44-4.215-4.229-9.558-1.049-9.205-.399-2.642-1.08-5.373-.047-5.64 3.102-.805 11.001 3.007 12.152.088 1.348-3.42-4.136-5.717-7.463-7.28" style="fill:#7a4932;fill-rule:evenodd"></path><path d="M297.647 369.631c.41 1.396-.001 2.108 0 2.958 0 .71.314.99.426 1.82.127.943.062 1.966-.857 2.151-.234.605-.17 1.174-.77 1.832-.501.548-1.207 1.176-1.257 1.888l1.82-.364c.142.69-.05 1.446-.392 1.942-.355.515-1.094 1.107-2.01 1.505-1.337.583-2.49.785-2.876 1.194 2.2.258 2.707-.509 4.314-.236-.298.648-1.285 1.012-2.267 1.467-.764.354-1.115.856-1.956 1.409.789.12 1.69-.577 2.57-.456.397.188.5.582.03.82-1.12.57-2.183.466-2.782 1.774 2.3 1.533 9.97-2.009 12.268-.453.692.469.422 1.691.03 2.649-.246.601-.76.943-.518 1.462.845 1.809 3.44-.216 4.569 1.254.766.998.938 2.726 1.08 4.32.134 1.496.049 4.286 1.046 3.419 1.138 1.778.478 4.473 1.785 5.895.604.657 1.1.266 1.545.3.267.022.567.348.72.722-.03 2.457-1.426 4.31-.455 5.995 1.305-.016 1.745-2.045 2.776-2.516.546.531.668 1.845.364 3.301.181.38.788.574 1.456.832.122 1.987.45 4.144.753 6.176l.158 12.833c.182 1.031.364 2.535.546 3.567 1.85-1.593 2.633-2.193 3.483-3.786 1.12-.102 2.464-2.317 3.197-3.608.942-1.66.957-3.503 1.988-5.038.773-1.151 1.946-2.087 2.72-3.24-.026-2.334.233-3.224.409-4.766.155-1.36.352-2.52.928-3.773.164-.356.642-.44 1.084-.495l.219 2.324c1.077-1.153.594-3.013.807-4.712.212-.698.722-.737 1.207-1.07v.976c.941-.349 2.08-2.45 2.297-2.955 1.141-2.65 1.456-3.822 2.411-5.915.304-.11.578-.268.881-.298.196-.085.092-1.022-.107-1.793-.175-.68-.481-.903-.617-1.79-.345-2.256.266-2.421.146-3.351-.115-.896-.363-1.15-.6-2.037-.232-.862-.268-2.462-.51-3.352a8.8 8.8 0 0 0-1.118-2.413c-.758-1.106-1.46-1.661-1.227-2.51.091-.456.823-.671 1.187-.671-.046-1.35-.355-1.641-.628-2.263-.03-1.293-.187-2.37-.29-3.241-.06-.508-.71-1.28-1.394-2.141 1.36-1.132.117-1.384-.26-2.433-.41-1.137-.646-2.317-1.651-3.106.074-.333.26-.77.22-1.143-.036-.34-.918-.745-1.696-1.433-.605-.536-1.117-1.274-1.321-2.087.576.121 1.132.004 1.274-.294.363-.76-1.056-1.096-1.208-1.87.072-.89.485-2.024-.376-2.796.455-.182 1.204.051 1.286-.389.083-.442-.23-.567-.667-.805-.563-.305-1.335-.696-1.744-1.106.03-.243.011-.853-.182-1.001-.578-.441-.66-.576-1.357-1.274-.157-.395-.089-1.092-.394-1.341-1.165-.953-2.512-1.238-3.847-1.936z" style="fill:#b65f25;fill-rule:evenodd"></path><path d="M285.185 341.087c2.06.317 5.75.055 8.736.665 2.066.422 4.71 2.01 7.928 3.303 1.12-1.013 2.394-2.08 3.036-2.82.455-.527.704-.829 1.1-.852.917-.056 2.465-.12 3.851-.176l.305-.266.227.56c.335-.148.85-.38 1.171-.4 1.744-.109 3.71-.066 4.777-.066.897-.182 2.348-1.483 3.577-2.867 1 .611 1.887 4.445 2.888 5.057 3.896-.578 5.268-2.004 8.313-2.874 2.287-.653 5.838-.186 8.073-1.176.315-.14.299.475.275.75-.478 5.533-5.794 9.327-7.125 9.905-.108.046-2.314.721-5.246.557-.012.364.015.972.207 1.389-.198.055-.532.083-.724-.004-.545 2.011-1.051 3.852-2.082 5.347-.908 1.147-2.984 2.198-6.143 3.182-1.06.33-2.375 1.21-3.362 1.77-2.702 1.534-4.118 3.076-5.85 5.037-2.315 2.617-3.974 3.848-6.908 4.125-1.893.179-3.128-.988-4.706-.988-.862 0-2.742.273-3.335-.167-1.079-.8-1.837-1.95-2.33-2.786-.464-.786-.42-1.904-.316-2.459-1.38-1.282-2.294-1.887.7-4.265.938-.746 1.397-.66 2.389-1.42 1.893-1.453 5.16-3.948 5.476-5.156-.254-.314-.71-.716-1.387-1.08.282-.07.58-.302.72-.493-1.447-1.582-4.223-1.144-5.557-.969-.225-.262-.475-.375-.741-.496-1.154-.524-2.625-1.048-3.785-1.946-2.448-1.894-4.65-4.928-4.949-7.478-.072-.615-.132-.587.797-.443z" style="fill:#533223;fill-rule:evenodd"></path><path d="M285.185 341.087c2.06.317 5.75.055 8.736.665 2.06.42 4.693 2 7.899 3.291a8 8 0 0 1-.533.47c-3.785-.838-6.916-.823-9.57-1.612-2.647-.787-5.13-1.879-7.201-2.9.123-.003.33.034.67.086m36.173-.341c.464 1.094.93 2.177 1.422 2.479 3.897-.578 5.27-2.004 8.314-2.874 2.287-.653 5.838-.186 8.073-1.176a.2.2 0 0 1 .079-.02c-1.134.59-2.37 1.53-3.728 2.197-1.902.934-3.894.965-6.102 1.539s-4.575 1.272-6.968 2.519c-.835.06-2.352-.64-2.094-.99.244-1.289.611-2.49 1.004-3.674M318.847 360.136q-.255.083-.518.165c-1.06.33-2.375 1.21-3.362 1.77-2.702 1.534-4.118 3.076-5.85 5.037-2.315 2.617-3.974 3.848-6.908 4.125-1.893.179-3.128-.988-4.706-.988-.329 0-.806.04-1.303.064-2.092-.583-2.887-2.195-3.477-4.119-.137-.446-.751-.623-1.26-.849.011-.195.033-.369.06-.508-1.38-1.282-2.295-1.887.699-4.265.817-.65 1.27-.668 2.03-1.164.676-.326 1.353-.716 2.03-.976 2.335-1.714 3.398-2.866 4.914-4.17 1.517-1.305 2.124-1.548 3.914-3.284l1.183-.091c-.713-.364-1.099-1.237-1.502-1.502-.53.296-1.38-.228-1.866-.592.262-.483.705-.92 1.604-1.404.425-.825 1.017-1.681 1.453-2.539.493-.972.603-2.675 1.312-2.882h2.002c.334.606.076 1.842.546 1.82.614-.029 1.178-.87 2.11-1.198.612-.215 1.154-.392 1.634-.391 1.443.002 1.596.744 3.024 1.316-.576.121-1.004.06-1.58.182.418 1.31 1.098 2.36 2.366 2.821-.713-.637-1-1.517-.182-1.32 1.04.664 1.21-.525 1.866-1.137.682.043.076.28-.013.463-.82 1.677-.826 4.015.155 5.005.364.368 2.014 1.186 3.726 1.54-.15.499-.287 1.135-.8 1.77.53.201.74.557.683 1.227-.061.7-.198 1.567-.945 2.154.392.328-.184 1.316-.69 1.993-.533.71-1.384 1.353-2.35 1.927m-7.935-4.363c-.48.562-.579.799-1.097 1.325-.53.538-1.084.76-2.84 2.795 1.824-.755 2.016.872 2.23 1.274.3-.668.584-1.353.8-1.907.19-.49.312-.961.496-1.53.243.228.645.229.797.093.637-.895 1.637-2.13 1.23-2.435-.682-.03-1.092-.06-1.616.385m-1.719-10.603c-.257.997-1.401 2.527-2.327 4.366-.362.72-.426 1.689-.79 2.39-.299.573-.393.859-.92 1.484-.662.73-2.38 2.305-3.562 3.306-.047.743.092 1.207-.327 1.5-.68.478-1.595.707-2.21 1.507.312.04.657.201.968.377-.598.265-.921.51-1.225.843.417.281.864.626 1.1.998-.57.566-.871 1.036-1.242 1.372-.822.746-1.456 1.01-2.376 1.45.121.393.015.287.136.682.971.804 4.564 2.68 7.09 2.051 1.911-.476 4.272-2.927 6.24-4.238 1.97-1.312 3.662-2.246 5.438-3.746 1.445-1.22 2.666-2.998 3.576-4.443-.91-.212-1.73-.243-2.64-.182.304-.53.561-1.062 1.456-1.456-.379-.925.255-1.532.65-2.23-.046-.622.033-.846-.24-1.605-1.198.182-3.443-.352-5.142-.26-1.638.485-3.915 1.368-4.066 4.22-.022.421-1.152.627-1.246.124-.226-1.208.118-2.585.665-4.003.581-1.51 1.383-3.066 1.61-4.516.042-.266-.43-.711-.616.01z" style="fill:#7d4a33;fill-rule:evenodd"></path><path d="M290.367 362.52c.676.781 2.116 1.702 3.167 1.95 1.052.249 1.832-.412 3.112-.755.591.092 1.228.274 1.82.456-.546 1.41-1.092 1.85-1.775 2.32-1.024.114-1.929.254-2.602.687-.579.372-1.172.756-1.734-.394-.312-.637-.167-1.006-.847-1.866l.014-.085c-.896-.833-1.596-1.38-1.155-2.314M311.55 352.225c.675-.243 1.986-.19 2.774-.478.789-.288 1.578-1.077 2.253-1.32-.456-.416-1.47-1.48-2.798-1.092-1.397.41-1.653 2.01-2.23 2.89M303.881 349.403c.343.555.433 1.508.479 2.267-.289.227-.373.33-.66.557-.123-.918-.779-1.619-.638-2.527.086-.554.659-.556.82-.297M325.94 346.54c1.413-.216 2.744-.965 3.927-1.405 1.522-.565 2.803-.801 3.702-1.537q-.705 1.528-1.405 2.566c.387.142.616.285 1.003.427-.653.737-1.476 1.213-2.415 1.23-1.373.027-2.355-.119-4.811-1.281M292.453 344.33c.065.638.666 1.454.977 1.682-.275.193-.764.54-1.1.763 1.317.79 3.943.194 6.075-.214-2.022-.58-3.567-1.752-5.952-2.23" style="fill:#13160c;fill-rule:evenodd"></path><path d="M294.821 384.3c.36-.05.743-.06 1.224.021-.298.648-1.285 1.012-2.267 1.467-.764.354-1.115.856-1.956 1.409.789.12 1.69-.577 2.57-.456.398.188.5.582.03.82-1.12.57-2.183.466-2.782 1.774 2.3 1.533 9.97-2.009 12.268-.453.692.469.423 1.691.03 2.649-.246.601-.76.943-.518 1.462.845 1.809 3.44-.216 4.569 1.254.766.998.939 2.726 1.08 4.32.134 1.496.049 4.286 1.046 3.419 1.138 1.778.478 4.473 1.785 5.895.604.657 1.1.266 1.545.3.267.022.567.348.72.722-.03 2.457-1.425 4.31-.455 5.995 1.305-.016 1.745-2.045 2.776-2.516.546.531.668 1.845.364 3.301.181.38.788.574 1.456.832.122 1.987.45 4.144.753 6.176l.158 12.833c.182 1.031.364 2.535.546 3.567 1.823-1.57 2.61-2.175 3.445-3.717a8.2 8.2 0 0 0-1.807.65c.715-1.774 1.707-2.538 2.314-4.193.589-1.606.929-3.369 1.432-5.328.255-.99.136-1.614.862-2.893.216-.38.456-.496.74.007s.659 1.372 1.205 1.804c.21-2.472 1.423-2.875 1.996-4.336.654-1.665 1.76-4.219 1.595-6.175-1.938.034-2.147 1.683-3.557 1.877-.228-.49-.38-1.115-.694-1.718-.69-.021-1.232.364-1.694.705-.744-2.609.822-3.534.716-7.827-2.034-.178-2.83 2.685-4.005 4.369-.735-2.925.55-3.733-.08-6.81-.221-1.084-1.76-1.675-2.323-3.214-.939-2.566-1.033-6.234-1.465-7.951-.608-.238-1.009-.606-1.272-1.05-.641-1.085-.104-2.63-.142-3.873-.029-.967-.504-1.66-1.27-1.903-1.154.637-1.835 1.736-3.55 1.183-.527-.17-.076-1.274.227-2.275-2.471.107-3.326-2.855-2.444-4.831-.067-1.303.038-1.934.366-3.227.255-1.006.81-2.276.486-3.335-.94 1.24-2.143 2.08-3.288 3.268-1.01 1.049-2.186 2.172-4.312 2.73 2.1-1.99 2.39-2.92 1.502-2.887-.678.024-1.668.383-2.216.649a25.4 25.4 0 0 0-4.24 2.586c-1.217.914-2.227 2.128-3.469 2.924z" style="fill:#c7792b;fill-rule:evenodd" data-source="https://football-logos.cc"></path><path d="M332.087 401.55c.691-.173 1.054 1.418 1.745 1.245.473-.118 1.273-2.002 1.746-2.12.36 1.121-.414 2.333-.054 3.454.304-.056.515-.516.831-.845.316-.33.588-.678.568-.96-.027-.391-.288-.661-.31-.998-.057-.861.33-1.667.17-2.38-.155-.69-1.134-.903-1.268-1.097-.163-.237-.518 1.031-1.075 1.547-1.23-.868-.9-1.549-1.32-2.28-.163-.284-.526-.541-.694-.783-.594-.852-.93-1.14-1.392-1.078-.484-.702-.963-1.794-1.41-2.515-.645-1.04-1.306-1.88-1.937-2.84-.67-1.02-1.312-2.163-1.997-3.283-.176-.287-1.146.014-1.308-.282-.15-.275-.326-1.032-.466-1.312-.309-.615-.474-.762-.724-1.394-.338-.85.219-1.95.018-2.81-.357-1.531-1.333-2.552-1.092-4.01.159-.96.338-1.732.718-2.621.39-.913.24-1.372.266-1.905.035-.696.475-.851.387-2.283-.082-1.312-1.343-2.122-1.167-2.791.11-.423.402-.819.965-.253.407.408.645.921.827 1.078.142.123.336.103.488-.162.316-.55-.667-2.099-1.872-3.09-.673-.554-1.53-1.021-2.042-1.178-.58-.177-.683.21-.527.678.071.213.048.494-.039.648-.117.208-.558.285-.725.114-.46-.47-2.297-1.712-3.286-1.396-.25.08-.34.548-.804.73-.361.142-.664.166-.76.402-.263.638.11 1.05.236 1.924-.495-.222-1.192-.598-1.763-.035-.134.132-.212.492-.052.633.267.235.62-.051 1.149.646.436.575-1.332 1.269-2.209 2.176-.343.355-.593.94-.423 1.206 1.339 2.09 4.502 2.8 4.865 4.228.134.526-1.29 1.167-2.067 1.814-.855.71-.678 1.286-.476 1.62 1.172.075 5.266-.45 5.357.416.043.411-.766.552-.88.95-.182.637.237 1.52-.018 2.243-.212.597-.351.63-.6 1.18-.194.43-.156 1.179-.247 1.589-.103.464-.105.92-.7 1.428.135.295.682.536 1.072.436.658-.169 1.342-.673 1.842-1.562.074-.131.447.364 1.212.374-.393 1.438-.282 3.288-.276 4.745-.553.445-.972.761-1.25 1.592-.294.885-.064 2.042-.456 2.86.138.553 1.14-1.138.98-2.081.153.152.407.094.654.321.458.424.457.82.68 1.94 1.014-1.552.12-2.116.12-3.159.347.435.874.42 1.311.526.264-.165.588-.63.733-1.064.576 1.972 1.36 3.765 2.056 4.75.54.805-.365 1.576-.91 2.444-.531.843.186.863.922.418-.172.287-.55 1.295-.642 1.862-.108.662.074.91-.064 1.528-.152.688-.56 1.014-.6 1.386-.052.475.002.935-.01 1.368-.007.273-.448.537-.425.788.057.62.216 1.168.514 1.618.32-.453.126-1.286 1.181-1.563.42-.11.417-1.472.631-2.029.218-.564.206 1.617.496 1.38.26-.212 1.025-.551 1.345-1.511.75-2.252 1.492-4.293 1.82-4.815.124 1.115-1.183 4.832-1.328 6.426.115-.099.507.952.782.428.943-1.803 1.086-3.198 1.163-2.793.4 2.118-.66 4.473-.234 3.961.51-.614 1.68-5.507 2.049-5.822z" style="fill:#c7792b;fill-rule:evenodd"></path><path d="M321.173 394.184c-1.471 1.07-2.644 2.388-3.313 4.887-.22.82-.426 2.07-.542 3.367-.16 1.776-.154 3.64.215 4.6.777-.882.654-2.008.952-2.95.178-.564.635-1.078 1.05-1.283.061 3.55.122 6.863.182 10.412.076.562.607.962.91 1.101.022-1.92.022-4.24.192-6.441.248-3.218.68-5.821.594-7.29-.41.562-.74 1.044-1.15 1.606-.03-.804-.092-1.609.046-2.412 2.525-.558 4.343-2.15 5.678-4.052 1.514-2.156 2.546-5.44 2.57-8.326-1.19.714-2.388 3.029-3.236 4.138-.254.332-.215.75-.383 1.126-.553 1.233-1.266 2.865-2.019 3.868-.171.229-.698-.104-.936.173-.237.277-.187.77-.465.922-.185.1-.377.085-.572.09-.167-.97-.091-2.202.227-3.536m9.229-16.544c-.18.009-.293 1.658-.166 1.895.777 1.451.666 3.559.446 5.116-.223 1.58-1.13 3.523-.87 5.165 1.412-1.714 2.056-3.907 2.325-7.123.017-.201.065-.822.45-1.303.22.41.575 1.91.876 2.712.362-1.277.59-1.806.861-2.2.333.78.461 1.195.544 2.54.348-1.372.48-2.592.25-4.15-.034-.23-.766-.065-.771-.045-.164.648-.567 1.467-.77 1.814a8.3 8.3 0 0 0-.75-1.677c-.305-.497-.48.34-.782.84-.522-2.086-1.03-3.616-1.643-3.584m4.081 21.337c.274-1.004.225-2.043-.045-3.107-.337 1.27-.29 2.084.045 3.106m-9.123 9.972c.902-2.265 1.395-2.738 2.093-3.982v8.077c-.159.508-.283.667-.351 1.357.28.052.519.18.868-.062.646-1.268 1.087-2.1 1.547-3.226a197 197 0 0 0 1.708-4.273c.443-1.164.736-2.26 1.195-3.201.304-.626.689-1.185.995-1.653-.152.789-.165 1.578.351 2.366.738-.828.853-2.356.74-4.277-.1-.393-1.213-.4-1.456.023-1.1 1.753-2.108 4.754-3.094 7.03-.033-1.193-.308-.747-.406-1.058-.163-.518-.338-1.064-.467-1.503.442-1.099.951-2.81.917-3.954-.684 1.947-.768 2.205-1.158 2.973-.201-.68-.347-1.647-.549-2.328-.182.106-.521.212-.703.319-.03.682-.061 1.129-.091 1.811-.636 1.28-1.314 2.03-1.704 3.028-.304.776-.39 1.74-.435 2.533m-1.706-9.306c-.47 1.109-1.158 3.366-1.98 5.573.322 1.846.282 5.185.432 6.302.565-1.736.433-4.324.716-6.197.301-1.995 1.627-4.369.832-5.678" style="fill:#e8b762;fill-rule:evenodd"></path><path d="M267.095 496.593c-1.183-11.073-4.005-25.696-3.823-35.677-.528-.829-1.222-2.514-1.07-4.336.13-1.554 1.076-3.29 2.24-4.804 2.978-3.87 7.588-7.773 8.212-15.64-1.119-.213-1.752-.304-2.753-.488l.035-.094c1.628-4.423 1.973-5.875 2.103-8.733.306-6.728-.648-8.04-.595-12.323.025-2.09-.218-5.063 1.083-7.097 1.592 1.124 2.254 3.34 2.27 5.647.011 1.692-.103 3.455-.281 5.253-.237 2.387.39 3.334.538 5.792.249 4.114-1.311 7.876-2.614 11.886 4.92 2.236 9.816 3.914 13.885 4.525-1.93 7.414-11.846 14.215-14.973 17.133-1.408 3.685-2.436 6.548-2.693 10.622-.132 2.1-.125 4.432.031 7.03.087 1.435.147 3.031.437 4.707.437 2.53 1.198 5.243 1.767 7.854l3.996 5.62c-2.123.91-5.671 2.213-7.795 3.123M310.579 437.626c.31 3.585 2.32 8.06 2.485 12.135.158 3.91-1.814 7.204-1.904 7.552-.643 2.476-.968 6.266-.98 9.005 2.506-.525 4.855-1.05 7.36-1.576.588-3.144-.864-6.648-.297-9.794.64-3.557 4.359-8.245 5.87-20.162-.512 2.373-1.289 4.783-3.805 6.654-.88-1.942-1.487-3.155-1.548-7.736-2.386-.118-5.03 2.546-7.181 3.922" style="fill:#1f211a;fill-rule:evenodd"></path><path d="M318.217 341.098c1.457-6.497 3.469-9.164 4.11-12.27.587-2.843 1.183-6.604 1.998-11.527.148-.892.462-.759.435.143-.11 3.702-.404 10.046-.654 12.722-.476 2.465-2.34 5.696-2.712 9.333 1.202-.298 7.279-4.234 7.896-4.962 1.39-1.638 2.238-2.822 3.829-5.382 1.03-1.66 2.24-4.23 2.497-6.88.042-.429.344-.394.315.042.238 2.63-.546 5.59-2.723 10.02-.488.992.453.461 1.194-.05 4.33-2.988 9.152-5.855 13.28-9.078 2.83-2.208 4.456-4.385 5.542-7.951 1.023-3.36 1.62-8.749 2.087-12.475.11-.87.538-.797.565.113.09 3.097.245 8.885-.186 12.779 3.708-4.527 7.36-14.249 5.65-17.597-.937-1.686-2.293-3.568-3.246-5.264-2.208-3.805-5.028-8.98-6.43-12.375-.203-.491-.098-.68.298-.323 1.031.93 4.22 5.596 5.764 8.147.805.853 2.798 3.274 3.558 4.283 2.315 3.074 3.741 4.326 4.98 5.107.756.478 1.732.562 2.413.054 1.01-.753 1.85-2.005 2.482-3.7a21.1 21.1 0 0 0 1.323-8.052c-.132-3.776-1.088-5.843-1.237-7.996-.022-.314.267-.585.384-.287.591 2.325 1.932 3.143 2.648 5.56.333 1.12.537 2.525.64 4.074.159 2.418.187 5.191.94 7.79-2.559 6.477-6.317 12.572-11.182 18.432-1.78 2.142-3.566 4.244-5.676 6.286-3.523 3.409-10.719 7.812-16.905 11.87-4.841 3.177-10.683 6.274-15.67 9.4-1.728 1.084-2.864 2.045-4.166 3.219-.41.37-1.202.589-1.92.571-1.838-.045-3.926-1.048-4.068-1.413-.167-.398 1.195-1.703 1.947-2.363" style="fill:#deb877;fill-rule:evenodd"></path><path d="M355.616 302.171c-.063 3.805-.615 10.633-1.724 15.79a29 29 0 0 0 1.802-2.322c.426-3.894.272-9.655.182-12.743-.014-.465-.132-.711-.26-.725m-19.901 19.835c.1-.098.236.012.216.31.238 2.63-.546 5.59-2.723 10.02a1.5 1.5 0 0 0-.122.317c-.075-.339-.059-1.293.252-1.872 1.495-2.792 2.475-5.538 2.377-8.775" style="fill:#cd9236;fill-rule:evenodd"></path><path d="m152.468 533.929 20.57-20.96 15.296-4.23 1.28 4.313 18.988-6.709 26.8-8.897 1.256 8.473 37.162-15.378 40.601-28.584 29.439-5.107 4.07 7.62 16.098.548-3.42 40.394 9.675-3.042 1.66 37.935-14.344 41.532-2.801 14.892c-73.497 19.276-142.427 8.22-202.33-62.8" style="fill:#627469;fill-rule:evenodd"></path><path d="m188.346 508.78-17.24 20.231 4.688-2.448-6.9 10.295-8.152 6.437c-2.776-3-5.534-6.119-8.274-9.366l20.57-20.96 15.296-4.23zm20.402-2.485-21.474 23.077-11.209 5.141 8.432-10.471.23-1.132 3.907-4.85-5.299 3.328-2.681.916 8.935-9.34.026.088 18.987-6.709zm65.629-16.147 40.044-28.191 29.426-5.105-41.128 42.393-21.578 13.232 22.914-27.039 16.913-16.101-20.313 15.256-31.981 33.017-32.466 23.768 8.279-9.01-40.815 23.563 17.727-14.855 30.486-30.07zm-41.99 103.722a165 165 0 0 1-9.086-3.84l10.772-9.271 13.7-12.51.057 1.213-5.151 10.075 4.588-2.324 1.22-.363zm-13.118-5.762a173 173 0 0 1-14.188-7.81l24.637-22.727 31.331-29.305 37.142-22.425-14.272 21.01-30.547 32.443-34.157 28.755zm-17.496-9.892q-1.578-1.014-3.148-2.072l26.581-21.512 33.052-27.498-4.855 5.143-33.474 31.475zm-5.592-3.74a196 196 0 0 1-9.619-7.147l7.733-7.438 9.685-2.232 29.307-15.417-7.486 8.102zm130.948-31.053-17.936 14.39-7.535 3.318 2.624-4.593-19.471 17.206-13.431 15.329-3.741 8.828 6.896-1.814 37.314-33.98zm11.76-35.109 4.147-.386 1.351.943-6.78 16.235-12.434 17.565-18.931 13.82 15.618-19.192z" style="fill:#bd9264;fill-rule:evenodd"></path><path d="m235.414 497.53-22.074 26.345-.664-3.138-21.469 23.315-14.77 14.73q1.435 1.29 2.877 2.539l15.805-12.962 19.153-17.901 12.494-13.378 9.888-11.188zm112.508-33.077.009.017 16.097.548-3.42 40.394.042-.013-4.312 10.2-.57-8.099.33-29.168-4.553 8.652-.013-11.115-14.89 30.31-19.407 28.731-20.952 22.768 8.632-14.458 6.536-9.24 14.93-22.185 8.79-25.436-4.805 2.973zm-30.466 139.361c-16.531 1.845-32.78 1.81-48.69-.46l14.786-11.877 42.33-38.54 7.57 8.64-17.606 35.11zm-61.23-2.737q-1.215-.268-2.43-.556l8.68-11.086 6.213-6.48z" style="fill:#576a67;fill-rule:evenodd"></path><path d="M297.638 233.57c103.47 0 187.38 83.91 187.38 187.38 0 103.469-83.91 187.38-187.38 187.38s-187.38-83.911-187.38-187.38c0-103.47 83.91-187.38 187.38-187.38m0 6.597c99.827 0 180.783 80.956 180.783 180.782s-80.956 180.783-180.783 180.783-180.783-80.956-180.783-180.783 80.956-180.782 180.783-180.782M432.762 248.886l11.267 9.102a3.804 3.804 0 0 1 .566 5.333c-1.305 1.616-3.719 1.871-5.333.567l-13.916-11.242c-1.823-1.472-2.228-3.893-.721-5.758l18.718-23.17a3.804 3.804 0 0 1 5.333-.566c1.616 1.305 1.87 3.72.567 5.333zM457.659 271.74l9.791 10.674a3.804 3.804 0 0 1-.23 5.358c-1.53 1.404-3.956 1.3-5.36-.23l-12.093-13.182c-1.584-1.727-1.626-4.181.14-5.802l21.949-20.136a3.804 3.804 0 0 1 5.359.23c1.403 1.53 1.298 3.957-.231 5.36zM504.719 349.576l4.49 13.77a3.804 3.804 0 0 1-2.43 4.782c-1.974.644-4.138-.457-4.782-2.43l-5.546-17.008c-.726-2.228.252-4.479 2.532-5.222l28.318-9.234a3.804 3.804 0 0 1 4.781 2.43c.644 1.974-.457 4.138-2.43 4.782zM318.477 176.6c.3-2.056 2.245-3.506 4.3-3.207l24.1 3.513a3.805 3.805 0 0 1 3.205 4.3c-.3 2.056-2.245 3.506-4.3 3.207l-8.406-1.226-3.82 26.204a3.806 3.806 0 0 1-4.3 3.206c-2.055-.3-3.506-2.245-3.206-4.3l3.82-26.204-8.187-1.194a3.804 3.804 0 0 1-3.206-4.3M75.558 316.808c-1.82-1-2.5-3.33-1.5-5.15l11.717-21.35a3.805 3.805 0 0 1 5.15-1.5c1.82.999 2.5 3.33 1.5 5.15l-4.087 7.447 23.215 12.74a3.806 3.806 0 0 1 1.5 5.15c-1 1.82-3.33 2.5-5.15 1.5l-23.215-12.74-3.98 7.253a3.804 3.804 0 0 1-5.15 1.5M385.98 200.317c-1.506 3.741-3.953 4.704-4.977 5.211 1.294 1.437 3.662 5.652 1.988 9.879-2.775 7.007-9.24 8.367-15.433 6.316l-12.573-4.167c-2.251-.746-3.334-2.587-2.585-4.847l9.418-28.423c.706-2.13 2.742-3.098 4.794-2.407l11.56 3.891c6.532 2.199 10.493 7.874 7.807 14.547m-13.173 6.938-9.559-3.168-2.567 7.747 9.394 3.113c2.555.847 5.469.056 6.253-2.289.835-2.501-1.332-4.678-3.52-5.403m2.771-14.64-7.685-2.546-2.413 7.283 7.67 2.541c2.315.767 5.334.218 6.094-2.166.765-2.404-1.37-4.351-3.666-5.111M60.162 417.56c4.032.084 5.798 2.032 6.634 2.811.887-1.72 3.992-5.424 8.538-5.353 7.535.118 11.094 5.685 11.365 12.202l.549 13.234c.098 2.37-1.241 4.034-3.62 4.133l-29.917 1.24c-2.242.094-3.867-1.468-3.947-3.632l-.448-12.19c-.254-6.887 3.654-12.598 10.846-12.446m11.148 9.867.417 10.061 8.154-.338-.41-9.888c-.111-2.69-1.882-5.135-4.352-5.039-2.635.103-3.905 2.9-3.81 5.204m-14.674 2.584.336 8.09 7.665-.319-.335-8.072c-.1-2.437-1.682-5.068-4.181-4.935-2.52.134-3.585 2.82-3.485 5.237M534.447 444.817c-4.01-.416-5.486-2.628-6.255-3.473-1.025 1.64-4.55 5.2-9.074 4.756-7.5-.738-10.589-6.58-10.321-13.097l.543-13.234c.097-2.37 1.569-3.918 3.948-3.82l29.917 1.227c2.242.092 3.733 1.783 3.635 3.945l-.558 12.186c-.315 6.884-4.68 12.254-11.835 11.51m-10.296-10.752.412-10.062-8.154-.334-.406 9.888c-.11 2.69 1.453 5.272 3.922 5.38 2.635.115 4.13-2.568 4.226-4.872m14.836-1.367.332-8.09-7.666-.314-.331 8.073c-.1 2.437 1.26 5.189 3.76 5.262 2.522.074 3.806-2.516 3.905-4.931M404.29 220.331l7.584 4.226 1.434-11.33zm6.677 11.954-12.771-7.117-5.696 4.52a3.806 3.806 0 0 1-5.328-.615c-1.29-1.628-1.025-4.056.616-5.329l26.089-20.241c2.749-2.133 7.555.562 7.196 4.01l-3.42 32.874c-.214 2.066-2.144 3.569-4.207 3.327a3.806 3.806 0 0 1-3.327-4.207zM515.23 319.228c.038-3.216-.712-5.95-2.533-9.017-1.357-2.286-3.298-4.13-5.867-4.972-3.282-1.074-6.835-.182-9.778 1.488-3.252 1.846-5.943 4.926-6.264 8.748-.189 2.239.393 4.531 1.408 6.508 1.375 2.677 3.42 4.8 5.765 6.442 4.128 2.755.587 8.478-4.186 5.706-3.264-2.319-6.129-4.979-8.093-8.805-1.658-3.228-2.575-6.831-2.269-10.472.529-6.28 4.519-11.64 9.912-14.702 4.76-2.702 10.606-3.709 15.877-1.983 4.298 1.406 7.573 4.415 9.858 8.263 2.554 4.302 3.317 8.355 3.284 12.921-.442 5.477-7.508 4.61-7.114-.125M513.467 388.908c.932 6.27 4.589 7.588 8.851 6.955l19.335-2.875c2.063-.307 4.015 1.216 4.322 3.28.305 2.053-1.143 4.004-3.194 4.309l-19.764 2.939c-6.404.952-14.908-2.816-16.504-13.55-1.596-10.733 5.43-16.51 12.665-17.587l18.99-2.823a3.804 3.804 0 0 1 4.31 3.193c.305 2.054-1.14 4.014-3.194 4.31l-19.261 2.776c-3.224.465-7.488 2.803-6.556 9.073M82.183 390.072c.87-6.279-3.355-8.725-6.535-9.166l-19.361-2.685c-2.067-.287-3.51-2.298-3.224-4.364.285-2.057 2.223-3.52 4.278-3.236l19.792 2.745c6.413.89 13.512 6.899 12.021 17.648s-9.86 14.314-17.105 13.31l-19.017-2.638a3.804 3.804 0 0 1-3.236-4.278c.286-2.057 2.225-3.53 4.278-3.236l19.264 2.76c3.224.461 7.974-.581 8.845-6.86M289.831 172.242c11.525-.837 19.359 7.192 20.125 17.738.765 10.547-5.748 19.617-17.351 20.46-11.603.842-19.359-7.193-20.125-17.739s5.827-19.622 17.351-20.46m.682 7.213c-6.94.504-10.983 5.963-10.489 12.777.498 6.853 5.243 11.636 12.225 11.129s10.75-5.908 10.253-12.76c-.495-6.815-5.049-11.65-11.99-11.146M238.93 179.178c11.117-3.152 20.414 3.125 23.298 13.298 2.885 10.173-1.423 20.358-12.615 23.532s-20.65-3.109-23.534-13.282 1.735-20.396 12.851-23.548m2.128 6.926c-6.695 1.898-9.55 8.063-7.686 14.636 1.875 6.61 7.49 10.334 14.224 8.424 6.735-1.91 9.333-7.961 7.458-14.572-1.864-6.573-7.302-10.386-13.996-8.488M104.012 264.874c6.826-9.324 18.018-10.093 26.55-3.846 8.53 6.246 11.224 17.084 4.351 26.47-6.872 9.387-18.017 10.093-26.549 3.846s-11.178-17.147-4.352-26.47m5.937 4.151c-4.11 5.615-2.569 12.231 2.944 16.267 5.544 4.06 12.26 3.542 16.396-2.106 4.136-5.649 2.461-12.018-3.083-16.077-5.512-4.036-12.146-3.698-16.257 1.916M190.72 196.645l16.94-7.54c1.905-.85 4.065-.001 4.886 1.844.818 1.838.102 4.062-1.867 4.939l-13.996 6.23 3.125 7.018 12.392-5.517c1.906-.848 3.994.032 4.815 1.878.818 1.837.038 3.918-1.86 4.762l-12.392 5.517 4.687 10.528a3.805 3.805 0 0 1-1.923 5.008c-1.897.844-4.162-.026-5.007-1.923l-12.209-27.427c-.967-2.173.159-4.316 2.41-5.318M136.843 234.35l27.092 7.851-13.71-16.801a3.804 3.804 0 0 1 .541-5.337c1.61-1.313 4.026-1.065 5.337.541l18.134 22.224c2.014 2.468 1.776 4.932.472 6.538-1.417 1.744-3.538 2.417-5.827 1.76l-26.892-7.719 13.6 16.668a3.805 3.805 0 0 1-.54 5.337c-1.61 1.312-4.024 1.068-5.337-.541l-18.731-22.956c-1.445-1.771-1.175-4.52.402-6.097 1.579-1.58 3.393-2.066 5.459-1.467M58.32 354.838c-.685-1.893.313-4.032 2.206-4.709l14.136-5.055-8.076-12.545c-1.088-1.69-.545-3.999 1.16-5.069 1.712-1.075 4.005-.56 5.068 1.16l8.789 14.223 15.696-5.875c1.89-.708 4.02.304 4.708 2.205.685 1.893-.31 4.03-2.206 4.709l-14.248 5.104 8.138 12.643c1.09 1.693.545 3.998-1.16 5.068-1.713 1.075-4.013.562-5.068-1.16l-8.753-14.291-15.681 5.798c-1.897.7-4.02-.305-4.709-2.206M226.913 656.025c.47-1.872 2.406-3.032 4.277-2.563l4.051 1.016 4.942-19.718-3.02.696c-1.89.435-3.795-.74-4.237-2.627-.441-1.88.753-3.78 2.627-4.238l7.722-1.887c1.275-.312 2.697-.01 3.79.734 1.32.897 2.163 2.436 1.693 4.31l-6.158 24.574 3.048.764a3.537 3.537 0 0 1 2.563 4.277c-.47 1.872-2.405 3.032-4.277 2.562l-14.458-3.623a3.536 3.536 0 0 1-2.563-4.277M287.69 650.172c3.1 2.127 4.913 5.352 4.521 9.554-.683 7.33-7.544 10.252-15.405 9.52s-13.75-4.844-13.067-12.174c.38-4.075 2.627-6.864 5.9-8.412-2.157-1.767-3.348-4.277-3.043-7.553.605-6.487 6.63-9.683 13.63-9.03 7.001.652 12.332 4.906 11.727 11.393-.294 3.16-1.892 5.356-4.262 6.702m-8.065-11.355c2.915.271 5.227 1.899 5 4.336s-2.832 3.32-5.747 3.049c-2.915-.272-5.117-1.602-4.89-4.04s2.722-3.617 5.637-3.345m-1.146 14.26c3.492.326 6.678 2.255 6.385 5.404s-3.854 4.427-7.346 4.101-6.605-2.225-6.312-5.374 3.78-4.456 7.273-4.13M302.568 637.039c-.094-1.953 1.443-3.645 3.395-3.738l19.372-.931c1.828-.088 3.296.328 4.12 2.164.794 1.767.29 3.236-.396 4.875l-11.64 27.86c-.804 1.922-3.072 2.804-4.987 1.977-1.906-.824-2.806-3.082-1.977-4.986l10.679-24.539-14.829.713a3.58 3.58 0 0 1-3.738-3.395M338.62 633.387c-.475-1.897.703-3.856 2.598-4.33l18.877-4.712c1.757-.439 3.26-.275 4.404 1.332 1.124 1.578.916 3.118.565 4.858l-5.974 29.598c-.413 2.042-2.464 3.35-4.504 2.913-2.03-.435-3.354-2.474-2.914-4.504l5.68-26.152-14.404 3.596a3.58 3.58 0 0 1-4.329-2.6M192.04 615.903a7.826 7.826 0 0 1 7.825 7.826 7.826 7.826 0 1 1-7.826-7.826M403.509 615.51a7.826 7.826 0 0 1 7.826 7.825 7.826 7.826 0 1 1-7.826-7.826" style="fill:#00527f;fill-rule:evenodd" data-source="https://football-logos.cc"></path><!-- source: https://football-logos.cc --></svg>