<svg xmlns="http://www.w3.org/2000/svg" xml:space="preserve" style="shape-rendering:geometricPrecision;text-rendering:geometricPrecision;image-rendering:optimizeQuality;fill-rule:evenodd;clip-rule:evenodd" viewBox="0 0 200 200"><!-- Source: https://football-logos.cc --><defs data-source="https://football-logos.cc"><style>.fil1{fill:#fefefe}.fil4{fill:#860017}.fil0{fill:#010105}</style></defs><g id="Layer_x0020_1" data-source="https://football-logos.cc"><g id="_735540400"><path d="M100 0c55.22 0 100 44.78 100 100s-44.78 100-100 100S0 155.22 0 100 44.78 0 100 0" class="fil0"></path><path d="M100 4.177c52.913 0 95.823 42.91 95.823 95.823s-42.91 95.823-95.823 95.823S4.177 152.913 4.177 100 47.087 4.177 100 4.177" class="fil1"></path><path d="M100 8.761c50.381 0 91.239 40.858 91.239 91.239s-40.858 91.239-91.24 91.239c-50.38 0-91.238-40.858-91.238-91.239S49.62 8.761 100 8.761" style="fill:#c80617"></path><path d="M100 41.36c32.38 0 58.64 26.26 58.64 58.64s-26.26 58.64-58.64 58.64S41.36 132.38 41.36 100 67.62 41.36 100 41.36" class="fil1"></path><path d="M100 45.486c30.102 0 54.514 24.412 54.514 54.514S130.102 154.514 100 154.514 45.486 130.102 45.486 100 69.898 45.486 100 45.486" class="fil0"></path><path d="M102.343 48.192c.093-1.283.688-1.61 1.295-1.643 2.244-.124 1.527 1.762 1.835 3.357 25.25 2.729 44.915 24.12 44.915 50.094 0 27.824-22.564 50.388-50.388 50.388S49.612 127.824 49.612 100c0-27.23 21.611-49.422 48.613-50.357.313-.405 1.885-1.396 4.118-1.45" style="fill:#b60017"></path><path d="M105.914 49.96c25.037 2.929 44.474 24.217 44.474 50.04 0 5.065-.751 9.954-2.142 14.566l-10.271 1.417c-1.166 4.693-3.366 8.256-6.394 10.948v-21.663c3.198.987 7.097 2.837 11.67 5.55-4.02-4.722-6.337-9.506-6.64-13.344-.188-2.379.153-5.665 3.774-8.133q-4.948-.017-8.804.512V84.54c2.436.535 5.37 1.713 8.775 3.628-3.145-3.458-5.052-6-5.323-8.806-.231-2.4.21-4.116 3.007-5.923-2.463.154-4.603.394-6.46.722v-9.118c0-.399-.358-.725-.795-.725-.436 0-.797.329-.797.725v1.224c-4.962.158-5.094 3.49-8.366 3.79-1.282.117-2.675-.154-4.525-.952 1.204 1.872 3.777 3.003 5.504 3.034 3.217.058 2.878-2.308 7.387-1.655v3.994c-3.672.826-6.043 2.062-7.487 3.705-1.793 2.041-1.934 4.662 1.134 8.748.95-2.038 3.101-3.024 6.353-2.66v5.832c-4.752.846-8.077 2.391-9.924 4.61-2.32 2.788-2.195 6.886 1.675 12.467 1.24-2.552 4.02-3.334 8.25-2.346v23.377c-6.799 4.935-16.386 5.573-25.094 5.695V117.39c5.554 1.733 12.377 5.095 20.413 10.088-6.973-8.467-10.858-16.686-11.46-23.56-.515-5.879.35-10.704 6.551-15.129-5.785-.023-10.966.34-15.504 1.055v-5.55a41.8 41.8 0 0 1 11.474 3.095c-2.135-3.913-5.325-10.694-4.824-17.194.365-4.742 2.72-9.287 8.765-12.693-4.77.368-10.2 1.212-15.415 2.685V47.773c0-.495-.445-.9-.99-.9-.54 0-.989.407-.989.9v.858c-1.64.004-2.823.421-3.802.995-.77.451-1.438 1.024-2.125 1.584-1.033.842-2.063 1.602-3.607 1.75-1.524.145-2.99-.125-5.188-1.116 1.92 2.398 4.172 3.464 6.225 3.503 3.676.07 3.733-2.403 8.497-1.87v7.304c-6.236 1.983-11.991 4.92-15.705 9.087-5.23 5.867-4.927 13.957.828 22.424-.12-3.047 1.503-5.388 4.482-6.792 2.317-1.093 5.475-1.618 9.14-1.468q.617.025 1.255.07v6.084c-8.51 1.604-14.529 4.547-17.75 8.6-3.976 4.998-3.498 12.163 3.303 22.17 2.154-4.643 7.023-6.018 14.447-4.128v17.102c-5.512.077-10.062.339-13.572.091-6.926-.487-11.984-4.353-13.02-11.962a103 103 0 0 0-3.396-1.627v-9.497c3.041.984 6.706 2.729 10.97 5.235-3.978-4.57-6.194-9.005-6.538-12.715-.293-3.172.2-5.776 3.738-8.164-3.017-.012-5.746.15-8.17.473v-5.303c2.292.575 4.966 1.664 7.989 3.364-3.146-3.458-4.9-6.305-5.17-9.112-.232-2.4.436-3.974 2.65-5.668a62 62 0 0 0-5.469.56v-8.886c0-.392-.352-.712-.782-.712-.428 0-.782.323-.782.712v.86c-4.486.258-4.666 3.329-7.734 3.61-1.225.112-2.556-.147-4.324-.91 1.15 1.79 3.61 2.87 5.26 2.9 3.01.054 2.762-2.113 6.798-1.617v4.31c-4.258.82-6.934 2.127-8.506 3.917-1.793 2.041-1.935 4.661 1.134 8.747 1.034-2.017 3.562-3.009 7.372-2.399v5.865c-4.982.856-8.498 2.46-10.366 4.683-2.268 2.698-1.995 6.565 1.885 11.965 1.252-2.553 4.111-3.275 8.48-2.168v9.257c-7.64-3.288-13.74-4.403-18.748-2.572A50.3 50.3 0 0 1 49.612 100c0-26.896 21.086-48.87 47.625-50.306.368-.29.745-.567 1.146-.817a8.1 8.1 0 0 1 3.517-1.212c.06-1.036.973-1.81 2.005-1.81 1.07 0 2.009.825 2.009 1.918z" class="fil1"></path><path d="M91.537 139.962a1.482 1.482 0 1 1 0 2.965 1.482 1.482 0 0 1 0-2.965M100.043 139.555a1.482 1.482 0 1 1 0 2.964 1.482 1.482 0 0 1 0-2.964M108.53 139.166a1.482 1.482 0 1 1-.001 2.965 1.482 1.482 0 0 1 0-2.965M116.913 138.604a1.482 1.482 0 1 1 0 2.965 1.482 1.482 0 0 1 0-2.965" class="fil4"></path><path d="m158.887 71.214 15.148-15.774-17.956 1.978 5.955-17.095-18.77 11.268 2.662 3.343 8.947-5.803-4.449 12.754 13.531-1.526-7.712 7.533zM142.49 50.788l1.49-24.639-20.608 13.565 3.795 2.198 3.541-2.436 8.29 4.802-.35 4.284zm-3.203-10.184-5.51-3.192 6.09-4.219zM88.524 35.811 70.091 19.396l-2.096 24.581 4.074-1.62.278-4.29 8.903-3.54 3.148 2.926zm-9.982-3.785-5.918 2.354.455-7.395zM121.945 39.015l3.587-20.838-3.91-.673-1.449 8.423-9.442-1.625 1.45-8.423-3.909-.673-3.586 20.838 3.908.673 1.526-8.864 9.442 1.625-1.525 8.864zM66.9 44.816 53.77 28.242l-3.109 2.463 5.308 6.7-7.51 5.949-5.307-6.7-3.109 2.464 13.13 16.573 3.11-2.463-5.586-7.05 7.51-5.95 5.585 7.05zM96.504 36.44l-1.285-17.523 6.24-.457-.261-3.566-16.408 1.203.261 3.566 6.212-.456 1.285 17.522zM46.388 56.108c.044.233.068.548.066.929q0 .579-.144 1.341a9.6 9.6 0 0 1-.503 1.675q-.364.912-1.016 1.937a7.7 7.7 0 0 1-2.06 2.15q-1.216.84-2.614 1.168-1.409.329-2.84.103a7.2 7.2 0 0 1-2.746-1.06c-.925-.602-1.683-1.29-2.28-2.073a7.2 7.2 0 0 1-1.246-2.503 6.5 6.5 0 0 1-.144-2.707q.223-1.376 1.051-2.679 1.018-1.578 2.293-2.51a7.7 7.7 0 0 1 2.784-1.296l-1.166-3.243q-.265.01-.798.156c-.352.1-.772.26-1.247.481-.476.225-.988.52-1.53.897-.544.38-1.093.846-1.645 1.41a12.6 12.6 0 0 0-1.59 2.004q-1.096 1.714-1.567 3.488a11.1 11.1 0 0 0-.369 3.512c.065 1.154.308 2.264.725 3.319q.626 1.593 1.718 2.929a11.4 11.4 0 0 0 2.618 2.323 10.6 10.6 0 0 0 3.202 1.382c1.126.272 2.26.36 3.413.273a11.2 11.2 0 0 0 3.374-.811 11.6 11.6 0 0 0 3.082-1.869q1.441-1.192 2.549-2.899c.875-1.357 1.458-2.693 1.757-4.007a9.36 9.36 0 0 0 .04-3.939zM45.17 160.381l8.35-9.597 3.418 2.974 1.699-1.954-8.987-7.818-1.699 1.953 3.402 2.96-8.35 9.597zM71.044 166.759a8 8 0 0 0 .384-2.616 7.8 7.8 0 0 0-.458-2.479 8 8 0 0 0-1.205-2.189 8.3 8.3 0 0 0-1.847-1.756 8.8 8.8 0 0 0-2.396-1.177 8.8 8.8 0 0 0-2.669-.415 8.5 8.5 0 0 0-2.546.391 8.3 8.3 0 0 0-2.26 1.108 7.8 7.8 0 0 0-1.796 1.736 7.5 7.5 0 0 0-1.17 2.27 7.5 7.5 0 0 0-.348 2.517q.039 1.263.47 2.444a8.2 8.2 0 0 0 1.211 2.198 8.6 8.6 0 0 0 1.857 1.784q1.084.765 2.421 1.196a8.56 8.56 0 0 0 7.379-1.065A7.8 7.8 0 0 0 69.877 169q.767-.996 1.167-2.242m-2.924-.95a5.4 5.4 0 0 1-1.037 1.878 5.25 5.25 0 0 1-1.612 1.282 5.4 5.4 0 0 1-1.99.575 5.5 5.5 0 0 1-2.153-.245 4.7 4.7 0 0 1-1.472-.778 5.2 5.2 0 0 1-1.117-1.206 5.7 5.7 0 0 1-.971-3.158 5.4 5.4 0 0 1 .249-1.678 5.3 5.3 0 0 1 1.038-1.87 5.376 5.376 0 0 1 3.584-1.834 5.4 5.4 0 0 1 2.1.234 5.1 5.1 0 0 1 1.81 1.009q.782.677 1.253 1.6.474.925.569 1.998a5.6 5.6 0 0 1-.25 2.194M86.519 181.17l9.096-14.696-3.106-.55-5.013 8.58-2.697-10.625-6.172 9.093-1.85-9.838-3.126-.554 3.615 16.908 6.363-9.244zM113.104 181.407l-1.137-15.815-2.864.214.744 9.72-11.968-9.31 1.127 15.693 2.864-.213-.734-9.315zM129.373 176.171l-2.406-6.246 4.586-1.767-.938-2.435-4.586 1.767-1.228-3.19 5.661-2.18-.93-2.416-8.342 3.213 5.503 14.286zM139.151 169.86a1.6 1.6 0 0 0-.695-.464 1.56 1.56 0 0 0-.81-.048 1.66 1.66 0 0 0-1.222 1.085 1.61 1.61 0 0 0 .322 1.561c.18.197.405.34.67.42q.398.127.818.059.419-.075.754-.359.344-.319.469-.726.122-.412.039-.82a1.5 1.5 0 0 0-.345-.708M151.124 159.042c-.023.17-.079.392-.167.653q-.135.398-.407.888a7 7 0 0 1-.729 1.035 8.5 8.5 0 0 1-1.141 1.098q-.886.704-1.908 1.005a5.5 5.5 0 0 1-2.063.204 5.3 5.3 0 0 1-1.974-.58 5.2 5.2 0 0 1-1.643-1.356 6.5 6.5 0 0 1-1.092-1.947 5.2 5.2 0 0 1-.282-2.003c.04-.668.213-1.296.52-1.893a5.1 5.1 0 0 1 1.336-1.6q1.06-.85 2.15-1.199a5.6 5.6 0 0 1 2.209-.252l-.059-2.495a3 3 0 0 0-.584-.076 6 6 0 0 0-.966.045 8 8 0 0 0-1.257.266c-.46.137-.944.33-1.452.592a9 9 0 0 0-1.552 1.012 9 9 0 0 0-1.874 2.037 8 8 0 0 0-1.058 2.328 7.7 7.7 0 0 0-.262 2.446q.065 1.238.51 2.405.448 1.171 1.265 2.195a7.7 7.7 0 0 0 1.883 1.683 7.9 7.9 0 0 0 2.283.968q1.216.303 2.503.216a8.4 8.4 0 0 0 2.545-.578 9.2 9.2 0 0 0 2.414-1.407q1.367-1.1 2.125-2.35a6.8 6.8 0 0 0 .93-2.697zM159.262 154.88a1.6 1.6 0 0 0-.678-.49 1.56 1.56 0 0 0-.807-.076 1.65 1.65 0 0 0-1.26 1.04 1.61 1.61 0 0 0 .266 1.572c.171.204.392.354.654.444q.392.141.815.087.422-.06.767-.331.355-.306.494-.71.136-.407.068-.816a1.5 1.5 0 0 0-.319-.72M18.056 107.82V97.297l-2.751.75v-2.798l6.057-1.987v14.558zM166.614 103.656c0 1.307.924 2.234 2.335 2.234 1.448 0 2.331-.873 2.331-2.234 0-1.256-1.004-2.142-2.331-2.142-1.32 0-2.336.893-2.336 2.142m.344-6.109c0 1.002.847 1.919 1.991 1.919 1.16 0 1.965-.91 1.965-1.918 0-1.041-.75-1.93-1.965-1.93-1.22 0-1.99.876-1.99 1.93m-1.128 2.781c-1.231-.578-1.977-1.668-1.977-3.047q0-1.715 1.402-2.769 1.396-1.055 3.694-1.056c1.518 0 2.751.353 3.69 1.06q1.415 1.06 1.415 2.765c0 1.395-.783 2.396-1.964 3.047 1.595.597 2.587 1.765 2.587 3.5q-.002 1.921-1.553 3.07-1.552 1.154-4.175 1.154c-1.752 0-3.14-.381-4.175-1.147q-1.544-1.147-1.544-3.076c0-1.74 1.005-2.904 2.6-3.5M28.78 103.656c0 1.307.924 2.234 2.335 2.234 1.448 0 2.331-.873 2.331-2.234 0-1.256-1.003-2.142-2.33-2.142-1.32 0-2.336.893-2.336 2.142m.345-6.109c0 1.002.846 1.919 1.99 1.919 1.16 0 1.965-.91 1.965-1.918 0-1.041-.75-1.93-1.965-1.93-1.22 0-1.99.876-1.99 1.93m-1.129 2.781c-1.231-.578-1.977-1.668-1.977-3.047q0-1.715 1.402-2.769 1.396-1.055 3.694-1.056c1.519 0 2.752.353 3.69 1.06q1.415 1.06 1.415 2.765c0 1.395-.783 2.396-1.964 3.047 1.595.597 2.587 1.765 2.587 3.5q-.002 1.921-1.553 3.07-1.552 1.154-4.175 1.154c-1.752 0-3.14-.381-4.174-1.147q-1.545-1.147-1.545-3.076c0-1.74 1.005-2.904 2.6-3.5M176.235 107.87c1.052-1.17 2.633-3.117 4.049-4.997 1.416-1.881 2.719-3.698 2.705-5.012-.014-1.402-1.135-1.888-2.458-1.888-.864 0-2.01.59-3.116 1.19v-2.945c1.525-.712 2.498-.944 4.18-.944 2.522 0 4.915 1.65 4.829 4.314-.057 1.732-.822 2.922-1.639 4.09-.832 1.191-1.873 2.453-2.925 3.696h5.108v2.497z" class="fil1"></path></g></g><!-- source: https://football-logos.cc --></svg>