<svg xmlns="http://www.w3.org/2000/svg" viewBox="0 0 383.85 382.95"><!-- Source: https://football-logos.cc --><g clip-rule="evenodd" data-source="https://football-logos.cc"><path d="M500.549 60.548c.658-.461.18-2.06.672-2.688.628.268 1.23.562 2.016.672 8.419 2.218 16.432 4.843 25.53 6.382.054.394.612.284 1.008.336.79-.007.988.579 2.015.336.624.594-.146.98-.336 1.68-.183 1.272-.813 2.099-.671 3.695-3.458-1.134-6.684-2.5-10.414-3.36-1.438 3.266-2.145 7.262-3.023 11.086-.5.62-.644 1.596-.672 2.688-2.25 7.49-4.04 15.444-5.711 23.515-1.227-.677-2.675-1.132-4.366-1.344-.51-.5-1.475-.542-2.352-.672h-.672c-.21-.798-2.068.052-2.352-.672 2.083-5.98 3.7-12.424 5.375-18.812v-.672c.576-1.103.889-2.47 1.008-4.031.498-.621.644-1.596.672-2.688.9-.89.557-3.026 1.343-4.031V70.96c.676-1.676 1.228-3.476 1.344-5.711-3.39-.978-7.016-1.718-11.085-2.015.05-1.068.76-1.477.67-2.686M341.658 99.85c2.94-1.537 5.516-3.441 9.07-4.366 1.51 1.445 3.069 4.486 3.359 6.047-6.126-1.134-10.902 1.21-13.437 4.703-5.278 5.972-1.632 17.579 3.023 21.499a23 23 0 0 0 3.695 3.695c3.334 4.212 14.43 5.777 18.812 1.344.299-.15.6-.295.672-.672 1.336-1.127 2.76-2.167 3.359-4.031 1.315-1.596 1.954-3.87 2.352-6.383.052-.396-.058-.954.336-1.008 1.144-.25.554 1.238 1.344 1.344.185 1.719 1.552 2.255 1.679 4.03-1.264 2.544-2.903 4.712-4.367 7.055a3.03 3.03 0 0 0-1.344 1.344c-1.106 1.02-2.386 1.869-3.36 3.023-.271.064-.334.337-.671.336-.616.392-1.137.878-1.68 1.344-20.626 14.215-44.571-14.805-29.225-32.92.763-.245 1.005-1.011 1.344-1.68 1.693-1.555 3.45-3.044 5.039-4.703" style="fill:#221c1c;fill-rule:evenodd" transform="translate(-273.79 -55.17)"></path><path d="M309.074 144.864a3.02 3.02 0 0 0 1.343-1.344c1.176.503 1.13 2.229 2.016 3.023.55 2.585 1.875 4.396 1.68 7.726v3.359c-.1 4.268-1.284 7.45-2.688 10.414-1.47 3.009-2.801 6.157-5.375 8.062-1.484-2.771-2.816-5.694-3.695-9.07-1.374-9.786 2.723-16.667 6.719-22.17M619.8 144.528c.484-.444.848-1.536 1.68-.672.072.377.374.523.673.672.366.865.85 1.614 1.68 2.016 3.745 5.409 7.204 14.655 4.367 23.515-.501 1.067-1.242 1.893-1.344 3.359-1.03.314-.825 1.862-1.68 2.352-4.394-4.34-7.044-10.424-8.063-18.14v-3.36c-.111-1.342.6-1.864.336-3.358.5-.508.542-1.474.672-2.351.655-1.251 1.172-2.64 1.68-4.033M295.3 167.707c8.549 6.789 6.59 25.707.673 33.928-9.09-6.522-7.755-26.226-.672-33.928M630.55 177.785c1.274-3.765 2.65-7.428 5.04-10.078 7.073 5.839 8.713 24.049 2.015 31.577-.676.667-1.098 1.589-2.015 2.016-.847-.61-.833-2.08-1.68-2.688-.15-.858-.472-1.544-1.008-2.016a19.8 19.8 0 0 0-1.68-4.703c-.058-.503.12-1.24-.336-1.344-.058-.503.12-1.24-.336-1.344.104-1.224-.054-2.186-.336-3.023v-6.046c.464-.433.333-1.46.337-2.351M611.068 178.457c.053-.396-.058-.954.336-1.008 6.374 2.472 11.473 6.219 15.452 11.085 1.2 1.823 2.095 3.952 3.023 6.046.024 1.43.562 2.35.336 4.03-1.33-.125-2.44-.471-3.36-1.007-.634.075-.74-.378-1.343-.336-7.335-3.75-12.89-9.28-14.444-18.81M301.01 198.948c1.307-12.02 9.624-17.027 18.813-21.163-.362 11.618-8.551 18.322-18.812 21.163M278.84 208.018c.188-4.627 1.262-8.368 3.023-11.421.814-.304 3.208 1.875 4.367 3.359 2.527 3.236 4.283 8.505 5.039 13.437v6.382c-.424 3.83-1.191 7.318-2.352 10.414-5.513-4.004-9.617-9.418-10.078-18.476zM641.972 205.33c2.159-3.552 3.947-7.474 7.727-9.406 2.854 5.843 4.352 16.648 1.344 23.515-1.903 4.268-5.19 8.902-8.734 10.414-2.573-6.821-3.204-17.553-.337-24.523M627.192 218.095c-3.204-4.186-5.424-9.356-5.375-16.796 4.87 2.184 8.273 5.835 11.758 9.406.229 1.227 1.273 1.638 1.68 2.688.72 1.294 1.274 2.756 2.016 4.03.375 1.53.788 3.02 1.007 4.704-.214 1.24.436 3.346-.336 4.03-4.091-2.18-7.95-4.593-10.75-8.062M309.41 205.33c-1.415 10.903-7.534 17.1-16.125 20.827-.736-12.833 7.673-19.422 15.789-24.522.768.575.123 2.564.336 3.695M642.308 250.68c1.27-11.271 6.016-19.066 14.445-23.18 3.274 15.63-2.774 29.053-14.11 33.257.236-1.467-.57-1.892-.335-3.36zM274.81 227.837c10.56 4.82 16.175 17.652 13.773 33.256-10.853-4.394-17.436-17.613-13.773-33.256M303.363 227.837c3.967 12.432-3.173 23.708-11.421 28.218-2.498-11.533 3.382-19.693 8.734-25.53a12.2 12.2 0 0 0 2.687-2.688M626.856 232.204c.067-1.612.517-2.843.672-4.367 7.223 5.75 14.522 14.68 11.757 28.218-6.287-4.351-11.147-10.127-12.43-19.484zM294.965 275.874c.863-8.207 4.518-13.622 8.062-19.147 6.596 9.72 1.025 25.118-5.375 30.905-1.738-1.51-1.917-4.577-2.688-7.055zM625.512 266.132c-.08-3.998 1.229-6.61 2.352-9.406 6.249 6.078 11.663 20.064 6.383 30.569-4.646-4.088-7.868-9.601-8.734-17.468zM274.138 267.14c.217-1.574-.44-4.022.336-5.04 11.942 4.294 18.408 14.066 20.155 28.554-.277.843.653 2.893-.672 2.688-2.491-1.092-5.072-2.095-7.39-3.36-.501-.841-1.508-1.178-2.352-1.68a23 23 0 0 0-3.695-3.694c-.075-.261-.01-.663-.336-.672a50 50 0 0 1-2.687-4.367c-.995-1.805-1.52-4.08-2.352-6.046v-.336c-.222-.897-.141-2.1-.672-2.688.199-1.43-.241-2.222-.335-3.36M648.355 266.468c2.37-1.772 5.117-3.17 8.063-4.367h.672c.394.054.283.612.336 1.008-.011 2.677-.443 4.932-.672 7.39v.336c-.282.39-.443.9-.336 1.68-.262.299-.361.759-.336 1.344-.456.104-.28.84-.336 1.344-2.56 6.736-6.604 11.983-12.43 15.452-.391-.055-.598.074-.672.336-1.647.592-3.164 1.314-4.703 2.016h-1.343c.688-9.613 3.412-17.19 8.062-22.843a49 49 0 0 0 2.688-3.023h.336c.298-.15.6-.296.67-.673M307.058 287.967c.64-.703 1.083-1.604 1.344-2.688 2.337 2.702 3.782 6.295 5.039 10.078.003.892-.127 1.918.336 2.352v6.047c-.671 5.71-2.827 9.938-5.04 14.108-3.007-2.703-4.337-7.084-5.038-12.094v-4.366c.382-4.433 1.504-8.125 2.688-11.758.498-.284.485-1.081.67-1.68M620.137 289.31c1.148-1.202 1.38-3.321 3.023-4.03.416 1.6 1.31 2.72 1.68 4.367.486.522.448 1.568 1.008 2.016 2.78 8.245 2.87 21.303-3.36 25.866-2.266-4.563-4.607-9.052-5.038-15.452-.151-5.303 1.182-9.12 2.687-12.766M646.339 297.373c1.789-.227 3.203-.828 5.039-1.008-.713 5.894-2.792 10.42-5.04 14.78-.69.094-.67.897-1.007 1.344-.466.542-.952 1.063-1.344 1.68-.262.074-.391.28-.336.672-1.441 1.134-2.635 2.516-4.031 3.695-.767.576-1.696.99-2.351 1.68-.261.075-.663.009-.672.336-3.613 1.538-6.936 3.366-12.094 3.359 3.189-12.937 9.8-22.45 21.836-26.538M280.52 300.06c.112-1.343-.6-1.864-.336-3.36h1.008c14.664 3.029 22.296 13.089 25.53 27.547-15.164-1.632-22.526-11.066-26.202-24.187M316.8 321.56c.348-3.348.832-6.56 1.68-9.406.877-.51 3.206 2.1 4.367 3.695 1.8 2.472 2.765 5.364 4.03 8.398.1 1.132.17 2.294.673 3.022.302 6.133-.078 12.092-2.352 16.46-1.24.278-3.513-2.486-4.703-4.366-2.052-3.24-3.086-7.32-3.695-12.43zM606.029 319.88c1.987-2.846 3.982-7.414 7.055-8.063 3.186 11.892 1.544 27.328-7.055 32.249-.956-3.411-2.052-6.683-2.352-10.75v-3.695c.116-1.787.556-3.251.672-5.038.498-.063.308-.813.336-1.344.392-.057.365-.531.336-1.008.45-.222.626-.72.672-1.344.019-.43.43-.465.336-1.007M320.83 351.456c-16.108-1.135-24.196-10.29-28.552-23.18 17.17-.15 24.68 9.36 31.24 19.82.049 1.297 1.136 1.553 1.009 3.023-.488.184-1.736-.393-1.68.336h-2.016M608.38 351.12h-1.008c-.181-2.774 1.852-5.503 3.359-7.726 4.996-7.37 12.774-13.792 22.843-15.117h5.038c.41.038.796.1.672.672-5.014 11.334-12.057 20.64-26.873 22.17zM476.699 355.15c-3.033 2.23-6.372 4.154-9.742 6.048-3.073-1.966-6.095-3.982-9.405-5.711 2.629-2.41 6.419-3.658 9.069-6.047 3.922 1.342 6.554 3.972 10.078 5.71M407.163 358.51v-6.718h15.117v6.719c-3.182.516-11.986.547-15.117 0M527.759 352.8c-.56 1.13-.56 4.58 0 5.71v.337c-4.592.223-10.077-.446-14.11.336-.298-.261-.757-.361-1.343-.336v-6.72c4.937.439 11.633-.882 15.453.673" style="fill:#ffc825;fill-rule:evenodd" transform="translate(-273.79 -55.17)"></path><path d="M448.482 135.123c-2.195-3.516-5.106-6.315-7.391-9.742 6.897-1.453 15.476-1.052 21.835.672 2.273.414 4.114 1.26 6.382 1.68.088.472.737.383 1.008.67.983-.086 1.032.76 2.016.673.93.527 1.868 1.043 3.023 1.344 9.385 5.284 17.602 11.736 23.85 20.155 12.714.836 23.854 3.246 33.929 6.719.8.656 2.064.847 3.023 1.344.454.105.642.478 1.344.335.306.59 1.177.615 1.68 1.008.27.178.546.35 1.008.336 3.669 2.266 7.786 4.083 10.75 7.055-1.214.13-2.242.446-3.023 1.008q-4.85 1.195-9.07 3.023c11.195 5.6 21.077 12.516 29.562 20.828 2.163 2.875 4.9 5.177 6.382 8.734-.396-.387-1.187-.38-2.015-.336-3.458-.128-7.591-1.364-10.75-.672 5.054 5.296 8.744 12.987 8.398 22.17-.76 20.153-16.594 33.792-26.874 43.335v-2.688c.77-.685.12-2.79.336-4.031-.693-35.25-12.996-58.892-47.701-60.13-.362-.556-2.997-.556-3.36 0-5.248.013-10.283.24-14.107 1.68 28.479 4.666 47.416 18.872 48.037 51.396v4.703c-.047 7.567-1.628 13.6-3.36 19.483-.65.468-.5 1.738-1.007 2.352-.193.702-.833.958-.672 2.015-3.053 5.346-5.93 10.867-10.75 14.445v-2.016c.56-2.915.56-8.171 0-11.085-3.061-31.763-24.33-47.11-58.786-46.357 19.204 7.222 35.104 17.747 37.959 41.318v4.367c-.82 9.446-3.48 16.603-7.39 24.187-3.151 6.109-8.326 12.857-8.063 19.819.489 12.892 19.5 14.666 23.515 2.687-1.015-2.008-1.661-4.386-1.344-7.726.386-4.766 7.952-7.155 9.406-1.68 1.32 4.51-.748 8.09-2.688 10.413 4.484 13.268 23.199 10.318 21.499-3.358-.79-6.355-6.266-11.324-14.11-10.75-1.076-1.8 2.098-5.032 3.696-6.383.497-.175.847-.497 1.344-.672.979-.924 3.043-.764 4.367-1.344 1.43.025 2.35.563 4.03.336.064.498.813.309 1.345.336 2.217.965 5.76 2.314 8.062 3.695 1.64.984 5.084 4.763 6.719 4.703.886-.032 3.2-2.602 4.03-3.023 1.789-.908 2.937-1.293 5.376-1.68v-.336c1.603.26 2.162-.525 3.694-.336h3.695c1.988.028 3.692.339 5.039 1.008-1.587 1.437-3.322 2.725-4.367 4.703-13.58 15.868-20.795 38.104-27.881 60.466H425.64c-1.02-.558-4.355-.558-5.375 0-5.074-.49-10.332.26-16.124 0-7-23.57-15.02-46.118-29.226-62.481-.693-1.21-1.994-1.813-2.687-3.023 1.643-.148 2.89-.691 4.703-.672h3.695c5.667.492 10.149 2.169 13.1 5.375 5.12-3.167 9.362-7.211 16.46-8.398v-.336c.697-.2 2.208.416 2.353-.336h1.344c4.125.466 6.815 2.367 8.734 5.039.019.205.05.397.336.336.046.626.22 1.123.672 1.344-.087.983.759 1.032.672 2.016-9.316-1.633-15.412 5.19-15.117 12.765.505 12.937 19.855 12.122 21.499.336-2.93-2.021-3.842-7.946-1.68-11.421.765-.467 1.302-1.162 2.016-1.68 7.31-.934 7.887 8.772 5.039 13.1 2.856 4.81 6.93 8.914 13.772 8.064 7.467-.928 10.083-8.46 10.75-16.46.559-2.133.559-6.602 0-8.734-.298-2.593-.278-3.792-1.008-6.046-6.686-20.643-29.178-39.958-56.435-30.905-4.234 1.406-8.072 4.776-10.75 5.039-4.873.478-16.331-5.655-19.483-9.742-3.665-4.75-1.524-9.431 2.015-13.772a128 128 0 0 0-8.734-8.734c-3.641-4.084-7.491-7.96-12.43-10.75a27.3 27.3 0 0 0-4.03-4.031c-2.65-4.576-9.918-6.612-9.07-13.773.704-5.946 10.899-8.364 16.124-10.75 12.376-5.652 28.698-12.446 39.303-17.804-1.863-8.79 4.365-14.744 9.742-18.476v-.336c.858-.038 1.176-.616 1.679-1.008.969-.487 1.994-.918 2.688-1.68.26-.075.663-.01.672-.336 14.642-7.642 33.26-11.305 52.404-14.445-4.154-4.804-7.817-10.1-12.094-14.781v-.336c-.262-.074-.39-.281-.336-.672-.337 0-.4-.272-.672-.335-.02-.205-.05-.398-.336-.336.057-.841-.516-1.052-1.007-1.344-.02-.207-.051-.4-.336-.337M466.62 349.44c-2.65 2.389-6.44 3.638-9.07 6.047 3.312 1.729 6.333 3.745 9.406 5.71 3.37-1.893 6.709-3.816 9.742-6.046-3.524-1.74-6.156-4.37-10.078-5.711M420.6 194.916c1.1.579 1.587 1.772 2.688 2.352 6.538-5.891 14.03-10.827 20.49-16.796-9.68 2.748-19.192 5.666-28.888 8.398-.342.693 1.577 1.994 2.352 2.688a19 19 0 0 0 3.358 3.358m-16.796 32.249c-5.551.636-8.866 6.787-15.79 5.375-2.856 3.637-7.05 5.939-13.436 6.046.578 1.997 1.565 3.586 2.015 5.71 3.048-.245 5.433 2.936 8.398 2.688 1.209-.101 3.316-1.925 5.375-3.023 7.55-4.03 18.452-7.441 28.889-4.703 1.619-1.181 3.516-2.083 4.367-4.031-5.898-3.572-11.03-9.068-19.818-8.062m18.475 131.346v-6.72h-15.117v6.72c3.132.547 11.936.516 15.117 0m105.48-5.711c-3.82-1.555-10.517-.233-15.453-.672v6.719c.586-.025 1.045.075 1.344.336 4.592-.223 10.077.446 14.109-.336V352.8" style="fill:#0057a3;fill-rule:evenodd" transform="translate(-273.79 -55.17)"></path><path d="M487.785 78.687c.393.502.417 1.374 1.007 1.68 3.41 10.41-3.064 18.6-12.765 19.147h-5.711c.057-.73-1.191-.152-1.68-.336-.104-.456-.841-.28-1.344-.336-.414-.481-1.154-.636-2.015-.672-.73-.837-2.155-.98-2.688-2.016 1.537-1.934 1.085-5.857 3.023-7.39.39 8.946 18.41 10.01 16.46-.672-.47-2.57-2.942-3.735-5.038-5.375-.64-.145-.844-.724-1.68-.672-1.097-1.254-3.023-1.68-4.367-2.688-.271-.064-.335-.337-.672-.336-2.527-2.287-5.231-4.398-5.71-8.734v-3.36c1.09-7.642 5.909-11.557 14.444-11.756 2.47.218 4.712.663 6.719 1.344v.336c.603-.042.708.41 1.344.336.538.582 1.255.984 2.015 1.344.222 1.229-.727 1.289-.672 2.352-.394.054-.283.612-.336 1.008-.621.05-.206 1.137-.671 1.344-.834 4.22-2.211-1.247-3.36-2.352-2.991-2.878-11.05-2.295-12.093 2.016-2.178 9.013 12.277 9.818 15.79 15.788M550.602 81.375c-1.348 2.89-5.244 8.58-4.703 10.414.088.472.736.383 1.008.672.64.144.844.724 1.68.672 2.885 1.818 6.794 2.61 9.405 4.703-1.153 1.086-1.383 3.096-2.352 4.367-3.09-2.173-6.735-3.79-10.077-5.711-1.121 0-1.146-1.093-2.352-1.008.043.603-.411.709-.336 1.344-1.347 1.9-2.2 4.294-3.36 6.383-.278.84-.92 1.319-1.007 2.352-.842 1.285-1.438 2.817-2.016 4.367 4.26 2.01 8.827 3.714 13.102 5.71-.614 1.066-1.623 1.737-1.68 3.36-.394.054-.284.613-.336 1.008-5.963-2.323-10.866-5.707-16.796-8.062-.055-.394-.613-.283-1.008-.336-.982-1.146-3.097-1.16-4.031-2.352 4.642-7.563 8.49-15.92 12.429-24.186h.336c-.088-.984.76-1.032.672-2.016 2.2-3.735 3.67-8.2 5.71-12.093 6.558 3.633 13.05 7.329 20.492 10.078.009.327.41.26.672.336v1.008c-1.355.772-1.29 2.965-2.352 4.03-3.04-2.11-6.562-3.74-9.742-5.71h-.336v-.335c-1.063.055-1.122-.893-2.351-.672.053.833-.527 1.037-.671 1.677M430.005 92.46c-.037-2.65-.73-4.646-1.008-7.055-1.343-8.622-2.663-17.268-4.703-25.194 6.325-.954 13.006-1.551 18.812-3.023 1.854-.05 3.317-.49 4.703-1.008.757.25.13 1.884.336 2.688.178.27.35.545.336 1.008-.138.809.613.73.336 1.68-4.793.246-9.015 1.063-13.773 1.344.078 3.729.643 6.97 1.344 10.077v1.008c-.074 1.082.594 1.42.336 2.688 4.909-.69 9.252-1.945 14.108-2.688-.291 2.194.427 3.38.672 5.039-4.75.402-9.208 1.094-13.772 1.68.2.696-.416 2.207.336 2.352v.672c.374 4.552 1.537 8.317 2.015 12.765 5.158-.553 9.483-1.938 14.109-3.023-.28 2.079 1.074 4.29.672 5.375-8.417.652-15.888 2.252-23.515 3.695-.352-3.457-.525-7.091-1.344-10.08M404.812 94.14c-.375-1.528-1.263-2.544-1.68-4.031-1.613.29-2.977.83-4.031 1.68-3.078.84-5.636 2.202-8.062 3.695-.625.046-1.123.22-1.344.672-.952.392-2.222.466-2.688 1.344-.625.046-1.123.22-1.344.672.314.246.509.61.672 1.008.373 1.308.929 2.43 1.68 3.359v.336c2.028 4.802 4.507 9.154 6.719 13.772-3.181 1.299-6.356 2.602-9.07 4.367-5.007-12.91-10.876-24.955-16.796-36.951-.336-.448-.554-1.014-1.008-1.344V81.71c.39.055.598-.074.672-.336.86-.036 1.602-.19 2.016-.672.39.055.598-.074.672-.336h.336c.27-.178.545-.351 1.008-.336 1.106-.685 2.355-1.228 3.359-2.016.39.055.598-.074.672-.336.365.083.228.668.672.672 1.894 5.385 3.87 10.687 6.719 15.117.109-.787 1.465-.326 1.679-1.008.543.095.579-.318 1.008-.336 1.923-.876 3.922-1.676 5.71-2.688h.337c1.189-.714 2.694-1.112 3.695-2.016.39.055.598-.074.672-.336 1.524-.156 1.992-1.367 3.695-1.344-1.858-5.868-5.01-10.442-7.39-15.788 1.056-.176 1.874-.59 2.688-1.008.858-.15 1.544-.471 2.015-1.008.858-.15 1.544-.471 2.016-1.008 1.205.085 1.23-1.01 2.352-1.008.486.522.448 1.568 1.008 2.016 2.335 6.398 5.026 12.44 8.062 18.14q.624 2.567 2.016 4.367c1.939 5.227 4.568 9.765 7.054 14.445-2.502.632-4.582 1.688-6.718 2.687-.3.149-.601.295-.672.672h-.336c-.64.144-.844.724-1.68.672-1.951-5.105-3.924-10.187-6.385-14.78M573.445 133.443c1.193-5.3 2.376-10.612 3.022-16.46-3.491 3.115-6.27 6.944-9.07 10.75-1.04.975-1.893 2.138-2.687 3.359-.064.272-.337.335-.336.672-1.785.783-2.498-2.127-4.031-2.688-1.268-1.307-2.961-2.19-4.367-3.36 4.13-4.268 8.226-8.57 11.758-13.436 2.098-2.045 3.944-4.342 5.71-6.718 1.09-.814 1.76-2.048 2.688-3.023.064-.272.337-.335.336-.672 2.797-2.69 4.76-6.214 7.39-9.07v.336c1.434.919 2.264 2.44 3.696 3.359 5.05 4.579 11.927 7.333 14.108 14.78v3.36c-1.385 6-7.021 10.586-14.444 8.398-1.028-.204-1.75-.713-2.688-1.008-.284 1.507-.72 2.864-.672 4.703-1.064 4.534-1.64 9.559-2.016 14.78-.515 1.389-.616 3.19-.672 5.039-.542.095-.578-.317-1.008-.336-.148-.3-.295-.601-.672-.672a9.3 9.3 0 0 0-2.352-2.352c-1.504-1.295-3.21-2.39-4.702-3.695.348-2.004 1.03-3.672 1.009-6.046m19.819-27.21c-1.18-1.357-3.56-5.493-5.04-3.36-1.441 2.229-10.581 10.78-10.413 12.094.17 1.328 4.815 3.38 6.719 3.359 3.208-.038 5.353-2.574 6.719-4.031.956-1.06 1.77-2.261 2.352-3.695.755-1.172.227-3.45-.337-4.367M591.585 371.947c-.144.56-1.477 1.617-.672 2.016.823-.632 1.643-1.268 3.023-1.344 3.989.042 5.826 2.235 5.71 6.383.138.81-.613.73-.336 1.68-.392.504-.97.82-1.008 1.68a6.8 6.8 0 0 0-2.016 2.016c-.975.928-2.21 1.598-3.022 2.688-.228.78-1.117.898-1.344 1.68-.377-.071-.523-.373-.672-.672-1.481-1.99-3.558-3.386-5.04-5.375a61.4 61.4 0 0 0-6.046-6.047c-1.102-1.025-2.48-1.775-3.023-3.36 3.766-2.271 6.08-9.23 12.094-7.053h.336c1.302 1.272 2.43 2.719 2.016 5.708m-5.711-2.351c-.74-.825-2.865-.196-3.023.672h-.336c-.004.668-.916.428-.672 1.344a6.8 6.8 0 0 0 2.016 2.016c.61 1.707 3.199 4.424 4.367 1.68.383-.736.866-1.372.672-2.688h-.336c-.053-.396.058-.953-.336-1.008-.02-.204-.051-.397-.336-.336.057-1.176-1.182-1.058-1.68-1.68zm7.726 14.109c6.934-1.14-2.07-12.73-5.375-5.375.019.205.05.397.336.336a37 37 0 0 0 4.703 4.703c.019.205.05.398.336.336M353.08 375.643c-.02.205-.05.398-.336.336-.693-1.21-1.995-1.813-2.688-3.023-.348-.884-1.332-1.131-1.68-2.016-.841-.057-1.052.517-1.344 1.008-1.323 1.253-2.931 2.22-3.695 4.03.479.082.567.555 1.008.673 1.51 1.065 2.533 2.618 4.03 3.695-1.654 2.432-2.711.87-4.366-.672-.22-1.235-1.238-1.673-2.015-2.352-.261.075-.663.01-.672.336a23 23 0 0 0-3.695 3.695c-.938 1.078-1.824 2.207-3.023 3.023-.585-1.542-2.104-2.15-3.023-3.36.347-.883 1.332-1.131 1.679-2.015a61.5 61.5 0 0 0 6.047-6.047 27.3 27.3 0 0 0 4.03-4.031c.939-1.077 1.825-2.207 3.024-3.022.07.376.373.522.672.672a19 19 0 0 0 3.359 3.358 6.8 6.8 0 0 0 2.016 2.016c.464.992 1.55 1.36 2.015 2.352a3.03 3.03 0 0 0-1.343 1.344M572.773 380.682c1.548 2.93 3.717 5.24 5.374 8.063h.336c.038.857.616 1.176 1.008 1.68.075.26.01.662.336.672.916 1.898.916 5.49 0 7.39-.742.266-.841 1.175-1.344 1.68-.615.392-1.137.878-1.68 1.344-.594.302-.98.81-1.68 1.008-.376.07-.522.373-.672.672-.395.053-.953-.058-1.007.336-1.497.263-3.207 1.063-4.703.336-4.312-.951-5.287-5.238-8.063-7.727-.291-1.052-.832-1.854-1.68-2.352-.163-.396-.358-.762-.672-1.008-.563-1.117-1.54-1.818-2.016-3.022.982-.586 2.144-.993 2.688-2.016.479-.081.566-.554 1.008-.672 2.026 2.229 3.223 5.287 5.375 7.39.339.669.58 1.436 1.344 1.68-.057.84.516 1.052 1.008 1.344 1.248 2.217 4.939 4.674 7.726 2.352 1.607-.75 3.69-2.797 2.688-5.04v-.335c-.742-3.288-2.65-5.411-4.366-7.726-1.096-1.481-2.2-2.953-3.36-4.367-.241-.884-1.986-1.273-1.007-2.352h.336c.78-.228.898-1.116 1.68-1.344.359.758.76 1.476 1.343 2.014M366.852 383.369c2.04 1.654 4.078 3.313 5.375 5.71.105.455.478.642.336 1.345h.336c.057.502-.12 1.239.336 1.343.253 2.717-.454 4.474-1.008 6.383-.262.074-.391.28-.336.672-1.177.727-1.333 2.475-2.688 3.023-.697.646-1.627 1.06-2.352 1.68-1.12.337-2.308.604-3.36 1.008-1.376.033-2.752.065-3.694-.336-1.25-.208-2.111-.801-3.36-1.008-.985-.806-2.064-1.52-3.022-2.352a1.7 1.7 0 0 1-1.007-1.008 3.03 3.03 0 0 0-1.344-1.344c.052-.836-.528-1.04-.672-1.68-.466-.206-.051-1.293-.672-1.344v-.672c-.595-1.643-.083-2.892 0-4.702.479-.642.78-1.46 1.008-2.352.677-.442 1.137-1.104 1.344-2.016 1.76-1.486 3.287-3.208 6.046-3.695h1.008c.944-.776 2.59-.104 3.695 0h.672c.414.48 1.155.637 2.015.672.222.452.719.627 1.344.673m2.016 5.039c-.764-3.441-5.465-4.964-8.734-3.023-.377.07-.523.372-.672.672-1.47.434-2.112 1.695-3.023 2.688-1.613 1.749-3.781 4.725-3.023 7.726v.672c.342 1.338 1.017 2.343 2.016 3.023.709.299.993 1.022 2.016 1.008 1.035.684 4.035.463 4.703-.336 3.652-1.723 6.252-4.497 7.054-9.07.78-.698.244-2.915-.337-3.36M548.587 404.196c.44.9.9 1.785 1.344 2.688 1.426 2.045 2.144 4.799 4.03 6.382 1.72-1.416 3.809-2.462 5.71-3.694.089 1.032.73 1.51 1.009 2.35-.735.498-1.81.656-2.352 1.345-.261.076-.662.01-.672.336-.625.047-1.122.222-1.344.672-2.182.73-3.681 2.142-5.71 3.023-2.104-2.823-3.192-6.662-5.375-9.405-.125-1.107-.785-1.68-1.344-2.352-.15-.858-.472-1.545-1.008-2.016-.163-.396-.358-.762-.672-1.008-.368-1.535-1.357-2.45-2.016-3.695 1.922-.317 2.738-1.74 4.703-2.016.484 1.53 1.154 2.877 2.016 4.03v.337c.163.396.357.762.672 1.008v.336c.393.502.418 1.374 1.009 1.679M396.749 402.853c1.997 3.062 2.026 8.352 0 11.42-.581.54-.984 1.257-1.343 2.017-.774.682-1.706 1.206-2.352 2.016-1.545.358-2.58 1.229-4.367 1.344-2.03.126-3.712-.095-5.375-.336-1.278-.737-2.557-1.474-4.031-2.016a142 142 0 0 1-3.36-3.36c-.074-.26-.008-.661-.335-.671-.306-1.15-.83-2.081-1.007-3.358v-1.344c.603-6.115 3.623-9.813 9.07-11.086h3.695c2.89.244 4.584 1.687 6.719 2.688.019.205.05.397.336.336a9.3 9.3 0 0 0 2.35 2.35m-7.726-3.024c-1.478-.906-3.526.495-4.703 1.008-1.336 1.127-2.76 2.167-3.36 4.03-2.284 2.569-3.575 9.388.337 11.086.138.423.433.687 1.008.672.708.859 2.478.657 4.03.672v-.336c1.259-.085 2.16-.527 2.689-1.344a6.8 6.8 0 0 0 2.016-2.016c.262-.073.39-.281.336-.672 1.813-1.96 3.439-5.635 2.352-9.405-.163-.396-.358-.762-.672-1.008-.252-1.091-1.215-1.473-2.016-2.016-.415-.481-1.157-.636-2.017-.671M406.155 405.876c1.736.503 3.04 1.438 5.039 1.68.414.48 1.155.636 2.016.672.057.392.53.364 1.008.336 1.508.843 3.357 1.346 5.375 1.68.492.59-.22 2.015-.672 2.687-.64-.144-.844-.724-1.68-.672-.447-.56-1.493-.521-2.015-1.007-.635.075-.741-.38-1.344-.336-.865 4.285-2.78 7.52-3.695 11.757-.262.074-.391.28-.336.672-.718 1.745-.843 4.084-2.016 5.375-1.545-.358-2.578-1.23-4.367-1.344.105-.454.478-.642.336-1.344.472-.088.383-.737.672-1.008-.076-.635.378-.741.336-1.344q1.325-2.706 2.015-6.047c1.085-2.61 2.162-5.23 2.688-8.397-1.027.243-.988-.58-2.016-.336-.611-.845-2.736-.176-3.023-1.344.466-.542.284-1.731 1.008-2.016.073.262.28.39.67.336M529.775 405.54c-2.47.44-3.857 1.965-4.367 4.367-1.19 5.78 1.327 10.765 5.375 12.429 2.692 1.654 7.06.154 8.062-2.016h.336c.554-.566.729-1.51 1.344-2.016 1.254 6.566-8.738 8.474-14.108 6.383-.92-.313-1.433-1.031-2.352-1.344-.6-.632-.908-1.555-1.68-2.016v-.336c-1.264-2.207-2.148-4.794-2.016-8.398.33-1.014.686-2.001 1.008-3.022.454-.33.67-.896 1.008-1.344.228-.78 1.116-.9 1.344-1.68.377-.071.522-.373.672-.672h.336c2.68-1.688 5.467-3.268 10.077-3.023.184.488-.393 1.736.336 1.68v1.6800000000000002c-.702-.193-.958-.833-2.016-.672-.363-.557-2.998-.557-3.36 0M430.34 412.93c.398.388 1.189.38 2.017.336.042.742 1.425.144 2.016.336 1.443.796 3.382 1.098 4.03 2.688.485.747.844 1.62.673 3.023-.536 2.824-2.908 3.81-5.711 4.367 1.829.97 3.71 1.887 4.03 4.367.164 1.842-.234 3.124-1.007 4.03-.427.918-1.348 1.34-2.016 2.017-4.46.955-9.018-.507-12.43-1.68v-1.008c2.054-5.785 2.377-13.3 4.368-19.148h.672c.835.51 2.039.649 3.359.672m.673 2.015c-.375-.981-1.092.428-1.008 1.008-.558 1.906-.856 4.07-1.344 6.047 3.308 1.239 6.306-.6 5.71-4.367-.052-.396.059-.953-.335-1.008v-.672c-1.01-.332-1.498-1.188-3.023-1.008m1.344 14.782c1.442-3.511-.903-6.001-4.031-6.047-.155 2.76-1.754 5.854-1.007 8.398 2.2 1.074 4.933-.212 5.038-2.351M456.208 417.633c.632 3.512 2.056 6.23 2.688 9.742h.336c.239 1.553.678 2.904 1.344 4.03-.278.95.473.87.336 1.68.507.613.356 1.884 1.007 2.352-.161 1.058.479 1.313.672 2.016v.672h-.336c-.39-.281-.9-.442-1.68-.336h-3.022c.015-.462-.158-.737-.336-1.008-.053-.396.058-.953-.336-1.008.2-1.656-.873-2.038-.672-3.694h-.336v-.672c-1.224-.792-4.114.083-5.375-.672-1.363-.133-2.34.122-2.351 1.344-1.035 1.429-1.233 3.693-2.352 5.038-.063-.497-.812-.308-1.344-.336h-.336c-.261-.075-.663-.01-.672-.336.019-.43.43-.465.336-1.008a45.4 45.4 0 0 0 3.695-7.39c1.878-2.937 3.224-6.405 4.703-9.742h.336c.149-.858.47-1.544 1.008-2.016h2.016c.465.206.05 1.294.67 1.344m-2.352 7.726c.178-1.41-.587-1.877-.672-3.023-1.564 1.012-2.02 3.13-2.688 5.039h-.336c.052.836-.527 1.04-.672 1.68 1.428.587 3.78.25 5.71.336-.074-.261-.008-.663-.335-.672a8.6 8.6 0 0 0-.672-2.688c-.074-.261-.008-.663-.335-.672M495.846 428.383c-.044.828-.051 1.618.336 2.016-.258 1.266.41 1.605.336 2.688 2.323-.588 4.952-.871 7.055-1.68.04.967-.184 2.198.336 2.688-.591.192-1.974-.406-2.016.335-2.246.105-4.288.415-6.047 1.008-1.603-.26-2.162.525-3.695.336-.064-1.614-.16-3.198-.672-4.366v-2.016c-1.027-3.563-1.157-8.024-2.352-11.422.18-1.3-.6-1.64-.336-3.023 1.509.165 2.518-.17 3.695-.336.463.015.738-.158 1.008-.336.184.488-.393 1.736.336 1.68v1.344c.724 3.642 1.052 7.68 2.016 11.084M475.69 429.39c-.08 2.209.017 4.24.337 6.047 1.889-.238 3.822-.433 5.71-.672h1.345v2.3520000000000003c-1.574.218-4.022-.438-5.04.336-1.573.218-4.021-.438-5.038.336h-1.68v-3.36c-.214-1.24.436-3.345-.336-4.03.036-3.618-.07-7.097-.672-10.077.034-1.377.066-2.753-.336-3.695h2.352c.696-.2 2.207.415 2.352-.336.75.145.136 1.656.336 2.352.216 1.353-.437 3.572.336 4.367v.336c.219 1.906-.442 4.695.335 6.045" style="fill:#221c1c;fill-rule:evenodd" transform="translate(-273.79 -55.17)"></path></g><!-- source: https://football-logos.cc --></svg>