<svg xmlns="http://www.w3.org/2000/svg" fill="none" viewBox="-0.02 0 295.24 400"><!-- Source: https://football-logos.cc --><g clip-path="url(#a)" data-source="https://football-logos.cc"><path fill="#EE3425" fill-rule="evenodd" d="M78.82 15.865c23.03.082 46.511-4.696 68.337-14.298l.625-.276.635.266c22.651 9.587 44.8 14.058 66.498 13.894 21.683-.164 42.942-4.958 63.81-13.894l2.213-.948v2.413l.194 178.119a35.3 35.3 0 0 1-.768 7.231 38.4 38.4 0 0 1-2.233 7.124c-3.134 7.349-10.099 16.787-19.322 26.912-9.72 10.662-21.975 22.128-34.916 32.709-12.818 10.483-26.318 20.131-38.399 27.654-12.214 7.61-23.019 13.059-30.261 15.036-1.173.322-2.437.65-3.702.886-1.317.251-2.663.415-3.985.404-1.336.011-3.41-.22-5.403-.563-1.925-.333-3.835-.789-5.008-1.26-7.252-2.888-19.942-9.387-34.23-18.282-10.98-6.837-22.933-15.103-34.117-24.254-13.029-10.657-25.37-22.108-35.126-32.74-9.121-9.94-16-19.199-19.113-26.492-.932-2.187-1.802-4.537-2.437-6.944-.646-2.438-1.05-4.947-1.05-7.411l.097-178.6V0l2.29 1.116c19.946 9.761 42.438 14.662 65.376 14.744zM236.286 131.61v30.343h41.64l-.03-30.343zm0-33.964v31.06h41.605l-.031-31.06zm0-37.471h41.533l-.062-54.746c-13.648 5.65-27.464 9.557-41.476 11.585v43.16zm0 34.568h41.569l-.036-31.664h-41.538v31.664zm7.498 138.492h-7.498v7.006a335 335 0 0 0 7.498-7.006m28.596-33.539h-36.099v30.635h10.473c3.436-3.4 6.683-6.77 9.684-10.058 6.826-7.487 12.362-14.549 15.942-20.577m-36.099-2.903h37.712q.67-1.308 1.194-2.53a35 35 0 0 0 2.048-6.525c.461-2.197.712-4.424.707-6.586l-.021-16.295h-41.645v31.93zm-43.648 70.406v7.164c3.38-2.263 6.822-4.66 10.299-7.164zm0-33.964v31.06h14.273a393 393 0 0 0 14.954-11.635 371 371 0 0 0 12.06-10.299h-.543v-9.126zm0-2.904h40.744v-30.635h-40.744zm0-33.538h40.744v-31.931h-40.744zm0-34.835h40.744v-30.343h-40.744zm0-33.246h40.744v-31.06h-40.744zm-43.31 138.487v28.627a22 22 0 0 0 1.608-.246c1.209-.23 2.377-.532 3.452-.824 6.924-1.89 17.433-7.211 29.411-14.673a313 313 0 0 0 5.935-3.789v-9.09h-40.406zm0-2.904h40.406v-31.06h-40.406zm0-33.964h40.406v-30.635h-40.406zm0-33.538h40.406v-31.931h-40.406zm0-34.835h40.406v-30.343h-40.406zm0-33.246h40.406v-31.06h-40.406zm43.31-68.537h40.744V17.402a156 156 0 0 1-18.462 1.234 157.6 157.6 0 0 1-22.287-1.424v42.962zm-43.31 0h40.406V16.792c-13.304-2.048-26.768-5.817-40.406-11.405v54.787m43.31 34.568h40.744V63.078h-40.744zm-43.31 0h40.406V63.078h-40.406zm-48.584 179.123v-6.673H90.706a353 353 0 0 0 10.033 6.673m2.903-6.673v8.512c.313.194.62.389.932.579 14.15 8.813 26.636 15.209 33.718 18.036.943.374 2.622.768 4.374 1.071 1.342.23 2.688.409 3.754.486v-28.689h-42.778zm0-2.903h42.778v-31.06h-42.778zm0-33.964h42.778V199.69h-42.778zm0-33.539h42.778v-31.93h-42.778zm0-34.834h42.778v-30.343h-42.778zm0-33.247h42.778v-31.06h-42.778zM60.046 233.229v9.93a401 401 0 0 0 10.75 9.11 301 301 0 0 0 15.772 12.02h14.171v-31.06zm0-2.904h40.693V199.69H60.046zm0-33.539h40.693v-31.93H60.046zm0-34.834h40.693v-30.343H60.046zm0-33.247h40.693v-31.06H60.046zm-2.904 0v-31.06H14.283l-.015 31.06h42.884zm0 33.247v-30.343h-42.88l-.015 30.343h42.9zm0 34.834v-31.93H14.247l-.01 16.295c0 2.157.364 4.394.952 6.602.595 2.243 1.409 4.445 2.29 6.509q.522 1.222 1.198 2.53h38.48zm0 33.539V199.69H20.29c3.539 5.93 8.993 12.829 15.707 20.147a274 274 0 0 0 10.186 10.488h10.964zm0 10.258v-7.354h-7.958a363 363 0 0 0 7.958 7.354m46.5-145.846h42.778V63.073h-42.778zm-2.903-77.048a170 170 0 0 1-21.93 1.352c-22.548-.082-44.681-4.727-64.49-13.976l-.046 89.667h86.466V17.689M34.343 82.323l5.915-24.571H25.35V41.717h19.317L43.602 39.3H32.1v-7.118h.942l15.235.035h.497l.282.41 6.166 9.09h5.659l5.346-9.044.272-.456h.537l14.79-.035h.943v7.113h-10.72l-1.31 2.417H88.37v16.034H74.503l5.075 23.184c.25 1.142.41 2.187.256 3.247-.159 1.106-.645 2.161-1.685 3.241a20 20 0 0 1-1.572 1.455 43 43 0 0 1-1.613 1.27c-.666.502-1.485.784-2.34.927-.779.133-1.598.159-2.356.154l-23.143-.098h-.02c-1.05-.03-2.771-.22-4.328-.522-1.26-.246-2.448-.574-3.17-.968-.737-.4-1.393-.799-2.043-1.26a22 22 0 0 1-2.038-1.649c-.59-.527-.973-1.234-1.168-1.992-.2-.789-.2-1.644-.015-2.412M146.425 5.357a172.4 172.4 0 0 1-42.777 11.942v42.87h42.777z" clip-rule="evenodd"></path><path fill="#252527" fill-rule="evenodd" d="m231.211 329.215 5.167-4.225c1.014-.83 1.957-1.367 2.807-1.603a5.2 5.2 0 0 1 2.524-.082 6.4 6.4 0 0 1 2.366 1.075 10.5 10.5 0 0 1 2.059 1.952q1.475 1.805 1.875 3.134c.266.886.343 1.751.22 2.596q-.183 1.269-.835 2.177c-.594.824-1.204 1.495-1.818 2.002l-5.167 4.225zm-11.968 8.982 9.848-6.882 1.777 2.545-6.156 4.302 1.327 1.894 5.71-3.989 1.7 2.427-5.705 3.99 1.639 2.345 6.34-4.429 1.884 2.693-10.032 7.011-8.327-11.912zm-13.971 7.442 12.009-6.52 1.716 3.16-4.035 2.187 5.218 9.617-3.943 2.141-5.219-9.618-4.035 2.187-1.716-3.154zm-6.283 2.427 4.122-1.823L209 359.532l-4.117 1.823-5.889-13.289zm-16.019 5.505 3.994-1.275 7.636 5.987-2.443-7.646 4.041-1.291 4.424 13.848-4.045 1.29-7.59-5.95 2.427 7.599-4.02 1.286zm-7.401 1.475 4.41-.845 1.628 8.506c.159.84.18 1.665.062 2.464a5.2 5.2 0 0 1-.861 2.207q-.683.999-1.536 1.521c-.799.481-1.798.84-2.996 1.065a20 20 0 0 1-2.299.292c-.84.061-1.567 0-2.172-.184a5.2 5.2 0 0 1-1.746-.938q-.838-.667-1.255-1.464c-.45-.855-.737-1.634-.87-2.33l-1.629-8.507 4.404-.845 1.67 8.706c.148.779.481 1.342.993 1.701.518.353 1.158.461 1.921.312q1.13-.213 1.654-.988.521-.767.297-1.957l-1.669-8.706zm-35.346 2.863 5.925-.082 2.382 8.813 2.14-8.875 5.895-.081.205 14.533-3.677.052-.154-11.083-2.678 11.118-3.329.047-2.981-11.042.154 11.083-3.672.051-.205-14.534zm-8.173 11.026-5.055-.594-1.009 2.294-4.553-.538 7.139-13.791 4.881.573 3.702 15.072-4.67-.553-.44-2.463zm-.574-3.237-.963-5.377-2.197 5.003zm-23.429-13.597 4.373 1.004-1.137 4.947 4.789 1.101 1.136-4.947 4.389 1.009-3.252 14.165-4.394-1.009 1.317-5.735-4.789-1.101-1.316 5.735-4.373-1.003zm-17.868 3.483 4.05 1.347q-.259 1.014-.066 1.674c.21.717.717 1.235 1.51 1.557q.891.363 1.542.133c.436-.148.728-.409.876-.773.138-.348.118-.727-.077-1.121-.194-.4-.799-.943-1.813-1.639q-2.488-1.713-3.246-3.211c-.513-.994-.553-2.018-.129-3.073.277-.691.743-1.265 1.388-1.716q.976-.683 2.397-.722 1.422-.036 3.529.809 2.58 1.045 3.549 2.551t.379 3.713l-4.01-1.347q.213-.983-.118-1.598c-.225-.415-.63-.737-1.219-.978q-.729-.294-1.219-.133-.493.16-.67.604c-.088.215-.062.446.066.696.118.257.517.605 1.188 1.055q2.49 1.69 3.426 2.766c.625.722.999 1.444 1.116 2.187a4.1 4.1 0 0 1-.266 2.212 4.6 4.6 0 0 1-1.68 2.105c-.773.532-1.664.824-2.673.85q-1.513.048-3.472-.743-3.435-1.382-4.225-3.241c-.528-1.235-.574-2.561-.143-3.964zm-8.988-15.179 10.714 5.449-1.409 2.77-6.693-3.405-1.05 2.063 6.207 3.16-1.342 2.643-6.207-3.155-1.295 2.55 6.893 3.503-1.49 2.935-10.909-5.552 6.586-12.956zm-14.257-9.3 3.713 2.514-2.848 4.199 4.066 2.756 2.848-4.2 3.728 2.53-8.158 12.03-3.733-2.53 3.303-4.87-4.066-2.755-3.304 4.875-3.712-2.515 8.153-12.029zm-10.345 2.376 2.31 3.405c-.902.692-1.808 1.148-2.715 1.358a5.3 5.3 0 0 1-2.698-.036q-1.339-.36-2.853-1.588c-1.229-.993-2.084-1.987-2.581-2.975-.486-.989-.645-2.156-.481-3.513.163-1.352.814-2.735 1.946-4.133 1.516-1.864 3.175-2.899 4.983-3.093q2.71-.292 5.438 1.92c1.424 1.152 2.31 2.351 2.653 3.585q.522 1.85-.338 4.122l-3.626-1.812c.17-.431.261-.769.272-1.025a2.53 2.53 0 0 0-.22-1.193 2.6 2.6 0 0 0-.774-.983q-1.193-.968-2.591-.528c-.697.21-1.46.825-2.28 1.829q-1.521 1.873-1.515 3.031.009 1.154 1.04 1.992c.665.538 1.32.763 1.966.666q.967-.147 2.064-1.024zm180.184-4.558 5.024 6.145.85-.696c.727-.594 1.178-1.101 1.362-1.516.174-.41.184-.891.031-1.434-.154-.548-.6-1.265-1.337-2.166q-1.458-1.782-2.586-1.967c-.748-.117-1.578.19-2.479.927l-.87.712z" clip-rule="evenodd"></path><path fill="#EE3425" fill-rule="evenodd" d="M268.975 385.763c1.131-1.203 3.154-2.683 5.285-3.764 1.807-.916 3.733-1.562 5.341-1.541q.56.001 1.142.01c3.339.026 7.093.056 10.437.62l-.43 2.57c-3.17-.532-6.796-.563-10.027-.588-.385 0-.769-.006-1.137-.011-1.153-.01-2.668.518-4.148 1.27-1.87.943-3.611 2.213-4.563 3.222zm15.358-36.232a.722.722 0 1 1 0 1.444h-5.28a.722.722 0 1 1 0-1.444zm2.258 3.554a.722.722 0 1 1 0 1.444h-5.279a.721.721 0 1 1 0-1.444zm2.208 2.448a.722.722 0 1 1 0 1.444h-5.28a.721.721 0 1 1 0-1.444zm.481 2.402a.721.721 0 1 1 0 1.444H284a.722.722 0 1 1 0-1.444zm2.11 5.761a.722.722 0 1 1 0 1.444h-5.28a.721.721 0 1 1 0-1.444zm1.132 1.967a.721.721 0 1 1 0 1.444h-2.141a.722.722 0 1 1 0-1.444zm.092 25.063a.721.721 0 1 1 0 1.444h-6.279a.72.72 0 0 1-.44-.149v.052a.72.72 0 0 1-.722.722h-4.404a.721.721 0 1 1 0-1.444h4.404c.169 0 .317.056.44.148v-.051c0-.4.323-.722.722-.722zm.241-3.457a.722.722 0 1 1 0 1.444h-4.405a.722.722 0 1 1 0-1.444zm-1.393-2.643a.722.722 0 1 1 0 1.445h-5.608a.722.722 0 1 1 0-1.445zm-17.187-5.571a.721.721 0 1 1 0 1.444h-4.394a.722.722 0 1 1 0-1.444zm.527-2.663a.721.721 0 1 1 0 1.444H269.2a.721.721 0 1 1 0-1.444zm1.778-2.715a.722.722 0 1 1 0 1.444h-5.603a.721.721 0 1 1 0-1.444zM21.401 392.743h-.809a.72.72 0 1 1 0-1.444h2.873c.287-.348.507-.747.676-1.172.103-.257.19-.528.267-.804-.938-1.035-1.87-1.875-2.879-2.505-1.126-.701-2.366-1.142-3.83-1.29-2.248-.226-4.543-.149-6.842-.072-1.05.036-2.105.072-3.2.077h-.58a3.08 3.08 0 0 1-.553 1.915c-.24.354-.496.671-.752.963h3.666a.721.721 0 1 1 0 1.444H4.445c-.46.543-.835 1.111-.957 1.803a16 16 0 0 0-.139.952l-.02.169h3.948a.721.721 0 1 1 0 1.444H3.262c.026.748.149 1.368.384 1.849.313.64.866 1.055 1.675 1.199.03.005.113.015.235.03 1.388.169 2.756.052 4.113-.215 1.418-.281 2.847-.727 4.291-1.203.666-.22 1.337-.451 2.013-.702h-2.689a.72.72 0 1 1 0-1.444h5.654q.177 0 .323.077a36 36 0 0 0 2.125-1.081zm15.84-21.56a.721.721 0 1 1 0 1.444h-6.084a.72.72 0 1 1 0-1.444zm6.192-12.147a.72.72 0 1 1 0 1.444h-3.134a.721.721 0 1 1 0-1.444zm2.714-3.36a.721.721 0 1 1 0 1.445h-7.19a.722.722 0 1 1 0-1.445zm2.689-2.734a.72.72 0 1 1 0 1.444h-7.19a.721.721 0 1 1 0-1.444zm-9.894 15.788c-1.988-3.318-4.605-6.401-7.595-9.351-3.022-2.981-6.443-5.833-9.997-8.67-1.06-.845-2.11-1.711-3.098-2.643a6.5 6.5 0 0 0-3.2.82c-1.189.66-2.223 1.685-3.094 2.955-1.92 2.786-3.539 5.571-4.89 8.403h7.2a.722.722 0 1 1 0 1.445h-7.19a.73.73 0 0 1-.559-.262c-.097.216-.19.431-.287.651l-.43 1.024h5.388a.722.722 0 1 1 0 1.444H5.239q-.254.69-.492 1.388h4.81a.721.721 0 1 1 0 1.444H4.28c-.19.61-.363 1.224-.532 1.844h2.924a.721.721 0 1 1 0 1.444H3.385a51 51 0 0 0-.466 2.156 16.6 16.6 0 0 0-.307 2.279c-.036.727 0 1.449.148 2.146a9.4 9.4 0 0 0 1.142 2.893 11.1 11.1 0 0 0 2.12 2.556c.282.256.86.251 1.414.24h.205c1.009-.005 2.074-.041 3.134-.076 2.386-.082 4.773-.159 7.175.082 1.89.194 3.492.757 4.952 1.664.707.44 1.372.958 2.023 1.547a61 61 0 0 0 .205-2.146h-1.854a.721.721 0 1 1 0-1.444h1.95q.039-.676.068-1.342h-3.176a.721.721 0 1 1 0-1.444h3.232l.046-1.337h-2.842a.721.721 0 1 1 0-1.444h2.883l.01-.43h-4.675a.722.722 0 1 1 0-1.445h4.716c.03-.87.067-1.73.113-2.57l2.601.143c-.092 1.68-.138 3.278-.184 4.875-.097 3.309-.195 6.622-.655 10.012-.16 1.158-.354 2.371-.815 3.519-.502 1.249-1.29 2.371-2.612 3.175a39 39 0 0 1-4.634 2.391 51 51 0 0 1-4.543 1.711c-1.536.507-3.052.978-4.599 1.28-1.603.318-3.231.451-4.921.246a6 6 0 0 1-.384-.062c-1.7-.307-2.878-1.203-3.564-2.627-.61-1.265-.784-2.914-.548-4.901q.053-.47.169-1.101c.317-1.772 1.275-2.786 2.279-3.846.414-.44.844-.896 1.177-1.382.087-.129.108-.298.077-.497-.04-.282-.159-.61-.317-.978-.999-.927-1.829-1.936-2.474-3.027a12.2 12.2 0 0 1-1.46-3.692c-.2-.927-.245-1.88-.2-2.822.047-.917.18-1.803.35-2.643a55 55 0 0 1 3.476-11.282c1.557-3.61 3.534-7.139 5.977-10.682 1.085-1.583 2.412-2.884 3.969-3.749a9 9 0 0 1 2.294-.896c-.118-.149-.225-.297-.338-.446-1.613-2.207-2.699-4.824-2.735-8.189-.025-2.483 1.132-4.547 2.807-6.329 1.557-1.655 3.544-3.053 5.403-4.338 1.275-.881 2.37-2.084 3.472-3.293a46 46 0 0 1 1.833-1.931c1.87-1.823 3.667-3.692 5.46-5.556 2.831-2.94 5.658-5.874 8.787-8.691 1.598-1.434 3.81-2.192 6.033-2.258 2.233-.072 4.507.548 6.212 1.864 13.904 10.708 28.09 20.08 43.458 26.666 15.328 6.575 31.844 10.386 50.449 10.012 16.454-.328 32.351-3.278 47.617-9.085 15.266-5.813 29.907-14.488 43.842-26.267 2.755-2.325 5.362-4.127 8.158-4.757 2.924-.661 5.915-.046 9.249 2.545 2.387 1.854 4.338 4.133 6.289 6.401 1.342 1.562 2.683 3.124 4.133 4.502l1.162 1.106c2.96 2.822 5.966 5.69 9.3 7.979 1.721 1.183 3.196 2.207 4.271 3.457 1.194 1.382 1.839 2.934 1.685 5.008-.133 1.818-.609 3.513-1.28 5.086-.656 1.546-1.48 2.954-2.346 4.25-1.853 2.786-4.184 4.051-6.473 5.295l-.107.057c-.354.194-.763.404-1.178.625-1.193.624-2.407 1.259-3.447 2.043-.614.466-1.203.988-1.787 1.506-.891.793-1.782 1.582-2.904 2.284-1.674 1.049-3.334 2.135-4.931 3.313-1.26.927-2.453 1.9-3.555 2.94l.323.773c.656 1.557 1.311 3.108 2.166 4.558.697 1.178 1.608 1.961 2.663 2.448 1.101.512 2.371.717 3.718.722 1.163-.021 2.325-.011 3.488 0 2.269.02 4.537.041 6.77-.185 4.256-.43 8.358-.348 12.025.415 3.415.712 6.463 2.008 8.916 4.036l-1.655 2.007c-2.11-1.736-4.773-2.863-7.794-3.493-3.395-.706-7.231-.778-11.241-.373-2.351.235-4.696.22-7.047.194-1.142-.01-2.289-.02-3.431 0h-.02c-1.716 0-3.36-.276-4.83-.957-1.521-.707-2.832-1.824-3.815-3.493-.927-1.572-1.623-3.216-2.32-4.875-.2-.477-.399-.953-.727-1.696-.963-2.115-1.905-4.296-2.853-6.478a578 578 0 0 0-2.109-4.824c-4.61 3.595-9.249 7.154-14.038 10.498a62 62 0 0 1-5.848 3.621 59 59 0 0 1-6.192 2.924c-12.126 4.901-24.878 9.377-38.419 12.378-13.566 3.006-27.895 4.527-43.13 3.493-15.154-1.024-26.272-1.828-38.368-5.239-12.086-3.406-25.068-9.392-43.899-20.777l-.03-.02c-.549-.354-1.096-.743-1.645-1.132-1.003-.712-2.002-1.424-3.062-1.92-1.49-.692-2.842-1.342-4.153-2.085a27.3 27.3 0 0 1-3.872-2.632c-1.198-.978-2.376-2.018-3.549-3.052a136 136 0 0 0-1.73-1.516l-.032-.026c-.501-.461-1.06-.988-1.623-1.511a139 139 0 0 0-3.216-2.949 26 26 0 0 0-3.283-2.407 40 40 0 0 0-3.656-2.008l-.108-.051c-.916-.415-1.751-.415-2.458-.077-.778.374-1.46 1.147-1.982 2.223-.072.153-.077.153-.087.179l-2.366-1.081.108-.235c.778-1.603 1.884-2.801 3.206-3.431 1.398-.671 2.99-.707 4.66.051l.159.072a42 42 0 0 1 3.902 2.14 28 28 0 0 1 3.62 2.663 113 113 0 0 1 3.288 3.012c.512.476 1.025.957 1.603 1.49.507.44 1.112.973 1.721 1.511 1.137 1.008 2.274 2.012 3.467 2.985a24.3 24.3 0 0 0 3.513 2.392c1.214.686 2.51 1.311 3.959 1.982 1.275.589 2.376 1.377 3.482 2.161.497.353.989.707 1.511 1.045 18.62 11.256 31.408 17.161 43.259 20.5 11.84 3.333 22.84 4.132 37.84 5.146 14.979 1.014 29.063-.476 42.398-3.431 13.356-2.96 25.985-7.395 38.01-12.255a58 58 0 0 0 11.522-6.258c5.915-4.133 11.661-8.639 17.392-13.131a807 807 0 0 1 7.974-6.201c2.074-1.588 4.219-3.227 6.514-4.63 2.345-1.429 4.819-2.596 7.502-3.19.307-.067.594-.108.85-.128 1.424-.108 2.592.338 3.493 1.172.84.779 1.398 1.875 1.68 3.14.092.414.153.834.184 1.249l-2.602.195a7 7 0 0 0-.122-.886c-.169-.763-.472-1.393-.907-1.793-.374-.343-.881-.527-1.531-.476q-.252.016-.481.072c-2.351.517-4.579 1.577-6.704 2.873-2.177 1.326-4.266 2.924-6.294 4.476a864 864 0 0 0-7.953 6.181l-1.357 1.065c.804 1.793 1.592 3.616 2.386 5.444.707 1.623 1.408 3.252 2.146 4.906a44 44 0 0 1 3.129-2.53c1.598-1.178 3.324-2.304 5.096-3.416.885-.553 1.71-1.29 2.545-2.033.619-.548 1.244-1.106 1.946-1.633h.005c1.203-.907 2.514-1.593 3.805-2.269.364-.189.732-.379 1.137-.604l.107-.057c2.003-1.09 4.046-2.197 5.542-4.445.793-1.193 1.546-2.468 2.12-3.82.563-1.321.962-2.74 1.075-4.261.092-1.291-.307-2.258-1.05-3.124-.86-.993-2.202-1.926-3.774-3.006-3.508-2.407-6.596-5.352-9.628-8.245-.389-.369-.773-.738-1.162-1.106-1.542-1.465-2.93-3.078-4.317-4.696-1.865-2.177-3.734-4.348-5.905-6.038-2.632-2.049-4.911-2.551-7.073-2.069-2.289.512-4.578 2.12-7.046 4.209-14.171 11.979-29.058 20.803-44.596 26.712-15.537 5.915-31.73 8.916-48.497 9.249-19.015.379-35.879-3.513-51.52-10.217-15.598-6.688-29.968-16.172-44.031-27.004-1.214-.932-2.878-1.372-4.537-1.321-1.64.051-3.247.589-4.369 1.598-3.093 2.781-5.869 5.664-8.655 8.552-1.807 1.88-3.615 3.759-5.52 5.623-.574.559-1.147 1.189-1.721 1.818-1.198 1.311-2.386 2.623-3.923 3.677-1.746 1.204-3.605 2.51-4.983 3.98-1.254 1.336-2.12 2.821-2.105 4.527.031 2.734.917 4.865 2.233 6.668 1.373 1.874 3.242 3.441 5.132 4.947 3.605 2.878 7.088 5.787 10.196 8.849 3.14 3.093 5.89 6.34 8.004 9.874l-2.232 1.336z" clip-rule="evenodd"></path><path fill="#EE3425" fill-rule="evenodd" d="M.645 377.257c.912-1.137 2.243-2.228 3.723-3.17a26.7 26.7 0 0 1 5.147-2.53c1.526-.548 3.093-1.019 4.691-1.347 1.618-.333 3.268-.522 4.927-.507a18 18 0 0 1 4.24.558 24 24 0 0 1 4.071 1.429q1.652.737 3.365 1.157 1.743.423 3.534.523c.307.015.65-.052.957-.19.246-.107.451-.261.569-.44 2.069-3.155 3.718-6.648 5.362-10.13.993-2.105 1.987-4.21 3.042-6.186a10.3 10.3 0 0 1 2.663-3.201c1.208-.968 2.555-1.644 3.871-2.095l.85 2.469c-1.07.369-2.15.901-3.088 1.659a7.7 7.7 0 0 0-1.992 2.392c-1.07 2.012-2.028 4.04-2.99 6.073-1.69 3.575-3.386 7.16-5.537 10.448-.404.614-1.008 1.08-1.684 1.387a4.74 4.74 0 0 1-2.172.415 22.6 22.6 0 0 1-4.005-.594 21.3 21.3 0 0 1-3.815-1.311 21.6 21.6 0 0 0-3.63-1.275 15.8 15.8 0 0 0-3.637-.487c-1.465-.015-2.934.154-4.389.456-1.475.302-2.924.743-4.337 1.245a23.7 23.7 0 0 0-4.63 2.279c-1.26.804-2.376 1.7-3.093 2.596l-2.033-1.623zM271.228 371.25a824 824 0 0 0-.031 4.947 708 708 0 0 1-.097 9.914c-.021 1.286.348 2.617 1.029 3.601.528.768 1.25 1.295 2.1 1.352 1.162.076 2.386-.031 3.61-.139.943-.082 1.89-.163 2.95-.169.937 0 1.639.185 2.233.728.538.486.865 1.177 1.106 2.207.174.748.144 1.249.118 1.787-.015.287-.031.584.005.937 0 0 .077.026.21.077.44.169 1.116.225 1.987.143.937-.087 2.315-.804 3.488-2.028.937-.978 1.71-2.263 1.966-3.789.297-1.772-.317-3.191-1.091-4.973a45 45 0 0 1-.927-2.248 5.6 5.6 0 0 1-.343-1.91 6.6 6.6 0 0 1 .302-1.972c.42-1.352 1.414-2.489 1.946-3.098.036-.036.062-.072.169-.2.753-.901.671-2.151.605-3.129l-.011-.179c-.117-1.885-.522-4.573-1.29-7.523-.604-2.325-1.439-4.809-2.54-7.185-1.26-2.72-2.842-5.357-4.978-7.528-2.105-2.146-4.763-3.862-8.23-4.784l.676-2.519c3.954 1.055 7.001 3.016 9.413 5.474 2.376 2.423 4.112 5.311 5.485 8.266 1.167 2.509 2.053 5.152 2.699 7.625.814 3.129 1.244 5.997 1.372 8.01l.01.169c.098 1.439.221 3.267-1.208 4.973l-.21.24c-.405.461-1.152 1.322-1.419 2.156-.123.4-.194.799-.189 1.183 0 .349.056.687.179 1.014.277.743.584 1.455.876 2.115.947 2.182 1.7 3.913 1.27 6.443-.359 2.099-1.398 3.851-2.663 5.167-1.613 1.68-3.657 2.678-5.132 2.812-1.28.117-2.35.01-3.144-.297-1.106-.426-1.767-1.189-1.874-2.249-.062-.558-.036-.962-.016-1.347.021-.338.036-.655-.056-1.054-.118-.497-.215-.774-.318-.866-.046-.041-.204-.056-.476-.056-.835 0-1.782.082-2.724.169-1.311.117-2.617.23-4 .138-1.731-.118-3.119-1.086-4.087-2.479-.988-1.423-1.521-3.313-1.49-5.121.062-3.298.077-6.591.097-9.884l.031-4.957 2.602.02z" clip-rule="evenodd"></path><path fill="#fff" fill-rule="evenodd" d="m205.272 345.639 12.009-6.52 1.716 3.16-4.035 2.187 5.218 9.617-3.943 2.141-5.219-9.618-4.035 2.187-1.716-3.154zm-6.283 2.427 4.122-1.823L209 359.532l-4.117 1.823-5.889-13.289zm-142.815-9.822q-1.36.332-2.699-.036-1.337-.36-2.852-1.588c-1.23-.993-2.084-1.987-2.581-2.975-.487-.989-.645-2.156-.482-3.513.164-1.352.815-2.735 1.946-4.133 1.516-1.864 3.176-2.899 4.983-3.093q2.712-.292 5.439 1.92c1.424 1.152 2.31 2.351 2.653 3.585q.522 1.85-.338 4.122l-3.626-1.812c.169-.431.261-.769.271-1.025a2.53 2.53 0 0 0-.22-1.193 2.6 2.6 0 0 0-.773-.983q-1.193-.967-2.591-.528c-.697.21-1.46.825-2.28 1.829q-1.521 1.873-1.515 3.031.008 1.154 1.04 1.993c.665.537 1.32.763 1.966.665q.966-.147 2.064-1.024l2.31 3.406c-.902.691-1.808 1.147-2.715 1.357zm9.613 2.535-3.304 4.875-3.712-2.515 8.153-12.029 3.712 2.514-2.847 4.2 4.066 2.755 2.848-4.2 3.728 2.53-8.158 12.03-3.733-2.53 3.303-4.87-4.067-2.755zm174.622-.313-9.198-11.251 5.167-4.225c1.014-.83 1.957-1.367 2.807-1.603a5.2 5.2 0 0 1 2.524-.082 6.4 6.4 0 0 1 2.366 1.076 10.5 10.5 0 0 1 2.059 1.951q1.475 1.805 1.874 3.134c.267.886.344 1.751.221 2.596q-.183 1.27-.835 2.177c-.594.824-1.204 1.495-1.818 2.002zm-21.166-2.268 9.848-6.883 1.777 2.545-6.156 4.302 1.327 1.894 5.71-3.989 1.7 2.428-5.705 3.989 1.639 2.345 6.34-4.429 1.884 2.693-10.032 7.011-8.327-11.912zm-133.735 20.71L74.6 353.356l6.586-12.956 10.714 5.449-1.409 2.77-6.693-3.405-1.05 2.063 6.207 3.16-1.342 2.643-6.207-3.155-1.295 2.55 6.893 3.503-1.49 2.935zm96.314 18.262c13.356-2.96 25.985-7.395 38.01-12.255a59 59 0 0 0 5.915-2.791 60 60 0 0 0 5.607-3.467c5.915-4.133 11.661-8.64 17.392-13.131a808 808 0 0 1 7.974-6.202c2.074-1.587 4.219-3.226 6.514-4.629 2.345-1.429 4.819-2.597 7.502-3.191a7 7 0 0 1 .85-.128c1.424-.107 2.592.338 3.493 1.173.84.778 1.398 1.874 1.68 3.139.092.415.153.835.184 1.25l-2.601.194a7 7 0 0 0-.123-.886c-.169-.763-.471-1.393-.907-1.792-.374-.343-.881-.528-1.531-.476q-.252.016-.481.071c-2.351.518-4.579 1.578-6.704 2.873-2.177 1.327-4.266 2.925-6.294 4.476a882 882 0 0 0-7.953 6.182l-1.357 1.065c.804 1.792 1.592 3.615 2.386 5.444.707 1.628 1.409 3.251 2.146 4.911a44 44 0 0 1 3.129-2.53c1.598-1.178 3.324-2.305 5.096-3.416.886-.553 1.71-1.29 2.545-2.033.62-.548 1.244-1.106 1.946-1.634h.005c1.203-.906 2.515-1.592 3.805-2.268.364-.19.732-.384 1.137-.605l.107-.056c2.003-1.091 4.046-2.197 5.542-4.445.793-1.193 1.546-2.469 2.12-3.821.563-1.321.963-2.739 1.075-4.26.092-1.291-.307-2.259-1.05-3.124-.86-.994-2.202-1.926-3.774-3.006-3.508-2.407-6.596-5.352-9.628-8.246l-1.162-1.106c-1.542-1.464-2.93-3.078-4.317-4.696-1.865-2.176-3.734-4.348-5.905-6.038-2.632-2.048-4.911-2.55-7.072-2.069-2.29.512-4.579 2.12-7.047 4.21-14.171 11.978-29.058 20.802-44.595 26.712-15.538 5.915-31.731 8.916-48.498 9.249-19.015.379-35.879-3.513-51.52-10.217-15.598-6.688-29.968-16.173-44.031-27.004-1.214-.937-2.878-1.372-4.537-1.321-1.64.051-3.247.589-4.369 1.598-3.093 2.78-5.869 5.664-8.655 8.552-1.807 1.879-3.615 3.759-5.52 5.623a46 46 0 0 0-1.72 1.818c-1.2 1.311-2.387 2.622-3.924 3.677-1.746 1.204-3.605 2.509-4.983 3.979-1.254 1.337-2.12 2.822-2.104 4.527.03 2.735.916 4.865 2.232 6.668 1.373 1.874 3.242 3.442 5.132 4.947 3.605 2.878 7.088 5.787 10.196 8.85 2.545 2.504 4.834 5.116 6.734 7.891q.677-1.4 1.337-2.806c.338-.712.671-1.419 1.009-2.125h-1.946a.722.722 0 1 1 0-1.445h2.648c.317-.65.64-1.285.962-1.915h-4.957a.721.721 0 1 1 0-1.444h5.761q.456-.699.989-1.291H41.65a.72.72 0 1 1 0-1.444h5.669c.358-.266.722-.502 1.1-.722l-.327-.184a27.5 27.5 0 0 1-3.872-2.632c-1.198-.979-2.376-2.018-3.549-3.053-.537-.476-1.075-.952-1.73-1.516l-.031-.025c-.502-.461-1.06-.989-1.624-1.511a137 137 0 0 0-3.216-2.95 26 26 0 0 0-3.282-2.407 40 40 0 0 0-3.657-2.007l-.108-.051c-.916-.415-1.751-.415-2.458-.077-.778.374-1.46 1.147-1.982 2.222l-.087.18-2.366-1.081.108-.236c.778-1.602 1.884-2.801 3.206-3.431 1.398-.671 2.99-.706 4.66.051l.159.072a42 42 0 0 1 3.902 2.141 28 28 0 0 1 3.62 2.663 113 113 0 0 1 3.289 3.011c.512.476 1.024.958 1.602 1.49.508.441 1.112.973 1.721 1.511 1.137 1.009 2.274 2.013 3.467 2.986 1.163.952 2.31 1.71 3.513 2.391 1.214.687 2.51 1.311 3.96 1.982 1.274.589 2.375 1.378 3.481 2.161.497.354.989.707 1.511 1.045 18.62 11.256 31.408 17.161 43.259 20.5 11.84 3.334 22.84 4.133 37.84 5.147 14.98 1.014 29.063-.476 42.398-3.431zm5.572-9.751-4.424-13.848 3.994-1.275 7.636 5.987-2.443-7.646 4.041-1.291 4.424 13.848-4.046 1.291-7.589-5.951 2.427 7.6zm-18.595.241c-.45-.856-.737-1.634-.87-2.33l-1.629-8.507 4.404-.845 1.67 8.706c.148.779.481 1.342.993 1.7.518.354 1.158.461 1.921.313q1.13-.214 1.654-.989.52-.766.297-1.956l-1.67-8.706 4.41-.845 1.628 8.506c.159.84.18 1.665.062 2.464a5.2 5.2 0 0 1-.861 2.207q-.683.999-1.536 1.521c-.799.481-1.798.84-2.996 1.065a20 20 0 0 1-2.299.292c-.84.062-1.567 0-2.172-.184a5.2 5.2 0 0 1-1.746-.937q-.838-.668-1.255-1.465zm-28.376 4.783-.205-14.534 5.925-.082 2.381 8.814 2.141-8.875 5.895-.082.204 14.534-3.677.051-.153-11.083-2.679 11.119-3.328.046-2.981-11.042.154 11.083-3.672.051zm-18.995-2.351 7.139-13.791 4.881.573 3.702 15.072-4.67-.553-.441-2.463-5.054-.594-1.009 2.294-4.553-.538zm-16.649-3.82 3.257-14.165 4.374 1.003-1.137 4.947 4.788 1.101 1.137-4.947 4.389 1.009-3.252 14.165-4.394-1.008 1.316-5.736-4.788-1.101-1.316 5.736zm-14.467-6.719c-.528-1.234-.574-2.561-.143-3.964l4.05 1.347q-.26 1.014-.066 1.675c.21.716.717 1.234 1.51 1.556q.891.363 1.542.134c.435-.149.727-.41.876-.774.138-.348.118-.727-.077-1.121-.195-.4-.799-.943-1.813-1.639q-2.488-1.713-3.247-3.211-.767-1.49-.128-3.073c.277-.691.743-1.265 1.388-1.715q.976-.684 2.397-.722 1.422-.038 3.528.809 2.581 1.044 3.549 2.55.97 1.507.379 3.713l-4.01-1.347q.214-.983-.117-1.598c-.226-.415-.63-.737-1.22-.978q-.727-.294-1.218-.133-.493.16-.671.604c-.087.215-.061.446.067.697.117.256.517.604 1.188 1.055q2.489 1.69 3.426 2.765c.625.722.998 1.444 1.116 2.187a4.1 4.1 0 0 1-.266 2.212 4.6 4.6 0 0 1-1.68 2.105c-.773.533-1.664.824-2.673.85q-1.513.047-3.472-.742-3.435-1.383-4.225-3.242zM38.563 368.1c-1.936-3.083-4.41-5.961-7.211-8.726-3.022-2.981-6.443-5.833-9.997-8.67-1.06-.845-2.11-1.711-3.098-2.643a6.5 6.5 0 0 0-3.2.819c-1.189.661-2.223 1.685-3.094 2.955-1.92 2.786-3.539 5.572-4.89 8.404h7.2a.721.721 0 1 1 0 1.444h-7.19a.73.73 0 0 1-.559-.261l-.286.651q-.216.508-.43 1.024h5.387a.72.72 0 1 1 0 1.444h-5.95a64 64 0 0 0-.493 1.388h4.81a.72.72 0 1 1 0 1.444H4.285c-.189.609-.363 1.224-.532 1.844h2.924a.72.72 0 1 1 0 1.444H3.39a51 51 0 0 0-.466 2.156 16.6 16.6 0 0 0-.307 2.279q-.001.125-.01.24a22 22 0 0 1 1.756-1.249 26.7 26.7 0 0 1 5.147-2.53c1.526-.548 3.093-1.019 4.691-1.347 1.618-.333 3.267-.522 4.927-.507a18 18 0 0 1 4.24.558c1.372.338 2.73.825 4.071 1.429q1.652.736 3.365 1.158 1.743.422 3.534.522c.307.015.65-.051.957-.19.246-.107.45-.261.569-.44.025-.036.046-.072.071-.108h-4.793a.72.72 0 1 1 0-1.444h5.695a61 61 0 0 0 1.71-3.083z" clip-rule="evenodd"></path><path fill="#fff" fill-rule="evenodd" d="M25.565 373.708a20.6 20.6 0 0 0-2.806-.922 15.8 15.8 0 0 0-3.637-.487c-1.464-.015-2.934.154-4.388.456-1.475.302-2.925.743-4.338 1.245a23.7 23.7 0 0 0-4.63 2.278c-1.04.661-1.971 1.388-2.673 2.121q.316.906.814 1.736c.548.922 1.26 1.777 2.12 2.555.282.256.861.251 1.414.241h.20500000000000002c1.009-.005 2.074-.041 3.134-.077 2.387-.082 4.773-.159 7.175.082 1.89.195 3.493.758 4.952 1.664.707.441 1.372.958 2.023 1.547a61 61 0 0 0 .205-2.146H23.28a.72.72 0 1 1 0-1.444h1.951l.067-1.342h-3.175a.72.72 0 1 1 0-1.444h3.231l.046-1.337H22.56a.72.72 0 1 1 0-1.444h2.883l.01-.43h-4.675a.72.72 0 1 1 0-1.444h4.716q.025-.708.057-1.408zM17.704 385.532c-2.248-.225-4.543-.148-6.842-.071-1.05.036-2.105.071-3.2.077h-.5800000000000001a3.08 3.08 0 0 1-.553 1.915c-.24.353-.496.671-.752.963h3.666a.72.72 0 1 1 0 1.444H4.45c-.46.543-.834 1.111-.957 1.803q-.078.43-.139.952l-.02.169h3.948a.721.721 0 1 1 0 1.444H3.267c.026.748.149 1.368.384 1.849.313.64.866 1.055 1.675 1.198l.236.031c1.387.169 2.755.051 4.112-.215 1.418-.282 2.847-.727 4.291-1.204.666-.22 1.337-.45 2.013-.701H13.29a.721.721 0 1 1 0-1.444h5.653q.177 0 .323.077a36 36 0 0 0 2.125-1.081h-.809a.722.722 0 1 1 0-1.444h2.873c.287-.348.507-.748.676-1.173.102-.256.19-.527.266-.804-.937-1.034-1.869-1.874-2.878-2.504-1.126-.702-2.366-1.137-3.83-1.286zM254.958 362.277c.655 1.557 1.311 3.109 2.166 4.558.697 1.178 1.608 1.961 2.663 2.448 1.101.512 2.371.717 3.718.722 1.163-.02 2.325-.01 3.488 0 2.268.021 4.537.041 6.77-.184 4.256-.43 8.358-.349 12.024.415 2.469.512 4.748 1.336 6.745 2.514-.118-1.511-.41-3.472-.896-5.638h-1.26a.722.722 0 1 1 0-1.445h.906l-.015-.066-.123-.456h-5.039a.721.721 0 1 1 0-1.444h4.624a42 42 0 0 0-1.572-4.317h-5.167a.721.721 0 1 1 0-1.444h4.507a41 41 0 0 0-.477-.958h-4.512a.722.722 0 1 1 0-1.444h3.718a20 20 0 0 0-.614-1.004h-5.316a.722.722 0 1 1 0-1.444h4.322a21 21 0 0 0-1.782-2.11h-4.798a.721.721 0 1 1 0-1.444h3.231a17.6 17.6 0 0 0-5.92-3.191c-1.224.989-2.53 1.695-3.82 2.397l-.108.056c-.353.195-.763.405-1.178.625-1.193.625-2.407 1.26-3.446 2.043-.615.466-1.204.989-1.788 1.506-.891.794-1.782 1.582-2.903 2.284-1.675 1.05-3.334 2.13-4.932 3.308a38 38 0 0 0-3.554 2.94l.323.773zM277.302 374.404c0 .4-.323.722-.722.722h-5.378q.001.538-.005 1.076v.195h3.611a.721.721 0 1 1 0 1.444h-3.621q.001.613-.005 1.219h3.098a.721.721 0 1 1 0 1.444h-3.108q-.015 1.713-.036 3.41a23.6 23.6 0 0 1 3.129-1.915c1.808-.917 3.733-1.562 5.341-1.541l1.142.01c2.822.02 5.941.046 8.86.394a6.7 6.7 0 0 1 .251-1.142c.42-1.352 1.413-2.489 1.946-3.098l.169-.2c.174-.21.302-.44.399-.676-1.987-1.439-4.409-2.402-7.108-2.96-3.395-.707-7.231-.778-11.241-.374-.932.098-1.869.149-2.806.179 0 .364-.005.728-.005 1.091h5.372c.399 0 .722.323.722.722zM279.581 383.059c-1.153-.01-2.669.518-4.149 1.27-1.684.85-3.267 1.967-4.26 2.914.143.907.466 1.772.952 2.474.528.768 1.25 1.296 2.1 1.352 1.162.077 2.386-.031 3.61-.138.943-.082 1.89-.164 2.95-.169.85 0 1.506.153 2.064.583h2.315c.169 0 .317.057.44.149v-.051c0-.4.323-.722.722-.722h5.587a5.5 5.5 0 0 0-.071-2.013h-3.406a.722.722 0 1 1 0-1.444h2.96a32 32 0 0 0-.497-1.199h-5.059a.721.721 0 1 1 0-1.444h4.44c-.133-.322-.267-.66-.405-1.024q-.016-.038-.025-.077c-2.95-.404-6.212-.43-9.147-.456l-1.142-.01zM285.895 392.072c0 .4-.323.722-.722.722h-1.306q.152.402.266.902c.174.747.144 1.249.118 1.787-.015.287-.031.584.005.937 0 0 .077.026.21.077.441.169 1.117.225 1.987.143.937-.087 2.315-.804 3.488-2.028a7.6 7.6 0 0 0 1.592-2.442h-5.192a.73.73 0 0 1-.441-.149v.051zM131.471 365.699l-.963-5.378-2.197 5.004zM236.762 328.923l5.024 6.146.85-.697c.728-.594 1.178-1.101 1.363-1.516.174-.409.184-.891.03-1.434-.153-.548-.599-1.265-1.336-2.166q-1.459-1.782-2.586-1.966c-.748-.118-1.578.189-2.479.927l-.871.711z" clip-rule="evenodd"></path><path fill="#000" fill-rule="evenodd" d="m52.963 41.717-5.167-7.625-13.791-.026v3.344h10.841l.251.563 1.65 3.744h6.227zM40.836 55.862l-9.433-12.26h-4.158v12.26h13.591m44.309 0-9.664-12.26H65.423l9.433 12.26zm-7.262-12.26 8.609 10.923V43.602zm-14.8-1.885h5.52l2.07-3.815.266-.492h9.955v-3.344l-13.305.026-4.511 7.625zm-9.618 14.145-9.428-12.26H33.779l9.428 12.26zm-7.057-12.26 9.428 12.26H72.48l-9.428-12.26zM71.62 89.298c.235-.02.47-.046.701-.087.59-.103 1.127-.277 1.526-.574.533-.4 1.045-.799 1.542-1.208a19 19 0 0 0 1.424-1.317c.732-.762 1.07-1.474 1.177-2.202q.037-.274.036-.558h-6.401v5.946zm-9.326.01 7.436.03v-5.986h-7.436zm-8.097-.03 6.207.025v-5.946h-6.207v5.926zm-10.047-.349c1.157.184 2.279.297 3.016.318l5.147.02v-5.915H44.15zm-8.05-5.577c-.016.307.015.62.091.917.108.415.302.789.6 1.055.676.604 1.275 1.09 1.874 1.516.594.42 1.183.778 1.854 1.142.384.21 1.014.404 1.746.579v-5.209zm1.633-7.041-1.24 5.151h41.288l-.031-.138-1.096-5.013H37.733m1.977-8.205-1.521 6.315h38.05l-1.383-6.315zm1.31-5.443-.855 3.559h34.282l-.779-3.56H41.021m31.568-4.917H42.204l-.733 3.032h31.777l-.666-3.032zM44.682 41.712l-1.065-2.417H32.115v-7.119h.942l15.236.036h.496l.282.41 6.166 9.09h5.659l5.347-9.044.27-.456h.539l14.79-.036h.942v7.114H72.065l-1.31 2.417h17.631V57.74H74.518l5.075 23.184c.251 1.142.41 2.187.256 3.247-.158 1.106-.645 2.16-1.684 3.241a20 20 0 0 1-1.573 1.455 43 43 0 0 1-1.613 1.27c-.666.502-1.485.783-2.34.927-.779.133-1.598.159-2.356.153l-23.142-.097h-.021c-1.05-.03-2.77-.22-4.327-.522-1.26-.246-2.448-.574-3.17-.968a20 20 0 0 1-2.044-1.26 22 22 0 0 1-2.038-1.649c-.589-.527-.973-1.234-1.168-1.992-.2-.789-.2-1.644-.015-2.412l5.915-24.572H25.365V41.712z" clip-rule="evenodd"></path><path fill="#FBC88F" fill-rule="evenodd" d="m40.836 55.867-9.433-12.26h-4.158v12.26zM33.78 43.607l9.427 12.26h10.258l-9.433-12.26zM46.408 43.607l9.428 12.26H72.48l-9.428-12.26zM65.423 43.607l9.433 12.26h10.289l-9.664-12.26zM77.883 43.607l8.609 10.923V43.607zM68.603 41.717l2.07-3.81.266-.497h9.955v-3.344l-13.305.026-4.506 7.625zM52.963 41.717l-5.172-7.625L34 34.066v3.344H44.84l.246.563 1.649 3.744zM72.583 57.752H42.198l-.733 3.031h31.777zM73.658 62.673H41.016l-.86 3.554h34.28zM74.851 68.117H39.705l-1.521 6.314h38.05zM76.644 76.316H37.728l-1.24 5.157h41.287l-.03-.138zM42.26 88.571v-5.208h-6.166c-.015.307.015.62.092.916.108.415.302.79.6 1.056a21 21 0 0 0 1.874 1.515 18 18 0 0 0 1.854 1.142c.384.21 1.014.405 1.746.579M44.145 83.357v5.577c1.157.185 2.278.297 3.016.318l5.147.02v-5.915zM54.197 83.357v5.926l6.207.025v-5.95zM62.294 83.357v5.956l7.436.036v-5.992zM71.615 83.357v5.946a8 8 0 0 0 .701-.087c.59-.102 1.127-.276 1.526-.573.533-.4 1.045-.8 1.542-1.21a19 19 0 0 0 1.423-1.315c.733-.763 1.07-1.475 1.178-2.202q.037-.276.036-.559h-6.406" clip-rule="evenodd"></path><path fill="#fff" fill-rule="evenodd" d="M149.328 5.388v54.781h40.407V16.793c-13.305-2.049-26.769-5.818-40.407-11.405M236.286 17.007V60.17h41.533l-.062-54.746c-13.648 5.649-27.464 9.557-41.476 11.584z" clip-rule="evenodd"></path><path fill="#fff" d="M233.382 63.072h-40.744v31.665h40.744zM146.425 63.072h-42.777v31.665h42.777zM100.744 97.64H60.051v31.061h40.693zM189.735 97.64h-40.407v31.061h40.407z"></path><path fill="#fff" fill-rule="evenodd" d="M236.286 97.64v31.066h41.605l-.031-31.065z" clip-rule="evenodd"></path><path fill="#fff" d="M233.382 131.609h-40.744v30.343h40.744zM146.425 131.609h-42.777v30.343h42.777z"></path><path fill="#fff" fill-rule="evenodd" d="M57.147 161.952v-30.343H14.263l-.016 30.343z" clip-rule="evenodd"></path><path fill="#fff" d="M100.744 164.856H60.051v31.931h40.693zM189.735 164.856h-40.407v31.931h40.407z"></path><path fill="#fff" fill-rule="evenodd" d="M236.286 164.856v31.93h37.713q.668-1.306 1.193-2.53a35 35 0 0 0 2.048-6.524c.461-2.197.712-4.425.707-6.586l-.021-16.295h-41.645z" clip-rule="evenodd"></path><path fill="#fff" d="M233.382 199.69h-40.744v30.635h40.744zM146.425 199.69h-42.777v30.635h42.777z"></path><path fill="#fff" fill-rule="evenodd" d="M57.147 230.325V199.69H20.29c3.539 5.93 8.993 12.828 15.707 20.147a274 274 0 0 0 10.186 10.488zM100.749 233.229H60.056v9.93a401 401 0 0 0 10.75 9.111 301 301 0 0 0 15.773 12.019h14.17z" clip-rule="evenodd"></path><path fill="#fff" d="M189.735 233.229h-40.407v31.06h40.407z"></path><path fill="#fff" fill-rule="evenodd" d="M146.425 267.193h-42.777v8.511l.932.579c14.149 8.813 26.635 15.21 33.717 18.037.943.373 2.622.768 4.374 1.07 1.342.23 2.689.41 3.754.486v-28.688zM192.638 267.192v7.165c3.38-2.264 6.822-4.66 10.299-7.165zM236.286 233.229v7.006a335 335 0 0 0 7.498-7.006z" clip-rule="evenodd"></path><path fill="#018266" fill-rule="evenodd" d="M103.648 60.169h42.777V5.357a172.4 172.4 0 0 1-42.777 11.942zM192.638 17.212v42.962h40.744V17.402a156 156 0 0 1-18.461 1.234c-7.38.056-14.806-.415-22.288-1.424z" clip-rule="evenodd"></path><path fill="#018266" d="M189.735 63.072h-40.407v31.665h40.407z"></path><path fill="#018266" fill-rule="evenodd" d="M236.286 63.072v31.665h41.569l-.031-31.665z" clip-rule="evenodd"></path><path fill="#018266" d="M233.382 97.64h-40.744v31.061h40.744zM146.425 97.64h-42.777v31.061h42.777z"></path><path fill="#018266" fill-rule="evenodd" d="M57.147 128.706V97.641H14.283l-.02 31.065z" clip-rule="evenodd"></path><path fill="#018266" d="M100.744 131.609H60.051v30.343h40.693zM189.735 131.609h-40.407v30.343h40.407z"></path><path fill="#018266" fill-rule="evenodd" d="M236.286 131.609v30.343h41.64l-.03-30.343z" clip-rule="evenodd"></path><path fill="#018266" d="M233.382 164.856h-40.744v31.931h40.744zM146.425 164.856h-42.777v31.931h42.777z"></path><path fill="#018266" fill-rule="evenodd" d="M57.147 196.787v-31.931h-42.9l-.01 16.296c0 2.156.364 4.394.952 6.601.595 2.243 1.409 4.445 2.29 6.509q.522 1.222 1.198 2.53h38.48z" clip-rule="evenodd"></path><path fill="#018266" d="M100.744 199.69H60.051v30.635h40.693zM189.735 199.69h-40.407v30.635h40.407z"></path><path fill="#018266" fill-rule="evenodd" d="M236.286 199.69v30.635h10.473a277 277 0 0 0 9.684-10.058c6.827-7.487 12.363-14.549 15.942-20.577zM233.382 233.229h-40.744v31.06h14.273a393 393 0 0 0 14.954-11.635 371 371 0 0 0 12.06-10.299h-.543z" clip-rule="evenodd"></path><path fill="#018266" d="M146.425 233.229h-42.777v31.06h42.777z"></path><path fill="#018266" fill-rule="evenodd" d="M57.147 240.583v-7.354H49.19a364 364 0 0 0 7.958 7.354M100.749 267.192H90.717a353 353 0 0 0 10.032 6.673zM149.328 267.192v28.628a23 23 0 0 0 1.609-.246c1.208-.231 2.376-.533 3.451-.825 6.924-1.889 17.433-7.21 29.411-14.672a316 316 0 0 0 5.936-3.789v-9.09h-40.407z" clip-rule="evenodd"></path><path fill="#EE3425" fill-rule="evenodd" d="m14.088 94.88 87.091.384-.046-78.149c-7.308.927-14.928 1.572-22.216 1.547C56.37 18.58 33.564 13.74 13.755 4.497l.338 90.388zm11.267-38.07V41.716h19.317L43.607 39.3H32.105v-7.118h.942l15.236.035h.496l.282.41 6.166 9.09h5.659l5.346-9.044.272-.456h.537l14.79-.035h.943v7.113H72.055l-1.311 2.417h17.632v16.035H74.508l5.075 23.183c.251 1.142.41 2.187.256 3.247-.159 1.106-.645 2.161-1.685 3.242a20 20 0 0 1-1.572 1.454c-.527.44-1.065.855-1.613 1.27-.666.502-1.485.784-2.34.927-.779.133-1.598.159-2.356.154l-23.143-.098h-.02c-1.05-.03-2.77-.22-4.328-.522-1.26-.246-2.448-.573-3.17-.968a20 20 0 0 1-2.043-1.26 22 22 0 0 1-2.038-1.649c-.59-.527-.973-1.234-1.168-1.992-.2-.788-.2-1.644-.015-2.412l5.915-24.571H25.355z" clip-rule="evenodd"></path></g><defs data-source="https://football-logos.cc"><clipPath id="a"><path fill="#fff" d="M0 0h295.231v400H0z"></path></clipPath></defs><!-- source: https://football-logos.cc --></svg>