<svg xmlns="http://www.w3.org/2000/svg" width="315.294" height="317.165" viewBox="0 0 505.42 508.17"><!-- Source: https://football-logos.cc --><defs data-source="https://football-logos.cc"><clipPath id="a"><path d="M1 0h503v508.172H1Zm0 0"></path></clipPath><clipPath id="b"><path d="M40 40h424v468.172H40Zm0 0"></path></clipPath><clipPath id="c"><path d="M44 284h250v224.172H44Zm0 0"></path></clipPath><clipPath id="d"><path d="M0 4h505.422v504.172H0Zm0 0"></path></clipPath><clipPath id="e"><path d="M0 0h505.422v123H0Zm0 0"></path></clipPath></defs><g clip-path="url(#a)"><path d="M4409.375 4455.216c.703-6.329 1.016-12.696 1.016-19.141V2414.669c0-280.938-54.922-559.297-163.243-827.422-100.273-248.203-243.945-482.422-426.875-696.25-344.453-402.5-811.445-706.172-1281.328-833.203l-10.312-2.813h-29.61l-10.39 2.852c-465.899 127.07-928.945 430.82-1270.43 833.437-181.328 213.828-323.633 448.047-423.047 696.172-107.343 268.125-161.797 546.406-161.797 827.227v2021.406c0 6.133.313 12.227.938 18.242Zm0 0" style="fill:none;stroke-width:110;stroke-linecap:butt;stroke-linejoin:miter;stroke:#fff;stroke-opacity:1;stroke-miterlimit:4" transform="matrix(.1 0 0 -.1 0 508.17)"></path></g><path d="M440.938 62.648c.07.633.101 1.27.101 1.914v202.141c0 28.094-5.492 55.93-16.324 82.742-10.027 24.82-24.395 48.243-42.688 69.625-34.445 40.25-81.144 70.618-128.132 83.32l-1.032.282h-2.96l-1.04-.285c-46.59-12.707-92.894-43.082-127.043-83.344-18.132-21.383-32.363-44.805-42.304-69.617-10.735-26.813-16.18-54.64-16.18-82.723V64.563q0-.921.094-1.825z" style="stroke:none;fill-rule:nonzero;fill:#fff;fill-opacity:1"></path><g clip-path="url(#b)"><path d="M4409.375 4455.216c.703-6.329 1.016-12.696 1.016-19.141V2414.669c0-280.938-54.922-559.297-163.243-827.422-100.273-248.203-243.945-482.422-426.875-696.25-344.453-402.5-811.445-706.172-1281.328-833.203l-10.312-2.813h-29.61l-10.39 2.852c-465.899 127.07-928.945 430.82-1270.43 833.437-181.328 213.828-323.633 448.047-423.047 696.172-107.343 268.125-161.797 546.406-161.797 827.227v2021.406c0 6.133.313 12.227.938 18.242Zm0 0" style="fill:none;stroke-width:40;stroke-linecap:butt;stroke-linejoin:miter;stroke:#ee212b;stroke-opacity:1;stroke-miterlimit:4" transform="matrix(.1 0 0 -.1 0 508.17)"></path></g><path d="m636.25 4233.028 3373.086-3073.164M2883.047 4462.56l1531.406-1449.57M640.86 2779.317l2589.453-2410.43M2020.117 4454.708 4417.344 2254.98M649.922 3492.052 3628.984 755.059M1243.047 4459.005l3029.18-2798.907M3688.71 4458.731l718.4-694.765" style="fill-rule:nonzero;fill:#fff;fill-opacity:1;stroke-width:40;stroke-linecap:butt;stroke-linejoin:miter;stroke:#ee212b;stroke-opacity:1;stroke-miterlimit:4" transform="matrix(.1 0 0 -.1 0 508.17)"></path><path d="m67.3 307.18 203.708 189.449" style="stroke:none;fill-rule:nonzero;fill:#fff;fill-opacity:1"></path><g clip-path="url(#c)"><path d="m673.008 2009.903 2037.07-1894.492" style="fill:none;stroke-width:40;stroke-linecap:butt;stroke-linejoin:miter;stroke:#ee212b;stroke-opacity:1;stroke-miterlimit:4" transform="matrix(.1 0 0 -.1 0 508.17)"></path></g><path d="M208.492 430.523v31.63q0 2.05.13 2.452c.132.485.366.825.698 1.028q.505.305 1.86.305h3.086v5.605h-18.899v-5.606h3.113q1.647 0 2.11-.277.463-.274.691-.894.23-.621.23-2.614v-22.55h-6.144v-5.61c1.754-.23 3.102-.472 4.035-.722 1.407-.364 2.899-.868 4.48-1.5a14.5 14.5 0 0 0 2.458-1.247z" style="stroke:none;fill-rule:nonzero;fill:#ee212b;fill-opacity:1"></path><path d="M2084.922 776.466v-316.29c0-13.671.43-21.835 1.289-24.53 1.328-4.844 3.672-8.243 6.992-10.274 3.36-2.031 9.57-3.047 18.594-3.047h30.86V366.27h-188.985v56.055h31.133c10.976 0 18.007.938 21.093 2.773s5.391 4.805 6.915 8.946c1.523 4.14 2.304 12.851 2.304 26.133v225.507h-61.445v56.094c17.539 2.305 31.015 4.727 40.351 7.227 14.063 3.633 28.985 8.672 44.805 15 8.79 3.476 16.953 7.617 24.57 12.46Zm0 0" style="fill:none;stroke-width:20;stroke-linecap:butt;stroke-linejoin:miter;stroke:#fff;stroke-opacity:1;stroke-miterlimit:4" transform="matrix(.1 0 0 -.1 0 508.17)"></path><path d="M232.64 451.945q1.603 0 2.833-.925t1.91-2.688q.68-1.764.68-4.02.001-3.293-1.504-5.375c-1-1.386-2.266-2.082-3.786-2.082q-2.326.002-3.851 2.082-1.529 2.081-1.527 5.461c0 2.278.496 4.102 1.484 5.48q1.476 2.069 3.762 2.067m-9.613 20.29v-5.665q4.207-.229 6.707-1.054c1.664-.547 3.059-1.305 4.176-2.27a11.5 11.5 0 0 0 2.707-3.426c.688-1.316 1.168-2.836 1.446-4.55-1.29 1.195-2.508 2.039-3.665 2.527q-1.735.738-3.734.738-3.204 0-5.738-1.746c-1.692-1.164-2.973-2.726-3.852-4.68q-1.317-2.93-1.316-6.828 0-6.438 3.445-10.597 3.445-4.16 9.352-4.16 6.075-.001 9.504 4.28 4.014 5 4.015 13.759 0 5.897-1.36 10.058c-.905 2.774-2.32 5.23-4.241 7.356q-2.885 3.198-6.778 4.714c-2.593 1.012-6.152 1.528-10.668 1.543" style="stroke:none;fill-rule:nonzero;fill:#ee212b;fill-opacity:1"></path><path d="M2326.406 562.247c10.703 0 20.117 3.086 28.32 9.258 8.204 6.172 14.57 15.117 19.102 26.875q6.797 17.637 6.797 40.195c0 21.953-5 39.883-15.04 53.75-10 13.867-22.655 20.82-37.85 20.82-15.508 0-28.36-6.953-38.516-20.82-10.196-13.867-15.274-32.07-15.274-54.61 0-22.773 4.961-41.015 14.844-54.804 9.844-13.79 22.383-20.664 37.617-20.664Zm-96.133-202.89v56.64c28.047 1.523 50.391 5.039 67.07 10.547 16.641 5.469 30.587 13.047 41.759 22.695 11.171 9.649 20.195 21.055 27.07 34.258 6.875 13.164 11.68 28.36 14.453 45.508-12.89-11.953-25.078-20.39-36.64-25.274-11.563-4.922-24.024-7.383-37.344-7.383-21.368 0-40.47 5.82-57.383 17.461s-29.727 27.266-38.516 46.797c-8.789 19.532-13.164 42.305-13.164 68.282 0 42.93 11.485 78.242 34.453 105.976q34.453 41.601 93.516 41.602c40.508 0 72.187-14.258 95.039-42.813 26.758-33.32 40.156-79.18 40.156-137.578 0-39.297-4.531-72.852-13.594-100.586s-23.203-52.305-42.421-73.555c-19.22-21.328-41.836-37.03-67.774-47.148-25.937-10.117-61.523-15.274-106.68-15.43Zm0 0" style="fill:none;stroke-width:20;stroke-linecap:butt;stroke-linejoin:miter;stroke:#fff;stroke-opacity:1;stroke-miterlimit:4" transform="matrix(.1 0 0 -.1 0 508.17)"></path><path d="M270.781 451.395q-.001-7.903-1.777-11.454c-1.055-2.054-2.438-3.086-4.149-3.086q-2.373 0-3.984 3.258-1.61 3.265-1.61 11.282c0 5.347.54 9.105 1.622 11.265 1.086 2.164 2.441 3.246 4.082 3.246 1.652 0 3.039-1.11 4.148-3.332q1.67-3.333 1.668-11.18m-5.707-20.872c2.723 0 5.07.79 7.035 2.36q2.953 2.355 4.621 6.762 1.67 4.41 1.668 11.23.002 7.686-1.539 11.852-1.729 4.71-4.683 7.113-2.954 2.395-7.254 2.394-4.19.001-7.078-2.324-2.888-2.326-4.574-6.879c-1.13-3.035-1.692-6.906-1.692-11.605q0-7.084 1.68-11.578 1.676-4.495 4.664-6.91c1.988-1.606 4.375-2.415 7.152-2.415" style="stroke:none;fill-rule:nonzero;fill:#ee212b;fill-opacity:1"></path><path d="M2707.813 567.755c0 52.695-5.938 90.86-17.774 114.53-10.547 20.548-24.375 30.86-41.484 30.86q-23.73 0-39.844-32.578c-10.742-21.758-16.094-59.375-16.094-112.812 0-53.477 5.39-91.055 16.211-112.657 10.86-21.64 24.414-32.46 40.82-32.46 16.524 0 30.391 11.093 41.485 33.32 11.133 22.226 16.68 59.492 16.68 111.797Zm-57.07 208.71c27.226 0 50.702-7.89 70.35-23.593 19.688-15.703 35.079-38.242 46.212-67.617 11.133-29.414 16.68-66.836 16.68-112.305 0-51.25-5.118-90.742-15.391-118.516-11.524-31.406-27.149-55.117-46.836-71.132-19.688-15.977-43.867-23.946-72.54-23.946-27.929 0-51.523 7.735-70.78 23.242-19.258 15.508-34.493 38.438-45.743 68.79-11.289 30.351-16.914 69.062-16.914 116.054 0 47.227 5.586 85.82 16.797 115.781 11.172 29.961 26.719 53.008 46.64 69.102 19.884 16.055 43.75 24.14 71.524 24.14Zm0 0" style="fill:none;stroke-width:20;stroke-linecap:butt;stroke-linejoin:miter;stroke:#fff;stroke-opacity:1;stroke-miterlimit:4" transform="matrix(.1 0 0 -.1 0 508.17)"></path><path d="M286.621 429.977h2.899l.308 1.242h20.48v5.578c-1.949 2.484-3.519 4.828-4.71 7.023q-1.788 3.299-3.313 7.703c-1.015 2.942-1.773 5.696-2.273 8.27-.496 2.57-.946 6.488-1.336 11.75h-7.883c.352-4.766.945-8.73 1.777-11.906.836-3.172 2.172-6.606 4.02-10.301q2.765-5.537 5.84-9.445h-9.993q-1.909 0-2.5.289-.59.293-.945.925c-.23.426-.496 1.38-.789 2.864l-.46 2.344-4.192-1.297z" style="stroke:none;fill-rule:nonzero;fill:#ee212b;fill-opacity:1"></path><path d="M2866.21 781.934h28.985l3.086-12.421h204.805V713.73c-19.492-24.843-35.195-48.281-47.11-70.234-11.914-21.992-22.968-47.656-33.124-77.031-10.157-29.414-17.735-56.954-22.735-82.696-4.96-25.703-9.453-64.882-13.36-117.5h-78.827c3.515 47.657 9.453 87.305 17.773 119.063 8.36 31.719 21.719 66.055 40.195 103.008 18.438 36.914 37.891 68.398 58.399 94.453h-99.922c-12.734 0-21.055-.977-25-2.89-3.945-1.954-7.07-5.04-9.453-9.259-2.305-4.257-4.961-13.789-7.89-28.632l-4.61-23.438-41.914 12.969Zm0 0" style="fill:none;stroke-width:20;stroke-linecap:butt;stroke-linejoin:miter;stroke:#fff;stroke-opacity:1;stroke-miterlimit:4" transform="matrix(.1 0 0 -.1 0 508.17)"></path><path d="M368.84 262.457c0 63.281-51.309 114.59-114.594 114.59s-114.59-51.309-114.59-114.59c0-63.277 51.305-114.598 114.59-114.598S368.84 199.18 368.84 262.457" style="stroke:none;fill-rule:nonzero;fill:#fff;fill-opacity:1"></path><path d="M3688.398 2457.13c0-632.813-513.086-1145.899-1145.937-1145.899-632.852 0-1145.898 513.086-1145.898 1145.899 0 632.773 513.046 1145.976 1145.898 1145.976s1145.937-513.203 1145.937-1145.976Zm0 0" style="fill:none;stroke-width:98.229;stroke-linecap:butt;stroke-linejoin:miter;stroke:#fff;stroke-opacity:1;stroke-miterlimit:4" transform="matrix(.1 0 0 -.1 0 508.17)"></path><path d="m2526.797 2457.013 1051.406 64.023V2393.34l-1055.39 63.984" style="fill-rule:nonzero;fill:#faf9f9;fill-opacity:1;stroke-width:20;stroke-linecap:butt;stroke-linejoin:miter;stroke:#ee212b;stroke-opacity:1;stroke-miterlimit:4" transform="matrix(.1 0 0 -.1 0 508.17)"></path><path d="m2522.813 2457.325-1016.055-63.984v127.695l1020.039-64.024M2542.305 2472.833l64.023-1051.367h-127.695l63.984 1055.39" style="fill-rule:nonzero;fill:#faf9f9;fill-opacity:1;stroke-width:20;stroke-linecap:butt;stroke-linejoin:miter;stroke:#ee212b;stroke-opacity:1;stroke-miterlimit:4" transform="matrix(.1 0 0 -.1 0 508.17)"></path><path d="m2542.617 2476.856-63.984 1016.016h127.695l-64.023-1020.04M2527.93 2463.028l995.86-343.203-48.868-117.969-950.547 462.969M2524.375 2464.825l-963.242 329.688 48.906 117.968 917.89-449.453" style="fill-rule:nonzero;fill:#faf9f9;fill-opacity:1;stroke-width:20;stroke-linecap:butt;stroke-linejoin:miter;stroke:#ee212b;stroke-opacity:1;stroke-miterlimit:4" transform="matrix(.1 0 0 -.1 0 508.17)"></path><path d="m2548.281 2471.7-343.203-995.86-117.969 48.907 463.047 950.508" style="fill-rule:nonzero;fill:#faf9f9;fill-opacity:1;stroke-width:20;stroke-linecap:butt;stroke-linejoin:miter;stroke:#ee212b;stroke-opacity:1;stroke-miterlimit:4" transform="matrix(.1 0 0 -.1 0 508.17)"></path><path d="m2550.156 2475.255 329.688 963.242 117.968-48.906-449.53-917.891M2528.047 2451.036l946.875 461.484 48.867-117.968-999.531-344.727M2524.258 2449.825l-914.219-447.969-48.906 117.969 966.914 331.21" style="fill-rule:nonzero;fill:#faf9f9;fill-opacity:1;stroke-width:20;stroke-linecap:butt;stroke-linejoin:miter;stroke:#ee212b;stroke-opacity:1;stroke-miterlimit:4" transform="matrix(.1 0 0 -.1 0 508.17)"></path><path d="m2536.328 2471.583 461.485-946.836-117.97-48.906-344.726 999.53" style="fill-rule:nonzero;fill:#faf9f9;fill-opacity:1;stroke-width:20;stroke-linecap:butt;stroke-linejoin:miter;stroke:#ee212b;stroke-opacity:1;stroke-miterlimit:4" transform="matrix(.1 0 0 -.1 0 508.17)"></path><path d="m2535.117 2475.372-447.969 914.219 117.97 48.906 331.21-966.914M2531.484 2445.997l698.204 788.672 90.273-90.274-791.523-701.015M2528.438 2443.38l-673.204-763.711-90.273 90.312 766.523 676.016" style="fill-rule:nonzero;fill:#faf9f9;fill-opacity:1;stroke-width:20;stroke-linecap:butt;stroke-linejoin:miter;stroke:#ee212b;stroke-opacity:1;stroke-miterlimit:4" transform="matrix(.1 0 0 -.1 0 508.17)"></path><path d="m2531.29 2468.145 788.67-698.203-90.233-90.273-701.055 791.484M2528.672 2471.153l-763.711 673.242 90.273 90.274 676.055-766.524" style="fill-rule:nonzero;fill:#faf9f9;fill-opacity:1;stroke-width:20;stroke-linecap:butt;stroke-linejoin:miter;stroke:#ee212b;stroke-opacity:1;stroke-miterlimit:4" transform="matrix(.1 0 0 -.1 0 508.17)"></path><g clip-path="url(#d)"><path d="M3592.383 2457.169c0-579.844-470.078-1049.922-1049.922-1049.922s-1049.883 470.078-1049.883 1049.922c0 579.765 470.04 1049.922 1049.883 1049.922s1049.922-470.157 1049.922-1049.922Zm0 0" style="fill:none;stroke-width:269.949;stroke-linecap:butt;stroke-linejoin:miter;stroke:#ee212b;stroke-opacity:1;stroke-miterlimit:4" transform="matrix(.1 0 0 -.1 0 508.17)"></path></g><path d="M2838.984 2457.169c0-163.828-132.695-296.524-296.445-296.524-163.828 0-296.602 132.696-296.602 296.524 0 163.789 132.774 296.562 296.602 296.562 163.75 0 296.445-132.773 296.445-296.562Zm0 0" style="fill:none;stroke-width:59.3888;stroke-linecap:butt;stroke-linejoin:miter;stroke:#ee212b;stroke-opacity:1;stroke-miterlimit:4" transform="matrix(.1 0 0 -.1 0 508.17)"></path><path d="M281.203 262.453c0 14.895-12.062 26.957-26.95 26.957-14.89 0-26.964-12.062-26.964-26.957 0-14.887 12.074-26.96 26.965-26.96 14.887 0 26.95 12.073 26.95 26.96" style="stroke:none;fill-rule:nonzero;fill:#ee212b;fill-opacity:1"></path><path d="M2812.031 2457.169c0-148.946-120.625-269.57-269.492-269.57-148.906 0-269.648 120.624-269.648 269.57 0 148.867 120.742 269.61 269.648 269.61 148.867 0 269.492-120.743 269.492-269.61Zm0 0" style="fill:none;stroke-width:53.9898;stroke-linecap:butt;stroke-linejoin:miter;stroke:#faf9f9;stroke-opacity:1;stroke-miterlimit:4" transform="matrix(.1 0 0 -.1 0 508.17)"></path><path d="m325.938 226.79 19.507 80.132 42.246.14.391.016c1.672 0 3.023 1.05 3.023 2.344v8.047c0 1.297-1.351 2.344-3.023 2.344l-.387.046-53.855.188-22.453-93.05-1.438-.696H92.277v-30.504h298.66l2.72.144a17.74 17.74 0 0 1 7.195 9.801l.378.184c.97-2.063 2.512-3.387 4.25-3.387 2.938 0 5.32 3.813 5.32 8.512 0 4.703-2.382 8.508-5.32 8.508-1.867 0-3.507-1.532-4.46-3.856l-.305.379a17.78 17.78 0 0 1-7.559 9.691l-2.219.528H327.5z" style="stroke:none;fill-rule:nonzero;fill:#ee212b;fill-opacity:1"></path><path d="m3259.375 2813.81 195.078-801.329 422.461-1.406 3.906-.156c16.72 0 30.235-10.508 30.235-23.438v-80.468c0-12.97-13.516-23.438-30.235-23.438l-3.867-.469-538.555-1.875-224.53 930.508-14.376 6.953H922.773v305.04h2986.602l27.188-1.446c34.335-22.89 60.195-57.461 71.953-98.008l3.789-1.836c9.687 20.625 25.117 33.867 42.5 33.867 29.375 0 53.203-38.125 53.203-85.117 0-47.031-23.828-85.078-53.203-85.078-18.672 0-35.078 15.313-44.61 38.555l-3.047-3.79c-12.93-40.624-40.078-74.843-75.586-96.913l-22.187-5.274H3275Zm0 0" style="fill:none;stroke-width:30;stroke-linecap:butt;stroke-linejoin:miter;stroke:#faf9f9;stroke-opacity:1;stroke-miterlimit:4" transform="matrix(.1 0 0 -.1 0 508.17)"></path><path d="M96.531 225.95a2.836 2.836 0 0 1-2.836 2.835c-1.57 0-2.84-1.27-2.84-2.836v-29.797a2.837 2.837 0 0 1 2.84-2.836 2.836 2.836 0 0 1 2.836 2.836z" style="stroke:none;fill-rule:nonzero;fill:#ee212b;fill-opacity:1" data-source="https://football-logos.cc"></path><path d="M965.313 2822.208c0-15.664-12.696-28.36-28.36-28.36-15.703 0-28.398 12.696-28.398 28.36v297.969c0 15.664 12.695 28.359 28.398 28.359 15.664 0 28.36-12.695 28.36-28.36Zm0 0" style="fill:none;stroke-width:26.9949;stroke-linecap:butt;stroke-linejoin:miter;stroke:#faf9f9;stroke-opacity:1;stroke-miterlimit:4" transform="matrix(.1 0 0 -.1 0 508.17)"></path><path d="M147.215 225.95a2.84 2.84 0 0 1-2.84 2.835 2.84 2.84 0 0 1-2.84-2.836v-29.797a2.84 2.84 0 0 1 2.84-2.836 2.84 2.84 0 0 1 2.84 2.836z" style="stroke:none;fill-rule:nonzero;fill:#ee212b;fill-opacity:1"></path><path d="M1472.148 2822.208c0-15.664-12.734-28.36-28.398-28.36s-28.398 12.696-28.398 28.36v297.969c0 15.664 12.734 28.359 28.398 28.359s28.398-12.695 28.398-28.36Zm0 0" style="fill:none;stroke-width:26.9949;stroke-linecap:butt;stroke-linejoin:miter;stroke:#faf9f9;stroke-opacity:1;stroke-miterlimit:4" transform="matrix(.1 0 0 -.1 0 508.17)"></path><path d="M200.422 225.95a2.84 2.84 0 0 1-5.68 0v-29.798a2.84 2.84 0 0 1 5.68 0z" style="stroke:none;fill-rule:nonzero;fill:#ee212b;fill-opacity:1"></path><path d="M2004.219 2822.208c0-15.664-12.774-28.36-28.399-28.36-15.664 0-28.398 12.696-28.398 28.36v297.969c0 15.664 12.734 28.359 28.398 28.359 15.625 0 28.399-12.695 28.399-28.36Zm0 0" style="fill:none;stroke-width:26.9949;stroke-linecap:butt;stroke-linejoin:miter;stroke:#faf9f9;stroke-opacity:1;stroke-miterlimit:4" transform="matrix(.1 0 0 -.1 0 508.17)"></path><path d="M186.879 225.95a2.84 2.84 0 0 1-2.84 2.835c-1.57 0-2.84-1.27-2.84-2.836v-29.797a2.837 2.837 0 0 1 2.84-2.836 2.84 2.84 0 0 1 2.84 2.836z" style="stroke:none;fill-rule:nonzero;fill:#ee212b;fill-opacity:1"></path><path d="M1868.79 2822.208c0-15.664-12.735-28.36-28.4-28.36-15.703 0-28.398 12.696-28.398 28.36v297.969c0 15.664 12.696 28.359 28.399 28.359 15.664 0 28.398-12.695 28.398-28.36Zm0 0" style="fill:none;stroke-width:26.9949;stroke-linecap:butt;stroke-linejoin:miter;stroke:#faf9f9;stroke-opacity:1;stroke-miterlimit:4" transform="matrix(.1 0 0 -.1 0 508.17)"></path><path d="M3007.54 2454.942c0-258.555-209.65-468.164-468.204-468.164-258.594 0-468.242 209.61-468.242 468.164 0 258.594 209.648 468.242 468.242 468.242 258.555 0 468.203-209.648 468.203-468.242Zm0 0" style="fill:none;stroke-width:13.1242;stroke-linecap:butt;stroke-linejoin:miter;stroke:#fff;stroke-opacity:1;stroke-miterlimit:4" transform="matrix(.1 0 0 -.1 0 508.17)"></path><path d="M257.383 314.46H251V210.888h6.383z" style="stroke:none;fill-rule:nonzero;fill:#ee212b;fill-opacity:1"></path><path d="M2573.828 1937.09H2510v1035.743h63.828Zm0 0" style="fill:none;stroke-width:20;stroke-linecap:butt;stroke-linejoin:miter;stroke:#faf9f9;stroke-opacity:1;stroke-miterlimit:4" transform="matrix(.1 0 0 -.1 0 508.17)"></path><path d="M305.977 259.48v6.387H202.402v-6.387z" style="stroke:none;fill-rule:nonzero;fill:#ee212b;fill-opacity:1"></path><path d="M3059.766 2486.895v-63.867H2024.023v63.867Zm0 0" style="fill:none;stroke-width:20;stroke-linecap:butt;stroke-linejoin:miter;stroke:#faf9f9;stroke-opacity:1;stroke-miterlimit:4" transform="matrix(.1 0 0 -.1 0 508.17)"></path><path d="m219.824 301.55-4.512-4.519 73.239-73.234 4.515 4.516z" style="stroke:none;fill-rule:nonzero;fill:#ee212b;fill-opacity:1"></path><path d="m2198.242 2066.192-45.117 45.195 732.383 732.344 45.156-45.156Zm0 0" style="fill:none;stroke-width:20;stroke-linecap:butt;stroke-linejoin:miter;stroke:#faf9f9;stroke-opacity:1;stroke-miterlimit:4" transform="matrix(.1 0 0 -.1 0 508.17)"></path><path d="m293.066 297.031-4.515 4.52-73.238-73.238 4.515-4.516z" style="stroke:none;fill-rule:nonzero;fill:#ee212b;fill-opacity:1"></path><path d="m2930.664 2111.388-45.156-45.196-732.383 732.383 45.156 45.156Zm0 0" style="fill:none;stroke-width:20;stroke-linecap:butt;stroke-linejoin:miter;stroke:#faf9f9;stroke-opacity:1;stroke-miterlimit:4" transform="matrix(.1 0 0 -.1 0 508.17)"></path><path d="M267.664 262.672c0 7.445-6.031 13.48-13.476 13.48-7.442 0-13.477-6.035-13.477-13.48s6.035-13.48 13.476-13.48c7.446 0 13.477 6.035 13.477 13.48" style="stroke:none;fill-rule:nonzero;fill:#ee212b;fill-opacity:1"></path><path d="M2676.64 2454.981c0-74.453-60.312-134.804-134.765-134.804-74.414 0-134.766 60.351-134.766 134.804s60.352 134.805 134.766 134.805c74.453 0 134.766-60.352 134.766-134.805Zm0 0" style="fill:none;stroke-width:26.9949;stroke-linecap:butt;stroke-linejoin:miter;stroke:#faf9f9;stroke-opacity:1;stroke-miterlimit:4" transform="matrix(.1 0 0 -.1 0 508.17)"></path><path d="M3066.836 2454.981c0-289.922-235-524.922-524.961-524.922-289.883 0-524.922 235-524.922 524.922 0 289.883 235.04 524.961 524.922 524.961 289.96 0 524.96-235.078 524.96-524.96Zm0 0" style="fill:none;stroke-width:134.974;stroke-linecap:butt;stroke-linejoin:miter;stroke:#ee212b;stroke-opacity:1;stroke-miterlimit:4" transform="matrix(.1 0 0 -.1 0 508.17)"></path><path d="M3110.664 2454.981c0-320.078-259.492-579.61-579.57-579.61s-579.649 259.532-579.649 579.61 259.57 579.61 579.649 579.61c320.078 0 579.57-259.532 579.57-579.61Zm0 0" style="fill:none;stroke-width:29.2201;stroke-linecap:butt;stroke-linejoin:miter;stroke:#fff;stroke-opacity:1;stroke-miterlimit:4" transform="matrix(.1 0 0 -.1 0 508.17)"></path><path d="M151.77 103.348v42.422q0 2.154.183 2.644c.2.488.488.824.871 1 .387.184 1.305.27 2.766.27 4.05 0 7.222-.82 9.508-2.47 2.285-1.648 4.132-4.288 5.543-7.929q2.114-5.454 2.113-12.988c0-4.957-.66-9.274-1.984-12.942q-1.981-5.507-4.91-7.757t-8.38-2.25Zm-18.946-10.891h27.121c6.16 0 11.055 1.29 14.692 3.86q5.453 3.855 8.703 11.425 3.246 7.57 3.246 18.164 0 7.371-1.652 13.184c-1.102 3.875-2.739 7.363-4.918 10.472q-3.263 4.665-7.012 7.008-2.818 1.759-7.996 2.88-5.176 1.125-8.29 1.124h-23.894v-9.426h1.79c1.515 0 2.511-.16 2.984-.488q.706-.487 1.156-1.66.298-.927.297-4.05v-37.208q0-3.124-.317-4.027-.315-.907-1.043-1.367c-.484-.313-1.511-.465-3.078-.465h-1.789z" style="stroke:none;fill-rule:nonzero;fill:#ee212b;fill-opacity:1"></path><path d="M1517.695 4048.223v-424.218c0-14.375.625-23.164 1.836-26.446 1.992-4.882 4.883-8.242 8.711-10 3.867-1.836 13.047-2.695 27.656-2.695 40.508 0 72.227 8.203 95.079 24.688s41.328 42.89 55.43 79.296c14.1 36.368 21.132 79.649 21.132 129.883 0 49.57-6.601 92.735-19.844 129.414q-19.804 55.079-49.101 77.578t-83.79 22.5Zm-189.453 108.907h271.211c61.602 0 110.547-12.89 146.914-38.594 36.367-25.703 65.352-63.79 87.031-114.258q32.461-75.703 32.461-181.64 0-73.711-16.523-131.836c-11.016-38.75-27.383-73.633-49.18-104.727-21.758-31.094-45.117-54.453-70.117-70.078-18.789-11.719-45.43-21.328-79.96-28.79-34.493-7.5-62.15-11.25-82.891-11.25h-238.946v94.259h17.89c15.157 0 25.118 1.601 29.845 4.882 4.726 3.243 8.554 8.79 11.562 16.602 1.992 6.172 2.969 19.688 2.969 40.508v372.07c0 20.82-1.055 34.258-3.164 40.274-2.11 6.054-5.586 10.585-10.43 13.671-4.844 3.125-15.117 4.649-30.781 4.649h-17.89Zm0 0" style="fill:none;stroke-width:30;stroke-linecap:butt;stroke-linejoin:miter;stroke:#fff;stroke-opacity:1;stroke-miterlimit:4" transform="matrix(.1 0 0 -.1 0 508.17)"></path><path d="M327.402 90.164h4.899l.515 2.293h29.145l.629-2.293h4.93l6.418 23.875-6.899 3.176c-1.531-3.973-2.633-6.559-3.3-7.766q-1.964-3.562-4.524-5.613-1.928-1.564-3.82-1.563c-.59 0-1 .188-1.22.563-.226.375-.335 1.227-.335 2.562v39.16c0 2.313.062 3.758.183 4.344q.187.879.637 1.395c.3.34.707.566 1.23.683.52.114 1.915.168 4.176.168v9.426h-25.25v-9.426h1.536q2.532.002 3.242-.414.707-.415 1.082-1.464.375-1.05.375-4.372V104.86c0-1.136-.102-1.855-.297-2.148q-.3-.439-1.266-.438-1.927-.001-4.3 1.903-2.373 1.906-4.223 5.37-.744 1.371-3.152 7.669l-6.786-3.176z" style="stroke:none;fill-rule:nonzero;fill:#ee212b;fill-opacity:1"></path><path d="M3274.023 4180.06h48.985l5.156-22.93h291.445l6.29 22.93h49.296l64.18-238.75-68.984-31.758c-15.313 39.726-26.329 65.585-33.008 77.656q-19.629 35.624-45.235 56.133c-12.851 10.43-25.586 15.625-38.203 15.625-5.898 0-10-1.875-12.187-5.625-2.266-3.75-3.36-12.266-3.36-25.625v-391.602c0-23.125.625-37.578 1.836-43.437 1.25-5.86 3.36-10.508 6.368-13.946 3.007-3.398 7.07-5.664 12.304-6.836 5.196-1.133 19.14-1.68 41.758-1.68v-94.257h-252.5v94.258h15.352c16.875 0 27.695 1.367 32.421 4.14 4.727 2.774 8.32 7.656 10.82 14.649q3.75 10.488 3.75 43.71v400.391c0 11.367-1.015 18.555-2.968 21.485-1.992 2.93-6.21 4.375-12.656 4.375-12.852 0-27.188-6.329-43.008-19.024s-29.883-30.625-42.227-53.71c-4.96-9.141-15.468-34.688-31.523-76.68l-67.852 31.757Zm0 0" style="fill:none;stroke-width:30;stroke-linecap:butt;stroke-linejoin:miter;stroke:#fff;stroke-opacity:1;stroke-miterlimit:4" transform="matrix(.1 0 0 -.1 0 508.17)"></path><path d="M132.973 354.848h42.78l5.864 21.726-6.71 3.074q-1.635-4.733-3.118-7.152-1.481-2.416-3.52-4.027-2.04-1.61-4.414-2.149-1.594-.341-5.632-.343h-6.38v18.07h3.262q1.858 0 2.91-.735a4.1 4.1 0 0 0 1.52-1.906c.313-.777.465-2.082.465-3.902v-3.613h6.676v30.464H160v-4.39q0-1.91-.258-2.785c-.222-.782-.531-1.414-.93-1.907q-.59-.731-1.351-1.023-.763-.293-2.762-.293h-2.855v14.309q0 2.584.332 3.488.333.902 1.078 1.344c.492.293 1.445.441 2.851.441h2.118v9.422h-25.25v-9.422h1.675c1.868 0 3.09-.32 3.676-.953q.874-.955.875-3.832v-39.16q.002-2.688-.336-3.567a2.45 2.45 0 0 0-1.117-1.316c-.523-.297-1.555-.441-3.098-.441h-1.675z" style="stroke:none;fill-rule:nonzero;fill:#ee212b;fill-opacity:1"></path><path d="M1329.727 1533.223h427.812l58.633-217.265-67.11-30.742c-10.898 31.562-21.289 55.39-31.171 71.523-9.883 16.094-21.602 29.531-35.196 40.274-13.593 10.742-28.32 17.89-44.14 21.484-10.625 2.265-29.414 3.437-56.328 3.437h-63.79v-180.703h32.618c12.382 0 22.07 2.461 29.101 7.344 7.07 4.883 12.11 11.25 15.196 19.063 3.125 7.773 4.648 20.82 4.648 39.023v36.133h66.758v-304.649H1600v43.907c0 12.734-.86 21.992-2.578 27.851-2.227 7.813-5.313 14.14-9.297 19.063-3.945 4.882-8.437 8.28-13.516 10.234-5.078 1.953-14.296 2.93-27.617 2.93h-28.554V999.044c0-17.227 1.093-28.867 3.32-34.883s5.82-10.508 10.781-13.438c4.922-2.93 14.453-4.414 28.516-4.414h21.172v-94.218h-252.5v94.218h16.757c18.672 0 30.899 3.204 36.758 9.532 5.82 6.367 8.75 19.14 8.75 38.32v391.602c0 17.93-1.094 29.804-3.36 35.664-2.226 5.859-5.937 10.234-11.171 13.164-5.234 2.968-15.547 4.414-30.977 4.414h-16.757Zm0 0" style="fill:none;stroke-width:30;stroke-linecap:butt;stroke-linejoin:miter;stroke:#fff;stroke-opacity:1;stroke-miterlimit:4" transform="matrix(.1 0 0 -.1 0 508.17)"></path><path d="M363.637 354.848h5.258l5.078 24.46-6.899 2.637q-3.447-8.74-6.484-12.402-4.228-5.027-9.16-5.027-3.597.001-6.73 2.632-3.135 2.638-4.97 7.766-1.834 5.127-1.835 12.012.002 10.499 4.21 18.066 4.206 7.57 11.032 7.57 4.337 0 8.34-3.273 5.002-4.051 8.64-10.89l5.746 5.617q-5.593 10.062-10.226 14.011c-4.77 4.07-10.078 6.106-15.934 6.106q-7.294-.002-13.207-4.613-5.907-4.617-9.43-12.918-3.515-8.298-3.515-18.114c0-6.511 1.137-12.441 3.426-17.797 2.285-5.355 5.394-9.53 9.336-12.527q5.907-4.488 13.167-4.488c4.918 0 9.227 1.363 12.93 4.097z" style="stroke:none;fill-rule:nonzero;fill:#ee212b;fill-opacity:1"></path><path d="M3636.367 1533.223h52.578l50.782-244.609-68.985-26.367c-22.969 58.281-44.61 99.61-64.844 124.023-28.203 33.516-58.71 50.274-91.601 50.274-23.985 0-46.406-8.79-67.305-26.328-20.898-17.578-37.46-43.477-49.687-77.657s-18.36-74.218-18.36-120.117c0-70 14.063-130.195 42.11-180.664s64.804-75.703 110.312-75.703c28.906 0 56.719 10.898 83.399 32.734 33.359 26.993 62.148 63.32 86.406 108.907l57.46-56.172c-37.304-67.07-71.366-113.79-102.265-140.117-47.695-40.704-100.781-61.055-159.336-61.055-48.633 0-92.656 15.39-132.07 46.133-39.375 30.78-70.82 73.828-94.297 129.18-23.437 55.312-35.156 115.703-35.156 181.132 0 65.117 11.367 124.414 34.258 177.969 22.851 53.555 53.945 95.312 93.359 125.273 39.375 29.922 83.281 44.883 131.68 44.883 49.18 0 92.265-13.633 129.297-40.976Zm0 0" style="fill:none;stroke-width:30;stroke-linecap:butt;stroke-linejoin:miter;stroke:#fff;stroke-opacity:1;stroke-miterlimit:4" transform="matrix(.1 0 0 -.1 0 508.17)"></path><g clip-path="url(#e)"><path d="M455.64 91.184c-64.374-17.72-132.171-27.188-202.175-27.188-70.606 0-137.961 9.629-202.828 27.645l-.817.418-.183 17.406A756 756 0 0 0 0 122.406l.941-1.906 21.274-43.191L1 59.406l-1-1c12.387-3.683 23.863-7.058 35.926-10.12l.027-1.235V31.582C104.863 11.032 177.875-.004 253.465-.004c75.406 0 148.254 10.984 217.015 31.438V47.8l-.046.722c11.718 3 22.921 6.293 34.988 9.883l-1 1-21.215 17.903L504.48 120.5l.942 1.906a755 755 0 0 0-49.637-12.941l-.18-16.16z" style="stroke:none;fill-rule:nonzero;fill:#ee212b;fill-opacity:1"></path></g><path d="m69.996 42.508 5.961 25.183c.2.852.363 1.368.48 1.543q.282.392.657.473c.254.05.812-.023 1.68-.227 2.406-.574 4.171-1.503 5.3-2.804q1.687-1.952 2.172-5.485c.328-2.355.137-5.027-.57-8.007-.696-2.946-1.696-5.41-2.996-7.407q-1.946-2.988-4.004-3.914c-1.371-.613-3.133-.668-5.29-.156ZM57.22 38.707l16.101-3.809q5.481-1.3 9.262.223 3.78 1.525 6.77 5.563c1.996 2.687 3.488 6.132 4.48 10.324.691 2.918.98 5.601.875 8.058q-.168 3.68-1.45 6.907-1.281 3.228-3.179 5.144-1.426 1.442-4.34 2.832-2.916 1.4-4.765 1.832l-14.184 3.36-1.32-5.594 1.062-.25q1.348-.321 1.7-.711c.238-.258.386-.645.453-1.148.035-.395-.098-1.211-.391-2.45l-5.227-22.086q-.44-1.851-.757-2.343-.31-.494-.809-.664-.499-.178-1.895.156l-1.062.25zM95.168 30.016l15.113-2.977 1.11 5.64-1.375.27c-.797.156-1.309.356-1.532.59q-.331.355-.406.992-.07.638.266 2.328l4.441 22.563q.364 1.84.621 2.34c.172.328.403.547.684.652.355.172.844.2 1.465.074l1.644-.324 1.11 5.645-15.114 2.972-1.11-5.64 1.228-.243q1.319-.257 1.671-.585.352-.325.438-.907.082-.576-.234-2.183l-4.461-22.649c-.247-1.265-.477-2.086-.68-2.46-.207-.376-.477-.641-.82-.798q-.357-.169-1.563.067l-1.383.273zM129.648 30.418l4.004 25.566q.205 1.294.364 1.575c.168.277.37.449.62.523q.37.104 1.688-.102 3.668-.571 5.5-2.386c1.223-1.207 2.086-2.977 2.59-5.301q.762-3.486.047-8.027-.703-4.484-2.418-7.614-1.717-3.128-3.691-4.21-1.98-1.08-5.262-.563Zm-12.445-4.773 16.344-2.563q5.564-.874 9.219.938c2.433 1.207 4.543 3.226 6.324 6.066 1.777 2.836 3.004 6.383 3.672 10.64.46 2.962.547 5.66.246 8.098q-.441 3.662-1.973 6.778c-1.015 2.078-2.207 3.707-3.562 4.882q-1.536 1.325-4.547 2.493-3.017 1.167-4.89 1.46l-14.4 2.258-.894-5.68 1.082-.167q1.37-.216 1.75-.578c.254-.243.438-.614.543-1.11q.089-.586-.203-2.472l-3.516-22.422q-.293-1.879-.57-2.399a1.56 1.56 0 0 0-.758-.722q-.486-.21-1.898.007l-1.078.172zM181.219 17.031l3.191-.34 4.664 14.508-4.012 2.047c-1.773-3.383-3.351-5.754-4.742-7.101q-2.889-2.779-5.879-2.457c-1.457.156-2.757.832-3.91 2.035-1.152 1.203-1.992 2.879-2.511 5.03q-.782 3.23-.333 7.403.68 6.37 3.72 10.688 3.04 4.32 7.183 3.875c1.754-.188 3.367-1.028 4.847-2.524q2.772-2.782 4.536-7.164l3.847 3.035q-2.741 6.465-5.297 9.16-3.938 4.167-9.265 4.735-4.429.473-8.313-1.941-3.884-2.42-6.554-7.223-2.672-4.81-3.309-10.762-.633-5.924.926-11.015 1.558-5.098 4.851-8.204c2.2-2.074 4.762-3.265 7.7-3.578q4.47-.474 8.109 1.653zM212.48 20.613q-3.585.205-5.507 3.867-2.414 4.612-2.008 11.66.404 7.049 3.12 11.008 2.345 3.386 5.868 3.188 3.546-.205 5.469-3.832c1.512-2.895 2.133-6.676 1.863-11.356-.183-3.293-.703-6.039-1.547-8.238q-1.26-3.294-3.187-4.855-1.923-1.565-4.07-1.442m-.464-6.593q7.494-.428 12.48 5.308 4.979 5.746 5.524 15.172c.238 4.223-.254 8.012-1.485 11.363q-1.84 5.027-5.426 7.903-3.583 2.87-8.867 3.175-6.979.398-11.715-4.402-5.725-5.788-6.304-15.988-.546-9.487 3.82-15.793c2.91-4.203 6.898-6.45 11.973-6.738M238.941 12.156l2.985-.023.328 1.394 17.777-.152.371-1.402 3.008-.028 4.04 14.532-4.188 1.972q-1.434-3.622-2.055-4.719-1.218-2.167-2.789-3.402c-.79-.629-1.566-.937-2.34-.933-.36.003-.61.12-.742.347q-.198.346-.191 1.57l.207 23.883c.011 1.41.058 2.297.136 2.653q.118.532.395.843.274.31.754.414c.32.067 1.172.09 2.55.083l.047 5.746-15.398.132-.05-5.746.933-.008c1.031-.011 1.687-.101 1.976-.273q.428-.253.653-.898.218-.64.203-2.668l-.211-24.422q-.007-1.044-.192-1.313c-.125-.175-.378-.261-.77-.258-.784.004-1.655.403-2.612 1.184-.961.781-1.809 1.883-2.551 3.297q-.446.842-1.883 4.695l-4.152-1.902zM295.152 12.762l2.985.18.23 1.413 17.742 1.07.47-1.37 3.003.18 3.027 14.773-4.316 1.68q-1.178-3.71-1.723-4.848-1.063-2.244-2.55-3.586-1.116-1.025-2.266-1.094-.541-.03-.766.297c-.148.223-.25.738-.297 1.55l-1.437 23.845q-.13 2.114-.047 2.652.081.543.332.871.258.328.727.46.47.136 2.539.259l-.348 5.738-15.371-.93.344-5.734.93.055q1.546.095 1.992-.133.446-.224.71-.852.27-.626.391-2.648l1.469-24.38q.064-1.042-.102-1.32c-.11-.187-.36-.288-.75-.312q-1.177-.074-2.687 1-1.519 1.072-2.774 3.117c-.336.535-1.066 2.051-2.199 4.551l-4.015-2.183zM346.04 24.102q-3.575-.392-6.071 2.902c-2.094 2.766-3.399 6.488-3.906 11.168q-.769 7.018 1.257 11.375c1.168 2.484 2.922 3.851 5.262 4.11q3.528.385 6.023-2.88 2.954-3.896 3.715-10.886.54-4.916-.164-8.38c-.469-2.308-1.246-4.081-2.34-5.32q-1.639-1.856-3.777-2.09m.632-6.582q7.461.814 11.43 7.3c2.64 4.325 3.625 9.618 2.937 15.875q-.688 6.305-3.336 10.957-2.647 4.66-6.66 6.899-4.013 2.242-9.273 1.668-6.945-.757-10.825-6.278c-3.125-4.433-4.316-10.039-3.578-16.808q1.037-9.445 6.38-14.946c3.565-3.664 7.87-5.218 12.925-4.667M368.313 20.617l13.703 2.254-.934 5.676c-.879-.149-1.434-.195-1.66-.152q-.345.064-.645.421-.3.358-.382.856c-.047.297-.055.945-.024 1.96l.676 21.891 6.125-14.503-.418-6.336a10 10 0 0 1-.055-.766q-.057-1.49-.535-2.188-.482-.697-1.566-.937l.933-5.672 13.012 2.14-.934 5.677-1.05-.176q-1.137-.186-1.536.11c-.367.28-.59.679-.675 1.187-.059.375-.075 1.144-.036 2.32l.56 19.559 6.917-18.333c.512-1.324.785-2.113.828-2.367q.112-.701-.226-1.14c-.227-.29-.711-.493-1.457-.618l-1.137-.183.933-5.676 11.829 1.945-.934 5.672q-1.278-.206-1.875.04-.604.25-1.086.894-.486.645-1.371 2.824L393.301 66.84l-6.738-1.11-.93-16.988-6.57 15.754-7.008-1.152-1.79-32.594c-.074-1.418-.187-2.352-.343-2.79a2.34 2.34 0 0 0-.774-1.077q-.538-.418-1.77-.594zM417.527 29.082l12.496 2.77 3.79 25.671 3.207-14.48c.277-1.242.394-2.027.363-2.36-.047-.5-.172-.867-.383-1.109q-.316-.357-1.395-.597l-1.5-.332 1.243-5.614 12.695 2.813-1.242 5.61-1.406-.31q-1.055-.234-1.575-.011c-.347.144-.62.39-.816.73q-.3.515-.703 2.348l-6.953 31.379-6.336-1.406-4.817-32.426-4.632 20.906q-.398 1.803-.344 2.336.054.528.418.914.363.388 1.418.617l1.468.328-1.242 5.614-12.742-2.825 1.246-5.613 1.317.293q1.096.245 1.558.086c.309-.102.586-.344.836-.715.25-.37.469-.965.649-1.777l5.152-23.266c.2-.89.27-1.558.219-2.008-.055-.453-.188-.793-.395-1.035q-.314-.358-1.191-.55l-1.649-.368z" style="stroke:none;fill-rule:nonzero;fill:#fff;fill-opacity:1" data-source="https://football-logos.cc"></path><!-- source: https://football-logos.cc --></svg>