<svg xmlns="http://www.w3.org/2000/svg" viewBox="0 0 509.91 562.5"><!-- Source: https://football-logos.cc --><g stroke-width=".998" data-source="https://football-logos.cc"><g fill-rule="evenodd"><path d="m64.95 431.166-37.854 38.187.875 6.246c2.749 21.665-1.339 41.767-12.597 60.499L8.25 547.953l12.853-5.109c9.625-3.825 19.324-7.48 28.96-11.31a18.4 18.4 0 0 0 3.602-1.914c2.566-1.76 4.47-4.102 5.292-6.754.824-2.652.54-5.609-1.201-8.48-3.902-6.605-5.531-13.37-5.442-23.465 22.561 17.593 46.685 32.092 72.436 42.696 39.653 16.33 83.99 29.2 130.205 28.877 46.216.322 90.55-12.548 130.204-28.877 25.75-10.604 49.875-25.103 72.436-42.696.09 10.094-1.54 16.86-5.442 23.464-1.741 2.872-2.025 5.829-1.201 8.481s2.726 4.994 5.292 6.754a18.4 18.4 0 0 0 3.602 1.915c9.637 3.828 19.335 7.484 28.96 11.31l12.853 5.108-7.125-11.855c-11.258-18.732-15.346-38.834-12.597-60.499l.875-6.246-37.854-38.187c-49.477 43.855-112.622 72.278-190.003 71.995-77.38.283-140.527-28.14-190.004-71.995"></path><g fill="#fff"><path d="m65.213 438.243-30.711 30.942c27.33 24.74 58.043 45.578 92.214 59.65 40.513 16.683 84.177 28.69 128.238 28.475 44.062.215 87.724-11.792 128.237-28.475 34.17-14.072 64.885-34.91 92.215-59.65l-30.712-30.942c-53.736 46.358-118.123 70.229-189.74 70.08-71.617.149-136.005-23.722-189.741-70.08M476.807 474.94c-2.838 22.352 1.317 43.221 12.622 62.596-9.165-3.626-18.543-7.177-27.675-10.805-1.932-.768-3.948-2.123-5.087-3.796s-1.471-3.597-.093-5.87c5.177-8.539 5.913-18.884 6.284-29.297l.038-1.064c4.753-3.992 9.826-8.2 13.911-11.765M33.1 474.94c2.838 22.352-1.316 43.221-12.621 62.596 9.164-3.626 18.542-7.177 27.674-10.805 1.932-.768 3.948-2.123 5.087-3.796 1.14-1.673 1.472-3.597.094-5.87-5.178-8.539-5.913-18.884-6.284-29.297l-.038-1.064c-4.754-3.992-9.826-8.2-13.912-11.765"></path></g></g><g stroke-width="2.672"><path d="m51.422 475.147 19.42-23.042 15.796 13.313-3.285 3.898-11.144-9.392-4.597 5.454 9.62 8.107-3.286 3.898-9.619-8.107-8.252 9.792zM84.081 482.566q2.41-3.924 5.218-5.866 2.08-1.424 4.544-2.058 2.481-.623 4.748-.268 3.024.458 6.159 2.383 5.675 3.485 6.912 9.092 1.253 5.618-2.597 11.89-3.819 6.218-9.361 7.663-5.532 1.427-11.19-2.047-5.728-3.518-6.968-9.08-1.23-5.578 2.535-11.71m5.45 3.105q-2.678 4.362-2.051 7.858.637 3.48 3.738 5.383t6.445.895q3.374-1.016 6.117-5.483 2.71-4.414 2.1-7.78-.593-3.355-3.799-5.323t-6.522-.966q-3.307.985-6.028 5.416M116.956 501.894q1.822-4.228 4.323-6.553 1.855-1.707 4.203-2.688 2.366-.972 4.66-.946 3.058.02 6.437 1.475 6.116 2.635 8.144 8.008 2.046 5.38-.866 12.138-2.887 6.702-8.166 8.926-5.27 2.206-11.367-.421-6.173-2.66-8.198-7.986-2.016-5.345.83-11.953m5.84 2.292q-2.026 4.7-.904 8.071 1.13 3.352 4.47 4.792 3.342 1.44 6.508-.04 3.193-1.488 5.268-6.302 2.05-4.757.962-8-1.068-3.236-4.522-4.725t-6.594-.02q-3.13 1.448-5.189 6.224M156.075 532.93l7.12-24.002-8.573-2.543 1.45-4.887 22.958 6.81-1.45 4.887-8.553-2.537-7.12 24.002zM187.06 510.213l11.847 2.172q3.518.645 5.18 1.263 1.688.602 2.872 1.78 1.204 1.183 1.829 2.906.628 1.704.276 3.624-.382 2.083-1.833 3.614-1.43 1.535-3.511 2.052 2.565 1.285 3.672 3.453 1.107 2.167.637 4.735-.371 2.022-1.673 3.768-1.279 1.73-3.128 2.583-1.825.835-4.259.66-1.526-.112-7.255-1.12l-10.089-1.85zm5.08 6.03-1.257 6.855 3.922.719q3.498.64 4.366.695 1.57.1 2.598-.61 1.053-.726 1.316-2.162.252-1.375-.36-2.365-.59-1.006-2.052-1.462-.871-.265-5.097-1.04zm-2.162 11.788-1.453 7.925 5.54 1.016q3.235.593 4.138.57 1.379.002 2.378-.776 1.024-.794 1.313-2.371.244-1.335-.232-2.383-.477-1.049-1.632-1.7-1.135-.647-5.22-1.395zM246.135 547.882l-6.602-.474-2.134-7.016-12.014-.862-2.971 6.65-6.438-.463 13.864-29.216 6.417.46zm-10.32-12.694-3.341-11.45-4.86 10.862zM257.06 547.836l-.89-29.874 6.082-.18.738 24.798 15.122-.45.15 5.076zM290.244 546.176l-3.717-29.655 6.037-.757 3.086 24.618 15.011-1.882.632 5.038zM356.273 521.231l6.187.1q.115 5.116-2.228 8.327-2.33 3.186-6.977 4.577-5.75 1.721-10.625-1.09-4.88-2.83-6.92-9.644-2.156-7.207.375-12.299 2.525-5.111 8.59-6.926 5.298-1.586 9.543.555 2.523 1.262 4.545 4.433l-5.357 3.105q-1.184-2.091-3.207-2.902-2.004-.816-4.328-.12-3.21.96-4.529 3.865-1.3 2.9.245 8.058 1.638 5.475 4.303 7.21 2.665 1.734 5.815.79 2.324-.695 3.556-2.673 1.232-1.977 1.012-5.366M377.178 525.57l-11.91-27.412 5.58-2.424 9.887 22.755 13.876-6.03 2.023 4.658zM391.639 485.975l5.21-3.141 8.428 13.977q2.005 3.327 2.793 4.196 1.29 1.382 3.124 1.597 1.84.186 4.023-1.13 2.218-1.337 2.803-2.914.575-1.595.007-3.053-.567-1.458-2.414-4.521l-8.607-14.276 5.21-3.142 8.173 13.554q2.802 4.648 3.536 6.821.735 2.174.386 4.184-.33 2-1.754 3.938-1.434 1.92-4.497 3.767-3.696 2.229-6.125 2.541-2.42.284-4.347-.403-1.937-.704-3.191-1.988-1.848-1.91-4.459-6.241zM419.006 469.719l8.801-8.224q2.613-2.442 4.1-3.41 1.489-.997 3.14-1.246 1.667-.264 3.424.261 1.742.51 3.075 1.937 1.446 1.547 1.812 3.624.38 2.064-.443 4.043 2.56-1.295 4.96-.894 2.401.402 4.184 2.309 1.403 1.502 2.03 3.588.629 2.057.212 4.05-.415 1.964-2.005 3.815-1 1.159-5.221 5.16l-7.494 7.004zm7.87-.49 4.758 5.091 2.913-2.722q2.599-2.428 3.16-3.093 1.014-1.202 1.057-2.45.043-1.28-.954-2.345-.954-1.022-2.114-1.12-1.16-.126-2.397.778-.73.542-3.87 3.475zm8.182 8.756 5.502 5.887 4.115-3.845q2.403-2.246 2.922-2.984.823-1.107.793-2.373-.029-1.295-1.123-2.467-.927-.991-2.053-1.233t-2.337.3q-1.196.526-4.23 3.36z"></path></g></g><ellipse cx="254.954" cy="239.769" rx="246.117" ry="239.769"></ellipse><ellipse cx="254.953" cy="239.769" fill="#fff" rx="238.971" ry="232.806"></ellipse><g fill-rule="evenodd" stroke-width=".998"><path d="m352.448 35.555-14.565 26.62 9.11 4.985 5.024-9.182 3.916 2.144q2.169 1.183 2.578 2.5.417 1.324-.708 3.38l-1.456 2.66q-.218.397-.48 1.18a24 24 0 0 0-.53 1.884l9.318 5.098.543-.994c-.48-.326-.454-1.034.086-2.117.01-.034.02-.07.034-.094l1.87-3.796c.922-1.812 1.275-3.375 1.045-4.695-.223-1.317-1.047-2.578-2.482-3.765 1.922.234 3.55.028 4.89-.634s2.46-1.806 3.347-3.429c1.492-2.727 1.643-5.186.45-7.386-1.186-2.197-3.935-4.48-8.244-6.838zm5.586 11.427 3.956 2.164q2.438 1.335 2.973 2.35.54 1.005-.235 2.42-.755 1.38-1.893 1.466-1.141.099-3.347-1.109l-4.189-2.292zM293.01 48.917l7.379-29.433 25.397 6.366-1.765 7.042-15.191-3.809-.985 3.93 12.842 3.22-1.693 6.754-12.842-3.22-1.14 4.544 15.818 3.965-1.795 7.164zM241.757 15.772l10.757-.107 5.715 19.532 5.718-19.647 10.331-.103L263.56 45.9l-10.476.105zM206.722 20.35q-2.557-.023-5.43.647c-5.124 1.194-8.851 3.53-11.166 7.01-2.316 3.471-2.917 7.618-1.794 12.434 1.119 4.802 3.491 8.258 7.105 10.355 3.615 2.096 7.993 2.55 13.116 1.355 5.11-1.19 8.82-3.53 11.128-7.007 2.315-3.48 2.906-7.625 1.787-12.427-1.122-4.815-3.487-8.273-7.1-10.363q-3.382-1.966-7.646-2.004m-1.803 7.845q1.938-.009 3.28 1.1c1.302 1.07 2.277 3.015 2.935 5.838q.985 4.22-.054 6.52-1.039 2.31-4.254 3.056-3.227.751-5.204-.858c-1.32-1.079-2.3-3.01-2.952-5.812-.655-2.808-.631-4.98.075-6.532q1.061-2.318 4.289-3.072a8.5 8.5 0 0 1 1.885-.24M155.008 39.53q-1.985-.004-4.266.747-2.285.751-6.566 3.01l-11.254 5.936 14.157 26.84 9.521-5.023c3.136-1.655 5.366-2.942 6.701-3.86 1.328-.916 2.365-1.83 3.092-2.73 1.905-2.294 2.943-4.804 3.099-7.534.163-2.734-.558-5.615-2.163-8.657-1.523-2.887-3.314-5.059-5.364-6.506-2.058-1.444-4.372-2.187-6.957-2.223m-2.58 9q.789 0 1.467.247c1.451.522 2.813 1.998 4.086 4.412 1.31 2.482 1.765 4.438 1.38 5.873q-.589 2.148-4.062 3.98l-2.497 1.317-6.99-13.25 2.611-1.379q2.272-1.198 4.006-1.2M433.191 358.337l6.172-8.011c3.136 2.794 4.773 5.999 4.902 9.615.134 3.61-1.25 7.304-4.149 11.066-3.245 4.213-6.991 6.622-11.218 7.214-4.231.597-8.41-.699-12.53-3.872-4.108-3.165-6.43-6.858-6.957-11.082-.532-4.228.794-8.404 3.979-12.538 2.935-3.81 6.124-6.124 9.575-6.954 3.446-.823 6.915-.104 10.395 2.16l-6.229 8.084c-1.385-.873-2.688-1.187-3.926-.946q-1.849.369-3.42 2.408c-1.277 1.659-1.652 3.342-1.134 5.063q.784 2.585 4.29 5.286 3.443 2.655 6.225 2.688c1.851.026 3.437-.811 4.747-2.513 1.01-1.31 1.446-2.626 1.32-3.948-.128-1.322-.802-2.56-2.042-3.72M394.668 415.18l-19.822-24.893 8.49-6.76 19.821 24.894zM347.799 442.33l-9.88-21.276-8.67 4.026-3.523-7.587 27.015-12.544 3.523 7.587-8.67 4.026 9.88 21.275zM280.795 460.096l-4.632-31.483 26.263-3.864 1.108 7.531-15.709 2.312.618 4.203 13.28-1.954 1.063 7.225-13.28 1.954.715 4.86 16.356-2.406 1.127 7.663zM221.013 459.107l3.277-31.653 10.61 1.099-2.406 23.244 14.423 1.493-.87 8.408zM155.785 440.574l10.693-29.971 10.047 3.584-3.63 10.171 9.352 3.337 3.629-10.171 10.047 3.584-10.693 29.971-10.047-3.584 4.15-11.63-9.352-3.337-4.15 11.63zM110.146 411.426l13.823-18.952-7.723-5.633 4.93-6.758 24.063 17.552-4.929 6.758-7.723-5.633-13.823 18.951zM92.198 346.559 59.84 356.661l6.385 8.324 4.119-1.54 6.437 8.39-2.577 3.548 6.439 8.39 18.132-28.64zm-4.567 10.334-6.729 9.335-4.076-5.313z"></path></g><path fill="#bae3f9" d="M254.953 57.27a180.93 179.654 0 0 0-180.93 179.656 180.93 179.654 0 0 0 4.543 39.122h.144a180.93 179.654 0 0 0 .718 2.47h351.051a180.93 179.654 0 0 0 .718-2.47h.143a180.93 179.654 0 0 0 4.543-39.122 180.93 179.654 0 0 0-180.93-179.655" data-source="https://football-logos.cc"></path><path fill="#fff" d="M79.428 278.517a180.93 179.654 0 0 0 175.525 138.064 180.93 179.654 0 0 0 175.526-138.064z"></path><g fill-rule="evenodd"><path fill="#fff311" d="M87.328 294.447a177.75 176.496 0 0 0 15.597 33.218c9.944-1.076 22.153.652 32.891 3.584 16.805 4.589 38.465 2.535 45.784-1.655 6.067-3.473 10.097-3.665 14.892-3.677 7.757-.017 16.722 3.312 24.455 5.24 15.275 3.809 32.063 5.5 45.599-1.01 11.175-5.375 23.044-5.303 36.774 0 16.04 6.192 33.444 5.286 51.115-1.288 12.64-4.702 24.247-3.484 36.038.735 3.22 1.153 8.984 1.846 13.78 2.182a177.75 176.496 0 0 0 18.303-37.27z"></path><path fill="#355daa" d="M220.947 349.488c10.127 3.349 29.608 4.367 45.186-1.54 14.292-5.42 23.127-6.39 37.462-.482 17.584 7.245 35.574 4.71 49.369-1.012 10.648-4.417 22.262-2.373 28.204-.677 2.496.712 9.447 2.779 14.427 2.706 2.713-3.5 8.303-11.76 10.753-15.462-4.808-.122-11.54-.71-15.876-2.262-11.79-4.22-23.398-5.437-36.037-.735-17.672 6.574-35.076 7.48-51.115 1.287-13.73-5.302-25.598-5.374-36.774 0-13.536 6.51-30.324 4.82-45.599 1.011-7.733-1.928-16.697-5.258-24.454-5.24-4.796.011-8.826.204-14.893 3.677-7.318 4.19-28.978 6.243-45.783 1.655-12.745-3.48-23.663-6.045-33.072-4.44 2.408 3.92 4.965 12.396 7.661 16.106 9.445-.65 12.44 2.985 25.41 5.5 17.667 3.425 32.04 3.157 43.21-2.022 8.383-3.887 12.671-3.299 17.467-3.31 7.756-.017 16.887 2.738 24.454 5.24M266.178 364.717c-16.88 5.14-36.589 3.653-51.666-.16-8.28-2.095-16.38-4.038-24.132-3.77-5.622.194-8.29 2.057-17.146 4.689-11.061 3.286-27.418 2.018-39.572.168 6.053 5.59 12.497 15.196 19.287 19.907 7.006.664 14.911-.825 21.02-2.495 8.913-2.435 13.653-7.164 19.26-7.602 9.315-.727 20.896 4.76 28.638 7.602 11.894 4.366 27.913 3.171 43.53-1.305 10.201-2.924 17.566-3.68 31.815-.332 16.788 3.945 38.238 5.418 53.178 3.081 4.618-.722 6.612-2.464 9.338-2.453 6.384-4.757 18.447-14.366 24.128-19.922-8.156-1.87-19.5-1.002-30.524 2.362-20.672 6.31-30.43 4.235-53.362-.327-14.985-2.981-19.074-3.924-33.792.557M265.857 397.152c-23.544 7.768-34.005 5.632-46.748 2.5-6.76-1.66-11.863-4.07-20.764-4.24-5.622-.106-14.22 2.6-18.577 4.826 21.398 9.16 49.384 15.342 74.134 15.342 20.788 0 44.845-4.056 63.378-10.629-2.914-1.409-15.376-7.53-20.758-8.315-11.296-1.648-21.992-2.345-30.665.516"></path><path d="M181.6 328.092c-7.318 4.19-28.978 6.243-45.783 1.655-12.815-3.5-26.264-6.844-36.904-4.172q1.14 1.968 2.33 3.902c9.409-1.606 21.829.96 34.574 4.44 16.805 4.588 38.465 2.534 45.783-1.655 6.067-3.474 10.097-3.666 14.893-3.677 7.757-.018 16.72 3.312 24.454 5.24 15.275 3.808 32.063 5.498 45.6-1.012 11.175-5.374 23.042-5.301 36.773 0 16.04 6.194 33.443 5.287 51.115-1.287 12.639-4.702 24.247-3.484 36.037.736 4.335 1.551 11.068 2.14 15.876 2.261a177 177 0 0 0 2.581-4.015c-4.934-.112-14.068-.845-18.457-2.416-11.79-4.22-23.398-5.437-36.037-.735-17.672 6.574-35.076 7.48-51.115 1.287-13.73-5.302-25.598-5.375-36.774 0-13.536 6.51-30.324 4.82-45.599 1.011-7.733-1.928-16.697-5.258-24.454-5.24-4.796.011-8.826.204-14.893 3.677M193.23 375.454c-5.608.438-10.348 2.162-19.26 4.597-6.11 1.67-14.015 3.159-21.021 2.495q4.135 2.87 8.438 5.508c6.42-.081 9.424-.928 12.583-1.888 8.839-2.685 10.974-3.958 16.594-4.183 15.993-.64 22.345 4.653 29.188 5.93 12.836 2.396 25.431 4.458 46.013-2.04 10.119-3.196 17.204-5.114 31.217-.885 16.42 4.956 39.804 6.335 55.111 2.343a178 178 0 0 0 12.142-8.289c-2.726-.011-9.227 1.73-13.845 2.453-14.94 2.337-36.39.864-53.178-3.081-14.25-3.349-21.614-2.592-31.815.332-15.617 4.476-31.636 5.671-43.53 1.305-7.742-2.841-19.323-5.324-28.637-4.597M198.62 393.494c-5.605-.451-14.591 2.06-18.972 4.331q2.255 1.042 4.541 2.02c4.358-2.225 8.534-3.037 14.156-2.93 8.901.169 14.005 2.58 20.764 4.24 12.743 3.131 23.204 5.268 46.748-2.5 8.673-2.862 19.369-2.164 30.665-.516 5.382.784 14.528 5.169 17.442 6.578q2.227-.79 4.426-1.637c-10.554-5.347-16.102-7.167-21.408-8.362-11.275-2.54-22.544-1.979-31.217.883-23.545 7.769-33.545 5.264-46.013 2.041-6.739-1.741-8.736-3.151-21.132-4.148M179.026 344.403c-11.17 5.18-25.543 5.447-43.21 2.022-12.97-2.515-17.467-6.15-26.912-5.5a178 178 0 0 0 6.073 7.881c6.227-.281 11.874 3.674 20.84 4.569 17.745 1.77 31.395 2.513 43.209-2.023 8.626-3.312 12.671-3.299 17.467-3.31 7.756-.017 16.887 2.739 24.454 5.24 10.127 3.349 29.608 4.367 45.186-1.54 14.292-5.42 22.542-4.7 37.462-.482 21.077 5.959 35.04 3.277 49.369-1.011 11.044-3.305 22.163-3.605 28.067-1.781 2.879.89 10.719 1.989 12.984 2.53a179 179 0 0 0 4.585-5.67c-4.98.073-14.936-1.994-17.432-2.706-5.942-1.696-17.556-3.74-28.204.677-13.795 5.722-31.785 8.257-49.369 1.012-14.335-5.907-23.17-4.938-37.462.482-15.578 5.907-35.059 4.889-45.186 1.54-7.567-2.502-16.698-5.258-24.454-5.24-4.796.011-9.084-.577-17.467 3.31M375.305 358.49c-6.978.146-15.071 1.545-21.973 3.61-14.329 4.288-31.58 4.627-53.04.248-14.972-3.054-17.623-4.62-34.113 1.017-17.077 5.837-41.37 2.182-51.667-.161-8.329-1.895-16.376-3.787-24.132-3.77-4.795.01-8.769.458-17.283 4.046-10.343 4.358-34.315 2.68-46.131.086a178 178 0 0 0 3.691 3.505c12.154 1.85 31.516 3.118 42.578-.168 8.856-2.632 11.523-4.494 17.145-4.688 7.75-.268 15.851 1.674 24.132 3.77 15.077 3.813 34.787 5.298 51.667.159 14.718-4.481 18.806-3.537 33.791-.556 22.931 4.562 32.69 6.637 53.362.327 11.024-3.365 20.866-4.232 29.022-2.362a179 179 0 0 0 3.81-3.843c-2.885-.942-6.671-1.306-10.859-1.22"></path></g><path d="M254.953 52.903a185.33 184.023 0 0 0-185.33 184.023 185.33 184.023 0 0 0 185.33 184.024 185.33 184.023 0 0 0 185.329-184.024 185.33 184.023 0 0 0-185.33-184.023m0 7.527a177.75 176.496 0 0 1 177.75 176.496 177.75 176.496 0 0 1-4.463 38.434h-.142a177.75 176.496 0 0 1-173.145 138.062A177.75 176.496 0 0 1 81.809 275.36h-.142a177.75 176.496 0 0 1-4.464-38.434A177.75 176.496 0 0 1 254.953 60.43"></path><g stroke-width=".998" data-source="https://football-logos.cc"><g fill-rule="evenodd"><path d="m110.855 214.21.012-12.1c.015-1.486.605-2.924.632-4.41l.002-6.726c.029-.63.597-1.61 1.317-1.665 1.03-.08 1.97-.04 2.815-.06 1.333.083 2.23 1.661 2.23 2.527.368 3.739.184 7.064.551 10.803.092 1.417 1.126 2.742 2.942 2.78l4.436.046c1.264-.092 2.523-1.579 2.919-2.827.516-1.628.736-2.077.74-3.904-.126-7.76-7.146-14.614-15.41-14.594-8.396.02-10.403 3.072-10.526 8.067l-.157 23.283c-.245 4.32-3.248 8.274-7.355 9.929l-69.41 27.304c-6.65 3.125-11.552 8.274-14.984 13.238L0 284.591v12.846l509.907.091v-2.095c-8.4-17.574-20.282-36.274-32.199-50.72-1.876-2.274-4.59-3.422-7.539-4.412l-76.426-25.657c-1.194-.4-.934-1.985-.845-3.094l.598-7.378c.2-1.042-1.034-1.758-2.85-2.023-5.324-.776-10.61-1.875-15.537-3.86-2.336-.942-3.547-2.89-3.401-4.69v-17.56c-.024-.894-.715-2.005-1.519-2.015l-15.03-.19c-2.62.03-4.412 1.716-4.412 4.23l.011 12.895c.03 6.007-7.167 3.254-7.182-.209v-11.813c-.02-.488-.109-1.417-.991-1.417l-12.21-.008c-.326-.022-.691.494-.691.738l.01 9.742c-.084 1.31-.927 2.367-1.93 2.39l-8.642-.368c-1.532-.046-1.318-.92-1.287-2.206v-4.505c.023-1.486-2.138-3.042-4.413-3.034-4.23 0-9.171-.092-13.4-.092l.005 7.064c.004.756-1.952 1.264-3.155 1.302-1.57.077-4.773-.26-4.78-.965l-.002-49.23c-.015-1.747-1.036-3.275-2.942-3.31-5.792-.06-6.85.908-8 .92-1.548.018-4.106.46-4.183-2.16l-.047-32.958c6.712-.43 13.928-.49 20.961.92.92-5.754 1.042-11.408 0-16.917-7.6-1.869-15.016-3.003-22.8-3.125-1.324-.092-3.891.873-3.86 2.206l.09 55.436c.026 2.388-2.546 2.128-4.197 2.122-.21-.001-.477-.197-.475-.467l-.018-2.785c-.007-1.015-1.683-2.486-3.307-2.64l-11.216-.735c-1.103-.077-1.441 1.003-1.792 1.885l-1.885 4.735c-2.75.007-4.766-2.17-6.196-3.358-2.72-2.26-5.958-5.309-8.398-5.284l-9.32-.035c-3.295-.012-4.745 2.382-4.746 4.746l-.023 48.242c0 1.249-.59 1.831-1.333 1.885l-4.068-.023c-.793.009-.712.846-.723 1.338l.023 3.482c.012 1.764 1.517 2.835 3.31 2.804l4.89.006c2.298-.146 5.659-3.675 5.636-5.935l.046-38.474c.03-2.282 1.332-4.261 1.38-6.436.03-1.413.122-3.616.183-4.32.061-.751.627-1.511 1.839-1.563 1.6-.07 3.556 2.046 3.525 3.146l-1.043 37.488c-.018.636-.092 1.364.552 1.839l3.493 2.298c1.065 1.004 1.74 2.122 1.747 3.494l-.029 2.528c.062 1.126.68 2.516 1.96 2.528l5.866.003c1.417.038 2.139 1.567 2.591 2.33l1.739 2.488c.582.797 2.32.677 3.682.622.941-.039 1.572-.87 2.302-1.674.551-.674 1.598-1.508 1.667-2.365l.01-4.696c-.1-.728-.75-2.116-2.413-2.132h-5.366c-1.016 0-2.031-.954-2-1.735.03-.927.268-2.594-.437-3.268-1.104-1.257-2.156-1.86-2.953-3.363-.398-.75-1.079-1.188-1.103-2.298-.074-3.333-1.114-4.045-1.12-6.068l.005-3.292c-.038-.942 1.176-4.086 1.115-5.533v-10.348c.03-1.502.29-2.801 2.114-2.799l3.5.005c1.574-.115.568-5.815 3.533-5.613 2.235.152.626 23.351.598 34.843-.002.896.316 2.666 1.333 2.666h3.356c1.777 0 3.946 2.008 3.952 3.769l.047 12.296c.003.903-.104 1.692 3.573 1.638s2.304-2.41 3.477-2.41h1.781c.873 0 1.363 1.677 1.42 4.748.011.62 1.146 1.02 2.206 1.011l2.091-.017c1.55-.095 2.717-1.767 2.736-3.04l-.013-5.472c-.002-.927-.63-2.133-1.94-2.135l-4.184-.006c-.904.03-1.856-1.066-1.91-1.794l.003-7.393c.092-3.463-.46-4.904-4.413-4.873-1.226-.061-2.29-1.766-2.23-3.436l-.068-23.041c-.061-1.027 1.232-1.273 2.574-1.287 1.834-.02 2.84.727 3.01 1.38.3 1.026 1.101 2.07 2.272 2.102 1.134.03 2.87-.736 2.9-1.862v-5.757c.019-.946.796-2.789 2.022-3.494 1.226-.574 3.096.506 3.126 1.104l1.103 52.839c.025 1.18.165 2.957 1.287 2.964l2.194.015c1.687.011 1.909-.956 2.38-1.508.857-1.004 1.8-1.221 3.149-1.724 1.092-.407 2.283-.678 3.493-.667 3.314.031 4.344.49 4.413 2.138.03 2.727.027 5.457.058 8.185.215 2.446-1.403 2.544-3.275 2.571-20.9.368-40.053 0-62.056-.644l-47.185.139c-16.67.612-27.083 2.577-41.162 5.745-4.982 1.121-8.742 3.571-13.515 4.965-2.272.663-4.097.518-6.62.643-10.311.046-11.453 3.746-14.065 3.655-2.1.046-1.67-1.885-1.655-3.103.016-1.249.49-2.452.735-3.678z"></path><path fill="#49a23c" d="m35.169 253.787 126.684-41.002 184.602-3.678 112.99 31.347-76.304-1.655-22.432 37.877 9.377-40.451c-3.861-5.087-7.424-10.415-11.583-15.26-2.261-2.636-7.096-3.936-11.4-1.656-7.326 3.881-14.336 8.335-21.605 12.32-2.285 1.253-3.312 2.564-4.137 4.596-4.416 10.872-6.067 23.98-5.608 37.004-4.045-11.093-8.274-23.98-12.32-35.073-.811-2.528-2.602-4.585-4.091-6.756-1.259-1.835-3.034-2.39-4.965-2.207L258.34 231.4l-4.965 3.31-14.71 34.015-3.493-31.993c-.384-1.545-1.526-2.872-3.31-2.942l-13.653.691c-1.317.107-2.037.444-2.574 1.287l-7.17 13.606-7.446-24.454-58.102 11.767-1.473 38.612-27.764-40.45z"></path><path fill="#fff" d="M238.146 289.457c-1.422.045-1.717-1.842-.816-3.867l18.199-44.774c1.195-2.329 2.482-2.543 4.413-2.574l27.856-1.93c4.624-.32 4.303 1.341 5.148 2.758l19.306 42.105c.674 1.21 1.624 2.536 3.126 2.39l3.493-1.976 3.264-37.9c.088-1.022.635-2.324 1.54-2.918l24.431-16.043c1.395-.915 3.272-.45 4.045.552l9.194 11.906c1.025 1.328 1.618 3.11 1.287 4.642l-8.709 40.325 8.343.586 23.121-36.405 86.74.092 28.683 40.083c1.364 1.747.188 2.902-1.85 2.948zM149.397 242.575l43.669-11.493 13.927 31.143 8.205-15.376c1.579-2.528 4.513-6.757 9.309-7.493 1.034-.122 2.5-.235 3.034.736 1.009 1.832 1.547 3.417 1.562 5.332l2.206 35.303c.253 3.179 1.425 5.807 2.138 8.71l-82.085.024c-1.59.03-2.628-.72-2.701-2.115l-.46-42.587c.046-1.119.024-1.87 1.196-2.184M108.807 240.92l29.97 45.415c1.057 1.486-.23 3.064-1.976 3.126l-130.5-.006c-2.678 0-4.444-.814-2.757-3.58l12.87-20.041z"></path></g><path fill="none" d="m143.099 195.207 2.015-4.014c.411-.82 1.22-1.24 2.16-1.241l5.795-.008c.627-.013.818-.508.778-1.417l-.063-18.84c.002-1.412.487-2.295 3.281-2.305h13.79c.934.08 1.697.276 2.39.828l7.163 4.648c.54.404.894.854.927 1.42v2.642c-.023 1.173-.907 1.322-1.069 3.322-.035 1.431 1.642 5.909 3.445 8.765M186.116 188.972c-.003-.895.419-1.447 1.197-1.445l6.388.015c.854.028 1.859.63 1.874 1.429M199.248 188.973c.004-.868.685-1.643 1.734-1.638l6.82.017c1.026.01 1.683.86 1.697 1.617"></path><path fill-rule="evenodd" d="M186.13 190.961c.034 1.092.21 1.93.753 2.747.55.829 1.192 1.194 2.286 1.194l1.822.001c.743 0 1.903-1.711 3.476-1.7.546.004 1.109-.244 1.103-1.15l.005-3.082c-.016-.798-1.02-1.4-1.875-1.43l-6.387-.014c-.778-.002-1.2.55-1.198 1.445zM199.248 188.973c-.07 1.502-.16 2.516.252 3.494.36.606.686 1.047 1.552 1.046l6.496-.004c.888.03 1.982-.565 1.95-1.27v-3.27c-.013-.757-.67-1.607-1.695-1.617l-6.82-.017c-1.05-.005-1.732.77-1.735 1.639zM183.71 189.007c-1.802-2.857-3.48-7.334-3.444-8.766.162-2 1.046-2.149 1.07-3.32v-2.644c-.034-.565-.389-1.015-.928-1.419l-7.163-4.648c-.693-.552-1.456-.748-2.39-.828h-13.79c-2.794.01-3.28.892-3.28 2.304l.062 18.84c.04.91-.15 1.405-.778 1.417l-5.795.008c-.94.001-1.749.421-2.16 1.242l-2.016 4.014c-.045 2.038.828 4.529 2.16 4.43l6.353-.623c.743-.038.926-1.592.91-2.687.039-.651.767-1.21 1.679-1.264 1.272-.1 2.503-1 3.953-2.804 1.714-2.133 1.509-7.102 1.356-15.974-.1-.812-.245-1.693.805-2.505 1.31-.965 2.387-1.717 4.481-1.792l4.47-.16c.809-.01 2.757 1.566 3.345 2.367.564.768.26 1.348.322 1.838-.062 4.474-.255 8.155-.316 12.63-.004.788.883 1.322 1.465 1.344 1.226.047 2.451.123 3.677.184 1.023.057 1.638.448 2.557.482l3.395.066c.184-.564.245-1.156 0-1.732z"></path><path fill="#fff" d="M230.92 138.55c-1.211.052-1.778.812-1.84 1.563-.06.704-.152 2.908-.183 4.32-.047 2.175-1.35 4.155-1.38 6.436l-.045 38.475c.023 2.26-3.339 5.79-5.637 5.935l-4.889-.006c-1.793.03-3.298-1.04-3.31-2.804l-.023-3.482-4.113-.017v3.269c.03.705-1.063 1.301-1.952 1.27l-6.497.003c-.866.001-1.19-.439-1.55-1.044-.412-.979-.322-1.992-.253-3.494l-3.673-.003-.004 3.081c.006.906-.557 1.155-1.103 1.15-1.573-.01-2.733 1.701-3.476 1.701h-1.822c-1.095 0-1.735-.366-2.286-1.195-.543-.817-.719-1.655-.753-2.747l-.015-1.99-2.418.004c.261.586.201 1.19.013 1.765l-3.395-.066c-.919-.035-1.535-.426-2.557-.483-1.226-.061-2.45-.137-3.677-.183-.582-.022-1.469-.556-1.465-1.344.062-4.474.255-8.157.316-12.63-.061-.49.241-1.071-.323-1.84-.587-.8-2.535-2.376-3.344-2.366l-4.47.16c-2.093.075-3.172.828-4.482 1.793-1.05.812-.903 1.693-.804 2.505.154 8.872.357 13.841-1.357 15.974-1.45 1.805-2.68 2.704-3.953 2.804-.911.054-1.639.612-1.677 1.263.015 1.096-.168 2.65-.911 2.688l-6.352.622c-1.333.1-2.207-2.392-2.161-4.43l-1.585.39c0 1.074-.023 3.243-.023 4.316 0-1.073.022-3.242.022-4.315l-6.788.004a1.2 1.2 0 0 0-.333.072q-.041.015-.082.034a2 2 0 0 0-.164.08 2 2 0 0 0-.394.288 2.7 2.7 0 0 0-.525.634 3 3 0 0 0-.189.364 3 3 0 0 0-.1.28 2 2 0 0 0-.066.362v.007q-.004.046-.004.09c-1.157.288-2.259.573-3.416.86-.004 1.827-.223 2.276-.74 3.905-.395 1.248-1.655 2.734-2.919 2.826l-4.436-.046c-1.815-.038-2.85-1.363-2.941-2.78-.368-3.74-.184-7.065-.552-10.804 0-.866-.896-2.442-2.229-2.527-.845.022-1.785-.019-2.816.06-.72.056-1.288 1.037-1.317 1.666l-.001 6.727c-.027 1.486-.617 2.924-.633 4.41l-.011 12.1c-.246 1.226-.72 2.428-.735 3.677-.015 1.218-.444 3.15 1.655 3.103 2.612.092 3.753-3.609 14.065-3.655 2.522-.124 4.346.021 6.619-.642 4.773-1.394 8.534-3.845 13.515-4.965 14.08-3.17 24.492-5.133 41.163-5.746l47.184-.138c22.003.643 41.157 1.012 62.057.644 1.872-.027 3.49-.126 3.275-2.572-.03-2.728-.029-5.457-.06-8.185-.068-1.647-1.098-2.107-4.411-2.137-1.21-.012-2.402.26-3.494.667-1.348.503-2.292.72-3.148 1.723-.472.552-.693 1.52-2.38 1.51l-2.194-.017c-1.122-.007-1.262-1.784-1.287-2.963l-1.103-52.84c-.03-.597-1.901-1.678-3.127-1.103-1.226.705-2.003 2.547-2.022 3.493v5.758c-.03 1.126-1.766 1.892-2.9 1.862-1.17-.03-1.972-1.076-2.27-2.103-.17-.651-1.177-1.398-3.011-1.379-1.342.014-2.636.26-2.575 1.287l.069 23.04c-.062 1.67 1.004 3.376 2.23 3.437 3.953-.03 4.504 1.41 4.412 4.873l-.001 7.393c.053.728 1.005 1.824 1.909 1.793l4.183.006c1.31.002 1.94 1.21 1.941 2.136l.013 5.472c-.019 1.272-1.186 2.945-2.736 3.04l-2.09.018c-1.06.009-2.196-.393-2.208-1.013-.057-3.071-.545-4.746-1.419-4.746l-1.78-.001c-1.173 0 .2 2.357-3.478 2.41-3.677.054-3.57-.734-3.573-1.637l-.047-12.297c-.007-1.761-2.176-3.77-3.953-3.77h-3.355c-1.017 0-1.335-1.77-1.333-2.666.029-11.491 1.636-34.69-.598-34.841-2.965-.202-1.96 5.497-3.534 5.612l-3.499-.004c-1.824-.002-2.084 1.297-2.114 2.798v10.349c.061 1.447-1.154 4.59-1.115 5.533l-.004 3.292c.006 2.023 1.045 2.735 1.119 6.067.025 1.11.705 1.548 1.103 2.298.798 1.502 1.85 2.107 2.953 3.363.705.674.467 2.34.437 3.268-.031.781.985 1.736 2 1.736h5.367c1.663.015 2.312 1.403 2.412 2.131l-.01 4.696c-.07.858-1.115 1.692-1.667 2.366-.73.805-1.361 1.635-2.302 1.673-1.362.055-3.1.175-3.681-.622l-1.74-2.487c-.451-.762-1.173-2.292-2.59-2.33l-5.868-.003c-1.28-.012-1.897-1.402-1.959-2.528l.03-2.528c-.007-1.371-.683-2.49-1.748-3.494l-3.494-2.3c-.643-.474-.569-1.202-.551-1.838l1.043-37.487c.03-1.1-1.925-3.216-3.524-3.147z"></path></g><!-- source: https://football-logos.cc --></svg>