<svg xmlns="http://www.w3.org/2000/svg" viewBox="0.03 -0.02 315.69 315.69"><!-- Source: https://football-logos.cc --><path d="M315.719 157.824c0 87.172-70.676 157.844-157.848 157.844S.031 244.996.031 157.824C.031 70.644 70.7-.02 157.871-.02S315.72 70.645 315.72 157.824m0 0" style="stroke:none;fill-rule:evenodd;fill:#151616;fill-opacity:1" data-source="https://football-logos.cc"></path><path d="M136.945 245.242a90.3 90.3 0 0 0 20.926 2.446c7.211 0 14.219-.848 20.938-2.446 4.238.223 8.332.508 12.234.856-10.32 3.882-21.5 6.007-33.172 6.007-11.676 0-22.86-2.125-33.18-6.007 3.91-.348 8.004-.633 12.254-.856m140.57-27.597c-11.16 22.273-28.359 41.003-49.445 54.035-20.418 12.61-44.465 19.886-70.199 19.886-26.09 0-50.441-7.48-71.031-20.41-21.266-13.355-38.504-32.527-49.485-55.285l-.94-1.945 1.929-.977 35.23-17.82 2.024-1.02.965 2.047c7.027 14.883 18.027 27.528 31.632 36.57l.215 2.364.297 3.191q-.626-.381-1.246-.77a94.73 94.73 0 0 1-33.895-37.44l-31.289 15.824c10.653 21.164 26.95 39 46.91 51.535 19.891 12.496 43.438 19.722 68.684 19.722 24.906 0 48.16-7.03 67.883-19.218a129.9 129.9 0 0 0 46.836-50.313l-31.27-15.879a94.8 94.8 0 0 1-33.855 36.278q-.216.128-.426.257l.293-3.187.215-2.356a90.2 90.2 0 0 0 30.836-34.93l.988-1.988 1.977 1.004 35.195 17.871 1.953.993Zm0 0" style="stroke:none;fill-rule:evenodd;fill:#dd2b1c;fill-opacity:1"></path><path d="M251.066 172.195a93.5 93.5 0 0 1-2.636 11.95l33.105 11.664a128 128 0 0 0 4.078-17.618 130 130 0 0 0 1.586-20.367c0-35.715-14.472-68.047-37.879-91.453-23.402-23.402-55.734-37.879-91.449-37.879S89.824 42.97 66.426 66.372c-23.406 23.405-37.883 55.737-37.883 91.452 0 6.528.48 12.934 1.41 19.184a128 128 0 0 0 3.555 16.453l33.152-11.688a95 95 0 0 1-2.16-10.824 96 96 0 0 1-.91-13.125v-.004h.008c0-26.039 10.55-49.605 27.605-66.664 17.063-17.062 40.637-27.617 66.668-27.617 26.035 0 49.606 10.555 66.672 27.617 17.059 17.059 27.613 40.633 27.613 66.668 0 4.88-.375 9.684-1.09 14.371m-7.453 12.672a90 90 0 0 0 3.09-13.324 91 91 0 0 0 1.04-13.719c0-24.82-10.063-47.285-26.325-63.55-16.262-16.262-38.73-26.32-63.547-26.32-24.816 0-47.281 10.058-63.543 26.32-16.27 16.269-26.332 38.738-26.332 63.546h.008v.004c0 4.274.293 8.453.86 12.52a89 89 0 0 0 2.585 12.219l.567 1.992-1.954.691-37.269 13.14-2.168.762-.676-2.203a133 133 0 0 1-4.36-19.297 134.6 134.6 0 0 1-1.46-19.824c0-36.933 14.969-70.37 39.172-94.57 24.203-24.207 57.637-39.176 94.57-39.176 36.934 0 70.367 14.969 94.57 39.176 24.204 24.2 39.176 57.637 39.176 94.57 0 7.133-.57 14.168-1.66 21.059a132 132 0 0 1-4.914 20.441l-.703 2.145-2.125-.75-37.23-13.121-2.016-.707Zm0 0" style="stroke:none;fill-rule:evenodd;fill:#dd2b1c;fill-opacity:1"></path><path d="M206.523 110.781c11.782 12.18 19.028 28.762 19.028 47.043 0 37.375-30.301 67.676-67.68 67.676-18.277 0-34.863-7.246-47.039-19.027Zm0 0" style="stroke:none;fill-rule:evenodd;fill:#fbe116;fill-opacity:1"></path><path d="M108.18 203.766c-11.157-12.067-17.98-28.207-17.98-45.942 0-37.379 30.296-67.676 67.671-67.676 17.734 0 33.875 6.82 45.941 17.98Zm0 0" style="stroke:none;fill-rule:evenodd;fill:#dd2b1c;fill-opacity:1"></path><path d="M181.11 158.805c-14.075-2.121-27.208 7.574-29.325 21.644-2.12 14.082 7.57 27.207 21.645 29.328 14.074 2.118 27.207-7.57 29.324-21.648 2.121-14.074-7.574-27.207-21.645-29.324m0 0" style="stroke:none;fill-rule:evenodd;fill:#fff;fill-opacity:1"></path><path d="M173.61 208.54h.003Zm2.761-48.763.149.184c-.036.027-12.364 10.062-10.04 25.066 2.98-.191 6.313-.789 9.883-2.043.469-11.437 7.95-18.457 11.18-20.968a24.5 24.5 0 0 0-6.621-1.977v-.004h-.004v.004a25 25 0 0 0-4.547-.262m-23.598 23.282c1.575.632 5.61 2.007 11.196 2.046-1.723-11.984 5.043-21 8.726-24.917a24.5 24.5 0 0 0-9.992 4.367 24.47 24.47 0 0 0-9.687 16.078v.012q-.178 1.212-.243 2.414m5.043 16.171c2.711.372 16.614 1.817 27.043-6.19-2.484-4.126-5.539-6.782-7.035-7.935-11.691 4.32-21.207 1.961-25.043.614a24.5 24.5 0 0 0 4.75 13.136q.146.188.285.375m30.836 6.786a25.9 25.9 0 0 0-2.59-10.754c-9.039 6.742-20.308 7.043-25.8 6.707a24.45 24.45 0 0 0 13.347 6.57h.008a24.4 24.4 0 0 0 15.035-2.523m10.86-11.383-.11.031c-3.53-12.078-14.3-19.39-17.93-21.562a24 24 0 0 0-2.593 9.671c2.41 1.77 11.305 9.114 12.203 21.782.254-.168.504-.352.75-.532a24.45 24.45 0 0 0 7.68-9.39M182.71 170.94c3.57 2.145 13.625 8.965 18.11 20.2.296-1.036.534-2.102.699-3.2a24.44 24.44 0 0 0-4.52-18.214 24.5 24.5 0 0 0-7.02-6.418c-1.097.754-4.507 3.304-7.27 7.632m-1.422-13.375h.004a26.95 26.95 0 0 1 17.715 10.676 26.93 26.93 0 0 1 4.996 19.969v.008l-.012.097a26.95 26.95 0 0 1-10.676 17.711 26.95 26.95 0 0 1-19.972 5l-.031-.004-.067-.011h-.004c-7.375-1.11-13.605-5.11-17.71-10.672s-6.098-12.695-4.985-20.07v-.004c1.11-7.375 5.11-13.606 10.676-17.711a26.91 26.91 0 0 1 20.066-4.989M122.156 147.805c.961.52 7.996 4.347 8.39 4.347h9.684v2.164c0 .493 1.336.145 1.872.086a22 22 0 0 0 1.96-.297c1.098-.226 2.512-.68 3.47-1.132 1.073-.512 2.003-1.02 2.905-1.7.762-.574 1.813-1.894 2.297-2.222 0 .68.184.793.184 1.41v.566c0 1.914-.715 4.082-1.375 5.387-.5.988-1.91 3.508-2.66 4.012-.656-.438-4.176-3.758-4.516-3.758h-.285c-.781 0-3.055 2.945-3.852 3.477-.656-.442-5.859-4.137-6.113-4.137h-.375c-.722 0-1.508 3.762-2.066 3.762-.133 0-6.371-5.079-7.051-5.079-.855 0-2.54 3.196-3.383 3.762-.562-.375-3.152-2.973-3.105-3.57l.308-3.363Zm5.672-10.477.074.086 1.965 1.238-.144 5.516-4.008-4.172Zm14.137.824c1.21.774 4.965 3.196 5.597 4.133-1.027.684-3.605 2.223-5.14 2.25Zm-28.246 1.875c0-.68 1.738-2.847 2.258-3.195l1.05 1.871-.093-.023-1.657 3.867c-.136-.113-1.558-2.274-1.558-2.52m7.515-4.879 1.418.094.168.2.496 1.886.102-.012-.086.059Zm15.489.747c.68-.004 3.601 1.109 3.601 1.5v7.523l-3.078.281Zm-12.27-.125 2.05.882-1.241 1.317-.91-2.133Zm9.766 6.046c.363 0 .652-.351.652-.754 0-.523-1.84-3.75-1.883-5.64h1.98c.212 0 .282.066.282.281v9.399h-.473l-2.539-.188v-.844l-.11-3.668c.458.297 1.634 1.414 2.09 1.414m-18.149 4.7c0-1.012.637-3.453.938-4.23.18-.466 1.601-3.47 1.601-3.481v-.282c0-.148-3.812-6.726-4.234-7.523l.652-.387c.618.418 1.532 1.68 2.149 2.293.77.774 1.312 1.5 2.066 2.258.77.766 1.383 1.574 2.117 2.305.72.715 1.47 1.41 2.082 2.242.41.55 1.614 1.734 2.149 2.27.71.703 1.36 1.562 2.066 2.253.739.727 1.153 1.856 2.516 1.903 1.101.043 2.758.468 3.851.468h3.668c2.176 0 4.723-.406 6.38-.949.89-.289 1.78-.64 2.613-1.05.32-.165 2.18-1.383 2.199-1.383.27 0 1.957 1.964 2.195 2.312.484.715 1.383 2.04 1.465 3.047-1.211.285-5.84 3.387-6.676 3.387h-2.254c-.308 0-.66-.715-.66-.942 0-.164 2.531-2.48 2.824-2.914-1.554.36-5.66 2.348-6.957 2.348h-8.55c-.168 0-4.825-2.899-5.399-3.25-.797-.484-4.922-3.121-5.414-3.234v1.125l-.242 3.382-2.942 1.903-.234-1.52Zm29.422-21.91c-.453 1.699-1.035 3.007-1.035 5.269v1.879c0 1.055.367 2.973.602 3.91.312 1.227.863 2.445 1.09 3.422-.403-.106-2.028-1.395-2.598-1.723-.938-.535-1.7-1.031-2.696-1.531-1.453-.738-4.472-1.914-6.55-1.914H132.8v-.848c0-2.754 1.558-7.3 3.012-8.273Zm-34.402 7.62c0-2.792 1.094-6.152 2.066-7.988h4.61c-.625 1.18-1.72 2.434-2.246 3.489-.204.418-.848 1.378-1.215 1.605-.364.227-1.618.781-1.618 1.203v.281c0 .707 2.317 3.84 2.536 4.793-.672.36-2.258 2.23-2.442 3.012-.965-.71-1.691-4.46-1.691-6.394m23.406-8.324c-1.75 2.664-3.195 5.168-3.195 9.547v.09c0 .742.14 2.024.27 2.645.113.539.566 1.828.574 2.246-.692-.364-1.887-1.215-2.606-1.72-.863-.597-1.746-1.019-2.723-1.507-2.125-1.066-3.84-1.566-6.984-1.566l-3.75-4.055 3.563-5.43Zm-17.879-3.168.77 1.996-2.746-.023Zm4.059 1.903c.07-.262 1.21-1.95 1.437-2.137.39-.332 1.793-1.004 2.418-1.062v1.035l.281 2.164Zm11.191-1.785 2.567 1.546-2.567.051Zm-2.351 1.503.562-.566.09-.094.102-.09.164-.21.02.867c0 .215-.067.281-.286.281h-.75Zm11.449-.75 2.39 1.56-2.257.034Zm-.926-.378v2.066h-1.969c-.226-.953-1.101-2.027-1.132-3.383.617.05 3.101.875 3.101 1.317m-14.004-1.973h.938c.886 0 2.14.476 2.914.656-.114.176-2.528 2.633-2.535 2.633h-1.036c0-.629-.28-1.008-.28-1.879Zm19.363-7.457c-.59.91-1.21 1.605-1.656 2.7-.277.679-.851 2.519-.691 3.534l.441 3.39c-1.84-.991-4.199-2.89-6.836-3.109v-1.785c0-1.496.969-3.593 1.504-4.593Zm-27.543 7.832c0-.098 3.836-3.883 4.254-4.3.727-.731 1.391-1.388 2.118-2.118.382-.383.695-.695 1.082-1.078.191-.195.32-.324.515-.52.114-.113.176-.164.281-.277.07-.074.079-.078.137-.148.016-.024.043-.145.074-.114l.11.078c-.34.395-1.645 2.34-1.914 2.82-.543.993-1.336 1.868-1.817 2.786-.457.879-1.27 1.988-1.828 2.781-.125.176-.949.898-1.203 1.145-.324.324-.637 1.09-1.055 1.203-.12-.512-.754-1.657-.754-2.258m7.243-9.48-7.313 7.34c-.02-2.497 1.512-5.75 2.52-7.231Zm12.593-.231c-1.394 2.11-2.539 4.156-2.539 7.64v.848c0 1.125.489 2.192.567 3.102-1.262-.668-2.383-1.758-3.938-2.363-1.203-.465-3.156-1.395-4.808-1.395h-1.223c-.855 0-1.469.215-2.16.375l5.265-8.07Zm-6.898-2.816.035 1.437-.941-.004Zm.11-2.141.019.754h-.652c-1.86 0-4.024-.23-4.641-1.567-.86-1.867-3.414-1.246-3.445-2.757h.75c1.168 0 2.843.41 3.68.738 1.05.41 1.577 1.332 2.991 1.332h.282c.453 0 .734-.188 1.133-.285Zm-9.848-4.414.375 2.16c.668.45 1.152.516 1.882.848 1.008.46 1.051.257 1.5 1.316.438 1.05 2.418 1.692 3.973 1.715l-2.094 2.016-6.957.12c-.953.641-1.992 3.094-2.504 4.356-.746 1.824-.972 3.36-.972 5.895-1.051 1.57-3.668 3.105-4.504 4.793-.766 1.52-2.074 5.046-2.074 7.238v3.008c0 .68.543 2.656.738 3.207.352.98.805 1.793 1.3 2.652.344.602 3.16 4.582 3.102 4.852l-.254 2.918v.941c0 2.961 1.164 5.043 2.196 7.02.445.855 3.75 4.73 4.574 4.73.93 0 2.648-3.297 3.477-3.852.945.63 6.8 5.262 7.332 5.262h.093c.578 0 1.82-3.187 1.98-3.855 1.055.25 5.31 3.949 6.106 3.949.785 0 3.051-2.941 3.856-3.477.62.418 4.324 3.856 4.605 3.856h.375c.633 0 2.926-3.61 3.29-4.324.655-1.297 1.878-3.953 1.878-5.832v-2.16c0-1.672-1.117-3.887-1.82-4.946-.723-1.082-2.328-2.613-3.387-3.383-1.414-1.023-3.156-7.632-3.156-10.472v-.563c0-1.437.144-2.45.398-3.648.125-.625 1.008-2.965 1.008-3.028v-.093c0-.614-.832-.66-1.504-.66-.57-1.083-1.316-3.07-1.316-4.7v-.937c0-1.309.73-3.028 1.3-3.781.383-.504.778-.876 1.22-1.32.382-.391 1.242-.802 1.242-1.388v-.093c0-.227-.336-.567-.563-.567l-4.89-.02-3.665.118c.27-.406.844-.672.844-1.223v-.191c0-.992-3.672-.465-4.7-.465h-3.757v-1.695c0-.309.285-.203.285-.938.004-.55 0-.82.07-1.246.094-.582.114-1.894.114-2.515-.11-.16-.203-.375-.469-.375-.254 0-.922.656-1.879.656h-.379c-.312 0-2.312-1.242-3.18-1.516-1.175-.37-2.68-.555-4.242-.555h-.472c-.153 0-.301.114-.375.192m0 0" style="stroke:none;fill-rule:evenodd;fill:#151616;fill-opacity:1"></path><path d="M114.375 131c.422.797 4.234 7.375 4.234 7.523v.282c0 .011-1.421 3.015-1.601 3.48-.301.778-.938 3.219-.938 4.23l-.03 2.352.233 1.524 2.942-1.907.242-3.382v-1.125c.492.113 4.617 2.753 5.414 3.234.574.351 5.23 3.254 5.399 3.254h8.55c1.297 0 5.403-1.992 6.957-2.352-.293.434-2.824 2.75-2.824 2.914 0 .227.352.942.66.942h2.254c.836 0 5.465-3.102 6.676-3.387-.082-1.008-.98-2.332-1.465-3.047-.238-.347-1.926-2.312-2.195-2.312-.02 0-1.88 1.222-2.2 1.382-.831.415-1.722.762-2.613 1.051-1.656.543-4.203.953-6.379.953h-3.668c-1.093 0-2.75-.43-3.851-.472-1.363-.051-1.777-1.176-2.516-1.903-.707-.691-1.36-1.55-2.066-2.254-.535-.535-1.738-1.718-2.149-2.27-.613-.831-1.363-1.526-2.082-2.241-.734-.73-1.347-1.54-2.117-2.305-.754-.758-1.297-1.484-2.066-2.258-.617-.613-1.531-1.87-2.149-2.293Zm0 0" style="stroke:none;fill-rule:evenodd;fill:#fbe116;fill-opacity:1"></path><path d="m118.445 151.52-.308 3.363c-.047.597 2.543 3.195 3.105 3.57.844-.566 2.528-3.762 3.383-3.762.68 0 6.918 5.079 7.05 5.079.56 0 1.345-3.762 2.067-3.762h.375c.254 0 5.457 3.695 6.113 4.137.797-.532 3.07-3.477 3.852-3.477h.285c.34 0 3.86 3.32 4.516 3.758.75-.504 2.16-3.024 2.66-4.012.66-1.305 1.375-3.473 1.375-5.387v-.562c0-.621-.184-.735-.184-1.414-.484.328-1.535 1.648-2.297 2.222-.902.68-1.832 1.188-2.906 1.7-.957.453-2.37.906-3.469 1.132-.59.13-1.378.235-1.96.297-.536.059-1.872.407-1.872-.086v-2.164h-9.683c-.395 0-7.43-3.828-8.39-4.343ZM119.645 124.152l-3.563 5.43 3.75 4.055c3.145 0 4.86.5 6.984 1.566.977.488 1.86.91 2.723 1.508.719.504 1.914 1.355 2.606 1.719-.008-.418-.461-1.707-.575-2.246a17 17 0 0 1-.27-2.645v-.09c0-4.379 1.446-6.883 3.192-9.547Zm0 0" style="stroke:none;fill-rule:evenodd;fill:#fbe116;fill-opacity:1" data-source="https://football-logos.cc"></path><path d="M135.813 124.8c-1.454.97-3.012 5.52-3.012 8.27v.848h1.504c2.078 0 5.097 1.176 6.55 1.914.997.5 1.758.996 2.696 1.531.57.328 2.195 1.617 2.597 1.723-.226-.977-.777-2.195-1.09-3.418-.234-.941-.601-2.856-.601-3.914v-1.879c0-2.262.582-3.57 1.035-5.27ZM128.855 110.055l-5.265 8.07c.691-.16 1.305-.375 2.16-.375h1.223c1.652 0 3.605.93 4.808 1.395 1.555.605 2.676 1.699 3.938 2.363-.078-.91-.567-1.977-.567-3.102v-.844c0-3.488 1.145-5.535 2.54-7.644Zm0 0" style="stroke:none;fill-rule:evenodd;fill:#fbe116;fill-opacity:1"></path><path d="M138.16 111.934c-.535 1-1.504 3.097-1.504 4.593v1.785c2.637.22 4.996 2.118 6.836 3.11l-.441-3.39c-.16-1.012.414-2.856.691-3.532.446-1.098 1.067-1.793 1.656-2.703ZM111.09 132.227c0 1.933.726 5.683 1.691 6.394.184-.781 1.77-2.652 2.442-3.012-.22-.953-2.535-4.086-2.535-4.793v-.28c0-.423 1.253-.977 1.617-1.204.367-.227 1.011-1.187 1.215-1.602.527-1.058 1.62-2.308 2.246-3.492h-4.61c-.972 1.836-2.066 5.196-2.066 7.989M120.305 110.258c-1.008 1.48-2.54 4.734-2.52 7.23l7.313-7.34Zm0 0" style="stroke:none;fill-rule:evenodd;fill:#fbe116;fill-opacity:1"></path><path d="M130.27 105.719h.652l-.02-.758.118-1.785c-.399.097-.68.285-1.133.285h-.282c-1.414 0-1.94-.918-2.992-1.332-.836-.328-2.511-.738-3.68-.738h-.75c.032 1.511 2.587.89 3.446 2.757.617 1.336 2.781 1.57 4.64 1.57m0 0" style="stroke:none;fill-rule:evenodd;fill:#fff;fill-opacity:1"></path><path d="M117.855 119.629c0 .601.633 1.746.754 2.258.418-.114.73-.88 1.055-1.203.254-.243 1.078-.97 1.203-1.145.559-.793 1.371-1.902 1.828-2.777.48-.922 1.274-1.797 1.817-2.79.27-.48 1.574-2.425 1.914-2.82l-.11-.078c-.03-.031-.058.09-.074.114-.058.07-.066.074-.137.148-.105.113-.168.164-.28.281-.196.192-.325.32-.516.516-.387.383-.7.695-1.082 1.082-.727.726-1.391 1.383-2.118 2.113-.418.418-4.254 4.203-4.254 4.3M125.262 137.969l1.242-1.317-2.05-.882-.102.066Zm0 0" style="stroke:none;fill-rule:evenodd;fill:#fbe116;fill-opacity:1"></path><path d="M77.246 228.906c-1.3.399-2.578 1.25-3.687 2.313-2.446 2.34-3.918 5.734-1.286 8.488 1.5 1.57 3.274 1.809 4.973 1.297 1.281-.39 2.516-1.203 3.567-2.215 2.566-2.453 4.042-5.851 1.41-8.601-1.496-1.567-3.258-1.813-4.977-1.282m16.371 13.742c1.266-.347 2.621-.175 3.973.778 3.113 2.199 2.312 5.812.262 8.715-1.106 1.57-2.59 2.875-4.235 3.32-1.258.332-2.617.164-3.965-.79-3.113-2.198-2.316-5.812-.367-8.577 1.164-1.645 2.676-2.989 4.332-3.442Zm32.82 23.415 1.836.523c1.739.496 2.715 1.629 2.149 3.625-.574 2.023-2.137 2.176-3.75 1.719l-.234-.067-4.133-1.172 1.523-5.363Zm0-8.098 3.336.945c1.454.414 2.7 1.18 2.172 3.04-.465 1.64-1.726 2.023-3.156 1.62l-2.351-.664-1.782-.508 1.293-4.57Zm19.668 7.418.77-1.7.055.005 1.66 7.667-2.485-.253-2.488-.258Zm101.82-39.762 2.368-3.305c.394-.546.832-.972 1.316-1.21.82-.422 1.762-.348 2.82.414 1.712 1.226 1.325 2.742.352 4.109l-2.644 3.687-.528-.375-3.683-2.64-.32-.23Zm-3.167-8.52c.668-.425 1.469-.488 2.414.188.332.234.578.492.754.762.46.707.406 1.504 0 2.277-.086.16-.184.324-.293.48l-2.504 3.493-.371-.266-3.492-2.496 2.316-3.23c.344-.489.73-.926 1.176-1.207m12.347 1.114c-1.796-1.285-3.734-1.555-5.496-.602-.254.137-.507.301-.75.492.286-1.863-.3-3.445-1.922-4.601a7 7 0 0 0-1.011-.61c-1.14-.558-2.192-.624-3.168-.296-1.274.418-2.426 1.488-3.496 2.988l-5.285 7.383 8.78 6.285 3.169 2.27 3.683 2.632.887.633 5.441-7.605c2.024-2.836 2.528-6.57-.832-8.97m-22.68 6.633-3.046 2.957 8.797 9.066c2.101 2.164 2.37 3.84.207 5.95-2.465 2.39-4.38 1.195-5.93-.4l-8.793-9.058-3.043 2.953 8.797 9.067c3.848 3.96 7.86 3.746 11.582.133 3.7-3.598 4.047-7.66.227-11.602ZM223.34 256l-9.422-13.613-3.488 2.414 11.554 16.699 11.223-7.762-2.133-3.09Zm-12.735 2.93c.848 2.558.325 4.879-2.023 5.98-3.45 1.621-6.195-.86-7.637-3.926-1.507-3.222-1.664-6.921 1.785-8.539 1.91-.894 4.227-.285 5.329 1.43l3.718-1.754c-2.453-4.023-6.797-4.879-10.64-3.074-5.407 2.539-6.59 8.281-4.032 13.738 2.493 5.305 7.665 8.063 13.07 5.524 4.282-2.008 5.919-6.356 4.157-11.122Zm-30.75 14.84-3.328-16.223-4.156.855 4.086 19.899 13.371-2.742-.758-3.68Zm-17.32 1.949-.902-16.531-4.238.23 1.113 20.285 13.625-.746-.203-3.754Zm-16.43-1.278 3.25.336.997 4.649 4.378.453-5.113-20.95-3.512-.355-.82-.086-9.347 19.465 4.269.434 1.969-4.344Zm-10-12.109c.168-.598.258-1.137.266-1.644v-.227c-.055-2.445-1.95-3.84-4.824-4.656l-5.11-1.45-3.624-1.023-5.536 19.547 9 2.539.16.043c3.313.887 6.887.059 7.993-3.848.691-2.437.07-4.593-2-5.918 1.843-.367 3.132-1.445 3.675-3.363m-14.34-9.367-14.292-6.758-1.61 3.395 5.235 2.468-7.075 14.973 3.836 1.812 7.07-14.968 5.231 2.472ZM84.935 227.59c-2.235-2.336-4.961-3.2-7.688-2.84-2.308.305-4.621 1.484-6.617 3.398-2.18 2.09-3.496 4.637-3.692 7.211v1.309c.149 1.977.985 3.922 2.626 5.637 2.234 2.332 4.972 3.191 7.683 2.851 2.29-.293 4.559-1.445 6.496-3.297 2.242-2.14 3.586-4.71 3.801-7.285v-1.48c-.168-1.934-1.004-3.824-2.61-5.504m14.824 12.765c-1.996-1.406-4.106-1.937-6.14-1.738-2.95.293-5.74 2.121-7.798 5.035-1.375 1.946-2.164 4.075-2.28 6.141v1.125c.151 2.598 1.413 5.039 3.948 6.82 1.992 1.41 4.102 1.938 6.13 1.75 2.937-.277 5.706-2.066 7.702-4.898 1.442-2.047 2.262-4.254 2.371-6.38v-1.015c-.144-2.62-1.406-5.054-3.933-6.84m-29.61-16.09-4.515-6.699 3.894-2.625 5.211 7.735 3.114-2.102-7.586-11.246-16.84 11.352 2.37 3.515 6.962-4.691 4.515 6.703ZM199.555 229.012c2.156.258 4.238.535 6.234.828l-5.918-5.918ZM122.313 245.34a335 335 0 0 1 17.203-1.203 410 410 0 0 1 18.355-.407c6.305 0 12.453.141 18.356.407 6.05.273 11.824.68 17.21 1.203a242.392 242.392 0 0 1 11.84 1.41L206.36 235l.371-4.027c-6.652-1.02-14.277-1.84-22.59-2.399-8.18-.55-17.027-.851-26.269-.851-9.238 0-18.086.3-26.262.851-8.316.559-15.937 1.38-22.593 2.399l.367 4.027 1.082 11.754c1.742-.242 7.62-1.047 11.847-1.414M116.133 229.02l-.317-5.098-5.93 5.93c2-.297 4.087-.575 6.247-.832m0 0" style="stroke:none;fill-rule:evenodd;fill:#fff;fill-opacity:1"></path><path d="m116.738 243.5 2.367-.285-1.02-8.508 2.872-.344-.246-1.996-8.07.969.242 1.996 2.832-.344ZM122.95 232.09l.84 10.547 2.378-.196-.348-4.39 3.922-.313.356 4.39 2.375-.187-.836-10.546-2.383.19.328 4.067-3.93.313-.324-4.063ZM141.074 235.047l-3.883.187-.109-2.195 4.125-.2-.098-1.96-6.507.32.515 10.567 6.727-.332-.098-1.961-4.344.214-.12-2.507 3.89-.188ZM153.879 241.094l2.383-.051-.098-4.254 3.797-.09-.043-1.941-3.8.086-.055-2.418 4.062-.09-.043-1.965-6.45.152ZM163.504 241.293l6.59.152.047-2.007-4.207-.102.191-8.563-2.387-.054ZM179.25 235.39l-3.887-.175.098-2.195 4.125.187.09-1.957-6.508-.3-.484 10.566 6.722.308.09-1.96-4.34-.2.114-2.508 3.89.18ZM189.375 236.063l-3.883-.29.164-2.191 4.117.305.145-1.953-6.496-.485-.777 10.551 6.707.492.152-1.953-4.34-.324.184-2.504 3.886.289ZM194.75 242.996l2.371.246.906-8.52 2.871.305.211-1.996-8.078-.86-.219 2 2.84.298Zm0 0" style="stroke:none;fill-rule:evenodd;fill:#151616;fill-opacity:1"></path><path d="M251.066 172.195a93.5 93.5 0 0 1-2.636 11.95l33.105 11.664.086-.278q.112.012.23.012h.825c.273.187.539.309.828.394.406.426.976.696 1.613.696h.774q-.413 1.354-.848 2.691l-.703 2.145-2.125-.746-37.23-13.125-2.016-.707.644-2.024a90 90 0 0 0 3.09-13.324 91 91 0 0 0 1.04-13.719c0-24.82-10.063-47.285-26.325-63.55-16.262-16.262-38.73-26.32-63.547-26.32-24.816 0-47.281 10.058-63.543 26.32-16.27 16.269-26.332 38.738-26.332 63.546h.008v.004c0 4.274.293 8.453.86 12.52a89 89 0 0 0 2.585 12.219l.567 1.992-1.954.691-37.269 13.14-2.168.762-.676-2.203-.183-.605c.41-.18.77-.477 1.113-.945.281-.11.543-.274.77-.5.94-.942 1.398-1.477 1.601-2.329.086.297.168.598.258.895l33.152-11.688a95 95 0 0 1-2.16-10.824 96 96 0 0 1-.91-13.125v-.004h.008c0-26.039 10.55-49.61 27.605-66.664 17.063-17.062 40.637-27.617 66.668-27.617 26.035 0 49.606 10.555 66.672 27.617 17.059 17.059 27.613 40.633 27.613 66.668 0 4.88-.375 9.684-1.09 14.371m0 0" style="stroke:none;fill-rule:evenodd;fill:#d82c23;fill-opacity:1"></path><path d="m37.563 145.652 2.816-15.992 4.133.727-1.758 9.996 3.078.543 1.633-9.27 3.945.696-1.633 9.27 3.813.667 1.808-10.293 4.375.774-2.867 16.289Zm4.671-23.043 4.008-10.636c.668-1.774 1.625-2.97 2.856-3.586 1.234-.621 2.504-.684 3.797-.196q1.636.614 2.41 2.07.525.969.488 2.446c.812-1.203 1.719-1.965 2.73-2.297 1.012-.328 2.098-.273 3.266.168.953.356 1.723.902 2.32 1.629a5.3 5.3 0 0 1 1.121 2.5q.136.872-.214 2.383c-.317 1.344-.551 2.222-.711 2.644l-3.692 9.805Zm9.371-3.004.934-2.476c.336-.887.41-1.567.238-2.024-.18-.464-.55-.804-1.129-1.023-.535-.203-1.02-.184-1.449.047-.433.234-.816.785-1.14 1.644l-.95 2.516Zm7.211 2.72 1.09-2.9c.371-.976.453-1.73.262-2.265-.2-.531-.582-.906-1.172-1.129-.539-.203-1.05-.172-1.527.102-.48.273-.91.91-1.29 1.902l-1.085 2.887ZM52.27 98.8l6.312-9.457q1.574-2.356 3.594-2.844c1.34-.328 2.586-.102 3.738.664q1.451.97 1.883 2.563c.195.71.164 1.543-.082 2.492 1.066-.989 2.12-1.524 3.183-1.617 1.051-.098 2.102.203 3.141.894.848.567 1.473 1.274 1.89 2.117.415.848.587 1.742.528 2.688q-.058.88-.75 2.273c-.61 1.239-1.035 2.04-1.285 2.414l-5.817 8.715Zm9.808-.809 1.473-2.203c.523-.785.75-1.43.687-1.914-.066-.492-.36-.91-.87-1.254q-.715-.475-1.423-.277-.713.194-1.48 1.344l-1.492 2.234Zm6.41 4.278 1.719-2.575c.578-.867.832-1.586.762-2.148s-.36-1.016-.88-1.367c-.484-.32-.987-.403-1.519-.246-.527.16-1.09.68-1.68 1.566l-1.71 2.563Zm6.953-13.848 3.77-4.371q1.132.848 2.059.945 1.504.16 2.722-1.086.908-.925.965-1.851.051-.931-.52-1.493c-.363-.351-.843-.515-1.44-.48-.599.035-1.59.512-2.981 1.418-2.286 1.488-4.176 2.285-5.68 2.402-1.504.13-2.809-.347-3.906-1.418-.715-.703-1.196-1.582-1.426-2.625q-.352-1.57.332-3.363.684-1.801 2.828-3.988 2.626-2.693 5.012-3.125c1.586-.285 3.195.191 4.832 1.437l-3.75 4.317c-.742-.516-1.43-.743-2.055-.676q-.948.1-1.844 1.015c-.496.504-.757.993-.796 1.454q-.056.696.406 1.148c.222.219.527.305.906.277.383-.015 1.023-.336 1.934-.941 2.257-1.496 4-2.45 5.218-2.856 1.223-.41 2.325-.507 3.309-.269q1.47.347 2.625 1.473c.902.879 1.484 1.941 1.766 3.18.265 1.242.168 2.5-.313 3.78-.484 1.278-1.387 2.59-2.719 3.954-2.332 2.382-4.41 3.586-6.226 3.61q-2.725.024-5.028-1.868m8.434-26.024 12.29-8.605 2.425 3.46-7.309 5.114 1.969 2.809 6.246-4.375 2.281 3.261-6.246 4.372 4.598 6.558-4.992 3.492Zm18.734-12.105 5.563-2.398 5.855 13.609 8.72-3.75 1.905 4.434-14.289 6.148Zm20.153-8.117 15.8-3.739.965 4.083-9.875 2.335.72 3.043 9.155-2.164.926 3.899-9.16 2.164.89 3.766 10.172-2.407 1.02 4.324-16.094 3.805Zm23.234-4.598 16.227-.57.148 4.191-10.144.36.113 3.125 9.398-.329.14 4-9.401.333.14 3.867 10.442-.371.156 4.441-16.528.586Zm22.492-.348 18.176 3.208-.84 4.78-6.105-1.077-2.567 14.562-5.968-1.055 2.566-14.558-6.105-1.078Zm46.434 14.278 5.414 2.726-5.262 10.45a9.8 9.8 0 0 1-1.957 2.687 7.1 7.1 0 0 1-2.738 1.652c-1.04.344-2 .461-2.899.364-1.25-.145-2.613-.582-4.085-1.325-.856-.43-1.754-.96-2.704-1.585-.949-.625-1.68-1.29-2.175-1.985q-.752-1.047-1.098-2.445c-.238-.938-.277-1.809-.137-2.606.227-1.28.551-2.355.989-3.218l5.257-10.45 5.418 2.727-5.386 10.7q-.72 1.434-.332 2.636c.257.809.855 1.445 1.796 1.918.926.465 1.79.57 2.59.305q1.189-.394 1.926-1.852Zm12.566 7.402 4.367 3.617-1.25 13.047 6.918-8.351 4.418 3.66-12.53 15.12-4.415-3.651 1.238-12.98-6.879 8.308-4.394-3.64Zm19.36 17.496 4.027 4.57-14.738 12.981-4.024-4.566Zm8.273 9.324 9.672 15.723-4.133 2.543-3.25-5.281-12.594 7.746-3.175-5.164 12.593-7.746-3.246-5.281Zm12.578 21.543 5.73 15.196-3.925 1.48-3.582-9.496-2.93 1.102 3.324 8.804-3.75 1.414-3.32-8.804-3.617 1.367 3.691 9.777-4.16 1.567-5.84-15.477Zm7.805 22.485 1.457 8.902c.289 1.75.285 3.211-.012 4.367-.304 1.157-.836 2.16-1.613 3.016q-1.164 1.278-2.856 2.039c-1.128.516-2.351.875-3.671 1.094q-3.112.512-4.938.082-1.827-.421-3.191-1.492-1.365-1.068-1.98-2.446-.858-1.881-1.118-3.48l-1.46-8.903Zm-3.406 6.703-10.582 1.734.242 1.473c.207 1.254.492 2.121.851 2.613q.553.722 1.657 1.004c.746.192 1.89.156 3.445-.101 2.047-.332 3.398-.899 4.043-1.696q.978-1.194.59-3.531Zm0 0" style="stroke:none;fill-rule:evenodd;fill:#fff;fill-opacity:1" data-source="https://football-logos.cc"></path><!-- source: https://football-logos.cc --></svg>