<svg xmlns="http://www.w3.org/2000/svg" xmlns:xlink="http://www.w3.org/1999/xlink" viewBox="0.04 0 114.88 149"><!-- Source: https://football-logos.cc --><defs data-source="https://football-logos.cc"><linearGradient id="f" x1="209.919" x2="209.919" y1="220.784" y2="292.925" gradientTransform="matrix(.37676 0 0 .37503 .043 -71.215)" gradientUnits="userSpaceOnUse"><stop offset=".4" style="stop-color:red;stop-opacity:1"></stop><stop offset="1" style="stop-color:#d42321;stop-opacity:1"></stop></linearGradient><linearGradient id="c" x1="210.362" x2="209.107" y1="255.575" y2="219.643" gradientTransform="matrix(.37676 0 0 .37503 .043 -71.215)" gradientUnits="userSpaceOnUse"><stop offset="0" style="stop-color:#fff;stop-opacity:1"></stop><stop offset="1" style="stop-color:#fff;stop-opacity:.25098"></stop></linearGradient><linearGradient id="i" x1="82.368" x2="82.368" y1="224.937" y2="288.776" gradientTransform="matrix(.37676 0 0 .37503 .043 -71.215)" gradientUnits="userSpaceOnUse"><stop offset="0" style="stop-color:#002a91;stop-opacity:1"></stop><stop offset=".8" style="stop-color:#002672;stop-opacity:1"></stop></linearGradient><linearGradient id="e" x1="82.91" x2="82.066" y1="258.758" y2="234.593" gradientTransform="matrix(.37676 0 0 .37503 .043 -71.215)" gradientUnits="userSpaceOnUse"><stop offset="0" style="stop-color:#fff;stop-opacity:1"></stop><stop offset="1" style="stop-color:#fff;stop-opacity:.25098"></stop></linearGradient><clipPath id="b"><path d="M0 0h115v149H0z"></path></clipPath><clipPath id="d"><path d="M0 0h115v149H0z"></path></clipPath><mask id="h"><g filter="url(#a)"><path d="M0 0h115v149H0z" style="fill:#000;fill-opacity:.4;stroke:none"></path></g></mask><mask id="k"><g filter="url(#a)"><path d="M0 0h115v149H0z" style="fill:#000;fill-opacity:.25098;stroke:none"></path></g></mask><g id="g" clip-path="url(#b)"><path d="M56.145 25.016h.148c5.352-.188 45.777-1.575 45.777-1.575.68-.039 1.356-.527 1.356-1.39v-8.664c0-.973-.828-1.797-1.809-1.797H56.633c-.98 0-1.809.824-1.809 1.797v13.015c0-.113.04-1.273 1.32-1.386m0 0" style="stroke:none;fill-rule:nonzero;fill:url(#c)"></path></g><g id="j" clip-path="url(#d)"><path d="m50.758 18.414-2.79 6.188c-.077.152-.413.714-1.167.714-.188 0-2.563.075-2.563.075-.453 0-.601.449-.601.449l2.41-5.664C46.875 18.188 48.195 18 49.172 18c.566.078 1.281.266 1.586.414m-7.313 7.387-4.707-7.613c-.3-.075-1.054-.223-1.62-.223-1.735 0-2.677.637-3.657 1.687l-4.707 5.102.375.562c.152.223.492.563 1.133.563.222 0 2.484-.078 2.672-.078.566 0 .98.226 1.168.527l-.829-1.238 3.204-3.414 2.148 3.375c.414.488.98.527 1.09.527.113 0 2.976-.113 3.09-.113a.74.74 0 0 1 .64.336M27.66 13.125c-2.488 0-2.902 1.313-2.902 2.55v11.329c0-.453.34-.938.941-.977.418 0 1.586-.074 1.887-.074a.985.985 0 0 0 .98-.976V13.238a3.6 3.6 0 0 0-.906-.113m-8.25 10.54-2.789-.524c-.902-.153-1.469-.375-1.469-.864 0-.488.602-.863 2.036-.863 1.394 0 2.636.148 3.425.148 1.02 0 2.114-.449 2.114-2.472 0-.262-.04-.527-.079-.79-1.543-.187-4.332-.488-6.628-.222-3.055.336-4.598 2.137-4.598 4.313 0 1.125.488 2.175 1.469 2.96.754.489 1.468.676 2.261.825.641.113 2.07.187 3.125.152.34 0 2.828-.074 3.356-.113 1.242-.04 1.922 1.012 1.883 2.101v-.453c.039-2.062-1.207-3.672-4.106-4.199m0 0" style="stroke:none;fill-rule:nonzero;fill:url(#e)"></path></g><filter id="a" width="100%" height="100%" x="0%" y="0%" filterUnits="objectBoundingBox"><feColorMatrix in="SourceGraphic" values="0 0 0 0 1 0 0 0 0 1 0 0 0 0 1 0 0 0 1 0"></feColorMatrix></filter></defs><path d="M57.5 149C25.813 149 .043 122.934.043 90.945V0h114.875v90.945C114.957 122.934 89.188 149 57.5 149" style="stroke:none;fill-rule:nonzero;fill:#fff;fill-opacity:1"></path><path d="M111.68 8.965V3.227H3.32v87.718c0 30.227 24.301 54.793 54.22 54.793 29.913 0 54.214-24.566 54.214-54.793-.04-.523-.074-67.992-.074-81.98M57.5 142.512c-28.105 0-50.937-23.14-50.937-51.567V6.488h101.875v84.457c0 28.426-22.833 51.567-50.938 51.567" style="stroke:none;fill-rule:nonzero;fill:#8d8e8e;fill-opacity:1"></path><path d="M55.918 130.473c-1.355 0-2.488-1.086-2.488-2.473v-13.504h9.722v3.715h-5.726v2.398h5.199v3.715h-5.2v6.149Zm-14.844-2.438a2.476 2.476 0 0 0 2.485 2.477h7.16v-3.676h-5.653v-2.477h5.2v-3.71h-5.2v-2.403h5.692v-3.71h-9.684Zm33.492 2.438v-3.676h-4.972v-12.262h-3.992v13.5a2.476 2.476 0 0 0 2.484 2.477ZM58.441 96.008c0 1.648-1.355 3-3.011 3-1.66 0-3.016-1.352-3.016-3 0-1.649 1.356-3 3.016-3a2.99 2.99 0 0 1 3.011 3m3.543-2.926a2.687 2.687 0 0 0-2.675 2.7c0 1.5 1.207 2.702 2.675 2.702 1.47 0 2.711-1.203 2.711-2.703s-1.242-2.699-2.71-2.699m-.266 6.078a2.613 2.613 0 0 0-2.637 2.625 2.616 2.616 0 0 0 2.637 2.625 2.616 2.616 0 0 0 2.636-2.625 2.613 2.613 0 0 0-2.636-2.625m5.726-6.64a2.22 2.22 0 0 0-2.222 2.214c0 1.2 1.02 2.211 2.222 2.211 1.207 0 2.223-1.011 2.223-2.21 0-1.204-1.016-2.215-2.223-2.215m3.957-1.989a1.85 1.85 0 0 0-1.847 1.84c0 1.012.832 1.836 1.847 1.836a1.846 1.846 0 0 0 1.848-1.836 1.85 1.85 0 0 0-1.848-1.84m2.637-2.437c-.789 0-1.469.64-1.469 1.465 0 .824.64 1.46 1.47 1.46.827 0 1.468-.636 1.468-1.46 0-.825-.676-1.465-1.469-1.465m0 5.402c-.789 0-1.394.637-1.394 1.387s.64 1.387 1.394 1.387 1.395-.637 1.395-1.387-.602-1.387-1.395-1.387m.566 4.387c-.753 0-1.355.601-1.355 1.351s.602 1.348 1.355 1.348c.754 0 1.356-.598 1.356-1.348s-.602-1.351-1.356-1.351m1.622-2.324a1.09 1.09 0 0 0-1.094 1.086 1.091 1.091 0 0 0 2.183 0 1.09 1.09 0 0 0-1.09-1.086m.942-2.438c-.527 0-.98.45-.98.973 0 .527.453.976.98.976s.98-.449.98-.976a.995.995 0 0 0-.98-.973m-1.32-2.215c-.602 0-1.055.489-1.055 1.051 0 .563.492 1.05 1.055 1.05.566 0 1.054-.487 1.054-1.05 0-.562-.449-1.05-1.054-1.05m1.547-2.962a.97.97 0 0 0-.98.977c0 .562.413.973.98.973.562 0 .976-.41.976-.973a.967.967 0 0 0-.976-.977m.601 2.438a.71.71 0 0 0-.715.71c0 .376.34.716.715.716s.715-.34.715-.715-.34-.711-.715-.711m-.039-4.5a.674.674 0 1 0 0 1.347c.379 0 .68-.296.68-.671s-.34-.676-.68-.676m-2.184-.301a1.17 1.17 0 0 0-1.168 1.164c0 .637.528 1.16 1.168 1.16a1.17 1.17 0 0 0 1.168-1.16 1.17 1.17 0 0 0-1.168-1.164m1.317-2.25a.915.915 0 0 0-.903.898c0 .489.415.903.903.903a.916.916 0 0 0 .906-.903.89.89 0 0 0-.906-.898m-.188-1.988a.59.59 0 0 0-.601.601c0 .336.261.598.601.598s.606-.262.606-.598a.595.595 0 0 0-.606-.601M67.11 97.77a2.184 2.184 0 0 0-2.187 2.175c0 1.2.98 2.176 2.187 2.176a2.183 2.183 0 0 0 2.184-2.176c0-1.199-.98-2.175-2.184-2.175M55.504 99.87a2.775 2.775 0 1 0 0 5.55 2.78 2.78 0 0 0 2.789-2.776c0-1.536-1.281-2.774-2.79-2.774m3.013 5.586c-1.317 0-2.41 1.09-2.41 2.402s1.093 2.399 2.41 2.399c1.32 0 2.414-1.086 2.414-2.399s-1.094-2.402-2.414-2.402m5.351-.71a2.22 2.22 0 0 0-2.222 2.21c0 1.203 1.015 2.215 2.222 2.215s2.223-1.012 2.223-2.215c0-1.2-.98-2.21-2.223-2.21m4.598-2.024a2.063 2.063 0 0 0-2.074 2.062c0 1.125.941 2.063 2.074 2.063 1.129 0 2.07-.938 2.07-2.063a2.06 2.06 0 0 0-2.07-2.062m3.617-2.438c-.98 0-1.734.785-1.734 1.723 0 .937.793 1.726 1.734 1.726s1.73-.789 1.73-1.726c0-.938-.753-1.723-1.73-1.723m-.906-4.578a1.805 1.805 0 0 0-1.809 1.8c0 .977.828 1.802 1.809 1.802.98 0 1.808-.825 1.808-1.801 0-.977-.789-1.801-1.808-1.801M64.547 84.418c-1.66 0-3.016 1.352-3.016 3a3.017 3.017 0 0 0 3.016 3.004 3.017 3.017 0 0 0 3.012-3.004c0-1.648-1.356-3-3.012-3m-3.504-5.211c-1.473 0-2.715 1.2-2.715 2.7s1.207 2.698 2.715 2.698c1.504 0 2.71-1.199 2.71-2.699s-1.206-2.699-2.71-2.699m5.387-2.738a2.616 2.616 0 0 0-2.637 2.625 2.613 2.613 0 0 0 2.637 2.625 2.613 2.613 0 0 0 2.636-2.625c0-1.461-1.207-2.625-2.636-2.625m-9.004-1.012a2.22 2.22 0 0 0-2.223 2.211c0 1.2 1.016 2.215 2.223 2.215 1.203 0 2.222-1.016 2.222-2.215 0-1.2-.98-2.211-2.222-2.211m-4.031-1.84c-1.02 0-1.848.828-1.848 1.84s.828 1.836 1.848 1.836a1.843 1.843 0 0 0 1.843-1.836c0-1.012-.828-1.84-1.843-1.84m-3.77-.449c-.79 0-1.469.637-1.469 1.465 0 .824.64 1.46 1.469 1.46.828 0 1.469-.636 1.469-1.46 0-.828-.676-1.465-1.469-1.465m4.598-2.625c-.793 0-1.395.637-1.395 1.387s.64 1.39 1.395 1.39c.754 0 1.394-.64 1.394-1.39s-.605-1.387-1.394-1.387m3.504-2.664c-.754 0-1.356.601-1.356 1.351s.602 1.352 1.356 1.352c.753 0 1.355-.602 1.355-1.352s-.566-1.351-1.355-1.351m-3.051.187c-.606 0-1.094.489-1.094 1.09a1.09 1.09 0 0 0 1.094 1.086 1.09 1.09 0 0 0 1.09-1.086 1.09 1.09 0 0 0-1.09-1.09M52 68.668c-.527 0-.98.45-.98.977 0 .523.453.972.98.972s.98-.449.98-.972a.973.973 0 0 0-.98-.977m-1.207 2.102c-.602 0-1.055.488-1.055 1.05s.489 1.047 1.055 1.047 1.055-.484 1.055-1.047-.489-1.05-1.055-1.05m-3.43.3a.966.966 0 0 0-.976.973c0 .562.449.977.976.977.528 0 .98-.415.98-.977a.97.97 0 0 0-.98-.973m1.621-1.351a.71.71 0 0 0-.714.71c0 .376.34.716.714.716.38 0 .715-.34.715-.715a.736.736 0 0 0-.715-.711m-3.957 2.363a.674.674 0 1 0 0 1.348.674.674 0 1 0 0-1.348m1.282 1.273c-.641 0-1.168.528-1.168 1.165 0 .636.527 1.16 1.168 1.16a1.17 1.17 0 0 0 1.168-1.16c0-.637-.528-1.165-1.168-1.165m-2.864.375a.916.916 0 0 0-.902.903c0 .484.414.898.902.898a.916.916 0 0 0 .907-.898.916.916 0 0 0-.907-.903m-1.883 1.614a.59.59 0 0 0-.601.601c0 .336.262.598.602.598s.601-.262.601-.598a.59.59 0 0 0-.602-.601m20.57-2.137a2.18 2.18 0 0 0-2.183 2.176c0 1.199.98 2.172 2.184 2.172a2.18 2.18 0 0 0 2.187-2.172c0-1.203-.98-2.176-2.187-2.176m8.14 8.063a2.775 2.775 0 1 0 0 5.55 2.775 2.775 0 0 0 2.786-2.777c0-1.535-1.278-2.773-2.786-2.773m3.012-4.84c-1.316 0-2.41 1.09-2.41 2.402s1.094 2.398 2.41 2.398c1.32 0 2.414-1.085 2.414-2.398 0-1.312-1.094-2.402-2.414-2.402m-3.426-4.012a2.22 2.22 0 0 0-2.222 2.215c0 1.199 1.015 2.21 2.222 2.21 1.204 0 2.223-1.011 2.223-2.21 0-1.203-1.02-2.215-2.223-2.215m-4.222-2.7a2.06 2.06 0 0 0-2.07 2.063c0 1.125.94 2.063 2.07 2.063 1.133 0 2.074-.938 2.074-2.063a2.063 2.063 0 0 0-2.074-2.062m-4.18-1.387c-.98 0-1.734.785-1.734 1.723 0 .937.793 1.726 1.734 1.726s1.73-.789 1.73-1.726c0-.938-.789-1.723-1.73-1.723m-3.504 2.926c-1.02 0-1.808.824-1.808 1.797 0 .976.828 1.8 1.808 1.8s1.809-.824 1.809-1.8c0-.973-.793-1.797-1.809-1.797" style="stroke:none;fill-rule:nonzero;fill:#283271;fill-opacity:1"></path><path d="M52.527 80.855c-1.66 0-3.015 1.352-3.015 3 0 1.653 1.355 3 3.015 3a3.013 3.013 0 0 0 3.012-3c0-1.648-1.355-3-3.012-3m-3.09 6.079c-1.468 0-2.714 1.199-2.714 2.699s1.207 2.699 2.715 2.699 2.71-1.2 2.71-2.7-1.203-2.698-2.71-2.698m-5.126-3.153a2.616 2.616 0 0 0-2.636 2.625 2.613 2.613 0 0 0 2.636 2.625 2.613 2.613 0 0 0 2.637-2.625 2.616 2.616 0 0 0-2.636-2.625m3.277 8.813a2.2 2.2 0 0 0-2.223 2.215c0 1.238 1.02 2.21 2.223 2.21a2.22 2.22 0 0 0 2.222-2.21c0-1.2-.976-2.215-2.222-2.215m.078 5.027c-1.02 0-1.848.824-1.848 1.836 0 1.016.828 1.84 1.848 1.84a1.844 1.844 0 0 0 1.844-1.84 1.843 1.843 0 0 0-1.844-1.836m1.168 4.05c-.793 0-1.473.638-1.473 1.462 0 .789.64 1.465 1.473 1.465.828 0 1.469-.641 1.469-1.465-.04-.824-.68-1.461-1.47-1.461m-4.67-2.59a1.39 1.39 0 0 0-1.395 1.39c0 .75.64 1.387 1.394 1.387s1.39-.636 1.39-1.386-.6-1.391-1.39-1.391m-4.07-1.687c-.754 0-1.395.601-1.395 1.351s.602 1.352 1.395 1.352c.789 0 1.394-.602 1.394-1.352s-.64-1.351-1.394-1.351m1.468 3c-.601 0-1.093.488-1.093 1.09a1.093 1.093 0 0 0 2.188 0c0-.602-.493-1.09-1.094-1.09m1.734 2.14c-.527 0-.98.45-.98.973 0 .562.453.976.98.976s.98-.449.98-.976a.995.995 0 0 0-.98-.973m2.523-.078c-.601 0-1.054.488-1.054 1.05s.488 1.052 1.054 1.052 1.055-.489 1.055-1.051c0-.563-.488-1.051-1.055-1.051m1.883 2.926a.973.973 0 0 0-.98.976c0 .563.453.977.98.977s.98-.414.98-.977a.973.973 0 0 0-.98-.976m-2.183-.375a.712.712 0 1 0 0 1.426.74.74 0 0 0 .714-.711.74.74 0 0 0-.714-.715m3.957 2.328a.674.674 0 1 0 0 1.348.674.674 0 1 0 0-1.348m.902-2.477a1.17 1.17 0 0 0-1.168 1.16c0 .641.527 1.165 1.168 1.165a1.17 1.17 0 0 0 1.168-1.164 1.17 1.17 0 0 0-1.168-1.16m1.508 2.663a.913.913 0 0 0-.907.899c0 .488.415.898.907.898.488 0 .902-.41.902-.898a.887.887 0 0 0-.902-.899m2.11 1.274a.59.59 0 0 0-.602.601c0 .336.261.598.601.598s.602-.262.602-.598a.59.59 0 0 0-.602-.601M43.22 89.747a2.18 2.18 0 0 0-2.184 2.175c0 1.2.98 2.172 2.184 2.172a2.18 2.18 0 0 0 2.187-2.172c0-1.203-.98-2.176-2.187-2.176m3.468-11.926a2.776 2.776 0 1 0 0 5.55 2.78 2.78 0 0 0 2.79-2.776c0-1.54-1.282-2.774-2.79-2.774m-6.066.375c-1.32 0-2.41 1.086-2.41 2.399a2.42 2.42 0 0 0 2.41 2.402c1.32 0 2.41-1.09 2.41-2.402a2.396 2.396 0 0 0-2.41-2.399m-1.883 5.211a2.22 2.22 0 0 0-2.222 2.215c0 1.2 1.015 2.211 2.222 2.211 1.203 0 2.223-1.012 2.223-2.21 0-1.204-.98-2.216-2.223-2.216m-.414 5.25a2.063 2.063 0 0 0-2.074 2.063c0 1.125.941 2.062 2.074 2.062 1.13 0 2.07-.937 2.07-2.062a2.06 2.06 0 0 0-2.07-2.063m.602 4.801c-.98 0-1.735.79-1.735 1.727s.793 1.722 1.735 1.722c.941 0 1.734-.785 1.734-1.722 0-.938-.793-1.727-1.734-1.727m4.37 1.426c-1.019 0-1.808.824-1.808 1.8 0 1.012.828 1.801 1.809 1.801a1.81 1.81 0 0 0 1.808-1.8c0-.977-.792-1.801-1.808-1.801M11.422 60.605c0 .375.3.711.715.711h90.726a.74.74 0 0 0 .715-.71.74.74 0 0 0-.715-.715H12.137c-.414 0-.715.3-.715.714M21.027 54.191l-.261 1.2c-.075.3-.227.375-.453.375h-4.106c-1.168 0-1.848-.598-1.848-1.91v-9.602c0-.262.114-.336.454-.336h1.433c.336 0 .45.074.45.336v9.562h3.956c.301 0 .453.075.375.375M28.902 54.078l-.148 1.39c0 .188-.078.262-.3.262H23.93c-1.168 0-1.844-.601-1.844-1.914v-9.562c0-.227.074-.336.336-.336h6.18c.187 0 .3.074.265.262l-.152 1.386c0 .188-.113.262-.3.262h-3.919v2.965h3.617c.227 0 .262.074.262.262l-.148 1.386c0 .149-.114.227-.301.227h-3.43v3.113h4.18c.191.035.265.11.226.297M29.883 55.469c1.055-4.016 2.074-7.953 3.09-11.102.074-.3.3-.449.64-.449h1.996c.414 0 .567.148.68.45.98 3.112 2.07 7.085 3.125 11.1.04.188-.035.262-.262.262h-1.808c-.266 0-.414-.113-.414-.261l-.453-2.063H32.82c-.148.711-.3 1.387-.449 2.098-.039.152-.152.226-.379.226H30.11c-.226 0-.3-.074-.226-.261m6.14-3.903c-.34-1.761-.867-3.898-1.355-5.699h-.113c-.453 1.801-1.016 3.938-1.317 5.7ZM46.086 51.078c-1.02 0-1.547-.562-1.547-1.535v-.113c0-.188.074-.301.266-.301h3.504c.187 0 .3.074.3.262v5.14c0 .41-.113.637-.414.75-.832.375-2.222.598-3.504.598-3.09 0-4.484-1.238-4.484-3.973v-4.05c0-2.926 1.621-4.126 4.746-4.126 1.055 0 2.149.149 2.863.336.227.075.301.149.301.414v1.348c0 .227-.148.262-.375.188-.68-.188-1.656-.301-2.601-.301-1.504 0-2.559.488-2.559 2.363v3.563c0 .902.148 1.39.45 1.765.265.336.827.524 1.66.524.601 0 1.316-.075 1.656-.188v-2.664ZM51.586 54.98c-.719-.636-1.055-1.687-1.055-3.113V44.18c0-.153.074-.262.262-.262h1.848c.187 0 .261.074.261.262v7.46c0 .715.078 1.352.414 1.727.266.336.754.563 1.395.563.64 0 1.133-.188 1.434-.563.34-.414.375-1.012.375-1.726V44.18c0-.153.113-.262.3-.262h1.848c.187 0 .266.11.266.262v7.687c0 1.461-.38 2.512-1.168 3.149-.72.601-1.7.902-3.055.902-1.395 0-2.45-.3-3.125-.938M67.785 54.078l-.148 1.39c0 .188-.078.262-.305.262h-4.52c-1.167 0-1.847-.601-1.847-1.914v-9.562c0-.227.078-.336.34-.336h6.18c.187 0 .3.074.261.262l-.148 1.386c0 .188-.114.262-.301.262h-3.918v2.965h3.617c.223 0 .262.074.262.262l-.149 1.386c0 .149-.113.227-.304.227h-3.426v3.113h4.18c.152.035.226.11.226.297M73.89 54.906c-.753-.64-1.167-1.652-1.167-2.965v-4.273c0-1.5.562-2.55 1.543-3.227.714-.488 1.695-.71 2.824-.71 1.133 0 2.187.261 2.941.785.903.636 1.43 1.687 1.43 3.152v4.273c0 1.465-.488 2.477-1.43 3.153-.715.523-1.734.785-2.976.785-1.282.039-2.41-.3-3.164-.973m4.632-1.426c.375-.375.567-1.011.567-1.761v-3.79c0-.863-.227-1.386-.567-1.761-.3-.3-.793-.453-1.394-.453-.602 0-1.094.152-1.43.453-.379.375-.566.898-.566 1.762v3.789c0 .75.187 1.386.566 1.761.301.301.828.45 1.43.45.601 0 1.094-.149 1.394-.45M91.71 44.18v11.324c0 .152-.112.262-.3.262h-1.207c-.34 0-.488-.149-.601-.336l-4.223-7.313h-.074v7.352c0 .187-.075.261-.301.261h-.113c-1.094 0-1.696-.601-1.696-1.914V44.18c0-.153.075-.262.227-.262h1.355c.266 0 .414.11.528.297l4.218 7.203h.079v-7.277c0-.188.074-.262.226-.262h1.582c.227.039.3.113.3.3M100.64 54.078l-.152 1.39c0 .188-.074.262-.3.262h-4.52c-1.168 0-1.848-.601-1.848-1.914v-9.562c0-.227.075-.336.34-.336h6.18c.187 0 .3.074.262.262l-.153 1.386c0 .188-.11.262-.3.262H96.23v2.965h3.618c.226 0 .265.074.265.262l-.152 1.386c0 .149-.113.227-.3.227h-3.43v3.113h4.144c.188.035.266.11.266.297" style="stroke:none;fill-rule:nonzero;fill:#8d8e8e;fill-opacity:1"></path><path d="M101.617 11.59H56.633c-.98 0-1.809.824-1.809 1.797v23.441c0 .977.828 1.8 1.809 1.8h44.984c.98 0 1.809-.823 1.809-1.8V13.387c0-.973-.79-1.797-1.809-1.797m0 0" style="stroke:none;fill-rule:nonzero;fill:url(#f)" data-source="https://football-logos.cc"></path><use xlink:href="#g" mask="url(#h)"></use><path d="M38.586 36.715c.34.152.98.375 1.809.375 1.433.039 2.187-.488 2.75-1.762l7.613-16.875c-.305-.152-1.02-.34-1.586-.375-.977 0-2.297.188-3.125 2.172l-2.488 5.777-4.82-7.8c-.301-.075-1.055-.227-1.622-.227-1.734 0-2.676.64-3.656 1.688l-4.707 5.101 3.766 5.926c.718 1.086 1.62 1.648 3.128 1.648.98 0 1.809-.222 2.184-.41l-4.559-6.824 3.204-3.414 5.273 8.25ZM28.602 30.3c0 1.238-.489 1.953-2.938 1.953-.34 0-.602 0-.867-.078v-16.5c0-1.239.414-2.551 2.902-2.551.301 0 .64.04.903.074Zm-5.047-2.473c0 2.324-1.508 4.012-4.637 4.348-2.223.265-5.5-.035-7.043-.223a6 6 0 0 1-.078-.824c0-2.027 1.094-2.477 2.148-2.477s2.75.188 4.032.188c1.394 0 1.808-.488 1.808-.899 0-.562-.562-.828-1.62-1.015l-2.938-.563c-2.45-.449-3.766-2.136-3.766-3.937 0-2.176 1.543-3.973 4.594-4.313 2.3-.261 5.086.04 6.633.227.039.262.074.488.074.785 0 2.027-1.055 2.477-2.11 2.477-.793 0-2.035-.149-3.43-.149-1.429 0-2.035.41-2.035.86 0 .488.567.714 1.473.863l2.824.527c2.825.488 4.07 2.098 4.07 4.125m0 0" style="stroke:none;fill-rule:nonzero;fill:url(#i)"></path><use xlink:href="#j" mask="url(#k)"></use><path d="M73.438 25.277c0 4.164-2.938 6.637-6.18 6.637-1.922 0-3.504-.898-4.445-2.176v1.239c0 .527-.301.824-1.168.824-.375 0-.793-.074-1.016-.11V15.152c0-.488.3-.824 1.168-.824.375 0 .789.074 1.016.11v6.414c.94-1.274 2.488-2.176 4.445-2.176 3.242-.035 6.18 2.437 6.18 6.601m-2.223 0c0-2.812-1.883-4.687-4.371-4.687-1.696 0-3.278.973-3.992 2.398v4.614c.714 1.425 2.296 2.402 3.992 2.402 2.523 0 4.37-1.914 4.37-4.727m16.465.79h-9.91c.3 2.472 1.996 3.859 4.558 3.859 1.094 0 1.961-.223 2.75-.485.567-.187.793-.265 1.02-.265.601 0 1.015.488.902 1.687-1.168.489-2.902 1.051-4.746 1.051-3.996 0-6.707-2.7-6.707-6.676 0-3.824 2.863-6.562 6.367-6.562 3.957 0 5.879 3.039 5.879 6.152-.04.336-.078.785-.113 1.238m-9.95-1.688h7.875c-.074-2.176-1.468-3.863-3.765-3.863-1.961-.04-3.77 1.312-4.11 3.863m20.422 6.637c-1.129.523-2.41.863-3.691.863-2.523 0-4.07-1.465-4.07-3.938V16.953c0-.562.34-.937 1.168-.937.379 0 .793.074 1.02.148v2.773h4.972c.035.188.074.563.074.864 0 .789-.34 1.05-.79 1.05h-4.257v6.903c0 1.46.676 2.21 2.11 2.21 1.28 0 1.996-.562 2.597-.562.68.04.98.563.867 1.614m0 0" style="stroke:none;fill-rule:nonzero;fill:#fff;fill-opacity:1" data-source="https://football-logos.cc"></path><!-- source: https://football-logos.cc --></svg>