<svg xmlns="http://www.w3.org/2000/svg" xmlns:xlink="http://www.w3.org/1999/xlink" viewBox="0.04 0 114.88 149"><!-- Source: https://football-logos.cc --><defs data-source="https://football-logos.cc"><linearGradient id="h" x1="4507.873" x2="4509.593" y1="-11827.521" y2="-11827.521" gradientTransform="matrix(0 15.66881 -15.74122 0 -186100.283 -70620.165)" gradientUnits="userSpaceOnUse"><stop offset="0" style="stop-color:#e52320;stop-opacity:1"></stop><stop offset=".58" style="stop-color:#e2221f;stop-opacity:1"></stop><stop offset=".95" style="stop-color:#d9211f;stop-opacity:1"></stop><stop offset="1" style="stop-color:#d8211f;stop-opacity:1"></stop></linearGradient><linearGradient id="i" x1="210.209" x2="210.209" y1="221.3" y2="293.512" gradientTransform="matrix(.37676 0 0 .37503 .043 -71.215)" gradientUnits="userSpaceOnUse"><stop offset=".4" style="stop-color:red;stop-opacity:1"></stop><stop offset="1" style="stop-color:#d42321;stop-opacity:1"></stop></linearGradient><linearGradient id="c" x1="210.653" x2="209.397" y1="256.125" y2="220.157" gradientTransform="matrix(.37676 0 0 .37503 .043 -71.215)" gradientUnits="userSpaceOnUse"><stop offset="0" style="stop-color:#fff;stop-opacity:1"></stop><stop offset="1" style="stop-color:#fff;stop-opacity:.25098"></stop></linearGradient><linearGradient id="l" x1="82.534" x2="82.534" y1="225.457" y2="289.358" gradientTransform="matrix(.37676 0 0 .37503 .043 -71.215)" gradientUnits="userSpaceOnUse"><stop offset="0" style="stop-color:#002a91;stop-opacity:1"></stop><stop offset=".8" style="stop-color:#002672;stop-opacity:1"></stop></linearGradient><linearGradient id="e" x1="83.076" x2="82.231" y1="259.311" y2="235.122" gradientTransform="matrix(.37676 0 0 .37503 .043 -71.215)" gradientUnits="userSpaceOnUse"><stop offset="0" style="stop-color:#fff;stop-opacity:1"></stop><stop offset="1" style="stop-color:#fff;stop-opacity:.25098"></stop></linearGradient><clipPath id="f"><path d="M55 13h49v26H55Zm0 0"></path></clipPath><clipPath id="g"><path d="M55.05 13.54v23.327c0 1.012.829 1.836 1.848 1.836h44.872a1.846 1.846 0 0 0 1.847-1.836V22.391c-.078.375-.265.597-.492.824-.262.262-.902.336-.902.336s-45.137 1.539-45.664 1.578c-.528.035-.641.074-.98.297-.34.226-.454.828-.454.828V13.238c-.074.075-.074.188-.074.301"></path></clipPath><clipPath id="b"><path d="M0 0h115v149H0z"></path></clipPath><clipPath id="d"><path d="M0 0h115v149H0z"></path></clipPath><mask id="k"><g filter="url(#a)"><path d="M0 0h115v149H0z" style="fill:#000;fill-opacity:.4;stroke:none"></path></g></mask><mask id="n"><g filter="url(#a)"><path d="M0 0h115v149H0z" style="fill:#000;fill-opacity:.25098;stroke:none"></path></g></mask><g id="j" clip-path="url(#b)"><path d="M56.219 25.203h.152c5.348-.187 45.813-1.574 45.813-1.574.68-.04 1.355-.527 1.355-1.39v-8.665c0-.972-.828-1.797-1.809-1.797H56.707c-.977 0-1.809.825-1.809 1.797V26.63c0-.152.079-1.277 1.32-1.426m0 0" style="stroke:none;fill-rule:nonzero;fill:url(#c)"></path></g><g id="m" clip-path="url(#d)"><path d="m50.832 18.64-2.789 6.188c-.074.149-.414.711-1.168.711-.187 0-2.562.074-2.562.074-.454 0-.602.453-.602.453l2.41-5.664c.828-1.988 2.149-2.175 3.129-2.175.563.039 1.281.226 1.582.414m-7.309 7.387-4.71-7.613c-.301-.074-1.094-.227-1.622-.227-1.73 0-2.675.641-3.652 1.688l-4.71 5.102.374.562c.152.227.492.563 1.133.563.227 0 2.484-.075 2.676-.075.562 0 .976.227 1.168.524l-.832-1.235 3.242-3.414 2.148 3.375a1.5 1.5 0 0 0 1.09.524c.113 0 2.977-.11 3.09-.11.227 0 .453.075.605.336M27.734 13.352c-2.484 0-2.898 1.312-2.898 2.55v11.325c0-.45.336-.938.941-.973.414 0 1.582-.078 1.922-.078a.98.98 0 0 0 .977-.973V13.465c-.336-.113-.64-.113-.942-.113m-8.289 10.5-2.824-.524c-.902-.152-1.469-.375-1.469-.863s.602-.863 2.036-.863c1.394 0 2.636.148 3.425.148 1.02 0 2.114-.45 2.114-2.473 0-.261-.04-.527-.079-.789-1.543-.187-4.332-.488-6.628-.222-3.055.336-4.598 2.136-4.598 4.312 0 1.125.488 2.176 1.508 2.961.754.488 1.508.676 2.258.824.64.114 2.074.188 3.167.153.336 0 2.825-.075 3.352-.114 1.242-.039 1.922 1.012 1.883 2.102v-.453c0-2.024-1.242-3.672-4.145-4.2m0 0" style="stroke:none;fill-rule:nonzero;fill:url(#e)"></path></g><filter id="a" width="100%" height="100%" x="0%" y="0%" filterUnits="objectBoundingBox"><feColorMatrix in="SourceGraphic" values="0 0 0 0 1 0 0 0 0 1 0 0 0 0 1 0 0 0 1 0"></feColorMatrix></filter></defs><path d="M57.5 149C25.813 149 .043 122.934.043 90.945V0h114.875v90.945C114.957 122.934 89.188 149 57.5 149" style="stroke:none;fill-rule:nonzero;fill:#fff;fill-opacity:1"></path><path d="M111.68 8.965V3.227H3.32v87.718c0 30.227 24.301 54.793 54.22 54.793 29.913 0 54.214-24.566 54.214-54.793-.04-.523-.074-67.992-.074-81.98M57.5 142.512c-28.105 0-50.937-23.14-50.937-51.567V6.488h101.875v84.457c0 28.426-22.833 51.567-50.938 51.567" style="stroke:none;fill-rule:nonzero;fill:#bb1731;fill-opacity:1"></path><path d="M55.918 130.473c-1.355 0-2.488-1.086-2.488-2.473v-13.504h9.722v3.715h-5.726v2.398h5.199v3.715h-5.2v6.149ZM41.035 128a2.48 2.48 0 0 0 2.488 2.473h7.157v-3.676h-5.653v-2.473h5.2v-3.715h-5.2v-2.398h5.692v-3.715h-9.684Zm33.531 2.473v-3.676h-4.972v-12.262h-3.992v13.5a2.476 2.476 0 0 0 2.484 2.477h6.48ZM64.547 84.309c-1.66 0-3.016 1.347-3.016 3 0 1.648 1.356 3 3.016 3 1.656 0 3.012-1.352 3.012-3 0-1.653-1.356-3-3.012-3M61.078 79.094c-1.508 0-2.71 1.199-2.71 2.699s1.202 2.703 2.71 2.703a2.7 2.7 0 0 0 2.715-2.703c-.04-1.5-1.246-2.7-2.715-2.7M66.43 76.32a2.613 2.613 0 0 0-2.637 2.625 2.616 2.616 0 0 0 2.637 2.625 2.616 2.616 0 0 0 2.636-2.625 2.613 2.613 0 0 0-2.636-2.625M57.426 75.344a2.22 2.22 0 0 0-2.223 2.21c0 1.204 1.016 2.216 2.223 2.216 1.203 0 2.222-1.012 2.222-2.215 0-1.2-.98-2.211-2.222-2.211M53.355 73.469a1.846 1.846 0 0 0-1.847 1.836 1.847 1.847 0 0 0 3.695 0 1.846 1.846 0 0 0-1.848-1.836M49.59 73.02c-.793 0-1.473.636-1.473 1.46 0 .825.64 1.465 1.473 1.465.828 0 1.469-.64 1.469-1.465 0-.824-.68-1.46-1.47-1.46M54.223 70.395c-.793 0-1.395.636-1.395 1.386s.64 1.387 1.395 1.387c.754 0 1.394-.637 1.394-1.387s-.605-1.386-1.394-1.386M57.727 67.73c-.754 0-1.395.602-1.395 1.387 0 .79.602 1.39 1.395 1.39.789 0 1.394-.6 1.394-1.39 0-.785-.605-1.387-1.394-1.387M54.676 67.918a1.09 1.09 0 0 0-1.094 1.086 1.091 1.091 0 0 0 2.184 0 1.09 1.09 0 0 0-1.09-1.086M52 68.48c-.527 0-.98.45-.98.977 0 .523.453.973.98.973s.98-.45.98-.973a.996.996 0 0 0-.98-.977M50.758 70.656c-.606 0-1.059.489-1.059 1.051 0 .563.492 1.05 1.059 1.05.562 0 1.054-.487 1.054-1.05 0-.562-.453-1.05-1.054-1.05M47.328 70.918c-.527 0-.98.45-.98.977 0 .523.453.972.98.972s.98-.449.98-.972a.973.973 0 0 0-.98-.977M48.95 69.566a.716.716 0 0 0-.72.715c0 .375.34.711.72.711a.74.74 0 0 0 .714-.71c0-.376-.3-.716-.715-.716M44.992 71.93a.674.674 0 1 0 0 1.352c.375 0 .676-.302.676-.677s-.3-.675-.676-.675M46.273 73.207a1.17 1.17 0 0 0-1.168 1.16c0 .64.528 1.164 1.168 1.164a1.17 1.17 0 0 0 1.168-1.164 1.17 1.17 0 0 0-1.168-1.16M43.41 73.582a.913.913 0 0 0-.906.898c0 .489.414.903.906.903a.916.916 0 0 0 .903-.903.91.91 0 0 0-.903-.898M41.523 75.195a.594.594 0 0 0-.601.598c0 .34.266.602.601.602.34 0 .606-.262.606-.602a.595.595 0 0 0-.606-.598M62.133 73.055a2.225 2.225 0 0 0-2.223 2.215c0 1.238.98 2.21 2.223 2.21a2.22 2.22 0 0 0 2.222-2.21 2.2 2.2 0 0 0-2.222-2.215M70.309 81.156a2.775 2.775 0 1 0 0 5.551 2.775 2.775 0 1 0 0-5.55M73.324 76.32c-1.32 0-2.41 1.086-2.41 2.399a2.42 2.42 0 0 0 2.41 2.402c1.32 0 2.41-1.09 2.41-2.402a2.396 2.396 0 0 0-2.41-2.399M69.895 72.305a2.26 2.26 0 0 0-2.258 2.25 2.26 2.26 0 0 0 4.52 0 2.263 2.263 0 0 0-2.262-2.25M65.637 69.566c-1.168 0-2.07.942-2.07 2.067s.94 2.062 2.07 2.062c1.133 0 2.074-.937 2.074-2.062a2.066 2.066 0 0 0-2.074-2.067M61.457 68.145c-.98 0-1.734.785-1.734 1.722 0 .938.793 1.727 1.734 1.727s1.73-.79 1.73-1.727a1.72 1.72 0 0 0-1.73-1.722M57.953 71.105c-1.02 0-1.848.825-1.848 1.84 0 1.012.829 1.836 1.848 1.836a1.843 1.843 0 0 0 1.844-1.836c0-1.015-.828-1.84-1.844-1.84" style="stroke:none;fill-rule:nonzero;fill:#283271;fill-opacity:1"></path><path d="M58.441 95.934c0 1.648-1.355 3-3.011 3-1.66 0-3.016-1.352-3.016-3 0-1.653 1.356-3 3.016-3a2.99 2.99 0 0 1 3.011 3M61.984 93.008a2.696 2.696 0 0 0-2.714 2.699 2.7 2.7 0 0 0 2.714 2.703 2.696 2.696 0 0 0 2.711-2.703c0-1.5-1.242-2.7-2.71-2.7M61.719 99.121a2.616 2.616 0 0 0-2.637 2.625 2.616 2.616 0 0 0 2.637 2.625 2.616 2.616 0 0 0 2.636-2.625 2.616 2.616 0 0 0-2.636-2.625M67.445 92.445a2.22 2.22 0 0 0-2.222 2.211c0 1.203 1.02 2.25 2.222 2.25 1.207 0 2.223-1.011 2.223-2.21s-.977-2.25-2.223-2.25M71.441 90.457c-1.02 0-1.847.824-1.847 1.84 0 1.012.828 1.836 1.847 1.836a1.843 1.843 0 0 0 1.844-1.836c0-1.016-.828-1.84-1.844-1.84M74.04 87.98c-.79 0-1.47.641-1.47 1.465s.64 1.461 1.47 1.461c.827 0 1.468-.636 1.468-1.46 0-.825-.64-1.466-1.469-1.466M74.078 93.422c-.793 0-1.394.637-1.394 1.387s.64 1.386 1.394 1.386 1.395-.636 1.395-1.386-.606-1.426-1.395-1.387M74.645 97.809c-.754 0-1.395.601-1.395 1.386 0 .79.602 1.387 1.395 1.387.789 0 1.39-.598 1.39-1.387 0-.785-.64-1.386-1.39-1.386M76.262 95.484a1.087 1.087 0 1 0 0 2.172c.605 0 1.093-.484 1.093-1.086 0-.601-.488-1.086-1.093-1.086M77.203 93.047a.99.99 0 0 0-.976.973c0 .527.449.976.976.976s.98-.45.98-.976a.995.995 0 0 0-.98-.973M75.887 90.797c-.602 0-1.055.484-1.055 1.047s.488 1.05 1.055 1.05c.566 0 1.054-.488 1.054-1.05s-.453-1.047-1.054-1.047M77.43 87.832a.99.99 0 0 0-.977.977c0 .523.414.972.977.972a.97.97 0 0 0 .98-.972.996.996 0 0 0-.98-.977M78.035 90.27a.72.72 0 0 0-.719.714c0 .375.34.711.72.711a.74.74 0 0 0 .714-.71c0-.376-.3-.715-.715-.715M77.996 85.77a.677.677 0 1 0 0 1.351.677.677 0 1 0 0-1.351M75.813 85.469c-.641 0-1.168.527-1.168 1.164s.527 1.16 1.168 1.16a1.17 1.17 0 0 0 1.167-1.16c0-.637-.527-1.164-1.168-1.164M77.168 83.219a.916.916 0 0 0-.906.902c0 .484.414.899.906.899a.915.915 0 0 0 .902-.899.916.916 0 0 0-.902-.902M76.941 81.23a.594.594 0 0 0-.601.602c0 .336.262.602.601.602.34 0 .602-.266.602-.602a.594.594 0 0 0-.602-.602M67.11 97.695c-1.208 0-2.227.977-2.227 2.215a2.2 2.2 0 0 0 2.226 2.211 2.2 2.2 0 0 0 2.223-2.21 2.225 2.225 0 0 0-2.223-2.216M55.465 99.832a2.78 2.78 0 0 0-2.79 2.777 2.777 2.777 0 0 0 2.79 2.774 2.775 2.775 0 1 0 0-5.551M58.516 105.422c-1.317 0-2.41 1.086-2.41 2.398s1.093 2.403 2.41 2.403c1.32 0 2.414-1.09 2.414-2.403s-1.094-2.398-2.414-2.398M63.867 104.672a2.263 2.263 0 0 0-2.262 2.25 2.263 2.263 0 0 0 4.523 0c0-1.238-1.019-2.25-2.26-2.25M68.5 102.645a2.06 2.06 0 0 0-2.07 2.062c0 1.125.941 2.063 2.07 2.063 1.133 0 2.074-.938 2.074-2.063a2.063 2.063 0 0 0-2.074-2.062M72.117 100.246c-.976 0-1.73.79-1.73 1.727s.789 1.722 1.73 1.722c.942 0 1.735-.785 1.735-1.722 0-.938-.754-1.727-1.735-1.727M71.215 95.633c-1.02 0-1.848.824-1.848 1.8s.828 1.837 1.848 1.837a1.843 1.843 0 0 0 1.844-1.836c0-1.012-.829-1.801-1.844-1.801" style="stroke:none;fill-rule:nonzero;fill:#bb1731;fill-opacity:1"></path><path d="M52.488 80.707c-1.656 0-3.011 1.352-3.011 3s1.355 3 3.011 3c1.66 0 3.016-1.352 3.016-3s-1.32-3-3.016-3m-3.09 6.113c-1.507 0-2.71 1.2-2.71 2.7s1.203 2.699 2.71 2.699c1.508 0 2.715-1.2 2.715-2.7s-1.207-2.699-2.715-2.699m-5.12-3.152a2.617 2.617 0 0 0-2.641 2.625 2.62 2.62 0 0 0 2.64 2.629 2.617 2.617 0 0 0 2.637-2.629 2.616 2.616 0 0 0-2.637-2.625m3.313 8.852a2.22 2.22 0 0 0-2.223 2.214c0 1.2 1.02 2.211 2.223 2.211 1.246 0 2.262-1.011 2.262-2.21 0-1.204-1.055-2.215-2.262-2.215m.078 5.027c-1.02 0-1.848.824-1.848 1.836s.828 1.84 1.848 1.84a1.846 1.846 0 0 0 1.844-1.84 1.843 1.843 0 0 0-1.844-1.836m1.129 4.05c-.828 0-1.469.637-1.469 1.462 0 .824.64 1.46 1.469 1.46.828 0 1.469-.636 1.469-1.46 0-.825-.676-1.461-1.47-1.461m-4.671-2.59c-.793 0-1.395.637-1.395 1.387s.641 1.39 1.395 1.39 1.395-.64 1.395-1.39-.602-1.387-1.395-1.387m-4.07-1.649c-.754 0-1.395.598-1.395 1.387 0 .79.606 1.387 1.395 1.387.793 0 1.394-.598 1.394-1.387s-.64-1.387-1.394-1.387m1.468 3a1.09 1.09 0 0 0-1.09 1.086 1.091 1.091 0 0 0 2.184 0 1.09 1.09 0 0 0-1.094-1.086m1.735 2.137c-.528 0-.98.45-.98.977 0 .523.452.972.98.972.527 0 .98-.449.98-.972a.996.996 0 0 0-.98-.977m2.523-.113c-.601 0-1.054.488-1.054 1.05s.492 1.051 1.054 1.051c.567 0 1.055-.488 1.055-1.05s-.45-1.051-1.055-1.051m1.887 2.965a.97.97 0 0 0-.98.972c0 .563.453.977.98.977s.977-.45.977-.977a.99.99 0 0 0-.977-.972m-2.188-.375a.71.71 0 0 0-.714.71c0 .376.34.712.714.712a.736.736 0 0 0 .715-.711c0-.375-.3-.711-.715-.711m3.997 2.324c-.38 0-.68.3-.68.676 0 .375.3.675.68.675.375 0 .675-.3.675-.675s-.3-.676-.675-.676m.902-2.512a1.17 1.17 0 0 0-1.168 1.16c0 .637.527 1.164 1.168 1.164s1.168-.527 1.168-1.164a1.17 1.17 0 0 0-1.168-1.16m1.508 2.7a.916.916 0 0 0-.907.898c0 .488.415.902.907.902a.916.916 0 0 0 .902-.902.89.89 0 0 0-.902-.899m2.11 1.274a.594.594 0 0 0-.602.601c0 .336.261.602.601.602s.602-.266.602-.602a.594.594 0 0 0-.602-.601M43.184 89.672a2.22 2.22 0 0 0-2.223 2.21c0 1.24.98 2.212 2.223 2.212a2.197 2.197 0 0 0 2.222-2.211c0-1.238-1.02-2.211-2.222-2.211m3.464-11.965a2.777 2.777 0 0 0-2.789 2.773 2.78 2.78 0 0 0 2.79 2.778 2.776 2.776 0 1 0 0-5.551m-6.028.375c-1.32 0-2.41 1.086-2.41 2.398a2.42 2.42 0 0 0 2.41 2.403c1.32 0 2.41-1.09 2.41-2.403s-1.09-2.398-2.41-2.398m-1.922 5.25a2.263 2.263 0 0 0-2.261 2.25c0 1.238 1.019 2.211 2.261 2.211s2.262-1.012 2.262-2.211c0-1.2-1.02-2.25-2.262-2.25m-.414 5.215a2.063 2.063 0 0 0-2.074 2.062c0 1.125.945 2.098 2.074 2.098s2.07-.937 2.07-2.098c0-1.164-.902-2.062-2.07-2.062m.602 4.836c-.977 0-1.73.789-1.73 1.726 0 .938.788 1.723 1.73 1.723.941 0 1.734-.785 1.734-1.723 0-.937-.793-1.726-1.734-1.726m4.37 1.426a1.805 1.805 0 0 0-1.808 1.8c0 1.012.828 1.836 1.809 1.836.98 0 1.808-.824 1.808-1.836 0-1.015-.789-1.8-1.808-1.8" style="stroke:none;fill-rule:nonzero;fill:#283271;fill-opacity:1"></path><path d="M11.422 60.566c0 .375.3.715.715.715h90.726c.375 0 .715-.34.715-.715s-.34-.71-.715-.71H12.137a.69.69 0 0 0-.715.71M19.223 54.156l-.266 1.2c-.074.3-.227.374-.453.374h-4.106c-1.168 0-1.847-.601-1.847-1.914v-9.562c0-.262.113-.336.453-.336h1.434c.335 0 .449.074.449.336v9.562h3.957c.3-.035.453.04.379.34M27.094 54.043l-.149 1.387c0 .187-.078.261-.3.261H22.12c-1.168 0-1.844-.597-1.844-1.91v-9.566c0-.223.075-.336.336-.336h6.18c.187 0 .3.074.266.262l-.153 1.386c0 .188-.113.266-.3.266h-3.919v2.96h3.618c.226 0 .261.075.261.263l-.148 1.386c0 .153-.113.227-.3.227h-3.43v3.113h4.144c.227.04.3.113.262.301M28.074 55.43c1.055-4.012 2.074-7.95 3.09-11.102.074-.3.3-.45.64-.45h1.997c.414 0 .566.15.68.45.98 3.113 2.07 7.09 3.124 11.102.04.187-.035.261-.261.261h-1.77c-.265 0-.418-.113-.418-.261l-.449-2.063H31.09c-.152.711-.3 1.387-.453 2.102-.04.148-.153.222-.375.222h-1.887c-.3 0-.34-.074-.3-.261m6.179-3.899c-.34-1.765-.867-3.902-1.356-5.703h-.113c-.453 1.8-1.02 3.938-1.32 5.703ZM44.277 51.043c-1.02 0-1.547-.563-1.547-1.54v-.112c0-.188.075-.301.266-.301H46.5c.188 0 .3.078.3.265v5.137c0 .414-.112.637-.413.75-.832.375-2.223.602-3.504.602-3.09 0-4.485-1.239-4.485-3.977v-4.05c0-2.926 1.622-4.126 4.747-4.126 1.054 0 2.148.149 2.863.336.226.078.3.153.3.414v1.352c0 .223-.148.262-.374.187-.68-.187-1.657-.3-2.602-.3-1.504 0-2.559.488-2.559 2.363v3.562c0 .899.149 1.387.45 1.762.265.336.828.524 1.66.524.601 0 1.316-.075 1.656-.188v-2.66ZM49.813 54.941c-.715-.636-1.055-1.687-1.055-3.113v-7.687c0-.149.078-.262.265-.262h1.844c.192 0 .266.074.266.262v7.464c0 .711.074 1.348.414 1.723.266.34.754.563 1.394.563.641 0 1.13-.188 1.43-.563.34-.41.379-1.012.379-1.723v-7.464c0-.149.113-.262.3-.262h1.848c.188 0 .262.113.262.262v7.687c0 1.465-.375 2.516-1.168 3.152-.715.598-1.695.899-3.05.899-1.434 0-2.45-.3-3.13-.938M65.977 54.043l-.149 1.387c0 .187-.078.261-.305.261h-4.52c-1.167 0-1.847-.597-1.847-1.91v-9.566c0-.223.078-.336.34-.336h6.18c.187 0 .3.074.265.262l-.152 1.386c0 .188-.113.266-.3.266H61.57v2.96h3.617c.223 0 .262.075.262.263l-.148 1.386c0 .153-.114.227-.305.227H61.57v3.113h4.18c.191.04.266.113.227.301M78.45 44.14l-.227 1.426c-.04.188-.114.262-.34.262h-2.297v9.64c0 .188-.078.262-.3.262h-.266c-1.168 0-1.848-.601-1.848-1.914v-7.949h-2.598c-.152 0-.265-.074-.265-.262V44.18c0-.153.113-.262.265-.262h7.574c.223-.04.301.035.301.223M87.188 53.93l-1.282-7.239h-.11l-1.472 8.59c-.074.297-.3.41-.64.41h-1.282c-1.054 0-1.543-.562-1.77-1.761-.3-1.54-1.206-6.301-1.581-9.715-.04-.262.074-.336.34-.336h1.543c.34 0 .453.074.453.3.3 3.188.793 6.938 1.242 9.524h.078l1.504-8.926c.039-.297.227-.41.566-.41h2.11c.34 0 .527.113.566.41l1.543 8.926h.078c.45-2.7.977-6.3 1.203-9.523 0-.227.153-.301.493-.301h1.543c.34 0 .378.148.34.414-.415 3.375-1.13 8.176-1.848 10.988-.075.297-.336.45-.676.45H88.96c-1.055-.04-1.547-.602-1.773-1.801M94.836 54.867c-.754-.637-1.168-1.648-1.168-2.96v-4.278c0-1.5.566-2.55 1.547-3.227.715-.484 1.695-.71 2.824-.71 1.133 0 2.188.261 2.941.788.903.637 1.43 1.688 1.43 3.149v4.277c0 1.422-.488 2.473-1.43 3.149-.718.523-1.734.789-2.976.789-1.32.035-2.414-.301-3.168-.977m4.637-1.426c.375-.375.562-1.011.562-1.761v-3.79c0-.863-.222-1.386-.562-1.761-.301-.3-.793-.45-1.395-.45-.601 0-1.133.15-1.433.45-.375.375-.563.898-.563 1.762v3.789c0 .75.188 1.386.563 1.761.3.301.832.45 1.433.45s1.094-.149 1.395-.45" style="stroke:none;fill-rule:nonzero;fill:#bb1731;fill-opacity:1" data-source="https://football-logos.cc"></path><g clip-path="url(#f)"><g clip-path="url(#g)"><path d="M55.05 13.238h48.528v25.465H55.051Zm0 0" style="stroke:none;fill-rule:nonzero;fill:url(#h)"></path></g></g><path d="M101.77 11.777H56.707c-.977 0-1.809.825-1.809 1.797v23.48c0 .973.832 1.798 1.809 1.798h45.063c.98 0 1.808-.825 1.808-1.797v-23.48c0-.973-.828-1.798-1.808-1.798m0 0" style="stroke:none;fill-rule:nonzero;fill:url(#i)"></path><use xlink:href="#j" mask="url(#k)"></use><path d="M38.625 36.902c.34.153.98.375 1.809.375 1.43.04 2.183-.488 2.75-1.761l7.609-16.875c-.3-.153-1.016-.34-1.582-.375-.98 0-2.297.187-3.125 2.172l-2.45 5.816-4.824-7.84c-.3-.074-1.093-.227-1.62-.227-1.731 0-2.676.641-3.653 1.688l-4.71 5.102 3.769 5.925c.715 1.086 1.617 1.649 3.125 1.649.98 0 1.808-.223 2.187-.41l-4.562-6.825 3.242-3.414 5.312 8.25Zm-9.984-6.375c0 1.239-.493 1.95-2.942 1.95-.336 0-.601 0-.863-.075v-16.5c0-1.238.414-2.55 2.898-2.55.301 0 .641.035.907.074Zm-5.051-2.511c0 2.324-1.504 4.011-4.633 4.347-2.223.266-5.5-.035-7.047-.222a7 7 0 0 1-.074-.825c0-2.027 1.094-2.476 2.148-2.476 1.094 0 2.75.187 4.032.187 1.394 0 1.808-.488 1.808-.898 0-.563-.566-.828-1.62-1.016l-2.938-.562c-2.45-.45-3.77-2.137-3.77-3.938 0-2.175 1.547-3.972 4.598-4.312 2.297-.262 5.086.039 6.633.226.035.262.074.489.074.785 0 2.028-1.094 2.477-2.11 2.477-.793 0-2.035-.148-3.43-.148-1.433 0-2.034.41-2.034.859 0 .488.566.715 1.468.863l2.828.528c2.825.488 4.067 2.136 4.067 4.125m0 0" style="stroke:none;fill-rule:nonzero;fill:url(#l)"></path><use xlink:href="#m" mask="url(#n)"></use><path d="M73.55 25.465c0 4.164-2.937 6.637-6.179 6.637-1.922 0-3.504-.899-4.445-2.176v1.238c0 .527-.301.824-1.168.824-.38 0-.793-.074-1.02-.11V15.34c0-.488.305-.824 1.168-.824.38 0 .793.074 1.02.109v6.414c.941-1.273 2.484-2.176 4.445-2.176 3.242 0 6.18 2.438 6.18 6.602m-2.222 0c0-2.813-1.883-4.727-4.371-4.727-1.695 0-3.277.977-3.992 2.403v4.613c.715 1.422 2.297 2.398 3.992 2.398 2.488.04 4.371-1.875 4.371-4.687m16.465.789h-9.95c.305 2.473 2 3.86 4.56 3.86 1.093 0 1.96-.223 2.753-.485.563-.188.79-.266 1.016-.266.601 0 1.016.489.902 1.688-1.168.488-2.898 1.09-4.746 1.09-3.992 0-6.707-2.7-6.707-6.676 0-3.824 2.863-6.602 6.367-6.602 3.957 0 5.88 3.075 5.88 6.153 0 .336-.04.785-.075 1.238m-9.95-1.688h7.876c-.074-2.175-1.508-3.902-3.766-3.902-1.96 0-3.77 1.387-4.11 3.902m20.423 6.672c-1.13.528-2.41.864-3.692.864-2.523 0-4.07-1.5-4.07-3.973V17.176c0-.563.34-.938 1.168-.938.379 0 .793.075 1.02.153v2.734h4.972c.035.188.074.563.074.863 0 .79-.34 1.051-.793 1.051h-4.218v6.938c0 1.5.68 2.214 2.109 2.214 1.281 0 2-.562 2.602-.562.64 0 .94.562.828 1.61m0 0" style="stroke:none;fill-rule:nonzero;fill:#fff;fill-opacity:1" data-source="https://football-logos.cc"></path><!-- source: https://football-logos.cc --></svg>