<svg xmlns="http://www.w3.org/2000/svg" fill="none" viewBox="0 0 493.92 566.93"><!-- Source: https://football-logos.cc --><path fill="#1B1918" fill-rule="evenodd" d="M4.07 0h485.82c2.97 0 4.04 1.15 4.03 4.18-.6 107.2-11.37 219.22-47.47 320.79-19.83 55.79-47.06 109.18-85.84 154.26-31.12 36.19-67.6 64.52-109.63 86.87-1.96 1.14-3.86 1.04-5.95.09-41.19-19.77-77.42-49.21-107.44-83.48-39.66-45.28-68.77-99.1-89.34-155.47-16.17-44.31-26.87-92.02-34.26-138.54C4.29 127.68 1.38 65.44 0 3.69.05 1.01 1.16 0 4.07 0" clip-rule="evenodd" data-source="https://football-logos.cc"></path><path fill="#F5A719" fill-rule="evenodd" d="M3.13 3.14h487.64c-.69 137.91-18.6 240.05-47.29 320.77-46.33 130.37-115.87 198.27-195.49 240.21-72.81-34.38-149.71-108.92-196.8-237.96C24.34 252.54 3.13 139.57 3.13 3.14" clip-rule="evenodd"></path><path fill="#1B1918" fill-rule="evenodd" d="M103.83 406.93c34.73 59.27 82.34 111.16 143.86 142.02 65.78-36.08 112.07-85.59 146.11-146.64-22.35 20.03-40.08 29.75-62.46 29.82-35.3.11-57.76-34.74-83.78-35.15-28.26-.45-43.41 33.64-84.87 35.15-21.45.78-41.26-11.8-58.86-25.2M47.72 269.58c4.66 17.65 10.01 35.07 16.17 51.96a549 549 0 0 0 16.12 39.41c35.29 2.99 52.73 34.26 80.14 34.75 29.68.53 47.66-33.53 87.34-34.38 36.75-.79 53.77 34.58 84.93 34.38 27.02-.18 50.15-31.03 81.79-34.55 5.93-13.46 11.43-27.38 16.54-41.75 5.81-16.34 10.95-32.97 15.48-49.82zM22.4 123.42c2.07 20.99 4.73 41.9 8.04 62.67 3.84 24.2 8.6 48.74 14.59 72.95h403.96c11.2-44.24 18.36-89.86 22.68-135.61H22.4zM16.71 16.66c.33 32.05 1.84 64.21 4.69 96.22h451.2c2.73-32.19 4.1-64.41 4.53-96.22z" clip-rule="evenodd"></path><path fill="#F5A719" d="M218.173 139.754a606 606 0 0 0-3.193-2.284c3.12-.93 5.39.91 7.1 2.66-1.35-.25-2.62-.25-3.55-.12z"></path><path fill="#F5A719" fill-rule="evenodd" d="M185.67 187.91c-1.74-1.4-4.57-2.28-11.53-1.87-4.81 2.65-13.36 7.87-12.8 16.7 2.17-1.2 3.94-1.96 6.95-2.63l.93 1.44c-4.31 3.6-3.66 7.81-1.78 12.71.961-.403 2.216-1.139 3.433-1.854l.001-.001h.001a89 89 0 0 1 1.475-.855c-.28-6.61 8.42-10.59 10.93-11.27-6.13 4.57-8.28 7.03-9.58 10.93 3.481-2.484 5.909-3.065 8.503-3.686.998-.238 2.021-.483 3.137-.844.868-.281 1.652-.596 2.417-.903 2.557-1.026 4.897-1.965 9.423-1.257-1.1-1.62-3.78-2.76-7.62-3.9 5.37-.72 9.81 1.27 10.48 5.09.31 1.75.45 4.05-2.94 7.79 4.21.41 8.81-3.26 11.19-8.56-.68-2.32-2.4-4.69-3.99-6.78 2.34 1.07 4.8 2.33 5.93 5 .433 1.029.418 2.607.402 4.189-.014 1.414-.028 2.832.278 3.861.979-1.078 1.285-2.77 1.525-4.092.145-.8.266-1.465.495-1.778 1.11-1.5 3.01-4.8 2.66-7.04-.44-2.75-2.15-4.16-5.27-6.68l.786.399c3.605 1.824 5.611 2.839 5.994 5.931.436 3.521-.708 5.554-1.975 7.807-1.005 1.786-2.087 3.71-2.525 6.623.916-1.133 1.902-2.075 2.839-2.97 1.263-1.206 2.435-2.326 3.221-3.71 1.65-2.91 2.08-6.38 1.27-9.48-.67-2.58-2.3-5.21-5.12-7.91 4.75 1.72 6.18 3.73 7.62 6.95q.15.339.295.69c.573 1.375 1.171 2.811 2.675 3.29-.802-2.275-.898-5.222-.968-7.388-.041-1.261-.073-2.257-.232-2.702-.756-2.152-2.127-3.87-3.636-5.76l-.001-.001q-.46-.575-.933-1.179.468.335.91.646c3.084 2.175 5.281 3.724 7.06 10.204.59-5.41-1.15-11.07-1.79-12.48-.83-1.83-4.43-5.42-8.29-7.26 5.99 1.24 10.31 5.2 13.14 10.51.94-4.62-.23-10.97-2.88-16.95-2.12-1.41-3.13-2.06-6.52-3.05 4.57-.82 8.08 1.41 10.85 4.66-.18-4.92-2.7-9.96-6.27-14.66-3.54 2.84-5.27 2.42-6.86.77 3.04-.6 4.71-1.07 7.03-3.07 3.44-2.97 3.71-7.46 2.8-7.95-1.73-.93-7.1-2.19-10.7-1.93-2.6.189-4.52 1.323-7.628 3.158l-.072.042c-.46.28-1.08-1.27-.68-1.52 2.034-1.299 3.939-2.205 5.756-3.069l.044-.021c-.725-.451-1.437-1.068-2.039-1.59-.32-.276-.608-.526-.851-.71-4.18-.36-10.15-.04-14.43.48-3.33.4-6.12 1.08-6.8 2.79 1.387.054 2.774.145 4.189.237 1.461.095 2.952.192 4.501.253.634.024 1.343.026 2.071.027 1.374.003 2.811.006 3.909.163.6.09.42.81.03 1.16-.374.331-.983.321-1.477.312l-.105-.001-.066-.001h-.042c-.652 0-1.146-.067-1.575-.125a10 10 0 0 0-.665-.075c.65 4.43-2.67 4.88-4.07 4.78-1.4-.09-5.28-.72-3.99-5.21l-1.037.082c-4.105.321-7.862.615-11.083 1.778.059.284.312.595.574.918.367.451.751.923.646 1.372-.137.61-.622 1.101-1.089 1.573-.52.527-1.018 1.03-.981 1.647.09 1.46 1.44 3.17 2.8 3.64 1.11.38 2.67.25 3.74-.42.514-.318.831-.705 1.174-1.123.464-.567.976-1.19 2.086-1.777 1.76-.93 4.06-1.27 5.2 0 2.69 3.02 5.11 6.91 5 10.09-.07 2.17-2.4 3.58-4.92 3.21-4.15-.6-7.02-.14-9.75 1.78 1.266.438 2.003.98 2.65 1.456.682.502 1.264.93 2.26 1.084.336.05.649-.135 1.107-.407s1.059-.628 1.973-.923c1.383-.445 4.019-.244 6.578-.05l.262.02c-.625.845-1.003 1.691-1.358 2.484-.338.754-.654 1.462-1.142 2.076-1 1.27-2.38 2.18-3.71 2.66-1.93.694-3.917.171-5.886-.347-2.091-.55-4.162-1.095-6.124-.173l.469.256c3.089 1.687 4.496 2.455 6.221 4.314-7.28-1.69-17.98.16-22.71 5.34 3.39.17 5.85.68 7.88 1.53 4.78-1.94 8.81.62 10.68 3.05zm36.1-42.18.286-.138c1.094-.53 2.884-1.397 3.844-1.452 1.14-.07 1.07.99.95 1.31-1.57 4.45-4.94 5.64-9.09 5.36 3.98-1.47 6.79-3.32 6.86-5.11-.85.09-1.81.14-2.85.03m-21.19 6.24.004.007-.014-.007zm.004.007c2.487 1.196 5.267 4.819 5.416 8.303.09 2.1-.9 4.86-4.83 3.56l.199-.047c.979-.229 2.715-.635 2.901-1.503.55-2.468-1.677-6.745-3.686-10.313" clip-rule="evenodd"></path><path fill="#F5A719" d="M193.37 214.52c5.34 2.21 10.4-.09 14.83-5.34.43 2.48.51 4.8.17 7.46 1.66-.48 3.16-1.72 4.41-2.96 3.911 3.028 4.428 4.18 4.907 5.247.248.554.486 1.085 1.183 1.843.697.765 1.859 1.455 2.968 2.115.355.211.705.419 1.032.625-2.91 1.3-9.15 1.24-14.24.85 1.52 1.64 3.85 3.11 5.85 3.9-4.66 1.43-10.82.8-16.1-1.01l-1.36 1.95c1.13 1.04 1.92 1.75 3.48 2.71-6.826 1.42-12.089.403-17.358-.616l-.004-.001c-.851-.164-1.701-.329-2.558-.483 1.75 1.7 3.5 3.14 6.01 4.41-4.49 1.21-12.04-1.3-16.53-3.05l-1.19 1.53c.34.68 1.53 1.8 2.54 2.71-2.616.271-5.466-.392-8.259-1.041-1.337-.31-2.662-.618-3.941-.819-.337.326-.682.748-1.042 1.191-.881 1.079-1.856 2.275-3.048 2.459-2.476.391-4.672.012-6.516-.306a39 39 0 0 0-1.464-.234c-1.48-.2-2.97-.75-4.88-2.44.26 1.58.93 2.82 1.78 3.64-.711.561-1.453 1.393-2.156 2.181-.889.996-1.714 1.921-2.334 2.139-.7.25-2.66.3-3.92-.62-.727-.531-1.136-1.348-1.554-2.186-.52-1.04-1.056-2.111-2.236-2.704 1.549-1.504 4.028-2.272 6.435-3.018l.613-.19.126-.04.196-.062-.51-2.2c-3.507.948-6.297 2.495-9.526 4.286-.619.343-1.254.695-1.914 1.054-1.64-.75-4.08-1.91-4.76-3.22-.52-1.02-.31-2.3.1-3.65 1.189-.116 2.452-.202 3.737-.29 3.05-.209 6.221-.427 8.803-1.06l-.25-2.2c-3.432.873-7.114 1.036-10.697 1.194-1.052.046-2.096.092-3.123.156-.34-1.16-.54-2.99.23-4.8.68-1.59 2.17-3.14 4.17-4.44 2.09 2.38 4.88 5.1 10.17 5.25l.082.051c2.081 1.29 3.352 2.078 6.728 1.969 6.169-.2 19.828-7.307 29.063-12.113 2.307-1.2 4.338-2.257 5.907-3.027.62-.3 4.84-1.7 8-2.63 1.014-.301 1.811-.642 2.586-.974 1.443-.618 2.815-1.205 5.384-1.446 3.94-.38 4.77 1.43 4.09 2.82q-.075.154-.151.319c-.507 1.077-1.192 2.534-3.969 5.111zM232.706 182.241l-.006-.021-.07.03z"></path><path fill="#F5A719" fill-rule="evenodd" d="M232.36 190.19c.479-1.975 1.047-5.381.346-7.949 5.051-.571 10.802-1.472 16.632-2.385h.001c8.404-1.316 16.971-2.658 23.841-3.076 8.701-.526 14.251-.443 20.828-.344 1.549.023 3.155.047 4.872.064 8.95.09 18.59 1.3 27.36 2.48 1.283.172 2.519.353 3.729.529 3.925.574 7.591 1.109 11.771 1.201 17.52.39 29.65-1.66 29.86-8.91.15-5.06-8.7-10.42-21.16-11.07-8.81-.46-19.87.8-32.55 2.63q-2.132.309-4.347.638c-7.247 1.072-15.093 2.234-22.953 2.732-5.71.36-13.28-.49-18.21-1.52-11.67-2.45-22.11-10.13-22.3-17.94-.05-1.81.87-4.25 2.21-5.03 1.48-.86 1.12.75.71 1.14-1.47 1.41-1.57 2.18-1.68 3.3-.27 2.97 2.14 5.63 5.93 7.64 6.32 3.35 17.71 5.29 25.11 6.12-23.62-6.44-26.56-8.06-29.8-12 1.093.486 2.095.964 3.051 1.42l.002.001c2.7 1.289 5.037 2.404 8.027 3.039 1.468.311 2.864.538 4.211.756 4.456.724 8.388 1.362 12.679 4.694-.69-1.11-1.84-2.36-4.11-3.58-2.427-1.298-6.99-2.284-12.244-3.419q-1.047-.226-2.126-.461c5.05-1.16 8.97-1.66 14.62-1.3 3.44.22 6.79 1.02 9.28 3.74.777.844 1.327 1.856 1.877 2.867.499.917.998 1.834 1.663 2.623 1.24 1.46 3.14 2.29 4.38 2.59 5.607 1.362 12.425.166 19.531-1.08 2.185-.382 4.397-.77 6.609-1.09q1.304-.187 2.587-.375l.068-.01c9.203-1.339 17.803-2.59 29.095-2.225 10.53.34 18.99 4.2 23.07 8.74 2.88 3.21 3.67 8.1 1.22 11.44-6.94 9.44-29.37 8.97-40.94 7.72 13.55 7.93 23.58 13.18 30.51 12.93 5.32-.2 10.33-1.05 13.57-7.77 1.71 2.2 2.85 4.85 2.93 5.54.147 1.316-.932 2.848-2 4.362-.384.545-.767 1.088-1.09 1.618 1.77-.95 4.21-2.97 5.7-5.09.38-.54.52-1.76.65-2.96 1.42 1.9 2.49 8.53 2.04 12.97 1.64-1.93 2.6-4.19 3.65-7.04 1.84 6.97.51 12.42-5 19.07 3.59-2.8 6.16-5.42 10.09-10.51-.059 2.545-.702 4.495-1.266 6.205-.57 1.73-1.06 3.216-.784 4.825.128.739.856 1.455 1.653 2.24 1.145 1.126 2.431 2.391 2.277 4.06-.179 1.936-1.294 3.182-2.25 4.251-.748.837-1.399 1.564-1.43 2.429-.05 1.235.832 2.18 1.588 2.989.59.632 1.103 1.182 1.032 1.721-.25 1.86-1.76 2.77-2.56 3.24-.72.43-4.58.48-6.99.34.62-1.95.82-4.15.59-6.86l-2.46-.17c.26 2.51.25 4.86-.63 6.78-.39.87-2.27 2.27-3.79 3.22-1.29.806-1.554.515-2.388-.405l-.142-.155c-.34-.368-.84-.837-1.349-1.315l-.001-.001c-.61-.573-1.233-1.158-1.61-1.594 1.33-1.05 2.49-2.26 3.56-3.56l-2.37-.85c-.207.221-.443.484-.704.774-1.874 2.088-5.023 5.595-8.026 5.156-.85-.12-3-1.29-3.48-2.59-.93-2.48.59-5.69 3.48-4.7 6.54 2.24 10.99.34 12.61-3.13 1.73-3.69 2.62-10.8-4.3-18.73 1.59-.93 2.41-2.71 2.38-3.9-5.25 4.9-16.79 6.28-30.85 5.76.85 1.36 2.11 2.32 3.47 3.22-5.01-.22-9.69-3.38-13.14-6.52.373 1.708.39 3.115.407 4.53v.001c.005.406.01.814.023 1.229-3.75-1.2-7.32-2.85-10.17-4.71-4.612-3.009-8.068-6.576-11.096-9.701-1.58-1.63-3.043-3.141-4.494-4.389l-.394-.342-.314-.276c-.975-.856-2.242-1.97-3.842-3.102-.698-.49-1.575-.964-2.454-1.438a38 38 0 0 1-1.866-1.052c-.557-.344-1.08-.683-1.587-1.011l-.004-.003c-2.203-1.426-4.119-2.667-7.369-3.406-9.58-2.2-17.99 1-25.24 4.5 7.01-1.81 13.79-3.13 19-2.81 4.89.3 9.34 2.38 12.96 4.51-4.95-.43-8.98-.67-13.63-.1-4.531.544-8.662 2.071-12.334 3.428-.713.263-1.408.52-2.086.762-5.52 1.97-11.1 4.49-16.12 7.12-1.014.53-2.015 1.066-3.024 1.605-4.852 2.595-9.875 5.281-17.276 7.905-5.03 1.79-10.55 3.34-17.39 4.7-.78-2.47-2.87-4.25-5.17-6.1 1.71-1.03 3.46-2.16 4.83-4.24 1.46-2.22 2.31-4.96 2.21-8.9.3.489.702 1.007 1.114 1.537.827 1.064 1.693 2.179 1.846 3.213 2.32-3.72 3.72-6.88 4.44-9.59.93-3.49.48-5.98-.11-8.47 1.355 1.032 2.171 2.515 2.825 3.704q.206.378.395.706m82.818 3.583-.088-.103-.01.01zm0 0c5.488 6.405 6.878 7.648 9.972 10.414.352.315.726.649 1.13 1.013 1.703 1.533 3.268 2.574 5.322 3.94.974.648 2.058 1.369 3.318 2.25-2.038-2.471-4.018-4.332-6.455-6.622l-.115-.108c-1.765-1.665-3.548-3.024-5.479-4.494-2.287-1.742-4.78-3.642-7.693-6.393m23.252-1.273c-4.98-3.32-15.17-9.26-22.81-12h.01c5.26 1.23 11.28 3.8 15.52 5.87 2.616 1.277 4.84 2.626 7.045 3.964 5.307 3.219 10.504 6.372 20.775 8.286-6.96.12-13.21-1.24-20.54-6.12m-107.146 19.829c-3.706.91-7.205 1.769-11.754 3.371h-.01c3.07-2.06 6.44-3.31 10.19-4.48 2.179-.676 4.131-1.145 6.137-1.626 5.261-1.262 10.891-2.612 21.923-8.034-9.2 5.6-13.75 7.34-19.83 9.05-2.432.683-4.577 1.209-6.656 1.719m18.23-30.456c-4.782 1.167-9.651 2.355-15.404 2.997h.01c3.9.28 6.73.21 10.77-.34 3.737-.503 6.532-1.257 9.505-2.06 5.365-1.448 11.312-3.054 24.425-3.62-11.1-.7-16.62.16-23.29 1.61-2.029.439-4.015.924-6.016 1.413" clip-rule="evenodd"></path><path fill="#F5A719" d="M306.19 195.2c-8.13-1.33-19.87 3.27-24.5 13.48.854-.444 1.577-.84 2.245-1.206 1.124-.616 2.092-1.147 3.265-1.674-.407 1.886-.872 3.962-1.303 5.889a669 669 0 0 0-.987 4.451c2.57-3.3 4.72-5.59 7.88-7.96-.495 1.224-1.065 2.548-1.511 3.587l-.001.001-.006.013-.432 1.009c-.287.677-.58 1.146-.848 1.574-.515.825-.936 1.499-1.042 3.216-.114 1.968.684 2.811 1.372 3.536.699.738 1.283 1.356.678 2.914-.88 2.26-4.52 5.93-10.3 5.78-.83-.02-2.42-.03-3.59.49-.503.225-.886.513-1.282.813-.786.593-1.627 1.228-3.568 1.487-2.02.27-5.19.21-7.4-.31-3.03-.71-4.98-2.2-4.81-4.16.11-1.26.81-2.52 2.27-4.36.46-.58.65-1.03-.96-1.21l-.074-.009c-2.502-.287-4.878-.559-6.136-.331-1.61.3-3.94 2.77-3.76 3.63.29 1.37 1.53 3.01 3.75 5.01 2.84 2.547 6.018 3.178 9.431 3.856 2.657.528 5.456 1.084 8.349 2.594 2.2 1.15 4.46 2.52 6.48 4.95.714-.061 1.243-.178 1.804-.302.548-.121 1.126-.249 1.936-.338.839-.091 1.642-.104 2.468-.117 1.261-.02 2.572-.041 4.132-.343-.565-.395-1.087-.685-1.61-.975-.522-.29-1.045-.58-1.61-.975l.59-1.36c5.39.88 12.15-.29 16.53-1.95-3.39-1.02-5.71-1.87-7.29-2.88 5.8-.66 13.18-2.08 16.1-4.07-2.52-1.06-5.13-2.56-6.52-4.07 3.79.19 8.75-.64 12.04-2.63-6.4-1.59-9.39-3.8-9.96-6.43-.72-3.38 1.44-7.28 8.52-11.79-.755-.851-1.648-1.705-2.495-2.514-.667-.637-1.305-1.247-1.825-1.806-7 .28-11.07 5.62-10.85 14.49-1.98-5.66-.95-9.68 1.16-12 1.87-2.05 4.78-3.6 8.24-3.52-1.153-1.1-2.842-2.271-4.109-3.15l-.461-.32z"></path><path fill="#F5A719" d="M258.45 235.41c-2.93-.97-5.18-2.89-7.02-5.37v.01c-3.56 2.85-.09 7.89 3.81 9.91.917.472 2.267.801 3.614 1.129 1.253.306 2.505.612 3.406 1.031 4.87 2.26 8.73 3.49 14.26.46-4.325-4.131-8.889-5.077-13.191-5.968-1.676-.347-3.312-.686-4.879-1.202M135.9 159.37c-6.11 1.44-7.6 4.67-7.02 7.39.51 2.37 2.6 4.7 4.76 6.26 1.218.877 2.388 1.408 3.359 1.847l.001.001c.711.322 1.315.596 1.75.922 5.5 4.11 10.64 6.2 16.63 7.64 2.913.696 6.145 1.031 9.046 1.331 2.557.265 4.857.503 6.454.939-6.21 3.79-13.75 9.11-11.78 21.97 1.66-2.12 3.01-3.43 6.54-5.04-1.41 3.08-2.47 6.77-1.22 9.43-8.38-2.14-15.98-10.98-17.6-15.81-.82-2.45-.92-4.69-.8-8.04-1.83 4.11-1.8 8.5-1.59 13.72-6.61-4.52-8.98-8.12-8.79-16.54-1.77 2.85-2.66 4.97-3.22 9.22-2.15-2.43-3.97-5.6-5.13-8.28 2.68-2.35 3.44-3.41 3.43-5.46-.016-2.277-1.061-4.042-2.667-6.755-.39-.658-.813-1.374-1.263-2.165-3.12-5.48-7.57-13.35.25-17.57 1-.54 1.32-.63 2.21-.07.404.251.8.561 1.204.877.577.452 1.169.915 1.816 1.233.455.213.859.219 1.32.226.188.003.386.006.6.024.15 1.04.79 1.77 1.71 2.7"></path><path fill="#F5A719" d="M125.533 174.088c-2.215-3.684-4.879-8.115-4.963-13.128l-.01-.02c-1.5-.05-3.33.4-4.15 1.36-.011.552.191 1.084.392 1.611.151.4.302.798.358 1.199.445 3.221 1.178 4.124 2.285 5.489.336.415.707.873 1.115 1.451-3.87-2.51-5.17-4.63-5.51-8.81-3.5 4.66-.86 12 1.72 15.16 3.12 3.82 6.73 5.12 9.39 6.03q.161-.147.336-.301c.8-.708 1.762-1.561 1.954-2.809.291-1.894-1.174-4.331-2.917-7.232M116.42 159.6l.009-.002.001.002z"></path><path fill="#F5A719" d="M116.429 159.598c1.515-.479 2.614-.708 4.061-.758.79-1.64 2.44-5.23 1.61-6.61-.59-.98-6.62.34-6.86 2.12-.24 1.729.14 3.359 1.189 5.248M114.55 160.54c-.93 1.02-2.54 2.96-2.88 4.66a94 94 0 0 0-1.669-1.099c-1.207-.783-2.33-1.512-3.501-2.461-.89-.72.1-2.4 1.42-3.68 1.33-1.28 2.9-2.17 3.67-1.32.96 1.07 1.95 2.32 2.96 3.9M111.25 166.97c-.25 1.44.03 4.1.59 6.27-3.05-.17-5.84-.8-6.78-2.29-1.01-1.61.76-3.9 2.46-4.75 1.023-.507 2.441.157 3.521.662l.209.098zM103.49 166.97c.33-.56.86-1.21 1.57-1.73-2.64-.58-5.07-.2-6.91 1.61 2.4-.42 3.83-.32 5.34.12M108.41 155.18c-.83.28-1.29.57-1.77 1-1.3-.88-2.29-1.12-4.71-1.46 2.6-.95 4.14-.91 6.48.45zM121.14 150.22c.65.03 1.35.2 2.13.59-.68-2.61-2.12-3.95-4.54-4.95 1.33 1.44 2.12 2.82 2.41 4.36M138.25 157.81c-1.23.43-2.2-1.68-1.5-2.29.82-.72 1.3-1.91 1-3.36 2.2 1.35 2.31 4.32.5 5.65M130.626 216.26c-1.246.425-2.932 1-3.656 1.31 1.79 1.99 4.14 4.5 8.43 4.66-.016-.359-.035-.669-.051-.942l-.001-.003v-.001c-.082-1.36-.109-1.807.432-2.864-.448-.366-.879-.753-1.299-1.129-.555-.498-1.091-.978-1.621-1.371-.31-.24-1.02-.07-2 .26zM129.34 238.81c-.95 1.31-1.41 3.41-1.31 4.7.93-1.35 1.7-2.12 3.43-3.43-.92-1.14-1.5-1.36-2.12-1.27M116.48 235.26c.85-2.3 1.92-3.07 3.67-3.72-.15.78-.24 1.41-.06 1.96-1.17.12-2.16.5-3.61 1.76M121.62 219.46c-1.31-.28-3.16.05-4.24.77 1-.02 2.26.07 3.19.48.17-.315.418-.578.776-.957zM132.79 210.58c1.14.78 2.84 2.87 3.31 4.42h.01c-.492.191-.838-.034-1.245-.3-.404-.263-.868-.565-1.595-.54.15-.74-.2-2.44-.48-3.58M249.21 225.51c-1.18-1.04-2.7-2.05-4.31-2.51-.313.157-.626.295-.935.432-1.033.458-2.028.899-2.875 1.938 1.7 1.92 2.12 3.25 1.61 5.25a78 78 0 0 1 3.21.004h.009a81 81 0 0 0 2.301.016c.37-.82.97-1.61 1.84-2.31-.38-.66-.67-1.35-.81-2.05-.05-.26-.07-.52-.04-.77M243.38 232.66h4.37c-.06 1.78.68 3.62 1.82 5.21-1.52.47-2.55.72-4.75.64-1.37-.41-2.39-1.4-2.63-2.03.17-1.62.57-2.89 1.19-3.82M250.92 239.45c-.304.143-.626.277-.936.406-.906.377-1.713.712-1.684 1.114.13 1.81 1.35 3.83 3.3 4.23 2 .42 4.9-.31 4.79-2.5-.75-.22-1.49-.48-2.15-.82-.94-.49-1.82-1.1-2.62-1.79-.24-.21-.48-.43-.7-.66zM244.088 243.579c-.266-1.148-.436-1.879-.148-3.059l.083.026.104.031.033.01.04.013.27.09h.28c.5.02.95.02 1.37 0v.43c.02.27.06.53.11.8-1.02.5-1.58.99-2.08 1.93l-.033-.144zM240.14 235.32c-1.28-.02-2.84.12-4.14.64.96-1.98 3.05-2.5 4.59-2.49-.2.6-.34 1.22-.45 1.85M237.76 223.09c.61.36 1.16.64 1.66.88.37-.46.74-.81 1.11-1.11-.95-.13-1.94-.09-2.77.23M260.37 220.23c-.44-1.01-.98-2.09-1.81-2.81 1.64.54 2.96 1.84 3.74 3.07-.22-.05-.45-.09-.68-.11-.38-.05-.8-.1-1.24-.15zM368.152 230.634c.194.247.43.548.758 1.096v-.01l.532.108c3.029.615 4.71.956 6.848.152a10 10 0 0 0-.895-.659c-.718-.49-1.473-1.004-1.645-1.651-.106-.404-.184-.826-.267-1.272-.246-1.321-.531-2.851-1.683-4.728-1.064.674-1.795 1.248-2.878 2.101-.331.26-.695.546-1.112.869-.55.42-.8 1.38-.51 2.29.32 1.028.526 1.29.852 1.704M362.47 235.05l-.011.005.001-.005zM362.459 235.055a6.5 6.5 0 0 0-.239 2.325c-.91.16-2.3.63-4.25 1.81.699-1.657 2.543-3.204 4.489-4.135M372.28 245.87c-.15-1.8.46-3.43 1.53-4.72.08-.07.17-.14.26-.21l1.5 1.53c-.75.45-1.93 1.33-3.29 3.4M389.29 242.21l.002.01h-.012zM389.292 242.22h1.438c-.06.89.08 1.94.33 3.54-.947-1.057-1.566-2.264-1.768-3.54M368.56 223.38c-1.35-.19-3.09.21-4.38 1.5 1.294-.24 1.918-.047 2.513.136l.077.024zM198.97 159.01l-.005-.013.005.003zM198.965 158.997c-1.059-2.724-2.408-4.89-4.355-7.067-.63-.7-3.34.58-4.37 1.82-.06.42-.08 1.21-.07 1.75.01.52.14.85.76.88 2.149.12 4.398.29 8.035 2.617M179.013 158.543c6.459-.632 13.539-1.324 17.667 1.657-.503-.093-1.081-.103-1.711-.113-.922-.015-1.955-.032-3.019-.317-2.129-.574-3.947-.203-5.714.158-.664.136-1.322.27-1.986.352-1.208.15-2.469.108-3.699.067-1.233-.042-2.435-.082-3.521.073-1.127.16-2.18.406-3.193.643-1.843.431-3.552.83-5.327.617-3.2-.39-7.53-2.14-9.52-4.51-.13-.15-.12-1.36.05-2.65.1-.73 1.34-.73 1.44 0 .421 3.165 1.957 3.441 5.615 4.097l.515.093c2.47.44 7.38.32 12.02-.13zM196.17 144.37c.3-.62 1.65-.38 2.33-.24.82.17 1.66 1.06 1.4 1.3-.38.36-1.05.69-2.29.34-.76-.21-1.65-.96-1.44-1.4M255.64 432.84c-17.82 5.5-24.59 20.89-26.8 27.06-.33.91-1.16 1.14-2.05.43-1.69-1.34-4.14-3.62-5.56-5.29q-.083-.097-.157-.181c-.4-.457-.601-.687-.343-1.479 1.83-5.75 8.67-14.16 13.62-17.86 6.38-4.76 13.84-6.89 21.37-4.05.75.28.68 1.14-.09 1.38zM225.76 440.18c-3.79 4.62-4.75 6.23-6.74 10.18-.21.42-.76 1.1-1.62.43-.68-.53-1.43-1.45-1.9-2.24-.52-.87-.34-1.47.21-2.23 2.65-3.62 5.43-7 8.86-9.45 1.46-1.04 2.22 2.06 1.2 3.31z" data-source="https://football-logos.cc"></path><path fill="#F5A719" d="M233.02 463.72c-.97-.43-1.16-1.48-.77-2.32 6.68-14.34 16.59-26.43 34.48-25.22 2.33 1.47 6.26 4.86 8.19 7.31.65.81.52 1.75-.51 1.8-15.07.84-23.39 8.17-28.12 18.3-.44.93-.91 1.56-1.92 1.72-3.09.48-7.64.03-11.35-1.59M213.92 476.98c13.64 12.78 30.27 10.99 36.68 9.83.95-.17 1.56.44 1.39 1.57-.31 2.14-1.05 5.42-1.78 7.49l-.068.204c-.195.592-.292.886-1.112 1.066-5.86 1.27-16.51-.48-22.18-2.95-7.28-3.18-12.85-8.62-14.17-16.6-.13-.79.64-1.16 1.23-.61zM247.31 500.13c-4.39.23-7.79.04-13.67-.96l.01.01c-1.58-.27-1.91 1.86-.29 2.61 3.82 1.76 7.78 2.58 12.21 3.08.93.1 1.54-.04 2.03-.93.44-.81.78-1.75.89-2.61.15-1.09-.71-1.22-1.18-1.2"></path><path fill="#F5A719" d="M250.19 483.08c.92-.08 1.74-.77 1.61-1.83-.46-4.05-2.36-8.23-4.31-10.69-.64-.8-1.42-.9-2.44-.82-11.08.94-21.55-2.65-29.8-15.36-.56-.87-1.43-.51-1.81.46-1.14 2.91-2.09 8.03-2.19 10.79 7.91 16.2 23.26 18.79 38.94 17.45M262.81 454.29c4.2 5.01 14.06 18.61 9.88 36.89-.18.78.52 1.27 1.14.76 6.21-5.15 8.11-12.71 7.2-20.65-.7-6.17-4.52-16.33-8.55-20.8-.563-.616-.871-.554-1.465-.434l-.225.044c-2.14.4-5.33 1.39-7.33 2.19-1.05.43-1.27 1.26-.65 2M281.64 462.34c-1.31-4.76-3.33-8.2-5.73-11.83-.26-.39-.57-1.21.44-1.62.79-.33 1.96-.52 2.88-.54 1.01-.02 1.44.44 1.81 1.3 1.79 4.12 3.22 8.23 3.62 12.44.16 1.79-2.59 1.8-3.02.25"></path><path fill="#F5A719" d="M257.42 456.03c.85-.63 1.86-.27 2.38.49v.01c8.98 13 14.43 27.51 4.45 42.49-2.42 1.3-7.31 3.03-10.38 3.49-1.01.15-1.76-.43-1.29-1.35 6.82-13.55 4.67-24.3-1.68-33.49-.59-.85-.89-1.58-.52-2.54 1.13-2.93 3.79-6.67 7.04-9.1M168.79 292.37c-17.82 5.49-24.59 20.89-26.8 27.06-.32.91-1.16 1.13-2.05.43-1.69-1.34-4.14-3.63-5.55-5.29l-.15-.173c-.405-.464-.61-.7-.35-1.497 1.83-5.75 8.66-14.15 13.62-17.86 6.38-4.76 13.83-6.89 21.37-4.05.75.28.68 1.14-.08 1.38zM138.92 299.71c-3.79 4.62-4.75 6.24-6.74 10.18-.21.42-.76 1.1-1.62.43-.68-.53-1.43-1.45-1.9-2.24-.52-.87-.34-1.47.21-2.23 2.65-3.62 5.43-7 8.86-9.45 1.46-1.04 2.21 2.06 1.2 3.31z"></path><path fill="#F5A719" d="M146.17 323.25c-.97-.42-1.16-1.48-.77-2.32h-.01c6.69-14.33 16.59-26.42 34.48-25.21 2.34 1.46 6.27 4.86 8.2 7.3.64.81.52 1.75-.51 1.8-15.06.84-23.39 8.17-28.12 18.3-.43.94-.9 1.56-1.92 1.72-3.09.48-7.64.03-11.35-1.59M127.07 336.51c13.64 12.78 30.27 10.99 36.69 9.83.95-.17 1.55.44 1.39 1.57-.31 2.14-1.06 5.41-1.78 7.49l-.071.21c-.193.58-.293.881-1.109 1.06-5.86 1.28-16.51-.48-22.18-2.94-7.29-3.18-12.85-8.62-14.17-16.6-.13-.79.64-1.16 1.22-.61zM160.46 359.66c-4.4.23-7.79.03-13.67-.96h.01c-1.58-.28-1.91 1.85-.28 2.6 3.82 1.77 7.77 2.59 12.21 3.09.92.1 1.54-.04 2.02-.93.44-.8.77-1.75.89-2.6.15-1.09-.72-1.22-1.18-1.2"></path><path fill="#F5A719" d="M163.34 342.61c.91-.08 1.73-.77 1.61-1.83-.46-4.05-2.35-8.24-4.31-10.69-.64-.8-1.42-.91-2.44-.82-11.08.95-21.56-2.65-29.81-15.36-.57-.87-1.43-.51-1.81.46-1.14 2.91-2.1 8.03-2.19 10.79 7.9 16.2 23.26 18.78 38.94 17.45zM175.95 313.82c4.21 5.01 14.07 18.61 9.89 36.89l-.01-.01c-.18.78.53 1.27 1.14.76 6.21-5.15 8.11-12.71 7.2-20.65-.7-6.17-4.52-16.33-8.55-20.8-.554-.616-.861-.554-1.455-.434l-.225.044c-2.14.41-5.34 1.4-7.33 2.2-1.06.42-1.28 1.26-.66 2M194.8 321.86c-1.31-4.76-3.33-8.2-5.73-11.82-.26-.39-.57-1.21.44-1.63.79-.33 1.96-.52 2.88-.54 1.01-.02 1.44.44 1.81 1.3 1.79 4.12 3.22 8.23 3.61 12.44.17 1.79-2.59 1.8-3.01.25"></path><path fill="#F5A719" d="M170.57 315.56c.85-.63 1.86-.27 2.38.49h.01c8.98 13 14.44 27.5 4.45 42.49-2.42 1.3-7.31 3.03-10.38 3.49-1.02.15-1.77-.42-1.3-1.35 6.82-13.54 4.68-24.29-1.68-33.48-.59-.85-.89-1.58-.52-2.54 1.13-2.93 3.78-6.67 7.04-9.1M342.25 292.37c-17.82 5.49-24.59 20.89-26.8 27.06-.33.91-1.16 1.13-2.05.43-1.69-1.34-4.14-3.63-5.56-5.29l-.15-.173c-.404-.464-.61-.7-.35-1.497 1.83-5.75 8.67-14.15 13.62-17.86 6.38-4.76 13.84-6.89 21.37-4.05.75.28.68 1.14-.09 1.38zM312.38 299.71c-3.79 4.62-4.75 6.24-6.74 10.18-.21.42-.76 1.1-1.62.43-.68-.53-1.43-1.45-1.9-2.24-.52-.87-.34-1.47.22-2.23 2.65-3.62 5.43-7 8.85-9.45 1.46-1.04 2.22 2.06 1.2 3.31z"></path><path fill="#F5A719" d="M319.64 323.25c-.97-.42-1.16-1.48-.77-2.32 6.68-14.33 16.59-26.42 34.48-25.21 2.33 1.46 6.26 4.86 8.19 7.3.65.81.52 1.75-.51 1.8-15.07.84-23.39 8.17-28.12 18.3-.43.94-.91 1.56-1.92 1.72-3.09.48-7.64.03-11.35-1.59M300.53 336.51c13.64 12.78 30.27 10.99 36.68 9.83.95-.17 1.56.44 1.39 1.57-.31 2.14-1.05 5.41-1.78 7.49l-.071.21c-.193.58-.292.881-1.109 1.06-5.86 1.28-16.51-.48-22.18-2.94-7.28-3.18-12.85-8.62-14.17-16.6-.13-.79.64-1.16 1.23-.61zM333.92 359.66c-4.39.23-7.79.03-13.67-.96h.01c-1.58-.28-1.91 1.85-.29 2.6 3.82 1.77 7.78 2.59 12.21 3.09.93.1 1.54-.04 2.03-.93.44-.8.78-1.75.89-2.6.15-1.09-.71-1.22-1.18-1.2"></path><path fill="#F5A719" d="M336.8 342.61c.92-.08 1.73-.77 1.61-1.83-.46-4.05-2.36-8.24-4.31-10.69-.64-.8-1.42-.91-2.44-.82-11.08.95-21.55-2.65-29.8-15.36-.56-.87-1.43-.51-1.81.46-1.14 2.91-2.09 8.03-2.19 10.79 7.91 16.2 23.26 18.78 38.94 17.45M349.42 313.82c4.2 5.01 14.06 18.61 9.88 36.89v-.01c-.18.78.52 1.27 1.14.76 6.21-5.15 8.11-12.71 7.2-20.65-.7-6.17-4.52-16.33-8.55-20.8-.563-.616-.871-.554-1.465-.434l-.096.019-.129.025c-2.14.41-5.33 1.4-7.33 2.2-1.05.42-1.27 1.26-.65 2M368.26 321.86c-1.31-4.76-3.33-8.2-5.73-11.82-.26-.39-.57-1.21.44-1.63.79-.33 1.96-.52 2.88-.54 1.01-.02 1.44.44 1.81 1.3 1.79 4.12 3.22 8.23 3.62 12.44.16 1.79-2.59 1.8-3.02.25"></path><path fill="#F5A719" d="M344.04 315.56c.85-.63 1.86-.27 2.38.49 8.98 13 14.43 27.5 4.45 42.49-2.42 1.3-7.31 3.03-10.38 3.49-1.01.15-1.76-.42-1.29-1.35 6.82-13.54 4.67-24.29-1.68-33.48-.59-.85-.89-1.58-.52-2.54 1.13-2.93 3.79-6.67 7.04-9.1M412.34 43.48c-5.539-4.949-13.437-8.049-21.375-8.05h.005-.01.005c-17.058.003-29.845 12.832-29.845 29.27 0 16.44 11.91 29.52 29.85 29.52 8.96 0 17.38-3.84 23.15-10.01l-7.76-10.47c-3.32 3.94-8.99 7.25-14.49 7.25-9.58 0-15.97-7.4-15.97-16.51s5.84-16.09 15.43-16.09c4.43 0 9.92 2.4 14.19 5.85zM321.08 36.27l-35.15.03v56.66h14.16V71.93h17.26V60.11h-17.26V48.35h20.99zM204.75 36.3h-14.37v36.33c0 10.54 7.66 21.3 24.28 21.3s23.57-11.41 23.57-20.96V36.3h-14.37v35.65c0 5.14-2.99 9.31-9.54 9.22-6.55-.08-9.57-4.73-9.57-8.88zM87.37 36.6h15.33l8.8 25.73 2.07 6.77 2.08-6.77 8.8-25.73h15.35l4.58 56.65h-14.46l-1.55-26.92-.04-6.42-8.73 24.31h-12.05L98.8 59.86l-.23 7.31-1.74 26.08H82.21z" data-source="https://football-logos.cc"></path><!-- source: https://football-logos.cc --></svg>