<svg xmlns="http://www.w3.org/2000/svg" viewBox="40.34 164.21 514.59 513.46"><!-- Source: https://football-logos.cc --><path d="m466.054 358.109 41.66-10.474 4.18 16.63c3.031 12.057-5.019 16.119-16.468 18.996-13.022 3.273-21.674 5.467-25.516-9.814zm10.237 7.446 1.55 5.979c2.051 7.92 9.045 6.08 14.955 4.595 6.36-1.598 13.533-3.753 11.398-12.248l-1.361-5.417zM448.589 323.192l37.92-20.183 14.15 26.186-7.754 4.127-9.32-17.115-6.698 3.565 8.31 15.57-7.594 4.043-8.311-15.57-8.122 4.323 9.252 17.69-7.752 4.126zM430.553 300.013l26.946-21.117-7.098-9.056 6.866-5.38 20.534 26.2-6.866 5.381-7.097-9.056-26.946 21.117zM409.271 281.23l27.205-33.246 7.953 6.508-27.204 33.245zM371.054 256.217l21.631-37.113 9.603 5.597-.558 16.006a203 203 0 0 1-.4 7.673c-.176 2.502-.39 4.96-.65 7.344a461 461 0 0 1 4.312-8.044 290 290 0 0 1 3.68-6.535l5.535-9.498 8.59 5.007-21.632 37.113-9.595-5.592.5-16.514q.088-2.921.288-6.504.186-3.591.484-7.706a228 228 0 0 1-3.566 6.97 169 169 0 0 1-3.114 5.618l-6.518 11.184zM341.459 201.384l9.734 2.728-7.237 25.82c-.798 2.848-.863 5.012-.189 6.504q.998 2.234 4.494 3.214c2.304.645 4.113.501 5.456-.426 1.333-.929 2.402-2.811 3.2-5.659l7.237-25.82 9.842 2.758-6.885 24.564q-1.455 5.193-3.262 8.02c-1.215 1.884-2.743 3.337-4.594 4.35a15.5 15.5 0 0 1-6.247 1.837c-2.233.17-4.614-.094-7.16-.808-2.537-.71-4.709-1.723-6.527-3.028a15.5 15.5 0 0 1-4.383-4.817c-1.067-1.85-1.63-3.911-1.707-6.156-.065-2.252.384-5.094 1.343-8.517zM246.573 204.389l10.98-2.38 22.963 38.978-10.798 2.34-4.063-7.189-13.12 2.843-.567 8.193-10.426 2.26zm6.48 25.372 8.579-1.86-7.504-13.524zM192.671 272.94a16.44 16.44 0 0 1-5.557 7.947c-11.516 8.958-19.496.995-28.115-8.022-8.278-8.66-11.486-17.344.076-26.552 10.559-8.408 19.192-1.149 27.352 9.082 3.404 4.268 6.605 7.253 6.76 12.308l4.706.233-.22 5.288zm-7.717-.465-6.91-.27.354-5.455 7.067.514c-1.065-2.847-4.143-5.769-5.998-7.57-7.35-7.144-9.825-11.84-16.127-7.316-7.843 5.629.196 12.796 5.45 17.993 5.787 5.725 8.575 8.674 12.71 5.706 1.342-.962 2.896-1.981 3.454-3.602M147.497 323.096l-34.113-27.664 11.643-14.464c4.272-5.306 11.47-8.12 18.675-2 5.553 4.716 5.442 8.259 3.55 13.348 1.46-.133 22.414 3.02 22.677 3.236l-6.942 8.7c-2.562-.954-19.037-5.428-20.513-3.58l-3.38 4.227 13.958 11.147zm-13.69-22.462 5.336-6.76c2.244-2.843 2.436-5.971-.603-8.472-2.638-2.17-7.25-.55-8.95 1.664l-4.99 6.5zM107.6 350.603c-10.859-5.845-19.295-10.28-11.444-24.867 6.412-11.915 16.962-9.5 28.167-3.47s17.842 12.174 11.43 24.09c-8.57 15.922-16.755 10.38-28.152 4.247m5.185-6.62c5.66 3.046 12.645 5.804 16.002-1.134 3.473-7.176-3.373-9.774-9.066-12.838-5.676-3.055-12.716-7.174-16.365-.393-3.653 6.788 3.769 11.32 9.43 14.366M122.665 382.496l-33.445-7.305-2.455 11.24-8.522-1.861 7.104-32.522 8.522 1.861-2.456 11.242 33.445 7.305z" style="fill:#e30016;fill-rule:evenodd" data-source="https://football-logos.cc"></path><path d="m443.639 532.445 4.934-7.6 22.126 14.624c3.94 2.604 6.908 2.617 9.927-1.079 2.647-3.986 1.532-7.976-2.406-10.496l-22.022-14.093 4.776-7.493 22.098 14.622c7.93 5.247 10.522 12.157 4.97 21.058-5.69 8.37-13.024 10.775-20.806 5.736zM402.656 579.03c-5.592 3.9-.249 11.402 2.42 15.228 2.639 3.78 7.929 11.36 13.647 7.318 4.596-3.248 2.974-5.82 1.202-8.794l7.43-4.496c3.456 5.657 4.958 14.546-3.693 20.286-10.23 6.787-19.73 1.534-26.347-8.785-6.117-9.539-9.625-19.77.88-27.202 7.711-5.456 15.328-2.901 21.553 3.795l-7.365 4.469c-3.025-2.729-5.207-4.522-9.727-1.82M302.687 645.89l-3.157-42.333 8.717-.556 2.667 34.664 18.002-1.568.49 7.668zM249.62 641.258l20.127-39.21 7.42.889 9.953 43.448-8.972-.714-1.823-9.006-13.914-1.82-4.024 8.196zm15.399-12.524 9.915 1.424-2.838-16.33zM206.077 626.887l15.604-39.473 14.985 5.977c6.778 2.704 10.636 7.033 7.935 15.25-1.085 3.3-2.679 5.275-7.097 5.634 3.292 4.594 2.747 6.906 1.37 11.375-2.913 9.453-11.037 9.89-21.24 5.833zm16.287-20.768 3.499 1.541c4.319 1.904 9.642 2.876 10.993-1.39 1.38-4.36-3.097-6.434-7.317-7.865l-3.494-1.185zm-6.07 17.019 3.438 1.371c4.628 1.844 9.796 3.363 11.747-1.21 2.124-4.98-3.428-7.647-8.626-9.294l-2.508-.794z" style="fill:#fed104;fill-rule:evenodd"></path><path d="m172.945 608.948 19.338-29.394-8.531-5.302 3.93-6.322 24.48 15.215-3.93 6.322-8.53-5.302-19.339 29.394z" style="fill:none"></path><path d="M118.22 518.938c10.012-6.746 18.27-10.409 26.527 1.844 8.394 12.457-.202 17.565-9.702 23.966-10.011 6.746-17.211 12.281-26.058-.157-8.284-11.646-1.578-18.368 9.233-25.653m4.79 7.966c-4.376 2.948-12.01 7.294-7.756 13.607 4.21 6.25 10.472.603 14.798-2.312 4.339-2.923 12.088-7.508 7.857-13.787s-10.56-.432-14.9 2.492" style="fill:#fed104;fill-rule:evenodd"></path><path d="m81.517 490.483 40.184-15.933 10.1 25.179-6.848 2.759-6.836-17.077-9.911 3.993 6.319 14.945-6.682 2.693-6.319-14.946-16.743 6.488z" style="fill:none"></path><path d="m187.472 227.201 9.009-4.587 12.168 23.896c1.342 2.635 2.76 4.271 4.266 4.912q2.248.967 5.483-.68c2.132-1.086 3.365-2.417 3.725-4.009.351-1.587-.137-3.696-1.48-6.33l-12.167-23.897 9.108-4.638 11.576 22.734q2.447 4.804 3.033 8.11c.382 2.207.242 4.312-.433 6.31a15.5 15.5 0 0 1-3.35 5.584c-1.528 1.638-3.459 3.057-5.814 4.256-2.348 1.196-4.631 1.922-6.854 2.194a15.5 15.5 0 0 1-6.487-.574c-2.038-.638-3.848-1.773-5.425-3.372q-2.362-2.421-4.782-7.175z" style="fill:#e30016;fill-rule:evenodd"></path><path d="m131.802 499.729-10.101-25.18-40.184 15.934 3.264 8.101 16.743-6.488 6.319 14.946 6.681-2.693-6.318-14.945 9.91-3.994 6.837 17.078zM144.102 555.323c8.381-8.69 15.692-13.996 26.327-3.74 10.812 10.428 3.474 17.22-4.48 25.465-8.38 8.689-14.264 15.606-25.515 5.291-10.535-9.657-5.382-17.633 3.668-27.016m6.349 6.79c-3.663 3.797-10.22 9.642-4.741 14.927 5.424 5.23 10.367-1.599 13.988-5.353 3.632-3.766 10.252-9.869 4.803-15.125s-10.418 1.785-14.05 5.551M192.283 579.554l-19.338 29.394 7.418 4.61 19.338-29.393 8.53 5.302 3.93-6.322-24.48-15.215-3.93 6.322zM347.888 640.25l-11.207-40.945 8.448-2.216 9.258 33.512 17.368-4.987 1.95 7.432zM449.193 588.102l-30.204-29.83 6.204-6.148 24.794 24.372 12.537-13.014 5.409 5.457zM504.929 509.667l-40.09-13.946 5.349-15.22c2.418-6.885 6.584-10.92 14.906-8.564 3.343.946 5.382 2.456 5.924 6.856 4.453-3.48 6.786-3.033 11.309-1.843 9.565 2.517 10.341 10.616 6.712 20.978zM483.5 494.26l1.395-3.56c1.721-4.395 2.471-9.754-1.847-10.926-4.414-1.197-6.3 3.363-7.554 7.638l-1.038 3.54zm17.257 5.356 1.227-3.493c1.65-4.7 2.952-9.928-1.698-11.686-5.064-1.915-7.498 3.743-8.926 9.005l-.69 2.54z" style="fill:#fed104;fill-rule:evenodd"></path><path d="M297.636 276.12c-39.969 0-76.145 16.265-102.323 42.561-26.186 26.305-42.383 62.66-42.383 102.827s16.197 76.522 42.383 102.827c26.178 26.296 62.354 42.561 102.323 42.561 39.97 0 76.146-16.265 102.323-42.56 26.187-26.306 42.383-62.66 42.383-102.828s-16.196-76.522-42.383-102.827c-26.177-26.296-62.353-42.56-102.323-42.56m-110.34 34.588c28.248-28.375 67.26-45.926 110.34-45.926s82.093 17.55 110.34 45.926c28.239 28.367 45.705 67.541 45.705 110.8s-17.466 82.433-45.705 110.8c-28.247 28.376-67.26 45.927-110.34 45.927s-82.092-17.551-110.34-45.927c-28.238-28.367-45.704-67.541-45.704-110.8s17.466-82.433 45.704-110.8m110.342-135.156c-67.939 0-129.435 27.404-173.94 71.709-44.495 44.296-72.016 105.504-72.016 173.122 0 67.688 27.62 129.227 72.238 173.812 44.546 44.513 106.037 72.143 173.905 72.143 67.84 0 129.21-27.601 173.646-72.07 44.566-44.6 72.123-106.169 72.123-173.885 0-67.618-27.522-128.826-72.017-173.122-44.504-44.305-106-71.71-173.94-71.71m-181.912 63.692c46.565-46.358 110.882-75.031 181.912-75.031s135.347 28.673 181.912 75.03c46.575 46.367 75.382 110.41 75.382 181.14 0 70.81-28.825 135.204-75.444 181.857-46.512 46.547-110.716 75.437-181.663 75.437-70.97 0-135.28-28.903-181.878-75.466-46.696-46.661-75.604-111.04-75.604-181.829 0-70.728 28.808-134.772 75.383-181.139m71.57 293.064c-28.19-28.32-45.646-67.41-45.704-110.582l-89.91-1.07c.074 67.58 27.68 129.014 72.238 173.538 44.546 44.513 106.037 72.144 173.905 72.144 67.84 0 129.21-27.601 173.646-72.07 44.507-44.542 72.05-106.007 72.123-173.618l-89.913.716v.142c0 43.259-17.466 82.433-45.705 110.8-28.247 28.376-67.26 45.927-110.34 45.927s-82.092-17.551-110.34-45.927M464.84 495.72l5.348-15.22c2.418-6.885 6.584-10.92 14.906-8.564 3.343.946 5.382 2.456 5.925 6.856 4.452-3.48 6.785-3.033 11.308-1.843 9.566 2.517 10.342 10.616 6.712 20.979l-4.11 11.738zm-8.642 18.08 4.776-7.493 22.098 14.622c7.93 5.247 10.522 12.157 4.97 21.058-5.69 8.37-13.024 10.775-20.806 5.736l-23.598-15.279 4.935-7.6 22.126 14.624c3.94 2.604 6.908 2.617 9.926-1.079 2.647-3.986 1.533-7.976-2.405-10.496zm-324.396-14.072-6.849 2.759-6.836-17.078-9.911 3.994 6.319 14.945-6.682 2.693-6.319-14.946-16.743 6.488-3.264-8.101 40.184-15.934zm55.88 68.2 24.48 15.216-3.93 6.322-8.53-5.302-19.339 29.394-7.418-4.611 19.338-29.394-8.531-5.302zm34 19.485 14.984 5.977c6.778 2.703 10.636 7.033 7.935 15.25-1.085 3.3-2.679 5.275-7.097 5.634 3.292 4.594 2.747 6.906 1.37 11.375-2.913 9.453-11.037 9.89-21.24 5.833l-11.557-4.596zm175.633 12.373c-6.117-9.539-9.625-19.77.88-27.202 7.711-5.456 15.328-2.901 21.553 3.795l-7.365 4.469c-3.025-2.729-5.207-4.522-9.727-1.82-5.592 3.901-.249 11.403 2.42 15.229 2.639 3.78 7.929 11.36 13.647 7.318 4.596-3.248 2.974-5.82 1.202-8.794l7.43-4.496c3.456 5.657 4.958 14.546-3.693 20.286-10.23 6.787-19.73 1.534-26.347-8.785m86.917-156.348h-2.088V432.17l-.374.318-.386.304-2.729 1.931v-2.049l4.24-3.153h1.337zm5.673-8.568a3.8 3.8 0 0 1-.467-.926 3.4 3.4 0 0 1-.166-1.06q0-.775.303-1.417c.204-.428.485-.797.852-1.105a4.1 4.1 0 0 1 1.31-.717 5.3 5.3 0 0 1 1.69-.256q.875-.001 1.625.235t1.296.687q.548.448.86 1.094.305.643.306 1.456 0 .544-.156 1.017a3.743 3.743 0 0 1-1.103 1.628q-.389.343-.855.622 1.331.548 1.948 1.394.61.849.61 2.104.002.9-.348 1.635a3.8 3.8 0 0 1-.959 1.266 4.4 4.4 0 0 1-1.448.82 5.4 5.4 0 0 1-1.8.288q-.899 0-1.71-.241a4.3 4.3 0 0 1-1.433-.724 3.5 3.5 0 0 1-.981-1.211q-.362-.73-.363-1.705 0-1.278.688-2.144.69-.873 1.912-1.438a3.9 3.9 0 0 1-.9-.549 3.7 3.7 0 0 1-.711-.753m10.564.698c-.226-.49-.337-1.06-.337-1.701 0-.644.108-1.236.326-1.785a4.15 4.15 0 0 1 .926-1.42c.403-.399.88-.71 1.444-.936a5 5 0 0 1 1.859-.337q1.083.001 1.918.326c.555.22 1.026.53 1.403.94q.571.61.867 1.478.3.868.3 1.939c0 .659-.119 1.376-.36 2.159a14.5 14.5 0 0 1-.988 2.41q-.638 1.24-1.503 2.47a21 21 0 0 1-1.896 2.327h-2.452a58 58 0 0 0 1.293-1.5q.615-.751 1.155-1.486.534-.735.962-1.449.435-.711.7-1.368a6 6 0 0 1-1.614.205 5.5 5.5 0 0 1-1.703-.256 3.9 3.9 0 0 1-1.378-.768 3.5 3.5 0 0 1-.922-1.248m11.216 0c-.226-.49-.337-1.06-.337-1.701 0-.644.108-1.236.326-1.785a4.15 4.15 0 0 1 .926-1.42c.403-.399.881-.71 1.444-.936a5 5 0 0 1 1.859-.337q1.084.001 1.918.326c.555.22 1.026.53 1.403.94q.572.61.867 1.478.3.868.3 1.939c0 .659-.119 1.376-.36 2.159a14.5 14.5 0 0 1-.988 2.41q-.638 1.24-1.503 2.47a21 21 0 0 1-1.896 2.327h-2.452q.67-.754 1.293-1.5.615-.751 1.155-1.486.534-.735.963-1.449.433-.711.7-1.368a6 6 0 0 1-1.615.205 5.5 5.5 0 0 1-1.703-.256 3.9 3.9 0 0 1-1.378-.768 3.5 3.5 0 0 1-.922-1.248m-92.696 122.704 6.204-6.148 24.794 24.371 12.537-13.014 5.409 5.457-18.74 19.163zm-274.242-37.49c8.394 12.456-.202 17.564-9.702 23.965-10.011 6.746-17.211 12.281-26.058-.157-8.284-11.646-1.578-18.368 9.233-25.653 10.012-6.746 18.27-10.409 26.527 1.844m25.682 30.8c10.812 10.428 3.473 17.22-4.48 25.465-8.38 8.689-14.265 15.606-25.515 5.291-10.535-9.657-5.382-17.633 3.668-27.016 8.381-8.69 15.692-13.996 26.327-3.74m-82.3-108.462h-7.963v-13.329h7.938v1.73H82.56v4.049h5.57v1.708h-5.57v4.134h5.57zm12.596-3.722q0 .811-.34 1.529a3.5 3.5 0 0 1-.996 1.244q-.655.532-1.638.837-.976.301-2.268.302-.63.001-1.251-.067a10 10 0 0 1-2.222-.495 6 6 0 0 1-.836-.366v-2.067c.265.158.571.313.929.468q.539.231 1.13.411c.394.123.785.218 1.175.295q.584.112 1.054.113.712 0 1.248-.148c.357-.098.66-.242.899-.425a1.75 1.75 0 0 0 .542-.665 1.94 1.94 0 0 0 .18-.843q0-.528-.227-.886a2.1 2.1 0 0 0-.647-.63 5 5 0 0 0-1.008-.484 38 38 0 0 0-1.319-.454 21 21 0 0 1-1.772-.664 5.5 5.5 0 0 1-1.302-.76 2.9 2.9 0 0 1-.806-.99c-.185-.373-.277-.82-.277-1.333q-.001-.843.407-1.529a3.65 3.65 0 0 1 1.105-1.163 5.6 5.6 0 0 1 1.642-.742 7.5 7.5 0 0 1 2.011-.264q1.147.001 2.071.176.92.175 1.684.44v1.852a9 9 0 0 0-.823-.278 14 14 0 0 0-.987-.239c-.344-.074-.688-.13-1.033-.176a8 8 0 0 0-.987-.066c-.437 0-.82.045-1.16.14a2.7 2.7 0 0 0-.852.387 1.61 1.61 0 0 0-.71 1.35q.001.46.236.798.233.332.663.597a6 6 0 0 0 1.038.482q.61.222 1.36.47.963.317 1.718.665.757.342 1.281.791t.806 1.03q.283.583.282 1.357m16.943 3.726q-.302.101-.66.102-.345 0-.647-.102a1.8 1.8 0 0 1-.529-.285 1.4 1.4 0 0 1-.357-.415 1 1 0 0 1-.13-.506q-.001-.278.13-.51a1.3 1.3 0 0 1 .357-.407q.227-.175.53-.271.3-.1.646-.098.358-.001.66.098c.201.063.373.155.525.27q.221.178.348.408.132.232.13.51.002.27-.13.506a1.4 1.4 0 0 1-.348.415c-.152.12-.324.214-.525.285m-4.393-11.603h-4.007v11.6h-2.42v-11.6h-4.032v-1.73h10.459zM249.62 641.258l20.127-39.21 7.42.889 9.953 43.448-8.972-.714-1.822-9.006-13.915-1.82-4.024 8.196zm49.91-37.701 8.717-.556 2.667 34.664 18.002-1.568.49 7.668-26.72 2.124zm48.358 36.692-11.207-40.944 8.448-2.215 9.258 33.51 17.368-4.986 1.95 7.432z" style="fill:#1a152c;fill-rule:evenodd"></path><path d="M88.13 443.121h-7.964v-13.329h7.938v1.73H82.56v4.049h5.57v1.708h-5.57v4.134h5.57zm12.595-3.722q0 .811-.34 1.529a3.5 3.5 0 0 1-.996 1.244q-.656.532-1.638.837-.976.301-2.268.302-.63.001-1.251-.067a10 10 0 0 1-2.222-.495 6 6 0 0 1-.836-.366v-2.067c.265.158.571.313.928.468.362.154.735.291 1.13.411.395.123.785.218 1.176.295q.584.112 1.054.113.712 0 1.248-.148c.357-.098.66-.242.898-.425a1.75 1.75 0 0 0 .542-.665 1.94 1.94 0 0 0 .18-.843q0-.528-.226-.886a2.1 2.1 0 0 0-.647-.63 5 5 0 0 0-1.008-.484 38 38 0 0 0-1.319-.454 21 21 0 0 1-1.772-.664 5.5 5.5 0 0 1-1.302-.76 2.9 2.9 0 0 1-.806-.99q-.277-.561-.277-1.333-.001-.843.407-1.529a3.65 3.65 0 0 1 1.105-1.163 5.6 5.6 0 0 1 1.642-.742 7.5 7.5 0 0 1 2.011-.264q1.147.001 2.071.176.92.175 1.684.44v1.852a9 9 0 0 0-.823-.278 14 14 0 0 0-.987-.239c-.344-.074-.689-.13-1.033-.176a8 8 0 0 0-.987-.066c-.437 0-.82.045-1.16.14a2.7 2.7 0 0 0-.852.387 1.61 1.61 0 0 0-.71 1.35q.001.46.236.798.233.332.663.597a6 6 0 0 0 1.038.482q.61.222 1.36.47.963.318 1.718.665.757.342 1.281.791t.806 1.03q.283.583.282 1.357m12.55-7.878h-4.007v11.6h-2.42v-11.6h-4.032v-1.729h10.459zm2.07 10.398q-.001-.278.13-.51a1.3 1.3 0 0 1 .357-.407q.227-.176.53-.271.3-.1.646-.098.358-.001.66.098c.201.063.373.154.525.27q.221.178.348.408.132.232.13.51.002.27-.13.506a1.4 1.4 0 0 1-.348.415c-.152.12-.324.214-.525.285q-.302.1-.66.102-.344-.002-.647-.102a1.8 1.8 0 0 1-.529-.285 1.4 1.4 0 0 1-.357-.415 1 1 0 0 1-.13-.506M484.232 443.439h-2.088V432.17c-.115.103-.241.205-.375.319q-.2.166-.385.304l-2.729 1.931v-2.048l4.24-3.154h1.337zm11.15-10.493q0-.417-.138-.768a1.6 1.6 0 0 0-.389-.593 1.9 1.9 0 0 0-.625-.387 2.4 2.4 0 0 0-.826-.14q-.911 0-1.455.498-.545.5-.545 1.434 0 .417.167.794c.115.249.263.472.452.673q.284.301.662.509c.256.142.523.241.804.307a3 3 0 0 0 .87-.37c.241-.153.433-.332.59-.53q.227-.302.329-.666c.07-.241.103-.497.103-.76m.466 6.699q0-.4-.118-.794a2.2 2.2 0 0 0-.408-.746 2.9 2.9 0 0 0-.766-.63q-.48-.286-1.196-.446a3.5 3.5 0 0 0-.945.377q-.42.241-.725.589a2.453 2.453 0 0 0-.64 1.668q0 .538.173.966c.115.285.278.527.481.724.208.194.456.348.745.454q.433.16.955.161.588 0 1.044-.187c.304-.124.56-.296.763-.508q.311-.324.474-.746a2.5 2.5 0 0 0 .163-.882m2.11-.018q.002.9-.348 1.635a3.8 3.8 0 0 1-.959 1.266 4.4 4.4 0 0 1-1.447.82 5.4 5.4 0 0 1-1.8.288q-.9 0-1.71-.241a4.3 4.3 0 0 1-1.434-.725 3.5 3.5 0 0 1-.981-1.21q-.362-.73-.363-1.705 0-1.278.689-2.144.689-.873 1.91-1.438a3.9 3.9 0 0 1-.9-.549 3.7 3.7 0 0 1-.71-.753 3.8 3.8 0 0 1-.467-.926 3.4 3.4 0 0 1-.166-1.06q0-.775.303-1.417a3.2 3.2 0 0 1 .852-1.105 4.1 4.1 0 0 1 1.31-.717 5.3 5.3 0 0 1 1.69-.256q.876 0 1.625.234.75.237 1.296.688.548.448.859 1.094.306.643.307 1.456 0 .544-.156 1.017a3.755 3.755 0 0 1-1.103 1.628q-.389.344-.855.622 1.332.548 1.948 1.394.61.849.61 2.104m4.351-5.909q0 .664.2 1.142.203.479.549.782.35.308.821.45a3.4 3.4 0 0 0 1.015.147c.348 0 .681-.037 1.007-.114q.49-.109.86-.263.15-.374.229-.834.073-.461.074-1.032 0-.727-.178-1.27a2.7 2.7 0 0 0-.496-.91 1.93 1.93 0 0 0-.748-.553 2.5 2.5 0 0 0-.956-.182q-.532 0-.97.175-.442.18-.751.516a2.4 2.4 0 0 0-.482.827 3.4 3.4 0 0 0-.174 1.12m-2.177.15c0-.644.108-1.236.326-1.785a4.2 4.2 0 0 1 .926-1.42c.403-.399.88-.71 1.444-.936a5 5 0 0 1 1.859-.337q1.084.001 1.918.326c.555.22 1.026.53 1.403.94q.572.61.867 1.478.3.868.3 1.939c0 .659-.119 1.376-.36 2.159a14.5 14.5 0 0 1-.988 2.41q-.638 1.24-1.503 2.47a21 21 0 0 1-1.896 2.327h-2.452a58 58 0 0 0 1.293-1.5 34 34 0 0 0 1.155-1.486q.534-.735.962-1.448.435-.712.7-1.368a6 6 0 0 1-1.614.204 5.5 5.5 0 0 1-1.703-.256 3.9 3.9 0 0 1-1.378-.768 3.5 3.5 0 0 1-.922-1.248c-.226-.49-.337-1.06-.337-1.701m13.394-.15q0 .664.2 1.142.201.479.548.782.35.308.822.45.47.149 1.014.147.52 0 1.007-.114.49-.109.86-.263.15-.374.229-.834.073-.461.074-1.032 0-.727-.178-1.27a2.7 2.7 0 0 0-.496-.91 1.93 1.93 0 0 0-.748-.553 2.5 2.5 0 0 0-.955-.182q-.533 0-.97.175c-.297.12-.545.293-.752.516a2.4 2.4 0 0 0-.482.827 3.4 3.4 0 0 0-.173 1.12m-2.178.15c0-.644.108-1.236.326-1.785a4.15 4.15 0 0 1 .926-1.42c.403-.399.881-.71 1.444-.936a5 5 0 0 1 1.859-.337q1.084.001 1.918.326c.556.22 1.026.53 1.403.94q.572.61.867 1.478.3.868.3 1.939c0 .659-.119 1.376-.36 2.159a14.5 14.5 0 0 1-.988 2.41q-.638 1.24-1.503 2.47a21 21 0 0 1-1.896 2.327h-2.452q.671-.754 1.293-1.5a35 35 0 0 0 1.155-1.486q.534-.735.963-1.448.433-.712.7-1.368a6 6 0 0 1-1.615.204 5.5 5.5 0 0 1-1.703-.256 3.9 3.9 0 0 1-1.378-.768 3.5 3.5 0 0 1-.922-1.248c-.226-.49-.337-1.06-.337-1.701" style="fill:#fed104;fill-rule:evenodd" data-source="https://football-logos.cc"></path><path d="m49.11 420.626 94.5 1.125M452.238 421.378l94.124-.75" style="fill:#e30016;fill-rule:evenodd"></path><path d="M130.052 538.2c4.339-2.924 12.088-7.509 7.857-13.788-4.231-6.28-10.56-.432-14.9 2.492-4.375 2.948-12.01 7.294-7.755 13.607 4.21 6.25 10.472.603 14.798-2.312M164.5 556.562c-5.45-5.257-10.417 1.784-14.05 5.551-3.662 3.797-10.22 9.642-4.74 14.927 5.424 5.23 10.367-1.599 13.988-5.353 3.632-3.766 10.252-9.869 4.802-15.125M226.045 597.22l-3.68 8.899 3.498 1.541c4.319 1.904 9.642 2.876 10.993-1.39 1.38-4.36-3.097-6.434-7.317-7.865zM222.853 614.005l-2.508-.794-4.052 9.927 3.44 1.371c4.627 1.844 9.795 3.363 11.746-1.21 2.124-4.98-3.428-7.647-8.626-9.294M272.096 613.828l-7.077 14.906 9.915 1.424zM474.456 490.953l9.044 3.307 1.395-3.56c1.721-4.395 2.471-9.754-1.847-10.926-4.414-1.197-6.3 3.363-7.553 7.638zM500.286 484.437c-5.063-1.915-7.498 3.743-8.926 9.005l-.69 2.54 10.087 3.634 1.227-3.494c1.65-4.7 2.952-9.927-1.698-11.685M493.49 435.273q.511-.138.87-.37c.24-.153.432-.332.588-.53q.229-.302.33-.666a2.7 2.7 0 0 0 .103-.76q.001-.418-.137-.769a1.6 1.6 0 0 0-.389-.593 1.9 1.9 0 0 0-.625-.387 2.4 2.4 0 0 0-.826-.14q-.91 0-1.455.498-.545.5-.545 1.434 0 .417.167.794c.115.249.263.472.452.673q.284.301.662.509c.256.142.523.241.804.307M493.36 437.029a3.5 3.5 0 0 0-.945.377q-.42.242-.726.589a2.6 2.6 0 0 0-.474.765c-.11.281-.166.585-.166.903q0 .538.174.966c.115.285.278.527.481.725.208.193.456.347.745.453q.433.16.955.161.588 0 1.044-.187.457-.188.763-.508.311-.324.474-.746.162-.424.163-.882a2.8 2.8 0 0 0-.118-.794 2.2 2.2 0 0 0-.408-.746 2.9 2.9 0 0 0-.767-.63q-.478-.286-1.195-.446M502.31 433.718q0 .664.2 1.142.201.479.548.782.35.308.821.45.472.149 1.015.147.52 0 1.007-.114.49-.109.86-.263.15-.374.229-.834.073-.461.074-1.032c0-.487-.06-.907-.178-1.27a2.7 2.7 0 0 0-.496-.91 1.94 1.94 0 0 0-.748-.553 2.5 2.5 0 0 0-.955-.183q-.533.001-.97.176c-.297.12-.545.293-.752.516a2.4 2.4 0 0 0-.481.827 3.4 3.4 0 0 0-.175 1.12M513.525 433.718q0 .664.2 1.142.203.479.549.782.35.308.822.45a3.4 3.4 0 0 0 1.014.147q.52 0 1.007-.114a5 5 0 0 0 .86-.263q.15-.374.23-.834.072-.461.073-1.032c0-.487-.06-.907-.178-1.27a2.7 2.7 0 0 0-.496-.91 1.94 1.94 0 0 0-.748-.553 2.5 2.5 0 0 0-.955-.183q-.533.001-.97.176c-.297.12-.545.293-.752.516a2.4 2.4 0 0 0-.481.827 3.4 3.4 0 0 0-.175 1.12" style="fill:#1a152c;fill-rule:evenodd"></path><path d="M141.592 421.508c0-43.259 17.466-82.433 45.704-110.8 28.248-28.375 67.26-45.926 110.34-45.926s82.093 17.55 110.34 45.926c28.208 28.336 45.667 67.456 45.705 110.658l89.913-.716v-.267c0-67.618-27.521-128.826-72.017-173.122-44.504-44.306-106-71.71-173.94-71.71-67.938 0-129.434 27.404-173.939 71.71-44.495 44.296-72.016 105.504-72.016 173.122v.273l89.91 1.07zm-18.927-39.012-33.445-7.305-2.455 11.24-8.522-1.861 7.104-32.522 8.522 1.862-2.456 11.24 33.446 7.306zm13.087-36.14c-8.569 15.922-16.754 10.38-28.151 4.247-10.86-5.845-19.296-10.28-11.445-24.867 6.412-11.915 16.962-9.5 28.166-3.47 11.206 6.03 17.843 12.174 11.43 24.09m11.745-23.26-34.113-27.664 11.643-14.464c4.272-5.306 11.47-8.12 18.674-2 5.554 4.716 5.442 8.259 3.551 13.348 1.46-.133 22.414 3.02 22.677 3.236l-6.942 8.7c-2.562-.954-19.037-5.428-20.514-3.58l-3.38 4.227 13.96 11.147zm39.617-42.209c-11.516 8.958-19.496.995-28.115-8.022-8.278-8.66-11.486-17.344.076-26.552 10.559-8.408 19.192-1.149 27.352 9.082 3.404 4.268 6.605 7.253 6.76 12.308l4.706.233-.22 5.288-5.002-.283a16.44 16.44 0 0 1-5.557 7.946m204.456-12.712.5-16.514q.088-2.92.288-6.504.186-3.591.484-7.706a228 228 0 0 1-3.567 6.97 169 169 0 0 1-3.114 5.619l-6.518 11.183-8.589-5.006 21.631-37.113 9.603 5.597-.558 16.006a203 203 0 0 1-.4 7.673c-.176 2.502-.39 4.96-.65 7.344a461 461 0 0 1 4.312-8.044 289 289 0 0 1 3.68-6.535l5.535-9.497 8.59 5.006-21.632 37.113zm71.1 81.779-14.081-26.762 37.92-20.183 14.15 26.186-7.754 4.127-9.32-17.115-6.698 3.565 8.31 15.57-7.594 4.043-8.311-15.57-8.122 4.323 9.252 17.69zm-32.117-49.941 26.945-21.117-7.097-9.056 6.866-5.38 20.533 26.2-6.865 5.381-7.097-9.056-26.945 21.117zm39.357 73.434-3.856-15.338 41.66-10.474 4.18 16.63c3.032 12.057-5.019 16.119-16.468 18.996-13.022 3.274-21.675 5.467-25.516-9.814m-110.655-126.01a15.5 15.5 0 0 1-6.247 1.837c-2.233.17-4.615-.094-7.16-.807-2.537-.711-4.709-1.724-6.527-3.03a15.5 15.5 0 0 1-4.383-4.816c-1.067-1.85-1.63-3.911-1.707-6.156-.065-2.252.384-5.094 1.343-8.517l6.885-24.564 9.734 2.728-7.237 25.82c-.798 2.848-.863 5.012-.189 6.504q.998 2.234 4.494 3.214c2.304.645 4.113.501 5.456-.426 1.333-.929 2.402-2.811 3.2-5.659l7.237-25.82 9.842 2.758-6.885 24.564q-1.455 5.193-3.262 8.02c-1.215 1.884-2.743 3.337-4.594 4.35m-150 13.045c-2.038-.639-3.848-1.773-5.425-3.372q-2.362-2.421-4.782-7.175l-11.576-22.734 9.009-4.587 12.168 23.896c1.342 2.636 2.76 4.271 4.266 4.912q2.248.967 5.483-.68c2.132-1.086 3.365-2.417 3.725-4.008.351-1.588-.137-3.697-1.48-6.332l-12.167-23.896 9.108-4.638 11.576 22.734q2.446 4.804 3.033 8.11c.382 2.207.242 4.312-.433 6.31a15.5 15.5 0 0 1-3.35 5.584c-1.528 1.638-3.459 3.057-5.815 4.256-2.347 1.196-4.63 1.923-6.853 2.194-2.214.267-4.38.074-6.487-.574m200.016 20.747 27.205-33.245 7.953 6.508-27.204 33.246zm-115.315-39.477.622-18.99-12.87-24.72 10.527-.037 7.672 15.79 7.258-15.76 10.959-.317-14.02 25.724-.153 18.52zm-52.414 7.681 5.03-45.044 10.982-2.38 22.962 38.978-10.798 2.34-4.063-7.189-13.12 2.843-.567 8.193z" style="fill:none"></path><path d="M112.785 343.984c5.66 3.046 12.645 5.803 16.002-1.135 3.473-7.176-3.373-9.774-9.066-12.838-5.676-3.055-12.716-7.174-16.365-.393-3.653 6.788 3.769 11.32 9.43 14.366M124.6 293.566l9.208 7.068 5.335-6.76c2.244-2.843 2.436-5.971-.603-8.472-2.638-2.17-7.25-.55-8.95 1.664zM163.34 252.378c-7.843 5.629.196 12.796 5.45 17.993 5.787 5.725 8.575 8.674 12.71 5.706 1.342-.962 2.896-1.981 3.454-3.602l-6.91-.27.354-5.455 7.067.514c-1.065-2.847-4.144-5.769-5.998-7.57-7.35-7.144-9.825-11.84-16.127-7.316M254.129 214.377l-1.076 15.383 8.579-1.859zM502.833 358.464l-26.542 7.091 1.55 5.979c2.051 7.92 9.045 6.08 14.955 4.595 6.36-1.598 13.533-3.753 11.398-12.248z" style="fill:#fed102;fill-rule:evenodd"></path><path d="M194.986 498.305 253.11 315.68l40.125 94.5 30.375-93 78 176.625-70.125-51-67.875 59.25 15-44.625-21-14.25z" style="fill:#1a152c;fill-rule:evenodd"></path><path d="M194.986 498.305 253.11 315.68l40.125 94.5 30.375-93 78 176.625-70.125-51-67.875 59.25 15-44.625-21-14.25zm.327 26.03c26.178 26.296 62.354 42.561 102.323 42.561 39.97 0 76.146-16.265 102.323-42.56 26.187-26.306 42.383-62.66 42.383-102.828s-16.196-76.522-42.383-102.827c-26.177-26.296-62.353-42.56-102.323-42.56s-76.145 16.264-102.323 42.56c-26.186 26.305-42.383 62.66-42.383 102.827s16.197 76.522 42.383 102.827" style="fill:#fed102;fill-rule:evenodd"></path><path d="m122.665 382.496 2.193-10.04-33.445-7.305 2.456-11.242-8.522-1.861-7.104 32.522 8.522 1.86 2.455-11.24zM107.6 350.603c11.398 6.133 19.584 11.675 28.152-4.247 6.413-11.916-.224-18.06-11.43-24.09-11.204-6.03-21.754-8.445-28.166 3.47-7.85 14.588.585 19.022 11.445 24.867m21.187-7.754c-3.357 6.938-10.342 4.18-16.002 1.135-5.66-3.047-13.082-7.578-9.43-14.366 3.65-6.781 10.69-2.662 16.366.393 5.693 3.064 12.538 5.661 9.066 12.838M113.384 295.432l34.113 27.664 5.555-7.05-13.958-11.147 3.38-4.228c1.476-1.847 17.951 2.627 20.513 3.58l6.942-8.699c-.263-.216-21.217-3.37-22.677-3.236 1.892-5.09 2.003-8.632-3.55-13.349-7.206-6.12-14.403-3.305-18.675 2.001zm25.76-1.558-5.337 6.76-9.208-7.068 4.992-6.5c1.699-2.213 6.311-3.833 8.949-1.664 3.04 2.5 2.847 5.63.603 8.472M159.075 246.313c-11.562 9.208-8.354 17.891-.075 26.552 8.618 9.017 16.598 16.98 28.114 8.022a16.44 16.44 0 0 0 5.557-7.946l5.001.283.221-5.288-4.707-.233c-.154-5.055-3.355-8.04-6.759-12.308-8.16-10.231-16.793-17.49-27.352-9.082m9.714 24.058c-5.253-5.197-13.292-12.364-5.45-17.993 6.303-4.524 8.777.173 16.128 7.315 1.854 1.803 4.933 4.724 5.998 7.57l-7.067-.513-.353 5.456 6.91.269c-.559 1.62-2.113 2.64-3.454 3.602-4.136 2.968-6.924.02-12.712-5.706M199.048 249.935q2.42 4.754 4.782 7.175c1.577 1.6 3.387 2.734 5.425 3.372 2.106.648 4.273.841 6.487.574 2.223-.271 4.506-.998 6.853-2.194 2.356-1.2 4.287-2.618 5.814-4.256a15.5 15.5 0 0 0 3.351-5.584c.675-1.998.815-4.103.433-6.31q-.586-3.306-3.033-8.11l-11.576-22.734-9.108 4.638 12.168 23.896c1.342 2.635 1.83 4.744 1.479 6.332-.36 1.59-1.593 2.922-3.725 4.008q-3.235 1.647-5.483.68c-1.507-.64-2.924-2.276-4.266-4.912l-12.168-23.896-9.01 4.587zM246.573 204.389l-5.03 45.044 10.425-2.26.568-8.192 13.12-2.843 4.062 7.19 10.798-2.341-22.962-38.978zm6.48 25.372 1.076-15.384 7.503 13.524zM281.708 198.042l12.87 24.72-.622 18.99 9.995.21.154-18.52 13.644-25.256-10.584-.151-7.258 15.76-7.671-15.79zM341.459 201.384l-6.885 24.564c-.96 3.423-1.408 6.265-1.343 8.517.077 2.245.64 4.306 1.707 6.156a15.5 15.5 0 0 0 4.383 4.817c1.818 1.305 3.99 2.318 6.527 3.029 2.546.713 4.927.977 7.16.807a15.5 15.5 0 0 0 6.247-1.838c1.85-1.012 3.38-2.465 4.594-4.348q1.807-2.83 3.262-8.02l6.885-24.565-9.842-2.759-7.237 25.821c-.798 2.848-1.867 4.73-3.2 5.66-1.343.926-3.152 1.07-5.456.425q-3.495-.98-4.494-3.214c-.674-1.492-.609-3.656.19-6.503l7.236-25.82zM392.685 219.104l-21.631 37.113 8.59 5.006 6.518-11.183q1.413-2.427 3.113-5.62a228 228 0 0 0 3.567-6.969q-.298 4.115-.484 7.706-.2 3.583-.289 6.504l-.499 16.514 9.595 5.592 21.631-37.113-8.59-5.006-5.535 9.497a289 289 0 0 0-3.679 6.535 461 461 0 0 0-4.311 8.044c.258-2.385.473-4.842.649-7.344.18-2.51.31-5.062.4-7.673l.558-16.006zM436.476 247.984 409.27 281.23l7.954 6.509 27.204-33.245zM457.499 278.896l-26.946 21.117 6.34 8.089 26.945-21.117 7.097 9.056 6.866-5.38-20.534-26.201-6.866 5.38zM486.509 303.009l-37.92 20.183 14.08 26.762 7.754-4.127-9.253-17.69 8.122-4.322 8.31 15.57 7.596-4.043-8.311-15.57 6.697-3.565 9.322 17.115 7.752-4.127zM507.715 347.635l-41.661 10.474 3.856 15.338c3.841 15.281 12.494 13.088 25.516 9.814 11.45-2.877 19.5-6.94 16.469-18.996zm-29.875 23.899-1.549-5.979 26.542-7.09 1.361 5.416c2.135 8.495-5.038 10.65-11.398 12.248-5.91 1.486-12.904 3.324-14.956-4.595" style="fill:#1a152c;fill-rule:evenodd"></path><path d="M141.592 421.508c0-43.259 17.466-82.433 45.704-110.8 28.248-28.375 67.26-45.926 110.34-45.926s82.093 17.55 110.34 45.926c28.208 28.336 45.667 67.456 45.705 110.658l89.913-.716v-.267c0-67.618-27.521-128.826-72.017-173.122-44.504-44.306-106-71.71-173.94-71.71-67.938 0-129.434 27.404-173.939 71.71-44.495 44.296-72.016 105.504-72.016 173.122v.273l89.91 1.07zm328.318-48.061-3.856-15.338 41.66-10.474 4.18 16.63c3.032 12.057-5.018 16.119-16.468 18.996-13.022 3.274-21.674 5.467-25.516-9.814m-347.245 9.05L89.22 375.19l-2.455 11.24-8.522-1.861 7.104-32.522 8.522 1.862-2.456 11.24 33.446 7.306zm-15.064-31.894c-10.86-5.845-19.296-10.28-11.445-24.867 6.412-11.915 16.962-9.5 28.167-3.47s17.842 12.174 11.43 24.09c-8.57 15.922-16.755 10.38-28.152 4.247m39.896-27.507-34.113-27.664 11.643-14.464c4.272-5.306 11.47-8.12 18.675-2 5.553 4.716 5.442 8.259 3.55 13.348 1.46-.133 22.414 3.02 22.677 3.236l-6.942 8.7c-2.562-.954-19.037-5.428-20.513-3.58l-3.38 4.227 13.958 11.147zm39.617-42.209c-11.516 8.958-19.496.995-28.115-8.022-8.278-8.66-11.486-17.344.076-26.552 10.559-8.408 19.192-1.149 27.352 9.082 3.404 4.268 6.605 7.253 6.76 12.308l4.706.233-.22 5.288-5.002-.283a16.44 16.44 0 0 1-5.557 7.946m192.53-19.664-8.59-5.006 21.631-37.113 9.603 5.597-.558 16.006a203 203 0 0 1-.4 7.673c-.176 2.502-.39 4.96-.65 7.344a461 461 0 0 1 4.312-8.044 289 289 0 0 1 3.68-6.535l5.535-9.497 8.59 5.006-21.632 37.113-9.595-5.592.5-16.514c.058-1.948.157-4.114.288-6.504q.186-3.591.484-7.706a228 228 0 0 1-3.567 6.97 169 169 0 0 1-3.113 5.619zm83.026 88.73-14.081-26.76 37.92-20.184 14.15 26.186-7.753 4.127-9.322-17.115-6.697 3.565 8.31 15.57-7.594 4.043-8.311-15.57-8.122 4.323 9.253 17.69zm-32.117-49.94 26.946-21.117-7.098-9.056 6.866-5.38 20.534 26.2-6.866 5.381-7.097-9.056-26.945 21.117zm-71.298-52.576a15.5 15.5 0 0 1-6.247 1.837c-2.233.17-4.614-.094-7.16-.807-2.537-.711-4.709-1.724-6.527-3.03a15.5 15.5 0 0 1-4.383-4.816c-1.067-1.85-1.63-3.911-1.707-6.156-.065-2.252.384-5.094 1.343-8.517l6.885-24.564 9.734 2.728-7.236 25.82c-.799 2.848-.864 5.012-.19 6.504q.999 2.234 4.494 3.214c2.304.645 4.113.501 5.456-.426 1.333-.929 2.402-2.811 3.2-5.659l7.237-25.82 9.842 2.758-6.885 24.564q-1.455 5.193-3.262 8.02c-1.215 1.884-2.743 3.337-4.594 4.35m-150 13.045c-2.038-.639-3.848-1.773-5.425-3.372q-2.362-2.421-4.782-7.175l-11.576-22.734 9.009-4.587 12.168 23.896c1.342 2.636 2.76 4.271 4.266 4.912q2.248.967 5.483-.68c2.132-1.086 3.365-2.417 3.725-4.008.351-1.588-.137-3.697-1.48-6.332l-12.167-23.896 9.108-4.638 11.576 22.734q2.446 4.804 3.033 8.11c.382 2.207.242 4.312-.433 6.31a15.5 15.5 0 0 1-3.35 5.584c-1.528 1.638-3.459 3.057-5.815 4.256-2.347 1.196-4.63 1.923-6.853 2.194-2.214.267-4.38.074-6.487-.574m200.016 20.747 27.205-33.245 7.953 6.508-27.204 33.246zm-115.315-39.477.622-18.99-12.87-24.72 10.527-.037 7.672 15.79 7.258-15.76 10.959-.317-14.02 25.724-.153 18.52zm-52.414 7.681 5.03-45.044 10.982-2.38 22.962 38.978-10.798 2.34-4.063-7.189-13.12 2.843-.567 8.193z" style="fill:#fed102;fill-rule:evenodd" data-source="https://football-logos.cc"></path><!-- source: https://football-logos.cc --></svg>