<svg xmlns="http://www.w3.org/2000/svg" xml:space="preserve" viewBox="0.5 0.5 199 199"><!-- Source: https://football-logos.cc --><defs data-source="https://football-logos.cc"><clipPath id="a" clipPathUnits="userSpaceOnUse"><path d="M778.04 70.141h-18V36.607s17.15-8.634 17.504-8.794c.352-.161.43-.16.496-.16.068 0 .145-.001.496.16.356.16 17.504 8.794 17.504 8.794v33.534z"></path></clipPath></defs><path d="M199.5 99.999c0 54.954-44.546 99.503-99.495 99.503C45.046 199.502.5 154.953.5 99.999c0-54.951 44.546-99.5 99.505-99.5 54.949 0 99.495 44.549 99.495 99.5"></path><path fill="none" stroke="#e11f27" stroke-width="1.941" d="M196.65 99.999c0 53.377-43.271 96.646-96.64 96.646-53.38 0-96.648-43.268-96.648-96.646 0-53.375 43.268-96.646 96.648-96.646 53.37 0 96.64 43.271 96.64 96.646z"></path><path fill="#fff" d="M127.89 185.86c-1.883.61-3.303.865-4.26.78-.638-.048-1.207-.3-1.72-.74-.507-.435-.88-1.01-1.104-1.7-.344-1.067-.245-2.049.334-2.906.32-.518.875-1.003 1.653-1.46-1.102.103-1.887.031-2.377-.2-.472-.243-.91-.817-1.298-1.73-.659-1.385-1.118-2.301-1.373-2.727a4.9 4.9 0 0 0-.92-1.135l4.224-1.37c.505.625.992 1.485 1.451 2.612.487 1.158.895 1.832 1.214 2.03.314.202.929.161 1.83-.127l1.609-.52-1.75-5.406 3.918-1.265 4.513 13.941zm-1.515-6.03q-1.41.456-1.888 1.028c-.293.372-.34.872-.145 1.48.35 1.066 1.321 1.354 2.93.83l1.82-.588-1.062-3.286zm11.146 2.458-1.291-2.429 5.635-2.994-1.406-2.643-5.244 2.788-1.322-2.487 5.248-2.788-1.53-2.875-5.789 3.076-1.331-2.505 9.282-4.938 6.88 12.943zm11.673-6.313-1.74-2.295 3.594-2.727-7.12-9.377 3.348-2.541 7.104 9.359 3.716-2.821 1.755 2.313zm23.267-21.887-2.296-1.512 3.508-5.332-2.498-1.643-3.267 4.962-2.352-1.546 3.262-4.966-2.719-1.789-3.602 5.48-2.372-1.564 5.78-8.785 12.242 8.055zm-5.45-18.387 1.598-3.788 5.452 2.306 2.081-4.926-5.45-2.306 1.619-3.828 13.497 5.706-1.61 3.81-5.229-2.21-2.084 4.925 5.232 2.21-1.615 3.81zm10.382-12.72c-.696-.209-1.224-.403-1.558-.607q-.517-.303-1.039-.882c-1.26-1.424-1.642-3.408-1.125-5.975.47-2.308 1.45-3.948 2.929-4.928 1.5-.977 3.413-1.242 5.765-.765 2.502.505 4.295 1.518 5.377 3.06q1.618 2.314.906 5.842c-.482 2.396-1.5 3.962-3.064 4.722-.497.237-.936.396-1.35.444-.395.059-.946.036-1.675-.043l.829-4.08c1.35.095 2.16-.481 2.415-1.731.194-.97-.068-1.806-.752-2.51-.689-.7-1.773-1.212-3.263-1.513-3.084-.623-4.839.056-5.242 2.06q-.398 1.944 1.663 2.761zm-1.903-16.07.089-5.719 3.22-1.51c1.175-.55 2.66-1.145 4.473-1.798.643-.23 1.725-.59 3.248-1.02l-10.867-.182.056-3.497 14.652.237-.084 5.413-3.194 1.487c-1.265.577-2.99 1.248-5.181 2.051-.554.214-1.579.567-3.036 1.051l11.331.184-.056 3.543zm.219-14.252-.898-4.306 2.655-1.698-1.234-5.952-3.105-.426-.816-3.94 15.573 2.91.939 4.5zm9.874-10.755-6.44-.724.826 3.984zm-13.332-6.083-1.604-3.354 10.84-5.18-12.53 1.644-1.43-3 8.492-8.415-10.191 4.86-1.549-3.255 13.224-6.311 2.73 5.719-4.45 4.268c-.741.693-1.869 1.545-3.402 2.573l-.867.587c.961-.288 1.839-.538 2.62-.74.982-.247 1.818-.428 2.55-.535l6.069-.873 2.722 5.696zm-1.903-32.634-2.013 1.845-4.066-4.45-2.436 2.228 3.832 4.188-2.033 1.855-3.832-4.191-4.334 3.966-2.819-3.089 10.816-9.884zM155.91 38.31q-2.173 2.869-4.967 3.278c-1.86.3-3.696-.23-5.51-1.58-1.86-1.41-2.885-3.04-3.114-4.897-.225-1.85.393-3.76 1.867-5.704q2.177-2.87 4.918-3.318c1.824-.299 3.658.234 5.5 1.63 1.86 1.405 2.9 3.053 3.115 4.923.224 1.857-.378 3.744-1.83 5.658zm-1.913-5.86c.05-1.012-.309-1.813-1.12-2.42-.804-.613-1.67-.748-2.597-.396-.926.317-1.864 1.074-2.796 2.268-.93 1.23-1.418 2.347-1.469 3.329-.069 1 .309 1.808 1.135 2.436.804.61 1.671.742 2.617.408.942-.337 1.898-1.125 2.845-2.37.877-1.16 1.339-2.242 1.385-3.255m-23.641-17.477c1.589.59 2.81 1.215 3.68 1.845.863.65 1.51 1.433 1.919 2.339.737 1.61.714 3.507-.094 5.668q-1.375 3.677-4.09 4.535c-.977.291-1.959.396-2.93.291-.972-.104-2.192-.423-3.65-.967l-5.092-1.903 5.124-13.726zm-3.99 11.12c2.699 1.007 4.576.14 5.6-2.605 1.07-2.865.293-4.798-2.327-5.778l-1.42-.533-3.149 8.433zm-5.581-14.11-.47 2.712-6.285-1.084-.51 2.946 5.854 1.01-.482 2.776-5.85-1.01-.558 3.211 6.462 1.112-.483 2.796L108.1 24.67l2.493-14.44zm-13.367-2.127-.051 2.88-4.508-.069-.188 11.767-4.207-.069.194-11.744-4.668-.076.05-2.903zM92.89 24.7l-4.11.495-1.755-14.548 4.107-.495zm-6.477.598-5.515 1.528-2.357-2.66c-.862-.972-1.85-2.227-2.99-3.786a57 57 0 0 1-1.898-2.829l2.9 10.474-3.377.939-3.903-14.127 5.217-1.444 2.326 2.643c.908 1.05 2.044 2.512 3.429 4.392.364.472.992 1.347 1.867 2.612l-3.023-10.92 3.418-.946zm-18.49-1.215c1.098 2.084 1.427 3.798 1.008 5.14-.28.885-.747 1.655-1.395 2.265a11.2 11.2 0 0 1-2.627 1.903c-1.852.972-3.462 1.319-4.801 1.033-1.615-.375-3.04-1.717-4.255-4.03l-3.773-7.197 3.722-1.946 3.762 7.168c.643 1.227 1.11 1.98 1.419 2.235.773.663 1.709.696 2.841.102 1.067-.561 1.59-1.33 1.528-2.293-.033-.531-.352-1.38-.966-2.551l-3.77-7.189 3.527-1.85zM37.728 34.668c1.224-1.171 2.326-1.893 3.298-2.184 1.316-.378 2.431-.08 3.388.923.747.781 1.04 1.653.862 2.646-.084.512-.35 1.13-.799 1.867.789-.54 1.495-.857 2.169-.916q1.702-.228 2.87.992c.474.493.772 1.087.946 1.778q.233 1.052-.09 2.003c-.364 1.05-1.18 2.201-2.466 3.433l-4.559 4.375-10.142-10.573zm3.701 4.558c.59-.564.913-1.051.982-1.454.084-.418-.074-.842-.487-1.27-.778-.814-1.699-.692-2.79.36l-1.322 1.262 2.288 2.383zm4.41 4.25c1.146-1.1 1.304-2.074.498-2.916-.806-.844-1.788-.724-2.934.375l-1.51 1.444 2.442 2.543zm-9.481 4.195c1.933 1.34 3.02 2.712 3.267 4.09a5.25 5.25 0 0 1-.183 2.657 11.2 11.2 0 0 1-1.45 2.903c-1.19 1.714-2.456 2.765-3.782 3.135-1.6.413-3.482-.115-5.635-1.61l-6.67-4.624 2.395-3.452 6.652 4.612c1.14.788 1.903 1.237 2.296 1.327.992.23 1.834-.174 2.561-1.225.694-.992.793-1.913.294-2.742-.268-.454-.952-1.061-2.031-1.814l-6.678-4.627 2.273-3.27zm-8.181 20.482 2.645-5.88 2.691 1.212-4.374 9.711-13.362-6.017 1.727-3.832zm-4.42 5.304c.69.242 1.197.461 1.531.68.33.22.656.529.99.93 1.191 1.479 1.484 3.481.847 6.02-.572 2.282-1.633 3.877-3.153 4.787-1.544.908-3.472 1.08-5.798.495-2.472-.625-4.217-1.714-5.227-3.308q-1.51-2.386-.633-5.878c.597-2.367 1.684-3.887 3.283-4.573.508-.215.952-.352 1.365-.38.398-.041.951.008 1.673.117l-1.015 4.035c-1.347-.155-2.184.383-2.492 1.62-.248.962-.026 1.811.632 2.54.653.733 1.715 1.297 3.189 1.667 3.05.765 4.834.17 5.331-1.814.324-1.28-.188-2.222-1.533-2.837zm-2.281 28.47-.125-6.443 2.949-.059.201 10.647-14.65.278-.079-4.198 11.703-.225zm1.146 11.664-1.077-6.355 2.91-.492 1.774 10.502-14.448 2.444-.697-4.145zm3.432 4.287 1.495 4.137-2.393 2.06 2.064 5.708 3.135-.008 1.37 3.785-15.833-.686-1.561-4.324zm-8.26 12.04 6.482-.189-1.385-3.831zm4.773 16.473c-.878-1.449-1.34-2.686-1.41-3.696-.08-1.365.458-2.388 1.644-3.102.921-.559 1.842-.653 2.776-.266.477.202 1.02.592 1.643 1.192-.357-.888-.508-1.646-.424-2.314q.157-1.714 1.6-2.586c.584-.352 1.232-.516 1.943-.534a3.7 3.7 0 0 1 1.94.526c.94.587 1.887 1.635 2.808 3.163l3.265 5.405-12.538 7.58zm5.262-2.612c-.428-.697-.834-1.118-1.211-1.273q-.583-.267-1.345.196c-.961.577-1.043 1.505-.26 2.804l.946 1.56 2.827-1.706zm5.105-3.373c-.817-1.357-1.733-1.727-2.735-1.122-.995.602-1.094 1.59-.273 2.944l1.082 1.788 3.007-1.821zm-5.28 13.974 2.173-1.897 2.97 3.395 8.856-7.752 2.765 3.163-8.839 7.734 3.072 3.513-2.184 1.91zm15.36 6.313q2.225-2.828 5.028-3.189c1.857-.27 3.68.294 5.479 1.676 1.834 1.444 2.831 3.092 3.025 4.951.189 1.857-.459 3.753-1.97 5.671-1.484 1.888-3.137 2.962-4.97 3.232-1.835.265-3.659-.298-5.475-1.724-1.829-1.442-2.847-3.107-3.025-4.982-.19-1.857.443-3.735 1.928-5.62zm1.803 5.895c-.064 1.01.283 1.811 1.082 2.441.79.625 1.658.77 2.586.439.942-.299 1.883-1.038 2.84-2.22.951-1.211 1.459-2.323 1.528-3.303.086-.995-.279-1.816-1.09-2.454-.798-.625-1.66-.77-2.612-.451-.946.316-1.923 1.089-2.885 2.319q-1.344 1.711-1.449 3.229m11.937 4.567q1.592-3.225 4.26-4.155c1.768-.65 3.666-.472 5.71.51 2.093 1.033 3.407 2.439 3.976 4.22.571 1.777.329 3.764-.753 5.956q-1.59 3.225-4.2 4.186c-1.733.637-3.636.461-5.71-.562-2.091-1.03-3.428-2.448-3.984-4.247-.574-1.778-.34-3.744.722-5.897zm2.985 5.395c.145 1.003.648 1.72 1.553 2.169q1.364.67 2.628-.105 1.284-.73 2.316-2.757c.68-1.38.951-2.574.816-3.549-.12-.992-.648-1.719-1.574-2.173-.91-.45-1.783-.416-2.645.092-.862.507-1.656 1.466-2.347 2.867q-.965 1.954-.747 3.456m10.168 8.74.747-2.623 5.798 1.653.903-3.173-5.461-1.556.757-2.645 5.462 1.556 1.61-5.65 4.02 1.145-4.02 14.094zm91.742-25.317c.558.43 1.05.648 1.469.617q.629 0 1.28-.699c.409-.434.623-.862.674-1.27.043-.437-.09-.806-.444-1.138-.388-.357-.783-.485-1.201-.36-.429.107-1.15.493-2.166 1.2q-2.572 1.793-4.036 2.014c-1.07.176-2.063-.178-3.03-1.046q-1.615-1.503-1.3-3.734c.195-1.472.986-2.964 2.392-4.477 1.961-2.11 3.852-2.877 5.678-2.321q1.01.314 2.148 1.275l-2.775 2.98c-.656-.49-1.24-.732-1.768-.715-.498.018-1.003.299-1.515.817-.45.484-.692 1.007-.722 1.553q-.083.824.469 1.337c.54.513 1.449.354 2.66-.5 1.69-1.135 2.86-1.847 3.508-2.12a3.75 3.75 0 0 1 1.992-.303c.832.11 1.559.459 2.171 1.025 1.033.962 1.477 2.127 1.311 3.502-.153 1.36-.867 2.743-2.158 4.125q-1.39 1.5-2.818 2.158c-.931.421-1.768.515-2.541.248-.584-.182-1.25-.595-2.008-1.238z"></path><path fill="#e11f27" d="M169.13 99.999c0 38.179-30.95 69.127-69.129 69.127-38.172 0-69.121-30.947-69.121-69.127 0-38.174 30.95-69.124 69.121-69.124 38.179 0 69.129 30.95 69.129 69.124"></path><path fill="#fff" d="M100 163.47c.173 0 .37.008 1.27-.403.903-.408 44.646-22.438 44.646-22.438V55.093H54.084v85.536s43.748 22.029 44.651 22.438c.896.41 1.097.403 1.266.403" data-source="https://football-logos.cc"></path><path fill="none" stroke="#000" stroke-linecap="round" stroke-linejoin="round" stroke-width="4.314" d="M100 163.47c.173 0 .37.008 1.27-.403.903-.408 44.646-22.438 44.646-22.438V55.093H54.084v85.536s43.748 22.029 44.651 22.438c.896.41 1.097.403 1.266.403z"></path><path fill="none" stroke="#fff" stroke-linecap="round" stroke-linejoin="round" stroke-width="3.02" d="M100 163.47c.173 0 .37.008 1.27-.403.903-.408 44.646-22.438 44.646-22.438V55.093H100m0 108.38c-.168 0-.37.008-1.265-.403-.903-.408-44.651-22.438-44.651-22.438V55.096H100"></path><path fill="#fff" d="M100 163.47c.173 0 .37.008 1.27-.403.903-.408 44.646-22.438 44.646-22.438V55.093H54.084v85.536s43.748 22.029 44.651 22.438c.896.41 1.097.403 1.266.403"></path><path fill="none" stroke="#000" stroke-linecap="round" stroke-linejoin="round" stroke-width="1.079" d="M100 163.47c.173 0 .37.008 1.27-.403.903-.408 44.646-22.438 44.646-22.438V55.093H54.084v85.536s43.748 22.029 44.651 22.438c.896.41 1.097.403 1.266.403"></path><g clip-path="url(#a)" transform="matrix(2.5509 0 0 -2.5509 -1884.7 234.01)" data-source="https://football-logos.cc"><path d="m769.2 65.795-5.58-2.733a.26.26 0 0 1-.141-.265.26.26 0 0 1 .209-.213l4.512-.763a.255.255 0 0 1 .283.177l1.072 3.495a.25.25 0 0 1-.078.267.25.25 0 0 1-.277.035m6.74 2.367-5.877-1.987a.25.25 0 0 1-.166-.187l-.846-3.805a.25.25 0 0 1 .05-.213.26.26 0 0 1 .196-.095h5.666c.122 0 .23.088.25.207l1.057 5.793a.255.255 0 0 1-.33.287m6.977.084-5.88-1.986a.26.26 0 0 1-.165-.188l-.846-3.889a.26.26 0 0 1 .05-.214.26.26 0 0 1 .198-.094h5.666c.123 0 .229.088.25.208l1.057 5.878a.254.254 0 0 1-.33.285m7.144 0-5.877-1.986a.26.26 0 0 1-.166-.188l-.846-3.889a.25.25 0 0 1 .051-.214.25.25 0 0 1 .197-.094h5.666c.12 0 .227.088.248.208l1.06 5.878a.26.26 0 0 1-.085.237.26.26 0 0 1-.248.048m-27.008-6.066-.34-.535a.26.26 0 0 1-.033-.194.26.26 0 0 1 .117-.16l4.387-2.63h-8.217a.25.25 0 0 1-.254-.252V35.014c0-.098.055-.187.143-.23l19.07-9.335a.25.25 0 0 1 .223-.001l19.461 9.336a.25.25 0 0 1 .142.23v23.395c0 .14-.113.252-.252.252h-8.502l1.473 2.375a.26.26 0 0 1 .04.134.255.255 0 0 1-.254.254h-21.909l-5.037.87a.26.26 0 0 1-.258-.114"></path><path fill="#fde164" d="m768.9 65.082-.836-2.723c-.324.056-2.51.424-3.512.593zm6.795 2.46c-.127-.7-.877-4.802-.941-5.16h-5.139l.746 3.358c.24.08 4.645 1.57 5.334 1.803m6.978.085c-.127-.701-.879-4.886-.945-5.246h-5.139l.748 3.442c.242.082 4.647 1.573 5.336 1.804m7.145 0-.943-5.246h-5.139c.109.502.695 3.203.748 3.442.242.082 4.646 1.573 5.334 1.804m-1.621-9.474h9.05V35.172l-19.206-9.214c-.217.105-18.541 9.076-18.82 9.213v22.983h9.61c.042 0 .093.055-.001.111l-5.547 3.327.109.173 4.89-.845q.024-.004.044-.004H789.8l-1.645-2.643c-.047-.072-.022-.119.04-.119"></path><path fill="#e11f27" d="M770.66 26.021h9.359l-22.437 21.534h-9.361zm26.018 6.567h8.568l-26.045 23.734h-8.568zm-10.035-4.904h8.344L763.7 56.323h-8.344zm15.363 14.121h10.373l-15.644 14.518H786.36z"></path></g><!-- source: https://football-logos.cc --></svg>