<svg xmlns="http://www.w3.org/2000/svg" fill="none" viewBox="-0.01 0 374.86 437.02"><!-- Source: https://football-logos.cc --><g clip-path="url(#a)" data-source="https://football-logos.cc"><path fill="#232021" d="M356.54 42.94c-1.42-4.6-4.36-14.17-60.43-28.44C274.82 9.08 232.42 0 187.66 0 154.01 0 114.4 4.88 78.99 13.39c-56.82 13.66-60.17 24.86-61.6 29.65-43.83 146.77 3.4 245.58 50.74 302.63 51.07 61.55 111.85 88.06 114.41 89.16l5.1 2.19 5.11-2.18c2.57-1.1 63.64-27.61 114.71-89.17 47.34-57.07 94.28-155.92 49.08-302.73"></path><path fill="#fff" d="M85.22 135.16c-1.74.15-3.48.31-5.22.47-.29.74-.57 1.48-.85 2.22-.68.06-1.36.13-2.04.19 1.49-3.93 2.99-7.85 4.48-11.77.68-.06 1.38-.12 2.05-.18 1.49 3.65 2.99 7.31 4.48 10.97l-2.05.18c-.27-.69-.56-1.38-.84-2.07zm-2.61-6.6c-.61 1.67-1.23 3.33-1.85 5l3.7-.33c-.62-1.56-1.23-3.11-1.85-4.67M94.96 127.88c-.35-.62-1.29-1.17-2.37-1.08-1.4.11-2.06.84-2.07 1.68 0 .99 1.03 1.18 2.22 1.25 2.07.12 4.03.59 4.02 3.3 0 2.53-1.97 3.77-4.19 3.95-2.04.17-3.6-.42-4.35-2.43.52-.35 1.05-.7 1.57-1.05.45 1.21 1.6 1.66 2.81 1.57 1.18-.1 2.3-.65 2.3-1.88 0-1.07-.98-1.43-2.31-1.49-2.03-.11-3.93-.57-3.92-3.12-.01-2.33 2.02-3.46 3.86-3.63 1.55-.12 3.15.25 3.92 1.95l-1.5.99zM104.37 127.18c-.33-.62-1.29-1.17-2.37-1.1-1.4.1-2.07.82-2.07 1.66 0 .99 1.02 1.19 2.22 1.26 2.07.14 4.03.62 4.02 3.33 0 2.53-1.97 3.75-4.19 3.91-2.04.14-3.61-.45-4.35-2.47.52-.35 1.04-.69 1.57-1.04.45 1.21 1.59 1.68 2.81 1.59 1.18-.08 2.29-.63 2.3-1.87 0-1.07-.98-1.44-2.31-1.51-2.04-.13-3.92-.6-3.92-3.15 0-2.34 2.02-3.44 3.86-3.6 1.56-.11 3.16.28 3.92 1.98-.5.33-1 .66-1.5.98zM117.44 129.33c-.04 2.94-1.61 5.97-5.12 6.19s-5.13-2.53-5.13-5.52c0-2.98 1.68-6.11 5.13-6.32 3.44-.22 5.15 2.68 5.12 5.65m-8.4.58c.04 1.86.92 3.8 3.28 3.65 2.35-.15 3.24-2.22 3.26-4.08.02-1.91-.92-4-3.26-3.85-2.35.15-3.32 2.38-3.28 4.28M127.61 132.95c-1.01 1.21-2.36 1.81-3.8 1.88-3.72.2-5.29-2.6-5.29-5.56-.01-2.96 1.68-6.09 5.29-6.28 1.36-.07 2.63.45 3.67 1.54-.43.48-.84.96-1.26 1.44-.65-.7-1.54-.99-2.41-.94-2.42.13-3.45 2.23-3.44 4.13.02 1.88.98 3.79 3.44 3.66.87-.04 1.85-.51 2.51-1.29.43.47.85.94 1.29 1.41zM128.68 134.33v-11.35l1.87-.09v11.35zM139.4 131.71c-1.75.07-3.48.14-5.22.22-.29.73-.57 1.45-.85 2.18-.69.03-1.37.06-2.04.1 1.48-3.86 2.99-7.71 4.48-11.56l2.05-.09c1.49 3.72 2.99 7.45 4.48 11.18-.67.02-1.37.05-2.05.08-.28-.7-.56-1.4-.84-2.11zm-2.61-6.72c-.61 1.63-1.23 3.27-1.86 4.91 1.24-.05 2.47-.11 3.71-.16-.62-1.59-1.25-3.17-1.86-4.75zM144.08 124.26l-3.17.12v-1.95c2.88-.11 5.32-.2 8.22-.29v1.95c-1.06.03-2.11.07-3.17.11v9.41c-.63.02-1.25.04-1.88.07v-9.42M150.27 133.46v-11.35l1.87-.06v11.35zM164.02 127.51c-.04 2.94-1.6 5.9-5.12 5.98s-5.14-2.74-5.14-5.72 1.68-6.03 5.14-6.12c3.45-.08 5.16 2.89 5.12 5.86m-8.4.24c.05 1.86.93 3.84 3.28 3.78s3.24-2.08 3.27-3.95c.02-1.91-.92-4.04-3.27-3.98-2.35.05-3.33 2.24-3.28 4.15M171.95 121.63c.63 0 1.26-.01 1.88-.02v11.37c-.39 0-.78 0-1.17.01v.02c-1.75-2.54-3.5-5.07-5.25-7.6v7.66c-.63 0-1.25.02-1.88.03v-11.35c.51 0 1.02-.02 1.53-.03 1.63 2.32 3.26 4.65 4.89 6.97zM178.43 132.94V121.6c2.39-.01 4.78-.02 7.18-.02v2.06c-1.77 0-3.53 0-5.29.01v3.1c1.67 0 3.34-.01 5.01-.01v1.98c-1.68 0-3.33 0-5.01.01v4.2c-.63 0-1.25 0-1.88.01zM197.01 127.36c-.03 2.94-1.61 5.85-5.12 5.83-3.5-.02-5.14-2.89-5.14-5.87s1.69-5.99 5.14-5.97 5.14 3.04 5.12 6zm-8.41 0c.04 1.86.92 3.86 3.28 3.88 2.35.01 3.23-1.99 3.27-3.86.03-1.91-.92-4.06-3.27-4.08-2.36-.01-3.32 2.14-3.28 4.06M208.2 127.52c-.03 2.94-1.62 5.83-5.12 5.78-3.51-.05-5.14-2.93-5.14-5.92 0-2.98 1.68-5.97 5.14-5.92 3.44.05 5.15 3.09 5.12 6.06m-8.4-.08c.05 1.87.93 3.87 3.28 3.91 2.34.04 3.25-1.96 3.27-3.82.03-1.91-.92-4.08-3.27-4.11-2.34-.03-3.32 2.11-3.28 4.03zM211.56 123.8c-1.06-.02-2.11-.04-3.17-.07v-1.95c2.89.06 5.33.11 8.22.19v1.95c-1.06-.03-2.11-.06-3.17-.08v9.41c-.63-.02-1.26-.03-1.88-.04zM225.86 125.55c0 .88-.37 1.7-1.3 2.14 1.16.44 1.61 1.87 1.6 2.58 0 2.53-1.67 3.28-3.74 3.22-1.58-.05-3.15-.1-4.74-.14V122c1.57.04 3.16.09 4.74.14 1.95.06 3.43 1.12 3.44 3.41m-6.32 1.06 2.88.09c1.18.04 1.56-.52 1.57-1.17 0-.52-.37-1.41-1.57-1.45l-2.88-.09v2.6199999999999997m0 4.8c.97.03 1.91.05 2.88.09.77.02 1.87-.23 1.87-1.3 0-1.02-1.11-1.59-1.87-1.62l-2.88-.09zM234.56 131.81c-1.73-.08-3.49-.14-5.22-.21-.29.7-.58 1.4-.86 2.11-.68-.02-1.36-.05-2.04-.07 1.49-3.73 2.98-7.46 4.48-11.19.69.03 1.36.05 2.05.08 1.49 3.85 2.99 7.69 4.48 11.55l-2.06-.09c-.28-.73-.56-1.45-.84-2.18zm-2.61-6.94c-.62 1.59-1.25 3.17-1.85 4.76l3.71.15c-.62-1.64-1.23-3.27-1.86-4.91M240.33 122.85v9.38c1.72.08 3.42.17 5.14.25v1.98c-2.34-.12-4.67-.24-7.02-.34v-11.35l1.88.09zM248.66 123.28v9.38c1.71.09 3.42.19 5.14.29v1.98q-3.51-.21-7.02-.39v-11.35c.63.03 1.25.07 1.88.1zM266.79 134.33c-1.03 1.08-2.35 1.52-3.79 1.43-3.7-.25-5.28-3.24-5.29-6.2-.02-2.97 1.68-5.88 5.29-5.64 1.36.09 2.64.76 3.67 1.99-.43.43-.84.86-1.25 1.29a3.48 3.48 0 0 0-2.41-1.24c-2.4-.16-3.46 1.82-3.44 3.72 0 1.88.98 3.9 3.44 4.07.88.06 1.85-.28 2.51-.98.43.52.85 1.04 1.28 1.57zM269.57 124.61v9.38c1.71.12 3.42.25 5.13.38v1.98c-2.33-.18-4.68-.36-7.02-.52v-11.35c.63.05 1.26.09 1.88.14zM284.19 125.78v6.5c0 3.36-1.8 4.92-4.32 4.72-2.4-.2-4.44-2.01-4.43-5.43v-6.5l1.87.15v6.5c0 2.04 1.03 3.21 2.58 3.34 1.56.13 2.44-.99 2.44-2.93v-6.5c.62.05 1.25.1 1.87.16zM294.12 129.95c0 .88-.38 1.68-1.3 2.07 1.17.51 1.6 1.97 1.6 2.68 0 2.53-1.66 3.19-3.74 3l-4.73-.42v-11.35c1.57.14 3.14.27 4.73.42 1.98.18 3.44 1.33 3.44 3.61zm-6.31.69c.96.08 1.91.17 2.87.26 1.19.11 1.57-.43 1.57-1.07 0-.52-.36-1.43-1.57-1.54-.97-.09-1.91-.17-2.87-.26zm0 4.8c.96.08 1.91.17 2.87.26.77.07 1.86-.12 1.87-1.19 0-1.03-1.09-1.66-1.87-1.73-.97-.09-1.91-.17-2.87-.26zM83.73 52.65c2.74 6.58 5.51 13.16 8.26 19.76 2.89-7.05 5.79-14.1 8.68-21.13l5.41-.39c2.91 6.64 5.82 13.3 8.73 19.96 2.74-7.01 5.49-14.01 8.23-21.01 2.19-.12 4.37-.23 6.55-.34-4.55 11.41-9.09 22.86-13.65 34.33-.72.04-1.44.09-2.16.13q-5.22-11.97-10.44-23.88c-3.5 8.44-6.99 16.91-10.48 25.38-.7.06-1.39.11-2.09.17-4.55-10.82-9.11-21.61-13.66-32.37 2.2-.21 4.4-.41 6.62-.61M155.84 48.52v5.01c-5.01.13-10.02.29-15.03.49v8.71c4.79-.19 9.59-.34 14.39-.47v5.01c-4.8.13-9.59.28-14.39.47v9.42c5.12-.2 10.25-.36 15.36-.5v5.01c-7.25.19-14.51.44-21.76.76V49.28c7.15-.32 14.29-.57 21.43-.76M172.74 47.78c3.23-.04 6.34.74 9.33 2.35v5.7c-3.44-2.06-6.48-3.07-9.14-3.04-1.6.02-2.88.35-3.78.99-.91.64-1.36 1.48-1.37 2.52 0 1.25.84 2.39 2.54 3.43.48.31 2.3 1.17 5.48 2.6 2.71 1.26 4.69 2.67 5.89 4.24 1.21 1.56 1.79 3.44 1.8 5.65 0 2.85-1.03 5.15-3.08 6.9-2.05 1.76-4.71 2.65-7.96 2.69-2.13.03-3.96-.18-5.47-.62-1.52-.44-3.25-1.21-5.14-2.31v-6.31c3.53 2.87 6.89 4.29 10.02 4.25 1.57-.02 2.84-.38 3.8-1.06.97-.69 1.45-1.59 1.45-2.72 0-1.53-.85-2.78-2.51-3.73-1.4-.75-3.19-1.63-5.39-2.66q-3.915-1.725-5.85-4.05c-1.29-1.56-1.93-3.38-1.94-5.47 0-2.78 1.05-5.03 3.11-6.72s4.8-2.56 8.21-2.6zM216.61 48.55v5.01c-3.92-.11-7.85-.19-11.77-.26v28.15c-2.14-.04-4.27-.07-6.41-.09V53.21c-3.92-.04-7.85-.07-11.78-.07v-5.01c9.99.01 19.97.15 29.96.41zM237.5 48.88c3.43.15 6.52 1.02 9.27 2.58 2.74 1.56 4.93 3.73 6.56 6.49s2.45 5.74 2.44 8.91c0 3.1-.79 5.93-2.38 8.49s-3.78 4.49-6.55 5.8c-2.78 1.32-5.9 1.89-9.39 1.74-3.42-.15-6.56-1.02-9.36-2.61s-5-3.71-6.56-6.36c-1.57-2.65-2.35-5.55-2.35-8.7.01-3.04.77-5.87 2.35-8.5 1.57-2.63 3.72-4.63 6.48-6.01 2.75-1.38 5.93-1.99 9.49-1.83m-11.7 16.55c0 2.2.5 4.19 1.5 5.99.99 1.79 2.38 3.2 4.16 4.24s3.79 1.6 6.04 1.7c3.39.15 6.2-.78 8.39-2.8 2.18-2.02 3.28-4.71 3.29-8.08 0-2.2-.48-4.2-1.48-6.03-.99-1.82-2.38-3.25-4.18-4.31-1.79-1.05-3.82-1.64-6.06-1.74q-3.375-.15-6.06 1.2c-1.79.9-3.19 2.2-4.14 3.92-.96 1.71-1.44 3.68-1.45 5.89zM268.37 51.1c6.56 8.18 13.12 16.42 19.69 24.72V52.68c2.09.18 4.17.38 6.26.57V86.4l-5.5-.51c-6.61-8.43-13.2-16.8-19.8-25.12v23.52c-2.09-.15-4.18-.3-6.27-.44V50.7l5.62.39zM107.58 93.39c1.84-.13 3.6.22 5.3 1.03v3.24c-1.96-1.05-3.68-1.53-5.19-1.43-.92.06-1.65.29-2.15.68-.52.39-.77.89-.78 1.48 0 .71.48 1.33 1.44 1.87.27.16 1.31.59 3.11 1.3 1.55.63 2.66 1.36 3.34 2.21.69.85 1.02 1.89 1.03 3.14 0 1.62-.58 2.96-1.75 4.03-1.16 1.07-2.68 1.67-4.52 1.79-1.2.08-2.24.02-3.11-.18s-1.83-.59-2.92-1.16v-3.59c2.01 1.52 3.92 2.23 5.69 2.11.89-.06 1.61-.3 2.16-.73.55-.42.82-.95.82-1.59 0-.87-.47-1.55-1.43-2.03-.79-.38-1.82-.82-3.06-1.34-1.47-.57-2.59-1.28-3.32-2.12-.72-.84-1.09-1.86-1.1-3.05 0-1.58.59-2.88 1.76-3.91 1.18-1.02 2.72-1.6 4.66-1.74zM120.92 92.81v10.96c0 1.12.17 2.01.51 2.66.33.65.88 1.16 1.65 1.55.76.39 1.66.56 2.67.5 1.12-.06 2.06-.31 2.84-.76s1.35-1.03 1.71-1.75c.35-.72.52-1.71.54-2.96V92.29c1.21-.06 2.43-.11 3.64-.17v11.19c0 2.53-.76 4.52-2.28 5.95-1.53 1.43-3.65 2.22-6.44 2.36-1.75.09-3.26-.14-4.54-.69s-2.25-1.39-2.93-2.52c-.67-1.13-1-2.49-1.01-4.07V93.02l3.65-.21zM146.32 91.66c1.76-.06 3.2.41 4.29 1.39 1.1.99 1.65 2.28 1.65 3.89 0 1.63-.55 2.96-1.67 4q-1.68 1.56-4.41 1.65c-1.17.04-2.34.08-3.51.13v7.9c-1.21.05-2.42.09-3.64.14V91.93c2.42-.1 4.85-.19 7.28-.27zm-.9 8.12c.97-.03 1.73-.28 2.27-.74.56-.46.81-1.13.81-2 0-1.73-1.12-2.57-3.34-2.49l-2.48.09v5.24c.91-.03 1.82-.07 2.74-.1M167.89 91.12c.01.95 0 1.89 0 2.84-2.84.04-5.69.1-8.54.16v4.95c2.72-.06 5.45-.11 8.17-.16v2.84c-2.72.04-5.44.1-8.17.16v5.35c2.91-.07 5.81-.12 8.72-.17v2.84c-4.13.06-8.24.15-12.36.26V91.36c4.06-.11 8.12-.19 12.18-.25zM178.81 91.01c1.78-.01 3.21.48 4.33 1.45 1.11.97 1.67 2.25 1.67 3.82 0 1.07-.28 2-.83 2.8s-1.38 1.43-2.46 1.88c.6.32 1.13.76 1.61 1.32.47.56 1.05 1.49 1.74 2.81 1.14 2.28 2 3.86 2.56 4.72h-4.06c-.28-.41-.65-1.07-1.13-1.98-1.04-2-1.81-3.35-2.29-4.04-.49-.69-.96-1.18-1.4-1.47-.45-.29-.97-.43-1.55-.43-.44 0-.88 0-1.32.01v7.95c-1.22 0-2.43.02-3.64.04V91.06q3.39-.045 6.78-.06zm-.82 8.04c.95 0 1.69-.25 2.25-.73.54-.48.81-1.13.81-1.96 0-.86-.28-1.51-.81-1.93-.54-.42-1.32-.63-2.3-.63-.75 0-1.52 0-2.27.02v5.24c.78 0 1.54-.01 2.32-.02zM201.86 91.1c2.07 2.5 4.12 5.01 6.19 7.53 2.07-2.44 4.13-4.87 6.19-7.29 1.09.03 2.16.05 3.25.09v18.83c-1.21-.03-2.43-.07-3.64-.09V96.95h-.11c-1.82 2.16-3.63 4.34-5.45 6.51-.17 0-.34 0-.51-.01-1.82-2.24-3.62-4.48-5.45-6.72h-.11v13.22c-1.21-.02-2.43-.03-3.64-.05V91.07c1.1.01 2.19.03 3.27.04zM231.74 91.9l8.32 19.19c-1.28-.06-2.56-.12-3.84-.17-.65-1.55-1.31-3.11-1.95-4.67-2.79-.12-5.59-.22-8.37-.32-.6 1.5-1.21 3.01-1.82 4.52l-3.81-.12q3.885-9.3 7.77-18.57c1.24.05 2.48.09 3.72.14zM227 103.2c2.03.07 4.05.15 6.08.23-1.06-2.53-2.12-5.06-3.18-7.58-.97 2.45-1.93 4.9-2.9 7.35M249.6 92.76c1.77.1 3.21.67 4.33 1.72 1.11 1.04 1.67 2.35 1.67 3.93 0 1.07-.27 1.98-.83 2.75-.55.76-1.37 1.34-2.46 1.73.6.36 1.14.83 1.6 1.42.46.58 1.06 1.56 1.74 2.92 1.15 2.35 2.01 3.98 2.56 4.88-1.35-.09-2.71-.17-4.06-.25-.28-.43-.66-1.11-1.13-2.05-1.03-2.06-1.81-3.45-2.29-4.18-.49-.73-.96-1.24-1.4-1.56-.45-.32-.97-.49-1.55-.52-.43-.02-.87-.05-1.32-.07v7.95c-1.21-.06-2.43-.13-3.64-.19V92.41c2.26.12 4.52.23 6.78.36zm-.82 7.99c.95.05 1.7-.15 2.25-.59.54-.44.81-1.08.81-1.91q0-1.29-.81-1.98c-.54-.46-1.31-.71-2.3-.77l-2.27-.12v5.24l2.32.12zM273.31 94.32c.01.95-.01 1.9 0 2.84-2.84-.22-5.68-.42-8.53-.62v4.95c2.73.19 5.45.38 8.17.59v2.84c-2.72-.21-5.44-.4-8.17-.59v5.35c2.9.2 5.82.41 8.72.63v2.84c-4.12-.31-8.24-.61-12.36-.88V93.44c4.05.26 8.11.55 12.17.86z"></path><path fill="#776441" d="M170.77 408.51c-35.63-24.13-116.34-90.35-127.42-200.85-7.86-78.33 13.64-159.39 16.6-170.06-13.9 4.34-23.18 8.46-25.37 11.19-33.23 111.6-17.26 207.71 47.45 285.7 32.15 38.75 68.89 63.04 90.08 75.05-.45-.34-.88-.67-1.34-1.03M265.27 364.21l28.54-30.03c64.37-77.83 79.75-173.68 45.71-284.92-2.33-2-10.7-5.68-23.26-9.82 4.29 15.95 23.62 93.33 16.11 168.24-5.91 58.97-31.74 105.28-59.97 139.35 0 0-.08.09-.11.13-.04.05-.08.1-.11.14a356 356 0 0 1-11.41 13s-.08.08-.12.13-.09.1-.14.15c-19.82 21.27-39.63 36.68-53.58 46.3a309 309 0 0 0 26.63-16.78c9.97-7.18 20.79-15.79 31.72-25.88z"></path><path fill="#776441" d="M206.07 276.79c-.12 3.3-.04 7.03.42 11.08 1.52 13.1 7.1 29.73 22.92 45.19l27.88 24.22c3.15-3.71 7.25-8.89 10.5-13.12l-28.18-18.6c-.94-.65-1.85-1.31-2.74-1.98-.01 0-.02-.02-.03-.03-27.24-20.47-29.37-46.89-29.16-56.45.06-2.16.18-3.02.18-3.02v-.07s.01-.08.02-.12v-.09s.01-.02.01-.04c.01-.13.02-.24.03-.34-.17.58-1.57 5.62-1.84 13.35z"></path><path fill="#fff" d="M349.22 45.43c-2.78-9.03-39.35-19.23-54.95-23.19-20.95-5.33-62.67-14.27-106.62-14.27C121.01 7.96 29.64 29 24.72 45.47c-42.88 143.59 3.15 240.03 49.31 295.66 49.93 60.17 109.08 85.97 111.58 87.04l2.04.87 2.04-.87c2.51-1.07 61.94-26.87 111.85-87.05 46.15-55.63 91.88-152.1 47.67-295.7zM82.03 334.49C17.32 256.5 1.35 160.39 34.58 48.81c2.19-2.73 11.46-6.86 25.37-11.19-2.96 10.67-24.46 91.72-16.6 170.06 11.08 110.5 91.79 176.71 127.42 200.85.46.36.89.68 1.34 1.03-21.18-12.01-57.92-36.31-90.08-75.05zm125.84-70.68v.09l-.02.12v.07s-.12.86-.18 3.02c-.21 9.56 1.92 35.98 29.16 56.45.01 0 .02.02.03.03.89.67 1.8 1.33 2.74 1.98l28.18 18.6c-3.26 4.23-7.35 9.41-10.5 13.12l-27.58-23.93-.3-.3c-15.82-15.47-21.39-32.09-22.92-45.19a72.4 72.4 0 0 1-.45-10.7c.25-8.38 1.88-13.73 1.88-13.73s0 .09-.03.34v.04zm-5.34-64.61s3.38-4.59 7.46-5.02c3.37-.35 4.25-.65 8.21.96.96.39 2.42 1.63 2.69 3.69.28 2.18-1.44 3.89-2.4 4.58-5.3 3.82-15.96-4.21-15.96-4.21m2.88 69.97s-11.28 35.14 20.82 66.56l27.43 25.67c-3.96 4.48-7.9 8.68-11.79 12.62l-26.66-32.46c-27.4-37.38-9.8-72.38-9.8-72.38zM187.65 18.36c45.79 0 91.09 9.66 120.27 18.44 4.63 17.78 22.9 94.24 15.63 168.26-4.94 50.32-23.21 91.54-44.83 123.86-13.57-8.13-42.85-25.82-47.3-30.11-5.04-4.85-27.44-22.08-16.17-45.68 4.41-9.24 20.09-16.48 32.17-19.27l-.76-.02-.1.03-5.82-.13s1.12-.89 2.46-1.6c1.35-.71 5.46-1.42 5.46-1.42l-4.75-2.31s-5.18-2.18-6.91-2.61l-5.76-.78s.02-.02.03-.02l-1.09-.15s1.79-1.38 3.17-1.96 8.27-.89 8.27-.89l8.45-.71 8.97-.53s.08-3.32-1.58-4.43-8.8-5.9-8.8-5.9l2.64 1.42 2.11.55.19.05s0 .03.01.04l.71.19c-1.46-5.23-8.1-22.28-34.17-32.42-59.75-23.24-96.23 28.45-96.23 28.45C98.21 239.43 85.06 280 80.3 299.34c-13.72-27.07-24.24-58.77-27.75-95.12-7.36-76.23 12.06-155.07 15.73-169.08 29.93-8.41 75.36-16.78 119.36-16.78zm19.27 388.5c13.95-9.62 33.76-25.03 53.58-46.3 0 0 .09-.1.14-.15l.12-.12c3.69-3.98 7.77-8.63 11.41-13.01 0 0 .08-.09.11-.14.04-.04.08-.09.11-.13 28.23-34.08 54.06-80.39 59.97-139.35 7.51-74.91-11.81-152.28-16.11-168.24 12.56 4.14 20.93 7.82 23.26 9.82 34.04 111.24 18.66 207.09-45.71 284.92l-28.54 30.03a339 339 0 0 1-31.72 25.88c-12.54 9.04-23.75 15.83-32.17 20.5a290 290 0 0 0 5.54-3.73z"></path><path fill="#776441" d="m248.69 233.83 3.86-.18 8.78.18 7.02.53 5.79 1.91s2.34 1.04 4.56 1.46 3.51.35 4.04.35c.28 0 1.9-.31 2.99-.54 0 .02.14.03.35.03.06-.01.04-.02.14-.04.92-.17.66-.11-.02.04 1.44-.01 5.93-.37 5.93-.37l4.74-.11.11.11.94.96.97.98s.96-2.87.7-5.66-.88-3.1-1.39-4.27c-.51-1.18-1.33-2.2-2.47-3.51s-4.35-3.93-5.09-4.6-2.34-2.03-4.74-3.01-2.76-1.22-5.26-1.75-8.07-1.08-8.07-1.08l-8.25-.88-8.25-1.24-1.73-.45-.71-.19s0-.03-.01-.04l-.19-.05-2.11-.55-2.64-1.42s7.14 4.78 8.8 5.9c1.66 1.11 1.58 4.43 1.58 4.43l-8.97.53-8.45.71s-6.89.31-8.27.89-3.17 1.96-3.17 1.96l1.09.15c1.6.22 4.5.62 5.42.74.08.01.19.03.31.06 1.73.43 6.91 2.61 6.91 2.61l4.75 2.31s-4.11.71-5.46 1.42-2.46 1.6-2.46 1.6l5.82.13.1-.03c.07-.02.14-.04.2-.05l1.82.04z"></path></g><defs data-source="https://football-logos.cc"><clipPath id="a"><path fill="#fff" d="M0 0h374.86v437.01H0z"></path></clipPath></defs><!-- source: https://football-logos.cc --></svg>