<svg xmlns="http://www.w3.org/2000/svg" viewBox="0 0 566.93 565.4"><!-- Source: https://football-logos.cc --><path d="M297.638 138.243a283.465 282.702 0 0 1 283.464 282.702 283.465 282.702 0 1 1-283.464-282.702" style="fill:#a81f13;fill-rule:evenodd" transform="translate(-14.173 -138.243)" data-source="https://football-logos.cc"></path><path d="M297.638 152.702a269.006 268.243 0 0 1 269.006 268.243 269.006 268.243 0 1 1-269.006-268.243" style="fill:#fff;fill-rule:evenodd" transform="translate(-14.173 -138.243)"></path><path d="M297.868 219.386A202.508 201.463 0 0 1 500.376 420.85a202.508 201.463 0 1 1-202.508-201.463" style="fill:#a81f13;fill-rule:evenodd" transform="translate(-14.173 -138.243)"></path><path d="M383.694 450.435c1.716 2.054 1.239 3.369-.702 4.395-2.682 1.419-6.34 2.116-10.61 2.474l-29.193-13.08c-1.32-.592-2.372-.007-.987 1.078 6.29 4.927 12.118 7.96 23.993 14.006l-5.64 2.357-23.932-15.914c-.727-.483-1.388.198-.832.87 3.657 4.427 12.614 11.577 19.46 16.19l-2.325 1.11c-7.813-5.476-18.678-13.63-23.439-16.428-1.01-.709-1.49.27-.956.855 5.729 6.274 12.814 12.575 20.353 17.643l-3.586 1.262-22.283-17.54c-.76-.599-1.466.112-.909.853 5.981 7.947 12.923 12.622 19.385 18.554l-3.122 1.28c-6.064-4.956-14.99-12.717-18.191-14.865-.799-.536-1.467.225-.63 1.2 4.247 4.955 9.766 9.91 14.65 14.865l-3.32 1.361-11-11.403c-.497-.515-1.47-.381-.797.988.95 1.93 4.365 6.464 9.775 12.597-2.008 1.933-7.868 3.354-10.368.443-4.692-5.462-12.455-18.407-15.933-24.017-1.265-12.949-7.112-23.35-7.303-23.654 1.859.62 2.659.939 5.32 2.43 1.394.782 3.1-1.153.664-2.687-6.124-3.857-14.664-4.28-16.226-3.569-.925.422-.956 2.388.957 2.285 2.338-.125 4.096.18 5.298.572 7.401 12.253 8.333 22.853 8.202 27.887-4.835 8.053-10.03 16.072-14.888 24.111-1.938 3.207-4.442 7.628-5.044 10.792 2.531 1.297 5.19 1.856 7.213 4.425-9.762-.912-17.802 1.614-24.854 6.084.495-2.727 2.013-4.403 3.762-5.687 2.25-1.65 4.98-2.652 7.446-4.401 5.402-7.626 9.707-16.293 14.22-23.41-4.758-8.775-11.415-19.979-12.438-34.563-.136-1.945-2.327-2.366-2.527.216-.454 5.832 1.877 12.245 3.049 16.411-.332 3.178-.862 6.84-1.286 10.658-.352 3.165-.585 6.44-.996 9.639-.158 1.23-1.004 1.947-1.317 3.077-.733 2.645-.666 5.111-1.6 7.238-.972 2.214-2.145 3.42-2.888 4.873-.636 1.245-.729 2.244-.237 3.036s1.27 1.377 2.466 1.794c-1.212.812-4.887 1.987-6.849 3.774-2.223 2.025-3.819 4.836-4.49 8.796-2.7 2.475-5.4 4.86-8.1 7.23-4.655.77-7.842 4.693-10.801 10.013-1.218-6.199 10.778-16.916 13.713-20.48 1.004-1.22-.356-2.462-1.342-1.743-2.525 1.838-6.175 6.391-8.766 9.31.168-8.583 4.921-12.63 13.86-15.745 3.713-4.219 6.661-6.49 8.65-9.922 1.548-2.668 2.576-5.7 2.84-8.883-3.325-3.872-6.125-8.575-7.77-14.363a53 53 0 0 1-1.723-19.87c.88.248 1.976.896 2.555.862 1.734-.1 2.156-2.093.675-2.83-5.824-2.899-8.981-4.884-11.527-6.282.521-2.124 3.906-4.754 16.53-4.539 2.626.045 2.044-2.673 1.15-2.812-3.297-.513-13.805-1.78-19.86 3.838-.755.7-2.391 3.778-3.949 6.239-1.44 2.277-3.187 4.28-5.403 5.85-2.474 1.751-5.23 2.996-7.694 4.776-2.211 1.598-4.07 3.505-4.954 5.487-.963 2.16-1.257 4.794.97 7.778.183.244-.245.733-.527.61-12.323-5.405-15.726-14.64-15.904-22.39-.35-15.318 17.115-36.663 36.083-47.038-9.279-5.776-19.902-13.12-24.814-19.182-.264-.327-.172-.69.194-.484 5.077 2.86 8.57 3.642 14.07 5.27.537.159.635-.23.477-.33-8.62-5.382-18.756-13.796-20.517-15.859-.474-.555-.253-.681.426-.355 5.327 2.557 10.41 4.332 15.33 5.439.824.185.564-.294.356-.418-9.402-5.625-16.637-12.183-22.408-18.45-.345-.374-.336-.785.258-.384 5.308 3.576 10.726 6.016 16.95 7.756.525.146.62-.32.333-.494-10.525-6.354-20.493-14.725-22.645-17.403-.361-.449-.343-.802.215-.575 8.869 3.61 14.834 5.629 18.584 6.609.48.125.624-.373.158-.648-11.299-6.672-23.967-17.773-27.462-22.372-.229-.302-.067-.613.266-.433 6.248 3.384 11.826 6.41 17.553 8.487.737.267.816-.22.485-.46-8.244-5.989-16.778-14.145-23.39-23.593-.399-.571-.312-1.126.273-.635 5.947 5.018 12.342 8.965 19.051 12.751.656.37 1.218-.128.665-.648-8.154-7.658-17.956-16.274-23.793-24.432-.39-.546-.146-.942.346-.573 16.446 11.621 20.892 13.604 29.706 18.875.64.383.958-.305.697-.576-9.117-9.46-17.718-17.089-28.645-31.606-.978-1.3.54-2.662 1.864-1.754 5.61 3.846 15.631 11.332 24.173 17.288a2499 2499 0 0 0 30.194 20.698c3.416 2.307 6.973 4.554 9.19 6.122 3.07 2.173 4.56 2.74 4.321 7.246-.656 12.394 8.32 30.4 17.188 40.225-1.28 1.403-3.621 2.664-4.771 4.657-2.127 3.683-1.015 9.396-4.804 15.457-.96 1.537 1.69 3.112 2.556 1.563 4.594-8.215 2.749-10.665 4.894-15.333.64-1.394 2.749-2.066 4.386-3.986 3.312-3.884 9.12-11.936 12.717-19.48 2.46-5.162 4.47-10.457 7.392-15.14 2.815-4.512 6.818-8.147 10.412-11.18 4.586-3.872 10.6-5.423 16.822-7.116 14.456-3.935 27.785-9.484 40.94-16.63 14.588-7.925 24.678-13.569 41.12-26.68.66-.527 3.01.203 1.652 2.416-7.768 12.657-21.99 23.306-32.713 30.407-.321.213-.087.755.362.545 11.622-5.446 22.953-12.59 31.079-17.474.953-.573.977.005.579.755-5.165 9.712-29.08 26.506-48.882 37.311-.784.428-.244 1.145.251.94 9.056-3.741 28.645-11.152 45.796-18.955.91-.413.88.373.57.765-3.787 4.77-10.127 9.734-17.707 14.546-7.84 4.977-16.99 9.795-24.925 14.071-.796.429-.346.878.242.708 8.891-2.575 29.05-10.012 38.928-14.107.538-.223 1.078.14.347.79-6.304 5.597-31.04 22.586-57.14 31.016-.166.054-.754.513.183.513 5.8 0 11.532-.46 17.968-.86.125-.009.386.127.305.223-4.536 5.36-14.433 8.36-22.931 11.73-.463.183-.232.464.017.446 5.63-.412 13.095-1.377 19.612-1.753.238-.013.292.15.129.325-4.98 5.342-12.57 8.681-21.95 10.985-.257.063-.186.426.08.416 6.924-.234 12.225-.614 17.301-.7.235-.003.22.124.052.288-7.125 6.987-16.009 9.338-26.045 11.346-.448.09-.305.474.063.513 6.89.727 14.185.816 21.075 1.304.206.015.181.172.016.296-6.497 4.825-16.096 5.864-25.746 6.723-.463.041-.35.506-.049.578 5.18 1.237 13.083 1.455 18.218 1.666.222.01.206.359.023.484-5.868 4.012-13.285 6.391-22.592 6.53-.243.003-.26.287-.034.37 3.143 1.15 8.761 2.69 14.173 4.288.26.077.256.295 0 .382-4.186 1.426-9.41 2.314-17.148 2.141-.348-.007-.146.255-.013.335 3.465 2.08 9.541 5.44 14.523 7.597.302.13.232.314-.156.358-4.52.516-13.218.474-19.828-1.155-.336-.083-.454.17-.226.383 6.368 5.936 17.914 12.201 28.106 16.744 8.07 3.597 17.048 7.186 25.483 9.88 8.036 2.565 14.43 3.92 16.418 6.3M227.09 423.932c.424-.55.75-1.02 1.08-1.461.572-.763-.39-1.502-1.396-.956-1.913 1.037-3.42 2.727-4.326 4.192-1.027 1.662-1.37 4.678-.696 5.152.681.48 1.423-.458 1.716-.889 2.141 1.412 3.934.918 4.905-.392 1.1-1.484 1.11-4-1.283-5.646" style="fill:#fff;fill-rule:evenodd" transform="translate(-14.173 -138.243)" data-source="https://football-logos.cc"></path><path d="M285.69 496.96c11.609 0 23.56 5.614 30.358 12.668l-6.28 5.506c-7.742-3.814-16.799-5.313-24.842-5.313-7.735 0-17.418 2.128-23.711 5.32l-6.285-5.51c8.134-7.942 18.856-12.672 30.76-12.672m27.328 20.132 6.45-5.656c2.929.324 6.172 4.246 8.28 7.994 2.73 4.854 1.325 9.658-.61 10.507l-8.768 1.66c-1.13-4.847-2.887-9.696-5.352-14.505m6.068 18.049 9.693-1.836c1.903-.111 3.357 1.79 4.185 4.37s1.028 5.84 1.028 7.842c0 1.99-.131 6.268-1.442 9.428-.787 1.896-1.946 3.242-3.636 3.6l-9.96-1.807c.706-3.999 1.036-7.974 1.007-11.714a61.4 61.4 0 0 0-.875-9.883m-.854 25.14 9.284 1.852c1.887 1.596 2.045 4.583 1.177 7.447-1.556 5.132-5.195 9.505-9 10.749l-6.73-5.746c2.37-4.434 4.114-9.338 5.269-14.303m-8.434 16.35 6.279 5.38c-8.083 7.69-18.727 12.62-30.388 12.62-11.704 0-22.383-4.817-30.476-12.554l6.099-5.55c8.973 4.27 16.403 5.524 24.98 5.384 7.719-.126 16.582-1.859 23.506-5.28m-51.726-1.915-6.555 5.596c-3.644-.53-7.62-5.493-9.121-10.313-.872-2.8-.778-6.74 1.092-7.952l9.28-1.851a76.7 76.7 0 0 0 5.304 14.52m-6.097-18.048-10.247 2.045c-4.225-.758-4.342-10.801-4.342-13.45 0-2.91-.119-10.67 4.416-12.028l10.074 1.907c-.748 3.96-1.094 7.94-1.002 11.9.072 3.08.449 6.322 1.1 9.626m.675-25.058-8.657-1.72c-1.764-.55-2.543-3.612-2.08-6.22.796-4.484 3.191-7.965 5.823-10.48 1.592-1.52 3.34-1.91 4.31-1.28l5.998 5.257c-2.357 4.726-4.176 9.563-5.394 14.443m24.76-17.55c-3.418 20.466-3.563 43.414.1 63.845 2.75.328 5.618.443 8.723.392a58 58 0 0 0 7.238-.587l.029-.17c3.52-20.871 3.49-42.61.056-63.497a61.4 61.4 0 0 0-8.63-.607c-2.177 0-4.782.211-7.516.624m-3.674 63.243c-3.44-20.095-3.315-42.425-.1-62.555-4.74 1.01-9.458 2.59-12.682 4.69-4.156 8.547-6.688 17.973-6.466 27.52.2 8.67 2.918 17.98 6.67 25.84 4.339 2.22 8.378 3.657 12.578 4.505m9.417-44.093h5.465v23.008h-5.465zm14.171-18.502c3.24 20.53 3.256 41.827-.079 62.338 4.57-.958 9.07-2.481 12.776-4.63 4.244-8.168 6.396-18.262 6.325-27.363-.07-9.007-2.203-17.596-6.2-25.63-3.893-2.22-8.298-3.756-12.822-4.715" style="fill:#fff;fill-rule:evenodd" transform="translate(-14.173 -138.243)"></path><path d="m79.679 410.339-16.534-6.554 17.242-4.406.494-7.64-28.554-9.96-.51 7.896 16.996 5.768-17.646 4.27-.424 6.568 16.985 6.509-17.634 3.528-.509 7.86 29.6-6.2zM58.658 353.21l10.958 2.834-2.944 11.384-10.958-2.834-1.843 7.125 28.21 7.295 1.842-7.124-10.488-2.712 2.944-11.386 10.488 2.713 1.852-7.16-28.21-7.296zM64.248 334.934l27.202 10.442 2.65-6.904-27.202-10.442zM76.525 321.872l4.163-7.964 19.4 10.142 3.426-6.554-19.4-10.142 4.164-7.963-6.423-3.358-11.753 22.481zM110.4 303.94l13.02-17.92-5.833-4.238-8.672 11.937-3.022-2.196 7.129-9.813-5.47-3.974-7.13 9.813-3.384-2.46 8.672-11.936-5.863-4.26-13.02 17.92zM119.336 246.317l8.237 7.763-8.065 8.558-8.238-7.763-5.046 5.356 21.205 19.983 5.047-5.356-7.884-7.43 8.065-8.557 7.884 7.43 5.072-5.383-21.205-19.983zM140.62 226.565l8.73 30.155 6.353-4.963-1.369-4.335 8.946-6.99 3.875 2.378 6.352-4.963-27.117-15.79zm16.516 10.088-4.983 3.893-2.76-8.7zM186.503 230.068l-3.112-17.511 12.81 12.354 6.758-3.593-6.529-29.53-6.987 3.716 4.023 17.492-12.904-12.77-5.812 3.09 3.388 17.872-12.269-13.15-6.955 3.698 20.83 21.925zM214.803 215.533l7.034-2.285-2.713-8.35 1.183-2.701 10.955 7.988 8.722-2.834-16.532-12.107 6.965-15.421-9.073 2.948-5.406 12.322-3.105-9.557-7.034 2.285zM259.759 202.984l7.318-.769-1.042-9.92 11.731-1.232-.707-6.725-11.731 1.233-.539-5.126 13.975-1.47-.758-7.207-21.293 2.238zM286.394 185.224a14.6 14.6 0 0 0 .711 4.789 14.9 14.9 0 0 0 2.128 4.184 15.48 15.48 0 0 0 7.43 5.566c1.513.53 3.104.82 4.774.855 1.695.024 3.307-.21 4.845-.687a15.4 15.4 0 0 0 4.234-2.08 15.3 15.3 0 0 0 3.379-3.223 15.1 15.1 0 0 0 2.247-4.108c.544-1.504.83-3.087.866-4.761a14.8 14.8 0 0 0-.7-4.789 15.1 15.1 0 0 0-2.102-4.183 15.3 15.3 0 0 0-3.264-3.34 15.3 15.3 0 0 0-4.16-2.226 15.5 15.5 0 0 0-4.817-.857c-1.67-.022-3.27.211-4.802.689a15.483 15.483 0 0 0-7.619 5.303 14.8 14.8 0 0 0-2.272 4.108 14.6 14.6 0 0 0-.878 4.76m7.469.13c.025-1.107.247-2.137.67-3.082a7.87 7.87 0 0 1 4.245-4.136 7.8 7.8 0 0 1 3.061-.563q1.675.04 3.089.67a7.7 7.7 0 0 1 2.454 1.73 7.8 7.8 0 0 1 1.614 2.551q.565 1.441.543 3.104-.036 1.663-.651 3.084a7.7 7.7 0 0 1-1.702 2.486 7.7 7.7 0 0 1-2.513 1.65q-1.436.581-3.11.562a7.8 7.8 0 0 1-3.04-.67 7.8 7.8 0 0 1-2.46-1.736 7.8 7.8 0 0 1-1.638-2.545q-.584-1.44-.562-3.105M324.291 186.323c-.284 1.65-.3 3.26-.046 4.841q.372 2.361 1.447 4.466a15.5 15.5 0 0 0 6.467 6.66 15.3 15.3 0 0 0 4.582 1.591c1.67.288 3.3.31 4.892.079 1.589-.238 3.096-.7 4.508-1.393a15.3 15.3 0 0 0 3.841-2.654 15.1 15.1 0 0 0 2.863-3.706 14.8 14.8 0 0 0 1.6-4.567 14.8 14.8 0 0 0 .058-4.838 15.1 15.1 0 0 0-1.422-4.462 15.3 15.3 0 0 0-2.702-3.808 15.3 15.3 0 0 0-3.76-2.85 15.5 15.5 0 0 0-4.624-1.6 15.3 15.3 0 0 0-4.85-.07q-2.372.356-4.507 1.392a15.5 15.5 0 0 0-3.848 2.653 14.8 14.8 0 0 0-2.886 3.702 14.6 14.6 0 0 0-1.613 4.564m7.357 1.297q.296-1.637 1.144-2.94a7.9 7.9 0 0 1 2.095-2.191 7.763 7.763 0 0 1 5.856-1.306q1.649.3 2.946 1.145a7.7 7.7 0 0 1 2.153 2.093 7.8 7.8 0 0 1 1.195 2.771q.333 1.511.052 3.15-.298 1.64-1.126 2.944a7.7 7.7 0 0 1-2.07 2.19 7.7 7.7 0 0 1-2.74 1.237q-1.509.35-3.16.068a7.8 7.8 0 0 1-2.898-1.137 7.8 7.8 0 0 1-2.158-2.1 7.8 7.8 0 0 1-1.22-2.77q-.35-1.513-.07-3.154M362.56 186.21l8.507 2.895-7.054 20.723 7 2.383 7.056-20.723 8.506 2.896 2.335-6.86-24.014-8.175zM385.077 217.019l13.804 7.278c1.3.678 2.549 1.112 3.76 1.3 1.213.182 2.347.146 3.41-.124a7.3 7.3 0 0 0 2.851-1.432c.85-.686 1.551-1.568 2.12-2.633.523-1.006.816-1.984.877-2.945q.09-1.442-.42-2.77a8.5 8.5 0 0 0-1.556-2.509 7.1 7.1 0 0 0 2.329-.426 6.3 6.3 0 0 0 2.026-1.226q.914-.826 1.61-2.129.814-1.547.977-3.109a7 7 0 0 0-.371-3.074c-.356-1.005-.959-1.949-1.808-2.847-.845-.896-1.957-1.708-3.328-2.437l-12.692-6.692zm18.625-3.61c.58.313 1.008.652 1.263 1.025q.39.557.368 1.18c-.016.414-.137.842-.378 1.285-.236.46-.527.814-.868 1.078a2 2 0 0 1-1.204.406c-.455.006-.982-.145-1.568-.447l-6.543-3.45 2.387-4.526zm4.093-9.666c.68.373 1.1.833 1.249 1.383s.06 1.13-.269 1.752a2.5 2.5 0 0 1-.8.95c-.321.225-.708.324-1.152.308s-.965-.178-1.548-.486l-5.398-2.845 2.16-4.098zM437.906 213.103l-26.668 16.565 6.498 4.773 3.802-2.491 9.15 6.721-1.24 4.373 6.497 4.773 7.862-30.379zm-5.243 18.63-5.096-3.743 7.628-5.012zM440.437 251.297l15.242 14.718 5.008-5.185-9.949-9.608 15.233-15.774-5.294-5.112zM460.514 270.537l13.335 16.467 5.603-4.537-8.704-10.748 17.041-13.8-4.63-5.72zM505.188 317.632a7.8 7.8 0 0 1-2.703-.519 7.6 7.6 0 0 1-2.356-1.442q-1.068-.947-1.775-2.319a7.8 7.8 0 0 1-.836-2.998 7.8 7.8 0 0 1 .378-2.987 7.8 7.8 0 0 1 1.478-2.641q.998-1.192 2.477-1.954 1.486-.748 3.037-.856a7.9 7.9 0 0 1 3.01.355 7.9 7.9 0 0 1 2.634 1.452 7.8 7.8 0 0 1 1.934 2.439 7.84 7.84 0 0 1 .612 5.547 7.7 7.7 0 0 1-1.167 2.497l5.785 4.605a15.4 15.4 0 0 0 1.918-3.64c.474-1.293.775-2.636.895-4.018a15.2 15.2 0 0 0-.218-4.171 15.2 15.2 0 0 0-1.4-4.094 15.3 15.3 0 0 0-2.863-3.916 15.488 15.488 0 0 0-8.259-4.237 14.8 14.8 0 0 0-4.693-.078c-1.586.22-3.121.704-4.616 1.46a14.6 14.6 0 0 0-3.894 2.876 14.8 14.8 0 0 0-2.696 3.843 15.47 15.47 0 0 0-1.426 9.172 15.3 15.3 0 0 0 1.486 4.617 15.3 15.3 0 0 0 2.494 3.55 15.2 15.2 0 0 0 3.265 2.64q1.798 1.083 3.802 1.645a15.4 15.4 0 0 0 4.107.557zM501.115 333.675l6.759 20.082 6.833-2.299-4.411-13.108 20.782-6.994-2.347-6.974zM542.147 372.074l-15.658 3.044c-2.08.397-3.764.216-5.048-.551-1.284-.768-2.12-2.1-2.498-4.01-.36-1.889-.082-3.425.823-4.605q1.362-1.763 4.48-2.378l15.657-3.044-1.411-7.26-16.098 3.13c-1.479.287-2.837.74-4.082 1.352a12.7 12.7 0 0 0-3.284 2.29 11.1 11.1 0 0 0-2.29 3.163q-.878 1.8-1.122 3.985c-.16 1.463-.075 3.041.25 4.742.335 1.693.847 3.183 1.542 4.479.695 1.29 1.543 2.387 2.535 3.28q1.48 1.349 3.312 2.094c1.22.504 2.521.803 3.906.91q2.075.162 4.292-.268l16.098-3.13zM516.258 391.692l.572 15.594c.06 1.466.306 2.765.747 3.908.447 1.143 1.043 2.108 1.807 2.894a7.3 7.3 0 0 0 2.662 1.759c1.018.394 2.133.563 3.34.525 1.133-.048 2.127-.282 2.99-.708a6.5 6.5 0 0 0 2.192-1.745 8.5 8.5 0 0 0 1.4-2.599 7.1 7.1 0 0 0 1.53 1.806 6.3 6.3 0 0 0 2.072 1.146q1.173.38 2.648.334c1.164-.042 2.227-.279 3.183-.702a7 7 0 0 0 2.48-1.855c.693-.809 1.211-1.802 1.567-2.987q.532-1.77.454-4.1l-.526-14.338zm12.413 14.346c.018.66-.062 1.2-.259 1.607-.19.408-.472.714-.839.907-.367.192-.799.3-1.303.313a3.1 3.1 0 0 1-1.366-.216c-.399-.163-.714-.448-.953-.84-.232-.392-.364-.924-.394-1.583l-.271-7.39 5.114-.189zm10.42-1.27q.026 1.167-.577 1.773c-.402.404-.949.614-1.652.64a2.53 2.53 0 0 1-1.223-.22c-.355-.166-.633-.452-.84-.845-.208-.393-.328-.925-.352-1.585l-.223-6.097 4.629-.17zM208.362 649.962l14.34 5.264 1.733-4.72-9.552-3.507.897-2.445 7.853 2.882 1.625-4.426-7.853-2.883 1.006-2.739 9.552 3.507 1.742-4.745-14.341-5.264zM232.54 652.58l-.056.229c-.229.972-.232 1.883.003 2.735q.344 1.282 1.265 2.329.925 1.05 2.314 1.815 1.393.769 3.139 1.194 1.66.404 3.151.37c.995-.025 1.895-.199 2.71-.523a5.35 5.35 0 0 0 2.054-1.448q.839-.957 1.197-2.399.259-1.083.124-2.034a5.5 5.5 0 0 0-.55-1.779 7.7 7.7 0 0 0-1.039-1.54q-.614-.713-1.328-1.316a21 21 0 0 0-1.425-1.102q-.718-.497-1.333-.902a27 27 0 0 1-1.683-1.156q-.629-.476-.876-.858-.249-.38-.15-.765c.05-.224.185-.42.392-.584q.314-.244.88-.312.57-.069 1.409.128.749.19 1.266.515c.342.213.61.457.805.719.197.267.323.54.388.814q.09.411.003.778l-.044.177 4.832 1.178.068-.278c.235-.984.249-1.92.048-2.8a6.1 6.1 0 0 0-1.17-2.412q-.868-1.091-2.197-1.885c-.887-.525-1.9-.928-3.03-1.208-1.108-.266-2.158-.374-3.144-.315q-1.485.088-2.689.64a5.6 5.6 0 0 0-2.035 1.547q-.832.996-1.183 2.41-.285 1.224-.079 2.265.206 1.04.773 1.927.565.882 1.36 1.632.803.745 1.69 1.378a43 43 0 0 0 1.751 1.164q1.063.68 1.713 1.195.644.507.903.926c.171.283.226.56.155.833q-.066.298-.363.52-.296.223-.879.268-.582.046-1.507-.17a6 6 0 0 1-1.42-.53 3.6 3.6 0 0 1-.912-.692c-.22-.241-.376-.485-.452-.727q-.118-.355-.049-.646l.031-.126zM257.315 649.176l6.127.931-2.294 15.093 5.043.766 2.294-15.092 6.127.93.76-4.996-17.297-2.629zM278.684 665.041a3.305 3.305 0 0 0 1.549 2.858 3.12 3.12 0 0 0 3.23.057 3.31 3.31 0 0 0 .098-5.661 3.12 3.12 0 0 0-3.23-.056 3.31 3.31 0 0 0-1.647 2.802M306.208 655.05l2.63-1.145.976 14.295 5.064-.345-1.384-20.274-3.409.233-4.247 1.83zM332.728 665.972l3.537-8.844q.42-1.035.633-1.9a7.8 7.8 0 0 0 .244-1.668 7.8 7.8 0 0 0-.129-1.623 7.7 7.7 0 0 0-.802-2.29 7.7 7.7 0 0 0-1.435-1.877 7.7 7.7 0 0 0-1.919-1.348 7.7 7.7 0 0 0-2.274-.706 7.7 7.7 0 0 0-2.484.046 7.3 7.3 0 0 0-2.775 1.114 7.4 7.4 0 0 0-2.062 2.047 7.8 7.8 0 0 0-1.147 2.718c-.213.996-.224 2.04-.037 3.122q.272 1.474.965 2.574a6.2 6.2 0 0 0 1.707 1.801c.671.466 1.42.79 2.239.969q1.227.274 2.572.083l-2.881 6.873zm-.831-11.365a3.2 3.2 0 0 1-.778.93q-.452.371-1.09.492-.735.126-1.383-.121a2.6 2.6 0 0 1-1.09-.774 2.7 2.7 0 0 1-.584-1.254c-.086-.5-.05-.975.104-1.413.153-.442.396-.817.74-1.121a2.53 2.53 0 0 1 1.235-.594 2.64 2.64 0 0 1 1.385.112q.653.242 1.112.797.455.552.608 1.364a2.3 2.3 0 0 1 .013.765q-.06.382-.272.817M361.015 660.008l-.91-3.37 1.87-.505-1.27-4.704-1.871.506-1-3.697-4.75 1.284.998 3.697-2.955.798 3.283-13.273-5.466 1.476-3.41 14.172 1.054 3.898 8.765-2.368.91 3.37zM376.727 633.51l-10.464 3.98 2.073 10.834 4.752.368c.307-.698.647-1.24 1.022-1.639q.566-.59 1.23-.834.537-.198.967-.16.434.046.759.25c.217.141.404.312.553.51q.223.308.344.632.216.581.102 1.14-.113.565-.543 1.034c-.292.31-.679.56-1.174.753a3.5 3.5 0 0 1-1.886.183q-.954-.167-1.955-.812l-3.135 3.952a10 10 0 0 0 1.854 1.134q1.005.475 2.14.7 1.132.231 2.345.14a8.7 8.7 0 0 0 2.467-.558q1.542-.594 2.663-1.594a7.4 7.4 0 0 0 1.747-2.27 6.9 6.9 0 0 0 .702-2.711q.075-1.437-.478-2.908c-.344-.89-.81-1.661-1.4-2.305a6.5 6.5 0 0 0-2.023-1.517 6.3 6.3 0 0 0-2.422-.593 6.5 6.5 0 0 0-2.6.436c-.337.128-.636.251-.897.378a4.335 4.335 0 0 0-1.329.942l-.489-1.932 6.937-2.638z" style="fill:#a81f13;fill-rule:evenodd" transform="translate(-14.173 -138.243)" data-source="https://football-logos.cc"></path><!-- source: https://football-logos.cc --></svg>