<svg xmlns="http://www.w3.org/2000/svg" xml:space="preserve" viewBox="0 0 600.86 625.38"><!-- Source: https://football-logos.cc --><path fill="#07539d" d="M362.82 0c7.547 61.194-199.12 89.565-192.01 155.81a358 358 0 0 1 22.398-10.786c19.378-11.785 38.753-19.988 58.131-36.725-4.12 8.85-7.535 15.017-10.931 19.455 46.337-13.698 107-22.444 175.23-9.778-8.54-13.578-20.746-25.523-40.238-34.22-14.265.253-38.559 1.756-61.136 7.205 15.788-15.443 86.323-1.745 48.553-90.964zm-93.57 135.47c-61.105 3.658-116.48 24.105-141 72.609a322 322 0 0 1 20.922-10.663c33.85-15.735 70.381-25.668 107.62-29.868 51.379 9.316 100.65 39.774 117.5 91.482 25.363 78.834-40.91 144.98-115.58 160.2 11.128 8.943 23.905 16.515 37.936 22.37 77.605-26.728 138.44-99.417 116.72-182.72-9.649-37.671-35.239-68.754-67.003-90.459 46.254 6.123 91.158 21.064 130.89 44.698-8.336-17.702-19.332-34.319-32.611-49.518-47.454-18.655-114.29-31.788-175.4-28.13zm-13.292 61.393c-42.894 4.866-84.598 22.263-110.07 36.715h87.428c14.307-4.857 53.358-9.545 73.456-8.646-2.692-2.546-21.791-19.725-50.813-28.069zm190.95 34.074c10.04 24.645 14.207 51.336 11.236 78.862-6.595 61.148-46.963 113.21-104.73 145.01 4.278.293 8.604.45 12.974.45 20.734 0 40.504-3.366 58.55-9.455 39.755-35.5 66.085-81.571 71.657-133.23a186.6 186.6 0 0 0-.912-47.395c-14.497-12.94-30.873-24.451-48.775-34.241zm-243.43 126.7c-17.091 18.278-26.614 40.784-26.614 64.294 0 7.103.863 14.142 2.558 21.024 33.154 30.851 76.22 53.558 124.29 65.336 24.404-5.979 47.35-14.725 68.285-25.797-61.812-1.923-117.24-24.207-156.54-58.886a61 61 0 0 1-.025-1.677c0-23.43 13.371-45.15 35.902-59.194 3.014-1.874 6.17-3.562 9.415-5.1zm-74.97 8.286c4.263 9.522 8.52 18.223 14.129 26.703 2.036-9.015 6.114-19.691 9.792-26.703z" style="mix-blend-mode:normal" data-source="https://football-logos.cc"></path><path fill="#074e8d" d="M362.82.001c16.423 63.296-32.371 60.643-48.553 90.964C330.055 75.522 400.59 89.221 362.82.001m12.581 83.758c-50.075 24.374-101.34 23.165-134.99 43.998 46.34-13.698 107-22.444 175.23-9.778-8.54-13.578-20.746-25.523-40.238-34.22zm19.19 75.678c-16.395.714-32.484 3.618-48.228 8.976l.025.015c46.248 6.124 91.146 21.057 130.87 44.685-8.336-17.699-19.332-34.315-32.611-49.514-16.962-3.4-33.661-4.876-50.056-4.162zm-155.82 6.847c-41.314-.921-77.657 12.4-110.52 41.79a326 326 0 0 1 20.919-10.66c33.828-15.723 70.332-25.653 107.54-29.859l.07-.009a194 194 0 0 0-18.013-1.261zm17.189 30.577c-42.894 4.866-84.598 22.263-110.07 36.715h33.592c26.635-8.365 74.01-13.757 76.479-13.757 30.39 0 50.813 5.111 50.813 5.111-2.692-2.546-21.791-19.725-50.813-28.069zm190.95 34.075c10.04 24.642 14.207 51.333 11.236 78.86-6.595 61.147-46.963 113.21-104.73 145.01 4.277.292 8.604.45 12.974.45 20.734 0 40.504-3.37 58.55-9.456 42.698-76.575 60.735-144.97 21.97-214.87zm-69.426 84.016c-11.341 52.683-62.686 92.841-118.77 104.27 11.128 8.943 23.905 16.515 37.937 22.371 35.967-27.68 77.478-86.024 80.831-126.64zm-129.39 42.68c-8.7 8.227-16.395 18.018-22.204 29.661 6.117-9.492 14.749-17.892 25.449-24.558 3.014-1.877 6.167-3.563 9.415-5.103zm-32.635 65.972c.968 9.803 24.999 68.257 88.255 84.683 24.408-5.982 47.351-14.725 68.286-25.797-61.811-1.923-117.24-24.207-156.54-58.886z" style="mix-blend-mode:normal"></path><path fill="#07539d" d="M6.35 604.84 0 619.162s3.193 1.717 4.233 2.135c3.925 1.574 7.988 2.595 12.171 3.193 11.077 1.584 26.437 1.18 33.311-9.332 1.973-3.016 2.302-6.1 2.937-9.525h.265c.568 6.959 6.165 13.335 12.171 16.338 10.812 5.407 27.611 4.645 36.468-4.212 6.916-6.916 7.189-16.491 7.189-25.62V565.68H89.43v22.49c0 4.352.407 8.932-.388 13.229-1.034 5.596-6.122 9.468-11.784 7.284-4.73-1.824-5.556-7.083-5.556-11.518v-31.485H51.858l.265 35.19h-.265c-1.448-9.66-14.174-12.032-21.96-13.599-2.637-.53-5.99-.811-8.19-2.484-2.363-1.796-.746-4.19 1.576-4.959 3.703-1.227 7.946-.613 11.642.307 3.218.8 6.105 2.371 9.26 3.273l5.821-14.288c-11.344-4.723-24.366-7.018-36.248-2.533-9.54 3.6-15.817 13.975-11.58 23.965 3.357 7.917 12.753 9.979 20.312 11.586 3.017.642 7.5.897 9.73 3.28 3.252 3.478-3.59 4.71-5.761 4.713-7.366.012-13.531-2.22-20.108-5.292m479.42-10.848h-12.435c-.765 4.058-1.668 8.1-2.36 12.171-.254 1.494-.3 4.067-1.427 5.181-1.593 1.575-4.965 1.765-7.061 2.038-8.792 1.142-18.086-3.54-19.005-13.04-.683-7.055 2.42-14.704 7.893-19.191 7.94-6.511 22.825-7.223 29.562 1.545l9.689-7.764c-.762-1.668-5.122-5.24-6.972-6.257-6.647-3.652-14.526-4.452-21.96-3.742-6.26.598-12.546 2.735-17.727 6.312-13.587 9.381-20.554 33.21-7.385 45.986 8.564 8.307 22.336 9.292 33.314 6.167 3.298-.939 8.522-2.546 10.699-5.377 1.29-1.678 1.328-5.053 1.737-7.095 1.125-5.627 2.002-11.38 3.44-16.933m-373.86-28.31v58.208h19.578v-14.288c8.933 0 18.427.418 26.194-4.786 11.298-7.571 11.688-25.888.794-33.981-6.908-5.132-15.091-5.154-23.283-5.154h-23.283m55.033 0v58.208h48.419v-14.817h-29.104V601.4h24.606v-14.288h-24.606v-6.615h28.046V565.68h-47.36m50.006 0v58.208h19.579l.272-14.655h5.224l9.78 14.655 20.406-.317-11.523-17.7c2.935-1.521 5.452-3.65 7.4-6.324 3.66-5.229 4.404-12.726 2.562-18.785-5.464-17.978-27.503-15.081-42.058-15.081h-11.642m72.231 0-11.377 58.208h42.598l2.117-10.848h-29.104l9.525-47.36zm32.544 58.208h56.228l7.698-12.435H412.7l2.691 12.435h13.494l-14.31-58.201h-13.385l-32.63 50.793h-.264l.793-3.175h-31.75l2.382-13.494 27.308-.063 2.06-10.52h-26.988l2.382-12.7h30.692l2.116-10.849h-43.989zm175.15-58.208-5.397 27.781c-1.174 6.044-2.36 11.925-.647 17.992 5.041 17.85 33.143 16.724 43.869 5.556 5.689-5.923 7.607-13.909 9.165-21.696 1.968-9.835 3.415-19.924 5.927-29.633h-13.232l-5.87 28.84c-.867 4.334-1.657 8.926-4.102 12.7-4.52 6.98-18.603 9.826-22.243.265-1.967-5.167.47-12.707 2.32-21.96l3.969-19.844H496.88m48.419 58.208c14.745-.77 44.996 0 44.996 0l2.1-10.583H560.91l2.381-13.494h19.844l7.213-.272.877-2.903 1.435-7.408h-26.987l2.381-12.7h30.692l2.117-10.848H556.8l-11.499 58.208m-139.7-44.98 4.763 22.49h-18.521zm-274.11 15.347v-13.494c3.658 0 8.925-.959 12.17 1.057 3.952 2.454 4 9.364-.265 11.543-3.385 1.73-8.207.893-11.905.893m105.04 0v-13.494c3.778 0 9.715-.554 12.434 1.115 4.083 2.507 3.686 9.457-.528 11.585-3.317 1.675-8.29.794-11.906.794z" style="mix-blend-mode:normal" data-source="https://football-logos.cc"></path><path fill="#00519c" d="M117 256.21c-7.33 0-13.276 6.092-13.276 13.613v59.841c0 7.455 5.828 13.505 13.074 13.613h60.598c7.33 0 13.289-6.092 13.289-13.613l.028-59.841c0-7.52-5.946-13.613-13.276-13.613zm51.225 6.777 5.318.167c3.986 0 7.228 3.277 7.228 7.329l-.021 54.673-24.966-25.45 11.889-12.08c2.422-3.034 3.965-7.59 3.965-12.685 0-4.702-1.314-8.949-3.413-11.955zm31.066.094v73.082h29.23q6.37-.002 11.118-1.724c3.166-1.147 5.796-2.731 7.882-4.747q3.134-3.028 4.646-7.051c1.008-2.676 1.516-5.547 1.516-8.612q-.002-6.158-2.819-10.961-2.82-4.8-6.579-7.413a36 36 0 0 0 1.724-1.88q.99-1.146 1.88-2.714a19 19 0 0 0 1.512-3.497c.417-1.289.63-2.661.63-4.124q-.001-4.281-1.464-7.986c-.976-2.471-2.47-4.63-4.49-6.475-2.02-1.842-4.542-3.288-7.569-4.33q-4.542-1.57-10.596-1.568h-14.736zm120.36 0v73.082h14.106v-73.082zm-60.936.002h-.265v73.079h13.835V309.02h7.716l19.079 27.142h16.219l-19.733-28.081q4.383-1.15 7.673-3.396 3.29-2.242 5.48-5.22a20.7 20.7 0 0 0 3.236-6.574 26.4 26.4 0 0 0 1.046-7.365q-.002-4.905-1.62-9.029c-1.617-4.124-2.696-5.115-4.854-7.1q-3.237-2.975-8.09-4.643-4.855-1.671-11.223-1.67h-.382zm-138.04.04h6.7c6.082 0 11.003 5.286 11.003 11.507a11.4 11.4 0 0 1-3.17 7.924l-17.094 17.338 16.028 16.327c2.06 2.137 3.304 4.935 3.304 7.993 0 6.676-5.932 12.09-13.275 12.09l-3.295.042c-3.993 0-7.22-3.291-7.22-7.33l-.026-.583V273.17l.025-2.978c.163-3.91 3.131-7.07 7.02-7.07zm23.514 0h7.242c6.082 0 11.003 5.286 11.003 11.507a11.4 11.4 0 0 1-3.155 7.924l-16.778 17.16 34.836 35.529c-1.113.691-2.5 1.008-3.886 1.008l-29.884-.007s3.455-7.476 3.455-12.097c0-5.63-1.884-10.673-4.831-14.002l-10.217-10.422 10.419-10.77c3.117-2.93 5.175-8.112 5.175-14.01 0-4.67-1.29-8.812-3.378-11.818zm68.665 12.487h12.633c2.367 0 4.316.292 5.866.862.984.376 1.807.865 2.447 1.477 1.66 1.595 2.495 3.5 2.495 5.72q0 3.015-1.039 4.991-1.04 1.976-2.081 3.013h-20.32zm59.428.002h15.034c.869 0 1.689.056 2.47.153 2.468.372 4.484 1.255 6.037 2.652q3.17 2.861 3.17 7.02 0 2.08-.675 4.055a9.3 9.3 0 0 1-2.13 3.483q-1.459 1.506-3.743 2.443-2.289.934-5.511.935h-14.652zm-59.428 28.708h16.39c3.677 0 6.405.956 8.18 2.857 1.669 1.873 2.51 4.087 2.51 6.645q0 3.951-2.86 6.756-2.861 2.809-9.408 2.808h-14.812z" style="mix-blend-mode:normal" data-source="https://football-logos.cc"></path><!-- source: https://football-logos.cc --></svg>