<svg xmlns="http://www.w3.org/2000/svg" class="logo-desktop" viewBox="0 0 114.58 139.6"><!-- Source: https://football-logos.cc --><path fill="#fff" d="M111.94 1.91s11.36 108.74-54.65 135.66C-8.73 110.65 2.63 1.91 2.63 1.91z" data-source="https://football-logos.cc"></path><path fill="#1d1d1b" d="M56.57 139.31C6.08 118.51.06 52.36 0 20.1 0 8.95.75 1.76.75 1.71L.94.02h111V1.9.02h1.7l.18 1.69s.76 7.25.76 18.39c-.07 32.25-6.09 98.39-56.57 119.21l-.72.29-.71-.29ZM3.77 20.1c-.07 31.85 6.43 95.83 53.51 115.43 47.08-19.6 53.58-83.58 53.51-115.42 0-7.81-.37-13.61-.58-16.31H4.36c-.21 2.7-.59 8.5-.59 16.31Z"></path><path fill="#e42313" d="M22.73 14.12h11.68l-3.22 15.13H19.52zM35.84 14.12h11.68L44.3 29.25H32.63zM48.96 14.12h46.98l-3.21 15.13H45.74z"></path><path fill="#fff" d="M25.1 16.46h5.98l-.33 1.7h-3.64l-.45 1.96h3.51l-.34 1.69h-3.46l-.75 3.6h-2.41zM44.16 18.62c-.76-.44-1.47-.54-2.23-.54-2.39 0-3.36 1.69-3.36 3.38 0 1.59 1.01 2.33 2.45 2.33.86 0 1.64-.18 2.27-.5l-.26 1.92c-.57.19-1.57.34-2.38.34-2.88 0-4.54-1.7-4.54-4.16 0-2.97 2.09-5.08 5.45-5.08 1.71 0 2.68.3 3.16.47l-.56 1.83ZM54.56 16.46h3l1.46 8.95h-2.41l-.24-1.91H52.9l-1.07 1.91h-2.58zm1.2 1.85h-.03l-1.89 3.5h2.3zM64.95 24.47l-.02-.03v.03c-.49.77-1.35 1.09-2.24 1.09-1.44 0-2.23-.64-2.23-1.93 0-1.64 1.64-2.45 3.68-2.45.46 0 .92.04 1.24.06.03-.09.03-.18.03-.27 0-.47-.47-.86-1.23-.86-.84 0-1.4.13-2.17.53l.23-1.68c.68-.23 1.41-.39 2.45-.39 1.59 0 2.89.63 2.89 2.27 0 1.05-.59 2.55-.84 4.56h-1.88l.1-.93Zm-1.53-.45c.99 0 1.57-.68 1.74-1.57-.19-.04-.47-.04-.61-.04-1.1-.04-1.91.36-1.91.95 0 .3.29.66.78.66M72.14 18.73l-.25 1.37h.02c.37-.78 1.12-1.52 2.06-1.52.31 0 .67.04.97.16l-.53 2.04c-.3-.23-.63-.28-1.06-.28-.97 0-1.55.85-1.72 1.83l-.65 3.08h-2.31l1.04-4.93c.12-.58.22-1.14.28-1.74h2.14ZM79.49 24.47l-.02-.03v.03c-.48.77-1.35 1.09-2.24 1.09-1.44 0-2.23-.64-2.23-1.93 0-1.64 1.64-2.45 3.67-2.45.46 0 .92.04 1.24.06.03-.09.03-.18.03-.27 0-.47-.47-.86-1.23-.86-.84 0-1.4.13-2.17.53l.23-1.68c.68-.23 1.41-.39 2.45-.39 1.59 0 2.89.63 2.89 2.27 0 1.05-.59 2.55-.85 4.56h-1.88l.1-.93Zm-1.53-.45c.99 0 1.58-.68 1.74-1.57-.19-.04-.47-.04-.62-.04-1.1-.04-1.91.36-1.91.95 0 .3.3.66.78.66M90.55 23.66a17 17 0 0 0-.28 1.74h-2.14l.18-1.09h-.03c-.67.74-1.36 1.24-2.57 1.24-1.35 0-2.08-1-2.08-2.3 0-.45.04-.7.18-1.41l.61-3.11h2.38l-.64 3.13c-.06.33-.15.66-.15 1.01 0 .39.25.79.89.76.98 0 1.55-.84 1.72-1.83l.65-3.07h2.3l-1.04 4.93Z" data-source="https://football-logos.cc"></path><path fill="#e42313" d="M33.92 94.33h5.91l6.65-6.66 1.58 1.64-5.01 5.01h3.55s3.52.33 1.71 3.97c0 0-.35-1.71-2.05-1.71H42.5v4.05c0 1.7 1.71 2.05 1.71 2.05-3.64 1.81-3.98-1.71-3.98-1.71v-3.84L37 100.36c-1.2 1.21-.24 2.65-.24 2.65-3.85-1.29-1.6-4.02-1.6-4.02l2.41-2.41h-3.3c-1.7 0-2.04 1.71-2.04 1.71-1.82-3.64 1.7-3.97 1.7-3.97M81.31 94.3h-5.9l-6.66-6.65-1.57 1.64 5.01 5.01h-3.55s-3.52.33-1.7 3.98c0 0 .34-1.71 2.04-1.71h3.76v4.04c0 1.71-1.7 2.04-1.7 2.04 3.63 1.81 3.97-1.7 3.97-1.7v-3.83l3.23 3.22c1.2 1.21.24 2.65.24 2.65 3.85-1.28 1.61-4.01 1.61-4.01l-2.42-2.41h3.29c1.7 0 2.04 1.71 2.04 1.71 1.82-3.65-1.71-3.98-1.71-3.98M47.15 38.76s1.38 2.71 5.44 1.2c0 0-4.44 3.34-5.89.96 0 0-.72-1.23.45-2.17"></path><path fill="#1d1d1b" d="M53.16 54.44c.61 3.84-1.31 4.94-3.14 5.35-1.22.28-7.24.06-4.51-6.8 0 0 2.03-5.07.62-8.62-1.07-2.71-.69-4.42-.85-5.24-.12-.63-.37-2.87-4.81-2.75 0 0-11.43-.2-13.23-1.02 0 0-1.02-.23-.36.93 0 0 2.91 4.21 9.29 4.04.56 0 .56.49.15.87 0 0-1.06 1.14-4.12.77 0 0-4.04-.14-10.64-2.94 0 0-.79-.45-.78.67 0 0-.04 3.53 4.46 5.23 0 0 4.4 1.99 9.97 1.04.62-.11 1.08.58.37 1.19 0 0-2.28 1.87-6.12 1.71 0 0-4.13.33-9.19-2.25 0 0-1.02-.43-.73 1.22 0 0 .82 5.41 7.92 5.76 0 0 4.32.29 7.44-1.53.25-.15.87.06.39.75 0 0-2.48 3.18-7.19 3.82 0 0-4.1.47-8.36-.9 0 0-1.12-.19-1 1.16 0 0 .56 3.81 5.89 4.74 0 0 4.67.75 10.49-2.99.34-.22.68.27.4.79 0 0-1.55 3.82-7.16 5.41 0 0-3.95 1.21-9.79.18 0 0-1.12.16-.72 1.12 0 0 1.44 3.52 6.48 4.24 0 0 6.3.86 11.64-3.73.48-.41 1.83-.04.92 1.25 0 0-3.44 5.52-13.57 7.74 0 0-1.6.26-2.66.41 0 0-.64.09-.49.9 0 0 2.08 4.62 9.61 2.54-.06.01 4.96-1.35 10.29-6.17.64-.57 1.41.21 1.24.9 0 0-.29 4.56-10.66 9.43 0 0-2.95 1.36-6.48 1.71 0 0-1.04.29-.53 1.15 0 0 4.11 4.65 13.28.48 0 0 6.87-3.38 10.16-9.05.52-.9 3.89-1.14 4.48.64 0 0 .92 4.13-4.06 6.13 0 0-3.22 1.26-2.22 3.51 0 0 1.2 3.29 1.78 3.93.42.47 1.6 1.24 3.02-.04s1.37-1.64 2.17-2.03 1.78.06 1.81 1.32c0 0-1.09 6.49-6.76 10.54 0 0 1.09 1.56.55 3.31 0 0-1.9 4.62 2.27 11.08 0 0-1.48-7.17 2.56-13.98 0 0 1.39-2.86 2.04-3.04 0 0 1.05-.37 1.23.88 0 0 .42 3.79-3.45 10.98 0 0 2.57.06 3.05 3.05.24 1.52.24 6.42 2.41 8.28 2.32-1.99 2.04-5.38 2.27-8.28.22-2.9 2.93-3.05 2.93-3.05-3.86-7.19-3.32-10.86-3.32-10.86.19-1.4 1.23-1.01 1.23-1.01.65.19 2.04 3.04 2.04 3.04 4.04 6.81 2.56 13.98 2.56 13.98 4.17-6.47 2.25-11.08 2.25-11.08-.53-1.76.56-3.31.56-3.31-5.68-4.05-6.76-10.54-6.76-10.54.03-1.25 1.01-1.71 1.81-1.32s.75.76 2.17 2.03 2.58.51 3.01.04c.59-.64 1.79-3.93 1.79-3.93 1-2.26-2.23-3.51-2.23-3.51-4.98-2-4.06-6.13-4.06-6.13.6-1.78 2.7-1.73 3.23-.82 3.29 5.66 10.16 9.04 10.16 9.04 9.17 4.17 13.27-.47 13.27-.47.51-.86-.52-1.15-.52-1.15-3.53-.35-6.48-1.72-6.48-1.72-10.37-4.87-10.66-9.43-10.66-9.43-.17-.69.6-1.47 1.24-.89 5.34 4.82 10.36 6.18 10.31 6.16 7.52 2.08 9.6-2.54 9.6-2.54.15-.82-.49-.9-.49-.9-1.07-.16-2.66-.41-2.66-.41-10.13-2.22-13.57-7.74-13.57-7.74-.9-1.29.44-1.66.92-1.25 5.34 4.58 11.63 3.73 11.63 3.73 5.05-.72 6.48-4.24 6.48-4.24.4-.96-.72-1.11-.72-1.11-5.83 1.04-9.78-.18-9.78-.18-5.61-1.59-7.16-5.41-7.16-5.41-.28-.53.06-1.01.4-.8 5.83 3.74 10.5 2.99 10.5 2.99 5.33-.93 5.89-4.74 5.89-4.74.11-1.36-1-1.16-1-1.16-4.26 1.37-8.36.89-8.36.89-4.72-.64-7.2-3.82-7.2-3.82-.47-.68.14-.89.4-.75 3.12 1.82 7.44 1.53 7.44 1.53 7.09-.34 7.92-5.75 7.92-5.75.29-1.65-.73-1.22-.73-1.22-5.05 2.58-9.18 2.25-9.18 2.25-3.84.16-6.12-1.71-6.12-1.71-.71-.61-.26-1.29.36-1.19 5.57.95 9.97-1.04 9.97-1.04 4.51-1.69 4.47-5.22 4.47-5.22 0-1.12-.79-.66-.79-.66-6.59 2.79-10.64 2.93-10.64 2.93-3.06.38-4.12-.76-4.12-.76-.41-.38-.41-.88.16-.87 6.37.17 9.28-4.04 9.28-4.04.66-1.16-.37-.94-.37-.94-1.8.82-13.23 1.03-13.23 1.03-3.78-.1-4.55 1.7-4.81 2.75-.45 1.78.22.88-.84 5.25-1.16 4.75.62 8.62.62 8.62 3.34 7.25-2.03 7.33-3.62 7.13-4.43-.53-3.66-5.6-3.66-5.6.39-1.92 2.68-2.54 2.68-2.54-.28-.15-.88-.09-1.76-.97-1.61-1.61.13-3.43.13-3.43.54-.68 2.25-1.41 2.25-1.41-2.21-.48-2.22-1.82-1.57-2.79 1.79-2.67.76-3.71.48-4.61-.78-2.54 1.31-3.09 1.31-3.09-6.21-1.8-9.06-1.23-9.06-1.23s-.96 1.46-4.45.9c0 0-2.85-.14-3.41 2.86 0 0 2.79-1.6 4.46.47 0 0 1.58 2.16-1.28 3.44 0 0 1.87.17 2.48 2 0 0 .51 1.21-.04 3.15-.36 1.59-.21 1.02-.64 2.51-.17.59.06.96.45 1.15 0 0-.99 1.12-.58 3.68m7-16.57c-2.88 1.13-3.91.67-3.91.67-.47-.03-.58-.4-.58-.4-.23-.3-.33-1.52-.33-1.52.03-.21.23-.07.23-.07.78 1.11 4.18.7 4.18.7 1.02.07.41.61.41.61M45.24 132.75l4.04-6.36c1.97 1.25 4.03 2.4 6.2 3.45l-3.29 6.78a70 70 0 0 1-6.94-3.87Zm-10.73-8.36 5.17-5.48c1.72 1.62 3.52 3.15 5.43 4.59l-4.54 6.02a73 73 0 0 1-6.06-5.12Zm-8.99-10.11 6.02-4.53a74 74 0 0 0 4.57 5.52l-5.56 5.09a81 81 0 0 1-5.03-6.08m-7.26-11.32 6.61-3.62c1.16 2.12 2.4 4.2 3.72 6.2l-6.29 4.13a93 93 0 0 1-4.03-6.72Zm-5.7-12.09 6.99-2.81c.91 2.26 1.89 4.48 2.94 6.67L15.7 98c-1.13-2.34-2.17-4.72-3.14-7.12ZM8.21 78.32l7.23-2.13c.7 2.34 1.45 4.67 2.26 6.98l-7.1 2.52c-.87-2.44-1.66-4.9-2.39-7.36ZM4.98 65.5l7.37-1.56c.51 2.39 1.07 4.79 1.68 7.18l-7.29 1.89C6.09 70.5 5.51 68 4.98 65.5M2.7 52.52l7.46-1.06c.34 2.41.73 4.85 1.18 7.31l-7.42 1.34c-.47-2.55-.87-5.08-1.23-7.58ZM1.24 39.45l7.51-.62c.2 2.4.44 4.87.74 7.38L2 47.09c-.3-2.6-.56-5.15-.76-7.63ZM.49 26.34l7.53-.24c.07 2.37.19 4.85.35 7.42l-7.53.46c-.16-2.66-.28-5.21-.35-7.65Zm-.12-7.95c0-1.84.02-3.57.05-5.18s7.54.16 7.54.16c-.03 1.56-.05 3.24-.05 5.03v2.4l-7.53.07c-.01-.84-.01-1.66-.01-2.47ZM.59 7.74C.81 2.9 1.1.06 1.1 0s7.49.76 7.49.76c0 .01-.27 2.64-.47 7.31zM59.12 129.84c2.16-1.05 4.22-2.2 6.2-3.45l4.04 6.36a70 70 0 0 1-6.94 3.87l-3.29-6.78Zm10.36-6.34c1.91-1.44 3.71-2.97 5.43-4.59s5.17 5.49 5.17 5.49c-1.91 1.8-3.93 3.51-6.06 5.12l-4.54-6.01Zm9.01-8.23a74 74 0 0 0 4.57-5.52l6.02 4.53c-1.57 2.1-3.25 4.13-5.03 6.08zm7.52-9.73c1.32-2.01 2.55-4.08 3.72-6.2l6.61 3.62a93 93 0 0 1-4.03 6.72zm6.1-10.82c1.05-2.18 2.03-4.41 2.94-6.68l6.99 2.82a113 113 0 0 1-3.14 7.12l-6.78-3.27Zm4.78-11.56c.82-2.3 1.57-4.63 2.27-6.98l7.23 2.13c-.73 2.47-1.52 4.92-2.38 7.36l-7.11-2.52Zm3.67-12.04c.61-2.4 1.17-4.79 1.68-7.18s7.38 1.55 7.38 1.55c-.53 2.49-1.11 5-1.76 7.51l-7.29-1.88Zm2.69-12.36c.44-2.46.83-4.9 1.18-7.31l7.46 1.06c-.36 2.5-.76 5.03-1.22 7.59zm1.86-12.56c.29-2.51.54-4.98.74-7.38l7.51.62c-.21 2.48-.46 5.03-.76 7.63l-7.49-.88Zm1.12-12.67c.16-2.57.27-5.05.34-7.42l7.53.24c-.07 2.43-.19 4.99-.35 7.64zm.45-12.74c.01-.82.01-1.62.01-2.4 0-1.79-.02-3.47-.05-5.03l7.54-.15c.03 1.61.05 3.34.05 5.18v2.47l-7.54-.07ZM106 .76l7.5-.76c0 .06.29 2.9.5 7.74l-7.53.33c-.21-4.67-.47-7.3-.47-7.31"></path><path fill="#1d1d1b" d="M104.95 8.72V1.19h7.54v7.54h-7.54Zm-12.92 0V1.19h7.54v7.54h-7.54Zm-12.92 0V1.19h7.54v7.54h-7.54Zm-12.92 0V1.19h7.54v7.54h-7.54Zm-12.92 0V1.19h7.54v7.54h-7.54Zm-12.92 0V1.19h7.54v7.54h-7.54Zm-12.92 0V1.19h7.54v7.54h-7.54Zm-12.93 0V1.19h7.54v7.54H14.5Zm-12.92 0V1.19h7.54v7.54H1.58Z" data-source="https://football-logos.cc"></path><!-- source: https://football-logos.cc --></svg>