<svg xmlns="http://www.w3.org/2000/svg" xml:space="preserve" viewBox="39.5 4.68 178.7 249.45"><!-- Source: https://football-logos.cc --><path d="M296.254 969.449 966.375 34.016 1636.5 969.449 966.375 1904.88z" style="fill:#cc8717;fill-opacity:1;fill-rule:evenodd;stroke:none" transform="matrix(.13333 0 0 -.13333 0 258.667)" data-source="https://football-logos.cc"></path><path d="M335.289 969.449 966.375 88.504l631.085 880.945-631.085 880.941z" style="fill:#fff;fill-opacity:1;fill-rule:evenodd;stroke:none" transform="matrix(.13333 0 0 -.13333 0 258.667)"></path><path d="m966.375 1804.29 598.055-834.841-598.055-834.836L368.32 969.449z" style="fill:#9e2420;fill-opacity:1;fill-rule:evenodd;stroke:none" transform="matrix(.13333 0 0 -.13333 0 258.667)"></path><path d="M1434.2 1084.18H498.555c-44.231-61.74-75.321-105.149-82.192-114.731 29.153-40.695 494.715-690.578 550.012-767.765 55.295 77.187 520.855 727.07 550.015 767.765-6.87 9.582-37.96 52.991-82.19 114.731" style="fill:#fff;fill-opacity:1;fill-rule:evenodd;stroke:none" transform="matrix(.13333 0 0 -.13333 0 258.667)"></path><path d="M1005.43 952.363c0 21.567-17.485 39.055-39.055 39.055-21.566 0-39.055-17.488-39.055-39.055V428.758c0-21.57 17.489-39.055 39.055-39.055 21.57 0 39.055 17.485 39.055 39.055v84.215h48.82v-84.215c0-48.539-39.34-87.875-87.875-87.875-48.531 0-87.875 39.336-87.875 87.875v523.605c0 48.537 39.344 87.877 87.875 87.877 48.535 0 87.875-39.34 87.875-87.877V923.07h-48.82zM607.543 830.309c0 129.671 84.895 209.931 163.551 209.931h48.82V481.582c-15.762 22.012-32.148 44.879-48.82 68.156v231.754H656.363v-71.601c-16.793 23.433-33.179 46.312-48.82 68.148zm163.551 0v161.109c-46.848 0-114.731-54.234-114.731-161.109zM1310.13 756.977l-197.29-275.395v558.658h57.87c48.69.15 76.45-17.29 91.17-31.94 16.41-16.351 25.46-37.933 25.48-60.784.01-21.325-6.36-40.965-18-56.621 38-15.059 55.85-42.317 55.85-74.957 0-13.422 1.22-34.579-15.08-58.961m-119.18 146.566c32.14-.133 47.6 18.586 47.58 43.941-.01 23.239-21.21 44.082-67.67 43.934h-9.2v-87.875zm78.59-119.43c6.96 10.414 6.92 18.176 6.86 28.934l-.01 2.891c0 34.894-59.8 38.746-85.51 38.785h-29.22V633.559z" style="fill:#cc8717;fill-opacity:1;fill-rule:evenodd;stroke:none" transform="matrix(.13333 0 0 -.13333 0 258.667)" data-source="https://football-logos.cc"></path><path d="M1022.52 1259.93h-28.934a63.52 63.52 0 0 0-25.703-36.61h43.657c4.71 0 8.54-3.83 8.54-8.55 0-4.71-3.83-8.54-8.54-8.54h-85.438c-19.555 0-35.399-15.84-35.399-35.4 0-19.54 15.844-35.39 35.399-35.39h36.613c10.793 0 19.527-8.74 19.527-19.53 0-5.39-2.191-10.28-5.73-13.82 2.238-.52 4.551-.82 6.949-.82 16.859 0 30.519 13.66 30.519 30.51s-13.66 30.51-30.519 30.51h-51.258a4.886 4.886 0 0 0-4.883 4.89c0 2.69 2.184 4.87 4.883 4.87h90.317c24.27 0 43.94 19.68 43.94 43.95s-19.67 43.93-43.94 43.93M938.309 1416.16c0-4.04-3.282-7.32-7.329-7.32-4.035 0-7.324 3.28-7.324 7.32s3.289 7.32 7.324 7.32h101.31c46.5 0 84.21 37.71 84.21 84.22s-37.71 84.21-84.21 84.21H843.105v-55.53h84.215v-8.54h-84.215v-16.48h185.515c6.07 0 10.99-4.92 10.99-10.98 0-6.07-4.92-10.99-10.99-10.99H919.996c-38.422 0-69.57-31.14-69.57-69.57 0-38.42 31.148-69.57 69.57-69.57h6.106c37.179 0 67.464 29.2 69.378 65.91z" style="fill:#fff;fill-opacity:1;fill-rule:evenodd;stroke:none" transform="matrix(.13333 0 0 -.13333 0 258.667)"></path><path d="M941.965 1272.14c0-4.04-3.285-7.33-7.32-7.33-4.04 0-7.325 3.29-7.325 7.33s3.285 7.32 7.325 7.32h90.315c35.06 0 63.47 28.42 63.47 63.47 0 35.06-28.41 63.46-63.47 63.46h-19.51c-4.04-23.98-18.63-44.33-38.88-56.14h47.41c6.06 0 10.98-4.91 10.98-10.98s-4.92-10.98-10.98-10.98h-87.878c-28.993 0-52.485-23.5-52.485-52.49 0-28.98 23.492-52.48 52.485-52.48h6.101c27.75 0 50.402 21.55 52.293 48.82z" style="fill:#fff;fill-opacity:1;fill-rule:evenodd;stroke:none" transform="matrix(.13333 0 0 -.13333 0 258.667)"></path><path d="M921.219 1562.62c0-6.74-5.461-12.2-12.207-12.2s-12.203 5.46-12.203 12.2 5.457 12.21 12.203 12.21 12.207-5.47 12.207-12.21" style="fill:#9e2420;fill-opacity:1;fill-rule:evenodd;stroke:none" transform="matrix(.13333 0 0 -.13333 0 258.667)" data-source="https://football-logos.cc"></path><!-- source: https://football-logos.cc --></svg>