<svg xmlns="http://www.w3.org/2000/svg" viewBox="0 -0.01 283.71 242.61"><!-- Source: https://football-logos.cc --><defs data-source="https://football-logos.cc"><style>.cls-1{fill:#506271}.cls-2{fill:#fff}</style></defs><g id="Ebene_2" data-name="Ebene 2" data-source="https://football-logos.cc"><g id="SFL"><path d="M4.76 198.93A14.5 14.5 0 0 1 0 196.69L2.1 192a14.3 14.3 0 0 0 4.09 2 15.4 15.4 0 0 0 4.74.77 7.6 7.6 0 0 0 3.9-.78 2.38 2.38 0 0 0 1.26-1.99 2 2 0 0 0-.74-1.58 5.8 5.8 0 0 0-1.92-1q-1.15-.37-3.15-.84a44 44 0 0 1-5-1.45 8.1 8.1 0 0 1-3.34-2.33 6.3 6.3 0 0 1-1.4-4.28 7.47 7.47 0 0 1 1.27-4.23 8.46 8.46 0 0 1 3.8-3 15.65 15.65 0 0 1 6.21-1.1 20.5 20.5 0 0 1 5 .61 14.8 14.8 0 0 1 4.28 1.75l-1.91 4.71a15 15 0 0 0-7.42-2.11 6.87 6.87 0 0 0-3.84.85 2.55 2.55 0 0 0-1.24 2.21 2.18 2.18 0 0 0 1.43 2.05 23.6 23.6 0 0 0 4.38 1.32 41 41 0 0 1 5 1.45 8.3 8.3 0 0 1 3.35 2.29 6.16 6.16 0 0 1 1.39 4.24 7.27 7.27 0 0 1-1.24 4.12 8.6 8.6 0 0 1-3.84 3 15.6 15.6 0 0 1-6.23 1.11 22 22 0 0 1-6.17-.86M58.71 178.77l-7.46 20.56h-5.73l-4.62-12.77-4.78 12.77h-5.74L23 178.77h5.62l4.85 13.91 5.05-13.91h5l4.9 13.91 5-13.91ZM61.8 174.94a3.24 3.24 0 0 1 0-4.74 4.29 4.29 0 0 1 5.35 0 2.93 2.93 0 0 1 1 2.29 3.24 3.24 0 0 1-1 2.46 3.72 3.72 0 0 1-2.67 1 3.78 3.78 0 0 1-2.68-1.01m-.3 3.83h6v20.56h-6ZM74.91 199a13.3 13.3 0 0 1-3.9-1.58l2-4.28a12.8 12.8 0 0 0 3.33 1.43 13.9 13.9 0 0 0 3.82.55c2.52 0 3.78-.62 3.78-1.87a1.32 1.32 0 0 0-1-1.26 16 16 0 0 0-3.17-.65 30 30 0 0 1-4.17-.88 6.55 6.55 0 0 1-2.85-1.76 5 5 0 0 1-1.2-3.59 5.65 5.65 0 0 1 1.13-3.46 7.24 7.24 0 0 1 3.29-2.35 14 14 0 0 1 5.1-.84 19.8 19.8 0 0 1 4.33.48 12.2 12.2 0 0 1 3.58 1.32l-2 4.24A11.85 11.85 0 0 0 81 183a6 6 0 0 0-2.87.54 1.56 1.56 0 0 0-1 1.37 1.38 1.38 0 0 0 1 1.34 18 18 0 0 0 3.28.72 37 37 0 0 1 4.13.9 6.2 6.2 0 0 1 2.79 1.74 4.93 4.93 0 0 1 1.19 3.52 5.46 5.46 0 0 1-1.15 3.4 7.3 7.3 0 0 1-3.34 2.31 14.9 14.9 0 0 1-5.22.82 20 20 0 0 1-4.9-.66M95.21 199a13.3 13.3 0 0 1-3.9-1.58l2-4.28a12.6 12.6 0 0 0 3.32 1.43 13.9 13.9 0 0 0 3.82.55c2.53 0 3.79-.62 3.79-1.87a1.33 1.33 0 0 0-1-1.26 15.5 15.5 0 0 0-3.17-.65 30 30 0 0 1-4.16-.88A6.43 6.43 0 0 1 93 188.7a5 5 0 0 1-1.21-3.59 5.65 5.65 0 0 1 1.13-3.46 7.3 7.3 0 0 1 3.29-2.35 14 14 0 0 1 5.1-.84 20 20 0 0 1 4.34.48 12.1 12.1 0 0 1 3.57 1.32l-2 4.24a11.9 11.9 0 0 0-5.93-1.53 5.94 5.94 0 0 0-2.86.54 1.56 1.56 0 0 0-1 1.37 1.37 1.37 0 0 0 1 1.34 18 18 0 0 0 3.29.72 37 37 0 0 1 4.13.9 6.2 6.2 0 0 1 2.79 1.74 4.93 4.93 0 0 1 1.18 3.52 5.4 5.4 0 0 1-1.15 3.4 7.2 7.2 0 0 1-3.34 2.31 14.8 14.8 0 0 1-5.22.82 20 20 0 0 1-4.9-.63M129.49 177.54v7.07h12.38v5h-12.38v9.75h-6.19v-26.79h20.22v5ZM150.72 198.28a10.1 10.1 0 0 1-4-3.77 11 11 0 0 1 0-10.93 10.1 10.1 0 0 1 4-3.76 13.13 13.13 0 0 1 11.64 0 10.1 10.1 0 0 1 4 3.76 11 11 0 0 1 0 10.93 10.1 10.1 0 0 1-4 3.77 13.22 13.22 0 0 1-11.64 0m9.6-5.09a6.58 6.58 0 0 0 0-8.29 5.37 5.37 0 0 0-7.55 0 6.51 6.51 0 0 0 0 8.29 5.37 5.37 0 0 0 7.55 0M175.76 198.28a10.14 10.14 0 0 1-4-3.77 11 11 0 0 1 0-10.93 10.1 10.1 0 0 1 4-3.76 12.26 12.26 0 0 1 5.83-1.36 12.1 12.1 0 0 1 5.8 1.36 10.1 10.1 0 0 1 4 3.76 11 11 0 0 1 0 10.93 10.15 10.15 0 0 1-4 3.77 12.2 12.2 0 0 1-5.8 1.35 12.4 12.4 0 0 1-5.83-1.35m9.59-5.09a6.58 6.58 0 0 0 0-8.29 5 5 0 0 0-3.76-1.55 5 5 0 0 0-3.79 1.55 6.51 6.51 0 0 0 0 8.29 5 5 0 0 0 3.79 1.55 4.94 4.94 0 0 0 3.76-1.55M210.1 198.33a6.1 6.1 0 0 1-2.16 1 10.8 10.8 0 0 1-2.7.32 8 8 0 0 1-5.67-1.87 7.15 7.15 0 0 1-2-5.5v-8.45h-3.17v-4.59h3.17v-5h6v5h5.12v4.59h-5.12v8.37a2.8 2.8 0 0 0 .67 2 2.5 2.5 0 0 0 1.89.71 3.82 3.82 0 0 0 2.41-.77ZM230.83 179.78a9.4 9.4 0 0 1 3.69 3.71 12.2 12.2 0 0 1 0 11.12 9.47 9.47 0 0 1-3.69 3.71 10.56 10.56 0 0 1-5.22 1.31 7.93 7.93 0 0 1-6.46-2.67v2.37h-5.69V171h6v10a8 8 0 0 1 6.19-2.48 10.47 10.47 0 0 1 5.18 1.26m-2.48 13.41a6.58 6.58 0 0 0 0-8.29 5.35 5.35 0 0 0-7.53 0 6.58 6.58 0 0 0 0 8.29 5.35 5.35 0 0 0 7.53 0M260.7 178.76v20.57H255V197a7.89 7.89 0 0 1-6.42 2.67c-5.82 0-10.29-4.12-10.29-10.58s4.47-10.59 10.29-10.59a7.9 7.9 0 0 1 6.15 2.48v-2.18Zm-5.85 10.29c0-3.56-2.29-5.7-5.23-5.7s-5.28 2.14-5.28 5.7 2.3 5.69 5.28 5.69 5.23-2.14 5.23-5.69M266.2 171h6v28.36h-6ZM277.71 171h6v28.36h-6ZM70.6 208.12h6.19v21.71H90.2v5H70.6ZM109 228.41l3.17 3.44c-1.91 2.18-4.78 3.33-8.48 3.33-7.11 0-11.74-4.47-11.74-10.59s4.67-10.59 11-10.59c5.81 0 10.59 3.83 10.63 10.4l-15.22 2.94c.88 2 2.79 3.06 5.47 3.06a7 7 0 0 0 5.17-1.99M97.77 224l10-1.95a4.77 4.77 0 0 0-4.85-3.52c-2.92-.02-5.03 1.97-5.15 5.47M138.44 214.31v20.56h-5.7v-2.37a7.9 7.9 0 0 1-6.42 2.68c-5.81 0-10.28-4.13-10.28-10.59S120.51 214 126.32 214a7.94 7.94 0 0 1 6.16 2.49v-2.18Zm-5.85 10.28c0-3.55-2.29-5.69-5.24-5.69s-5.27 2.14-5.27 5.69 2.29 5.7 5.27 5.7 5.24-2.14 5.24-5.7M165.15 214.31v17.12c0 7.65-4.12 11.17-11.54 11.17-3.9 0-7.68-1-10.09-2.83l2.37-4.29a12.25 12.25 0 0 0 7.26 2.34c4.21 0 6-1.91 6-5.62v-.88a8.47 8.47 0 0 1-6.5 2.56c-5.69 0-10.28-3.94-10.28-9.94S147 214 152.69 214a8.26 8.26 0 0 1 6.81 3v-2.64Zm-5.88 9.63c0-3-2.26-5-5.39-5s-5.43 2-5.43 5 2.29 5.05 5.43 5.05 5.39-1.99 5.39-5.05M191 214.31v20.56h-5.66v-2.44a8.34 8.34 0 0 1-6.38 2.75c-5.16 0-8.79-2.91-8.79-9.25v-11.62h6v10.74c0 3.44 1.53 5 4.17 5s4.74-1.76 4.74-5.54v-10.2ZM212.09 228.41l3.17 3.44c-1.91 2.18-4.78 3.33-8.49 3.33-7.1 0-11.73-4.47-11.73-10.59s4.66-10.59 11-10.59c5.81 0 10.59 3.83 10.62 10.4l-15.21 2.94c.88 2 2.79 3.06 5.47 3.06a7 7 0 0 0 5.17-1.99m-11.2-4.41 10-1.95a4.77 4.77 0 0 0-4.85-3.52c-2.97-.02-5.04 1.97-5.15 5.47M203 16c-9-10.19-85.58-20-96-14.36S58.9 82.88 61.83 93.75s61.74 60.07 72.24 62.6 84.06-35.52 89.16-42.87S212 26.17 203 16" class="cls-1"></path><path d="M201.3 39a6.52 6.52 0 1 0 6.52 6.52A6.54 6.54 0 0 0 201.3 39M190.52 49.26c-1.2-.12-3.15.37-6.16 1.61l-1.34.56-.2.09a19.4 19.4 0 0 1-4.56 1.55c-14.56 2.31-16.62 4.35-18.28 6a5.77 5.77 0 0 1-2.81 1.72c-1.33.4-2.79.71-4.35 1a39.8 39.8 0 0 0-10.92 3.55 17 17 0 0 1-3.18 1.12c-.71.2-1.52.43-2.26.7l-1 .38c-3.81 1.43-5.54 2.08-11.2-.81a13.5 13.5 0 0 0-4-.91 12.3 12.3 0 0 1-2.17-.38s-.06 0 0-.07a6 6 0 0 1 .62-.24c.57-.19 1.22-.41 1.46-1a1.21 1.21 0 0 0-.07-1.06 5.4 5.4 0 0 1-.51-2.42 2 2 0 0 0 .94-1.06 1 1 0 0 0-.16-.82 9 9 0 0 0-.89-1 3.2 3.2 0 0 1-.71-.92.6.6 0 0 1 0-.25 1.7 1.7 0 0 0 0-.83 4.5 4.5 0 0 0-.53-1.15 4.2 4.2 0 0 1-.45-1c-.06-1.33-1.61-2.53-3.93-3.05-2.83-.62-6.77-.14-8.59 3.28-2.34 4.39 0 7.64 1.34 9.58l.15.21c1.48 2.11 1.62 3.38.47 4.37a16.6 16.6 0 0 0-4 4.82c-1.34 2.37-2.59 5.26-3.71 7.82a43.4 43.4 0 0 1-3 6.26 16.2 16.2 0 0 0-1.78 4.27c-.14.42-.27.84-.41 1.24a36 36 0 0 0-1.07 4.88c-.36 2.13-.75 4.33-1.35 5.19-.72 1-3.18 1.87-4.4 1.88a4.9 4.9 0 0 0-2.4 1.2l-.12.09c-.23.17-.48.34-.74.51a7 7 0 0 1-.8.44 5 5 0 0 0-1.18.73 1.32 1.32 0 0 0-.4.93 1 1 0 0 0 .19 1.23 1.34 1.34 0 0 0 1.2.21.9.9 0 0 0 .11.26.92.92 0 0 0 .83.46 3.9 3.9 0 0 0 1.43-.45 10.6 10.6 0 0 1 2-.72c.57-.14 1.18-.23 1.77-.32a7.93 7.93 0 0 0 4.32-1.51 10.2 10.2 0 0 0 1.92-2.73c.19-.35.37-.67.55-1 1.46-2.35 4.51-7.22 5.38-12.41.25-1.53 1.14-2.39 2.6-3.82.56-.55 1.26-1.23 2-2.06a24 24 0 0 0 1.84-2.37c.86-1.22 1.54-2.18 2.33-2.21a24 24 0 0 1 3.55.81 72 72 0 0 0 14.87 2.69 12.34 12.34 0 0 1 6.21 2.14c.68.39 1.38.8 2.18 1.19a70.6 70.6 0 0 0 13 4.07 19 19 0 0 0 3.64 0 12.8 12.8 0 0 1 2.51 0l.41.23a7 7 0 0 0 1.39.68 9 9 0 0 0 5-.18h-.1a9.3 9.3 0 0 1 3.15-.37 9.3 9.3 0 0 1 1.83.75c.48.24 1 .48 1.41.64 2.22.86 4.56.94 6 .2a2.71 2.71 0 0 0 1.43-1.8 2.29 2.29 0 0 0-.36-1.91c-1.34-1.94-5.47-2.58-6.29-2.69a19 19 0 0 1-2.5-.54 13 13 0 0 0-2.1-.45 2.45 2.45 0 0 0-1 .14 2 2 0 0 1-1.42 0 3.6 3.6 0 0 1-.84-.48 6.9 6.9 0 0 0-1.87-1 5.6 5.6 0 0 1-1.83-.89l-.27-.19a14.4 14.4 0 0 0-4.48-2h-.08a5 5 0 0 1-.74-.25c-2.95-1.58-3.93-2.72-3.93-3 0-1.6.61-2 2.4-3 2.07-1.09 4.84-3.56 7.3-5.77 2-1.76 4.21-3.75 5-4 4.49-1.2 5.28-1.86 6.58-3a24.6 24.6 0 0 1 4.61-3.04c3.79-2.09 4.13-2.1 4.46-2.12a2.6 2.6 0 0 0 .45 0 1.2 1.2 0 0 0 .57.28 2.3 2.3 0 0 0 .79 0h.3l.15.06a1.3 1.3 0 0 0 1 .14 1.7 1.7 0 0 0 .79-.59l.18-.19h.16a1.5 1.5 0 0 0 .82-.27 1.12 1.12 0 0 0 .43-.83v-.15c.34-.41 1.25-.47 2.06-.52l.16.05a1.33 1.33 0 0 0 1 .12 1.16 1.16 0 0 0 .57-.48.3.3 0 0 0 .06-.08h.14a1.6 1.6 0 0 0 .43-.07 1.15 1.15 0 0 0 .64-.74v-.1l.18-.08a1.2 1.2 0 0 0 .93-1 .7.7 0 0 1 .2-.5 1.2 1.2 0 0 0 .27-.38 3 3 0 0 0 .15-1.14v-.59a.9.9 0 0 0-.26-.67 2.46 2.46 0 0 0-1.11-.7m.76 2.74" class="cls-2"></path></g></g><!-- source: https://football-logos.cc --></svg>