<svg xmlns="http://www.w3.org/2000/svg" id="Ebene_1" data-name="Ebene 1" version="1.1" viewBox="0 0 97.66 94.87"><!-- Source: https://football-logos.cc --><defs id="defs1" data-source="https://football-logos.cc"><clipPath id="clip-path"><path id="rect1" d="M13.17 12.54h88.55v87.62H13.17z" style="fill:none"></path></clipPath><style id="style1">.cls-3{fill:#fff}</style></defs><ellipse id="path1" cx="48.83" cy="47.435" rx="48.83" ry="47.435" style="opacity:1;fill:#000;fill-opacity:1;fill-rule:evenodd;stroke:none;stroke-width:34.4127;stroke-linecap:square;stroke-linejoin:round;stroke-opacity:1" data-source="https://football-logos.cc"></ellipse><g id="Gruppe_520" data-name="Gruppe 520" transform="translate(-8.772 -9.009)" data-source="https://football-logos.cc"><g id="Gruppe_86" data-name="Gruppe 86"><g id="Gruppe_85" data-name="Gruppe 85"><g id="g1" style="clip-path:url(#clip-path)"><g id="Gruppe_7" data-name="Gruppe 7"><g id="Gruppe_1" data-name="Gruppe 1"><path id="Pfad_1" d="M33.85 27.24a40.3 40.3 0 0 0-6.41 8.4 38 38 0 0 1 3.52-4 39.77 39.77 0 0 1 62.65 47.84 39.78 39.78 0 0 0-59.76-52.24" class="cls-3" data-name="Pfad 1"></path></g><g id="Gruppe_2" data-name="Gruppe 2"><path id="Pfad_2" d="M88.06 66.14a11 11 0 0 0-1.27-4 10.4 10.4 0 0 1 .45 2.08c1 8.55-8.38 16.07-20.77 16.75-10.31.54-19.62-3.86-23-10.3 2.35 7.5 12.44 15.15 23.79 14.54 12.4-.65 21.72-10.45 20.78-19" class="cls-3" data-name="Pfad 2"></path></g><g id="Gruppe_3" data-name="Gruppe 3"><path id="Pfad_3" d="M95.52 55.66a35.6 35.6 0 0 0-3.11-9.25 37 37 0 0 1 1.27 4.78A36.77 36.77 0 0 1 24.6 74.45a36.77 36.77 0 0 0 70.92-18.79" class="cls-3" data-name="Pfad 3"></path></g><g id="Gruppe_4" data-name="Gruppe 4"><path id="Pfad_4" d="M57.19 12.54a44.7 44.7 0 0 1 11.56 1.54 48 48 0 0 0-5.87-.39 44 44 0 0 0-11.6 86.47 44 44 0 0 1 5.91-87.62" class="cls-3" data-name="Pfad 4"></path></g><g id="Gruppe_5" data-name="Gruppe 5"><path id="Pfad_5" d="M39.36 46.36v-7.29h5.31v-1h-5.31V32.3h5.82v-1h-8.64v15.06ZM59.57 34a7.18 7.18 0 0 0-5.83-3.11 7.83 7.83 0 0 0-8 7.71v.4a7.78 7.78 0 0 0 7.68 7.77 6.75 6.75 0 0 0 6.55-4l-1-.5a5.43 5.43 0 0 1-5 3.3c-3.47 0-5.2-3.3-5.2-6.69 0-4.35 1.88-7 5.54-7 2 0 3.25 1.33 4.36 2.73z" class="cls-3" data-name="Pfad 5"></path></g><g id="Gruppe_6" data-name="Gruppe 6"><path id="Pfad_6" d="M77.92 42.64v-.39c.85-.06 1.33-1.4 1.33-2.91 0-.88-.32-2.66-1.27-2.66h-.06v-.39h.15c1.45 0 2.29 1.29 2.29 2.78s-.75 3.45-2.44 3.57m0-6.34v.38c-.88.07-1.35 1.4-1.35 2.91 0 .88.31 2.67 1.26 2.67h.09v.38h-.18c-1.47 0-2.28-1.29-2.28-2.78s.74-3.45 2.46-3.57m-5.34 6.35v-.39c.87-.06 1.34-1.4 1.34-2.91 0-.88-.31-2.67-1.29-2.67v-.38h.16c1.45 0 2.28 1.28 2.28 2.78s-.74 3.45-2.44 3.57m0-6.34v.38c-.88.07-1.35 1.4-1.35 2.91 0 .88.3 2.67 1.27 2.67h.08v.38h-.23c-1.46 0-2.28-1.29-2.28-2.78s.75-3.45 2.46-3.56m-5 6.23v-1.94l.3-.7-.3.09v-.34c.7-.07 1-.93 1-1.65 0-.54-.2-1.31-.88-1.31h-.08v-.38h.21a1.68 1.68 0 0 1 1.69 1.7v.12a2.8 2.8 0 0 1-.29 1.24l-1.49 3.2zm-3.78-5.76v5.75h1v-6.23l-1.72.14v.38zm3.79-.47v.38c-.74 0-1 .9-1 1.63 0 .54.2 1.33.87 1.33h.09V40a3 3 0 0 1-.45 0 1.47 1.47 0 0 1-1.48-1.47v-.11a2.17 2.17 0 0 1 1.94-2.15m0 4.29v1.94h-.88z" class="cls-3" data-name="Pfad 6"></path></g></g></g><g id="Gruppe_8" data-name="Gruppe 8"><path id="Pfad_8" d="m80.18 74 .82-2.38H69l10.18-27.56h-5.62L62.57 74Z" class="cls-3" data-name="Pfad 8"></path></g><g id="Gruppe_9" data-name="Gruppe 9"><path id="Pfad_9" d="m60.26 74 11-29.91h-5.62L54.64 74Z" class="cls-3" data-name="Pfad 9"></path></g><g id="Gruppe_10" data-name="Gruppe 10"><path id="Pfad_10" d="M45.9 44.06H40l4.46 12.24-3 7.65L34 44.06h-5.73l11.45 30.75h.09l6-15.1 5.67 15.1h.09l12.17-30.75h-2.67l-7.6 19.76z" class="cls-3" data-name="Pfad 10"></path></g></g></g></g><!-- source: https://football-logos.cc --></svg>