<svg xmlns="http://www.w3.org/2000/svg" xml:space="preserve" viewBox="0 0 119.67 119.67"><!-- Source: https://football-logos.cc --><g data-name="Wiederholungsraster 1" data-source="https://football-logos.cc"><g data-name="Gruppe 30423"><g data-name="Gruppe 27750"><g data-name="Gruppe 27726"><path fill="#fff" fill-rule="evenodd" d="M59.834 118.214A58.38 58.38 0 0 1 1.452 59.832a58.38 58.38 0 0 1 58.382-58.38 58.38 58.38 0 0 1 58.38 58.38 58.38 58.38 0 0 1-58.38 58.382" data-name="Pfad 27721"></path></g><g data-name="Gruppe 27727"><path fill="#2b2e34" fill-rule="evenodd" d="M59.834 116.953a57.12 57.12 0 0 1-57.12-57.12 57.12 57.12 0 0 1 57.12-57.12 57.12 57.12 0 0 1 57.12 57.12 57.12 57.12 0 0 1-57.12 57.12m0-116.954A59.834 59.834 0 0 0 0 59.833a59.834 59.834 0 0 0 59.834 59.833 59.834 59.834 0 0 0 59.833-59.833A59.834 59.834 0 0 0 59.834-.001" data-name="Pfad 27722"></path></g><g data-name="Gruppe 27728"><path fill="#2b2e34" fill-rule="evenodd" d="M59.833 99.398a39.567 39.567 0 0 1-39.567-39.566 39.567 39.567 0 0 1 39.567-39.567 39.567 39.567 0 0 1 39.568 39.567 39.567 39.567 0 0 1-39.568 39.566m0-80.815a41.25 41.25 0 0 0-41.249 41.249 41.25 41.25 0 0 0 41.249 41.25 41.25 41.25 0 0 0 41.25-41.25 41.25 41.25 0 0 0-41.25-41.249" data-name="Pfad 27723"></path></g><g data-name="Gruppe 27729"><path fill="#ed2915" fill-rule="evenodd" d="M53.824 33.218a2.52 2.52 0 0 0 1.188 1.887 3.1 3.1 0 0 0 1.467.022c.671-.213 1.409-.649 2.186-.881s1.705-.615 2.479-.067c-.427.852-1.9.807-3.1.71.11.42.237.8.39 1.272.078.244.18 1.066.493 1.171.369.125.916-.37 1.271-.688a31 31 0 0 0 4.874-4.99 6.5 6.5 0 0 0 1.306-2.713 2.96 2.96 0 0 0-.728-2.488.82.82 0 0 0-1.37.334c-.1.443.3 1.026-.071 1.416-.462-.168-.355-1.04-.28-1.57-.732.221-1.367.375-2.234.624-.6.174-1.9.383-1.831 1.093a.64.64 0 0 0 .443.455c1 .253 2.19-.713 3.091-.258-.209.227-.626.244-1.019.288-.038.562-.248.82-.521.9-.7.219-.859-.432-1.346-.677-.175-.086-.373-.058-.459-.107-.22-.134-.288-.5-.5-.564-.727.3-1.427.618-2.187.878-.043.31.061.478.042.762.444.061.869-.152 1.11.116a1.78 1.78 0 0 0-.689 2.272c.685-.669 3.36-1.2 3.535.454-2.282-1.632-5.507 1.438-7.54.349" data-name="Pfad 27724"></path></g><g data-name="Gruppe 27730"><path fill="#ed2915" fill-rule="evenodd" d="M46.798 44.099c-.966-.088-2.257-.245-2.791.464s.014 1.705.326 2.13c.164.226.341.528.5.461.344-2.733 2.4-.549 3.334.2a4.54 4.54 0 0 0 2.969 1.048c4.33.056 9.676-.283 12.421 1.441-.413-2.229-3.028-2.762-4.136-4.158-.256-.319-.273-.62-.547-.714-.937-.317-2.271.2-3.187-.043-.033-.316-.172-.772.013-1.012.266-.081.354.409.6.511.3-.457 1.182-.53 1.828-.473a5 5 0 0 1-.426-2.083 6.5 6.5 0 0 0 .013-1.267c-.058-.242-.4-.507-.594-.768a34 34 0 0 1-2.773-4.18 11.6 11.6 0 0 1-.984-1.834 2.7 2.7 0 0 1-.087-1.166c.124-.962.614-2.044.7-3.124.155-1.923-.323-3.4-2.337-2.864.052.3.358.476.542.916.074.168.462 1.388-.12 1.36-.362-.011-.407-1.117-.586-1.47-.625-1.25-2.186-.915-3.181-.146a3.24 3.24 0 0 1 1.6 1.028c.217.31.618 1.032.084 1.37-.448-.608-.689-1.511-1.6-1.491-.8.025-1.14.823-1.288 1.7 1.448-.168 1.827 1.008 1.891 2.1a10 10 0 0 0-.018 1.521 7.4 7.4 0 0 0 .739 1.377c1.244 2.366 2.412 4.699 3.598 6.976a17 17 0 0 1 1.425 2.854c-2 .127-3.8.189-4.586-1.078-.335-.529-.219-1.151-.425-1.929a2.364 2.364 0 0 0-3.881-1.063c.681.263 2.341.682 1.594 1.543-.759-.4-1.519-1.37-2.616-1-.881.3-1 1.607-1.149 2.766.331-.11 1.149-.929 2.084-.881.458.024 1.444.51 1.05.979" data-name="Pfad 27725"></path></g><g data-name="Gruppe 27731"><path fill="#ed2915" fill-rule="evenodd" d="M62.068 29.286c-.013-.631-.991-.564-1.008-.113s.781.473 1.008.113" data-name="Pfad 27726"></path></g><g data-name="Gruppe 27732"><path fill="#ed2915" fill-rule="evenodd" d="M66.257 33.744a30 30 0 0 1-2.363 2.753c-1.711 1.763-3.809 3.65-4.377 5.8a3.85 3.85 0 0 0 .411 2.89c.123.2.377.621.5.512.207-3.247 2.096-5.074 3.944-7.025 1.92-2.037 5.094-5.3 3.465-9.258.207 1.885-.65 3.088-1.58 4.328" data-name="Pfad 27727"></path></g><g data-name="Gruppe 27733"><path fill="#ed2915" fill-rule="evenodd" d="M68.117 34.377a22.2 22.2 0 0 1-3.758 5c-.639.724-1.256 1.5-1.9 2.353a6.7 6.7 0 0 0-1.454 2.816 2.6 2.6 0 0 0 1.728 2.808c-.264-3.122 1.21-4.955 2.672-6.695 1.377-1.635 3.285-3.553 2.712-6.282" data-name="Pfad 27728"></path></g><g data-name="Gruppe 27734"><path fill="#ed2915" fill-rule="evenodd" d="M67.311 41.749a2.15 2.15 0 0 0 1.825-.38c.223-.153.517-.39.464-.547-1.53-.091-1.857-1.353-1.878-2.907-.614.688-1.793 3.244-.411 3.834" data-name="Pfad 27729"></path></g><g data-name="Gruppe 27735"><path fill="#ed2915" fill-rule="evenodd" d="M41.037 61.923a10 10 0 0 1 .387 1.316c.074.263.267 1.055.592 1.124.308.061.917-.473 1.221-.741a30.4 30.4 0 0 0 4.924-5.09c.909-1.277 1.98-3.689.526-5.052-.7-.654-1.419.038-1.427.686 0 .3.33.755-.014 1.061-.461-.139-.369-1.055-.28-1.566-.75.178-1.4.38-2.237.625-.618.177-1.913.349-1.882 1.036.013.265.336.478.647.515.9.1 2.187-.7 2.94-.262a2.5 2.5 0 0 1-1.065.295c.008.494-.2.827-.518.9-.806.181-.725-.4-1.3-.727-.223-.12-.468-.05-.6-.157-.212-.17-.191-.51-.348-.51-.723.331-1.48.629-2.239.923a7 7 0 0 1 .04.764c.336.011.883-.163 1.112.067-.131.292-.433.251-.614.544a2.82 2.82 0 0 0-.084 1.768c.791-.773 3.37-1.147 3.586.4-2.253-1.618-5.109 1.375-7.543.357a1.954 1.954 0 0 0 2.6 1.9c1.218-.4 2.805-1.366 4.165-1.207.141.017.419.007.5.259-.336.949-2.006.746-3.095.767" data-name="Pfad 27730"></path></g><g data-name="Gruppe 27736"><path fill="#ed2915" fill-rule="evenodd" d="M42.353 72.71c-.159-.2-.167-.48-.446-.611-1.079-.017-2.156-.026-3.236-.049-.024-.289-.132-.852.065-1.053.3.093.355.416.55.613a1.72 1.72 0 0 1 1.827-.483 7.6 7.6 0 0 1-.358-3.391 38.5 38.5 0 0 1-3.418-5c-.539-.93-1.292-1.8-1.022-3.155a16.2 16.2 0 0 0 .713-3.831c-.052-1.4-.826-2.488-2.4-1.9.252.376 1.161 1.48.528 2.23-.532-.149-.433-.816-.59-1.222a1.8 1.8 0 0 0-.845-1.023 2.78 2.78 0 0 0-2.393.615 3.2 3.2 0 0 1 1.705 1.236c.156.294.446.945-.07 1.164-.42-.621-.7-1.513-1.6-1.488-.745.018-1.162.794-1.235 1.7 1.615-.156 1.847 1.309 1.885 2.606.01.309-.107.668-.065.959a6.7 6.7 0 0 0 .742 1.374c1.53 2.874 2.897 5.649 4.338 8.414a3.9 3.9 0 0 1 .682 1.475c-2.337.23-4.309-.01-4.828-1.685-.117-.376-.011-.764-.134-1.266a2.68 2.68 0 0 0-1.95-1.8 2.77 2.77 0 0 0-1.977.682c.7.3 2.186.528 1.694 1.491-.907-.316-1.652-1.345-2.717-.95-.878.334-.97 1.608-1.153 2.77.567-.532 2.794-1.577 3.24-.057-.306.3-.753.05-1.111.038a2.3 2.3 0 0 0-1.675.479c-.774.806.047 2.372.768 2.688.223-2.674 2.258-.7 3.088.045a4.7 4.7 0 0 0 2.612 1.149c4.522.388 10.213-.466 13.025 1.5-.5-2.3-2.995-2.681-4.239-4.259" data-name="Pfad 27731"></path></g><g data-name="Gruppe 27737"><path fill="#ed2915" fill-rule="evenodd" d="M45.063 56.263c.063-.4-.388-.476-.706-.362-.901.316.589 1.076.706.362" data-name="Pfad 27732"></path></g><g data-name="Gruppe 27738"><path fill="#ed2915" fill-rule="evenodd" d="M43.468 72.729c.076-3.253 2.334-5.373 3.942-7.073 1.64-1.742 3.642-3.7 3.88-6.319a5.4 5.4 0 0 0-.422-2.842 6.22 6.22 0 0 1-1.773 4.529c-.745.936-1.59 1.822-2.417 2.7-1.664 1.76-3.81 3.611-4.23 6.009a3.67 3.67 0 0 0 .62 2.637c.093.138.221.409.4.359" data-name="Pfad 27733"></path></g><g data-name="Gruppe 27739"><path fill="#ed2915" fill-rule="evenodd" d="M51.161 61.404c0-.032-.007-.06-.05-.052a19.4 19.4 0 0 1-3.61 4.9c-1.336 1.527-2.914 3.121-3.408 4.964-.451 1.728.613 2.581 1.678 3.162-.516-5.643 4.46-6.889 5.412-11.152a4.6 4.6 0 0 0-.022-1.822" data-name="Pfad 27734"></path></g><g data-name="Gruppe 27740"><path fill="#ed2915" fill-rule="evenodd" d="M50.147 68.672a2.02 2.02 0 0 0 1.926-.224c.277-.174.6-.441.567-.6-1.54-.099-1.889-1.359-1.88-2.964-.521.756-1.827 2.968-.613 3.788" data-name="Pfad 27735"></path></g><g data-name="Gruppe 27741"><path fill="#ed2915" fill-rule="evenodd" d="M44.974 88.226a35 35 0 0 0 7.559-1.818 47 47 0 0 1 7.511-1.918c.011-.2-.671-.56-.34-.916a3.52 3.52 0 0 0 2.518.64c-1.614-1.163-3.474-2.743-3.616-5.407a9.9 9.9 0 0 1 .762-3.784c-.837-.4-2.552-.018-3.336-.2-.127-.351.317-.606.11-.707-1.788.028-2.887.775-3.067 2.237a7.3 7.3 0 0 0 .458 3.398c.322.752 1.012 1.284.881 2.035-1.129.437-2.39.7-3.657 1.061a22.3 22.3 0 0 1-3.65 1.059c-1.218.1-1.26-.717-1.8-1.492a2.737 2.737 0 0 0-3.791-.407c1.093.221 2.521.636 2.3 1.8-.983-.281-1.34-1.276-2.508-1.243s-1.675 1.275-1.804 2.601c.574-.485 2.958-1.429 3.187.046-.585.262-.774-.276-1.416-.221-1.144.095-1.524 1.8-1.1 2.915.118.312.461.778.652.72-.181-.91.281-1.914.984-1.856.322.021.6.476.8.667a2.63 2.63 0 0 0 2.367.791" data-name="Pfad 27736"></path></g><g data-name="Gruppe 27742"><path fill="#ed2915" fill-rule="evenodd" d="M65.836 31.109a29 29 0 0 1-4.207 4.648c-1.492 1.508-3.226 3.3-3.416 5.46a3.8 3.8 0 0 0 .721 2.64 5.8 5.8 0 0 1 1.583-4.53c.8-1.027 1.694-1.969 2.517-2.851 1.782-1.899 4.01-3.734 4.388-6.357a4.57 4.57 0 0 0-1.413-3.915c1.075 1.366.668 3.523-.173 4.905" data-name="Pfad 27737"></path></g><g data-name="Gruppe 27743"><path fill="#ed2915" fill-rule="evenodd" d="M69.967 32.481a2.82 2.82 0 0 1 1.932-.377c2.034.253 3.738 2.354 5.676 2.3 1.17-.032 1.532-.94 1.952-1.842-.106-.144-.169.132-.259.2-1.025.866-2.683-.218-3.83-.717-1.945-.825-4.271-1.42-5.468.382-.022.057-.063.12 0 .054" data-name="Pfad 27738"></path></g><g data-name="Gruppe 27744"><path fill="#ed2915" fill-rule="evenodd" d="M75.483 35.642a1.5 1.5 0 0 0 1.939-.934c-.01.056-.054.078-.1.1-2.269-.014-3.601-2.243-5.995-2.207a2.61 2.61 0 0 0-2.244 1.437c2.2-1.537 4.487 1.126 6.4 1.604" data-name="Pfad 27739"></path></g><g data-name="Gruppe 27745"><path fill="#ed2915" fill-rule="evenodd" d="M79.028 39.434c2.95.194 5.761.762 7.4 2.126.993.824 1.261 3.358-.3 3.639-1.485.265-2.113-.976-2.914-1.559a15.7 15.7 0 0 0-5.789-2.1 35 35 0 0 0-5.3-.631 8.6 8.6 0 0 0-1.969-.029c-.377.1-.764.692-1.224.993a2.02 2.02 0 0 1-3.025-1c-.949 1.179-2.4 2.759-2.6 4.87-.092 1.036.118 2 .828 2.237a8.46 8.46 0 0 0 3.54-.206 33.6 33.6 0 0 1 6.698-1.017c.934-.028 3.057-.135 3.124.7.029.3-.253.478-.413.753-1.69 2.919-.207 6.618 1.658 8.217a5.89 5.89 0 0 0 4.48 1.476 4.4 4.4 0 0 1 2.129-.171c.937.3 1.406 1.991 1.271 3.254-.2 1.782-2.9 2.39-3.039 4.005-.123 1.414 1.441 2.1 2.286 2.815a9.5 9.5 0 0 1-.584-1.626c-.123-.557-.262-1.453.475-1.563.21.373-.046.542-.065.961-.063 1.93 1.886 3.561 3.565 2.172a2.45 2.45 0 0 1-1.749-1.591c-.077-.313-.188-1.071.267-1.211.427.355.174.981.283 1.421.356 1.4 2.379 1.22 2.784-.114-1 .2-1.3-.721-.94-1.426.146-.3.622-.536.768-.8a3.03 3.03 0 0 0 .224-1.565c-.17-1.93-1.513-4.143-1.627-6.4a6.4 6.4 0 0 1 .855-3.784c-.27.468-1.562 1.426-1.622.181a4.51 4.51 0 0 1-5.6-.99 4.47 4.47 0 0 1-.185-4.806c2.876 1.8 7.161.824 6.968-2.839-.191-3.561-4.169-5.381-8.11-5.925-3.055-.421-6.447-.553-9.181-1.444-.686-.22-2.144-.739-2.006-1.544a.55.55 0 0 1 .51-.446c.593-.081 1.011.583 1.156.517-.235-1.364-3-1.426-3.283-.142a3.54 3.54 0 0 0 1.08 2.638c1.852 1.725 5.725 1.722 9.176 1.954" data-name="Pfad 27740"></path></g><g data-name="Gruppe 27746"><path fill="#ed2915" fill-rule="evenodd" d="M61.351 59.27c-.319.611-.915.313-1.316.134-1.274-.571-2.464-1.592-3.969-1.724a2.85 2.85 0 0 0-2.751 1.428c2.488-1.61 4.914 1.632 7.256 1.922 1.3.159 1.633-.536 2.14-1.186 9.88 5.341 19.66 10.771 29.568 16.085.242-.464.48-.936.725-1.4q-17.708-9.615-35.337-19.305c.274-.336.523-.82 1.023-.8.622.028.949 1.111 1.545 1.591a4.6 4.6 0 0 0 2.365.838c2.233.192 4.823.04 7.334.156 2.57.114 5.041.206 7.072.45.025-.219-.586-.48-.342-.917.381.1.54.455.9.621a5.4 5.4 0 0 0 1.36.274c-1.551-1.223-3.46-3.005-3.401-5.913a9.4 9.4 0 0 1 .856-3.478c-.77-.458-2.46-.114-3.333-.2-.221-.228.26-.613.007-.709a2.9 2.9 0 0 0-2.647 1.126c-.855 1.366-.086 3.557.234 5.063a4.5 4.5 0 0 1-2.328.12c-1.182-.049-2.42.01-3.44-.095-1.6-.175-1.435-2.83-2.731-3.532a2.7 2.7 0 0 0-1.97-.077c.315.567 1.536.8 1.643 1.84.017.177-.008.447-.16.5-.469.198-1.069-1.047-1.195-1.167-1.484-1.491-3.032-.039-3.16 1.67.688-.773 2.708-.9 2.929.4-.544.333-.884-.223-1.465-.221-1.145-.008-1.631 1.067-2.051 1.987-9.342-5.08-18.593-10.244-27.961-15.306-.237.512-.518.969-.78 1.46 10.394 5.78 21.035 11.38 31.38 17.124a13 13 0 0 1 2 1.241" data-name="Pfad 27741"></path></g><g data-name="Gruppe 27747"><path fill="#ed2915" fill-rule="evenodd" d="M48.689 60.607a7.2 7.2 0 0 0 1.77-3.563 4.44 4.44 0 0 0-1.414-3.76c1.506 2.205.068 4.685-1.196 6.208-.795.952-1.725 1.804-2.567 2.688-1.837 1.939-5.608 5.222-3.357 8.764a6.04 6.04 0 0 1 1.786-4.786c1.607-1.979 3.439-3.573 4.978-5.551" data-name="Pfad 27742"></path></g><g data-name="Gruppe 27748"><path fill="#ed2915" fill-rule="evenodd" d="M60.771 61.29c-1.327.237-2.267-.575-3.375-1.165a5.8 5.8 0 0 0-2.869-.952 2.32 2.32 0 0 0-2.04 1.389c2.961-2.105 6.383 3.787 8.284.728" data-name="Pfad 27743"></path></g><g data-name="Gruppe 27749"><path fill="#ed2915" fill-rule="evenodd" d="M71.964 78.487c-3.271 2.171-7.978-.951-6.258-4.792 2.882 1.829 7.369.697 7.126-3.142-.234-3.667-4.346-5.43-7.91-5.921-2.067-.294-4.278-.237-6.464-.549a16.7 16.7 0 0 1-2.826-.645c-.785-.259-1.966-.714-2.053-1.445-.109-.922.78-1.167 1.377-.741.167.121.363.532.349.308-.266-1.4-2.958-1.419-3.235-.093a3.5 3.5 0 0 0 .876 2.441c2.4 2.641 9.3 1.92 13.357 3.017a6.8 6.8 0 0 1 3.57 1.918c.692.934.626 2.883-.6 3.283-1.412.454-2.168-.814-3.018-1.458a11 11 0 0 0-2.664-1.251 29 29 0 0 0-8.476-1.487 7.8 7.8 0 0 0-1.921-.074c-.277.07-.546.469-.819.695a3.4 3.4 0 0 1-.919.594c-1.274.486-2.02-.422-2.512-1.3-1.012 1.385-2.658 2.932-2.651 5.372 0 .695.278 1.577.835 1.782a7.6 7.6 0 0 0 3.035-.163c2.796-.447 5.469-1.395 8.919-1.083.443.043 1.431.23 1.456.732.015.317-.433.706-.519.9-2.423 5.275 2.826 9.912 8.134 8.052-.245 1.15.166 2.438-.452 3.13-.667.763-2.1.61-3.393.458-1.423.425-2.911 1.753-2.019 3.616.674-.6.844-2 2.1-1.842-.518.659-1.311 1.041-1.445 2a2.58 2.58 0 0 0 1.588 2.45c-.393-1.157-.181-3.188 1.252-2.917-.31.735-1.25 1.42-.842 2.319.27.589 1.122.653 1.911.831-.022-.3-.394-.6-.287-1.114.173-.837 1.5-.684 2.386-.88a3.55 3.55 0 0 0 1.98-1.333c.723-1.142.631-2.708.571-4.339-.106-3.006.649-5.548 2.116-7-.43.416-1.97.5-1.659-.324" data-name="Pfad 27744"></path></g></g><g data-name="Gruppe 27751"><path fill="#2b2e34" d="m6.975 44.858 1.65-4.991 2.269.749-.677 2.045 2.15.71.6-1.82 2.157.713-.6 1.82 4.761 1.575-.975 2.947Z" data-name="Pfad 27746"></path></g><g data-name="Gruppe 27773"><g data-name="Gruppe 27752"><path fill="#2b2e34" d="m14.609 28.542 6.835 4.111a14 14 0 0 1 1.589 1.06 2.6 2.6 0 0 1 .7 1.029 2.7 2.7 0 0 1 .16 1.435 4.3 4.3 0 0 1-.615 1.591 4.7 4.7 0 0 1-1.273 1.434 2.8 2.8 0 0 1-1.42.574 2.53 2.53 0 0 1-1.274-.206q-.578-.261-2.308-1.3l-6.053-3.644 1.6-2.659 7.67 4.614a3.6 3.6 0 0 0 .9.441.33.33 0 0 0 .358-.18.36.36 0 0 0 0-.451 4.5 4.5 0 0 0-.927-.656l-7.542-4.533Z" data-name="Pfad 27747"></path></g><g data-name="Gruppe 27753"><path fill="#2b2e34" d="m25.739 21.409-2.029 2.047-.628-.622a1.76 1.76 0 0 0-.638-.476.4.4 0 0 0-.38.142.47.47 0 0 0-.137.461 1.34 1.34 0 0 0 .391.59 1.96 1.96 0 0 0 .753.519 2.35 2.35 0 0 0 1.136-.11 8.9 8.9 0 0 1 3.272-.433 4.64 4.64 0 0 1 2.186 1.41 4.45 4.45 0 0 1 1.125 1.536 2.34 2.34 0 0 1-.092 1.533 4.55 4.55 0 0 1-1.111 1.7 4.44 4.44 0 0 1-1.832 1.18 2.32 2.32 0 0 1-1.666-.026 6.2 6.2 0 0 1-1.662-1.265l-.556-.549 2.028-2.049 1.028 1.022a1.9 1.9 0 0 0 .7.521.47.47 0 0 0 .44-.171.5.5 0 0 0 .15-.5 1.4 1.4 0 0 0-.405-.615 2.24 2.24 0 0 0-1.182-.767 9 9 0 0 0-1.793.269 14 14 0 0 1-1.87.306 2.6 2.6 0 0 1-1.119-.232 4.3 4.3 0 0 1-1.281-.924 4.3 4.3 0 0 1-1.177-1.66 2.35 2.35 0 0 1 .092-1.5 4.5 4.5 0 0 1 1.074-1.6 4.9 4.9 0 0 1 1.728-1.183 2.16 2.16 0 0 1 1.494-.109 5.2 5.2 0 0 1 1.627 1.222Z" data-name="Pfad 27748"></path></g><g data-name="Gruppe 27754"><path fill="#2b2e34" d="m35.648 14.504-2.45 1.519-.466-.75a1.7 1.7 0 0 0-.51-.615.41.41 0 0 0-.4.052.47.47 0 0 0-.239.418 1.33 1.33 0 0 0 .239.665 2 2 0 0 0 .613.679 2.35 2.35 0 0 0 1.129.157 8.9 8.9 0 0 1 3.285.344 4.63 4.63 0 0 1 1.8 1.878 4.45 4.45 0 0 1 .733 1.752 2.33 2.33 0 0 1-.447 1.47 4.6 4.6 0 0 1-1.474 1.4 4.45 4.45 0 0 1-2.058.72 2.3 2.3 0 0 1-1.613-.42 6.1 6.1 0 0 1-1.324-1.613l-.412-.664 2.45-1.523.766 1.235a1.94 1.94 0 0 0 .557.67.47.47 0 0 0 .469-.065.51.51 0 0 0 .263-.448 1.4 1.4 0 0 0-.253-.692q-.553-.9-.97-1.022a9.3 9.3 0 0 0-1.806-.155 14 14 0 0 1-1.891-.139 2.6 2.6 0 0 1-1.034-.484 4.3 4.3 0 0 1-1.033-1.2 4.3 4.3 0 0 1-.759-1.888 2.35 2.35 0 0 1 .44-1.44 4.5 4.5 0 0 1 1.414-1.3 4.9 4.9 0 0 1 1.955-.752 2.15 2.15 0 0 1 1.48.242 5.2 5.2 0 0 1 1.299 1.568Z" data-name="Pfad 27749"></path></g><g data-name="Gruppe 27755"><path fill="#2b2e34" d="m44.547 13.978 1.027 3.178a1.33 1.33 0 0 0 .732-.454 1.46 1.46 0 0 0-.107-.919l-.343-1.059q-.232-.729-.44-.834a1.45 1.45 0 0 0-.87.088M43.16 9.684l.816 2.526q.186-.069.292-.1.434-.142.484-.394a3.7 3.7 0 0 0-.275-1.265 2.1 2.1 0 0 0-.34-.716.5.5 0 0 0-.342-.187 2.4 2.4 0 0 0-.635.135m-3.581-.993 2.946-.952a8.2 8.2 0 0 1 2.186-.465 2.2 2.2 0 0 1 1.445.505 4.16 4.16 0 0 1 1.132 1.997 2.42 2.42 0 0 1 .136 1.488 2.3 2.3 0 0 1-1.037 1 2.3 2.3 0 0 1 1.637.32 3.1 3.1 0 0 1 .9 1.529l.34 1.052a4.4 4.4 0 0 1 .283 1.793 1.48 1.48 0 0 1-.594 1.027 9 9 0 0 1-2.29.965l-3.416 1.104Z" data-name="Pfad 27750"></path></g><g data-name="Gruppe 27756"><path fill="#2b2e34" d="M56.898 12.719q-.382-2.005-.833-4.966-.224 3.452-.233 5.043Zm1.089-7.774 2.63 11.784-3.164.227-.321-2.127-1.108.074-.032 2.154-3.2.231.72-12.02Z" data-name="Pfad 27751"></path></g><g data-name="Gruppe 27757"><path fill="#2b2e34" d="m68.251 5.594-1.309 9.457 1.87.259-.327 2.364-4.944-.684 1.636-11.816Z" data-name="Pfad 27752"></path></g><g data-name="Gruppe 27758"><path fill="#2b2e34" d="M78.376 8.164 75.291 17.2l1.786.611-.771 2.26-4.725-1.612 3.858-11.297Z" data-name="Pfad 27753"></path></g><g data-name="Gruppe 27759"><path fill="#2b2e34" d="m88.672 19.21-2.654-1.607 1.073-1.776a3.7 3.7 0 0 0 .5-1.016.43.43 0 0 0-.259-.42.46.46 0 0 0-.558-.023 4.1 4.1 0 0 0-.7.956l-2.865 4.744a3.9 3.9 0 0 0-.5 1.03.44.44 0 0 0 .259.466.434.434 0 0 0 .526.007 4.3 4.3 0 0 0 .735-1.014l.78-1.283 2.653 1.608-.241.4a9.2 9.2 0 0 1-1.584 2.11 2.7 2.7 0 0 1-1.694.564 3.97 3.97 0 0 1-2.191-.643 4.6 4.6 0 0 1-1.669-1.587 2.4 2.4 0 0 1-.3-1.778 9 9 0 0 1 1.12-2.398l1.806-2.982a15 15 0 0 1 1.076-1.611 2.7 2.7 0 0 1 1.094-.789 2.93 2.93 0 0 1 1.53-.175 4.4 4.4 0 0 1 1.7.63 4.4 4.4 0 0 1 1.667 1.626 2.55 2.55 0 0 1 .32 1.739 8 8 0 0 1-1.036 2.251Z" data-name="Pfad 27754"></path></g><g data-name="Gruppe 27760"><path fill="#2b2e34" d="m98.342 20.724-6.594 6.909 1.364 1.3-1.65 1.726-3.61-3.447 8.246-8.628Z" data-name="Pfad 27755"></path></g><g data-name="Gruppe 27761"><path fill="#2b2e34" d="m107.398 32.224-6.622 4.447a14 14 0 0 1-1.632.987 2.6 2.6 0 0 1-1.228.195 2.73 2.73 0 0 1-1.37-.463 4.4 4.4 0 0 1-1.182-1.227 4.7 4.7 0 0 1-.758-1.764 2.83 2.83 0 0 1 .082-1.53 2.56 2.56 0 0 1 .729-1.066q.482-.413 2.159-1.54l5.865-3.935 1.729 2.577-7.432 4.99a3.5 3.5 0 0 0-.782.626.33.33 0 0 0 .01.405.36.36 0 0 0 .411.182 4.4 4.4 0 0 0 .987-.56l7.3-4.9Z" data-name="Pfad 27756"></path></g><g data-name="Gruppe 27762"><path fill="#2b2e34" d="m109.432 41.588-2.5.9q.076.186.111.29.151.429.409.472a3.7 3.7 0 0 0 1.253-.316 2.1 2.1 0 0 0 .708-.363.5.5 0 0 0 .177-.349 2.5 2.5 0 0 0-.156-.629m-4.249 1.517-3.145 1.126q.243.611.478.718a1.44 1.44 0 0 0 .915-.136l1.048-.376q.721-.257.819-.465a1.46 1.46 0 0 0-.114-.867m5.122-5.133 1.044 2.915a8.2 8.2 0 0 1 .536 2.17 2.2 2.2 0 0 1-.459 1.46 4.16 4.16 0 0 1-1.955 1.194 2.42 2.42 0 0 1-1.485.184 2.3 2.3 0 0 1-1.034-1.005 2.3 2.3 0 0 1-.267 1.647 3.1 3.1 0 0 1-1.5.945l-1.043.373a4.4 4.4 0 0 1-1.779.344 1.5 1.5 0 0 1-1.048-.561 9 9 0 0 1-1.037-2.26l-1.211-3.38Z" data-name="Pfad 27757"></path></g><g data-name="Gruppe 27763"><path fill="#2b2e34" d="m30.341 91.758-10.127 6.468-2.447-3q1.796-2.155 4.258-4.686-1.284.806-5.4 3.283l-2.433-2.988 8.375-8.616 1.9 2.337-3.015 2.885-2.921 2.79q2.531-1.842 6.891-4.509l2.037 2.499q-.367.38-2.838 2.75l-3.306 3.133q3.528-2.533 7.122-4.683Z" data-name="Pfad 27758"></path></g><g data-name="Gruppe 27764"><path fill="#2b2e34" d="m34.349 94.541-7.413 9.357-2.434-1.929 7.415-9.356Z" data-name="Pfad 27759"></path></g><g data-name="Gruppe 27765"><path fill="#2b2e34" d="m42.494 99.38-5.666 10.505-2.394-1.292 1.155-5.54-2.577 4.775-2.283-1.231 5.666-10.507 2.285 1.232-1.02 5.556 2.55-4.73Z" data-name="Pfad 27760"></path></g><g data-name="Gruppe 27766"><path fill="#2b2e34" d="m50.744 102.039-.686 2.288-1.765-.527-2.734 9.148-2.974-.888 2.733-9.148-1.76-.527.686-2.287Z" data-name="Pfad 27761"></path></g><g data-name="Gruppe 27767"><path fill="#2b2e34" d="m52.696 102.348 5.143.549-.25 2.376-2.06-.22-.239 2.25 1.927.206-.242 2.258-1.926-.206-.278 2.61 2.264.241-.253 2.376-5.353-.572Z" data-name="Pfad 27762"></path></g><g data-name="Gruppe 27768"><path fill="#2b2e34" d="m63.436 104.762.227 2.644a1.35 1.35 0 0 0 .72-.206q.2-.161.129-.947l-.057-.654a1 1 0 0 0-.266-.723 1.15 1.15 0 0 0-.753-.114m-3.269-1.767 2.19-.189a16.7 16.7 0 0 1 2.978-.088 2.05 2.05 0 0 1 1.338.758 3.92 3.92 0 0 1 .679 2.172 3.46 3.46 0 0 1-.184 1.9 1.82 1.82 0 0 1-1.309.691 2.34 2.34 0 0 1 1.286.5 1.85 1.85 0 0 1 .452.668 10.7 10.7 0 0 1 .23 1.753l.273 3.137-2.872.248-.341-3.958a2.7 2.7 0 0 0-.253-1.169q-.169-.215-.809-.16l.464 5.363-3.092.267Z" data-name="Pfad 27763"></path></g><g data-name="Gruppe 27769"><path fill="#2b2e34" d="m75.379 100.115.681 2.289-1.767.526 2.723 9.152-2.977.884-2.721-9.151-1.76.523-.681-2.29Z" data-name="Pfad 27764"></path></g><g data-name="Gruppe 27770"><path fill="#2b2e34" d="m83.399 96.017 5.679 10.5-2.731 1.477-2.385-4.41-.817.443 2.386 4.408-2.73 1.476-5.679-10.494 2.73-1.477 2.03 3.752.817-.443-2.03-3.755Z" data-name="Pfad 27765"></path></g><g data-name="Gruppe 27771"><path fill="#2b2e34" d="m90.658 90.062 5.221 6.031a14 14 0 0 1 1.181 1.5 2.6 2.6 0 0 1 .342 1.195 2.73 2.73 0 0 1-.292 1.414 4.4 4.4 0 0 1-1.074 1.325 4.7 4.7 0 0 1-1.658.966 2.84 2.84 0 0 1-1.53.1 2.55 2.55 0 0 1-1.146-.592q-.468-.43-1.79-1.956l-4.622-5.34 2.346-2.027 5.858 6.767a3.6 3.6 0 0 0 .717.7.334.334 0 0 0 .4-.061.36.36 0 0 0 .135-.428 4.5 4.5 0 0 0-.677-.912l-5.758-6.651Z" data-name="Pfad 27766"></path></g><g data-name="Gruppe 27772"><path fill="#2b2e34" d="m95.729 87.095 2.124 1.59a1.37 1.37 0 0 0 .324-.672q.01-.255-.62-.727l-.525-.394a1 1 0 0 0-.717-.284 1.15 1.15 0 0 0-.586.487m-3.5 1.26 1.321-1.759a17 17 0 0 1 1.918-2.279 2.05 2.05 0 0 1 1.455-.494 3.9 3.9 0 0 1 2.073.94 3.5 3.5 0 0 1 1.292 1.4 1.83 1.83 0 0 1-.358 1.438 2.34 2.34 0 0 1 1.233-.628 1.8 1.8 0 0 1 .8.107 11 11 0 0 1 1.459 1l2.522 1.885-1.731 2.308-3.174-2.379a2.7 2.7 0 0 0-1.041-.59q-.272-.017-.657.5l4.303 3.222-1.856 2.485Z" data-name="Pfad 27767"></path></g></g></g></g><!-- source: https://football-logos.cc --></svg>