<svg xmlns="http://www.w3.org/2000/svg" viewBox="0 0 155.45 250"><!-- Source: https://football-logos.cc --><path fill="#099939" d="M77.348 2.633c8.737 2.543 22.154 10.18 29.605 13.87 8.546 4.931 16.777 10.528 23.912 17.38 7.29 6.975 13.358 15.332 17.143 24.718 3.499 8.584 5.122 17.89 5.03 27.148v70.711c-.052 5.481.21 10.988-.476 16.446-1.118 10.172-4.518 20.096-9.964 28.767-4.395 7.068-10.071 13.275-16.38 18.674-6.52 5.578-14.027 9.977-21.477 14.203-5.589 3.394-22.98 11.28-26.83 13.005-10.097-3.84-20.69-8.766-30.028-14.19-8.954-5.24-17.524-11.29-24.771-18.753-6.825-6.917-12.399-15.133-15.926-24.206-2.345-5.976-3.798-12.285-4.423-18.669-.577-5.64-.268-11.313-.346-16.97q.005-34.505-.002-69.012c-.1-10.325 1.931-20.721 6.311-30.094 4.542-9.856 11.624-18.386 19.851-25.391 7.455-6.384 15.832-11.582 24.412-16.3 7.88-4.273 15.973-8.19 24.377-11.32" data-source="https://football-logos.cc"></path><g fill="#F8F7F5" data-source="https://football-logos.cc"><path d="M77.153 0c12.605 2.397 27.03 11.703 36.44 17.49 9.121 5.681 17.713 12.379 24.704 20.586 6.332 7.361 11.196 16.007 14.007 25.312 1.964 6.414 2.952 13.112 3.128 19.81.005 23.571 0 47.143.003 70.713-.082 6.222.276 12.466-.455 18.663-1.023 9.593-3.968 18.985-8.728 27.382-4.125 7.353-9.598 13.894-15.798 19.59-6.007 5.533-12.71 10.261-19.694 14.466-6.504 3.433-29.013 14.764-32.88 15.989-8.87-3.311-18.23-7.617-26.53-12.159-9.729-5.36-19.142-11.465-27.236-19.124-6.866-6.451-12.763-14.01-16.88-22.51-3.247-6.637-5.395-13.795-6.44-21.105-.817-5.324-.823-10.716-.777-16.09-.003-24.98 0-49.963 0-74.946.124-12.036 3.116-24.095 9.1-34.574 4.938-8.736 11.809-16.26 19.538-22.608 7.861-6.44 16.61-11.7 25.553-16.486C61.635 6.474 69.276 2.93 77.153 0m.235 2.692c-8.403 3.13-16.516 7.01-24.396 11.282-8.58 4.717-16.957 9.915-24.412 16.298-8.227 7.006-15.309 15.536-19.85 25.391-4.381 9.373-6.412 19.77-6.313 30.095q.008 34.506.003 69.013c.076 5.656-.232 11.33.346 16.969.625 6.384 2.078 12.693 4.423 18.669 3.527 9.073 9.1 17.288 15.925 24.206 7.248 7.463 15.818 13.512 24.772 18.753 9.338 5.424 19.854 10.368 29.95 14.21 7.112-3.08 19.18-9.07 26.906-12.912 7.45-4.225 14.958-8.738 21.477-14.316 6.31-5.4 11.986-11.607 16.38-18.674 5.448-8.67 8.847-18.595 9.964-28.768.687-5.458.424-10.964.476-16.445V85.751c.094-9.257-1.531-18.563-5.03-27.147-3.786-9.387-9.852-17.743-17.143-24.717-7.136-6.853-15.365-12.45-23.911-17.382-7.156-3.774-22.426-11.918-29.567-13.813"></path><path d="M77.638 5.643c6.55 2.01 20.256 8.611 27.279 12.893 8.8 5.037 17.294 10.767 24.568 17.877 7.05 6.855 12.842 15.1 16.383 24.305 2.537 6.547 3.931 13.516 4.307 20.522.286 6.406.084 12.817.147 19.226v49.778c-.06 6.027.14 12.062-.15 18.086-.554 11.373-3.998 22.614-10.136 32.216-4.553 7.21-10.467 13.485-17.037 18.889-6.262 5.142-13.117 9.516-20.179 13.467-5.034 3.455-21.236 10.28-24.933 11.958-9.087-3.577-18.804-8.253-27.274-13.106-9.642-5.537-18.88-11.986-26.53-20.11-6.808-7.189-12.247-15.753-15.386-25.17-2.42-7.099-3.478-14.611-3.574-22.094.008-21.966 0-43.932.006-65.899.1-8.396-.43-16.864 1.033-25.18 1.574-9.654 5.45-18.906 11.159-26.843 6.4-8.997 14.922-16.265 24.09-22.32 11.222-7.318 23.533-13.439 36-18.348m.661 7.966c-1.19.003-2.435.198-3.462.831a11.7 11.7 0 0 1-2.08 1.653c-.807.486-1.019 1.487-1.153 2.347.052.12.16.354.212.473-.268 1.152-1.012 2.192-.896 3.425.45-.076.857-.274 1.196-.58-.097.468-.192.942-.173 1.426q.553.094 1.115.144c.159.39.319.777.478 1.171.834-.221 1.445-.851 2.126-1.344.052.623.09 1.242.13 1.864h.874q-.05.494-.1.99c-1.433.487-.754 2.43-.126 3.363-.552.706-.198 1.58.194 2.265-.673.901-.735 2.044-.333 3.073.523 1.323-.19 2.947-1.436 3.569-.806.517-1.715 1.088-1.989 2.07-.246 1.12.258 2.228.179 3.351-.065.647-.39 1.228-.741 1.764.065.206.192.623.254.829-5.486 2.97-10.534 6.694-15.16 10.869-3.885-6.82-7.717-13.67-11.575-20.5.812-1.099 1.663-2.263 1.81-3.664.17-1.1-.295-2.205-1.063-2.98-2.138-2.41-6.604-1.842-8.108.995-.622 1.225-.696 2.794-.03 4.017 1 1.479 2.78 2.107 4.4 2.647 4.061 7.294 8.16 14.565 12.223 21.856-6.539 6.804-11.516 15.17-13.915 24.328 4.771.214 9.55-.04 14.324.102 7.634-.19 15.266.108 22.903-.037 12.352.097 24.712-.03 37.066.045-2.288-8.716-6.915-16.717-12.766-23.527 1.228-2.12 2.38-4.287 3.387-6.522.303-.684.831-1.23 1.188-1.883.29-.69.342-1.45.387-2.189-.639-.43-1.371-.684-2.072-.987-.84.682-1.842 1.279-2.31 2.3-.934 2.163-2.781 3.752-3.71 5.921-4.484-4.233-9.362-8.1-14.778-11.075.495-.43 1.15-.947.885-1.7-.536-2.03-1.813-3.752-2.96-5.474-.262-.374-.26-.847-.33-1.275.322-.414.585-.896.495-1.44-.146-1.32.07-2.734-.625-3.93.823-.165.582-1.14.625-1.745-.121-.959.212-1.872.365-2.803-.09-.806-.704-1.466-.722-2.291.006-.769.29-1.496.515-2.22.467.305.874.687 1.329 1.006.905-.317.8-1.601.873-2.392l.346-.535c-.054-1.072-.133-2.218-.738-3.136-.504-.571-1.155-.987-1.729-1.477.147-.161.444-.484.595-.644-.56-.433-1.171-.792-1.796-1.12l.043-.563q-.597-.07-1.19-.14-.048-.528-.09-1.056c-.168.105-.501.317-.668.425l-.08-.693c-.6.133-1.18.35-1.613.803m32.671 22.3c-1.533 1.645-1.983 3.99-1.997 6.17-.04.6.106 1.253-.2 1.805-.857 1.655-1.821 3.255-2.63 4.935q.679.285 1.36.58c.902-1.797 1.757-3.615 2.722-5.38 2.451-.57 3.954-2.918 4.904-5.08 1.083-3.464 2.045-6.97 3.086-10.45-2.426 2.464-4.912 4.869-7.245 7.42M24.388 51.648c-4.466 1.08-8.244 4.46-9.885 8.741.582-.849 1.177-1.699 1.907-2.43 3.054-3.234 7.945-4.578 12.222-3.364 3.931 1.032 7.26 4.123 8.514 8.001 2.16 6.33-1.4 14.288-7.956 16.236-3.937.928-8.1.617-11.99-.407 2.119 1.3 3.856 3.243 4.778 5.565 2.494.232 5.005.062 7.509.113 2.81-.073 5.625.09 8.43-.108.911-3.484 2.197-6.863 3.714-10.128 2.208-4.62 4.89-9.07 8.34-12.874-2.013-.243-4.079-.656-5.773-1.841-1.538-.974-2.573-2.497-3.843-3.758-4.222-3.919-10.466-5.02-15.967-3.746m90.132 4.84c-1.068 1.21-2.197 2.427-3.657 3.168-1.512.829-3.235 1.129-4.923 1.347 5.743 6.468 9.622 14.446 11.997 22.721l.3.376c3.133-.167 6.27.122 9.406-.048 1.886.048 3.774.073 5.662.051.54.13.736-.435.934-.798.97-2.039 2.585-3.752 4.53-4.893-2.248.577-4.558.974-6.884.956-2.383 0-4.878-.141-7.022-1.285-3.869-1.994-6.312-6.179-6.672-10.453-.421-4.126 1.423-8.41 4.754-10.894 3.148-2.472 7.529-3.232 11.332-2.005 2.902.863 5.326 2.903 6.98 5.405-2.062-5.472-7.837-9.109-13.634-8.96-4.844-.22-9.906 1.577-13.103 5.313m-96.574 3.29c.005.695.034 1.39.1 2.083a14.3 14.3 0 0 1 3.758-.852 7.1 7.1 0 0 1 2.667-2.635c-.823-.3-1.632-.763-2.53-.758-1.546.21-2.878 1.114-3.995 2.161m113.448-1.414c1.143.605 2.06 1.539 2.716 2.643 1.29.11 2.554.42 3.77.858a42 42 0 0 0 .095-2.032c-1.115-1.125-2.532-2.07-4.144-2.226-.853.101-1.637.48-2.437.757m-103.541.249c.752 1.038 1.43 2.129 1.945 3.303 1.253.146 2.494.424 3.609 1.04-.025-.957.14-2.098-.657-2.81-1.19-1.415-3.104-2.081-4.897-1.533m95.345 1.482c-.798.735-.727 1.9-.73 2.89 1.12-.653 2.39-.912 3.66-1.086.495-1.168 1.185-2.231 1.875-3.29-1.753-.533-3.626.12-4.805 1.486M23.506 63.81c-.782 1.35-1.483 2.784-1.661 4.35 1.044.982 2.164 1.915 3.453 2.551 1.447-.41 2.638-1.406 3.865-2.24-.237-1.474-.554-2.932-1-4.355a17.6 17.6 0 0 0-4.657-.306m104.264.29a24 24 0 0 0-.998 4.377c1.18.852 2.376 1.73 3.744 2.25 1.37-.576 2.478-1.617 3.56-2.607-.248-1.52-.816-3.014-1.716-4.271-1.53-.214-3.078.007-4.59.25M16.388 66.014c-.538.735-1.118 1.471-1.448 2.324-.11 1.033.206 2.093.752 2.97.498.82 1.437 1.166 2.251 1.58.011-1.343.26-2.667.676-3.941-.96-.805-1.584-1.884-2.231-2.933m120.91 2.902c.365 1.29.668 2.605.682 3.954.425-.208.855-.407 1.261-.654 1.276-.735 1.748-2.33 1.75-3.719-.246-.976-.992-1.72-1.51-2.556-.528 1.122-1.231 2.166-2.183 2.975M34.665 66.971c-.549 1.066-1.266 2.045-2.232 2.772.04 1.276-.152 2.54-.39 3.79.713-.127 1.58-.068 2.102-.668.936-.958 1.344-2.272 1.675-3.535-.281-.833-.583-1.678-1.155-2.36m85.51 2.141c.056 1.513.76 3.052 1.925 4.042.555.276 1.193.286 1.796.384-.289-1.244-.475-2.514-.424-3.795-.914-.693-1.596-1.613-2.153-2.603-.756.222-.856 1.32-1.145 1.972m-98.79 6.406q.314.667.626 1.334c1.707.528 3.583.769 5.31.2.577-.31.993-.833 1.466-1.278a8 8 0 0 1-3.86-1.578c-1.158.505-2.314 1.016-3.541 1.322m105.71.268c.483.45.924.976 1.523 1.28 1.72.55 3.581.318 5.272-.215q.327-.662.665-1.315c-1.228-.286-2.35-.866-3.527-1.293-1.213.737-2.493 1.391-3.934 1.543M18.022 86.465c-2.71.403-5.334 1.804-6.898 4.098C9.33 93.1 8.873 96.29 8.802 99.328c.014 19.893.003 39.788.003 59.682.022 4.907-.122 9.828.373 14.717.953 10.104 4.372 19.975 9.97 28.448 5.992 9.18 14.234 16.691 23.24 22.848 8.21 5.597 17.024 10.261 26.062 14.36 3.097 1.322 6.27 2.65 9.384 3.817 6.468-2.6 13.38-5.63 19.811-8.965 7.86-4.132 15.498-8.762 22.407-14.365 7-5.633 13.21-12.336 17.815-20.077 4.974-8.321 7.893-17.823 8.6-27.482.305-3.198.198-6.414.218-9.622V98.776c-.05-3.39-.882-7.014-3.343-9.495a10.05 10.05 0 0 0-6.944-2.887c-33.94.006-67.881-.003-101.821.003-5.517.046-11.04-.082-16.555.068"></path><path d="M67.769 61.609q.003-.845.01-1.688c2.476 0 4.95.005 7.424-.003q0 .844.003 1.688c-2.48-.004-4.957-.015-7.437.003M83.626 61.602q.005-.844.017-1.683c2.475.003 4.95 0 7.423.003q-.002.84.003 1.683c-2.482-.009-4.962-.003-7.443-.003M67.76 65.053c.009-.571.014-1.14.025-1.708 2.47.006 4.938.003 7.41 0l.022 1.702c-2.485.006-4.97-.002-7.457.006M83.626 65.047q.005-.849.017-1.699c2.467 0 4.935.006 7.401-.005.014.568.022 1.136.035 1.704-2.483.006-4.97 0-7.453 0M67.766 68.692q-.001-.852.005-1.702 3.712.01 7.427-.003.006.849.016 1.705c-2.482-.003-4.965.003-7.448 0M83.63 68.692q.003-.851.01-1.7 3.708-.001 7.424-.002 0 .849.008 1.705c-2.482-.008-4.962 0-7.443-.003M67.758 72.132q.015-.856.037-1.707 3.697.019 7.393.002.015.85.032 1.702c-2.49.006-4.976.003-7.462.003M83.618 72.132c.011-.57.022-1.136.043-1.705 2.461.009 4.924.014 7.385-.002q.02.851.03 1.707c-2.486.003-4.972 0-7.458 0M67.763 75.782c.006-.57.008-1.142.017-1.71q3.708.021 7.42 0 .004.849.011 1.705-3.722-.006-7.448.005M83.626 75.777q.008-.851.014-1.702c2.472.005 4.943.01 7.418-.003.006.568.008 1.137.014 1.708-2.482-.009-4.965-.006-7.446-.003M67.755 79.202q.015-.855.037-1.705c2.467.01 4.935.003 7.404.003q.008.848.02 1.702-3.733.001-7.461 0M83.62 79.199c.01-.568.017-1.134.033-1.697 2.464-.005 4.926.014 7.393-.01.014.568.022 1.139.037 1.71-2.49.002-4.976.005-7.462-.003M68.756 95.381c1.063-1.655 2.94-2.575 4.818-2.949 1.488-.249 3.114-.251 4.47.498a4.56 4.56 0 0 1 2.404 3.476c.472 6.685.679 13.394 1.244 20.07 2.316-5.856 4.67-11.702 6.993-17.56.682-1.682 1.24-3.532 2.66-4.768 1.795-1.72 4.48-2.146 6.855-1.702 1.536.317 2.913 1.4 3.473 2.884.551 1.315.433 2.784.178 4.155-1.45 9.187-2.935 18.363-4.363 27.552-2.348.141-4.697.035-7.048.065 1.074-6.812 2.178-13.62 3.25-20.43.208-1.3.454-2.594.548-3.909-2.418 5.93-4.918 11.828-7.376 17.739-.976 2.2-1.635 4.725-3.598 6.29-1.804 1.49-4.888 1.493-6.363-.461-.906-1.377-.922-3.097-1.117-4.68-.628-6.307-1.228-12.617-1.889-18.92-1.323 8.082-2.567 16.182-3.83 24.276-2.361.211-4.737.04-7.101.102 1.461-9.257 2.935-18.507 4.4-27.76.201-1.396.55-2.81 1.392-3.968M48.922 93.035c1.671-.755 3.708-.998 5.38-.119 1.5.769 2.349 2.405 2.58 4.025 1.577 10.055 3.164 20.105 4.731 30.16-2.562.011-5.124-.017-7.683.022-.493-2.478-.798-4.983-1.205-7.472-3.452-.008-6.903.02-10.356-.01-1.306 2.448-2.38 5.014-3.665 7.477-2.568-.028-5.137-.003-7.704-.011 4.788-10.1 9.573-20.202 14.364-30.299.744-1.592 1.963-3.001 3.558-3.773m.943 8.568c-1.42 3.69-2.885 7.364-4.259 11.076 1.983.01 3.965.005 5.948.005-.511-3.701-1.113-7.39-1.69-11.08M116.387 93.182c1.79-.928 4.093-1.207 5.889-.144 1.51.876 2.237 2.624 2.432 4.29 1.513 9.93 3.165 19.843 4.624 29.78-2.563-.008-5.125-.006-7.687-.003-.427-2.483-.746-4.98-1.196-7.455-3.46.003-6.914.003-10.374 0-1.21 2.478-2.367 4.983-3.595 7.455-2.567-.016-5.136.02-7.701-.014 4.664-9.944 9.412-19.842 14.092-29.774.745-1.673 1.857-3.273 3.516-4.135m-3.057 19.497c2.005.005 4.01.016 6.016-.006-.603-3.69-1.1-7.401-1.767-11.08-1.35 3.721-2.835 7.392-4.249 11.086M30.59 130.311c5.957-.03 11.912 0 17.866-.013 1.43-.046 2.952.495 3.784 1.71 1.168 1.777.727 4.268-.611 5.832-5.484 6.358-10.94 12.741-16.423 19.096 4.398.034 8.795.022 13.193.008-.365 2.452-.716 4.907-1.145 7.35-5.448-.022-10.894-.002-16.344-.008-1.301-.014-2.687-.162-3.787-.92-1.378-1.014-2.102-2.926-1.55-4.576.419-1.414 1.445-2.51 2.386-3.6 4.989-5.855 9.97-11.717 14.963-17.568-4.477-.035-8.951-.006-13.428-.009.304-2.441.756-4.862 1.096-7.302M54.791 130.295c2.413.008 4.821.014 7.234-.003-.463 4.115-1.25 8.188-1.858 12.285-.663 4.25-1.344 8.5-2.01 12.75-.128.591.113 1.309.765 1.453 1.386.336 2.828.11 4.24.172 1.357-.064 2.802.222 4.087-.335.712-.309.774-1.158.914-1.816 1.306-8.164 2.585-16.339 3.885-24.503 2.41.008 4.821.002 7.231.002-.452 4.215-1.295 8.383-1.906 12.58-.674 4.24-1.353 8.476-2.026 12.715-.274 1.583-.47 3.254-1.344 4.644-.86 1.388-2.042 2.633-3.555 3.303-1.315.574-2.762.763-4.188.744-3.213-.011-6.425.006-9.636-.005-1.863-.025-3.933-.563-5.053-2.175-1.247-1.788-1.123-4.107-.834-6.166 1.363-8.546 2.674-17.102 4.054-25.645M81.344 130.284c2.418.032 4.833.016 7.252.008-1.171 8.264-2.676 16.483-3.872 24.747-.227.86.203 1.945 1.236 1.875 4.404.094 8.816.014 13.221.037q-.599 3.657-1.19 7.32c-4.737.025-9.474.016-14.211.003-2.019-.125-4.315-.479-5.679-2.132-1.32-1.664-1.122-3.942-.885-5.917 1.387-8.647 2.702-17.3 4.128-25.941M104.453 130.411c2.39-.271 4.896-.022 7.331-.116-1.244 8.259-2.607 16.5-3.874 24.752-.037.568-.165 1.466.56 1.658 1.247.447 2.608.181 3.906.249 1.48-.079 3.027.227 4.448-.29.75-.248.899-1.073 1.018-1.75 1.328-8.207 2.573-16.428 3.933-24.63 2.427.037 4.85.008 7.277.014-1.331 8.827-2.791 17.635-4.188 26.454-.305 2.41-1.539 4.731-3.55 6.135-1.523 1.082-3.443 1.425-5.28 1.403-3.305-.02-6.611.017-9.917-.016-1.853-.052-3.88-.665-4.935-2.3-1.171-1.832-1.018-4.14-.71-6.202zM66.638 172.964c.614-.682 1.558-.874 2.437-.863 2.695-.006 5.394.005 8.089.005q.004 1.893.003 3.785c-2.13.005-4.259-.006-6.39.002-.509-.04-1.18.17-1.236.76-.108.764-.048 1.537-.05 2.306 2.558.005 5.115.003 7.674.003 0 1.252-.003 2.505.008 3.758-2.562.113-5.126.034-7.69.081.014 2.3.006 4.599.008 6.898-1.272.011-2.542.011-3.814.009-.043-4.483 0-8.966-.017-13.448.001-1.15.087-2.454.978-3.296M79.856 172.89c.86-.709 2.031-.786 3.1-.795 2.502.009 5.008.006 7.512.006-.014 1.26-.014 2.526.005 3.79-2.04.008-4.074.008-6.111-.006-.535-.027-1.05.105-1.553.255-.119 2.949-.076 5.91-.034 8.86-.028.706.721.938 1.303.908 2.13.022 4.262-.011 6.395.006a193 193 0 0 0-.005 3.798c-2.602-.006-5.205 0-7.803 0-1.144.01-2.318-.47-3.02-1.397-.6-.769-.747-1.782-.73-2.73.016-3.207.01-6.41 0-9.614.017-1.073.126-2.29.94-3.08"></path></g><g fill="#035D2A" data-source="https://football-logos.cc"><path d="M21.025 166.193c.88 1.085 1.556 2.316 2.416 3.422 2.873 3.776 6.346 7.042 9.94 10.122 7.99 6.737 16.665 12.611 25.598 18.012-1.453 3.363-2.789 6.822-3.213 10.488-.869 6.125.532 12.497 3.649 17.82.706 1.271 1.657 2.388 2.375 3.656-3.246-2.596-5.524-6.256-6.858-10.16-1.761-5.137-2.08-10.67-1.55-16.042.079-.393-.062-.787-.484-.888-4.307-1.91-8.549-3.98-12.673-6.265-4.372-2.451-8.73-5.059-12.38-8.532-2.93-2.789-4.677-6.579-5.67-10.448-.92-3.646-1.359-7.43-1.15-11.185M132.46 169.488c.823-1.047 1.437-2.243 2.305-3.255.258 5.981-.719 12.19-3.639 17.48-2.045 3.774-5.591 6.37-9.065 8.73-6.208 4.094-12.89 7.405-19.678 10.405.623 5.391.328 10.937-1.317 16.129-1.304 4.022-3.515 7.888-6.879 10.526.95-1.642 2.156-3.127 2.962-4.856 3.603-6.79 4.022-15.046 1.518-22.274-.46-1.575-1.293-3.009-1.816-4.559 1.997-1.434 4.191-2.591 6.236-3.963 8.632-5.61 17.076-11.624 24.486-18.806 1.72-1.77 3.42-3.57 4.887-5.557M24.696 188.622c2.421 1.85 4.766 3.807 7.353 5.43a85.5 85.5 0 0 0 19.749 9.52c.016 1.555-.25 3.1-.218 4.66.06 4.2.71 8.44 2.322 12.34.49 1.216 1.168 2.344 1.666 3.557-3.51-3.977-5.1-9.282-5.71-14.46-5.311-.79-10.532-2.613-14.973-5.665-5.206-3.542-9.153-9.117-10.189-15.382"></path><path d="M128.32 190.8c.927-.736 1.818-1.521 2.805-2.18-.906 5.319-3.895 10.184-7.978 13.671-4.84 4.132-11.007 6.434-17.24 7.396-.523 5.077-2.124 10.25-5.479 14.183.444-1.26 1.145-2.407 1.615-3.657 2.043-5.226 2.573-10.993 1.856-16.542 8.713-3.04 17.098-7.212 24.42-12.871M84.356 195.793c3.52 1.003 6.593 3.265 8.971 6.007 3.252 3.782 5.026 8.787 4.896 13.77-.043 5.308-2.302 10.555-6.114 14.246-3.13 3.102-7.294 5.153-11.672 5.681-4.256.535-8.69-.306-12.425-2.421a20.5 20.5 0 0 1-8.086-8.308c-2.454-4.594-3.026-10.145-1.604-15.15 1.174-4.268 3.787-8.103 7.286-10.804 1.58-1.177 3.297-2.24 5.212-2.772-2.56 1.26-4.943 2.935-6.742 5.172-2.656 3.205-4.149 7.353-4.084 11.519-.065 4.774 1.985 9.457 5.331 12.834 2.713 2.627 6.225 4.463 9.986 4.977 4.242.636 8.72-.314 12.303-2.683 3.764-2.435 6.56-6.325 7.667-10.67 1.252-4.98.357-10.502-2.619-14.715-2.002-3.025-5.008-5.244-8.306-6.683"></path><path d="M76.717 197.119c1.256-.25 2.619-.255 3.812.243 1.098.755 1.901 1.853 2.763 2.851-1.61.357-3.168.92-4.55 1.826-.563.439-1.16-.14-1.68-.359-1.259-.736-2.644-1.213-4.056-1.555.722-1.477 2.066-2.704 3.711-3.006M88.904 203.985c1.066.211 2.52-.008 3.16 1.077.995 1.52 1.495 3.335 1.612 5.14.152 1.376-.847 2.483-1.545 3.56-.1.197-.568.562-.582.087-.487-1.643-1.493-3.038-2.7-4.228.171-1.874.202-3.758.055-5.636M65.45 205.137c.452-.84 1.583-.671 2.384-.86-.006 1.623.243 3.227.568 4.813.27.78-.574 1.198-.998 1.699-1.16 1.047-1.8 2.497-2.45 3.882-.602-.933-1.346-1.891-1.322-3.057.016-2.27.684-4.52 1.818-6.477M33.342 206.944c4.937 1.818 9.898 4.025 15.252 4.168a44.5 44.5 0 0 0 2.395 8.468c-1.12-1.14-1.926-2.535-2.594-3.974-4.39-.322-8.703-2-11.974-4.97-1.164-1.103-2.344-2.247-3.08-3.692M118.118 208.586c1.442-.522 2.822-1.21 4.313-1.598-2.402 3.963-6.558 6.734-10.997 7.932-1.309.408-2.705.374-4.012.758-.828 1.547-1.737 3.057-2.913 4.372 1.388-2.82 2.07-5.9 2.765-8.943 3.743-.119 7.36-1.225 10.844-2.52M77.753 207.82c.333-.172.712-.49 1.109-.297 1.583.63 2.946 1.697 4.244 2.783.444.411 1.131.855.872 1.567-.417 2.002-.872 4.087-1.935 5.854-2.124.243-4.274.087-6.406.068-1.066-1.948-1.69-4.096-2.177-6.25 1.286-1.392 2.692-2.699 4.293-3.725M84.74 221.052c1.84-.421 3.629-1.006 5.395-1.663.024 1.593-.244 3.295-1.41 4.477-1.235 1.29-2.899 2.703-4.82 2.33-.6-.102-1.172-.311-1.743-.506 1.3-1.263 2.05-2.929 2.579-4.638M67.19 220.357c1.577.611 3.132 1.298 4.799 1.655.692.094.865.849 1.193 1.352.603 1.171 1.655 2.002 2.537 2.952-1.388.517-3.043 1.117-4.458.373-1.523-.727-2.87-1.847-3.806-3.254-.62-.909-.3-2.062-.266-3.078"></path></g><!-- source: https://football-logos.cc --></svg>