<svg xmlns="http://www.w3.org/2000/svg" xml:space="preserve" viewBox="0 0 199.56 275"><!-- Source: https://football-logos.cc --><path fill="#207F3E" d="M199.56 0v64.672c0 104.349-51.594 177.971-99.78 210.328C51.594 242.643 0 169.022 0 64.672V0z" data-source="https://football-logos.cc"></path><path fill="#FFF" d="M197.494 2.065H2.066v62.607c0 24.723 2.944 48.889 8.752 71.828 5.292 20.902 12.971 40.874 22.827 59.361 17.008 31.904 40.457 59.068 66.136 76.642 25.678-17.575 49.128-44.738 66.137-76.642 9.853-18.487 17.533-38.459 22.825-59.361 5.808-22.939 8.752-47.106 8.752-71.828V2.065z"></path><path fill="#207F3E" d="M5.071 5.071h189.418v46.351H5.071z"></path><path fill="#E1E322" d="M13.732 135.764c5.231 20.667 12.823 40.412 22.564 58.683 16.408 30.781 38.862 57.066 63.484 74.398 24.622-17.331 47.076-43.616 63.484-74.398 9.741-18.271 17.333-38.016 22.564-58.683 5.498-21.715 8.396-44.55 8.637-67.917H5.095c.241 23.367 3.14 46.202 8.637 67.917"></path><path fill="#FCDA00" d="M194.489 54.428H5.071v10.245c0 1.06.014 2.117.023 3.175h189.371c.01-1.059.023-2.115.023-3.175V54.428z"></path><path fill="#207F3E" d="M22.563 133.527c5.051 19.956 12.377 39.012 21.772 56.633 14.514 27.227 34.041 50.913 55.445 67.374 21.403-16.461 40.931-40.147 55.445-67.374 9.395-17.622 16.721-36.678 21.773-56.633 4.715-18.625 7.452-38.115 8.177-58.073H14.386c.726 19.958 3.461 39.448 8.177 58.073M27.515 68.069l-.889 2.927h-1.945l3.307-10.322h2.403l3.353 10.322h-2.02l-.934-2.927zm2.954-1.424-.812-2.541c-.199-.628-.367-1.331-.519-1.929h-.032c-.152.599-.306 1.317-.49 1.929l-.796 2.541zM35.183 60.812c.598-.123 1.684-.213 2.741-.213 1.394 0 2.251.168 2.956.658.644.383 1.072 1.056 1.072 1.929 0 .95-.599 1.823-1.716 2.236v.032c1.088.274 2.083 1.132 2.083 2.557a2.68 2.68 0 0 1-.995 2.127c-.736.644-1.945.965-3.829.965-1.041 0-1.836-.077-2.312-.138zm1.868 4.073h.965c1.301 0 2.036-.614 2.036-1.485 0-.965-.735-1.41-1.929-1.41-.551 0-.873.032-1.072.077zm0 4.746c.245.047.567.047.995.047 1.21 0 2.283-.46 2.283-1.732 0-1.193-1.043-1.682-2.344-1.682h-.934zM46.022 68.069l-.887 2.927H43.19l3.308-10.322h2.403l3.353 10.322h-2.02l-.934-2.927zm2.956-1.424-.812-2.541c-.199-.628-.367-1.331-.521-1.929h-.03c-.152.599-.306 1.317-.49 1.929l-.796 2.541zM53.691 60.674h5.958v1.548h-4.074v2.847h3.797v1.546h-3.797v4.38h-1.884zM62.449 68.069l-.889 2.927h-1.943l3.306-10.322h2.405l3.353 10.322h-2.022l-.934-2.927zm2.956-1.424-.812-2.541c-.199-.628-.369-1.331-.521-1.929h-.032c-.152.599-.306 1.317-.49 1.929l-.796 2.541zM70.119 70.995V60.674h2.145l2.664 4.425a28 28 0 0 1 1.76 3.461h.032c-.123-1.378-.168-2.711-.168-4.289v-3.598h1.745v10.322h-1.945l-2.695-4.548c-.658-1.118-1.347-2.39-1.852-3.553l-.045.014c.075 1.333.091 2.695.091 4.396v3.691zM82.534 68.069l-.887 2.927h-1.945l3.307-10.322h2.403l3.353 10.322h-2.02l-.934-2.927zm2.955-1.424-.812-2.541c-.199-.628-.367-1.331-.521-1.929h-.03c-.152.599-.306 1.317-.49 1.929l-.798 2.541zM93.372 60.812c.599-.123 1.684-.213 2.741-.213 1.394 0 2.251.168 2.956.658.642.383 1.07 1.056 1.07 1.929 0 .95-.597 1.823-1.714 2.236v.032c1.086.274 2.083 1.132 2.083 2.557 0 .918-.399 1.637-.997 2.127-.734.644-1.943.965-3.827.965-1.041 0-1.836-.077-2.312-.138zm1.868 4.073h.966c1.301 0 2.036-.614 2.036-1.485 0-.965-.734-1.41-1.929-1.41-.551 0-.873.032-1.073.077zm0 4.746c.245.047.567.047.995.047 1.211 0 2.281-.46 2.281-1.732 0-1.193-1.041-1.682-2.342-1.682h-.934zM107.963 66.416h-3.89v3.031h4.35v1.548h-6.232V60.674h6.001v1.548h-4.119v2.664h3.89zM110.029 68.942a5.2 5.2 0 0 0 2.496.659c1.21 0 1.884-.567 1.884-1.408 0-.782-.521-1.24-1.838-1.716-1.698-.612-2.786-1.514-2.786-3.001 0-1.684 1.41-2.97 3.645-2.97 1.118 0 1.943.245 2.48.521l-.46 1.515a4.4 4.4 0 0 0-2.052-.49c-1.195 0-1.714.644-1.714 1.24 0 .798.596 1.165 1.974 1.7 1.791.673 2.664 1.578 2.664 3.063 0 1.653-1.256 3.108-3.92 3.108-1.086 0-2.219-.322-2.786-.66zM117.177 64.372c.379-1.07.76-2.547.942-3.717l1.817-.14c-.395 1.323-1.027 2.843-1.576 3.744zM123.608 62.252h-2.94v-1.578h7.794v1.578h-2.972v8.744h-1.882zM131.552 60.674v4.135h4.364v-4.135h1.884v10.322h-1.884v-4.548h-4.364v4.548h-1.882V60.674zM145.731 66.416h-3.89v3.031h4.348v1.548h-6.232V60.674h6.003v1.548h-4.119v2.664h3.89zM147.842 70.995V60.674h2.145l2.663 4.425a28.6 28.6 0 0 1 1.762 3.461h.03c-.123-1.378-.168-2.711-.168-4.289v-3.598h1.746v10.322h-1.945l-2.695-4.548c-.658-1.118-1.347-2.39-1.852-3.553l-.045.014c.077 1.333.091 2.695.091 4.396v3.691zM158.191 60.812c.827-.138 1.884-.213 3.001-.213 1.929 0 3.262.397 4.21 1.193.995.812 1.607 2.038 1.607 3.797 0 1.838-.628 3.217-1.607 4.103-1.025.934-2.664 1.41-4.67 1.41-1.102 0-1.929-.061-2.541-.138zm1.884 8.744c.26.045.658.045 1.041.045 2.451.016 3.904-1.333 3.904-3.951.016-2.281-1.301-3.582-3.659-3.582-.597 0-1.025.045-1.286.106zM174.419 66.416h-3.888v3.031h4.348v1.548h-6.232V60.674h6.003v1.548h-4.119v2.664h3.888z"></path><path fill="#FFF" d="M179.314 81.949s-15.244 17.154-36.603 42.603l-29.845 4.032 26.933-.555a2382 2382 0 0 0-23.854 28.974L58.18 228.339a192 192 0 0 0 1.68 2.145l58.15-71.809c39.008-48.173 61.304-76.726 61.304-76.726"></path><path fill="#FCDA00" d="M152.308 158.943c.428.348.825.168 1.128-.207 1.984-2.449 21.739-48.308 25.878-76.787 0 0-22.296 28.553-61.304 76.725l-58.15 71.809a221 221 0 0 0 4.848 5.91l78.177-96.542c2.228 4.626 9.066 18.804 9.423 19.092"></path><path fill="#F6F3B4" d="M110.23 126.949c-.312.385-.429.808-.044 1.12.071.059 1.086.249 2.68.515l29.845-4.032c21.358-25.449 36.603-42.603 36.603-42.603-26.672 13.52-67.034 42.469-69.084 45M139.799 128.03l-2.855.059-79.943 98.721c.389.511.784 1.019 1.177 1.528l57.767-71.335a2372 2372 0 0 1 23.854-28.973"></path><path fill="#FCDA00" d="M112.866 128.584c4.339.731 13.001 2.05 18.882 2.934l-75.91 93.741q.579.777 1.163 1.55l79.943-98.721z" data-source="https://football-logos.cc"></path><path fill="#207F3E" d="M143.114 127.524a8154 8154 0 0 1-25.104 31.15l-58.15 71.809q.538.683 1.078 1.36l82.743-102.179z"></path><path fill="#FFF" d="M20.246 81.949s15.244 17.154 36.603 42.603l29.845 4.032-26.933-.555a2382 2382 0 0 1 23.854 28.974l57.765 71.335a192 192 0 0 1-1.68 2.145l-58.15-71.809c-39.01-48.172-61.304-76.725-61.304-76.725"></path><path fill="#FCDA00" d="M47.252 158.943c-.428.348-.825.168-1.127-.207-1.984-2.449-21.739-48.308-25.878-76.787 0 0 22.294 28.553 61.304 76.725l58.15 71.809a221 221 0 0 1-4.848 5.91l-78.177-96.542c-2.228 4.626-9.067 18.804-9.424 19.092"></path><path fill="#F6F3B4" d="M89.33 126.949c.312.385.431.808.044 1.12-.071.059-1.086.249-2.68.515l-29.845-4.032C35.491 99.103 20.246 81.949 20.246 81.949c26.67 13.52 67.035 42.469 69.084 45M59.762 128.03l2.855.059 79.943 98.721q-.585.766-1.179 1.528l-57.765-71.335a2390 2390 0 0 0-23.854-28.973"></path><path fill="#FCDA00" d="M86.694 128.584c-4.339.731-13.001 2.05-18.882 2.934l75.91 93.741c-.387.517-.772 1.036-1.163 1.55l-79.943-98.721z"></path><path fill="#207F3E" d="M56.446 127.524a8154 8154 0 0 0 25.104 31.15l58.15 71.809q-.538.683-1.078 1.36L55.879 129.665z"></path><path fill="#FFF" d="M26.161 11.088h4.046v11.688h5.79v3.375h-9.836zM42.076 22.665l-.849 3.485h-4.18l4.382-15.063h5.363l4.492 15.063h-4.358l-.962-3.485zm3.332-2.974-.693-2.703c-.223-.849-.516-2.079-.738-2.974h-.044c-.225.895-.448 2.125-.671 2.974l-.647 2.703zM65.97 20.742c-.065-1.698-.089-3.71-.089-6.056h-.067a113 113 0 0 1-1.586 5.9l-1.499 5.253h-3.152l-1.25-5.253c-.403-1.609-.851-3.845-1.208-5.9h-.044c-.091 2.123-.158 4.358-.225 6.056l-.245 5.409h-3.71l.938-15.063h5.432l.984 4.068a72 72 0 0 1 1.185 5.497h.067c.424-1.832.916-3.955 1.362-5.543l1.139-4.022H69.3l.76 15.063h-3.91zM79.159 26.397c-4.67 0-7.241-3.509-7.241-7.689 0-4.38 2.861-7.867 7.488-7.867 4.85 0 7.308 3.598 7.308 7.622 0 4.85-2.905 7.934-7.531 7.934zm.201-3.195c1.945 0 3.084-1.878 3.084-4.605 0-2.593-1.161-4.559-3.128-4.559-1.945 0-3.13 1.967-3.13 4.581-.022 2.705 1.185 4.583 3.13 4.583zM88.86 26.151V11.088h4.761l2.391 4.626c.829 1.497 1.7 3.509 2.369 5.274h.067c-.223-1.99-.312-4.089-.312-6.325v-3.576h3.687V26.15h-4.246l-2.571-5.006c-.827-1.588-1.811-3.622-2.526-5.43h-.089c.113 2.034.156 4.291.156 6.728v3.708H88.86zM107.548 14.484h-3.845v-3.396h11.801v3.396h-3.91V26.15h-4.046zM121.541 26.151l-4.783-15.063h4.425l1.609 5.922a72 72 0 0 1 1.252 5.274h.043a72 72 0 0 1 1.23-5.207l1.631-5.989h4.291l-4.917 15.063zM136.92 11.088v15.063h-4.046V11.088zM139.692 11.088h4.044v11.688h5.79v3.375h-9.834zM151.495 11.088h4.044v11.688h5.79v3.375h-9.834zM172.75 20.073h-5.409v2.77h6.058v3.308h-10.104V11.088h9.79v3.308h-5.744v2.413h5.409zM22.93 44.714c-1.14.379-3.241.849-5.207.849-2.95 0-4.963-.736-6.325-2.034-1.408-1.341-2.147-3.286-2.147-5.43.022-5.252 3.934-7.912 8.807-7.912 2.034 0 3.576.357 4.358.736l-.806 3.242c-.849-.381-1.876-.649-3.576-.649-2.48 0-4.536 1.297-4.536 4.36 0 2.816 1.809 4.447 4.267 4.447.559 0 1.074-.045 1.276-.134v-2.593H17.03v-3.13h5.9zM32.029 45.652c-4.672 0-7.243-3.509-7.243-7.687 0-4.382 2.861-7.867 7.488-7.867 4.85 0 7.308 3.598 7.308 7.62 0 4.85-2.904 7.934-7.531 7.934zm.2-3.195c1.945 0 3.086-1.878 3.086-4.605 0-2.593-1.163-4.56-3.13-4.56-1.945 0-3.13 1.967-3.13 4.583-.022 2.703 1.185 4.581 3.13 4.581zM41.686 30.343h4.046v11.69h5.788v3.374h-9.834zM53.443 30.566c1.297-.223 3.017-.334 4.806-.334 2.883 0 4.715.468 6.19 1.497 1.655 1.139 2.727 3.017 2.727 5.788 0 3.086-1.161 5.075-2.614 6.214-1.655 1.297-4.135 1.856-7.085 1.856-1.945 0-3.242-.134-4.024-.269zm4.046 11.846c.201.045.582.045.849.045 2.615.044 4.56-1.408 4.56-4.806 0-2.95-1.765-4.334-4.178-4.334-.626 0-1.029.043-1.23.089v9.006zM78.724 39.327h-5.409V42.1h6.056v3.307H69.27V30.343h9.788v3.308h-5.742v2.415h5.409zM81.564 45.407V30.343h4.761l2.391 4.627c.825 1.497 1.698 3.509 2.369 5.274h.065c-.223-1.988-.312-4.09-.312-6.325v-3.576h3.689v15.065H90.28l-2.569-5.006c-.827-1.587-1.811-3.622-2.528-5.432h-.089c.112 2.034.156 4.291.156 6.727v3.71zM105.615 41.92l-.851 3.487h-4.178l4.38-15.065h5.365l4.492 15.065h-4.358l-.962-3.487zm3.329-2.971-.693-2.706c-.223-.849-.513-2.077-.736-2.972h-.045c-.223.894-.448 2.123-.671 2.972l-.648 2.706zM116.701 30.566c1.141-.178 2.861-.334 4.874-.334 2.302 0 3.955.312 5.096 1.183.96.738 1.473 1.811 1.473 3.264 0 1.878-1.408 3.197-2.569 3.643v.067c.984.446 1.542 1.408 1.921 2.703.446 1.542.938 3.734 1.23 4.315h-4.113c-.223-.446-.626-1.609-1.05-3.487-.401-1.787-.962-2.168-2.212-2.168h-.65v5.655h-4zm4.001 6.281h1.053c1.519 0 2.391-.738 2.391-1.856 0-1.117-.738-1.765-2.079-1.765-.76 0-1.163.046-1.364.091v3.53zM130.449 30.566c1.139-.178 2.861-.334 4.872-.334 2.302 0 3.957.312 5.096 1.183.962.738 1.475 1.811 1.475 3.264 0 1.878-1.408 3.197-2.571 3.643v.067c.986.446 1.542 1.408 1.923 2.703.446 1.542.938 3.734 1.228 4.315h-4.111c-.223-.446-.626-1.609-1.05-3.487-.403-1.787-.962-2.168-2.214-2.168h-.647v5.655h-4.001zm4.001 6.281h1.05c1.521 0 2.391-.738 2.391-1.856 0-1.117-.736-1.765-2.079-1.765-.76 0-1.161.046-1.362.091zM150.632 45.652c-4.67 0-7.241-3.509-7.241-7.687 0-4.382 2.861-7.867 7.488-7.867 4.85 0 7.308 3.598 7.308 7.62 0 4.85-2.905 7.934-7.531 7.934zm.201-3.195c1.945 0 3.084-1.878 3.084-4.605 0-2.593-1.161-4.56-3.13-4.56-1.943 0-3.128 1.967-3.128 4.583-.022 2.703 1.185 4.581 3.128 4.581zM162.436 45.407l-3.466-15.065h4.337l.873 5.589c.269 1.743.535 3.732.76 5.296h.043c.247-1.698.559-3.509.895-5.363l.96-5.521h4.315l.938 5.79c.269 1.743.47 3.286.671 4.984h.045c.223-1.698.492-3.465.76-5.252l.893-5.521h4.089l-3.708 15.065h-4.403l-1.007-5.9a82 82 0 0 1-.626-4.516h-.044c-.247 1.768-.448 3.197-.715 4.516l-1.142 5.9h-4.468zM180.228 41.385c.916.468 2.391.938 3.912.938 1.386 0 2.056-.47 2.056-1.23 0-.736-.67-1.139-2.368-1.72-2.549-.916-4.248-2.302-4.248-4.537 0-2.66 2.259-4.715 6.057-4.715 1.789 0 3.086.336 4.07.76l-.851 3.241a7.85 7.85 0 0 0-3.262-.715c-1.23 0-1.9.446-1.9 1.117 0 .76.804 1.051 2.706 1.765 2.703 1.005 3.91 2.437 3.91 4.538 0 2.593-2.012 4.804-6.414 4.804-1.811 0-3.576-.47-4.425-.916z"></path><path fill="#FCDA00" d="M84.753 220.258h10.41v3.558h-6.058v2.982h5.697v3.509h-5.697v6.155h-4.352zM114.543 236.03c-.6.312-2.141.673-4.064.673-6.058 0-8.726-3.776-8.726-8.079 0-5.697 4.182-8.605 9.014-8.605 1.852 0 3.367.36 4.04.697l-.841 3.438a7.8 7.8 0 0 0-3.006-.578c-2.476 0-4.64 1.467-4.64 4.761 0 2.932 1.756 4.761 4.737 4.761 1.032 0 2.211-.194 2.885-.456z" data-source="https://football-logos.cc"></path><!-- source: https://football-logos.cc --></svg>