<svg xmlns="http://www.w3.org/2000/svg" xml:space="preserve" viewBox="1.33 1.33 582.47 657.81"><!-- Source: https://football-logos.cc --><path d="M3.046 427.247c25.59 22.33 60.013 37.507 92.201 47.501 19.9 6.18 40.411 10.847 61 14.042 18.007 2.794 36.532 4.571 54.765 4.571 20.762 0 42.024-2.172 62.497-5.525 24.334-3.985 48.624-9.898 71.927-17.979 31.705-10.994 64.287-27 89.018-50.04l.8-.746.092-1.09c3.207-38.01 1.15-76.94-4.787-114.59-4.173-26.47-10.342-52.732-18.538-78.25-7.78-24.22-17.464-48.04-29.408-70.515-19.28-36.279-45.064-68.656-75.99-95.688C278.665 34.501 246.508 14.431 212.077.48L210.892 0l-1.144.57C139.13 35.774 82.536 88.575 46.754 159.367c-11.682 23.111-20.67 47.73-27.566 72.67-7.257 26.246-12.292 53.199-15.404 80.245C-.512 349.637-1.25 387.9 2.087 425.363l.1 1.135z" style="fill:#b30737;fill-opacity:1;fill-rule:evenodd;stroke:none" transform="matrix(1.33333 0 0 -1.33333 1.333 659.148)" data-source="https://football-logos.cc"></path><path d="M211.012 490.526c-59.394 0-154.5-20.386-206.102-65.415-7.798-87.539 6.46-189.457 44.373-264.466 37.956-75.092 97.14-125.34 161.73-157.538 64.59 26.17 129.03 77.454 169.097 152.85 39.127 73.626 59.809 174.113 52.412 261.786-56.962 53.066-162.115 72.783-221.51 72.783" style="fill:#fff;fill-opacity:1;fill-rule:evenodd;stroke:none" transform="matrix(1.33333 0 0 -1.33333 1.333 659.148)"></path><path d="M10.91 423.52c48.642 40.44 137.714 61.904 200.102 61.904 20.451 0 41.046-2.118 61.214-5.42 23.936-3.92 47.686-9.697 70.61-17.646 29.703-10.3 60.146-25.03 83.743-46.1l1.022-.913.104-1.367c2.767-36.39.694-73.328-4.985-109.35-7.906-50.133-23.252-101.372-47.116-146.277-35.268-66.366-93.588-119.946-162.92-149.035l-1.456-.611-1.406.717C142.26 43.896 88.202 94.957 53.837 162.947c-20.822 41.196-33.371 87.917-40 133.465a566 566 0 0 0-5.592 63.46c-.653 20.429-.22 40.937 1.45 61.31l.117 1.425z" style="fill:#b30737;fill-opacity:1;fill-rule:evenodd;stroke:none" transform="matrix(1.33333 0 0 -1.33333 1.333 659.148)"></path><path d="M13.085 420.818c-6.803-83.012 6.23-182.12 43.788-256.423 34.095-67.454 87.667-117.93 154.495-152.03C279.974 41.15 337.698 94.185 372.6 159.86c23.614 44.435 38.939 95.614 46.76 145.211 5.622 35.657 7.694 72.512 4.953 108.563-23.232 20.744-53.458 35.32-82.592 45.424-22.69 7.868-46.35 13.622-70.044 17.502-19.865 3.253-40.52 5.376-60.665 5.376-60.926 0-149.627-20.963-197.927-61.118" style="fill:#fff;fill-opacity:1;fill-rule:evenodd;stroke:none" transform="matrix(1.33333 0 0 -1.33333 1.333 659.148)"></path><path d="M73.74 422.62c-5.075.977-8.37-.518-10.256-1.703-2.543-1.597-4.42-3.709-4.796-7.39-.315-3.142.564-6.18 2.471-9.217 1.035-1.647 2.76-3.938 5.392-4.941 1.971-.772 3.9-.565 5.528-.332l2.87.438c1.006.13 3.173.413 4.396.105.962-.257 1.784-.746 2.495-1.879.809-1.287.94-2.497.762-3.398-.288-1.545-1.307-2.472-2.128-2.987-1.271-.799-2.637-1.082-4.221-.929-1.094.103-2.945.591-4.192 1.029l.275-7.724c1.834-.643 4.436-1.234 6.38-1.234 2.402.001 4.35.723 6.32 1.96 1.804 1.133 5.138 3.658 5.553 8.369.272 2.755-.684 6.462-2.915 10.014-1.26 2.008-3.223 4.221-6.019 5.122-1.874.617-3.836.461-5.381.28l-2.665-.31c-2.396-.283-3.533-.567-4.675-.207-.7.206-1.294.695-1.811 1.518-.55.875-.747 1.828-.661 2.6.092 1.494 1.061 2.318 1.923 2.859.779.49 2.64 1.443 6.146.414zm25.208 14.815-16.8-7.154 15.885-37.306 16.801 7.154-3.096 7.271-9.938-4.231-3.525 8.277 9.447 4.024-3.095 7.27-9.448-4.023-3.073 7.215 9.938 4.232zm14.964 5.456-7.131-2.187 11.89-38.766 7.13 2.188-5.276 17.203 16.344-13.81 9.17 2.813-19.733 16.267 6.87 22.2-8.706-2.67-5.602-19.395zm34.612 9.296-7.354-1.25 6.798-39.975 7.353 1.25-2.884 16.961 12.702 2.16 2.884-16.96 7.354 1.25-6.797 39.974-7.354-1.25 2.588-15.223-12.702-2.16zm56.203 6.677-7.437-.566 1.804-23.702c.133-1.758.263-4.735-1.174-6.917-1.17-1.857-2.93-2.357-4.33-2.463-1.401-.107-3.216.12-4.654 1.78-1.75 1.939-2.073 4.902-2.207 6.66l-1.804 23.7-7.437-.566 1.822-23.943c.295-3.88 1.046-8.639 4.547-12.518 3.396-3.765 7.016-4.1 10.397-3.842 3.38.257 6.909 1.135 9.695 5.371 2.874 4.365 2.896 9.182 2.6 13.062zm16.396-.165-7.458.112-.614-40.543 7.458-.113.273 17.993 11.303-18.168 9.589-.145-13.77 21.549 13.366 19.01-9.105.137-11.298-16.73zm35.481-2.199-7.389 1.021-5.55-40.166 7.389-1.021 2.355 17.042 12.762-1.764-2.355-17.042 7.39-1.021 5.55 40.166-7.389 1.021-2.114-15.295-12.763 1.764zm56.776-11.728-7.2 1.95-6.21-22.944c-.461-1.702-1.333-4.552-3.416-6.13-1.723-1.36-3.548-1.243-4.904-.876s-2.99 1.187-3.792 3.23c-1.003 2.413-.318 5.314.143 7.016l6.21 22.943-7.2 1.95-6.274-23.179c-1.016-3.755-1.898-8.492.108-13.318 1.944-4.683 5.245-6.206 8.518-7.092 3.272-.886 6.891-1.235 10.932 1.827 4.165 3.155 5.794 7.69 6.811 11.445zm1.411-43.295 10.29 24.162 5.843-31.032 5.971-2.543 15.886 37.307-6.863 2.922-10.241-24.05-5.89 30.92-5.972 2.542-15.887-37.306zm63.709 12.588-15.464 9.712-21.566-34.337 15.464-9.712 4.203 6.693-9.147 5.745 4.786 7.618 8.696-5.461 4.203 6.692-8.696 5.462 4.17 6.64 9.147-5.744z" style="fill:#b30737;fill-opacity:1;fill-rule:nonzero;stroke:none" transform="matrix(1.33333 0 0 -1.33333 1.333 659.148)"></path><path d="M94.788 335.426c11.248-6.702 21.679-14.073 30.367-22.87l-29.617 10.31c9.708-4.58 18.299-10.054 25.68-16.495-12.71 3.689-24.475 6.362-33.928 6.56 8.778-2.831 17.801-7.504 24.252-11.731-7.767 2.062-16.33 4.31-22.003 4.046 13.993-3.73 23.23-7.659 25.119-11.622-14.797 3.203-27.883 5.53-45.102 6.5 16.263-3.991 32.232-10.367 45.935-17.381-9.113 1.481-19.77 2.795-28.65 2.184 8.508-1.118 15.604-3.592 20.855-7.036-9.83 1.415-20.937 1.982-33.327 2 10.362-1.039 20.499-2.493 26.44-5.16-13.377.917-27.026 1.602-38.075-.04 20.303-1.864 36.383-3.952 38.99-6.748-17.54-1.199-34.907-2.543-47.988-7.498 20.643 2.901 39.27.833 56.423-4.874a378 378 0 0 1-51.362-3.374l34.866-6.373-37.865-5.249c14.684-1.687 35.033-.622 44.051-5.061-6.291-4.124-22.62-8.248-33.929-12.372 12.345 2.645 24.172 4.887 32.617 4.499-10.407-3.496-24.766-11.319-44.239-24.744l29.993 11.06c-1.751-2.573-11.223-7.417-20.433-12.184 10.156 4.064 21.136 8.695 24.182 7.873l-31.492-19.683c24.668 10.835 40.931 16.288 49.3 17.246 6.487.838 7.209-1.045 5.06-4.687-2.692-6.958-12.507-17.316-1.763-19.418 3.749-.312 7.012-.14 10.761-.452 3.863.02 4.812 1.335 1.875 5.888-3.734 8.154.303 13.444 7.362 11.775 4.783-2.01 7.947-9.04 11.758-14.288 4.536-5.658 10.043-2.897 16.521-2.241 1.13 2.778-2.257 3.944-4.149 5.427-3.04 1.563-8.863 11.38 0 15.371 5.961 2.864 13.621 3.35 21.744 3.187-.468-9.768 1.13-17.421 7.338-24.233 3.376-2.787 11.112-1.333 14.986-.792.506 3.337-1.051 2.668-2.14 3.38-2.704 1.06-4.103 2.16-4.65 3.65-.124 1.937.15 3.874.025 5.81.948 2.598 1.966 5.22 5.061 8.623 1.208-1.263 1.84-3.295 2.25-5.623l1.5 5.249 2.623-7.124c.213 1.888.263 3.828 1.313 5.436 1.144-4.148 2.635-7.085 4.311-9.372-.922 2.54-1.478 5.038 0 7.31.855-1.088 1.443-2.533 1.5-4.686l2.249 2.624c2-2.218 3.376-4.748 4.311-7.497l1.313.562c3.149-4.378 7.508-7.471 15.446-9.987 4.437-.898 8.773-.399 13.21-.399 4.412.46 4.244 6.81-.188 8.4-2.562 1.187-4.226.778-7.286 3.86-4.749 5.268-6.352 8.562-1.312 12.56 3.354 2.475 8.09 2.188 13.308.937 5.421-1.81 7.051-6.016 12.372-3.937 7.122 4.627 8.851 14.288 3.937 20.245l-19.683 25.119c-1.684 22.155-6.331 41.933-14.67 59.284.968-6.124 1.113-12.109-.138-18.232-4.601 15.321-9.685 29.582-17.996 36.74 4.256-7.373 7.41-15.578 7.221-22.95-5.983 11.903-11.535 24.944-20.53 30.823 5.716-7.602 11.124-15.482 13.122-26.43-17.685 22.606-33.568 41.062-42.74 44.05 18.69-16.768 29.078-30.77 32.243-42.364-10.55 11.969-21.544 24.647-23.807 23.432 6.623-7.398 11.777-15.583 14.703-22.242-21.156 21.353-40.335 35.727-56.317 41.925 12.787-9.392 24.837-19.127 32.804-30.743-8.128 6.38-16.623 12.119-25.681 16.87 5.548-5.276 11.262-10.504 14.434-16.495-14.842 8.716-29.726 16.567-44.801 20.62 8.73-5.41 16.892-11.713 23.994-19.682l-17.059 7.31c3.562-2.75 7.124-5.935 10.685-8.684-12.202 5.405-24.589 10.765-37.49 14.308" style="fill:#b30737;fill-opacity:1;fill-rule:evenodd;stroke:none" transform="matrix(1.33333 0 0 -1.33333 1.333 659.148)"></path><path d="M162.48 276.061c-4.042 12.184-18.629 26.717-37.512 43.244 16.367-4.854 31.432-13.182 44.904-28.17 1.634 5.417-12.38 19.697-35.719 39.23 18.93-5.705 32.923-16.589 44.976-33.18-3.561 6.811-6.775 13.421-11.422 19.87 8.807-5.767 14.739-15.13 20.62-24.556l-6.561 14.809 9.935-11.997c-4.724 10.76-11.075 20.706-19.495 29.618 11.644-7.42 21.493-21.798 30.18-40.677 1.054 2.213-1.15 8.591-6.749 19.307 5.251-3.74 9.917-9.626 14.059-17.433l-2.812 10.872c4.142-3.454 6.887-8.772 8.81-15.183.479 5.363-.152 7.4-.782 10.961 6.974-9.61 11.567-21.628 14.466-33.83 1.607 4.057-1.5 11.996-2.249 17.995 3.595-5.43 6.479-11.59 5.999-24.058-1.925-3.355-6.045-2.62-7.072-.889-3.312 7.623-3.569 14.504-9.237 21.573 3.256-7.692 4.555-13.428 3.374-16.684-2.633 8.697-6.4 16.584-11.622 23.432 4.447-9.117 7.855-17.65 6.374-23.432-3.347.49-4.06 11.79-10.873 18.933 3.277-8.008 6.662-16.178 4.687-16.308-2.566-.624-6.103 16.495-15.184 24.743 8.355-15.454 9.52-19.978 8.623-21.37-1.82-.837-6.744 12.471-11.06 15.56 2.614-4.755 5.263-9.492 7.123-14.622-1.2-.735-3.099-1.87-4.997-.012-3.562 3.937-6.625 8.073-10.186 12.01 3.272-4.878 6.064-9.542 5.998-12.935-6.998-.313-20.18.273-20.994-.937 22.693-1.04 42.053-8.852 56.235-27.18 5.995-7.233 9.173-4.679 9.297-2.138-1.293 10.505 2.301 7.943 4.2 9.073-2.837 1.249-4.65.304-5.624-2.437-3.754 5.79 5.338 8.8 7.57 3.76 6.366.389 16.124-6.19 24.684-20.132-2.285-5.836-1.474-10.792 2.624-13.17-1.64-4.587-5.948-7.817-9.384-5.886-12.5 8.69-16.043 4.895-20.807 6.935-5.655 2.468-9.01 7.235-10.685 13.684-.716-9.357.522-17.319 4.874-23.056 3.94-7.463 7.15-11.253 9.56-11.997 8.151-1.9 8.725-6.919 3.561-7.123-3.874-.249-6.551 0-10.325.25-6.501.995-13.092 4.792-16.668 11.371l-3.936 11.06.562-8.06c-4.526 4.182-3.624 11.622-5.436 17.433-1.373-4.684-.99-7.614-.188-10.123-2.946 2.894-3.516 8.463-3.561 14.622-1.185-4.373-1.374-8.148-.75-11.435-3.282 2.864-4.323 8.288-5.061 14.059l-.188-9.748c-2.619 2.507-3.275 7.958-2.999 14.81-.824-5.124-1.387-10.248-1.124-15.372-3.147 2.377-4.064 6.32-4.292 12.347-.85-3.053-.874-4.977-.602-10.071-1.743 5.428-2.97 13.567-.73 21.53-2.493-4.873-3.932-10.29-4.977-15.163-1.618 3.392-2.438 8.575.29 17.038-2.959-4.639-3.566-7.71-4.31-10.872l-1.126 5.061c-1.127-3.934-2.825-7.297-5.06-10.122.937 4.186 2.428 8.095 3.366 12.282-1.946-4.202-4.614-7.113-6.928-9.096l3.936 9.56-9.747-12.371 3.936 9.56c-3.686-4.75-6.559-9.77-10.245-14.518 1.295 4.311 2.795 8.894 5.184 13.206l-8.81-8.061c1.011 3.861 4.788 8.887 9.153 14.984-5.811-5.312-11.215-9.673-17.026-14.984l7.498 10.31c-5.186-3.374-11.187-7.562-16.373-10.937.64 1.732 4.506 5.655 7.75 8.875l-20.807-10.31c1.137 3.08 4.932 6.486 10.413 10.652-20.557-4.898-40.843-10.142-61.4-17.213 14.544 9.551 31.376 16.212 50.987 18.164-10.905 1.231-20.995-.793-31.492-.918 9.974 5.16 20.218 6.27 30.555 5.998-11.342 2.93-28.437 5.053-48.466 5.45 12.258 2.804 28.207 3.496 45.175 1.499-20.82 5.388-35.314 7.016-49.57 8.422 18.957 3.53 39.242 2.13 60.734-3.749-14.097 8.946-27.868 13.302-49.204 15.371 19.937 3.006 35.044 3.017 52.81-.853-8.434 5.006-18.43 8.716-27.225 11.913l9.747.375c-3.87 2.875-9.278 5.366-14.621 7.873 18.962-2.05 35.457-9.282 50.8-18.933-1.2 5.124-29.806 17.785-60.173 30.93 11.494 1.105 27.54-3.56 45.548-12.95-7.841 10.943-19.92 18.909-33.55 25.51 14.376-.325 34.119-9.92 56.82-30.873" style="fill:#fff;fill-opacity:1;fill-rule:evenodd;stroke:none" transform="matrix(1.33333 0 0 -1.33333 1.333 659.148)" data-source="https://football-logos.cc"></path><path d="m62.404 334.63 12.106-2.281-.526-2.807zm75.095-187.913-6.141-8.422 8.07 7.194zm-17.195 26.494-13.335-12.633 15.265 10.878zM65.562 358.14l10.176-4.387v2.282zM306.989 161.28l-1.58-1.755 7.195-7.019zm59.83 195.984 1.404-2.106 3.685 3.158zm-.526-29.477.351-2.456 14.037 4.21zm-4.211-32.284v-2.807l21.055 1.404zm.877-29.125-.35-2.457 18.598-1.053zm-7.369-29.302-1.228-2.105 18.072-6.492zm-14.036-23.16-1.58-2.105 19.827-10.001zM324.71 187.95l-1.93-1.93 14.738-11.931z" style="fill:#231f20;fill-opacity:1;fill-rule:evenodd;stroke:none" transform="matrix(1.33333 0 0 -1.33333 1.333 659.148)"></path><path d="M269.36 361.593c48.319 0 87.489-39.17 87.489-87.489s-39.17-87.489-87.489-87.489c-5.999 0-11.856.605-17.516 1.756-1.166 2.067-2.928 4.23-2.928 4.23l-10.37 3.228.166 1.262c8.503-3.264 18.243-5.513 26.746-5.51-2.153.86-4.108 2.513-5.93 4.694 9.647 4.117 14.772 11.73 12.448 25.1a184.7 184.7 0 0 0-15.51 28.978l-8.367.816c-1.403 21.799-5.603 40.24-12.448 55.508l2.245 5.306 18.366 5.917c1.56 8.027 6.195 15.238 12.652 23.264l-19.386 13.673c-15.246-4.222-28.357-12.104-39.794-22.856-2.695-.077-3.167 1.22-3.526 2.667 15.923 16.605 38.33 26.945 63.152 26.945m5.064-168.788 28.774 7.143 3.266-.613c-20.708-7.351-28.223-7.895-32.04-6.53m36.633 152.516-.826-2.976c8.896-8.294 16.564-16.724 21.49-25.458 4.21-1.523 7.696-3.768 10.581-6.613l.827 2.314c-8.676 14.268-19.428 25.078-32.072 32.733m23.16-94.56c5.439 1.535 10.547 3.567 14.897 6.735-1.765-19.082-14.012-37.176-31.019-50.814l-3.06 14.897c8.712 9.212 15.368 18.881 19.182 29.182m-73.912.825c4.696-10.397 9.92-20.002 15.705-28.766 12.123-.751 24.247-1.046 36.37-.165 6.902 9.47 12.916 19.53 18.185 30.088-4.547 10.773-9.642 20.997-16.367 29.592-10.698-.362-21.655.052-32.898 1.322zm-.155 64.643c2.97 8.106 6.757 15.842 13.254 23.507 10.748 1.712 21.495 1.987 32.243.612 8.06-6.65 15.143-15.566 22.321-25.305-4.337-11.482-8.907-21.087-14.566-28.161-10.544-1.14-21.253-.335-31.796.291-7.483 9.796-13.974 19.26-21.456 29.056" style="fill:#b30737;fill-opacity:1;fill-rule:evenodd;stroke:none" transform="matrix(1.33333 0 0 -1.33333 1.333 659.148)"></path><path d="M239.955 200.875c.289-.185.948-.185 1.65-.267.7-.083 1.442-.248 2.122-.557s1.299-.763 1.814-1.072.928-.474 1.381-.412c.454.062.949.35 1.031.515.083.165-.247.206-.804.392-.556.185-1.34.515-1.793.865-.454.35-.578.722-.97.949-.39.226-1.05.309-1.854.37-.804.063-1.752.104-2.268-.061s-.598-.536-.309-.722" style="fill:#b30737;fill-opacity:1;fill-rule:evenodd;stroke:none" transform="matrix(1.33333 0 0 -1.33333 1.333 659.148)"></path><path d="m181.11 401.71-4.635-.855 2.472-13.405c.183-.994.433-2.685-.345-4.034-.63-1.144-1.705-1.555-2.578-1.716-.873-.16-2.025-.16-3.02.684-1.209.982-1.579 2.651-1.762 3.645l-2.473 13.405-4.635-.855 2.498-13.542c.405-2.194 1.145-4.858 3.561-6.823 2.344-1.907 4.635-1.84 6.742-1.45 2.106.388 4.27 1.142 5.78 3.76 1.556 2.697 1.297 5.45.892 7.644zm13.36-21.913-1.248 15.008 12.288-14.09 4.087.34-1.926 23.172-4.697-.39 1.242-14.939-12.283 14.021-4.087-.34 1.926-23.172zm19.493 24.365.211-23.251 4.713.042-.21 23.252zm21.93-5 .208 4.527-13.575.62-.207-4.526 4.433-.203-.856-18.701 4.709-.216.855 18.701zm15.467 3.116-11.479 1.174-2.365-23.132 11.478-1.173.461 4.508-6.79.694.526 5.133 6.454-.66.462 4.508-6.456.66.458 4.474 6.79-.694zm5.658-.707-4.217-22.867 6.501-1.199c1.686-.31 5.191-.709 8.549 1.969 2.002 1.58 3.567 3.985 4.23 7.585.658 3.566.038 6.445-1.377 8.727-1.97 3.163-4.686 4.125-7.335 4.614zm3.814-5.312 1.234-.227c1.414-.261 3.326-.862 4.515-2.854.618-1.035 1.2-2.773.745-5.242-.468-2.537-1.701-4.33-2.974-5.158-1.77-1.162-3.897-.877-4.86-.7l-1.234.228zM210.503 148.653h-13.04v-26.6h5.428v11.087h7.048v5.184h-7.048v5.145h7.612zm20.97-18.703c-2.079-2.314-3.982-2.752-5.392-2.752a6.77 6.77 0 0 0-5.075 2.233c-1.057 1.157-2.044 3.11-2.044 5.862 0 2.553.916 4.706 2.22 6.142 1.234 1.356 2.82 2.074 4.793 2.074 2.503 0 4.3-1.396 5.499-2.832v7.099c-2.291 1.116-4.089 1.476-5.64 1.476-3.665 0-6.696-1.556-8.775-3.829-2.115-2.313-3.665-5.823-3.665-10.01 0-4.267 1.55-7.777 3.665-10.09 1.974-2.193 4.899-3.868 9.234-3.868 1.41 0 3.101.24 5.18 1.436zM132.15 122.814l-17.426-17.566 5.753-5.708c.94-.932 2.878-2.646 5.524-2.501 1.275.093 2.968.608 4.719 2.372 1.541 1.554 2.052 3.032 2.123 4.112.077 1.178-.33 2.418-.933 3.277.55-.18 1.442-.334 2.564.017 1.17.354 2.045 1.054 2.725 1.738.757.764 2.106 2.352 2.191 4.41.089 2.473-1.739 4.39-2.564 5.21zm.348-6.618.55-.545c.642-.637 1.33-1.32 1.39-2.267.04-.51-.109-1.303-.867-2.066-.757-.764-1.578-.995-2.16-.94-.922.079-1.803.796-2.284 1.274l-.574.568zm-6.923-6.978.963-.955c.71-.705 1.903-1.888 1.869-3.16-.006-.465-.225-1.189-.93-1.9-.627-.632-1.307-.95-1.967-.974-1.322-.048-2.425.994-3.319 1.882l-.848.84zM138.782 82.4l3.837-3.46 10.263 24.062-3.381 3.049-23.02-12.557 3.836-3.46 4.353 2.368 6.043-5.45zm-.101 12.28 7.555 4.375-3.599-7.944zm21.271 2.011L144.487 77.38l6.327-5.067c1.033-.827 3.142-2.326 5.757-1.902 1.259.229 2.888.92 4.441 2.86 1.368 1.708 1.72 3.232 1.676 4.313-.048 1.18-.585 2.37-1.276 3.16.566-.12 1.47-.18 2.548.289 1.127.476 1.923 1.264 2.525 2.017.673.84 1.846 2.562 1.713 4.617-.175 2.468-2.195 4.181-3.103 4.908zm1.05-6.542.604-.485c.706-.565 1.462-1.17 1.622-2.107.094-.502.03-1.306-.643-2.146s-1.464-1.156-2.049-1.163c-.925-.02-1.877.6-2.406 1.024l-.63.505Zm-6.146-7.673 1.059-.848c.781-.626 2.092-1.675 2.193-2.944.043-.462-.097-1.206-.723-1.987-.557-.695-1.199-1.084-1.853-1.178-1.309-.187-2.516.732-3.5 1.52l-.932.746zm19.46 2.925-14.66-19.932 4.006-2.946 14.66 19.932zm-1.901-28.932 8.443 13.62 1.492-19.779 3.678-2.28 13.036 21.03-4.227 2.62-8.404-13.557-1.53 19.716-3.678 2.28-13.037-21.03zm31.135-16.89 4.674-2.202 2.864 26.002-4.12 1.94-18.403-18.68 4.674-2.202 3.482 3.526 7.361-3.468zm-3.65 11.725 5.967 6.374-1.146-8.645zM241.664 45.652l-7.681 14.064 17.726-8.578 3.718 2.03-11.859 21.715-4.273-2.333 7.645-14-17.69 8.514-3.72-2.031 11.86-21.715zm12.91 37.763c-3.376-2.506-4.311-5.649-4.459-7.838-.197-2.918.857-6.617 2.98-9.476 2.166-2.92 5.172-4.846 8.123-5.427 2.33-.488 5.594-.375 8.767 1.98 2.844 2.111 4.136 4.826 4.383 7.782.28 3.442-.919 6.756-2.886 9.406-2.278 3.068-5.265 4.916-8.213 5.546-3.138.673-6.054-.013-8.695-1.973m3.115-4.248c1.548 1.15 3.447 1.404 4.992 1.072 1.425-.328 3.264-1.32 4.79-3.375 1.702-2.293 1.929-4.296 1.821-5.53-.104-1.557-.77-3.206-2.497-4.487-1.32-.98-2.848-1.468-4.846-1.057-1.926.419-3.517 1.501-4.865 3.318-1.636 2.204-1.959 4.23-1.841 5.61.118 1.75.973 3.356 2.446 4.449m11.451 15.305-3.608-3.269 16.612-18.337 3.608 3.27-7.371 8.137 12.972-3.064 4.64 4.203-15.56 3.472-1.545 14.419-4.405-3.99 1.581-12.484zm16.83 17.171c-2.892-3.052-3.27-6.309-3.038-8.49.31-2.908 1.987-6.37 4.572-8.82 2.639-2.5 5.932-3.879 8.94-3.94 2.38-.078 5.574.597 8.293 3.465 2.436 2.57 3.24 5.468 2.972 8.422-.319 3.438-2.073 6.495-4.469 8.766-2.773 2.628-6.034 3.932-9.047 4.043-3.207.121-5.96-1.059-8.223-3.446m3.802-3.646c1.327 1.4 3.152 1.978 4.732 1.92 1.46-.078 3.442-.737 5.3-2.498 2.073-1.964 2.643-3.898 2.75-5.132.166-1.551-.205-3.29-1.684-4.851-1.131-1.194-2.552-1.938-4.591-1.879-1.969.08-3.723.872-5.366 2.428-1.992 1.888-2.659 3.827-2.782 5.207-.186 1.745.38 3.474 1.64 4.805" style="fill:#b30737;fill-opacity:1;fill-rule:nonzero;stroke:none" transform="matrix(1.33333 0 0 -1.33333 1.333 659.148)"></path><path d="M246.467 232.915c-.26-.3-.26-.86-.1-1.08s.48-.1.88-.16.88-.3 1.16-.64.36-.78.3-1.26-.26-1-.5-1.24-.52-.2-.68-.32-.2-.4.02-.52.7-.08 1.3-.141 1.32-.22 1.74-.24.54.1.68.46.3.96.14 1.72-.64 1.681-1.3 2.341-1.5 1.06-2.18 1.24-1.2.14-1.46-.16" style="fill:#b30737;fill-opacity:1;fill-rule:evenodd;stroke:none" transform="matrix(1.33333 0 0 -1.33333 1.333 659.148)" data-source="https://football-logos.cc"></path><!-- source: https://football-logos.cc --></svg>