<svg xmlns="http://www.w3.org/2000/svg" xml:space="preserve" viewBox="0 0 361.29 415.4"><!-- Source: https://football-logos.cc --><defs data-source="https://football-logos.cc"><clipPath id="a" clipPathUnits="userSpaceOnUse"><path d="M0 0h2709.68v3115H0Z"></path></clipPath></defs><g clip-path="url(#a)" transform="matrix(.13333 0 0 -.13333 0 415.4)" data-source="https://football-logos.cc"><path d="M2538.5 1543.91c0-652.39-532.13-1181.262-1188.63-1181.262-656.452 0-1188.604 528.872-1188.604 1181.262 0 652.42 532.152 1181.31 1188.604 1181.31 656.5 0 1188.63-528.89 1188.63-1181.31" style="fill:#fff;fill-opacity:1;fill-rule:evenodd;stroke:none"></path><path d="M1215.81 2729.86V370.25l-254.74 56.281V2664.68z" style="fill:#ed1c24;fill-opacity:1;fill-rule:evenodd;stroke:none"></path><path d="M1215.81 2729.86V370.25l-254.74 56.281V2664.68z" style="fill:none;stroke:#ed1c24;stroke-width:5.66929007;stroke-linecap:butt;stroke-linejoin:miter;stroke-miterlimit:2.41420007;stroke-dasharray:none;stroke-opacity:1"></path><path d="M694.516 2513.61V560.051L574.531 662.469 439.781 798.93v1502.1l123.285 115.18z" style="fill:#ed1c24;fill-opacity:1;fill-rule:evenodd;stroke:none"></path><path d="M694.516 2513.61V560.051L574.531 662.469 439.781 798.93v1502.1l123.285 115.18z" style="fill:none;stroke:#ed1c24;stroke-width:5.66929007;stroke-linecap:butt;stroke-linejoin:miter;stroke-miterlimit:2.41420007;stroke-dasharray:none;stroke-opacity:1"></path><path d="m1494.69 2729.86 254.75-72.2V431.781l-254.75-54.492z" style="fill:#ed1c24;fill-opacity:1;fill-rule:evenodd;stroke:none"></path><path d="m1494.69 2729.86 254.75-72.2V431.781l-254.75-54.492z" style="fill:none;stroke:#ed1c24;stroke-width:5.66929007;stroke-linecap:butt;stroke-linejoin:miter;stroke-miterlimit:2.41420007;stroke-dasharray:none;stroke-opacity:1"></path><path d="M2272.43 2279.94V797.141l-140-133.7-116.27-89.359 1.55 1941.278 122.53-97.54z" style="fill:#ed1c24;fill-opacity:1;fill-rule:evenodd;stroke:none"></path><path d="M2272.43 2279.94V797.141l-140-133.7-116.27-89.359 1.55 1941.278 122.53-97.54z" style="fill:none;stroke:#ed1c24;stroke-width:5.66929007;stroke-linecap:butt;stroke-linejoin:miter;stroke-miterlimit:2.41420007;stroke-dasharray:none;stroke-opacity:1"></path><path d="M1355.24 3115.5c562.59 0 1056.09-296.15 1333.3-740.96 35.02-54.1 23.89-78.58-14.1-103.99l-276.7-170.02c-198.05 373.78-590.57 625.01-1042.5 625.01-451.916 0-843.642-253.62-1042.099-626.11L34.004 2268.68c-48.66 29.48-36.785 66.92-15.555 100.33 276.571 447.9 771.832 746.47 1336.791 746.49" style="fill:#155196;fill-opacity:1;fill-rule:evenodd;stroke:none"></path><path d="m2396.72 2128.57 264.41 162.73c7.71 5.14 19.78 13.89 22.9 22.9 4.75 13.41-9.38 36.51-16.16 46.96l-.23.36c-282.54 453.36-776.65 729.33-1312.4 729.33-538.006 0-1034.025-278.39-1315.94-734.98-17.554-27.6-24.03-47.05 7.462-66.13l268.492-162.67 15.625 21.91-4.645-.01L59.551 2310.8c-16.211 9.8-8.301 17.98.566 31.93 277.828 449.92 766.231 723.5 1295.123 723.5 526.6 0 1013.15-271.08 1291.53-717.78l.34-.5c1.82-2.79 5.29-8.43 8.25-14.11 6.74-12.99 4.37-13.76-7.57-21.84l-263.39-161.81z" style="fill:#f4bf17;fill-opacity:1;fill-rule:evenodd;stroke:none"></path><path d="M2274.67 303.34C2017.71 112.832 1699.7 0 1355.24 0c-320.46 0-618.127 97.71-864.959 264.801-61.144 42.39-58.738 79.687-28.207 121.98l160.731 233.41c201.257-159.492 455.725-254.902 732.435-254.902 296.05 0 566.65 109.16 773.86 289.313l173.11-224.543c40.08-49.77 26.43-85.399-27.54-126.719" style="fill:#155196;fill-opacity:1;fill-rule:evenodd;stroke:none"></path><path d="M635.559 595.68 482.066 372.34c-7.511-10.379-16.539-24.988-16.347-38.328.293-20.262 23.636-38.621 38.383-48.821C756.184 114.551 1050.89 24.648 1355.24 24.648c326.89 0 642.15 103.762 904.57 298.352 14.27 11.012 38.58 31.082 40.75 50.621 1.65 14.598-8.8 30.25-17.54 40.969l-.31.449-163.47 211.441-19.87-14.101 163.92-212.469.48-.621c3.4-4.187 13.03-17.008 12.34-22.859-1.1-9.66-23.96-28.2-31.18-33.719C1986.84 151.238 1676.69 49.27 1355.24 49.27c-299.3 0-589.334 88.46-837.248 256.23-6.137 4.23-27.519 20.191-27.64 28.891-.071 6.418 8.117 18.589 11.668 23.539l154.507 224.031z" style="fill:#f4bf17;fill-opacity:1;fill-rule:evenodd;stroke:none"></path><path d="M1355.24 2290.45c411.35 0 744.98-333.63 744.98-745.03 0-411.36-333.63-745.022-744.98-745.022-411.396 0-745.006 333.662-745.006 745.022 0 411.4 333.61 745.03 745.006 745.03" style="fill:#155196;fill-opacity:1;fill-rule:evenodd;stroke:none"></path><path d="m1068.3 1560.71-.41-15.29c0-153.4 120.42-278.82 271.86-286.89l15.49-.45c153.72 0 279.27 120.77 286.97 272.48l.34 14.86c0 153.68-120.74 279.24-272.48 286.98l-14.83.36c-153.56 0-278.97-120.5-286.94-272.05m67.01-634.19c-43.48 71.679-76.21 148.51-98.98 230.03-37.529 134.57-55.838 296.87-37.014 437.2 12.424 92.46 60.064 173.77 128.944 230.02-48.12-6.22-95.84-15.56-142.647-28.62-92.996-25.92-179.273-65.9-258.347-121.36l-18.653-13.1a660 660 0 0 1-10.14-115.27c0-285.49 182.297-528.48 436.837-618.9m838.87 399.01c-71.75-43.49-148.52-76.25-230-99.01-136.35-37.96-311.62-60.31-453.8-34.35-85.58 15.58-160.54 61.54-213.42 126.24 6.23-48.12 15.53-95.74 28.57-142.54 25.94-93.03 65.9-179.331 121.38-258.401l13.12-18.699c37.41-6.641 75.91-10.11 115.21-10.11 285.52 0 528.45 182.36 618.94 436.87m-398.97 838.83c43.45-71.72 76.22-148.51 98.97-229.99 38.85-139.48 67.01-339.56 27.51-483.94-19.98-73.02-62.44-136.73-119.4-183.28 48.09 6.22 95.82 15.58 142.57 28.6 93.03 25.96 179.26 65.84 258.36 121.33l18.67 13.14c6.64 37.4 10.11 75.94 10.11 115.2 0 285.5-182.28 528.48-436.79 618.94m-189.61-261.04c99.84-8.35 188.05-57.59 247.91-130.9-6.22 48.17-15.5 95.85-28.54 142.65-25.92 93.03-65.87 179.29-121.4 258.38l-13.09 18.63a661 661 0 0 1-115.24 10.11c-285.49 0-528.463-182.27-618.916-436.76 71.699 43.47 148.488 76.18 230.024 98.92 133.042 37.12 281.192 50.51 419.252 38.97m-30.36 370.69c402.35 0 728.58-326.23 728.58-728.59 0-402.31-326.26-728.51-728.58-728.51-402.318 0-728.568 326.2-728.568 728.51 0 402.36 326.25 728.59 728.568 728.59" style="fill:#f4bf17;fill-opacity:1;fill-rule:evenodd;stroke:none"></path><path d="M1355.24 2706.29c641.02 0 1160.88-519.85 1160.88-1160.87 0-641.01-519.86-1160.881-1160.88-1160.881-641.041 0-1160.849 519.871-1160.849 1160.881 0 641.02 519.808 1160.87 1160.849 1160.87m0 41.05c663.71 0 1201.9-538.2 1201.9-1201.92 0-663.67-538.22-1201.889-1201.9-1201.889-663.678 0-1201.9 538.219-1201.9 1201.889 0 663.72 538.222 1201.92 1201.9 1201.92" style="fill:#155196;fill-opacity:1;fill-rule:evenodd;stroke:none"></path><path d="M1243.04 1676.71c-15.59 0-27.06 3.28-34.59 9.71s-11.33 16.17-11.33 29.24c0 13.53 3.7 23.48 11.04 29.7 7.34 6.24 18.91 9.41 34.88 9.41h192.03c29.77 0 49.74-3.43 59.78-10.1 10.11-6.7 15.17-18.37 15.17-34.92 0-5.08-.97-10.22-2.82-15.17-1.99-5.05-5.47-9.59-9.01-14.66l-193.1-276.79 164.8-1.72c16.03-.21 27.85-3.17 35.52-9.39 7.71-6.22 11.55-15.89 11.55-28.98 0-13.34-3.84-23.17-11.41-29.46-7.63-6.22-19.53-9.32-35.66-9.32h-200.16c-26.56 0-45.03 3.44-55.45 10.34-10.35 6.85-15.56 18.85-15.56 35.83 0 5.57.93 10.9 2.77 15.78 1.79 4.85 4.93 9.42 8.46 14.54l187.32 275.96z" style="fill:#f4bf17;fill-opacity:1;fill-rule:evenodd;stroke:none"></path><path d="m2395.41 2372.86 40.29 73.81-78.39-30.06zm-11.65-114.75-30.61 35.26 24.24 45.67-55.73 64.07-47.89-18.47-29.83 34.37 214.6 76.91 29.73-34.23zm-283.74 286.13 136.55 162.72 32.81-27.57-60.62-72.25 127 16.57 44.18-37.08-114.45-11.98-18.74-153.54-42.53 35.68 19.39 113.89-49.51-4.85-41.22-49.15zm-121.91 78.38 36.54 222.61 40.7-22.58-29.22-163.53 121.71 112.29 39.81-22.08-169.56-148.9zm-187.92 201.63c-8.64-22.45-9.95-41.5-4.07-57.05 5.99-15.59 16.92-26.41 32.84-32.53 15.98-6.12 31.28-5.42 45.93 2.18 14.64 7.6 26.37 22.83 35.24 45.83 8.7 22.73 10.21 41.59 4.57 56.63-5.67 14.97-16.78 25.66-33.21 31.99-16.57 6.34-32.05 5.77-46.48-1.67-14.44-7.44-26.06-22.52-34.82-45.38m-41.74 14.47c7.73 20.25 17.25 36.03 28.56 47.43 8.39 8.32 18.02 15.06 28.92 20.1 10.83 5 21.69 7.66 32.45 7.99 14.4.5 29.64-2.36 45.76-8.58 29.26-11.2 49.17-29.22 59.72-54.11 10.59-24.84 9.73-53.39-2.68-85.68-12.31-32.06-30.67-53.72-55.01-65.13-24.3-11.38-51.09-11.5-80.17-.35-29.47 11.36-49.48 29.35-60.03 54-10.49 24.68-9.66 52.81 2.48 84.33m-68.25 127.19 41.7-9.62-30.29-131.04c-3.91-17.09-8.48-29.93-13.64-38.46-6.82-11.12-16.37-19.1-28.68-23.93-12.34-4.84-27.19-5.24-44.59-1.2-20.45 4.7-34.87 13.99-43.25 28.02-8.35 13.96-10.07 32.03-4.99 54.15l40.41-4.56c-2.28-11.98-2.45-20.73-.63-26.35 2.85-8.46 8.88-13.77 18.09-15.9 9.28-2.13 16.53-1.01 21.59 3.44 5.09 4.42 9.56 15 13.41 31.8zm-309.91-67.93c-1.68-24 2.57-42.58 12.8-55.73 10.22-13.17 23.82-20.34 40.9-21.5 17.03-1.21 31.47 3.93 43.32 15.48 11.76 11.55 18.5 29.57 20.19 54.13 1.72 24.28-2.34 42.75-12.14 55.49-9.83 12.69-23.55 19.65-41.19 20.87s-32.25-3.85-43.92-15.18c-11.58-11.33-18.29-29.14-19.96-53.56m-44.19 1.63c1.51 21.63 6 39.5 13.49 53.7 5.56 10.42 12.79 19.69 21.75 27.68 8.95 7.96 18.47 13.68 28.69 17.14 13.65 4.69 29.01 6.39 46.28 5.19 31.25-2.2 55.52-13.62 72.95-34.3 17.36-20.66 24.86-48.27 22.45-82.73-2.4-34.25-13.58-60.32-33.56-78.37-19.94-18-45.51-25.94-76.56-23.76-31.52 2.2-55.94 13.6-73.18 34.07-17.24 20.55-24.66 47.69-22.31 81.38m-185.27-.86 31.46 3.85c20.38 2.49 33.05 4.9 37.96 7.26 4.82 2.34 8.46 5.81 10.83 10.37 2.34 4.58 3.19 10.03 2.38 16.38-.86 7.09-3.51 12.56-7.79 16.48-4.33 3.89-10.02 5.96-17.11 6.3-3.47.03-13.85-.99-31.12-3.1l-33.2-4.09zm-27.68-126.93-25.89 210.82 89.63 11.02c22.53 2.75 39.14 2.87 49.78.32 10.68-2.5 19.72-8.25 27.04-17.15 7.31-8.97 11.72-19.65 13.26-32.11 1.94-15.8-1.14-29.49-9.11-40.93-8.05-11.4-21.19-19.65-39.37-24.57 9.9-4.26 18.22-9.21 25.03-14.92 6.75-5.69 16.21-16.09 28.38-31.23l30.82-37.98-50.91-6.25-36.41 42.11c-12.93 15.06-21.66 24.47-26.22 28.23-4.56 3.78-9.16 6.13-13.91 7.22-4.72 1.01-11.91.92-21.74-.29l-8.58-1.05 10.8-88.02zm-188.494 44.16 14.735-54.86 38.265 10.29c14.973 4 24.324 6.92 28.104 8.85 5.9 2.75 10.18 6.86 12.86 12.2 2.72 5.37 3.11 11.73 1.15 19-1.66 6.15-4.56 10.95-8.68 14.47-4.16 3.48-9.3 5.5-15.469 5.93-6.152.43-18.668-1.87-37.492-6.91zm-21.863 81.6 12.703-47.46 27.145 7.27c16.144 4.35 26.093 7.25 29.91 8.8 6.859 2.7 11.773 6.64 14.75 11.77 2.992 5.15 3.574 11.06 1.769 17.72-1.683 6.32-4.797 11.03-9.347 14.05-4.59 3.03-10.453 4.03-17.52 3-4.265-.62-16.09-3.56-35.617-8.79zm-50.605 23.05 82.031 21.99c16.246 4.35 28.515 6.91 36.926 7.67 8.296.81 16.191-.12 23.652-2.72 7.443-2.61 14.173-6.89 20.303-12.95 6.1-5.98 10.38-13.44 12.73-22.29 2.59-9.61 2.34-19.13-.65-28.53-3.04-9.42-8.47-17.32-16.23-23.71 13.44-.29 24.76-3.92 33.82-10.86 9.06-6.98 15.18-16.42 18.36-28.25 2.49-9.33 2.78-18.98.77-28.98-1.98-9.95-5.98-18.63-12.08-25.89-6.11-7.27-14.5-12.99-25.19-17.19-6.7-2.56-23.24-7.51-49.626-14.76l-69.848-18.72zM728.5 2625.21l-17.547 34.46 36.875 173.43-88.187-44.95-16.317 32.04 138.555 70.58 15.109-29.68-38.625-180.5 107.676 54.87 16.281-31.89zm-167.117-18 40.824 15.21c9.281-22.23 11.531-42.29 6.773-60.32-4.742-17.95-16.125-34-34.109-48.03-22.191-17.36-46.41-24.05-72.559-20.05-26.175 4.05-49.585 19.19-70.117 45.5-21.773 27.87-31.457 55.14-29.152 81.8 2.34 26.63 15.25 49.13 38.695 67.44 20.453 15.98 41.821 22.95 64.082 20.83 13.203-1.17 26.922-7.02 41.227-17.45l-27.246-34.12c-8.715 7.15-18.207 10.8-28.469 10.88-10.215.12-19.785-3.35-28.742-10.36-12.41-9.68-19.031-22-19.77-36.96-.789-14.92 6.653-32.33 22.242-52.31 16.54-21.18 32.083-33.28 46.692-36.29 14.664-3.06 28.07.19 40.258 9.71 8.957 7.03 14.492 15.88 16.468 26.66 2.012 10.75-.378 23.37-7.097 37.86m-182.785-276.33-152.77 147.54 101.129 104.77 25.875-24.96-71.34-73.9 36.113-34.91 61.649 63.79 25.851-24.96-61.574-63.79 64.91-62.71zM1688.58 250.801c5.95-20.692 15.31-35.031 27.92-43.031 12.69-7.95 26.37-9.77 41.13-5.579 14.7 4.2 25.33 13 31.73 26.411 6.35 13.269 6.56 30.519.47 51.796-6.01 21.012-15.08 35.313-27.25 43.051-12.21 7.699-25.93 9.352-41.16 4.949-15.3-4.296-26.06-13.066-32.42-26.269-6.29-13.09-6.5-30.18-.42-51.328m-37.74-12.172c-5.36 18.742-7.08 35.172-5.09 49.48 1.48 10.45 4.75 20.493 9.8 30.012 5.12 9.391 11.41 17.219 18.97 23.238 10.04 8.18 22.49 14.313 37.44 18.602 27.02 7.777 51.03 5.539 72.03-6.531 21.04-12.071 35.82-33.078 44.39-62.918 8.46-29.602 7.05-55.071-4.27-76.391-11.31-21.281-30.42-35.832-57.3-43.562-27.27-7.739-51.3-5.68-72.17 6.3-20.87 12.063-35.45 32.692-43.8 61.77m-229.22-126.551-16.63 189.91 37.33 3.301 88.87-120.039-11.1 126.781 35.65 3.168 16.6-189.91-38.5-3.437-87.42 117.23 10.86-123.902zm-218.64 118.781 28.33-2.468c18.42-1.582 30-1.832 34.69-.692 4.71 1.141 8.55 3.5 11.47 7.121 2.92 3.539 4.66 8.18 5.12 13.852.58 6.469-.67 11.719-3.75 15.988-3.05 4.192-7.66 7.121-13.8 8.699-3.06.661-12.36 1.723-27.95 3.063l-29.88 2.637zm-47.96-106.269 16.59 189.988 80.78-7.047c20.28-1.851 34.86-4.84 43.78-9.039 8.91-4.16 15.73-10.902 20.53-20.113 4.76-9.289 6.6-19.418 5.62-30.668-1.24-14.231-6.48-25.652-15.65-34.242-9.16-8.5-22.26-13.27-39.14-14.199 7.93-5.61 14.31-11.508 19.19-17.77 4.88-6.219 11.22-17.16 19.08-32.738l20.01-39.09-45.85 3.988-24.15 43.801c-8.56 15.648-14.46 25.551-17.74 29.668-3.28 4.133-6.95 7.121-10.86 8.871-3.94 1.859-10.29 3.059-19.14 3.879l-7.75.703-6.93-79.363zM955.879 256.789l-14.016-48.957L976.074 198c13.34-3.82 21.918-5.922 25.716-6.148 5.79-.661 10.99.539 15.54 3.398 4.55 2.922 7.81 7.629 9.68 14.09 1.56 5.469 1.54 10.551 0 15.121-1.6 4.648-4.64 8.57-9.14 11.758-4.56 3.172-15.27 7.16-32.1 12zm20.937 72.883-12.171-42.352 24.238-6.988c14.437-4.121 23.447-6.461 27.077-7.043 6.51-1.07 12.13-.309 16.81 2.231 4.64 2.621 7.82 6.851 9.52 12.832 1.64 5.636 1.41 10.718-.7 15.16-2.12 4.398-6.16 7.867-12.11 10.347-3.52 1.473-14.02 4.77-31.437 9.731zM948.5 370.82l73.3-21c14.47-4.191 25.17-7.871 31.94-11.179 6.77-3.231 12.41-7.551 16.95-13.02 4.52-5.473 7.75-11.871 9.63-19.359 1.94-7.364 1.75-15.133-.5-23-2.44-8.633-7.05-15.821-13.67-21.703-6.72-5.84-14.56-9.418-23.44-10.758 10.19-6.391 17.2-14.403 20.95-23.922q5.64-14.386 1.08-30.231c-2.39-8.32-6.63-15.878-12.79-22.648-6.13-6.738-13.23-11.59-21.3-14.371-8.02-2.707-17.15-3.231-27.33-1.508-6.324 1.059-21.332 4.949-44.984 11.551l-62.402 17.84z" style="fill:#f4bf17;fill-opacity:1;fill-rule:nonzero;stroke:none"></path></g><!-- source: https://football-logos.cc --></svg>