<svg xmlns="http://www.w3.org/2000/svg" viewBox="0 0 960 960"><!-- Source: https://football-logos.cc --><path fill="#001F5A" d="M460 0h40l36 3 28 4 33 7 28 8 29 10 28 12 28 14 27 16 19 13 19 14 11 9 10 9 8 7 10 9 18 18 7 8 13 15 13 17 13 18 11 17 15 26 13 26 12 29 12 36 7 27 6 31 3 21 3 39v35l-3 38-6 39-7 30-9 29-9 25-11 25-14 28-15 25-10 15-13 18-13 16-12 14-12 13-21 21-8 7-14 12-17 13-18 13-19 12-21 12-21 11-25 11-27 10-29 9-30 7-30 5-28 3-14 1h-49l-41-4-35-6-32-8-36-12-27-11-29-14-24-14-16-10-17-12-17-13-13-11-10-9-8-7-25-25-7-8-11-13-13-17-13-18-12-19-12-21-16-32-11-27-11-33-9-36-6-36-3-28-1-16v-40l3-37 5-32 6-28 7-25 8-24 11-27 12-25 11-21 16-26 13-18 13-17 11-13 10-11 7-8 21-21 8-7 15-13 13-10 18-13 15-10 15-9 18-10 16-8 17-8 28-11 27-9 32-8 26-5 32-4z" data-source="https://football-logos.cc"></path><path fill="#01205A" d="M460 0h40l36 3 28 4 33 7 28 8 29 10 28 12 28 14 27 16 19 13 19 14 11 9 10 9 8 7 10 9 18 18 7 8 13 15 13 17 13 18 11 17 15 26 13 26 12 29 12 36 7 27 6 31 3 21 3 39v35l-3 38-6 39-7 30-9 29-9 25-11 25-14 28-15 25-10 15-13 18-13 16-12 14-12 13-21 21-8 7-14 12-17 13-18 13-19 12-21 12-21 11-25 11-27 10-29 9-30 7-30 5-28 3-14 1h-49l-41-4-35-6-32-8-36-12-27-11-29-14-24-14-16-10-17-12-17-13-13-11-10-9-8-7-25-25-7-8-11-13-13-17-13-18-12-19-12-21-16-32-11-27-11-33-9-36-6-36-3-28-1-16v-40l3-37 5-32 6-28 7-25 8-24 11-27 12-25 11-21 16-26 13-18 13-17 11-13 10-11 7-8 21-21 8-7 15-13 13-10 18-13 15-10 15-9 18-10 16-8 17-8 28-11 27-9 32-8 26-5 32-4zm-7 26-26 2-32 5-23 5-26 7-32 11-23 10-23 11-23 13-27 18-16 12-16 13-20 18-22 22-7 8-11 13-13 17-12 17-13 21-9 16-10 19-13 30-12 35-8 31-5 26-3 21-2 22v62l3 29 5 30 6 27 9 29 9 25 13 29 12 23 12 20 15 22 13 17 9 11 9 10 7 8 8 8 1 2h2v2l8 7 8 8 8 7 17 14 19 14 15 10 13 8 21 12 22 11 29 12 33 11 32 8 21 4 31 4 34 2h19l35-2 31-4 30-6 26-7 30-10 24-10 29-14 26-15 25-17 17-13 11-9 11-10 8-7 25-25 9-11 9-10 12-16 12-17 13-21 9-16 9-17 11-25 10-27 6-19 8-32 5-28 3-26 1-15v-55l-3-31-6-35-8-32-12-36-11-26-8-17-12-22-15-24-13-18-10-13-11-13-9-10-7-8-21-21-8-7-14-12-20-15-17-12-25-15-24-13-29-13-34-12-25-7-27-6-32-5-26-2z"></path><path fill="#F6B717" d="M453 26h54l34 3 29 5 30 7 26 8 25 9 24 11 16 8 17 9 24 15 18 13 13 10 13 11 8 7 12 11 19 19 7 8 12 14 15 20 12 17 15 25 13 24 12 27 10 27 9 30 7 31 5 33 2 23v59l-3 30-5 30-7 30-8 26-10 27-9 20-8 17-10 18-13 21-14 20-14 18-13 15-11 12-23 23-11 9-10 9-20 15-27 18-26 15-31 15-26 10-27 9-32 8-28 5-24 3-35 2h-19l-34-2-31-4-26-5-34-9-29-10-30-13-22-11-24-14-15-10-14-10-13-10-11-9-10-9-8-7-8-8-2-1v-2h-2l-7-8-8-8-7-8-14-17-14-19-15-23-12-21-12-23-12-28-12-35-7-26-6-31-3-21-2-22v-62l3-29 5-30 5-23 8-27 9-26 11-25 9-19 10-18 13-21 14-20 11-14 9-11 10-11 7-8 23-23 8-7 13-11 17-13 17-12 19-12 18-10 19-10 25-11 34-12 25-7 22-5 30-5 18-2zm10 19-38 3-30 5-30 7-26 8-27 10-28 13-24 13-19 12-17 12-13 10-11 9-14 12-30 30-9 11-11 13-13 18-12 18-9 15-13 24-13 29-10 28-7 23-8 37-4 30-2 28v34l2 28 4 30 7 33 8 27 8 23 13 30 13 25 12 20 15 22 10 13 9 11 12 14 33 33 11 9 16 13 17 12 20 13 23 13 29 14 31 12 26 8 30 7 30 5 35 3h42l35-3 35-6 32-8 30-10 31-13 22-11 27-16 19-13 16-12 11-9 15-13 31-31 9-11 13-16 13-18 14-22 10-18 9-17 13-30 12-36 8-32 6-36 2-19 1-20v-29l-2-30-4-30-6-29-8-29-10-28-10-23-8-16-10-19-13-21-12-17-10-13-9-11-9-10-7-8-25-25-11-9-9-8-20-15-21-14-17-10-24-13-30-13-25-9-24-7-26-6-30-5-38-3z"></path><path fill="#F6B717" d="M382 369h141l1 1v77h-32v-51h-79l1 116 3 14 5 12 6 10 9 10 10 7 12 5 7 2 26 2v-51h32v68l-12 5-15 4-8 1h-18l-20-4-13-5-11-6-13-10-9-9-8-11-6-10-6-16-3-14z"></path><path fill="#F6B717" d="M548 369h31v142l-3 17-6 16-7 13-9 11-5 5h-2v-75l-78 1-1 49-6-1-9-6-7-7-7-14-2-9v-91h31v51h79V370z" data-source="https://football-logos.cc"></path><path fill="#FEFEFE" d="m456 623 9 1 6 4 4 5 2 5 1 19 2 5 2-2 1-3 1-20 3-6 7-6 5-2h6l4 18 5 13 7 12 10 11 15 10 18 7v2l-16 6-10 2h-12l-12-3-12-7-2-1-3 17-4 12-6 10-4 5h-5l-7-9-5-11-4-15-2-9-13 8-12 3h-12l-16-4-10-4-1-2 16-6 11-6 11-9 9-12 7-14 5-19zM455 278h84l-1 10-5 10-9 8-1 39h-79v-8l4-16 5-10-26-1v-8l4-9 7-8 8-5zM763 215l5 5 13 18 12 16 11 16 4 11v9l-3 8-7 8-11 7-5 2h-12l-10-5-9-9-13-18-14-19-9-12 1-3 18-13 19-14zM378 793h13l22 4 15 4 14 7 5 5 2 3v8l-4 7-6 3 5 7 1 7-2 7-7 6-4 1h-16l-23-4-20-6-10-5-6-7v-11l3-5 5-4h4l-5-8v-9l4-6 6-3zM271 424h31v130l-4 10-8 7-7 3h-12zM659 424h30v150h-11l-8-3-6-5-5-9-1-5V425zM516 802h19l13 3 9 6 6 12 1 5v10l-4 10-7 7-14 7-13 3-8 1h-35l-3-1v-8l1-7h35l17-3 10-5 3-7-16 5-19 3h-19l-11-3-6-5-3-8 1-9 6-7 9-4 13-3zM639 767h11l8 3 5 3 7 10 3 9v10l-6 12-8 8-11 7-14 7-17 6-11 3h-4l-3-10v-5l19-5 21-9 11-7 4-5 1-7-11 7-12 7-20 8-9 2h-8l-7-3-5-6-2-4v-8l6-9 13-9 16-8 13-5zM553 99l40 12 22 7 10 6 4 6 1 9-3 10-4 6-8 4h-14l13 18 2 5-20-6-5-5-12-18-22-7-2 10-2 6-10-2-8-3 3-12 14-45zM107 367l17 2 40 6 3 2-3 17-30-4h-6l10 10 7 8 12 12 2 3v8l-2 11-39 23h-2v2l13 1 21 3 2 1-1 13-1 5-24-3-33-5-3-1 2-17 2-6 25-14 22-13v-2l-28-30-8-8-1-2 1-13zM849 369h5l3 22-7 7-7 8-10 10-7 8-8 8 16 10 21 12 12 7 3 22-10 2-42 6h-8l-2-10v-8l34-5 1-1-28-16-12-7-2-12v-8h2l2-4 18-18 7-8 3-3-30 4h-7l-2-18 48-7zM326 424h31l1 1v100l-3 10-7 8-6 4-4 1h-12zM603 424h31v124h-12l-9-4-7-8-3-8zM498 94h18l1 16v44l-18 1-1-23h-51l1 23-1 1h-18l-1-44V95h18l1 11v11l14-1h37zM160 261l14 7-8 16-14 26-7 14 5 2 4 1 14-27 12-22 2-3 5 2 8 4-2 6-12 22-13 24-1 3 6 2 10 6-1 4-6 12-5-1-28-15-20-11v-4l14-27 12-22 10-18zM394 105l2 1 1 5v10l-28 6-15 5-10 5-3 1-2 4-1 7 4 10 6 3h8l20-6 16-8 11-6h3l7 12-4 4-21 11-19 7-13 3h-14l-9-3-5-4-6-10-3-10v-8l3-9 7-8 11-7 14-6 26-7zM241 174l1 4-7 37-1 2 23-1h28l-6 7-8 7-3 3-38 1-3 16v5l8 8-2 4-10 10-7-6-10-10-7-8-18-18 1-4 6-5 5-5 7 6 13 13h1l3-19 7-30zM665 140l4 1 11 8-1 4-11 16-6 10v8l5 8 12 9 11 5h7l6-4 8-10 11-16 11 7 4 3-2 5-8 11-10 14-7 6-5 2-8 1-11-2-16-8-13-10-8-8-5-8-2-7v-8l4-10 12-17zM293 369h64l1 1v30h-87v-11l3-8 5-6 9-5zM603 369h65l9 3 8 7 4 8v13h-86zM389 585l7 6 12 10 3 2v2l-3 2h-12l-5 3-8 11 1 2 19 2 1 1-1 9-5 6h-2l-1-6-3-1h-13l-4 9-3 11v9l1 4-6-1-4-4-1-7 3-17-8 4-11 8-1 4v4l-4-1-3-3-1-9 8-7 8-6 1-2h-14l-2 6-4-4v-11l1-1h13l12 1 7-3 19-29zM571 585l4 4 10 16 8 12 4 3h29l1 2v8l-3 5h-2l-2-5h-14v2l4 2 12 9 2 3-1 6-3 5-4 1-1-8-10-7-9-5 1 9 1 5v9l-5 5-6 1 2-5-1-10-5-16v-2h-18l-1 7-4-2-3-7v-6l1-1 20-2-4-7-6-8-7-1h-8l-3-2 2-4 9-7z"></path><path fill="#001F5A" d="m761 239 5 5 14 19 9 13 1 3v7l-6 7-5 3-7 1-6-4-8-9-10-14-9-12 1-4 14-10z"></path><path fill="#FEFEFE" d="m306 767 15 1 12 2 13 7-2 6-21 41-4 7-6-2-10-6 2-6 12-24 4-7-13-3-8-2 2-6zM830 320l2 1 6 14v2l-22 10-31 13h-3l-6-13v-4l35-15z"></path><path fill="#001F5A" d="m565 120 7 1 33 10 5 3v7l-3 4-9-1-36-11 1-7zM378 828l12 1 30 7 6 3 2 2-1 4-1 1h-13l-27-6-10-4-1-1v-5zM518 817h15l7 2 3 3v2l-21 5-20 2-9-1-2-2 1-5 5-3zM636 783h10l3 3-16 10-21 10-3 1h-8l-1-6 7-6 17-8zM383 808h8l21 4 15 5 4 3-1 4-1 1h-10l-28-6-9-4-1-5z" data-source="https://football-logos.cc"></path><!-- source: https://football-logos.cc --></svg>