<svg xmlns="http://www.w3.org/2000/svg" viewBox="0 0 68.32 93.14"><!-- Source: https://football-logos.cc --><defs data-source="https://football-logos.cc"><clipPath id="a"><path d="M0 460.529h381.058V0H0Z"></path></clipPath></defs><g clip-path="url(#a)" transform="matrix(.31348 0 0 -.31348 -25.608 118.799)" data-source="https://football-logos.cc"><path fill="#fff" d="M298.79 294.13c-.037.475-.087.949-.127 1.423-.85 10.196-2.207 20.356-3.938 30.426-4.4.822-8.954 1.574-13.613 2.271q-.565 3.691-1.236 7.335c-2.852.498-5.733.951-8.622 1.394l-.44.571c-1.246 9.689-3.021 22.786-4.633 32.062-.911 5.232-5.516 9.366-10.771 9.366H125.92c-5.254 0-9.86-4.134-10.769-9.366-1.613-9.276-3.388-22.373-4.634-32.062l-.44-.571a424 424 0 0 1-8.622-1.394 245 245 0 0 1-1.236-7.335 382 382 0 0 1-13.612-2.271c-1.732-10.07-3.089-20.23-3.939-30.426-.04-.474-.09-.948-.127-1.423-.108-1.37-.19-2.742-.279-4.114-.049-.77-.112-1.541-.155-2.312-.07-1.235-.113-2.471-.166-3.707-.039-.906-.091-1.811-.12-2.717-.037-1.132-.048-2.265-.07-3.398-.02-1.011-.053-2.023-.061-3.035-.007-1.018.011-2.036.016-3.054.005-1.127-.002-2.254.019-3.38.017-.93.06-1.858.089-2.787.037-1.215.063-2.429.119-3.643.039-.847.104-1.694.153-2.541.074-1.296.14-2.592.238-3.887.058-.781.142-1.561.21-2.341.117-1.358.227-2.715.37-4.071.08-.755.185-1.508.274-2.262.161-1.381.316-2.762.506-4.14.1-.725.226-1.447.334-2.171.209-1.406.413-2.813.654-4.216.12-.7.266-1.397.394-2.095.261-1.426.516-2.852.81-4.274.141-.681.308-1.36.457-2.04.314-1.437.623-2.875.973-4.308.161-.662.349-1.321.518-1.983.371-1.449.737-2.898 1.146-4.343.181-.644.39-1.285.579-1.928.43-1.457.856-2.915 1.325-4.368.206-.637.439-1.271.653-1.907.488-1.456.974-2.911 1.504-4.361.229-.629.487-1.254.725-1.882.549-1.453 1.097-2.905 1.69-4.352.257-.629.543-1.254.809-1.881.61-1.44 1.218-2.882 1.873-4.315.287-.628.602-1.253.898-1.881.673-1.429 1.344-2.859 2.063-4.283.313-.62.656-1.236.978-1.856.74-1.422 1.478-2.845 2.265-4.26.349-.628.729-1.25 1.087-1.877.802-1.4 1.601-2.801 2.45-4.195.385-.632.802-1.258 1.196-1.888.867-1.382 1.73-2.765 2.645-4.14.419-.631.872-1.256 1.302-1.885.934-1.366 1.865-2.732 2.848-4.09.459-.635.953-1.264 1.424-1.896.999-1.345 1.996-2.69 3.045-4.026.502-.639 1.04-1.273 1.554-1.91 1.065-1.321 2.126-2.642 3.242-3.954.55-.648 1.137-1.289 1.7-1.934 1.129-1.294 2.253-2.588 3.432-3.872.599-.652 1.236-1.298 1.848-1.948 1.195-1.269 2.385-2.538 3.631-3.798.646-.653 1.331-1.299 1.991-1.95 1.265-1.246 2.524-2.493 3.84-3.73.7-.657 1.439-1.307 2.153-1.96 1.18-1.082 2.337-2.168 3.558-3.242-.059-.925-.1-1.854-.1-2.794 0-23.798 19.293-43.089 43.091-43.089.133 0 .263.007.395.009.132-.002.262-.009.395-.009 23.798 0 43.09 19.291 43.09 43.089 0 .94-.04 1.869-.098 2.794 1.222 1.075 2.381 2.163 3.562 3.246.712.653 1.45 1.301 2.149 1.956 1.317 1.239 2.58 2.489 3.846 3.737.658.648 1.339 1.291 1.984 1.942 1.251 1.264 2.444 2.538 3.643 3.812.609.645 1.24 1.286 1.835 1.933 1.184 1.29 2.312 2.589 3.446 3.888.557.641 1.14 1.276 1.686 1.918 1.12 1.318 2.187 2.645 3.256 3.973.51.63 1.042 1.258 1.539 1.891 1.056 1.342 2.057 2.694 3.061 4.044.465.627.955 1.25 1.41 1.878.984 1.361 1.918 2.731 2.852 4.099.429.627.88 1.25 1.298 1.878.918 1.38 1.784 2.766 2.653 4.153.391.625.805 1.246 1.187 1.873.85 1.396 1.651 2.8 2.454 4.204.357.624.736 1.244 1.084 1.87.784 1.41 1.52 2.828 2.256 4.245.326.625.672 1.247.988 1.873.717 1.421 1.387 2.847 2.059 4.274.297.63.613 1.256.901 1.888.654 1.433 1.262 2.874 1.872 4.313.266.628.553 1.254.81 1.883.591 1.44 1.135 2.887 1.683 4.331.241.637.501 1.269.733 1.905.528 1.445 1.012 2.896 1.499 4.346.216.641.45 1.279.657 1.92.466 1.445.891 2.894 1.317 4.344.192.651.405 1.301.588 1.955.409 1.448.778 2.902 1.15 4.355.167.655.352 1.309.512 1.965.354 1.45.667 2.904.985 4.358.144.664.307 1.326.445 1.99.298 1.441.558 2.885.821 4.329.124.68.266 1.359.383 2.039.245 1.425.452 2.852.664 4.279.105.703.227 1.405.324 2.109.194 1.401.352 2.806.515 4.21.086.73.189 1.46.265 2.191.143 1.351.254 2.703.37 4.055.068.788.152 1.575.212 2.364.098 1.3.164 2.601.238 3.902.049.84.113 1.679.152 2.52.057 1.248.085 2.497.122 3.746.027.895.069 1.789.086 2.683.022 1.167.015 2.334.02 3.501.004.978.022 1.956.016 2.933-.01 1.06-.042 2.12-.065 3.18-.021 1.084-.031 2.169-.067 3.253-.03.939-.084 1.878-.123 2.817-.053 1.204-.095 2.408-.162 3.611-.043.771-.107 1.542-.156 2.312-.089 1.372-.171 2.744-.279 4.114"></path><path fill="#ee2523" d="M220.39 156.52c55.078 48.718 62.287 114.3 52.687 170.86-53.158 9.384-112.31 9.955-164.83 0-9.625-56.698-2.352-122.48 53.114-171.23 7.732 7.366 18.189 11.897 29.71 11.897 11.327 0 21.626-4.376 29.316-11.521"></path><path fill="#252e7f" d="M171.35 144.81c-3.491-5.185-6.263-11.092-8.458-17.577 3.125-5.275 7.774-10.25 13.412-15.026 7.441 3.971 14.526 7.757 18.824 11.22l-3.638 20.85c-5.844 1.196-13.044 1.414-20.14.533m50.97 6.57c-6.102 7.272-14.694 12.369-24.443 14.008 2.972-2.939 6.231-8.042 7.085-10.755 6.257-2.058 11.731-4.904 16.018-8.94 1.482 2.169 1.34 5.687 1.34 5.687m3.48-25.28c-3.129-4.603-7.242-8.346-12.239-11.288q.848-8.612-.699-16.979c3.556.629 8.096 1.772 10.79 2.865a40.6 40.6 0 0 1 7.255 15.826c-.862 3.433-2.956 7.384-5.107 9.576m-61.36-31.76c7.274-6.285 16.782-10.042 27.15-9.908.068.001.135.007.203.008 1.043 1.084 2.031 3.015 2.482 4.505-6.824 1.509-12.162 3.83-17.101 7.298-3.273-.952-8.713-1.75-12.734-1.903m-13.53 37.81a41 41 0 0 1-.599-7.477 40.6 40.6 0 0 1 4.204-17.536s-.982 7.53 1.745 17.215c-2.046 1-4.915 4.426-5.35 7.798m18.26 20.03c3.137 7.32 11.077 12.326 11.077 12.326a40.74 40.74 0 0 1-19.718-12.309c3.025 1.368 6.413.892 8.641-.017m30.6 218.86-3.556 2.708 2.981 3.29 5.043-3.209 4.719 3.209 3.086-3.29-3.625-2.608c-1.341.26-2.73.409-4.161.409-1.546 0-3.045-.187-4.487-.509m-41.88-8.06v6.625h-30.889v-29.924h8.015v10.394h18.175v6.473h-18.175v6.432zm99.14-4.24c0 6.843-5.72 10.871-12.356 10.871h-20.222v-29.922h8.017v8.184h8.188l5.84-8.184h9.782l-6.937 8.965c4.486 1.364 7.688 5.04 7.688 10.086m-13.037-4.243h-11.524v8.489h11.281c2.905 0 5.16-1.511 5.16-4.246 0-2.574-1.903-4.243-4.917-4.243M180.39 339.69h9.006l-13.002 29.922h-11.151l-13.16-29.922h8.724l1.993 5.017h15.598zm-9.658 24.686 5.054-13.197h-10.374l5.054 13.197zm33.548-19.286c-4.882 0-8.665 3.877-8.665 9.538 0 5.841 3.783 9.539 8.665 9.539 3.807 0 6.633-2.125 7.923-5.785h8.112c-1.718 7.963-7.942 12.339-16.035 12.339-9.151 0-16.793-6.436-16.793-16.093 0-9.82 7.642-16.095 16.793-16.095 8.276 0 14.863 4.755 16.328 12.699h-8.233c-.862-3.725-4.1-6.142-8.095-6.142M100 320.3a468 468 0 0 1-6.897-1.156c-11.01-60.217-3.341-129.75 56.435-182.72a42.9 42.9 0 0 0 6.757 13.961C102.203 199.481 92.85 262.205 100 320.305m188.22-1.165c-2.286.375-4.584.733-6.888 1.082 7.111-57.901-2.177-120.38-55.809-169.39a42.9 42.9 0 0 0 6.918-13.826c59.177 52.895 66.749 122.14 55.779 182.14"></path><path fill="#fff" d="M245.16 290.11c-1.561 3.677-2.082 10.185 4.016 10.072-1.54 3.362-7.507 2.956-8.996-.363-2.67 5.346-6.997 8.331-10.702 8.298-.109-1.772.648-5.084 2.957-8.253-4.037-.028-7.254-2.704-6.314-6.58 8.893 5.308 16.165-3.895 16.165-12.713 0-4.295-1.427-8.357-3.51-12.256.125 5.938-7.957 5.956-8.195.4 3.199 1.439 6.918-1.06 5.354-5.113-1.422-2.153-2.958-4.261-4.463-6.338-2.798 3.825-5.716 7.727-7.888 11.728-3.426 6.832 1.931 9.184 5.214 6.419 1.245 4.861-3.025 6.996-6.228 5.747 3.363 3.985 9.613 4.474 12.528 1.625.328 6.268-7.17 8.837-12.181 5.456 2.24 4.075-.249 6.287-.249 6.287-2.909-1.898-6.353-7.44-6.353-13.955 0-6.346 2.682-12.246 6.045-17.72-3.459 2.504-8.098 2.439-11.069.346 0 0 1.168-3.756 8.715-4.121-1.911-1.679-2.034-5.241 1.471-7.43.369 3.366 4.141 5.312 6.831 2.397.145-.207.285-.409.426-.614-3.448-4.982-6.201-9.824-6.201-14.714 0-4.195 1.495-8 3.924-10.816-.084-.002-.168-.008-.253-.008-5.397 0-9.703 5.033-10.748 11.26-8.04 5.698-13.454 13.478-10.526 25.123a6.17 6.17 0 0 1 3.563 7.53 6.457 6.457 0 0 1 1.846 8.439 6.5 6.5 0 0 1-.036 8.675 6.33 6.33 0 0 1-2.01 8.209c-.042.028-.086.051-.128.078a5.99 5.99 0 0 1-1.562 5.601c.586 1.838.762 3.614.762 3.614s-1.586.776-3.583 1.169l3.244 7.391s-3.323.895-3.67-1.874a3 3 0 0 1-.511.083c-1.277.089-2.369-.669-2.44-1.693-.032-.48.168-.933.519-1.288.465.06 1.022-.069 1.238-.391-.415-.534-2.197-.941-3.78-.612-.969.191-1.78.695-2.234 1.199.342.3 1.034.23 1.458-.007.842.245 1.463.9 1.52 1.709.075 1.085-.899 2.037-2.175 2.125a2.7 2.7 0 0 1-.692-.04c1.122 2.912-1.725 3.853-1.725 3.853s-2.95-.54-2.239-3.579a2.7 2.7 0 0 1-.68.135c-1.277.089-2.372-.72-2.447-1.806-.056-.809.471-1.543 1.27-1.901.452.176 1.149.15 1.445-.194-.519-.437-1.391-.825-2.377-.88-1.614-.108-3.323.54-3.66 1.126.258.29.826.341 1.28.217.397.304.657.724.69 1.205.071 1.023-.906 1.924-2.182 2.013a3 3 0 0 1-.519-.013c.039 2.79-3.377 2.362-3.377 2.362l2.55-9.022c-.917-.525-2.186-1.323-3.167-2.218l-8.066-4.15c.003-.336.259-1.703 1.164-1.875-.214-1.672.1-3.66 1.591-4.381.477-1.356 1.246-2.524 1.649-2.899a113 113 0 0 1-5.08-.68c-3.188-.503-5.907.494-7.012 3.089-1.4-2.93.11-11.723 12.005-5.758.97-1.963.715-4.444.715-4.444s.208-.088.348-.122c7.066 4.77 10.832 1.212 9.93-.762-5.281-1.515-9.402-3.731-12.213-5.972-10.63 4.966-16.708 9.116-20.406 12.883-2.388 3.669 1.098 7.761 3.131 12.549a2.6 2.6 0 0 1-.525.486c.409 3.68-3.059 4.94-5.395 3.918v-.056c.682-.114 2.085-.722 1.971-2.545-2.476.131-4.851-1.43-4.798-5.286-.715 2.002-1.249 4-2.037 6.081a3.8 3.8 0 0 1-1.013.075c-2.386 2.809-6.333 1.331-6.822-.764l.036-.043c.625.369 2.555.5 3.514-.908-1.668-1.96-1.76-5.953 2.027-8.606-1.777.549-4.418 1.159-5.691 1.325a5.5 5.5 0 0 1-1.069-1.33c-3.235-.268-4.985-3.086-3.526-5.753l.056-.002c.202.82 1.613 2.166 3.029 2.163.704-2.187 2.645-3.839 7.943-3.545-1.219-1.043-2.309-2.312-2.711-3.203-.578-1.28-.711-2.791-.016-3.954-1.019-.16-2.118.116-2.565.516l-.045-.034c-.065-3.283 4.128-4.613 7.212-2.254l.001.001c.858.113 1.392.393 1.392.393.319.697.995 2.52 1.589 4.181 1.168-1.906 4.818-7.094 5.542-8.059-1.42-.279-2.392-.904-2.834-1.179.049-1.816 1.235-3.605 4.26-3.936-1.999-1.553-1.932-4.618-1.074-5.85 1.59.356 4.207 1.472 6.46 2.54a75 75 0 0 1 2.905-3.133c-3.727-2.794-7.743-5.605-10.701-7.143-3.752-1.516-3.801 7.923-4.165 9.583-.289.085-.591.13-.902.145-1.816 2.425-5.413 2.195-6.514-.547l.033-.043c.65.312 2.109.459 3.028-.515-2.052-1.515-3.167-4.482-.22-7.754l-.155-.199c-2.751 1.823-6.33 5.512-6.33 5.512a4.3 4.3 0 0 1-.857-.473c-3.746.522-5.689-2.784-4.8-4.763l.054-.012c.255.625 1.301 1.801 2.762 1.562-.491-2.723 1.27-5.981 6.567-6.009l.147-.23c-1.952-.225-4.715-.67-6.018-1.095a5.8 5.8 0 0 1-.481-1.381 3 3 0 0 1-.213-.111c-3.402-1.969-3.478-6.54-.448-8.005l.047.031c-.331.833.134 3.452 1.46 4.279 1.676-2.027 5.447-2.377 10.335 2.077l.065-.021c-1.488-3.567-2.211-6.063-2.211-6.063.154-1.188.769-2.323 1.785-3.048-.756-.946-2.172-1.41-2.886-1.263l-.022-.052c1.75-2.257 5.731-1.6 7.109.834 1.621.698 2.268 2.267 2.268 2.267s.223 3.018.038 6.13c0 0 1.256.311 8.324 1.417-.213-.717-.405-2.075-.377-2.545 1.284-.768 3.375-.747 5.232 1.19.177-.835.44-1.654.774-2.424 3.647.539 5.915 2.507 6.671 5.684 3.645-3.792 8.583-6.565 12.523-9.111-8.582.587-23.189-4.22-23.189-4.22s1.045-3.077 5.033-2.085c-.822-4.048 2.951-12.594 4.342-15.208-10.096-2.288-9.896 9.805-9.896 9.805a5 5 0 0 1-2.122-.1c-2.396 1.732-5.432.365-6.167-1.79l.042-.038c.517.405 2.032.918 3.328-.178-1.236-1.845-1.26-4.572 1.065-7.021-3.298 1.531-5.276 3.196-6.049 3.614a5.4 5.4 0 0 1-.927-.552c-3.63.528-5.948-2.534-5.061-4.848l.057-.01c.226.597 1.671 1.481 3.035 1.406-.144-2.479 2.013-4.966 7.16-4.89l.061-.072c-2.282-.911-4.231-1.967-5.525-3.117a5.4 5.4 0 0 1-.014-1.878c-2.312-2.491-1.155-6.431 1.997-7.29l.043.037c-.445.804-.801 3.278.448 4.146 3.801-1.508 6.931 1.823 8.501 4.111-.37-2.097-.313-4.037-.054-5.075.479-1.919 1.798-3.361 3.323-3.532.079-1.225-1.19-2.291-1.941-2.574l.008-.053c2.587-1.416 5.7.868 5.691 3.819a7.3 7.3 0 0 1 1.274 1.283c-1.622 2.779-2.056 4.875-2.156 6.047.665 1.738 2.63 2.762 6.856 3.518 3.309-3.325 6.998-2.138 7.783-1.836.2 1.203-.297 2.52-2.033 3.232 2.019 1.151 2.829 3.934 2.376 4.943-.672-.023-2.451-.191-3.971-1.156-1.084 7.734.206 8.343 9.95 6.067-2.522-5.818-3.801-9.71-3.316-12.611-.098-5.191.173-8.478.173-8.478 2.906-1.035 4.361 1.643 3.581 3.544 2.905-1.794 7.192-3.512 13.438-5.214-.662-.832-5.505-7.008-11.045-6.416-2.588.589-5.123 5.027-5.123 5.027-.35.036-.694.027-1.03-.014-3.026 1.506-5.957-.482-6.043-2.822l.049-.026c.329.395 1.383.834 2.58.555-.724-1.423-.474-3.252 1.568-4.751-1.86.184-3.665.461-5.447.595a4.2 4.2 0 0 1-1.087-.904c-4.444.128-6.188-4.232-4.701-6.764l.065-.002c.176.878 1.639 3.066 3.802 2.478.926-2.748 4.747-4.595 11.995-.314l.44-.253c-1.811-1.66-3.584-3.68-4.492-5.624a6.4 6.4 0 0 1 .493-1.879c-1.556-3.383 1.241-6.699 4.482-6.236l.025.05c-.643.496-1.62 1.998-1.252 3.572l.002.001c2.808-.353 4.961 2.235 7.736 8.74.297-1.647.705-3.054.705-3.054.569-1.242 2.148-2.238 3.791-2.267-.165-1.105-1.078-2.026-1.695-2.331l.014-.057c2.89-1.234 5.433 1.88 5.195 4.482.736.873.944 2.655.944 2.655-2.557 2.618-2.466 4.661-2.466 4.661s2.3 4.693 7.083 9.324c5.091-1.019 10.785 1.056 11.601 3.432-1.162 1.5-3.747 2.231-6.231 1.877 3.313 3.027 2.172 8.216.458 9.149-2.919-.323-6.271-3.728-6.828-7.408l-8.457 7.457c4.389 2.647 9.254 6.679 11.672 11.698 2.864-3.233 6.961-5.476 11.642-5.476 7.86 0 14.233 7.031 14.233 15.704 0 4.771-2.691 9.607-6.112 14.56 5.726 7.998 12.894 17.067 12.894 27.296 0 4.367-1.142 7.378-2.059 9.539m-56.785 2.597c-1.844.159-5.88.026-10.67-.496.118.382.602 1.896 1.306 3.312 2.855.684 6.535 1.836 6.535 1.836 1.638-.924 3.048-3.565 2.829-4.652m-2.595 10.543c-1.063 1.016-2.112 1.232-2.112 1.232.332.649.885 1.092.885 1.092s1.862.401 5.999-.793zm49.843-64.535c0-3.792-1.601-7.103-4.133-9.033-2.537 1.93-4.142 5.238-4.142 9.033 0 3.261 1.743 6.767 4.196 10.53 2.383-3.763 4.079-7.27 4.079-10.53"></path><path fill="#cacacb" d="M193.47 300.07s-1.147-.405-2.409-.875c0 0 3.012-2.437 7.528-6.662-1.054 2.361-3.952 6.54-5.119 7.537m-19.25-.61c.985-.187 3.363 1.397 3.642 1.631l-.056.123c-.567-.178-4.034-.961-4.751.121.005-.335.259-1.703 1.165-1.875m65.96.36-.009.018q.552-1.103 1.002-2.336c1.352 4.279 6.22 4.856 7.86 2.959-1.735 3.057-7.407 2.583-8.853-.641m-19.65-20.18a4.8 4.8 0 0 0 2.043 1.515c3.362 3.984 9.612 4.473 12.526 1.624-1.782 6.23-12.937 6.111-14.569-3.139m2.38 8.6.002.001c2.144 3.901-.044 6.093-.234 6.273l-.016.014c-1.294-1.606-3.744-6.329-3.647-12.083.707 2.717 2.15 4.617 3.895 5.795m5.89-12.83c-1.219 4.773-9.093 4.155-6.636-3.243.636-1.831 1.241-2.838 1.401-3.133-3.381 6.798 1.959 9.136 5.235 6.376m-7.32-23.77c.368 3.366 4.141 5.312 6.83 2.397q-.66.944-1.337 1.908c-2.868 3.74-8.049-.015-5.493-4.305m-1.48 7.43c.875.769 2.125 1.137 3.574.803-3.334 2.152-7.701 3.668-12.288 3.318 0 0 1.167-3.756 8.714-4.121m16.48 5.37c3.032 5.272-3.475 8.448-5.902 4.275 3.2 1.439 6.918-1.06 5.355-5.113q.276.418.547.838"></path><path fill="#cacacb" d="M226.12 293.28c8.894 5.307 16.164-3.896 16.164-12.713 0-4.186-1.352-8.15-3.35-11.956 13.177 22.778-6.492 34.809-12.814 24.669m8.2-40.01c2.776 3.877 5.889 8.006 8.362 12.397-2.746-3.782-6.238-7.482-9.321-11.025q.488-.687.959-1.372m-4.37-1.68c-3.47-4.376-6.939-9.162-6.939-14.743 0-1.335.125-2.466.359-3.47a16 16 0 0 1 3.078-5.48 8.6 8.6 0 0 1 5.033 1.782c-2.535 1.93-4.139 5.237-4.139 9.031 0 3.26 1.742 6.766 4.194 10.529a79 79 0 0 1-1.586 2.351"></path><path fill="#cacacb" d="M228.68 224.66c-6.086 0-11.019 4.659-12.59 9.814-.069-2.12-.631-4.125-1.53-5.994 2.862-3.233 6.961-5.475 11.641-5.475 4.329 0 8.204 2.134 10.814 5.499-2.125-2.372-5.073-3.844-8.335-3.844m-36.36-15.59c-2.223 1.374-3.417 2.914-3.755 4.934-.099-5.192.172-8.479.172-8.479 2.906-1.034 4.362 1.643 3.583 3.545m44.34 89.87c-2.481 2.212-4.514 4.967-7.187 9.178-.111-1.772.646-5.084 2.957-8.253 1.359.01 2.811-.277 4.23-.925m-36.91 3.69s3.073 1.419 6.013 3.049c-1.86.435-6.916.31-6.013-3.049m.45-3.08c1.469-.71 3.67-.625 5.102.136 2.247-3.598.244-9.861.244-9.861s1.063 1.752 1.888 4.055c1.903-1.954 1.28-6.989-2.678-11.395 1.529 1.035 2.756 2.13 3.711 3.24 1.508-4.561-2.935-8.84-7.89-9.827 2.382.077 4.663.722 6.567 1.743.452-4.968-5.912-7.956-13.309-7.667 3.985-.781 7.444-.765 10.209-.151-.116-5.217-10.487-6.537-21.573-3.417 7.087-3.142 13.148-4.114 17.672-3.625-.093-3.126-4.49-4.338-6.774-4.085-.876-6.078 17.446-16.863 22.081-19.55-8.039 5.698-13.453 13.477-10.524 25.122a6.167 6.167 0 0 1 3.561 7.53 6.456 6.456 0 0 1 1.848 8.439 6.504 6.504 0 0 1-.036 8.675 6.33 6.33 0 0 1-2.012 8.209c-.04.029-.086.051-.128.078a5.99 5.99 0 0 1-1.56 5.601c.585 1.838.76 3.614.76 3.614s-2.087-6.596-7.159-6.864m-22.83-10.72s-.07 1.595.212 3.125c0 0 .091.031.178.035 0 0 1.119-1.114 2.679-1.729 3.448 1.377 6.341 1.8 7.484 1.973.254.039.397.21.449.468h-.001c-1.844.159-5.878.026-10.668-.496.117.378.601 1.893 1.306 3.312-1.551-.372-2.859-.605-3.201-.44.477-1.356 1.246-2.524 1.648-2.899-1.628-.181-3.34-.407-5.08-.681-5.39-.807-7.463-.495-7.369 1.865-.552-3.547 1.848-9.807 12.363-4.533"></path><path fill="#cacacb" d="M192.59 295.61c.775-1.816 1.071-4.182-1.154-5.282 2.227-1.614.664-3.723.664-3.723-.804 1.045-4.099 3.276-12.277-1.48l.091.047c6.104 3.354 9.287.166 8.449-1.666 5.38 1.844 12.519 4.287 4.227 12.104m-52.01-46.73c0-1.129-.812-1.521-1.241-1.665a1.7 1.7 0 0 1-.355-.176c1.678-2.026 5.448-2.375 10.334 2.078l.065-.021s.501 1.22.792 1.767c-2.89-1.681-7.365-3.021-9.595-1.983m22.83-2.11c1.284-.768 3.375-.75 5.231 1.19-.261 1.229-.337 2.5-.176 3.711-2.481-3.797-5.055-4.901-5.055-4.901m12.68 4.45q.494-.512 1.016-1c2.892-1.152 6.666-.364 6.666-.364-.919 2.521-3.053 5.648-9.172 5.16-1.196-7.507-5.181-9.48-5.181-9.48 3.647.539 5.915 2.507 6.671 5.684m-5.27-14.43q.243.394.568.766c-1.316-.307-4.527-.865-5.966.335 0 0 1.045-3.077 5.032-2.085l-.006-.046c.074.389.194.738.372 1.03m-26.33 16.76.148-.231c.395.046 1.441.164 1.983.217-6.892 3.494-7.445 7.599-7.478 8.542a5.1 5.1 0 0 1-1.22-2.519c-.49-2.724 1.269-5.982 6.567-6.009m46.82-71.24c.254-.358.222-1.052.049-1.355a3 3 0 0 1-.323-.828c2.81-.353 4.962 2.235 7.737 8.741-.324 1.636-.383 3.438-.383 3.438-1.303-3.148-4.568-8.755-7.08-9.996m.47 7.93c.536.491 1.074.954 1.595 1.37l-.285.437c-5.271-1.903-10.397-1.521-12.108-.375-.353-.671-.816-1.139-1.637-.865.926-2.748 4.745-4.593 11.991-.312zm-6.64 9.92c-.724-1.424-.468-3.252 1.576-4.752 2.079-.206 4.228-.295 6.493.06-3.976.542-7.273 2.515-8.069 4.692m32.57 7.43c3.314 3.027 2.173 8.216.458 9.15-3.989-2.956-4.49-7.295-4.456-9.5l-10.828 9.548s-3.194-1.825-5.484-2.735c-1.665-3.051 8.329-7.519 13.426-9.441-1.089-2.997-5.085-9.293-8.482-10.353 2.422-4.631 1.989-7.447 1.989-7.447.908.591 2.126-.066 2.314-.655.092-.289.131-.516.131-.516.739.873.947 2.655.947 2.655-2.559 2.618-2.468 4.662-2.468 4.662s2.301 4.693 7.084 9.323c5.093-1.02 10.783 1.056 11.599 3.432-1.161 1.501-3.746 2.231-6.23 1.877m-13.93 100 3.245 7.391s-3.325.894-3.67-1.874a3 3 0 0 1-.512.083c-1.277.089-2.369-.67-2.44-1.693-.033-.481.167-.933.519-1.288.466.06 1.022-.069 1.238-.391-.416-.534-2.197-.941-3.78-.612-.969.19-1.78.695-2.234 1.198.341.301 1.034.231 1.458-.006.841.245 1.464.899 1.52 1.708.075 1.086-.899 2.038-2.175 2.126a2.6 2.6 0 0 1-.692-.041c1.123 2.913-1.726 3.853-1.726 3.853 1.599-6.728-3.258-9.637-5.77-10.145v-.113c5.157-.075 9.169-1.153 9.169-1.153 1.64 1.355 3.933 1.335 5.85.957m-56.53-49.66-.155-.199c1.009-.626 2.348-1.217 4.089-1.763-1.895 1.813-4.275 6.9-3.714 9.716-2.053-1.515-3.167-4.482-.22-7.754m44.48-18c1.135-11.608-27.846 7.318-14.239-21.59-4.917-.347-7.407 1.122-9.335 3.342-3.362 3.115-3.252 8.715-3.252 8.715-4.298-.975-5.097-7.636-1.413-10.673-2.826.447-6.254 1.514-8.978 3.404-1.492-1.935-1.508-5.171.819-6.548 1.039-.391 2.343-.613 3.933-.59l.06-.07c.909-.024 1.672-.248 1.672-.248-1.885-.893-4.208-2.431-5.285-3.644a3 3 0 0 1-.324-.609c1.069-.71 2.106-3.012 1.124-3.464-.163-.075-.237-.139-.237-.139 3.802-1.509 6.931 1.823 8.501 4.112-.37-2.097-.313-4.038-.054-5.077.479-1.918 1.798-3.36 3.323-3.531.079-1.225-1.19-2.291-1.941-2.573l.008-.054c2.587-1.416 5.7.867 5.691 3.819a7.3 7.3 0 0 1 1.275 1.283c-1.622 2.779-2.057 4.875-2.157 6.048.665 1.737 2.63 2.762 6.856 3.517 3.309-3.324 6.998-2.139 7.784-1.836.199 1.202-.298 2.521-2.034 3.232 2.019 1.151 2.829 3.935 2.375 4.944-.627-.022-2.205-1.053-3.604-3.002 0 0-.226.931-.365 1.845-1.084 7.733.204 8.343 9.945 6.068a384 384 0 0 0 2.869 6.378c1.214 2.656-.283 4.8-3.017 6.941m-36.26 7.97s1.277.314 8.324 1.417c.405 1.499 1.119 2.787 2.114 3.7 0 0-5.56-1.261-8.944-3.294-1.492 1.315-3.241 1.436-3.241 1.436-1.145-6.39-2.189-8.403-2.189-8.403 1.892-.09 2.175-1.529 2.028-2.215a3.6 3.6 0 0 0-.398-1.037c1.621.697 2.267 2.267 2.267 2.267s.22 1.878.039 6.129"></path><path fill="#cacacb" d="M148.45 279.25c.858.113 1.392.394 1.392.394.319.696.995 2.52 1.589 4.18 1.168-1.905 4.817-7.094 5.542-8.059-1.421-.278-2.393-.904-2.835-1.179.049-1.816 1.235-3.605 4.26-3.936-2-1.553-1.932-4.618-1.073-5.85 3.098 1.838 3.602 5.531 6.102 2.95a78 78 0 0 1 3.261-3.544c2.865 2.075 6.384 4.293 11.837 3.433-2.394.973-6.064 1.443-9.17.286l-.188.583c5.784 8.285 17.484 5.251 24.597 6.569-4.917-.21-13.775 2.672-20.908-1.374l-.194.7a25 25 0 0 0 2.104 1.976s-14.19 7.967-17.098 6.978c.377 2.711-.419 4.762-1.926 7.067-2.383 3.667 1.099 7.758 3.131 12.544-2.154 2.686-8.146-.065-6.718-7.86l-.027-.012c-2.069 3.54-2.68 6.882-4.039 10.469l-.075.015c-2.903-.717-5.524-5.588-.894-10.707 1.381-.747 2.049-1.631 2.049-1.631l.028-.115c-4.13.189-8.148 1.603-8.148 1.603.086-1.386-.804-3.426-1.779-3.107-.211.07-.425.099-.64.099.704-2.186 2.646-3.838 7.944-3.544.68.038 1.307.104 1.88.178-1.265-1.615-3.441-4.737-2.602-6.167.571.235 1.771-.133 2.013-.653-.678-1.706-2.76-3.642-4.686-3.089 1.479-.681 3.548-.514 5.271.803"></path></g><!-- source: https://football-logos.cc --></svg>