<svg xmlns="http://www.w3.org/2000/svg" viewBox="0 0 128 128"><!-- Source: https://football-logos.cc --><g fill="none" data-source="https://football-logos.cc"><circle cx="64" cy="64" r="64" fill="#fff"></circle><g fill="#ce0e2d"><path d="M63.875 4C30.822 4 4.037 30.865 4.037 63.988s26.798 59.987 59.838 59.987 59.838-26.864 59.838-59.987S96.928 4 63.875 4m0 116.68c-31.225 0-56.54-25.377-56.54-56.68S32.65 7.32 63.876 7.32 120.414 32.697 120.414 64s-25.314 56.68-56.54 56.68"></path><path d="M63.875 28.406c-19.61 0-35.493 15.934-35.493 35.582S44.276 99.57 63.875 99.57s35.493-15.935 35.493-35.582-15.882-35.582-35.493-35.582m0 68.373h-.196v-8.226H51.99v-9.418H37.445l.748-1.278 6.353-10.759-8.156-4.905 11.112-18.566 7.825-1.131 1.25 4.242 7.09-11.988v-3.566h.196c18.065 0 32.709 14.68 32.709 32.791S81.94 96.78 63.875 96.78"></path><path d="m84.258 75.766-8.732-14.643 4.244-2.57 2.93 4.894 4.257-2.558-8.353-13.66-5.727-.147 4.342 7.217-4.244 2.558-9.1-15.246-.172-.283-.037.049-8.977 15.184-3.827-2.311 2.956-4.943-.895-3.049-3.348.48-8.549 14.311 4.256 2.558 3.042-5.078 3.85 2.323-8.805 14.914h18.053v4.451h-6.059v4.98h16.63v-4.98H66.39v-4.45zm-31.225-5.188 10.646-18.48.122-.209.086.136 11.063 18.54H53.033zM30.552 41.931l-8.794-7.156 5.139-6.344 1.594 1.303-3.789 4.672 2.403 1.955 3.582-4.426 1.533 1.254-3.582 4.426 3.263 2.656zM37.003 20.218l-.761 7.389 7.801 1.291.073.098-2.109 1.586-6.807-1.155 3.017 4.02-1.705 1.291-6.819-9.086 1.705-1.291 2.882 3.836.564-6.442 2.122-1.599zM47.783 17.34l-3.422 1.107-.588-1.856c3.115-1.009 5.752-1.857 8.88-2.865l.588 1.856-3.422 1.107 2.87 8.95-2.036.652zm19.329 6.419-2.539.147-3.52-3.602-2.048.123.22 3.799-2.133.123-.662-11.373 5.384-.295c2.673-.135 4.182 1.561 4.292 3.528.086 1.562-.527 3.173-2.661 3.738l3.655 3.676zm-8.438-8.89.209 3.627 3.25-.184c1.36-.074 1.888-1.02 1.84-1.93-.05-.91-.7-1.783-2.049-1.71zM68.89 24.275l1.705-11.238 2.097.32-1.704 11.238zM84.76 16.923l2 .774-4.072 10.623-1.239-.479v.012l-2.809-9.32-2.747 7.156-1.999-.775 4.06-10.598 1.619.627 2.661 8.582zM91.248 34.43l-6.806-5.09a5857 5857 0 0 1 6.782-9.11l6.807 5.09-1.24 1.672-5.101-3.811-1.558 2.09 4.918 3.676-1.19 1.599-4.93-3.677-1.533 2.054 5.102 3.811zm8.39 7.784c-1.632-.185-2.993-1.02-4.024-2.3-2.649-3.282-1.508-6.504.773-8.373 2.294-1.88 5.85-2.274 8.426.923.969 1.204 1.435 2.704 1.263 4.34l-1.962-.246c.098-1.045-.27-2.041-.896-2.803-1.717-2.14-4.047-1.771-5.519-.566-1.447 1.193-2.293 3.283-.527 5.459.626.775 1.643 1.39 2.686 1.5zM53.388 110.254l.822.16.724-3.652-.846-.172.184-.935 1.864.369-.908 4.586.761.148-.172.873-2.588-.517zM62.501 110.598l.049-.836c-.27.369-.883.54-1.312.516-1.116-.061-2.27-.602-2.183-1.98.073-1.229 1.287-1.77 2.403-1.708 1.129.061 2.282.75 2.208 1.992l-.123 2.077c-.073 1.242-1.25 1.759-2.391 1.685-1.202-.074-2.281-.615-2.208-1.783l1.043.062c-.025.491.613.774 1.202.811.625.05 1.275-.258 1.312-.86zm-2.416-2.25c-.037.615.503.971 1.202 1.008s1.312-.246 1.337-.86c.024-.615-.54-.935-1.227-.984-.662-.037-1.275.221-1.312.836m6.083.037c-.11-1.168.944-1.783 1.975-1.894 1.103-.11 2.354.222 2.477 1.537.135 1.414-.895 1.783-2.06 1.894-.454.049-1.19.233-1.129.836l.05.48 3.433-.333.098.972-4.476.442c-.05-.48-.098-.971-.147-1.463-.123-1.279.993-1.77 2.085-1.881.417-.037 1.177-.184 1.116-.824-.062-.602-.638-.836-1.35-.762-.539.05-1.079.381-1.042.885zM73.6 110.5l.81-.197-.847-3.627-.846.197-.221-.935 1.852-.443 1.067 4.55.749-.172.208.872-2.576.603zM19.882 64.406l.687 3-2.637-1.586-2.636 1.586.686-3-2.318-2.029 3.066-.27 1.202-2.841 1.215 2.841 3.053.27zM111.767 64.406l.687 3-2.637-1.586-2.636 1.586.686-3-2.318-2.029 3.054-.27 1.214-2.841 1.202 2.841 3.066.27zM57.816 9.914v-.086l1.84-.074.908.873.919-.947 1.779-.061v.086l-2.171 2.139-.994.037z"></path></g></g><!-- source: https://football-logos.cc --></svg>