<svg xmlns="http://www.w3.org/2000/svg" viewBox="26 0 67.48 120"><!-- Source: https://football-logos.cc --><g fill="none" fill-rule="evenodd" data-source="https://football-logos.cc"><path fill="#007C48" d="M92.051 18.38h-8.974v27.288l8.974-27.287ZM68.085 43.206V32.568a17.5 17.5 0 0 1-5.446 1.894c-3.777.65-7.766-.036-11.164-1.894v9.493h6.82v3.698h-6.82v1.978h5.623v3.314h-5.623v16.82c2.688.26 5.375.52 8.145.52 2.759 0 5.612-.272 8.465-.544V54.365L66.1 50.806l-1.16 1.217v4.174h-4.215V42.06h4.215v4.575l3.145-3.431ZM27.478 18.403l8.974 27.3v-27.3zm32.287 64.894c-2.77 0-5.529-.26-8.3-.521v8.607l8.3 25.264 8.31-25.3v-8.583c-2.77.261-5.552.533-8.31.533"></path><path fill="#272726" d="m93.481 17.335-16.397.012c0-2.012-.355-4.025-1.042-5.919a17.6 17.6 0 0 0-3.03-5.221 17.4 17.4 0 0 0-4.63-3.883A17.25 17.25 0 0 0 56.746.264a17.4 17.4 0 0 0-5.659 2.072 17.46 17.46 0 0 0-7.636 9.104 17.1 17.1 0 0 0-1.041 5.919H26l12.313 37.446-12.289-5.351v25.572a78 78 0 0 0 5.137 2.32 78 78 0 0 0 5.53 2.036 101 101 0 0 0 5.718 1.657c1.775.462 3.327.805 4.89 1.09L59.74 120l12.441-37.872a60 60 0 0 0 4.737-1.042 102 102 0 0 0 5.895-1.716 85 85 0 0 0 5.741-2.12 68 68 0 0 0 4.902-2.224V49.454l-12.289 5.363L93.48 17.335ZM36.452 45.703l-8.974-27.3h8.974zm5.572 20.303a82 82 0 0 1-2.782-.793l.011-7.648zm9.442 16.77c2.77.26 5.529.521 8.299.521 2.758 0 5.54-.272 8.31-.533v8.584l-8.31 25.298-8.3-25.263zm16.619-14.93c-2.853.273-5.706.546-8.464.546-2.771 0-5.458-.261-8.146-.521V32.568c3.398 1.858 7.387 2.545 11.164 1.894a17.5 17.5 0 0 0 5.446-1.894v35.279Zm12.197-2.635c-.935.296-1.87.569-2.805.829l2.794-8.489zm2.796-46.83h8.973l-8.973 27.287z"></path><path fill="#FFFFFE" d="M92.419 51.035v8.678l-10.418-4.12zM81.321 64.882l.011-8.453 10.833 4.274c-1.775.782-3.54 1.575-5.351 2.273s-3.646 1.303-5.493 1.906M48.584 82.346c.035 0 .07.012.225.036.165.024.45.071.746.118.284.048.58.083.863.13v5.588l-1.94-5.895c.035.012.07.012.106.023m20.522 5.849v-5.564c.64-.094 1.279-.19 1.93-.308z"></path><path fill="#FFFFFE" d="M27.09 74.286V61.571c6.973 3.41 14.466 5.79 21.854 6.95a68.6 68.6 0 0 0 21.996-.06c7.316-1.195 14.656-3.54 21.499-6.89v12.715c-2.878 1.42-5.86 2.652-9.187 3.8-3.327 1.136-7.009 2.202-10.987 2.948-3.977.758-8.263 1.196-12.395 1.207-4.131.013-8.132-.402-11.874-1.077a75 75 0 0 1-10.678-2.722 85.5 85.5 0 0 1-10.228-4.156"></path><path fill="#272726" d="m89.856 70.339-2.202.852c.202.734-.035 1.29-.65 1.527-.948.367-1.788-.13-2.262-1.338-.485-1.266-.26-2.297.604-2.628.674-.26 1.267-.035 1.61.628l2.155-.829c-.782-1.658-2.64-2.273-4.499-1.562-2.108.816-2.948 2.97-2.06 5.267.829 2.12 3.019 3.09 5.126 2.274 1.823-.71 2.676-2.321 2.178-4.191m-11.821 3.906 3.528-.96-.438-1.633-3.54.96-.249-.948 4.085-1.113-.533-1.977-6.37 1.74 2.049 7.518 6.476-1.764-.533-1.942-4.191 1.137zM73.757 70.504l-2.309.355.651 4.084c-.343-.425-.71-.9-.911-1.172l-2.096-2.533-2.32.367 1.207 7.695 2.297-.367-.64-4.084c.344.485.616.84.877 1.148l2.095 2.569 2.356-.367zm-12.874 5.29c-.047-1.302.557-2.19 1.504-2.225 2.096-.083 2.309 4.203.154 4.285-.947.036-1.61-.757-1.658-2.06m-2.379.083c.095 2.44 1.705 4.002 4.108 3.907 2.391-.082 3.895-1.752 3.8-4.191-.082-2.462-1.705-4.025-4.096-3.942-2.403.095-3.895 1.764-3.812 4.226M54.867 71.682l-2.332-.165-.533 7.777 5.824.403.13-2.013-3.48-.237zm-8.257 3.49 1.385.248c.461.071.994.296.887.877-.083.52-.378.663-1.077.532l-1.445-.237zm.45-2.629 1.148.19c.39.071.958.201.864.746-.095.544-.64.474-1.066.402l-1.149-.19.202-1.148Zm-1.99-2.225L43.756 78l3.812.651c.545.095.864.142 1.22.13 2.072 0 3.149-2.829 1.302-3.978 1.278-.39 1.621-2.083.686-3.054-.414-.414-.84-.603-1.918-.781l-3.788-.651Zm-6.354 3.522 1.409-2.001.047 2.415zm-.983 1.397 2.498.722.048 1.148 2.296.663-.556-8.275-2.262-.663-4.924 6.689 2.237.651zm-.64-7.255-2.202-.875-1.87 4.735c-.285.687-.487.84-.924.663-.77-.308-.355-1.053-.13-1.622l-2.013-.805c-.047.095-.071.177-.083.202-.77 1.94-.237 3.326 1.586 4.048.912.367 2.037.379 2.83-.237.39-.331.628-.64.935-1.408z"></path><path fill="#FFFFFE" d="m37.527 55.603-10.43 4.12v-8.678z"></path><g fill="#FFFFFE"><path d="m27.358 60.708 10.844-4.274v8.453c-1.835-.604-3.681-1.208-5.493-1.907-1.8-.698-3.575-1.491-5.35-2.272m23.064 7.016a86 86 0 0 1-7.21-1.41l-5.73-17.438V18.404h4.973c.107 1.61.45 3.197 1.03 4.771a16.5 16.5 0 0 0 2.557 4.64c1.16 1.505 2.687 2.937 4.38 4.133zm18.683-35.775c1.634-1.148 3.114-2.522 4.238-3.92 1.137-1.408 1.918-2.84 2.523-4.45a20.7 20.7 0 0 0 1.195-5.186l4.984-.011v30.46l-5.765 17.51c-1.101.26-2.214.509-3.41.734s-2.486.414-3.765.616z"></path><path d="m64.553 30.981 2.445-3.692 4.395-1.343 1.416 1.065a14.7 14.7 0 0 1-2.143 2.373 17 17 0 0 1-2.663 1.973 14.8 14.8 0 0 1-2.845 1.332zm-.025-29.15-.484 1.61-4.164 1.44-4.25-1.5-.508-1.586c1.562-.351 3.136-.69 4.685-.69 1.574 0 3.147.363 4.721.726"></path></g><path fill="#FFFFFE" d="m48.815 14.179 4.08 1.489 2.312 7.263-2.385 3.438-4.357-1.138-2.301-7.408zM70.75 8.998l-.157 4.249-3.97 1.38-6.368-4.564.061-4.297 4.043-1.369zm2.289-.92c.835 1.404 1.682 2.808 2.179 4.31.496 1.5.641 3.086.786 4.684l-1.658.013-2.772-3.705.181-4.37zM66.9 15.595l3.995-1.464 2.676 3.57-2.41 7.276-4.272 1.307-2.336-3.353zM55.304 4.35l4.067 1.415-.085 4.31-6.197 4.637-3.983-1.441-.267-4.261zm-7.469 4.66.29 4.418-2.748 3.79-1.864-.061c.145-1.623.303-3.244.8-4.77.495-1.513 1.342-2.941 2.19-4.358zM63.753 23.5l2.361 3.341-2.373 3.584h-7.747l-2.385-3.511 2.397-3.401zm-15.579 2.676 4.563 1.198 2.458 3.632-.63 1.743c-.98-.315-1.912-.75-2.856-1.295a17 17 0 0 1-2.676-1.913 16.4 16.4 0 0 1-2.167-2.337z"></path><path fill="#272726" d="m69.106 47.68 5.39-5.618-5.378.016-4.178 4.558V42.06h-4.215v14.136h4.215v-4.174l1.16-1.217 3.006 5.39h5.52zm-17.63-1.92h6.818v-3.7H46.931v14.136h4.544V51.05h5.623v-3.314h-5.623v-1.978Z"></path></g><!-- source: https://football-logos.cc --></svg>