<svg xmlns="http://www.w3.org/2000/svg" viewBox="30.53 137.48 534.22 566.93"><!-- Source: https://football-logos.cc --><path d="m262.719 250.485 6.577 29.01h23.13v78.926h-5.236l10.619 46.836 5.913-25.994v-55.187l16.137-15.745 13.16-57.846h-22.987v-46.102a216 216 0 0 0-12.63-.372q-6.097 0-12.147.342v46.132zm-51.975 287.977h-76.033c24.312 29.108 55.692 50.591 90.579 63.042zm-79.508-4.276V479.4h12.023V338.355h-12.023V283.77c-28.317 35.781-43.715 79.503-43.715 125.208s15.398 89.426 43.715 125.207m3.474-254.691h16.281l-3.273-14.186a209 209 0 0 0-13.008 14.185m309.864 2.234h15.8v84.213h-35.292l-19.763 85.39h55.055v42.346l-43.478 42.432h-31.2l-15.04 64.982c35.629-12.945 67.545-35.337 91.926-65.666 28.947-36.008 44.7-80.214 44.7-126.447 0-46.236-15.755-90.444-44.704-126.453a209 209 0 0 0-14.446-16.17zM401.17 469.256l.302-.307v-.997zm-91.138-302.568V137.48h166.675v104.252a245 245 0 0 1 28.438 35.34l22.86-2.857 2.024 3.443c18.015 30.643 29.925 64.507 34.223 99.834l.498 4.097-20.389 11.084c.372 5.427.564 10.866.564 16.305 0 25.76-4.127 51.282-12.326 75.68l17.051 15.834-1.498 3.844c-12.937 33.208-33.42 63.79-58.504 89.048l-2.87 2.891-21.938-9.099a248 248 0 0 1-41.37 30.003l26.657 46.112-5.397 3c-45.374 25.22-95.368 38.118-147.328 38.118-51.038 0-101.495-13.015-146.304-37.41l-5.478-2.982 26.817-46.231a247.5 247.5 0 0 1-42.44-30.663l-21.668 8.714-2.837-2.857c-25.084-25.26-45.567-55.84-58.505-89.048l-1.498-3.845 16.83-15.63c-8.141-24.339-12.238-49.792-12.238-75.479 0-5.552.2-11.102.588-16.64l-20.143-10.952.498-4.096c4.297-35.327 16.208-69.191 34.223-99.835l2.024-3.443 22.677 2.835a244.7 244.7 0 0 1 28.632-35.507V137.48h166.675v29.183q6.053-.292 12.147-.294c4.225 0 8.435.11 12.63.32" style="fill:#ffe200;fill-rule:evenodd" data-source="https://football-logos.cc"></path><path d="M124.651 143.552h154.533v100.861h-24.068l7.954 35.082H157.222l-8.095-35.082h-24.476zm156.314 214.87 16.834 74.249 5.923-26.039v86.755L347.4 536.11h32.066l-15.58 67.314c-21.219 6.91-43.638 10.521-66.483 10.521-22.44 0-44.47-3.486-65.354-10.159l-16.565-71.793V479.4h-11.737v-40.991h5.445v12.756h60.2v-84.778h-59.795v12.756h-5.85v-40.788h28.48v20.066zm46.897-57.9 12.765-56.109h-24.524V143.552h154.533v100.861h-23.657l-8.637 37.316H401.27v.71l-.899-.786h-53.17zm90.988 65.42L393.023 477.53l-.646.655h-20.206l-8.94-8.651V348.168l8.3-8.27h21.12l8.619 8.51v17.534z" style="fill:#133b80;fill-rule:evenodd"></path><path d="m415.138 614.896 26.642 46.088c-43.971 24.441-92.809 37.354-144.378 37.354-50.644 0-100.018-13.053-143.4-36.67l26.79-46.186a241.3 241.3 0 0 1-49.522-35.415L109.8 588.7c-23.69-23.855-44.156-53.606-57.155-86.973l16.7-15.509c-8.546-24.177-13.193-50.159-13.193-77.24 0-6.77.306-13.47.875-20.095l-19.976-10.86c4.324-35.55 16.391-68.51 33.43-97.492l22.482 2.81a238 238 0 0 1 25.617-33.136v.279h25.717l1.828 7.922C106.217 296.703 81.45 350.016 81.45 408.98c0 116.533 96.705 211.038 215.952 211.038s215.952-94.505 215.952-211.038c0-58.443-24.325-111.344-63.616-149.561l2.067-8.934h24.786a238 238 0 0 1 25.538 33.083l22.666-2.832c17.039 28.982 29.105 61.942 33.43 97.49l-20.217 10.992c.551 6.517.846 13.105.846 19.761 0 27.155-4.681 53.204-13.285 77.436l16.926 15.719c-13 33.367-33.465 63.118-57.155 86.973l-21.737-9.016a241.6 241.6 0 0 1-48.465 34.806m-129.883-442.16q6.036-.295 12.147-.296c4.236 0 8.447.11 12.63.322v25.547a224 224 0 0 0-12.63-.369c-4.077 0-8.125.121-12.147.34z" style="fill:#1b337b;fill-rule:evenodd" data-source="https://football-logos.cc"></path><path d="M137.307 285.566h149.048v66.784h-48.058v-20.067h-40.622v52.932h17.992v-12.757h47.653v72.636h-48.058v-12.757h-17.587v53.134h11.736v46.92h-72.104v-46.92h12.023V332.283h-12.023zM349.672 287.724h48.418l9.251 8.095V287.8h46.962v72.07h-46.962v-14l-12.198-12.044h-26.12l-11.863 11.821v126.46l12.554 12.15h25.206l12.623-12.82v-14.034h46.76v33.717l-39.879 38.918h-64.55l-40.08-39.205V326.635Z" style="fill:#1b337b;fill-rule:evenodd"></path><path d="m201.877 650.791 8.341-21.052 7.77 3.079-8.402 21.202c-1.754 4.427-4.06 7.322-6.931 8.688-2.87 1.366-6.409 1.22-10.602-.441q-3.283-1.302-5.527-3.176l3.344-5.808q1.968 1.476 3.873 2.23c1.954.775 3.571.768 4.839-.016 1.267-.783 2.362-2.35 3.295-4.706M224.12 634.37l7.98 2.483-10.798 34.698-7.979-2.484zM238.153 638.607l8.225 1.474-2.463 13.745 14.063 2.52 2.463-13.745 8.226 1.475-6.41 35.769-8.227-1.475 2.673-14.913-14.063-2.52-2.673 14.913-8.225-1.475zM273.1 680.682l1.898-36.29 8.345.437-1.532 29.29 15.021.786-.366 6.999zM323.84 671.097l-10.86.826-1.968 9.666-8.655.658 8.695-37.105 10.967-.833 14.529 35.339-9.032.686zm-10.09-5.397 8.334-.633q-4.087-10.368-5.355-14.246l-.108.009-1.196 7.012zM359.758 674.577l-9.603 2.017-19.288-33.08 8.97-1.884q12.589 23.084 13.69 26.103l.106-.023q.07-5.965.81-13.585l1.592-15.897 8.654-1.817zM391.484 655.643l-10.29 3.566.56 9.849-8.202 2.842-1.047-38.096 10.392-3.601 23.055 30.47-8.56 2.965zm-11.13-2.648 7.895-2.736q-6.593-8.985-8.808-12.41l-.102.035.63 7.085z" style="fill:#e2001d;fill-rule:evenodd" data-source="https://football-logos.cc"></path><!-- source: https://football-logos.cc --></svg>