<svg xmlns="http://www.w3.org/2000/svg" viewBox="42.71 7.33 856.68 1114.94"><!-- Source: https://football-logos.cc --><defs data-source="https://football-logos.cc"><clipPath id="a" clipPathUnits="userSpaceOnUse"><path d="M-674.539 584.355H34.122v-850.394h-708.66Z"></path></clipPath><clipPath id="b" clipPathUnits="userSpaceOnUse"><path d="M-152.623 63.812h708.661v-850.394h-708.66Z"></path></clipPath><clipPath id="c" clipPathUnits="userSpaceOnUse"><path d="M-313.453 19.93h708.66v-850.394h-708.66Z"></path></clipPath><clipPath id="d" clipPathUnits="userSpaceOnUse"><path d="M-473.646 35.244h708.661V-815.15h-708.66Z"></path></clipPath><clipPath id="e" clipPathUnits="userSpaceOnUse"><path d="M-627.588 241.602h708.66v-850.394h-708.66Z"></path></clipPath><clipPath id="f" clipPathUnits="userSpaceOnUse"><path d="M-313.453 593.512h708.66v-850.394h-708.66Z"></path></clipPath><clipPath id="g" clipPathUnits="userSpaceOnUse"><path d="M-473.646 602.912h708.661v-850.394h-708.66Z"></path></clipPath><clipPath id="h" clipPathUnits="userSpaceOnUse"><path d="M-611.01 583.752H97.65v-850.394h-708.66Z"></path></clipPath><clipPath id="i" clipPathUnits="userSpaceOnUse"><path d="M-152.623 576.157h708.661v-850.394h-708.66Z"></path></clipPath><clipPath id="j" clipPathUnits="userSpaceOnUse"><path d="M-233.096 35.194h708.661V-815.2h-708.661Z"></path></clipPath><clipPath id="k" clipPathUnits="userSpaceOnUse"><path d="M-233.096 573.51h708.661v-850.395h-708.661Z"></path></clipPath><clipPath id="l" clipPathUnits="userSpaceOnUse"><path d="M-393.926 20.004h708.66V-830.39h-708.66Z"></path></clipPath><clipPath id="m" clipPathUnits="userSpaceOnUse"><path d="M-393.926 587.61h708.66v-850.394h-708.66Z"></path></clipPath><clipPath id="n" clipPathUnits="userSpaceOnUse"><path d="M-554.06 63.858H154.6v-850.394h-708.66Z"></path></clipPath><clipPath id="o" clipPathUnits="userSpaceOnUse"><path d="M-554.06 601.69H154.6v-850.393h-708.66Z"></path></clipPath><clipPath id="p" clipPathUnits="userSpaceOnUse"><path d="M-289.099 68.433h708.661V-781.96h-708.66Z"></path></clipPath><clipPath id="q" clipPathUnits="userSpaceOnUse"><path d="M-328.38 99.255h708.66v-850.394h-708.66Z"></path></clipPath><clipPath id="r" clipPathUnits="userSpaceOnUse"><path d="M-386.505 125.488h708.66v-850.394h-708.66Z"></path></clipPath><clipPath id="s" clipPathUnits="userSpaceOnUse"><path d="M-413.639 85.225h708.661V-765.17h-708.66Z"></path></clipPath><clipPath id="t" clipPathUnits="userSpaceOnUse"><path d="M-390.34 125.492h708.662v-850.394H-390.34Z"></path></clipPath><clipPath id="u" clipPathUnits="userSpaceOnUse"><path d="M-274.571 138.587h708.66v-850.394h-708.66Z"></path></clipPath><clipPath id="v" clipPathUnits="userSpaceOnUse"><path d="M-423.177 138.37h708.66v-850.395h-708.66Z"></path></clipPath><clipPath id="w" clipPathUnits="userSpaceOnUse"><path d="M-323.047 76.882h708.661v-850.394h-708.66Z"></path></clipPath><clipPath id="x" clipPathUnits="userSpaceOnUse"><path d="M-351.834 433.033h708.66V-417.36h-708.66Z"></path></clipPath><clipPath id="y" clipPathUnits="userSpaceOnUse"><path d="M-466.36 318.098h708.661v-850.394h-708.66Z"></path></clipPath><clipPath id="z" clipPathUnits="userSpaceOnUse"><path d="M-352.137 421.857h708.661v-850.394h-708.66Z"></path></clipPath><clipPath id="A" clipPathUnits="userSpaceOnUse"><path d="M-451.467 348.765h708.66V-501.63h-708.66Z"></path></clipPath><clipPath id="B" clipPathUnits="userSpaceOnUse"><path d="M-346.92 204.818h708.66v-850.394h-708.66Z"></path></clipPath><clipPath id="C" clipPathUnits="userSpaceOnUse"><path d="M-351.356 226.734h708.66V-623.66h-708.66Z"></path></clipPath><clipPath id="D" clipPathUnits="userSpaceOnUse"><path d="M-345.863 231.329h708.661v-850.394h-708.66Z"></path></clipPath><clipPath id="E" clipPathUnits="userSpaceOnUse"><path d="M-356.009 211.578h708.661v-850.394h-708.66Z"></path></clipPath><clipPath id="F" clipPathUnits="userSpaceOnUse"><path d="M-362.313 212.973h708.661v-850.394h-708.661Z"></path></clipPath><clipPath id="G" clipPathUnits="userSpaceOnUse"><path d="M-413.666 230.517h708.661v-850.394h-708.66Z"></path></clipPath><clipPath id="H" clipPathUnits="userSpaceOnUse"><path d="M-300.466 284.784h708.66V-565.61h-708.66Z"></path></clipPath><clipPath id="I" clipPathUnits="userSpaceOnUse"><path d="M-320.017 295.31h708.66v-850.395h-708.66Z"></path></clipPath><clipPath id="J" clipPathUnits="userSpaceOnUse"><path d="M-406.14 284.784h708.661V-565.61H-406.14Z"></path></clipPath><clipPath id="K" clipPathUnits="userSpaceOnUse"><path d="M-386.589 295.31h708.661v-850.395h-708.66Z"></path></clipPath><clipPath id="L" clipPathUnits="userSpaceOnUse"><path d="M-386.331 331.514h708.66V-518.88h-708.66Z"></path></clipPath><clipPath id="M" clipPathUnits="userSpaceOnUse"><path d="M-320.208 331.514h708.66V-518.88h-708.66Z"></path></clipPath><clipPath id="N" clipPathUnits="userSpaceOnUse"><path d="M-64.744 596.21h708.66v-850.394h-708.66Z"></path></clipPath><clipPath id="O" clipPathUnits="userSpaceOnUse"><path d="M-641.985 589.068H66.676v-850.394h-708.66Z"></path></clipPath><clipPath id="P" clipPathUnits="userSpaceOnUse"><path d="M-355.723 480.08h708.661v-850.394h-708.66Z"></path></clipPath><clipPath id="Q" clipPathUnits="userSpaceOnUse"><path d="M-623.193 476.698h708.66v-850.394h-708.66Z"></path></clipPath><clipPath id="R" clipPathUnits="userSpaceOnUse"><path d="M-153.898 507.245h708.66V-343.15h-708.66Z"></path></clipPath><clipPath id="S" clipPathUnits="userSpaceOnUse"><path d="M-203.709 520.027h708.661v-850.394h-708.661Z"></path></clipPath><clipPath id="T" clipPathUnits="userSpaceOnUse"><path d="M-253.16 506.82H455.5v-850.394h-708.66Z"></path></clipPath><clipPath id="U" clipPathUnits="userSpaceOnUse"><path d="M-407.474 517.22h708.661v-850.393h-708.66Z"></path></clipPath><clipPath id="V" clipPathUnits="userSpaceOnUse"><path d="M-458.714 528.697h708.66v-850.394h-708.66Z"></path></clipPath><clipPath id="W" clipPathUnits="userSpaceOnUse"><path d="M-484.167 557.53h708.661v-850.393h-708.66Z"></path></clipPath><clipPath id="X" clipPathUnits="userSpaceOnUse"><path d="M-573.59 548.564h708.66V-301.83h-708.66Z"></path></clipPath><clipPath id="Y" clipPathUnits="userSpaceOnUse"><path d="M-512.7 523.334h708.66V-327.06H-512.7Z"></path></clipPath><clipPath id="Z" clipPathUnits="userSpaceOnUse"><path d="M-411.175 679.874h708.661V-170.52h-708.66Z"></path></clipPath><clipPath id="aa" clipPathUnits="userSpaceOnUse"><path d="M-373.75 632.129h708.661v-850.394H-373.75Z"></path></clipPath><clipPath id="ab" clipPathUnits="userSpaceOnUse"><path d="M-397.965 648.444h708.66V-201.95h-708.66Z"></path></clipPath><clipPath id="ac" clipPathUnits="userSpaceOnUse"><path d="M-407.362 672.404H301.3V-177.99h-708.66Z"></path></clipPath><clipPath id="ad" clipPathUnits="userSpaceOnUse"><path d="M-344.471 645.974h708.66V-204.42h-708.66Z"></path></clipPath><clipPath id="ae" clipPathUnits="userSpaceOnUse"><path d="M-309.975 671.786h708.661v-850.394h-708.66Z"></path></clipPath><clipPath id="af" clipPathUnits="userSpaceOnUse"><path d="M-369.402 664.002H339.26v-850.394H-369.4Z"></path></clipPath><clipPath id="ag" clipPathUnits="userSpaceOnUse"><path d="M-341.283 722.4h708.661v-850.394h-708.66Z"></path></clipPath><clipPath id="ah" clipPathUnits="userSpaceOnUse"><path d="M-402.349 703.901h708.661v-850.394h-708.66Z"></path></clipPath><clipPath id="ai" clipPathUnits="userSpaceOnUse"><path d="M-372.954 730.935h708.661V-119.46h-708.66Z"></path></clipPath></defs><path d="M0 0s-1.055-7.777-9.06-13.118c-3.591-2.397-8.654-4.971-15.523-4.971-19.886 0-20.06 11.364-20.06 11.364v5.102L-49.455-.58s-11.568-26.329-45.354-67.281c-18.398-22.306-43.526-48.829-76.631-78.069-62.558-55.253-133.523-102.389-149.815-111.422-16.291 9.033-87.256 56.169-149.814 111.422-33.105 29.24-58.233 55.763-76.631 78.069-19.708 23.887-31.856 42.8-38.558 54.413l-12.977-4.327c-1.984-3.308-6.839-7.416-18.721-7.416-6.868 0-11.737 2.731-15.328 5.127-8.004 5.342-9.225 13.107-9.225 13.107v113.201c3.351 12.871 17.299 16.186 23.684 16.263 5.696.069 10.016-.986 10.016-.986l.101 232.665c4.116.452 32.977 2.265 50.73 22.437 7.839 8.906 16.462 21.723 15.538 39.135-3.073 57.92-76.963 71.182-76.963 71.182 35.54 19.816 88.257 48.349 164.626 71.965 78.749 24.351 133.522 19.57 133.522 19.57s54.774 4.781 133.523-19.57c76.368-23.616 129.086-52.149 164.626-71.965 0 0-73.891-13.262-76.964-71.182-.923-17.412 7.7-30.229 15.538-39.135 17.753-20.172 46.615-21.985 50.731-22.437v-225.46s4.348.823 10.046.823c5.693 0 20.307-2.999 23.655-15.87z" clip-path="url(#a)" style="fill:#231e20;fill-opacity:1;fill-rule:nonzero;stroke:none" transform="matrix(1.33333 0 0 -1.33333 899.385 779.14)"></path><path d="M0 0v-394.299c-25.769-6.756-45.091-16.609-53.513-16.609-7.758 0-16.01 3.634-20.169 5.752l-.062 6.13.093 221.235c24.768 4.7 39.348 15.967 47.461 25.186 13.562 15.406 19.708 31.277 18.796 48.516C-8.902-75.673-24.927-52.13-53.738-36a137 137 0 0 1-10.799 5.415C-47.271-21.46-25.734-10.792 0 0" clip-path="url(#b)" style="fill:#0059b0;fill-opacity:1;fill-rule:nonzero;stroke:none" transform="matrix(1.33333 0 0 -1.33333 203.497 85.082)"></path><path d="M0 0v-455.767q-.232-.007-.464-.008c-22.371-.22-46.769 13.413-79.893 20.142v420.369C-48.156-6.03-20.636-1.824 0 0" clip-path="url(#c)" style="fill:#0059b0;fill-opacity:1;fill-rule:nonzero;stroke:none" transform="matrix(1.33333 0 0 -1.33333 417.938 26.574)"></path><path d="M0 0v-448.999c-17.417 3.997-28.394 9.176-48.558 9.176-9.493 0-21.452-1.987-31.161-4.124V15.24C-59.137 13.377-31.853 9.149 0 0" clip-path="url(#d)" style="fill:#0059b0;fill-opacity:1;fill-rule:nonzero;stroke:none" transform="matrix(1.33333 0 0 -1.33333 631.528 46.992)"></path><path d="M0 0v-218.027c-7.475-3.378-39.85-17.513-73.527-24.795v420.566c25.684-10.776 47.178-21.428 64.421-30.539a137 137 0 0 1-10.8-5.415c-28.811-16.129-44.836-39.672-46.343-68.089-.912-17.238 5.233-33.109 18.8-48.516C-39.34 15.967-24.764 4.704 0 0" clip-path="url(#e)" style="fill:#0059b0;fill-opacity:1;fill-rule:nonzero;stroke:none" transform="matrix(1.33333 0 0 -1.33333 836.784 322.137)"></path><path d="M0 0v-206.265c-22.963 16.133-51.623 37.434-80.357 61.402V20.002C-48.423 13.478-27.222.452-.406-.004-.271-.004-.135 0 0 0" clip-path="url(#f)" style="fill:#0059b0;fill-opacity:1;fill-rule:nonzero;stroke:none" transform="matrix(1.33333 0 0 -1.33333 417.938 791.35)"></path><path d="M0 0v-135.316c-28.455-23.748-56.849-44.883-79.719-60.977V15.302a67 67 0 0 0 8.406.124C-52.918 14.591-29.337 5.38 0 0" clip-path="url(#g)" style="fill:#0059b0;fill-opacity:1;fill-rule:nonzero;stroke:none" transform="matrix(1.33333 0 0 -1.33333 631.528 803.883)"></path><path d="M0 0c-4.515-8.65-16.937-30.423-41.423-60.096A539 539 0 0 0-56.95-78.081v60.143C-30.964-11.75-10.993-1.871 0 0" clip-path="url(#h)" style="fill:#0059b0;fill-opacity:1;fill-rule:nonzero;stroke:none" transform="matrix(1.33333 0 0 -1.33333 814.68 778.336)"></path><path d="M0 0v-85.803a532 532 0 0 0-15.642 18.108C-33.596-45.93-45.037-28.51-51.728-17.177v.004C-43.228-13.822-20.068-4.974 0 0" clip-path="url(#i)" style="fill:#0059b0;fill-opacity:1;fill-rule:nonzero;stroke:none" transform="matrix(1.33333 0 0 -1.33333 203.497 768.21)"></path><path d="M0 0v-420.37c-10.826 2.2-22.584 3.661-35.513 3.661-16.319 0-31.517-2.683-44.96-6.208v394.299a711 711 0 0 0 10.007 4.117 698 698 0 0 0 6.2 2.466q1.043.41 2.098.823 1.052.41 2.115.819 1.062.413 2.129.82 1.664.639 3.344 1.271A759 759 0 0 0-25.665-8.028q1.19.4 2.385.792 2.801.924 5.655 1.84c.893.286 1.789.576 2.69.858q1.36.434 2.733.862 1.37.429 2.752.858Q-4.662-1.339 0 0" clip-path="url(#j)" style="fill:#fff300;fill-opacity:1;fill-rule:nonzero;stroke:none" transform="matrix(1.33333 0 0 -1.33333 310.795 46.925)"></path><path d="M0 0v-164.865a1004 1004 0 0 0-16.04 13.667c-.325.282-.654.568-.978.854q-.98.851-1.952 1.708-.98.858-1.952 1.717a822 822 0 0 0-5.369 4.781 814.7 814.7 0 0 0-8.932 8.132c-.739.68-1.473 1.365-2.207 2.045l-2.188 2.044q-1.281 1.201-2.551 2.401-1.125 1.066-2.25 2.137-.793.756-1.581 1.512c-.421.401-.838.807-1.26 1.209a870 870 0 0 0-7.181 7.004c-.619.611-1.229 1.218-1.84 1.828a538 538 0 0 0-3.204 3.212c-.371.379-.746.754-1.117 1.129q-.968.982-1.929 1.963a674 674 0 0 0-3.915 4.032q-.736.76-1.461 1.523c-.862.896-1.717 1.797-2.563 2.69-.417.44-.835.881-1.245 1.322q-.658.695-1.306 1.391-.585.623-1.16 1.245l-1.36 1.465a470 470 0 0 0-3.305 3.606q-.817.899-1.627 1.797v85.803c14.518 3.587 30.098 6.297 44.02 6.297C-22.677 3.649-10.73 2.192 0 0" clip-path="url(#k)" style="fill:#fff300;fill-opacity:1;fill-rule:nonzero;stroke:none" transform="matrix(1.33333 0 0 -1.33333 310.795 764.68)"></path><path d="M0 0v-459.188c-8.581-1.886-15.403-3.892-17.219-4.746-7.692-3.629-13.985-6.134-16.002-7.089 11.437 5.848 17.494 16.671 11.363 22.801-4.321 4.321-15.712 3.884-20.872 2.261-9.091-2.86-19.874-9.446-37.743-9.732V.073c.209.02.417.035.622.055.789.065 1.573.131 2.342.193q.086.01.178.015a485 485 0 0 0 3.166.236q1.692.12 3.308.217c.236.015.468.03.704.042.464.027.928.054 1.384.077l1.086.058q.45.025.897.043.44.024.881.042c.781.035 1.55.07 2.303.097l.642.023q1.832.07 3.533.105.737.018 1.445.03.315.011.623.016.201-.001.398.004 1.189.017 2.303.023c.283.004.557.004.831.004q.412.005.812.004c7.216 0 11.209-.329 11.252-.333l1.163-.1 1.102.1c.015.004 4.016.333 11.228.333.278 0 .564 0 .85-.004q.431.001.874-.004c.17 0 .336 0 .51-.004a271 271 0 0 0 2.984-.039l.885-.023c.65-.011 1.314-.031 1.995-.05q.793-.024 1.611-.054.707-.023 1.431-.05.598-.028 1.213-.051c.889-.038 1.797-.085 2.721-.131q.93-.053 1.886-.104A331 331 0 0 0-3.243.278C-2.18.193-1.102.1 0 0" clip-path="url(#l)" style="fill:#fff300;fill-opacity:1;fill-rule:nonzero;stroke:none" transform="matrix(1.33333 0 0 -1.33333 525.235 26.672)"></path><path d="M0 0v-211.596q-.829-.585-1.65-1.159c-1.094-.765-2.173-1.523-3.239-2.265a1156 1156 0 0 0-11.368-7.823l-1.573-1.067-1.542-1.04q-.488-.33-.974-.657-2.088-1.402-4.047-2.705a222 222 0 0 1-1.233-.816c-.425-.286-.851-.564-1.264-.839q-.614-.4-1.21-.796a3 3 0 0 0-.139-.089q-.388-.256-.769-.506a610 610 0 0 0-8.245-5.315q-.225-.145-.452-.286l-.827-.522q-.459-.29-.901-.564-.41-.26-.804-.502c-.139-.086-.27-.171-.405-.252q-1.044.644-2.204 1.376l-1.186.75c-.201.128-.406.255-.615.391q-.311.195-.63.398-.098.058-.197.123-.54.349-1.098.704a756 756 0 0 0-4.104 2.651q-.518.337-1.048.684-.607.402-1.233.808c-.386.259-.784.518-1.183.781-.421.278-.842.557-1.271.843-.329.212-.657.433-.99.653q-1.466.974-3.007 2.006-.539.36-1.09.73-.442.296-.885.596c-.363.239-.727.487-1.094.734l-2.276 1.542a876 876 0 0 0-4.666 3.185l-.958.657c-.646.445-1.295.889-1.952 1.345a1034 1034 0 0 0-8.144 5.674V-5.902c12.017.147 22.843 2.953 22.843 2.953s2.087-9.914 14.089-9.914c9.241 0 13.814 3.127 23.276 7.521C-14.634-2.822-8.237-.649 0 0" clip-path="url(#m)" style="fill:#fff300;fill-opacity:1;fill-rule:nonzero;stroke:none" transform="matrix(1.33333 0 0 -1.33333 525.235 783.48)"></path><path d="M0 0v-420.567c-12.214-2.643-24.594-4.383-36.027-4.383-19.933 0-33.434 2.049-44.388 4.565V28.614a475 475 0 0 0 9.276-2.768q1.382-.429 2.752-.858 1.375-.428 2.733-.862 1.363-.43 2.713-.865 1.352-.435 2.691-.87.9-.29 1.793-.588 1.776-.577 3.533-1.167 1.321-.44 2.632-.881 1.12-.376 2.234-.758.835-.282 1.67-.572.835-.282 1.666-.572a760 760 0 0 0 12.299-4.367q1.02-.37 2.037-.746a688 688 0 0 0 10.869-4.09q1.246-.476 2.481-.958a780 780 0 0 0 8.434-3.336c.421-.17.846-.34 1.264-.51a589 589 0 0 0 6.52-2.671C-1.871.785-.932.39 0 0" clip-path="url(#n)" style="fill:#fff300;fill-opacity:1;fill-rule:nonzero;stroke:none" transform="matrix(1.33333 0 0 -1.33333 738.748 85.144)"></path><path d="M0 0v-60.142a446 446 0 0 0-3.278-3.606 342 342 0 0 0-1.662-1.809 346 346 0 0 0-1.677-1.809 400 400 0 0 0-1.693-1.809c-.564-.607-1.137-1.21-1.709-1.817a708 708 0 0 0-3.671-3.85q-.768-.8-1.547-1.6-.645-.671-1.294-1.337-.996-1.022-1.999-2.045a570 570 0 0 0-3.962-4.004 701 701 0 0 0-8.228-8.125 763 763 0 0 0-13.359-12.678 853.605 853.605 0 0 0-15.588-14.107 908 908 0 0 0-12.059-10.467c-.723-.619-1.45-1.233-2.172-1.848q-1.084-.922-2.173-1.84a975 975 0 0 0-4.344-3.645V-1.221c11.441-2.099 23.763-3.614 36.99-3.823C-27.679-5.291-13.076-3.115 0 0" clip-path="url(#o)" style="fill:#fff300;fill-opacity:1;fill-rule:nonzero;stroke:none" transform="matrix(1.33333 0 0 -1.33333 738.748 802.254)"></path><path d="M0 0h-11.476c-3.363-4.471-12.538-10.24-19.908-12.284v-12.654h13.241v-48.831H0Z" clip-path="url(#p)" style="fill:#231e20;fill-opacity:1;fill-rule:nonzero;stroke:none" transform="matrix(1.33333 0 0 -1.33333 385.465 91.244)"></path><path d="M0 0s-1.592-2.899-5.056-2.899c-4.383 0-4.99 3.359-5.059 4.685v11.928s.085 5.044 4.781 5.044c4.7 0 5.334-3.394 5.334-4.523zm-4.116 32.325c-1.902 0-3.947-.198-5.999-.654-8.133-1.809-16.392-7.668-16.392-21.351V6.725c0-17.3 10.254-21.459 16.392-22.275a20 20 0 0 1 2.566-.177c5.176 0 8.624 2.218 8.624 2.218v-13.609a3.67 3.67 0 0 0-3.669-3.668h-2.504a3.67 3.67 0 0 0-3.668 3.668v6.652h-17.266v-3.537c.031-12.117 9.137-20.408 20.408-20.408h3.452c11.271 0 20.408 7.653 20.408 20.408V12.67c0 7.216-3.958 19.655-22.352 19.655" clip-path="url(#q)" style="fill:#231e20;fill-opacity:1;fill-rule:nonzero;stroke:none" transform="matrix(1.33333 0 0 -1.33333 437.84 132.34)"></path><path d="M0 0a4.45 4.45 0 0 0-4.449-4.453h-1.148A4.454 4.454 0 0 0-10.046 0v40.279a4.45 4.45 0 0 0 4.449 4.449h1.148A4.45 4.45 0 0 0 0 40.279Zm-2.014 58.558h-6.06c-10.398 0-18.828-8.43-18.828-18.832V.653c0-10.401 8.43-18.831 18.828-18.831h6.06c10.398 0 18.828 8.43 18.828 18.831v39.073c0 10.402-8.43 18.832-18.828 18.832" clip-path="url(#r)" style="fill:#231e20;fill-opacity:1;fill-rule:nonzero;stroke:none" transform="matrix(1.33333 0 0 -1.33333 515.34 167.318)"></path><path d="M0 0v16.756h40.584V1.507S26.032-22.234 26.032-56.76H5.508S8.03-23.626 23.162.203z" clip-path="url(#s)" style="fill:#231e20;fill-opacity:1;fill-rule:nonzero;stroke:none" transform="matrix(1.33333 0 0 -1.33333 551.518 113.633)"></path><path d="M0 0c0-4.565-3.714-8.283-8.283-8.283h-1.148c-4.565 0-8.283 3.718-8.283 8.283v40.283c0 4.569 3.718 8.283 8.283 8.283h1.148c4.569 0 8.283-3.714 8.283-8.283Zm-5.852 54.947h-6.057c-8.387 0-15.213-6.825-15.213-15.217V.657c0-8.391 6.826-15.217 15.213-15.217h6.057C2.539-14.56 9.365-7.734 9.365.657V39.73c0 8.392-6.826 15.217-15.217 15.217" clip-path="url(#t)" style="fill:#fff;fill-opacity:1;fill-rule:nonzero;stroke:none" transform="matrix(1.33333 0 0 -1.33333 520.453 167.323)"></path><path d="M0 0v48.832h-13.241v6.407C-6.603 57.652.778 62.286 4.726 66.538h6.186V0Z" clip-path="url(#u)" style="fill:#fff;fill-opacity:1;fill-rule:nonzero;stroke:none" transform="matrix(1.33333 0 0 -1.33333 366.095 184.783)"></path><path d="M0 0c1.179 9.289 5.196 33.332 16.675 51.409l3.564 5.612-26.162-.229v9.492H27.43V55.631C24.813 51.02 13.772 29.874 12.929 0Z" clip-path="url(#v)" style="fill:#fff;fill-opacity:1;fill-rule:nonzero;stroke:none" transform="matrix(1.33333 0 0 -1.33333 564.237 184.493)"></path><path d="M0 0c-6.054 0-8.338-5.142-8.396-8.599l-.001-12.084.005-.094c.197-3.742 2.585-8.111 8.67-8.111 4.423 0 7.251 3.001 8.225 4.774l.447.813v15.163C8.95-4.867 6.566 0 0 0m-.29-63.169c-9.676 0-16.724 7.024-16.792 16.714h10.034v-3.037c0-4.016 3.268-7.283 7.284-7.283H2.74c4.017 0 7.284 3.267 7.284 7.283v20.236l-5.572-3.586c-.001 0-2.712-1.643-6.667-1.643-.455 0-1.186.025-2.087.145-6.049.804-13.256 4.699-13.256 18.692v3.595c0 12.236 7.375 16.446 13.562 17.822 1.693.376 3.447.567 5.213.567 17.386 0 18.737-12.277 18.737-16.039v-36.673c0-11.6-8.434-16.793-16.792-16.793z" clip-path="url(#w)" style="fill:#fff;fill-opacity:1;fill-rule:nonzero;stroke:none" transform="matrix(1.33333 0 0 -1.33333 430.729 102.51)"></path><path d="M0 0c-69.283 3.769-120.362 52.07-120.362 117.255v144.457a3.014 3.014 0 0 0 3.015 3.014h237.622a3.014 3.014 0 0 0 3.015-3.014V114.934C123.29 49.749 64.529 0 0 0" clip-path="url(#x)" style="fill:#231e20;fill-opacity:1;fill-rule:nonzero;stroke:none" transform="matrix(1.33333 0 0 -1.33333 469.113 577.378)"></path><path d="M0 0c0-28.471-12.276-55.253-34.562-75.414-10.668-9.651-23.002-17.242-36.658-22.561-13.88-5.407-28.366-8.167-43.07-8.194-31.489 1.763-60.003 13.528-80.31 33.136-10.003 9.659-17.796 20.93-23.161 33.504-5.55 12.995-8.36 27.075-8.36 41.848v136.665c0 1.129.912 2.045 2.041 2.045l222.031.224A2.046 2.046 0 0 0 0 139.208zm-231.053 145.957V2.319c0-15.445 2.945-30.175 8.755-43.785 5.627-13.18 13.795-24.992 24.273-35.115 21.189-20.458 50.874-32.719 83.604-34.52 15.36.016 30.496 2.884 44.991 8.531 14.216 5.538 27.06 13.447 38.176 23.5C-7.92-57.962 4.928-29.882 4.928 0v145.957z" clip-path="url(#y)" style="fill:#fff;fill-opacity:1;fill-rule:nonzero;stroke:none" transform="matrix(1.33333 0 0 -1.33333 621.813 424.131)"></path><path d="M0 0c-30.884 1.744-58.83 13.27-78.701 32.459-9.771 9.436-17.382 20.443-22.622 32.716-5.418 12.694-8.165 26.456-8.165 40.904v136.296h221.3V103.758c0-27.778-11.992-53.925-33.768-73.624C67.593 20.68 55.509 13.243 42.128 8.029 28.551 2.739 14.377.038 0 0" clip-path="url(#z)" style="fill:#fff300;fill-opacity:1;fill-rule:nonzero;stroke:none" transform="matrix(1.33333 0 0 -1.33333 469.516 562.476)"></path><path d="M0 0c0-2.868-1.921-3.216-1.921-3.216s-.166-3.71-2.137-4.495l-1.709 4.522s-1.708.058-2.725 2.292l-2.544.087s-5.604-3.739-7.517-3.913l-.112-.669s8.318-4.665 8.26-8.928c-.058-4.26-.232-6.436-4.232-5.161 0 0-1.218-2.23-5.535-1.302 0 0 1.909.549 2.346 2.462 0 0-4.001 1.248-6.668 4.147s-4.464 6.146-7.773 8.001c-3.292 1.846-5.766 2.841-7.881 2.667-2.114-.174-4.607-.723-7.506-5.423-2.899-4.692-8.117-3.478-8.117-3.478s-2.06-3.332 1.446-4.608c0 0-5.419-.637-5.261 3.769 0 0-3.401.043-3.173 4.217.174 3.173 2.868 3.552 4.986 4.043 1.481.348 2.675.742 2.536 4.082-.047 1.109-.066 2.396-.912 3.138-3.568 3.131-8.485 5.311-8.485 5.311.294-2.621.619-5.543.831-8.616.565-8.175-3.911-10.088-3.911-10.088-3.711 17.305-10.293 27.366-16.002 27.613-4.87.209-6.482-3.131-6.482-3.131v-30.056c0-4.651 3.807-8.575 8.457-8.47 4.342.099 6.196 3.51 6.196 5.784 0 2.304-1.419 3.854-1.419 3.854 6.811 3.394 12.234-3.796 13.188-5.914.959-2.114 1.307-2.551 5.713-2.64 4.407-.085 11.897 1.508 15.415 1.198 3.958-.347 8.631-6.543 8.631-6.543 6.609-8.739 5.202-15.233 5.202-15.233-3.506 1.793-7.549 8.84-13.288 8.84-5.74 0-16.134-14.004-30.439-14.004-8.059 0-13.029 4.437-16.655 7.568-3.625 3.131-5.539 2.899-5.539 2.899l-.753-5.102c1.944-1.187 7.046-.727 7.046-.727l-9.74-10.927-9.741 10.927s5.102-.46 7.047.727l-.754 5.102s-1.913.232-5.539-2.899c-3.622-3.131-8.596-7.568-16.655-7.568-14.305 0-24.698 14.004-30.438 14.004s-9.783-7.047-13.289-8.84c0 0-1.407 6.494 5.203 15.233 0 0 4.673 6.196 8.631 6.543 3.517.31 11.008-1.283 15.414-1.198 4.406.089 4.754.526 5.713 2.64.954 2.118 6.377 9.308 13.188 5.914 0 0-1.419-1.55-1.419-3.854 0-2.275 1.86-5.688 6.202-5.784 4.647-.102 8.451 3.821 8.451 8.47v30.056s-1.612 3.34-6.478 3.131c-5.713-.247-12.299-10.591-16.009-27.895 0 0-4.329 3.564-3.908 10.37.189 3.073.506 5.988.804 8.604-.398-.178-5.044-2.303-8.457-5.299-.847-.742-.866-2.029-.912-3.138-.14-3.34 1.055-3.734 2.535-4.082 2.118-.491 4.812-.87 4.986-4.043.228-4.174-3.173-4.217-3.173-4.217.158-4.406-5.261-3.769-5.261-3.769 3.506 1.276 1.45 4.608 1.45 4.608s-5.218-1.214-8.117 3.478c-2.899 4.7-5.392 5.249-7.51 5.423-2.114.174-4.754-.552-7.881-2.667-3.131-2.114-5.106-5.102-7.773-8.001s-6.667-4.147-6.667-4.147c.436-1.913 2.35-2.462 2.35-2.462-4.322-.928-5.539 1.302-5.539 1.302-4.001-1.275-4.175.901-4.233 5.161-.058 4.263 8.264 8.928 8.264 8.928l-.116.669c-1.913.174-7.8 3.911-7.8 3.911l-2.261-.085c-1.013-2.234-2.725-2.292-2.725-2.292l-1.708-4.522c-1.972.785-2.138 4.495-2.138 4.495s-1.921.348-1.921 3.216c0 3.452 4.233 8.886 8.898 8.844 5.16-.047 12.786-6.927 21.772-7.395 1.303-.065 3.332 1.307 3.332 1.307-3.042 4.317-9.825 5.214-9.825 5.214-3.278-.468-4.263 1.917-4.263 1.917-1.187-.147-3.216-1.333-3.216-1.333-.29 1.94 1.94 4.147 1.94 4.147-.027 4 2.246 6.493 5.423 6.493 4.719-.003 11.422-10.973 19.434-11.22 6.44-.197 21.366 10.566 21.366 10.566-1.805 1.87-4.916 6.456-4.579 7.565 0 0-.391 1.145 5.218 2.478 5.867 1.395 12.306 5.96 13.872 7.742 1.565 1.782 5.392 5.175 5.171 13.13-.216 7.958-4.174 8.654-5.477 8.523-1.306-.128-3.784-.65-5.523-5.914-1.739-5.261-4.008-12.45-15.132-13.478-5.415-.499-7.738.131-7.738.131s4.897 5.464 7.332 11.899c2.435 6.436 2.667 8.711 2.667 10.191 0 2.277-1.129 6.262-3.784 6.436-2.651.173-5.477-8.09-5.477-8.09s-4.522-11.348-8.523-15.349-6.435-5.914-13.176-5.956c-6.741-.047-15.19 1.434-20.698 10.683 0 0 11.149 1.034 20.437 8.579 6.957 5.655 10.09 11.045 10.09 15.262 0 4.22-2.524 6.002-3.305 6.134-.784.127-3.262-1.566-7.177-6.436-3.912-4.87-8.303-9.74-13.219-9.524-4.913.217-14.696 6.393-13.868 21.22 0 0 2.477-4.348 8.217-4.263 5.74.089 14.823 5.307 19.998 12.693-.197-.131-6.837-4.51-12.504-4.081-5.755.432-16.438 2.566-15.677 17.173 0 0 5.311-3.131 11.488-3 6.172.132 8.565 2.915 8.781 4.828 0 0-.232.954-4.592 1.523-4.363.564-12.697 1.565-12.886 10.088-.131 5.871 1.218 6.041 1.218 6.041s2.52-3.606 9.087-3.521c6.566.089 12.264 5.914 12.264 5.914s1.983 1.538 2.462 1.928c0 0-2.335.723-3.552 2.942-1.218 2.218-2.826 6.35-8.175 7.742-5.346 1.391-9.087 1.264-9.087 1.264s1.979 5.106 9.891 5.106c8.983 0 10.853-8.384 20.81-8.674 7.885-.232 10.753 4.522 18.87 4.302 10.003-.267 8.611-11.607 8.611-11.607s.302-.522-1.611-4.09c-1.914-3.563-4.608-8.043-4.608-8.043l.085-2.087s1.268-.321 3.305.433c2.393.885 3.78-.329 4.132-2.799.174-1.217-7.305-5.392-7.305-5.392s-2.605-1.905-.491-4.174c2.377-2.551 5.972.236 5.972.236s7.274 3.737 13.072-6.93c5.218 0 6.984 4.375 6.926 5.766-.058 1.396-1.144 3.162-1.144 3.162s-2.883 4.159 1.248 4.607c4.129.453 7.565-3.084 8.651-3.099 1.09-.016 3.177-.58 3.162 2.276-.016 2.857-2.942 3.173-2.942 3.173-.742-.606-1.612-.521-1.612-.521-4.912.216-4.391 5.086-4.391 5.086l-7.564-.305c-10.741-.348-13.219 2.613-13.566 6.698-.348 4.09 4.696 7.912 6.304 5.829 1.608-2.087-.522-2.091-.739-4.047-.22-1.956 4.434-3.305 11.48-3.131 7.042.174 11.87.785 11.87.785.87 1.391-.085 2.392-.085 2.392l-2.35.217c-4.001-.046-5.566 3.564-7.568 3.61-1.998.043-2.868-3.394-3.695-3.525-.827-.128-3.958 2.261-4.128 6.088-.178 3.826 3.158 7.668 5.171 8.87 2.837 1.697 5.872 2.219 5.872 2.219l-1.806 3.328c-2.848.738-5.732 3.47-5.805 5.129-.024.554-.019.989.043 1.329.115.646.896.725 1.426.331.691-.518 1.77-.945 2.922-.984 1.936-.065 3.654.839 3.654.839 2.435-3.725 3.392-3.564 3.392-3.564 2.984.027 3.421 5.709 3.421 5.709 2.582 1.303 3.216 3.943 3.216 3.943.695.927 1.306 0 1.306 0 .522-2.64 3.471-4.148 3.471-4.148-.023-4.302 2.524-5.585 3.131-5.477.61.109 1.434.414 2.153 1.89.301.621.621 1.008.89 1.248.293.26.712.33 1.067.166a6.5 6.5 0 0 1 2.847-.586c1.937.042 2.698.498 3.108 1.066.413.565 1.523 0 1.523 0-.043-5.523-5.717-6.957-5.717-6.957-.696-.564-1.631-3.046-1.631-3.046 5.26-1.584 5.999-4.912 5.999-4.912 4.785-4.697 4.22-8.218 4.22-8.218-.695 1.519-3.784 3.606-4.174-.174-.394-3.784 3.521-1.739 3.78-7.61.263-5.871-7.78-13.351-7.954-14.131-.174-.785-.522-1.655-1.392-2.872-.87-1.218-1.233-3.432-1.233-3.432l-.058-3.51c.29-.174.955-.812.955-.812l3.22-.695c5.797 10.667 13.072 6.93 13.072 6.93s3.594-2.787 5.971-.236c2.115 2.269-.491 4.174-.491 4.174s-7.479 4.175-7.305 5.392c.352 2.47 1.74 3.684 4.132 2.799 2.037-.754 3.305-.433 3.305-.433l.085 2.087s-2.694 4.48-4.607 8.043c-1.914 3.568-1.612 4.09-1.612 4.09s-1.388 11.34 8.611 11.607c8.117.22 10.985-4.534 18.87-4.302 9.957.29 11.828 8.674 20.81 8.674 7.912 0 9.891-5.106 9.891-5.106s-3.741.127-9.087-1.264c-5.349-1.392-6.957-5.524-8.174-7.742-1.218-2.219-3.553-2.942-3.553-2.942.48-.39 2.466-1.928 2.466-1.928s5.694-5.825 12.261-5.914c6.567-.085 9.087 3.521 9.087 3.521s1.349-.17 1.217-6.041c-.189-8.523-8.522-9.524-12.886-10.088-4.36-.569-4.592-1.523-4.592-1.523.216-1.913 2.609-4.696 8.782-4.828 6.176-.131 11.487 3 11.487 3 .761-14.607-9.922-16.741-15.677-17.173-5.667-.429-12.307 3.95-12.504 4.081 5.175-7.386 14.259-12.604 19.998-12.693 5.74-.085 8.222 4.263 8.222 4.263.823-14.827-8.96-21.003-13.873-21.22s-9.307 4.654-13.218 9.524c-3.916 4.87-6.393 6.563-7.178 6.436-.781-.132-3.301-1.914-3.301-6.134 0-4.217 2.52-9.752 9.477-15.407 9.289-7.545 21.046-8.434 21.046-8.434-5.507-9.249-13.957-10.73-20.698-10.683-6.741.042-9.176 1.956-13.176 5.956-4.001 4.001-8.523 15.349-8.523 15.349s-2.825 8.263-5.477 8.09c-2.655-.174-3.784-4.159-3.784-6.436 0-1.48-.042-4.047 2.393-10.482 2.435-6.436 7.606-11.608 7.606-11.608s-2.323-.63-7.738-.131c-11.124 1.028-13.392 8.217-15.132 13.478-1.739 5.264-4.217 5.786-5.523 5.914-1.303.131-5.261-.565-5.477-8.523-.217-7.955 3.61-11.348 5.175-13.13 1.566-1.782 8.001-6.347 13.869-7.742 5.608-1.333 5.218-2.478 5.218-2.478.336-1.109-2.803-5.666-4.252-7.684 0 0 14.599-10.644 21.038-10.447 8.017.247 14.719 11.217 19.434 11.22 3.177 0 5.454-2.493 5.423-6.493 0 0 2.23-2.207 1.944-4.147 0 0-2.033 1.186-3.219 1.333 0 0-.986-2.385-4.264-1.917 0 0-6.779-.897-9.825-5.214 0 0 2.029-1.372 3.336-1.307 8.986.468 16.608 7.348 21.768 7.395C-4.232 8.886.004 3.452 0 0" clip-path="url(#A)" style="fill:#231e20;fill-opacity:1;fill-rule:nonzero;stroke:none" transform="matrix(1.33333 0 0 -1.33333 601.956 465.02)"></path><path d="M0 0s7.088 3.131 19.785-.261l2.377 4.218s4.551 1.015 5.189 4.406c0 0-3.102-1.884-6.349-.29 0 0-1.566-3.38-3.768-3.304-2.102.072-3.986 1.754-4.319 6.087 0 0-2.187 1.423-2.955 3.102 0 0-1.198-2.391-2.763-2.826 0 0-.628-6.552-4.66-6.392-1.827.072-3.61 3.261-3.61 3.261s-3.417-1.065-6.243.033c0 0 .228-2.599 5.011-4.106z" clip-path="url(#B)" style="fill:#ff0104;fill-opacity:1;fill-rule:nonzero;stroke:none" transform="matrix(1.33333 0 0 -1.33333 462.561 273.091)"></path><path d="M0 0s-6.783-.739-10.958-.522c-4.174.218-11.958.261-12.479 4.175 0 0-.174 1.152.956 2.5 0 0 .872 1.391-.966.804s-2.882-3.022-2.839-5.022.992-5.645 11.98-5.428c3.319.066 6.001.188 13.915.841 0 0 .101 1.768.391 2.652" clip-path="url(#C)" style="fill:#ff0104;fill-opacity:1;fill-rule:nonzero;stroke:none" transform="matrix(1.33333 0 0 -1.33333 468.475 302.312)"></path><path d="M0 0s-.029-3.536 3.189-3.537c1.884 0 1.942 2.928 1.942 2.928S6.059.318 6.754.667c.696.348 2.262 1.971 2.406 4s.812 4.407-.55 6.059-6.9 2.783-6.987 5.653.087 7.972.087 7.972-4.538.815-8.464-2.841-3.218-7.479-3.218-7.479.29-1.827 2.696-3.74c0 0 1.478 3.421 4.261 3.247s3.276-3.537 6.581-3.537c3.304 0 4.58-.116 4.58-2.638S6.725 3.711 6.725 3.711l-.029-2.088S5.74.377 4.551.058z" clip-path="url(#D)" style="fill:#ff0104;fill-opacity:1;fill-rule:nonzero;stroke:none" transform="matrix(1.33333 0 0 -1.33333 461.15 308.438)"></path><path d="M0 0v-2.787c-2.114.182-3.653.735-3.653 1.392C-3.653-.734-2.114-.182 0 0" clip-path="url(#E)" style="fill:#fff;fill-opacity:1;fill-rule:nonzero;stroke:none" transform="matrix(1.33333 0 0 -1.33333 474.678 282.104)" data-source="https://football-logos.cc"></path><path d="M0 0c0-1.02-1.434-1.361-3.629-1.434v2.887C-1.434 1.426 0 1.248 0 0" clip-path="url(#F)" style="fill:#fff;fill-opacity:1;fill-rule:nonzero;stroke:none" transform="matrix(1.33333 0 0 -1.33333 483.084 283.964)"></path><path d="M0 0h-3.042s.711-19.604-20.35-36.062C-40.642-49.54-60.355-48.38-60.355-48.38s-19.712-1.16-36.959 12.318C-118.375-19.604-117.664 0-117.664 0h-3.042v3.073h3.042v3.073h3.421V3.073h2.93V0h-2.93s.239-15.097 15.971-27.887c12.395-10.073 32.061-9.246 32.061-9.246s.12 5.736 4.291 7.332v4.264h-3.042v2.636h3.042v3.42h3.131v-3.42h3.045v-2.636h-3.045v-4.264c4.174-1.596 4.29-7.332 4.29-7.332s19.67-.827 32.062 9.246C-6.702-15.097-6.216 0-6.216 0h-3.176v3.073h2.929v3.073h3.421V3.073H0Z" clip-path="url(#G)" style="fill:#fff;fill-opacity:1;fill-rule:nonzero;stroke:none" transform="matrix(1.33333 0 0 -1.33333 551.554 307.356)"></path><path d="M0 0s-2.087 7.015 1.739 11.538c3.827 4.522 7.016 2.261 7.016 2.261s1.797-2.957-2.783-7.074C1.391 2.609 0 0 0 0" clip-path="url(#H)" style="fill:#fff;fill-opacity:1;fill-rule:nonzero;stroke:none" transform="matrix(1.33333 0 0 -1.33333 400.622 379.712)"></path><path d="M0 0s-2.337 6.085.749 10.365c3.086 4.279 6.074 2.491 6.074 2.491s1.799-2.502-1.984-6.473S0 0 0 0" clip-path="url(#I)" style="fill:#fff;fill-opacity:1;fill-rule:nonzero;stroke:none" transform="matrix(1.33333 0 0 -1.33333 426.69 393.746)"></path><path d="M0 0s2.087 7.015-1.739 11.538c-3.827 4.522-7.016 2.261-7.016 2.261s-1.797-2.957 2.783-7.074C-1.391 2.609 0 0 0 0" clip-path="url(#J)" style="fill:#fff;fill-opacity:1;fill-rule:nonzero;stroke:none" transform="matrix(1.33333 0 0 -1.33333 541.52 379.712)"></path><path d="M0 0s2.337 6.085-.749 10.365c-3.086 4.279-6.074 2.491-6.074 2.491s-1.799-2.502 1.984-6.473S0 0 0 0" clip-path="url(#K)" style="fill:#fff;fill-opacity:1;fill-rule:nonzero;stroke:none" transform="matrix(1.33333 0 0 -1.33333 515.452 393.746)"></path><path d="M0 0s-.71-5.189.638-8.102c0 0 2.304-1.696 5.957-3.523 3.653-1.826 4.467-4.174 4.435-6.392-.043-3 .617-4.414-4.174-5.609-4.072-1.015-3.218-3.218-3.218-3.218s-.13-3.739 5.096-1.807c0 0 4.949-.483 7.123 2.532 3.884 5.387 6.204 6.783 9.885 6.523 2.914-.207 6.668-1.711 10.335-4.726 3.956-3.253 3.879-6.302 10.305-9.522s6.61-1.522 6.61-1.522 1.087 2.304.521 4.435c-.565 2.131-6.281 6.788-8.759 8.093l-.082 1.096s5.863 2.617 8.87 4.755c0 0 .825-.046 1.637.244s2.335-.476 2.335-.476.87-1.711 1.652-1.972c.783-.261 3.769-.116 4.233.203 0 0 1.101.435.174 3.45-.928 3.015-4.784 5.711-7.19 5.856s-9.943-3.827-9.943-3.827-6.302-3.359-12.222-3.53a2.4 2.4 0 0 0-.761.104c-4.686 1.421-3.853 2.292-3.853 2.292s2.313 5.454 11.908 6.555c0 0 3.87.16 3.711 4.696C45.088.444 41.28.493 41.28.493s-1.952.77-7.141-4.419-9.614-6.568-12.484-6.713S9.624-7.044 0 0" clip-path="url(#L)" style="fill:#ff0104;fill-opacity:1;fill-rule:nonzero;stroke:none" transform="matrix(1.33333 0 0 -1.33333 515.108 442.02)"></path><path d="M0 0s.71-5.189-.638-8.102c0 0-2.304-1.696-5.957-3.523-3.653-1.826-4.467-4.174-4.435-6.392.043-3-.617-4.414 4.174-5.609 4.072-1.015 3.218-3.218 3.218-3.218s.13-3.739-5.096-1.807c0 0-4.949-.483-7.123 2.532-3.884 5.387-6.204 6.783-9.885 6.523-2.914-.207-6.668-1.711-10.335-4.726-3.956-3.253-3.879-6.302-10.305-9.522s-6.61-1.522-6.61-1.522-1.087 2.304-.521 4.435c.565 2.131 6.281 6.788 8.759 8.093l.082 1.096s-5.863 2.617-8.87 4.755c0 0-.825-.046-1.637.244s-2.335-.476-2.335-.476-.87-1.711-1.652-1.972c-.783-.261-3.769-.116-4.233.203 0 0-1.101.435-.174 3.45.928 3.015 4.784 5.711 7.19 5.856s9.943-3.827 9.943-3.827 6.302-3.359 12.222-3.53c.257-.007.515.03.761.104 4.686 1.421 3.853 2.292 3.853 2.292s-2.313 5.454-11.908 6.555c0 0-3.87.16-3.711 4.696C-45.088.444-41.28.493-41.28.493s1.952.77 7.141-4.419 9.614-6.568 12.484-6.713S-9.624-7.044 0 0" clip-path="url(#M)" style="fill:#ff0104;fill-opacity:1;fill-rule:nonzero;stroke:none" transform="matrix(1.33333 0 0 -1.33333 426.944 442.02)"></path><path d="M0 0c-8.77-3.51-17.235-.174-20.656 6.173v86.553C-16.86 89.444-6.184 88.656 0 90.24Zm-27.381 104.909V5.26C-23.469-9.35.58-12.612 7.058-2.091V99.807c-11.437-5.582-24.393-5.06-34.439 5.102" clip-path="url(#N)" style="fill:#fff;fill-opacity:1;fill-rule:nonzero;stroke:none" transform="matrix(1.33333 0 0 -1.33333 86.325 794.946)"></path><path d="M0 0c8.77-3.51 17.235-.174 20.656 6.173v86.553C16.86 89.444 6.184 88.656 0 90.24Zm27.381 104.909V5.26C23.469-9.35-.58-12.612-7.058-2.091V99.807c11.437-5.582 24.393-5.06 34.439 5.102" clip-path="url(#O)" style="fill:#fff;fill-opacity:1;fill-rule:nonzero;stroke:none" transform="matrix(1.33333 0 0 -1.33333 855.98 785.424)"></path><path d="M0 0c-4.194-2.597-8.998-4.418-16.311-7.22-9.961-3.819-10.884-5.856-10.973-11.944-.085-6.087-.085-78.88-.085-78.88s-8.086-1.933-16.35-2.087c-17.277-.317-41.226 11.201-69.137 18.22-16.585 4.171-35.381 6.254-51.399 5.392-30.16-1.62-61.043-11.437-81.69-18.97-13.169-4.809-22.179-8.519-24.162-9.134l.101 91.806s.232 4.29-1.651 7.479c.186-.077 6.169-2.628 15.415-2.628 17.072 0 49.663 22.893 96.973 22.893 0 0 25.974.58 52.238-7.769S-59.953-9.597-41.458-8.96c16.18.557 27.945 5.002 40.438 10.61C.213 2.203 1.148.707 0 0m13.505 7.158s-.928 2.783-9.566 2.783c-5.678.704-14.189-3.54-26.67-7.885C-29.159-.182-36.797-.56-44.21-.642c-29.831-.317-59.168 23.659-114.912 23.659-48.531 0-80.848-22.584-97.317-22.874-26.322 2.087-25.252 13.907-43.484 12.871C-316.752 12.059-318.36.723-318.36.723l1.26-5.582s6.351-10.045 18.975-9.666c11.599.348 14.405 4.754 13.941 7.046l.754-.004s-.87 6.698-11.854 8.902c-4.283.858-9.482-.696-9.683-3.479-.093-1.272 2.729-4.032 6.753-4.379 1.685-.143 3.161.873 3.161.873s-2.145 2.694-.579 4.422c.92 1.013 2.566.846 3.645.004 1.001-.789 2.067-2.126 2.021-4.225-.085-3.927-3.78-6.319-8.217-6.188-4.438.128-11.917 3.173-11.917 9.783s7.827 9.002 12.786 8.654 15.871-3.347 18.611-12.175c0 0 .738-2.003 0-3.568l-.058-107.475c30.612 11.131 80.299 31.887 118.913 31.772 13.141-.039 26.789-1.291 39.683-4.043 33.91-7.24 55.226-19.879 76.156-19.879 16.864 0 23.655 3.281 23.655 3.281l.232 88.192s1.159 2.891 6.319 4.051S14.46-3.699 13.505 7.158" clip-path="url(#P)" style="fill:#fff;fill-opacity:1;fill-rule:nonzero;stroke:none" transform="matrix(1.33333 0 0 -1.33333 474.297 640.107)"></path><path d="M0 0a10.1 10.1 0 0 1-1.585-5.357l-.498-88.718c-2.416.31-5.558.395-7.97.248-7.116-.437-9.509-1.017-29.163-8.206-13.378-4.893-32.004-10.958-46.498-12.639-11.136-1.291-20.447-1.883-28.44-1.883-44.411 2.347-52.671 9.536-80.241 16.435-11.024 2.76-23.93 4.024-33.048 3.958-14.753-.108-27.307-5.372-35.366-9.145-4.832-2.269-8.214-3.73-9.014-3.973-2.756-.843-4.483.301-4.472 2.701l.298 74.684c15.453 3.756 21.935 6.315 38.752 12.612 5.848 2.187 17.749 6.273 32.386 6.652 11.812.305 24.05-3.22 34.772-4.608 9.84-1.275 40.484-9.655 64.977-8.654 1.048.047 2.103.008 3.181.019 16.655.167 31.405 1.632 51.666 7.866 17.011 5.23 25.062 9.203 41.485 15.144 2.586.935 7.615 3.606 10.046 4.526C1.268 1.662.344.537 0 0m46.173 4.356c-3.629 13.246-19.642 12.175-19.642 12.175C8.944 16.547-19.38-.012-56.292-9.76c-13.706-3.625-29.071-7.193-44.829-7.351-56.138-.564-69.276 14.494-98.751 13.613-17.436-.526-41.818-6.884-47.805-9.798-26.786-13.045-34.64-11.132-34.64-11.132l.027-86.483s-.259-7.561 9.802-7.82c7.452-.193 13.13 3.947 21.885 7.653 11.062 4.685 26.751 8.616 54.035 1.481 58.341-15.264 76.183-17.571 112.624-13.134 31.165 3.792 59.802 20.292 73.369 20.872 7.089.301 17.277-2.319 17.277-2.319V-4.051c1.539 9.072 11.797 14.336 19.276 14.51 6.551.151 12.496-2.624 12.844-8.538S31.675-7.87 26.805-7.87s-7.869 2.602-8.012 5.675c-.147 3.072 2.033 5.241 3.598 5.241s2.632-.951 2.69-2.343-1.167-2.639-1.167-2.639c3.768-2.2 9.168.61 9.516 3.567S28.212 6.675 21.313 4.24s-9.625-6.841-9.161-9.508 6.552-5.779 14.205-5.682c8.144.1 14.44 4.507 17.451 8.67 2.018 2.782 2.655 5.577 2.365 6.636" clip-path="url(#Q)" style="fill:#fff;fill-opacity:1;fill-rule:nonzero;stroke:none" transform="matrix(1.33333 0 0 -1.33333 830.925 635.598)"></path><path d="m0 0 9.305 3.218S7.392 14.871-4.87 14.871-21.133 4.261-20.698-.609s1.609-9.982 13.088-16.741C3.87-24.109 6.899-25.51 7.305-31.134c.297-4.108-3.583-5.184-5.696-5.466a4.6 4.6 0 0 0-2.859.527c-1.48.827-3.611 2.671-4.462 6.62l-9.304-3.246S-12.523-45.57.232-45.628s17.277 9.276 16.813 15.016c-.463 5.74-2.609 11.827-10.552 16.292-7.942 4.464-17.554 8.639-17.335 15.653.116 3.711 2.899 4.987 5.508 4.755S-1.218 4.348 0 0" clip-path="url(#R)" style="fill:#fff;fill-opacity:1;fill-rule:nonzero;stroke:none" transform="matrix(1.33333 0 0 -1.33333 205.198 676.327)"></path><path d="m0 0-11.398-.247.804-26.28-10.417-.228-1.279 58.708 25.927.565.186-8.507-15.956-.348.468-15.225 11.476.251z" clip-path="url(#S)" style="fill:#fff;fill-opacity:1;fill-rule:nonzero;stroke:none" transform="matrix(1.33333 0 0 -1.33333 271.612 693.37)"></path><path d="m0 0-1.198-6.807-10.251 1.805 1.318 7.495c.051.294.078.588.078.874a5.014 5.014 0 0 1-9.953.865l-6.041-34.322a5.013 5.013 0 0 1 9.875-1.74l1.577 8.952 10.251-1.805-1.434-8.14c-1.342-7.615-8.6-12.697-16.211-11.36l-2.81.495c-7.614 1.341-12.697 8.6-11.356 16.21l5.779 32.827c1.341 7.615 8.596 12.698 16.21 11.356l2.81-.494C-3.745 14.873 1.341 7.614 0 0" clip-path="url(#T)" style="fill:#fff;fill-opacity:1;fill-rule:nonzero;stroke:none" transform="matrix(1.33333 0 0 -1.33333 337.547 675.76)"></path><path d="m0 0-.638-34.748a5.023 5.023 0 0 0-5.117-4.936 5.026 5.026 0 0 0-4.936 5.118l.638 34.752a5.02 5.02 0 0 0 5.117 4.931A5.025 5.025 0 0 0 0 .1Zm-3.282 13.435-2.806.051c-7.757.143-14.162-6.03-14.305-13.791l-.61-33.264c-.143-7.758 6.033-14.162 13.791-14.305l2.806-.05c7.757-.143 14.162 6.029 14.305 13.787l.61 33.267c.143 7.758-6.029 14.162-13.791 14.305" clip-path="url(#U)" style="fill:#fff;fill-opacity:1;fill-rule:nonzero;stroke:none" transform="matrix(1.33333 0 0 -1.33333 543.298 689.628)"></path><path d="m0 0-.982-4.928c-1.19-4.375-3.788-5.643-7.123-4.986l-3.664.719 3.443 17.509 3.665-.719C-.348 6.609.758 3.973 0 0m-.433 15.681-16.199 3.189-11.352-57.719 9.995-1.967 4.596 23.361 3.997-.785c9.949-1.936 15.341.441 19.001 12.755l.943 4.805C12.036 6.872 7.116 14.197-.433 15.681" clip-path="url(#V)" style="fill:#fff;fill-opacity:1;fill-rule:nonzero;stroke:none" transform="matrix(1.33333 0 0 -1.33333 611.62 704.929)"></path><path d="m0 0 7.947 24.285L7.56-1.202Zm17.339-24.2-.931 59.706-12.852 2.037-20.304-56.274 10.111-1.561L-2.71-8.287 7.429-9.899 7.236-22.77Z" clip-path="url(#W)" style="fill:#fff;fill-opacity:1;fill-rule:nonzero;stroke:none" transform="matrix(1.33333 0 0 -1.33333 645.556 743.375)"></path><path d="m0 0-4.918 25.038L6.991 2.502Zm26.925-12.969L-2.773 38.986l-12.367-4.432 9.539-59.068 9.316 3.452L1.578-8.58l9.477 3.392 6.016-11.38z" clip-path="url(#X)" style="fill:#fff;fill-opacity:1;fill-rule:nonzero;stroke:none" transform="matrix(1.33333 0 0 -1.33333 764.787 731.42)"></path><path d="m0 0 19.41-56.514 10.345 1.317 3.43 59.735-9.841-1.36-.653-43.791L9.936 1.261Z" clip-path="url(#Y)" style="fill:#fff;fill-opacity:1;fill-rule:nonzero;stroke:none" transform="matrix(1.33333 0 0 -1.33333 683.601 697.778)"></path><path d="M0 0c0-31.924-25.88-57.804-57.804-57.804S-115.608-31.924-115.608 0s25.88 57.804 57.804 57.804S0 31.924 0 0" clip-path="url(#Z)" style="fill:#231e20;fill-opacity:1;fill-rule:nonzero;stroke:none" transform="matrix(1.33333 0 0 -1.33333 548.233 906.498)"></path><path d="m0 0-13.567-11.742-12.871-.522L-36.874 0l6.853 6.072c3.131.561 6.351.854 9.64.854A54.3 54.3 0 0 0-1.233 3.455z" clip-path="url(#aa)" style="fill:#fff;fill-opacity:1;fill-rule:nonzero;stroke:none" transform="matrix(1.33333 0 0 -1.33333 498.333 842.839)"></path><path d="m0 0-.213-19.109-6.261-5.276-21.51 12.38-7.015 14.637 13.219 11.364 12.19-3.525.004-.004A54.8 54.8 0 0 0 0 0" clip-path="url(#ab)" style="fill:#fff;fill-opacity:1;fill-rule:nonzero;stroke:none" transform="matrix(1.33333 0 0 -1.33333 530.62 864.592)"></path><path d="m0 0-6.188 4.793v14.003A54.4 54.4 0 0 0 0 0" clip-path="url(#ac)" style="fill:#fff;fill-opacity:1;fill-rule:nonzero;stroke:none" transform="matrix(1.33333 0 0 -1.33333 543.149 896.539)"></path><path d="m0 0-6.799-12.353-28.915-10.27-6.413 7.955a54.8 54.8 0 0 0 22.028 27.064l9.172.204z" clip-path="url(#ad)" style="fill:#fff;fill-opacity:1;fill-rule:nonzero;stroke:none" transform="matrix(1.33333 0 0 -1.33333 459.295 861.299)"></path><path d="m0 0 27.829 9.972L41.744-.696l-.696-24.756-16.292-10.784L3.131-23.075Z" clip-path="url(#ae)" style="fill:#fff;fill-opacity:1;fill-rule:nonzero;stroke:none" transform="matrix(1.33333 0 0 -1.33333 413.3 895.714)"></path><path d="m0 0 21.133-12.001 1.913-15.785L-.957-41.744l-14.045 8.697.692 24.067z" clip-path="url(#af)" style="fill:#fff;fill-opacity:1;fill-rule:nonzero;stroke:none" transform="matrix(1.33333 0 0 -1.33333 492.536 885.336)"></path><path d="m0 0-4.669-9.539C-18.491-5.063-29.897 4.801-36.433 17.59l7.197 6.718 22.916-14.22z" clip-path="url(#ag)" style="fill:#fff;fill-opacity:1;fill-rule:nonzero;stroke:none" transform="matrix(1.33333 0 0 -1.33333 455.043 963.2)"></path><path d="M0 0c-5.4-11.062-14.406-20.025-25.483-25.344l-11.29 6.497 3.652 13.741L-8.422 9.099z" clip-path="url(#ah)" style="fill:#fff;fill-opacity:1;fill-rule:nonzero;stroke:none" transform="matrix(1.33333 0 0 -1.33333 536.465 938.535)"></path><path d="M0 0a54.1 54.1 0 0 0-19.585-3.641c-4.603 0-9.075.572-13.342 1.654l4.039 8.461h17.915z" clip-path="url(#ai)" style="fill:#fff;fill-opacity:1;fill-rule:nonzero;stroke:none" transform="matrix(1.33333 0 0 -1.33333 497.272 974.58)" data-source="https://football-logos.cc"></path><!-- source: https://football-logos.cc --></svg>