<svg xmlns="http://www.w3.org/2000/svg" viewBox="0 0 300 300"><!-- Source: https://football-logos.cc --><g fill="none" fill-rule="evenodd" data-source="https://football-logos.cc"><path fill="#ffec00" d="M150 0C67.473 0 0 67.345 0 149.946 0 232.656 67.473 300 150 300c82.634 0 150-67.345 150-150.054C300 67.345 232.634 0 150 0"></path><path fill="#04196c" d="M27.729 161.376a9.635 9.635 0 0 0 9.661-9.662 9.637 9.637 0 0 0-9.661-9.664 9.64 9.64 0 0 0-9.665 9.664 9.637 9.637 0 0 0 9.665 9.662m243.878 0a9.64 9.64 0 0 1-9.667-9.662 9.64 9.64 0 0 1 9.664-9.664 9.64 9.64 0 0 1 9.665 9.664 9.637 9.637 0 0 1-9.665 9.662M128.451 15.959c1.995-.313 3.466-.209 4.307.212.946.417 1.575 1.467 1.996 3.147l6.407-3.255-1.474-8.292-27.723 4.829-1.259 6.509c1.048-.209 1.889-.209 2.518-.107.632.107 1.053.42 1.366.84.42.421.63.946.841 1.785.21.736.42 1.786.63 2.94L119 41.262c.212 1.261.212 2.311 0 2.94-.208.735-.945 1.26-2.1 1.68l-1.258 6.405 17.748-3.043 1.26-6.51-.735.21c-1.154.209-1.995.209-2.625.104-.632-.107-1.157-.316-1.473-.736-.418-.418-.734-1.05-.943-1.784-.107-.841-.316-1.784-.525-2.941l-.737-4.093 1.158-.316c.63-.105 1.154-.105 1.575-.21.525 0 .838.105 1.154.21.212.211.525.42.63.84.211.419.316.946.42 1.68l.316 1.47 6.616-3.15L137.172 21l-6.616 3.15c.102.734 0 1.259-.316 1.572-.316.316-.945.632-1.786.737l-1.996.316-1.154-6.303c-.317-1.572-.212-2.625.208-3.147.317-.63 1.367-1.05 2.942-1.366m55.872-4.093c-1.47-.42-3.15-.737-4.725-1.053-2.837-.522-5.566-.734-7.878-.838-2.416 0-4.727.418-7.036 1.366-3.15 1.363-5.67 3.359-7.774 6.088-1.995 2.73-3.359 6.089-4.095 10.184-.525 3.046-.525 5.984 0 8.505q.631 3.937 2.834 6.93c1.366 1.995 3.257 3.674 5.464 4.933 2.309 1.366 5.041 2.31 8.298 2.834 1.784.316 3.57.42 5.357.42 1.782-.104 3.568-.313 5.46-.733l4.306-8.82c-1.995.315-3.99.42-5.986.524-1.998 0-3.991-.107-5.882-.525-3.887-.63-6.407-2.097-7.875-4.513-1.369-2.312-1.685-5.67-.844-10.082.316-2.098.737-3.777 1.259-5.143.528-1.366 1.262-2.518 1.998-3.255a5.7 5.7 0 0 1 3.046-1.575c1.154-.209 2.518-.209 4.098.108 1.259.208 2.202.417 2.938.733.734.314 1.26.63 1.575 1.155.316.418.42 1.05.42 1.888 0 .737-.104 1.787-.313 2.941l-.107.946 8.298-1.682.314-2.518c.107-.841.319-1.575.42-2.205.108-.84.21-1.575.424-2.416.209-.838.417-1.786.626-2.73-1.575-.629-3.045-1.15-4.62-1.467m-95.89 240.745a10.7 10.7 0 0 1-1.474 1.888c-.417.42-.838.63-1.258.737h-.105c-.42 0-.841 0-1.154-.212-.525-.104-1.05-.42-1.575-.734-.212-.211-.946-.734-2.1-1.575l3.884-6.088.945-1.262.107-.209c.418-.63.839-.945 1.152-1.05.42-.107.946.107 1.473.42 1.366.944 1.993 1.996 1.993 3.253 0 1.261-.63 2.94-1.888 4.832m8.927 2.204c1.152-2.309 1.366-4.513.839-6.825a5.7 5.7 0 0 0-.839-2.204c-.945-1.996-2.732-3.78-5.148-5.352-1.05-.737-2.518-1.578-4.516-2.732-.63-.42-1.366-.841-2.1-1.26-1.47-.84-3.045-1.89-4.728-2.94l-4.725 3.359c.734.525 1.26.945 1.575 1.473.421.418.525.836.525 1.363-.107.525-.209 1.048-.629 1.68-.313.63-.737 1.366-1.366 2.309l-8.189 12.6c-.632.943-1.258 1.68-1.786 1.993-.63.316-1.366.211-2.416-.21l-4.725 3.36 13.969 9.136 4.725-3.466-.839-.525c-.84-.525-1.473-1.154-1.89-1.575q-.63-.788-.63-1.575c.104-.525.209-1.152.63-1.784.315-.63.84-1.47 1.472-2.416l.207-.42.629-.943c.316.104.42.209.632.418.21.107.42.211.63.42 2.416 1.575 4.727 2.52 6.932 2.941 1.154.21 2.204.21 3.359.105 3.048-.42 5.568-2.205 7.46-5.143.417-.632.733-1.157.945-1.787m97.045 20.055-6.094 3.463c.212 1.259 0 2.207-.525 2.941-.63.63-1.68 1.152-3.15 1.575-.42.102-.841.209-1.473.313-.627.105-1.26.105-2.1.105l-2.1-8.397.945-.215c.525-.101.946-.206 1.366-.31.316 0 .734 0 .946.104.316.105.525.313.734.737.107.313.316.734.525 1.363l.316 1.259 5.566-3.15-2.732-11.338-5.67 3.15c.106.63 0 1.154-.314 1.47-.214.314-.737.525-1.578.734l-1.575.42-1.363-5.563c-.316-1.366-.316-2.311-.107-2.836.316-.525 1.157-.943 2.625-1.366 1.682-.418 2.943-.418 3.782-.105.84.42 1.473 1.259 1.89 2.732l5.358-3.257-1.787-7.347-24.05 6.088-.737 5.775c.945-.316 1.682-.316 2.207-.316.525.107.946.316 1.366.632.314.418.522.943.839 1.575.208.734.42 1.573.736 2.625l3.568 14.489c.319 1.151.319 2.097.214 2.73-.214.626-.736 1.15-1.789 1.574l-.734 5.877 26.571-6.614 1.053-.316-1.05-4.095-1.682-6.509zm45.37-19.634c-.21.104-.21.209-.314.209 0 .107-.107.107-.107.209-.525.316-1.155.525-1.784.525-.737.107-1.366 0-2.207-.21-.841-.104-1.787-.42-2.834-.733-1.053-.316-2.207-.737-3.466-1.157-1.155-.418-2.312-.839-3.257-1.26-1.048-.42-1.996-.733-2.941-1.154-.943-.313-1.784-.63-2.625-.84a10.2 10.2 0 0 0-2.417-.314l.525-3.78c.317-2.413.737-4.411 1.155-5.775.528-1.47 1.05-2.413 1.891-2.938h.107l-1.157-5.778-10.184 6.616 1.152 5.775c.945-.525 1.47-.525 1.786-.104.21.313.21.734.21 1.363 0 .632 0 1.366-.105 2.416l-.734 8.084-3.678-5.566c-.736-1.152-1.05-1.993-1.05-2.727 0-.632.42-1.366 1.366-2.102l-1.157-5.668-11.866 7.663-1.053.737 1.053 4.934.107.734c.839-.525 1.468-.839 1.993-.943.525-.107 1.05 0 1.468.209.423.209.841.63 1.264 1.151.525.633.946 1.367 1.573 2.208l8.193 12.6c.63 1.05.946 1.784 1.053 2.517 0 .633-.319 1.26-1.157 2.103l1.157 5.668 13.966-9.027-1.154-5.775-.841.523a7.6 7.6 0 0 1-2.205 1.157q-.946.314-1.578 0c-.42-.212-.945-.528-1.366-1.157q-.626-.786-1.572-2.205l-.42-.734-2.733-4.2c1.05 0 2.208.105 3.466.525 1.367.42 2.84.839 4.517 1.47 1.575.63 3.466 1.367 5.568 2.205 2.1.841 4.412 1.784 6.932 2.625l6.616-4.304zm-112.19-12.742c-1.05-.316-1.891-.316-2.732 0-.838.313-1.68.734-2.625 1.154l-10.291 5.25 2.834 1.05 10.714-1.157c1.152-.104 2.1-.31 2.732-.63.63-.313 1.048-.838 1.366-1.574a3.43 3.43 0 0 0-.107-2.518q-.473-1.104-1.89-1.575m25.646 34.055c-.945-1.05-1.995-1.995-3.361-2.837a32 32 0 0 0-4.728-2.625c-.945-.522-1.784-.942-2.52-1.363-.839-.316-1.367-.734-1.889-1.154-.525-.418-.84-.946-1.05-1.366-.211-.523-.316-1.152-.211-1.784.107-1.048.525-1.996 1.366-2.52.734-.63 1.784-.84 3.15-.735 1.89.107 3.048.63 3.57 1.468.525.841.737 2.207.632 3.991l-.211 1.575 6.302-2.834.734-8.188h-1.05c-1.89-.212-3.57-.423-4.936-.632-1.47-.21-2.625-.314-3.57-.42-4.308-.421-7.667.106-9.979 1.574-2.311 1.366-3.677 3.884-3.99 7.559-.317 4.203 1.574 7.35 5.565 9.662 1.474.734 2.733 1.467 3.992 1.992 1.258.63 2.311 1.158 3.257 1.787.838.63 1.575 1.366 1.995 2.1q.789 1.102.63 2.834c-.107 1.154-.63 2.1-1.68 2.837-.945.734-2.207 1.05-3.677.942-1.05-.104-1.889-.313-2.518-.733-.632-.421-1.053-.946-1.366-1.575q-.472-.948-.633-2.518c0-1.053 0-2.207.108-3.574 0-.313.104-.629.104-.942.105-.316.105-.633.105-1.05l-6.408 2.83-.945 11.133c.841.107 1.47.107 1.995.209h.946c.734.107 1.891.313 3.257.525 1.468.316 3.359.522 5.566.737 4.2.313 7.455-.215 9.766-1.787q3.31-2.363 3.782-7.559c.105-1.575 0-2.938-.316-4.2-.313-1.154-.945-2.309-1.784-3.359m-46.845-21.63c.84.317 1.578.63 1.998.946.42.42.63.841.734 1.26.107.524 0 1.156-.104 1.786-.21.734-.525 1.575-.839 2.625l-4.936 14.172c-.317 1.05-.737 1.891-1.158 2.309-.417.525-1.05.632-1.995.525l-2.732 3.15-1.05 1.366 1.052.313 12.708 4.412 3.886-4.412c-.945-.313-1.575-.626-1.995-1.047-.418-.316-.63-.737-.734-1.262-.107-.42-.107-1.047.104-1.679.212-.63.418-1.47.734-2.416l.316-.943 4.725-13.545c.316-1.152.737-1.889 1.157-2.31.418-.417 1.05-.629 1.889-.524l3.782-4.41-13.757-4.724-3.782 4.409z"></path><path fill="#121619" d="M149.668 55.087c-52.133.006-94.572 42.53-94.58 94.527.005 52.098 42.447 94.623 94.58 94.629 52.026-.008 94.57-42.53 94.578-94.629-.011-51.999-42.552-94.518-94.58-94.527"></path><path fill="#fff" d="m225.787 101.204-6.902 20.947-32.572 9.241-37.84-26.692-.163-29.75 17.263-14.184c18.488 3.321 35.07 12.313 47.872 25.106a91.5 91.5 0 0 1 12.342 15.332M85.848 85.872c10.714-10.72 24.094-18.768 39.038-23.051l18.589 12.361.16 28.8-37.473 28.779-27.591-5.518-7.672-21.67a91.1 91.1 0 0 1 14.95-19.7m-26.347 58.663 17.71-12.632 27.534 5.504L120 181.254l-16.42 27.008-21.945.67c-13.87-15.9-22.283-36.657-22.283-59.318 0-1.703.053-3.396.147-5.076m54.42 88.032-6.964-20.548 16.273-26.767 47.9-1.44 14.982 29.131-7.889 22.372a89.6 89.6 0 0 1-28.553 4.655 89.6 89.6 0 0 1-35.751-7.406m102.016-21.72-26.017-1.07-15.177-29.517 13.015-44.25 31.733-9 20.189 15.268q.299 3.632.3 7.336c0 23.582-9.134 45.102-24.043 61.232"></path></g><!-- source: https://football-logos.cc --></svg>