<svg xmlns="http://www.w3.org/2000/svg" viewBox="325.18 191.85 416.3 416.31"><!-- Source: https://football-logos.cc --><defs data-source="https://football-logos.cc"><clipPath id="a" clipPathUnits="userSpaceOnUse"><path d="M-400 143.886h800v-600h-800Z"></path></clipPath><clipPath id="b" clipPathUnits="userSpaceOnUse"><path d="M-400 147.656h800v-600h-800Z"></path></clipPath><clipPath id="c" clipPathUnits="userSpaceOnUse"><path d="M-400 190.173h800v-600h-800Z"></path></clipPath><clipPath id="d" clipPathUnits="userSpaceOnUse"><path d="M-399.999 248.322h800v-600h-800Z"></path></clipPath><clipPath id="e" clipPathUnits="userSpaceOnUse"><path d="M-372.625 216.853h800v-600h-800Z"></path></clipPath><clipPath id="f" clipPathUnits="userSpaceOnUse"><path d="M-369.084 261.718h800v-600h-800Z"></path></clipPath><clipPath id="g" clipPathUnits="userSpaceOnUse"><path d="M-364.132 200.17h800v-600h-800Z"></path></clipPath><clipPath id="h" clipPathUnits="userSpaceOnUse"><path d="M-293.968 302.018h800v-600h-800Z"></path></clipPath><clipPath id="i" clipPathUnits="userSpaceOnUse"><path d="M-331.299 352.009h800v-600h-800Z"></path></clipPath><clipPath id="j" clipPathUnits="userSpaceOnUse"><path d="M-430.916 261.718h800v-600h-800Z"></path></clipPath><clipPath id="k" clipPathUnits="userSpaceOnUse"><path d="M-435.867 200.17h800v-600h-800Z"></path></clipPath><clipPath id="l" clipPathUnits="userSpaceOnUse"><path d="M-506.031 302.018h800v-600h-800Z"></path></clipPath><clipPath id="m" clipPathUnits="userSpaceOnUse"><path d="M-468.7 352.009h800v-600h-800Z"></path></clipPath><clipPath id="n" clipPathUnits="userSpaceOnUse"><path d="M-370.04 401.757h800v-600h-800Z"></path></clipPath><clipPath id="o" clipPathUnits="userSpaceOnUse"><path d="M-424.27 325.09h800v-600h-800Z"></path></clipPath><clipPath id="p" clipPathUnits="userSpaceOnUse"><path d="M-418.059 183.187h800v-600h-800Z"></path></clipPath><clipPath id="q" clipPathUnits="userSpaceOnUse"><path d="M-408.486 167.432h800v-600h-800Z"></path></clipPath><clipPath id="r" clipPathUnits="userSpaceOnUse"><path d="M-466.585 186.401h800v-600h-800Z"></path></clipPath><clipPath id="s" clipPathUnits="userSpaceOnUse"><path d="M-382.514 168.74h800v-600h-800Z"></path></clipPath><clipPath id="t" clipPathUnits="userSpaceOnUse"><path d="M-518.002 220.003h800v-600h-800Z"></path></clipPath><clipPath id="u" clipPathUnits="userSpaceOnUse"><path d="M-486.63 206.311h800v-600h-800Z"></path></clipPath><clipPath id="v" clipPathUnits="userSpaceOnUse"><path d="M-446.524 172.591h800v-600h-800Z"></path></clipPath><clipPath id="w" clipPathUnits="userSpaceOnUse"><path d="M-289.575 210.497h800v-600h-800Z"></path></clipPath><clipPath id="x" clipPathUnits="userSpaceOnUse"><path d="M-347.783 166.915h800v-600h-800Z"></path></clipPath><clipPath id="y" clipPathUnits="userSpaceOnUse"><path d="M-432.114 153.563h800v-600h-800Z"></path></clipPath><clipPath id="z" clipPathUnits="userSpaceOnUse"><path d="M-406.01 155.025h800v-600h-800Z"></path></clipPath><clipPath id="A" clipPathUnits="userSpaceOnUse"><path d="M-312.635 213.198h800v-600h-800Z"></path></clipPath><clipPath id="B" clipPathUnits="userSpaceOnUse"><path d="M-326.496 189.067h800v-600h-800Z"></path></clipPath><clipPath id="C" clipPathUnits="userSpaceOnUse"><path d="M-435.763 432.426h800v-600h-800Z"></path></clipPath><clipPath id="D" clipPathUnits="userSpaceOnUse"><path d="M-409.043 436.755h800v-600h-800Z"></path></clipPath><clipPath id="E" clipPathUnits="userSpaceOnUse"><path d="M-367.614 417.883h800v-600h-800Z"></path></clipPath><clipPath id="F" clipPathUnits="userSpaceOnUse"><path d="M-392.4 426.156h800v-600h-800Z"></path></clipPath></defs><path d="M0 0c86.205 0 156.114-69.91 156.114-156.114S86.204-312.229 0-312.229s-156.114 69.91-156.114 156.115C-156.114-69.91-86.205 0 0 0" clip-path="url(#a)" style="fill:#fff;fill-opacity:1;fill-rule:nonzero;stroke:none" transform="matrix(1.33333 0 0 -1.33333 533.333 191.848)"></path><path d="M0 0c84.123 0 152.343-68.22 152.343-152.344S84.123-304.688 0-304.688c-84.124 0-152.344 68.221-152.344 152.344C-152.344-68.22-84.124 0 0 0" clip-path="url(#b)" style="fill:#008137;fill-opacity:1;fill-rule:nonzero;stroke:none" transform="matrix(1.33333 0 0 -1.33333 533.333 196.875)"></path><path d="M0 0c60.646 0 109.826-49.182 109.826-109.827 0-60.646-49.181-109.826-109.826-109.826-60.646 0-109.827 49.18-109.827 109.826S-60.646 0 0 0" clip-path="url(#c)" style="fill:#000;fill-opacity:1;fill-rule:nonzero;stroke:none" transform="matrix(1.33333 0 0 -1.33333 533.333 253.564)"></path><path d="M0 0c-9.557-12.478-21.793-17.645-36.05-17.305.561-12.457-3.445-22.632-10.575-31.243C-36.776-70.506-23.098-90.736 0-106.711h.001C23.1-90.736 36.777-70.506 46.626-48.548c-7.131 8.611-11.136 18.786-10.574 31.243C21.795-17.645 9.558-12.478.001-.001z" clip-path="url(#d)" style="fill:#008137;fill-opacity:1;fill-rule:nonzero;stroke:none" transform="matrix(1.33333 0 0 -1.33333 533.332 331.096)"></path><path d="m0 0-14.709-22.474L.677-44.306c9.458 1.757 17.299 6.765 23.706 15.129l2.993 3.907 2.993-3.907c6.406-8.364 14.247-13.372 23.704-15.129L69.46-22.474 54.75 0Z" clip-path="url(#e)" style="fill:#fff;fill-opacity:1;fill-rule:nonzero;stroke:none" transform="matrix(1.33333 0 0 -1.33333 496.833 289.138)"></path><path d="m0 0-14.225 20.182-26.65-7.969-15.344-49.833 17.343-21.291 26.83 8.013a182 182 0 0 0-7.104 14.203l-.959 2.139 1.495 1.807c6.902 8.336 10.203 17.782 9.713 28.67l-.182 4.036 4.038-.097A48 48 0 0 1 0 0" clip-path="url(#f)" style="fill:#fff;fill-opacity:1;fill-rule:nonzero;stroke:none" transform="matrix(1.33333 0 0 -1.33333 492.112 348.957)"></path><path d="m0 0 5.556-14.287-15.228-23.264-27.354-8.178-12.476 8.822C-37.132-20.155-19.952-7.171 0 0" clip-path="url(#g)" style="fill:#fff;fill-opacity:1;fill-rule:nonzero;stroke:none" transform="matrix(1.33333 0 0 -1.33333 485.51 266.894)"></path><path d="M0 0h16.217l17.344-21.291v-30.456L20.482-60.66C7.965-43.604.424-22.672 0 0" clip-path="url(#h)" style="fill:#fff;fill-opacity:1;fill-rule:nonzero;stroke:none" transform="matrix(1.33333 0 0 -1.33333 391.958 402.69)"></path><path d="m0 0 41.635-30.127 25.18 9.394v14.429l-.259.18C49.888 5.402 37.465 19.431 27.666 36.033L0 27.771Z" clip-path="url(#i)" style="fill:#fff;fill-opacity:1;fill-rule:nonzero;stroke:none" transform="matrix(1.33333 0 0 -1.33333 441.732 469.345)"></path><path d="m0 0 14.224 20.182 26.651-7.969L56.218-37.62 38.875-58.911l-26.829 8.013c2.538 4.547 4.895 9.282 7.103 14.203l.96 2.139-1.496 1.807C11.711-24.413 8.41-14.967 8.9-4.079l.182 4.036L5.045-.14A48 48 0 0 0 0 0" clip-path="url(#j)" style="fill:#fff;fill-opacity:1;fill-rule:nonzero;stroke:none" transform="matrix(1.33333 0 0 -1.33333 574.555 348.957)"></path><path d="m0 0-5.555-14.287L9.672-37.551l27.354-8.178 12.477 8.822C37.133-20.155 19.952-7.171 0 0" clip-path="url(#k)" style="fill:#fff;fill-opacity:1;fill-rule:nonzero;stroke:none" transform="matrix(1.33333 0 0 -1.33333 581.156 266.894)"></path><path d="M0 0h-16.217l-17.344-21.291v-30.456l13.079-8.913C-7.965-43.604-.424-22.672 0 0" clip-path="url(#l)" style="fill:#fff;fill-opacity:1;fill-rule:nonzero;stroke:none" transform="matrix(1.33333 0 0 -1.33333 674.708 402.69)"></path><path d="m0 0-41.635-30.127-25.18 9.394v14.429l.259.18c16.667 11.526 29.091 25.555 38.891 42.157L0 27.771Z" clip-path="url(#m)" style="fill:#fff;fill-opacity:1;fill-rule:nonzero;stroke:none" transform="matrix(1.33333 0 0 -1.33333 624.934 469.345)"></path><path d="m0 0 4.321 16.13 25.638 9.564 25.637-9.564L59.918 0a106 106 0 0 0-29.959-4.3A106 106 0 0 0 0 0" clip-path="url(#n)" style="fill:#fff;fill-opacity:1;fill-rule:nonzero;stroke:none" transform="matrix(1.33333 0 0 -1.33333 493.387 535.676)"></path><path d="M0 0c1.818 1.818 1.9 4.879 0 6.61l-19.598 17.857 11.683 12.822 7.734-7.734L3.461 39.57l-13.812 13.812-6.829-6.829 5.968-5.968-13.038-11.879-13.038 11.879 6.851 6.851-6.828 6.828-7.26-7.259c-1.035.695-1.925.909-2.656.176-.787-.786-.678-1.537.15-2.683l-7.233-7.232 6.828-6.829 6.852 6.851 11.681-12.821L-48.5 6.611c-1.898-1.73-1.817-4.793 0-6.611 1.818-1.817 4.879-1.899 6.611 0l17.639 19.36L-6.61 0C-4.881-1.898-1.818-1.818 0 0" clip-path="url(#o)" style="fill:#000;fill-opacity:1;fill-rule:nonzero;stroke:none" transform="matrix(1.33333 0 0 -1.33333 565.693 433.453)"></path><path d="m0 0 4.976-.878 4.176 23.689-4.975.877Z" clip-path="url(#p)" style="fill:#fff;fill-opacity:1;fill-rule:nonzero;stroke:none" transform="matrix(1.33333 0 0 -1.33333 557.411 244.25)" data-source="https://football-logos.cc"></path><path d="M0 0q-.802-.873-2.775-.838l-6.256.109.113 6.422 6.389-.111Q-.69 5.55.163 4.53q.688-.814.665-2.086Q.801.872 0 0m5.047-12.737q-.219.858-.193 2.362.008.468.014.736l.005.369.018 1.003q.037 2.108-.444 3.253-.644 1.518-2.472 2.152A5.34 5.34 0 0 1 4.789-.703Q5.821.851 5.855 2.892q.049 2.71-1.726 4.614-2.003 2.177-5.682 2.241l-12.21.213-.419-24.051 4.917-.086.164 9.4 5.352-.094q2.408-.04 3.161-1.025.524-.678.492-2.418-.041-2.441.084-3.816.129-1.375.413-2.215l5.554-.097.012.669q-.7.18-.92 1.036" clip-path="url(#q)" style="fill:#fff;fill-opacity:1;fill-rule:nonzero;stroke:none" transform="matrix(1.33333 0 0 -1.33333 544.648 223.242)"></path><path d="m0 0-5.473 3.033 3.115 5.618L3.23 5.552q1.61-.89 1.884-2.191.226-1.043-.391-2.155Q3.961-.168 2.844-.563 1.725-.957 0 0m4.416-7.077q.145 1.643-1.173 3.06a5.34 5.34 0 0 1 3.498.585q1.641.888 2.631 2.674 1.314 2.37.643 4.884-.748 2.862-3.967 4.646l-10.68 5.921-11.662-21.039 4.302-2.384 4.557 8.222 4.682-2.595q2.106-1.168 2.31-2.389.142-.846-.701-2.367-1.183-2.136-1.717-3.409-.533-1.273-.675-2.149l4.857-2.693.325.585q-.533.487-.325 1.347t.938 2.176l.357.644.178.322.488.877q1.022 1.844 1.134 3.082" clip-path="url(#r)" style="fill:#fff;fill-opacity:1;fill-rule:nonzero;stroke:none" transform="matrix(1.33333 0 0 -1.33333 622.113 248.535)"></path><path d="M0 0q-.594-1.26-2.9-1.667l-4.613-.813-1.225 6.952 4.052.715q2.636.465 3.745-.428.753-.614 1.056-2.327Q.399.818 0 0m2.286 8.42q-2.328 1.832-5.787 1.223l-10.938-1.93 4.177-23.689 4.975.878-1.511 8.566 5.766 1.016Q3.02-4.8 4.447-2.104 5.62.108 5.022 3.501q-.57 3.23-2.736 4.919" clip-path="url(#s)" style="fill:#fff;fill-opacity:1;fill-rule:nonzero;stroke:none" transform="matrix(1.33333 0 0 -1.33333 510.019 224.988)"></path><path d="m0 0-17.934-7.598L-5.113 7.038l-4.346 5.982-19.46-14.14 2.773-3.816L-9.857 6.899l.044-.051-13.718-15.384 2.91-4.006L-1.75-4.337l.078-.02-16.294-11.838 2.773-3.817L4.268-5.873z" clip-path="url(#t)" style="fill:#fff;fill-opacity:1;fill-rule:nonzero;stroke:none" transform="matrix(1.33333 0 0 -1.33333 690.67 293.338)"></path><path d="m0 0-4.689 3.935 8.533 5.329zm5.154 15.24L-16.873 2.322l4.049-3.398 4.489 2.697 6.792-5.699-2.029-4.761 4.203-3.527 9.004 23.847z" clip-path="url(#u)" style="fill:#fff;fill-opacity:1;fill-rule:nonzero;stroke:none" transform="matrix(1.33333 0 0 -1.33333 648.841 275.081)"></path><path d="M0 0q-.372-1.145-1.401-1.551-1.028-.404-2.524.082L-9.747.423l1.613 4.963 5.535-1.798q2.006-.652 2.541-1.6Q.394 1.209 0 0m-2.478-9.573q-.536-1.654-1.845-2.109-1.076-.389-2.604.108L-13.003-9.6l1.994 6.142 6.141-1.996q1.306-.424 2.01-1.286.93-1.146.38-2.833m7.36 9.007q.774 2.387-.479 4.482-1.35 2.232-4.595 3.287l-11.264 3.66-7.433-22.878 10.309-3.349q4.01-1.303 6.652-.42 2.645.882 4.059 4.152.672 2.068.319 3.8Q2.056-5.909.479-4.693c1.073.049 1.971.437 2.702 1.162q1.09 1.087 1.701 2.965" clip-path="url(#v)" style="fill:#fff;fill-opacity:1;fill-rule:nonzero;stroke:none" transform="matrix(1.33333 0 0 -1.33333 595.366 230.122)"></path><path d="M0 0q1.407-1.399 1.261-3.281t-2.19-4.405L1.62-9.749l3.579 4.42 12.739-10.317 2.97 3.666L2.421 2.99Z" clip-path="url(#w)" style="fill:#fff;fill-opacity:1;fill-rule:nonzero;stroke:none" transform="matrix(1.33333 0 0 -1.33333 386.1 280.662)"></path><path d="m0 0-5.804-2.83-4.002-12.858-4.297 8.81-4.45-2.17 10.544-21.621 4.451 2.17-3.578 7.338 1.108 3.146 11.281-6.186 5.833 2.845-15.57 8.189z" clip-path="url(#x)" style="fill:#fff;fill-opacity:1;fill-rule:nonzero;stroke:none" transform="matrix(1.33333 0 0 -1.33333 463.71 222.554)"></path><path d="m0 0-5.073.895-3.951-4.297 3.295-.581z" clip-path="url(#y)" style="fill:#fff;fill-opacity:1;fill-rule:nonzero;stroke:none" transform="matrix(1.33333 0 0 -1.33333 576.152 204.751)"></path><path d="m0 0 3.933 4.85-3.815.067-2.122-2.724-2.093 2.798-3.813.066L-4.182.073Z" clip-path="url(#z)" style="fill:#fff;fill-opacity:1;fill-rule:nonzero;stroke:none" transform="matrix(1.33333 0 0 -1.33333 541.346 206.7)"></path><path d="m0 0 3.331-3.572L7.025-.126l-3.33 3.572z" clip-path="url(#A)" style="fill:#fff;fill-opacity:1;fill-rule:nonzero;stroke:none" transform="matrix(1.33333 0 0 -1.33333 416.847 284.264)"></path><path d="m0 0-8.332-6.509-3.336 4.271 9.517 7.436-2.616 3.347L-18.265-2l14.809-18.956 3.981 3.111-6.241 7.988 8.331 6.508z" clip-path="url(#B)" style="fill:#fff;fill-opacity:1;fill-rule:nonzero;stroke:none" transform="matrix(1.33333 0 0 -1.33333 435.327 252.09)"></path><path d="M0 0q-.73-.969-2.219-1.312a2.9 2.9 0 0 0-1.995.523q-.989.694-1.32 2.123-.363 1.576.248 2.593.61 1.017 1.835 1.3 1.43.33 2.503-.391Q.124 4.116.448 2.715.825 1.082 0 0m-7.296 10.701q-.237 1.02.388 1.779.623.759 1.675 1.002 1.137.263 2.031-.345a2.7 2.7 0 0 0 1.142-1.688q.25-1.08-.278-1.925-.528-.843-1.986-1.18-1.164-.147-1.931.508-.765.652-1.041 1.849M4.729 2.813a7 7 0 0 1-.111.742l-.107.467q-.378 1.633-1.354 2.669Q2.067 7.823.329 8.158q1.084.896 1.428 2.067.345 1.17.055 2.424-.553 2.393-2.514 3.57-2.142 1.287-5.118.601-2.918-.673-4.406-2.617-1.376-1.76-1.101-3.881l.168-.728q.304-1.313 1.104-2.189.801-.876 2.4-1.274-1.62-1.235-2.085-2.818-.454-1.364-.056-3.085.07-.17.184-.465.115-.296.169-.53.824-2.238 2.947-3.315 2.361-1.176 5.6-.428 3.123.722 4.563 2.867Q4.95.25 4.729 2.813" clip-path="url(#C)" style="fill:#fff;fill-opacity:1;fill-rule:nonzero;stroke:none" transform="matrix(1.33333 0 0 -1.33333 581.017 576.568)"></path><path d="M0 0q.334 1.022 2.722 2.914 2.808 2.26 3.839 3.552 1.893 2.39 1.651 5.165-.287 3.282-2.622 4.881Q3.448 17.978.166 17.69q-3.401-.297-4.995-2.691-1.406-2.138-1.118-5.418l4.088.357-.043.477q-.12 1.373.256 2.217.602 1.376 2.452 1.537 1.611.141 2.517-.952a3.1 3.1 0 0 0 .727-1.771q.183-2.087-1.894-4.133A471 471 0 0 0-.77 4.683q-2.261-1.971-3.123-3.46-1.362-2.313-1.095-5.357L9.48-2.868 9.158.802Z" clip-path="url(#D)" style="fill:#fff;fill-opacity:1;fill-rule:nonzero;stroke:none" transform="matrix(1.33333 0 0 -1.33333 545.39 582.34)"></path><path d="M0 0q-1.583-.592-4.402.11l-.71-2.847 4.94-1.232-3.55-14.238 4.097-1.021L5.526 1.431l-3.342.833Q1.582.593 0 0" clip-path="url(#E)" style="fill:#fff;fill-opacity:1;fill-rule:nonzero;stroke:none" transform="matrix(1.33333 0 0 -1.33333 490.152 557.177)"></path><path d="M0 0q-.165-1.88-1.017-2.857t-2.433-.839q-1.7.148-2.371 1.41-.568 1.073-.42 2.772.129 1.461.951 2.442.823.98 2.284.852 1.61-.141 2.414-1.263Q.133 1.522 0 0m-2.885 7.227q-3.162.275-5.23-1.541-2.068-1.82-2.363-5.19-.3-3.4 1.557-5.456c1.086-1.218 2.514-1.904 4.274-2.059q1.305-.113 2.363.215c.705.219 1.308.637 1.798 1.255l.054-.064q-.255-2.895-1.463-4.411-1.036-1.292-2.402-1.173-2.163.189-2.368 2.311l-4.182.365q-.197-2.266 1.566-4.043 1.767-1.779 4.653-2.031 4.226-.369 6.426 3.135 1.67 2.679 2.082 7.363l.187 2.148q.373 4.267-1.611 6.664Q.635 6.919-2.885 7.227" clip-path="url(#F)" style="fill:#fff;fill-opacity:1;fill-rule:nonzero;stroke:none" transform="matrix(1.33333 0 0 -1.33333 523.2 568.208)" data-source="https://football-logos.cc"></path><!-- source: https://football-logos.cc --></svg>