<svg xmlns="http://www.w3.org/2000/svg" fill-rule="evenodd" viewBox="0 0 160.38 184.66"><!-- Source: https://football-logos.cc --><path fill="#1f211d" d="M155.43 90.317a77.6 77.6 0 0 1 1.887 17.027c0 42.693-34.624 77.316-77.316 77.316S2.684 150.037 2.684 107.344c0-5.893.668-11.767 1.997-17.506-.456-.341-.722-.897-.94-1.548L.324 78.08c-.369-1.102-.481-1.746-.026-2.88a85.8 85.8 0 0 1 8.754-16.402L6.99 53.03c-.705-1.972-.509-3.137.854-4.787a96.2 96.2 0 0 1 15.18-14.722l-.357-2.05c-.16-.802-.411-1.528-.315-2.366.12-1.046.734-1.813 1.554-2.426a94.3 94.3 0 0 1 15.774-9.568l-.287-.856c-.795-2.361-.227-4.157 2.33-4.902L80.31 0l37.825 11.73c.708.219 1.288.663 1.61 1.34.441.925.255 1.926.019 2.873l-.162.646a98 98 0 0 1 4.157 2.13c4.116 2.22 8.17 4.694 11.912 7.503.515.386 1.08.675 1.4 1.265.345.636.257 1.3.116 1.975l-.715 3.424a90.3 90.3 0 0 1 15.776 15.37c.404.503.854.977.982 1.634.132.679-.12 1.286-.359 1.905l-2.287 5.945a84.3 84.3 0 0 1 9.486 17.71c.48 1.228.346 1.687-.047 2.875l-3.334 10.066c-.295.89-.557 1.518-1.26 1.926" data-source="https://football-logos.cc"></path><path fill="#fff" d="M153.883 89.49A76.2 76.2 0 0 1 156 107.344c0 41.966-34.033 75.999-75.998 75.999S4.002 149.31 4.002 107.344c0-6.345.783-12.508 2.25-18.4l-.368-.061c-.514-.004-.65-.282-.893-1.011L1.574 77.66c-.221-.661-.413-1.073-.053-1.97a84.4 84.4 0 0 1 9-16.701l-2.29-6.403c-.487-1.365-.538-2.092.629-3.504a94.8 94.8 0 0 1 15.6-15.004l-.498-2.85c-.28-1.42-.794-2.352.733-3.494a92.7 92.7 0 0 1 16.609-9.932l-.663-1.968c-.517-1.539-.45-2.663 1.453-3.218L80.3 1.377l37.444 11.611c1.266.392.984 1.665.741 2.635l-.424 1.697c1.729.796 3.4 1.656 5.073 2.559 4.017 2.167 8.094 4.655 11.746 7.397 1.029.772 1.28.66 1.017 1.916l-.886 4.243A89 89 0 0 1 151.22 49.08c.853 1.064.91.973.422 2.241l-2.54 6.604a83 83 0 0 1 9.742 18.004c.349.893.234 1.06-.071 1.981l-3.334 10.067c-.284.857-.38 1.152-1.047 1.357z"></path><path fill="#0073b4" d="M80 33.762c40.632 0 73.583 32.95 73.583 73.582S120.632 180.927 80 180.927c-40.632 0-73.583-32.951-73.583-73.583S39.37 33.762 80.001 33.762"></path><path fill="#0073b4" d="M110.256 30.632c21.16 8.3 38.084 25.045 46.336 46.176L153.23 86.96c-6.321-22.75-22.962-41.207-44.56-50.015zM51.74 36.781C30.182 45.427 13.5 63.664 6.983 86.214l-3.22-9.623c8.375-20.872 25.185-37.611 46.173-45.932z"></path><path fill="#0073b4" d="M112.044 23.519c14.808 5.682 27.731 15.139 37.29 27.071l-1.937 5.034c-9.44-12.313-22.138-21.746-36.552-27.337zm-62.789 4.828a85.2 85.2 0 0 0-37.02 28.264l-1.95-5.456C20.13 39.063 33.07 29.438 47.87 23.645z"></path><path fill="#0073b4" d="m80.281 3.99 35.833 11.033-.92 3.682c6.422 2.738 13.562 7.017 18.205 10.503l-.538 2.668a92 92 0 0 0-20.226-10.711l1.084-4.314L80.017 6.545l-34.22 10.063 1.389 4.715a93 93 0 0 0-20.554 11.15l-.49-2.803c5.597-4.186 11.645-7.743 18.152-10.558l-1.416-4.207z"></path><path fill="#0073b4" d="m63.322 32.71-7.58 1.784-.737-3.132 1.504-.354-2.507-10.647-1.49 2.376-2.139-2.004 2.774-4.005 4.735-1.116 3.363 14.28 1.34-.315zm6.313-2.309q.083.741-.445 1.337a2.06 2.06 0 0 1-1.354.69q-.825.092-1.462-.371-.637-.464-.72-1.204a1.68 1.68 0 0 1 .42-1.345q.508-.582 1.354-.679.849-.096 1.484.357.636.454.723 1.215m16.08-2.737q0 3.826-4.079 3.826H72.61v-5.473h4.949v1.749h2.936v-3.598h-4.187q-1.835 0-2.9-.862-1.069-.861-1.07-2.534v-3.75q0-3.42 4.079-3.42h8.728v5.27h-4.65v-1.545h-2.936v3.268h3.67q2.203 0 3.236.684 1.251.837 1.251 2.787zm19.64 7.716-6.548-1.459 1.488-6.677-2.798-.624-1.488 6.678-6.52-1.453.81-3.636 1.304.29 2.287-10.263-1.304-.29.794-3.561 6.52 1.452-1.692 7.593 5.495-6.745 4.971 1.107-.793 3.562-1.712-.382-3.441 3.551 3.398.74-1.374 6.166 1.412.315z"></path><path fill="#fff" d="M141.141 57.66c-.13-1.182-.466-1.522-1.55-.757-3.855 2.678-7.808 5.351-12.063 7.363l-.22.104-.164-.18a64 64 0 0 0-.953-1.02l-.277-.29.338-.215q.227-.145.453-.292c2.004-1.298 3.982-2.64 5.894-4.07 2.338-1.75 5.052-3.918 6.756-6.3.992-1.385 1.763-3.398 1.958-5.09.19-1.635.127-3.412-.226-5.02-.239-1.091-.791-2.945-2.163-2.998-.444-.017-.853.182-1.16.494-2.6 2.64-5.226 5.27-8.052 7.669-1.985 1.686-4.07 3.22-6.357 4.473q-.12.067-.242.132l-.21.113-1.697-1.614a5.4 5.4 0 0 0-1.759-1.148c-1.564-.622-3.529-.516-4.952.414-.881.576-1.544 1.335-2.24 2.109l-.28.31-.237-.344c-1.168-1.695-2.762-2.828-4.684-3.534l-.17-.062-.039-.176a1.92 1.92 0 0 0-.535-.966c-.54-.534-1.253-.578-1.966-.645-.186-.018-.434-.036-.604-.108-3.879-1.646-8.1-2.483-12.279-1.585l-.063.014-.064-.012a64.3 64.3 0 0 0-11.003-1.001l.036 8.845-.349.742.292.19-.007 4.055-.024.06c-.276.679-.535 1.365-.795 2.051l-.08.213h-.228c-1.215-.002-2.43 0-3.644.044-3.126.114-7.204.482-9.725 2.512l-.095.076-.122-.004a7.4 7.4 0 0 0-1.957.186c-2.394.577-4.695 1.564-6.843 2.76-2.622 1.462-5.081 3.266-7.31 5.274-1.778 1.602-3.532 3.419-4.893 5.392a5.5 5.5 0 0 0-.643 1.314l-.035.102-.088.061c-4.57 3.168-6.856 7.916-8.608 13.032-.725 2.118-1.359 4.272-1.819 6.465a47 47 0 0 0-.779 5.295c-.208 2.264-.115 4.556.562 6.739l.025.082-.017.083c-.234 1.12-.445 2.396-.375 3.54.432 7.125 1.54 11.876 5.799 17.729q.361.492.776.937l.06.065.02.085c.397 1.727 1.247 3.534 2.311 4.948 1.055 1.402 2.238 2.705 3.473 3.95a60 60 0 0 0 4.81 4.336c3.966 3.213 8.302 5.903 13.084 7.722 1.914.729 3.939.982 5.97.71l.09-.013.085.037c3.052 1.327 6.351 1.93 9.669 1.993l.323.006-.03 27.95 1.605-1.272c.723-.573 1.131-.974 1.631-1.754l.237-.368.289.328c.643.732 1.333-.062 1.613-.693l.105-.236.254.045c.335.06.683-.079.968-.243a9.8 9.8 0 0 0 2.715-2.299l.183-.225.493.306-.12.264a27 27 0 0 1-.301.633c-.784 1.55.43 2.611 1.748 1.164a11.4 11.4 0 0 0 1.793-2.916l.112-.269.56.155-.041.287c-.089.616-.28 1.257-.415 1.868-.23 1.046 1.07 1.145 1.773.798 2.219-1.093 3.374-4.313 3.454-6.639l.026-.782.541.566c.044.045.116.11.185.105.299-.023.678-.789.783-1.035.358-.84.646-1.715.81-2.615l.036-.19.183-.063a63 63 0 0 0 1.889-.675l.426-.16.018.456c.076 1.924-.36 3.82-1.122 5.58-.269.622-.204 1.35.449 1.69.237.123.328.139.587.128.207-.008.418-.068.596-.174 2.538-1.518 4.675-3.707 5.646-6.547.432-1.261.606-2.601.53-3.931l-.012-.212.188-.099a64.2 64.2 0 0 0 13.819-9.786l.149-.139.19.071c.28.105.573.169.87.199l.231.023.056.226c.142.584-.048 1.229-.215 1.785-.095.338-.135.757.153 1.016.285.256.775.275 1.137.2 1.908-.675 3.1-2.38 2.96-4.417a4 4 0 0 0-.07-.518l-.024-.122.062-.108a2.35 2.35 0 0 0 .32-1.02q.025-.362-.067-.713a1.98 1.98 0 0 0-.755-1.134l-.281-.211.23-.267q.916-1.062 1.785-2.164l.258-.327.259.326c.553.695 1.36.538 1.752-.217.345-.937.543-1.97.224-2.941l-.05-.155.092-.134c7.31-10.66 11.168-23.173 11.168-36.097 0-8.65-1.729-17.18-5.135-25.133l-.072-.167.104-.15q.053-.076.103-.153c1.712-2.615 1.685-6.448 1.68-9.472-.05-1.301-.516-1.613-1.59-.79-1.273.974-2.587 1.902-3.965 2.723l-.28.167-.17-.278a62 62 0 0 0-.839-1.336l-.184-.285.291-.176q.604-.363 1.169-.782a13 13 0 0 0 2.092-1.953c3.092-3.604 4.317-7.155 4.02-11.899M118.83 51.85l-.413.836c-.356.72-1.103 1.471-1.688 2.028l-.194.185-.22-.153q-.427-.295-.857-.584l-.315-.21.251-.283c.425-.478.88-.966 1.438-1.289a3.7 3.7 0 0 1 1.386-.45zm2.606.655q-.4.188-.804.366l-.294.13-.54-1.143.527.007.188.002 2.224.029z"></path><path fill="#2c2c2b" d="M80.318 59.96c.777-2.054 1.631-4.523 3.26-6.655-1.232-.04-1.98-.263-2.547-.485 5.99-7.997 13.702-9.556 22.323-5.898.708.3 1.794.083 2.26.545.34.337.33.775.245 1.153 2.427.69 4.342 1.997 5.57 4.27l.315.583c1.129-1.017 2.035-2.396 3.291-3.217 1.14-.745 2.766-.833 4.047-.324.65.259 1.079.6 1.443.946a25 25 0 0 0-2.044.033c-.75.05-1.478.227-2.145.613-.729.421-1.269 1.022-1.82 1.644q-.269.306-.545.602c-1.035 1.099-2.04 1.998-3.51 2.443a9.8 9.8 0 0 1-2.483.41l-.578.636c-2.636 2.898-8.872 3.202-12.51 2.86l-.131-.012c-.198.124-.38.25-.505.39-.196.353-.24 1.02-.256 2.398-.01.943-.113 2.625.838 2.825 2.048.43 3.105.754 4.305 1.661 3.188 2.412 3.373 6.135 9.123 5.271-4.383 4.375-10.397 3.768-15.345-2.426-.076.017-.739.105-.351.712 3.606 5.644 2.778 11.648 6.779 11.866 3.42.186 3.315-1.58 6.565-5.266.34-.386 1.02-.725 1.9-.404 2.247.819 5.978 3.266 8.253.431.919-1.144 1.23-6.585-2.828-7.278-3.341-.57-5.553-4.03-3.844-6.918 2.265-3.828 8.56-7.517 9.909-10.246l.546 1.152c6.348-2.588 10.275-5.72 18.62-14.192 1.14-1.157 2.303 2.913 1.863 6.716-.214 1.857-1.124 3.714-1.78 4.63-3.516 4.913-14.125 11.162-16.095 12.49-.384-1.315-.89-2.932-1.273-4.064a69 69 0 0 0 6.489-5.034 5197 5197 0 0 1-7.703 5.034c1.774 4.075 2.954 10.583 2.805 15.461-.431 14.174-9.996 26.781-26.701 25.053-.58-.06-.135.699.39.882.419.147 1.453.111 1.884.092l.652 5.324.058-5.325 1.747-.002c.142 4.228.887 7.759 1.733 10.969 1.087 4.128 2.584 8.21 2.694 11.592-5.619-2.063-8.085-12.432-9.158-16.86-.701 4.905-4.112 11.573-6.974 16.315 4.416-.808 9.26-1.924 12.3-.08 5.243 3.184 1.862 10.147 8.926 11.118-1.879 1.831-3.538 2.96-5.163 3.61.204.28.509.484.905.57l6.91 1.5q.127-.152.275-.287c1.827-1.642 4.579-1.123 6.804-.76q.14-.156.277-.32c.452-.534.847-.92 1.427-1.326.504-.352 1.108-.714 1.545-1.146.223-.22.411-.5.576-.766.335-.538.868-1.731 1.573-1.782.313-.023.57.155.765.385q.092.11.154.222c2.467-.33 5.069.766 4.076 3.358-.62-.602-1.308-1.013-1.961-1.148a2.64 2.64 0 0 0-1.22.054.8.8 0 0 1-.033.61c-.305.69-1.427.485-2.083.476-.528.277-1.243.64-1.633 1.052-.342.36-.553.956-.376 1.437.216.583.562.81 1.161.91.98.163 2.092-.067 3.08-.115.572-.027 1.386.346 1.752.842.81.315 1.556.819 2.023 1.3.774.799.96 1.742.391 3.276-.709-1.188-1.136-1.789-1.756-2.037a1.8 1.8 0 0 0-.86-.097c-.013.138-.04.273-.093.403-.254.623-1.003.732-1.507.329-.275-.22-.679-.198-1.002-.353a1.1 1.1 0 0 1-.27-.184c-.44.347-1.03.462-1.58.239-.286-.116-.57-.349-.85-.564-.125.334-.321.645-.648.769-.387.147-.8.1-1.195.012.76.714 1.593 1.373 2.379 2.033.178.15.382.465.515.66.222.323.44.649.67.966.219.3.46.616.726.875.63.61 1.938.514 2.201 1.519q.05.193.037.392c-.027.379-.218.707-.49.982.11.305.18.616.201.924.1 1.439-.624 2.831-2.318 3.423.4-1.324.377-1.967.143-2.592a2.3 2.3 0 0 0-.436-.713c-.553.046-1.128-.025-1.59-.31-.149-.092-1.636-2.108-1.801-2.38-.25-.41-.51-.873-.795-1.258-.213-.286-.458-.565-.683-.843-.484-.598-.33-1.358-.904-1.97-.499-.133-1.016-.195-1.503-.363-1.035-.359-1.884-.922-2.505-1.735a11 11 0 0 1-.403 1.906l-.028.09-.066.067c-.626.638-1.168 1.36-1.791 2.004-.48.496-.956.992-1.466 1.46-.287.264-.627.504-.945.73-.285.205-.696.47-.972.719-.052.44.044.883-.184 1.304-.215.397-.687.581-1.128.552-.297.981-.123 1.911.7 2.624-2.593.318-3.811-1.995-2.854-4.327a1.66 1.66 0 0 1 .113-1.292l.054-.098.098-.053c.967-.524 2.002-1.458 2.775-2.231.436-.438.772-1.045 1.195-1.521.276-.312 1.868-1.95 2.02-2.344a3.7 3.7 0 0 1-.413-1.112l-19.516-3.044c-.878-.137-1.872-.652-2.127-1.57-.23-.827.345-1.558 1.017-2.085a11 11 0 0 1-.312-.22c-.038-2.544-2.408-3.897-3.82-3.51-3.621.996-3.018 8.786-.674 11.394 1.844 2.05 4.09 4.742 7.046 4.563 1.555-.094 2.986-.973 3.028-4.441 2.91 2.011 3.233 5.77.546 8.248 5.922 1.669 8.954 5.262 10.252 8.732 1.76 4.707.45 9.647-4.975 12.89-.1.06-.439.108-.217-.403 4.026-9.307-2.423-17.097-11.732-17.64-1.232-.073-.267 2.103.961 2.517 1.598.539 4.554.749 6.46 4.129.928 1.647 1.88 4.06.253 7.882-.059.138-.206.467-.214-.034-.048-3.366-.668-5.582-1.52-6.97-2.487-4.047-4.508-2.795-6.85-5.159-.25-.252-.151.44-.083.608 1.917 4.74 6.83 6.62 7.054 12.591.07 1.874-.847 5.237-2.903 6.25-.137.067-.249-.015-.216-.164.86-3.904.494-6.707-2.457-9.579-.35-.34-.565.49-.392.693 1.859 2.188 1.728 6.086-1.041 9.381-.127.152-.213.134-.099-.1 1.786-3.64 1.843-5.83.448-8.37-.163-.297-.63-.204-.585.15.449 3.569-1.415 6.641-4.214 8.253-.233.134-.405.22-.273-.078 1.172-2.642 1.092-4.212.97-6.472-.013-.25-.242-.316-.444-.278-.23.042-.442.333-.403.722.267 2.63-.515 4.978-1.394 6.672-.125.242-.29.217-.184-.077.769-2.164.946-5.833.621-7.068-.1-.384-.306-.143-.315-.024-.406 5.318-1.842 8.047-3.745 9.554l-.022-26.85c-3.944.094-7.628-.553-10.929-2.06-1.984.332-3.955.122-5.847-.598-4.698-1.788-8.918-4.411-12.813-7.567a59 59 0 0 1-4.73-4.264c-1.195-1.206-2.364-2.49-3.385-3.848-1.014-1.349-1.88-3.196-2.21-4.918a10 10 0 0 1-.948-1.105c-3.727-5.122-5.13-9.276-5.611-17.207-.053-.863.104-2.143.428-3.617-.725-2.13-.836-4.392-.625-6.676.161-1.747.4-3.465.761-5.183.453-2.154 1.075-4.267 1.787-6.348 1.754-5.122 4.011-9.778 8.603-12.787.164-.575.378-1.087.65-1.48 2.935-4.257 10.54-11.116 18.463-13.028.693-.167 1.441-.195 2.196-.127 2.273-2.178 6.627-2.51 9.508-2.615 1.585-.058 3.167-.043 4.75-.041zm-12.802 91.08c-2.673-1.557-5.053-3.748-7.062-6.646-4.562-2.292-8.73-5.616-11.681-9.714a13.16 13.16 0 0 1-6.91-2.578c.394 1.074.961 2.12 1.581 2.945.99 1.317 2.127 2.565 3.286 3.734a58 58 0 0 0 4.643 4.184c3.803 3.083 7.923 5.649 12.512 7.394 1.185.45 2.4.681 3.63.68m-5.725-7.218c7.096 1.154 12.111-1.058 17.36-4.148l-.05-18.606c-6.44-3.613-11.827-7.701-17.519-12.858a79 79 0 0 0-5.248 1.696c-2.876 1.04-5.928 2.31-8.607 3.883-.55 4.692-.37 13.758 1.78 20.028 3.032 4.308 7.47 7.749 12.284 10.005m-.577-36.65c1.111-6.818 3.634-15.077 6.865-21.32-1.82-3.888-4.152-7.934-7.403-10.64-4.588.12-9.563 2.21-15.622 7.623-3.331 4.53-5.252 10.443-5.863 16.023.911 3.973 3.429 8.623 8.26 13.821 2.669-1.532 5.667-2.778 8.509-3.806a80 80 0 0 1 5.254-1.7m7.845-21.815c3.395-.734 6.985-1.141 11.249-1.029l.009-19.444c-3.472-.034-7.22.148-10.434 1.082-3.3 1.97-6.955 4.822-8.515 8.393 3.39 2.817 5.799 6.962 7.691 10.998m11.258-21.57v-2.114c-1.57-.002-3.138-.017-4.709.04-2.192.08-5.873.299-8.087 1.76 1.153.272 2.246.713 3.096 1.164 3.075-.73 6.49-.881 9.7-.85m-45.518 42.855c.762-2.585 1.905-5.4 3.262-7.531.596-5.988 2.658-12.356 6.295-17.178a14 14 0 0 1 .088-2.505c-3.766 2.872-5.71 7.061-7.257 11.58-.697 2.04-1.308 4.109-1.75 6.219a44 44 0 0 0-.744 5.058c-.135 1.47-.133 2.935.106 4.357m76.79-53.034-.6-.165c-1.518-.416-2.81-.595-4.358-.27-.698.147-1.385.356-2.081.518q-.246.058-.5.041c-.477-.03-.975-.261-1.433-.401-.737-.225-1.446-.286-2.215-.243a5.9 5.9 0 0 0-2.324.638 9.3 9.3 0 0 1 1.916-.031c2.965.246 6.434 1.476 9.36 1.016.885-.14 1.598-.56 2.235-1.103M96.396 56.11c.755 1.354 5.296 1.526 6.565 1.383 1.334-.15 2.756-.43 4.032-.857l.047-.016c-.867-.036-1.74-.159-2.635-.326-1.747-.325-3.592-.833-5.376-.778a6.75 6.75 0 0 0-2.633.594m7.327 44.949c2.156 16.387 6.276 25.262 12.61 27.139 2.737.81 6.741.468 9.575-3.07-7.605-4.619-13.306-15.125-16.508-25.587q-1.07.436-2.235.776l2.314 9.776-3.108-9.56q-1.27.326-2.648.526m7.424-2.315c5.854 12.387 12.475 17.16 17.315 18.201 4.887 1.052 9.767-1.814 9.995-8.489-8.189-2.991-15.719-7.266-21.454-14.102a21 21 0 0 1-2.608 2.352l6.784 7.81-7.682-7.163q-1.1.752-2.35 1.391m8.43-7.553 5.967 2.23-5.51-2.888a21 21 0 0 0 1.508-2.597c5.037 2.735 11.127 2.585 16.976.515 1.675 6.885-1.128 10.066-4.613 10.868-3.61.83-10.133-1.47-15.736-6.3.496-.601.969-1.212 1.408-1.828m4.43-12.69c5.408-.126 9.919-1.892 15.602-6.237.01 5.167-.278 8.37-2.96 10.503-2.925 2.328-8.028 2.813-14.094 2.564a33 33 0 0 0 .858-3.108l6.375-1.471-6.174.491q.252-1.324.392-2.742m.013-6.617 5.829-3.257-5.911 2.398a50 50 0 0 0-.6-4.026c5.444-1.74 10.653-5.003 16.816-9.284.284 4.512-.864 7.8-3.782 11.2-2.81 3.275-6.735 4.326-12.207 6.038a39 39 0 0 0-.145-3.069" data-source="https://football-logos.cc"></path><path fill="#fff" d="M91.242 48.628c2.1-.31 2.932-.492 4.558-.657 1.923-.195 3.774.465 4.496-.069-.922-.531-2.848-.757-4.385-.674-1.686.09-3.65.606-4.67 1.4m-6.093 1.727c1.185-.454 1.758-.82 2.723-1.45a26 26 0 0 1 3.243-1.829c-1.116.222-2.538.673-3.378 1.144-1.618.906-2.186 1.456-2.588 2.135m.976 4.048c-1.398 1.256-2.304 2.811-2.897 4.593.254-2.457 1.184-3.888 2.241-4.978zm5.976-4.772c-.607.133-1.131.35-2.002.757.273-.43 1.32-1.203 2.083-1.332zm1.951-.888c-.664 1.005-1.078 3.747 1.092 3.759 1.838.01 3.183-2.005 3.479-3.942a10 10 0 0 0-1.002-.087c-.268 1.634-1.313 2.284-1.54 2.287-.225.004.343-1.123.136-2.27-.724.043-1.42.134-2.165.253m25.49 17.52c1.521 6.383 1.37 12.632-.666 18.854 1.414-2.345 2.269-5.656 2.425-9.094.159-3.5-.546-7.073-1.758-9.76"></path><path fill="#fff" d="M118.407 71.1c.316 1.603.448 3.396.403 5.047-.053 1.932-.307 3.807-.843 5.696.805-1.336 1.272-3.71 1.35-5.181.11-2.056-.22-4.03-.91-5.562m-17.649 2.491c-1.9-.884-3.62-1.88-4.753-3.083-1.324-1.407-2.435-3.313-3.386-5.03.097 1.728 1.474 3.946 2.512 4.993 1.492 1.504 3.3 2.642 5.627 3.12m-11.501-3.2c.692 1.479 1.465 3.187 1.728 4.8.311 1.907-.042 3.372.499 4.667.53-1.477.408-3.606-.077-5.405-.426-1.577-1.158-2.99-2.15-4.063m4.712 19.793c-.011 1.65-.491 5.891-.727 7.477-.373 2.509-.73 3.728-.918 4.718-.184.974.467 1.285.735.329.304-1.084.68-2.989.837-4.54.173-1.705.423-5.09.073-7.984m-9 32.691c.89-1.388 2.848-4.843 3.564-6.277 1.297-2.597 1.517-3.911 1.9-4.843.376-.917 1.092-.823.795.125-.337 1.074-1.156 3.312-1.87 4.698-.784 1.523-2.711 4.45-4.388 6.297m-1.255 5.732c1.144-1.02 2.127-2.64 2.681-3.625.308-.549.739-.172.418.414-.54.988-1.651 2.424-2.553 3.392-.503.54-1.067.284-.546-.18m9.326-47.694c.349-1.016.39-2.013.13-2.924-.119-.42.432-.4.582.044.27.809.019 2.068-.257 2.718-.206.483-.613.625-.455.162m9.311 13.754c-2.4-.476-4.22-.633-5.472-.326-.611.15-.495-.365.149-.546 2.09-.585 3.988.089 5.036.527.682.284.973.481.287.345m-4.396 2.912c2.914-.26 4.798-1.12 5.985-1.965.58-.412.89-.071.313.418-1.696 1.44-4.132 1.73-6.298 1.547m2.784-9.817c1.107-.54 1.95-1.147 2.884-2.239 1.202-1.404 1.785-3.008 2.29-3.653.308-.395.746-1.006 1.424-1.043.871-.048 2.14.396 1.919.739-.202.313-.877.135-1.73.206-.512.042-.732.19-.83.303-1.104 1.286-2.17 3.411-3.145 4.409-1.135 1.162-1.772 1.567-2.812 1.278m1.038 38.741c-2.726-.636-4.931-.844-6.926-.798-3.256.075-4.545 1.326-5.523 1.566-.962.236-.866-.447.074-.766 1.066-.361 3.407-1.362 4.947-1.602 1.692-.264 5.83.156 7.428 1.6M88.545 83.26c-.447 1.551-.443 6.446-.679 8.032-.373 2.508-.682 2.882-.87 3.872-.184.973.4 1.068.663.304.348-1.013.753-2.577.91-4.128.172-1.705.326-5.187-.024-8.08m2.925.527c-.014 2.052-.28 7.471-.542 9.449-.464 3.507-1.418 5.17-1.65 5.868-.39 1.169.375 1.66.817.506.571-1.494 1.221-3.67 1.477-5.72.264-2.116.382-6.503-.102-10.103"></path><path fill="#b4525c" d="M97.206 54.29c.826-.232 1.78-.293 2.756-.212 2.99.249 6.5 1.477 9.451 1.012 2.734-.43 3.863-3.226 5.832-4.512 1.018-.665 2.794-.86 4.17-.059-3.392-.154-4.375 1.557-5.723 2.988-1.092 1.158-2.019 1.937-3.342 2.338a9.3 9.3 0 0 1-2.003.372l.044-.048-.17.057c-4.283.273-8.082-2.2-11.928-.49v-.021c.008-.54.47-1.063.913-1.426"></path><path fill="#f1ba52" d="M94.926 59.736a5.3 5.3 0 0 1-.094-1.127c1.16.058 1.993.347 2.746.374.483.017.908-.059 1.288-.167.12-.034.168-.347-.093-.303-.512.086-.672.141-1.15.131-.508-.01-1.233-.267-2.824-.44-.335-2.564.775-4.222 2.2-4.97 2.266-1.19 3.374-.812 3.734-1.24.396-.475.388-1.313.838-1.738.58-.545 1.346-.415 2.202-1.217.262-.244.45-.66.74-.875.298-.223.931-.253.932.736-.03.132.109.123.268.11 2.812.728 4.387 2.23 5.378 4.063-3.295-.905-4.442-.266-6.629.244-.982.228-1.608-.751-4.081-.613-2.29.128-4.452 1.644-4.472 3.005-.032 2.135 5.579 2.337 7.095 2.166 1.62-.183 3.104-.537 4.111-.874-2.304 2.533-7.897 3.139-12.189 2.735m8.916-9.313c.246-.283.697-.469 1.291-1.206.235-.29.476-.068.299.194-.032.049-.13.135-.168.184 1.097.336 2.883 1.537 3.073 1.784.203.264-.192.363-.422.218-.31-.194-1.124-1.123-2.858-1.728-.35.373-.772.718-.974.827-.293.16-.42-.068-.241-.273m-11.79 86.052c-.723.533-1.148 1.166-.984 1.758.142.51.716 1.1 1.75 1.283.362-.658.393-1.42.23-2.17l-.024-.108.215-.047.024.108c.169.778.138 1.566-.216 2.253l2.033.317.204-1.346.156.188c.385.461.786.921 1.162 1.396l1.113.173.23-1.527.157.188c.44.53.904 1.056 1.325 1.606l.585.092.261-1.732.157.187c.504.606 1.037 1.208 1.504 1.845l.058.009.279-1.845.157.198c.52.658 1.085 1.292 1.587 1.962l.625.097.315-1.315.14.21c.309.467.65.91 1.015 1.335l1.16.18.371-1.572.14.211a14 14 0 0 0 1.316 1.647l3.185.497c-.072-.745.07-1.51.452-2.14l-6.749-1.464a1.9 1.9 0 0 1-1.194-.806c-2.027.722-4.022.717-6.344.415-2.187-.285-4.37-.8-6.394-2.083m15.435 5.33 1.266.197c-.36-.404-.706-.824-1.014-1.264zm-2.63-.41.922.143q-.385-.461-.727-.954zm-2.648-.414 1.493.233c-.414-.536-.862-1.053-1.29-1.58zm-1.98-.309 1.395.218c-.382-.503-.8-.986-1.206-1.468zm-2.298-.358 1.18.184c-.33-.418-.68-.824-1.022-1.23zm-2.634-.41.983.153c-.278-.345-.568-.682-.852-1.019z"></path><path fill="#f1ba52" d="M122.783 140.266c-.22-.594-.01-1.343.457-1.834.383-.404 1.068-.777 1.6-1.057.075-.04.008-.626.344-1.147-.063.649.034 1.032.121 1.035.614.024 1.413.126 1.579-.25.176-.398-.326-.836-.488-1.229-.184-.446-.151-1.087-.47-1.464-.838-.99-1.356 1.206-2.35 2.19-.437.43-1.122.855-1.596 1.186-.983.687-1.235 1.173-1.782 1.745-2.672-.43-5.045-.846-6.689.632-1.093.984-1.058 2.762-.376 3.876.164.403-1.014 1.474-2.112 2.712-.457.516-.8 1.127-1.21 1.538-1.136 1.137-2.166 1.92-2.864 2.298-.108.194-.288.77.055 1.271.207.303 1.002.997 1.512 1.127.355.09.773-.037.93-.325.105-.195.114-.432.118-.687.006-.33-.001-.684.023-1.004.035-.448.423-.92.802-1.143.221-.13.495-.22.724-.1.067.035.116.238.033.247-.245.023-.374.039-.505.108-.513.273-.615.6-.678.963.488-.358 1.304-.91 1.661-1.237q.151-.14.294-.275c.128-.407.418-.974.356-1.766-.03-.389.197-.306.238-.205.176.429.066 1.02-.005 1.386.19-.194.376-.388.567-.585.15-.156.226-.373.377-.545.157-.177.39-.309.544-.489.149-.172.22-.42.365-.583.145-.164.238-.32.405-.605.24-.783.544-1.54.583-2.849.37.884.918 1.509 1.55 1.956.707-.165 2.455-.192 2.53-.146.017.012-.334.06-.565.098-.439.072-1.005.183-1.514.33.297.164.607.297.92.406.404.14.79.19 1.248.297.53.125.983.108 1.5.104-.396.17-.664.2-.855.28.12.097.33.352.61.508-.238.193-.267.444-.23.57.062.211.175.532.307.695.112.138.25.227.387.295.302.149.659-.085.705.167.05.28-.05.981.081 1.192.117.188.115.13.334.49.017.027.157.163.23.264.046.065.851.006 1.358.047l-.02 1.055-.264-.79c-.164.079-.593.076-.8.133.551.553 1.154 1.532 1.17 1.542 1.329.82 4.217-.396 3.88-1.68-.196-.748-1.41-.676-2.096-1.342-.754-.73-1.61-2.246-1.891-2.482-.67-.562-2.016-1.675-3.02-2.67-.112-.11-.072-.337.182-.401.195-.05.492-.121.656.063.288.325.84.41 1.108.31.304-.116.488-.548-.024-1.724.58.31 1.47 1.386 1.803 1.522.379.153.749.095 1.046-.08.178-.105.356-.443.444-.662.072.23.204.599.345.676.31.171.726.11 1.113.42.355.283.777.154.911-.174s.046-1.048.058-1.113c.082-.44.569-.788.36-1.234-.132-.28-.826-.843-1.501-.81-.854.04-2.155.276-3.16.109-.708-.117-1.186-.417-1.459-1.156m-4.545 1.097c0 .316-.005.612-.023 1.015-.003.073-.15.082-.155.01l-.078-1.011q-.287.014-.56.023c-.002.242-.008.489-.021.8-.003.072-.15.082-.155.009l-.062-.801q-.473.012-.884.011a25 25 0 0 1-.02.678c-.003.073-.15.083-.155.01l-.053-.69a20 20 0 0 1-.663-.016 8 8 0 0 1-.765-.06c-.072-.01.006-.339.078-.334 2.092.134 5.97-.034 6.752-.13.53-.066.557.073.137.138q-.602.093-1.194.161c-.001.189-.006.083-.023.489-.003.072-.144.081-.155.009l-.07-.47q-.519.057-1.017.097c-.003.194-.009.4-.02.644-.003.073-.149.082-.154.009l-.05-.636q-.353.027-.69.045"></path><path fill="#b4525d" d="M127.092 136.208a3.05 3.05 0 0 1 1.474-.08c.608.125 1.183.444 1.68.835.073-.416.038-.84-.198-1.216-.646-1.027-2.303-1.214-3.526-1.081.086.321.096.65.23.971.08.196.22.38.34.57m4.339 9.203c.157-.743.072-1.433-.548-2.073-.387-.4-.945-.785-1.548-1.065a1 1 0 0 1-.003.189c-.05.403-.338.65-.406.94.001.139.01.28.014.423.338-.03.675-.001.997.127.623.249 1.102.852 1.494 1.459m-5.138 10.526c.921-.573 1.432-1.53 1.352-2.697a3 3 0 0 0-.132-.681 4.2 4.2 0 0 1-1.651.71q.216.29.35.64c.258.686.225 1.355.08 2.028m-17.773-.386c-.448-.718-.475-1.531-.24-2.328-.507-.191-1.215-.745-1.537-1.158-.3.946-.28 2.026.4 2.793.37.415.856.627 1.377.693"></path><path fill="#fff" d="m18.588 98.676.005 4.047-2.83.004.001 1.77 10.49-.012-.003-1.518 3.716-.005.01 8.432-3.715.004-.002-1.518-10.49.014.003 1.77 2.83-.003.006 4.047-6.47.007-.021-17.03zm8.16 19.343q3.621-1.204 4.952 2.796l2.945 8.854-5.181 1.722-1.614-4.853 1.655-.55-.958-2.88-3.286 1.092-.12.04 1.366 4.107q.599 1.799.13 3.116-.465 1.318-2.049 1.846l-3.549 1.18q-3.238 1.078-4.568-2.923l-2.847-8.56 4.988-1.66 1.517 4.56-1.463.488.958 2.88 3.094-1.03-1.198-3.6q-.718-2.16-.408-3.388.384-1.49 2.23-2.105zm5.939 16.215q1.754-1.284 3.129-.967t2.819 2.29l2.688 3.675q1.427 1.95 1.33 3.38t-1.852 2.713l-7.914 5.79q-1.775 1.299-3.148.963-1.374-.337-2.817-2.31l-2.688-3.675q-1.46-1.995-1.349-3.383.113-1.388 1.887-2.686zm3.447 4.198-8.404 6.148 1.71 2.337 8.403-6.149zm20.737-80.374q1.134 1.854.704 3.198-.43 1.345-2.516 2.62l-3.884 2.375q-2.062 1.261-3.478 1.046t-2.55-2.07l-5.117-8.366q-1.147-1.875-.699-3.216.45-1.34 2.535-2.617l3.884-2.375q2.11-1.29 3.484-1.064 1.374.227 2.52 2.103zm-4.47 3.088-5.432-8.884-2.47 1.51 5.433 8.884zm-6.862 83.668 3.578 2.334q1.012.66 1.276 1.285c.264.625.07.92-.316 1.514l-2.97 4.551 2.614 1.704 3.963-6.075 5.555 3.624-2.03 3.112-1.06-.691-5.689 8.721 1.06.691-2.03 3.112-8.968-5.85q-3.696-2.411-1.818-5.29l1.05-1.609q1.574-2.414 4.282-1.37-1.506-1.497-1.088-3.064.19-.6 1.668-2.865l-1.107-.722zm-.254 12.478-1.933 2.964 2.612 1.704 1.934-2.963zm12.377 6.949q.75-3.017 5.36-1.871l3.545.882.86-3.459-1.336-.332.896-3.605 7.828 1.946-.897 3.606-1.309-.326-2.513 10.105 1.31.326-.897 3.605-10.092-2.51q-4.554-1.132-3.658-4.737zm5.182 1.288-.903 3.63 2.973.74.903-3.63zM35.443 83.281l-4.807 13.473-3.5-1.249.435-1.217-9.807-3.5-.435 1.218-3.5-1.248 4.808-13.473 5.42 1.933-1.624 4.553-1.921-.685-.944 2.647 3.213 1.146 1.378-3.862 3.07 1.096-1.377 3.862 3.523 1.257.944-2.647-2.135-.762 1.625-4.553zm-24.072 2.994.896-2.512 2.32-.751-1.32-2.05.896-2.512 2.278 3.537-1.067 2.992zm23.616-25.012-.831.99 7.805 6.545q3.041 2.55.187 5.953l-2.564 3.057q-1.263 1.508-2.697 1.92-1.584.432-2.9-.672l-2.518-2.11 3.34-3.985 2.324 1.949 1.553-1.852-7.979-6.69-.885 1.054-2.847-2.387 5.165-6.159zM73.95 42.995l-1.349.278-.4 14.507-7.46 1.535-6.041-13.181-1.266.26-.75-3.638 5.837-1.202 5.06 12.042-.045-9.28-1.266.26-.749-3.64 7.68-1.58z" data-source="https://football-logos.cc"></path><!-- source: https://football-logos.cc --></svg>