<svg xmlns="http://www.w3.org/2000/svg" viewBox="1168 1168 998.67 998.67"><!-- Source: https://football-logos.cc --><defs data-source="https://football-logos.cc"><clipPath id="a" clipPathUnits="userSpaceOnUse"><path d="M-876 1249.5h2500v-2500H-876Z"></path></clipPath><clipPath id="b" clipPathUnits="userSpaceOnUse"><path d="M-881.555 1249.5h2500v-2500h-2500Z"></path></clipPath><clipPath id="c" clipPathUnits="userSpaceOnUse"><path d="M-888.333 1249.5h2500v-2500h-2500Z"></path></clipPath><clipPath id="d" clipPathUnits="userSpaceOnUse"><path d="M-985.519 1249.5h2500v-2500h-2500Z"></path></clipPath><clipPath id="e" clipPathUnits="userSpaceOnUse"><path d="M-996.333 1249.5h2500v-2500h-2500Z"></path></clipPath><clipPath id="f" clipPathUnits="userSpaceOnUse"><path d="M-1005.111 1315.889h2500v-2500h-2500Z"></path></clipPath><clipPath id="g" clipPathUnits="userSpaceOnUse"><path d="M-1095.884 1047.778h2500v-2500h-2500Z"></path></clipPath><clipPath id="h" clipPathUnits="userSpaceOnUse"><path d="M-1404.005 1452.074h2500v-2500h-2500Z"></path></clipPath><clipPath id="i" clipPathUnits="userSpaceOnUse"><path d="M-1005.111 1315.889h2500v-2500h-2500Z"></path></clipPath><clipPath id="j" clipPathUnits="userSpaceOnUse"><path d="M-1095.884 1047.778h2500v-2500h-2500Z"></path></clipPath><clipPath id="k" clipPathUnits="userSpaceOnUse"><path d="M-1404.005 1452.074h2500v-2500h-2500Z"></path></clipPath><clipPath id="l" clipPathUnits="userSpaceOnUse"><path d="M-1420.252 980.799h2500v-2500h-2500Z"></path></clipPath><clipPath id="m" clipPathUnits="userSpaceOnUse"><path d="M-1481.427 1036.47h2500v-2500h-2500Z"></path></clipPath><clipPath id="n" clipPathUnits="userSpaceOnUse"><path d="M-1532.04 1084.69h2500v-2500h-2500Z"></path></clipPath><clipPath id="o" clipPathUnits="userSpaceOnUse"><path d="M-1572.53 1131.594h2500v-2500h-2500Z"></path></clipPath><clipPath id="p" clipPathUnits="userSpaceOnUse"><path d="M-1567.342 1197.432h2500v-2500h-2500Z"></path></clipPath><clipPath id="q" clipPathUnits="userSpaceOnUse"><path d="M-1593.696 1235.894h2500v-2500h-2500Z"></path></clipPath><clipPath id="r" clipPathUnits="userSpaceOnUse"><path d="M-922.008 1262.12h2500v-2500h-2500Z"></path></clipPath><clipPath id="s" clipPathUnits="userSpaceOnUse"><path d="M-943.675 1154.741h2500v-2500h-2500Z"></path></clipPath><clipPath id="t" clipPathUnits="userSpaceOnUse"><path d="M-998.938 1041.851h2500v-2500h-2500Z"></path></clipPath><clipPath id="u" clipPathUnits="userSpaceOnUse"><path d="M-1030.575 986.624h2500v-2500h-2500Z"></path></clipPath><clipPath id="v" clipPathUnits="userSpaceOnUse"><path d="M-1119.14 964.023h2500v-2500h-2500Z"></path></clipPath><clipPath id="w" clipPathUnits="userSpaceOnUse"><path d="M-1162.636 918.005h2500v-2500h-2500Z"></path></clipPath><clipPath id="x" clipPathUnits="userSpaceOnUse"><path d="M-1242.549 945.002h2500v-2500h-2500Z"></path></clipPath><clipPath id="y" clipPathUnits="userSpaceOnUse"><path d="M-1319.49 913.587h2500v-2500h-2500Z"></path></clipPath><clipPath id="z" clipPathUnits="userSpaceOnUse"><path d="M-1188.55 1526.394h2500v-2500h-2500Z"></path></clipPath><clipPath id="A" clipPathUnits="userSpaceOnUse"><path d="M-1218.469 1558.352h2500v-2500h-2500Z"></path></clipPath><clipPath id="B" clipPathUnits="userSpaceOnUse"><path d="M-1270.407 1561.445h2500v-2500h-2500Z"></path></clipPath><clipPath id="C" clipPathUnits="userSpaceOnUse"><path d="M-1336.309 1547.983h2500v-2500h-2500Z"></path></clipPath><clipPath id="D" clipPathUnits="userSpaceOnUse"><path d="M-1116.222 1248.889h2500v-2500h-2500Z"></path></clipPath><clipPath id="E" clipPathUnits="userSpaceOnUse"><path d="M-1374.404 1303.122h2500v-2500h-2500Z"></path></clipPath><clipPath id="F" clipPathUnits="userSpaceOnUse"><path d="M-996.333 1249.5h2500v-2500h-2500Z"></path></clipPath></defs><path d="M0 0c0-206.831 167.669-374.5 374.5-374.5S749-206.831 749 0 581.331 374.5 374.5 374.5 0 206.831 0 0" clip-path="url(#a)" style="fill:#000;fill-opacity:1;fill-rule:nonzero;stroke:none" transform="matrix(1.33333 0 0 -1.33333 1168 1667.333)"></path><path d="M0 0c0-203.762 165.182-368.944 368.944-368.944S737.889-203.762 737.889 0 572.707 368.944 368.944 368.944C165.182 368.944 0 203.762 0 0" clip-path="url(#b)" style="fill:#fff;fill-opacity:1;fill-rule:nonzero;stroke:none" transform="matrix(1.33333 0 0 -1.33333 1175.407 1667.333)"></path><path d="M0 0c0-200.019 162.148-362.167 362.167-362.167S724.333-200.019 724.333 0 562.186 362.167 362.167 362.167 0 200.019 0 0" clip-path="url(#c)" style="fill:#000;fill-opacity:1;fill-rule:nonzero;stroke:none" transform="matrix(1.33333 0 0 -1.33333 1184.444 1667.333)"></path><path d="M0 0c0-146.345 118.636-264.982 264.982-264.982 146.345 0 264.981 118.637 264.981 264.982S411.327 264.981 264.982 264.981C118.636 264.981 0 146.345 0 0" clip-path="url(#d)" style="fill:#fff;fill-opacity:1;fill-rule:nonzero;stroke:none" transform="matrix(1.33333 0 0 -1.33333 1314.025 1667.333)"></path><path d="M0 0c0-140.372 113.794-254.167 254.167-254.167S508.333-140.372 508.333 0 394.539 254.167 254.167 254.167 0 140.372 0 0" clip-path="url(#e)" style="fill:#000;fill-opacity:1;fill-rule:nonzero;stroke:none" transform="matrix(1.33333 0 0 -1.33333 1328.444 1667.333)"></path><path d="m0 0 490.807.11c5.693 21.133 8.748 43.347 8.748 66.279 0 22.971-3.065 45.223-8.778 66.389H0c-5.712-21.166-8.778-43.418-8.778-66.389C-8.778 43.417-5.713 21.166 0 0" clip-path="url(#f)" style="fill:#fdf21c;fill-opacity:1;fill-rule:nonzero;stroke:none" transform="matrix(1.33333 0 0 -1.33333 1340.148 1755.852)"></path><path d="M0 0h309.232c-42.838 32.884-96.438 52.445-154.616 52.445C96.439 52.445 42.838 32.884 0 0" clip-path="url(#g)" style="fill:#fdf21c;fill-opacity:1;fill-rule:nonzero;stroke:none" transform="matrix(1.33333 0 0 -1.33333 1461.178 1398.37)"></path><path d="M0 0h-307.01c42.652-32.371 95.83-51.593 153.505-51.593S-42.652-32.371 0 0" clip-path="url(#h)" style="fill:#fdf21c;fill-opacity:1;fill-rule:nonzero;stroke:none" transform="matrix(1.33333 0 0 -1.33333 1872.007 1937.432)"></path><path d="m0 0 490.807.11c5.693 21.133 8.748 43.347 8.748 66.279 0 22.971-3.065 45.223-8.778 66.389H0c-5.712-21.166-8.778-43.418-8.778-66.389C-8.778 43.417-5.713 21.166 0 0" clip-path="url(#i)" style="fill:#fdf21c;fill-opacity:1;fill-rule:nonzero;stroke:none" transform="matrix(1.33333 0 0 -1.33333 1340.148 1755.852)"></path><path d="M0 0h309.232c-42.838 32.884-96.438 52.445-154.616 52.445C96.439 52.445 42.838 32.884 0 0" clip-path="url(#j)" style="fill:#fdf21c;fill-opacity:1;fill-rule:nonzero;stroke:none" transform="matrix(1.33333 0 0 -1.33333 1461.178 1398.37)"></path><path d="M0 0h-307.01c42.652-32.371 95.83-51.593 153.505-51.593S-42.652-32.371 0 0" clip-path="url(#k)" style="fill:#fdf21c;fill-opacity:1;fill-rule:nonzero;stroke:none" transform="matrix(1.33333 0 0 -1.33333 1872.007 1937.432)"></path><path d="M0 0q2.513-1.502 4.521-.882t3.275 2.673q1.32 2.066.86 4.07-.461 2.003-3.469 3.905l-8.551 5.274-5.792-9.393Zm23.88-4.829q-3.189-5.096-7.065-6.632-3.874-1.537-8.68-.665 1.758-1.595 2.715-3.207.956-1.614 1.28-2.974.503-5.514-3.477-11.703t-4.26-8.153q.102-.435.283-.708.179-.274.415-.419l-1.079-1.751-15.991 9.861a75 75 0 0 0 1.5 3.676q.848 1.94 2.778 5.07 2.242 3.636 2.767 5.241t.107 2.885q-.169.707-.84 1.842-.671 1.134-1.93 1.956l-8.348 5.149-10.443-16.933-15.518 9.57 30.33 49.183 26.695-16.462q8.833-5.494 10.932-11.736 2.097-6.243-2.171-13.09" clip-path="url(#l)" style="fill:#fff;fill-opacity:1;fill-rule:nonzero;stroke:none" transform="matrix(1.33333 0 0 -1.33333 1893.67 1309.065)"></path><path d="M0 0q5.475 5.319 6.53 10.041 1.055 4.721-3.261 9.13-4.01 4.1-8.74 3.421-4.73-.68-10.655-6.555-4.661-4.4-6.331-9.315t3.061-10.025q4.737-4.606 9.51-3.27Q-5.112-5.236 0 0m13.173-13.284q-8.482-8.634-19.885-9.914-11.402-1.28-23.073 9.815-10.775 11.595-9.37 23.042 1.403 11.446 9.856 19.661 8.481 8.579 19.94 9.803 11.457 1.224 22.963-9.703Q24.656 17.6 23.141 6.238q-1.517-11.362-9.968-19.522" clip-path="url(#m)" style="fill:#fff;fill-opacity:1;fill-rule:nonzero;stroke:none" transform="matrix(1.33333 0 0 -1.33333 1975.236 1383.292)"></path><path d="M0 0q1.957 1.574 2.179 3.821.22 2.248-1.767 5.483-1.711 2.71-3.377 3.194-1.667.484-3.096-.439-2.014-1.33-1.397-4.526.615-3.195 2.249-7.554 1.632-4.357 2.716-9.447 1.083-5.09.013-10.297-.397-1.775-2.043-4.156-1.649-2.381-4.572-4.27-7.967-4.94-15.839-2.325t-14.982 13.889q-7.306 13.104-4.597 21.313 2.71 8.209 7.627 10.857l9.398-15.3q-1.671-1.814-2.271-4.086t1.878-6.459q1.917-3.046 3.809-3.857 1.89-.812 3.576.223.505.31.911.746.405.435.549 1.033.372 2.039-.604 5.478-.975 3.44-2.34 7.59a67 67 0 0 0-2.166 8.324q-.8 4.174-.022 7.669.478 2.242 2.191 4.896t5.546 5.101q6.796 4.128 14.357 1.414 7.56-2.712 14.133-13.11Q18.511 3.943 16.608-3.84T9.149-14.896Z" clip-path="url(#n)" style="fill:#fff;fill-opacity:1;fill-rule:nonzero;stroke:none" transform="matrix(1.33333 0 0 -1.33333 2042.719 1447.587)"></path><path d="m0 0-53.689-21.362-6.99 17.566 53.691 21.362z" clip-path="url(#o)" style="fill:#fff;fill-opacity:1;fill-rule:nonzero;stroke:none" transform="matrix(1.33333 0 0 -1.33333 2096.706 1510.125)"></path><path d="M0 0q3.344.625 5.581 3.368t1.404 7.74q-1.142 5.741-5.67 7.622t-12.278.3q-6.58-1.188-10.604-4.569-4.026-3.381-2.892-10.092.84-4.027 3.763-6.046t7.53-1.467l3.427-17.223q-7.279-1.73-16.201 2.685-8.923 4.416-12.654 19.723-2.674 16.889 5.304 25.23 7.978 8.343 18.661 10.185 13.545 2.655 23.15-3.259 9.604-5.912 12.646-20.187Q23.541-.157 17.774-7.958q-5.768-7.8-14.325-9.381z" clip-path="url(#p)" style="fill:#fff;fill-opacity:1;fill-rule:nonzero;stroke:none" transform="matrix(1.33333 0 0 -1.33333 2089.79 1597.91)" data-source="https://football-logos.cc"></path><path d="m0 0-1.196-46.339-13.76.356.719 27.795-7.75.201-.607-23.487-13.284.344.607 23.486-9.094.235-.747-28.903-13.877.36 1.225 47.444z" clip-path="url(#q)" style="fill:#fff;fill-opacity:1;fill-rule:nonzero;stroke:none" transform="matrix(1.33333 0 0 -1.33333 2124.928 1649.191)"></path><path d="m0 0 9.131.306-.673 20.081 14.032.47.674-20.08 20.594.691.622-18.539-57.751-1.938-1.47 43.798 13.993.469z" clip-path="url(#r)" style="fill:#fff;fill-opacity:1;fill-rule:nonzero;stroke:none" transform="matrix(1.33333 0 0 -1.33333 1229.344 1684.159)"></path><path d="M0 0q-3.272.927-6.497-.535-3.223-1.461-4.699-6.307-1.531-5.65 1.687-9.349t10.864-5.73q6.42-1.862 11.529-.624 5.11 1.238 7.079 7.753 1.038 3.98-.681 7.089-1.718 3.108-6.092 4.662l4.592 16.95q7.287-1.689 13.316-9.611 6.027-7.923 2.561-23.292-5.118-16.316-15.973-20.238-10.857-3.923-21.244-.822-13.312 3.648-19.285 13.216-5.97 9.567-2.346 23.705 4.175 13.743 12.81 18.165t17.002 2.032z" clip-path="url(#s)" style="fill:#fff;fill-opacity:1;fill-rule:nonzero;stroke:none" transform="matrix(1.33333 0 0 -1.33333 1258.233 1540.988)"></path><path d="M0 0q-2.15 1.3-4.336.737-2.188-.562-4.546-3.538-1.96-2.535-1.844-4.267.117-1.733 1.474-2.758 1.94-1.437 4.73.238 2.791 1.673 6.326 4.701T9.749.902t9.669 3.539q1.804.237 4.604-.495 2.802-.732 5.579-2.831 7.37-5.792 7.611-14.084.241-8.29-7.915-18.834-9.807-11.354-18.448-11.621-8.64-.269-12.813 3.445L9.189-25.908q2.278-.948 4.618-.733t5.424 3.977q2.205 2.845 2.319 4.9.114 2.054-1.435 3.283-.465.368-1.013.601a2.27 2.27 0 0 1-1.159.161q-2.042-.35-4.94-2.443a194 194 0 0 1-6.328-4.8 67 67 0 0 0-7.078-4.887Q-4.049-28.03-7.6-28.497q-2.271-.32-5.351.381-3.078.699-6.693 3.463-6.205 4.968-6.247 13.002-.042 8.032 7.475 17.77 8.368 9.92 16.333 10.799t12.942-3.219z" clip-path="url(#t)" style="fill:#fff;fill-opacity:1;fill-rule:nonzero;stroke:none" transform="matrix(1.33333 0 0 -1.33333 1331.917 1390.468)"></path><path d="m0 0 27.184-32.795 19.457 16.128 9.692-11.692-33.739-27.966-36.875 44.488z" clip-path="url(#u)" style="fill:#fff;fill-opacity:1;fill-rule:nonzero;stroke:none" transform="matrix(1.33333 0 0 -1.33333 1374.1 1316.833)"></path><path d="M0 0q-3.373 6.848-7.541 9.306-4.167 2.457-9.691-.29-5.136-2.553-5.947-7.261t2.954-12.156q2.75-5.789 6.911-8.893 4.161-3.103 10.481-.175 5.84 3.086 6.041 8.039Q3.406-6.476 0 0m16.695 8.44q5.602-10.73 3.307-21.972-2.293-11.241-16.446-18.927-14.351-6.678-24.808-1.816Q-31.71-29.414-36.92-18.84q-5.548 10.712-3.184 21.989 2.365 11.277 16.306 18.856 14.65 6.875 24.993 1.932t15.5-15.497" clip-path="url(#v)" style="fill:#fff;fill-opacity:1;fill-rule:nonzero;stroke:none" transform="matrix(1.33333 0 0 -1.33333 1492.187 1286.697)"></path><path d="m0 0 18.082-34.441 1.713 39.067 17.755 4.15-5.875-60.714-17.985-4.204-32.176 51.821Z" clip-path="url(#w)" style="fill:#fff;fill-opacity:1;fill-rule:nonzero;stroke:none" transform="matrix(1.33333 0 0 -1.33333 1550.18 1225.34)"></path><path d="m0 0 11.824.192-6.222 20.231Zm14.766 38.372 21.263-57.447-18.39-.298-2.297 7.557-18.548-.301-2.13-7.629-18.033-.292 19.35 58.105z" clip-path="url(#x)" style="fill:#fff;fill-opacity:1;fill-rule:nonzero;stroke:none" transform="matrix(1.33333 0 0 -1.33333 1656.732 1261.337)"></path><path d="M0 0q.722-2.81 2.536-8.069a945 945 0 0 0 3.812-11.293 208 208 0 0 0 3.419-11.323q1.42-5.29 1.369-8.283.24 1.202.457 2.817.216 1.615.322 2.24L18.83-4.415 36.043-8.45 22.854-64.708 5.641-60.673q-2.62 7.885-4.69 13.957a671 671 0 0 0-3.517 10.554q-1.448 4.482-2.228 7.915-.78 3.434-.856 6.051a53 53 0 0 1-.334-2.38 44 44 0 0 0-.407-2.687l-6.797-28.995-17.136 4.017 13.189 56.258z" clip-path="url(#y)" style="fill:#fff;fill-opacity:1;fill-rule:nonzero;stroke:none" transform="matrix(1.33333 0 0 -1.33333 1759.32 1219.45)"></path><path d="m0 0-14.768-55.874-16.299 4.309 8.574 32.442-12.577 3.324 3.096 11.716q8.268-2.185 12.699-.171t6.697 7.578z" clip-path="url(#z)" style="fill:#fff;fill-opacity:1;fill-rule:nonzero;stroke:none" transform="matrix(1.33333 0 0 -1.33333 1584.732 2036.526)"></path><path d="M0 0q4.248-.294 6.425 1.773T8.874 7.03q.323 3.715-1.452 5.966-1.774 2.25-5.401 2.647-3.755.325-5.922-1.639-2.168-1.967-2.543-5.799-.276-3.23 1.394-5.512T0 0m2.637 28.572q14.726-1.81 19.524-11.034 4.796-9.225 3.266-21.943-1.532-14.387-9.119-21.585-7.587-7.197-19.622-6.181-10.504 1.273-15.525 6.347-5.022 5.072-5.788 11.785 1.415-.098 6.907-.371 5.49-.274 8.923-.569.67-2.712 2.361-3.958 1.689-1.244 4.195-1.449 4.242-.334 6.916 3.049 2.672 3.383 3.333 9.711-1.207-1.103-4.379-2.299-3.171-1.197-9.192-.728-8.468.87-13.466 6.368-5 5.499-4.273 14.997.777 8.353 7.276 13.581t18.663 4.279" clip-path="url(#A)" style="fill:#fff;fill-opacity:1;fill-rule:nonzero;stroke:none" transform="matrix(1.33333 0 0 -1.33333 1624.625 2079.137)"></path><path d="M0 0q.87-9.851 3.178-13.41 2.308-3.56 6.206-3.012 4.054.154 5.709 4.003 1.652 3.848.752 14.062-.65 8.283-2.695 12.538-2.044 4.253-6.568 3.894-4.805-.423-6.134-4.956Q-.88 8.587 0 0m33.211 3.096q1.372-12.778-3.479-21.891-4.85-9.115-19.35-10.762-14.58-.758-20.79 7.827-6.211 8.584-6.958 20.277-1.35 12.045 3.369 21.515 4.716 9.469 19.413 11.214 14.49.833 20.746-7.566t7.049-20.614" clip-path="url(#B)" style="fill:#fff;fill-opacity:1;fill-rule:nonzero;stroke:none" transform="matrix(1.33333 0 0 -1.33333 1693.876 2083.26)"></path><path d="M0 0q4.051 1.308 5.303 4.037t.315 5.791q-1.083 3.568-3.567 4.996t-5.998.447q-3.608-1.096-4.887-3.727-1.28-2.632-.202-6.328Q-8.089 2.114-5.69.62-3.29-.876 0 0m-8.19 27.5q14.341 3.803 22.228-2.973 7.887-6.777 11.2-19.15 3.935-13.923-.426-23.428Q20.448-27.555 8.9-31.093q-10.223-2.729-16.771.112-6.549 2.838-9.76 8.783 1.35.435 6.549 2.226t8.493 2.794q1.633-2.267 3.665-2.794 2.032-.525 4.433.217 4.062 1.27 5.284 5.404 1.22 4.134-.522 10.254-.71-1.473-3.208-3.764t-8.261-4.098q-8.181-2.344-14.868.897-6.687 3.243-9.549 12.329-2.389 8.042 1.697 15.313 4.085 7.27 15.728 10.92" clip-path="url(#C)" style="fill:#fff;fill-opacity:1;fill-rule:nonzero;stroke:none" transform="matrix(1.33333 0 0 -1.33333 1781.745 2065.311)"></path><path d="M0 0c0-74.252 60.491-134.444 135.111-134.444S270.222-74.252 270.222 0s-60.491 134.444-135.111 134.444S0 74.252 0 0" clip-path="url(#D)" style="fill:#fff;fill-opacity:1;fill-rule:nonzero;stroke:none" transform="matrix(1.33333 0 0 -1.33333 1488.296 1666.519)"></path><path d="M-123.071-79.711c-41.938 0-79.454 19.185-104.161 49.195.052.851.431 6.58 1.528 11.006 2.11-.455 23.912-5.062 39.947-4.707 22.728-20.335 41.531-25.656 47.579-26.911l11.848-25.528s62.958-4.047 76.573 35.349C-27.925-33.689-13.489-9.979-9.722-3.175h8.255c-21.644-45.212-68.015-76.536-121.604-76.536M-247.745 33.588c1.071-6.178 6.433-33.08 21.23-52.238-1.016-3.735-1.474-8.517-1.642-10.724-17.128 21.273-27.886 47.831-29.352 76.79 1.572-3.171 4.799-8.837 9.764-13.828m26.585 112.274-6.355-14.074c2.255-5.46 7.931-13.008 10.099-15.795-12.376-22.548-11.155-51.273-10.702-57.626-3.026-2.802-13.702-13.037-19.713-23.253-5.999 6.358-9.194 13.51-9.777 14.893a135 135 0 0 0-.074 4.226c0 35.412 13.888 67.653 36.522 91.629m123.025 40.002-3.936-4.52c28.63-8.974 39.28-33.752 40.059-35.65l-13.372-30.791c-4.804.01-31.687-.119-56.132-4.058-9.44 14.168-30.206 25.634-37.771 29.485.174 15.359 12.883 32.792 12.883 32.792-5.704 1.719-13.384 3.272-19.37 4.357a133 133 0 0 1-3.13-1.379c17.018 7.751 35.926 12.077 55.833 12.077 8.519 0 16.852-.8 24.936-2.313M11.419 59.695c.027-.674.06-1.347.077-2.024-.017.677-.05 1.35-.077 2.024M4.247 86.051c-5.186 25.822-23.04 46.031-30.742 53.748-.665 2.431-.107 3.994-.02 5.211.032.46.636.748 1.46.929C-8.249 128.165 3.747 105.84 8.83 81.04a177 177 0 0 1-4.583 5.011m-16.781-34.483-36.774 7.578c-.157 2.692-2.066 19.573-25.121 55.443l13.56 31.225c19.067 4.302 32.041-5.519 34.719-7.787 7.94-8.165 23.915-26.989 29.145-50.818-.972-22.337-13.022-33.544-15.529-35.641m-214.622 7.373c-.463 7.139-1.318 34.506 10.411 56.199l.193-.241c14.179 15.014 43.358 23.505 46.901 24.495 7.605-3.876 28.253-15.299 37.451-29.316-.751-5.499-5.921-43.465-7.051-54.635l-47.287-29.773c-2.355 1.183-25.911 13.337-40.618 33.271m88.452-108.934c-6.645 1.495-24.94 7.171-46.896 26.985-.754 5.901-3.86 32.411-.947 47.49l47.215 29.728c.754-.493 34.489-22.565 49.193-31.396.578-11.19 1.262-30.937.096-47.785-3.512-3.314-19.425-17.09-48.732-24.87zM-9.735-1.088c-1.324-2.583-16.025-30.349-39.626-39.031.021.068.047.134.068.203 0 0-26.148 4.48-39.713 15.451 1.13 17.026.417 36.837-.16 47.834 3.954 2.85 20.885 15.44 39.37 34.857l37.098-7.644C-2.617 30.449-7.835 6.094-9.735-1.088m-47.302 173.149-.003.001a135 135 0 0 1-40.333 14.674l-.002.001a136.4 136.4 0 0 1-25.696 2.44c-74.776 0-135.611-60.535-135.611-134.944 0-1.444.031-2.881.076-4.315l-.041-.016.046-.115c2.367-72.358 62.25-130.498 135.53-130.498 74.776 0 135.611 60.536 135.611 134.944 0 50.568-28.102 94.72-69.577 117.828" clip-path="url(#E)" style="fill:#1e1e1e;fill-opacity:1;fill-rule:nonzero;stroke:none" transform="matrix(1.33333 0 0 -1.33333 1832.54 1738.829)"></path><path d="M0 0c0-140.372 113.794-254.167 254.167-254.167S508.333-140.372 508.333 0 394.539 254.167 254.167 254.167 0 140.372 0 0Z" clip-path="url(#F)" style="fill:none;stroke:#000;stroke-width:.5;stroke-linecap:butt;stroke-linejoin:miter;stroke-miterlimit:10;stroke-dasharray:none;stroke-opacity:1" transform="matrix(1.33333 0 0 -1.33333 1328.444 1667.333)" data-source="https://football-logos.cc"></path><!-- source: https://football-logos.cc --></svg>