<svg xmlns="http://www.w3.org/2000/svg" viewBox="14.17 137.48 566.93 566.93"><!-- Source: https://football-logos.cc --><path d="M297.638 137.48a283.465 283.465 0 0 1 283.464 283.465A283.465 283.465 0 1 1 297.638 137.48" style="fill:#1b1918;fill-rule:evenodd" data-source="https://football-logos.cc"></path><path d="M297.638 154.097a266.85 266.85 0 0 1 266.848 266.848 266.848 266.848 0 1 1-266.848-266.848" style="fill:#fce100;fill-rule:evenodd"></path><path d="M297.638 161.825a259.12 259.12 0 0 1 259.12 259.12 259.12 259.12 0 1 1-259.12-259.12" style="fill:#0063ab;fill-rule:evenodd"></path><path d="M297.638 230.61a190.336 190.336 0 0 1 190.335 190.335 190.336 190.336 0 1 1-190.335-190.336" style="fill:#fce100;fill-rule:evenodd"></path><path d="M297.638 238.338a182.607 182.607 0 0 1 182.607 182.607 182.607 182.607 0 1 1-182.607-182.607" style="fill:#fff;fill-rule:evenodd" data-source="https://football-logos.cc"></path><path d="M409.441 276.579c22.558 17.497 40.904 40.162 53.266 66.216-5.996 10.825-13.109 23.419-19.866 34.16a151.6 151.6 0 0 1 6.49 43.99c0 10.478-1.072 20.704-3.096 30.584 8.6 10.398 16.355 21.29 23.035 31.887-9.915 27.227-26.13 51.425-46.874 70.846-12.143-2.406-26.303-5.335-38.586-8.49-19.923 13.78-43.299 22.92-68.569 25.842-7.326 11.552-15.585 22.14-23.767 31.823-29.652-.985-57.512-9.04-81.956-22.535-1.474-12.3-3.079-26.69-3.885-39.363-19.792-15.125-35.755-35.009-46.175-57.942-13.374-3.44-25.774-7.936-37.526-12.77-4.495-15.856-6.901-32.589-6.901-49.882a183.5 183.5 0 0 1 3.369-35.013c11.29-5.176 24.538-11.116 36.378-15.764l-.137.053c8.38-23.61 22.442-44.534 40.542-61.124-.884-13.784-.463-26.971.484-39.646a181.5 181.5 0 0 1 79.616-29.748c8.4 9.097 18.127 19.808 26.204 29.597 25.418.635 49.284 7.53 70.118 19.195 12.543-4.968 25.63-8.847 37.836-11.916m-177.99 148.709c-19.76.986-39.521 1.94-59.28 2.943-4.692 14.964-8.111 26.647-10.26 51.361 10.404 24.035 27.003 44.767 47.787 60.175 16.048 2.276 38.115 3.053 52.433 1.915a2822 2822 0 0 0 15.882-58.444zm-59.494-.916c19.814-1.005 39.631-1.962 59.446-2.952l41.139-62.011c-7.038-18.43-13.56-37.055-20.635-55.47-15.73.184-27.89.55-52.065 6.17-19.132 16.894-33.859 38.661-42.235 63.357 2.756 16.116 8.845 37.63 14.35 50.906m83.515-121.93c7.122 18.533 13.682 37.279 20.77 55.825l72.12 19.542c15.333-12.245 30.852-24.256 46.173-36.52-5.362-15.54-10.314-27.905-24.6-49.299-20.94-11.77-45.036-18.592-70.7-18.864-14.406 7.6-32.851 19.986-43.763 29.316m141.884 41.539c-15.636 12.523-31.484 24.78-47.132 37.288l2.787 74.034c17.175 10.537 33.93 21.888 50.66 33.142 12.831-9.643 22.561-17.972 38.715-37.387a148.3 148.3 0 0 0 3.08-30.113c0-15.633-2.437-30.696-6.935-44.841-11.597-11.165-28.896-24.625-41.175-32.123m4.188 147.69c-16.75-11.269-33.525-22.634-50.724-33.178l-69.177 26.142a2838 2838 0 0 1-15.705 57.788c13.113 9.239 24.62 16.804 46.995 25.566 26.093-2.683 50.17-12.164 70.448-26.63 7.207-14.703 14.866-35.72 18.163-49.689" style="fill:#1b1918;fill-rule:evenodd"></path><path d="m150.154 566.9 3.279 15.853 16.097 1.719-14.064 8.017 3.339 15.84-11.971-10.898-14.034 8.071 6.667-14.753-12.013-10.853 16.09 1.781zM117.659 524.89l-.79 16.17 15.156 5.69-15.622 4.245-.728 16.173-8.865-13.546-15.606 4.306 10.143-12.618L92.43 531.8l15.134 5.747zM97.429 476.908l-4.74 15.48 13.293 9.24-16.187.275-4.68 15.498-5.264-15.31-16.186.339 12.934-9.738-5.323-15.289 13.257 9.291zM444.738 566.819l-3.278 15.853-16.098 1.72 14.065 8.016-3.34 15.841 11.971-10.898 14.034 8.07-6.666-14.752 12.012-10.853-16.09 1.781zM476.887 524.89l.79 16.17-15.156 5.69 15.622 4.245.728 16.173 8.865-13.546 15.606 4.306L493.2 545.31l8.918-13.511-15.135 5.747zM497.463 476.988l4.74 15.48-13.293 9.24 16.187.275 4.68 15.498 5.264-15.31 16.186.339-12.933-9.738 5.323-15.288-13.258 9.29z" style="fill:#fff;fill-rule:evenodd"></path><path d="m317.102 216.283-23.884-25.946-.795 25.83-12.277-.592 1.427-39.955 14.407.478 22.244 25.352.51-24.676 12.028.333-.67 38.984zM388.124 221.677c-1.469 3.536-5.064 6.048-8.964 6.808-6.13 1.193-11.152.467-16.97-1.384-7.854-2.498-16.307-6.827-21.753-15.36l7.266-4.948c3.743 5.182 9.4 9.054 16.198 11.216 2.528.804 10.424 3.065 11.42.183.656-1.9-1.387-3.41-4.085-4.635-6.177-2.803-12.168-4.134-17.808-8.272-4.303-3.156-7.382-6.968-5.78-12.39 1.217-4.12 4.558-6.584 8.4-7.545 5.266-1.318 11.856-.092 16.936 1.46 7.538 2.305 16.013 7.624 21.013 13.772l-6.511 6.238c-4.671-5.235-11.11-9.454-16.848-11.28-2.058-.654-8.194-2.442-9.586.503-1.216 2.571 2.324 4.148 4.24 4.795 4.756 1.607 14.734 5.183 20.098 9.996 3.005 2.697 4.52 6.54 2.734 10.843M258.13 219.48l-16.731-8.555-8.042 2.353 3.313 12.03-11.686 3.173-9.817-38.03 28.194-7.794c8.337-2.305 20.122-1.058 21.527 8.866.868 6.128-2.687 11.555-9.665 14.482l17.838 9.42zm-6.201-25.496c-1.167-3.107-4.303-2.967-6.407-2.379l-16.257 4.553 1.91 8.286 16.598-4.552c2.61-.716 5.42-2.539 4.156-5.908M490.77 350.068l5.807-17.872-3.593-7.569-11.356 5.17-4.978-11.038 36.003-15.698 12.147 26.61c3.592 7.87 4.222 19.702-5.356 22.657-5.914 1.825-11.834-.829-15.826-7.257l-6.486 19.1zm24.198-10.148c2.884-1.643 2.25-4.717 1.338-6.702l-7.063-15.335-7.88 3.195 7.115 15.67c1.119 2.465 3.362 4.952 6.49 3.172M208.474 236.106l-8.865-5.498-18.452 10.772.43 10.421-13.423 7.837.466-46.396 13.096-7.645 39.142 23.273zm-28.505-17.952.562 13.402 10.893-6.275zM159.131 270.325l-10.096 9.986-43.937-12.569 10.805-10.687 30.088 9.686-9.618-29.932 10.673-10.556zM64.293 393.869l7.334 1.118 2.938-19.282 9.179 1.398-2.938 19.282 13.63 2.077-1.872 12.287-39.378-6 6.7-43.97 9.235 1.407zM529.572 379.008l-7.353.988 2.6 19.33-9.202 1.238-2.6-19.33-13.665 1.836-1.656-12.317 39.478-5.308 5.893 43.356-9.258 1.245zM114.284 329.297l-19.843 8.84 1.946 8.327 8.598 3.81-5.037 11.363-35.709-15.83 5.037-11.362 15.145 6.753-6.813-25.548 6.707-15.13 7.178 27.292 30.088-14.976zM445.274 249.415c-8.237 12.234-24.05 7.432-34.103.663l-18.596-12.52 21.891-32.513 17.409 11.721c11.02 7.42 22.37 19.326 13.4 32.648m-10.604-7.14c3.603-5.022 1.784-10.495-4.844-14.958l-10.578-7.122-10.836 16.094 10.328 6.954c6.155 4.144 11.894 4.656 15.93-.968M487.448 298.196q-3.605 2.882-7.71 3.891-4.105 1.011-8.356.084t-8.5-3.793q-4.25-2.866-8.145-7.736t-5.757-9.647q-1.862-4.778-1.83-9.126.029-4.35 1.918-8.133 1.886-3.784 5.492-6.666t7.71-3.893q4.105-1.009 8.356-.083t8.5 3.793q4.25 2.867 8.145 7.737t5.757 9.646q1.86 4.777 1.83 9.126-.03 4.35-1.917 8.133-1.888 3.784-5.493 6.666m-8.078-9.874c4.939-3.95 5.958-10.813.43-17.724-5.26-6.577-12.333-7.516-17.273-3.565s-5.49 11.167-.318 17.633c5.35 6.69 12.221 7.606 17.16 3.656M372.477 641.997c.69 4.034-1.187 7.605-4.14 10.263-4.642 4.178-9.927 6.546-15.868 7.952-8.02 1.9-16.987 1.566-26.37-1.934l3.957-8.31c5.877 2.518 12.573 3.05 19.515 1.406 2.581-.61 10.515-2.735 9.886-5.719-.415-1.966-2.944-2.21-5.888-1.872-6.739.775-12.56 2.717-19.526 2.07-5.314-.492-10.243-2.45-11.43-8.067-.889-4.204.62-7.573 3.42-10.375 3.838-3.84 10.038-6.511 15.195-7.795 7.649-1.904 18.376-1.61 25.827 1.089l-2.507 8.74c-6.7-2.086-14.901-2.19-20.761-.803-2.102.497-8.066 1.96-7.625 4.932.413 2.796 4.809 2.286 6.787 1.856 4.907-1.068 14.283-2.987 21.36-1.618 3.968.768 7.313 3.182 8.168 8.185M255.905 662.159l-2.686-10.08-20.819-4.805-6.83 7.883-14.303-3.174 31.3-33.783 15.343 3.434 11.979 43.752zm-8.159-32.741-9.068 10.274 12.233 2.898zM277.761 653.916l-.438 10.229 11.934.512.439-10.23zM383.253 638.391l3.843 9.49 11.072-4.484-3.843-9.49z" style="fill:#fce100;fill-rule:evenodd" data-source="https://football-logos.cc"></path><!-- source: https://football-logos.cc --></svg>