<svg xmlns="http://www.w3.org/2000/svg" viewBox="0 -0.02 287.07 379.43"><!-- Source: https://football-logos.cc --><path d="M75.059 21.59c32.574 0 58.976 25.039 58.976 55.93s-26.402 55.93-58.972 55.93c-32.575 0-58.977-25.04-58.977-55.93s26.402-55.93 58.973-55.93m0 0" style="stroke:none;fill-rule:evenodd;fill:#000200;fill-opacity:1" data-source="https://football-logos.cc"></path><path d="M61.508 34.023H88.48l9.024 13.243-8.527 11.047-.004-.008H61.227l-.024.062L52.5 47.09Zm61.808 43.133q.061-.072.121-.136l9.094.492c-.054 1.953.203 4.426-.898 10.066-1.102 5.645-5.235 15.926-10.336 22.442l-7.274-4.82-.109-.071-.941-16.34ZM111.895 88.29l.023 1.063.852 15.707-21.965 15.05-15.176-5.578V98.777l20.516-14.254 5.46 1.672 10.313 3.153zL97.27 83.742l.28-.195-8.144-23.961 9.086-11.773 15.817 4.011 2.074 6.055h.086v.258l6.187 18.086Zm-74.707-.543-6.126-7.18-3.667-4.296.289-.836 5.93-17.125 2.28-6.586 15.7-3.989 9.18 11.899-8.126 23.914.278.191-15.192 4.649Zm-6.852-6.316 5.875 6.886.797.93-.89 15.356-.028.418-7.352 4.89c-4.715-6.058-8.144-13.07-9.898-20.68-.992-4.828-1.242-7.843-1.082-12.113l8.765-.12h.028Zm62.05-55.985c11.97 3.586 22.25 10.778 29.423 20.235l-7.02 4.953-.21.148-16.11-4.086-8.84-12.976-.149-.215Zm1.067 103.813a60.3 60.3 0 0 1-18.394 2.851 60.2 60.2 0 0 1-18.305-2.824l2.629-8.015.039-.125 15.7-5.649 15.245 5.602.301.113Zm-65.172-83.54c7.188-9.491 17.5-16.706 29.512-20.288l2.844 7.851.008.02-9.211 13.363-15.758 4.008-.262.062Zm25.774 38.805L38.14 89.391l-.899 15.492 21.98 15.187 15.27-5.496V98.723Zm0 0" style="stroke:none;fill-rule:evenodd;fill:#fff;fill-opacity:1"></path><path d="m5.102 5.078 276.859.043v269.727L143.84 373.152 5.102 274.965ZM287.07-.023H0v277.628l143.852 101.801L287.07 277.438Zm0 0" style="stroke:none;fill-rule:evenodd;fill:#090a0a;fill-opacity:1"></path><path d="M5.102 253.715 281.96 26.477V6.352L5.1 233.59ZM281.96 48.871 5.853 275.496l16.503 11.68L281.961 74.102ZM281.96 117.754 50.919 307.387l19.844 14.047L281.96 148.09ZM281.96 216.277 115.376 353.004l28.465 20.148 138.12-98.343ZM103.402 344.531l178.559-146.558v-33.45L81.84 329.273Zm0 0" style="stroke:none;fill-rule:evenodd;fill:#0089e0;fill-opacity:1"></path><path d="M67.965 267.781q-1.758 1.553-3.516 3.102c-2.172-1.16-4.398-1.004-6.418.555-2.02 1.558-2.293 3.453-1.156 4.742s3.883-.063 6.855-1.551c5.86-2.809 10.77-3.02 12.88.351 2.109 3.372 1.93 6.207-2.505 9.543-4.433 3.336-8.82 4.489-13.55 1.317l3.05-3.485c2.868 1.872 4.899 1.715 7.235.149s3.168-3.32 2.207-4.82-2.836-2.223-5.461-.594c-7.34 4.531-12.09 4.297-14.652 1.36-2.563-2.942-.88-6.805 2.836-9.563 3.718-2.758 8.64-3.371 12.195-1.106m0 0" style="stroke:none;fill-rule:evenodd;fill:#090a0a;fill-opacity:1" data-source="https://football-logos.cc"></path><path d="m737.148 1253.906 40.391 33.125 78.164-71.133.117 135.977 49.18 39.336-.39-120.86 187.538-30.898-53.71-43.789-133.829 26.094.04-49.727 50.507-45.195-39.843-33.164ZM1147.07 1591.797l36.446 29.96 123.632-111.484c40.274-32.421 108.36 33.165 80.196 59.063l-127.93 115.078 35.39 29.18 131.016-117.93c27.54-25.547 12.149-71.172-24.843-101.562-40.586-33.204-91.602-46.133-117.97-24.141ZM1410.39 1808.867l35.352 29.102 191.992-38.867-114.414 102.89 35.938 29.61 178.008-160.157-35.938-29.648-192.851 40.117 115.312-104.062-35.273-29.141ZM1671.29 2023.945l41.835 34.336 177.93-160.117-41.602-34.453ZM2026.64 2228.203l-28.359-35.742c-30.351 5.977-48.593 11.914-75.703-11.563-27.11-23.437-21.758-56.523 16.016-90.82 37.734-34.297 79.297-35.39 109.218-10.195 29.961 25.195 18.204 41.406 8.985 62.93l44.375 20.351c12.617-25.703 32.5-67.93-24.219-111.992-56.758-44.024-121.367-37.578-180.312 14.687-58.907 52.305-38.79 112.11-1.016 142.774s84.727 39.023 131.016 19.57ZM1872.656 2200.195l30.469 24.649-3.79 51.367-26.718-20.234 2.149-29.844-32.54 5.976-28.867-22.148ZM2162.54 2428.594c52.929 44.96 134.1 34.843 184.804-10.078 49.18-44.141 63.476-91.368-4.532-147.188-68.046-55.86-146.367-27.812-189.492 11.133-43.164 38.984-43.672 101.21 9.22 146.133Zm0 0" style="fill-rule:evenodd;fill:#090a0a;fill-opacity:1;stroke-width:2;stroke-linecap:butt;stroke-linejoin:miter;stroke:#000;stroke-opacity:1;stroke-miterlimit:4" transform="matrix(.1 0 0 -.1 0 379.5)"></path><path d="M2189.375 2404.102c40.195 34.453 92.5 12.539 122.695-15 30.157-27.5 45.977-59.258 6.64-92.579-39.374-33.359-87.89-19.57-119.218 8.633-31.289 28.125-50.312 64.61-10.117 98.946Zm0 0" style="fill-rule:evenodd;fill:#fff;fill-opacity:1;stroke-width:2;stroke-linecap:butt;stroke-linejoin:miter;stroke:#000;stroke-opacity:1;stroke-miterlimit:4" transform="matrix(.1 0 0 -.1 0 379.5)"></path><path d="m2327.617 2564.96 45.313 37.267 199.61-81.563-91.837 169.844 40.664 34.101L2630 2507.97l-49.531-41.758Zm0 0" style="fill-rule:evenodd;fill:#090a0a;fill-opacity:1;stroke-width:2;stroke-linecap:butt;stroke-linejoin:miter;stroke:#000;stroke-opacity:1;stroke-miterlimit:4" transform="matrix(.1 0 0 -.1 0 379.5)" data-source="https://football-logos.cc"></path><!-- source: https://football-logos.cc --></svg>