<svg xmlns="http://www.w3.org/2000/svg" viewBox="0 0 101.54 135.58"><!-- Source: https://football-logos.cc --><g fill="none" fill-rule="evenodd" data-source="https://football-logos.cc"><path fill="#fff" d="M101.539 59.421c0-1.691-1.19-3.487-3.756-4.096.387-1.005.635-2.133.715-3.382.427-6.11-2.763-9.584-5.093-12.122-.742-.808-1.445-1.575-1.919-2.298-.042-.32-.016-1.026.002-1.51.046-1.246.098-2.66-.323-3.977l-.034-.099a3.67 3.67 0 0 0-3.453-2.416c-.54 0-1.07.13-1.555.357-3.051-3.405-7.592-6.388-9.892-7.79l-.105-.083c-.266-.157-.536-.306-.804-.459-.343-.2-.54-.308-.54-.308V4.561l-1.718-.595C65.468 1.334 57.73 0 50.063 0c-13.14 0-21.491 3.908-21.84 4.074l-1.455.698v16.484l-.132.1c-1.19.677-7.239 4.223-11.052 8.436l-.097.074a3.7 3.7 0 0 0-1.628-.389 3.66 3.66 0 0 0-2.862 1.367 3.7 3.7 0 0 0-.591 1.042l-.039.112c-.416 1.313-.364 2.72-.32 3.964.018.485.044 1.197.001 1.516-.471.723-1.176 1.492-1.92 2.303-2.327 2.536-5.514 6.008-5.093 12.105.082 1.263.334 2.4.728 3.413C1.192 55.907 0 57.704 0 59.397c0 1.692 1.189 3.49 3.753 4.1-.388 1.004-.636 2.132-.717 3.38-.422 6.104 2.764 9.578 5.091 12.115.743.81 1.447 1.577 1.921 2.304.043.32.017 1.03 0 1.517-.045 1.242-.097 2.65.319 3.963l.02.064.024.063c.136.363.329.702.57 1.005a3.67 3.67 0 0 0 2.88 1.386c.543 0 1.075-.131 1.562-.36l.204.156-.122-.04c3.977 4.44 10.482 8.159 11.263 8.597v19.131h7.052v9.402h7.048v9.4h19.813v-9.4h7.033l.002-9.402h7.066V97.691s7.106-3.913 11.341-8.64q-.089.027-.18.058l.188-.143a3.7 3.7 0 0 0 1.545.352c1.123 0 2.17-.502 2.873-1.38.246-.307.44-.65.577-1.02l.039-.111c.42-1.319.369-2.732.323-3.979-.018-.483-.044-1.19-.002-1.509.472-.721 1.177-1.489 1.92-2.298 2.33-2.538 5.52-6.013 5.093-12.106-.08-1.254-.329-2.386-.717-3.394 2.567-.609 3.757-2.406 3.757-4.1"></path><path fill="#fff" d="M64.873 4.905v108.976h7.048V6.916a71 71 0 0 0-7.048-2.01"></path><path fill="#d71920" d="M57.825 3.67v119.635h7.048V4.912l-.103-.03a67 67 0 0 0-6.945-1.213"></path><path fill="#fff" d="M50.777 3.2v129.498h7.048V3.669c-2.474-.299-4.83-.444-7.048-.469"></path><path fill="#d71920" d="M43.73 3.518V132.68h7.052V3.2a62 62 0 0 0-7.053.318"></path><path fill="#fff" d="M42.957 3.597q-.756.1-1.506.193a57 57 0 0 0-4.288.774c-.162.045-.325.087-.487.137v118.64h7.054V3.518c-.259.026-.522.05-.773.08"></path><path fill="#d71920" d="M29.629 6.88v107.117h7.048V4.673c-3.778.868-6.236 1.856-7.048 2.207"></path><g fill="#121619"><path d="M71.6 113.616h-6.438L65.179 4.34c-.21-.05-.418-.092-.628-.14v118.815h-6.425L58.113 3.072q-.298-.037-.595-.073v129.418H51.08V2.569c-.205-.003-.405-.003-.609-.003v129.85h-6.439V2.854q-.307.03-.608.064v120.1h-6.44V3.971c-.203.045-.412.09-.608.136v109.508H29.93V6.12c-.393.163-.608.264-.608.264v107.84h7.053v9.4h7.048v9.401h14.704l-.001-9.4h7.034l.002-9.4h7.065V6.385c-.21-.074-.418-.136-.628-.207zM22.29 27.19a41 41 0 0 0-3.96 3.444l-.165.166.117.204c.536.94 1.885 3.716.175 8.134-.375.974.745 2.572-.224 3.858-1.894 2.498-6.444 5.05-5.767 7.793.244.974 1.003 1.675 3.005.677 1.306-.653 2.075.677 2.436 2.006.754 2.81-.35 3.956-2.816 5.948 2.465 1.997 3.57 3.14 2.816 5.951-.36 1.33-1.13 2.655-2.436 2.007-2.002-.974-2.761-.302-3.005.672-.677 2.752 3.873 5.3 5.767 7.793.974 1.281-.15 2.893.224 3.858 1.72 4.447.341 7.19-.214 8.115l-.122.204.17.17a41 41 0 0 0 4.106 3.56l.487.361V26.743z"></path><path d="M11.283 64.54c-1.685.561-2.021 2.212-2.002 3.897.024 2.104 2.157 4.607 3.453 5.971 1.773 1.876 5.022 2.63 4.744 4.038-.165.823-1.037.72-1.086 1.832-.053 1.28.224 2.186-.21 3.599-.433 1.412-.822 2.06-1.616 2.616a1.13 1.13 0 0 1-1.764-.488c-.584-1.845.22-4.758-.487-5.903-2.123-3.463-7.213-6.078-6.731-13.048.346-5.319 3.98-6.284 6.454-6.284 3.239 0 4.84 2.83 3.278 3.863-1.013.687-2.338-.652-4.033-.092M5.73 57.639c-2.381 0-3.175 1.028-3.175 1.758s.794 1.763 3.175 1.763c2.708 0 5.284-1.763 5.284-1.763S8.433 57.64 5.73 57.64m5.553-3.386c-1.685-.555-2.021-2.206-2.002-3.896.024-2.104 2.157-4.603 3.453-5.972 1.773-1.87 5.022-2.63 4.744-4.033-.165-.828-1.037-.72-1.086-1.831-.053-1.281.224-2.187-.21-3.604-.433-1.418-.822-2.066-1.616-2.636a1.126 1.126 0 0 0-1.764.487c-.584 1.847.22 4.76-.487 5.904-2.123 3.463-7.213 6.074-6.731 13.048.346 5.315 3.98 6.284 6.454 6.284 3.239 0 4.84-2.835 3.278-3.868-1.013-.657-2.338.677-4.033.117M79.278 91.63a40 40 0 0 0 3.955-3.444l.17-.16-.117-.205c-.54-.94-1.89-3.717-.18-8.134.375-.974-.745-2.577.224-3.858 1.895-2.503 6.449-5.05 5.767-7.793-.238-.974-.998-1.67-3-.672-1.31.648-2.08-.677-2.435-2.007-.756-2.81.35-3.955 2.82-5.952-2.47-1.991-3.576-3.136-2.82-5.947.36-1.33 1.13-2.66 2.435-2.006 2.002.974 2.762.296 3-.673.682-2.751-3.896-5.3-5.767-7.793-.974-1.28.151-2.893-.224-3.857-1.72-4.447-.34-7.19.215-8.115l.122-.205-.171-.17a40 40 0 0 0-4.106-3.56c-.117-.093-.486-.344-.486-.344l-.001 65.348z"></path><path d="M90.251 54.278c1.686-.555 2.022-2.206 2.003-3.897 0-2.104-2.158-4.607-3.454-5.971-1.773-1.876-5.021-2.635-4.744-4.038.165-.823 1.042-.72 1.086-1.831.053-1.281-.224-2.187.214-3.605.438-1.417.824-2.06 1.618-2.61a1.12 1.12 0 0 1 1.758.487c.589 1.845-.22 4.758.487 5.903 2.128 3.463 7.218 6.079 6.731 13.049-.34 5.318-3.98 6.283-6.454 6.283-3.233 0-4.84-2.835-3.278-3.867 1.014-.677 2.343.662 4.033.097m5.558 6.906c2.381 0 3.175-1.028 3.175-1.763s-.794-1.758-3.175-1.758c-2.703 0-5.28 1.758-5.28 1.758s2.577 1.763 5.28 1.763m-5.558 3.38c1.686.56 2.022 2.212 2.003 3.897 0 2.104-2.158 4.608-3.454 5.971-1.773 1.876-5.021 2.636-4.744 4.039.165.823 1.042.72 1.086 1.831.053 1.28-.224 2.187.214 3.604s.824 2.06 1.618 2.61a1.125 1.125 0 0 0 1.758-.486c.589-1.846-.22-4.759.487-5.903 2.128-3.463 7.218-6.08 6.731-13.05-.34-5.318-3.98-6.282-6.454-6.282-3.233 0-4.84 2.835-3.278 3.867 1.014.682 2.343-.657 4.033-.097"></path></g><path fill="#fff" d="M50.77 72.704c7.784 0 14.095 6.31 14.095 14.095s-6.31 14.096-14.096 14.096c-7.784 0-14.095-6.31-14.095-14.096 0-7.784 6.31-14.095 14.095-14.095"></path><path fill="#121619" d="M50.77 101.202c-7.955.01-14.412-6.429-14.423-14.383-.01-7.955 6.429-14.412 14.383-14.422 7.955-.011 14.411 6.428 14.422 14.383v.02c-.008 7.943-6.439 14.383-14.383 14.402m0-28.196c-7.617 0-13.793 6.175-13.793 13.793s6.176 13.794 13.793 13.794c7.618 0 13.794-6.176 13.794-13.794-.008-7.614-6.179-13.786-13.794-13.793"></path><path fill="#009f4c" d="M50.77 17.922a46.28 46.28 0 0 0-28.197 9.401V91.5a45 45 0 0 0 7.048 4.384V59.412h42.292v36.496a45 45 0 0 0 7.048-4.384v-64.2a46.28 46.28 0 0 0-28.192-9.402m21.143 19.659v3.638H29.621v-3.638c12.532-9.396 29.76-9.396 42.292 0"></path><path fill="#121619" d="M71.611 96.4V59.712H29.923V96.4l-.438-.218a45.5 45.5 0 0 1-7.097-4.443l-.122-.087V27.2l.122-.093c16.818-12.611 39.942-12.638 56.76-.027l.12.091v64.479l-.122.087a45.7 45.7 0 0 1-7.091 4.443zM29.314 59.103H72.22v36.307a44.7 44.7 0 0 0 6.44-4.063V27.474c-16.553-12.325-39.233-12.325-55.785 0v63.874a45 45 0 0 0 6.439 4.063zM72.22 41.332H29.314V37.43l.122-.088c12.638-9.487 30.024-9.487 42.662 0l.122.088zm-42.297-.61h41.688v-2.99c-12.375-9.196-29.313-9.196-41.688 0z"></path><path fill="#121619" d="m40.491 85.259-1.476.886-.678-1.126 2.416-1.53h1.301v7.552h-1.563z"></path><path stroke="#121619" stroke-width=".654" d="m40.491 85.259-1.476.886-.678-1.126 2.416-1.53h1.301v7.552h-1.563z"></path><path fill="#121619" d="M45.43 89.129q.056.406.285.628.23.225.798.224.72 0 1.017-.575.294-.576.305-1.683a2.2 2.2 0 0 1-.737.524q-.422.182-.957.182-1.093 0-1.705-.65-.612-.651-.612-1.875 0-.59.191-1.071.192-.48.552-.825t.87-.535a3.3 3.3 0 0 1 1.152-.192q.81 0 1.34.317.53.318.841.83.311.516.437 1.154.125.639.125 1.284 0 1.356-.207 2.208-.208.852-.574 1.333t-.88.656a3.4 3.4 0 0 1-1.115.175q-1.223 0-1.858-.514-.634-.513-.72-1.595zm1.105-1.924q.23 0 .459-.07c.229-.07.288-.126.404-.235s.21-.248.279-.42q.103-.255.093-.625a2 2 0 0 0-.088-.522 1.3 1.3 0 0 0-.218-.43 1.05 1.05 0 0 0-.361-.289 1.2 1.2 0 0 0-.524-.109q-.526 0-.886.343t-.36 1.018q0 .566.278.953.278.386.924.386"></path><path stroke="#121619" stroke-width=".654" d="M45.43 89.129q.056.406.285.628.23.225.798.224.72 0 1.017-.575.294-.576.305-1.683a2.2 2.2 0 0 1-.737.524q-.422.182-.957.182-1.093 0-1.705-.65-.612-.651-.612-1.875 0-.59.191-1.071.192-.48.552-.825t.87-.535a3.3 3.3 0 0 1 1.152-.192q.81 0 1.34.317.53.318.841.83.311.516.437 1.154.125.639.125 1.284 0 1.356-.207 2.208-.208.852-.574 1.333t-.88.656a3.4 3.4 0 0 1-1.115.175q-1.223 0-1.858-.514-.634-.513-.72-1.595zm1.105-1.924q.23 0 .459-.07c.229-.07.288-.126.404-.235s.21-.248.279-.42q.103-.255.093-.625a2 2 0 0 0-.088-.522 1.3 1.3 0 0 0-.218-.43 1.05 1.05 0 0 0-.361-.289 1.2 1.2 0 0 0-.524-.109q-.526 0-.886.343t-.36 1.018q0 .566.278.953.278.386.924.386z"></path><path fill="#121619" d="M53.366 91.238q-1.355 0-2.103-.962-.75-.961-.75-3.016 0-1.028.203-1.777.202-.748.579-1.24t.913-.727a3 3 0 0 1 1.201-.235q1.356 0 2.105.968.747.966.748 3.01 0 2.055-.76 3.017-.758.963-2.136.962m.011-1.334q.36 0 .606-.18.247-.18.4-.524.152-.345.218-.83.065-.487.065-1.11a8 8 0 0 0-.065-1.11 3 3 0 0 0-.219-.83 1.26 1.26 0 0 0-.399-.525 1 1 0 0 0-.606-.18q-.36 0-.6.18-.242.18-.39.525c-.147.345-.169.506-.212.83a8 8 0 0 0-.066 1.11q0 .623.066 1.11.065.485.213.83c.148.345.228.404.388.524q.24.18.601.18"></path><path stroke="#121619" stroke-width=".654" d="M53.366 91.238q-1.355 0-2.103-.962-.75-.961-.75-3.016 0-1.028.203-1.777.202-.748.579-1.24t.913-.727a3 3 0 0 1 1.201-.235q1.356 0 2.105.968.747.966.748 3.01 0 2.055-.76 3.017-.758.963-2.136.962zm.011-1.334q.36 0 .606-.18.247-.18.4-.524.152-.345.218-.83.065-.487.065-1.11a8 8 0 0 0-.065-1.11 3 3 0 0 0-.219-.83 1.26 1.26 0 0 0-.399-.525 1 1 0 0 0-.606-.18q-.36 0-.6.18-.242.18-.39.525c-.147.345-.169.506-.212.83a8 8 0 0 0-.066 1.11q0 .623.066 1.11.065.485.213.83c.148.345.228.404.388.524q.24.18.601.18z"></path><path fill="#121619" d="M58.852 88.648q.055.71.361.994t.896.284q.525 0 .858-.245.334-.247.334-.815 0-.557-.279-.803t-.923-.246h-.766v-1.345h.853q.972 0 .973-.973 0-.185-.055-.354a.76.76 0 0 0-.175-.296.8.8 0 0 0-.317-.197 1.5 1.5 0 0 0-.492-.07q-.525 0-.841.24-.317.24-.46.853l-1.464-.197q.099-.47.29-.874.192-.405.524-.7c.332-.295.494-.35.814-.46q.482-.162 1.148-.163.644 0 1.124.159.479.159.799.431.32.274.477.65.158.378.158.804 0 .557-.245.99-.243.43-.765.715.658.273.927.749.268.475.269 1.033 0 .534-.154.983a1.86 1.86 0 0 1-.486.765 2.3 2.3 0 0 1-.847.498q-.513.18-1.235.18-.82 0-1.36-.235a2.4 2.4 0 0 1-.87-.607 2.2 2.2 0 0 1-.47-.836 3.7 3.7 0 0 1-.163-.912z"></path><path stroke="#121619" stroke-width=".654" d="M58.852 88.648q.055.71.361.994t.896.284q.525 0 .858-.245.334-.247.334-.815 0-.557-.279-.803t-.923-.246h-.766v-1.345h.853q.972 0 .973-.973 0-.185-.055-.354a.76.76 0 0 0-.175-.296.8.8 0 0 0-.317-.197 1.5 1.5 0 0 0-.492-.07q-.525 0-.841.24-.317.24-.46.853l-1.464-.197q.099-.47.29-.874.192-.405.524-.7c.332-.295.494-.35.814-.46q.482-.162 1.148-.163.644 0 1.124.159.479.159.799.431.32.274.477.65.158.378.158.804 0 .557-.245.99-.243.43-.765.715.658.273.927.749.268.475.269 1.033 0 .534-.154.983a1.86 1.86 0 0 1-.486.765 2.3 2.3 0 0 1-.847.498q-.513.18-1.235.18-.82 0-1.36-.235a2.4 2.4 0 0 1-.87-.607 2.2 2.2 0 0 1-.47-.836 3.7 3.7 0 0 1-.163-.912z"></path><path fill="#121619" d="M29.322 6.38v.637s18.063-8.608 42.905 0V6.38c-24.842-8.608-42.905 0-42.905 0m-.357 47.105 4.347-5.808h-4.261V46.12h6.429v1.339l-4.336 5.796h4.53l-.182 1.558h-6.527zm.889-9.887h1.461l.877.889.865-.89h1.46l-1.472 1.766h-1.718z"></path><path stroke="#121619" stroke-width=".654" d="m28.965 53.485 4.347-5.808h-4.261V46.12h6.429v1.339l-4.336 5.796h4.53l-.182 1.558h-6.527zm.889-9.887h1.461l.877.889.865-.89h1.46l-1.472 1.766h-1.718z"></path><path fill="#121619" d="M37.026 54.812h1.814v-8.694h-1.814z"></path><path stroke="#121619" stroke-width=".654" d="M37.026 54.812h1.814v-8.694h-1.814z"></path><path fill="#121619" d="m40.314 53.485 4.347-5.808h-4.262V46.12h6.43v1.339l-4.336 5.796h4.53l-.182 1.558h-6.527zm.889-9.887h1.46l.878.889.864-.89h1.461l-1.473 1.766h-1.717z"></path><path stroke="#121619" stroke-width=".654" d="m40.314 53.485 4.347-5.808h-4.262V46.12h6.43v1.339l-4.336 5.796h4.53l-.182 1.558h-6.527zm.889-9.887h1.46l.878.889.864-.89h1.461l-1.473 1.766h-1.717z"></path><path fill="#121619" d="M48.375 46.119h1.827v3.482l3.202-3.482h1.985l-2.887 3.263 3.203 5.431h-2.021l-2.448-4.25-1.034 1.059v3.191h-1.827z"></path><path stroke="#121619" stroke-width=".654" d="M48.375 46.119h1.827v3.482l3.202-3.482h1.985l-2.887 3.263 3.203 5.431h-2.021l-2.448-4.25-1.034 1.059v3.191h-1.827z"></path><path fill="#121619" d="M60.138 55.032q-.974 0-1.742-.317a3.5 3.5 0 0 1-1.302-.913 4.1 4.1 0 0 1-.823-1.437q-.285-.84-.285-1.9 0-1.058.285-1.9.285-.839.829-1.436a3.6 3.6 0 0 1 1.308-.913q.767-.317 1.73-.317.974 0 1.74.317a3.5 3.5 0 0 1 1.298.913q.53.597.81 1.437t.28 1.9-.275 1.9q-.273.84-.803 1.436a3.5 3.5 0 0 1-1.297.913q-.768.317-1.753.317m-.013-1.559q1.146 0 1.705-.779.56-.78.56-2.229 0-1.436-.56-2.222-.56-.785-1.705-.785-1.143 0-1.705.785-.56.786-.56 2.222 0 1.45.56 2.229t1.705.78"></path><path stroke="#121619" stroke-width=".654" d="M60.138 55.032q-.974 0-1.742-.317a3.5 3.5 0 0 1-1.302-.913 4.1 4.1 0 0 1-.823-1.437q-.285-.84-.285-1.9 0-1.058.285-1.9.285-.839.829-1.436a3.6 3.6 0 0 1 1.308-.913q.767-.317 1.73-.317.974 0 1.74.317a3.5 3.5 0 0 1 1.298.913q.53.597.81 1.437t.28 1.9-.275 1.9q-.273.84-.803 1.436a3.5 3.5 0 0 1-1.297.913q-.768.317-1.753.317zm-.013-1.559q1.146 0 1.705-.779.56-.78.56-2.229 0-1.436-.56-2.222-.56-.785-1.705-.785-1.143 0-1.705.785-.56.786-.56 2.222 0 1.45.56 2.229t1.705.78z"></path><path fill="#121619" d="M64.813 46.119h2.022l2.106 6.149 2.167-6.149h1.949l-3.264 8.694h-1.716z"></path><path stroke="#121619" stroke-width=".654" d="M64.813 46.119h2.022l2.106 6.149 2.167-6.149h1.949l-3.264 8.694h-1.716z"></path><path fill="#121619" d="m24.09 28.771 1.62-.912 4.463 3.981-1.035-5.909 1.562-.879 1.305 8.444-1.377.774z"></path><path stroke="#121619" stroke-width=".654" d="m24.09 28.771 1.62-.912 4.463 3.981-1.035-5.909 1.562-.879 1.305 8.444-1.377.774z"></path><path fill="#121619" d="m36.871 31.19-1.536.654-3.132-7.361 1.536-.653z"></path><path stroke="#121619" stroke-width=".654" d="m36.871 31.19-1.536.654-3.132-7.361 1.536-.653z"></path><path fill="#121619" d="m35.949 22.901 1.616-.459.875 3.082 1.96-3.886 1.756-.499-1.735 3.613 4.199 4.003-1.789.507-3.234-3.146-.65 1.197.801 2.824-1.617.459z"></path><path stroke="#121619" stroke-width=".654" d="m35.949 22.901 1.616-.459.875 3.082 1.96-3.886 1.756-.499-1.735 3.613 4.199 4.003-1.789.507-3.234-3.146-.65 1.197.801 2.824-1.617.459z"></path><path fill="#121619" d="m46.321 22.064-2.399.215-.128-1.428 6.472-.58.128 1.428-2.399.215.586 6.538-1.674.15z"></path><path stroke="#121619" stroke-width=".654" d="m46.321 22.064-2.399.215-.128-1.428 6.472-.58.128 1.428-2.399.215.586 6.538-1.674.15z"></path><path fill="#121619" d="M54.551 28.788q-.89-.105-1.558-.473a3.26 3.26 0 0 1-1.094-.973q-.427-.602-.6-1.4c-.172-.798-.135-1.121-.06-1.766q.112-.969.462-1.706t.909-1.226a3.3 3.3 0 0 1 1.292-.696 4.1 4.1 0 0 1 1.614-.107q.89.105 1.558.473.668.371 1.089.972.42.6.588 1.4.167.796.055 1.765a5.6 5.6 0 0 1-.45 1.707 3.7 3.7 0 0 1-.887 1.228 3.2 3.2 0 0 1-1.282.697q-.735.21-1.636.105m.154-1.426q1.046.12 1.64-.533.594-.652.747-1.977.152-1.313-.277-2.09c-.429-.777-.777-.817-1.475-.898q-1.046-.12-1.64.538-.596.658-.747 1.972-.154 1.324.276 2.095.43.773 1.476.893"></path><path stroke="#121619" stroke-width=".654" d="M54.551 28.788q-.89-.105-1.558-.473a3.26 3.26 0 0 1-1.094-.973q-.427-.602-.6-1.4c-.172-.798-.135-1.121-.06-1.766q.112-.969.462-1.706t.909-1.226a3.3 3.3 0 0 1 1.292-.696 4.1 4.1 0 0 1 1.614-.107q.89.105 1.558.473.668.371 1.089.972.42.6.588 1.4.167.796.055 1.765a5.6 5.6 0 0 1-.45 1.707 3.7 3.7 0 0 1-.887 1.228 3.2 3.2 0 0 1-1.282.697q-.735.21-1.636.105zm.154-1.426q1.046.12 1.64-.533.594-.652.747-1.977.152-1.313-.277-2.09c-.429-.777-.777-.817-1.475-.898q-1.046-.12-1.64.538-.596.658-.747 1.972-.154 1.324.276 2.095.43.773 1.476.893z"></path><path fill="#121619" d="m61.528 21.714 2.69.89q.895.296 1.405.694.51.4.73.843.22.445.212.896a2.8 2.8 0 0 1-.138.845q-.243.734-.674 1.147-.432.412-1.171.544l.477 3.733-1.713-.566-.334-3.272-1.489-.493-.942 2.85-1.563-.516zm1.665 4.35q.372.123.644.125.27 0 .461-.096a.8.8 0 0 0 .311-.28q.12-.186.201-.43a1.3 1.3 0 0 0 .065-.409.85.85 0 0 0-.11-.402 1.1 1.1 0 0 0-.351-.364 2.7 2.7 0 0 0-.66-.307l-1.095-.362-.7 2.117z"></path><path stroke="#121619" stroke-width=".654" d="m61.528 21.714 2.69.89q.895.296 1.405.694.51.4.73.843.22.445.212.896a2.8 2.8 0 0 1-.138.845q-.243.734-.674 1.147-.432.412-1.171.544l.477 3.733-1.713-.566-.334-3.272-1.489-.493-.942 2.85-1.563-.516zm1.665 4.35q.372.123.644.125.27 0 .461-.096a.8.8 0 0 0 .311-.28q.12-.186.201-.43a1.3 1.3 0 0 0 .065-.409.85.85 0 0 0-.11-.402 1.1 1.1 0 0 0-.351-.364 2.7 2.7 0 0 0-.66-.307l-1.095-.362-.7 2.117z"></path><path fill="#121619" d="m67.701 32.656-1.512-.711 3.404-7.239 1.512.712z"></path><path stroke="#121619" stroke-width=".654" d="m67.701 32.656-1.512-.711 3.404-7.239 1.512.712z"></path><path fill="#121619" d="m75.059 27.511 1.372.805-1.455 8.418-1.546-.906.384-1.918-2.417-1.416-1.485 1.271-1.488-.872zm-.925 4.99.61-2.967-2.283 1.986z"></path><path stroke="#121619" stroke-width=".654" d="m75.059 27.511 1.372.805-1.455 8.418-1.546-.906.384-1.918-2.417-1.416-1.485 1.271-1.488-.872zm-.925 4.99.61-2.967-2.283 1.986z"></path></g><!-- source: https://football-logos.cc --></svg>