<svg xmlns="http://www.w3.org/2000/svg" width="109.164" height="121.558" viewBox="0 0 28.883 32.162"><!-- Source: https://football-logos.cc --><defs data-source="https://football-logos.cc"><linearGradient id="a" x1="0" x2="1" y1="0" y2="0" gradientTransform="scale(33.27533 -33.27533)rotate(-40 -16.527 -26.82)" gradientUnits="userSpaceOnUse" spreadMethod="pad"><stop offset="0" style="stop-opacity:1;stop-color:#fffccc"></stop><stop offset=".185" style="stop-opacity:1;stop-color:#ad5f29"></stop><stop offset=".522" style="stop-opacity:1;stop-color:#c58756"></stop><stop offset=".77" style="stop-opacity:1;stop-color:#fffccc"></stop><stop offset="1" style="stop-opacity:1;stop-color:#ca812d"></stop></linearGradient><linearGradient id="c" x1="0" x2="1" y1="0" y2="0" gradientTransform="matrix(0 29.24045 29.24045 0 457.215 553.02)" gradientUnits="userSpaceOnUse" spreadMethod="pad"><stop offset="0" style="stop-opacity:1;stop-color:#fffccc"></stop><stop offset=".185" style="stop-opacity:1;stop-color:#ab5b2b"></stop><stop offset=".522" style="stop-opacity:1;stop-color:#fffccc"></stop><stop offset=".77" style="stop-opacity:1;stop-color:#fffccc"></stop><stop offset="1" style="stop-opacity:1;stop-color:#c6812c"></stop></linearGradient><linearGradient id="e" x1="0" x2="1" y1="0" y2="0" gradientTransform="matrix(6.97244 0 0 -6.97244 457.5 579.01)" gradientUnits="userSpaceOnUse" spreadMethod="pad"><stop offset="0" style="stop-opacity:1;stop-color:#565353"></stop><stop offset=".004" style="stop-opacity:1;stop-color:#565353"></stop><stop offset=".016" style="stop-opacity:1;stop-color:#565353"></stop><stop offset=".408" style="stop-opacity:1;stop-color:#d3d2d2"></stop><stop offset=".425" style="stop-opacity:1;stop-color:#d3d2d2"></stop><stop offset="1" style="stop-opacity:1;stop-color:#e9e9e9"></stop></linearGradient><linearGradient id="f" x1="0" x2="1" y1="0" y2="0" gradientTransform="matrix(12.10991 0 0 -12.10991 452.543 578.272)" gradientUnits="userSpaceOnUse" spreadMethod="pad"><stop offset="0" style="stop-opacity:1;stop-color:#565353"></stop><stop offset=".004" style="stop-opacity:1;stop-color:#565353"></stop><stop offset=".016" style="stop-opacity:1;stop-color:#565353"></stop><stop offset=".408" style="stop-opacity:1;stop-color:#d3d2d2"></stop><stop offset=".425" style="stop-opacity:1;stop-color:#d3d2d2"></stop><stop offset="1" style="stop-opacity:1;stop-color:#e9e9e9"></stop></linearGradient><linearGradient id="g" x1="0" x2="1" y1="0" y2="0" gradientTransform="matrix(13.7214 0 0 -13.7214 449.096 576.555)" gradientUnits="userSpaceOnUse" spreadMethod="pad"><stop offset="0" style="stop-opacity:1;stop-color:#952328"></stop><stop offset=".11" style="stop-opacity:1;stop-color:#ed1c24"></stop><stop offset=".546" style="stop-opacity:1;stop-color:#ed1c24"></stop><stop offset="1" style="stop-opacity:1;stop-color:#fff"></stop></linearGradient><linearGradient id="h" x1="0" x2="1" y1="0" y2="0" gradientTransform="matrix(17.89713 0 0 -17.89713 447.496 572.603)" gradientUnits="userSpaceOnUse" spreadMethod="pad"><stop offset="0" style="stop-opacity:1;stop-color:#952328"></stop><stop offset=".11" style="stop-opacity:1;stop-color:#ed1c24"></stop><stop offset=".546" style="stop-opacity:1;stop-color:#ed1c24"></stop><stop offset="1" style="stop-opacity:1;stop-color:#fff"></stop></linearGradient><linearGradient id="i" x1="0" x2="1" y1="0" y2="0" gradientTransform="matrix(18.87092 0 0 -18.87092 447.342 568.736)" gradientUnits="userSpaceOnUse" spreadMethod="pad"><stop offset="0" style="stop-opacity:1;stop-color:#952328"></stop><stop offset=".11" style="stop-opacity:1;stop-color:#ed1c24"></stop><stop offset=".546" style="stop-opacity:1;stop-color:#ed1c24"></stop><stop offset="1" style="stop-opacity:1;stop-color:#fff"></stop></linearGradient><linearGradient id="j" x1="0" x2="1" y1="0" y2="0" gradientTransform="matrix(12.70715 0 0 -12.70715 448.004 565.65)" gradientUnits="userSpaceOnUse" spreadMethod="pad"><stop offset="0" style="stop-opacity:1;stop-color:#0b713b"></stop><stop offset=".004" style="stop-opacity:1;stop-color:#0b713b"></stop><stop offset=".234" style="stop-opacity:1;stop-color:#33b540"></stop><stop offset=".442" style="stop-opacity:1;stop-color:#33b540"></stop><stop offset=".717" style="stop-opacity:1;stop-color:#33b540"></stop><stop offset="1" style="stop-opacity:1;stop-color:#33b540"></stop></linearGradient><linearGradient id="k" x1="0" x2="1" y1="0" y2="0" gradientTransform="matrix(9.42919 0 0 -9.42919 450.85 562.238)" gradientUnits="userSpaceOnUse" spreadMethod="pad"><stop offset="0" style="stop-opacity:1;stop-color:#0b713b"></stop><stop offset=".004" style="stop-opacity:1;stop-color:#0b713b"></stop><stop offset=".234" style="stop-opacity:1;stop-color:#33b540"></stop><stop offset=".442" style="stop-opacity:1;stop-color:#33b540"></stop><stop offset=".717" style="stop-opacity:1;stop-color:#33b540"></stop><stop offset="1" style="stop-opacity:1;stop-color:#33b540"></stop></linearGradient><clipPath id="b" clipPathUnits="userSpaceOnUse"><path d="M441.911 551.897h30.569v34.04h-30.569z"></path></clipPath><clipPath id="d" clipPathUnits="userSpaceOnUse"><path d="M441.911 551.897h30.569v34.04h-30.569z"></path></clipPath><clipPath id="l" clipPathUnits="userSpaceOnUse"><path d="M441.911 551.897h30.569v34.04h-30.569z"></path></clipPath></defs><path d="m443.128 582.367-.729-3.282c-.052-.172-1.107-4.328.055-9.702 1.084-4.984 4.373-11.99 13.885-17.031l.852-.455.854.455c9.521 5.041 12.805 12.047 13.89 17.031a24 24 0 0 1 .545 4.997v.209c-.011 2.646-.456 4.386-.484 4.496l-.573 3.282c-.403 1.897-8.802 3.57-13.687 3.57-4.879 0-14.21-1.673-14.608-3.57" style="fill:url(#a);stroke:none" transform="matrix(.94483 0 0 -.94483 -417.532 553.613)"></path><g clip-path="url(#b)" transform="matrix(.94483 0 0 -.94483 -417.532 553.613)"><path d="M0 0c-6.569 0-13.535-2.308-13.671-3.795-.46-5.115.062-17.326 13.671-25.086C13.642-21.108 14.142-8.865 13.676-3.768 13.541-2.296 6.574 0 0 0" style="fill:#fff;fill-opacity:1;fill-rule:nonzero;stroke:none" transform="translate(457.208 582.182)"></path></g><path d="M443.268 578.389c-.472-5.216.056-17.463 13.94-25.37 13.918 7.923 14.424 20.203 13.952 25.398-.135 1.502-7.242 3.843-13.952 3.843-6.703 0-13.805-2.352-13.94-3.871m.697-.334c.128 1.442 6.876 3.677 13.243 3.677 6.372 0 13.126-2.223 13.255-3.649.45-4.941-.038-16.8-13.255-24.333-13.188 7.519-13.692 19.348-13.243 24.305" style="fill:url(#c);stroke:none" transform="matrix(.94483 0 0 -.94483 -417.532 553.613)"></path><g clip-path="url(#d)" transform="matrix(.94483 0 0 -.94483 -417.532 553.613)"><path d="M0 0a.5.5 0 0 1 .051-.129.3.3 0 0 1 .101-.095.3.3 0 0 1 .146-.04c.068 0 .112.017.157.04q.06.035.096.095A.4.4 0 0 1 .601 0c.011.057.023.102.023.158 0 .05-.012.1-.023.151a.4.4 0 0 1-.05.135.3.3 0 0 1-.096.095.3.3 0 0 1-.157.034.3.3 0 0 1-.146-.034C.113.511.073.483.051.444A.5.5 0 0 1 0 .309.8.8 0 0 1 0 0m-.325.439A.7.7 0 0 0-.19.657.7.7 0 0 0 .023.8a.8.8 0 0 0 .275.044A.8.8 0 0 0 .579.8.6.6 0 0 0 .792.657.6.6 0 0 0 .927.439a.805.805 0 0 0 0-.568.6.6 0 0 0-.135-.213.55.55 0 0 0-.213-.134.7.7 0 0 0-.281-.051.72.72 0 0 0-.488.185.7.7 0 0 0-.186.5.7.7 0 0 0 .051.281" style="fill:#231f20;fill-opacity:1;fill-rule:nonzero;stroke:none" transform="translate(453.542 557.623)"></path><path d="M0 0v.237h.208v.101c0 .118.033.213.112.286.068.073.18.11.326.11.034 0 .062 0 .095-.003.034 0 .062-.006.09-.006V.456C.792.459.752.464.702.464Q.625.464.601.428C.573.407.567.369.567.316V.237h.247V0H.567v-1.067H.208V0Z" style="fill:#231f20;fill-opacity:1;fill-rule:nonzero;stroke:none" transform="translate(454.62 558.196)"></path><path d="M0 0c-.023-.012-.051-.012-.073-.023-.028 0-.056-.005-.084-.005l-.084-.017c-.028 0-.057-.011-.085-.017q-.033-.015-.067-.039a.13.13 0 0 1-.045-.051.2.2 0 0 1-.018-.083.2.2 0 0 1 .018-.086.3.3 0 0 1 .045-.049.14.14 0 0 1 .072-.023q.043-.01.085-.011c.073 0 .124.011.163.039a.2.2 0 0 1 .09.084.2.2 0 0 1 .028.096q.007.05.006.084v.129A.1.1 0 0 0 0 0m-.708.504a.4.4 0 0 0 .135.135.7.7 0 0 0 .202.075A1.646 1.646 0 0 0 .04.72.8.8 0 0 0 .224.667.5.5 0 0 0 .359.556.35.35 0 0 0 .41.359v-.68q0-.084.016-.168a.23.23 0 0 1 .028-.118H.09c0 .018-.011.04-.011.062s-.007.04-.013.063a.4.4 0 0 0-.201-.119.6.6 0 0 0-.236-.039.56.56 0 0 0-.314.089c-.039.04-.073.073-.096.123a.4.4 0 0 0-.033.175.36.36 0 0 0 .14.298c.045.027.085.05.14.067q.078.018.163.028c.05.012.107.022.158.022.05.006.101.017.14.023A.3.3 0 0 1 .022.23q.036.033.029.084Q.049.374.04.41a.3.3 0 0 1-.051.05.13.13 0 0 1-.079.022Q-.13.49-.18.488A.3.3 0 0 1-.343.449.22.22 0 0 1-.416.291H-.77c0 .091.023.158.062.213" style="fill:#231f20;fill-opacity:1;fill-rule:nonzero;stroke:none" transform="translate(456.35 557.736)"></path><path d="M457.45 557.129h-.393v.388h.393z" style="fill:#231f20;fill-opacity:1;fill-rule:nonzero;stroke:none"></path><path d="M0 0a.6.6 0 0 1 .051-.129.3.3 0 0 1 .101-.095.3.3 0 0 1 .146-.04c.068 0 .112.017.157.04a.3.3 0 0 1 .101.095.5.5 0 0 1 .05.129c.006.057.018.102.018.158 0 .05-.012.1-.018.151a.5.5 0 0 1-.05.135.4.4 0 0 1-.101.095.3.3 0 0 1-.157.034.3.3 0 0 1-.146-.034.4.4 0 0 1-.101-.095A.5.5 0 0 1 0 .309.7.7 0 0 1 0 0m-.326.439A.66.66 0 0 0 .023.8a.8.8 0 0 0 .275.044A.8.8 0 0 0 .584.8.55.55 0 0 0 .792.657a.6.6 0 0 0 .14-.218.933.933 0 0 0 0-.568.62.62 0 0 0-.348-.347.8.8 0 0 0-.286-.051.7.7 0 0 0-.275.051.6.6 0 0 0-.208.134.6.6 0 0 0-.141.213 1 1 0 0 0-.05.287c0 .107.022.197.05.281" style="fill:#231f20;fill-opacity:1;fill-rule:nonzero;stroke:none" transform="translate(458.073 557.623)"></path><path d="M0 0v-.176h.006a.5.5 0 0 0 .161.156.5.5 0 0 0 .237.053c.078 0 .152-.01.225-.044a.36.36 0 0 0 .157-.17q.057.084.157.152c.062.046.14.062.231.062.072 0 .14-.005.196-.022a.33.33 0 0 0 .145-.08.36.36 0 0 0 .101-.146.5.5 0 0 0 .041-.219v-.87h-.36v.736c0 .05 0 .09-.006.128q-.01.051-.028.102a.3.3 0 0 1-.067.067.3.3 0 0 1-.119.022.3.3 0 0 1-.123-.027C.921-.299.893-.321.882-.355a.4.4 0 0 1-.04-.106Q.835-.513.836-.58v-.724H.477v.843a.3.3 0 0 1-.022.106.17.17 0 0 1-.063.079.3.3 0 0 1-.134.027c-.011 0-.039 0-.068-.011a.2.2 0 0 1-.078-.045C.085-.327.067-.355.039-.394a.6.6 0 0 1-.023-.152v-.758h-.358V0Z" style="fill:#231f20;fill-opacity:1;fill-rule:nonzero;stroke:none" transform="translate(459.634 558.433)"></path></g><path d="M457.501 580.447c1.886-.043 5.822-1.786 6.972-2.873a10.28 10.28 0 0 1-6.972 2.873" style="fill:url(#e);stroke:none" transform="matrix(.94483 0 0 -.94483 -417.532 553.613)"></path><path d="M455.827 580.306a10.4 10.4 0 0 1-3.284-1.131c.505.26 5.502.39 12.11-2.95-2.778 2.374-7.243 4.094-8.642 4.094q-.103 0-.184-.013" style="fill:url(#f);stroke:none" transform="matrix(.94483 0 0 -.94483 -417.532 553.613)" data-source="https://football-logos.cc"></path><path d="M451.285 578.346c-.572-.454-1.213-.914-2.19-2.317.338.482 4.307 2.081 13.722-1.382-3.388 2.843-8.704 3.815-10.738 3.815-.419 0-.699-.041-.794-.116" style="fill:url(#g);stroke:none" transform="matrix(.94483 0 0 -.94483 -417.532 553.613)"></path><path d="M448.535 575.113c-.342-.674-.848-1.881-1.039-3.04.393 2.378 9.656 2.439 17.898-2.403-4.288 4.593-11.033 5.866-14.557 5.866-1.311 0-2.176-.177-2.302-.423" style="fill:url(#h);stroke:none" transform="matrix(.94483 0 0 -.94483 -417.532 553.613)"></path><path d="M447.349 570.818c-.027-.718 0-1.976.417-3.323-.147.494 4.384 5.603 18.447-2.081-5.064 5.152-10.972 6.644-14.809 6.644-2.425.001-4.021-.596-4.055-1.24" style="fill:url(#i);stroke:none" transform="matrix(.94483 0 0 -.94483 -417.532 553.613)"></path><path d="M448.018 566.736c.297-.719.954-2.233 2.184-3.413-.691.667-.539 4.413 10.509 1.295-4.184 2.605-7.352 3.358-9.478 3.358-2.284 0-3.366-.869-3.215-1.24" style="fill:url(#j);stroke:none" transform="matrix(.94483 0 0 -.94483 -417.532 553.613)"></path><path d="M452.571 563.946c-1.488-.176-2.229-.909-1.33-1.564 1.431-1.044 3.092-1.624 3.964-1.871-1.096.314-2.842 2.357 5.075 1.005-1.837 1.711-5.706 2.449-7.324 2.449q-.223 0-.385-.019" style="fill:url(#k);stroke:none" transform="matrix(.94483 0 0 -.94483 -417.532 553.613)"></path><g clip-path="url(#l)" transform="matrix(.94483 0 0 -.94483 -417.532 553.613)" data-source="https://football-logos.cc"><path d="M0 0q-.05.107-.134.14A.2.2 0 0 1-.286.138a.17.17 0 0 1-.09-.113.3.3 0 0 1 .034-.191c.033-.067.078-.118.14-.138a.17.17 0 0 1 .146 0C.04-.253.073-.141 0 0m.23.119c.124-.26.051-.487-.196-.605a.44.44 0 0 0-.337-.043.5.5 0 0 0-.247.18l-.112-.056C-.718-.436-.741-.47-.746-.51q0-.048.05-.139l.32-.629-.23-.118-.381.758c-.096.185-.051.331.146.427l.089.039.112.062q-.042.29.253.432A.45.45 0 0 0 .23.119" style="fill:#231f20;fill-opacity:1;fill-rule:nonzero;stroke:none" transform="translate(444.716 581.509)"></path><path d="m0 0-1.308-.477.033.258.635.238a.53.53 0 0 1-.241.248c-.085.042-.163.05-.22.031l-.084.213A.53.53 0 0 0-.752.5c.14-.068.263-.202.359-.393l.315.112z" style="fill:#231f20;fill-opacity:1;fill-rule:nonzero;stroke:none" transform="translate(446.788 581.82)"></path><path d="m0 0 .074-.227-.539-.168-.068.23z" style="fill:#231f20;fill-opacity:1;fill-rule:nonzero;stroke:none" transform="translate(447.237 582.192)"></path><path d="m0 0-.224-.062-.068.236.224.062zm.072-.606a.23.23 0 0 1-.089.135.18.18 0 0 1-.158.027C-.287-.478-.332-.59-.297-.707a.34.34 0 0 1 .139-.186c.057-.039.101-.056.124-.05q.043.015.084.107a.37.37 0 0 1 .022.23M.707-1.1l-.258-.074a1.1 1.1 0 0 0-.41-.027 1 1 0 0 0-.359-.186l-.185-.056-.068.227.068.02c.095.028.179.056.23.085a.54.54 0 0 0-.269.325.4.4 0 0 0 .05.342q.083.135.27.186A.44.44 0 0 0 .101-.28.37.37 0 0 0 .32-.545a.53.53 0 0 0-.056-.416q.093.01.247.052l.135.038zM-.338-.096l-.224-.061-.067.236.225.061z" style="fill:#231f20;fill-opacity:1;fill-rule:nonzero;stroke:none" transform="translate(447.794 583.408)"></path><path d="M0 0c.044-.188-.039-.337-.241-.388l-.253-.061-.056.229.158.038c.095.025.151.097.122.204-.039.143-.089.337-.145.564a9 9 0 0 0-.146.567l.246.065c.029-.113.079-.315.158-.612z" style="fill:#231f20;fill-opacity:1;fill-rule:nonzero;stroke:none" transform="translate(448.967 582.746)"></path><path d="m0 0-.253-.059-.365 1.536.253.052z" style="fill:#231f20;fill-opacity:1;fill-rule:nonzero;stroke:none" transform="translate(449.624 582.572)"></path><path d="m0 0-.23-.045-.044.241.235.045zm.051-.635a.3.3 0 0 1-.101.174q-.066.044-.14.028a.15.15 0 0 1-.118-.078.28.28 0 0 1-.022-.196.27.27 0 0 1 .1-.169c.04-.033.09-.044.14-.033.107.019.169.123.141.274m.247.051C.348-.865.22-1.07-.05-1.12a.43.43 0 0 0-.365.081.42.42 0 0 0-.179.284c-.057.277.078.48.347.535.146.023.264 0 .371-.083a.42.42 0 0 0 .174-.281m-.64.517-.236-.045-.044.247.23.039z" style="fill:#231f20;fill-opacity:1;fill-rule:nonzero;stroke:none" transform="translate(450.83 583.925)"></path><path d="M0 0c.303.052.493.305.443.605l-.106.677.258.042.061-.401C.69.793.802.698.903.715l.269.04.034-.234L.96.484C.858.471.779.508.712.597.747.22.539-.088.19-.172.145-.131.084-.071 0 0" style="fill:#231f20;fill-opacity:1;fill-rule:nonzero;stroke:none" transform="translate(451.241 582.564)"></path><path d="m0 0 .029-.233-.557-.076-.027.227z" style="fill:#231f20;fill-opacity:1;fill-rule:nonzero;stroke:none" transform="translate(452.941 583.389)"></path><path d="m0 0-1.673-.174-.022.236.983.104a.47.47 0 0 1-.191.288.43.43 0 0 1-.303.073.67.67 0 0 1-.354-.154l-.113.192.584.723.202-.156-.303-.363q.565.06.725-.581l.443.045z" style="fill:#231f20;fill-opacity:1;fill-rule:nonzero;stroke:none" transform="translate(454.614 583.332)"></path><path d="M0 0c.012-.193-.095-.32-.302-.337l-.259-.017-.017.23.163.012c.096.008.163.073.151.182q-.018.224-.044.584c-.023.266-.039.463-.045.581l.252.022q.018-.173.051-.628C-.028.364-.011.157 0 0" style="fill:#231f20;fill-opacity:1;fill-rule:nonzero;stroke:none" transform="translate(455.153 583.678)"></path><path d="M456.889 582.471h-.236v.247h.236zm-.354-.006-.236-.005v.247l.23.006zm1.376.975-.198-.004a.3.3 0 0 0-.24.107.4.4 0 0 0-.102.176q-.094.425-.365.422c-.134-.003-.23-.092-.28-.261l.465.009.005-.301a.7.7 0 0 0-.184-.489.6.6 0 0 0-.456-.206.61.61 0 0 0-.454.195.7.7 0 0 0-.197.486c-.005.061-.005.16-.016.3l.258.003c0-.042 0-.104.006-.172q.007-.104.006-.131a.41.41 0 0 1 .14-.314.37.37 0 0 1 .257-.102c.097.004.18.037.259.11a.41.41 0 0 1 .124.32v.056l-.523-.005q0 .37.152.569a.53.53 0 0 0 .427.194.51.51 0 0 0 .45-.218q.092-.127.151-.355c.034-.106.095-.157.196-.151h.112z" style="fill:#231f20;fill-opacity:1;fill-rule:nonzero;stroke:none"></path><path d="m0 0-.237.006.005.247L.01.244Zm-.006-.772c-.005-.193-.123-.312-.332-.3l-.387.008.011.239.287-.012c.094 0 .168.056.174.164 0 .095.006.179.006.247v.241L.01-.199z" style="fill:#231f20;fill-opacity:1;fill-rule:nonzero;stroke:none" transform="translate(458.596 584.486)"></path><path d="m0 0-.298.019a.24.24 0 0 0-.168.078.3.3 0 0 0-.073.22l.067 1.291.258-.017L-.269.407C-.276.317-.235.25-.168.25l.18-.012z" style="fill:#231f20;fill-opacity:1;fill-rule:nonzero;stroke:none" transform="translate(459.471 583.35)"></path><path d="M0 0q.016.118-.044.186c-.034.048-.073.072-.129.072a.15.15 0 0 1-.134-.05Q-.367.151-.382.034A.26.26 0 0 1-.33-.157a.16.16 0 0 1 .128-.072C-.101-.235-.011-.157 0 0m.438-.275-.252.021c-.084-.144-.219-.2-.415-.183a.42.42 0 0 0-.377.253l-.281.027.023.236.213-.022c.029.28.214.443.488.421a.453.453 0 0 0 .422-.5l.202-.02z" style="fill:#231f20;fill-opacity:1;fill-rule:nonzero;stroke:none" transform="translate(460.33 583.514)"></path><path d="M0 0c-.011 0-.016 0-.028-.002a.05.05 0 0 1-.034-.043.1.1 0 0 1 .017-.075c.062.01.085.036.089.067Q.053-.007 0 0m.118-.061C.108-.18-.022-.252-.236-.23a1 1 0 0 0-.106.028q-.002-.002-.029.09c.124-.034.203-.046.253-.028a.13.13 0 0 0-.021.098q.005.08.072.112a.2.2 0 0 0 .072.015.14.14 0 0 0 .113-.146" style="fill:#231f20;fill-opacity:1;fill-rule:nonzero;stroke:none" transform="translate(461.857 584.84)"></path><path d="M0 0a.64.64 0 0 1-.349.14.6.6 0 0 1-.274-.025c.134-.05.247-.168.348-.347.107.058.196.14.275.232m.354-.749-.494.067a.3.3 0 0 0-.231.147.9.9 0 0 0-.432-.063l-.421.057.034.23.415-.054a.8.8 0 0 1 .286.025c-.151.237-.314.366-.488.4l.028.196a.98.98 0 0 0 .623.123C-.057.34.185.211.331.023a1.7 1.7 0 0 0-.466-.441.3.3 0 0 1 .141-.045L.382-.51Z" style="fill:#231f20;fill-opacity:1;fill-rule:nonzero;stroke:none" transform="translate(461.97 583.787)"></path><path d="M0 0c-.034-.192-.169-.295-.376-.264l-.258.042.039.236.163-.028c.096-.014.174.033.191.137q.034.225.083.581c.046.269.074.46.091.581l.252-.042C.169 1.131.135.924.096.62A22 22 0 0 1 0 0" style="fill:#231f20;fill-opacity:1;fill-rule:nonzero;stroke:none" transform="translate(462.93 583.26)"></path><path d="m0 0-.252.045.263 1.549.253-.044Z" style="fill:#231f20;fill-opacity:1;fill-rule:nonzero;stroke:none" transform="translate(463.462 582.847)"></path><path d="m0 0-1.056.229.168.209.668-.146a.53.53 0 0 1-.072.339c-.051.081-.107.126-.175.144l.057.224A.51.51 0 0 0-.023.69Q.085.437 0 0" style="fill:#231f20;fill-opacity:1;fill-rule:nonzero;stroke:none" transform="translate(465.355 582.454)"></path><path d="m0 0-.292.079a.26.26 0 0 0-.152.106.3.3 0 0 0-.022.231l.303 1.252.252-.062-.28-1.154c-.023-.084.006-.16.073-.177L.056.23Z" style="fill:#231f20;fill-opacity:1;fill-rule:nonzero;stroke:none" transform="translate(466.22 582.23)"></path><path d="m0 0-.28.078-1.213.359.067.225L-.398.358q.05.44-.286.54-.212.061-.333.011l-.038.22c.118.053.264.05.449 0A.6.6 0 0 0-.213.797.87.87 0 0 0-.167.292L.062.224Z" style="fill:#231f20;fill-opacity:1;fill-rule:nonzero;stroke:none" transform="translate(467.69 581.808)"></path><path d="m0 0-.218.075.083.233.219-.076zm-.331.114-.22.076.08.237.218-.079zm.1-.847C-.292-.918-.438-1-.64-.929l-.365.129.078.218.276-.089c.089-.034.174 0 .213.101q.04.136.072.23.045.143.074.236l.247-.091a24 24 0 0 0-.186-.538" style="fill:#231f20;fill-opacity:1;fill-rule:nonzero;stroke:none" transform="translate(468.667 582.609)"></path><path d="M0 0c-.068-.045-.187-.017-.27.006l.42 1.099.242-.094Zm.437-.194a.41.41 0 0 0-.287-.25c-.145-.042-.297-.025-.471.04l-.197.081.09.216.101-.039a.7.7 0 0 1 .298-.048.32.32 0 0 1 .269.206q0 .011.354.917L.83.831Zm-.786-.744-.404.158.095.092.096-.042a.11.11 0 0 0 .012.079c.032.095.128.14.212.104a.16.16 0 0 0 .095-.11l-.089-.062a.15.15 0 0 1-.045.057q-.044.009-.062-.037c-.017-.042 0-.075.062-.098l.073-.034z" style="fill:#231f20;fill-opacity:1;fill-rule:nonzero;stroke:none" transform="translate(469.117 581.803)"></path><path d="m0 0-.23.105.652 1.433.235-.112Z" style="fill:#231f20;fill-opacity:1;fill-rule:nonzero;stroke:none" transform="translate(469.941 580.91)"></path></g><!-- source: https://football-logos.cc --></svg>