<svg xmlns="http://www.w3.org/2000/svg" viewBox="0 0 82.8 90.67"><!-- Source: https://football-logos.cc --><path d="M530 292.898c1.492 7.743 3.129 16.219 7.148 23.856l2.868 5.453-6.133-.543a49.3 49.3 0 0 1-7.735-1.332 27 27 0 0 1 1.778 2.527c1.832 2.934 3.203 6.211 4.379 9.243 5.386 13.859 3.133 27.941.988 41.375-1.383 8.656-2.723 17.027-1.762 24.457l1.149 8.875-6.703-5.942a134 134 0 0 1-10.684-10.597 94 94 0 0 1 1.969 4.742c3.324 8.648 4.617 15.988 4.687 22.113.067 6.828-.308 11.766-2.152 16.652-1.836 4.868-5.035 9.422-10.578 15.457-2.641 2.871-4.641 5.985-6.074 9.594-1.465 3.684-2.383 7.969-2.832 13.129l-.922 10.617-5.344-9.219c-1.895-3.265-3.715-7.394-5.34-11.761.223 2.617.352 5.168.371 7.66.067 7.441-.781 14.258-2.508 20.465-.547 1.961-1.105 3.695-1.761 5.226-.723 1.676-1.555 3.145-2.614 4.442-2.254 2.769-4.984 4.656-8.074 6.789-.941.648-1.926 1.328-3.043 2.148-2.371 1.735-5.098 3.985-8.058 7.024-2.981 3.058-6.219 6.937-9.598 11.937l-5.067 7.5-1.066-8.988a93 93 0 0 1-.492-5.836c-1.582 4.297-3.75 8.141-6.426 11.441-4.379 5.411-10.476 9.868-17.976 13.078-7.141 3.059-15.575 4.993-25.016 5.532l-4.098.23.586-4.058c.602-4.204 1.684-8.27 3.18-12.2a74 74 0 0 1-2.356 2.344c-5.14 4.91-10.703 8.852-16.644 11.91-8.305 4.274-14.641 4.196-22.797 4.098-7.477-.094-16.633-.207-30.68 3.488l-6.988 1.836 3.094-6.523c3.648-7.719 7.832-14.555 12.863-20.293h-.004a159 159 0 0 1-23.043 1.672c-7.812 0-15.504-.567-23.043-1.672h-.004c5.035 5.738 9.215 12.574 12.868 20.293l3.085 6.523-6.984-1.836c-14.047-3.695-23.199-3.582-30.676-3.488-8.164.098-14.5.176-22.804-4.098-5.938-3.058-11.496-7-16.645-11.91a78 78 0 0 1-2.351-2.344c1.496 3.93 2.582 7.996 3.179 12.2l.582 4.058-4.094-.23c-9.441-.539-17.875-2.473-25.011-5.532-7.5-3.21-13.598-7.667-17.985-13.078-2.675-3.3-4.843-7.144-6.421-11.441a97 97 0 0 1-.493 5.836l-1.066 8.988-5.066-7.5c-3.379-5-6.618-8.879-9.594-11.937a64 64 0 0 0-8.063-7.024c-1.121-.82-2.097-1.5-3.043-2.148-3.09-2.133-5.824-4.02-8.074-6.789-1.055-1.297-1.894-2.766-2.613-4.442-.656-1.531-1.219-3.265-1.762-5.226-1.723-6.207-2.578-13.024-2.512-20.465.028-2.492.149-5.043.379-7.66-1.633 4.367-3.449 8.496-5.343 11.761l-5.34 9.219-.922-10.617c-.449-5.16-1.367-9.445-2.832-13.129-1.438-3.609-3.434-6.723-6.074-9.594-5.547-6.035-8.743-10.589-10.579-15.457-1.843-4.886-2.222-9.824-2.152-16.652.063-6.125 1.356-13.465 4.684-22.113.59-1.539 1.25-3.117 1.968-4.742a133 133 0 0 1-10.68 10.597l-6.706 5.942 1.148-8.875c.961-7.43-.375-15.801-1.758-24.457-2.148-13.434-4.398-27.516.985-41.375 1.18-3.032 2.55-6.309 4.383-9.243a27 27 0 0 1 1.773-2.527 49 49 0 0 1-7.73 1.332l-6.133.543 2.867-5.453c4.012-7.637 5.652-16.113 7.144-23.856 1.883-9.738 3.563-18.418 9.414-24.175 2.637-2.606 5.586-4.961 8.844-7.078a73 73 0 0 1-7.726.468l-10.95.094 9.016-6.215c11.941-8.238 14.387-16.344 16.586-23.621 2.148-7.121 4.098-13.566 12.527-19.125 3.469-2.285 7.657-4.168 12.821-5.504q-3.446-.749-7.196-1.75l-9.648-2.578 9.254-3.781c4.234-1.735 8.187-4.356 11.82-7.469 3.711-3.187 7.063-6.859 10.031-10.621 4.387-5.551 9.168-9.047 14.578-11.199 5.293-2.106 11.086-2.867 17.657-3.004a70 70 0 0 1 2.426-.004 38 38 0 0 1-1.961-1.102l-9.145-5.496 10.645-.75c8.925-.617 14.41-4.226 19.355-7.476 3.816-2.516 7.363-4.844 11.867-5.891-3.07-.851-6.476-1.582-10.34-2.187l-9.156-1.426 7.93-4.778c9.758-5.871 18.144-9.437 25.871-11.55 7.75-2.117 14.762-2.754 21.769-2.778 9.067-.031 19.11 2.129 27.809 5.996 8.246 3.657 15.367 8.879 19.484 15.29l2.293 3.562-3.578 2.074c2.395-.105 4.793-.164 7.211-.164s4.821.059 7.211.164l-3.578-2.074 2.289-3.562c4.121-6.411 11.238-11.633 19.484-15.29 8.707-3.867 18.75-6.027 27.813-5.996 7.012.024 14.019.661 21.769 2.778 7.723 2.113 16.118 5.679 25.872 11.55l7.925 4.778-9.148 1.426c-3.867.605-7.274 1.336-10.344 2.187 4.508 1.047 8.051 3.375 11.871 5.891 4.946 3.25 10.43 6.859 19.352 7.476l10.648.75-9.144 5.496c-.641.383-1.297.754-1.965 1.102a70 70 0 0 1 2.426.004c6.574.137 12.363.898 17.656 3.004 5.41 2.152 10.191 5.648 14.582 11.199 2.969 3.762 6.316 7.434 10.027 10.621 3.633 3.113 7.582 5.734 11.825 7.469l9.25 3.781-9.649 2.578q-3.757 1.001-7.191 1.75c5.16 1.336 9.343 3.219 12.812 5.504 8.438 5.559 10.383 12.004 12.535 19.125 2.192 7.277 4.637 15.383 16.586 23.621l9.016 6.215-10.953-.094a73 73 0 0 1-7.731-.468c3.258 2.117 6.207 4.472 8.848 7.078 5.855 5.757 7.527 14.437 9.414 24.175" style="fill:#000;fill-opacity:1;fill-rule:nonzero;stroke:none" transform="matrix(.13333 0 0 -.13333 0 90.667)" data-source="https://football-logos.cc"></path><path d="M464.332 364.918c-1.441 6.742-4.121 12.82-8.539 17.973l-8.785 10.238 12.562-4.922a179 179 0 0 0 5.301-2.172c-3.734 2.727-6.496 5.367-8.141 7.965l-1.32 2.086 1.606 1.887c1.679 1.968 1.097 7.558-.895 13.922-2.144 6.851-6.008 14.195-10.707 19.027l-6.043 6.223 8.656-.524.453-.027c-3.968 2.39-7.148 5.586-9.941 9.172-2.598 3.339-5.359 7.125-8.105 10.879a766 766 0 0 1-3.563 4.859V233.168c2.856 3.352 5.41 8.102 7.231 15.453l2.988 12.043 2.351-7.988c.622 5.449 2.411 9.054 6.008 13.785 4.297 5.648 7.656 10.199 9.61 15.059 1.906 4.742 2.57 10.023 1.629 17.382l-2.083 16.332 6.954-11.89c1.769 6.113 2.675 11.906 2.636 17.336-.05 6.367-1.386 12.273-4.152 17.679l-6.535 12.778 11.527-8.555.336-.246c.609 8.059.43 15.684-1.039 22.582M365.355 508.395l9.454 2.148c.75.172 1.492.324 2.238.48-6.953.524-13.356 1.727-19.188 3.622-8.882 2.882-16.125 7.625-22.207 13.894a79 79 0 0 0-1.882 2.035V164.039c.894.352 1.781.672 2.671.977 5.125 1.742 10.082 2.683 14.36 2.879l3.656 5.168c9.582 13.531 16.844 13.144 23.371 12.8.844-.043 1.676-.086 2.488-.066v315.32c-2 1.051-4.078 2.086-6.214 3.106zM263.125 514.641c-5.836-1.891-12.23-3.094-19.184-3.618.747-.156 1.489-.308 2.235-.48l9.453-2.148-8.742-4.172a185 185 0 0 1-6.223-3.106v-315.32c.82-.02 1.645.023 2.496.066 6.524.344 13.789.731 23.367-12.8l3.661-5.168c4.277-.196 9.226-1.137 14.359-2.879a65 65 0 0 0 2.672-.977v366.535a66 66 0 0 0-1.891-2.035c-6.082-6.269-13.32-11.012-22.203-13.898M182.441 445.766c-2.793-3.586-5.972-6.782-9.937-9.172l.457.027 8.648.524-6.043-6.223c-4.691-4.832-8.554-12.176-10.703-19.027-1.992-6.364-2.574-11.954-.898-13.922l1.609-1.887-1.32-2.086c-1.641-2.598-4.406-5.238-8.141-7.965 1.723.738 3.496 1.465 5.301 2.172l12.566 4.922-8.789-10.238c-4.421-5.153-7.101-11.231-8.535-17.973-1.476-6.898-1.652-14.523-1.047-22.582l.344.246 11.524 8.555-6.536-12.778c-2.761-5.406-4.105-11.312-4.148-17.679-.039-5.43.863-11.223 2.637-17.336l6.953 11.89-2.086-16.332c-.938-7.359-.274-12.64 1.633-17.382 1.953-4.86 5.304-9.411 9.605-15.059 3.602-4.731 5.387-8.336 6.008-13.785l2.352 7.988 2.992-12.043c1.82-7.351 4.375-12.101 7.23-15.453v228.336a636 636 0 0 1-3.566-4.859c-2.742-3.754-5.508-7.54-8.11-10.879" style="fill:#961f2a;fill-opacity:1;fill-rule:nonzero;stroke:none" transform="matrix(.13333 0 0 -.13333 0 90.667)"></path><path d="M246.223 533.824c-3.625-5.597-13.457-11.961-26.785-18.75 16.632-1.933 30.878-1.051 42.648 2.77 16.652 5.398 27.176 17.801 35.184 34.73-28.946-7.617-37.657.461-52.793-7.324-11.317-5.824-21.207-15.035-29.395-28.277 11.168 9.851 21.613 15.824 31.141 16.851M144.672 478.477c.308-9.2-1.082-20.043-3.164-31.039 7.785 16.003 15.992 25.984 24.152 31.855 3.145 2.262 4.899 8.41 5.184 17.836.261 8.359.527 19.687-.492 28.269-6.977-10.32-13.473-16.14-18.457-19.789-4.161-3.043-7.872-5.105-10.5-8.343-1.684-2.071-2.735-4.809-3.743-8.45-3.257-11.722-3.242-25.808.379-42.289 1.301 15.02 3.551 25.911 6.641 31.95M119.68 372.184c-.239 14.48-.84 28.582-2.121 42.015 2.304-3.5 3.886-8.75 5.144-14.801 4.586 8.469 10.145 19.301 12.735 27.079 1.753 5.234.253 10.726-1.219 17.058-2.094 8.977-5.981 20.875-10.192 28.129-.945-10.918-3.964-18.371-9.785-24.711-10.48-11.406-11.98-16.953-11.844-29.801.114-10.675 4.25-25.422 17.282-44.968M125.258 308.414l12.609 23.207c-2.137 17.793-.254 30.856 5.973 35.774-1.789-8.934-3.024-17.801-2.516-30.301l10.938 4.91c-1.278 16.762.75 31.848 10.379 43.07-12.391-4.855-22.95-10.566-29.301-15.09-7.156-5.097-10.227-9.851-10.735-26.976-.285-9.91.641-21.469 2.653-34.594M200.469 474.902c-15.821 2.125-27.715 2.246-38.867-6.347-8.711-6.719-19.844-21.961-22.399-33.379 11.156 11.902 21.953 21.754 27.961 23.379l-21.043-21.817c17.871-3.675 26.926 2.426 33.676 11.094 6.965 8.945 14.605 20.387 20.672 27.07" style="fill:#38944a;fill-opacity:1;fill-rule:nonzero;stroke:none" transform="matrix(.13333 0 0 -.13333 0 90.667)"></path><path d="M147.168 285.438c-5.082 12.82-5.824 26.519-2.324 34.417.074-9.171 1.133-19.074 3.183-29.968l9.368 8.707c-5.29 15.64-5.457 29.519.558 41.293-16.793-12.465-28.23-21.508-28.402-38.465-.121-12.375 4.535-27.184 12.336-43.223zM223.676 182.434c-1.449 15.156-6.219 24.949-11.524 32.476-7.488 10.641-22.132 7.117-28.535 32.91-4.047-13.738-5.902-31.836-.808-41.57 2.035-3.891 4.789-7.035 8.636-10.836 7.465-7.363 16.973-14.351 27.102-21.238-3.117 12.047-8.883 23.961-17.965 35.707 8.457-3.606 16.133-12.926 23.094-27.449" style="fill:#38944a;fill-opacity:1;fill-rule:nonzero;stroke:none" transform="matrix(.13333 0 0 -.13333 0 90.667)"></path><path d="M176.031 214.789c3.008 34.953 4.356 39.746-3.164 49.629-8.918 11.715-13.941 18.918-11.898 34.906-7.207-12.328-14.133-25-14.371-36.945-.321-15.859 7.265-29.645 23.851-46.695-12.359 22.586-18.047 37.519-13.164 45.25.817-16.582 7.254-29.071 18.746-46.145M138.512 424.184c-5.809-6.356-10.867-24.579-13.59-44.688 4.019 7.652 8.031 15.156 12.051 21.984q-3.592-11.799-4.946-25.39c15.121 7.523 25.762 13.969 29.383 19.695-4.93 5.785 1.539 26.969 11.75 37.477-14.746-.891-27.168-.883-34.648-9.078M130.613 255.855c-7.699 10.598-18.636 13.454-23.097 35.547 7.406-13.648 17.566-25.714 31.246-35.765-11.407 27.019-15.215 45.004-25.492 52.406-6.825 4.918-16.47 9.391-26.457 10.277 9.16-17.422 6.414-37.828 15.945-47.207 6.984-6.879 16.273-11.965 27.855-15.258M241.254 156.965c-9.805.187-18.633 2.566-23.602 4.265 5.157 1.68 13.012 1.875 24.438.114-2.699 5.652-12.305 8.617-20.879 8.965-8.707.351-21.633-1.321-31.012-6.957 18.301-1.278 22.914-13.661 35.668-13.938 4.918-.105 10.52 2.297 15.387 7.551" style="fill:#38944a;fill-opacity:1;fill-rule:nonzero;stroke:none" transform="matrix(.13333 0 0 -.13333 0 90.667)"></path><path d="M250.797 141.816c1.465 3.25 5.379 7.793 11.383 10.395 8.097 3.516 20.199 4.941 36.238 2.184-10.309 6.972-21.824 10.199-29.961 10.179-11.824-.023-16.918-6.176-25.941-11.914-8.137-5.172-16.446-9.246-31.145-11.543 18.984-11.429 32.422-13.812 45.902-13.855 16.598-.059 36.668 7.617 44.465 19.742-19.289 6.859-33.285 7.289-50.941-5.188M263.789 171.121c-15.43 21.801-23.586 2.961-33.867 17.399-.414-8.29 1.66-13.684 5.492-17.043 5.781-5.075 15.563-5.5 26.809-4.227-3.825 3.785-8.379 6.711-13.551 8.922q5.654 1.353 15.117-5.051M176.477 185c7.367-1.801 14.73-3.301 22.093-4.355-7.16 8.984-10.644 12.609-17.769 20.484-4.258 4.707-6.137 6.152-14.031 6.18-7.301.031-17.676-.856-31.579-4.571 9.227-3.769 17.012-11.258 23.215-19.109 7.996-10.117 17.274-12.684 29.676-12.93 5.082-.101 11.258.375 17.856 2.774-14.446 3.086-24.122 6.949-29.461 11.527M193.883 493.871c-4.41-4.379-11.703-9.555-19.414-14.84q19.311 2.362 31.246-.89c8.344 10.929 21.82 20.582 39.723 29.125-13.758 3.121-28.129 3.242-43.079.527 11.043 11.395 19.344 24.32 21.43 38.863-18.336-1.051-32.613-7.547-40.57-17.375-6.957-8.593-10.192-21.273-7.969-36.527 2.914 13.711 7.332 24.531 13.836 31.363.492-6.152-3.523-15.824-8.594-26.672l4.801 2.567-12.387-14.953c7.09 3.687 14.11 6.851 20.977 8.812M135.973 232.645c9.511-12.071 20.082-18.911 32.136-18.411-27.254 21.317-19.015 30.098-35.976 37.621-8.574 3.809-18.992 6.801-30.645 6.907 23.7-16.352 12.77-31.985 29.055-42.711 6.719-4.426 16.477-7.238 31.648-7.172-15.242 6.898-24.265 14.773-26.218 23.766M91.816 333.313c2.223-5.719 5.164-12.379 10.649-15.094 6.265-3.102 13.758-8.203 21.898-13.824-17.527 19.793-28.449 40.043-21.476 57.476.547-18.508 6.5-34.535 17.797-47.207l-2.68 53.34c-6.914 11.465-15.316 21.582-25.219 30.351 2.516-19.468-9.496-43.117-.969-65.042M474.391 262.379c-.243 11.945-7.164 24.617-14.371 36.945 2.043-15.988-2.985-23.191-11.899-34.906-7.519-9.883-6.18-14.676-3.164-49.629 11.488 17.074 17.93 29.563 18.742 46.145 4.887-7.731-.804-22.664-13.168-45.25 16.594 17.05 24.176 30.836 23.86 46.695" style="fill:#38944a;fill-opacity:1;fill-rule:nonzero;stroke:none" transform="matrix(.13333 0 0 -.13333 0 90.667)"></path><path d="M491.43 301.422c-.164 16.957-11.61 26-28.399 38.465 6.016-11.774 5.852-25.653.559-41.293l9.363-8.707c2.051 10.894 3.117 20.797 3.192 29.968 3.5-7.898 2.75-21.597-2.329-34.417l5.286-27.239c7.796 16.039 12.453 30.848 12.328 43.223M447.828 433.262c10.207-10.508 16.676-31.692 11.746-37.477 3.625-5.726 14.266-12.172 29.379-19.695-.902 9.062-2.547 17.523-4.945 25.39 4.019-6.828 8.039-14.332 12.055-21.984-2.727 20.109-7.786 38.332-13.586 44.688-7.481 8.195-19.903 8.187-34.649 9.078" style="fill:#38944a;fill-opacity:1;fill-rule:nonzero;stroke:none" transform="matrix(.13333 0 0 -.13333 0 90.667)"></path><path d="M485.543 426.477c2.598-7.778 8.148-18.61 12.738-27.079 1.262 6.051 2.84 11.301 5.149 14.801-1.282-13.433-1.891-27.535-2.121-42.015 13.027 19.546 17.168 34.293 17.281 44.968.137 12.848-1.363 18.395-11.848 29.801-5.82 6.34-8.836 13.793-9.785 24.711-4.207-7.254-8.102-19.152-10.187-28.129-1.481-6.332-2.977-11.824-1.227-17.058M495.727 308.414c2.011 13.125 2.941 24.684 2.648 34.594-.504 17.125-3.57 21.879-10.734 26.976-6.348 4.524-16.903 10.235-29.297 15.09 9.629-11.222 11.656-26.308 10.383-43.07l10.929-4.91c.512 12.5-.718 21.367-2.508 30.301 6.227-4.918 8.102-17.981 5.973-35.774zM500.305 314.664c11.293 12.672 17.25 28.699 17.797 47.207 6.964-17.433-3.957-37.683-21.481-57.476 8.141 5.621 15.637 10.722 21.899 13.824 5.484 2.715 8.429 9.375 10.652 15.094 8.519 21.925-3.492 45.574-.973 65.042q-14.846-13.154-25.215-30.351zM490.371 255.855q17.372 4.94 27.859 15.258c9.528 9.379 6.786 29.785 15.942 47.207-9.988-.886-19.629-5.359-26.457-10.277-10.274-7.402-14.082-25.387-25.488-52.406 13.671 10.051 23.836 22.117 31.246 35.765-4.465-22.093-15.403-24.949-23.102-35.547M452.875 214.234c12.051-.5 22.621 6.34 32.141 18.411-1.957-8.993-10.985-16.868-26.223-23.766 15.168-.066 24.93 2.746 31.652 7.172 16.285 10.726 5.356 26.359 29.051 42.711-11.648-.106-22.07-3.098-30.648-6.907-16.953-7.523-8.715-16.304-35.973-37.621M474.859 436.738l-21.035 21.817c6.004-1.625 16.797-11.477 27.957-23.379-2.551 11.418-13.683 26.66-22.402 33.379-11.149 8.593-23.039 8.472-38.859 6.347 6.062-6.683 13.703-18.125 20.668-27.07 6.746-8.668 15.804-14.769 33.671-11.094M429.543 195.414c3.848 3.801 6.602 6.945 8.637 10.836 5.09 9.734 3.238 27.832-.813 41.57-6.398-25.793-21.051-22.269-28.535-32.91-5.301-7.527-10.07-17.32-11.523-32.476 6.964 14.523 14.64 23.843 23.097 27.449-9.082-11.746-14.847-23.66-17.965-35.707 10.122 6.887 19.633 13.875 27.102 21.238M352.523 164.574c-8.132.02-19.648-3.207-29.957-10.179 16.043 2.757 28.141 1.332 36.239-2.184 6.004-2.602 9.922-7.145 11.386-10.395-17.664 12.477-31.66 12.047-50.945 5.188 7.801-12.125 27.867-19.801 44.465-19.742 13.48.043 26.918 2.426 45.902 13.855-14.695 2.297-23.008 6.371-31.14 11.543-9.024 5.738-14.121 11.891-25.95 11.914" style="fill:#38944a;fill-opacity:1;fill-rule:nonzero;stroke:none" transform="matrix(.13333 0 0 -.13333 0 90.667)"></path><path d="M399.773 170.309c-8.574-.348-18.175-3.313-20.878-8.965 11.425 1.761 19.281 1.566 24.441-.114-4.977-1.699-13.801-4.078-23.606-4.265 4.872-5.254 10.469-7.656 15.383-7.551 12.758.277 17.367 12.66 35.668 13.938-9.375 5.636-22.301 7.308-31.008 6.957M440.18 201.129c-7.117-7.875-10.61-11.5-17.762-20.484 7.363 1.054 14.727 2.554 22.094 4.355-5.34-4.578-15.02-8.441-29.461-11.527 6.594-2.399 12.765-2.875 17.855-2.774 12.403.246 21.672 2.813 29.668 12.93 6.203 7.851 13.992 15.34 23.223 19.109-13.902 3.715-24.281 4.602-31.582 4.571-7.891-.028-9.777-1.473-14.035-6.18M375.547 507.266c17.898-8.543 31.379-18.196 39.726-29.125 7.95 2.168 18.372 2.464 31.247.89-7.711 5.285-15.004 10.461-19.418 14.84 6.867-1.961 13.89-5.125 20.98-8.812l-12.391 14.953 4.801-2.567c-5.066 10.848-9.086 20.52-8.594 26.672 6.5-6.832 10.922-17.652 13.84-31.363 2.223 15.254-1.015 27.934-7.972 36.527-7.961 9.828-22.235 16.324-40.571 17.375 2.086-14.543 10.387-27.468 21.426-38.863-14.949 2.715-29.32 2.594-43.074-.527M455.32 479.293c8.164-5.871 16.375-15.852 24.157-31.855-2.082 10.996-3.469 21.839-3.164 31.039 3.089-6.039 5.335-16.93 6.64-31.95 3.625 16.481 3.641 30.567.383 42.289-1.012 3.641-2.063 6.379-3.746 8.45-2.633 3.238-6.336 5.3-10.496 8.343-4.989 3.649-11.489 9.469-18.465 19.789-1.02-8.582-.75-19.91-.492-28.269.293-9.426 2.043-15.574 5.183-17.836" style="fill:#38944a;fill-opacity:1;fill-rule:nonzero;stroke:none" transform="matrix(.13333 0 0 -.13333 0 90.667)"></path><path d="M358.895 517.844c11.773-3.821 26.023-4.703 42.652-2.77-13.324 6.789-23.156 13.153-26.781 18.75 9.527-1.027 19.968-7 31.132-16.851-8.183 13.242-18.078 22.453-29.39 28.277-15.137 7.785-23.848-.293-52.797 7.324 8.012-16.929 18.531-29.332 35.184-34.73M385.57 171.477c3.828 3.359 5.91 8.753 5.493 17.043-10.282-14.438-18.434 4.402-33.868-17.399 6.313 4.27 11.344 5.953 15.114 5.051-5.164-2.211-9.719-5.137-13.543-8.922 11.246-1.273 21.023-.848 26.804 4.227" style="fill:#38944a;fill-opacity:1;fill-rule:nonzero;stroke:none" transform="matrix(.13333 0 0 -.13333 0 90.667)"></path><path d="M325.316 377.406c1.914 1.324 3.75 2.949 5.469 4.883l.735.824 1.015-.453 32.914-14.73.762-.336.121-.817 4.133-27.453.265-1.797-1.812.067-11.609.394c-.754-8.629-3.868-20.832-8.95-32.539-4.371-10.058-10.218-19.789-17.32-26.636l-10.238-9.875-2.934-2.833.379 4.067.414 4.383-5.383.433-1.402.114v7.804h-5.883l-.371.985-1.891 4.961h-5.41l-.3 1.121-1.149 4.191-2.723-1.82-1.687-1.133-.602 1.941-1.019 3.317-1.871-2.114-1.403-1.582-1.043 1.836-1.46 2.579-2.18-1.774-1.676-1.359-.711 2.035-1.211 3.48-4.476-2.32-4.223-2.187 2.184 4.222c2.562 4.957 3.832 10.078 4.199 14.914.433 5.778-.414 11.121-1.91 15.27-1.309 3.636-3.18 6.976-5.887 9.672-2.688 2.675-6.234 4.73-10.914 5.847l-1.516.364.403 1.5c.644 2.425 1.132 4.308 1.585 6.043 5.911 22.695 6.04 23.203 32.184 31.285l1.055.328.629-.903a27.5 27.5 0 0 1 4.265-4.851c4.02-3.578 8.801-5.539 13.735-5.793 4.933-.258 10.05 1.199 14.718 4.445" style="fill:#000;fill-opacity:1;fill-rule:nonzero;stroke:none" transform="matrix(.13333 0 0 -.13333 0 90.667)"></path><path d="M331.918 381.285c-12.402-13.922-30.652-12.808-40.563 1.449-27.488-8.496-25.304-8.355-32.75-36.269 9.946-2.371 15.11-8.805 17.875-16.488 2.86-7.961 3.477-20.082-2.363-31.383l6.024 3.125 1.789-5.133 3.566 2.902 2.348-4.133 3.648 4.133 1.813-5.89 4.468 2.988 1.7-6.219h5.3l2.258-5.941h6.364V276.5l6.918-.559-.555-5.914 10.23 9.875c15.52 14.965 25.012 44.219 25.918 59.645l13.059-.445-4.129 27.453z" style="fill:#efe02d;fill-opacity:1;fill-rule:nonzero;stroke:none" transform="matrix(.13333 0 0 -.13333 0 90.667)" data-source="https://football-logos.cc"></path><path d="M364.254 356.047h-3.441v-4.106h3.441zM327.676 369.652h3.441v4.098h-3.441zM318.762 365.137h3.441v4.097h-3.441zM361.855 347.629v-4.098h3.442v4.098zM308.305 363.762h3.441v4.093h-3.441zM361.516 362.973h-3.446v-4.094h3.446zM297.82 366.426h3.446v4.097h-3.446zM264.125 356.129h3.441v4.098h-3.441zM262.152 348.102h3.446v4.093h-3.446zM266.449 363.813h3.446v4.101h-3.446zM292.063 370.777h3.441v4.094h-3.441zM289.316 328.656c2.914-6.218 1.27-14.398-4.019-24.136h4.297c4.617 7.378 7.105 15.335 6.492 24.132zM317.883 326.199c.23-9.5-2.719-21.047-8.305-34.297l3.235-1.254c6.488 10.02 10.199 21.786 10.718 35.547zM332.727 326.199c2.91-14.965-1.622-27.09-11.247-37.261l2.985-3.004c9.488 9.711 13.711 19.515 15.027 40.261zM339 339.469c-9.258-4.684-11.191-2.692-18.84 2.101 2.121-10.91 14.879-11.922 18.84-2.101M309.91 328.652l-5.48.004c1.172-9.343-1.207-17.621-6.008-25.172l4.183-2.156c4.856 8.899 7.528 17.985 7.305 27.324M304.711 340.891c-7.801-4.375-13.512-2.864-18.527 2.078 2.816-10.387 14.402-11.621 18.527-2.078" style="fill:#302d5f;fill-opacity:1;fill-rule:nonzero;stroke:none" transform="matrix(.13333 0 0 -.13333 0 90.667)"></path><path d="M453.656 367.527c-2.051 2.059-8.429 3.149-10.922.516-2.281-2.406-.843-3.516-2.464-5.398l-16.325-18.883c-7.164-2.61-14.211 4.871-17.152 13.972-.488-11.851 2.516-19.179 8.145-23.093L310.492 230.074 206.047 334.641c5.633 3.914 8.637 11.242 8.148 23.093-2.949-9.101-9.996-16.582-17.16-13.972l-16.316 18.883c-1.625 1.882-.192 2.992-2.473 5.398-2.484 2.633-8.871 1.543-10.922-.516-3.633-3.64-2.73-9.617-1.109-11.066 2.219-1.992 3.203-1.504 4.824-3.219l17.238-18.187c-4.589-5.641-6.679-13.239-6.496-22.617 4.75 9.316 10.043 15.292 16.141 16.375l109.961-101.352-47.32-47.379c.183-.176.371-.352.558-.539l49.371 45.508 49.367-45.508c.192.187.379.363.567.539l-47.321 47.379 109.958 101.352c6.093-1.083 11.39-7.059 16.14-16.375.188 9.378-1.902 16.976-6.492 22.617l17.23 18.187c1.625 1.715 2.61 1.227 4.825 3.219 1.625 1.449 2.531 7.426-1.11 11.066" style="fill:#fff;fill-opacity:1;fill-rule:nonzero;stroke:none" transform="matrix(.13333 0 0 -.13333 0 90.667)"></path><path d="m193.598 347.738-1.063 1.231c-.879-1.508-1.984-2.91-3.293-4.219-1.648-1.648-3.621-3.148-5.867-4.52l1.082-1.148c2.231 1.387 4.203 2.906 5.875 4.574 1.27 1.27 2.367 2.629 3.266 4.082M181.074 362.23l-.355.415a3.8 3.8 0 0 0-.641 1c-.945-1.887-2.234-3.618-3.828-5.204-1.66-1.66-3.652-3.168-5.914-4.55.227-.176.453-.383.703-.649l.441-.465c2.231 1.387 4.204 2.907 5.864 4.571 1.5 1.5 2.754 3.121 3.73 4.882M197.035 343.762l-.664.769c-.859-1.449-1.933-2.797-3.195-4.062-1.637-1.629-3.582-3.114-5.793-4.473l.894-.941c-.172-.211-.339-.414-.5-.629 2.489 1.488 4.668 3.129 6.493 4.949 1.3 1.305 2.418 2.699 3.328 4.199a9 9 0 0 0-.563.188M189.137 352.906l-1.074 1.239c-.911-1.665-2.094-3.204-3.524-4.629-1.617-1.618-3.555-3.094-5.75-4.45l1.09-1.144c2.176 1.367 4.113 2.859 5.75 4.5a22.4 22.4 0 0 1 3.508 4.484M185.191 357.473l-1.07 1.238c-.906-1.648-2.086-3.176-3.5-4.59-1.691-1.687-3.723-3.219-6.031-4.617l1.086-1.152c2.297 1.414 4.324 2.964 6.035 4.675 1.375 1.371 2.543 2.852 3.48 4.446M432.922 354.145l-1.07-1.239c.937-1.605 2.113-3.101 3.5-4.484 1.64-1.641 3.574-3.133 5.757-4.5l1.086 1.144c-2.199 1.356-4.132 2.832-5.754 4.45-1.425 1.425-2.609 2.964-3.519 4.629M436.863 358.711l-1.066-1.238c.933-1.594 2.101-3.075 3.476-4.446 1.707-1.711 3.739-3.261 6.036-4.675l1.086 1.152c-2.313 1.398-4.344 2.93-6.028 4.617-1.418 1.414-2.594 2.942-3.504 4.59M428.445 348.969l-1.058-1.231a22.6 22.6 0 0 1 3.261-4.082c1.672-1.668 3.645-3.187 5.875-4.574l1.09 1.148c-2.246 1.372-4.222 2.872-5.875 4.52-1.304 1.309-2.414 2.711-3.293 4.219M444.73 358.441c-1.589 1.586-2.878 3.317-3.824 5.204a4 4 0 0 0-.636-1l-.364-.415c.977-1.761 2.235-3.382 3.731-4.882 1.668-1.664 3.633-3.184 5.867-4.571l.437.465c.25.266.485.473.707.649-2.265 1.382-4.253 2.89-5.918 4.55M427.813 340.469c-1.266 1.265-2.34 2.613-3.204 4.062l-.664-.769a7 7 0 0 0-.562-.188c.914-1.5 2.031-2.894 3.332-4.199 1.82-1.82 4.004-3.461 6.488-4.949-.16.215-.328.418-.492.629l.887.941c-2.211 1.359-4.157 2.844-5.785 4.473M310.133 611.746l.355.008h.008l.356-.008c2.734-.012 6.328-.035 8.546.297 1.165.176 2.004.516 2.61 1.086.625.598 1.074 1.5 1.426 2.773.3 1.082-.114 3.18-.387 4.551-.02.117-.043.231-.117.645-.34 1.828-.586 3.613-.293 5.019.39 1.875 1.511 3.043 3.968 2.891 2.715-.168 3.637-1.57 3.684-3.5.031-1.434-.566-3.094-1.152-4.617a35 35 0 0 0-1.008-2.383c-.434-.957-.672-1.496-.672-2.254.008-4.316 4.258-5.668 9.531-7.348l.223-.074a18.7 18.7 0 0 1 3.84-.801c1.469-.16 3.183-.207 5.457-.195q.666 0 1.226-.012c2.036-.039 3.2-.066 4.368 2.879.543 1.379.664 3.274.757 4.86l.055.828c.137 1.949 1.309 3.648 2.578 4.461.488.312 1.016.511 1.528.566.621.07 1.226-.055 1.753-.418.801-.547 1.344-1.586 1.356-3.246.012-2.305-.918-3.555-1.727-4.633h-.004c-.171-.23-.335-.449-.472-.676a45 45 0 0 0-.86-1.34c-.535-.816-.988-1.515-1.168-2.003q-.21-.598-.222-.973c-.008-.16.008-.258.039-.305.008-.015.043-.031.09-.051a1.1 1.1 0 0 1 .363-.058c.656-.024 1.176.172 1.621.562.551.489 1.055 1.293 1.574 2.364 2.571 5.273 4.989 9.265 6.989 12.582a208 208 0 0 1 2.32 3.894c.875 1.555 1.594 2.926 2.074 4.41.469 1.457.723 3.059.676 5.118-.039 2.035-1.086 3.804-2.606 5.109v.004c-1.75 1.508-4.105 2.398-6.293 2.394-4.043 0-6.425-2.515-7.839-5.789-1.532-3.535-1.985-7.961-2.133-11.312-.242-5.196-1.028-8.59-2.446-10.738-1.558-2.383-3.757-3.247-6.687-3.247h-.219c-3.304.043-5.859 1.067-7.601 2.571-1.828 1.574-2.77 3.679-2.77 5.773v.09399999999999999c.039 2.902 1.852 5.687 3.832 8.746 2.192 3.383 4.625 7.121 4.61 11.258-.016 4-1.473 6.777-3.602 8.64-2.859 2.493-6.938 3.422-10.422 3.442-3.754.019-6.672-1.172-8.652-3.281-2.086-2.219-3.199-5.485-3.235-9.454-.015-2.222 1.188-4.55 2.332-6.757 1.161-2.239 2.258-4.36 2.254-6.524-.007-2.453-1.261-4.98-2.988-6.929-1.863-2.11-4.352-3.59-6.465-3.59s-4.597 1.48-6.469 3.59c-1.718 1.949-2.972 4.476-2.984 6.929-.008 2.164 1.094 4.285 2.25 6.524 1.145 2.203 2.356 4.535 2.336 6.757-.035 3.969-1.148 7.235-3.238 9.454-1.981 2.109-4.891 3.3-8.653 3.281-3.48-.02-7.562-.949-10.414-3.442-2.129-1.863-3.59-4.64-3.601-8.64-.016-4.137 2.414-7.875 4.605-11.258 1.985-3.059 3.797-5.844 3.828-8.746v-.094c0-2.094-.933-4.199-2.761-5.773-1.743-1.504-4.297-2.528-7.602-2.571h-.22300000000000003c-2.925 0-5.125.864-6.691 3.247-1.41 2.148-2.199 5.542-2.437 10.738-.153 3.351-.606 7.777-2.133 11.312-1.418 3.274-3.801 5.789-7.844 5.789-2.188.004-4.539-.886-6.297-2.394v-.004c-1.516-1.305-2.559-3.074-2.601-5.109-.047-2.059.203-3.661.675-5.118.481-1.484 1.203-2.855 2.075-4.41.601-1.051 1.417-2.41 2.316-3.894 2.008-3.317 4.426-7.309 6.988-12.582.524-1.071 1.024-1.875 1.582-2.364.446-.39.961-.586 1.621-.562.141 0 .262.023.36.058.05.016.078.036.09.051.027.047.046.145.039.305q-.006.375-.227.973c-.176.488-.633 1.187-1.16 2.003-.262.387-.531.809-.859 1.34-.137.227-.305.446-.481.676h-.004c-.801 1.078-1.734 2.328-1.719 4.633.008 1.656.551 2.699 1.352 3.246.527.363 1.129.488 1.754.418.512-.055 1.035-.254 1.527-.566 1.27-.813 2.442-2.512 2.578-4.461l.055-.828c.098-1.586.215-3.481.762-4.86 1.168-2.945 2.328-2.918 4.359-2.879.383.008.781.012 1.231.012 2.269-.012 3.992.035 5.461.195 1.417.153 2.597.407 3.835.801l.227.074c5.273 1.68 9.52 3.032 9.531 7.348 0 .758-.246 1.297-.676 2.254-.261.574-.585 1.281-1.003 2.383-.586 1.523-1.188 3.183-1.161 4.617.047 1.93.973 3.332 3.688 3.5 2.457.152 3.582-1.016 3.973-2.891.293-1.406.043-3.191-.293-5.019a14 14 0 0 0-.125-.645c-.27-1.371-.684-3.469-.379-4.551.351-1.273.797-2.175 1.425-2.773.606-.57 1.442-.91 2.602-1.086 2.227-.332 5.82-.309 8.551-.297m.359-45.539c-9.48.004-17.847.613-25.012 1.875-7.253 1.273-13.316 3.219-18.117 5.867-2.027 1.117-4.258 2.418-6.086 3.949-1.964 1.653-3.461 3.571-3.789 5.84l-2.179 15.305-5.352.453-.547.051-.355.414c-9.684 11.234-16.121 18.707-20.125 24.633-4.141 6.133-5.739 10.676-5.614 15.929v.016l.008.234v.012c.274 6.387 5.043 11.871 12.887 15.641 7.559 3.633 18.043 5.691 30.059 5.414h.003q.546-.012 1.067-.035c2.578 4.172 6.5 6.902 11.465 8.246 4.957 1.34 10.957 1.281 17.683-.106 1.016 2.891 2.711 5.274 4.903 7 2.492 1.953 5.613 3.047 9.101 3.055 3.488-.008 6.613-1.102 9.102-3.055 2.187-1.726 3.883-4.109 4.898-7 6.735 1.387 12.731 1.446 17.688.106 4.968-1.344 8.89-4.074 11.468-8.246.344.015.7.027 1.059.035h.004c12.023.277 22.508-1.781 30.062-5.414 7.84-3.77 12.614-9.25 12.887-15.641v-.012l.012-.234v-.016c.121-5.253-1.477-9.796-5.617-15.929-4.004-5.926-10.438-13.399-20.121-24.633l-.364-.414-.547-.051-5.343-.453-2.188-15.305c-.324-2.269-1.816-4.187-3.785-5.84-1.824-1.531-4.059-2.832-6.09-3.949-4.793-2.648-10.863-4.594-18.113-5.867-7.164-1.262-15.531-1.871-25.012-1.875" style="fill:#000;fill-opacity:1;fill-rule:nonzero;stroke:none" transform="matrix(.13333 0 0 -.13333 0 90.667)"></path><path d="M369.84 626.465c-2.285-4.051-5.621-8.934-9.266-16.414-1.179-2.434-2.39-3.758-4.457-3.684-1.39.055-2.289.969-1.476 3.192.339.949 1.242 2.132 2.136 3.589.703 1.145 2.024 2.207 2.008 4.602-.031 4.324-4.289 1.957-4.527-1.449-.133-1.824-.176-4.246-.914-6.094-1.723-4.355-3.438-3.691-6.828-3.715-4.668-.027-7.043.211-9.715 1.063-5.895 1.879-10.68 3.34-10.688 8.699-.004 1.609.66 2.223 1.77 5.113 1.078 2.805 2.215 6.074-1.356 6.301-3.203.199-2.898-2.949-2.281-6.328.262-1.399.93-4.188.484-5.793-.839-3.027-2.246-4.402-5.136-4.832-2.399-.363-6.278-.324-9.102-.305-2.82-.019-6.703-.058-9.105.305-2.887.43-4.293 1.805-5.133 4.832-.441 1.605.226 4.394.48 5.793.625 3.379.926 6.527-2.277 6.328-3.566-.227-2.43-3.496-1.355-6.301 1.113-2.89 1.777-3.504 1.769-5.113-.008-5.359-4.793-6.82-10.691-8.699-2.664-.852-5.039-1.09-9.707-1.063-3.395.024-5.11-.64-6.836 3.715-.735 1.848-.778 4.27-.907 6.094-.246 3.406-4.503 5.773-4.527 1.449-.019-2.395 1.305-3.457 2.008-4.602.891-1.457 1.797-2.64 2.137-3.589.808-2.223-.086-3.137-1.481-3.192-2.062-.074-3.273 1.25-4.461 3.684-3.636 7.48-6.972 12.363-9.258 16.414-1.835 3.254-3.023 5.754-2.929 10.211.109 5.203 5.504 8.82 10.242 8.816 9.422-.004 11.004-11.457 11.32-18.383.453-9.886 2.856-12.699 7.785-12.699 6.09-.004 9.289 3.582 9.247 7.074-.071 5.598-8.469 11.801-8.438 20.024.031 10.246 8.727 13.387 15.355 13.422 8.465.047 13.161-5.59 13.239-14.063.043-4.847-4.602-9.402-4.586-13.293.015-4.34 4.762-9.172 8.109-9.172s8.094 4.832 8.113 9.172c.008 3.891-4.628 8.446-4.585 13.293.074 8.473 4.769 14.11 13.23 14.063 6.633-.035 15.328-3.176 15.363-13.422.028-8.223-8.371-14.426-8.437-20.024-.051-3.492 3.152-7.078 9.242-7.074 4.926 0 7.328 2.813 7.789 12.699.316 6.926 1.898 18.379 11.316 18.383 4.743.004 10.133-3.613 10.247-8.816.089-4.457-1.094-6.957-2.93-10.211m26.488 14.027c-.281 12.141-18.726 21.008-43.433 19.942-4.825 8.609-15.512 11.074-29.317 7.933-1.719 6.305-6.723 10.278-13.086 10.289-6.367-.011-11.367-3.984-13.086-10.289-13.808 3.141-24.496.676-29.316-7.933-24.707 1.066-43.149-7.801-43.434-19.942-.226-9.887 6.133-17.277 25.41-39.648l6.418-.547.356-2.496c9.539 3.996 18.219 6.75 26.398 8.558 9.575 2.114 18.465 2.934 27.254 2.922 8.789.012 17.676-.808 27.258-2.922 8.18-1.808 16.855-4.562 26.395-8.558l.351 2.496 6.422.547c19.277 22.371 25.641 29.761 25.41 39.648" style="fill:#cb9f2b;fill-opacity:1;fill-rule:nonzero;stroke:none" transform="matrix(.13333 0 0 -.13333 0 90.667)"></path><path d="M310.492 607.941c-8.695.004-17.488-.8-26.969-2.89-8.191-1.813-16.89-4.586-26.488-8.621l1.789-12.5a5.6 5.6 0 0 1 .586-1.789c10.348 4.75 18.621 7.722 26.102 9.55 8.75 2.133 16.398 2.696 24.98 2.684 8.578.012 16.231-.551 24.981-2.684 7.48-1.828 15.757-4.8 26.105-9.55.293.57.492 1.164.578 1.789l1.789 12.5c-9.59 4.035-18.297 6.808-26.484 8.621-9.477 2.09-18.273 2.894-26.969 2.89" style="fill:#cb9f2b;fill-opacity:1;fill-rule:nonzero;stroke:none" transform="matrix(.13333 0 0 -.13333 0 90.667)"></path><path d="M310.492 593.031c-8.48.008-16.035-.543-24.664-2.648-7.355-1.793-15.508-4.719-25.695-9.391 1.793-2.371 5.031-4.293 7.879-5.863 9.332-5.156 23.707-7.57 42.48-7.578 18.77.008 33.145 2.422 42.481 7.578 2.843 1.57 6.09 3.492 7.879 5.863-10.188 4.672-18.34 7.598-25.696 9.391-8.633 2.105-16.187 2.656-24.664 2.648" style="fill:#cb9f2b;fill-opacity:1;fill-rule:nonzero;stroke:none" transform="matrix(.13333 0 0 -.13333 0 90.667)"></path><path d="m426.402 48.262-.906-.016c-12.664-.266-22.152 2.36-32.219 5.152-.703.196-1.425.395-3.105.856l-.781.215c8.711 3.968 16.355 6.511 23.007 8.543l5.547-.32c5.36-.31 10.535-1.215 15.414-2.75 4.586-1.442 8.899-3.426 12.848-5.973-6.41-5.446-13.375-5.578-19.805-5.707m-195.586 5.992-3.113-.856c-10.062-2.793-19.555-5.418-32.215-5.152l-.902.016c-6.434.129-13.398.261-19.813 5.707 3.957 2.547 8.27 4.531 12.856 5.972 4.875 1.536 10.047 2.442 15.414 2.75l5.543.32c6.648-2.03 14.301-4.574 23.008-8.542zm390.086 26.371-.027.793-.035.926-.813.902-.441.5c-6.953 7.754-18.309 13.906-36.445 18.774-17.86 4.8-42.403 8.394-75.985 11.125l-2.504.199.348-2.492 1.566-11.34c-20.355 9.226-37.832 15.343-58.363 15.304-6.68-.007-11.801-.328-16.16-1.816-4.527-1.543-8.133-4.277-11.594-9.09l-33.812-47.066-1.27-1.762c-18.148 5.023-39.504 10.855-74.875 10.836-35.371.02-56.726-5.813-74.871-10.836l-1.269 1.762-33.817 47.066c-3.461 4.813-7.062 7.547-11.59 9.09-4.367 1.488-9.48 1.809-16.164 1.816-20.535.039-38.008-6.078-58.363-15.304l1.566 11.34.344 2.492-2.5-.199c-33.578-2.731-58.125-6.325-75.98-11.125C19.707 97.652 8.352 91.5 1.402 83.746l-.445-.5-.812-.902-.032-.926-.035-.793c-.433-11.324.98-21.055 4.352-29.254 3.418-8.297 8.812-14.988 16.3-20.148l.477-.328.574-.032c16.016-.785 29.438-.773 41.496.352 12.133 1.14 22.852 3.402 33.38 7.137 12.288 4.347 20.948 9.785 29.277 15.007 7.379 4.63 14.488 9.09 23.605 12.387 3.828 1.383 7.75 2.613 11.824 3.512l-.195-1.469c-1.297-9.879-1.563-20.52-.445-30.383 1.007-8.894 3.132-17.195 6.644-23.808 2.844-5.34 7.196-8.7 12.969-10.754C185.852.883 192.66.152 200.699.016c17.41-.297 26.836 3.597 37.793 8.129 14.145 5.847 30.922 12.785 72 12.66 41.074.125 57.86-6.813 72.004-12.66 10.949-4.532 20.379-8.426 37.793-8.13 8.035.137 14.848.868 20.359 2.829 5.774 2.054 10.129 5.414 12.965 10.754 3.516 6.613 5.645 14.914 6.653 23.808 1.113 9.864.843 20.504-.453 30.383l-.188 1.469c4.07-.899 7.988-2.13 11.82-3.512 9.121-3.297 16.231-7.758 23.61-12.387 8.324-5.222 16.988-10.66 29.277-15.007 10.523-3.735 21.242-5.996 33.371-7.137 12.063-1.125 25.485-1.137 41.5-.352l.57.032.481.328c7.488 5.16 12.887 11.851 16.301 20.148 3.371 8.2 4.789 17.93 4.347 29.254" style="fill:#000;fill-opacity:1;fill-rule:nonzero;stroke:none" transform="matrix(.13333 0 0 -.13333 0 90.667)"></path><path d="M425.535 46.23c-14.265-.3-24.484 2.958-35.894 6.079-19.121 5.226-40.891 12.109-79.149 12.09-38.262.019-60.023-6.864-79.148-12.09-11.406-3.121-21.633-6.38-35.895-6.078-10.742.23-23.051-.141-32.285 21.296-2.402-18.386-1.199-39.441 5.992-52.98 5.16-9.707 15.918-12.25 31.571-12.52 39.628-.675 37.14 21.016 109.765 20.79 72.629.226 70.133-21.465 109.766-20.79 15.648.27 26.414 2.813 31.574 12.52 7.191 13.539 8.395 34.594 5.984 52.98-9.226-21.437-21.539-21.066-32.281-21.296" style="fill:#cb9f2b;fill-opacity:1;fill-rule:nonzero;stroke:none" transform="matrix(.13333 0 0 -.13333 0 90.667)"></path><path d="M618.891 80.55c-11.543-5.03-23.793-7.738-38.239-7.816-13.351-.062-28.64 3.578-44.144 10.887-35.36 16.684-58.727 29.738-88.305 29.68-12.933-.02-19.73-1.184-26.117-10.071l-33.82-47.062c15.66 7.184 27.793 9.738 37.023 12.934 18.676 6.449 33.32 3.425 46.84-1.461 19.582-7.075 29.805-19.223 52.871-27.387 20.758-7.356 42.246-8.938 74.105-7.379 14.329 9.867 20.637 25.61 19.786 47.676M195.691 69.102c9.235-3.196 21.364-5.75 37.024-12.934l-33.813 47.062c-6.386 8.887-13.183 10.051-26.121 10.071-29.582.058-52.941-12.996-88.308-29.68-15.5-7.308-30.785-10.95-44.141-10.887-14.441.079-26.695 2.785-38.238 7.817-.848-22.067 5.46-37.809 19.785-47.676 31.86-1.559 53.352.023 74.105 7.379 23.071 8.164 33.289 20.312 52.868 27.387 13.519 4.886 28.168 7.91 46.839 1.46" style="fill:#cb9f2b;fill-opacity:1;fill-rule:nonzero;stroke:none" transform="matrix(.13333 0 0 -.13333 0 90.667)"></path><path d="m66.52 45.77-.73 5.343 7.214.98-.485 3.56-7.21-.981-.598 4.41 7.965 1.078-.485 3.563-11.66-1.582 2.77-20.43 11.664 1.582-.485 3.559zM490.895 96.074c-.243.707-.719 1.32-1.36 1.856-.652.547-1.484 1.015-2.422 1.43q-.557.25-1.16.44c-.402.134-.832.243-1.273.337q-.676.146-1.367.234c-.426.055-.864.094-1.305.121l-1.293-3.066c.414.039.824.062 1.219.074q.758.017 1.445-.043a10 10 0 0 0 1.285-.207 6.6 6.6 0 0 0 1.09-.36v-.003c.461-.207.851-.45 1.16-.735.316-.289.559-.617.715-.984a3.22 3.22 0 0 0-.113-2.797c-.403-.77-1.164-1.555-2.477-2.254l-10.785-5.754-.824-1.511 11.609-5.176 1.246 2.949-6.183 2.75-.375.164.363.195 6.613 3.567c1.539.824 3.055 2.246 3.883 3.992.676 1.422.898 3.066.309 4.781M87.008 56.742q-1.493 1.095-3.942 1.246l-1.734.125c-1.2.074-2.027.242-2.469.485-.449.242-.77.636-.949 1.175-.23.696-.18 1.313.152 1.836.332.532.922.934 1.782 1.22.773.253 1.597.355 2.488.312.883-.051 1.8-.235 2.758-.567l-1.25 3.774c-.942.136-1.856.168-2.754.097a10.6 10.6 0 0 1-2.574-.511c-1.82-.602-3.082-1.579-3.785-2.942-.708-1.355-.766-2.926-.18-4.695.46-1.383 1.137-2.375 2.043-2.985.902-.605 2.37-.988 4.398-1.136l1.98-.149c.696-.043 1.274-.242 1.739-.582q.701-.496.992-1.379c.258-.777.215-1.46-.121-2.05-.34-.598-.941-1.036-1.816-1.325q-1.297-.426-2.797-.332-1.507.103-3.29.735l1.325-4c.98-.184 1.965-.235 2.926-.172.972.062 1.898.238 2.793.539 2.156.71 3.613 1.734 4.359 3.062.746 1.332.79 2.98.137 4.957-.48 1.454-1.215 2.536-2.211 3.262M513.691 72.078h-.003l-.188-.222c-.309-.364-.758-.895-1.32-1.485-1.649-1.719-4.192-3.8-5.969-2.094-.707.676-.731 1.895-.426 3.211.77 3.239 3.285 6.586 6.192 8.246 1.203.688 2.437.875 3.488-.109.805-.758.914-1.816.683-2.902-.402-1.91-1.808-3.88-2.457-4.645m5.743 3.957c.453 2.145.16 4.317-1.668 6.035-2.418 2.278-5.024 1.977-7.453.586-1.723-.984-3.27-2.574-4.461-3.902-1.247-1.387-2.762-4.047-3.336-6.496-.567-2.395-.348-4.762 1.367-6.406 3.867-3.711 8.094-.547 10.726 2.195a36 36 0 0 1 1.45 1.637v-.004l.191.222v.004c.844.989 2.641 3.547 3.184 6.13M500.707 81.188l-.148-.254a28 28 0 0 0-1.032-1.696c-1.32-1.98-3.453-4.48-5.504-3.125-.808.543-1.058 1.735-.988 3.086.18 3.32 2.063 7.067 4.625 9.215 1.063.887 2.242 1.297 3.449.512.926-.602 1.219-1.625 1.192-2.735-.059-1.949-1.086-4.136-1.594-5.004m2.762-1.942h.004l.144.258h-.004c.657 1.125 1.969 3.957 2.039 6.601.067 2.188-.601 4.278-2.714 5.641-2.786 1.809-5.293 1.05-7.434-.75-1.524-1.273-2.766-3.113-3.695-4.633-.985-1.59-1.996-4.476-2.129-6.992-.129-2.453.508-4.742 2.488-6.058 4.465-2.965 8.062.902 10.16 4.07.445.664.856 1.383 1.141 1.863M527.477 62.168l-.004-.004-.145-.254c-.226-.41-.574-1.02-1.015-1.71-1.297-1.997-3.403-4.516-5.469-3.18-.821.53-1.078 1.718-1.02 3.074.141 3.324 1.985 7.09 4.524 9.262 1.047.902 2.222 1.324 3.441.554.938-.594 1.238-1.613 1.219-2.722-.031-1.95-1.039-4.153-1.531-5.02m4.89 4.965c.039 2.191-.656 4.273-2.781 5.617-2.805 1.777-5.305.988-7.43-.836-1.508-1.293-2.722-3.144-3.64-4.672-.961-1.597-1.946-4.5-2.051-7.015-.102-2.454.555-4.739 2.555-6.032 4.496-2.918 8.05.996 10.117 4.184.433.676.84 1.39 1.113 1.879h.004l.144.254h-.003c.644 1.133 1.925 3.98 1.972 6.62M101.484 71.106l-1.429 2.921-14.844-7.242 1.426-2.922 5.57 2.715 7.504-15.394 3.262 1.59-7.524 15.39zM108.355 59.031l1.801-2.578 2.481 1.738-1.809 2.575zM369.48 41.633c-2.578-2.156-4.187-5.102-4.832-8.852-.503-2.914-.324-5.246.547-7 .879-1.742 2.27-2.785 4.176-3.113 1.984-.344 3.926.023 5.809 1.098q2.842 1.61 3.09 3.043.082.462-.165.504l-.464-.528c-.637-.73-1.567-1.387-2.778-1.95q-1.811-.867-3.57-.558-2.295.398-3.465 2.793-1.145 2.402-.461 6.368.794 4.574 3.309 7.331c1.683 1.837 3.676 2.555 5.988 2.157 1.055-.184 1.934-.613 2.629-1.27q1.052-1.007.887-1.972c-.059-.328-.176-.598-.352-.801l.313-.055c.254-.043.484.094.699.41.223.325.433.64.64.942l1.239 2.03c-1.352.93-2.938 1.556-4.75 1.868-3.082.531-5.914-.277-8.489-2.445M259.148 32.055c-.734-1.356-2.218-2.27-4.429-2.743-1.684-.359-3.531-.605-5.574-.742q1.083 1.225 1.406 1.782c.301.488.465 1.015.504 1.578.05.644-.016 1.73-.188 3.27l-1.394 12.316.593.125q3.948.843 6.688-.575c1.82-.945 3.019-2.78 3.605-5.523q1.095-5.104-1.211-9.488m-7.886 17.254c-3.891-.832-6.711-2.278-8.469-4.348-1.758-2.055-2.305-4.613-1.645-7.688.204-.972.461-1.742.766-2.289l1.695 2.852a6.3 6.3 0 0 0-1.214 2.61c-.29 1.35.015 2.585.925 3.714.899 1.121 2.239 1.961 4 2.524l1.512-13.286c.172-1.5.195-2.57.074-3.226-.105-.516-.383-1.07-.832-1.672q-1.148-.047-2.062.121l-1.371-2.648q3.468.074 7.218.882c4.368.934 7.426 3.028 9.2 6.286 1.773 3.27 2.269 6.726 1.492 10.378-1.121 5.231-4.879 7.16-11.289 5.79M365.406 43.594l1.496 2.734a83 83 0 0 0-4.976.613l-4.86.79c-3.121.5-5.644.023-7.578-1.43q-2.899-2.179-3.508-5.934c-.16-.988-.183-1.855-.078-2.613l2.555 2.086c-.305.797-.352 1.793-.156 3.004.199 1.234.847 2.207 1.953 2.898q1.664 1.06 4.184.649l.683-.106-3.234-12.281c-.653-2.461-1.582-4.016-2.805-4.656l-1.461.425-2.039-1.671 6.277-1.383 1.93 1.562-3.644.828a4.64 4.64 0 0 1 2.296 1.211c.68.633 1.254 1.82 1.735 3.563l.586 2.23q3.17-.791 4.101-.937c.578-.098 1.117 0 1.606.285.492.281 1.113.77 1.867 1.457-.898-.031-2.16.074-3.789.34l-3.344.539 2.145 8.125 1.953-.317 1.168-.183c1.687-.278 2.734-.574 3.125-.89.406-.313.562-.747.472-1.294a3.6 3.6 0 0 0-.355-1.094c.027-.054.117-.082.266-.109.378-.062.859.453 1.429 1.559M275.879 40.918a7 7 0 0 0-1.422-.012l-.18 10.18q5.474.627 6.043-4.313.61-5.27-4.441-5.855m-.852 11.684c-3.675-.422-6.367-1.72-8.074-3.875-1.695-2.157-2.39-4.516-2.098-7.082.106-.922.309-1.708.618-2.36l1.894 2.512c-.488.652-.797 1.5-.914 2.527q-.487 4.26 5.582 6.313l.215-11.813c.035-2.144-.055-3.683-.258-4.594-.199-.914-.597-1.69-1.203-2.332l-1.559.012-1.464-2.164 6.199.352 1.426 2.027-3.504-.184c.625.399 1.258.993 1.89 1.782q.809.95.715 5.562c2.184.258 4.102 1.258 5.742 2.988 1.641 1.75 2.34 3.711 2.086 5.891-.402 3.477-2.828 4.957-7.293 4.438M308.246 33.7q-.89-.036-1.219.632c-.218.441-.351 1.383-.406 2.816-.117 3.04-.168 5.774-.141 8.204.059 5.757.868 5.941 3.333 6.004l2.292 2.43c-5.738-.013-7.015-.583-7.527-1.712a309 309 0 0 0-2.715-6.566 423 423 0 0 0-3.656-8.067c-.59 1.97-1.269 4.04-2.047 6.207q-2.268 6.258-2.355 8.649l-.028.61q-.903.057-1.742.023c-2.445-.102-4.461-1.055-6.043-2.848-1.578-1.8-2.32-3.992-2.222-6.59.039-.957.168-1.805.386-2.535l2.02 2.566a7 7 0 0 0-.711 2.832q-.164 4.285 5.238 4.508l.742.035-1.207-11.203q-.303-2.872-.566-3.898c-.274-1.094-.711-1.906-1.32-2.43l-1.45.102-1.621-2.051 5.637-.125 1.602 1.922-3.325.191q.98.877 1.215 1.168c.602.742 1.035 2.469 1.293 5.168l.863 8.309c.106-.68.387-1.696.852-3.032q.345-1 1.383-3.718c1.316-3.465 2.101-6.274 2.367-8.407l1.715 2.415q.745 2.7 2.504 6.761c1.136 2.61 2.211 4.739 3.222 6.407q-.345-6.09-.062-13.375.057-1.454.203-3.493c1.367.418 2.59.762 3.652 1.043 1.063.285 1.582.66 1.563 1.098 0 .102-.055.227-.141.355-.554-.242-1.086-.378-1.578-.406M333.215 52.398a330 330 0 0 0-3.328-6.285 477 477 0 0 0-4.414-7.675q-.598 3.024-1.442 6.37c-1.109 4.301-1.613 7.243-1.527 8.829l.035.617c-.598.098-1.172.16-1.734.187-2.442.133-4.539-.625-6.285-2.254-1.743-1.64-2.688-3.753-2.84-6.351q-.082-1.436.14-2.555l2.262 2.363a6.9 6.9 0 0 0-.437 2.887c.16 2.848 2.039 4.18 5.636 3.985l.746-.04-2.269-11.035q-.586-2.83-.938-3.828c-.379-1.066-.89-1.828-1.547-2.285l-1.429.23-1.813-1.886 5.602-.66 1.777 1.757-3.297.508c.707.524 1.153.871 1.328 1.051.664.684 1.258 2.36 1.782 5.02l1.644 8.187c.039-.687.227-1.723.559-3.098.168-.683.512-1.964 1.023-3.835.981-3.575 1.496-6.442 1.555-8.594l1.937 2.242q.996 2.614 3.141 6.488c1.383 2.489 2.652 4.504 3.816 6.067q-.92-6.024-1.335-13.301a105 105 0 0 1-.133-3.492 105 105 0 0 0 3.73.683c1.09.188 1.641.504 1.664.942a.67.67 0 0 1-.105.367q-.862-.287-1.614-.25c-.589.035-.972.277-1.152.742-.176.465-.219 1.41-.137 2.848.172 3.031.395 5.758.649 8.18.601 5.722 1.43 5.828 3.89 5.66l2.512 2.191c-5.711.543-7.039.094-7.652-.977" style="fill:#000;fill-opacity:1;fill-rule:nonzero;stroke:none" transform="matrix(.13333 0 0 -.13333 0 90.667)"></path><path d="m506.996 111.625 1.742-12.605c5.344-2.454 10.891-5.11 16.75-7.915 3.52-1.68 7.164-3.43 11.883-5.656 7.555-3.562 15.063-6.238 22.293-8.027 7.352-1.813 14.414-2.703 20.981-2.672 7.074.035 13.617.719 19.804 2.008 6.172 1.289 11.992 3.183 17.637 5.644-13.375 14.918-44.176 23.793-111.09 29.223M2.898 82.402c5.645-2.46 11.465-4.355 17.637-5.644 6.188-1.29 12.73-1.973 19.8-2.008 6.571-.031 13.634.86 20.985 2.672 7.235 1.789 14.735 4.465 22.293 8.027 4.723 2.227 8.364 3.977 11.88 5.656 5.862 2.805 11.409 5.461 16.753 7.914l1.742 12.606c-66.914-5.43-97.715-14.305-111.09-29.223M425.945 67.195c-2.55-.882-5.129-1.664-7.894-2.488 10.949-.629 21.113-3.691 29.683-9.324 2.914 2.918 5.696 7.058 8.227 12.945l.656 1.52c-2 .347-4.035.613-6.113.761-7.445.543-15.516-.289-24.559-3.414M170.484 70.61a61 61 0 0 1-6.121-.762l.66-1.52c2.532-5.887 5.309-10.027 8.223-12.945 8.574 5.633 18.734 8.695 29.684 9.324-2.766.824-5.34 1.606-7.891 2.488-9.043 3.125-17.109 3.957-24.555 3.414" style="fill:#cecacf;fill-opacity:1;fill-rule:nonzero;stroke:none" transform="matrix(.13333 0 0 -.13333 0 90.667)" data-source="https://football-logos.cc"></path><!-- source: https://football-logos.cc --></svg>