<svg xmlns="http://www.w3.org/2000/svg" viewBox="349 250 1350 1550"><!-- Source: https://football-logos.cc --><path fill="#15442A" d="M940 250h26l24 3 25 6 6 2 9-1 17-5 24-4 11-1h25l26 3 25 6 25 9 24 11 25 14h54l76 5h27l21-3 12-4 13-7 7-6 6-9h3l9 30 7 27 6 31 3 24 1 38 7 14 14 20 13 15 14 13 17 12 16 9 17 8 27 9 49 11 12 6 9 7 8 8 7 11 5 12 3 21 3 45 1 27v73l-2 46-4 48-4 36-7 47-7 38-10 47-11 44-12 41-16 49-12 33-16 40-15 34-16 34-11 22-10 19-10 18-3 6 36 15 13 7 9 9 6 12 2 9-1 12-4 16 9 2 41 13 21 8 11 7 7 7 7 14 2 8v12l-3 12-4 8-11 12-17 14-11 9-16 13-7 6v15l4 97v15l-3 11-6 11-4 5-10 7-12 5-5 1h-15l-14-5-43-19-45-19-43-17-30-11-14-5-10-7-7-8-4-8-3-12 1-14 1-6-22-6-5 2-16 16-8 7-11 10-11 9-11 10-25 20-13 10-12 9-18 13-25 17-20 13-28 17-23 13-28 15-32 16-15 5-8 1h-17l-14-4-25-12-20-10-22-12-26-15-26-16-33-22-14-10-19-14-13-10-14-11-17-14-14-12-10-9-8-7-12-11-15-14-7 1-17 5h-2l3 9v14l-4 13-8 11-8 6-12 5-44 16-37 15-26 11-28 12-27 12-16 6-4 1h-16l-11-4-10-6-7-7-5-8-4-11v-32l4-93v-6l-34-28-11-9-13-11-7-10-4-11-1-6v-9l4-15 7-11 9-8 12-6 44-15 22-7-4-16v-14l3-10 6-10 7-7 16-8 19-8 13-5h2l-7-14-9-16-15-29-9-19-8-16-13-29-16-39-13-35-13-37-14-47-10-36-13-57-8-43-7-45-5-42-4-44-2-36V643l3-44 2-18 4-14 8-14 10-11 10-7 11-5 10-3 26-5 22-6 19-7 23-11 16-10 11-9 10-9 10-10 13-17 11-18 3-8v-30l3-28 6-31 6-24 10-34 2-2 8 10 8 7 16 8 19 4 11 1h29l73-5h53l8-4 14-8 16-8 19-8 21-7 22-5z" data-source="https://football-logos.cc"></path><path fill="#fff" d="m943 292 21 1 27 4 19 5 11 4h6l14-5 20-5 21-3 15-1 27 2 22 4 21 6 18 7 27 13 23 14 18 13 9 7 3 1-3-18 4-1 13-1h14l26 3 22 4 9 1h35l25-5 21-7h4l5 18 3 20v19l-3 18-6 18-7 13-8 11-11 12-13 11-11 7-5 2 2-6 6-12 6-19 4-21 1-16 2-6 10-16 5-12-4 2-18 10-14 6-5 1h-24l-39-3-20-3-5-5-5-10h-2v13l2 16 6 21 7 16 10 19 12 18 10 13 11 13 16 17 15 14 14 11 17 13 17 11 15 10 13 10 10 9 13 13 11 15 8 14 7 19 3 15v10l-4-2-7-8-12-11-11-9-4-3 1 9 7 36 5 41 1 18v32l-2 26-5 30-7 27-7 20-8 18-3-1-8-11-9-11-6-7-5-67-1-21-8 43-7 25-7 20-11 25-8 16-9 17-14 23-14 21-13 18-9 12-14 18-3 2-8-11-9-10-13-12-15-11-16-10h-5l-2 4-10 11-7 8-9 10-9 11-4 4-1 7 1 10v21l-3 19-5 17-9 17-8 10-7 8-11 9-15 10-19 9-27 9-27 6-26 4h-12l-27-4-23-5-23-7-21-9-17-10-13-11-10-10-10-15-6-13-4-13-3-16v-42l-9-10-9-11-14-15-9-11-2-2-5 1-16 10-16 12-15 14-9 12-3 5-6-5-11-14-14-19-10-14-15-23-9-15-12-22-14-29-11-29-7-25-6-31-1-15h-2v12l-5 72-2 7-11 12-9 13-2 3-3-1-10-24-7-22-5-21-4-24-2-21v-51l3-31 6-36 5-25-7 4-14 12-10 9-7 9h-1l1-15 4-17 6-15 8-14 9-12 12-13 13-12 18-13 19-12 17-12 13-10 12-11 8-7 20-20 9-11 13-17 11-17 14-27 7-21 3-16 1-22h-2l-8 16-9 2-26 3-32 2h-19l-16-6-17-9-8-6 7 16 7 12 3 5 2 24 6 25 8 20 4 8-5-1-14-10-12-11-9-9-10-15-7-14-5-16-3-20v-11l3-21 5-20 4-1 18 6 20 5 8 1h35l44-7 12-1h15l13 1 4 1-2 18 14-10 19-13 20-12 17-9 25-10 19-6 25-5z"></path><path fill="#15452B" d="m812 503 13 1 15 3 26 8 43 14 21 5 5 1h25l8-1-6 11-12 18-12 16-11 13-12 14-21 21-8 7-14 15-9 11-12 16-13 21-10 19-9 21-2 7 1 5 24 24 7 8 11 13 7 9 46 4 20 1 48-1 10-4 8-7 6-10 4-12-6-2-27-16-16-11-14-11-13-12-7-7-11-15-6-13-3-16v-12l3-14 4-10 7-11 5-6h2v-2l11-8h3l-1 5-4 10-2 10 1 10 4 11 8 11 10 6 10 3 21 2 18 1h35l30-2 17-3 11-6 8-9 4-8 2-8v-10l-3-12-4-11h4l8 7 10 10 9 16 3 8 1 6v21l-4 15-7 13-8 10-11 12-8 7-14 11-13 9-21 13-15 8h-2l6 15 7 10 9 6 6 2h67l48-4 9-12 11-12 9-11 4-4h2l2-4 10-10 3-2-2-9-11-26-10-19-18-27-14-17-9-10-21-21-7-6-7-8-12-13-8-10-14-18-11-17-7-11v-3l7 2h24l23-5 26-8 37-12 18-5 13-2 16 1 16 4 16 8 3 3-2 5-8 11-15 26-12 24-6 13-24 9-17 9-10 7 15 12 10 9 6 5 7 8 10 12 14 21 12 22 9 20 6-2 8-4 7-3v-15l-3-29-6-34-3-12v-3l5 2 14 12 9 11 12 17 9 15 14 27 9 20 5 14-12 5-29 14-20 11-16 11-13 10-13 11-14 13-18 22-9 13-11 18-12 25-8 23-6 21-5 25-4 33-3 53-3 12-8 9-10 6-16 6-21 5-23 3-41 2-6 3-8 7-4-2-10-7-3-1-40-2-18-2-24-5-19-7-10-7-8-9-2-7-2-31-3-42-5-30-6-26-9-26-9-20-9-17-12-18-10-13-11-13-15-15-11-9-17-13-19-12-24-13-22-10-9-4 1-5 11-26 13-26 12-20 13-18 14-15 10-8h2l-1 10-5 23-4 28-3 33 10 3 13 6 3-9 11-23 11-18 10-14 8-10 11-12 7-7 11-9 10-7 1-2-5-2-13-8-14-7-18-6-5-8-15-31-12-21-8-12-4-5 1-5 14-8 13-4z"></path><path fill="#00A059" d="m602 492 5 3 9 9 9 7-1 4-8 7-25 25-7 8-11 13-13 17-12 18-9 16-11 23-7 19-6 22-4 26-1 13v18l3 34 2 1 2-6 7-11 7-9 6-5v17l-1 19v29l2 26 3 22 6 26 9 25 9 19 14 21 9 11 15 15 18 13 2 1v-11l3-27 4-24 3-12 3-1 11 29 11 26 14 27 12 19 12 16 9 11 20 20 13 10 16 10 17 9 13 5-1-2-1-14 2-15 6-15 10-13 10-9 7-4h2v10l-1 8v24l3 22 4 16 6 16 9 17 8 11 12 14 13 11 14 9 16 8 14 6 14 5v2h-99l-9 3-8 7-4 7-1 4v11l5 10 6 7v7l-6 2-62 12-44 10-46 12-41 12-31 10-10 3h-3l-16-28-17-33-17-34-16-36-11-27-15-40-13-38-14-47-11-43-6-26-5-23-8-47-6-42-5-49-3-50v-98l2-43 2-22 7-2 29-6 29-9 20-8 21-10 18-11 14-10 11-9 12-11 13-13zM1443 493l4 1 8 10 26 26 17 13 16 10 18 10 23 10 30 10 30 7 12 3 2 3 3 43 1 24v82l-1 28-5 59-4 34-8 52-8 41-9 40-9 35-14 47-15 44-7 19-13 33-10 23-13 29-28 56-12 21-7 13-10-2-34-11-41-12-43-11-38-9-49-10-1-4 6-20 1-5v-14l-5-10-7-6-9-3h-127l3-2 19-7 18-8 11-6 10-7 10-8 7-6 7-8 10-14 8-15 7-19 5-22 1-8v-34l-1-15 5 1 12 9 9 10 8 16 2 7 1 9v12l-1 8 18-8 17-9 20-14 11-10 7-6 7-8 10-12 12-17 8-13 12-22 13-29 12-33h3l4 14 4 25 3 34 14-9 11-9 12-12 10-13 9-14 8-15 9-23 7-26 4-24 2-21v-42l-1-35 4 2 7 8 10 16 4 4 2-27v-27l-2-22-5-24-6-20-8-20-13-25-16-24-13-17-9-10-12-14-26-26-5-4 2-4 11-9z"></path><path fill="#F5CC16" d="M814 1272h3l-4 17-3 11-4 3-29 6-50 11-40 10-52 15-55 18-25 9-31 12-31 13-2 1 3 11 19 65 21 72 16 55 1 6 25-11 40-15 30-10 34-10 56-14 49-10 51-8 50-6 49-4 48-2 49-1 59 2 35 2 44 4 48 6 43 7 36 7 44 10 40 11 35 11 24 8 36 14 18 8h2l22-75 14-48 18-62 7-24-10-3-34-14-35-13-31-11-55-17-24-7-56-14-46-10-25-5-5-4-7-8-8-4-60-1-8-1v-5l2-2 82-1 3-2h10l41 8 40 9 43 11 48 14 41 13 20 7 35 13 30 12 23 10 8 6 5 9 1 3v16l-5 19-19 64-25 85-12 41-5 10-8 7-11 4h-8l-21-8-27-11-30-11-22-7-33-10-44-11-32-7-38-7-38-6-61-7-61-4-23-1h-78l-57 3-35 3-43 5-40 6-35 6-51 11-38 10-39 12-35 12-28 11-21 9-7 2h-8l-11-4-7-6-5-10-18-61-12-41-14-48-12-41-6-21v-14l5-10 8-7 17-8 43-17 24-9 35-12 41-13 50-14 49-12 48-10z"></path><path fill="#00A059" d="m1019 1557 53 1 41 2 57 5 46 6 38 6 4 2-15 14-11 9-13 11-17 13-21 16-32 22-22 14-18 11-29 17-26 14-22 11-7 3-7-1-16-8-19-10-23-13-26-15-22-14-15-10-19-13-14-10-16-12-13-10-16-13-26-22-4-4 5-2 46-7 49-6 51-4 43-2z"></path><path fill="#16432A" d="m1537 825 2 1 5 45 2 50-2 40-3 27-4 25-7 31-8 27-9 25-12 26-16 31-11 17-10 15-9 12-11 14-13 15-9 10-14 15-17 16-3 3-9-2-49-16-47-15-16-5 1-3 25-16 23-16 17-13 10-8 11-9 14-12 7-7 8-7 18-18 7-8 11-12 7-9 11-14 13-18 10-15 9-15 9-16 12-23 12-28 9-24 10-34 7-30 5-26 3-23zM510 826l2 3 2 19 5 27 5 23 9 32 10 29 11 26 12 25 11 20 13 21 13 19 10 13 11 14 13 15 12 13 26 26 8 7 10 9 11 9 14 11 12 9 20 14 31 20-1 2-100 32-16 5h-5l-14-13-7-8-20-20-9-11-11-13-13-18-10-14-12-20-10-18-12-24-11-27-11-34-7-28-6-36-3-31-1-18v-36l2-32 4-38z"></path><path fill="#F5CC16" d="m1469 452 4 4 6 9 9 11 19 19 17 13 13 8 23 12 24 9 21 6 29 6 13 4 10 6 8 9 5 11 3 19 3 44 1 25v75l-2 38-3 41-4 37-7 49-6 35-7 34-10 43-10 37-12 40-16 47-14 37-13 31-13 29-14 29-16 32-13 23-5 9-3 1-19-7 1-5 9-16 10-18 8-16 9-17 13-28 13-29 13-32 15-40 12-36 10-32 9-32 10-41 9-43 7-40 7-49 4-37 3-40 1-19 1-37v-32l-2-56-3-38-3-11-4-6-9-4-31-7-23-6-25-9-17-8-19-11-14-10-10-8-15-13-1-3h-2l-7-8-11-14 1-4 7-14zM578 452l3 3 4 10 4 9-2 5-9 11-7 7-7 8-11 10-16 12-18 11-16 8-18 8-27 9-47 11-8 6-3 7-3 28-2 31-1 21v72l2 46 4 47 7 54 8 48 8 40 13 54 16 55 14 42 14 37 11 27 10 23 15 33 9 19 10 19 14 26 8 14v4l-16 6h-5l-10-17-18-34-12-24-13-28-13-30-12-30-11-29-16-47-8-26-10-36-10-40-9-43-6-34-6-38-6-52-4-53-1-27v-82l2-44 3-35 4-11 6-9 10-9 9-4 38-8 26-8 20-8 20-10 18-12 14-11 21-21 11-14zM760 1584l5 1 13 12 11 9 10 9 14 11 12 10 20 15 19 14 23 16 16 10 19 12 15 9 16 9 22 12 27 14 19 8 9-1 25-12 29-15 23-13 25-15 25-16 16-11 20-14 21-16 13-10 16-13 13-11 14-12 13-12 9 1 18 4v3l-12 11-8 7-13 12-11 9-13 11-14 11-13 10-16 12-17 12-36 24-26 16-21 12-18 10-29 15-23 11-11 3h-10l-9-2-20-9-28-14-23-13-18-10-16-10-21-13-25-17-17-12-19-14-13-10-16-13-11-9-14-12-13-12-11-9-8-8 2-2zM455 1436l4 2 5 17v5l-36 12-26 9-6 4 1 6 11 10 33 27 10 8 13 11 2 2v14l-1 18-2 54-1 16-1 25v13l1 4h8l60-26 43-18 44-17 30-11 2-7 18-6 5 1 2 7-1 13-5 8-5 5-10 5-34 12-28 11-27 11-45 19-29 13-15 6-4 1h-9l-11-4-6-4-6-7-4-12v-17l4-91v-25l-33-27-16-13-12-10-6-9-2-6v-15l4-9 7-8 7-5 28-10zM1589 1436l6 1 30 9 32 11 10 6 6 7 4 9v18l-5 10-8 8-20 16-12 10-14 11-8 7h-2l1 47 3 59v30l-3 9-9 10-7 4-8 2-13-1-15-6-31-14-31-13-29-12-33-13-36-13-12-5-8-9-3-10v-11l2-5 7 1 14 4 2 2 2 6 19 7 47 18 36 15 26 11 34 15 15 6h6l2-3 1-17-1-7-2-50-3-61v-6l9-8 10-8 17-14 11-9 17-14 7-8-1-4-8-4-42-14-18-5v-6z"></path><path fill="#fff" d="m703 1401 3 1 17 63 5 18v4l-36 8-3-6-14-52-9 1-10 2 15 55v5l-24 7-7 2h-5l-7-24-9-33-6 1-11 3-1 3 13 52v6l-31 11h-3l-15-52-6-21-6-2-11-3-1-2 40-14 34-11 44-12zM1019 1579h10l12 2 5 6 6 13 19 3 5 5 5 10 4 17-1 6-13 12v7l2 14-4 7-9 8-10 6-4 2h-6l-15-8-7 2-10 6h-6l-13-7-12-11-2-3v-8l2-9-1-6-13-13v-8l4-15 5-10 5-4 18-3 9-17 7-3z"></path><path fill="#14482C" d="M913 394h23l22 2 22 5 15 5 21 10 5 4h5l7-5 19-9 21-7 22-4 11-1h31l25 3 23 5 16 5 7 3-1 2-35 2-30 4-32 7-27 9-18 8-19 10-17 11-4 3-5-2-17-11-22-12-25-10-23-7-28-6-29-4-11-1-26-1v-2l12-5 23-6 25-4z"></path><path fill="#fff" d="M1020 828h7l15 6 16 4 8 1 95 1v11l-3 19-7 21-8 14-8 10-6 6h-3l-8-32-7-19-8-15-4-5-4 2-17 17-4-1-9-14-1-3-3 1-7 11-4 5-4-1-5-8-4-8v-2l-10 6h-6l-8-4v-2h-3l-1 6-7 12-4 1-9-11-3-5v-2h-3l-1 5-9 14-4-1-13-12-5-6-4 2-7 11-7 16-5 15-6 27h-3l-10-10-10-15-7-17-4-17-1-6v-16l95-1 16-3 18-6z"></path><path fill="#F5CC16" d="M1081 1228h156l-7 23h-96l-4 16-10 37-2 8 96 1-2 11-3 10-1 1-134 1h-4l1-8 12-46 9-35 1-4-7-8-5-5z"></path><path fill="#fff" d="m1388 1412 11 2 36 10 43 14 27 10 3 2-1 5-8 25-15 47-3 6-9-2-27-10 1-6 7-23v-5l-27-9-5-1-4 16-5 16-2 1-35-10 1-10 17-60-1-7-4-8z"></path><path fill="#F5CC16" d="M912 1227h153l-2 10-4 14-92 1-3 8-3 11h93l-2 9-4 13-92 1-3 8-8 31-1 2-20 1h-20l-2-1 4-17 18-70v-5l-2-4-4-2-7-7z" data-source="https://football-logos.cc"></path><path fill="#fff" d="m832 1380 4 1 12 79v7l-1 1-31 4h-5l-2-7-4-27-33 5h-3l4 27v8l-24 5-10 1-2-7-9-59-2-7-14-9v-3l49-9 47-7zM1213 1380l42 5 43 7 36 7v7l-4 19-10-1-57-10h-5l-1 7 41 7 27 5 3 1-2 14-7 34-2 4-65-11-36-5-5-2 4-25h8l60 9 4 1 1-9-13-1-54-8-4-1 1-15 3-19v-6l-8-11zM976 1370h97l4 1 1 6 1 82-35-1-1-15v-20h-37v34l-1 1-33 1-1-1-2-77-15-8v-2z"></path><path fill="#144A2D" d="M929 322h14l20 3 21 7 20 10 14 9 5 3 5-2 16-10 17-9 19-7 13-3 9-1h19l19 3 20 6 12 6 1 2-37 2-22 3-25 6-17 7-12 6-17 12-16 16-2 3-4-2-9-10-11-10-17-11-15-7-18-6-23-5-29-3-26-1 3-3 9-4 18-6 15-3z"></path><path fill="#fff" d="m936 993 2 3 3 17 8 24 9 19 2 4 4 1v-2l13-9 7 6 6 5h3l6-10 4 1 7 6 11 6 7-1 10-5 8-7 3 1 6 9 4-2 8-7 4-2 11 8 3 3h2l12-25 7-21 4-19 2-2 8 11 6 14 4 17 1 8v9l-9 8-12 6-21 6-27 4-13 1-31 1-25-1-24-3-18-4-13-4-14-7-7-6v-14l4-20 7-16zM1083 1371h27l16 1 7 2 1 14 9 11 5 5 4-2 16-12 1-14 19 1 18 2 1 1v24l-19 14-21 16-4 3v16l-1 10-1 1-30-2-4-1-1-35-7-7-8-7-10-9-5-4-1-5v-11l-5-5-7-6zM881 1375h6l3 40 1 20h16l50-3h4l1 2 1 24-1 1-28 2-44 3-23 2h-8l-5-54-2-20-1-3-12-8v-2z"></path><path fill="#F5CC16" d="m837 1227 61 1-16 64-11 42-1 1-12 1h-30l2-10 13-50 7-27v-5l-13-13-1-3z"></path><path fill="#134D2F" d="M1013 1571h21l15 4 12 6 11 9 8 9 8 14 4 15v25l-4 13-7 13-9 11-12 9-12 6-11 3-16 1-15-2-13-5-11-7-10-9-8-11-5-10-4-16v-18l4-17 7-13 9-11 10-8 16-8zm6 8-12 2-4 4-8 15-18 3-5 4-5 10-4 15v8l13 13 1 6-2 9v8l7 8 10 8 10 5h6l10-6 7-2 15 8h6l11-6 10-8 5-6 1-6-2-11v-7l13-12 1-6-4-17-6-12-4-3-19-3-8-16-3-3-12-2z"></path><path fill="#fff" d="m1337 1400 20 4 26 6 2 1-1 8-13 55-5 20-1 2-10-1-25-6-1-3 10-43 5-20v-7l-6-13zM825 542l10 1 28 7 21 8 16 8 11 7 9 7-2 4-9 7-12 6-3 1h-8l-20-12-23-11-8-4-9-25zM1222 541l1 2-6 15-4 13-2 2-14 5-23 12-15 9-11-3-10-5-10-8v-3l7-6 14-9 19-9 27-9 16-4z"></path><path fill="#14492D" d="m997 1605 5 2 7 8h29l10-10h2l-2 5-5 7v6l7 21 6 4 7 3 1 2-18-1-14 10-4 3-3 16-3-1-1-3-1-11-11-9-9-6-7 1h-9l1-2 9-3 4-4 7-22-2-6z"></path><path fill="#fff" d="M1012 1567h23l12 2 16 8 11 8 8 8 7 11 5 11 3 12 1 7v11l-3 16-5 13-7 11-14 14-13 8-12 4-9 2-17 1-18-4-12-5-11-7-12-12-8-13-5-14-2-11v-18l4-16 8-16 9-11 14-11 11-5zm1 4-15 4-13 7-10 8-9 11-7 13-4 17v18l4 16 6 12 9 11 9 8 14 8 13 4 17 1 15-2 13-5 11-7 9-8 8-11 6-12 3-11v-25l-4-15-6-11-8-10-10-9-12-7-13-4-5-1z"></path><path fill="#125131" d="M1000 1396h38v9h-38z"></path><path fill="#125332" d="M793 1412h8l2 4-1 4-16 3-19 3-2-4v-5l8-2zM1429 1450l33 11 1 3-3 6-10-3-24-8z"></path><path fill="#00A059" d="m1026 1665 1 3-2 13-3-1-1-3v-11l2 3 1 3z"></path><path fill="#048E50" d="m1052 1647 10 3 2 3-11-1-7-1v-1l6-1z" data-source="https://football-logos.cc"></path><!-- source: https://football-logos.cc --></svg>