<svg xmlns="http://www.w3.org/2000/svg" xml:space="preserve" viewBox="0 0 482.35 621.59"><!-- Source: https://football-logos.cc --><defs data-source="https://football-logos.cc"><clipPath id="a" clipPathUnits="userSpaceOnUse"><path d="M0 595.276h595.276V0H0Z"></path></clipPath><clipPath id="b" clipPathUnits="userSpaceOnUse"><path d="M407.111 522.257h11.93v-17.621h-11.93z"></path></clipPath><clipPath id="c" clipPathUnits="userSpaceOnUse"><path d="M380.018 504.113h12.238v-15.827h-12.238z"></path></clipPath><clipPath id="d" clipPathUnits="userSpaceOnUse"><path d="M176.235 522.257h11.93v-17.621h-11.93z"></path></clipPath><clipPath id="e" clipPathUnits="userSpaceOnUse"><path d="M203.02 504.113h12.238v-15.827H203.02Z"></path></clipPath><clipPath id="f" clipPathUnits="userSpaceOnUse"><path d="M155.422 129.62h20.336V99.282h-20.336z"></path></clipPath><clipPath id="g" clipPathUnits="userSpaceOnUse"><path d="M419.518 129.62h20.336V99.282h-20.336z"></path></clipPath><clipPath id="h" clipPathUnits="userSpaceOnUse"><path d="M176.235 90.64h11.93V73.019h-11.93z"></path></clipPath><clipPath id="i" clipPathUnits="userSpaceOnUse"><path d="M203.02 106.989h12.238V91.163H203.02Z"></path></clipPath><clipPath id="j" clipPathUnits="userSpaceOnUse"><path d="M407.111 90.64h11.93V73.019h-11.93z"></path></clipPath><clipPath id="k" clipPathUnits="userSpaceOnUse"><path d="M380.017 106.989h12.239V91.163h-12.239z"></path></clipPath></defs><g clip-path="url(#a)" transform="matrix(1.33333 0 0 -1.33333 -155.676 707.645)" data-source="https://football-logos.cc"><path d="M0 0c-25.73-4.04-41.85 17.21-41.85 17.21s2.96 4.45 9.06 1.55C-26.7 15.86-12.56-.05 0 0" style="fill:#7c2325;fill-opacity:1;fill-rule:nonzero;stroke:none" transform="translate(209.37 483.876)"></path><path d="M0 0h-.03v2Z" style="fill:#000;fill-opacity:1;fill-rule:nonzero;stroke:none" transform="translate(209.4 482.876)"></path><path d="M0 0s-11.33-23.15-44.38-21.71c-47.16 2.05-50.3 27.13-98.76 28.22-48.47-1.09-51.6-26.17-98.76-28.22C-274.96-23.15-286.29 0-286.29 0l13.03 26.17s16.12-21.25 41.85-17.21h.03c1.98.31 4.03.78 6.12 1.41 30.28 9.17 35.18 29.07 82.12 29.07s51.84-19.9 82.11-29.07c2.1-.63 4.14-1.1 6.13-1.41h.02c25.74-4.04 41.86 17.21 41.86 17.21z" style="fill:#7c2325;fill-opacity:1;fill-rule:nonzero;stroke:none" transform="translate(440.78 474.916)"></path><path d="M0 0s-16.12-21.25-41.86-17.21c12.56-.06 26.7 15.86 32.8 18.76C-2.97 4.45 0 0 0 0" style="fill:#7c2325;fill-opacity:1;fill-rule:nonzero;stroke:none" transform="translate(427.76 501.086)"></path><path d="M0 0c.97.3 1.91.64 2.82 1.01C1.9.65.96.31 0 0" style="fill:#000;fill-opacity:1;fill-rule:nonzero;stroke:none" transform="translate(404.48 486.286)"></path><path d="M0 0c-22.94 1-35.58 7.61-47.8 14.01-12.83 6.71-26.09 13.65-51.02 14.21-24.9-.56-38.16-7.5-50.99-14.22-12.21-6.39-24.85-13-47.79-14-29.53-1.28-41.47 17.64-43.22 20.73l12.12 24.34c.22-.25.48-.54.78-.86.14-.16.3-.32.47-.49.01-.02.02-.03.03-.04.2-.2.4-.42.62-.64 2.54-2.54 6.66-6.16 12.13-9.19l.72-.39c.48-.26.97-.52 1.48-.76.26-.13.51-.25.77-.37 1.08-.51 2.21-.99 3.38-1.43l.66-.24c.28-.1.56-.2.85-.29.29-.1.58-.19.87-.28.29-.1.58-.19.88-.27.88-.25 1.79-.48 2.72-.69.31-.06.62-.13.93-.19.62-.12 1.25-.23 1.9-.33h.03c.57-.08 1.15-.16 1.73-.22.72-.08 1.46-.14 2.21-.17l.79-.03c.17-.01.34-.02.51-.01.25-.01.51-.01.76-.01.19 0 .38.01.58.01.19.01.38.02.57.02.16 0 .32.01.48.01.21 0 .42.01.63.02.42.03.84.05 1.27.09l1.3.12c.55.07 1.1.14 1.66.23l.08.01h.02c2.04.32 4.15.81 6.26 1.44 11.19 3.39 19 8.26 26.56 12.97 13.25 8.26 25.77 16.06 55.27 16.06s42.02-7.8 55.27-16.06c7.56-4.71 15.36-9.58 26.55-12.97 2.14-.64 4.24-1.12 6.27-1.44h.02c2.26-.35 4.45-.51 6.56-.51.59 0 1.17.01 1.75.04.57.02 1.14.06 1.71.11.54.04 1.07.1 1.59.16.04.01.08.01.12.02q.735.09 1.44.21c.13.01.25.03.38.06.47.08.93.16 1.38.26.41.08.81.17 1.21.27.07.01.14.03.21.05.25.06.49.12.74.19.31.08.62.16.93.25.34.09.67.19 1 .3a18.589 18.589 0 0 1 .79.26c.03 0 .05.01.08.02a45.92 45.92 0 0 1 7.15 3.09l.72.39c5.76 3.19 10.03 7.03 12.52 9.59.17.18.34.35.49.51.4.42.74.8 1.02 1.12l12.11-24.34C41.47 17.64 29.52-1.28 0 0m-220.29 47.53c1.77-.84 4.39-2.96 7.43-5.4 5.14-4.15 11.66-9.4 18.32-11.95-.37.01-.73.03-1.09.05-.26.01-.52.03-.78.05-.35.02-.69.05-1.03.09-.29.02-.58.06-.86.1-.33.03-.64.08-.96.12-.27.05-.55.09-.82.14-.05 0-.09.01-.14.02-.54.1-1.07.2-1.6.32-.39.08-.77.16-1.14.26-.53.12-1.05.26-1.56.41-1.14.33-2.25.71-3.32 1.12-.49.18-.98.37-1.45.58-.54.23-1.07.46-1.59.71-.25.11-.49.23-.73.35-.49.23-.96.48-1.42.73-.23.12-.46.24-.69.37s-.45.25-.67.38a50 50 0 0 0-5.56 3.7c-.3.23-.59.46-.87.68a52 52 0 0 0-5.1 4.64c-.17.18-.34.35-.49.52-.23.24-.44.47-.61.67l-.27.3c-.13.14-.23.27-.33.38.96.93 3.35 2.55 7.33.66m235.54-5.41c3.04 2.45 5.67 4.56 7.44 5.41 1.34.64 2.5.87 3.49.87 1.94 0 3.2-.92 3.84-1.53-.08-.09-.17-.2-.27-.31-.09-.11-.2-.24-.33-.37-.03-.04-.07-.09-.11-.13-.14-.16-.29-.33-.46-.5-.51-.55-1.13-1.19-1.87-1.9-.32-.32-.68-.65-1.05-.99-.14-.12-.27-.24-.41-.37-.41-.38-.85-.76-1.32-1.15-.31-.25-.64-.52-.97-.79-.41-.33-.85-.66-1.3-1s-.91-.68-1.39-1.01c-.04-.02-.08-.05-.12-.08-.34-.24-.68-.48-1.04-.7-.01 0-.01-.01-.02-.02-.35-.22-.7-.45-1.06-.68-.37-.24-.74-.46-1.13-.68-.48-.28-.97-.56-1.48-.83-.25-.14-.5-.27-.76-.41-.52-.27-1.04-.53-1.58-.78-.27-.12-.54-.25-.81-.37-.55-.25-1.11-.48-1.68-.71-.91-.37-1.85-.71-2.82-1.01-.48-.16-.97-.31-1.47-.44-.5-.15-1-.28-1.51-.39-.51-.12-1.03-.24-1.55-.34-.02 0-.03 0-.04-.01-.51-.1-1.03-.19-1.55-.27-.54-.09-1.08-.16-1.63-.22s-1.1-.12-1.66-.15c-.36-.03-.72-.04-1.09-.06-.2 0-.39-.01-.59-.01 6.64 2.54 13.17 7.78 18.3 11.93m17.25 4.65-.3.6-.05.07c-.01.02-.31.45-.9 1-1.44 1.3-4.6 3.19-9.42.89-1.98-.94-4.7-3.13-7.84-5.66-6.81-5.49-16.14-13-24.46-13h-.01c-1.91.3-3.9.76-5.92 1.37-10.93 3.31-18.63 8.11-26.07 12.74-13.5 8.42-26.25 16.37-56.33 16.37-30.07 0-42.83-7.95-56.33-16.36-7.44-4.64-15.14-9.44-26.08-12.75-2-.6-3.98-1.06-5.91-1.37h-.01c-8.33 0-17.66 7.52-24.48 13.01-3.13 2.53-5.84 4.71-7.82 5.65-4.81 2.29-7.97.42-9.41-.9-.6-.53-.9-.98-.91-1l-.06-.09-.29-.57-12.96-26.06.21-.44c.12-.24 11.99-23.72 45.33-22.27 23.39 1.02 36.23 7.74 48.64 14.23 13.21 6.91 25.68 13.44 50.06 13.99 24.42-.55 36.89-7.08 50.09-13.99C-36.31 5.74-23.47-.98-.08-2c1-.04 1.97-.06 2.94-.06 31.07 0 42.27 22.1 42.38 22.33l.22.44z" style="fill:#9c8530;fill-opacity:1;fill-rule:nonzero;stroke:none" transform="translate(396.44 454.206)"></path><path d="M0 0c-5.594 8.012-6.147 19.248-1.367 27.771s14.656 13.91 24.41 13.314c2.236-.137 4.511-.584 6.414-1.766 3.807-2.365 5.391-7.349 4.732-11.782s-3.184-8.373-6.082-11.791c3.766.412 7.377 2.157 10.149 4.741a17.87 17.87 0 0 1 5.355 9.805c.815 4.494-.216 9.338-2.981 12.972s-7.268 5.946-11.833 5.844c4.414.87 8.906.427 13.083-1.243a25.96 25.96 0 0 1-9.89 11.588 26.35 26.35 0 0 1-14.807 4.069c-3.971 4.221-10.308 6.092-15.931 4.689s-10.408-5.333-13.63-10.15-4.996-10.476-6.011-16.182c-.612-3.441-.963-6.954-.636-10.434s1.357-6.939 3.328-9.826C-15.168 11.895-9.364 4.994 0 0" style="fill:#7c2325;fill-opacity:1;fill-rule:nonzero;stroke:none" transform="translate(148.94 380.19)"></path><path d="M0 0c-1.192 0-2.379-.139-3.53-.426-4.981-1.242-9.734-4.791-13.041-9.736-2.794-4.178-4.71-9.346-5.858-15.801-.705-3.964-.904-7.194-.624-10.165.337-3.588 1.428-6.823 3.157-9.356a1 1 0 0 0 .173-.51c.423-7.748 4.319-13.946 11.882-18.859-3.892 7.918-3.764 17.705.578 25.446 4.985 8.889 15.162 14.449 25.343 13.823 2.835-.173 5.086-.799 6.881-1.915 3.884-2.413 5.97-7.548 5.193-12.777-.49-3.295-2.002-6.632-4.603-10.146 2.557.725 4.979 2.091 6.999 3.973a16.84 16.84 0 0 1 5.054 9.253c.78 4.306-.264 8.863-2.794 12.188-2.627 3.455-6.869 5.543-11.015 5.45-.505-.032-.961.374-1.017.891a1 1 0 0 0 .801 1.089c3.76.742 7.628.567 11.316-.495a24.85 24.85 0 0 1-8.465 9.015c-4.205 2.671-9.26 4.053-14.241 3.913a.96.96 0 0 0-.758.315C8.537-1.754 4.238 0 0 0m-5.024-68.667c-.161 0-.322.039-.471.118-10.297 5.492-15.601 12.746-16.208 22.17-1.829 2.775-2.983 6.247-3.341 10.064-.297 3.155-.092 6.556.647 10.703 1.196 6.732 3.213 12.15 6.164 16.562C-14.601-3.619-9.551.133-4.014 1.515c5.868 1.463 12.327-.361 16.589-4.651 5.213.051 10.514-1.43 14.927-4.234a26.87 26.87 0 0 0 10.271-12.034 1.002 1.002 0 0 0-1.289-1.327 22.4 22.4 0 0 1-5.428 1.419 16 16 0 0 0 5.346-4.485c2.863-3.765 4.048-8.907 3.169-13.756a18.85 18.85 0 0 0-5.658-10.359c-3.002-2.797-6.809-4.574-10.722-5.003a1 1 0 0 0-.871 1.641c3.409 4.02 5.324 7.713 5.855 11.292.552 3.705-.555 8.476-4.269 10.785-1.507.935-3.452 1.464-5.948 1.617-9.416.571-18.859-4.571-23.477-12.805-4.619-8.235-4.09-18.968 1.315-26.71a1 1 0 0 0-.82-1.572" style="fill:#000;fill-opacity:1;fill-rule:nonzero;stroke:none" transform="translate(153.964 447.856)"></path><path d="M0 0c1.166 14.159 15.163 27.878 28.337 31.781-10.299-3.639-18.858-11.93-23.709-21.599C3.093 6.929 2.082 3.425 1.998-.091 1.949-1.425-.068-1.352 0 0" style="fill:#000;fill-opacity:1;fill-rule:nonzero;stroke:none" transform="translate(132.244 401.854)"></path><path d="M0 0c-8.681.977-17.931-.443-25.726-4.523-2.679-1.31-5.05-3.143-7.35-5.049 2.185 2.027 4.474 4.01 7.105 5.485 2.569 1.563 5.365 2.8 8.222 3.732 5.81 1.89 11.852 2.724 18.001 2.339A1 1 0 0 0 1.18.916 1.005 1.005 0 0 0 0 0" style="fill:#000;fill-opacity:1;fill-rule:nonzero;stroke:none" transform="translate(180.625 428.175)"></path><path d="M0 0c-8.557-2.494-16.704-7.131-22.801-13.709 1.44 1.747 2.939 3.474 4.648 4.986C-13.042-4.072-7.065-.48-.561 1.92.757 2.353 1.353.351 0 0" style="fill:#000;fill-opacity:1;fill-rule:nonzero;stroke:none" transform="translate(166.403 442.752)"></path><path d="M0 0c4.653-.57 9.364-3.089 11.822-7.178C8.555-3.797 4.381-1.596 0 0" style="fill:#000;fill-opacity:1;fill-rule:nonzero;stroke:none" transform="translate(172.594 440.476)"></path><path d="M0 0c-1.977 1.703-4.382 3.242-7.067 3.475C-4.284 3.566-1.656 2.301.634.773A.501.501 0 1 0 0 0" style="fill:#000;fill-opacity:1;fill-rule:nonzero;stroke:none" transform="translate(162.539 442.14)"></path><path d="M0 0c5.673-4.912 13.149-7.254 20.564-8.404a79 79 0 0 1 3.96-.506 513 513 0 0 1 16.938 4.706c-6.606.579-13.103 2.412-19 5.447-3.081 1.586-6.112 3.6-7.836 6.606-2.199 3.835-1.769 9.009 1.033 12.428 2.803 3.419 7.84 4.8 12.032 3.397-3.29 9-15.916 6.097-15.916 6.097.496 11.016-14.506 17.003-14.506 17.003C-.449 43.062-.123 38.505-1.2 34.283c-1.277-5.011-4.863-9.194-6.139-14.205C-9.19 12.806-5.673 4.912 0 0" style="fill:#7c2325;fill-opacity:1;fill-rule:nonzero;stroke:none" transform="translate(206.277 403.864)"></path><path d="M0 0c1.174-3.196 1.31-6.862.358-10.596-.668-2.62-1.932-5.01-3.154-7.321s-2.376-4.493-2.985-6.884c-1.621-6.368 1.201-14.034 7.025-19.075 4.79-4.148 11.352-6.821 20.062-8.171a76 76 0 0 1 3.731-.482 498 498 0 0 1 12.187 3.33c-5.123.922-10.108 2.593-14.63 4.921-2.796 1.438-6.26 3.534-8.247 6.997-2.42 4.221-1.956 9.797 1.128 13.559 2.56 3.123 6.914 4.718 10.972 4.202-3.899 5.871-13.754 3.709-13.861 3.684a.998.998 0 0 0-1.222 1.02C11.702-7.311 4.09-2.196 0 0m25.112-54.542a1 1 0 0 0-.102.005c-1.39.143-2.739.316-4.011.513-9.092 1.41-15.982 4.235-21.065 8.636-6.481 5.611-9.485 13.886-7.653 21.08.667 2.622 1.932 5.014 3.155 7.326 1.222 2.309 2.375 4.49 2.984 6.88 1.095 4.293.592 8.456-1.414 11.72A1 1 0 0 0-1.771 3.07c.616-.246 14.594-5.95 15.131-16.747 3.403.475 12.944 1.036 15.859-6.938a.998.998 0 0 0-1.257-1.291c-3.828 1.281-8.427-.017-10.941-3.083-2.528-3.085-2.923-7.836-.938-11.297 1.725-3.008 4.875-4.901 7.426-6.214 5.678-2.923 12.12-4.77 18.629-5.34a1 1 0 0 0 .196-1.955 514 514 0 0 0-16.972-4.715 1 1 0 0 0-.25-.032" style="fill:#000;fill-opacity:1;fill-rule:nonzero;stroke:none" transform="translate(205.688 448.496)"></path><path d="M0 0c-6.635-9.652-8.603-21.572.675-30.276-7.242 5.56-8.797 14.999-5.201 23.147C-3.446-4.501-1.994-2.043-.29.207-.159.381.128.189 0 0" style="fill:#000;fill-opacity:1;fill-rule:nonzero;stroke:none" transform="translate(207.643 435.375)"></path><path d="M0 0c1.013 2.854.628 6.341-1.568 8.561.559-.54 1.112-1.115 1.492-1.812C1.159 4.66 1.305 2.087.709-.246A.376.376 0 1 0 0 0" style="fill:#000;fill-opacity:1;fill-rule:nonzero;stroke:none" transform="translate(212.931 432.873)"></path><path d="M0 0c3.585.841 7.672.436 10.546-2.005C7.617.171 3.611.326.224-.716-.263-.893-.505-.132 0 0" style="fill:#000;fill-opacity:1;fill-rule:nonzero;stroke:none" transform="translate(218.597 431.838)"></path><path d="M0 0c-8.076-10.724-3.523-22.909 8.745-27.349 3.569-1.382 7.398-2.052 11.255-2.387-3.892-.079-7.81.413-11.518 1.664C-4.338-23.974-9.438-10.392 0 0" style="fill:#000;fill-opacity:1;fill-rule:nonzero;stroke:none" transform="translate(213.715 429.832)"></path><path d="M0 0c5.594 8.012 6.147 19.248 1.367 27.771s-14.656 13.91-24.41 13.314c-2.236-.137-4.511-.584-6.414-1.766-3.807-2.365-5.391-7.349-4.732-11.782s3.185-8.373 6.082-11.791c-3.766.412-7.377 2.157-10.149 4.741a17.87 17.87 0 0 0-5.355 9.805c-.815 4.494.216 9.338 2.981 12.972s7.268 5.946 11.833 5.844c-4.414.87-8.906.427-13.083-1.243a25.96 25.96 0 0 0 9.89 11.588 26.35 26.35 0 0 0 14.807 4.069c3.971 4.221 10.308 6.092 15.931 4.689s10.408-5.333 13.63-10.15 4.996-10.476 6.011-16.182c.612-3.441.963-6.954.636-10.434s-1.357-6.939-3.328-9.826C15.168 11.895 9.364 4.994 0 0" style="fill:#7c2325;fill-opacity:1;fill-rule:nonzero;stroke:none" transform="translate(446.34 380.19)"></path><path d="M0 0c9.644 0 19.058-5.433 23.789-13.87 4.342-7.741 4.471-17.528.577-25.446 7.565 4.913 11.461 11.11 11.883 18.859a1 1 0 0 0 .172.51c1.729 2.532 2.821 5.767 3.158 9.356.279 2.97.081 6.2-.624 10.165-1.147 6.454-3.063 11.623-5.857 15.801-3.308 4.945-8.061 8.493-13.042 9.736-5.243 1.307-11.253-.464-14.96-4.404a.99.99 0 0 0-.758-.315 25.4 25.4 0 0 1-14.241-3.913 24.8 24.8 0 0 1-8.465-9.016 24 24 0 0 0 11.315.496.999.999 0 0 0-.193-1.981l-.023.001c-4.165.08-8.388-1.997-11.015-5.45-2.529-3.326-3.574-7.883-2.793-12.189a16.84 16.84 0 0 1 5.054-9.252c2.019-1.882 4.441-3.248 6.999-3.973-2.602 3.513-4.114 6.851-4.604 10.145-.777 5.229 1.31 10.364 5.192 12.778C-6.641-.847-4.389-.221-1.553-.047Q-.776 0 0 0m21.55-43.13a1 1 0 0 0-.821 1.572c5.406 7.741 5.935 18.475 1.316 26.709C17.428-6.615 8.011-1.466-1.432-2.043c-2.496-.153-4.441-.682-5.948-1.618-3.714-2.308-4.82-7.08-4.269-10.785.532-3.577 2.447-7.271 5.855-11.292a.998.998 0 0 0-.871-1.64c-3.912.428-7.72 2.205-10.722 5.003a18.86 18.86 0 0 0-5.659 10.359c-.878 4.849.307 9.991 3.17 13.756a16 16 0 0 0 5.347 4.486 22.5 22.5 0 0 1-5.429-1.42 1 1 0 0 0-1.288 1.326 26.86 26.86 0 0 0 10.27 12.035A27.4 27.4 0 0 0 3.952 22.4c4.26 4.29 10.715 6.115 16.588 4.651 5.537-1.381 10.588-5.133 14.22-10.565 2.951-4.412 4.967-9.83 6.164-16.562.738-4.147.943-7.548.647-10.703-.359-3.817-1.513-7.289-3.342-10.063-.607-9.425-5.912-16.679-16.208-22.171a1 1 0 0 0-.471-.117" style="fill:#000;fill-opacity:1;fill-rule:nonzero;stroke:none" transform="translate(424.79 422.32)"></path><path d="M0 0c-.506 10.93-8.196 20.367-16.649 26.743-2.956 2.151-6.178 4-9.69 5.129C-13.174 27.974.833 14.253 1.998.091 2.063-1.246.059-1.352 0 0" style="fill:#000;fill-opacity:1;fill-rule:nonzero;stroke:none" transform="translate(461.038 401.763)"></path><path d="M0 0c12.056.694 24.641-2.981 33.328-11.556-2.3 1.906-4.672 3.738-7.35 5.049-5.222 2.773-11.106 4.228-16.977 4.691-2.943.21-5.962.188-8.806-.175C-1.137-2.137-1.355-.123 0 0" style="fill:#000;fill-opacity:1;fill-rule:nonzero;stroke:none" transform="translate(414.404 430.159)"></path><path d="M0 0c8.599-3.204 16.493-8.456 22.241-15.629A45.4 45.4 0 0 1 11.694-7.22C7.87-4.976 3.678-3.11-.561-1.92-1.903-1.576-1.328.435 0 0" style="fill:#000;fill-opacity:1;fill-rule:nonzero;stroke:none" transform="translate(429.437 444.671)"></path><path d="M0 0c-4.381-1.596-8.555-3.797-11.822-7.178C-9.364-3.089-4.653-.571 0 0" style="fill:#000;fill-opacity:1;fill-rule:nonzero;stroke:none" transform="translate(422.686 440.476)"></path><path d="M0 0c2.29 1.528 4.919 2.793 7.702 2.702C5.016 2.469 2.611.929.634-.773.117-1.257-.578-.414 0 0" style="fill:#000;fill-opacity:1;fill-rule:nonzero;stroke:none" transform="translate(432.107 442.913)"></path><path d="M0 0c-5.673-4.912-13.149-7.254-20.564-8.404a79 79 0 0 0-3.96-.506 513 513 0 0 0-16.938 4.706c6.606.579 13.103 2.412 19 5.447 3.081 1.586 6.112 3.6 7.836 6.606 2.199 3.835 1.769 9.009-1.033 12.428-2.803 3.419-7.84 4.8-12.032 3.397 3.29 9 15.916 6.097 15.916 6.097-.496 11.016 14.506 17.003 14.506 17.003C.449 43.062.123 38.505 1.2 34.283c1.277-5.011 4.863-9.194 6.139-14.205C9.19 12.806 5.673 4.912 0 0" style="fill:#7c2325;fill-opacity:1;fill-rule:nonzero;stroke:none" transform="translate(389.003 403.864)"></path><path d="M0 0a500 500 0 0 1 12.188-3.33 77 77 0 0 1 3.73.482c8.71 1.35 15.272 4.023 20.062 8.171 5.823 5.041 8.646 12.707 7.025 19.075-.609 2.392-1.764 4.574-2.985 6.885-1.222 2.311-2.486 4.7-3.154 7.32-.952 3.732-.816 7.398.357 10.593-4.091-2.202-11.701-7.322-11.364-14.813a.998.998 0 0 0-1.222-1.02c-.108.025-9.961 2.187-13.86-3.684 4.061.516 8.412-1.078 10.972-4.201 3.084-3.763 3.548-9.339 1.127-13.56-1.985-3.462-5.449-5.558-8.245-6.998C10.108 2.593 5.124.922 0 0m12.111-5.343q-.126 0-.25.032A519 519 0 0 0-5.11-.597a1 1 0 0 0 .195 1.955c6.51.572 12.952 2.418 18.63 5.341 2.552 1.313 5.701 3.206 7.427 6.215 1.984 3.46 1.589 8.211-.94 11.296-2.514 3.067-7.114 4.364-10.94 3.083a.999.999 0 0 0-1.257 1.291c2.915 7.973 12.453 7.412 15.859 6.938.536 10.797 14.515 16.501 15.131 16.748a1 1 0 0 0 1.223-1.453c-2.006-3.263-2.509-7.426-1.414-11.72.609-2.389 1.762-4.57 2.983-6.879 1.224-2.313 2.488-4.704 3.155-7.327 1.832-7.194-1.172-15.469-7.653-21.08C32.207-.59 25.316-3.415 16.225-4.825a79 79 0 0 0-4.011-.512 1 1 0 0 0-.103-.006" style="fill:#000;fill-opacity:1;fill-rule:nonzero;stroke:none" transform="translate(352.368 399.297)"></path><path d="M0 0c7.254-9.286 9.234-22.506-.965-30.483 6.517 6.056 7.954 14.812 4.581 22.899C2.607-4.995 1.257-2.537-.29-.207-.417-.029-.134.185 0 0" style="fill:#000;fill-opacity:1;fill-rule:nonzero;stroke:none" transform="translate(387.927 435.582)"></path><path d="M0 0c-.825 3.081-.191 6.662 2.277 8.807C1.214 7.678.479 6.255.274 4.717A9.55 9.55 0 0 1 .716.225C.884-.255.138-.493 0 0" style="fill:#000;fill-opacity:1;fill-rule:nonzero;stroke:none" transform="translate(381.64 432.627)"></path><path d="M0 0c-3.388 1.042-7.393.887-10.323-1.29.714.565 1.471 1.104 2.328 1.453C-5.42 1.279-2.499 1.346.224.716.725.585.491-.177 0 0" style="fill:#000;fill-opacity:1;fill-rule:nonzero;stroke:none" transform="translate(376.46 431.122)"></path><path d="M0 0c9.443-10.402 4.332-23.976-8.482-28.072-3.707-1.251-7.626-1.743-11.518-1.664 3.857.335 7.686 1.005 11.255 2.387C3.529-22.908 8.072-10.714 0 0" style="fill:#000;fill-opacity:1;fill-rule:nonzero;stroke:none" transform="translate(381.565 429.832)"></path><path d="M0 0c-12.571-30.369-76.282-14.275-152.037 12.761C-227.792-14.275-291.503-30.369-304.074 0c-2.463-7.694-1.303-16.553 3.337-23.198 39.061-26.614 90.844-17.626 148.7 8.359 57.856-25.985 109.639-34.973 148.7-8.359C1.303-16.553 2.463-7.694 0 0" style="fill:#9c8530;fill-opacity:1;fill-rule:nonzero;stroke:none" transform="translate(449.677 403.388)"></path><path d="M0 0q.212 0 .41-.088c65.744-29.527 112.643-32.247 147.574-8.549 3.803 5.541 5.17 12.825 3.776 19.589-6.964-12.672-24.085-17.007-52.179-13.25C76.09.843 44.443 9.689 0 25.539-44.443 9.689-76.091.843-99.58-2.298c-28.099-3.758-45.217.577-52.181 13.25-1.393-6.763-.026-14.048 3.777-19.589C-113.056-32.333-66.155-29.616-.41-.088Q-.212 0 0 0m93.447-26.44c-3.94 0-7.98.18-12.135.54C57.818-23.868 31.217-16.081 0-2.096-31.217-16.081-57.817-23.868-81.312-25.9c-26.801-2.319-49.028 2.82-67.951 15.714a1 1 0 0 0-.257.254c-4.727 6.77-6.056 15.995-3.469 24.076a1 1 0 0 0 1.876.078C-138.244-16.867-67.672 3.51-.336 27.542c.217.077.455.077.672 0 67.338-24.032 137.91-44.406 150.777-13.32.161.387.547.629.965.616a1 1 0 0 0 .911-.694c2.587-8.082 1.258-17.307-3.469-24.076a1 1 0 0 0-.257-.254C133.273-21.081 114.92-26.44 93.447-26.44" style="fill:#000;fill-opacity:1;fill-rule:nonzero;stroke:none" transform="translate(297.64 389.549)"></path><path d="M0 0c3.363-4.503 8.307-7.708 13.253-10.278a58 58 0 0 0-3.851 1.857C5.606-6.349 1.963-3.946-.826-.564-1.247-.011-.369.597 0 0" style="fill:#000;fill-opacity:1;fill-rule:nonzero;stroke:none" transform="translate(144.898 398.285)"></path><path d="M0 0c10.635-7.399 23.265-11.844 36.013-13.913 1.835-.306 3.69-.474 5.535-.718-1.849.203-3.709.329-5.553.595C23.073-12.228 10.332-8.052-.6-.8c-.543.384.057 1.226.6.8" style="fill:#000;fill-opacity:1;fill-rule:nonzero;stroke:none" transform="translate(145.413 389.16)"></path><path d="M0 0c-3.732-4.455-8.856-7.368-14.079-9.714a58 58 0 0 1 3.727 2.074C-6.811-5.439-3.295-2.806-.826.564-.463 1.156.425.558 0 0" style="fill:#000;fill-opacity:1;fill-rule:nonzero;stroke:none" transform="translate(451.208 397.72)"></path><path d="M0 0c-10.932-7.252-23.673-11.427-36.595-13.236-1.843-.266-3.704-.392-5.553-.594 1.845.244 3.7.411 5.535.718 9.167 1.445 18.144 4.212 26.474 8.306C-6.824-3.171-3.561-1.341-.6.8-.082 1.217.565.397 0 0" style="fill:#000;fill-opacity:1;fill-rule:nonzero;stroke:none" transform="translate(450.467 388.36)"></path><path d="M0 0c-1.138-.039-2.276-.064-3.413-.115-4.079-.183-8.19-.447-12.129-1.523s-7.812-3.038-10.48-6.129c-8.71-2.741-12.28-9.952-14.329-17.317 3.754 4.338 9.862 6.058 15.59 5.748 5.728-.311 11.197-2.393 16.497-4.587S2.349-28.47 8.014-29.37c4.609-.732 9.331-.478 13.936.275a65 65 0 0 1 12.315 3.278c2.395 3.943 5.662 8.031 5.786 12.642.08 2.981-.788 6.079-2.52 8.462C24.277-5.224 11.72-3.783 0 0" style="fill:#7c2325;fill-opacity:1;fill-rule:nonzero;stroke:none" transform="translate(171.925 368.95)"></path><path d="M0 0h.01zm-.056-10.534q.681 0 1.371-.037c5.911-.32 11.553-2.478 16.825-4.661l1.383-.575c4.727-1.969 9.615-4.005 14.67-4.808 4.075-.647 8.529-.558 13.618.274a64 64 0 0 1 11.804 3.108c.388.631.797 1.266 1.209 1.906 2.043 3.175 4.155 6.458 4.249 9.946.072 2.659-.665 5.33-2.031 7.416-13.434-.463-25.933 1.127-37.162 4.727l-1.023-.032c-.734-.022-1.469-.044-2.204-.077-3.913-.176-8.056-.435-11.91-1.488C7.78 4.355 3.642 2.689.757-.653A1 1 0 0 0 .3-.954c-7.214-2.27-10.617-7.79-12.573-13.177 3.277 2.312 7.583 3.597 12.217 3.597m39.851-12.508c-2.06 0-4.024.151-5.916.452-5.291.84-10.29 2.923-15.125 4.937l-1.379.573c-5.112 2.117-10.572 4.209-16.168 4.512-6.051.33-11.569-1.692-14.78-5.403a1 1 0 0 0-1.719.922C-13.569-10.856-10.17-2.292-.569.867c3.201 3.581 7.616 5.362 10.785 6.227 4.053 1.107 8.322 1.376 12.348 1.557.744.033 1.489.056 2.233.078l1.191.038a1 1 0 0 0 .341-.048c11.2-3.616 23.709-5.182 37.185-4.665a.99.99 0 0 0 .848-.411c1.81-2.492 2.799-5.8 2.71-9.078-.108-4.046-2.374-7.568-4.566-10.974-.467-.727-.93-1.445-1.364-2.16a1 1 0 0 0-.504-.417 66 66 0 0 0-12.505-3.329c-2.963-.484-5.727-.727-8.338-.727" style="fill:#000;fill-opacity:1;fill-rule:nonzero;stroke:none" transform="translate(145.903 361.182)"></path><path d="M0 0c-7.443 0-15.833 1.824-25.466 5.48-12.089 4.588-24.604 2.259-24.728 2.235a.5.5 0 1 0-.19.982c.127.025 12.912 2.409 25.273-2.282C-7.078-.429 6.488-.774 17.579 5.331a.5.5 0 0 0 .482-.876C12.668 1.487 6.719 0 0 0" style="fill:#000;fill-opacity:1;fill-rule:nonzero;stroke:none" transform="translate(194.127 352.203)"></path><path d="M0 0c-9.974-3.864-21.09-3.79-31.386-1.382-1.469.346-2.911.803-4.366 1.199 1.467-.356 2.918-.773 4.393-1.077 7.331-1.538 15.021-1.792 22.391-.38C-6.04-1.078-3.102-.286-.428.904.168 1.217.642.273 0 0" style="fill:#000;fill-opacity:1;fill-rule:nonzero;stroke:none" transform="translate(211.655 352.237)"></path><path d="M0 0c-6.544-2.348-13.507-3.16-20.418-3.036-2.296.031-4.582.241-6.858.496C-18.24-3.277-8.857-2.43-.395.918.216 1.208.642.25 0 0" style="fill:#000;fill-opacity:1;fill-rule:nonzero;stroke:none" transform="translate(208.792 346.465)"></path><path d="M0 0c-3.448-1.978-7.786-2.853-11.526-1.506s-6.729 4.914-6.876 8.886c-.146 3.937 2.396 7.582 5.635 9.824 1.589 1.1 3.332 1.922 5.144 2.6a36.4 36.4 0 0 0-5.449.431c-5.665.901-10.979 3.253-16.279 5.447s-10.769 4.276-16.497 4.587-11.836-1.41-15.59-5.748c0 0-7.407-13.347-1.337-26.479S-38.786-33.194-39.27-47.71c0 0 8.129 7.162 8.71 17.613 0 0 22.161-14.226 28.355-36.968C3.253-43.325-1.126-24.427-18.657-12c0 0 16.411 3.194 18.657 12" style="fill:#9c8530;fill-opacity:1;fill-rule:nonzero;stroke:none" transform="translate(193.012 319.344)"></path><path d="M0 0c.188 0 .376-.053.54-.158.213-.137 20.181-13.151 27.621-33.875 4.33 22.745-1.197 39.228-16.836 50.314a1 1 0 0 0 .387 1.797c.142.028 12.823 2.576 16.873 8.973-3.375-1.301-6.929-1.467-9.89-.401-4.28 1.541-7.38 5.567-7.537 9.79-.144 3.9 2.18 7.994 6.066 10.684q.769.532 1.633 1.014-.776.088-1.526.207c-5.291.841-10.29 2.923-15.125 4.937l-1.379.573c-5.113 2.117-10.573 4.209-16.169 4.512-5.999.323-11.485-1.662-14.707-5.321-.606-1.156-6.787-13.527-1.258-25.487 2.066-4.47 5.544-9.549 9.227-14.926C-15.445 2.945-8.603-7.048-7.782-16.218c2.318 2.626 6.39 8.199 6.783 15.274A1 1 0 0 0 0 0m28.355-38.968c-.45 0-.846.302-.965.738C22.259-19.391 5.728-6.323.834-2.796c-1.3-9.782-8.557-16.279-8.882-16.566a1 1 0 0 0-1.661.783c.305 9.163-7.306 20.276-14.021 30.082-3.731 5.449-7.256 10.595-9.393 15.217-6.211 13.437 1.059 26.821 1.371 27.384q.05.09.118.168c3.613 4.176 9.738 6.455 16.401 6.092 5.911-.32 11.553-2.478 16.825-4.661l1.383-.575c4.727-1.969 9.614-4.005 14.67-4.808a36 36 0 0 1 5.299-.42.999.999 0 0 0 .343-1.936c-1.955-.732-3.567-1.545-4.925-2.485-2.61-1.807-5.348-5.11-5.205-8.965.127-3.428 2.683-6.71 6.216-7.982 3.151-1.135 7.147-.599 10.689 1.432a1 1 0 0 0 1.467-1.114c-1.89-7.41-12.635-11.005-17.298-12.232C29.84 4.545 34.919-13.881 29.33-38.191a1 1 0 0 0-.955-.777z" style="fill:#000;fill-opacity:1;fill-rule:nonzero;stroke:none" transform="translate(162.452 290.247)"></path><path d="M0 0c-8.241-3.305-8.963-13.01-6.518-20.48l1.13-3.278-1.249 3.24C-9.49-12.784-8.862-2.78-.325.946.323 1.204.675.202 0 0" style="fill:#000;fill-opacity:1;fill-rule:nonzero;stroke:none" transform="translate(169.485 342.23)"></path><path d="M0 0c-2.902-2.723-4.907-6.624-5.15-10.632-.13-1.359.043-2.725.265-4.077-.303 1.333-.562 2.7-.515 4.087-.007 2.785.836 5.539 2.206 7.962C-2.488-1.442-1.687-.311-.673.739a.5.5 0 0 0 .707.013A.503.503 0 0 0 0 0" style="fill:#000;fill-opacity:1;fill-rule:nonzero;stroke:none" transform="translate(137.433 347.505)"></path><path d="M0 0c3.773-6.534 11.112-9.082 17.205-12.957 4.697-2.963 8.575-7.164 11.197-12.049.846-1.632 1.591-3.317 2.128-5.066-.749 1.667-1.575 3.292-2.553 4.822a35.8 35.8 0 0 1-11.311 11.451C10.692-9.984 3.067-6.937 0 0" style="fill:#000;fill-opacity:1;fill-rule:nonzero;stroke:none" transform="translate(154.462 301.957)"></path><path d="M0 0c-13.842-7.392-7.475-30.041 2.072-38.703 5.361-5.241 12.054-8.989 17.372-14.384 5.402-5.305 9.027-12.197 10.947-19.48-1.997 7.246-5.682 14.075-11.124 19.303C11.281-45.465-.077-40.585-5.03-29.965-9.787-20.267-11.645-5.013-.379.925.257 1.208.656.25 0 0" style="fill:#000;fill-opacity:1;fill-rule:nonzero;stroke:none" transform="translate(155.674 347.589)"></path><path d="m0 0-4.626 4.132 1.048.591c.131-3.91-.81-7.816-2.621-11.248a22.3 22.3 0 0 1 1.541 8.327c-.005.928-.065 1.89-.208 2.756-.113.574.622.974 1.049.59l5.063-3.583C2.359.734 1.061-.901 0 0" style="fill:#000;fill-opacity:1;fill-rule:nonzero;stroke:none" transform="translate(163.455 287.338)"></path><path d="M0 0c-4.274 7.551-10.121 15.187-14.366 22.008-15.593-13.327-19.891-58.157-12.536-72.995S-3.806-65.052-3.806-65.052C-20.281-52.149-11.419-13.988 0 0" style="fill:#9c8530;fill-opacity:1;fill-rule:nonzero;stroke:none" transform="translate(148.128 289.01)"></path><path d="M0 0c-14.43-13.858-18.346-57.055-11.43-71.01C-6.179-81.604 3.394-83.919 8.053-84.405c-3.852 4.011-6.216 9.765-7.038 17.15-1.886 16.935 4.88 37.274 12.358 46.88-2.444 4.24-5.37 8.513-8.203 12.65C3.331-5.039 1.582-2.485 0 0m10.479-86.523c-2.395 0-16.751.604-23.701 14.624-7.468 15.069-3.236 60.508 12.783 74.2a1 1 0 0 0 1.499-.232C2.78-.695 4.741-3.558 6.816-6.589c2.989-4.365 6.08-8.878 8.631-13.386a1 1 0 0 0-.095-1.125C7.93-30.191 1.197-50.818 3.003-67.035c.901-8.09 3.722-14.045 8.385-17.697a1 1 0 0 0-.567-1.786c-.013 0-.132-.005-.342-.005" style="fill:#000;fill-opacity:1;fill-rule:nonzero;stroke:none" transform="translate(133.551 309.476)"></path><path d="M0 0c-5.839-6.987-10.118-15.395-12.14-24.292a55 55 0 0 0 4.216 13.103C-5.979-6.983-3.639-3-.756.655-.33 1.177.462.506 0 0" style="fill:#000;fill-opacity:1;fill-rule:nonzero;stroke:none" transform="translate(140.85 300.637)"></path><path d="M0 0c-4.273 13.776-6.462 28.843-2.668 42.964-2.675-10.575-1.713-21.693.639-32.234C-1.225 7.216-.263 3.714.94.341 1.181-.275.219-.645 0 0" style="fill:#000;fill-opacity:1;fill-rule:nonzero;stroke:none" transform="translate(130.515 227.315)"></path><path d="M0 0c-4.089 4.01-5.803 9.788-5.937 15.379.146-1.378.3-2.758.641-4.1C-4.371 7.355-2.429 3.429.629.778 1.193.369.522-.473 0 0" style="fill:#000;fill-opacity:1;fill-rule:nonzero;stroke:none" transform="translate(138.867 224.062)"></path><path d="M0 0c3.508 10.043.24 17.965-8.129 24.29 0 0 .484-6.967-1.936-12.193 0 0 1.384 16.283-13.741 17.806-14.42 1.452-14.613-12-14.613-12s10.192 8.29 17.419 1.355c6.715-6.444-1.71-28.935-17.839-30.161 0 0-12.606-.611-20.527 9.898l-.009-.002s2.085-14.283 16.891-20.38c0 0 11.129-9.871 31.065-4.065C8.516-19.645 2.71-2.613 0 0" style="fill:#7c2325;fill-opacity:1;fill-rule:nonzero;stroke:none" transform="translate(183.161 234.86)"></path><path d="M0 0c1.735-4.532 5.849-11.758 15.115-15.574q.155-.065.281-.176c.108-.094 11.006-9.424 30.124-3.854 7.398 2.156 11.839 6.043 13.199 11.555 1.395 5.651-1.036 11.1-2.195 12.218-.281.27-.378.681-.25 1.05 2.995 8.572.984 15.737-6.147 21.843-.043-2.553-.393-6.882-2.066-10.497a1.002 1.002 0 0 0-1.904.504c.052.625 1.106 15.323-12.845 16.728-4.149.417-7.429-.42-9.75-2.49-2.185-1.948-3.102-4.605-3.486-6.433 3.476 2.128 11.019 5.577 16.835-.006 3.027-2.905 3.484-8.679 1.191-15.068-2.606-7.265-9.315-16.027-19.646-16.812C17.958-7.036 7.942-7.42 0 0m33.515-23.411c-11.575 0-18.25 5.163-19.31 6.049C-.819-11.087-3.058 3.133-3.146 3.737a.997.997 0 0 0 .885 1.139c.348.04.7-.111.912-.392 7.495-9.943 19.567-9.514 19.682-9.5 9.348.711 15.482 8.789 17.886 15.492 1.992 5.55 1.72 10.633-.693 12.949-6.499 6.238-15.708-1.094-16.096-1.409a1.001 1.001 0 0 0-1.631.791c.004.25.138 6.165 4.432 9.993 2.757 2.458 6.554 3.461 11.281 2.987 9.956-1.003 13.19-8.068 14.213-13.265.565 3.492.37 6.542.367 6.588a1 1 0 0 0 1.6.867c8.938-6.756 11.849-15.119 8.659-24.863 1.733-2.229 3.714-7.952 2.31-13.641-1.061-4.301-4.452-10.046-14.582-12.996-4.672-1.362-8.868-1.888-12.564-1.888" style="fill:#000;fill-opacity:1;fill-rule:nonzero;stroke:none" transform="translate(125.943 229.972)"></path><path d="M0 0c-1.07-10.856-7.429-19.849-16.512-25.555 4.127 3.112 7.846 6.831 10.393 11.259C-3.542-9.885-2.264-4.867-1.992.181-1.892 1.534.143 1.36 0 0" style="fill:#000;fill-opacity:1;fill-rule:nonzero;stroke:none" transform="translate(174.19 248.609)"></path><path d="M0 0c14.118.886 24.861 6.696 32.993 18.325C25.077 6.367 14.312.263.084-.996-.572-1.061-.673-.049 0 0" style="fill:#000;fill-opacity:1;fill-rule:nonzero;stroke:none" transform="translate(140.636 213.972)"></path><path d="M0 0c-4.631-7.85-11.099-15.1-19.692-18.574C-11.275-14.801-5.18-7.452-.867.498-.547 1.075.34.577 0 0" style="fill:#000;fill-opacity:1;fill-rule:nonzero;stroke:none" transform="translate(183.595 235.628)"></path><path d="M0 0c1.391-1.48 1.994-3.444 2.023-5.419.014-.635-.056-1.265-.148-1.885.009.628-.005 1.253-.101 1.866C1.533-3.699.716-1.878-.639-.769z" style="fill:#000;fill-opacity:1;fill-rule:nonzero;stroke:none" transform="translate(181.286 232.68)"></path><path d="M0 0c-2.389-3.449-6.325-5.913-10.627-6.654-4.424-.762-9.211.199-13.32-1.523-3.727-1.562-6.25-5.374-6.1-9.212-2.713 1.045-5.108 3.05-5.922 5.702s-.272 5.643 1.431 7.891C-32.219-.735-28.092.71-24.108.959s7.949-.52 11.906-1.023S-3.751-1.289 0 0" style="fill:#9c8530;fill-opacity:1;fill-rule:nonzero;stroke:none" transform="translate(161.782 206.887)"></path><path d="M0 0q-.761 0-1.516-.046c-4.264-.266-7.798-1.855-9.696-4.36-1.501-1.982-1.988-4.662-1.272-6.994.546-1.779 2.015-3.387 4.035-4.472.464 3.69 3.031 7.096 6.644 8.61 2.68 1.123 5.586 1.18 8.396 1.234 1.714.033 3.487.067 5.141.352a15.8 15.8 0 0 1 8.107 4.066c-2.907-.326-5.978.072-8.775.435l-.863.112c-.821.104-1.642.22-2.464.335C5.193-.369 2.577 0 0 0m-7.518-18.396a1 1 0 0 0-.359.067c-3.296 1.269-5.672 3.581-6.519 6.342-.915 2.98-.321 6.265 1.59 8.788 2.25 2.97 6.319 4.846 11.165 5.149 3.264.202 6.514-.255 9.657-.697.813-.114 1.625-.229 2.437-.332l.868-.112c3.574-.463 7.625-.99 10.883.129a.999.999 0 0 0 1.147-1.514c-2.525-3.646-6.742-6.289-11.279-7.07-1.804-.311-3.654-.347-5.442-.381-2.744-.054-5.335-.104-7.662-1.078-3.365-1.413-5.622-4.805-5.487-8.252a1 1 0 0 0-.999-1.039" style="fill:#000;fill-opacity:1;fill-rule:nonzero;stroke:none" transform="translate(139.252 206.894)"></path><path d="M0 0c-1.551-2.055-4.211-2.611-6.595-2.693l-6.978-.152c-3.405-.165-7.143.318-10.073-1.743-.933-.668-1.709-1.599-2.059-2.715.309 1.128 1.059 2.102 1.984 2.815 2.877 2.195 6.741 1.86 10.129 2.143l6.95.4c2.154.154 4.552.707 5.83 2.529C-.438 1.128.401.538 0 0" style="fill:#000;fill-opacity:1;fill-rule:nonzero;stroke:none" transform="translate(156.78 205.432)"></path><path d="M0 0c-3.339-1.797-6.686-3.626-9.662-5.976-2.975-2.351-5.588-5.27-7.067-8.761-1.48-3.492-1.729-7.601-.158-11.052 1.571-3.452 5.118-6.062 8.91-6.021 3.678.039 6.885 2.365 9.813 4.59 1.112-3.195.473-6.9-1.235-9.82-1.707-2.921-4.734-5.034-8.064-5.632 2.041-3.131 3.005-7.024 2.558-10.735a16.23 16.23 0 0 0-4.96-9.804c.726 2.642-.822 5.337-2.544 7.469-1.722 2.131-4.103 3.62-6.517 4.917s-4.923 2.453-7.114 4.098c-6.17 4.63-9.082 12.91-8.026 20.551s5.738 14.525 11.95 19.098S-7.674-.778 0 0" style="fill:#7c2325;fill-opacity:1;fill-rule:nonzero;stroke:none" transform="translate(179.666 209.722)"></path><path d="M0 0c-7.049-1.177-12.354-3.188-16.454-6.206-6.372-4.69-10.582-11.408-11.552-18.43-1.056-7.641 1.941-15.341 7.635-19.614 1.631-1.224 3.429-2.158 5.332-3.146.553-.289 1.107-.576 1.655-.871 2.312-1.242 4.929-2.827 6.822-5.169 1.566-1.94 2.505-3.729 2.827-5.405 1.566 2.109 2.595 4.64 2.907 7.231.411 3.425-.464 7.095-2.403 10.07a1 1 0 0 0 .661 1.53c3.053.548 5.811 2.474 7.377 5.152 1.411 2.413 1.942 5.169 1.508 7.621-2.49-1.838-5.65-3.857-9.212-3.896h-.099c-4.027-.001-7.928 2.644-9.733 6.607-1.604 3.525-1.551 7.847.148 11.856 1.41 3.327 3.889 6.407 7.368 9.156C-3.561-2.21-1.764-1.044 0 0m-4.796-62.533a1.002 1.002 0 0 0-.964 1.264c.504 1.836-.267 3.988-2.358 6.577-1.669 2.065-4.077 3.516-6.212 4.664q-.813.433-1.631.856c-1.892.984-3.848 1.999-5.61 3.322-6.267 4.704-9.571 13.137-8.417 21.488 1.044 7.553 5.545 14.758 12.348 19.767C-12.292-.659-5.108 1.65 4.968 2.673c.47.04.917-.245 1.057-.702A1 1 0 0 0 5.543.797C1.861-1.185-1.178-2.876-3.973-5.084c-3.213-2.538-5.489-5.353-6.766-8.366-1.481-3.495-1.543-7.231-.169-10.248 1.472-3.236 4.779-5.44 7.99-5.435 3.234.035 6.088 2.008 9.218 4.387a1 1 0 0 0 .894.161 1 1 0 0 0 .656-.629c1.148-3.299.655-7.282-1.316-10.654-1.62-2.769-4.313-4.86-7.376-5.78 1.687-3.123 2.412-6.768 1.999-10.201-.471-3.918-2.391-7.714-5.268-10.414a1 1 0 0 0-.685-.27" style="fill:#000;fill-opacity:1;fill-rule:nonzero;stroke:none" transform="translate(174.597 208.044)"></path><path d="M0 0c-9.945-6.439-22.641-18.444-16.148-31.267 1.999-3.862 5.798-6.517 9.844-7.991-4.071 1.397-7.951 3.982-10.064 7.872C-23.223-18.409-10.58-5.931-.526.85.031 1.21.588.351 0 0" style="fill:#000;fill-opacity:1;fill-rule:nonzero;stroke:none" transform="translate(172.008 208.098)"></path><path d="M0 0c1.138-.039 2.276-.064 3.413-.115 4.079-.183 8.19-.447 12.129-1.523s7.812-3.038 10.48-6.129c8.71-2.741 12.28-9.952 14.329-17.317-3.754 4.338-9.862 6.058-15.59 5.748-5.728-.311-11.197-2.393-16.497-4.587S-2.349-28.47-8.014-29.37c-4.609-.732-9.331-.478-13.936.275a65 65 0 0 0-12.315 3.278c-2.395 3.943-5.662 8.031-5.786 12.642-.08 2.981.788 6.079 2.52 8.462C-24.277-5.224-11.72-3.783 0 0" style="fill:#7c2325;fill-opacity:1;fill-rule:nonzero;stroke:none" transform="translate(423.351 368.95)"></path><path d="M0 0a64 64 0 0 1 11.805-3.108c5.087-.832 9.541-.922 13.616-.274 5.055.803 9.939 2.838 14.664 4.805l1.39.577c5.272 2.184 10.915 4.342 16.826 4.662 5.152.284 9.989-1.022 13.587-3.56-1.956 5.387-5.36 10.907-12.573 13.177a1 1 0 0 0-.457.301c-2.884 3.342-7.023 5.008-9.987 5.817-3.852 1.054-7.996 1.313-11.91 1.489-.721.032-1.442.053-2.165.075l-1.062.034c-11.228-3.6-23.729-5.189-37.161-4.727-1.367-2.087-2.102-4.758-2.031-7.416.094-3.488 2.205-6.77 4.248-9.945C-.798 1.267-.39.631 0 0m19.819-5.809c-2.61 0-5.374.242-8.337.727A66 66 0 0 0-1.023-1.753a1 1 0 0 0-.504.417C-1.962-.621-2.425.098-2.892.825-5.083 4.23-7.349 7.752-7.458 11.798c-.088 3.277.9 6.585 2.711 9.077.196.27.497.432.848.412 13.464-.52 25.984 1.049 37.184 4.665.111.035.229.05.343.048l1.228-.04c.732-.022 1.463-.043 2.195-.076 4.026-.181 8.296-.45 12.347-1.557 3.169-.866 7.585-2.646 10.787-6.227 9.599-3.159 13-11.724 14.722-17.916a.999.999 0 0 0-1.719-.922c-3.211 3.71-8.721 5.726-14.78 5.403C52.813 4.362 47.353 2.27 42.24.153l-1.386-.576c-4.833-2.013-9.83-4.094-15.119-4.934a37.5 37.5 0 0 0-5.916-.452" style="fill:#000;fill-opacity:1;fill-rule:nonzero;stroke:none" transform="translate(389.758 343.95)"></path><path d="M0 0c-6.721 0-12.667 1.486-18.062 4.455a.5.5 0 1 0 .483.876c11.09-6.104 24.657-5.76 42.69 1.084 12.363 4.69 25.146 2.307 25.273 2.282a.5.5 0 1 0-.19-.982c-.123.023-12.64 2.351-24.727-2.235C15.835 1.825 7.442 0 0 0" style="fill:#000;fill-opacity:1;fill-rule:nonzero;stroke:none" transform="translate(401.149 352.203)"></path><path d="M0 0c8.243-3.471 17.653-4.108 26.478-2.926 2.994.359 5.927 1.084 8.846 1.839-1.455-.396-2.896-.853-4.366-1.199C20.662-4.694 9.546-4.768-.428-.904-1.048-.638-.621.316 0 0" style="fill:#000;fill-opacity:1;fill-rule:nonzero;stroke:none" transform="translate(384.049 353.14)"></path><path d="M0 0c8.463-3.349 17.844-4.195 26.88-3.459-4.556-.552-9.164-.677-13.743-.287-4.61.422-9.153 1.221-13.532 2.827C-1.027-.672-.624.291 0 0" style="fill:#000;fill-opacity:1;fill-rule:nonzero;stroke:none" transform="translate(386.88 347.384)"></path><path d="M0 0c3.448-1.978 7.786-2.853 11.526-1.506s6.729 4.914 6.876 8.886c.146 3.937-2.396 7.582-5.635 9.824-1.589 1.1-3.332 1.922-5.144 2.6 1.825.013 3.646.145 5.449.431 5.665.901 10.979 3.253 16.279 5.447s10.769 4.276 16.497 4.587 11.836-1.41 15.59-5.748c0 0 7.407-13.347 1.337-26.479S38.786-33.194 39.27-47.71c0 0-8.129 7.162-8.71 17.613 0 0-22.161-14.226-28.355-36.968C-3.253-43.325 1.126-24.427 18.657-12 18.657-12 2.246-8.806 0 0" style="fill:#9c8530;fill-opacity:1;fill-rule:nonzero;stroke:none" transform="translate(402.264 319.344)"></path><path d="M0 0c4.052-6.396 16.73-8.944 16.873-8.972a1 1 0 0 0 .387-1.798C1.621-21.855-3.906-38.338.424-61.083c7.44 20.724 27.408 33.738 27.621 33.875a1 1 0 0 0 1.538-.787c.394-7.074 4.467-12.647 6.784-15.273.821 9.171 7.663 19.163 14.299 28.851C54.348-9.04 57.826-3.961 59.893.508c5.528 11.961-.653 24.331-1.258 25.488-3.222 3.658-8.692 5.642-14.708 5.321-5.596-.303-11.056-2.396-16.168-4.512l-1.386-.576c-4.833-2.013-9.83-4.094-15.119-4.935a34 34 0 0 0-1.526-.206q.866-.483 1.633-1.015c3.886-2.69 6.21-6.783 6.065-10.683C17.27 5.167 14.17 1.141 9.89-.4 6.927-1.466 3.374-1.299 0 0m.23-66.018H.211a1 1 0 0 0-.955.776c-5.59 24.31-.511 42.737 15.098 54.809C9.691-9.205-1.054-5.61-2.943 1.799a1.001 1.001 0 0 0 1.466 1.115C2.063.882 6.06.348 9.212 1.481c3.532 1.272 6.088 4.555 6.216 7.983.143 3.854-2.595 7.158-5.205 8.965-1.357.939-2.968 1.752-4.925 2.485a1 1 0 0 0 .343 1.936 35.6 35.6 0 0 1 5.298.42c5.055.803 9.94 2.837 14.665 4.805l1.389.577c5.273 2.183 10.915 4.342 16.826 4.662 6.661.358 12.787-1.917 16.4-6.092a1 1 0 0 0 .118-.169c.312-.563 7.583-13.946 1.37-27.384-2.136-4.622-5.66-9.768-9.392-15.215-6.714-9.806-14.327-20.92-14.021-30.083a.998.998 0 0 0-1.66-.784c-.326.288-7.582 6.785-8.883 16.567-4.894-3.528-21.425-16.595-26.556-35.435a1 1 0 0 0-.965-.737" style="fill:#000;fill-opacity:1;fill-rule:nonzero;stroke:none" transform="translate(404.24 317.298)"></path><path d="M0 0c8.54-3.729 9.164-13.729 6.312-21.464l-1.249-3.239 1.13 3.278C8.648-13.939 7.903-4.199-.375-.926-.991-.691-.616.261 0 0" style="fill:#000;fill-opacity:1;fill-rule:nonzero;stroke:none" transform="translate(426.116 343.177)"></path><path d="M0 0c3.879-4.05 5.699-10.002 4.212-15.449.222 1.353.394 2.718.265 4.078C4.234-7.364 2.228-3.462-.673-.739-1.207-.299-.493.497 0 0" style="fill:#000;fill-opacity:1;fill-rule:nonzero;stroke:none" transform="translate(458.516 348.245)"></path><path d="M0 0c-3.068-6.938-10.69-9.983-16.666-13.799A35.8 35.8 0 0 1-27.977-25.25c-.978-1.53-1.804-3.155-2.553-4.822.537 1.749 1.282 3.434 2.128 5.067 2.622 4.884 6.5 9.085 11.197 12.048C-11.113-9.083-3.772-6.533 0 0" style="fill:#000;fill-opacity:1;fill-rule:nonzero;stroke:none" transform="translate(440.814 301.957)"></path><path d="M0 0c14.483-7.813 7.957-30.985-2.103-39.986-5.49-5.243-12.199-8.896-17.544-14.203-5.441-5.228-9.126-12.058-11.123-19.303 1.92 7.283 5.545 14.174 10.947 19.48 5.317 5.394 12.011 9.143 17.371 14.384C7.092-30.97 13.464-8.319-.379-.925-1.031-.694-.641.299 0 0" style="fill:#000;fill-opacity:1;fill-rule:nonzero;stroke:none" transform="translate(439.982 348.514)"></path><path d="m0 0 5.063 3.584a.646.646 0 0 0 .94-.117.64.64 0 0 0 .109-.473c-.143-.867-.203-1.828-.208-2.756A22.3 22.3 0 0 1 7.445-8.09C5.634-4.657 4.693-.751 4.824 3.158l1.048-.59-4.626-4.133C.189-2.464-1.116-.832 0 0" style="fill:#000;fill-opacity:1;fill-rule:nonzero;stroke:none" transform="translate(430.575 288.902)"></path><path d="M0 0c4.274 7.551 10.121 15.187 14.366 22.008C29.959 8.681 34.257-36.149 26.902-50.987S3.806-65.052 3.806-65.052C20.281-52.149 11.419-13.988 0 0" style="fill:#9c8530;fill-opacity:1;fill-rule:nonzero;stroke:none" transform="translate(447.148 289.01)"></path><path d="M0 0c7.478-9.606 14.242-29.943 12.357-46.88-.822-7.386-3.186-13.14-7.038-17.151 4.66.486 14.232 2.801 19.483 13.395 6.917 13.955 3.001 57.153-11.43 71.011-1.581-2.484-3.33-5.038-5.168-7.723C5.37 8.514 2.443 4.241 0 0m2.893-66.148c-.21 0-.329.004-.341.004a1.002 1.002 0 0 0-.568 1.787c4.663 3.652 7.485 9.607 8.385 17.698C12.175-30.442 5.441-9.815-1.979-.726A1 1 0 0 0-2.075.399c2.551 4.507 5.64 9.02 8.629 13.384 2.076 3.031 4.037 5.895 5.759 8.661a1 1 0 0 0 1.498.232c16.02-13.692 20.252-59.132 12.782-74.2-6.948-14.02-21.303-14.624-23.7-14.624" style="fill:#000;fill-opacity:1;fill-rule:nonzero;stroke:none" transform="translate(448.353 289.102)"></path><path d="M0 0c5.659-7.291 9.662-15.881 11.384-24.947C9.363-16.05 5.083-7.641-.756-.655-1.212-.16-.433.531 0 0" style="fill:#000;fill-opacity:1;fill-rule:nonzero;stroke:none" transform="translate(455.183 301.291)"></path><path d="M0 0c4.551 13.565 7.061 28.515 3.608 42.623 2.928-10.55 2.213-21.751.094-32.392C2.971 6.665 2.092 3.141.94-.341.727-.968-.243-.636 0 0" style="fill:#000;fill-opacity:1;fill-rule:nonzero;stroke:none" transform="translate(463.821 227.657)"></path><path d="M0 0c3.59 3.127 5.6 7.883 6.324 12.536.103.684.159 1.375.242 2.065-.041-.692-.056-1.388-.118-2.08-.324-3.483-1.329-6.923-3.159-9.931C2.544 1.378 1.724.245.629-.778A.502.502 0 1 0 0 0" style="fill:#000;fill-opacity:1;fill-rule:nonzero;stroke:none" transform="translate(455.78 224.84)"></path><path d="M0 0c19.935-5.806 31.065 4.065 31.065 4.065 14.806 6.096 16.891 20.38 16.891 20.38l-.009.001c-7.921-10.508-20.528-9.898-20.528-9.898C11.29 15.774 2.866 38.266 9.581 44.71 16.808 51.645 27 43.355 27 43.355s-.194 13.451-14.613 12C-2.739 53.832-1.355 37.548-1.355 37.548-3.774 42.774-3.29 49.742-3.29 49.742c-8.369-6.325-11.638-14.247-8.129-24.29C-14.129 22.839-19.935 5.806 0 0" style="fill:#7c2325;fill-opacity:1;fill-rule:nonzero;stroke:none" transform="translate(423.534 209.409)"></path><path d="M0 0c-7.133-6.106-9.143-13.271-6.148-21.844a1 1 0 0 0-.25-1.05c-1.16-1.118-3.589-6.568-2.195-12.218 1.361-5.512 5.801-9.399 13.199-11.554 19.188-5.586 30.015 3.758 30.123 3.853a1 1 0 0 0 .282.176c9.267 3.816 13.381 11.043 15.116 15.575-7.942-7.421-17.945-7.032-18.43-7.014-10.358.787-17.067 9.549-19.674 16.814C9.731-10.873 10.188-5.1 13.215-2.194c5.812 5.578 13.351 2.137 16.83.008-.389 1.836-1.312 4.503-3.493 6.442-2.321 2.061-5.598 2.895-9.738 2.478C2.863 5.329 3.917-9.368 3.968-9.993a1 1 0 0 0-.741-1.051 1 1 0 0 0-1.163.547C.392-6.883.042-2.554 0 0m16.611-50.474c-3.696 0-7.89.527-12.563 1.888-10.13 2.95-13.522 8.695-14.583 12.994-1.404 5.691.576 11.413 2.31 13.644-3.19 9.744-.279 18.107 8.66 24.862a1 1 0 0 0 1.6-.867c-.004-.045-.199-3.096.366-6.586C3.425.657 6.659 7.722 16.613 8.725c4.73.474 8.524-.53 11.283-2.988 4.293-3.828 4.427-9.743 4.431-9.993a1 1 0 0 0-1.63-.791c-.39.316-9.595 7.649-16.097 1.409-2.413-2.315-2.685-7.397-.694-12.949 2.405-6.701 8.539-14.78 17.916-15.493.094-.005 12.16-.439 19.653 9.502.21.28.549.428.898.393.272-.027.525-.165.693-.379a1 1 0 0 0 .206-.761c-.087-.605-2.327-14.825-17.351-21.1-1.06-.886-7.737-6.049-19.31-6.049" style="fill:#000;fill-opacity:1;fill-rule:nonzero;stroke:none" transform="translate(419.207 257.034)"></path><path d="M0 0c.341-10.541 6.045-19.614 14.52-25.735C7.992-21.532 2.271-15.455-.235-7.923-1.107-5.419-1.67-2.809-1.992-.181A1.001 1.001 0 1 0 0 0" style="fill:#000;fill-opacity:1;fill-rule:nonzero;stroke:none" transform="translate(423.078 248.79)"></path><path d="M0 0c-14.228 1.258-25.001 7.371-32.91 19.321C-24.77 7.685-14.034 1.884.084.997.741.955.672-.068 0 0" style="fill:#000;fill-opacity:1;fill-rule:nonzero;stroke:none" transform="translate(454.557 212.975)"></path><path d="M0 0c4.312-7.949 10.408-15.299 18.824-19.071C10.23-15.597 3.764-8.349-.867-.497-1.203.072-.327.585 0 0" style="fill:#000;fill-opacity:1;fill-rule:nonzero;stroke:none" transform="translate(412.548 236.125)"></path><path d="M0 0c-1.862-1.539-2.604-4.167-2.514-6.535-.316 1.891-.152 3.893.719 5.632.303.596.634 1.14 1.156 1.672z" style="fill:#000;fill-opacity:1;fill-rule:nonzero;stroke:none" transform="translate(414.629 231.911)"></path><path d="M0 0c2.389-3.449 6.325-5.913 10.627-6.654 4.424-.762 9.211.199 13.32-1.523 3.727-1.562 6.25-5.374 6.1-9.212 2.713 1.045 5.108 3.05 5.922 5.702s.272 5.643-1.431 7.891C32.219-.735 28.092.71 24.108.959S16.159.439 12.202-.064 3.751-1.289 0 0" style="fill:#9c8530;fill-opacity:1;fill-rule:nonzero;stroke:none" transform="translate(433.495 206.887)"></path><path d="M0 0a15.8 15.8 0 0 1 8.107-4.065c1.655-.286 3.427-.32 5.141-.353 2.811-.054 5.717-.11 8.396-1.233 3.613-1.515 6.18-4.92 6.643-8.611 2.021 1.085 3.49 2.694 4.036 4.472.716 2.333.229 5.013-1.272 6.994-1.899 2.505-5.432 4.094-9.696 4.36-3.054.191-6.208-.252-9.253-.681C11.28.768 10.459.651 9.638.547L8.775.436C5.978.072 2.906-.325 0 0m27.356-16.786c-.206 0-.409.063-.582.186-.273.197-.43.517-.417.853.135 3.447-2.121 6.841-5.487 8.252-2.326.974-4.917 1.024-7.66 1.078-1.789.034-3.639.07-5.442.381-4.538.781-8.754 3.425-11.281 7.07a1 1 0 0 0 .026 1.173 1 1 0 0 0 1.122.342c3.257-1.119 7.307-.593 10.883-.13l.868.112c.811.103 1.624.218 2.436.332 3.145.444 6.396.901 9.658.698 4.845-.303 8.915-2.18 11.165-5.15 1.91-2.521 2.504-5.807 1.59-8.788-.847-2.761-3.223-5.072-6.519-6.342a1 1 0 0 0-.36-.067" style="fill:#000;fill-opacity:1;fill-rule:nonzero;stroke:none" transform="translate(436.185 205.284)"></path><path d="M0 0c1.28-1.822 3.676-2.375 5.83-2.529l6.95-.4c3.388-.283 7.253.052 10.129-2.143.925-.713 1.675-1.687 1.984-2.815-.35 1.116-1.126 2.047-2.059 2.715-2.93 2.062-6.667 1.578-10.073 1.743l-6.978.152C3.4-3.195.739-2.639-.812-.584-1.203-.05-.387.548 0 0" style="fill:#000;fill-opacity:1;fill-rule:nonzero;stroke:none" transform="translate(439.307 206.016)"></path><path d="M0 0c3.339-1.797 6.686-3.626 9.662-5.976 2.975-2.351 5.588-5.27 7.067-8.761 1.48-3.492 1.729-7.601.158-11.052-1.571-3.452-5.118-6.062-8.91-6.021-3.678.039-6.885 2.365-9.813 4.59-1.112-3.195-.473-6.9 1.235-9.82 1.707-2.921 4.734-5.034 8.064-5.632-2.041-3.131-3.005-7.024-2.558-10.735a16.23 16.23 0 0 1 4.96-9.804c-.726 2.642.822 5.337 2.544 7.469 1.722 2.131 4.103 3.62 6.517 4.917s4.923 2.453 7.114 4.098c6.17 4.63 9.082 12.91 8.026 20.551s-5.738 14.525-11.95 19.098S7.674-.778 0 0" style="fill:#7c2325;fill-opacity:1;fill-rule:nonzero;stroke:none" transform="translate(415.61 209.722)"></path><path d="M0 0c-.433-2.452.098-5.208 1.508-7.621 1.566-2.678 4.324-4.604 7.378-5.151a1.003 1.003 0 0 0 .661-1.531c-1.939-2.974-2.815-6.644-2.402-10.07.311-2.592 1.34-5.122 2.906-7.231.322 1.676 1.26 3.465 2.826 5.405 1.894 2.343 4.512 3.928 6.822 5.17q.825.44 1.657.871c1.903.988 3.7 1.922 5.331 3.145 5.694 4.274 8.691 11.973 7.635 19.615-.97 7.021-5.181 13.739-11.552 18.429-4.1 3.019-9.405 5.03-16.454 6.205 1.763-1.043 3.56-2.208 5.212-3.512 3.48-2.749 5.958-5.829 7.368-9.156 1.699-4.009 1.752-8.332.148-11.857-1.804-3.963-5.706-6.607-9.731-6.607h-.1C5.65-3.856 2.49-1.838 0 0m11.111-35.296a1 1 0 0 0-.684.271c-2.877 2.7-4.797 6.495-5.269 10.414-.412 3.432.313 7.078 1.999 10.2-3.063.921-5.757 3.012-7.376 5.78-1.97 3.373-2.463 7.356-1.315 10.654a1 1 0 0 0 .655.629.99.99 0 0 0 .895-.161C3.146.112 5.999-1.86 9.234-1.896c3.279-.037 6.516 2.2 7.99 5.435 1.373 3.018 1.311 6.753-.169 10.249-1.277 3.013-3.554 5.827-6.767 8.365-2.798 2.211-5.835 3.902-9.516 5.881a1 1 0 0 0-.482 1.174c.141.457.589.742 1.057.702 10.077-1.022 17.261-3.331 22.608-7.267 6.804-5.009 11.305-12.214 12.348-19.768 1.154-8.351-2.15-16.784-8.415-21.487-1.764-1.324-3.719-2.339-5.61-3.322-.546-.283-1.091-.566-1.632-.857-2.135-1.147-4.543-2.599-6.212-4.665-2.091-2.588-2.863-4.739-2.359-6.575a.998.998 0 0 0-.964-1.265" style="fill:#000;fill-opacity:1;fill-rule:nonzero;stroke:none" transform="translate(414.363 180.807)"></path><path d="M0 0c10.05-6.774 22.7-19.266 15.842-32.236-2.113-3.89-5.993-6.475-10.064-7.872 4.046 1.474 7.845 4.129 9.844 7.991C22.112-19.288 9.423-7.295-.526-.85-1.1-.521-.572.376 0 0" style="fill:#000;fill-opacity:1;fill-rule:nonzero;stroke:none" transform="translate(423.794 208.949)"></path><path d="M0 0c-.874-3.124-2.144-5.699-4.639-7.771-2.848-2.363-6.405-3.666-9.886-4.925-4.098-1.482-8.234-2.981-11.91-5.321-3.676-2.341-6.905-5.628-8.366-9.733-1.399 3.9-2.62 7.714-4.018 11.614-.99 2.76.364 6.036 2.376 8.167s4.722 3.447 7.403 4.633c4.42 1.954 8.949 3.683 13.214 5.955s7.797 4.499 10.74 8.332z" style="fill:#7c2325;fill-opacity:1;fill-rule:nonzero;stroke:none" transform="translate(419.518 513.036)"></path><path d="M0 0c-2.714-3.095-5.911-5.153-10.034-7.35-3.053-1.627-6.273-2.993-9.387-4.314a268 268 0 0 1-3.892-1.674c-2.538-1.121-5.174-2.386-7.08-4.404-1.705-1.805-3.034-4.713-2.163-7.143a355 355 0 0 0 2.014-5.82c.389-1.146.778-2.292 1.177-3.442 2.015 3.697 5.195 6.283 7.715 7.887 3.779 2.406 8.013 3.937 12.108 5.418 3.361 1.216 6.838 2.473 9.586 4.754 2.01 1.668 3.282 3.75 4.214 6.918zm-29.479-37.837a1 1 0 0 0-.941.663c-.701 1.956-1.358 3.891-2.016 5.826-.653 1.922-1.305 3.845-2.002 5.788-1.237 3.449.623 7.107 2.59 9.191 2.161 2.289 5.002 3.656 7.726 4.86 1.301.575 2.61 1.131 3.92 1.687 3.074 1.303 6.253 2.652 9.227 4.237C-6.554-3.23-3.27-1.061-.557 2.473a1.002 1.002 0 0 0 1.701-.187L6.229-8.666c.1-.216.121-.46.056-.69-1.045-3.738-2.575-6.289-4.964-8.271-3.016-2.504-6.824-3.881-10.183-5.096-3.992-1.444-8.121-2.937-11.714-5.225-2.759-1.756-6.379-4.782-7.96-9.224a1 1 0 0 0-.942-.665z" style="fill:#9c8530;fill-opacity:1;fill-rule:nonzero;stroke:none" transform="translate(414.195 522.122)"></path><path d="M0 0c-.363 0-.724.165-.9.48l-7.838 14.021a1 1 0 0 0 .792 1.485c10.376.836 17.021-1.205 19.775-6.071a1 1 0 0 0-.077-1.102C8.82 4.994 5.345 2.688.688.208L.527.127A1.1 1.1 0 0 0 0 0" style="fill:#9c8530;fill-opacity:1;fill-rule:nonzero;stroke:none" transform="translate(403.473 514.564)"></path><g clip-path="url(#b)"><path d="M0 0a20.4 20.4 0 0 0-1.404-3.188 19 19 0 0 0-1.94-2.892 17 17 0 0 0-2.449-2.453 15 15 0 0 0-2.926-1.871A15.5 15.5 0 0 1-5.99-8.377a15.3 15.3 0 0 1 2.217 2.572 19.4 19.4 0 0 1 1.68 2.923A18 18 0 0 1-.962.276C-.794.93.206.649 0 0" style="fill:#9c8530;fill-opacity:1;fill-rule:nonzero;stroke:none" transform="translate(419.013 515.04)"></path><path d="M0 0c.947.533 1.83 1.165 2.638 1.881.785.694 1.5 1.466 2.133 2.303l.074.098A20.5 20.5 0 0 1 6.579 7.01c.457.863.848 1.756 1.167 2.655q.056.152.115.282c.236.535 1.116.202.873-.4a22 22 0 0 0-1.523-2.923 20 20 0 0 0-1.974-2.655 17.2 17.2 0 0 0-2.409-2.252A15 15 0 0 0 0 0" style="fill:#9c8530;fill-opacity:1;fill-rule:nonzero;stroke:none" transform="translate(409.499 507.094)"></path><path d="M0 0a15.2 15.2 0 0 1 2.548 1.735 16.6 16.6 0 0 1 2.196 2.23c.61.744 1.176 1.536 1.683 2.36l.106.173c.483.801.913 1.628 1.284 2.462.044.1.097.183.149.255.298.414 1.064.031.783-.524a24 24 0 0 0-1.642-2.659 21 21 0 0 0-2.008-2.418 17.6 17.6 0 0 0-2.37-2.052A15 15 0 0 0 0 0" style="fill:#9c8530;fill-opacity:1;fill-rule:nonzero;stroke:none" transform="translate(408.703 509.55)"></path><path d="M0 0c.873.449 1.692.984 2.457 1.589a17.5 17.5 0 0 1 2.111 1.976l.075.083a23 23 0 0 1 1.843 2.338c.51.738.984 1.497 1.402 2.268a.8.8 0 0 0 .182.228c.354.298 1.013-.139.694-.647A28 28 0 0 0 7.003 5.44a23 23 0 0 0-2.041-2.18 18 18 0 0 0-2.331-1.852A15.3 15.3 0 0 0 0 0" style="fill:#9c8530;fill-opacity:1;fill-rule:nonzero;stroke:none" transform="translate(407.907 512.008)"></path><path d="M0 0a35 35 0 0 0-1.88-2.13 26 26 0 0 0-2.075-1.944 19 19 0 0 0-2.292-1.651A15.5 15.5 0 0 0-8.78-6.979a15 15 0 0 1 2.367 1.443 19 19 0 0 1 2.099 1.812 25 25 0 0 1 1.856 2.072A34 34 0 0 1-.822.57C-.454 1.161.427.553 0 0" style="fill:#9c8530;fill-opacity:1;fill-rule:nonzero;stroke:none" transform="translate(415.891 521.445)"></path></g><g clip-path="url(#c)"><path d="M0 0c2.628 3.06 5.485 6.074 9.095 7.934C5.696 5.814 3.119 2.602.803-.596z" style="fill:#9c8530;fill-opacity:1;fill-rule:nonzero;stroke:none" transform="translate(383.16 488.883)"></path><path d="M0 0c2.404 2.92 5.133 5.68 8.489 7.458C5.356 5.429 2.904 2.47.82-.569z" style="fill:#9c8530;fill-opacity:1;fill-rule:nonzero;stroke:none" transform="translate(382.375 491.183)"></path><path d="M0 0c2.179 2.78 4.781 5.286 7.882 6.981C5.015 5.044 2.689 2.338.838-.542z" style="fill:#9c8530;fill-opacity:1;fill-rule:nonzero;stroke:none" transform="translate(381.59 493.483)"></path><path d="M0 0c1.955 2.64 4.429 4.892 7.276 6.505C4.675 4.659 2.474 2.206.855-.515z" style="fill:#9c8530;fill-opacity:1;fill-rule:nonzero;stroke:none" transform="translate(380.803 495.784)"></path><path d="M0 0c1.731 2.5 4.077 4.497 6.669 6.029C4.335 4.274 2.259 2.074.873-.488z" style="fill:#9c8530;fill-opacity:1;fill-rule:nonzero;stroke:none" transform="translate(380.018 498.084)"></path></g><path d="M0 0c.874-3.124 2.144-5.699 4.639-7.771 2.848-2.363 6.405-3.666 9.886-4.925 4.098-1.482 8.234-2.981 11.91-5.321 3.676-2.341 6.905-5.628 8.366-9.733 1.399 3.9 2.62 7.714 4.018 11.614.99 2.76-.364 6.036-2.376 8.167s-4.722 3.447-7.403 4.633C24.62-1.382 20.091.347 15.826 2.619s-7.797 4.499-10.74 8.332z" style="fill:#7c2325;fill-opacity:1;fill-rule:nonzero;stroke:none" transform="translate(175.758 513.036)"></path><path d="M0 0a358 358 0 0 1-2.013-5.82c-.39-1.146-.779-2.292-1.177-3.443-2.017 3.698-5.197 6.284-7.716 7.887-3.779 2.407-8.012 3.938-12.107 5.418-3.362 1.216-6.838 2.474-9.587 4.755-2.009 1.667-3.281 3.749-4.214 6.918l4.258 9.17q.03-.032.059-.063c.097-.11.198-.21.296-.317.271-.296.545-.588.826-.866.14-.138.285-.27.428-.404q.371-.353.756-.689.241-.207.488-.409a28 28 0 0 1 1.292-1.007q.395-.289.804-.568.274-.19.554-.376.428-.28.87-.555c.187-.116.371-.233.561-.348.323-.194.657-.387.992-.58.175-.1.345-.201.523-.301q.651-.365 1.335-.731c.085-.045.164-.091.25-.136 3.055-1.628 6.276-2.994 9.391-4.315 1.299-.552 2.599-1.103 3.889-1.673 2.537-1.122 5.174-2.386 7.08-4.404C-.458 5.338.871 2.429 0 0m-.708 8.516c-2.162 2.289-5.002 3.656-7.726 4.86-1.299.575-2.608 1.13-3.916 1.685-2.682 1.138-5.437 2.319-8.075 3.653l7.33 13.114a1.002 1.002 0 0 1-.792 1.485c-10.367.838-17.022-1.205-19.775-6.071-.006-.011-.007-.022-.012-.032q-.014-.02-.025-.04l-5.086-10.951c-.1-.216-.12-.461-.056-.691 1.046-3.738 2.577-6.289 4.964-8.27 3.017-2.505 6.824-3.882 10.184-5.096C-19.701.718-15.572-.775-11.98-3.063c2.759-1.756 6.379-4.782 7.961-9.225a1 1 0 0 1 .941-.664h.001a1 1 0 0 1 .942.662A368 368 0 0 1-.12-6.463 364 364 0 0 0 1.883-.675C3.119 2.773 1.26 6.431-.708 8.516" style="fill:#9c8530;fill-opacity:1;fill-rule:nonzero;stroke:none" transform="translate(213.636 497.238)"></path><g clip-path="url(#d)"><path d="M0 0a20.4 20.4 0 0 1 1.404-3.188 19 19 0 0 1 1.94-2.892 17 17 0 0 1 2.449-2.453 15 15 0 0 1 2.926-1.871A15.5 15.5 0 0 0 5.99-8.377a15.3 15.3 0 0 0-2.217 2.572 19.4 19.4 0 0 0-1.68 2.923A18 18 0 0 0 .962.276C.794.93-.206.649 0 0" style="fill:#9c8530;fill-opacity:1;fill-rule:nonzero;stroke:none" transform="translate(176.263 515.04)"></path><path d="M0 0a15.3 15.3 0 0 0-2.638 1.881c-.785.694-1.5 1.466-2.133 2.303l-.074.098A20.5 20.5 0 0 0-6.579 7.01a20 20 0 0 0-1.167 2.655q-.056.152-.115.282c-.236.535-1.116.202-.873-.4a22 22 0 0 1 1.523-2.923 20 20 0 0 1 1.974-2.655 17.2 17.2 0 0 1 2.409-2.252A15 15 0 0 1 0 0" style="fill:#9c8530;fill-opacity:1;fill-rule:nonzero;stroke:none" transform="translate(185.778 507.094)"></path><path d="M0 0a15.2 15.2 0 0 0-2.548 1.735 16.6 16.6 0 0 0-2.196 2.23 21.5 21.5 0 0 0-1.683 2.36l-.106.173A22.5 22.5 0 0 0-7.817 8.96c-.044.1-.097.183-.149.255-.298.414-1.064.031-.783-.524a24 24 0 0 1 1.642-2.659 21 21 0 0 1 2.008-2.418 17.6 17.6 0 0 1 2.37-2.052C-1.879.953-.969.425 0 0" style="fill:#9c8530;fill-opacity:1;fill-rule:nonzero;stroke:none" transform="translate(186.573 509.55)"></path><path d="M0 0c-.873.449-1.692.984-2.457 1.589a17.5 17.5 0 0 0-2.111 1.976l-.075.083a23 23 0 0 0-1.843 2.338c-.51.738-.984 1.497-1.402 2.268a.8.8 0 0 1-.182.228c-.354.298-1.013-.139-.694-.647A28 28 0 0 1-7.003 5.44a23 23 0 0 1 2.041-2.18 18 18 0 0 1 2.331-1.852A15.3 15.3 0 0 1 0 0" style="fill:#9c8530;fill-opacity:1;fill-rule:nonzero;stroke:none" transform="translate(187.369 512.008)"></path><path d="M0 0a35 35 0 0 1 1.88-2.13 26 26 0 0 1 2.075-1.944 19 19 0 0 1 2.292-1.651c.803-.49 1.646-.914 2.533-1.254a15 15 0 0 0-2.367 1.443 19 19 0 0 0-2.099 1.812 25 25 0 0 0-1.856 2.072A34 34 0 0 0 .822.57C.454 1.161-.427.553 0 0" style="fill:#9c8530;fill-opacity:1;fill-rule:nonzero;stroke:none" transform="translate(179.385 521.445)"></path></g><g clip-path="url(#e)"><path d="M0 0c-2.628 3.06-5.485 6.074-9.095 7.934 3.399-2.12 5.976-5.332 8.292-8.53z" style="fill:#9c8530;fill-opacity:1;fill-rule:nonzero;stroke:none" transform="translate(212.115 488.883)"></path><path d="M0 0c-2.404 2.92-5.133 5.68-8.489 7.458C-5.356 5.429-2.904 2.47-.82-.569z" style="fill:#9c8530;fill-opacity:1;fill-rule:nonzero;stroke:none" transform="translate(212.901 491.183)"></path><path d="M0 0c-2.179 2.78-4.781 5.286-7.882 6.981C-5.015 5.044-2.689 2.338-.838-.542z" style="fill:#9c8530;fill-opacity:1;fill-rule:nonzero;stroke:none" transform="translate(213.687 493.483)"></path><path d="M0 0c-1.955 2.64-4.429 4.892-7.276 6.505 2.601-1.846 4.802-4.299 6.421-7.02z" style="fill:#9c8530;fill-opacity:1;fill-rule:nonzero;stroke:none" transform="translate(214.473 495.784)"></path><path d="M0 0c-1.731 2.5-4.077 4.497-6.669 6.029 2.334-1.755 4.41-3.955 5.796-6.517z" style="fill:#9c8530;fill-opacity:1;fill-rule:nonzero;stroke:none" transform="translate(215.258 498.084)"></path></g><path d="m0 0-90.391 28.697L-180.782 0h-16.032v-133.697c0-6.386.55-12.769 1.79-19.034 9.998-50.504 45.789-81.575 104.633-95.278 58.844 13.703 94.635 44.774 104.633 95.278 1.24 6.265 1.79 12.648 1.79 19.034V0Z" style="fill:#751d1e;fill-opacity:1;fill-rule:nonzero;stroke:none" transform="translate(388.03 373.541)"></path><path d="m0 0-95.521-29.12v-122.169c0-5.949.493-11.896 1.606-17.732 5.856-30.702 21.576-53.691 46.464-69.51l8.725 14.031h77.452l8.725-14.031c24.888 15.819 40.608 38.808 46.464 69.51 1.113 5.836 1.606 11.783 1.606 17.732V-29.12Z" style="fill:#9c8530;fill-opacity:1;fill-rule:nonzero;stroke:none" transform="translate(297.638 393.74)"></path><path d="M0 0c-21.187 15.036-34.026 35.568-39.18 62.594-1 5.24-1.507 10.848-1.507 16.67v117.969l89.853 27.392 89.852-27.392V79.264c0-5.824-.507-11.432-1.507-16.67C132.357 35.568 119.519 15.036 98.331 0l-7.289 11.721H7.289Z" style="fill:#751d1e;fill-opacity:1;fill-rule:nonzero;stroke:none" transform="translate(248.473 163.189)"></path><path d="M0 0v-46.832l67.691 67.468zm131.729-185.513 7.289-11.72c21.187 15.036 34.026 35.568 39.179 62.593.961 5.034 1.454 10.415 1.492 15.994l-67.087-66.867zm9.821 197.145L.64-128.814c.232-1.98.506-3.934.866-5.826 3.975-20.84 12.541-37.804 25.959-51.38L179.704-34.282V0Z" style="fill:#a83532;fill-opacity:1;fill-rule:nonzero;stroke:none" transform="translate(207.786 360.422)"></path><path d="m0 0-15.847 24.453-7.623 17.972-.422 11.753.32.091-12.226 12.865-23.617 7.709-4.545 1.061-8.113 7.441-6.511-20.772 8.808-23.913.722-11.706-6.341-13.008-7.319.357-12.68 46.649.051 3.046-3.449-14.017-15.346 25.369-.068.14c-20.713 42.656-20.713 42.656-20.713 43.63-.008.496-.381 16.216-.381 16.216l-.081 3.439 16.867.214-3.818 12.361 8.442 9.921 15.703 44.489-6.89 4.7-5.102 14.639 14.016-1.759-1.427 2.017-14.864 3.604-6.834 11.579 26.067-4.902 2.507 5.557-.89 6.529 20.042-10.65 8.219-17.499 5.385-7.014 11.68-20.152 3.022-5.215v-8.678l-9.055-5.886-12.593 2.352-3.497-3.313 18.689-20.52 19.696-32.595 35.013-16.559 2.256-4.889 2.895-.293.052.808.434-.856 23.059-2.335-5.379-10.888-8.615-4.715 5.287-10.46 2.438-14.825-.793-14.331 6.161-10.812 13.93-19.293 6.098-39.168-18.505-1.578L34.109.279C26.05 9.059 15.672 17.324 2.594 25.362L15.952.668v-27.984L2.319-52.926Z" style="fill:#751d1e;fill-opacity:1;fill-rule:nonzero;stroke:none" transform="translate(348.84 167.001)"></path><path d="m0 0-13.19 23.25.399-11.126 7.262-17.12 16.188-24.982 1.799-41.036 7.394 14.389v25.381L6.662-6.862Zm25.981 51.096 7.061 3.864 2.732 5.529-16.455 1.665 5.063-7.394zm-122.005 6.702 6.629-6.228.319 17.329-10.621 3.593zm35.749 116.014 8.762-9.307-9.307 6.217-5.453-.582-2.909 3.672zM50.789-23.274l-13.56 18.78-6.748 11.841.827 14.96-2.292 13.942-8.912 17.634-.446-7.003-9.931 21.518-31.767 15.024.319-4.138-23.428 38.77-15.597 17.125-1.018-5.921 4.52-16.552-7.64 17.634-.318 11.077 3.629 3.438-8.977-.191-10.376-9.231 8.658 10.759 12.573 1.591 13.973-2.61 6.366 4.138v5.348l-2.928-4.393-4.202 2.356 1.91 3.883 4.038.764-12.95 22.345-5.475 7.13-7.894 16.807-13.178 7.002.382-2.801 10.122-8.467 1.528-5.793-2.801.127 6.621-8.912-15.852 13.751-2.419 5.538-1.464-3.246-21.327 4.01 2.292-3.883 14.706-3.565 6.62-9.358-16.233 2.037 2.928-8.403 6.812-4.648-3.947 5.857-.509 2.992 7.257-1.4 12.35-8.913-2.291-1.146-12.287-.382-16.043-45.454-7.639-8.976 7.767-25.146-6.048 10.185-15.088-.19s.382-16.107.382-16.298 20.372-42.143 20.372-42.143l11.013-18.207 2.992 12.159-2.865 8.721-6.748 6.112-8.276 30.048 4.138-7.257 16.743-4.775-.891 23.364 3.756-23.364-.7-42.398 11.904-43.799 2.61-.128 4.966 10.186-.637 10.313L-77.68 39.05l3.756-4.583 11.714 37.369 2.737 14.642.446-14.706-2.928-7.512 4.201-7.385-6.493-.445 9.231-8.467 3.819-.892 24.574-8.021 10.949-11.522-.254 13.05 2.992-12.605L1.578 3.082c17.132-9.449 32.04-20.037 43.226-32.531l.191-29.539 11.205.955z" style="fill:#9c8530;fill-opacity:1;fill-rule:nonzero;stroke:none" transform="translate(341.538 198.052)"></path><path d="M0 0c45.854 0 53.982 27.506 96.09 28.355 35.145.708 46.352-20.205 46.352-20.205-2.616-9.535-6.939-18.982-12.734-28.355 0 0-21.517 27.913-53.074 14.918C52.348-15.288 48.67-32.32 0-32.32S-52.348-15.288-76.633-5.287c-31.558 12.995-53.075-14.918-53.075-14.918-5.795 9.373-10.118 18.82-12.734 28.355 0 0 11.207 20.913 46.352 20.205C-53.982 27.506-45.854 0 0 0" style="fill:#7c2325;fill-opacity:1;fill-rule:nonzero;stroke:none" transform="translate(297.638 113.31)"></path><path d="M0 0c5.257 0 10.945-1.009 16.985-3.496C24.522-6.6 30.14-10.399 35.573-14.075c12.453-8.423 24.216-16.379 57.665-16.379 33.45 0 45.213 7.956 57.665 16.379 5.433 3.676 11.051 7.475 18.588 10.579 28.24 11.627 48.82-9.045 53.324-14.141 5.403 8.94 9.365 17.85 11.788 26.51-1.601 2.583-13.187 19.365-43.562 19.365q-.838 0-1.693-.017c-20.163-.407-32.219-6.878-44.982-13.73C130.973 7.301 117.124-.134 93.238-.134S55.503 7.301 42.11 14.491c-12.763 6.852-24.818 13.323-44.982 13.73-31.65.677-43.625-16.718-45.255-19.348 2.422-8.659 6.385-17.569 11.789-26.51C-32.797-13.631-19.318 0 0 0m93.238-32.454c-34.063 0-46.631 8.501-58.786 16.723-5.349 3.618-10.881 7.36-18.228 10.385-30.497 12.562-51.691-14.33-51.902-14.603a.997.997 0 0 0-1.642.084C-43.28-10.228-47.603-.6-50.168 8.751a1 1 0 0 0 .083.737c.114.215 11.92 21.465 47.253 20.733 20.645-.416 33.478-7.306 45.888-13.968C56.231 9.18 69.855 1.866 93.238 1.866s37.007 7.314 50.182 14.387c12.411 6.662 25.243 13.552 45.887 13.968q.876.017 1.733.017c34.005 0 45.409-20.539 45.522-20.75a1 1 0 0 0 .082-.737c-2.565-9.352-6.889-18.98-12.848-28.616a1 1 0 0 0-.798-.472.98.98 0 0 0-.844.387c-.211.273-21.44 27.149-51.902 14.604-7.347-3.025-12.878-6.767-18.228-10.385-12.154-8.222-24.723-16.723-58.786-16.723" style="fill:#9c8530;fill-opacity:1;fill-rule:nonzero;stroke:none" transform="translate(204.4 112.444)"></path><path d="M0 0s3.994-3.302 14.655 3.439c10.654 6.738 15.375 13.535 26.406 14.647C16.184 20.985 0 0 0 0" style="fill:#7c2325;fill-opacity:1;fill-rule:nonzero;stroke:none" transform="translate(167.93 93.105)"></path><path d="M0 0c1.678-.417 5.561-.479 12.489 3.9 3.203 2.026 5.818 4.022 8.346 5.953 3.666 2.797 7.008 5.348 11.075 7.015C14.947 15.614 3.149 3.574 0 0m1.614-2.215c-2.463 0-3.652.87-3.882 1.061A1 1 0 0 0-2.423.227c.165.214 16.819 21.397 41.969 18.468a.999.999 0 0 0-.016-1.988c-7.395-.745-11.846-4.144-17.481-8.444-2.444-1.866-5.214-3.98-8.491-6.052C8.009-1.298 4.141-2.215 1.614-2.215" style="fill:#9c8530;fill-opacity:1;fill-rule:nonzero;stroke:none" transform="translate(169.561 93.489)"></path><g clip-path="url(#f)"><path d="M0 0c3.148 4.174 7.06 7.918 11.843 10.117C7.279 7.659 3.656 3.728.836-.549z" style="fill:#9c8530;fill-opacity:1;fill-rule:nonzero;stroke:none" transform="translate(155.422 119.502)"></path><path d="M0 0c3.189 4.123 7.098 7.836 11.858 10.046C7.315 7.577 3.691 3.672.828-.56z" style="fill:#9c8530;fill-opacity:1;fill-rule:nonzero;stroke:none" transform="translate(156.35 117.327)"></path><path d="M0 0c3.23 4.072 7.135 7.754 11.874 9.975C7.351 7.495 3.727 3.616.82-.57z" style="fill:#9c8530;fill-opacity:1;fill-rule:nonzero;stroke:none" transform="translate(157.278 115.152)"></path><path d="M0 0c3.272 4.02 7.172 7.673 11.89 9.904C7.387 7.413 3.762 3.559.812-.581z" style="fill:#9c8530;fill-opacity:1;fill-rule:nonzero;stroke:none" transform="translate(158.206 112.977)"></path><path d="M0 0c3.313 3.969 7.21 7.591 11.905 9.832C7.423 7.33 3.798 3.503.804-.592z" style="fill:#9c8530;fill-opacity:1;fill-rule:nonzero;stroke:none" transform="translate(159.134 110.802)"></path><path d="M0 0c3.354 3.917 7.247 7.51 11.921 9.761C7.459 7.248 3.833 3.446.796-.602z" style="fill:#9c8530;fill-opacity:1;fill-rule:nonzero;stroke:none" transform="translate(160.062 108.627)"></path><path d="M0 0c3.395 3.866 7.284 7.428 11.937 9.69C7.495 7.166 3.869 3.39.788-.613z" style="fill:#9c8530;fill-opacity:1;fill-rule:nonzero;stroke:none" transform="translate(160.99 106.452)"></path><path d="M0 0c3.436 3.814 7.321 7.346 11.952 9.618C7.53 7.084 3.904 3.333.78-.623z" style="fill:#9c8530;fill-opacity:1;fill-rule:nonzero;stroke:none" transform="translate(161.918 104.276)"></path><path d="M0 0c3.477 3.763 7.359 7.265 11.968 9.547C7.566 7.002 3.939 3.277.773-.634z" style="fill:#9c8530;fill-opacity:1;fill-rule:nonzero;stroke:none" transform="translate(162.846 102.101)"></path><path d="M0 0c3.518 3.711 7.396 7.183 11.984 9.476C7.602 6.92 3.975 3.22.765-.644z" style="fill:#9c8530;fill-opacity:1;fill-rule:nonzero;stroke:none" transform="translate(163.774 99.926)"></path></g><path d="M0 0s-3.994-3.302-14.655 3.439c-10.654 6.738-15.375 13.535-26.406 14.647C-16.184 20.985 0 0 0 0" style="fill:#7c2325;fill-opacity:1;fill-rule:nonzero;stroke:none" transform="translate(427.346 93.105)"></path><path d="M0 0c4.066-1.667 7.409-4.218 11.075-7.017 2.529-1.929 5.143-3.925 8.345-5.951 6.927-4.38 10.811-4.316 12.489-3.9C28.76-13.294 16.961-1.255 0 0m30.296-19.083c-2.527 0-6.396.916-11.944 4.426-3.278 2.071-6.047 4.185-8.491 6.051C4.226-4.305-.226-.906-7.622-.161a1 1 0 0 0-.899.987 1 1 0 0 0 .883 1.001c25.156 2.925 41.805-18.254 41.97-18.469a1 1 0 0 0-.155-1.38c-.23-.191-1.419-1.061-3.881-1.061" style="fill:#9c8530;fill-opacity:1;fill-rule:nonzero;stroke:none" transform="translate(393.806 110.357)"></path><g clip-path="url(#g)"><path d="M0 0c-3.148 4.174-7.06 7.918-11.843 10.117C-7.279 7.659-3.656 3.728-.836-.549z" style="fill:#9c8530;fill-opacity:1;fill-rule:nonzero;stroke:none" transform="translate(439.854 119.502)"></path><path d="M0 0c-3.189 4.123-7.098 7.836-11.858 10.046C-7.315 7.577-3.691 3.672-.828-.56z" style="fill:#9c8530;fill-opacity:1;fill-rule:nonzero;stroke:none" transform="translate(438.926 117.327)"></path><path d="M0 0c-3.23 4.072-7.135 7.754-11.874 9.975C-7.351 7.495-3.727 3.616-.82-.57z" style="fill:#9c8530;fill-opacity:1;fill-rule:nonzero;stroke:none" transform="translate(437.998 115.152)"></path><path d="M0 0c-3.272 4.02-7.172 7.673-11.89 9.904C-7.387 7.413-3.762 3.559-.812-.581z" style="fill:#9c8530;fill-opacity:1;fill-rule:nonzero;stroke:none" transform="translate(437.07 112.977)"></path><path d="M0 0c-3.313 3.969-7.209 7.591-11.905 9.832C-7.423 7.33-3.798 3.503-.804-.592z" style="fill:#9c8530;fill-opacity:1;fill-rule:nonzero;stroke:none" transform="translate(436.142 110.802)"></path><path d="M0 0c-3.354 3.917-7.247 7.51-11.921 9.761C-7.459 7.248-3.833 3.446-.796-.602z" style="fill:#9c8530;fill-opacity:1;fill-rule:nonzero;stroke:none" transform="translate(435.214 108.627)"></path><path d="M0 0c-3.395 3.866-7.284 7.428-11.937 9.69C-7.495 7.166-3.868 3.39-.788-.613z" style="fill:#9c8530;fill-opacity:1;fill-rule:nonzero;stroke:none" transform="translate(434.286 106.452)"></path><path d="M0 0c-3.436 3.814-7.321 7.346-11.952 9.618C-7.53 7.084-3.904 3.333-.78-.623z" style="fill:#9c8530;fill-opacity:1;fill-rule:nonzero;stroke:none" transform="translate(433.358 104.276)"></path><path d="M0 0c-3.477 3.763-7.359 7.265-11.968 9.547C-7.566 7.002-3.939 3.277-.773-.634z" style="fill:#9c8530;fill-opacity:1;fill-rule:nonzero;stroke:none" transform="translate(432.43 102.101)"></path><path d="M0 0c-3.518 3.711-7.396 7.183-11.984 9.476C-7.602 6.92-3.975 3.22-.765-.644z" style="fill:#9c8530;fill-opacity:1;fill-rule:nonzero;stroke:none" transform="translate(431.502 99.926)"></path></g><path d="M0 0c.874 3.124 2.144 5.699 4.639 7.771 2.848 2.363 6.405 3.666 9.886 4.925 4.098 1.482 8.234 2.981 11.91 5.321 3.676 2.341 6.905 5.628 8.366 9.733 1.399-3.9 2.62-7.714 4.018-11.614.99-2.76-.364-6.036-2.376-8.167s-4.722-3.447-7.403-4.633c-4.42-1.954-8.949-3.683-13.214-5.955s-7.797-4.499-10.74-8.332Z" style="fill:#7c2325;fill-opacity:1;fill-rule:nonzero;stroke:none" transform="translate(175.758 82.24)"></path><path d="M0 0c2.714 3.095 5.911 5.153 10.034 7.35 3.053 1.627 6.273 2.993 9.387 4.314 1.301.551 2.601 1.103 3.892 1.674 2.538 1.121 5.174 2.386 7.08 4.404 1.705 1.805 3.034 4.713 2.163 7.143a355 355 0 0 0-2.014 5.82c-.389 1.146-.778 2.292-1.177 3.442-2.015-3.697-5.195-6.283-7.715-7.887-3.779-2.406-8.013-3.937-12.108-5.418-3.361-1.216-6.838-2.473-9.586-4.754-2.01-1.668-3.282-3.75-4.214-6.918Zm29.479 37.837a1 1 0 0 0 .941-.663c.701-1.956 1.358-3.891 2.016-5.826.653-1.922 1.305-3.845 2.002-5.788 1.237-3.449-.623-7.107-2.59-9.191-2.161-2.289-5.002-3.656-7.726-4.86a289 289 0 0 0-3.92-1.687c-3.074-1.303-6.253-2.652-9.227-4.237C6.554 3.23 3.27 1.061.557-2.473a1.002 1.002 0 0 0-1.701.187L-6.229 8.666a1 1 0 0 0-.056.69c1.045 3.738 2.575 6.289 4.964 8.271 3.016 2.504 6.824 3.881 10.183 5.096 3.992 1.444 8.121 2.937 11.714 5.225 2.759 1.756 6.379 4.782 7.96 9.224.142.398.519.664.942.665z" style="fill:#9c8530;fill-opacity:1;fill-rule:nonzero;stroke:none" transform="translate(181.08 73.153)"></path><path d="M0 0c.363 0 .724-.165.9-.48l7.838-14.021a1 1 0 0 0-.792-1.485c-10.376-.836-17.021 1.205-19.775 6.071a1 1 0 0 0 .077 1.102C-8.82-4.994-5.345-2.688-.688-.208l.161.081C-.366-.042-.183 0 0 0" style="fill:#9c8530;fill-opacity:1;fill-rule:nonzero;stroke:none" transform="translate(191.803 80.711)"></path><g clip-path="url(#h)"><path d="M0 0a20.4 20.4 0 0 0 1.404 3.188 19 19 0 0 0 1.94 2.892 17 17 0 0 0 2.449 2.453c.897.728 1.874 1.36 2.926 1.871A15.5 15.5 0 0 1 5.99 8.377a15.3 15.3 0 0 1-2.217-2.572 19.4 19.4 0 0 1-1.68-2.923A18 18 0 0 1 .962-.276C.794-.93-.206-.649 0 0" style="fill:#9c8530;fill-opacity:1;fill-rule:nonzero;stroke:none" transform="translate(176.263 80.236)"></path><path d="M0 0a15.3 15.3 0 0 1-2.638-1.881 15.8 15.8 0 0 1-2.133-2.303l-.074-.098A20.5 20.5 0 0 1-6.579-7.01a20 20 0 0 1-1.167-2.655q-.056-.152-.115-.282c-.236-.535-1.116-.202-.873.4a22 22 0 0 0 1.523 2.923c.584.938 1.243 1.83 1.974 2.655a17.2 17.2 0 0 0 2.409 2.252A15 15 0 0 0 0 0" style="fill:#9c8530;fill-opacity:1;fill-rule:nonzero;stroke:none" transform="translate(185.777 88.182)"></path><path d="M0 0a15.2 15.2 0 0 1-2.548-1.735 16.6 16.6 0 0 1-2.196-2.23 21.5 21.5 0 0 1-1.683-2.36l-.106-.173A22.5 22.5 0 0 1-7.817-8.96a1.4 1.4 0 0 0-.149-.255c-.298-.414-1.064-.031-.783.524a24 24 0 0 0 1.642 2.659 21 21 0 0 0 2.008 2.418c.729.752 1.52 1.442 2.37 2.052C-1.879-.953-.969-.425 0 0" style="fill:#9c8530;fill-opacity:1;fill-rule:nonzero;stroke:none" transform="translate(186.573 85.725)"></path><path d="M0 0a15 15 0 0 1-2.457-1.589 17.5 17.5 0 0 1-2.186-2.059 23 23 0 0 1-1.843-2.338 25 25 0 0 1-1.402-2.268.8.8 0 0 0-.182-.228c-.354-.298-1.013.139-.694.647A28 28 0 0 0-7.003-5.44a23 23 0 0 0 2.041 2.18 18 18 0 0 0 2.331 1.852C-1.804-.858-.928-.383 0 0" style="fill:#9c8530;fill-opacity:1;fill-rule:nonzero;stroke:none" transform="translate(187.369 83.267)"></path><path d="M0 0c.597.73 1.222 1.446 1.88 2.13a26 26 0 0 0 2.075 1.944 19 19 0 0 0 2.292 1.651c.803.49 1.646.914 2.533 1.254a15 15 0 0 1-2.367-1.443 19 19 0 0 1-2.099-1.812 25 25 0 0 1-1.856-2.072A34 34 0 0 1 .822-.57C.454-1.16-.427-.553 0 0" style="fill:#9c8530;fill-opacity:1;fill-rule:nonzero;stroke:none" transform="translate(179.385 73.83)"></path></g><g clip-path="url(#i)"><path d="M0 0c-2.628-3.06-5.485-6.074-9.095-7.934 3.399 2.12 5.976 5.332 8.292 8.53z" style="fill:#9c8530;fill-opacity:1;fill-rule:nonzero;stroke:none" transform="translate(212.115 106.393)"></path><path d="M0 0c-2.404-2.92-5.133-5.68-8.489-7.458C-5.356-5.429-2.904-2.47-.82.569z" style="fill:#9c8530;fill-opacity:1;fill-rule:nonzero;stroke:none" transform="translate(212.9 104.093)"></path><path d="M0 0c-2.179-2.78-4.781-5.286-7.882-6.981C-5.015-5.044-2.689-2.338-.838.542z" style="fill:#9c8530;fill-opacity:1;fill-rule:nonzero;stroke:none" transform="translate(213.687 101.792)"></path><path d="M0 0c-1.955-2.64-4.429-4.892-7.276-6.505C-4.675-4.659-2.474-2.206-.855.515z" style="fill:#9c8530;fill-opacity:1;fill-rule:nonzero;stroke:none" transform="translate(214.472 99.492)"></path><path d="M0 0c-1.731-2.5-4.077-4.497-6.669-6.029C-4.335-4.274-2.259-2.074-.873.488z" style="fill:#9c8530;fill-opacity:1;fill-rule:nonzero;stroke:none" transform="translate(215.258 97.192)"></path></g><path d="M0 0c-.874 3.124-2.144 5.699-4.639 7.771-2.848 2.363-6.405 3.666-9.886 4.925-4.098 1.482-8.234 2.981-11.91 5.321-3.676 2.341-6.905 5.628-8.366 9.733-1.399-3.9-2.62-7.714-4.018-11.614-.99-2.76.364-6.036 2.376-8.167s4.722-3.447 7.403-4.633c4.42-1.954 8.949-3.683 13.214-5.955s7.797-4.499 10.74-8.332z" style="fill:#7c2325;fill-opacity:1;fill-rule:nonzero;stroke:none" transform="translate(419.518 82.24)"></path><path d="M0 0a358 358 0 0 1 2.013 5.82c.39 1.146.779 2.292 1.177 3.443 2.017-3.698 5.197-6.284 7.716-7.887 3.779-2.407 8.012-3.938 12.107-5.418 3.362-1.216 6.838-2.474 9.587-4.755 2.009-1.667 3.281-3.749 4.214-6.918l-4.258-9.17q-.03.032-.059.063c-.097.11-.198.21-.296.317-.271.296-.545.588-.826.866-.14.138-.285.27-.428.404q-.371.353-.756.689-.241.207-.488.409a28 28 0 0 1-1.292 1.007q-.395.289-.804.568-.274.19-.554.376-.428.28-.87.555c-.187.116-.371.233-.561.348-.323.194-.657.387-.992.58-.175.1-.345.201-.523.301q-.651.365-1.335.731c-.085.045-.164.091-.25.136-3.055 1.628-6.276 2.994-9.391 4.315-1.299.552-2.599 1.103-3.889 1.673-2.537 1.122-5.174 2.386-7.08 4.404C.458-5.338-.871-2.429 0 0m.708-8.516c2.162-2.289 5.002-3.656 7.726-4.86 1.299-.575 2.608-1.13 3.916-1.685 2.682-1.138 5.437-2.319 8.075-3.653l-7.33-13.114a1.002 1.002 0 0 1 .792-1.485c10.367-.838 17.022 1.205 19.775 6.071.006.011.007.022.012.032q.014.02.025.04l5.086 10.951c.1.216.12.461.056.691-1.046 3.738-2.577 6.289-4.964 8.27-3.017 2.505-6.824 3.882-10.184 5.096C19.701-.718 15.572.775 11.98 3.063c-2.759 1.756-6.379 4.782-7.961 9.225a1 1 0 0 1-.941.664h-.001a1 1 0 0 1-.942-.662C1.434 10.333.777 8.398.12 6.463-.533 4.541-1.186 2.619-1.883.675-3.119-2.773-1.26-6.431.708-8.516" style="fill:#9c8530;fill-opacity:1;fill-rule:nonzero;stroke:none" transform="translate(381.64 98.038)"></path><g clip-path="url(#j)"><path d="M0 0a20.4 20.4 0 0 1-1.404 3.188 19 19 0 0 1-1.94 2.892 17 17 0 0 1-2.449 2.453 15 15 0 0 1-2.926 1.871A15.5 15.5 0 0 0-5.99 8.377a15.3 15.3 0 0 0 2.217-2.572 19.4 19.4 0 0 0 1.68-2.923A18 18 0 0 0-.962-.276C-.794-.93.206-.649 0 0" style="fill:#9c8530;fill-opacity:1;fill-rule:nonzero;stroke:none" transform="translate(419.013 80.236)"></path><path d="M0 0a15.3 15.3 0 0 0 2.638-1.881c.785-.694 1.5-1.466 2.133-2.303l.074-.098A20.5 20.5 0 0 0 6.579-7.01c.457-.863.848-1.756 1.167-2.655q.056-.152.115-.282c.236-.535 1.116-.202.873.4a22 22 0 0 1-1.523 2.923 20 20 0 0 1-1.974 2.655 17.2 17.2 0 0 1-2.409 2.252A15 15 0 0 1 0 0" style="fill:#9c8530;fill-opacity:1;fill-rule:nonzero;stroke:none" transform="translate(409.498 88.182)"></path><path d="M0 0a15.2 15.2 0 0 0 2.548-1.735 16.6 16.6 0 0 0 2.196-2.23 21.5 21.5 0 0 0 1.683-2.36l.106-.173c.483-.801.913-1.628 1.284-2.462.044-.1.097-.183.149-.255.298-.414 1.064-.031.783.524a24 24 0 0 1-1.642 2.659 21 21 0 0 1-2.008 2.418 17.6 17.6 0 0 1-2.37 2.052C1.879-.953.969-.425 0 0" style="fill:#9c8530;fill-opacity:1;fill-rule:nonzero;stroke:none" transform="translate(408.703 85.725)"></path><path d="M0 0a15 15 0 0 0 2.457-1.589 17.5 17.5 0 0 0 2.186-2.059 23 23 0 0 0 1.843-2.338c.51-.738.984-1.497 1.402-2.268a.8.8 0 0 1 .182-.228c.354-.298 1.013.139.694.647A28 28 0 0 1 7.003-5.44a23 23 0 0 1-2.041 2.18 18 18 0 0 1-2.331 1.852A15.3 15.3 0 0 1 0 0" style="fill:#9c8530;fill-opacity:1;fill-rule:nonzero;stroke:none" transform="translate(407.907 83.267)"></path><path d="M0 0a35 35 0 0 1-1.88 2.13 26 26 0 0 1-2.075 1.944 19 19 0 0 1-2.292 1.651c-.803.49-1.646.914-2.533 1.254a15 15 0 0 0 2.367-1.443 19 19 0 0 0 2.099-1.812 25 25 0 0 0 1.856-2.072A34 34 0 0 0-.822-.57C-.454-1.16.427-.553 0 0" style="fill:#9c8530;fill-opacity:1;fill-rule:nonzero;stroke:none" transform="translate(415.89 73.83)"></path></g><g clip-path="url(#k)"><path d="M0 0c2.628-3.06 5.485-6.074 9.095-7.934C5.696-5.814 3.119-2.602.803.596z" style="fill:#9c8530;fill-opacity:1;fill-rule:nonzero;stroke:none" transform="translate(383.16 106.393)"></path><path d="M0 0c2.404-2.92 5.133-5.68 8.489-7.458C5.356-5.429 2.904-2.47.82.569z" style="fill:#9c8530;fill-opacity:1;fill-rule:nonzero;stroke:none" transform="translate(382.375 104.093)"></path><path d="M0 0c2.179-2.78 4.781-5.286 7.882-6.981C5.015-5.044 2.689-2.338.838.542z" style="fill:#9c8530;fill-opacity:1;fill-rule:nonzero;stroke:none" transform="translate(381.589 101.792)"></path><path d="M0 0c1.955-2.64 4.429-4.892 7.276-6.505C4.675-4.659 2.474-2.206.855.515z" style="fill:#9c8530;fill-opacity:1;fill-rule:nonzero;stroke:none" transform="translate(380.803 99.492)"></path><path d="M0 0c1.731-2.5 4.077-4.497 6.669-6.029C4.335-4.274 2.259-2.074.873.488z" style="fill:#9c8530;fill-opacity:1;fill-rule:nonzero;stroke:none" transform="translate(380.017 97.192)"></path></g><path d="M0 0c-14.182 0-25.679-11.497-25.679-25.679S-14.182-51.358 0-51.358s25.679 11.497 25.679 25.679S14.182 0 0 0" style="fill:#751d1e;fill-opacity:1;fill-rule:nonzero;stroke:none" transform="translate(353.316 389.107)"></path><path d="M0 0c-12.978 0-23.499-10.521-23.499-23.499S-12.978-46.998 0-46.998s23.499 10.521 23.499 23.499S12.978 0 0 0" style="fill:#fff;fill-opacity:1;fill-rule:nonzero;stroke:none" transform="translate(353.316 386.927)"></path><path d="M0 0c-3.585 0-6.944.949-9.859 2.594l-.436 8.082 5.912 3.893 10.262-2.796 1.575-7.186L1.425.071C.952.038.481 0 0 0m-20.102 20.102c0 1.39.145 2.746.414 4.056l7.286 5.565c1.817-.855 4.934-2.447 7.126-4.245l.236-10.144-5.768-3.798-8.999 5.262a20 20 0 0 0-.295 3.304m40.176-.551c-.187-6.874-3.823-12.88-9.236-16.363l-2.356 1.38-1.63 7.437 6.742 9.248-6.641 9.504.77 7.204-2.417-6.701-10.194-4.816c-2.401 1.905-5.642 3.524-7.384 4.326l-1.091 4.312c3.426 3.051 7.894 4.96 12.813 5.094q-.546.027-1.099.027c-12.012 0-21.75-9.738-21.75-21.75s9.738-21.75 21.75-21.75 21.751 9.738 21.751 21.75q0 .552-.028 1.098" style="fill:#9c8530;fill-opacity:1;fill-rule:nonzero;stroke:none" transform="translate(354.965 344.975)"></path><path d="m0 0-2.905 1.056 1.015 2.792L7.219.536 6.204-2.256 3.299-1.2.725-8.277l-3.299 1.199Z" style="fill:#9c8530;fill-opacity:1;fill-rule:nonzero;stroke:none" transform="translate(222.795 125.796)"></path><path d="m0 0 3.1-1.649-1.742-3.272L4.192-6.43l1.742 3.272 3.099-1.65-4.935-9.271L.999-12.43l1.77 3.325-2.835 1.508-1.769-3.324-3.1 1.65z" style="fill:#9c8530;fill-opacity:1;fill-rule:nonzero;stroke:none" transform="translate(231.758 125.513)"></path><path d="m0 0 7.479-4.929-1.585-2.405-4.598 3.029-.586-.888 4.285-2.824L3.6-10.134-.685-7.311l-.627-.952 4.66-3.071-1.585-2.405-7.542 4.969z" style="fill:#9c8530;fill-opacity:1;fill-rule:nonzero;stroke:none" transform="translate(242.412 119.62)"></path><path d="M0 0c.726-.423 1.356-.355 1.681.202l.015.026c.34.584.052 1.133-.648 1.542l-1.323.77L-1.31.763Zm-1.83 6.85 4.436-2.584c1.608-.937 2.399-1.935 2.664-2.941.228-.862.12-1.703-.424-2.637l-.014-.025C4.061-2.66 2.837-3.181 1.425-3.07l.317-4.319-3.463 2.017-.202 3.591-.648.378-1.511-2.594-3.035 1.768z" style="fill:#9c8530;fill-opacity:1;fill-rule:nonzero;stroke:none" transform="translate(255.455 105.135)"></path><path d="m0 0 8.426-3.024-.972-2.71-5.181 1.859-.359-1.003L6.741-6.61l-.856-2.385-4.827 1.732-.385-1.073 5.25-1.884-.972-2.71-8.497 3.05z" style="fill:#9c8530;fill-opacity:1;fill-rule:nonzero;stroke:none" transform="translate(262.329 106.958)"></path><path d="m0 0-.504 2.678L-1.891.332Zm-1.475 7.035 3.427-.601L4.48-4.745l-3.751.658-.303 1.485-3.619.635-.775-1.295-3.693.649z" style="fill:#9c8530;fill-opacity:1;fill-rule:nonzero;stroke:none" transform="translate(276.223 96.237)"></path><path d="m0 0 3.502-.247-.526-7.484 4.925-.346-.211-2.994-8.427.592Z" style="fill:#9c8530;fill-opacity:1;fill-rule:nonzero;stroke:none" transform="translate(282.58 101.985)"></path><path d="m0 0 3.675.108 1.634-4.996L6.854.231l3.03.09 1.844-5.019L13.064.385l3.615.106-3.122-10.676-3.061-.089-1.999 5.165-1.69-5.275-3.06-.09z" style="fill:#9c8530;fill-opacity:1;fill-rule:nonzero;stroke:none" transform="translate(294.58 101.175)"></path><path d="m0 0-1.291 2.398-.611-2.654zm-3.535 6.258 3.448.463 5.793-9.888-3.774-.508-.739 1.323-3.64-.49-.348-1.469-3.715-.5z" style="fill:#9c8530;fill-opacity:1;fill-rule:nonzero;stroke:none" transform="translate(317.226 95.958)"></path><path d="M0 0c.807.238 1.189.743 1.006 1.362l-.009.029c-.191.647-.788.815-1.565.585l-1.468-.434.583-1.972Zm-6.237 3.365 4.921 1.456c1.784.529 3.052.419 3.966-.078.784-.426 1.322-1.08 1.627-2.116l.009-.028c.435-1.468-.026-2.715-1.074-3.667L6.57-3.799 2.729-4.936-.022-2.62l-.72-.213.851-2.878-3.367-.996Z" style="fill:#9c8530;fill-opacity:1;fill-rule:nonzero;stroke:none" transform="translate(327.652 99.844)"></path><path d="M0 0c.744.39 1.021.958.723 1.529l-.014.027c-.313.598-.932.647-1.649.271l-1.356-.71.953-1.82zm-6.77 2.095 4.545 2.379c1.649.863 2.914 1.001 3.907.69.85-.266 1.505-.804 2.006-1.761l.013-.026c.71-1.356.499-2.668-.346-3.805l3.824-2.029L3.63-4.314.483-2.575l-.664-.348 1.392-2.658-3.11-1.628Z" style="fill:#9c8530;fill-opacity:1;fill-rule:nonzero;stroke:none" transform="translate(337.76 103.989)"></path><path d="m0 0 2.938 1.917 5.736-8.79-2.939-1.918Z" style="fill:#9c8530;fill-opacity:1;fill-rule:nonzero;stroke:none" transform="translate(340.06 111.1)"></path><path d="m0 0-.017.025c-.689 1.037-2.024 1.501-3.148.754-1.112-.738-1.198-2.128-.518-3.152l.017-.025c.689-1.038 2.024-1.502 3.148-.754C.595-2.414.681-1.024 0 0m-6.599-4.383-.016.026C-8.3-1.82-7.558 1.59-4.858 3.383S1.23 4.546 2.916 2.01l.017-.026c1.684-2.537.942-5.947-1.757-7.74s-6.089-1.163-7.775 1.373" style="fill:#9c8530;fill-opacity:1;fill-rule:nonzero;stroke:none" transform="translate(353.299 113.584)"></path><path d="M0 0c.74.395 1.015.965.711 1.534l-.014.027c-.317.594-.935.639-1.65.258l-1.349-.718.966-1.813zm-6.779 2.044 4.524 2.41c1.641.874 2.904 1.022 3.898.719.851-.26 1.509-.793 2.016-1.745l.015-.027c.719-1.349.518-2.662-.318-3.803l3.834-2-3.532-1.882L.502-2.569l-.661-.353 1.41-2.645-3.096-1.65z" style="fill:#9c8530;fill-opacity:1;fill-rule:nonzero;stroke:none" transform="translate(361.56 118.803)"></path><path d="m0 0 .975 2.75a6 6 0 0 1 3.873.134c.589.22.785.47.685.736l-.011.028c-.104.282-.471.321-1.604.138-2.374-.375-4.55-.467-5.326 1.613l-.011.029c-.698 1.869.223 3.862 2.935 4.875 1.897.709 3.47.784 4.945.309l-.773-2.818a5.5 5.5 0 0 1-3.313-.133c-.492-.183-.654-.436-.564-.675l.009-.028c.101-.268.43-.336 1.544-.145 2.689.476 4.648.375 5.388-1.606l.011-.028c.771-2.066-.456-3.966-3.099-4.952C3.669-.519 1.66-.629 0 0" style="fill:#9c8530;fill-opacity:1;fill-rule:nonzero;stroke:none" transform="translate(367.555 117.618)"></path><path d="m0 0 9.063-5.606-5.605-2.902-5.543 3.294-.734-2.029 1.139-3.924-4.945-2.559-4.738 16.466 4.945 2.559 1.67-5.838 2.935 8.222 5.776 2.989z" style="fill:#9c8530;fill-opacity:1;fill-rule:nonzero;stroke:none" transform="translate(239.62 482.186)"></path><path d="m0 0 .443-1.956L6.942.913l.901-4.063-6.521-2.877.496-2.195 7.707 3.401.934-4.257-12.779-5.639-3.708 16.726L6.465 7.522l.934-4.257Z" style="fill:#9c8530;fill-opacity:1;fill-rule:nonzero;stroke:none" transform="translate(251.262 491.712)"></path><path d="m0 0 5.466 1.487.872-12.624 7.32 1.991.296-4.472-12.786-3.478z" style="fill:#9c8530;fill-opacity:1;fill-rule:nonzero;stroke:none" transform="translate(262.007 500.408)"></path><path d="m0 0-4.559-16.518-4.644.335-4.25 8.151-2.118-7.692-5.507.396 4.558 16.517 4.645-.334 4.25-8.151L-5.507.396z" style="fill:#9c8530;fill-opacity:1;fill-rule:nonzero;stroke:none" transform="translate(316.734 504.494)"></path><path d="m0 0-4.789 1.132 1.875 4.071 15.092-3.568-1.875-4.071-4.789 1.132L.252-12.813l-5.514 1.304z" style="fill:#9c8530;fill-opacity:1;fill-rule:nonzero;stroke:none" transform="translate(323.12 498.498)"></path><path d="m0 0 .911 4.276-3.942-3.003Zm-.85-4.068-5.907 2.481-2.682-2.048-5.51 2.313L1.424 10.021l5.133-2.155L3.725-9.165l-5.2 2.184z" style="fill:#9c8530;fill-opacity:1;fill-rule:nonzero;stroke:none" transform="translate(341.487 486.81)"></path><path d="m0 0-10.707-13.377-4.136 2.14-.687 9.167-4.983-6.232-4.902 2.537 10.706 13.377 4.136-2.14.688-9.166 4.982 6.232z" style="fill:#9c8530;fill-opacity:1;fill-rule:nonzero;stroke:none" transform="translate(371.006 482.864)"></path><path d="m0 0 .707-2.277 6.283.217-2.011 6.199Z" style="fill:#9c8530;fill-opacity:1;fill-rule:nonzero;stroke:none" transform="translate(287.727 491.279)"></path><path d="m0 0-1.764 1.098-4.271-4.125 2.838 5.018-2.133 1.327h2.472l.94 1.664.641-1.664H.536L-.786 2.042Zm4.203 2.145L1.43 9.207l-6.846-.39-6.022-18.024 5.026.823L7.973 3.575Z" style="fill:#9c8530;fill-opacity:1;fill-rule:nonzero;stroke:none" transform="translate(288.044 496.13)"></path><path d="M0 0a34 34 0 0 0 2.831.86c.474.722.933 1.444 1.318 2.163l-.122.141C-.016 1.845-3.375.687-5.431-.352c-.791-.405-1.125-.757-1.318-1.071-.229-.389-.404-.773-.404-1.125 0-.6.123-1.233.633-1.617 2.882-2.234 4.518-3.921 5.292-4.976.666-.914 1.212-1.844 1.212-2.637 0-.211-.336-.562-.968-.949-1.196-.738-2.882-.914-4.693-.914h-1.336c-2.039 0-2.601 1.195-2.601 2.004 0 5.379-.018 9.685-.352 13.817l-.088.035-1.564-1.582.053-.879c.263-4.043.457-7.207.457-10.739 0-1.25-.317-1.812-.844-2.11-.545-.3-1.319-.546-2.039-.546h-.668c-.932 0-1.618.246-2.18.703-.422.335-.58.844-.58 1.46 0 .385.14 1.142.387 2.04l-.106.121-1.213-.879-.51-1.898c-.263-1.001-1.67-1.547-3.023-1.547h-.633c-.492 0-.932.227-1.389.476-.791.492-1.23 1.828-1.476 3.164-.264 1.509-.44 2.32-.51 2.705h-.176c-.58-.931-.914-1.95-1.476-2.372a1.97 1.97 0 0 0-1.231-.422c-.492 0-1.019.089-1.424.37-.369.282-.843.703-1.301 1.125l-.175-.018-.633-2.286c.914-.914 1.81-1.882 2.215-2.988.246-.703.386-1.336.386-1.758 0-.651-.597-1.336-1.828-2.18-1.213-.703-2.355-.984-3.533-.984-2.127 0-4.201 1.652-4.201 4.238 0 1.106.228 2.039.474 2.864l-.615.229c-.474-1.108-.879-2.428-.879-4.148 0-3.235 1.951-5.555 5.221-5.555 1.406 0 2.795.455 3.955 1.195.809.579 1.424 1.212 1.864 1.88.386.966.509 1.917.509 2.848 0 1.301-.175 2.426-.527 3.305 1.16.035 1.951.757 2.479 1.828h.087l.457-1.812c.704-2.829 1.6-3.954 3.692-3.954h.615c1.512 0 2.901.616 3.498 1.793h.071c.597-1.317 1.898-1.793 3.621-1.793h.703c1.705 0 2.848.86 3.393 1.863h.07c.562-1.3 1.793-1.863 3.428-1.863h1.072c3.268 0 5.026.649 6.135 1.634.687.703 1.125 2.006 1.125 3.64 0 1.844-1.812 4.078-4.517 6.274l-2.444 1.987v.052C-3.778-1.423-1.861-.649 0 0m-16.716-6.533a16 16 0 0 1-2.109 1.882c-.475-.546-.95-1.16-1.424-1.793.703-.598 1.388-1.16 2.074-1.81a7.1 7.1 0 0 1 1.459 1.721m-15.831.398a16 16 0 0 1-2.11 1.879 32 32 0 0 1-1.424-1.793c.703-.597 1.389-1.16 2.075-1.811a7.2 7.2 0 0 1 1.459 1.725m10.105 2.472c-.632.68-1.182 1.213-1.846 1.731a14 14 0 0 1-1.278-1.537 35 35 0 0 0 1.893-1.683c.454.42.777.841 1.231 1.489m-3.124-.212c-.632.682-1.182 1.215-1.846 1.733a15 15 0 0 1-1.279-1.538 34 34 0 0 0 1.894-1.684c.453.423.777.842 1.231 1.489" style="fill:#9c8530;fill-opacity:1;fill-rule:nonzero;stroke:none" transform="translate(315.708 162.85)"></path></g><!-- source: https://football-logos.cc --></svg>