<svg xmlns="http://www.w3.org/2000/svg" id="Calque_2" data-name="Calque 2" viewBox="0 0 898.72 898.71"><!-- Source: https://football-logos.cc --><defs data-source="https://football-logos.cc"><style>.cls-1{fill-rule:evenodd}.cls-1,.cls-2{fill:#fff}.cls-3{fill:#bf0005}</style></defs><g id="svgContainer" data-source="https://football-logos.cc"><path d="M449.36 898.71c-60.64 0-119.5-11.89-174.92-35.33-53.53-22.64-101.58-55.04-142.82-96.28-41.25-41.25-73.64-89.3-96.28-142.81C11.89 568.84 0 509.98 0 449.35s11.89-119.48 35.34-174.92c22.64-53.52 55.03-101.57 96.28-142.81 41.25-41.25 89.3-73.64 142.82-96.28C329.86 11.89 388.72 0 449.36 0s119.5 11.89 174.93 35.33c53.52 22.64 101.57 55.03 142.82 96.28 41.26 41.27 73.65 89.32 96.28 142.81 23.45 55.43 35.33 114.28 35.33 174.92s-11.89 119.5-35.33 174.93c-22.63 53.5-55.02 101.55-96.28 142.81-41.25 41.25-89.3 73.64-142.83 96.28-55.43 23.45-114.28 35.33-174.92 35.33Z" class="cls-2"></path><path d="M867.47 449.35c0 56.44-11.06 111.2-32.87 162.76-21.06 49.79-51.2 94.5-89.59 132.89s-83.1 68.53-132.89 89.59c-51.57 21.81-106.32 32.87-162.76 32.87s-111.19-11.06-162.75-32.87c-49.79-21.06-94.5-51.2-132.89-89.59s-68.54-83.1-89.6-132.89c-21.81-51.56-32.87-106.32-32.87-162.76S42.31 338.16 64.12 286.6c21.06-49.79 51.21-94.5 89.6-132.89s83.1-68.54 132.89-89.6c51.56-21.81 106.32-32.86 162.75-32.86S560.55 42.3 612.12 64.11c49.79 21.06 94.5 51.21 132.89 89.6s68.53 83.1 89.59 132.89c21.81 51.56 32.87 106.32 32.87 162.75" class="cls-2"></path><path d="M857.63 276.86c-22.32-52.77-54.27-100.15-94.94-140.83-40.68-40.68-88.06-72.62-140.83-94.94-54.67-23.12-112.7-34.84-172.5-34.84S331.53 17.97 276.87 41.09c-52.77 22.32-100.15 54.26-140.83 94.94S63.42 224.09 41.1 276.86C17.98 331.52 6.25 389.56 6.25 449.35s11.73 117.84 34.85 172.5C63.42 674.62 95.36 722 136.04 762.68c40.67 40.68 88.06 72.62 140.83 94.94 54.66 23.12 112.7 34.84 172.49 34.84s117.83-11.72 172.49-34.84c52.78-22.32 100.16-54.26 140.84-94.94 40.67-40.68 72.62-88.06 94.94-140.83 23.12-54.67 34.84-112.7 34.84-172.5s-11.72-117.83-34.84-172.49m-408.27 590.6c-56.43 0-111.19-11.06-162.75-32.87-49.79-21.06-94.5-51.2-132.89-89.59s-68.54-83.1-89.6-132.89c-21.81-51.56-32.87-106.32-32.87-162.76S42.31 338.16 64.12 286.6c21.06-49.79 51.21-94.5 89.6-132.89s83.1-68.54 132.89-89.6c51.56-21.81 106.32-32.86 162.75-32.86S560.55 42.3 612.12 64.11c49.79 21.06 94.5 51.21 132.89 89.6s68.53 83.1 89.59 132.89c21.81 51.56 32.87 106.32 32.87 162.75s-11.06 111.2-32.87 162.76c-21.06 49.79-51.2 94.5-89.59 132.89s-83.1 68.53-132.89 89.59c-51.57 21.81-106.32 32.87-162.76 32.87" class="cls-3"></path><circle cx="449.36" cy="449.35" r="393.11" class="cls-3"></circle><path d="M375.36 701.15c0 1.01-13.78-.77-21.5-2.77-4.4-1.14-13.31-4.7-19.81-7.9l-11.81-5.83-7.69 1.9c-10.44 2.57-28.75 3.41-39.32 1.81-11.03-1.67-22.47-5.28-32.62-10.27-7.8-3.84-10.05-5.74-6.82-5.74 2.07 0 13.22-4.9 19.07-8.38 12-7.14 24.22-19.24 30.54-30.25l2.36-4.13 6.55 2.49c16.42 6.23 42.14 13.6 57.05 16.36 9.11 1.68 10 2.28 10 6.76 0 9.57 4.34 25.7 10.08 37.44 2.16 4.41 3.92 8.24 3.92 8.51M720.39 359.06l-5.76 3.03c-22.8 12.03-49.24 14.36-75.08 6.64l-8.31-2.48 3.09-3.52c9.88-11.25 13.74-23.41 11.87-37.38-1.23-9.25-5.32-18.15-11.06-24.08-6.57-6.79-21.22-18.34-31.98-25.22l-9.69-6.2-.04-12.5c-.05-13.54.46-17 2.46-17 2.71 0 20.59 8.27 41.97 19.42 5.82 3.03 17.3 2.92 23.7-.23 13.33-6.57 19.75-21.63 15.08-35.38-1.74-5.14-1.77-5.61-.25-4.8 3.33 1.79 12.54 12.7 15.64 18.53 8.87 16.71 8.93 37.03.16 54.7-5.73 11.55-7.14 22.31-4.34 33.08 3.82 14.65 13.31 25.57 27.1 31.18z" class="cls-1"></path><path d="M726.79 595.11c-3.74 5.35-4.43 6.96-3.52 8.2.63.85 2.37 4.01 3.87 7.04 2.41 4.88 2.72 6.63 2.72 15.5 0 10-1.64 17.67-3.98 17.67-.64 0-5.98-3.65-12.02-6.68-6.23-3.12-15.34-6.68-21-8.21a80.5 80.5 0 0 0-20.36-2.77l-43.39-.28-53.75-.34-2.48-3.2c-1.36-1.75-7.26-10.16-13.12-18.69-5.85-8.53-13.66-19.78-17.35-25s-10.5-14.9-15.13-21.49l-8.42-11.99-.52-161.01-.52-161.01-2.77-9.5c-3.74-12.87-10.38-26.18-18.25-36.62l-6.54-8.68 12.3.61c17.24.84 29.53 4.19 44.37 12.09l8.16 4.34 8.38-1.85c15.59-3.43 38.67-2.24 53.86 2.78 6.87 2.27 18.03 7.52 18.03 8.48 0 .47-1.46.86-3.25.86-1.79.01-5.71.67-8.71 1.47-18.67 4.97-33.77 19.4-40.32 38.52l-2.22 6.5-.28 169.75-.27 169.75 46.77-.02c36.77-.01 48.23-.32 53.55-1.45 18.57-3.94 33.38-18.62 37.75-37.42.75-3.26 1.04-8.68.72-13.75-.28-4.6-.36-8.36-.17-8.36 1.02 0 6.2 6.13 9.51 11.25 6.39 9.89 8.43 17.39 8.35 30.75-.05 9.82-.45 12.57-2.7 18.8-1.45 4.01-4.74 10.29-7.3 13.96M446.99 228.32c-4.28 4.57-5.42 5.24-9.5 5.58-13.78 1.17-18.44 1.71-26.63 3.07-10.01 1.67-20.76 4.26-30.38 7.34-3.51 1.12-6.61 2.04-6.88 2.04-.87 0 .49-20.26 1.71-25.66.9-3.95 1.69-5.28 3.36-5.7 3.78-.94 20.16-2.75 32.92-3.63 12.81-.89 46.45-.66 47.43.32.78.78-6.13 10.34-12.03 16.64" class="cls-1"></path><path d="M664.9 684.88c-8.56 3.78-19.55 7.21-29.12 9.09-10.78 2.12-34.33 2.35-45.42.45-15.53-2.66-36.5-10.86-48.5-18.97l-4.65-3.13-5.17 4.36c-16.34 13.76-36.34 22.6-55.04 24.34l-7.11.66 5.49-6.07c6.93-7.69 11.41-15.1 14.75-24.42 3.36-9.4 4.27-27.64 1.88-37.84-3.04-12.96-4.3-15.1-34.1-57.5-9.27-13.2-18.74-26.7-21.03-30s-14.9-21.3-28.02-40c-24.87-35.43-28.44-40.54-40-57.23-3.85-5.56-7.12-9.99-7.26-9.84-.15.15-.27 29.52-.27 65.27s-.27 65.27-.61 65.6c-1.23 1.23-21.38-10.05-33.36-18.68-7.54-5.42-11.15-8.54-20.75-17.89l-8.25-8.03V385.01c0-126.07-.16-140.69-1.63-146.6-4.91-19.79-19.69-35.28-39.23-41.14l-4.33-1.29 5.51-2.79c13.91-7.04 35.24-9.67 51.73-6.4l8.54 1.69 7.3-4.5c11.74-7.24 26.62-12.52 42.11-14.96 3.12-.5 20-.79 20-.35 0 .18-2.44 3.38-5.42 7.13-6.65 8.34-14.59 24.01-18.27 36.05l-2.76 9-.52 57.75c-.29 31.76-.25 57.75.1 57.75s7.52-7.31 15.94-16.25c8.43-8.94 29.97-31.73 47.87-50.65 17.91-18.92 34.95-37.37 37.87-41 7.29-9.07 13.93-21.55 18.35-34.45 2.04-5.97 3.91-11.05 4.14-11.28.75-.75 8.48 11.86 12.04 19.63 6.12 13.35 7.66 21.91 7.66 42.47v18.09l-12.67 13.47c-6.98 7.41-19.94 21.12-28.81 30.47s-28.84 30.43-44.36 46.85l-28.23 29.84 1.78 2.72c1.95 2.97 1.62 2.49 27.83 39.87 20.97 29.89 64.47 92.04 81.89 117 6.64 9.51 19.88 28.41 29.42 42 9.54 13.6 20.31 29.22 23.94 34.72 22.05 33.46 58.84 53.49 98.21 53.49 10.04 0 24.19-1.93 32.45-4.42 2.73-.82 5.13-1.32 5.35-1.11 1.06 1.07-17.82 12.89-27.26 17.07" class="cls-1"></path><path d="M480.86 641.72s-52.01 5.4-84.49.78c-51.81-5.45-88.34-15.75-124.73-33.8-35.42-17.57-66.57-44.37-85.85-73.87-14.89-22.77-24.97-50.1-28.86-78.26-3.04-22.02-3.39-48.36 2.98-73.22 4.28-16.68.03-39.75-25.13-57.27 17.2-8.6 33.6 4.14 47.9-4.56 5.3-3.23 7.78-4.74 15.49-13.99 20.03-24.01 44.61-43.46 74.97-59.32l13.23-6.91v63.96l-7.09 9.28c-27.46 35.92-40.06 80.88-34.46 122.95 6.96 52.23 35.59 97.09 81.55 127.77 34.97 23.33 74.63 35.58 118.5 36.57l15.28-.24c11.58 12.21 18.4 26.1 20.72 40.12Z" class="cls-1"></path><path d="M665.86 464.35v-12.73h-21.69v13.79h8.22v-6.72h8.27v22.81h-8.27v-6.62h-8.22v16.86h10.95v9.47H629.3v-9.47h6.68v-40.12h-6.68v-9.25h44.85v21.97h-8.28ZM706.59 502.34c-19.06 0-25.3-18.95-25.3-30.66 0-17.31 10.7-29.94 24.77-29.94 7.39 0 11.93 3.26 13.09 4.28v-4.28l8.19 2.1v20.8l-8.58 2.11v-4.13c0-6.01-5.31-11.87-10.22-11.87l-2.4-.07c-6.32 0-15.73 5.53-15.73 21.11 0 10.7 4.99 21.19 15.92 21.19 8.59 0 13.52-6.63 16.37-8.87l5.83 7.59c-6.77 7.03-16 10.64-21.93 10.64Z" class="cls-2"></path></g><!-- source: https://football-logos.cc --></svg>