<svg xmlns="http://www.w3.org/2000/svg" viewBox="656.96 213.34 3294.08 4198.45"><!-- Source: https://football-logos.cc --><path d="M0 0v-937.391c0-522.872-425.394-948.254-948.266-948.254h-110.612c-522.873 0-948.255 425.382-948.255 948.254V0l-208.41 448.623 213.321 759.511 365.943-211.918c171.905 12.18 608.688 19.064 632.192 19.426v.022c.077 0 .252-.012.515-.012s.449.012.515.012v-.022c23.504-.362 460.287-7.246 632.192-19.426l365.942 211.918L208.41 448.623Z" clip-path="url(#clipPath3)" style="fill:#136433;fill-opacity:1;fill-rule:nonzero;stroke:none" transform="matrix(1.33333 0 0 -1.33333 3642.082 1868.361)" data-source="https://football-logos.cc"></path><path d="m0 0-213.332 759.511-7.643 27.206-24.454-14.161L-605.565 564c-157.452 10.622-512.867 17.116-605.085 18.662v.353l-21.925.022q-.186 0-.519-.006-.317.007-.512.006h-21.925v-.375c-92.218-1.546-447.634-8.04-605.084-18.662l-360.137 208.556-24.455 14.161-7.642-27.206L-2466.17 0l-2.193-7.81 3.417-7.357 206.369-444.229v-932.547c0-534.958 435.222-970.18 970.18-970.18h110.613c534.965 0 970.19 435.222 970.19 970.18v932.547L-1.225-15.167 2.193-7.81Z" clip-path="url(#clipPath5)" style="fill:#fff;fill-opacity:1;fill-rule:nonzero;stroke:none" transform="matrix(1.33333 0 0 -1.33333 3948.107 1262.292)"></path><path d="m0 0 138.028-294.771v-917.067c-1.755-260.265 182.478-584.865 432.799-669.084h.001V0Z" clip-path="url(#clipPath7)" style="fill:#136433;fill-opacity:1;fill-rule:nonzero;stroke:none" transform="matrix(1.33333 0 0 -1.33333 1058.967 1485.27)"></path><path d="M0 0v-947.038c0-498.787-405.792-904.59-904.591-904.59h-110.613c-498.787 0-904.59 405.803-904.59 904.59V0l-205.669 442.714 193.742 689.778 328.9-190.475 6.731.504c165.327 12.377 610.891 19.415 636.193 19.81 25.313-.395 470.866-7.433 636.204-19.81l6.731-.504 328.9 190.475 193.731-689.778zm38.752 1198.487L-327.19 986.569c-171.905 12.18-608.688 19.064-632.192 19.426v.022c-.066 0-.252-.012-.515-.012s-.438.012-.516.012v-.022c-23.503-.362-460.286-7.246-632.191-19.426l-365.943 211.918-213.321-759.511 208.41-448.623v-937.391c0-522.872 425.382-948.254 948.254-948.254h110.613c522.872 0 948.266 425.382 948.266 948.254V-9.647l208.41 448.623z" clip-path="url(#clipPath9)" style="fill:#136433;fill-opacity:1;fill-rule:nonzero;stroke:none" transform="matrix(1.33333 0 0 -1.33333 3583.849 1855.499)"></path><path d="M0 0v-917.511l-125.747-67.4L0-1051.482v-829.44c255.101 84.219 442.85 408.819 441.062 669.084v917.067L581.725 0Z" clip-path="url(#clipPath11)" style="fill:#c22132;fill-opacity:1;fill-rule:nonzero;stroke:none" transform="matrix(1.33333 0 0 -1.33333 2780.029 1485.27)"></path><path d="M0 0h238.624v-782.548L0-917.067Z" clip-path="url(#clipPath13)" style="fill:#136433;fill-opacity:1;fill-rule:nonzero;stroke:none" transform="matrix(1.33333 0 0 -1.33333 2138.237 1485.27)"></path><path d="m0 0 123.15 70.184L238.624 0v-781.378s-91.75-7.018-115.474-7.018c-23.723 0-89.228 1.169-123.15 12.867z" clip-path="url(#clipPath15)" style="fill:#136433;fill-opacity:1;fill-rule:nonzero;stroke:none" transform="matrix(1.33333 0 0 -1.33333 2138.237 3076.1)"></path><path d="m0 0 102.936 8.188v-140.952l81.881 145.046 100.597 5.849-11.698-5.849-87.144-140.367 135.103-226.928-217.569 180.138v-112.878l-77.787-88.314v356.766z" clip-path="url(#clipPath17)" style="fill:#136433;fill-opacity:1;fill-rule:nonzero;stroke:none" transform="matrix(1.33333 0 0 -1.33333 1083.142 752.24)"></path><path d="m0 0 92.555 3.655.438-168.002s2.194-39.917 40.356-39.917 45.181 45.181 45.181 45.181V8.919h75.009v-169.318s-8.335-122.383-103.083-122.383S16.23-228.39 16.23-163.47 15.353-8.188 15.353-8.188z" clip-path="url(#clipPath19)" style="fill:#136433;fill-opacity:1;fill-rule:nonzero;stroke:none" transform="matrix(1.33333 0 0 -1.33333 1483.384 728.066)"></path><path d="M0 0s15.791 121.652 135.688 121.652h77.787l-19.3-78.957h-61.411S79.541 42.11 73.692-6.434c-5.848-48.543 16.377-81.88 43.866-81.88h74.862l21.055-80.127H101.181S6.433-153.234 0-52.638z" clip-path="url(#clipPath21)" style="fill:#136433;fill-opacity:1;fill-rule:nonzero;stroke:none" transform="matrix(1.33333 0 0 -1.33333 1859.842 866.874)"></path><path d="m0 0 21.055-18.716v-274.301h74.862v106.445h98.258v-106.445h81.881V0h-76.032v-110.54H95.917V0z" clip-path="url(#clipPath23)" style="fill:#136433;fill-opacity:1;fill-rule:nonzero;stroke:none" transform="matrix(1.33333 0 0 -1.33333 2186.585 700.773)"></path><path d="M0 0h100.012v-293.017H18.716v276.056z" clip-path="url(#clipPath25)" style="fill:#136433;fill-opacity:1;fill-rule:nonzero;stroke:none" transform="matrix(1.33333 0 0 -1.33333 2597.55 700.773)" data-source="https://football-logos.cc"></path><path d="M0 0h75.447v125.453l181.6-158.79v311.44l-99.134 7.895 20.178-15.791v-129.84L0 317.581Z" clip-path="url(#clipPath27)" style="fill:#136433;fill-opacity:1;fill-rule:nonzero;stroke:none" transform="matrix(1.33333 0 0 -1.33333 2791.725 1100.43)"></path><path d="M0 0h-49.128s-52.639 7.896-94.748 0-104.398-44.742-109.662-133.349 87.729-171.95 153.526-150.895l84.221-95.625-1.755 250.907-83.343 6.141v-89.485s-64.92 14.037-67.551 62.288 14.7 70.184 41.564 74.57c26.864 4.387 109.33-11.405 109.33-11.405v64.92z" clip-path="url(#clipPath29)" style="fill:#136433;fill-opacity:1;fill-rule:nonzero;stroke:none" transform="matrix(1.33333 0 0 -1.33333 3513.447 751.85)"></path><path d="M0 0c-4.243-2.39-9.143-3.574-14.701-3.574-6.095 0-11.522 1.381-16.291 4.166-4.768 2.784-8.495 6.731-11.192 11.85-2.686 5.12-4.034 11.084-4.034 17.88 0 6.797 1.348 12.761 4.034 17.881 2.697 5.119 6.424 9.044 11.192 11.784 4.769 2.73 10.196 4.1 16.291 4.1 5.558 0 10.458-1.184 14.701-3.573q6.347-3.569 9.932-10.853h18.143c-3.442 8.824-8.989 15.643-16.619 20.456C3.815 74.929-4.9 77.33-14.701 77.33c-8.562 0-16.444-2.006-23.635-6.018-7.203-4.023-12.893-9.604-17.091-16.751q-6.282-10.738-6.281-24.239 0-13.5 6.281-24.238c4.198-7.147 9.866-12.728 17.025-16.751 7.148-4.012 15.051-6.018 23.701-6.018 9.801 0 18.516 2.379 26.157 7.147 7.63 4.769 13.177 11.566 16.619 20.391H9.932Q6.347 3.569 0 0" clip-path="url(#clipPath31)" style="fill:#c22132;fill-opacity:1;fill-rule:nonzero;stroke:none" transform="matrix(1.33333 0 0 -1.33333 1766.957 1285.424)"></path><path d="M1421.228 2476.036h15.096v92.042h-15.096z" clip-path="url(#clipPath33)" style="fill:#c22132;fill-opacity:1;fill-rule:nonzero;stroke:none" transform="matrix(1.33333 0 0 -1.33333 0 4608)"></path><path d="M0 0v-12.322h24.633v-79.72h15.096v79.72H64.23V0Z" clip-path="url(#clipPath35)" style="fill:#c22132;fill-opacity:1;fill-rule:nonzero;stroke:none" transform="matrix(1.33333 0 0 -1.33333 2002.316 1183.896)"></path><path d="m0 0-21.322-45.166L-42.645 0h-16.816l30.586-58.672v-33.37h15.095v33.37L16.685 0Z" clip-path="url(#clipPath37)" style="fill:#c22132;fill-opacity:1;fill-rule:nonzero;stroke:none" transform="matrix(1.33333 0 0 -1.33333 2268.766 1183.896)"></path><path d="M0 0v12.322h-54.166V-79.72h15.096v40.255h30.465v12.321H-39.07V0z" clip-path="url(#clipPath39)" style="fill:#c22132;fill-opacity:1;fill-rule:nonzero;stroke:none" transform="matrix(1.33333 0 0 -1.33333 2520.38 1200.325)"></path><path d="M0 0c-1.854 1.853-4.101 2.773-6.754 2.773-2.74 0-5.031-.92-6.884-2.773-1.853-1.864-2.785-4.155-2.785-6.896 0-2.729.932-5.031 2.785-6.884s4.144-2.784 6.884-2.784c2.653 0 4.9.931 6.754 2.784s2.784 4.155 2.784 6.884C2.784-4.155 1.853-1.864 0 0" clip-path="url(#clipPath41)" style="fill:#c22132;fill-opacity:1;fill-rule:nonzero;stroke:none" transform="matrix(1.33333 0 0 -1.33333 2623.313 1285.775)"></path><path d="M0 0c-4.231-2.39-9.132-3.574-14.701-3.574-6.084 0-11.511 1.381-16.29 4.166-4.758 2.784-8.496 6.731-11.182 11.85-2.697 5.12-4.034 11.084-4.034 17.88 0 6.797 1.337 12.761 4.034 17.881 2.686 5.119 6.424 9.044 11.182 11.784 4.779 2.73 10.206 4.1 16.29 4.1 5.569 0 10.47-1.184 14.701-3.573q6.364-3.569 9.933-10.853h18.142c-3.442 8.824-8.978 15.643-16.619 20.456C3.826 74.929-4.9 77.33-14.701 77.33c-8.562 0-16.444-2.006-23.635-6.018-7.191-4.023-12.893-9.604-17.08-16.751-4.198-7.159-6.292-15.238-6.292-24.239 0-9 2.094-17.079 6.292-24.238 4.187-7.147 9.866-12.728 17.014-16.751 7.148-4.012 15.051-6.018 23.701-6.018 9.801 0 18.527 2.379 26.157 7.147 7.641 4.769 13.177 11.566 16.619 20.391H9.933Q6.363 3.569 0 0" clip-path="url(#clipPath43)" style="fill:#c22132;fill-opacity:1;fill-rule:nonzero;stroke:none" transform="matrix(1.33333 0 0 -1.33333 2791.405 1285.424)"></path><path d="M0 0c-1.853 1.853-4.1 2.773-6.753 2.773-2.74 0-5.031-.92-6.884-2.773-1.853-1.864-2.785-4.155-2.785-6.896 0-2.729.932-5.031 2.785-6.884s4.144-2.784 6.884-2.784c2.653 0 4.9.931 6.753 2.784 1.854 1.853 2.774 4.155 2.774 6.884C2.774-4.155 1.854-1.864 0 0" clip-path="url(#clipPath45)" style="fill:#c22132;fill-opacity:1;fill-rule:nonzero;stroke:none" transform="matrix(1.33333 0 0 -1.33333 2936.55 1285.775)" data-source="https://football-logos.cc"></path><!-- source: https://football-logos.cc --></svg>