<svg xmlns="http://www.w3.org/2000/svg" xml:space="preserve" viewBox="0 0 548.91 634.34"><!-- Source: https://football-logos.cc --><path d="m548.915 426.07-40.322-29.867c21.103-38.235 33.126-82.182 33.126-128.942C541.719 119.659 422.061 0 274.458 0 126.856 0 7.198 119.659 7.198 267.261c0 46.76 12.022 90.708 33.124 128.943L0 426.071c28.412 48.912 69.522 89.566 118.784 117.437L92.29 585.862c53.714 30.831 115.917 48.478 182.168 48.478s128.456-17.647 182.17-48.479l-26.493-42.355c49.261-27.87 90.369-68.525 118.78-117.436" data-source="https://football-logos.cc"></path><path fill="#FFF200" d="m185.438 609.06-5.365-1.723 7.389-22.992-.077-.024-12.524 21.341-5.632-1.81 2.37-24.605-.077-.024-7.389 22.992-5.365-1.726 8.842-27.512 8.393 2.696-1.989 23.29.077.024 11.875-20.112 8.315 2.673zM210.543 591.32l.079.016 1.177 11.92-7.211-1.5zm-8.548 14.993 10.442 2.175.598 6.209 6.423 1.338-4.078-30.367-6.815-1.42-15.979 26.19 6.225 1.296zM233.977 612.362l14.295 1.462-.532 5.205-20.3-2.074 2.938-28.75 6.006.614zM268.79 597.205l.081.002 3.297 11.516-7.363-.183zm-5.718 16.284 10.663.265 1.703 6 6.559.163-9.464-29.142-6.961-.173-11.016 28.635 6.357.157zM304.082 618.752l-6.026.365-.661-10.889-11.055-17.354 7.111-.431 6.747 12.172 4.943-12.882 6.831-.415-8.548 18.624zM370.739 583.138l.078-.022 6.6 9.997-7.08 2.033zm-.571 17.25 10.251-2.944 3.424 5.213 6.305-1.811-17.765-24.965-6.693 1.922-1.925 30.621 6.113-1.756zM355.915 610.493l-5.887 1.341-6.422-28.178 5.886-1.341zM323.504 607.47c.253 1.59 1.453 4.517 6.68 3.822 2.834-.377 5.896-1.476 5.492-4.508-.297-2.233-2.532-2.546-5.658-2.86l-3.168-.31c-4.772-.462-9.379-.905-10.217-7.209-.425-3.191.543-9.046 9.839-10.282 8.779-1.167 11.896 4.265 12.403 7.771l-5.745.764c-.329-1.256-1.212-4.224-6.438-3.529-2.274.303-4.877 1.501-4.531 4.095.297 2.234 2.196 2.469 3.431 2.589l7.21.787c4.038.438 7.841 1.557 8.525 6.704 1.146 8.618-7.531 10.543-10.044 10.877-10.455 1.39-13.051-4.396-13.524-7.947zM41.321 439.391l6.771-5.125 2.891 3.819c2.26 2.985 2.276 4.941.029 6.642-1.026.777-3.594 2.72-6.315-.874zm-3.98 3.013 4.178 5.519c4.689 6.194 10.826 3.367 12.913 1.788 4.524-3.426 5.341-8.284 1.964-12.744l-7.968-10.528-23.043 17.442 3.644 4.814zM75.609 466.862 65.124 455.67l-4.435 4.155 9.631 10.281-3.73 3.495-9.632-10.282-5.463 5.119 10.953 11.691-3.731 3.494-14.998-16.009 21.091-19.758 14.53 15.51zM80.306 481.717l5.168-5.746 5.596 5.034c2.633 2.368 1.635 4.502.612 5.639-1.911 2.124-3.775 1.91-6.109-.189zm-15.22 8.073 4.399 3.955 7.563-8.408 4.638 4.172c3.322 2.987 2.479 4.287-.159 7.22-1.991 2.214-2.808 3.483-3.424 4.771l4.967 4.468.512-.568c-.635-1.221.065-1.999 2.892-5.142 3.606-4.01 3.241-5.528 2.175-7.896 2.771 1.193 5.798.235 7.924-2.129 1.669-1.855 4.417-7.017-1.298-12.158l-10.863-9.771zM100.856 507.792c-.913 1.325-2.061 4.274 2.205 7.374 2.311 1.681 5.286 2.997 7.084.521 1.325-1.824-.077-3.589-2.126-5.975l-2.081-2.408c-3.138-3.623-6.17-7.12-2.43-12.265 1.893-2.604 6.629-6.178 14.216-.663 7.163 5.206 5.676 11.29 3.626 14.179l-4.688-3.407c.626-1.136 2.035-3.896-2.23-6.995-1.855-1.349-4.566-2.274-6.105-.158-1.325 1.823-.111 3.303.7 4.24l4.681 5.541c2.622 3.1 4.605 6.532 1.553 10.732-5.111 7.032-12.724 2.445-14.774.954-8.531-6.199-6.423-12.181-4.316-15.078zM137.265 514.915l.071.04-2.469 11.721-6.424-3.604zm-12.667 11.722 9.302 5.22-1.299 6.101 5.722 3.21 5.256-30.187-6.072-3.406-23.124 20.163 5.546 3.111zM157.351 549.691l-5.511-2.469 9.721-21.71-7.971-3.57 2.09-4.665 21.453 9.606-2.089 4.666-7.972-3.569zM197.666 553.17c-2.3 7.253-7.659 8.974-14.604 6.771-2.531-.804-6.097-2.61-7.688-6.113-.961-2.162-.831-4.569-.032-7.357l5.793-18.263 5.87 1.862-5.671 17.879c-1.216 3.836.474 6.23 3.159 7.083 3.952 1.253 6.172-.154 7.23-3.491l5.757-18.148 5.87 1.861zM256.634 543.582l5.605.58-2.977 28.746-6.005-.621-9.608-21.715-.08-.008-2.124 20.498-5.605-.58 2.978-28.746 6.326.655 9.337 21.2.08.008zM218.92 544.935l.079.017 1.241 11.914-7.218-1.462zm-8.468 15.039 10.454 2.118.632 6.206 6.429 1.303-4.242-30.345-6.825-1.383-15.836 26.277 6.233 1.264zM408.255 532.648c.784 1.406 2.921 3.739 7.588 1.286 2.529-1.329 5.024-3.416 3.602-6.123-1.049-1.995-3.253-1.518-6.299-.736l-3.079.802c-4.64 1.211-9.117 2.381-12.075-3.248-1.499-2.85-2.608-8.679 5.693-13.043 7.838-4.12 12.637-.094 14.321 3.021l-5.13 2.697c-.743-1.064-2.595-3.549-7.262-1.094-2.03 1.066-4.059 3.088-2.842 5.404 1.05 1.995 2.912 1.561 4.113 1.248l7.039-1.745c3.941-.981 7.897-1.242 10.313 3.354 4.047 7.696-3.437 12.493-5.681 13.674-9.334 4.907-13.766.37-15.434-2.801zM288.528 560.238l7.68-.343c2.171-.097 4.386.77 4.5 3.304.131 2.936-1.5 4.297-4.436 4.428l-7.399.332zm-5.221 12.965 12.224-.546c5.91-.265 7.433-1.341 9.01-3.023 1.462-1.555 2.329-3.769 2.229-6.062-.129-2.855-1.18-5.628-4.778-6.797 1.181-.656 3.461-1.928 3.275-6.069-.133-2.975-2.141-7.317-9.217-7.001l-14.032.628zm4.722-24.143 6.915-.309c2.733-.122 4.455.526 4.563 2.898.102 2.291-1.747 3.301-4.12 3.407l-7.076.317zM320.348 555.308c-1.436-7.962 2.723-10.758 5.93-11.336 3.209-.579 8.082.586 9.52 8.547s-2.723 10.757-5.93 11.336c-3.21.58-8.083-.586-9.52-8.547m-5.941 1.072c2.41 13.348 12.604 13.185 16.367 12.505s13.372-4.09 10.963-17.438-12.604-13.185-16.367-12.505c-3.762.677-13.372 4.089-10.963 17.438M354.478 557.031l13.935-3.506 1.278 5.073-19.791 4.981-7.053-28.026 5.854-1.473zM380.631 530.207l.076-.027 7.282 9.512-6.919 2.524zm.637 17.249 10.021-3.655 3.779 4.963 6.164-2.249-19.471-23.66-6.542 2.386.225 30.682 5.974-2.179zM441.512 495.292l-12.889 8.312 3.294 5.107 11.839-7.635 2.771 4.295-11.839 7.635 4.057 6.292 13.463-8.682 2.771 4.296-18.435 11.889-15.662-24.287 17.86-11.518zM456.987 493.091l-5.327-6.614 3.729-3.005c2.916-2.347 4.87-2.424 6.638-.229.809 1.003 2.827 3.511-.683 6.339zm3.131 3.887 5.392-4.343c6.05-4.873 3.038-10.922 1.396-12.96-3.56-4.419-8.439-5.089-12.797-1.578l-10.281 8.281 18.129 22.505 4.702-3.788zM476.301 466.184l.057-.058L487 471.624l-5.183 5.234zm7.931 15.329 7.504-7.578 5.536 2.875 4.616-4.661-27.701-13.099-4.898 4.948 13.285 27.656 4.475-4.52zM510.977 461.056l-3.882 4.625-22.133-18.584 3.881-4.625 9.003 7.558-1.909-16.003 5.02-5.981 1.48 16.642 21.093 1.419-4.995 5.949-15.455-1.31.406 4.021zM208.159 354.09c-.471.822-11.585.361-12.088 1.218 0 0 3.87.885 6.541 1.609 2.188.594 3.069 1.402 2.885 1.71a227 227 0 0 1-8.083 12.518s-5.367-.945-8.639-.118c0 0 5.649 4.308 5.247 4.85a178 178 0 0 1-3.644 4.754c-.73.92-6.884-7.01-12.62-6.406 0 0 3.284 2.161 5.636 4.528 2.538 2.557 4.154 5.34 4.027 5.489-4.535 5.375-9.477 10.463-14.742 14.786 0 0-2.166-11.118-4.882-12.023-.566-.188 1.222 14.862 1.222 14.862-3.379 2.469-6.88 4.597-10.479 6.27 0 0-4.025-7.246-13.283-8.856 0 0 37.029-35.419 51.52-57.154 0 0 11.672-1.61 20.527-5.636-.001-.002-3.307 7.413-9.145 17.599M126.875 284.836c1.797 2.202 6.845-2.403 10.733-3.354 6.038-1.476 10.465.135 10.6-6.977.103-5.5-.67-8.989-11.405-9.257-8.38-.21-11.27-.94-11.27 4.561 0 3.237-1.226 11.878 1.342 15.027M142.707 259.881c6.171 1.611 9.391 8.855 11.001 4.159.894-2.605-3.236-6.619-3.623-11.135-.539-6.305.403-12.88-1.476-12.88-5.77 0-14.73 12.03-16.771 17.039-1.475 3.622 4.836 1.244 10.869 2.817M160.147 258.539c3.221 0 13.686-9.257 13.686-11.94 0-6.392-4.964-15.026-7.781-14.758-5.029.479-11.27 4.293-11.673 8.318-.636 6.36.268 18.38 5.768 18.38M176.651 235.597c1.476 3.22 1.476 8.854 3.22 8.854 6.969 0 16.637-6.842 16.502-10.465-.129-3.488-4.591-12.891-11.538-12.343-5.099.403-9.124 2.147-12.746 6.708-.635.801 3.139 4.144 4.562 7.246M200.867 209.429c8.788-.129 13.675-.974 13.484-8.044-.135-4.964-9.345-18.112-15.161-18.112-6.621 0-8.853 4.383-8.853 13.35 0 7.072 4.715 12.892 10.53 12.806M197.58 224.461c2.218 5.271 3.101 11.407 6.038 8.72 4.696-4.293 9.329-10.511 11.209-13.35 4.489-6.775-3.301-4.896-10.269-4.896-6.969 0-12.075-2.198-12.075 1.208-.001 1.461 3.433 4.36 5.097 8.318M420.162 386.4c4.88 3.301 21.305 13.668 31.663 12.074 3.488-.536 1.341-6.709 4.562-6.976 3.308-.276.537 13.684-6.172 17.709-1.397.839.04 3.916.27 5.367 1.827 11.612 7.659 15.902 14.254 16.597.786.083-1.377-11.293 1.31-11.23 2.681.063 3.023 11.234 4 11.1 2.666-.37 5.317-1.146 7.757-2.1.338-.133.248-3.545-.756-6.854s-2.927-6.516-2.095-6.859c5.229-2.16 6.085 12.3 6.677 12.001 3.376-1.702 5.734-3.791 6.956-4.604 3.22-2.147 3.757-10.197.805-12.88-2.668-2.425-8.04-3.777-10.733-6.441-4.473-4.422-6.216-10.192-5.367-11.538 3.221-5.097 3.597 5.55 8.05 9.661 3.49 3.22 12.966 3.063 12.753 1.356-2.279-18.218-21.069-37.582-51.392-22.286-1.93.973-1.838-.521.945-2.463 2.291-1.598 7.085-3.348 8.178-5.587.934-1.914-2.359-3.405-3.2-5.921-.389-1.156-6.627.353-6.93-.955-.157-.687 5.705-1.823 5.736-2.416.063-1.208-.469-3.106-.685-4.463-.523-3.285-8.618-.169-8.479-2.588.142-2.441 7.655-.026 7.268-3.212-.356-2.936-2.019-5.648-3.638-7.816-1.29-1.725-4.562-1.878-7.246-2.683-1.697-.509-.577-1.801.806-2.146 2.146-.536 2.952-1.855 2.952-3.221 0-4.025-.562-5.087-2.952-6.439-3.883-2.196-12.999 9.525-16.368 10.733 0 0 2.146-8.586-1.074-8.586-8.869 0-15.563 14.517-15.563 30.589-.002 12.075 8.584 16.905 17.708 23.077"></path><path fill="#FFF200" d="M448.482 406.5c.026-.017.048-.035.077-.054 1.431-.857 2.612-2.402 3.551-4.127a2.5 2.5 0 0 0-.443-.604c-2.719.309-5.689 0-8.736-.74-.265.221-.43.487-.43.82 0 2.122 1.831 3.934 4.729 4.629.417.101.837.106 1.252.076M403.542 286.411c-.394-.262-1.562-.35-2.415-.416-.73-.056-1.499-.12-2.245-.276-1.082.634-1.814 1.646-1.976 2.809.068.136.135.255.195.333.681.701 3.146 2.285 7.354 3.24 1.08-.73 1.788-1.843 1.788-3.106 0-.063-.02-.122-.022-.185-.825-.895-1.721-1.761-2.679-2.399M434.604 288.895c0-1.965-1.466-3.558-3.272-3.558-1.544 0-2.83 1.166-3.175 2.729.893.987 1.57 2.434 2.057 4.159.35.14.723.227 1.118.227 1.807 0 3.272-1.593 3.272-3.557M432.329 304.334c.726-.353 1.541-.601 2.393-.764.341-.53.556-1.226.556-1.997 0-1.651-.956-2.99-2.135-2.99-.883 0-1.643.752-1.966 1.824q-.002 1.038-.057 2.075c.192.838.632 1.519 1.209 1.852M439.482 293.288c-2.193 0-3.271 1.558-3.465 3.875 1.069.968 1.762 2.459 1.816 4.191a5.72 5.72 0 0 0 3.259 1.058c2.436 0 3.756-2.617 3.756-5.366.001-4.563-2.93-3.758-5.366-3.758M386.435 319.045c-.022.132-.04.258-.063.389-.535 3.029-1.163 5.623-1.718 7.912-.678 2.801-1.242 5.178-1.51 7.637.048 6.868.297 11.756 1.465 11.756 1.361 0 1.743-4.233 1.743-12.932 0-8.697 2.438-15.295 1.074-15.295-.278 0-.621.183-.991.533"></path><path fill="#FFF200" d="M432.237 307.511c-2.139 2.39-2.597 8.866-2.281 12.343.067.738-3.689-.302-4.763.235-2.736 1.368-4.458 4.852-4.494 3.252-.038-1.729-.209-3.813-1.342-5.567-2.82-4.367-5.937-5.937-5.937-5.937 13.282 6.24 11.422 3.432 12.462 1.423.674-1.297 1.263-2.683 1.658-4.138 2.355-8.684.49-19.113-2.013-19.858-1.24-.368.067 5.87-12.913 6.172-9.475.22-15.5-2.864-17.407-4.83-1.808-1.864-4.328-13.786.503-14.591.971-.162 2.114 1.334 2.313 3.119.121 1.073-1.092 2.137-.101 3.321 1.227 1.465 5.057.491 7.044 1.812 3.563 2.368 6.037 6.843 7.446 7.346 7.036 2.512 9.979-1.545 9.659-4.528-.192-1.819-2.764-2.757-2.917-3.12-1.408-3.321 1.857-3.679.201-8.15-1.007-2.718-3.724-4.428-5.535-5.534-1.815-1.109-.974-3.069-.1-3.019 1.698.096 7.785 3.06 10.465 7.748 1.213 2.122-1.543 6.306 0 7.748 2.176 2.034 6.439-1.107 8.854.201 8.932 4.838 10.379-3.717 7.38-6.171-1.536-1.256-7.246.269-7.246.269-5.786-7.567-13.243-15.808-18.85-21.869-2.482-2.684-22.876-3.22-39.043-13.182 0 0 .604 6.037-1.007 13.182 0 0-22.539 12.075-31.394 29.516-2.26 4.451-3.945 8.624-3.521 12.142.714 5.943 4.786 10.229 2.918 12.377-.76.873-1.942.556-2.013.503-1.026-.778-2.793-3.797-4.327-6.944-2.724-5.586-2.513-10.524 6.34-24.049 4.649-7.104 13.64-17.386 27.973-24.552 1.813-.906 1.813-15.899 1.813-15.899 6.134-1.812 18.04 7.437 25.559 9.056 10.91 2.35 14.892 4.226 11.136-4.494-1.898-4.404-17.185-15.952-32.604-13.417-14.108 2.319-23.076 11.404-26.564 22.272-.765 2.38-2.566.625-2.415-.537 5.099-39.713 56.35-19.588 39.502-29.874-2.429-1.482-4.933-2.975-7.569-4.338-2.977-1.539-5.836-3.642-9.156-4.648-2.919-.886-16 6.158-19.286 6.671-1.218.19 16.063-8.362 12.614-9.294-2.131-.576-4.279-1.151-6.53-1.403-2.977-.334-17.088 7.87-21.917 7.467-9.229-.769 9.461-6.073 10.465-7.648 1.915-3.005-4.81-3.729-6.439-4.025-12.02-2.171-29.469 9.778-35.421 12.88-3.982 2.076-6.038-.403 8.587-10.868.997-.714-18.246 0-26.833 4.293 0 0-4.553 5.154-7.514 9.124-20.947 28.089-40.25 78.353-40.25 78.353 1.844-11.064 4.699-18.695 7.647-24.903 0 0-3.354-3.003-.893-7.666 3.99-7.564 9.346-9.29 9.346-9.29 13.622-34.182 17.709-42.397 8.587-37.567-4.244 2.247-7.797 6.522-11.807 9.66-12.343 9.66-28.98 71.914-28.98 71.914 7.635-40.215 9.345-63.279 9.282-65.886-.664.99-12.515-1.208-19.478 8.999-4.331 6.345-4.241 22.487-6.978 25.223-1.609 1.61.461-17.862-3.22-18.783-4.293-1.074-13.813 4.84-16.1 7.513-7.109 8.309-10.868 17.576-17.709 31.663-1.827 3.761 9.123-26.296 2.281-19.856-10.834 10.197-16.1 22.137-17.309 22.137-2.41 0-2.332-5.634-4.427-5.634-9.625 0-15.294 3.622-19.319 8.05 0 0 7.646 9.257 12.88 16.1 0 0-11.271 10.867-12.478 29.786-1.105 17.313-6.842 26.564-9.659 29.784 0 0 .799.677 2.23 2.097 6.563 5.441 11.882 12.014 15.108 18.283a224 224 0 0 1 3.994 5.781c2.415 3.623 9.911-4.646 15.326-11.319 1.373-1.69-10.524-14.782-8.887-16.452 0 0 14.893 9.257 18.702 6.228a39 39 0 0 0 2.99-2.648c1.233-1.205-5.994-13.238-5.994-13.238 1.46-1.735 11.919 5.438 13.684 4.024 2.013-1.61 5.232-6.037 6.972-9.563 0 0-9.318-7.464-8.388-8.704.915-1.221 13.065 2.446 13.895 1.362.239-.313 6.439-6.843 5.232-9.659-4.488-10.471-28.175-18.918-28.175-18.918 4.317-.769 20.125 4.83 31.797 15.697 0 0 1.555-7.758.403-10.063-5.232-10.464-13.685-16.502-13.685-16.502 9.66 2.816 17.71 8.452 22.942 16.502 0 0-7.245 8.05-8.05 14.893 0 0 6.069-2.193 15.963-4.275 2.711-.569 5.313-4.299 8.589-4.178 10.868.403 29.785.807 46.69 2.013 1.295.093-18.008-4.025-17.979-17.576.067-31.327 22.004-67.552 35.286-77.816l2.214 2.818c-18.918 14.892-39.901 65.224-32.2 81.909 1.208 2.615 15.295 8.05 21.333 11.671 3.02 1.813 25.156 1.813 25.156 1.813-.826 5.574-.831 10.204-.198 14.086a70.5 70.5 0 0 0-32.002-7.647c-39.124 0-70.839 31.718-70.839 70.841 0 33.092 22.693 60.881 53.366 68.663-.278 2.911-2.09 7.093-4.269 11.301-1.983 3.829-3.08 7.14-4.5 9.391h8.533c1.421-2.251 2.517-5.562 4.5-9.391 1.811-3.498 3.376-6.983 4.02-9.737 1.919.249 3.858.436 5.822.528-.705 2.661-2.187 5.931-3.884 9.209-1.983 3.829-3.079 7.14-4.5 9.391h8.533c1.422-2.251 2.517-5.562 4.501-9.391 1.722-3.327 3.23-6.648 3.926-9.335a71 71 0 0 0 6.101-.697c-.589 2.795-2.19 6.402-4.07 10.032-1.983 3.829-3.079 7.14-4.501 9.391h8.533c1.422-2.251 2.518-5.562 4.501-9.391 2.365-4.566 4.321-9.124 4.326-12.033 29.331-8.665 50.743-35.791 50.743-67.931 0-17.23-6.157-33.02-16.385-45.301.885-3.296 2.824-10.976 2.196-12.86-.065-.194 4.126-.503 4.227.503.436 4.355-2.857 14.673-2.421 14.735 1.709.25 3.428.462 5.137.66 1.364.159 2.714.326 4.027.479 0 0 1.286-13.831 2.011-13.761.258.025 3.623.806 3.623.806.523 4.337-1.107 13.382-1.107 13.382 3.881.24 7.073-.029 8.755-1.71 4.203-4.202 4.226-23.646-4.831-31.898-4.051-3.691-7.697-8.447-12.577-10.464-7.229-2.989-16.301-2.616-16.301-2.616 1.307-2.314 10.866-1.912 13.885-.805 0 0 .057-4.61.589-5.012-.948-1.473-3.908-6.058-6.927-8.775-1.406-1.265-4.273-2.631-4.429-2.683-.805-.268-2.548-1.414-4.83.402-5.08 4.046-12.261 14.081-11.94 13.282 5.232-13.014 13.663-16.913 13.551-17.307-.546-1.908 1.008-3.694-.805-4.696-5.098-2.817-24.843.109-23.076-.805 3.891-2.012 23.524-1.374 23.524-2.012 0-.194.894-2.281.222-2.952-4.294-4.295-15.428-8.185-15.428-8.185 5.232-.805 18.755 6.256 18.755 6.256 1.37-1.721 2.437-3.473 1.639-4.646-4.294-6.306-15.765-5.597-13.954-6.172 8.452-2.683 16.87 4.369 17.309 4.697 5.365 4.025-2.568 3.581-3.488 10.331-.389 2.841-.51 6.817.267 8.721.903 2.209 3.312 4.138 4.831 6.038 3.891 4.864 6.337 8.285 5.466 8.885 1.401 1.453 1.681 5.82 2.314 6.078 6.959 2.836 14.29 7.5 20.663 10.931 15.697 8.452 1.207 27.37 21.735 31.798 5.814 1.253 15.987 3.744 20.623 2.448a25 25 0 0 1-.498-4.998c0-4.852.602-9.746 1.741-14.253-2.721-.643-13.203.496-17.842-.707-2.605-.675-1.61-9.259-1.61-10.464 0-6.038 2.016-10.749 3.421-18.716 1.227-6.958 1.702-13.708 5.031-17.106 2.03-2.074 5.022-2.026 8.077-1.097 1.469.446 2.791-3.431 4.903-3.13 5.235.748 6.648 9.434 6.742 9.961.065.372-.964 1.859-2.917 1.208-1.867-.622-1.729-6.97-4.528-7.145-4.831-.301 1.021 11.271-3.725 11.17-4.729-.101 1.51-12.377-6.439-8.755-.372.171-4.024 9.963-3.421 11.875 1.575 4.989 6.943 19.723 6.943 19.723 10.541-4.75 20.728-7.044 23.747-6.238 3.271.871 3.476 4.532 3.476 4.532 4.775-4.634 7.722-5.848 10.209-9.665 2.675-4.104 8.441-8.764 9.123-13.652.806-5.775-7.647-5.91-9.929-3.36m-272.09 30.991c-5.104-1.146-5.031-1.206-5.031-1.206 1.51-1.57 7.449-.301 8.684.227 2.634 1.128 6.41 4.603 6.41 4.603-.048-.044-7.97-3.153-10.063-3.624m11.674-11.471c4.82 2.574 6.439 6.642 6.439 6.642-2.463-2.557-6.329-4.947-11.672-6.642-6.035-1.914-16.301-2.213-16.301-2.213 1.981-1.736 10.093-1.682 14.088-.604 1.998.54 6.013 2.053 7.446 2.817m146.627 24.847c1.897-.022 4.353-.786 4.61.511.535 2.672-.002 5.823-.61 8.399a71 71 0 0 0-4.643-4.295c.206-2.48.419-4.613.643-4.615m14.775 58.672c0 33.734-27.445 61.181-61.18 61.181s-61.18-27.446-61.18-61.181 27.446-61.181 61.18-61.181 61.18 27.445 61.18 61.181m-36.627-145.705c-3.725-.503-13.384.201-13.384.201 5.435-3.119 14.994-2.616 17.71-1.508 3.504 1.426 5.031 4.624 5.031 4.624-2.616-1.811-7.18-3.023-9.357-3.317m27.101 1.491c-.905-5.132-2.763-10.395-11.471-16.201-3.02-2.013-19.321-1.106-19.321-1.106 5.209-3.913 14.517-5.874 20.729-3.019 3.437 1.578 7.761 5.625 9.356 9.961 1.864 5.059.707 10.365.707 10.365m2.079-36.207c-3.019-2.013-19.32-1.106-19.32-1.106 5.21-3.913 14.517-5.874 20.729-3.019 3.437 1.579 7.761 5.625 9.356 9.961 1.864 5.059.706 10.365.706 10.365-.904-5.132-2.762-10.394-11.471-16.201m30.058 58.878c-2.904 16.46 3.358 26.019 3.358 26.019-4.735-4.475-8.922-15.505-7.837-22.255.543-3.377.786-9.337 2.193-11.625 3.22-5.232 15.497-13.885 15.497-13.885-3.779 4.487-10.903 8.664-13.211 21.746m11.199 9.245c0-3.42 0-10.464.603-13.081 1.439-6.232 9.46-12.075 9.46-12.075-3.019 5.031-6.038 7.447-6.24 20.729-.253 16.713 7.446 25.156 7.446 25.156-5.384-3.668-11.269-13.892-11.269-20.729m19.521-5.232c-1.812-1.208-3.12-4.229-3.12-7.647 0-1.711 0-4.327.303-5.635.719-3.117 4.729-6.943 4.729-6.943-1.509 2.516-2.917 5.735-3.119 10.363-.229 5.228 1.207 9.862 1.207 9.862m-1.611-30.897c-6.235 1.625-11.471 3.327-11.471 3.327 1.811-2.214 6.627-3.983 10.465-5.434 9.056-3.422 11.673 0 11.673 0-3.511-.248-6.439 1.006-10.667 2.107"></path><path fill="#FFF200" d="M314.056 437.447c0 .992.058 1.972.158 2.938l-1.69.578c-4.047-10.266-17.983-16.125-32.998-13.285-7.138 1.351-13.333 4.445-17.877 8.503l-.834-.822c6.421-5.83 10.558-14.854 10.558-25.008a36.7 36.7 0 0 0-.529-6.176h2.454c.209.697.411 1.394.669 2.089 5.809 15.645 22.083 24.448 36.347 19.663 13.9-4.664 20.73-20.509 15.694-35.794a57 57 0 0 0-3.177-6.958c-7.242-11.947-21.152-18.065-33.555-13.904-.202.067-.387.16-.585.233l-.896-1.466c4.634-2.63 8.224-5.659 10.444-8.876a57.3 57.3 0 0 0-26.188-6.312c-18.211 0-34.467 8.49-45.051 21.708 4.036 1.227 8.608 2.098 13.572 2.527v1.654c-13.746 1.824-24.425 15.271-24.425 31.61 0 13.369 7.155 24.797 17.284 29.515a27 27 0 0 0-6.208-.742c-1.707 0-3.37.177-4.991.48 7.135 12.188 18.602 21.537 32.283 25.913a28.4 28.4 0 0 0-.756-5.29l1.798-.345c1.579 3.029 4.077 5.6 7.202 7.609 3.027.491 6.128.759 9.292.759 16.13 0 30.728-6.662 41.209-17.368.473-2.12.572-4.29.224-6.457l1.367-.467a27.5 27.5 0 0 0 1.233 3.82c8.119-9.59 13.164-21.852 13.616-35.266a27.62 27.62 0 0 0-15.644 24.937m-69.898-60.126c4.25.182 8.726.063 13.332-.402 10.369-1.045 19.755-3.664 27.12-7.217l.788 1.292c-10.021 5.43-15.2 17.309-12.981 29.595h-2.38c-3.538-12.666-13.76-21.854-25.879-22.055zm9.759 77.912c.081.427.213.834.326 1.249l-1.55.297c-2.588-6.752-7.715-12.211-14.212-15.186a24 24 0 0 0 5.278.597c5.209 0 10.066-1.695 14.223-4.587l1.157 1.139c-4.239 4.862-6.318 10.696-5.222 16.491M361.396 79.495c-5.031 0-31.798-22.54-32.2-28.175-.258-3.618 24.689-2.817 31.998-2.817 3.824 0 27.371 16.905 28.577 28.98.323 3.228-21.067 2.012-28.375 2.012M328.389 509.564c-3.486-4.562-6.17-7.246-10.731-11.001-11.837-9.748-16.369-13.954-15.096-14.845 1.493-1.044 4.862-1.094 6.776-.988 9.66.537 24.149 9.394 30.322 19.053zM390.174 107.303c-11.727.518-25.746-10.95-28.325-23.941 1.261.008 2.872.042 4.731.085 16.022.364 22.603.052 25.405-2.372a222 222 0 0 1 28.736 21.672c-5.903 1.743-22.805 4.215-30.547 4.556"></path><path fill="#FFF200" d="M393.613 77.538c-.001-.147.018-.292.002-.44-.857-8.573-10.685-18.917-19.514-25.586 3.304-1.573 7.396-2.454 12.45-2.404 14.931.145 28.979 15.295 32.803 32.602.913 4.137 3.307 13.426 3.615 17.872a225 225 0 0 0-29.356-22.044M346.1 451.604c12.543-13.543 18.374-31.663 30.859-31.663l.103.001c-3.283 5.338-5.615 11.245-6.601 17.362-.426 2.636-1.23 6.436-2.081 10.461-2.313 10.933-3.447 16.861-3.157 20.157a218.4 218.4 0 0 1-49.479 15.688c.014-.116.018-.223.035-.344.946-6.243 19.176-19.627 30.321-31.662M366.639 471.526l.014.023c2.173 2.288 8.857 4.563 33.937 5.028-5.109 10.521-16.394 17.208-35.438 17.208-15.06 0-28.359-3.593-36.389-9.081a222.3 222.3 0 0 0 37.876-13.178M409.049 400.658c-.576 5.782-2.891 31.601.661 40.305a220.6 220.6 0 0 1-40.662 25.171c.302-6.008 4.065-21.018 5.227-28.214 2.744-17.01 17.955-33.987 34.774-37.262M412.152 443.956c2.99 1.737 8.974 1.779 23.573 1.103 2.915-.135 5.69-.263 7.922-.306-3.551 15.593-16.937 28.05-33.148 28.05-9.678 0-33.28-.254-39.72-3.213a224.4 224.4 0 0 0 41.373-25.634M457.337 327.953c-1.747-4.277-2.753-9.301-2.753-14.673 0-9.91 3.429-18.615 8.606-23.663 5.344 10.724 12.685 19.753 17.962 24.82q.482.461.937.879c.123.109.247.227.366.333.411.367.812.714 1.187 1.021.429.354.842.676 1.245.975.238.176.464.324.693.48.154.108.316.228.469.326.301.195.593.365.881.527.068.04.141.088.209.124.321.175.635.325.94.46q.043.022.086.041c.074.031.143.049.216.078a218.7 218.7 0 0 1-18.391 48.857c-4.196-22.081-9.675-33.288-12.653-40.585M480.497 360.743s-1.512.548-2.975 1.258a222.3 222.3 0 0 0 14.737-41.917c4.373-1.124 18.764-11.652 29.206-28.243 1.448 3.126 2.001 7.945 2.001 15.401.001 18.963-14.953 41.796-42.969 53.501"></path><path fill="#FFF200" d="M460.141 263.504c0-6.259 1.246-11.857 3.411-16.749 9.679 11.153 22.837 20.425 31.134 21.769a220.2 220.2 0 0 1-5.399 47.342c-7.795-3.921-29.146-29.339-29.146-52.362M498.556 268.04c6.426-3.897 18.202-24.209 23.011-39.001 5.173 4.607 7.637 12.591 7.536 25.878-.245 32.002-26.949 55.77-35.781 60.581a224.2 224.2 0 0 0 5.234-47.458M455.051 221.51c0-3.224.334-6.819.975-10.53 3.962 2.301 8.416 4.408 13.376 6.455 11.735 4.841 17.58 6.496 21.006 6.481a220.3 220.3 0 0 1 4.26 40.692c-12.275-2.558-39.617-26.549-39.617-43.098M494.135 222.838c9.39-6.005 12.132-22.692 12.843-38.126 9.019 8.159 14.483 21.109 12.733 35.589-1.807 14.943-15.783 37.118-21.196 43.034a224 224 0 0 0-4.38-40.497M470.874 213.862c-21.331-8.799-32.053-17.876-31.66-39.712a86 86 0 0 0 13.152 4.671l.661.177c13.981 3.75 21.087 5.085 25.074 4.413a218.5 218.5 0 0 1 11.479 36.591c-4.839-.435-14.896-4.569-18.706-6.14"></path><path fill="#FFF200" d="M493.255 218.716a222.3 222.3 0 0 0-11.671-36.996c2.927-2.928 5.833-10.539 5.833-41.649 0-1.515-.129-3.103-.359-4.732 9.486 9.694 16.285 25.321 16.285 38.408 0 14.15-.869 37.299-10.088 44.969M458.54 139.596c1.66-2.571 2.238-8.387 2.124-29.031l-.014-3.299c0-2.131-.206-4.281-.589-6.416 13.886 7.812 23.492 26.509 23.492 39.22 0 9.383-.171 30.691-3.735 37.515a224 224 0 0 0-21.278-37.989M453.366 175.089c-22.541-6.038-37.03-19.321-37.688-32.703-.016-.314-.018-.642-.024-.964 2.776.783 5.55 1.238 8.234 1.304l5.294.159c15.103.49 22.435.43 26.255-.986a220.2 220.2 0 0 1 21.093 37.806c-5.139.268-16.935-2.949-23.164-4.616M453.088 138.58c-5.593 1.298-20.001.509-29.105.284-14.629-.362-31.51-13.078-34.819-27.725.393.004.793.042 1.18.024.282-.013 25.34-1.934 33.434-5.647a222.2 222.2 0 0 1 29.31 33.064M426.543 102.816c.805-2.476.128-6.823-2.643-18.601l-.773-3.34a51 51 0 0 0-2.443-7.87 34 34 0 0 1 3.099-.151c19.333 0 33.005 17.752 33.005 34.413 0 6.403.301 22.83-.926 28.563a226 226 0 0 0-29.319-33.014M508.683 346.979c-8.254 8.113-19.368 15.171-33.494 19.855a225 225 0 0 1-3.098 5.971 32 32 0 0 1 7.181 2.776c5.917 3.153 10.787 8.216 14.013 14.264 8.719-8.195 15.029-20.55 15.425-39.133a61 61 0 0 0-.027-3.733M448.732 352.504c.117.97-.05 1.901-.468 2.707.82.649 1.441 1.593 1.662 2.976.055.351.145.784.238 1.243.27 1.302.548 2.649.481 3.896-.01.19-.055.352-.088.521.482.392.874.924 1.118 1.658.145.428.714 1.06 1.216 1.617 1.001 1.109 2.733 3.046 2.234 5.519 4.266-.888 8.108-1.047 11.538-.746-3.647-20.479-8.399-31.801-11.637-39.45l-1.17-2.796c-3.725 2.101-7.048 6.491-9.44 13.436.018.023.04.041.059.065 1.6 2.137 3.781 5.434 4.257 9.354M464.401 434.374c-6.522-.687-14.784-4.593-17.099-19.298-.026-.171-.158-.629-.255-.964-.235-.825-.585-2.045-.631-3.313a226 226 0 0 1-30.74 30.34c5.819 1.188 21.865-.269 29.438-.269 7.123 0 13.986-2.281 20.004-6.425-.366-.034-.717-.071-.717-.071M418.358 389.067l-.909-.611c-2.488 4.056-4.072 8.045-4.445 11.495-1.099 10.181-2.229 31.553-.172 38.521a222 222 0 0 0 28.495-27.628c-1.101-3.455-1.94-7.245-2.59-11.118-8.222-2.855-16.277-7.883-20.379-10.659M187.518 79.495c5.031 0 31.798-22.54 32.2-28.175.26-3.618-24.689-2.817-31.998-2.817-3.824 0-27.37 16.905-28.578 28.98-.323 3.228 21.066 2.012 28.376 2.012M220.522 509.564c3.488-4.562 6.172-7.246 10.733-11.001 11.835-9.748 16.368-13.954 15.096-14.845-1.494-1.044-4.863-1.094-6.777-.988-9.66.537-24.15 9.394-30.321 19.053zM158.739 107.303c11.726.518 25.746-10.95 28.325-23.941-1.26.008-2.872.042-4.731.085-16.021.364-22.603.052-25.406-2.372a221.7 221.7 0 0 0-28.735 21.672c5.902 1.743 22.805 4.215 30.547 4.556" data-source="https://football-logos.cc"></path><path fill="#FFF200" d="M155.299 77.538c.001-.147-.017-.292-.002-.44.857-8.573 10.685-18.917 19.514-25.586-3.304-1.573-7.396-2.454-12.449-2.404-14.932.145-28.98 15.295-32.804 32.602-.914 4.137-3.306 13.426-3.615 17.872a225 225 0 0 1 29.356-22.044M202.813 451.604c-12.543-13.543-18.375-31.663-30.859-31.663l-.103.001c3.284 5.338 5.615 11.245 6.601 17.362.426 2.636 1.23 6.436 2.081 10.461 2.313 10.933 3.447 16.861 3.157 20.157a218.4 218.4 0 0 0 49.479 15.688c-.013-.116-.017-.223-.035-.344-.945-6.243-19.176-19.627-30.321-31.662M182.274 471.526l-.014.023c-2.174 2.288-8.857 4.563-33.936 5.028 5.11 10.521 16.393 17.208 35.437 17.208 15.062 0 28.361-3.593 36.389-9.081a222.3 222.3 0 0 1-37.876-13.178M139.865 400.658c.575 5.782 2.89 31.601-.663 40.305a220.6 220.6 0 0 0 40.661 25.171c-.301-6.008-4.065-21.018-5.226-28.214-2.742-17.01-17.955-33.987-34.772-37.262M136.76 443.956c-2.99 1.737-8.973 1.779-23.573 1.103-2.917-.135-5.69-.263-7.921-.306 3.549 15.593 16.936 28.05 33.147 28.05 9.678 0 33.28-.254 39.721-3.213a224.5 224.5 0 0 1-41.374-25.634M135.908 399.951c-1.008-9.354-10.879-22.662-23.715-30.557.014.834.032 1.652.032 2.516 0 9.546-.648 26.417-4.638 38.935a222 222 0 0 0 28.495 27.628c2.054-6.969.924-28.341-.174-38.522M101.436 409.546c-10.03-.249-24.928-2.038-37.957-9.274 4.256 24.46 21.366 40.6 40.32 40.6 7.573 0 23.618 1.457 29.438.269a226 226 0 0 1-31.801-31.595M95.056 329.648l-1.171 2.796c-3.349 7.913-8.323 19.723-12.012 41.568a221 221 0 0 0 22.709 33.281c2.444-8.832 3.778-20.99 3.778-35.384-.001-24.679-5.852-38.055-13.304-42.261M91.577 327.953c1.747-4.277 2.752-9.301 2.752-14.673 0-9.91-3.429-18.615-8.608-23.663-5.342 10.724-12.684 19.753-17.961 24.82q-.481.461-.938.879c-.121.109-.246.227-.365.333-.412.367-.811.714-1.186 1.021-.429.354-.843.676-1.246.975-.238.176-.463.324-.693.48-.156.108-.316.228-.469.326-.302.195-.592.365-.88.527-.069.04-.141.088-.208.124-.323.175-.636.325-.942.46l-.085.041c-.074.031-.143.049-.216.078a218.7 218.7 0 0 0 18.39 48.857c4.197-22.081 9.675-33.288 12.655-40.585"></path><path fill="#FFF200" d="M73.725 366.834c-14.126-4.685-25.24-11.742-33.495-19.855a59 59 0 0 0-.026 3.733c.971 45.643 37.621 53.722 58.019 54.848a224.7 224.7 0 0 1-24.498-38.726M68.416 360.743s1.513.548 2.974 1.258a222.3 222.3 0 0 1-14.737-41.917c-4.373-1.124-18.764-11.652-29.206-28.243-1.45 3.126-2.002 7.945-2.002 15.401 0 18.963 14.954 41.796 42.971 53.501M88.771 263.504c0-6.259-1.247-11.857-3.412-16.749-9.678 11.153-22.835 20.425-31.131 21.769a220 220 0 0 0 5.398 47.342c7.795-3.921 29.145-29.339 29.145-52.362"></path><path fill="#FFF200" d="M50.357 268.04c-6.426-3.897-18.202-24.209-23.011-39.001-5.173 4.607-7.637 12.591-7.536 25.878.244 32.002 26.949 55.77 35.781 60.581a224.2 224.2 0 0 1-5.234-47.458M93.862 221.51c0-3.224-.334-6.819-.975-10.53-3.962 2.301-8.416 4.408-13.375 6.455-11.737 4.841-17.58 6.496-21.006 6.481a220 220 0 0 0-4.26 40.692c12.275-2.558 39.616-26.549 39.616-43.098M54.778 222.838c-9.39-6.005-12.131-22.692-12.842-38.126-9.019 8.159-14.484 21.109-12.734 35.589 1.807 14.943 15.782 37.118 21.196 43.034a224 224 0 0 1 4.38-40.497M78.039 213.862c21.331-8.799 32.053-17.876 31.661-39.712a86 86 0 0 1-13.152 4.671l-.662.177c-13.982 3.75-21.087 5.085-25.074 4.413a218.3 218.3 0 0 0-11.478 36.591c4.838-.435 14.896-4.569 18.705-6.14"></path><path fill="#FFF200" d="M55.659 218.716a222.3 222.3 0 0 1 11.668-36.996c-2.926-2.928-5.832-10.539-5.832-41.649 0-1.515.129-3.103.359-4.732-9.487 9.694-16.286 25.321-16.286 38.408.002 14.15.871 37.299 10.091 44.969M90.373 139.596c-1.66-2.571-2.238-8.387-2.124-29.031l.012-3.299c0-2.131.207-4.281.59-6.416-13.885 7.812-23.491 26.509-23.491 39.22 0 9.383.169 30.691 3.733 37.515a224 224 0 0 1 21.28-37.989M95.547 175.089c22.541-6.038 37.03-19.321 37.687-32.703.015-.314.017-.642.023-.964-2.775.783-5.549 1.238-8.232 1.304l-5.295.159c-15.104.49-22.435.43-26.255-.986a220 220 0 0 0-21.093 37.806c5.139.268 16.936-2.949 23.165-4.616M95.825 138.58c5.594 1.298 20 .509 29.105.284 14.629-.362 31.509-13.078 34.82-27.725-.393.004-.793.042-1.18.024-.282-.013-25.339-1.934-33.433-5.647a222 222 0 0 0-29.312 33.064M122.37 102.816c-.804-2.476-.128-6.823 2.643-18.601l.773-3.34a51 51 0 0 1 2.444-7.87 34 34 0 0 0-3.099-.151c-19.334 0-33.005 17.752-33.005 34.413 0 6.403-.301 22.83.924 28.563a226 226 0 0 1 29.32-33.014M171.216 161.658c7.044.147 12.679-3.878 13.082-10.719.52-8.841-4.831-8.454-4.831-8.454 10.466-10.866 11.079-26.162 4.831-26.162-8.331 0-27.37 21.002-27.37 30.59 0 8.855 5.96 14.571 14.288 14.745M377.818 161.658c-7.043.147-12.678-3.878-13.081-10.719-.519-8.841 4.832-8.454 4.832-8.454-10.466-10.866-11.079-26.162-4.832-26.162 8.331 0 27.371 21.002 27.371 30.59 0 8.855-5.96 14.571-14.29 14.745M334.833 92.979c-5.479-2.738-10.338-9.034-16.365-11.956-9.204-4.464-24.426-2.41-32.883-5.873a23.6 23.6 0 0 1 2.961-2.296c6.841-4.427 14.339-2.501 19.319-6.44 7.396-5.848 7.226-14.068 11.27-18.112 3.22-3.22 12.075-8.05 12.075-8.05-8.452-4.025-20.125-.402-27.772 12.88-4.191 7.282-14.892 2.013-22.942 6.038-2.561 1.279-4.386 3.165-6.037 5.231-1.652-2.066-3.478-3.952-6.038-5.231-8.05-4.025-18.75 1.244-22.942-6.038-7.648-13.282-19.32-16.905-27.773-12.88 0 0 8.855 4.83 12.075 8.05 4.044 4.044 3.876 12.265 11.27 18.112 4.982 3.938 12.478 2.013 19.321 6.44a23.6 23.6 0 0 1 2.96 2.296c-8.458 3.462-23.68 1.408-32.884 5.873-6.028 2.922-10.887 9.218-16.364 11.956-5.635 2.817-27.773.805-39.848 14.49 0 0 35.823 7.647 45.08 13.685 0 0 3.294-5.823 9.661-10.868 3.698-2.931 8.672-3.925 12.074-6.439 3.64-2.69 6.292-6.696 10.868-8.855s15.596-3.633 19.723-6.439a37 37 0 0 0 2.817-2.123 38 38 0 0 0 2.816 2.123c4.128 2.807 15.147 4.28 19.724 6.439 4.575 2.16 7.228 6.166 10.867 8.855 3.401 2.514 8.376 3.508 12.075 6.439 6.366 5.044 9.659 10.868 9.659 10.868 9.259-6.038 45.08-13.685 45.08-13.685-12.076-13.685-34.212-11.673-39.847-14.49M250.809 63.87c-2.762-.464-4.941-.831-6.263-1.876-3.073-2.429-4.398-5.512-5.722-8.787a34 34 0 0 1 1.771 2.736c4.021 6.984 11.397 7.045 16.783 7.089 3.224.026 6.269.052 8.522 1.178 1.97.985 3.402 2.693 5.012 4.824-.828 1.033-1.711 2.035-2.714 2.959-1.424-1.386-2.974-2.708-4.767-3.869-4.446-2.878-8.98-3.641-12.622-4.254m26.11 12.149c-2.427 2.697-4.938 5.486-8.448 7.873-1.533 1.042-6.157 2.217-9.532 3.074-3.584.91-6.969 1.77-9.426 2.93-3.695 1.743-6.26 4.25-8.523 6.46-1.141 1.115-2.219 2.168-3.29 2.959-1.083.8-2.71 1.508-4.434 2.257-2.462 1.071-5.251 2.286-7.792 4.298-3.463 2.745-6.124 5.696-7.972 8.047-7.949-3.443-20.541-6.854-29.951-9.16 6.162-2.743 13.134-3.69 18.767-4.447 4.526-.607 7.796-1.047 10.284-2.291 3.271-1.635 6.112-4.08 8.86-6.444 2.564-2.207 4.986-4.292 7.442-5.483 3.977-1.927 10.093-2.402 16.008-2.863 6.97-.541 13.554-1.052 18.6-3.828 4.66-2.563 7.354-6.177 9.73-9.365 1.952-2.619 3.494-4.688 5.772-5.827 2.253-1.126 5.299-1.152 8.521-1.178 5.387-.044 12.763-.104 16.783-7.089a34 34 0 0 1 1.772-2.736c-1.325 3.275-2.65 6.358-5.723 8.787-1.321 1.045-3.503 1.413-6.263 1.876-3.644.613-8.177 1.375-12.623 4.253-3.487 2.259-6.068 5.126-8.562 7.897m54.493 37.898c-1.849-2.351-4.509-5.302-7.973-8.047-2.539-2.012-5.33-3.227-7.791-4.298-1.725-.749-3.352-1.458-4.433-2.257-1.072-.791-2.15-1.844-3.291-2.959-2.262-2.21-4.827-4.717-8.521-6.46-2.457-1.16-5.842-2.021-9.427-2.93-3.376-.857-7.999-2.031-9.532-3.074a31 31 0 0 1-1.847-1.371c.997-1.048 1.931-2.089 2.843-3.101 5.041 2.757 11.608 3.269 18.563 3.809 5.914.46 12.03.936 16.007 2.863 2.456 1.191 4.879 3.276 7.442 5.483 2.749 2.364 5.591 4.809 8.86 6.444 2.487 1.244 5.757 1.684 10.283 2.291 5.633.757 12.604 1.705 18.768 4.447-9.41 2.306-22.002 5.716-29.951 9.16"></path><path fill="#FFF200" d="M252.247 138.059h-6.279v-30.031h21.391v5.323h-15.112v6.751h13.227v5.323h-13.227zM295.083 114.802h.084l3.722 11.885h-7.654zm-5.522 17.068h11.085l1.925 6.189h6.818l-10.583-30.036h-7.237l-10.707 30.036h6.608zM274.458 149.087c-17.816 0-35.327-2.896-52.068-8.578l-20.148 40.296c23.111 8.647 47.4 13.04 72.216 13.04 24.814 0 49.104-4.392 72.216-13.04l-20.149-40.296a161.7 161.7 0 0 1-52.067 8.578"></path><path d="M337.051 177.714c-20.178 6.644-41.237 10.012-62.593 10.012s-42.416-3.368-62.594-10.012l-1.061-.349.5-1 13.855-27.71.362-.726.778.232a167.7 167.7 0 0 0 48.16 7.042c16.358 0 32.562-2.37 48.158-7.042l.779-.232.362.726 13.855 27.71.499 1z"></path><path fill="#FFF200" d="m238.606 175.447 1.895-8.319c.093-.412.539-2.189.839-3.504l-.039-.009-6.658 10.929-1.883-.428-1.274-12.715-.04-.009c-.294 1.295-.663 3.089-.756 3.501l-1.895 8.32-1.844-.42 3.207-14.089 2.728.621 1.311 12.826.04.009 6.714-11 2.708.617-3.208 14.089zM247.36 170.7l3.015-6.059.041.004 1.403 6.56zm4.964 2.304.945 4.339 2.119.242-3.57-14.948-2.2-.25-7.027 13.745 1.999.227 1.974-4.009zM259.288 176.374l7.315.389-.092 1.728-9.265-.493.767-14.429 1.95.104zM271.878 172.565l2.355-6.345h.041l2.093 6.373zm5.183 1.764 1.402 4.216 2.133.013-5.14-14.482-2.214-.015-5.526 14.414 2.013.014 1.536-4.197zM313.35 168.455l.895-6.708.039-.008 3.449 5.752zm5.441.576 2.301 3.801 2.082-.458-8.212-12.989-2.163.475-2.204 15.279 1.966-.431.57-4.433zM286.865 178.267l-1.949.108-.323-5.806-5.927-8.316 2.27-.127 4.526 6.701 3.753-7.163 2.29-.128-4.964 8.923zM301.2 166.51c-.38-2.204-2.305-2.669-3.922-2.464-1.219.154-3.232.753-2.956 2.93.155 1.217 1.063 1.508 1.928 1.601l4.211.42c1.913.204 3.452 1.144 3.74 3.42.43 3.394-2.605 4.731-5.061 5.042-2.655.337-3.795-.33-4.507-.829-1.358-.943-1.749-2.11-1.918-3.448l1.816-.23c.329 2.596 2.542 3.085 4.378 2.853 1.398-.177 3.707-.834 3.446-2.891-.188-1.498-.948-1.888-3.376-2.148l-3.02-.308c-.967-.1-3.166-.491-3.482-2.986-.283-2.236.896-4.617 4.37-5.057 5.011-.635 5.889 2.296 6.169 3.863zM308.636 175.478l-1.922.346-2.563-14.22 1.922-.346z" data-source="https://football-logos.cc"></path><!-- source: https://football-logos.cc --></svg>