<svg xmlns="http://www.w3.org/2000/svg" xml:space="preserve" viewBox="1 1 298 298"><!-- Source: https://football-logos.cc --><path d="M0 0c-20.325 0-36.801 16.476-36.801 36.8 0 20.325 16.476 36.801 36.801 36.801S36.8 57.125 36.8 36.8C36.8 16.476 20.325 0 0 0m.008 74.405c-20.787 0-37.638-16.852-37.638-37.639S-20.779-.872.008-.872s37.639 16.851 37.639 37.638S20.795 74.405.008 74.405" style="fill:#4182c4;fill-opacity:1;fill-rule:nonzero;stroke:none" transform="matrix(3.95871 0 0 -3.95871 149.966 295.548)" data-source="https://football-logos.cc"></path><path d="M0 0c0-8.215 4.605-15.354 11.375-18.977v12.673C9.433-3.891 9.564-2.515 9.53-2.566c0 .456.455.228.455.228.477-.132.941-.226 1.39-.292v8.039c-.517.967-.591 2.322-.609 2.713a.23.23 0 0 0 .09.195q.238.166.519.247v.802c-.995-.071-1.606-.382-1.606-.382-.478-.034-.342.735-.342.735a5.6 5.6 0 0 0 .564 1.247c.034.53-.376.94-.393 1.026-.409.528-.7.973-.7.973-.615 1.162.12 1.914.12 1.914l.529-.274c-.513-1.841.376-2.101.359-2.135.171-.069.119.239.119.239-.102 1.06.479 1.333.479 1.333a7 7 0 0 1 .871-.515v1.005c-.852.897-1.503 1.817-1.503 1.817-.171.204.085.426.085.426l.94.274c.177.012.339-.008.478-.038v1.965C4.605 15.354 0 8.215 0 0" style="fill:#4989c8;fill-opacity:1;fill-rule:nonzero;stroke:none" transform="matrix(3.95871 0 0 -3.95871 64.817 149.865)"></path><path d="M0 0c-19.268 0-34.887 15.62-34.887 34.887S-19.268 69.774 0 69.774s34.887-15.619 34.887-34.887C34.887 15.62 19.268 0 0 0m0 70.868c-19.872 0-35.98-16.109-35.98-35.981 0-19.871 16.108-35.98 35.98-35.98s35.981 16.109 35.981 35.98c0 19.872-16.109 35.981-35.981 35.981" style="fill:#fdd700;fill-opacity:1;fill-rule:nonzero;stroke:none" transform="matrix(3.95871 0 0 -3.95871 149.966 287.975)"></path><path d="M0 0c.114.501-.228.137-.228.137-.3-.52-.647-.972-1.025-1.367v-1.173C-.25-1.151 0 0 0 0" style="fill:#fdd700;fill-opacity:1;fill-rule:nonzero;stroke:none" transform="matrix(3.95871 0 0 -3.95871 197.596 146.584)"></path><path d="M0 0c-1.255.609-2.848.519-2.848.519-1.914-.154-3.213-.922-3.213-.922-.255-.24.035-.41.035-.41 1.76-.94 3.076-1.316 3.076-1.316.437-.047 1.134-.041 1.821-.018.291-.018.297.098.029.137 0 0-.742.116-1.446.342 0 0-.798.273-1.549.797 0 0-.239.148 0 .24 0 0 1.082.324 2.13.341 0 0 1.059 0 1.879.092 0 0 .569.011.086.198" style="fill:#efc519;fill-opacity:1;fill-rule:nonzero;stroke:none" transform="matrix(3.95871 0 0 -3.95871 223.865 119.059)"></path><path d="M0 0v-4.965c1.643-1.32 2.632-2.344 2.632-2.344.364-.205.547-.273.547-.273 3.222-.267 5.326-1.631 5.419-1.692A21.6 21.6 0 0 1 0 0" style="fill:#fdd700;fill-opacity:1;fill-rule:nonzero;stroke:none" transform="matrix(3.95871 0 0 -3.95871 192.637 76.166)"></path><path d="m0 0-1.282-1.162.991-1.11L.974-1.076z" style="fill:#000;fill-opacity:1;fill-rule:nonzero;stroke:none" transform="matrix(3.95871 0 0 -3.95871 66.29 220.22)"></path><path d="m0 0-.003-.009 1.402-.398.122.521L.137.513Z" style="fill:#000;fill-opacity:1;fill-rule:nonzero;stroke:none" transform="matrix(3.95871 0 0 -3.95871 114.448 253.904)"></path><path d="m0 0 1.384-.401.01-.011.118.464S.52.328.147.47z" style="fill:#000;fill-opacity:1;fill-rule:nonzero;stroke:none" transform="matrix(3.95871 0 0 -3.95871 112.96 258.64)"></path><path d="m0 0 1.042 1.419-1.23.871L-1.196.906Z" style="fill:#000;fill-opacity:1;fill-rule:nonzero;stroke:none" transform="matrix(3.95871 0 0 -3.95871 81.305 242.813)"></path><path d="M0 0c-1.811-.774-7.279-.843-7.279-.843-.33.069-.729.387-.729.387l-.432.524c-.148.33.216.24.216.24h.057c2.734-.912 8.178 0 8.178 0C.342.313 0 0 0 0m2.552-1.469C1.618-1.823.25-1.658.25-1.658c-.193 0-.159.2-.159.2v.057c.376.661 1.356.968 1.356.968.797.171 1.514-.33 1.514-.33C4.214-1.72 5.696-1.8 5.696-1.8c.465.08.33-.125.33-.125-.125-.137-.217-.171-.217-.171-.262-.091-.501-.387-.501-.387-1.204-.704-2.711-.433-2.711-.433-.239.114-.66.125-.66.125-.095-.017-.261 0-.16.16.455.193.946 1.025.946 1.025.045.193-.171.137-.171.137m12.803-3.076s-.183.068-.547.274c0 0-.989 1.023-2.632 2.343C10.371-.475 7.774 1.337 4.83 2.546c0 0-.957.393-2.136 0 0 0-1.297-.342-2.478-1.073 0 0-4.937-.858-8.457-.192-.034-.011-.22.091-.496.15-.138.03-.301.05-.478.038l-.94-.273s-.256-.222-.085-.427c0 0 .651-.92 1.503-1.817.508-.534 1.086-1.059 1.641-1.378 0 0 .546-.222.188-.325 0 0-.868.212-1.829.698a8 8 0 0 0-.871.515s-.581-.273-.478-1.333c0 0 .051-.307-.12-.239.017.034-.872.295-.359 2.136l-.529.273s-.735-.751-.12-1.913c0 0 .292-.446.7-.974.017-.085.428-.495.393-1.025 0 0-.358-.564-.564-1.247 0 0-.136-.769.342-.735 0 0 .611.31 1.606.382.783.056 1.802-.036 2.95-.542 0 0 3.065-1.173 5.366-5.49 0 0 .045-.086.085-.205.006-.063.131-.171.179.009 0 0 1.039 1.616 1.33 3.191 0 0 .445 2.358-1.07 4.455 0 0-.9 1.458-2.962 2.277 0 0-.137.137.114.251 0 0 1.037.183 1.378.194 0 0 1.447-.661 2.096-1.367 0 0 2.563.159 7.803-2.324l.718-.558s.261-.239.181-.376c0 0-4.658 2.096-7.755 2.29 0 0-.24-.069-.142-.251l.334-.638s2.768-.911 5.365-2.825c0 0 .764-.808.866-1.162 0 0-.034-.17-.171.012 0 0-.763.581-1.424 1.071 0 0-2.016 1.23-4.089 1.89 0 0-.228.114-.262-.102l.079-1.025s3.816-2.871 5.195-6.242c0 0 .057-.262-.205-.194 0 0-2.415 4.181-5.138 5.502 0 0-1.024-3.645-2.209-4.556 0 0 .638-.98.706-2.438 0 0-.08-.467-.25-.069-.194.764-.648 1.693-1.299 2.894 0 0-.274.465-.549.714 0 0-.249.083-.066-.327 0 0 .467-.695.706-2.293 0 0 .228-2.195-2.164-3.129 0 0-2.43-1.109-5.696-.633-.449.065-.913.159-1.389.292 0 0-.456.227-.456-.229.034.052-.097-1.324 1.845-3.737.655-.813 1.545-1.743 2.757-2.778 0 0 .456-.478.569-.227 0 0-.432.455-.432 1.662 0 0 0 .775 1.184 1.162 0 0 5.377 1.686 7.222 3.053 0 0 1.754 1.321 1.321 4.564 0 0-.071.343-.41.926 0 0-.131.433.274.183 0 0 2.004-1.914.865-5.263 0 0 4.683-.391 7.563 2.62a7.2 7.2 0 0 1 1.026 1.367s.341.364.227-.137c0 0-.25-1.151-1.253-2.403-1.301-1.626-3.873-3.422-8.816-3.088 0 0-1.549-1.549-3.553-1.639 0 0-.889-.046-.889-.274.501-.091 6.88-1.617 12.962-10.525 0 0 .365-.455 0-.274 0 0-5.034 4.579-8.798 6.835 0 0-1.157.638-1.134.114 0 0 2.553-3.809-.264-11.08q-.143-.003-.287-.004a21.4 21.4 0 0 0-10.134 2.533c-6.77 3.622-11.375 10.762-11.375 18.976 0 8.215 4.605 15.354 11.375 18.976q.962.518 1.983.936A21.45 21.45 0 0 0 1.397 5.93a21.45 21.45 0 0 0 8.787-1.87 21.6 21.6 0 0 0 10.59-10.297c-.093.061-2.196 1.425-5.419 1.692m4.624-3.451c-.82-.091-1.879-.091-1.879-.091-1.048-.017-2.13-.342-2.13-.342-.239-.092 0-.239 0-.239.751-.524 1.549-.798 1.549-.798.704-.226 1.446-.342 1.446-.342.268-.039.262-.154-.029-.137-.687-.023-1.384-.029-1.821.018 0 0-1.316.376-3.076 1.316 0 0-.29.171-.035.41 0 0 1.299.768 3.213.922 0 0 1.593.09 2.848-.519.483-.187-.086-.198-.086-.198M1.397 7.825c-12.905 0-23.405-10.499-23.405-23.405s10.5-23.405 23.405-23.405S24.802-28.486 24.802-15.58 14.303 7.825 1.397 7.825" style="fill:#000;fill-opacity:1;fill-rule:nonzero;stroke:none" transform="matrix(3.95871 0 0 -3.95871 144.434 88.19)"></path><path d="m0 0-.376-.684L.632-.786.444 0Z" style="fill:#000;fill-opacity:1;fill-rule:nonzero;stroke:none" transform="matrix(3.95871 0 0 -3.95871 134.402 256.54)"></path><path d="m0 0-.757.118-.702-1.212 1.767-.23z" style="fill:#000;fill-opacity:1;fill-rule:nonzero;stroke:none" transform="matrix(3.95871 0 0 -3.95871 168.289 32.659)"></path><path d="m0 0-.874.954-1.783-1.655.838-.965z" style="fill:#000;fill-opacity:1;fill-rule:nonzero;stroke:none" transform="matrix(3.95871 0 0 -3.95871 75.487 62.622)"></path><path d="m0 0 .143-.536.471.125-.133.539Z" style="fill:#000;fill-opacity:1;fill-rule:nonzero;stroke:none" transform="matrix(3.95871 0 0 -3.95871 177.52 270.62)"></path><path d="m0 0 .452-.299L1.21.892l-.49.296Z" style="fill:#000;fill-opacity:1;fill-rule:nonzero;stroke:none" transform="matrix(3.95871 0 0 -3.95871 246.852 210.683)"></path><path d="m0 0-2.315 1.512-.693-.213 2.495 3.887.949-.607.077-.768.785.23.897-.624Zm-3.571-3.998-1.991 1.862-.769-.128 1.29 1.393 1.828-1.666.975 1.042L-4.059.187l.907.992 2.348-2.213zm-4.016-3.23-1.674 2.136-.777.06 1.563 1.171 1.503-1.931 2.034 1.474.393-.585zm-4.476-2.562-1.264 2.426s-.736.102-.736.154c0 .051 3.914 2.067 3.914 2.067l.341-.598-2.204-1.213.803-1.521 2.222 1.128.341-.632zm-8.015-2.375-.545 2.648-.649.359 1.845.444.513-2.443 2.46.495.137-.717zm2.131-2.012-.148-.039-.149.555-.101.322-.217.126c.035.011 1.527.41 1.527.41l.296-1.059zm-2.397-.477-.102.658.871.156v.159l-.835-.132s-.304.172-.293.19c.012.017 1.532.284 1.532.284l.057-.657-.888-.168.023-.16.933.154.04-.262zm-2.368-.284-.03.88h.002l-.004.036-.241.169 1.631.171.082-1.14zm-1.898.175.968.012v-.245c0-.017-1.389-.04-1.389-.04v.712h.928l-.011.16h-.826l-.29.239 1.554.034.034-.667-.974-.016zm-1.327 5.417 1.896.085.103-2.494 2.512.085v-.684l-3.804-.187-.16 2.785zm-1.811-3.042-.239 1.077-1.555.188-.479-.94-1.059.137 1.35 2.529-.478.564 3.092-.376.82-3.332zm.273-1.645-.501.051-.063-.849-.501.029.086.854-.308.023-.279.302 1.566-.137zm-2.289.279-.917.176v-.142l.889-.174-.132-.698-1.338.268.051.262.895-.16.017.137-.878.171.063.507-.177.211 1.561-.28zm-1.954 1.965-3.958 1.247.82 2.546-.375.623 4.408-1.375-.325-1.008-.68-.364.424-.568zm-.233-1.516-.826.223-.034-.148.814-.216-.074-.263-.814.205-.04-.131.814-.199-.068-.302-1.293.348.251.917-.177.25 1.515-.415zm-4.955 5.941-1.162-2.187-1.179.581 1.094 2.239-.838.426-.495 1.111 4.135-2.17-.342-.581zm-4.621-.29-3.358 2.46 1.64 2.17-.137.752 3.71-2.82zm-7.134 6.373 1.965 1.844v.736l3.16-3.401-2.391-2.187zm-1.367 3.622-.854-.529-.735 1.126 2.272 1.47.103.785 2.409-3.741-.615-.427-1.367 2.102-.598-.419 1.384-2.076-.632-.41zm1.518 31.745.779-.556a27.92 27.92 0 0 1-5.231-16.339c0-4.12.87-8.088 2.587-11.797l-.869-.402a28.8 28.8 0 0 0-2.675 12.199c0 6.104 1.87 11.946 5.409 16.895m4.812 8.552 1.359-1.47-.007-.005.021-.009 1.204-1.312-3.474-3.193-.026-.042 1.214-1.299-1.735-1.598-3.246 3.503-1.273-.043zm8.279 4.229.529-1.145-3.93-1.93.376-.787 3.964 1.897.547-1.128-3.93-1.925.387-.803 3.941 1.897.542-1.133-6.049-2.974-2.079 4.306-1.321.359zm3.715.888 4.024-2.332-.427 2.879 2.247.376.863-5.468 2.383 4.221v-.007l.046.082-.003.027-.931 1.017 5.425-.76 1.358-5.878-2.434.324-.471 1.897-2.708.367-.974-1.7-1.759.265-1.222-.17-4.075 2.34.444-2.93-2.238-.333-.752 4.69-1.204.7zm16.788-.632 2.127-1.008 2.059-4.186 1.264 2.648 2.076-.965-2.435-5.117-1.179.564-2.067 4.212-1.256-2.649-2.042.982 1.991 4.289zm14.813-9.875-.845-.957-3.589 3.272-2.067-2.273 1.939-1.799.606.672-1.067.973.871.94 2.666-2.443-2.324-2.563-5.236 4.852 3.177 3.469s-.154 1.273-.145 1.307 6.014-5.45 6.014-5.45M-.89 17.191c0-13.208-10.744-23.952-23.951-23.952S-48.793 3.983-48.793 17.191c0 13.207 10.745 23.952 23.952 23.952S-.89 30.398-.89 17.191m-.669 15.775.792.537a28.9 28.9 0 0 0 5.003-16.312c0-4.134-.849-8.128-2.525-11.871l-.873.392a27.9 27.9 0 0 1 2.441 11.479 27.97 27.97 0 0 1-4.838 15.775m-23.282 19.112c-19.268 0-34.888-15.62-34.888-34.887s15.62-34.887 34.888-34.887 34.887 15.62 34.887 34.887-15.619 34.887-34.887 34.887" style="fill:#000;fill-opacity:1;fill-rule:nonzero;stroke:none" transform="matrix(3.95871 0 0 -3.95871 248.306 217.92)"></path><path d="M0 0c-.132-.197-.756-1.131-.726-1.131.035 0 .402-.282.402-.282L.425-.257z" style="fill:#000;fill-opacity:1;fill-rule:nonzero;stroke:none" transform="matrix(3.95871 0 0 -3.95871 245.766 203.601)"></path><path d="m0 0 .002-.031.005-.083v-.001l.03-.48.491.022-.03.599z" style="fill:#000;fill-opacity:1;fill-rule:nonzero;stroke:none" transform="matrix(3.95871 0 0 -3.95871 160.095 273.431)"></path><path d="M0 0c.097-.064.236-.005.229.128C.161 1.529.38 2.29.739 2.705c0 0 .37.387.661.387 0 0 2.084-.785 3.314-2.836 0 0 .125-.227.137 0 0 0 .102 1.633-2.815 3.218q-.022.01-.044.019c-1.039.471-1.953.65-2.66.444a1.8 1.8 0 0 1-.519-.248.22.22 0 0 1-.09-.194c.018-.391.092-1.746.609-2.713C-.498.463-.28.187 0 0" style="fill:#000;fill-opacity:1;fill-rule:nonzero;stroke:none" transform="matrix(3.95871 0 0 -3.95871 112.492 131.546)"></path><path d="M0 0s-1.971-.696-3.201.399c0 0-.587.695-.427 2.38 0 0 .043.317-.222.115 0 0-1.413-1.903-.786-3.475l.012-.018s.035-.051.124-.05c0 0 2.905-.319 4.557.49 0 0 .182.193-.057.159" style="fill:#000;fill-opacity:1;fill-rule:nonzero;stroke:none" transform="matrix(3.95871 0 0 -3.95871 130.637 154.792)"></path><path d="M0 0c-19.872 0-35.98 16.108-35.98 35.98S-19.872 71.96 0 71.96s35.981-16.108 35.981-35.98S19.872 0 0 0m0 72.781c-20.325 0-36.801-16.476-36.801-36.801S-20.325-.82 0-.82s36.8 16.475 36.8 36.8S20.325 72.781 0 72.781" style="fill:#fff;fill-opacity:1;fill-rule:nonzero;stroke:none" transform="matrix(3.95871 0 0 -3.95871 149.966 292.3)"></path><path d="M0 0c.358.103-.188.325-.188.325-.555.319-1.133.844-1.641 1.378V.698A9.6 9.6 0 0 1 0 0" style="fill:#fff;fill-opacity:1;fill-rule:nonzero;stroke:none" transform="matrix(3.95871 0 0 -3.95871 117.086 99.08)"></path><path d="M0 0a21.4 21.4 0 0 1-8.787 1.87A21.4 21.4 0 0 1-18.921-.663v-1.965c.276-.06.462-.162.496-.15 3.52-.666 8.457.191 8.457.191 1.181.732 2.478 1.073 2.478 1.073 1.179.393 2.136 0 2.136 0C-2.41-2.722.187-4.535 1.992-5.987v4.965Q1.027-.46 0 0" style="fill:#fff;fill-opacity:1;fill-rule:nonzero;stroke:none" transform="matrix(3.95871 0 0 -3.95871 184.75 72.119)"></path><path d="M0 0c-1.651-.809-4.556-.49-4.556-.49-.09-.001-.124.05-.124.05l-.013.019c-.626 1.571.786 3.474.786 3.474.265.202.222-.115.222-.115-.159-1.685.428-2.38.428-2.38 1.23-1.095 3.2-.399 3.2-.399C.183.193 0 0 0 0m-2.648 9.524q.022-.009.044-.019C.313 7.92.211 6.288.211 6.288c-.012-.228-.137 0-.137 0-1.23 2.05-3.314 2.836-3.314 2.836-.291 0-.661-.388-.661-.388-.359-.415-.578-1.175-.51-2.577.007-.133-.132-.192-.229-.128-.28.187-.498.464-.668.782v-8.039c3.266-.475 5.696.634 5.696.634 2.391.934 2.164 3.128 2.164 3.128-.239 1.599-.707 2.294-.707 2.294-.182.41.067.326.067.326.275-.249.548-.714.548-.714.651-1.201 1.105-2.13 1.299-2.893.171-.399.251.068.251.068-.069 1.458-.707 2.438-.707 2.438 1.185.911 2.21 4.556 2.21 4.556 2.723-1.321 5.138-5.502 5.138-5.502.262-.068.205.194.205.194-1.379 3.372-5.195 6.242-5.195 6.242l-.079 1.025c.034.217.262.103.262.103 2.073-.661 4.089-1.891 4.089-1.891.66-.49 1.424-1.071 1.424-1.071.137-.182.171-.011.171-.011-.103.353-.866 1.162-.866 1.162-2.597 1.913-5.365 2.825-5.365 2.825l-.334.638c-.099.182.142.25.142.25 3.097-.194 7.755-2.289 7.755-2.289.08.136-.182.376-.182.376l-.718.558c-5.239 2.483-7.802 2.323-7.802 2.323-.65.707-2.096 1.367-2.096 1.367-.342-.011-1.378-.193-1.378-.193-.251-.114-.114-.251-.114-.251 2.061-.82 2.961-2.278 2.961-2.278 1.515-2.096 1.071-4.454 1.071-4.454-.291-1.576-1.33-3.192-1.33-3.192-.048-.18-.173-.071-.179-.009-.04.12-.086.205-.086.205-2.3 4.318-5.365 5.491-5.365 5.491-1.148.506-2.167.597-2.95.541v-.802c.706.206 1.62.027 2.66-.444" style="fill:#fff;fill-opacity:1;fill-rule:nonzero;stroke:none" transform="matrix(3.95871 0 0 -3.95871 130.86 155.422)"></path><path d="M0 0c-.101-.16.065-.176.16-.16 0 0 .422-.011.66-.125 0 0 1.507-.27 2.711.433 0 0 .24.296.501.388 0 0 .092.033.217.17 0 0 .135.205-.33.126 0 0-1.481.079-2.734 1.036 0 0-.718.502-1.515.33 0 0-.98-.307-1.356-.968v-.057s-.034-.199.16-.199c0 0 1.367-.165 2.301.188 0 0 .216.057.171-.137C.946 1.025.456.194 0 0" style="fill:#fff;fill-opacity:1;fill-rule:nonzero;stroke:none" transform="matrix(3.95871 0 0 -3.95871 151.468 98.606)"></path><path d="M0 0a21.4 21.4 0 0 1 8.152-1.599q.144.001.286.004c2.818 7.272.264 11.08.264 11.08-.022.525 1.134-.113 1.134-.113 3.765-2.256 8.799-6.835 8.799-6.835.364-.182 0 .274 0 .274-6.082 8.908-12.462 10.434-12.963 10.525 0 .227.889.273.889.273 2.004.091 3.554 1.64 3.554 1.64 4.943-.334 7.514 1.462 8.816 3.088v1.173c-2.88-3.011-7.563-2.62-7.563-2.62 1.139 3.349-.866 5.262-.866 5.262-.404.251-.273-.182-.273-.182.338-.584.41-.927.41-.927.432-3.242-1.322-4.564-1.322-4.564-1.845-1.367-7.221-3.052-7.221-3.052C.911 13.04.911 12.265.911 12.265c0-1.207.433-1.662.433-1.662-.114-.251-.57.227-.57.227-1.211 1.034-2.102 1.965-2.756 2.777V.935A21 21 0 0 1 0 0" style="fill:#fff;fill-opacity:1;fill-rule:nonzero;stroke:none" transform="matrix(3.95871 0 0 -3.95871 117.695 228.687)"></path><path d="M0 0s-5.444-.912-8.178 0h-.057s-.365.091-.217-.239l.433-.524s.399-.319.729-.387c0 0 5.468.068 7.279.842 0 0 .342.314.011.308" style="fill:#fff;fill-opacity:1;fill-rule:nonzero;stroke:none" transform="matrix(3.95871 0 0 -3.95871 144.478 86.972)" data-source="https://football-logos.cc"></path><path d="M0 0c-12.906 0-23.405 10.499-23.405 23.405S-12.906 46.81 0 46.81s23.405-10.499 23.405-23.405S12.906 0 0 0m0 47.357c-13.207 0-23.952-10.745-23.952-23.952S-13.207-.547 0-.547s23.952 10.744 23.952 23.952c0 13.207-10.744 23.952-23.952 23.952" style="fill:#fff;fill-opacity:1;fill-rule:nonzero;stroke:none" transform="matrix(3.95871 0 0 -3.95871 149.966 242.52)"></path><path d="M0 0a28.85 28.85 0 0 1 2.525 11.871 28.9 28.9 0 0 1-5.003 16.312l-.792-.537a27.97 27.97 0 0 0 4.838-15.775C1.568 7.872.747 4.01-.873.392Z" style="fill:#fff;fill-opacity:1;fill-rule:nonzero;stroke:none" transform="matrix(3.95871 0 0 -3.95871 255.079 196.859)"></path><path d="M0 0a27.9 27.9 0 0 0-2.587 11.797 27.93 27.93 0 0 0 5.231 16.339l-.778.556c-3.539-4.948-5.409-10.791-5.409-16.895 0-4.259.899-8.363 2.674-12.198z" style="fill:#fff;fill-opacity:1;fill-rule:nonzero;stroke:none" transform="matrix(3.95871 0 0 -3.95871 48.884 196.569)"></path><path d="m0 0 .874-.954L-.945-2.62l-.838.965zm-.612-6.473 1.734 1.598-1.213 1.298.026.043L3.409-.342 2.204.971l-.021.008.007.006-1.358 1.47-5.963-5.468 1.273.043z" style="fill:#fff;fill-opacity:1;fill-rule:nonzero;stroke:none" transform="matrix(3.95871 0 0 -3.95871 72.027 58.845)"></path><path d="m0 0 .757-.118.307-1.323-1.767.23zm-11.187-4.944 2.239.333-.445 2.93 4.076-2.34 1.221.17 1.76-.265.974 1.7 2.708-.367.47-1.897 2.435-.324L2.893.874l-5.425.76.931-1.017.003-.027-.047-.082.001.007-2.383-4.221-.863 5.468-2.247-.376.427-2.879-4.024 2.332-2.409-.393 1.205-.7z" style="fill:#fff;fill-opacity:1;fill-rule:nonzero;stroke:none" transform="matrix(3.95871 0 0 -3.95871 165.293 32.193)"></path><path d="m0 0 1.256 2.648 2.067-4.211 1.179-.564L6.937 2.99l-2.076.965-1.264-2.648-2.059 4.186-2.127 1.008.538-1.23L-2.042.982Z" style="fill:#fff;fill-opacity:1;fill-rule:nonzero;stroke:none" transform="matrix(3.95871 0 0 -3.95871 191.589 57.11)"></path><path d="m0 0 5.236-4.853L7.561-2.29 4.895.154l-.872-.94 1.068-.974-.607-.671L2.545-.632 4.612 1.64l3.589-3.272.846.957S3.041 4.81 3.032 4.775c-.009-.034.146-1.307.146-1.307Z" style="fill:#fff;fill-opacity:1;fill-rule:nonzero;stroke:none" transform="matrix(3.95871 0 0 -3.95871 212.086 67.797)"></path><path d="m0 0 6.049 2.973-.542 1.133L1.566 2.21l-.387.803 3.93 1.925-.547 1.127L.598 4.169l-.376.786 3.93 1.931-.529 1.144L-3.4 4.665l1.321-.359Z" style="fill:#fff;fill-opacity:1;fill-rule:nonzero;stroke:none" transform="matrix(3.95871 0 0 -3.95871 93.75 64.178)"></path><path d="m0 0-.25-.917 1.292-.348.068.302-.814.199.04.131.814-.205.075.263-.815.216.034.148.826-.223.068.269L-.177.25z" style="fill:#fff;fill-opacity:1;fill-rule:nonzero;stroke:none" transform="matrix(3.95871 0 0 -3.95871 116.793 268.873)"></path><path d="m0 0-.063-.507.877-.171-.017-.136-.894.16-.051-.263 1.338-.268.131.699-.888.174v.141l.917-.176.034.279-1.561.279z" style="fill:#fff;fill-opacity:1;fill-rule:nonzero;stroke:none" transform="matrix(3.95871 0 0 -3.95871 125.135 270.996)"></path><path d="m0 0 .308-.023-.086-.854.501-.029.063.848.501-.05v.273L-.279.302z" style="fill:#fff;fill-opacity:1;fill-rule:nonzero;stroke:none" transform="matrix(3.95871 0 0 -3.95871 134.447 273.045)"></path><path d="m0 0-1.555-.034.291-.239h.826l.011-.161h-.928v-.712s1.389.024 1.389.041v.245l-.968-.012-.006.188.974.017z" style="fill:#fff;fill-opacity:1;fill-rule:nonzero;stroke:none" transform="matrix(3.95871 0 0 -3.95871 154.58 272.91)"></path><path d="m0 0-.022.16.887.168-.056.657S-.712.718-.724.701c-.01-.017.293-.19.293-.19l.835.133v-.16L-.467.328l.103-.658 1.338.223-.04.261z" style="fill:#fff;fill-opacity:1;fill-rule:nonzero;stroke:none" transform="matrix(3.95871 0 0 -3.95871 169.213 274.626)"></path><path d="m0 0-.029.479V.48l-.005.083h-.001l-.002.032.498.026.03-.6zm-.739.765.241-.17.004-.035h-.002l.03-.88 1.44.115L.893.936z" style="fill:#fff;fill-opacity:1;fill-rule:nonzero;stroke:none" transform="matrix(3.95871 0 0 -3.95871 160.24 275.786)"></path><path d="m0 0-.803 1.521 2.204 1.212-.341.599s-3.914-2.017-3.914-2.067c0-.052.736-.155.736-.155l1.264-2.425L2.563.495l-.341.633z" style="fill:#fff;fill-opacity:1;fill-rule:nonzero;stroke:none" transform="matrix(3.95871 0 0 -3.95871 203.933 251.469)"></path><path d="m0 0-1.503 1.931L-3.066.76l.777-.06 1.674-2.136L2.427.889l-.394.585Z" style="fill:#fff;fill-opacity:1;fill-rule:nonzero;stroke:none" transform="matrix(3.95871 0 0 -3.95871 220.707 240.85)"></path><path d="m0 0 1.82-1.683-.974-1.042-1.828 1.666-1.29-1.392.769.128 1.99-1.863 2.768 2.964L.906.991z" style="fill:#fff;fill-opacity:1;fill-rule:nonzero;stroke:none" transform="matrix(3.95871 0 0 -3.95871 232.24 217.178)"></path><path d="m0 0-.452.299.72 1.188.49-.297zm-1.452.957c-.03 0 .594.934.725 1.131l.425-.257-.749-1.156s-.367.282-.401.282m1.88 1.324-.077.769-.949.606L-3.093-.23l.693.212 2.315-1.511L2.11 1.888l-.897.624Z" style="fill:#fff;fill-opacity:1;fill-rule:nonzero;stroke:none" transform="matrix(3.95871 0 0 -3.95871 248.642 211.866)"></path><path d="m0 0-1.384 2.076.598.419L.581.394l.615.426-2.409 3.742-.102-.786-2.273-1.469.735-1.127.854.529L-.632-.41Z" style="fill:#fff;fill-opacity:1;fill-rule:nonzero;stroke:none" transform="matrix(3.95871 0 0 -3.95871 58.172 215.419)"></path><path d="m0 0-.991 1.11L.291 2.272l.973-1.076Zm-.427 4.152v-.735l-1.965-1.845L.342-1.436 2.733.752Z" style="fill:#fff;fill-opacity:1;fill-rule:nonzero;stroke:none" transform="matrix(3.95871 0 0 -3.95871 65.14 229.217)"></path><path d="m0 0 .495-1.11.838-.427L.239-3.775l1.179-.581L2.58-2.17l1.213-.581.342.581Z" style="fill:#fff;fill-opacity:1;fill-rule:nonzero;stroke:none" transform="matrix(3.95871 0 0 -3.95871 91.993 238.483)"></path><path d="m0 0 .376.684H.82l.188-.787zm-1.06 1.606.479-.564-1.35-2.528 1.059-.137.479.939 1.555-.187.239-1.077 1.452-.154-.82 3.332z" style="fill:#fff;fill-opacity:1;fill-rule:nonzero;stroke:none" transform="matrix(3.95871 0 0 -3.95871 132.913 259.247)"></path><path d="M0 0v.684L-2.512.599l-.102 2.494-1.897-.085.547-.41.16-2.785z" style="fill:#fff;fill-opacity:1;fill-rule:nonzero;stroke:none" transform="matrix(3.95871 0 0 -3.95871 163.485 266.824)"></path><path d="m0 0-.513 2.443-1.845-.444.649-.358.545-2.649 3.761.786-.137.717Z" style="fill:#fff;fill-opacity:1;fill-rule:nonzero;stroke:none" transform="matrix(3.95871 0 0 -3.95871 173.43 262.089)"></path><path d="m0 0-1.402.398.003.009.137.513L.122.521zm-.381-1.201-.01.011-1.384.401.148.47c.372-.142 1.364-.418 1.364-.418zm1.648.942L1.591.749l-4.408 1.375.376-.623-.82-2.546L.697-2.292 1.01-1.19l-.424.567z" style="fill:#fff;fill-opacity:1;fill-rule:nonzero;stroke:none" transform="matrix(3.95871 0 0 -3.95871 119.986 255.516)"></path><path d="m0 0-1.042-1.419-1.196.906L-1.23.871zm-2.102 1.845-1.64-2.17 3.359-2.46L1.472-.223l-3.71 2.82z" style="fill:#fff;fill-opacity:1;fill-rule:nonzero;stroke:none" transform="matrix(3.95871 0 0 -3.95871 85.43 237.196)"></path><path d="m0 0-.143.536.482.128.133-.539Zm-.823.636L-.606.51l.1-.323.15-.554.147.039 1.208.314-.296 1.06z" style="fill:#fff;fill-opacity:1;fill-rule:nonzero;stroke:none" transform="matrix(3.95871 0 0 -3.95871 178.085 272.743)" data-source="https://football-logos.cc"></path><!-- source: https://football-logos.cc --></svg>