<svg xmlns="http://www.w3.org/2000/svg" xml:space="preserve" viewBox="1 1 298 276.27"><!-- Source: https://football-logos.cc --><path d="M0 0c-.217.583-.731.751-1.277.93q-.173.056-.394.132c-.011.004-.858.362-1.971.973l.037.242c.244 1.643.368 3.252.368 4.783 0 3.319-.56 6.469-1.663 9.361l-.785 2.053-.883-2.012a13 13 0 0 0-1.198-2.08c-.516.711-1.254 1.64-1.964 2.241l-1.781 1.504.306-2.311c.001-.011.14-1.068.14-1.698 0-2.485-.524-7.023-4.029-9.489-.754-.529-1.155-1.335-1.075-2.152.049-.499.273-1.093.615-1.329l3.619-2.264c-3.574-5.053-9.77-10.558-14.426-12.348-.582-.224-1.278-.568-1.492-1.24-.192-.603.131-1.088.238-1.248q.05-.074.11-.142l.815-2.04c-4.044-2.724-8.294-3.966-13.365-3.966h-.725c-5.071 0-9.321 1.242-13.366 3.966l.815 2.04q.06.068.111.142c.106.16.429.645.237 1.248-.213.672-.909 1.016-1.491 1.24-4.656 1.79-10.852 7.295-14.427 12.348l3.619 2.264c.342.236.567.83.616 1.329.08.817-.322 1.623-1.075 2.152-3.506 2.466-4.029 7.004-4.029 9.489 0 .63.139 1.688.14 1.698l.305 2.311-1.78-1.504c-.711-.601-1.448-1.53-1.964-2.241a13 13 0 0 0-1.198 2.08l-.883 2.012-.785-2.053c-1.103-2.892-1.663-6.042-1.663-9.361 0-1.531.124-3.14.369-4.783l.036-.242a23 23 0 0 0-1.971-.973q-.222-.076-.394-.132c-.545-.179-1.061-.347-1.277-.93-.172-.461-.041-.887.174-1.593q.075-.244.17-.567c2.381-8.167 12.009-17.415 16.518-19.544-1.09-1.275-1.776-1.973-1.833-2.031-.614-.614-.534-1.557.198-2.3 6.426-6.425 14.666-9.551 25.189-9.558h.002c10.523.007 18.764 3.133 25.189 9.558.733.743.812 1.686.199 2.3-.058.058-.743.756-1.833 2.031C-12.353-19.575-2.726-10.327-.345-2.16q.095.323.171.567C.041-.887.171-.461 0 0" style="fill:#fae93b;fill-opacity:1;fill-rule:nonzero;stroke:none" transform="matrix(3.67933 0 0 -3.67933 298.71 146.309)" data-source="https://football-logos.cc"></path><path d="M0 0c-5.745 2.102-11.829 6.988-17.13 13.762-8.033 10.558-12.761 24.256-12.982 37.594l-.019 1.166 1.164-.068a28 28 0 0 1 1.662-.048c8.923.001 20.031 3.653 27.012 8.882l.648.485.648-.485c6.856-5.136 17.803-8.722 26.618-8.722.78 0 1.542.028 2.267.085l1.184.092-.019-1.188c-.207-13.09-5.13-27.214-13.17-37.781C12.573 6.989 6.49 2.102.743 0L.372-.136Z" style="fill:#fae93b;fill-opacity:1;fill-rule:nonzero;stroke:none" transform="matrix(3.67933 0 0 -3.67933 148.738 228.283)"></path><path d="M0 0c-9.03-.705-21.616 2.858-29.617 8.85-8.012-6.002-20.617-9.562-29.385-9.048l29.394-23.507zm-46.25-37.144 16.642 13.439 16.659-13.438c-5.099-6.516-10.998-11.346-16.651-13.414-5.653 2.068-11.55 6.897-16.65 13.413" style="fill:#bc303b;fill-opacity:1;fill-rule:nonzero;stroke:none" transform="matrix(3.67933 0 0 -3.67933 259.014 38.532)"></path><path d="M0 0c-.194.068-4.124 1.765-6.303 4.113a9 9 0 0 0-.3-1.099c-1.971-5.913-10.873-14.996-17.466-17.531-1.23-.473-1.018-.86-.828-1.146s1.001-.526 1.787.259c.672.672 2.117 1.125 2.692.55l.179-.19a80 80 0 0 1 4.635-6.199C-11.464-19.55-1.584-10.151.758-2.119 1.314-.209 1.433-.5 0 0m-21.024-15.376c-.558.235-1.147-.21-1.526-.588-.377-.377-1.193-.662-1.895-.643l.522-1.309a31 31 0 0 1 2.415 1.934c.317.317.433.503.484.606m.509-.67a4.4 4.4 0 0 0-.45-.513c-5.207-4.608-10.482-6.654-17.122-6.654h-.726c-6.64 0-11.915 2.046-17.122 6.654a4.6 4.6 0 0 0-.451.513c-3.759-5.456-6.784-8.506-6.815-8.537-.397-.397.137-.963.198-1.025 6.248-6.248 14.28-9.289 24.553-9.295 10.273.006 18.305 3.047 24.554 9.295.061.062.594.628.198 1.025-.031.031-3.057 3.081-6.817 8.537m9.073 17.53a3.5 3.5 0 0 0-.673-.533l2.731-1.574c.921 1.379 1.636 2.706 2.03 3.888.28.843.343 1.306.343 1.552a.6.6 0 0 1-.03.232l-.013.017c-.474.121-2.51-1.539-4.388-3.582m-1.583.348c.355-.158.701-.109 1.01.201 1.595 1.594 4.269 4.368 5.373 3.717a.8.8 0 0 0 .229-.217c.826-1.3 2.444-2.473 3.884-3.334a32 32 0 0 1 .358 4.65c0 3.234-.553 6.285-1.603 9.04 0 0-.869-1.976-2.095-3.203 0 0-1.308 2.051-2.475 3.037 0 0 .149-1.118.149-1.816 0-2.939-.67-7.594-4.412-10.226-.95-.668-.773-1.692-.418-1.849m-42.85-17.208c.05-.103.167-.289.482-.606a32 32 0 0 1 2.416-1.934l.522 1.309c-.702-.019-1.518.266-1.895.643-.379.378-.968.823-1.525.588M-69.847 5.066l-.012-.017a.6.6 0 0 1-.031-.232c0-.246.064-.709.344-1.552.394-1.182 1.109-2.509 2.029-3.888l2.733 1.574a3.5 3.5 0 0 0-.674.533c-1.877 2.043-3.914 3.703-4.389 3.582m-.64.467a.8.8 0 0 0 .228.217c1.105.651 3.779-2.123 5.373-3.717.31-.31.656-.359 1.011-.201s.531 1.181-.418 1.849c-3.742 2.632-4.412 7.287-4.412 10.226 0 .698.148 1.816.148 1.816-1.166-.986-2.474-3.038-2.474-3.038-1.227 1.227-2.094 3.203-2.094 3.203-1.051-2.754-1.604-5.805-1.604-9.04 0-1.516.124-3.072.358-4.65 1.44.861 3.058 2.035 3.884 3.335m9.191-26.776c-4.141 1.693-14.02 11.092-16.362 19.124C-78.215-.209-78.333-.5-76.9 0c.193.068 4.124 1.765 6.302 4.113.064-.319.161-.681.301-1.099 1.97-5.913 10.872-14.996 17.466-17.531 1.229-.473 1.018-.86.828-1.146s-1.002-.526-1.787.259c-.672.672-2.117 1.125-2.692.55l-.179-.19a80 80 0 0 0-4.635-6.199" style="fill:#bc303b;fill-opacity:1;fill-rule:nonzero;stroke:none" transform="matrix(3.67933 0 0 -3.67933 291.474 145.533)"></path><path d="M0 0c-.199.181-.286.529-.308.627C-.375.554-.627.303-.868.303l-.008.001C-.604.202-.31.098 0 0m2.931-1.456c-2.325 0-4.42.573-5.881 1.487l.112.221.364.723.011-.007C-2.45.962-1.865.68-1.02.358c-.125.152-.111.658-.103.804-.1-.114-.449-.512-.574-.512-.17.004-.294.154-.352.418a5 5 0 0 0-.055.666c-.001.467 1.248 1.295 1.301 1.331l.017.011.004-.021a1 1 0 0 0-.064-.398l-.002-.005c-.007-.006-.715-.665-.813-.859-.082-.162.075-.351.118-.397.073.092.527.649.771.66h.006c.1 0 .141-.111.147-.17l-.093-.82C-.696.989-.664.9-.637.9c.033 0 .116.078.16.128.042.133.247.756.369.756.058 0 .146-.097.155-.108l.004-.004v-.004L.078.882C.078.88.144.489.325.489c.09.003.197.266.231.367L.553 2.384l.023-.033C.617 2.295 1.589.974 1.635.795c.048-.177.026-.51.026-.525L1.657.236l-.198.265-.463.562C.982.953.929.57.907.447.877.285.693-.06.334-.104c.898-.27 1.882-.482 2.748-.482h.001q.066 0 .131.002C5.551-.524 8.293.979 8.321.994L8.332 1 8.93.108C7.466-.85 5.321-1.456 2.931-1.456M3.004-2.5h.031a4 4 0 0 1 .352.011l.05.002.286.02a11 11 0 0 1 .806.098 12 12 0 0 1 .668.129q.192.044.385.093l.289.079a12 12 0 0 1 1.107.374l.058.024.23.093q.154.066.296.131.132.06.265.126c.142.07.236.121.268.137l.495.792c-1.534-.85-3.535-1.317-5.659-1.317-2.158 0-4.191.482-5.735 1.359l.525-.842c.127-.061.439-.206.885-.379q.16-.062.323-.123a14 14 0 0 1 1.017-.331q.142-.04.291-.08a12 12 0 0 1 1.441-.298c.15-.021.283-.038.41-.051l.285-.026a10 10 0 0 1 .601-.021Zm-1.06-1.321.279-.023-.112.369zm5.752.507-.18.139q-.105.083-.161.111a.5.5 0 0 1-.13.042q.12.06.162.15a.26.26 0 0 1 .004.192.27.27 0 0 1-.091.129.23.23 0 0 1-.144.051.8.8 0 0 1-.232-.052l-.408-.141.313-.917.195.067-.131.383.039.014a.4.4 0 0 0 .102.023.15.15 0 0 0 .071-.019q.037-.017.15-.099l.207-.153Zm-1.355.059a.5.5 0 0 1-.222.325.5.5 0 0 1-.384.04.6.6 0 0 1-.204-.09.465.465 0 0 1-.166-.27.6.6 0 0 1 .016-.253.48.48 0 0 1 .219-.32.5.5 0 0 1 .385-.038.49.49 0 0 1 .316.216q.097.161.04.39m-1.24-.657-.059.382-.439-.069.024-.159.235.034.019-.12a.42.42 0 0 0-.226-.12.28.28 0 0 0-.223.053c-.065.05-.102.131-.122.244q-.024.16.043.251a.28.28 0 0 0 .201.114q.089.014.153-.018a.22.22 0 0 0 .099-.1l.195.067a.35.35 0 0 1-.168.187.5.5 0 0 1-.306.03.6.6 0 0 1-.235-.086.44.44 0 0 1-.165-.208.54.54 0 0 1-.025-.276.54.54 0 0 1 .099-.248.4.4 0 0 1 .205-.152.675.675 0 0 1 .524.062.6.6 0 0 1 .171.132m-1.354-.317-.038.969-.192-.007.024-.65-.444.633-.201-.008.041-.97.189.009-.024.635.437-.619Zm-1.179-.03-.33 1.001-.218.019-.474-.935.22-.018.103.213.407-.034.071-.227Zm-1.274.29-.503.092.142.785-.203.037-.171-.946.706-.129Zm-.907.997-.732.194-.247-.939.75-.197.043.157-.553.146.068.256.498-.13.04.157-.496.132.054.207.535-.14zm-1.197.273q-.065.108-.246.17a.5.5 0 0 1-.2.034.253.253 0 0 1-.241-.167.25.25 0 0 1 .027-.214.6.6 0 0 1 .188-.166q.112-.071.141-.094a.2.2 0 0 0 .058-.064.1.1 0 0 0 0-.062q-.018-.05-.078-.073a.24.24 0 0 0-.155.012.22.22 0 0 0-.125.091.22.22 0 0 0-.025.157l-.197.049a.37.37 0 0 1 .036-.277.45.45 0 0 1 .254-.178.6.6 0 0 1 .221-.04q.097.004.166.059a.25.25 0 0 1 .096.132.27.27 0 0 1 .014.158.3.3 0 0 1-.075.131 1 1 0 0 1-.186.139.6.6 0 0 0-.158.122.08.08 0 0 0-.01.066.07.07 0 0 0 .051.046.24.24 0 0 0 .143-.012.22.22 0 0 0 .113-.073.18.18 0 0 0 .017-.122l.198-.061a.29.29 0 0 1-.027.237m11.301-2.389-.002-.024-.017.013c-.274.186-.922.384-1.586.384-.232 0-.45-.031-.641-.058-.364-.052-.628-.089-.705.131a.2.2 0 0 0-.004.127c-.004.188-.002.538.06.727-1.031-.375-2.748-.877-4.561-.877s-3.53.502-4.559.877c.062-.189.064-.539.06-.727a.2.2 0 0 0-.005-.127c-.077-.22-.34-.183-.705-.131-.19.027-.408.058-.642.058-.665 0-1.311-.198-1.584-.384l-.019-.013-.001.024c-.016.219.09.704.588 1.127l-.692.691.012.009a2.4 2.4 0 0 0 .89.371c.498.095.659.1 1.114.036-.003.062-.03.154-.057.252-.057.205-.122.438-.054.574a.47.47 0 0 0 .444.279.9.9 0 0 0 .312-.063l.138-.052C-.581-2.289.986-2.872 3.036-2.872s3.616.583 4.759 1.008l.14.052a.9.9 0 0 0 .312.063.47.47 0 0 0 .442-.279c.071-.136.004-.369-.053-.574a1.5 1.5 0 0 1-.058-.252c.455.064.616.059 1.115-.036a2.4 2.4 0 0 0 .889-.371l.013-.009-.692-.691c.498-.423.604-.908.588-1.127M5.998-3.08a.27.27 0 0 1-.219.028.26.26 0 0 1-.179-.13q-.056-.1-.015-.263a.35.35 0 0 1 .139-.222.27.27 0 0 1 .218-.032.27.27 0 0 1 .177.131q.057.102.015.265-.04.162-.136.223m1.144.386a.13.13 0 0 1-.086.01 2 2 0 0 1-.141-.045l-.153-.052.081-.232.144.048q.14.049.169.071a.12.12 0 0 1 .042.059.13.13 0 0 1-.004.074.11.11 0 0 1-.052.067M5.121 5.125l-.03-.061c-.011-.016-.017-.031-.027-.046.378-.441.363-1.184-.033-1.812a1.5 1.5 0 0 0-.19-.238c.158-.039.321-.057.497-.051.738.029 1.035.43 1.035.593 0 .174-.246.442-.555.782-.223.246-.476.524-.697.833m-.645-1.826c.115.149.32.458.37.672a.97.97 0 0 1-.047.587c-.177-.282-.3-.42-.382-.42-.206 0-.357.191-.363.198l-.007.008.34.535.039.091-.003.002-.022.011a.45.45 0 0 1-.243.042l-.239-1.328c.016-.033.141-.297.436-.507a.6.6 0 0 1 .121.109m-.305-.514-.654.363a2 2 0 0 0-.362-.213l.041.009.017.005.003-.255c.157.018.286.042.351.057.064.015.194.076.352.163l.007.003.004-.004q.119-.07.241-.128m-.969 1.682.007-1.054a.8.8 0 0 1 .187.322l.019.051c.008.02.046.214.183 1.006a3 3 0 0 1-.396-.325m1.59.742.149-.101a.7.7 0 0 1-.114.081zM2.845 2.665l-.003.239c-.2.051-.457.19-.467.197l-.031.016.033.008c.001 0 .089.02.206.05q-.055.25-.099.461l-.198-.219a1 1 0 0 0-.29-.226l-.048-.003a1 1 0 0 0-.205.025l-.045.014-.001-.005-.03.008a.6.6 0 0 1 .125-.047l.016-.005-.008-.015a1.4 1.4 0 0 0-.131-.187c.167-.108.339-.191.499-.243q.218-.07.56-.071zm-1.192.887.014-.012a.8.8 0 0 1-.127.189c-.006-.014.003-.051.014-.074.009-.008.045-.04.099-.103m.035-.026c.065-.031.139-.009.139-.009h.001Zm-.159-.249-.006.003a.2.2 0 0 0-.066.044c-.106.103-.328.368-.141.596q.12.153.235.152c.076 0 .137-.048.194-.09.003-.003.106-.181.133-.228.027-.049-.034-.21-.041-.228l-.001-.007c.091.025.382.319.566.522a9 9 0 0 0-.058.298q-.032.158-.06.301-.091.448-.167.801c-.104-.098-.2-.191-.253-.245a2 2 0 0 1-.153-.175l.438-.887c0-.006-.001-.147-.092-.22a.12.12 0 0 0-.079-.031.13.13 0 0 0-.098.049l-.428.723a4 4 0 0 1-.223-.386c-.117-.251-.146-.7-.052-.857a1 1 0 0 1 .193-.211c.078.032.133.06.159.076M1.016 4.75c.042.083.105.182.186.289l-.006-.004-.053.092a3 3 0 0 0-.121-.176C.94 4.848.753 4.667.557 4.476c-.185-.181-.378-.368-.483-.49a.55.55 0 0 1-.15-.394c.016-.179.145-.311.22-.373q.194-.162.524-.161.135 0 .285.027a1 1 0 0 0-.208.281c-.12.32-.029.786.271 1.384M2.23 6.602l.018-.087c.007-.053.025-.167.054-.331l.208.186a.9.9 0 0 0-.28.232m.379.161c.018-.052.091-.072.204-.057l-.003.403c-.199-.125-.251-.214-.201-.346m.209-.681c-.132-.113-.304-.27-.43-.388.07-.413.159-.914.239-1.364q.1.126.204.236Zm-.205-2.926v-.001q.055.014.099.028zm.093.729.118-.658.001-.009.015.004-.007.812ZM-.246 8.447l-.16-.024a1 1 0 0 1 .082.007zm6.421-1.098c-.041-.094-.435-.94-.791-1.684l.005-.007a1.4 1.4 0 0 1 .185-.268c.035-.04.095-.1.17-.175.399-.393 1.226-1.212 1.205-1.665-.029-.575-.755-1.038-1.391-1.092a2 2 0 0 0-.183-.008c-.303 0-.623.065-.948.193-.426-.247-.965-.37-1.607-.37q-.185 0-.38.014c-.432.03-.857.293-1.074.447l-.018.014.022.008a.55.55 0 0 1 .193.134q.002.003.005.005c-.162-.094-.573-.307-.909-.307a.7.7 0 0 0-.146.015 3 3 0 0 0-.353.1l.215-.223.384.101-.004-.02C.75 2.537.624 1.99.324 1.983H.32c-.179 0-.264.205-.286.266a.53.53 0 0 0-.256-.086.2.2 0 0 0-.054.006c-.235.054-.169.689-.167.717l.003.025.253-.235.257.062a1.1 1.1 0 0 0-.341.207c-.545.519-.267 1.008-.175 1.17.114.201.882 1.005 1.182 1.284a1 1 0 0 1 .143.183l.002.001-1.173 2.031a2 2 0 0 0-.154-.006 1.5 1.5 0 0 0-.516.078c-.27.106-.392.754-.398.782l-.003.017.017-.002c.006-.001.445-.049.758-.059-.092.255-.207.572-.257.672-.081.162-.089.533-.09.607v.026h.001c.015.09.173.158.373.158.203 0 .36-.068.374-.158h.002v-.026h-.002v-.01c-.014-.097-.079-.582-.015-.797.036-.125.104-.278.157-.388.205.067.425.149.427.151l.013.003.003-.011a.6.6 0 0 0 .019-.359 5 5 0 0 0-.14-.383l.89-1.793c.15.328.266.644.269.647l.007.021.015-.017c.179-.2.221-.456.126-.785a2.5 2.5 0 0 0-.162-.377l.096-.192q.211.232.494.501a8 8 0 0 1-.153.57c-.017.061-.03.105-.045.167-.131.591-.928 2.824-.935 2.847l-.003.012.465.179.003-.012c.005-.014.237-.764.465-1.538q-.01.003-.02.005c-.085 0-.153-.09-.153-.205s.068-.205.153-.205c.048 0 .088.03.116.075.105-.36.2-.702.265-.954.019.161.124.267.125.269l.513.365-.007.886a1.06 1.06 0 0 0-.874 1.052c0 .348.168.675.448.874l.017-.018a.77.77 0 0 1 .404-1.26l-.008 1.092-.27-.141.087.511-.371.362.498.073.044.581-.371.317.355 1.883-.195.571.267.502-.108.605.001.003.277.688.298-.683-.151-.587.258-.484-.178-.598.354-1.883-.354-.309v-.607l.491-.072-.371-.362.088-.511-.369.193.091-.08.008-1.057a.77.77 0 0 1 .376 1.252l.017.019c.28-.2.449-.527.449-.875 0-.516-.362-.948-.837-1.046l.004-.626.65.466.002-.019c.004-.005.086-.462-.447-.77l-.202-.114.003-.46c.236.129.53.276.611.266.134-.02.101-.31.099-.323v-.006l-.008-.003a42 42 0 0 0-.696-.458l.01-1.397q.085.079.159.138.183.148.328.236c.296 1.764.732 4.469.739 4.496l.002.015.553-.207-.001-.01-.743-4.145c.103-.011.211-.045.342-.106l.165.421a3 3 0 0 0-.093.26c-.265.893.018 1.13.031 1.141l.014.01.004-.017c.004-.003.138-.347.307-.732l.458 1.153-.288.317.024.947.022-.013c.005-.003.408-.259.712-.428l.01.061c.038.28.096.644.107.718.014.094-.336.313-.471.391l-.018.01.682.457.005-.009c.023-.025.5-.603.516-.85.013-.176-.182-.688-.305-.987.296-.073.645-.124.65-.124l.019-.003-.011-.016c-.014-.026-.356-.602-.518-.674a.7.7 0 0 0-.278-.045c-.067.001-.122.007-.146.008m-3.767.656c0 .09-.046.162-.106.162-.059 0-.107-.072-.107-.162s.048-.162.107-.162c.06-.001.106.071.106.162m-.619.101c-.064 0-.115-.075-.115-.167s.051-.166.115-.166.115.074.115.166-.051.167-.115.167m.243-.052c.075 0 .138.072.138.162 0 .089-.063.161-.138.161s-.136-.072-.136-.161.06-.162.136-.162m4.239-5.596c0 .105-.104.191-.233.191-.126 0-.23-.086-.23-.191s.104-.191.23-.191c.129 0 .233.085.233.191M3.979.462q.057.12.027.198a.18.18 0 0 1-.101.094c-.052.02-.107-.065-.134-.194a.5.5 0 0 1 .028-.257q0-.002.019-.041.115.108.161.2M6.52 1.631c0 .093-.057.169-.124.169-.071 0-.126-.076-.126-.169 0-.092.055-.168.126-.168.067 0 .124.076.124.168M5.517.415l-.41-.116a.5.5 0 0 0-.18.02 1 1 0 0 1-.195.03c-.105 0-.161-.046-.178-.146-.057-.318-.244-.596-.435-.647a.1.1 0 0 0-.026-.005q-.128.001-.33.283c-.241-.251-.445-.378-.602-.378-.281 0-.368.933-.37.973l-.002.023L2.76.424a21 21 0 0 0-.365-.349 1 1 0 0 0-.01-.229c-.049-.121-.294-.264-.304-.27l-.018-.01-.017.216q-.22-.162-.352-.162h-.005C1.305-.369.931.348.915.378l.019.016c.004-.003.491-.346.722-.346.079 0 .196.059.359.181-.031.424-.102 1.405-.106 1.537-.008.196.322.442.336.452l.009.006.437-.372-.011-.011c-.004-.002-.27-.216-.322-.407-.026-.102-.004-.509.015-.869l.001-.037q.113.099.231.206l.153.138c-.037.556-.053.869-.047.929.015.136.186.445.361.497q.014.006.03.006c.171 0 .344-.442.35-.461l.009-.02-.023.003c-.001 0-.169.024-.21-.091-.016-.037-.033-.236-.039-.493.476.388.827.577 1.105.597q.058.003.113.004c.284 0 .414-.084.474-.155a.26.26 0 0 0 .057-.213.3.3 0 0 0-.201-.233l-.018-.007.001.02c0 .002.005.047-.037.097-.044.053-.147.118-.389.131-.326.021-.761-.337-1.104-.648.021-.515.102-.811.226-.814a.44.44 0 0 1 .183.074L3.573.14c-.003.01-.085.251-.066.41.019.154.056.44.398.453q.234.008.329-.124c.115-.159.032-.41.029-.421a5 5 0 0 0-.316-.42c.094-.148.175-.227.227-.22.112.015.112.369.101.506v.007l.391.299.008-.004a.46.46 0 0 1 .221-.068q.093 0 .162.058c.093.078.019.386-.053.684-.05.21-.104.429-.104.588 0 .405.317.573.467.565.165-.009.323-.387.329-.403l.007-.013-.016-.005c-.004 0-.278-.074-.291-.191-.013-.124.105-1.058.106-1.067 0 0 .151-.322.527-.322.338 0 .505.514.536.62-.026-.003-.074-.009-.132-.009-.188 0-.501.055-.506.421-.004.425.111.731.294.759.187.028.673-.234.8-.764.122-.515-.497-1.221-.91-1.324a.5.5 0 0 0-.133-.018c-.274 0-.43.228-.461.278m1.029 2.581-.008-.015c-.006-.013-.152-.316.001-.522.058-.079.201-.169.365-.275.263-.169.561-.36.561-.534 0-.281-.609-.932-.616-.939L6.846.708V.703c0-.011.001-.258.118-.277l.014-.001c.121 0 .424.213.438.224l.003.004c.018.036.454.899.454 1.084 0 .19-1.262 1.205-1.314 1.248zM4.692-.057c0-.095.082-.172.179-.172.1 0 .181.077.181.172a.176.176 0 0 1-.181.171.176.176 0 0 1-.179-.171m.837.093a.16.16 0 0 0-.157-.165c-.084 0-.155.073-.155.165 0 .09.071.164.155.164a.16.16 0 0 0 .157-.164" style="fill:#fae93b;fill-opacity:1;fill-rule:nonzero;stroke:none" transform="matrix(3.67933 0 0 -3.67933 138.986 76.802)"></path><path d="m0 0 2.325 1.434.289-.47L1.582.327 3.199.016l.389-.631-1.445.317-.85-1.799-.375.608.697 1.311-.623.142L.29-.47Z" style="fill:#fae93b;fill-opacity:1;fill-rule:nonzero;stroke:none" transform="matrix(3.67933 0 0 -3.67933 23.296 164.064)"></path><path d="m0 0 2.23 1.575L3.399-.078l-.378-.267-.85 1.203-.494-.349.791-1.119-.376-.266-.791 1.12-.607-.429.88-1.247-.376-.264Z" style="fill:#fae93b;fill-opacity:1;fill-rule:nonzero;stroke:none" transform="matrix(3.67933 0 0 -3.67933 28.88 172.95)"></path><path d="m0 0 2.116 1.69.344-.43L.704-.144l.855-1.071-.359-.287Z" style="fill:#fae93b;fill-opacity:1;fill-rule:nonzero;stroke:none" transform="matrix(3.67933 0 0 -3.67933 34.593 180.89)"></path><path d="m0 0 .496.961-.998-.41Zm-.115-1.478-.404.444.298.594-.735.806-.61-.251-.394.433L.774 1.601l.393-.431Z" style="fill:#fae93b;fill-opacity:1;fill-rule:nonzero;stroke:none" transform="matrix(3.67933 0 0 -3.67933 46.723 189.086)"></path><path d="m0 0-.434-.46.263-.248q.234-.22.298-.268a.37.37 0 0 1 .229-.082.3.3 0 0 1 .205.1.3.3 0 0 1 .091.197.32.32 0 0 1-.086.213 6 6 0 0 1-.336.33zm-.746-.79-.501-.531.372-.351q.216-.205.286-.247a.35.35 0 0 1 .22-.059.34.34 0 0 1 .216.117q.084.09.1.192a.34.34 0 0 1-.04.209q-.055.105-.329.364zM-.089.709l.794-.75a3 3 0 0 0 .333-.352.69.69 0 0 0 .126-.586.6.6 0 0 0-.159-.291.646.646 0 0 0-.686-.167.7.7 0 0 0 .109-.443.65.65 0 0 0-.184-.391.8.8 0 0 0-.312-.205.75.75 0 0 0-.366-.042.8.8 0 0 0-.357.16 9 9 0 0 0-.497.443l-.675.638z" style="fill:#fae93b;fill-opacity:1;fill-rule:nonzero;stroke:none" transform="matrix(3.67933 0 0 -3.67933 54.633 190.904)"></path><path d="m0 0 .4.361Q.6.172.794.159q.195-.015.396.136.215.158.256.329a.33.33 0 0 1-.048.292.25.25 0 0 1-.143.099.5.5 0 0 1-.231-.023A6 6 0 0 1 .599.825Q.177.65-.062.673a.7.7 0 0 0-.529.292.7.7 0 0 0-.137.385.74.74 0 0 0 .11.424q.122.208.375.396.414.306.757.279a.8.8 0 0 0 .577-.321L.662 1.78q-.153.148-.303.154-.147.005-.335-.134a.64.64 0 0 1-.244-.303.2.2 0 0 1 .031-.188.21.21 0 0 1 .165-.085q.135-.008.515.154.38.163.596.196a.75.75 0 0 0 .407-.044.8.8 0 0 0 .347-.285.81.81 0 0 0 .041-.894 1.6 1.6 0 0 0-.419-.434q-.416-.308-.782-.28Q.315-.337 0 0" style="fill:#fae93b;fill-opacity:1;fill-rule:nonzero;stroke:none" transform="matrix(3.67933 0 0 -3.67933 230.851 210.127)"></path><path d="m0 0-1.764 2.085 1.547 1.308.298-.353-1.125-.951.391-.463 1.047.886.297-.352-1.046-.885.479-.567 1.165.984.297-.35Z" style="fill:#fae93b;fill-opacity:1;fill-rule:nonzero;stroke:none" transform="matrix(3.67933 0 0 -3.67933 241.009 206.57)"></path><path d="m0 0-1.864 1.965.399.38L.083.714l.995.943.317-.334Z" style="fill:#fae93b;fill-opacity:1;fill-rule:nonzero;stroke:none" transform="matrix(3.67933 0 0 -3.67933 248.407 200.203)"></path><path d="m0 0-.997.417.488-.961zm1.482.005-.409-.439-.616.249-.745-.797.3-.588-.4-.428L-1.657.645l.398.425z" style="fill:#fae93b;fill-opacity:1;fill-rule:nonzero;stroke:none" transform="matrix(3.67933 0 0 -3.67933 255.557 187.44)"></path><path d="m0 0-2.117 1.726.339.415 2.12-.286-1.414 1.153.323.396L1.368 1.68l-.349-.43-2.077.272L.323.397Z" style="fill:#fae93b;fill-opacity:1;fill-rule:nonzero;stroke:none" transform="matrix(3.67933 0 0 -3.67933 261.982 186.27)"></path><path d="m0 0-.378.264.68.974.892-.622a1.5 1.5 0 0 0-.045-.581 1.8 1.8 0 0 0-.276-.619 1.5 1.5 0 0 0-.574-.51 1.15 1.15 0 0 0-.695-.098q-.367.06-.689.284a1.6 1.6 0 0 0-.519.581 1.2 1.2 0 0 0-.119.72q.04.293.263.614.29.417.629.53a.97.97 0 0 0 .694-.036L-.366.993a.58.58 0 0 1-.385.004.66.66 0 0 1-.322-.26Q-1.28.441-1.214.135t.436-.564q.398-.277.721-.24t.524.326a1 1 0 0 1 .142.323q.044.183.037.34L.361.519Z" style="fill:#fae93b;fill-opacity:1;fill-rule:nonzero;stroke:none" transform="matrix(3.67933 0 0 -3.67933 268.248 172.076)" data-source="https://football-logos.cc"></path><path d="M0 0q.402-.232.716-.168.315.066.479.352a.69.69 0 0 1 .067.587q-.101.302-.511.54-.406.235-.709.172a.7.7 0 0 1-.475-.357.7.7 0 0 1-.073-.593Q-.406.236 0 0m-.269-.501a1.7 1.7 0 0 0-.543.459 1.3 1.3 0 0 0-.197.407 1.1 1.1 0 0 0-.036.429q.036.276.202.563.302.523.808.649.506.127 1.083-.209.573-.331.715-.829t-.159-1.02Q1.299-.578.797-.703.296-.828-.269-.501" style="fill:#fae93b;fill-opacity:1;fill-rule:nonzero;stroke:none" transform="matrix(3.67933 0 0 -3.67933 271.554 164.603)"></path><path d="m0 0 .173.369q.169.359.18.463a.3.3 0 0 1-.04.189.35.35 0 0 1-.161.138.34.34 0 0 1-.233.028.34.34 0 0 1-.185-.144 4 4 0 0 1-.179-.36L-.628.294Zm1.193-1.169L-1.28-.01l.493 1.051q.185.397.336.545.15.148.372.177a.8.8 0 0 0 .44-.075.72.72 0 0 0 .383-.379q.104-.25-.001-.596.171.117.333.17.163.052.535.096l.623.076-.279-.597-.707-.109A4 4 0 0 1 .761.256.4.4 0 0 1 .588.154a.9.9 0 0 1-.146-.238L.395-.186l1.032-.483Z" style="fill:#fae93b;fill-opacity:1;fill-rule:nonzero;stroke:none" transform="matrix(3.67933 0 0 -3.67933 276.31 154.305)"></path><path d="m0 0-.189-.602.344-.109Q.462-.807.54-.822a.37.37 0 0 1 .242.026.3.3 0 0 1 .141.18.3.3 0 0 1-.005.217.32.32 0 0 1-.169.154q-.075.033-.447.15zm-.326-1.035-.219-.697.486-.154q.285-.09.366-.096a.34.34 0 0 1 .224.043q.1.06.143.198.038.117.006.217a.34.34 0 0 1-.127.17q-.096.072-.454.185zM-.389.6.652.271q.309-.097.453-.17a.684.684 0 0 0 .369-.474.6.6 0 0 0-.016-.33.63.63 0 0 0-.204-.305.63.63 0 0 0-.34-.144.72.72 0 0 0 .292-.352.66.66 0 0 0 .004-.433.8.8 0 0 0-.191-.32.73.73 0 0 0-.311-.197.8.8 0 0 0-.391-.013 9 9 0 0 0-.64.183l-.886.279z" style="fill:#fae93b;fill-opacity:1;fill-rule:nonzero;stroke:none" transform="matrix(3.67933 0 0 -3.67933 108.009 235.089)"></path><path d="M0 0q-.105-.451.049-.733a.7.7 0 0 1 .476-.357.69.69 0 0 1 .581.109q.26.184.367.646.106.458-.041.729a.7.7 0 0 1-.481.349A.7.7 0 0 1 .363.64Q.107.46 0 0m-.558.111q.095.406.281.654.138.181.332.307.195.125.4.159.273.048.598-.028.588-.137.856-.584.267-.447.116-1.096-.15-.644-.585-.926-.433-.283-1.02-.146-.594.138-.859.581-.266.444-.119 1.079" style="fill:#fae93b;fill-opacity:1;fill-rule:nonzero;stroke:none" transform="matrix(3.67933 0 0 -3.67933 116.469 241.057)"></path><path d="m0 0 .421 2.676.545-.086L.616.368 1.971.155l-.072-.454Z" style="fill:#fae93b;fill-opacity:1;fill-rule:nonzero;stroke:none" transform="matrix(3.67933 0 0 -3.67933 124.842 248.031)"></path><path d="m0 0-.288 1.042-.454-.979Zm.919-1.163-.597.051-.185.638-1.088.093-.277-.598-.583.049 1.293 2.631.581-.05z" style="fill:#fae93b;fill-opacity:1;fill-rule:nonzero;stroke:none" transform="matrix(3.67933 0 0 -3.67933 139.346 245.86)"></path><path d="m0 0 .536.061q.052-.27.202-.394a.6.6 0 0 1 .402-.121q.265.005.4.119a.34.34 0 0 1 .13.266.25.25 0 0 1-.059.164.45.45 0 0 1-.2.115 7 7 0 0 1-.443.112Q.523.427.341.583a.7.7 0 0 0-.259.546.7.7 0 0 0 .112.392.74.74 0 0 0 .336.282q.222.097.536.103.514.008.778-.214a.8.8 0 0 0 .282-.597l-.551-.033q-.039.21-.157.3-.117.092-.35.087a.63.63 0 0 1-.375-.104.2.2 0 0 1-.085-.171.21.21 0 0 1 .084-.164q.107-.087.51-.175.403-.09.598-.188a.77.77 0 0 0 .306-.273.8.8 0 0 0 .116-.433.81.81 0 0 0-.488-.752 1.5 1.5 0 0 0-.593-.108Q.623-.928.342-.692.062-.457 0 0" style="fill:#fae93b;fill-opacity:1;fill-rule:nonzero;stroke:none" transform="matrix(3.67933 0 0 -3.67933 147.24 246.993)"></path><path d="m0 0-.238 2.721 2.017.176.04-.46-1.467-.128.052-.604 1.367.12.04-.459-1.367-.119.065-.74 1.52.133.04-.459Z" style="fill:#fae93b;fill-opacity:1;fill-rule:nonzero;stroke:none" transform="matrix(3.67933 0 0 -3.67933 157.599 250.015)"></path><path d="m0 0 .122-.766.298.048q.322.051.424.112a.36.36 0 0 1 .177.378.36.36 0 0 1-.364.314A3 3 0 0 1 .263.042Zm-.187-2.327L-.618.369l.874.14q.496.08.654.063A.72.72 0 0 0 1.34.37a.85.85 0 0 0 .24-.5.9.9 0 0 0-.022-.432.75.75 0 0 0-.188-.302.8.8 0 0 0-.262-.174 3 3 0 0 0-.558-.128l-.355-.058.162-1.016Z" style="fill:#fae93b;fill-opacity:1;fill-rule:nonzero;stroke:none" transform="matrix(3.67933 0 0 -3.67933 168.047 240.507)"></path><path d="m0 0-.592.904-.135-1.069zm1.229-.829L.644-.962l-.37.552L-.79-.651l-.083-.656-.57-.129.432 2.899.569.129z" style="fill:#fae93b;fill-opacity:1;fill-rule:nonzero;stroke:none" transform="matrix(3.67933 0 0 -3.67933 180.275 242.605)"></path><path d="m0 0-.798 2.611.527.161.355-1.16.711 1.486.709.216-.673-1.317L2.355.719 1.673.511.58 1.517.286.95.527.16Z" style="fill:#fae93b;fill-opacity:1;fill-rule:nonzero;stroke:none" transform="matrix(3.67933 0 0 -3.67933 186.29 245.217)"></path><path d="m0 0-.395.037.141 1.486a1.4 1.4 0 0 0-.538-.25l.034.358q.159.036.354.16.195.125.279.306l.321-.031Z" style="fill:#fae93b;fill-opacity:1;fill-rule:nonzero;stroke:none" transform="matrix(3.67933 0 0 -3.67933 140.815 263.32)"></path><path d="M0 0a.45.45 0 0 1-.078.301q-.084.108-.2.112a.23.23 0 0 1-.185-.08Q-.539.249-.546.052q-.006-.201.069-.297a.25.25 0 0 1 .194-.101.25.25 0 0 1 .196.084Q-.006-.174 0 0m-.926-.834.384.029q.01-.118.068-.175a.22.22 0 0 1 .154-.063.25.25 0 0 1 .213.106q.09.11.126.463a.48.48 0 0 0-.38-.16.56.56 0 0 0-.414.203.7.7 0 0 0-.16.496.7.7 0 0 0 .205.5q.193.186.482.176A.65.65 0 0 0 .259.48Q.453.23.433-.327q-.02-.566-.238-.81a.68.68 0 0 0-.556-.232.6.6 0 0 0-.387.142.62.62 0 0 0-.178.393" style="fill:#fae93b;fill-opacity:1;fill-rule:nonzero;stroke:none" transform="matrix(3.67933 0 0 -3.67933 146.766 258.692)"></path><path d="m0 0 .382.057a.36.36 0 0 1 .105-.222.27.27 0 0 1 .196-.072q.123.003.204.097a.36.36 0 0 1 .078.253.34.34 0 0 1-.087.236.26.26 0 0 1-.198.082.7.7 0 0 1-.181-.035l.036.325q.16 0 .243.076a.25.25 0 0 1 .08.198.23.23 0 0 1-.066.165.23.23 0 0 1-.167.058.24.24 0 0 1-.171-.074.33.33 0 0 1-.082-.209L.005.988a.8.8 0 0 0 .107.302.5.5 0 0 0 .21.182q.136.067.306.072a.62.62 0 0 0 .473-.174.5.5 0 0 0 .154-.341Q1.261.757.968.588a.484.484 0 0 0 .403-.481.62.62 0 0 0-.187-.468.68.68 0 0 0-.49-.205.68.68 0 0 0-.469.15A.63.63 0 0 0 0 0" style="fill:#fae93b;fill-opacity:1;fill-rule:nonzero;stroke:none" transform="matrix(3.67933 0 0 -3.67933 149.345 261.681)"></path><path d="M0 0a.45.45 0 0 1 .114-.289q.098-.098.211-.088A.23.23 0 0 1 .5-.275q.067.092.049.287Q.532.212.446.3a.25.25 0 0 1-.205.076.25.25 0 0 1-.185-.105Q-.014.174 0 0m.821.937L.443.863a.28.28 0 0 1-.088.168.22.22 0 0 1-.158.043.26.26 0 0 1-.202-.131Q-.081.824-.074.467a.47.47 0 0 0 .352.205.56.56 0 0 0 .44-.151.7.7 0 0 0 .218-.472.7.7 0 0 0-.143-.523.64.64 0 0 0-.46-.232.64.64 0 0 0-.533.198q-.221.225-.269.778-.048.566.139.834.189.269.523.296a.58.58 0 0 0 .4-.097q.165-.118.228-.366" style="fill:#fae93b;fill-opacity:1;fill-rule:nonzero;stroke:none" transform="matrix(3.67933 0 0 -3.67933 157.043 260.812)" data-source="https://football-logos.cc"></path><!-- source: https://football-logos.cc --></svg>