<svg xmlns="http://www.w3.org/2000/svg" xml:space="preserve" viewBox="1 1 238.83 298"><!-- Source: https://football-logos.cc --><g style="fill:#000002;fill-opacity:1" data-source="https://football-logos.cc"><path d="M0 0c-68.774 26.786-114.577 83.807-136.132 169.476-18.215 72.38-12.159 140.912-10.759 153.914l.09.842.826.188c42.744 9.767 65.241 42.522 69.315 48.991l.35.553H77.173l.349-.553c4.077-6.469 26.576-39.224 69.316-48.991l.825-.188.091-.842c1.399-13.002 7.455-81.533-10.757-153.914C115.44 83.807 69.638 26.786.863 0L.432-.168Z" style="fill:#000002;fill-opacity:1;fill-rule:nonzero;stroke:none" transform="matrix(.78373 0 0 -.78373 120.08 296.442)"></path></g><g style="fill:#c5a52c;fill-opacity:1"><path d="M0 0c-21.509-85.479-66.959-141.997-135.413-168.658C-203.867-141.997-249.317-85.479-270.826 0c-18.328 72.836-11.899 142.62-10.728 153.498 43.265 9.886 66.034 43.132 70.055 49.513h152.172c4.02-6.381 26.79-39.627 70.056-49.513C11.898 142.62 18.328 72.836 0 0m14.72 155.483-.187 1.475-1.453.312c-46.874 10.024-69.19 48.483-69.41 48.871l-.603 1.061h-156.96l-.603-1.061c-.22-.388-22.536-38.847-69.41-48.871l-1.453-.312-.187-1.475c-.097-.757-9.388-76.749 10.628-156.396 11.783-46.887 31.261-85.875 57.894-115.886 22.274-25.098 49.606-43.9 81.611-56.23 32.005 12.33 59.337 31.132 81.611 56.23C-27.169-86.788-7.691-47.8 4.092-.913 24.107 78.734 14.816 154.726 14.72 155.483" style="fill:#c5a52c;fill-opacity:1;fill-rule:nonzero;stroke:none" transform="matrix(.78373 0 0 -.78373 226.545 163.391)"></path></g><path d="M0 0c-11.691-52.86-41.146-119.527-114.59-148.997C-188.034-119.527-217.488-52.86-229.18 0c-12.521 56.612-7.746 109.01-6.705 118.608 31.788 5.271 54.499 35.119 58.633 40.902h125.324c4.134-5.783 26.846-35.631 58.633-40.902C7.746 109.01 12.521 56.612 0 0m10.682 120.709-.207 1.586-1.584.22c-33.466 4.622-57.751 39.909-57.994 40.266l-.623.919-1.111.001h-127.506l-1.112-.001-.623-.919c-.241-.357-24.526-35.644-57.992-40.266l-1.584-.22-.207-1.586c-.076-.577-7.359-58.445 6.565-121.504 8.197-37.122 22.028-68.783 41.109-94.101 20.141-26.724 46.185-46.385 77.597-58.624 31.412 12.239 57.457 31.9 77.597 58.624C-17.912-69.578-4.081-37.917 4.116-.795c13.924 63.059 6.641 120.927 6.566 121.504" style="fill:#fff;fill-opacity:1;fill-rule:nonzero;stroke:none" transform="matrix(.78373 0 0 -.78373 210.225 153.409)"></path><path d="M0 0c1.015-21.562 3.686-42.24 7.94-61.476 6.359-28.752 18.313-62.634 40.699-91.925V-3.922H95.72v-191.939a172 172 0 0 1 23.794-11.946 172 172 0 0 1 23.794 11.946V-3.922h47.082v-149.479c22.386 29.291 34.339 63.173 40.698 91.925 4.255 19.239 6.925 39.917 7.94 61.476z" style="fill:#fff;fill-opacity:1;fill-rule:nonzero;stroke:none" transform="matrix(.78373 0 0 -.78373 26.75 104.705)"></path><g style="fill:#b9a954;fill-opacity:1"><path d="M0 0h4.826v-.943H.962v-3.019h3.864v-.943H.962v-4.728H0Z" style="fill:#b9a954;fill-opacity:1;fill-rule:nonzero;stroke:none" transform="matrix(.78373 0 0 -.78373 37.2 88.13)"></path></g><g style="fill:#b9a954;fill-opacity:1"><path d="M0 0a4 4 0 0 1-2.027-.557 4 4 0 0 1-1.495-1.501 4.17 4.17 0 0 1-.538-2.103q0-1.717 1.19-2.901Q-1.68-8.244 0-8.244q1.122 0 2.076.544a3.9 3.9 0 0 1 1.488 1.488 4.17 4.17 0 0 1 .535 2.096q0 1.148-.535 2.074A4 4 0 0 1 2.06-.557 4.1 4.1 0 0 1 0 0m-.042.937q2.188 0 3.662-1.461 1.475-1.46 1.475-3.595 0-2.115-1.471-3.588Q2.153-9.181.036-9.181q-2.143 0-3.617 1.467t-1.474 3.549q0 1.389.671 2.574A4.9 4.9 0 0 0-2.552.265a4.93 4.93 0 0 0 2.51.672" style="fill:#b9a954;fill-opacity:1;fill-rule:nonzero;stroke:none" transform="matrix(.78373 0 0 -.78373 53.03 88.673)"></path></g><g style="fill:#b9a954;fill-opacity:1"><path d="M0 0a4 4 0 0 1-2.027-.557 4 4 0 0 1-1.495-1.501 4.17 4.17 0 0 1-.538-2.103q0-1.717 1.19-2.901Q-1.68-8.244 0-8.244q1.122 0 2.076.544a3.9 3.9 0 0 1 1.488 1.488 4.17 4.17 0 0 1 .535 2.096q0 1.148-.535 2.074A4 4 0 0 1 2.06-.557 4.1 4.1 0 0 1 0 0m-.042.937q2.188 0 3.662-1.461 1.475-1.46 1.475-3.595 0-2.115-1.471-3.588Q2.153-9.181.036-9.181q-2.143 0-3.617 1.467t-1.474 3.549q0 1.389.671 2.574A4.9 4.9 0 0 0-2.552.265a4.93 4.93 0 0 0 2.51.672" style="fill:#b9a954;fill-opacity:1;fill-rule:nonzero;stroke:none" transform="matrix(.78373 0 0 -.78373 69.27 88.673)"></path></g><g style="fill:#b9a954;fill-opacity:1"><path d="M0 0v.943h5.278V0H3.13v-8.69h-.982V0Z" style="fill:#b9a954;fill-opacity:1;fill-rule:nonzero;stroke:none" transform="matrix(.78373 0 0 -.78373 81.133 88.868)"></path></g><g style="fill:#b9a954;fill-opacity:1"><path d="M0 0v-3.693h1.194q1.055 0 1.548.206.492.206.79.645t.299.949q0 .642-.42 1.121-.42.477-1.154.654Q1.765 0 .544 0Zm0 4.054V.969h.551q1.004 0 1.476.187.474.186.748.589.277.404.276.894 0 .661-.462 1.038-.464.377-1.473.377Zm-.943.943H.956q1.146 0 1.761-.272.615-.273.973-.835.357-.563.357-1.251 0-.642-.313-1.169a2.3 2.3 0 0 0-.919-.854Q3.566.36 3.971.017q.404-.345.63-.832.224-.488.225-1.058 0-1.159-.848-1.961t-2.275-.802H-.943z" style="fill:#b9a954;fill-opacity:1;fill-rule:nonzero;stroke:none" transform="matrix(.78373 0 0 -.78373 94.222 92.045)"></path></g><g style="fill:#b9a954;fill-opacity:1"><path d="m0 0-1.651-3.487h3.293zm.122 2.046 4.492-9.632h-1.04L2.059-4.417h-4.15l-1.5-3.169h-1.075l4.552 9.632z" style="fill:#b9a954;fill-opacity:1;fill-rule:nonzero;stroke:none" transform="matrix(.78373 0 0 -.78373 109.592 89.733)"></path></g><g style="fill:#b9a954;fill-opacity:1"><path d="M0 0h.962v-8.703h3.707v-.93H0Z" style="fill:#b9a954;fill-opacity:1;fill-rule:nonzero;stroke:none" transform="matrix(.78373 0 0 -.78373 121.484 88.13)"></path></g><g style="fill:#b9a954;fill-opacity:1"><path d="M0 0h.963v-8.703h3.706v-.93H0Z" style="fill:#b9a954;fill-opacity:1;fill-rule:nonzero;stroke:none" transform="matrix(.78373 0 0 -.78373 133.444 88.13)"></path></g><g style="fill:#b9a954;fill-opacity:1"><path d="M0 0h.962v-8.703h3.706v-.93H0Z" style="fill:#b9a954;fill-opacity:1;fill-rule:nonzero;stroke:none" transform="matrix(.78373 0 0 -.78373 173.146 88.13)"></path></g><g style="fill:#b9a954;fill-opacity:1" data-source="https://football-logos.cc"><path d="M0 0h.963v-5.815q0-1.035.039-1.29.073-.57.334-.953.262-.383.806-.642a2.5 2.5 0 0 1 1.093-.258q.478 0 .917.203.438.203.734.563.294.36.431.871.099.366.099 1.506V0h.962v-5.815q0-1.29-.252-2.086T5.118-9.286t-1.831-.589q-1.164 0-1.997.557-.832.555-1.113 1.473-.176.563-.177 2.03Z" style="fill:#b9a954;fill-opacity:1;fill-rule:nonzero;stroke:none" transform="matrix(.78373 0 0 -.78373 185.13 88.13)"></path></g><g style="fill:#b9a954;fill-opacity:1"><path d="M0 0v-3.693h1.193q1.057 0 1.549.206.491.206.79.645.298.439.299.949 0 .642-.42 1.121-.419.477-1.153.654Q1.765 0 .544 0Zm0 4.054V.969h.551q1.004 0 1.476.187.474.186.748.589.277.404.277.894-.001.661-.463 1.038-.463.377-1.474.377Zm-.943.943H.956q1.147 0 1.762-.272.615-.273.971-.835.358-.563.358-1.251 0-.642-.313-1.169a2.3 2.3 0 0 0-.92-.854Q3.565.36 3.971.017q.404-.345.63-.832.225-.488.225-1.058 0-1.159-.848-1.961t-2.276-.802H-.943z" style="fill:#b9a954;fill-opacity:1;fill-rule:nonzero;stroke:none" transform="matrix(.78373 0 0 -.78373 199.852 92.045)"></path></g><g style="fill:#b9a954;fill-opacity:1"><path d="M0 0c-.088-.4-.226-.78-.427-1.135a3.9 3.9 0 0 0-1.489-1.488 4.1 4.1 0 0 0-2.075-.544q-1.68 0-2.87 1.183T-8.052.917q0 1.16.538 2.103a4 4 0 0 0 1.496 1.501 3.97 3.97 0 0 0 2.027.557q1.088 0 2.059-.557A4 4 0 0 0-.427 3.036c.118-.204.209-.421.288-.642h1.03a4.8 4.8 0 0 1-1.262 2.16q-1.475 1.46-3.663 1.46a4.9 4.9 0 0 1-2.51-.671 4.9 4.9 0 0 1-1.831-1.857A5.14 5.14 0 0 1-9.047.913q0-2.082 1.475-3.549 1.473-1.467 3.617-1.467 2.116 0 3.587 1.474A4.83 4.83 0 0 1 1.017 0z" style="fill:#b9a954;fill-opacity:1;fill-rule:nonzero;stroke:none" transform="matrix(.78373 0 0 -.78373 163.661 92.653)"></path></g><path d="M0 0h-15.341v-4.268h5.908v-16.268h4.03v16.268H0Z" style="fill:#fff;fill-opacity:1;fill-rule:nonzero;stroke:none" transform="matrix(.78373 0 0 -.78373 47.053 65.389)"></path><path d="M0 0v4.268h-13.406v-20.536H0V-12h-9.376v4.061h7.953v4.268h-7.953V0Z" style="fill:#fff;fill-opacity:1;fill-rule:nonzero;stroke:none" transform="matrix(.78373 0 0 -.78373 61.995 68.734)"></path><path d="M0 0v4.268h-13.406v-20.536H0V-12h-9.376v4.061h7.953v4.268h-7.953V0Z" style="fill:#fff;fill-opacity:1;fill-rule:nonzero;stroke:none" transform="matrix(.78373 0 0 -.78373 93.034 68.734)"></path><path d="M0 0h3.566a1.836 1.836 0 1 0 0-3.671H0Zm5.402-16.268h4.86L5.926-7.353A6.1 6.1 0 0 1 3.328 4.268h-7.357v-20.536H0v8.329h1.352z" style="fill:#fff;fill-opacity:1;fill-rule:nonzero;stroke:none" transform="matrix(.78373 0 0 -.78373 70.13 68.734)"></path><path d="M0 0v-11.263L-10.957 0h-1.327v-20.536h4.03v11.629L3.058-20.536h.971V0Z" style="fill:#fff;fill-opacity:1;fill-rule:nonzero;stroke:none" transform="matrix(.78373 0 0 -.78373 108.035 65.389)"></path><path d="M0 0v-11.263L-10.956 0h-1.328v-20.536h4.029v11.629L3.059-20.536h.97V0Z" style="fill:#fff;fill-opacity:1;fill-rule:nonzero;stroke:none" transform="matrix(.78373 0 0 -.78373 185.672 65.389)"></path><path d="M0 0v-4.268h4.538a6.394 6.394 0 1 0-6.133 8.196c1.42 0 2.727-.468 3.787-1.25l3.177 3.033a10.7 10.7 0 0 1-6.964 2.57c-5.935 0-10.747-4.812-10.747-10.747 0-5.936 4.812-10.747 10.747-10.747 2.383 0 4.578.78 6.358 2.093v-1.476h4.226V0Z" style="fill:#fff;fill-opacity:1;fill-rule:nonzero;stroke:none" transform="matrix(.78373 0 0 -.78373 125.115 71.611)"></path><path d="M0 0v-4.268h4.537a6.394 6.394 0 1 0-6.133 8.196 6.36 6.36 0 0 0 3.788-1.25l3.176 3.033a10.7 10.7 0 0 1-6.964 2.57c-5.934 0-10.747-4.812-10.747-10.747 0-5.936 4.813-10.747 10.747-10.747 2.383 0 4.579.78 6.359 2.093v-1.476h4.226V0Z" style="fill:#fff;fill-opacity:1;fill-rule:nonzero;stroke:none" transform="matrix(.78373 0 0 -.78373 145.35 71.611)"></path><path d="m0 0 2.28 4.268L4.56 0Zm9.009-8.328h4.593L2.632 12.208h-.704L-9.042-8.328h4.593l2.28 4.268h8.898z" style="fill:#fff;fill-opacity:1;fill-rule:nonzero;stroke:none" transform="matrix(.78373 0 0 -.78373 162.589 74.956)"></path><path d="M0 0v-13.065a3.594 3.594 0 1 0-7.187 0V0h-4.03v-13.201a7.623 7.623 0 0 1 15.246 0V0Z" style="fill:#fff;fill-opacity:1;fill-rule:nonzero;stroke:none" transform="matrix(.78373 0 0 -.78373 202.647 65.389)"></path><g style="fill:#b9a954;fill-opacity:1" data-source="https://football-logos.cc"><path d="M0 0q-.099.307-.099.944v4.543q0 .638.099.944.099.308.472.308t.471-.319q.1-.318.1-.933V.944q0-.637-.1-.944Q.845-.307.472-.307T0 0m-64.515 5.608q-.099-.318-.472-.318-.396 0-.483.33-.088.328-.088.943v4.544q0 .636.099.944.098.306.472.306.373 0 .472-.306.098-.308.099-.944V6.563q0-.637-.099-.955M3.366-.307q.179.735.179 1.734v4.499q0 1.383-.527 2.086-.528.701-1.514.702-.856 0-1.581-.636v2.963q0 .68.109 1.021c.074.227.24.34.506.34q.416 0 .516-.351.098-.352.098-1.01v-1.032h2.393v1.405q-.002 1.448-.813 2.272-.813.823-2.26.823-1.646 0-2.348-.944-.703-.944-.702-2.941V1.427q0-1.001.173-1.734h-26.938c.103.39.163.823.163 1.317v5.707q-.001 1.273-.614 1.975-.616.703-1.69.703-.396 0-.758-.143a3.1 3.1 0 0 1-.757-.45l.153 3.292h3.447v2.218h-5.4l-.307-8.144h1.998q-.001 1.142.767 1.142.396 0 .538-.264.143-.263.143-.812V.922q.001-.636-.1-.944c-.056-.176-.194-.261-.386-.285h-.167c-.194.024-.333.113-.389.296q-.1.319-.1.933v2.656h-2.458V1.01c0-.496.056-.928.149-1.317h-27.004q.178.735.178 1.734v9.175q0 2.02-.713 2.963t-2.359.944q-1.647 0-2.348-.955-.703-.955-.703-2.952V6.103q0-1.384.526-2.086.527-.703 1.515-.703.811 0 1.581.659V.988q0-.68-.11-1.021a.45.45 0 0 0-.255-.274h-.502a.43.43 0 0 0-.264.285q-.099.351-.098 1.01V2.02h-2.393V.724c0-.38.049-.717.121-1.031h-28.769v14.619h-2.063q-.44-.528-.955-1.043a26 26 0 0 0-1.108-1.043V9.351q.944.877 1.712 2.019V-.307h-11.618v-3.019H13.451v3.019z" style="fill:#b9a954;fill-opacity:1;fill-rule:nonzero;stroke:none" transform="matrix(.78373 0 0 -.78373 158.542 51.297)"></path></g><!-- source: https://football-logos.cc --></svg>