<svg xmlns="http://www.w3.org/2000/svg" viewBox="30.08 187.37 727.12 727.12"><!-- Source: https://football-logos.cc --><path d="M568.398 428.19c0-150.59-122.08-272.67-272.67-272.67S23.057 277.6 23.057 428.19c0 150.589 122.08 272.67 272.67 272.67s272.671-122.081 272.671-272.67" style="fill:#c0181e;fill-opacity:1;fill-rule:nonzero;stroke:none" transform="matrix(1.33333 0 0 -1.33333 -.667 1121.853)" data-source="https://football-logos.cc"></path><path d="M106.485 238.947c-50.55 50.55-78.388 117.757-78.388 189.242 0 71.486 27.839 138.694 78.388 189.243s117.757 78.387 189.243 78.387 138.693-27.838 189.242-78.387c50.55-50.55 78.388-117.757 78.388-189.243S535.52 289.496 484.97 238.947c-50.549-50.549-117.757-78.387-189.242-78.387-71.486 0-138.694 27.838-189.243 78.387" style="fill:#fff;fill-opacity:1;fill-rule:nonzero;stroke:none" transform="matrix(1.33333 0 0 -1.33333 -.667 1121.853)"></path><path d="m241.559 238.818 16.014-3.294q6.135-1.26 9.573-6.316 3.374-5.043 2.126-11.118-1.25-6.074-6.34-9.376-5.153-3.29-11.289-2.026l-7.547 1.55-2.902-14.112-8.467 1.742zm4.164-22.665 7.548-1.551q2.698-.556 4.863.949 2.164 1.506 2.733 4.268.58 2.82-.82 5.029-1.404 2.206-4.102 2.762l-7.547 1.552zM303.708 231.54l-.245-8.266-17.532.52-.308-10.393 17.03-.505-.245-8.265-17.03.504-.501-16.905-8.64.256 1.298 43.83zM330.012 213.22l19.945-19.866-9.855-1.446-18.477 18.054 2.983-20.328-8.553-1.255-6.366 43.384 8.553 1.255 2.81-19.15 12.064 21.333 9.854 1.445zM295.728 607.184c-98.699 0-178.996-80.296-178.996-178.995 0-27.297 6.143-53.188 17.119-76.36l-89.647 16.146c-4.609 19.32-7.049 39.483-7.049 60.214 0 142.804 115.769 258.572 258.573 258.572S554.3 570.993 554.3 428.19c0-20.731-2.44-40.894-7.049-60.214l-89.647-16.147c10.976 23.173 17.119 49.064 17.119 76.361 0 98.699-80.297 178.995-178.995 178.995" style="fill:#c0181e;fill-opacity:1;fill-rule:nonzero;stroke:none" transform="matrix(1.33333 0 0 -1.33333 -.667 1121.853)"></path><path d="M466.862 428.19c0-94.514-76.62-171.135-171.134-171.135-94.515 0-171.135 76.62-171.135 171.134s76.62 171.134 171.135 171.134 171.134-76.62 171.134-171.134" style="fill:#c0181e;fill-opacity:1;fill-rule:nonzero;stroke:none" transform="matrix(1.33333 0 0 -1.33333 -.667 1121.853)" data-source="https://football-logos.cc"></path><path d="M139.838 370.842c-6.6 17.882-10.205 37.202-10.205 57.347 0 91.585 74.51 166.094 166.095 166.094s166.094-74.51 166.094-166.094c0-17.172-2.62-33.744-7.48-49.337l-37.223 48.377-14.688-1.44-9.792 32.256-11.952 7.056-1.296 23.904-26.64 40.032-9.648-1.44-20.592 25.2-13.392-10.08-4.464 5.617-7.632-18h-9.648l-17.136 30.815-14.544-20.88-10.944-1.296-22.896-40.608-4.608-18-13.68 5.328-22.896-30.24.043-25.92-7.387-3.888-7.344-26.352h-6.047z" style="fill:#fff;fill-opacity:1;fill-rule:nonzero;stroke:none" transform="matrix(1.33333 0 0 -1.33333 -.667 1121.853)"></path><path d="M331.44 432.845c1.583-3.456 1.583-10.367.575-13.247s-3.744-6.625-5.184-9.505-1.152-5.904-.432-6.768 1.584-.431 4.176 1.009 3.312 2.016 3.312 2.016-.288 2.16 0 2.88 1.009-.289 1.584-1.585c.575-1.295 1.44-1.872 1.584-3.6s-.288-4.32-.288-4.32l4.32.288c4.752 9.649 9.792 26.352 9.792 26.352l-29.664 33.408c-21.744.433-33.696-2.448-33.696-2.448s-7.344-21.167-9.36-27.504c0 0 7.632-.72 13.536-1.728 0 0 6.336 2.593 14.112 5.76 7.776 3.168 10.944 3.744 15.12 5.472s6.857 1.828 8.64.144c2.592-2.448 1.872-6.624 1.872-6.624M326.831 466.973v-4.752l28.512-32.256s6.183-2.197 11.952-5.472c5.328-3.024 7.92-4.895 8.496-4.895s-1.296 4.464-4.176 9.215c-2.88 4.752-12.672 19.296-27.36 29.088-12.03 8.02-17.424 9.072-17.424 9.072M236.831 407.79c-10.368 5.903-22.32 13.248-22.32 13.248 4.176 12.96 10.08 23.04 10.08 23.04 17.856 18.863 38.448 24.767 38.448 24.767 7.2-2.448 18.864-10.08 18.864-10.08l-9.648-29.664s-5.806-1.903-14.256-6.48c-10.368-5.616-11.087-6.48-14.832-10.08-3.457-3.324-6.336-4.751-6.336-4.751M309.983 374.381c1.796 3.16 3.168 5.328 3.456 4.177s.576-2.449 1.152-2.593c.575-.144.432 3.168 2.016 6.193s5.04 6.623 7.632 7.92c2.593 1.297 5.616 3.455 5.616 3.455 7.056.433 12.528.432 12.528.432s10.8-16.272 16.704-28.655c0 0-13.392-25.921-20.016-37.729 0 0-2.304-1.151-6.768-1.583-4.464-.433-6.48-.001-4.32.863s5.184 2.737 4.464 3.168-2.448-.288-7.92-.288-8.064.288-9.071 1.009c-1.009.72-.29.576 2.735.863s6.336 1.44 2.448 1.728-11.376 1.584-16.848 7.92-7.463 13.239-2.592 26.64c.576 1.584 1.008 0 1.296-1.728s1.728-3.888 2.16-3.888 1.152 4.752 5.328 12.096M365.855 325.998c-7.031-10.02-18.864-19.009-19.44-19.009s-.288 1.584-1.296 6.769c-1.008 5.183-2.16 8.64-2.16 8.64l21.457 40.751s13.535 7.2 16.56 9.36c3.023 2.16 3.455 2.16 2.88-1.871-.577-4.033-1.729-21.456-18-44.64M217.823 340.83s.432 6.335 2.16 11.231 6.624 9.217 6.624 9.217c-2.448-.145-5.04-1.585-7.631-4.177-2.593-2.593-3.313-4.32-4.033-4.176s0 2.593 1.44 9.936c1.44 7.344 5.472 12.097 7.344 13.824s1.872 2.736 1.872 2.736c-6.911 1.008-19.872 7.344-22.032 9.072-2.16 1.729-.864 2.736 2.736 4.608s6.192 3.6 11.376 6.192 12.816 5.472 12.816 5.472l-18.864 11.376s-3.888-5.04-6.48-9.503c-2.592-4.465-4.896-12.24-4.608-26.208.288-13.97 4.032-28.369 5.328-29.665s3.744-4.752 11.952-9.935M79.978 419.748l-2.102-8.564c-.4-1.635-1.058-1.635-1.459 0l-2.096 8.55-.042.13-7.639-4.63c-1.44-.872-1.904-.408-1.032 1.032l4.638 7.652-.115.023-8.573 2.103c-1.635.401-1.635 1.058 0 1.459l8.584 2.106.098.03-4.632 7.641c-.872 1.44-.408 1.905 1.032 1.032l7.644-4.632.034.122 2.099 8.56c.401 1.636 1.058 1.636 1.459 0l2.1-8.555.034-.127 7.645 4.633c1.44.873 1.905.408 1.032-1.032l-4.636-7.648.074-.018 8.612-2.112c1.635-.401 1.635-1.058 0-1.459l-8.692-2.132.054-.077 4.588-7.57c.872-1.44.408-1.904-1.032-1.03l-7.653 4.637zM511.478 419.748l2.101-8.564c.401-1.635 1.058-1.635 1.46 0l2.096 8.55.041.13 7.639-4.63c1.44-.872 1.904-.408 1.032 1.032l-4.638 7.652.116.023 8.572 2.103c1.635.401 1.635 1.058 0 1.459l-8.584 2.106-.097.03 4.631 7.641c.873 1.44.408 1.905-1.032 1.032l-7.644-4.632-.033.122-2.1 8.56c-.401 1.636-1.058 1.636-1.459 0l-2.1-8.555-.034-.127-7.645 4.633c-1.44.873-1.905.408-1.032-1.032l4.636-7.648-.074-.018-8.612-2.112c-1.635-.401-1.635-1.058 0-1.459l8.691-2.132-.053-.077-4.587-7.57c-.873-1.44-.409-1.904 1.031-1.03l7.653 4.637zM261.287 309.74l5.83 2.059h3.8v-22.176h-4.371v17.55l-4.182-1.172zM291.236 304.55q0-2.565-1.33-4.499h.031l-6.906-10.422h-5.006l4.943 7.223q-3.454.032-5.64 2.187-2.154 2.153-2.154 5.511 0 3.422 2.218 5.544 2.25 2.154 5.797 2.155 3.548 0 5.798-2.155t2.25-5.544m-11.722 0q0-1.615 1.045-2.613t2.629-.998q1.647 0 2.677.998t1.03 2.613-1.03 2.598-2.677.982q-1.584 0-2.629-.998t-1.045-2.582M305.905 311.799l-4.91-7.192q3.451-.095 5.607-2.25 2.154-2.153 2.154-5.447 0-3.39-2.25-5.577-2.25-2.154-5.797-2.154-3.548 0-5.797 2.155-2.218 2.122-2.218 5.576 0 2.5 1.3 4.466l6.905 10.423zm-1.489-14.89q-.001 1.584-1.046 2.582t-2.661.998-2.645-.982q-1.03-.982-1.03-2.597 0-1.617 1.03-2.615t2.645-.998 2.661.998 1.046 2.615M309.264 307.617v4.182h14.32v-3.707l-7.509-18.47h-4.625l7.286 17.995zM124.519 527.468l-3.842-8.576-8.28.826-7.143-15.948 6.127-5.628-3.815-8.518-33.743 31.93 4.379 9.776zm-39.403-5.069 13.89-12.813 4.916 10.977zM106.963 564.062l-5.129-7.269 10.595-7.475 5.129 7.268q1.409 1.995.859 4.53t-2.751 4.087-4.748 1.203q-2.547-.35-3.955-2.344m37.417-7.573-19.007 41.738 7.733 7.41 41.463-21-6.785-6.5-7.36 3.879-12.619-12.091 3.561-7.52-6.26-5.997.218-.02-5.38-7.625-17.53 1.56-3.791-5.375 12.437-8.776-4.984-7.063-35.828 25.28 10.113 14.332q3.501 4.962 9.438 5.988 5.937 1.023 10.85-2.442 3.327-2.349 4.831-6.246 1.505-3.899.734-8.03l17.984-1.508zm-8.227 38.273 8.051-17.096 8.685 8.321zM179.338 631.541l.632-34.038 15.525 10.251 4.556-6.899-24.724-16.327-3.797 5.75-.598 33.985-14.846-9.804-4.556 6.9 24.046 15.88zM282.001 641.805l-2.725 26.608 8.6.88 4.466-43.62-6.543-.67-21.426 24.756 2.731-26.67-8.6-.881-4.466 43.62 6.543.67zM335.393 622.907l18.32 16.858-6.089 24.1 9.365-2.788 3.75-14.842L372 656.607l9.364-2.789-18.266-16.782 6.472-25.456-9.425 2.806-4.089 16.12-12.24-11.257-9.366 2.789.127.104-8.313.807-1.855 8.11-17.394 1.69-3.382-7.602-9.29.902 19.514 42.16 10.661-1.036 10.803-43.93zm-17.138 34.867-7.718-17.249 11.971-1.163zM391.891 608.6q3.333-1.737 6.795-1.668 3.46.07 6.181 1.902l4.615-7.277q-3.963-2.455-8.707-2.952-4.742-.495-9.451 1.038l-1.042-2q1.518-1.286 2.025-2.961.505-1.677-.392-3.397-3.038-5.834-14.886 1.252l2.634 5.056q5.797-3.513 6.579-2.013.608 1.168-2.778 3.211l1.996 3.835q-7.342 5.023-9.336 13.125-1.97 8.158 2.168 16.102 4.514 8.666 13.216 11.41 8.815 2.824 17.539-1.718 5.278-2.75 8.463-7.549 3.184-4.802 3.487-10.326l-8.608-.391q-.086 3.364-1.985 6.224t-5.233 4.599q-5.67 2.95-11.02 1.217-5.326-1.819-8.248-7.43-2.893-5.555-1.328-10.96 1.647-5.378 7.316-8.33M407.49 590.237l25.716 35.517 7-5.07-25.714-35.516zM435.625 566.687l-7.74 7.405 19.682 41.857 6.788-6.496-15.56-31.754 30.994 16.985 6.834-6.539zM467.778 525.992l-5.48 7.633 4.878 6.741-10.192 14.196-7.946-2.466-5.443 7.581 44.57 13.106 6.246-8.701zm15.437 36.606-18.06-5.562 7.014-9.77zM494.437 507.906l24.411 10.93 3.533-7.888-40.02-17.921-2.687 6.003 16.788 28.109-24.468-10.957-3.533 7.889 40.019 17.92 2.688-6.002zM233.8 631.78l-22.713-8.086-2.826 7.937 22.714 8.086z" style="fill:#fff;fill-opacity:1;fill-rule:nonzero;stroke:none" transform="matrix(1.33333 0 0 -1.33333 -.667 1121.853)" data-source="https://football-logos.cc"></path><!-- source: https://football-logos.cc --></svg>