<svg xmlns="http://www.w3.org/2000/svg" xml:space="preserve" viewBox="1 1 199.69 250"><!-- Source: https://football-logos.cc --><defs data-source="https://football-logos.cc"><linearGradient id="b" x1="0" x2="1" y1="0" y2="0" gradientTransform="scale(632.87067 -632.87067)rotate(90 .746 -.45)" gradientUnits="userSpaceOnUse" spreadMethod="pad"><stop offset="0" style="stop-opacity:1;stop-color:#3b3c3e"></stop><stop offset=".513" style="stop-opacity:1;stop-color:#595c5d"></stop><stop offset="1" style="stop-opacity:1;stop-color:#37383a"></stop></linearGradient><linearGradient id="c" x1="0" x2="1" y1="0" y2="0" gradientTransform="scale(640.29077 -640.29077)rotate(90 .886 -.246)" gradientUnits="userSpaceOnUse" spreadMethod="pad"><stop offset="0" style="stop-opacity:1;stop-color:#db2831"></stop><stop offset="1" style="stop-opacity:1;stop-color:#a0272b"></stop></linearGradient><linearGradient id="e" x1="0" x2="1" y1="0" y2="0" gradientTransform="matrix(0 -60.5477 -60.5477 0 297.64 524.74)" gradientUnits="userSpaceOnUse" spreadMethod="pad"><stop offset="0" style="stop-opacity:1;stop-color:#db2831"></stop><stop offset=".483" style="stop-opacity:1;stop-color:#db2831"></stop><stop offset=".681" style="stop-opacity:1;stop-color:#8e292d"></stop><stop offset="1" style="stop-opacity:1;stop-color:#8e292d"></stop></linearGradient><linearGradient id="f" x1="0" x2="1" y1="0" y2="0" gradientTransform="matrix(0 -55.51497 -55.51497 0 144.834 601.427)" gradientUnits="userSpaceOnUse" spreadMethod="pad"><stop offset="0" style="stop-opacity:1;stop-color:#db2831"></stop><stop offset=".406" style="stop-opacity:1;stop-color:#db2831"></stop><stop offset=".633" style="stop-opacity:1;stop-color:#8e292d"></stop><stop offset="1" style="stop-opacity:1;stop-color:#8e292d"></stop></linearGradient><linearGradient id="g" x1="0" x2="1" y1="0" y2="0" gradientTransform="matrix(0 -55.51497 -55.51497 0 213.275 601.427)" gradientUnits="userSpaceOnUse" spreadMethod="pad"><stop offset="0" style="stop-opacity:1;stop-color:#db2831"></stop><stop offset=".406" style="stop-opacity:1;stop-color:#db2831"></stop><stop offset=".633" style="stop-opacity:1;stop-color:#8e292d"></stop><stop offset="1" style="stop-opacity:1;stop-color:#8e292d"></stop></linearGradient><linearGradient id="h" x1="0" x2="1" y1="0" y2="0" gradientTransform="matrix(0 -55.06363 -55.06363 0 276.779 601.427)" gradientUnits="userSpaceOnUse" spreadMethod="pad"><stop offset="0" style="stop-opacity:1;stop-color:#db2831"></stop><stop offset=".406" style="stop-opacity:1;stop-color:#db2831"></stop><stop offset=".633" style="stop-opacity:1;stop-color:#8e292d"></stop><stop offset="1" style="stop-opacity:1;stop-color:#8e292d"></stop></linearGradient><linearGradient id="i" x1="0" x2="1" y1="0" y2="0" gradientTransform="matrix(0 -55.51497 -55.51497 0 339.66 601.652)" gradientUnits="userSpaceOnUse" spreadMethod="pad"><stop offset="0" style="stop-opacity:1;stop-color:#db2831"></stop><stop offset=".406" style="stop-opacity:1;stop-color:#db2831"></stop><stop offset=".633" style="stop-opacity:1;stop-color:#8e292d"></stop><stop offset="1" style="stop-opacity:1;stop-color:#8e292d"></stop></linearGradient><linearGradient id="j" x1="0" x2="1" y1="0" y2="0" gradientTransform="scale(55.51497 -55.51497)rotate(90 8.98 -1.854)" gradientUnits="userSpaceOnUse" spreadMethod="pad"><stop offset="0" style="stop-opacity:1;stop-color:#db2831"></stop><stop offset=".406" style="stop-opacity:1;stop-color:#db2831"></stop><stop offset=".633" style="stop-opacity:1;stop-color:#8e292d"></stop><stop offset="1" style="stop-opacity:1;stop-color:#8e292d"></stop></linearGradient><linearGradient id="k" x1="0" x2="1" y1="0" y2="0" gradientTransform="matrix(0 -55.51497 -55.51497 0 449.914 601.652)" gradientUnits="userSpaceOnUse" spreadMethod="pad"><stop offset="0" style="stop-opacity:1;stop-color:#db2831"></stop><stop offset=".406" style="stop-opacity:1;stop-color:#db2831"></stop><stop offset=".633" style="stop-opacity:1;stop-color:#8e292d"></stop><stop offset="1" style="stop-opacity:1;stop-color:#8e292d"></stop></linearGradient><clipPath id="a" clipPathUnits="userSpaceOnUse"><path d="M0 841.89h595.28V0H0Z"></path></clipPath><clipPath id="d" clipPathUnits="userSpaceOnUse"><path d="M0 841.89h595.28V0H0Z"></path></clipPath><clipPath id="l" clipPathUnits="userSpaceOnUse"><path d="M0 841.89h595.28V0H0Z"></path></clipPath></defs><g clip-path="url(#a)" transform="matrix(.36062 0 0 -.36062 -6.49 277.78)"><path d="M0 0c-16.969 11.425-81.313 74.581-101.007 94.039a264 264 0 0 1-11.308 10.538c-39.355 34.573-64.373 64.567-74.28 80.504-4.595 7.391-9.934 25.116-12.699 33.368-34.361 102.54-77.577 359.87-77.577 359.87 16.549 1.504 147.986 43.629 198.988 70.71C-23.687 677.806 0 693.26 0 693.26s23.484-20.412 71.661-45.736c46.939-24.673 188.661-67.701 205.21-69.205 0 0-38.944-263.363-73.305-365.903-2.766-8.252-6.418-16.174-11.012-23.566-10.365-16.672-33.032-47.831-75.759-84.741C116.795 104.109 6.969 12.337 0 0" style="fill:#fff;fill-opacity:1;fill-rule:nonzero;stroke:none" transform="translate(297.64 74.26)"></path><path d="M0 0s4.213 9.93 17.452 22.567h4.513S36.408 38.214 40.32 38.214c3.911 0 16.248-7.222 16.248-7.222s16.248 6.62 26.178 16.549c9.929 9.93 21.326 10.734 25.237 10.734l5.675 2.378a1.98 1.98 0 0 0 2.669-1.28l.548-1.911s4.084 4.221 9.2-1.195c3.58-3.791 8.294-5.509 10.801-6.199 1.833-.504 3.598-1.196 5.254-2.131 2.803-1.583 7.028-4.384 11.724-8.931a3.16 3.16 0 0 1 1.918-.887l7.65-.656a5.63 5.63 0 0 1 3.198.675c2.261 1.241 6.629 3.352 8.801 2.483 0 0 16.725 7.91 26.473 15.112 2.367 1.749 5.643 1.534 7.734-.537l23.258-20.984a7.623 7.623 0 0 1 10.147-.522c4.471 2.436 10.604-.155 14.392-2.878 2.43-1.747 3.499-2.654 5.219-4.487.743-.791.902-1.97.383-2.922l-.948-1.739s1.805-7.823 21.664-17.752c0 0-88.559-165.191-147.185-160.979C77.932-152.854 0 0 0 0" style="fill:#56595a;fill-opacity:1;fill-rule:nonzero;stroke:none" transform="translate(161.082 307.754)"></path><path d="m0 0-5.721-2.746 4.514-1.203 6.302 5.211c2.121 1.754 4.592 3.088 7.283 3.666 6.029 1.296 11.602 4.567 15.176 7.046 2.453 1.702 5.751 1.486 7.928-.557l4.834-4.534c-4.814-3.31-1.805-6.62-1.805-6.62l3.514 3.012c.347.298.675.623.93 1.003.571.853 2.609 2.875 5.184-.404C51.074.138 55.361-7.259 55.361-7.259c4.244-5.778 13.239-3.912 13.239-3.912 8.124 5.115 11.735 1.986 11.735 1.986l6.3-6.913-1.428-1.747a2.8 2.8 0 0 1-.295-2.159l.538-1.999h-6.619v8.425l-21.364.602c-1.203-4.213-7.762-5.115-7.762-5.115.664 4.212-1.866 3.911-1.866 3.911-4.213-.301-2.408-7.221-2.408-7.221 5.116-9.93 4.213-12.036 4.213-12.036-6.921 1.504-4.213-.602-18.054 14.443s-3.611 23.77-3.611 23.77l3.423-3.554c3.16 4.231-1.015 5.962-1.015 5.962C10.4 5.278 6.36-2.422.792-6.331c-1.741-1.222-3.973-1.512-5.998-.864l-2.621.838-5.115-3.309 12.036-7.222 2.826-.605a2.49 2.49 0 0 0 1.835-1.643l1.056-3.168c1.805-3.31-2.407-4.213-2.407-4.213-2.709 6.018-10.532 8.726-10.532 8.726h-6.619l-4.514 5.116-3.611.601L-8.48-27.409c.658-.701-.2-1.774-1.029-1.286l-15.469 9.099v3.009c0 1.805-10.901 12.717-10.901 12.717 1.182 3.992-2.537 2.328-2.537 2.328l-1.705-2.428c-.713-1.016-2.309-.511-2.309.729V.564c0 3.31-3.911 2.407-3.911 2.407.092-1.668-.358-3.137-1.024-4.371-1.436-2.655-5.145-2.915-6.927-.479a2.51 2.51 0 0 1-2.424.996l-2.601-.152c-.66-.105-.51 2.499-.057 2.991l4.908 3.723c-3.911 6.018-6.318 8.425-9.929 9.328S-82.75 6.582-90.272-.038s-18.655-9.628-18.655-9.628h-4.213c-4.814-2.709.602-4.213.602-4.213 5.416.903 8.726-2.106 8.124-4.513s-4.513-.903-4.513-.903c0-1.805-4.514-3.512-4.514-3.512-3.31 3.408-21.062 13.141-21.062 13.141s-16.55-15.045-18.355-12.939c0 0 12.337 14.142 20.16 19.257l12.824-7.328s7.524 2.589 8.765 3.605c0 0 5.755.79 8.237 2.144 2.346 1.279 14.164 10.015 16.599 12.02.232.191.477.338.756.452 1.814.744 8.784 3.703 9.274 5.468l.357 1.925a1.78 1.78 0 0 0 1.32 1.413c2.301.575 7.548 1.732 9.72.95 0 0 2.458 2.321 6.008.556.344-.171.585-.508.671-.882l.73-3.19c.098-.428.419-.772.845-.876 1.266-.31 3.883-.526 4.594 2.691.066.3.45.394.65.16 1.53-1.789 6.317-6.821 12.932-8.388 0 0 3.922-.339 5.615-2.257l3.836-.564-.564-1.241-1.827.049c-1.475.04-2.598-1.352-2.204-2.773.365-1.319 1.273-2.703 3.407-3.192.738-.169 1.457.392 1.513 1.146l.239 3.19 1.242 1.241V-.527l1.918.339.561-.999c.285-.505.798-.84 1.376-.896l2.576-.249 2.103.06a1 1 0 0 0 .987-1.285c-.206-.702-.132-1.62.859-2.612 0 0 2.934-1.354 4.965 1.58C-11.814-4.589-.827.15 0 0" style="fill:#fff;fill-opacity:1;fill-rule:nonzero;stroke:none" transform="translate(334.702 347.51)"></path><path d="M0 0c1.249-4.047 7.56.903 7.56.903l3.949 3.215 4.918-.381s2.078 3.146-.404 4.274C13.54 9.14 10.945 9.14 10.945 9.14S-2.821 9.14 0 0" style="fill:#252729;fill-opacity:1;fill-rule:nonzero;stroke:none" transform="translate(369.489 335.022)"></path><path d="M0 0v-1.198h6.657l1.016-1.467 3.611 1.242L9.027-.126s1.241.621-.677 2.539c-1.128 1.128-3.816.929-5.84.574A3.03 3.03 0 0 1 0 0" style="fill:#252729;fill-opacity:1;fill-rule:nonzero;stroke:none" transform="translate(308.332 339.492)"></path><path d="M0 0s-9.535 11.171-13.71 11.622c-4.174.451 0-4.57 0-4.57S-5.078-.846.564-1.975 0 0 0 0" style="fill:#56595a;fill-opacity:1;fill-rule:nonzero;stroke:none" transform="translate(443.904 318.04)"></path></g><path d="M222.05 714.424c-49.522-26.286-177.089-67.177-193.156-68.64 0 0 41.938-249.79 75.301-349.32 2.69-7.998 7.871-25.202 12.331-32.388 9.605-15.472 33.886-44.574 72.088-78.136a255 255 0 0 0 10.976-10.237c10.002-9.874 31.884-31.377 52.826-51.218l45.224 42.3c-13.089 8.81-65.877 63.729-68.856 66.347-30.33 26.648-52.844 52.067-55.516 58.223-44.682 102.906-74.687 314.368-74.687 314.368 12.745 1.156 96.244 31.811 136.521 50.768 42.642 20.075 63.297 30.997 63.297 30.997s25.581 18.27 47.535 37.227c-32.425 18.848-48.294 32.641-48.294 32.641s-23.001-15.003-75.59-42.932" style="fill:url(#b);stroke:none" transform="matrix(.36062 0 0 -.36062 -6.49 277.78)"></path><path d="M298.399 687.488s22.765-18.433 61.273-35.06c38.31-16.555 121.501-44.809 137.515-48.889 0 0-24.734-187.903-54.522-282.685-2.004-6.408-18.921-43.924-51.85-72.377 0 0-62.285-56.417-93.175-81.692l-45.224-42.3c19.064-18.072 37.37-34.771 45.224-40.061 6.77 11.988 113.377 101.064 113.377 101.064 41.469 35.819 63.458 66.077 73.532 82.253 4.46 7.168 7.998 14.858 10.689 22.874 33.345 99.53 71.148 355.169 71.148 355.169-16.068 1.463-153.618 43.221-199.185 67.178a532 532 0 0 0-21.267 11.753c-21.954-18.957-47.535-37.227-47.535-37.227" style="fill:url(#c);stroke:none" transform="matrix(.36062 0 0 -.36062 -6.49 277.78)"></path><g clip-path="url(#d)" transform="matrix(.36062 0 0 -.36062 -6.49 277.78)"><path d="M0 0c0-32.605-26.431-59.054-59.035-59.054-32.623 0-59.054 26.449-59.054 59.054 0 20.852 10.814 39.194 27.153 49.684-11.753-9.045-18.722-23.091-18.722-38.852 0-27.297 23.939-49.413 51.236-49.413 27.298 0 49.431 22.116 49.431 49.413 0 17.061-8.647 32.1-21.79 41C-12.439 41.83 0 22.368 0 0" style="fill:#38393b;fill-opacity:1;fill-rule:nonzero;stroke:none" transform="translate(357.867 439.016)"></path></g><path d="m291.769 508.419-15.655 7.336 7.509-15.574-16.257-5.883 16.321-5.702-7.335-15.655 15.573 7.509 5.883-16.257 5.703 16.321 15.655-7.335-7.51 15.573 16.258 5.883-16.321 5.702 7.335 15.655-15.573-7.508-5.883 16.256z" style="fill:url(#e);stroke:none" transform="matrix(.36062 0 0 -.36062 -6.49 277.78)"></path><path d="M138.298 601.427c-14.1 0-25.509-11.41-25.509-25.492v-4.513c0-14.101 11.409-25.511 25.509-25.511h13.071c4.063 0 7.89.94 11.302 2.636l2.239-2.636h11.969l-7.131 7.836a25.33 25.33 0 0 1 7.131 17.675v4.513c0 14.082-11.41 25.492-25.51 25.492zm-16.789-31.595v7.818c0 8.142 6.607 14.75 14.749 14.75h17.152c8.142 0 14.75-6.608 14.75-14.75v-7.818c0-3.863-1.499-7.383-3.918-10.019l-2.943 3.249H150.25l6.481-7.582a13.5 13.5 0 0 0-3.321-.397h-17.152c-8.142 0-14.749 6.608-14.749 14.749" style="fill:url(#f);stroke:none" transform="matrix(.36062 0 0 -.36062 -6.49 277.78)" data-source="https://football-logos.cc"></path><path d="M192.676 601.427v-8.937l29.175-.09c8.142 0 14.75-6.608 14.75-14.75v-2.095H181.23v-4.133c0-1.048.054-2.077.18-3.087 1.535-12.656 12.295-22.424 25.33-22.424h13.089c14.082 0 25.491 11.41 25.491 25.511v4.513c0 14.082-11.409 25.492-25.491 25.492zm-2.636-33.092h46.488c-.758-7.439-7.041-13.252-14.677-13.252H204.7c-7.637 0-13.92 5.813-14.66 13.252" style="fill:url(#g);stroke:none" transform="matrix(.36062 0 0 -.36062 -6.49 277.78)"></path><path d="M248.949 601.427v-55.064h40.242c8.521 0 15.418 6.897 15.418 15.418v1.949c0 5.543-4.478 10.02-10.002 10.02h-1.733c3.249 0 6.174 1.318 8.305 3.431a11.78 11.78 0 0 1 3.43 8.304c0 9.027-6.626 15.942-17.152 15.942zm7.817-9.334h32.443c3.917 0 7.077-3.159 7.077-7.059 0-1.95-.794-3.719-2.076-5.001a7 7 0 0 0-5.001-2.076h-32.443zm0-21.954h31.974c4.151 0 7.528-3.376 7.528-7.527a7.57 7.57 0 0 0-2.203-5.327 7.56 7.56 0 0 0-5.325-2.202h-31.974z" style="fill:url(#h);stroke:none" transform="matrix(.36062 0 0 -.36062 -6.49 277.78)"></path><path d="M319.061 601.652v-8.936l29.174-.09c8.143 0 14.75-6.608 14.75-14.75v-2.095h-55.37v-4.134c0-1.047.054-2.076.181-3.087 1.534-12.656 12.293-22.423 25.328-22.423h13.09c14.081 0 25.491 11.41 25.491 25.51v4.513c0 14.082-11.41 25.492-25.491 25.492zm-2.636-33.092h46.488c-.758-7.438-7.041-13.252-14.678-13.252h-17.15c-7.638 0-13.92 5.814-14.66 13.252" style="fill:url(#i);stroke:none" transform="matrix(.36062 0 0 -.36062 -6.49 277.78)"></path><path d="M374.711 601.427v-55.516h41.831v9.172h-32.805v46.344z" style="fill:url(#j);stroke:none" transform="matrix(.36062 0 0 -.36062 -6.49 277.78)"></path><path d="M429.314 601.652v-8.936l29.175-.09c8.142 0 14.75-6.608 14.75-14.75v-2.095h-55.371v-4.134c0-1.047.055-2.076.181-3.087 1.535-12.656 12.295-22.423 25.33-22.423h13.088c14.082 0 25.492 11.41 25.492 25.51v4.513c0 14.082-11.41 25.492-25.492 25.492zm-2.636-33.092h46.489c-.759-7.438-7.041-13.252-14.678-13.252h-17.151c-7.636 0-13.919 5.814-14.66 13.252" style="fill:url(#k);stroke:none" transform="matrix(.36062 0 0 -.36062 -6.49 277.78)"></path><g clip-path="url(#l)" transform="matrix(.36062 0 0 -.36062 -6.49 277.78)" data-source="https://football-logos.cc"><path d="M0 0v-.415a.463.463 0 0 0-.463-.463h-.801a.463.463 0 0 0-.463.463V0c0 .256.207.463.463.463h.801A.463.463 0 0 0 0 0" style="fill:#db2831;fill-opacity:1;fill-rule:nonzero;stroke:none" transform="translate(483.252 602.548)"></path><path d="M483.252 593.56h-1.727v7.413h1.727z" style="fill:#db2831;fill-opacity:1;fill-rule:nonzero;stroke:none"></path><path d="M0 0h-1.283l-1.992 3.432h-1.298V0H-5.87v7.413h1.297V4.722h.601l2.261 2.691h1.624a.27.27 0 0 0 .2-.453l-2.366-2.609L.355.689A.436.436 0 0 0 0 0" style="fill:#db2831;fill-opacity:1;fill-rule:nonzero;stroke:none" transform="translate(490.545 593.56)"></path><path d="M0 0a6.1 6.1 0 0 1-6.093-6.093A6.1 6.1 0 0 1 0-12.186a6.04 6.04 0 0 1 5.943 4.782c.099.429.15.883.15 1.311s-.051.882-.15 1.314A6.04 6.04 0 0 1 0 0m16.556 0a6.1 6.1 0 0 1-6.094-6.093 6.1 6.1 0 0 1 6.094-6.093 6.1 6.1 0 0 1 6.092 6.093A6.1 6.1 0 0 1 16.556 0m9.83-16.555v4.369H39.57c1.201 0 2.179.977 2.179 2.178v.14a2.186 2.186 0 0 1-2.156 2.178l-12.941.133-.025-.199c-.119-.932-.296-1.473-.676-2.404a11 11 0 0 0-.705-1.356c-1.919-3.156-5.255-5.039-8.926-5.039-3.078 0-5.99 1.347-7.988 3.695l-.172.201-.172-.201A10.48 10.48 0 0 0 0-16.555a10.43 10.43 0 0 0-8.73 4.719c-.032.048-.064.096-.095.157a10.3 10.3 0 0 0-1.53 4.26l-.025.197h-10.002a2.41 2.41 0 0 1-2.41-2.409v-2.555h13.54v-4.369h-17.892v7.682a4.963 4.963 0 0 0 4.956 4.956h8.179c.632 0 1.146.514 1.146 1.146A2.774 2.774 0 0 1-15.634 0h-11.51v4.369h12.322A5.556 5.556 0 0 0-9.305-.522l.076-.644.34.552C-6.968 2.506-3.645 4.369 0 4.369c3.078 0 5.99-1.347 7.988-3.694L8.16.474l.172.201a10.48 10.48 0 0 0 7.988 3.694c4.209 0 7.991-2.511 9.632-6.397l.434-1.027v4.927a2.5 2.5 0 0 0 2.497 2.497h15.123V0H31.685c-.912 0-1.477-.691-1.477-1.805-.004-.024-.116-1.167.418-1.759q.318-.353.822-.353h8.016c2.192-.067 3.968-.762 5.128-2.01 1.071-1.151 1.597-2.731 1.52-4.57a6.2 6.2 0 0 0-1.84-4.191 6.28 6.28 0 0 0-4.463-1.867z" style="fill:#fff;fill-opacity:1;fill-rule:nonzero;stroke:none" transform="translate(288.956 228.844)"></path><path d="M0 0a5.88 5.88 0 0 0-5.867 5.867A5.88 5.88 0 0 0 0 11.735a5.85 5.85 0 0 0 5.723-4.604c.09-.397.144-.83.144-1.264 0-.433-.054-.866-.144-1.263A5.85 5.85 0 0 0 0 0m16.555 0a5.88 5.88 0 0 0-5.867 5.867c0 3.232 2.636 5.868 5.867 5.868a5.88 5.88 0 0 0 5.868-5.868C22.423 2.636 19.787 0 16.555 0m27.676 16.555H28.883a2.723 2.723 0 0 1-2.723-2.723V10.02c-1.625 3.845-5.416 6.535-9.84 6.535a10.69 10.69 0 0 1-8.16-3.773A10.69 10.69 0 0 1 0 16.555c-3.827 0-7.203-2.04-9.081-5.091a5.767 5.767 0 0 1-5.741 5.091h-12.547v-4.82h11.734a2.546 2.546 0 0 0 2.546-2.546.92.92 0 0 0-.921-.92h-8.178a5.18 5.18 0 0 1-5.181-5.182V-4.82h18.342V0h-13.54v2.329c0 1.206.978 2.184 2.184 2.184h9.803A10.5 10.5 0 0 1-9.027.181c.036-.073.072-.127.108-.181C-7.005-2.907-3.719-4.82 0-4.82c3.268 0 6.192 1.462 8.16 3.773a10.69 10.69 0 0 1 8.16-3.773c3.864 0 7.24 2.058 9.118 5.145.27.433.505.903.722 1.39.361.885.564 1.469.691 2.462l12.74-.133a1.95 1.95 0 0 0 1.932-1.952v-.139A1.95 1.95 0 0 0 39.571 0H26.16v-4.82h13.648c1.806 0 3.43.74 4.622 1.931a6.45 6.45 0 0 1 1.908 4.342c.156 3.745-2.138 6.671-6.874 6.816h-8.015c-1.212 0-1.015 1.886-1.015 1.886 0 .878.373 1.58 1.25 1.58h12.547ZM0-.451a6.27 6.27 0 0 1 6.163 4.955c.102.448.156.92.156 1.363 0 .444-.054.916-.155 1.361A6.27 6.27 0 0 1 0 12.186a6.326 6.326 0 0 1-6.319-6.319A6.326 6.326 0 0 1 0-.451m16.555 0a6.326 6.326 0 0 1 6.319 6.318 6.326 6.326 0 0 1-6.319 6.319 6.326 6.326 0 0 1-6.319-6.319 6.326 6.326 0 0 1 6.319-6.318M43.78 16.104v-3.918H31.684c-1.049 0-1.701-.778-1.699-1.984-.014-.131-.117-1.302.473-1.957.252-.28.595-.428.994-.428l7.998.001c2.137-.066 3.858-.736 4.976-1.938 1.03-1.106 1.535-2.63 1.461-4.408a6 6 0 0 0-1.776-4.041 6.05 6.05 0 0 0-4.303-1.8H26.611v3.918h12.96a2.407 2.407 0 0 1 2.404 2.404v.139a2.413 2.413 0 0 1-2.38 2.404l-12.74.132-.401.004-.051-.398c-.116-.912-.29-1.439-.656-2.336-.234-.526-.46-.963-.695-1.338-1.877-3.087-5.141-4.929-8.732-4.929A10.25 10.25 0 0 0 8.504-.754l-.344.403-.343-.403A10.25 10.25 0 0 0 0-4.369 10.21 10.21 0 0 0-8.544.251c-.026.04-.053.078-.102.171a10 10 0 0 0-1.486 4.147l-.049.396h-10.202a2.64 2.64 0 0 1-2.635-2.636v-2.78h13.54v-3.918h-17.44v7.456a4.736 4.736 0 0 0 4.73 4.73h8.178c.757 0 1.372.616 1.372 1.372a3 3 0 0 1-2.997 2.997h-11.283v3.918h12.096a5.33 5.33 0 0 0 5.293-4.693l.153-1.287.679 1.104c1.879 3.053 5.131 4.876 8.697 4.876 3.011 0 5.86-1.318 7.817-3.615l.343-.403.344.403a10.25 10.25 0 0 0 7.816 3.615c4.118 0 7.817-2.457 9.424-6.26l.867-2.052v6.04a2.274 2.274 0 0 0 2.272 2.272z" style="fill:#56595a;fill-opacity:1;fill-rule:nonzero;stroke:none" transform="translate(288.956 216.884)"></path></g><!-- source: https://football-logos.cc --></svg>