<svg xmlns="http://www.w3.org/2000/svg" viewBox="27.23 261.15 736.05 614.83"><!-- Source: https://football-logos.cc --><path d="M243.078 338.295c-18.574-.61-33.265-1.503-42.123-2.472l16.318-18.865-27.957-9.344s10.347-19.247 28.328-37.708c0 0 .894 10.258 6.586 22.402 5.12 10.92 15.054 22.263 15.054 22.263s-.91 6.199.228 13.282 3.566 10.442 3.566 10.442" style="fill:#450729;fill-opacity:1;fill-rule:nonzero;stroke:none" transform="matrix(1.33333 0 0 -1.33333 -.667 1121.853)" data-source="https://football-logos.cc"></path><path d="M296.94 190.856c1.897 0 3.418.759 6.117 2.783 2.36 1.77 9.613 9.192 10.457 10.373.843 1.18 1.265.928 1.265.928 0-.422.337-2.699.337-2.699 6.494 4.47 8.518 15.01 8.518 15.01 3.289.929 10.288 3.711 17.288 9.277 6.999 5.566 14.167 14.758 14.167 14.758l3.373-2.951s6.241 6.325 9.108 15.939 1.097 18.89 1.097 18.89l4.386-5.734c-.17 8.348-2.868 18.047-9.783 29.853-6.916 11.806-13.83 18.216-13.83 18.216v8.855l2.277-1.855c-1.012 13.493-7.59 20.155-7.59 20.155l-14.421-14.252c-1.18.843-12.988 7.842-32.765 7.758h.002c-19.777.084-31.585-6.915-32.765-7.758l-14.42 14.252s-6.578-6.662-7.59-20.155l2.277 1.855v-8.855s-6.916-6.41-13.83-18.216c-6.916-11.806-9.614-21.505-9.784-29.853l4.386 5.734s-1.771-9.276 1.096-18.89 9.108-15.939 9.108-15.939l3.373 2.951s7.168-9.192 14.168-14.758 14-8.348 17.289-9.277c0 0 2.023-10.54 8.517-15.01 0 0 .338 2.277.338 2.699 0 0 .42.253 1.264-.928.843-1.181 8.097-8.603 10.457-10.373 2.7-2.024 4.22-2.783 6.116-2.783z" style="fill:#231f20;fill-opacity:1;fill-rule:nonzero;stroke:none" transform="matrix(1.33333 0 0 -1.33333 -.667 1121.853)"></path><path d="M258.613 338.925c9.977.227 21.886.315 33.227.348 0 0-15.011-.88-26.986-6.74z" style="fill:#450729;fill-opacity:1;fill-rule:nonzero;stroke:none" transform="matrix(1.33333 0 0 -1.33333 -.667 1121.853)"></path><path d="M223.821 479.43c-33.099-1.754-56.32-4.429-73.237-6.23-27.324-2.91-49.208-6.83-49.208-6.83 0-34.029 4.427-74.003 4.427-74.003l-84.88-22.39 47.521-31.961-9.108-59.876 139.317 46.72-20.071 22.77s42.503 5.228 118.361 5.228h-.002c75.858 0 118.362-5.229 118.362-5.229l-20.071-22.77 139.317-46.72-9.109 59.877 47.522 31.962-84.88 22.39s4.427 39.973 4.427 74.002c0 0-21.885 3.92-49.208 6.83-16.896 1.799-40.082 4.469-73.116 6.225l-1.12.077c16.473 17.632 26.555 41.312 26.555 67.345 0 54.495-44.18 98.677-98.677 98.677s-98.678-44.182-98.678-98.677c0-26.032 10.08-49.71 26.55-67.342z" style="fill:#450729;fill-opacity:1;fill-rule:nonzero;stroke:none" transform="matrix(1.33333 0 0 -1.33333 -.667 1121.853)"></path><path d="M206.527 490.132c-11.584 16.869-18.341 37.159-18.341 58.99q.001 4.269.34 8.453s-22.51-6.831-35.413-14.801c0 0-4.3-36.179-6.325-58.063 0 0 19.355 2.403 35.546 3.669 16.192 1.265 24.193 1.752 24.193 1.752M387.357 490.132c11.584 16.869 18.341 37.159 18.341 58.99q0 4.269-.34 8.453s22.51-6.831 35.413-14.801c0 0 4.301-36.179 6.326-58.063 0 0-19.355 2.403-35.547 3.669-16.192 1.265-24.193 1.752-24.193 1.752M350.806 338.295c18.575-.61 33.265-1.503 42.124-2.472l-16.318-18.865 27.956-9.344s-10.347-19.247-28.327-37.708c0 0-.894 10.258-6.587 22.402-5.119 10.92-15.053 22.263-15.053 22.263s.91 6.199-.228 13.282c-1.14 7.084-3.567 10.442-3.567 10.442" style="fill:#450729;fill-opacity:1;fill-rule:nonzero;stroke:none" transform="matrix(1.33333 0 0 -1.33333 -.667 1121.853)"></path><path d="m273.202 323.426-3.12 1.433s3.964 2.784 14.337 5.65l1.083.43c-8.189-1.105-14.75-3.323-17.866-5.91l3.205-3.206s1.308.573 3.072 1.283zM319.972 323.106c1.764-.71 3.071-1.283 3.071-1.283l3.205 3.205c-3.117 2.588-9.677 4.806-17.866 5.911l1.084-.43c10.372-2.866 14.336-5.65 14.336-5.65l-3.12-1.433zM251.003 254.213c-4.973 4.803-11.618 8.325-11.618 8.325-.085 8.096-.616 12.356 3.542 22.854 3.374 8.518 8.35 13.072 8.35 13.072v-.527s-1.962-3.036-3.037-4.618c-1.075-1.581-5.186-7.463-5.756-13.978-.568-6.514.067-11.16 2.214-15.559 2.593-5.313 5.44-8.222 5.44-8.222z" style="fill:#fde6f4;fill-opacity:1;fill-rule:nonzero;stroke:none" transform="matrix(1.33333 0 0 -1.33333 -.667 1121.853)"></path><path d="M335.271 338.925c-9.977.227-21.885.315-33.227.348 0 0 15.012-.88 26.987-6.74z" style="fill:#450729;fill-opacity:1;fill-rule:nonzero;stroke:none" transform="matrix(1.33333 0 0 -1.33333 -.667 1121.853)"></path><path d="M239.638 267.514c-.072-2.529.127-4.618.127-4.618s1.455-.885 2.91-2.086c0 0-.822 1.96-1.709 4.427-.885 2.466-1.265 4.49-1.328 2.277" style="fill:#c6c8c8;fill-opacity:1;fill-rule:nonzero;stroke:none" transform="matrix(1.33333 0 0 -1.33333 -.667 1121.853)"></path><path d="M342.608 297.937s1.962-3.036 3.037-4.618c1.074-1.581 5.186-7.463 5.755-13.978.57-6.514-.066-11.16-2.213-15.559-2.594-5.313-5.44-8.222-5.44-8.222l-.866-1.347c4.973 4.803 11.619 8.325 11.619 8.325.084 8.096.616 12.356-3.542 22.854-3.374 8.518-8.35 13.072-8.35 13.072z" style="fill:#fde6f4;fill-opacity:1;fill-rule:nonzero;stroke:none" transform="matrix(1.33333 0 0 -1.33333 -.667 1121.853)"></path><path d="M354.247 267.514c.071-2.529-.127-4.618-.127-4.618s-1.455-.885-2.91-2.086c0 0 .822 1.96 1.708 4.427s1.265 4.49 1.329 2.277" style="fill:#c6c8c8;fill-opacity:1;fill-rule:nonzero;stroke:none" transform="matrix(1.33333 0 0 -1.33333 -.667 1121.853)"></path><path d="M249.758 307.045s7.97 9.993 12.903 14.357l-12.017 12.966s-3.163-3.036-4.238-6.388l-.275-.422c.254 4.723 4.133 9.024 4.133 9.024l17.035-16.698s-8.855-4.217-17.963-13.746z" style="fill:#901754;fill-opacity:1;fill-rule:nonzero;stroke:none" transform="matrix(1.33333 0 0 -1.33333 -.667 1121.853)"></path><path d="M266.519 230.577s-6.894 2.909-13.851 8.6c-10.114 8.276-13.03 14.802-13.03 14.802-1.201-1.328-3.035-4.238-3.035-4.238-6.009 10.31-5.63 23.402-4.364 32.068 1.264 8.664 4.68 17.14 4.68 17.14l.312 1.204c-4.285-6.556-7.911-13.787-9.736-19.568l4.215 4.47s-2.613-6.325-2.023-17.372 3.29-17.878 6.24-22.517l3.29 3.963s10.373-16.95 29.347-25.13c0 0-.326 2.544-1.362 6.337z" style="fill:#c6c8c8;fill-opacity:1;fill-rule:nonzero;stroke:none" transform="matrix(1.33333 0 0 -1.33333 -.667 1121.853)"></path><path d="M344.127 307.045s-7.97 9.993-12.903 14.357l12.017 12.966s3.162-3.036 4.238-6.388l.274-.422c-.253 4.723-4.133 9.024-4.133 9.024l-17.035-16.698s8.855-4.217 17.963-13.746z" style="fill:#901754;fill-opacity:1;fill-rule:nonzero;stroke:none" transform="matrix(1.33333 0 0 -1.33333 -.667 1121.853)"></path><path d="M326.683 230.336c-1.037-3.793-1.363-6.337-1.363-6.337 18.975 8.18 29.348 25.13 29.348 25.13l3.289-3.963c2.952 4.639 5.65 11.469 6.24 22.517s-2.023 17.372-2.023 17.372l4.216-4.47c-1.826 5.781-5.452 13.012-9.737 19.568l.313-1.205s3.416-8.475 4.68-17.14c1.266-8.665 1.645-21.758-4.364-32.067 0 0-1.834 2.91-3.035 4.238 0 0-2.916-6.526-13.03-14.801-6.957-5.692-13.851-8.601-13.851-8.601zM310.162 205.91s-2.277-.886-4.933-2.088c-2.657-1.202-4.24-2.151-8.288-2.088h.002c-4.047-.063-5.63.886-8.288 2.088-2.655 1.202-4.933 2.087-4.933 2.087l-.898.24c2.611-2.547 5.34-4.456 6.991-5.595 2.446-1.687 5.65-3.33 7.128-3.33h-.002c1.477 0 4.682 1.643 7.128 3.33 1.651 1.139 4.38 3.048 6.991 5.595z" style="fill:#c6c8c8;fill-opacity:1;fill-rule:nonzero;stroke:none" transform="matrix(1.33333 0 0 -1.33333 -.667 1121.853)"></path><path d="M268.922 238.736s2.657-5.124 4.744-8.855 5.124-9.109 5.124-9.109l.517-.7c.345-3.24.828-5.993 1.232-7.205l-.485.506s-1.77 2.53-3.668 6.135c-1.897 3.605-3.922 7.716-3.922 7.716l-.527.738a56.2 56.2 0 0 1-4.818 13.791zM314.578 220.071c-.346-3.239-.829-5.992-1.233-7.204l.485.506s1.771 2.53 3.669 6.135c1.897 3.605 3.92 7.716 3.92 7.716l.528.738a56.2 56.2 0 0 0 4.818 13.791l-1.803-3.017s-2.656-5.124-4.744-8.855a3139 3139 0 0 0-5.123-9.109z" style="fill:#450729;fill-opacity:1;fill-rule:nonzero;stroke:none" transform="matrix(1.33333 0 0 -1.33333 -.667 1121.853)"></path><path d="M272.844 280.227s-4.364.19-7.653 1.454c-3.289 1.266-4.364 4.048-4.807 5.44s1.012 1.392 1.012 1.392c-2.34 3.542-1.408 8.09 2.214 12.966 4.744 6.388 10.056 8.792 13.472 9.614 3.415.822 3.794.126 3.794.126l.17-.358s-6.916-1.603-13.157-8.434c0 0 .684.342 1.726.828l.763-.069s2.972-.19 4.933-1.96 3.479-3.353 3.479-3.353h.4c1.602-4.047 3.542-5.481 3.542-5.481s-2.108 6.578-1.518 12.228l.232-.738s1.265-4.807 5.44-9.55c1.625-1.847 6.704-6.326 10.055-6.326h.002c3.351 0 8.43 4.479 10.056 6.325 4.174 4.744 5.439 9.551 5.439 9.551l.232.738c.59-5.65-1.518-12.228-1.518-12.228s1.94 1.434 3.542 5.481h.4s1.518 1.582 3.48 3.353c1.96 1.77 4.932 1.96 4.932 1.96l.763.069a77 77 0 0 0 1.725-.828c-6.24 6.831-13.155 8.434-13.155 8.434l.169.358s.379.696 3.794-.126 8.729-3.226 13.472-9.614c3.622-4.876 4.554-9.424 2.214-12.966 0 0 1.455 0 1.013-1.391-.443-1.393-1.519-4.175-4.808-5.44s-7.653-1.455-7.653-1.455l-.611.021s1.265.675 4.048 1.433c2.783.76 5.566 2.362 7.253 5.313h-2.615s0 .675 1.18 1.772c1.182 1.096 3.037 4.215 2.277 7.505 0 0-3.12 1.434-6.578 1.096-3.457-.337-5.903-3.288-8.348-5.819-2.446-2.53-7.506-6.408-11.132-7.083 0 0 .59-2.53 3.12-3.458s8.601-3.29 12.144-5.313c3.542-2.024 5.819-3.542 5.734-4.3-.084-.76-1.77-2.532-3.71-4.47-1.94-1.94-5.313-4.723-8.602-5.567 0 0 5.06.169 8.77 2.025s5.735 4.132 6.073 3.541c.336-.59-1.434-2.783-3.88-4.807s-8.349-4.216-13.24-4.975c0 0 5.735-1.012 10.204.422s7.084 3.794 8.012 4.722c.927.928 1.602.675.084-1.18-1.518-1.856-3.795-6.325-13.156-6.832l2.446-2.614s-12.144.085-18.469 4.47c0 0 .168.59 1.434.928 1.265.338 3.264 2.026 3.457 3.964 0 0 .675.084 1.181-.337.506-.423 1.602.252 2.53 1.854s2.108 5.06.338 7.337c0 0-.59-2.023-1.435-3.626-.842-1.603-1.602-2.53-2.276-1.771-.675.759-1.687 1.602-3.541 1.602-1.856 0-2.464-.743-3.29-1.686-.59-.675-1.687-1.434-3.499-1.434h-.002c-1.812 0-2.909.759-3.5 1.434-.824.943-1.432 1.686-3.289 1.686-1.854 0-2.866-.843-3.541-1.602s-1.434.168-2.276 1.77c-.844 1.604-1.435 3.627-1.435 3.627-1.77-2.277-.59-5.735.338-7.337s2.024-2.277 2.53-1.854c.506.42 1.18.337 1.18.337.195-1.938 2.193-3.626 3.458-3.964s1.434-.928 1.434-.928c-6.325-4.385-18.469-4.47-18.469-4.47l2.445 2.614c-9.36.507-11.637 4.976-13.155 6.831s-.843 2.109.084 1.181c.928-.928 3.542-3.288 8.012-4.722s10.204-.422 10.204-.422c-4.891.759-10.795 2.951-13.24 4.975s-4.217 4.217-3.88 4.807c.338.59 2.362-1.686 6.072-3.541 3.711-1.856 8.771-2.025 8.771-2.025-3.29.844-6.662 3.627-8.602 5.566s-3.626 3.711-3.71 4.47 2.192 2.277 5.734 4.3c3.542 2.025 9.614 4.386 12.144 5.314s3.12 3.458 3.12 3.458c-3.626.675-8.686 4.554-11.132 7.083s-4.891 5.482-8.349 5.82c-3.457.337-6.578-1.097-6.578-1.097-.759-3.29 1.097-6.41 2.277-7.505 1.182-1.097 1.182-1.772 1.182-1.772h-2.615c1.687-2.951 4.47-4.553 7.252-5.313 2.783-.758 4.049-1.433 4.049-1.433zM310.162 205.91s-2.277-.886-4.933-2.088c-2.657-1.202-4.24-2.151-8.288-2.088h.002c-4.047-.063-5.63.886-8.288 2.088-2.655 1.202-4.933 2.087-4.933 2.087l-.898.24c-1.255 1.225-2.483 2.598-3.55 4.103 0 0-.675-1.18-1.097-2.108s-1.388-.538-2.446 3.795c-.843 3.457-1.854 6.746-3.794 16.023l.527-.738s2.024-4.111 3.922-7.716c1.897-3.606 3.668-6.135 3.668-6.135l.484-.506c.591-1.772 3.037-4.301 5.145-4.555 2.093-.25 4.048.57 11.26.591h-.002c7.212-.021 9.166-.841 11.26-.59 2.108.253 4.554 2.782 5.144 4.554l.485.506s1.771 2.53 3.669 6.135c1.897 3.605 3.92 7.716 3.92 7.716l.528.738c-1.94-9.277-2.95-12.566-3.795-16.023-1.057-4.333-2.024-4.723-2.445-3.795-.422.927-1.097 2.108-1.097 2.108-1.067-1.505-2.295-2.878-3.55-4.103z" style="fill:#fde6f4;fill-opacity:1;fill-rule:nonzero;stroke:none" transform="matrix(1.33333 0 0 -1.33333 -.667 1121.853)" data-source="https://football-logos.cc"></path><path d="M269.615 303.255c2.064.963 5.535 2.491 7.888 3.052 0 0 .084-4.385 1.687-8.433h-.4s-1.519 1.581-3.48 3.352c-1.96 1.77-4.932 1.96-4.932 1.96z" style="fill:#901754;fill-opacity:1;fill-rule:nonzero;stroke:none" transform="matrix(1.33333 0 0 -1.33333 -.667 1121.853)"></path><path d="M254.565 261.188c-4.638 3.965-9.95 4.977-9.95 4.977s-.339 4.554.505 9.191c.843 4.64 3.71 8.012 3.71 8.012-.59.253-2.783 0-2.783 0 4.892 5.06 12.65 7.843 12.65 7.843l-.4-.611s-2.214-2.594-3.163-3.858c-1.478-1.971-3.858-6.01-4.238-10.879-.38-4.87 1.708-10.057 3.163-13.409zm24.742-41.117c-.16 1.493-.29 3.09-.37 4.686-.253 5.06-.422 5.904-3.374 10.542s-11.551 17.232-14.42 21.589c-2.277 3.458-3.458 4.89-3.458 5.987s1.35 5.988 4.891 9.783c0 0-.758-.084-1.77-.084 0 0 1.601 3.626 12.65 7.674l-.612-.021s-4.364.19-7.653 1.454c-3.289 1.266-4.364 4.048-4.807 5.44s1.012 1.392 1.012 1.392l-.57.38c-2.972 4.426-3.035 10.309.19 16.443 3.226 6.136 8.349 10.816 11.575 13.79a619 619 0 0 0 6.199 5.628l-.443.021s-10.795-6.662-18.385-13.83-10.288-11.217-11.216-13.24l2.53.759v-.527s-1.961-3.036-3.036-4.618c-1.075-1.581-5.186-7.463-5.756-13.978-.568-6.514.067-11.16 2.214-15.559 2.593-5.313 5.44-8.222 5.44-8.222l.865-1.347a29 29 0 0 0 1.791-1.879l1.012 5.735s4.566-2.631 8.433-8.18c1.679-2.41 3.358-5.103 4.88-8.136l1.803-3.017s2.657-5.124 4.744-8.855 5.124-9.109 5.124-9.109zM314.694 297.874c1.603 4.048 1.687 8.433 1.687 8.433 2.354-.56 5.824-2.09 7.889-3.052l-.763-.069s-2.972-.19-4.933-1.96-3.48-3.353-3.48-3.353z" style="fill:#901754;fill-opacity:1;fill-rule:nonzero;stroke:none" transform="matrix(1.33333 0 0 -1.33333 -.667 1121.853)"></path><path d="M314.578 220.071c.16 1.493.29 3.09.37 4.686.252 5.06.421 5.904 3.373 10.542s11.552 17.232 14.42 21.589c2.278 3.458 3.458 4.89 3.458 5.987s-1.349 5.988-4.89 9.783c0 0 .758-.084 1.77-.084 0 0-1.602 3.626-12.65 7.674l.611-.021s4.365.19 7.654 1.454c3.288 1.266 4.364 4.048 4.807 5.44.442 1.392-1.012 1.392-1.012 1.392l.57.38c2.971 4.426 3.035 10.309-.19 16.443-3.226 6.136-8.35 10.816-11.576 13.79-3.225 2.972-6.198 5.628-6.198 5.628l.443.021s10.794-6.662 18.384-13.83 10.289-11.217 11.216-13.24l-2.53.759v-.527s1.962-3.036 3.037-4.618c1.074-1.581 5.186-7.463 5.755-13.978.57-6.514-.066-11.16-2.213-15.559-2.594-5.313-5.44-8.222-5.44-8.222l-.866-1.347a29 29 0 0 1-1.79-1.879l-1.012 5.735s-4.566-2.631-8.433-8.18c-1.68-2.41-3.359-5.103-4.88-8.136l-1.804-3.017s-2.656-5.124-4.744-8.855a3139 3139 0 0 0-5.123-9.109zm24.742 41.116c4.638 3.965 9.95 4.977 9.95 4.977s.338 4.554-.505 9.191c-.844 4.64-3.711 8.012-3.711 8.012.59.253 2.783 0 2.783 0-4.891 5.06-12.65 7.843-12.65 7.843l.4-.611s2.215-2.594 3.163-3.858c1.478-1.972 3.858-6.01 4.238-10.879.38-4.87-1.707-10.057-3.162-13.409z" style="fill:#901754;fill-opacity:1;fill-rule:nonzero;stroke:none" transform="matrix(1.33333 0 0 -1.33333 -.667 1121.853)"></path><path d="M296.943 249.298c4.765 0 6.536.253 8.053.59 1.224.272 1.94.591 4.723.085s4.975-.928 4.975-.928c-.422-5.313-2.614-9.107-3.879-10.878s-2.445-2.277-2.445-1.519v7.928c0 1.602-.59 1.686-1.603.758s-4.3-1.77-9.824-1.854h-.002c-5.523.084-8.812.926-9.823 1.854-1.013.928-1.603.844-1.603-.758v-7.928c0-.758-1.18-.253-2.445 1.519-1.265 1.77-3.457 5.565-3.88 10.878 0 0 2.193.422 4.976.928s3.498.187 4.723-.084c1.517-.338 3.289-.591 8.052-.591zM296.943 211.854c6.789-.084 10.752 1.855 12.017 3.037 1.265 1.18 1.686 1.855.843 4.047-.843 2.193-2.277 4.47-2.699 4.47s-.26-.856-.59-2.614c-.506-2.698-1.432-3.879-9.57-3.879h-.003c-8.138 0-9.064 1.18-9.57 3.879-.33 1.758-.169 2.614-.59 2.614-.422 0-1.856-2.277-2.7-4.47-.843-2.192-.42-2.867.844-4.047 1.265-1.182 5.228-3.121 12.016-3.037zM271.685 291.127c-1.147.97-2.109-.421-2.025-1.772.085-1.349.506-4.047 3.205-4.3s4.048.927 3.964 1.433-.59 1.097-1.603 1.772c-1.012.674-2.446 1.94-3.541 2.867" style="fill:#fff;fill-opacity:1;fill-rule:nonzero;stroke:none" transform="matrix(1.33333 0 0 -1.33333 -.667 1121.853)"></path><path d="M254.06 262.454c-1.456 3.352-3.543 8.539-3.164 13.41.38 4.869 2.76 8.907 4.238 10.878.949 1.264 3.162 3.858 3.162 3.858l.401.61c-7.337-5.228-9.95-13.83-10.288-17.709-.338-3.88.169-4.722 2.53-7.42 2.36-2.7 3.626-4.893 3.626-4.893z" style="fill:#fde6f4;fill-opacity:1;fill-rule:nonzero;stroke:none" transform="matrix(1.33333 0 0 -1.33333 -.667 1121.853)"></path><path d="M281.446 303.882s1.265-4.807 5.44-9.55c1.625-1.847 6.704-6.326 10.055-6.326h.002c3.351 0 8.43 4.479 10.056 6.326 4.174 4.743 5.439 9.55 5.439 9.55l.232.738c-.413 3.956-.168 5.65.169 6.24l.169.36s.379.695 3.794-.127 8.729-3.226 13.472-9.614c3.622-4.876 4.554-9.424 2.214-12.966l.57.38c2.972 4.426 3.036 10.309-.19 16.443-3.226 6.136-8.349 10.816-11.575 13.79-3.226 2.972-6.199 5.628-6.199 5.628l.443.021a92 92 0 0 0 4.435-1.669l.71.32 3.12 1.433s-3.964 2.784-14.337 5.65l-1.084.43a86 86 0 0 1-11.438.751h-.002c-4.02 0-7.883-.27-11.439-.75l-1.083-.43c-10.373-2.867-14.337-5.65-14.337-5.65l3.12-1.434.71-.32c1.34.54 2.942 1.16 4.435 1.67l.443-.022s-2.974-2.656-6.2-5.629-8.348-7.653-11.574-13.789c-3.225-6.134-3.162-12.017-.19-16.444l.57-.38c-2.34 3.543-1.408 8.091 2.214 12.967 4.744 6.388 10.056 8.792 13.472 9.614 3.415.822 3.794.126 3.794.126l.17-.358c.336-.59.58-2.285.168-6.24z" style="fill:#450729;fill-opacity:1;fill-rule:nonzero;stroke:none" transform="matrix(1.33333 0 0 -1.33333 -.667 1121.853)"></path><path d="M322.2 291.127c1.147.97 2.109-.421 2.025-1.772-.085-1.349-.507-4.047-3.205-4.3-2.7-.253-4.048.927-3.964 1.433s.59 1.097 1.602 1.772c1.012.674 2.446 1.94 3.542 2.867" style="fill:#fff;fill-opacity:1;fill-rule:nonzero;stroke:none" transform="matrix(1.33333 0 0 -1.33333 -.667 1121.853)"></path><path d="M335.588 290.6s2.214-2.594 3.162-3.858c1.478-1.971 3.858-6.01 4.238-10.879.38-4.87-1.707-10.057-3.162-13.409l-.506-1.266s1.264 2.194 3.626 4.892c2.36 2.699 2.867 3.542 2.53 7.421s-2.952 12.481-10.289 17.71z" style="fill:#fde6f4;fill-opacity:1;fill-rule:nonzero;stroke:none" transform="matrix(1.33333 0 0 -1.33333 -.667 1121.853)"></path><path d="m176.136 329.877-87.157-19.1 7.843 35.798-29.601 20.24-12.144-2.53 30.74-21.631-6.578-43.136zM417.748 336.456l87.158-19.102-7.844 35.8 29.601 20.239 12.145-2.53-30.74-21.631 6.578-43.136zM189.372 564.796c-7.894-2.554-15.925-5.329-22.53-7.982-9.208-3.7-17.558-7.874-23.337-10.952-1.91-14.116-5.394-41.47-7.299-66.457 0 0-3.458-.385-9.91-1.272-6.452-.885-10.207-1.511-10.207-1.511 2.233 32.081 7.288 68.934 8.724 79.06.247 1.743 1.346 3.273 3.08 4.261 5.202 2.965 17.378 9.606 31.545 15.299 10.67 4.287 24.588 8.795 36.136 12.313 0 0-2.614-6.073-4.343-13.325-1.728-7.253-1.859-9.434-1.859-9.434M404.512 564.796c7.894-2.554 15.925-5.329 22.53-7.982 9.208-3.7 17.56-7.874 23.337-10.952 1.911-14.116 5.394-41.47 7.3-66.457 0 0 3.458-.385 9.91-1.272 6.451-.885 10.206-1.511 10.206-1.511-2.233 32.081-7.288 68.934-8.723 79.06-.247 1.743-1.346 3.273-3.08 4.261-5.202 2.965-17.378 9.606-31.546 15.299-10.67 4.287-24.588 8.795-36.136 12.313 0 0 2.614-6.073 4.343-13.325 1.728-7.253 1.86-9.434 1.86-9.434M235.084 233.36c-1.494 1.494-2.544 2.744-3.263 3.698l-.328.466c-11.346 7.983-23.119 18.236-33.608 31.349a321 321 0 0 0-23.825 34.114l-19.216-6.57c6.114-10.432 15.252-24.6 27.532-39.951 32.384-40.48 75.056-56.333 88.549-61.731 13.494-5.397 26.018-10.33 26.018-10.33h-.002s12.525 4.933 26.018 10.33 56.166 21.251 88.55 61.73c12.28 15.352 21.418 29.52 27.532 39.952l-19.216 6.57A321 321 0 0 0 396 268.873c-10.33-12.911-21.902-23.051-33.087-30.98l-.434-.264c-.706-1.002-1.865-2.457-3.679-4.27l-.788 1.162-.3-.182a190 190 0 0 0-9.798-6.027l-.648-.37c-8.272-9.377-21.102-13.473-21.102-13.473s-1.181-5.82-4.302-10.204c-3.12-4.386-9.107-7.928-9.107-7.928l-.127 1.476c-8.981-9.234-11.891-10.246-15.687-10.33h.002c-3.796.084-6.706 1.096-15.688 10.33l-.126-1.476s-5.987 3.542-9.107 7.928c-3.121 4.385-4.302 10.204-4.302 10.204s-12.787 4.083-21.06 13.426l-.475.295a189 189 0 0 0-10.286 6.329z" style="fill:#901754;fill-opacity:1;fill-rule:nonzero;stroke:none" transform="matrix(1.33333 0 0 -1.33333 -.667 1121.853)"></path><path d="M224.695 388.027c.026-.4.043-.801.037-1.194-.024-1.85-.516-3.538-2.56-4.337l-.196-.077.048-.722 15.09 1.026-.045.66-.128.078c-3.036 1.832-3.536 3.735-4.224 7.222l-7.475 36.596c-.051.794-.085 3.56 1.848 4.27l.202.074-.05.727-13.79-.99c-.065-1.485-.252-3.067-1.643-6.925s-9.74-30.36-9.74-30.36-14.042 25.237-16.319 29.474c-2.277 4.239-2.475 5.376-2.475 5.376l-13.97-1.265.063-.758c2.278-.19 2.784-1.835 2.847-5.757l-.938-32.875c-.238-3.983-.444-7.423-3.19-10.301l-.09-.094.055-.64 12.814 1.112-.06.696-.176.061c-2.584.896-3.339 3.486-3.355 6.37-.005.884.985 32.874 1.075 34.85 0 0 .885-1.455 3.668-6.515s13.22-23.845 14.99-27.007c1.771-3.162 4.49-6.705 7.147-6.895 0 0 9.741 31.056 11.638 37.002 1.897 5.945 2.277 6.577 2.277 6.577zM276.006 383.133c10.563 1.076 17.882 7.572 17.71 15.812-.16 7.68-5.819 10.12-15.014 14.042-5.9 2.515-12.042 4.958-12.12 9.55-.082 4.852 5.583 6.692 9.936 6.766 4.303.073 9.292-1.515 11.822-4.046l.696-.19v8.602s-4.112 1.392-12.017 1.645c-6.8-.115-13.127-1.946-16.382-5.313-2.152-2.227-3.542-4.595-3.542-7.843 0-9.361 8.601-12.713 16.192-15.75 6.609-2.643 11.313-4.997 11.385-10.309.063-4.68-6.607-7.199-11.006-7.273-5.737-.098-10.625 1.391-15.875 5.06l-.759.063 2.403-9.235c3.846-1.342 8.114-1.912 12.65-1.857l-1.518-3.898 2.214-2.657s3.922.633 4.174-1.201c.305-2.216-2.276-2.53-4.048-2.024-1.77.506-3.542 1.96-3.542 1.96l-2.34-3.352s2.467-2.657 7.654-2.593c5.186.063 7.336 2.403 7.336 5.82 0 3.414-2.213 4.742-7.463 4.363zM299.59 433.772l.192-.071c3.374-1.257 3.283-5.822 3.217-9.157l-.255-30.408c.012-3.34.027-7.91-3.364-9.05l-.197-.066-.005-.716 32.249-.245 4.336 10.57-.852-.062c-4.041-3.26-8.586-4.75-13.507-4.43l-10.225.738.27 33.717c-.024 3.295-.402 7.75 3.296 8.995l.191.068.006.713-15.344.116-.006-.712zM395.54 381.597l-.048-.71-15.366.959.048.715s1.585.572 2.391 1.518c1.448 1.86 1.523 5.475 1.66 7.909l2.025 29.284c.316 5.376.063 6.958-.57 8.097-.632 1.138-2.163 1.843-2.163 1.843l.049.711 25.307-1.578c2.448-.163 4.168-.319 4.168-.319l-.576-8.867-.665.041-.082.102c-2.232 2.771-5.024 3.303-8.391 3.512-2.528.159-5.756.38-8.602.253-.033-.473-.817-13.205-.853-13.745.557-.034 9.49-.656 9.49-.656 1.157-.072 2.352-.147 3.256.22l.667-.011-.588-8.549-.714-.029c-.958 2.043-3.894 2.442-6.197 2.578 0 0-5.79.425-6.326.459-.038-.549-.877-17.033-.949-18.216-.19-3.163.998-4.717 3.03-5.521M417.273 428.707l.179-.088c3.17-1.546 2.678-6.055 2.318-9.347l-2.947-30.244c-.285-3.331-.677-7.893-4.086-8.798l-.193-.05-.068-.71 14.978-1.46.069.71-.18.087c-3.168 1.545-2.673 6.084-2.312 9.399l2.948 30.267c.286 3.327.677 7.882 4.075 8.721l.196.05.07.712-14.978 1.459zm32.353-45.257s-13.244 21.073-13.472 21.442c.3.316 20.701 20.224 20.701 20.224l.045.458-14.456 1.4-.068-.695.162-.092c1.103-.629 1.388-.967 1.522-1.815.3-1.893-.506-3.035-3.352-6.135l-13.535-13.787 15.18-24.478c1.284-2.112 3.875-3.882 7.526-4.238l7.653-.822-.063.696s-3.542 1.075-7.843 7.842M159.707 426.492l.087-.706-.175-.092c-3.06-1.613-2.45-6.144-2.005-9.452l3.591-29.202.114-.992c.364-3.286.863-7.786 4.22-8.612l.192-.047.087-.706-14.787-1.814-.088.71.181.09c3.062 1.547 2.453 6.07 2.009 9.374l-.13.99-3.588 29.344c-.372 3.448-.834 7.739-4.215 8.547l-.193.046-.087.707zm-7.943 14.165a5.07 5.07 0 1 1 0-10.14 5.07 5.07 0 0 1 0 10.14M251.966 433.605l.032-.709-.182-.078c-3.175-1.372-2.916-5.937-2.728-9.27l1.326-29.39.037-1c.109-3.304.258-7.829 3.542-8.911l.189-.061.031-.712-14.883-.667-.033.714.187.077c3.173 1.306 2.914 5.863 2.726 9.191l-.052.998-1.313 29.533c-.103 3.466-.233 7.78-3.54 8.846l-.19.061-.033.712zm-6.826 14.738a5.07 5.07 0 1 1-.784-10.107 5.07 5.07 0 0 1 .784 10.107M355.526 433.547l-.022-.71-.187-.065c-3.267-1.132-3.35-5.702-3.41-9.04l-.866-29.409-.038-.997c-.137-3.304-.325-7.828 2.87-9.152l.183-.076-.022-.71-14.891.442.021.714.191.063c3.262 1.066 3.343 5.63 3.404 8.963l.021.999.89 29.55c.155 3.463.347 7.774-2.873 9.084l-.184.075.02.712zm-5.71 15.204a5.07 5.07 0 1 1-1.533-10.022 5.07 5.07 0 0 1 1.533 10.022M337.295 490.53l-17.837 28.842-47.057-.253-16.065-27.83 10.373-10.34c9.47.18 19.534.275 30.234.262h-.002c11.082.013 21.481-.09 31.245-.281zM338.939 480.676q-1.257.036-2.53.068l5.187 9.407 7.717 1.392zM257.981 480.757l-2.026-.053-10.877 9.194 6.45-.253zM298.08 618.42l.506-23.023 37.19-28.083 28.716 10.247 1.175 30.898c-10.013 11.161-22.705 19.87-37.064 25.114zM377.067 500.999c7.645 13.33 12.058 28.75 12.173 45.19l-23.357 27.577-29.094-10.12-13.915-41.744 18.09-29.348ZM254.691 564.026l-30.233 6.83-19.811-24.92c.186-19.293 6.293-37.17 16.59-51.904l31.178-.972 16.824 28.463zM294.159 594.512l-37.815-26.692-30.115 6.958 1.45 33.075c9.584 10.874 21.69 19.473 35.402 24.884l30.698-14.444zM266.203 562.888l30.107 20.239s24.54-13.535 32.89-17.077l-32.258 24.287-37.191-25.552 13.992-38.682s-2.986 16.797-7.54 36.785M222.688 585.53l-14.168-28.083 13.788 17.457zM295.93 623.1l20.872 9.614-28.336-6.45zM369.172 586.29v-9.994l15.433-17.963z" style="fill:#fff;fill-opacity:1;fill-rule:nonzero;stroke:none" transform="matrix(1.33333 0 0 -1.33333 -.667 1121.853)"></path><path d="M359.812 585.024v-4.047l-21.631-7.337-11.006 8.349s17.204 3.541 32.637 3.035M252.92 544.292l8.476-24.161-13.282-22.897-24.668.507-3.289 6.45s11.006 20.873 32.764 40.101M365.63 564.152l-22.01-7.59-12.144-36.305 14.168-23.023 29.094 7.21s4.302 7.591 7.084 18.47 2.403 19.228 2.403 19.228zM276.196 509.631l40.733.127 12.776-21.505-3.542-3.921-57.05.126-4.555 4.681z" style="fill:#c6c8c8;fill-opacity:1;fill-rule:nonzero;stroke:none" transform="matrix(1.33333 0 0 -1.33333 -.667 1121.853)"></path><path d="M266.519 230.577s-6.894 2.909-13.851 8.6c-10.114 8.276-13.03 14.802-13.03 14.802-1.201-1.328-3.035-4.238-3.035-4.238-6.009 10.31-5.63 23.402-4.364 32.068 1.264 8.664 4.68 17.14 4.68 17.14l.312 1.204a89 89 0 0 0 5.19 7.165c6.41 7.928 16.783 15.434 16.783 15.434l-7.169 7.168c-2.445-3.542-4.386-8.518-4.386-8.518-.59 3.458.844 6.156.844 6.156h-2.362l.275.422c1.075 3.352 4.238 6.388 4.238 6.388l12.017-12.966c-4.933-4.364-12.903-14.357-12.903-14.357l-.422-.907c-7.298-7.637-11.89-16.445-11.89-16.445 1.433.928 5.228 2.615 5.228 2.615s-3.12-4.302-5.482-14.253c-1.443-6.084-1.18-18.131-1.18-18.131 10.204-3.627 18.3-13.071 18.3-13.071 1.012 1.686 1.603 4.385 1.603 4.385s4.3-3.457 8.011-11.722a63.6 63.6 0 0 0 3.276-9.18zM326.683 230.336a63.3 63.3 0 0 0 3.275 9.18c3.711 8.265 8.012 11.722 8.012 11.722s.59-2.699 1.602-4.385c0 0 8.096 9.444 18.3 13.07 0 0 .263 12.048-1.18 18.132-2.361 9.951-5.482 14.253-5.482 14.253s3.795-1.687 5.228-2.615c0 0-4.592 8.808-11.89 16.445l-.421.907s-7.97 9.993-12.903 14.357l12.017 12.966s3.162-3.036 4.238-6.388l.274-.422h-2.361s1.433-2.698.843-6.156c0 0-1.94 4.976-4.385 8.518l-7.17-7.168s10.374-7.506 16.783-15.434a88 88 0 0 0 5.19-7.165l.313-1.205s3.416-8.475 4.68-17.14c1.266-8.665 1.645-21.758-4.364-32.067 0 0-1.834 2.91-3.035 4.238 0 0-2.916-6.526-13.03-14.801-6.957-5.692-13.851-8.601-13.851-8.601z" style="fill:#fde6f4;fill-opacity:1;fill-rule:nonzero;stroke:none" transform="matrix(1.33333 0 0 -1.33333 -.667 1121.853)"></path><path d="M296.943 321.317c7.653.022 13.282-.863 18.785-4.469 3.346-2.192 3.621-3.05 1.708-2.34-9.045 3.352-15.812 1.708-17.457.822-1.645-.885-2.34-2.466-3.036-2.467h-.002c-.695 0-1.39 1.582-3.034 2.467-1.645.886-8.412 2.53-17.457-.822-1.915-.71-1.639.148 1.708 2.34 5.502 3.606 11.131 4.49 18.783 4.47z" style="fill:#901754;fill-opacity:1;fill-rule:nonzero;stroke:none" transform="matrix(1.33333 0 0 -1.33333 -.667 1121.853)"></path><path d="M290.744 279.49s-4.218.505-6.241-1.603c0 0 1.602-.928 2.951-1.012 0 0-.421-5.06 2.783-7.422 0 0-1.433 5.06.507 10.036M278.262 275.272s-2.361-.337-4.638-1.602-3.037-2.277-2.361-3.289 5.06-4.216 7.674-5.566c0 0-1.603 1.518-3.036 3.626-1.434 2.109-2.024 2.615-.843 3.964 1.18 1.349 3.204 2.867 3.204 2.867M303.141 279.49s4.216.505 6.24-1.603c0 0-1.602-.928-2.95-1.012 0 0 .42-5.06-2.784-7.422 0 0 1.434 5.06-.506 10.036M315.623 275.272s2.36-.337 4.637-1.602c2.278-1.265 3.036-2.277 2.362-3.289-.675-1.012-5.061-4.216-7.674-5.566 0 0 1.602 1.518 3.035 3.626 1.434 2.109 2.024 2.615.844 3.964s-3.204 2.867-3.204 2.867" style="fill:#231f20;fill-opacity:1;fill-rule:nonzero;stroke:none" transform="matrix(1.33333 0 0 -1.33333 -.667 1121.853)"></path><path d="M276.07 272.51c-1.014-1.013-1.139-1.644-.38-2.719.76-1.075 1.518-1.898.886-.316-.633 1.58-.57 2.024-.19 2.846s.253.76-.316.19M283.913 260.873c-.908 1.186-1.202.506-.38-1.012s1.391-1.708 1.961-1.455c.569.253 1.075-.696 1.77-1.391s.95-1.518 2.215-1.265c1.265.252 1.707.316.505.885-1.2.57-2.024 1.075-2.72 2.15-.695 1.076-.885 1.076-1.327 1.012-.443-.063-1.202 0-2.024 1.076M266.582 264.541c-.83.593-.886-.063.759-1.328 1.644-1.265 3.479-1.898 4.934-2.214 1.454-.315 2.34.126-.19.949-2.53.822-4.174 1.644-5.503 2.593M265.696 259.291c-1.298.808-1.327.19.127-.885 1.455-1.075 2.72-1.898 4.807-2.404 2.088-.505 5.123-.189 2.277.506-2.846.697-4.87 1.328-7.21 2.783M317.814 272.51c1.015-1.013 1.14-1.644.38-2.719-.758-1.075-1.518-1.898-.885-.316.632 1.58.569 2.024.19 2.846-.38.822-.253.76.315.19M309.972 260.873c.907 1.186 1.202.506.38-1.012-.823-1.518-1.392-1.708-1.961-1.455s-1.076-.696-1.77-1.391c-.697-.696-.95-1.518-2.215-1.265-1.265.252-1.708.316-.506.885 1.202.57 2.024 1.075 2.72 2.15.695 1.076.885 1.076 1.328 1.012.443-.063 1.201 0 2.024 1.076M327.302 264.541c.83.593.886-.063-.759-1.328-1.644-1.265-3.479-1.898-4.933-2.214-1.455-.315-2.34.126.19.949 2.53.822 4.174 1.644 5.502 2.593M328.188 259.291c1.299.808 1.328.19-.126-.885-1.456-1.075-2.72-1.898-4.808-2.404-2.087-.505-5.123-.189-2.277.506 2.847.697 4.87 1.328 7.211 2.783" style="fill:#c6c8c8;fill-opacity:1;fill-rule:nonzero;stroke:none" transform="matrix(1.33333 0 0 -1.33333 -.667 1121.853)" data-source="https://football-logos.cc"></path><!-- source: https://football-logos.cc --></svg>