<svg xmlns="http://www.w3.org/2000/svg" viewBox="282.29 9.06 509.92 597.76"><!-- Source: https://football-logos.cc --><defs data-source="https://football-logos.cc"><clipPath id="a" clipPathUnits="userSpaceOnUse"><path d="M-402.933 593.204h800v-600h-800Z"></path></clipPath><clipPath id="b" clipPathUnits="userSpaceOnUse"><path d="M-496.78 481.752h800v-600h-800Z"></path></clipPath><clipPath id="c" clipPathUnits="userSpaceOnUse"><path d="M-441.728 467.158h800v-600h-800Z"></path></clipPath><clipPath id="d" clipPathUnits="userSpaceOnUse"><path d="M-448.89 458.496h800v-600h-800Z"></path></clipPath><clipPath id="e" clipPathUnits="userSpaceOnUse"><path d="M-291.176 421.256h800v-600h-800Z"></path></clipPath><clipPath id="f" clipPathUnits="userSpaceOnUse"><path d="M-394.397 409.807h800v-600h-800Z"></path></clipPath><clipPath id="g" clipPathUnits="userSpaceOnUse"><path d="M-380.035 396.879h800v-600h-800Z"></path></clipPath><clipPath id="h" clipPathUnits="userSpaceOnUse"><path d="M-357.106 392.59h800v-600h-800Z"></path></clipPath><clipPath id="i" clipPathUnits="userSpaceOnUse"><path d="M-407.098 374.933h800v-600h-800Z"></path></clipPath><clipPath id="j" clipPathUnits="userSpaceOnUse"><path d="M-374.777 401.71h800v-600h-800Z"></path></clipPath><clipPath id="k" clipPathUnits="userSpaceOnUse"><path d="M-375.796 403.034h800v-600h-800Z"></path></clipPath><clipPath id="l" clipPathUnits="userSpaceOnUse"><path d="M-365.743 382.374h800v-600h-800Z"></path></clipPath><clipPath id="m" clipPathUnits="userSpaceOnUse"><path d="M-332.765 379.76h800v-600h-800Z"></path></clipPath><clipPath id="n" clipPathUnits="userSpaceOnUse"><path d="M-331.959 379.879h800v-600h-800Z"></path></clipPath><clipPath id="o" clipPathUnits="userSpaceOnUse"><path d="M-402.93 182.941h800v-600h-800Z"></path></clipPath><clipPath id="p" clipPathUnits="userSpaceOnUse"><path d="M-278.477 218.475h800v-600h-800Z"></path></clipPath><clipPath id="q" clipPathUnits="userSpaceOnUse"><path d="M-527.388 218.475h800v-600h-800Z"></path></clipPath><clipPath id="r" clipPathUnits="userSpaceOnUse"><path d="M-515.012 449.23h800v-600h-800Z"></path></clipPath><clipPath id="s" clipPathUnits="userSpaceOnUse"><path d="M-521.023 434.998h800v-600h-800Z"></path></clipPath><clipPath id="t" clipPathUnits="userSpaceOnUse"><path d="M-529.18 406.913h800v-600h-800Z"></path></clipPath><clipPath id="u" clipPathUnits="userSpaceOnUse"><path d="M-510.548 401.158h800v-600h-800Z"></path></clipPath><clipPath id="v" clipPathUnits="userSpaceOnUse"><path d="M-504.002 426.838h800v-600h-800Z"></path></clipPath><clipPath id="w" clipPathUnits="userSpaceOnUse"><path d="M-504.423 405.805h800v-600h-800Z"></path></clipPath><clipPath id="x" clipPathUnits="userSpaceOnUse"><path d="M-513.502 394.27h800v-600h-800Z"></path></clipPath><clipPath id="y" clipPathUnits="userSpaceOnUse"><path d="M-510.917 444.935h800v-600h-800Z"></path></clipPath><clipPath id="z" clipPathUnits="userSpaceOnUse"><path d="M-478.583 455.74h800v-600h-800Z"></path></clipPath><clipPath id="A" clipPathUnits="userSpaceOnUse"><path d="M-486.065 435.55h800v-600h-800Z"></path></clipPath><clipPath id="B" clipPathUnits="userSpaceOnUse"><path d="M-493.578 448.313h800v-600h-800Z"></path></clipPath><clipPath id="C" clipPathUnits="userSpaceOnUse"><path d="M-459.603 384.185h800v-600h-800Z"></path></clipPath><clipPath id="D" clipPathUnits="userSpaceOnUse"><path d="M-461.128 396.36h800v-600h-800Z"></path></clipPath><clipPath id="E" clipPathUnits="userSpaceOnUse"><path d="M-478.835 436.932h800v-600h-800Z"></path></clipPath><clipPath id="F" clipPathUnits="userSpaceOnUse"><path d="M-275.09 392.947h800v-600h-800Z"></path></clipPath><clipPath id="G" clipPathUnits="userSpaceOnUse"><path d="M-534.558 280.676h800v-600h-800Z"></path></clipPath><clipPath id="H" clipPathUnits="userSpaceOnUse"><path d="M-268.748 370.852h800v-600h-800Z"></path></clipPath><clipPath id="I" clipPathUnits="userSpaceOnUse"><path d="M-523.146 395.14h800v-600h-800Z"></path></clipPath><clipPath id="J" clipPathUnits="userSpaceOnUse"><path d="M-485.636 203.797h800v-600h-800Z"></path></clipPath><clipPath id="K" clipPathUnits="userSpaceOnUse"><path d="M-277.585 245.507h800v-600h-800Z"></path></clipPath><clipPath id="L" clipPathUnits="userSpaceOnUse"><path d="M-364.401 196.581h800v-600h-800Z"></path></clipPath><clipPath id="M" clipPathUnits="userSpaceOnUse"><path d="M-320.229 203.797h800v-600h-800Z"></path></clipPath><clipPath id="N" clipPathUnits="userSpaceOnUse"><path d="M-402.933 229.971h800v-600h-800Z"></path></clipPath><clipPath id="O" clipPathUnits="userSpaceOnUse"><path d="M-423.12 261.69h800v-600h-800Z"></path></clipPath><clipPath id="P" clipPathUnits="userSpaceOnUse"><path d="M-418.12 306.49h800v-600h-800Z"></path></clipPath><clipPath id="Q" clipPathUnits="userSpaceOnUse"><path d="M-381.88 238.643h800v-600h-800Z"></path></clipPath><clipPath id="R" clipPathUnits="userSpaceOnUse"><path d="M-371.3 276.442h800v-600h-800Z"></path></clipPath><clipPath id="S" clipPathUnits="userSpaceOnUse"><path d="M-429.767 246.04h800v-600h-800Z"></path></clipPath><clipPath id="T" clipPathUnits="userSpaceOnUse"><path d="M-394.136 237.819h800v-600h-800Z"></path></clipPath><clipPath id="U" clipPathUnits="userSpaceOnUse"><path d="M-402.708 320.777h800v-600h-800Z"></path></clipPath><clipPath id="V" clipPathUnits="userSpaceOnUse"><path d="M-362.053 285.257h800v-600h-800Z"></path></clipPath><clipPath id="W" clipPathUnits="userSpaceOnUse"><path d="M-439.336 305.041h800v-600h-800Z"></path></clipPath><clipPath id="X" clipPathUnits="userSpaceOnUse"><path d="M-362.05 283.688h800v-600h-800Z"></path></clipPath><clipPath id="Y" clipPathUnits="userSpaceOnUse"><path d="M-438.66 279.131h800v-600h-800Z"></path></clipPath><clipPath id="Z" clipPathUnits="userSpaceOnUse"><path d="M-406.67 236.56h800v-600h-800Z"></path></clipPath><clipPath id="aa" clipPathUnits="userSpaceOnUse"><path d="M-419.13 296.734h800v-600h-800Z"></path></clipPath><clipPath id="ab" clipPathUnits="userSpaceOnUse"><path d="M-380.27 237.5h800v-600h-800Z"></path></clipPath><clipPath id="ac" clipPathUnits="userSpaceOnUse"><path d="M-424.689 259.344h800v-600h-800Z"></path></clipPath><clipPath id="ad" clipPathUnits="userSpaceOnUse"><path d="M-402.546 277.32h800v-600h-800Z"></path></clipPath><clipPath id="ae" clipPathUnits="userSpaceOnUse"><path d="M-444.297 279.193h800v-600h-800Z"></path></clipPath><clipPath id="af" clipPathUnits="userSpaceOnUse"><path d="M-425.99 245.347h800v-600h-800Z"></path></clipPath><clipPath id="ag" clipPathUnits="userSpaceOnUse"><path d="M-410.633 234.244h800v-600h-800Z"></path></clipPath><clipPath id="ah" clipPathUnits="userSpaceOnUse"><path d="M-401.799 321.203h800v-600h-800Z"></path></clipPath><clipPath id="ai" clipPathUnits="userSpaceOnUse"><path d="M-432.894 278.17h800v-600h-800Z"></path></clipPath><clipPath id="aj" clipPathUnits="userSpaceOnUse"><path d="M-402.964 279.608h800v-600h-800Z"></path></clipPath><clipPath id="ak" clipPathUnits="userSpaceOnUse"><path d="M-401.76 276.806h800v-600h-800Z"></path></clipPath><clipPath id="al" clipPathUnits="userSpaceOnUse"><path d="M-357.638 282.885h800v-600h-800Z"></path></clipPath><clipPath id="am" clipPathUnits="userSpaceOnUse"><path d="M-368.969 273.644h800v-600h-800Z"></path></clipPath><clipPath id="an" clipPathUnits="userSpaceOnUse"><path d="M-452.345 489.37h800v-600h-800Z"></path></clipPath><clipPath id="ao" clipPathUnits="userSpaceOnUse"><path d="M-434.395 496.041h800v-600h-800Z"></path></clipPath><clipPath id="ap" clipPathUnits="userSpaceOnUse"><path d="M-416.821 506.046h800v-600h-800Z"></path></clipPath><clipPath id="aq" clipPathUnits="userSpaceOnUse"><path d="M-463.935 499.487h800v-600h-800Z"></path></clipPath><clipPath id="ar" clipPathUnits="userSpaceOnUse"><path d="M-397.112 502.911h800v-600h-800Z"></path></clipPath><clipPath id="as" clipPathUnits="userSpaceOnUse"><path d="M-363.252 502.911h800v-600h-800Z"></path></clipPath><clipPath id="at" clipPathUnits="userSpaceOnUse"><path d="M-351.315 489.54h800v-600h-800Z"></path></clipPath><clipPath id="au" clipPathUnits="userSpaceOnUse"><path d="M-380.169 496.041h800v-600h-800Z"></path></clipPath><clipPath id="av" clipPathUnits="userSpaceOnUse"><path d="M-411.939 526.862h800v-600h-800Z"></path></clipPath><clipPath id="aw" clipPathUnits="userSpaceOnUse"><path d="M-372.738 526.287h800v-600h-800Z"></path></clipPath><clipPath id="ax" clipPathUnits="userSpaceOnUse"><path d="M-426.207 526.96h800v-600h-800Z"></path></clipPath><clipPath id="ay" clipPathUnits="userSpaceOnUse"><path d="M-396.338 526.96h800v-600h-800Z"></path></clipPath></defs><path d="M0 0c-12.166 5.227-24.21 11.541-35.871 18.587-22.942 13.864-44.509 30.598-62.347 47.388-8.098 7.62-15.639 15.753-22.674 24.029-11.722 13.79-22.013 28.267-30.89 43.617a295 295 0 0 0-19.524 40.649c-4.865 12.514-8.814 25.434-11.962 38.792-5.171 21.954-8.011 45.174-7.95 70.323.041 17.078 2.01 36.556 4.6 54.586 3.313 23.065 8.158 47.493 14.456 72.84 25.568 11.835 53.399 21.106 78.9 26.88 30.54 6.914 60.958 10.596 93.262 10.63 32.304-.034 62.72-3.716 93.262-10.63 25.502-5.774 53.332-15.045 78.9-26.88 6.298-25.347 11.144-49.775 14.455-72.84 2.59-18.03 4.559-37.508 4.601-54.586.061-25.149-2.779-48.369-7.95-70.323-3.15-13.358-7.096-26.278-11.963-38.792a295 295 0 0 0-19.523-40.649c-8.879-15.35-19.169-29.827-30.892-43.617-7.034-8.276-14.576-16.409-22.671-24.029-17.839-16.79-39.406-33.524-62.348-47.388C24.211 11.541 12.166 5.227 0 0" clip-path="url(#a)" style="fill:#454c9a;fill-opacity:1;fill-rule:nonzero;stroke:none" transform="matrix(1.33333 0 0 -1.33333 537.244 606.823)"></path><path d="M0 0a249 249 0 0 0-6.218-8.949c-8.243-11.315-17.443-22.406-27.848-32.926-5.787-5.849-11.995-11.418-18.494-17-12.481-10.728-26.635-20.537-41.288-29.93-14.652 9.393-28.807 19.202-41.287 29.93-6.499 5.582-12.708 11.151-18.492 17-10.407 10.52-19.608 21.611-27.85 32.926C-188.689.955-195 11.192-200.572 21.702c-4.405 8.303-8.153 16.845-11.549 25.523-5.235 13.372-9.661 28.305-12.45 42.588q4.224-1.224 7.54-3.582c13.347 6.09 30.26 11.19 47.25 14.372-.37-2.118-.22-3.474.397-4.31.546-.735 1.419-1.074 2.374-1.162 3.668-.343 3.279-3.178 2.991-5.915 1.79.993 1.607 4.154 1.2 5.761-.449 1.775-1.688 4.388-3.962 4.303.26 2.116 1.782 2.727 2.766 2.711 1.347-.022 4.077-.725 4.324-4.258 2.567.347.983 4.974 2.806 5.758 1.238-.994 2.262-3.667 2.92-5.85.622-2.063 1.244-3.864 2.794-5.595 1.768 1.222 1.029 3.606.24 5.187-1.048 2.104-2.686 5.053-2.998 6.976v.744c4.902 1.642 10.267 1.94 14.789 1.526-1.414-.021-2.995-.037-3.444-.064.254-.334.945-1.748-.477-3.887-.51-.769-.978-1.448-.973-2.031.003-.579.177-.77 1.512-1.354.512.715 1.519 1.642 2.686 2.709 1.711 1.559 1.721 3.289 1.694 4.446 3.18-.434 6.366-1.317 9.895-2.737-2.499-.855-2.797-2.75-2.791-4.183.007-1.389.159-2.809.64-5.752.403-2.464.489-4.025.489-6.577a17.7 17.7 0 0 0-2.359-8.783c-.397-.688-.144-2.001 1.237-1.995 1.349.005 3.65 1.596 4.405 2.906-1.134.323-2.343.392-2.351 1.618-.009 1.349.713 3.097.779 5.461 1.275-1.299 1.773-4.676 2.474-5.807.451-.73 1.027-1.087 1.723-1.092.614-.002 1.328.277 1.998.684l1.019-1.323v-3.917c1.104.425 1.435 1.368 2.888 1.528a13.8 13.8 0 0 0-2.888 2.389v1.885l-1.019-.562c-.9 1.558-1.748 3.308-1.748 6.355 0 2.327.69 5.732.684 8.182-.006 3.308-1.423 5.701-3.582 7.483 2.718.243 4.628.64 6.734 1.547 3.765 1.624 7.096 4.502 10.64 6.628 3.647 2.189 6.291 3.117 10.934 3.286-2.194-.703-3.326-1.549-3.333-2.695-.006-1.159 1.068-2.466 2.171-3.804.614-.744 2.469-2.933 2.852-4.903a1.77 1.77 0 0 0-1.439-.669c-.738.025-1.216.37-2.106 1.407-1.954 2.279-3.59 5.155-6.521 5.155-1.089 0-2.219-.107-3.127-.375-1.139-.34-2.034-.954-3.259-2.122a8 8 0 0 0-3.652-2.03c.315-1.52 1.689-.917 2.608-.49 1.004.472 2.88 1.908 3.229 3.354 1.192-1.444 2.566-3.512 2.596-7.739.014-2.107-.15-3.81-.3-5.647-.174-2.152-.342-4.401-.342-6.344 0-1.662.075-3.19.802-5.948-3.099-.964-2.927 2.148-2.927 3.939 0 .261-.002 1.702-.018 2.307-.035 1.239-.381 1.83-1.211 2.281-.248-.285-.594-1.215-.594-3.105 0-3.078.766-6.515 3.474-9.452 1.298-1.406 3.875-2.632 7.075-1.775-2.531 2.105-4.032 4.407-4.032 8.294 0 1.962.884 5.241 1.784 8.376.736 2.576 1.054 3.716 1.011 5.848-.044 2.158-.267 3.843-3.042 6.158.921 1.225 2.074 1.379 3.391-.075 1.17-1.296 2.86-4.854 3.757-7.113-1.957-.571-2.689-1.795-2.141-4.196.145-.636.125-1.487-.589-1.043-.521.322-1.052.629-1.562.93.031-2.642.43-6.673-1.46-8.602 3.068-.027 4.923.734 6.36 2.227 2.15 2.235 2.568 5.631 1.198 8.43-.264.539-.458 1.011-.309 1.18.132.149.514-.008 1.082-.637 1.338-1.48 3.229-4.853 3.229-7.203 0-1.43-.838-2.588-2.917-2.501 1.342-.718 3.135.547 4.387 1.626 2.272 1.953 4.132 4.277 5.403 6.985.634 1.349.923 3.013.358 3.989-.338.584.304 1.164.821 1.175.63.011 1.046-.218 1.405-.217.446.003.76.308.772 1.241.015 1.194-.116 1.53-.282 2.434.96-.347 1.353-.89 1.353-2.723 0-.836-.068-1.025.152-1.685 1.281.315 1.84 1.151 2.161 2.932.417 2.311.684 3.815 2.084 4.276-.269.628-1.021.745-2.556-.01-2.145-1.056-1.743-.123-1.26 1.036.296.707.704 1.417 1.001 1.848-1.334.274-1.975-.02-2.365-.619-.524-.811-.542-2.373-.542-3.687-2.143 1.079-3.105 2.977-6.421 3.199 1.541.136 2.657.477 4.274.952 2.431.713 5.447 1.901 8.437 3.459 2.698 1.404 5.368 2.947 7.762 4.269 2.805 1.549 5.247 2.817 7.17 3.571 1.675.655 4.426 1.72 7.589 2.378 2.623.547 5.669.754 7.368.754 1.088 0 1.862-.013 2.442-.054-.071-.722-.565-2.154-2.05-2.151-.909.003-2.168.432-3.694.775-1.537.346-3.349.607-4.743.362-1.709-.3-3.796-2.629-3.796-5.458 0-2.834 1.044-4.682 1.8-6.996.694-2.122 2.326-5.249-.272-6.418.163 1.391-.591 2.777-2.145 4.407a102 102 0 0 1-4.632 4.619c-.338.317-1.591 1.913-1.908 2.36-.693-.493-1.33-1.289-1.926-2.266-.394-.649-.912-1.7-.906-2.049.015-1.254 1.577-1.387 3.227-1.395.853-.004 1.864-.038 2.419-.038-.442-1.156-.573-2.573-.584-4.011-.01-1.211-.108-1.989.735-4.432.468-1.355.701-2.269 2.7-4.445-2.019-2.126-2.239-3.577-2.236-4.708.005-1.205.547-3.339 2.236-4.945 1.082-1.024 2.136-2.31 4.427-3.237l-.004 2.813c1.288-.634 1.815-1.798.942-2.7-1.139-1.177-2.438-1.578-4.077-1.569a3.2 3.2 0 0 0-1.1.211c-.559.21-1.01.675-1.575 1.162 2.619-2.742 2.023-5.51 2.023-8.828 0-1.915.432-2.535 2.276-2.675l.026-4.209c-.975.452-1.786 1.539-2.897 1.472.633-1.273 1.066-2.824.245-5.87-.423-1.568-.302-3.092-.206-4.285 2.197.958 2.954 2.18 2.868 4.37 1.22-.445 1.72-.823 1.737-1.709.024-1.156-1.765-2.67-3.218-4.03.704-1.961 2.734-1.395 2.973-.03 1.067-.85.881-1.51.719-2.002-.262-.794-1.268-1.719-2.343-3.188-.862-1.182-1.508-2.412-1.497-3.547.011-1.194.127-1.449 1.449-2.419 1.539-1.129 2.486-1.809 2.501-2.949.013-1.046-.568-2.231-.895-3.137 1.443 1.29 1.954 3.263 4.229 2.958-.367-.733-.826-1.549-1.03-2.282-.369-1.335-.971-4.189-1.831-4.88 3.262-3.155 4.963-7.112 5.807-10.087 1.865.871 2.748 3.019 2.936 5.758-1 .141-2.324.374-2.324 1.626 0 1.471 1.42 3.46 2.012 4.663.72 1.466 1.379 2.636 1.739 3.713 1.498-.798 3.34-3.038 4.597-4.561.413-.5 1.701-1.885 2.833-1.881.289.002.536.115.711.28.305.288.499.636 1.021.21.162-.129.305-.366.304-.698-.01-1.169-1.061-3.069-2.339-3.069-.753 0-1.216.82-1.49 1.237-.464-4.126-.273-8.245 2.915-13.063 1.124.592 1.513 1.347 1.488 2.335-.057 2.078-1.531 4.97-2.688 6.139-.315.321-.119.964-.018 1.188.211.458.756.178 1.322-.214.431-.297 1.167-1.061 1.464-.198.137.396.142 1.344-.104 2.261.558-.373 1.407-1.071 2.001-2.016.367-.581.718-1.521.388-2.017-.29-.439-1.146-.501-2.464-.191.258-.421 1.134-1.128 1.852-1.662.395-.295.666-.452.544-.688-.189-.366-.63-.449-.954-.48.116-.484.423-1.431 1.386-1.431.792 0 1.688.51 2.453.853 1.575.704 2.591.41 3.335-.946-1.652-.479-4.631-1.09-6.585-1.845-1.971-.764-3.441-2.003-1.997-3.938-.447-.933-1.054-.992-1.97-.675-1.503.522-4.736 2.582-6.647 2.242.482-1.265 2.839-2.974 4.447-3.71 3.26-1.491 7.416-2.457 9.864-3.568.154-.329.177-1.366-.537-2.265-1.442-1.818-.807-2.362-.201-3.005 1.034-1.097 2.997-1.819 5.255-1.885-.436.389-1.159 1.04-2.075 1.696-.772.553-1.017 1.351-.94 2.438.041.606 2.092.876 2.932.882 1.785.013 3.353-1.017 4.12-1.784 1.401-1.401 1.273-3.141.036-4.715 1.177.138 2.713 1.112 3.495 1.775.752.64 1.831 1.404 2.678.428 1.075-1.235.623-2.897 1.904-1.756.67.593.585 2.892.585 3.765.183-1.42 1.204-2.352 2.84-3.04C-6.45 1.665-2.708 1.27 0 0" clip-path="url(#b)" style="fill:#000;fill-opacity:1;fill-rule:nonzero;stroke:none" transform="matrix(1.33333 0 0 -1.33333 662.374 458.22)"></path><path d="M0 0c.03.487.616 1.1 1.146 1.379.678.36 1.314.317 2.187-.028C4.412.926 5.532.184 6.341-.292 7.2-.798 7.637-1.14 8.624-1.451 7.413-3.449 6.393-3.238 4.706-2.525 2.917-1.77 1.252-.202 0 0" clip-path="url(#c)" style="fill:#fff;fill-opacity:1;fill-rule:nonzero;stroke:none" transform="matrix(1.33333 0 0 -1.33333 588.97 438.761)"></path><path d="M0 0c-1.181-1.735-4.325-3.938-5.766-5.794-1.84.214-2.415 1.219-2.75 2.667-.416 1.803-.118 3.664-.118 4.596.421-.858.898-1.439 1.415-2.296.18-.299.621-1.153.948-1.153.374 0 .459.546.502 1.34.065 1.215.016 2.941.016 3.472 1.353.165 1.322-.58 1.399-1.255.086-.749.531-1.239 1.343-1.422C-2.103-.046-.884.023 0 0" clip-path="url(#d)" style="fill:#fff;fill-opacity:1;fill-rule:nonzero;stroke:none" transform="matrix(1.33333 0 0 -1.33333 598.52 427.212)"></path><path d="M0 0c.006 1.219-1.296 2.698-2.197 3.627-.668.685-2.661 2.338-2.648 3.148.014.922 1.576 1.66 1.987 1.901-1.76-.587-2.534-.045-3.511 1.37-.614.886-1.374 1.555-2.26 1.47.251-1.015.525-1.939.98-3.019 1.002-2.378 2.577-4.919 3.922-6.427.49-.548 1.22-1.288 1.938-1.745C-1.195-.054-.592-.299 0 0" clip-path="url(#e)" style="fill:#fff;fill-opacity:1;fill-rule:nonzero;stroke:none" transform="matrix(1.33333 0 0 -1.33333 388.235 377.558)"></path><path d="M0 0c2.146.707 3.908 1.778 5.315 3.184 1.478 1.478 2.566 3.328 3.296 5.517-1.05-.417-2.116-.313-2.83.434-.326.343-.609.759-.91 1.175-.506.696-1.073 1.228-2.054 1.177.021-.83-.04-1.931-.081-2.748-.057-1.169-.316-.927-.509-.763-.806.675-1.409 2.153-3.68 2.083A8.5 8.5 0 0 0 .151 7.062C.76 5.032.757 2.842 0 0" clip-path="url(#f)" style="fill:#fff;fill-opacity:1;fill-rule:nonzero;stroke:none" transform="matrix(1.33333 0 0 -1.33333 525.862 362.293)"></path><path d="M0 0c1.256-.096 2.095-.579 2.805-1.456 1.457-1.8 1.41-5.198 1.497-10.045-1.596.478-1.225 1.976-1.42 4.382-.757.015-.873-.026-1.106-.302q-.311-.366-.295-1.156c-1.246.456-.41 3.248-.41 4.768C1.073-1.945.691-1.033 0 0" clip-path="url(#g)" style="fill:#fff;fill-opacity:1;fill-rule:nonzero;stroke:none" transform="matrix(1.33333 0 0 -1.33333 506.714 345.056)"></path><path d="M0 0c1.588-2.213 3.878-8.945 5.788-11.483 1.2 1.799 1.646 4.146 1.657 5.622.009 1.385-.376 2.798-1.733 3.041-.135-.899-.331-1.797-.692-2.62-.45.999-.725 2.576-1.414 4.033C3.016-.16 1.588 1.202 0 0" clip-path="url(#h)" style="fill:#fff;fill-opacity:1;fill-rule:nonzero;stroke:none" transform="matrix(1.33333 0 0 -1.33333 476.142 339.337)"></path><path d="m0 0-8.658 6.703c-2.195-.703-3.327-1.55-3.333-2.695-.007-1.159 1.068-2.466 2.17-3.804.614-.744 2.469-2.933 2.852-4.903-.386-.468-.9-.685-1.438-.669-.739.024-1.216.37-2.106 1.407-1.954 2.278-3.591 5.154-6.522 5.154-1.088 0-2.218-.106-3.127-.375-1.138-.339-2.033-.954-3.258-2.122a8 8 0 0 0-3.652-2.029c.314-1.521 1.688-.917 2.607-.49 1.004.471 2.881 1.908 3.229 3.353 1.193-1.443 2.567-3.511 2.596-7.738.015-2.107-.149-3.811-.299-5.647-.175-2.153-.343-4.402-.343-6.344 0-1.662.075-3.191.803-5.948-3.099-.968-2.928 2.148-2.928 3.939 0 .261-.002 1.702-.017 2.307-.035 1.239-.382 1.83-1.211 2.281-.248-.285-.594-1.215-.594-3.106 0-3.078.765-6.514 3.474-9.452 1.297-1.404 3.875-2.635 7.074-1.774-2.53 2.104-4.031 4.407-4.031 8.294 0 1.962.884 5.241 1.784 8.376.736 2.576 1.053 3.716 1.011 5.847-.044 2.159-.267 3.843-3.042 6.159.92 1.224 2.073 1.379 3.391-.076 1.17-1.295 2.86-4.853 3.757-7.112-1.957-.571-2.689-1.796-2.141-4.196.146-.635.124-1.487-.589-1.043-.522.322-1.052.629-1.563.93.032-2.642.431-6.673-1.459-8.602 3.067-.027 4.922.733 6.359 2.227 2.151 2.235 2.568 5.63 1.199 8.429-.264.539-.459 1.012-.309 1.181.131.148.513-.008 1.083-.638 1.336-1.48 3.228-4.852 3.228-7.202 0-1.431-.839-2.589-2.917-2.501 1.342-.719 3.135.547 4.387 1.626 2.271 1.952 4.132 4.276 5.402 6.984.635 1.35.924 3.014.359 3.99-.338.584.301 1.164.821 1.174.63.01 1.046-.217 1.404-.216.446.003.762.307.773 1.241.014 1.193-.117 1.529-.283 2.434.96-.347 1.354-.89 1.354-2.723 0-.836-.068-1.026.151-1.686 1.281.316 1.841 1.152 2.161 2.933.417 2.31.685 3.814 2.084 4.275-.268.628-1.022.745-2.555-.009-2.146-1.056-1.743-.123-1.26 1.036.296.707.704 1.417 1.001 1.847-1.334.275-1.976-.019-2.365-.619-.525-.81-.544-2.372-.544-3.686C3.828-2.199 2.866-.302-.449-.079 1.092.06 2.208.397 3.824.873c2.432.713 5.447 1.9 8.438 3.459 2.698 1.403 5.368 2.946 7.761 4.269 1.945 1.074 3.716 2.013 5.262 2.74C16.726 7.594 7.087 2.859 0 0" clip-path="url(#i)" style="fill:#fff;fill-opacity:1;fill-rule:nonzero;stroke:none" transform="matrix(1.33333 0 0 -1.33333 542.797 315.794)"></path><path d="m0 0 1.019-1.323V.562Z" clip-path="url(#j)" style="fill:#fff;fill-opacity:1;fill-rule:nonzero;stroke:none" transform="matrix(1.33333 0 0 -1.33333 499.703 351.498)"></path><path d="M0 0v-3.917c1.104.425 1.436 1.37 2.889 1.527A14 14 0 0 0 0 0" clip-path="url(#k)" style="fill:#fff;fill-opacity:1;fill-rule:nonzero;stroke:none" transform="matrix(1.33333 0 0 -1.33333 501.062 353.263)"></path><path d="M0 0c.006-1.389.159-2.809.639-5.752.404-2.464.49-4.025.49-6.577 0-1.921-.342-5.284-2.359-8.783-.397-.688-.145-2.001 1.236-1.994 1.349.004 3.65 1.595 4.404 2.905-1.132.323-2.342.392-2.349 1.618-.01 1.349.712 3.097.778 5.461 1.276-1.298 1.774-4.676 2.474-5.807.451-.73 1.027-1.087 1.723-1.092.614-.001 1.329.277 1.998.684-.9 1.558-1.748 3.308-1.748 6.356 0 2.326.691 5.731.686 8.181C7.964-1.492 6.548.901 4.388 2.683c2.719.243 4.629.64 6.735 1.547 1.139.493 2.24 1.1 3.317 1.763-2.306-1.093-4.324-2.001-5.876-2.541L-2.108 6.967l-5.995.134c-1.413-.021-2.995-.037-3.444-.064.255-.334.945-1.748-.476-3.887-.51-.769-.978-1.448-.974-2.031.003-.579.178-.77 1.513-1.354.513.715 1.519 1.642 2.687 2.709 1.709 1.559 1.72 3.289 1.693 4.446 3.181-.434 6.366-1.316 9.895-2.737C.292 3.328-.006 1.433 0 0" clip-path="url(#l)" style="fill:#fff;fill-opacity:1;fill-rule:nonzero;stroke:none" transform="matrix(1.33333 0 0 -1.33333 487.657 325.716)"></path><path d="M0 0c1.347-.022 4.077-.726 4.324-4.258C6.892-3.911 5.307.716 7.13 1.5c1.238-.994 2.262-3.667 2.92-5.851.622-2.062 1.244-3.863 2.794-5.594 1.768 1.221 1.029 3.606.24 5.187-1.03 2.066-2.629 4.949-2.98 6.875A600 600 0 0 1-.351-.021C-.228-.003-.11 0 0 0" clip-path="url(#m)" style="fill:#fff;fill-opacity:1;fill-rule:nonzero;stroke:none" transform="matrix(1.33333 0 0 -1.33333 443.687 322.231)"></path><path d="M0 0a386 386 0 0 1-9.332-2.131q2.185.45 4.372.86c-.37-2.117-.22-3.473.398-4.309.545-.735 1.418-1.074 2.373-1.162C1.479-7.085 1.09-9.92.803-12.657c1.789.993 1.607 4.154 1.199 5.761C1.554-5.121.314-2.508-1.96-2.591-1.764-1.003-.856-.262 0 0" clip-path="url(#n)" style="fill:#fff;fill-opacity:1;fill-rule:nonzero;stroke:none" transform="matrix(1.33333 0 0 -1.33333 442.612 322.389)"></path><path d="M0 0c-24.878.003-52.596-2.685-78.294-8.192-25.595-5.486-50.292-13.358-75.982-24.802-4.971-20.165-10.241-46.136-13.229-68.693-2.048-15.459-3.482-29.202-3.521-44.915-.021-7.637.314-15.753 1.043-24.746-2.086 13.775-3.372 30.55-3.224 46.918.092 10.044.861 21.162 2.108 31.488.093.764.167 1.596.261 2.362 1.77 14.358 3.955 28.967 6.802 44.24a629 629 0 0 0 7.295 33.944c24.038 10.443 48.39 18.25 73.034 23.589 27.547 5.969 53.874 8.892 83.708 8.893 29.835-.001 56.161-2.924 83.708-8.893 24.645-5.339 48.996-13.146 73.034-23.589a627 627 0 0 0 7.294-33.944c2.848-15.273 5.032-29.882 6.802-44.24.095-.766.17-1.598.263-2.362 1.245-10.326 2.016-21.444 2.106-31.488.148-16.368-1.138-33.143-3.224-46.918.731 8.993 1.064 17.109 1.045 24.746-.041 15.713-1.474 29.456-3.522 44.915-2.989 22.557-8.257 48.528-13.23 68.693-25.69 11.444-50.385 19.316-75.98 24.802C52.598-2.685 24.876.003 0 0" clip-path="url(#o)" style="fill:#fce900;fill-opacity:1;fill-rule:nonzero;stroke:none" transform="matrix(1.33333 0 0 -1.33333 537.24 59.806)"></path><path d="M0 0c-5.964-2.353-12.439-4.526-18.434-7.168a612 612 0 0 1-8.607-42.818c-3.619-22.012-6.056-43.334-6.116-62.332-.063-20.188 2.222-38.432 5.899-55.384 4.298-19.809 10.578-37.824 18.5-54.638 13.418-28.487 31.655-53.018 53.534-74.161a297 297 0 0 1 23.12-20.151c4.01-3.14 8.105-6.119 12.259-9.081-8.208 6.904-15.943 14.136-23.147 21.756-8.395 8.883-16.074 18.097-23.145 27.834-12.172 16.77-22.423 34.42-30.348 54.066-8.644 21.423-14.825 44.458-17.91 69.131-1.419 11.362-1.986 22.786-2.172 34.823-.232 15.193 1.153 30.627 3.284 46.316.941 6.924 1.912 13.616 3.173 20.808C-7.307-35.009-3.991-17.68 0 0" clip-path="url(#p)" style="fill:#fce900;fill-opacity:1;fill-rule:nonzero;stroke:none" transform="matrix(1.33333 0 0 -1.33333 371.304 107.184)"></path><path d="M0 0c5.962-2.353 12.438-4.526 18.435-7.168a613 613 0 0 0 8.606-42.818c3.618-22.012 6.057-43.334 6.116-62.332.061-20.188-2.222-38.432-5.899-55.384-4.297-19.809-10.578-37.824-18.5-54.638-13.416-28.487-31.655-53.018-53.533-74.161a298 298 0 0 0-23.121-20.151c-4.01-3.14-8.105-6.119-12.26-9.081 8.209 6.904 15.944 14.136 23.148 21.756 8.395 8.883 16.073 18.097 23.145 27.834 12.172 16.77 22.422 34.42 30.348 54.066 8.645 21.423 14.825 44.458 17.908 69.131 1.42 11.362 1.988 22.786 2.173 34.823.233 15.193-1.154 30.627-3.284 46.316-.94 6.924-1.911 13.616-3.172 20.808C7.307-35.009 3.991-17.68 0 0" clip-path="url(#q)" style="fill:#fce900;fill-opacity:1;fill-rule:nonzero;stroke:none" transform="matrix(1.33333 0 0 -1.33333 703.184 107.184)"></path><path d="M0 0c-1.484 1.265-2.85 2.727-4.095 4.294-1.226 1.544-2.279 3.212-3.268 5.056-.413-.299-.688-.651-.715-1.158-.08-1.525 1.726-3.714 4.983-7.443-.452-.15-1.176-.166-1.637-.166-2.735.006-3.595 1.167-5.314 2.481-2.523 1.932-3.329 2.299-5.952 3.454 2.695-2.973 7.16-7.264 8.144-8.942C-9.71-1.56-12.677.7-15.166 2.312c-2.172 1.409-4.363 2.826-6.512 4.217 1.521 1.721 4.942 1.53 11.227-1.37a116 116 0 0 0-6.52 4.053c-2.872 1.916-6.086 4.53-8.704 6.941-2.383 2.196-4.255 4.222-5.209 5.446-1.47 1.892-3.074 3.837-4.551 6.001-2.719 3.983-5.162 8.453-6.62 12.929-1.658 5.095-3.236 9.456-3.954 14.675 7.362.483 12.658 3.095 16.011 7.536 3.389 4.495 5.349 10.22 8.798 14.294 2.236 2.644 5.199 4.544 9.486 5.411-.57-1.618-.287-3.035.746-4.55 1.158-1.695 2.589-2.411 4.962-4.106 1.61-1.149 3.969-2.64 5.831-4.427 1.983-1.905 2.871-4.184 2.721-6.559l-2.768 1.009c.679-1.378 2.02-3.162 3.696-5.058 3.911-4.428 9.793-9.167 12.963-11.315A269.674 269.674 0 0 0 6.194 14.702C2.848 6.006 2.896 6.513 0 0" clip-path="url(#r)" style="fill:#000;fill-opacity:1;fill-rule:nonzero;stroke:none" transform="matrix(1.33333 0 0 -1.33333 686.683 414.856)"></path><path d="m0 0 .182.468.002.001v.002l.044.116-.695.317Z" clip-path="url(#s)" style="fill:#fff;fill-opacity:1;fill-rule:nonzero;stroke:none" transform="matrix(1.33333 0 0 -1.33333 694.697 395.881)"></path><path d="M0 0c-.23-1.291.281-4.124-1.467-4.242.044.676-.265 1-.515 1.358-.365.522-.473.607-.735.989-.165.243-.165.692.101 1.191C-1.757.914-.325 3.391.005 4.307c-2.535.467-4.219 2.283-5.007 3.389a30 30 0 0 0-1.541 2.398 25 25 0 0 1-1.663 2.494c-.704.922-1.409 1.45-1.843 1.717-.042-1.214.183-1.85.527-2.623.196-.44.48-.711.477-1.178-.005-.754-.553-1.266-.955-1.859 3.266.19 4.332-1.896 5.664-4.31-.576-.075-.856-.215-1.226-.412-.351-.187-.759-.726-1.611-1.065-1.226.958-3.403 2.415-4.56 2.415-.965 0-1.42-.426-1.939-.775-.707-.472-1.327-1.005-3.029-1.379-.836-.182-1.888-.258-3.388-.258-.474-.858-1.002-1.733-1.335-2.709-.384-1.121-.903-2.904 1.382-2.982 0 .883.018 1.187.235 2.23.235 1.106.748-.232.888-.714.314-1.085.927-2.66 1.108-3.276.241-.813.416-1.141.945-1.127 1.118.03 2.476-.047 3.496-.5.711-.317 1.537-.775 2.247-1.777.949-1.343 1.543-.509 2.267.295a76 76 0 0 1 1.59 1.853c-.321-2.385-.207-3.795 1.325-4.925 1.011-.745 1.999-1.219 3.183-1.989C-1.524-8.888-.369-4.96.691-1.021q.121.443.239.892z" clip-path="url(#t)" style="fill:#fff;fill-opacity:1;fill-rule:nonzero;stroke:none" transform="matrix(1.33333 0 0 -1.33333 705.573 358.435)"></path><path d="M0 0c-2.011.182-2.539 1.748-2.637 1.941-.462.913-.348 2.798-.297 3.796h-4.242c.033-.916-.012-2.248.06-3.438.074-1.18.331-2.066 1.379-2.285-.013 1.101.278 1.305.788.802.425-.419.848-.934 1.335-1.391.57-.537 1.218-1.338 2.033-1.337C-.677-1.908-.317-1.018 0 0" clip-path="url(#u)" style="fill:#fff;fill-opacity:1;fill-rule:nonzero;stroke:none" transform="matrix(1.33333 0 0 -1.33333 680.731 350.761)"></path><path d="M0 0c.001.717-.159 1.166-.568 1.326C-.798.991-1.159.16-1.771.16c-.519 0-1.141.516-1.435.813-.799.808-1.726 2.294-2.123 2.935-.475.766-1.081 1.991-1.443 2.654l.423-1.091v-5.57c1.549-.199 3.38-.02 3.984-.807.401-.527.453-1.637.075-2.574-.341-.839-.906-1.813-1.438-2.753-1.069-1.893-.457-3.165.173-3.913.248.628.468.961.855.961.651 0 1.326-.544 2.078-.967-.548 1.487-.338 3.356-.145 4.859C-.585-3.884-.004-1.395 0 0" clip-path="url(#v)" style="fill:#fff;fill-opacity:1;fill-rule:nonzero;stroke:none" transform="matrix(1.33333 0 0 -1.33333 672.003 385)"></path><path d="M0 0c-.555-.597-.996-1.026-1.35-1.026-.379-.004-.313.458-.313 1.784 0 1.444.383 4.94-2.246 5.299-.531-1.078-.596-2.058-.619-3.53-.013-.749.175-2.158.175-3.028 0-1.925-.183-2.853-.973-4.909.592-.08 1.763-.292 2.822 1.223.32.462.968 1.382 1.435 1.633.233-.791.364-1.548.352-2.192-.042-2.598-1.849-3.65-3.23-4.973 1.167-.037 1.526-.261 1.486-1.407H.43c-.37.767-.394 1.778-.385 2.609.024 2.043.459 4.057.839 6.128.231 1.265.224 2.215-.179 2.564C.542.317.382.412 0 0" clip-path="url(#w)" style="fill:#fff;fill-opacity:1;fill-rule:nonzero;stroke:none" transform="matrix(1.33333 0 0 -1.33333 672.564 356.957)"></path><path d="M0 0c1.915-.204 2.135-.385 2.741-1.066-.052 1.392.3 2.205.829 3.117.54.929.682 1.735.652 2.483-1.875.752-3.829 2.095-5.766 2.907.248-.471.473-.864.85-1.567.239-.443.721-1.313 1.04-2.017.366-.809.407-1.319.231-1.579-.269-.39-1.015-.258-1.502-.067-.761.299-1.33.57-2.014.917-.081-.063-.493-1.718.16-2.289C-2.11.251-1.387.147 0 0" clip-path="url(#x)" style="fill:#fff;fill-opacity:1;fill-rule:nonzero;stroke:none" transform="matrix(1.33333 0 0 -1.33333 684.67 341.576)"></path><path d="M0 0c-1.227 1.544-2.279 3.212-3.269 5.056-.413-.299-.687-.651-.714-1.158C-4.063 2.373-2.257.184 1-3.545c-.452-.15-1.176-.166-1.638-.166-2.734.006-3.594 1.167-5.313 2.482C-8.475.702-9.28 1.069-11.903 2.224c2.695-2.973 7.16-7.264 8.144-8.942-1.856.864-4.823 3.124-7.312 4.736l-6.512 4.217c1.521 1.721 4.941 1.53 11.227-1.37a116 116 0 0 0-6.52 4.053c-2.872 1.916-6.086 4.53-8.704 6.941-2.383 2.196-4.255 4.222-5.209 5.446-1.471 1.892-3.074 3.837-4.551 6.001-2.72 3.983-5.162 8.453-6.62 12.929-1.658 5.095-3.236 9.456-3.954 14.675q.547.036 1.082.089l-9.76 18.738-1.542 15.598c-2.457.025-4.362.067-7.093-.082-.071-.723-.565-2.154-2.049-2.151-.91.002-2.168.431-3.695.775q-.255.058-.518.11c-2.139-.367-4.395-.803-6.7-1.446-.768-.985-1.321-2.308-1.321-3.761 0-2.834 1.044-4.681 1.8-6.996.694-2.122 2.326-5.249-.271-6.418.163 1.392-.591 2.778-2.146 4.407a102 102 0 0 1-4.632 4.62c-.338.317-1.591 1.913-1.908 2.36-.692-.493-1.33-1.289-1.926-2.267-.393-.648-.912-1.7-.906-2.048.016-1.254 1.577-1.387 3.228-1.395.852-.004 1.863-.038 2.418-.038-.442-1.156-.573-2.573-.584-4.012-.009-1.211-.108-1.988.735-4.431.469-1.355.701-2.269 2.7-4.446-2.019-2.126-2.239-3.576-2.235-4.708.005-1.205.547-3.339 2.235-4.944 1.082-1.025 2.136-2.311 4.428-3.237l-.005 2.813c1.288-.635 1.815-1.799.942-2.7-1.138-1.178-2.437-1.578-4.077-1.569-.355.002-.73.072-1.099.21-.56.21-1.01.675-1.576 1.163 2.619-2.743 2.023-5.51 2.023-8.829 0-1.915.432-2.535 2.276-2.674l.027-4.209c-.976.452-1.787 1.539-2.898 1.471.633-1.272 1.066-2.823.245-5.87-.423-1.567-.302-3.092-.206-4.284 2.197.958 2.954 2.18 2.868 4.369 1.22-.444 1.72-.822 1.738-1.709.023-1.155-1.766-2.67-3.219-4.029.704-1.961 2.734-1.396 2.973-.03 1.067-.85.881-1.51.719-2.002-.261-.794-1.267-1.719-2.343-3.189-.862-1.181-1.507-2.411-1.497-3.547.011-1.193.127-1.448 1.45-2.419 1.539-1.129 2.485-1.808 2.501-2.949.012-1.046-.569-2.23-.896-3.137 1.443 1.29 1.954 3.263 4.23 2.958-.368-.732-.827-1.548-1.031-2.282-.369-1.335-.97-4.188-1.831-4.88 3.262-3.154 4.963-7.111 5.807-10.087 1.865.871 2.748 3.02 2.936 5.758-1 .142-2.324.374-2.324 1.626 0 1.472 1.42 3.46 2.012 4.663.721 1.467 1.379 2.637 1.739 3.713 1.498-.798 3.34-3.037 4.597-4.56.413-.5 1.701-1.885 2.833-1.881.289.002.536.115.712.28.304.287.498.636 1.02.21.162-.13.305-.366.304-.698-.01-1.169-1.061-3.07-2.339-3.07-.753 0-1.216.821-1.49 1.238-.464-4.126-.273-8.245 2.915-13.064 1.124.593 1.514 1.348 1.488 2.335-.056 2.078-1.531 4.971-2.687 6.14-.316.32-.119.964-.019 1.187.211.458.756.179 1.322-.214.431-.296 1.167-1.06 1.464-.198.137.397.142 1.345-.103 2.262.557-.373 1.406-1.071 2.001-2.017.366-.581.718-1.52.387-2.016-.29-.44-1.146-.501-2.463-.192.257-.421 1.133-1.128 1.851-1.662.396-.295.666-.452.544-.687-.188-.366-.63-.449-.954-.481.116-.483.423-1.43 1.387-1.43.792 0 1.687.509 2.452.852 1.575.704 2.592.41 3.336-.945-1.653-.48-4.632-1.09-6.586-1.846-1.971-.764-3.441-2.003-1.996-3.937-.448-.933-1.055-.993-1.971-.675-1.503.521-4.735 2.582-6.646 2.242.481-1.266 2.838-2.975 4.446-3.71 3.261-1.491 7.416-2.457 9.864-3.568.154-.329.177-1.367-.537-2.265-1.441-1.818-.807-2.362-.201-3.006 1.034-1.096 2.997-1.818 5.256-1.885-.437.39-1.16 1.04-2.076 1.697-.772.552-1.017 1.35-.94 2.437.041.607 2.092.876 2.933.883 1.784.013 3.352-1.018 4.119-1.784 1.401-1.402 1.273-3.142.036-4.715 1.178.138 2.713 1.111 3.495 1.774.752.641 1.831 1.405 2.679.428 1.074-1.234.622-2.896 1.903-1.756.67.594.585 2.893.585 3.766.184-1.42 1.204-2.353 2.84-3.04 2.735-1.151 6.463-1.549 9.167-2.809a258 258 0 0 1 9.46 15.389A236 236 0 0 1 4.095-4.294C2.61-3.029 1.245-1.567 0 0" clip-path="url(#y)" style="fill:#fff;fill-opacity:1;fill-rule:nonzero;stroke:none" transform="matrix(1.33333 0 0 -1.33333 681.223 409.131)"></path><path d="M0 0c-2.037 1.77-5.272 2.767-6.716 1.57 1.864-.439 2.419-1.941 3.082-3.32.711-1.481 1.7-2.732 3.556-2.749.547-.003 1.18.107 1.926.357C1.902-2.57 1.395-1.211 0 0" clip-path="url(#z)" style="fill:#000;fill-opacity:1;fill-rule:nonzero;stroke:none" transform="matrix(1.33333 0 0 -1.33333 638.111 423.536)"></path><path d="M0 0c-2.136.508-3.235 2.747-4.286 4.858-.6 1.203-1.501 3.436-2.58 4.768-.836 1.037-1.821 1.275-3.051.33 1.021-.856 2.738-3.895 3.072-4.382.952-1.387 2.058-3.341 3.462-4.678C-2.073-.354-.887-.755 0 0" clip-path="url(#A)" style="fill:#000;fill-opacity:1;fill-rule:nonzero;stroke:none" transform="matrix(1.33333 0 0 -1.33333 648.088 396.617)"></path><path d="M0 0c-1.185.002-2.011.798-2.444 1.18-1.096.964-2.064 2.431-3.143 3.323-.993.82-2.104.744-3.22-.387C-7.61 2.706-5.326.966-4.194.266c1.241-.77 2.927-1.559 4.249-1.571 1.459-.009 2.182.623 2.519 2.515C1.72.358.749-.001 0 0" clip-path="url(#B)" style="fill:#000;fill-opacity:1;fill-rule:nonzero;stroke:none" transform="matrix(1.33333 0 0 -1.33333 658.105 413.634)"></path><path d="M0 0c-.641 1.566-.636 1.84-.764 3.14l2.956-.006C3.294 1.849 4.041-4.242 5.056-8.395c.397-1.617 1.027-3.184 2.083-3.137 1.035.047.844 1.825.166 4.193C5.982-2.72 2.318 4.696 1.786 6.03c-2.609 6.521-3.515 11.992-2.54 18.445-1.495-.463-2.508-1.356-3.481-2.795-1.451-2.143-1.37-5.231-1.071-7.203C-4.562 9.625-2.747 5.505-1.24.963-.512-1.238.183-3.28.753-5.328 1.265-2.737.492-1.195 0 0" clip-path="url(#C)" style="fill:#000;fill-opacity:1;fill-rule:nonzero;stroke:none" transform="matrix(1.33333 0 0 -1.33333 612.804 328.131)"></path><path d="M0 0c.189 1.704.313 4.015-2.161 5.153.339-3.46.879-7.061 1.405-9.964-.458-.144-.912-.348-.912-.76 0-.361.318-.424.827-.657.175 1.461.563 1.552 1.513 1.454.114-.624.629-1.319 1.123-.718.17.206.217.48.263.681C.033-3.887-.291-2.618 0 0" clip-path="url(#D)" style="fill:#000;fill-opacity:1;fill-rule:nonzero;stroke:none" transform="matrix(1.33333 0 0 -1.33333 614.838 344.364)"></path><path d="M0 0c-1.471 1.89-3.754 5.118-5.064 8.564-.355.936-.905 2.18-1.391 3.288-1.21 2.747-2.576 5.344-4.931 6.684-.135 1.568-.411 2.555-.18 4.063.174 1.13 1.085.846 2.186.288.775-.393 1.926-.95 2.304-.029-.927.071-1.159.439-1.596 1.351-.171.356-.385 1.396-.614 1.87-.342.705-.788 1.128-2.002 1.043-.5-2.082-2.732-1.451-4.28-2.84 1.021-2.157 3.075-6.717 5.532-11.251a74 74 0 0 1 4.075-6.635C-3.753 3.194-1.448 1.317 0 0" clip-path="url(#E)" style="fill:#000;fill-opacity:1;fill-rule:nonzero;stroke:none" transform="matrix(1.33333 0 0 -1.33333 638.447 398.46)"></path><path d="M0 0a24 24 0 0 0 4.66-2.573q.589.27 1.186.534A80 80 0 0 1 0 0" clip-path="url(#F)" style="fill:#fff;fill-opacity:1;fill-rule:nonzero;stroke:none" transform="matrix(1.33333 0 0 -1.33333 366.787 339.813)"></path><path d="M0 0a427 427 0 0 1-1.687 10.394 1236 1236 0 0 1-4.59 24.775 1246 1246 0 0 1-1.494 7.462L-55.74-110.917c2.523 1.256 4.585 2.969 6.196 5.104 3.389 4.495 5.349 10.22 8.798 14.294 2.236 2.644 5.199 4.544 9.486 5.411-.57-1.618-.287-3.035.746-4.551.615-.899 1.307-1.524 2.177-2.165L1.255-8.691C.898-6.1.496-3.291 0 0" clip-path="url(#G)" style="fill:#fce900;fill-opacity:1;fill-rule:nonzero;stroke:none" transform="matrix(1.33333 0 0 -1.33333 712.744 190.119)"></path><path d="M0 0a276 276 0 0 1 3.462-21.087 27 27 0 0 0 2.88-1.008 80 80 0 0 0 5.846-2.039q.697.311 1.406.616L-.631 5.582Q-.35 2.802 0 0" clip-path="url(#H)" style="fill:#fce900;fill-opacity:1;fill-rule:nonzero;stroke:none" transform="matrix(1.33333 0 0 -1.33333 358.33 310.354)"></path><path d="M0 0c3.057-2.78 6.249-5.259 8.303-6.65a274 274 0 0 1 5.669 30.937q.348 2.802.632 5.582z" clip-path="url(#I)" style="fill:#fce900;fill-opacity:1;fill-rule:nonzero;stroke:none" transform="matrix(1.33333 0 0 -1.33333 697.528 342.737)"></path><path d="M0 0a374 374 0 0 1-11.533 2.445l-27.905-158.423c1.189.103 2.263.146 3.05.146 1.088 0 1.863-.012 2.443-.053 2.73.149 4.635.107 7.092.082l.011-.129.055.018-.033-.222 1.509-15.265 2.038-3.909L12.495-3.161A267 267 0 0 1 0 0" clip-path="url(#J)" style="fill:#fce900;fill-opacity:1;fill-rule:nonzero;stroke:none" transform="matrix(1.33333 0 0 -1.33333 647.515 87.614)"></path><path d="M0 0a1229 1229 0 0 1-4.591-24.775 437 437 0 0 1-1.688-10.394c-.495-3.29-.897-6.1-1.255-8.691l34.193-97.21a238 238 0 0 0 18.383 4.568l1.327.317L1.492 7.462Q.734 3.73 0 0" clip-path="url(#K)" style="fill:#fce900;fill-opacity:1;fill-rule:nonzero;stroke:none" transform="matrix(1.33333 0 0 -1.33333 370.114 143.227)"></path><path d="m0 0 15.811-179.781c2.472 1.53 4.831 3.371 7.293 4.846 3.646 2.189 6.291 3.117 10.934 3.287l8.658-6.704c5.51 2.222 12.562 5.58 19.45 8.723L77.063 0c-12.32 1.203-24.937 1.787-38.532 1.8C24.936 1.787 12.32 1.203 0 0" clip-path="url(#L)" style="fill:#fce900;fill-opacity:1;fill-rule:nonzero;stroke:none" transform="matrix(1.33333 0 0 -1.33333 485.869 77.992)"></path><path d="M0 0a267 267 0 0 1-12.494-3.161l35.277-169.787c4.858 1.594 10.155 1.882 14.629 1.472l4.776-.107L11.534 2.445A376 376 0 0 1 0 0" clip-path="url(#M)" style="fill:#fce900;fill-opacity:1;fill-rule:nonzero;stroke:none" transform="matrix(1.33333 0 0 -1.33333 426.972 87.614)" data-source="https://football-logos.cc"></path><path d="M0 0c13.201 0 25.153-5.353 33.804-14.006 8.652-8.651 14.007-20.603 14.007-33.804 0-13.2-5.355-25.151-14.007-33.805C25.153-90.267 13.201-95.62 0-95.62c-13.199 0-25.153 5.353-33.805 14.005C-42.456-72.961-47.81-61.01-47.81-47.81c0 13.201 5.354 25.153 14.005 33.804C-25.153-5.353-13.199 0 0 0" clip-path="url(#N)" style="fill:#000;fill-opacity:1;fill-rule:nonzero;stroke:none" transform="matrix(1.33333 0 0 -1.33333 537.244 122.512)"></path><path d="M0 0c2.592-4.001 4.593-8.592 6.264-14.009-2.278-3.246-5.311-6.314-9.658-9.614-5.525 4.396-8.895 6.195-15.564 8.936l-.085-1.373c6.51-3.155 9.758-4.584 15.521-9.432 2.034 1.466 4.456 3.275 5.995 4.986a80 80 0 0 1 5.185 6.412C5.763-8.345 3.696-3.462.641 1.039Z" clip-path="url(#O)" style="fill:#575756;fill-opacity:1;fill-rule:nonzero;stroke:none" transform="matrix(1.33333 0 0 -1.33333 564.16 164.804)"></path><path d="M0 0a163 163 0 0 0 8.419-4.976 278 278 0 0 0-5.831-8.566l1.134.415C5.81-10.625 7.838-7.74 9.949-4.676A336 336 0 0 0 .749.408z" clip-path="url(#P)" style="fill:#575756;fill-opacity:1;fill-rule:nonzero;stroke:none" transform="matrix(1.33333 0 0 -1.33333 557.493 224.536)"></path><path d="M0 0c3.473-.175 6.848-.425 10.093-.776-1.176-2.452-2.049-5.186-2.518-8.295-6.763-1.412-11.842-2.968-16.363-6.286l.999-.941c5.439 3.755 9.176 4.967 16.449 6.065.393 3.935 1.756 7.798 3.11 9.864C8.333.255 4.423.519.385.621Z" clip-path="url(#Q)" style="fill:#575756;fill-opacity:1;fill-rule:nonzero;stroke:none" transform="matrix(1.33333 0 0 -1.33333 509.174 134.074)"></path><path d="M0 0c-3.296-2.553-5.191-4.36-5.968-5.576l5.76 4.393c1.92-1.946 3.778-3.73 5.784-5.215a33 33 0 0 1 6.079-3.574c-.659-4.9-1.185-9.781-1.554-14.717-2.517-.78-5.672-.96-10.013-.524l.912-.77c4.236-.275 7.569-.123 10.042.435.222 5.363.799 11.063 1.659 15.814-2.501 1.239-4.755 2.277-6.75 3.796C3.942-4.405 1.971-2.213 0 0" clip-path="url(#R)" style="fill:#575756;fill-opacity:1;fill-rule:nonzero;stroke:none" transform="matrix(1.33333 0 0 -1.33333 495.066 184.473)"></path><path d="M0 0c2.657-.242 5.392-1.027 8.322-2.279L7.68-1.203C5.397-.023 3.388.458.63.866-3.008 4.61-6.599 7.537-10.237 9.669l-.918-.333A54.3 54.3 0 0 0 0 0" clip-path="url(#S)" style="fill:#575756;fill-opacity:1;fill-rule:nonzero;stroke:none" transform="matrix(1.33333 0 0 -1.33333 573.023 143.937)"></path><path d="M0 0c3.848 1.301 8.141 2.186 12.436 2.536 3.507.286 7.022.216 10.304-.272.949.592 1.794 1.028 2.498 1.313A46.4 46.4 0 0 1 8.797 6.565a46.3 46.3 0 0 1-21.101-5.05 45 45 0 0 1-.134-.614C-7.839 1.169-3.159.789 0 0" clip-path="url(#T)" style="fill:#fff;fill-opacity:1;fill-rule:nonzero;stroke:none" transform="matrix(1.33333 0 0 -1.33333 525.515 132.975)"></path><path d="m0 0-.756 6.981c-3.349 1.137-6.67 2.503-9.773 4.212-3.173 1.747-6.121 3.855-8.65 6.442-3.626-.636-7.691-.716-11.187-.425-.391-1.009-.662-2.137-.829-3.362-.209-1.533-.253-3.22-.159-5.02C-23.058 1.157-11.963-3.53.225-3.53c6.31 0 12.326 1.256 17.813 3.533-3.502-.502-8.022-.811-11.059-.83C4.072-.847 1.602-.718 0 0" clip-path="url(#U)" style="fill:#fff;fill-opacity:1;fill-rule:nonzero;stroke:none" transform="matrix(1.33333 0 0 -1.33333 536.944 243.587)"></path><path d="M0 0c-1.596 1.097-3.088 2.319-4.374 3.653q-.64.666-1.211 1.37C-4.968-6.845.098-17.538 7.977-25.42a26.6 26.6 0 0 0 .215 3.917c.185 1.35.49 2.599.933 3.723-2.651 2.967-4.481 6.082-5.992 9.082C1.695-5.84.488-2.598 0 0" clip-path="url(#V)" style="fill:#fff;fill-opacity:1;fill-rule:nonzero;stroke:none" transform="matrix(1.33333 0 0 -1.33333 482.738 196.226)"></path><path d="M0 0c-2.91-2.434-6.274-4.533-9.798-6.261-2.164-3.147-4.206-6.197-6.199-8.302A46.75 46.75 0 0 1 3.535 3.381 35.5 35.5 0 0 0 0 0" clip-path="url(#W)" style="fill:#fff;fill-opacity:1;fill-rule:nonzero;stroke:none" transform="matrix(1.33333 0 0 -1.33333 585.782 222.605)"></path><path d="M0 0c2.645 3.699 5.731 6.646 8.852 8.653-.201 3.094-.027 6.457.472 9.745.48 3.154 1.257 6.248 2.289 8.981a11.8 11.8 0 0 0-2.754 2.803 21.6 21.6 0 0 0-2.153 3.879c-1.349-.213-2.409-.445-3.683-1.104A46.3 46.3 0 0 1-5.645 5.908v-.189a18 18 0 0 1 2.196-2.747A26.3 26.3 0 0 1 0 0" clip-path="url(#X)" style="fill:#fff;fill-opacity:1;fill-rule:nonzero;stroke:none" transform="matrix(1.33333 0 0 -1.33333 482.734 194.135)"></path><path d="M0 0a97 97 0 0 1-6.052 2.046c-1.581-2.158-3.511-4.229-5.521-6.069q-3.134-2.865-6.985-5.246c.418-2.857.514-5.659.306-8.429-.2-2.68-.685-5.329-1.434-7.964 3.416-2.01 6.947-4.081 9.972-5.378 3.442 1.689 6.727 3.739 9.568 6.113 2.416 2.018 4.504 4.27 6.086 6.731.366 3.033.66 6.091.655 8.674-.003 2.383-.124 4.951-.62 6.86C4.245-1.734 2.246-.851 0 0" clip-path="url(#Y)" style="fill:#fff;fill-opacity:1;fill-rule:nonzero;stroke:none" transform="matrix(1.33333 0 0 -1.33333 584.88 188.059)"></path><path d="M0 0c-4.126-.336-8.246-1.176-11.951-2.411-1.88-3.29-2.731-6.833-2.708-10.587 3.054-1.696 5.978-3.472 8.695-5.479 1.905-1.406 3.707-2.924 5.375-4.605 5.849 1.096 11.857 1.376 17.396.807 1.41 1.952 2.597 4.054 3.452 6.262.757 1.952 1.257 3.991 1.423 6.088-1.47 1.637-3.129 3.3-5.122 4.936-1.816 1.49-3.711 3.081-5.95 4.635C7.264.203 3.633.297 0 0" clip-path="url(#Z)" style="fill:#fff;fill-opacity:1;fill-rule:nonzero;stroke:none" transform="matrix(1.33333 0 0 -1.33333 542.228 131.298)"></path><path d="M0 0c.214 2.832.1 5.698-.364 8.621-5.097 3.575-10.142 6.823-15.818 9.537-2.316-1.408-4.865-2.734-7.543-3.947a90 90 0 0 0-9.725-3.728c-.905-3.315-1.533-7.155-1.569-11.727q-.015-1.927.081-4.014c2.483-2.602 5.424-4.718 8.603-6.469 2.863-1.578 5.916-2.856 9.005-3.93l-.001.021c5.454 1.599 10.859 4.159 15.792 7.408A39 39 0 0 1 0 0" clip-path="url(#aa)" style="fill:#fff;fill-opacity:1;fill-rule:nonzero;stroke:none" transform="matrix(1.33333 0 0 -1.33333 558.84 211.53)"></path><path d="M0 0q.041.204.085.41a46.8 46.8 0 0 1-13.796-11.676c.753.206 1.523.332 2.417.467C-8.66-6.908-4.896-3.347 0 0" clip-path="url(#ab)" style="fill:#fff;fill-opacity:1;fill-rule:nonzero;stroke:none" transform="matrix(1.33333 0 0 -1.33333 507.028 132.551)"></path><path d="M0 0c3.933-4.12 6.602-9.713 8.19-16.485a100 100 0 0 0 6.233-2.105c2.043-.774 3.89-1.577 5.525-2.417 1.89 2.643 3.44 5.118 4.576 7.384A46 46 0 0 1 21.149-.414c-2.09 4.634-6.695 9.708-7.199 10.269-3.075 1.349-5.596 2.118-9.085 2.167a23 23 0 0 0-1.431-5.713C2.571 4.081 1.394 1.966 0 0" clip-path="url(#ac)" style="fill:#fff;fill-opacity:1;fill-rule:nonzero;stroke:none" transform="matrix(1.33333 0 0 -1.33333 566.252 161.675)"></path><path d="M0 0c1.391 5.398 2.292 10.996 2.705 16.699-1.642 1.664-3.421 3.166-5.304 4.558-2.871 2.119-5.997 3.987-9.271 5.78-6.481-.817-11.398-2.633-15.474-5.613-1.17-2.846-2.043-6.175-2.561-9.584-.517-3.413-.678-6.898-.42-10.05 3.438-4.132 8.193-7.24 13.036-9.513a89 89 0 0 1 9.622 3.686C-4.935-2.799-2.34-1.441 0 0" clip-path="url(#ad)" style="fill:#fff;fill-opacity:1;fill-rule:nonzero;stroke:none" transform="matrix(1.33333 0 0 -1.33333 536.728 185.644)"></path><path d="M0 0c1.518 2.113 2.807 4.151 3.922 6.238l-.166 1.499C2.648 5.717 1.448 3.746.059 1.885c-3.368 1.519-6.864 2.791-10.661 3.97-1.467 5.726-3.579 10.401-7.095 15.137l-.746-1.015c2.979-3.265 6.348-9.606 7.709-15.919A88 88 0 0 0 0 0" clip-path="url(#ae)" style="fill:#f5f5f5;fill-opacity:1;fill-rule:nonzero;stroke:none" transform="matrix(1.33333 0 0 -1.33333 592.396 188.142)"></path><path d="M0 0c-.442-3.978-2.081-7.745-4.349-10.948-5.742.567-11.368.135-16.579-.823-1.751 1.496-3.389 3.007-5.269 4.363-2.163 1.558-4.449 3.062-6.907 4.42v-.708c2.682-1.66 5.454-3.191 7.953-5.035 1.928-1.426 2.974-2.195 5.484-4.642 5.127 1.117 11.076 1.226 16.78.913C-.643-9.405 1.11-5.275 1.379-1.444z" clip-path="url(#af)" style="fill:#f5f5f5;fill-opacity:1;fill-rule:nonzero;stroke:none" transform="matrix(1.33333 0 0 -1.33333 567.987 143.013)"></path><path d="M0 0a41.4 41.4 0 0 0 6.167-.448l.081.251C4.329.654.371 1.144-4.901.768-8.602.502-14.444-.455-17.376-1.69c-2.391.28-4.09.464-6.624.753l-1.621-.688c3.079-.192 6.306-.413 9.297-1.013C-12.183-1.046-5.49.006 0 0" clip-path="url(#ag)" style="fill:#f5f5f5;fill-opacity:1;fill-rule:nonzero;stroke:none" transform="matrix(1.33333 0 0 -1.33333 547.51 128.21)"></path><path d="m0 0-.776 6.804c-9.094 3.377-14.655 6.71-17.757 10.257-3.423-.483-6.944-.581-10.404-.434l-.012-.39c2.932-.278 6.125-.455 9.208-.271 3.561-3.668 9.133-6.911 17.022-9.553l.678-6.752C-1.018-1.379 1.5-1.648 4.317-1.66c1.805-.008 4.627-.011 5.918.438C5.241-1.498.93-1.187 0 0" clip-path="url(#ah)" style="fill:#f5f5f5;fill-opacity:1;fill-rule:nonzero;stroke:none" transform="matrix(1.33333 0 0 -1.33333 535.732 244.155)"></path><path d="m0 0-.42-.636a68 68 0 0 0 9.465-3.733c.806-4.003.662-9.224-.02-14.508-2.35-4.215-7.857-8.659-13.828-11.805l.83-.343c2.559 1.304 4.942 2.745 7.128 4.398 2.893 2.18 6.117 4.991 7.625 7.797.783 6.177.908 10.7.082 14.669C7.67-2.587 3.997-1.196 0 0" clip-path="url(#ai)" style="fill:#f5f5f5;fill-opacity:1;fill-rule:nonzero;stroke:none" transform="matrix(1.33333 0 0 -1.33333 577.192 186.776)"></path><path d="m0 0-.855-.618c4.554-2.386 9.241-5.208 13.682-8.424.829-3.813.734-8.844-.944-15.596-2.692-2.318-8.713-5.127-14.034-6.794l.932-.388c6.308 1.951 11.415 4.568 15.092 7.116 1.626 5.62 1.803 10.766 1.064 15.731A111.6 111.6 0 0 1 0 0" clip-path="url(#aj)" style="fill:#f5f5f5;fill-opacity:1;fill-rule:nonzero;stroke:none" transform="matrix(1.33333 0 0 -1.33333 537.286 188.694)"></path><path d="M0 0c1.317 5.966 2 10.792 2.528 15.882-3.815 3.875-8.754 6.832-13.78 9.633l-1.332-.217C-7.445 22.216-2.479 19.104.37 15.917-.033 11.364-.852 6.37-2.162.256-5.814-2.037-11.997-4.782-17.58-6.77l1.08-.51C-10.563-5.394-5.218-2.967 0 0" clip-path="url(#ak)" style="fill:#f5f5f5;fill-opacity:1;fill-rule:nonzero;stroke:none" transform="matrix(1.33333 0 0 -1.33333 535.68 184.959)"></path><path d="m0 0 .193-1.438 2.185-1.754c1.902-6.912 5.002-12.89 8.912-17.513-.349-1.319-.588-2.579-.685-3.76l.933-.958c.172 1.936.499 3.613.974 5.043C8.337-15.74 4.913-8.415 3.545-2.891z" clip-path="url(#al)" style="fill:#f5f5f5;fill-opacity:1;fill-rule:nonzero;stroke:none" transform="matrix(1.33333 0 0 -1.33333 476.851 193.064)"></path><path d="M0 0c-2.895-2.076-5.557-4.63-8.199-7.813l1.023-.924C-4.478-5.298-1.761-2.874.974-.965c-.132 7.849.727 12.064 2.593 17.952l-1.01.913C.879 12.992-.203 7.178 0 0" clip-path="url(#am)" style="fill:#f5f5f5;fill-opacity:1;fill-rule:nonzero;stroke:none" transform="matrix(1.33333 0 0 -1.33333 491.959 180.743)"></path><path d="M0 0a28 28 0 0 1-1.894.227 38 38 0 0 1-3.405.14 14 14 0 0 1-2.54-.225q-1.22-.228-2.14-.877-.919-.65-1.468-1.837t-.549-3.111v-14.612q0-.227.163-.396a.53.53 0 0 1 .386-.169h3.567q.22 0 .386.169a.55.55 0 0 1 .164.396v8.255h7.11c.145 0 .276.057.385.166a.57.57 0 0 1 .163.399v2.683a.56.56 0 0 1-.163.398.53.53 0 0 1-.385.17h-7.11v2.541q0 1.105.399 1.515.397.408 1.357.408H0q.218 0 .385.169a.55.55 0 0 1 .164.397v2.629Q.549-.085 0 0" clip-path="url(#an)" style="fill:#fff;fill-opacity:1;fill-rule:nonzero;stroke:none" transform="matrix(1.33333 0 0 -1.33333 603.127 468.376)"></path><path d="M0 0c0-.958-.282-1.678-.847-2.148q-.845-.704-2.706-.705h-.428q-.32 0-.695.013l-.694.028q-.318.015-.429.016v5.765q.111 0 .429.015l.668.029q.346.012.679.028.33.013.47.012 1.75.001 2.65-.634.902-.638.903-2.164Zm2.136 5.654Q.97 6.445-.527 6.757q-1.498.31-3.08.31-1.499-.002-3.038-.096A28 28 0 0 1-9.239 6.7q-.639-.113-.943-.367-.306-.255-.306-.99v-18.994q0-.228.166-.384a.55.55 0 0 1 .389-.153h3.579q.224 0 .387.168a.55.55 0 0 1 .168.397v6.869l1.138-.057q.609-.027 1.108-.028 1.555 0 3.039.324c.99.217 1.872.587 2.65 1.119a5.85 5.85 0 0 1 1.873 2.104Q4.715-1.978 4.717 0v.255q-.002 1.978-.708 3.295a5.85 5.85 0 0 1-1.873 2.104" clip-path="url(#ao)" style="fill:#fff;fill-opacity:1;fill-rule:nonzero;stroke:none" transform="matrix(1.33333 0 0 -1.33333 579.193 477.272)"></path><path d="M0 0h-7.529q-.306 0-.307.198 0 .113.141.311l7.862 12.21q.223.367.223.735v.65q0 .284.013.61.015.325.015.634 0 .14-.015.27a2 2 0 0 0-.013.211v.197a.65.65 0 0 1-.335.594 1.5 1.5 0 0 1-.781.198h-12.016a.55.55 0 0 1-.391-.154.5.5 0 0 1-.169-.383v-3.11q0-.224.169-.38a.56.56 0 0 1 .391-.157H-5.8q.306 0 .306-.226a.46.46 0 0 0-.111-.283L-13.385.198a3 3 0 0 1-.334-.666 2 2 0 0 1-.084-.578v-2.262q.001-.48.335-.678.333-.198.808-.198H0q.222 0 .39.169a.55.55 0 0 1 .168.397v3.109a.46.46 0 0 1-.168.367A.58.58 0 0 1 0 0" clip-path="url(#ap)" style="fill:#fff;fill-opacity:1;fill-rule:nonzero;stroke:none" transform="matrix(1.33333 0 0 -1.33333 555.762 490.612)"></path><path d="m0 0 6.587 9.553q.139.225.138.395 0 .311-.443.312H2.048q-.416 0-.61-.34L-4.65.735v8.988q0 .226-.167.382a.55.55 0 0 1-.388.155H-8.83a.55.55 0 0 1-.388-.155.5.5 0 0 1-.167-.382v-19.9q.001-.226.167-.396a.53.53 0 0 1 .388-.169h3.625q.222 0 .388.169a.55.55 0 0 1 .167.396v9.159l5.619-9.329a1.4 1.4 0 0 1 .234-.283q.127-.112.374-.112h4.762q.387 0 .386.282a.5.5 0 0 1-.11.312z" clip-path="url(#aq)" style="fill:#fff;fill-opacity:1;fill-rule:nonzero;stroke:none" transform="matrix(1.33333 0 0 -1.33333 618.58 481.867)"></path><path d="M0 0q0-1.743-.897-2.629t-2.405-.886q-1.505 0-2.368.87-.86.873-.861 2.645v.126H0Zm2.475 12.094a7.2 7.2 0 0 1-2.722 1.593 10 10 0 0 1-3.023.48q-2.184 0-3.727-.223a18 18 0 0 1-1.629-.292c-.9-.201-1.258-.43-1.258-1.143V9.986c0-.986.696-.707 1.844-.575 1.707.195 2.758.349 4.383.349.673 0 1.863-.305 2.298-.528.96-.49 1.651-.911 1.651-3.443V3.66h-10.96c-.469 0-.966-.182-.966-.776l.002-.94c0-1.407.173-2.588.52-3.772q.519-1.776 1.561-3.072a7.3 7.3 0 0 1 2.604-2.036c1.04-.496 2.237-.612 3.603-.612 1.343 0 2.549.101 3.601.556a7.34 7.34 0 0 1 2.67 1.944Q4.02-3.789 4.591-1.976q.572 1.813.571 4.037v2.591q0 2.667-.738 4.498-.74 1.833-1.949 2.944" clip-path="url(#ar)" style="fill:#fff;fill-opacity:1;fill-rule:nonzero;stroke:none" transform="matrix(1.33333 0 0 -1.33333 529.484 486.432)"></path><path d="M0 0q0-1.743-.898-2.629t-2.403-.886q-1.508 0-2.37.87-.861.873-.861 2.645v.126H0Zm2.474 12.094a7.2 7.2 0 0 1-2.722 1.593 10 10 0 0 1-3.022.48q-2.185 0-3.729-.223c-.612-.088-1-.151-1.626-.292-.902-.201-1.26-.43-1.26-1.143V9.986c0-.986.696-.707 1.843-.575 1.708.195 2.759.349 4.384.349.673 0 1.863-.305 2.298-.528.96-.49 1.651-.911 1.651-3.443V3.66h-10.96c-.469 0-.966-.182-.966-.776l.002-.94c0-1.407.173-2.588.52-3.772q.52-1.776 1.561-3.072a7.3 7.3 0 0 1 2.604-2.036c1.041-.496 2.237-.612 3.603-.612 1.343 0 2.549.101 3.601.556a7.3 7.3 0 0 1 2.67 1.944q1.093 1.259 1.663 3.072.572 1.813.572 4.037v2.591q0 2.667-.74 4.498-.737 1.833-1.947 2.944" clip-path="url(#as)" style="fill:#fff;fill-opacity:1;fill-rule:nonzero;stroke:none" transform="matrix(1.33333 0 0 -1.33333 484.336 486.432)"></path><path d="M0 0q0 .311-.443.312h-4.234q-.416 0-.61-.34l-6.089-9.185v8.987a.5.5 0 0 1-.166.383.55.55 0 0 1-.387.155h-3.626a.55.55 0 0 1-.388-.155.5.5 0 0 1-.167-.383v-19.899q0-.227.167-.396a.53.53 0 0 1 .388-.169h3.626q.22 0 .387.169a.56.56 0 0 1 .166.396v9.159l5.62-9.329q.11-.17.234-.283c.085-.075.207-.112.374-.112h4.761q.387 0 .387.282a.5.5 0 0 1-.11.311L-6.726-9.948-.139-.396Q.001-.17 0 0" clip-path="url(#at)" style="fill:#fff;fill-opacity:1;fill-rule:nonzero;stroke:none" transform="matrix(1.33333 0 0 -1.33333 468.421 468.603)"></path><path d="M0 0c0-.958-.283-1.678-.847-2.148q-.846-.704-2.706-.705h-.428q-.32 0-.695.013l-.694.028q-.318.015-.429.016v5.765q.111 0 .429.015l.668.029q.346.012.678.028.334.013.471.012 1.75.001 2.652-.634.9-.638.901-2.164Zm2.136 5.654Q.97 6.445-.528 6.757q-1.498.31-3.08.31-1.498-.002-3.037-.096A28 28 0 0 1-9.24 6.7q-.638-.113-.942-.367-.305-.255-.305-.99v-18.994q0-.228.165-.384a.55.55 0 0 1 .389-.153h3.579q.222 0 .389.168.165.17.166.397v6.869l1.137-.057q.611-.027 1.109-.028 1.555 0 3.039.324c.99.217 1.872.587 2.65 1.119a5.83 5.83 0 0 1 1.872 2.104Q4.715-1.978 4.716 0v.255q0 1.978-.708 3.295a5.84 5.84 0 0 1-1.872 2.104" clip-path="url(#au)" style="fill:#fff;fill-opacity:1;fill-rule:nonzero;stroke:none" transform="matrix(1.33333 0 0 -1.33333 506.892 477.272)"></path><path d="M0 0q-.49.358-1.216.506A8.5 8.5 0 0 1-2.892.65h-3.686q-.827 0-1.377-.038a3.5 3.5 0 0 1-.917-.169 1.7 1.7 0 0 1-.606-.352 2.1 2.1 0 0 1-.42-.587h-.03v3.458H.581v1.225h-11.916v-5.909h1.345q.138.382.344.614.206.229.498.351.29.122.659.151.365.034.808.035h4.27q.84 0 1.416-.111.571-.107.918-.351.342-.245.496-.66.154-.412.154-1.024v-.506a7.7 7.7 0 0 0-.085-1.262q-.084-.498-.407-.789c-.212-.195-.534-.327-.963-.406q-.641-.116-1.759-.116h-4.237q-.78 0-1.233.154-.45.154-.679.447a1.45 1.45 0 0 0-.292.71q-.06.423-.061.97h-1.407v-.229q0-.87.168-1.492.17-.617.558-1.018.391-.397 1.049-.581.657-.185 1.652-.186h4.942q1.407 0 2.233.217.827.213 1.254.619.429.406.549.996.126.588.125 1.338v1.347q0 .92-.247 1.533A2.17 2.17 0 0 1 0 0" clip-path="url(#av)" style="fill:#fff;fill-opacity:1;fill-rule:nonzero;stroke:none" transform="matrix(1.33333 0 0 -1.33333 549.252 518.367)"></path><path d="m0 0 .763-.965 4.135 3.292v-9.801h1.406V3.612H4.548Z" clip-path="url(#aw)" style="fill:#fff;fill-opacity:1;fill-rule:nonzero;stroke:none" transform="matrix(1.33333 0 0 -1.33333 496.985 517.6)"></path><path d="M0 0a1.1 1.1 0 0 0-.46-.659q-.356-.244-1.03-.352-.673-.107-1.808-.107h-2.12c-.908 0-1.623.015-2.143.054-.519.034-.904.126-1.157.266a.91.91 0 0 0-.469.619q-.092.407-.092 1.128 0 .84.19 1.294.19.449.627.656.44.208 1.151.246t1.742.038h2.027q.956 0 1.651-.029.695-.032 1.134-.239.44-.207.653-.644.21-.435.211-1.247Q.107.411 0 0m1.144 2.946q-.356.651-.94.971a3.5 3.5 0 0 1-1.308.408q-.726.082-1.453.082h-3.694a20 20 0 0 1-1.741-.069q-.801-.066-1.4-.367a2.2 2.2 0 0 1-.939-.893q-.34-.6-.341-1.655V.38q0-1.437.757-2.082.759-.641 2.362-.641h5.056q.38.001.771.044.395.046.743.192.347.144.629.43.28.284.431.741h.03v-2.971q0-.547-.22-.902a1.6 1.6 0 0 0-.553-.549 2.1 2.1 0 0 0-.739-.271 5 5 0 0 0-.789-.069h-4.495q-.744.001-1.219.11-.479.103-.749.305a1.06 1.06 0 0 0-.38.474c-.069.182-.106.39-.106.613v.672h-1.392v-.49q0-.67.174-1.21c.116-.354.328-.663.636-.917q.462-.383 1.258-.581.793-.201 2.02-.201h4.466q.558 0 1.172.132.614.128 1.128.459.515.33.848.895c.222.38.333.851.333 1.423v5.193q0 1.117-.356 1.767" clip-path="url(#ax)" style="fill:#fff;fill-opacity:1;fill-rule:nonzero;stroke:none" transform="matrix(1.33333 0 0 -1.33333 568.276 518.497)"></path><path d="M0 0a1.1 1.1 0 0 0-.462-.659q-.356-.244-1.029-.352-.674-.107-1.809-.107h-2.12c-.908 0-1.621.015-2.142.054-.519.034-.905.126-1.158.266a.93.93 0 0 0-.47.619q-.09.407-.089 1.128 0 .84.188 1.294.19.449.629.656t1.15.246 1.741.038h2.029q.954 0 1.649-.029.698-.032 1.136-.239a1.35 1.35 0 0 0 .652-.644q.21-.435.21-1.247Q.105.411 0 0m.204 3.917a3.5 3.5 0 0 1-1.308.408q-.729.082-1.455.082h-3.694q-.938.002-1.74-.069-.803-.066-1.401-.367a2.2 2.2 0 0 1-.938-.893q-.34-.6-.34-1.655V.38q-.001-1.437.757-2.082.755-.641 2.362-.641h5.055q.378.001.772.044.393.046.743.192.347.144.626.43.281.284.432.741h.03v-2.971q0-.547-.218-.902a1.6 1.6 0 0 0-.553-.549 2.1 2.1 0 0 0-.741-.271 5 5 0 0 0-.789-.069h-4.495q-.742.001-1.219.11-.476.103-.749.305-.272.2-.378.474c-.071.182-.106.39-.106.613v.672h-1.393v-.49q0-.67.175-1.21c.116-.354.328-.663.634-.917q.462-.383 1.258-.581.794-.201 2.02-.201h4.465q.561 0 1.173.132.614.128 1.13.459.514.33.846.895c.222.38.333.851.333 1.423v5.193q0 1.117-.356 1.767-.355.651-.938.971" clip-path="url(#ay)" style="fill:#fff;fill-opacity:1;fill-rule:nonzero;stroke:none" transform="matrix(1.33333 0 0 -1.33333 528.451 518.497)" data-source="https://football-logos.cc"></path><!-- source: https://football-logos.cc --></svg>