<svg xmlns="http://www.w3.org/2000/svg" xml:space="preserve" viewBox="23.36 11.66 210.29 234.33"><!-- Source: https://football-logos.cc --><path d="M1151.94 1684.05h312.03l178.34-196.64c-24.11-41.3-45.09-83.03-60.49-128.34-18.52-54.46-28.79-110.49-32.81-167.62-.89-14.96-1.56-29.91-1.34-45.09.22-31.7 1.79-63.62 4.69-95.31 2.9-29.68 6.92-58.925 12.5-88.163 5.13-26.117 10.94-52.227 16.74-78.121l.22-1.118.89 1.118c13.62 16.964 29.92 31.918 48.66 42.855 17.19 9.82 36.38 13.84 55.8 10.492 26.34-5.582 36.83-23.664 43.3-48.437 5.36-21.203 4.69-42.856 6.48-64.504 2.01-26.563 7.59-52.231 15.4-77.672-8.48-24.332-22.55-37.5-43.08-49.105h-.23c3.58-40.625-4.01-80.129-18.52-117.625-22.77-58.481-58.92-108.704-106.02-149.993-43.52-38.168-94.41-65.843-147.09-89.726l-14.5-6.477c-75.23-34.148-154.02-59.144-229.68-91.953l-12.72-5.582-12.72-5.805c-41.74-18.968-81.47-41.961-118.75-68.968-31.47-22.766-59.817-49.106-85.485-77.227-30.578 32.813-59.371 58.031-92.403 80.352-46.648 31.918-95.308 58.925-147.312 81.023-75.887 32.363-155.125 56.469-230.344 90.621-46.871 21.426-90.394 46.199-130.574 78.34l-4.91 4.02c-50.664 40.621-92.18 87.492-116.731 149.765-16.07 41.293-25.222 85.488-22.992 129.903l-1.562.894c-21.204 10.492-33.704 24.773-41.516 48.211 4.242 15.848 8.258 31.918 11.16 48.211 3.348 18.523 4.02 36.383 5.133 55.133 1.117 22.093 4.465 47.316 15.851 64.949l1.336 2.23c8.036 12.5 18.305 17.188 33.036 19.868 20.086 3.347 37.273-1.34 54.683-11.383 18.75-10.715 33.481-25.223 47.094-41.965l1.562-2.231.223.895c7.145 32.809 15.18 65.172 20.535 98.207 8.93 55.348 13.395 110.708 13.617 166.728.223 45.54-4.242 90.18-13.39 135.04-7.813 38.83-18.305 77.45-33.707 114.06-13.168 31.47-30.356 60.26-47.762 89.5l178.559 196.64 312.035-.23v-18.74c.894-58.48 25.89-111.83 72.762-148.44 19.199-14.95 41.519-26.78 67.183-33.25 15.402-3.79 31.473-6.25 49.106-6.25 10.714-.22 20.757.89 30.578 2.46 66.295 10.71 117.175 56.91 140.615 108.69 5.36 11.84 9.6 23.89 11.83 36.16 2.9 14.06 4.46 26.57 4.69 40.18z" style="fill:#231f20;fill-opacity:1;fill-rule:evenodd;stroke:none" transform="matrix(.13333 0 0 -.13333 0 257.333)" data-source="https://football-logos.cc"></path><path d="m296.188 1486.07 171.195 188.6h298.418c0-8.7 0-17.19.672-25.44 3.57-41.74 19.414-77.9 42.183-106.92 36.379-45.97 91.735-73.43 155.125-74.54 85.039-1.57 177.669 62.05 194.409 164.27 2.23 13.62 3.12 27.9 3.12 42.63h298.42l171.2-188.6c-43.53-73.44-69.86-143.74-83.93-228.11-5.13-33.48-8.25-66.96-8.7-100.66-.23-57.82 3.79-114.06 12.72-170.976 6.7-38.394 15.4-76.336 23.66-114.281.89-4.02 1.78-8.258 2.68-12.273 14.28 26.335 40.18 50.218 63.16 62.046 15.18 8.036 38.17 11.387 54.91 4.02 6.92-3.125 12.72-7.367 16.52-14.734 15.62-28.567 13.17-55.797 15.62-86.825 2.23-28.121 8.48-55.574 14.95-76.554-7.36-20.09-23.65-34.371-43.29-43.973 12.05-108.031-59.37-218.512-134.82-277.66-121.86-95.305-315.38-139.277-436.13-204.008-76.78-41.066-120.98-77.004-164.725-123.43C911.773 153.563 837.223 205.57 747.5 246.188c-105.129 47.769-229.453 78.792-328.328 141.066-55.133 34.594-107.359 80.797-139.949 129.008-36.602 54.238-56.246 131.91-51.114 188.383-14.285 7.14-34.148 16.293-43.074 43.746 6.469 24.55 14.953 60.711 15.399 90.843.445 43.079 10.269 76.559 27.675 85.039 54.016 26.118 110.039-41.07 121.422-65.398 2.457 10.266 4.016 20.535 6.696 30.801 22.32 87.719 32.812 176.774 32.586 267.624 0 49.54-6.469 98.65-17.407 146.19-8.703 38.39-19.863 75.67-36.383 111.6-11.16 24.33-25 47.99-38.835 70.98" style="fill:#fff;fill-opacity:1;fill-rule:evenodd;stroke:none" transform="matrix(.13333 0 0 -.13333 0 257.333)"></path><path d="m349.98 1483.61 134.813 148.66h239.27l.222-4.02 1.785-11.39 2.231-11.38 2.679-10.94 3.125-10.93 3.797-10.72 4.239-10.26 4.687-10.27 5.137-9.82 5.578-9.6 5.801-9.37 6.476-8.93 6.696-8.71 7.14-8.48 7.59-8.03 7.813-7.59 8.257-7.37 8.704-7.14 8.707-6.47 9.375-6.25 9.371-5.58 9.824-5.36 10.043-4.91 10.265-4.46 10.493-3.8 10.711-3.57 10.941-2.9 11.16-2.46 11.379-2.01 11.609-1.34 11.606-.89 11.832-.22 11.828.22 11.606.89 11.605 1.34 11.385 2.01 11.16 2.46 10.94 2.9 10.71 3.57 10.49 3.8 10.27 4.46 10.04 4.91 9.82 5.36 9.38 5.58 9.14 6.25 8.93 6.47 8.71 7.14 8.04 7.37 8.03 7.59 7.59 8.03 7.14 8.48 6.7 8.71 6.47 8.93 5.81 9.37 5.57 9.6 5.14 9.82 4.68 10.27 4.25 10.26 3.57 10.72 3.34 10.93 2.68 10.94 2.23 11.38 1.79 11.39.23 4.02h239.04l134.81-148.66-2.45-4.23-5.36-9.83-5.35-10.04-4.91-10.05-4.69-10.26-4.69-10.27-4.24-10.49-4.24-10.71-4.02-10.72-3.57-10.71-3.57-10.71-3.35-10.94-3.35-10.72-2.9-10.93-2.68-10.94-2.68-10.93-2.45-10.72-2.23-10.94-2.01-10.71-2.01-10.71-1.78-10.72-1.57-10.49-1.56-10.49-1.12-10.26-1.11-10.27-1.12-10.05-.89-9.82-.67-9.82-.45-9.59-.44-9.38-.45-9.15v-32.37l.45-22.32.89-21.65 1.11-20.76 1.79-19.86 1.79-19.19 2.23-18.31 2.67-17.628 2.68-16.965 2.68-16.516 3.13-15.847 3.12-15.176 3.13-14.734 3.12-14.508 3.13-13.836 2.9-13.617 2.9-13.168 2.9-12.946 2.46-12.5 2.45-12.5 2.24-12.277 1.78-12.051 1.56-12.051 1.12-12.054.89-12.051.22-12.055-.22-12.277-.44-12.277-1.34-12.496-1.79-12.723-2.23-12.945-3.12-13.395-2.68-9.82-3.35-9.598-3.8-9.598-4.46-9.375-4.91-9.148-5.36-9.152-5.8-8.926-6.47-8.707-6.92-8.703-7.37-8.485-7.59-8.257-8.25-8.258-8.49-8.035-8.92-7.813-9.16-7.812-9.59-7.59-10.05-7.364-10.27-7.144-10.49-7.141-10.93-6.918-10.94-6.922-11.38-6.472-11.61-6.473-11.61-6.25-11.83-6.25-12.27-6.027-12.05-5.801-12.5-5.578-12.28-5.582-12.72-5.36-12.5-5.132-12.72-5.133-8.71-3.348-8.7-3.347-8.93-3.125-8.93-3.348-8.7-3.125-9.15-3.125-8.93-3.348-8.93-3.125-9.15-3.347-9.15-3.348-8.93-3.348-9.15-3.574-9.38-3.57-9.15-3.571-9.15-3.793-9.15-4.019-9.38-4.238-9.15-4.243-9.37-4.464-9.16-4.688-9.37-4.91-9.15-4.91-9.15-5.356-9.37-5.804-9.15-5.805-9.16-6.027-9.15-6.469-9.148-6.695-9.152-7.145-9.153-7.363-9.148-7.813-3.348-3.129-2.011 2.235-8.032 6.922-8.039 6.918-8.258 6.472-8.48 6.25-8.484 6.028-8.704 5.8-8.703 5.801-8.707 5.359-8.925 5.133-9.153 4.91-9.148 4.914-9.157 4.684-9.148 4.465-9.375 4.465-9.375 4.015-9.598 4.243-9.375 4.015-9.597 3.797-9.371 4.016-9.602 3.57-9.598 3.797-9.597 3.57-9.817 3.574-9.601 3.567-9.598 3.574-9.598 3.57-9.597 3.571-9.594 3.574-9.375 3.57-9.598 3.571-9.375 3.57-12.726 5.133-12.719 5.132-12.5 5.36-12.5 5.582-12.273 5.578-12.278 5.801-12.054 6.027-11.828 6.25-11.829 6.25-11.382 6.473-11.387 6.472-11.16 6.922-10.715 6.918-10.488 7.141-10.266 7.144-10.047 7.364-9.594 7.59-9.152 7.812-8.926 7.813-8.707 8.035-8.035 8.258-7.812 8.257-7.145 8.485-6.918 8.703-6.473 8.707-5.8 8.926-5.36 9.152-4.91 9.148-4.465 9.375-3.793 9.598-3.347 9.598-2.903 9.82-2.902 13.395-2.453 12.945-1.563 12.723-1.34 12.496-.671 12.277v12.277l.226 12.055.891 12.051L381 787.23l1.566 12.051 1.786 12.051 2.23 12.277 2.231 12.5 2.679 12.5 2.903 12.946 2.902 13.168 2.902 13.617 3.121 13.836 3.129 14.508 3.125 14.734 3.125 15.176 2.899 15.847 2.902 16.516 2.68 16.965 2.457 17.628 2.23 18.31 2.008 19.19 1.785 19.86 1.117 20.76.891 21.65.449 22.32v23.44l-.226 8.93-.223 9.15-.445 9.38-.446 9.59-.89 9.82-.672 9.82-1.117 10.05-1.114 10.27-1.343 10.26-1.336 10.49-1.563 10.49-1.785 10.72-2.012 10.71-2.004 10.71-2.234 10.94-2.457 10.72-2.676 10.93-2.679 10.94-3.125 10.93-3.125 10.72-3.348 10.94-3.57 10.71-3.571 10.71-4.019 10.72-4.242 10.71-4.243 10.49-4.683 10.27-4.688 10.26-4.91 10.05-5.359 10.04-5.356 9.83z" style="fill:#fff;fill-opacity:1;fill-rule:evenodd;stroke:none" transform="matrix(.13333 0 0 -.13333 0 257.333)"></path><path d="m343.953 1481.16 140.391 154.9h248.648c8.926-119.63 108.696-213.83 230.563-213.83 121.865 0 221.645 94.2 230.345 213.83h248.65l140.61-154.9c-60.26-98.88-82.36-231.24-83.48-323.64-2.89-251.551 80.36-335.918 43.75-483.008-27.23-109.813-156.91-190.168-292.61-243.067-92.63-36.156-193.07-59.371-286.816-145.972-80.129 77.675-187.266 106.914-287.93 145.972-135.48 52.899-265.16 133.254-292.394 243.067-36.602 147.09 46.652 231.457 43.746 483.008-1.113 92.4-23.434 224.76-83.473 323.64m10.043-.89 134.145 147.53h237.484l.445-4.01 1.563-11.16 2.23-11.39 2.68-10.94 3.348-10.71 3.57-10.49 4.242-10.49 4.688-10.05 4.91-9.81 5.582-9.6 6.027-9.16 6.246-9.15 6.696-8.48 7.144-8.48 7.586-8.04 7.813-7.58 8.261-7.15 8.481-6.91 8.707-6.7 9.148-6.03 9.375-5.8 9.821-5.13 10.046-4.91 10.043-4.47 10.489-3.79 10.714-3.58 10.938-2.9 11.16-2.45 11.16-1.79 11.383-1.56 11.606-.67 11.828-.44 11.828.44 11.609.67 11.383 1.56 11.165 1.79 11.16 2.45 10.93 2.9 10.72 3.58 10.49 3.79 10.04 4.47 10.05 4.91 9.59 5.13 9.6 5.8 9.15 6.03 8.71 6.7 8.48 6.91 8.25 7.15 7.82 7.58 7.59 8.04 6.92 8.48 6.91 8.48 6.25 9.15 6.03 9.16 5.36 9.6 5.13 9.81 4.69 10.05 4.02 10.49 3.79 10.49 3.13 10.71 2.9 10.94 2.01 11.16 1.78 11.39.45 4.01h237.48l134.15-147.53-2.68-4.24-5.36-9.83-5.13-9.82-4.91-10.04-4.91-10.27-4.47-10.27-4.24-10.49-4.24-10.49-3.79-10.71-3.8-10.49-3.57-10.71-3.35-10.94-3.12-10.72-2.91-10.93-2.89-10.71-2.46-10.94-2.46-10.72-2.23-10.71-2.01-10.71-2-10.71-1.79-10.5-1.56-10.49-1.34-10.49-1.34-10.27-1.12-10.04-1.12-10.04-.66-9.82-.67-9.6-.67-9.6-.45-9.38-.22-9.14-.22-8.71v-23.44l.44-22.32.9-21.43 1.34-20.53 1.56-19.64 2-19.19 2.24-18.08 2.45-17.637 2.68-16.961 2.68-16.293 3.12-15.625 2.91-15.176 3.12-14.734 3.13-14.286 3.12-13.835 3.12-13.395 2.91-13.168 2.67-12.945 2.68-12.5 2.23-12.278 2.23-12.273 1.79-12.051 1.57-12.055 1.11-11.828.67-12.054.45-11.832-.23-12.274-.44-12.051-1.34-12.504-1.56-12.718-2.46-12.949-2.9-13.168-2.9-9.821-3.13-9.597-4.02-9.375-4.23-9.372-4.91-9.156-5.36-8.926-5.8-8.929-6.48-8.703-6.7-8.703-7.36-8.262-7.59-8.481-8.26-8.035-8.48-8.035-8.7-7.812-9.38-7.586-9.37-7.59-10.04-7.367-10.05-7.141-10.49-7.141-10.71-6.922-11.16-6.695-11.16-6.473-11.39-6.472-11.83-6.25-11.83-6.25-11.83-5.805-12.27-5.801-12.28-5.804-12.28-5.356-12.49-5.359-12.5-5.133-12.73-4.91-8.7-3.348-8.71-3.347-8.7-3.125-8.71-3.348-8.92-3.125-8.93-3.125-8.93-3.348-8.93-3.125-9.15-3.347-8.93-3.348-9.15-3.352-8.93-3.347-9.15-3.567-9.15-3.797-9.15-3.796-9.15-3.793-9.15-4.239-9.38-4.242-9.15-4.465-9.15-4.465-9.15-4.906-9.15-5.137-9.38-5.355-9.15-5.582-9.15-5.801-9.15-6.027-9.15-6.473-8.928-6.695-9.152-6.918-8.93-7.367-9.148-7.813-3.348-2.902-2.012 2.008-8.035 6.922-8.031 6.917-8.262 6.473-8.258 6.25-8.48 6.024-8.481 5.808-8.707 5.578-8.703 5.356-8.93 5.133-8.925 4.91-9.157 4.691-9.148 4.684-9.148 4.465-9.375 4.464-9.375 4.016-9.375 4.242-9.375 4.02-9.375 3.793-9.598 3.793-9.375 3.793-9.594 3.574-9.601 3.57-9.598 3.571-9.598 3.574-9.375 3.57-9.597 3.57-9.598 3.571-9.375 3.347-9.598 3.571-9.371 3.574-9.375 3.793-12.722 4.91-12.5 5.133-12.5 5.359-12.278 5.356-12.273 5.804-12.278 5.801-11.828 5.805-12.05 6.25-11.61 6.25-11.383 6.472-11.16 6.473-11.16 6.695-10.715 6.922-10.488 7.141-10.043 7.141-10.043 7.367-9.598 7.59-9.152 7.586-8.93 7.812-8.48 8.035-8.035 8.035-7.59 8.481-7.363 8.262-6.7 8.703-6.472 8.703-5.801 8.929-5.359 8.926-4.907 9.156-4.465 9.372-3.796 9.375-3.348 9.597-2.68 9.821-2.898 13.168-2.457 12.949-1.563 12.718-1.34 12.504-.668 12.051v12.274l.223 11.832.891 12.054 1.117 11.828 1.562 12.055 1.786 12.051 2.011 12.273 2.453 12.278 2.68 12.5 2.68 12.945 2.898 13.168 3.125 13.395 3.125 13.835 3.125 14.286 2.903 14.734 3.125 15.176 2.902 15.625 2.902 16.293 2.676 16.961 2.457 17.637 2.231 18.08 2.007 19.19 1.563 19.64 1.34 20.53.89 21.43.45 22.32v23.44l-.223 8.71-.227 9.14-.441 9.38-.672 9.6-.672 9.6-.89 9.82-.895 10.04-1.113 10.04-1.34 10.27-1.34 10.49-1.562 10.49-1.786 10.5-2.007 10.71-2.012 10.71-2.231 10.71-2.453 10.72-2.679 10.94-2.68 10.71-2.899 10.93-3.128 10.72-3.348 10.94-3.57 10.71-3.793 10.49-3.797 10.71-4.239 10.49-4.242 10.49-4.465 10.27-4.91 10.27-4.91 10.04-5.133 9.82-5.355 9.83z" style="fill:#bdbcbc;fill-opacity:1;fill-rule:evenodd;stroke:none" transform="matrix(.13333 0 0 -.13333 0 257.333)"></path><path d="m342.836 1481.16 140.391 154.9h45.98V503.094c-72.984 45.98-129.902 102.898-146.863 171.418-36.383 147.09 46.871 231.457 43.969 483.008-1.118 92.4-23.438 224.76-83.477 323.64m479.656-11.83c38.836-29.46 87.274-47.1 139.949-47.1 53.119 0 102.009 17.86 141.059 47.99V376.094c-47.32-20.981-94.86-48.215-140.613-90.621-41.293 39.953-89.504 66.961-140.395 89.281zm574.078 166.73h44.86l140.61-154.9c-60.26-98.88-82.58-231.24-83.47-323.64-2.9-251.551 80.13-335.918 43.75-483.008-16.97-68.074-72.99-124.77-145.75-170.528z" style="fill:#231f20;fill-opacity:1;fill-rule:evenodd;stroke:none" transform="matrix(.13333 0 0 -.13333 0 257.333)"></path><path d="M963.555 235.027c-50.219 84.598-148.653 118.969-256.012 159.594-79.012 29.684-141.73 52.227-220.074 106.016C406 556.215 358.012 632.328 352.434 732.543c-4.911 90.172-25.446 134.145-62.942 162.492-16.293 12.496-52.898 18.524-60.933-7.59-7.59-24.554 8.703-47.543 28.789-63.836 10.047-7.812 29.465-18.75 39.957-12.5 10.265 6.25 6.023 28.348-4.91 36.161-8.036 5.578-18.754 4.46-19.196-2.457l-3.125-.891c-3.129 9.594-6.25 28.121 1.563 33.48 26.558-12.5 39.504-42.41 37.496-71.871-2.457-38.168-38.168-57.586-49.106-103.121-8.703-35.265-1.562-74.097 11.383-110.48 25-69.641 78.344-134.59 142.852-173.43 68.074-41.066 147.535-74.77 225.879-105.57 108.027-42.41 235.695-86.828 315.828-176.778 4.238-4.91 7.586-8.929 7.586-8.703 0-.226 3.347 3.793 7.59 8.703 80.125 89.95 207.805 134.368 315.825 176.778 78.12 30.8 157.81 64.504 225.88 105.57 64.51 38.84 117.85 103.789 142.63 173.43 12.95 36.383 20.09 75.215 11.6 110.48-10.93 45.535-46.64 64.953-49.32 103.121-1.79 29.461 10.94 59.371 37.49 71.871 8.04-5.359 4.69-23.886 1.57-33.48l-3.13.891c-.44 6.917-10.93 8.035-18.97 2.457-11.16-7.813-15.4-29.911-5.13-36.161 10.71-6.25 30.13 4.688 39.95 12.5 20.09 16.293 36.6 39.282 29.01 63.836-8.03 26.114-44.63 20.086-60.92 7.59-37.5-28.347-58.26-72.32-63.17-162.492-5.36-100.215-53.57-176.328-134.82-231.906-78.56-53.789-141.06-76.332-220.3-106.016-107.36-40.625-205.79-74.996-255.785-159.594m25.222-70.976-5.582-5.133c-6.468-6.027-13.164-12.277-19.64-18.973a698 698 0 0 1-18.746 18.082l-6.696 6.024c-41.519 37.054-83.925 64.058-134.144 88.836-64.059 31.472-131.692 54.461-197.531 82.359-71.204 30.356-147.09 60.711-205.348 101.555-48.434 34.152-86.375 79.015-111.598 132.582-14.957 32.144-25.445 66.961-25 102.449.223 25.895 7.145 46.652 22.098 68.523 15.398 22.77 30.801 40.176 31.023 70.754 0 16.297-3.793 31.028-12.05 45.536-9.153 15.175-19.645 22.765-35.043 30.351-18.524-11.605-13.172-35.266-3.348-52.672l13.168 4.242.894 4.016c7.141.449 11.606-7.363 13.168-13.172.891-3.347 2.231-10.933-2.902-11.828-4.687-.891-9.598 1.117-13.84 3.129-9.597 4.461-17.855 10.934-25.222 18.523-8.036 8.258-14.731 17.856-16.961 29.461-1.563 8.035-.895 18.301 5.578 24.11 6.25 5.351 14.957 5.351 22.769 4.015 9.375-1.562 16.739-4.91 23.883-10.715 11.156-9.152 19.863-19.195 27.453-31.246 8.703-14.734 14.281-30.132 18.746-46.425 11.383-42.411 8.035-81.918 16.293-122.762 12.723-62.496 42.633-114.277 89.504-157.582 55.356-51.332 124.996-85.93 194.41-114.277 58.7-23.211 118.52-43.079 176.106-68.747 52.226-23.211 97.312-49.773 130.125-90.617l10.047-13.394c4.238-6.246 8.254-12.946 12.05-19.864l1.114-2.23.894 2.23a262 262 0 0 0 11.383 18.75l10.938 14.508c32.81 40.844 77.68 67.406 129.9 90.617 57.59 25.668 117.63 45.536 176.11 68.747 69.41 28.347 139.05 62.945 194.63 114.277 46.87 43.305 76.78 95.086 89.5 157.582 8.26 40.844 4.91 80.351 16.29 122.762 4.25 16.293 10.05 31.691 18.53 46.425 7.59 12.051 16.29 22.094 27.45 31.246 7.37 5.805 14.74 9.153 23.89 10.715 8.03 1.336 16.52 1.336 22.76-4.015 6.7-5.809 7.37-16.075 5.81-24.11-2.24-11.605-9.16-21.203-17.19-29.461-7.37-7.589-15.62-14.062-25.22-18.523-4.02-2.012-9.15-4.02-13.84-3.129-4.91.895-3.57 8.481-2.68 11.828 1.56 5.809 5.81 13.621 13.17 13.172l.67-4.016 13.17-4.242c9.82 17.406 15.4 41.067-3.35 52.672-15.18-7.586-25.67-15.176-35.04-30.351-8.26-14.508-12.05-29.239-11.83-45.536.22-30.578 15.62-47.984 31.02-70.754 14.96-21.871 21.66-42.628 22.1-68.523.45-35.488-10.27-70.305-25.22-102.449-25-53.567-63.17-98.43-111.38-132.582-58.25-40.844-134.36-71.199-205.57-101.555-65.62-27.898-133.25-50.887-197.53-82.359-50.22-24.778-92.63-51.782-134.143-88.836" style="fill:#bdbcbc;fill-opacity:1;fill-rule:evenodd;stroke:none" transform="matrix(.13333 0 0 -.13333 0 257.333)"></path><path d="M225.211 843.473c14.953-26.559 38.387-47.985 64.055-49.996-19.192-23.211-34.149-49.774-47.762-78.344-17.637 3.351-31.027 16.519-37.723 25.445 11.606 31.027 18.528 68.973 21.43 102.895m11.828-118.743c-12.277 5.133-17.41 11.383-22.766 16.52 6.028 24.105 14.286 46.871 17.856 76.109 11.16-14.73 24.105-24.996 42.184-29.683-14.508-19.418-26.559-41.293-37.274-62.946M1693.87 843.473c-14.96-26.559-38.39-47.985-64.06-49.996 18.97-23.211 33.92-49.774 47.76-78.344 17.64 3.351 30.81 16.519 37.73 25.445-11.84 31.027-18.53 68.973-21.43 102.895m-11.83-118.743c12.05 5.133 17.19 11.383 22.76 16.52-6.25 24.105-14.28 46.871-17.85 76.109-11.16-14.73-24.33-24.996-42.41-29.683 14.73-19.418 26.78-41.293 37.5-62.946" style="fill:#bdbcbc;fill-opacity:1;fill-rule:evenodd;stroke:none" transform="matrix(.13333 0 0 -.13333 0 257.333)"></path><path d="M912.445 1503.93c-68.078 22.98-120.976 86.82-120.976 160.48 0 73.65 53.793 143.07 121.867 166.28z" style="fill:#29a6e5;fill-opacity:1;fill-rule:evenodd;stroke:none" transform="matrix(.13333 0 0 -.13333 0 257.333)"></path><path d="M1014.89 1829.13c67.41-23.44 120.75-91.52 120.75-164.72 0-73.21-52.45-138.17-119.85-161.6z" style="fill:#32984a;fill-opacity:1;fill-rule:evenodd;stroke:none" transform="matrix(.13333 0 0 -.13333 0 257.333)" data-source="https://football-logos.cc"></path><path d="M962.887 1834.26c19.64 0 39.063-1.78 56.913-8.26v-322.75c-17.85-6.25-37.273-8.7-56.913-8.7-19.867 0-38.168 2.68-55.574 8.93v322.97c17.406 6.03 35.707 7.81 55.574 7.81" style="fill:#ee2237;fill-opacity:1;fill-rule:evenodd;stroke:none" transform="matrix(.13333 0 0 -.13333 0 257.333)"></path><path d="M1038.78 1759.49c30.8-22.99 50.88-59.82 50.88-101.11 0-69.86-56.46-126.33-126.105-126.33-69.637 0-126.106 56.47-126.106 126.33 0 41.29 19.864 78.12 50.891 101.11-16.742-18.08-27.012-42.41-27.012-69.19 0-56.47 45.758-102.23 102.227-102.23 56.475 0 102.225 45.76 102.225 102.23 0 26.78-10.26 51.11-27 69.19" style="fill:#fff;fill-opacity:1;fill-rule:evenodd;stroke:none" transform="matrix(.13333 0 0 -.13333 0 257.333)"></path><path d="m963.555 1811.5 14.289-24.78 26.336 7.81-7.364-27.67 24.104-12.95-24.553-14.28 7.813-26.34-27.68 7.36-12.945-24.1-14.282 24.55-26.339-7.81 7.367 27.67-24.332 12.95 24.777 14.51-7.812 26.11 27.675-7.37z" style="fill:#fff;fill-opacity:1;fill-rule:evenodd;stroke:none" transform="matrix(.13333 0 0 -.13333 0 257.333)"></path><path d="M963.555 1842.52c97.765 0 177.225-79.24 177.225-177 0-97.98-79.46-177.22-177.225-177.22-97.762 0-177.219 79.24-177.219 177.22 0 97.76 79.457 177 177.219 177m0-9.15c92.625 0 167.845-75.22 167.845-167.85 0-92.85-75.22-167.85-167.845-167.85s-167.844 75-167.844 167.85c0 92.63 75.219 167.85 167.844 167.85" style="fill:#231f20;fill-opacity:1;fill-rule:evenodd;stroke:none" transform="matrix(.13333 0 0 -.13333 0 257.333)"></path><path d="M834.324 1235.41c1.336 12.28 3.571 22.99 6.696 32.37 3.347 9.6 7.812 18.52 13.613 26.78.894 1.79 2.68 4.02 4.91 7.15 10.27 13.83 15.18 28.12 15.18 42.63 0 9.59-1.34 16.96-4.239 22.76-2.679 5.58-6.476 8.49-11.386 8.49-3.348 0-6.473-1.57-8.93-4.69-2.453-3.13-3.789-6.7-3.789-10.49 0-1.79.441-3.35 1.113-4.47.672-1.11 1.785-1.78 3.125-2.23 3.125-.67 5.133-2.23 6.696-4.46 1.339-2.01 2.011-5.14 2.011-9.15 0-4.47-1.117-8.49-3.129-11.61-2.007-3.13-4.465-4.69-7.586-4.69-3.574 0-6.472 2.24-8.929 6.25-2.231 4.24-3.571 9.38-3.571 15.85 0 10.71 2.68 19.86 8.036 27.67 5.582 7.82 12.05 11.61 20.089 11.61 8.704 0 15.844-4.02 21.204-11.61 5.578-7.81 8.257-18.07 8.257-30.57 0-9.6-1.785-18.08-5.355-25.45-3.574-7.36-9.375-14.28-17.41-20.98-.672-.67-1.789-1.56-3.348-2.68-11.605-9.37-18.75-20.31-21.875-32.81h26.781c5.582 0 9.375 1.34 11.61 4.24 2.23 2.91 3.793 8.26 4.91 16.07h4.465l-2.903-45.98zM932.086 1377.59c-3.797 0-6.477-4.46-8.035-13.16-1.34-8.93-2.008-26.12-2.008-52.01q-.001-44.865 2.008-58.26c1.558-8.93 4.238-13.39 8.035-13.39 3.793 0 6.473 4.24 7.812 13.17 1.563 8.93 2.231 27.23 2.231 55.13s-.668 46.2-2.231 55.13c-1.339 8.93-4.019 13.39-7.812 13.39m0-143.96c-8.481 0-15.402 7.14-20.984 21.2-5.579 14.29-8.481 32.37-8.481 54.24 0 21.88 2.902 39.95 8.481 54.24 5.582 14.28 12.503 21.42 20.984 21.42q12.386 0 20.758-21.42c5.801-14.29 8.48-32.36 8.48-54.24 0-21.87-2.679-39.95-8.48-54.02q-8.372-21.42-20.758-21.42M997.707 1377.59c-3.797 0-6.473-4.46-7.812-13.16-1.563-8.93-2.235-26.12-2.235-52.01q.001-44.865 2.012-58.26c1.562-8.93 4.238-13.39 8.035-13.39 3.793 0 6.473 4.24 7.813 13.17 1.56 8.93 2.23 27.23 2.23 55.13s-.67 46.2-2.23 55.13c-1.34 8.93-4.02 13.39-7.813 13.39m0-143.96c-8.484 0-15.402 7.14-20.98 21.2-5.582 14.29-8.485 32.37-8.485 54.24 0 21.88 2.903 39.95 8.485 54.24 5.578 14.28 12.718 21.42 20.98 21.42 8.253 0 15.173-7.14 20.983-21.42 5.58-14.29 8.26-32.36 8.26-54.24 0-21.87-2.68-39.95-8.49-54.02q-8.372-21.42-20.753-21.42M1039.45 1281.39h23.65v60.72zm40.84-23.43c0-6.25.67-10.49 2.01-12.5s4.24-2.91 8.48-2.91h2.01v-7.14h-43.52v7.14h3.12c4.24 0 7.15.9 8.48 2.91 1.34 2.01 2.23 6.25 2.23 12.5v12.5h-29.9v10.93l39.5 103.34h7.59v-103.34h12.5v-10.93h-12.5z" style="fill:#fff;fill-opacity:1;fill-rule:evenodd;stroke:none" transform="matrix(.13333 0 0 -.13333 0 257.333)"></path><path d="M1271.8 563.582c0-19.422 7.14-27.453 20.53-22.988v-3.797c-14.51-5.359-26.56-10.938-41.07-17.41v5.355c7.81 3.797 13.4 14.957 13.4 27.231l.66 199.543c0 9.148-2.23 23.437-13.17 18.972 0 3.348 0 2.231.23 5.582 12.94 5.356 39.5 15.844 52.45 20.532l43.52-182.129v162.488c0 15.621-11.16 20.086-18.08 18.527l-.22 6.024c14.51 2.457 28.35 3.793 43.08 4.687l.22-6.027c-7.14 0-17.63-6.473-17.63-19.641l.22-230.121c-9.15 0-28.56-2.676-33.48-4.238L1271.8 753.75zM1118.68 448.188l-.22 5.578c11.38 6.25 13.84 18.3 16.07 34.375l35.04 242.839c4.02 2.231 21.2 9.375 25.22 11.606l33.26-209.805c1.11-6.027 8.04-15.625 15.84-11.609v-5.133c-18.74-10.043-45.98-25-64.72-35.266v6.696c10.26 5.582 9.6 19.418 9.15 22.765l-2.9 24.778-39.96-22.321-2.9-25.668c-1.11-10.714 5.58-18.523 16.74-13.839v-4.239c-13.39-6.922-27.45-14.285-40.62-20.757m28.57 75.664 36.83 19.418-17.63 117.847c-7.59-50.219-12.73-87.043-19.2-137.265" style="fill:#231f20;fill-opacity:1;fill-rule:evenodd;stroke:none" transform="matrix(.13333 0 0 -.13333 0 257.333)"></path><path d="M1006.86 403.992 980.742 620.5c-1.113 9.594-3.125 32.805-17.633 32.805l.227 5.808c21.648 0 58.924 9.149 72.314 13.614v-6.696c-9.15-3.57-11.16-10.937-10.04-22.097l14.28-152.668 23.66 149.988c3.35 21.875-3.35 30.578-14.28 31.023v4.692c13.16 4.465 27.67 10.711 39.28 16.738v-5.578c-7.59-6.027-12.28-14.734-14.51-29.688l-35.71-243.066c-3.13-.895-28.57-10.711-31.47-11.383M886.551 538.809v-87.496c0-15.848 1.789-28.793 12.722-31.918v-4.915c-19.195 6.028-38.39 12.946-57.585 21.43v4.91c9.597-6.023 13.839 5.36 13.839 18.973 0 65.621 0 131.687.223 197.309 0 16.964-3.125 18.972-14.285 24.773l-.445 9.375c20.98-8.926 42.855-15.844 64.058-21.648 39.285-10.715 48.211-58.477 46.426-76.114-2.008-19.64-6.027-47.984-37.055-53.121 28.797-11.828 33.93-37.941 35.715-72.316.445-5.578-.445-24.551.227-37.946.218-4.015 0-12.273 5.132-13.39 10.711-2.235 10.711 18.75 10.711 27.898l6.918-.218c.895-37.278-16.293-47.098-30.355-45.981-8.031.668-21.426 8.703-25.219 19.863-5.582 16.071-4.242 47.766-4.242 68.524 0 19.863.894 31.691-3.348 39.504-6.027 10.941-10.488 8.484-23.437 12.504m0 10.711c1.34-.446 10.937-6.028 18.75-1.563 5.133 2.68 7.59 13.613 7.59 21.652l-.223 65.399c0 8.926-2.68 21.648-13.168 26.558-6.254 2.899-7.367 1.563-9.156.223-3.793-2.902-4.016-12.273-4.016-16.965z" style="fill:#fff;fill-opacity:1;fill-rule:evenodd;stroke:none" transform="matrix(.13333 0 0 -.13333 0 257.333)"></path><path d="M691.922 511.797v4.691c8.035-2.906 14.508 3.121 15.621 10.489l33.48 215.832c4.02-2.004 23.438-14.282 27.454-16.516l35.265-251.766c1.117-6.699 3.129-14.734 11.387-22.101v-5.133c-16.965 8.93-42.856 24.328-66.066 35.266v5.582c4.238-2.012 10.265 3.347 8.48 17.855L754.195 533l-33.929 17.637-2.008-15.848c-2.231-15.625.894-28.793 15.625-39.285v-4.91c-13.391 6.922-28.793 14.734-41.961 21.203m29.683 47.988 31.473-17.406-15.625 126.105c-7.59-40.398-8.926-68.074-15.848-108.699M601.527 576.305c0-16.071-1.117-26.785 10.043-29.465v-4.242c-19.199 4.242-38.613 7.367-57.812 8.484v3.125C568.266 555.77 570.5 566.262 570.5 583v194.63299999999998c0 18.078-1.562 27.453-16.516 28.344v4.019c19.196-1.117 38.387-4.019 57.586-8.484l.223-4.465c-15.402 4.242-10.266-8.926-10.266-24.551v-99.547l36.157 82.364c5.578 12.945 3.347 33.031-13.391 37.941l.223 4.91c17.41-6.023 34.816-12.5 52.453-19.863l-.227-3.574c-11.383.449-22.32-3.348-26.558-12.719l-24.332-54.238 38.168-143.743c2.906-10.937 5.582-32.363 19.867-43.3v-5.133c-20.535 8.926-40.848 16.961-61.157 23.656l.223 5.137c12.723-3.348 9.82 15.625 8.258 21.203l-25.445 99.992-4.239-10.711zM384.129 542.598l29.906-24.996v-5.133l-4.461 3.57c-1.34 1.34-2.457 1.785-2.902 1.785-.445-.222-.891-1.562-.891-3.793v-50.664c0-2.234.446-3.797.891-4.914.445-1.113 1.562-2.23 2.902-3.348l4.461-3.57v-5.355l-29.906 24.996v5.355l4.238-3.57c1.34-1.34 2.457-1.785 2.903-1.563.671.223.89 1.34.89 3.571v50.668c0 2.23-.219 3.797-.89 4.91-.446 1.117-1.563 2.234-2.903 3.57l-4.238 3.348zM481.891 470.504c-1.563.894-2.68 1.117-3.125.672-.672-.446-.891-1.563-.891-3.348V416.27c0-1.79.219-3.125.891-4.02.445-.891 1.562-1.562 3.125-2.453l6.25-3.125c5.8-2.68 10.043-2.457 12.722.894 2.453 3.348 3.793 10.489 3.793 21.426 0 11.16-1.562 19.641-4.242 25.668-2.898 6.028-7.59 10.488-14.059 13.84l-1.343.668zm-29.465 19.644 31.472-15.402 1.786-.894c11.605-5.579 20.535-12.946 26.562-22.094 6.246-9.153 9.375-19.418 9.375-31.028 0-11.382-3.129-18.746-8.93-22.093-6.027-3.348-14.507-2.457-25.445 2.902l-34.82 17.188v5.132l4.687-2.234c1.789-.895 3.125-1.117 3.793-.895.449.227.895 1.563.895 3.797v50.668c0 2.231-.446 3.793-.895 4.684-.668.894-2.004 1.785-3.566 2.68l-4.914 2.453zM560.234 433.902l29.907-11.609 14.507-48.43 13.84 37.719 29.239-11.383v-5.133l-4.465 1.786c-2.008.668-3.121.89-3.793.445s-1.114-1.563-1.114-3.793v-50.891c0-2.011.442-3.574 1.114-4.465.672-.894 1.785-1.785 3.793-2.457l4.691-1.785v-5.133l-34.82 13.168v5.36l4.238-1.567c2.012-.886 3.129-.886 3.797-.668.668.45 1.117 1.786 1.117 3.797v53.789l-20.312-56.468-4.465 1.785-21.43 72.094v-47.094c0-4.242.672-7.59 2.235-9.821 1.562-2.234 4.242-4.242 8.257-5.582v-5.355l-26.785 10.266v5.359c3.797-1.34 6.25-1.34 7.813-.449q2.01 1.675 2.011 8.707v43.746c0 2.008-.226 3.57-.894 4.687-.895.895-2.008 1.563-3.797 2.231l-4.684 2.012zM718.93 353.996l-9.598-20.09 18.527-7.586zm1.562 20.086 6.918-2.898 25.223-73.211c.668-2.012 1.336-3.348 2.23-4.243.895-.89 2.012-1.785 3.797-2.453v-5.132l-30.801 12.277v5.133l4.461-1.34c.891-.445 1.563-.445 2.008-.227q.673.34.672 1.34c0 .672-.223 1.563-.672 2.902v.223l-4.015 12.723-23.438 9.375-2.23-4.242c-.223-.668-.45-1.336-.672-2.231s-.223-1.785-.223-2.453c0-2.234.672-4.02 2.234-5.582 1.34-1.34 3.793-2.902 7.368-4.461v-5.137l-26.118 10.489v5.132c2.68-.668 4.911-.218 6.696.895 1.785 1.34 3.57 3.797 5.133 7.59zM803.969 337.48l22.094-11.605 32.812-61.828v27.898c0 4.243-.668 7.59-2.23 10.043-1.34 2.457-4.243 4.688-8.036 6.7v5.132l25.442-13.617v-5.133c-3.348 1.785-5.801 2.235-6.914 1.118-1.344-.895-2.012-4.02-2.012-8.926v-54.688l-5.582 2.903-40.398 76.558v-37.277c0-4.238.671-7.586 2.234-10.043 1.336-2.453 4.016-4.688 7.812-6.918v-5.133l-25.222 13.391v5.133c3.57-1.563 6.027-1.786 7.363-.895 1.34.895 1.785 3.797 1.785 8.93v43.078l-1.562 2.679c-1.114 2.008-2.231 3.571-3.121 4.461-.895.895-2.012 1.567-3.348 2.457l-1.117.446zM1049.71 297.305l32.81 18.078v-5.133l-4.46-2.457c-1.56-.891-2.9-1.785-3.35-2.902-.67-.891-.89-2.453-.89-4.688v-27.004l19.64 35.039c.89 1.563 1.34 2.68 1.56 3.348.23.894.45 1.562.45 2.234 0 1.114-.45 1.785-1.56 1.785-.89.223-2.46-.222-4.25-1.339l-2.45-1.336v5.133l29.02 16.07v-5.137c-2.68-1.558-5.14-3.348-7.15-5.578-2.01-2.008-4.46-5.582-7.14-10.047l-10.49-18.523 20.31-25.891c.67-.894 1.56-1.34 2.46-1.34.89 0 2.01.223 3.12.891l1.34.672v-5.133l-31.47-17.633v5.356l2.23 1.339c1.79.891 2.9 1.786 3.79 2.454.68.894 1.12 1.785 1.12 2.679 0 .449-.44 1.34-1.12 2.235-.21.218-.21.445-.44.668l-11.83 15.625-7.14-12.5v-14.735c0-2.23.22-3.566.89-3.793.45-.222 1.79 0 3.35.895l4.46 2.453v-5.133l-32.81-18.301v5.356l4.24 2.457c1.79.89 2.91 1.785 3.57 2.676.45 1.117.9 2.679.9 4.691v50.887c0 2.234-.45 3.347-.9 3.57-.66.449-1.78.223-3.57-.891l-4.24-2.457zM1163.77 353.328l36.16 15.399v-5.133l-5.81-2.453c-1.56-.895-2.9-1.567-3.57-2.457-.44-.895-.89-2.457-.89-4.688v-50.891000000000005c0-2.23.45-3.347 1.11-3.57.9-.222 2.68.223 5.36 1.34 7.59 3.125 13.17 7.141 16.96 12.055 3.8 4.906 6.48 11.828 8.49 20.758l4.46 1.558-1.11-27.453-61.16-25.891v5.133l4.69 2.008c1.78.895 3.12 1.566 3.79 2.457.67.895.89 2.457.89 4.688v50.664c0 2.234-.22 3.574-.89 4.019-.67.223-2.01 0-3.79-.672l-4.69-2.004zM1267.11 395.957l35.04 14.063v-5.133l-4.69-2.012c-1.78-.668-3.12-1.559-3.79-2.453-.67-.895-.89-2.453-.89-4.465v-36.383c0-6.472 1.33-10.711 3.79-12.722 2.68-2.004 6.7-1.786 12.5.449 2.68 1.113 5.13 2.679 7.36 4.461 2.24 1.785 4.02 3.797 5.59 6.027 1.11 2.234 2.01 4.465 2.68 7.145.44 2.675.66 6.695.66 12.05v26.118c0 4.238-.66 6.918-2 8.031-1.57.894-4.02.672-7.81-.891h-.23v5.133l25.22 10.266v-5.133c-3.35-1.781-5.58-3.567-6.92-5.801-1.33-2.008-2.01-5.133-2.01-9.152v-27.008q0-7.698-.66-11.383a33.8 33.8 0 0 0-2.01-7.141c-2.01-4.91-5.14-9.375-9.38-13.171-4.01-3.793-9.37-6.918-15.85-9.372-8.92-3.792-15.84-4.464-20.31-2.234-4.69 2.008-6.92 7.141-6.92 14.953v39.063c0 2.23-.44 3.347-1.11 3.793-.67.449-1.79.222-3.8-.446l-4.46-2.007zM1407.95 397.52c0-3.125.22-4.911 1.12-5.36.89-.441 2.89 0 6.24 1.567 5.58 2.453 9.38 5.355 11.83 8.703 2.24 3.351 3.35 7.59 3.35 12.722 0 2.68-.22 4.688-1.11 6.473-.9 1.563-2.24 2.453-4.02 2.902-1.12.446-2.45.223-4.24-.222-1.79-.446-5.14-1.563-10.05-3.797-.22-.219-.67-.445-1.11-.668-.67-.223-1.34-.445-2.01-.895zm0 27.23c.44 0 .89.223 1.34.445.44.227 1.34.446 2.23.895 6.25 2.902 10.49 5.801 12.94 8.93 2.46 3.125 3.58 7.14 3.58 12.05s-.9 7.813-2.9 8.93c-2.01 1.113-5.59.668-10.94-1.789-2.68-1.113-4.47-2.231-5.13-3.121-.9-1.117-1.12-2.457-1.12-4.242v-.895zm-25.45 20.535 37.5 16.738c8.04 3.575 14.29 4.911 18.08 3.797q6.03-1.34 6.03-10.047c0-4.91-1.56-9.375-4.47-13.613-3.12-4.015-7.59-7.812-13.84-11.605 6.7 2.453 11.83 2.898 15.85 1.336 3.8-1.559 5.58-4.907 5.58-10.266 0-6.25-2.23-12.051-6.92-17.187-4.68-5.356-11.38-10.043-20.53-14.059l-37.28-16.516v5.133l4.91 2.231c1.79.89 2.9 1.562 3.57 2.453.68.894.9 2.457.9 4.687v50.668c0 2.231-.22 3.57-.9 3.793-.67.449-1.78.223-3.57-.445l-4.91-2.231zM1482.27 494.387l29.69 23.215v-5.133l-3.8-3.125c-1.56-1.117-2.68-2.231-3.12-3.348-.67-1.117-.89-2.68-.89-4.91v-36.16c0-6.696 1.12-10.488 3.35-11.828 2-1.34 5.58 0 10.49 3.793 2.23 1.785 4.46 3.797 6.25 6.25q3 3.685 4.68 7.363c1.12 2.68 1.79 5.137 2.24 8.039.44 2.68.66 6.695.66 12.277v25.887c0 4.465-.44 6.922-1.78 7.594-1.12.441-3.35-.449-6.47-2.68l-.23-.449v5.359l21.43 16.739v-5.133c-2.9-2.68-4.91-5.137-6.02-7.59-1.12-2.231-1.57-5.578-1.57-9.82v-26.786c0-5.132-.22-9.148-.67-11.605-.22-2.676-.89-5.133-1.56-7.59-1.79-5.578-4.47-10.711-8.04-15.625-3.57-4.91-8.03-9.375-13.39-13.613-7.81-6.028-13.61-8.481-17.41-7.59-4.02.895-6.02 5.359-6.02 13.395v38.835c0 2.231-.23 3.571-.67 3.571-.67.222-1.79-.223-3.13-1.34l-4.02-3.125z" style="fill:#231f20;fill-opacity:1;fill-rule:evenodd;stroke:none" transform="matrix(.13333 0 0 -.13333 0 257.333)" data-source="https://football-logos.cc"></path><!-- source: https://football-logos.cc --></svg>