<svg xmlns="http://www.w3.org/2000/svg" viewBox="310.67 109.68 817.33 1260.68"><!-- Source: https://football-logos.cc --><defs data-source="https://football-logos.cc"><clipPath id="a" clipPathUnits="userSpaceOnUse"><path d="M-846 181.306H234v-1080H-846Z"></path></clipPath><clipPath id="b" clipPathUnits="userSpaceOnUse"><path d="M0 1080h1080V0H0Z"></path></clipPath><clipPath id="c" clipPathUnits="userSpaceOnUse"><path d="M-613.114 709.66h1080v-1080h-1080Z"></path></clipPath><clipPath id="d" clipPathUnits="userSpaceOnUse"><path d="M-398.349 715.89h1080v-1080h-1080Z"></path></clipPath><clipPath id="e" clipPathUnits="userSpaceOnUse"><path d="M-462.016 833.99h1080v-1080h-1080Z"></path></clipPath><clipPath id="f" clipPathUnits="userSpaceOnUse"><path d="M-517.73 846.296h1080v-1080h-1080Z"></path></clipPath><clipPath id="g" clipPathUnits="userSpaceOnUse"><path d="M-564.418 839.185h1080v-1080h-1080Z"></path></clipPath><clipPath id="h" clipPathUnits="userSpaceOnUse"><path d="M-618.031 828.548h1080v-1080h-1080Z"></path></clipPath><clipPath id="i" clipPathUnits="userSpaceOnUse"><path d="M-539.173 52.233h1080v-1080h-1080Z"></path></clipPath></defs><path d="M0 0h-613v-514.653c0-166.671 135.113-301.784 301.784-301.784h9.432C-135.113-816.437 0-681.324 0-514.653Z" clip-path="url(#a)" style="fill:#fff;fill-opacity:1;fill-rule:nonzero;stroke:none" transform="matrix(1.33333 0 0 -1.33333 1128 281.773)"></path><path d="M0 0h-613v-514.653c0-166.671 135.113-301.784 301.784-301.784h9.432C-135.113-816.437 0-681.324 0-514.653Zm-31.367-31.367v-483.286c0-36.52-7.145-71.931-21.238-105.249-13.618-32.198-33.12-61.12-57.965-85.965s-53.768-44.347-85.965-57.965c-33.318-14.093-68.729-21.238-105.249-21.238h-9.432c-36.52 0-71.931 7.145-105.249 21.238-32.197 13.618-61.12 33.12-85.965 57.965s-44.347 53.767-57.965 85.965c-14.093 33.318-21.238 68.729-21.238 105.249v483.286z" clip-path="url(#a)" style="fill:#000;fill-opacity:1;fill-rule:nonzero;stroke:none" transform="matrix(1.33333 0 0 -1.33333 1128 281.773)"></path><path d="M589.239 818.484H492.45v-29.575h96.789z" clip-path="url(#b)" style="fill:#000;fill-opacity:1;fill-rule:nonzero;stroke:none" transform="matrix(1.33333 0 0 -1.33333 0 1480.03)"></path><path d="m0 0-32.263 46.19 3.916-68.595-61.398 87.397-20.873 29.709 3.137 59.185-27.522 39.406-14.34-270.32h29.414l5.986 125.019 87.828-125.019H4.4Zm-21.634 378.689h-29.575l3.137-57.805-40.472 58.253h-36.601l-3.28-61.892 27.522-39.379 3.316 62.457 25.228-36.314 27.639-39.792 4.149-72.646 32.263-46.145z" clip-path="url(#c)" style="fill:#000;fill-opacity:1;fill-rule:nonzero;stroke:none" transform="matrix(1.33333 0 0 -1.33333 817.485 986.245)"></path><path d="M0 0v349.518h39.693L252.728 44.81v304.708h30.083V0h-35.276L30.023 311.429V0Z" clip-path="url(#d)" style="fill:#000;fill-opacity:1;fill-rule:nonzero;stroke:none" transform="matrix(1.33333 0 0 -1.33333 531.132 994.55)" data-source="https://football-logos.cc"></path><path d="M0 0c5.256 0 6.431 2.535 7.482 5.441h4.576v-43.286H5.256v33.021H0Z" clip-path="url(#e)" style="fill:#000;fill-opacity:1;fill-rule:nonzero;stroke:none" transform="matrix(1.33333 0 0 -1.33333 616.02 1152.017)"></path><path d="M0 0v7.792c0 3.092-1.36 4.204-3.525 4.204S-7.05 10.884-7.05 7.792V0c0-3.092 1.361-4.267 3.525-4.267C-1.36-4.267 0-3.092 0 0m6.802-14.779c0-7.297-3.339-11.255-10.389-11.255-6.678 0-10.141 3.958-10.141 10.884v1.113h6.431v-1.546c0-3.092 1.361-4.267 3.525-4.267C-1.36-19.85 0-18.675 0-14.532v7.853h-.124c-1.174-2.473-3.153-3.772-6.183-3.772-5.009 0-7.545 3.526-7.545 9.894v7.916c0 6.926 3.649 10.884 10.327 10.884 6.679 0 10.327-3.958 10.327-10.884z" clip-path="url(#f)" style="fill:#000;fill-opacity:1;fill-rule:nonzero;stroke:none" transform="matrix(1.33333 0 0 -1.33333 690.308 1168.425)"></path><path d="M0 0c0 3.896-1.36 4.947-3.524 4.947-2.165 0-3.525-1.174-3.525-4.266v-2.783h-6.432v2.35c0 6.926 3.464 10.884 10.142 10.884C3.34 11.132 6.803 7.174 6.803.248V-.866c0-4.637-1.484-7.482-4.762-8.843v-.123c3.401-1.484 4.762-4.638 4.762-9.028v-3.401c0-6.926-3.463-10.883-10.142-10.883s-10.142 3.957-10.142 10.883v3.586h6.432v-4.019c0-3.092 1.36-4.267 3.525-4.267S0-25.909 0-22.076v3.401c0 4.02-1.36 5.504-4.452 5.504H-6.74v6.183h2.659C-1.546-6.988 0-5.874 0-2.411z" clip-path="url(#g)" style="fill:#000;fill-opacity:1;fill-rule:nonzero;stroke:none" transform="matrix(1.33333 0 0 -1.33333 752.557 1158.944)"></path><path d="M0 0v-5.936l-10.018-37.35h-6.802l9.956 37.103h-13.542V0Z" clip-path="url(#h)" style="fill:#000;fill-opacity:1;fill-rule:nonzero;stroke:none" transform="matrix(1.33333 0 0 -1.33333 824.042 1144.762)"></path><path d="m0 0 15.533-28.436 31.844-5.985-22.245-23.56 4.149-32.136L0-76.241l-29.281-13.876 4.149 32.136-22.245 23.56 31.844 5.985z" clip-path="url(#i)" style="fill:#fcaf17;fill-opacity:1;fill-rule:nonzero;stroke:none" transform="matrix(1.33333 0 0 -1.33333 718.898 109.675)" data-source="https://football-logos.cc"></path><!-- source: https://football-logos.cc --></svg>