<svg xmlns="http://www.w3.org/2000/svg" viewBox="0.04 -0.02 489.6 566.93"><!-- Source: https://football-logos.cc --><defs data-source="https://football-logos.cc"><clipPath id="a"><path d="M0 480h489.602v26H0Zm0 0"></path></clipPath><clipPath id="b"><path d="M424 255h65.602v125H424Zm0 0"></path></clipPath></defs><path d="m59.648 98.793 6.817-.023c18.535 16.675 36.027 24.316 55.785 28.39 15.723 3.242 36.984 2.54 51.656-.43a76 76 0 0 0 5.5 10.075c-11.3 2.578-25.3 3.441-37.797 3.066-25.785-.773-48.922-8.848-72.27-23.973-2.03 35.25-2.327 71.387 1.376 105.91 2.629 24.508 6.863 48.31 12.488 72.297 6.254 26.668 15.082 52.547 25.52 77.872 4.453 10.804 9.855 21.406 15.242 31.773 11.133 21.422 24.73 43.16 39.68 62.137 4.296 5.457 9.093 11.218 14.257 16.738q-.978.233-1.957.473c-3.472.847-6.953 1.718-10.433 2.574-24.989-27.809-50.38-68.957-67.133-109.61-10.426-25.296-19-51.296-25.617-79.507-5.836-24.895-9.957-47.961-12.707-73.602-4.125-38.465-3.258-84.527-.407-124.16m251.27 384.43c32.043-34.059 55.215-76.34 72.875-119.243 19.695-47.851 31.363-99.957 36.227-151.386 3.007-31.856 2.914-64.203 1.593-96.25-14.875 11.144-31.367 17.62-50.207 21.93-23.539 5.382-42.449 2.886-63.793-1.47a76 76 0 0 0 5.246-9.534c19.54 3.746 36.2 5.328 56.157.765 16.906-3.867 37.359-10.707 56.242-28.844l6.066.032c2.485 35.218 2.754 78.566-.633 114.382-5.328 56.399-18.093 109.09-36.77 154.454-17.452 42.398-39.683 84-70.464 118.25-4.18-1.032-8.355-2.075-12.539-3.086m0 0" style="stroke:none;fill-rule:evenodd;fill:#353787;fill-opacity:1"></path><path d="M414.586 129.965c-12.844 7.43-26.688 12.234-41.508 15.625-25.84 5.91-46.418 2.836-70.3-2.133-13.997 17.23-35.348 28.242-59.266 28.242-23.961 0-45.34-11.047-59.332-28.32-13.66 3.656-30.395 4.367-42.797 3.992-23.774-.71-44.985-7.336-65.192-18.586-1.386 30.7-1.28 61.735 1.989 92.223 2.578 24.058 6.804 47.832 12.332 71.383 6.156 26.254 14.883 51.808 25.152 76.726 4.39 10.653 9.652 20.953 14.961 31.172 11.05 21.266 24.078 42.121 38.914 60.953 4.992 6.336 10.453 13.227 16.395 19.606 1.625-.34 3.261-.66 4.902-.973-52.418-54.316-81.613-130.234-95.316-188.66-5.415-23.082-9.582-46.453-12.145-70.027h70.824v-3.708h185.145v3.708h67.074c-3.773 34.039-10.54 68.898-20.742 102.082-8.184 26.628-18.883 52.523-31.617 77.293-14.93 29.039-33.133 56.582-55.86 79.789 1.707.34 3.406.703 5.106 1.078 19.328-19.922 35.27-42.813 48.754-67.133 17.878-32.254 32.043-66.86 42.066-102.34 9.258-32.766 15.27-66.734 18.422-100.066 2.57-27.203 2.844-54.614 2.039-81.926m0 0" style="stroke:none;fill-rule:evenodd;fill:#353787;fill-opacity:1"></path><path d="m97.918 272.14 106.047 61.395-2.844 11.149-91.34-25.028a501 501 0 0 1-7.996-29.91 628 628 0 0 1-3.867-17.605M122.605 356.809l80.649.734-.078 9.531-68.121 18.535a449 449 0 0 1-12.45-28.8M149.016 412.398l56.68-31.957 6.85 7.895-48.21 48.59a358 358 0 0 1-15.32-24.528M184.21 462.988l37.673-64.144 10.734 3.34-20.406 74.43a306 306 0 0 0-13.691 1.91 269 269 0 0 1-14.31-15.536M188.7 260.57l23 39.106-12.821 9.633-82.242-81.688h37.562v32.95ZM374.355 227.621l-95.843 96.05 5.777 9.735 107.973-62.613a582 582 0 0 0 6.926-43.172ZM379.738 320.691l-91.847 24.38 2.675 10.866 76.692.192a453 453 0 0 0 12.27-34.75ZM353.906 386.441l-66.734-18.93-4.965 8.739 58.637 35.3a416 416 0 0 0 7.492-13.929 480 480 0 0 0 5.57-11.18M325.23 436.836l-44.46-43.953-8.942 9.152 34.84 59.414c6.617-7.86 12.789-16.097 18.562-24.613M276.852 476.836l-19.504-74.16-11.711 3.328.02 68.61c.878-.005 1.753 0 2.628.007 9.309.082 19.07.953 28.567 2.211ZM219.793 260.57l15.039 54.754 9.57-3.328.102-51.426ZM271.148 260.57l-10.18 37.14 14.106 5.77 24.922-42.91ZM297.523 54.5c8.614 11.363 13.73 25.523 13.73 40.879 0 37.406-30.335 67.742-67.741 67.742-37.41 0-67.746-30.336-67.746-67.742 0-15.356 5.117-29.516 13.73-40.879a58.5 58.5 0 0 0-4.719 23.098c0 32.43 26.301 58.734 58.735 58.734 32.43 0 58.73-26.305 58.73-58.734a58.5 58.5 0 0 0-4.719-23.098m0 0" style="stroke:none;fill-rule:evenodd;fill:#e1061f;fill-opacity:1"></path><path d="m243.59-.02 6.789 17.48 16.707-7.75-7.563 17.165 17.293 6.332-17.48 6.79 7.75 16.706-17.16-7.558-6.336 17.292-6.79-17.48-16.706 7.746 7.562-17.16-17.293-6.336 17.48-6.785-7.75-16.711 17.16 7.562Zm0 0" style="stroke:none;fill-rule:evenodd;fill:#e1061f;fill-opacity:1"></path><g clip-path="url(#a)"><path d="M127.934 502.973c8.351-.2 16.957-1.918 25.129-3.586 9.816-2.004 19.554-4.426 29.324-6.657 19.07-4.363 39.926-7.597 59.508-7.445 16.19.13 32.43 1.426 48.312 4.664 10.184 2.078 20.398 4.07 30.48 6.613 8.247 2.083 16.508 4.297 24.844 5.989 6.664 1.351 13.848 2.476 20.66 2.207 7.786-.309 21.157-2.406 25.204-14.457 36.96 17.258 74.46 21.48 98.242 5.91l-5.262-2.547c-9.77 5.918-21.21 8.2-33.836 7.941-17.867-.359-38.101-6.02-59.32-15.52-2.406 10.083-10.336 13.724-21.696 14.09-16.601.54-40.53-6.577-65.23-12.359-18.906-4.425-42.027-7.07-56.059-7.191-20.14-.176-45.754 2.168-70.863 8.305-22.855 5.586-42.281 10.797-56.43 9.84-11.293-.766-19.355-4.743-20.933-13.582-15.754 7.066-32.996 12.667-49.633 14.398-16.633 1.726-32.445-.418-44.906-7.129l-5.43 2.379c15.953 8.605 31.691 10.09 45.91 9.332 24.5-1.313 44.48-10.992 53.246-14.586 4.098 11.664 16.899 13.668 28.739 13.39m0 0" style="stroke:none;fill-rule:evenodd;fill:#353787;fill-opacity:1"></path></g><path d="M339.781 561.957c-7.215 2.762-12.746 2.656-20.527.766-7.2-1.75-14.367-3.68-21.54-5.543-16.878-4.39-35.73-6.578-53.155-6.668-16.555-.082-31.735 1.508-47.922 4.847-1.864.383-3.723.786-5.578 1.192-6.989 1.539-13.899 3.5-20.883 5.086-7.028 1.593-13.516 1.582-18.938-.215 5.153 3.289 10.078 4.137 15.032 4.027 9.457-.207 21.03-4.77 48.289-8.32 27.937-3.64 53.582-2.035 81.164 4.2 11.351 2.566 21.328 5.589 29.597 5.581 5.657-.008 10.516-1.664 14.461-4.953m0 0" style="stroke:none;fill-rule:evenodd;fill:#353787;fill-opacity:1"></path><path d="M101.043 501.758c5.719 8.512 13.11 19.222 20.316 28.926 6.797 9.152 13.2 18.78 21.348 23.027 7.523 3.922 16.523 3.156 25.898 1.023 7.293-1.656 15.079-3.804 20.93-5.093 16.485-3.633 32.356-6.32 55.063-6.203 17.527.085 37.558 2.382 54.898 6.89 6.531 1.7 15.078 3.973 21.43 5.52 6.762 1.644 12.406 2.476 19.172.925 9.53-2.18 19.168-12.398 27.96-23.808 7.762-10.067 13.32-17.371 20.497-28.41-7.293 5.496-12.621 7.11-22.078 7.488-13.711.55-30.059-4-47.52-8.402-9.793-2.473-19.941-4.457-30.164-6.543-16.512-3.368-32.738-4.41-46.957-4.52-17.086-.137-37.836 2.684-57.875 7.266-20.234 4.625-39.766 9.82-55.86 10.203-11.37.27-20.816-1.86-27.058-8.29M111.504 416.43c-24.984 14.273-47.293 23.652-66.215 26.39-12.61 1.825-23.71.578-33.098-3.715 7.84 13.598 16.434 20.31 26.301 27.489-7.57 7.394-17.117 15.937-26.054 22.144 11.234 4.582 22.734 5.543 34.214 4.633 18.493-1.465 36.946-8.21 54.188-15.766 5.277-12.644 20.125-20.472 31.535-26.457a447 447 0 0 1-20.871-34.718M159.48 487.332c-14.312 3.336-47.367 10.18-52.285-1.539-2.886-6.883 3.063-13.55 11.059-18.871 5.808-3.863 11.512-7.125 18.07-9.934a434 434 0 0 0 6.567 9.258c5.18 7.094 10.714 14.238 16.59 21.086m0 0" style="stroke:none;fill-rule:evenodd;fill:#353787;fill-opacity:1"></path><path d="M108.418 410.629c-21.492 12.875-43.59 22.137-63.918 24.926-12.566 1.718-24.71 1.086-36.336-4.625l-3.246-5.317c10.059 5.63 21.95 7.657 34.102 6.551 20.25-1.844 44.796-12.238 67.218-25.762a391 391 0 0 0 2.18 4.227M379.293 417.5c24.98 14.273 47.082 24.082 66 26.82 12.605 1.825 24.14.582 33.527-3.71-7.84 13.597-16.347 20.113-27.16 27.054 6.625 7.395 17.547 16.371 26.485 22.578-11.235 4.578-22.735 5.54-34.215 4.63-18.493-1.466-36.946-8.427-54.188-15.977-5.277-12.649-20.125-20.477-31.535-26.457 7.48-11.25 14.672-23.094 21.086-34.938M331.531 487.762c11.946 3.808 46.942 11.035 51.852-.684 2.887-6.883-3.059-13.55-11.059-18.871-5.804-3.863-11.508-7.125-18.07-9.934a351 351 0 0 1-22.723 29.489m0 0" style="stroke:none;fill-rule:evenodd;fill:#353787;fill-opacity:1"></path><path d="M382.164 411.703c13.094 7.84 28.305 15.219 43.918 20.219 9.371 3 18.887 5.281 28.18 5.906 9.75.66 18.71-.758 28.156-5.394l3.246-5.32c-10.059 5.628-20.664 7.656-32.816 6.55-20.246-1.836-46.082-12.664-68.504-26.191a432 432 0 0 1-2.18 4.23m0 0" style="stroke:none;fill-rule:evenodd;fill:#353787;fill-opacity:1"></path><path d="M245.207 275.762c44.637 0 80.824 36.187 80.824 80.828 0 44.637-36.187 80.824-80.824 80.824-44.64 0-80.828-36.187-80.828-80.824 0-44.64 36.187-80.828 80.828-80.828m0 0" style="stroke:none;fill-rule:evenodd;fill:#2f2f25;fill-opacity:1"></path><path d="M262.008 279.05c22.293 4.813 41.105 18.99 52.101 38.216-3.586-1.942-7.504-3.672-11.992-5.18-8.086-10.324-18.922-18.395-31.402-23.106-2.668-3.824-5.774-7.132-8.707-9.93m62.027 68.657c.324 2.918.496 5.879.496 8.883 0 20.64-7.89 39.441-20.816 53.555.894-4.184 1.496-8.625 1.562-13.418a71.87 71.87 0 0 0 12.125-37.508c2.778-3.813 4.922-7.856 6.633-11.512m-46.484 81.328c-9.88 4.418-20.824 6.88-32.344 6.88a79.1 79.1 0 0 1-31.516-6.517 81 81 0 0 0 12.996-2.964 72.4 72.4 0 0 0 18.52 2.402 72.4 72.4 0 0 0 18.727-2.457c4.66 1.531 9.414 2.246 13.617 2.656m-90.692-18.719c-13.023-14.132-20.976-33.003-20.976-53.726 0-2.914.16-5.79.465-8.621 1.765 3.644 3.918 7.316 6.66 11.14a71.9 71.9 0 0 0 12.433 38.07c-.03 4.673.621 9.176 1.418 13.137m-10.414-93.3c11.059-19.172 29.907-33.286 52.22-38.02-2.884 2.805-5.677 5.992-8.435 9.781-12.539 4.621-23.445 12.621-31.613 22.899-4.492 1.41-8.613 3.394-12.172 5.34m35.043 88.925 19.032-26.402c10.488 2.059 20.28 1.824 30.21-.023l18.66 25.89c-1.952 5.223-4.808 11.477-15.327 19.387a70.8 70.8 0 0 1-18.856 2.543c-6.328 0-12.46-.836-18.297-2.395-7.254-5.222-11.722-10.02-15.422-19m17.774-27.222-18.953 26.293c-5.567-.203-12.438-.559-23.184-8.032a70.4 70.4 0 0 1-12.637-38.39c2.774-8.371 6.371-13.453 13.805-19.7l31.375 10.317c1.27 10.781 4.684 20.512 9.594 29.512m32.715-.04 18.62 25.833c9.696-.711 15.997-3.094 23.212-8.297a70.34 70.34 0 0 0 12.09-36.996c-4.333-12.797-9.637-17.082-14.079-20.559l-29.906 10.88c-1.363 10.034-4.687 19.788-9.937 29.14m-41.727-30.863-31.566-10.378c-1.512-5.301-3.18-11.75.543-24.098 8.37-10.82 19.804-19.149 33-23.68 8.402.152 14.394 2.027 22.359 6.977v33.195c-9.688 4.496-17.395 10.66-24.336 17.984m51.363.235 29.84-10.856c2.336-9.468 2.207-15.715-.566-24.25-8.32-10.593-19.594-18.757-32.582-23.242-12.422.399-17.73 3.942-22.22 6.969v33.11c9.278 4.214 18.153 10.28 25.528 18.269m0 0" style="stroke:none;fill-rule:evenodd;fill:#fff;fill-opacity:1"></path><path d="M31.605 399.05h13.73v7.15h7.2c2.54 0 4.617 2.073 4.617 4.613a4.63 4.63 0 0 1-4.617 4.617h-7.2v9.922c-4.577.285-9.151.574-13.73.859V415.43H24.36a4.625 4.625 0 0 1-4.613-4.618 4.625 4.625 0 0 1 4.613-4.613h7.246ZM20.31 384.204c10.058-3.121 25.746-3.144 36.28.211-4.675 2.14-8.765 5.594-10.284 9.945-5.051-1.261-9.672-1.261-14.723 0-1.734-4.105-6.066-7.636-11.273-10.156M460.688 399.05h-13.731v7.15h-7.2c-2.538 0-4.616 2.073-4.616 4.613a4.63 4.63 0 0 0 4.617 4.617h7.199v9.922q6.868.43 13.73.859V415.43h7.247a4.63 4.63 0 0 0 4.617-4.618c0-2.539-2.078-4.613-4.617-4.613h-7.247Zm11.3-14.847c-10.062-3.121-25.75-3.144-36.285.211 4.68 2.14 8.766 5.594 10.285 9.945 5.051-1.261 9.672-1.261 14.723 0 1.734-4.105 6.066-7.636 11.277-10.156m0 0" style="stroke:none;fill-rule:evenodd;fill:#353787;fill-opacity:1"></path><g clip-path="url(#b)"><path d="M454.313 255.855c.21 5.766 1.164 12.77 3.402 18.844 2.414 6.563 6.047 13.23 9.078 20.04 4.727 10.616 8.605 21.574 8.852 32.98 2.226-3.946 7.996-8.715 13.382-10.137-7.336 16.504.551 31.762-6.285 46.129-2.887 6.062-8.656 12.726-17.078 15.754l-23.3-.02c-10.77-4.02-16.65-15.367-17.938-26.98-.531-4.766-.188-11.613 1.308-16.942 3.829-13.617 11.903-25.48 5.489-40.648 4.66.172 7.187 2.61 8.625 4.715 2.207-9.195 1.484-18.024 3.75-26.137 1.879-6.723 5-12.789 10.714-17.598m0 0" style="stroke:none;fill-rule:evenodd;fill:#e1061f;fill-opacity:1"></path></g><path d="M450.707 279.836c2.484 12.844 8.297 20.934 13.363 32.25 3.942 8.8 7.493 20.348 8.61 29.476 1.578-2.128 4.015-5.187 5.593-7.316 4.36 17.055.938 29.527-5.359 35.852 1.02-12.98-3.644-24.575-8.8-35.512-4.844-10.277-3.325-22.797-12.403-30.43-1.742 16.364-13.36 26.656-17.469 41.063-2.004 7.035-2.074 13.972-.457 23.156-4.8-7.316-5.047-14.773-4.332-20.793 1.27-10.738 7.93-19.531 13.266-35.07 3.386-9.86 6.18-21.227 7.988-32.676m0 0" style="stroke:none;fill-rule:evenodd;fill:#ffe300;fill-opacity:1" data-source="https://football-logos.cc"></path><path d="M465.512 379.465c2.558-5.996 3.172-11.79 2.293-17.453-1.899-12.219-12.899-20.532-15.813-35.602-1.52 4.738-5.949 9.207-9.547 15.168-2.797 4.637-5.093 10.098-5.125 17.836-.027 5.793 1.274 14.352 4.805 19.938l.238.093 6.285.004c-8.398-13.328-8.054-24.242 2.418-37.414 1.207 7.73 10.34 12.703 11.086 23.621.309 4.551-.066 8.965-3.761 13.805Zm0 0" style="stroke:none;fill-rule:evenodd;fill:#ffe300;fill-opacity:1"></path><path d="M456.79 379.457c.331-1.992.444-3.922.327-5.46-.43-5.798-4.629-9.946-4.676-15.536-4.722 4.383-5.363 11.91-2.203 20.992Zm0 0" style="stroke:none;fill-rule:evenodd;fill:#ffe300;fill-opacity:1"></path><path d="M449.273 229.234c-4.511 7.36-3.453 12.508-3.441 18.657.008 5.093.176 8.539-3.406 13.664-.75-7.047-2.836-13.856-1.824-20.926.726-5.047 3.34-9.14 8.671-11.395M472.57 241.578c-7.254 5.356-9.722 13.82-9.699 21.762.024 7.008 2.39 14.535 6.899 22.539 4.109-5.266 6.113-9.95 6.066-15.723-.09-10.527-6.23-13.492-3.266-28.578m0 0" style="stroke:none;fill-rule:evenodd;fill:#e1061f;fill-opacity:1"></path><path d="M467.469 260.457c3.418 8.316 4.39 15.938 1.949 24.785-1.832-3.324-3.293-6.566-4.363-9.726-.973-6.618 1.832-10.207 2.414-15.059m0 0" style="stroke:none;fill-rule:evenodd;fill:#ffe300;fill-opacity:1"></path><path d="M36 255.855c-.207 5.766-1.16 12.77-3.398 18.844-2.418 6.563-6.051 13.23-9.079 20.04-4.726 10.616-8.605 21.574-8.851 32.98-2.23-3.946-8-8.715-13.383-10.137 7.336 16.504-.555 31.762 6.285 46.129 2.887 6.062 8.653 12.726 17.078 15.754l23.297-.02c10.774-4.02 16.653-15.367 17.942-26.98.527-4.766.187-11.613-1.309-16.942-3.828-13.617-11.902-25.48-5.488-40.648-4.66.172-7.188 2.61-8.63 4.715-2.206-9.195-1.48-18.024-3.75-26.137-1.878-6.723-5-12.789-10.714-17.598m0 0" style="stroke:none;fill-rule:evenodd;fill:#e1061f;fill-opacity:1"></path><path d="M39.61 279.836c-2.485 12.844-8.301 20.934-13.368 32.25-3.937 8.8-7.492 20.348-8.605 29.476-1.578-2.128-4.016-5.187-5.594-7.316-4.36 17.055-.938 29.527 5.355 35.852-1.015-12.98 3.649-24.575 8.805-35.512 4.844-10.277 3.324-22.797 12.402-30.43 1.739 16.364 13.36 26.656 17.465 41.063 2.008 7.035 2.078 13.972.461 23.156 4.801-7.316 5.043-14.773 4.332-20.793-1.273-10.738-7.93-19.531-13.265-35.07-3.387-9.86-6.184-21.227-7.989-32.676m0 0" style="stroke:none;fill-rule:evenodd;fill:#ffe300;fill-opacity:1"></path><path d="M24.805 379.465c-2.563-5.996-3.176-11.79-2.293-17.453 1.898-12.219 12.898-20.532 15.812-35.602 1.52 4.738 5.95 9.207 9.543 15.168 2.797 4.637 5.094 10.098 5.13 17.836.023 5.793-1.274 14.352-4.81 19.938l-.238.093-6.285.004c8.402-13.328 8.055-24.242-2.418-37.414-1.203 7.73-10.336 12.703-11.082 23.621-.309 4.551.063 8.965 3.762 13.805Zm0 0" style="stroke:none;fill-rule:evenodd;fill:#ffe300;fill-opacity:1"></path><path d="M33.527 379.457c-.336-1.992-.445-3.922-.332-5.46.434-5.798 4.633-9.946 4.676-15.536 4.727 4.383 5.367 11.91 2.203 20.992Zm0 0" style="stroke:none;fill-rule:evenodd;fill:#ffe300;fill-opacity:1"></path><path d="M41.043 229.234c4.508 7.36 3.453 12.508 3.441 18.657-.011 5.093-.175 8.539 3.407 13.664.75-7.047 2.836-13.856 1.82-20.926-.723-5.047-3.34-9.14-8.668-11.395M17.746 241.578c7.254 5.356 9.723 13.82 9.695 21.762-.02 7.008-2.39 14.535-6.898 22.539-4.105-5.266-6.113-9.95-6.063-15.723.086-10.527 6.227-13.492 3.266-28.578m0 0" style="stroke:none;fill-rule:evenodd;fill:#e1061f;fill-opacity:1"></path><path d="M22.848 260.457c-3.418 8.316-4.391 15.938-1.95 24.785 1.832-3.324 3.29-6.566 4.364-9.726.972-6.618-1.832-10.207-2.414-15.059m0 0" style="stroke:none;fill-rule:evenodd;fill:#ffe300;fill-opacity:1"></path><path d="M170.2 234.953h7.57v-3.273h-10.958v16.199h3.387v-6.04h6.633v-3.32h-6.633ZM183.078 231.68h-3.387v10.867c.004.742.121 1.406.356 2.004q.352.886.96 1.554.61.669 1.419 1.114c.535.293 1.11.52 1.722.668a8 8 0 0 0 1.88.218q.984.002 1.91-.218a7 7 0 0 0 1.738-.668 5.5 5.5 0 0 0 1.426-1.114q.609-.668.96-1.554c.227-.598.344-1.262.348-2.004V231.68h-3.383v10.867a2 2 0 0 1-.25.992c-.164.281-.382.52-.668.711a3.2 3.2 0 0 1-.957.422q-.532.14-1.125.14c-.37 0-.738-.046-1.086-.14a3.2 3.2 0 0 1-.945-.422 2.2 2.2 0 0 1-.668-.71 2 2 0 0 1-.25-.993ZM207.395 235.043v-3.383h-12.672v3.383h4.644v12.836h3.383v-12.836ZM220.414 236.418q-.005-1.177-.402-2.066a4.16 4.16 0 0 0-1.09-1.489 4.7 4.7 0 0 0-1.617-.902c-.61-.2-1.27-.3-1.97-.3h-6.405v16.218h6.52c.929-.004 1.73-.121 2.405-.34q1.012-.334 1.684-.902a4.3 4.3 0 0 0 1.04-1.317 5 5 0 0 0 .476-1.558q.086-.616.039-1.25a4.3 4.3 0 0 0-.285-1.246 3.7 3.7 0 0 0-.707-1.121q-.471-.522-1.223-.891c.277-.156.508-.352.703-.574q.294-.341.477-.735c.12-.257.214-.523.27-.785q.086-.395.085-.742m-8.121 1.602v-3.067h3.043q.64.006 1.047.223.41.226.597.57c.125.23.184.48.172.738a1.5 1.5 0 0 1-.23.743 1.63 1.63 0 0 1-.617.562q-.4.224-.97.23Zm0 6.585v-3.703h3.043q.796.005 1.328.274c.356.176.617.402.793.683q.265.421.266.895a1.7 1.7 0 0 1-.274.89q-.27.423-.797.688-.532.27-1.316.273ZM222.996 242.73c.004.727.133 1.372.375 1.95a4.6 4.6 0 0 0 1.008 1.511c.426.434.922.79 1.484 1.082a8 8 0 0 0 1.805.645 9.15 9.15 0 0 0 3.926-.004 8 8 0 0 0 1.804-.648 5.8 5.8 0 0 0 1.489-1.086q.644-.646 1.008-1.508t.37-1.942v-5.878c-.003-.723-.128-1.364-.37-1.942a4.7 4.7 0 0 0-1.008-1.508 5.8 5.8 0 0 0-1.489-1.086 7.5 7.5 0 0 0-1.804-.644 8.7 8.7 0 0 0-1.961-.219 8.7 8.7 0 0 0-1.965.207q-.96.209-1.805.64a5.7 5.7 0 0 0-1.484 1.083 4.7 4.7 0 0 0-1.008 1.515 5.1 5.1 0 0 0-.375 1.954Zm3.34-5.878q.01-.51.285-.891c.18-.258.43-.469.742-.645a4.1 4.1 0 0 1 1.047-.394q.585-.129 1.2-.129c.413-.008.82.031 1.206.113.395.086.746.211 1.059.383q.47.257.746.649.275.386.281.914v5.878a1.5 1.5 0 0 1-.277.887q-.276.375-.738.633a4.1 4.1 0 0 1-1.051.379c-.383.09-.79.133-1.203.137q-.626-.001-1.211-.125a4 4 0 0 1-1.055-.38 2.1 2.1 0 0 1-.746-.636 1.5 1.5 0 0 1-.285-.895ZM238.668 247.879h10.363v-3.387h-7V231.68h-3.363ZM259.668 238.43v-6.75h-3.363v16.199h3.363v-5.399l.64-.62 5.06 6.019h4.16l-6.954-8.258 6.953-7.941h-4.093ZM270.559 247.879h10.363v-3.387h-7V231.68h-3.363ZM286.367 231.68h-3.387v10.867c.004.742.122 1.406.356 2.004q.345.886.96 1.554.61.669 1.419 1.114c.531.293 1.11.52 1.723.668a8 8 0 0 0 1.878.218q.985.002 1.91-.218a7 7 0 0 0 1.739-.668 5.4 5.4 0 0 0 1.422-1.114q.615-.668.96-1.554c.231-.598.348-1.262.352-2.004V231.68h-3.387v10.867q-.005.569-.246.992-.245.423-.668.711a3.2 3.2 0 0 1-.957.422 4.4 4.4 0 0 1-2.21 0 3.2 3.2 0 0 1-.946-.422 2.2 2.2 0 0 1-.668-.71 2 2 0 0 1-.25-.993ZM309.426 236.418q-.006-1.177-.399-2.066a4.2 4.2 0 0 0-1.093-1.489 4.7 4.7 0 0 0-1.614-.902 6.4 6.4 0 0 0-1.972-.3h-6.407v16.218h6.52c.93-.004 1.73-.121 2.406-.34q1.012-.334 1.684-.902.672-.58 1.039-1.317a5 5 0 0 0 .476-1.558 5.6 5.6 0 0 0 .043-1.25 4.4 4.4 0 0 0-.285-1.246 3.7 3.7 0 0 0-.71-1.121q-.47-.522-1.22-.891c.274-.156.504-.352.7-.574q.293-.341.476-.735c.121-.257.215-.523.27-.785q.086-.395.086-.742m-8.121 1.602v-3.067h3.043c.425.004.777.078 1.047.223.277.152.472.34.601.57.125.23.18.48.172.738q-.018.392-.234.743c-.141.226-.348.418-.614.562q-.404.224-.972.23Zm0 6.585v-3.703h3.043c.535.004.976.094 1.332.274q.528.263.793.683.262.421.261.895-.005.469-.27.89c-.179.282-.448.512-.796.688-.356.18-.793.27-1.32.273ZM315.922 231.68h-3.387v10.867c.004.742.125 1.406.356 2.004q.351.886.96 1.554.615.669 1.419 1.114c.535.293 1.109.52 1.722.668a8 8 0 0 0 1.883.218c.652 0 1.293-.07 1.91-.218a7 7 0 0 0 1.738-.668 5.6 5.6 0 0 0 1.422-1.114q.61-.668.961-1.554a5.7 5.7 0 0 0 .352-2.004V231.68h-3.387v10.867a2 2 0 0 1-.25.992q-.244.423-.664.711a3.3 3.3 0 0 1-.957.422 4.44 4.44 0 0 1-2.215 0 3.3 3.3 0 0 1-.945-.422c-.281-.191-.5-.43-.668-.71a2 2 0 0 1-.25-.993Zm0 0" style="stroke:none;fill-rule:evenodd;fill:#353787;fill-opacity:1"></path><path d="m108.137 206.637 2.472-2.102-2.168-2.3a7 7 0 0 0 1.028-1.965 7.5 7.5 0 0 0 .363-2.372v-8.703c-.008-1.07-.191-2.023-.547-2.875a7 7 0 0 0-1.496-2.234 8.5 8.5 0 0 0-2.203-1.606 11 11 0 0 0-2.672-.957 13 13 0 0 0-2.906-.324 13.4 13.4 0 0 0-2.906.305q-1.425.314-2.672.957a8.5 8.5 0 0 0-2.2 1.594 6.95 6.95 0 0 0-1.492 2.25c-.36.855-.547 1.816-.55 2.89v8.703c.003 1.07.19 2.032.55 2.883a6.8 6.8 0 0 0 1.492 2.242 8.7 8.7 0 0 0 2.2 1.598q1.248.632 2.672.953a13.36 13.36 0 0 0 6.062-.066 11.1 11.1 0 0 0 2.875-1.14Zm-8.13-5.727a8 8 0 0 1-1.788-.168 5.7 5.7 0 0 1-1.563-.562 3.2 3.2 0 0 1-1.105-.95 2.25 2.25 0 0 1-.418-1.332v-8.703q.007-.756.418-1.324.405-.561 1.097-.953.699-.382 1.555-.582a8 8 0 0 1 1.774-.191 7.8 7.8 0 0 1 1.789.171 5.7 5.7 0 0 1 1.562.563c.461.254.836.574 1.106.96.27.384.414.837.418 1.356v9.145l-1.864-2-2.472 2.101 2.132 2.301q-.504.075-1.168.125-.657.042-1.472.043M124.46 181.54h-4.772l-8.399 23.98h5.316l1.997-5.489h7.148l2.098 5.489h5.218Zm-3.25 8.737.747-3.453h.234l.746 3.418 1.524 5.219h-4.606ZM148.113 205.52h6.133l-7.148-9.114c1.16-.219 2.14-.62 2.953-1.191.808-.574 1.43-1.36 1.855-2.348q.638-1.48.645-3.672c-.04-1.363-.281-2.53-.715-3.5-.441-.968-1.047-1.761-1.813-2.37-.77-.618-1.664-1.067-2.695-1.356a12 12 0 0 0-3.344-.43h-9.453v23.98h5.016v-8.773h1.762Zm-8.566-13.313v-5.656h4.437c.703-.028 1.325.047 1.86.21.543.169.96.45 1.265.852.305.399.457.938.465 1.614 0 .699-.152 1.265-.441 1.707q-.44.657-1.242.968c-.536.203-1.168.305-1.907.305Zm0 0" style="stroke:none;fill-rule:evenodd;fill:#fff;fill-opacity:1"></path><path d="M166.324 181.54h-4.773l-8.403 23.98h5.32l1.997-5.489h7.148l2.098 5.489h5.219Zm-3.25 8.737.746-3.453h.235l.746 3.418 1.523 5.219h-4.605ZM176.484 181.54v23.98h8.809c.953 0 1.879-.09 2.77-.278q1.347-.286 2.496-.87a7.3 7.3 0 0 0 2.027-1.49 6.5 6.5 0 0 0 1.355-2.155c.329-.832.489-1.786.496-2.864v-8.535c-.007-1.082-.167-2.047-.496-2.89a6.8 6.8 0 0 0-1.355-2.196 7.6 7.6 0 0 0-2.027-1.523 9.8 9.8 0 0 0-2.496-.89c-.891-.192-1.817-.29-2.77-.29Zm4.98 18.968V186.55h3.829c.547 0 1.066.05 1.559.16q.745.16 1.32.488.574.34.914.867c.219.348.332.774.34 1.262v8.535c-.008.48-.121.895-.34 1.227q-.34.506-.914.816-.575.317-1.32.457a8 8 0 0 1-1.559.145ZM207.41 181.54h-4.777l-8.399 23.98h5.317l2-5.489h7.144l2.102 5.489h5.215Zm-3.254 8.737.746-3.453h.239l.746 3.418 1.523 5.219h-4.605ZM233.828 186.281c-.465-.937-1.004-1.734-1.633-2.383a8.4 8.4 0 0 0-2.047-1.57 9.3 9.3 0 0 0-2.32-.863q-1.21-.271-2.433-.266c-.942 0-1.864.11-2.766.317q-1.352.315-2.547.949a8.4 8.4 0 0 0-2.094 1.582 6.9 6.9 0 0 0-1.418 2.207c-.343.84-.52 1.789-.523 2.84v8.734c.004 1.082.18 2.047.523 2.91.352.856.825 1.61 1.434 2.25a8.2 8.2 0 0 0 2.113 1.61 10.2 10.2 0 0 0 2.555.953 12 12 0 0 0 2.789.304 12 12 0 0 0 2.766-.335 10.4 10.4 0 0 0 2.546-.973 8.4 8.4 0 0 0 2.094-1.602 7.1 7.1 0 0 0 1.418-2.242c.344-.851.52-1.812.524-2.875v-5.992H224.48v4.844h5.454v1.148q-.011.798-.391 1.402a3.2 3.2 0 0 1-1.023.993 4.9 4.9 0 0 1-1.446.593 6.878 6.878 0 0 1-3.285 0 4.9 4.9 0 0 1-1.422-.593 3.14 3.14 0 0 1-.996-.993q-.374-.603-.379-1.402v-8.734c.004-.54.121-1.012.36-1.418q.357-.62.96-1.047a4.4 4.4 0 0 1 1.364-.637 5.8 5.8 0 0 1 1.582-.219c.629 0 1.238.09 1.836.278a4.6 4.6 0 0 1 1.597.867q.706.584 1.106 1.496Zm-5.933-10.191h2.117q-.081 1.09-.578 1.84-.497.739-1.516 1.191-1.014.451-2.191.453c-1.297 0-2.34-.308-3.114-.918q-1.17-.92-1.363-2.566h2.207c.363.95 1.512 1.23 2.152 1.23.688 0 1.957-.183 2.286-1.23M246.46 205.52h15.345v-5.012H251.44v-18.969h-4.98ZM262.855 197.898c.004 1.07.192 2.032.551 2.883a6.8 6.8 0 0 0 1.492 2.242 8.6 8.6 0 0 0 2.2 1.598q1.248.632 2.672.953 1.424.317 2.906.317c.988 0 1.96-.106 2.906-.32.95-.216 1.84-.54 2.672-.962.836-.43 1.57-.96 2.2-1.601a6.9 6.9 0 0 0 1.495-2.238c.356-.852.543-1.81.551-2.872v-8.703c-.008-1.07-.195-2.023-.55-2.875a6.9 6.9 0 0 0-1.497-2.234 8.4 8.4 0 0 0-2.2-1.606 11.2 11.2 0 0 0-2.671-.957 13 13 0 0 0-2.906-.324 13.4 13.4 0 0 0-2.906.305q-1.424.314-2.672.957a8.4 8.4 0 0 0-2.2 1.594 6.9 6.9 0 0 0-1.492 2.25c-.36.855-.547 1.816-.55 2.89Zm13.625-22.3a2.484 2.484 0 1 1 0 4.968 2.483 2.483 0 1 1 0-4.969m-7.289 0a2.483 2.483 0 1 1 0 4.968 2.484 2.484 0 1 1 0-4.969m-1.39 13.597q.007-.756.418-1.324.405-.561 1.097-.953.699-.382 1.555-.582a8 8 0 0 1 1.77-.191 7.7 7.7 0 0 1 1.789.171 5.6 5.6 0 0 1 1.566.563c.461.254.836.574 1.106.96.27.384.414.837.418 1.356v8.703c-.008.497-.141.938-.41 1.309a3.4 3.4 0 0 1-1.098.938c-.457.25-.977.433-1.551.566a8.424 8.424 0 0 1-3.574.016 6 6 0 0 1-1.563-.559 3.2 3.2 0 0 1-1.105-.945 2.22 2.22 0 0 1-.418-1.325ZM291.371 191.531v-9.992h-4.976v23.98h4.976v-7.992l.95-.918 7.484 8.91h6.164l-10.297-12.226 10.297-11.754h-6.063ZM323.82 188.55c-.007-1.163-.203-2.179-.593-3.058-.391-.875-.93-1.617-1.614-2.203a7.1 7.1 0 0 0-2.394-1.34 9.4 9.4 0 0 0-2.918-.445h-9.485v24.016h9.653c1.379-.008 2.562-.176 3.562-.504s1.828-.774 2.496-1.336a6.2 6.2 0 0 0 1.536-1.95c.359-.726.597-1.496.703-2.308.093-.606.109-1.227.062-1.852a6.5 6.5 0 0 0-.422-1.84 5.4 5.4 0 0 0-1.05-1.66c-.461-.511-1.067-.953-1.805-1.32.406-.23.75-.52 1.039-.852.285-.332.523-.695.703-1.085.184-.383.316-.774.402-1.16.086-.391.125-.758.125-1.102m-12.023 2.372v-4.54h4.504q.951.009 1.55.333c.407.219.7.504.887.84q.283.519.254 1.097-.022.576-.344 1.094-.311.512-.91.836-.592.328-1.437.34Zm0 9.754v-5.488h4.504q1.183.009 1.969.406c.527.261.914.597 1.175 1.015q.388.621.39 1.325a2.57 2.57 0 0 1-.401 1.32c-.266.418-.66.754-1.18 1.016q-.789.396-1.953.406ZM337.84 181.54h-4.774l-8.402 23.98h5.32l1.996-5.489h7.149l2.098 5.489h5.218Zm-3.25 8.737.746-3.453h.234l.746 3.418 1.524 5.219h-4.606ZM362.633 186.52v-5.016H343.87v5.016h6.875v19h5.012v-19ZM372.996 181.54h-4.773l-8.403 23.98h5.32l1.997-5.489h7.148l2.098 5.489h5.219Zm-3.25 8.737.746-3.453h.235l.746 3.418 1.523 5.219h-4.605ZM396.672 198.95l-1.695-4.337-7.586-13.074h-4.91v23.98h5.011v-11.687l-.64-4.098.336-.066 1.457 3.25 7.316 12.602h5.316v-23.98h-4.976v12.26c.004.106.027.298.058.575.036.277.075.605.125.984.051.383.11.782.172 1.207q.084.635.18 1.235c.062.402.117.762.176 1.078ZM195.215 534.445l11.387-1.238c.37-.035.734-.082 1.101-.133.336-.043.668-.14.984-.258.418-.152.836-.382 1.215-.609.606-.36 1.192-.785 1.758-1.195l.418-.305-.656 4.3-20.508 2.231-.36-.476 10.364-15.32c.941-1.407 1.777-2.973 2.223-4.614.332-1.27.511-2.617.32-3.926-.16-1.078-.504-2.105-1.137-2.996-.566-.793-1.281-1.418-2.172-1.82-.886-.414-1.832-.531-2.797-.426a7.8 7.8 0 0 0-1.976.45 6.8 6.8 0 0 0-1.621.921c-.59.453-1.149.957-1.672 1.485-.715.714-1.43 1.425-2.137 2.144l-.383.39.118-3.847.082-.062a26 26 0 0 1 2.222-1.524c.684-.414 1.395-.789 2.137-1.082a14 14 0 0 1 2.363-.719c.953-.21 1.938-.34 2.91-.43 1.54-.12 3.086.005 4.536.551 1.3.485 2.421 1.247 3.3 2.32.895 1.098 1.383 2.391 1.57 3.79.212 1.64-.113 3.32-.652 4.867-.707 2.04-1.949 3.938-3.285 5.613ZM241.086 511.992c.5 1.547.766 3.14.797 4.762.039 1.594-.137 3.18-.52 4.723a17 17 0 0 1-1.691 4.336 15.3 15.3 0 0 1-2.703 3.597 12.4 12.4 0 0 1-3.582 2.485c-1.36.632-2.809.953-4.305 1.007a13.1 13.1 0 0 1-3.734-.433 12.5 12.5 0 0 1-3.641-1.63c-1.238-.808-2.281-1.855-3.168-3.034-1.035-1.38-1.773-2.977-2.316-4.606a17.5 17.5 0 0 1-.809-4.781 18.2 18.2 0 0 1 .504-4.734 17.8 17.8 0 0 1 1.68-4.332 15.5 15.5 0 0 1 2.71-3.582 12.7 12.7 0 0 1 3.606-2.485c1.379-.625 2.856-.945 4.367-1 1.25-.05 2.496.102 3.707.418 1.293.336 2.504.899 3.621 1.629 1.235.813 2.282 1.863 3.16 3.043 1.036 1.379 1.77 2.988 2.317 4.617m-4.215 5.832c-.152-1.926-.465-3.886-1.062-5.726-.477-1.438-1.11-2.875-2.004-4.106-.707-.969-1.567-1.84-2.618-2.433-.898-.504-1.867-.774-2.894-.739-1.176.063-2.316.32-3.332.922a7.5 7.5 0 0 0-2.328 2.176 11.8 11.8 0 0 0-1.469 3.012 17.4 17.4 0 0 0-.703 3.375 19 19 0 0 0-.074 3.285c.152 1.93.468 3.89 1.066 5.734.477 1.442 1.11 2.887 2 4.125.7.969 1.55 1.852 2.594 2.453.883.504 1.848.782 2.867.746 1.305-.07 2.652-.32 3.805-.964.965-.543 1.785-1.262 2.394-2.188a9.8 9.8 0 0 0 1.309-3.008c.273-1.101.437-2.23.492-3.367a28 28 0 0 0-.043-3.297M273.234 513.133c.41 1.586.579 3.226.508 4.86a18 18 0 0 1-.824 4.726 17.3 17.3 0 0 1-1.98 4.261 15.5 15.5 0 0 1-2.954 3.457 12.6 12.6 0 0 1-3.773 2.274c-1.406.55-2.887.785-4.395.746a13.3 13.3 0 0 1-3.746-.676 12.6 12.6 0 0 1-3.566-1.875c-1.195-.89-2.18-2.011-3-3.258-.957-1.453-1.598-3.113-2.043-4.793a17.5 17.5 0 0 1-.512-4.875c.063-1.609.332-3.199.809-4.738a18 18 0 0 1 1.969-4.262 15.5 15.5 0 0 1 2.96-3.433 12.7 12.7 0 0 1 3.793-2.277c1.43-.543 2.938-.774 4.461-.735 1.27.031 2.512.262 3.715.656 1.285.422 2.469 1.07 3.551 1.875 1.188.895 2.176 2.024 2.988 3.266.957 1.457 1.598 3.125 2.04 4.8m-4.613 5.617c-.031-1.953-.223-3.953-.707-5.848-.387-1.476-.937-2.968-1.762-4.265-.648-1.02-1.46-1.953-2.48-2.617-.879-.57-1.836-.903-2.883-.93-1.18-.016-2.355.18-3.414.719a7.5 7.5 0 0 0-2.484 2.046 11.9 11.9 0 0 0-1.672 2.942 17.3 17.3 0 0 0-.922 3.36 18.5 18.5 0 0 0-.285 3.308c.031 1.957.226 3.953.71 5.851.387 1.485.938 2.985 1.758 4.29.641 1.019 1.446 1.96 2.458 2.636.863.567 1.804.906 2.84.938 1.32.011 2.702-.157 3.906-.735 1.007-.488 1.878-1.16 2.554-2.054.676-.895 1.164-1.883 1.512-2.95.344-1.097.582-2.226.707-3.367a28 28 0 0 0 .164-3.324M285.156 518.348a8 8 0 0 1-1.746-2.325 7 7 0 0 1-.719-3.238c.02-1.265.438-2.45 1.059-3.543.742-1.199 1.7-2.21 2.934-2.906a9.1 9.1 0 0 1 3.836-1.164 11 11 0 0 1 2.293.043c.835.094 1.66.277 2.464.515.805.243 1.59.567 2.325.977.691.375 1.34.84 1.886 1.41 1.016 1.094 1.82 2.395 2.032 3.895.195 1.426-.223 2.726-1.06 3.883-.968 1.355-2.495 2.363-3.987 3.105 1.105.793 2.168 1.691 3.062 2.715.848.95 1.504 2.035 1.88 3.254.382 1.265.405 2.578.194 3.875-.23 1.304-.699 2.539-1.488 3.605a9 9 0 0 1-2.758 2.48c-1.105.65-2.3 1.11-3.55 1.387-1.29.286-2.606.399-3.922.352a15 15 0 0 1-3.82-.645c-1.18-.363-2.29-.89-3.313-1.578a11.7 11.7 0 0 1-2.645-2.433 9.2 9.2 0 0 1-1.613-3.098c-.344-1.16-.395-2.344-.2-3.535.188-1.14.552-2.274 1.216-3.23.62-.919 1.453-1.657 2.394-2.247 1.02-.62 2.13-1.125 3.246-1.554m9.133-.446c.969-.734 1.902-1.64 2.453-2.738.453-.89.707-1.855.617-2.863a5.1 5.1 0 0 0-.906-2.528 5.54 5.54 0 0 0-2.039-1.808 5.8 5.8 0 0 0-1.574-.504 6.4 6.4 0 0 0-1.852-.04 4.7 4.7 0 0 0-1.722.567c-.54.313-.95.762-1.243 1.309a5.6 5.6 0 0 0-.613 2.21c-.05.755.117 1.477.445 2.153.403.805 1.063 1.477 1.766 2.024.422.32.89.586 1.375.816a32 32 0 0 0 1.781.793c.5.207 1.004.414 1.512.61m-6.809 1.828a7.3 7.3 0 0 0-2.316 1.579 8.3 8.3 0 0 0-1.64 2.379 8.7 8.7 0 0 0-.762 2.769 7.7 7.7 0 0 0 .234 2.805 6.6 6.6 0 0 0 1.29 2.496c.671.812 1.523 1.406 2.472 1.847 1.168.547 2.496.774 3.773.852a5.1 5.1 0 0 0 2.367-.45 6.1 6.1 0 0 0 1.942-1.413 7.2 7.2 0 0 0 1.348-2.047 6.8 6.8 0 0 0 .585-2.352c.063-.965-.086-1.925-.59-2.77-.5-.847-1.203-1.542-2.007-2.105-.961-.691-2.004-1.277-3.063-1.8-1.21-.594-2.422-1.196-3.633-1.79m0 0" style="stroke:none;fill-rule:evenodd;fill:#fff;fill-opacity:1" data-source="https://football-logos.cc"></path><!-- source: https://football-logos.cc --></svg>