<svg xmlns="http://www.w3.org/2000/svg" viewBox="55.27 72.26 679.35 938.37"><!-- Source: https://football-logos.cc --><path d="M49.108 574.68c-4.344 3.297-7.153 8.514-7.153 14.376 0 7.675 4.816 14.246 11.586 16.848l.783.238 79.487 152.59-.352.892a20.4 20.4 0 0 0-1.27 7.099c0 11.288 9.184 20.472 20.473 20.472 6.169 0 11.71-2.743 15.466-7.074l.2-.231h254.667l.584.652c3.745 4.087 9.124 6.653 15.091 6.653 11.289 0 20.473-9.184 20.473-20.472 0-2.84-.582-5.547-1.632-8.008l.49-.907 77.576-148.919.953-.287c8.608-2.42 14.937-10.341 14.937-19.712 0-7.466-4.017-14.012-10.003-17.588l-.709-.483-40.27-195.26.504-.488a20.37 20.37 0 0 0 4.154-12.348c0-11.29-9.184-20.473-20.473-20.473-2.478 0-4.854.442-7.054 1.252l-.789.307-161.106-83.04-.265-.95c-2.32-8.76-10.315-15.236-19.794-15.236-9.528 0-17.557 6.542-19.829 15.372l-.164.784-161.2 83.088-.594-.265a20.4 20.4 0 0 0-7.213-1.312c-11.289 0-20.473 9.184-20.473 20.473 0 4.664 1.568 8.97 4.205 12.415l.437.502-40.906 198.336z" style="fill:#4b2a91;fill-opacity:1;fill-rule:nonzero;stroke:none" transform="matrix(1.33333 0 0 -1.33333 -.667 1121.853)" data-source="https://football-logos.cc"></path><path d="M54.642 578.268a12.04 12.04 0 0 0-6.687 10.788c0 5.819 4.126 10.673 9.613 11.796l.832.128 82.173 157.745-.217.377a14.4 14.4 0 0 0-2.167 7.62c0 7.993 6.48 14.473 14.473 14.473 4.995 0 9.4-2.531 12-6.381l.667-.924h260.749l.356.564c2.565 4.051 7.087 6.741 12.236 6.741 7.994 0 14.473-6.48 14.473-14.472 0-2.792-.79-5.4-2.16-7.61l-.174-.484 80.504-154.541.433-.745c7.644-.39 13.721-6.713 13.721-14.453 0-6.403-4.158-11.835-9.921-13.743l-.295-1.312-41.254-200.029.566-.52a14.43 14.43 0 0 0 4.58-10.563c0-7.993-6.48-14.473-14.473-14.473-2.661 0-5.155.718-7.297 1.972l-.545.337-166.672-85.91-.062-.678c-.554-7.486-6.804-13.388-14.432-13.388-7.657 0-13.924 5.946-14.438 13.472l.046.547-166.047 85.586-.726.365a14.4 14.4 0 0 0-7.835-2.303c-7.994 0-14.473 6.48-14.473 14.473 0 4.23 1.815 8.036 4.709 10.682l.437.403L55.249 577.87z" style="fill:#fff;fill-opacity:1;fill-rule:nonzero;stroke:none" transform="matrix(1.33333 0 0 -1.33333 -.667 1121.853)"></path><path d="m257.63 124.48-10.934-20.074 3.406-6.74 6.479 14.577V83.975h7.351v40.504zM270.942 111.062c0-4.211.71-7.492 2.114-9.751 1.464-2.36 3.59-3.557 6.322-3.557 2.077 0 3.787.669 5.084 1.987.474.482.834 1.098 1.193 1.715-.126-4.105-.418-7.04-.884-8.667-.539-1.874-1.505-2.747-3.042-2.747-1.042 0-1.814.415-2.363 1.269-.598.93-.884 2.711-.849 5.294l.01.713-7.244-.547-.005-.6c-.038-4.215.873-7.423 2.708-9.533 1.857-2.137 4.35-3.22 7.408-3.22 3.037 0 5.422.815 7.089 2.422 1.64 1.583 2.825 4.223 3.52 7.85.676 3.535 1.019 8.644 1.019 15.188 0 5.135-.832 9.128-2.473 11.87-1.706 2.849-4.579 4.294-8.539 4.294-7.344 0-11.068-4.704-11.068-13.98m7.24-.056c0 7.468 2.797 7.468 3.716 7.468.947 0 3.829 0 3.829-7.413 0-2.497-.363-4.47-1.077-5.862-.65-1.268-1.569-1.885-2.808-1.885-2.428 0-3.66 2.588-3.66 7.692M298.438 111.062c0-4.211.71-7.492 2.113-9.751 1.464-2.36 3.591-3.557 6.323-3.557 2.076 0 3.787.669 5.084 1.987.474.482.833 1.098 1.193 1.715-.126-4.105-.419-7.04-.885-8.667-.537-1.874-1.504-2.747-3.04-2.747-1.043 0-1.816.415-2.365 1.269-.598.93-.883 2.711-.848 5.294l.01.713-7.244-.547-.005-.6c-.039-4.215.873-7.423 2.708-9.533 1.857-2.137 4.35-3.22 7.408-3.22 3.036 0 5.421.815 7.088 2.422 1.641 1.583 2.825 4.223 3.52 7.85.676 3.535 1.02 8.644 1.02 15.188 0 5.135-.832 9.128-2.473 11.87-1.706 2.849-4.58 4.294-8.539 4.294-7.344 0-11.068-4.704-11.068-13.98m7.24-.056c0 7.468 2.797 7.468 3.716 7.468.946 0 3.828 0 3.828-7.413 0-2.497-.362-4.47-1.076-5.862-.65-1.268-1.57-1.885-2.808-1.885-2.429 0-3.66 2.588-3.66 7.692M325.434 124.48v-6.85h14.74c-3.737-4.736-6.5-9.75-8.132-14.943-1.747-5.561-2.67-11.634-2.745-18.052l-.008-.66h8.091l-.003.656c-.036 6.891.588 12.836 1.855 17.667 1.266 4.826 3.55 10.036 6.79 15.484l.092.155v6.542zM106.335 143.349c-11.157 2.111-16.804 11.103-16.804 26.808v.569l14.87 3.905-.064-1.019c-.536-8.459.504-14.143 3.089-16.897 1.25-1.333 2.846-1.98 4.877-1.98 4.294 0 6.382 2.9 6.382 8.868 0 2.494-.5 4.632-1.485 6.357-.987 1.726-2.286 3.081-3.864 4.028a51 51 0 0 1-5.514 2.84 65 65 0 0 0-6.23 3.2 28.4 28.4 0 0 0-5.8 4.465c-1.768 1.768-3.214 4.257-4.301 7.4-1.076 3.114-1.622 6.865-1.622 11.147 0 7.397 1.856 13.063 5.518 16.84 3.67 3.786 8.753 5.706 15.107 5.706 6.988 0 12.26-2.226 15.668-6.613 3.365-4.331 5.07-11.327 5.07-20.792v-.568l-14.752-3.909.058 1.015c.443 7.817.032 13.052-1.223 15.561-1.193 2.388-2.992 3.548-5.499 3.548-1.874 0-3.303-.73-4.372-2.232-1.108-1.56-1.67-3.754-1.67-6.523 0-3.718.948-6.712 2.818-8.9a20.1 20.1 0 0 1 6.92-5.233 195 195 0 0 0 8.45-4.14c2.94-1.529 5.473-4.095 7.53-7.63 2.055-3.527 3.096-8.156 3.096-13.759 0-14.449-6.507-22.018-19.346-22.52l-.454-.018c-.486-1.24-1.16-2.96-1.465-3.742 3.17-.066 5.8-.71 7.794-1.957 2.33-1.454 3.51-3.66 3.51-6.557 0-2.632-1.08-4.84-3.213-6.561-2.083-1.684-4.787-2.537-8.033-2.537-2.268 0-4.677.492-7.162 1.462-2.482.97-4.611 2.252-6.327 3.814l-.47.426 2.587 3.884.623-.46c3.02-2.229 5.876-3.359 8.49-3.359 3.796 0 4.235 1.772 4.235 3.105 0 2.78-2.931 4.473-8.713 5.03l-.988.095 3.192 7.758zM149.02 224.586l-14.16-80.574h14.162l2.6 16.158h16.26l2.597-16.158h14.955l-14.273 80.574zm10.888-14.275 6.043-37.93h-12.28zM235.057 224.586l-10.788-67.187-10.895 67.187h-23.398l-.116-80.574h14.6l-1.507 62.23 12.467-62.23h17.593l12.466 62.228-1.508-62.228h14.6l-.115 80.574zM278.29 224.586l-14.16-80.574h14.162l2.6 16.158h16.259l2.598-16.158h14.954l-14.273 80.574zm10.887-14.275 6.043-37.93h-12.28zM350.685 224.586l-9.164-32.501-9.27 32.5h-15.274l13.937-39.273-14.268-41.3h15.264s8.379 29.14 9.61 33.426l9.504-33.426h15.152l-14.265 41.3 13.934 39.274zM370.092 224.586v-80.574h14.581v80.574zM414.952 224.586v-80.574h14.58v31.187h19.55v12.322h-19.55v24.743h22.036v12.322zM487.375 224.586l-16.034-44.642v44.642h-14.58v-80.574h14.58v20.09l7.814 13.623 8.62-33.713h17.21l-17.299 48.577 18.316 31.997zM370.924 445.47l-10.987-13.283s-5.731 1.272-11.524-2.7l-40.922 17.392c-2.13 7.364-8.496 8.76-8.496 8.76v6.876c8.375 2.375 8.764 10.806 8.764 10.806l39.197 25.122s3.892-2.496 9.965-1.15l18.067-35.782s-7.259-5.087-4.064-16.042M299.795 485.44l39.265 25.164c-.436 6.84 4.17 10.997 4.17 10.997l-15.545 54.586-.906.58a9.72 9.72 0 0 0-4.012 7.873c0 5.373 4.355 9.729 9.728 9.729a9.7 9.7 0 0 0 3.562-.673l.957-.474 58.466 16.034c.986 4.366 3.922 7.007 3.922 7.007l-3.877 14.51s-4.63 2.116-6.23 7.116L304.3 669.815l-.627-.404a14.4 14.4 0 0 0-8.012-2.418c-4.467 0-8.46 2.024-11.116 5.204l-.379.428-81.815-31.006-.005-.627c-.336-5.613-4.518-10.191-9.947-11.133l-.86-.056-3.358-14.21s2.89-1.891 4.302-5.347l58.497-16.5.66.512a12 12 0 0 0 7.354 2.506c6.65 0 12.04-5.391 12.04-12.04 0-6.413-5.013-11.657-11.335-12.022l-.265-.922-14.215-50.543s4.086-2.314 4.493-8.893l42.014-26.984s2.994 1.381 8.068.08zM263.245 373.89h65.25c1.874 3 5.588 3.966 5.588 3.966l12.033 30.707c-3.004 3.547-3.37 7.577-3.37 7.577l-40.98 17.417s-5.572-3.886-12.109.036l-44.19-19.012s-1.09-3.735-4.155-6.213l11.522-29.31s6.161.832 10.411-5.168M329.843 357.633l-32.966-78.193s-1.898.237-3.181-.073l-32.45 78.574c1.083.802 1.416 1.449 1.416 1.449h65.666s.695-1.013 1.515-1.757M338.079 354.515c6.65 0 12.04 5.392 12.04 12.04 0 2.232-.606 4.32-1.663 6.112l-.537.756 11.839 30.212 1.117.241c6.236 1.61 10.842 7.275 10.842 14.014 0 1.378-.193 2.712-.552 3.975l-.303.781 11.313 13.675 2.32-.154c7.993 0 14.472 6.48 14.472 14.473 0 1.445-.212 2.842-.607 4.16l-.35 1.02 30.957 40.014 1.356 1.55-10.265-52.306-.913-.134a9.73 9.73 0 0 1-6.878-9.304 9.7 9.7 0 0 1 2.77-6.799l.947-.922-27.777-105.35-.455-1.61-80.9-41.699-1.464-.741 32.064 76.055zM336.845 711.177a9.7 9.7 0 0 1-5.1 1.442c-5.373 0-9.728-4.356-9.728-9.73l.136-1.43-16.363-9.588-.72.592a14.4 14.4 0 0 1-9.408 3.475 14.42 14.42 0 0 1-9.894-3.91l-.427-.366-72.663 43.753.046.975c0 5.373-4.355 9.729-9.729 9.729a9.7 9.7 0 0 1-4.654-1.183l-.716-.385-24.225 14.82 1.178.019h243.25l1.065.032-81.318-48.831zM341.474 702.89c0-5.372-4.355-9.73-9.729-9.73a9.7 9.7 0 0 0-4.148.927l-1.058.437-16.715-9.793s.166-.518.252-1.596l83.927-31.525.382.256a12 12 0 0 0 6.36 1.815c5.243 0 9.702-3.35 11.355-8.026l.21-.728 52.437-21.51.616.522a14.4 14.4 0 0 0 8.382 2.673c6.994 0 12.83-4.962 14.178-11.556l.154-1.208 26.231-10.76 1.535-.69-78.006 149.746-.747.191a14.4 14.4 0 0 0-7.477 3.1l-.633.48-87.715-52.673zM152.147 503.117l29.164-123.48.147-1.118a9.71 9.71 0 0 1-3.691-7.63c0-4.333 2.834-8.006 6.751-9.264l1.246-.397 8.419-34.001.38-1.62-73.382 37.823-.143.964a14.47 14.47 0 0 1-6.329 10.359l.415 1.364 36.85 127.777zM423.959 425.999 397.59 325.995l.667.378 71.985 37.104.033.75a14.46 14.46 0 0 0 5.676 10.047l.57.435-36.102 126.46-.582 2.112-11.792-60.082.542-.405a9.734 9.734 0 0 0-3.268-16.301z" style="fill:#4b2a91;fill-opacity:1;fill-rule:nonzero;stroke:none" transform="matrix(1.33333 0 0 -1.33333 -.667 1121.853)" data-source="https://football-logos.cc"></path><path d="m244.849 550.202 6.969 24.78c-2.378 1.793-3.629 4.486-3.629 4.486l-46.136 13.012-1.912.556 44.325-43.875zM178.288 641.723c0 6.65 5.39 12.041 12.04 12.041a12 12 0 0 0 8.998-4.039l.372-.342 81.481 30.88c-.15 2.205.323 4.139.323 4.139l-73.02 43.966-.615-.402a9.7 9.7 0 0 0-4.872-1.305c-5.373 0-9.728 4.357-9.728 9.729l.126 1.137-30.585 18.71-.469-.275a14.4 14.4 0 0 0-7.933-3.608l-.862-.114-80.088-153.745 1.18.537 62.753 25.774.194.715a7.785 7.785 0 0 0 11.232 4.401l.508-.3 29.017 11.606zM215.386 446.425l14.391-17.134s5.655 2.245 10.686-1.078l43.47 18.703c1.814 6.65 8.062 8.6 8.062 8.6v6.999c-8.125 3.125-8.256 10.742-8.256 10.742l-42.424 27.247s-2.51-.713-4.603-.539l-22.776-43.419s3.965-3.586 1.45-10.121M204.423 459.93l-42.966 54.826-.646.767a9.7 9.7 0 0 1 1.163 4.617c0 2.56-.99 4.89-2.606 6.628l-.429.392c4.342 12.68 16.331 47.703 22.753 66.463 0 0 2.62-.018 4.862 1.324l55.528-54.963-.275-.598-4.29-15.252-.9-.082c-6.161-.53-10.996-5.699-10.996-11.996 0-2.94 1.054-5.635 2.804-7.725l.824-.943-22.71-43.291s-1.313 0-2.116-.166M173.07 596.96a12 12 0 0 0-3.782 8.763c0 5.99 4.375 10.96 10.104 11.886l.862.09 3.287 13.905c-1.454 1.113-2.222 1.983-2.222 1.983l-27.76-11.103-.84-.298a7.784 7.784 0 0 0-12.684-5.045l-1.129-.578-66.327-27.26-.543-.247c0-2.626-.842-5.057-2.269-7.036l-.452-.567 40.212-194.974.488 1.516 35.943 124.63-.297.353a9.7 9.7 0 0 0-3.144 7.162c0 4.701 3.334 8.624 7.767 9.53l.893.132 22.726 66.385zM253.329 355.015c-6.65 0-12.04 5.392-12.04 12.04a12 12 0 0 0 3.277 8.259l.672.657-11.82 30.061-1.316.131c-5.75.908-10.147 5.888-10.147 11.893 0 1.943.46 3.778 1.276 5.402l.33.485-14.277 16.997-2.789-.28c-5.373 0-9.762 4.358-9.728 9.73.021 3.5 1.265 4.402 1.265 4.402l-36.566 46.659-.694.823 28.78-121.854.844-.241c3.957-1.235 6.828-4.927 6.828-9.29a9.7 9.7 0 0 0-3.02-7.044l-.52-.491 10.062-40.63.49-2.103 79.707-41.084 1.003-.467-31.38 75.982zM447.26 507.08l34.505-120.872.182.959 39.03 189.243.381 1.682a14.46 14.46 0 0 0-4.588 8.122l-.778.51-33.59 13.779-.593-.383a14.4 14.4 0 0 0-8.064-2.453c-6.905 0-12.68 4.836-14.124 11.306l-.246.976-48.584 19.93 2.679-10.095 1.084-.33c5.498-2.053 9.413-7.351 9.413-13.564 0-3.613-1.323-6.916-3.512-9.452l.478-1.303 21.077-60.806.825-.187c6.214-1.626 10.799-7.28 10.799-14.002 0-5.09-2.628-9.567-6.6-12.147zM382.423 464.978l-18.393 36.43.754.925a14.4 14.4 0 0 1 3.183 9.057c0 6.224-3.93 11.53-9.443 13.574l-1.262.305-5.022 17.634.897.951 49.761 49.132s1.534-.885 3.915-1.39l21.504-62.038-.538-.479a14.4 14.4 0 0 1-3.09-8.94c0-1.754.313-3.436.885-4.993l-.68-.881-38.075-49.212s-2.217.638-4.396-.075M389.86 591.636l-39.505-39.005-.726-.558-7.37 25.88-.466 1.544 49.6 13.603z" style="fill:#4b2a91;fill-opacity:1;fill-rule:nonzero;stroke:none" transform="matrix(1.33333 0 0 -1.33333 -.667 1121.853)" data-source="https://football-logos.cc"></path><!-- source: https://football-logos.cc --></svg>