<svg xmlns="http://www.w3.org/2000/svg" viewBox="74.39 117.78 641.76 897.06"><!-- Source: https://football-logos.cc --><path d="M79.488 753.058c13.554 0 17.04-8.262 17.04-15.552V730.8c0-3.014-1.593-4.569-4.782-4.569h-5.282c-3.089 0-4.683 1.652-4.683 4.666v7.29c0 2.818-1.794 5.15-4.684 5.15s-4.784-2.332-4.784-5.15c0-6.999.897-8.651 4.784-11.956l14.25-11.956c4.285-3.596 5.182-8.942 5.182-17.787 0-7.096-3.487-15.552-17.04-15.552h-4.783c-13.653 0-17.141 8.553-17.141 15.649v6.512c0 3.11 1.594 4.666 4.883 4.666h5.082q4.783 0 4.783-4.666v-7.387c0-2.721 1.994-5.054 4.784-5.054s4.684 2.333 4.684 5.054c0 6.415-.3 8.456-4.784 12.053l-14.15 11.956c-4.285 3.596-5.282 8.748-5.282 17.787 0 7.29 3.687 15.552 17.14 15.552zM141.048 752.183c3.09 0 4.783-1.458 4.783-4.47v-51.225c0-7.29-3.787-15.552-17.04-15.552h-4.783c-13.852 0-17.14 8.65-17.14 15.649v50.933q0 4.665 4.782 4.665h5.182c3.09 0 4.784-1.458 4.784-4.47V695.71c0-2.721 1.893-5.054 4.783-5.054s4.684 2.333 4.684 5.054v51.808c0 3.013 1.694 4.665 4.783 4.665zM171.815 752.183c2.89 0 5.082-1.652 5.58-4.47l5.083-33.34h1.195l4.983 33.34c.399 2.818 2.79 4.47 5.68 4.47h9.468c3.089 0 4.683-1.555 4.683-4.665v-61.042c0-3.11-1.594-4.665-4.683-4.665h-2.99c-3.09 0-4.784 1.555-4.784 4.374v44.372l-6.078-31.857c-.4-3.014-1.794-4.666-4.883-4.666h-4.186c-3.09 0-4.384 1.652-4.783 4.666l-6.079 31.857v-44.372c0-2.82-1.694-4.374-4.784-4.374h-2.989c-3.089 0-4.684 1.555-4.684 4.665v61.042c0 3.11 1.595 4.665 4.684 4.665zM294.995 752.183c2.942 0 4.175-1.458 4.65-4.47l9.868-61.528c.475-2.916-.664-4.374-3.606-4.374H300.5c-2.942 0-4.08 1.652-4.46 4.665l-1.233 8.65h-13l-1.234-8.941c-.38-2.82-1.613-4.374-4.554-4.374h-5.41c-2.94 0-4.08 1.652-3.605 4.665l10.058 61.042c.474 3.013 1.519 4.665 4.46 4.665zm-7.212-9.234-2.75-25.952-1.804-12.15h10.153l-1.802 12.15-2.658 25.952zM347.84 752.183c2.668 0 4.646-1.75 3.756-4.47l-13.544-39.756v-21.48c0-3.111-1.582-4.666-4.646-4.666h-5.338c-3.065 0-4.647 1.458-4.647 4.374v21.772l-13.544 39.755c-.89 2.722 1.087 4.471 3.757 4.471h5.833c3.064 0 3.954-1.652 4.646-4.665l3.46-13.414 2.57-13.9h1.187l2.57 13.9 3.46 13.414c.791 3.013 1.681 4.665 4.745 4.665zM368.722 752.183c3.089 0 4.783-1.458 4.783-4.47v-61.528c0-2.82-1.694-4.374-4.783-4.374h-5.182q-4.784 0-4.784 4.665v61.042q0 4.665 4.784 4.665zM408.813 742.463v-56.278c0-2.82-1.793-4.374-4.684-4.374h-5.28q-4.784 0-4.784 4.665v55.987h-8.797c-2.967 0-4.593.68-4.593 3.694v2.333c0 2.818 1.435 3.693 4.402 3.693h32.92c2.774 0 4.306-.875 4.306-3.693v-2.333c0-3.013-1.532-3.694-4.498-3.694zM483.662 752.183c2.89 0 4.484-.875 4.484-3.693v-2.333c0-3.013-1.694-3.694-4.783-3.694h-13.827v-20.12h10.34c2.89 0 4.483-.778 4.483-3.791v-2.333c0-3.013-1.693-3.693-4.782-3.693h-10.041v-26.341c0-2.82-1.695-4.374-4.784-4.374h-5.182q-4.783 0-4.783 4.665v61.042q0 4.665 4.783 4.665zM505.555 752.183c3.04 0 4.707-1.458 4.707-4.47v-25.055h1.177l10.102 24.86c1.079 2.818 1.667 4.665 4.707 4.665h8.042c3.04 0 4.021-1.847 2.844-4.47l-13.141-29.841 13.14-31.687c1.08-2.625.198-4.374-2.843-4.374h-8.042c-3.04 0-3.628 1.847-4.707 4.665l-10.102 26.317h-1.177v-26.608c0-2.82-1.667-4.374-4.707-4.374h-5.1q-4.707 0-4.707 4.665v61.042q0 4.665 4.708 4.665zM244.004 738.187c0 2.818-1.993 5.15-4.883 5.15s-4.982-2.332-4.982-5.15V695.71c0-2.819 2.092-5.054 4.982-5.054s4.883 2.333 4.883 5.151zm11.954-51.144 5.717-9.72a3.84 3.84 0 0 0-1.358-5.238l-5.703-3.356a3.84 3.84 0 0 0-5.239 1.359l-6.379 10.845-6.366.002c-13.753 0-17.041 8.651-17.041 15.65v40.92c0 7.388 3.887 15.553 17.04 15.553h4.884c13.254 0 17.04-8.262 17.04-15.552V696.39c0-2.732-.578-6.216-2.406-9.043zM297.295 629.037l91.017-123.156c6.511-8.336 9.688-9.664 16.438-8.764s11.25 6.075 13.085 14.166l14.821 62.222c7.16 30.99 17.212 34.626 28.852 38.836 8.022 2.902 29.479 2.6 40.984-17.198l1.722-3.299c-21.764 1.133-41.438-13.002-48.614-43.427l-25.168-105.705c-2.507-9.945-4.929-16.15-11.282-16.92-7.425-.9-9.4 3.47-15.388 11.41L277.73 607.728c-12.479 17.189-24.028 34.289-56.428 34.139H64.325c-5.625.15-7.95-3.675-8.025-9.525v-10.576c-.075-6.524 1.5-10.425 8.25-10.5l156.893.001c15.876.074 19.577-5.033 30.562-20.192l126.713-171.471c16.044-21.488 28.732-25.312 46.957-23.062s29.025 16.65 33.7 35.614l25.993 109.173c2.15 9.118 5.987 15.831 10.541 18.481 3.018 1.755 6.847 1.972 11.384.642 2.067-.606 4.077-1.242 5.92-2.107 12.387-5.822 22.037-.928 23.831 12.59 1.557 11.728-.103 25.829-8.094 39.582-19.35 33.3-56.7 38.25-77.85 30.6s-38.7-19.35-48.259-60.724l-7.675-32.224-65.017 87.899c-3.725 5.076-6.624 5.799-11.798 5.799H303.05c-7.65.15-11.06-5.56-5.755-12.83" style="fill:#82579e;fill-opacity:1;fill-rule:nonzero;stroke:none" transform="matrix(1.33333 0 0 -1.33333 -.667 1121.853)" data-source="https://football-logos.cc"></path><path d="M60.956 415.01a526 526 0 0 1 17.698-5.445c6.08-1.756 8.171.927 8.246 9.685v134.416l98.454.001c14.713.098 23.492-2.287 33.59-16.105 8.922-12.208 45.917-62.3 83.06-112.555 1.4-1.894 6.446-3.04 9.058-.04 5.738 6.77 9.876 12.064 12.339 15.314 1.78 2.347.596 6.452-.447 7.864-35.825 48.473-70.65 95.629-79.304 107.472-17.1 23.4-36 28.8-58.5 28.65H75.124c-13.275.15-18.9-7.275-18.825-18.075v-141.75c-.075-4.05.6-7.65 4.656-9.432" style="fill:#82579e;fill-opacity:1;fill-rule:nonzero;stroke:none" transform="matrix(1.33333 0 0 -1.33333 -.667 1121.853)"></path><path d="M112.715 157.843c-6.852 3.719-13.83 7.629-22.065 12.799-34.763 21.825-34.35 66.225-34.35 81.224v107.55c.075 5.175 1.725 9.45 5.775 13.05 4.651 4.135 10.8 4.5 22.734 1.388 25.743-6.716 65.16-12.015 103.995-.79 26.905 7.776 46.23 18.097 59.22 26.933l-52.857 71.63c-17.24 23.22-22.318 23.395-40.884 23.69h-33.57c-3.454 0-5.736 2.673-5.74 7.875-.004 3.957-.005 9.378.003 16.2-.026 3.375 2.674 6.525 6.949 6.525h32.625c28.35-.45 42.172-5.05 65.186-36.05l59.92-81.115c8.32-11.085 5.078-19.024-2.414-25.067-14.987-12.089-40.76-28.694-79.942-40.018-40.796-11.79-81.22-8.01-110.461-1.742l.061-90.668c0-19.632 2.288-43.566 20.021-54.7a325 325 0 0 1 13.386-7.992l77.257 93.553 14.773-.258c.438-.008 44.428-.533 90.61 19.646 35.762 15.627 63.766 41.863 77.08 55.865 1.682 1.768 5.96 2.588 7.894.107 2.298-2.953 5.022-6.467 5.929-7.705 2.034-2.777 4.349-5.926 6.1-8.42 2.325-3.311.236-7.21-1.367-8.839-16.22-16.474-45.75-42.602-83.383-59.047-53.55-23.4-103.5-22.2-103.5-22.2l-73.375-89.155c-7.4-9.02-13.22-10.992-25.61-4.269M457.01 256.335c-7.86-2.479-18.244-4.81-29.866-8.735l18.386-8.856c6.83-3.437 6.74-8.477.304-11.087l-20.494-9.409c-9.52-4.361-14.68-2.452-19.39.373l-21.054 11.75c-10.568-5.123-21.4-11.053-32.091-17.897l23.207-9.008c4.163-1.538 5.307-6.375.824-9.615l-18.976-12.364c-6.12-4.32-12.545-3.942-18.9-1.44l-21.078 7.22c-22.255-17.883-38.714-35.255-49.463-46.676-3.761-3.996-8.66-3.204-12.98.576s-4.32 8.82 1.117 14.528c5.401 5.672 11.817 12.609 19.566 20.049l-4.07 23.3c-1.184 6.727.407 12.752 6.004 17.937l16.16 15.014c4.267 3.798 8.952 1.757 9.627-2.63l4.287-25.68a439 439 0 0 0 18.543 13.922c4.279 3.039 13.764 9.377 14.007 9.536l1.115 23.074c.27 6.825 3.105 12.375 9.675 16.253l18.979 11.24c4.976 2.807 9.121-.182 8.849-4.613l-1.19-24.997c12.279 5.891 24.173 10.74 35.14 14.704l5.55 22.113c1.595 6.641 5.457 11.532 12.656 14.057l20.806 7.327c5.427 1.782 8.91-1.957 7.78-6.25l-6.274-25.023c6.874 1.139 12.454-.482 13.427-5.387 1.52-7.666-2.292-10.817-10.182-13.306" style="fill:#82579e;fill-opacity:1;fill-rule:nonzero;stroke:none" transform="matrix(1.33333 0 0 -1.33333 -.667 1121.853)" data-source="https://football-logos.cc"></path><path d="M519.499 496.891V251.866c0-15 .412-59.4-34.35-81.224-33.508-21.037-45.563-22.388-120.15-61.65-38.778-20.413-53.25-28.725-77.1-28.725s-38.32 8.312-77.1 28.725c-19.345 10.184-34.485 17.817-46.883 23.905-2.42 1.188-3.961 7.114-.929 10.875l3.49 4.326c.739.917 3.502 4.327 5.968 7.37 2.247 2.774 9.306 2.755 12.011 1.41 11.218-5.576 46.402-23.868 46.402-23.868 33.972-17.915 42.542-22.143 57.04-22.143 14.5 0 23.07 4.228 57.042 22.143 0 0 62.666 31.887 78.591 39.464 17.992 8.56 28.851 13.727 45.347 24.084 17.757 11.148 20.027 35.129 20.02 54.776v245.333c0 3.6 1.352 6.75 6.751 6.6h16.875c3.826.15 6.974-2.101 6.975-6.376" style="fill:#82579e;fill-opacity:1;fill-rule:nonzero;stroke:none" transform="matrix(1.33333 0 0 -1.33333 -.667 1121.853)" data-source="https://football-logos.cc"></path><!-- source: https://football-logos.cc --></svg>