<svg xmlns="http://www.w3.org/2000/svg" xml:space="preserve" viewBox="20.72 19.45 752.28 755.91"><!-- Source: https://football-logos.cc --><path d="m1023.68 5083.38 455.69 501.31 3004.55-2.18 464.47-505.9c7.65-8.33 8.85-14.97 2.39-24.66-467.06-700.69-255.43-1512.92-154.84-2016.88 160.2-802.66-483.26-1172.14-1126.68-1370.59-328.58-101.34-576.87-283.42-687.81-383.69-302.14 273.17-552.66 333.43-862.07 444.42-452.42 162.3-807.83 404.63-930.77 782.15-64.91 199.34-55.89 373.82-2.51 617.2 135.01 615.57 247.53 1318.63-169.09 1926.96-6.47 13.29-3.3 20.66 6.67 31.86" style="fill:#277fc9;fill-opacity:1;fill-rule:evenodd;stroke:none" transform="matrix(.13333 0 0 -.13333 0 794.667)" data-source="https://football-logos.cc"></path><path d="m2728.03 2232.97-31.28-148.59c92.01-18.99 184.9-29.36 278.87-28.7 97.64.69 194.35 8.06 290.09 28.02l-31.15 147.67c-152.76-32.41-315.28-40.94-506.53 1.6m645.4-659.82-24.1-12.22-25.02-13.14-24.42-13.25-23.8-13.35-23.18-13.4-22.54-13.43-21.9-13.42-21.24-13.39-20.58-13.33-19.9-13.24-19.23-13.12-18.52-12.97-17.82-12.78-17.09-12.58-16.39-12.33-15.63-12.06-14.92-11.78-14.14-11.45-13.39-11.09-12.62-10.7-5.52-4.81-11.25 9.98-28.27 24.12-28.04 22.98-27.8 21.86-27.6 20.8-27.39 19.79-27.23 18.83-27.07 17.91-26.93 17.03-26.81 16.21-26.71 15.43-26.62 14.69-26.55 14.01-26.5 13.37-26.46 12.8-.63.29 22.67 107.73c123.38-25.4 247.9-37.27 373.74-36.56 122.15.69 244.2 13.13 364.06 37.21zM1171.48 2721.8l-.49 6.09-1.06 17.69-.52 12.8 1506.16-595.41-6.96-33.02zM1188.42 3001.92l1.48 8.83 3.74 20.91.92 4.9L2685.04 2208l-7.16-34.07zM1247.41 3289.93l.98 4.84 6.14 31.29 1440.86-1068.9-7.53-35.82zM1304.61 3624.43l4.43 32.97.96 8.1 1447.23-1400.98-3.85.77-53.84 11.57-.49-2.32zM1334.4 4073.47l-.15 17.84-1.31 37.52 1488.23-1875.65-.09.01-16.69 2.61-16.84 2.88-15.49 2.88zM1078.38 5105.13l23.3 25.64 1762.92-2883.2-10.61 1.19-16.37 2.09-15.34 2.17z" style="fill:#fff;fill-opacity:1;fill-rule:evenodd;stroke:none" transform="matrix(.13333 0 0 -.13333 0 794.667)"></path><path d="m1321.97 5373.11 24.07 26.48 1546.05-3154.7-5.78.48-16.08 1.57-16.24 1.82-.89.12z" style="fill:#fff;fill-opacity:1;fill-rule:evenodd;stroke:none" transform="matrix(.13333 0 0 -.13333 0 794.667)"></path><path d="m1645.89 5558.73 35.51-.03 1236.55-3315.73-15.68 1.08-15.96 1.32-4.94.49z" style="fill:#fff;fill-opacity:1;fill-rule:evenodd;stroke:none" transform="matrix(.13333 0 0 -.13333 0 794.667)"></path><path d="m2063.33 5558.42 34.33-.02 845.86-3316.67-9.73.38-15.69.85-9.37.64z" style="fill:#fff;fill-opacity:1;fill-rule:evenodd;stroke:none" transform="matrix(.13333 0 0 -.13333 0 794.667)"></path><path d="m2499.98 5558.11 33.62-.03 441.81-3317.09-10.61.12-15.45.39-7.66.3z" style="fill:#fff;fill-opacity:1;fill-rule:evenodd;stroke:none" transform="matrix(.13333 0 0 -.13333 0 794.667)"></path><path d="m2963.85 5557.77 33.26-.02 1.43-3316.71-3.2-.06-15.21-.04-14.84.16zM1240.3 2443.39l-2.11 4.76-13.15 33.23-.05.13 1441.58-361.29-5.88-27.93-8.72 2.04-12.86 3.11-12.86 3.22-12.85 3.32-12.84 3.43-12.84 3.53-12.84 3.64-39.05 11.36-1.61-6.84zM1404.39 2189.05l-16.91 19.11-14.86 18.02 1155.47-133.07-7.69-32.59zM1642.56 1985.8l-3.02 1.99-31.94 22.09-11.54 8.43 917.9 14.9-7.88-33.39zM1892.78 1846.04l-5.74 2.65-37.75 18.26-9.54 4.85 659.18 97.69-8.22-34.83zM2106.89 1757.32l-20.57 7.55-31.64 12.13 427.64 122.06-8.75-37.08zM2322.83 1681.59l-26.41 9.22-17.69 6.13 176.4 86.82-9.9-41.92zM4794.11 2760.25l-.04-5.34-2.28-31.34-1498.37-592.34-6.97 33.01zM4768.76 3039.07l1.77-8.75 4.43-25.86-1490.92-828.8-7.18 34.05zM4710 3330.3l6.99-36.22-1443.05-1070.53-7.55 35.81zM4655.93 3672.39l3.34-28.6 1.71-12.8-1401.59-1356.8-46.47-9.58-14.03-2.75-.07-.02zM4637.41 4143.38l-1.9-39.1-.34-17.24-1450.23-1827.76-.13-.02-14.12-2.45-14.2-2.28-14.26-2.14-5.85-.8zM4859.71 5134.99l23.4-25.48-1747.52-2858.03-7.69-1.05-14.37-1.79-14.48-1.62-5.5-.54z" style="fill:#fff;fill-opacity:1;fill-rule:evenodd;stroke:none" transform="matrix(.13333 0 0 -.13333 0 794.667)"></path><path d="m4614.16 5402.44 24.15-26.3L3105.13 2247.7l-6.08-.68-14.55-1.43-14.62-1.25-3.57-.27z" style="fill:#fff;fill-opacity:1;fill-rule:evenodd;stroke:none" transform="matrix(.13333 0 0 -.13333 0 794.667)"></path><path d="m4276.7 5556.82 35.49-.03L3077.1 2244.95l-7.22-.61-14.72-1.07-14.5-.85z" style="fill:#fff;fill-opacity:1;fill-rule:evenodd;stroke:none" transform="matrix(.13333 0 0 -.13333 0 794.667)"></path><path d="m3860.81 5557.12 34.32-.03-845.21-3314.13-9.57-.56-14.9-.68-10.25-.32z" style="fill:#fff;fill-opacity:1;fill-rule:evenodd;stroke:none" transform="matrix(.13333 0 0 -.13333 0 794.667)"></path><path d="m3425.12 5557.44 33.6-.03-441.65-3315.95-6.62-.21-15.11-.27-11.95-.03zM4740.96 2483.3l-6.76-19.03-8.22-19.01-1295.79-324.76-1.73 7.57-40.28-12.53-13.38-4.05-13.26-3.88-13.12-3.72-13.03-3.55-12.94-3.41-12.86-3.23-7.86-1.9-6.16 29.25zM4593.8 2227.06l-1.77-2.29-30.3-34.88-1117.92-128.75-7.48 32.61zM4368.55 2018.21l-32.44-23.18-14.17-9.32-864.04 14.03-7.66 33.38zM4124.43 1871l-52.39-25.61-.4-.18-598.64 88.72-7.99 34.8zM3909.45 1775.48l-9.85-3.96-41.99-15.83-367.81 104.98-8.49 37.01zM3682.45 1695.78l-21.01-6.67-24.75-7.87-119.18 58.66-9.59 41.78z" style="fill:#fff;fill-opacity:1;fill-rule:evenodd;stroke:none" transform="matrix(.13333 0 0 -.13333 0 794.667)"></path><path d="M4935.51 3494.89c7.78-47.49 16.74-94.81 26-142.04 175.2 135.51 414.01 169.23 547.54-32.68 28.27-42.75 39.76-94.04 51.3-156.1 36.34-195.41 80.57-385.72 231.24-531.27 27.8-164.95-43.9-299.13-201.73-361.01 2.89-144.39-44.83-289.33-105.07-418.74-34.85-74.89-76.21-145.31-123.52-213-117.23-167.75-260.09-315.35-424.68-436.96-151.18-111.69-315.95-205.875-488.21-281.082-176.89-77.227-365.19-119.293-543.25-193.34-155.99-64.859-310.99-136.84-452.93-228.949-93.45-60.637-181.99-125.969-264.2-201.317-42.6-39.039-80.11-82.879-124.17-120.457-23.49-20.027-51.29-34.593-82.9-33.039-25.39 1.25-47.93 11.121-67.81 26.949-43.31 34.493-82.1 75.801-122.66 113.512-116.28 108.137-236.45 193.516-374.12 273.067-104.74 60.527-205.05 110.328-313.95 154.953-102.3 41.922-212.93 79.297-319.55 116.718-243.53 85.493-479.18 184.645-692.22 332.245-194.218 134.55-377.206 283.33-514.132 477.81-133.578 189.72-225.418 422.14-232.5 656.21-105.242 49.42-176.808 116.51-188.617 320.48 113.309 208.57 157.477 383.88 224.871 606.3 26.996 89.1 91.738 144.91 175.531 183.27 63.176 28.91 127.52 34.2 196.141 26.12 88.938-10.46 173.684-43.44 242.996-101.54 23.9 110.91 41.69 224.17 55.74 336.72 17.63 141.26 28.29 283.43 23.96 425.81-4.07 133.83-22.86 265.88-55.33 395.79-33.768 135.09-91.643 260.91-157.167 383.37-25.925 48.45-54.64 95.14-81.496 143.04-38.859 69.31-23.586 119.55 26.817 175.38l558.636 618.81 3221.95 4.17 586.89-644.31c36.91-40.52 36.83-93.63 13.39-141.45-21.2-43.25-50.28-82.67-73.97-124.67-39.93-70.77-74.29-143.95-104.62-219.33-53.47-132.86-88.64-263.47-106.77-405.42-14.98-117.21-21.07-236-15.27-354.06 7.08-144.17 24.51-287.56 47.84-429.96M849.637 5155.21l541.073 599.36 3172.88 4.11 569.65-625.39c25.26-27.73 22.38-56.81-9.45-106.18-106.74-165.53-193.45-365.8-243.33-555.11-36.98-166.39-51.4-328.62-50.17-498.91 5.86-181.48 27.91-358.69 59.11-537.42 11.73-63.52 24.2-126.85 36.98-190.15 8.11 8.93 16.56 17.84 25.38 26.78 75.7 67.86 160.8 124.42 263.59 133.24 110.39 6.68 178.07-30.02 235.63-99.52 53.11-64.14 51.49-128.95 65.17-210.86 26.37-157.96 101.89-370.4 222.97-488.1 23.54-151.24-74.6-263.84-207.98-295.52 14.57-107.78-17.45-231.9-54.1-332.84-67.66-186.36-177.7-346.93-310.49-493.07-143.71-158.16-285.27-263.96-468.34-373.04-108.4-64.59-220.23-120.129-337.29-167.238-130.77-52.637-298.98-95.043-391.14-130.946-175.88-68.511-405.73-173.093-562.71-278.113-137.1-91.723-224.75-158.605-364.11-302.578-27.16-26.735-45.92-34.313-59.11-33.477-20.13 1.278-30.04 8.106-58.74 34.68-88.44 81.844-193.81 188.629-308.4 264.332-164.82 108.891-336.48 204.129-520.45 277.031-135.22 53.586-274.43 96.344-410.4 147.946-195.02 74.003-372.97 152.863-545.02 270.773-199.285 136.56-395.91 294.52-531.988 495.77-123.571 182.76-211.641 420.37-210.063 643.12-166.406 59.43-177.969 171.13-187.394 273.59 112.281 219.26 154.957 365.75 203.953 540.72 27.699 98.91 41.554 134.43 137.562 194.06 131.352 81.58 360.328 24.01 452.13-102.08a1673 1673 0 0 0 21.37-29.97c7.48 37.75 15.32 75.21 23.29 112.17 18.97 91.67 32.86 183.36 47.51 275.83 18.99 132.93 31.18 270.97 34.23 405.26-.12 57.77-1.74 115-4.94 172.68-11.67 137.8-34.96 268.32-73.65 401.14-48.55 146.46-121.248 290.16-199.01 423.31-45.293 77.56-60.258 85.56-4.203 154.61" style="fill:#277fc9;fill-opacity:1;fill-rule:evenodd;stroke:none" transform="matrix(.13333 0 0 -.13333 0 794.667)"></path><path d="M5179.74 3241.41c-245.08-100.77-248.43-375.55-248.49-517.99-.11-250.11-117.26-563.33-443.8-799.95-162.49-117.74-417.95-252.11-615.73-326.5-381.78-143.6-682.71-236.03-888.15-488.33-.75-.92-1.53-1.89-2.24-2.85-.73.89-1.4 1.82-2.13 2.71-205.44 252.4-506.41 344.84-888.27 488.47-197.77 74.39-453.23 208.76-615.72 326.5-239.81 173.77-366.69 388.85-417.21 589.91-31.42 125.03-40.61 263.08-61.07 390.98-21.782 136.14-61.625 288.91-220.364 330.71-41.484 10.92-209.726-3.95-216.55-114.18-3.52-56.79 36.675-124.44 83.339-169.76l117.684 182.77c95.547-22.09 174.676-253.06 42.77-407.19L622.57 2514.94c-150.144-175.43-36.429-521.96 133.278-761.36 88.886-125.39 196.48-222.51 279.052-290.13 165.47-135.49 359.85-259.72 555.33-346.65 208.09-92.53 418.39-146.077 628.25-237.366 280.24-121.907 578.17-278.086 762.85-501.114 210 229.36 482.6 379.207 762.84 501.114 209.87 91.289 420.17 144.836 628.26 237.366 195.47 86.93 389.85 211.15 555.32 346.65 240.24 196.74 581.27 666.8 405.99 930.98l-241.49 363.99c-134.62 202.9 1.13 362.9 83.99 384.99 32.67-72.33 72.33-151.66 105-223.99 46.67 54.83 86.87 151.01 77 220.49-15.53 109.36-113.77 128.12-178.5 101.5" style="fill:#e82029;fill-opacity:1;fill-rule:evenodd;stroke:none" transform="matrix(.13333 0 0 -.13333 0 794.667)"></path><path d="m5390.83 2986.04 148.79-322.91c27.88-60.5 25.76-137.87-22.17-186.76-27.11-27.66-79.4-48.28-110-57.79l-261.97 374.35c144.54 4.26 201.02 68.09 245.35 193.11M5162.39 3027.78l76.06-139.69c-39.62-29.63-128.02-50.09-148.95-15.87-30.25 49.47 40.15 125.4 72.89 155.56M515.914 2995.55l-142.453-322.91c-26.887-60.94-35.258-141.05 12.656-189.93 27.102-27.65 76.235-35.6 106.84-45.1l284.16 399.73c-144.539 4.25-216.879 33.2-261.203 158.21M766.551 3030.95l-85.567-107.98c39.614-29.62 96.309-37.4 117.227-3.18 30.242 49.46 1.082 81-31.66 111.16" style="fill:#e82029;fill-opacity:1;fill-rule:evenodd;stroke:none" transform="matrix(.13333 0 0 -.13333 0 794.667)" data-source="https://football-logos.cc"></path><path d="M2987.04 4307.25c570.14 0 1032.5-462.36 1032.5-1032.5 0-570.13-462.36-1032.49-1032.5-1032.49-570.13 0-1032.49 462.36-1032.49 1032.49 0 570.14 462.36 1032.5 1032.49 1032.5" style="fill:#fff;fill-opacity:1;fill-rule:evenodd;stroke:none" transform="matrix(.13333 0 0 -.13333 0 794.667)"></path><path d="M2987.04 4262.34c337.31 0 635.11-169.23 813.28-427.36-144.83 151.15-348.68 245.27-574.48 245.27-439.32 0-795.61-356.28-795.61-795.59 0-439.34 356.29-795.61 795.61-795.61 249.8 0 472.71 115.23 618.59 295.39-170.29-297.08-490.49-497.27-857.39-497.27-545.34 0-987.58 442.25-987.58 987.58 0 545.34 442.24 987.59 987.58 987.59" style="fill:#e82029;fill-opacity:1;fill-rule:evenodd;stroke:none" transform="matrix(.13333 0 0 -.13333 0 794.667)"></path><path d="M3225.84 4036.76c415.3 0 752.11-336.8 752.11-752.1 0-415.32-336.81-752.12-752.11-752.12s-752.11 336.8-752.11 752.12c0 415.3 336.81 752.1 752.11 752.1m-176.91-172.92c-64.63-34.43-136.78-81.32-207.09-116.73 2.2-69.83.91-139.68 0-207.07-.07-5.76 5.9-5.39 7.27 1.82 11.39 59.63 13.02 127.15 19.07 190.72 57.18 32.58 118.09 74.62 174.38 118.1 19.11 14.75 17.02 18.82 6.37 13.16m525-761.03c-75.22 2.77-194.48 12.35-270.2 22.15-35.03-60.45-105.75-164.46-144.85-220.28-3.3-4.72 2.05-7.58 7.13-2.3 42.99 44.6 115.49 142.81 154.22 193.58 69.39-4.37 165.12-6.3 241.33-.96 24.07 1.69 24.4 7.36 12.37 7.81m141.59 693.09c-17.13-41.44-35.94-74.08-62.41-111.74 40.65-56.82 44.57-72.86 59.35-105.53 2.37-5.23 6.68-1.57 5.03 5.56-6.25 27.11-19.28 73.44-32.08 102.17 10.75 23.18 29.26 73.49 36.68 105.07 5.52 23.48-1.97 15.6-6.57 4.47m-418.68-63.95c112.87 20.46 222.02 2.84 328.3-38.66 34.66 41.35 64.33 91.37 80.44 143.94-128.47 111.64-296.22 179.23-479.74 179.23-6.27 0-12.52-.08-18.75-.25l-102.5-123.91c83.1-48.26 149.75-103.81 192.25-160.35m332.88-62.39c-110.69 44.83-214.87 63.03-335.27 41.17-60.54-77.73-109.26-160.67-153.36-246.65 60.89-84.04 116.7-201.04 155.97-314.56 106.84-3.96 211.32-11.89 293.14-32.56 70.44 92.56 133.78 186.35 167.35 297.1-21.6 83.86-65.05 170.27-127.83 255.5m-552.8 221.2 102.78 124.26c-200.15-12.47-378.5-105.43-503.11-246.88 52.91 1.64 105.36.42 157.14-6.07 74.03 58.18 153.8 97.73 243.19 128.69M2746.56 2800.2l15.87-81.86c119.55-97.95 270.65-158.81 435.73-164.96 50.13 47.77 95.61 98.93 132.3 157.97-73.49 41.63-139.14 95.79-196.3 166.01-114.66-2.28-227.45 2.09-334.8 36.52-17.6-36.78-35.2-76.57-52.8-113.68m-8.97-60.56-9.57 49.32c-34.71 17.9-62.7 38.04-89.16 58.68 29.25-39.22 62.35-75.39 98.73-108m1155.89 636.5c22.43-16.21 43.36-33.71 63.12-52.28.69-12.98 1.05-26.06 1.05-39.2 0-167.86-56.6-322.5-151.68-445.98-63.02-6.19-124.31-1.95-184.94 8.47 5.7 86.12-3.54 166.57-18.34 252.45 70.51 92.4 134.76 187.11 170.34 295.9 40.16-3.43 80.3-7.93 120.45-19.36m60.96-22.84a644 644 0 0 1-31.46 26.14c7.81 19.24 13.67 41.03 17.18 64.67a733 733 0 0 0 14.28-90.81m-348.85-523.96c60.34-11.12 121.14-16.59 182.92-12.5-134.07-161.07-335.94-263.71-561.78-263.98 48 47.4 91.36 98.34 126.13 156.15 77.94 20.72 167.81 71.89 252.73 120.33m-487.97 631.43c65.57-91.5 121.56-205.27 161.65-322.04-45.41-86.94-94.3-166.84-145.31-241.07-116.49-2.4-229.79 1.64-339.16 39.07-61.07 84.09-102.32 165.9-121.37 262.49 44.76 105.69 94.48 205.74 172.5 289.01 81.25 4.23 171.16-4.71 271.69-27.46m-295.87 282.46c-53.75 6.1-108.03 6.46-162.9 4.01-103-126.08-164.82-287.13-164.82-462.58 0-19.22.76-38.26 2.21-57.11 54.79-4.67 107.06-8.09 161.76-12.72 44.67 104.3 95.46 203.7 171.74 285.76-12.7 79.13-15.36 163.66-7.99 242.64" style="fill:#277fc9;fill-opacity:1;fill-rule:evenodd;stroke:none" transform="matrix(.13333 0 0 -.13333 0 794.667)"></path><path d="M3225.84 4036.76c415.3 0 752.11-336.8 752.11-752.1 0-415.32-336.81-752.12-752.11-752.12s-752.11 336.8-752.11 752.12c0 415.3 336.81 752.1 752.11 752.1m0-20.3c404.1 0 731.81-327.71 731.81-731.8 0-404.11-327.71-731.82-731.81-731.82s-731.81 327.71-731.81 731.82c0 404.09 327.71 731.8 731.81 731.8" style="fill:#277fc9;fill-opacity:1;fill-rule:evenodd;stroke:none" transform="matrix(.13333 0 0 -.13333 0 794.667)"></path><path d="M3409.5 2095.11c-147.2-46.59-269.39-63.91-433.7-65.27-142.23-1.18-282.29 22.71-421.06 63.69l-82.27-348.8c338.89-100.78 690.97-91.64 1017.71-1.25z" style="fill:#fff;fill-opacity:1;fill-rule:evenodd;stroke:none" transform="matrix(.13333 0 0 -.13333 0 794.667)"></path><path d="m2641.02 1783.02 33.59 157.98-36.65 7.79 8.39 39.5 120.6-25.64-8.39-39.49-37.66 8-33.58-157.98zM2758.01 1818.79l9.28 88.34c5.09 39.75 28.73 57.39 71.03 52.95.76-.09 1.51-.16 2.23-.24 17.31-1.82 31.33-7.98 41.95-18.53 10.9-10.85 15.28-26.73 13.08-47.66l-9.29-88.35c-3.28-21.4-10.25-36.63-20.81-45.63-10.69-9.03-27.68-12.29-50.84-9.86-22.53 2.37-37.8 9.48-45.89 21.33-8.37 11.9-11.92 27.79-10.74 47.65m57.35 87.66-.98-4.22-9.34-88.89c-.76-7.13.12-13.36 2.68-18.63 2.33-5.26 6.26-8.2 11.76-8.78 10.88-1.14 17.3 7.57 19.25 26.13l9.11 86.65.45 4.29c.81 12.86-3.56 19.81-13.15 20.82-.62.07-1.16.12-1.69.18-9.32.26-15.34-5.56-18.09-17.55M2954.46 1743.52l-44.15 201.9h47.46l24.46-141.82h.49l24.32 141.82h47.34l-44.15-201.9zM3069.89 1948.3l47.15 4.13 13.47-153.97c1.55-10.41 7.68-15.14 18.5-14.2 9.69.85 14.26 7.29 13.76 19.27l-13.28 151.74 47.83 4.18 12.82-146.64c1.77-39.16-16.8-60.69-55.73-64.64-.66-.06-1.42-.12-2.23-.19-19.98-1.75-35.98 1.53-48.06 9.88-12.46 8.6-19.57 22.84-21.31 42.77zM3247.93 1765.52l-6.21 35.21 37.06 134.24-54.88-9.68-7.01 39.77 105.74 18.64 6.59-37.43-36.42-132.38 60.7 10.7 6.92-39.24z" style="fill:#e82029;fill-opacity:1;fill-rule:nonzero;stroke:none" transform="matrix(.13333 0 0 -.13333 0 794.667)"></path><path d="m696.047 2237.87 180.391 76.57 21.933-51.67c7.488-17.64 10.609-33.91 9.387-48.86-1.305-14.32-13.11-26.19-35.352-35.63a248 248 0 0 0-2.933-1.24c-17.184-6.78-31.266-8.59-42.274-5.51-10.996 3.28-19.441 9.35-25.344 18.24-5.085 7.64-10.21 17.48-15.332 29.54-.781 1.85-1.632 3.85-2.535 5.98L714 2195.58Zm120.375 1.18.695-1.64c.309-.72.582-1.36.852-2 3.25-7.66 6.594-12.86 10.054-15.56 3.598-3.01 7.051-4.24 10.442-3.75 3.359.43 8.547 1.92 15.578 4.53 8.5 3.61 13.309 7.55 14.395 11.79.734 4.29-.098 9.37-2.551 15.14-.192 1.58-.879 3.65-1.989 6.25l-1.937 4.58zM753.867 2102.93l171.852 95.26 50.969-91.94-34.282-19-28.629 51.64-31.765-17.61 27.824-50.2-34.277-19-27.829 50.21-37.25-20.66 30.36-54.77-34.277-19z" style="fill:#fff;fill-opacity:1;fill-rule:nonzero;stroke:none" transform="matrix(.13333 0 0 -.13333 0 794.667)"></path><path d="m870.629 2029.57 24.902-34.28-12.468-9.06c-9.864-7.17-11.77-15.44-5.809-24.84.414-.56.801-1.09 1.207-1.66 2.535-3.48 5.797-5.52 9.816-6.1 4.668-.49 9.743 1.26 15.243 5.26 6.937 5.04 9.835 17.43 8.648 37.07-1.219 19.68-1.145 35.13.289 46.35 1.414 11.09 9.32 22 23.727 32.68 1.3.51 2.738 1.35 4.328 2.5 14.543 8.36 27.816 11.27 39.922 8.76 12.07-2.53 23.436-10.69 34.116-24.51l1.49-2.04c5.76-7.93 9.5-16.35 11.32-25.37 1.81-9.82.72-19.66-3.2-29.45-3.95-9.6-11.45-18.39-22.45-26.38l-3.413-2.48-24.879 34.25c1.055.77 2.043 1.48 2.988 2.17 13.219 9.6 16.578 18.83 10.129 27.7-5.148 7.08-11.988 8.14-20.578 3.14-.602-.44-1.195-.87-1.762-1.28-4.722-3.43-7.257-7.64-7.566-12.55-.258-5.57.277-15.95 1.551-31.11 1.304-15.21.992-27.82-.973-37.86-2.07-10.11-7.754-19.03-17.008-26.67a189 189 0 0 0-7.703-5.92c-15.887-11.54-30.422-16.29-43.582-14.17-11.59 1.83-22.035 7.35-31.34 16.55l-11.226-7.91-16.875 23.94 11.097 7.82c-4.242 8.97-6.355 18.2-6.375 27.72.071 14.21 6.309 25.84 18.676 34.83zM940.633 1912.8l45.34 41.18 26.957-30.87 25.44-28.07 18.97 17.07 3.11 2.8c8.93 8.75 10.3 16.61 4.03 23.56-.4.46-.75.85-1.1 1.23-6.55 6.24-14.68 5.96-24.44-.9l-3.45-2.42-4.47-4.02-29.72 35.08 3.41 3.06c29.49 25.38 57.99 22.74 85.62-7.95.49-.54.99-1.09 1.45-1.61 11.31-12.56 17.42-26.1 18.22-40.61.83-14.9-6.34-29.2-21.51-42.88l-64.08-57.69c-16.27-13.3-31.195-19.76-44.652-19.4-13.574.44-27.953 9.11-43.074 25.91-14.715 16.34-21.012 31.37-19.25 45.19 1.785 13.99 9.445 27.79 23.199 41.34m50.531-16.15-20.144-18.31c-5.153-4.68-8.504-9.76-10.172-15.2-1.633-5.32-.801-9.97 2.785-13.96 7.105-7.89 17.394-5.77 30.859 6.35l18.398 16.56z" style="fill:#fff;fill-opacity:1;fill-rule:evenodd;stroke:none" transform="matrix(.13333 0 0 -.13333 0 794.667)"></path><path d="M998.195 1761.89 1132.2 1905.6l33.69-31.42-53.6-57.49 78.61 34.17 34.62-32.28-89.77-34.91-42.36-110.55-35.55 33.15 28.13 67.44-20.93-7.7-33.15-35.54zM1094.99 1669.3l156.67 125.31 43.21-35-90.39-178.97-36.12 29.25 19.21 33.2-28.26 22.88-28.11-25.99zm90.06 20.15 20.51-16.61 44.86 76.64zM1213.68 1572.84l115.19 158.55 55.84-40.58c28.4-20.62 33.38-45.03 14.95-73.14-.31-.42-.64-.88-.97-1.34-7.55-10.39-14.82-17.28-21.77-20.62-7.4-3.67-15.97-4.65-25.76-2.93-.21 0-.46-.04-.7-.08 4.83-3.51 7.49-8.73 8.06-15.65.34-6.87-.93-13.05-3.84-18.48l-25.39-38.66c-7.53-11.54-10.34-18.81-8.4-21.78l-1.51-2.08-40.38 29.34c.43 4.21 4.08 11.02 10.92 20.43l12.9 17.76c6.14 8.46 9.84 15.47 11.07 21.02 1.27 5.53-.41 10.32-5.07 14.35l-12.69 9.22-45.28-62.33zm103.54 64.35 12.69-9.21c4.4-3.2 8.86-4.17 13.37-2.93 4.54 1.22 9.81 6.01 15.84 14.32 5.4 7.44 6.59 13.89 3.52 19.36-3.19 5.39-9 11.11-17.31 17.15zM1406.11 1439.5l98.24 170.17 94.14-54.35-19.6-33.94-53.78 31.05-17.33-30.02 49.26-28.44-19.8-34.28-49.26 28.44-41.52-71.92zM1600.7 1552.92l40.94-20.86-68.11-133.67c-4.08-9.36-1.47-16.41 7.92-21.19 8.43-4.29 15.49-1.35 21.24 8.77l67.12 131.74 41.52-21.16-64.87-127.31c-18.69-33.14-45.05-41.31-79.12-24.54-.58.3-1.25.64-1.94.99-17.35 8.84-28.83 19.77-34.48 32.86-5.83 13.49-4.36 28.86 4.46 46.16zM1670.33 1298.21l63.76 143.22-33.22 14.79 15.95 35.81 109.32-48.67-15.94-35.81-34.14 15.2-63.76-143.22zM1757.48 1258.77l73.41 181.7 57.62-23.28c16.15-6.53 27.94-15.23 35.38-26.13 7.36-11.05 8.06-24.68 2.09-40.86-4.82-11.91-10.12-19.91-15.91-24.02-5.99-4.14-13.18-7.07-21.57-8.75 7.34-9.73 11.43-17.86 12.2-24.32.68-6.71-1.38-15.98-6.2-27.89-14.3-35.42-39.95-45.67-76.94-30.72zm55.92 15.41a100 100 0 0 1 6.64-2.97c9.37-3.78 16.1-4.81 20.22-3.1 4.76 2.03 8.92 7.44 12.44 16.16.13.32.26.64.39.97 3.48 8.6 3.64 15.15.51 19.75-3.14 4.65-10.51 9.33-22.1 14.01zm31.35 77.6c11.43-4.61 19.45-6.16 23.97-4.61 4.52 1.42 8.48 6.34 11.92 14.87.14.32.25.6.38.92 2.93 7.27 2.91 12.54-.04 15.84-3.4 3.21-10.23 7.09-20.57 11.75zM1898.76 1259.48l30.9 80.5c14.75 35.99 41.34 46.58 79.89 31.79.68-.27 1.38-.54 2.02-.79 15.78-6.05 27.38-15.35 34.68-27.91 7.5-12.9 7.61-28.9.3-47.97l-30.91-80.49c-8.45-19.24-18.82-31.78-30.98-37.56-12.29-5.78-29.03-4.57-50.13 3.53-20.54 7.88-33.07 18.38-37.67 31.53-4.86 13.25-4.2 29.04 1.9 47.37m75.79 67.78-1.98-3.71-31.09-80.99c-2.5-6.5-3.24-12.56-2.17-18.15.87-5.51 3.82-9.26 8.82-11.18 9.92-3.8 18.13 2.75 24.62 19.66l30.31 78.95 1.49 3.91c4 11.85 1.65 19.47-7.09 22.82l-1.55.6c-8.66 2.58-15.77-1.36-21.36-11.91M2008.06 1157.61l70.42 183.44 43.38-16.65-56.37-146.85 52.52-20.17-14.04-36.59zM2204.04 1080.91l73.6 182.19 42.72-17.26-29.45-72.89 61.14 60.08 43.9-17.73-71.3-64.76.07-118.38-45.06 18.2 2.09 73.04-16.79-14.69-18.21-45.06zM2331.84 1026.34l83.04 178.09 42.11-19.64-66.47-142.56 50.99-23.78-16.56-35.524zM2527.18 1151.4l40.56-21.57-70.43-132.463c-4.24-9.285-1.75-16.379 7.55-21.328 8.35-4.434 15.47-1.613 21.39 8.406l69.41 130.545 41.14-21.88-67.08-126.153c-19.27-32.816-45.76-40.527-79.54-23.16-.57.305-1.23.652-1.92 1.023-17.19 9.137-28.47 20.27-33.9 33.461-5.6 13.578-3.85 28.929 5.27 46.079zM2562.54 909.508l103.84 166.192 52.71-32.93c14.77-9.23 24.87-19.86 30.3-31.88 5.34-12.16 3.65-25.695-5.03-40.601-6.81-10.894-13.43-17.859-19.83-20.887-6.64-3.047-14.22-4.672-22.77-4.871 5.54-10.855 8.15-19.578 7.79-26.078-.5-6.723-4.14-15.492-10.94-26.39-20.24-32.387-47.29-38.028-81.12-16.891zm57.74 5.465c2.09-1.512 4.07-2.852 6.03-4.075 8.57-5.359 15.01-7.531 19.37-6.558 5.04 1.164 10.08 5.773 15.06 13.75.19.293.37.586.56.887 4.91 7.863 6.21 14.289 3.93 19.363-2.29 5.129-8.74 11.008-19.33 17.625zm44.36 70.98c10.45-6.531 18.07-9.449 22.8-8.703 4.7.609 9.45 4.77 14.32 12.566.19.297.35.555.54.856 4.15 6.641 5.03 11.838 2.72 15.598-2.8 3.75-8.86 8.77-18.23 15.14zM2793.71 991.934l37.16-27.004-88.18-121.375c-5.49-8.602-4.01-15.977 4.51-22.168 7.65-5.555 15.09-3.75 22.35 5.347l86.91 119.61 37.69-27.387-83.99-115.598c-23.64-29.812-50.95-33.757-81.98-11.859-.53.383-1.13.82-1.76 1.281-15.75 11.442-25.38 24.035-28.91 37.852-3.66 14.23.21 29.183 11.62 44.898zM3147.57 725.797l-126.19 149.93 37.94 31.937c14 11.785 28.07 19.145 42.27 21.914 13.62 2.656 28.23-5.387 43.79-23.875.7-.836 1.39-1.621 2.05-2.437 11.56-14.403 17.64-27.235 18.08-38.457.44-11.258-2.67-20.852-9.07-28.813-7.13-8.848-15.6-16.484-24.27-23.781l48.96-58.172zm-38.09 113.371 5.5 4.879c12.82 11.398 6.72 20.699-1.44 30.945-6.97 8.742-17.5 17.446-28.52 8.227l-7.39-6.199zM3238.52 795.531l-111.33 161.274 49.65 34.269c27.58 19.036 51.59 15.186 71.91-11.586.31-.418.62-.898.94-1.363 7.29-10.57 11.41-19.672 12.44-27.238 1.1-8.102-.57-16.336-5.08-24.778l.19-.281c5.18 2.961 10.01 3.594 16.53 1.613 6.45-1.964 12.14-5.062 15.86-9.957l27.96-36.839c8.32-10.973 14.22-16.063 17.54-15.305l1.46-2.117-39.22-27.071c-3.76 1.852-8.93 7.594-15.53 17.164l-12.47 18.059c-5.94 8.605-11.3 14.43-16.03 17.516-4.72 3.078-9.91 3.632-14.76.293l-7.72-5.336 43.76-63.399zm-28.05 117.848 7.73 5.332c4.27 2.953 6.51 6.727 6.74 11.32.23 4.614-2.58 11.133-8.42 19.586-5.22 7.563-12.39 11.828-18.34 10.817-5.94-1.008-6.8-2.125-14.87-7.704zM3313.13 914.164l-46.14 72.84c-20.11 33.296-13.54 60.446 19.77 81.546.59.38 1.19.75 1.75 1.11 13.63 8.63 27.47 12.05 41.47 10.14 14.39-1.97 27.07-11.57 38-28.82l46.15-72.839c10.42-18.243 14.49-33.914 12.23-46.895-2.34-13.082-12.7-25.414-30.93-36.961-17.73-11.238-33.05-14.652-46-10.281-13.18 4.234-25.27 14.309-36.3 30.16m-10.92 100.146 1.82-3.79 46.42-73.282c5.21-8.226 16.04-19.98 26.46-13.379 8.57 5.426 8.41 16.602-1.28 31.907l-45.26 71.444c-5.49 10.56-15.17 17.1-25.96 10.57-7.38-4.47-7.38-12.73-2.2-23.47M3895.49 1198.06l-34.37 79.08c-14.74 35.99-4.07 61.81 32.09 77.53.64.28 1.29.56 1.9.83 14.8 6.43 29 7.66 42.54 3.63 13.91-4.17 24.96-15.6 33.1-34.33l34.38-79.08c7.49-19.63 9.1-35.74 4.87-48.22-4.34-12.57-16.46-23.16-36.25-31.76-19.26-8.37-34.92-9.38-47.05-3.07-12.36 6.21-22.75 18.03-31.21 35.39m4.64 100.64 1.21-4.03 34.58-79.56c3.88-8.93 12.77-22.21 24.08-17.29 9.3 4.04 10.87 15.11 3.64 31.72l-33.71 77.56c-3.8 11.29-12.36 19.24-24.02 14.44-7.98-3.27-9.25-11.43-5.78-22.84M4438.9 1447l-44.72 73.71c-19.47 33.68-12.37 60.7 21.33 81.15.6.37 1.21.74 1.78 1.08 13.79 8.37 27.69 11.51 41.66 9.34 14.35-2.25 26.84-12.09 37.43-29.55l44.73-73.72c10.07-18.44 13.84-34.19 11.32-47.12-2.59-13.04-13.18-25.17-31.63-36.36-17.95-10.9-33.33-14.01-46.2-9.39-13.08 4.49-24.98 14.79-35.7 30.86m-8.98 100.34 1.74-3.83 45-74.17c5.05-8.32 15.65-20.28 26.2-13.88 8.67 5.25 8.72 16.43-.67 31.92l-43.87 72.3c-5.29 10.68-14.84 17.4-25.75 11.08-7.47-4.33-7.63-12.58-2.65-23.42M4555.48 1513.5l-50.25 70.07c-21.98 32.09-16.98 59.57 15.06 82.55.58.4 1.15.82 1.69 1.2 13.11 9.41 26.73 13.61 40.82 12.51 14.48-1.15 27.69-10 39.59-26.6l50.24-70.07c11.46-17.62 16.42-33.03 14.91-46.12-1.59-13.19-11.22-26.09-28.75-38.67-17.07-12.24-32.16-16.52-45.35-12.91-13.39 3.48-26.04 12.84-37.96 28.04m-16.65 99.36 2.03-3.69 50.55-70.5c5.68-7.91 17.16-19.03 27.19-11.84 8.24 5.91 7.44 17.06-3.11 31.78l-49.28 68.73c-6.1 10.23-16.14 16.21-26.52 9.07-7.12-4.89-6.65-13.13-.86-23.55M5058.42 2009.04l-75.66 41.42c-33.71 19.4-41.1 46.35-22.16 80.92.33.62.68 1.24.99 1.8 7.73 14.17 18.2 23.86 31.38 28.96 13.55 5.26 29.28 2.99 47.2-6.82l21.94-12-19.43-40.09-23.93 13.08c-9.89 6.58-21.54 7.65-27.81-3.31-4.29-7.49-.28-14.7 9.44-21.59l3.41-2.44 76.11-41.66c8.54-4.68 23.71-9.71 29.64 1.1 4.84 8.91-.71 18.63-16.57 27.31l-20.92 11.44 20.09 39.72 23.66-12.95c17.96-10.9 29.11-22.67 33.42-35.11 4.26-12.58 1.19-28.39-9.16-47.29-10.09-18.45-21.83-28.85-35.29-31.3-13.56-2.68-29.03.28-46.35 8.81M3457.76 934.051l-96.92 170.929 71.23 40.38 18.84-34.37-32.03-18.16 17.1-30.15 28.95 16.84 18.89-35.23-28.32-16.06 40.96-72.234zM4391.07 1353.59l-98.19 170.19 70.93 40.92 19.09-34.24-31.9-18.39 17.32-30.03 28.83 17.06 19.16-35.08-28.2-16.27 41.5-71.93zM3537.05 978.852l-90.87 174.208 70.98 37.03 18.95-33.94-32.8-17.49 16.8-32.2 33.55 17.5 17.43-34.73-32.86-17.52 19.7-37.76 40.99 21.37 17.2-35.23zM3597.48 1081.06l36.73 16.96 6.47-14c5.11-11.07 12.62-14.65 22.54-10.84.6.28 1.17.53 1.78.82 3.73 1.72 6.23 4.46 7.46 8.23 1.25 4.43.46 9.72-2.39 15.89-3.59 7.78-14.84 13.19-33.65 16.17-18.86 2.95-33.49 6.26-43.87 10.01-10.28 3.7-19.26 13.65-26.93 29.87-.27 1.37-.81 2.94-1.64 4.72-5.43 15.86-5.94 29.34-1.49 40.56 4.46 11.17 14.13 20.48 29.05 27.94.72.33 1.47.68 2.19 1.01 8.5 3.92 17.11 5.79 25.97 5.65 9.62-.3 18.75-3.43 27.36-9.28 8.43-5.86 15.48-14.97 21.17-27.31l1.77-3.83-36.7-16.94c-.54 1.18-1.06 2.29-1.55 3.36-6.84 14.83-15.01 20.02-24.52 15.63-7.59-3.5-9.76-9.92-6.48-19.3.3-.67.62-1.34.91-1.97 2.45-5.3 6-8.65 10.6-9.98 5.24-1.42 15.16-3.07 29.75-5.02 14.63-1.93 26.53-4.88 35.71-8.89 9.23-4.13 16.71-11.52 22.38-22.09 1.53-2.94 2.96-5.83 4.29-8.72 8.24-17.83 10.25-32.92 6-45.24-5-14.59-15.91-25.76-32.82-33.57-13.93-6.43-27.61-8.14-41.07-5.19-13.45 3.05-23.42 11.54-29.82 25.42z" style="fill:#fff;fill-opacity:1;fill-rule:nonzero;stroke:none" transform="matrix(.13333 0 0 -.13333 0 794.667)"></path><path d="m3597.48 1081.06 36.73 16.96 6.47-14c5.11-11.07 12.62-14.65 22.54-10.84.6.28 1.17.53 1.78.82 3.73 1.72 6.23 4.46 7.46 8.23 1.25 4.43.46 9.72-2.39 15.89-3.59 7.78-14.84 13.19-33.65 16.17-18.86 2.95-33.49 6.26-43.87 10.01-10.28 3.7-19.26 13.65-26.93 29.87-.27 1.37-.81 2.94-1.64 4.72-5.43 15.86-5.94 29.34-1.49 40.56 4.46 11.17 14.13 20.48 29.05 27.94.72.33 1.47.68 2.19 1.01 8.5 3.92 17.11 5.79 25.97 5.65 9.62-.3 18.75-3.43 27.36-9.28 8.43-5.86 15.48-14.97 21.17-27.31l1.77-3.83-36.7-16.94c-.54 1.18-1.06 2.29-1.55 3.36-6.84 14.83-15.01 20.02-24.52 15.63-7.59-3.5-9.76-9.92-6.48-19.3.3-.67.62-1.34.91-1.97 2.45-5.3 6-8.65 10.6-9.98 5.24-1.42 15.16-3.07 29.75-5.02 14.63-1.93 26.53-4.88 35.71-8.89 9.23-4.13 16.71-11.52 22.38-22.09 1.53-2.94 2.96-5.83 4.29-8.72 8.24-17.83 10.25-32.92 6-45.24-5-14.59-15.91-25.76-32.82-33.57-13.93-6.43-27.61-8.14-41.07-5.19-13.45 3.05-23.42 11.54-29.82 25.42zM3711.52 1133.33l36.73 16.95 6.46-13.99c5.11-11.08 12.63-14.66 22.55-10.85.6.28 1.17.54 1.78.82 3.73 1.72 6.22 4.46 7.45 8.24 1.26 4.43.47 9.71-2.38 15.88-3.6 7.79-14.84 13.2-33.66 16.17-18.86 2.95-33.49 6.27-43.87 10.02-10.27 3.7-19.26 13.65-26.93 29.87-.26 1.36-.81 2.94-1.63 4.72-5.44 15.86-5.94 29.34-1.5 40.55 4.46 11.18 14.14 20.48 29.06 27.94.71.33 1.46.68 2.19 1.01 8.49 3.92 17.11 5.79 25.96 5.66 9.63-.31 18.76-3.43 27.37-9.28 8.42-5.86 15.47-14.97 21.17-27.31l1.77-3.84-36.7-16.93c-.55 1.18-1.06 2.29-1.55 3.36-6.85 14.82-15.01 20.02-24.53 15.63-7.58-3.5-9.75-9.92-6.48-19.3.31-.67.62-1.34.92-1.97 2.44-5.3 6-8.65 10.6-9.98 5.24-1.42 15.16-3.07 29.75-5.02 14.63-1.93 26.52-4.89 35.7-8.89 9.23-4.14 16.72-11.52 22.38-22.1 1.54-2.93 2.97-5.82 4.3-8.71 8.23-17.83 10.25-32.93 6-45.25-5-14.58-15.91-25.76-32.82-33.56-13.94-6.44-27.62-8.14-41.07-5.19-13.45 3.04-23.42 11.54-29.83 25.42zM3858.64 1122.11l-76.93 180.8 40.94 17.41 76.93-180.8zM4040.06 1197.86l-75.58 180.8 41.93 17.53 73.1-88.39.92.38-46.16 99.65 38.67 16.17 75.58-180.81-41.93-17.53-73.9 88.05-.26-.67 45.84-99.22zM4274.85 1297.32l-89.71 174.82 39.48 20.26 71.81-139.95 30.11 15.45 18.15-36.33zM5032 1868.99l-156.09 119.36 26.96 35.24 124.94-95.55 20.57 26.89 31.99-25.02zM5176.68 2107.5l-179.86 79.11 17.86 40.6 143.99-63.32 13.63 30.98 37-16.75zM4972.27 1798.79l-152.29 124.17 28.04 34.39 121.91-99.41 21.39 26.23 31.2-26.01zM4715.52 1563.51l-96.18 123.79-24.9-19.34-24.05 30.95 85.14 66.14 24.04-30.95-25.59-19.88 96.19-123.8zM4793.72 1623.98l-132.21 144.65 39.69 36.28c12.28 11.22 24.74 17.73 37.42 19.33 12.77 1.61 25.34-3.74 37.18-16.28 8.83-9.33 13.7-17.66 14.99-24.53 1.33-7.07 1.01-14.66-.86-22.73 10.68 3.69 20.5 2.12 26.53-.12 6.26-2.33 13.66-8.29 22.33-17.77 25.76-28.19 24.6-55.15-3.51-80.85zm8.7 55.68 7.24 6.43c8.36 7.4 5.54 17.64-4.11 28.34-9.66 10.71-21.11 14.64-28.38 7.82l-7.36-6.91zm-56.46 61.79 5.36 4.76c9.06 8.06 3.04 19.45-3.4 26.5-.23.26-.44.48-.68.74-5.85 6.4-16.13 11.33-23.49 4.46l-6-5.6zM5258.03 2328.62l-190 47.99 13.17 52.13c4.07 16.13 10.89 28.42 20.6 36.74 9.78 8.38 23.21 10.82 40 6.88 12.51-2.94 21.16-7.2 26.02-12.24 5-5.17 8.91-11.68 11.79-19.45 6.89 8.97 15.94 13.06 22.22 14.51 6.5 1.5 15.96.6 28.42-2.55 37.03-9.35 50.9-32.5 41.57-69.43zm-23.39 51.28 2.52 9.35c2.89 10.77-5.09 17.78-19.05 21.39-13.95 3.63-25.67.61-27.99-9.1l-2.34-9.81zm-81.15 20.49 1.86 6.94c3.13 11.71-8.17 17.91-17.43 20.25-.33.08-.63.16-.97.24-8.41 2.13-19.7.59-22.07-9.21l-1.92-7.98zM4153.18 1245.71l-45.54 193.41 54.44 22.81L4268 1293.84l-37.87-15.87-19.51 32.9-29.64-12.42 10.18-36.82zm18.75 86.29 21.51 9.02-44.84 76.4zM4879.02 1703.11l-117.11 160.51 41.3 42.18 162.91-113.74-28.73-29.33-30.76 22.73-22.48-22.96 23.68-29.96zm-16.25 86.79 16.31 16.67-71 52.98zM5026.71 2254.13l14.33 41.46 141.79-49.03c9.83-2.78 16.37.55 19.65 10.06 2.95 8.52-1.01 14.91-11.84 19.18l-139.73 48.32 14.54 42.05 135.04-46.69c35.43-13.88 47.44-38.02 36.09-72.46-.2-.59-.43-1.25-.67-1.96-6.08-17.57-15.11-29.8-27.13-36.73-12.39-7.16-27.73-7.57-46.09-1.22z" style="fill:#fff;fill-opacity:1;fill-rule:nonzero;stroke:none" transform="matrix(.13333 0 0 -.13333 0 794.667)"></path><path d="M1524.34 5452.35H2769l-69.31-216.41h79.9l.13.45 153.56-.45h151.92c51.27 0 100.44-4.85 147.03-27.22 57.45-27.59 89.36-73.08 99.04-135.81 6.38-41.33 2.61-80.85-8.81-121.03-1.72-6.07-3.6-12.02-5.63-17.88l172.97 309.28h349.98l-18.8-240.12 75.2 240.12h279.98l17.41-182.1 45.52 182.1h304.84l-245.2-817.95h-284.28l-13.72 165.96-42.43-165.96h-497.58l13.38 95.92h-55.45l-44.61-95.92h-341.7l.41.74h-148.98l-8.97 88.73-26.9-88.73h-314.97l27.02 88.73c-22.32-21.95-46.93-40.24-75.46-56.12-45.91-25.55-93.03-39.41-145.04-46.05-35.9-4.58-71.37-4.62-107.46-3.14-35.76 1.47-68.69 5.3-101.19 21.05-48.95 23.71-81.46 61.48-98.64 112.92-19.8 59.26-14.1 118.21 3.96 177.29l136.59 446.83h-51.05l-225.14-757.42h-314.7l225.14 757.42h-373.83zm1734.71-621.66c-29.42-36.64-65.38-67.1-107.73-88.87l17.03-73.3z" style="fill:#fff;fill-opacity:1;fill-rule:evenodd;stroke:none" transform="matrix(.13333 0 0 -.13333 0 794.667)"></path><path d="M1562.05 5400.66h1136.13l-58.11-181.39H2083.1l-225.14-757.42H1651.1l225.15 757.42h-372.3zm2356.12-923.64 108.7 425.22 35.17-425.22h198.23l214.21 714.57h-195.03l-108.7-434.82-41.57 434.82h-195.03l-200.35-639.71 50.09 639.71h-263.77l-371.87-664.9-57.05 245.45c112.26 38.11 187.22 150.29 190.95 251.44 3.44 93.32-38.73 160.67-197.31 160.67h-141.62l.01-.03-125.25-1.23-215.28-705.23h206.86l90.71 299.19 30.22-299.19 410.58.86 44.62 94.31h147.81l-13.38-95.91zm-463.33 244.58 142.01 305.33-42.6-305.33zm-829 9.23 137.48 453.43h-206.86l-137.52-453.58c-24.62-81.23-50.59-95.28-88.56-93.8-44.59 1.75-47.11 34.68-30.54 89.33l138.87 458.05h-206.85l-146.19-478.23c-37.88-123.92 6.24-207.73 81.1-234.53 29.29-10.49 66.69-10.35 98.2-11.25 81.8 0 281.12 7.56 360.87 270.58m297.5 122.21 58.08 191.56c6.92.17 13.68.23 22.27-.37 74.56-5.2 60.68-86.68 42.95-116.17-28.46-47.4-65.17-74.11-123.3-75.02" style="fill:#e82029;fill-opacity:1;fill-rule:evenodd;stroke:none" transform="matrix(.13333 0 0 -.13333 0 794.667)" data-source="https://football-logos.cc"></path><!-- source: https://football-logos.cc --></svg>