<svg xmlns="http://www.w3.org/2000/svg" xmlns:xlink="http://www.w3.org/1999/xlink" xml:space="preserve" viewBox="1 0.99 173.57 250.01"><!-- Source: https://football-logos.cc --><g transform="matrix(1.0204 0 0 1.0204 1 1)" data-source="https://football-logos.cc"><defs><path id="a" d="M0 0h170.1v245.1H0z"></path></defs><clipPath id="b"><use xlink:href="#a" width="100%" height="100%" overflow="visible" style="overflow:visible"></use></clipPath><path d="M103.3 2.5c1 .4 1.5 1.4 2.1 2.2 3.8 1.9 8.4 2 11.9 4.6 2.2 2.3 2.3 6 1.2 8.8-.6-1-1.2-2.4-2.5-2.4-3.7-.3-7.4 0-11 .4-1.3 2.8-4.5 4.1-6.5 6.3-1.9 8.9-2 24.9 4.1 31.9-5.3-2.4-9.8-6.2-14.1-10.1 2.1 3.9 4.9 7.4 8.3 10.1-1.8-.9-3.5-2-5.3-3 .9 1 1.8 1.9 2.8 2.9-3.9-1.9-7.6-4.2-10.5-7.4.9 2 2.1 3.8 3.4 5.5-7-3.6-17.2 2-19.3-5.7-1.6-5 3.3-22.3 3.5-27.5-.9.5-1.7.9-2.6 1.4 1.3-3.7 3.3-7.2 6.1-10-.5.1-1.4.4-1.9.5 2.8-3 5.4-6.5 9-8.8 5.9-3.6 15.2-2.3 21.3.3" clip-path="url(#b)" style="clip-rule:evenodd;fill:#002053;fill-rule:evenodd"></path><path d="M91.3 8.5c-.2-1.3.8-2.3 1.7-3.1-.6.9-1.5 1.9-1.1 3.1.4 1.7 2.5 2.6 4 1.9.9-.3 1.3-1.2 1.9-1.8-.5.8-.9 1.8-1.8 2.2-1.8 1-4.5-.2-4.7-2.3M104.5 6.9c.4-.4.9-.8 1.3-1.2.3.2.9.5 1.2.7-.7 2-2.9 2.8-4.8 2.8-1.1 0-1.4 1.2-2.2 1.6.5-2.3 3.1-2.4 4.5-3.9" clip-path="url(#b)" style="clip-rule:evenodd;fill:#fff;fill-rule:evenodd"></path><path d="M93.6 5.5c.7.5 2.1.8 3.1 1.5-.2 1-1.6 1.6-2.3.7-.3-.7-.6-1.5-.8-2.2M77.9 12.6c1.8-3.5 5-6.2 8.9-7-.9.9-1.7 1.9-2.5 2.9.5-.2 1.1-.3 1.7-.5-.9.8-1.7 1.6-2.5 2.5.9-.2 1.9-.5 2.8-.8-3.8 3.9-6.6 8.9-7 14.4 0 1 0 2.1-.2 3.1-.5-.7-.4-1.6-.6-2.4-.2 1.2-.1 2.5-.1 3.7H78l-.3-1.8c-.4-3.8.6-7.7 2.2-11.2-.7.9-1.4 1.7-2.2 2.5.5-2.2 1.8-4.1 3.1-5.9-.7.4-1.4.9-2.1 1.3.5-.8 1.2-1.5 1.8-2.3-.9.5-1.7 1-2.6 1.5M107.6 6.7c3.8.3 8 1.3 10.5 4.4-.2.3-.5.6-.7 1 .2-1-.7-1.6-1.4-2.1-2.5-1.5-5.5-1.5-8.3-1.7-.3.3-.8 1-1.1 1.3 2.7-.2 5.5-.3 8.1.7 1.1.5 2.3 1.1 2.7 2.4.3-.1.7-.3 1-.4.2 1.4.3 2.9.2 4.4-.8-2.6-3.3-4.3-6-4.6q-6-.75-12 0c2.5-1.7 5.9-2.4 7-5.4" clip-path="url(#b)" style="clip-rule:evenodd;fill:#fff;fill-rule:evenodd"></path><path d="M100.7 12.5c5-.9 10.1-.7 15 .7.3.4 1 1.3 1.3 1.7-1.4-.5-2.7-1-4.1-1.4.7.4 1.4.8 2.1 1.3-3.5 0-7.1 0-10.5.6-.1-2.1-2.3-2.3-3.8-2.9" clip-path="url(#b)" style="clip-rule:evenodd;fill:#fff;fill-rule:evenodd"></path><path d="M82.6 32.9c2.3 0 4.7-.1 7.1.2 9.3.4 18.6 1.6 27.9 3.7 1.9 0 3.7-.1 5.5-.4 10-1.5 46.9-19.8 46.9-10.9v131l-84.8 85.6z" clip-path="url(#b)" style="clip-rule:evenodd;fill:#002053;fill-rule:evenodd"></path><path d="M150.4 72.1v-1.3l19.7-19.7v1.3zM150.4 84.7v-1.4l19.7-19.7V65zM150.4 97.3v-1.4l19.7-19.7v1.4zM150.4 109.8v-1.3l19.7-19.7v1.3zM150.4 122.4V121l19.7-19.7v1.4zM150.4 135v-1.4l19.7-19.7v1.4zM150.4 147.5v-1.3l19.7-19.7v1.3zM150.4 160.1v-1.4l19.7-19.6v1.3z" clip-path="url(#b)" style="clip-rule:evenodd;fill:#3c6eb4;fill-rule:evenodd"></path><path d="M87.4 32.9c-2.3 0-4.7-.1-7.1.2-9.3.4-18.6 1.6-27.9 3.7-1.9 0-3.7-.1-5.5-.4C36.9 34.9 0 16.5 0 25.5v131l84.8 85.6z" clip-path="url(#b)" style="clip-rule:evenodd;fill:#002053;fill-rule:evenodd"></path><path d="M19.7 72.1v-1.3L0 51.1v1.3zM19.7 84.7v-1.4L0 63.6V65zM19.7 97.3v-1.4L0 76.2v1.4zM19.7 109.8v-1.3L0 88.8v1.3zM19.7 122.4V121L0 101.3v1.4zM19.7 135v-1.4L0 113.9v1.4zM19.7 147.5v-1.3L0 126.5v1.3zM19.7 160.1v-1.4L0 139.1v1.3z" clip-path="url(#b)" style="clip-rule:evenodd;fill:#3c6eb4;fill-rule:evenodd"></path><path d="M19.7 49.9c43.6-7.5 87.1-7.9 130.7 0v17.6H19.7Z" clip-path="url(#b)" style="clip-rule:evenodd;fill:#32418b;fill-rule:evenodd"></path><path d="M42.8 235.3h29.4c7.6 0 11.9 5.1 12.9 7.3 1.1-2 4.9-7.4 12.7-7.4h28.9c13.6 0 21.6-9.3 21.6-22.9l.3-139.2H21.5l-.3 139.2c0 13.6 8.1 23 21.6 23" clip-path="url(#b)" style="clip-rule:evenodd;fill:#77a0d4;fill-rule:evenodd"></path><path d="m146.4 193.8-54.5 9 54.5 8.7z" clip-path="url(#b)" style="clip-rule:evenodd;fill:#bfd0eb;fill-rule:evenodd"></path><path d="m136.9 157.9 1.2 2.4-.2 1.2c-1.4 0-1.9 2.1-1.5 4.4l-.3-.2-1.2-5.5-2.7-4.3-2-4.6-3.5-3c.6-.4 1.2 0 1.9-.4 1-.5 2-1.8 2.9-2.1.8-.2.7.4 1.2.8.6.5 1.8.9 1.5 2.2l.8 2.3-.7 2.3 1.3 2-.7.8 1.2 1.9zM20.1 123.3l-.1 74.3c.3-2.2 1.4-4.2 3.8-4.8l2.7-.2 1.5 1.3 4.7-3.5 4.2-2c2.7-1.8 5.6-1.4 8.5-1.1l3-3.8.1-4.1c.6-.7 1.9-1.2 3.6-1.6l-3.9-.2c-.2-.6-1.1-.7-1.1-1.2-.3-2.1.9-3.4 3.2-4.3.4-.1.8.3 1.3.2.1 0 .8-.4.9-.5.6-.1 1-.4 1.6-.5.7-.1 1.2.3 2 .2l4.7 1.8 2.6.7 1.7.6 1.5 1.7.4 2.7 1.3 1 3.3-.2 4.3-.3 4.3-3.1 3.3-1.3c1.8.2 2.5 1.1 3.2 2.1.2 0 .3-.2.5-.5.2-.4.9-.7 1.3-.6.4.2.4.8.6 1.2.1.1.3-.5.5-.4 0-.8.1-1.5.1-2.2l1.4-.6 3.1-1 1.9-.3 3.3.3 5.5 1.7 1.1 1 6.4.4 3.8 1.2 3.6 1.7 6.4 3.3 2.3.6 4.7 4.3 1.8 2.3 1.6 3.1.4 6.1.8-3-.1-4.4c-.8-1.4-1.5-2.7-1-4.2l.5-1.8.1-11.5-1.2-2.1c-1.1-1.3-1.9-2.7-1.9-4.5-.3-.4-.6-.9-.8-1.3.1-.6-.3-1.2-1.1-1.7l-.6-1-2.8-2.3-.2-.3-1.4-.1-3.2-3-.9-1.3 1.4-1.1-2.2-.6-2-.6-.2-1.4-1.3-1.5c-.7-.1-1.2-.8-1.6-1.8v-.7l-.8-.4-.4-1.3c.5-1 0-1.7-.7-2.3l-.7-2.1-2.2-.9-6.4-.9-4.7-2.2-2.6-.8c-2.4.5-3.6-.1-4.1-1.7l-1.7-1.8-.1-.2c-1.2-1-2.2-2.2-2.5-4l-.8-1.5-.7-.4-.6-.6-.4-.4-.2-.8-.3.1-.6-1.6c-.2-.8.2-1.5.8-2.1l.1-.8-.7-.6-.2.6-2.3.1c-5.1 1.8-9.4 2.8-10 .4l-.4-.5-4.9.7c-9.9 3.4-9.9 2.7-20.7 5.3l-6.4-.6-7.5-.4-8.4-.7-3.3-1.4z" clip-path="url(#b)" style="clip-rule:evenodd;fill:#32418b;fill-rule:evenodd"></path><path stroke-miterlimit="2.613" d="M69.1 177.2c.4-.2 1.4.4 1.6.2 2-1.3.3-1.5 1.5-2.3 1.7-1.2 2.3-.4 3.2-1.3.3-.3 1-.7 1.2-1.8.2-1.5 5.6 1.8 9.4-2.4 2.3-2.6 3.8-2.5 3.9-3.2.2-1.2-2.4-2.5-4-6.1-.2-.4-.8-5-1.1-5.2" clip-path="url(#b)" style="fill:none;stroke:#3c6eb4;stroke-width:.257;stroke-miterlimit:2.61299992"></path><path stroke-miterlimit="2.613" d="M98.1 145.9c.2 1.8-10.3 6.4-13.2 9.1-.7.7-1.2.6-1.8 1.1-1.2 1-1.5 1.8-2.8 1.8-.7 0-1.3-.6-2.2-.7-2.4-3.1-4.5.4-6.1 0-.3-.1-1.3-.1-1.6-.4-.6-.4-3.2-.5-5.3.2-1.4.5-2.5 1.8-3.1 3.4-.6.1-.3.7-1 .7" clip-path="url(#b)" style="fill:none;stroke:#3c6eb4;stroke-width:.257;stroke-miterlimit:2.61299992"></path><path stroke-miterlimit="2.613" d="M63.6 157.9c0-1.9 1.1-3.2 1.4-4.6.4-1.8 1.1-2.7 1.9-4.2.4-.7.2-2.8.7-3.6.4-.7 1.3-.4 1.8-1.2.2-.4.5-.5.8-.9 1.2-1.5 4.2-5.8 7.2-9.5 2-2.5 3.8-4.5 4.6-4.9 1.9-.9 1.3-1.4.7-2.3-.5-.8.1-2.2-.4-2.7s-1.8.8-4.6 1.1c-3.5.3-2.5-1.9-3.9-1.5-.8.2-3.5 3.2-6.1 4.1-3.6 1.2-9.9 3.5-10.1 4.4zM86.1 126.3c.1 1.4 2.5 2.8 3.1 5.3.5 2.2 1.9 3.8 2.9 5 .3.4.8 2.7 1.4 4.8.5 1.8 1.5 3.6 2.1 4.9.4 1 .5 1.6.8 1.6M90 166.5c3.7.8 4.9.6 6.1.2 1.7-.5 2.3-1.6 4.6-2.6.4-.2.8-.3 1.1-.8.7-.9 2.7-1 4.3-1.5M43.5 165.7c.1-.6-.9-1.7-1.2-2.5-.7-1.7-1.9-4-4.2-6.2-1.3-1.3-2.2-2.3-3.6-4-.7-.8-2.3-1.6-2.6-2.8 0-.1-7.1-9.5-8.1-10.5-2-2.2-1.7-1.6-3.3-3.8" clip-path="url(#b)" style="fill:none;stroke:#3c6eb4;stroke-width:.257;stroke-miterlimit:2.61299992"></path><path stroke-miterlimit="2.613" d="M41.1 161c.2 1-1.6 4.1-1.9 6.7-.3 2.8.7 5.5 1.8 6.8 1 1.2-.3 2.4-1.5 5.1-.5 1.2-.8 3.5-1.3 4.4-1.3 2.3-3.4 3.5-6.6 6.3-.1 0-1.1 1.8-2.7 1.3-3.5-1.1-6.9.5-8.6 2.2M39 158.2c-1.2-.1-3-.8-5.2-1.3-3.9-.8-8.6-1.6-10.6-2.6-.1-.1-1.5-.6-2.8-1.1M98.1 145.7c1.5.1 9.2.6 9.9 1.2.3.2 3.5-1.5 2.5-3.4" clip-path="url(#b)" style="fill:none;stroke:#3c6eb4;stroke-width:.257;stroke-miterlimit:2.61299992"></path><path stroke-miterlimit="2.613" d="M108.5 146.5c1 .8.3 1-.5 1.9-.5.6-.9 1.6-1.4 2.6-.2.5-.8.8-.9 1.4-.3 1.1.4 2.3.1 3.4-.6 2.8-.7 5.5.9 7.4.8.9.4 1.4.5 1.6.1.4.3.3.9 2.1.4 1.3 1.6 2.4 1.9 4.9.3 2.4.4-.4-4 .5-2.9.7-2.3-.4-2.1-2.6 0-.3-.4-.4-1.1-.5" clip-path="url(#b)" style="fill:none;stroke:#3c6eb4;stroke-width:.257;stroke-miterlimit:2.61299992"></path><path stroke-miterlimit="2.613" d="M105.5 152.9c1.3.6 9.2 2.1 9.4 3.9.6.1 5.4 6.6 6.4 8.1.6.9 3.2 4.2 5.3 4.1.5 0 .9-1.5 1.4-2 1.6-1.4 3-.8 4.1-.9.2 0 .3-.4.5-.5 2.2-.7 1.5-1.2 3.4-2.2.3-.2.5-1 .6-1.9.1-.7.1-1.3-.2-1.9-.7-1.3-2.1-2.7-2.1-4.3 0-.6-.5-1-.7-1.5-.1-.3-.5-.5-.6-.8 0-.1-.9-1.7-.9-1.9M61.9 160.8c0-.9-2.3-.4-3-1.2-.1-.1-3-.2-3.3.1-.4.4-1.5.3-2.7 1.9-.1.2-3.6 1.1-4.3 1.4-1.7.7-3.4.8-5.4 1.3-.1 0-.1.3-.2.3M43.5 165.7c.6.5 3.1 2.2 3 2.8 0 .3.4 2.5.8 2.5 2.8-.1 2.8-1.7 3.2-1.8s.9-1.4 2.3-1.6c.5-.1 5.1-5 7.9-6 .2-.1.4-.2.5-.3" clip-path="url(#b)" style="fill:none;stroke:#3c6eb4;stroke-width:.257;stroke-miterlimit:2.61299992"></path><path stroke-miterlimit="2.613" d="M52.4 167.8s2.8.2 3.3.2c1 0 4.6.2 5.1-.4.5-.5 5.7-.3 6.6-1 1-.9.4 5.3.6 5.3.3 0 1 .3.9.6.2.2.1 4.7 0 4.7-.8-1-2.7-2.2-2.7-3.6 0-1.2-2.6-2-3.6-2.1-2-.3-.8-.7-3.4-.5-1.7.1-3.7-.5-5.8-.5-1.6 0-2.7 1.2-4.5 1.2-.2 0-.7-.6-.4-.7M41.2 176.1c2.1-.4.6.7 2.9-1.5.1-.1.4-1.5 1.8-2.1.5-.2 1.7-1.9 2.1-1.8" clip-path="url(#b)" style="fill:none;stroke:#3c6eb4;stroke-width:.257;stroke-miterlimit:2.61299992"></path><path stroke-miterlimit="2.613" d="M44.2 174.1c-.9-1.5-.5-.3-.9-1-.2-.3-.2-5.1-.1-5.6.3-.9 2.4-1.6 2.6-3.7M71.9 175.2c0 .4.8 2.4 1.2 2.4 1.3 0 2-.8 3.8-.8.8 0 2.9-1.4 4-1.5 1.4-.1 4.4-1.2 5.4-.4 0 0 1.7.4 1.6-.9 0-.8 4.5-1.9 4.9-2.2.7-.5 2.1.5 2.3.5.2.8 4.5-.2 6.4 1 .2.1 2.2.5 3.9.8 1.1.2 2 .9 2.2 1.1 0 0 3.1-.1 3.2-.6h.2M86.2 126.5c-.6-.5.6-3.2-.7-3.4-1-.2-.7.5-2.4.4-.4 0-1.2.4-1.4.5M92.7 139c-1.1.2-2 .1-3.2.4-.6.2-6.6 0-7.3-.5-1.1-.8-3.3-.9-3.5-1.5-.2-.7-3.4 1-4.3.4M93.6 141.7c1.4 0 1.4-.6 3.3-.5 1.7.1 3.4-.6 5.1-.2.7.2 2.6.1 2.7.9 0 .2.8.8.2 2.4-.1.3-.4 1.8-.4 1.8" clip-path="url(#b)" style="fill:none;stroke:#3c6eb4;stroke-width:.257;stroke-miterlimit:2.61299992"></path><path stroke-miterlimit="2.613" d="M80.4 157.9s-.8.9-1 1.1c-.4.3-.1.8-1.7 1.5-2.9 1.2-.9 2.5-2 5.6-.8 2.3-.2 2.2-.1 4.6.1 1.4-4.2 3.1-3.6 4.7M61.9 160.6c0 .5.2.8 1 .6 0 0 2 .7 2.4.9s2.1 2.8 2.1 3.9c0 .1 0 .9.1.5M67 156.7c.1.9 1.2 2.1 1.7 3.6.5 1.4 2 3 2 4.6 0 .6.2 2.7.2 3.6 0 .3 0 5 .6 3.4.6-.2.7-1.9.3-2.7-.5-1.1.5-.5-.9-2.2M49.7 170c-.4-1.3-.8-.9-1-2.5-.2-1.1-.7-2.9-1.3-3.8-.5-.8 1.5-4.4 1.4-5.5 0-.1.5-1.1.5-2.5 0-1.7.2-1.2-.4-2.6-.1-.4-1-4.8-1.7-3.6-.4.8-5 1.4-7 3.3-.5.5-2.6 1.6-3.4 2.6-.1.1-.2.2-.1-.1" clip-path="url(#b)" style="fill:none;stroke:#3c6eb4;stroke-width:.257;stroke-miterlimit:2.61299992"></path><path stroke-miterlimit="2.613" d="M47.2 149.8c.2-1.3 3-1.2 4.4-2.7 1.2-1.2 2.2 1.3 3.8 1.9s1.7 4.9 3 4.9c4.2 0 3.2-2.1 6.8-2.1.1 0 .1 0 .2-.1M85.4 156.9c3.4-.2 3.4-1.9 8.5-1.8 2.5.1 5.7-4.3 7.1-5.7.4-.4 5.3-3 3.3-3" clip-path="url(#b)" style="fill:none;stroke:#3c6eb4;stroke-width:.257;stroke-miterlimit:2.61299992"></path><path stroke-miterlimit="2.613" d="M98.4 152.2c2.1.9 8.1 2.9 8.3 5.3.2 2.2 5.3 2.3 6.9 2.3 2.6 0 3.6 2.1 6.9 2 1.8-.1 5.4 1.4 6.7 3 .5.6 3.2 1.2 4 1.2" clip-path="url(#b)" style="fill:none;stroke:#3c6eb4;stroke-width:.257;stroke-miterlimit:2.61299992"></path><path stroke-miterlimit="2.613" d="M126.4 164.3c.1.9-1.7 4.8-1.7 7.4 0 1.2-1.2 1.3-.3 5.7.2 1.2.9 3.4 2 3.5.1 0 6.1 4.3 7 4.7 0 0 3.7 6.4 3.9 6.5M78.2 137.3c4.3-2.6 8.5-.4 10.8-2.1.1-.1 1.5-.3 1.6-.3M20.5 129.3c3.1 1.8 3 1.8 6.8 1.8 3 0 .4-1.4 5.2-.8 1.7.2.9.7 3.9.7 1.6 0 3.9-.6 5.4-.2 1.1.3 1.7-.2 3.5.6.2.1 1.3 0 1.6 0" clip-path="url(#b)" style="fill:none;stroke:#3c6eb4;stroke-width:.257;stroke-miterlimit:2.61299992"></path><path stroke-miterlimit="2.613" d="M47.4 149.2c-1-.9 1-.9 0-2.4-.7-1.1-.9-.6-1.4-2.2-.1-.3-2.7-4.9-3-5.2-.7-.5-1.6-1.8-2.9-2.2-2.2-.8-1.8-3-1.8-4.9 0 0-1-4.3-1-4.4M26.6 131.2c-.1 1.2 1 .5-.3 2.4-.3.4.8.5.2 2.2-.4 1.1.5.6-1.4 1.5-.7.4-1-.5-2.3.9" clip-path="url(#b)" style="fill:none;stroke:#3c6eb4;stroke-width:.257;stroke-miterlimit:2.61299992"></path><path d="M78.2 206.7h1V197c1.3-1.6 3-2.7 4.7-3.1l1-2.5 1 2.5c1.7.4 3.4 1.5 4.7 3.1v9.7h2.8v2.3h-1.3l2.3 28.9c-3.9.9-7 3.2-8.6 5.1H84c-1.5-1.9-4.6-4.2-8.6-5.1l2.3-28.9h-1.3v-2.3z" clip-path="url(#b)" style="clip-rule:evenodd;fill:#9fbce3;fill-rule:evenodd"></path><path d="M78.2 207.1h1.4V197c1.5-1.6 3-2.6 4.5-2.8l.8-2.2.8 2.2c1.5.2 3 1.2 4.5 2.8v10H93v1.5h-1.3l2.3 29.2c-3.9.9-6.7 3.2-8.2 5.1H84c-1.5-1.9-4.2-4.2-8.2-5.1l2.3-29.2h-1.3V207h1.4z" clip-path="url(#b)" style="clip-rule:evenodd;fill:#c3d0eb;fill-rule:evenodd"></path><path d="M79.6 206.7h10.6v.4H79.6zM79.6 198.1h10.6v.4H79.6zM80.9 212.1h1.4v3.7h-1.4zm-.4-.3h2.1v4.5h-2.1zM80.9 222.6h1.4v3.7h-1.4zm-.4-.4h2.1v4.5h-2.1zM80.9 232.9h1.4v3.7h-1.4zm-.4-.4h2.1v4.5h-2.1z" clip-path="url(#b)" style="clip-rule:evenodd;fill:#9fbce3;fill-rule:evenodd"></path><path d="M41.6 237.5h30.2c7.8 0 12.2 5.2 13.2 7.5 1.1-2 5-7.6 13.1-7.6h29.7c14 0 22.5-9.6 22.5-23.6V70.6H19.7v143.2c0 14.1 8 23.7 21.9 23.7m0-4h30.2c3.9 0 7.2 1.1 9.8 2.5 1.3.8 2.5 1.6 3.5 2.6 1-.9 2.1-1.8 3.5-2.6 2.5-1.4 5.7-2.5 9.6-2.5h29.7c5.7 0 10.2-1.9 13.2-5.1 3.2-3.4 5.2-8.4 5.2-14.5V74.7H23.7v139.2c0 5.9 1.4 10.9 4.6 14.3 3 3.4 7.5 5.3 13.3 5.3" clip-path="url(#b)" style="clip-rule:evenodd;fill:#002053;fill-rule:evenodd"></path><path d="M36.6 64.4V52.9h6.9v1.7h-4.6v3.2h3.9v1.8h-3.9v4.8zM52.3 52.9v7.8c0 1.2-.4 2.2-1.1 2.8-.7.7-1.7 1-2.8 1-1.2 0-2.1-.3-2.8-1s-1.1-1.6-1.1-2.8v-7.8h2.2v7.8c0 .7.1 1.2.4 1.5s.7.5 1.2.5 1-.2 1.2-.5c.3-.3.4-.8.4-1.6v-7.8h2.4zM55.9 64.4v-9.8h-2.6v-1.7h7.4v1.7h-2.6v9.8zM64.1 57.7h1.2c.5 0 .8-.1 1.1-.4.2-.3.4-.6.4-1.1s-.1-.9-.4-1.2-.6-.4-1.1-.4h-1.1v3.1zm0 1.6v3.3h1.6c.5 0 .8-.1 1.1-.4.2-.3.4-.7.4-1.2 0-.6-.1-1-.3-1.3s-.5-.4-1-.4zm-2.3 5.1V52.9h3.4c1.2 0 2.1.3 2.8.8s1 1.3 1 2.4c0 .5-.1 1-.4 1.5-.2.4-.6.7-1.1 1 .6.1 1.1.5 1.3.9.3.5.4 1 .4 1.7 0 1.1-.3 1.9-.9 2.5q-.9.9-2.7.9h-3.8zM76.3 57c0-.8-.2-1.4-.5-1.9-.3-.4-.8-.6-1.3-.6-.6 0-1 .2-1.3.6s-.4 1-.4 1.9v3.2c0 .8.2 1.5.5 1.9s.7.6 1.3.6 1-.2 1.3-.6.5-1 .5-1.9V57Zm2.2 3.2c0 1.3-.4 2.4-1.1 3.2s-1.7 1.1-2.9 1.1-2.2-.4-2.9-1.1c-.7-.8-1.1-1.8-1.1-3.2V57c0-1.3.4-2.4 1.1-3.2s1.7-1.1 2.9-1.1 2.2.4 2.9 1.1c.7.8 1.1 1.8 1.1 3.2zM80 64.4V52.9h2.2v9.7h4.2v1.8zM91.1 64.4V52.9h2.3v4.6h.7l2.2-4.6h2.8l-3.2 5.2 3.4 6.3h-2.7l-2.3-4.8h-.9v4.8zM100.1 64.4V52.9h2.2v9.7h4.2v1.8zM114.9 52.9v7.8c0 1.2-.4 2.2-1.1 2.8s-1.7 1-2.8 1c-1.2 0-2.1-.3-2.8-1s-1.1-1.6-1.1-2.8v-7.8h2.2v7.8c0 .7.1 1.2.4 1.5s.7.5 1.2.5 1-.2 1.2-.5c.3-.3.4-.8.4-1.6v-7.8h2.4zM118.8 57.7h1.2c.5 0 .8-.1 1.1-.4.2-.3.4-.6.4-1.1s-.1-.9-.4-1.2-.6-.4-1.1-.4h-1.1v3.1zm0 1.6v3.3h1.6c.5 0 .8-.1 1.1-.4.2-.3.4-.7.4-1.2 0-.6-.1-1-.3-1.3s-.5-.4-1-.4zm-2.3 5.1V52.9h3.4c1.2 0 2.1.3 2.8.8s1 1.3 1 2.4c0 .5-.1 1-.4 1.5-.2.4-.6.7-1.1 1 .6.1 1.1.5 1.3.9.3.5.4 1 .4 1.7 0 1.1-.3 1.9-.9 2.5q-.9.9-2.7.9h-3.8zM133.2 52.9v7.8c0 1.2-.4 2.2-1.1 2.8-.7.7-1.7 1-2.8 1-1.2 0-2.1-.3-2.8-1s-1.1-1.6-1.1-2.8v-7.8h2.2v7.8c0 .7.1 1.2.4 1.5s.7.5 1.2.5 1-.2 1.2-.5c.3-.3.4-.8.4-1.6v-7.8h2.4zM119.5 111.7c1.9 0 3.3-.9 4.4-2.6s1.7-4 1.9-6.7H113v.9c0 2.6.5 4.6 1.5 6.2 1.1 1.5 2.7 2.2 5 2.2m-2-32.1c5 0 8.9 1.6 11.6 4.7s4 7.3 4 12.4v4.2q0 7.5-3.9 12.3c-2.6 3.2-5.9 4.8-9.7 4.8-4.5 0-7.9-1.5-10.2-4.6-2.4-3.1-3.5-7.3-3.5-12.8v-4h20.1c0-3.2-.7-5.8-2-7.7-1.3-2-3.4-2.9-6.4-2.9-1.7 0-3.3.2-4.7.5-1.4.4-2.6.8-3.6 1.3l-1.1-5.9c.6-.5 1.7-.9 3.4-1.5 1.8-.5 3.8-.8 6-.8m-33 17.3h4.9c1.5 0 2.6-.5 3.4-1.4s1.1-2.2 1.1-3.9-.4-3.1-1.1-4.1c-.8-1-1.9-1.5-3.4-1.5h-4.9zm0 5.8v14.8h-7.3V80.2h12.2c3.7 0 6.6 1 8.7 2.9s3.1 4.6 3.1 8.1c0 2-.4 3.6-1.3 5s-2.1 2.5-3.8 3.4c1.9.7 3.3 1.7 4.1 3.2s1.3 3.4 1.3 5.6v2.6c0 1 .1 2.1.4 3.3.2 1.2.7 2 1.3 2.5v.5h-7.5c-.6-.5-1-1.4-1.1-2.7-.2-1.2-.2-2.5-.2-3.8v-2.5c0-1.9-.4-3.3-1.1-4.3-.8-1-1.8-1.5-3.3-1.5h-5.5ZM71.2 86.4h-7.5v-6.2h7.5zm-.1 31.1h-7.3V88.8h7.3zM45 111.7h14.3v5.8H36.8v-3.7l14-27.8H36.6v-5.8h22.5v3.5z" clip-path="url(#b)" style="clip-rule:evenodd;fill:#fff;fill-rule:evenodd"></path><path d="M123.8 169.1c1.9 0 3.4 1.5 3.4 3.4s-1.5 3.4-3.4 3.4-3.4-1.5-3.4-3.4 1.5-3.4 3.4-3.4" clip-path="url(#b)" style="clip-rule:evenodd;fill:#32418b;fill-rule:evenodd"></path><path d="M123.8 169.1c1.9 0 3.4 1.5 3.4 3.4s-1.5 3.4-3.4 3.4-3.4-1.5-3.4-3.4 1.5-3.4 3.4-3.4m0 1c1.3 0 2.4 1.1 2.4 2.4s-1.1 2.4-2.4 2.4-2.4-1.1-2.4-2.4c0-1.4 1.1-2.4 2.4-2.4" clip-path="url(#b)" style="clip-rule:evenodd;fill:#3c6eb4;fill-rule:evenodd"></path><path d="M64.8 226.2h-5.7v-1.3l2.6-3.3c.4-.5.6-.9.8-1.3s.2-.7.2-1c0-.4-.1-.7-.2-1-.2-.3-.4-.4-.7-.4s-.5.2-.7.5-.2.7-.2 1.2H59c0-.9.2-1.6.7-2.2q.75-.9 2.1-.9c.9 0 1.6.3 2.1.8s.7 1.2.7 2.1c0 .6-.1 1.1-.4 1.6s-.7 1.2-1.4 2l-1.3 1.8h3.3zM69.6 220.2c0-.8-.1-1.3-.2-1.7-.2-.4-.4-.5-.7-.5s-.5.1-.7.5-.2.9-.2 1.7v2.4c0 .8.1 1.4.2 1.7.2.4.4.5.7.5s.5-.1.7-.5.2-.9.2-1.7zm1.9 2.2c0 1.3-.3 2.3-.8 2.9-.5.7-1.2 1-2 1-.9 0-1.5-.3-2.1-1-.5-.7-.8-1.6-.8-2.9v-2.1c0-1.3.3-2.3.8-2.9.5-.7 1.2-1 2.1-1s1.5.3 2.1 1c.5.7.8 1.6.8 2.9v2.1zM98.1 218.6v-1.4l3.7-.6v9.6h-1.9v-7.7zM106.1 222.6h1.6v-3.3l-.1.2zm3.4 0h.8v1.5h-.8v2.1h-1.9v-2.1h-3.2l-.1-1.2 3.3-6.4h1.9zM23.7 193.8l54.4 9-54.4 8.7z" clip-path="url(#b)" style="clip-rule:evenodd;fill:#bfd0eb;fill-rule:evenodd"></path></g><!-- source: https://football-logos.cc --></svg>