<svg xmlns="http://www.w3.org/2000/svg" viewBox="0 0 280.09 358"><!-- Source: https://football-logos.cc --><path d="M459.249 545.352c-1.682-14.77-4.759-27.283-9.149-37.252 2.216-43.652-7.672-78.935-8.082-80.453l-2.872-9.929-7.713-2.338a418 418 0 0 0-3.077-8.698c-1.026-2.667-2.051-5.087-3.036-7.467l-1.559-3.487-3.692-.943c-1.56-.411-3.2-.82-4.842-1.231l-.37-.084c-1.681-.41-3.404-.82-5.128-1.19l-.533-.123c-1.682-.41-3.364-.78-5.005-1.148l-.37-.084a146 146 0 0 0-4.636-.985l-.37-.084c-.82-.163-1.64-.327-2.38-.492a586 586 0 0 0-9.723-1.887c-.327-.123-.78-.287-1.313-.493l-.042-.042c-.492-.205-.984-.41-1.477-.656l-.245-.123c-.944-.452-1.929-1.025-2.913-1.641l-.123-.084a38 38 0 0 1-2.585-1.888l-.164-.164c-.37-.287-.779-.615-1.19-1.026l-.163-.164c-.37-.327-.739-.656-1.026-.984l-.205-.204c-.287-.328-.657-.698-.943-1.027l-.287-.327c-.328-.41-.616-.739-.861-1.067-.084-.123-.164-.246-.246-.328l-.084-.123c-.41-.574-.82-1.107-1.149-1.6l-2.503-3.077-.084-.123a76 76 0 0 0-3.897-4.225l-.246-.246a59 59 0 0 0-2.79-2.626 64 64 0 0 0-3.774-3.159l-.164-.084a51 51 0 0 0-2.01-1.518c-.205-.123-.41-.246-.575-.37l-.164-.123c-.451-.286-.902-.615-1.354-.902-.245-.164-.533-.327-.779-.492l-.123-.084a22 22 0 0 1-1.313-.78c-.286-.163-.615-.37-.86-.492-.124-.084-.288-.164-.37-.205-.37-.205-.657-.37-1.027-.575-4.225-12.349-15.96-21.046-29.334-21.17h-.328c-13.21 0-25.026 8.452-29.457 20.637v.042l-.574.288-.042.042c-2.42 1.313-4.8 2.872-7.057 4.554l-.246.205c-.574.41-1.066.82-1.682 1.272l-.697.615c-1.477 1.23-2.913 2.503-4.267 3.857a1 1 0 0 1-.246.204l-.042.084a41 41 0 0 0-1.887 1.887l-.123.164c-.656.739-1.313 1.477-1.928 2.134a2 2 0 0 1-.246.287l-.41.534c-.739.82-1.354 1.641-1.97 2.42q-.615.74-1.108 1.477c-.37.452-.697.945-1.066 1.477-.246.287-.493.616-.82.985l-.287.286c-.328.37-.657.739-.902 1.026l-.164.123-.943.944-.287.245a30 30 0 0 1-2.298 1.846l-.286.246a21 21 0 0 1-2.503 1.6l-.287.205c-.533.287-.943.534-1.313.697-.533.287-1.066.534-1.723.82l-.492.206c-.575.204-1.026.41-1.518.574-2.954.534-5.99 1.108-8.985 1.723-.738.164-1.477.288-2.215.452l-.411.042-.287.123-4.677.984-.451.123c-1.724.327-3.365.738-5.047 1.107l-.574.123c-1.805.452-3.529.82-5.088 1.231l-.533.123c-1.805.452-3.364.82-4.8 1.19l-3.693.943-1.559 3.528a274 274 0 0 0-3.159 7.713 195 195 0 0 0-3.077 8.698l-7.713 2.339-2.83 9.928c-.452 1.518-10.34 36.76-8.124 80.453-4.103 9.272-7.015 20.76-8.78 34.176a519 519 0 0 1-.37 3.036c-.041.451-.083.902-.163 1.354-2.749 27.323 4.267 56.247 4.554 57.478l6.933 12.472c2.585 4.144 5.375 8.246 8.288 12.103 4.43 6.03 9.395 11.816 14.687 17.313l.123.164c3.693 3.61 8.37 5.498 13.498 5.498 4.103 0 7.262-1.272 8.164-1.682a366 366 0 0 1 3.857-1.6c4.102 3.323 8.287 6.482 12.636 9.395 14.236 9.64 30.442 17.518 48.124 23.426l18.586 12.062 18.544-12.062c17.682-5.908 33.847-13.785 48.083-23.426a165 165 0 0 0 12.636-9.395c1.354.533 2.626 1.066 3.857 1.6.902.41 4.061 1.682 8.205 1.682 5.087 0 9.764-1.888 13.416-5.498l.207-.155c5.251-5.498 10.215-11.324 14.646-17.313 2.954-3.857 5.703-7.96 8.288-12.103l6.933-12.472c.287-1.272 7.55-31.14 4.39-58.792" style="clip-rule:nonzero;fill:#fff;fill-opacity:1;fill-rule:nonzero;stroke:none;stroke-width:10.5028" transform="translate(-179.957 -335.286)" data-source="https://football-logos.cc"></path><path d="m427.453 437.657-1.6-.45c-52.145-15.59-90.053-16.78-100.433-16.78-.738 0-1.518 0-2.215.041h-.37c-.697-.042-1.435-.042-2.215-.042-10.338 0-48.247 1.19-100.433 16.78l-1.6.451-.41 1.477c-.493 1.805-12.309 43.94-5.703 92.351 3.897 28.555 13.497 53.212 28.431 73.356 18.831 25.19 46.155 43.242 81.192 53.58l.902.248.902-.247c29.622-8.739 53.786-22.975 71.838-42.34 3.323-3.57 6.441-7.343 9.395-11.241 14.975-20.103 24.575-44.801 28.473-73.356 6.605-48.37-5.21-90.546-5.744-92.351zm0 0" style="fill:none;stroke:#bd1c2b;stroke-width:.882239;stroke-linecap:butt;stroke-linejoin:miter;stroke-miterlimit:10;stroke-opacity:1" transform="translate(-179.957 -335.286)"></path><path d="m398.16 411.523 21.786 5.128c.41 1.272.86 2.544 1.312 3.857a447 447 0 0 0-23.098-6.113zm0-5.415 19.611 4.595c.084.163.123.286.164.451.37.943.697 1.887 1.067 2.831l-20.842-4.882zm0-5.047a425 425 0 0 1 17.355 4.062c.41.943.82 1.928 1.23 2.913l-18.585-4.35zm-3.2 12.595a138 138 0 0 0-5.62-1.23l-.084-.042h-.123a46.6 46.6 0 0 1-6.647-1.354 1.8 1.8 0 0 0-.37-.123c-.656-.205-1.353-.37-2.01-.616v-13.416c.657.288 1.354.534 2.01.82.37.124.78.287 1.19.452l.246.042.205.042a705 705 0 0 1 9.887 1.888c.452.084.862.204 1.313.286zm-31.262-30.441v18.092c-2.134-1.764-4.144-3.651-5.949-5.743a17.4 17.4 0 0 1-1.805-2.093c-.37-.41-.657-.82-1.026-1.272-.452-.615-.902-1.271-1.313-1.846l-.084-.084-.042-.084a24 24 0 0 0-1.846-2.174c0-.042 0-.084-.042-.084a60 60 0 0 0-1.56-1.6c-.86-.861-1.763-1.723-2.748-2.503v-15.713c5.21 3.077 10.134 7.344 14.4 12.513.616.738 1.19 1.477 1.764 2.257.084.084.205.204.246.327zm56.124 27.2c-.984-2.502-1.928-4.8-2.913-7.015-1.518-.41-3.035-.78-4.677-1.19-.042 0-.122 0-.204-.042l-.123-.042c-1.641-.369-3.323-.78-5.006-1.19l-.327-.084h-.164a133 133 0 0 0-4.841-1.107c-.084-.042-.246-.042-.37-.084-1.436-.328-2.913-.616-4.513-.985l-.205-.042h-.163c-.78-.204-1.56-.327-2.257-.492-3.282-.657-6.605-1.313-9.97-1.887l-.083-.042h-.084c-.616-.246-1.231-.493-2.093-.82l-.042-.043c-.042 0-.123 0-.164-.042-.697-.287-1.354-.615-2.01-.902v-.042h-.042a36 36 0 0 1-3.651-2.092c-.042 0-.084-.042-.164-.084a34 34 0 0 1-3.241-2.38l-.164-.164c-.493-.368-.984-.82-1.477-1.271l-.123-.084-.084-.123c-.493-.452-.902-.82-1.313-1.231l-.042-.042-.123-.123c-.41-.452-.861-.902-1.272-1.395l-.286-.328c-.452-.574-.862-1.025-1.19-1.518h-.042l-.042-.042q-.125-.184-.246-.37l-.084-.163c-.37-.493-.697-.943-1.026-1.354-.042-.042-.042-.084-.084-.123l-2.175-2.708a58 58 0 0 0-3.446-3.733.9.9 0 0 0-.205-.164c-.697-.78-1.559-1.559-2.42-2.339-1.149-1.026-2.216-1.928-3.323-2.748v-.042l-.084-.042c-.534-.411-1.108-.82-1.723-1.272a4 4 0 0 1-.493-.328l-.164-.123c-.41-.246-.78-.492-1.19-.78a7 7 0 0 1-.738-.45c-.41-.247-.78-.452-1.19-.698-.245-.164-.492-.287-.738-.452-.042 0-.084-.042-.164-.084-.042 0-.084-.042-.123-.084-.451-.246-.943-.492-1.477-.78-.084-.041-.123-.041-.164-.083-.533-.246-.943-.452-1.354-.657-.084-.042-.204-.084-.286-.122l-.164-.084c-.328-.123-.698-.328-1.108-.493a22 22 0 0 0-1.682-.616c-.574-.204-1.19-.451-2.01-.697l-.164-.084c-2.708-.902-6.318-1.97-10.257-2.708a11.42 11.42 0 0 1 3.652 8.41c0 3.57-1.6 6.77-4.144 8.904a7 7 0 0 1-.902.656c0 .042-.042.042-.084.084 3.118.452 6.44 1.19 9.723 2.42.493.205 1.067.452 1.6.698h.042l.084.042c.452.205.861.41 1.272.615l.084.084h.042c.37.205.82.452 1.23.657l.085.084c1.887 1.067 3.651 2.297 5.333 3.651l2.052 1.805c.697.698 1.435 1.436 2.092 2.134.533.656 1.108 1.313 1.682 2.092h.042l.042.042a26 26 0 0 0 1.395 1.929c.37.533.82 1.066 1.272 1.682.084.084.163.163.245.286.084.084.164.164.205.246l.123.123c.287.287.534.615.78.902.163.205.37.37.492.575l.123.123c.246.286.493.533.738.82.246.246.534.492.78.738.204.246.451.493.697.698.246.287.534.533.82.779.205.205.41.41.616.574.327.287.615.575.943.862.084.084.246.204.328.286l.163.164c.411.287.739.575 1.108.861l.123.084c.042.084.123.123.205.164.328.287.78.657 1.272.984.123.123.286.205.41.328l.287.164c.123.123.246.205.37.328.78.492 1.395.944 1.969 1.313l.738.451c.123.084.246.123.37.205l.123.123.205.084c.164.084.246.164.41.246q.492.307 1.108.615c.164.084.287.164.452.246l.084.084c.41.205.82.41 1.19.615.123.042.245.123.41.164l.042.042a63 63 0 0 0 4.144 1.846l.164.042c.123.042.246.123.327.164.411.123.862.288 1.272.452.123.042.287.084.452.164l.164.042c.37.123.779.245 1.19.37l.163.083.246.042c.41.164.861.287 1.272.411.042 0 .123 0 .205.042l.084.042h.042c13.826 2.585 27.898 5.99 41.806 10.093a221 221 0 0 0-4.308-12.76" style="fill:#28308c;fill-opacity:1;fill-rule:nonzero;stroke:none;stroke-width:10.5028" transform="translate(-179.957 -335.286)"></path><path d="M417.935 411.154a2.2 2.2 0 0 0-.164-.452l-19.61-4.595v2.995l20.841 4.882c-.37-.943-.697-1.887-1.067-2.83M415.515 405.123a425 425 0 0 0-17.355-4.062v2.626l18.585 4.349c-.41-.984-.82-1.97-1.23-2.913M419.946 416.651l-21.786-5.128v2.872a435 435 0 0 1 23.057 6.113c-.41-1.313-.86-2.585-1.271-3.857M361.688 380.63c-4.308-5.17-9.19-9.395-14.4-12.513v15.713c.983.82 1.886 1.641 2.748 2.462.534.533 1.026 1.066 1.559 1.64 0 0 .042.043.042.085a31 31 0 0 1 1.846 2.174l.042.084.084.084c.41.575.861 1.23 1.313 1.846.328.452.656.861 1.026 1.272a28 28 0 0 0 1.764 2.092c1.846 2.093 3.857 3.98 5.99 5.744V383.22c-.042-.122-.164-.245-.246-.327a48 48 0 0 0-1.764-2.257M383.76 398.23l-.246-.042-.205-.042c-.41-.163-.82-.327-1.19-.451-.656-.287-1.353-.534-2.01-.82v13.415c.657.246 1.354.411 2.01.616q.246.064.37.123a61 61 0 0 0 6.647 1.354h.122l.084.042c1.888.37 3.734.779 5.58 1.23v-13.251c-.41-.084-.82-.205-1.272-.287a703 703 0 0 0-9.887-1.887" style="fill:#ee4c21;fill-opacity:1;fill-rule:nonzero;stroke:none;stroke-width:10.5028" transform="translate(-179.957 -335.286)"></path><path d="M320.004 377.06c-5.374 0-9.764-4.39-9.764-9.723 0-5.374 4.39-9.764 9.764-9.764 5.334 0 9.683 4.39 9.683 9.764 0 5.334-4.35 9.724-9.683 9.724M448.87 545.065c-1.64-14.523-4.718-26.626-9.067-35.898a79 79 0 0 0-1.887-3.734 246 246 0 0 1-1.805 20.267c-4.02 29.54-13.99 55.14-29.54 76.023a143 143 0 0 1-9.805 11.734c-2.502 2.748-5.333 5.497-8.37 8.205-10.338 9.395-22.4 17.518-35.897 24.124l-.78.37-.164-.821-1.066-4.718-.042-.042v-.042l-17.847-185.974v-.042l-.697-40.042-.042-.534-.084-4.226v-.451l-.042-3.077-.042-.616.656-.084 2.503-.163 36.472-2.626v-12.636h-39.919v-2.75l.328-.204c6.728-4.103 10.75-11.282 10.75-19.2 0-12.268-9.97-22.36-22.237-22.483h-.246c-12.39 0-22.442 10.092-22.442 22.482 0 7.919 3.98 15.098 10.75 19.201l.286.205v2.749h-39.878v12.636l36.432 2.626 2.502.163.657.084v.616l-.042 3.077-.042.451-.084 4.226v.534l-.739 40.042v.042l-17.846 185.974v.123l-1.067 4.677-.205.82-.779-.37c-13.252-6.482-25.15-14.441-35.406-23.631-6.852-6.195-13.17-13.046-18.626-20.431-15.59-20.924-25.519-46.483-29.54-76.023a215 215 0 0 1-1.805-20.267 53 53 0 0 0-1.928 3.733c-4.062 8.657-6.974 19.775-8.739 33.027a72 72 0 0 1-.327 2.872q-.064.615-.123 1.23c-2.257 22.196 2.626 46.32 3.938 52.392l9.806-13.58.656-.902.493.984c.533 1.108 1.107 2.297 1.764 3.487 3.487 7.057 7.918 15.795 12.185 21.662 10.667 14.647 23.836 27.365 39.14 37.704 13.661 9.272 29.251 16.82 46.277 22.4l.123.042.084.042.78.534 1.148.738 12.596 8.206 12.636-8.206 1.149-.738.779-.534.042-.042.123-.042c17.067-5.58 32.616-13.128 46.278-22.4 15.303-10.339 28.473-23.057 39.14-37.704 4.307-5.867 8.697-14.646 12.225-21.662.616-1.23 1.19-2.38 1.765-3.487l.492-.984.616.902 9.805 13.58c1.354-6.195 6.4-31.098 3.816-53.622" style="fill:#fff;fill-opacity:1;fill-rule:nonzero;stroke:none;stroke-width:10.5028" transform="translate(-179.957 -335.286)"></path><path d="M320.004 378.866h-.042c-6.359 0-11.528-5.17-11.528-11.529 0-6.4 5.17-11.57 11.528-11.57l.246-8.533h-.20700000000000002c-11.405 0-20.677 9.272-20.677 20.678 0 7.261 3.733 13.867 9.887 17.641l1.23.738v5.621h-39.918v9.108l37.293 2.667 2.339.205-.042 1.887v.452l-.042 2.871v.493l-.084 4.226v.492l-.78 40.247v.205L291.28 641.642l-.205 2.174-.084 1.15-.123 1.681-.123 3.652c-.656-.287-1.272-.616-1.928-.903-23.713-11.118-42.996-26.544-57.52-46.073-15.836-21.292-25.97-47.262-30.031-77.253-.37-2.461-.616-4.882-.861-7.262-5.62 26.176 2.297 53.171 5.333 62.156l1.764 3.405c.575 1.108 1.15 2.298 1.764 3.487 3.488 7.016 7.878 15.673 12.021 21.416 10.585 14.483 23.59 27.037 38.73 37.294 13.497 9.149 28.964 16.615 45.867 22.195l.287.084.246.164.82.533 1.108.739 11.651 7.549M443.085 523.731c3.938 26.544-4.431 52.596-6.934 59.489l.615.82 7.385 10.216c1.846-9.518 5.088-30.114 2.913-48.945-.902-8-2.215-15.221-3.98-21.58" style="fill:#cfd1d1;fill-opacity:1;fill-rule:nonzero;stroke:none;stroke-width:10.5028" transform="translate(-179.957 -335.286)"></path><path d="m444.151 594.256-7.385-10.216-.615-.82-1.805-2.461c-.042.042-.042.123-.084.163l-1.723 3.447a55 55 0 0 0-1.764 3.487c-3.529 6.975-7.878 15.672-12.062 21.416-10.544 14.482-23.55 27.037-38.689 37.293-13.538 9.15-29.005 16.616-45.867 22.196l-.287.084-.328.163-.738.493-1.149.78-11.651 7.548-11.652-7.549-1.149-.738-.78-.534-.245-.163-.287-.084c-16.903-5.58-32.37-13.047-45.867-22.196-15.14-10.256-28.145-22.81-38.73-37.293-4.143-5.744-8.533-14.4-12.02-21.416-.616-1.19-1.19-2.38-1.806-3.487l-1.723-3.405c0-.084-.042-.123-.042-.164l-2.872 3.897-6.933 9.56c-1.805-9.314-5.006-29.212-3.077-47.756l.123-1.19c.084-.983.246-1.928.327-2.912.903-6.852 2.134-13.088 3.652-18.708v.084c.902-3.898 2.092-8.534 3.323-10.996-.123.944-.042 3.16.164 6.154q.369 3.57.861 7.139c4.062 29.99 14.195 56.002 30.032 77.253 14.523 19.53 33.806 34.955 57.52 46.073.656.288 1.271.616 1.927.903l.123-3.652.123-1.682.084-1.149.205-2.174 17.929-186.877v-.205l.738-40.247.042-.492.084-4.226v-.493l.042-2.872v-.492l.042-1.846-2.338-.205-37.294-2.667v-9.108h39.92v-5.62l-1.231-.698c-6.155-3.815-9.888-10.42-9.888-17.682 0-11.406 9.272-20.678 20.677-20.678h.207c11.283.123 20.473 9.395 20.473 20.678 0 7.261-3.693 13.867-9.888 17.682l-1.23.697v5.621h39.919v9.108l-37.294 2.667-2.297.205v1.846l.042.492.042 2.872v.493l.042 4.226.042.492.738 40.247v.084l.042.123 17.888 186.877.205 2.174.123 1.15.084 1.681.123 3.61a89 89 0 0 0 1.928-.86c18.626-8.74 34.585-20.145 47.55-34.094 3.528-3.815 6.892-7.795 9.97-11.98 15.836-21.251 25.928-47.262 30.03-77.253.247-1.682.452-3.323.657-5.005.287-4.185.452-7.262.328-8.493 1.23 2.544 2.502 7.344 3.405 11.283 0-.042 0-.084-.042-.123 1.764 6.359 3.077 13.58 3.98 21.58 2.174 18.831-1.108 39.426-2.913 48.945m5.374-49.232c-1.436-12.678-4.184-25.642-9.108-36.145-.697-1.518-1.477-2.954-2.256-4.349-.287-.492-.534-.943-.82-1.436-.287 7.262-.862 14.81-1.888 22.524-4.02 29.416-13.949 54.894-29.416 75.694-3.036 4.062-6.318 8-9.764 11.693-2.626 2.83-5.416 5.538-8.329 8.164-10.338 9.395-22.318 17.437-35.734 24l-1.108-4.717-17.846-185.933-.698-40.083v-.493l-.133-4.23v-.493l-.042-3.036 2.543-.204 37.047-2.667V389.41h-39.878v-1.723a23.2 23.2 0 0 0 11.037-19.775c0-12.719-10.257-23.016-22.852-23.18h-.287c-12.76 0-23.14 10.38-23.14 23.18 0 8.37 4.432 15.713 11.078 19.775v1.723h-39.878v13.908l37.047 2.667 2.544.204-.084 3.036v.493l-.084 4.226-.042.492-.697 40.083L288.9 640.493l-1.067 4.718c-13.21-6.482-25.026-14.359-35.283-23.549-6.851-6.195-13.087-12.964-18.585-20.35-15.467-20.8-25.354-46.277-29.375-75.693-1.067-7.714-1.641-15.262-1.928-22.524-.246.451-.534.943-.82 1.436-.78 1.395-1.56 2.83-2.257 4.349-4.554 9.723-7.22 21.498-8.78 33.231a38 38 0 0 1-.37 2.913c-.041.41-.083.82-.083 1.231-2.667 25.888 4.266 53.991 4.266 53.991l10.667-14.77c3.898 7.714 8.985 18.38 13.99 25.232 10.75 14.729 23.96 27.488 39.345 37.909 13.744 9.313 29.334 16.862 46.442 22.482l.82.493 1.108.78 13.006 8.41.287-.164 12.718-8.247 1.149-.779.779-.492c17.15-5.621 32.74-13.17 46.442-22.483 15.385-10.42 28.637-23.18 39.345-37.909 5.005-6.851 10.092-17.518 14.031-25.231l10.626 14.77s7.18-29.006 4.144-55.223m-129.563-168.62c-4.923 0-9.026-4.102-9.026-9.066 0-5.006 4.103-9.067 9.026-9.108 5.006.042 9.067 4.102 9.067 9.108 0 4.964-4.061 9.067-9.067 9.067m0-20.637c-6.359 0-11.528 5.17-11.528 11.57 0 6.359 5.17 11.528 11.528 11.528h.042c6.318 0 11.488-5.17 11.488-11.528 0-6.4-5.17-11.57-11.529-11.57" style="fill:#28308c;fill-opacity:1;fill-rule:nonzero;stroke:none;stroke-width:10.5028" transform="translate(-179.957 -335.286)"></path><path d="M222.32 410.908c-.328.902-.657 1.805-.943 2.748l21.087-4.964v-3.077l-19.898 4.718c-.042.164-.163.37-.245.575M223.633 407.626l18.83-4.431v-2.667c-5.866 1.272-11.733 2.626-17.6 4.144q-.615 1.415-1.23 2.953M219.038 420.262a472 472 0 0 1 23.426-6.236v-2.913l-22.072 5.21c-.452 1.313-.903 2.585-1.354 3.939M256.536 397.78l-.205.041c-3.118.534-6.195 1.149-9.19 1.764h-.123c-.41.123-.86.205-1.271.287v13.416a286 286 0 0 1 6.318-1.395h.084l.123-.042c1.6-.246 3.24-.575 4.84-.984 1.232-.328 2.421-.698 3.611-1.067v-13.662a38 38 0 0 1-3.98 1.56M277.542 381.697c-.084.084-.123.163-.164.245v18.544c2.995-2.502 5.744-5.292 8.164-8.451a77 77 0 0 0 1.97-2.708l.041-.084.123-.084a17 17 0 0 1 1.477-1.805 46 46 0 0 1 4.8-4.595v-15.836c-5.99 3.528-11.651 8.615-16.41 14.77M325.338 360.568c-2.298-.369-4.472-.575-6.605-.575-1.19 0-2.339.084-3.57.164-.492.084-.984.123-1.518.164-.943.164-1.969.287-2.995.493-.084 0-.163.042-.204.042a3.3 3.3 0 0 0-.657.163v14.032a.8.8 0 0 1 .287-.084c.37-.084.697-.164 1.067-.205 1.19-.246 2.42-.452 3.692-.534a30 30 0 0 1 3.323-.205h1.4769999999999999c1.723.042 3.446.205 5.17.452a8.6 8.6 0 0 0 3.774-7.139c0-2.748-1.272-5.21-3.241-6.769" style="fill:#ee4c21;fill-opacity:1;fill-rule:nonzero;stroke:none;stroke-width:10.5028" transform="translate(-179.957 -335.286)"></path><path d="M324.805 374.476a44 44 0 0 0-5.21-.452h-1.437a31 31 0 0 0-3.323.205c-1.272.084-2.461.288-3.692.534-.37.042-.698.123-1.067.204a.7.7 0 0 0-.287.084v-14.03c.205-.085.452-.124.657-.165.042 0 .123-.042.205-.042 1.026-.204 2.051-.327 2.995-.492a19 19 0 0 0 1.518-.164c1.23-.084 2.42-.164 3.569-.164 2.133 0 4.308.205 6.605.575a8.66 8.66 0 0 1 3.282 6.77c0 2.953-1.518 5.579-3.815 7.138m-30.811 8.287c-1.723 1.395-3.364 2.913-4.8 4.595-.493.534-1.026 1.108-1.518 1.805l-.084.084-.084.123c-.657.902-1.313 1.805-1.97 2.667-2.38 3.16-5.169 5.949-8.164 8.451v-18.544a.9.9 0 0 1 .164-.245c4.76-6.154 10.42-11.242 16.452-14.77zm-33.273 27.037c-1.19.37-2.38.738-3.61 1.066-1.6.411-3.241.739-4.841.984l-.123.042h-.084c-2.093.452-4.226.903-6.318 1.395v-13.415c.41-.084.82-.164 1.271-.287h.123c2.995-.616 6.113-1.23 9.19-1.764l.205-.042.205-.084a38 38 0 0 0 3.98-1.56zm-18.257 4.226c-7.795 1.846-15.59 3.938-23.426 6.236.452-1.354.902-2.667 1.313-3.939l22.113-5.21zm0-5.334-21.087 4.964c.286-.943.615-1.846.943-2.749.084-.204.204-.41.245-.574l19.898-4.677zm0-5.498-18.831 4.431q.615-1.539 1.23-2.954a389 389 0 0 1 17.601-4.102zm77.5-47.426c-2.75 0-5.293.984-7.303 2.625-.78.123-1.56.246-2.38.41h-.123c-.084.043-.084.043-.163.043-.084.042-.164.042-.205.042-.82.164-1.641.369-2.462.574a8 8 0 0 1-.533.123l-.205.084c-.697.164-1.313.328-1.928.534-.042 0-.123.042-.205.042-.042 0-.084.042-.123.042-.205.084-.41.123-.575.205l-.286.084-.205.084c-.205.042-.41.123-.616.164-.697.245-1.436.492-2.133.738-.534.205-1.026.41-1.641.656-.246.123-.534.205-.82.328h-.042l-.084.084c-.205.084-.37.164-.575.246-.41.164-.78.37-1.149.533l-.204.123-.123.042c-.411.205-.78.41-1.272.657h-.042l-.042.042a57 57 0 0 0-6.565 4.226v.042h-.042l-.084.042a87 87 0 0 0-2.01 1.6l-.042.084a50 50 0 0 0-3.774 3.405c-.042.042-.084.084-.123.084l-.123.123c-.575.574-1.108 1.148-1.641 1.682l-.123.123c-.575.656-1.19 1.313-1.724 1.928-.042.084-.084.123-.122.164l-.084.084-.164.246-.205.204c-.657.739-1.19 1.436-1.764 2.134-.287.41-.616.861-.902 1.272-.37.492-.698.984-1.067 1.518v.042l-.042.042c-.37.41-.738.86-1.19 1.395l-.084.084-.246.245c-.41.493-.82.903-1.19 1.313l-.083.042c-.37.41-.82.82-1.313 1.272-.084.084-.205.164-.287.287-.902.82-1.887 1.6-2.872 2.338l-.164.123-.163.084a31 31 0 0 1-3.119 2.052l-.163.084-.123.084c-.657.368-1.19.656-1.682.902q-.923.492-2.093.984c-.042.042-.084.042-.123.084-.123.042-.205.084-.327.123 0 0-.084.042-.123.042l-.084.042q-1.23.554-2.339.861l-.123.042h-.042c-3.036.575-6.113 1.149-9.23 1.805-.821.164-1.6.328-2.38.493h-.164l-.042.042c-1.56.287-3.2.656-4.76.984a5 5 0 0 1-.45.123c-1.601.37-3.283.738-4.842 1.108l-.575.123c-1.805.41-3.405.779-4.964 1.19-.123 0-.205.041-.286.041l-.205.042c-1.764.452-3.241.82-4.677 1.19-1.026 2.339-2.01 4.8-2.913 7.262-1.6 4.103-3.036 8.37-4.39 12.76 9.23-2.709 18.544-5.088 27.734-7.18a341 341 0 0 1 13.457-2.79l.084-.042.205-.042c.533-.164 1.026-.287 1.6-.452.37-.123.779-.246 1.148-.369h.042l.084-.042c.78-.245 1.477-.492 2.216-.738l.123-.042.246-.123c.86-.328 1.558-.574 2.215-.861.084-.042.123-.042.164-.084l.084-.042c.41-.164.82-.369 1.395-.616a4 4 0 0 0 .451-.204c.452-.205.902-.411 1.272-.616.123-.084.246-.164.41-.205l.124-.084c.615-.37 1.272-.697 1.928-1.066l.246-.164c.205-.084.41-.205.574-.287.287-.205.534-.37.78-.533l.245-.123c.123-.084.287-.164.411-.287.084 0 .084-.042.123-.042l.123-.123c.41-.246.78-.493 1.23-.78.085-.083.205-.163.287-.245h.042c.575-.41 1.027-.78 1.436-1.067l.042-.042c.084-.042.084-.042.123-.084.164-.123.287-.246.452-.368l.246-.164c.286-.246.574-.452.86-.698l.74-.615c.286-.246.574-.493.82-.738.245-.205.451-.37.656-.575a25 25 0 0 0 1.477-1.354l.287-.287c.327-.286.615-.615.902-.943.164-.164.37-.41.574-.574.246-.287.493-.575.739-.82.245-.287.533-.575.779-.903l.123-.164c.123-.123.287-.286.41-.451.452-.534.862-1.067 1.272-1.6.698-.861 1.354-1.805 2.052-2.79l.084-.084c.492-.657.943-1.23 1.395-1.682.41-.452.779-.861 1.148-1.23l.123-.085c.37-.41.82-.861 1.272-1.272a39.6 39.6 0 0 1 4.841-3.815l.042-.042c.37-.246.78-.493 1.19-.739.084-.042.084-.084.123-.084.41-.245.82-.492 1.19-.697l.123-.084c.41-.246.82-.452 1.272-.656l.084-.042v-.042h.042c.533-.246 1.026-.493 1.64-.78a2.2 2.2 0 0 0 .452-.164c.41-.163.78-.327 1.231-.492.205-.084.452-.164.656-.246.287-.123.616-.205.944-.328l.204-.084c.205-.042.452-.123.657-.204.164-.042.287-.084.451-.123l.164-.042.123-.042q.431-.125.861-.246l.328-.084c.246-.042.493-.123.698-.164.86-.205 1.682-.328 2.502-.493 1.97 1.518 4.349 2.38 6.975 2.421h.042c2.38-.042 4.636-.78 6.482-2.051.287-.205.574-.411.861-.657 2.544-2.092 4.144-5.333 4.144-8.862 0-6.359-5.17-11.57-11.529-11.57" style="fill:#28308c;fill-opacity:1;fill-rule:nonzero;stroke:none;stroke-width:10.5028" transform="translate(-179.957 -335.286)"></path><path d="m432.664 430.765-.984-3.488-.616-2.215-2.297-.697-3.529-1.027c-53.211-15.877-92.105-17.108-102.73-17.108h-4.801c-10.667 0-49.519 1.231-102.772 17.108l-3.528 1.027-2.256.697-.616 2.215-1.026 3.488c-.493 1.846-12.76 45.621-5.949 95.633 4.103 29.908 14.195 55.837 29.99 77.09 19.858 26.625 48.576 45.62 85.336 56.493l1.97.533 1.271.369 1.231-.369 1.928-.533c31.017-9.15 56.33-24.124 75.408-44.555a154 154 0 0 0 9.97-11.939c15.794-21.252 25.887-47.18 29.99-77.09 6.81-50.01-5.457-93.786-5.99-95.632" style="fill:#000c9e;fill-opacity:1;fill-rule:nonzero;stroke:none;stroke-width:10.5028" transform="translate(-179.957 -335.286)"></path><path d="m424.5 431.503-1.56-.492c-52.186-15.55-90.094-16.74-100.433-16.74h-4.801c-10.38 0-48.288 1.19-100.433 16.74l-1.6.492-.41 1.477c-.534 1.764-12.35 43.94-5.703 92.31 3.856 28.555 13.456 53.253 28.472 73.397 18.75 25.19 46.073 43.201 81.151 53.54l.902.288.902-.288c29.58-8.698 53.745-22.934 71.797-42.299a136 136 0 0 0 9.395-11.241c15.016-20.144 24.575-44.842 28.473-73.397 6.605-48.33-5.21-90.546-5.703-92.31" style="fill:#2b308a;fill-opacity:1;fill-rule:nonzero;stroke:none;stroke-width:10.5028" transform="translate(-179.957 -335.286)"></path><path d="M435.29 525.947c-4.021 29.334-13.868 54.77-29.335 75.53a139 139 0 0 1-9.723 11.651c-18.626 19.98-43.488 34.668-73.93 43.612l-1.928.574-.246.084-.328-.084-1.928-.574c-36.104-10.626-64.248-29.211-83.654-55.263-15.426-20.76-25.313-46.196-29.334-75.53-6.728-49.356 5.375-92.434 5.867-94.239l.984-3.487.123-.493.534-.123 3.528-1.066c52.801-15.754 91.243-16.985 101.787-16.985.78 0 1.56.042 2.339.042h.123c.78-.042 1.518-.042 2.338-.042 10.544 0 48.986 1.23 101.788 16.985l3.487 1.066.533.123.123.493 1.027 3.487c.492 1.805 12.554 44.924 5.825 94.239m-2.625-95.182-.985-3.488-.615-2.215-2.298-.697-3.528-1.027c-53.211-15.877-92.064-17.108-102.73-17.108h-4.8c-10.668 0-49.52 1.231-102.773 17.108l-3.528 1.027-2.257.697-.615 2.215-1.026 3.488c-.493 1.846-12.76 45.621-5.949 95.633 4.103 29.908 14.195 55.837 29.99 77.09 19.857 26.625 48.576 45.62 85.336 56.452l1.97.615 1.271.37 1.231-.37 1.928-.615c31.016-9.15 56.33-24.083 75.407-44.514a154 154 0 0 0 9.97-11.939c15.795-21.252 25.888-47.18 29.99-77.09 6.81-50.01-5.456-93.786-5.99-95.632" style="fill:#28308c;fill-opacity:1;fill-rule:nonzero;stroke:none;stroke-width:10.5028" transform="translate(-179.957 -335.286)"></path><path d="M430.653 525.29c-3.897 28.555-13.456 53.253-28.472 73.397a136 136 0 0 1-9.395 11.241c-18.052 19.365-42.217 33.601-71.797 42.299l-.902.288-.902-.288c-35.078-10.339-62.402-28.35-81.151-53.54-15.016-20.144-24.616-44.842-28.473-73.397-6.646-48.37 5.17-90.546 5.703-92.31l.41-1.477 1.6-.452c52.145-15.59 90.054-16.78 100.434-16.78h2.215l.042.042h.246l.084-.042h2.216c10.338 0 48.247 1.19 100.433 16.78l1.56.452.45 1.477c.493 1.764 12.309 43.98 5.703 92.31m-2.215-97.07-.123-.492-.493-.123-3.528-1.066c-52.76-15.754-91.243-16.985-101.787-16.985-.82 0-1.56.042-2.339.042h-.123c-.779 0-1.559-.042-2.338-.042-10.544 0-48.986 1.23-101.787 16.985l-3.529 1.066-.533.123-.123.493-.984 3.487c-.534 1.805-12.596 44.883-5.867 94.239 4.02 29.334 13.908 54.77 29.334 75.53 19.406 26.052 47.59 44.637 83.653 55.263l1.929.574.286.084.287-.084 1.97-.574c30.4-8.944 55.262-23.632 73.888-43.612a156 156 0 0 0 9.724-11.651c15.467-20.76 25.354-46.196 29.334-75.53 6.728-49.315-5.334-92.434-5.826-94.239" style="fill:#fff;fill-opacity:1;fill-rule:nonzero;stroke:none;stroke-width:10.5028" transform="translate(-179.957 -335.286)"></path><path d="M304.865 395.687h-2.338v1.559h2.338zm.452 2.83h-2.79v2.093h-1.395v-6.154h4.185l.984.902v2.216M311.02 395.687h-2.462v3.651h2.462zm.41 4.923h-3.282l-.984-.902v-4.35l.984-.901h3.282l1.026.902v4.349M317.297 395.687h-2.42v1.19h2.42zm0 4.923v-2.503h-2.42v2.503h-1.396v-6.154h4.267l.943.861v1.641l-.574.493.574.574v2.585M324.23 395.687h-1.19v4.923h-1.395v-4.923h-2.256l1.149-1.231h4.84M333.01 395.687h-2.626v1.19h3.241l-1.107 1.271h-2.134v2.462h-1.395v-6.154h5.129M333.174 400.569h1.354v-1.23h-1.354zM340.23 400.61h-3.569l-1.026-.902v-4.35l1.026-.86h3.529l-.985 1.23h-2.174v3.61h2.297M340.723 400.569h1.313v-1.23h-1.313zM294.404 662.36l-3.364-1.64 2.666-5.457 4.185 2.01-1.23.493-2.38-1.15-.657 1.314 2.831 1.395-1.272.492-2.01-.984-.698 1.436 3.16 1.6zm-4.472-2.215-2.995-1.436-.452-1.19 1.929-3.938 1.23-.328 2.913 1.395.37 1.313-3.57-1.764-1.846 3.692 3.652 1.764zm-5.62-2.749-.575-5.128-1.929 3.897-.902-.451 2.503-5.129 1.066.042.616 5.129 1.723-3.529 1.149.084-2.749 5.539zm-5.457-2.667 2.666-5.456.984.451-2.666 5.498zm.82-5.292-2.995-1.477-.657 1.354 2.544 1.23.41 1.231-.82 1.6-1.19.452-3.938-1.97 1.19-.492 3.036 1.477.697-1.477-2.543-1.271-.411-1.067.78-1.641 1.19-.37 4.02 1.97M362.344 654.565l-.984.452-.084-5.662-3.323 1.518.204-1.107 3.693-1.683.37.82zm-5.17-.738-2.174.984.82 1.723 2.175-.984zm-.492-2.339-2.626 1.231.575 1.272 3.159-1.436 1.559 3.364-4.144 1.929-2.544-5.539 4.226-1.928zm-5.539 2.544-2.174 1.026.78 1.723 2.174-.984zm-1.107 6.236.164-1.108 2.707-1.271-.615-1.272-3.118 1.477-1.6-3.447 4.143-1.887 2.544 5.498zm-1.929.861-1.969-4.225-1.313.574.698-1.846.984-.493 2.543 5.539" style="fill:#28308c;fill-opacity:1;fill-rule:nonzero;stroke:none;stroke-width:10.5028" transform="translate(-179.957 -335.286)"></path><path d="M376.375 625.806c-53.827-18.75-111.675-1.272-112.29-1.067 15.55 12.144 34.298 21.457 55.96 27.857l.944.287.902-.287c20.964-6.195 39.18-15.18 54.483-26.79" style="fill:#2b308a;fill-opacity:1;fill-rule:nonzero;stroke:none;stroke-width:10.5028" transform="translate(-179.957 -335.286)"></path><path d="M276.393 629.703a158 158 0 0 0 12.595 7.303V623.59c-4.267.616-8.451 1.395-12.595 2.257M301.583 642.914a163 163 0 0 0 12.596 4.759v-26.298c-4.267.123-8.452.37-12.596.738M326.733 648.083a218 218 0 0 0 12.636-4.636v-21.334c-4.185-.37-8.37-.615-12.636-.738M351.923 623.55v14.112a171 171 0 0 0 12.636-7.18v-4.717c-4.184-.862-8.37-1.6-12.636-2.216" style="fill:#ee4c21;fill-opacity:1;fill-rule:nonzero;stroke:none;stroke-width:10.5028" transform="translate(-179.957 -335.286)"></path><path d="M340.764 646.032c0 11.405-9.272 20.677-20.637 20.677-11.446 0-20.718-9.272-20.718-20.677 0-11.406 9.272-20.678 20.718-20.678 11.365 0 20.637 9.272 20.637 20.678" style="fill:#28308c;fill-opacity:1;fill-rule:evenodd;stroke:none;stroke-width:10.5028" transform="translate(-179.957 -335.286)"></path><path d="M329.523 646.893c-1.436-1.764-4.595-2.256-5.457-4.759-.656-1.887.37-4.308-1.026-6.277-.084 2.339-.697 4.103-.943 6.277-3.405 2.257-7.877 5.375-12.226 1.97 1.149 1.887 3.2 2.83 5.005 4.02.697 2.462 1.518 4.841 2.216 7.262a33 33 0 0 1-2.954 4.02c2.01-.697 3.2-2.256 4.677-3.528 2.133.37 4.595.41 6.974.493 1.231.984 1.928 2.461 3.241 3.282-.41-1.6-1.272-2.708-1.723-4.267.984-2.051 1.846-4.308 2.708-6.523 1.764-.78 4.308-2.174 4.718-3.487-1.354.86-3.2 1.313-5.21 1.518m4.225-12.267c.41 1.026 1.19 1.805 1.723 2.748.246 2.831-.286 4.719 0 7.262.411 2.79 2.544 5.252 2.503 7.262 0 2.872-2.749 4.841-4.226 7.262-4.349-.37-5.702 4.02-8.656 5.251-2.749 1.067-5.334.37-9.231 0-1.313-4.595-5.867-5.908-9.724-8.041-.204-.984-.902-1.56-.943-2.749-.82 1.067.41 2.257.246 3.528-2.215-2.584-3.446-6.236-3.733-10.749 2.338.084 2.092 2.831 2.707 4.718.616-.82.123-2.748.246-3.98 1.436-1.066 2.79-2.215 3.98-3.528.205-3.815-.861-8.902 2.01-10.01-1.477 0-2.38 2.626-5.457 1.764 2.585-3.856 6.606-6.359 11.652-7.754.042 1.846-2.626 3.16-3.938 4.472 3.897-1.887 7.18 1.477 10.133 2.79 2.749-.943 5.95-4.554 8.698-1.764.164-1.231-2.585-1.723-2.708-3.488 3.036 1.6 5.334 3.98 7.22 6.729-.738.286-1.435-1.6-2.502-1.723" style="fill:#fff;fill-opacity:1;fill-rule:evenodd;stroke:none;stroke-width:10.5028" transform="translate(-179.957 -335.286)"></path><path d="M321.866 414.277c-8.508 3.988-16.862 10.544-16.431 21.124-2.093 1.23-14.113 6.354-17.847 7.954-3.651 1.559-12.303 5.948-14.108 13.538-4.185 2.913-20.641 7.795-21.462 8.247-4.02 1.64-8.651 4.184-13 10.092-.084 4.472.37 15.314 4.554 22.862 1.969 3.898 4.548 7.211 5.861 7.54 1.067 1.681 8.134 9.446 12.647 6.369 1.805-2.052-.416-5.34.569-6.077.41-.246.738.076.739.076 0 0 3.164 10.514 13.215 12.647-.451 3.036.154 7.662.154 7.662s.042 1.446-.738 2.184c-1.6-1.025-4.636-3.17-5.047-4.03-.738-.205-.523.246-.523.246s-.667 2.015-.215 4.723c-2.093-2.749-4.139-5.493-4.139-5.493s-.327-.282-.615.046c-.287.328-3.852 4.426-3.77 14.6-3.282 4.432-2.338 6.478-2.338 6.478s-.052 1.57 3.723 3.292c2.544 2.544 5.836 8.365 6 13.124 2.75 1.395 5.282 1.354 9.385 11.692 1.97-7.18 5.139-7.754 5.139-7.754s4.549 6.195 3.277 13.17c5.826-.042 10.416-9.8 10.416-9.8s2.056-10.924 5.707-13.631c.657 3.815-2.83 25.564-8.738 32.662 3.323.574 4.307 0 4.307 0s-6.118 14.975-8.169 27.324c-.534 3.282-1.144 1.928-.323 2.954 3.437 4.242 52.127 3.155 89.987 3.707 4.505-3.728 8.783-7.657 12.708-11.877a136 136 0 0 0 9.385-11.246c15.016-20.144 24.58-44.791 28.477-73.387 6.606-48.33-5.215-90.546-5.707-92.31l-.447-1.477-1.553-.461c-52.186-15.59-90.095-16.77-100.434-16.77z" style="clip-rule:nonzero;fill:#fff;fill-opacity:1;fill-rule:nonzero;stroke:none;stroke-width:10.5028" transform="translate(-179.957 -335.286)"></path><path d="M371.083 486.187s-7.01 9.236-11.77 12.107c2.749 5.662 6.636 12.427 18.74 21.986-14.073-3.734-24.279-18.785-24.279-18.785l-9.6 5.661s1.185 8.2 4.754 18.54c-2.174-2.503-5.251-8.032-8.246-17.14-2.913.902-6.4 1.8-6.4 1.8s2.261 15.14-15.093 38.524c-3.487-.943-7.226-2.046-10.016 2.508-1.395 17.724-6.98 33.268-8.661 37.617 1.23-.862 4.564-3.37 6.492-6.077-2.626 6.194-3.949 8.21-8.831 21.83-3.077 8.575-3.692 13.088-3.692 15.263.615-.944 9.108-15.421 17.354-25.309 7.18-10.502 9.282-16.708 13.262-28.154.492 3.897 1.098 8.246.277 12.062 4.143-4.8 7.426-10.503 12.062-24.247 4.8 24.165-15.303 39.437-29.786 56.217 0 0 9.19-1.364 27.078-5.262 14.318-5.21 21.708-17.262 21.708-17.262s-1.359 15.38 2.662 20.631c.451.042 3.287-7.882 3.246-7.307 3.585 4.188 13.605 10.542 25.724 13.246 1.596-1.551 3.213-3.084 4.723-4.708.5-.536.97-1.1 1.462-1.646-1.785-2.396-2.986-5.113-3.062-8.277 1.666 2.064 3.657 3.717 5.785 5.17a135 135 0 0 0 5.2-6.493c11.144-14.95 19.274-32.392 24.324-52.079-16.238-5.953-29.455-20.29-35.155-28.123-3.241-4.472-7.667-10.057-20.262-32.293M328.143 414.462c-5.021 1.735-9.612 4.186-12.985 7.692-8 7.467-6.846 13.539-6.846 13.539s5.456 3.775 19.693.984c7.261-9.066 13.954-11.569 13.954-11.569s-5.667 5.005-5.462 11.446c6.4-1.066 21.78-2.056 30.355 4.262 4.577-5.835 9.068-12.935 24.816-17.816-10.42-2.298-19.863-4.004-28.324-5.246a56 56 0 0 0-4.492 2.877c-.112-1.335.136-2.448.507-3.462-14.539-1.978-24.538-2.533-31.216-2.707" style="clip-rule:nonzero;fill:#ab1926;fill-opacity:1;fill-rule:nonzero;stroke:none;stroke-width:10.5028" transform="translate(-179.957 -335.286)"></path><path d="M357.682 416.908c-5.873 4.606-8.776 12.871-7.323 15.739 3.57-.123 6.616.784 6.616.784 4.2-6.942 9.157-11.448 13.923-14.554-1.645-.276-3.053-.433-4.63-.677-8.346 4.525-11.14 8.831-11.14 8.831s-.18-4.566 3.231-10.016c-.213-.028-.465-.08-.677-.107" style="clip-rule:nonzero;fill:#ee4c21;fill-opacity:1;fill-rule:nonzero;stroke:none;stroke-width:10.5028" transform="translate(-179.957 -335.286)" data-source="https://football-logos.cc"></path><path d="M383.678 452.099s-14.688-4.39-32.74-2.667c3.529-2.585 5.498-3.98 13.54-5.58-10.052-6.318-21.95-5.005-37.95-3.856-15.96 1.148-17.97-2.462-17.97-2.462s-3.323 1.805-17.929 8.041c-14.564 6.277-13.251 13.375-13.251 13.375s-.328 1.149-10.872 5.046c-16.534 5.416-17.232 7.344-22.975 12.39-1.272 12.39 5.702 22.73 5.702 22.73s.82 1.6 2.544 1.681c.984 5.95 8.37 10.339 7.344 7.18-.984-3.118.41-6.852.41-6.852s3.036-.533 6.4.123c2.257 10.913 8.411 12.021 9.724 12.308 1.272.328-2.995-6.728-2.954-11.24 17.067-5.95 19.2 5.989 19.2 6.03-.041-.164-4.964.452-5.415.615-1.805.657-3.323 2.339-4.267 3.939-1.026 1.682-1.477 3.651-1.682 5.62-.123 1.724-.042 3.447.042 5.17.123 1.23.328 2.503.123 3.692-.533 3.488-.902 6.195-2.051 7.262-1.805-.042-3.364-4.144-5.088-4.554-.615.984-.204 6.688-.204 6.688s-.78-.37-3.775-.78c-1.23-1.108-2.174-6.318-3.282-6.113-1.108.246-1.723 8.041-.123 10.708-3.2.41-2.708 3.118-2.708 3.118s.411.739 2.544 1.887c5.375 4.924 6.564 14.36 6.564 14.36s2.872.615 6.113 6.892c.944-4.636 4.841-8.533 4.841-8.533s6.031 6.44 6.278 16.164c5.333-8.697 6.892-14.934 6.892-14.934s.943-6.03 5.046-10.708c5.826-6.892 14.893-5.21 14.893-5.21s14.482-18.585 13.21-36.021c14.155-3.939 17.437-6.975 24.986-12.185 16.41-11.406 28.842-43.324 28.842-43.324" style="clip-rule:nonzero;fill:#ab1926;fill-opacity:1;fill-rule:nonzero;stroke:none;stroke-width:10.5028" transform="translate(-179.957 -335.286)"></path><path d="M356.436 478.397c-3.446-.164-14.031-2.626-17.518-7.344 2.666-7.59 7.097-11.283 9.641-13.826-3.57.41-9.149.41-10.831.205.943-7.303 7.057-11.406 7.057-11.406s-5.293-1.559-19.652-.246c-9.15.82-13.99-.574-16.329-1.723-13.867 3.693-20.267 9.313-22.565 11.816.205-.084.411-.164.575-.246.533-.245 1.23-.492 2.051-.779 1.765-.575 3.282-.78 4.144-.738a17.7 17.7 0 0 1 3.323.042c-5.251 2.092-8.328 4.8-8.328 4.8s1.313 2.256 1.764 4.964c-.575-.164-1.23-.328-1.846-.493v.042c-.123-.042-.205-.084-.37-.123-.697-.163-1.354-.327-1.928-.451-2.831-.452-5.375-.084-5.375-.084s-3.692 1.354-8.615 2.954c-6.934 2.42-15.016 7.097-15.55 7.426 1.477.042 2.75.327 3.939.656 3.118.82 9.067 2.667 9.56 5.087-.411 3.406-.616 3.816-.616 3.816s-4.267-.657-5.744-.246c-1.477.41-5.457 1.97-8.246 4.759-.452.534-.657.738-.657.738l-2.502-1.148s-.903 5.251 3.569 10.626c.82-.164 1.723-.246 2.585-.246 10.051-.861 11.774-1.108 16.37-4.226 4.184-2.79 9.435-5.374 16.615-2.83-5.128 1.886-8.123 5.25-8.123 5.25s2.83-.738 8.123 0a9.5 9.5 0 0 0-3.856 2.75c1.969.163 4.307.41 6.728.82a27 27 0 0 1-1.928 1.313c1.969 2.871 11.692 18.544-3.364 31.877a30.5 30.5 0 0 1 4.061-.86c-2.667 2.994-4.595 2.83-7.63 4.06-.247.085-.453.165-.616.206.902 3.282-1.518 7.261-13.334 5.456 2.092 4.718 4.923 10.339 5.703 13.047 1.559-1.272 2.913-2.995 7.795-4.677 2.42 1.723 4.266 3.815 5.456 5.415 1.395-3.528 7.385-16.328 22.278-17.518.451-.616 1.518-2.339 2.913-4.76-1.6-.163-3.857-.41-5.006-.533 4.103-3.938 8.452-9.149 10.873-12.43 1.887-5.786 2.912-12.063 1.312-17.52 1.395-.41 3.242-.615 6.975-1.64 20.103-4.308 28.678-19.078 31.18-22.647-.327.123-2.708.615-4.061.615" style="clip-rule:nonzero;fill:#fff;fill-opacity:1;fill-rule:nonzero;stroke:none;stroke-width:10.5028" transform="translate(-179.957 -335.286)"></path><path d="M284.516 549.414c2.052 1.436 3.652 3.159 4.841 4.595v.042c.164.205.328.41.493.574a1 1 0 0 0 .123.205c1.395-3.528 7.385-16.328 22.277-17.518.452-.616 1.518-2.339 2.913-4.76-1.6-.163-3.856-.41-5.005-.533 4.103-3.939 8.452-9.149 10.872-12.431 1.887-5.785 2.913-12.062 1.313-17.518.123-.042.205-.084.37-.123 1.272-.328 3.036-.534 6.195-1.395-.123-.246-1.067-2.134-1.805-3.282 1.353-.534 2.215-.903 2.215-.903l-.41-.943s-.698-.902-1.067-1.477c-.328-.574-2.667-1.477-3.16-1.682-.492-.246-3.733-3.897-4.39-4.677-.697-.78-4.307-2.256-5.005-2.749-.697-.492-2.83-.574-3.897-.86-1.067-.288-1.97.369-1.97.369l.862 1.395 5.005 7.507-.861-.084-4.841-1.271-2.79.984 4.636 8.615c-3.323-.779-5.908-2.38-5.908-2.38s6.975 4.76 6.441 13.047c.37 9.108-10.913 21.211-10.913 21.211s3.323.328 5.088.369c-7.14 2.42-14.565 11.857-14.565 11.857l-2.954-1.395-.042 4.225-2.954-4.102-8.287 3.938-6.277-7.22c.084.327.245.615.37.902 2.05 4.513 4.553 9.6 5.333 12.144 1.518-1.272 2.872-2.995 7.754-4.677" style="clip-rule:nonzero;fill:#cfd1d1;fill-opacity:1;fill-rule:nonzero;stroke:none;stroke-width:10.5028" transform="translate(-179.957 -335.286)"></path><path d="M309.625 504.53s-3.734-4.84-7.467-6.687c5.292-.164 7.426 2.42 7.426 2.42s-.862-5.21-10.872-8.902c9.764-2.626 12.267 0 12.267 0s-.944-5.456-14.196-9.395c12.308-2.708 17.56 2.215 17.56 2.215s1.354-2.707-1.805-7.097c15.754 5.333 20.267 22.441 20.267 22.441s-2.339 4.718-3.529 1.806c-3.774-8.903-12.39-14.4-17.436-15.55 4.964 2.995 6.77 11.529 6.77 11.529s-5.58-4.718-9.724-3.405c4.144 1.354 7.098 14.318 2.831 20.636-.534-.697.534-6.523-2.092-10.01" style="clip-rule:nonzero;fill:#ab1926;fill-opacity:1;fill-rule:nonzero;stroke:none;stroke-width:10.5028" transform="translate(-179.957 -335.286)"></path><path d="M346.097 468.181s7.754-11.652 13.621-13.703c7.016-.533 12.431.328 12.431.328s-5.866.41-10.051 1.723c-4.226 1.354-8.247 6.892-8.247 6.892s3.57.534 6.442-.984c.286 2.667-3.242 8.575-3.242 8.575s-6.318.697-10.954-2.831" style="clip-rule:nonzero;fill:#fff;fill-opacity:1;fill-rule:nonzero;stroke:none;stroke-width:10.5028" transform="translate(-179.957 -335.286)"></path><path d="M344.702 446.068s-5.251-1.56-19.61-.246c-9.15.82-13.99-.575-16.329-1.723-13.785 3.692-20.185 9.272-22.524 11.774 2.831-1.271 5.375-1.805 6.688-1.723h.042a17.3 17.3 0 0 1 3.282.042c-5.251 2.093-8.287 4.8-8.287 4.8s1.312 2.257 1.764 4.965c-.616-.164-1.272-.328-1.846-.493v.042s-.042-.042-.084-.042c0 0 0 .042.042.042a2 2 0 0 0-.534-.164 18 18 0 0 0-1.6-.37 14 14 0 0 0-1.764-.245h-.492c-1.846-.084-3.2.164-3.2.164s-3.733 1.312-8.656 2.912c-6.975 2.421-15.016 7.098-15.55 7.426 1.436.042 2.75.328 3.94.657v.042c1.148.245 2.338.615 3.404.984 2.585.902 5.293 2.133 5.99 3.651h.042l.123.369v.042c-.328 2.83-.533 3.57-.574 3.774l6.974-3.077s.205-1.64-.042-2.338c-.246-.698-1.272-1.354-1.272-1.354-.86-.984-2.707-2.667-5.005-2.995 1.805-.084 5.457.042 8.493 1.395v-.042a.6.6 0 0 0 .163.123c.164.123 1.108.738 1.354 1.518.287.78.042 2.585.042 2.585l5.58-2.585s-.042-.616-.615-1.723c-.616-1.067-4.021-2.257-4.021-2.257-1.067-.492-2.626-.984-4.43-1.436 2.338-.697 8.45-1.313 12.43.205 2.42.78 11.775 1.887 11.775 1.887s1.846-1.436 3.938-2.995c.328-.327-5.169-3.98-4.964-4.225 1.272-1.395 4.431-3.036 10.216-4.144 5.744-1.149 8.451-.452 12.43 0 .329.042 1.15 1.149 1.519.82 5.662-4.84 10.462-4.43 14.154-4.595.902-7.302 7.016-11.446 7.016-11.446" style="clip-rule:nonzero;fill:#cfd1d1;fill-opacity:1;fill-rule:nonzero;stroke:none;stroke-width:10.5028" transform="translate(-179.957 -335.286)"></path><path d="M398.883 424.662c-21.271 5.548-28.662 19.893-28.662 19.893 9.682.86 21.616 2.62 20.878 5-.739 2.338-3.477 8.046-3.477 8.046s6.236-1.523 17.354 2.785c-16.698-.164-19.662 2.415-19.662 2.415l-2.37 4.231c11.365 8.616 18.58 9.026 34.048 9.108-21.95 8.452-36.848-3.492-36.848-3.492s-2.99 6.072-5.984 9.6c7.467 13.949 11.077 20.965 17.23 30.032 0 0 15.592 24.374 35.663 32a189 189 0 0 0 3.6-18.985c6.606-48.33-5.215-90.546-5.707-92.31l-.447-1.477-1.554-.461c-8.468-2.53-16.402-4.557-24.062-6.385" style="clip-rule:nonzero;fill:#ab1926;fill-opacity:1;fill-rule:nonzero;stroke:none;stroke-width:10.5028" transform="translate(-179.957 -335.286)"></path><path d="M403.037 446.6c-.45-.081-.651.532-.2.616.452.082 1.523.739 1.523.739s.078-.088-.415.2c-.45.287-.328.702-.123 1.154s.127.857.17 1.184c.122.369 1.138.534 1.753.739.656.247 1.692.42 2.308.461s1.144.775 2.046 1.923c.944 1.19 1.267 2.754 1.554 3.247.246.45 1.077.687 1.323 1.63-.082 1.355.975 1.6 1.877 1.724.985.123.995 1.076 1.692 1.692.698.574 4.831 1.97 6.062 2.585s1.928 1.84 3.2 4.507c1.313 2.708 5.662 5 5.662 5l.077.216.215-.123c-.782-9.444-1.961-17.735-3.138-24.34l-.185-.153-.615.37-.693-.37-.861.492-.662-.784-.661.615-.939.446-.37.662v.123l.047.446-.338.215-.247.123s-.53.154-.446.277c.041.123.247.662.492.908.247.205.454.857.37 1.062-.082.205.127 1.733.169 2.307.082.575.492 1.354.615 1.723.041.33-.415.693-.415.693s-3.236-.734-3.892-.939c-.698-.246-.41-.749-.985-.954-.615-.205-1.518-1.184-1.97-1.554-.451-.367-.779.088-1.353-.446-.534-.78-1.846-1.023-2.216-1.107-.41-.082-2.472-1.816-3.169-2.554-.697-.78-2.174-1.519-2.585-1.846-.369-.329-1.23-1.467-1.6-1.754-.41-.288-2.625-1.07-3.077-1.154zM394.514 500.018s3.723 5.04 7.293 8.2c4.759 5.292 11.123 4.277 11.123 4.277s.21-.041 1.03 1.23c.822 1.273-.004 0 1.062 3.693 1.067 3.733 5.913 3.36 9.647 6.97 3.693 3.61 4.015 12.261 4.015 12.261l.062.016c.733-3.722 1.38-7.503 1.907-11.37.604-4.415.913-8.698 1.231-12.985-.594.278-1.188.674-1.846 1.2-.903-1.887-2.508-4.184-2.508-4.184s.708-.165.708-.862c1.73-.346 2.954-.922 4.092-1.323.044-.852.012-1.633.046-2.477-4.362-2.773-9.233-2.099-18.17.323-10.748 2.872-19.692-4.97-19.692-4.97" style="clip-rule:nonzero;fill:#ee4c21;fill-opacity:1;fill-rule:nonzero;stroke:none;stroke-width:10.5028" transform="translate(-179.957 -335.286)"></path><path d="M424.581 518.849s-1.887 1.067-3.323.246c-1.436-.82-3.98-3.036-4.677-3.939-.738-.902-.042-2.954-.042-2.954s4.226-.656 5.005-.984c.82-.328 4.062-1.559 4.062-1.559s.205.534.657.738c.451.205.656.82.656.82s-2.257-1.024-3.775.452c-1.476 1.477-1.476 2.052-1.435 2.38.084.37.984 2.338.984 2.338l1.272 1.847 1.107.41" style="clip-rule:nonzero;fill:#ab1926;fill-opacity:1;fill-rule:nonzero;stroke:none;stroke-width:10.5028" transform="translate(-179.957 -335.286)"></path><path d="M432.1 479.71c-1.165.256-2.323.412-3.493.815-22.564 10.298-45.663.615-45.663.615-1.271 1.846-2.338 3.123-2.338 3.123s16.318 18.421 25.631 14.893c-7.795-2.051-10.046-8.37-10.046-8.37s18.462 8.247 35.324.124c.35-.21.735-.345 1.092-.539-.07-3.72-.294-7.184-.507-10.662M326.446 433.062s-6.565 2.175-9.6 0c1.763-6.646 13.251-15.303 24-14.36-11.323 3.94-14.4 14.36-14.4 14.36M350.856 516.51s-.451 8.985 3.036 20.39c-10.256-7.59-12.595-11.528-12.595-11.528s1.108 13.662 24.616 36.842c-9.682-15.016-9.395-16.37-9.395-16.37s7.262 8.944 20.185 14.688c12.924 5.703-16.37-7.139-25.847-44.022" style="clip-rule:nonzero;fill:#ee4c21;fill-opacity:1;fill-rule:nonzero;stroke:none;stroke-width:10.5028" transform="translate(-179.957 -335.286)"></path><path d="M379.944 549.127c10.634 16.738 21.969 26.905 33.078 32.431.593-1.105 1.141-2.243 1.708-3.37-6.851-3.78-13.852-9.116-20.877-16.584 0 0 5.79 1.015 15.677.77-18.175-4.555-29.586-13.247-29.586-13.247" style="clip-rule:nonzero;fill:#fff;fill-opacity:1;fill-rule:nonzero;stroke:none;stroke-width:10.5028" transform="translate(-179.957 -335.286)"></path><path d="M360.046 518.192s8.862 26.422 43.57 24.37c-10.994-2.871-16.369-8.451-16.369-8.451s4.636-.493 9.19-2.79c-23.344-.615-36.39-13.129-36.39-13.129M314.548 573.907s3.405-14.113 4.062-20.144c1.517-1.15 4.307.492 4.307.492s5.006-4.636 9.888-16.287c.533 7.63-2.339 22.154-3.488 24.246 0-5.825-.492-8.451-.492-8.451s-1.108 7.467-14.277 20.144" style="clip-rule:nonzero;fill:#ee4c21;fill-opacity:1;fill-rule:nonzero;stroke:none;stroke-width:10.5028" transform="translate(-179.957 -335.286)"></path><path d="M317.871 465.022c-1.518.697-10.01 3.241-10.01 3.241s-5.703-1.97-8.452-2.872a42 42 0 0 1 5.374-2.338l6.647-.82 9.887.492c-1.395.943-2.502 1.887-3.446 2.297m7.262-2.092c.779-1.026 1.518-2.174 1.887-3.282a67 67 0 0 0-3.61 2.051c-2.093-1.395-5.785-3.528-8.985-3.692-1.97-1.272-5.088-2.667-9.847-3.61 5.293 2.584 5.047 3.364 5.047 3.364s-12.226 2.092-17.847 7.836l.78-.205s6.317 1.682 10.502 4.267c-.902.205-4.144.902-5.456 1.19-1.395.287-5.293.656-5.293.656s5.457.902 7.098 1.108c1.64.245 6.646-1.272 6.646-1.272 12.021-2.339 15.18-4.308 15.18-4.308s2.133-1.805 3.898-4.103" style="clip-rule:nonzero;fill:#ab1926;fill-opacity:1;fill-rule:nonzero;stroke:none;stroke-width:10.5028" transform="translate(-179.957 -335.286)"></path><path d="M345.77 485.207c-2.462.287-5.211.205-8.247-.37 2.051 3.529 7.344 6.319 7.344 6.319s-4.842 2.461-11.16-.534c-4.595-3.282-8.041-6.4-11.446-7.877 1.6 1.6 7.344 6.482 10.544 16.78h.042c12.718-3.734 20.308-11.693 24.41-17.067-5.497 2.297-11.487 2.749-11.487 2.749" style="clip-rule:nonzero;fill:#cfd1d1;fill-opacity:1;fill-rule:nonzero;stroke:none;stroke-width:10.5028" transform="translate(-179.957 -335.286)"></path><path d="M409.73 427.847c-16.749.45-26.047 9.323-26.047 9.323s9.8-.005 13.739 4.877c11.118-3.233 22.726-.456 30.093 2.015-1.311-6.407-2.428-10.568-2.57-11.077l-.446-1.477-1.554-.461c-3.987-1.192-7.724-2.14-11.538-3.17-.555-.004-1.138-.045-1.677-.03M393.853 561.604c7.025 7.468 14.024 12.803 20.877 16.585 2.22-4.411 4.283-8.95 6.092-13.677a96 96 0 0 1-11.292-2.093c-9.847.246-15.677-.815-15.677-.815" style="clip-rule:nonzero;fill:#ee4c21;fill-opacity:1;fill-rule:nonzero;stroke:none;stroke-width:10.5028" transform="translate(-179.957 -335.286)"></path><path d="M357.344 570.373s3.405 18.678 19.446 26.924c-6.359-9.56-5.707-12.8-5.707-12.8s11.697 7.995 32.785 9.308c-16.288-4.554-28.842-7.8-46.524-23.432" style="clip-rule:nonzero;fill:#fff;fill-opacity:1;fill-rule:nonzero;stroke:none;stroke-width:10.5028" transform="translate(-179.957 -335.286)"></path><path d="m439.187 599.138-6.605-8.944-.246-.327-3.734 7.303-.82-.452a265 265 0 0 0-14.892-6.236c-29.499-11.324-60.72-17.026-92.885-17.026s-63.386 5.702-92.843 17.026a253 253 0 0 0-14.893 6.236l-.452.287-3.856-7.55-7.139 9.683c-3.159 4.226-1.887 8.041-.984 9.764a183 183 0 0 0 8.657 12.76c4.225 5.702 8.861 11.118 13.826 16.246 2.584 2.544 5.456 3.241 7.836 3.241 2.872 0 4.964-1.026 4.964-1.026 25.683-11.118 54.442-17.354 84.884-17.354 30.401 0 59.243 6.236 84.884 17.354 0 0 2.134 1.026 4.965 1.026 2.38 0 5.251-.697 7.877-3.24 4.923-5.13 9.56-10.545 13.785-16.247 3.077-4.103 5.949-8.37 8.657-12.76.902-1.723 2.174-5.538-.985-9.764" style="fill:#28308c;fill-opacity:1;fill-rule:nonzero;stroke:none;stroke-width:10.5028" transform="translate(-179.957 -335.286)"></path><path d="M405.34 632.534c-26.79-11.2-55.51-16.903-85.336-16.903s-58.504 5.703-85.335 16.903c0 0-6.523 3.2-11.2-.328 2.994 6.236 9.846 3.447 9.846 3.447 27.16-11.775 56.33-17.724 86.69-17.724s59.57 5.949 86.73 17.724c0 0 6.81 2.79 9.846-3.447-4.677 3.529-11.241.328-11.241.328M432.336 596.061c2.666 2.872 3.2 4.636 3.24 5.58-.041.41-.122.82-.327 1.067-.246.327-.697.697-1.518.697-1.313 0-3.16-.984-3.528-1.149l-3.734-1.723c-4.84-2.256-9.805-4.308-14.728-6.236-29.047-11.118-59.9-16.78-91.613-16.78h-.205c-31.755 0-62.607 5.662-91.653 16.78-4.883 1.928-9.888 3.98-14.688 6.236l-3.775 1.723c-.37.164-2.174 1.149-3.528 1.149-.82 0-1.272-.37-1.477-.697-.205-.246-.287-.657-.37-1.067.042-.944.616-2.708 3.283-5.58 0 0-6.81 5.129-4.021 9.067.042.084.084.123.164.205 0 .042.042.042.042.084.533.615 1.313.944 2.256.944 1.272 0 2.38-.492 2.38-.492l6.154-2.831c4.8-2.216 9.682-4.267 14.605-6.154 28.76-11.036 59.284-16.616 90.71-16.616 31.427 0 61.992 5.58 90.752 16.616 4.882 1.887 9.805 3.938 14.564 6.154l6.195 2.83s1.067.493 2.339.493c.984 0 1.723-.328 2.256-.944h.042c0-.042 0-.042.042-.084.042-.084.123-.123.123-.205 2.79-3.938-3.98-9.067-3.98-9.067" style="fill:#fff;fill-opacity:1;fill-rule:nonzero;stroke:none;stroke-width:10.5028" transform="translate(-179.957 -335.286)"></path><path d="M399.76 607.713c-.574-.164-1.066-.369-1.682-.534a118 118 0 0 0-1.928-2.872c-1.19.657-2.42 1.313-3.57 1.97.575.984 1.15 1.928 1.724 2.913 1.477.451 2.954.943 4.43 1.436.37-.985.698-1.929 1.027-2.913M375.555 615.877c1.764-.37 3.569-.697 5.333-.984 1.313-4.718 2.626-9.436 3.898-14.113-.616-.944-1.272-1.887-1.929-2.831a76 76 0 0 0-3.159 1.559c-.984 3.98-2.01 8-3.036 11.98l-1.969.738c.328 1.231.574 2.42.861 3.652" style="fill:#fff;fill-opacity:1;fill-rule:nonzero;stroke:none;stroke-width:10.5028" transform="translate(-179.957 -335.286)"></path><path d="M373.544 597.907c-.984.575-2.01 1.15-2.954 1.724-.86 4.061-1.764 8.164-2.625 12.225 1.395 1.067 2.79 2.134 4.184 3.242.698-.493 1.436-.945 2.216-1.436.41.738.82 1.477 1.19 2.215 1.764-.37 3.569-.697 5.374-.984a261 261 0 0 0-5.292-6.482c-.739.287-1.436.574-2.134.861.657-2.872 1.354-5.744 2.01-8.575-.656-.943-1.312-1.846-1.969-2.79M351.308 594.666c-.943.616-1.846 1.272-2.79 1.929-.493 3.98-.984 8-1.436 11.98.697.86 1.395 1.681 2.092 2.543.862-.656 1.764-1.313 2.626-1.97l1.723-11.938c-.78-.861-1.477-1.723-2.215-2.544M362.385 596.225c-2.38.288-4.76.616-7.139 1.026-.163 1.231-.37 2.462-.533 3.693.738.37 1.518.738 2.215 1.108a353 353 0 0 0 2.626-.37c.123-.493.164-.984.287-1.477.697-.287 1.395-.575 2.051-.861.534.492 1.108.984 1.641 1.477-.492 2.584-.943 5.169-1.436 7.795-.656.246-1.313.533-1.97.78-.574-.453-1.066-.944-1.64-1.396.164-.902.327-1.805.451-2.667a114 114 0 0 0-2.05-2.584l-2.709 1.846a208 208 0 0 0-.779 4.964c2.092.944 4.103 1.97 6.113 2.995 2.256-.37 4.554-.697 6.851-.984.862-4.02 1.683-8.041 2.503-12.062a319 319 0 0 0-6.482-3.282M242.054 622.729c.492-.985.984-1.929 1.477-2.913-1.354-3.939-2.79-7.877-4.144-11.816-2.462 0-4.964.042-7.426.123a159 159 0 0 0-5.744 4.677c1.6 3.816 3.241 7.672 4.883 11.529 1.066.41 2.092.82 3.118 1.23.492-.984.943-1.969 1.435-2.954-1.312-3.2-2.543-6.359-3.774-9.559.41-.574.861-1.149 1.313-1.723.738.123 1.436.288 2.174.452 1.19 3.2 2.42 6.4 3.61 9.6q1.6.677 3.078 1.354M329.112 592.861a188 188 0 0 0-6.851 1.97c-.042 1.23-.084 2.461-.084 3.733.78.246 1.6.533 2.38.82.86-.246 1.681-.492 2.543-.738.042-.493.042-.984.042-1.518a29 29 0 0 0 1.928-1.067c.616.41 1.231.82 1.805 1.23-.084 2.627-.245 5.252-.327 7.92-.616.327-1.231.696-1.887 1.025a26 26 0 0 0-1.765-1.149c.042-.943.042-1.846.084-2.748a133 133 0 0 0-2.38-2.298l-2.46 2.216c0 1.682-.043 3.323-.043 5.005 2.175.697 4.308 1.436 6.4 2.174 2.216-.656 4.431-1.272 6.688-1.887.246-4.062.533-8.164.78-12.226a169 169 0 0 0-6.852-2.462M291.532 594.256c-2.216.944-4.39 1.928-6.564 2.913.163 1.23.37 2.462.574 3.733.82.123 1.6.287 2.42.452.862-.369 1.642-.738 2.421-1.108a20 20 0 0 0-.164-1.477c.575-.451 1.19-.902 1.724-1.354a44 44 0 0 1 2.01.945c.37 3.323.738 6.646 1.066 9.97.903.656 1.765 1.312 2.626 1.968.698-.779 1.395-1.6 2.134-2.42-.411-4.062-.739-8.124-1.108-12.226-2.38-.493-4.76-.984-7.139-1.395M246.608 603.282c-1.97 1.354-3.98 2.708-5.95 4.103.411 1.148.78 2.338 1.232 3.528h2.543c.698-.493 1.477-.984 2.175-1.518-.164-.452-.287-.943-.452-1.436.493-.534.984-1.067 1.518-1.641.697.205 1.395.37 2.133.574.985 3.2 1.97 6.4 2.913 9.642 1.026.492 2.01.984 2.995 1.477.534-.944 1.108-1.847 1.641-2.75-1.107-3.938-2.215-7.917-3.364-11.856-2.42-.084-4.923-.123-7.385-.123M302.732 593.271c-.78.739-1.6 1.477-2.38 2.216.328 4.102.657 8.205.985 12.267.861.697 1.723 1.395 2.584 2.051.698-.78 1.395-1.559 2.175-2.338-.246-4.103-.493-8.165-.78-12.267a105 105 0 0 0-2.584-1.929M307.573 604.595c2.708-.164 5.416-.246 8.124-.288.042.944.042 1.846.042 2.79.82.738 1.6 1.477 2.38 2.215.778-.779 1.558-1.518 2.338-2.256l.042-7.18c-2.79 0-5.54 0-8.329.084 0-1.066-.084-2.133-.123-3.2q3.015.924 6.031 1.97c.78-.37 1.6-.698 2.42-1.067v-2.913a324 324 0 0 0-6.728-2.134c-2.256.78-4.513 1.6-6.728 2.462.164 3.16.37 6.318.534 9.518M320.579 591.425c.042-1.64.042-3.24.042-4.882-.452-.37-.902-.738-1.313-1.067-.452.328-.902.698-1.313 1.067-.452-.37-.902-.697-1.313-1.067-.451.37-.861.739-1.313 1.108 0 .452.042.902.042 1.354-.574-.205-1.19-.41-1.805-.616-2.297.739-4.636 1.477-6.892 2.298.042.697.042 1.395.084 2.133 4.595-.245 9.19-.327 13.785-.327M257.972 612.185c2.626-.698 5.292-1.313 7.96-1.929.204.903.41 1.806.656 2.708.943.575 1.887 1.108 2.79 1.682.656-.902 1.23-1.764 1.846-2.666-.534-2.339-1.027-4.719-1.518-7.057-2.75.575-5.457 1.149-8.206 1.805a116 116 0 0 0-.779-3.118c2.133.205 4.267.452 6.318.698.738-.493 1.436-1.026 2.174-1.518-.204-.985-.37-1.929-.574-2.872-2.38-.287-4.76-.493-7.139-.698a305 305 0 0 0-6.113 3.775c.862 3.077 1.723 6.113 2.585 9.19M283.326 612.062c.698-.82 1.354-1.682 2.01-2.544-.615-3.98-1.23-8-1.804-11.98l-2.831-1.846a325 325 0 0 0-5.539 4.185 7 7 0 0 1-.164-.943 70 70 0 0 0-2.954-1.764c-.697.902-1.353 1.764-2.01 2.666.861 3.98 1.682 7.918 2.544 11.898.902.574 1.805 1.149 2.749 1.723.615-.861 1.271-1.764 1.928-2.626-.41-1.928-.738-3.897-1.108-5.825 1.026-.862 2.093-1.683 3.118-2.544.452 2.626.902 5.21 1.395 7.795.902.615 1.805 1.23 2.667 1.805M282.875 593.107c-.82.452-1.6.903-2.38 1.313-.86-.164-1.764-.37-2.666-.533-.205-1.354-.452-2.667-.697-3.98.779-.452 1.6-.902 2.38-1.354.942.164 1.845.37 2.748.575.205 1.312.41 2.625.615 3.98M386.673 617.764c-.861.084-1.723.164-2.544.288a274 274 0 0 0-2.051-1.559c.205-.738.41-1.436.615-2.174.903-.123 1.723-.205 2.626-.328a86 86 0 0 0 2.01 1.6 44 44 0 0 0-.656 2.174M410.714 626.134h-2.584c-.616-.616-1.272-1.19-1.846-1.764.286-.698.533-1.395.86-2.093.862-.042 1.724-.042 2.626-.042.616.616 1.231 1.231 1.847 1.806-.287.697-.616 1.394-.903 2.092M400.047 605.538c-1.026.411-2.05.82-3.118 1.231-1.312 3.816-2.584 7.672-3.897 11.529 1.764 1.354 3.446 2.748 5.17 4.184 2.297 0 4.635.042 6.974.123a207 207 0 0 0 2.133-5.333c-.327-.657-.697-1.272-1.026-1.928a33 33 0 0 1 2.134-.78c.451-1.107.902-2.256 1.353-3.364-.451-.902-.86-1.846-1.312-2.79-1.108.41-2.216.82-3.283 1.231-.327.902-.656 1.846-.984 2.79-.984.37-1.969.78-2.913 1.23.452.903.903 1.806 1.354 2.75-.37.82-.656 1.682-.984 2.502-.738.164-1.436.328-2.133.493-.452-.616-.861-1.272-1.272-1.929 1.067-2.995 2.174-6.03 3.241-9.066a94 94 0 0 0-1.436-2.872M398.16 603.159c.164-.534.328-1.067.534-1.56q3.57.064 7.262.247c.533.492 1.066.943 1.64 1.436.085-.37.246-.698.328-1.027 1.108-.37 2.175-.738 3.282-1.107.493.944.985 1.846 1.477 2.79-.492 1.23-1.026 2.461-1.518 3.733-4.307-1.641-8.615-3.16-13.005-4.513" style="fill:#fff;fill-opacity:1;fill-rule:nonzero;stroke:none;stroke-width:10.5028" transform="translate(-179.957 -335.286)" data-source="https://football-logos.cc"></path><!-- source: https://football-logos.cc --></svg>