<svg xmlns="http://www.w3.org/2000/svg" viewBox="0 73.31 248.07 330.69"><!-- Source: https://football-logos.cc --><path d="m218.8 410.34 10.523-6.368-2.741-7.826 7.56-3.36 3.228 7.605 16.272-9.241 2.785-2.211 28.564 22.152" style="fill:#fff;fill-opacity:1;fill-rule:nonzero;stroke:none;stroke-width:11.3193" transform="translate(-173.106 -315.143)" data-source="https://football-logos.cc"></path><path d="m285.168 410.782-28.564-22.153-.176-.176-.31.176-2.652 2.255h.045l-16.271 9.197.442.133-3.183-7.561-.177-.353-.353.09-7.605 3.405-.31.132.133.31 2.786 7.87.132-.442-10.523 6.323-1.106.62 1.326.045 66.192.795h1.105zm-66.191-.177 10.523-6.323.265-.176-.046-.221-2.83-7.87-.22.442 7.605-3.316-.487-.265 3.228 7.65.22.398.354-.265 16.36-9.197 2.653-2.255h-.443l28.608 22.152.22-.707-66.146-.752" style="fill:#fff;fill-opacity:1;fill-rule:nonzero;stroke:none;stroke-width:11.3193" transform="translate(-173.106 -315.143)"></path><path d="M309.619 718.391c28.74-15.608 52.351-38.998 70.347-69.507 14.37-24.275 25.203-53.06 32.234-85.558 11.85-55.181 8.578-102.757 8.533-103.288l-.176-1.46-1.327-.795c-30.553-17.42-62.388-30.597-94.312-39.13-25.601-6.81-51.379-10.657-76.67-11.497-29.227-.884-72.293 7.738-72.293 7.738l-.221 1.503c-5.571 47.665-2.3 93.119 9.949 135.256 9.815 33.693 25.335 65.263 46.205 93.915 35.417 48.947 74.548 72.47 74.946 72.823l1.37.752" style="clip-rule:nonzero;fill:#fff;fill-opacity:1;fill-rule:nonzero;stroke:none;stroke-width:11.3193" transform="translate(-173.106 -315.143)"></path><path d="M187.981 430.413s95.506-32.012 221.743 39.353c0-.929-.133.31-.133-2.61 0 0-100.458-67.075-221.167-41.032" style="fill:#f06823;fill-opacity:1;fill-rule:nonzero;stroke:none;stroke-width:11.3193" transform="translate(-173.106 -315.143)"></path><path d="m184.046 423.87 10.612-1.283s-12.115 86.486 15.387 139.236l6.942 22.992s41.518 74.592 91.57 105.057c0 0 33.826-21.577 46.162-36.61 3.095-3.096 32.1-58.543 32.1-58.543l14.106-49.787 4.863-38.6.221-43.685 7.119 1.326-2.344 47.355-4.2 36.036-10.479 40.502s-12.248 46.692-32.631 71.585c-1.238 3.14-54.784 48.328-54.784 48.328l-39.086-31.172-33.693-38.998-25.733-44.702s-23.17-59.603-25.16-81.446c-1.945-21.71.354-83.258-.972-87.592" style="fill:#f3751e;fill-opacity:1;fill-rule:nonzero;stroke:none;stroke-width:11.3193" transform="translate(-173.106 -315.143)"></path><path d="m235.115 613.069 13.53 15.254 20.384-12.69 26.485 13.221 2.653 23.744-14.459 13.751 3.317 1.724 13.928-12.645 26.662 2.299 3.537.398 9.816-24.981 24.363-.354 1.99-3.89-27.9.397-14.813-16.228 5.173-22.726-2.962-.31-5.439 22.328-23.876 12.248-26.84-12.91s2.92-17.864 2.61-18.792c-16.935 1.857-40.635 13.706-40.635 13.706" style="fill:#f3751e;fill-opacity:1;fill-rule:nonzero;stroke:none;stroke-width:11.3193" transform="translate(-173.106 -315.143)"></path><path d="m365.729 606.171 6.544 12.292 4.642-7.074M328.145 657.418l6.5 9.196 2.609-1.9-5.66-8.888zm0 0" style="fill:#e87d23;fill-opacity:1;fill-rule:nonzero;stroke:none;stroke-width:11.3193" transform="translate(-173.106 -315.143)"></path><path d="M309.619 709.99c27.193-14.9 49.654-37.097 66.766-65.881 13.574-23.081 23.832-50.362 30.509-81.18 11.275-52.352 8.135-97.452 8.047-97.85l-.045-1.46-1.283-.751c-29.094-16.537-59.16-29.006-89.537-37.097-24.274-6.456-48.725-10.126-72.646-10.877-41.43-1.283-67.12 6.632-67.253 6.676l-1.193.664-.265 1.415c-5.439 45.188-2.255 88.298 9.373 128.225 9.33 31.969 24.098 61.991 43.818 89.184 33.604 46.205 70.701 68.623 71.055 68.844l1.282.796zm-123.45-283.38c.972-.396 100.723-29.712 224.837 40.945l-1.415-2.078c.132 1.724 11.717 177.26-102.537 239.694l2.653.176c-1.414-.84-144.585-88.74-121.681-281.036" style="clip-rule:nonzero;fill:#000;fill-opacity:1;fill-rule:nonzero;stroke:none;stroke-width:11.3193" transform="translate(-173.106 -315.143)"></path><path d="M308.735 692.127c25.335-13.928 46.205-34.71 62.167-61.814 12.734-21.621 22.24-47.134 28.475-76.14 10.48-49.035 7.517-91.438 7.473-91.791l-.046-1.46-1.238-.707c-61.415-35.196-116.066-43.95-151.085-45.056-38.6-1.238-62.61 6.19-62.698 6.234l-1.371.708-.09 1.459c-4.997 42.27-2.034 82.772 8.799 120.267 8.666 30.023 22.328 58.1 40.722 83.612 31.305 43.464 64.865 63.76 66.236 64.644l1.326.751zM193.729 426.478c.928-.309 93.782-27.812 209.141 38.424l-1.37-2.167c.132 1.68 12.866 157.453-93.473 215.95 0 0-133.797-74.326-112.396-254.462" style="fill:#000;fill-opacity:1;fill-rule:nonzero;stroke:none;stroke-width:11.3193" transform="translate(-173.106 -315.143)"></path><path d="m225.52 411.356 30.51-15.342" style="fill:#fff;fill-opacity:1;fill-rule:nonzero;stroke:none;stroke-width:11.3193" transform="translate(-173.106 -315.143)"></path><path d="m226.228 412.683 30.376-15.343-1.194-2.741-30.509 15.431zm0 0" style="fill:#000;fill-opacity:1;fill-rule:nonzero;stroke:none;stroke-width:11.3193" transform="translate(-173.106 -315.143)"></path><path d="M264.519 475.47 231.843 398.4" style="fill:#fff;fill-opacity:1;fill-rule:nonzero;stroke:none;stroke-width:11.3193" transform="translate(-173.106 -315.143)"></path><path d="m254.04 448.852-20.914-51.026-2.698 1.15 20.87 51.113zM255.587 397.473l-6.897 16.669h2.21l-4.51-10.789-2.21.884 4.598 10.789 1.016 2.653 1.106-2.697 6.898-16.625" style="fill:#000;fill-opacity:1;fill-rule:nonzero;stroke:none;stroke-width:11.3193" transform="translate(-173.106 -315.143)"></path><path d="M389.915 495.278s-10.656 32.278-140.12-80.119l5.615-19.322s94.092 75.343 134.284 47.399" style="fill:#f3751e;fill-opacity:1;fill-rule:nonzero;stroke:none;stroke-width:11.3193" transform="translate(-173.106 -315.143)"></path><path d="M389.075 442.308c-39.087 27.104-132.029-46.648-133.001-47.4l-1.371-1.06-.487 1.724-5.57 19.19-.222.751.62.487c92.5 80.296 124.998 87.282 136.096 84.143 4.289-1.106 5.483-3.538 5.88-4.333l.091-.265v-.265l-.132-52.042-.046-2.211zm-.31 52.572v-.045c-.044.09-.75 2.122-4.377 3.05-10.832 2.786-42.535-4.377-133.84-83.7l.442 1.327 5.57-19.323-1.989.664c.22.09 23.965 18.968 52.308 34.178 38.379 20.693 66.456 25.07 83.523 13.177l-1.901-.973.22 52.042M217.694 447.48s18.04-17.332 37.009-4.332c0 0 19.19 13.353 26.839 26.75l38.026 49.212s19.897 3.14 35.505 22.86c5.217 6.677 9.86 15.033 13.265 25.778 0 0 1.768 2.343-.265 6.765l2.299.751 2.122 3.626 10.303 4.29-2.432.618 1.503 1.813 3.184 2.3S309 535.602 214.732 584.55c0 0 37.009-16.095 38.203-17.73 1.238-1.548 19.1-6.81 17.111-9.596-1.99-2.785.796-3.183-9.904-1.945l-8.048 1.282-7.958-.84s6.765-7.958 3.227-10.346c0 0 .752-.796-7.251 1.68 0 0 2.83 4.289-3.98 5.88l-.398-4.73s5.97-6.765 5.571-7.96c-.398-1.237-13.53-5.968-26.308-19.852-.884-1.194-18.438-19.455-3.007-34.621 0 0-1.99 8.755.046 9.904 0 0 6.367-5.925 8.754-5.925 2.388-.09-10.346 12.337 4.466 26.618 0 0 8.003 4.333 26.706 6.677 0 0 26.707-10.037 12.292-24.717 0 0 5.572-3.625 6.28-16.006 0 0-13.973-29.801-21.578-29.757 0 0-14.017-9.904-23.479 3.626l1.15-9.109" style="fill:#000;fill-opacity:1;fill-rule:nonzero;stroke:none;stroke-width:11.3193" transform="translate(-173.106 -315.143)"></path><path d="m225.742 446.906-1.194 9.197 1.106.398c2.697-3.847 5.924-6.057 9.727-6.765 6.765-1.15 13.309 3.36 13.309 3.36 5.88-.09 17.2 21.224 21.135 29.36l-.09-.22c-.708 11.805-6.058 15.475-6.058 15.475h-.045v.045l-.443.443.399.398c3.316 3.449 4.598 6.81 3.89 10.037-1.856 8.313-15.829 13.707-16.005 13.751h.398c-18.394-2.299-26.441-6.588-26.53-6.632l.133.09c-10.789-10.39-6.81-19.764-4.997-23.788.62-1.459 1.46-3.935 1.327-4.023-.09-.09-7.87 5.261-9.993 6.809-.22.177-.398-5.04.487-9.02v-.133l.265-1.68-1.238 1.238c-9.463 9.286-8.534 21.666 2.387 34.887.265.264.399.442.487.53h.09c9.33 10.17 18.925 15.476 23.523 18.085 1.327.707 2.52 1.415 2.742 1.636h-.09v-.133c0 .752-2.875 4.466-5.35 7.473l-.177.176v.265l.398 4.776.045.663.708-.133c2.52-.663 4.112-1.68 4.687-3.183.751-1.901-.31-3.626-.443-3.714l-.309.928c5.748-1.769 6.677-1.769 6.81-1.769-.046 0-.222-.09-.31-.264-.09-.265-.045-.487.133-.62l-.62.531.62.353c.486.354.751.708.795 1.327.399 2.387-2.785 6.765-4.023 8.224l-.575.884.972.09 8.047.752h.046l8.003-1.238c8.091-.884 8.091-.884 8.533.177.133.398.443.928.884 1.503v.22c-.442 1.46-14.635 3.715-15.077 3.76-.221.09.442.663-.046 1.281-.09.177-.486.664-1.06 1.504-1.503 2.034-4.2 5.792-4.82 6.278-4.598 3.847-21.886 8.136-34.002 13.354l.399 1.06c92.853-48.195 168.949 2.874 169.656 3.405l.752-.972-3.096-2.344.046.133-1.592-1.813-.177.972 2.83-.972-.265-.133-.796-.309s-7.56-3.272-9.285-4.377c5.35 4.82 1.194-6.986 1.194-6.986-6.986-22.373-25.336-38.6-34.93-44.747-10.524-6.809-19.234-8.18-19.677-8.312l.443.265-38.114-49.257.045.09c-7.56-13.397-26.794-26.838-27.015-26.97-19.102-13.089-37.54 4.2-37.76 4.42l-1.15 1.061 1.636-.09 8.887-.443zm-7.96.928c.177-.132 17.997-16.846 36.302-4.245.176.133 19.234 13.354 26.618 26.574h.09l38.07 49.168.09.265h.266c.353.045 35.151 6.102 48.283 48.195l.09.133v.09c.046.045 1.548 2.167-.264 6.146l-.31.575.62.22 2.388.797-.399-.265 2.167 3.625.132.221h.133l10.832 3.847-1.06-.575-1.946.575-.84.265.576.619 1.547 1.813.133.132 3.095 2.3.707-.973c-.177-.132-19.455-13.22-50.008-20.118-17.952-4.024-36.213-5.218-54.253-3.493-22.594 2.21-45.056 8.931-66.633 20.118l.53 1.15c6.235-2.742 34.887-16.095 36.17-17.775.352-.399 7.914-2.697 8.09-2.742 6.5-2.343 10.966-4.598 11.497-6.5.132-.442 0-.84-.177-1.193-.442-.531-.575-1.017-.751-1.327-.84-1.9-1.37-1.857-9.772-.84-.09 0-8.047 1.15-8.047 1.15h.176l-7.959-.751.399.972c.176-.22 4.775-5.704 4.289-9.197-.045-.884-.531-1.592-1.238-2.034l.045.972c.22-.22.22-.53.132-.84-.22-.486-.486-.795-7.87 1.46l-.796.22.487.62c0 .045.796 1.414.265 2.608-.443 1.15-1.725 1.99-3.891 2.52l.751.487-.442-4.73-.133.442c2.83-3.228 6.058-7.34 5.66-8.578-.177-.487-.884-.928-3.184-2.255-4.598-2.52-14.06-7.738-23.301-17.73h.045c-.045-.091-.176-.266-.487-.62-10.656-12.601-11.452-24.451-2.52-33.25l-1.016-.575c-.443 2.21-1.858 9.33.264 10.656l.443.132.309-.22c2.432-2.256 6.81-5.881 8.401-5.881-.177 0-.265-.177-.265-.31 0 .177-.398 1.017-.707 1.637-1.902 4.244-6.323 14.193 4.952 25.247l.132.045h.046c.309.133 8.312 4.422 26.927 6.721h.265c.663-.265 14.724-5.704 16.714-14.591.795-3.758-.575-7.473-4.2-11.187l-.091.928c.176-.132 5.748-3.935 6.544-16.36v-.352c-1.504-3.051-14.459-30.156-22.197-30.111l.353.09c-.264-.177-6.676-4.643-13.883-3.36-4.068.751-7.605 3.139-10.435 7.207l1.016.353 1.238-9.064.09-.752-.707.09-8.976.354" style="fill:#000;fill-opacity:1;fill-rule:nonzero;stroke:none;stroke-width:11.3193" transform="translate(-173.106 -315.143)"></path><path d="m283.001 479.449 11.32 27.812-3.626-.752-2.344 13.884 16.802 6.367 8.8 11.098 8.754-4.864" style="fill:#fff;fill-opacity:1;fill-rule:nonzero;stroke:none;stroke-width:11.3193" transform="translate(-173.106 -315.143)"></path><path d="m322.397 532.552-8.71 4.775.751.177-8.799-11.143-.176-.132-.09-.045-16.714-6.323.265.707 2.387-14.016-.707.487 3.537.751 1.06.31-.352-1.061-11.187-27.856-1.106.575 39.662 53.633zm-39.882-52.97 11.142 27.855.752-.707-3.582-.84-.575-.09-.132.53-2.3 14.061-.09.397.398.177 16.758 6.323-.265-.177 8.844 11.098.309.398.442-.221 8.8-4.82.53-.264-.398-.62-39.662-53.678" style="fill:#000;fill-opacity:1;fill-rule:nonzero;stroke:none;stroke-width:11.3193" transform="translate(-173.106 -315.143)"></path><path d="M285.61 483.694s33.471 50.936 31.437 51.732c-2.741.84 6.014-1.548 6.014-1.548" style="fill:#f3751e;fill-opacity:1;fill-rule:nonzero;stroke:none;stroke-width:11.3193" transform="translate(-173.106 -315.143)"></path><path d="m226.98 521.056 24.407 5.483 11.142-7.252.752 1.194-.399 1.194 5.572.398-.399 2.786-15.122 3.67-13.132-3.184.399 2.83" style="fill:#fff;fill-opacity:1;fill-rule:nonzero;stroke:none;stroke-width:11.3193" transform="translate(-173.106 -315.143)"></path><path d="m240.775 528.086-.353-2.83-.752.708 13.176 3.14.09.044.133-.045 15.122-3.67.399-.09.09-.399.353-2.741.133-.62-.62-.09-5.57-.397.486.796.443-1.238.045-.265-.177-.22-.795-1.195-.31-.398-.53.265-11.099 7.163.443-.046-24.319-5.527-.442 1.15 13.22 7.119.973.53zm-13.884-6.5 24.319 5.572h.265l.176-.133 11.143-7.207-.796-.132.796 1.104-.09-.397-.354 1.105-.265.707.708.09 5.615.443-.487-.795-.442 2.785.442-.487-15.077 3.67h.22l-13.132-3.05-.84-.221.091.84.443 2.785.884-.619-13.221-7.074" style="fill:#000;fill-opacity:1;fill-rule:nonzero;stroke:none;stroke-width:11.3193" transform="translate(-173.106 -315.143)"></path><path d="m227.068 521.012 13.265 7.074-.133-.884-.928.62.84.353-.398-2.786-.09-.84-.708.575.928.132 13.132 3.184.09-1.06h-.22l.045 1.06 15.166-3.714-.53-.752-.443.487.928.353.398-2.741-.928.22.575.752.398-.84-5.615-.397h-.752l.443.575.265-.663.442-1.239-.972-.09.045.487.929-.31-.884-1.238-.487.795.84.265-.177-1.06-11.142 7.25-.177.178h.353l-.176-.133-24.407-5.483.398.708.398-1.194zm-.265 1.06 24.363 5.527.22.133h.177l.354-.265 11.142-7.207 1.106-.664-1.282-.265-.796-.132-1.238-.265.707 1.018.796 1.105.928-.31-.045-.486-.973-.133-.398 1.239-.265.707-.22.663.663.09.751.046 5.616.31 1.15.09-.752-.884-.531-.664-.752-.972-.132 1.15-.399 2.83-.22 1.635 1.15-1.194.398-.53 1.06-1.194-1.592.353-15.033 3.581.09 1.061h.221l.09-1.06-13.131-3.052-.84-.22-.752-.221.177.84.09.884.443 2.653.09.84.708-.443.84-.575.663-.53-.707-.354-13.132-7.074-.531-.31-.221.576-.398 1.06-.221.487" style="fill:#211e1e;fill-opacity:1;fill-rule:nonzero;stroke:none;stroke-width:11.3193" transform="translate(-173.106 -315.143)"></path><path d="m241.217 528.794-1.06-.531-13.177-7.163.22.707.4-1.15-.532.31 24.319 5.482v-1.016l-.487.045.443.973 11.01-7.252.575-.265-.664-.176.265.53.84 1.15.177.221-.09-.398-.091.309-.399 1.238.928-.221-.575-.796-.442.796 5.571.353.575.09-.353-.574-.133.619-.398 2.83-.045.353.398-.399-.398.09-15.166 3.67-.09.046h.22l-.133-.045c-.045 0-13.132-3.184-13.132-3.184l.221.928.664-.663-.752-.353.398 2.785.133 1.239zm.09-.752-.442-2.785-.132-.929-.708.62-.751.663-.664.619.884.22 13.265 3.14h.09l.091.045.133-.045h.09l15.21-3.626.353-.132.31-.045.132-.399.045-.397.353-2.786.09-.619.133-.487-.575-.045h-.663l-5.571-.397-1.061-.09.62.84.442.795.663.84.265-1.017.443-1.238.045-.22.09-.177-.132-.265-.177-.176-.751-1.239-.353-.486-.265-.443-.443.31-.487.264-11.142 7.251.443.929.398-.09.09-1.017-24.362-5.439-.443-.09-.176.353-.443 1.15-.177.398.487.132 13.132 7.163 1.06.62.885.486-.132-1.06" style="fill:#211e1e;fill-opacity:1;fill-rule:nonzero;stroke:none;stroke-width:11.3193" transform="translate(-173.106 -315.143)"></path><path d="m258.992 541.263-4.422 2.83s-.928 2.21 2.211 1.282l.84-1.415 1.813.132s1.415-2.564-.443-2.83" style="fill:#fff;fill-opacity:1;fill-rule:nonzero;stroke:none;stroke-width:11.3193" transform="translate(-173.106 -315.143)" data-source="https://football-logos.cc"></path><path d="m259.522 543.827-1.857-.22h-.132l-.09.176-.885 1.415.046-.133c-.84.265-1.46.265-1.769 0-.132-.22-.045-.751.045-.884l-.132.133 4.422-2.786h-.265c.398.09.53.177.619.443.353.575-.09 1.592-.353 2.034zm-.707-2.83-4.333 2.786-.177.045v.132s-.353.929.09 1.504c.4.442 1.239.53 2.477.176h.176v-.132l.84-1.415-.22.132 1.768.221h.177l.09-.132c.09-.22.884-1.68.443-2.609-.177-.265-.531-.707-1.106-.752h-.132" style="fill:#000;fill-opacity:1;fill-rule:nonzero;stroke:none;stroke-width:11.3193" transform="translate(-173.106 -315.143)"></path><path d="M264.165 538.61s-1.901 2.122-.132 7.251c0 0 7.959-1.194 7.737-3.36 0-1.061-4.288-1.813-4.554-1.238-.309.53-2.299-3.184-3.05-2.653" style="fill:#fff;fill-opacity:1;fill-rule:nonzero;stroke:none;stroke-width:11.3193" transform="translate(-173.106 -315.143)"></path><path d="M267.481 541.44v.045c.221-.221 2.388-.046 3.538.575.353.132.486.309.486.442.133 1.238-4.289 2.565-7.428 3.095l.265.177c-1.68-4.864.045-6.942.045-6.942l.046-.045-.046.09h-.045c.309 0 1.016.973 1.46 1.503.662.885.971 1.239 1.37 1.239.09 0 .22-.09.309-.177m-3.538-3.05c-.045.132-2.033 2.298-.22 7.56l.176.265h.265c1.327-.31 8.18-1.503 7.959-3.714 0-.531-.62-.973-1.724-1.327-.929-.31-3.007-.663-3.493-.176h.264c-.176 0-.619-.62-.928-1.06-.84-.973-1.591-2.035-2.21-1.548" style="fill:#000;fill-opacity:1;fill-rule:nonzero;stroke:none;stroke-width:11.3193" transform="translate(-173.106 -315.143)"></path><path d="m274.246 533.746-3.36-.09s-1.37-2.654-4.422-.221c-3.006 2.564 1.592 3.537 2.123 3.537.575 0 2.166-.663 2.166-.663l3.007.09s1.016 4.599.132 4.864c-.84.176 1.46 2.564 2.742-.752 1.194-3.316-.265-9.197-.265-9.197l-4.245-4.2s-1.945-1.106-1.459.707c.62 1.725 3.051 4.024 3.051 4.024" style="fill:#fff;fill-opacity:1;fill-rule:nonzero;stroke:none;stroke-width:11.3193" transform="translate(-173.106 -315.143)"></path><path d="M273.848 531.8s-2.476-2.299-3.006-4.067c-.09-.354-.09-.62 0-.708.22-.22.928.045 1.15.177v-.046l4.244 4.245-.045-.09c.045.09 1.415 5.836.265 9.108-.487 1.194-1.106 1.769-1.725 1.636-.53 0-.884-.443-.884-.62 0 0 0-.044.177-.044.09-.09.176-.133.22-.221.531-.796-.22-4.378-.398-4.776v-.09h-.09l-3.007-.177h-.09c-.443.177-1.637.664-2.079.708-.398 0-2.564-.531-2.918-1.503-.177-.487.132-1.106.884-1.77.972-.839 1.857-1.105 2.697-.971 1.06.22 1.548 1.06 1.548 1.15h.09l3.36.22h.177l-.045-.22zm.399 1.857-3.36-.22.132.132c0-.09-.531-1.016-1.68-1.282-.929-.177-1.857.176-2.963 1.106-.884.751-1.238 1.37-1.016 2.034.442 1.238 2.918 1.724 3.227 1.724.575 0 2.034-.663 2.211-.707h-.045l3.007.176-.177-.132c.265 1.017.796 3.89.487 4.51h-.22c-.133 0-.266.265-.266.442 0 .354.487.796 1.106.929.487.132 1.46 0 1.99-1.813 1.238-3.36-.09-9.109-.177-9.241v-.09h-.045l-4.289-4.201v-.046c-.132-.045-1.06-.619-1.503-.22-.265.176-.265.53-.133 1.06.575 1.769 3.007 4.024 3.051 4.157v-.09l.531 1.989" style="fill:#000;fill-opacity:1;fill-rule:nonzero;stroke:none;stroke-width:11.3193" transform="translate(-173.106 -315.143)"></path><path d="m269.029 515.087 1.282-1.636s.531-1.415-1.06-.884c-1.548.53-4.599 4.289-4.599 4.289s-1.016 2.83 1.238 1.945c2.255-.972.132.708.132.708l1.283.31 3.36.575 4.068-2.874-.663-3.316s-.62-.575-1.769-.221c-1.326.398-3.272 1.106-3.272 1.106" style="fill:#fff;fill-opacity:1;fill-rule:nonzero;stroke:none;stroke-width:11.3193" transform="translate(-173.106 -315.143)"></path><path d="M272.345 514.202c1.06-.442 1.503.09 1.503.09v-.09l.708 3.36.132-.176-4.156 2.874.132-.045-3.36-.53h.09l-1.326-.354.132.265c1.017-.796.884-.972.884-1.106-.09-.22-.309-.22-1.282.177-.309.132-.84.176-1.06.045-.354-.399-.091-1.46.045-1.857l-.046.09c.046-.09 2.963-3.625 4.51-4.2.487-.177.796-.177.84 0 .221.176.133.53 0 .663l.133-.045-1.283 1.592-.309.486.399-.22c.132 0 1.99-.708 3.316-1.018m-3.184 1.018 1.238-1.68v-.046c.091-.045.265-.619 0-1.016-.309-.177-.619-.221-1.193 0-1.68.53-4.555 4.112-4.731 4.289v.045c-.046.132-.531 1.503 0 2.034.309.353.795.353 1.459.09.795-.264.84-.22.928-.22-.09 0-.09-.09-.09-.09 0 .09-.354.442-.752.707l-.353.176.353.133 1.238.353 3.404.575.091-.133 4.024-2.83.132-.045v-.045l-.752-3.316v-.177h-.09c0-.045-.53-.575-1.901-.22-1.194.397-3.14 1.104-3.14 1.104" style="fill:#000;fill-opacity:1;fill-rule:nonzero;stroke:none;stroke-width:11.3193" transform="translate(-173.106 -315.143)"></path><path d="m320.629 541.97-6.146 2.653-1.46 6.853-10.346 7.827 14.459-4.776" style="fill:#fff;fill-opacity:1;fill-rule:nonzero;stroke:none;stroke-width:11.3193" transform="translate(-173.106 -315.143)"></path><path d="m317.047 554.35-14.414 4.864.132.265 10.39-7.826h.046v-.09l1.415-6.942-.09.132 6.146-2.697-.177-.177-3.493 12.557zm3.537-12.557-6.19 2.653-.09.09v.046l-1.415 6.897.09-.09-10.39 7.826.176.265 14.414-4.775.091-.177 3.493-12.557.177-.353" style="fill:#000;fill-opacity:1;fill-rule:nonzero;stroke:none;stroke-width:11.3193" transform="translate(-173.106 -315.143)"></path><path d="m323.724 525.124 20.295 14.503s-12.115-4.29-13.176-4.643" style="fill:#fff;fill-opacity:1;fill-rule:nonzero;stroke:none;stroke-width:11.3193" transform="translate(-173.106 -315.143)"></path><path d="M330.887 534.365c.928.707 13.043 5.262 13.043 5.262-.09 0-12.734-4.29-13.795-4.51-.09 0-6.411-9.64-6.367-9.86 0 0 6.19 8.224 7.119 9.108" style="fill:#f3751e;fill-opacity:1;fill-rule:nonzero;stroke:none;stroke-width:11.3193" transform="translate(-173.106 -315.143)"></path><path d="M211.15 582.118c16.537-9.949 99.442-51.91 179.826 7.915l-10.833 26.131c-9.374-5.262-73.752-50.45-153.34-5.262" style="fill:#000;fill-opacity:1;fill-rule:nonzero;stroke:none;stroke-width:11.3193" transform="translate(-173.106 -315.143)"></path><path d="M227.422 612.052c31.349-17.907 63.98-23.744 96.965-17.333 26.308 5.085 45.498 16.758 52.794 21.091.972.62 1.813 1.105 2.387 1.46l1.194.663.575-1.238 10.745-26.22.353-.84-.752-.62c-18.659-13.839-38.865-23.301-60.089-28.076-17.598-3.891-36.036-4.687-54.65-2.255-35.418 4.642-61.55 19.499-66.457 22.417l-.972.575.575 1.016 15.652 28.83.62 1.06zm-15.608-28.873c9.462-5.748 95.24-54.076 178.455 7.87l-.443-1.459-10.789 26.176 1.725-.619a32 32 0 0 1-2.388-1.415c-7.296-4.466-26.795-16.271-53.545-21.4-33.516-6.5-66.766-.62-98.646 17.51l1.68.398-15.563-28.697" style="fill:#f3751e;fill-opacity:1;fill-rule:nonzero;stroke:none;stroke-width:11.3193" transform="translate(-173.106 -315.143)"></path><path d="M292.021 619.038h-2.52c0-.663.045-1.105.132-1.37 0-.31.22-.664.443-.885.265-.176.575-.486 1.06-.575.531-.22 1.061-.264 1.769-.264 1.016 0 1.901.22 2.432.486.62.443.884.973.884 1.68 0 .354-.045.752-.265 1.15-.265.443-.62.884-1.016 1.37l-1.504 1.593h2.432v1.591l-6.72.046 3.802-4.378c.487-.442.707-.928.707-1.37 0-.177 0-.353-.22-.443-.133-.176-.265-.22-.531-.22-.353 0-.487.045-.664.264-.09.09-.22.443-.22 1.018M300.378 619.834c0 1.68.442 2.476 1.326 2.432.487 0 .752-.132 1.061-.53.132-.354.309-.93.309-1.725 0-.796-.177-1.504-.309-1.813-.309-.443-.575-.575-1.15-.575-.84 0-1.282.707-1.238 2.21m1.327-3.935c1.326 0 2.255.354 2.918 1.017.663.707.972 1.68.972 3.007 0 1.326-.309 2.299-.972 2.962-.752.708-1.592 1.06-2.918 1.06-1.15 0-2.167-.31-2.83-.927-.707-.708-.972-1.725-1.016-3.184 0-1.194.309-2.167.972-2.874s1.636-1.06 2.785-1.06M309.221 619.79c0 1.724.487 2.432 1.37 2.432.4 0 .752-.177.973-.487.22-.353.309-.928.309-1.724s-.09-1.548-.309-1.902c-.22-.353-.575-.575-1.106-.575-.796 0-1.238.796-1.238 2.255m1.238-3.89c1.327 0 2.3.264 3.007.972.663.663 1.016 1.636 1.016 3.05 0 1.238-.309 2.3-1.016 2.963-.708.707-1.592 1.06-2.874 1.06-1.15 0-2.078-.353-2.83-.972-.707-.663-1.106-1.724-1.106-3.14 0-1.237.31-2.166 1.06-2.917.664-.664 1.592-1.017 2.742-1.017M320.673 618.375c0-.31-.09-.575-.31-.708-.22-.22-.53-.31-.795-.31-.398 0-.663.09-.928.31-.22.133-.309.398-.309.708 0 .353.045.62.265.84s.575.353.928.353c.31 0 .575-.132.796-.353.22-.22.353-.487.353-.84m-1.769 3.581.752-1.193c-.443.09-.752.132-1.06.132-.885 0-1.548-.22-2.079-.663-.487-.443-.796-1.017-.796-1.769 0-.707.354-1.415 1.061-1.857.708-.53 1.592-.752 2.653-.752 1.194 0 2.122.221 2.786.752.707.397 1.06 1.06 1.06 1.857 0 .265-.09.663-.265 1.017-.176.53-.353.972-.619 1.326-.176.353-.884 1.37-1.945 2.83h-2.786" style="fill:#000;fill-opacity:1;fill-rule:nonzero;stroke:none;stroke-width:11.3193" transform="translate(-173.106 -315.143)"></path><path d="M242.676 596.532c-.663.752-2.343 2.078-4.642 3.095-6.721 3.007-11.983.575-14.415-4.863-2.918-6.456.22-12.071 6.102-14.768 2.21-.929 4.156-1.327 5.13-1.283l.618 3.759c-1.06 0-2.432.22-4.023.972-3.45 1.548-5.262 4.775-3.36 9.02 1.724 3.803 5.128 5.129 8.975 3.316 1.37-.53 2.697-1.547 3.449-2.255M243.56 575l2.432 7.649 7.517-2.477-2.388-7.56 4.555-1.46 6.323 19.588-4.599 1.46-2.653-8.137-7.517 2.432 2.61 8.224-4.555 1.327-6.367-19.588M265.801 568.897l4.51 20.119-4.687 1.016-4.466-20.118zM283.001 578.05l-1.813-4.156a76 76 0 0 1-1.547-3.759h-.133c-.132 1.194-.265 2.83-.442 4.024l-.752 4.51zm-4.908 4.2-.796 5.44-4.908.618 3.803-21.312 6.234-.795 9.241 19.631-5.173.664-2.299-4.997M293.657 585.788l.31-20.693 5.659.09 4.244 7.605c1.327 2.211 2.477 4.82 3.405 7.163h.045c-.176-2.74-.265-5.526-.176-8.71l.045-5.97 4.51.091-.353 20.65-5.04-.091-4.467-8.003c-1.193-2.344-2.608-4.908-3.625-7.34l-.133-.09c.133 2.785.133 5.703.09 9.063l-.044 6.28M332.302 588.308c-1.504.22-4.378.397-7.12-.045-3.89-.62-6.499-2.078-8.135-4.156-1.547-2.123-2.21-4.908-1.724-7.915 1.194-6.765 6.898-9.816 13.84-8.578 2.697.443 4.686 1.282 5.615 1.857l-1.548 3.582c-1.15-.664-2.476-1.327-4.73-1.68-3.936-.62-7.43 1.017-8.137 5.394-.751 4.245 1.636 7.118 5.572 7.782 1.016.176 1.9.22 2.343.09l.663-4.244-3.183-.531.575-3.626 7.87 1.37M343.135 580.615l1.812.53c2.255.796 3.891.133 4.555-1.591.486-1.813-.443-3.184-2.61-3.847-1.06-.31-1.68-.531-1.989-.531zm-1.857-9.86c1.591.176 3.846.707 6.19 1.459 3.05 1.017 5.085 2.122 6.057 3.67.973 1.37 1.194 2.918.575 4.73-.795 2.565-3.139 3.67-5.04 3.67l-.046.091c1.239 1.018 1.548 2.52 1.504 4.554-.09 2.432-.31 5.218-.133 6.058l-4.687-1.46c-.132-.707-.176-2.475.046-5.04.22-2.653-.443-3.626-2.344-4.245l-1.37-.442-2.388 7.693-4.643-1.459M365.508 592.464l.663-4.554c.265-1.282.62-2.785.84-4.023l-.09-.046c-.796 1.017-1.813 2.3-2.61 3.184l-3.094 3.36zm-6.456.752-3.625 4.112-4.466-2.122 14.856-15.785 5.616 2.83-3.007 21.444-4.687-2.299.884-5.439M385.14 590.033l-10.745 17.553-3.404-2.255 10.788-17.598zm0 0" style="fill:#fff;fill-opacity:1;fill-rule:nonzero;stroke:none;stroke-width:11.3193" transform="translate(-173.106 -315.143)"></path><path d="m272.787 599.627.046 6.721c0 1.99.972 2.963 2.52 2.963 1.724 0 2.697-.928 2.697-3.007v-6.677l3.184-.045v6.588c0 3.582-2.167 5.306-5.925 5.306-3.582 0-5.704-1.68-5.704-5.306l-.045-6.544" style="fill:#000;fill-opacity:1;fill-rule:nonzero;stroke:none;stroke-width:11.3193" transform="translate(-173.106 -315.143)"></path><path d="m269.427 599.627.045 6.544q.067 5.439 5.836 5.439c4.024 0 6.058-1.901 6.058-5.439v-6.765h-.132l-3.184.046h-.132v6.853c0 1.946-.84 2.874-2.565 2.874-1.503 0-2.432-.972-2.432-2.83l-.045-6.72v-.177h-.09l-3.228.09h-.133zm3.228 0v6.721c0 2.034.972 3.14 2.697 3.14 1.857 0 2.785-1.105 2.785-3.184l-.045-6.677-.045.133h3.183l-.132-.177.045 6.588c0 3.317-2.034 5.13-5.836 5.13-3.67 0-5.483-1.725-5.527-5.13l-.046-6.544-.176.177h3.228M284.062 611.3l-.045-11.717 3.802-.045 3.007 4.289c.84 1.238 1.636 2.653 2.344 4.023-.221-1.591-.265-3.139-.265-4.908v-3.404h2.962l.045 11.673h-3.448l-3.051-4.466c-.752-1.282-1.725-2.83-2.432-4.112h-.133c.177 1.547.177 3.14.177 5.085v3.493" style="fill:#000;fill-opacity:1;fill-rule:nonzero;stroke:none;stroke-width:11.3193" transform="translate(-173.106 -315.143)"></path><path d="m287.202 611.212-.09-3.449c0-2.078 0-3.714-.091-5.173l-.177.132h.132l-.132-.09c.707 1.459 1.813 3.095 2.565 4.2l3.006 4.466h3.582V599.36h-3.272v.176l.045 3.405c0 1.945.09 3.493.309 4.908l.09-.177.046.09c-.708-1.458-1.46-2.873-2.388-4.023l-2.874-4.2-.09-.177h-.046l-3.802.045h-.09v.177l.045 11.717h3.227zm-3.007.09-.045-11.717-.133.09h3.803l-.177-.045 3.007 4.245c.84 1.105 1.636 2.565 2.432 3.98v.09h.22l-.045-.177a69 69 0 0 1-.177-4.819v-3.405l-.22.133h3.05l-.176-.133v11.673l.177-.176h-3.45l.177.045-3.095-4.466a61 61 0 0 1-2.476-4.068v-.09h-.353v.176c.132 1.415.177 3.051.177 5.13l.045 3.448.09-.132h-2.962M301.881 599.539l.045 11.673H298.7l-.09-11.673zm0 0" style="fill:#000;fill-opacity:1;fill-rule:nonzero;stroke:none;stroke-width:11.3193" transform="translate(-173.106 -315.143)"></path><path d="m298.565 599.539.045 11.673v.09h3.405v-.09l-.045-11.673v-.177h-3.405zm3.14 0 .132 11.673.045-.177H298.7l.176.177-.09-11.673-.177.09h3.272M307.452 601.661l-3.846.046v-2.167l10.965-.09.045 2.21h-3.935l.09 9.419-3.316.132" style="fill:#000;fill-opacity:1;fill-rule:nonzero;stroke:none;stroke-width:11.3193" transform="translate(-173.106 -315.143)"></path><path d="M307.452 611.3h3.405v-9.639l-.177.177 3.936-.045h.09v-2.52h-.132l-10.966.09h-.132v2.476h3.98l-.133-.177.09 9.551v.09zm0-9.727h-3.846l.132.132v-2.166l-.132.09h10.965l-.09-.176v2.21l.132-.132-3.935.045h-.221v.091l.132 9.418.177-.09h-3.316l.132.22v-9.639M324.785 606.171h-5.217v2.786l5.88-.09v2.21h-9.02l-.09-11.628 8.799-.046v2.167h-5.571v2.432l5.217-.046" style="fill:#000;fill-opacity:1;fill-rule:nonzero;stroke:none;stroke-width:11.3193" transform="translate(-173.106 -315.143)"></path><path d="m324.785 603.828-5.217.045.09.177v-2.476l-.09.132 5.57-.045h.133v-2.388h-9.064v11.938h9.33v-2.432h-5.97l.09.177v-2.786l-.09.133h5.395v-2.476zm0 2.122-5.217.09h-.133v3.096h.133l5.88-.045-.132-.133v2.123l.132-.177-9.02.045.046.133v-11.63l-.133.133 8.8-.045-.177-.132v2.166l.176-.09h-5.748v2.697h5.394l-.09-.221v2.21M330.887 609.045c.265.09.707.09 1.15.09 2.918 0 4.775-1.326 4.775-4.155 0-2.477-1.725-3.626-4.466-3.626-.752 0-1.194.045-1.503.132zm-3.272-9.462c1.15-.22 2.653-.309 4.333-.309 2.741 0 4.554.353 5.837 1.194 1.503.928 2.52 2.388 2.52 4.466 0 2.166-1.017 3.758-2.344 4.73-1.503 1.017-3.758 1.548-6.588 1.548-1.768 0-2.918-.132-3.714-.176" style="fill:#000;fill-opacity:1;fill-rule:nonzero;stroke:none;stroke-width:11.3193" transform="translate(-173.106 -315.143)"></path><path d="M327.659 611.212c.707 0 1.946.09 3.714.09 2.83 0 5.173-.53 6.633-1.547 1.105-.708 2.387-2.255 2.343-4.82 0-1.99-.84-3.581-2.432-4.554-1.415-.84-3.183-1.238-5.97-1.238-1.68.045-3.183.133-4.332.31h-.09v.176l.045 11.363v.09zm0-11.452c1.106-.22 2.609-.31 4.289-.31 2.741-.045 4.466.353 5.792 1.194 1.548.884 2.344 2.387 2.344 4.289.045 2.476-1.15 3.846-2.3 4.598-1.37.973-3.581 1.504-6.41 1.504-1.77 0-2.963-.133-3.715-.177l.177.132-.09-11.407" style="fill:#000;fill-opacity:1;fill-rule:nonzero;stroke:none;stroke-width:11.3193" transform="translate(-173.106 -315.143)"></path><path d="M330.887 601.573c.176 0 .53-.133 1.459-.133 1.99 0 4.377.62 4.377 3.538 0 1.194-.398 2.122-1.016 2.785-.752.796-2.123 1.283-3.67 1.194-.399.09-.884.09-1.15 0l.177.133-.09-7.65zm-.09 7.605h1.237c1.68 0 3.051-.398 3.803-1.238.796-.708 1.238-1.724 1.238-2.963-.09-2.431-1.769-3.802-4.731-3.802-.928 0-1.282.09-1.548.177h-.09v.09l.045 7.65v.09" style="fill:#000;fill-opacity:1;fill-rule:nonzero;stroke:none;stroke-width:11.3193" transform="translate(-173.106 -315.143)" data-source="https://football-logos.cc"></path><!-- source: https://football-logos.cc --></svg>