<svg xmlns="http://www.w3.org/2000/svg" viewBox="69.02 122.18 456.83 597.57"><!-- Source: https://football-logos.cc --><path d="M69.922 123.079H524.95v281.677c0 153.816-78.873 266.677-226.142 313.648l-1.371.437-1.372-.437C148.794 671.433 69.922 558.572 69.922 404.756Z" style="fill:#c4c6c8;fill-rule:evenodd;stroke:#c4c6c8;stroke-width:1.80540001;stroke-linecap:butt;stroke-linejoin:miter;stroke-dasharray:none" data-source="https://football-logos.cc"></path><path d="M74.436 127.592h446v277.164c0 152.742-78.432 263.237-223 309.348-144.569-46.11-223-156.607-223-309.348Z" style="fill:#fff;fill-rule:evenodd;stroke:#c4c6c8;stroke-width:1.80540001;stroke-linecap:butt;stroke-linejoin:miter;stroke-dasharray:none"></path><path d="M395.137 225.34h102.73v66.596c-61.157 2.035-111.825 23.6-136.034 76.55-21.18-46.92-13.973-102.139 27.365-137.994z" style="fill:#e11e37;fill-rule:evenodd;stroke:#e11e37;stroke-width:1.80540001;stroke-linecap:butt;stroke-linejoin:miter;stroke-dasharray:none"></path><path d="M184.242 459.552c15.464-.585 21.756-10.615 27.929-24.965 11.21-26.062 34.82-36.91 58.817-41.046-7.872 5.473-14.555 11.737-19.042 19.466 6.7 14.615 6.987 26.024.643 34.115-6.207 7.916-16.226 21.122-37.457 14.123-10.867 8.574-21.15 7.788-30.89-1.693z" style="fill:#102c52;fill-rule:evenodd;stroke:#102c52;stroke-width:1.80540001;stroke-linecap:butt;stroke-linejoin:miter;stroke-dasharray:none"></path><path d="M302.38 225.34h53.916a138.7 138.7 0 0 0-25.714 45.38c-16.005 47.26-5.397 98.3 23.603 138.19l17.418 23.958 6.722-28.848c14.397-61.782 61.073-82.937 119.543-84.996v85.732c0 20.978-1.567 41.087-4.656 60.275-74.871-48.805-161.282-7.583-172.081 80.632-40.994 8.855-78.333 1.862-112.557-18.619 17.397 39.063 55.55 61.825 88.862 69.54 27.437 6.354 71.418 18.41 88.86-19.608 8.045-17.536-3.832-32.01-25.389-41.469 28.264-45.667 82.858-46.827 112.365-.088-30.713 72.422-89.899 125.787-175.836 154.928C165.88 645.737 97.004 544.37 97.004 404.756v-7.93c100.974-15.154 167.678-76.102 205.377-171.485Z" style="fill:#102c52;fill-rule:evenodd;stroke:#102c52;stroke-width:1.80540001;stroke-linecap:butt;stroke-linejoin:miter;stroke-dasharray:none" data-source="https://football-logos.cc"></path><path d="M97.004 225.34h176.093c-34.115 79.355-90.534 129.954-176.093 144.073Z" style="fill:#e11e37;fill-rule:evenodd;stroke:#e11e37;stroke-width:1.80540001;stroke-linecap:butt;stroke-linejoin:miter;stroke-dasharray:none"></path><path d="M263.956 584.068c6.682-10.486 10.4-22.695 11.361-35.097 8.867.7 17.917.595 27.16-.34-.89 16.039-5.248 31.844-13.161 45.796a142.4 142.4 0 0 1-25.36-10.359z" style="fill:#90724a;fill-rule:evenodd;stroke:#90724a;stroke-width:1.80540001;stroke-linecap:butt;stroke-linejoin:miter;stroke-dasharray:none"></path><path d="M98.768 150.655h45.277v12.271h-16.503v45.277h-12.271v-45.277H98.768ZM187.206 208.203V189.16h-24.12v19.042h-12.27v-57.548h12.27v26.234h24.12v-26.234h12.272v57.548zM268.874 208.203v-57.548h12.271v57.548zM303.572 195.931h21.58v12.272h-33.851v-57.548h12.271zM427.554 188.66v-38.005h12.271v57.548l-14.06.748-22.33-35.728v34.98h-12.271v-57.548h12.27v.228l.366-.228zM223.701 186.199h23.489c-1.277-10.715-4.322-18.684-11.745-23.273-7.422 4.589-10.467 12.558-11.744 23.273zm24.292 12.272h-25.095c-.089 3.094-.124 6.34-.147 9.732h-13.118c-1.166-34.326 3.708-52.7 25.812-59.663 22.105 6.962 26.979 25.337 25.813 59.663H248.14a455 455 0 0 0-.147-9.732zM345.567 186.199h23.489c-1.276-10.715-4.322-18.684-11.744-23.273-7.422 4.589-10.468 12.558-11.745 23.273zm24.292 12.272h-25.095c-.088 3.094-.124 6.34-.147 9.732h-13.118c-1.166-34.326 3.708-52.7 25.813-59.663 22.104 6.962 26.978 25.337 25.812 59.663h-13.117a454 454 0 0 0-.148-9.732zM447.866 150.655h13.963999999999999v.08c19.303.833 33.365 8.331 40.622 29.117-7.727 22.13-23.165 29.197-44.43 29.197l-.06-.846h-10.096zm13.964 12.271v33.852c15.992 0 22.513-4.21 26.233-16.926-3.72-12.717-10.24-16.926-26.233-16.926z" style="fill:#102c52;fill-rule:evenodd;stroke:#102c52;stroke-width:1.80540001;stroke-linecap:butt;stroke-linejoin:miter;stroke-dasharray:none" data-source="https://football-logos.cc"></path><!-- source: https://football-logos.cc --></svg>