<svg xmlns="http://www.w3.org/2000/svg" viewBox="0 0 535.88 767.06"><!-- Source: https://football-logos.cc --><path d="M99.711 610.967c2.615-38.862 3.055-77.818 3.603-116.75.49-34.817.798-69.638.81-104.458.014-33.745-.241-67.497-.964-101.235-.663-30.918-1.696-61.865-3.53-92.737l-.027-.447.334-.3c8.755-7.865 18.267-14.523 28.48-20.352 16.355-9.334 33.915-16.011 51.831-21.662 37.86-11.941 80.363-15.546 119.926-15.546 16.997 0 34.07 1.083 50.95 3.046 12.259 1.425 24.48 3.328 36.577 5.769 12.704 2.563 25.314 5.988 37.59 10.142 25.292 8.56 49.828 20.188 69.803 38.229l.325.293-.02.436c-2.984 69.768-4.367 139.713-4.333 209.544.012 24.878-.18 49.757-.005 74.635.306 43.789 2.082 87.532 4.584 131.245l.027.484-.38.3c-57.854 45.6-126.111 77.051-198.01 92.758l-.219.049-.217-.058c-70.264-18.645-139.51-47-196.786-92.595l-.382-.303z" style="fill:#484848;fill-rule:evenodd" transform="translate(-134.763 -186.011)scale(1.353)" data-source="https://football-logos.cc"></path><path d="M297.084 703.453c-69.983-18.57-139.203-46.856-196.445-92.423 2.623-38.988 3.059-78.03 3.605-116.8 1.398-99.215 1.462-211.861-3.686-298.498 9.045-8.126 18.455-14.606 28.32-20.237 15.905-9.077 32.996-15.699 51.65-21.582 37.506-11.83 80.444-15.503 119.646-15.503 28.15 0 59 3.079 87.344 8.797 13.356 2.694 26.178 6.288 37.475 10.11 25.694 8.696 49.854 20.316 69.478 38.039-2.922 68.296-4.369 141.204-4.335 209.583.012 25.165-.178 49.954-.005 74.642.305 43.603 2.036 86.748 4.585 131.291-57.99 45.708-126.166 76.968-197.632 92.581" style="fill:#fff;fill-rule:evenodd" transform="translate(-134.763 -186.011)scale(1.353)"></path><path d="M478.007 495.5c.47 34.117 1.806 69.2 4.445 108.187-37.363 29.45-77.384 51.083-117.124 66.555-2.015-4.331-3.956-8.02-6.007-14.22l-.155 6.115-10.473 14.235a498 498 0 0 1-45.053 13.324l22.353-16.524c-4.007-13.765-5.262-18.53-9.413-28.55-.27-.653-.431-1.528-.353-2.175.307-2.544 2.373-5.24 3.489-8.103-2.891 2.27-4.426 5.345-8.176 5.937-1.38.217-4.29-.365-7.47-.631-3.598-.303-7.37-.167-10.98.069-4.81.315-7.631.984-9.718.562-3.077-.624-5.083-3.787-7.621-5.757 1.62 3.566 2.955 5.74 3.384 7.64.224.995.057 2.03-.307 2.905-1.907 4.589-3.228 7.628-4.643 12.072-1.25 3.922-2.37 8.78-4.721 16.283l21.487 16.106a606 606 0 0 1-45.263-14.418l-9.547-12.975-.155-6.115c-1.906 5.765-3.718 9.359-5.583 13.317-39.273-15.453-81.482-36.944-117.543-65.652 2.064-34.799 2.916-71.333 3.255-108.187zm-180.401 96.897c32.024 0 59.009 20.29 69.417 48.712-.934-1.625-7.127-12.648-13.794-20.284-.278 2.794.057 5.115.334 7.128.379 2.76.843 4.368 1.166 8.911-1.52-2.595-3.53-4.203-6.06-4.726-6.353-1.312-13.786-4.413-19.234-5.336-2.099-.355-3.45.3-5.34 1.736.8-1.97.915-3.229.225-4.64-1.235-2.522-3.144-5.071-5.57-8.202-2.528-3.263-5.749-9.136-8.152-10.57-1.287-.768-3.103-1.443-4.76-1.915 3.16-.583 6.015-1.161 10.001-1.643 2.237-.27 4.684-.166 6.803-.715l.007-.003c-.43-.225-.765-.38-.985-.451-7.492-2.41-15.565-3.663-24.059-3.663-8.375 0-17.623 1.567-25.08 3.962 2.12.549 4.567.444 6.803.714 3.987.483 6.841 1.06 10.001 1.643-1.656.473-3.473 1.148-4.76 1.916-2.403 1.434-5.623 7.307-8.152 10.57-2.426 3.13-4.335 5.68-5.57 8.202-.69 1.41-.574 2.67.225 4.64-1.889-1.437-3.24-2.091-5.34-1.736-5.447.923-12.88 4.024-19.233 5.336-2.531.523-4.54 2.13-6.06 4.726.323-4.543.787-6.15 1.166-8.911.276-2.014.612-3.869.334-6.664-6.504 7.462-9.591 12.971-13.756 20.306 10.398-28.249 37.363-49.043 69.422-49.043z" style="fill:#007d3a;fill-rule:evenodd" transform="translate(-134.763 -186.011)scale(1.353)"></path><path d="M113.015 203.453c21.134-18.986 45.95-30.927 72.512-39.306 37.588-11.86 78.059-15.509 114.182-15.509 38.532 0 82.945 5.615 121.71 19.85 23.259 8.541 44.33 20.186 61.034 35.585-3.296 66.414-4.751 133.288-4.715 200.872.015 27.721-.109 54.397.163 81.525H116.188c.202-28.72.127-57.566.106-85.867-.05-65.548 1.283-137.912-3.28-197.15z" style="fill:#19417d;fill-rule:evenodd" transform="translate(-134.763 -186.011)scale(1.353)"></path><path d="M147.342 546.613a.913.913 0 0 0 .907.907h5.636a.9.9 0 0 0 .629-.278.9.9 0 0 0 .279-.63v-11.605h10.889a.9.9 0 0 0 .629-.279.9.9 0 0 0 .278-.628v-5.206a.92.92 0 0 0-.278-.637.9.9 0 0 0-.63-.27h-10.888v-6.878h13.23a.91.91 0 0 0 .907-.907v-5.206a.93.93 0 0 0-.255-.637q-.249-.261-.653-.27H148.25c-.271.007-.486.095-.653.27a.93.93 0 0 0-.255.637zm26.889 0a.91.91 0 0 0 .255.628.9.9 0 0 0 .652.28h19.773a.91.91 0 0 0 .907-.908v-5.206a.913.913 0 0 0-.907-.908h-13.23v-6.447h10.89a.91.91 0 0 0 .907-.907v-5.206a.92.92 0 0 0-.279-.637.9.9 0 0 0-.628-.27h-10.89v-5.923h13.23a.91.91 0 0 0 .907-.907v-5.206a.93.93 0 0 0-.254-.637q-.249-.261-.653-.27h-19.773q-.403.009-.652.27a.93.93 0 0 0-.255.637zm27.988 0a.93.93 0 0 0 .254.636.93.93 0 0 0 .653.271h5.683a.93.93 0 0 0 .63-.27.92.92 0 0 0 .278-.637v-12.131h3.295l6.352 12.608a.73.73 0 0 0 .279.287.9.9 0 0 0 .485.143h6.352q.406-.01.645-.223a.85.85 0 0 0 .287-.525 1 1 0 0 0-.12-.629l-6.543-12.091c1.393-.565 2.619-1.313 3.678-2.26a10.3 10.3 0 0 0 2.483-3.28q.896-1.863.908-4.084a10.3 10.3 0 0 0-.82-4.027 10.35 10.35 0 0 0-2.237-3.28 10.45 10.45 0 0 0-3.311-2.22c-1.25-.534-2.603-.805-4.044-.813h-14.28q-.404.01-.653.271a.93.93 0 0 0-.255.637zm7.498-18.197v-7.498h7.068a3.65 3.65 0 0 1 1.815.493q.813.49 1.313 1.314a3.6 3.6 0 0 1 .502 1.847 3.9 3.9 0 0 1-.502 1.894 4.1 4.1 0 0 1-1.313 1.401 3.33 3.33 0 0 1-1.815.55zm21.013 19.104h5.255c.477-.016.851-.135 1.13-.358.278-.23.47-.494.589-.788l1.72-3.82h12.99l1.72 3.772c.206.446.429.756.676.94.246.175.573.262.995.254h5.301c.366-.016.629-.143.78-.39.16-.247.167-.525.032-.852l-14.949-32.142a.94.94 0 0 0-.334-.374.85.85 0 0 0-.478-.151h-.477a.9.9 0 0 0-.478.15 1.1 1.1 0 0 0-.334.375l-14.949 32.142c-.135.327-.127.605.032.852.151.247.414.374.78.39zm11.559-11.462 3.582-7.88h.047l3.63 7.88zm23.545 10.555a.91.91 0 0 0 .255.628.9.9 0 0 0 .653.28h17.957a.91.91 0 0 0 .908-.908v-5.206a.91.91 0 0 0-.908-.908h-11.367v-25.503a.92.92 0 0 0-.278-.637.9.9 0 0 0-.629-.27h-5.683c-.271.007-.486.095-.653.27a.93.93 0 0 0-.255.637zm24.406 0a.91.91 0 0 0 .254.628.9.9 0 0 0 .653.28h5.636a.9.9 0 0 0 .628-.28.9.9 0 0 0 .279-.628v-11.224h5.015a10.5 10.5 0 0 0 4.123-.844 10.9 10.9 0 0 0 3.391-2.308 11.1 11.1 0 0 0 2.292-3.415c.55-1.297.836-2.69.844-4.179a10.4 10.4 0 0 0-.844-4.091 10.8 10.8 0 0 0-5.707-5.628c-1.281-.55-2.667-.828-4.147-.836h-11.51q-.404.01-.653.271a.93.93 0 0 0-.254.637zm7.45-18.197v-7.307h4.537c.693.008 1.322.16 1.895.47a3.7 3.7 0 0 1 1.36 1.257q.504.79.518 1.807c-.008.725-.183 1.37-.517 1.934a3.8 3.8 0 0 1-1.361 1.338 3.85 3.85 0 0 1-1.895.501zm20.537 18.197a.9.9 0 0 0 .278.628.9.9 0 0 0 .63.28h5.73a.9.9 0 0 0 .63-.28.9.9 0 0 0 .278-.628v-31.617a.92.92 0 0 0-.279-.637.9.9 0 0 0-.629-.27h-5.73a.9.9 0 0 0-.63.27.92.92 0 0 0-.278.637zm14.089-2.293c.27.287.7.63 1.274 1.035.565.406 1.297.812 2.18 1.218.892.398 1.935.732 3.145 1.003 1.218.27 2.594.414 4.147.422 1.759-.016 3.335-.295 4.72-.852 1.393-.557 2.571-1.306 3.55-2.245.971-.947 1.712-1.998 2.229-3.168a9 9 0 0 0 .772-3.621q-.012-1.947-.645-3.487a9.6 9.6 0 0 0-1.68-2.73q-1.05-1.183-2.315-2.07a20.6 20.6 0 0 0-2.571-1.528 33 33 0 0 0-2.436-1.075c-1.25-.51-2.26-1.003-3.025-1.488q-1.147-.73-1.672-1.497c-.342-.517-.517-1.066-.51-1.648.009-.437.136-.835.399-1.202a2.74 2.74 0 0 1 1.066-.89c.454-.224.964-.335 1.545-.343a7 7 0 0 1 2.237.414c.756.262 1.456.573 2.109.931.653.35 1.202.677 1.648.971q.656.442.835.55c.152.103.327.143.542.103.207-.04.414-.127.613-.255.19-.135.35-.294.47-.47l2.435-3.677q.098-.182.135-.47c.024-.199.008-.39-.047-.589a.83.83 0 0 0-.375-.47q-.538-.405-1.504-1.002c-.637-.398-1.401-.788-2.277-1.186a17.5 17.5 0 0 0-2.945-.98c-1.082-.27-2.252-.405-3.494-.413-1.839.016-3.447.286-4.824.82-1.385.533-2.531 1.25-3.447 2.157-.923.907-1.615 1.918-2.07 3.048a9.1 9.1 0 0 0-.692 3.479c.008 1.146.2 2.189.574 3.144a9.3 9.3 0 0 0 1.504 2.58 12.8 12.8 0 0 0 2.149 2.06 18 18 0 0 0 2.5 1.6c.86.454 1.71.845 2.539 1.17q2.436.959 3.677 2.142c.828.788 1.242 1.687 1.242 2.682-.008.566-.151 1.06-.43 1.49a2.8 2.8 0 0 1-1.162 1.002c-.494.247-1.059.366-1.703.374a8.1 8.1 0 0 1-2.365-.398 13.4 13.4 0 0 1-2.133-.875 21 21 0 0 1-1.584-.9 27 27 0 0 1-.7-.454 1.1 1.1 0 0 0-.486-.167 1.4 1.4 0 0 0-.621.048 1 1 0 0 0-.517.406l-2.245 3.964c-.127.215-.199.398-.215.541a.55.55 0 0 0 .096.382c.08.12.199.263.358.414m24.357 3.2h5.254q.714-.024 1.13-.358c.279-.23.47-.494.59-.788l1.719-3.82h12.99l1.72 3.772c.206.446.43.756.676.94.247.175.573.262.995.254h5.301c.366-.016.63-.143.78-.39.16-.247.168-.525.032-.852l-14.949-32.142a.94.94 0 0 0-.334-.374.85.85 0 0 0-.477-.151h-.478a.9.9 0 0 0-.478.15 1.1 1.1 0 0 0-.334.375l-14.949 32.142c-.135.327-.127.605.032.852.151.247.414.374.78.39m11.558-11.462 3.582-7.88h.048l3.63 7.88zm23.546 10.555a.913.913 0 0 0 .907.907h17.958a.91.91 0 0 0 .907-.908v-5.205a.91.91 0 0 0-.907-.908h-11.367v-25.503a.92.92 0 0 0-.279-.637.9.9 0 0 0-.628-.27h-5.684q-.404.009-.653.27a.93.93 0 0 0-.254.637zm21.778-15.761c.008 1.918.294 3.733.868 5.453a17 17 0 0 0 2.42 4.712 17 17 0 0 0 3.693 3.693c1.425 1.043 3 1.855 4.712 2.42 1.72.573 3.534.86 5.453.868 1.918-.008 3.741-.295 5.46-.868a17 17 0 0 0 4.72-2.42 17 17 0 0 0 3.71-3.693 17 17 0 0 0 2.436-4.713q.858-2.577.867-5.452c-.008-1.918-.294-3.741-.867-5.46a17 17 0 0 0-2.436-4.737 17.2 17.2 0 0 0-3.71-3.725c-1.432-1.05-3-1.87-4.72-2.444a17.4 17.4 0 0 0-5.46-.875 17.4 17.4 0 0 0-5.453.875 17 17 0 0 0-8.406 6.17 17 17 0 0 0-2.42 4.735c-.573 1.72-.859 3.543-.867 5.46zm7.642 0a9.5 9.5 0 0 1 .756-3.717 9.7 9.7 0 0 1 5.07-5.126 9.3 9.3 0 0 1 3.678-.757 9.5 9.5 0 0 1 3.71.756 9.8 9.8 0 0 1 3.04 2.07 9.9 9.9 0 0 1 2.046 3.057c.5 1.154.748 2.396.756 3.717-.008 1.314-.255 2.54-.756 3.678a9.6 9.6 0 0 1-2.046 3.024 9.6 9.6 0 0 1-3.04 2.046 9.5 9.5 0 0 1-3.71.756 9.3 9.3 0 0 1-3.678-.756 9.5 9.5 0 0 1-3.024-2.046 9.5 9.5 0 0 1-2.046-3.024 9.3 9.3 0 0 1-.756-3.678m12.895-19.725c.31.175.573.215.788.104.215-.104.382-.287.501-.534l1.003-2.006q.134-.286.016-.525a1 1 0 0 0-.302-.382l-8.12-4.967a1.2 1.2 0 0 0-.397-.143 1.1 1.1 0 0 0-.478.016.57.57 0 0 0-.366.27l-1.624 2.818q-.263.535-.143.892c.087.239.23.422.43.541zm-163.645 62.791a.465.465 0 0 0 .463.463h9.754a.47.47 0 0 0 .325-.142.45.45 0 0 0 .139-.321v-2.195a.46.46 0 0 0-.139-.32.47.47 0 0 0-.325-.143h-4.292q.44-.61.988-1.361.548-.744 1.114-1.525.562-.78 1.044-1.487.482-.706.78-1.236c.195-.378.366-.723.508-1.044s.248-.646.326-.984q.116-.507.117-1.142a4.9 4.9 0 0 0-.373-1.91 4.6 4.6 0 0 0-1.086-1.57 5 5 0 0 0-1.739-1.056q-1.025-.384-2.337-.39a5.6 5.6 0 0 0-1.622.248c-.5.158-.947.358-1.35.593a8 8 0 0 0-1.678 1.3c-.15.16-.227.24-.227.249a.46.46 0 0 0-.114.333.41.41 0 0 0 .138.301l1.488 1.512a.48.48 0 0 0 .341.146.48.48 0 0 0 .341-.146c.16-.179.358-.358.598-.545q.36-.281.813-.471c.3-.13.622-.2.955-.203.455.004.845.085 1.162.248.321.162.565.373.732.642q.251.396.252.865a2.9 2.9 0 0 1-.2 1 4.4 4.4 0 0 1-.434.854q-.366.553-.878 1.296c-.345.492-.72 1.025-1.122 1.59a308 308 0 0 1-2.479 3.405 189 189 0 0 1-1.114 1.504q-.51.683-.87 1.154zm19.582.707q1.994-.013 3.385-1.024 1.39-1.018 2.122-2.926.73-1.903.736-4.585-.005-2.68-.736-4.589-.732-1.903-2.122-2.922-1.391-1.011-3.385-1.024c-1.33.008-2.455.35-3.386 1.024q-1.39 1.02-2.122 2.922c-.487 1.273-.731 2.8-.735 4.59q.005 2.681.735 4.584.732 1.908 2.122 2.926c.93.675 2.056 1.016 3.386 1.024m0-3.536c-.496 0-.919-.195-1.26-.581q-.52-.577-.789-1.69-.268-1.117-.268-2.728c0-1.069.09-1.971.268-2.715q.27-1.114.789-1.699c.341-.386.764-.585 1.26-.585.495 0 .918.2 1.264.585.341.39.605.956.784 1.699s.268 1.646.268 2.715q0 1.61-.268 2.728c-.179.743-.443 1.304-.784 1.69q-.52.58-1.264.581m15.216 3.536q1.996-.013 3.386-1.024 1.39-1.018 2.121-2.926.731-1.903.736-4.585-.005-2.68-.736-4.589-.73-1.903-2.121-2.922-1.392-1.011-3.386-1.024-1.992.013-3.385 1.024-1.39 1.02-2.122 2.922c-.487 1.273-.732 2.8-.736 4.59q.005 2.681.736 4.584.732 1.908 2.122 2.926 1.393 1.012 3.385 1.024m0-3.536q-.745-.001-1.26-.581-.52-.577-.788-1.69-.269-1.117-.268-2.728c0-1.069.089-1.971.268-2.715q.27-1.114.788-1.699c.342-.386.764-.585 1.26-.585s.919.2 1.264.585q.515.585.785 1.699c.179.744.268 1.646.268 2.715q0 1.61-.268 2.728-.271 1.113-.785 1.69-.519.58-1.264.581m10.145 1.415.707 1.877a.62.62 0 0 0 .284.358q.196.105.472.033a10 10 0 0 0 1.158-.427q.675-.285 1.447-.736a12.6 12.6 0 0 0 1.56-1.08 11.3 11.3 0 0 0 1.509-1.46q.72-.835 1.288-1.882a10.1 10.1 0 0 0 .894-2.329q.33-1.28.337-2.816a8.7 8.7 0 0 0-.385-2.642 6.1 6.1 0 0 0-1.135-2.101 5.1 5.1 0 0 0-1.845-1.39q-1.09-.495-2.512-.5a5.5 5.5 0 0 0-2.158.439q-1.007.434-1.776 1.199a5.7 5.7 0 0 0-1.207 1.776 5.5 5.5 0 0 0-.443 2.17q.005 1.08.285 1.935.277.854.764 1.487.481.629 1.105 1.045.624.414 1.313.622.693.202 1.386.203.336-.001.752-.07.414-.062.829-.174.413-.11.736-.244-.166.752-.598 1.346a5 5 0 0 1-1.02 1.04q-.584.45-1.211.772c-.415.212-.809.386-1.17.524q-.55.207-.903.317c-.24.073-.39.175-.451.297a.51.51 0 0 0-.012.41zm3.828-7.024a2.3 2.3 0 0 1-1.182-.325 2.4 2.4 0 0 1-.838-.853 2.3 2.3 0 0 1-.32-1.187 2.3 2.3 0 0 1 .32-1.17q.312-.53.838-.846a2.3 2.3 0 0 1 2.365 0q.526.316.837.846.317.53.321 1.17a2.33 2.33 0 0 1-.32 1.187 2.4 2.4 0 0 1-.838.853 2.3 2.3 0 0 1-1.183.326zm64.215-258.644c4.35 2.224 15.487 3.4 21.633 2.811 8.985-.862 19.313-2.534 22.139-4.961 6.049-5.197 5.302-13.922 1.39-16.09-8.737-1.607-14.34-5.439-15.445-9.857 13.708 2.159 26.8.947 32.122-2.467-5.886-4.548-10.839-9.852-17.905-14.052 1.743-.32 3.759-1.186 5.502-2.052-2.227-6.524-5.209-11.601-9.648-16.145-4.17-4.267-9.582-8.084-18.313-11.708 1.054 4.268 2.555 7.632 3.308 11.448-5.925-3.177-11.44-6.491-17.365-9.805a28.2 28.2 0 0 0-1.887 5.394c-6.141-3.834-17.315-4.477-23.994-2.243-6.273 2.1-10.853 5.908-14.756 10.457 18.952 1.74 39.007 5.83 58.36 12.795-1.908 0-3.816.273-5.724.273 1.188 3.35 2.649 6.7 4.11 10.05-3.325-3.431-7.06-6.59-10.794-10.022-4.658.606-9.735 1.98-14.494 3.147-2.086.512-2.929.488-4.677-.707l-10.24-6.907c-2.573 8.12-3.962 13.317-6.957 19.805-2.329 5.046-6.013 10.25-8.085 15.509-.774 1.963-.859 4.627-1.608 6.619 18.452-6.942 35.697-10.38 45.486-7.424-8.669 1.33-17.194 4.155-22.152 9.504 11.171-1.837 26.922-2.75 35.272-1.262-9.574 1.94-21.43 3.832-25.278 7.89" style="fill:#fff;fill-rule:evenodd" transform="translate(-134.763 -186.011)scale(1.353)"></path><path d="M444.497 279.54c-3.174 6.97-6.91 9.84-10.704 11.242.616 1.818 1.09 2.033 1.121 4.495.025 1.973-.518 3.92-1.752 6.01 2.734 3.048 5.741 6.644 8.475 9.693 3.856-5.366 5.9-11.747 6.081-18.089.14-4.933-.79-9.677-3.22-13.35zm-13.059 29.35c8.984 9.187 10.827 21.855 3.998 32.55-.384-5.642-1.814-10.678-4.196-14.382 1.29 13.574-6.256 24.848-20.391 32.044 2.204-4.585 4.284-8.574 2.931-12.332-2.19-6.085-8.198-9.455-8.973-15.808-.653-5.356 1.69-9.98 7.033-14.018 4.426-3.345 11.05-6.105 19.598-8.053zm-33.485 8.333c-2.013 5.338-2.53 8.935-2.085 12.952.77 6.942 2.502 12.246 2.129 17.728-.564 8.278-5.058 15.795-17.96 21.84 3.412-5.644 4.757-14.986 2.229-21.05-1.352 7.526-3.704 13.846-7.04 18.894-4.564 6.904-10.854 11.548-17.86 14.735 7.018-13.945 10.372-23.554 11.456-35.087 1.19-12.669-1.477-24.684-8.096-36.835 9.603.798 21.123 8.072 24.997 21.383.766-3.249 2.41-5.738 4.409-8.164 2.104-2.553 4.754-4.734 7.821-6.396" style="fill:#fff;fill-rule:evenodd" transform="translate(-134.763 -186.011)scale(1.353)"></path><path d="M351.605 361.294c4.145-3.63 7.469-9.323 8.477-15.094 1.985-11.364-5.838-22.306-12.207-33.132-3.453-5.868-6.696-11.8-6.898-20.566-.255-11.059 7.025-27.178 17.35-35.624-16.544-.753-28.022 13.325-29.157 32.369-.428 7.164.8 16.926 12.156 27.612l-4.786.476c13.984 7.171 18.322 21.03 18.066 30.15-.14 4.991-1.366 9.778-3.001 13.809m-7.437-109.851c-3.837.02-7.029.076-9.994 1.104-3.482 1.206-5.948 3.23-8.391 5.313-4.076 3.473-8.417 9.848-11.047 14.306-2.61-11.33-6.705-13.61-10.482-16.649 3.024-1.363 7.87-3.263 11.352-4.289 7.458-2.197 19.304-3.309 28.562.215m8.172-16.101c-2.866-.377-4.838-.11-6.411.47-3.338 1.231-4.88 4.015-9.341 6.25-5.106 2.558-12.688 3.233-17.497 2.62 5.037-1.804 10.225-5.107 12.23-7.592-13.512 5.024-23.13 7.322-31.047 7.057-4.147-.139-7.83-1.08-11.36-2.488 5.771-.125 9.215-.838 13.653-2.4 5.751-2.025 10.054-4.542 15.62-7.015 6.308-2.804 13.822-4.898 19.122-4.602 6.175.345 10.98 2.368 15.031 7.7" style="fill:#fff;fill-rule:evenodd" transform="translate(-134.763 -186.011)scale(1.353)" data-source="https://football-logos.cc"></path><path d="M351.01 223.98c-5.693-1.737-11.803-2.845-18.651-2.622-8.01.262-16.847 2.385-26.592 5.801 2.884-5.033 10.54-11.013 17.805-11.77-6.233.128-11.383-.136-16.269-2.158 6.76.657 11.642-.57 15.904-2.754 3.315-1.698 6.258-4.058 9.42-5.307 3.348-1.324 7.8-1.17 11.36-.632 5.794.876 10.223 3.598 15.847 6.832 2.65 1.524 5.46 3.163 9 4.777q-6.19-6.443-6.822-15.92c10.276 8.792 22.417 14.762 30.419 17.194-.885-3.96-2.674-7.286-8.991-11.877 14.368-.846 21.446 3.398 26.078 7.59 6.147 5.564 8.39 14.916 6.57 22.395-3.917-8.508-8.949-14.77-14.55-16.875 1.432 7.476 1.452 13.435-2.507 15.182L377.68 217.03q4.232 7.96 2.4 15.415c-16.2-12.355-28.738-16.837-39.208-17.32 6.167 2.127 9.03 5.38 10.138 8.854zm-84.819 144.561c4.942 2.526 17.59 3.863 24.572 3.193 10.205-.98 21.936-2.878 25.146-5.636 6.87-5.902 6.021-15.812 1.578-18.275-9.924-1.825-16.288-6.177-17.542-11.196 15.57 2.453 30.44 1.077 36.485-2.801-6.687-5.166-12.311-11.19-20.338-15.96 1.98-.364 4.27-1.348 6.25-2.331-2.53-7.41-5.917-13.177-10.959-18.338-4.736-4.847-10.883-9.182-20.8-13.298 1.198 4.847 2.902 8.668 3.758 13.003-6.73-3.61-12.995-7.373-19.724-11.137a32 32 0 0 0-2.144 6.127c-6.975-4.355-19.666-5.086-27.252-2.548-7.126 2.384-12.328 6.71-16.76 11.877 21.525 1.977 44.304 6.623 66.286 14.533-2.167 0-4.334.31-6.501.31 1.35 3.805 3.008 7.61 4.668 11.415-3.777-3.897-8.019-7.485-12.26-11.383-5.29.688-11.057 2.248-16.463 3.574-2.369.582-3.326.555-5.311-.803l-11.632-7.845c-2.922 9.223-4.5 15.125-7.901 22.495-2.646 5.732-6.83 11.641-9.184 17.615-.878 2.23-.975 5.256-1.826 7.518 20.958-7.885 40.545-11.79 51.664-8.432-9.847 1.51-19.53 4.72-25.16 10.795 12.688-2.087 30.578-3.123 40.061-1.433-10.874 2.202-24.34 4.352-28.71 8.961z" style="fill:#fff;fill-rule:evenodd" transform="translate(-134.763 -186.011)scale(1.353)"></path><path d="M335.726 337.539c-3.606 7.916-7.85 11.175-12.159 12.768.7 2.064 1.237 2.308 1.274 5.105.028 2.241-.589 4.453-1.99 6.825 3.105 3.464 6.52 7.547 9.626 11.011 4.38-6.095 6.701-13.343 6.907-20.546.16-5.603-.899-10.991-3.659-15.163zm-14.833 33.336c10.204 10.433 12.297 24.822 4.54 36.97-.436-6.408-2.06-12.129-4.765-16.335 1.465 15.417-7.106 28.223-23.161 36.396 2.504-5.207 4.866-9.739 3.33-14.007-2.488-6.912-9.312-10.74-10.192-17.955-.742-6.084 1.92-11.335 7.987-15.922 5.028-3.8 12.552-6.935 22.26-9.147zm-38.386 9.288c-2.286 6.063-2.874 10.148-2.368 14.71.875 7.886 2.842 13.91 2.418 20.137-.64 9.402-5.744 17.94-20.399 24.806 3.876-6.41 5.403-17.021 2.532-23.909-1.535 8.548-4.207 15.727-7.997 21.46-5.183 7.841-12.327 13.117-20.286 16.736 7.972-15.838 11.782-26.752 13.013-39.852 1.352-14.39-1.678-28.036-9.195-41.838 10.907.907 23.991 9.169 28.391 24.287.87-3.69 2.737-6.517 5.008-9.273 2.39-2.9 5.4-5.376 8.884-7.265z" style="fill:#fff;fill-rule:evenodd" transform="translate(-134.763 -186.011)scale(1.353)"></path><path d="M214.525 436.716c16.169-3.492 22.94-11.646 25.04-23.656 2.26-12.93-6.642-25.023-13.888-37.34-3.928-6.676-7.617-13.774-7.847-23.748-.29-12.581 7.992-30.918 19.737-40.526-18.82-.857-31.877 15.158-33.169 36.823-.486 8.15.094 17.46 3.87 26.188-5.74-5.501-9.52-11.464-13.443-19.213-1.424 9.041.165 16.93 3.115 22.909 4.105 8.32 10.71 13.713 16.223 20.026 5.02 5.748 9.016 12.269 9.042 19.516.024 6.4-1.045 11.088-8.68 19.02z" style="fill:#fff;fill-rule:evenodd" transform="translate(-134.763 -186.011)scale(1.353)"></path><path d="M221.77 305.625c-4.358.022-8.336.086-11.704 1.253-3.956 1.37-6.753 3.667-9.531 6.035-4.632 3.948-8.556 8.975-11.543 14.04-4.18 7.089-7.19 16.132-6.744 25.313.398 8.206 2.919 16.394 4.273 25.923 1.98 13.931 1.603 29.416-3.412 45.313-1.653-21.605-6.346-33.123-10.234-44.357-2.08-6.008-4.01-11.093-5.337-16.581-1.1-4.547-1.846-9.373-2.643-15.23-.528 3.614-.538 5.607-.614 9.111-.127 5.841-.35 12.698-3.24 19.136-2.257 5.028-6.09 10.934-14.647 13.341 6.948-6.842 7.42-11.975 7.598-17.997.22-7.502-1.877-13.81-1.39-23.748.6-12.257 5.844-27.325 11.765-37.155-.431 7.654-.144 14.35 1.722 18.943 2.246-5.999 4.613-10.708 7.931-14.335 4.005-4.377 9.331-7.696 14.604-9.25 8.471-2.495 22.63-3.758 33.146.245m9.282-18.289c-3.255-.427-5.496-.124-7.283.535-3.791 1.398-5.541 4.56-10.61 7.099-5.799 2.904-14.41 3.671-19.873 2.974 5.722-2.047 11.615-5.8 13.892-8.622-15.347 5.706-26.27 8.316-35.264 8.015-4.71-.157-8.893-1.226-12.903-2.825 6.555-.142 10.467-.953 15.507-2.727 6.533-2.3 11.42-5.158 17.742-7.968 7.165-3.184 15.7-5.562 21.72-5.226 7.013.392 12.47 2.69 17.072 8.745" style="fill:#fff;fill-rule:evenodd" transform="translate(-134.763 -186.011)scale(1.353)"></path><path d="M229.364 274.432c-6.466-1.973-13.405-3.232-21.184-2.978-9.097.297-19.134 2.708-30.203 6.589 3.276-5.717 11.97-12.51 20.223-13.37-7.08.146-12.929-.154-18.478-2.45 7.679.746 13.223-.647 18.064-3.128 3.765-1.93 7.108-4.61 10.698-6.029 3.804-1.503 8.86-1.328 12.904-.717 6.58.995 11.611 4.086 18 7.76 3.01 1.731 6.202 3.593 10.222 5.426q-7.032-7.32-7.75-18.082c11.673 9.985 25.462 16.766 34.551 19.528-1.004-4.497-3.036-8.275-10.211-13.49 16.319-.96 24.359 3.86 29.619 8.621 6.983 6.32 9.53 16.942 7.463 25.437-4.449-9.663-10.165-16.775-16.527-19.167 1.627 8.491 1.65 15.26-2.847 17.244l-24.252-19.087q4.806 9.041 2.726 17.508c-18.4-14.033-32.641-19.123-44.533-19.672 7.004 2.415 10.255 6.11 11.515 10.057" style="fill:#fff;fill-rule:evenodd" transform="translate(-134.763 -186.011)scale(1.353)" data-source="https://football-logos.cc"></path><!-- source: https://football-logos.cc --></svg>