<svg xmlns="http://www.w3.org/2000/svg" viewBox="0 0 6080.75 6112.72"><!-- Source: https://football-logos.cc --><defs data-source="https://football-logos.cc"><style>.cls-1{fill:#0072cd}.cls-1,.cls-2,.cls-4,.cls-6,.cls-7,.cls-8{stroke-width:0}.cls-2{fill:#fdfdfd}.cls-4{fill:#e0b884}.cls-6{fill:#e0b885}.cls-7{fill:#020201}.cls-8{fill:#fefefe}</style></defs><path d="M5277.84 1558.12V0H807.67v1562.24L0 863.04v1976.91c0 92.19 40.18 179.81 110.04 239.97l697.63 600.75v289.86c0 117.23 50.57 228.75 138.75 305.99l2096.34 1836.2 2096.33-1836.2c88.18-77.24 138.75-188.77 138.75-305.99v-293.96l692.87-596.64c69.86-60.16 110.04-147.78 110.04-239.97V863.04l-802.9 695.08Z" style="stroke-width:0;fill:#000"></path><path d="M4257.09 3165.14c-39.42-36.27-77-74.53-116.43-110.71-20.61-18.95-33.84-40.5-38.07-68.36-17.82-117.64-38.52-234.79-60.17-351.8-15.26-82.54-63.41-132.27-145.91-147.93-116.29-22.05-232.45-44.91-348.83-66.56-14.9-2.79-23.04-9.09-29.43-22.41-25.74-53.6-69.22-79.52-128.49-79.39-67.6.09-135.24 1.85-202.75-.22-44.69-1.4-85.19 8.6-120.03 35.06-21.42 16.29-37.22 13.46-56.35-1.67-31.64-25.11-68-34.38-108.73-33.39-68.18 1.67-136.45 1.13-204.68-.05-63.82-1.08-110.71 24.53-138.25 82.76-5.27 11.12-12.69 15.26-24.48 17.51-122.5 23.54-245.1 46.8-367.19 72.19-68.09 14.13-112.47 56.89-126.01 125.47-23.04 116.7-45.5 233.53-61.16 351.49-4.86 36.5-17.6 67.28-46.62 92.8-44.01 38.7-85.87 79.97-126.73 122.05-46.08 47.44-67.73 105.76-56.66 171.24 13.41 78.98 31.77 157.11 48.88 235.46 8.51 38.88 28.44 71.87 56.93 99.78 22.77 22.28 44.91 45.27 68.36 66.83 9.72 8.91 10.4 16.47 6.08 28.17-17.37 47.16-33.75 94.64-50.36 142.03-13.68 39.06-11.97 77.54 4.59 115.44 25.43 58.28 50.72 116.61 76.1 174.93 8.15 18.81 18.77 35.96 32.76 51.17 81.68 88.61 163.05 177.45 244.56 266.2 6.98 7.56 13.59 14.63 13.46 26.24-.41 40.82-.22 81.64-.14 122.41.05 8.15-1.08 15.71-9.81 18.77-9 3.11-14.27-3.02-19.26-9-21.78-25.83-43.61-51.62-65.3-77.54-26.37-31.55-52.61-63.19-80.74-96.98-4.77 28.53-8.42 53.74-13.28 78.71-5.76 29.3-1.58 56.93 11.21 83.62 10.71 22.37 21.33 44.78 32 67.19 94.6 198.7 189.15 397.39 283.75 596.13 10.17 21.33 21.38 41.67 39.83 57.61 118.32 101.94 236.32 204.23 354.46 306.39 6.62 5.72 13.32 14.45 22.91 6.8 8.42-6.66 2.7-15.12-.5-22.64-44.6-106.12-89.2-212.2-134.25-319.67-56.35-133.12-109-266.34-169.22-396.04-50.77-109.41-59.77-222.73-50.86-339.56 9-118.5 33.75-234.25 62.87-349.19 3.83-15.03 10.26-27 21.87-36.59 2.88-2.34 6.48-6.48 8.96-5.94 5.22 1.04 4.77 6.75 4.64 11.16-.72 21.65-2.02 43.34-2.43 64.99-2.39 141.76 1.22 282.81 44.15 420.03 37.4 119.35 85.28 234.34 143.92 344.6 85.73 161.16 154.19 329.25 208.96 503.24 29.61 94.01 56.66 188.79 83.57 283.62 1.76 6.21 1.58 16.11 10.35 16.25 9.41.13 8.15-10.13 9.99-16.25 12.47-42.08 24.44-84.29 36.63-126.46 50.32-174.3 106.17-346.58 184.43-510.8 57.43-120.52 117.51-239.83 169.08-363.1 46.44-111.03 80.38-225.34 87.58-346.22 5.27-87.89 6.44-175.88 1.85-263.86-.72-13.77 6.71-16.16 16.2-18.27 11.75-2.57 9.59 7.97 10.98 13.5 28.44 113.01 55.85 226.19 67.06 342.58 12.6 130.83 7.07 257.47-49.51 381.19-105.49 230.74-197.53 467.37-296.72 700.9-4.37 10.31-17.19 23.4-4.82 32.54 12.33 9.05 21.38-6.75 29.88-14.13 110.58-95.27 220.48-191.4 331.55-286.14 25.88-22.1 45.14-47.61 59.54-78.04 102.21-215.48 203.38-431.5 308.01-645.86 28.49-58.28 9.99-111.48 1.8-171.24-50.09 59.72-97.17 115.84-144.1 172.01-5.85 7.02-11.3 14.67-22.01 10.94-10.4-3.6-8.6-12.96-8.64-21.06-.05-36.95.68-73.99-.36-110.94-.41-15.35 4.91-26.15 15.08-37.17 78.85-85.1 157.16-170.75 235.64-256.21 15.17-16.47 29.16-33.66 38.12-54.5 25.43-59 51.35-117.78 76.69-176.78 17.87-41.58 19.31-83.57 3.38-126.42-16.79-45.32-31.77-91.31-48.51-136.63-3.96-10.8-2.39-17.33 5.76-24.89 22.41-20.84 44.06-42.53 66.07-63.77 31.95-30.96 53.47-67.91 62.96-111.43 14.09-64.67 27.27-129.52 41.67-194.15 19.35-86.86-1.04-161.03-67.33-222.01Zm-519.22-581.01c33.44 10.71 66.56 17.96 95.63 35.96 56.53 34.97 81.95 88.34 89.6 152.07 7.83 65.39 1.13 129.34-20.39 191.72-7.25.05-7.61-6.26-9.77-10.26-23.81-44.19-47.84-88.25-70.84-132.85-26.1-50.68-65.17-85.55-120.16-101.49-12.56-3.65-20.21-10.76-26.24-22.28-23.76-45.63-48.56-90.77-72.68-136.23-2.88-5.36-7.47-10.17-7.11-19.8 47.43 14.36 93.97 28.44 141.94 43.16Zm-1562.56 117.01c24.39-52.21 63.77-85.06 117.1-101.53 59.54-18.41 119.17-36.59 178.8-54.77 4.01-1.22 8.37-1.35 15.3-2.39-30.47 56.57-59.77 110.76-88.75 165.12-3.56 6.71-9.63 7.92-15.57 9.63-59.95 17.37-101.53 55.13-128.94 110.98-22.64 46.17-48.15 90.95-74.89 140.95-28.62-91.76-36.5-178.8-3.06-268ZM4047.77 3515c-22.91 40.28-49.42 76.91-79.3 111.75-3.51 4.1-6.66 9.09-14.99 11.12 0-44.46-.14-88.12.05-131.77.13-34.52-1.89-68.63-13.82-101.62-10.94-30.42-26.55-57.92-49.28-80.87-38.03-38.39-76.6-76.28-116.47-115.93-5.72 19.89-2.7 38.43-4.73 56.44-7.11 62.2-36.9 114.45-71.92 164.18-14.27 20.25-30.42 39.38-47.21 57.65-18.14 19.67-31.01 41.76-38.48 67.24-9.63 32.94-18.77 66.02-28.67 98.92-3.29 10.98-.77 18.32 7.61 26.6 81.5 80.78 162.56 162.02 243.66 243.2 72.77 72.91 87.62 164.09 43.2 257.47-22.64 47.7-51.76 90.5-89.51 127.41-2.52 2.48-4.1 6.53-12.38 6.17 0-37.26.72-74.57-.18-111.84-.86-35.6 2.7-71.42-4.19-106.8-5.99-30.92-19.89-57.79-41.94-79.97-67.87-68.27-136.14-136.18-204.14-204.32-5.72-5.72-9.68-11.61-16.47-.18-24.57 41.27-59.41 73.58-98.02 100.63-43.34 30.42-54.46 67.82-41.13 117.73 20.48 76.33 33.84 154.1 39.69 233.12 6.03 81.77-7.7 159.18-52.43 228.53-22.77 35.37-55.85 62.69-84.79 93.16-67.15 70.66-137.08 138.84-197.35 215.8-21.11 26.96-51.98 21.83-70.16-1.13-60.62-76.51-129.39-145.86-197.26-215.93-23.49-24.26-48.65-47.34-69.26-73.9-38.52-49.82-60.85-106.98-65.48-170.25-7.47-102.43 13.23-201.58 35.91-300.45 2.7-11.79 5.18-23.58 7.74-35.42 6.35-29.52-2.52-54.1-24.93-73.85-23.4-20.61-49.06-38.52-71.38-60.53-17.73-17.55-35.1-35.28-47.53-57.07-4.59-8.01-7.88-9.68-15.21-2.3-70.93 71.51-142.89 142.03-212.92 214.4-27 27.9-38.7 64.04-38.84 103.15-.27 62.33-.09 124.66-.09 186.99-1.67.77-3.33 1.49-5 2.25-6.84-6.8-13.91-13.37-20.48-20.43-43.52-46.9-78.22-99.96-94.73-161.61-20.84-77.77-1.48-147.8 55.67-205.54 82.04-82.94 164.67-165.3 247.53-247.44 8.78-8.69 11.66-16.07 7.88-27.99-7.25-23.04-12.87-46.58-19.26-69.89-11.03-40.37-27.86-77-57.56-108.15-39.87-41.72-69.4-90.91-92.48-143.83-11.34-26.06-15.75-53.6-17.19-81.73-.59-11.3-.13-22.64-.13-33.66-9.63-2.48-12.2 4.05-15.8 7.56-31.77 30.38-63.19 61.21-94.91 91.67-49.05 47.21-72.46 105.09-72.55 172.77-.04 44.01 0 87.98 0 132v23.13c-39.47-37.62-69.94-76.15-92.57-120.43-53.92-105.72-38.3-201.44 45.81-285.55 178.08-178.04 356.53-355.76 534.07-534.34 46.26-46.53 99.73-70.7 165.71-68.54 44.6 1.44 89.24.72 133.89.09 29.79-.41 54.64 9.9 75.56 30.6 14.09 13.91 28.44 27.5 41.94 41.9 6.8 7.25 11.07 7.61 18.23.22 17.28-17.82 35.55-34.74 54.46-52.93 19.85-14.45 40.77-19.98 63.86-19.76 47.79.45 95.63.23 143.43.09 56.89-.13 105.67 18.86 146.17 59.45 183.8 184.07 367.69 368.05 551.8 551.8 72.73 72.5 88.07 184.92 39.24 270.75Zm-682.94-717.64c-16.38-16.38-36-24.98-59.99-24.35-31.19.9-62.51 1.22-93.7-.09-22.95-.95-40.23 7.38-55.9 23.4-33.44 34.16-68.23 67.01-101.22 101.58-11.39 11.93-17.42 10.62-28.13-.45-33.62-34.88-68.68-68.36-102.75-102.79-14.76-14.85-31.32-22.5-52.79-21.69-31.19 1.13-62.51 1.04-93.7.04-26.15-.81-46.71 9.32-64.58 27.27-81.01 81.32-162.15 162.47-243.11 243.84-64.54 64.85-84.11 143.43-67.55 231.64 6.26 33.39 19.4 64.85 41.94 93.47 14.94-36.36 41.58-58.33 72.28-76.37 6.57-3.87 14.49-10.26 20.88-5.81 5.36 3.78 1.08 13.19.31 20.03-6.89 63.55 7.7 118.68 60.31 160.08 14.94 11.75 29.25 24.75 39.51 41.27q14.54 23.4 38.03 8.19c3.74-2.43 7.52-4.86 10.85-7.79 63.55-56.66 95.81-127.41 93.79-212.69-.59-23.94-6.66-46.9-30.78-61.79-60.31-1.44-108.73-27.9-153.33-63.77-21.38-17.24-44.19-32.27-69.31-43.61-3.29-1.49-8.33-2.3-7.47-7.25.72-4.19 5.13-5.04 8.91-5.81 29.57-5.99 56.17-20.3 84.43-29.79 55-18.41 105.49-10.31 149.6 28.94 6.66 5.94 12.78 12.42 19.31 18.54 22.37 20.88 39.78 20.39 60.8-1.62 6.26-6.48 10.98-13.95 14.9-22.05 5.36-10.94 11.12-21.65 17.19-33.39 20.25 27.5 23.54 52.66 10.17 84.56-8.87 21.06-20.12 41.09-29.7 61.88-7.29 15.8-11.39 32.45-8.64 50.13 1.31 8.46 4.59 12.38 13.73 6.84 9.77-5.9 19.76-11.79 31.86-11.61 13.32.18 20.7 3.42 14.18 19.31-24.98 60.76-53.65 119.49-90.23 174.21-33.12 49.55-71.29 94.73-115.89 134.2-13.68 12.15-18.63 28.53-18.86 44.19-.14 9.86 16.61 11.48 25.92 16.29 35.55 18.59 70.3 38.48 104.1 60.17 7.79 5 10.31 12.42 9.5 19.22-1.13 9.5-10.26 4.19-15.66 4.32-14.04.36-28.04-.5-42.08-.68-21.69-.32-43.34-.22-65.03-.72-9.5-.27-17.28 4.32-19.71 11.93-2.07 6.57 7.34 8.82 12.24 12.24 25.88 18 54.19 26.69 86.14 25.79 31.19-.9 62.47-.18 93.52 3.96 9.86 1.35 18.27 2.97 21.06 14.99-35.6 13.68-69.4 30.83-106.48 37.4-14.99 2.66-21.74 10.44-28.8 23.18 71.78 26.1 142.57 24.21 211.79-2.3 59-22.59 75.34-77.5 41.76-130.83-14.58-23.13-31.5-44.82-46.17-67.91-18.9-29.66-45.09-43.79-80.11-42.12-15.44.77-30.51-.45-44.73-7.38-21.96-10.71-27.18-25.7-25.43-49.14 1.53-20.93 18.77-16.79 28.76-24.17 55.09-40.68 110.85-33.84 166.02-1.04 22.05 13.1 41.99 13.64 64.4 1.35 56.57-31.05 113.64-41.36 170.07.99 1.04.77 2.16 1.44 3.38 1.8 14.9 4.82 27.77 12.87 27.72 29.97-.09 18.09-11.66 30.51-26.91 38.97-15.62 8.69-32.85 9.05-50.18 8.78-26.78-.45-50.95 6.53-67.28 29.21-20.84 28.94-41.54 58.01-60.44 88.21-17.1 27.32-18.72 56.12-1.08 84.83 13.01 21.15 31.95 34.02 54.77 42.21 32.67 11.79 66.61 16.52 101.08 18.09 28.89 1.35 57.11-2.16 84.65-11.43 11.21-3.78 14.18-13.82 14.85-22.46.77-9.86-10.22-6.62-16.2-7.88-34.38-7.16-67.51-18.14-99.73-32.09-6.75-2.93-14.22-5.94-13.23-14 .99-8.55 9.95-5.99 15.53-6.53 33.66-3.24 67.37-5.13 101.22-4.41 28.26.59 53.69-7.92 77.68-22.73 9.23-5.72 15.66-12.96 12.6-22.86-2.93-9.36-13.14-4.05-19.89-4.1-33.8-.27-67.6.09-101.35.72-9.5.22-17.46-3.56-20.07-11.39-2.48-7.47 7.43-8.78 12.24-11.88 33.66-21.78 67.69-43.07 103.92-60.31 15.44-7.34 22.86-21.24 27.86-34.74 3.83-10.22-11.03-15.03-18-21.51-94.73-87.8-162.6-193.47-209.59-313.23-5.76-14.67.63-18.32 13.28-18.77 12.11-.45 22.28 5.13 31.91 11.3 10.44 6.66 13.32 1.53 14.4-7.79 2.16-18.32-2.25-35.42-10.04-51.8-9.54-20.07-20.07-39.78-28.62-60.26-12.11-29.03-10.31-56.98 10.4-83.53 2.93 5.31 5.36 9.68 7.79 14.09 7.61 13.91 12.96 29.12 23.99 41.04 19.76 21.47 40.19 22.46 61.07 2.61 5.54-5.27 10.62-11.03 16.29-16.16 32.67-29.75 70.48-45.14 115.26-40.05 44.82 5.09 83.57 30.24 127.36 38.93 6.53 1.26 7.74 7.38.5 10.35-47.44 19.31-82.9 56.62-125.7 82.85-23.09 14.13-48.2 23.22-75.52 24.21-34.2 1.22-43.2 6.26-49.55 39.87-16.16 86.14 13.59 158.91 69.76 222.77 12.24 13.95 27.05 25.16 44.64 32 4.91 1.89 9.59 5.49 13.1-3.6 8.78-22.77 26.51-39.06 45.18-53.38 55.63-42.75 70.34-100.32 63.01-166.56-.59-5.36-4.95-12.15 1.08-15.8 5.13-3.11 11.16 1.17 15.98 3.92 32.49 18.54 60.8 41.31 76.06 79.84 28.67-44.15 45.99-89.11 47.57-139.29 2.03-62.02-11.93-121.96-53.87-166.92-85.64-91.81-176.42-178.8-265.26-267.6Zm-155.81 1161.79c-41.76-21.24-87.17-31.46-132.45-41.76-12.96-2.97-26.96-8.28-39.33-6.12-65.84 11.61-131.55 25.07-189.65 60.58-41.49 25.38-66.88 62.2-70.25 111.93-1.85 27.05 3.78 53.15 12.69 78.62 16.07 46.17 41.58 87.08 69.76 126.64 7.02 9.86 17.01 13.73 26.37 10.35 8.96-3.2 1.31-13.19 1.22-20.03-.18-20.39-2.16-40.73 2.88-60.89 7.11-28.44 20.97-34.88 47.61-22.05 9.86 4.82 18.27 11.48 26.33 18.77 30.78 27.72 55.99 59.9 76.01 98.97 12.6-30.2 31.59-53.11 51.98-76.64 16.38-17.15 31.77-33.53 51.85-43.97 25.25-13.19 39.51-6.44 46.26 21.15 4.73 19.53 3.42 39.42 1.31 59-1.44 13.68 2.48 23.27 14.09 31.41 35.01-46.8 66.79-95.05 84.79-150.81 28.53-88.43 1.53-152.93-81.46-195.14Z" class="cls-6"></path><path d="M1706.44 3085.08c-83.13 90.71-114.59 195.12-90.15 314.91 15.39 75.43 31.5 150.73 48.9 225.72 14.44 62.24 45.69 115.94 91.6 160.29 14.14 13.66 18.07 24.67 10.36 44.09-15.21 38.29-29.23 77.17-33.37 119.02-4.56 46.06.58 90.66 17.98 133.03 27.29 66.45 57.25 131.81 85.15 198.02 18.53 43.97 51.44 77 81.64 112.23 2.49 2.9 4.86 5.97 7.67 8.53 23.36 21.35 42.27 43.66 17.49 76.06-12.74 70.57-33.1 140.61-13.33 213.28 7.58 27.85 20.73 53.25 32.69 79.24 52.65 114.37 105.17 228.81 157.54 343.31 2.25 4.92 6.49 9.59 4.81 16.02-5.54 3.25-8.06-1.83-10.98-4.35-142.18-123.05-284.33-246.14-426.35-369.37-26-22.56-33.46-49.92-22.5-78.81 10.89-28.69 34.41-43.96 69.01-44.23 31.2-.25 62.41-.05 93.42-.05 3.26-6.23-2.04-8.46-4.73-11.34-12.2-13.03-24.62-25.85-37.09-38.62-60.71-62.09-134.29-93.08-221.32-90.25-105.93 3.44-201.57-25.39-284.59-91.67-39.82-31.79-77.38-66.41-115.93-99.79-37.11-32.13-75.01-63.39-111.07-96.65-65.6-60.52-101.55-137.08-109.04-225.03-4.62-54.26-.86-109.23-.86-168.03l274.4 238.5c3.26-31.15-1.5-59.08-7.87-86.35-19.14-81.99-58.46-152.12-120.87-210.09-99.62-92.51-147.55-208.36-147.86-344.1-.06-25.97 0-51.95 0-82.48 93.66 81.26 184.21 159.81 277.33 240.58 2.97-43-1.89-82.12-12.82-120.52-20.14-70.76-59.97-128.86-115.95-175.95-81.58-68.61-130.48-155.38-144.56-260.96-7.17-53.74-2.3-107.95-3.57-166.43 93.57 81.3 184.06 159.92 277.14 240.79 3.34-44.71-1.1-85.58-13.66-125.65-19.9-63.48-54.6-117.65-104.44-161.58-89.86-79.19-142.68-178.31-155.99-296.78-5.07-45.19-.83-91.42-.83-139.57 21.29 18.34 41.84 35.87 62.2 53.62 77.82 67.85 155.3 136.1 233.44 203.58 91.62 79.13 135.22 179.73 135.28 299.81.19 360.25.26 720.49-.03 1080.74-.09 114.38 38.38 212.9 117.44 295.63 5.7 5.97 10.26 13.02 14.9 18.99 9.23-5.79 6.43-11.44 6.43-15.92.09-480.75.05-961.5-.05-1442.25-.03-118.13-43.38-217.21-132.43-295.15-131.9-115.44-264.42-230.17-396.7-345.18-141.39-122.94-282.78-245.89-424.22-368.76-103.41-89.83-206.04-180.58-310.67-268.98-73.46-62.06-110.17-139.14-109.11-234.99.57-51.51.1-103.04.1-155.97 9.48 1.06 14.38 7.33 19.66 11.9 117.08 101.29 233.96 202.81 350.93 304.23 149.25 129.4 298.65 258.63 447.79 388.16 180.45 156.73 363.14 310.99 540.33 471.32 173.37 156.88 282.44 353.42 333.32 582.01 2.93 13.17-.07 20.81-9.48 29.68-38.97 36.72-77.12 74.3-116.51 112.55ZM4565.62 3901.9v410.55c36.51-32.29 63.78-66.8 85.7-105.71 37.12-65.89 53.4-136.73 53.31-212.26-.42-358.99.2-717.97-.4-1076.96-.21-122.19 44.39-222.76 137.13-302.49 96.18-82.69 191.74-166.11 287.58-249.2 1.78-1.54 3.69-2.94 8.9-7.05 0 31.14-.15 58.78.03 86.41.8 125.16-43.39 232.58-128.98 322.94-23.58 24.9-51.58 45.47-73.01 72.73-55.35 70.4-80.98 150.12-76.63 243.63 93.17-80.86 184.09-159.77 275.25-238.88 15.97 160.01-9.71 305.7-136.86 416.1-64.07 55.63-111.05 120.31-130.31 203.72-7.35 31.83-9.91 64.04-8.28 101.27 92.99-80.33 183.64-158.65 274.25-236.93 1.28.83 3.1 1.44 3.12 2.09 1.79 76.5 3.55 152.87-22.49 226.76-26.55 75.34-68.58 140.51-126.05 195.62-80.6 77.29-123.38 171.55-128.84 282.91-.15 3 .23 6.03.55 13.06 92.91-80.54 183.41-158.98 277.53-240.56 0 50.17 1.1 95.72-.22 141.2-3.11 106.88-45.25 195.94-125.69 266.5-59.42 52.12-119.73 103.24-178.8 155.76-91.65 81.5-197.81 123.93-320.91 119.84-113.28-3.76-194.22 52.81-264.49 139.13 36.27 0 69.64-.59 102.97.15 43.87.97 73.17 36 67.09 79.34-2.61 18.63-13.02 32.82-26.88 44.85-119.37 103.64-238.72 207.3-358.1 310.93-24.87 21.59-49.83 43.07-74.94 64.78-6.55-7.75-.74-12.39 1.27-16.8 52.93-116.35 102.22-234.43 160.17-348.38 36.91-72.57 47.27-146.57 30.14-225.84-6.87-31.78-12.53-63.71-26.34-93.27-4.25-9.09-1.34-13.62 4.33-19.58 19.32-20.33 38.19-41.1 57.39-61.55 25.96-27.64 46.89-58.5 61.87-93.47 25.04-58.45 50.54-116.71 75.84-175.06 32.45-74.85 33.79-150.54 6.22-227.04-7.33-20.33-20.31-40.79-20.1-61.08.22-21.39 25.76-32.32 38.76-49.12 31.17-40.27 56.27-83.51 67.66-133.4 19.4-84.98 41.09-169.61 53.08-256.01 15.35-110.54-18.57-206.57-94.89-286.98-37.27-39.27-77.43-75.82-116.74-113.12-8.12-7.71-11.33-14.05-8.65-26.19 55.53-251.43 184.13-458.19 378.67-625.62 167.14-143.86 333.18-289 499.77-433.5 230.06-199.56 460.19-399.04 690.26-598.59 33.7-29.23 67.18-58.71 100.81-88.01 6.1-5.32 12.47-10.33 19.45-16.09 1.56 3.38 2.95 4.97 2.92 6.53-1.16 63.7 2.91 127.45-2.5 191.13-5.36 63.18-29.82 117.64-73.83 162.85-46.28 47.54-98.81 88.22-148.51 132-85.54 75.36-171.9 149.8-258.14 224.36-95.85 82.88-192.14 165.26-287.87 248.28-47.16 40.9-92.78 83.59-140.36 123.99-110.77 94.04-220.22 189.61-328.71 286.24-87.72 78.13-133.53 175.71-133.33 294.83.59 348.77 0 697.55-.13 1048.24Z" class="cls-4"></path><path d="M2129.18 290.21c-342.4 0-682.89.16-1023.38-.42-19.07-.03-25.13 3.58-25.1 24.22.67 490.97.52 981.94.52 1472.91v20.44c-6.57 2.19-8.99-2.57-12.04-5.2-38.62-33.3-76.97-66.91-115.76-100.01-7.9-6.74-11.32-13.77-11.31-24.38.25-503.72.25-1007.44 0-1511.17 0-11.96 2.42-18.31 15.62-16.31 3.74.57 7.64.09 11.46.09 1381.09 0 2762.18 0 4143.28.05 29.23 0 25.65-3.61 25.66 25.1.07 497.98-.03 995.97.43 1493.95.01 16.31-4.7 27.05-17.09 37.36-36.74 30.57-72.47 62.35-108.64 93.62-3.65 3.15-7.55 6.01-14.18 11.26v-25.45c0-490.97-.13-981.94.47-1472.91.02-19.15-4.34-23.64-23.58-23.63-948.15.54-1896.29.48-2846.35.48Z" style="stroke-width:0;fill:#dfb784"></path><path d="M4529.17 2219.57c-146.05 124.13-257.23 272.93-333.74 447.95-1.9-.65-3.79-1.31-5.69-1.96-3.26-17.7-6.77-35.36-9.72-53.11-14.59-87.6-55.41-159.26-128.86-210.64-9.68-6.77-12.48-13.94-12.46-25.16.28-262.02.38-524.03-.17-786.05-.04-16.62 5.28-19.64 20.54-19.6 208.46.48 416.93.55 625.4-.09 17.12-.05 20.98 4.6 20.91 21.21-.66 152.36-.57 304.73-.08 457.09.04 13.54-4.43 22.31-14.42 30.83-53.83 45.9-107.17 92.37-161.7 139.54Z" class="cls-1"></path><path d="M1916.57 2545.85c-14.35 39.85-17.35 80.66-25.97 120.41-6.35-1.69-6.78-7.67-8.73-11.93-79.62-174.71-196.62-320.54-342.22-444.48-51.42-43.77-102.06-88.47-153.44-132.3-8.62-7.36-11.59-15.15-11.57-26.26.31-153.59.49-307.19-.19-460.78-.07-16.58 5.22-19.57 20.49-19.54 208.4.49 416.81.52 625.21-.03 16.29-.04 21.32 3.28 21.28 20.67-.63 261.3-.52 522.6-.18 783.9.02 12.72-3.4 20.49-14.39 27.91-51.77 34.95-86.91 83.3-110.28 142.42Z" style="stroke-width:0;fill:#0072ce"></path><path d="M3372.9 2145.55q0 33.2-31.02 33.2c-47.8 0-95.65 1.35-143.39-.38-49.07-1.77-96.56 3.24-142.05 22.33-10.74 4.51-20.21 3.41-31.06-.91-35.12-13.96-71.35-22.03-109.74-21.35-63.71 1.12-127.47-.15-191.19.65-14.58.18-17.9-4.18-17.86-18.29.48-190.56.48-381.13 0-571.69-.03-14.09 3.31-18.16 17.83-18.13 210.32.49 420.64.57 630.96-.09 17.04-.05 17.73 7.09 17.71 20.21-.29 184.19-.2 368.38-.2 554.45Z" class="cls-1"></path><path d="M3982.08 921.48c.02 87.32-.13 172.73.13 258.14.13 42.24 2.93 83.69 28 120.66 11.31 16.67 8.45 19.72-11.94 19.74-42.7.04-85.43-.78-128.1.46-14.42.42-19.25-5.48-23.93-17.46-55.47-141.9-111.45-283.6-167.3-425.35-1.56-3.96-3.18-7.89-8.08-11.89v13.59c0 100.07.19 200.14-.05 300.2-.1 43.17 3.26 85.14 29.67 121.93 7.87 10.97 8.67 19.08-10.01 18.83-59.27-.78-118.55-.61-177.82-.08-16.14.15-18.08-6.15-10.25-17.8 23.03-34.26 28.83-72.66 28.77-112.78-.27-175.27-.51-350.54-.46-525.81.01-35.79-6.98-69.08-26.44-99.87-11.63-18.4-9.23-21.25 11.64-21.26 52.9-.03 105.81.58 158.7-.42 13.44-.25 18.52 4.59 23.05 16.23 45.57 117.14 91.71 234.07 137.7 351.05 1.58 4.01 3.28 7.98 7.94 12.2V908.3c-.03-75.85-.07-151.69-.1-227.54-.02-41.82-4.17-82.26-29.1-118.39-11.52-16.7-8.77-19.63 11.65-19.65 58-.04 116 .32 174-.24 15.12-.15 21.55 3.67 11.86 17.79-27.92 40.69-29.79 86.82-29.62 133.67.28 75.21.09 150.42.09 227.54" class="cls-8"></path><path d="M4697.41 1298.26c-25.61-30.51-39.56-66.16-47.84-104.59-35.37-163.41-70.66-326.82-106.53-490.15-10.89-49.46-21.51-98.38 2.61-147.3 6.53-13.23-3.42-13.68-13.41-13.64-82.18.18-164.4.09-246.58.09-27 0-28.44.63-18.18 24.98 13.55 32.13 12.78 64.22 5.67 97.16-29.12 135.51-56.66 271.38-87.71 406.39-18.59 80.92-22.05 167.55-80.02 235.51-7.02 8.19-3.42 14.85 9.23 14.76 65.66-.32 131.28-.49 196.9.14 14.04.14 11.93-5.54 8.78-14.54-8.33-23.63-13.05-47.84-10.4-74.84 1.98-15.66 4.14-29.48 5.72-43.38.95-8.42 4.28-11.39 13.37-11.3 45.86.58 91.76.54 137.62.05 8.82-.09 11.79 2.39 13.28 11.12 6.66 37.98 10.98 75.65-6.57 112.2-7.34 15.35-3.15 20.97 14.67 20.75 66.25-.81 132.54-.23 198.79-.45 6.03-.05 14.04 3.47 17.78-2.92 4.68-8.1-2.39-14.4-7.16-20.03Zm-258.28-248.43c-28.04-.54-56.08-.9-84.07.13-14 .54-15.39-3.96-13.01-16.43 11.75-60.53 22.5-121.29 33.98-183.57 6.8-35.91 13.23-70.16 20.34-108.19 8.37 24.21 10.31 46.26 14.31 67.78 14 75.02 27.18 150.23 41.99 225.07 2.97 14.85-2.03 15.44-13.55 15.21ZM2491.6 1297.54c-27.59-31.82-40.23-70.16-48.92-110.31-35.82-165.35-71.47-330.74-107.47-496.04-9.41-43.2-19.08-86.14 3.47-129.93 5.09-14.04 2.3-19.04-12.74-18.9-84.16.68-168.32.86-252.48-.09-19.35-.18-20.16 6.93-13.46 20.84 17.37 35.91 14.22 72.91 6.21 110.17-26.55 123.76-50.86 248.07-80.38 371.06-21.56 89.87-22.68 187.04-86.45 263.41-6.75 8.1-1.85 13.73 9.14 13.68 66.29-.18 132.58-.23 198.92.05 10.35.05 11.66-2.88 7.92-12.29-16.07-40.01-13.05-80.96-5.4-122.23 1.58-8.51 5.67-9.86 12.96-9.86 45.86.18 91.81.36 137.67-.09 9.81-.09 12.74 3.42 14.27 12.87 6.26 38.16 9.41 75.83-7.79 112.33-6.75 14.27-1.62 18.32 13.68 18.14 66.29-.72 132.58-.23 198.88-.45 6.66-.04 15.71 3.74 19.62-2.47 4.86-7.74-2.93-14.45-7.65-19.89m-256.7-247.57c-29.3-.94-58.6-.54-87.94-.13-9.32.13-12.24-2.52-10.49-12.15 18.32-98.07 36.32-196.22 57.11-294.42 5.54 30.38 11.03 60.76 16.88 92.71 12.56 67.28 24.66 132.94 37.17 198.52 2.16 11.34.22 15.89-12.74 15.48Z" class="cls-2" data-source="https://football-logos.cc"></path><path d="M171.95 2932.1c-18.33-35.59-27.97-72.02-30.09-110.62-3.38-61.65-.15-123.28-1.89-189.78 8.5 6.45 13.93 10.1 18.84 14.36 128.96 111.84 257.86 223.74 386.77 335.64 51.47 44.68 103.51 88.71 154.2 134.26 64.6 58.05 98.98 131.22 101.7 218.11 1.62 51.58.66 103.25.7 154.88 0 3.49 1.59 7.6-3.55 11.77-21.32-18.24-42.96-36.5-64.33-55.07-150-130.35-299.98-260.72-449.87-391.19-35.94-31.28-74.97-59.58-100.31-101.37-3.95-6.51-7.59-13.2-12.16-20.99ZM245.28 2537.5c-68.88-55.3-102.06-127.07-104.46-212.95-1.6-57.23-.3-114.54-.3-173.74 17.32 7.46 28.12 21.1 40.64 31.93 158.52 137.03 316.6 274.59 474.98 411.78 35.61 30.85 72.37 60.27 97.53 101.31 29.83 48.65 47.69 100.76 48.1 158.13.38 54.08.08 108.16.08 166.78-186.87-162.24-371.21-322.29-556.56-483.24Z" class="cls-4"></path><path d="M5657.7 2391.63c93.42-80.92 185.82-160.93 278.18-240.9 6.29 4.37 3.64 9.96 3.55 14.46-1.23 63.05 3.85 126.23-2.7 189.14-7.61 73.14-42.13 132.06-97.28 179.8-151.67 131.31-303.19 262.79-454.81 394.15-34.49 29.88-69.15 59.55-106.82 91.97 0-46.73 1.64-89.77-.31-132.64-5.33-117.31 42.45-207.92 131.92-281.51 84.09-69.17 164.97-142.22 248.28-214.47ZM5854.91 2703.58c27.87-23.95 54.72-47 85.87-73.74-6.05 86.7 8.83 168.87-12.27 249.71-14.47 55.47-45.91 99.96-88.65 137.03-120.29 104.33-240.73 208.5-361.04 312.82-62.08 53.82-124 107.82-186.01 161.72-3.75 3.26-7.66 6.32-11.47 9.44-6.04-4.17-3.43-9.75-3.45-14.32-.23-42.71.9-85.45-.34-128.13-3.17-108.72 42.89-192.96 124.18-262.1 111.6-94.91 221.69-191.59 332.41-287.54 39.96-34.63 79.85-69.33 120.78-104.89ZM5896.06 1987.01c-27.65 45.12-69.28 74.47-107.06 107.41-120.51 105.08-241.62 209.49-362.51 314.14-48.53 42.02-97.11 83.99-148.68 128.59 0-16.69-.38-30.32.07-43.92 1.75-53.42-4.39-107.05 3.49-160.3 11.24-76.03 47.14-138.79 104.77-188.9 160.56-139.62 321.47-278.82 482.27-418.15 22.49-19.48 45.13-38.79 67.94-58.39 5.45 6.01 3.19 11.95 3.08 17.17-1.31 62.42 3.39 124.92-2.71 187.27-4.04 41.25-18.34 78.85-40.67 115.1Z" class="cls-6"></path><path d="M166.07 1954.48c-15.07-32.86-23.66-66.03-24.12-100.63-.81-61.53-.23-123.09-.23-187.89 21.83 18.62 41.99 35.55 61.87 52.8 158.25 137.33 315.82 275.45 474.99 411.71 58.53 50.1 100.46 108.77 116.88 184.6 4.05 18.7 6.55 37.5 6.48 56.7-.18 53.9-.06 107.8-.06 165.02-42.71-36.91-82.99-71.66-123.21-106.48-120.86-104.63-242.02-208.92-362.36-314.16-39.23-34.31-81.65-65.26-115.39-105.64-13.95-16.7-23.99-35.77-34.85-56.03" class="cls-4"></path><path d="M2994.18 733.72c-34.28-36.99-76.42-53.26-124.48-57.56-14.52-1.3-17.76 2.71-17.69 17.1.6 139.58.18 279.16.48 418.74.08 38.2-.86 76.38 2.05 114.64 2.13 27.94 14.49 50.84 27.45 74.22 9.64 17.4 8.38 19.13-11.3 19.14-67.56.06-135.12-.33-202.68.27-16.59.15-20.03-5.46-11.21-18.46 25.29-37.26 28.41-79.33 28.36-122.45-.17-162.53-.13-325.05.26-487.58.03-11.91-2.07-16.65-15.39-15.66-54.74 4.07-100.89 24.34-135.34 68.26-3.81 4.86-6.6 12.36-14.4 10.34-9.28-2.39-4.42-10.74-4.46-16.12-.5-60.55-.11-121.1-.93-181.64-.16-12.08 3.23-14.57 14.81-14.54 159.34.4 318.68.42 478.02-.02 12.1-.03 14.71 3.42 14.6 14.93-.58 59.27-.14 118.55-.45 177.82-.03 6.51 4.16 16-3.62 19.09-9.04 3.59-12.18-6.83-17.13-12.13-2.17-2.32-4.01-4.93-6.95-8.39" class="cls-8"></path><path d="M1778.72 1145.05c10.05-10.75 19.38-20.33 27.93-30.56 3.65-4.38 7.21-7.4 12.8-5.72 6.21 1.87 3.46 7.47 3.47 11.34.18 62.46-.44 124.94.54 187.39.24 15.5-7.77 13.94-17.65 13.93-114.09-.11-228.18-.07-342.28-.07-24.86 0-49.73-.58-74.57.2-16.25.51-18.33-7.01-10.79-18.15 29.28-43.24 29.74-92.24 29.67-141.44-.27-166.35-.7-332.71-.79-499.06-.02-35.11-6.74-67.81-25.96-98.03-12.16-19.13-9.64-22.18 12.17-22.18 66.93-.02 133.86.4 200.77-.29 17.13-.18 19.62 6.25 10.91 18.42-28.43 39.75-30.48 85.21-30.43 131.45.15 158.07.42 316.15-.42 474.21-.1 18.28 5.56 21.94 22.13 21.16 33.04-1.55 66.14.52 99.16-4.66 31.12-4.89 58.4-16.86 83.35-37.93Z" style="stroke-width:0;fill:#fcfcfc"></path><path d="M3337.11 776.09c0 133.17.27 264.43-.13 395.68-.14 46.33 2 91.6 30.61 131.22 8.53 11.81 5.01 17.42-10.59 17.29-68.81-.57-137.63-.56-206.44 0-14.63.12-18.15-5.42-10.51-16.4 29.5-42.38 30.07-90.53 29.99-139.2-.25-154.83-.05-309.66-.15-464.49-.01-18.47-1-36.93-1.13-55.4-.23-31.03-12.43-57.98-27.87-83.92-7.56-12.71-6.27-18.65 10.99-18.47 68.81.71 137.63.62 206.44.05 15.28-.13 17.28 6.27 9.84 16.52-30.84 42.54-31.85 91.29-31.11 140.66.37 24.84.07 49.7.07 76.46Z" class="cls-2"></path><path d="M3290.48 4154.29c-18 55.76-49.78 104.01-84.79 150.81-11.61-8.15-15.53-17.73-14.09-31.41 2.12-19.58 3.42-39.47-1.31-59-6.75-27.59-21.02-34.34-46.26-21.15-20.07 10.44-35.46 26.82-51.85 43.97-20.39 23.54-39.38 46.44-51.98 76.64-20.03-39.06-45.23-71.24-76.01-98.97-8.06-7.29-16.47-13.95-26.33-18.77-26.64-12.83-40.5-6.39-47.61 22.05-5.04 20.16-3.06 40.5-2.88 60.89.09 6.84 7.74 16.83-1.22 20.03-9.36 3.38-19.35-.49-26.37-10.35-28.17-39.56-53.69-80.47-69.76-126.64-8.91-25.47-14.54-51.58-12.69-78.62 3.38-49.73 28.76-86.54 70.25-111.93 58.1-35.51 123.81-48.97 189.65-60.58 12.38-2.16 26.37 3.15 39.33 6.12 45.27 10.31 90.68 20.52 132.45 41.76 82.99 42.21 109.99 106.71 81.46 195.14ZM3683.96 3231.88c-1.58 50.18-18.9 95.14-47.57 139.29-15.26-38.52-43.56-61.3-76.06-79.84-4.82-2.75-10.85-7.02-15.98-3.92-6.03 3.65-1.67 10.44-1.08 15.8 7.34 66.25-7.38 123.81-63.01 166.56-18.68 14.31-36.41 30.6-45.18 53.38-3.51 9.09-8.19 5.49-13.1 3.6-17.6-6.84-32.4-18.05-44.64-32-56.17-63.86-85.91-136.63-69.76-222.77 6.35-33.62 15.35-38.66 49.55-39.87 27.32-.99 52.43-10.08 75.52-24.21 42.8-26.24 78.26-63.55 125.7-82.85 7.25-2.97 6.03-9.09-.5-10.35-43.79-8.69-82.54-33.84-127.36-38.93-44.78-5.09-82.58 10.31-115.26 40.05-5.67 5.13-10.76 10.89-16.29 16.16-20.88 19.85-41.31 18.86-61.07-2.61-11.03-11.93-16.38-27.14-23.99-41.04-2.43-4.41-4.86-8.78-7.79-14.09-20.7 26.55-22.5 54.5-10.4 83.53 8.55 20.48 19.08 40.19 28.62 60.26 7.79 16.38 12.2 33.48 10.04 51.8-1.08 9.32-3.96 14.45-14.4 7.79-9.63-6.17-19.8-11.75-31.91-11.3-12.65.45-19.04 4.1-13.28 18.77 46.98 119.76 114.85 225.43 209.59 313.23 6.98 6.48 21.83 11.3 18 21.51-5 13.5-12.42 27.41-27.86 34.74-36.23 17.24-70.25 38.52-103.92 60.31-4.82 3.11-14.72 4.41-12.24 11.88 2.61 7.83 10.58 11.61 20.07 11.39 33.75-.63 67.55-.99 101.35-.72 6.75.05 16.97-5.27 19.89 4.1 3.06 9.9-3.38 17.15-12.6 22.86-23.99 14.81-49.42 23.31-77.68 22.73-33.84-.72-67.55 1.17-101.22 4.41-5.58.54-14.54-2.02-15.53 6.53-.99 8.06 6.48 11.07 13.23 14 32.22 13.95 65.35 24.93 99.73 32.09 5.99 1.26 16.97-1.98 16.2 7.88-.68 8.64-3.65 18.68-14.85 22.46-27.54 9.27-55.76 12.78-84.65 11.43-34.47-1.58-68.41-6.3-101.08-18.09-22.82-8.19-41.76-21.06-54.77-42.21-17.64-28.71-16.02-57.52 1.08-84.83 18.9-30.2 39.6-59.27 60.44-88.21 16.34-22.68 40.5-29.66 67.28-29.21 17.33.27 34.56-.09 50.18-8.78 15.26-8.46 26.82-20.88 26.91-38.97.04-17.1-12.83-25.16-27.72-29.97-1.22-.36-2.34-1.04-3.38-1.8-56.44-42.35-113.5-32.04-170.07-.99-22.41 12.29-42.35 11.75-64.4-1.35-55.18-32.81-110.94-39.65-166.02 1.04-9.99 7.38-27.23 3.24-28.76 24.17-1.76 23.45 3.47 38.43 25.43 49.14 14.22 6.93 29.3 8.15 44.73 7.38 35.01-1.67 61.21 12.47 80.11 42.12 14.67 23.09 31.59 44.78 46.17 67.91 33.57 53.33 17.24 108.24-41.76 130.83-69.22 26.51-140.01 28.4-211.79 2.3 7.07-12.74 13.82-20.52 28.8-23.18 37.08-6.57 70.88-23.72 106.48-37.4-2.79-12.02-11.21-13.64-21.06-14.99-31.05-4.14-62.33-4.86-93.52-3.96-31.95.9-60.26-7.79-86.14-25.79-4.91-3.42-14.31-5.67-12.24-12.24 2.43-7.61 10.22-12.2 19.71-11.93 21.69.49 43.34.4 65.03.72 14.04.18 28.04 1.04 42.08.68 5.4-.14 14.54 5.18 15.66-4.32.81-6.8-1.71-14.22-9.5-19.22-33.8-21.69-68.54-41.58-104.1-60.17-9.32-4.82-26.06-6.44-25.92-16.29.22-15.66 5.18-32.04 18.86-44.19 44.6-39.47 82.76-84.65 115.89-134.2 36.59-54.73 65.26-113.46 90.23-174.21 6.53-15.89-.86-19.13-14.18-19.31-12.11-.18-22.1 5.72-31.86 11.61-9.14 5.54-12.42 1.62-13.73-6.84-2.75-17.69 1.35-34.34 8.64-50.13 9.59-20.79 20.84-40.82 29.7-61.88 13.37-31.91 10.08-57.07-10.17-84.56-6.08 11.75-11.84 22.46-17.19 33.39-3.92 8.1-8.64 15.57-14.9 22.05-21.02 22.01-38.43 22.5-60.8 1.62-6.53-6.12-12.65-12.6-19.31-18.54-44.1-39.24-94.6-47.34-149.6-28.94-28.26 9.5-54.86 23.81-84.43 29.79-3.78.77-8.19 1.62-8.91 5.81-.86 4.95 4.19 5.76 7.47 7.25 25.11 11.34 47.93 26.37 69.31 43.61 44.6 35.87 93.02 62.33 153.33 63.77 24.12 14.9 30.2 37.85 30.78 61.79 2.03 85.28-30.24 156.03-93.79 212.69-3.33 2.93-7.11 5.36-10.85 7.79q-23.54 15.3-38.03-8.19c-10.26-16.52-24.57-29.52-39.51-41.27-52.61-41.4-67.19-96.53-60.31-160.08.77-6.84 5.04-16.25-.31-20.03-6.39-4.46-14.31 1.94-20.88 5.81-30.69 18.05-57.34 40.01-72.28 76.37-22.55-28.62-35.69-60.08-41.94-93.47-16.56-88.21 3.02-166.79 67.55-231.64 80.96-81.37 162.11-162.51 243.11-243.84 17.87-17.96 38.43-28.08 64.58-27.27 31.19.99 62.51 1.08 93.7-.04 21.47-.81 38.03 6.84 52.79 21.69 34.07 34.43 69.13 67.91 102.75 102.79 10.71 11.07 16.74 12.38 28.13.45 32.99-34.56 67.78-67.42 101.22-101.58 15.66-16.02 32.94-24.35 55.9-23.4 31.19 1.31 62.51.99 93.7.09 23.99-.63 43.61 7.97 59.99 24.35 88.84 88.79 179.61 175.79 265.26 267.6 41.94 44.96 55.9 104.91 53.87 166.92Z" class="cls-7"></path><path d="M3683.96 3231.88c-1.58 50.18-18.9 95.14-47.57 139.29-15.26-38.52-43.56-61.3-76.06-79.84-4.82-2.75-10.85-7.02-15.98-3.92-6.03 3.65-1.67 10.44-1.08 15.8 7.34 66.25-7.38 123.81-63.01 166.56-18.68 14.31-36.41 30.6-45.18 53.38-3.51 9.09-8.19 5.49-13.1 3.6-17.6-6.84-32.4-18.05-44.64-32-56.17-63.86-85.91-136.63-69.76-222.77 6.35-33.62 15.35-38.66 49.55-39.87 27.32-.99 52.43-10.08 75.52-24.21 42.8-26.24 78.26-63.55 125.7-82.85 7.25-2.97 6.03-9.09-.5-10.35-43.79-8.69-82.54-33.84-127.36-38.93-44.78-5.09-82.58 10.31-115.26 40.05-5.67 5.13-10.76 10.89-16.29 16.16-20.88 19.85-41.31 18.86-61.07-2.61-11.03-11.93-16.38-27.14-23.99-41.04-2.43-4.41-4.86-8.78-7.79-14.09-20.7 26.55-22.5 54.5-10.4 83.53 8.55 20.48 19.08 40.19 28.62 60.26 7.79 16.38 12.2 33.48 10.04 51.8-1.08 9.32-3.96 14.45-14.4 7.79-9.63-6.17-19.8-11.75-31.91-11.3-12.65.45-19.04 4.1-13.28 18.77 46.98 119.76 114.85 225.43 209.59 313.23 6.98 6.48 21.83 11.3 18 21.51-5 13.5-12.42 27.41-27.86 34.74-36.23 17.24-70.25 38.52-103.92 60.31-4.82 3.11-14.72 4.41-12.24 11.88 2.61 7.83 10.58 11.61 20.07 11.39 33.75-.63 67.55-.99 101.35-.72 6.75.05 16.97-5.27 19.89 4.1 3.06 9.9-3.38 17.15-12.6 22.86-23.99 14.81-49.42 23.31-77.68 22.73-33.84-.72-67.55 1.17-101.22 4.41-5.58.54-14.54-2.02-15.53 6.53-.99 8.06 6.48 11.07 13.23 14 32.22 13.95 65.35 24.93 99.73 32.09 5.99 1.26 16.97-1.98 16.2 7.88-.68 8.64-3.65 18.68-14.85 22.46-27.54 9.27-55.76 12.78-84.65 11.43-34.47-1.58-68.41-6.3-101.08-18.09-22.82-8.19-41.76-21.06-54.77-42.21-17.64-28.71-16.02-57.52 1.08-84.83 18.9-30.2 39.6-59.27 60.44-88.21 16.34-22.68 40.5-29.66 67.28-29.21 17.33.27 34.56-.09 50.18-8.78 15.26-8.46 26.82-20.88 26.91-38.97.04-17.1-12.83-25.16-27.72-29.97-1.22-.36-2.34-1.04-3.38-1.8-56.44-42.35-113.5-32.04-170.07-.99-22.41 12.29-42.35 11.75-64.4-1.35-55.18-32.81-110.94-39.65-166.02 1.04-9.99 7.38-27.23 3.24-28.76 24.17-1.76 23.45 3.47 38.43 25.43 49.14 14.22 6.93 29.3 8.15 44.73 7.38 35.01-1.67 61.21 12.47 80.11 42.12 14.67 23.09 31.59 44.78 46.17 67.91 33.57 53.33 17.24 108.24-41.76 130.83-69.22 26.51-140.01 28.4-211.79 2.3 7.07-12.74 13.82-20.52 28.8-23.18 37.08-6.57 70.88-23.72 106.48-37.4-2.79-12.02-11.21-13.64-21.06-14.99-31.05-4.14-62.33-4.86-93.52-3.96-31.95.9-60.26-7.79-86.14-25.79-4.91-3.42-14.31-5.67-12.24-12.24 2.43-7.61 10.22-12.2 19.71-11.93 21.69.49 43.34.4 65.03.72 14.04.18 28.04 1.04 42.08.68 5.4-.14 14.54 5.18 15.66-4.32.81-6.8-1.71-14.22-9.5-19.22-33.8-21.69-68.54-41.58-104.1-60.17-9.32-4.82-26.06-6.44-25.92-16.29.22-15.66 5.18-32.04 18.86-44.19 44.6-39.47 82.76-84.65 115.89-134.2 36.59-54.73 65.26-113.46 90.23-174.21 6.53-15.89-.86-19.13-14.18-19.31-12.11-.18-22.1 5.72-31.86 11.61-9.14 5.54-12.42 1.62-13.73-6.84-2.75-17.69 1.35-34.34 8.64-50.13 9.59-20.79 20.84-40.82 29.7-61.88 13.37-31.91 10.08-57.07-10.17-84.56-6.08 11.75-11.84 22.46-17.19 33.39-3.92 8.1-8.64 15.57-14.9 22.05-21.02 22.01-38.43 22.5-60.8 1.62-6.53-6.12-12.65-12.6-19.31-18.54-44.1-39.24-94.6-47.34-149.6-28.94-28.26 9.5-54.86 23.81-84.43 29.79-3.78.77-8.19 1.62-8.91 5.81-.86 4.95 4.19 5.76 7.47 7.25 25.11 11.34 47.93 26.37 69.31 43.61 44.6 35.87 93.02 62.33 153.33 63.77 24.12 14.9 30.2 37.85 30.78 61.79 2.03 85.28-30.24 156.03-93.79 212.69-3.33 2.93-7.11 5.36-10.85 7.79q-23.54 15.3-38.03-8.19c-10.26-16.52-24.57-29.52-39.51-41.27-52.61-41.4-67.19-96.53-60.31-160.08.77-6.84 5.04-16.25-.31-20.03-6.39-4.46-14.31 1.94-20.88 5.81-30.69 18.05-57.34 40.01-72.28 76.37-22.55-28.62-35.69-60.08-41.94-93.47-16.56-88.21 3.02-166.79 67.55-231.64 80.96-81.37 162.11-162.51 243.11-243.84 17.87-17.96 38.43-28.08 64.58-27.27 31.19.99 62.51 1.08 93.7-.04 21.47-.81 38.03 6.84 52.79 21.69 34.07 34.43 69.13 67.91 102.75 102.79 10.71 11.07 16.74 12.38 28.13.45 32.99-34.56 67.78-67.42 101.22-101.58 15.66-16.02 32.94-24.35 55.9-23.4 31.19 1.31 62.51.99 93.7.09 23.99-.63 43.61 7.97 59.99 24.35 88.84 88.79 179.61 175.79 265.26 267.6 41.94 44.96 55.9 104.91 53.87 166.92ZM3290.48 4154.29c-18 55.76-49.78 104.01-84.79 150.81-11.61-8.15-15.53-17.73-14.09-31.41 2.12-19.58 3.42-39.47-1.31-59-6.75-27.59-21.02-34.34-46.26-21.15-20.07 10.44-35.46 26.82-51.85 43.97-20.39 23.54-39.38 46.44-51.98 76.64-20.03-39.06-45.23-71.24-76.01-98.97-8.06-7.29-16.47-13.95-26.33-18.77-26.64-12.83-40.5-6.39-47.61 22.05-5.04 20.16-3.06 40.5-2.88 60.89.09 6.84 7.74 16.83-1.22 20.03-9.36 3.38-19.35-.49-26.37-10.35-28.17-39.56-53.69-80.47-69.76-126.64-8.91-25.47-14.54-51.58-12.69-78.62 3.38-49.73 28.76-86.54 70.25-111.93 58.1-35.51 123.81-48.97 189.65-60.58 12.38-2.16 26.37 3.15 39.33 6.12 45.27 10.31 90.68 20.52 132.45 41.76 82.99 42.21 109.99 106.71 81.46 195.14Z" class="cls-4" data-source="https://football-logos.cc"></path><!-- source: https://football-logos.cc --></svg>