<svg xmlns="http://www.w3.org/2000/svg" xml:space="preserve" id="Livello_1" x="0" y="0" version="1.1" viewBox="13.33 0.2 256.68 282.65"><!-- Source: https://football-logos.cc --><style id="style2" type="text/css" data-source="https://football-logos.cc">.st0{fill:#ff0003}</style><path id="path550" d="M205.549 54.245c-1.485 28.764-18.26 51.201-37.15 50.132-18.89-1.068-32.883-25.247-31.256-54.003C138.77 21.617 153.876-.88 174.292.24c23.178 1.272 32.884 22.494 31.257 54.004" style="fill:#fff;stroke-width:36.6127"></path><circle id="path496" cx="141.675" cy="154.507" r="128.342" style="fill:#fff;stroke-width:59.2016" data-source="https://football-logos.cc"></circle><g id="g38" transform="matrix(.9737 0 0 .9737 3.727 3.216)" data-source="https://football-logos.cc"><path id="path4" d="M174.5 123.6c18.9-20.4 26-52.5 26-52.5s7.2-23.3.8-47.2C194.8 0 176.5.4 176.5.4c-12.9-.7-20.7 6.4-25.1 12.5-3.5 4.8-4.8 8.5-4.8 8.5l-22.2 56.8c-6.1-2-15.1-.4-15.1-.4S87.8 81.6 85.7 102s18.2 29.3 18.2 29.3-16.4 43.2-18.4 47.5c-1.9 4.3 2 5.8 2 5.8s3.8 1.7 8.2 3.2 5.6-2.1 5.6-2.1l18.8-48.5c26.5 6.6 40.9-3 40.9-3 13.1 22.1 22.8 47.2 24.7 51.3 1.8 4.1 5.5 2.4 5.5 2.4s4.3-1.6 8.5-3.3 1.8-6.2 1.8-6.2c-12.5-31.4-27-54.8-27-54.8m-64.3-8.5c-9.2-5.8-7.1-13.7-7.1-13.7s1.7-8.3 14.9-6.9zm16.1 6.2 7.7-19.9c10.9 5.4 17.7 18.2 17.7 18.2-15.8 5.7-25.4 1.7-25.4 1.7m38.3-12.7s-10.4-15.9-24.3-23.7l21.3-54.7s4.4-14 12.8-13.2c8.5.8 10.8 14.2 10.8 14.2s3.6 14.4-.9 33.9-14.9 38.9-19.7 43.5" class="st0"></path><path id="path6" d="M209.5 45.8c0 2.5-.2 5.2-.3 7.2 33.1 21.9 54.9 59.4 54.9 102 0 67.5-54.7 122.2-122.2 122.2S19.6 222.6 19.6 155.1c0-64.7 50.3-117.7 114-121.9l2.3-6.4C67.7 29.9 13.4 86.1 13.4 155.1c0 70.9 57.5 128.4 128.4 128.4S270.3 226 270.3 155.1c0-46.2-24.3-86.6-60.8-109.3" class="st0"></path><path id="polygon8" d="M74 231.9h11.6v-4.6h-6.2v-22.4H74z"></path><path id="rect10" d="M87.7 226.7h5.2v5.2h-5.2z"></path><path id="rect12" d="M111.1 226.7h5.2v5.2h-5.2z"></path><path id="rect14" d="M134 204.9h5.1v27H134z"></path><path id="polygon16" d="M132 204.9h-4.3l-2.3 17.1-2.3-17.1h-4.9l4 27h5.6z"></path><path id="polygon18" d="M176 204.9h-4.2v27h4.2V216l5.1 15.9h4.1v-27h-4.1v12.6l-4.6-12.6z"></path><path id="polygon20" d="M187.1 228.6v3.3h11.5v-4.5h-5.8l6.1-19.4v-3.1h-11.3v4.8h5.5z"></path><path id="path22" d="M209.1 231.9h4.6l-3.1-27h-7.4l-3.7 27h4l.9-5.9h3.9zm-3.9-10.3 1.6-10.3 1.2 10.3z"></path><path id="polygon24" d="M167.8 215.9h-4.6v-6.5h6.2v-4.5h-11.3v27h11.6v-4.5h-6.5v-7h4.6z"></path><path id="path26" d="M106.4 219.1s3.3-.4 3.2-6.8c-.1-7.3-8.6-7.5-8.6-7.5h-5.1v27h5.1v-11.1h.6l2.6 11.1h5.2zm-4.6-3h-.8v-6.8h.8s2.4-.2 2.4 3.4c-.1 3.6-2.4 3.4-2.4 3.4"></path><path id="path28" d="M150.3 212.1v2.7h4.8v-3.1s-.4-7.2-6.4-7.2-7.1 8.1-7.1 13.8c0 5.8.8 14.2 6.8 14.2s6.6-6.7 6.6-7.8v-3h-4.3v2.5s-.2 4-1.9 4-1.8-4.8-1.8-9.8.5-9.4 1.6-9.4c1.2 0 1.7 2.2 1.7 3.1"></path><path id="path30" d="M129.7 256.6v-15.9H128s-2.4 1.8-3.8 2.1v2.3s1.5-.1 2-.4v11.9h-2.1v2.8h7.5v-2.8z"></path><path id="path32" d="M153.1 256.8v2.6h8.7v-3.3h-5.2s5.7-6.3 5.7-10.8-3.4-4.9-4.4-4.9-4.4.4-4.4 6.1h3.3s-.1-3.3 1-3.3 1 2.2 1 2.2-.1 2.7-2.8 6.9z"></path><path id="path34" d="M147.6 240.5c-4.8 0-4.4 8-4.4 8v3.9s.2 7.5 4.4 7.5 4.5-7.2 4.5-7.2v-4.1c0-.1.3-8.1-4.5-8.1m.1 16.5c-.5 0-.9-3.1-.9-6.9s.4-6.9.9-6.9.9 3.1.9 6.9c.1 3.8-.3 6.9-.9 6.9"></path><path id="path36" d="M137.1 240.5s-4.4-.5-4.4 6.6 4.4 5.2 4.4 5.2.6-.3.8-.5c0 0 0-.1.1-.1.1-.2 0 5-1.1 5-1 0-1-2.3-1-2.3l-2.9.1s-.2 5.4 3.7 5.4 5.1-5.3 5.1-10.6c-.1-5.3-1.4-8.8-4.7-8.8m.7 8.9c-2 1.1-1.8-3-1.8-3s0-3.2 1-3.2c1.2.1.8 6.2.8 6.2"></path></g><!-- source: https://football-logos.cc --></svg>