<svg xmlns="http://www.w3.org/2000/svg" viewBox="1.23 0.92 240.36 407.34"><!-- Source: https://football-logos.cc --><defs data-source="https://football-logos.cc"><radialGradient id="Unbenannter_Verlauf_6" cx="-804.15" cy="439.65" r="83.96" gradientTransform="matrix(0 -2 1.21 0 -459.12 -1496.6)" gradientUnits="userSpaceOnUse"><stop offset=".6" stop-color="#fff" stop-opacity="0"></stop><stop offset=".63" stop-color="#f6f6f6" stop-opacity=".13"></stop><stop offset=".78" stop-color="#cdcccc" stop-opacity=".75"></stop><stop offset=".85" stop-color="#bdbcbc"></stop><stop offset=".89" stop-color="#c1c0c0"></stop><stop offset=".92" stop-color="#cdcdcd"></stop><stop offset=".96" stop-color="#e2e2e2"></stop><stop offset="1" stop-color="#fff"></stop></radialGradient><radialGradient id="Unbenannter_Verlauf_12" cx="-3590.8" cy="-4493.5" r="116.79" gradientTransform="matrix(.69 0 0 .69 2545 3273.9)" gradientUnits="userSpaceOnUse"><stop offset=".6" stop-color="#fff" stop-opacity="0"></stop><stop offset=".63" stop-color="#f6f6f6" stop-opacity=".13"></stop><stop offset=".78" stop-color="#cdcccc" stop-opacity=".75"></stop><stop offset=".85" stop-color="#bdbcbc"></stop><stop offset=".89" stop-color="#c1c0c0"></stop><stop offset=".92" stop-color="#cdcdcd"></stop><stop offset=".96" stop-color="#e2e2e2"></stop><stop offset="1" stop-color="#fff"></stop></radialGradient><radialGradient id="Neues_Verlaufsfeld_6" cx="-809.35" cy="464.42" r="43.06" gradientTransform="matrix(2 0 0 2 1680.6 -767.6)" gradientUnits="userSpaceOnUse"><stop offset="0" stop-color="#f3997b"></stop><stop offset=".04" stop-color="#f29276"></stop><stop offset=".11" stop-color="#f07f68"></stop><stop offset=".19" stop-color="#ec5f52"></stop><stop offset=".27" stop-color="#e83433"></stop><stop offset=".35" stop-color="#e30613"></stop><stop offset=".89" stop-color="#770f00"></stop><stop offset=".91" stop-color="#800f01"></stop><stop offset=".95" stop-color="#8a0f02"></stop><stop offset="1" stop-color="#8d1003"></stop></radialGradient><style>.cls-4{fill:#052453}.cls-7{fill:#1d1d1b}</style></defs><g style="fill:none;isolation:isolate" transform="translate(1.232 .916)scale(1.5602)" data-source="https://football-logos.cc"><path d="M0 0v184.05c0 42.47 34.55 77.03 77.03 77.03s77.03-34.55 77.03-77.03V0z" style="fill:#fff"></path><path d="M2.73 2.86v181.07c0 40.97 33.33 74.3 74.3 74.3s74.3-33.33 74.3-74.3V2.86zm144.5 60.19v120.88c0 38.77-31.43 70.21-70.2 70.21S6.82 222.7 6.82 183.92V63.04h140.41" class="cls-7"></path><path d="M147.23 63.17v120.88c0 38.77-31.43 70.21-70.2 70.21S6.82 222.82 6.82 184.05V63.17z" style="fill:url(#Unbenannter_Verlauf_6);mix-blend-mode:multiply"></path><circle cx="77.03" cy="184.4" r="58.83" style="fill:url(#Unbenannter_Verlauf_12)"></circle><path d="M37.87 152.93c12.95-.46 29.55 11.24 40.8 28.4 9.24-.31 18.21-2.63 25.59-6.22-9.54-26.8-64.04-51.3-80.72-15.26l-.06.12c3.32-3.52 7.08-6.79 14.38-7.04zm30.27-21.87c23.42 1.55 46.46 18.85 50.63 32.66 4.84-6.69 5.34-14.5-1.2-21.94-10.56-10.02-24.83-16.17-40.54-16.17-10.09 0-19.58 2.54-27.88 7.01 4.03-1.03 9.95-1.91 18.98-1.55zm10.75 56.32c-4.35 8.16-6.83 17.08-7.4 25.27 27.98 5.13 76.45-29.81 53.57-62.28l-.08-.11c1.39 4.64 2.34 9.53-1.09 15.98-6.08 11.44-24.51 19.97-45 21.13zm48.8 16.02c-13.05 19.51-39.55 30.81-53.6 27.51 3.38 7.54 9.88 11.87 19.6 9.94 13.96-4.13 26.42-13.42 34.27-27.02 5.04-8.74 7.59-18.23 7.87-27.65-1.12 4.01-3.32 9.57-8.15 17.22zm-58.35 30.69c-6.87-10.98-5.04-31.21 4.2-49.54-4.89-7.85-11.38-14.45-18.19-19.05-18.43 21.66-12.4 81.11 27.15 77.53.04 0 .09 0 .13-.01-4.71-1.11-9.42-2.74-13.29-8.93m-31.11-75.46c-8.22-.85-15.22 2.62-18.4 12.01-3.4 14.16-1.59 29.59 6.26 43.19a58.54 58.54 0 0 0 20.01 20.64c-2.91-2.98-6.63-7.66-10.84-15.66-10.37-21.06-6.91-49.66 2.97-60.17z" style="fill:url(#Neues_Verlaufsfeld_6)"></path><path d="M6.82 6.94h140.41v52.14H6.82z" style="fill:#fc0"></path><path d="m62.34 76.71 10.49 13.14h3.02V70.11h-3.72v13.28L61.64 70.11h-3.02v19.74h3.72zm-33.88 2.74a5.582 5.582 0 0 0-4.15-9.31l-10.55-.03v19.74h10.87c3.26 0 5.91-2.64 5.91-5.91 0-1.8-.81-3.41-2.08-4.49M17.42 73.5h6.53c1.25 0 2.27 1.02 2.27 2.27s-1.02 2.27-2.27 2.27h-6.53zm6.88 12.89h-6.88v-5.08h6.88c1.4 0 2.54 1.14 2.54 2.54s-1.14 2.54-2.54 2.54m108.06-8.6c-2.37-.31-4.4-.76-4.4-2.48 0-1.21 1.3-2.42 4.09-2.42 2.14 0 4 1.07 4.68 2.2l2.96-1.52c-1.52-3.05-4.65-3.92-7.75-3.92-3.64 0-7.64 1.86-7.64 5.55 0 4.4 3.72 5.53 7.75 5.98 2.62.31 4.57 1.04 4.57 2.9 0 2.14-2.2 2.96-4.54 2.96s-4.65-.96-5.55-3.13l-3.1 1.61c1.44 3.61 4.57 4.85 8.6 4.85 4.4 0 8.29-1.89 8.29-6.29 0-4.74-3.81-5.75-7.95-6.29zm-32.71 2.2c0-5.45-4.42-9.87-9.87-9.87h-7.76v19.74h7.76c5.45 0 9.87-4.42 9.87-9.87m-9.87 6.29h-4.06V73.65h4.06c4.29 0 6.09 3.07 6.17 6.15.08 3.21-1.66 6.48-6.17 6.48m-37.11-4.65V70.15h-3.69v11.48c0 2.74-2.22 4.96-4.96 4.96s-4.96-2.22-4.96-4.96V70.15h-3.69v11.48c0 4.78 3.88 8.66 8.66 8.66s8.66-3.88 8.66-8.66zm55.73.11h8.76v-3.47h-8.76v-4.54h10.81v-3.61h-14.5v19.74h14.77v-3.67H108.4zm-48.02 34.02h3.69V96.02h-3.69zm38.58-19.74-8.85 19.74h4.03l6.85-15.59 3.67 8.4h-5.13l-1.51 3.47h8.13l1.66 3.72h4.06l-8.85-19.74zm-10.98 8.32h-7.76l-1.51 3.33h5.85v2.89a6.84 6.84 0 0 1-5.05 2.21c-3.79 0-6.87-3.07-6.87-6.87s3.07-6.87 6.87-6.87c1 0 1.95.21 2.81.6l1.41-3.14c-1.29-.58-2.72-.9-4.22-.9-5.69 0-10.3 4.61-10.3 10.3s4.61 10.3 10.3 10.3c3.5 0 6.6-1.75 8.46-4.42v-7.45zm-42.07-8.32h-3.72v19.74h13.87v-3.44H45.91z" class="cls-7"></path><path d="M37.36 25.95h9.76c1.24 0 2.31.18 3.22.54s1.67.86 2.26 1.49c.59.64 1.03 1.38 1.33 2.24s.44 1.79.44 2.79c0 .91-.16 1.8-.47 2.65s-.79 1.6-1.42 2.26c-.64.65-1.42 1.18-2.36 1.57s-2.04.59-3.29.59h-9.46V25.95zm9.03 11.07c1.41 0 2.43-.48 3.06-1.2.63-.73.94-1.66.94-2.81s-.31-2.08-.94-2.81-1.65-1.27-3.06-1.27h-4.87v8.09zM92.78 40.06h-4.16V25.95h9.89c1.99 0 3.43.36 4.32 1.09.9.73 1.34 1.85 1.34 3.37 0 1.24-.46 2.12-1.09 2.9-.57.7-1.32 1.03-1.74 1.18l2.79 5.58H99.9l-2.58-5.08h-4.54zm5.2-8.1c.79 0 1.32-.2 1.62-.49.3-.3.44-.64.44-1.03s-.15-.74-.44-1.03c-.3-.3-.84-.44-1.62-.44h-5.19v3.01h5.2zM27.62 23.7h-5.28l-9.31 18.62h4.65l2.29-4.6h10.05l2.3 4.6h4.64l-9.33-18.61zm-5.77 10.29 3.13-6.26 3.16 6.26h-6.3zM117 25.93h-4.8l-7.09 14.14h4.23l1.4-2.8h7.74l1.4 2.8h4.22l-7.09-14.14zm-4.59 8.03 2.19-4.37 2.2 4.37zM80.3 25.96h4.16v14.1H80.3zM72.15 40.06h4.16v-14.1l-6.02-.01-3.76 6.88-3.75-6.88-6.05.01v14.08h4.16v-10l5.64 10.04 5.62-10zM125.56 42.31h15.61v-3.64h-11.03V23.7h-4.58z" class="cls-4"></path></g><!-- source: https://football-logos.cc --></svg>