<svg xmlns="http://www.w3.org/2000/svg" width="316" height="316" viewBox="0 0 237 237"><!-- Source: https://football-logos.cc --><defs data-source="https://football-logos.cc"><clipPath id="a"><path d="M222 144h252v252H222z"></path></clipPath><clipPath id="b"><path d="M347.26 144.13c-69.406.55-125.22 57.262-124.67 126.66.55 69.402 57.262 125.22 126.67 124.66 69.402-.55 125.21-57.262 124.66-126.66-.547-68.625-56.043-124.12-124.66-124.66z"></path></clipPath><clipPath id="d"><path d="M294 190h111v121H294z"></path></clipPath><clipPath id="e"><path d="M294.23 190.85v108.17c-.04 3.707.184 7.414.668 11.09l109.26-119.26z"></path></clipPath><clipPath id="g"><path d="M300 216h105v113H300z"></path></clipPath><clipPath id="h"><path d="m300.37 328.85 103.81-112.64z"></path></clipPath><clipPath id="j"><path d="M299 211h106v121H299z"></path></clipPath><clipPath id="k"><path d="M299 325.81a51 51 0 0 0 2.89 5.922l102.29-111v-9.04l-.003-.003z"></path></clipPath><linearGradient id="c" x1="-.003" x2=".999" gradientTransform="matrix(251.98 0 0 -251.98 222.78 270.63)" gradientUnits="userSpaceOnUse"><stop offset="0" stop-color="#552e5b"></stop><stop offset=".063" stop-color="#552e5b"></stop><stop offset=".125" stop-color="#542e5a"></stop><stop offset=".188" stop-color="#542d5a"></stop><stop offset=".25" stop-color="#532d59"></stop><stop offset=".313" stop-color="#522d58"></stop><stop offset=".375" stop-color="#522c57"></stop><stop offset=".438" stop-color="#512c57"></stop><stop offset=".5" stop-color="#502b56"></stop><stop offset=".563" stop-color="#502b55"></stop><stop offset=".625" stop-color="#4f2a54"></stop><stop offset=".688" stop-color="#4e2a54"></stop><stop offset=".75" stop-color="#4e2953"></stop><stop offset=".813" stop-color="#4d2952"></stop><stop offset=".875" stop-color="#4c2951"></stop><stop offset=".938" stop-color="#4c2851"></stop><stop offset="1" stop-color="#4b2850"></stop></linearGradient><linearGradient id="f" x1=".012" x2=".989" gradientTransform="matrix(112.53 0 0 -112.53 292.83 250.48)" gradientUnits="userSpaceOnUse"><stop offset="0" stop-color="#fed166"></stop><stop offset=".008" stop-color="#fdd065"></stop><stop offset=".016" stop-color="#fdd065"></stop><stop offset=".023" stop-color="#fccf64"></stop><stop offset=".031" stop-color="#fccf64"></stop><stop offset=".039" stop-color="#fbce63"></stop><stop offset=".047" stop-color="#fbce63"></stop><stop offset=".055" stop-color="#facd62"></stop><stop offset=".063" stop-color="#facd62"></stop><stop offset=".07" stop-color="#f9cc61"></stop><stop offset=".078" stop-color="#f9cb61"></stop><stop offset=".086" stop-color="#f8cb60"></stop><stop offset=".094" stop-color="#f8ca60"></stop><stop offset=".102" stop-color="#f7ca60"></stop><stop offset=".109" stop-color="#f7c95f"></stop><stop offset=".117" stop-color="#f6c95f"></stop><stop offset=".125" stop-color="#f6c85e"></stop><stop offset=".133" stop-color="#f5c85e"></stop><stop offset=".141" stop-color="#f5c75d"></stop><stop offset=".148" stop-color="#f4c75d"></stop><stop offset=".156" stop-color="#f4c65c"></stop><stop offset=".164" stop-color="#f3c65c"></stop><stop offset=".172" stop-color="#f3c55b"></stop><stop offset=".18" stop-color="#f2c45b"></stop><stop offset=".188" stop-color="#f2c45a"></stop><stop offset=".195" stop-color="#f1c35a"></stop><stop offset=".203" stop-color="#f1c359"></stop><stop offset=".211" stop-color="#f0c259"></stop><stop offset=".219" stop-color="#f0c258"></stop><stop offset=".227" stop-color="#efc158"></stop><stop offset=".234" stop-color="#efc157"></stop><stop offset=".242" stop-color="#eec057"></stop><stop offset=".25" stop-color="#eec056"></stop><stop offset=".258" stop-color="#edbf56"></stop><stop offset=".266" stop-color="#edbe55"></stop><stop offset=".273" stop-color="#ecbe55"></stop><stop offset=".281" stop-color="#ecbd54"></stop><stop offset=".289" stop-color="#ebbd54"></stop><stop offset=".297" stop-color="#ebbc53"></stop><stop offset=".305" stop-color="#eabc53"></stop><stop offset=".313" stop-color="#e9bb52"></stop><stop offset=".32" stop-color="#e9bb52"></stop><stop offset=".328" stop-color="#e8ba51"></stop><stop offset=".336" stop-color="#e8ba51"></stop><stop offset=".344" stop-color="#e7b950"></stop><stop offset=".352" stop-color="#e7b950"></stop><stop offset=".359" stop-color="#e6b84f"></stop><stop offset=".367" stop-color="#e6b74f"></stop><stop offset=".375" stop-color="#e5b74e"></stop><stop offset=".383" stop-color="#e5b64e"></stop><stop offset=".391" stop-color="#e4b64d"></stop><stop offset=".398" stop-color="#e4b54d"></stop><stop offset=".406" stop-color="#e3b54c"></stop><stop offset=".414" stop-color="#e3b44c"></stop><stop offset=".422" stop-color="#e2b44b"></stop><stop offset=".43" stop-color="#e2b34b"></stop><stop offset=".438" stop-color="#e1b34a"></stop><stop offset=".445" stop-color="#e1b24a"></stop><stop offset=".453" stop-color="#e0b149"></stop><stop offset=".461" stop-color="#e0b149"></stop><stop offset=".469" stop-color="#dfb048"></stop><stop offset=".477" stop-color="#dfb048"></stop><stop offset=".484" stop-color="#deaf47"></stop><stop offset=".492" stop-color="#deaf47"></stop><stop offset=".5" stop-color="#ddae46"></stop><stop offset=".508" stop-color="#ddae46"></stop><stop offset=".516" stop-color="#dcad45"></stop><stop offset=".523" stop-color="#dcad45"></stop><stop offset=".531" stop-color="#dbac44"></stop><stop offset=".539" stop-color="#dbac44"></stop><stop offset=".547" stop-color="#daab43"></stop><stop offset=".555" stop-color="#daaa43"></stop><stop offset=".563" stop-color="#d9aa42"></stop><stop offset=".57" stop-color="#d9a942"></stop><stop offset=".578" stop-color="#d8a941"></stop><stop offset=".586" stop-color="#d8a841"></stop><stop offset=".594" stop-color="#d7a840"></stop><stop offset=".602" stop-color="#d7a740"></stop><stop offset=".609" stop-color="#d6a73f"></stop><stop offset=".617" stop-color="#d6a63f"></stop><stop offset=".625" stop-color="#d5a63e"></stop><stop offset=".633" stop-color="#d5a53e"></stop><stop offset=".641" stop-color="#d4a43d"></stop><stop offset=".648" stop-color="#d3a43d"></stop><stop offset=".656" stop-color="#d3a33c"></stop><stop offset=".664" stop-color="#d2a33c"></stop><stop offset=".672" stop-color="#d2a23b"></stop><stop offset=".68" stop-color="#d1a23b"></stop><stop offset=".688" stop-color="#d1a13a"></stop><stop offset=".695" stop-color="#d0a13a"></stop><stop offset=".703" stop-color="#d0a039"></stop><stop offset=".711" stop-color="#cfa039"></stop><stop offset=".719" stop-color="#cf9f38"></stop><stop offset=".727" stop-color="#ce9e38"></stop><stop offset=".734" stop-color="#ce9e37"></stop><stop offset=".742" stop-color="#cd9d37"></stop><stop offset=".75" stop-color="#cd9d36"></stop><stop offset=".758" stop-color="#cc9c36"></stop><stop offset=".766" stop-color="#cc9c35"></stop><stop offset=".773" stop-color="#cb9b35"></stop><stop offset=".781" stop-color="#cb9b34"></stop><stop offset=".789" stop-color="#ca9a34"></stop><stop offset=".797" stop-color="#ca9a33"></stop><stop offset=".805" stop-color="#c99933"></stop><stop offset=".813" stop-color="#c99932"></stop><stop offset=".82" stop-color="#c89832"></stop><stop offset=".828" stop-color="#c89731"></stop><stop offset=".836" stop-color="#c79731"></stop><stop offset=".844" stop-color="#c79630"></stop><stop offset=".852" stop-color="#c69630"></stop><stop offset=".859" stop-color="#c6952f"></stop><stop offset=".867" stop-color="#c5952f"></stop><stop offset=".875" stop-color="#c5942e"></stop><stop offset=".883" stop-color="#c4942e"></stop><stop offset=".891" stop-color="#c4932d"></stop><stop offset=".898" stop-color="#c3932d"></stop><stop offset=".906" stop-color="#c3922c"></stop><stop offset=".914" stop-color="#c2912c"></stop><stop offset=".922" stop-color="#c2912b"></stop><stop offset=".93" stop-color="#c1902b"></stop><stop offset=".938" stop-color="#c1902a"></stop><stop offset=".945" stop-color="#c08f2a"></stop><stop offset=".953" stop-color="#c08f29"></stop><stop offset=".961" stop-color="#bf8e29"></stop><stop offset=".969" stop-color="#bf8e28"></stop><stop offset=".977" stop-color="#be8d28"></stop><stop offset=".984" stop-color="#bd8d27"></stop><stop offset=".992" stop-color="#bd8c27"></stop><stop offset="1" stop-color="#bc8c26"></stop></linearGradient><linearGradient id="i" x1=".028" x2=".864" gradientTransform="matrix(232.01 99.263 -99.263 -215.76 248.81 228.26)" gradientUnits="userSpaceOnUse"><stop offset="0" stop-color="#3e2564"></stop><stop offset=".016" stop-color="#3d2563"></stop><stop offset=".031" stop-color="#3d2462"></stop><stop offset=".047" stop-color="#3c2462"></stop><stop offset=".063" stop-color="#3c2461"></stop><stop offset=".078" stop-color="#3c2360"></stop><stop offset=".094" stop-color="#3b235f"></stop><stop offset=".109" stop-color="#3b235e"></stop><stop offset=".125" stop-color="#3a235e"></stop><stop offset=".141" stop-color="#3a225d"></stop><stop offset=".156" stop-color="#39225c"></stop><stop offset=".172" stop-color="#39225b"></stop><stop offset=".188" stop-color="#38215a"></stop><stop offset=".203" stop-color="#382159"></stop><stop offset=".219" stop-color="#382159"></stop><stop offset=".234" stop-color="#372058"></stop><stop offset=".25" stop-color="#372057"></stop><stop offset=".266" stop-color="#362056"></stop><stop offset=".281" stop-color="#362055"></stop><stop offset=".297" stop-color="#351f54"></stop><stop offset=".313" stop-color="#351f54"></stop><stop offset=".328" stop-color="#341f53"></stop><stop offset=".344" stop-color="#341e52"></stop><stop offset=".359" stop-color="#341e51"></stop><stop offset=".375" stop-color="#331e50"></stop><stop offset=".391" stop-color="#331d50"></stop><stop offset=".406" stop-color="#321d4f"></stop><stop offset=".422" stop-color="#321d4e"></stop><stop offset=".438" stop-color="#311d4d"></stop><stop offset=".453" stop-color="#311c4c"></stop><stop offset=".469" stop-color="#301c4b"></stop><stop offset=".484" stop-color="#301c4b"></stop><stop offset=".5" stop-color="#301b4a"></stop><stop offset=".516" stop-color="#2f1b49"></stop><stop offset=".531" stop-color="#2f1b48"></stop><stop offset=".547" stop-color="#2e1a47"></stop><stop offset=".563" stop-color="#2e1a47"></stop><stop offset=".578" stop-color="#2d1a46"></stop><stop offset=".594" stop-color="#2d1a45"></stop><stop offset=".609" stop-color="#2c1944"></stop><stop offset=".625" stop-color="#2c1943"></stop><stop offset=".641" stop-color="#2c1942"></stop><stop offset=".656" stop-color="#2b1842"></stop><stop offset=".672" stop-color="#2b1841"></stop><stop offset=".688" stop-color="#2a1840"></stop><stop offset=".703" stop-color="#2a173f"></stop><stop offset=".719" stop-color="#29173e"></stop><stop offset=".734" stop-color="#29173d"></stop><stop offset=".75" stop-color="#28173d"></stop><stop offset=".766" stop-color="#28163c"></stop><stop offset=".781" stop-color="#28163b"></stop><stop offset=".797" stop-color="#27163a"></stop><stop offset=".813" stop-color="#271539"></stop><stop offset=".828" stop-color="#261539"></stop><stop offset=".844" stop-color="#261538"></stop><stop offset=".859" stop-color="#251437"></stop><stop offset=".875" stop-color="#251436"></stop><stop offset=".891" stop-color="#241435"></stop><stop offset=".906" stop-color="#241434"></stop><stop offset=".922" stop-color="#241334"></stop><stop offset=".938" stop-color="#231333"></stop><stop offset=".953" stop-color="#231332"></stop><stop offset=".969" stop-color="#221231"></stop><stop offset=".984" stop-color="#221230"></stop><stop offset="1" stop-color="#211230"></stop></linearGradient><linearGradient id="l" x1=".059" x2=".875" gradientTransform="matrix(244.68 104.67 -104.67 -227.55 237.32 222.83)" gradientUnits="userSpaceOnUse"><stop offset="0" stop-color="#fbcd63"></stop><stop offset=".016" stop-color="#facd62"></stop><stop offset=".031" stop-color="#f9cc61"></stop><stop offset=".047" stop-color="#f8cb61"></stop><stop offset=".063" stop-color="#f8ca60"></stop><stop offset=".078" stop-color="#f7c95f"></stop><stop offset=".094" stop-color="#f6c85e"></stop><stop offset=".109" stop-color="#f5c75d"></stop><stop offset=".125" stop-color="#f4c75c"></stop><stop offset=".141" stop-color="#f3c65c"></stop><stop offset=".156" stop-color="#f2c55b"></stop><stop offset=".172" stop-color="#f2c45a"></stop><stop offset=".188" stop-color="#f1c359"></stop><stop offset=".203" stop-color="#f0c258"></stop><stop offset=".219" stop-color="#efc157"></stop><stop offset=".234" stop-color="#eec057"></stop><stop offset=".25" stop-color="#edbf56"></stop><stop offset=".266" stop-color="#ecbe55"></stop><stop offset=".281" stop-color="#ecbd54"></stop><stop offset=".297" stop-color="#ebbd53"></stop><stop offset=".313" stop-color="#eabc53"></stop><stop offset=".328" stop-color="#e9bb52"></stop><stop offset=".344" stop-color="#e8ba51"></stop><stop offset=".359" stop-color="#e7b950"></stop><stop offset=".375" stop-color="#e6b84f"></stop><stop offset=".391" stop-color="#e6b74e"></stop><stop offset=".406" stop-color="#e5b64e"></stop><stop offset=".422" stop-color="#e4b54d"></stop><stop offset=".438" stop-color="#e3b44c"></stop><stop offset=".453" stop-color="#e2b44b"></stop><stop offset=".469" stop-color="#e1b34a"></stop><stop offset=".484" stop-color="#e0b249"></stop><stop offset=".5" stop-color="#e0b149"></stop><stop offset=".516" stop-color="#dfb048"></stop><stop offset=".531" stop-color="#deaf47"></stop><stop offset=".547" stop-color="#ddae46"></stop><stop offset=".563" stop-color="#dcad45"></stop><stop offset=".578" stop-color="#dbac44"></stop><stop offset=".594" stop-color="#dbab44"></stop><stop offset=".609" stop-color="#daaa43"></stop><stop offset=".625" stop-color="#d9aa42"></stop><stop offset=".641" stop-color="#d8a941"></stop><stop offset=".656" stop-color="#d7a840"></stop><stop offset=".672" stop-color="#d6a73f"></stop><stop offset=".688" stop-color="#d5a63f"></stop><stop offset=".703" stop-color="#d5a53e"></stop><stop offset=".719" stop-color="#d4a43d"></stop><stop offset=".734" stop-color="#d3a33c"></stop><stop offset=".75" stop-color="#d2a23b"></stop><stop offset=".766" stop-color="#d1a13a"></stop><stop offset=".781" stop-color="#d0a03a"></stop><stop offset=".797" stop-color="#cfa039"></stop><stop offset=".813" stop-color="#cf9f38"></stop><stop offset=".828" stop-color="#ce9e37"></stop><stop offset=".844" stop-color="#cd9d36"></stop><stop offset=".859" stop-color="#cc9c35"></stop><stop offset=".875" stop-color="#cb9b35"></stop><stop offset=".891" stop-color="#ca9a34"></stop><stop offset=".906" stop-color="#c99933"></stop><stop offset=".922" stop-color="#c99832"></stop><stop offset=".938" stop-color="#c89731"></stop><stop offset=".953" stop-color="#c79731"></stop><stop offset=".969" stop-color="#c69630"></stop><stop offset=".984" stop-color="#c5952f"></stop><stop offset="1" stop-color="#c4942e"></stop></linearGradient></defs><path fill="#fff" d="M235.682 118.27c0 64.798-52.53 117.328-117.332 117.328S1.023 183.068 1.023 118.27 53.533.939 118.35.939s117.332 52.53 117.332 117.332"></path><path fill="#562f5c" d="M230.625 118.266c0 62.004-50.266 112.259-112.275 112.259S6.08 180.27 6.08 118.265c0-62.003 50.255-112.27 112.27-112.27s112.275 50.256 112.275 112.27"></path><path fill="#fff" d="M224.927 118.266c0 58.867-47.721 106.583-106.582 106.583-58.862 0-106.573-47.716-106.573-106.583S59.487 11.688 118.35 11.688s106.577 47.715 106.577 106.578"></path><g clip-path="url(#a)" transform="translate(-66.377 -24.612)scale(.529)"><g clip-path="url(#b)"><path fill="url(#c)" d="M222.04 396.02V144.14h252.43v251.88z"></path></g></g><path fill="#562f5c" d="M33.297 113.796v2.523c0 1.058.248 1.915 1.323 1.915 1.072 0 1.417-.959 1.417-2.475v-1.947c0-1.281-.366-1.959-1.366-1.959s-1.374.624-1.374 1.943m.132 8.908v.238c0 1.105.397 1.725 1.259 1.725 1.058 0 1.353-.756 1.353-3.09v-2.498c-.386.678-.952 1.058-2.078 1.058-2.073 0-2.867-1.553-2.867-3.872v-2.252c0-2.497 1.184-4.011 3.581-4.011 2.395 0 3.544 1.424 3.544 4.126v6.904c0 2.916-.285 5.464-3.56 5.464-2.794 0-3.418-1.872-3.418-3.703v-.105zm14.13-50.541c-1.645-.99-5.765-3.482-7.315-4.364l-.17.254c1.821 1.385 5.148 4.03 6.729 5.22zm3.472 4.522 3.045 2.46-3.703 5.518L33.34 69.411l5.728-8.495 20.58 9.983-3.846 5.686-3.46-1.84zm8.261-35.717 9.714 13.337c.608.84 1.174 1.39 1.852.894.676-.498.3-1.132-.335-2l-9.706-13.336 5.412-3.958 9.352 12.851c3.321 4.559 1.455 7.878-2.079 10.448-3.777 2.744-7.11 2.846-10.294-1.525l-9.316-12.795zm34.814-.058c.56 1.936 1.004 2.509 1.75 2.296.746-.211.767-.856.529-1.76-.35-1.191-1.089-1.71-3.777-2.402-4.392-1.149-6.29-2.525-7.19-5.619-1.136-3.94.323-7.127 5.164-8.528 5.1-1.475 7.776.763 8.993 4.925l-6.042 1.746c-.56-1.936-.926-2.496-1.638-2.29-.53.163-.662.614-.42 1.455.244.841.614 1.397 3.065 2.015 4.94 1.227 6.914 2.475 7.935 5.999 1.136 3.936-.054 7.327-5.218 8.82-5.555 1.586-8.024-.408-9.378-4.847zm25.349-14.442-3.856-.184.238-5.005 14.269.688-.24 4.999-3.792-.18-.847 17.626-6.612-.318zm31.64 10.527.312.122c1.058.434 1.533.333 2.364-1.725.698-1.713.661-2.157-.46-2.614l-.439-.18zm-1.732 4.195-3.327 8.227-6.046-2.455 8.497-21.001 7.935 3.205c4.364 1.76 5.29 4.523 3.75 8.295-1.095 2.709-2.72 3.76-4.624 3.703 1.545 1.386 1.682 3.11.529 5.914l-.211.529c-.83 2.052-1.746 4.408-1.879 5.009l-6.046-2.449a44 44 0 0 1 1.903-5.426l.254-.624c.794-1.963.705-2.366-.36-2.794zm14.507 18.108 14.36-17.513 5.141 4.216-14.36 17.512zm25.868 14.283c1.54-1.143 5.418-3.994 6.83-5.09l-.17-.254c-1.977 1.15-5.697 3.211-7.406 4.232zm-5.51 1.475-3.44 1.873-3.671-5.549 20.604-9.908 5.662 8.549-17.071 15.202-3.788-5.718 3.025-2.486z" data-source="https://football-logos.cc"></path><path fill="#fff" d="M147.434 133.57c0 3.248.651 29.878-28.973 29.878s-29.19-26.372-29.19-29.878V76.348h58.19z"></path><g clip-path="url(#d)" transform="translate(-66.377 -24.612)scale(.529)"><g clip-path="url(#e)"><path fill="url(#f)" d="M294.19 310.11V190.85h109.97v119.26z"></path></g></g><g clip-path="url(#g)" transform="translate(-66.377 -24.612)scale(.529)"><g clip-path="url(#h)"><path fill="url(#i)" d="m300.37 328.85-89.961-195.54 193.77 82.902 89.961 195.54z"></path></g></g><g clip-path="url(#j)" transform="translate(-66.377 -24.612)scale(.529)"><g clip-path="url(#k)"><path fill="url(#l)" d="m299 331.73-94.508-205.46 199.69 85.422 94.508 205.46z"></path></g></g><path fill="#562f5c" d="M197.42 126.312v-.281c0-2.835 1.2-4.803 2.956-7.326 1.323-1.889 1.74-2.546 1.74-4.34 0-1.79-.227-2.485-1.248-2.485-.936 0-1.291.715-1.291 2.041v.8h-2.058v-.862c0-1.82.576-3.847 3.448-3.847 2.672 0 3.387 1.762 3.387 4.232 0 2.546-.773 3.587-2.09 5.401-1.317 1.815-2.243 3.424-2.37 4.761h4.787l-.306 1.922zm10.595-12.167v8.294c0 1.364.414 2.069 1.428 2.069 1.017 0 1.397-.645 1.397-2.116v-8.311c0-1.37-.465-2.031-1.4-2.031-.937 0-1.425.576-1.425 2.074m5.046.1v7.934c0 2.567-.861 4.354-3.703 4.354-2.607 0-3.543-1.756-3.543-4.32v-7.83c0-2.895 1.301-4.35 3.665-4.35 2.366 0 3.567 1.424 3.567 4.232M26.928 126.312v-13.523c-.566.129-1.143.213-1.723.25v-1.704a3.9 3.9 0 0 0 2.326-1.205h1.618v16.182zm21.128 24.477 2.771 4.862-6.49 3.703c2.57-.53 5.914-1.217 7.697-1.587l3.021 5.29-8.582.878-8.532 8.993-3.08-5.397 5.006-4.708-1.713.064-4.482 2.571-2.778-4.866zm10.274 16.245 3.957 4.242-11.194 10.438 3.74 4.004-3.639 2.629-7.31-7.84zm11.262 25.44c.851-1.445 3.004-5.046 3.765-6.406l-.221-.149c-1.2 1.587-3.492 4.513-4.524 5.904zm-3.937 3.052-2.116 2.645-4.835-3.218 13.225-14.944 7.45 4.957-8.63 18.05-4.978-3.312 1.587-3.025zm26.864 16.414-3.869-1.37q.13-.756.372-1.487c-1.132 1.091-2.719 1.091-4.232.53-3.455-1.222-4.91-3.793-2.149-11.585 2.937-8.284 6.348-8.755 10.427-7.31 5.416 1.919 4.799 5.866 4.084 7.976l-5.586-1.978c.386-1.174.576-1.878-.085-2.116-.777-.275-1.18.424-3.01 5.592-1.724 4.86-1.745 5.629-1.059 5.86.746.264 1.207-.597 1.587-1.73l.498-1.407-.884-.312 1.37-3.866 6.398 2.29zm22.361-4.59-5.391-.544-.364 3.554 6.189.62-1.08 4.253-11.162-1.116 1.963-19.654 11.256 1.129-.434 4.347-5.627-.566-.312 3.09 5.395.539zm10.103 7.802-2.676-19.573 6.1-.835c2.587 7.22 3.439 9.563 3.703 10.268h.17c-.614-2.757-1.319-6.623-1.695-9.39l-.157-1.132 5.057-.688 2.676 19.573-6.22.847c-2.883-8.57-3.37-10.194-3.614-10.871h-.205c.486 2.244 1.422 7.358 1.781 9.999l.15 1.105zm16.426-23.086 10.464-4.079 1.57 4.042-5.103 1.994 1.227 3.141 4.724-1.839 1.587 4.073-4.73 1.835 2.794 7.162-5.359 2.085zm20.038-9.855 8.2 11.84c.529.747.994 1.238 1.587.819.59-.417.279-.977-.25-1.754l-8.193-11.835 4.819-3.343 7.891 11.405c2.804 4.052 1.106 6.91-2.025 9.073-3.354 2.32-6.27 2.343-8.956-1.54l-7.834-11.362zm20.478-7.284.19-.221c.657-.746.715-1.164-.733-2.451-1.213-1.058-1.587-1.157-2.292-.364l-.269.306zm2.953 2.645 5.819 5.106-3.75 4.273-14.85-13.029 4.914-5.591c2.703-3.085 5.243-3.042 7.935-.705 1.91 1.689 2.306 3.319 1.726 4.879 1.587-.874 3.041-.492 5.025 1.252l.37.329c1.459 1.275 3.127 2.709 3.581 2.99l-3.771 4.253a38 38 0 0 1-3.926-3.133l-.438-.386c-1.387-1.222-1.742-1.259-2.404-.53zm4.104-18.584-1.58 2.978-3.857-2.052 5.85-11.004 3.862 2.052-1.56 2.922 13.59 7.237-2.708 5.097z" data-source="https://football-logos.cc"></path><!-- source: https://football-logos.cc --></svg>