<svg xmlns="http://www.w3.org/2000/svg" viewBox="98.92 137.48 397.44 566.93"><!-- Source: https://football-logos.cc --><path d="M98.918 137.48h397.44v364.716c0 67.4-33.085 132.044-85.734 169.66-31.589 22.569-70.226 32.554-112.987 32.554-46.324 0-87.808-11.597-120.735-37.56-48.126-37.945-77.984-100.206-77.984-164.654Z" style="fill:#e0001e;fill-rule:evenodd" data-source="https://football-logos.cc"></path><path d="M98.918 137.48h397.44v.394L138.653 626.472c-25.172-35.336-39.735-79.272-39.735-124.276Z" style="fill:#000200;fill-rule:evenodd" data-source="https://football-logos.cc"></path><path d="M420.773 556.886h-51.311l-.374-24.067c-14.077 18.684-37.077 31.741-63.89 31.21-31.94-.633-59.92-18.824-79.617-45.519-23.773-32.218-36.051-76.549-36.051-113.69 0-35.571 8.45-72.322 27.042-103.374 19.791-33.056 50.3-59.32 89.355-59.647 54.354-.456 104.114 60.232 111.448 119.309h-70.122c-4.287-19.925-21.125-41.947-38.18-41.342-18.424.654-31.262 17.072-38.238 36.224-5.569 15.287-7.963 33.428-7.656 51.53.348 20.515 4.94 42.833 13.976 57.192 7.914 12.574 18.84 21.166 30.847 22.199 21.862 1.882 41.2-18.488 46.46-35.894h-32.258V388.28h98.569z" style="fill:#fff;fill-rule:evenodd" data-source="https://football-logos.cc"></path><!-- source: https://football-logos.cc --></svg>