<svg xmlns="http://www.w3.org/2000/svg" viewBox="14.17 137.48 566.93 566.93"><!-- Source: https://football-logos.cc --><path d="M297.638 137.48a283.465 283.465 0 0 1 283.464 283.465A283.465 283.465 0 1 1 297.638 137.48" style="fill:#243937;fill-rule:evenodd" data-source="https://football-logos.cc"></path><path d="M297.638 140.184a280.76 280.76 0 0 1 280.76 280.76 280.76 280.76 0 1 1-280.76-280.76" style="fill:#fff;fill-rule:evenodd"></path><path d="M297.638 153.646a267.3 267.3 0 0 1 267.299 267.299 267.299 267.299 0 1 1-267.3-267.299" style="fill:#d92128;fill-rule:evenodd"></path><path d="M299.616 255.894a173.08 173.08 0 0 1 173.08 173.08 173.08 173.08 0 1 1-173.08-173.08" style="fill:#fff;fill-rule:evenodd"></path><path d="M299.616 269.177a159.797 159.797 0 0 1 159.796 159.796 159.797 159.797 0 1 1-159.796-159.796" style="fill:#d92128;fill-rule:evenodd"></path><path d="M195.2 542.67c-9.446-24.724-16.45-108.052-14.555-167.717.131-4.15 7.663-6.221 12.726-5.795 6.072.511 9.356 5.36 11.265 5.83-.153 7.58 1.36 30.174 1.411 39.427.178 31.592.012 54.593 4.562 89.324 10.213-35.378 27.8-77.114 35.897-101.463.336-1.01.586-1.912.85-2.725.792-2.44 4.26-3.853 5.504-4.814 1.024-.792 6.92-1.763 11.487-.795 4.568.969 7.81 3.878 7.88 7.142.29 13.696 1.051 52.967 7.983 82.916 7.443-26.285 13.3-44.487 32.178-90.49 9.257-22.56 21.217-46.944 32.17-63.362 1.22-1.828 1.45-4.294 2.43-5.775 2.505-3.787 4.408-5.157 6.718-6.66 3.402-2.213 10.252-.754 14.93 1.92 2.63 1.505 3.359 3.18 3.803 6.105.345 2.274.983 3.696.08 5.008-8.966 12.948-19.874 27.592-27.525 42.973-23.503 47.248-43.345 106.15-49.435 153.106-.382 2.946-2.68 5.897-5.838 5.736-1.21 1.291-4.48 1.625-8.435 1.696-3.669.066-6.453-1.006-8.525-2.554-1.923-1.438-3.87-1.227-4.634-3.312-10.452-28.49-13.797-58.729-16.938-73.151-8.743 24.53-15.492 46.738-20.839 66.702-1.636 6.112-3.257 12.209-4.533 17.6-.777 3.285-1.503 6.58-2.184 9.557-.62 2.707-4.087 6.104-8.906 6.679-4.252.507-11.246-1.332-15.099-3.35-1.864-.977-1.98-3.486-2.599-5.852-.372-1.42-1.325-2.59-1.829-3.906" style="fill:#243937;fill-rule:evenodd"></path><path d="M444.413 361.33a159 159 0 0 1 9.048 24.316c-27.635 35.867-62.144 84.114-84.946 150.22-2.844 2.366-5.278 4.616-13.15 3.952-6.39-.538-9.795-4.963-11.503-7.475-.343-1.858-.988-4.269-1.308-6.671-.33-2.466-1.563-4.797-1.86-7.244-.39-3.202-.16-6.866-.504-10.327-3.039-30.632-5.68-63.18-5.604-81.259.017-3.873 1.062-13.786 3.086-17.703-.073-1.56.603-3.678 1.42-5.189 3.293-6.088 5.37-7.311 9.594-7.806 2.929-.343 5.746 1.594 8.37 4.079 1.472 1.394 3.309 2.962 4.032 4.395.672 1.33.092 2.958.01 3.676-2.81 24.16-3.858 48.642-.395 82.826 24.223-50.44 58.254-96.828 83.71-129.79z" style="fill:#243937;fill-rule:evenodd" data-source="https://football-logos.cc"></path><path d="M334.711 519.19c-.344-1.86-.988-4.276-1.309-6.683-.33-2.472-1.563-4.807-1.86-7.26-.39-3.208-.16-6.878-.503-10.347-3.04-30.695-4.641-63.309-4.565-81.424.017-3.882 1.062-13.814 3.086-17.74-.073-1.562.603-3.686 1.42-5.2 3.293-6.1 5.37-7.325 9.595-7.821 2.928-.344 5.746 1.597 8.369 4.087 1.471 1.397 3.309 2.968 4.033 4.404.671 1.332.092 2.964.008 3.684-2.81 24.21-3.859 48.742-.394 82.995 26.712-55.739 65.351-106.538 91.268-139.802l9.227 24.119c-28.651 36.831-67.696 87.933-92.684 160.52-2.843 2.37-5.278 4.625-13.149 3.96-6.391-.54-10.834-4.974-12.542-7.491z" style="fill:#fff;fill-rule:evenodd"></path><path d="M311.779 273.014a34.46 34.46 0 0 1 34.459 34.459 34.459 34.459 0 1 1-34.459-34.46" style="fill:#332720;fill-rule:evenodd"></path><path d="M187.088 529.2c-9.446-24.906-16.45-108.848-14.555-168.953.131-4.181 7.663-6.267 12.726-5.838 6.072.515 9.356 5.4 11.265 5.873-.153 7.637 1.36 30.397 1.411 39.718.178 31.825.012 54.995 4.562 89.982 10.213-35.638 27.8-77.682 35.897-102.21.336-1.018.586-1.927.85-2.746.792-2.457 4.26-3.88 5.504-4.849 1.024-.798 6.92-1.776 11.487-.8 4.568.975 7.81 3.906 7.88 7.194.29 13.797 1.052 53.357 7.983 83.527 7.443-26.479 13.3-44.815 32.178-91.158 9.257-22.724 21.217-47.29 32.17-63.828 1.22-1.842 1.45-4.326 2.43-5.818 2.506-3.814 4.408-5.194 6.718-6.708 3.402-2.23 10.252-.76 14.93 1.934 2.63 1.515 3.359 3.203 3.803 6.15.345 2.29.983 3.723.08 5.045-8.966 13.043-19.874 27.795-27.525 43.289-23.503 47.596-43.345 106.931-49.435 154.235-.382 2.967-2.68 5.94-5.838 5.777-1.21 1.302-4.48 1.638-8.435 1.71-3.669.066-6.453-1.014-8.525-2.574-1.923-1.448-3.87-1.236-4.634-3.336-10.452-28.7-13.797-59.162-16.937-73.69-8.744 24.712-15.493 47.083-20.84 67.194-1.636 6.156-3.257 12.298-4.533 17.729-.777 3.309-1.503 6.63-2.184 9.628-.62 2.726-4.087 6.148-8.906 6.728-4.251.51-11.246-1.342-15.099-3.375-2.983-1.575-3.086-6.293-4.428-9.83" style="fill:#fff;fill-rule:evenodd"></path><path d="M299.756 236.891a40.235 40.235 0 0 1 40.234 40.235 40.235 40.235 0 1 1-40.234-40.235" style="fill:#0b150e;fill-rule:evenodd"></path><path d="M302.258 261.884c-3.859 2.985-7.724 5.712-11.711 9.46-4.658-.88-10.973-2.29-15.058-3.736-1.579-3.96-1.886-7.481-.931-10.845a44.4 44.4 0 0 1 15.318-12.165c5.33.18 8.668 1.673 11.332 3.621-.113 4.526.164 9.218 1.05 13.665m7.24-22.13c9.219 2.398 17.098 8.115 22.286 15.8-1.11-.38-2.305-.634-3.526-.81-3.905-4.762-10.33-9.216-15.91-11.486a27.5 27.5 0 0 1-2.85-3.503M338 271.785c.242 1.746.37 3.53.37 5.342a38.44 38.44 0 0 1-8.244 23.846c.647-2.165 1.304-5.081 1.177-7.242 2.955-5.228 4.308-11.212 4.673-17.239.853-1.242 1.506-2.896 2.024-4.708m-19.551 39.133a38.44 38.44 0 0 1-18.691 4.821c-4.41 0-8.646-.74-12.593-2.102l.14-1.83c2.144-.067 5.082-.732 7.27-1.711 5.925.405 11.943.297 17.721-1.041 1.851.758 4.255 1.415 6.153 1.863m-32.338 2.337a38.7 38.7 0 0 1-13.958-9.136q1.055-.226 2.102-.495c3.855 4.067 8.482 6.922 11.977 8.041zm-14.833-10.06c-6.273-6.846-10.109-15.964-10.132-25.976q1.1-.504 2.213-.973c1.24 2.312 2.37 3.585 3.886 4.564 1.082 5.408 3.095 10.588 6.026 15.245.125 2.465.217 4.462.468 6.585a53 53 0 0 1-2.461.555m-10.117-27.167a38.4 38.4 0 0 1 5.189-18.27l1.014 1.52-.2.259c-2.915 5.118-4.174 11.778-4.13 15.675q-.942.394-1.873.816m5.805-19.29c5.317-8.532 13.87-14.838 23.94-17.203-.392 1.535-.774 2.968-1.774 4.224a45.5 45.5 0 0 0-14.778 11.553c-1.902.33-4.382 1.318-6.24 3.139zm63.21 36.784c3.014-5.18 4.369-11.157 4.726-17.164-1.544-3.452-4.273-7.403-7.184-9.554-3.738 2.103-8.198 3.738-12.249 4.828-.87 5.043-1.884 8.97-3.285 13.986 2.22 4.018 4.817 8.105 7.762 11.683 3.242-.148 6.983-1.604 10.23-3.78M294.8 309.027c5.812.39 11.716.278 17.381-1.056 2.957-2.37 5.504-6.115 6.772-10.175-2.873-3.522-5.414-7.51-7.6-11.448-5.084.146-10.142.286-14.54.294-3.249 3.845-6.536 8.749-9.16 13.163 1.14 3.2 3.895 6.698 7.147 9.222m-26.598-28.967c1.06 5.646 3.153 11.046 6.265 15.86 3.445 2.279 8.142 3.318 12.28 3.291 2.648-4.448 5.953-9.37 9.226-13.25-2.912-4.368-4.832-8.895-5.971-13.618-4.639-.887-10.735-2.263-14.794-3.687-3.96 3.51-5.312 6.148-7.006 11.404m59.608-24.142c.93 3.592.586 6.81-.37 9.8-3.725 2.136-8.25 3.794-12.318 4.886-3.046-3.312-6.972-5.848-11.78-8.823-.895-4.438-1.168-9.14-1.048-13.656 2.992-1.901 6.24-3.106 10.602-3.457 5.373 2.387 11.394 6.723 14.914 11.25M210.367 639.295l2.766 1.629c-.249.956-.172 1.755.213 2.4.528.86 1.44 1.559 2.737 2.086 1.405.569 2.597.727 3.585.48.991-.253 1.821-.832 2.5-1.728.41-.553 1.003-1.816 1.792-3.795q-2.925 1.532-5.886.332-3.684-1.493-4.618-4.967c-.626-2.312-.44-4.714.564-7.188q1.038-2.555 2.836-4.34 1.805-1.783 4.04-2.25c1.486-.304 3.023-.142 4.6.498 2.107.854 3.497 2.414 4.172 4.67l.873-2.149 2.793 1.133-6.258 15.426c-1.126 2.776-2.213 4.633-3.246 5.564-1.037.928-2.305 1.483-3.805 1.656s-3.146-.1-4.943-.83q-3.194-1.296-4.572-3.53c-.926-1.493-.972-3.188-.143-5.097m6.85-9.706c-.949 2.339-1.179 4.237-.679 5.69.493 1.455 1.439 2.462 2.838 3.029q2.084.846 4.144-.183c1.376-.69 2.526-2.175 3.455-4.465.886-2.185 1.074-4.027.552-5.527q-.78-2.252-2.83-3.086-2.008-.817-4.096.25c-1.382.706-2.512 2.14-3.384 4.292M245.107 643.827l3.106 1.383q-1.628 2.596-4.167 3.528c-1.697.615-3.615.6-5.751-.055q-4.041-1.236-5.645-4.445-1.611-3.21-.235-7.704c.949-3.103 2.484-5.262 4.598-6.486 2.123-1.22 4.45-1.448 6.997-.67q3.695 1.131 5.263 4.361 1.576 3.233.181 7.792-.086.282-.273.827l-13.735-4.198q-.759 3.091.296 5.173c.702 1.391 1.816 2.321 3.354 2.792q1.714.524 3.209-.01 1.488-.526 2.802-2.289zm-8.702-8.184 10.282 3.143c.336-1.585.296-2.873-.114-3.84-.627-1.505-1.732-2.505-3.314-2.987q-2.15-.658-4.057.332c-1.27.66-2.201 1.78-2.797 3.352M249.397 653.051l3.004 1.132c-.08.984.133 1.759.622 2.328q1.001 1.139 3.055 1.586c1.48.32 2.682.272 3.615-.142.931-.418 1.65-1.13 2.164-2.128.311-.617.679-1.962 1.118-4.047q-2.62 2.01-5.743 1.335-3.885-.84-5.401-4.102c-1.013-2.172-1.239-4.57-.675-7.18q.585-2.692 2.053-4.761 1.472-2.066 3.593-2.908c1.413-.556 2.956-.657 4.619-.296q3.331.722 4.909 3.888l.492-2.27 2.946.638-3.525 16.27c-.634 2.929-1.388 4.944-2.245 6.037q-1.294 1.643-3.466 2.283c-1.448.429-3.115.441-5.011.03q-3.367-.731-5.11-2.696c-1.166-1.311-1.504-2.974-1.014-4.997m5.09-10.736c-.536 2.467-.437 4.378.305 5.722.732 1.35 1.838 2.18 3.315 2.5q2.196.475 4.052-.891c1.237-.917 2.114-2.575 2.637-4.99.5-2.306.37-4.151-.401-5.54-.77-1.39-1.878-2.243-3.316-2.556q-2.122-.46-3.994.946c-1.241.934-2.108 2.54-2.599 4.809M270.017 655.942l2.68-19.073 2.905.408-.406 2.887c.932-1.244 1.744-2.041 2.436-2.382a3.6 3.6 0 0 1 2.164-.359c1.09.153 2.145.659 3.175 1.51l-1.537 2.847q-1.082-.873-2.268-1.039c-.712-.1-1.371.026-1.996.37q-.936.525-1.45 1.603-.783 1.644-1.07 3.695l-1.403 9.986zM281.306 657.202l.323-3.707 3.707.324-.324 3.706zM312.599 658.474l-3.261.114-.726-20.789c-.76.776-1.76 1.562-3.008 2.354q-1.88 1.191-3.382 1.802l-.11-3.147q2.692-1.387 4.68-3.287c1.318-1.272 2.249-2.489 2.777-3.658l2.098-.073zM320.032 651.656l3.067-.725q.703 2.134 1.956 2.97c.834.55 1.83.75 2.996.586q1.488-.21 2.513-1.053a5.6 5.6 0 0 0 1.585-2.08c.377-.828.63-1.914.774-3.247a16.6 16.6 0 0 0-.071-4.022 15 15 0 0 0-.108-.641c-.506 1.115-1.271 2.078-2.297 2.873a7.25 7.25 0 0 1-3.5 1.474q-3.275.458-5.87-1.596-2.595-2.05-3.14-5.928c-.376-2.674.106-4.93 1.453-6.782q2.021-2.778 5.578-3.277a8.56 8.56 0 0 1 4.892.725c1.545.719 2.81 1.887 3.784 3.488q1.463 2.401 2.146 7.256.709 5.04.038 8.19-.682 3.142-2.622 5.008c-1.3 1.245-2.914 2.004-4.856 2.277-2.06.29-3.82-.046-5.288-1.007q-2.199-1.436-3.03-4.489m11.602-13.483c-.26-1.853-.958-3.26-2.099-4.207-1.145-.951-2.405-1.33-3.797-1.135q-2.152.303-3.505 2.287-1.352 1.99-.958 4.786.354 2.517 2.095 3.875 1.736 1.357 3.96 1.044c1.502-.21 2.654-.905 3.47-2.088.821-1.185 1.095-2.705.834-4.563M338.918 647.674l3.081-1.156c.785 1.719 1.705 2.872 2.765 3.467q1.594.89 3.484.454 2.247-.519 3.434-2.433c.787-1.274 1.009-2.679.655-4.212-.337-1.459-1.091-2.556-2.263-3.282-1.178-.726-2.5-.923-3.973-.582q-.902.208-2.161.874l-.29-2.876q.325-.037.522-.083 2.026-.47 3.41-1.905c.925-.956 1.215-2.174.875-3.645-.27-1.164-.893-2.042-1.857-2.621q-1.452-.877-3.324-.446c-1.237.285-2.178.916-2.82 1.878-.648.968-.908 2.262-.783 3.87l-3.31.168c-.107-2.224.398-4.082 1.503-5.57 1.11-1.487 2.688-2.476 4.74-2.949 1.41-.326 2.784-.319 4.112.01q1.993.501 3.307 1.854c.87.903 1.444 1.94 1.717 3.123a5.6 5.6 0 0 1-.197 3.267c-.393 1.056-1.11 1.991-2.161 2.805q2.418-.004 4.078 1.378 1.653 1.373 2.23 3.881c.522 2.262.145 4.37-1.143 6.326-1.283 1.955-3.191 3.22-5.711 3.804q-3.41.787-6.133-.727-2.722-1.506-3.787-4.672zM372.134 645.6l-3.043 1.175-7.493-19.403q-.693 1.472-2.071 3.208c-.928 1.16-1.793 2.097-2.606 2.81l-1.134-2.939q2.09-2.191 3.345-4.636c.83-1.636 1.311-3.089 1.428-4.367l1.957-.755zM299.587 223.246l20.782 1.422.307-4.472-16.31-1.12.877-12.75 11.68.804.306-4.471-11.68-.804.676-9.82 16.299 1.12.307-4.47-20.771-1.436zM356.965 233.726l19.435 7.495 1.615-4.182-15.252-5.886 4.601-11.921 10.922 4.215 1.613-4.181-10.921-4.216 3.544-9.182 15.242 5.882 1.613-4.181-19.42-7.505zM286.296 223.413l4.48-.099-.796-36.074-4.482.1zM495.989 406.08l.246 4.475 35.356-2-.246-4.476zM444.108 288.083l3.13 3.207 25.817-25.21-3.131-3.206zM473.907 327.744l2.062 3.98 27.922-14.47 5.232 10.097 3.98-2.062-12.313-23.762-3.98 2.062 5.02 9.686zM125.568 321.832l2.357-3.812-26.748-16.54 6.07-9.853-3.813-2.357-14.364 23.308 3.812 2.357 5.938-9.642zM155.754 280.685l.096-.096 14.008-13.937-3.162-3.177-10.926 10.872-21.714-21.823-3.177 3.161zM520.847 344.807c2.913 8.986-3.453 16.528-13.285 19.716-9.832 3.187-19.412.814-22.325-8.171-2.914-8.987 3.453-16.53 13.284-19.716 9.832-3.188 19.414-.815 22.326 8.171m-4.27 1.383c-2.351-7.253-10.55-7.27-16.673-5.284-6.11 1.98-12.744 6.824-10.397 14.062 2.35 7.253 10.547 7.27 16.67 5.284 6.113-1.98 12.746-6.823 10.4-14.062M104.965 374.08c-2.044 9.221-11.357 12.496-21.448 10.258-10.089-2.237-17.145-9.14-15.099-18.363 2.044-9.222 11.357-12.496 21.445-10.258 10.092 2.237 17.148 9.14 15.102 18.362m-4.38-.971c1.648-7.44-5.412-11.617-11.692-13.01-6.272-1.39-14.445-.578-16.092 6.849-1.65 7.437 5.408 11.616 11.688 13.008 6.272 1.39 14.448.58 16.096-6.847M428.421 273.889l2.223 1.816 32.46-19.764-3.68-3.006-23.952 14.584 9.473-26.413-3.683-3.008-11.882 33.13-.025.015zM250.412 228.014l1.497-.252 4.021-26.02 12.376 23.161 1.497-.252 4.802-37.538-4.688.79-2.783 26.23-12.248-23.735-1.661.28-3.74 26.279-11.296-23.746-4.688.79zM115.835 271.38c2.264-2.97 4.686-4.862 7.97-5.446l1.554 4.193c-2.339.416-4.246 1.731-5.956 3.974-4.613 6.05-.15 13.378 4.96 17.274 5.118 3.903 12.935 6.194 17.558.13 2.106-2.762 2.42-5.481 1.911-8.516l4.451-.098c.64 4.808-.12 7.828-2.794 11.335-5.727 7.512-15.63 6.983-23.848.716-8.219-6.266-11.534-16.05-5.806-23.562M97.6 414.263l.514-4.453-12.957-1.493.604-5.238c.75-6.505-2.444-12.473-9.303-13.48-7.252-1.065-12.02 3.978-12.82 10.93l-1.113 9.65zm-16.902-6.46-13.205-1.522.603-5.239c.507-4.393 2.998-7.694 7.712-7.003 4.408.647 5.962 4.467 5.494 8.526zM64.984 427.81c-.132 1.592.279 3.308 1.312 4.555.948 1.147 2.358 1.743 3.833 1.727 3.74-.039 5.472-3.863 6.986-6.703 2.92-5.478 6.466-9.186 13.306-7.499 5.527 1.364 8.709 6.776 7.71 12.306-.566 3.142-1.671 5.282-3.263 7.661l-4.148-1.91c1.38-2.143 2.541-4.088 2.998-6.568.59-3.196-1.146-6.335-4.371-7.13-4.584-1.131-6.356 1.66-8.27 5.251-2.445 4.585-5.038 9.02-10.9 9.08-2.824.03-5.53-1.166-7.338-3.352-1.782-2.15-2.545-5.001-2.331-7.761.237-3.082 1.422-5.47 3.161-7.437l3.646 2.09c-1.22 1.753-2.116 3.092-2.331 5.69M382.347 242.92l3.94 2.134 7.12-13.148 4.636 2.51.492.256.709 17.378 4.54 2.445-.73-18.392c3.771.517 7.554-.717 9.947-4.832 3.68-6.333-.24-12.022-5.045-14.642l-8.79-4.792zm12.947-14.586 5.918-10.885 4.856 2.629c2.78 1.505 5.371 4.97 2.983 9.085-2.234 3.848-6.631 3.029-8.901 1.8zM492.217 376.207l.717 4.424 14.759-2.392.844 5.205.098.545-13.33 11.174.837 5.088 14.118-11.81c1.894 3.303 5.181 5.545 9.9 4.927 7.263-.953 9.375-7.53 8.515-12.936l-1.572-9.887zm19.457 1.346 12.234-1.961.883 5.45c.506 3.12-.655 7.289-5.373 7.911-4.41.58-6.448-3.402-6.86-5.95zM109.591 353.148l1.782-4.113-13.72-5.942 2.095-4.839.211-.512 17.25-2.225 2.039-4.737-18.257 2.336c.185-3.802-1.375-7.463-5.684-9.487-6.63-3.113-11.954 1.29-14.144 6.305l-4.006 9.175zM93.93 341.524l-11.36-4.943 2.194-5.067c1.256-2.9 4.481-5.786 8.79-3.766 4.028 1.889 3.596 6.341 2.57 8.71zM156.764 231.51l13.763 19.89c2.91 4.207 7.338 4.844 11.404 1.913 3.693-2.662 4.408-7.287 1.804-11.051L169.992 222.4l3.669-2.54 13.743 19.862c3.994 5.772 2.79 13.134-2.863 17.21-6.082 4.383-13.34 3.282-17.683-2.994l-13.763-19.89ZM203.928 239.667l-5.908-12.4 5.141-2.45c3.34-1.591 7.798-1.024 9.645 3.142 1.83 4.128.015 7.472-4.285 9.52zm2.886-19.351c1.88-2.297 2.562-5.571.997-8.585-2.82-5.43-8.072-5.313-14-2.49l-7.632 3.636 15.389 32.304 8.657-4.124c6.595-3.142 9.65-8.64 6.608-15.02-1.786-3.744-5.112-6.093-10.02-5.721m-10.4 3.58-4.52-9.49 3.568-1.7c2.753-1.31 6.687-2.58 8.551 1.42 1.597 3.427.049 6.126-3.569 7.85zM325.73 225.617l4.378.957 5.583-25.54 11.972 29.534 2.095.493 7.626-34.881-4.379-.958-5.414 24.768-12.107-29.406-2-.438zM453.107 296.773l2.685 3.59 7.177-5.37 9.097-.115-7.037 17.967 3.16 4.224 8.714-22.252 19.18-.244-3.321-4.441-23.697.302 15.386-11.51-2.685-3.589zM496.4 420.562l7.428 3.002-.548 14.265-7.633 2.36-.196 5.1 36.973-12.795.047-1.212-35.874-15.842zm10.993 4.443 16.193 6.544-16.642 5.146z" style="fill:#fff;fill-rule:evenodd" data-source="https://football-logos.cc"></path><!-- source: https://football-logos.cc --></svg>