<svg xmlns="http://www.w3.org/2000/svg" viewBox="218.46 53.38 363.07 693.25"><!-- Source: https://football-logos.cc --><path fill="#fff" d="M244.087 314.325v201c0 1 .3 1.9 1.1 2.6.3.2.6.5.9.8 4.6 4.2 9.4 8 14.4 11.6 8.3 6 16.9 11.3 25.8 16.3 12.4 6.9 25.2 13.1 38.2 18.8 22.3 9.8 45.1 18.3 68.4 25.7 1.9.6 3.7 1.2 5.6 1.7 1.1.3 2.1.3 3.2 0 .5-.2.9-.3 1.4-.5 4.3-1.4 8.6-2.8 12.8-4.2 22.6-7.4 44.8-16 66.5-25.8 16.3-7.4 32-15.7 47.1-25.2 8.6-5.4 16.7-11.3 24.2-18.1.6-.5 1.2-1.1 1.7-1.6.4-.4.7-1 .7-1.6v-3.8c0-22.5.1-45.1.1-67.6v-300.6c0-8.7 0-17.4-.1-26.2 0-1.5 0-2.9-.1-4.4 0-.9-.5-1.5-1.2-1.8-.4-.2-.9-.4-1.3-.6-21.2-9.5-43-17.4-65.5-23.2-7.6-2-15.2-3.7-22.9-5.1-3.7-.7-7.3-1.3-11-1.9s-7.4-1.1-11-1.6c-2-.3-4.1-.5-6.1-.7-3.8-.5-7.6-.9-11.4-1-.8 0-1.6-.1-2.3-.2-5.5-.5-10.9-.7-16.4-.8-8-.1-16.1-.1-24.1.4-3.8.2-7.6.5-11.4.8-2.1.2-4.3.4-6.4.7-2.5.3-5.1.6-7.6.9-2.2.3-4.5.5-6.7.8-4.1.6-8.1 1.4-12.2 2.1-9.6 1.7-19 3.8-28.4 6.3-17 4.5-33.5 10.1-49.7 16.8-5 2.1-9.9 4.3-14.8 6.4q-1.2.45-1.2 1.8v3.5c-.3 65.9-.3 131.7-.3 197.5" data-source="https://football-logos.cc"></path><path fill="#004276" d="M581.487 314.425v211c0 5.3.7 3.7-3.2 7.2-8.4 7.4-17.5 13.8-27.1 19.7-17 10.4-34.6 19.6-52.7 27.7-24.3 10.8-49 20.3-74.2 28.5-7.2 2.3-14.4 4.6-21.5 6.8-.4.1-.7.3-1.1.4-1.1.3-2.1.3-3.2 0-2.5-.8-5.1-1.5-7.6-2.3-21.2-6.6-42.1-14-62.8-22.2-16.9-6.7-33.6-14.1-49.8-22.3-12.8-6.5-25.2-13.5-37.1-21.5-7.3-4.9-14.3-10.2-20.9-16.1-.2-.2-.4-.4-.7-.6-.7-.6-1.1-1.3-1.1-2.3v-425.7c0-4.1-.5-3.2 3.1-5 13.2-6.5 26.6-12.5 40.3-17.8 16.7-6.4 33.8-11.9 51.2-16.1 8-1.9 16-3.6 24.1-5 5.3-.9 10.6-1.7 16-2.3l11.7-1.5c2.4-.3 4.9-.5 7.3-.7 5.7-.4 11.3-.8 17-.9 9.2 0 18.4-.2 27.6.2 4.4.2 8.8.6 13.2.9 2.6.2 5.3.4 7.9.7 4 .4 8 .9 11.9 1.4 4.4.6 8.7 1.4 13 2.1 9 1.5 17.9 3.4 26.7 5.6 28 7 54.9 17 81 29.3 3 1.4 6 2.9 9 4.4.5.3 1 .5 1.5.9.2.2.4.5.4.7.1.4.1.8.1 1.2v3.2zm-337.4-.1v201c0 1 .3 1.9 1.1 2.6.3.2.6.5.9.8 4.6 4.2 9.4 8 14.4 11.6 8.3 6 16.9 11.3 25.8 16.3 12.4 6.9 25.2 13.1 38.2 18.8 22.3 9.8 45.1 18.3 68.4 25.7 1.9.6 3.7 1.2 5.6 1.7 1.1.3 2.1.3 3.2 0 .5-.2.9-.3 1.4-.5 4.3-1.4 8.6-2.8 12.8-4.2 22.6-7.4 44.8-16 66.5-25.8 16.3-7.4 32-15.7 47.1-25.2 8.6-5.4 16.7-11.3 24.2-18.1.6-.5 1.2-1.1 1.7-1.6.4-.4.7-1 .7-1.6v-3.8c0-22.5.1-45.1.1-67.6v-300.6c0-8.7 0-17.4-.1-26.2 0-1.5 0-2.9-.1-4.4 0-.9-.5-1.5-1.2-1.8-.4-.2-.9-.4-1.3-.6-21.2-9.5-43-17.4-65.5-23.2-7.6-2-15.2-3.7-22.9-5.1-3.7-.7-7.3-1.3-11-1.9s-7.4-1.1-11-1.6c-2-.3-4.1-.5-6.1-.7-3.8-.5-7.6-.9-11.4-1-.8 0-1.6-.1-2.3-.2-5.5-.5-10.9-.7-16.4-.8-8-.1-16.1-.1-24.1.4-3.8.2-7.6.5-11.4.8-2.1.2-4.3.4-6.4.7-2.5.3-5.1.6-7.6.9-2.2.3-4.5.5-6.7.8-4.1.6-8.1 1.4-12.2 2.1-9.6 1.7-19 3.8-28.4 6.3-17 4.5-33.5 10.1-49.7 16.8-5 2.1-9.9 4.3-14.8 6.4q-1.2.45-1.2 1.8v3.5c-.3 65.9-.3 131.7-.3 197.5M299.787 687.425h-64.6c-4.8 0-4.2.6-4.2-4.2v-35.3c0-1 0-2 .1-2.9 0-.6.5-1 1.1-1.1.3 0 .6-.1.9-.1h9.1c.3 0 .6 0 .9.1.7.1 1.1.5 1.1 1.1 0 .8.1 1.6.1 2.3v32c0 .7.1 1.4.1 2 0 .3.4.7.8.8.3 0 .6.1.9.1h25.5c1.3 0 1.6-.4 1.7-1.8v-18.900000000000002c.1-1.6.7-2.6 2.2-3.1 1.2-.4 2.5-.7 3.7-.8 4.3-.5 8.6-.6 12.9 0 1.4.2 2.9.6 4.3 1 .6.1 1.1.3 1.7.5.4.1.9-.2.9-.5 0-1 .1-2 .1-2.9 0-1.7 0-3.3.1-5 0-.3.5-.7.8-.7.2 0 .4 0 .6.1 3.6 1 7.2 2 10.7 3 .7.2 1 .6 1 1.3.1 1.5.1 2.9.1 4.4 0 .2.4.5.6.5h.3c.2 0 .4-.1.6-.2 4.4-1.6 9-1.8 13.6-1.6 2.4.1 4.9.1 7.3.8.7.2 1.5.5 2.2.8.7.4 1.2 1.1 1.2 1.9v19.1c0 2 .2 2.2 2.2 2.2h12.9c.5 0 1 0 1.5-.2.2-.1.5-.4.6-.6.1-.7.2-1.4.2-2v-19.4c0-.5 0-1 .1-1.4.1-.2.3-.5.6-.6.2-.1.6-.2.9-.2h10c.3 0 .6.1.9.1.3.1.7.5.7.8 0 .7.1 1.4.1 2.1v24.1c0 .6 0 1.2-.2 1.7 0 .2-.4.4-.6.5-.3.1-.6.1-.9.1h-2.9c-21.7.1-43.1.1-64.5.1m-7.6-5.2c1.2.1 2.3.1 3.5 0 1.1 0 2.1 0 3.2-.1.3 0 .8-.4.8-.7.1-.4.2-.8.2-1.2v-5.9c0-.7 0-1.4-.1-2.1q-.3-2.7-2.4-4.2c-.6-.4-1.3-.9-2-1.2-1.4-.6-3-1-4.5-1.3-1.2-.2-2.3-.2-3.5-.1-1.2.2-2.1 1-2.4 2.2-.1.4-.1.8-.1 1.2v12c.1.6.5 1.1 1.1 1.1 2.1.3 4.1.3 6.2.3m34.3-7.3c0-2.1.1-4.3 0-6.4-.1-1.6-1.2-2.7-2.8-2.9-3.3-.3-6.4.6-9.2 2.2-1.9 1.1-3 2.8-2.9 5.1v7.6c0 .3.1.6.1.9.1.3.4.7.8.8.4 0 .8.1 1.2.1h11.700000000000001c.6 0 1.1-.5 1.1-1.1zM423.387 653.725c0 .3.1.6 0 .8-.3.8-.7 1.6-1 2.4-1.6 3.9-2.3 7.9-2 12.1.4 5.2 2.9 9 7.7 11.2 2.8 1.3 5.8 1.9 8.8 2 2.4.1 4.9 0 7.3 0 1 0 1.4-.5 1.4-1.5v-27.6c0-1 .1-1.9.1-2.9 0-.3.4-.7.8-.7.5 0 1-.1 1.5-.1h10.6c3 0 6.1.4 9 1.2 1.9.5 3.7 1.2 5.4 2.2 3.8 2.3 6 5.8 6.7 10.2.4 2.4.4 4.9.3 7.3 0 .3-.1.6-.1.9-.1.4-.4.7-.8.8-.4 0-.8.1-1.2.1h-7.3c-.4 0-.8-.1-1.2-.1-.3 0-.7-.4-.7-.8 0-1.5-.1-2.9-.1-4.4 0-1.4-.2-2.7-.6-4.1-.9-3.1-2.9-5.3-5.9-6.5-.3-.1-.6-.2-.8-.3-2.3-.8-2.7-.2-2.7 1.8v25.8c0 1-.1 1.9-.2 2.9 0 .2-.3.5-.6.6-.5.1-1 .1-1.5.1-7.7 0-15.5.1-23.2 0-4.3-.1-8.6-.6-12.8-1.7-1.6-.4-3.2-1-4.7-1.7-5.6-2.6-8.4-7.1-8.8-13.2-.1-2.4.1-4.7.6-7 .7-3.2 1.8-6.2 3.2-9.1.3-.7.8-1.1 1.6-1.1h10.3c.4.3.6.4.9.4M556.487 658.225c.4-.1.8-.3 1.1-.3h10.9c.5.1 1 .5 1 1 0 .8.1 1.6.1 2.3v23.2c0 .7-.1 1.4-.1 2 0 .3-.4.8-.8.8-.9 0-1.8.1-2.6.1h-35.2c-.6 0-1.2 0-1.8-.1-.5 0-.9-.5-.9-1v-40c0-2.4.1-2.5 2.4-2.5h8.5c.5 0 1 .1 1.4.2.2.1.5.3.6.6.1.4.2.8.2 1.1v32.3c0 1 0 2 .1 2.9 0 .7.5 1.1 1.1 1.2.3 0 .6.1.9.1h11.2c.4 0 .8 0 1.2-.2.2-.1.5-.4.6-.6.1-.7.2-1.4.2-2v-19.4c-.3-.5-.2-1-.1-1.7M492.787 687.425h-7.1c-.5 0-1-.4-1-.9v-3.2c0-.5.4-.9 1-.9h12.9c2.3 0 4.4-.6 6.4-1.8 4.3-2.4 7.1-7.4 6-13.3-.9-5.2-5.4-9.1-10-9.9-1.3-.2-2.5-.4-3.8-.3h-9.4c-.8 0-1.6-.1-2.3-.1-.4 0-.8-.4-.8-.7 0-.4-.1-.8-.1-1.2.1-6.3-1-5.4 5.4-5.5h7.3c2.8 0 5.5.4 8.1 1 2.7.6 5.2 1.7 7.6 3.1 2.5 1.6 4.6 3.6 6.2 6.2 1.4 2.4 2.2 5 2.3 7.8.2 6.2-2.3 11-7.1 14.7-3.2 2.4-6.8 3.7-10.7 4.5-2.3.4-4.7.6-7 .6-1.3-.2-2.6-.1-3.9-.1"></path><path fill="#df0102" d="M475.187 729.825c.5-.5.8-.9 1.1-1.2l14.7-14.7c.3-.3.6-.5.9-.7.1-.1.4-.1.5 0 .2.1.3.2.5.3 5.2 5.2 10.4 10.3 15.6 15.5.2.2.3.5.5.7-.2.3-.3.6-.5.8-5.3 5.3-10.7 10.6-16 15.9-.1.1-.4.1-.6.2-.2-.2-.5-.3-.7-.5-5.1-5.1-10.2-10.2-15.4-15.3-.1-.3-.3-.5-.6-1M325.787 729.625c0 .2 0 .4-.1.6-.3.4-.6.8-1 1.1l-14.3 14.3c-.4.4-.7.9-1.5 1-.2-.2-.6-.4-.8-.7-5-5-10-9.9-15-14.9-.2-.2-.4-.4-.6-.7s-.2-.6 0-.8c.2-.3.5-.6.7-.9 4.9-4.9 9.8-9.8 14.8-14.7.3-.3.7-.6 1.2-1 .5.4 1 .8 1.4 1.2 8.4 8.2 13.5 13.4 15.2 15.5"></path><g fill="#004276" data-source="https://football-logos.cc"><path d="M391.087 672.525v12c0 .7-.1 1.4-.1 2 0 .3-.4.7-.8.7h-11.100000000000001c-.6 0-1.1-.5-1.1-1.1s-.1-1.2-.1-1.8v-24.3c0-1.9.2-2.3 2.1-2.3h9.1c.4 0 .8.1 1.2.1s.7.4.8.8c0 .8.1 1.6.1 2.3-.1 4-.1 7.8-.1 11.6M447.787 719.025c-.5.1-1.1.2-1.7.2h-5.6c-1 0-1.9.2-2.9.4-1.4.4-2.4 1.3-3 2.6-.7 1.5-1 3.2-.8 4.9 0 .2.4.6.6.5.4-.2.9-.4 1.3-.6 1.4-.7 2.9-1.1 4.5-1.1 1.8-.1 3.5 0 5.2.4 2.3.6 3.8 2 4.4 4.2.2.6.3 1.1.4 1.7.2 2 .2 4.1 0 6.2-.1.8-.3 1.5-.5 2.3-.6 1.8-1.8 3-3.5 3.8-.4.2-.9.4-1.4.5-3.6.9-7.2.9-10.7.1q-3.9-.9-5.1-4.8c-.5-1.5-.8-3-.9-4.6-.2-3-.2-6.1 0-9.1.1-1.9.5-3.7 1.1-5.4q1.5-4.35 6-5.4c.1 0 .2 0 .3-.1 2.5-.6 8.9-.7 11.4-.1.3.1.6.2.8.3.1.1.3.3.3.5.3.8.2 1.7-.2 2.6m-14.1 15.5c.1.9.1 1.8.2 2.7.1.8.3 1.5.7 2.2s.9 1.3 1.7 1.6c2.2.8 4.4.9 6.6 0q1.35-.45 1.8-1.8 1.2-3.6 0-7.2-.45-1.35-1.8-1.8c-.5-.2-.9-.4-1.4-.4-2-.3-3.9-.1-5.7.7-1.4.6-2.3 1.5-2 3.1 0 .4-.1.7-.1.9M380.687 745.625c-2 0-3.9.1-5.8-.4-.3-.1-.6-.1-.8-.3-.2-.1-.3-.3-.3-.4-.1-.7-.1-1.4.1-2 .1-.5.5-.8 1.1-.8h6.2c1.2 0 2.3-.1 3.5-.5 1.5-.4 2.6-1.3 3.2-2.8.7-1.5 1.1-3.1 1-4.8 0-.4-.5-.7-.8-.5-1.3.7-2.6 1.4-4.1 1.6-2.1.4-4.1.4-6.1-.2-3-.8-4.7-2.7-5.3-5.6-.6-2.5-.5-5.1 0-7.6.6-2.6 2.1-4.3 4.6-5.3 2.8-1.1 9.5-1.1 12.2-.1 1.8.7 3.2 1.9 3.9 3.7.3.9.6 1.9.8 2.8.7 4.8.7 9.6 0 14.3-.2 1.1-.5 2.3-1 3.4-1 2.6-2.9 4.1-5.5 4.8-1.2.3-2.5.6-3.8.6-1.1.1-2.1.1-3.1.1m8.2-19.1c0-1.6-.1-3.1-.6-4.6-.4-1.1-1.1-1.8-2.2-2.2q-3-1.05-6 0c-1.1.4-1.8 1.1-2.2 2.2-.1.4-.3.7-.3 1.1-.2 1.5-.2 2.9 0 4.4.3 2 1.6 3.3 3.6 3.6 1.8.3 3.5.2 5.2-.6 2.6-1.3 2.5-1.2 2.5-3.9M400.287 731.025c.1-1.7.2-3.5.3-5.2.1-1.9.6-3.7 1.3-5.4 1.1-2.4 2.9-3.9 5.4-4.6 2.9-.8 9.6-.9 12.2-.1.5.2.9.5.9 1 0 .6-.1 1.2-.1 1.7 0 .4-.4.7-.8.7-.7 0-1.4.1-2.1.1h-4.7c-.9 0-1.7.2-2.6.4-1.7.4-2.7 1.5-3.3 3s-.7 3-.7 4.6c0 .2.5.6.6.5.3-.1.5-.2.8-.4 1-.7 2.1-1 3.3-1.2 2.5-.4 5.1-.4 7.6.4 1.9.6 3.2 1.8 3.8 3.8.1.2.1.4.2.6.7 2.3.6 7-.1 9.3-.7 2.5-2.3 4-4.7 4.8-.9.3-1.9.6-2.9.6-2 .1-3.9.1-5.9 0-1.1-.1-2.1-.4-3.1-.7-1.8-.6-3-1.7-3.8-3.4q-1.05-2.25-1.2-4.8c-.2-2-.3-3.8-.4-5.7m11.6-1.3c-1.7-.1-3.5.5-5.1 1.5-.6.4-.9 1-.9 1.7v.3c0 1.7.2 3.3.5 4.9.3 1.3 1 2.4 2.3 2.9q3.15 1.2 6.3 0c1.1-.4 1.8-1.2 2.1-2.3.6-2.1.6-4.2 0-6.4-.3-1.1-1-1.8-2.1-2.3-1-.2-1.9-.3-3.1-.3M364.487 730.425v12.3c0 .6-.1 1.2-.1 1.7 0 .2-.2.4-.4.4-.6.1-1.2.2-1.7.2-3.6 0-3.4.3-3.4-3.3v-19.1c0-.6-.1-1.2-.1-1.7 0-.2-.4-.5-.7-.5-1 .2-2.1.5-3.1.7s-2.1.5-3.1.7c-.1 0-.4-.1-.5-.3-.2-.7-.4-1.5-.6-2.3-.1-.3.2-.8.5-1 .3-.1.5-.2.8-.3 1.7-.6 3.3-1.2 5-1.8.9-.4 1.9-.5 2.9-.5 1.2 0 2.3 0 3.5.1.6 0 1 .5 1 1.2v2.3zM384.387 653.825h-5.6c-.4 0-.9-.5-.9-1 0-1-.1-1.9-.1-2.9v-4.4c0-1.1.4-1.4 1.4-1.5h9.6c.5 0 1 0 1.4.1.2.1.4.4.6.6.1.1.1.2.1.3v7.9c0 .5-.4.9-1 .9zM562.687 653.925c-1.9 0-3.7-.1-5.6-.1-.4 0-.7-.4-.8-.7 0-.1-.1-.2-.1-.3v-7.6c0-.6.4-1.1 1.1-1.1h11.100000000000001c.3 0 .8.4.8.7 0 .1.1.2.1.3v7.6c0 .6-.5 1.1-1.2 1.1-1.7 0-3.5 0-5.4.1q0-.15 0 0M362.087 690.325h4.7c.4 0 .8.1 1.1.2.2.1.4.4.6.6.1.1.1.2.1.3v7.6c0 .5-.5.9-.9 1-.3 0-.6.1-.9.1h-9.4c-.4 0-.8-.1-1.2-.2-.3-.1-.7-.5-.8-.8v-7.6c0-.6.4-1.1 1.1-1.1.9-.1 1.8-.1 2.6-.1 1.1-.1 2-.1 3 0M435.087 700.025h-4.7c-.3 0-.6-.1-.9-.1-.3-.1-.7-.5-.7-.8 0-2-.1-3.9-.1-5.9 0-.7.1-1.4.1-2 0-.4.4-.7.8-.8s.8-.1 1.2-.1h9.1c.4 0 .8.1 1.2.2.3.1.7.5.8.8 0 .1.1.2.1.3v7.3c0 .6-.6 1.1-1.1 1.1-1.5.1-2.9.1-4.4.1-.6 0-1 0-1.4-.1M451.987 700.125c-1.8 0-3.5-.1-5.3-.1-.6 0-1.1-.6-1.1-1.2v-7.3c0-.6.5-1.1 1.1-1.2.3 0 .6-.1.9-.1h9.1c.5 0 1 .1 1.4.2.2 0 .3.3.4.4s.1.2.1.3v7.9c0 .4-.4.8-.7.8-.6.1-1.2.2-1.7.2-1.5.1-2.8.1-4.2.1"></path></g><path fill="#df0102" d="M399.287 456.825c-.4-.9-1.1-1.6-1.8-2.3-9.5-10.9-19-21.9-28.6-32.8-2.4-2.8-4.9-5.6-7.3-8.4-.4-.5-1-1-1.1-1.7.4-.9 1.1-1.6 1.8-2.3 8-9.2 16.1-18.5 24.1-27.7 3.9-4.4 7.7-8.9 11.6-13.3.5-.6 1.1-1.1 1.3-1.9-.4-.9-1.1-1.6-1.8-2.3-4.2-4.8-8.4-9.5-12.7-14.3-.6-.7-1.4-1.4-1.8-2.3.2-.8.9-1.3 1.4-1.9 3.7-4.2 7.4-8.4 11.1-12.5 2.1-2.3 1.9-1.9 1.9-5v-35.8c0-2.8.2-2.5-1.8-4.7-1-1.2-2.1-2.3-3.1-3.5-.3-.4-.6-.8-.8-1.1.1-.3.1-.5.3-.7l7.2-8.1c.1-.1.3-.3.5-.3q.3-.15.6 0c.3.2.6.5.9.8 2.1 2.3 4.2 4.7 6.2 7 .2.2.4.5.5.7.3.3.3.8 0 1.1-1 1.2-2.1 2.4-3.1 3.5-.6.7-1.2 1.3-1.7 2-.5.5-.7 1.1-.7 1.9v37.1c0 3.4-.3 2.7 2.1 5.5 3.6 4.1 7.3 8.2 10.9 12.3.5.6 1.1 1.1 1.4 1.9-.2.8-.8 1.3-1.3 1.9l-11.7 13.2c-.5.5-.9 1-1.4 1.5-2.4 2.8-2.5 2.1 0 4.9 11.6 13.4 23.3 26.7 34.9 40.1 2.7 3.1 2.7 2.2 0 5.3-11.6 13.3-23.2 26.6-34.7 39.9-2.7 3.1-2.7 2.3 0 5.3 4.3 4.9 8.6 9.7 12.9 14.5.5.5.9 1 1.3 1.6.1.1.1.4 0 .5-.3.5-.7.9-1.1 1.4-3.4 3.9-6.9 7.8-10.3 11.7-.5.6-1 1.2-1.6 1.8-1.1 1-1.4 2.2-1.4 3.7v37.3c-.1 1.1.3 2.1 1.1 2.9 1.3 1.4 2.5 2.8 3.7 4.2.3.3.5.6.8.9.2.3.2.8 0 1.1-.3.4-.6.8-.9 1.1-2.1 2.3-4.2 4.7-6.2 7-.5.6-1 .6-1.5.1l-7.2-8.1c-.4-.4-.3-.9 0-1.3 1.2-1.3 2.3-2.6 3.5-4 .5-.5.9-1 1.3-1.6.3-.4.4-.9.5-1.3.1-.6.1-1.2.1-1.8v-36.4c0-2.5.1-2.2-1.6-4.2-3.6-4.1-7.3-8.2-10.9-12.3-.3-.4-.7-.7-1-1.1-1.1-1.2-1.1-1.3-.1-2.4.4-.5.9-1 1.4-1.5 4.4-4.9 8.7-9.8 13-14.7.3-.9.9-1.4.9-2.1m.6-61.3c-.1 0-.2 0-.3.1-.3.3-.6.5-.9.8-4 4.6-8.1 9.3-12.1 13.9-.3.3-.5.6-.7.9-.1.2-.1.6 0 .8.1.3.3.5.5.7 4.2 4.8 8.3 9.6 12.5 14.4l.6.6c.2.1.6.1.8 0 .2-.2.5-.4.6-.6 4.2-4.8 8.3-9.6 12.5-14.4.1-.1.2-.3.4-.5.2-.3.3-.8 0-1.1-.3-.4-.6-.8-.9-1.1-3.8-4.4-7.7-8.8-11.5-13.3-.3-.4-.7-.7-1-1.1-.1 0-.3 0-.5-.1"></path><path fill="#004276" d="M349.787 159.525v-24c.1-1.4.4-1.6 1.8-1.8.5-.1 1-.1 1.5-.1 5.1-.1 10.2-.2 15.3-.2 2.5 0 5.1.1 7.6.7 2 .4 4 1 5.8 2 1.2.6 2.4 1.4 3.4 2.3 2.6 2.4 3.7 5.5 3.4 9-.1 1.7-.8 3.2-1.9 4.6-.8 1-1.8 1.8-2.8 2.5-.7.5-1.5.9-2.2 1.4-.2.1-.2.7 0 .8.6.3 1.2.6 1.9.8 1.5.6 3 1.4 4.3 2.5 2 1.6 3.3 3.6 4 6 .7 2.6.8 5.2.2 7.8-.4 1.9-1.5 3.6-2.8 5.1-1 1.1-2.2 2-3.4 2.8-2.8 1.7-5.8 2.8-9 3.4-2.4.5-4.8.7-7.3.6h-17.1c-.6 0-1.2 0-1.8-.1-.3 0-.7-.4-.8-.8 0-.4-.1-.8-.1-1.2v-24.1m11 9.9v6.2c0 .6.1 1.2.1 1.7 0 .4.4.7.8.7.1 0 .2 0 .3.1 3.4.4 6.8.3 10.2-.1 1.6-.2 3.1-.6 4.5-1.3 1.8-.8 3.1-2.1 3.7-4s.8-3.8.4-5.8c-.6-2.4-1.9-4-4.1-5-1.2-.5-2.4-.9-3.7-1-3.5-.5-7-.6-10.5-.4-.3 0-.6.1-.9.2s-.7.5-.7.8c0 .4-.1.8-.1 1.2zm0-22.5v5.6c0 .6.5 1.1 1.1 1.2 3.3.4 6.6.3 9.9-.4 1-.2 2.1-.6 3-1.2 1.9-1.2 2.8-3 2.8-5.2 0-2-.9-3.6-2.6-4.6-1.2-.7-2.5-1.1-3.9-1.3-3.1-.3-6.3-.2-9.4 0-.3 0-.8.5-.8.8s-.1.6-.1.9zM450.287 159.825v22.3c0 .9 0 1.8-.1 2.6 0 .4-.4.7-.8.8h-9.100000000000001c-.5 0-.9-.4-.9-.9 0-.9-.1-1.8-.1-2.6v-17c0-2.8 0-2.8-2.7-2.8h-20.3c-.6 0-1.2.1-1.8.1-.3 0-.7.4-.7.8 0 .5-.1 1-.1 1.5v17.9c0 .8-.1 1.6-.1 2.3 0 .4-.4.8-.7.8h-9.100000000000001c-.6 0-.9-.4-1-.9 0-.8-.1-1.6-.1-2.3v-45.2c0-.8.1-1.6.1-2.3 0-.5.5-.9 1-.9s1-.1 1.5-.1h5.9c.5 0 1 .1 1.5.1s1 .5 1 .9c.1.8.1 1.6.1 2.3v13.5c0 .9.1 1.8.1 2.6 0 .4.4.8.7.8.6 0 1.2.1 1.8.1h20.5c.6 0 1.2 0 1.7-.2.2-.1.6-.3.6-.5.1-.8.2-1.6.2-2.3v-14.1c0-.8 0-1.6.1-2.3 0-.3.4-.7.8-.8.2 0 .4-.1.6-.1h7.9c.3 0 .6.1.8.2s.5.4.6.6c.1.9.1 1.8.1 2.6zM472.987 185.425c-3.5.2-12.1.2-14.2-.1 0-.3-.1-.6 0-.8.4-.8.8-1.6 1.3-2.3 7.6-13.1 15.2-26.3 22.8-39.4 1.3-2.2 2.5-4.4 3.8-6.6.3-.6.7-1.2 1.2-1.7 1.3-1.5 3.7-1.5 4.9 0 .6.7 1 1.4 1.5 2.2 3.3 5.8 6.7 11.5 10 17.3 5.5 9.6 11.1 19.1 16.6 28.7.4.7.7 1.4 1.1 2.1.1.2-.2.6-.4.7-.2 0-.4.1-.6.1h-12.3q-1.35 0-1.8-1.2c-.45-1.2-.7-1.6-1-2.4-4.7-11.1-9.4-22.2-14.1-33.2-.3-.7-.5-1.5-1.1-2-.1-.1-.4-.1-.5 0l-.9 1.5c-2 4.6-3.9 9.2-5.9 13.8-3 7-6 14.1-9 21.1-.4.6-.6 1.4-1.4 2.2M309.187 146.425c-.3.2-.6.3-.7.5-.4.8-.7 1.6-1.1 2.4-4.7 11.1-9.4 22.1-14.1 33.2-1.4 3.4-.8 3-4.4 3h-10.9c-.4 0-.7-.4-.5-.8.3-.7.7-1.4 1.1-2.1 1.4-2.5 2.8-4.9 4.3-7.4 7.4-12.7 14.7-25.4 22.1-38.1.5-.8 1-1.7 1.6-2.5.5-.7 1.3-1.2 2.2-1.3 1.3-.1 2.3.3 3.1 1.3.6.8 1.1 1.6 1.5 2.5 5.3 9.2 10.7 18.5 16 27.7 3.4 5.9 6.9 11.8 10.3 17.8.4.7.7 1.4 1.1 2.1.1.3-.1.6-.4.7-.3 0-.6.1-.9.1h-11.7c-.5 0-1-.1-1.4-.1-.8-.8-1-1.8-1.4-2.6-3.4-7.9-6.7-15.8-10.1-23.8-1.5-3.6-3.1-7.2-4.6-10.8-.4-.6-.6-1.3-1.1-1.8M446.887 212.425v-15.8c0-1.1.4-1.4 1.4-1.5h1.2c2.8-.1 5.7-.1 8.5-.2 2.4-.1 4.9 0 7.3.3 2 .2 4 .8 5.9 1.7 1.2.6 2.2 1.2 3.1 2.2.8.9 1.3 1.9 1.5 3.1.4 2.6-.3 4.6-2.5 6.1-.7.5-1.5.9-2.2 1.4-.1.1-.2.3-.2.5s.2.3.4.4c.3.2.7.3 1.1.5.6.3 1.3.5 1.9.9 3.9 2.2 5.1 5.3 4.5 9.3-.2 1.4-.9 2.6-1.9 3.6-1 1.1-2.2 1.9-3.5 2.6-2.6 1.3-5.3 1.9-8.2 2.2-.9.1-1.8.1-2.6.1h-13.2c-.6 0-1.2-.1-1.7-.2-.2 0-.4-.2-.4-.4-.1-.6-.2-1.2-.2-1.7v-8.5c-.2-2.3-.2-4.4-.2-6.6m12.6.5c-1.1.1-2.4.1-3.6.2-.4 0-.7.4-.8.7 0 .2-.1.4-.1.6v9.1c0 .2 0 .4.1.6s.3.5.5.6.6.2.8.2c2.8.2 5.7.1 8.4-.4.8-.2 1.5-.4 2.2-.7 1.6-.7 2.6-2 3-3.7.5-2.6-.6-5.3-3.5-6.2-1-.3-2.1-.6-3.1-.7-1.2-.1-2.4-.2-3.9-.3m-.2-13.3c-1.1 0-2.1.1-3.2.1-.6 0-1 .5-1.1 1.2v5.8999999999999995c0 .3.1.6.1.9s.4.7.8.8c2.8.3 5.6.3 8.4-.5.6-.2 1.1-.4 1.6-.8 1.3-.9 1.9-2.2 1.7-3.8-.2-1.4-1-2.3-2.3-2.8-.3-.2-.7-.3-1.1-.4-1.5-.6-3.2-.6-4.9-.6M436.787 208.125v10.9c-.1 3.4-1.5 6-4.3 7.9-1.9 1.3-4 2.2-6.2 2.6-4.9 1.1-9.9 1.1-14.9.1-1.9-.4-3.8-1.1-5.4-2.2-2.6-1.7-4.2-4.1-4.4-7.2-.1-.8-.1-1.6-.1-2.3v-19.7c0-.6 0-1.2.1-1.8.1-.8.5-1.2 1.3-1.2h5.6c.8 0 1.2.4 1.2 1.3v22.599999999999998c.1 1.6.8 2.8 1.9 3.8 1.3 1.2 2.8 1.8 4.5 2 2.5.4 5.1.3 7.6-.5.6-.2 1.1-.4 1.6-.7 1.8-1 3-2.5 3.2-4.6.1-1 .1-2 .1-2.9v-17.3c0-.9 0-1.8.1-2.6 0-.6.5-1 1.2-1h1.2c4.6-.1 5.3 0 5.4.4.6 1.7.2 3.5.3 5.2zM355.587 197.025c-.7 1.5-1.7 2.7-2.6 4-.2.3-.7.4-1.1.3-.5-.2-.9-.4-1.4-.5-3.7-1.2-7.5-1.5-11.3-.5-4.6 1.2-7.7 4.1-9.1 8.7-.8 2.6-.7 5.2 0 7.8.9 3.2 2.9 5.5 5.9 6.9q1.95 1.05 4.2 1.2c2.7.3 5.5.2 8.1-.6q2.25-.75 4.2-2.1c.5-.3 1-.2 1.3.2.7.9 1.5 1.8 2.2 2.7.8 1.1.8 1.5-.3 2.1s-2.3 1.2-3.4 1.6c-2 .7-4.1 1.2-6.3 1.3-2.4.1-4.9.1-7.3 0-3.1-.2-6-.9-8.7-2.3-3.7-1.9-6.4-4.8-7.8-8.7-1.2-3.5-1.4-7.1-.6-10.7.6-2.7 2-5.1 3.9-7.1 3-3.2 6.6-5.1 10.8-6.1 4.1-.9 8.1-.9 12.3-.3 2 .3 4.1.7 6 1.5.4 0 .7.3 1 .6M379.187 229.725h-11.4c-.8 0-1.6-.1-2.3-.1-.3 0-.7-.4-.8-.8 0-.3-.1-.6-.1-.9v-29.1c0-1 .1-1.9.1-2.9 0-.4.4-.7.8-.8h6.4c.4 0 .7.4.7.8 0 .9.1 1.8.1 2.6v24.6c0 .8.4 1.2 1.3 1.2h16.7c.8 0 1.6 0 2.3.1.6 0 1.1.5 1.1 1.1v2.9c0 .1 0 .2-.1.3-.2.2-.4.6-.6.6-.7.1-1.4.1-2 .1-4 .3-8.1.3-12.2.3" data-source="https://football-logos.cc"></path><!-- source: https://football-logos.cc --></svg>