<svg xmlns="http://www.w3.org/2000/svg" xmlns:xlink="http://www.w3.org/1999/xlink" viewBox="48.29 14.28 186.66 255.12"><!-- Source: https://football-logos.cc --><defs data-source="https://football-logos.cc"><linearGradient id="a"><stop offset="0%" stop-color="#a80000"></stop><stop offset="50%" stop-color="red"></stop><stop offset="100%" stop-color="#a80000"></stop></linearGradient><linearGradient xlink:href="#a" id="b" x1="0" x2="0" y1="0" y2="1" gradientTransform="rotate(91 .5 .5)" gradientUnits="objectBoundingBox"></linearGradient></defs><path d="M62.936 47.988c44.067-30.182 105.833-31.358 156.377.221l9.433-6.873-1.503-.96c-26.558-16.963-57.411-26.28-88.971-26.092-29.875.178-59.251 8.929-83.7 26.21l-1.525 1.08z" style="fill:url(#b)"></path><defs><linearGradient id="c"><stop offset="0%" stop-color="#a80000"></stop><stop offset="100%" stop-color="red"></stop></linearGradient><linearGradient xlink:href="#c" id="d" x1="0" x2="0" y1="0" y2="1" gradientTransform="rotate(-137 .5 .5)" gradientUnits="objectBoundingBox"></linearGradient></defs><path d="M220.643 49.05c20.846 82.618-22.023 171.757-79.692 208.72l-.228-.17v11.796l2.624-1.682c33.71-21.607 59.59-57.243 74.685-93.927 8.34-20.272 13.846-41.792 15.958-63.62 2.175-22.48.727-45.177-4.803-67.095l-.438-1.733-.003-.002-9.433 6.872q.666.417 1.33.841z" style="fill:url(#d)"></path><defs><linearGradient id="e"><stop offset="0%" stop-color="maroon"></stop><stop offset="100%" stop-color="red"></stop></linearGradient><linearGradient xlink:href="#e" id="f" x1="0" x2="0" y1="0" y2="1" gradientTransform="rotate(143 .5 .5)" gradientUnits="objectBoundingBox"></linearGradient></defs><path d="M140.723 269.396V257.6C65.52 201.271 47.9 127.53 61.41 49.05q.76-.537 1.526-1.062l-9.888-6.417-.317 1.839c-15.713 91.28 9.713 167.487 85.486 224.12l2.501 1.87z" style="fill:url(#f)"></path><defs><linearGradient id="g"><stop offset="0%" stop-color="red"></stop><stop offset="100%" stop-color="#a80000"></stop></linearGradient><linearGradient xlink:href="#g" id="h" x1="0" x2="0" y1="0" y2="1" gradientTransform="rotate(180 .5 .5)" gradientUnits="objectBoundingBox"></linearGradient></defs><path d="M57.172 44.175c46.896-33.148 113.56-34.546 167.645 0 21.947 86.981-23.187 180.83-83.902 219.746-79.378-59.328-97.981-137.037-83.743-219.746" style="fill:url(#h)"></path><path d="M76.4 80.283c32.03-23.843 91.055-27.766 128.161-.131 18.308 72.559-19.28 138.947-63.497 169.114-66.216-49.49-75.163-116.065-64.663-168.983m109.472-3.376v109.98a162 162 0 0 1-3.38 6.338V75.429q1.706.704 3.38 1.478m5.315 98.31v-95.63a81 81 0 0 1 7.398 4.587c7.18 30.548 4.417 62.035-7.398 91.043M99.716 75.21v118.94a147 147 0 0 1-3.38-6.111V76.606a95 95 0 0 1 3.38-1.395m5.315 127.37V73.309c10.991-3.596 22.685-5.399 33.692-5.637 12.871-.279 26.132 1.502 38.454 5.747v128.605c-9.67 14.926-21.89 28.427-35.962 38.844-14.124-11.1-26.385-23.823-36.184-38.285m-14.01-25.88v-97.57a78 78 0 0 0-8.489 5.073c-4.87 26.456-4.17 54.067 3.884 79.84A146 146 0 0 0 91.02 176.7" style="fill:#fff;fill-rule:evenodd"></path><defs><linearGradient id="i"><stop offset="0%" stop-color="red"></stop><stop offset="100%" stop-color="#a80000"></stop></linearGradient><linearGradient xlink:href="#i" id="j" x1="0" x2="0" y1="0" y2="1" gradientTransform="rotate(180 .5 .5)" gradientUnits="objectBoundingBox"></linearGradient></defs><path d="M86.146 103.55c-10.027 56.278 11.21 102.91 54.991 137.317 36.647-27.127 66.938-77.717 53.56-138.524-31.846-22.227-76.879-20.626-108.55 1.207" style="fill:url(#j)" data-source="https://football-logos.cc"></path><path d="M152.417 188.99c6.029 7.632 10.1 10.96 25.907 21.17-8.78 4.709-26.372-3.745-25.907-21.17m-26.322-81.038c.408-1.413-2.505-4.065-3.758-6.097 2.531.32 4.693 1.536 6.703 3.94-4.059-3.487 3.643-4.707 6.2-4.536 17.156 1.149 12.09 19.164 23.271 17.841-1.777 2.48-4.715 3.536-9.149 2.16 7.047 5.52-.291 12.7 11.39 16.277-3.483 2.812-7.48 2.39-11.766.15-1.061 10.068 6.745 4.252 8.825 10.575-6.065-2.039-10.264 4.675-14.703 1.283-1.24-.948-.931-4.688-1.055-9.273 1.748-12.246 1.396-22.273-4.911-26.007 5.92 8.097 5.66 16.083 3.07 24.027 2.278-7.831-.192-18.782-4.47-23.449-3.45-2.243-10.48-1.564-13.987.17.364.71 2.862-.003 3.225.706.577 1.123-.98 3.67-.404 4.795 2.368 3.516 6.908-.53 8.34-2.368.758 5.947-6.587 10.859-14.19 5.636-1.593 4.744-4.096 5.22-8.82 3.875.046-1.453-.607-6.562.848-7.047 11.12-3.708 9.48-10.286 15.341-12.658m9.065.633c3.636.226 16.831 8.05 9.966 31.99 1.587-13.351.165-25.046-9.966-31.99m-16.614 37.722c5.137-4.077 11.61-1.182 17.488-10.007-1.46 13.062-12.71 11.98-15.653 13.816-7.769 5.333-4.943 20.018 16.52 15.02-4.669 4.599-13.476 4.81-20.526 2.288-3.234-1.157-6.209-14.31-12.235-12.68-1.515 4.1-.147 11.255 1.394 12.815 2.503 2.155 4.058.266 7.508 4.53-.081 6.832-3.627-.982-5.44-1.473.794 1.464 3.1 2.94 3.365 5.101.176 1.442-.556 2.986-3.254 5.784-2.375-12.718-10.201-12.252-11.871-16.293-.947-2.292.125-8.74-.915-13.08-1.052-4.384 5.089-11.93 6.922-9.973 4.625 4.942 10.232 4.284 11.094 3.6 5.317-6.372 15.235-13.347 15.951-19.117 2.27 10.427-7.458 12.855-10.348 19.67m46.924 32.719c-2.906-13.441-30.4-11.445-24.844-35.865 2.302 25.58 29.37 15.278 27.956 46.526-11.13-23.472-37.046-7.253-48.954-19.31 22.415 6.038 30.604-5.864 45.842 8.649m-36.824-1.33c10.692 1.736 23.037-.659 30.937 6.024 8.764 7.414 2.538 12.58 19.473 19.791-12.172 4.809-16.57-8.012-22.826-14.897-5.823-6.408-18.953-2.993-27.584-10.919" style="fill:#fff;fill-rule:evenodd"></path><defs><linearGradient id="k"><stop offset="0%" stop-color="#d83a6d"></stop><stop offset="13%" stop-color="#d83a6d"></stop><stop offset="22%" stop-color="#ee8db5"></stop><stop offset="42%" stop-color="#fff"></stop><stop offset="100%" stop-color="#fff"></stop></linearGradient></defs><path d="M113.311 180.935c-6.397 0-12.34 1.94-17.275 5.264 8.559 18.085 21.393 34.39 37.938 48.749 6.32-5.668 10.297-13.896 10.297-23.054 0-17.098-13.862-30.96-30.96-30.96" style="fill:url(#k)"></path><path d="M140.717 201.828c-3.29 1.807-6.879 3.673-10.352 5.119-.665.278-1.134-.808-.477-1.103 3.498-1.577 6.88-3.22 10.25-5.07.637-.35 1.224.699.579 1.054M127.633 219.129c2.378 3.006 6.478 7.715 7.656 11.208.233.693-.907 1.077-1.14.383-1.015-3.024-5.372-8.417-7.46-10.847-.509-.58.51-1.38.944-.744" style="fill:#a80000;fill-rule:evenodd"></path><path d="M113.31 179.844c17.702 0 32.052 14.35 32.052 32.051 0 9.43-4.073 17.908-10.556 23.773q-.418-.36-.832-.72c6.32-5.668 10.297-13.896 10.297-23.054 0-17.098-13.862-30.96-30.96-30.96-6.397 0-12.34 1.941-17.275 5.265q-.236-.498-.468-.998a31.9 31.9 0 0 1 17.742-5.358" style="fill:#fff;fill-rule:evenodd"></path><path d="M116.611 186.491c.953 4.948 1.68 7.098 2.336 12.085.096.73-1.097.878-1.192.156-.651-4.953-1.4-7.022-2.31-11.936-.295-1.55.922-1.576 1.166-.305" style="fill:#a80000;fill-rule:evenodd"></path><path d="m138.92 194.494-.075-.046c.623 1.54 1.414 3.999 1.582 6.852.479.55 2.105 2.505 3.38 5.23a30.8 30.8 0 0 0-4.887-12.036m-4.946 40.454a31.1 31.1 0 0 0 6.369-7.954c-1.98 1.854-4.512 2.967-5.195 3.253a53 53 0 0 1-2.48 3.557q.65.574 1.306 1.144m-15.58-35.584s-5.405 3.703-9.678 8.22c3.255 4.51 6.809 8.884 10.65 13.117 4.536-.43 7.777-1.223 7.777-1.223s2.393-5.853 2.991-13.086c0 0-6.85-5.429-11.74-7.028m-2.691-13.385s2.926-1.438 6.549-2.088a29.3 29.3 0 0 0-8.942-1.386c-2.655 0-5.258.35-7.774 1.04-.226.328-.431.666-.601 1.013 0 0 .55-.047 1.483-.047 1.943 0 5.545.204 9.285 1.468" style="fill:#e0000b;fill-rule:evenodd"></path><path d="M118.395 198.242a1.1 1.1 0 0 0-.634.197c-.232.157-5.44 3.744-9.71 8.217q.33.466.665.928c4.273-4.517 9.679-8.22 9.679-8.22 4.889 1.6 11.739 7.028 11.739 7.028-.598 7.233-2.991 13.086-2.991 13.086s-3.24.792-7.777 1.223q.47.518.945 1.034c4.075-.438 6.925-1.125 7.098-1.167.349-.085.636-.333.772-.665.1-.246 2.466-6.098 3.07-13.418a1.12 1.12 0 0 0-.42-.971c-.287-.227-7.066-5.574-12.088-7.216a1.1 1.1 0 0 0-.348-.056m25.411 8.289a23.5 23.5 0 0 0-3.38-5.23c-.167-2.854-.958-5.312-1.581-6.853l.075.046q-.857-1.26-1.833-2.427l-1.043-.634 1.034 1.856.02.034c.21.387 2.017 3.894 2.22 8.23l.01.203.138.15.03.034c.326.357 3.139 3.594 4.303 7.742l.414 1.471.046-.1a31 31 0 0 0-.453-4.522m-3.482 18.866c-1.012 1.2-2.46 2.185-3.65 2.853a20 20 0 0 1-1.952.961l-.154.063-.173.066-.099.157a52 52 0 0 1-2.468 3.56q.42.375.84.747a53 53 0 0 0 2.48-3.557c.683-.286 3.214-1.399 5.195-3.253a31 31 0 0 0 .885-1.699l-.162-.776zm-33.906-39.765c1.776 0 5.297.184 8.926 1.41l.437.147.415-.203c.028-.014 2.842-1.379 6.254-1.991l4.445-.798-4.302-1.374a30.4 30.4 0 0 0-9.283-1.44c-2.741 0-5.457.364-8.07 1.08l-.396.108-.232.338c-.27.39-.499.778-.683 1.154l-.876 1.779 1.977-.167c.005 0 .524-.043 1.388-.043m-.882-2.087a29.4 29.4 0 0 1 7.774-1.04c3.069 0 6.066.466 8.942 1.386-3.623.65-6.55 2.088-6.55 2.088-3.739-1.264-7.34-1.468-9.284-1.468-.933 0-1.483.047-1.483.047.17-.347.375-.685.6-1.013" style="fill:#a80000;fill-rule:evenodd"></path><path d="m113.933 84.653-1.505.446-1.061-1.395-2.768.819-.109 1.74-1.478.438.638-7.695 1.476-.436zm-3.364-1.982-1.715-2.27-.176 2.83zm4.16 1.798-1.752-6.918 1.413-.358 1.453 5.739 3.499-.885.298 1.179zm5.43-3.227-.248-1.355 2.67-.488.247 1.354zm10.22.313-1.554.221-.846-1.535-2.858.406-.362 1.707-1.526.216 1.754-7.519 1.525-.216zm-3.04-2.451-1.364-2.497-.587 2.774zm3.812 2.363-.488-7.18 3.053-.21q1.151-.076 1.687.081t.882.63.392 1.11q.055.81-.382 1.368-.439.558-1.371.76.488.24.813.55.33.307.902 1.11l.971 1.34-1.733.12-1.147-1.498q-.615-.797-.838-1.001a1.1 1.1 0 0 0-.457-.268q-.238-.064-.74-.03l-.294.02.205 2.999zm1.172-4.241 1.074-.073q1.042-.073 1.296-.178a.78.78 0 0 0 .386-.332.94.94 0 0 0 .11-.55q-.026-.362-.234-.573a.88.88 0 0 0-.564-.244q-.18-.012-1.06.047l-1.132.077zm12.557 3.78-1.57-.01-.612-1.642-2.887-.017-.607 1.635-1.541-.008 2.835-7.181 1.54.008zm-2.647-2.871-.985-2.67-.987 2.659zm3.96-4.325 2.87.213q.854.064 1.266.165.415.105.729.352.314.25.506.64.194.39.159.854a1.67 1.67 0 0 1-.34.902 1.7 1.7 0 0 1-.782.575q.64.241.957.728t.27 1.111a2.1 2.1 0 0 1-.298.937q-.262.447-.678.695-.414.247-.998.269-.365.01-1.751-.082l-2.444-.182zm1.365 1.3-.124 1.655.95.07q.845.063 1.052.054.376-.015.604-.212a.76.76 0 0 0 .254-.543.8.8 0 0 0-.144-.553q-.168-.222-.526-.291-.213-.042-1.234-.117zm-.212 2.848-.144 1.924 1.344.1q.782.06.997.03a.9.9 0 0 0 .548-.248q.22-.213.25-.595a.94.94 0 0 0-.117-.562.9.9 0 0 0-.428-.363q-.29-.125-1.279-.2zm5.497 3.616.777-7.156 1.449.158-.777 7.155zm2.804.323.198-1.363 1.363.197-.198 1.363zm2.824-1.976 1.42.112q0 .722.323 1.12.324.396.975.514.687.123 1.09-.106.401-.229.472-.62a.66.66 0 0 0-.07-.454q-.114-.203-.458-.398-.233-.134-1.083-.515-1.095-.493-1.48-.993-.545-.704-.393-1.547.098-.542.488-.961a1.95 1.95 0 0 1 1.011-.56q.62-.144 1.435.003 1.329.24 1.894.95.565.712.421 1.704l-1.443-.209q.007-.566-.249-.858-.256-.295-.855-.403-.618-.11-1.014.083a.553.553 0 0 0-.17.87q.228.277 1.225.712.996.434 1.446.787.453.353.652.861.2.508.079 1.179a2.1 2.1 0 0 1-.544 1.08q-.434.47-1.098.617t-1.588-.018q-1.344-.242-1.951-.992-.608-.749-.535-1.958m6.518 3.662.31-1.342 1.342.31-.31 1.342zm7.926-.602 1.222.822q-.655 1.043-1.544 1.378-.889.33-1.997-.003-1.373-.416-1.974-1.622-.599-1.205-.106-2.833.522-1.72 1.697-2.404 1.177-.683 2.625-.244 1.265.383 1.827 1.37.337.584.32 1.485l-1.474-.09a1.53 1.53 0 0 0-.254-.999q-.296-.427-.849-.595-.767-.233-1.41.174-.645.403-1.018 1.635-.395 1.305-.093 2 .304.698 1.056.926.556.168 1.062-.064.507-.231.91-.936M217.52 57.368q.142-.203 1.57-.894 1.345-.648 1.795-.782.134.09-1.897 3.708-.787 1.407-1.64 2.62-1.471 2.104-3.692 2.773zM73.93 64.589l-.87.034a12 12 0 0 1-.182 1.021 8 8 0 0 1-.896.716 3.9 3.9 0 0 1-1.43-.11q-.097.321-.25 1.008-2.764 1.096-4.133-1.013-1.368-2.108-.613-5.767.295-1.384.55-1.55-.225 1.632-.18 2.536.078 1.39.737 2.403.616.951 2.025.903a4.2 4.2 0 0 0 2.226-.679 13.7 13.7 0 0 0 2.384-1.95q.532-.568 1.167-1.251-1.241-.58-2.62.312l-1.681.879q-.175-.429-.04-2.82c1.98-1.284 3.686-2.622 5.734-3.57q.436-.202-.152-1.47l-.115-.25q.03-.315.745-2.258.255.195.427.562.141.308.245.938l.15.73a.6.6 0 0 0 .06.213q.343.747 1.132.382.351-.161 1.187-1.395.536-.839 1.075-1.673a16.3 16.3 0 0 1 1.677-2.086q1.205-1.309 2.028-1.688.893-.413 2.073.046 1.177.457 1.59 1.348.204.44.242 3.936l-9.889 4.577q-.316.146-.805-.053l-.922-.533c-.062.504-.112.994-.226 1.49-.385.178-.39.257-.755.493q.103 1.317.1 1.872-.01 1.141-.315 1.801a14.7 14.7 0 0 1-1.48 1.916m9.44-14.019q-.662.305-1.492 1.294-.224.26-1.241 1.615l5.638-2.61q-.503-.526-1.38-.579a3.1 3.1 0 0 0-1.525.28M72.911 66.632c.055-.034.135-.271.25-.71q.167-.751.214-.85l2.31-.134q-.022.349-.142 1.102c-.087.613-.172.945-.245.992q-.024.017-2.227.173-.412 1.36-.366 1.432-.372.103-1.144.177-.846.09-1.107.01.002-.079.395-2.079.286.062 1.085.033.795-.026.977-.146m5.06-20.065q-.307-.66.055-1.545.359-.886 1.037-1.197.723.036 1.45.078.998.064 1.394.207-.864 2.74-1.067 2.834-2.802-.231-2.87-.377m20.76-.229c-.873-1.1-1.698-1.859-2.473-2.285q.281-1.01.6-2.815c1.381.992 2.606 1.866 3.153 3.523q.279.841.695 3.847c-2.85.942-5.668 1.863-8.486 2.898-.125-.058-3.85-8.232-4.242-9.085q.24-.932.803-2.667c1.266 2.714 2.552 5.419 3.829 8.127q.213.396.611.301c1.82-.67 3.67-1.235 5.51-1.844m-1.703 5.9c.05-.016.172-.24.375-.67q.338-.717.39-.804l2.297.544a10 10 0 0 1-.379 1.11q-.33.923-.455.965-.083.026-2.246-.48-.323.621-.63 1.38-.404.005-1.173-.15-.834-.18-1.082-.358.381-1.042.548-1.382l.292-.646q.244.138 1.062.348.812.205 1 .144m7.668-10.776q1.636 1.45 1.888 1.618.933.625 1.81.581c.693-.034 2.32-.427 3.068-.588.243-.09-.818-2.788-.906-3.002q-.55-1.311-1.115-2.628a8 8 0 0 1-.934-.525q.869-3.199 1.274-3.287.13.6.27.812.195.277.707.495 2.329.967 2.69.888l-1.443 2.812c.091.425.44 1.537 1.038 3.34.188.873.445 3.74-.802 3.766-1.105.238-2.295.426-3.343.706q-.93.147-1.262-.045-.16 1.508-.88 3.046-.879 1.869-2.067 2.184c-1.676.446-3.599-.208-5.069-.916 1.713.014 1.92.187 3.436-.847q.7-.492 1.606-1.708.26-.285.934-1.266.456-.676.337-1.127-.137-.517-2.033-1.723c.182-.705.449-1.57.796-2.586m10.65-4.466q-.041-.243.49-1.74.5-1.404.73-1.816c.104-.018.524 1.303 1.253 3.971q.427 1.555.673 3.018.43 2.531-.682 4.567zm17.225 9.882-.78-.385q-.203.292-.648.81-.694.166-1.128.201a3.9 3.9 0 0 1-1.205-.778q-.239.235-.7.766c-2.939-.355-3.712-2.488-2.855-5.024.576-1.706 1.725-3.213 3.142-4.299-1.009 1.37-2.007 2.82-1.867 4.607.278 3.575 6.583 1.908 8.277 1.106-.97-1.312-2.853-.982-4.348-1.006q.05-.46 1.31-2.497c3.873-.303 6.523-.269 10.367-.336q-.42-1.91-1.647-2.965.189-.438 1.455-2.65c1.016.837 2.035 2.99 2.059 4.344.017 1.003-.391 3.084-.8 4.027l-6.537.115c-.433.968-1.02 2.346-1.88 2.986-.685.374-1.422.703-2.215.978m-1.87 1.31q.096-.008.56-.506c.334-.389.534-.601.592-.644l2.094.984q-.185.296-.65.9c-.369.498-.602.749-.688.756q-.03.003-2.04-.911-1.012.999-1.005 1.084-.377-.087-1.09-.39-.786-.326-.978-.519.04-.07 1.34-1.64.222.19.937.548.712.355.929.338m7.22-2.398q-.003-.178.853-1.005.852-.827 1.033-.83.084-.002 1.046.836.967.838.967.904.003.188-.855.889-.855.697-1.1.703c-.11.001-.458-.228-1.053-.691q-.888-.691-.89-.806m11.638-8.621q1.102 1.89 1.288 2.127.687.878 1.526 1.113c.978.27 3.344.346 4.51.466-.6-1.348-1.607-1.407-2.837-1.394q.036-.346 1.498-2.275c.102-.207.527-.363 1.274-.478q.974-.164 1.473-.113 1.067.11 2.012.91 1.04.885.934 1.91c-.072.693-.958 1.282-1.087 1.776 1.493.154 2.273.374 3.717.617q.068.003.122-.316.162-.957.146-2.809a316 316 0 0 0-.065-2.854 8 8 0 0 1-.673-.832q1.99-2.651 2.4-2.583-.102.607-.05.855.078.329.474.72 1.807 1.76 2.17 1.82l-2.38 2.08q-.107.643-.27 3.487c-.052.305-.19.732-.417 1.29l-.577 1.366q-.362.84-1.145.545c-1.895-.319-3.317-.563-5.213-.758q-.305-.535-.646-1.463c-.319.454-.61.883-.986 1.295-1.593-.171-3.163-.36-4.763-.452q-.93-.15-1.186-.436-.621 1.383-1.786 2.619-1.418 1.5-2.645 1.43-.773-.046-2.905-1.132-2.225-1.13-2.294-1.7.082.004.94.44.851.436 1.644.483c.363.02.904-.071 1.614-.276q.817-.249 2.059-1.122.334-.19 1.282-.91.644-.502.672-.966.031-.535-1.393-2.272.591-.921 1.563-2.208m20.192.295q.051-.241 1.098-1.435c.658-.746 1.105-1.22 1.349-1.42q.158.033-.304 4.154a30 30 0 0 1-.489 3.053q-.536 2.51-2.322 3.991zm9.04 12.326q-.359.183-1.082.575-2.095-1.38-1.421-3.582.625-2.052 3.19-4.457l-.27.915q-1.044 1.212-1.33 2.141-.686 2.248 2.826 3.324 1.3.398 2.491.405.471.007 2.51-.16.078-.262-.86-.549a10 10 0 0 0-.484-.128l-.46-.14q-1.001-.308-1.429-.626c-.478-.355-.632-.81-.465-1.355q.362-1.184 1.666-2.473 1.161-1.147 2.42-1.788 1.502-.773 2.857-.36 1.245.381.92 1.445-.14.462-.375.677a75 75 0 0 0-.898 1.225q-.087.18-.153.347-.032-1.38-.757-1.603-.846-.258-2.117.148-1.269.406-1.918 1.069-.147.485.891 1.03.975.43 1.97.889 1.027.541.85 1.12l-.114.251q-.503.901-1.894 2.67-.702.426-2.947.598l-.705-.758q-1.362.7-1.505.655-.216-.066-.752-.658-.533-.593-.654-.847m1.373 1.97c.062.018.296-.075.71-.279.45-.23.715-.358.786-.38l1.59 1.68q-.285.22-.95.61c-.518.319-.82.47-.903.444q-.028-.01-1.565-1.594-1.309.564-1.331.638-.322-.216-.876-.75c-.407-.398-.646-.676-.722-.845q.066-.049 1.85-1.035.137.26.669.852.536.594.742.658m14.993-7.443q.436.341.972 1.221.474.815.67 1.428c.153.485.238 1.055.254 1.702q.015 1.05-.226 1.718-.044.113-.136.393a9 9 0 0 1-.153.425q-1.047 2.674-1.97 2.312l-5.537-2.167q.532-1.058 1.273-2.502l4.675 1.83q.202-.511-.108-1.403-.256-.75-.673-1.287-.727-.965-1.086-1.187.192-.184.869-1.027zm11.54 4.253q1.04-.407 1.353-.538 1.031-.372 1.277-.364l1.56 2.524q-.443.206-1.339.514c-.754.256-1.173.357-1.266.305q-.067-.037-.813-1.216zm5.961 3.973q2.861-1.673 3.213-1.452-.329.52-.377.769c-.037.22.016.506.158.847q.986 2.322 1.296 2.519l-3 .995q-.346.552-1.599 3.11-.247.392-.883 1.028l-1.062 1.037q-.659.635-1.266.06c-1.06-.671-2.081-1.35-3.17-1.963-1.014-.57-1.005-1.403-.79-2.426l-1.712 1.018c-1.851-1.04-3.51-1.837-5.438-2.794q-.022-.065.993-2.638l2.69-6.688q.84-.467 2.488-1.25-.441 1.12-1.17 2.97l-1.451 3.77q-.329.809-.65 1.627-.142.428.201.651A97 97 0 0 1 205.42 56q.25-.173 1.295-1.841.049-.046 1.261-.507 1.215-.46 1.311-.482l-.093.165-.074.132q-.039.108-.07.164-.52.944-1.475 2.162c-.455.556-.078 1.376.486 1.693.832.468 1.558.99 2.394 1.52q.062.027.235-.245.52-.82 1.222-2.533.528-1.32 1.046-2.657a8 8 0 0 1-.299-1.028M178.764 216.737l.07.206.062.26q.057.243.049.341l-.26.14-.519.273.011.039.046.248.049.264q-.135.124-.414.264-.28.142-.379.134l-.069-.308-.052-.242-.044-.24.205-.071.204-.083q.276-.13.322-.197l-.003-.074-.025-.21a2 2 0 0 1-.034-.338zm8.663-6.532.375-.546-.157-.108-.195-.122a.9.9 0 0 1-.268-.33l-.063-.163-.04-.119q-.1-.136-.197-.824-.13-.86.109-1.205.296-.43 1.065-.507.68-.059.974.143.04.028.048.045a.8.8 0 0 0-.252.052l-.14.06-.184.097a2.2 2.2 0 0 0-.58.51 3 3 0 0 0-.18.235 2.3 2.3 0 0 0-.36.77q-.015.049-.043.327.077.053.536-.007l.424-.09q.142-.03.388-.126l.085-.05.113-.13.55-.908.332-.483.2-.328.222.467.32.653-2.242 3.264-.32.465a.69.69 0 0 1-.534.294l-.164-.016-.225-.069.327.659-.891 1.297-.36.523a.7.7 0 0 1-.409.29q-.228.041-.563-.064l.34.695-.834 1.213-.076.11-.204.298-.033.049-.034.049a.2.2 0 0 1-.08.053.7.7 0 0 1-.276.067q.48.42.813 1.326.369 1.007.03 1.5-.174.254-.967.738-.794.485-.923.397-.036-.025-.016-.09l.472-.327.193-.145.13-.145q.165-.239.211-.526.04-.203.034-.84l-.017-.206-.032-.244a3 3 0 0 0-.067-.422q-.126-.562-.324-.699-.1-.067-.57-.066a9 9 0 0 0-.613.037l-.442-.957.538.019.421-.008q.272 0 .523-.082a.74.74 0 0 0 .314-.238l.125-.183 1.008-1.466-.016-.04-.401-.374-.132-.09-.106-.073-.078-.079-.143-.425q-.131-.407-.117-.481l.038.008.06.028q.2.138.407.342l.372.334.05.034a.5.5 0 0 0 .4.065.6.6 0 0 0 .205-.088l.084-.068.064-.094.16-.233 1.03-1.498-.089-.108-.16-.136-.386-.294-.035-.114-.108-.353a7 7 0 0 1-.146-.51l.093.05.165.102.133.098.102.07.067.07.165.13.187.184.047.04a.4.4 0 0 0 .296.052.53.53 0 0 0 .309-.213zm-2.947-1.089q.063.043.08.46.019.418-.015.465-.026.037-.436.18-.405.12-.44.094-.037-.024-.11-.466-.07-.44-.03-.506l.455-.12q.204-.05.316-.073zm2.807 5.547.096.227.018.06.025.07.039.129a1 1 0 0 1 .05.31l-.095.05-.145.076-.14.062-.385.17.057.356a.8.8 0 0 0 .06.194.8.8 0 0 1-.18.13l-.11.064-.126.051q-.261.106-.359.117l-.158-.544-.06-.247q.145-.011.496-.175.147-.075.23-.14v-.048l-.019-.128-.092-.439zm-6.654-.023.019.122.04.353q.014.422-.01.489l-.864.257-.161-.962zm3.131.895.03-.043.84.578zm-2.35 2.903.363.49a.96.96 0 0 1 .195.473q.01.048-.097.573l-.113.37-.05.105-.045.102q-.295.425-.43.53-.338.289-.638.082-.354-.243-.687-.918l-.325-.743a7 7 0 0 1-.25-.601 5 5 0 0 1-.165-.553l.267-.07.585-.168.356-.087.102-.015.106-.005.116.014.1.013q.187.038.347.147l.049.034.106.091zm.013.533q-.172-.12-.832-.027-.66.09-.714.172l.097.28.082.231q.136.36.223.456.191.13.371.062.127-.053.274-.266.225-.327.343-.586zM155.629 245.071q-.531-.519-.737-1.03a2.3 2.3 0 0 1-.16-.789 1.9 1.9 0 0 1 .124-.753q.18-.46.594-.884.75-.767 1.676-.763.927.006 1.776.835.843.823.871 1.744.03.922-.718 1.686-.756.776-1.676.77-.92-.005-1.75-.816m18.17-15.177-3.47-3.389.687-.702 1.366 1.334 1.335-1.366-1.367-1.335.687-.703 3.47 3.389-.686.703-1.518-1.482-1.334 1.367 1.517 1.481zm-.683.7-.739.757-1.083-.472-1.359 1.392.509 1.06-.726.743-2.155-4.737.725-.742zm-2.63-.06-1.756-.772.827 1.723zm-3.93 6.778-.63-.616-.468-4.03-1.583 1.62-.586-.572 2.48-2.54.543.53.486 4.187 1.926-1.973.587.573zm-1.359 1.39-3.47-3.389.686-.702 3.47 3.389zm-3.713 3.802-3.47-3.389.664-.68 3.72.843-2.325-2.271.635-.65 3.47 3.39-.686.702-3.654-.822 2.28 2.228zm-5.174 1.822q.59.576 1.162.601.571.025.98-.395.411-.42.372-.985-.04-.564-.644-1.154-.596-.585-1.148-.608-.548-.025-.974.41-.423.433-.386.989.04.557.638 1.142M112.102 235.554l-.805-.782 2.957-3.048a3.86 3.86 0 0 1-1.636-.397l.713-.735q.415.204 1.066.273.65.07 1.16-.18l.654.634zm2.788.537.875.664q-.255.336-.245.653a.76.76 0 0 0 .24.541q.248.24.603.216.352-.026.667-.348.296-.305.306-.641a.73.73 0 0 0-.225-.565 2 2 0 0 0-.428-.297l.725-.568q.318.325.637.34a.7.7 0 0 0 .561-.235.64.64 0 0 0 .204-.463.63.63 0 0 0-.214-.453.68.68 0 0 0-.492-.198q-.287.001-.587.247l-.618-.845q.45-.31.831-.388a1.5 1.5 0 0 1 .787.061q.407.141.755.477.594.577.584 1.305-.007.6-.388.992-.54.557-1.468.3.285.427.24.909-.045.48-.416.862-.538.555-1.323.554-.783-.001-1.386-.586-.571-.553-.625-1.248-.056-.694.4-1.286m6.043 1.408.725-.747 2.764 2.682-.57.588q-.67.005-1.633.29a7.9 7.9 0 0 0-1.838.816q-.873.529-1.41 1.09l-.777-.754a7.6 7.6 0 0 1 2.092-1.436 8.3 8.3 0 0 1 2.486-.745zm3.389 5.49q-.185-.436-.101-.805.082-.369.349-.644a1.43 1.43 0 0 1 1.085-.46q.627.01 1.231.596.6.583.632 1.21.033.63-.425 1.102-.284.293-.659.373a1.34 1.34 0 0 1-.766-.067q.213.481.134.93-.08.449-.424.803-.568.585-1.294.59-.725.006-1.343-.593-.573-.556-.66-1.23-.105-.792.5-1.415.331-.343.78-.465.447-.123.96.074m.956-.649q-.234.242-.232.509.006.268.231.486.23.221.499.218.27-.004.504-.246a.7.7 0 0 0 .219-.496.68.68 0 0 0-.226-.485q-.232-.225-.503-.22a.7.7 0 0 0-.492.234m-1.828 1.732q-.327.336-.338.69a.77.77 0 0 0 .241.6.74.74 0 0 0 .589.219q.338-.024.669-.365.29-.298.3-.64a.76.76 0 0 0-.245-.589q-.295-.287-.64-.221a1.06 1.06 0 0 0-.576.305M91.025 209.25l-.644-.92 3.48-2.436a3.9 3.9 0 0 1-1.532-.698l.839-.587q.37.279.995.469.625.191 1.173.041l.522.747zm10.598 9.606q-.1-.462.052-.809.15-.346.465-.567.54-.376 1.152-.248.613.13 1.097.82.479.684.392 1.307-.087.624-.625 1a1.3 1.3 0 0 1-.718.243 1.34 1.34 0 0 1-.74-.21q.12.514-.043.939-.165.424-.568.707-.668.468-1.382.336-.714-.131-1.207-.835-.458-.655-.417-1.332.047-.799.758-1.296.391-.274.854-.31t.93.255m1.06-.456q-.274.192-.322.456-.045.264.135.52a.7.7 0 0 0 .448.308q.266.048.542-.146a.7.7 0 0 0 .308-.445.68.68 0 0 0-.13-.52q-.186-.264-.452-.31a.7.7 0 0 0-.528.137m-2.121 1.355q-.384.27-.462.614a.77.77 0 0 0 .124.635q.2.285.536.326.337.04.727-.232.341-.24.415-.572a.76.76 0 0 0-.13-.625q-.235-.337-.586-.338-.35 0-.624.192m-7.016-9.28.724.824q-.25.223-.287.452a.6.6 0 0 0 .12.452q.198.285.601.296.403.014 1.27-.51a1.34 1.34 0 0 1-1.011-.587q-.397-.566-.248-1.284.15-.717.852-1.208.732-.513 1.482-.39.753.12 1.222.792.51.731.273 1.596-.238.865-1.537 1.775-1.319.923-2.245.846t-1.472-.859q-.394-.562-.334-1.12.057-.556.59-1.076m3.469.662q.445-.311.547-.688.102-.375-.086-.643a.65.65 0 0 0-.497-.282q-.32-.03-.776.292-.465.326-.554.66a.7.7 0 0 0 .103.61.7.7 0 0 0 .521.3q.337.035.742-.249m-.335 3.564.74.853a.98.98 0 0 0-.333.58.774.774 0 0 0 .709.899q.376.034.852-.298.446-.312.53-.668a.8.8 0 0 0-.14-.672q-.279-.398-.849-.47l-.414-.82 2.826-1.278 1.706 2.436-.859.602-1.217-1.738-.919.428q.368.2.594.522.43.614.281 1.354t-.862 1.24q-.596.416-1.304.4-.967-.024-1.55-.856-.466-.666-.402-1.337.064-.672.611-1.177M109.725 230.704c.276.002.46-.03.852-.154-.022.412-.206.682-.635.987-.118-.19-.068-.179-.217-.833m.468-.398c-.083.044-.222.075-.515.167-.074-.23-.074-.448-.204-.756.84-.337 1.14.362.719.589m-.471-1.2c.468.018.98-.062 1.294.332-.425-.177-1.5-.21-2.017.096-.436.259-.167.375-.137.872a13.7 13.7 0 0 1-3.818-1.579c.887 1.167 3.011 1.895 3.905 1.914.108.374.146.655.375 1.365 1.306.072 1.61-.208 2.134-1.483.72-1.75-.283-2.222-1.736-1.517M90.185 201.995c.531.037.866.032.992.295.082.172-.03.716-.117.863-.238-.33-.485-.616-1.07-.832-.433-.145-1.348-.04-1.694.28-.442.813-.7 1.86-2.168 2.333 1.767.213 2.386-1.198 2.862-2.27.917.002 1.436.857 1.746 1.612.251.04.82-.048 1-.252.137-.158.389-.967.435-1.228.064-.365.074-.588-.173-.898-.532-.243-1.332-.267-1.813.097M86.69 103.899c-4.831 27.357-2.245 52.415 6.75 74.877 9.35 23.35 25.633 43.91 47.709 61.34 19.623-14.626 37.376-36.01 47.46-62.092 8.56-22.138 11.593-47.667 5.553-75.328-15.58-10.809-34.32-15.897-53.082-15.689-19.237.214-38.494 5.998-54.39 16.892m5.646 75.319c-9.106-22.737-11.707-48.095-6.776-75.77a.6.6 0 0 1 .249-.387c16.131-11.12 35.707-17.024 55.261-17.241 19.057-.212 38.1 4.977 53.92 16.004.142.08.25.219.288.39 6.16 27.993 3.103 53.833-5.56 76.239-10.228 26.454-28.275 48.113-48.194 62.867a.596.596 0 0 1-.755.015c-22.42-17.618-38.951-38.439-48.433-62.117" style="fill:#fff;fill-rule:evenodd" data-source="https://football-logos.cc"></path><!-- source: https://football-logos.cc --></svg>