<svg xmlns="http://www.w3.org/2000/svg" viewBox="23.94 14.28 235.36 255.12"><!-- Source: https://football-logos.cc --><path d="M49.69 73.037h183.759c15.788 72.005 2.324 163.294-91.421 196.362C59.363 242.33 30.973 161.51 49.69 73.037" style="fill:#000;fill-rule:evenodd" data-source="https://football-logos.cc"></path><path d="M58.489 83.71c-12.936 73.34 7.655 147.587 83.415 174.374 36.515-13.781 63.308-38.691 76.883-75.92 11.27-30.912 11.806-66.102 5.92-98.454z" style="fill:#fafafa;fill-rule:evenodd"></path><path d="M52.253 65.268h179.333l-8.16-32.172h-25.428a16.9 16.9 0 0 1 1.3 6.513c0 9.342-7.574 16.917-16.917 16.917s-16.918-7.575-16.918-16.918c0-4.87 2.06-9.26 5.355-12.347-9.621-3.222-19.243-7.962-28.864-12.98-9.638 5.027-19.276 9.775-28.915 12.996a16.87 16.87 0 0 1 5.337 12.331c0 9.343-7.574 16.918-16.918 16.918s-16.917-7.575-16.917-16.918c0-2.308.463-4.507 1.3-6.512H60.394Z" style="fill:#000;fill-rule:evenodd"></path><path d="M48.134 106.584h186.981c13.305 0 24.19 10.885 24.19 24.19v38.168a4.28 4.28 0 0 1-4.268 4.269H28.212a4.28 4.28 0 0 1-4.269-4.27v-38.167c0-13.305 10.886-24.19 24.19-24.19" style="fill:#82368a;fill-rule:evenodd"></path><path d="M33.904 163.25h215.44v-32.476c0-7.806-6.422-14.23-14.229-14.23H48.134c-7.807 0-14.23 6.424-14.23 14.23z" style="fill:#fafafa;fill-rule:evenodd" data-source="https://football-logos.cc"></path><path d="m212.039 100.46 6.197-11.057 6.197 11.057zm-153.172 0 6.197-11.057 6.197 11.057zm17.019 0 6.197-11.057 6.197 11.057zm17.019 0 6.197-11.057 6.197 11.057zm17.02 0 6.196-11.057 6.198 11.057zm17.018 0 6.198-11.057 6.197 11.057zm17.02 0 6.197-11.057 6.197 11.057zm17.019 0 6.197-11.057 6.197 11.057zm17.018 0 6.198-11.057 6.197 11.057zm17.02 0 6.197-11.057 6.197 11.057z" style="fill:#000;fill-rule:evenodd"></path><path d="M182.1 202.058h15.921A109 109 0 0 1 182.1 221.68zm-96.862 0h16.326v20.149c-6.316-6.13-11.739-12.886-16.326-20.149m31.75 0h17.132v42.155c-6.167-2.816-11.87-6.01-17.133-9.54zm32.556 0h17.133v32.193c-5.346 3.638-11.064 6.892-17.133 9.776z" style="fill:#82368a;fill-rule:evenodd"></path><path d="M121.541 193.875h-2.517v-14.686h2.517zm17.057-3.557q-.001 1.705-.901 2.63-.906.927-2.441.927h-7.142v-2.643h6.93q.456 0 .725-.249.27-.249.27-.687v-1.456h-4.326q-1.623 0-2.61-.904-.99-.906-.989-2.465v-2.809q0-1.33 1.05-2.402 1.052-1.071 2.153-1.071h3.849q1.622 0 2.558 1.04.874.958.874 2.433zm-2.559-4.968v-2.504a.91.91 0 0 0-.343-.714 1.15 1.15 0 0 0-.78-.301h-3.411a.76.76 0 0 0-.562.228q-.228.225-.229.6v2.628q0 .91.978.911h3.307q1.04 0 1.04-.849m15.684 5.05q0 1.332-1.05 2.403t-2.174 1.072h-3.848q-1.665 0-2.6-1.062-.832-.956-.832-2.413v-7.654q0-1.644 1.04-2.642.957-.915 2.309-.915h7.155v2.642h-6.927q-.457-.001-.727.25-.27.248-.27.686v1.455h4.347q1.6 0 2.59.947.987.947.987 2.423zm-2.579-.017v-2.607q0-.477-.219-.693-.218-.219-.78-.219h-3.307q-.416 0-.728.23a.72.72 0 0 0-.312.62v2.503q0 .27.416.645.416.37.728.37h3.37q.27 0 .5-.165a.8.8 0 0 0 .332-.684m15.08 3.492h-9.298v-4.65q0-1.574.978-2.655.978-1.078 2.288-1.079h2.83q.208 0 .436-.228.23-.234.23-.503v-2.01q-.001-.416-.188-.67a.61.61 0 0 0-.52-.25h-6.054v-2.641h5.908q1.518 0 2.455.956.935.958.936 2.226v2.393q0 1.394-1.01 2.381-1.008.988-2.194.988h-2.6q-.894 0-.894.915v2.184h6.698zM53.508 147.095l-1.754 5.387h3.514zm-1.514-2.534h3.007l4.565 12.655h-2.734l-.86-2.605h-4.905l-.833 2.605h-2.743zm10.662 12.655v-12.655h2.605v10.314h6.179v2.341zm14.497-2.288h3.08c1.173 0 2.095-.307 2.095-1.643 0-1.381-.894-1.666-2.112-1.666h-3.063zm0-5.474h2.969c.976 0 1.854-.229 1.854-1.373 0-1.152-.91-1.32-1.872-1.32h-2.95zm-2.5 7.762v-12.655h5.967c2.146 0 3.979.788 3.979 3.203 0 1.17-.414 2.088-1.508 2.6 1.344.544 1.948 1.56 1.948 2.992 0 2.795-2.08 3.86-4.615 3.86zm14.113-12.69h2.622v7.938c0 1.735.57 2.816 2.444 2.816 1.886 0 2.467-1.06 2.467-2.816v-7.938h2.605v8.22c0 3.225-1.907 4.822-5.051 4.822-3.156 0-5.087-1.572-5.087-4.823zm14.476 12.69v-12.655h2.605v5.198l4.943-5.198h3.26l-5.055 5.122 5.512 7.533h-3.183l-4.128-5.79-1.35 1.34v4.45zm14.253 0v-12.655h2.605v12.655zm9.711-7.129h3.063c1.179 0 1.936-.396 1.936-1.671 0-1.175-.694-1.673-1.816-1.673h-3.183zm-2.605 7.13V144.56h6.143c2.483 0 4.066.928 4.066 3.587 0 1.344-.518 2.566-1.886 2.987 1.326.475 1.516 1.484 1.57 2.77.022.62-.09 2.594.545 2.924v.387h-2.851c-.37-.73-.313-2.11-.335-2.925-.053-1.422-.39-2.003-1.883-2.003h-2.764v4.928zm20.02 0h-2.604v-4.718l-4.594-7.938h3.186l2.708 5.456 2.502-5.456h2.975l-4.172 7.938zm10.751-10.122-1.754 5.387h3.514zm-1.514-2.534h3.008l4.564 12.655h-2.734l-.86-2.605h-4.904l-.834 2.605h-2.743zm10.663 12.655v-12.655h2.622v4.717h5.228v-4.717h2.623v12.655h-2.623v-5.615h-5.228v5.615zm30.89-4.347c-.213 3.138-2.648 4.7-5.619 4.7-4.09 0-5.928-2.838-5.928-6.672 0-4.043 1.935-6.67 6.16-6.67 2.956 0 5.171 1.4 5.368 4.523h-2.57c-.233-1.54-1.307-2.2-2.798-2.2-2.654 0-3.503 1.99-3.503 4.347 0 2.252.863 4.313 3.418 4.313 1.553 0 2.613-.801 2.919-2.341zm3.867 4.347v-12.655h2.605v10.314h6.178v2.341zm11.619-12.69h2.622v7.938c0 1.735.57 2.816 2.444 2.816 1.886 0 2.467-1.06 2.467-2.816v-7.938h2.605v8.22c0 3.225-1.907 4.822-5.051 4.822-3.156 0-5.087-1.572-5.087-4.823zm16.975 10.402h3.08c1.173 0 2.095-.307 2.095-1.643 0-1.381-.894-1.666-2.112-1.666h-3.063zm0-5.474h2.97c.975 0 1.853-.229 1.853-1.373 0-1.152-.91-1.32-1.872-1.32h-2.95zm-2.5 7.762v-12.655h5.968c2.145 0 3.977.788 3.977 3.203 0 1.17-.413 2.088-1.507 2.6 1.344.544 1.947 1.56 1.947 2.992 0 2.795-2.079 3.86-4.614 3.86zM59.854 133.78h22.023v-6.383h2.5v7.246c-.024.872-.531 1.636-1.477 1.636H59.322q-1.238.001-1.74-1.276l-.763 1.276h-7.052v-4.772a4.16 4.16 0 0 1 4.177-4.11h1.83q1.09 0 1.58.938v-.938h2.5zm172.35-9.346a1.1 1.1 0 1 1 0 2.2 1.1 1.1 0 0 1 0-2.2m-88.588 12.854a1.1 1.1 0 1 1 0 2.2 1.1 1.1 0 0 1 0-2.2m-87.49-12.854a1.1 1.1 0 1 1 0 2.2 1.1 1.1 0 0 1 0-2.2m-2.659 0a1.1 1.1 0 1 1 0 2.2 1.1 1.1 0 0 1 0-2.2m126.53 12.854a1.1 1.1 0 1 1 0 2.2 1.1 1.1 0 0 1 0-2.2m-2.658 0a1.1 1.1 0 1 1 0 2.2 1.1 1.1 0 0 1 0-2.2m-70.74 0a1.1 1.1 0 1 1 0 2.2 1.1 1.1 0 0 1 0-2.2m-2.658 0a1.1 1.1 0 1 1 0 2.2 1.1 1.1 0 0 1 0-2.2m-20.729 0a1.1 1.1 0 1 1 0 2.2 1.1 1.1 0 0 1 0-2.2m-2.658 0a1.1 1.1 0 1 1 0 2.2 1.1 1.1 0 0 1 0-2.2m150.428-3.509v-6.408h2.5v7.162c0 .87-.51 1.746-1.503 1.746h-33.107c-.954 0-1.468-.776-1.492-1.655v-10.931h2.522v10.09zm-35.238 2.5h-7.882v-2.5h5.36v-2.294a1.653 1.653 0 0 0-1.655-1.588h-2.704v-2.5h2.704a4.155 4.155 0 0 1 4.177 4.174zm-13.17-8.882q1.471 0 1.722 1.004l1.941 7.878h-2.585l-1.677-6.382h-1.678l1.656 6.382h-6.963c-5.427 0-5.67-8.698-.086-8.882v2.477c-2.212.114-2.092 3.905.086 3.905h3.88l-1.69-6.382zm-19.681-3.704h2.5v12.586h-2.5zm-4.143 10.086v-10.086h2.499v10.931c-.024.892-.595 1.655-1.517 1.655l-69.898-.004c-.632 2.445-2.566 3.084-4.81 3.084v-1.518c1.192 0 2.348-.152 2.452-1.689v-8.777h2.521v6.404h13.996v-6.382h2.5v6.382h19.318v-2.231c0-.919-.76-1.674-1.678-1.674h-5.154v-2.495l4.426-3.687h3.901l-4.41 3.682h1.241a4.166 4.166 0 0 1 4.173 4.107v2.298h14.216v-6.382h2.5v6.382zm-106.483 0h5.088v-3.882h-3.41c-.908 0-1.678.765-1.678 1.674z" style="fill:#000;fill-rule:evenodd" data-source="https://football-logos.cc"></path><!-- source: https://football-logos.cc --></svg>