<svg xmlns="http://www.w3.org/2000/svg" xml:space="preserve" id="Layer_1" x="0" y="0" version="1.1" viewBox="209.9 209.9 580.2 580.2"><!-- Source: https://football-logos.cc --><style data-source="https://football-logos.cc">.st0{fill:#94bae1}.st1{fill:#94bee6}.st3{fill:#93bde3}.st4{fill:#fff}.st6{fill:#242b57}.st7{fill:#222c53}</style><g id="Artwork_361_00000107581538538017749910000006832260892373598352_" data-source="https://football-logos.cc"><path d="M392.9 323.2c2.4-1.5 4-4.6 2.1-7.5-1.7-2.7-5.1-3-7.7-1.4l-10.7 6.7 5.6 8.9zM303.2 374.4l12 16.5 8-12.2zM382.1 302.2c-1.6-2.6-5-2.8-7.5-1.2l-7.6 4.8 5.3 8.5 8.2-5.1c2-1.6 3.2-4.5 1.6-7M425.8 279.8l-.9 20.4 13.9-4.7zM546.1 705.4c-3.2.7-5.1 3.8-4.3 7.1.7 3.1 3.6 5.3 6.9 4.5 3.2-.7 5.1-3.8 4.3-7.1-.6-3.2-3.5-5.3-6.9-4.5" class="st0"></path><path d="M758.4 500c0-142.7-116.1-258.8-258.8-258.8S240.7 357.3 240.7 500s116.1 258.8 258.8 258.8S758.4 642.7 758.4 500m-99.3-156c9.9-8.1 24.2-6.6 32.6 3.8 6.4 7.9 7.6 18.8 1.7 27.5l-8-5.4c3.6-5 3.6-11.7-.4-16.7-5.1-6.2-13.4-6.6-19.6-1.5-6 4.9-7.6 13.2-2.5 19.5 4.1 5 10.3 6.4 16.3 3.8l3.6 8.9c-9.2 3.9-19.9 1-26.6-7.2-8-10-7.2-24.5 2.9-32.7m22.6 62.4c-2.2 1.2-5.2.5-6.5-1.9-1.2-2.2-.5-5.2 1.8-6.6 2.2-1.2 5.2-.5 6.5 1.9 1.2 2.3.5 5.3-1.8 6.6m-60.1-118.5 27.3 17.6-4.8 7.4-19.2-12.4-4.1 6.3 14.3 9.2-4.8 7.4-14.3-9.2-11.2 17.3-8.1-5.2zm17 63c-1.7 1.9-4.7 2.2-6.8.4-1.9-1.7-2.3-4.8-.5-6.8 1.7-1.9 4.7-2.2 6.8-.5 1.9 1.8 2.3 4.9.5 6.9m-96.8-91.7 4.7 1.2 19.7 34.9 7.2-27.9 9.4 2.4-11.4 44.3-4.7-1.2-19.8-34.9-7.2 27.9-9.3-2.4zm-27.9-2.2 9.6.7-3.4 45.6-9.6-.7zm-14.9-1.2.8 8.8-15.2 1.3 3.1 36.8-9.6.8-3.1-36.8-15.1 1.3-.8-8.8zm-81.2 14.9 9.1-3 31.8 37.7-9 3-4.8-5.7-20.5 6.8-.4 7.4-9.1 3zm-47.2 22.7c6.6-4.1 14.7-2.9 19.1 4.2 1.4 2.3 1.8 4.9 1.5 7.7 4.6-.2 9.3 1.2 11.9 5.5 4.4 7 2.1 14.8-4.6 19.1l-19.9 12.5-24.3-38.8zM325 329.6l25.7 26.5 16.4-15.9 6.2 6.3-23.3 22.7-31.9-32.9zm-28.5 34.7 48.3 9.6-5.2 8-7.3-1.4-11.7 18.1 4.3 6.1-5.2 8-28.4-40.3zm153.3 371.3-7.8-2.1 8-30.3-5.5-1.5 1.9-7.2 13.3 3.5zm42-20.1c-.8 6.3-4.5 11.2-8.7 15.5-3.1 3.2-6.1 6.2-9 8.9l-9.2-1.1s10.2-10 10.9-10.7l.6-.6c-7.3-1-13.1-6.7-12.1-14.7.9-7.5 7.6-12.3 15.3-11.4 7.3 1 12.6 6.5 12.2 14.1m21.8 25.9-8.5.4 12.9-32.1-19.9 1-.4-7.4 30-1.5.2 3.7zm44.1-16.7c-1.9 4.1-3.7 7.9-5.5 11.4l-9.1 2.1s6.3-12.8 6.7-13.7l.4-.7c-7.2 1.6-14.6-1.9-16.3-9.7-1.7-7.4 3-14.1 10.5-15.9 7.1-1.6 14 1.8 16.2 9.1 1.4 6.1-.4 12-2.9 17.4m-57.6-40.8c-101.4 0-183.6-82.2-183.6-183.6s82.2-183.6 183.6-183.6 183.6 82.2 183.6 183.6-82.2 183.6-183.6 183.6" class="st1"></path><path d="M478.8 708.9c-3.2-.4-6 1.8-6.4 5.2-.4 3.2 1.6 6.2 5 6.6 3.2.4 6-1.8 6.4-5.2.4-3.2-1.5-6.2-5-6.6" class="st0"></path><path d="M767.3 387.1c-14.6-34.5-35.5-65.6-62.2-92.2-26.6-26.6-57.7-47.6-92.2-62.2-35.8-15.1-73.8-22.8-112.9-22.8s-77.2 7.7-112.9 22.8c-34.5 14.6-65.6 35.5-92.2 62.2-26.6 26.6-47.6 57.7-62.2 92.2-15.1 35.8-22.8 73.8-22.8 112.9s7.7 77.2 22.8 112.9c14.6 34.5 35.5 65.6 62.2 92.2 26.6 26.6 57.7 47.6 92.2 62.2 35.8 15.1 73.8 22.8 112.9 22.8s77.2-7.7 112.9-22.8c34.5-14.6 65.6-35.5 92.2-62.2 26.6-26.6 47.6-57.7 62.2-92.2 15.1-35.8 22.8-73.8 22.8-112.9s-7.7-77.2-22.8-112.9M309.5 690c-50.8-50.8-78.7-118.2-78.7-190s28-139.3 78.7-190c50.8-50.8 118.2-78.7 190-78.7s139.3 28 190 78.7 78.7 118.2 78.7 190-28 139.3-78.7 190c-50.8 50.8-118.2 78.7-190 78.7s-139.2-27.9-190-78.7" style="fill:#252b56"></path><path d="M433.6 385.7c1.3 3.3 2.9 4.7 4.7 8.2.3-3.6 1.1-7.2 2.1-10.7-3.6-.5-6.4 2-6.8 2.5M487.8 399c7.7 16.5 10.9 41.2 12.2 61.7 1.2-20.5 4.4-45.2 12.2-61.7-1.2-4.4-2.6-8.2-4.1-14.2-.8-3.3-1.7-6.7-2.5-9.9-1.9.6-3.8.9-5.6 1-1.8-.1-3.7-.4-5.6-1-.8 3.2-1.6 6.5-2.5 9.9-1.5 5.9-2.8 9.8-4.1 14.2M448.8 381.7c-3.2 11.7-3.4 25.1 7.1 34.5 6.2 5.5 11.4 11.5 15.9 17.5-.5-5.8-.3-11.6 1.1-16.7-1.6-15.2-16.4-29.1-24.1-35.3M544.1 416.2c10.5-9.4 10.3-22.8 7.1-34.5-7.7 6.2-22.5 20.1-24.1 35.3 1.4 5.2 1.6 10.9 1.1 16.7 4.5-6 9.8-12 15.9-17.5" class="st0"></path><path d="M615.7 480h-31.8c-4.5 0-7-1.5-7.8-4.7s.5-5.5 4.8-7.6c1.3-.6 1.6-1.6 2-2.8 3.6-12.1 16.1-16.7 26.4-9.4 1.9 1.4 2.5.8 3.5-.8 4.8-7.2 12.7-10.4 20.5-8.7 3.5.8 6.4 2.2 8.9 4.1-4.2-12-10-23.4-17.1-34-8.7-2.6-20.6-6.6-31.7-12.1-2.4 1.9-4.7 3.8-7.1 5.8-.8.7-1.7 1.4-2.5 2l-.1.1c-1.1 1.2-2.5 2.3-3.9 3.2l-.1.1c-11.1 9-23.1 18.4-34.8 25.3-24.2 14.4-32.5 38.9-35 49.7v.2c-.8 8.7-.8 18.1-.2 27.5H535c2.3 0 4.6-.5 6.7-1.5l20.9-9.6c4.4-2 9.6-1.9 13.9.2l14.5 7.3c4.5 2.3 9.8 2.3 14.3.1l16.3-8c3.7-1.8 7.9-2.1 11.8-.9l17.1 5.2c.2-3.5.4-7 .4-10.5 0-6.8-.5-13.6-1.4-20.3-11.5.1-22.6.1-33.8.1" class="st1"></path><path d="M458.8 432.3c-2.6-2.7-5.4-5.3-8.5-7.9-10.3-7.9-18-21.7-23.2-33.6-2.4 2.2-5 4.2-7.9 6.1.6 3.5 1.6 6.5 3.3 8.5 12 9.8 24.2 19.6 36.3 26.9M559.6 383.3c1 3.5 1.8 7.1 2.1 10.7 1.8-3.6 3.3-4.9 4.7-8.2-.4-.6-3.2-3.1-6.8-2.5M580.8 396.9c-2.9-1.9-5.5-3.9-7.9-6.1-5.2 12-13 25.7-23.2 33.6-3 2.5-5.9 5.2-8.5 7.9 12.1-7.3 24.3-17.1 36.3-26.9 1.7-2 2.7-5 3.3-8.5M380.3 506.3l18.3 8.4c4.5 2.1 9.7 1.9 14.1-.3l13.7-7.1c4.4-2.3 9.7-2.4 14.2-.2l19.8 9.4c2.1 1 4.5 1.5 6.9 1.5h23.3c.6-9.4.6-18.8-.2-27.5v-.2c-2.6-10.7-10.9-35.3-35-49.7-11.6-6.9-23.6-16.3-34.8-25.3l-.1-.1c-1.5-.9-2.8-2-3.9-3.2l-.1-.1c-.8-.7-1.7-1.4-2.5-2-2.4-1.9-4.7-3.9-7.1-5.8-11.1 5.5-22.9 9.5-31.5 12.1q-10.8 15.9-17.1 33.9c2.4-1.8 5.3-3.2 8.7-3.9 7.8-1.7 15.6 1.5 20.5 8.7 1.1 1.6 1.6 2.2 3.5.8 10.3-7.3 22.8-2.8 26.4 9.4.4 1.2.6 2.2 2 2.8 4.2 2.1 5.6 4.4 4.8 7.6s-3.3 4.7-7.8 4.7h-65.2c-.9 6.7-1.4 13.4-1.4 20.3 0 3.8.1 7.6.4 11.4l18.6-6.1c3.6-1.4 7.8-1.2 11.5.5M538.9 381.2c-8.2-.5-17.1-2.2-25.1-6.4 2.9 11.7 5.6 22.7 7.8 30.5 4.1-9.6 11.1-18 17.3-24.1M491.5 466.8c-.7-15.8-3-38.9-8.1-53.4-8.6 16 .2 35.4 4.2 44.9 1.7 3.3 3 6.2 3.9 8.5M486.2 374.9c-8 4.2-16.9 5.9-25.1 6.4 6.2 6.1 13.2 14.4 17.3 24.1 2.1-7.9 4.9-18.8 7.8-30.5M516.6 413.4c-5.1 14.6-7.4 37.6-8.1 53.4.9-2.3 2.2-5.2 3.9-8.5 4-9.5 12.8-28.9 4.2-44.9" class="st0"></path><path d="M441.8 575.2c-2.8 2.7-5.1 5.3-6.8 7.8 1.7-2.5 4-5.2 6.8-7.8M568.2 584.8l.6.9c0 .1.1.2.1.4 0-.2 0-.3-.1-.4zc-3.2-4.3-6.7-8.3-10.5-11.8 3.8 3.5 7.3 7.5 10.5 11.8M528.4 563.7c0 .1-.1.3-.2.4.1-.1.2-.3.2-.4M474.4 564.8c.2.1.4.2.7.3-.3 0-.5-.1-.7-.3M557.5 594c.3-2.3.5-4.5.8-6.8-.3 2.3-.6 4.5-.8 6.8M568.8 586v.3q.15-.15 0-.3M552.2 568.3c1.1.9 2.2 1.7 3.2 2.6-1-.9-2.1-1.8-3.2-2.6M443.9 588.7c-.1-.6-.1-1.2-.3-1.6.1.4.2 1 .3 1.6.2 1.8.4 3.6.6 5.3-.2-1.8-.4-3.5-.6-5.3M399.8 559.9c-3.5 1-7.3 1.3-11 1.8-8.3 1-16.6 1.7-24.8 3.2 7.3 15.3 17.2 29.5 29.6 41.8 2.1 2.1 4.2 4 6.3 6 4.9-24 18.1-45 36.6-59.8-1.4-.9-3-1.5-4.7-2-7.9-2.6-16.3-4.3-24.6-6.1-2.9-.6-5.7-1.3-8.3-2.4-1.1-.5-2.6-1-2.4-2.1.2-1.2 1.9-1.4 3.2-1.6 3.1-.5 6.3-.9 9.4-1.4 3-.5 7.5-1.4 8.4-3.5.7-1.8-4.2-4.3-9.3-6.4 1.4 1 2.3 1.7 2.5 1.9 3.2 2.7 1.8 4.1-3.5 4.3-2.8.1-35.3-.8-33 3.4.4.8 15.4 5.3 15.7 6.7.2 1.4-2.2 1.7-3.5 2.4-3.8 1.9-4 3.5-.6 5.7 3.4 2.1 7.4 3.5 11.4 5 .8.3 1.7.6 2.5.9.7.3 1.5.6 1.4 1.2.3.5-.6.8-1.3 1M633.2 570.6c-3.1-.4-5.5-.7-6.1-1-3.9-1.7-4.2-3.1-1.3-5.6 2.2-1.9 9-6.2 9.7-6.8 1.7-1.6 1.6-2.7-.6-4-1.4-.9-3.1-1.5-4.8-2.1-7.9-2.6-16.3-4.3-24.6-6.1-2.9-.6-5.7-1.3-8.3-2.4-1.1-.5-2.6-1-2.4-2.1.2-1.2 1.9-1.4 3.2-1.6 3.1-.5 6.3-.9 9.4-1.4 3-.5 7.5-1.4 8.4-3.5.7-1.8-4.2-4.3-9.3-6.4 1.4 1 2.3 1.7 2.5 1.9 3.2 2.7 1.8 4.1-3.5 4.3-2.8.1-35.3-.8-33 3.4.4.8 15.4 5.3 15.7 6.7.2 1.4-2.2 1.7-3.5 2.4-3.8 1.9-4 3.5-.6 5.7 3.4 2.1 7.4 3.5 11.4 5 .8.3 1.7.6 2.5.9.7.3 1.5.6 1.4 1.2 0 .6-.9.9-1.6 1.1-3.5 1-7.3 1.3-11 1.8-3.6.4-7.3.8-10.9 1.2 12.4 13.3 21.3 29.9 25.3 48.3 1.7-1.5 3.4-3.1 5-4.8 11.1-10.8 20.1-23 27-36.1M433 586.6c.5-1.1 1.1-2.3 2-3.6-.9 1.2-1.5 2.4-2 3.6M525.9 565.6c-7.8 3.2-15.5 6.5-23.3 9.8-.2.1-.5.2-.7.3.2-.1.5-.2.7-.3 7.8-3.3 15.5-6.7 23.3-9.8M499.7 575.6c-8.2-3.5-16.3-7-24.6-10.4 8.2 3.4 16.4 6.9 24.6 10.4M501.2 575.8c.2 0 .5-.1.7-.2-.2.1-.5.2-.7.2" class="st3"></path><path d="M768.3 500c0-71.8-28-139.3-78.7-190s-118.2-78.7-190-78.7-139.3 28-190 78.7c-50.8 50.8-78.7 118.2-78.7 190s28 139.3 78.7 190c50.8 50.8 118.2 78.7 190 78.7s139.3-28 190-78.7 78.7-118.2 78.7-190m-527.6 0c0-142.7 116.1-258.8 258.8-258.8S758.4 357.3 758.4 500 642.3 758.8 499.5 758.8 240.7 642.7 240.7 500" class="st4"></path><path d="M612.7 454.7c-1.1 1.6-1.6 2.2-3.5.8-10.3-7.3-22.8-2.8-26.4 9.4-.4 1.2-.6 2.2-2 2.8-4.2 2.1-5.6 4.4-4.8 7.6s3.3 4.7 7.8 4.7h65.3c-1.4-10.3-3.8-20.3-7.2-29.9-2.4-1.9-5.4-3.3-8.9-4.1-7.6-1.7-15.5 1.5-20.3 8.7M444.5 594c16.3-10.6 35.7-16.7 56.6-16.7 20.8 0 40.2 6.1 56.5 16.6.3-2.3.5-4.5.8-6.8 0-.4.1-.7.2-.9.2-.6.7-.9 1.5-.8.2 0 .3 0 .5.1 1.3.3 2.7.5 4.1.7s2.8.4 4.4.6c0-.2 0-.4-.1-.5v-.3c0-.2 0-.3-.1-.4q-.15-.45-.6-.9c-3.2-4.3-6.7-8.3-10.5-11.8-.8-.7-1.5-1.4-2.3-2.1-1-.9-2.1-1.8-3.2-2.6-2.2-1.7-4.4-3.3-6.7-4.7-1.7-1.1-3.5-2.1-5.4-3.1-2.8-1.5-5.6-2.8-8.6-4-1-.4-2-.8-3-1.1-.4-.2-.9-.4-1.4-.6s-1-.4-1.4-.3c-.3 0-.5.1-.7.4-.3.3-.3.6-.3.9.1.9 1.1 1.8 1.5 2.7.1.2.2.5.3.7s.2.5.3.7c.2.5.5.9.8 1.3.4.6.7 1.1.8 1.6 0 .1.1.2.1.3v.3c0 .1 0 .3-.1.4 0 .1-.1.3-.2.4-.4.6-1.2 1-2.3 1.5-7.8 3.2-15.5 6.5-23.3 9.8-.2.1-.5.2-.7.3s-.5.1-.7.2c-.5.1-1 0-1.5-.2-8.2-3.5-16.3-7-24.6-10.4-.3-.1-.5-.2-.7-.3s-.4-.2-.5-.4c-.1-.1-.2-.3-.3-.4-.2-.3-.2-.6-.2-.9 0-.1 0-.3.1-.5 0-.1.1-.2.1-.3s.1-.2.1-.3l.3-.6c.9-1.6 2-3.2 2.8-4.9l.6-1.8c-8 0-23.6 9.3-34.2 19.1-.5.4-1 .9-1.4 1.3-2.8 2.7-5.1 5.3-6.8 7.8-.8 1.2-1.5 2.4-2 3.6 2.5.6 4.8-.4 7.1-.9.6-.1 1-.2 1.4-.2.3 0 .5 0 .7.1.4.1.7.3 1 .6.2.2.3.5.4.9.1.5.2 1 .3 1.6.1 1.7.3 3.4.5 5.2" class="st4"></path><path d="M555.1 614.4c.8-6.8 1.6-13.6 2.3-20.4-16.3-10.5-35.6-16.6-56.5-16.6s-40.3 6.1-56.6 16.7c.7 6.6 1.4 13.2 2.2 19.8.2 1.7-11.2 14.5-16.1 20 13.7 7.1 28.4 12.1 43.7 14.8-2.1-6.5-4.3-13.1-6.5-19.6q-.15-.75-.3-1.2c-.1-1.1.4-2 1.6-2.9 5-3.7 10-7.3 14.9-11s9.9-7.4 14.9-11.1c1.4-1.1 2.6-1.1 4 0 5 3.7 10 7.5 15 11.2s10 7.4 15.1 11.1c1.5 1.1 1.6 2.3 1.1 3.9-2.1 6.4-4.3 12.9-6.4 19.3 15.1-2.8 29.6-7.8 43.1-15-4.7-5.2-9.4-10.3-14.1-15.5-.7-1.1-1.5-2-1.4-3.5" style="fill:#cccdcf"></path><path d="M384.3 480h31.8c4.5 0 7-1.5 7.8-4.7s-.5-5.5-4.8-7.6c-1.3-.6-1.6-1.6-2-2.8-3.6-12.1-16.1-16.7-26.4-9.4-1.9 1.4-2.5.8-3.5-.8-4.8-7.2-12.7-10.4-20.5-8.7q-5.1 1.2-8.7 3.9c-3.4 9.7-5.9 19.7-7.2 30.1z" class="st4"></path><path d="M500.1 316.7c-101.4 0-183.6 82.2-183.6 183.6s82.2 183.6 183.6 183.6 183.6-82.2 183.6-183.6-82.2-183.6-183.6-183.6m-121.2 62.9c33.4-33.6 77.3-50.4 121.2-50.4 39 0 78 13.3 109.6 39.8q5.55 4.65 10.8 9.9c.7.7 1.4 1.4 2.1 2.2 64.8 66.7 64.4 173.2-1.4 239.4-33.4 33.6-77.3 50.4-121.1 50.4-42.6 0-85.2-15.9-118.3-47.6-.7-.7-1.5-1.4-2.2-2.1-66.9-66.6-67.2-174.7-.7-241.6" class="st6"></path><path d="M665.5 500.9c.2-43.6-16.4-84.8-46.7-116.1l-.3-.3-1.8-1.8c-3.3-3.3-6.9-6.5-10.5-9.6-29.6-24.9-67.3-38.5-106.2-38.5-21.6 0-42.6 4.1-62.5 12.2-20.6 8.4-39 20.7-54.8 36.6-15.7 15.8-27.9 34.3-36.2 54.8-8 19.8-12 40.8-11.9 62.3s4.2 42.4 12.3 62.2c8.4 20.5 20.7 38.9 36.5 54.6.6.6 1.2 1.2 1.8 1.7l.3.3c30.9 29.7 71.6 46.1 114.5 46.1 21.6 0 42.6-4.1 62.5-12.2 20.6-8.4 39-20.7 54.8-36.6 30.9-31 48-72.1 48.2-115.7m-15.3 9.9-17.1-5.2c-3.9-1.2-8.1-.9-11.8.9l-16.3 8c-4.5 2.2-9.8 2.2-14.3-.1l-14.5-7.3c-4.4-2.2-9.5-2.3-13.9-.2l-20.9 9.6c-2.1 1-4.4 1.5-6.7 1.5h-25.3c-.6-9.4-.6-18.8.2-27.5v-.2c2.6-10.7 10.9-35.3 35-49.7 11.6-6.9 23.6-16.3 34.8-25.3l.1-.1c1.5-.9 2.8-2 3.9-3.2l.1-.1c.8-.7 1.7-1.4 2.5-2 2.4-1.9 4.7-3.9 7.1-5.8 11.1 5.5 23 9.6 31.7 12.1 7.2 10.6 12.9 22 17.1 34 3.4 9.6 5.8 19.6 7.2 29.9.9 6.7 1.4 13.4 1.4 20.3.1 3.4-.1 6.9-.3 10.4M527.7 648.3c2.1-6.4 4.2-12.9 6.4-19.3.5-1.6.5-2.8-1.1-3.9-5-3.7-10-7.4-15.1-11.1-5-3.7-10-7.5-15-11.2-1.4-1.1-2.6-1.1-4 0-4.9 3.7-9.9 7.4-14.9 11.1s-9.9 7.4-14.9 11c-1.2.9-1.7 1.7-1.6 2.9q0 .6.3 1.2c2.2 6.5 4.3 13.1 6.5 19.6-15.3-2.6-30.1-7.6-43.7-14.8 4.9-5.5 16.3-18.3 16.1-20-.8-6.6-1.5-13.2-2.2-19.8-.2-1.8-.4-3.6-.6-5.3-.1-.6-.1-1.2-.3-1.6-.1-.3-.2-.6-.4-.9s-.5-.5-1-.6c-.2-.1-.4-.1-.7-.1-.4 0-.9.1-1.4.2-2.3.5-4.6 1.5-7.1.9.5-1.1 1.1-2.3 2-3.6 1.7-2.5 4-5.2 6.8-7.8.5-.4.9-.9 1.4-1.3 10.6-9.8 26.1-19.1 34.2-19.1-.1.6-.3 1.3-.6 1.8-.7 1.7-1.9 3.3-2.8 4.9l-.3.6c0 .1-.1.2-.1.3s-.1.2-.1.3c0 .2-.1.3-.1.5 0 .3 0 .6.2.9.1.1.2.3.3.4s.3.2.5.4c.2.1.4.2.7.3 8.2 3.4 16.4 6.9 24.6 10.4.5.2 1 .3 1.5.2.2 0 .5-.1.7-.2s.5-.2.7-.3c7.8-3.3 15.5-6.6 23.3-9.8 1.1-.4 1.9-.9 2.3-1.5.1-.1.1-.3.2-.4 0-.1.1-.3.1-.4v-.3c0-.1 0-.2-.1-.3-.1-.5-.4-1-.8-1.6-.3-.4-.6-.9-.8-1.3-.1-.2-.2-.5-.3-.7s-.2-.5-.3-.7c-.4-.9-1.4-1.8-1.5-2.7q0-.45.3-.9c.2-.2.5-.4.7-.4.4 0 .9.1 1.4.3s1 .5 1.4.6c1 .4 2 .7 3 1.1 3 1.2 5.8 2.5 8.6 4 1.8 1 3.6 2 5.4 3.1 2.3 1.5 4.6 3.1 6.7 4.7 1.1.9 2.2 1.7 3.2 2.6.8.7 1.6 1.4 2.3 2.1 3.8 3.5 7.3 7.5 10.5 11.8l.6.9c0 .1.1.2.1.4v.3c0 .1 0 .3.1.5-1.5-.2-3-.4-4.4-.6s-2.8-.4-4.1-.7c-.2 0-.4-.1-.5-.1-.8-.1-1.3.2-1.5.8-.1.2-.2.6-.2.9-.2 2.3-.5 4.5-.8 6.8-.8 6.8-1.5 13.6-2.3 20.4-.2 1.4.7 2.4 1.5 3.3 4.7 5.2 9.4 10.3 14.1 15.5-13.5 7.4-28 12.5-43.1 15.3m-.6-231.3c1.6-15.2 16.4-29.1 24.1-35.3 3.2 11.7 3.4 25.1-7.1 34.5-6.2 5.5-11.4 11.5-15.9 17.5.5-5.8.3-11.6-1.1-16.7m-55.3 16.7c-4.5-6-9.8-12-15.9-17.5-10.5-9.4-10.3-22.8-7.1-34.5 7.7 6.2 22.5 20.1 24.1 35.3-1.4 5.1-1.6 10.9-1.1 16.7m28.2-57.8c1.8-.1 3.7-.4 5.6-1 .8 3.2 1.6 6.5 2.5 9.9 1.5 6 2.9 9.8 4.1 14.2-7.7 16.5-10.9 41.2-12.2 61.7-1.2-20.5-4.4-45.2-12.2-61.7 1.2-4.4 2.6-8.2 4.1-14.2.8-3.3 1.7-6.7 2.5-9.9 1.9.6 3.8.9 5.6 1m-59.6 7.4c-1 3.5-1.8 7.1-2.1 10.7-1.8-3.6-3.3-4.9-4.7-8.2.4-.6 3.2-3.1 6.8-2.5m-13.3 7.5c5.2 12 13 25.7 23.2 33.6 3 2.5 5.9 5.2 8.5 7.9-12.1-7.3-24.3-17.1-36.3-26.9-1.7-2-2.7-5-3.3-8.5 2.9-1.9 5.5-3.9 7.9-6.1m34-9.6c8.2-.5 17.1-2.2 25.1-6.4-2.9 11.7-5.6 22.7-7.8 30.5-4.1-9.6-11.1-18-17.3-24.1m22.3 32.2c5.1 14.6 7.4 37.6 8.1 53.4-.9-2.3-2.2-5.2-3.9-8.5-4-9.5-12.8-28.9-4.2-44.9m33.2 0c8.6 16-.2 35.4-4.2 44.9-1.7 3.3-3 6.2-3.9 8.5.7-15.8 3-38.8 8.1-53.4m-2.8-38.5c8 4.2 16.9 5.9 25.1 6.4-6.2 6.1-13.2 14.4-17.3 24.1-2.1-7.9-4.9-18.8-7.8-30.5m35.8 49.5s.1 0 0 0c10.3-7.9 18-21.7 23.3-33.6 2.4 2.2 5 4.2 7.9 6.1-.6 3.5-1.6 6.5-3.3 8.5-12 9.7-24.2 19.5-36.3 26.9 2.6-2.7 5.4-5.4 8.4-7.9m10-41.1c3.6-.6 6.4 1.9 6.8 2.5-1.3 3.3-2.9 4.7-4.7 8.2-.3-3.6-1-7.2-2.1-10.7m-210 117c0-6.8.5-13.6 1.4-20.3 1.4-10.3 3.8-20.4 7.2-30.1 4.2-11.9 10-23.3 17.1-33.9 8.7-2.6 20.5-6.6 31.5-12.1 2.4 1.9 4.7 3.8 7.1 5.8.8.7 1.7 1.4 2.5 2l.1.1c1.1 1.2 2.5 2.3 3.9 3.2l.1.1c11.1 9 23.1 18.4 34.8 25.3 24.2 14.4 32.5 38.9 35 49.7v.2c.8 8.7.8 18.1.2 27.5h-23.3q-3.6 0-6.9-1.5l-19.8-9.4c-4.5-2.1-9.8-2-14.2.2l-13.7 7.1c-4.4 2.3-9.6 2.4-14.1.3l-18.3-8.4c-3.7-1.7-7.9-1.9-11.7-.7l-18.6 6.1c-.2-3.6-.3-7.4-.3-11.2m50.4 57.3c-.8-.3-1.7-.6-2.5-.9-4-1.4-8-2.8-11.4-5-3.5-2.2-3.2-3.8.6-5.7 1.4-.7 3.7-1 3.5-2.4s-15.2-5.9-15.7-6.7c-2.3-4.2 30.2-3.3 33-3.4 5.3-.2 6.7-1.6 3.5-4.3-.2-.2-1.2-.9-2.5-1.9 5.1 2.1 10 4.7 9.3 6.4-.9 2.1-5.4 3-8.4 3.5-3.1.5-6.3.9-9.4 1.4-1.3.2-3 .4-3.2 1.6-.2 1.1 1.3 1.6 2.4 2.1 2.6 1.1 5.4 1.8 8.3 2.4 8.3 1.8 16.7 3.5 24.6 6.1 1.7.5 3.3 1.2 4.7 2-18.4 14.8-31.7 35.8-36.6 59.8q-3.3-2.85-6.3-6c-12.4-12.4-22.3-26.5-29.6-41.8 8.1-1.5 16.5-2.3 24.8-3.2 3.7-.4 7.5-.8 11-1.8.7-.2 1.6-.4 1.6-1.1-.2-.5-1-.8-1.7-1.1m176.2 5.6c3.6-.4 7.3-.8 10.9-1.2 3.7-.4 7.5-.8 11-1.8.7-.2 1.6-.4 1.6-1.1 0-.6-.7-.9-1.4-1.2-.8-.3-1.7-.6-2.5-.9-4-1.4-8-2.8-11.4-5-3.5-2.2-3.2-3.8.6-5.7 1.4-.7 3.7-1 3.5-2.4s-15.2-5.9-15.7-6.7c-2.3-4.2 30.2-3.3 33-3.4 5.3-.2 6.7-1.6 3.5-4.3-.2-.2-1.2-.9-2.5-1.9 5.1 2.1 10 4.7 9.3 6.4-.9 2.1-5.4 3-8.4 3.5-3.1.5-6.3.9-9.4 1.4-1.3.2-3 .4-3.2 1.6-.2 1.1 1.3 1.6 2.4 2.1 2.6 1.1 5.4 1.8 8.3 2.4 8.3 1.8 16.7 3.5 24.6 6.1 1.7.6 3.4 1.2 4.8 2.1 2.1 1.4 2.3 2.5.6 4-.7.6-7.5 4.9-9.7 6.8-2.9 2.5-2.6 4 1.3 5.6.6.2 2.9.6 6.1 1-7 13.1-15.9 25.3-26.7 36.1-1.6 1.6-3.3 3.2-5 4.8-4.3-18.4-13.2-35-25.6-48.3" class="st6"></path><path d="m444.5 701.8 5.5 1.4-8 30.3 7.8 2.1 9.9-37.5-13.3-3.6zM479.7 701.5c-7.7-.9-14.4 3.9-15.3 11.4-1 8 4.8 13.7 12.1 14.7l-.6.6c-.7.7-10.9 10.7-10.9 10.7l9.2 1.1c2.8-2.7 5.8-5.7 9-8.9 4.2-4.3 7.9-9.2 8.7-15.5.3-7.7-5-13.2-12.2-14.1m4.1 14c-.4 3.4-3.2 5.6-6.4 5.2-3.4-.4-5.4-3.4-5-6.6.4-3.4 3.2-5.6 6.4-5.2 3.5.4 5.4 3.4 5 6.6M497.8 703.3l.3 7.4 20-1-12.9 32.1 8.4-.4 14.4-35.9-.2-3.7zM544.4 698.1c-7.6 1.7-12.2 8.5-10.5 15.9 1.8 7.8 9.1 11.3 16.3 9.7l-.4.7c-.4.9-6.7 13.7-6.7 13.7l9.1-2.1c1.8-3.5 3.6-7.3 5.5-11.4 2.5-5.4 4.3-11.4 2.9-17.5-2.2-7.2-9.1-10.6-16.2-9m4.4 18.8c-3.3.8-6.2-1.4-6.9-4.5-.8-3.3 1.1-6.3 4.3-7.1 3.4-.8 6.2 1.4 6.9 4.5.7 3.4-1.1 6.4-4.3 7.1M324.9 404.6l-4.3-6.1 11.7-18.1 7.3 1.4 5.2-8-48.3-9.6-5.2 8 28.4 40.3zm-21.7-30.2 20 4.3-8 12.3zM373.3 346.5l-6.2-6.3-16.3 15.9-25.8-26.5-6.9 6.7 31.9 32.9zM398.5 329.9c6.7-4.2 9-12 4.6-19.1-2.7-4.2-7.3-5.7-11.9-5.5.4-2.8 0-5.5-1.5-7.7-4.4-7.1-12.5-8.3-19.1-4.2l-16.2 10.2 24.3 38.8zM367 305.7l7.6-4.8c2.6-1.6 5.9-1.4 7.5 1.2 1.6 2.5.3 5.4-1.7 6.9l-8.2 5.1zm20.3 8.6c2.6-1.6 6-1.4 7.7 1.4 1.8 2.9.3 6.1-2.1 7.5l-10.7 6.7-5.6-8.9zM424.3 309.5l20.5-6.8 4.8 5.7 9-3-31.8-37.7-9.1 3-3 49.2 9.1-3zm1.5-29.7 13 15.8-13.9 4.6zM474.9 266.7l3.2 36.9 9.6-.9-3.1-36.8 15.1-1.3-.7-8.8-39.9 3.4.7 8.8zM510.502 302.607l3.378-45.676 9.674.715-3.379 45.677zM546.9 278l19.7 34.9 4.7 1.2 11.4-44.3-9.3-2.4-7.2 27.9-19.7-34.9-4.7-1.2-11.4 44.3 9.3 2.4zM616.1 314.3l14.3 9.2 4.7-7.4-14.2-9.2 4-6.3 19.2 12.3 4.8-7.4-27.3-17.6-24.8 38.5 8.1 5.2zM631.3 344.6c-1.8 2-1.4 5.1.5 6.8 2 1.8 5.1 1.5 6.8-.4 1.8-2 1.4-5.1-.5-6.8-2.1-1.9-5.2-1.5-6.8.4" class="st7"></path><path d="m682.9 383.9-3.6-8.9c-6 2.6-12.2 1.2-16.3-3.8-5.1-6.3-3.5-14.6 2.5-19.5 6.2-5.1 14.5-4.7 19.6 1.5 4.1 5 4 11.7.4 16.7l8 5.4c5.9-8.7 4.8-19.6-1.7-27.5-8.4-10.3-22.7-11.9-32.6-3.8-10.1 8.3-11 22.7-2.9 32.7 6.6 8.2 17.4 11.1 26.6 7.2" class="st6"></path><path d="M676.9 398c-2.3 1.3-3.1 4.3-1.8 6.6 1.3 2.4 4.3 3.1 6.5 1.9 2.3-1.3 3.1-4.3 1.8-6.6-1.2-2.4-4.3-3.2-6.5-1.9" class="st7"></path><path d="M379.6 621.2c.7.7 1.4 1.4 2.2 2.1 33 31.7 75.7 47.6 118.3 47.6 43.9 0 87.8-16.8 121.1-50.4 65.8-66.2 66.2-172.8 1.4-239.4-.7-.7-1.4-1.4-2.1-2.2q-5.25-5.25-10.8-9.9c-31.7-26.5-70.6-39.8-109.6-39.8-43.9 0-87.8 16.8-121.2 50.4-66.5 66.9-66.2 175 .7 241.6m237.8-4.6c-15.8 15.9-34.3 28.2-54.8 36.6-19.9 8.1-40.9 12.2-62.5 12.2-42.9 0-83.6-16.4-114.5-46.1l-.3-.3c-.6-.6-1.2-1.1-1.8-1.7-15.8-15.7-28.1-34.1-36.5-54.6-8.1-19.8-12.2-40.7-12.3-62.2s3.9-42.4 11.9-62.3c8.3-20.5 20.4-39 36.2-54.8 15.8-15.9 34.3-28.2 54.8-36.6 19.9-8.1 40.9-12.2 62.5-12.2 38.8 0 76.5 13.7 106.2 38.5q5.4 4.5 10.5 9.6l1.8 1.8.3.3c30.4 31.3 47 72.5 46.7 116.1s-17.4 84.7-48.2 115.7" class="st4"></path></g><!-- source: https://football-logos.cc --></svg>