<svg xmlns="http://www.w3.org/2000/svg" version="1.2" viewBox="414.5 326.5 1782 2855.38"><!-- Source: https://football-logos.cc --><style data-source="https://football-logos.cc">.s0,.s3,.s4,.s6{opacity:.99;fill:#f2030d}.s3,.s4,.s6{opacity:.97}.s4,.s6{opacity:.96}.s6{opacity:.95}</style><path fill-rule="evenodd" d="M1283.5 326.5q132.8 40.1 248 116.5 42.7 27.2 83 58 50.6 39 89.5 89.5 77.7 106.7 75.5 239.5 1.1 196.4-96.5 366.5-9.4 25.2-20 50-26.1 54.2-50.5 109l-236-91q23.8-53.1 48.5-106 17.9-41.9 24-87 9-91-73.5-129.5-45.9-22.6-97-21-38.5 4-67 30-36.9 37.9-58.5 86.5-190.8 412.2-384 823-123.8-47.5-246.5-97Q715 1352.4 906 940.5q149.5-316.6 487.5-218.5 58.2 18.1 113 44.5.5-.8 1-1.5-11-40.3-34.5-74.5-45-60-107.5-101.5-81.5-54-174-86.5 45.9-87.9 92-176m-715 1365q11 .1 22 1.5 8.1 2.1 10 10-12.4 28-26 55.5-7.5 1.1-14-3.5-2.3-2-3-5 9.6-21.2 20-42-7.1-1.4-14-3.5-2.9-8.6 5-13m53 19q16.5-1.9 30 7.5 12.1 13.2 6.5 30.5-16 43.1-57.5 23.5-5.9-3.2-8-9.5 1.3-5.6 6.5-8 5.2 3.2 10.5 6.5 14.4 7 24-5.5-16.4-.1-27.5-12-7.6-23.8 15.5-33m54 20q3.5-.2 7 .5 18.3 7.9 37 15 4.6 4.7 1.5 10.5-2.7 4.2-6.5 7.5-21.8 18.3-44.5 35.5-7.2-1.6-12-7-1.1-4.2 1-8 19.4-15.3 38.5-31-13-6.7-27-11 .2-7.1 5-12m68 28q18.5-.8 32.5 11 4.5 9.3-5 13-8.5-7.1-19.5-9-8.8.9-14 8 16.3-.5 27.5 11 8 17.9-7.5 30.5-23.1 10.1-41.5-7.5-8.8-16.9 0-34 8.4-18.1 27.5-23" class="s0"></path><path fill-rule="evenodd" d="M1764.5 1251.5q216.3 66.1 432 134-129.4 40-258.5 81l-325 699q-38.8 84.7-105.5 149.5-102.8 90.2-240 78-123.7-14.6-232-76-66.5-36.9-111.5-98.5-49.5-76.8-39-168 10.9-86.3 48-165 23.4-48.3 46-97 105.4 42 211.5 82-20.9 47.8-43.5 95-19.5 43-25 90-5.7 87 75.5 118.5 37.4 16.3 78 14 41.9-5.6 69.5-37.5 15.7-18.2 28-39 18.2-33.9 34-69l310-666q23.9-62.5 47.5-125" class="s0"></path><path fill-rule="evenodd" d="M1197.5 1391.5q111.3-3.2 187.5 77 79.1 96.8 30 212-52.4 98.1-162.5 118.5-106.6 17.3-192-48-99.5-86.1-65.5-213.5 31.8-87.9 117.5-125.5 40.9-17.6 85-20.5" class="s0"></path><path fill-rule="evenodd" d="M631.5 1724.5q6.3.5 9.5 6 .7 6.2-1.5 12-12.2 3.5-17-8 1.5-8 9-10" style="opacity:.85;fill:#f2030d"></path><path fill-rule="evenodd" d="M734.5 1793.5q21.2.7 9 17.5-19.2 2.7-11.5-15.5 1.5-.8 2.5-2" style="opacity:.84;fill:#f2030d"></path><path fill-rule="evenodd" d="M491.5 2586.5q29-.5 58 1 40.1 96.7 81 193-29 1.5-58 1-5.8-15.4-11-31h-79q-4.9 15.2-11 30-28.5 1.5-57 1 38.2-97.6 77-195m30 49q12.4 36.1 23 73-22.5.5-45-1 11.9-35.8 22-72M650.5 2586.5h54v149h94v46h-148zM920.5 2586.5h54q.7 69.5-1.5 139-13.6 50.6-65.5 59.5-52.6 6-83.5-36.5-7.7-12.4-8.5-27l53-14q-1.4 27.6 26 30 17.1-.7 24.5-16 2.2-67.4 1.5-135M1059.5 2586.5q29-.5 58 1 40.2 96.6 81 193-29 1.5-58 1l-11-30q-39.5-1.5-79-1-4.9 15.2-11 30-28.5 1.5-57 1 38.2-97.6 77-195m30 49q12.4 36.1 23 73-22.5.5-45-1 11.9-35.8 22-72" class="s3" data-source="https://football-logos.cc"></path><path fill-rule="evenodd" d="M1218.5 2586.5q26-.5 52 1 43.5 56.2 87.5 112 .8-56.5.5-113h54v195q-25.5.3-51-.5-44.3-56.3-88.5-112.5-.8 56.5-.5 113h-54z" class="s4"></path><path fill-rule="evenodd" d="M1451.5 2586.5q50.5-.3 101 .5 71.6 11.6 86.5 82.5 6.3 73.1-59.5 104.5-10.7 4.2-22 6-28.2 1.7-56.5 1.5-24.6 0-49-1-.8-97-.5-194m54 46q18.5-.3 37 .5 27.5 5.4 37.5 31.5 11.7 38.5-19.5 63.5-9.7 5.9-21 7-17 .8-34 .5zM1718.5 2586.5q29-.5 58 1 40.1 96.7 81 193-29 1.5-58 1-5.8-15.4-11-31h-79q-4.9 15.2-11 30-28.5 1.5-57 1 38.2-97.6 77-195m30 49q12.4 36.1 23 73-22.5.5-45-1 11.9-35.8 22-72M1877.5 2586.5h54v149h94v46h-148zM877.5 2920.5h48q.3 104-.5 208-6.7 27.1-32.5 37.5-6.4 2.1-13 3-33 1-66 0-55.7-6.4-75.5-58.5-1.3-4.9-2-10-.8-32-.5-64h49q-.3 30 .5 60 7 22 29.5 27.5 27 1 54 0 7.7-3.2 8.5-11.5.8-96 .5-192" class="s3"></path><path fill-rule="evenodd" d="M1553.5 2920.5h48q.3 76-.5 152-8.8 36-45.5 42.5-113.5 1-227 0-16.8-2.4-31-11.5-13.1 9-29 11.5-78 1-156 0-19.7-2.5-36-13.5-14 10.1-31 13.5-49.5.8-99 .5v-44q45.5.3 91-.5 6.7-.5 9.5-6.5 1-4 0-8-12.7-40.4-24.5-81 22.4-4.7 44.5-11 .8.5 1.5 1 14.7 44.8 28.5 90 7.7 13.7 23.5 15.5 69.6 1.5 139-1 8.6-3.5 10.5-12.5.8-27 .5-54h49q-.3 27.5.5 55 3.9 8.4 12.5 11.5 66.9 2.5 134 1-1.8-1.4-2.5-3.5.7-47-46.5-47-20.9.9-40.5 8-9.6-19.8-18.5-40 50.9-21.8 103-3.5 53 24.6 50.5 83.5 1.8 2.1 4.5 2.5 15.5 1 31 0 4.9-1.4 5.5-6.5.8-72 .5-144" style="opacity:.98;fill:#f2030d"></path><path fill-rule="evenodd" d="M1648.5 2920.5h49v195h-49z" class="s4"></path><path fill-rule="evenodd" d="M1286.5 2928.5q21.5-3.9 33.5 14 7.1 31.2-25 35-29.4-2.9-26-32 5.7-11.9 17.5-17M1437.5 3132.5q21.3-.5 29.5 19 2.8 22.3-18.5 29.5-25.2 5-34.5-18.5-1.4-25.3 23.5-30" class="s6" data-source="https://football-logos.cc"></path><!-- source: https://football-logos.cc --></svg>