<svg xmlns="http://www.w3.org/2000/svg" fill="none" viewBox="0 0 79 106"><!-- Source: https://football-logos.cc --><g clip-path="url(#a)" data-source="https://football-logos.cc"><path fill="url(#b)" d="M21.596 67.175h-6.04c-.308 0-.511.198-.511.51v.77c0 .307.197.51.51.51h4.253l-3.2 8.147c-.082.225-.01.373.04.445.049.065.164.18.405.18h1.158a.565.565 0 0 0 .538-.373l3.28-8.493c.061-.153.089-.296.089-.439v-.746c0-.308-.198-.51-.51-.51m.087-4.53h-2.041V54.4c0-.28-.23-.51-.51-.51h-3.605a.55.55 0 0 0-.549.548v.774a.55.55 0 0 0 .549.55h1.992v6.878h-2.074a.495.495 0 0 0-.494.495v.768c0 .27.22.494.494.494h6.238c.269 0 .494-.22.494-.494v-.768c0-.27-.22-.495-.494-.495m5.57-8.877c-2.3 0-3.841 1.482-3.841 3.684 0 2.086 1.431 3.601 3.407 3.601.236 0 .477-.033.708-.093l-1.795 2.756c-.11.16-.131.33-.055.466.077.143.231.226.423.226h1.169a.62.62 0 0 0 .543-.286l2.08-3.179c.91-1.416 1.218-2.3 1.218-3.486 0-2.207-1.553-3.683-3.858-3.683m1.685 4.227c0 .922-.752 1.674-1.68 1.674a1.674 1.674 0 0 1-1.673-1.674v-1.12a1.683 1.683 0 0 1 1.674-1.669c.916 0 1.673.752 1.673 1.68v1.109zm-1.251 12.533q-.363.001-.708.094l1.8-2.756c.11-.16.131-.33.055-.472-.077-.143-.231-.225-.428-.225h-1.17a.63.63 0 0 0-.542.285l-2.085 3.184c-.911 1.422-1.219 2.3-1.219 3.486 0 2.207 1.553 3.69 3.863 3.69s3.847-1.483 3.847-3.69c0-2.086-1.438-3.607-3.413-3.607m1.24 4.178a1.68 1.68 0 1 1-3.358 0v-1.12a1.68 1.68 0 0 1 1.679-1.669c.922 0 1.679.752 1.679 1.68zm47.434-63.771H52.91l-1.394-7.22A4.57 4.57 0 0 0 47.033 0h-14.99a4.57 4.57 0 0 0-4.482 3.706l-1.394 7.219h-5.679C8.614 10.925 0 19.143 0 30.464V64.6c0 28.191 31.703 39.259 38.062 41.191a4.8 4.8 0 0 0 2.804 0c6.37-1.932 38.134-13 38.134-41.19V13.56c0-1.45-1.18-2.63-2.628-2.63M6.54 29.941c.033-9.124 6.08-15.74 14.392-15.74h4.598l-6.112 31.672c-8.411-1.79-12.861-7.269-12.878-15.86zm29.498 71.655C27.368 98.342 8.159 88.454 7.034 64.6l-.038-20.812c3.544 3.706 8.543 5.737 14.15 5.737h13.668c.67 0 1.218.549 1.218 1.224v50.848zm-1.19-69.058a.86.86 0 0 1-.764-.44.86.86 0 0 1 0-.878l4.692-8.13c.23-.401.609-.44.768-.44s.532.044.763.44l4.69 8.13a.86.86 0 0 1 0 .884.87.87 0 0 1-.762.44h-9.382zm37.156 30.2c0 24.969-19.934 35.388-28.97 38.825V77.831h8.565c2.524 0 4.696-1.8 5.174-4.277l4.323-22.399a2.005 2.005 0 0 1 1.97-1.625h8.938v13.215zm0-34.147H57.97A2.01 2.01 0 0 1 56 26.966l-2.464-12.764h17.246A1.22 1.22 0 0 1 72 15.42v13.17z"></path></g><defs data-source="https://football-logos.cc"><linearGradient id="b" x1=".134" x2="105.504" y1="-11.364" y2="16.498" gradientUnits="userSpaceOnUse"><stop stop-color="#C79667"></stop><stop offset=".5" stop-color="#DDC0A4"></stop><stop offset="1" stop-color="#C79667"></stop></linearGradient><clipPath id="a"><path fill="#fff" d="M0 0h79v106H0z"></path></clipPath></defs><!-- source: https://football-logos.cc --></svg>