<svg xmlns="http://www.w3.org/2000/svg" xml:space="preserve" viewBox="0 0 300 296.66"><!-- Source: https://football-logos.cc --><defs data-source="https://football-logos.cc"><radialGradient id="a" cx="0" cy="0" r="1" fx="0" fy="0" gradientTransform="matrix(670.81196 0 0 -670.81196 360.118 258.425)" gradientUnits="userSpaceOnUse" spreadMethod="pad"><stop offset="0" style="stop-opacity:1;stop-color:#338461"></stop><stop offset=".056" style="stop-opacity:1;stop-color:#2a7b54"></stop><stop offset=".168" style="stop-opacity:1;stop-color:#176e42"></stop><stop offset=".233" style="stop-opacity:1;stop-color:#0e6a3b"></stop><stop offset=".24" style="stop-opacity:1;stop-color:#0e693b"></stop><stop offset=".543" style="stop-opacity:1;stop-color:#024122"></stop><stop offset=".694" style="stop-opacity:1;stop-color:#034323"></stop><stop offset=".786" style="stop-opacity:1;stop-color:#054726"></stop><stop offset=".862" style="stop-opacity:1;stop-color:#084e2b"></stop><stop offset=".929" style="stop-opacity:1;stop-color:#0b5932"></stop><stop offset=".991" style="stop-opacity:1;stop-color:#0e673a"></stop><stop offset="1" style="stop-opacity:1;stop-color:#0e6a3b"></stop></radialGradient><radialGradient id="G" cx="0" cy="0" r="1" fx="0" fy="0" gradientTransform="matrix(363.17747 0 0 -363.17747 310.94 309.002)" gradientUnits="userSpaceOnUse" spreadMethod="pad"><stop offset="0" style="stop-opacity:1;stop-color:#57746e"></stop><stop offset=".12" style="stop-opacity:1;stop-color:#4c6963"></stop><stop offset=".31" style="stop-opacity:1;stop-color:#3f5c57"></stop><stop offset=".503" style="stop-opacity:1;stop-color:#375551"></stop><stop offset=".705" style="stop-opacity:1;stop-color:#35534e"></stop><stop offset=".831" style="stop-opacity:1;stop-color:#34534f"></stop><stop offset=".877" style="stop-opacity:1;stop-color:#335652"></stop><stop offset=".909" style="stop-opacity:1;stop-color:#315b56"></stop><stop offset=".935" style="stop-opacity:1;stop-color:#2d615d"></stop><stop offset=".958" style="stop-opacity:1;stop-color:#266a67"></stop><stop offset=".978" style="stop-opacity:1;stop-color:#187574"></stop><stop offset=".995" style="stop-opacity:1;stop-color:#008184"></stop><stop offset="1" style="stop-opacity:1;stop-color:#00868a"></stop></radialGradient><radialGradient id="H" cx="0" cy="0" r="1" fx="0" fy="0" gradientTransform="matrix(16.48 432.37325 336.44897 -12.82379 311.158 270.955)" gradientUnits="userSpaceOnUse" spreadMethod="pad"><stop offset="0" style="stop-opacity:1;stop-color:#57746e"></stop><stop offset=".12" style="stop-opacity:1;stop-color:#4c6963"></stop><stop offset=".31" style="stop-opacity:1;stop-color:#3f5c57"></stop><stop offset=".503" style="stop-opacity:1;stop-color:#375551"></stop><stop offset=".705" style="stop-opacity:1;stop-color:#35534e"></stop><stop offset=".831" style="stop-opacity:1;stop-color:#34534f"></stop><stop offset=".877" style="stop-opacity:1;stop-color:#335652"></stop><stop offset=".909" style="stop-opacity:1;stop-color:#315b56"></stop><stop offset=".935" style="stop-opacity:1;stop-color:#2d615d"></stop><stop offset=".958" style="stop-opacity:1;stop-color:#266a67"></stop><stop offset=".978" style="stop-opacity:1;stop-color:#187574"></stop><stop offset=".995" style="stop-opacity:1;stop-color:#008184"></stop><stop offset="1" style="stop-opacity:1;stop-color:#00868a"></stop></radialGradient><radialGradient id="I" cx="0" cy="0" r="1" fx="0" fy="0" gradientTransform="matrix(199.81625 0 0 -199.81625 202.959 333.35)" gradientUnits="userSpaceOnUse" spreadMethod="pad"><stop offset="0" style="stop-opacity:1;stop-color:#cbe8db"></stop><stop offset=".162" style="stop-opacity:1;stop-color:#cbe8db"></stop><stop offset=".341" style="stop-opacity:1;stop-color:#b9d5ca"></stop><stop offset=".695" style="stop-opacity:1;stop-color:#90afa8"></stop><stop offset="1" style="stop-opacity:1;stop-color:#6c928c"></stop></radialGradient><radialGradient id="J" cx="0" cy="0" r="1" fx="0" fy="0" gradientTransform="matrix(149.70479 -5.06354 -1.38949 -41.08868 328.008 666.848)" gradientUnits="userSpaceOnUse" spreadMethod="pad"><stop offset="0" style="stop-opacity:1;stop-color:#7cccc1"></stop><stop offset=".272" style="stop-opacity:1;stop-color:#52c3c3"></stop><stop offset=".435" style="stop-opacity:1;stop-color:#39c0c3"></stop><stop offset=".514" style="stop-opacity:1;stop-color:#34abaf"></stop><stop offset=".627" style="stop-opacity:1;stop-color:#2b989c"></stop><stop offset=".744" style="stop-opacity:1;stop-color:#258c8f"></stop><stop offset=".866" style="stop-opacity:1;stop-color:#218488"></stop><stop offset="1" style="stop-opacity:1;stop-color:#208286"></stop></radialGradient><radialGradient id="j" cx="0" cy="0" r="1" fx="0" fy="0" gradientTransform="matrix(18.45873 4.7376 1.61495 -6.29076 406.173 464.572)" gradientUnits="userSpaceOnUse" spreadMethod="pad"><stop offset="0" style="stop-opacity:1;stop-color:#14686a"></stop><stop offset="1" style="stop-opacity:1;stop-color:#033235"></stop></radialGradient><radialGradient id="k" cx="0" cy="0" r="1" fx="-.665" fy="-.332" gradientTransform="matrix(20.1327 0 0 -20.1327 395.24 452.196)" gradientUnits="userSpaceOnUse" spreadMethod="pad"><stop offset="0" style="stop-opacity:1;stop-color:#14686a"></stop><stop offset="1" style="stop-opacity:1;stop-color:#033235"></stop></radialGradient><radialGradient id="l" cx="0" cy="0" r="1" fx="0" fy="0" gradientTransform="matrix(24.40682 0 0 -24.40682 392.208 476.14)" gradientUnits="userSpaceOnUse" spreadMethod="pad"><stop offset="0" style="stop-opacity:1;stop-color:#14686a"></stop><stop offset="1" style="stop-opacity:1;stop-color:#033235"></stop></radialGradient><radialGradient id="m" cx="0" cy="0" r="1" fx="0" fy="0" gradientTransform="matrix(8.12651 0 0 -8.12651 399.284 480.968)" gradientUnits="userSpaceOnUse" spreadMethod="pad"><stop offset="0" style="stop-opacity:1;stop-color:#14686a"></stop><stop offset="1" style="stop-opacity:1;stop-color:#033235"></stop></radialGradient><radialGradient id="n" cx="0" cy="0" r="1" fx="0" fy="0" gradientTransform="matrix(79.72489 0 0 -79.72489 450.745 441.347)" gradientUnits="userSpaceOnUse" spreadMethod="pad"><stop offset="0" style="stop-opacity:1;stop-color:#14686a"></stop><stop offset=".405" style="stop-opacity:1;stop-color:#146769"></stop><stop offset=".575" style="stop-opacity:1;stop-color:#146365"></stop><stop offset=".701" style="stop-opacity:1;stop-color:#135c5e"></stop><stop offset=".806" style="stop-opacity:1;stop-color:#115254"></stop><stop offset=".897" style="stop-opacity:1;stop-color:#0d4648"></stop><stop offset=".977" style="stop-opacity:1;stop-color:#063739"></stop><stop offset="1" style="stop-opacity:1;stop-color:#033235"></stop></radialGradient><radialGradient id="o" cx="0" cy="0" r="1" fx="0" fy="0" gradientTransform="matrix(17.13495 0 0 -17.13495 446.508 479.168)" gradientUnits="userSpaceOnUse" spreadMethod="pad"><stop offset="0" style="stop-opacity:1;stop-color:#14686a"></stop><stop offset="1" style="stop-opacity:1;stop-color:#033235"></stop></radialGradient><radialGradient id="p" cx="0" cy="0" r="1" fx="0" fy="0" gradientTransform="matrix(26.43677 0 0 -26.43677 475.579 508.97)" gradientUnits="userSpaceOnUse" spreadMethod="pad"><stop offset="0" style="stop-opacity:1;stop-color:#14686a"></stop><stop offset="1" style="stop-opacity:1;stop-color:#033235"></stop></radialGradient><radialGradient id="q" cx="0" cy="0" r="1" fx="0" fy="0" gradientTransform="matrix(-21.7758 0 0 6.81583 465.977 438.744)" gradientUnits="userSpaceOnUse" spreadMethod="pad"><stop offset="0" style="stop-opacity:1;stop-color:#14686a"></stop><stop offset="1" style="stop-opacity:1;stop-color:#033235"></stop></radialGradient><radialGradient id="r" cx="0" cy="0" r="1" fx="0" fy="0" gradientTransform="matrix(11.46817 0 0 -11.46817 462.853 471.993)" gradientUnits="userSpaceOnUse" spreadMethod="pad"><stop offset="0" style="stop-opacity:1;stop-color:#14686a"></stop><stop offset="1" style="stop-opacity:1;stop-color:#033235"></stop></radialGradient><radialGradient id="s" cx="0" cy="0" r="1" fx="0" fy="0" gradientTransform="matrix(27.77979 0 0 -27.77979 538.871 466.49)" gradientUnits="userSpaceOnUse" spreadMethod="pad"><stop offset="0" style="stop-opacity:1;stop-color:#14686a"></stop><stop offset="1" style="stop-opacity:1;stop-color:#033235"></stop></radialGradient><radialGradient id="t" cx="0" cy="0" r="1" fx="-.212" fy="-.037" gradientTransform="matrix(36.74296 .46708 .10105 -7.9483 497.247 440.075)" gradientUnits="userSpaceOnUse" spreadMethod="pad"><stop offset="0" style="stop-opacity:1;stop-color:#14686a"></stop><stop offset="1" style="stop-opacity:1;stop-color:#033235"></stop></radialGradient><radialGradient id="u" cx="0" cy="0" r="1" fx="0" fy="0" gradientTransform="matrix(71.42352 0 0 -71.42352 494.631 465.969)" gradientUnits="userSpaceOnUse" spreadMethod="pad"><stop offset="0" style="stop-opacity:1;stop-color:#14686a"></stop><stop offset="1" style="stop-opacity:1;stop-color:#033235"></stop></radialGradient><radialGradient id="v" cx="0" cy="0" r="1" fx="0" fy="0" gradientTransform="matrix(28.14785 0 0 -28.14785 496.562 445.801)" gradientUnits="userSpaceOnUse" spreadMethod="pad"><stop offset="0" style="stop-opacity:1;stop-color:#14686a"></stop><stop offset="1" style="stop-opacity:1;stop-color:#033235"></stop></radialGradient><radialGradient id="w" cx="0" cy="0" r="1" fx="0" fy="0" gradientTransform="matrix(23.65012 0 0 -23.65012 581.383 453.337)" gradientUnits="userSpaceOnUse" spreadMethod="pad"><stop offset="0" style="stop-opacity:1;stop-color:#14686a"></stop><stop offset="1" style="stop-opacity:1;stop-color:#033235"></stop></radialGradient><radialGradient id="x" cx="0" cy="0" r="1" fx="0" fy="0" gradientTransform="matrix(52.62757 0 0 -52.62757 545.022 450.66)" gradientUnits="userSpaceOnUse" spreadMethod="pad"><stop offset="0" style="stop-opacity:1;stop-color:#14686a"></stop><stop offset=".199" style="stop-opacity:1;stop-color:#146668"></stop><stop offset=".4" style="stop-opacity:1;stop-color:#145f61"></stop><stop offset=".603" style="stop-opacity:1;stop-color:#115455"></stop><stop offset=".805" style="stop-opacity:1;stop-color:#0c4446"></stop><stop offset="1" style="stop-opacity:1;stop-color:#033235"></stop></radialGradient><radialGradient id="y" cx="0" cy="0" r="1" fx="0" fy="0" gradientTransform="matrix(22.8353 -2.20976 -1.02482 -10.58948 560.222 443.333)" gradientUnits="userSpaceOnUse" spreadMethod="pad"><stop offset="0" style="stop-opacity:1;stop-color:#14686a"></stop><stop offset="1" style="stop-opacity:1;stop-color:#033235"></stop></radialGradient><radialGradient id="z" cx="0" cy="0" r="1" fx="0" fy="0" gradientTransform="matrix(5.47477 0 0 -5.47477 550.499 440.686)" gradientUnits="userSpaceOnUse" spreadMethod="pad"><stop offset="0" style="stop-opacity:1;stop-color:#14686a"></stop><stop offset="1" style="stop-opacity:1;stop-color:#033235"></stop></radialGradient><radialGradient id="A" cx="0" cy="0" r="1" fx="0" fy="0" gradientTransform="matrix(46.92636 0 0 -46.92636 552.576 438.227)" gradientUnits="userSpaceOnUse" spreadMethod="pad"><stop offset="0" style="stop-opacity:1;stop-color:#14686a"></stop><stop offset=".289" style="stop-opacity:1;stop-color:#146769"></stop><stop offset=".475" style="stop-opacity:1;stop-color:#146264"></stop><stop offset=".633" style="stop-opacity:1;stop-color:#13595b"></stop><stop offset=".774" style="stop-opacity:1;stop-color:#104e50"></stop><stop offset=".904" style="stop-opacity:1;stop-color:#0a3f42"></stop><stop offset="1" style="stop-opacity:1;stop-color:#033235"></stop></radialGradient><radialGradient id="B" cx="0" cy="0" r="1" fx="0" fy="0" gradientTransform="scale(119.8929 -119.8929)rotate(.075 2709.908 3488.635)" gradientUnits="userSpaceOnUse" spreadMethod="pad"><stop offset="0" style="stop-opacity:1;stop-color:#ceebf0"></stop><stop offset=".065" style="stop-opacity:1;stop-color:#c7e8e9"></stop><stop offset=".165" style="stop-opacity:1;stop-color:#b3dfd9"></stop><stop offset=".287" style="stop-opacity:1;stop-color:#93d2bf"></stop><stop offset=".344" style="stop-opacity:1;stop-color:#82ccb1"></stop><stop offset="1" style="stop-opacity:1;stop-color:#68bea2"></stop></radialGradient><radialGradient id="C" cx="0" cy="0" r="1" fx="0" fy="0" gradientTransform="scale(119.8929 -119.8929)rotate(.075 2709.908 3488.635)" gradientUnits="userSpaceOnUse" spreadMethod="pad"><stop offset="0" style="stop-opacity:1;stop-color:#ceebf0"></stop><stop offset=".065" style="stop-opacity:1;stop-color:#c7e8e9"></stop><stop offset=".165" style="stop-opacity:1;stop-color:#b3dfd9"></stop><stop offset=".287" style="stop-opacity:1;stop-color:#93d2bf"></stop><stop offset=".344" style="stop-opacity:1;stop-color:#82ccb1"></stop><stop offset="1" style="stop-opacity:1;stop-color:#68bea2"></stop></radialGradient><radialGradient id="D" cx="0" cy="0" r="1" fx="0" fy="0" gradientTransform="scale(119.8929 -119.8929)rotate(.075 2709.908 3488.635)" gradientUnits="userSpaceOnUse" spreadMethod="pad"><stop offset="0" style="stop-opacity:1;stop-color:#ceebf0"></stop><stop offset=".065" style="stop-opacity:1;stop-color:#c7e8e9"></stop><stop offset=".165" style="stop-opacity:1;stop-color:#b3dfd9"></stop><stop offset=".287" style="stop-opacity:1;stop-color:#93d2bf"></stop><stop offset=".344" style="stop-opacity:1;stop-color:#82ccb1"></stop><stop offset="1" style="stop-opacity:1;stop-color:#68bea2"></stop></radialGradient><radialGradient id="E" cx="0" cy="0" r="1" fx="0" fy="0" gradientTransform="scale(119.8929 -119.8929)rotate(.075 2709.908 3488.635)" gradientUnits="userSpaceOnUse" spreadMethod="pad"><stop offset="0" style="stop-opacity:1;stop-color:#ceebf0"></stop><stop offset=".065" style="stop-opacity:1;stop-color:#c7e8e9"></stop><stop offset=".165" style="stop-opacity:1;stop-color:#b3dfd9"></stop><stop offset=".287" style="stop-opacity:1;stop-color:#93d2bf"></stop><stop offset=".344" style="stop-opacity:1;stop-color:#82ccb1"></stop><stop offset="1" style="stop-opacity:1;stop-color:#68bea2"></stop></radialGradient><linearGradient id="b" x1="0" x2="1" y1="0" y2="0" gradientTransform="matrix(45.92416 0 0 -45.92416 606.692 469.979)" gradientUnits="userSpaceOnUse" spreadMethod="pad"><stop offset="0" style="stop-opacity:1;stop-color:#9cd5be"></stop><stop offset=".001" style="stop-opacity:1;stop-color:#9cd4be"></stop><stop offset=".102" style="stop-opacity:1;stop-color:#86b7a5"></stop><stop offset=".212" style="stop-opacity:1;stop-color:#78a495"></stop><stop offset=".333" style="stop-opacity:1;stop-color:#6e988a"></stop><stop offset=".473" style="stop-opacity:1;stop-color:#699184"></stop><stop offset=".677" style="stop-opacity:1;stop-color:#678f83"></stop><stop offset=".735" style="stop-opacity:1;stop-color:#648c80"></stop><stop offset=".798" style="stop-opacity:1;stop-color:#5d8276"></stop><stop offset=".863" style="stop-opacity:1;stop-color:#517268"></stop><stop offset=".93" style="stop-opacity:1;stop-color:#405d55"></stop><stop offset=".998" style="stop-opacity:1;stop-color:#2b453e"></stop><stop offset="1" style="stop-opacity:1;stop-color:#2a453e"></stop></linearGradient><linearGradient id="c" x1="0" x2="1" y1="0" y2="0" gradientTransform="matrix(22.40503 0 0 -22.40503 558.862 559.647)" gradientUnits="userSpaceOnUse" spreadMethod="pad"><stop offset="0" style="stop-opacity:1;stop-color:#9cd5be"></stop><stop offset=".001" style="stop-opacity:1;stop-color:#9cd4be"></stop><stop offset=".102" style="stop-opacity:1;stop-color:#86b7a5"></stop><stop offset=".212" style="stop-opacity:1;stop-color:#78a495"></stop><stop offset=".333" style="stop-opacity:1;stop-color:#6e988a"></stop><stop offset=".473" style="stop-opacity:1;stop-color:#699184"></stop><stop offset=".677" style="stop-opacity:1;stop-color:#678f83"></stop><stop offset=".735" style="stop-opacity:1;stop-color:#648c80"></stop><stop offset=".798" style="stop-opacity:1;stop-color:#5d8276"></stop><stop offset=".863" style="stop-opacity:1;stop-color:#517268"></stop><stop offset=".93" style="stop-opacity:1;stop-color:#405d55"></stop><stop offset=".998" style="stop-opacity:1;stop-color:#2b453e"></stop><stop offset="1" style="stop-opacity:1;stop-color:#2a453e"></stop></linearGradient><linearGradient id="d" x1="0" x2="1" y1="0" y2="0" gradientTransform="matrix(497.1051 0 0 -497.1051 11.698 300.21)" gradientUnits="userSpaceOnUse" spreadMethod="pad"><stop offset="0" style="stop-opacity:1;stop-color:#9cd5be"></stop><stop offset=".001" style="stop-opacity:1;stop-color:#9cd4be"></stop><stop offset=".102" style="stop-opacity:1;stop-color:#86b7a5"></stop><stop offset=".212" style="stop-opacity:1;stop-color:#78a495"></stop><stop offset=".333" style="stop-opacity:1;stop-color:#6e988a"></stop><stop offset=".473" style="stop-opacity:1;stop-color:#699184"></stop><stop offset=".677" style="stop-opacity:1;stop-color:#678f83"></stop><stop offset=".735" style="stop-opacity:1;stop-color:#648c80"></stop><stop offset=".798" style="stop-opacity:1;stop-color:#5d8276"></stop><stop offset=".863" style="stop-opacity:1;stop-color:#517268"></stop><stop offset=".93" style="stop-opacity:1;stop-color:#405d55"></stop><stop offset=".998" style="stop-opacity:1;stop-color:#2b453e"></stop><stop offset="1" style="stop-opacity:1;stop-color:#2a453e"></stop></linearGradient><linearGradient id="e" x1="0" x2="1" y1="0" y2="0" gradientTransform="matrix(78.04698 0 0 -78.04698 500.99 241.67)" gradientUnits="userSpaceOnUse" spreadMethod="pad"><stop offset="0" style="stop-opacity:1;stop-color:#9cd5be"></stop><stop offset=".001" style="stop-opacity:1;stop-color:#9cd4be"></stop><stop offset=".102" style="stop-opacity:1;stop-color:#86b7a5"></stop><stop offset=".212" style="stop-opacity:1;stop-color:#78a495"></stop><stop offset=".333" style="stop-opacity:1;stop-color:#6e988a"></stop><stop offset=".473" style="stop-opacity:1;stop-color:#699184"></stop><stop offset=".677" style="stop-opacity:1;stop-color:#678f83"></stop><stop offset=".735" style="stop-opacity:1;stop-color:#648c80"></stop><stop offset=".798" style="stop-opacity:1;stop-color:#5d8276"></stop><stop offset=".863" style="stop-opacity:1;stop-color:#517268"></stop><stop offset=".93" style="stop-opacity:1;stop-color:#405d55"></stop><stop offset=".998" style="stop-opacity:1;stop-color:#2b453e"></stop><stop offset="1" style="stop-opacity:1;stop-color:#2a453e"></stop></linearGradient><linearGradient id="f" x1="0" x2="1" y1="0" y2="0" gradientTransform="scale(155.53928 -155.53928)rotate(17.804 2.605 1.232)" gradientUnits="userSpaceOnUse" spreadMethod="pad"><stop offset="0" style="stop-opacity:1;stop-color:#9cd5be"></stop><stop offset=".001" style="stop-opacity:1;stop-color:#9cd4be"></stop><stop offset=".102" style="stop-opacity:1;stop-color:#86b7a5"></stop><stop offset=".212" style="stop-opacity:1;stop-color:#78a495"></stop><stop offset=".333" style="stop-opacity:1;stop-color:#6e988a"></stop><stop offset=".473" style="stop-opacity:1;stop-color:#699184"></stop><stop offset=".677" style="stop-opacity:1;stop-color:#678f83"></stop><stop offset=".735" style="stop-opacity:1;stop-color:#648c80"></stop><stop offset=".798" style="stop-opacity:1;stop-color:#5d8276"></stop><stop offset=".863" style="stop-opacity:1;stop-color:#517268"></stop><stop offset=".93" style="stop-opacity:1;stop-color:#405d55"></stop><stop offset=".998" style="stop-opacity:1;stop-color:#2b453e"></stop><stop offset="1" style="stop-opacity:1;stop-color:#2a453e"></stop></linearGradient><linearGradient id="g" x1="0" x2="1" y1="0" y2="0" gradientTransform="scale(81.6621 -81.6621)rotate(-15.663 1.295 -10.978)" gradientUnits="userSpaceOnUse" spreadMethod="pad"><stop offset="0" style="stop-opacity:1;stop-color:#9cd5be"></stop><stop offset=".001" style="stop-opacity:1;stop-color:#9cd4be"></stop><stop offset=".102" style="stop-opacity:1;stop-color:#86b7a5"></stop><stop offset=".212" style="stop-opacity:1;stop-color:#78a495"></stop><stop offset=".333" style="stop-opacity:1;stop-color:#6e988a"></stop><stop offset=".473" style="stop-opacity:1;stop-color:#699184"></stop><stop offset=".677" style="stop-opacity:1;stop-color:#678f83"></stop><stop offset=".735" style="stop-opacity:1;stop-color:#648c80"></stop><stop offset=".798" style="stop-opacity:1;stop-color:#5d8276"></stop><stop offset=".863" style="stop-opacity:1;stop-color:#517268"></stop><stop offset=".93" style="stop-opacity:1;stop-color:#405d55"></stop><stop offset=".998" style="stop-opacity:1;stop-color:#2b453e"></stop><stop offset="1" style="stop-opacity:1;stop-color:#2a453e"></stop></linearGradient><linearGradient id="h" x1="0" x2="1" y1="0" y2="0" gradientTransform="scale(-91.87502 91.87502)rotate(-.351 94.581 1006.861)" gradientUnits="userSpaceOnUse" spreadMethod="pad"><stop offset="0" style="stop-opacity:1;stop-color:#9cd5be"></stop><stop offset=".001" style="stop-opacity:1;stop-color:#9cd4be"></stop><stop offset=".102" style="stop-opacity:1;stop-color:#86b7a5"></stop><stop offset=".212" style="stop-opacity:1;stop-color:#78a495"></stop><stop offset=".333" style="stop-opacity:1;stop-color:#6e988a"></stop><stop offset=".473" style="stop-opacity:1;stop-color:#699184"></stop><stop offset=".677" style="stop-opacity:1;stop-color:#678f83"></stop><stop offset=".735" style="stop-opacity:1;stop-color:#648c80"></stop><stop offset=".798" style="stop-opacity:1;stop-color:#5d8276"></stop><stop offset=".863" style="stop-opacity:1;stop-color:#517268"></stop><stop offset=".93" style="stop-opacity:1;stop-color:#405d55"></stop><stop offset=".998" style="stop-opacity:1;stop-color:#2b453e"></stop><stop offset="1" style="stop-opacity:1;stop-color:#2a453e"></stop></linearGradient><linearGradient id="i" x1="0" x2="1" y1="0" y2="0" gradientTransform="scale(-143.80948 143.80948)rotate(-37.409 -.134 7.812)" gradientUnits="userSpaceOnUse" spreadMethod="pad"><stop offset="0" style="stop-opacity:1;stop-color:#9cd5be"></stop><stop offset=".001" style="stop-opacity:1;stop-color:#9cd4be"></stop><stop offset=".102" style="stop-opacity:1;stop-color:#86b7a5"></stop><stop offset=".212" style="stop-opacity:1;stop-color:#78a495"></stop><stop offset=".333" style="stop-opacity:1;stop-color:#6e988a"></stop><stop offset=".473" style="stop-opacity:1;stop-color:#699184"></stop><stop offset=".677" style="stop-opacity:1;stop-color:#678f83"></stop><stop offset=".735" style="stop-opacity:1;stop-color:#648c80"></stop><stop offset=".798" style="stop-opacity:1;stop-color:#5d8276"></stop><stop offset=".863" style="stop-opacity:1;stop-color:#517268"></stop><stop offset=".93" style="stop-opacity:1;stop-color:#405d55"></stop><stop offset=".998" style="stop-opacity:1;stop-color:#2b453e"></stop><stop offset="1" style="stop-opacity:1;stop-color:#2a453e"></stop></linearGradient><linearGradient id="K" x1="0" x2="1" y1="0" y2="0" gradientTransform="matrix(208.99017 0 0 -208.99017 241.48 193.185)" gradientUnits="userSpaceOnUse" spreadMethod="pad"><stop offset="0" style="stop-opacity:1;stop-color:#9cd5be"></stop><stop offset=".001" style="stop-opacity:1;stop-color:#9cd4be"></stop><stop offset=".102" style="stop-opacity:1;stop-color:#86b7a5"></stop><stop offset=".212" style="stop-opacity:1;stop-color:#78a495"></stop><stop offset=".333" style="stop-opacity:1;stop-color:#6e988a"></stop><stop offset=".473" style="stop-opacity:1;stop-color:#699184"></stop><stop offset=".677" style="stop-opacity:1;stop-color:#678f83"></stop><stop offset=".735" style="stop-opacity:1;stop-color:#648c80"></stop><stop offset=".798" style="stop-opacity:1;stop-color:#5d8276"></stop><stop offset=".863" style="stop-opacity:1;stop-color:#517268"></stop><stop offset=".93" style="stop-opacity:1;stop-color:#405d55"></stop><stop offset=".998" style="stop-opacity:1;stop-color:#2b453e"></stop><stop offset="1" style="stop-opacity:1;stop-color:#2a453e"></stop></linearGradient><linearGradient id="F" x1="0" x2="1" y1="0" y2="0" gradientTransform="matrix(417.77548 0 0 -417.77548 66.709 446.89)" gradientUnits="userSpaceOnUse" spreadMethod="pad"><stop offset="0" style="stop-opacity:1;stop-color:#9cd5be"></stop><stop offset=".001" style="stop-opacity:1;stop-color:#9cd4be"></stop><stop offset=".102" style="stop-opacity:1;stop-color:#86b7a5"></stop><stop offset=".212" style="stop-opacity:1;stop-color:#78a495"></stop><stop offset=".333" style="stop-opacity:1;stop-color:#6e988a"></stop><stop offset=".473" style="stop-opacity:1;stop-color:#699184"></stop><stop offset=".677" style="stop-opacity:1;stop-color:#678f83"></stop><stop offset=".735" style="stop-opacity:1;stop-color:#648c80"></stop><stop offset=".798" style="stop-opacity:1;stop-color:#5d8276"></stop><stop offset=".863" style="stop-opacity:1;stop-color:#517268"></stop><stop offset=".93" style="stop-opacity:1;stop-color:#405d55"></stop><stop offset=".998" style="stop-opacity:1;stop-color:#2b453e"></stop><stop offset="1" style="stop-opacity:1;stop-color:#2a453e"></stop></linearGradient></defs><path d="M305.396 0c-21.784.094-38.662 4.906-43.671 6.431h.447l2.236 3.578c28.622 0 54.114 17.889 59.928 21.91C220.133-1.172 126.663 65.012 92.678 107.95l3.13 3.13C153.945 80.667 210.742 77.54 211.637 77.54c-64.4 11.628-106.883 38.014-148.479 84.078C17.2 212.543.081 280.588 0 344.506v.961c.072 50.796 10.876 98.913 26.485 133.68v-.447.447l5.366-1.341C5.912 352.583 61.815 263.138 106.538 215.732c46.064-48.747 135.509-97.048 221.376-93.47 143.116 5.367 172.181 74.682 173.076 87.656v1.342s40.697 4.025 59.48 35.33c5.372 8.945 9.392 17.442 11.186 26.387 2.231 21.02-6.713 48.747-31.31 67.083 0-15.652-9.84-37.12-40.703-37.12-79.154.448-149.368 69.768-151.157 148.028-2.232 83.635 60.827 169.502 168.156 167.713 38.462-26.386 62.165-93.47 62.165-93.47s0 .9-.448 2.68c-1.341 6.712-6.703 32.647-18.783 60.826l.443 1.79c85.871-85.872 79.163-221.377 65.299-266.1 4.92 12.97 8.944 25.935 12.075 38.01 3.578 16.552 7.156 37.572 8.05 63.068 3.13 92.57-38.01 149.368-38.01 149.368l2.232 2.684C660.6 517.68 699.79 442.998 700 358.61v-1.44c-.045-16.668-1.614-33.716-4.915-51.1-14.758-76.922-67.084-131.484-109.57-159.211 49.646 21.914 80.952 55.455 85.424 63.505l4.02-2.236C631.58 92.294 534.085 59.204 483.106 56.516c41.136-10.73 67.084 3.582 67.084 3.582l1.784-4.468c-16.1-12.527-69.762-42.49-125.665-24.602-.9-21.466-12.523-30.41-12.523-30.41s-20.125 3.13-31.305 24.145C357.27 5.41 329.457.098 306.733 0z" style="fill:url(#a);stroke:none;stroke-width:4.47224" transform="scale(.42857)"></path><path d="M644.549 425.485c3.135 92.57-38.014 149.368-38.014 149.368l2.236 2.684c28.175-52.326 50.536-125.223 27.728-215.12 3.577 16.552 7.155 37.572 8.05 63.068" style="fill:url(#b);stroke:none;stroke-width:4.47224" transform="scale(.42857)"></path><path d="M577.353 529.07c.045-.263.08-.509.112-.728zm-18.671 60.093.451 1.794c10.456-20.488 16.668-52.012 18.22-61.887-1.198 7.352-7.021 32.468-18.671 60.093" style="fill:url(#c);stroke:none;stroke-width:4.47224" transform="scale(.42857)"></path><path d="M122.19 198.738C28.717 279.685 7.255 404.009 26.038 478.7v.447l5.367-1.341C5.465 352.583 61.368 263.138 106.091 215.732c46.064-48.747 135.509-97.048 221.376-93.47 143.111 5.367 172.177 74.682 173.075 87.656 1.342-15.205-36.225-84.972-171.734-88.55a286 286 0 0 0-7.307-.094c-81.82-.004-151.529 36.203-199.31 77.464" style="fill:url(#d);stroke:none;stroke-width:4.47224" transform="scale(.42857)"></path><path d="M500.99 211.26s40.697 4.025 59.48 35.33c5.372 8.945 9.392 17.442 11.186 26.387-.452-4.92-1.794-9.392-3.583-13.417-12.97-29.517-33.989-44.275-67.083-49.195z" style="fill:url(#e);stroke:none;stroke-width:4.47224" transform="scale(.42857)"></path><path d="m92.678 107.951 3.13 3.13C153.945 80.667 210.742 77.54 211.637 77.54c-.528-.005-1.06-.005-1.584-.005-59.087-.004-100.531 24.651-117.374 30.416" style="fill:url(#f);stroke:none;stroke-width:4.47224" transform="scale(.42857)"></path><path d="M264.408 10.009c28.622 0 54.114 17.889 59.928 21.91.894 0 1.346.451 2.236.451-19.678-15.206-46.511-25.939-64.4-25.939z" style="fill:url(#g);stroke:none;stroke-width:4.47224" transform="scale(.42857)"></path><path d="M475.498 56.073h7.607c41.136-10.733 67.084 3.578 67.084 3.578l1.784-4.472c-9.834-2.523-22.8-5.188-37.924-5.188-11.704 0-24.7 1.596-38.551 6.082" style="fill:url(#h);stroke:none;stroke-width:4.47224" transform="scale(.42857)"></path><path d="M585.068 146.86c50.093 21.914 81.4 55.455 85.871 63.505l4.02-2.236c-23.702-26.386-54.565-49.194-105.544-70.661 4.92 2.683 10.286 5.814 15.653 9.392" style="fill:url(#i);stroke:none;stroke-width:4.47224" transform="scale(.42857)"></path><path d="M402.153 459.912c1.789.452 3.578.899 5.367 1.35 1.793.443 3.578.89 5.366 1.78.832.21 1.669.52 2.5.922a29.6 29.6 0 0 0-4.288-1.811c-1.785-.89-3.578-1.342-5.367-1.79-1.789-.45-3.578-.894-5.367-1.34q-2.683-.671-4.025-1.343c.895.895 2.679 1.342 5.814 2.232m16.002 5.747a16.8 16.8 0 0 0-2.769-1.695c1.038.537 1.986 1.114 2.769 1.695m.103.076c-.036-.027-.067-.054-.103-.076z" style="fill:url(#j);stroke:none;stroke-width:4.47224" transform="scale(.42857)"></path><path d="M385.606 442.475c-4.02 3.135-6.261 7.155-5.814 12.075 0 3.578.894 6.713 3.13 9.392.448 1.793 1.342 2.236 2.237 3.13-.443-.452-.895-.894-1.342-1.789q-2.683-4.025-2.683-9.391c0-4.924 2.231-9.397 6.26-12.523 4.026-3.13 9.392-4.92 16.096-4.92 3.135 0 6.266.448 9.396.895 1.342.443 2.684.895 4.025.895-1.788-.895-4.025-1.342-6.256-1.79-3.135-.446-6.266-.894-9.396-.894-6.262 0-11.628 1.79-15.653 4.92" style="fill:url(#k);stroke:none;stroke-width:4.47224" transform="scale(.42857)"></path><path d="M380.686 490.332v.886l8.502-8.493-.452-1.337z" style="fill:url(#l);stroke:none;stroke-width:4.47224" transform="scale(.42857)"></path><path d="M409.313 478.7c0 1.337-.452 2.236-.899 3.13-.451.895-1.341 1.338-2.231 1.79-.9.447-1.794.447-3.135.89-1.338.451-2.237.451-3.131.451-6.708 0-10.286-2.683-11.18-2.683l.451 1.341c.443.448 1.337.448 1.784.89 3.131 1.351 6.262 1.794 9.392 1.794.895 0 1.79 0 3.126-.443 1.35 0 2.24-.452 3.135-.899.895-.452 1.79-.894 2.236-1.793.452-.89.895-1.78.895-3.13 0-1.785-.443-2.68-1.342-3.574.447.447.447 1.342.9 2.236" style="fill:url(#m);stroke:none;stroke-width:4.47224" transform="scale(.42857)"></path><path d="m432.117 492.117 1.342 1.789 17.889-54.562-1.342-.894z" style="fill:url(#n);stroke:none;stroke-width:4.47224" transform="scale(.42857)"></path><path d="m453.584 471.992-.447.894h11.18l-1.337-.894z" style="fill:url(#o);stroke:none;stroke-width:4.47224" transform="scale(.42857)"></path><path d="m466.106 482.278 3.13 10.286 1.342.447-3.577-10.733z" style="fill:url(#p);stroke:none;stroke-width:4.47224" transform="scale(.42857)"></path><path d="m450.006 438.45 1.342.894h14.758l-1.342-.894z" style="fill:url(#q);stroke:none;stroke-width:4.47224" transform="scale(.42857)"></path><path d="m458.056 456.786 4.924 15.206 1.337.894-5.81-17.889z" style="fill:url(#r);stroke:none;stroke-width:4.47224" transform="scale(.42857)"></path><path d="M510.381 458.128v.447h20.573l-1.342-.447z" style="fill:url(#s);stroke:none;stroke-width:4.47224" transform="scale(.42857)" data-source="https://football-logos.cc"></path><path d="m505.015 437.108 1.341.895h26.387l-1.338-.895z" style="fill:url(#t);stroke:none;stroke-width:4.47224" transform="scale(.42857)"></path><path d="m495.623 491.218 1.342.451v-43.827l-1.342-1.347z" style="fill:url(#u);stroke:none;stroke-width:4.47224" transform="scale(.42857)"></path><path d="m495.623 446.495 1.342 1.347 9.391-9.84-1.341-.894z" style="fill:url(#v);stroke:none;stroke-width:4.47224" transform="scale(.42857)"></path><path d="M560.47 455.892v.894l18.788-.894-2.24-.452z" style="fill:url(#w);stroke:none;stroke-width:4.47224" transform="scale(.42857)"></path><path d="m544.818 489.433 2.24.448V445.61l-2.24-.452z" style="fill:url(#x);stroke:none;stroke-width:4.47224" transform="scale(.42857)"></path><path d="m554.21 435.766 2.235.448 24.598-.448-2.236-.451z" style="fill:url(#y);stroke:none;stroke-width:4.47224" transform="scale(.42857)"></path><path d="m544.818 445.158 2.24.452 9.387-9.396-2.236-.448z" style="fill:url(#z);stroke:none;stroke-width:4.47224" transform="scale(.42857)"></path><path d="m544.818 445.158 2.24.452 9.387-9.396-2.236-.448z" style="fill:url(#A);stroke:none;stroke-width:4.47224" transform="scale(.42857)"></path><path d="m451.348 439.344-17.89 54.562h5.81l11.185-11.628h16.995l3.582 10.286 13.86-.447-18.784-52.773zm7.16 15.653 5.362 17.89h-10.733z" style="fill:url(#B);stroke:none;stroke-width:4.47224" transform="scale(.42857)"></path><path d="M387.395 443.37c-4.025 3.125-6.257 7.155-6.257 12.522 0 3.577.89 7.15 2.679 9.391 1.793 2.684 4.92 4.472 8.944 5.81 1.794.451 3.578 1.346 5.814 1.793s4.03.895 5.814 1.342c1.342.447 2.684.894 3.574 1.789.898.894 1.793 1.789 1.793 3.13 0 1.342-.443 2.24-.895 3.13-.447.89-1.341 1.342-2.236 1.79-.894.442-1.784.442-3.135.894-1.337 0-2.231.447-3.126.447-3.13 0-6.261-.447-9.392-1.789-.447-.451-1.341-.451-1.784-.894l-8.054 8.493c2.683 1.346 5.366 2.24 8.497 3.135q4.695 1.339 10.733 1.337c7.156 0 13.421-1.784 17.442-4.915 4.03-3.135 6.261-7.607 6.261-12.97 0-3.577-.894-6.712-2.683-8.944-1.79-2.683-4.92-4.92-8.945-6.261-1.784-.895-3.578-1.337-5.366-1.789-1.79-.447-3.583-.899-5.363-1.342-2.692-.447-4.476-1.341-5.818-2.236-.895-.894-1.342-1.793-1.342-3.13 0-.895.447-1.79.895-2.684.447-.894 1.341-1.337 2.236-1.789.894-.447 1.789-.894 3.13-.894.9 0 1.794-.447 3.131-.447 3.13 0 5.814.447 8.944 1.793h.448l8.054-8.054c-2.688-1.342-5.371-1.79-8.502-2.684-3.13-.894-6.26-.894-9.391-.894-6.261 0-11.628 1.789-16.1 4.92" style="fill:url(#C);stroke:none;stroke-width:4.47224" transform="scale(.42857)"></path><path d="m506.356 438.003-9.391 9.839v43.827h13.416v-22.808h20.573v-10.286H510.38v-10.286h22.362v-10.286z" style="fill:url(#D);stroke:none;stroke-width:4.47224" transform="scale(.42857)"></path><path d="m556.445 436.214-9.387 9.396v44.27h13.412v-22.808l18.788-.894v-10.286l-18.788.894v-10.29l20.573-.886v-9.844z" style="fill:url(#E);stroke:none;stroke-width:4.47224" transform="scale(.42857)"></path><path d="M77.915 352.583c-.894 3.578-1.784 7.155-2.683 10.733 0 .443 0 .895-.447 1.342-.895 3.578-1.342 6.708-2.232 10.281 0 .452 0 .9-.451 1.347-.443 3.126-1.342 6.708-1.79 9.834v1.346c-.447 3.126-.894 6.709-1.341 9.84v.446c-1.337 10.734-2.236 20.568-2.236 30.412-1.342 93.917 46.511 151.161 55.008 162.342 26.838 34.88 61.27 59.928 97.495 76.028.895.452 1.794.895 2.684 1.337 2.683.895 4.92 2.241 7.602 3.135.895.452 2.237.895 3.136 1.338 2.683.899 4.915 1.793 7.598 2.687.899.448 1.789.895 2.683.895 3.578 1.342 7.156 2.236 10.29 3.582.448 0 .89 0 1.338.443 2.688.894 5.371 1.789 8.05 2.236 1.346.452 2.236.452 3.578.895 1.789.447 4.025.894 5.814 1.337 1.341.451 2.683.451 4.025.899 1.789.442 3.578.894 5.371 1.341 1.337.452 2.683.452 4.025.895 1.784.443 3.573.443 5.362.894 1.342 0 2.684.443 3.578.443 1.789.452 4.025.452 5.814.899.899 0 2.236.447 3.13.447 2.688.447 5.814.447 8.498.895h2.683c2.236 0 4.025.451 6.261.451h25.497c.442.443 1.784.443 2.683 0h-.004c1.789 0 3.578 0 5.367-.451h2.683c2.683 0 4.92-.448 7.607-.895.895 0 1.785-.447 3.13-.447 1.785 0 3.127-.447 4.473-.447.89 0 2.236-.452 3.126-.452 1.346 0 2.688-.443 4.025-.443 1.342 0 2.24-.451 3.135-.451 1.337-.443 2.679-.443 4.02-.886.895 0 2.237-.452 3.131-.452 1.342-.447 2.688-.447 4.03-.899.894-.442 2.231-.442 3.13-.89 1.342-.451 3.126-.894 4.473-.894 1.341-.447 2.678-.894 4.02-.894 1.342-.443 3.13-.895 4.472-1.342.9-.452 2.236-.452 3.13-.895.9-.447 2.237-.447 3.132-.894.898-.443 2.24-.443 3.13-.895.895-.447 2.24-.447 3.13-.894.895-.447 2.237-.894 3.131-.894.9-.452 1.79-.895 2.688-.895.89-.447 2.236-.894 3.126-1.342.895-.447 1.789-.894 2.688-.894.894-.447 2.232-.894 3.13-1.342.89-.451 1.342-.451 2.232-.894 2.24-.895 4.025-1.789 5.819-2.683.894-.452 1.341-.452 2.231-.895.9-.452 2.24-.894 3.135-1.337.447-.452 1.337-.452 1.785-.899.894-.452 1.793-.894 3.13-1.342.447-.451 1.342-.451 1.794-.894q1.336-.672 2.678-1.337c.448-.452.895-.452 1.794-.9.89-.451 1.784-.894 2.679-1.34 7.603-4.026 13.864-8.055 19.23-11.633-.894-.443-1.784-1.337-2.683-1.337-15.206 1.788-33.095 3.13-53.22 2.683-4.025 0-10.286 2.232-13.416 5.367-10.734 10.281-21.91 19.677-29.964 25.934-8.945.9-33.095 2.24-41.592 2.24 0 0 .447 0 .447-.447.894-.442 1.346-.894 2.236-1.341.452-.452.899-.452 1.342-.895.447 0 .447-.447.894-.447 9.392-6.261 24.15-16.994 32.2-25.939 1.346-1.342 2.688-2.683 3.578-4.025 3.578-4.472 5.367-11.176 2.24-19.226-2.24-6.266-9.395-22.366-11.18-26.838-1.793-4.472-8.054-8.497-19.235-9.392-59.034-4.472-89.44-18.788-110.465-25.939-4.92-1.793-12.97-1.341-16.994 1.794l-1.342.885-.447.452-20.568 16.095-2.24 1.794-1.785 1.342c-4.472 3.13-7.16 9.387-5.819 14.31 3.131 13.865 15.653 35.779 21.472 45.622-12.527-7.607-38.913-25.049-41.597-27.732-4.472-10.286-12.07-27.285-12.97-31.306-.894-3.578-5.366-9.392-8.944-11.18-10.733-4.925-19.23-9.84-30.406-16.105-3.131-4.02-16.105-27.724-20.577-40.25 16.1 12.974 38.908 25.496 42.933 27.285 8.498 3.578 16.548.447 21.467-3.13.899-.448 1.793-.9 2.236-1.342l21.914-16.548c4.472-3.135 7.156-11.18 6.261-16.547-6.26-33.99-12.07-76.923-8.492-111.81.442-5.363-3.578-14.755-8.498-17.885 0 0-37.571-26.838-39.355-27.28-1.347-.448-3.136-.448-4.92-.895-3.578-.447-7.603-.447-10.29 1.789-14.759 11.627-30.412 25.044-40.698 36.668 1.789-12.523 4.025-25.04 7.607-38.457 10.734-10.286 21.463-18.788 33.538-27.281 4.025-2.688 6.712-6.708 7.155-11.185.895-16.543 3.578-35.774 8.05-51.878 21.919-26.382 49.195-47.849 74.24-62.607-.443-.447-.895-1.342-.895-1.789-97.048 41.145-129.695 126.117-136.85 150.715" style="fill:url(#F);stroke:none;stroke-width:4.47224" transform="scale(.42857)"></path><path d="M240.71 188.899c34.879-8.945 70.657-8.945 105.545-1.79 10.728 6.262 20.12 13.865 29.065 21.467 1.789 1.342 4.472 2.684 6.708 3.131s5.367.894 7.16.447c19.673-4.92 40.25-7.603 60.818-8.05-19.226-10.286-39.351-17.889-60.818-22.813-8.054-1.784-16.105-3.126-24.597-4.472-.9 0-1.35 0-2.236-.443-2.688-.447-5.819-.894-8.502-.894a277 277 0 0 0-28.265-1.454c-32.656 0-62.566 5.805-84.878 14.87" style="fill:url(#G);stroke:none;stroke-width:4.47224" transform="scale(.42857)"></path><path d="M77.915 352.583c-38.908 138.635 32.648 224.06 43.828 238.375 35.331 46.06 83.636 74.235 131.936 88.993 107.781 32.643 194.985-7.607 230.312-31.753-15.201 1.789-36.221 3.578-57.683 3.135-4.03 0-10.291 2.232-13.422 5.358-10.733 10.738-21.914 20.125-29.964 26.39-9.387 1.338-36.672 2.68-43.38 2.237 4.92-2.68 31.753-20.573 42.938-33.1 3.577-4.472 5.357-11.18 2.236-19.226-2.236-6.256-9.396-22.808-11.18-27.28-1.794-4.473-8.055-8.945-19.236-9.84-59.034-4.914-89.445-19.23-110.464-25.938-4.92-1.794-12.97-1.342-16.995 1.784l-24.597 19.24c-4.472 3.126-7.156 9.387-5.814 14.302 4.03 18.34 24.154 49.646 24.597 50.094-8.05-4.021-43.828-27.733-46.511-30.412-4.472-10.286-12.075-27.728-12.97-31.753-.894-4.025-5.366-9.396-8.944-11.176-10.733-4.924-19.23-9.843-30.411-16.104-3.578-4.473-19.231-33.095-21.91-44.271 16.096 13.412 42.035 27.723 46.06 29.512 8.497 3.578 17.441 0 21.914-3.135l21.914-16.547c4.472-3.126 7.155-11.18 6.26-16.543-6.26-34.436-12.074-77.817-8.496-112.258.447-5.362-3.578-14.754-8.498-17.884 0 0-37.566-26.838-39.35-27.28-4.026-.895-9.844-1.342-12.975 1.34-16.1 12.523-32.647 27.277-42.929 39.804 1.337-13.412 4.468-27.28 7.598-41.145 10.734-10.286 21.467-19.235 33.542-27.28 4.025-2.684 6.709-6.709 7.156-11.181.894-16.547 3.582-35.778 8.054-52.325 21.91-26.834 50.085-48.748 75.577-63.953-98.39 40.25-131.037 125.222-138.193 149.82" style="fill:url(#H);stroke:none;stroke-width:4.47224" transform="scale(.42857)"></path><path d="M77.915 352.583c-8.944 31.3-12.075 59.928-11.18 85.867C88.206 506.428 154.39 543.1 154.39 543.1v4.02l18.788-3.577 16.543-12.518c4.919-3.578 7.602-11.628 6.712-16.994h-.004c-6.26-34.437-12.075-77.817-8.497-112.254.447-5.366-3.578-14.762-8.497-17.893 0 0-37.567-26.829-39.351-27.276-4.025-.895-9.844-1.342-12.974 1.337-16.1 12.522-32.648 27.29-42.93 39.807 1.338-13.416 4.468-27.285 7.599-41.144 10.733-10.286 21.466-19.23 33.541-27.281 4.025-2.688 6.709-6.708 7.156-11.185.894-16.543 3.582-35.774 8.054-52.32 21.91-26.834 50.085-48.753 75.577-63.954-98.39 41.145-131.037 126.117-138.193 150.715" style="fill:url(#I);stroke:none;stroke-width:4.47224" transform="scale(.42857)"></path><path d="M228.63 658.484c-.894.447-19.673 3.13-19.673 3.13 14.754 7.152 29.512 13.417 44.722 17.894 91.677 27.728 168.6 3.13 211.085-20.125-25.496 8.94-50.536 14.307-74.239 16.543-2.688 2.236-5.366 4.472-7.603 6.261-9.387 1.342-36.672 2.683-43.38 2.232 1.793-.89 5.366-3.13 9.839-6.257-62.165-.447-101.52-15.648-107.334-17.889-4.249-1.789-7.38-2.236-9.557-2.236-2.183 0-3.413.447-3.86.447" style="fill:url(#J);stroke:none;stroke-width:4.47224" transform="scale(.42857)"></path><path d="M240.71 188.451c.89.448.89.895 1.337.895 34.883-8.945 70.214-8.945 104.65-1.79 9.84 6.71 19.678 13.86 28.623 21.468 1.789 1.341 4.472 2.683 6.708 3.13s5.367.89 7.16.448c19.673-4.92 40.25-7.603 60.818-8.05v-.895c-19.226-10.286-39.351-17.893-60.818-22.808-8.054-1.79-16.105-3.131-24.597-4.473-.9 0-1.35 0-2.236-.447-2.688-.447-5.819-.894-8.502-.894a275 275 0 0 0-28.265-1.45c-32.656-.003-62.566 5.801-84.878 14.866" style="fill:url(#K);stroke:none;stroke-width:4.47224" transform="scale(.42857)" data-source="https://football-logos.cc"></path><!-- source: https://football-logos.cc --></svg>