<svg xmlns="http://www.w3.org/2000/svg" viewBox="0 0 79.37 72.35"><!-- Source: https://football-logos.cc --><defs data-source="https://football-logos.cc"><clipPath id="a" clipPathUnits="userSpaceOnUse"><path d="M-9.389-34.637h38V0h-38z"></path></clipPath><clipPath id="b" clipPathUnits="userSpaceOnUse"><path d="M-28.611 0h38v34.637h-38z"></path></clipPath><clipPath id="c" clipPathUnits="userSpaceOnUse"><path d="M0-8.559h38v34.637H0z"></path></clipPath><clipPath id="d" clipPathUnits="userSpaceOnUse"><path d="M-38-26.079H0V8.558h-38z"></path></clipPath><clipPath id="e" clipPathUnits="userSpaceOnUse"><path d="M-15.568-22.387h38V12.25h-38z"></path></clipPath><clipPath id="f" clipPathUnits="userSpaceOnUse"><path d="M-19.934-12.591h38v34.637h-38z"></path></clipPath><clipPath id="g" clipPathUnits="userSpaceOnUse"><path d="M-22.9-10.856h38V23.78h-38z"></path></clipPath></defs><path d="M0 0c11.578-1.074 20.742-5.669 20.742-5.669l-.166-1.655h-21.93Z" clip-path="url(#a)" style="fill:#fec463;fill-opacity:1;fill-rule:nonzero;stroke:none" transform="matrix(2.08882 0 0 -2.08882 19.612 0)"></path><path d="M0 0c-11.578 1.073-20.742 5.669-20.742 5.669l.166 1.655h21.93z" clip-path="url(#b)" style="fill:#fec463;fill-opacity:1;fill-rule:nonzero;stroke:none" transform="matrix(2.08882 0 0 -2.08882 59.763 72.35)"></path><path d="M0 0c1.178 10.554 6.219 18.908 6.219 18.908l1.816-.152v-19.99Z" clip-path="url(#c)" style="fill:#fec463;fill-opacity:1;fill-rule:nonzero;stroke:none" transform="matrix(2.08882 0 0 -2.08882 0 54.473)"></path><path d="M0 0c-1.178-10.554-6.219-18.908-6.219-18.908l-1.816.152v19.99z" clip-path="url(#d)" style="fill:#fec463;fill-opacity:1;fill-rule:nonzero;stroke:none" transform="matrix(2.08882 0 0 -2.08882 79.375 17.877)" data-source="https://football-logos.cc"></path><path d="M0 0h-2.575v-4.439h2.314v-1.394h-2.314v-5.698h-1.791V1.395H0Z" clip-path="url(#e)" style="fill:#fec463;fill-opacity:1;fill-rule:nonzero;stroke:none" transform="matrix(2.08882 0 0 -2.08882 32.52 25.589)"></path><path d="M0 0v9.456l-.373.34h-1.362V-.34h1.362zm1.791 10.17V-.714L.672-1.735h-4.198V11.19H.672z" clip-path="url(#f)" style="fill:#fec463;fill-opacity:1;fill-rule:nonzero;stroke:none" transform="matrix(2.08882 0 0 -2.08882 41.638 46.05)"></path><path d="M0 0v12.925h1.791V1.395h2.37V0Z" clip-path="url(#g)" style="fill:#fec463;fill-opacity:1;fill-rule:nonzero;stroke:none" transform="matrix(2.08882 0 0 -2.08882 47.834 49.674)" data-source="https://football-logos.cc"></path><!-- source: https://football-logos.cc --></svg>