<svg xmlns="http://www.w3.org/2000/svg" xmlns:xlink="http://www.w3.org/1999/xlink" viewBox="0 0 233.25 265"><!-- Source: https://football-logos.cc --><defs data-source="https://football-logos.cc"><filter id="d" width="1.117" height="1.849" x="-.059" y="-.425" style="color-interpolation-filters:sRGB"><feGaussianBlur stdDeviation=".294"></feGaussianBlur></filter><filter id="e" width="1.136" height="1.519" x="-.068" y="-.26" style="color-interpolation-filters:sRGB"><feGaussianBlur stdDeviation=".159"></feGaussianBlur></filter><filter id="f" width="1.137" height="1.166" x="-.069" y="-.083" style="color-interpolation-filters:sRGB"><feGaussianBlur stdDeviation=".218"></feGaussianBlur></filter><linearGradient id="a"><stop offset="0" style="stop-color:#000;stop-opacity:1"></stop><stop offset="1" style="stop-color:#000;stop-opacity:0"></stop></linearGradient><linearGradient xlink:href="#a" id="b" x1="118.246" x2="119.633" y1="78.611" y2="82.903" gradientUnits="userSpaceOnUse"></linearGradient><mask id="c"><path d="M304 156.5c0 82.29-66.71 149-149 149S6 238.79 6 156.5s66.71-149 149-149 149 66.71 149 149" style="opacity:1;fill:#fff;fill-opacity:1;fill-rule:evenodd;stroke:none;stroke-width:1.50505;stroke-linecap:round;stroke-linejoin:round;stroke-miterlimit:4;stroke-dasharray:none;stroke-dashoffset:0;stroke-opacity:1" transform="matrix(.99664 0 0 .99664 2.02 .525)"></path></mask></defs><g transform="translate(-14.293 -2.5)" data-source="https://football-logos.cc"><path d="M203.364 5 245 65c2 110-67 183-115 200C85 248.239 15 175 16.829 65L58.465 5Z" style="fill:#fff;stroke:#ff7f2a;stroke-width:5;stroke-dasharray:none"></path><path d="M122.253 100.652c-.107 2.893-1.597 8.946-4.469 13.221L96 143c-1.309-.167-2.194-2.368-1.981-4.248 1.56-13.805 21.251-26.133 9.62-40.49l-10.477-1.216-13.76-2.502L80 80l7.96-3.627c1.536-1.834 3.301-2.933 5.266-3.491l-2.5 5.861c-1.285 2.112-1.456 4.043-1.229 6.603.146 1.97 2.004 6.9 2.414 6.894 2.809-1.097 5.486-.68 9.02-.33 3.158.415 5.091-1.492 7.637-2.238 2.721.022 14.2 4.455 14.484 7.967z" style="fill:#bebebe;fill-opacity:1;stroke:none;stroke-width:.25;stroke-linecap:butt;stroke-linejoin:miter;stroke-dasharray:none;stroke-opacity:1"></path><path d="M116.666 110c-3.327 5.313-9.223 9.926-12.88 15.019-3.762 5.239-5.453 9.566-7.786 17.981-1.309-.167-2.194-2.368-1.981-4.248.748-6.62 5.665-12.9 9.298-19.227 2.17-2.359 5.278-5.642 6.683-7.994s1.106-3.773 2.132-6.487c0 0 4.51 1.536 4.534 4.956" style="fill:#8f8f8f;fill-opacity:1;stroke:none;stroke-width:.25;stroke-linecap:butt;stroke-linejoin:miter;stroke-dasharray:none;stroke-opacity:1"></path><path d="M83.709 87.91a.5.5 0 0 0-.28.881l4.098 3.445a.5.5 0 0 0 .645-.765c-.606-.699-.952-1.529-1.817-2.096-1.612-1.056-2.514-1.476-2.646-1.465" style="fill:#333;stroke-linecap:round"></path><path d="M96 143c7.069-3.348 5.606-17.682 32.907-17.559C150.143 125.537 171 140 171 168c0 26-22 41-41 41.404-19.005.404-41-9.404-60-33.404 16 36 30.28 58.441 60.903 81.529 41.587-22.553 62.391-55.926 62.445-84.18.07-36.653-29.05-60.555-57.603-60.977-5.404-.08-18.35 2.358-20.01 3.55C111.52 118.95 101.183 133.415 96 143" style="fill:#000;stroke:none;stroke-width:.25;stroke-dasharray:none"></path><path d="M80 80c-20 8.375-19.834 26.185-8.815 36.843-1.558-10.697.983-15.37 7.343-16.63 1.377-.273 2.886-2.012 5.778-2.502 1.742-.296 5.804-.251 8.76-.31 12.316.599 17.883 3.113 16.934 14.13 1.695-4.198 4.312-7.736 6.666-1.531.615-2.694 1.331-5.393 1.844-8.082.624-3.28-4.125-5.51-6.848-5.399-5.438.221-9.47-.05-19.438-.154C86.396 96.305 77.018 88.775 80 80" style="fill:#000;stroke:none;stroke-width:1px;stroke-linecap:butt;stroke-linejoin:miter;stroke-opacity:1"></path><path d="M77.389 85.034c-6.392 1.03-9.674 3.732-10.45 4.951-5.38 8.451-3.63 19.069 4.246 26.687-1.48-8.288-2.33-16.921 1.503-19.73.717-6.79 2.623-9.038 4.701-11.908" style="fill:#575757;fill-opacity:1;stroke:none;stroke-width:1px;stroke-linecap:butt;stroke-linejoin:miter;stroke-opacity:1"></path><g fill="#fff" style="fill:#a00"><path d="m.003-74.994-16.85 51.823-54.484-.003L-27.24 8.86l-16.85 51.823L-.015 28.648l44.09 32.033-16.84-51.84 44.084-32.014-54.468.004z" style="fill:#a00" transform="matrix(.1062 -.0346 .0346 .1062 204.216 149.052)"></path></g><g fill="#fff" style="fill:#a00"><path d="m.003-74.994-16.85 51.823-54.484-.003L-27.24 8.86l-16.85 51.823L-.015 28.648l44.09 32.033-16.84-51.84 44.084-32.014-54.468.004z" style="fill:#a00" transform="scale(.10052)rotate(38.766 -819.194 3244.324)"></path></g><g fill="#fff" style="fill:#a00"><path d="m.003-74.994-16.85 51.823-54.484-.003L-27.24 8.86l-16.85 51.823L-.015 28.648l44.09 32.033-16.84-51.84 44.084-32.014-54.468.004z" style="fill:#a00" transform="rotate(10.046 -549.982 982.28)scale(.07237)"></path></g><path d="M122.916 231.41q0 4.582-6.586 4.582-2.239 0-4.16-.539l.574-2.613q1.898.656 3.586.656 1.875 0 2.695-.363t.82-1.219q0-.89-.773-1.5-.668-.539-2.707-1.406-1.852-.797-2.754-1.734-1.137-1.184-1.137-2.918 0-2.016 1.489-3.153 1.5-1.136 4.3-1.136 2.297 0 3.856.386l-.434 2.602q-1.582-.574-3.422-.574-2.765 0-2.765 1.476 0 .785.644 1.278.563.422 2.45 1.183 2.003.809 3 1.781 1.324 1.301 1.324 3.211m12.293-11.097-.106 2.566q-3.656-.187-6.62-.187.151 2.004.151 4.441 2.262 0 5.133-.117v2.426q-2.906-.106-5.133-.106 0 3.317.106 6.235h-3.234q.152-3.54.152-7.98 0-4.267-.152-7.278zm14.894 15.258h-3.75q0-.774-1.066-4.383h-5.414q-1.102 3.55-1.102 4.383h-3.527q0-.457 2.73-7.5 2.742-7.043 2.742-7.758h4.43q0 .668 2.473 7.652 2.484 6.973 2.484 7.606m-5.414-6.622q-2.004-6.046-2.004-6.539h-.187q0 .457-2.074 6.54z" style="font-weight:700;font-size:24px;line-height:1.25;font-family:Candara;-inkscape-font-specification:&quot;Candara, Bold&quot;;fill:#fff"></path><ellipse cx="118.345" cy="77.295" rx="5.659" ry="5.692" style="fill:#bdbdbd;fill-opacity:1;stroke:none;stroke-width:.439967;stroke-linecap:round;stroke-linejoin:round"></ellipse><ellipse cx="105.02" cy="93.382" rx="2" ry="2.5" style="fill:#000;stroke-width:.5;stroke-linecap:round;stroke-linejoin:round" transform="rotate(-8.649)"></ellipse><ellipse cx="118.345" cy="77.295" rx="5.659" ry="5.692" style="fill:none;fill-opacity:1;stroke:url(#b);stroke-width:.439967;stroke-linecap:round;stroke-linejoin:round"></ellipse><path d="M220.315 112.896c-17.829-19.338-41.138-34.08-69.874-29.15 8.252 1.076 15.319 3.534 17.974 4.741-12.926-3.73-32.37-.878-39.503 2.107 9.876-1.822 17.447-1.405 20.147-.132-9.766-.592-22.753.816-25.045 5.646 6.327-1.705 9.844-2.289 14.51-1.959-7.44.746-10.468 2.348-16.196 6.387-3.967-8.09-11.937-7.194-21.397-8.625 1.097-2.744 5.398-6.73 7.483-7.235 2.59.088 1.034 1.456 5.926 1.433 21.625.035 8.647-14.63 35.706-15.398-7.944-3.49-23.658-3.424-30.483 3.884-.505 1.536-6.54 2.085-10.008 4.28-.522.173-1.24.307-2.234.421-.116-.666-.177-1.539-1.19-1.738-1.865 1.624-3.993 2.195-5.99 3.292-.44-3.05-.154-5.838 2.83-8.757.242-.68 1.273-3.533.132-2.436-3.182 1.91-6.167 5.662-8.954 8.098 1.207-2.216 3.073-4.63 3.621-6.65-3.182 2.217-5.706 4.96-7.044 7.638l1.448-4.938c-.648-.086-4.214 2.568-4.214 2.568 12.03-15.1 33.882-24.01 50.474-24.073 7.731.107 14.92.325 22.367 2.728 37.162 11.99 56.465 28.179 64.025 47.13z" style="fill:#000;stroke:none;stroke-width:.25;stroke-linecap:butt;stroke-linejoin:miter;stroke-dasharray:none;stroke-opacity:1"></path><g style="display:inline"><path d="M2.745 1.213a.711.711 0 1 1-1.423 0 .711.711 0 0 1 1.423 0" style="fill:#fff;fill-opacity:1;fill-rule:evenodd;stroke:#000;stroke-width:.0197685;stroke-linecap:round;stroke-linejoin:round;stroke-miterlimit:4;stroke-dasharray:none;stroke-dashoffset:0;stroke-opacity:1" transform="scale(-40.46842)rotate(24.133 12.004 -13.694)"></path><g mask="url(#c)" transform="rotate(-155.867 94.488 88.927)scale(.19384)"><path d="M592.817 448.412c-6.755-10.52-13.273-15.38-26.136-18.614" style="font-size:12px;fill:none;fill-rule:evenodd;stroke:#000;stroke-width:2.30567;stroke-miterlimit:4;stroke-dasharray:none;stroke-dashoffset:0" transform="matrix(.65057 0 0 .65057 -87.309 -182.405)"></path><path d="m50 45.375 13.5 13.75" style="font-size:12px;fill:none;fill-opacity:.75;fill-rule:evenodd;stroke:#000;stroke-width:1.5;stroke-linecap:butt;stroke-linejoin:miter;stroke-miterlimit:4;stroke-dasharray:none;stroke-opacity:1"></path><path d="M48 92c-30.657 21.956-38.125 66.506-37 66.25M87 95.25c-3.161 23.337 5.251 48.914 22.75 76.25M29.125 206.875c14.427 14.424 33.602 12.21 51.625 12.625M124.628 264.859c-3.123 8.251-2.316 19.684-.53 31.908" style="font-size:12px;fill:none;fill-opacity:.75;fill-rule:evenodd;stroke:#4d4d4d;stroke-width:4.12711;stroke-linecap:butt;stroke-linejoin:miter;stroke-miterlimit:4;stroke-dasharray:none;stroke-opacity:1"></path><path d="M103.06 28.42c11.478-11.491 36.096-18.908 68.237-22.274" style="font-size:12px;fill:none;fill-opacity:.75;fill-rule:evenodd;stroke:#000;stroke-width:1.5;stroke-linecap:butt;stroke-linejoin:miter;stroke-miterlimit:4;stroke-dasharray:none;stroke-opacity:1"></path><path d="M237.323 50.075c-7.987-14.876-22.058-26.565-36.948-37.825M127.986 54.052c17.643 1.988 49.487 4.602 74.777 18.916" style="font-size:12px;fill:none;fill-opacity:.75;fill-rule:evenodd;stroke:#4d4d4d;stroke-width:4.12711;stroke-linecap:butt;stroke-linejoin:miter;stroke-miterlimit:4;stroke-dasharray:none;stroke-opacity:1"></path><path d="M222.5 124c-15.122 20.853-33.378 40.314-54.5 58.5M177.5 238.25c19.358 10.8 40.56 15.445 66.25 11.25M268.5 136.5c9.881 18.552 11.331 44.887 12.75 71.25M277.75 96.75c8.14.274 16.027 4.574 23.5 15.5" style="fill:none;fill-opacity:.75;fill-rule:evenodd;stroke:#4d4d4d;stroke-width:4.12711;stroke-linecap:butt;stroke-linejoin:miter;stroke-miterlimit:4;stroke-dasharray:none;stroke-opacity:1"></path><path d="M40.25 98c20.654 3.619 29.153 2.16 46.25 3.75 10.107-13.262 27.262-30.048 45.25-47.25-7.424-11.585-14.43-23.441-23.25-30.75-22.39 7.59-38.335 16.939-53.5 26.5C45.482 66.824 40.435 82.76 40.25 98M198 70.75c6.793 18.669 12.635 35.436 21.25 57.75 17.726 4.68 36.626 10.3 51.25 12.5 4.7-9.437 7.81-27.624 11.25-44-11.68-18.118-28.341-33.746-45.25-49.25-12.436 4.485-25.404 13.229-38.5 23M106.75 167c22.795 3.75 44.787 7.5 66.25 11.25 6.636 20.833 7.494 41.667 9.75 62.5-16.41 13.636-39.039 17.942-59 26.25-23.226-15.013-32.683-31.748-46-48 7.647-17.586 16.082-35.073 29-52M1.06 148.805c.033 1.048 8.047 2.226 10.96 1.06 3.347 21.418 7.73 42.146 19.446 57.983-2.294 11.223-.134 20.22 3.182 28.638-20.318 5.695-18.552 8.774-26.516 12.374M75.66 284.393c19.311 5.112 33.379 15.036 48.26 9.899 4.377 6.2 16.487 10.684 48.084 12.02l-85.914 7.602M299.625 212.625c-5.637-4.154-11.47-8.114-18.75-10.625-14.5 19.317-29 41.308-43.5 48.25-.267 11.91-2.123 22.547-7.375 30.469 10.951.738 22.389.698 35-1.219" style="fill:#000;fill-opacity:1;fill-rule:evenodd;stroke:none;stroke-width:1px;stroke-linecap:butt;stroke-linejoin:miter;stroke-opacity:1"></path></g></g><path d="M219.768 161.23c-1.955-.076-4.712.616-4.518.412.193-.203 1.013-1.577 3.077-1.617s7.879.156 8.822 1.158c.685.728-1.526.025-3.032.168" style="mix-blend-mode:normal;fill:#fff;stroke-width:.25;stroke-linecap:round;stroke-linejoin:round;filter:url(#d)" transform="translate(-83.426 -8.007)"></path><path d="m217.388 193.878 3.213-1.466 2.374 1.187z" style="fill:#fff;stroke:none;stroke-width:1px;stroke-linecap:butt;stroke-linejoin:miter;stroke-opacity:1;filter:url(#e)" transform="translate(-83.426 -8.007)"></path><path d="M191.236 170.932a.25.25 0 0 0-.168.09.25.25 0 0 0 .036.353l7.142 5.826a.25.25 0 0 0 .352-.035.25.25 0 0 0-.035-.353l-7.143-5.827a.25.25 0 0 0-.184-.054" style="fill:#fff;stroke-linecap:round;filter:url(#f)" transform="translate(-83.426 -8.007)"></path><path d="M105.934 75.484c14.946-11.039 26.533-13.354 46.35-11.357-6.78-2.239-12.97-3.819-21.331-2.37.154-.659.439-2.239 1.448-2.634 6.562-1.975 10.952-2.04 18.699-1.317-4.06-2.436-13.914-3.16-19.489-2.962-4.763.169-16.933 5.08-25.94 12.048l8.69-3.884c-1.009 1.448-4.191 3.555-7.57 6.518 3.094-1.043 4.674-1.592 6.517-1.844-2.94 2.71-5.223 4.762-7.374 7.802" style="fill:#585858;fill-opacity:1;stroke:none;stroke-width:.25;stroke-linecap:butt;stroke-linejoin:miter;stroke-dasharray:none;stroke-opacity:1"></path><path d="M138.434 52.3C198.3 51.235 231 94 234 109c-2 12-7 33-13 47-11-38-41-67-103-42 28-26 68-24 99-5-11-19-41.514-36.488-56.397-39.233C182.602 70.385 189 74 202 80c-7-10-37-27-63.566-27.7" style="fill:#35ad6b;fill-opacity:1;stroke:none;stroke-width:1;stroke-dasharray:none"></path><path d="M348.035 51.603c11.48-7.728 23.474-10.925 40.161-11.12 44.023-.515 65.426 26.295 98.495 75.856 3.555-14.373 5.399-44.004 5.399-44.004l-38.994-58.33-136.137-.132-39.635 57.985c.746 77.18 38.433 154.95 107.388 188.576-88.62-53.219-88.953-183.543-88.953-183.543l29.627-43.028h39.899z" style="opacity:1;fill:#222220;fill-opacity:1;stroke:none;stroke-width:1.00268" transform="translate(-253.809 -2.906)"></path><path d="M348.035 51.603c11.48-7.728 23.474-10.925 40.161-11.12 44.023-.515 65.426 26.295 98.495 75.856-16.29-29.81-33.495-80.62-82.843-81.528-21.366-.393-36.682 4.347-55.813 16.792" style="fill:#000;stroke:none;stroke-width:.2;stroke-dasharray:none" transform="translate(-253.809 -2.906)"></path><path d="m368.038 27.797-44.1-.098-33.841 45.87c.878 69.938 25.66 153.24 94.615 186.865-88.75-53.087-88.953-183.543-88.953-183.543l29.627-43.028 37.397.132" style="fill:#000;stroke:none;stroke-width:.2;stroke-dasharray:none" transform="translate(-253.809 -2.906)"></path><path d="M138.524 9.217c-12.114 6.54-27.915 22.034-45.56 40.82" style="fill:none;stroke:#fff;stroke-width:3.5;stroke-dasharray:none"></path></g><!-- source: https://football-logos.cc --></svg>