<svg xmlns:inkscape="http://www.inkscape.org/namespaces/inkscape" xmlns:sodipodi="http://sodipodi.sourceforge.net/DTD/sodipodi-0.dtd" xmlns="http://www.w3.org/2000/svg" xmlns:svg="http://www.w3.org/2000/svg" xml:space="preserve" version="1.1" id="svg25" sodipodi:docname="cameroonian-football-federation.svg" inkscape:version="1.4.2 (ebf0e940, 2025-05-08)" viewBox="0 0 553.23 619.62"><!-- Source: https://football-logos.cc --><defs id="defs25" data-source="https://football-logos.cc"></defs><sodipodi:namedview id="namedview25" pagecolor="#ffffff" bordercolor="#000000" borderopacity="0.25" inkscape:showpageshadow="2" inkscape:pageopacity="0.0" inkscape:pagecheckerboard="0" inkscape:deskcolor="#d1d1d1" showgrid="false" inkscape:zoom="0.71596859" inkscape:cx="270.96161" inkscape:cy="307.97441" inkscape:window-width="1440" inkscape:window-height="766" inkscape:window-x="0" inkscape:window-y="25" inkscape:window-maximized="1" inkscape:current-layer="svg25"></sodipodi:namedview><path d="m 457.60229,523.22159 c 15.73828,-0.87065 26.19401,2.07728 37.4604,5.2532 11.63571,3.27992 24.19939,6.82249 44.82155,6.14651 l 13.345,-0.43732 -9.82643,9.05177 c -3.59191,3.31059 -6.71049,7.39582 -9.82642,11.47972 -6.05585,7.93833 -12.11303,15.8772 -22.29144,20.27135 2.19861,5.28734 5.07854,10.29188 8.48912,15.07456 4.46122,6.25971 9.84509,12.17783 15.80094,17.87875 l 9.03444,8.64672 -12.51435,-0.11053 c -21.22481,-0.18426 -34.9578,-4.63415 -47.44682,-8.68045 -13.98898,-4.53015 -26.30601,-8.52005 -46.4055,-4.45975 l -4.16257,0.93957 -2.16927,-6.70503 21.19947,-70.7905 0.98664,-3.36391 z m 34.77647,14.82096 c -9.57176,-2.6986 -18.51021,-5.21454 -30.74723,-5.02654 l -17.38224,59.30212 c 18.03022,-2.19888 30.02725,1.68635 43.43092,6.02691 9.13977,2.96139 18.98886,6.15251 32.0712,7.52741 -2.89727,-3.25098 -5.60253,-6.59663 -8.0678,-10.05388 -4.94788,-6.94156 -8.92111,-14.31217 -11.54771,-22.27078 l -1.63463,-4.94841 5.03721,-1.39209 c 10.15308,-2.80353 16.14893,-10.66254 22.14344,-18.51967 1.06398,-1.39464 2.13062,-2.78793 3.22259,-4.1679 -15.71561,-0.61065 -26.45134,-3.63724 -36.52575,-6.47717" style="fill:#d2bc20;fill-opacity:1;fill-rule:nonzero;stroke:none;stroke-width:0.13333" id="path1"></path><path d="m 457.87429,528.18013 c 31.34055,-1.73462 41.3363,12.73835 82.16594,11.39971 -11.7277,10.80373 -17.52489,27.53585 -35.18045,32.41226 4.93987,14.95376 14.95296,27.73317 27.27398,39.52608 -45.0602,-0.39479 -55.73327,-20.94894 -94.86429,-13.04394 z" style="fill:#000000;fill-opacity:1;fill-rule:evenodd;stroke:none;stroke-width:0.13333" id="path2"></path><path d="m 91.596777,533.01601 c -12.235694,-0.188 -21.176804,2.32794 -30.747232,5.02654 -10.074414,2.83993 -20.80348,5.86652 -36.52002,6.47717 1.090639,1.37997 2.152613,2.77326 3.216586,4.1679 5.994784,7.85713 11.990634,15.71614 22.143713,18.51967 l 5.038541,1.39209 -1.634626,4.94841 c -2.629267,7.95861 -6.601168,15.32922 -11.549044,22.27078 -2.465272,3.45725 -5.167871,6.80396 -8.066465,10.05442 13.083673,-1.3745 22.92876,-4.56656 32.068531,-7.52795 13.403665,-4.34056 25.406032,-8.22579 43.432249,-6.02851 z m -33.431165,-4.54122 c 11.266385,-3.17592 21.722124,-6.12385 37.460397,-5.2532 l 3.506579,0.19466 0.985312,3.36391 21.59546,70.49251 -2.92526,7.02902 c -18.01422,-4.57495 -32.91518,-2.10621 -50.208081,3.49418 -12.489021,4.0463 -26.222011,8.49619 -47.446681,8.68045 l -12.5116869,0.11053 9.0309739,-8.64672 c 5.956118,-5.70199 11.339317,-11.61997 15.801605,-17.87875 3.410582,-4.78375 6.29451,-9.78722 8.493121,-15.07402 -10.179745,-4.39269 -16.24026,-12.33356 -22.296776,-20.27189 -3.114588,-4.0839 -6.232244,-8.16913 -9.825354,-11.47972 L 0,534.18398 13.344466,534.6213 c 20.620418,0.67598 33.185437,-2.86659 44.821146,-6.14651" style="fill:#d2bc20;fill-opacity:1;fill-rule:nonzero;stroke:none;stroke-width:0.13333" id="path3"></path><path d="m 95.352683,528.18013 c -31.339217,-1.73462 -41.334967,12.73835 -82.163413,11.39971 11.726774,10.80373 17.523695,27.53585 35.179254,32.41226 -4.939876,14.95376 -14.952959,27.73317 -27.274251,39.52608 45.060473,-0.39479 55.73354,-20.94894 94.864557,-13.04394 z" style="fill:#000000;fill-opacity:1;fill-rule:evenodd;stroke:none;stroke-width:0.13333" id="path4"></path><path d="m 97.667292,567.25622 16.942238,21.08707 5.64386,-14.32471 z m 14.304978,34.17474 -31.147224,-38.95742 1.835954,-0.46826 0.0027,-10e-4 c -0.887978,-1.20104 -1.229303,-2.79113 -0.781314,-4.33536 0.763981,-2.63034 3.514579,-4.1463 6.14518,-3.38232 l 39.990994,11.66291 c 0.22133,0.0531 0.43999,0.11866 0.65732,0.20413 2.55727,0.99784 3.81724,3.88057 2.81993,6.4357 l -10.91039,27.69358 v -5.3e-4 c -0.328,0.84117 -0.89198,1.60209 -1.67063,2.17914 -2.20128,1.63183 -5.31053,1.17077 -6.94249,-1.03011" style="fill:#d2bc20;fill-opacity:1;fill-rule:nonzero;stroke:none;stroke-width:0.13333" id="path5"></path><path d="m 85.558261,559.34708 30.400569,39.12716 10.90906,-27.69304 z" style="fill:#000000;fill-opacity:1;fill-rule:evenodd;stroke:none;stroke-width:0.13333" id="path6"></path><path d="m 472.21526,562.45061 -30.95923,38.98035 c -1.63195,2.20088 -4.74121,2.66194 -6.94249,1.03011 -0.77865,-0.57865 -1.3373,-1.33797 -1.66396,-2.18114 l -0.008,0.003 -10.91039,-27.69358 c -0.99731,-2.55513 0.26533,-5.43786 2.82126,-6.4357 0.20666,-0.0813 0.42133,-0.14426 0.63199,-0.19533 l 40.01633,-11.67171 c 2.62927,-0.76398 5.38253,0.75198 6.14385,3.38232 z m -33.59649,25.89268 15.16095,-20.39336 -20.80481,6.06865 z" style="fill:#d2bc20;fill-opacity:1;fill-rule:nonzero;stroke:none;stroke-width:0.13333" id="path7"></path><path d="m 466.58074,559.04922 -29.31127,39.42502 -10.9104,-27.69304 z" style="fill:#000000;fill-opacity:1;fill-rule:evenodd;stroke:none;stroke-width:0.13333" id="path8"></path><path d="M 276.61482,9.9570844 H 66.313409 L 68.26536,274.36381 v 0.04 c -1.039974,151.04155 62.82376,201.47763 109.57593,238.39804 6.21984,4.91187 12.15303,9.59842 17.28357,13.95698 l 21.89678,18.60087 -26.85666,-10.16108 -82.7926,-31.32455 -14.608966,51.79204 183.851406,53.62292 183.84873,-53.62292 -14.60763,-51.79204 -82.7926,31.32455 -26.88999,10.17441 21.93012,-18.6142 0.23732,-0.20133 c 5.06121,-4.29056 10.91173,-8.91311 17.04625,-13.75565 46.75216,-36.92041 110.6159,-87.35782 109.57592,-238.39804 v -0.04 L 486.91489,9.9570844 Z M 61.317534,0 H 496.90664 l -0.0387,4.9985417 -1.98929,269.4025983 c 1.00935,148.18829 -58.67582,202.63093 -106.1173,240.45399 l 58.65586,-22.19278 5.06254,-1.91462 1.47197,5.2212 17.4129,61.73806 1.3333,4.72548 -4.73589,1.38063 -189.96725,55.40742 -1.37996,0.40372 -1.3813,-0.40372 -189.967252,-55.40742 -4.735881,-1.38063 1.3333,-4.72548 17.412898,-61.73806 1.473295,-5.2212 5.06121,1.91462 58.66653,22.19678 C 117.03347,477.03474 57.3403,422.59743 58.349608,274.40381 L 56.360324,4.9985417 56.322992,0 Z" style="fill:#d2bc20;fill-opacity:1;fill-rule:nonzero;stroke:none;stroke-width:0.13333" id="path9"></path><path d="M 276.61482,4.9785422 H 61.317534 L 63.306817,274.38381 C 62.11618,447.36882 144.82345,490.54107 191.9156,530.55074 l -87.85513,-33.24051 -17.412903,61.73899 189.967253,55.40742 189.96592,-55.40742 -17.4129,-61.73899 -87.85514,33.24051 C 408.40486,490.54107 491.11079,447.36882 489.92015,274.38381 L 491.90944,4.9785422 Z" style="fill:#000000;fill-opacity:1;fill-rule:evenodd;stroke:none;stroke-width:0.13333" id="path10"></path><path d="M 276.61482,103.35742 H 88.419523 l -0.67465,168.72511 c 2.605268,189.92992 132.180697,243.70058 180.250157,263.64541 3.19192,1.32397 6.02919,2.5026 8.62245,3.64258 2.59327,-1.13998 5.42387,-2.31861 8.61579,-3.64258 48.06946,-19.94483 177.64489,-73.71549 180.24883,-263.64541 L 464.80878,103.35742 Z M 83.48098,93.400332 h 386.26634 l 4.93988,0.0027 0.0187,4.95721 0.69331,173.750318 v 0.0787 c -2.68926,196.50175 -136.65658,252.09503 -186.35401,272.71718 -4.23589,1.75729 -7.8638,3.26258 -10.3704,4.40655 l -2.05995,0.93998 -2.06128,-0.93998 c -2.50661,-1.14397 -6.13452,-2.64926 -10.37041,-4.40655 C 214.4857,524.28423 80.51972,468.69095 77.829121,272.1892 v -0.0787 l 0.693316,-173.750322 0.02,-4.95721 z" style="fill:#d2bc20;fill-opacity:1;fill-rule:nonzero;stroke:none;stroke-width:0.13333" id="path11"></path><path d="M 276.61482,98.378874 H 83.48098 L 82.78633,272.13053 c 2.871928,209.62009 157.71472,256.18426 193.82849,272.67185 36.11376,-16.48759 190.95656,-63.05176 193.82715,-272.67185 L 469.74732,98.378874 Z" style="fill:#ed1c24;fill-opacity:1;fill-rule:evenodd;stroke:none;stroke-width:0.13333" id="path12" data-source="https://football-logos.cc"></path><path d="M 216.93098,98.378874 V 522.7136 l -7.50648,-4.48122 C 180.40389,500.90748 147.9847,475.10679 122.55467,435.70111 97.179304,396.38076 78.805096,343.55941 77.829121,272.1892 v -0.0787 l 0.693316,-173.750322 0.02,-4.938544 H 216.93098 Z M 207.01522,505.08071 V 103.33875 H 88.419523 l -0.67465,168.74645 c 0.950643,69.2116 18.683537,120.30366 43.170917,158.24937 22.26611,34.50448 50.16675,58.18655 76.09943,74.74614" style="fill:#d2bc20;fill-opacity:1;fill-rule:nonzero;stroke:none;stroke-width:0.13333" id="path13"></path><path d="M 211.97243,98.378874 V 513.97515 C 154.99519,479.95867 84.712949,412.72168 82.78633,272.13053 L 83.48098,98.378874 Z" style="fill:#459d47;fill-opacity:1;fill-rule:evenodd;stroke:none;stroke-width:0.13333" id="path14"></path><path d="M 336.27733,513.97115 V 98.378874 l 10e-4,-4.95721 H 474.6872 l 0.0187,4.938544 0.69331,173.750322 v 0.0787 c -0.97597,71.36888 -19.35018,124.19022 -44.72555,163.50924 -25.43003,39.40435 -57.84922,65.20504 -86.86983,82.53127 l -7.52647,4.49322 z m 9.95575,-410.6324 v 401.72996 c 25.92735,-16.56092 53.81599,-40.239 76.0781,-74.7368 24.48872,-37.94305 42.22161,-89.03511 43.17092,-158.24538 l -0.67332,-168.74778 z" style="fill:#d2bc20;fill-opacity:1;fill-rule:nonzero;stroke:none;stroke-width:0.13333" id="path15"></path><path d="M 341.25587,513.97115 V 98.378874 h 128.49145 l 0.69465,173.751656 c -1.92662,140.58849 -72.20886,207.82414 -129.1861,241.84062" style="fill:#f8d712;fill-opacity:1;fill-rule:evenodd;stroke:none;stroke-width:0.13333" id="path16"></path><path d="m 313.1539,159.39468 -22.63943,16.40626 8.66512,26.65667 -22.64077,-16.45426 -22.68477,16.45426 8.66379,-26.65667 -22.59277,-16.40626 h 27.94997 l 8.66378,-26.642 8.61845,26.642 z" style="fill:#d2bc20;fill-opacity:1;fill-rule:evenodd;stroke:none;stroke-width:0.13333" id="path17"></path><path d="m 276.44682,183.34208 v -13.39033 l -16.59158,24.88738 z m 0,-13.52899 -30.39657,-8.52512 17.99155,13.205 z m 17.26757,25.24203 -6.44784,-19.42484 -10.81973,-5.67853 z m -17.26757,-25.24203 v -30.93523 l -6.26384,20.51682 z m 29.34993,-8.12647 h -20.73014 l -8.61979,8.08114 z" style="fill:#f0d539;fill-opacity:1;fill-rule:evenodd;stroke:none;stroke-width:0.13333" id="path18"></path><path d="m 276.74281,241.41796 c 54.8573,0 100.0495,44.78422 100.0495,100.0575 0,55.27195 -45.1962,99.64951 -100.0495,99.64951 -54.87329,0 -99.65484,-44.37756 -99.65484,-99.64951 0,-55.27328 44.78155,-100.0575 99.65484,-100.0575" style="fill:#ffffff;fill-opacity:1;fill-rule:evenodd;stroke:none;stroke-width:0.13333" id="path19"></path><path d="m 276.74281,239.942 h 0.005 v 0.005 c 27.8313,0.003 53.21333,11.36372 71.63154,29.72459 18.41954,18.37821 29.88192,43.75224 29.88459,71.79154 h 0.005 v 0.012 h -0.005 c -0.003,28.04997 -11.46638,53.33467 -29.88726,71.59821 -18.4222,18.25955 -43.79757,29.5206 -71.62887,29.52326 v 0.005 h -0.012 v -0.005 C 248.88984,442.5936 223.60914,431.33289 205.29226,413.07334 186.97805,394.8018 175.62234,369.5251 175.617,341.49247 h -0.005 v -0.0293 h 0.005 c 0,-28.03663 11.36105,-53.41333 29.67126,-71.79154 18.31821,-18.36087 43.60158,-29.72192 71.43821,-29.72459 v -0.005 z m 0.005,2.95726 v 0.004 h -0.0213 v -0.004 c -27.00999,0.004 -51.56004,11.02773 -69.33559,28.85928 -17.79289,17.83822 -28.82062,42.48427 -28.82328,69.70492 h 0.003 v 0.0293 h -0.003 c 0.003,27.20998 11.02639,51.75204 28.81261,69.47826 17.78489,17.74622 42.33494,28.67262 69.3556,28.67262 v -0.001 h 0.012 v 0.001 c 27.02066,-0.001 51.66404,-10.9264 69.54893,-28.66729 17.88622,-17.73155 29.01527,-42.27361 29.01527,-69.50093 h -10e-4 v -0.012 h 10e-4 c -10e-4,-27.22065 -11.12905,-51.86137 -29.00994,-69.69692 -17.89022,-17.83689 -42.5336,-28.86728 -69.55426,-28.86728" style="fill:#d2bc20;fill-opacity:1;fill-rule:nonzero;stroke:none;stroke-width:0.13333" id="path20"></path><path d="m 276.74281,241.41796 c 9.27577,0 18.55554,1.22264 27.42065,4.03857 l 1.61863,12.91034 c 14.5263,8.47446 28.23396,18.56221 40.33632,29.4526 l 13.32767,-2.4266 c 10.08375,15.33161 16.53292,33.08717 16.93958,52.45335 l -11.69304,6.04785 c -3.64391,16.13693 -8.88645,32.27519 -15.74761,47.20415 l 6.46117,11.69571 c -11.29572,14.52097 -27.03399,25.82469 -44.78288,32.26719 l -8.87844,-9.26643 c -16.94091,1.20663 -33.07518,1.20663 -49.61076,-0.41199 l -9.28377,9.67842 c -17.74622,-6.4425 -33.07917,-17.74622 -44.77755,-32.26719 l 6.05052,-11.29438 C 197.67279,376.16926 192.41692,360.031 189.18767,343.89407 l -12.0997,-6.05052 c 0.40666,-19.36351 6.86383,-37.11907 16.93958,-52.45069 l 12.91834,2.42661 c 12.50502,-10.89039 26.22335,-20.97814 40.74698,-29.05127 l 1.6173,-13.31167 c 8.87044,-2.81593 18.14621,-4.03857 27.43264,-4.03857 m -65.76502,49.22677 7.66514,29.85126 50.02675,16.13293 -1.2133,4.0439 -50.01608,-16.54492 -23.80474,19.76617 c 3.62524,15.32895 8.46379,30.25258 14.5303,44.77755 l 31.05923,1.61862 30.65656,-42.35627 3.22392,2.01595 -30.65656,42.7536 10.88639,28.24996 c 15.73961,1.20397 31.06456,1.20397 46.79883,0.39465 l 11.29572,-28.64461 -31.06323,-42.7536 3.22526,-2.01595 31.06722,42.35627 30.65923,-1.61862 c 6.05319,-14.52497 10.8944,-29.84459 14.53297,-44.77755 l -23.8034,-19.76617 -50.02942,16.54492 -1.21463,-4.0439 50.02808,-16.13293 7.65847,-29.85126 c -12.09836,-10.09174 -24.59805,-19.37018 -37.92171,-27.83797 l -25.81403,16.94491 v 52.44269 h -3.6319 v -52.44269 l -25.81269,-16.54758 c -13.72899,8.07046 -26.63534,17.3489 -38.33238,27.44064" style="fill:#231f20;fill-opacity:1;fill-rule:evenodd;stroke:none;stroke-width:0.13333" id="path21"></path><path d="m 276.74281,239.942 h 0.0253 v 0.005 c 4.72788,0.003 9.42509,0.308 14.06098,0.97065 0.74398,0.10666 1.50529,0.23199 2.26661,0.36132 3.87857,0.65198 7.72914,1.5693 11.52504,2.77993 l 0.90132,0.28133 0.12133,0.93731 1.52129,12.18503 c 1.79996,1.04797 3.61591,2.15461 5.4572,3.30791 1.99995,1.24397 4.00123,2.52794 5.97318,3.84524 9.93842,6.61584 19.35952,13.91165 27.98864,21.62213 l 12.60101,-2.29461 0.95731,-0.176 0.53866,0.82398 0.10666,0.164 c 1.42396,2.16394 2.77326,4.39322 4.04657,6.6665 1.2653,2.25861 2.4706,4.57855 3.58924,6.94916 5.69186,12.08636 9.1371,25.3367 9.43576,39.44301 l 0.0187,0.91864 -0.81865,0.42399 -11.08105,5.73853 c -0.48932,2.10128 -0.97998,4.16389 -1.48797,6.14651 -0.55998,2.25194 -1.17063,4.52655 -1.81995,6.79716 -3.21059,11.37039 -7.23982,22.57677 -12.07303,33.19917 l 6.10651,11.05173 0.45999,0.83864 -0.59198,0.77065 -0.007,0.007 v 0.007 a 92.26436,92.26436 0 0 1 -5.08387,5.99719 c -1.74129,1.89862 -3.60525,3.76657 -5.55986,5.57719 -9.92909,9.1931 -21.84479,16.45692 -34.7938,21.16747 l -0.90131,0.33199 -0.67732,-0.70931 -8.38112,-8.76378 c -8.2398,0.56665 -16.31693,0.86131 -24.38739,0.81331 -8.03447,-0.0533 -16.0116,-0.44132 -24.08073,-1.2053 l -8.78645,9.16643 -0.67198,0.70399 -0.90532,-0.34533 z m 0.0253,2.95726 v 0.004 h -0.0253 c -6.58516,0 -13.14767,0.61999 -19.55551,1.98528 -1.25063,0.27333 -2.49327,0.56799 -3.72124,0.89598 a 68.39829,68.39829 0 0 0 -2.80659,0.79998 l -1.49597,12.36236 -0.0933,0.74265 -0.65598,0.36532 c -10.38241,5.77186 -20.35016,12.58235 -29.77126,19.98084 -1.81462,1.43863 -3.62657,2.90792 -5.42119,4.39589 -1.75996,1.44529 -3.52392,2.95192 -5.29454,4.49722 h -0.005 l -0.53065,0.47598 -0.71865,-0.13199 -11.94104,-2.23461 c -6.85049,10.6104 -11.93303,22.38344 -14.43964,35.03912 -0.50132,2.53727 -0.90931,5.10921 -1.18663,7.69181 -0.26666,2.38661 -0.43733,4.77721 -0.50933,7.17982 l 11.25572,5.62253 0.64932,0.32532 0.14533,0.70265 c 2.30928,11.55704 5.66119,23.09942 9.74376,34.32581 0.77731,2.15728 1.60396,4.33189 2.4586,6.5265 0.87465,2.24928 1.75862,4.39323 2.6306,6.45717 l 0.005,0.009 0.004,0.0173 0.26399,0.64132 -0.32933,0.61332 -5.58252,10.43707 c 8.18646,9.96508 18.12488,18.36221 29.4046,24.61805 2.24794,1.24397 4.55055,2.41327 6.89316,3.47591 2.06661,0.95064 4.16923,1.82396 6.31451,2.6306 l 8.61178,-8.99711 0.49199,-0.51332 0.71731,0.0773 c 8.22646,0.79998 16.35293,1.19997 24.51539,1.2493 8.1518,0.0493 16.39159,-0.24666 24.85405,-0.85198 l 0.69198,-0.048 0.48532,0.50665 8.20246,8.57712 c 12.24503,-4.59322 23.48341,-11.51438 32.89518,-20.22749 1.84262,-1.71463 3.65191,-3.51458 5.39053,-5.41453 a 92.53102,92.53102 0 0 0 4.32789,-5.06388 l -5.98785,-10.83573 -0.35599,-0.64931 0.31733,-0.67465 c 4.89321,-10.65974 8.96777,-21.96479 12.21169,-33.4445 0.63065,-2.20128 1.2253,-4.44922 1.80662,-6.70917 0.58265,-2.31727 1.12131,-4.55988 1.61196,-6.73983 h 0.003 l 0.004,-0.0107 0.14266,-0.68532 0.61999,-0.31599 10.87972,-5.62386 c -0.41599,-13.30767 -3.73324,-25.84869 -9.1491,-37.32707 a 103.9974,103.9974 0 0 0 -3.47458,-6.7625 112.79718,112.79718 0 0 0 -3.52258,-5.83852 l -12.36236,2.24395 -0.70931,0.13066 -0.53466,-0.48265 c -8.66378,-7.79714 -18.15554,-15.17696 -28.16596,-21.84212 -1.94528,-1.28797 -3.90923,-2.56261 -5.90785,-3.79591 -1.93995,-1.21597 -3.95323,-2.42261 -6.01052,-3.63724 l -0.0107,-0.009 -0.007,-0.004 -0.62798,-0.372 -0.0907,-0.71331 -1.49596,-11.96237 c -3.34125,-1.01864 -6.74383,-1.81195 -10.20375,-2.39194 -0.71598,-0.12133 -1.46263,-0.23599 -2.19994,-0.34532 -4.53055,-0.64132 -9.09311,-0.94798 -13.64899,-0.94798 M 242.33562,436.4463 c -2.5186,-0.91331 -4.98787,-1.92795 -7.42114,-3.03726 a 101.3308,101.3308 0 0 1 -7.10783,-3.58924 c -11.89703,-6.5945 -22.3461,-15.49961 -30.88456,-26.10201 l -0.60398,-0.75465 0.45332,-0.85865 5.71852,-10.6824 c -0.83464,-2.01861 -1.63729,-3.97723 -2.38527,-5.88252 -0.85064,-2.15594 -1.68529,-4.36122 -2.49727,-6.6025 -4.05323,-11.16905 -7.39715,-22.60743 -9.71976,-34.04181 l -11.45571,-5.73586 -0.83731,-0.41066 0.0227,-0.93731 0.007,-0.20799 c 0.0573,-2.7746 0.24799,-5.4932 0.54265,-8.15713 0.29999,-2.69327 0.70132,-5.34253 1.21731,-7.9438 2.6546,-13.35567 8.09446,-25.77536 15.41561,-36.91108 l 0.54932,-0.82664 0.95998,0.17866 12.20236,2.29061 c 1.56662,-1.3573 3.16658,-2.71593 4.82788,-4.07857 1.79728,-1.49863 3.63057,-2.97859 5.47719,-4.43455 9.31977,-7.33715 19.19686,-14.10232 29.49793,-19.87017 l 1.53063,-12.56902 0.10933,-0.94131 0.91064,-0.28666 0.0253,-0.004 c 1.3133,-0.42799 2.58527,-0.79331 3.8199,-1.12131 1.28664,-0.33732 2.58127,-0.64131 3.85991,-0.91997 6.6305,-1.42797 13.40899,-2.06662 20.17282,-2.06662 z m -29.69925,-145.28303 7.23315,28.17263 49.24944,15.89427 1.38396,0.44665 -0.41599,1.37463 -1.21464,4.0359 -0.43065,1.46797 -1.4453,-0.48266 -49.25077,-16.28759 -22.45944,18.6502 c 1.76396,7.35048 3.79991,14.57963 6.10785,21.70346 2.30794,7.10382 4.90388,14.14764 7.77181,21.1088 l 29.33393,1.52663 30.18458,-41.71229 0.81065,-1.11997 1.16663,0.73598 3.23459,2.01328 1.33197,0.83465 -0.91465,1.27997 -30.19658,42.12428 10.25975,26.61266 c 7.55181,0.56266 14.97962,0.83732 22.37144,0.89198 7.39848,0.048 14.82496,-0.14133 22.35944,-0.50932 l 10.6544,-27.00599 -30.59257,-42.10828 -0.93064,-1.2773 1.34796,-0.84265 3.23192,-2.01328 1.15997,-0.73332 0.80398,1.11598 30.59257,41.71362 28.93128,-1.52663 c 0.74531,-1.79995 1.4453,-3.55324 2.11861,-5.2652 0.78265,-2.02528 1.55063,-4.08923 2.31728,-6.19318 3.73057,-10.35841 6.89183,-20.94081 9.45176,-31.35388 l -22.45544,-18.6502 -49.26143,16.28759 -1.44263,0.48266 -0.42933,-1.46797 -1.21596,-4.0359 -0.41199,-1.37463 1.37863,-0.44665 49.2481,-15.89427 7.23449,-28.1593 c -5.77719,-4.78788 -11.66638,-9.4051 -17.72489,-13.86632 A 347.05799,347.05799 0 0 0 304.5794,264.56927 l -24.34739,15.97026 v 53.13601 h -6.58517 v -53.12267 l -24.37672,-15.60761 c -1.59463,0.94531 -3.23725,1.95195 -4.89855,2.98259 a 304.65905,304.65905 0 0 0 -5.58786,3.56791 c -9.19843,6.06918 -17.95821,12.66235 -26.14734,19.66751 m 4.58655,29.69259 -7.66381,-29.85259 -0.23466,-0.88664 0.68932,-0.58932 c 8.46378,-7.29849 17.56222,-14.18365 27.15532,-20.49016 1.94262,-1.28396 3.82124,-2.4906 5.63719,-3.62391 1.82929,-1.13997 3.74257,-2.29727 5.73852,-3.47058 l 0.012,-0.003 0.77998,-0.47199 0.76265,0.49599 25.82469,16.53958 0.68398,0.44133 v 51.7747 h 0.66132 v -51.76404 l 0.66665,-0.44665 25.82602,-16.94225 0.79598,-0.52132 0.80398,0.51466 c 6.67317,4.23189 13.15434,8.69311 19.49684,13.369 6.30118,4.63055 12.47436,9.50243 18.58087,14.57563 l 0.71865,0.60132 -0.23732,0.89731 -7.66115,29.85259 -0.20666,0.79865 -0.77065,0.24799 -48.63878,15.69427 0.34932,1.18931 48.59479,-16.06627 0.76931,-0.24933 0.63465,0.52399 23.79541,19.77417 0.71598,0.57732 -0.21866,0.89865 c -2.62393,10.77439 -5.87852,21.78079 -9.77042,32.54452 v 0.005 a 264.79338,264.79338 0 0 1 -2.34394,6.25718 c -0.82798,2.13461 -1.65196,4.19323 -2.47727,6.17051 l -0.004,0.028 -0.35733,0.85331 -0.93598,0.044 -30.6659,1.62129 -0.79198,0.0413 -0.46665,-0.64665 -30.25658,-41.2523 -0.72131,0.44932 30.13658,41.47497 0.47465,0.65598 -0.29866,0.75332 -11.29571,28.64728 -0.34266,0.89064 -0.95465,0.0373 c -7.87847,0.41332 -15.66094,0.61065 -23.47674,0.56398 -7.84514,-0.0533 -15.65161,-0.35599 -23.51008,-0.96397 l -0.92931,-0.0613 -0.33333,-0.87597 -10.89039,-28.24196 -0.29733,-0.75599 0.46666,-0.63865 29.74859,-41.47496 -0.72932,-0.45599 -29.84325,41.24564 -0.46799,0.64931 -0.80131,-0.0413 -31.06189,-1.62129 -0.93331,-0.044 -0.36799,-0.85331 c -3.02926,-7.28115 -5.75853,-14.68497 -8.20246,-22.20611 -2.43461,-7.52248 -4.57056,-15.12896 -6.38518,-22.81543 l -0.21199,-0.88531 0.70665,-0.57466 23.8034,-19.77417 0.62799,-0.52399 0.77198,0.24933 48.57878,16.06627 0.35866,-1.18931 -48.63745,-15.69427 -0.77332,-0.24799 z" style="fill:#d2bc20;fill-opacity:1;fill-rule:nonzero;stroke:none;stroke-width:0.13333" id="path22"></path><path d="m 310.34731,329.67842 -12.73968,38.31505 -40.63765,-0.36133 -12.72635,-37.89372 33.01917,-23.88873 z" style="fill:#231f20;fill-opacity:1;fill-rule:evenodd;stroke:none;stroke-width:0.13333" id="path23"></path><path d="m 311.74461,330.13708 -12.73969,38.32571 -0.33999,1.02931 -1.0733,-0.016 -40.63232,-0.36533 -1.05731,-0.0173 -0.33866,-0.99198 -12.71834,-37.88705 -0.344,-1.02931 0.87732,-0.63731 33.01917,-23.90741 0.86131,-0.61331 0.86398,0.61331 33.08051,23.83407 0.88264,0.63866 z m -15.20096,36.37909 12.06637,-36.28043 -31.34055,-22.56743 -31.27522,22.63143 12.04237,35.87111 z m -177.0649,185.24204 8.21446,-24.32073 17.97821,5.2252 -1.39063,4.11723 -12.67835,-3.68524 -1.94395,5.75319 10.94506,3.18126 -1.39063,4.11723 -10.94506,-3.18259 -3.49058,10.33441 z m 34.96046,10.16281 8.21579,-24.32113 19.43685,5.6492 -1.39063,4.11723 -14.14498,-4.1119 -1.81996,5.39186 13.15967,3.82524 -1.38263,4.09457 -13.15967,-3.82524 -2.23594,6.61877 14.64363,4.25656 -1.3853,4.09989 z m 56.84391,6.70396 4.61855,2.99633 c -1.68396,2.42701 -3.65591,4.0175 -5.92385,4.77695 -2.25861,0.75464 -4.80255,0.72438 -7.61715,-0.0937 -3.47858,-1.01145 -5.96918,-2.94793 -7.46514,-5.80146 -1.49463,-2.86033 -1.5973,-6.20451 -0.30666,-10.02682 1.36796,-4.04883 3.55858,-6.86342 6.56917,-8.45138 3.00659,-1.5813 6.34651,-1.84262 10.02108,-0.77465 3.20392,0.93198 5.51453,2.56793 6.92249,4.91054 0.84665,1.3837 1.23197,3.13792 1.17197,5.25974 l -5.63585,-0.36359 c 0.12266,-1.35104 -0.188,-2.53581 -0.93065,-3.55405 -0.73598,-1.01677 -1.80929,-1.72609 -3.21325,-2.13408 -1.94129,-0.56398 -3.74124,-0.37866 -5.38787,0.56665 -1.64396,0.93998 -2.95726,2.86007 -3.9359,5.75893 -1.03864,3.07445 -1.18663,5.43839 -0.43065,7.08835 0.74931,1.65423 2.07994,2.7562 3.9839,3.30992 1.41063,0.40986 2.75859,0.34733 4.05323,-0.19013 1.2933,-0.53225 2.45994,-1.62916 3.50658,-3.27752 m 42.91626,22.29371 -5.76252,-1.67502 -0.42266,-6.19198 -10.47974,-3.04686 -4.0279,4.89895 -5.61586,-1.63236 18.42754,-21.35307 5.5972,1.62703 z m -6.49851,-12.45435 -0.56532,-10.07682 -6.58916,7.99714 z m 46.7735,13.72099 -6.17184,-24.96244 18.77686,-5.14934 1.04531,4.22549 -13.24367,3.63164 1.45996,5.90506 11.43305,-3.13539 1.04531,4.22549 -11.43305,3.13472 2.6226,10.60707 z m 32.34986,-22.03385 c -0.63065,-2.5458 -0.74265,-4.79255 -0.33466,-6.7477 0.31199,-1.4385 0.87731,-2.81606 1.70396,-4.1223 0.82931,-1.30103 1.82395,-2.37407 2.98526,-3.21405 1.54396,-1.13064 3.42791,-1.99462 5.65852,-2.6066 4.03723,-1.10797 7.54515,-0.85331 10.53307,0.76665 2.98659,1.61329 4.98254,4.45455 5.98652,8.51738 0.99731,4.03377 0.57198,7.51448 -1.2693,10.45134 -1.84129,2.93166 -4.77455,4.95255 -8.79045,6.05345 -4.07456,1.11771 -7.59448,0.87238 -10.55707,-0.72851 -2.96392,-1.60783 -4.93454,-4.40043 -5.91585,-8.36966 m 5.65186,-1.73009 c 0.69865,2.82433 1.94928,4.77175 3.73724,5.83892 1.79595,1.06504 3.79324,1.29317 5.99985,0.68852 2.19994,-0.60372 3.8319,-1.82036 4.88788,-3.66191 1.05197,-1.83329 1.22396,-4.19523 0.50798,-7.08996 -0.70665,-2.85926 -1.92395,-4.80348 -3.64257,-5.83999 -1.72663,-1.02864 -3.72924,-1.22957 -6.00519,-0.60625 -2.28261,0.62665 -3.94256,1.84476 -4.98787,3.65151 -1.03864,1.80569 -1.2093,4.14203 -0.49732,7.01916 m 37.28707,-10.04508 c -0.62932,-2.54621 -0.74132,-4.79282 -0.33333,-6.74743 0.31199,-1.43864 0.87598,-2.81593 1.70396,-4.12257 0.82931,-1.3013 1.82395,-2.37461 2.98526,-3.21458 1.54396,-1.13064 3.42791,-1.99462 5.65852,-2.60661 4.03723,-1.10663 7.54515,-0.85197 10.53307,0.76665 2.98659,1.61463 4.98254,4.45589 5.98785,8.51846 0.99731,4.03323 0.57065,7.51381 -1.27063,10.4508 -1.84129,2.93166 -4.77322,4.95241 -8.79045,6.05398 -4.07456,1.11717 -7.59314,0.87185 -10.55707,-0.72918 -2.96392,-1.60769 -4.93454,-4.40042 -5.91718,-8.36952 m 5.65319,-1.73023 c 0.69865,2.82447 1.94928,4.77175 3.73857,5.83892 1.79462,1.06504 3.79191,1.29317 5.99852,0.68852 2.19994,-0.60358 3.83324,-1.82022 4.88788,-3.66191 1.05197,-1.83329 1.22396,-4.19483 0.50798,-7.08942 -0.70665,-2.85993 -1.92262,-4.80388 -3.64257,-5.83985 -1.72529,-1.02931 -3.72924,-1.23064 -6.00652,-0.60666 -2.28261,0.62665 -3.94123,1.84396 -4.98654,3.65191 -1.03731,1.80529 -1.20797,4.14123 -0.49732,7.01849 m 47.61881,0.28533 -5.12787,-20.73682 -8.1238,2.22795 -1.04531,-4.22523 21.76346,-5.96918 1.0453,4.22523 -8.10513,2.22261 5.12788,20.73681 z M 136.75565,32.696516 v 5.933185 c -2.07728,-1.767956 -4.29856,-3.079923 -6.64517,-3.955901 -2.35861,-0.874645 -4.85054,-1.310634 -7.49981,-1.310634 -5.2172,0 -9.21044,1.45463 -11.98504,4.362558 -2.76526,2.899927 -4.15323,7.102489 -4.15323,12.598351 0,5.48653 1.38797,9.678425 4.15323,12.579686 2.7746,2.90926 6.76784,4.362557 11.98504,4.362557 2.64927,0 5.1412,-0.437322 7.49981,-1.311967 2.34661,-0.874645 4.56789,-2.186612 6.64517,-3.955901 v 5.877186 c -2.15995,1.339967 -4.44389,2.338609 -6.86383,3.003925 -2.41061,0.673317 -4.96521,1.007975 -7.64648,1.007975 -6.91582,0 -12.35169,-1.930618 -16.32625,-5.781189 -3.97457,-3.85057 -5.955856,-9.109105 -5.955856,-15.782272 0,-6.683833 1.981286,-11.951701 5.955856,-15.800938 3.97456,-3.851904 9.41043,-5.781189 16.32625,-5.781189 2.7226,0 5.29987,0.331992 7.70781,0.989309 a 25.19937,25.19937 0 0 1 6.8025,2.965259 m 27.91397,2.909261 -8.37579,20.698149 h 16.78358 z m -3.48392,-5.542529 h 6.99983 l 17.3889,41.586961 h -6.41451 l -4.1639,-10.667734 h -20.55815 l -4.16256,10.667734 h -6.50917 z m 30.68457,-0.237327 h 9.19977 l 9.86642,18.892861 9.73309,-18.892861 h 9.2011 v 41.58696 h -6.01851 V 34.893794 l -9.79576,19.120856 h -6.20651 l -9.99175,-19.120856 v 36.519087 h -5.98785 z m 51.24405,-0.333325 h 24.11007 v 4.735882 H 249.28883 V 46.54017 h 16.98625 v 4.735881 h -16.98625 v 15.067624 h 18.49021 v 4.735881 h -24.66472 z m 59.92784,22.656767 c 1.3253,0.409323 2.6186,1.282635 3.87057,2.614601 1.25197,1.3413 2.50393,3.175921 3.76657,5.514529 l 6.26784,11.371716 h -6.63316 l -5.83186,-10.667734 c -1.51329,-2.785263 -2.97326,-4.639884 -4.39189,-5.543861 -1.40796,-0.911977 -3.33725,-1.369299 -5.78919,-1.369299 h -6.7185 v 17.580894 h -6.17451 V 30.063248 h 13.93565 c 5.21587,0 9.10778,0.989309 11.67304,2.975926 2.56661,1.986617 3.84924,4.991875 3.84924,9.003775 0,2.613268 -0.66665,4.782547 -2.00395,6.51317 -1.33463,1.730624 -3.27325,2.927927 -5.81985,3.593244 M 287.58254,34.683133 V 49.44943 h 7.76114 c 2.97326,0 5.21587,-0.627984 6.7385,-1.882619 1.5133,-1.255969 2.27461,-3.099923 2.27461,-5.523862 0,-2.433273 -0.76131,-4.269227 -2.27461,-5.505196 -1.52263,-1.235969 -3.76524,-1.85462 -6.7385,-1.85462 z m 52.0747,-0.80798 c -4.47589,0 -8.0438,1.521295 -10.6824,4.574552 -2.63993,3.042591 -3.95457,7.197154 -3.95457,12.445023 0,5.238535 1.31464,9.383765 3.95457,12.426356 2.6386,3.051923 6.20651,4.573219 10.6824,4.573219 4.48522,0 8.04113,-1.521296 10.65974,-4.573219 2.61726,-3.042591 3.92256,-7.187821 3.92256,-12.426356 0,-5.247869 -1.3053,-9.402432 -3.92256,-12.445023 -2.61861,-3.053257 -6.17452,-4.574552 -10.65974,-4.574552 m 0,-4.562553 c 6.40384,0 11.51438,1.958618 15.34362,5.865187 3.8279,3.907902 5.74785,9.146438 5.74785,15.716941 0,6.559836 -1.91995,11.789038 -5.74785,15.69694 -3.82924,3.907903 -8.93978,5.86652 -15.34362,5.86652 -6.41717,0 -11.54771,-1.949284 -15.38895,-5.847853 -3.83723,-3.897236 -5.75719,-9.137105 -5.75719,-15.715607 0,-6.570503 1.91996,-11.809039 5.75719,-15.716941 3.84124,-3.906569 8.97178,-5.865187 15.38895,-5.865187 m 31.9192,0.179996 h 6.20518 v 25.271368 c 0,4.449222 0.88798,7.663809 2.66127,9.621093 1.77329,1.958618 4.64255,2.938593 8.61578,2.938593 3.95324,0 6.81317,-0.979975 8.58512,-2.938593 1.77329,-1.957284 2.65994,-5.171871 2.65994,-9.621093 V 29.492596 h 6.20651 V 55.45728 c 0,5.419865 -1.47063,9.518429 -4.41189,12.285026 -2.95326,2.766598 -7.29049,4.14523 -13.03968,4.14523 -5.76785,0 -10.11841,-1.378632 -13.069,-4.14523 -2.9426,-2.766597 -4.41323,-6.865161 -4.41323,-12.285026 z m 47.15082,0 h 8.31313 L 447.27722,64.28106 V 29.492596 h 5.98651 v 41.58696 h -8.31179 L 424.71378,36.289759 v 34.789797 h -5.98652 z" style="fill:#d2bc20;fill-opacity:1;fill-rule:nonzero;stroke:none;stroke-width:0.13333" id="path24"></path><path d="m 136.75565,32.696516 v 5.933185 c -2.07728,-1.767956 -4.29856,-3.079923 -6.64517,-3.955901 -2.35861,-0.874645 -4.85054,-1.310634 -7.49981,-1.310634 -5.2172,0 -9.21044,1.45463 -11.98504,4.362558 -2.76526,2.899927 -4.15323,7.102489 -4.15323,12.598351 0,5.48653 1.38797,9.678425 4.15323,12.579686 2.7746,2.90926 6.76784,4.362557 11.98504,4.362557 2.64927,0 5.1412,-0.437322 7.49981,-1.311967 2.34661,-0.874645 4.56789,-2.186612 6.64517,-3.955901 v 5.877186 c -2.15995,1.339967 -4.44389,2.338609 -6.86383,3.003925 -2.41061,0.673317 -4.96521,1.007975 -7.64648,1.007975 -6.91582,0 -12.35169,-1.930618 -16.32625,-5.781189 -3.97457,-3.85057 -5.955856,-9.109105 -5.955856,-15.782272 0,-6.683833 1.981286,-11.951701 5.955856,-15.800938 3.97456,-3.851904 9.41043,-5.781189 16.32625,-5.781189 2.7226,0 5.29987,0.331992 7.70781,0.989309 a 25.19937,25.19937 0 0 1 6.8025,2.965259 z m 27.91397,2.90926 -8.37579,20.69815 h 16.78358 z m -3.48392,-5.542528 h 6.99983 l 17.3889,41.586961 h -6.41451 l -4.1639,-10.667734 h -20.55815 l -4.16256,10.667734 h -6.50917 z m 30.68457,-0.237327 h 9.19977 l 9.86642,18.892861 9.73309,-18.892861 h 9.2011 v 41.58696 h -6.01851 V 34.893794 l -9.79576,19.120856 h -6.20651 l -9.99175,-19.120856 v 36.519087 h -5.98785 z m 51.24405,-0.333325 h 24.11007 v 4.735882 H 249.28883 V 46.54017 h 16.98625 v 4.735881 h -16.98625 v 15.067624 h 18.49021 v 4.735881 h -24.66472 z m 59.92784,22.656767 c 1.3253,0.409323 2.6186,1.282635 3.87057,2.614601 1.25197,1.3413 2.50393,3.175921 3.76657,5.514529 l 6.26784,11.371716 h -6.63316 l -5.83186,-10.667734 c -1.51329,-2.785263 -2.97326,-4.639884 -4.39189,-5.543861 -1.40796,-0.911977 -3.33725,-1.369299 -5.78919,-1.369299 h -6.7185 v 17.580894 h -6.17451 V 30.063248 h 13.93565 c 5.21587,0 9.10778,0.989309 11.67304,2.975926 2.56661,1.986617 3.84924,4.991875 3.84924,9.003775 0,2.613268 -0.66665,4.782547 -2.00395,6.51317 -1.33463,1.730624 -3.27325,2.927927 -5.81985,3.593244 z M 287.58254,34.683133 V 49.44943 h 7.76114 c 2.97326,0 5.21587,-0.627984 6.7385,-1.882619 1.5133,-1.255969 2.27461,-3.099923 2.27461,-5.523862 0,-2.433273 -0.76131,-4.269227 -2.27461,-5.505196 -1.52263,-1.235969 -3.76524,-1.85462 -6.7385,-1.85462 z m 52.0747,-0.80798 c -4.47589,0 -8.0438,1.521295 -10.6824,4.574552 -2.63993,3.042591 -3.95457,7.197154 -3.95457,12.445023 0,5.238535 1.31464,9.383765 3.95457,12.426356 2.6386,3.051923 6.20651,4.573219 10.6824,4.573219 4.48522,0 8.04113,-1.521296 10.65974,-4.573219 2.61726,-3.042591 3.92256,-7.187821 3.92256,-12.426356 0,-5.247869 -1.3053,-9.402432 -3.92256,-12.445023 -2.61861,-3.053257 -6.17452,-4.574552 -10.65974,-4.574552 z m 0,-4.562552 c 6.40384,0 11.51438,1.958617 15.34362,5.865186 3.8279,3.907903 5.74785,9.146438 5.74785,15.716941 0,6.559836 -1.91995,11.789038 -5.74785,15.69694 -3.82924,3.907903 -8.93978,5.86652 -15.34362,5.86652 -6.41717,0 -11.54771,-1.949284 -15.38895,-5.847853 -3.83723,-3.897236 -5.75719,-9.137105 -5.75719,-15.715607 0,-6.570503 1.91996,-11.809038 5.75719,-15.716941 3.84124,-3.906569 8.97178,-5.865186 15.38895,-5.865186 z m 31.9192,0.179995 h 6.20518 v 25.271368 c 0,4.449222 0.88798,7.663809 2.66127,9.621093 1.77329,1.958618 4.64255,2.938593 8.61578,2.938593 3.95324,0 6.81317,-0.979975 8.58512,-2.938593 1.77329,-1.957284 2.65994,-5.171871 2.65994,-9.621093 V 29.492596 h 6.20651 V 55.45728 c 0,5.419865 -1.47063,9.518429 -4.41189,12.285026 -2.95326,2.766598 -7.29049,4.14523 -13.03968,4.14523 -5.76785,0 -10.11841,-1.378632 -13.069,-4.14523 -2.9426,-2.766597 -4.41323,-6.865161 -4.41323,-12.285026 z m 47.15082,0 h 8.31313 L 447.27722,64.28106 V 29.492596 h 5.98651 v 41.58696 h -8.31179 L 424.71378,36.289759 v 34.789797 h -5.98652 z" style="fill:none;stroke:#d2bc20;stroke-width:0.758673;stroke-linecap:butt;stroke-linejoin:miter;stroke-miterlimit:22.9256;stroke-dasharray:none;stroke-opacity:1" id="path25" data-source="https://football-logos.cc"></path><!-- source: https://football-logos.cc --></svg>