<svg xmlns="http://www.w3.org/2000/svg" viewBox="0 0 291.55 343"><!-- Source: https://football-logos.cc --><defs data-source="https://football-logos.cc"><linearGradient id="a" x1="3044.98" x2="3139.57" y1="1579.45" y2="1579.45" gradientTransform="translate(-3556.332 -1742.781)scale(1.33589)" gradientUnits="userSpaceOnUse"><stop offset="0" stop-color="#ffd500"></stop><stop offset="1" stop-color="#f9b000"></stop></linearGradient></defs><path d="M607.051 359.202a51.6 51.6 0 0 0 7.995-12.812l1.66-4.25a15 15 0 0 0 .405-2.632v-15.403a11.153 11.153 0 0 0-15.1-10.465l-.81.243-7.347 2.328c-.182-1.377-.405-2.895-.425-3.097a11.03 11.03 0 0 0-14.674-8.764l-9.473 3.198c-25.787-23.662-56.674-36.19-89.323-36.19-80.315 0-145.733 76.914-145.733 171.5 0 50.358 18.763 98.025 51.492 130.754 26.313 26.313 59.71 40.745 94.16 40.745s67.888-14.472 94.16-40.765c32.892-32.628 51.736-80.295 51.736-130.654a195.55 195.55 0 0 0-18.723-83.736" class="cls-1" style="fill:#27348b;stroke-width:2.02408" transform="translate(-334.226 -271.357)"></path><path d="M603.873 358.797a49.3 49.3 0 0 0 8.623-13.52l1.64-4.049s.182-1.457.222-2.024v-15.018a8.38 8.38 0 0 0-11.355-7.894c-.324.141-3.3 1.234-8.38 2.712l-3.056.81-.77-5.668v-.384a8.1 8.1 0 0 0-2.145-4.595 8.32 8.32 0 0 0-8.825-2.024 382 382 0 0 1-11.03 3.724c-24.29-22.872-55.218-36.555-88.696-36.555-78.858-.1-142.94 75.519-142.94 168.626 0 93.108 64.082 168.727 142.88 168.727 78.797 0 142.9-75.62 142.9-168.727a191.5 191.5 0 0 0-19.068-84.14" class="cls-2" style="fill:#fff;stroke-width:2.02408" transform="translate(-334.226 -271.357)"></path><path d="M480.04 279.96c-75.74 0-137.151 72.967-137.151 162.978 0 90.01 61.41 162.979 137.151 162.979s137.152-72.968 137.152-162.979c0-90.01-61.41-162.979-137.152-162.979m0 314.136c-60.317 0-109.421-67.806-109.421-151.158S419.723 291.76 480.04 291.76s109.422 67.806 109.422 151.178-49.084 151.158-109.422 151.158" class="cls-1" style="fill:#27348b;stroke-width:2.02408" transform="translate(-334.226 -271.357)"></path><path d="M347.463 442.938c0 87.339 59.468 158.404 132.577 158.404 73.11 0 132.577-71.065 132.577-158.404S553.15 284.534 480.04 284.534s-132.577 71.065-132.577 158.404m2.814 0c0-85.78 58.212-155.57 129.763-155.57 71.552 0 129.764 69.79 129.764 155.57s-58.212 155.57-129.764 155.57c-71.55 0-129.763-69.79-129.763-155.57" class="cls-3" style="fill:#ffd500;stroke-width:2.02408" transform="translate(-334.226 -271.357)"></path><path d="M105.81 163.7h4.63l3.73-14.65h-4.64zM130.08 149.05h-4.28l-2.41 10.38-2.92-10.38h-5.11l-3.72 14.65h4.26l2.4-10.15 2.88 10.15h5.18zM148.99 149.05h-17.77l-3.72 14.65h4.64l2.92-11.49h4.3l-2.92 11.49h4.62l2.92-11.49h4.21z" class="cls-1" style="fill:#27348b" transform="matrix(2.02408 0 0 2.02408 -97.075 -71.308)"></path><path d="m427.536 501.636-7.53 29.754h9.433l2.772-10.89h3.502l3.765 10.89h10.464l-4.938-12.144a22.5 22.5 0 0 0 5.384-2.47 9.92 9.92 0 0 0 3.906-5.87 17.6 17.6 0 0 0 .324-2.388 6.07 6.07 0 0 0-3.502-5.809 23.3 23.3 0 0 0-7.792-.931zm8.096 5.344h4.311a5.69 5.69 0 0 1 4.453 1.336 3.38 3.38 0 0 1 .405 3.036 4.05 4.05 0 0 1-1.579 2.388 9.23 9.23 0 0 1-5.08 1.377h-4.655v-.324zM543.9 501.738l-19.613 29.652h10.12a47.6 47.6 0 0 1 13.096-9.594l1.558-.769.85 10.363h10.12l-2.226-13.743s1.498-.446 2.146-.607a90 90 0 0 1 2.955-.689h-5.303l-2.388-14.634zm4.048 6.072.75 9.007c-.972.121-1.843.263-2.612.405-1.538.303-4.048.93-4.048.93z" class="cls-1" style="fill:#27348b;stroke-width:2.02408" transform="translate(-334.226 -271.357)"></path><path d="M79.1 152.21h4.22L80.4 163.7h4.62l2.92-11.49h4.21l.8-3.16H79.9z" class="cls-1" style="fill:#27348b" transform="matrix(2.02408 0 0 2.02408 -97.075 -71.308)" data-source="https://football-logos.cc"></path><path d="M480.04 590.473c33.094 0 62.747-21.313 82.077-54.65H397.964c19.33 33.337 48.983 54.65 82.076 54.65" class="cls-1" style="fill:#27348b;stroke-width:2.02408" transform="translate(-334.226 -271.357)"></path><path d="M444.72 553.412h-9.493v5.445h-3.886v-6.335a14.2 14.2 0 0 1 .364-3.806 4.3 4.3 0 0 1 1.336-2.024 6.5 6.5 0 0 1 1.114-.708 8 8 0 0 1 1.396-.486 15.8 15.8 0 0 1 3.826-.385h5.343v2.794h-5.627a4.9 4.9 0 0 0-2.914.688 2.37 2.37 0 0 0-.952 2.024h9.493zM461.56 558.857h-5.809a13 13 0 0 1-2.995-.263 6 6 0 0 1-2.024-.951 4.86 4.86 0 0 1-1.903-2.207 7.9 7.9 0 0 1-.627-3.218 7.02 7.02 0 0 1 1.882-5.384 8.36 8.36 0 0 1 5.83-1.74h5.829v2.752h-5.992a5.2 5.2 0 0 0-1.639.223 2.9 2.9 0 0 0-1.113.769 3.34 3.34 0 0 0-.628 1.376 9 9 0 0 0-.222 2.125 4.05 4.05 0 0 0 .81 2.915 3.75 3.75 0 0 0 2.792.81h5.749zM485.12 551.955a6.82 6.82 0 0 1-2.023 5.404 11.38 11.38 0 0 1-12.286 0 7.1 7.1 0 0 1-2.024-5.526 6.56 6.56 0 0 1 2.024-5.282 11.74 11.74 0 0 1 12.266 0 5.57 5.57 0 0 1 1.538 2.206 9.5 9.5 0 0 1 .506 3.198m-4.189 0a5.04 5.04 0 0 0-.951-3.36 3.9 3.9 0 0 0-3.016-1.053 4.05 4.05 0 0 0-2.976 1.033 4.3 4.3 0 0 0-.748 1.336 6.7 6.7 0 0 0-.243 2.024 5.4 5.4 0 0 0 .95 3.481 4.05 4.05 0 0 0 3.017 1.053 3.85 3.85 0 0 0 2.975-1.093 4.84 4.84 0 0 0 .992-3.421M493.156 558.857h-4.048v-13.764h4.048zM511.454 547.886h-5.1v10.971h-4.049v-10.97h-5.1v-2.794h14.168zM528.74 558.857h-4.352l-1.437-3.178h-6.477l-1.417 3.178h-4.19l6.922-13.764h4.049zm-7.105-6.072-2.024-4.19-1.882 4.19z" class="cls-3" style="fill:#ffd500;stroke-width:2.02408" transform="translate(-334.226 -271.357)"></path><path d="M610.37 319.57a6.3 6.3 0 0 0-6.557-1.335l-8.542 2.753-5.384 1.437a2844 2844 0 0 0-1.133-8.3 6.07 6.07 0 0 0-1.64-3.582 6.34 6.34 0 0 0-6.639-1.558c-3.603 1.295-20.463 7.003-33.56 10.586a137 137 0 0 1-20.098 3.764 160 160 0 0 1-27.548.689l-13.865-1.316a266 266 0 0 0-31.353-2.024c-13.44.324-28.155 1.538-44.894 8.238-26.313 10.485-35.3 27.548-37.951 34.41l-.466 2.327a6.28 6.28 0 0 0 1.741 4.412l2.712 1.822 18.925 10.323 2.49.688 2.348-.364a31.3 31.3 0 0 1 6.072-1.073 30.8 30.8 0 0 1 7.955.162l16.192 2.57 6.356.689-2.672 3.683a270 270 0 0 0-21.334 36.88c-9.533 19.774-19.269 36.655-26.697 46.33-7.044 9.129-11.618 12.873-13.723 14.31a6.32 6.32 0 0 0-2.773 5.263l.121 1.295a6.48 6.48 0 0 0 5.485 4.94c2.308.202 7.125.546 13.521.465h16.517c.303 0 7.55 0 12.448-.547a98 98 0 0 0 19.208-3.623 61.3 61.3 0 0 0 19.148-9.29 72.4 72.4 0 0 0 17.893-19.654 126.7 126.7 0 0 0 11.638-24.29l4.372-12.346 5.951-16.456c3.44-8.885 5.708-14.573 7.024-17.346 0 0 0-.223.182-.364h1.396a9.2 9.2 0 0 0 3.806-2.328 56.4 56.4 0 0 1 6.679-5.06 22.5 22.5 0 0 1 8.582-3.259 33.5 33.5 0 0 1 13.278.202l7.246 1.782a59.1 59.1 0 0 0 15.242 2.671 47.57 47.57 0 0 0 23.722-5.93 45.3 45.3 0 0 0 11.051-7.975 5.6 5.6 0 0 0 1.66-4.048c0-.162-.506-3.866-.77-5.708a42.7 42.7 0 0 0 7.348-5.769 47 47 0 0 0 9.534-14.37l1.558-4.049.142-1.457v-14.837a6.34 6.34 0 0 0-1.943-4.432" class="cls-1" style="fill:#27348b;stroke-width:2.02408" transform="translate(-334.226 -271.357)"></path><path d="M608.063 321.696a3.24 3.24 0 0 0-3.157-.506 170.3 170.3 0 0 1-30.361 7.671 27.04 27.04 0 0 0 11.112-12.731 3.218 3.218 0 0 0-4.048-4.17c-3.704 1.336-20.889 7.125-33.782 10.667a155 155 0 0 1-48.7 4.554l-13.925-1.336a264 264 0 0 0-30.989-2.024c-13.136.304-27.527 1.498-43.821 8.097-25.24 10.019-33.782 26.13-36.292 32.607a3.178 3.178 0 0 0 4.048 4.19 42.5 42.5 0 0 1 12.287-1.619 109 109 0 0 1 13.48 1.801 147 147 0 0 0 22.63 2.632 194 194 0 0 0 26.656-3.34 195.5 195.5 0 0 0-17.812 22.265 265.4 265.4 0 0 0-21.07 36.433c-9.635 19.937-19.492 37.04-27.042 46.878-7.327 9.472-12.144 13.46-14.452 14.978a3.22 3.22 0 0 0-1.397 2.651 2.8 2.8 0 0 0 0 .81 3.2 3.2 0 0 0 2.794 2.389c6.598.607 40.663 2.833 62.746-12.691 18.622-12.995 27.851-34.228 34.41-53.274 8.096-23.237 14.046-38.842 18.216-47.748a3.5 3.5 0 0 0 4.554-.466l4.737-4.048a32.6 32.6 0 0 1 12.508-6.295c6.073-1.336 12.145-2.145 24.977 1.417 9.331 2.652 15.606 4.19 26.07 2.45a52.63 52.63 0 0 0 26.212-13.036 3.26 3.26 0 0 0 .75-3.684 3.12 3.12 0 0 0-3.138-2.024 78.5 78.5 0 0 1-11.112-.283 45.5 45.5 0 0 0 17.75-7.104c11.923-8.4 16.194-23.055 16.295-23.176a5 5 0 0 0 0-.526 3.26 3.26 0 0 0-1.134-2.41" class="cls-2" style="fill:#fff;stroke-width:2.02408" transform="translate(-334.226 -271.357)"></path><path d="M548.555 325.704a158.5 158.5 0 0 1-49.792 4.675l-13.966-1.336a258 258 0 0 0-30.604-2.024c-12.833.304-26.88 1.458-42.708 7.773-24.289 9.715-32.284 25.341-34.41 30.806A45 45 0 0 1 390.294 364a108.5 108.5 0 0 1 14.168 1.842 139 139 0 0 0 22.022 2.57c12.732-.242 35.057-4.979 35.26-5.02a.304.304 0 0 1 .364.183.34.34 0 0 1 0 .142.5.5 0 0 1 0 .263 173 173 0 0 0-24.005 28.337 263 263 0 0 0-21.01 35.887c-9.716 20.24-19.715 37.445-27.386 47.444s-12.752 14.027-15.18 15.687c5.89.546 39.307 2.854 60.722-12.145 17.852-12.488 26.819-33.154 33.235-51.695 8.096-23.459 14.168-39.226 18.52-48.213a73.5 73.5 0 0 1 15.89-21.172 101.7 101.7 0 0 1 28.033-18.399 192 192 0 0 1 22.386-6.861 128 128 0 0 0 16.193-4.838 24.3 24.3 0 0 0 13.156-12.974c-3.44 1.153-20.807 7.044-34.106 10.667" class="cls-1" style="fill:#27348b;stroke-width:2.02408" transform="translate(-334.226 -271.357)"></path><path d="M573.148 332.322a201 201 0 0 0-39.045 9.412 95.3 95.3 0 0 0-27.183 17.023 81.7 81.7 0 0 0-11.416 13.156c-1.558 2.166-3.683 5.364-3.825 5.587s-.284.546 0 .668c.283.121.324 0 .648-.243.323-.243 2.975-2.652 4.979-4.17a36.1 36.1 0 0 1 13.52-6.8c6.6-1.458 13.218-2.247 26.496 1.436 8.987 2.55 14.877 4.049 24.714 2.389a49.75 49.75 0 0 0 24.532-12.145s-10.303.952-27.63-2.631a67 67 0 0 0-23.033-.77 70.4 70.4 0 0 0-17.549 4.353 52.6 52.6 0 0 1 17.63-6.073 81.8 81.8 0 0 1 20.079-.526c14.27 1.174 26.171-1.275 35.016-7.489 10.829-7.65 14.958-21.09 14.958-21.09a173 173 0 0 1-32.891 7.913" class="cls-4" style="fill:url(#a);stroke-width:2.02408" transform="translate(-334.226 -271.357)"></path><path d="M523.052 429.72h-6.072a12.7 12.7 0 0 1-3.016-.282 4.8 4.8 0 0 1-1.903-.992 4.5 4.5 0 0 1-.89-.992 4 4 0 0 1-.446-1.275 7.4 7.4 0 0 1 .243-3.32 9.74 9.74 0 0 1 3.421-5.546 10.6 10.6 0 0 1 6.477-1.801h6.072l-.769 2.874h-5.95a4.86 4.86 0 0 0-2.753.688 3.9 3.9 0 0 0-1.518 2.024h9.492l-.769 2.854h-9.513a3 3 0 0 0-.121 1.296 1.36 1.36 0 0 0 .344.87 3.4 3.4 0 0 0 2.59.749h5.931zM543.374 425.37a5.24 5.24 0 0 1-2.348 3.278 9.15 9.15 0 0 1-4.797 1.073h-9.392l.79-2.915h8.845a4.25 4.25 0 0 0 2.024-.344 1.6 1.6 0 0 0 .769-.992 1.05 1.05 0 0 0-.182-1.072 1.2 1.2 0 0 0-.587-.203 7 7 0 0 0-1.033 0h-4.048a10 10 0 0 1-2.449-.263 4.05 4.05 0 0 1-1.599-.77 3.02 3.02 0 0 1-.526-3.157 5.47 5.47 0 0 1 2.368-3.36 9.3 9.3 0 0 1 4.817-1.072h9.29l-.789 2.914h-8.784a3.64 3.64 0 0 0-2.024.385 1.7 1.7 0 0 0-.83 1.154.95.95 0 0 0 .162.93 2.2 2.2 0 0 0 1.356.324h4.514a6.07 6.07 0 0 1 4.048.952c.668.587.79 1.64.405 3.137M561.854 418.386h-5.324l-3.016 11.335h-4.048l3.016-11.335h-5.242l.769-2.874h14.674zM494.027 455.609h-6.072l5.606-21.01h6.072zM524.773 444.962a13.58 13.58 0 0 1-5.364 8.096 19.13 19.13 0 0 1-10.768 2.652h-9.008l1.134-4.25h9.149a9.7 9.7 0 0 0 4.979-1.073 6.5 6.5 0 0 0 2.57-3.239h-8.096a16.2 16.2 0 0 1-3.744-.364 6.8 6.8 0 0 1-2.47-1.093 4.19 4.19 0 0 1-.93-4.554 7.7 7.7 0 0 1 1.517-2.935 8.3 8.3 0 0 1 2.733-2.024 19 19 0 0 1 8.643-1.64q6.436 0 8.744 2.55a5.95 5.95 0 0 1 1.437 3.3 12.8 12.8 0 0 1-.526 4.574m-6.073-2.024a4.55 4.55 0 0 0 .162-2.024 2.6 2.6 0 0 0-.769-1.336 6.58 6.58 0 0 0-4.473-1.052 7.7 7.7 0 0 0-3.4.587 2.43 2.43 0 0 0-1.336 1.72 1.5 1.5 0 0 0 .202 1.518 2.19 2.19 0 0 0 1.76.526zM551.936 444.962a13.52 13.52 0 0 1-5.384 8.096 19.1 19.1 0 0 1-10.748 2.652h-9.028l1.154-4.25h9.129a9.7 9.7 0 0 0 4.979-1.073 6.5 6.5 0 0 0 2.57-3.239h-8.096a16.4 16.4 0 0 1-3.765-.364 6.9 6.9 0 0 1-2.449-1.093 4.05 4.05 0 0 1-.93-4.554 7.7 7.7 0 0 1 1.517-2.935 8.1 8.1 0 0 1 2.712-2.024 19.05 19.05 0 0 1 8.643-1.64c4.312 0 7.226.85 8.765 2.55a5.93 5.93 0 0 1 1.416 3.3 12.7 12.7 0 0 1-.485 4.574m-6.174-2.024a4.5 4.5 0 0 0 .142-2.024 2.47 2.47 0 0 0-.77-1.336 6.54 6.54 0 0 0-4.472-1.052 7.8 7.8 0 0 0-3.4.587 2.43 2.43 0 0 0-1.337 1.72 1.6 1.6 0 0 0 .203 1.518 2.23 2.23 0 0 0 1.78.526zM578.755 451.905h-3.28l-.97 3.704h-5.972l.992-3.704H554.04l1.214-4.494 17.792-12.873h7.084l-3.522 13.136h3.28zm-8.097-4.23 2.024-7.53-10.363 7.53z" class="cls-1" style="fill:#27348b;stroke-width:2.02408" transform="translate(-334.226 -271.357)" data-source="https://football-logos.cc"></path><!-- source: https://football-logos.cc --></svg>