<svg xmlns="http://www.w3.org/2000/svg" id="_レイヤー_2" data-name="レイヤー 2" viewBox="0 0 73.55 80"><!-- Source: https://football-logos.cc --><defs data-source="https://football-logos.cc"><style>.cls-1,.cls-2{fill:#13294b;stroke-width:0}.cls-2{fill:#007749}</style></defs><g id="header" data-source="https://football-logos.cc"><path d="M15.92 42.62c1.99 0 3.96-.1 5.9-.29C11.43 34.49 3.7 23.32.2 10.41c.2 3.26.57 6.48 1.09 9.65C4.2 28.62 9.02 36.3 15.22 42.6c.23 0 .46.01.7.01ZM2.99 28.22c1.22 4.76 2.8 9.38 4.7 13.83 1.33.18 2.68.33 4.04.42a59.7 59.7 0 0 1-8.74-14.25" class="cls-2"></path><path d="M26.38 41.7c2.7-.48 5.33-1.14 7.89-1.97C17.57 32.6 4.8 18.04.09.21.03 1.57 0 2.94 0 4.31c0 .57.01 1.13.02 1.7 3.89 15.02 13.5 27.73 26.36 35.69" class="cls-2"></path><path d="M15.92 54.31c-.65 0-1.31-.01-1.95-.04 1.26 2.07 2.6 4.09 4.01 6.06 25.25-.86 46.51-17.44 54.28-40.27.52-3.17.89-6.39 1.09-9.65-6.86 25.29-29.97 43.9-57.43 43.9" class="cls-1"></path><path d="M20.68 63.93c1.5 1.89 3.06 3.73 4.69 5.5 16.15-2.58 30.14-11.66 39.19-24.48 2.49-5.33 4.5-10.93 5.99-16.74-8.54 19.74-27.45 33.94-49.87 35.71Z" class="cls-1"></path><path d="M58.53 55.95c-8.03 8.24-18.43 14.16-30.1 16.66A97 97 0 0 0 36.77 80a96.5 96.5 0 0 0 21.76-24.05M15.92 44.49c-2.49 0-4.95-.16-7.36-.45.98 2.17 2.05 4.29 3.18 6.37 1.38.1 2.77.15 4.18.15 27.7 0 50.97-18.92 57.61-44.55 0-.57.02-1.13.02-1.7 0-1.37-.04-2.74-.09-4.1-6.72 25.49-29.93 44.28-57.53 44.28ZM59.57 1.65l.48-1.44h-2.16l-2.15 4.66L53.58.21h-2.15l.47 1.44v5.74l-.47 1.44h2.87l-.48-1.44V4.76l1.44 3.11h.96l1.43-3.11v2.63l-.48 1.44h2.88l-.48-1.44z" class="cls-1"></path><path d="m68.26 8.83-.77-.97L65.15.21h-2.63l.37 1.12-1.99 6.53-.77.97h3.12l-.24-.97.12-.47h2.16l.12.47-.24.97h3.11Zm-4.79-2.87.72-2.88.72 2.88zM5.28.21v1.92l1.44-.48h.72v5.74l-.48 1.44h2.87l-.48-1.44V1.65h.72l1.44.48V.21zM50.39 1.65l.48-1.44H48l.47 1.44v5.74L48 8.83h2.87l-.48-1.44zM23.17 3.53 25.01 1l1.05-.79h-3.35l.14.79-1.58 2.17V1.65l.48-1.44h-2.87l.48 1.44v5.74l-.48 1.44h2.87l-.48-1.44V6.14l.57-.79 1.17 2.57-.3.91h3.35l-.89-.91zM33.29.21h-2.87l.48 1.44v4.82c0 .62-.51 1.13-1.13 1.13h-.14c-.62 0-1.13-.51-1.13-1.13V1.65l.48-1.44h-2.87l.48 1.44v4.76c0 1.46 1.18 2.63 2.64 2.63h.96c1.46 0 2.63-1.18 2.63-2.63V1.64L33.3.21ZM46.96 1.65l.48-1.44h-2.88l.48 1.43v1.92h-2.39V1.65l.48-1.44h-2.88l.48 1.44v5.74l-.48 1.44h2.88l-.48-1.44V5h2.39v2.4l-.48 1.43h2.88l-.48-1.44zM15.55 0h-.96c-1.45 0-2.63 1.18-2.63 2.63V6.4c0 1.45 1.18 2.63 2.63 2.63h.96c1.45 0 2.63-1.18 2.63-2.63V2.63C18.18 1.18 17 0 15.55 0m.72 6.47c0 .62-.51 1.13-1.13 1.13H15c-.62 0-1.13-.51-1.13-1.13V2.56c0-.62.51-1.13 1.13-1.13h.14c.62 0 1.13.51 1.13 1.13zM37.25 3.56h-.72a.96.96 0 0 1 0-1.92h1.44l1.44.48V.21h-3.35a2.39 2.39 0 1 0 0 4.78h.72c.66 0 1.2.54 1.2 1.2s-.54 1.2-1.2 1.2h-1.2l-1.44-.48v1.92h3.11c1.45 0 2.63-1.18 2.63-2.63s-1.18-2.63-2.63-2.63ZM25.23 12.23h-3.27l.25 1.02-1.26 5.01-1.25-5.01.25-1.02h-3.27l.81 1.02 2.46 8.03h2.01l2.46-8.04zM39.85 12.23v2.01l1.51-.51h.75v6.04l-.5 1.51h3.02l-.51-1.51v-6.04h.76l1.51.51v-2.01zM49.44 13.73l.5-1.5h-3.01l.5 1.5v6.04l-.5 1.51h3.01l-.5-1.51zM38.95 20.36l-1.28-2.81c1-.42 1.7-1.4 1.7-2.55a2.77 2.77 0 0 0-2.77-2.77h-4.27l.5 1.51v6.04l-.5 1.51h3.02l-.5-1.51v-2.01h.66l1.6 3.52h2.76l-.92-.92Zm-1.59-5.29c0 .65-.53 1.19-1.19 1.19h-1.33v-2.51h1.33c.65 0 1.19.53 1.19 1.19v.14ZM28.83 12.01h-1.01a2.77 2.77 0 0 0-2.77 2.77v3.96a2.77 2.77 0 0 0 2.77 2.77h1.01a2.77 2.77 0 0 0 2.77-2.77v-3.96a2.77 2.77 0 0 0-2.77-2.77m.75 6.8c0 .65-.53 1.19-1.19 1.19h-.14c-.65 0-1.19-.53-1.19-1.19v-4.1c0-.65.53-1.19 1.19-1.19h.14c.65 0 1.19.53 1.19 1.19zM54.1 15.75h-.75c-.56 0-1.01-.45-1.01-1.01s.45-1.01 1.01-1.01h1.51l1.51.5v-2.01h-3.52c-1.39 0-2.51 1.13-2.51 2.51s1.13 2.51 2.51 2.51h.75a1.261 1.261 0 0 1 0 2.52h-1.26l-1.51-.5v2.01h3.27a2.77 2.77 0 1 0 0-5.54Z" class="cls-1"></path></g><!-- source: https://football-logos.cc --></svg>