<svg xmlns="http://www.w3.org/2000/svg" viewBox="0 0 13.04 17.33"><!-- Source: https://football-logos.cc --><defs data-source="https://football-logos.cc"><clipPath id="a" clipPathUnits="userSpaceOnUse"><path d="M0 0h276.45v386.6H0Z"></path></clipPath><clipPath id="b" clipPathUnits="userSpaceOnUse"><path d="M0 386.6V-.642h277.08V386.6" clip-rule="evenodd"></path></clipPath><clipPath id="c" clipPathUnits="userSpaceOnUse"><path d="M0 386.6V-.642h277.08V386.6" clip-rule="evenodd"></path></clipPath><clipPath id="d" clipPathUnits="userSpaceOnUse"><path d="M0 386.6V-.642h277.08V386.6" clip-rule="evenodd"></path></clipPath><clipPath id="e" clipPathUnits="userSpaceOnUse"><path d="M0 386.6V-.642h277.08V386.6" clip-rule="evenodd"></path></clipPath><clipPath id="f" clipPathUnits="userSpaceOnUse"><path d="M0 386.6V-.642h277.08V386.6" clip-rule="evenodd"></path></clipPath><clipPath id="g" clipPathUnits="userSpaceOnUse"><path d="M0 386.6V-.642h277.08V386.6" clip-rule="evenodd"></path></clipPath><clipPath id="h" clipPathUnits="userSpaceOnUse"><path d="M0 386.6V-.642h277.08V386.6" clip-rule="evenodd"></path></clipPath><clipPath id="i" clipPathUnits="userSpaceOnUse"><path d="M0 386.6V-.642h277.08V386.6" clip-rule="evenodd"></path></clipPath><clipPath id="j" clipPathUnits="userSpaceOnUse"><path d="M0 386.6V-.642h277.08V386.6" clip-rule="evenodd"></path></clipPath><clipPath id="k" clipPathUnits="userSpaceOnUse"><path d="M0 386.6V-.642h277.08V386.6" clip-rule="evenodd"></path></clipPath><clipPath id="l" clipPathUnits="userSpaceOnUse"><path d="M0 386.6V-.642h277.08V386.6" clip-rule="evenodd"></path></clipPath><clipPath id="m" clipPathUnits="userSpaceOnUse"><path d="M0 386.6V-.642h277.08V386.6" clip-rule="evenodd"></path></clipPath><clipPath id="n" clipPathUnits="userSpaceOnUse"><path d="M0 386.6V-.642h277.08V386.6" clip-rule="evenodd"></path></clipPath><clipPath id="o" clipPathUnits="userSpaceOnUse"><path d="M0 386.6V-.642h277.08V386.6" clip-rule="evenodd"></path></clipPath><clipPath id="p" clipPathUnits="userSpaceOnUse"><path d="M0 386.6V-.642h277.08V386.6" clip-rule="evenodd"></path></clipPath><clipPath id="q" clipPathUnits="userSpaceOnUse"><path d="M0 386.6V-.642h277.08V386.6" clip-rule="evenodd"></path></clipPath><clipPath id="r" clipPathUnits="userSpaceOnUse"><path d="M0 386.6V-.642h277.08V386.6" clip-rule="evenodd"></path></clipPath><clipPath id="s" clipPathUnits="userSpaceOnUse"><path d="M0 386.6V-.642h277.08V386.6" clip-rule="evenodd"></path></clipPath><clipPath id="t" clipPathUnits="userSpaceOnUse"><path d="M0 386.6V-.642h277.08V386.6" clip-rule="evenodd"></path></clipPath><clipPath id="u" clipPathUnits="userSpaceOnUse"><path d="M0 386.6V-.642h277.08V386.6" clip-rule="evenodd"></path></clipPath><clipPath id="v" clipPathUnits="userSpaceOnUse"><path d="M0 386.6V-.642h277.08V386.6" clip-rule="evenodd"></path></clipPath><clipPath id="w" clipPathUnits="userSpaceOnUse"><path d="M0 386.6V-.642h277.08V386.6" clip-rule="evenodd"></path></clipPath><clipPath id="x" clipPathUnits="userSpaceOnUse"><path d="M0 386.6V-.642h277.08V386.6" clip-rule="evenodd"></path></clipPath><clipPath id="y" clipPathUnits="userSpaceOnUse"><path d="M0 386.6V-.642h277.08V386.6" clip-rule="evenodd"></path></clipPath><clipPath id="z" clipPathUnits="userSpaceOnUse"><path d="M0 386.6V-.642h277.08V386.6" clip-rule="evenodd"></path></clipPath><clipPath id="A" clipPathUnits="userSpaceOnUse"><path d="M0 386.6V-.642h277.08V386.6" clip-rule="evenodd"></path></clipPath><clipPath id="B" clipPathUnits="userSpaceOnUse"><path d="M0 386.6V-.642h277.08V386.6" clip-rule="evenodd"></path></clipPath><clipPath id="C" clipPathUnits="userSpaceOnUse"><path d="M0 386.6V-.642h277.08V386.6" clip-rule="evenodd"></path></clipPath><clipPath id="D" clipPathUnits="userSpaceOnUse"><path d="M0 386.6V-.642h277.08V386.6" clip-rule="evenodd"></path></clipPath><clipPath id="E" clipPathUnits="userSpaceOnUse"><path d="M0 386.6V-.642h277.08V386.6" clip-rule="evenodd"></path></clipPath><clipPath id="F" clipPathUnits="userSpaceOnUse"><path d="M0 386.6V-.642h277.08V386.6" clip-rule="evenodd"></path></clipPath><clipPath id="G" clipPathUnits="userSpaceOnUse"><path d="M0 386.6V-.642h277.08V386.6" clip-rule="evenodd"></path></clipPath><clipPath id="H" clipPathUnits="userSpaceOnUse"><path d="M0 386.6V-.642h277.08V386.6" clip-rule="evenodd"></path></clipPath><clipPath id="I" clipPathUnits="userSpaceOnUse"><path d="M0 386.6V-.642h277.08V386.6" clip-rule="evenodd"></path></clipPath><clipPath id="J" clipPathUnits="userSpaceOnUse"><path d="M0 386.6V-.642h277.08V386.6" clip-rule="evenodd"></path></clipPath><clipPath id="K" clipPathUnits="userSpaceOnUse"><path d="M0 386.6V-.642h277.08V386.6" clip-rule="evenodd"></path></clipPath><clipPath id="L" clipPathUnits="userSpaceOnUse"><path d="M0 386.6V-.642h277.08V386.6" clip-rule="evenodd"></path></clipPath><clipPath id="M" clipPathUnits="userSpaceOnUse"><path d="M0 386.6V-.642h277.08V386.6" clip-rule="evenodd"></path></clipPath><clipPath id="N" clipPathUnits="userSpaceOnUse"><path d="M0 386.6V-.642h277.08V386.6" clip-rule="evenodd"></path></clipPath><clipPath id="O" clipPathUnits="userSpaceOnUse"><path d="M0 386.6V-.642h277.08V386.6" clip-rule="evenodd"></path></clipPath><clipPath id="P" clipPathUnits="userSpaceOnUse"><path d="M0 386.6V-.642h277.08V386.6" clip-rule="evenodd"></path></clipPath><clipPath id="Q" clipPathUnits="userSpaceOnUse"><path d="M0 386.6V-.642h277.08V386.6" clip-rule="evenodd"></path></clipPath></defs><g clip-path="url(#a)" transform="matrix(.06937 0 0 -.06935 -3.092 24.278)" data-source="https://football-logos.cc"><g clip-path="url(#b)"><path d="M146.53 278.8v.22c.15.98-.6 1.88-1.65 2.03-6.68.75-12.23.82-16.51.75-.82-.08-1.5-.68-1.57-1.58-2.18-28.35 9.08-48.23 13.13-55.21l.6-.9-.98.6c-4.57 3.9-9.23 7.73-13.8 11.63-1.5 1.2-3.68 1.2-5.1-.15-2.93-2.78-6.61-6.75-9.31-10.65 0 0 0-.08 0 0 .15.07 6.68-5.71 14.93-10.73 6.61-3.98 13.43-7.88 20.04-12 .15-.08.3-.15.45-.3 2.77-1.73 5.55-3.53 8.25-5.41 4.13-2.92 7.5-6.6 9.6-11.32 1.2-2.85 1.58-5.86.38-8.86-2.1-5.17-6.91-9.9-11.86-12.37-.6-.3-2.02-1.28-1.87-1.73-.15 0 5.17 1.65 9.98 3 1.27.3 3.75 1.2 4.8 1.95 8.85 6.23 14.1 24.31 3.3 38.94-24.31 32.78-22.88 71.56-22.81 72.09" style="fill:#ec1c24;fill-opacity:1;fill-rule:nonzero;stroke:none"></path></g><g clip-path="url(#c)"><path d="M117.19 172.12c-34.133 33.16-4.12 62.72 6.08 71.12 1.8 1.5 2.7 4.13 2.48 5.03-1.28 5.25-2.33 11.7-2.85 15.22-28.664-13.8-34.291-40.66-35.717-44.63 0 .15-.075.3-.075.37-.15 3.3-.3 6.53-.3 9.76.075 3.37.375 6.67.6 10.05 0 .67-.3 1.35-.825 1.72-6.903 5.33-12.08 8.18-15.456 9.68 0 0-8.478-48.61 29.863-76.89 13.88-10.28 25.66-10.73 34.59-10.65l.07.75c-9.68 1.72-15.38 5.55-18.46 8.47" style="fill:#ec1c24;fill-opacity:1;fill-rule:nonzero;stroke:none"></path></g><g clip-path="url(#d)"><path d="M71.202 314.28c3.826 3.3 17.857 12.08 20.708 14.63.75.67 23.78 20.78 57.62 17.63 14.03-1.35 26.86-7.05 29.79-12.68.9-4.95-7.88-5.63-6.75-1.5.52 2.03-15.61 10.28-28.74 6.3-41.64-12.6-64.375-47.33-70.077-67.96 3.151-.6 8.103-2.33 15.756-6.38 1.05-.53 2.251-.08 2.626 1.05.15.52.375 1.13.525 1.65 3.827 11.03 17.48 43.66 51.32 63.54-3.75-6.08-7.8-12.98-10.2-18.68 4.65-.22 10.8-.52 16.95-1.5 1.65 6.38 3.98 12.53 5.63 16.58 2.18 5.4 8.85 6.68 14.1 3.3 5.26-3.38 8.48-8.25 17.34-6.6 2.1.45 3.3 1.2 3.9 2.17 1.05 1.35 1.35 3.6-1.95 7.28-.08.15-.15.23-.3.38-6.68 7.2-33.17 20.63-66.7 15.37-33.541-5.25-52.073-30.15-53.574-32.18-.825-1.05-3.076-3.75-5.327-6.9-3.676-5.18-7.578-11.33-7.578-11.33s7.878 9.68 14.931 15.83" style="fill:#ec1c24;fill-opacity:1;fill-rule:nonzero;stroke:none"></path></g><g clip-path="url(#e)"><path d="M64.074 208.36c-10.879 13.35-17.931 40.36-9.453 46.28 8.403 5.93 22.508-3.67 22.508-3.67.525-.3 9.154-5.93 13.505-8.86a2.783 2.783 0 0 1 3.827.83c1.5 2.33 3.826 5.55 7.649 9.75-3.823 2.4-7.724 4.73-11.701 6.9-6.827 3.53-12.529 5.7-17.406 6.98-5.928 1.65-9.829 1.58-11.255 1.5-8.028-.15-11.179-3.45-11.179-3.45 4.202 4.5 10.954 8.1 18.457 10.88a4.07 4.07 0 0 1 2.476 2.25c7.728 16.95 12.605 22.8 13.73 24.23-.075.07-.15.07-.15 0-.15-.08-.375-.15-.6-.23-4.352-1.87-28.286-12.82-36.389-35.4-1.95-4.88-3.076-10.28-2.926-16.06-.825-28.21 18.832-51.91 26.635-59.64 4.202-4.27 8.553-7.8 11.855-10.27.75-.53 1.425-1.06 2.176-1.58.6-.45 1.275-.9 1.95-1.35 1.051-.68 1.576-1.05 1.576-1.05.075-.08.15-.08.15-.08.75-.07 3.151.15-3.376 8.93-7.428 10.05-11.18 9.75-22.059 23.11" style="fill:#ec1c24;fill-opacity:1;fill-rule:nonzero;stroke:none"></path></g><g clip-path="url(#f)"><path d="M228.24 281.57c-.23.75-.45 1.58-.75 2.33-4.88 15.08-14.71 27.91-27.61 36.61 9.45-7.8 15-14.33 19.28-26.03 1.72-4.73 2.25-10.96 2.77-16.28 0-2.63.38-5.25 1.35-7.65.08-.45 9.76-34.81-11.25-63.24-.07-.15-9.98-10.13-14.18-5.48-2.93 3.15.08 9.08.08 9.08 1.42 4.05 4.12 9.52 7.57 18 .38.98.83 1.8 1.13 2.55 3 6.38 11.4 30.91-4.8 49.89-26.56 31.21-71.81 28.06-79.53 27.23-.75-.08-1.43-.38-1.88-.98-5.85-7.12-11.33-16.05-13.95-20.63-1.06-1.87.52-2.62 2.7-2.32 11.33 1.35 41.56 3.6 70.6-7.95-.23-.08-.45-.08-.6-.08-12.68.38-20.33-1.2-27.31-2.55-1.05-.22-1.73-1.12-1.65-2.1.22-5.62.97-11.25 1.42-14.4.23-1.58 1.43-2.18 2.18-1.95 8.93 2.55 41.56 9.75 41.41-10.35-.07-9.83-9.22-26.86-11.55-34.06-3.53-10.73-.9-20.03 3.98-23.86 4.87-3.9 11.33-.45 11.33-.45h-.08c4.65 2.18 19.36 10.5 28.44 41.11 8.62 29.18 2.32 49.51.9 53.56" style="fill:#ec1c24;fill-opacity:1;fill-rule:nonzero;stroke:none"></path></g><g clip-path="url(#g)"><path d="M146.76 202.51c-.15.15-.3.22-.45.3.15-.08.3-.15.45-.3" style="fill:#fbfbfb;fill-opacity:1;fill-rule:nonzero;stroke:none"></path></g><g clip-path="url(#h)"><path d="M49.894 109.18v-3.52h6.527c.376 0 .676.15.976.45s.375.6.375.97v2.33c0 .3-.075.6-.3.9s-.525.45-.826.45zm0 11.33v-5.93l3.226.75c.225.08.525.23.75.46.226.22.301.37.301.45v2.92c0 .38-.151.68-.376.98-.3.3-.6.37-1.05.37zm-5.327 5.25h8.178c1.876 0 3.451-.6 4.727-1.95 1.275-1.27 1.951-2.85 1.951-4.65v-2.85c0-.37 0-.75-.075-.98 1.125-.52 2.025-1.35 2.701-2.4a6.47 6.47 0 0 0 1.05-3.52v-2.1c0-1.88-.675-3.45-1.951-4.73-1.35-1.35-2.926-1.95-4.727-1.95H44.567Z" style="fill:#000;fill-opacity:1;fill-rule:nonzero;stroke:none"></path></g><g clip-path="url(#i)"><path d="M77.279 120.51h-4.801c-.376 0-.676-.15-.976-.37-.3-.3-.375-.6-.375-.98v-11.93c0-.37.075-.67.375-.97s.6-.45.976-.45h4.801q.563 0 .901.45c.3.3.45.6.45.97v11.93c0 .38-.15.68-.45.98a1.26 1.26 0 0 1-.901.37m-4.801 5.25h4.801c1.801 0 3.377-.6 4.652-1.95 1.276-1.27 1.951-2.85 1.951-4.65v-11.93c0-1.8-.675-3.37-1.951-4.65-1.275-1.35-2.851-1.95-4.652-1.95h-4.801c-1.801 0-3.377.6-4.727 1.95-1.276 1.28-1.951 2.85-1.951 4.65v11.93c0 1.8.675 3.38 1.951 4.65 1.35 1.35 2.926 1.95 4.727 1.95" style="fill:#000;fill-opacity:1;fill-rule:nonzero;stroke:none"></path></g><g clip-path="url(#j)"><path d="M104.44 120.51h-5.928v-19.88H93.26v19.88h-6.002v5.25h17.182z" style="fill:#000;fill-opacity:1;fill-rule:nonzero;stroke:none"></path></g><g clip-path="url(#k)"><path d="M118.85 120.51h-4.81c-.37 0-.67-.15-.97-.37-.3-.3-.38-.6-.38-.98v-11.93c0-.37.08-.67.38-.97s.6-.45.97-.45h4.81c.37 0 .67.15.97.45.23.3.38.6.38.97v11.93c0 .38-.15.68-.38.98-.3.22-.6.37-.97.37m-4.81 5.25h4.81c1.8 0 3.37-.6 4.65-1.95 1.35-1.27 1.95-2.85 1.95-4.65v-11.93c0-1.8-.6-3.37-1.95-4.65-1.28-1.35-2.85-1.95-4.65-1.95h-4.81c-1.8 0-3.37.6-4.65 1.95-1.35 1.28-2.02 2.85-2.02 4.65v11.93c0 1.8.67 3.38 2.02 4.65 1.28 1.35 2.85 1.95 4.65 1.95" style="fill:#000;fill-opacity:1;fill-rule:nonzero;stroke:none"></path></g><g clip-path="url(#l)"><path d="M134.08 125.76v-18.53c0-.37.15-.67.45-.97s.6-.45.97-.45h8.7v-5.18h-8.7c-1.8 0-3.37.6-4.73 1.95-1.27 1.28-1.95 2.85-1.95 4.65v18.53z" style="fill:#000;fill-opacity:1;fill-rule:nonzero;stroke:none"></path></g><g clip-path="url(#m)"><path d="M158.84 120.51h-4.73c-.38 0-.68-.15-.98-.37-.3-.3-.37-.6-.37-.98v-5.85l7.43 2.02v3.83c0 .38-.08.68-.38.98-.3.22-.6.37-.97.37m-4.73 5.25h4.73c1.87 0 3.45-.6 4.72-1.95 1.28-1.27 1.95-2.85 1.95-4.65v-18.53h-5.32v9.3l-7.43-2.02v-7.28h-5.33v18.53c0 1.8.68 3.38 1.95 4.65 1.28 1.35 2.85 1.95 4.73 1.95" style="fill:#000;fill-opacity:1;fill-rule:nonzero;stroke:none"></path></g><g clip-path="url(#n)"><path d="M177.67 113.31c4.42 0 6.52 1.65 6.52 5.25 0 3.68-2.25 4.88-6.67 4.88h-3.68v-10.13zm-7.06 12.75h7.28c5.7 0 9.53-1.95 9.53-7.5 0-5.33-3.83-7.88-9.38-7.88h-4.2v-10.05h-3.23z" style="fill:#000;fill-opacity:1;fill-rule:nonzero;stroke:none"></path></g><g clip-path="url(#o)"><path d="m198.98 112.26 2.55 1.65 7.72-13.28h-3.67zm.15 1.72c3.97 0 6.15 1.58 6.15 4.88 0 3.38-2.18 4.58-6.15 4.58h-4.28v-9.46zm-7.51 12.08h7.96c5.17 0 8.92-1.87 8.92-7.2 0-5.03-3.75-7.5-8.92-7.5h-4.73v-10.73h-3.23z" style="fill:#000;fill-opacity:1;fill-rule:nonzero;stroke:none"></path></g><g clip-path="url(#p)"><path d="M229.29 113.38c0 6.38-3 10.28-7.58 10.28-4.5 0-7.5-3.9-7.5-10.28 0-6.3 3-10.42 7.5-10.42 4.58 0 7.58 4.12 7.58 10.42m-18.46 0c0 8.18 4.5 13.13 10.88 13.13s10.88-4.95 10.88-13.13c0-8.1-4.5-13.2-10.88-13.2s-10.88 5.1-10.88 13.2" style="fill:#000;fill-opacity:1;fill-rule:nonzero;stroke:none"></path></g><g clip-path="url(#q)"><path d="M158.08 151.12c1.66 0 2.48.75 2.48 2.17 0 1.5-.82 2.25-2.48 2.25-1.57 0-2.32-.75-2.32-2.25 0-1.42.75-2.17 2.32-2.17" style="fill:#000;fill-opacity:1;fill-rule:nonzero;stroke:none"></path></g><g clip-path="url(#r)"><path d="M152.08 151.12c1.58 0 2.4.75 2.4 2.17 0 1.5-.82 2.25-2.4 2.25-1.57 0-2.4-.75-2.4-2.25 0-1.42.83-2.17 2.4-2.17" style="fill:#000;fill-opacity:1;fill-rule:nonzero;stroke:none"></path></g><g clip-path="url(#s)"><path d="M152.23 141.14v3c0 .75.45 1.13 1.28 1.13h4.12v-5.25h-4.12c-.83 0-1.28.37-1.28 1.12m10.51-5.18h1.2-.53c1.5 0 2.85.45 3.98 1.43 1.12 1.13 1.72 2.33 1.72 3.75v14.4h-4.5v-14.4c0-.75-.37-1.12-1.2-1.12h.53-1.8v9.3h-8.63c-1.58 0-2.93-.53-3.98-1.58-1.12-.97-1.72-2.25-1.72-3.75v-2.85c0-1.42.6-2.62 1.72-3.67 1.05-.98 2.4-1.51 3.98-1.51z" style="fill:#000;fill-opacity:1;fill-rule:nonzero;stroke:none"></path></g><g clip-path="url(#t)"><path d="M177.14 140.02c-.75 0-1.12.37-1.12 1.12v3c0 .75.37 1.13 1.12 1.13h3.08v-5.25zm19.96 4.5c.22.45.6.6 1.05.6h5.7c.75 0 1.13-.3 1.13-1.05v-4.05h-9.53zm-18.46-10.66h-3.97v-4.05h4.35c1.57 0 2.92.53 3.97 1.5 1.05 1.05 1.58 2.25 1.58 3.68v.97h28.29-.38c1.35 0 2.48.3 3.45.98.98-.68 2.1-.98 3.45-.98h2.1-1.27.45c1.5 0 2.85.45 3.98 1.43 1.12 1.13 1.72 2.33 1.72 3.75v14.4h-4.5v-14.4c0-.75-.38-1.12-1.2-1.12h-.45 1.27-2.1c-.67 0-1.12.3-1.2.97v8.33h-4.5v-8.33c-.07-.67-.52-.97-1.2-.97h.38-3.38v3.9c0 1.42-.53 2.7-1.65 3.75-1.05.97-2.4 1.5-3.98 1.5h-5.7c-1.43 0-2.7-.53-3.9-1.58v7.95h-4.43v-15.52h-5.25v9.3h-7.43c-1.5 0-2.85-.53-3.97-1.58-1.13-.97-1.65-2.17-1.65-3.6v-3c0-1.42.52-2.62 1.72-3.6 1.05-1.05 2.33-1.58 3.9-1.58h3.08v-.97c0-.75-.53-1.13-1.58-1.13" style="fill:#000;fill-opacity:1;fill-rule:nonzero;stroke:none"></path></g><g clip-path="url(#u)"><path d="M213.83 132.06c0-1.5.83-2.25 2.4-2.25 1.58 0 2.4.75 2.4 2.25 0 1.43-.82 2.18-2.4 2.18-1.57 0-2.4-.75-2.4-2.18" style="fill:#000;fill-opacity:1;fill-rule:nonzero;stroke:none"></path></g><g clip-path="url(#v)"><path d="M231.91 155.54h-4.35v-19.58h4.35z" style="fill:#000;fill-opacity:1;fill-rule:nonzero;stroke:none"></path></g><g clip-path="url(#w)"><path d="M54.846 155.54c-1.276 0-1.876-.52-1.876-1.8 0-1.27.6-1.8 1.876-1.8 1.35 0 1.951.53 1.951 1.8 0 1.28-.601 1.8-1.951 1.8" style="fill:#000;fill-opacity:1;fill-rule:nonzero;stroke:none"></path></g><g clip-path="url(#x)"><path d="M55.146 139.42h-4.577c-1.2 0-1.951.6-1.951 1.57v3.23c0 1.05.751 1.65 1.951 1.65h4.577zm24.459 0h-2.251c-1.05 0-1.725.6-1.725 1.57v3.08c0 1.05.675 1.65 1.725 1.65h2.251zm-14.105-2.1.3-.23c.9-.6 2.026-.9 3.226-.9h14.031v12.75h-5.703a5.35 5.35 0 0 1-3.676-1.42c-1.05-.98-1.576-2.1-1.576-3.45v-3.08c0-.37.075-.75.15-.97l.15-.6h-3.376c-.975 0-1.65.45-1.8 1.42v8.18h-3.452v-8.1c-.15-.98-.825-1.5-1.8-1.5h-3.302v9.6h-8.103c-1.5 0-2.701-.45-3.751-1.43-1.051-.97-1.576-2.17-1.576-3.52v-3.08c0-1.27.525-2.4 1.576-3.37 1.05-.98 2.251-1.43 3.751-1.43h11.405c1.2 0 2.325.3 3.226.9z" style="fill:#000;fill-opacity:1;fill-rule:nonzero;stroke:none"></path></g><g clip-path="url(#y)"><path d="M49.219 155.54c-1.276 0-1.876-.52-1.876-1.8 0-1.27.6-1.8 1.876-1.8 1.35 0 1.95.53 1.95 1.8 0 1.28-.6 1.8-1.95 1.8" style="fill:#000;fill-opacity:1;fill-rule:nonzero;stroke:none"></path></g><g clip-path="url(#z)"><path d="M68.201 133.41c-1.351 0-1.876-.52-1.876-1.8 0-1.27.525-1.8 1.876-1.8 1.275 0 1.876.53 1.876 1.8 0 1.28-.601 1.8-1.876 1.8" style="fill:#000;fill-opacity:1;fill-rule:nonzero;stroke:none"></path></g><g clip-path="url(#A)"><path d="M62.649 133.41c-1.276 0-1.876-.52-1.876-1.8 0-1.27.6-1.8 1.876-1.8 1.35 0 1.951.53 1.951 1.8 0 1.28-.601 1.8-1.951 1.8" style="fill:#000;fill-opacity:1;fill-rule:nonzero;stroke:none"></path></g><g clip-path="url(#B)"><path d="M78.03 155.54c-1.276 0-1.876-.52-1.876-1.8 0-1.27.6-1.8 1.876-1.8 1.35 0 1.95.53 1.95 1.8 0 1.28-.6 1.8-1.95 1.8" style="fill:#000;fill-opacity:1;fill-rule:nonzero;stroke:none"></path></g><g clip-path="url(#C)"><path d="M89.584 129.81h2.476c1.35 0 2.551.45 3.601 1.43 1.051.97 1.651 2.1 1.651 3.45v1.5h4.948c1.28 0 2.33.3 3.23.9l.3.23.38-.23q1.35-.9 3.15-.9h13.05v8.03c0 1.27-.45 2.47-1.5 3.45-.9.9-2.17 1.35-3.6 1.35h-5.25v-3.15h5.25c1.12 0 1.73-.6 1.73-1.65v-4.8h-9.68c-.98 0-1.58.45-1.73 1.42v8.18h-3.53v-8.1c-.15-.98-.75-1.5-1.8-1.5h-4.948v9.6h-3.526v-14.33c0-1.05-.676-1.65-1.726-1.65h-2.476z" style="fill:#000;fill-opacity:1;fill-rule:nonzero;stroke:none"></path></g><g clip-path="url(#D)"><path d="M102.86 155.54c-1.27 0-1.87-.52-1.87-1.8 0-1.27.6-1.8 1.87-1.8 1.35 0 1.95.53 1.95 1.8 0 1.28-.6 1.8-1.95 1.8" style="fill:#000;fill-opacity:1;fill-rule:nonzero;stroke:none"></path></g><g clip-path="url(#E)"><path d="M108.49 155.54c-1.27 0-1.87-.52-1.87-1.8 0-1.27.6-1.8 1.87-1.8 1.35 0 1.95.53 1.95 1.8 0 1.28-.6 1.8-1.95 1.8" style="fill:#000;fill-opacity:1;fill-rule:nonzero;stroke:none"></path></g><g clip-path="url(#F)"><path d="M126.5 141.14h3.37v11.63h-3.37z" style="fill:#000;fill-opacity:1;fill-rule:nonzero;stroke:none"></path></g><g clip-path="url(#G)"><path d="M124.55 136.19h6.67c1.43 0 2.33.52 3.31 1.43.97.97 1.5 2.1 1.5 3.37v14.55h-3.38v-14.55c0-.75-.15-1.57-1.43-1.57h-6.67z" style="fill:#000;fill-opacity:1;fill-rule:nonzero;stroke:none"></path></g><g clip-path="url(#H)"><path d="M138.05 136.19h3.38v19.35h-3.38z" style="fill:#000;fill-opacity:1;fill-rule:nonzero;stroke:none"></path></g><g clip-path="url(#I)"><path d="M86.433 136.19h3.376v19.35h-3.376z" style="fill:#000;fill-opacity:1;fill-rule:nonzero;stroke:none"></path></g><g clip-path="url(#J)"><path d="M158.61 166.05c3.23 2.47 6.38 6.67 7.88 10.27 1.27 3.15 1.12 6.46-.45 10.06-1.95 4.72-5.33 8.62-10.13 12-6.75 4.73-13.96 9-21.01 13.13-2.55 1.5-5.18 3.07-7.8 4.65-5.93 3.6-14.26 10.35-14.33 10.43 2.02 2.62 4.35 5.25 6.45 7.42 1.73 1.73 4.5 1.8 6.3.23 8.11-6.98 18.98-13.96 18.98-13.96l-3.22 5.48c-1.88 3.3-5.85 10.2-8.85 19.81-3.46 10.8-4.88 22.8-4.21 34.2.08.75.75 1.35 1.5 1.43h1.35c4.06 0 8.26-.23 12.53-.68.75-.07 1.36-.75 1.36-1.5 0-.07-.53-10.05 2.32-24.45 1.5-8.18 3.83-16.06 6.75-23.48 3.68-9.23 8.41-17.78 14.03-25.36 4.73-6.38 6.61-14.03 5.41-21.68-1.05-6.3-4.28-12.08-8.41-14.93 0 0-4.12-2.55-6.45-3.07" style="fill:#40b94f;fill-opacity:1;fill-rule:nonzero;stroke:none"></path></g><g clip-path="url(#K)"><path d="M116.67 168.22c-3.98 1.43-8.7 3.75-13.66 7.8a75.4 75.4 0 0 0-19.503 23.71c-3.827 7.28-6.603 15.45-8.178 24.08-1.801 9.75-1.651 18.68-1.426 23.03 2.851-1.57 5.927-3.6 9.078-6 .751-.53 1.126-1.43 1.126-2.33-.825-22.13 3.226-32.55 3.226-32.55s1.801 15.97 11.705 32.33c5.252 8.55 14.182 16.43 23.182 21.6.45-2.62.9-4.95 1.28-6.97.6-2.93-.38-5.85-2.63-7.8-7.95-6.91-22.208-21.91-22.583-39.91-.3-12.83 5.923-25.29 18.383-36.99" style="fill:#40b94f;fill-opacity:1;fill-rule:nonzero;stroke:none"></path></g><g clip-path="url(#L)"><path d="M80.431 324.26c2.25 2.02 4.576 4.05 7.052 5.92 2.626 1.96 5.327 3.83 8.103 5.41-3.526-2.33-5.477-4.05-5.777-4.28-2.926-2.63-6.077-5.03-9.378-7.05m66.849-12.38c-2.93.45-6 .75-9.6.9 8.1 15.23 12.3 20.41 12.3 20.48l2.93 3.23c3.07-.15 6.08-.75 8.55-1.5-3.68-.83-6.6-3.3-8.03-6.83-1.72-4.28-4.65-11.33-6.15-16.28m-60.097-44.41c-3.751 1.88-7.128 3.23-10.054 4.13 3.677 10.8 11.555 24.08 20.558 33.98 12.833 14.25 29.113 24.6 47.043 30.01 1.73.52 3.6.82 5.63.9l-2.03-.68c-.22-.07-5.85-1.87-12.68-6.6-12.08-8.33-23.18-19.65-31.21-31.96-8.028-12.23-12.68-23.25-14.781-28.8-.375-1.05-1.576-1.5-2.476-.98" style="fill:#40b94f;fill-opacity:1;fill-rule:nonzero;stroke:none"></path></g><g clip-path="url(#M)"><path d="M49.894 266.05c6.377 17.4 23.859 28.5 32.337 32.93-2.401-3.68-5.852-9.6-10.129-18.98-.525-1.05-1.35-1.88-2.476-2.33-8.328-3.15-15.756-7.57-19.732-11.62m38.715-86.95c-.601.37-1.126.75-1.576 1.05-.675.45-1.35.98-2.101 1.58-3.001 2.25-7.428 5.77-11.779 10.12-2.776 2.78-9.979 10.58-16.206 21.83-6.903 12.46-10.279 24.76-9.904 36.61v.08c.3 9.97 4.952 13.2 4.952 13.2.975.97 4.351 2.85 10.054 3h.075c.375 0 .825.08 1.275.08 1.876 0 5.102-.3 9.454-1.51 5.252-1.35 10.954-3.67 17.106-6.9 3.076-1.65 7.203-3.9 10.881-6.15-2.253-2.7-3.978-4.87-5.179-6.75-1.05-1.5-3.151-1.95-4.651-.9-4.802 3-12.005 7.58-12.755 8.03-.601.37-8.854 5.85-16.732 5.85-2.926 0-5.477-.75-7.578-2.25-2.25-1.58-3.676-4.28-4.201-8.18-.75-5.33.3-12.6 2.926-20.48 2.476-7.65 6.302-14.93 10.429-19.95 5.627-6.91 9.379-10.21 12.68-13.13 3.151-2.7 5.777-5.1 9.378-9.9 1.876-2.55 2.926-4.28 3.452-5.33" style="fill:#40b94f;fill-opacity:1;fill-rule:nonzero;stroke:none"></path></g><g clip-path="url(#N)"><path d="M228.69 256.44c-.53 8.18-1.95 13.73-2.25 14.71-.23 1.05-.45 2.02-.75 2.85v.07c-.75 2.48-.9 4.95-.68 7.2.08-.3.15-.52.23-.82l.07-.08v-.07c.83-2.33 3.53-10.8 3.38-23.86m-33.02 14.18c-17.1 13.8-42.99 18.16-67 18.16-3.9 0-8.1-.15-11.85-.38-3.45-.22-5.7 3.53-3.83 6.45.98 1.5 2.03 3.08 3.15 4.65 2.56 3.68 6.68 5.85 11.11 6.08 1.72.07 3.6.15 5.33.15 16.5 0 47.19-3.45 66.92-26.63 6.38-7.5 9.38-16.73 8.85-27.46-.52-10.05-3.82-17.55-4.5-18.98-.37-.75-.75-1.65-1.2-2.62l-.07-.08c-1.58-4.05-3-7.35-4.28-10.2-1.35-3.15-2.48-5.63-3.23-7.8-.75-1.5-3.52-8.1.45-12.53 1.35-1.43 3.16-2.25 5.26-2.25 4.35 0 9.22 3.67 11.93 6.08a44 44 0 0 0-3.61-4.58c-4.5-5.18-8.62-7.73-11.32-9-1.66-.6-3.46-.98-4.13-.98-1.35 0-2.93.15-3.9.98-1.95 1.5-3.68 4.2-4.35 7.5-.83 3.9-.08 8.33 1.35 12.83.67 2.02 1.95 5.02 3.52 8.55 3.68 8.48 8.18 18.98 8.26 26.48.07 4.58-1.36 8.33-4.21 11.18-3.75 3.82-9.98 5.77-18.3 5.77-6.98 0-15.83-1.57-21.31-2.85-1.05-.3-2.1.45-2.25 1.5a38.8 38.8 0 0 0-.75 7.66v.07c0 1.43 1.05 2.63 2.47 2.93 24.31 4.87 41.49-.68 41.49-.68" style="fill:#40b94f;fill-opacity:1;fill-rule:nonzero;stroke:none"></path></g><g clip-path="url(#O)"><path d="M184.34 326.51c-1.87 0-3.3.45-4.8 1.2.6.45 1.2.9 1.58 1.42 1.27 1.51 1.72 3.38 1.35 5.33l-.08.45-.15.3c3.01-1.95 4.43-3.45 4.88-3.9l.08-.15s.07 0 .07-.07l.08-.08c1.72-1.95 1.95-3.08 1.8-3.23l-.08-.15-.07-.07c0-.08-.38-.45-1.8-.75-1.05-.15-1.95-.3-2.86-.3" style="fill:#40b94f;fill-opacity:1;fill-rule:nonzero;stroke:none"></path></g><g clip-path="url(#P)"><path d="M137.6 201.23c-1.65 0-3-.53-4.2-1.73s-1.8-2.32-1.8-3.45v-7.8l5.93-.07-.15-25.51h8.03l.15 38.48z" style="fill:#000;fill-opacity:1;fill-rule:nonzero;stroke:none"></path></g><g clip-path="url(#Q)"><path d="M137.53 201.23c-1.58 0-2.93-.6-4.13-1.73-1.2-1.2-1.8-2.32-1.8-3.45v-7.8l5.93-.07-.15-25.51h8.03l.22 38.48-8.03.08zm0 0 .07-.83 7.13-.07-.23-36.76h-6.22l.15 24.61v.9h-5.93v6.9c0 .97.53 1.87 1.5 2.92 1.05.98 2.18 1.5 3.53 1.5z" style="fill:#ed252c;fill-opacity:1;fill-rule:nonzero;stroke:none"></path></g></g><!-- source: https://football-logos.cc --></svg>