<svg xmlns="http://www.w3.org/2000/svg" viewBox="79.71 20.79 420.25 530.85"><!-- Source: https://football-logos.cc --><defs data-source="https://football-logos.cc"><clipPath id="a" clipPathUnits="userSpaceOnUse"><path d="M-217.38 413.724h432.4V-14.239h-432.4Z"></path></clipPath><clipPath id="b" clipPathUnits="userSpaceOnUse"><path d="M-145.492 22.888h432.4v-427.963h-432.4Z"></path></clipPath><clipPath id="c" clipPathUnits="userSpaceOnUse"><path d="M-346.966 185.326H85.435v-427.963h-432.4Z"></path></clipPath><clipPath id="d" clipPathUnits="userSpaceOnUse"><path d="M-322.223 308.954h432.401v-427.963h-432.4Z"></path></clipPath><clipPath id="e" clipPathUnits="userSpaceOnUse"><path d="M-161.15 175.156h432.4v-427.963h-432.4Z"></path></clipPath><clipPath id="f" clipPathUnits="userSpaceOnUse"><path d="M-193.516 145.859h432.4v-427.963h-432.4Z"></path></clipPath><clipPath id="g" clipPathUnits="userSpaceOnUse"><path d="M-235.797 142.263h432.4V-285.7h-432.4Z"></path></clipPath><clipPath id="h" clipPathUnits="userSpaceOnUse"><path d="M-309.396 153.836h432.4v-427.963h-432.4Z"></path></clipPath><clipPath id="i" clipPathUnits="userSpaceOnUse"><path d="M-286.058 314.19h432.4v-427.963h-432.4Z"></path></clipPath><clipPath id="j" clipPathUnits="userSpaceOnUse"><path d="M-228.993 327.462h432.4v-427.963h-432.4Z"></path></clipPath><clipPath id="k" clipPathUnits="userSpaceOnUse"><path d="M-213.731 329.452h432.4V-98.511h-432.4Z"></path></clipPath><clipPath id="l" clipPathUnits="userSpaceOnUse"><path d="M-341.798 92.562H90.603v-427.963h-432.4Z"></path></clipPath><clipPath id="m" clipPathUnits="userSpaceOnUse"><path d="M-313.264 84.6h432.4v-427.964h-432.4Z"></path></clipPath><clipPath id="n" clipPathUnits="userSpaceOnUse"><path d="M-286.722 73.319h432.4v-427.963h-432.4Z"></path></clipPath><clipPath id="o" clipPathUnits="userSpaceOnUse"><path d="M-256.862 68.674H175.54v-427.963h-432.4Z"></path></clipPath><clipPath id="p" clipPathUnits="userSpaceOnUse"><path d="M-226.339 76.637h432.401v-427.963h-432.4Z"></path></clipPath><clipPath id="q" clipPathUnits="userSpaceOnUse"><path d="M-212.404 42.795h432.401v-427.963h-432.4Z"></path></clipPath><clipPath id="r" clipPathUnits="userSpaceOnUse"><path d="M-172.59 95.88h432.4v-427.963h-432.4Z"></path></clipPath><clipPath id="s" clipPathUnits="userSpaceOnUse"><path d="M-138.143 95.977h432.401v-427.963h-432.4Z"></path></clipPath></defs><path d="M0 0c83.816 37.445 139.139 83.249 143.328 144.583l14.267 201.141-83.608 52.411H-73.987l-83.608-52.411 14.267-201.141C-139.139 83.249-83.816 37.445 0 0" clip-path="url(#a)" style="fill:#fff;fill-opacity:1;fill-rule:nonzero;stroke:none" transform="matrix(1.33333 0 0 -1.33333 289.84 551.632)"></path><path d="m0 0-78.116-48.968 13.957-196.769c1.897-27.777 14.84-52.793 39.573-76.497 22.498-21.561 54.098-41.394 96.474-60.583 42.375 19.189 73.976 39.022 96.473 60.583 24.733 23.704 37.678 48.72 39.574 76.479l13.957 196.787L143.776 0Z" clip-path="url(#b)" style="fill:#d72727;fill-opacity:1;fill-rule:nonzero;stroke:none" transform="matrix(1.33333 0 0 -1.33333 193.99 30.517)"></path><path d="M0 0c-21.941 49.766-71.704 84.507-129.586 84.507-57.88 0-107.643-34.739-129.586-84.503l-7.145 100.785 70.816 44.394h131.832l70.815-44.394C6.969 98.29 3.329 46.937 0 0m-5.493-77.517c-1.092-24.468-12.419-46.892-34.632-68.553-20.452-19.946-50.557-39.124-89.461-57.035-38.903 17.911-69.007 37.089-89.46 57.035-22.213 21.661-33.541 44.085-34.632 68.553l-.004.094-4.242 59.824c16.892 54.837 68.033 94.807 128.338 94.807 60.306 0 111.447-39.968 128.339-94.805l-4.241-59.826zm18.543 183.22-72.934 45.722a6.93 6.93 0 0 1-3.677 1.058h-132.048c-1.3 0-2.577-.368-3.678-1.058l-72.934-45.722a3.32 3.32 0 0 1-1.546-3.043l12.797-180.503c2.414-54.131 51.997-97.31 131.384-133.302C-50.198-175.153-.616-131.974 1.799-77.843L14.596 102.66a3.32 3.32 0 0 1-1.546 3.043" clip-path="url(#c)" style="fill:#fff;fill-opacity:1;fill-rule:nonzero;stroke:none" transform="matrix(1.33333 0 0 -1.33333 462.621 247.101)"></path><path d="M0 0v4.202c-1.846 2.724-1.914 5.459 0 8.183v26.101q-1.826 2.654 0 5.309v2.432l4.092 2.213v2.986l2.764 2.764v27.427s-4.201 3.318-4.201 5.087c2.875 1.771 4.201 7.521 4.201 7.521h-17.555s1.326-5.75 4.201-7.521c0-1.769-4.201-5.087-4.201-5.087V54.19l2.764-2.764V48.44l4.092-2.213v-2.432q1.824-2.655 0-5.309V12.385c1.914-2.724 1.846-5.459 0-8.183V0zm7.742 102.408h-17.917l-2.82-2.819v-4.258l2.82 2.819H7.742ZM-58.393 15.04V2.874h9.732v17.474c-5.554 1.304-5.972-6.414-9.732-5.308m0 24.993V23.887l5.916 2.434v17.694c-2.237-.031-4.318-.853-5.916-3.982m38.541-37.159h3.041v13.715h-3.041zm3.041 23.225v20.57h-30.855v-20.57h3.041v7.079c0 6.839 5.546 12.385 12.387 12.385 6.84 0 12.386-5.546 12.386-12.385v-7.079zm-25.38-6.193V2.874h19.906v17.032c-1.496 0-2.709 1.881-2.709 4.202s1.213 4.203 2.709 4.203v1.769c0 5.498-4.456 9.953-9.953 9.953s-9.953-4.455-9.953-9.953v-1.769c1.496 0 2.71-1.882 2.71-4.203s-1.214-4.202-2.71-4.202m-10.286 58.006-5.916-3.925V47.996l5.916 2.435zm35.666 4.811h-30.856V50.65h30.856zm0 9.953h-30.855l-8.488-7.105v-5.308l8.488 7.105h30.855zm-39.343-3.097 8.488 6.748 30.855.109v4.093l-30.855-.111-8.488-6.746zM-205.841 0v4.202c-1.846 2.724-1.914 5.459 0 8.183v26.101q-1.824 2.654 0 5.309v2.432l4.092 2.213v2.986l2.765 2.764v27.427s-4.203 3.318-4.203 5.087c2.875 1.771 4.203 7.521 4.203 7.521h-17.557s1.327-5.75 4.203-7.521c0-1.769-4.203-5.087-4.203-5.087V54.19l2.765-2.764V48.44l4.092-2.213v-2.432q1.824-2.655 0-5.309V12.385c1.914-2.724 1.846-5.459 0-8.183V0Zm-11.584 98.15h17.916l2.82-2.819v4.258l-2.82 2.819h-17.916zm56.402-77.802V2.874h9.732V15.04c-3.76-1.106-4.179 6.612-9.732 5.308m3.816 23.667V26.321l5.916-2.434v16.146c-1.598 3.129-3.68 3.951-5.916 3.982m-35.667-41.141h3.041v13.715h-3.041zm3.042 23.225v7.079c0 6.839 5.545 12.385 12.385 12.385 6.842 0 12.387-5.546 12.387-12.385v-7.079h3.041v20.57h-30.855v-20.57zm19.63-1.991c0 2.321 1.212 4.203 2.709 4.203v1.769c0 5.498-4.457 9.953-9.954 9.953-5.496 0-9.953-4.455-9.953-9.953v-1.769c1.497 0 2.71-1.882 2.71-4.203s-1.213-4.202-2.71-4.202V2.874h19.907v17.032c-1.497 0-2.709 1.881-2.709 4.202m12.995 26.323 5.916-2.435v25.991l-5.916 3.925zm-35.667.219h30.855v32.073h-30.855zm0 36.718h30.855l8.489-7.105v5.308l-8.489 7.105h-30.855zm39.344 6.304-8.489 6.746-30.855.111v-4.093l30.855-.109 8.489-6.748zm64.502-89.249v14.376c-2.321 0-4.202 1.784-4.202 3.982 0 2.2 1.881 3.982 4.202 3.982v6.636c0 9.284-7.08 16.81-15.814 16.81s-15.815-7.526-15.815-16.81v-6.636c2.322 0 4.203-1.782 4.203-3.982 0-2.198-1.881-3.982-4.203-3.982V4.423h-27.648V0h86.926v4.423zm-59.277 69.564V18.911h12.939V63.37h61.048V18.911h12.939v55.076Zm15.925-15.594V18.911h5.143v17.166c0 10.993 8.913 19.907 19.907 19.907h4.976c10.995 0 19.907-8.914 19.907-19.907V18.911h5.143v39.482zm71.001 26.21h-86.926v-5.641h86.926zm0 5.973h-86.926v-3.318h86.926zm-85.267 3.649c12.253 9.961 25.901 16.265 41.804 16.257s29.55-6.296 41.805-16.257z" clip-path="url(#d)" style="fill:#fff;fill-opacity:1;fill-rule:nonzero;stroke:none" transform="matrix(1.33333 0 0 -1.33333 429.63 411.939)"></path><path d="m0 0-.263 1.177L-11.87-.276l.388-1.468c.845-3.193.932-5.798.259-7.743-.653-1.888-1.83-3.234-3.598-4.116-2.446-1.221-4.869-1.209-7.408.035-2.628 1.288-5.26 4.545-7.823 9.68-2.405 4.819-3.329 8.715-2.747 11.577.564 2.778 2.056 4.736 4.561 5.986 1.792.894 3.531 1.094 5.317.614 1.827-.493 3.395-1.598 4.795-3.381l.867-1.104 8.749 7.706-.861.995c-2.734 3.157-5.58 5.281-8.46 6.312-4.833 1.748-9.847 1.358-14.894-1.161-5.759-2.874-9.41-7.366-10.852-13.351-1.42-5.899-.268-12.64 3.424-20.039 3.499-7.012 8.075-11.765 13.598-14.126 5.601-2.394 11.218-2.222 16.695.512 4.419 2.206 7.515 5.302 9.2 9.202C1.012-10.279 1.234-5.519 0 0" clip-path="url(#e)" style="fill:#fff;fill-opacity:1;fill-rule:nonzero;stroke:none" transform="matrix(1.33333 0 0 -1.33333 214.868 233.54)"></path><path d="M0 0c2.38-2.052 4.064-5.666 5.003-10.742.952-5.14.656-9.194-.878-12.047-1.501-2.793-3.705-4.424-6.737-4.984-3.034-.562-5.693.18-8.128 2.269-2.484 2.132-4.214 5.754-5.14 10.765-.944 5.097-.655 9.103.857 11.909 1.481 2.745 3.731 4.363 6.881 4.945C-4.992 2.698-2.329 2.005 0 0m16.528-8.843C15.054-.874 11.875 5.095 7.081 8.899 2.23 12.747-3.59 14.076-10.218 12.85c-3.638-.673-6.784-1.947-9.35-3.788-1.959-1.388-3.669-3.296-5.077-5.665a24.3 24.3 0 0 1-2.922-7.614c-.722-3.656-.623-8.016.292-12.963 1.443-7.799 4.588-13.668 9.347-17.444 4.816-3.822 10.648-5.132 17.334-3.895 6.61 1.222 11.546 4.537 14.672 9.852 3.088 5.25 3.912 11.92 2.45 19.824" clip-path="url(#f)" style="fill:#fff;fill-opacity:1;fill-rule:nonzero;stroke:none" transform="matrix(1.33333 0 0 -1.33333 258.022 194.478)"></path><path d="m0 0 2.566-.38c4.226-.628 5.978-1.118 6.705-1.419 1.337-.54 2.344-1.312 3.087-2.366.76-1.078 1.277-2.553 1.538-4.384q.14-.98.139-2.249c0-1.635-.173-3.626-.518-5.95-.524-3.535-1.221-6.302-2.067-8.223-.801-1.819-1.648-3.069-2.519-3.718-.882-.658-1.912-1.052-3.147-1.205-.686-.088-2.089-.104-4.929.317l-5.132.762zm25.268-7.061c-.508 3.337-1.561 6.297-3.128 8.8-1.602 2.558-3.73 4.513-6.327 5.812-1.923.953-4.668 1.685-8.399 2.239l-17.088 2.537-7.437-50.095L.444-40.373c3.369-.5 6.062-.539 8.235-.121 2.886.569 5.31 1.631 7.209 3.156 2.443 1.959 4.525 4.707 6.187 8.167 1.345 2.805 2.331 6.266 2.929 10.288.675 4.558.765 8.535.264 11.822" clip-path="url(#g)" style="fill:#fff;fill-opacity:1;fill-rule:nonzero;stroke:none" transform="matrix(1.33333 0 0 -1.33333 314.396 189.685)"></path><path d="m0 0-18.256-22.683 6.072 28.495-13.931 6.645-21.803-45.708 9.713-4.633 11.722 24.573-6.161-27.227 9.497-4.53 17.329 21.944-11.74-24.609 9.714-4.634L13.96-6.659z" clip-path="url(#h)" style="fill:#fff;fill-opacity:1;fill-rule:nonzero;stroke:none" transform="matrix(1.33333 0 0 -1.33333 412.528 205.115)"></path><path d="M0 0c-1.134-9.521 4.254-20.936-.664-27.869-3.404 1.154-1.652 5.183-1.99 7.963-.657 5.401-1.872 11.95-1.327 17.915.896.651 1.327 1.773 1.991 2.655C-.916.849-.85.041 0 0" clip-path="url(#i)" style="fill:#fff;fill-opacity:1;fill-rule:nonzero;stroke:none" transform="matrix(1.33333 0 0 -1.33333 381.411 418.92)"></path><path d="M0 0c2.216 0 2.263-2.156 4.645-1.99C5.261-.171 6.682.843 7.298 2.655 4.266 5.07.099 5.183 0 0m44.457-5.971c1.972-2.402 7.393-3.563 4.646-8.627-1.454-1.12-3.929.989-5.308 1.991-7.187-3.882-15.21.545-18.58 4.645-1.035-1.845-1.885-3.862-3.318-5.309-4.658-.729-13.63-1.672-17.252.664-2.933-1.606-10.472-2.229-13.272 0-2.707 6.583-1.579 17.001-3.318 24.551a9.35 9.35 0 0 1 3.318 3.319c3.57-6.032-1.34-22.767 5.972-24.552 3.325-.81 5.966 1.174 7.963 3.981.803-5.527 13.384-5.161 15.926-1.327-3.577 4.664-9.795 4.419-8.627 11.281 1.294 7.624 16.815 9.263 22.561 13.27.518-8.923-13.869-8.685-19.243-13.934 3.046-2.25 6.244-4.067 9.953-6.636 4.97-3.43 7.605-8.235 15.262-5.972-.756 7.651-1.466 15.342-3.317 21.898 2.057.378 1.744 3.118 3.981 3.317.159-2.056 1.844-2.573 2.653-3.981-2.859-5.136-.331-12.633 0-18.579" clip-path="url(#j)" style="fill:#fff;fill-opacity:1;fill-rule:nonzero;stroke:none" transform="matrix(1.33333 0 0 -1.33333 305.324 436.616)" data-source="https://football-logos.cc"></path><path d="M0 0c-1.692-1.202-1.832-4.36-1.991-5.308-1.937.491-1.287 3.582-3.981 3.317-1.606-2.376-2.535-5.428-6.636-5.308-2.435.219-1.918 3.39-4.645 3.318-.889-1.321-1.546-2.874-3.318-3.318-8.46.942-13.383-1.659-13.934-8.626 1.062-1.375 4.048-.817 5.308-1.991-4.3-1.785-17.047-3.125-18.579 1.991.187.816.807 1.206.706 2.317.241.503.599.972.885 1.236a1.162 1.162 0 0 1-1.577 1.706c-.66-.61-1.238-1.485-1.568-2.331-9.621-16.545 26.881-15.419 26.769-2.265-.372 2.282-4.373.936-4.645 3.318 3.862-.107 7.79-.272 9.953 1.327 5.468-4.173 11.062 2.454 15.926-.664C2.355-10.06 4.565-1.885 0 0m-29.861-27.87c-.264-1.725-1.977-2.003-1.99-3.981-2.708.418-4.738 2.614-5.308-1.327-1.819.617-2.827 2.037-4.645 2.654.265 1.725 1.977 2.003 1.99 3.982 4.101-2.84 6.397 2.906 9.953-1.328" clip-path="url(#k)" style="fill:#fff;fill-opacity:1;fill-rule:nonzero;stroke:none" transform="matrix(1.33333 0 0 -1.33333 284.975 439.27)"></path><path d="M0 0c1.129-11.035 1.076-23.251 1.991-34.505-5.96-1.221-5.084 5.82-5.308 10.617-.345 7.359-.04 16.37-1.328 22.561V0C-3.537 1.175-2.422-.59 0 0" clip-path="url(#l)" style="fill:#fff;fill-opacity:1;fill-rule:nonzero;stroke:none" transform="matrix(1.33333 0 0 -1.33333 455.73 123.416)"></path><path d="M0 0c-2.687-2.03.345-3.915.664-6.635 2.117-.571 2.05 1.041 3.318 1.327C3.351-2.84 2.927-.173 0 0m19.244-35.832c-7.326 3.291-14.075 7.16-20.57 11.28-1.441.113-.299-2.355-.664-3.318-2.302.353-3.537 1.779-5.972 1.992C-10.51-15.793-8.6-5.799-9.953 7.299h3.981c3.271-8.447-2.913-26.363 7.299-27.869 2.456 1.652-1.446 5.998.664 7.299 4.32.12 2.037-6.37 3.317-9.29 2.495-2.149 5.946-3.344 8.627-5.309 1.049 7.526-1.241 17.3-.663 26.543 2.029.478 2.415-.677 3.981-.664 1.46-10.484 1.333-22.553 1.991-33.841" clip-path="url(#m)" style="fill:#fff;fill-opacity:1;fill-rule:nonzero;stroke:none" transform="matrix(1.33333 0 0 -1.33333 417.686 112.799)"></path><path d="M0 0c-.145.518-.557.77-1.327.664-.186-1.361-1.772-1.328-2.654-1.991C-2.774-6.098 1.759-11.062 0-16.589c-4.672 1.301-8.261 3.683-10.617 7.299l-.224-.074.206.948.05.339a.72.72 0 0 1-.595.811.693.693 0 0 1-.795-.582l-.055-.382-.249-1.166a.8.8 0 0 1 0-.311c-2.129-8.345 8.941-12.59 16.924-14.181C4.956-14.067 1.586-7.929 0 0" clip-path="url(#n)" style="fill:#fff;fill-opacity:1;fill-rule:nonzero;stroke:none" transform="matrix(1.33333 0 0 -1.33333 382.296 97.758)"></path><path d="M0 0c1.918 1.434 5.946.545 7.3-.663l.051.154c.175-.456.292-.829.381-1.263a.574.574 0 1 1 1.126.227A9 9 0 0 1 8.35.093L8.627 0C8.653 11.573-7.764 5.323-3.981-3.317.359-6.94 5.667-9.595 7.3-15.925-2.979-19.488-12.7-12.408-11.279 0l-.095-.025c.15.39.382.795.608 1.16a.995.995 0 0 1-1.691 1.049c-.301-.484-.588-1.001-.792-1.548l-.022.028C-19.986-10.73-5.382-25.44 5.972-22.561 19.456-19.136 2.9-3.537 0 0m-7.298-20.57c-.273-.836-.856-1.354-1.991-1.327-.213-3.085 2.056-3.689 2.654-5.972 2.044-.491 1.274 1.824 3.318 1.327-.89 2.429-1.692 4.944-3.981 5.972m11.28-9.954c-.869-.231-1.042-1.167-1.991-1.326-2.946-.067-2.064 3.689-3.981 4.644.212 1.56 2.051 1.487 2.654 2.654 1.858-1.233 2.561-3.635 3.318-5.972" clip-path="url(#o)" style="fill:#fff;fill-opacity:1;fill-rule:nonzero;stroke:none" transform="matrix(1.33333 0 0 -1.33333 342.482 91.565)"></path><path d="M0 0h-3.317c-1.926 1.646-1.825 5.913-1.991 8.626-.472 7.738-.06 16.881-1.328 23.889v1.99h4.645C-1.48 22.847-.644 11.52 0 0" clip-path="url(#p)" style="fill:#fff;fill-opacity:1;fill-rule:nonzero;stroke:none" transform="matrix(1.33333 0 0 -1.33333 301.785 102.182)"></path><path d="M0 0c2.489-9.456 1.679-22.209 2.654-33.178-4.963-.789-8.586-2.919-13.271-3.981-.869-7.976-4.817-12.873-8.626-17.916-2.084.57-2.801 2.508-5.309 2.654 4.453 4.618 8.746 9.39 11.281 15.925-1.752 3.644-3.079 8.388 1.991 9.29.073-1.698.378-3.165 1.327-3.981 3.337.206 5.242 1.838 7.962 2.654.797 4.386-3.484 18.407-1.991 23.888C-3.258-1.99-.631-2.063 0 0" clip-path="url(#q)" style="fill:#fff;fill-opacity:1;fill-rule:nonzero;stroke:none" transform="matrix(1.33333 0 0 -1.33333 283.205 57.06)"></path><path d="M0 0c-.975-1.678-2.342-2.966-2.654-5.308C-1.088-5.514-1.42-7.611.664-7.299.816-4.797 3.165-4.492 3.318-1.99 1.938-1.599 1.175-.597 0 0m7.299 2.654C7.167.133 4.506.14 4.645-2.654c2.084.312 1.752-1.785 3.318-1.991.305 2.124 2.528 2.343 2.654 4.645-.524 1.466-2.323 1.659-3.318 2.654m3.318 20.571c.816-4.054.717-9.018.663-13.935C6.092 8.281 2.429 5.76-2.654 4.645-4.977 2.761-5.653-.756-9.953-.664c-.955 5.588-.896 14.56-1.327 21.898-.326 5.495-1.619 9.702 2.654 11.944.77.107 1.181-.146 1.327-.664-.099-7.67 1.274-17.232.664-23.224 5.6 1.261 10.703 3.006 15.261 5.308-.219 4.061-2.899 7.864 1.991 8.627" clip-path="url(#r)" style="fill:#fff;fill-opacity:1;fill-rule:nonzero;stroke:none" transform="matrix(1.33333 0 0 -1.33333 230.12 127.84)"></path><path d="M0 0c1.522-2.746 9.479 3.298 13.877 3.416-.637 3.118-.617 6.901-3.981 7.299-3.169-.719-3.907-3.87-6.454-5.21L2.415 4.014C1.466 2.684.565 1.419 0 0m-3.375-9.192-.038.019-.011-.077c-.062-.465-.125-.945-.414-1.333a.663.663 0 1 0-1.065.792c.083.112.126.433.164.716l.044.317a.6.6 0 0 0 .069.192l-.076.037c-2.469.014-6.417-3.217-7.963 0-2.701-1.944-4.34-4.949-8.626-5.308 1.639-9.283-6.908-13.788-13.935-16.589l-.995.332.331-.995c-10.437-4.605-14.95 7-9.953 13.934l.179-.06.023.115c.344 1.666.734 3.554 1.741 5.064a.855.855 0 1 0 1.422-.948c-.774-1.161-1.132-2.746-1.432-4.189l.058.018c-.299-3.835.291-6.781 1.99-8.626 8.607.02 13.683 3.571 17.253 8.626-1.493 3.186-6.171-.895-7.963 1.991.053 2.376 1.036 3.835 1.327 5.972 7.717-2.654 17.498 2.986 19.243 10.617 2.561.127.71-4.16 1.991-5.308C-6-3.964-3.598-2.429-2.301.204c.646 1.947 1.79 3.554 2.898 5.107l1.258 1.825q.07.1.157.182l-.079.079c2.177 4.234 5.733 9.814 9.954 9.29 6.164-.763 5.136-9.615 6.635-16.589-6.357-4.035-16.509-4.28-21.897-9.29M-35.2-31.756a5.7 5.7 0 0 1-.669 1.864.406.406 0 0 1-.705-.403 4.8 4.8 0 0 0 .583-1.59c-1.018-1.333-2.077-2.63-2.553-4.513 2.084.312 1.752-1.785 3.318-1.991 1.364 1.842 4.597 6.134.026 6.633m7.273 3.321c.166-2.382-1.991-2.428-1.991-4.645.857-1.135 1.374-2.608 3.318-2.654.438 2.216 2.064 3.245 2.655 5.308-1.401.591-1.965 2.017-3.982 1.991M5.915 19.341c-4.605 1.851-2.23 4.924 0 7.962 4.764-2.003 1.984-4.677 0-7.962" clip-path="url(#s)" style="fill:#fff;fill-opacity:1;fill-rule:nonzero;stroke:none" transform="matrix(1.33333 0 0 -1.33333 184.19 127.97)" data-source="https://football-logos.cc"></path><!-- source: https://football-logos.cc --></svg>