<svg xmlns="http://www.w3.org/2000/svg" xml:space="preserve" viewBox="15.09 11.54 630.5 540.29"><!-- Source: https://football-logos.cc --><defs data-source="https://football-logos.cc"><clipPath id="a" clipPathUnits="userSpaceOnUse"><path d="M0 427.963h496.475V0H0Z"></path></clipPath></defs><g clip-path="url(#a)" transform="matrix(1.33333 0 0 -1.33333 0 570.617)" data-source="https://football-logos.cc"><path d="M0 0c-5.862.343-11.551.499-16.988.462.074 1.792-.765 4.702-.939 6.612-.269 2.957 4.975-1.479 6.319-1.614 1.345-.134.806 1.344 1.882 3.092 2.284 5.378 5.512 10.217 12.099 19.896 4.817 7.079 15.092 13.218 20.269 16.008 2.543-6.501 3.797-13.222-.235-20.578C15.609 11.475 3.953 3.52-.002.004Zm-.192 270.225c.533.242 1.022.472 1.427.666 2.468 1.175 12.688 2.232 20.441-.235a23.2 23.2 0 0 1 5.021-1.032c-.146-.24-.311-.546-.524-.945-1.076-2.017-1.748-4.302-2.689-7.259s-3.898-6.319-11.157-13.175a302 302 0 0 0-4.142-3.819C6.251 247.54-1.573 259.6-.192 270.225m-15.135-17.894c-1.816-12.076-4.993-16.666-5.198-23.146a801 801 0 0 1-6.451 4.639c-3.583 2.529-4.435 3.328-8.197 4.899-1.52 3.035-2.295 6.248-2.295 9.624 0 6.834 3.176 12.213 4.15 13.7l.717 1.096-.651 1.137-5.235 9.147-.511.893c.913.365 2.386.683 4.641.683 4.111 0 7.426.369 14.449-3.993 7.752-4.817 4.581-18.679 4.581-18.679m-202.694-63.539c-.671.662-1.777 1.002-3.435-.671a49 49 0 0 1-1.431 1.267s1.835 4.976-3.753 20.368c0 .996 1.276 5.407 2.377 6.287.061-.43.118-.795.162-1.073l.254-1.578 1.585-.204c.811-.103 2.411-.407 4.028-1.275 2.034-1.073 4.439-3.319 4.417-7.968 0-5.343-1.699-10.201-4.204-15.153m-5.266-9.27a546 546 0 0 1-1.709-2.867 153 153 0 0 1-2.438-4.268c.298 2.039.655 4.221 1.629 5.89.99 1.697 2.354 2.419 3.499 2.889zM72.504-11.859S85.616 9.804 86.185 14.934c0 0-16.796-21.297-63.798-17.023l.003.003-.069.005.088.013c.235.047.368.04.441.021-.125.168-.285.851.499 3.203 1.479 4.437 2.689 4.706 4.436 4.437 1.732-.266 1.882 2.688 1.478 4.571-1.176 5.49-.94 5.513 11.832 21.645s7.527 18.148 3.629 21.241c-4.706 3.897-6.63 5.476-10.218 9.811-5.484 6.628.101 21.214 1.901 25.442.865.189 2.362.615 5.028 1.882.448-.644 1.521-1.321 2.4-2.477 1.441-1.896.758-3.87 6.903-5.614 6.146-1.745 11.456-3.794 8.573-8.877-1.441-2.276 1.594 2.579 2.884 3.794s2.275.227 3.261-.911c-.454 2.958-.607 7.056 2.2 5.994 3.372-1.276 11.836-5.311 13.732-5.615 2.01-.322-9.027 4.401-5.311 9.864 3.717 5.461 17.769 11.125 14.946 21.243-2.2 7.889-.129-.919-4.096-2.428-3.793-1.442 2.427.91-.151 4.855-.911-3.187-2.429-3.187-5.311-1.896 7.131 10.924.151 30.042 11.379 32.165-2.579 2.125-8.42 1.519-11.151.531 2.124 3.414 6.068 5.387 7.662 7.132 0 0-5.614.455-10.697-2.351 0 0 4.25 10.848 8.877 9.861 3.579-.762-.783 1.153-3.225 3.184-.677 1.448-1.31 2.967-.403 2.967 1.709 0 12.421-7.972 10.448-13.813 0 0 11.305 22.91-10.622 27.31 0 0 5.158 5.69 4.932 5.538-4.705.152-28.979 6.146-35.579-15.931-2.579 5.993-2.199 7.36-2.503 9.105-4.35-1.398-10.331-6.461-6.292-17.802s10.997-17.173 16.46-26.277c6.655-11.092 7.952-28.162-1.214-33.911-5.064-2.981-8.176-1.678-9.451-.804 11.845 7.85 8.472 24.36 7.679 27.264-3.764 4.302-5.648 9.141-5.648 9.141-.782 1.228-1.514 2.449-2 3.197l-.005.007a6313 6313 0 0 1-7.169 13.14c-1.926 6.035-4.326 15.311-3.643 23.506 1.532 18.394 6.208 30.659 13.874 43.584.234-.966.548-2.01.967-3.125 4.032-9.122 16.459-12.755 23.798-10.709-7.735 2.578-14.312 10.161-16.692 15.713 1.127.531 4.703 1.141 5.718-1.566l.373 1.64c3.206 2.102 12.819-.125 13.861 3.205l1.283 4.987c-11.111-2.671-11.498 8.943-9.491 15.056 3.167-.548 14.261-1.86 20.323 5.324-3.706-1.424-6.648-1.52-6.648-1.52-7.868.595 3.057 6.093-7.645 9.191.033 11.458-6.61 16.934 4.573 17.462-3.968 1.035-10.217 8.253-9.159 9.972 2.248-.992 7.065-.406 9.52-2.115 1.85-3.107-2.115-1.785-3.155-1.155 3.155-3.34 4.564-.268 7.385-1.291 1.123 3.578-5.122 3.731-6.808 4.759-2.592 1.741-5.062 5.575-1.69 11.945-5.362-4.797-4.078-1.619-4.078-1.619.845 2.798-.86 5.116-1.602 6.457.155.603.519 1.21 1.209 1.827 2.641-5.201 6.558-3.115 8.612-7.931.802 5.137-6.201 4.427-6.196 6.999 3.956 2.557-1.027 7.159 4.652 10.08h-4.75l-2.288 1.649c-6.794-3.58-11.201 3.198-22.559 1.603.283.439 1.406 2.205 1.406 2.205l-7.544.372a26 26 0 0 0 2.478 1.783c-4.208 2.91-8.949.566-12.416-2.642-1.513-.208-6.35-.452-6.861 4.832-1.56-2.098-4.661-7.597-3.499-15.886a19 19 0 0 1-2.684-.554c-2.889-.845-7.061-1.902-13.874-5.309-6.224-3.112-8.458-4.229-12.568-5.169-12.217-1.644-14.215-1.644-15.859-3.758a9.8 9.8 0 0 1-1.049-1.719c-3.967.139-13.777.4-26.144-.277-12.256-.672-18.973-8.099-21.291-11.073h-47.001c18.544 4.975 32.2 21.892 32.2 42.007 0 24.022-19.477 43.496-43.498 43.496-24.024 0-43.497-19.474-43.497-43.496 0-20.115 13.654-37.032 32.198-42.007h-75.114l-.616-1.076-5.235-9.147-.651-1.137.718-1.096c.973-1.487 4.149-6.866 4.149-13.7 0-6.608-2.941-12.594-8.729-17.827-2.613-.538-3.247-3.023-4.408-3.167a1.1 1.1 0 0 0-.439.032c.501.374 1.017 1.124 1.629 2.367 1.739 3.531 3.607 6.193 4.398 5.138 0 0-2.266 5.851-6.009-2.161-1.16-2.424-2.267-2.424-3.321-.738-1.054 1.687-5.007.844-5.693-7.063-.229-4.166 1.489-6.267 2.187-9.993-.22-1.612-.64-3.797-1.651-5.609-3.098-5.552-8.909-9.813-9.943-9.555-.528.755-1.1 2.57-1.692 4.205-.935 5.821-2.456 11.66-4.836 17.318.8 1.569 1.925 4.688 3.377 6.669 2.352 3.206 2.526 10.086 4.704 23.515 1.924 11.865.547 21.894 3.219 25.528 10.532 18.505 33.098 4.881 36.604 2.61.023-.046.047-.087.07-.131-.393-1.995-1.416-3.018-1.416-3.018s9.116 2.607-.746 14.88c-.755.515-1.619 1.167-2.175 1.217-1.619 3.289-5.354 7.504-9.005 11.154-19.295 18.704-33.836 10.921-40.336 7.816s-27.846-18.725-43.661-36.868c-3.163-3.629-5.894-7.461-8.284-11.388a4.3 4.3 0 0 0-.862-.221c-1.282-.142-3.847 8.837-8.266 12.685-2.813 2.449-15.248-15.677-20.237-28.361-5.989-15.23-12.935-48.996-9.087-73.366.713 4.988 3.084 7.638 4.367 9.775q.34.599.668 1.167c-1.391-13.345-3.929-34.346-3.929-34.346 1.22 2.825 3.889 6.623 6.917 10.449.101-2.207.284-12.545-3.663-31.652 0 0 4.927 4.38 7.524 6.487-3.567-9.529-6.529-20.543-6.22-30.377 0 0 5.437 4.831 7.895 6.783-1.982-8.175-3.509-17.543-2.274-23.964 1.056 1.371 2.016 2.614 2.893 3.749-1.408-7.195 7.022-27.129 7.022-27.129.714 9.034 9.454 36.793 12.338 45.766.196-9.305-.212-20.055-.71-29.58.788.83 3.392 2.325 6.132 5.374.177-2.603.892-5.651 2.632-8.926a39.6 39.6 0 0 0 4.109-12.294c-1.657.795-5.878 3.086-7.357 6.415-1.856 4.177-1.546-.232-.928-2.398.47-1.646 1.121-1.996 1.812-2.409 2.274-5.82 9.223-27.363-.73-52.738 0 0-3.695-9.401 1.625.773.304.581 9.465 12.484 12.165 18.753-.024-4.578-.31-9.788-1.087-14.06-1.503-8.263-.109-3.004 1.394-1.072 1.313 1.687 6.063 3.292 8.246 4.888-.103-6.503-1.023-12.802-3.202-18.303 0 0-5.38-9.065 1.289-.967 1.196 1.453 6.851 5.023 10.32 9.499.225-6.601.107-11.828-.125-14.108.645.751 1.718.858 2.468 2.039.752 1.181 2.148.321 2.148 2.36.395 3.789 4.037 10.533 5.939 13.839 1.209-2.552 2.893-3.544 8.1-6.614 1.545-2.342 3.052-5.556 2.943-9.264-.026-.912 1.447 3.2 1.37 4.427-.184 2.953-.922 14.578 0 16.792.22.528.524.937.858 1.256 10.167-7.448 24.445-13.469 27.476-11.849-1.867 9.451-11.3 16.861-19.8 26.303.675.237 2.226.56 4.847-.095 3.667-.916 10.465-1.883 6.168 3.585-4.583 5.833-22.953 18.84-25.168 23.834-3.916 8.834-4.333 9.667-15.335 22.749-6.223 7.402-10.582 20.334-8.998 23.917.778 1.762 1.655 2.737 2.081 3.423 1.699-1.353 3.618-3.416 5.75-6.553.023 2.233.112 4.143.247 5.789 1.57-7.135 4.948-17.698 8.522-22.372 1.156 3.337 2.822 6.928 3.806 9.753 2.772-6.157 2.917-9.207 4.13-13.614 3.24 11.842 7.353 14.211 8.6 23.311 1.134 8.277 1.267 35.696 3.627 45.086 1.231-1.822 2.084-2.947 2.084-2.947-.024 1.816.036 3.817.139 5.959.87-1.438 2.137-3.027 4.019-4.658 2.272-1.968 1.995-.996 3.277.428.948 1.053 3.056-1.394 3.98-3.951-1.669-5.952-2.74-12.482-2.74-19.599 0-12.914 4.238-24.538 12.257-33.616 8.797-9.956 21.843-16.24 37.729-18.171 3.192-.384 6.238-.726 9.183-1.056 11.266-1.263 20.995-2.354 28.55-4.833 9.841-3.205 15.6-8.897 18.68-18.46l.477-1.483h12.239l.478 1.483c3.079 9.563 8.838 15.255 18.674 18.458 7.56 2.481 17.289 3.572 28.554 4.835 2.946.33 5.992.672 9.182 1.055 15.889 1.932 28.935 8.216 37.731 18.172 8.019 9.078 12.257 20.702 12.257 33.616 0 18.532-7.223 33.117-13.517 43.753-.57.964-1.142 1.919-1.708 2.866-5.082 8.494-9.47 15.83-9.47 24.411-.022 4.66 2.383 6.906 4.404 7.972.598.321 1.191.564 1.743.749 1.627-.815 4.082-2.52 6.016-5.935.307-.543.592-1.14.884-1.782.891-3.181-.25-7.245-.582-10.321-.433-4.013-.59-6.781-.226-10.799.403-4.46 1.568-7.839 3.705-12.542 4.138-9.105 10.473-21.185 12.127-31.095.75-4.498.74-9.111.415-13.655-.339-4.736-.68-6.631-1.76-11.743-3.5-5.704-6.731-11.966-9.392-17.922-3.721-8.324-1.027-13.732 4.413-20.243 5.217-6.245 11.359-11.856 13.721-19.855.953-3.225.526-8.068-.842-11.192a31.3 31.3 0 0 0-4.17-6.96c-4.061-5.124-8.794-9.731-13.529-14.223-3.272-3.106-8.132-8.039-11.302-11.251-4.53-4.591-7.03-8.369-8.84-14.133-4.182-.53-8.082-1.188-11.616-1.979l5.674 6.956 10.73 29.483.588 1.619-1.621.579c-34.447 12.278-68.109 16.465-96.757 16.465s-62.311-4.187-96.757-16.465l-1.621-.579.588-1.619 10.729-29.483 5.674-6.956c-17.056 3.818-42.288 4.731-69.823 1.378-50.52-6.154-68.409 16.531-68.409 16.531.569-5.13 13.682-26.793 13.682-26.793s-7.412.855-30.5 3.991c21.092-34.775 68.472-34.932 105.749-24.229 28.788 8.267 55.297-13.111 55.297-13.111.57.57 14.822 32.209 14.822 32.209l-6.301 21.527c13.8 2.402 40.076 4.976 66.87 4.976 26.792 0 53.069-2.574 66.87-4.976l-6.302-21.527s14.253-31.639 14.823-32.209c0 0 26.508 21.378 55.296 13.111C34.532-42.8 81.912-42.643 103.004-7.868c-23.088-3.136-30.5-3.991-30.5-3.991" style="fill:#006838;fill-opacity:1;fill-rule:nonzero;stroke:none" transform="translate(381.188 59.3)"></path><path d="M0 0s-11.194-23.334-11.971-25.084c-7.697 5.987-23.75 17.182-57.578 9.692-39.907-8.836-74.966-5.985-93.208 17.388l27.364-2.851-10.547 19.382s17.673-13.681 68.409-8.266c29.202 3.407 60.712-.855 72.684-6.555C-2.512 2.595-1.209 1.417 0 0" style="fill:#fff;fill-opacity:1;fill-rule:nonzero;stroke:none" transform="translate(182.056 45.16)"></path><path d="M0 0c-44.183 0-78.142-6.936-84.941-8.765l-9.044 24.853C-60.549 27.775-27.867 31.783 0 31.783s60.549-4.008 93.984-15.695L84.94-8.765C78.141-6.936 44.182 0 0 0" style="fill:#fff;fill-opacity:1;fill-rule:nonzero;stroke:none" transform="translate(247.755 76.223)"></path><path d="M0 0c-33.829 7.491-49.882-3.705-57.578-9.691-.778 1.749-11.971 25.083-11.971 25.083 1.209 1.418 2.511 2.595 4.846 3.706 11.972 5.7 43.482 9.962 72.684 6.555C58.717 20.238 76.39 33.92 76.39 33.92L65.843 14.537l27.364 2.851C74.965-5.985 39.906-8.835 0 0" style="fill:#fff;fill-opacity:1;fill-rule:nonzero;stroke:none" transform="translate(383.003 29.768)"></path><path d="M0 0q-1.127-.597-2.736-.871v-4.316q.798.035 1.621.191.823.155 1.717.44v-11.113h6.105V1.527H1.806Q1.128.596 0 0" style="fill:#006838;fill-opacity:1;fill-rule:nonzero;stroke:none" transform="translate(207.254 97.943)"></path><path d="M0 0q-.84-.423-2.581-.423-1.765 0-2.6.417-.834.418-.835 1.3 0 .882.842 1.305.839.424 2.593.424 1.729 0 2.575-.429.847-.43.847-1.3T0 0m5.521 5.193Q2.796 7.352-3.214 7.352q-4.925 0-7.404-1.521t-2.48-4.537q0-2.815 2.372-4.274 2.373-1.462 6.928-1.462 1.515 0 2.821.245 1.305.243 2.45.746-.25-1.54-1.324-2.279-1.073-.738-3.04-.738-1.443 0-2.182.273-.74.275-.895.871h-6.916q.334-2.754 2.863-4.114 2.526-1.36 7.345-1.359 5.556 0 8.239 2.242 2.683 2.24 2.683 6.868 0 4.722-2.725 6.88" style="fill:#006838;fill-opacity:1;fill-rule:nonzero;stroke:none" transform="translate(235.86 92.583)"></path><path d="M0 0q-.847-.423-2.575-.423-1.752 0-2.594.423-.84.422-.84 1.305t.84 1.306q.842.423 2.594.423 1.728 0 2.575-.429.847-.43.847-1.3Q.847.422 0 0m5.569 5.592q-2.385 1.473-6.94 1.472a14.8 14.8 0 0 1-2.796-.251 11.3 11.3 0 0 1-2.487-.774q.264 1.55 1.348 2.301t3.053.752q1.42 0 2.158-.281.74-.28.895-.888h6.939q-.333 2.755-2.861 4.114-2.53 1.36-7.345 1.36-5.558 0-8.24-2.249t-2.683-6.862q0-4.734 2.718-6.886t8.717-2.152q4.924 0 7.417 1.52t2.492 4.537q0 2.814-2.385 4.287" style="fill:#006838;fill-opacity:1;fill-rule:nonzero;stroke:none" transform="translate(283.037 86.538)"></path><path d="M0 0q-2.498 1.502-7.292 1.502a22.5 22.5 0 0 1-2.855-.166 15 15 0 0 1-2.427-.514l.346 1.909H1.473V6.88h-18.101l-1.729-9.742h6.761q.716.273 1.502.417a9.3 9.3 0 0 0 1.681.143q1.896 0 2.839-.501.94-.5.941-1.502 0-.965-.905-1.449-.908-.483-2.684-.483-1.8 0-2.725.406-.924.405-1.019 1.228h-7.202q.132-3.231 2.641-4.68t8.114-1.449q5.355 0 8.133 1.615Q2.498-7.5 2.498-4.376 2.498-1.503 0 0" style="fill:#006838;fill-opacity:1;fill-rule:nonzero;stroke:none" transform="translate(265.074 92.59)"></path><path d="m0 0 5.235-9.147C4.163-10.783.737-16.556.737-24.018c0-6.492 2.671-14.233 11.629-21.272-.177-5.782-.813-10.188-1.067-11.766-.979-.125-2.85-.483-4.766-1.512C3.787-60.016.964-63.038.989-68.43c0-10.19 5.788-18.734 11.475-28.367 5.707-9.644 13.22-23.959 13.22-42.664 0-23.645-15.224-45.667-48.107-49.665-15.761-1.9-28.414-2.786-38.142-5.98-9.689-3.155-16.498-8.812-20.048-19.836h-9.124c-3.549 11.024-10.357 16.681-20.047 19.836-9.728 3.194-22.38 4.08-38.142 5.98-32.883 3.998-48.107 26.02-48.107 49.665 0 18.705 7.514 33.02 13.22 42.664 5.688 9.633 11.476 18.177 11.476 28.367.025 5.392-2.798 8.414-5.544 9.862-1.917 1.029-3.788 1.387-4.767 1.512-.253 1.578-.89 5.984-1.066 11.766 8.957 7.039 11.629 14.78 11.629 21.272 0 7.462-3.427 13.235-4.498 14.871L-170.349 0z" style="fill:#fff;fill-opacity:1;fill-rule:nonzero;stroke:none" transform="translate(340.846 331.664)"></path><path d="M0 0c.095-1.159.142-2.334.142-3.517a42.1 42.1 0 0 0-6.254-22.156l-.159.436-1.491 4.133c2.703 5.276 4.224 11.253 4.224 17.671z" style="fill:#fff;fill-opacity:1;fill-rule:nonzero;stroke:none" transform="translate(297.85 379.326)"></path><path d="m0 0-6.144-1.79-7.474-2.539-9.729 9.729 1.867 5.75 2.314 7.121 14.365 6.04 4.268-3.875 4.299-4.307C3.766 10.336 2.411 4.859 0 0" style="fill:#fff;fill-opacity:1;fill-rule:nonzero;stroke:none" transform="translate(288.238 359.68)"></path><path d="m0 0-.144.175-4.85.352a38.7 38.7 0 0 1-16.881 11.901l-2.011 4.481C-14.047 14.27-5.628 8.171 0 0" style="fill:#fff;fill-opacity:1;fill-rule:nonzero;stroke:none" transform="translate(290.55 399.78)"></path><path d="m0 0 5.637 2.967 4.491 2.363A36.4 36.4 0 0 0 27.357-6.411l-.798-5.881-.941-6.887-14.235-5.987-5.378 3.906L0-16.895Z" style="fill:#fff;fill-opacity:1;fill-rule:nonzero;stroke:none" transform="translate(256.518 405.125)"></path><path d="m0 0 5.591-2.941v-17.371L.202-24.226l-5.605-4.099-14.891 2.905-1.81 6.425-1.677 5.942C-19.314-5.905-12.432-.423-4.275 2.248z" style="fill:#fff;fill-opacity:1;fill-rule:nonzero;stroke:none" transform="translate(248.619 408.092)"></path><path d="m0 0-2.041-4.549a38.8 38.8 0 0 1-19.212-15.86l-4.805-1.035C-20.769-11.114-11.363-3.243 0 0" style="fill:#fff;fill-opacity:1;fill-rule:nonzero;stroke:none" transform="translate(244.03 416.508)"></path><path d="M0 0c-6.742 7.155-11.027 16.654-11.487 27.147l.322-.234 3.607-2.636A38.4 38.4 0 0 1 .515 5.01Z" style="fill:#fff;fill-opacity:1;fill-rule:nonzero;stroke:none" transform="translate(224.877 346.793)"></path><path d="m0 0-5.775.226a36.2 36.2 0 0 0-7.732 17.991l4.048 4.865 3.839 4.616 14.85-2.899 2.195-6.745 2.1-6.475L5.934-.232z" style="fill:#fff;fill-opacity:1;fill-rule:nonzero;stroke:none" transform="translate(233.159 352.776)"></path><path d="M0 0h15.525l9.876-9.875-1.456-4.41-1.941-5.896A36.2 36.2 0 0 0 7.26-23.298a36.5 36.5 0 0 0-7.105.694l-3.683 5.839-3.589 5.692z" style="fill:#fff;fill-opacity:1;fill-rule:nonzero;stroke:none" transform="translate(248.411 362.772)"></path><path d="M0 0a42 42 0 0 0-7.344 1.559l.668.482 3.178 2.295a38.8 38.8 0 0 1 8.649-.971c5.668 0 11.053 1.22 15.9 3.412l4.56-1.829A42.1 42.1 0 0 0 10.257 0Z" style="fill:#fff;fill-opacity:1;fill-rule:nonzero;stroke:none" transform="translate(250.52 333.802)"></path><path d="M0 0c0 7.972 6.16 12.879 11.761 14.422 0 0 .58 2.319.499 6.283C3.872 27.719 1.472 35.156 1.472 41.688c0 9.752 5.517 17.644 5.517 17.644L4.575 64.14H-8.733V49.309h-14.751V64.14h-14.751V49.309h-14.75V64.14h-14.751V49.309h-14.751V64.14h-14.75V49.309h-14.75V64.14h-14.751V49.309h-14.751V64.14h-20.491l-2.414-4.808s5.517-7.892 5.517-17.644c0-6.532-2.4-13.969-10.788-20.983-.081-3.964.499-6.283.499-6.283 5.601-1.543 11.761-6.45 11.761-14.422 0-16.355-26.123-39.977-26.123-67.322 0-14.4 6.024-32.589 21.441-40.877 12.115-6.512 26.204-7 39.796-8.703 16.871-2.114 34.776-5.509 43.588-25.798 8.813 20.289 26.718 23.684 43.589 25.798 13.592 1.703 27.681 2.191 39.796 8.703 15.417 8.288 21.44 26.477 21.44 40.877C26.122-39.977 0-16.355 0 0" style="fill:#006838;fill-opacity:1;fill-rule:nonzero;stroke:none" transform="translate(334.374 263.213)"></path><path d="m0 0 181.507 102.841a29 29 0 0 1-.341-4.356c0-8.165 3.632-15.424 10.795-21.583.01-2.207-.192-3.82-.334-4.676-6.061-1.964-11.933-7.37-11.933-15.429 0-1.433.187-2.906.522-4.419L10.831-43.594C2.058-34.279-1.266-20.833-1.266-10.525-1.266-6.953-.796-3.444 0 0" style="fill:#fff;fill-opacity:1;fill-rule:nonzero;stroke:none" transform="translate(153.396 206.416)"></path><path d="M0 0c-.299.807-.598 1.475-.906 2.002-.39.673-.965 1.244-1.733 1.719q-.178.087-2.26 1.13c.007-1.149 0-2.173-.012-3.076q1.524-.468 3.114-1.884l-4.861-2.797-.001.001-1.223-.706q-.479-.273-3.011 2.264c-1.062 1.092-2.124 2.194-3.199 3.303q-.027-1.167.183-3.411.315-.263 1.743-1.681 1.405-1.427 1.465-1.584l.223-.384-4.546-2.617c-.402-.231-.804.007-1.215.706-.052.099-.249.508-.58 1.233q-.431-.695.16-2.495.441-1.313 1.051-2.368.36-.621.989-.261l4.808 2.766q.311.181.255 1.106-.079.914.014 1.033.419-.339.835-.672.604-.484.866-.331l2.317 1.332L.768-2.051Q.706-1.892 0 0m-20.735-18.45q-.255-.115-1.126-.105-.883-.027-1.112.093c-.047-.366-.223-1.105-.54-2.227.336-.129 1.139-.098 2.422.084q.071.49.471 1.516 1.602 0 2.434.06c.258.658.435 1.409.522 2.251l-2.51-.038q-.152-.57-.561-1.634M-1.159-5.969q-.232-.103-1.128-.044-.926.043-1.143.143a72 72 0 0 1-.468-2.346q.295-.12 1.21-.103.917-.02 1.303.079.018.36.341 1.569.879-.069 2.501 0 .308.69.408 2.344l-2.519.085a22 22 0 0 0-.505-1.727m18.154 9.615q.175-.247 1.396-.411 1.214-.164 1.501.002.096.058.475 1.232c.235.775.359 1.258.372 1.459-.078.065-1.11.202-3.099.422q-.239-.136-.645-2.704m13.448 16.525q-1.514 2.612-4.562 6.324-.095-3.765.118-4.024l5.483-7.133c.105.996.088 1.841-.054 2.525q-.233 1.015-.985 2.308m49.389 27.657a124 124 0 0 0-2.161 3.068l.554 3.356q-.543-.118-1.298-.078-.952.028-1.923.046-.751.141-1.27 1.028c-.242-.395-.311-1.652-.217-3.771q.276-.094 1.144-.202.999-1.117 2.013-2.262c.829-.948 1.419-1.784 1.771-2.496l.17-.349-2.575-1.482v-.001l-3.75-2.157q1.067 1.64 2.441 2.428-.034 1.548-.17 2.617-2.27-1.338-3.041-1.557-1.426-.31-2.826-.605-2.246-.493-2.897-.868-1.345-.774-1.378-2.326-.009-.868.533-2.856-.043 1.348 1.566 2.278c.212.118.756.282 1.64.493.865.199 1.475.317 1.821.345q-.554-1.756-2.478-2.865a39 39 0 0 0-1.399-.739c-.229-.11-.432-.211-.624-.308l-.019.032c-.606-.348-1.102-.475-1.481-.372q-.457.12-.935.836t-.957 1.43c-.531-1.075-.496-2.266.115-3.576l-.035-.212-1.614-.927q-.438 1.373-1.478 3.271-.448-.61-.469-3.116l.206-.297q-.001 0 .205-.522-.22-.347-.218-.348l-2.691-1.549q-.669 2.811-1.086 3.53-.343-.516-.2-2.417.105-1.792.035-1.831l-1.325-.764v.001q-1.199-.69-1.327-.699-.378-.06-.895.825a6.8 6.8 0 0 1-2.848 2.707l-.033-3.151q1.448-.733 1.905-1.522l-3.775-2.173-5.53-3.182a81 81 0 0 1-.137-1.645q-.049-1.02.109-1.569 1.135.527 2.236 1.064 1.326.477 2.365-.044c-.248-.379-.854-.948-1.8-1.706q-1.285-.997-2.104-1.465a4.4 4.4 0 0 0-2.413-.591q-1.518.02-2.115 1.05-1.042 1.798-.288 5.202c-.609-.906-.954-2.177-1.026-3.819q-.115-2.46.692-3.849c.611-1.055 1.478-1.598 2.611-1.631q1.409-.05 3.091.92 1.011.58 2.329 1.787 1.442 1.276 1.924 2.16.369.694.39 1.983-.022 1.04-.05 2.08l1.203.692 4.016 2.311-.337 1.851q.724-.638 1.108-.801.625-.248 1.295.139l.626.36 1.036.595q.405.236.542.888.258.054.683-.181l3.246 1.865c.064.188.176.443.328.766.205.012.452-.041.731-.155l2.982 1.716.099.985q.36-.339.693-.528l1.854 1.065-.001.001 2.548 1.465q.647.375.972 2.03.3 1.64.951 2.017l.529-.972q.311-.59.82-1.191l4.882 2.809 2.777 1.567q.674.388.318 1.941-.315 1.317-.911 2.127M25.726 16.69q-.743 1.01-2.161 3.069l.558 3.357q-.546-.119-1.304-.079-.948.03-1.918.047-.755.14-1.27 1.026-.361-.592-.219-3.769.278-.096 1.143-.205c.669-.745 1.338-1.5 2.016-2.258q1.241-1.426 1.768-2.5l.17-.347-2.575-1.479.001-.003-3.75-2.157q1.07 1.638 2.441 2.426-.03 1.55-.17 2.62-2.271-1.34-3.042-1.559a478 478 0 0 0-2.824-.603q-2.248-.495-2.899-.869-1.346-.772-1.374-2.326c-.011-.577.169-1.531.53-2.855q-.044 1.345 1.57 2.275c.209.119.751.283 1.636.495.865.199 1.476.314 1.821.342-.369-1.169-1.196-2.126-2.478-2.862q-.41-.236-1.399-.741a32 32 0 0 1-1.142-.572l-.005.009-.346-.201-.063-.034.001-.001-.818-.471q-.48-.278-3.013 2.262-1.589 1.638-3.196 3.305-.03-1.167.181-3.411c.212-.176.793-.74 1.745-1.682q1.404-1.427 1.464-1.586l.222-.381L2.48 2.355q-.597-.345-1.21.706-.083.148-.584 1.231C.399 3.828.45 2.997.848 1.799 1.141.924 1.489.135 1.9-.57c.241-.416.57-.501.987-.264l4.807 2.769c.207.121.296.49.257 1.107q-.082.914.014 1.03.415-.336.834-.669.605-.485.869-.333l2.258 1.302v-.001l3.461 1.994q.651.372.974 2.029.3 1.64.951 2.016l.531-.975q.307-.589.817-1.191l5.01 2.885 2.653 1.495q.668.386.316 1.94-.317 1.32-.913 2.126m-46.793-34.788q.126.23.561 1.633l1.141.018q1.282 1.663 1.432 2.07c.164.456.141 1.292-.078 2.512q-.25 1.483-.486 1.892c-.241.414-.755.478-1.555.191q-1.039-.471-2.144-.944-1.128-.494-1.445.061-.009 1.111.544 2.261.608 1.277 1.499 1.79.508.292.967.047.142-.077.807-.623c-.121.251-.223.701-.303 1.359q-.147.969-.393 1.402c-.412.7-1.022.818-1.84.348q-1.756-1.01-2.142-4.11c-.236-1.946-.008-3.527.695-4.742.477-.815 1.415-.815 2.829-.003.14.082.328.188.552.318q.346.232.465.301-.001.001.716.314l.352-.053q-1.263-1.588-1.716-2.074a9.6 9.6 0 0 0-2.142-1.678q-3.436-1.977-4.713.227-.263.455-.451 1.499-.199 1.062-.229 1.111-.002 0-.547.836.054-1.98.204-2.952.252-1.544.974-2.791 1.248-2.155 3.872-1.479.136.43.322 1.274a4.03 4.03 0 0 1 2.252-.015m121.54 85.696q1.092-.17 1.261-.073.193.11.638 1.167.41 1.064.323 1.209-.149.263-2.668.571-.122-.067-.461-1.255c-.243-.798-.342-1.23-.306-1.295q.082-.144 1.213-.324m-53.02-29.746-3.183-.041q-.27-.412-.585-2.924 1.038-.01 3.106.123c.206.204.424 1.15.662 2.842M84.549 51.31q-1.515 2.61-4.561 6.321-.099-3.761.116-4.023l5.481-7.132c.106.997.086 1.839-.051 2.526-.158.674-.486 1.446-.985 2.308m40.586 22.59a130 130 0 0 0-2.165 3.07l.557 3.354c-.357-.081-.79-.104-1.303-.079q-.938.032-1.917.048c-.501.094-.927.435-1.267 1.027-.24-.395-.317-1.652-.221-3.77q.278-.096 1.145-.204l2.015-2.26q1.242-1.425 1.765-2.498l.172-.347-2.138-1.232-.001.001-1.227-.708q-.478-.277-3.012 2.262-1.587 1.64-3.197 3.304c-.017-.778.041-1.914.182-3.41q.317-.267 1.741-1.681 1.408-1.429 1.467-1.586l.223-.385-4.547-2.613q-.598-.346-1.21.707-.083.145-.584 1.229-.43-.694.162-2.493.437-1.312 1.053-2.368.361-.621.985-.262l4.808 2.767q.314.18.257 1.107-.08.913.014 1.029l.834-.669q.604-.483.868-.332l2.265 1.304 2.869 1.621q.677.387.32 1.939-.316 1.32-.913 2.128m-18.849-7.813q-1.266.744-1.934.355c-.277-.155-.418-.516-.435-1.079.634-.17 1.091-.17 1.382-.004l.336.194q.195.112.651.534m5.316-4.354-6.806-3.916.001-.002-3.491-2.006q-1.408 1.714-3.182 4.336c-1.008 1.509-2.003 3.011-2.995 4.505l.343 2.946a474 474 0 0 0 2.854-4.204q1.742-2.512 3.066-4.019c.443.196 1.034.504 1.759.917l6.025 3.467q-.86 1.263-1.505 1.434-.24-1.129-.469-1.515-.301-.527-1.12-.997a3.06 3.06 0 0 0-1.678-.423q-1.026.05-1.455.792-.652 1.126-.141 3.339.476 2.222 1.607 2.874c.805.461 1.913.111 3.34-1.053q1.71-1.408 2.574-2.895.344-.6.803-1.774.488-1.347.47-1.806M99.517 51.65q-6.73-3.876-8.19-1.361-1.61 2.781 2.552 7.443.028.56-.393 2.557c-.372-.279-.904-.861-1.586-1.746q-.947-1.184-1.67-1.6c-1.109-.636-1.848-.629-2.229.028q-.556.958 2.188 2.536 1.006.581 1.511.711-.518.563-1.805.783-1.278.22-1.929-.152c-.639-.37-1.062-1.323-1.256-2.865q-.296-2.311.259-3.268c.451-.783 1.42-1.123 2.897-1.019q-.233-3.583.935-5.596 1.098-1.892 2.955-1.781 1.288.102 3.453 1.347 3.751 2.16 4.41 5.224a57 57 0 0 1-.873-.537zm30.334 25.731q-1.51 2.612-4.56 6.322-.097-3.763.117-4.024l5.482-7.133q.158 1.497-.051 2.526c-.16.678-.489 1.445-.988 2.309M44.308 16.935l2.488.028q-.004-.324-.188-1.227-.203-.915-.348-1-.118-.068-2.398-.067-.35-1.003-.469-1.518c-1.031-.211-1.839-.236-2.419-.084q.343 1.508.537 2.229.179-.091 1.137-.082.933-.008 1.077.076c.079.048.183.296.302.752q.238.805.281.893" style="fill:#006838;fill-opacity:1;fill-rule:nonzero;stroke:none" transform="translate(194.02 199.719)"></path><path d="M0 0c-8.442 0-15.285-6.843-15.285-15.285v-14.421l30.31 17.174C13.726-5.407 7.5 0 0 0" style="fill:#fff;fill-opacity:1;fill-rule:nonzero;stroke:none" transform="translate(282.885 302.794)"></path><path d="M0 0c0 8.442-6.843 15.285-15.285 15.285S-30.57 8.442-30.57 0v-39.823L0-22.503Z" style="fill:#fff;fill-opacity:1;fill-rule:nonzero;stroke:none" transform="translate(253.337 287.509)"></path><path d="M0 0c0 8.442-6.843 15.285-15.285 15.285S-30.57 8.442-30.57 0v-21.163c.203-.996.32-2.037.32-3.133s-.119-2.22-.32-3.363v-37.567L0-47.905Z" style="fill:#fff;fill-opacity:1;fill-rule:nonzero;stroke:none" transform="translate(208.503 287.509)"></path><path d="M0 0v-81.77c8.796 6.288 19.713 8.411 30.57 9.808v89.283z" style="fill:#fff;fill-opacity:1;fill-rule:nonzero;stroke:none" transform="translate(267.6 219.427)"></path><path d="M0 0v-48.081c11.923-2.37 23.117-6.909 30.57-18.363V17.32Z" style="fill:#fff;fill-opacity:1;fill-rule:nonzero;stroke:none" transform="translate(222.767 194.025)"></path><path d="m0 0-21.623-12.251v-95.719c9.027 1.114 18.051 2.754 26.014 7.034a33.4 33.4 0 0 1 4.557 2.961v79.637C5.039-11.625 1.604-5.545 0 0" style="fill:#fff;fill-opacity:1;fill-rule:nonzero;stroke:none" transform="translate(334.057 257.08)"></path><path d="M0 0v-14.79c8.614-3.388 18.12-4.438 27.367-5.45 1.054-.116 2.127-.234 3.203-.355v37.916z" style="fill:#fff;fill-opacity:1;fill-rule:nonzero;stroke:none" transform="translate(177.933 168.621)"></path><path d="m0 0 .48.49.839.744L2.937.352l.88-.425q.242.126.309.25l.481.443 1.076 1.259-2.532 1.425a1.2 1.2 0 0 1-.309-.178l-.4-.364-.575-.594-.283-.19q-.497.118-1.24.581l-.524.383-.496.362-.614-.603-1.224-1.225a2.3 2.3 0 0 1 .367-.375q.194-.154.355-.249.151-.097.406-.232Q-.396.078 0 0m4.758-6.386-.958.125-.914.215c.204.296.428.49.683.594q.227.097.355.163.118.063.219.137l.446.293.777.895.496.653.48-2.017.197-1.183zm39.045 7.444-.856.507-1.831 1.184q-.78.592-.83.842a1.7 1.7 0 0 0-.079.529v.619q-.381-.1-1.042-1.221a7 7 0 0 1-.486-.731l-.292-.516-.71-1.463.135-.202.23-.201.677-.542.778-3.854.197-.882c.08-.322.113-.571.113-.748l.068-.253v-.649q-.001-.19-.097-.417h-1.391v.025h-28.21c-.315.042-.524.093-.617.164a1.3 1.3 0 0 0-.411.541l-.514 2.383L7.823.292c-.303 1.48-.483 2.254-.54 2.332L5.186-.4l.146-.594.164-.592-2.937-1.725Q1.157-4.053.592-4.636c-.383-.361-.738-.968-1.054-1.828l-.777-2.141q-.196-.793-.197-1.346l.574-.065.547-.059.991-.164 1.387-.241 1.24-.224 1.105-.215.215-.025q.827 0 1.273 1.234c.502.998.835 1.531.987 1.6q.12-.213.332-1.136.087-.2.164-.46.085-.26.118-.421l.266-.83q.326-.787 1.673-.795v-.002h26.707v-.012h4.345l.294.052c.321.141.513.447.581.907l.463 1.91a.7.7 0 0 1 .055.181q.01.07.029.158l.112.533q.085.264.085.817v.156l-.315 2.756-.052.404-.017.555-.033.92L44.298.835zm17.346 4.399-9.544-2.369-1.522-4.7 1.127-1.235 1.583-1.737.412.616.711-.431 1.042-.7 2.577-1.83h-8.416l-.74.105q-.153.188-.297 1.027c-.102.555-.153 1.42-.153 2.585l-.456 4.902-.146 1.371-.102 1.489-.976-1.286-.642-.829-.299-.392a1 1 0 0 1-.158-.206 4 4 0 0 1-.123-.246l.247-3.72.464-5.779.511-3.846h13.45q.111.203.215.681.128.503.248 1.311l.608 3.037c0 .468-.485 1.152-1.454 2.042q-.643.654-1.489 1.346l-.822.705-.727.581L53.537.091l6.625 1.966zm9.654-9.087c-.197.491-.382.891-.557 1.213a8 8 0 0 1-.666.981A7 7 0 0 1 67.866.189q-1.04.767-1.522.882l-.709-2.168-.609-1.912a2.6 2.6 0 0 0 .676-.255l.71-.412.874-.517c.343-.236.682-.564 1.026-.985.394-.443.62-.773.676-.98a.64.64 0 0 0 .113-.267q.016-.123.051-.216v-.288h-6.601l-.135-2.708-.197-2.141h7.75q.786 0 1.032 1.323.154.666.214 1.523c.045.572.067 1.195.067 1.88v1.41c0 .494-.156 1.165-.479 2.012" style="fill:#006838;fill-opacity:1;fill-rule:nonzero;stroke:none" transform="translate(64.611 47.563)"></path><path d="M0 0q-.465-.485-.676-.645l-.316-.203q-.363.053-1.301.568c-.74.44-1.168.735-1.292.895l-.609-.593-1.489-1.601c.188-.223.616-.524 1.287-.889.287-.173.557-.302.8-.401.248-.093.541-.167.868-.219l.66.666.777.718.447-.3.975-.49 1.482-.732c.101.052.213.138.348.268q.232.134.43.464l.71.77c.146.141.253.271.331.387l.248.391L.806.679C.575.547.309.318 0 0m43.071-7.225q-.247.755-1.05 2.064-.854 1.388-1.166 1.627l-1.978-3.514c.788-.706 1.296-1.385 1.516-2.03q.26-.555.36-.993c.09-.272.157-.594.215-.974h-5.237v.015H16.645q-.503.102-.665.579l-.197.452-.282.946-.209.835-.164.74-.873 3.655-.248.804-.214.822c-.057.206-.107.404-.159.584-.044.181-.089.31-.122.396L12.49-3.169l-.84-1.815.953-3.716.344-1.475q.095-.553.097-.87H6.651c-.388.053-.614.126-.676.23l-.119.235-.017.256v.54l.035.933.033 1.007q-.398-.186-.744-.907l-.411-1.308-.147-.481-.136-.718a6 6 0 0 1-.068-.628 15 15 0 0 1-.016-.706l-.146-2.369c.034-.272.118-.486.248-.653a.79.79 0 0 1 .608-.255h6.792q.527.09.925 1.033.54 1.031.677 1.083.26-.392.461-1.32.33-.795.711-.796H42.32q.085.2.17.556l.196.919.48 2.52q.195.83.197 1.196.085.227.085.745v.541l-.085.979zm24.733-12.424-.609.43-1.883 1.234q-.267-.014-.957-.692L63.064-20.1c.09-.255.495-.632 1.223-1.137q1.175-.742 1.42-.743l.345.228.563.439 1.353 1.475a.44.44 0 0 1-.164.189M86.276-8.877l-.085 1.665-.017.766-.411 3.452-.332 2.268c-.086-.07-.216-.302-.378-.706q-.424-.994-.71-1.496l-.711-1.222q-.54-.87-.541-.96l1.42-11.072q.414.452.716 1.014.306.56.57 1.239.328.681.456 1.518c.079.559.125 1.247.125 2.06zm-5.806 5.82-.857.502-1.831 1.188q-.778.593-.829.842a1.5 1.5 0 0 0-.085.53v.618q-.375-.1-1.038-1.221a9 9 0 0 1-.49-.73 27 27 0 0 0-.288-.517l-.709-1.463.135-.202.232-.201.675-.543.773-3.853.203-.881q.11-.478.112-.744l.068-.254v-.641q0-.192-.102-.418h-9.644q.117.279.564.445c.382.149.812.283 1.285.391l.614.15c.14.034.282.052.411.052.141.052.289.082.429.099q.219.026.546.026l.779 1.711.541 1.338h-.806l-1.668.051-.88.125a1.5 1.5 0 0 1-.395.074l-.281.05-3.681 1.523c-.614.253-1.122.434-1.516.542-.401.107-.738.163-1.026.163-1.189 0-2.142-.537-2.846-1.608Q57.8-7.517 57.799-9.882c.372.266.851.455 1.432.559q.878.154 1.916.154h.941l.428-.051.796-.082q1.072-.237 1.172-.314-.28-.356-1.009-.911a3.2 3.2 0 0 0-.716-.396 1.7 1.7 0 0 0-.603-.122h-5.552q-.542.093-.71.594l-.198.452-.282.946-.208.835-.163.74-.875 3.655-.248.804-.214.822c-.056.206-.107.404-.158.584-.044.181-.09.31-.123.396l-1.021-1.952-.84-1.815.954-3.716.344-1.475c.06-.37.095-.658.095-.87h-6.393c-.388.053-.613.126-.675.23l-.119.235-.017.256v.54l.034.933.034 1.007q-.398-.186-.744-.907l-.411-1.308-.147-.481-.136-.718a5 5 0 0 1-.067-.628 15 15 0 0 1-.017-.706l-.147-2.369c.034-.272.119-.486.249-.653a.79.79 0 0 1 .608-.255h6.792q.526.09.926 1.033.539 1.031.676 1.083c.175-.262.326-.701.462-1.32q.329-.795.71-.796h6.64l.496.064q.231.074.315.138l.738.855q.366.342.677.909l.941 1.409c.434.608.774.908 1.027.908v-2.429l.034-1.161.101-.693h11.605l.3.052q.482.21.574.907l.464 1.901a.8.8 0 0 1 .061.185q.007.065.022.155l.119.528q.076.267.078.822v.151l-.315 2.755-.05.406-.018.555-.028.915 2.61 3.252zM-.322-13.009a2 2 0 0 0-.643-.103h-.778q-.843 0-1.324.258-.473.26-.472 1.166l.642 1.035.805 1.209c.242-.035.79-.499 1.634-1.398.852-.894 1.275-1.548 1.275-1.952zm2.819 4.382-.519.52-.366.288-.395.379-.281.241-1.501 1.183-1.296-1.514-.525-.719-.704-1.044-1.781-2.911a5 5 0 0 1-.32-.641 7 7 0 0 1-.204-.62 5.6 5.6 0 0 1-.146-1.298q.002-1.17 1.026-1.425c.591-.201 1.437-.299 2.524-.299q.525-.001 1.844.554 1.309.553 1.477.757.397.301.659.679c.107.133.204.266.282.404.073.133.159.279.248.439l.772 1.703q.034.037.034.24l.034.276v.417c0 .451-.068.903-.197 1.346-.237.473-.456.821-.665 1.045m37.022-9.71q-.465-.485-.676-.645l-.316-.203q-.364.052-1.302.568-1.108.657-1.291.894l-.609-.592-1.489-1.601c.187-.223.616-.524 1.286-.89a6 6 0 0 1 .801-.4c.248-.094.541-.168.867-.219l.661.666.777.718.446-.3.976-.49 1.481-.732c.101.052.213.138.349.268.152.089.299.244.429.464l.71.769c.146.141.253.272.332.387l.249.392-2.875 1.625c-.232-.133-.497-.361-.806-.679" style="fill:#006838;fill-opacity:1;fill-rule:nonzero;stroke:none" transform="translate(349.566 51.681)"></path><path d="M0 0c0-1.256-.18-2.161-.543-2.707-.345-.545-.925-.819-1.732-.819q-1.06 0-1.607.87-.516.87-.517 2.656v4.922h-9.519V1.767c0-4.162.973-7.307 2.924-9.446 1.95-2.118 4.835-3.18 8.665-3.18 4.002 0 7.002 1.05 9.001 3.158q3.029 3.18 3.029 9.468v28.757H0Z" style="fill:#006838;fill-opacity:1;fill-rule:nonzero;stroke:none" transform="translate(329.828 182.82)"></path><path d="M0 0h-5.614v15.06h-9.599v-40.758h9.599V-7.93H0v-17.768h9.596V15.06H0Z" style="fill:#006838;fill-opacity:1;fill-rule:nonzero;stroke:none" transform="translate(285.694 187.388)"></path><path d="M0 0q-.002-2.237-.802-3.032-.806-.772-3.596-.771h-1.216v26.816h1.216q2.79 0 3.596-.793Q0 21.424 0 19.187Zm-3.339 29.974h-11.875v-40.759h10.169q5.25 0 7.476.493 2.224.5 3.776 1.694 1.862 1.465 2.666 3.452.826 1.988.826 5.346v18.737q0 6.289-2.689 8.651-2.667 2.386-10.349 2.386" style="fill:#006838;fill-opacity:1;fill-rule:nonzero;stroke:none" transform="translate(240.81 158.986)"></path><path d="M0 0c4.389-1.329 21.45.026 22.451 14.049C23.816 36.124 10.152 46.288 5.153 56.76c-6.374 13.353-6.407 19.278-1.747 22.229C4.649 74.328 6.517 68.141 6.87 64.16c3.417 9.011 9.811 22.17 19.754 22.947s10.385-1.196 11.007-1.196c-2.893-1.992-9.87-5.101-9.87-5.101s25.094-.026 21.366-18.825c-6.37 8.545-16.191 11.31-16.968 8.203 1.202-.652 2.632-2.098 3.91-3.471-2.229-2.744-7.433-10.002-8.911-19.515 4.172 4.551 8.8 5.689 10.697 5.993 0 0-6.828-4.248-6.6-11.91 0 0 4.624 5.007 8.418 4.703 0 0-5.157-2.731-3.413-19.118.836-8.345-8.345-17.069-10.773-18.966 2.125.075 7.436-.607 8.346-.91-2.351-2.807-6.45-7.055-6.752-8.648 1.821.303 2.2.53 3.794.758 0 0-8.65-6.526-3.567-10.774-6.221 2.959-10.772 5.69-10.014-1.517C9.095-10.23-.941-4.717-3.603-1.914A78 78 0 0 1 0 0" style="fill:#fff;fill-opacity:1;fill-rule:nonzero;stroke:none" transform="translate(426.998 151.773)"></path><path d="M0 0c-1.387.347-2.647.815-3.868 1.335C-.262 6.237 9.157 3.392 11.666 2.523 6.68.114 3.713-.928 0 0" style="fill:#fff;fill-opacity:1;fill-rule:nonzero;stroke:none" transform="translate(429.81 355.638)"></path><path d="M0 0c.641-1.389 4.023-2.195 4.739-2.173 0 0-.58-1.819-.602-3.354a16 16 0 0 1-.519-.838C7.873-1.164 13.951 1.469 16.72.186c-4.323-2.701-3.444-6.416-3.444-6.416.037.186.096.37.156.554 1.876 4.674 7.738 2.72 9.776 3.407-.194-.386-.482-.899-1.445-1.862-1.221-1.124-1.445-1.284-2.536-3.07 2.279 1.176 3.187 1.474 4.398 1.818 5.65 1.605 16.534-1.893 18.684-2.6-2.978-2.051-3.69-3.564-3.69-3.564 1.252 1.06 4.334-1.316 7.51.546-1.391-.061-4.556 1.156-4.556 1.156 2.087 1.476 2.986 2.343 4.845 3.274l.153-.092c7.864-5.741-5.024-9.036-6.518-11.372 1.245.333 2.813-.47 3.989-1.274-.405-3.364.919-8.36 4.243-6.267-2.183-5.842 2.173-6.024.769-8.57-2.278-.523-6.031 1.951-6.127 2.754-.066-3.438 7.403-11.041 3.266-14.395-2.548-2.065 5.364-12.023-.639-19.011 2.258-1.028.082-4.673 5.701-6.524-4.031 3.239-1.651 5.882-3.437 6.609 7.801.264 2.114-5.673 8.014-7.971-.853 0-7.015-.241-10.647 2.511-.708 2.746-1.402 7.362-5.233 7.642 2.71-1.653 2.848-13.56 0-20.229 1.687-4.637 2.87-9.83 8.754-12.014-5.008-2.104-8.67.047-10.589 2.061-2.004 3.745 1.59 10.566-4.512 11.67-.991-6.346 6.413-9.255-.264-15.072 0 0-2.022-1.367-1.983 3.041-3.966-6.941 4.627-11.04 4.297-15.932-1.127.504-5.054 3.881-6.743 3.371-1.75 1.639-3.438 4.694-4.958 13.09-.196-.457-.64-2.768.069-6.377-2.079.281-4.177-.19-5.388-.413 4.703 12.684 8.551 20.665 14.821 34.347 6.189 13.504 10.421 36.023-3.994 46.199 2.215 1.234 4.603 3.002 7.18 5.468-13.507 2.296-16.854 1.205-19.382-.27-1.455-.849-2.399-2.034-2.838-2.908-2.539 1.176-5.015 2.509-8.17 3.449-1.709.509-4.061.839-6.082.858A12.87 12.87 0 0 0 0 0" style="fill:#fff;fill-opacity:1;fill-rule:nonzero;stroke:none" transform="translate(410.118 374.09)"></path><path d="M0 0c2.531-3.327 3.446-6.059 3.602-8.173C2.471-4.402.237-2.054-4.552.198-3.331.729-1.501 1.973 0 0" style="fill:#fff;fill-opacity:1;fill-rule:nonzero;stroke:none" transform="translate(173.613 349.233)"></path><path d="M0 0c-2.28 57.292 23.088 82.945 26.081 85.653 2.645 1.253 5.832-9.318 7.44-13.53-7.969-14.601-11.655-30.028-15.073-41.066a55 55 0 0 1-1.11-4.249C13.311 17.634 7.105 8.289 0 0" style="fill:#fff;fill-opacity:1;fill-rule:nonzero;stroke:none" transform="translate(35.689 246.537)"></path><path d="M0 0c1.393 6.292 1.376 16.574 4.527 29.735 4.103 6.325 6.679 8.886 9.403 13.773.335.893.606 1.162.825 1.074-.613-7.399-.034-14.639.975-20.995C14.771 20.709 11.568 12.948 0 0" style="fill:#fff;fill-opacity:1;fill-rule:nonzero;stroke:none" transform="translate(36.971 220.172)"></path><path d="M0 0c1.099 7.958 5.862 24.113 5.159 30.4a266 266 0 0 0 9.233 10.211l.018-.081c.511-2.219 1.341-5.743 2.33-9.982a187 187 0 0 1-2.207-9.355A172 172 0 0 1 6.515 4.269C3.944 1.918 1.815 1.271 0 0" style="fill:#fff;fill-opacity:1;fill-rule:nonzero;stroke:none" transform="translate(39.92 194.859)"></path><path d="M0 0c.549 8.636.06 22.542 5.219 35.385 1.473-6.4 3.079-13.544 4.457-20.102C7.453 13.288 2.598 5.679 0 0" style="fill:#fff;fill-opacity:1;fill-rule:nonzero;stroke:none" transform="translate(53.075 182.974)"></path><path d="M0 0c.62-3.05 1.171-5.905 1.611-8.418-.867-2.287-2.86-10.785-7.428-23.426-3.119 4.99 2.062 24.286 3.402 29.018A72 72 0 0 0 0 0" style="fill:#fff;fill-opacity:1;fill-rule:nonzero;stroke:none" transform="translate(63.453 194.866)"></path><path d="M0 0c0 8.411 5.377 28.842 11.885 37.951-1.508-9.02-2.059-16.633-2.187-22.422a183 183 0 0 1-3.494-11.54C3.772 1.863 1.743 1.22 0 0" style="fill:#fff;fill-opacity:1;fill-rule:nonzero;stroke:none" transform="translate(41.224 170.969)"></path><path d="M0 0c-.772 10.895 1.785 19.412 3.373 24.299.132-3.682.405-5.682.405-5.682.453 3.085 1.905 6.385 3.672 9.453-1.537-7.168-1.173-13.449-.289-18.225C6.314 8.12 3.458 2.66 0 0" style="fill:#fff;fill-opacity:1;fill-rule:nonzero;stroke:none" transform="translate(47.587 155.379)"></path><path d="M0 0c-3.243 5.191-4.006 16.637-4.116 18.645 3.237 4.186 4.885 6.31 5.767 7.531 1.07-4.112 2.34-6.509 2.34-6.509 1.192 8.108 6.573 20.102 8.299 23.805.029-.332.054-.678.081-1.018C11.657 38.869 9.382 22.93 0 0" style="fill:#fff;fill-opacity:1;fill-rule:nonzero;stroke:none" transform="translate(53.787 135.944)"></path><path d="M0 0c-.537 4.615-13.201 56.452-8.693 43.681C.281 23.205 2.452 14.252 3.956 9.485 3.273 8.012 2.191 5.446 0 0" style="fill:#fff;fill-opacity:1;fill-rule:nonzero;stroke:none" transform="translate(107.72 70.353)"></path><path d="M0 0c-7.964 7.432-14.063 26.673-15.627 34.979a107 107 0 0 1-.74 3.56c4.617-8.436 11.413-18.628 14.196-22.07 1.57-1.943 3.697-3.914 6.13-5.815C3.459 7.09 2.312 1.376 0 0" style="fill:#fff;fill-opacity:1;fill-rule:nonzero;stroke:none" transform="translate(120.448 74.226)"></path><path d="M0 0c8.417-12.667 13.583-16.416 17.834-21.833 1.249-1.751.082-7.25 10.915-16.667 10.834-9.417 18.92-16.167 13.752-15.916-4.296.208-7.664 1.641-10.691 4.028-1.503 1.954-2.922 4.003-4.192 6.183-8.557 14.7-12.556 16.099-12.234 14.597.536-7.728 26.349-34.598 28.28-36.208S55.775-78.863 47.94-77.36C27.596-73.307 11.246-46.066 4.815-33.779 2.872-26.603.715-20.518.573-24.135c-.117-3.002.215-10.41-2.147-8.586s-4.615 2.146-3.004-.322c6.154-10.305 8.519-29.914 9.223-44.545-2.715-5-8.642-7.456-8.365-6.761 5.065 12.684-1.395 44.217-10.241 64.008 0 0 8.867-22.108 10.179-44.122-.638-2.57-2.501-6.006-7.773-7.866.966 10.733-.215 19.104-.429 21.357-.215 2.255 2.469 2.148-2.146 6.333 0 0 .999-2.604 1.502-6.225.101-.726.195-1.733.269-2.944-2.187-8.997-9.686-20.077-9.308-19.128 4.719 11.814 6.019 32.758-2.251 44.523 1.338-.767 3.966-1.842 5.251-1.443.359-2.545.481-5.183.303-7.878 2.311 9.246.849 12.384-2.041 21.822-1.346 4.395-2.035 8.473-2.392 11.588 1.807 2.86 3.417 6.582 4.294 11.459 2.427-4.101 3.515-5.775 5.608-11.132.052.352 2.994 11.094 2.629 20.991.903-.546 2.416-2.468 3.96-5.904.375 3.047 1.443 11.758 1.443 11.758.321 2.191-1.282-3.527-2.191-6.84-.858 1.251-2.384 2.047-3.301 2.436-.014.192-.019.387-.036.578-.14 1.594-.38 3.145-.747 4.603-.334-5.441-2.539-20.192-2.677-19.838-1.407 3.596-5.734 9.634-5.693 10.881a30.4 30.4 0 0 0-3.556-12.872c.053.239-.815-.748-1.51-2.54-2.465-3.728-4.894-5.681-4.894-5.681 2.716 36.771-8.74 71.3-11.65 84.01s-3.105 22.995-2.91 31.824 2.716 15.427 10.672 36.19 23.77 41.235 29.494 46.473c5.724 5.24 10.769 10.091 32.308 23.77 21.538 13.68 44.391-16.545 45.115-18.143-1.316-.314-2.629-.977-3.043-1.524-.54.235-1.098.47-1.697.707.197 9.057-9.648 6.694-15.554 9.648 0 0 1.772-10.238 14.373-10.435 0 0 6.868-1.896 10.308-7.778-22.24 14.508-38.933-2.851-40.926-5.578-2.031-2.78 2.839-4.359 2.625-10.666-.365-12.142-6.764-36.87-8.623-43.829a63 63 0 0 1-1.896 3.898c-23.729 38.48-35.487 14.537-42.542.214-8.618-17.497-13.04-44.466-6.841-65.843 6.2-21.378 6.627-22.02 5.558-39.122 2.3 6.133 2.747 11.364 2.637 15.011 1.79-2.64 4.721-6.575 3.971-9.04-3.544-15.359-1.099-5.839 6.472-10.553C-3.412 20.098-7.33 11.03 0 0" style="fill:#fff;fill-opacity:1;fill-rule:nonzero;stroke:none" transform="translate(97.487 153.73)"></path><path d="M0 0c-7.23 3.989-13.214 19.82-14.211 24.682-.335 1.64-.643 2.804-.903 3.637 1.628 4.191 4.523 10.531 6.817 15.798.095-2.984.876-6.984 3.186-12.205C.623 18.947.997 11.967 0 0" style="fill:#fff;fill-opacity:1;fill-rule:nonzero;stroke:none" transform="translate(100.742 175.874)"></path><path d="M0 0c-6.357 12.525-6.123 21.196-5.609 24.75 1.658-4.454 4.085-9.067 7.618-13.7 3.336 12.789 4.345 22.605 4.317 25.566.191-.282.552-1.535 1.205-3.416 1.75-6.005 5.786-24.528-2.046-48.532-1.029 1.474-1.775 2.531-2.337 3.352C4.545-9.632 5.022-9.973 0 0" style="fill:#fff;fill-opacity:1;fill-rule:nonzero;stroke:none" transform="translate(102.612 196.815)"></path><path d="M0 0c-.439-.908-1.074-2.046-2.005-3.552-4.611 3.661-6.738 13.811-7.593 19.5.185.628.378 1.163.568 1.618 1.867-3.91 3.828-8.506 3.922-10.303 1.876 3.799 3.487 10.81 4.588 18.542.904-3.16 2.469-9.069 2.018-10.688-.15-.544-.058-.572.173-.282C-1.077 9.08-2.274 5.165 0 0" style="fill:#fff;fill-opacity:1;fill-rule:nonzero;stroke:none" transform="translate(113.952 165.618)"></path><path d="M0 0a51 51 0 0 1 4.363-6.596c-.002.276 2.851 12.199 4.606 20.261q.079-.305.167-.611c.765-6.747 1.516-32.41-3.636-43.517-.375-.811-.744-1.583-1.104-2.33-.27 1.326-3.559 3.077-4.957 8.655C.45-15.216.756-5.987 0 0" style="fill:#fff;fill-opacity:1;fill-rule:nonzero;stroke:none" transform="translate(114.563 220.049)"></path><path d="M0 0c-.875-30.993-5.829-33.916-7.949-36.535-1.385 4.885-6.375 12.962-2.563 18.629 4.246 6.311 11.909 31.556 9.017 49.238 1.383-2.889 3.008-5.646 4.423-7.87C2.001 19.019.095 8.853 0 0" style="fill:#fff;fill-opacity:1;fill-rule:nonzero;stroke:none" transform="translate(127.583 195.65)"></path><path d="M0 0c-2.351 3.421-7.75 12.915-7.968 21.891-.274 11.352-1.4 3.278-.834-5.059-1.082-4.67-3.404-15.945-4.831-18.153-3.387 2.032-8.121 17.969-8.212 18.793-.424 3.81-.972 10.548-1.186 13.968-1.016 5.08 1.186-23.195-4.402-39.279-11.089 9.82-8.55 43.174-9.822 35.502-.271-4.193-.801-9.862-.158-16.37l-.056.123c-.213-4.703-1.924-13.681-10.261-29.501-.641 5.558-4.703 6.841-6.2 33.349s9.193 46.604 9.193 46.604c15.606 27.577 24.884 19.461 34.204 6.413C6.57 44.338.855 11.544 0 0" style="fill:#fff;fill-opacity:1;fill-rule:nonzero;stroke:none" transform="translate(131.376 223.577)"></path><path d="M0 0c-2.744 9.797-.785 16.679 14.265 21.505C4.33-5.448 19.075-9.638 24.603-14.113c5.647-4.572.672-9.008-5.513-17.342C12.906-39.79 8.335-44.228 8.604-48.799c.071-1.214 1.32-3.309-1.479-4.57-2.688-1.21-3.36-2.017-4.84-4.168-1.314-1.912-7.825.42-10.768.963 5.821 5.845 21.861 22.01 20.179 37.756C10.89-14.919 3.691-13.177 0 0" style="fill:#fff;fill-opacity:1;fill-rule:nonzero;stroke:none" transform="translate(398.89 120.412)"></path><path d="M0 0c-12.114 22.09 8.123 59.858 10.119 63.563-1.279.122-4.418-.57-6.842-1.996 3.992 10.689 8.694 21.093 12.827 29.644 4.134 8.551 10.547 26.081 9.549 37.482-.796 9.104-7.495 14.297-10.163 16.022-6.011-2.379-10.583-.733-13.96 1.298-.229-.366-.811-.997-1.966-2.019-3.413-3.023-6.338-5.314-9.847-6.192-3.51-.877-8.238.098-6.922 3.559-1.706.293-5.217-2.291-4.096-1.023 0 0 1.756 3.509 5.412 3.704s12.235-.39 16.135 1.853c.271.173.554.322.797.42-1.223.773-2.283 1.574-3.186 2.211-3.12 2.203-7.951 2.939-10.73 3.185-.078-.028-.14-.054-.228-.084-3.406-1.175-11.863-3.994-17.737-7.166-5.874-3.171-10.691-5.052-16.916-5.639-6.226-.587-9.28-1.761-10.102-3.288-.822-1.528-2.233-4.699-1.645-5.874s.705-2.585 3.524-2.115c2.82.471 9.751 4.817 11.512 2.937 1.762-1.879 2.938-3.054 1.998-3.641s-7.987-1.998-8.576-3.172c-.587-1.175.823-2.232 1.997-2.467s5.168.235 9.281 1.527c4.111 1.292 14.213 1.997 21.378-.47s13.04-1.292 16.681 1.175 5.169 2.349.705-.47c-2.935-1.853-6.281-3.342-10.428-3.45a8.7 8.7 0 0 1-1.35-1.683c-2.286-3.629-5.91-12.932-8.334-15.863-5.682-6.865-27.094-25.396-32.682-27.892 7.974-5.394 14.731-2.776 23.982-5.002.944-.227 2.856-1.596 2.317-1.466-9.486 2.283-15.382-2.479-24.026 2.601-3.336 1.96-8.941 5.707-12.297 7.615-3.095 1.761-4.393 2.892-6.932 4.307a37 37 0 0 1 3.799-3.417l.848-.667-.032-1.079c-.178-5.843-.824-10.367-1.093-12.04l-.254-1.577-1.585-.204a11 11 0 0 1-.829-.14c2.082-1.108 4.642-3.239 6.1-6.464 6.889-14.519 19.315-19.179 23.097-20.53s5.2-1.215 5.2-1.215 9.995-4.39 5.335-3.377C-49.514 36.603-57.168 42.896-60.95 48.27c-5.412-11.7.736-25.368 2.09-29.173 3.324-9.339 9.948-19.942 11.401-29.786.736-4.987 1.11-9.922 1.185-14.966.026-1.738-.032-2.968-.137-4.11 2.327 2.135 6.591 6.675 11.392 14.838 6.978 14.331-3.325-12.785-9.741-20.841-4.481-6.679-11.224-11.305-14.191-18.829-4.22-10.706 3.494-15.576 9.742-23.369 4.689-5.849 9.812-10.666 10.866-18.17.634-4.53-2.502-10.219-5.199-13.72-3.804-4.936-9.238-10.112-13.724-14.426-3.33-3.202-9.14-9.021-12.47-12.22-5.015-4.819-6.321-9.815-6.066-13.988v-.002c3.442.33 7.045.578 10.804.731 1.198 1.056 2.499 2.438 1.532 2.76-1.613.537-2.285 1.614-2.016 2.42.731 2.194 4.032 7.125 6.183 6.856s5.11-5.109 7.26-1.883c2.11 3.167 15.871 30.261 32.514 38.392-1.972 4.336-4.121 8.615-5.22 12.96-3.092 12.233-2.821 20.304 27.022 31.06 9.411 4.032 18.551 13.979 12.636 29.036-5.915 15.056-3.629 7.933-5.108 11.696-.865 2.204-.669 2.095.019 1.04l-.009.013A6242 6242 0 0 1 2.645-2.27C5.139-10.088 6.837-12.468 0 0" style="fill:#fff;fill-opacity:1;fill-rule:nonzero;stroke:none" transform="translate(421.485 209.34)"></path><path d="M0 0s.647 3.486 1.163.387.516-4.907 2.324-5.552c0 0-2.149 8.884-.093 6.881C4.097 1.03 4.672.542 5.195.328c.012-.044.016-.08.029-.126.791-2.688 2.372-3.373 1.898-4.955S4.854-9.18 6.437-9.549c1.581-.369 2.741 1.812 2.371.6-.368-1.212-3.373-6.926-3.004-10.035s2.689-13.337 3.057-15.551.106-2.635-2.109 1.792C4.539-28.315.743-19.249.848-13.925s.792 7.696.106 9.014C.269-3.594-.163-1.626 0 0" style="fill:#fff;fill-opacity:1;fill-rule:nonzero;stroke:none" transform="translate(147.524 286.186)"></path><path d="M0 0c2.231 2.125 7.43 8.62 9.707 13.229C8.087 4.501 4.564-9.966-1.52-14.056c.216 6.035.199 12.475-.444 19.031C-1.258 2.846-.516.825 0 0" style="fill:#fff;fill-opacity:1;fill-rule:nonzero;stroke:none" transform="translate(136.678 252.356)"></path><path d="M0 0a6.4 6.4 0 0 0-1.257.237c-1.853.569-4.134 2.85-4.276 0-.143-2.851 2.993-6.556 1.282-8.695-1.71-2.137-4.844 3.849-5.558 5.844s-.713-.142-1.425-1.567c-.476-.951-2.847 1.138-4.672 3.06.227 3.736.516 7.826.715 12.16 3.756-2.204 9.942-.769 8.202-2.196-2.056-1.687-2.425-5.06.317-4.586 2.74.475 5.957 1.317 5.693-.949C-1.128 2.033-.408 1.114.465.972.31.647.153.33 0 0" style="fill:#fff;fill-opacity:1;fill-rule:nonzero;stroke:none" transform="translate(150.248 224.78)"></path><path d="M0 0s.897.844 2.584 2.161c1.686 1.318-5.475-.484-8.232-.609-3.136-.143-9.834-.428-3.421 2.565 2.836 1.323 3.436 6.624 11.494 5.687 2.33-.271-2.793 2.688-3.109 4.322-.949 4.903 1.646 14.239 3.017 9.231.211-1.845 2.77-7.845 2.992-8.693.121-.459 3.362-2.492 5.9-3.758C7.589 5.9 5.692 1.528 4.323-.158 1.846-3.901-4.848-5.851 0 0" style="fill:#fff;fill-opacity:1;fill-rule:nonzero;stroke:none" transform="translate(147.37 235.152)"></path><path d="M0 0c-1.522-10.759-4.093-23.354-2.871-28.172.971-.703 1.825-1.321 2.477-1.791 2.606 2.276 12.835 11.222 20.445 18.077-4.695 6.341-7.708 21.238-8.674 26.599-2.345-.916-4.932-1.631-6.327-.97C2.818 14.8.117 19.617 1.292 20.321s1.998.705 3.172.94 6.108 1.292 5.168 2.232c-1.08 1.08-1.409 2.702-4.111 1.057-2.703-1.644-8.224-3.993-9.751-3.524 0 0-2.936 2.115-3.053 4.346-.049.924.072 2.029.337 3.157-5.289.317-25.024 1.375-31.113-.102-6.842-1.658-11.513-5.734-13.349-8.488h23.827c1.057.584 3.243 1.675 7.729 1.675C-16.093 21.614 3.29 23.259 0 0" style="fill:#fff;fill-opacity:1;fill-rule:nonzero;stroke:none" transform="translate(367.388 313.863)"></path><path d="M0 0c.069-.094.122-.033 0 0" style="fill:#006838;fill-opacity:1;fill-rule:nonzero;stroke:none" transform="translate(404.038 57.252)"></path><path d="M0 0c2.016 3.898 5.801 8.043 6.483 11.894.258 1.456-1.219 5.947-.93 3.31 0 0 .403-2.555-4.167-7.797C-.362 5.122-1.366 5.02 0 0" style="fill:#006838;fill-opacity:1;fill-rule:nonzero;stroke:none" transform="translate(405.303 304.977)"></path><path d="M0 0c.918.635 1.111 2.615.82 2.284-.707-.8-2.198-1.036-3.16-1.998-.962-.963-1.37-2.94-1.37-2.94C-4.252-4.137-.742-.513 0 0" style="fill:#006838;fill-opacity:1;fill-rule:nonzero;stroke:none" transform="translate(443.253 330.512)"></path><path d="M0 0c.855-4.703.855-4.596 1.283-6.093C1.817-2.351 3.206-.962 4.168.855s4.811 6.948 5.773 9.727C9.941 10.582-.855 4.703 0 0" style="fill:#006838;fill-opacity:1;fill-rule:nonzero;stroke:none" transform="translate(432.85 316.87)"></path><path d="m0 0 1.225 1.203c1.525 1.493.549 3.811.345 5.707C.542 5.12-2.169 3.035 0 0" style="fill:#006838;fill-opacity:1;fill-rule:nonzero;stroke:none" transform="translate(450.192 128.029)"></path><path d="M0 0c4.974 4.436 8.201 7.663 2.151 3.226C-2.152.268-13.443-5.243-13.443-5.243-17.61-7.663-4.341-3.871 0 0" style="fill:#006838;fill-opacity:1;fill-rule:nonzero;stroke:none" transform="translate(415.156 154.023)"></path><path d="m0 0 .463 1.653C1.043 3.705-.958 5.23-2.08 6.774-2.08 4.709-3.392 1.552 0 0" style="fill:#006838;fill-opacity:1;fill-rule:nonzero;stroke:none" transform="translate(453.706 265.548)"></path><path d="M0 0s5.787-14.427 6.394-16.77 1.07 1.261-.397 4.245C4.529-9.543-4.178 11.266 0 0" style="fill:#006838;fill-opacity:1;fill-rule:nonzero;stroke:none" transform="translate(87.266 142.131)"></path><path d="M0 0s2.247-11.364 2.369-13.164c.121-1.8.957.776.293 3.164C2-7.614-1.505 8.828 0 0" style="fill:#006838;fill-opacity:1;fill-rule:nonzero;stroke:none" transform="translate(82.409 126.234)"></path><path d="M0 0c.631-1.69.695 1.017-.622 3.116-1.318 2.097-9.379 16.85-5.412 8.821C-6.034 11.937-.631 1.69 0 0" style="fill:#006838;fill-opacity:1;fill-rule:nonzero;stroke:none" transform="translate(107.651 129.566)"></path></g><!-- source: https://football-logos.cc --></svg>