<svg xmlns="http://www.w3.org/2000/svg" viewBox="0 0 337.75 407.87"><!-- Source: https://football-logos.cc --><defs data-source="https://football-logos.cc"><clipPath id="a"><path d="M0 61h337.75v346.871H0Zm0 0"></path></clipPath></defs><g clip-path="url(#a)"><path d="m288.934 174.207 35.578-28.031a3.6 3.6 0 0 0 1.36-2.528c.085-1-.243-1.972-.915-2.714v-.004l-28.406-31.496h-.004L278.773 89.73l-.761-.312c-4.149-1.684-9.13-2.738-14.371-3.637a329 329 0 0 0-6.75-1.062l5.472-22.887-4.242-.3a50 50 0 0 0-3.566-.122c-7.66.008-14.47 1.695-19.64 4.48-2.587 1.403-4.778 3.087-6.43 5.102-1.641 2.004-2.766 4.438-2.829 7.11l-.515 22.8c-15.465 1.203-34.23 1.79-56.266 1.79-22.035 0-40.805-.587-56.266-1.79l-.52-22.804c-.058-2.668-1.183-5.102-2.823-7.106-2.489-3.015-6.157-5.316-10.606-6.976-4.453-1.645-9.722-2.606-15.465-2.606q-1.754 0-3.57.121l-4.238.301 5.472 22.887-1.8.27c-6.973 1.073-13.887 2.23-19.32 4.429l-.766.312-45.254 50.176-.926 1.024c-.672.746-1 1.718-.914 2.718.082 1 .57 1.907 1.36 2.528l35.573 28.031C18.642 198.988 0 233.067 0 270.676c0 75.77 69.563 137.195 168.875 137.195 99.313 0 168.875-61.426 168.875-137.195 0-37.61-18.64-71.688-48.816-96.469" style="stroke:none;fill-rule:nonzero;fill:#000;fill-opacity:1"></path></g><path d="M168.875 267.824c-.79 0-1.578-.258-2.23-.773L64.543 186.6c-22.176 22.86-35.664 53.051-35.664 86.153 0 71.363 69.95 129.219 139.996 129.219s139.992-57.856 139.992-129.22c0-33.1-13.488-63.292-35.66-86.151L171.105 267.05a3.6 3.6 0 0 1-2.23.773" style="stroke:none;fill-rule:nonzero;fill:#fff;fill-opacity:1"></path><path d="M211.648 108.969c-12.601.625-26.843.93-42.777.93-15.93 0-30.172-.305-42.773-.93-6.067 14.617-9.418 33.765-9.418 59.566 0 22.215 3.226 41.43 8.984 57.05l43.211 34.048 43.207-34.043c5.762-15.625 8.988-34.84 8.988-57.055 0-25.8-3.355-44.95-9.422-59.566M270.227 179.773l46.796-36.875-40.992-45.449c-1.945 1.13-4.172 2.145-6.676 3.074 3.875 10.293 6.094 22.336 6.094 36.567 0 14.719-1.836 29.32-5.222 42.683M68.395 100.523c-2.504-.93-4.73-1.945-6.68-3.074L20.723 142.9l46.8 36.87c-3.386-13.363-5.226-27.964-5.226-42.68 0-14.23 2.223-26.273 6.098-36.566" style="stroke:none;fill-rule:nonzero;fill:#ec2f35;fill-opacity:1"></path><path d="M211.648 108.969c6.067 14.617 9.422 33.765 9.422 59.566 0 22.215-3.226 41.43-8.988 57.055l58.145-45.817c3.386-13.363 5.222-27.968 5.222-42.683 0-14.227-2.219-26.274-6.094-36.567-7.113 2.641-16.503 4.547-28.398 6.059-8.5 1.05-18.277 1.84-29.309 2.387M116.676 168.535c0-25.8 3.355-44.95 9.422-59.566-11.032-.547-20.809-1.336-29.309-2.387-11.894-1.512-21.285-3.418-28.394-6.059-3.875 10.293-6.098 22.34-6.098 36.567 0 14.715 1.84 29.316 5.226 42.68l58.141 45.816c-5.762-15.621-8.988-34.836-8.988-57.05M241.59 70.777c3.265-1.21 7.293-2.02 11.734-2.144l-3.586 15.008c-3.093-.489-6.008-1-8.539-1.598-3.078-.715-5.586-1.598-6.96-2.445-.7-.418-1.083-.801-1.227-1.016-.133-.21-.137-.23-.145-.371.028-.703.328-1.586 1.2-2.66 1.312-1.637 3.949-3.465 7.523-4.774M84.422 68.633c6.058.168 11.348 1.62 14.984 3.597 1.942 1.047 3.395 2.239 4.274 3.32.875 1.075 1.175 1.958 1.203 2.66-.02.18.015.204-.375.638-.688.773-3.11 1.972-6.469 2.824-2.84.758-6.3 1.379-10.027 1.969M149.719 206.64h-2.953v-2.062h.472c1.39 0 2.535-.21 3.106-1.781h2.41v9.637h-3.035M162.746 205.832c0-.586-.598-1.2-2.101-1.2-1.657 0-2.102.614-2.102 1.2 0 .711.46 1.309 2.117 1.309 1.824 0 2.086-.668 2.086-1.309m-4.121 3.887c.184.61.922.875 1.883.875 2.004 0 2.437-1.059 2.547-2.242-.836.543-1.754.738-2.98.738-2.259 0-4.845-.543-4.845-3.215 0-1.992 1.684-3.3 5.208-3.3 3.257 0 5.82.945 5.82 5.081 0 3.567-2.324 5-5.668 5-2.367 0-4.875-.586-5.223-2.937M174.082 204.941l-3.566 3.817h3.566Zm0 5.875h-6.602v-2.171l5.458-5.848h4.011v5.96h1.785v2.06h-1.785v1.617h-2.867M183.465 209.398c0 .582.597 1.196 2.101 1.196 1.66 0 2.106-.614 2.106-1.196 0-.71-.461-1.308-2.117-1.308-1.825 0-2.09.668-2.09 1.308m7.52-.043c0 1.993-1.684 3.301-5.208 3.301-3.261 0-5.824-.945-5.824-5.082 0-3.566 2.328-5 5.668-5 2.367 0 4.875.582 5.223 2.938h-3.258c-.18-.614-.918-.88-1.879-.88-2.008 0-2.437 1.06-2.547 2.243.832-.54 1.754-.738 2.98-.738 2.255 0 4.844.543 4.844 3.218" style="stroke:none;fill-rule:nonzero;fill:#fff;fill-opacity:1"></path><path d="M97.176 323.102h39.312v9.46h-23.976v5.926h22.074v9.461h-22.074v13.973H97.176M139.918 323.102h15.336v23.488c0 5.004 2.883 6.578 7.883 6.578 5.004 0 7.886-1.574 7.886-6.578v-23.488h15.332v24.086c0 12.343-7.449 16.093-23.218 16.093s-23.219-3.75-23.219-16.094M202.02 345.45c-7.504-1.145-10.606-5.493-10.606-10.93 0-10.06 9.844-12.782 22.457-12.782 17.293 0 24.414 4.516 24.961 12.727h-17.836c0-1.578-.926-2.559-2.336-3.102-1.36-.597-3.101-.812-4.789-.812-4.566 0-6.14 1.14-6.14 2.77 0 1.09.488 1.796 2.011 2.015l18.324 2.719c7.72 1.14 12.504 4.73 12.504 11.308 0 9.461-7.718 13.918-24.957 13.918-11.8 0-24.683-1.629-24.742-13.05h18.488c.055 1.308.543 2.175 1.633 2.777 1.14.543 2.828.812 5.219.812 4.785 0 6.09-1.304 6.09-3.152 0-1.14-.707-2.285-2.774-2.61" style="stroke:none;fill-rule:nonzero;fill:#ec2f35;fill-opacity:1"></path><path d="M285.66 219.035c-3.973-13.328-9.219-20.082-11.683-21.672 0 0-7.586 10.594-7.586 33.032 0 14.14 2.261 25.199 2.261 39.859 0 1.64-.164 3.418-.207 4.828-.039 1.547-.113 2.746.633 2.746 1.445 0 3.055-8.137 3.688-14.512.597-5.992.773-12.156.773-15.066 0-9.172-1.418-13.648-.762-26.426 6.141 14.168 14.633 29.809 14.633 42.477 0 13.16-7.504 22.426-16.687 30.054-19.684 16.364-20.086 10.375-28.086 16.465 0 0 3.55.875 10.812.875 10.496 0 19.242-3.804 25.508-9.562 10.164-9.344 14.676-23.961 14.676-42.528 0-12.992-4.98-30.546-7.973-40.57M194.047 284.066s-5.024 3.551-8.953 3.551c-1.422 0-2.606-.34-3.551-1.543-1.125-1.433-2.348-4.465-2.348-6.32 0-3.8 2.809-6.879 6.282-6.879 4.734 0 9.035 4.395 8.57 11.191M80.559 260.43c-2.723 1.851-6.684 4.035-7.5 4.035-2.188 0-6.72-4.586-6.72-5.348 0-.281 2.243-2.422 5.458-4.05 3.215-1.63 10.812-3.868 14.2-3.868 1.472 0 2.663.973 2.663 2.063 0 .933-3.918 4.324-8.101 7.168m156-41.39c-3.973-13.333-7.672-20.575-10.137-22.165 0 0-7.152 11.137-7.152 28.66 0 17.856 2.085 33.332 2.21 40.95.122 7.195.067 9.745.903 9.745 1.195.172 1.59-.738 1.804-3.363.25-3.035.981-7.61.981-16.945 0-16.055-.902-17.774-.902-32.516 6.14 14.168 15.48 29.895 15.48 45.781 0 5.704-1.914 10.32-8.46 15.122-7.602 5.57-12.575 6.746-23.071 6.746-7.125 0-10.473-.25-12.047-.477 3.11-6.086 6.723-14.457 6.723-20.488 0-6.82-4.98-12.34-11.137-12.34-8.106 0-16.941 20.254-19.91 32.398-1.586.512-4.973 1.016-12.196 1.016-9.828 0-14.52-1.375-17.632-4.332-5.496-5.219-5.825-13.39-9.067-15.187-6.387 12.12-13.84 19.355-32.047 19.355-6.336 0-10.738-.824-12.847-3.305-2.465-2.898-2.446-8.77-3.094-16.93 7.758-8.109 12.937-18.542 12.937-30.324 0-4.832-1.464-5.894-3.277-5.894-14.656 0-39.144 15.64-39.144 31.45 0 3.901 2.156 7.823 5.273 10.679-3.395 5.078-11.281 18.5-11.281 33.597 0 14.633 5.144 24.672 13.437 33.399 14.258 15 46.184 31.683 60.598 35.613-14.637-6.09-41.348-19.906-55.36-39.64-5.617-7.91-8.519-16.274-8.519-26.641 0-18.375 12.79-31.586 22.137-39.348-.793 5.649-3.246 9.645-3.246 15.324 0 5.243 2.054 10.965 6.027 14.23 3.41 2.806 6.203 3.462 14.394 3.462 10.192 0 16.723-1.98 21.532-6.64 4.41-4.278 4.62-9.196 6.203-9.196 2.262 0 2.742 5.824 6.668 9.656 4.906 4.79 11.004 6.121 21.476 6.121 13.536 0 24.489-4.203 24.489-4.203 8.515 4.152 11.918 4.152 26.644 4.152 12.45 0 21.004.153 30.617-15.894 4.352-7.27 9.02-19.035 9.02-31.063 0-9.992-6.04-30.543-9.027-40.566" style="stroke:none;fill-rule:nonzero;fill:#000;fill-opacity:1"></path><path d="M205.96 239.117c-3.429-3.43-6.683-6.043-10.874-8.738l-1.887-1.215-1.402 1.75c-.742.93-1.563 1.84-2.426 2.805-2.406 2.68-4.894 5.453-6.043 8.949l-.562 1.707 1.441 1.07a161 161 0 0 1 10.059 8.067l1.722 1.504 1.645-1.59c2.605-2.524 7.222-7.39 8.887-11.637l.593-1.52M150.465 245.543c-2.012-2.59-4.094-5.27-6.746-6.281l-1.48-.563-1.137 1.102-9.528 9.23-2.152 2.086 2.441 1.735c1.914 1.359 3.145 2.855 4.45 4.437 1.296 1.578 2.64 3.211 4.671 4.781l1.453 1.121 1.5-1.058c.204-.14 5.028-3.574 9.567-10.113l1.187-1.711-1.472-1.47c-.887-.886-1.793-2.058-2.754-3.296" style="stroke:none;fill-rule:nonzero;fill:#fff;fill-opacity:1" data-source="https://football-logos.cc"></path><path d="M185.691 243.445c1.368-4.148 5.211-7.425 8.051-10.972 4.285 2.757 7.32 5.265 10.461 8.406-1.34 3.41-5.215 7.77-8.3 10.758a163 163 0 0 0-10.212-8.192M151.46 250.598c-2.839-2.84-5.542-7.836-8.628-9.008l-9.527 9.23c4.152 2.95 5.379 6.328 9.199 9.278 0 0 4.613-3.246 8.957-9.5" style="stroke:none;fill-rule:nonzero;fill:#000;fill-opacity:1"></path><path d="M131.04 250.98c-1.493-3.183-5.587-5.953-7.153-8.46-5.785 3.437-10.043 8.625-10.043 8.625 3.93 6.332 7.64 9.226 7.64 9.226 6.442-3.715 6.633-8.324 12.45-9.39" style="stroke:none;fill-rule:nonzero;fill:#000;fill-opacity:1"></path><path d="m165.613 150.477-.777 2.293h29.434l-13.754 10.16.773 2.28 19.941-14.733M177.969 167.66l-.774-2.277-23.37 17.262 4.988-14.68-1.938-1.434-7.574 22.309" style="stroke:none;fill-rule:nonzero;fill:#fff;fill-opacity:1"></path><path d="m166.254 172.445 1.93-1.425-24.704-18.25h17.204l.78-2.293h-24.948" style="stroke:none;fill-rule:nonzero;fill:#fff;fill-opacity:1"></path><path d="m158.2 162.625 1.937 1.43 8.738-25.735 3.848 11.336h2.418l-6.27-18.465M180.598 165.719l-4.121-12.13h-2.422l9.867 29.056-12.43-9.18-1.93 1.426 18.883 13.949" style="stroke:none;fill-rule:nonzero;fill:#fff;fill-opacity:1"></path><path d="M132.285 66.113c-.465 1.086-1.45 2.285-1.23 3.88.175 1.277 1.226 1.28 2.507 1.573.57.13 1.622.18 1.868.489.218.285.125.699 0 1.23-.313 1.336-.63 2.625-.446 3.93 1.707.27 2.82-.672 3.832-1.524.34-.285.727-.78 1.036-.836.453-.078 1.32.18 1.914.247 2.015.23 4.093.515 6.093.097.18-.594.614-1.18.442-1.965-1.25-.5-2.824-.68-3.781-1.472.382-1.137 1.074-2.668 1.03-4.078-.05-1.614-1.152-1.5-2.21-2.114-.426-.242-.64-.5-.934-.933-.676-.246-1.398-.38-1.574-1.032-.086-.312.031-.859.05-1.277.15-3.418-.913-5.793-1.82-8.89-.832-2.86-.894-6.231-2.503-8.208-.25-.308-.715-.707-.985-.835-1.664-.797-3.375.496-4.37 1.375-.763.675-1.579 1.41-2.017 2.113-.37.601-.62 1.367-.882 2.015-.274.672-.575 1.34-.785 2.114-1.704 6.18 1.52 11.406 4.765 14.101m12.504 20.48c2.871-.796 5.133-1.773 5.133-2.695 0-.812-2.121-2.351-4.137-2.73-3.07 0-5.074 1.7-5.558 2.719.21 1.172 1.964 2.367 4.562 2.707m7.785-18.172c.453.465 1 .836 1.375 1.375-.742 1.101-2.433 2.074-1.867 4.027.148.5.863 1.156 1.426 1.477 1.086.613 2.851.426 3.734-.344.266-.23.328-.527.442-.687.64-.91 1.793-1.344 3.39-1.23 1.203.085 2.203.722 3.242.784 2.121.13 2.594-1.972 2.852-3.683-.457-.461-1.29-.645-1.816-1.13-.266-.241-.715-.843-.688-1.277.031-.523.832-1.035 1.176-1.375.695-.695 1.86-1.535 1.574-2.851-.219-1.004-1.66-1.543-2.309-2.113-.285-.247-.492-.579-.738-.786-.62-.523-1.644-.941-1.719-1.918-.058-.785.536-1.918.786-2.699.863-2.715 1.453-5.59 1.18-9.187-.235-3.09-1.153-5.907-2.262-8.207-.375-.785-.739-1.649-1.227-2.258-.54-.672-1.531-1.348-2.406-1.918-1.055-.684-2.578-1.602-4.278-1.227-2.91.637-3.879 3.242-5.304 5.356-1.645 2.433-2.051 5.996-1.621 9.726.172 1.489.332 2.77.738 3.93 1.191 3.45 3.473 6.055 5.351 8.797-.425 1.012-1.523 2.18-2.062 3.437-.594 1.387-1.129 4.141 1.031 3.98m3.934 17.048c3.226.5 2.539-4.848-.2-4.324-1.956.375-1.316 4.09.2 4.324m12.367-.18c1.695 0 3.887-1.012 3.887-2.266 0-.964-1.739-2.488-3.887-2.488s-3.887 1.524-3.887 2.488c0 1.254 2.192 2.266 3.887 2.266m7.797-12.25c1.601-.113 2.754.32 3.39 1.23.114.16.18.458.442.688.883.77 2.652.957 3.734.344.567-.32 1.282-.977 1.426-1.477.566-1.953-1.121-2.926-1.867-4.027.375-.54.922-.91 1.375-1.375 2.164.16 1.629-2.594 1.031-3.98-.539-1.258-1.637-2.426-2.062-3.438 1.882-2.742 4.16-5.348 5.355-8.797.402-1.16.566-2.441.738-3.93.43-3.73.02-7.293-1.62-9.726-1.427-2.114-2.4-4.719-5.31-5.356-1.695-.375-3.222.543-4.273 1.227-.879.57-1.87 1.246-2.406 1.918-.492.61-.852 1.472-1.23 2.258-1.106 2.3-2.024 5.117-2.258 8.207-.278 3.597.312 6.472 1.18 9.187.245.781.843 1.914.785 2.7-.075.976-1.102 1.394-1.723 1.917-.242.207-.45.54-.734.786-.653.57-2.09 1.109-2.31 2.113-.284 1.316.88 2.156 1.571 2.851.344.34 1.149.852 1.18 1.375.027.434-.426 1.036-.688 1.278-.527.484-1.363.668-1.816 1.129.258 1.71.727 3.812 2.848 3.683 1.043-.062 2.039-.699 3.242-.785m4.57 12.43c1.512-.235 2.153-3.95.196-4.324-2.735-.524-3.422 4.824-.196 4.324m11.719 1.125c2.598-.34 4.351-1.535 4.559-2.707-.48-1.02-2.485-2.719-5.56-2.719-2.01.379-4.132 1.918-4.132 2.73 0 .922 2.258 1.899 5.133 2.696m4.937-11.739c.305.055.692.551 1.032.836 1.011.852 2.129 1.793 3.832 1.524.183-1.305-.13-2.594-.442-3.93-.125-.531-.222-.945 0-1.23.243-.309 1.297-.36 1.868-.489 1.28-.293 2.328-.296 2.503-1.574.22-1.594-.761-2.793-1.226-3.879 3.242-2.695 6.469-7.922 4.765-14.101-.214-.774-.511-1.442-.785-2.114-.265-.648-.511-1.414-.886-2.015-.438-.703-1.25-1.438-2.012-2.113-1-.88-2.707-2.172-4.375-1.375-.27.128-.73.527-.984.835-1.606 1.977-1.672 5.348-2.504 8.208-.907 3.097-1.97 5.472-1.817 8.89.016.418.133.965.047 1.277-.176.653-.894.786-1.57 1.032-.297.433-.512.691-.934.933-1.062.614-2.16.5-2.21 2.114-.048 1.41.644 2.941 1.03 4.078-.96.793-2.53.972-3.785 1.472-.172.786.266 1.371.446 1.965 2 .418 4.078.133 6.09-.097.597-.067 1.464-.325 1.917-.247m-80.796-18.914c-.446-1.007-1.215-2.004-.883-3.39.097-.403.418-.774.636-1.227.567-1.168 1.04-2.738 1.622-3.832-.07-3.676 4.335-2.87 4.375-6.437 2.191.254 2.921-1.242 4.175-2.114.766-.53 1.61-1.011 2.703-1.082.297-.015.676.149 1.13.102.374-.043.98-.547 1.523-.738 2.449-.864 5.652-.645 6.336-3.293 1.879-.742 2.652-2.59 3.785-4.078.656-.086 1.324.113 2.016 0 .89-.145 1.44-.993 2.109-1.426.984-.633 2.152-1.012 3.39-1.422 1.227-.406 2.602-.762 4.176-.836 4.02-.191 6.996 1.437 8.7 3.684.878 1.16 1.8 2.308 2.75 3.441.925 1.105 1.855 2.352 3.23 2.996 1.375-.644 2.3-1.89 3.227-2.996a90 90 0 0 0 2.753-3.441c1.7-2.247 4.68-3.875 8.696-3.684 1.578.074 2.949.43 4.176.836 1.238.41 2.406.789 3.39 1.422.672.433 1.223 1.281 2.113 1.426.688.113 1.36-.086 2.012 0 1.137 1.488 1.91 3.335 3.785 4.078.684 2.648 3.891 2.43 6.34 3.293.543.191 1.145.695 1.52.738.457.047.836-.117 1.133-.102 1.093.07 1.933.551 2.703 1.082 1.254.871 1.984 2.368 4.175 2.114.036 3.566 4.442 2.761 4.372 6.437.585 1.094 1.058 2.664 1.62 3.832.22.453.544.824.641 1.227.332 1.386-.441 2.383-.886 3.39.449.829 1.41 2.25.886 3.637-.168.445-1.011 1.055-1.277 1.621-.695 1.489 0 3.574-.543 4.961-.375.961-1.219 1.344-2.11 1.621-.343 1.426-.792 2.746-1.968 3.34-2.84-.812-4.762.785-5.156 3.05-5.434 1.74-7.305 7.044-8.747 12.774l-1.523 1.078h-62.668l-1.52-1.078c-1.445-5.73-3.312-11.035-8.746-12.773-.398-2.266-2.32-3.863-5.16-3.05-1.172-.595-1.62-1.915-1.965-3.34-.89-.278-1.738-.66-2.113-1.622-.543-1.387.156-3.472-.539-4.96-.266-.567-1.11-1.177-1.277-1.622-.524-1.387.433-2.808.883-3.637M200.523 91.637h-63.296c-.813 0-1.473.968-1.473 2.168 0 1.199.66 2.172 1.473 2.172h63.296c.813 0 1.473-.973 1.473-2.172s-.66-2.168-1.473-2.168" style="stroke:none;fill-rule:nonzero;fill:#ec2f35;fill-opacity:1"></path><path d="m170.297 14.254 1.316-.965.871 2.566Zm-4.16-.965 1.312.965-2.183 1.601Zm-3.32-4.52h3.078l-.614 1.805Zm4.855 0h2.402l.969 2.848L169.16 13a.44.44 0 0 0-.285-.133c-.098 0-.195.051-.29.133l-1.882-1.383Zm1.203-3.539.629 1.86h-1.262Zm6.055 3.54-2.461 1.804-.617-1.804Zm-1.895 3.476 7.04-5.156h-8.794L168.875 0l-2.41 7.09h-8.79l7.04 5.156-2.762 8.121 5.477-4.012c-.532 2.016-1.797 4.047-1.797 6.418 0 1.16.281 1.696.281 2.094 0 1.035-.86 1.567-2.129 1.875l5.09 5.7 5.09-5.7c-1.27-.308-2.133-.84-2.133-1.875 0-.398.285-.933.285-2.094 0-2.37-1.265-4.402-1.797-6.418l5.477 4.012" style="stroke:none;fill-rule:nonzero;fill:#ec2f35;fill-opacity:1" data-source="https://football-logos.cc"></path><!-- source: https://football-logos.cc --></svg>