<svg xmlns="http://www.w3.org/2000/svg" xml:space="preserve" viewBox="238.11 250.66 3268.27 4389.04"><!-- Source: https://football-logos.cc --><path d="M9469.28 13498.6c-2436.36-2209.4-6830.69-491-6830.69-491V6802.28c103.56-2831.67 3559.55-3215.22 3559.55-3215.22 2907.49-640.61 3053.21-2301.47 3053.21-2301.47h435.86s145.77 1660.86 3053.19 2301.47c0 0 3456 383.55 3559.6 3215.22v6205.32s-4394.3-1718.4-6830.72 491" style="fill:#e31e28;fill-opacity:1;fill-rule:nonzero;stroke:none" transform="matrix(.1983 0 0 -.1983 0 4894.613)" data-source="https://football-logos.cc"></path><path d="M14660.5 4577.54c1047.5 543.35 1599 1349.57 1639.5 2396.26v5822c-529.9-163.1-1418.4-392.5-2432-473.4V4252.07c245 78.1 519.2 183.67 792.5 325.47" style="fill:#fff;fill-opacity:1;fill-rule:nonzero;stroke:none" transform="matrix(.19361 0 0 -.19361 0 4894.613)"></path><path d="M12993.6 16300V3508.47h30.7c598 577.04 1548.1 1160.93 3056.6 1530.19V15510.9c-1181.5 56.5-2214.1 320.7-3087.3 789.1" style="fill:#fff;fill-opacity:1;fill-rule:nonzero;stroke:none" transform="matrix(.15357 0 0 -.15357 0 4894.613)"></path><path d="M11475.4 16300c-867.2-485.6-1896.99-763.7-3078.01-831.3V5000.03c1450.49-369.1 2372.11-938.68 2956.01-1502.12h122z" style="fill:#fff;fill-opacity:1;fill-rule:nonzero;stroke:none" transform="matrix(.15403 0 0 -.15403 0 4894.613)"></path><path d="M3901.51 16300V8883.65c51.92-1341.24 762.3-2372.28 2111.5-3064.44 331.01-169.75 660.77-298 957.79-394.24V15699.4c-1279.18 105-2399.21 394.4-3069.29 600.6" style="fill:#fff;fill-opacity:1;fill-rule:nonzero;stroke:none" transform="matrix(.15199 0 0 -.15199 0 4894.613)"></path><path d="M9812.76 15211.9s35.61 59.1 36.36 241.4c.69 180.2-267.05 445.1-493.49 228.6-66.61-63.6-77.15-84.5-149.55-162.4 0 0-316.18 495.7-743.46-153.8 0 0-182.25-210.8-489.89 105.4 0 0-4.3-10 0 173.8 62.56 69.6 94.67 128.6 120.63 182.9 0 0 141.42 472.2-297.25 443.7 0 0-432.92-102.5-102.51-598.1 0 0 205.08-299.1-444.35-205.1 0 0 5.79 8.3 14.83 22.6 111.85 76 185.35 204.2 185.35 349.6 0 209.1-152 382.2-351.38 416-22.32 5.6-45.69 10.8-71.01 15-18.57-3.7-35.85-7.9-52.83-12.3-208.27-26-369.5-203.4-369.5-418.7 0-144.8 72.9-272.5 183.95-348.5 9.89-15 16.23-23.7 16.23-23.7-649.43-94-444.35 205.1-444.35 205.1 330.4 495.6-102.57 598.1-102.57 598.1-438.61 28.5-297.25-443.7-297.25-443.7 26.02-54.3 58.12-113.3 120.69-182.9 4.24-183.8 0-173.8 0-173.8-307.64-316.2-489.94-105.4-489.94-105.4-427.28 649.5-743.43 153.8-743.43 153.8-72.38 77.9-82.96 98.8-149.54 162.4-226.45 216.5-494.2-48.4-493.48-228.6.71-182.3 36.31-241.4 36.31-241.4-512.71-324.7 213.63-649.4 213.63-649.4-512.71-589.6 461.44-555.5 461.44-555.5-375.99-529.8 350.35-487 350.35-487-563.98-683.6 734.87-393.1 734.87-393.1 290.56-401.6 1025.42-341.8 1025.42-341.8s734.92-59.8 1025.43 341.8c0 0 1298.86-290.5 734.92 393.1 0 0 726.32-42.8 350.33 487 0 0 974.18-34.1 461.43 555.5 0 0 726.35 324.7 213.61 649.4" style="fill:#e31e28;fill-opacity:1;fill-rule:nonzero;stroke:none" transform="matrix(.26702 0 0 -.26702 0 4894.613)"></path><path d="M9240.48 16048.6c0-138.9-279.6-251.5-624.54-251.5-344.87 0-624.48 112.6-624.48 251.5 0 138.8 279.61 251.4 624.48 251.4 344.94 0 624.54-112.6 624.54-251.4" style="fill:#fff;fill-opacity:1;fill-rule:nonzero;stroke:none" transform="matrix(.21778 0 0 -.21778 0 4894.613)"></path><path d="M9178.82 16096.2c0-112.5-57.04-203.7-127.35-203.7-70.32 0-127.36 91.2-127.36 203.7 0 112.6 57.04 203.8 127.36 203.8 70.31 0 127.35-91.2 127.35-203.8" style="fill:#fff;fill-opacity:1;fill-rule:nonzero;stroke:none" transform="matrix(.22394 0 0 -.22394 0 4894.613)"></path><path d="M8401.29 16098.7c0-111.1-56.28-201.2-125.79-201.2-69.44 0-125.78 90.1-125.78 201.2 0 111.2 56.34 201.3 125.78 201.3 69.51 0 125.79-90.1 125.79-201.3" style="fill:#fff;fill-opacity:1;fill-rule:nonzero;stroke:none" transform="matrix(.22674 0 0 -.22674 0 4894.613)"></path><path d="M7833.88 16096.2c0-112.5-57.04-203.7-127.36-203.7-70.37 0-127.41 91.2-127.41 203.7 0 112.6 57.04 203.8 127.41 203.8 70.32 0 127.36-91.2 127.36-203.8" style="fill:#fff;fill-opacity:1;fill-rule:nonzero;stroke:none" transform="matrix(.22394 0 0 -.22394 0 4894.613)"></path><path d="M8499.85 13975s57.19 370.2 809.63 713.3c0 0 1152.72 881.8 761.42 1267.1 0 0-221.4 344.6-914.9 0 0 0-597.69-43.7-902.92 210.7h-326.81s426.11-662.2-133.69-960.1c0 0 36.14-189.7 207.67-135.5 0 0 939.06 912 1516.91 830.7 0 0 463.3-77.5 108.37-433.4 0 0-426.11-375.5-603.92-483.7l12.51-220.6-641.11-465s-43.64-317.5 106.84-323.5" style="fill:#fff;fill-opacity:1;fill-rule:nonzero;stroke:none" transform="matrix(.2527 0 0 -.2527 0 4894.613)"></path><path d="M8560.73 15581.2h672.16s877.51 550.8 504.1 718.8c0 0-634.8-65.3-1176.26-718.8" style="fill:#fff;fill-opacity:1;fill-rule:nonzero;stroke:none" transform="matrix(.24443 0 0 -.24443 0 4894.613)"></path><path d="M6376.23 13975s-57.14 370.2-809.58 713.3c0 0-1152.76 881.8-761.48 1267.1 0 0 221.44 344.6 914.97 0 0 0 597.63-43.7 902.91 210.7h326.81s-426.1-662.2 133.7-960.1c0 0-36.14-189.7-207.67-135.5 0 0-939.06 912-1516.91 830.7 0 0-463.3-77.5-108.37-433.4 0 0 426.11-375.5 603.91-483.7l-12.5-220.6 641.06-465s43.68-317.5-106.85-323.5" style="fill:#fff;fill-opacity:1;fill-rule:nonzero;stroke:none" transform="matrix(.2527 0 0 -.2527 0 4894.613)"></path><path d="M6819.5 15581.2h-672.17s-877.5 550.8-504.09 718.8c0 0 634.79-65.3 1176.26-718.8" style="fill:#fff;fill-opacity:1;fill-rule:nonzero;stroke:none" transform="matrix(.24443 0 0 -.24443 0 4894.613)"></path><path d="m6582.04 16300 171.1-402.2h459.52l-374.91-236.2 134.03-414.6-389.74 248.6-389.7-248.6 133.99 414.6-374.91 236.2h459.47z" style="fill:#e31e28;fill-opacity:1;fill-rule:nonzero;stroke:none" transform="matrix(.2849 0 0 -.2849 0 4894.613)"></path><path d="M7245.85 13060.3c-129.11-86.4-1053.7-650.2-2342.82-323.8 0 0-2046.41 370.4-2346.32-617.5 0 0-40.76-291.9-62.81-320.5 0 0-293.29-167.7-51.86 479.3 0 0 202.88 370.4 882.08 635 0 0 1878.81 388.2 538.06 2416.9 0 0-4.72-122.1-61.74-299.9 0 0-141.13-379.3-264.63-370.5 0 0-225.23 116.1-273.44 582.2v529.3s58.81 423.4 170.54 529.2c0 0-999.68-405.8-787.99-1587.7 0 0 194.05-917.4-987.92-1517.2-1181.976-599.8-882.073-1993.5 476.32-2681.5 1358.39-688.01 3210.74-458.7 2857.91 0 0 0-341.28 228.8 2246.43 317.2 2587.62-88.4 2246.36-317.2 2246.36-317.2-352.82-458.7 1499.48-688.01 2857.88 0 1358.4 688 1658.3 2081.7 476.3 2681.5-1181.9 599.8-987.9 1517.2-987.9 1517.2 211.7 1181.9-788 1587.7-788 1587.7 111.8-105.8 170.6-529.2 170.6-529.2v-529.3c-71-483.7-273.5-582.2-273.5-582.2-123.5-8.8-264.6 370.5-264.6 370.5-44.5 163.1-61.7 299.9-61.7 299.9-1340.77-2028.7 538-2416.9 538-2416.9 679.2-264.6 882.1-635 882.1-635 241.4-647-51.9-479.3-51.9-479.3-22 28.6-62.8 320.5-62.8 320.5-299.9 987.9-2346.29 617.5-2346.29 617.5-1289.1-326.4-2197.24 237.4-2326.36 323.8" style="fill:#e31e28;fill-opacity:1;fill-rule:nonzero;stroke:none" transform="matrix(.25868 0 0 -.25868 0 4894.613)"></path><path d="M11907.6 16300s322-386.1 306.3-1311c0 0 46.3-913 821-1243.2 0 0 1396.8-619.3 490.1-1807.8 0 0-1311.1-1580.6-3185.7-1213 0 0-217.1 263.4 624.9 269.6l1056.4 1078.2s1051.1-183.8 793.7 784.2c0 0 0 307.3-1384.5 888.8 0 0-1102.7 361-453.4 1684.3 0 0 232.8-526.9 465.6-526.9 0 0 453.4 49 465.6 1396.8M3146.93 16300s-339.66-367.7-306.31-1311c0 0 40.17-913-820.93-1243.2 0 0-1396.815-619.3-490.12-1807.8 0 0 1311.05-1580.6 3185.72-1213 0 0 217.13 263.4-624.89 269.6l-1056.44 1078.2s-1051.03-183.8-793.72 784.2c0 0 0 307.3 1384.55 888.8 0 0 1102.7 361 453.35 1684.3 0 0-232.8-526.9-465.6-526.9 0 0-453.35 49-465.61 1396.8" style="fill:#fff;fill-opacity:1;fill-rule:nonzero;stroke:none" transform="matrix(.2483 0 0 -.2483 0 4894.613)"></path><path d="M12444 15758s-1959.9-170.7-2264.2-14.8c0 0-564.27 44.6-1031.94 556.8-467.73-512.2-1031.96-556.8-1031.96-556.8-304.33-155.9-2264.24 14.8-2264.24 14.8-2048.97 178.1-2081.95-727.5-2081.95-727.5l1432.95-1499.6 493.1-29.7c527.09 415.7 3452.1 512.2 3452.1 512.2v.1s2924.94-96.6 3452.04-512.3l493.1 29.7 1433 1499.6s-33 905.6-2082 727.5" style="fill:#fff;fill-opacity:1;fill-rule:nonzero;stroke:none" transform="matrix(.2049 0 0 -.2049 0 4894.613)"></path><path d="M5358.01 15375.3h723.44v-810.1h367.06v810.1h726.01v-2315.1h-726.01v936.5h-367.06v-936.5h-723.44zM11733.2 15375.3h722.1V13996c0-136.8-17.5-265.9-52.5-387.4-34.9-121.5-89.7-227.8-164.4-318.8s-153-154.9-235-191.7c-114-51.6-250.8-77.3-410.4-77.3-92.4 0-193.2 7.9-302.4 23.6-109.1 15.8-200.5 47.1-273.8 93.9-73.4 46.8-140.5 113.4-201.3 199.7-60.9 86.2-102.5 175.1-125 266.6-36.2 147.4-54.3 277.8-54.3 391.4v1379.3h722.1v-1412.1c0-126.2-9.5-236.8 17.6-295.9 34.1-63.8 68.6-106.5 170.5-106.5 104.6 12.8 118.9 29.9 169.1 105 27.9 63.6 17.7 169 17.7 297.4z" style="fill:#e31e28;fill-opacity:1;fill-rule:nonzero;stroke:none" transform="matrix(.13333 0 0 -.13333 0 4894.613)"></path><path d="m14699.2 12853.1 518.7 39.6c11.3-102.8 34.1-181 68.6-234.9 56.3-87.1 136.5-130.6 240.8-130.6 77.8 0 137.8 22.2 179.9 66.8 42.2 44.5 63.2 96.1 63.2 154.8 0 55.8-20.1 105.7-60.2 149.8s-133.2 85.6-279.2 124.8c-239.1 65.5-409.7 152.6-511.5 261.3-102.7 108.7-154.1 247.1-154.1 415.4 0 110.7 26.3 215.1 78.8 313.5 52.6 98.4 131.6 175.6 237.2 231.9 105.4 56.3 250.1 84.4 433.8 84.4 225.5 0 397.4-51.1 515.8-153.3 118.4-102.4 188.8-265.1 211.2-488.2l-513.9-36.7c-13.7 96.9-42.3 167.3-86.1 211.4s-104.1 66.1-181.2 66.1c-63.3 0-111.1-16.5-143.1-49.2-32.1-32.8-48.2-72.7-48.2-119.7 0-34.2 13.3-65.1 39.7-92.4 25.7-28.5 86.6-54.9 182.9-79.3 238.4-62.7 409.1-126.1 512.2-190.1 103.1-64.2 178.2-143.7 225.1-238.6 46.9-95 70.4-201.1 70.4-318.6 0-138-31.3-265.2-93.9-381.7-62.6-116.4-150-204.8-262.3-264.9-112.4-60.2-254.1-90.3-425-90.3-300 0-507.8 70.5-623.5 211.3-115.5 141.1-180.9 320.1-196.1 537.4" style="fill:#e31e28;fill-opacity:1;fill-rule:nonzero;stroke:none" transform="matrix(.14343 0 0 -.14343 0 4894.613)" data-source="https://football-logos.cc"></path><path d="m15705.4 9978.57-150 595.63-148.3-595.63zm87-358.26h-476.5l-66.2-273.53h-428.6l461.6 1656.82h555.8l461.5-1656.82h-439.6z" style="fill:#e31e28;fill-opacity:1;fill-rule:nonzero;stroke:none" transform="matrix(.1863 0 0 -.1863 0 4894.613)"></path><path d="M15883.5 7164.98c-148.6 0-269.5-120.9-269.5-269.51s120.9-269.44 269.5-269.44 269.5 120.83 269.5 269.44-120.9 269.51-269.5 269.51m0-685.98c-229.6 0-416.5 186.83-416.5 416.47 0 229.71 186.9 416.54 416.5 416.54 229.7 0 416.5-186.83 416.5-416.54 0-229.64-186.8-416.47-416.5-416.47" style="fill:#e31e28;fill-opacity:1;fill-rule:nonzero;stroke:none" transform="matrix(.18626 0 0 -.18626 0 4894.613)"></path><path d="M11534.1 11515.4c-207.5 0-376.4-168.9-376.4-376.5s168.9-376.5 376.4-376.5c207.6 0 376.5 168.9 376.5 376.5s-168.9 376.5-376.5 376.5m0-958.4c-320.8 0-581.8 261-581.8 581.9 0 320.8 261 581.8 581.8 581.8 320.9 0 581.9-261 581.9-581.8 0-320.9-261-581.9-581.9-581.9M11534.1 10009.3c-207.5 0-376.4-168.9-376.4-376.5s168.9-376.4 376.4-376.4c207.6 0 376.5 168.8 376.5 376.4s-168.9 376.5-376.5 376.5m0-958.3c-320.8 0-581.8 261-581.8 581.8 0 320.9 261 581.9 581.8 581.9 320.9 0 581.9-261 581.9-581.9 0-320.8-261-581.8-581.9-581.8" style="fill:#e31e28;fill-opacity:1;fill-rule:nonzero;stroke:none" transform="matrix(.13333 0 0 -.13333 0 4894.613)"></path><path d="M15220.2 10137.9c-494.7 0-897.2-402.6-897.2-897.31 0-494.79 402.5-897.26 897.2-897.26s897.3 402.47 897.3 897.26c0 494.71-402.6 897.31-897.3 897.31m0-1977.01c-595.3 0-1079.7 484.31-1079.7 1079.7s484.4 1079.71 1079.7 1079.71c595.4 0 1079.8-484.32 1079.8-1079.71s-484.4-1079.7-1079.8-1079.7" style="fill:#e31e28;fill-opacity:1;fill-rule:nonzero;stroke:none" transform="matrix(.15004 0 0 -.15004 0 4894.613)"></path><path d="M16300 9747.51c0-135.26-109.6-244.85-244.8-244.85-135.3 0-244.9 109.59-244.9 244.85 0 135.27 109.6 244.85 244.9 244.85 135.2 0 244.8-109.58 244.8-244.85" style="fill:#e31e28;fill-opacity:1;fill-rule:nonzero;stroke:none" transform="matrix(.14224 0 0 -.14224 0 4894.613)"></path><path d="m6561.01 10568.4 551.12 1109.5h-376.5L5460.7 9059.6h350.82l580.54 1168.7 574.61-1168.7h385.04z" style="fill:#e31e28;fill-opacity:1;fill-rule:nonzero;stroke:none" transform="matrix(.13333 0 0 -.13333 0 4894.613)"></path><path d="M7407.73 15925.2c-45.68-143.8-87.62-242.9-125.74-297.4-38.06-54.6-84.17-81.8-138.38-81.8-33.03 0-69.19 17.7-108.58 53.2-39.33 35.4-77.25 84.2-113.63 146.3 42.34-13.6 78.31-20.6 107.93-20.6 143.5 0 253.52 90.8 330.2 272.2-31.36 31.8-55.89 75-73.66 129.8l96.47 173.1c37.26-113.4 81.29-170.2 132.07-170.2h39.35c6.33 0 12.37-4.8 18.13-14.6 5.68-9.8 8.56-20.3 8.56-31.6v-178.2c0-29.3-13.31-44-40-44-51.65 0-95.89 21.2-132.72 63.8" style="fill:#e31e28;fill-opacity:1;fill-rule:nonzero;stroke:none" transform="matrix(.18535 0 0 -.18535 0 4894.613)"></path><path d="m7724.28 15640 97.63-95.4-85-115-98.28 95.3-82.5-112.7-97.71 101.1 81.29 109.9 98.92-96.8zm-48.46 385.7c-8 43.1-23.77 80.5-47.32 112l88.21 162.3c42.04-85.4 63.02-173.2 63.02-263.4 0-111.2-15.99-195.3-47.89-252.5-36.11-31.6-102.7-47.4-199.69-47.4h-27.7l-31.54-.7c-23.48 0-35.19 14.8-35.19 44.4v176.8c0 30.6 9.64 45.8 28.91 45.8h120.97c37.33 0 66.81 7.6 88.22 22.7" style="fill:#e31e28;fill-opacity:1;fill-rule:nonzero;stroke:none" transform="matrix(.18682 0 0 -.18682 0 4894.613)"></path><path d="M7838.06 15884.9h8.69c0-38.4 41.98-57.7 126.02-57.7 101.07 0 175.71 14.9 223.98 44.7-17.88 74.9-40.64 132.6-68.34 172.9-27.64 40.4-58.31 60.6-91.96 60.6-17.88 0-36.47-8.9-55.55-26.7l-9.33 2.2 3.11 22.3c9.97 76.9 20.99 128.9 33.08 156 12.01 27.2 30.11 40.8 54.28 40.8 15.76 0 35.69-10.7 59.86-32.1 24.11-21.4 46.37-47.9 66.73-79.6 58.24-91.3 87.35-194.8 87.35-310.7 0-91.2-16.46-178.4-49.26-261.6-56.61-34-139.8-51.1-249.57-51.1-60.71 0-102.13 10.9-124.11 32.8-22.12 21.9-33.08 62.8-33.08 122.9 0 28.3 2.48 59.8 7.5 94.4l6.85 45.4z" style="fill:#e31e28;fill-opacity:1;fill-rule:nonzero;stroke:none" transform="matrix(.18865 0 0 -.18865 0 4894.613)"></path><path d="m8274.7 16136.5 88.01 163.5 37.6-526.9c3.2-49.8 9.69-84.9 19.31-105.2 9.7-20.5 24.55-30.7 44.64-30.7 4.11 0 9.06.3 14.78.7h3.7c20.92 0 31.38-14.8 31.38-44.7v-171.4c0-29.4-12.9-44.1-38.77-44.1-51.68 0-87.81 25.1-108.31 75.4-20.58 50.2-35.29 149.5-44.29 298l-3.14 47.6c-4.88 79.6-17.01 175.4-36.26 287.3z" style="fill:#e31e28;fill-opacity:1;fill-rule:nonzero;stroke:none" transform="matrix(.19118 0 0 -.19118 0 4894.613)"></path><path d="M8426.31 15582.4c0 10.8 2.3 20.9 7.04 30.1s10.73 13.9 18.19 13.9h185.08c9.83 0 19.66.7 29.55 2.1 9.83 1.5 19.1 3.3 27.67 5.7 8.64 2.4 16.1 5 22.44 7.8 6.41 2.9 11.01 5.7 13.87 8.6-4.95 17-10.6 33.2-16.94 48.6s-14.07 31.3-23.07 47.6c-9.05 16.3-19.79 33.5-32.26 51.5-12.55 18-26.97 38.1-43.41 60.4l-9.21-15.6c-6.13 6.6-13.72 14.8-22.71 24.5-9.06 9.7-17.84 20.3-26.48 31.6-8.64 11.4-16.03 23-22.16 34.9-6.14 11.8-9.2 23.2-9.2 34 0 10.4 1.39 22.8 4.32 37 2.86 14.2 6.62 28.7 11.36 43.3 4.74 14.7 9.89 29.4 15.68 44.1 5.71 14.7 11.36 27.9 16.93 39.8 5.51 11.8 10.66 21.6 15.33 29.1 4.74 7.6 8.29 12.1 10.8 13.5 27.46 12.3 57.98 24.7 91.64 37.3 33.59 12.6 68.36 24.5 104.25 35.9s71.64 21.6 107.32 30.6 69.34 16.1 100.84 21.3l-57.77-142.9c-62.72-15.1-120.35-32.5-172.83-52.2-52.47-19.6-101.95-42-148.29-67.1 20.49-28 41.88-57.6 63.97-88.8 22.16-31.3 42.51-63.8 60.91-97.7 18.47-33.9 33.73-69.2 45.85-105.9 12.06-36.7 18.12-74.5 18.12-113.4 0-38.8-6.76-78-20.27-117.5-13.53-39.6-31.99-78.1-55.41-115.5-2.37-3.8-8.92-7.7-19.3-11.7-10.45-4-23-7.7-37.56-11-14.57-3.4-30.25-5.9-47.04-7.9-16.79-1.9-32.82-2.8-47.95-2.8h-121.18c-13.94 0-23.77 4.5-29.55 13.5-5.71 9-8.57 18.9-8.57 29.9z" style="fill:#e31e28;fill-opacity:1;fill-rule:nonzero;stroke:none" transform="matrix(.19133 0 0 -.19133 0 4894.613)"></path><path d="m8968.09 15904.5 95.32 167.6c-1.17-10.8-1.79-21.5-1.79-32.3l-1.24-38.6 1.24-42.1 3.58-70c2.06-34.7 5.29-78.9 9.76-132.6 2.41-25.8 4.41-49.1 6.06-70.1l6.05-75.1 7.29-83.4 4.88-67.4c2-27.6 3.03-47 3.03-58.2 0-71-23.25-147.7-69.81-229.9l-3.64-7.1-10.32-1.3c3.64 24.2 5.43 55.5 5.43 93.9 0 27.1-3.44 79.4-10.31 157.1l-6.06 71.5c-1.58 17.8-5.71 58.9-12.1 123.4-3.64 36.5-6.53 65.7-8.53 87.7l-7.91 82.7-6.67 66.7c-.82 9.7-2.2 28.9-4.26 57.5m143.88 279.1-27.31-61.7c-55.02-5.2-108.87-25.8-161.48-61.8l-2.41 5.6c12.93 25.8 27.1 45.9 42.43 60.4-23.38 17.2-35.14 33.2-35.14 47.6 0 17.8 11.9 44.2 35.76 79.3 21.12 31.3 45.74 47 74.08 47 23.03 0 34.59-13.8 34.59-41.4 0-13.1-3.85-27.6-11.56-43.5-7.63 15.4-18.36 23.1-32.11 23.1-15.82 0-36.87-10-63.14-30.1 18.23-25.7 43.88-38.6 77.1-38.6 25.86 0 48.96 4.7 69.19 14.1" style="fill:#e31e28;fill-opacity:1;fill-rule:nonzero;stroke:none" transform="matrix(.19387 0 0 -.19387 0 4894.613)"></path><path d="m10330 15593.9-21.5 144c-48.8-28.8-87.2-63.1-115.6-102.8 46-27.5 91.6-41.2 137.1-41.2m97.6 706.1 95.8-93-82.9-112.1-95.8 93-80.5-110.1-95.8 98.7 79.2 107.8 97.1-95zm-55.9-245.5 25.2-317.9q10.5-131.4 79.2-131.4h37.5q25.2 0 25.2-43.2v-173.2q0-43.2-37.5-43.2h-38.1c-36.8 0-65 15.7-84.4 47.1-19.5 31.5-34.5 85.5-45.1 162.2h-3.7c-30.4-76.7-62.3-135.6-95.9-176.7-130.6 20.3-210.7 62.2-240.15 125.6 31.95 95.6 60.75 160.1 86.55 193.7q35.7 47.55 216.9 120.6l-11.6 85.2z" style="fill:#e31e28;fill-opacity:1;fill-rule:nonzero;stroke:none" transform="matrix(.19158 0 0 -.19158 0 4894.613)"></path><path d="m11141.2 15793.6 98.6-96.2-85.9-116.1-99.2 96.2-83.3-114.6-98.6 102.8 82 111 99.9-97.7zm-75.7 258.7-56.6-131.6c-12.3-19.6-52-29.3-119-29.3-23.7 0-39.6 3-47.6 9.2-8.1 6.1-12.2 18.2-12.2 36.4v176.3c0 31.9 8.1 47.7 24.3 47.7h144.3c12.3 0 30.4 6 54.1 17.7l44.5 120.5 7.7.8c19.4-92.6 56-139 109.4-139h29.2c21.2 0 31.8-15.3 31.8-46.2V15937c0-30-12.5-44.9-37.5-44.9h-51.6c-21.9 0-44.9 18-68.9 54s-38.3 73.6-43 112.8z" style="fill:#e31e28;fill-opacity:1;fill-rule:nonzero;stroke:none" transform="matrix(.185 0 0 -.185 0 4894.613)"></path><path d="m11188.4 16300 110.8-116.5-84-106.3-110.8 110zm-12.4-600.2-55.4-128.6c-12-19.2-50.8-28.7-116.4-28.7-23.1 0-38.7 2.9-46.6 8.9-7.8 6-11.8 17.9-11.8 35.6v172.5c0 31.2 7.8 46.7 23.6 46.7h141.2c12.1 0 29.7 5.8 53 17.3l43.5 117.8 7.4.8q28.65-135.9 107.1-135.9h28.6c20.7 0 31.1-15 31.1-45.3V15587c0-29.2-12.3-43.8-36.7-43.8h-50.4c-21.5 0-44.1 17.5-67.5 52.8-23.5 35.2-37.5 72-42 110.3z" style="fill:#e31e28;fill-opacity:1;fill-rule:nonzero;stroke:none" transform="matrix(.18915 0 0 -.18915 0 4894.613)"></path><path d="m12315 15931.9-23.5-66-32.4-1.5c-47 0-109.5 24.5-187.6 73.4-95.7-43-171.6-66.3-227.6-69.8l-31.1-2.1-9-.8-14 1.5c-10.1.9-19.3 3.4-27.3 7.3l17.2 53.6-5.7.8c-38.2-28.9-75.7-43.3-112.5-43.3h-73.2c-27.1 0-40.7 14.4-40.7 43.3v179.2c0 30.9 12.7 46.3 38.1 46.3h110.7c51.7 0 91.4 8.2 118.9 24.6 27.6 16.4 57.3 50.1 89 101l6.4.7-19.1-116.8c20.8-7.3 44.7-11 71.9-11 52.1 0 86.2 5.2 102.3 15.4 22.9 14.7 48.4 57.1 76.3 127.1l7 5.2 17.2-122.7c22.4-23 51.9-37.4 88.4-43.4l39.4 129.4 8.3 3.6c26.7-74.5 63.8-111.6 111.3-111.6l34.9-1.5c17.4 0 26.1-15.2 26.1-45.5v-178.5c0-29.9-13.1-44.8-39.4-44.8-27.5 0-47 1.8-58.2 5.4-11.3 3.7-27.1 13.7-47.4 29.8q-5.1 3.6-14.7 11.7" style="fill:#e31e28;fill-opacity:1;fill-rule:nonzero;stroke:none" transform="matrix(.18508 0 0 -.18508 0 4894.613)"></path><path d="m13172.3 16096.7-106.9-195.4c-86.4 0-165.1-18.9-236.4-56.6l-51.5-28.4-27.7-14.5-24.5-15.2c-75.9-45-152.7-72.2-230.7-81.4l-37-1.4h-169.2c-25.9 0-39 15-39 45v175c0 11.2 2.9 21.6 8.5 31.3 5.7 9.7 11.7 14.4 17.9 14.4h353.3c79.7 0 145.6 17.8 198 53.1-98.1 66.3-187.5 99.5-268.3 99.5-62.5 0-107.2-17.5-133.9-52.3l-8.9 7.2c14.3 66.9 40.5 120.7 78.6 161.6 38.2 41 81.3 61.4 129.5 61.4 36.1 0 70.6-6.3 103.7-18.9s76.5-36.1 130.2-70.4c62-39.8 114.6-67.5 158.1-83.2 43.3-15.7 95.4-26 156.2-30.8" style="fill:#e31e28;fill-opacity:1;fill-rule:nonzero;stroke:none" transform="matrix(.18721 0 0 -.18721 0 4894.613)"></path><path d="m8629.52 16300 113.32-66.1-52.41-127-113.93 65.9-50.55-124.5-114.61 71.5 50.07 121.4 114.75-67.1z" style="fill:#e31e28;fill-opacity:1;fill-rule:nonzero;stroke:none" transform="matrix(.19439 0 0 -.19439 0 4894.613)"></path><path d="m8394.25 16174.9 52.96 125.1 112.61-65.6-52.08-126.3-113.15 65.5" style="fill:#e31e28;fill-opacity:1;fill-rule:nonzero;stroke:none" transform="matrix(.19562 0 0 -.19562 0 4894.613)" data-source="https://football-logos.cc"></path><!-- source: https://football-logos.cc --></svg>