<svg xmlns="http://www.w3.org/2000/svg" viewBox="94.87 11.35 384.66 541.38"><!-- Source: https://football-logos.cc --><defs data-source="https://football-logos.cc"><clipPath id="a" clipPathUnits="userSpaceOnUse"><path d="M-215.567 411.291h432.401V-16.672h-432.401Z"></path></clipPath><clipPath id="b" clipPathUnits="userSpaceOnUse"><path d="M-215.402 411.958H217V-16.005h-432.4Z"></path></clipPath><clipPath id="c" clipPathUnits="userSpaceOnUse"><path d="M-357.413 129.763H74.988V-298.2h-432.401Z"></path></clipPath><clipPath id="d" clipPathUnits="userSpaceOnUse"><path d="M-215.997 403.527h432.4V-24.436h-432.4Z"></path></clipPath><clipPath id="e" clipPathUnits="userSpaceOnUse"><path d="M-215.997 403.527h432.4V-24.436h-432.4Z"></path></clipPath><clipPath id="f" clipPathUnits="userSpaceOnUse"><path d="M-234.2 391.612h432.4V-36.35h-432.4Z"></path></clipPath><clipPath id="g" clipPathUnits="userSpaceOnUse"><path d="M-264.088 370.561h432.4V-57.402h-432.4Z"></path></clipPath><clipPath id="h" clipPathUnits="userSpaceOnUse"><path d="M-295.025 341.881h432.4V-86.082h-432.4Z"></path></clipPath><clipPath id="i" clipPathUnits="userSpaceOnUse"><path d="M-324.44 297.487h432.4v-427.963h-432.4Z"></path></clipPath><clipPath id="j" clipPathUnits="userSpaceOnUse"><path d="M-345.401 204.422h432.4v-427.963h-432.4Z"></path></clipPath><clipPath id="k" clipPathUnits="userSpaceOnUse"><path d="M-144.834 330.985h432.401V-96.978h-432.4Z"></path></clipPath><clipPath id="l" clipPathUnits="userSpaceOnUse"><path d="M-159.602 336.937h432.4V-91.026h-432.4Z"></path></clipPath><clipPath id="m" clipPathUnits="userSpaceOnUse"><path d="M-164.779 330.985h432.401V-96.978h-432.4Z"></path></clipPath><clipPath id="n" clipPathUnits="userSpaceOnUse"><path d="M-180.793 337.121h432.401V-90.842h-432.4Z"></path></clipPath><clipPath id="o" clipPathUnits="userSpaceOnUse"><path d="M-187.145 330.985h432.4V-96.978h-432.4Z"></path></clipPath><clipPath id="p" clipPathUnits="userSpaceOnUse"><path d="M-199.884 334.883h432.401V-93.08h-432.4Z"></path></clipPath><clipPath id="q" clipPathUnits="userSpaceOnUse"><path d="M-174.71 322.283h432.4V-105.68h-432.4Z"></path></clipPath><clipPath id="r" clipPathUnits="userSpaceOnUse"><path d="M-183.487 274.002h432.4v-427.963h-432.4Z"></path></clipPath><clipPath id="s" clipPathUnits="userSpaceOnUse"><path d="M-165.534 272.287h432.401v-427.963h-432.4Z"></path></clipPath><clipPath id="t" clipPathUnits="userSpaceOnUse"><path d="M-170.906 283.52h432.401v-427.963h-432.4Z"></path></clipPath><clipPath id="u" clipPathUnits="userSpaceOnUse"><path d="M-170.893 289.547h432.401v-427.963h-432.4Z"></path></clipPath><clipPath id="v" clipPathUnits="userSpaceOnUse"><path d="M-172.47 298.853h432.401V-129.11h-432.4Z"></path></clipPath><clipPath id="w" clipPathUnits="userSpaceOnUse"><path d="M-160.77 294.235h432.402v-427.963H-160.77Z"></path></clipPath><clipPath id="x" clipPathUnits="userSpaceOnUse"><path d="M-267.4 65.629h432.402v-427.963H-267.4Z"></path></clipPath><clipPath id="y" clipPathUnits="userSpaceOnUse"><path d="M-275.743 87.49h432.401v-427.963h-432.401Z"></path></clipPath><clipPath id="z" clipPathUnits="userSpaceOnUse"><path d="M-297.392 76.836H135.01v-427.963h-432.4Z"></path></clipPath><clipPath id="A" clipPathUnits="userSpaceOnUse"><path d="M-310.614 103.957h432.4v-427.963h-432.4Z"></path></clipPath><clipPath id="B" clipPathUnits="userSpaceOnUse"><path d="M-314.765 119.536h432.401v-427.963h-432.4Z"></path></clipPath><clipPath id="C" clipPathUnits="userSpaceOnUse"><path d="M-124 124.515h432.402v-427.963H-124Z"></path></clipPath><clipPath id="D" clipPathUnits="userSpaceOnUse"><path d="M-134.427 95.645h432.4v-427.963h-432.4Z"></path></clipPath><clipPath id="E" clipPathUnits="userSpaceOnUse"><path d="M-146.247 92.18h432.4v-427.964h-432.4Z"></path></clipPath><clipPath id="F" clipPathUnits="userSpaceOnUse"><path d="M-154.421 91.465h432.4v-427.963h-432.4Z"></path></clipPath><clipPath id="G" clipPathUnits="userSpaceOnUse"><path d="M-162.037 80.428h432.401v-427.963h-432.4Z"></path></clipPath><clipPath id="H" clipPathUnits="userSpaceOnUse"><path d="M-158.461 62.291h432.4v-427.963h-432.4Z"></path></clipPath><clipPath id="I" clipPathUnits="userSpaceOnUse"><path d="M-167.583 63.686h432.401v-427.963h-432.4Z"></path></clipPath><clipPath id="J" clipPathUnits="userSpaceOnUse"><path d="M-173.193 178.043h432.4V-249.92h-432.4Z"></path></clipPath><clipPath id="K" clipPathUnits="userSpaceOnUse"><path d="M-201.455 188.586h432.401v-427.963h-432.4Z"></path></clipPath><clipPath id="L" clipPathUnits="userSpaceOnUse"><path d="M-216.242 170.43h432.4v-427.963h-432.4Z"></path></clipPath><clipPath id="M" clipPathUnits="userSpaceOnUse"><path d="M-239.804 179.171h432.401v-427.963h-432.4Z"></path></clipPath><clipPath id="N" clipPathUnits="userSpaceOnUse"><path d="M-249.517 171.197h432.401v-427.963h-432.4Z"></path></clipPath><clipPath id="O" clipPathUnits="userSpaceOnUse"><path d="M-204.189 167.65h432.401v-427.963h-432.401Z"></path></clipPath><clipPath id="P" clipPathUnits="userSpaceOnUse"><path d="M-288.913 77.991h432.401v-427.963h-432.4Z"></path></clipPath><clipPath id="Q" clipPathUnits="userSpaceOnUse"><path d="M-144.973 72.613h432.4V-355.35h-432.4Z"></path></clipPath><clipPath id="R" clipPathUnits="userSpaceOnUse"><path d="M-107.736 105.04h432.401v-427.962h-432.4Z"></path></clipPath><clipPath id="S" clipPathUnits="userSpaceOnUse"><path d="M-170.885 305.556h432.401v-427.963h-432.4Z"></path></clipPath><clipPath id="T" clipPathUnits="userSpaceOnUse"><path d="M-172.433 312.57h432.401v-427.963h-432.4Z"></path></clipPath><clipPath id="U" clipPathUnits="userSpaceOnUse"><path d="M-150.808 287.573h432.4V-140.39h-432.4Z"></path></clipPath><clipPath id="V" clipPathUnits="userSpaceOnUse"><path d="M-146.014 280.075h432.401v-427.963h-432.4Z"></path></clipPath><clipPath id="W" clipPathUnits="userSpaceOnUse"><path d="M-164.768 271.888h432.401v-427.963h-432.4Z"></path></clipPath><clipPath id="X" clipPathUnits="userSpaceOnUse"><path d="M-231.176 149.048h432.4v-427.963h-432.4Z"></path></clipPath></defs><path d="M0 0s-140.269 48.003-141.715 218.536c16.691 1.782 29.692 15.907 29.692 33.07 0 17.176-13.019 31.308-29.725 33.076v52.563l91.3 63.698h.261C-41.212 382.259-22.113 369.36 0 369.36" clip-path="url(#a)" style="fill:#fff;fill-opacity:1;fill-rule:nonzero;stroke:none" transform="matrix(1.33333 0 0 -1.33333 287.423 548.388)"></path><path d="M0 0s140.269 48.003 141.715 218.536c-16.691 1.782-29.692 15.907-29.692 33.07 0 17.176 13.019 31.308 29.725 33.075v52.564l-91.3 63.698h-.261C41.211 382.259 22.113 369.36 0 369.36" clip-path="url(#b)" style="fill:#fff;fill-opacity:1;fill-rule:nonzero;stroke:none" transform="matrix(1.33333 0 0 -1.33333 287.202 549.277)"></path><path d="m0 0 2.237.237v56.117l-93.014 64.894h-2.619l-.682-1.418c-8.803-18.325-27.617-30.165-47.933-30.165v-5c21.298 0 41.087 11.893 51.177 30.525l88.071-61.444V4.666c-17.096-2.891-29.725-17.668-29.725-35.254 0-17.56 12.601-32.328 29.666-35.244-.59-37.63-8.133-72.182-22.43-102.727-11.654-24.899-27.804-47.222-48.001-66.35-31.573-29.902-63.387-42.614-68.759-44.625-5.372 2.011-37.185 14.723-68.759 44.625-20.197 19.128-36.347 41.451-48.001 66.35-14.297 30.545-21.839 65.097-22.43 102.727 17.065 2.916 29.667 17.684 29.667 35.244 0 17.586-12.629 32.363-29.726 35.254v49.08l88.071 61.445c10.089-18.633 29.878-30.526 51.177-30.526v5c-20.315 0-39.131 11.84-47.933 30.165l-.681 1.418h-2.62l-93.014-64.894V.237l2.237-.237c15.671-1.657 27.489-14.808 27.489-30.588 0-15.765-11.805-28.914-27.459-30.586l-2.253-.241.019-2.266c.333-39.26 8.068-75.303 22.99-107.13 11.947-25.483 28.499-48.322 49.193-67.883 35.237-33.306 69.77-45.369 71.223-45.866l.811-.226.81.226c1.453.497 35.985 12.56 71.222 45.866 20.695 19.561 37.246 42.4 49.194 67.883 14.922 31.827 22.656 67.87 22.989 107.13l.02 2.266-2.254.241c-15.654 1.672-27.458 14.821-27.458 30.586C-27.488-14.808-15.671-1.657 0 0" clip-path="url(#c)" style="fill:#2126ff;fill-opacity:1;fill-rule:nonzero;stroke:none" transform="matrix(1.33333 0 0 -1.33333 476.55 173.017)"></path><path d="m0 0-1.242 5.185c.314.109 31.742 11.301 62.99 41.269 18.313 17.563 32.992 38.055 43.628 60.906 13.074 28.088 20.053 59.864 20.753 94.47-17.581 7.052-29.267 24.394-29.267 43.732 0 19.38 11.725 36.741 29.362 43.77v24.577l-72.28 56.064c-4.409-7.546-12.11-14.372-22-19.436-10.147-5.196-21.944-8.175-32.365-8.175v5.147c18.41 0 43.216 10.446 51.19 27.322l.69 1.46h2.686l77.142-59.835V285.71l-1.7-.601c-16.546-5.846-27.663-21.739-27.663-39.547 0-17.779 11.092-33.663 27.602-39.526l1.722-.612-.025-1.854c-.501-36.108-7.679-69.264-21.334-98.547C98.954 81.575 83.87 60.556 65.057 42.551 33.019 11.894 1.317.458 0 0" clip-path="url(#d)" style="fill:#2126ff;fill-opacity:1;fill-rule:nonzero;stroke:none" transform="matrix(1.33333 0 0 -1.33333 287.996 538.036)"></path><path d="M0 0c-1.317.458-33.863 11.893-65.9 42.551-18.814 18.005-33.898 39.024-44.833 62.472-13.656 29.283-20.833 62.439-21.334 98.547l-.025 1.854 1.722.612c16.51 5.862 27.603 21.746 27.603 39.526 0 17.808-11.117 33.701-27.663 39.547l-1.701.601v30.767l78.281 59.091h2.668l.689-1.459c7.869-16.651 31.637-26.6 50.07-26.6v-5.147c-18.81 0-43.194 9.41-53.27 26.914l-73.375-55.388v-24.556c17.638-7.029 29.364-24.39 29.364-43.77 0-19.339-11.687-36.681-29.269-43.732.701-34.662 7.701-66.48 20.815-94.602 10.663-22.866 25.376-43.366 43.728-60.929C-31.183 16.396.085 5.293.397 5.185Z" clip-path="url(#e)" style="fill:#2126ff;fill-opacity:1;fill-rule:nonzero;stroke:none" transform="matrix(1.33333 0 0 -1.33333 287.996 538.036)"></path><path d="m0 0-19.318-8.056v197.692H0Z" clip-path="url(#f)" style="fill:#2126ff;fill-opacity:1;fill-rule:nonzero;stroke:none" transform="matrix(1.33333 0 0 -1.33333 312.268 522.15)"></path><path d="m0 0-20.116-13.928v183.512H0Z" clip-path="url(#g)" style="fill:#2126ff;fill-opacity:1;fill-rule:nonzero;stroke:none" transform="matrix(1.33333 0 0 -1.33333 352.118 494.081)"></path><path d="m0 0-20.327-19.182v160.087H0Z" clip-path="url(#h)" style="fill:#2126ff;fill-opacity:1;fill-rule:nonzero;stroke:none" transform="matrix(1.33333 0 0 -1.33333 393.367 455.842)"></path><path d="m0 0-19.725-28.225V96.444H0z" clip-path="url(#i)" style="fill:#2126ff;fill-opacity:1;fill-rule:nonzero;stroke:none" transform="matrix(1.33333 0 0 -1.33333 432.587 396.65)"></path><path d="m0 0-260.242.428 8.075 6.235H-6.222Z" clip-path="url(#j)" style="fill:#2126ff;fill-opacity:1;fill-rule:nonzero;stroke:none" transform="matrix(1.33333 0 0 -1.33333 460.535 272.563)"></path><path d="M0 0h9.037v-2.376H6.005v-7.246H3.032v7.246H0z" clip-path="url(#k)" style="fill:#2126ff;fill-opacity:1;fill-rule:nonzero;stroke:none" transform="matrix(1.33333 0 0 -1.33333 193.112 441.313)"></path><path d="m0 0-1.062 3.458L-2.113 0Zm.617-2.081h-3.375l-.47-1.588h-3.035l3.616 9.622H.596l3.615-9.622H1.098Z" clip-path="url(#l)" style="fill:#2126ff;fill-opacity:1;fill-rule:nonzero;stroke:none" transform="matrix(1.33333 0 0 -1.33333 212.803 449.25)"></path><path d="M0 0h2.777L6.4-5.323V0h2.801v-9.622H6.4L2.796-4.339v-5.283H0Z" clip-path="url(#m)" style="fill:#2126ff;fill-opacity:1;fill-rule:nonzero;stroke:none" transform="matrix(1.33333 0 0 -1.33333 219.705 441.313)"></path><path d="M0 0v2.002h4.594V-2.1Q3.276-3 2.261-3.324q-1.014-.325-2.406-.325-1.712 0-2.792.584T-4.61-1.326q-.595 1.155-.594 2.652 0 1.575.649 2.74.65 1.164 1.904 1.768.978.467 2.631.467 1.596 0 2.386-.289a3.1 3.1 0 0 0 1.313-.896q.521-.607.784-1.539l-2.868-.512a1.55 1.55 0 0 1-.601.833q-.422.29-1.079.289-.978 0-1.559-.679-.58-.68-.581-2.149 0-1.562.587-2.232.588-.669 1.638-.669.499 0 .952.144.454.144 1.036.492V0z" clip-path="url(#n)" style="fill:#2126ff;fill-opacity:1;fill-rule:nonzero;stroke:none" transform="matrix(1.33333 0 0 -1.33333 241.057 449.495)"></path><path d="M0 0h7.968v-2.054H2.979v-1.529h4.627v-1.963H2.979v-1.897h5.133v-2.179H0Z" clip-path="url(#o)" style="fill:#2126ff;fill-opacity:1;fill-rule:nonzero;stroke:none" transform="matrix(1.33333 0 0 -1.33333 249.527 441.313)"></path><path d="M0 0h1.254q.204 0 .787.131.296.059.482.302a.9.9 0 0 1 .188.558q0 .466-.296.715-.295.25-1.108.25H0Zm-2.986-5.723v9.621h4.955q1.378 0 2.107-.236a2.25 2.25 0 0 0 1.175-.876q.446-.64.446-1.559 0-.8-.342-1.381a2.66 2.66 0 0 0-.939-.942q-.381-.23-1.044-.381.532-.177.774-.355.164-.118.476-.505.31-.388.416-.598l1.44-2.788h-3.36l-1.589 2.94q-.302.571-.538.741a1.25 1.25 0 0 1-.728.224H0v-3.905z" clip-path="url(#p)" style="fill:#2126ff;fill-opacity:1;fill-rule:nonzero;stroke:none" transform="matrix(1.33333 0 0 -1.33333 266.512 446.51)"></path><path d="M0 0c.001 0 1.929-.724 3.462-.724.65 0 .948.142.984.207.005.01.488.967-1.789 4.641-.69.941-6.259 9.07.521 17.437-.462 1.878-1.099 6.38 2.281 9.512v7.108l-6.088 5.435a1.5 1.5 0 0 0-.465 1.445c.367 1.654 2.269 4.783 6.831 4.783q.471 0 .967-.044c1.14.606 5.266 3.415 4.179 11.923q-.013.113-.012.225l.171 7.301c-2.31 1.382-5.442 4.678-5.116 10.07l-.419 5.662C4.238 86.18.625 89.757-1.412 93.423a1.5 1.5 0 0 0-.188.793l.165 3.797-5.676-.183a1.504 1.504 0 0 0-1.545 1.388c-.164 2.212-1.079 7.928-3.381 10.702l-4.617-4.889c-.187-1.735-1.027-7.018-4.507-10.874-.641-.918-5.633-7.85-12.68-11.438a7.6 7.6 0 0 1-.352-1.74c-.116-1.697.642-2.017.965-2.153a1.5 1.5 0 0 0 .874-1.746c-.099-.395-.958-3.597-3.15-5.043-.094-.754.005-2.225 1.806-3.395a1.5 1.5 0 0 0 .648-1.578c-.11-.504-2.744-12.124-11.457-13.835-.431-.551-1.217-1.78-.992-3.227.286-1.846 2.144-3.693 5.372-5.343.212-.109.397-.267.536-.461l7.724-10.769 10.78-12.419c.203-.234.329-.526.359-.834.043-.351.568-3.591 5.098-4.316.368-.058.702-.252.935-.544C-10.421 9.974-2.652 1.092 0 0m3.462-3.724c-2.102 0-4.47.898-4.569.936-3.99 1.642-13.393 13.087-15.58 15.794-4.689.983-6.528 4.312-6.947 6.361l-10.544 12.148q-.045.052-.086.109l-7.556 10.534c-3.997 2.112-6.234 4.611-6.651 7.43-.517 3.501 2.041 6.006 2.15 6.111.227.218.516.36.827.404 5.869.838 8.509 8.1 9.27 10.689-2.668 2.296-2.512 5.351-1.994 6.758.145.392.446.706.831.867.753.313 1.393 1.442 1.781 2.386a4.3 4.3 0 0 0-1.211 1.69c-1.006 2.491.247 5.555.393 5.896a1.5 1.5 0 0 0 .734.763c6.966 3.317 12.062 10.711 12.113 10.786q.06.088.133.168c3.481 3.797 3.841 9.601 3.844 9.659.02.354.164.69.408.947l6 6.353a1.496 1.496 0 0 0 1.969.186c3.769-2.722 5.025-9.364 5.41-12.378l5.899.19c.441.014.822-.147 1.115-.444s.45-.703.433-1.12l-.217-4.979c2.268-3.853 6.502-7.686 6.546-7.725.287-.259.464-.618.492-1.004l.471-6.353a2 2 0 0 0 0-.214c-.388-5.622 4.038-7.613 4.226-7.695.56-.243.925-.805.911-1.415l-.19-8.125c1.483-11.999-6.06-15.004-6.382-15.127a1.5 1.5 0 0 0-.719-.086 8 8 0 0 1-1.035.068c-2.124 0-3.123-.974-3.572-1.7l5.793-5.173c.318-.284.501-.692.501-1.119v-8.471a1.5 1.5 0 0 0-.579-1.184c-3.308-2.573-1.696-7.291-1.626-7.49a1.51 1.51 0 0 0-.29-1.498c-6.388-7.211-1.117-14.023-.89-14.31q.053-.066.099-.14C7.405 2.172 8.007-.285 7.069-1.974c-.444-.798-1.429-1.75-3.607-1.75" clip-path="url(#q)" style="fill:#2126ff;fill-opacity:1;fill-rule:nonzero;stroke:none" transform="matrix(1.33333 0 0 -1.33333 232.948 429.711)"></path><path d="M0 0h-55.816a1.5 1.5 0 1 0 0 3H0a1.5 1.5 0 1 0 0-3" clip-path="url(#r)" style="fill:#2126ff;fill-opacity:1;fill-rule:nonzero;stroke:none" transform="matrix(1.33333 0 0 -1.33333 244.65 365.335)"></path><path d="M0 0a9.786 9.786 0 0 0-9.786-9.786c-5.404 0-9.786 4.381-9.786 9.786s4.382 9.786 9.786 9.786A9.786 9.786 0 0 0 0 0" clip-path="url(#s)" style="fill:#2126ff;fill-opacity:1;fill-rule:nonzero;stroke:none" transform="matrix(1.33333 0 0 -1.33333 220.712 363.05)"></path><path d="M0 0c-.009-.007.091-.13.079-.468.002-.184-.043-.347-.119-.561-.038-.102-.077-.226-.135-.338-.062-.1-.142-.195-.225-.302-.165-.202-.366-.482-.613-.604-.241-.159-.507-.336-.805-.469a4 4 0 0 0-.888-.253c-.306-.048-.629-.124-.934-.143l-.886.08c-.292.018-.574.102-.846.149-.279.029-.512.175-.744.272-.231.096-.443.22-.635.335-.776.444-1.208.953-1.208.953l-.028.034a.068.068 0 0 0 .062.112l1.325-.193.638-.105c.227-.031.464-.095.715-.088l1.56-.051c.263.004.523.054.781.078.255.038.517.038.752.106l.666.23c.225.05.377.204.543.301.168.101.31.205.403.332.1.117.212.21.249.311.114.183.148.319.148.319l.012.049a.083.083 0 0 0 .102.061A.083.083 0 0 0 0 0" clip-path="url(#t)" style="fill:#2126ff;fill-opacity:1;fill-rule:nonzero;stroke:none" transform="matrix(1.33333 0 0 -1.33333 227.875 378.027)"></path><path d="M0 0s-.005-.188-.107-.492a3.1 3.1 0 0 0-.7-1.097c-.377-.392-.927-.755-1.576-.982-.323-.082-.667-.222-1.019-.229-.35-.022-.711-.053-1.058-.019-.699.077-1.368.245-1.927.532-.576.252-1.038.607-1.407.937-.374.319-.616.681-.788.92-.167.25-.245.41-.245.41l-.019.038a.07.07 0 0 0 .032.093q.031.013.061 0l.365-.174c.235-.106.559-.281.967-.446l.658-.264c.23-.104.492-.156.752-.242.26-.088.536-.147.818-.195.28-.065.568-.1.858-.115.288-.043.577-.032.861-.03.285 0 .561.053.829.087a5.3 5.3 0 0 1 1.39.486c.377.213.672.422.861.591.186.172.275.282.275.282a.07.07 0 0 0 .095.011.07.07 0 0 0 .025-.055z" clip-path="url(#u)" style="fill:#2126ff;fill-opacity:1;fill-rule:nonzero;stroke:none" transform="matrix(1.33333 0 0 -1.33333 227.857 386.063)"></path><path d="M0 0s.003-.057-.025-.189C-.056-.31-.099-.496-.219-.7c-.116-.2-.28-.45-.521-.668a3.7 3.7 0 0 0-.872-.652c-.172-.092-.355-.197-.547-.289-.191-.079-.395-.144-.605-.219a7.7 7.7 0 0 0-1.333-.315c-.456-.031-.945-.14-1.42-.105-.474.023-.971.009-1.443.067-.472.078-.948.143-1.406.232-.456.09-.893.244-1.319.358-.431.102-.817.298-1.193.445-.376.146-.722.316-1.039.474-1.252.673-1.998 1.331-1.998 1.331l-.023.019a.073.073 0 0 0-.006.102.07.07 0 0 0 .073.022l2.188-.585 1.068-.248c.38-.081.775-.195 1.194-.26a29 29 0 0 1 2.621-.4c.447-.07.898-.072 1.339-.112.443-.036.878-.005 1.3-.012.417.034.826.052 1.204.121.38.061.734.139 1.05.248.315.103.601.219.833.353.239.124.424.269.568.394.289.263.369.46.369.46a.07.07 0 0 0 .091.038.07.07 0 0 0 .044-.061z" clip-path="url(#v)" style="fill:#2126ff;fill-opacity:1;fill-rule:nonzero;stroke:none" transform="matrix(1.33333 0 0 -1.33333 229.96 398.47)"></path><path d="M0 0s-.472-.743-1.512-1.366a6 6 0 0 0-.862-.455c-.318-.126-.655-.284-1.021-.363-.364-.086-.74-.214-1.135-.236a12 12 0 0 0-1.196-.087c-.403-.001-.803.065-1.196.095-.394.03-.769.171-1.133.248-.366.081-.698.252-1.015.378-.322.114-.599.304-.855.459-.519.295-.892.655-1.144.906-.251.255-.378.419-.378.419l-.021.026a.072.072 0 0 0 .081.111l.472-.171.54-.197c.206-.084.454-.13.714-.214.263-.072.542-.171.851-.223.307-.057.627-.141.965-.184.338-.037.685-.099 1.042-.118.357-.009.719-.055 1.082-.035 1.451-.019 2.902.21 3.945.525C-.722-.19-.07.133-.07.133A.07.07 0 0 0 .024.101.07.07 0 0 0 .021.033Z" clip-path="url(#w)" style="fill:#2126ff;fill-opacity:1;fill-rule:nonzero;stroke:none" transform="matrix(1.33333 0 0 -1.33333 214.36 392.313)"></path><path d="M0 0q3.207-5.15.787-8.266-.966-1.242-2.81-2.192l-2.582-1.34-7.661 5.954 3.168 2.443 6.246-4.855q1.266 1.629 1.112 3.307-.153 1.47-1.506 3.623z" clip-path="url(#x)" style="fill:#2126ff;fill-opacity:1;fill-rule:nonzero;stroke:none" transform="matrix(1.33333 0 0 -1.33333 356.532 87.505)"></path><path d="m0 0-6.584 5.117q-1.01.785-.936 1.506.037.498.77 1.441L3.434 21.167l4.916.349q.3.387-3.298-4.174-3.167-3.933-4.988-6.346Q-2.5 7.627-2.476 7.24q.29-.636 1.312-1.545.7-.591 1.953-1.517l1.587-1.12z" clip-path="url(#y)" style="fill:#2126ff;fill-opacity:1;fill-rule:nonzero;stroke:none" transform="matrix(1.33333 0 0 -1.33333 367.657 116.653)" data-source="https://football-logos.cc"></path><path d="m0 0-3.035.021-.588 2.268-2.408.061-.853 3.734 2.974-.065.526-2.244 2.505-.112Zm1.861-21.201-4.114-1.09q-1.276 1.52-2.472 2.449-3.401 2.643-6.642 2.503l-1.033-.044q-.561-.023-1.487.696l-9.496 7.38 2.377 3.058 10.489-8.152q.98-.097 1.393-.189a5 5 0 0 0 1.345-.426q-2.802 6.44-4.721 7.931-.505.394-1.615.843 5.139-.029 9.035 1.894l2.503 1.241q1.41.737 2.001.278.42-.327.57-1.384Q.59-7.861-.677-9.49q-.422-.543-2.438-1.955l.131.793.039 1.162q.102 2.738-.352 3.092-.304.235-1.508-.341-.78-.38-1.572-.773a6 6 0 0 0-1.15-.298l.293-.18q.537-.419 2.146-3.389l1.891-3.439q2.331-4.265 5.058-6.383" clip-path="url(#z)" style="fill:#2126ff;fill-opacity:1;fill-rule:nonzero;stroke:none" transform="matrix(1.33333 0 0 -1.33333 396.522 102.447)"></path><path d="m0 0-3.337-.158-3.437.06-.262-.164 6.785-5.273.29.232q.178.23.17.602zm10.147 1.762L9.74 1.62 6.559.793Q5.407.494 3.123.23L2.654.183l-.029-5.249q-.005-.982-.516-1.638-.422-.542-1.615-1.175l-2.363-1.303-10.49 8.153.451.337 3.149 2.801q2.455-.075 4.405-.031 2.247.04 4.051.312L-.83 5.916q-.22 1.523-.891 3.512-.869-.425-1.375-.032a1.3 1.3 0 0 0-.49.793q-.489 2.672.276 3.659.479.614 2.257 1.27 1.268.413 1.723.062.487-.381.711-1.448.47-2.176.734-4.582.183-1.746.343-5.674l-.009-.568q3.732.631 6.372 2.291-.284.955.037 1.369a.95.95 0 0 0 .708.389l1.252.082 2.705.076-.505-.478q-.457-.586-.006-1.989l1.027-3.091-3.591-.694Z" clip-path="url(#A)" style="fill:#2126ff;fill-opacity:1;fill-rule:nonzero;stroke:none" transform="matrix(1.33333 0 0 -1.33333 414.152 138.609)"></path><path d="M0 0q.477.614 1.795 1.997 1.172 1.266 1.726 2.049Q7.794 10.1 8.105 10.5q1.133 1.457 3.278 5.224l5.562.832-2.263-4.407-1.212-.134-.279-.426q-2.365-3.776-4.165-6.09-1.764-2.273-3.743-3.601Q3.851.926 0 0" clip-path="url(#B)" style="fill:#2126ff;fill-opacity:1;fill-rule:nonzero;stroke:none" transform="matrix(1.33333 0 0 -1.33333 419.686 159.381)"></path><path d="m0 0-.296-2.876-2.378.496-.248-2.47-2.742.557.286 2.908L-3-1.9l.238 2.501Zm-3.689 13.034-.95-.708q.66-.171.838-.41.234-.315.807-2.76.482-2.061.705-3.341-1.873-3.17-3.693-4.526-2.067-1.538-4.123-1.454-2.461.095-4.32 2.592-1.234 1.659-2.464 4.824a28 28 0 0 0-.355.948l-.34 2.871q1.648-3.422 2.573-4.666 1.637-2.198 3.677-2.342 1.73-.117 3.533 1.225 1.626 1.21 2.7 3.712-1.368.429-2.284.432-.637-.003-2.146-.306l-1.11 4.066 4.399 3.273z" clip-path="url(#C)" style="fill:#2126ff;fill-opacity:1;fill-rule:nonzero;stroke:none" transform="matrix(1.33333 0 0 -1.33333 165.333 166.02)"></path><path d="M0 0q-1.334.628-2.25.601t-1.886-.749q-1.567-1.167-2.671-4.918Zm-8.094 7.686-.295-2.876-2.752.569.297 2.895zm11.266-5.22-.128-5.531-11.039-8.216q-.854-.637-1.484-.655-.784-.038-1.779.785.115-.87.25-1.747-.024-.643-.728-1.168l-3.077-2.289-2.553 3.431 4.72 3.513a5.4 5.4 0 0 0-1.034 2.42 412 412 0 0 0-.179 2.586l1.636-2.199q1.194-1.604 1.958-1.035.519.386 1.218 2.966Q-7.946-.653-7.658.168q.971 2.784 2.137 3.652 1.802 1.341 4.181.804Q.483 4.2 3.172 2.466" clip-path="url(#D)" style="fill:#2126ff;fill-opacity:1;fill-rule:nonzero;stroke:none" transform="matrix(1.33333 0 0 -1.33333 179.236 127.526)"></path><path d="m0 0-.754-.561q-1.74-1.295-2.957-.482-.676.435-2.809 3.299L-9.774 6.63q-2.237 3.003-3.997 4.758l.078 4.394L-4.5 3.448q.703-.943 1.191-.578l.754.561z" clip-path="url(#E)" style="fill:#2126ff;fill-opacity:1;fill-rule:nonzero;stroke:none" transform="matrix(1.33333 0 0 -1.33333 194.997 122.906)"></path><path d="m0 0-.295-2.875-2.377.495-.238-2.481-2.752.569.285 2.887 2.378-.495.249 2.489zm-5.461 8.179q1.44-1.935 2.313-5.153l-5.721-4.257-2.554 3.431 4.986 3.71q-1.572 1.194-3.069 1.076l-1.636 3.956q3.66-.049 5.681-2.763" clip-path="url(#F)" style="fill:#2126ff;fill-opacity:1;fill-rule:nonzero;stroke:none" transform="matrix(1.33333 0 0 -1.33333 205.895 121.954)"></path><path d="m0 0-.686-.51q2.283-6.094.049-7.755-2.35-1.75-6.795-.503 1.734.308 2.557.921 2.302 1.713 2.568 6.119-1.925-.297-3.162 1.365-1.114 1.497-1.504 4.722.323-.598.549-.9 1.392-1.873 3.076-.619l.794.591z" clip-path="url(#G)" style="fill:#2126ff;fill-opacity:1;fill-rule:nonzero;stroke:none" transform="matrix(1.33333 0 0 -1.33333 216.049 107.237)"></path><path d="m0 0 .203-1.724L5.908-9.39q1.17-1.571 1.439-5.941L2.89-18.647.337-15.216l4.572 3.403-6.312 8.483q-.88.283-1.226.748-.6.804-1.071 4.963.324-.578.596-.943.523-.703 1.458-1.043Q-1.246.243 0 0" clip-path="url(#H)" style="fill:#2126ff;fill-opacity:1;fill-rule:nonzero;stroke:none" transform="matrix(1.33333 0 0 -1.33333 211.282 83.055)"></path><path d="M0 0q1.971-2.652 2.813-4.662.788-1.855 1.345-5.053Q-3.165.125-7 4.067l-.044 4.067Q-2.976 3.996 0 0" clip-path="url(#I)" style="fill:#2126ff;fill-opacity:1;fill-rule:nonzero;stroke:none" transform="matrix(1.33333 0 0 -1.33333 223.444 84.914)"></path><path d="M0 0q0-1.551.862-4.527.987-3.494 2.052-3.494 1.927 0 3.807 2.459Q7.786-4.011 9.979-.971q1.817 2.459 3.572 2.459 1.206 0 1.661-.955.25-1.019.517-2.021a5.4 5.4 0 0 1 .798-1.755q.69-.924 1.582-.924h1.944v-4.606h-1.975q-1.629 0-2.757 1.41-.673.861-1.363 2.679-.563 1.425-.83 1.425-2.052 0-4.01-2.569L6.047-10.7q-1.582-2.459-2.945-2.459-3.712 0-3.712 10.809v1.112Q-.313-.783 0 0m5.828 9.274q.25 0 1.206.955 1.049 1.081 1.253 1.191l4.011-2.287a35 35 0 0 0-1.41-1.723Q9.651 5.984 9.415 5.984q-.344 0-4.01 2.146a43 43 0 0 1-2.084-2.068q-.72.22-2.146.972-1.52.799-1.896 1.222 1.066 1.237 2.914 3.07.408-.391 1.81-1.222 1.402-.83 1.825-.83" clip-path="url(#J)" style="fill:#2126ff;fill-opacity:1;fill-rule:nonzero;stroke:none" transform="matrix(1.33333 0 0 -1.33333 230.924 237.39)"></path><path d="M0 0q3.76-2.725 3.76-2.961 0-.14-1.496-1.543Q.767-5.906.563-5.906q-.485 0-1.981 1.167-1.497 1.168-1.559 1.621Q-.486 0 0 0m13.315 6.376V1.77H2.835a11.7 11.7 0 0 0-.219 2.225q0 .532.047 1.707-.768 0-1.786-.877-.235-.188-1.441-1.473A57 57 0 0 1-1.63 2.256a2.22 2.22 0 0 0-1.393-.486h-6.158v4.606h7.442q.657 0 1.716.572 1.056.571 1.496 1.104-.362.266-2.538.893-2.179.626-2.742.627-1.034 0-2.162-.47-1.285-.549-1.677-1.348.878 3.274 1.489 4.262 1.206 2.02 3.666 2.02 1.519 0 4.355-.955Q5.64 11.796 6.25 11.64q1.332-.298 4.277-.298h1.018q-.313-.878-1.848-3.634-1.927 0-3.901-.784a11 11 0 0 1-1.206-.548Z" clip-path="url(#K)" style="fill:#2126ff;fill-opacity:1;fill-rule:nonzero;stroke:none" transform="matrix(1.33333 0 0 -1.33333 268.607 251.448)"></path><path d="M0 0q1.176 1.441 1.52 1.88 1.19 1.378 1.551 1.567l4.308-2.382q-.47-.657-1.52-1.833Q4.544-2.24 4.277-2.24q-.125 0-2.162 1.096zm-3.493-11.78h7.692q.22.454.376 3.712.031.11 1.409 1.763t1.504 1.762v-.564q.033-.188.032-.297.015-1.787-.376-4.325-.141-.83.541-1.44.68-.611 1.543-.611h1.503v-4.606H7.833q-1.332 0-2.083.799-.58.642-1.034 2.067l-1.645-2.866h-6.564z" clip-path="url(#L)" style="fill:#2126ff;fill-opacity:1;fill-rule:nonzero;stroke:none" transform="matrix(1.33333 0 0 -1.33333 288.323 227.24)"></path><path d="M0 0q-3.32 0-7.598-3.071.187-.031 1.035-.031l10.731.063Q3.759-1.974 2.437-.987 1.113 0 0 0m-13.112 9.165q0 .547 1.081 2.036 1.003 1.425 1.567 1.817.078-.47.776-1.653.696-1.182 3.845-2.671-.815-1.88-1.065-2.271-.847-1.394-1.849-1.394.22-1.505.22-2.616 0-.894-.941-4.011 1.365 1.033 5.327 2.992 1.316.642 3.399 1.473 2.586.987 3.384.987 1.347 0 3.391-2.021Q8.069-.188 8.068-1.52a15 15 0 0 1-.752-1.519h2.804v-4.606l-24.641-.031v4.637h2.129q1.317 0 1.317 1.002l-.783 7.018a42 42 0 0 1-.228 1.716q-.134.87-.65 1.465-.376.423-.376 1.003" clip-path="url(#M)" style="fill:#2126ff;fill-opacity:1;fill-rule:nonzero;stroke:none" transform="matrix(1.33333 0 0 -1.33333 319.738 238.895)"></path><path d="M0 0q2.523 4.888 3.212 4.888 0-1.019.156-1.41.22-.517.972-1.05Q7.786.048 8.396.047L5.076-4.01q0-1.081.517-5.781 0-.768-.329-2.225L4.7-14.413q-.361-1.471-1.723-1.206h-4.873v4.606h4.543q.11.016.11.548 0 1.614-.532 4.637-.439 2.319-.893 4.653Q.721-.72 0 0" clip-path="url(#N)" style="fill:#2126ff;fill-opacity:1;fill-rule:nonzero;stroke:none" transform="matrix(1.33333 0 0 -1.33333 332.689 228.263)"></path><path d="M0 0c-.216-.626-.581-1.17-.983-1.687a7.6 7.6 0 0 0-1.442-1.362 6.8 6.8 0 0 0-1.82-.94 5.6 5.6 0 0 0-1.024-.251c-.346-.08-.71-.065-1.064-.086l.09.004-.3-.038a5 5 0 0 1-.337-.055c-.224-.045-.452-.09-.676-.148a10 10 0 0 1-1.321-.436 6.7 6.7 0 0 1-1.259-.668c-.213-.13-.4-.29-.602-.455-.21-.159-.379-.356-.595-.545.041.266.058.566.164.826.078.28.21.533.353.787.064.135.152.25.24.366.09.113.172.242.274.345q.288.339.634.616.344.28.724.505a6.7 6.7 0 0 0 1.614.689q.212.06.431.109c.152.035.281.056.476.079l.09.004c.257.032.514.017.77.068.258.03.515.083.774.142.256.067.52.129.777.221.263.079.52.182.784.285.517.221 1.056.452 1.585.733.54.27 1.067.578 1.643.892" clip-path="url(#O)" style="fill:#2126ff;fill-opacity:1;fill-rule:nonzero;stroke:none" transform="matrix(1.33333 0 0 -1.33333 272.252 223.533)"></path><path d="M0 0c-.329-.303-.728-.492-1.133-.632a4.3 4.3 0 0 0-1.286-.219c-.223.005-.447.029-.673.049-.224.029-.449.107-.67.176a2.2 2.2 0 0 0-.646.287 9 9 0 0 0-.606.391l.073-.053c-.059.033-.19.128-.298.182-.117.061-.227.139-.349.191-.12.055-.236.139-.36.179-.121.051-.247.125-.373.169a4 4 0 0 0-.392.154c-.137.056-.271.055-.421.109l-.232.066q-.112.005-.235.022c-.162.014-.343.043-.539.07a3 3 0 0 0 .376.418c.137.154.302.245.477.327q.131.07.27.122c.092.032.187.085.281.098.19.046.386.077.586.102s.39-.001.59-.006c.2-.01.39-.048.58-.094q.288-.062.56-.173c.192-.074.346-.141.567-.275l.074-.053c.268-.119.458-.335.75-.442.141-.055.261-.159.414-.208.148-.061.3-.117.452-.193.156-.065.323-.112.489-.178.165-.079.341-.127.519-.185.18-.071.364-.127.555-.19Z" clip-path="url(#P)" style="fill:#2126ff;fill-opacity:1;fill-rule:nonzero;stroke:none" transform="matrix(1.33333 0 0 -1.33333 385.217 103.989)"></path><path d="M0 0c.098-.539.059-1.094-.046-1.62a5 5 0 0 0-.211-.788c-.1-.252-.173-.524-.319-.759-.131-.244-.275-.482-.42-.722a9 9 0 0 0-.542-.65l-.286-.317-.341-.264a16 16 0 0 0-.699-.508l.062.041c-.104-.08-.278-.199-.41-.312-.136-.122-.297-.222-.425-.353-.13-.128-.296-.234-.414-.37-.133-.127-.263-.258-.407-.385a6 6 0 0 0-.373-.415c-.155-.134-.21-.3-.342-.453l-.179-.243c-.07-.083-.086-.174-.141-.264-.084-.182-.192-.377-.302-.59a4.5 4.5 0 0 0-.203.659c-.022.115-.073.243-.056.355l.014.353c.013.238.029.494.105.714q.095.344.223.688c.207.421.441.845.738 1.206.14.19.3.36.464.528.173.173.323.321.551.494l.061.041c.167.132.331.263.506.382q.269.168.499.399c.154.151.332.279.492.431.152.162.304.325.47.482.174.152.303.344.468.513q.254.254.474.542.248.275.481.575c.17.196.33.393.508.61" clip-path="url(#Q)" style="fill:#0d5bce;fill-opacity:1;fill-rule:nonzero;stroke:none" transform="matrix(1.33333 0 0 -1.33333 193.298 96.817)"></path><path d="M0 0c.319-.371.525-.817.67-1.268.147-.455.229-.935.236-1.421-.001-.244-.016-.489-.031-.736a8 8 0 0 0-.16-.73l-.097-.364-.163-.346c-.106-.232-.227-.456-.348-.68l.036.064c-.044-.094-.134-.253-.191-.387-.057-.144-.144-.281-.193-.428-.135-.29-.23-.58-.357-.882a5 5 0 0 0-.142-.456c-.074-.162-.057-.307-.108-.476l-.057-.257c-.025-.091-.008-.168-.02-.259-.002-.176-.021-.372-.034-.587a3.5 3.5 0 0 0-.447.419c-.068.08-.162.159-.197.252l-.141.28c-.093.191-.187.399-.221.602a6 6 0 0 0-.115.631c-.014.414-.006.843.079 1.246.033.206.087.405.148.603.067.206.122.38.235.612l.037.065c.124.339.351.616.46.971.059.172.149.336.214.512.057.18.114.361.185.544.079.182.109.378.177.57q.106.291.177.599.097.308.176.631z" clip-path="url(#R)" style="fill:#2126ff;fill-opacity:1;fill-rule:nonzero;stroke:none" transform="matrix(1.33333 0 0 -1.33333 143.648 140.054)"></path><path d="M0 0s-.033-.182-.168-.463a3.3 3.3 0 0 0-.769-.989c-.195-.166-.414-.36-.677-.49a3.6 3.6 0 0 0-.848-.389 5 5 0 0 0-.968-.236c-.333-.016-.678-.058-1.015-.043-.334.048-.676.065-.991.149-.318.07-.629.172-.908.296-.57.234-1.05.546-1.418.873-.385.291-.628.652-.805.881-.17.243-.25.399-.25.399l-.02.038a.07.07 0 0 0 .09.095l.363-.159c.234-.093.553-.264.961-.4.401-.158.876-.317 1.399-.44.256-.081.535-.1.81-.154.275-.06.562-.053.844-.081a6.8 6.8 0 0 1 1.661.088c.528.08.998.254 1.391.413.787.34 1.215.721 1.215.721A.07.07 0 0 0-.008.104.07.07 0 0 0 .008.047z" clip-path="url(#S)" style="fill:#2126ff;fill-opacity:1;fill-rule:nonzero;stroke:none" transform="matrix(1.33333 0 0 -1.33333 227.846 407.408)"></path><path d="M0 0c-.006.005-.025-.134-.129-.328a2.6 2.6 0 0 0-.529-.67 2 2 0 0 0-.423-.317c-.158-.093-.327-.215-.515-.257-.186-.051-.378-.144-.581-.163-.202-.041-.408-.038-.615-.05l-.613.059c-.2.025-.387.13-.57.189s-.35.164-.506.251c-.16.07-.287.218-.408.329-.483.455-.671.955-.671.955l-.021.056a.063.063 0 0 0 .073.084s.343-.075.847-.205c.127-.028.258-.086.408-.096l.465-.061c.32-.058.665-.072 1.011-.062.346-.031.689.01 1.013.033.322.029.619.095.872.147.507.116.829.242.829.242A.057.057 0 0 0 .011.104a.1.1 0 0 0 .003-.03z" clip-path="url(#T)" style="fill:#2126ff;fill-opacity:1;fill-rule:nonzero;stroke:none" transform="matrix(1.33333 0 0 -1.33333 229.91 416.76)"></path><path d="M0 0s-.116-.592-.624-1.114a3 3 0 0 0-.992-.712c-.208-.072-.42-.195-.655-.221-.233-.038-.471-.085-.716-.094a5 5 0 0 0-.727.07c-.241.017-.465.136-.681.211-.219.063-.406.212-.581.328a1.8 1.8 0 0 0-.447.4c-.26.263-.402.564-.485.779a2 2 0 0 0-.108.354l-.01.057a.064.064 0 0 0 .052.074q.022.004.041-.006l.236-.122c.147-.082.362-.189.632-.289.261-.118.586-.208.935-.276.35-.065.732-.103 1.112-.081.763-.006 1.519.184 2.057.387.547.192.881.382.881.382A.062.062 0 0 0 .012.061Z" clip-path="url(#U)" style="fill:#2126ff;fill-opacity:1;fill-rule:nonzero;stroke:none" transform="matrix(1.33333 0 0 -1.33333 201.078 383.43)"></path><path d="M0 0s-.007-.158-.087-.401a2.5 2.5 0 0 0-.517-.875 2.5 2.5 0 0 0-.496-.455c-.196-.13-.407-.29-.655-.369-.241-.097-.497-.207-.772-.237-.271-.05-.55-.053-.829-.073-.274.039-.55.07-.812.126-.259.06-.505.173-.732.271-.45.225-.82.508-1.078.817-.28.274-.428.604-.535.818-.101.225-.139.369-.139.369l-.014.052a.066.066 0 0 0 .094.075l.267-.137c.173-.082.406-.226.711-.342.295-.14.652-.264 1.043-.372a6.3 6.3 0 0 1 1.246-.179c.427-.004.859.01 1.25.107.394.079.748.214 1.038.354.589.274.914.56.914.56a.064.064 0 0 0 .09-.006.07.07 0 0 0 .016-.044z" clip-path="url(#V)" style="fill:#2126ff;fill-opacity:1;fill-rule:nonzero;stroke:none" transform="matrix(1.33333 0 0 -1.33333 194.685 373.433)"></path><path d="M0 0s1.7-9.074-7.295-10.185c0 0-.645-2.871-1.226-4.095-.58-1.224-1.42-1.341-1.42-1.341s-7.026 5.025-7.1 11.493c0 0 1.065 13.359 17.041 4.128" clip-path="url(#W)" style="fill:#2126ff;fill-opacity:1;fill-rule:nonzero;stroke:none" transform="matrix(1.33333 0 0 -1.33333 219.69 362.518)"></path><path d="m0 0-3.991 8.918 7.904 11.998 14.948 4.206c.63-2.228 1.439-5.146 1.95-6.993a39.8 39.8 0 0 0-8.152-12.4C8.598 2.841 3.091.913 0 0m-16.033-6.413a39.6 39.6 0 0 0-18.734 4.762c.021.085-.003.216-.064.378-.524 1.297-.944 3.144-1.221 4.571l13.435 7.424 15.111-3.46 4.057-9.059c-2.95-2.294-9.721-3.985-12.584-4.616m13.28 38.895-2.864 3.386 3.593 21.176 8.308 1.001c4.312-2.3 13.915-12.937 13.915-12.937.548-8.883-.827-13.925-1.64-16.041L3.658 24.871ZM-38.375 6.447c-3.213 1.674-6.069 3.961-8.451 6.242a35 35 0 0 0-1.903 4.379 31 31 0 0 0-.763 2.42c-1.037 3.721-1.901 9.176-.732 15.288 2.117 2.356 4.892 4.129 6.761 5.178l16.932-12.051.295-3.298.981-10.904zm-15.217 14.202a40.4 40.4 0 0 0-1.407 5.454 39.5 39.5 0 0 0 .514 16.832c.191-2.311.705-4.645 1.205-6.535-1.435-6.453-.779-12.285.263-16.529-.245.288-.418.546-.575.778m15.488 34.518c2.933 3.623 7.537 5.968 11.76 7.56 1.59.61 3.217 1.097 4.889 1.449.911.202 1.845.364 2.777.471.525.061 2.322.505 2.748.218l10.115-6.964-3.593-21.085-14.84-5.807-17.27 12.283c-.261.223.056 2.079.078 2.436.064.798.179 1.573.293 2.347.241 1.502.624 2.945 1.285 4.318a14.5 14.5 0 0 0 1.758 2.774m-7.072 5.06a39.6 39.6 0 0 0 22.038 12.187c3.571.658 7.131.82 10.579.536-1.129-.714-2.405-1.877-4.376-4.236-5.586-.346-11.181-2.036-16.387-4.978-2.796-1.586-4.908-3.197-6.215-4.307-2.08.327-4.401.636-5.639.798m63.373-6.438.04-.067a38 38 0 0 1-9.729 7.558c-.219.122-.45.237-.668.359-.98 2.055-2.81 4.776-6.17 7.358a39.83 39.83 0 0 0 16.527-15.208M19.66 8.878a43 43 0 0 1 6.595 15.176 42.8 42.8 0 0 1 .274 17.141 43.7 43.7 0 0 1-3.335 10.451 61 61 0 0 1-1.062 2.132 59 59 0 0 1-1.174 2.047 37 37 0 0 1-1.256 1.944c-.439.641-.897 1.253-1.362 1.879a59 59 0 0 1-1.461 1.802 39 39 0 0 1-1.56 1.725 38 38 0 0 1-1.65 1.635c-.256.244-.517.468-.772.713a43 43 0 0 1-10.741 7.041c-8.127 3.74-17.078 4.868-25.908 3.228-5.732-1.067-11.076-3.205-15.915-6.396a42.9 42.9 0 0 1-11.807-11.588 42.9 42.9 0 0 1-6.594-15.177 42.8 42.8 0 0 1-.275-17.14 43 43 0 0 1 5.6-14.649 43 43 0 0 1 8.067-9.677 43 43 0 0 1 10.741-7.04c8.127-3.74 17.078-4.869 25.907-3.229C-2.295-8.037 3.063-5.891 7.888-2.707A43.8 43.8 0 0 1 19.66 8.878" clip-path="url(#X)" style="fill:#2126ff;fill-opacity:1;fill-rule:nonzero;stroke:none" transform="matrix(1.33333 0 0 -1.33333 308.235 198.73)" data-source="https://football-logos.cc"></path><!-- source: https://football-logos.cc --></svg>