<svg xmlns="http://www.w3.org/2000/svg" viewBox="0 0 480 455.59"><!-- Source: https://football-logos.cc --><path d="M189.696 4.329h-.002q-.005.069-.011.139c-1.193 9.073-7 16.992-14.305 21.979-6.256 4.359-13.49 7.132-20.927 8.424-1.259 1.137-3.084 2.201-5.118 3.386l-1.099.642-.321.217c-2.524 12.173-11.921 18.56-31.34 23.382 8.766-16.347 16.954-23.813 30.729-23.94l.503-.339 1.124-.657c1.468-.857 2.816-1.647 3.905-2.433a57 57 0 0 1-2.145.274c-10.837 1.301-21.519 3.876-31.836 7.512-.687 1.186-1.673 2.221-2.703 3.301l-.625.66-.25.308c1.158 14.573-11.221 22.185-24.525 29.466 4.691-18.239 9.911-26.967 23.855-29.916l.314-.386c.019-.022.648-.687.648-.687.73-.765 1.432-1.509 2.011-2.288a164 164 0 0 0-15.867 6.706 159 159 0 0 0-13.436 7.379 148 148 0 0 0-1.91 4.844l-.222.511c4.004 16.575-5.8 24.034-16.789 34.362-.323-15.119 2.091-28.751 16.092-34.777l.173-.397a134 134 0 0 1 1.491-3.821c-8.779 5.496-17.004 11.874-24.408 19.106a107 107 0 0 1-1.479 6.044l-.102.424c6.92 12.757 1.051 22.78-8.938 35.085-3.835-15.802-3.295-27.43 8.156-35.275l.105-.435c.442-1.603.841-3.205 1.202-4.794-.507.506-1.016 1.01-1.514 1.524-7.212 7.487-13.517 15.828-18.895 24.739l.214 4.9.008.402c9.36 8.762 8.813 18.777 2.004 35.634-8.396-14.413-11.83-24.394-2.807-35.532l-.01-.478-.16-3.673a154 154 0 0 0-8.526 16.713 147 147 0 0 0-4.536 11.797c.732 1.49 1.128 3.058 1.51 4.582l.029.12.1.38c8.794 5.088 13.182 14.254 8.967 34.932-12.021-13.937-15.709-23.191-9.734-34.68l-.112-.431-.031-.124c-.303-1.211-.618-2.451-1.101-3.637a145.4 145.4 0 0 0-6.33 29.271c1.005 1.198 1.799 2.804 2.468 4.99l.11.352c12.522 5.892 15.473 14.362 15.87 32.698-7.14-6.016-20.72-14.256-16.544-32.158l-.205-.654c-.522-1.707-1.119-3.029-1.83-4.064-1.061 10.484-.946 21.074.435 31.5 1.216 1.148 2.301 2.637 3.354 4.084l.427.584.241.337c14.832 2.55 19.282 11.58 24.117 27.938-12.426-5.882-24.711-11.836-24.684-27.346l-.326-.456-.426-.583c-.809-1.111-1.637-2.244-2.517-3.213 1.181 8.246 3.154 16.382 5.985 24.271a134 134 0 0 0 2.895 7.259 63 63 0 0 1 4.299 3.107l.358.29c13.567-.564 21.251 6.559 29.842 21.823-13.098-2.976-26.386-5.441-30.287-21.147l-.417-.339a58 58 0 0 0-3.199-2.359c4.607 10.37 10.497 20.136 17.417 29.132.878.253 1.818.381 2.715.485l.031.003.605.165c14.783-5.034 22.757 2.325 33.458 12.036-16.541 1.654-26.815.82-33.85-11.309l-.371-.101a25 25 0 0 1-1.807-.266c6.314 8.064 13.464 15.489 21.266 22.154 1.419.093 2.894.273 4.286.458l.439.078c9.373-6.063 20.951-4.598 35.123 5.553-13.841 5.404-28.389 4.132-35.253-4.759l-.434-.077a80 80 0 0 0-3.113-.363 157 157 0 0 0 6.273 4.988c4.946 3.688 10.239 7.208 15.951 10.62l.291.158c16.404-5.76 29.386 2.874 41.906 16.933-19.35 1.259-35.486-.7-42.145-16.209l-.423-.229c-.498-.297-.988-.596-1.479-.895a158 158 0 0 1-16.542-11.186c.541 1.182 1.237 2.492 2.113 3.966l.243.412c12.206 4.271 16.082 10.094 18.392 29.171-12.042-7.212-22.182-14.626-19.106-28.796l-.222-.377c-1.231-2.073-2.12-3.834-2.72-5.381a156 156 0 0 1-22.957-22.264c.181 1.557.43 3.354.796 5.159l.057.3c12.089 5.823 12.327 16.682 9.744 32.647-10.43-11.42-16.692-20.373-10.495-32.29l-.096-.501c-.472-2.329-.75-4.633-.941-6.445-6.554-7.975-12.292-16.613-17.029-25.792a74 74 0 0 0 .054 5.179l.046.388c10.72 8.794 9.804 19.837 4.247 35.448-9.647-13.744-12.831-25.16-5.046-35.357l-.049-.414c-.123-2.571-.08-4.838-.015-6.752a138 138 0 0 1-6.035-13.879 123 123 0 0 1-4.269-14.456c-1.014 1.254-1.814 3.198-2.428 5.92l-.008.414c9.775 11.615 6.625 22.056-.192 36.219-7.404-14.41-9.977-26.473-.613-36.258l.01-.479.009-.039c.716-3.195 1.702-5.401 2.997-6.737-2.284-10.251-3.278-20.761-3.091-31.266-1.073 1.229-2.143 2.859-3.249 4.944l-.116.313c6.79 14.015.98 23.795-9.161 36.321-3.691-17.338-3.163-27.418 8.32-36.356l.224-.606c1.365-2.58 2.672-4.475 4-5.816.283-10.743 1.808-21.468 4.466-31.896-1.493 1.16-2.961 2.978-4.455 5.525l-.22.518c2.9 16.329-5.612 23.92-18.237 34.826.595-18.315 5.221-30.096 17.576-35.321l.164-.385c1.827-3.121 3.624-5.197 5.488-6.365a148 148 0 0 1 7.099-20.638 157 157 0 0 1 3.663-7.899c-1.716.611-3.389 1.896-5.139 3.245 0 0-.835.64-.925.707l-.29.406c.03 14.698-9.509 22.192-25.557 31.305 6.087-20.377 9.181-26.592 24.906-31.778l.357-.498 1.017-.78c2.051-1.58 4.001-3.079 6.118-3.593 4.762-9.418 10.493-18.355 17.162-26.545-2.439.488-5.028 1.876-7.55 3.233l-.397.322c-4.361 16.768-18.394 21.743-32.826 26.841 8.722-16.849 16.084-25.752 32.267-27.424l.509-.413.033-.017c2.894-1.558 5.877-3.159 8.722-3.472a136 136 0 0 1 6.266-7.054c5.157-5.372 10.749-10.304 16.674-14.797-2.511.09-5.278.58-8.53 1.508l-.411.191c-5.891 12.272-16.515 17.768-39.5 19.551 11.236-13.058 20.555-23.004 39.047-20.229l.587-.272.03-.007c3.817-1.091 6.991-1.596 9.875-1.564 7.613-5.663 15.763-10.61 24.264-14.812q1.454-.717 2.924-1.405c-2.316-.383-5.295-.332-8.206-.278l-.383.071C85.008 60.41 68.669 60.457 49.835 57.937 64.723 46.49 76.872 38.971 94.647 45.658l.69-.13h.033c3.426-.062 6.946-.125 9.485.52 10.46-4.801 21.423-8.544 32.687-10.987-3.191-.619-6.319-1.013-10.095-.935l-.559.069c-13.252 11.4-27.281 9.299-46.401 2.882 15.913-8.818 31.039-13.562 46.416-3.693l.487-.06c4.615-.096 8.247.484 12.16 1.323 3.587-.726 7.201-1.33 10.839-1.785 5.763-.638 11.432-2.187 16.636-4.655-2.445-.141-4.934-.337-7.398-.795l-.415-.116c-16.13 9.426-31.985 2.314-46.261-6.518 18.63-5.285 34.589-6.72 46.216 5.67l.642.18c2.86.531 5.811.704 8.682.852a46 46 0 0 0 5.339-3.23c6.844-4.747 12.018-11.965 13.063-20.175.004-.054.017-.107.026-.161l-.007-.001c.103-.905.203-1.811.286-2.716.073-.789.608-1.197 1.46-1.197.883 0 1.196.579 1.232 1.232.056 1.032-.077 2.066-.194 3.097" style="display:inline;fill:#ab2525;fill-opacity:1;fill-rule:nonzero;stroke:none" transform="matrix(1.33333 0 0 -1.33333 0 455.587)" data-source="https://football-logos.cc"></path><path d="M170.303 4.329h.002l.012.139c1.193 9.073 7 16.992 14.304 21.979 6.257 4.359 13.49 7.132 20.928 8.424 1.259 1.137 3.083 2.201 5.117 3.386l1.1.642.321.217c2.523 12.173 11.921 18.56 31.341 23.382-8.767-16.347-16.955-23.813-30.731-23.94l-.503-.339c-.02-.013-1.123-.657-1.123-.657-1.468-.857-2.816-1.647-3.906-2.433.714.103 1.43.198 2.146.274 10.836 1.301 21.519 3.876 31.835 7.512.688 1.186 1.674 2.221 2.704 3.301l.625.66.25.308c-1.159 14.573 11.221 22.185 24.525 29.466-4.691-18.239-9.911-26.967-23.855-29.916l-.314-.386c-.018-.022-.648-.687-.648-.687-.73-.765-1.432-1.509-2.012-2.288a164 164 0 0 1 15.867 6.706 159 159 0 0 1 13.437 7.379 153 153 0 0 1 1.911 4.844l.221.511c-4.004 16.575 5.799 24.034 16.789 34.362.323-15.119-2.091-28.751-16.091-34.777l-.173-.397a140 140 0 0 0-1.493-3.821c8.78 5.496 17.006 11.874 24.41 19.106.427 2.001.921 4.027 1.477 6.044l.103.424c-6.92 12.757-1.052 22.78 8.938 35.085 3.835-15.802 3.294-27.43-8.157-35.275l-.104-.435a106 106 0 0 1-1.202-4.794c.507.506 1.015 1.01 1.514 1.524 7.211 7.487 13.517 15.828 18.895 24.739l-.214 4.9-.008.402c-9.36 8.762-8.813 18.777-2.004 35.634 8.396-14.413 11.83-24.394 2.807-35.532l.01-.478.161-3.673a154 154 0 0 1 8.525 16.713 146 146 0 0 1 4.535 11.797c-.731 1.49-1.127 3.058-1.509 4.582l-.03.12-.098.38c-8.795 5.088-13.183 14.254-8.968 34.932 12.02-13.937 15.71-23.191 9.734-34.68l.111-.431.033-.124c.302-1.211.617-2.451 1.099-3.637a145.3 145.3 0 0 1 6.33 29.271c-1.005 1.198-1.798 2.804-2.467 4.99l-.111.352c-12.521 5.892-15.472 14.362-15.87 32.698 7.141-6.016 20.721-14.256 16.544-32.158l.206-.654c.522-1.707 1.118-3.029 1.829-4.064 1.061 10.484.946 21.074-.434 31.5-1.216 1.148-2.301 2.637-3.354 4.084l-.427.584-.242.337c-14.832 2.55-19.281 11.58-24.115 27.938 12.425-5.882 24.71-11.836 24.683-27.346l.327-.456c-.004.003.425-.583.425-.583.808-1.111 1.637-2.244 2.516-3.213-1.18 8.246-3.153 16.382-5.984 24.271a135 135 0 0 1-2.896 7.259 63 63 0 0 0-4.298 3.107l-.358.29c-13.567-.564-21.252 6.559-29.842 21.823 13.098-2.976 26.386-5.441 30.286-21.147l.417-.339a58 58 0 0 1 3.201-2.359c-4.608 10.37-10.498 20.136-17.418 29.132-.879.253-1.818.381-2.715.485l-.031.003-.604.165c-14.783-5.034-22.758 2.325-33.459 12.036 16.542 1.654 26.814.82 33.85-11.309l.371-.101c.59-.068 1.201-.15 1.806-.266-6.313 8.064-13.463 15.489-21.266 22.154-1.418.093-2.894.273-4.284.458l-.441.078c-9.372-6.063-20.95-4.598-35.121 5.553 13.84 5.404 28.387 4.132 35.253-4.759l.433-.077a80 80 0 0 1 3.113-.363 157 157 0 0 1-6.274 4.988c-4.945 3.688-10.239 7.208-15.95 10.62l-.292.158c-16.403-5.76-29.386 2.874-41.905 16.933 19.35 1.259 35.486-.7 42.144-16.209l.424-.229q.745-.446 1.479-.895a159 159 0 0 0 16.542-11.186c-.541 1.182-1.238 2.492-2.114 3.966l-.243.412c-12.205 4.271-16.082 10.094-18.391 29.171 12.042-7.212 22.181-14.626 19.105-28.796l.223-.377c1.23-2.073 2.121-3.834 2.72-5.381a156.2 156.2 0 0 0 22.957-22.264c-.181 1.557-.43 3.354-.796 5.159l-.057.3c-12.089 5.823-12.327 16.682-9.744 32.647 10.429-11.42 16.692-20.373 10.495-32.29l.096-.501c.472-2.329.75-4.633.94-6.445 6.555-7.975 12.293-16.613 17.029-25.792a73 73 0 0 1-.054 5.179l-.046.388c-10.719 8.794-9.803 19.837-4.246 35.448 9.646-13.744 12.832-25.16 5.046-35.357l.049-.414c.123-2.571.08-4.838.015-6.752a138 138 0 0 0 6.034-13.879 123 123 0 0 0 4.27-14.456c1.014 1.254 1.814 3.198 2.428 5.92l.008.414c-9.775 11.615-6.625 22.056.192 36.219 7.403-14.41 9.977-26.473.612-36.258l-.009-.479-.009-.039c-.716-3.195-1.702-5.401-2.997-6.737 2.284-10.251 3.279-20.761 3.09-31.266 1.073 1.229 2.144 2.859 3.249 4.944l.116.313c-6.79 14.015-.98 23.795 9.162 36.321 3.691-17.338 3.163-27.418-8.32-36.356l-.224-.606c-1.365-2.58-2.672-4.475-4-5.816-.284-10.743-1.809-21.468-4.466-31.896 1.493 1.16 2.961 2.978 4.454 5.525l.221.518c-2.901 16.329 5.612 23.92 18.237 34.826-.596-18.315-5.222-30.096-17.576-35.321l-.163-.385c-1.828-3.121-3.625-5.197-5.49-6.365a148 148 0 0 0-7.098-20.638 158 158 0 0 0-3.663-7.899c1.716.611 3.389 1.896 5.139 3.245l.924.707.291.406c-.029 14.698 9.508 22.192 25.557 31.305-6.087-20.377-9.181-26.592-24.906-31.778l-.358-.498-1.016-.78c-2.051-1.58-4.001-3.079-6.118-3.593-4.761-9.418-10.494-18.355-17.162-26.545 2.439.488 5.028 1.876 7.549 3.233l.399.322c4.36 16.768 18.393 21.743 32.825 26.841-8.723-16.849-16.083-25.752-32.267-27.424l-.51-.413-.032-.017c-2.894-1.558-5.877-3.159-8.722-3.472a136 136 0 0 0-6.265-7.054c-5.159-5.372-10.75-10.304-16.676-14.797 2.512.09 5.278.58 8.53 1.508l.412.191c5.891 12.272 16.515 17.768 39.5 19.551-11.236-13.058-20.555-23.004-39.047-20.229l-.587-.272-.031-.007c-3.816-1.091-6.991-1.596-9.874-1.564-7.614-5.663-15.763-10.61-24.264-14.812q-1.455-.717-2.923-1.405c2.314-.383 5.294-.332 8.205-.278l.383.071c10.025 14.006 26.364 14.053 45.199 11.533-14.889-11.447-27.038-18.966-44.813-12.279l-.689-.13h-.033c-3.426-.062-6.946-.125-9.484.52-10.462-4.801-21.424-8.544-32.687-10.987 3.189-.619 6.318-1.013 10.094-.935l.558.069c13.253 11.4 27.282 9.299 46.402 2.882-15.913-8.818-31.039-13.562-46.416-3.693l-.488-.06c-4.614-.096-8.246.484-12.16 1.323-3.586-.726-7.2-1.33-10.838-1.785-5.763-.638-11.431-2.187-16.636-4.655 2.445-.141 4.934-.337 7.398-.795l.415-.116c16.13 9.426 31.984 2.314 46.261-6.518-18.63-5.285-34.588-6.72-46.216 5.67l-.643.18c-2.86.531-5.811.704-8.681.852a46 46 0 0 1-5.339-3.23c-6.844-4.747-12.017-11.965-13.062-20.175-.006-.054-.019-.107-.026-.161l.006-.001c-.104-.905-.203-1.811-.286-2.716-.073-.789-.609-1.197-1.46-1.197-.883 0-1.196.579-1.232 1.232-.056 1.032.077 2.066.193 3.097" style="display:inline;fill:#ab2525;fill-opacity:1;fill-rule:nonzero;stroke:none" transform="matrix(1.33333 0 0 -1.33333 0 455.587)"></path><path d="M57.257 177.558c0-67.789 54.954-122.744 122.743-122.744s122.743 54.955 122.743 122.744S247.789 300.301 180 300.301 57.257 245.347 57.257 177.558" style="display:inline;fill:#ab2525;fill-opacity:1;fill-rule:nonzero;stroke:none" transform="matrix(1.33333 0 0 -1.33333 0 455.587)"></path><path d="M63.025 177.558c0-64.603 52.373-116.975 116.975-116.975s116.975 52.372 116.975 116.975S244.603 294.533 180 294.533 63.025 242.161 63.025 177.558" style="display:inline;fill:#fffffe;fill-opacity:1;fill-rule:nonzero;stroke:none" transform="matrix(1.33333 0 0 -1.33333 0 455.587)"></path><path d="M276.146 191.082s-.87-.4-.907-.414a8 8 0 0 0-1.693-.412 95.3 95.3 0 0 0 1.161-14.845c0-52.305-42.402-94.706-94.707-94.706s-94.707 42.401-94.707 94.706c0 2.944.142 5.856.405 8.732a8 8 0 0 0-.775.445c-1.11.73-1.708 1.531-1.824 2.427l-.038.256a99 99 0 0 1-.719-11.86c0-53.934 43.724-97.657 97.658-97.657s97.658 43.723 97.658 97.657c0 5.385-.442 10.665-1.281 15.813z" style="display:inline;fill:#ab2525;fill-opacity:1;fill-rule:nonzero;stroke:none" transform="matrix(1.33333 0 0 -1.33333 0 455.587)"></path><path d="M164.743 82.664c0-8.446 6.847-15.293 15.293-15.293s15.293 6.847 15.293 15.293-6.847 15.293-15.293 15.293-15.293-6.847-15.293-15.293" style="display:inline;fill:#ab2525;fill-opacity:1;fill-rule:evenodd;stroke:none" transform="matrix(1.33333 0 0 -1.33333 0 455.587)" data-source="https://football-logos.cc"></path><path d="m181.754 79.923-3.606 4.219-.289-.02-5.891-.223-.178-.012a25.6 25.6 0 0 1-1.418-4.666l.188-.425a35 35 0 0 1 3.615-4.72l.313-.313c1.506-.132 3.106-.124 4.788.011l.16.219 2.251 5.688zm-11.872 7.911a23 23 0 0 1 1.817-3.201l.229.016 5.89.223.278.019 3.141 4.925-.099.179-2.377 4.306-.073.146c-1.625-.072-3.252-.251-4.877-.48l-.279-.315c-1.819-2.266-2.937-4.011-3.521-5.492zm8.996-18.732a24.4 24.4 0 0 0-4.409 1.217l-.537-.144-1.067-.098a14.4 14.4 0 0 1 6.149-1.861l-.107.738zm-12.066 17.597.167-.098 2.144 1.357.19.478c.611 1.552 1.766 3.359 3.645 5.7l.125.142-.354.895a14.53 14.53 0 0 1-6.509-8.141zm22.803-13.866c-2.404-1.567-4.761-2.275-7.221-2.157l-.304.031a23 23 0 0 0-2.468-1.496l.025-.131.131-.897c.086-.001.171-.006.258-.006 3.823 0 7.3 1.483 9.889 3.904zm-7.647-1.358.482-.05c2.297-.111 4.527.568 6.811 2.07l.506.342a20.6 20.6 0 0 1 1.296 3.819l-.157.18-3.218 3.172-.154.149-5.063-1.457-.074-.26-2.298-5.812-.082-.112a23 23 0 0 1 1.951-2.041m-.219 24.747.289-.037c1.929-.183 4.024-.953 6.041-1.741l.176-.091.171.119a14.4 14.4 0 0 1-7.222 2.629zm-7.879-25.285.033 2.35-.271.271a35.4 35.4 0 0 0-3.732 4.883l-.086.192c-.964.083-1.893.213-2.761.417l-.34-.203-.565-.311a14.52 14.52 0 0 1 5.668-7.801l1.982.182zm16.466 19.412c-.328.991-.988 2.001-1.808 3.016l-.758.396c-1.847.719-3.97 1.503-5.814 1.677l-.834.106a8 8 0 0 1-1.709-.868l.013-.026 2.369-4.291.205-.369 5.341-1.855.209.153 2.656 1.945zM166.48 79.583a22.9 22.9 0 0 0 .08 6.393l-.123.072-.431.243a14.5 14.5 0 0 1-.057-7.008l.391.216zm21.457 2.231-.154 5.713.211.155 2.683 1.967.055.05c.871-.802 1.689-1.687 2.386-2.762l.047-.721a51 51 0 0 0 0-6.346l-.019-.473a5.1 5.1 0 0 0-1.618-1.134l-.075.087-3.239 3.195z" style="display:inline;fill:#fffffe;fill-opacity:1;fill-rule:evenodd;stroke:none" transform="matrix(1.33333 0 0 -1.33333 0 455.587)"></path><g style="display:inline"><path d="m173.71 99.249.864.241.115-.292-2.576-1.002-.115.293.794.404-1.352 3.433-.724-.561-.114.29.99 1.259.45.176zM177.507 103.171q-.142.369-.286.607a2 2 0 0 1-.282.374.8.8 0 0 1-.261.183.4.4 0 0 1-.221.027.4.4 0 0 1-.253-.152.66.66 0 0 1-.121-.316 1.5 1.5 0 0 1 .018-.449q.043-.254.156-.551.152-.397.374-.564a.6.6 0 0 1 .489-.117q.148.028.306.1.158.07.302.161-.087.346-.221.697m-1.14 1.55q.31.058.617-.002.306-.06.58-.234a2 2 0 0 0 .5-.463q.225-.286.377-.684.17-.442.24-.864.071-.423.049-.8a2.7 2.7 0 0 0-.132-.701 2 2 0 0 0-.299-.574 1.7 1.7 0 0 0-.45-.418 1.7 1.7 0 0 0-.594-.229 3.9 3.9 0 0 0-1.124-.052l-.213 1.101.314.058.291-.671a1 1 0 0 1 .334-.086q.172-.013.308.012a.7.7 0 0 1 .41.226q.158.177.234.446a2.2 2.2 0 0 1 .07.61 4.5 4.5 0 0 1-.072.717 2.3 2.3 0 0 0-.369-.236 1.8 1.8 0 0 0-.484-.16 1.5 1.5 0 0 0-.566-.006 1.34 1.34 0 0 0-.833.537q-.156.21-.254.468a1.9 1.9 0 0 0-.133.673q0 .329.134.598.132.27.399.463.265.195.666.271M187.442 102.197l-.306.092.398 1.347 3.016-.903-.084-.278-3.103-3.901-.912.272 3.197 3.398-1.86.556zM183.253 103.097q.014.097.045.239l.058.275.074.316-1.782-2.023 1.4-.209zm.597-2.208-.137-1.001-.903.134.139 1.001-2.017.301.084.556 2.667 3.015.736-.111-.469-3.222.569-.085-.099-.673z" style="display:inline;fill:#ab2525;fill-opacity:1;fill-rule:nonzero;stroke:none" transform="matrix(1.33333 0 0 -1.33333 0 455.587)"></path></g><path d="M187.905 130.845c11.806 0 19.854 11 19.854 21.665 0 4.56-3.018 8.518-5.567 10.194-1.524 1.003-3.773-2.282-2.884-3.89 1.409-2.548 5.298-2.548 5.298-8.853 0-4.829-7.914-15.226-15.895-15.226-4.897 0-7.312 2.75-9.994 7.311-1.14-5.5 2.28-11.201 9.188-11.201m-14.017 35.415c-1.208-1.543-2.281-1.677-3.489-1.677s-2.079.201-2.883 1.14c-.336-1.006-.604-2.952-.604-4.762 0-1.342.738-2.482.738-3.152 0-.872-7.561-2.17-8.317-2.885-2.424-2.289-2.952-4.762-2.952-8.317 0-8.183 6.976-13.146 8.317-19.116.336.604.403 1.551.403 2.28 0 4.628-7.445 12.342-7.445 16.5 0 8.318 14.622-1.81 16.232 19.989m40.561 43.057a.73.73 0 0 1-1.03-.017l-4.013-4.118a.728.728 0 0 1 .02-1.041l3.988-3.796a.73.73 0 0 1 1.016.007l4.101 4.013a.73.73 0 0 1-.006 1.052zm23.359-16.698h-57.971a35.3 35.3 0 0 0-4.265-3.951c-1.489-1.165-3.071-2.216-4.686-3.203h66.117c3.488 0 2.951-7.333-.715-7.333H122.532c-3.845 0-6.26 1.609-8.675 5.454-.626-8.495 1.342-11.446 7.513-11.446h116.975c5.365 0 7.69 2.861 7.69 8.585v5.902c0 4.74-4.471 5.992-8.227 5.992m-108.301.716c0 7.602 8.407 13.683 15.383 13.683 5.455 0 11.178-2.594 16.455-2.594 3.756 0 7.512 1.789 10.91 6.797-2.415-7.423-7.422-9.48-13.146-9.48-4.74 0-6.618.894-11.805.894-5.634 0-12.699-3.219-11.179-10.016h30.707c-2.058-1.575-4.228-3.02-6.51-4.527a224 224 0 0 1-3.911-2.627h-20.643c-4.115 0-6.261 3.487-6.261 7.87m91.309-32.285c.984 0 2.644-.555 4.024-1.252-1.404 2.562-6.276 5.627-11.569 8.084-.764.354-1.525.326-1.887-.236l-3.591-5.119c-.311-.524-.423-1.198.279-1.877 5.302-5.123 10.687-7.99 10.687-16.771 0-4.22-1.823-7.652-4.829-11.269-6.612-7.954-18.155-14.307-33.448-14.307-23.788 0-36.844 9.032-36.844 33.804 0 8.33 1.294 13.5 4.718 18.423h-4.106c-2.631-4.962-4.279-11.34-4.279-20.033 0-32.463 22.536-37.472 41.764-37.472 14.084 0 29.73 7.307 36.488 17.171 3.312 4.835 5.187 11.068 5.187 17.439 0 6.708-3.578 11-3.578 12.431 0 .668.567.984.984.984m-69.186 18.691c5.517 4.898 12.084 8.18 17.584 12.699 7.327 6.02 14.221 15.83 14.221 31.57 0 7.243-1.789 14.576-5.277 20.747.381-2.666.626-5.187.626-8.318 0-7.69-1.901-13.661-4.561-17.975.946 12.221.663 24.806.268 37.383 7.691-9.301 13.593-20.748 13.593-37.115 0-12.609-5.73-22.715-13.504-28.795-5.142-4.023-11.455-6.707-16.751-10.196z" style="display:inline;fill:#ab2525;fill-opacity:1;fill-rule:nonzero;stroke:none" transform="matrix(1.33333 0 0 -1.33333 0 455.587)"></path><g style="display:inline"><path d="m84.425 187.21-.162 1.106-.218 1.24q-.309 1.554-.567 1.895l-.216-.138-.261-.212-.215-.126a7 7 0 0 0-1.131.199l-.518.129a6.5 6.5 0 0 0-.969.316q.214.447.331.805.116.358.144.73l.021.462a2 2 0 0 1-.013.174q-.008.06-.061.218a4 4 0 0 1-.111.413 3.5 3.5 0 0 1-.198.459l-.048.056-.008.051a.4.4 0 0 0 .097.096l.261.058.165-.038q2.418-.733 3.156-1.186.31-.177.656-.531a6 6 0 0 0 .694-.881q.624-.974.896-1.638l.231-.712.206-.865.31-2.43q.185-.451.449-.715.237-.276.624-.445l.163-.052.14-.022q.576-.043 1.562.405.986.45 2.583 1.502.324.209.62.38.241.135.604.328.562.306 1.06.488.495.183.919.26t.783.052l.254-.045.204-.027-.025-.333a1.8 1.8 0 0 1-.545-.075l-.21-.063-.133-.042-1.612-1.077-1.231-.811-.863-.541q-1.174-.698-2.239-1.018-.904-.218-2.21-.12-.999.073-2.134.82-1.136.747-1.235 1.501" style="display:inline;fill:#ab2525;fill-opacity:1;fill-rule:nonzero;stroke:none" transform="matrix(1.33333 0 0 -1.33333 0 455.587)"></path><path d="M92.192 190.632q-.069-.405-.189-.424-.075.013-.149.352-.25 1.37-.918 3.033-.885 2.232-2.061 3.825a9.8 9.8 0 0 1-1.536 1.692 8 8 0 0 1-.814.614 6.5 6.5 0 0 1-.888.482 5.2 5.2 0 0 0-1.43.933q-.78.704-.802 1.268l.494-.006.549-.066.742-.152.317-.053q.203-.036.249-.068 1.088-.03 1.571.514.316.402.44 1.137l.062.367 2.785-.472q-.238-1.406-1.128-1.97-.951-.62-2.775-.312-.201.036-.269-.019a.3.3 0 0 1-.089-.103q-.02-.113.113-.253a.6.6 0 0 1 .278-.203l.778-.327q.557-.25.986-.48 1.015-.471 1.59-.92.73-.528 1.088-1.109.78-1.238 1.071-3.209.292-1.969-.065-4.071" style="display:inline;fill:#ab2525;fill-opacity:1;fill-rule:nonzero;stroke:none" transform="matrix(1.33333 0 0 -1.33333 0 455.587)"></path><path d="M88.061 208.516a4.3 4.3 0 0 1-.547 1.214q-.755.206-1.135.084-.362-.06-.464-.432-.085-.31.112-.71.169-.406.527-.702.431-.078.863.136.258.117.644.41m2.487-5.365q-.315-1.15-1.481-1.911a1.3 1.3 0 0 0-.455-.135 1.4 1.4 0 0 0-.543.036q-.335.091-.59.347-.257.257-.182.53l.65 2.377q.206.755.297 1.209.09.455.085.776l-.284-.016-.382.011q-.197.015-.531.105l-.43.131a3 3 0 0 0-.5.217 4 4 0 0 0-.346.194q-.17.106-.483.326-.524.369-.953.898l-.447.602q-.147.24-.206.341a4 4 0 0 0-.166.346l-.158.589q-.138.517-.057.814.07.26.386.44.24.148.934.251l.68-.093.666-.142q1.066-.292 1.816-.809.75-.519 1.211-1.069a.9.9 0 0 1 .34.319l.229.643 2.688-.734q-.237-.867-.649-1.473t-1.211-1l.237-.836.12-.779q.02-.272.013-.536a13 13 0 0 0-.033-.657 12 12 0 0 0-.104-.623 10 10 0 0 0-.161-.689m-9.827 9.579 1.074-1.77-1.584-1.071.961-1.647-1.737-1.388-1.201 1.792 1.638 1.269-.914 1.62z" style="display:inline;fill:#ab2525;fill-opacity:1;fill-rule:nonzero;stroke:none" transform="matrix(1.33333 0 0 -1.33333 0 455.587)"></path><path d="M89.767 210.422q.084.283.184.648t.105.793a3.2 3.2 0 0 1-.231 1.218q-.388.957-1.445 1.414l-.205.074-.173.051q-1.133.333-2.926.331a18.7 18.7 0 0 1-3.336-.285l2.46-1.512q.76-.464.779-.537l-.233-.158q-1.602.47-4.254 1.783-2.59 1.243-3.921 2.277l.015.048q.021.075.18.068l.222.028q1.468.078 3.622.033a48 48 0 0 0 3.561-.269q1.839-.206 2.715-.462 1.588-.468 2.787-1.1 1.2-.633 1.857-1.288.658-.654.954-1.806.298-1.15.02-2.099-.336-1.146-1.517-1.883a1.3 1.3 0 0 0-.458-.126 1.4 1.4 0 0 0-.542.046 1.24 1.24 0 0 0-.567.347q-.234.25-.203.494zM78.05 221.969q3.436.488 6.657.168 2.903-.255 5.01-1.069a24 24 0 0 0 1.906-.818q.77-.38 1.372-.777 1.243-.88 1.791-2.205.51-1.244.473-3.514l-.004-.26-.046-.299q-.042-.106-.142-.083l-.155.17-.123.145-.104.191q-.241.34-1.165 2.294-.712 1.472-1.416 2.432-.93 1.226-2.091 1.675l-.24.092-.141.027q-.48.075-.95.14a25 25 0 0 1-2.141.194q-.553.027-1.205.017l-1.225-.036q-.585-.022-1.178-.095l1.871-.999.883-.422.745-.316q.336-.13.523-.284.116-.128.098-.245-.078-.204-.815-.043a18 18 0 0 0-1.804.6l-1.723.707q-.442.172-.947.435-.503.263-.722.375-.818.411-1.577.87a20 20 0 0 0-1.415.933M94.29 227.365q.04-.11.098-.218.016-.023.122-.201l.265-.341.257-.249q.222-.184.329-.252.11-.069.177-.107.267-.151.392-.192l.421-.09a1 1 0 0 1 .709.16q.227.166.385.445l.052.119q.48.85.566 1.891.146 1.039-.239 1.403l-.134.077q-.592.334-1.478-.346-.575-.47-1.922-2.099m-2.714 1.12q1.773 1.653 2.549 2.217 1.04.77 1.846.816.798.078 1.86-.52 1.743-.984 2.233-2.338.547-1.562-.614-3.619-.493-.872-1.459-.952-.968-.081-2.141.582a7 7 0 0 0-1.183.83q-.302.274-.559.537a8 8 0 0 0-.565.658l-.245-.304-.676.839zm.011 5.243.578-2.007-1.798-.651.546-1.827-2.012-.898-.749 2.015 1.915.806-.407 1.733zM103.256 234.551l.744-.877q.943-1.041 1.131-1.965.105-.423.093-.908a5.7 5.7 0 0 0-.132-1.036 10 10 0 0 0-.3-.942 22 22 0 0 0-.494-1.212l-.463-.909-.789-1.495q-.481-.728-.6-.696l-.025.078v.139l.101.456.381 1.319.228.926q.273 1.251.348 2.295.033.608-.036 1.131a4.6 4.6 0 0 1-.199.979 9.3 9.3 0 0 1-.728 1.668l-.741 1.09q-.39.55-.513.971a.57.57 0 0 0 .073.505q.163.246.977.686.813.438.956.652l.467.707 2.355-1.558-.765-1.157q-.283-.428-.916-.64z" style="display:inline;fill:#ab2525;fill-opacity:1;fill-rule:nonzero;stroke:none" transform="matrix(1.33333 0 0 -1.33333 0 455.587)"></path><path d="m106.604 241.396.772.994 2.229-1.735q-.63-.811-1.301-1.15l-1.079-.446a4.4 4.4 0 0 0-.252-1.39 4.7 4.7 0 0 0-.757-1.37 5.2 5.2 0 0 0-1.071-1.022 3.1 3.1 0 0 0-1.32-.567q-.197-.026-.473.051-.274.076-.487.24a1.2 1.2 0 0 0-.394.519 1.3 1.3 0 0 0-.094.308.3.3 0 0 0 .064.219l1.782 2.29q.331.424.565.861.234.436.358.909.28 1.051-.108 1.744-1.042.354-2.489.407-1.448.052-2.345-.16l2.625-2.042q.154-.219.043-.424-.118-.153-.443.036l-2.866 1.855-.484-.599-.491-.611-.155-.074a.4.4 0 0 0-.165-.003l.001.065.247.59.169.551q.162.606.032.773l-.82.702q-.487.378-.856.78a1.2 1.2 0 0 0-.245.272 1.1 1.1 0 0 0-.207.299q-.058.134.077.306l.145.083q.81-.338 1.021-.34.214-.036.345.089a6.6 6.6 0 0 1-.398.92q-.267.526-.666 1.161-.833 1.25-1.664 1.897l-.373.273a.9.9 0 0 1-.293.148l-.304 1.489 1.619-.805.894-.419.685-.289q.811-.338 1.148-.323l1.481-1.315-3.84 1.295q.437-.338.872-.825.436-.485.873-1.134.83-1.214 1.122-2.24l.978.004.843-.005a10 10 0 0 0 1.067-.05l.815-.081q.195-.022.346-.057t.499-.154q.349-.115.634-.272l.281-.203.253-.196q.477-.37.863-.827.385-.454.692-1.002" style="display:inline;fill:#ab2525;fill-opacity:1;fill-rule:nonzero;stroke:none" transform="matrix(1.33333 0 0 -1.33333 0 455.587)"></path><path d="M107.4 242.388q.189.227.425.523t.409.687q.254.588.268 1.211.021 1.03-.77 1.869l-.159.149-.139.114q-.909.753-2.559 1.458a18.4 18.4 0 0 1-3.177 1.053l1.664-2.358q.516-.727.505-.801l-.278-.053q-1.287 1.063-3.205 3.317-1.891 2.164-2.706 3.637l.033.039q.05.06.192-.008l.216-.063a51 51 0 0 0 3.342-1.397 48 48 0 0 0 3.165-1.653q1.61-.913 2.312-1.495 1.276-1.055 2.128-2.11t1.199-1.915q.345-.86.165-2.036-.18-1.175-.811-1.937-.76-.92-2.136-1.132a1.3 1.3 0 0 0-.471.065q-.273.083-.48.255a1.25 1.25 0 0 0-.385.543q-.116.321.009.534zM121.811 250.432q-.121-.035-.346.096a2 2 0 0 0-.197.138 1.2 1.2 0 0 0-.183.182.85.85 0 0 0-.211.558l-.124 1.662-.022.914.056.296q.026.09.128.288l.123.235q.064.103.128.198.064.094.123.144l2.158 1.781 1.782-2.158-.743-.614a7 7 0 0 0-.374-.292 1.7 1.7 0 0 0-.3-.181 3 3 0 0 0-.84-.294l-.336-.178-.258-.13q-.12-.098-.042-.233.151-.042.51-.012l.883.162q1.023.23 1.541.19a1 1 0 0 0 .669-.246l.07-.126q.207-.413.283-.666.05-.14.103-.305a4 4 0 0 0 .102-.406q.132-.442.157-.654.058-.334.04-.634.065-1.127.047-2.024a9.3 9.3 0 0 0-.13-1.506q-.252-1.207-1.176-2.486l-.237-.278-.279-.248q-.97-.8-2.363-.676t-3.24 1.213l-.751.628-.331.359-.322.35a8.1 8.1 0 0 0-1.242 2.039 8.8 8.8 0 0 0-.599 2.369l-.063.762-.025.979.035 1.793q.023.818-.477 1.787-.11.193-.048.26.099.082.377-.255.245-.296.463-.642.218-.344.39-.735a4.4 4.4 0 0 0 .374-1.722l.01-1.706q.012-.44.037-.802a8 8 0 0 1 .207-1.37q.074-.313.227-.718.081-.2.207-.413.125-.211.289-.411.76-.92 1.972-1.259a4.1 4.1 0 0 1 2.388.032q.561.246.938.556.842.696 1.328 1.88.215.527.374 1.242.16.714.195 1.459l-.064.096q-.18.219-1.794-.065-.967-.199-1.597-.203m7.418-5.79-.143-2.121-1.908.038-.12-1.931-2.205-.151.008 2.157 2.067.116.216 1.759z" style="display:inline;fill:#ab2525;fill-opacity:1;fill-rule:nonzero;stroke:none" transform="matrix(1.33333 0 0 -1.33333 0 455.587)"></path><path d="m128.41 267.982-.419-2.028-1.889.293-.392-1.876-2.242.18.35 2.137 2.067-.213.463 1.859zm-5.391-.25.43 2.081 2.11-.306-.431-2.081zm1.445-13.594a3.2 3.2 0 0 0-1.108-.432 3.3 3.3 0 0 0-1.27.027q-.195.046-.426.211a1.4 1.4 0 0 0-.374.396 1.2 1.2 0 0 0-.19.623.9.9 0 0 0 .028.319.34.34 0 0 0 .149.198l2.618 1.625q.543.339.889.697.345.356.56.839.4.912.243 2.357-.029.314.128.428.164.1.374-.238l.081-.129.215-.713a2 2 0 0 1 .186-.445.78.78 0 0 1 .368-.3q.489-.3 1.089.072.392.243.776.769.327.52.428 1.112l-.471.297-.437 2.6.678-.652.36-.411.239-.335q.434-.7.558-1.678l.158.037.226.124q.337.211.622.629.119.15.154.201.036.053.112.222l.232.552-.377.339a2.4 2.4 0 0 1-.39.288l-.35 2.654q.92-.776 1.374-1.505.65-1.047.721-2.378l1.08.67 1.49-2.399q-1.221-.759-2.586-.534-.012-.369-.276-.82l-.242-.316-.329-.371-.377-.219a1.3 1.3 0 0 0-.277-.067q-.246-.017-.409.246l-.089.216q-.059.144-.047.198-.12-.56-.552-1.204a3.9 3.9 0 0 0-1.044-.997l-.29-.165a.6.6 0 0 0-.263-.088 1 1 0 0 0-.454.051q-.198.074-.478.308-.477.475-.998 1.314l-.06-.219-.046-.195q.033-1.414-.392-2.313-.4-.792-1.534-1.496" style="display:inline;fill:#ab2525;fill-opacity:1;fill-rule:nonzero;stroke:none" transform="matrix(1.33333 0 0 -1.33333 0 455.587)"></path><path d="M135.344 260.826a5 5 0 0 0-.662-.285 4.7 4.7 0 0 0-.738-.194 3.1 3.1 0 0 0-1.436.036q-.19.06-.408.243-.219.184-.342.423a1.2 1.2 0 0 0-.142.636q.004.19.053.316a.35.35 0 0 0 .164.187l2.553 1.323q.479.247.874.547a4 4 0 0 1 .704.676q.694.837.632 1.628-.799.759-2.091 1.411-1.293.653-2.197.835l1.53-2.952q.05-.264-.138-.404-.171-.089-.387.219l-1.828 2.883-.69-.341-.701-.35-.172-.002a.33.33 0 0 0-.151.067l.028.057.47.432.385.43q.4.482.351.689l-.45.98q-.284.548-.452 1.068a1.2 1.2 0 0 0-.109.348 1.1 1.1 0 0 0-.062.359q.003.146.197.247l.166.014q.595-.646.787-.736.178-.123.351-.063.045.412.022 1.002-.022.588-.12 1.334-.234 1.483-.718 2.418l-.225.404a.9.9 0 0 1-.204.256l.346 1.48 1.134-1.407.637-.755.502-.55q.595-.645.907-.773l.796-1.814-2.946 2.782q.254-.49.446-1.113.194-.624.32-1.396.245-1.45.082-2.503l.89-.406.763-.357q.63-.295.949-.491l.707-.415a3 3 0 0 0 .29-.196q.122-.097.389-.348.268-.252.462-.513l.194-.347.165-.262q1.04-2.006.539-3.885-.502-1.88-2.416-2.872M134.318 279.936q2.784-2.076 4.841-4.574 1.88-2.225 2.801-4.289.498-1.113.775-1.925.278-.81.425-1.517.263-1.5-.285-2.826-.513-1.243-2.139-2.826l-.187-.182-.243-.179q-.105-.048-.16.041l.011.23.014.188.06.21q.07.412.791 2.448.532 1.547.711 2.722.206 1.526-.303 2.663l-.105.234-.081.119a57 57 0 0 1-.576.769q-.288.378-.648.807a30 30 0 0 1-.734.84q-.373.41-.841.861l-.895.838q-.43.398-.903.764l.624-2.028.328-.922.306-.749q.147-.328.17-.571-.007-.171-.102-.242-.2-.09-.608.544-.187.324-.402.741a20 20 0 0 0-.456.957l-.723 1.715q-.194.433-.366.975-.172.543-.247.776a23 23 0 0 0-.505 1.729q-.216.86-.348 1.659M149.427 268.055l.046-1.149q.102-1.4-.32-2.245a3.5 3.5 0 0 0-.486-.772 6 6 0 0 0-.743-.736q-.345-.263-.816-.555a21 21 0 0 0-1.136-.651l-.925-.431-1.543-.692q-.828-.276-.901-.178l.028.077.086.109.361.297 1.112.805.75.588q.987.817 1.688 1.593.402.46.67.914.275.43.446.894.312.847.453 1.762l.089 1.315q.032.674.194 1.08a.57.57 0 0 0 .369.354q.28.092 1.192-.063.91-.156 1.155-.074l.803.268.895-2.678-1.315-.44q-.488-.163-1.116.06z" style="display:inline;fill:#ab2525;fill-opacity:1;fill-rule:nonzero;stroke:none" transform="matrix(1.33333 0 0 -1.33333 0 455.587)"></path><path d="M154.638 278.506q-.14.21-.291.429l-.799.946c-.231.316-.617.519-.879.82l.218-2.109.142-.97.154-.793a1.9 1.9 0 0 0 .056-.594q-.04-.167-.147-.217-.214-.05-.491.651a18 18 0 0 0-.51 1.833l-.376 1.824q-.105.462-.169 1.028-.062.564-.092.808a24 24 0 0 0-.158 1.794 21 21 0 0 0-.017 1.694c1.55-1.717 3.001-3.428 4.046-5.316.537-.971.604-1.677.637-2.717l-.503-3.286c.839 0 1.224.941 1.66 1.006.688.101 1.093-.557 1.208-1.442.134-1.04-.031-1.727-.587-1.828a12 12 0 0 0-1.694-.168c-.607-1.974-1.774-3.34-3.504-4.075l-1.359 2.399c1.12.344 2.401.687 3.32 1.827.42.52.101 1.351.101 2.146 0 .839.274 1.703.285 2.566.007.572-.144 1.581-.251 1.744M159.245 287.243q2.163-2.716 3.515-5.656 1.25-2.632 1.615-4.861.198-1.205.259-2.059t.024-1.577q-.13-1.517-.995-2.66-.814-1.07-2.791-2.188l-.226-.128-.281-.111q-.114-.018-.143.081l.068.219.062.179.112.188q.173.38 1.389 2.166.909 1.358 1.381 2.45.587 1.423.386 2.652l-.042.253-.048.136q-.178.451-.361.891-.183.438-.421.945-.24.507-.496.999-.256.491-.594 1.048l-.651 1.038q-.316.494-.679.968l.087-2.119.082-.975.105-.803q.058-.354.019-.594-.05-.166-.161-.209-.216-.036-.449.68a18 18 0 0 0-.396 1.861l-.263 1.843a9 9 0 0 0-.104 1.038q-.028.566-.043.812a24 24 0 0 0-.047 1.8q.011.886.087 1.693M177.309 270.242q-.117.05-.205.295a2 2 0 0 0-.064.231 1.1 1.1 0 0 0-.026.257q0 .334.193.565l.964 1.36.566.718.231.192q.076.052.282.142l.244.102q.115.039.225.07a.7.7 0 0 0 .186.033l2.799-.003-.002-2.799-.964.001q-.27 0-.474.013a2 2 0 0 0-.347.052q-.436.09-.834.309l-.372.076-.283.065q-.154 0-.179-.153.088-.13.384-.334l.783-.438q.936-.475 1.309-.835a1 1 0 0 0 .359-.616l-.026-.142a4.4 4.4 0 0 0-.206-.693l-.116-.302a4 4 0 0 0-.18-.379 4.4 4.4 0 0 0-.296-.602 2.7 2.7 0 0 0-.372-.514 27 27 0 0 0-1.254-1.591 9.6 9.6 0 0 0-1.06-1.077q-.964-.769-2.491-1.166l-.36-.063-.372-.013q-1.258 0-2.253.984-.993.984-1.723 2.998l-.179.964-.026.488-.025.475a8 8 0 0 0 .342 2.361 8.8 8.8 0 0 0 1.049 2.208l.437.628.604.77 1.169 1.36q.54.616.772 1.682.039.217.128.23.13 0 .128-.436 0-.385-.051-.79a6 6 0 0 0-.168-.815 4.4 4.4 0 0 0-.81-1.565l-1.08-1.321q-.27-.348-.482-.642a8.6 8.6 0 0 1-.713-1.187 6 6 0 0 1-.283-.7 3.1 3.1 0 0 1-.143-.949q-.001-1.194.717-2.228a4.1 4.1 0 0 1 1.861-1.497 4 4 0 0 1 1.078-.168q1.091-.001 2.221.601.501.268 1.079.718.579.45 1.08 1l.013.116q0 .282-1.425 1.093-.871.463-1.359.861m2.024-9.188-1.461-1.542-1.448 1.245-1.322-1.412-1.796 1.29 1.382 1.656 1.666-1.228 1.287 1.218z" style="display:inline;fill:#ab2525;fill-opacity:1;fill-rule:nonzero;stroke:none" transform="matrix(1.33333 0 0 -1.33333 0 455.587)"></path><path d="m192.101 282.932 1.635 1.192 1.408-1.59-1.68-1.315zm-3.916-9.336.575-.147.634-.103a8.5 8.5 0 0 1 2.627.012q1.244.212 2.064.872.058.407-.314.708-.334.293-1.033.393l-.678.059a9 9 0 0 1-.918-.064q-1.087-.079-1.842-.502a2.6 2.6 0 0 1-1.115-1.228m-6.424-1.934a3.2 3.2 0 0 0-1.126.381 3.3 3.3 0 0 0-.957.837q-.12.16-.191.436a1.4 1.4 0 0 0-.032.543q.048.344.254.599.111.14.258.216.147.077.287.056l2.415-.345a5.7 5.7 0 0 1 1.098-.072q.425.021.762.208.532.274 2.187 2.047l.213.216.201.14q.115.075.323.084.204-.03.158-.347l-.09-.272q-.516-.796-.598-1.368-.092-.647.457-.973.626 1.027 1.304 1.863l.529.611.543.533q.386.166.971.307.585.145 1.153.219 1.226.135 2.178-.001.979-.14 1.535-.517.301-.25.422-.501.14-.19.089-.545-.043-.305-.385-1.061a17 17 0 0 0-.899-1.478q-.409-.592-.766-.915a5 5 0 0 0-.866-.708 15 15 0 0 0-1.233-.731l-.966-.315a6.4 6.4 0 0 0-.992-.176 11 11 0 0 0-1.047-.065 6 6 0 0 0-.957.06q-.902.129-1.423.476l-.799-.69-.134-.033a.4.4 0 0 0-.072.049.3.3 0 0 0-.064.088l-.035.211q.01.078.026.094.016.018.028.016l.527 1.053q-.095.156-.133.887l-.01.56.029.385-.005.052-.021.042-.101-.076-.131-.098q-.526-.69-.982-1.157a3.6 3.6 0 0 0-.83-.633q-.743-.387-2.102-.192M200.782 286.073q.056-1.683-.164-3.831l-.209-1.808q-.06-.447-.121-.835t-.137-.726l-.403-1.909-.329-1.584-.456-2.029q-.209-.928.133-1.399.25-.293.876-.433l.175-.04.178-.027-.61-2.718q-1.052.236-1.684.707-.951.687-.705 1.778l.291 1.473.277 1.346.667 3.614.392 1.924.232 1.146q.127.564.096 1.307-.03.454-.036.483a4 4 0 0 0-.076.306 6 6 0 0 1-.222.826z" style="display:inline;fill:#ab2525;fill-opacity:1;fill-rule:nonzero;stroke:none" transform="matrix(1.33333 0 0 -1.33333 0 455.587)"></path><path d="m199.538 271.758 1.854-.521q.148-.04.27-.083.122-.04.208-.064l.136-.038a.6.6 0 0 0 .131-.01q.183-.012.356-.014a4 4 0 0 1 .42.023q1.204.063 1.872.688.095.334.12.593.027.26.008.385l-.012.243-.066.285-.195-.172-.32-.283q-.092-.094-.192-.066l-.029.034-.068.139a.4.4 0 0 0 .011.184l.034.124q.133.47.427 1.093l.341.691q.453.952.802 1.389.162.288.384.226a.35.35 0 0 0 .2-.164.8.8 0 0 0 .103-.322q.17-.726.154-1.522a6.2 6.2 0 0 0-.228-1.55 8 8 0 0 0-.306-.9 9 9 0 0 0-.456-.914 9.4 9.4 0 0 0-.741-1.098 11 11 0 0 0-.875-.954 3.5 3.5 0 0 0-2.025-.753 5.5 5.5 0 0 0-.974.087q-.575.094-1.341.309l-.773.19zm3.101-8.817-1.063 1.631-1.667-.999-1.342 1.777 1.807 1.213 1.239-1.667 1.654.856 1.197-1.723z" style="display:inline;fill:#ab2525;fill-opacity:1;fill-rule:nonzero;stroke:none" transform="matrix(1.33333 0 0 -1.33333 0 455.587)"></path><path d="m210.257 266.911-.688-.922q-.801-1.152-1.66-1.544a3.4 3.4 0 0 0-.863-.295 5.7 5.7 0 0 0-1.04-.104q-.435.012-.985.08-.55.07-1.292.209l-.991.247-1.634.433q-.817.306-.812.427l.07.042.135.033.468.003 1.37-.075.954-.013q1.28.015 2.314.176.6.105 1.095.289.485.163.908.415.777.463 1.461 1.085l.897.967q.449.503.83.717a.57.57 0 0 0 .51.043q.275-.103.886-.798.612-.694.852-.784l.794-.297-.989-2.645-1.299.485q-.481.18-.83.75z" style="display:inline;fill:#ab2525;fill-opacity:1;fill-rule:nonzero;stroke:none" transform="matrix(1.33333 0 0 -1.33333 0 455.587)"></path><path d="M213.438 267.365q.269-.123.617-.273.347-.151.769-.216a3.2 3.2 0 0 1 1.239.057q1.001.25 1.604 1.231l.102.193.074.164q.489 1.075.74 2.851.25 1.776.188 3.342l-1.843-2.223q-.567-.687-.642-.695l-.124.254q.691 1.52 2.365 3.959 1.595 2.392 2.805 3.562l.047-.021q.07-.032.042-.189l-.004-.223a51 51 0 0 0-.477-3.591 49 49 0 0 0-.768-3.487q-.463-1.794-.84-2.622-.686-1.509-1.481-2.606-.796-1.097-1.537-1.657-.74-.558-1.921-.691-1.183-.133-2.082.278-1.087.494-1.651 1.765a1.3 1.3 0 0 0-.06.472q.009.284.121.53.143.316.424.513.28.197.518.131zM226.681 277.321q.037-3.471-.702-6.621-.63-2.845-1.713-4.828a23 23 0 0 0-1.061-1.783 12 12 0 0 0-.95-1.259q-1.034-1.118-2.42-1.487-1.3-.345-3.545-.011l-.257.038-.29.085q-.101.055-.063.151l.188.132.159.103.203.079q.37.193 2.427.855 1.552.513 2.596 1.085 1.336.761 1.933 1.856l.124.224.044.137q.137.466.263.924.125.459.248 1.006t.223 1.092q.1.544.176 1.191l.124 1.22q.054.582.059 1.18l-1.234-1.724-.534-.82-.41-.698a2 2 0 0 0-.351-.481q-.143-.099-.255-.066-.191.105.064.814.143.344.346.768.201.424.485.943l.925 1.615q.228.417.554.883.326.464.467.666.514.758 1.068 1.45.554.693 1.109 1.281M230.81 252.008l.472-2.074-1.796-.203-.461 1.985zm9.669-5.051q-1.168.922-1.287 2.161a2.5 2.5 0 0 0 .541 1.929q.352.443.797.614l-.071.056q-.231.183-.845.11l-.572-.103q-2.057-.388-4.378.234a10.8 10.8 0 0 0-3.738 1.938 10.52 10.52 0 0 0-1.398 1.316 7.3 7.3 0 0 0-1.047 1.472 6.3 6.3 0 0 0-.588 1.511q-.174.734-.084 1.532.088.795.379 1.525.287.728.686 1.232.836 1.058 2.264 1.664.313.129.602.236t.698.21q.408.102.77.177.36.074.838.14.773.108 2.24-.395l2.531-.854q1.422-.355 2.19.038l-.111-.223q-.382-.483-1.561-.568-1-.044-1.478.137-.784.292-1.475.494-.69.202-1.233.303-1.38.304-2.431.153-1.143-.161-1.771-.958l-.236-.32-.17-.34q-.64-1.555.203-3.514.817-1.823 2.722-3.326a11.2 11.2 0 0 1 4.099-2.059q2.488-.64 4.65.025l.427.022.337.013q.294-.02.405-.107l.02-.016q.112-.089-.016-.249a.7.7 0 0 0-.226-.183l-.254-.175a8 8 0 0 1-.923-.547l-.333-.277-.268-.279q-.501-.635-.192-1.32.252-.592 1.038-1.213z" style="display:inline;fill:#ab2525;fill-opacity:1;fill-rule:nonzero;stroke:none" transform="matrix(1.33333 0 0 -1.33333 0 455.587)"></path><path d="M240.422 246.886a5 5 0 0 0-.473.544 5 5 0 0 0-.409.643 3.1 3.1 0 0 0-.401 1.38q0 .2.107.463.11.263.3.454.245.246.561.328a.9.9 0 0 0 .319.045.34.34 0 0 0 .226-.098l2.037-2.032q.382-.38.786-.666.405-.284.859-.466 1.008-.406 1.743-.106.479.99.709 2.42t.129 2.348l-2.349-2.356q-.235-.127-.426.009-.136.137.09.435l2.193 2.619-.536.552-.546.562-.055.164a.3.3 0 0 0 .019.163l.063-.009.554-.317.527-.236q.582-.234.763-.125l.798.727q.435.437.879.755.108.11.299.209.182.128.323.169.14.04.295-.113l.063-.155q-.434-.763-.461-.971-.064-.209.046-.355.408.084.961.283.553.2 1.234.52 1.344.673 2.086 1.419l.318.336a.9.9 0 0 1 .181.272l1.515.121-.996-1.508-.525-.836-.372-.645q-.434-.764-.46-1.1l-1.488-1.309 1.756 3.652a6.7 6.7 0 0 0-.925-.763 10 10 0 0 0-1.233-.729q-1.306-.674-2.36-.839l-.116-.972-.107-.834q-.09-.69-.181-1.054l-.179-.799a3 3 0 0 0-.1-.336 7 7 0 0 0-.213-.477 4 4 0 0 0-.349-.595l-.272-.29-.198-.237q-1.597-1.6-3.538-1.694-1.944-.093-3.471 1.43M240.979 243.122q.115-.052.333-.141.217-.088.601-.228l.738-.286q.617-.225 1.223-.422a71 71 0 0 1 1.126-.37q.215-.067.419-.141.277-.079.683-.165.404-.086.729-.122 2.712-.275 3.975.856l.634.638-.494-.064a1.2 1.2 0 0 0-.668.109 2.2 2.2 0 0 0-.549.421 1.7 1.7 0 0 0-.303.444 1.6 1.6 0 0 0-.118.489q-.028.51.355.852.507.455 1.313.893a8.5 8.5 0 0 0 1.462.647q.906.45 1.463-.171.378-.42.049-1.689-.328-1.269-1.093-1.954-3.747-3.359-6.521-3.38a6.4 6.4 0 0 0-1.728.167 4.3 4.3 0 0 0-1.527.675l-.662.527q-.383.311-.734.703l-.997 1.073-.731.758a.7.7 0 0 0 .28.131z" style="display:inline;fill:#ab2525;fill-opacity:1;fill-rule:nonzero;stroke:none" transform="matrix(1.33333 0 0 -1.33333 0 455.587)"></path><path d="m254.371 234.703.69-1.052-2.364-1.547q-.561.859-.667 1.604l-.072 1.164q-.639.226-1.233.69a4.7 4.7 0 0 0-1.052 1.16 5 5 0 0 0-.351.629 4.6 4.6 0 0 0-.268.714 3.1 3.1 0 0 0-.11 1.432q.041.196.202.432.16.234.385.383.291.19.617.206a1.4 1.4 0 0 0 .323-.013.3.3 0 0 0 .186-.131l1.59-2.427q.295-.451.633-.814.337-.362.744-.633.903-.605 1.684-.462.672.87 1.191 2.223t.607 2.271l-2.781-1.822q-.257-.077-.416.096-.105.16.178.408l2.684 2.11-.411.652-.419.663-.019.171a.34.34 0 0 0 .051.156l.06-.023.478-.423.467-.338q.52-.351.72-.281l.93.548q.517.338 1.017.558.128.084.335.143.204.088.35.099t.266-.172l.03-.164q-.582-.657-.651-.855-.106-.192-.028-.357.417-.002.999.079.583.084 1.315.254 1.452.384 2.333.961l.38.264a.9.9 0 0 1 .233.229l1.508-.193-1.285-1.272-.686-.71-.496-.555q-.582-.658-.678-.981l-1.723-.975 2.468 3.213a7 7 0 0 0-1.062-.558q-.6-.255-1.357-.459-1.416-.39-2.481-.336l-.313-.927-.278-.796a10 10 0 0 0-.392-.993l-.341-.745a3 3 0 0 0-.166-.307 7 7 0 0 0-.307-.424 4 4 0 0 0-.463-.511l-.283-.201-.268-.175a5.8 5.8 0 0 0-1.061-.549 6.3 6.3 0 0 0-1.172-.331" style="display:inline;fill:#ab2525;fill-opacity:1;fill-rule:nonzero;stroke:none" transform="matrix(1.33333 0 0 -1.33333 0 455.587)"></path><path d="M255.104 233.729q.152-.251.353-.573.202-.321.514-.612a3.2 3.2 0 0 1 1.054-.652q.967-.362 2.019.111l.193.101.155.093q1.009.611 2.219 1.936a18.6 18.6 0 0 1 2.041 2.653l-2.775-.794q-.856-.247-.922-.213l.041.281q1.427.863 4.188 1.932 2.665 1.072 4.325 1.357l.027-.044q.04-.066-.072-.179l-.13-.184a51 51 0 0 0-2.421-2.694 48 48 0 0 0-2.602-2.444q-1.394-1.219-2.173-1.691-1.417-.856-2.695-1.314-1.275-.457-2.203-.5t-1.976.514q-1.051.559-1.562 1.405-.618 1.02-.365 2.388.047.195.216.425.17.23.4.368.296.18.639.185.342.004.501-.185zM271.805 235.053q-1.857-2.934-4.19-5.177-2.075-2.045-4.061-3.121a24 24 0 0 0-1.86-.921 13 13 0 0 0-1.481-.54q-1.475-.377-2.84.066-1.278.418-2.981 1.918l-.196.172-.197.23q-.054.1.029.161l.23.008.189.001.214-.045q.415-.039 2.502-.601 1.583-.413 2.768-.5 1.536-.088 2.632.506l.225.122.112.09q.369.317.723.634.354.315.755.708.4.391.781.796.38.403.794.904l.767.956q.364.46.692.959l-1.974-.776-.894-.399-.723-.362a1.9 1.9 0 0 0-.555-.214q-.174-.006-.25.084-.105.192.495.648.309.211.709.457.398.246.919.528l1.654.853q.418.226.945.439l.754.306a23 23 0 0 0 3.313 1.11M259.423 213.754q-.564 1.558.115 2.923.643 1.244 2.566 2.718l.295.203.429.251.851.362a7.5 7.5 0 0 0 2.677.451q.707.01 1.327-.099a6 6 0 0 0 1.264-.382q.46-.216.736-.335.39-.173.656-.267a6 6 0 0 1 1.037-.335q.396-.116.972-.194.198-.023.573-.059.375-.034.721-.047a.7.7 0 0 0 .213.051l.211.023a.2.2 0 0 0 .136-.075q.044-.121-.391-.278a4.3 4.3 0 0 0-2.14-.236q-1.054.157-3.491 1.119a9 9 0 0 1-1.865.321 3.4 3.4 0 0 1-.796-.044 4.3 4.3 0 0 1-.756-.19 4.6 4.6 0 0 1-1.01-.531 2 2 0 0 1-.192-.129 2 2 0 0 1-.159-.148 4 4 0 0 1-.578-.592 3.87 3.87 0 0 1-.881-1.752 3.4 3.4 0 0 1 .134-1.877q.376-1.038 1.444-1.949 1.067-.91 2.741-1.424l.247.036q.12.044.159.125l.103.284q.057.293-.075 1.297l-.102.509-.079.708q-.062.51.069.77.13.26.542.408l.407.12.445.092a7.5 7.5 0 0 0 1.753.001 13.4 13.4 0 0 0 1.948-.38q2.095-.511 3.352-1.34.18-.084.381-.299.164-.226.247-.457a.96.96 0 0 0 .065-.44.55.55 0 0 0-.208-.294l-.401-.213-.418-.165-.18-.065-.485-.135-.793-.109q-.255-.011-.436.053a.53.53 0 0 0-.273.208q-.012.147.206.334l.169.253a.54.54 0 0 1-.021.361l-.086.16-.06.088-.061.059q-.5.475-1.52.877a7.2 7.2 0 0 1-2.101.487q-.29-.105-.296-.653-.001-.451.297-1.612.2-.555-.065-1.144-.264-.587-.771-.77-2.92-.648-5.421.302-2.125.815-3.16 2.543l-.13.281zm-5.259-4.253.681 1.776-1.741.775.623 2.125 2.008-.761-.606-1.981 1.557-.83-.62-1.985zM266.839 205.404q.432.123.916 1.028.485.904.954 1.038.947.095 1.792.08 1.36-.001 2.214-.187.302-.075.531-.202a1.7 1.7 0 0 0 .424-.341l.355-.499a2.5 2.5 0 0 0 .239-.56q.273-.963-.11-1.966-.384-1.002-1.39-1.448a5 5 0 0 0-.783-.302l-.376-.134-.428-.135q-1.05-.297-1.731-.343a8 8 0 0 0-1.592-.037l-.68.047-.5.072a5.2 5.2 0 0 0-1.741.54 6.8 6.8 0 0 0-1.516 1.111q-1.613 1.639-2.564 4.998l-.055.331q-.015.102.076.155l.107-.049.173-.138.213-.234.354-.446 1.151-1.141 1.135-1.133a18 18 0 0 1 1.582-1.439q.724-.576 1.39-.948 1.764-.954 3.309-.517.815.232 1.055 1.22.087.4.081.844a3.4 3.4 0 0 1-.136.902q-.202.716-.549.806-.216.059-.34.023-.235-.066-.519-.708a4 4 0 0 0-.359-.622 1.7 1.7 0 0 0-.369-.438 4.8 4.8 0 0 0-1.256-.036 4 4 0 0 0-.213.02 4 4 0 0 0-.22.045 3 3 0 0 0-.283.06 9 9 0 0 0-.375.099q-.3.063-.351.248-.06.21.385.336M283.476 201.396q-1.547-.667-3.626-1.249l-1.759-.466a34 34 0 0 0-.821-.193 11 11 0 0 0-.726-.138l-1.925-.325-1.595-.272-2.055-.318q-.939-.145-1.252-.636-.182-.34-.083-.974l.027-.178.04-.175-2.753-.426q-.165 1.065.042 1.825.292 1.136 1.396 1.308l1.478.267 1.354.236 3.607.701 1.935.339 1.151.203q.572.089 1.251.389.413.194.436.21.174.131.257.183.332.207.688.509z" style="display:inline;fill:#ab2525;fill-opacity:1;fill-rule:nonzero;stroke:none" transform="matrix(1.33333 0 0 -1.33333 0 455.587)"></path><path d="m279.073 196.437 1.563-1.288-1.16-1.767-1.677 1.274zm-12.091-.199-.152 1.275 2.806.334.294-2.474q.054-.458.126-.786.072-.327.203-.674.44-1.098 1.301-1.474l.178.021q.114.014.239.055l.372.134q.408.153.557.312l-.617.302a.23.23 0 0 0-.132.126.45.45 0 0 0 .11.169l.223.078.076.009a7.4 7.4 0 0 0 1.212.028l.756-.052q1.03-.058 1.628-.207.303-.041.329-.271.015-.116-.087-.244a.57.57 0 0 0-.218-.219 8 8 0 0 0-.675-.417 7 7 0 0 0-.723-.331 6.6 6.6 0 0 0-1.458-.355 9 9 0 0 0-.98-.072 7.6 7.6 0 0 0-1.052.088q-.644.091-1.232.248a8 8 0 0 0-1.243.453 4 4 0 0 0-.619.418q-.247.229-.467.552l-.288.573-.215.725q-.098.389-.252 1.676" style="display:inline;fill:#ab2525;fill-opacity:1;fill-rule:nonzero;stroke:none" transform="matrix(1.33333 0 0 -1.33333 0 455.587)"></path></g><path d="m179.884 341.69 4.439-13.664h14.368l-11.624-8.445 4.44-13.664-11.623 8.445-11.624-8.445 4.44 13.664-11.623 8.445h14.367z" style="display:inline;fill:#eb7124;fill-opacity:1;fill-rule:nonzero;stroke:none" transform="matrix(1.33333 0 0 -1.33333 0 455.587)" data-source="https://football-logos.cc"></path><!-- source: https://football-logos.cc --></svg>