<svg xmlns="http://www.w3.org/2000/svg" viewBox="25.42 16.54 434.47 537.54"><!-- Source: https://football-logos.cc --><defs data-source="https://football-logos.cc"><clipPath id="a" clipPathUnits="userSpaceOnUse"><path d="M-340.21 193.558H30.271v-427.963H-340.21Z"></path></clipPath><clipPath id="b" clipPathUnits="userSpaceOnUse"><path d="M-112.85 290.284h370.48v-427.963h-370.48Z"></path></clipPath><clipPath id="c" clipPathUnits="userSpaceOnUse"><path d="M-153.238 254.482h370.48V-173.48h-370.48Z"></path></clipPath><clipPath id="d" clipPathUnits="userSpaceOnUse"><path d="M-195.242 219.657H175.24v-427.963h-370.48Z"></path></clipPath><clipPath id="e" clipPathUnits="userSpaceOnUse"><path d="M-71.654 324.393h370.48V-103.57h-370.48Z"></path></clipPath><clipPath id="f" clipPathUnits="userSpaceOnUse"><path d="M-236.438 184.344h370.481V-243.62h-370.48Z"></path></clipPath><clipPath id="g" clipPathUnits="userSpaceOnUse"><path d="M-276.826 150.95H93.655v-427.963h-370.48Z"></path></clipPath><clipPath id="h" clipPathUnits="userSpaceOnUse"><path d="M-340.006 125.715h370.48v-427.963h-370.48Z"></path></clipPath><clipPath id="i" clipPathUnits="userSpaceOnUse"><path d="M-42.029 265.11h370.481v-427.964h-370.48Z"></path></clipPath><clipPath id="j" clipPathUnits="userSpaceOnUse"><path d="M-338.858 92.813H31.623V-335.15h-370.48Z"></path></clipPath><clipPath id="k" clipPathUnits="userSpaceOnUse"><path d="M-93.079 287.873h370.481V-140.09h-370.48Z"></path></clipPath><clipPath id="l" clipPathUnits="userSpaceOnUse"><path d="M-96.48 273.852h370.482V-154.11H-96.48Z"></path></clipPath><clipPath id="m" clipPathUnits="userSpaceOnUse"><path d="M-117.062 256.182h370.481v-427.963h-370.481Z"></path></clipPath><clipPath id="n" clipPathUnits="userSpaceOnUse"><path d="M-127.506 242.02h370.481v-427.963h-370.481Z"></path></clipPath><clipPath id="o" clipPathUnits="userSpaceOnUse"><path d="M-134.36 241.332h370.481v-427.963H-134.36Z"></path></clipPath><clipPath id="p" clipPathUnits="userSpaceOnUse"><path d="M-143.99 233.065h370.482v-427.963H-143.99Z"></path></clipPath><clipPath id="q" clipPathUnits="userSpaceOnUse"><path d="M-178.755 214.322h370.481V-213.64h-370.48Z"></path></clipPath><clipPath id="r" clipPathUnits="userSpaceOnUse"><path d="M-190.41 183.552h370.481v-427.963h-370.48Z"></path></clipPath><clipPath id="s" clipPathUnits="userSpaceOnUse"><path d="M-202.967 182.434h370.481v-427.963h-370.48Z"></path></clipPath><clipPath id="t" clipPathUnits="userSpaceOnUse"><path d="M-218.598 177.072h370.48V-250.89h-370.48Z"></path></clipPath><clipPath id="u" clipPathUnits="userSpaceOnUse"><path d="M-223.987 164.388h370.48v-427.963h-370.48Z"></path></clipPath><clipPath id="v" clipPathUnits="userSpaceOnUse"><path d="M-224.902 163.603h370.48V-264.36h-370.48Z"></path></clipPath><clipPath id="w" clipPathUnits="userSpaceOnUse"><path d="M-234.531 155.336h370.48v-427.963h-370.48Z"></path></clipPath><clipPath id="x" clipPathUnits="userSpaceOnUse"><path d="M-266.058 136.329h370.48v-427.963h-370.48Z"></path></clipPath><clipPath id="y" clipPathUnits="userSpaceOnUse"><path d="M-275.563 120.112H94.918v-427.963h-370.481Z"></path></clipPath><clipPath id="z" clipPathUnits="userSpaceOnUse"><path d="M-276.478 119.327H94.003v-427.963h-370.48Z"></path></clipPath><clipPath id="A" clipPathUnits="userSpaceOnUse"><path d="M-294.188 95.783h370.48V-332.18h-370.48Z"></path></clipPath><clipPath id="B" clipPathUnits="userSpaceOnUse"><path d="M-303.225 96.365H67.256v-427.963h-370.48Z"></path></clipPath><clipPath id="C" clipPathUnits="userSpaceOnUse"><path d="M-312.854 88.098H57.627v-427.963h-370.48Z"></path></clipPath><clipPath id="D" clipPathUnits="userSpaceOnUse"><path d="M0 427.963h370.481V0H0Z"></path></clipPath><clipPath id="E" clipPathUnits="userSpaceOnUse"><path d="M-84.993 135.027h370.481v-427.963h-370.48Z"></path></clipPath><clipPath id="F" clipPathUnits="userSpaceOnUse"><path d="M-108.992 145.03h370.48v-427.963h-370.48Z"></path></clipPath><clipPath id="G" clipPathUnits="userSpaceOnUse"><path d="M-119.04 147.313h370.48V-280.65h-370.48Z"></path></clipPath><clipPath id="H" clipPathUnits="userSpaceOnUse"><path d="M-89.152 168.143H281.33V-259.82H-89.15Z"></path></clipPath><clipPath id="I" clipPathUnits="userSpaceOnUse"><path d="M-99.946 162.151h370.481v-427.963h-370.48Z"></path></clipPath><clipPath id="J" clipPathUnits="userSpaceOnUse"><path d="M-109.343 159.142h370.48V-268.82h-370.48Z"></path></clipPath><clipPath id="K" clipPathUnits="userSpaceOnUse"><path d="M-117.68 162.065h370.482v-427.963H-117.68Z"></path></clipPath></defs><path d="M0 0c-31.521-191.977-158.425-219.752-158.425-219.752S-285.005-191.977-316.446 0c0 0 24.091 32.45-2.45 72.071 0 0 9.391 80.694 18.374 93.765 0 0 52.495-15.522 73.728 13.07 0 0 15.287-30.226 68.369-29.409 53.218-.817 70.079 29.409 70.079 29.409 21.287-28.592 72.381-13.07 72.381-13.07 9.006-13.071 18.421-93.765 18.421-93.765C-24.153 32.45 0 0 0 0" clip-path="url(#a)" style="fill:#ffff05;fill-opacity:1;fill-rule:evenodd;stroke:#000;stroke-width:6;stroke-linecap:butt;stroke-linejoin:miter;stroke-miterlimit:10;stroke-dasharray:none;stroke-opacity:1" transform="matrix(1.33333 0 0 -1.33333 453.613 258.078)"></path><path d="M0 0v-83.619c7.511-6.673 14.865-12.28 21.81-16.963V19.333Z" clip-path="url(#b)" style="fill:#040404;fill-opacity:1;fill-rule:nonzero;stroke:none" transform="matrix(1.33333 0 0 -1.33333 150.467 387.046)"></path><path d="M0 0v-147.454c9.177-4.77 16.77-7.71 21.81-9.399V19.333Z" clip-path="url(#c)" style="fill:#040404;fill-opacity:1;fill-rule:nonzero;stroke:none" transform="matrix(1.33333 0 0 -1.33333 204.318 339.31)"></path><path d="M0 0v-189.224c5.859 2.318 13.33 5.718 21.81 10.567v197.99z" clip-path="url(#d)" style="fill:#040404;fill-opacity:1;fill-rule:nonzero;stroke:none" transform="matrix(1.33333 0 0 -1.33333 260.323 292.876)"></path><path d="M0 0v-1.11c7.047-10.885 14.396-20.463 21.81-28.889v49.332Z" clip-path="url(#e)" style="fill:#040404;fill-opacity:1;fill-rule:nonzero;stroke:none" transform="matrix(1.33333 0 0 -1.33333 95.54 432.525)"></path><path d="M0 0v-201.296c7.042 5.21 14.392 11.352 21.81 18.558V19.333Z" clip-path="url(#f)" style="fill:#040404;fill-opacity:1;fill-rule:nonzero;stroke:none" transform="matrix(1.33333 0 0 -1.33333 315.25 245.792)"></path><path d="M0 0v-195.759c7.493 9.259 14.846 19.754 21.81 31.644V19.333Z" clip-path="url(#g)" style="fill:#040404;fill-opacity:1;fill-rule:nonzero;stroke:none" transform="matrix(1.33333 0 0 -1.33333 369.101 201.267)"></path><path d="M0 0v24.804c-.23 1.667-.474 3.4-.729 5.186L-21.81 11.303v-160.374C-12.705-126.234-5.127-99.745 0-69.014v1.457C-2.178-64.43-20.995-35.562 0 0" clip-path="url(#h)" style="fill:#040404;fill-opacity:1;fill-rule:nonzero;stroke:none" transform="matrix(1.33333 0 0 -1.33333 453.342 167.62)"></path><path d="m0 0 275.558 235.747a123 123 0 0 0-7.297-1.313L-1.329 3.794C-.887 2.528-.451 1.246 0 0" clip-path="url(#i)" style="fill:#040404;fill-opacity:1;fill-rule:evenodd;stroke:none" transform="matrix(1.33333 0 0 -1.33333 56.038 353.479)"></path><path d="m0 0-268.889-230.041a265 265 0 0 1 2.039-3.187L.63-4.392C.428-2.964.218-1.496 0 0" clip-path="url(#j)" style="fill:#040404;fill-opacity:1;fill-rule:evenodd;stroke:none" transform="matrix(1.33333 0 0 -1.33333 451.81 123.751)"></path><path d="M0 0q-.097-1.026-.801-1.63a2.4 2.4 0 0 0-1.747-.606 2.22 2.22 0 0 0-1.638.81q-.622.724-.52 1.722.103.999.847 1.637a2.37 2.37 0 0 0 1.737.597 2.2 2.2 0 0 0 1.612-.8Q.095 1.026 0 0m-4.191-3.598q-.097-1.025-.821-1.647a2.38 2.38 0 0 0-1.727-.589 2.22 2.22 0 0 0-1.639.81Q-9-4.3-8.897-3.302q.103.999.827 1.62.781.67 1.756.614a2.21 2.21 0 0 0 1.613-.8q.605-.704.51-1.73m3.59 14.185-7.049 8.211-5.506-4.726q-1.048-.9-.227-2.049l1.242-1.448 2.23 1.914q2.419 2.077 4.301-.115l4.954-5.771L-12.658-3.7q-2.838-2.438-4.833-.114l-7.016 8.173 3.143 2.699 5.659-6.592q.752-.876 2.01.204l7.315 6.28-1.014 1.181q-.638.742-1.476.023l-3.829-3.288-4.695 5.469q-2.6 3.028.429 5.629l9.907 8.505 7.032-8.193 1.371 1.178 2.57-2.991z" clip-path="url(#k)" style="fill:#000;fill-opacity:1;fill-rule:nonzero;stroke:none" transform="matrix(1.33333 0 0 -1.33333 124.105 383.831)"></path><path d="m0 0-2.569 2.991L.213 5.379l-7.065 8.23 3.124 2.682 7.065-8.23 1.772 1.521-7.066 8.23 3.163 2.715 7.065-8.23 1.734 1.489-7.065 8.23 3.143 2.698 9.634-11.221z" clip-path="url(#l)" style="fill:#000;fill-opacity:1;fill-rule:nonzero;stroke:none" transform="matrix(1.33333 0 0 -1.33333 128.639 365.137)"></path><path d="m0 0-18.007 20.976 3.144 2.698L.576 5.689l1.638 1.407 2.568-2.991Z" clip-path="url(#m)" style="fill:#000;fill-opacity:1;fill-rule:nonzero;stroke:none" transform="matrix(1.33333 0 0 -1.33333 156.083 341.576)"></path><path d="m0 0-4.433 5.163Q-7.147 2.699-6.02 1.384-3.811-1.188 0 0m-6.158-10.482-2.567 2.991 4.153 3.566q-2.513.19-4.247 2.21-4.138 4.82 2.11 10.185l2.819 2.42 7.033-8.192 1.639 1.407 2.567-2.991Zm-3.004 22.041a2.6 2.6 0 0 0-.909-1.64 2.38 2.38 0 0 0-1.701-.6q-.959.036-1.596.78-.622.723-.562 1.734.186 1.055.834 1.61.782.67 1.757.632.976-.039 1.648-.819.571-.667.529-1.697" clip-path="url(#n)" style="fill:#000;fill-opacity:1;fill-rule:nonzero;stroke:none" transform="matrix(1.33333 0 0 -1.33333 170.008 322.694)"></path><path d="m0 0-2.568 2.991L-.72 4.577l-15.439 17.985 3.124 2.682L4.973 4.269Z" clip-path="url(#o)" style="fill:#000;fill-opacity:1;fill-rule:nonzero;stroke:none" transform="matrix(1.33333 0 0 -1.33333 179.147 321.776)"></path><path d="m0 0-18.007 20.976 3.144 2.699L3.143 2.699Z" clip-path="url(#p)" style="fill:#000;fill-opacity:1;fill-rule:nonzero;stroke:none" transform="matrix(1.33333 0 0 -1.33333 191.986 310.754)"></path><path d="M0 0q-.096-1.026-.801-1.63a2.4 2.4 0 0 0-1.746-.606 2.23 2.23 0 0 0-1.639.81q-.622.724-.519 1.722.103 1 .846 1.637a2.37 2.37 0 0 0 1.737.597A2.2 2.2 0 0 0-.51 1.731Q.095 1.026 0 0m-4.191-3.598q-.097-1.025-.82-1.647a2.38 2.38 0 0 0-1.727-.589 2.23 2.23 0 0 0-1.64.81q-.62.724-.518 1.722.102 1 .827 1.62.78.67 1.755.614a2.2 2.2 0 0 0 1.614-.8q.604-.704.509-1.73M-.6 10.587l-7.049 8.212-5.507-4.727q-1.047-.9-.226-2.048l1.243-1.448 2.228 1.913q2.42 2.078 4.301-.115l4.955-5.771L-12.657-3.7q-2.839-2.437-4.834-.113l-7.015 8.173 3.142 2.698 5.66-6.592q.751-.876 2.009.204l7.317 6.28-1.015 1.181q-.639.743-1.476.023l-3.829-3.287-4.695 5.468q-2.6 3.029.428 5.629l9.907 8.505 7.032-8.193 1.373 1.178 2.567-2.991z" clip-path="url(#q)" style="fill:#000;fill-opacity:1;fill-rule:nonzero;stroke:none" transform="matrix(1.33333 0 0 -1.33333 238.34 285.763)"></path><path d="M0 0q-2.077 2.42-3.717 1.014-.532-.459-1.15-1.32l-3.369-5.903 2.632-3.068 7.812 6.706zm-8.254-16.749-2.569 2.991 2.095 1.799-7.033 8.192 3.125 2.682 1.799-2.097L-6.9 3.375q.628.77 1.276 1.326 4.057 3.485 8.129-1.26l5.414-6.305ZM-11.07 5.455q-.164-1.002-.889-1.624-.761-.654-1.72-.617a2.14 2.14 0 0 0-1.597.781q-.621.723-.542 1.75.167 1.039.834 1.61a2.44 2.44 0 0 0 1.738.616q.977-.039 1.647-.82.573-.667.529-1.696" clip-path="url(#r)" style="fill:#000;fill-opacity:1;fill-rule:nonzero;stroke:none" transform="matrix(1.33333 0 0 -1.33333 253.88 244.736)"></path><path d="m0 0-18.007 20.976 3.144 2.699L.576 5.69l1.638 1.406 2.568-2.991Z" clip-path="url(#s)" style="fill:#000;fill-opacity:1;fill-rule:nonzero;stroke:none" transform="matrix(1.33333 0 0 -1.33333 270.622 243.246)" data-source="https://football-logos.cc"></path><path d="M0 0q-.097-1.025-.82-1.647a2.34 2.34 0 0 0-1.718-.581 2.2 2.2 0 0 0-1.613.8A2.23 2.23 0 0 0-4.704.313q.103.98.826 1.602.781.671 1.748.625.967-.048 1.637-.828Q.096 1.026 0 0m-4.181-3.59q-.087-1.017-.81-1.639a2.42 2.42 0 0 0-1.747-.605 2.2 2.2 0 0 0-1.623.791 2.2 2.2 0 0 0-.544 1.751q.112.987.856 1.625a2.4 2.4 0 0 0 1.718.6q.978-.039 1.647-.819.589-.687.503-1.704m-7.164 1.908-2.568 2.991 5.067 4.35-7.032 8.192 3.143 2.699 9.6-11.183z" clip-path="url(#t)" style="fill:#000;fill-opacity:1;fill-rule:nonzero;stroke:none" transform="matrix(1.33333 0 0 -1.33333 291.464 236.096)"></path><path d="M0 0q1.928-2.515 1.372-5.607l-3.924-3.369q.95 4.523-.572 6.294l-9.601 11.183 3.125 2.682 7.032-8.192 1.448 1.243 2.569-2.991Z" clip-path="url(#u)" style="fill:#000;fill-opacity:1;fill-rule:nonzero;stroke:none" transform="matrix(1.33333 0 0 -1.33333 298.65 219.184)"></path><path d="m0 0-2.568 2.991L-.72 4.578l-15.439 17.985 3.124 2.681L4.972 4.269Z" clip-path="url(#v)" style="fill:#000;fill-opacity:1;fill-rule:nonzero;stroke:none" transform="matrix(1.33333 0 0 -1.33333 299.87 218.137)"></path><path d="m0 0-18.007 20.976 3.144 2.698L3.143 2.699Z" clip-path="url(#w)" style="fill:#000;fill-opacity:1;fill-rule:nonzero;stroke:none" transform="matrix(1.33333 0 0 -1.33333 312.709 207.115)"></path><path d="M0 0q-.097-1.024-.8-1.63a2.42 2.42 0 0 0-1.747-.606 2.2 2.2 0 0 0-1.624.792A2.23 2.23 0 0 0-4.723.298q.102.979.865 1.634a2.4 2.4 0 0 0 1.718.6q.978-.04 1.647-.82Q.096 1.026 0 0m-11.841-2.107q-2.361-2.028-4.243.163l-5.887 6.857q-1.833 2.136.605 4.228l3.048 2.617 2.536-2.953-1.561-1.341q-.782-.671.052-1.642l2.763-3.22q.9-1.047 1.891-.197l7.792 6.689-7.033 8.192 3.143 2.699L.866 8.801z" clip-path="url(#x)" style="fill:#000;fill-opacity:1;fill-rule:nonzero;stroke:none" transform="matrix(1.33333 0 0 -1.33333 354.744 181.772)"></path><path d="M0 0q1.926-2.515 1.371-5.607l-3.924-3.369q.95 4.522-.571 6.294l-9.601 11.183 3.124 2.682 7.032-8.192 1.448 1.243 2.569-2.991z" clip-path="url(#y)" style="fill:#000;fill-opacity:1;fill-rule:nonzero;stroke:none" transform="matrix(1.33333 0 0 -1.33333 367.417 160.149)"></path><path d="m0 0-2.569 2.991L1.565 6.54q-3.67.19-5.535 2.363a5 5 0 0 0-.513.751q-2.194 3.443 2.273 7.875 4.84 4.154 9.282-.636l-3.143-2.699q-1.668 1.944-3.628.295-1.926-1.687-.847-2.945Q.68 10.116 5.851 10.22l6.135 5.266 2.569-2.991zm-4.758 20.537a2.6 2.6 0 0 0-.908-1.641 2.38 2.38 0 0 0-1.702-.6q-.958.037-1.596.78-.621.723-.563 1.734.187 1.055.835 1.61.781.67 1.757.632.978-.039 1.647-.82.573-.667.53-1.695" clip-path="url(#z)" style="fill:#000;fill-opacity:1;fill-rule:nonzero;stroke:none" transform="matrix(1.33333 0 0 -1.33333 368.637 159.102)"></path><path d="M0 0q-.949 1.105-2.168.059-1.238-1.064-.29-2.169L.993-6.13l2.458 2.11zm7.265-2.103 1.88-2.191L.401-11.8-1.48-9.61l-2.228-1.913-2.569 2.991 2.23 1.913-1.488 1.734q-3.584 4.173.799 7.935 4.363 3.744 7.879-.352L4.696.888l2.268 1.946L9.532-.157z" clip-path="url(#A)" style="fill:#000;fill-opacity:1;fill-rule:nonzero;stroke:none" transform="matrix(1.33333 0 0 -1.33333 392.25 127.71)"></path><path d="m0 0-2.568 2.991L-.72 4.577l-15.439 17.985 3.124 2.682L4.972 4.269Z" clip-path="url(#B)" style="fill:#000;fill-opacity:1;fill-rule:nonzero;stroke:none" transform="matrix(1.33333 0 0 -1.33333 404.3 128.486)"></path><path d="m0 0-18.008 20.976 3.145 2.698L3.143 2.698Z" clip-path="url(#C)" style="fill:#000;fill-opacity:1;fill-rule:nonzero;stroke:none" transform="matrix(1.33333 0 0 -1.33333 417.138 117.464)"></path><path d="M110.969 357.206h7.338v-16.268h-7.338zm0-26.841h7.338v-11.387h-7.338zm14.676 31.721h-22.014v-54.982l4.165-4.394h8.733l9.116 10.004zm-7.568 10.403h-6.678v-8.733h6.678zm28.767-71.406H57.972l16.307 17.081 11.998-13.229 9.953 9.975 5.771-6.086v54.889h8.153v9.761l4.223 5.693 4.746-5.693v-9.761h8.153v-49.209l4.077 4.473z" clip-path="url(#D)" style="fill:#040404;fill-opacity:1;fill-rule:evenodd;stroke:none" transform="matrix(1.33333 0 0 -1.33333 0 570.617)"></path><path d="m0 0 3.813-11.213h.046L7.466 0h5.048v-16.305H9.157V-4.75h-.046L5.115-16.305H2.352L-1.644-4.864h-.046v-11.441h-3.357V0Z" clip-path="url(#E)" style="fill:#000;fill-opacity:1;fill-rule:nonzero;stroke:none" transform="matrix(1.33333 0 0 -1.33333 113.324 180.036)"></path><path d="m0 0-2.055 5.983H-2.1L-4.224 0Zm-.205 10.003L5.892-6.303H2.17L.936-2.672H-5.16l-1.279-3.631h-3.608l6.166 16.306z" clip-path="url(#F)" style="fill:#000;fill-opacity:1;fill-rule:nonzero;stroke:none" transform="matrix(1.33333 0 0 -1.33333 145.323 193.373)"></path><path d="M0 0q.297-.571.788-.925a3.4 3.4 0 0 1 1.154-.525 5.4 5.4 0 0 1 1.369-.172q.48 0 1.028.081.548.079 1.028.308.479.227.799.627t.32 1.017q0 .663-.423 1.073-.422.41-1.107.685-.686.274-1.553.48t-1.759.456a16 16 0 0 0-1.781.56 6.1 6.1 0 0 0-1.553.856q-.684.525-1.107 1.313-.423.789-.423 1.907 0 1.255.537 2.181a4.9 4.9 0 0 0 1.405 1.542 6.1 6.1 0 0 0 1.963.913 8.4 8.4 0 0 0 2.193.297q1.279 0 2.455-.286a6.1 6.1 0 0 0 2.089-.924 4.7 4.7 0 0 0 1.451-1.633q.536-.995.536-2.409H5.937q-.045.73-.308 1.21a2 2 0 0 1-.696.754 3 3 0 0 1-.993.387 6 6 0 0 1-1.222.115q-.435 0-.868-.091a2.3 2.3 0 0 1-.787-.32 2 2 0 0 1-.583-.571q-.23-.342-.229-.868 0-.48.183-.776t.72-.548 1.484-.503a220 220 0 0 1 2.477-.639q.457-.091 1.269-.331a6.1 6.1 0 0 0 1.609-.765 4.9 4.9 0 0 0 1.382-1.405q.582-.88.582-2.249a5 5 0 0 0-.433-2.078 4.54 4.54 0 0 0-1.291-1.656q-.857-.696-2.124-1.085-1.267-.388-2.934-.388-1.348 0-2.615.331a6.6 6.6 0 0 0-2.238 1.04A5.1 5.1 0 0 0-3.22-1.211q-.57 1.097-.547 2.604h3.471Q-.296.571 0 0" clip-path="url(#G)" style="fill:#000;fill-opacity:1;fill-rule:nonzero;stroke:none" transform="matrix(1.33333 0 0 -1.33333 158.72 196.417)"></path><path d="M0 0v7.828h-3.035v1.845q.636-.017 1.234.095.594.112 1.068.397.475.284.802.749.327.466.431 1.156h1.949V0Z" clip-path="url(#H)" style="fill:#000;fill-opacity:1;fill-rule:nonzero;stroke:none" transform="matrix(1.33333 0 0 -1.33333 118.869 224.19)"></path><path d="M0 0q.363.181.604.491t.362.716q.12.406.12.853 0 .414-.128.819a2.3 2.3 0 0 1-.38.724 1.9 1.9 0 0 1-.613.509q-.361.19-.826.19-.432 0-.776-.19a1.9 1.9 0 0 1-.587-.5 2.1 2.1 0 0 1-.362-.707 2.8 2.8 0 0 1-.121-.81q0-.432.112-.837t.337-.724q.223-.32.577-.517.353-.198.82-.198.499 0 .861.181m-2.069-3.94a1.43 1.43 0 0 1 1.07-.449q.672 0 1.103.389.43.387.69.948.258.56.371 1.198.11.639.146 1.138l-.034.035Q.775-1.405.104-1.716q-.672-.31-1.552-.31-.776 0-1.517.336a3.8 3.8 0 0 0-1.259.905A3.5 3.5 0 0 0-4.931.474a4.7 4.7 0 0 0-.225 1.431q0 .932.303 1.733.3.802.862 1.397.56.595 1.336.939.776.345 1.725.345 1.379 0 2.266-.543a4.2 4.2 0 0 0 1.423-1.431 6 6 0 0 0 .742-2.009q.207-1.12.207-2.259 0-1.12-.259-2.241a6.5 6.5 0 0 0-.828-2.026 4.6 4.6 0 0 0-1.466-1.466q-.897-.56-2.189-.56-.777 0-1.448.216a3.44 3.44 0 0 0-2.035 1.697 4.2 4.2 0 0 0-.432 1.415h2.329q.12-.605.551-1.052" clip-path="url(#I)" style="fill:#000;fill-opacity:1;fill-rule:nonzero;stroke:none" transform="matrix(1.33333 0 0 -1.33333 133.261 216.201)"></path><path d="m0 0-3.121-4.19H.051V0Zm-5.052-6.207v2.241L.189 3.069H2.38V-4.19h1.602v-2.017H2.38v-2.794H.051v2.794z" clip-path="url(#J)" style="fill:#000;fill-opacity:1;fill-rule:nonzero;stroke:none" transform="matrix(1.33333 0 0 -1.33333 145.791 212.19)"></path><path d="M0 0a1.7 1.7 0 0 1-.612-.491 2.2 2.2 0 0 1-.362-.716 3 3 0 0 1-.121-.854q0-.414.13-.819.128-.405.38-.724.249-.32.611-.509.363-.189.828-.189.449 0 .784.189.336.19.578.501.241.31.362.706.12.397.121.811 0 .43-.112.836t-.337.724A1.65 1.65 0 0 1 .854.181Q.371.181 0 0m2.061 3.94a1.42 1.42 0 0 1-1.069.448Q.336 4.388-.104 4a2.9 2.9 0 0 1-.698-.948 5 5 0 0 1-.378-1.199A7.3 7.3 0 0 1-1.318.715l.034-.034q.5.725 1.172 1.034.673.31 1.552.311.775 0 1.518-.336A3.8 3.8 0 0 0 4.216.784q.483-.552.708-1.258a4.8 4.8 0 0 0 .223-1.432 4.9 4.9 0 0 0-.302-1.733q-.301-.802-.861-1.396a4 4 0 0 0-1.337-.931 4.3 4.3 0 0 0-1.724-.337q-1.363 0-2.259.544a4.2 4.2 0 0 0-1.432 1.422 5.9 5.9 0 0 0-.741 1.992 12.4 12.4 0 0 0-.207 2.267q0 1.121.259 2.242t.827 2.026q.57.905 1.466 1.474.897.569 2.191.569.774 0 1.448-.224.672-.224 1.19-.647a3.3 3.3 0 0 0 .845-1.043q.326-.621.43-1.431H2.613a2.1 2.1 0 0 1-.552 1.052" clip-path="url(#K)" style="fill:#000;fill-opacity:1;fill-rule:nonzero;stroke:none" transform="matrix(1.33333 0 0 -1.33333 156.906 216.086)" data-source="https://football-logos.cc"></path><!-- source: https://football-logos.cc --></svg>