<svg xmlns="http://www.w3.org/2000/svg" xml:space="preserve" viewBox="341.97 321.11 4856.47 5027.08"><!-- Source: https://football-logos.cc --><path d="m14809.5 9029.63-1.7 8.16-2.3 8.01c-291.7 1034.2-250.4 1929.2 122.8 2660.1 144.5 283 312.9 483.2 428.7 601.3 121.4 123.7 212.3 186.1 220.4 191.5l266.2 167.9-3651.7 3633.4-178.7-187.2c-580.5-608.3-1181.9-916.7-1787.4-916.7-385.8 0-768.8 122.4-1138.47 364-280.11 183-447.82 370-454.65 377.7l-189.93 220.7-192.21-220.9c-1.59-1.8-165.36-186.3-442.05-369.3-256.67-169.8-664.7-372.2-1150.84-372.2-605.57 0-1206.95 308.4-1787.49 916.7l-178.64 187.2-3649.29-3631 264.35-170.6c3.52-2.3 360.07-242.2 635.32-767 380.08-724.8 427.1-1653.5 135.97-2685.6l-2.26-8.01-1.73-8.16c-68.14-320.87-192.7-680.51-324.58-1061.32-424.6-1226.01-953.021-2751.88-90.11-4373.09l3.26-6.13 3.6-5.94c404.34-668.55 960.83-1206.18 1609.31-1554.72 243.02-130.65 504.03-238.58 775.76-320.87 263.82-79.89 539.38-136.09 819-167.02 128.9-14.3 264.18-20.92 425.71-20.92 127.6 0 255.44 4.22 379.06 8.28 119.03 3.95 242.12 8.01 360.65 8.05 18.78 0 37.67-.12 56.49-.37 288.52-3.29 553.96-15.27 811.6-36.65 349.19-28.93 610.57-67.29 847.52-124.39 187.74-45.19 397.59-102.97 511.37-216.71l179.21-179.172 179.17 179.172c122.15 122.15 345.61 180.1 564 228.94 259.22 57.99 544.08 95.62 923.5 122 126.5 8.73 266.2 13 427.3 13 136.3 0 276.3-2.97 411.8-5.81 137.9-2.93 280.6-5.93 422-5.93 258.7 0 469.8 10.44 664.5 32.87 284.3 32.71 564.3 91.64 831.9 175.02 275.8 85.95 540.2 198.43 785.8 334.28 676.7 374.43 1249.9 936.8 1572.5 1543.02 862.9 1621.21 334.5 3147.08-90.1 4373.09-131.9 380.81-256.5 740.45-324.6 1061.32" style="fill:#fff;fill-opacity:1;fill-rule:nonzero;stroke:none" transform="matrix(.3281 0 0 -.3281 0 5669.293)" data-source="https://football-logos.cc"></path><path d="M10058 15129.8c-244.12-193.5-380.39-341-403.63-431.3 163.78 123.7 294.42 268 403.63 431.3m1935.8-5996.35c-38.6 13.1-76.7 28.4-116 38.95-160.7 43.15-323 80.43-482.2 128.03-231.6 69.18-459 153.83-650 305.75-119.2 94.78-251.5 157.14-389.2 213.51-72.9 29.82-146.6 57.5-220 86.13 533.3-465.55 1150.7-726.49 1857.4-772.37m2628.7 1025.45c-262.2-92.1-503-184.79-749-260.49-222.3-68.46-453-103.91-686.6-82.33-81.2 7.53-140.5-7.29-202.6-60.58-225.8-193.89-450.6-389.68-709-540.9-15.3-8.95-33-13.93-41.2-17.36 36.6-94.97 97-102.79 159.7-98.46 157 10.73 315.7 13.16 470.3 39.42 506.8 86 977.4 267.33 1400.5 563.59 150.2 105.16 296.1 215.59 427.8 354.51-26.6 39.1-50.6 74.3-69.9 102.6m336.1 4580.9c-600.6 791.2-1705.9 1244.3-2399.8 1226.7 51-56.7 97-108.4 143.7-159.4 135.7-148.2 281.9-286.6 390.4-459.1 26.9-42.7 85.5-77 136.2-91.1 216.3-60.2 422.1-146.3 621-247.5 221.9-112.8 438.7-235.9 660.6-356.1 142.2 27.4 286.9 55.4 447.9 86.5m459.3-2882.7c58.2 29.3 102.6 58.5 151.2 74.8 138.9 46.3 187.5 151.8 186.1 284.2-2.5 244.9-.4 490.6-20.9 734.2-34.8 414.9-162.7 805.4-356.4 1173.1-79.1 150.2-172.1 293.2-260.6 442.4-171.8-18.1-328.7-40.6-482.2-93 3.7-41.2 4.2-71.9 9.5-101.8 49.5-277.6 56.3-555.2 28.7-836.6-17-173.1-3.2-349.2-3.2-535.7 283.8-342 559-704.2 747.8-1141.6m-4884-971.5c-382 438.3-705.32 960.9-971.29 1515.3-198.75 21.5-384.41 41.6-575.22 62.3-56.6-162-86.3-315.3-67.51-472.9 68.17-571 310.07-1070.4 643.74-1530 67.81-93.4 157.55-163.3 263.18-211.7 47.72-21.9 94.37-46.2 142.62-66.8 171.98-73.4 344.38-145.7 522.48-220.97 13.7 300.67 26.7 587.47 42 924.77m1479.4 3453.1c316.9 315.2 613.4 610.1 913.3 908.4-14.8 25.6-27.3 53.7-45.3 77.7-142 189.9-303.5 362-474.7 525.9-78.3 75-166.6 101.5-272.1 107.8-399.4 24-772.2-81.4-1137.5-224.9-47.7-18.7-92.9-51-130.9-85.9-177.3-163-357.5-323.6-525.2-496.1-121.2-124.7-224.4-266.9-336.6-402.6 123.6-207.4 211.6-417.6 355.4-606.1 550.9 135.8 1106 198.4 1653.6 195.8m1131.4-1652.6c-164.2-607.1-505.4-1120.1-804.5-1662.2 140.3-197.5 274-392 414.7-581.3 86.1-115.8 180.9-225.3 275.9-334.1 58.6-67.1 127.4-121.65 226.3-111.75 113.2 11.35 228 13.75 339.4 34.55 337.7 62.8 657.5 179.4 963.1 336.5 68.6 35.3 121.7 81 164.6 144.8 142.7 211.8 253.8 439.7 347.7 676 70.9 178.4 152.3 353.8 186.8 561.9-175.7 418.4-449.2 784.2-757.2 1141.9-447.3-68.1-891.3-135.6-1356.8-206.3m-169.1 58.6c-322.8 466.7-646.1 934.1-967 1398-42.7 2.2-73 5.6-103.2 5-447.5-9.6-890.3-53.7-1328.5-151.3-145.6-32.5-239.7-102.4-314.5-228.8-225.2-381-364.76-794-480.05-1217.5-19.45-71.5-13.04-136.1 21.04-202.6 156.02-304.3 320.81-603.5 519.01-882.5 108.6-152.9 226.6-299 334-439.7 505.9-29.5 989.5 19.1 1485.4 57.2 351.8 510.4 635.6 1059.3 833.8 1662.2m-663 3540.2c1802.8 15.1 3656.6-1371.4 3740-3612.9 75.4-2024.2-1476.1-3784.31-3578.8-3862.31-2371.3-87.91-3903.47 1826.71-3901.58 3712.91 2.14 2147.5 1720.88 3759.1 3740.38 3762.3" style="fill:#231f20;fill-opacity:1;fill-rule:nonzero;stroke:none" transform="matrix(.22494 0 0 -.22494 0 5669.293)"></path><path d="M10668.5 8520.2s1395-196.5 2410 1190c760 890 1830 720 1830 720s580 580 1120 580c-1186.4-572.8-623.4-1343.3-623.4-1343.3s-2396.6-1876.7-4736.6-1146.7M10373.8 12562.5s1019.7-971.9 2652.2-435.6c1136.1 281.1 1907.1-480 1907.1-480s809.2 133.9 1248.2-180.5c-1298 225-1288.8-729.3-1288.8-729.3s-3041.2-130.5-4518.7 1825.4M8719.65 14984.1s890.55-1091.6 2577.15-763.1c1162.3 137.2 1832.3-714.2 1832.3-714.2s819.6 31.9 1216-334.8c-1259.8 385.2-1369.8-562.8-1369.8-562.8s-3033.69 249.9-4255.65 2374.9" style="fill:#2b9a48;fill-opacity:1;fill-rule:nonzero;stroke:none" transform="matrix(.13333 0 0 -.13333 0 5669.293)"></path><path d="M7062.4 16300s505.08-1157.8 2040.88-1282c1036.72-162.5 1409.52-1059.6 1409.52-1059.6s715.4-170.7 969.1-583.2c-994.7 637.2-1319-154.7-1319-154.7s-2559.1 949.2-3100.5 3079.5" style="fill:#2b9a48;fill-opacity:1;fill-rule:nonzero;stroke:none" transform="matrix(.1487 0 0 -.1487 0 5669.293)"></path><path d="M5923.42 16300s68.83-1055 1242.67-1588.8c770.03-422.3 808.68-1234.5 808.68-1234.5s514.81-337.5 597.36-734.2c-602.17 784.1-1082.27 252.7-1082.27 252.7s-1745.14 1474-1566.44 3304.8" style="fill:#2b9a48;fill-opacity:1;fill-rule:nonzero;stroke:none" transform="matrix(.17767 0 0 -.17767 0 5669.293)"></path><path d="M5603.63 16300s-111.95-932.1 825.66-1589.5c603.3-494.2 504.6-1209.5 504.6-1209.5s394.32-378.5 401.72-738.3c-397.78 782.6-903.54 397-903.54 397S5149.09 14731 5603.63 16300" style="fill:#2b9a48;fill-opacity:1;fill-rule:nonzero;stroke:none" transform="matrix(.20008 0 0 -.20008 0 5669.293)"></path><path d="M5513.89 16300s-329.73-760.1 297.54-1552.6c385.64-570.2 121.85-1150.3 121.85-1150.3s238.03-419.6 153.57-725.7c-139.1 762.3-664.11 563.6-664.11 563.6s-688.93 1652.5 91.15 2865" style="fill:#2b9a48;fill-opacity:1;fill-rule:nonzero;stroke:none" transform="matrix(.2267 0 0 -.2267 0 5669.293)"></path><path d="M5915.59 16300s-433.37-608.4-28.95-1424.9c233.1-575.1-108.38-1037.1-108.38-1037.1s131.18-414.7-.8-668.8c20.42 698.2-479.8 621.6-479.8 621.6s-297.44 1586.5 617.93 2509.2" style="fill:#2b9a48;fill-opacity:1;fill-rule:nonzero;stroke:none" transform="matrix(.25145 0 0 -.25145 0 5669.293)"></path><path d="M6579.55 16300s-501.21-488.3-264.98-1308.4c118.66-569.1-273.33-937.8-273.33-937.8s51.55-404.1-112.55-616.2c135.54 640.1-338.3 653.1-338.3 653.1s-8.84 1511.9 989.16 2209.3" style="fill:#2b9a48;fill-opacity:1;fill-rule:nonzero;stroke:none" transform="matrix(.26844 0 0 -.26844 0 5669.293)"></path><path d="M16300 4481.58s-733.8-103.36-1267.6 625.94c-399.8 468.13-962.6 378.71-962.6 378.71s-305.1 305.08-589.1 305.08c624-301.29 327.8-706.57 327.8-706.57s1260.7-987.13 2491.5-603.16" style="fill:#2b9a48;fill-opacity:1;fill-rule:nonzero;stroke:none" transform="matrix(.25349 0 0 -.25349 0 5669.293)"></path><path d="M16300 6545.56s-531.4-506.39-1382-226.96c-591.9 146.46-993.6-250.1-993.6-250.1s-421.6 69.77-650.4-94.05c676.3 117.24 671.6-379.99 671.6-379.99s1584.6-68 2354.4 951.1" style="fill:#2b9a48;fill-opacity:1;fill-rule:nonzero;stroke:none" transform="matrix(.2559 0 0 -.2559 0 5669.293)"></path><path d="M16300 7415.24s-440.7-540.21-1275.4-377.64c-575.2 67.9-906.7-353.44-906.7-353.44s-405.6 15.79-601.8-165.68c623.4 190.62 677.9-278.52 677.9-278.52s1501.3 123.67 2106 1175.28" style="fill:#2b9a48;fill-opacity:1;fill-rule:nonzero;stroke:none" transform="matrix(.26943 0 0 -.26943 0 5669.293)"></path><path d="M16300 8771.07s-271.7-623.02-1098.2-689.85c-557.9-87.43-758.4-570.19-758.4-570.19s-385-91.82-521.5-313.78c535.3 342.88 709.7-83.28 709.7-83.28s1377.1 510.79 1668.4 1657.1" style="fill:#2b9a48;fill-opacity:1;fill-rule:nonzero;stroke:none" transform="matrix(.27633 0 0 -.27633 0 5669.293)"></path><path d="M16185.8 10412.2s-43.9-673.92-793.8-1014.9c-491.9-269.8-516.6-788.58-516.6-788.58s-328.8-215.58-381.5-469.02c384.6 500.85 691.3 161.4 691.3 161.4s1114.8 941.6 1000.6 2111.1" style="fill:#2b9a48;fill-opacity:1;fill-rule:nonzero;stroke:none" transform="matrix(.27814 0 0 -.27814 0 5669.293)"></path><path d="M15972.3 11750s80.7-671.9-595.1-1145.8c-435-356.3-363.8-871.89-363.8-871.89s-284.3-272.86-289.6-532.22c286.8 564.16 651.4 286.21 651.4 286.21s924.8 1132.7 597.1 2263.7" style="fill:#2b9a48;fill-opacity:1;fill-rule:nonzero;stroke:none" transform="matrix(.27755 0 0 -.27755 0 5669.293)"></path><path d="M15656.8 13440.6s271.8-626.8-245.4-1280.3c-318-470.2-100.4-948.5-100.4-948.5s-196.4-346-126.7-598.4c114.7 628.6 547.6 464.8 547.6 464.8s568.1 1362.6-75.1 2362.4" style="fill:#2b9a48;fill-opacity:1;fill-rule:nonzero;stroke:none" transform="matrix(.27492 0 0 -.27492 0 5669.293)"></path><path d="M15426.9 15547.9s413.3-580.3 27.6-1359.1c-222.4-548.6 103.4-989.3 103.4-989.3s-125.2-395.6.7-637.9c-19.4 666 457.7 592.9 457.7 592.9s283.7 1513.2-589.4 2393.4" style="fill:#2b9a48;fill-opacity:1;fill-rule:nonzero;stroke:none" transform="matrix(.26362 0 0 -.26362 0 5669.293)"></path><path d="M14111.4 16300s501.2-488.3 265-1308.4c-118.7-569.1 273.3-937.8 273.3-937.8s-51.6-404.1 112.6-616.2c-135.6 640.1 338.2 653.1 338.2 653.1s8.9 1511.9-989.1 2209.3" style="fill:#2b9a48;fill-opacity:1;fill-rule:nonzero;stroke:none" transform="matrix(.26844 0 0 -.26844 0 5669.293)"></path><path d="M15134.1 5948.94c36.8-341.55 30.2-655.94-20.1-961.14-27.3-165.13-68.2-329.39-121.7-488.13-56.8-168.67-129.7-337.1-216.8-500.66-65.8-123.63-146.5-247.3-239.8-367.55-91.5-117.9-195.7-233.17-309.6-342.62-220.7-212.07-478.6-402.29-745.7-550.11-204.5-113.16-425.4-207.08-656.5-279.08-226.7-70.63-464.3-120.58-706.2-148.43-168-19.37-354.8-28.4-587.8-28.4-135.5 0-269.9 2.85-412.2 5.86-141.2 2.96-287.3 6.05-433.5 6.05-183.6 0-337.8-4.78-485.2-15-424.18-29.46-747.59-72.65-1048.63-140.03-190.88-42.69-397.68-95.32-590.29-189.52-36.8 17.88-75.17 34.82-115.27 50.85-139.28 55.68-278.57 92.27-408.34 123.55-279.16 67.25-579.37 111.8-973.38 144.44-278.87 23.12-565.57 36.1-876.45 39.72-21.43.25-43.64.38-65.98.38-132.78 0-264.07-4.37-391-8.54-124.62-4.12-242.27-8.03-359.14-8.03-135.54 0-246.44 5.31-349.01 16.65-237.91 26.33-471.9 74.01-695.46 141.72-227.86 68.98-446.11 159.15-648.7 268.07-535.57 287.85-997.86 734.4-1337.67 1291.97-84.28 159.81-155.08 324.16-210.46 488.71-53.49 158.74-94.42 323-121.65 488.13-50.4 305.2-57 619.59-20.19 961.14 31.27 289.99 94.7 601.71 194.01 952.94 90.29 319.46 198.26 631.29 302.73 932.87 139.53 402.95 271.45 783.89 350.69 1150.04 433.78 1552.21 131.09 2629.71-199.99 3261.01-85.18 162.5-183.59 317.8-292.43 461.5-51.84 68.5-106.15 134.6-162.44 197.6l2581.11 2568.2c630.68-540.8 1298.4-814.2 1990.48-814.2 538.12 0 1085.06 173.6 1581.72 502.2 83.99 55.5 159.98 111.1 227.52 164.1 67.5-53 143.49-108.6 227.44-164.1 496.62-328.6 1043.6-502.2 1581.78-502.2 692.1 0 1359.8 273.4 1990.5 814.2l2581.1-2568.2c-56.3-63-110.7-129.1-162.5-197.6-108.8-143.7-207.2-299-292.4-461.5-331.1-631.3-633.8-1708.8-200-3261.01 79.2-366.15 211.1-747.09 350.7-1150.04 104.5-301.58 212.5-613.41 302.8-932.87 99.2-351.23 162.7-662.95 193.9-952.94m523 6941.56-3288.5 3272.1c-727.3-762-1414.1-1009.2-1998.6-1009.2-1078.2 0-1809.22 840.2-1809.22 840.2s-731.19-840.2-1809.24-840.2c-584.6 0-1271.2 247-1998.6 1009.2l-3288.56-3272.1s1656.64-1069.4 890.13-3786.9C2057.8 7706.33 821.503 5810.68 1909.44 3766.67c373.98-618.36 895.5-1140.2 1533.8-1483.27 471.15-253.28 992.88-406.95 1523.87-465.71 133.98-14.84 268.57-19.66 403.41-19.66 249.89 0 500.74 16.53 750.14 16.57 20.11 0 40.18-.13 60.25-.37 280.72-3.22 561.52-14.84 841.3-38.04 301.41-24.97 604.05-61.48 898.41-132.41 219.78-52.91 475.24-123.01 640.16-287.89 178.07 178.07 460.15 248.12 697.56 301.24 320.04 71.59 648.19 106.57 974.86 129.28 150 10.38 300.5 13.81 451 13.81 281.9 0 564.2-11.91 845.7-11.91 215.5 0 430.5 7 644.4 31.64 539.8 62.15 1069.4 222.66 1545.5 486.08 598 330.87 1168.4 852.13 1492.3 1460.64 1087.9 2044.01-148.4 3939.66-445.1 5336.93-766.5 2717.5 890.1 3786.9 890.1 3786.9" style="fill:#2b9a48;fill-opacity:1;fill-rule:nonzero;stroke:none" transform="matrix(.32355 0 0 -.32355 0 5669.293)"></path><path d="M14068.7 7997.41c0-546.61 332.8-1036.33 917.3-1036.33 588.7 0 921.5 482.11 921.5 1062.93 0 508.63-298.6 1040.01-917.3 1040.01-614.4 0-921.5-504.87-921.5-1066.61m2231.3 41.74c0-880.64-601.6-1347.52-1335.4-1347.52-759.4 0-1292.7 523.85-1292.7 1298.17 0 812.37 567.4 1343.75 1335.4 1343.75 785 0 1292.7-535.22 1292.7-1294.4" style="fill:#231f20;fill-opacity:1;fill-rule:nonzero;stroke:none" transform="matrix(.1664 0 0 -.1664 0 5669.293)"></path><path d="M15865.1 6671.98c0 135.22 91.4 230.24 219.3 230.24s215.6-95.02 215.6-230.24c0-131.51-84.1-230.16-219.3-230.16-127.9 0-215.6 98.65-215.6 230.16" style="fill:#231f20;fill-opacity:1;fill-rule:nonzero;stroke:none" transform="matrix(.17286 0 0 -.17286 0 5669.293)"></path><path d="M14726 5791.15c74.4-12.6 182.4-15.72 297.3-15.72 628.2 0 969.3 326.81 969.3 898.73 3.4 499.67-300.6 817.07-922.1 817.07-151.9 0-266.7-12.6-344.5-28.32zm-293.8 1872.94c179 25.14 391.8 43.98 624.9 43.98 422.1 0 722.7-91.14 922-264 202.7-172.8 320.9-417.96 320.9-760.49 0-345.66-114.9-628.5-327.6-823.31-212.8-197.94-564.1-304.8-1006.5-304.8-209.4 0-385.1 9.42-533.7 25.14z" style="fill:#231f20;fill-opacity:1;fill-rule:nonzero;stroke:none" transform="matrix(.20101 0 0 -.20101 0 5669.293)"></path><path d="M6408.09 16095.6c29.37-22.6 53.69-47.1 72.4-72.9 18.71-25.7 33.79-54.8 44.98-86.6-30.94-18.2-66.97-27.5-107.19-27.5-20.85 0-37.7 6.1-51.46 18.5-13.52 12.1-20.04 27.7-20.04 47.8 0 37.7 20.61 78.3 61.31 120.7m86.72 131.2c-39.88 33-83.63 57.2-129.99 72l-3.9 1.2-3.62-2c-13.14-7.2-23.61-19.4-31.08-36.1-7.19-16.1-10.81-33.4-10.81-51.5 0-13.1 2.1-26.3 6.33-39.1 3.53-10.8 10.28-20.2 20.14-28.1-34.85-36-60.79-70.7-77.16-103.2-17.8-35.5-26.85-71-26.85-105.6 0-49.4 15.81-90.7 47.03-122.9 31.27-32.4 71.59-48.8 119.91-48.8 25.03 0 49.31 3.3 72.16 9.8 22.99 6.5 42.79 15.2 58.54 25.8 10.81 6.7 23.37 22.4 38.42 47.8 14.32 24.3 26.56 51.5 36.36 80.9 10 30 14.85 52 14.85 67.3 0 37.4-11.85 77.8-35.27 120-23.18 41.8-55.17 79.6-95.06 112.5" style="fill:#231f20;fill-opacity:1;fill-rule:nonzero;stroke:none" transform="matrix(.28011 0 0 -.28011 0 5669.293)"></path><path d="m6202.4 16099.4 5.86 5.4c28.34 26.5 52.73 54.5 72.52 83.2 20.46-21.2 45.41-43.5 74.45-66.3l6.33-5 5.91 5.5c27.73 26.2 52.3 54.7 73.04 84.9l4.5 6.5-5.72 5.5c-34.81 33.7-59.62 58.4-73.79 73.3l-7.22 7.6-6.76-8.1c-23.55-28.1-49.96-55.6-78.47-81.9l-.57-.5c-29.74 28-51.5 49.9-64.68 65.2l-6.76 7.8-44.66-46.7-48.31-49 5.67-6.6c20.36-23.5 48.04-49 82.33-75.9z" style="fill:#231f20;fill-opacity:1;fill-rule:nonzero;stroke:none" transform="matrix(.28424 0 0 -.28424 0 5669.293)"></path><path d="m7768.32 16291.8-7.6 8.2-7.21-8.6c-29.18-34.8-57.12-63.7-82.93-86l-1.09-.9c-35.15 33.9-57.95 56.8-67.87 68.2l-7.11 8.1-46.9-49.1-50.94-50.9 5.92-6.9c16.93-19.8 46.06-46.9 86.49-80.4l6.71-5.5 6.32 5.9c29.91 27.9 55.63 57.4 76.46 87.7 20.14-21.3 46.6-44.8 78.84-70l6.81-5.3 6.17 6c33.67 32.9 59.34 63 76.32 89.5l4.29 6.7-5.63 5.6c-57.65 57.6-73.75 74.1-77.05 77.7" style="fill:#231f20;fill-opacity:1;fill-rule:nonzero;stroke:none" transform="matrix(.2701 0 0 -.2701 0 5669.293)"></path><path d="m8374.26 16300-11.22-5.5c-31.19-15.4-58.21-35.7-80.37-60.2-23.26-25.9-34.53-49.1-34.53-71 0-13.9 4.44-31.5 13.66-53.7 8.69-20.9 23.87-51.8 45.03-91.3l24.74-50.3c-36.82 4.4-71.87 10-104.4 16.7-34.09 7.1-65.52 17.6-93.45 31.4 24.59 77.6 38.3 120.4 40.73 127.3 2.49 7 5.07 13.6 7.69 19.6l3.15 7.2-6.44 4.5c-14.52 10.1-30.61 15.3-48.09 15.3h-.05c-16.29-.5-30.52-4.7-42.41-12.5-11.94-7.9-20.58-18-25.79-30.2l-15.33-40.8c-21.91-59.9-38.25-99.5-48.61-117.8-19.49-5.8-33.62-9.1-42.07-10-9.22-1-21.92-1.4-37.63-1.4-17.39 0-34.91.7-52.39 2.2l28.32 70.2 27.41 71.2-6.07 4.3c-13.8 9.7-28.13 14.7-42.64 14.7-12.9 0-24.69-3.5-35.06-10.4-10.12-6.8-17.95-15.2-23.35-25.1l-18.77-32.9c-15.61-26.6-29.08-45.6-40.02-56.3-10.26-10.1-24.06-17.3-40.92-21.4-16.43-4-40.78-6.1-72.35-6.5-40.45.4-78.22 9.1-112.37 26 13.18 29.1 29.75 68 49.38 115.8l2.53 6.1-4.82 4.5c-13.95 13-32.24 19.6-54.25 19.6-15.19 0-28.42-3.5-39.35-10.6-11.18-7.2-22.93-23.9-37.01-52.5-16.19-33.1-28.04-55.1-35.15-65.2-6.54-9.3-16.24-17.2-28.89-23.5-13.18-6.6-30.95-11.7-52.87-15-21.2-3.3-61.65-5-120.25-5.2-28.75.1-56.16 6.4-81.56 18.6-6.07 31-25.41 93.5-59.08 190.7-10.84 30.6-20.06 61.4-27.41 91.6l-2.82 11.6-10.74-5.4c-30.95-15.4-56.5-35.4-75.89-59.3-20-24.7-30.13-50-30.13-75.3 0-20.9 6.45-45.7 19.1-73.5 12.32-27 36.92-68.8 73.17-124.3 14.27-22.4 27.36-45.6 38.96-69.2-18.19-51.8-46.75-92.2-84.91-120.1-38.96-28.5-87.63-42.9-144.6-42.9-37.54 0-77.98 5.4-120.2 16.2l-8.21 2.1-24.98-64.4 5.21-4.3c35.24-29.7 68.67-54 99.42-72.3 32.24-19.1 55.49-28.4 71.16-28.4 71.77 0 134.52 26 186.43 77.3 48.86 48.3 80.95 111.4 95.37 187.6 22.16-9.8 44.08-15.7 65.57-17.7 1.91-.5 3.92-.9 6.16-.9 2.58 0 5.11.1 7.64.1 1.01 0 2.01-.1 2.96-.1.58 0 1.1.1 1.63.1 29.65.4 58.59 1.8 86.2 4.4 31.52 2.9 59.69 7.3 83.71 12.8 25.03 5.8 42.69 12 54.06 18.8 10.32 6.3 22.16 19.9 36.1 41.4 49.62-46.8 102.34-72.6 157.02-76.8 1.72-.4 3.54-.7 5.54-.7 1.72 0 3.49.1 5.26.1 1.76 0 3.53-.1 5.35-.1 1.57 0 3.05.2 4.48.4 20.83.9 41.93 3.5 62.9 8.1 24.02 5.1 44.46 11.3 60.89 18.2 51.67-24.7 98.52-37.3 139.25-37.3 35.05 0 68.44 3.3 99.19 9.9 33.62 7.2 52.72 15.9 60.31 27.5 3.68 5.9 7.55 13.1 11.47 21.5 40.16-17.3 84.67-31.4 132.47-41.9 51.29-11.3 102.05-17 150.86-17h5.87l2.63 5.3c11.17 22.3 22.68 52.1 34.19 88.6 11.8 37.4 17.53 65.9 17.53 87.1 0 20.8-6.26 63.1-19.06 129.1z" style="fill:#231f20;fill-opacity:1;fill-rule:nonzero;stroke:none" transform="matrix(.2792 0 0 -.2792 0 5669.293)"></path><path d="m7881.94 16103.7 6.29-4.7 5.77 5.3c25.69 23.3 50.67 51.7 74.28 84.4l1.66 2.3c21.19-22.4 47.5-46 78.2-70.2l6.43-5.1 5.92 5.7c28.01 26.3 52.8 55.1 73.71 85.5l4.54 6.6-5.77 5.6c-39.79 38.3-64.82 62.9-74.33 73.2l-7.19 7.7-6.9-7.9c-28.77-33.1-55.45-60.7-79.2-82.1l-3.93-3.6c-31.65 29.7-54.17 52.6-67.08 68l-6.77 8-45.7-47.1-48.73-48.7 5.53-6.6c20.21-24.3 48.26-49.9 83.27-76.3" style="fill:#231f20;fill-opacity:1;fill-rule:nonzero;stroke:none" transform="matrix(.28183 0 0 -.28183 0 5669.293)"></path><path d="m7922.62 16144.1 5.93-4.8 5.93 4.8c10.55 8.5 32.16 30.6 66.05 67.7l6.55 7.2-7.3 6.3c-27.82 24-50.52 46.3-67.56 66.4l-7.06 8.3-7.2-8.2c-12.9-14.8-35.69-37-67.75-66.1l-6.68-6 5.74-6.9c15.44-18.6 40.11-41.7 73.35-68.7" style="fill:#231f20;fill-opacity:1;fill-rule:nonzero;stroke:none" transform="matrix(.28322 0 0 -.28322 0 5669.293)"></path><path d="m9074.26 16284.5-.33 15.5-159.51-88.6 1.21-6.6c41.31-226.8 65.74-364.6 72.61-409.6 6.45-42.6 12.71-86.3 18.55-130.2-41.58-14.8-78.49-22.6-109.94-23.2-26.96.6-48.45 5.8-63.87 15.7-16.49 10.5-31.86 30.2-45.65 58.5-36.02 72-69.52 172.8-99.56 299.5l-2.34 9.7-9.53-2.9c-29.25-9.1-51.72-25.1-66.67-47.6-14.86-22.2-22.34-48.8-22.34-79 0-24 9.25-59.6 28.27-108.8 17.29-44.6 40.13-92.3 68.07-141.8-43.31-8.8-86.29-13.3-127.92-13.3-36.21 0-66.82 3.8-90.97 11.2-23.83 7.2-45.14 18.7-63.31 33.9l-6.78 5.7-6.07-6.5c-10.79-11.6-19.86-27.3-27.01-46.6-7.05-19.2-10.65-37.9-10.65-55.4 0-67.4 56.49-101.6 167.88-101.6 76.2 0 158.57 21.1 244.92 62.6 33.78-31.6 75.64-49 124.65-51.8 1.45-.3 2.95-.4 4.58-.4h9.77c.61 0 1.12.1 1.73.1 30.51.7 57.84 4 81.3 9.9 28.31 7.2 46.53 17.4 55.64 31 31.64 47.5 47.66 99.8 47.66 155.7 0 71.9-1.73 159.2-5.19 259.4-3.45 100.4-6.54 216.6-9.2 345.5" style="fill:#231f20;fill-opacity:1;fill-rule:nonzero;stroke:none" transform="matrix(.28537 0 0 -.28537 0 5669.293)"></path><path d="m9402.7 16293.1-1.87 6.9h-7.15c-37.3 0-69.46-10-95.59-29.9-26.97-20.4-40.61-47.2-40.61-79.8l38.65-505.3 13.98-197.3 93.99 12.1 6.45 515.6v94.7l42.3 32-2.57 6.6c-18.27 46.8-34.26 95.4-47.58 144.4" style="fill:#231f20;fill-opacity:1;fill-rule:nonzero;stroke:none" transform="matrix(.28526 0 0 -.28526 0 5669.293)"></path><path d="M10541.5 16040.6c17.4 0 35.2 4.1 52.9 12 17.3 7.7 33.1 17 47.1 27.6 14.2 10.6 25.9 22 35 33.8 10.1 13 14.9 23.8 14.9 33.1q0 8.25-3 15.9c-2.3 5.7-6.4 10.5-12.3 14.3-6.5 4.6-14.5 8-24.1 10.2-8.6 2-17.6 3.7-26.8 5.2-8.7 1.3-17.8 2.8-27 4.6-5.3 1-10.3 2.4-14.9 4 1.5 3.2 3.4 6.5 5.8 9.8 4.7 6.3 10 12.2 15.6 17.5 5.5 5.1 11.2 9.3 16.9 12.4 6.2 3.4 10 4.1 12.2 4.1 2.7 0 4.7-.8 6.4-2.7l4.5-5.1 33 14-1.7 7.8c-6.2 26.8-23.2 40.9-49.3 40.9-13.3 0-26.5-3.6-39-10.6-11.9-6.7-22.8-15.1-32.4-24.9-9.7-9.8-17.6-20.7-23.4-32.3-6.2-12-9.3-23.7-9.3-34.6 0-13.1 2.7-24.2 8.2-32.9 5.4-8.8 14-15.9 25.3-21 10.4-4.7 23.8-8.1 39.7-10.1 10.6-1.4 22.7-2.4 36.2-3-3.6-3.2-7.8-6.5-12.4-9.7-13.1-8.9-29.2-17-47.9-23.9-18.8-6.9-38.5-11.4-58.7-13.3l-8.6-.8v-8.6c0-9.1 3-17 8.9-23.5q9.3-10.2 28.2-10.2" style="fill:#231f20;fill-opacity:1;fill-rule:nonzero;stroke:none" transform="matrix(.28 0 0 -.28 0 5669.293)"></path><path d="m11799.5 16291.8-7.6 8.2-7.2-8.6c-29.2-34.8-57-63.7-82.9-86l-1.1-.9c-35.1 33.9-57.9 56.8-67.9 68.2l-7.1 8.1-46.9-49.1-50.9-50.9 6-6.9c16.8-19.8 46-46.9 86.4-80.4l6.7-5.5 6.4 5.9c29.8 27.9 55.6 57.4 76.4 87.7 20.1-21.3 46.6-44.8 78.9-70l6.7-5.3 6.2 6c33.7 32.9 59.4 63 76.4 89.5l4.2 6.7-5.6 5.6c-57.7 57.6-73.7 74.1-77.1 77.7" style="fill:#231f20;fill-opacity:1;fill-rule:nonzero;stroke:none" transform="matrix(.2701 0 0 -.2701 0 5669.293)"></path><path d="m12157.2 16291.4-7.4 8.6-7.5-8.5c-29.9-33.9-61.5-67.1-94-98.8l-6.6-6.5 6-7c20.6-23.9 53.4-54.4 97.6-90.8l6.8-5.7 6.3 6.3c39.7 38.8 69.7 72.7 89 100.7l4.9 7.1-6.3 5.9c-38.6 35.3-68.4 65.1-88.8 88.7" style="fill:#231f20;fill-opacity:1;fill-rule:nonzero;stroke:none" transform="matrix(.2699 0 0 -.2699 0 5669.293)" data-source="https://football-logos.cc"></path><path d="M11935.3 15605.3c-78.6 9.9-138 29.3-177 57.8 32 37.6 77.5 68.7 135.5 92.4 7.2-54.7 21.1-105.2 41.5-150.2m349.3 658.7-.3 15.5-159.3-88.5 1.2-6.6c41.2-226.5 65.6-364.1 72.5-409.1 6.5-42.4 12.7-86.1 18.6-130-41.4-14.7-78.1-22.5-109.4-23.2-18.2.7-34.6 10.6-50.1 30.3-17.2 21.7-34.2 56.6-50.7 103.9-19.2 53.8-35.6 90.4-49.9 111.7-15.7 23.2-33.4 35-52.7 35-36.1 0-72-13.7-106.7-40.6-34.2-26.4-63.7-62.4-88-107.1-23.1-42.4-36.8-85.2-40.9-127.5l-1.2-.3c-15.7-3.3-31.4-5.1-46.8-5.4-38.6.7-74.7 9.1-107.4 25.3l51.6 119.2-5.1 4.5c-14.4 12.6-32.3 19-53.4 19-14.7 0-27.6-3.4-38.3-10.1-11-6.8-22.5-23-36.2-51-14.8-30.2-25.5-50.5-31.8-60.4-5.8-9.1-12.1-16-18.7-20.7-23.6-16.3-58.2-25-103.2-25.8-39.3.4-75.9 8.9-109.1 25.3 12.9 28.4 29.1 66.4 48.3 113.1l2.5 6-4.8 4.4c-13.6 12.7-31.4 19.2-53 19.2-14.8 0-27.7-3.5-38.4-10.4-10.9-7.1-22.4-23.3-36.2-51.3-15.8-32.3-27.3-53.8-34.3-63.7-6.4-9.1-15.9-16.8-28.3-23-12.8-6.4-30.2-11.4-51.6-14.6-20.8-3.3-60.6-4.9-118.3-5.1-25.1.1-47.9 2.4-67.6 6.9-18.2 4.2-35.6 11.5-51.8 21.6.1 98.6 2 234.1 5.8 403l4.9 246.5-160.1-88.6.7-6.1c26.5-247.1 50.1-436.4 70-562.9-42.4-9-85.9-16.3-129.5-21.6-46.5-5.7-100.8-8.6-161.5-8.6-65.5 0-116.3 3.9-151.2 11.6-33.5 7.4-57.6 19.4-71.5 35.8-13.7 16.1-20.7 39.7-20.8 70.1l4.9 53.7-70.2 2.3-1.9-7c-2.1-7.4-5.3-25.6-9.8-55.9-4.5-29.8-6.7-53.7-6.7-71 0-47.4 10.4-86.3 31.1-115.4 20.6-29.2 52-50.7 93.1-63.9 40.1-12.9 100-19.5 178.2-19.5 97.5 0 214.6 24.2 347.9 71.8l.6-.9c30.2-37.9 82-58.1 153.9-60.3.8-.1 1.6-.2 2.5-.2 2.1 0 4.1.1 6.2.1 1.4 0 2.8-.1 4.2-.1.5 0 1.1.1 1.6.1 29 .3 57.2 1.7 84.2 4.3 30.8 2.9 58.4 7.1 81.9 12.5 24.4 5.7 41.6 11.7 52.7 18.4 10.1 6.1 21.7 19.4 35.3 40.5 48.5-45.8 100.1-71 153.4-75.1 1.7-.4 3.5-.7 5.5-.7 2.3 0 4.6.1 6.9.1 1.1 0 2.3-.1 3.4-.1.7 0 1.3.1 2 .2 35.7.8 66.5 5 91.4 12.6 29.1 8.8 49 19.8 61 33.5 6.9 7.9 14.1 17.7 21.4 29.4 48.7-46 100.2-71.1 153.5-75.1 1.7-.3 3.4-.6 5.2-.6 2.1 0 4.2.1 6.2.1 1.2 0 2.4-.1 3.6-.1 1.5 0 3 .1 4.4.4 18.6 1 36.1 3.8 52.4 8.6 19 5.6 39.1 15.2 60 28.6 27.3-14.1 62-25.6 103.3-34.2 43.6-9.1 91.4-13.8 142.1-13.8h7l13.9 48.3c26.9-22.6 57-35.1 89.7-37.5 1.5-.2 2.9-.4 4.5-.4 1.5 0 3 0 4.5.1.8-.1 1.6-.1 2.4-.1.5 0 .9.1 1.3.1 31.9.5 60.3 3.8 84.6 10 28.2 7.2 46.4 17.3 55.5 30.9 31.6 47.4 47.6 99.7 47.6 155.5 0 71.9-1.7 159.1-5.2 259.1-3.4 100.3-6.5 216.4-9.2 345" style="fill:#231f20;fill-opacity:1;fill-rule:nonzero;stroke:none" transform="matrix(.28573 0 0 -.28573 0 5669.293)"></path><path d="M13133 16008.3c-35.3-11.6-69.8-17.5-102.8-17.5-35 0-62.1 5.8-80.8 17.4-17.4 10.8-25.9 26.1-25.9 46.8 0 22.7 7.7 41.4 23.5 57.2s34.7 23.5 57.9 23.5c17.2 0 34.3-5.8 50.9-17.2 17.2-11.8 33.1-29.3 47.5-52.1 12.7-20 22.6-39.5 29.7-58.1m-2 240.7c-32.8 33.8-68.1 51-104.9 51-31.9 0-62.9-14.1-92.1-41.9-28.5-27-51.6-63-68.8-107-17-43.8-25.7-89.6-25.7-136.3 0-55 14.7-98.5 43.6-129.3 29.1-30.9 70.7-46.7 123.6-46.7 29.3 0 58.6 7.6 87 22.4 19.2 10 37.8 22.6 55.3 37.7-18-41-46.2-74.5-84.2-99.8-44.8-29.8-98.3-45-159.1-45-44.2 0-87.9 5.5-129.8 16.2l-8.2 2.2-25-64.5 5.2-4.4c30.6-25.8 64.1-49.2 99.7-69.5 37-21.1 63.4-31.3 80.6-31.3 55.9 0 108.6 16.1 156.6 47.9 47.8 31.7 86.1 75.4 113.6 130 27.5 54.4 41.5 113.5 41.5 175.7 0 50.9-10.3 104.6-30.4 159.7-20.2 55.3-46.7 100-78.5 132.9" style="fill:#231f20;fill-opacity:1;fill-rule:nonzero;stroke:none" transform="matrix(.27877 0 0 -.27877 0 5669.293)"></path><path d="M12978 16104c18.7 6.5 42.2 13 69.8 19.3l6.5 1.5 6.2 70.6-12-2.4c-16.4-3.3-31.1-4.9-43.7-4.9-19 0-33.9 4.5-45.6 13.6 7.9 12.1 17.2 18 28.6 18 3.4 0 4.7-.7 4.9-.6v-11.6l37.4-6.5 3 6.5c3.9 8.7 5.9 19.2 5.9 31 0 53.5-32.8 61.5-52.4 61.5-20.4 0-40.9-11.4-60.8-33.8-19.7-22.1-29.6-45-29.6-68 0-14.2 5.1-32.3 26.9-45.3l-31.8-19 4-68 12.6 6.5c27.9 14.5 51.5 25.1 70.1 31.6" style="fill:#231f20;fill-opacity:1;fill-rule:nonzero;stroke:none" transform="matrix(.2896 0 0 -.2896 0 5669.293)"></path><path d="M13287.5 16148.7c-18.3 46.8-34.3 95.4-47.5 144.4l-1.9 6.9h-7.2c-37.3 0-69.5-10-95.6-29.9-27-20.4-40.6-47.2-40.6-79.8l38.7-505.3 13.9-197.3 94 12.1 6.5 515.6v94.7l42.3 32z" style="fill:#231f20;fill-opacity:1;fill-rule:nonzero;stroke:none" transform="matrix(.28526 0 0 -.28526 0 5669.293)"></path><path d="M9072.03 15412.9c-185.51-155.5-413.81-80.3-543.42 74.3-159.84 190.6-152.82 414.6 17.46 557.3 67.88 57 145.64 86.2 227.55 86.2 18.54 0 37.25-1.4 56.13-4.5 96.53-15.4 188.2-69.8 258.19-153.2 133.95-159.8 181.01-395-15.91-560.1m-214.44 874.4c-138.39 12.7-278.84-34.2-395.49-132-116.49-97.6-189-227.2-204.17-364.8-16.26-147.1 32.17-292.8 139.99-421.4 96.75-115.4 224.82-186.1 360.7-199.2 15.97-1.5 31.83-2.3 47.69-2.3 124.07 0 244.95 46.8 352.2 136.7 117.86 98.8 189.28 231.5 201.14 373.8 11.98 143.6-37.65 289.7-139.7 411.3-96.41 115.1-225.1 185.4-362.36 197.9" style="fill:#4c3357;fill-opacity:1;fill-rule:nonzero;stroke:none" transform="matrix(.23373 0 0 -.23373 0 5669.293)"></path><path d="m8164.58 16063.7 821.34-539.8 99.07 150.8-951.58 625.3-388.95-591.9 130.24-85.6z" style="fill:#4c3357;fill-opacity:1;fill-rule:nonzero;stroke:none" transform="matrix(.21816 0 0 -.21816 0 5669.293)"></path><path d="m9026.38 15261.5 76.77 215-264.63 310.5c-14.55 16.9-28.51 33.2-42.06 49-43.39 50.6-81.71 95.2-120.83 136.5 53.54 7 103.14 15.2 159.15 24.4 26.17 4.3 53.81 8.8 84.05 13.6l398.55 65.5 77.11 215.8-823.01-168.6-494.82 176.8-66.29-185.5 495.75-177.1z" style="fill:#4c3357;fill-opacity:1;fill-rule:nonzero;stroke:none" transform="matrix(.19972 0 0 -.19972 0 5669.293)"></path><path d="m9726.39 14853.8 5.75 263.8-656.62 283.2c-130.53 55.4-263.84 105.9-388.62 147.3 124.56 32.6 259.69 73.5 394.38 119.6l668.05 238.5 5.76 265.2-1354.62 128.6-4.51-207.2 585.88-52.7c161.5-14.9 344.12-26.7 494.76-35.9-124.2-32.7-261.8-74.5-424.46-129l-657.57-225.6-3.64-164.7 653.78-275.7c152.39-63.4 291.67-118.2 422.93-166.4-149.98 0-330.93-6-493.88-11.8l-601.4-20.8-4.67-213.1 1341.65 56z" style="fill:#4c3357;fill-opacity:1;fill-rule:nonzero;stroke:none" transform="matrix(.18304 0 0 -.18304 0 5669.293)"></path><path d="M11188.8 16012.4c14.3-28.9 41.5-89.3 69.8-181.6 33-107.3 38.5-202.4 15.8-274.8-24.8-79.5-83.2-133.9-173.8-161.7-183.5-56.3-330.8 48-404 286.4-21.4 69.5-33 125.3-35.4 169.7zm-375-823.8c61.3-34.6 130.5-51.9 204.8-51.9 52.3 0 107.3 8.6 163.7 26 128.4 39.4 226.5 124.4 276 239.1 56 125.3 53.5 289.4-7.5 487.9-44.5 145.1-96.1 277.8-153.3 394.2l-7.8 16.1-1469.82-451.3 71.98-234.6 571.64 175.5c5-52.1 20.4-107.8 36.7-160.9 65.2-212.4 173.8-364.7 313.6-440.1" style="fill:#4c3357;fill-opacity:1;fill-rule:nonzero;stroke:none" transform="matrix(.15948 0 0 -.15948 0 5669.293)"></path><path d="m13224.4 16300-1500.8-854 135.3-237.8 1500.8 854.2z" style="fill:#4c3357;fill-opacity:1;fill-rule:nonzero;stroke:none" transform="matrix(.14385 0 0 -.14385 0 5669.293)"></path><path d="M15565.5 15893.6c-216.3 233.8-474.3 365.8-746.2 381.7-255.5 14.9-504.4-76.9-700.7-258.4-212.1-196.3-321.6-435-316.7-690.6 4.6-243.7 111.4-485.2 308.7-698.5 180.3-194.8 359-307.3 457.4-344.4l19.1-7.2 131.7 210.2-27.9 11.1c-111.4 44.2-249 145.6-359.1 264.6-313 338.4-314 743.3-2.5 1031.5 158.9 147 340.5 218.5 525.1 207 188.5-11.9 373.6-110.5 535.2-285.1 102.7-111.1 182.9-242.9 219.9-361.6l8.5-27.5 230.4 108.7-5.9 20.5c-13.5 47.1-73.5 218.1-277 438" style="fill:#4c3357;fill-opacity:1;fill-rule:nonzero;stroke:none" transform="matrix(.13333 0 0 -.13333 0 5669.293)"></path><path d="m15835.1 8447.45-571.1 575.73c30.4 43.56 70.4 90 119.1 138.27 118.9 117.89 237.7 177.65 353.3 177.65h2.9c94.5-.82 182.2-41.96 260.6-122.42 88-88.7 134.2-191.26 133.7-296.53-.7-122.13-64.5-249.26-184.5-367.67-40.3-39.96-81.6-79.87-114-105.03m-88.1 1056.63c-151.1-4.01-308.5-86.06-467.6-243.96-79.1-78.45-154.4-164.5-223.9-255.74l-7.7-10.2 759.6-765.7 10.3 8.31c64.9 52.34 133.3 114.64 215.4 196.04 166.4 165.15 260.5 344.09 264.9 504.12 2 150.48-59.6 296.65-173.6 411.52-109.5 110.4-233 161.32-377.4 155.61" style="fill:#4c3357;fill-opacity:1;fill-rule:nonzero;stroke:none" transform="matrix(.22622 0 0 -.22622 0 5669.293)"></path><path d="M16165.1 9763.43c-2.2-66.42-29.4-157.23-70.9-236.89-60.4-116.09-145-194.42-244.4-226.58-93.4-30.21-194.9-19.07-293.4 32.27-220 114.53-280.4 332.18-157.6 567.96 38.7 74.4 92.5 140.91 147.6 182.41l12.7 9.6-99.8 99.9-9.6-6.8c-22.1-16-100.1-79.3-176.8-226.62-81.6-156.61-102.2-315.94-59.6-460.8 40-136.22 134.5-248.92 265.9-317.33 85-44.24 171-66.47 254.7-66.47 56.3 0 111.7 10.09 164.9 30.32 126.4 48.01 232.5 148.91 306.9 291.77 68 130.56 93.2 244.87 94.1 303.14l.2 11.37-134.3 29.38z" style="fill:#4c3357;fill-opacity:1;fill-rule:nonzero;stroke:none" transform="matrix(.2405 0 0 -.2405 0 5669.293)"></path><path d="m15307.4 11146.6-27.3-157.3 401.3-69.5-87.7-505.7-401.2 69.5-27.3-157.2 979.3-169.8 13.3-2.3 27.3 157.2-453.8 78.7 87.7 505.8 453.7-78.7 27.3 157.2-979.3 169.8z" style="fill:#4c3357;fill-opacity:1;fill-rule:nonzero;stroke:none" transform="matrix(.24658 0 0 -.24658 0 5669.293)"></path><path d="m15827.4 11828.2-48.1 422.1-134.3-15.3 48.1-422.2-277.6-31.6-50.9 446.8-134.4-15.4 69-605.2 1000.8 114-71.7 629-134.3-15.3 53.6-470.4z" style="fill:#4c3357;fill-opacity:1;fill-rule:nonzero;stroke:none" transform="matrix(.24662 0 0 -.24662 0 5669.293)"></path><path d="m15331.7 12835.3 968.3 327.8-51.9 153.4-968.3-327.8z" style="fill:#4c3357;fill-opacity:1;fill-rule:nonzero;stroke:none" transform="matrix(.243 0 0 -.243 0 5669.293)"></path><path d="M15437.8 13934.5c-14.2 15.5-43 50.2-81.2 113-56.8 93.4-98.6 220.6 24.7 295.6 27.1 16.5 55.5 24.8 84.2 24.8 18.4 0 37-3.5 55.4-10.4 48.4-18.3 93.3-59.7 129.9-119.8l77.1-126.8zm-154.5 541.4c-68.5-41.7-116.1-108.8-127.3-179.3-16.6-93.3 11.6-193.7 91.7-325.2 50.3-82.8 114.1-170.9 166.6-230.1l7.8-8.7 877.9 534-85.4 140.4-375.3-228.3-70.6 116.1c-57.4 104.1-43 175.2 54.9 271.6 100.2 99.1 154.5 159.1 170.9 188.7l4 7.1-90.1 148.1-11.9-20.2c-22.1-37.7-88.9-106.2-181.4-201l-16.9-17.3c-67.6-70.4-100.8-144.5-97.2-216.1-80.6 59.5-199.8 91.9-317.7 20.2" style="fill:#4c3357;fill-opacity:1;fill-rule:nonzero;stroke:none" transform="matrix(.23807 0 0 -.23807 0 5669.293)"></path><path d="M14828.4 15304c18.1 38.6 36.7 79.7 56.1 129l112.4 288.7 228.8-207.8-278.1-142.2c-44.1-23.2-83.1-45.9-119.2-67.7m959.9 327.5-130.9 118.9-309.8-163.6-290 263.3 129 327.7-134.6 122.2-413.4-1057.1 140.6-127.6z" style="fill:#4c3357;fill-opacity:1;fill-rule:nonzero;stroke:none" transform="matrix(.23422 0 0 -.23422 0 5669.293)"></path><path d="M6999.65 16176.3c9.36 11.3 23.75 16.7 43.89 16.7 19.52 0 33.75-5.5 43.53-16.8 10.2-11.9 15.33-29.2 15.33-51.4 0-60.5-31.45-68.2-58.86-68.2-19.04 0-33.17 5.4-43.27 16.5-10.36 11.5-15.64 28.9-15.64 51.7 0 22.3 5.08 39.6 15.02 51.5m170.87 78.9c-33.59 29.7-76.28 44.8-126.98 44.8s-93.44-15.1-126.98-44.9c-34.11-30.2-51.37-74.1-51.37-130.3 0-55.6 17.26-99.1 51.37-129.3 33.54-29.8 76.23-44.9 126.98-44.9 50.7 0 93.44 15.1 126.98 44.9 34.06 30.2 51.37 73.7 51.37 129.3 0 56.2-17.31 100.1-51.37 130.4" style="fill:#231f20;fill-opacity:1;fill-rule:nonzero;stroke:none" transform="matrix(.25485 0 0 -.25485 0 5669.293)"></path><path d="M6814.28 16179.6c9.12 10.9 23.12 16.2 42.73 16.2 19 0 32.86-5.4 42.38-16.4 9.93-11.5 14.92-28.3 14.92-50 0-58.9-30.61-66.4-57.3-66.4-18.54 0-32.29 5.3-42.12 16.2-10.08 11.1-15.23 28-15.23 50.2 0 21.7 4.94 38.6 14.62 50.2m166.35 76.7c-32.7 29-74.26 43.7-123.62 43.7-49.35 0-90.96-14.7-123.61-43.7-33.21-29.4-50.02-72.2-50.02-126.9 0-54.1 16.81-96.4 50.02-125.9 32.65-29 74.21-43.7 123.61-43.7 49.36 0 90.97 14.7 123.62 43.7 33.16 29.5 50.01 71.8 50.01 125.9 0 54.7-16.85 97.4-50.01 126.9" style="fill:#231f20;fill-opacity:1;fill-rule:nonzero;stroke:none" transform="matrix(.26178 0 0 -.26178 0 5669.293)"></path><path d="m7457.96 16158-135.01-213.4c-11.68-19.2-22.13-37-31.05-53 .57 23.8.87 51.1.87 81.3v327.1h-120.38v-751.2h120.38v143.2l132.93 211.3c12.74 20.6 24 39.6 33.58 56.6-.86-23.9-1.32-51.7-1.32-82.9v-328.2h120.39v751.2h-120.39z" style="fill:#231f20;fill-opacity:1;fill-rule:nonzero;stroke:none" transform="matrix(.2616 0 0 -.2616 0 5669.293)"></path><path d="M8006.82 16162.1c14.57 17.7 36.75 26.3 67.84 26.3 29.83 0 51.75-8.7 67.01-26.5 15.62-18.4 23.58-43.7 23.58-75.5 0-31.6-7.91-56.8-23.53-74.7-15.2-17.6-37.17-26.1-67.06-26.1-29.26 0-51.08 8.5-66.65 26.2-15.88 17.9-23.9 43-23.9 74.6 0 31.9 7.61 57.3 22.71 75.7m220.76 81.6c-39.94 37.3-91.38 56.3-152.92 56.3-61.55 0-112.99-19-152.92-56.3-40.25-37.6-60.66-90.5-60.66-157.3 0-66.7 20.41-119.5 60.71-156.8 39.88-37 91.32-55.7 152.87-55.7 61.54 0 112.98 18.7 152.87 55.7 40.3 37.3 60.71 90.1 60.71 156.8 0 66.8-20.41 119.7-60.66 157.3" style="fill:#231f20;fill-opacity:1;fill-rule:nonzero;stroke:none" transform="matrix(.25608 0 0 -.25608 0 5669.293)"></path><path d="M8350.4 16189.7h344.14v110.3h-464.52v-751.2h474.61v110.4H8350.4z" style="fill:#231f20;fill-opacity:1;fill-rule:nonzero;stroke:none" transform="matrix(.2616 0 0 -.2616 0 5669.293)"></path><path d="M9314.12 15969.2h-437.41c7.49 67 28.53 119.9 62.6 157.5 36.62 40.4 87.55 60 155.6 60 68.04 0 119.13-19.6 156.11-60 34.38-37.6 55.57-90.5 63.1-157.5m-63.56-267.6c-37.33-40.5-88.22-60.2-155.65-60.2-67.44 0-118.17 19.7-155.14 60.1-34.38 37.6-55.52 90.5-63.06 157.5h437.41c-7.58-67-28.93-119.9-63.56-157.4m29.9 549.7c-52 32.3-114.45 48.7-185.55 48.7-71.16 0-133.45-16.4-185.09-48.7-51.7-32.4-92.14-78.3-120.15-136.4-27.76-57.6-41.87-125.4-41.87-201.3 0-76 13.91-143.5 41.36-200.8 27.7-57.8 67.94-103.6 119.64-135.9 51.65-32.3 114.24-48.7 186.11-48.7 71.82 0 134.56 16.4 186.57 48.7 52 32.3 92.44 78 120.2 135.9 27.4 57.3 41.31 124.9 41.31 200.8s-14.06 143.6-41.87 201.3c-28.01 58.2-68.66 104.1-120.66 136.4" style="fill:#231f20;fill-opacity:1;fill-rule:nonzero;stroke:none" transform="matrix(.26178 0 0 -.26178 0 5669.293)"></path><path d="M9704.27 15710.4c-7.64 2.5-15.89 4.8-24.69 7 8.5 4.3 16.95 8.9 25.2 13.7 18.43 10.7 37.43 22.4 56.47 34.6l174.45 110.3v68.3l-174.35 110.3c-18.89 12.1-37.53 24-56.06 35.8-8.45 5.4-17.06 10.3-25.77 14.9 7.49 1.7 14.92 3.5 22.26 5.3 19.35 4.8 38.29 10.3 56.21 16.5l208.27 70.5-36.46 102.4-414.85-140.4v-83.9l199.91-126.6c15.33-9.4 29.94-18 43.28-25.5 7.39-4.2 15.69-8.5 24.8-12.8-9.82-4.8-18.74-9.5-26.63-14.2-13.49-8.1-27.34-16.6-41.65-25.5l-199.71-126.4v-84l414.8-140.3 36.56 101.3-210.25 71.5c-17.16 5.9-34.58 11.7-51.79 17.2" style="fill:#231f20;fill-opacity:1;fill-rule:nonzero;stroke:none" transform="matrix(.26185 0 0 -.26185 0 5669.293)"></path><path d="M10215.9 15819.7c1.7 33.3 2.5 66.4 2.5 98.7v271.3h203.7c25.8 0 46.8.4 62.3 1 6.6.3 13.6.6 20.9 1.1-11.7-12.7-23.1-26.1-34.1-39.9-17.3-21.7-35.2-45.6-53.4-71.2l-126.2-174.6c-21.5-30.4-41.1-59.3-58-86-6.6-10.6-13.3-21.6-20-33 .9 10.8 1.7 21.6 2.3 32.6m455.7 418.6-25.3 61.7H10098v-751.2h78.7l196.8 275.4 191-275.4h129.3v28.2l-244.8 352.3zM11272.5 16300l-277.3-725v-26.2h111.6l176.2 456.8c9.6 23.7 18.5 47.6 26.5 70.8 2.5 7.1 4.9 14.4 7.1 21.9q3-11.1 6.3-21.6c7.5-23.3 15.7-47.2 24.5-70.8l171.3-457.1h121.7v26.2l-269.1 725z" style="fill:#231f20;fill-opacity:1;fill-rule:nonzero;stroke:none" transform="matrix(.2616 0 0 -.2616 0 5669.293)"></path><path d="M12098.6 15740.6c9 7.7 19.7 11.5 32.9 11.5 12.7 0 22.8-4.1 30.9-12.5 8.3-8.6 12.3-19.3 12.3-32.8 0-14.6-4.2-25.9-13-34.4-8.9-8.6-19.1-12.8-31.2-12.8-12.6 0-22.9 4.2-31.4 13-8.6 8.9-12.8 20.4-12.8 35.3s4 25.6 12.3 32.7m32.9 335.5c-13.2 0-23.9 3.8-32.9 11.5-8.3 7-12.3 17.8-12.3 32.7s4.2 26.4 12.8 35.3c8.5 8.7 18.8 13 31.4 13 12.1 0 22.3-4.2 31.2-12.8 8.8-8.5 13-19.8 13-34.5 0-12.9-4-23.5-12.5-32.4-8.1-8.6-18.1-12.8-30.7-12.8m-156.4 29.1c0-30 7.5-55.9 22.4-76.9 14.7-20.7 34.3-36.5 58.3-47 23.3-10.2 48.8-15.4 75.7-15.4 27.9 0 54.1 6.1 78.1 18.3 24.2 12.2 44 30.2 58.8 53.2 15 23.3 22.6 51.8 22.6 84.9 0 35.2-11.9 67-35.4 94.3-22.9 26.4-54.6 47.2-94.6 61.8-39.2 14.3-84.4 21.6-134.3 21.6-69 0-131.8-15.9-186.7-47.4-55-31.5-99-76.8-130.8-134.5-31.7-57.4-47.8-125.9-47.8-203.5s16.1-146.2 47.8-204c31.8-58.1 75.8-103.5 130.8-135 54.9-31.4 117.7-47.4 186.7-47.4 49.9 0 95.1 7.2 134.3 21.6 40 14.6 71.7 35.4 94.6 61.8 23.5 27.3 35.4 59 35.4 94.2 0 33.1-7.5 61.8-22.5 85.4-14.9 23.5-34.8 41.4-59.1 53.4-23.9 11.8-50.1 17.7-77.9 17.7-26.9 0-52.3-5.2-75.7-15.4-23.9-10.5-43.5-26.1-58.2-46.4-14.9-20.7-22.5-46.8-22.5-77.5 0-30.3 7.4-55.1 21.9-73.5 2.2-2.9 4.4-5.5 6.6-7.9-38.4 1.2-73.8 11.1-105.4 29.5-33.5 19.6-60.5 49.6-80.3 89.4-20 40.4-30.1 92.2-30.1 154.1 0 61.8 10.1 113.5 30.1 153.5 19.8 39.5 46.7 69.4 80.3 88.9 31.6 18.5 66.7 28.4 104.5 29.6q-2.85-3.15-5.7-6.9c-14.5-18.4-21.9-43.6-21.9-74.5" style="fill:#231f20;fill-opacity:1;fill-rule:nonzero;stroke:none" transform="matrix(.26178 0 0 -.26178 0 5669.293)"></path><path d="M12796.7 16162.1c14.5 17.7 36.7 26.3 67.9 26.3 29.7 0 51.7-8.7 66.9-26.5 15.7-18.4 23.6-43.7 23.6-75.5 0-31.6-7.9-56.8-23.5-74.7-15.2-17.6-37.1-26.1-67-26.1-29.4 0-51.1 8.5-66.7 26.2-15.9 17.9-23.9 43-23.9 74.6 0 31.9 7.6 57.3 22.7 75.7m220.8 81.6c-40 37.3-91.4 56.3-152.9 56.3-61.6 0-113.1-19-153-56.3-40.3-37.6-60.6-90.5-60.6-157.3 0-66.7 20.4-119.5 60.6-156.8 40-37 91.4-55.7 153-55.7 61.5 0 112.9 18.7 152.8 55.7 40.3 37.3 60.7 90.1 60.7 156.8 0 66.8-20.4 119.7-60.6 157.3" style="fill:#231f20;fill-opacity:1;fill-rule:nonzero;stroke:none" transform="matrix(.25608 0 0 -.25608 0 5669.293)"></path><path d="m13090.7 16140.2 192 53.4-28 106.4-416.3-121.5v-81l204.2-175.2c11.5-9.4 23.4-19.2 35.9-29.3 8.9-7.2 18.9-14.6 29.8-21.9-9.7-7.2-18.3-14.5-25.8-21.8-10.3-10-21.8-21.3-34.9-34.5l-220.4-220.3 87.8-75.5 323 325.1v66.8l-165.3 141.4c-14.9 13.5-30.7 27.2-46.9 40.8-9.5 7.8-19.8 15.5-30.9 22.8 11.5 2.1 22.4 4.5 32.4 7.1 18.3 4.6 39.7 10.4 63.4 17.2" style="fill:#231f20;fill-opacity:1;fill-rule:nonzero;stroke:none" transform="matrix(.26184 0 0 -.26184 0 5669.293)"></path><path d="M13930.6 15913.6c0-86.8-19.3-154.9-57.2-202.2-37.6-47.1-91.4-70-164.6-70-73 0-126.7 22.9-164 69.9-37.6 47.4-56.7 115.5-56.7 202.3s19.1 155.1 56.8 202.8c37.3 47.4 90.9 70.3 163.9 70.3 73.8 0 127.7-22.9 165.1-70.3 37.6-47.7 56.7-116 56.7-202.8m-36.2 337.7c-52 32.3-114.4 48.7-185.6 48.7-71.1 0-133.4-16.4-185.1-48.7-51.6-32.4-92-78.3-120.1-136.4-27.8-57.6-41.8-125.4-41.8-201.3 0-76 13.9-143.5 41.3-200.8 27.7-57.8 68-103.6 119.6-135.9 51.7-32.3 114.3-48.7 186.1-48.7 71.9 0 134.6 16.4 186.6 48.7 52.1 32.3 92.5 78 120.2 135.9 27.5 57.3 41.4 124.9 41.4 200.8s-14.1 143.6-41.9 201.3c-28.1 58.2-68.7 104.1-120.7 136.4" style="fill:#231f20;fill-opacity:1;fill-rule:nonzero;stroke:none" transform="matrix(.26178 0 0 -.26178 0 5669.293)"></path><path d="M14576.2 16162.1c14.5 17.7 36.7 26.3 67.8 26.3 29.8 0 51.8-8.7 67-26.5 15.6-18.4 23.6-43.7 23.6-75.5 0-31.6-8-56.8-23.5-74.7-15.3-17.6-37.2-26.1-67.1-26.1-29.3 0-51.1 8.5-66.7 26.2-15.8 17.9-23.9 43-23.9 74.6 0 31.9 7.7 57.3 22.8 75.7m220.7 81.6c-39.9 37.3-91.4 56.3-152.9 56.3s-113-19-153-56.3c-40.2-37.6-60.6-90.5-60.6-157.3 0-66.7 20.4-119.5 60.7-156.8 39.9-37 91.4-55.7 152.9-55.7s113 18.7 152.9 55.7c40.2 37.3 60.6 90.1 60.6 156.8 0 66.8-20.3 119.7-60.6 157.3" style="fill:#231f20;fill-opacity:1;fill-rule:nonzero;stroke:none" transform="matrix(.25608 0 0 -.25608 0 5669.293)" data-source="https://football-logos.cc"></path><!-- source: https://football-logos.cc --></svg>