<svg xmlns="http://www.w3.org/2000/svg" xml:space="preserve" viewBox="105.39 105.39 4754.51 4754.51"><!-- Source: https://football-logos.cc --><path d="M16300 8326.75c0-4403.54-3569.7-7973.287-7973.29-7973.287-4403.5 0-7973.248 3569.747-7973.248 7973.287 0 4403.45 3569.748 7973.25 7973.248 7973.25 4403.59 0 7973.29-3569.8 7973.29-7973.25" style="fill:#3369bc;fill-opacity:1;fill-rule:nonzero;stroke:none" transform="matrix(.29815 0 0 -.29815 0 4965.293)" data-source="https://football-logos.cc"></path><path d="M8594.97 1378.43c-2020.62 0-3847.17 830.47-5157.14 2168.65 117.02 53.91 235.84 106.4 353.89 156.35 647.36 273.82 1321.02 492.34 2006.68 651.13 802.03-530.01 1763.23-838.68 2796.52-838.68 1033.34 0 1994.48 308.67 2796.58 838.68 685.6-158.79 1359.3-377.31 2006.7-651.09 118-49.99 236.8-102.48 353.9-156.39-1310-1338.18-3136.6-2168.65-5157.13-2168.65m0 14433.07c3985.53 0 7216.53-3231 7216.53-7216.54 0-825.29-138.6-1618.23-393.7-2356.79-641.5 315.23-1305.2 585.72-1984.1 808.91 156 488 240.3 1008.09 240.3 1547.88 0 2805.14-2274 5079.04-5079.08 5079.04-2805.1 0-5079.07-2273.9-5079.07-5079.04 0-539.79 84.31-1059.88 240.31-1547.93-678.89-223.14-1342.59-493.63-1984.01-808.86-255.13 738.56-393.74 1531.5-393.74 2356.79 0 3985.54 3230.94 7216.54 7216.56 7216.54m0 488.5c-4255.43 0-7705.101-3449.7-7705.101-7705.04 0-4255.4 3449.671-7705.085 7705.101-7705.085 4255.33 0 7705.03 3449.685 7705.03 7705.085 0 4255.34-3449.7 7705.04-7705.03 7705.04" style="fill:#fff;fill-opacity:1;fill-rule:nonzero;stroke:none" transform="matrix(.28885 0 0 -.28885 0 4965.293)"></path><path d="M9121.31 8114.29c-2576.95 0-5013.84-599.65-7178.7-1667.12 356.81-951.08 897.22-1812.37 1578.14-2540.71 142.98 66.62 287.02 130.65 432.01 191.98 800.16 338.45 1637.53 598.38 2488.82 772.57 875.1 179.05 1776.66 269.87 2679.73 269.87 902.99 0 1804.59-90.82 2679.59-269.87 851.3-174.19 1688.8-434.12 2488.9-772.57 145-61.33 289-125.36 432-191.98 681 728.34 1221.4 1589.63 1578.2 2540.71-2164.9 1067.47-4601.8 1667.12-7178.69 1667.12" style="fill:#274492;fill-opacity:1;fill-rule:nonzero;stroke:none" transform="matrix(.27218 0 0 -.27218 0 4965.293)"></path><path d="m7071.33 9424.6-233.5 546.7 744.87 2620.4-1398.39-597.2-216.88 507.7 2196.89 938.4 201.14-470.9-779.2-2727.2 1707.55 729.4 216-505.8zM10034.8 10647.6l-923.13 3130.6 2321.23 684.4 156.2-529.6-1689.17-498 204.67-694.1 1571.7 463.5 155.5-527.5-1571.7-463.4 251.3-852.1 1748.9 515.7 155.5-527.4zM13071.2 11514.9l-491.5 3226.6 975 148.6 920.8-2111.8 243.5 2289.1 977.3 148.9 491.5-3226.6-605.2-92.2-387 2539.9-253.5-2637.5-627.3-95.6-1025.2 2442.7 386.9-2539.9z" style="fill:#fff;fill-opacity:1;fill-rule:nonzero;stroke:none" transform="matrix(.13333 0 0 -.13333 0 4965.293)"></path><path d="m15293.2 10928.6-380.8 986.8-348.3-996.1zM16300 9883.98l-586.9-7.45-241 603.97-1068.1-13.5-212.9-609.79-572.3-7.21 1006.8 2685.3 570.5 7.2z" style="fill:#fff;fill-opacity:1;fill-rule:nonzero;stroke:none" transform="matrix(.16285 0 0 -.16285 0 4965.293)"></path><path d="m13889.5 8210.61 278 2207.69 667.2-84 210.9-1556.39 585.7 1456.09 668.7-84.2-278-2207.74-414.2 52.15 218.9 1737.85-657.2-1682.69-429.1 54.06-217.9 1792.94-218.9-1737.92z" style="fill:#fff;fill-opacity:1;fill-rule:nonzero;stroke:none" transform="matrix(.19557 0 0 -.19557 0 4965.293)"></path><path d="m15047.9 7778.27 278.9-75.8c180.8-49.13 295.8-72.18 344.9-69.1 49.1 3.02 91.5 19.79 127.1 50.19 35.6 30.46 61 73.67 76.3 129.67 17 62.82 14 118.12-9 165.82-23 47.77-63.7 85.05-122.1 111.83-29.4 12.51-120.4 39.59-273.2 81.08l-294.1 79.94zm-669.6-974.78 507.2 1866.58 793.3-215.54c199.5-54.23 339.9-110.35 421.2-168.43 81.2-58.14 137.4-137.43 168.4-237.95 31.1-100.45 31.6-205.88 1.6-316.23-38.1-140.04-110.7-244.52-217.8-313.38-107.1-68.93-245.9-92.99-416.1-72.19 68.5-69.69 121.6-140.22 159.2-211.45 37.6-71.3 81.7-191.78 132.2-361.33l129-426.11-450.8 122.5-162.1 480.21c-57.3 171.45-98.6 280.91-124 328.38-25.4 47.41-56.2 83.57-92.2 108.46-36.2 24.83-97.4 49.01-184 72.54l-76.4 20.8-211.8-779.26z" style="fill:#fff;fill-opacity:1;fill-rule:nonzero;stroke:none" transform="matrix(.22498 0 0 -.22498 0 4965.293)"></path><path d="m15936.8 5945.08 28.4 694.09-470-509.18zm333.8-892.33-355.6 148.82 12.6 426.87-647.1 270.83-287.5-311.75-346.7 145.12 1308.1 1354.9 345.6-144.69z" style="fill:#fff;fill-opacity:1;fill-rule:nonzero;stroke:none" transform="matrix(.24798 0 0 -.24798 0 4965.293)"></path><path d="M13425.3 5354.51c-120.6 24.71-241.8 47.91-363.3 69.6-148.7-79.27-300.8-151.89-455.4-217.3-340.6-144.06-697.1-254.75-1059.5-328.82-371.9-76.14-754.8-114.71-1138-114.71-383.3 0-766.15 38.57-1138.13 114.71-362.42 74.07-718.8 184.76-1059.42 328.82-154.63 65.41-306.74 138.03-455.39 217.3a14557 14557 0 0 1-363.31-69.6c-2.74-.56-5.54-1.12-8.33-1.73 884.11-529.91 1918.76-834.64 3024.58-834.64 1105.8 0 2140.4 304.73 3024.5 834.64-2.8.61-5.6 1.17-8.3 1.73M10409.1 16300c-3253.5 0-5890.95-2637.5-5890.95-5890.9 0-625.95 97.64-1229.14 278.52-1795.1 77.99 24.48 156.17 48.41 234.45 71.77a5588 5588 0 0 0-153.18 585.2c-76.12 371.98-114.7 754.93-114.7 1138.13s38.58 766.1 114.7 1138.1c74.17 362.3 184.8 718.8 328.87 1059.4 141.46 334.5 316.61 657.1 520.46 959 202.04 299 434.03 580.1 689.62 835.7 255.53 255.5 536.67 487.5 835.7 689.6 301.82 203.9 624.43 379 958.96 520.4 340.62 144.1 697 254.8 1059.42 328.9 371.98 76.1 754.83 114.7 1138.13 114.7 383.2 0 766.1-38.6 1138-114.7 362.4-74.1 718.9-184.8 1059.5-328.9 334.5-141.4 657.1-316.5 958.9-520.4 299-202.1 580.3-434.1 835.8-689.6 255.5-255.6 487.5-536.7 689.5-835.7 203.9-301.9 379-624.5 520.5-959 144.1-340.6 254.7-697.1 328.9-1059.4 76.1-372 114.7-754.9 114.7-1138.1s-38.6-766.15-114.7-1138.13c-40.4-197.39-91.6-393-153.2-585.2 78.3-23.36 156.5-47.29 234.5-71.77 180.8 565.96 278.5 1169.15 278.5 1795.1 0 3253.4-2637.5 5890.9-5890.9 5890.9" style="fill:#3844a1;fill-opacity:1;fill-rule:nonzero;stroke:none" transform="matrix(.2385 0 0 -.2385 0 4965.293)"></path><path d="m4197.27 16159.4-238.52 140.6-122.49-320 238.6-144.5z" style="fill:#fff;fill-opacity:1;fill-rule:nonzero;stroke:none" transform="matrix(.15185 0 0 -.15185 0 4965.293)"></path><path d="m4079.1 15972 243.14-152.4 127.02 334-241.4 146.4z" style="fill:#fff;fill-opacity:1;fill-rule:nonzero;stroke:none" transform="matrix(.14813 0 0 -.14813 0 4965.293)"></path><path d="M4926.94 15632.3c-29.14-1-61.36 13.3-95.8 42.1-10.65 9.3-38.16 37.6-81.85 84.1 21.45 60.1 43.67 117.1 66.12 169.7 71.69 168.6 110.25 187.7 123.5 188.1h.24c6.53 0 29.81-8 70.24-103.9 31.23-74.1 48.07-143.8 50.02-207 1.61-52.3-9.54-94.6-33.12-125.7-23.16-30.6-55.65-46.1-99.35-47.4m208.13 589c-71.19 53.7-176.21 78.7-312.23 74.5-89.51-2.7-174.11-78.8-251.38-226-22.84-42.6-74.84-168.7-158.95-385.5l-5.41-13.9 273.74-112.4 4.64 25.4c71.03-34 140.92-67 208.35-98.7 85.19-37 161.6-55.8 227.37-55.8 3.5 0 6.97.1 10.41.2 63.64 2 111.92 38.9 143.5 109.5 26.47 58.8 38.53 132.8 35.84 220.2-6.93 224.6-66.11 380.2-175.88 462.5" style="fill:#fff;fill-opacity:1;fill-rule:nonzero;stroke:none" transform="matrix(.15358 0 0 -.15358 0 4965.293)"></path><path d="M4514.67 16098.9c-18.67-50.1-46.77-102.1-83.63-154.6-34.82-49.6-69.58-87.7-103.46-113.4-26 32.8-43.92 60.2-53.4 82-15.5 33.6-22.77 72.2-21.65 114.6 43.83 24 85.47 42.1 123.8 53.9 45.42 13.6 90.62 21.4 134.45 23zm235.47-1163.3c-76.79 92.8-156.42 147.9-236.89 164.1l25.33 100.6c27.81 110.3 38.5 198.5 31.8 262-6.44 61.1-28.92 125.7-66.85 192.2 61.68 57.4 117.32 128.1 165.51 210.3 43.2 74.2 73.29 144.2 89.43 208.3l40.16 159.4-211.08 53.1c-56.84 14.4-134.59 6.3-237.76-24.7-74.02-22.6-160.4-56.9-256.77-101.8l-6.87-3.2-.43-7.6c-3.79-67.3 7.19-145.9 32.65-233.5 28.63-97.4 70.07-184.8 123.16-260 37.7-53.3 63.87-109.3 77.77-166.2 17.6-73.4 15.87-152.9-5.14-236.3l-32.2-127.8-78.53 8c-84.88 8.6-165.1-5.7-238.49-42.4-64.28-32.2-131.44-86.2-199.61-160.3l-10.71-11.7 197.39-113.9 6.85 6.3c63.3 57.9 124.32 102.3 181.37 132 69.95 36.2 135.3 51.6 194.23 45.6 68.19-6.9 142.4-57.1 220.59-149.3 79.4-93.6 142.74-204.8 188.25-330.6 49.58-138.6 68.48-270.4 56.18-391.7-5.59-55.3-17.21-117.4-34.52-184.4-16.92-65.7-34.17-131.8-51.26-196.4l-2.31-8.8 64.68-42.8 5.93 14c28.06 66.5 56.18 133.6 84.34 201.2 33.35 79.8 59.26 149.5 76.97 207.4 23.62 76.3 39.04 149.1 45.86 216.4 7.5 74.2-11.69 172.2-57.07 291.5-46.92 124.7-108.13 232.7-181.96 321" style="fill:#fff;fill-opacity:1;fill-rule:nonzero;stroke:none" transform="matrix(.18463 0 0 -.18463 0 4965.293)"></path><path d="M4746.23 16118.5c-25.99-40.6-60.64-81-103.06-120.1-40.13-37.1-77.97-64-112.67-80.1-16.65 33.8-27.17 61.3-31.36 82.3-7.24 32.5-6.29 67.8 2.79 105 43.15 12.7 83.25 20.7 119.22 23.8 42.56 3.3 83.81 1.5 122.7-5.4zm-114.15 174h-.05c-69.45-5.9-152-19.5-245.38-40.7l-6.65-1.5-1.82-6.6c-16.18-58.6-21.5-129.8-15.79-211.7 6.64-91.1 26.42-176 58.8-252.3 23-54 35.37-108.3 36.78-161 1.48-68-15.21-137.7-49.6-207l-75.14-199.8-32.86-88.2c-8.93-23.9-29.46-41.1-62.89-52.7-41.14-14.7-123.07-7.7-243.51 20.7-258.88 87.2-426.66 140.4-498.65 157.8-116.02 28.3-221.38 41.3-313.5 39.1l-19.72-.6 152.77-250 9.81 6.3c34.28 22.1 70.32 36.3 107.15 42.2 30.03 5 66.86 4.3 109.44-2.1 43.12-6.4 105.59-21.9 185.64-45.7 80.86-24 159.62-47.6 236.58-70.6 95.25-26.2 178.46-43.7 247.32-52 22.15-2.7 43.09-4 62.79-4 42.76 0 79.62 6.3 110.04 18.9 51.82 21.2 89.19 61.6 111.05 120.3l58.95 186.5 42.29 85.3c45.5 91.8 71.72 167.4 77.94 224.5 5.99 55-1.48 116.1-22.17 181.9 65.23 38.8 127.68 90.4 185.74 153.5 52.15 57 91.98 113 118.39 166.2l65.72 132.7-175.59 87c-47.28 23.4-117.24 31.1-213.88 23.6" style="fill:#fff;fill-opacity:1;fill-rule:nonzero;stroke:none" transform="matrix(.20505 0 0 -.20505 0 4965.293)"></path><path d="m4541.51 16121.6-69.39 178.4-201.36-128.1 73.43-174.6z" style="fill:#fff;fill-opacity:1;fill-rule:nonzero;stroke:none" transform="matrix(.22294 0 0 -.22294 0 4965.293)"></path><path d="m5302.79 15735.9-.7.6-626.25 377.2 41.72 27.4-3.17 7.7c-7.85 18.9-22.98 42.4-46.27 71.6-22.75 28.6-46.27 53.7-69.87 74.7l-5.51 4.9-6.32-3.8c-36.2-21.6-71.74-42.6-105.35-62.4-43.12-23.5-75.61-24.6-99.37-3.5l-4.29 3.8-34.79-11.2 3.77-9.9c14.49-38 33.2-73.8 55.61-106.3 22.42-32.5 50.33-63.7 82.95-92.7l5.15-4.5 58.56 30 669.68-414.6-242.78-273.3-60.55 42.6c-55.43 38.9-116.53 60.2-181.62 63.3-57.07 2.6-124.51-8.6-200.51-33.5l-11.94-3.9 92.44-155.6 7.18 1.7c66.36 15.6 125.92 22.6 176.86 20.9 62.55-2 113.78-16.7 152.27-43.8 44.54-31.2 76.42-94.9 94.77-189.1 18.62-95.6 19.27-197.3 1.91-302.1-19.5-115.2-57.62-213.8-113.28-293.1-25.34-36.1-57.5-74.6-95.58-114.3-37.67-39.4-75.28-78.5-111.78-116.1l-5.01-5.1 28.13-54.9 9.58 7.4c44.77 34.9 90.73 70.7 136.56 106.6 54.07 42.3 99.13 80.6 133.92 113.8 45.99 43.7 84.95 88 115.81 132 34.03 48.5 58.84 123.8 73.73 224 15.96 104.6 15.52 203.3-1.29 293-16.21 89.1-47.32 155.8-92.51 198.7l322.75 363.3z" style="fill:#fff;fill-opacity:1;fill-rule:nonzero;stroke:none" transform="matrix(.2325 0 0 -.2325 0 4965.293)"></path><path d="M5536.54 15596.7c-16.52 49.2-42.55 92.4-77.37 128.3-42.93 44.3-112.17 105.8-205.76 182.8-74.97 62.1-162.08 130.8-258.91 204.2-96.95 73.5-174.9 131.7-231.69 173l-20.61 15 5.2-24.9c6.47-31.1 13.57-64.2 21.72-101.4 7.83-35.7 15.78-68.9 23.6-98.6l.87-3.3 2.78-2.1c63.12-46.8 125.3-93.9 184.8-140.2 98.22-76.4 192.38-151.9 279.84-224.3 87.43-72.4 153.9-131.9 197.57-177 5.21-5.3 15.27-17.1 29.9-34.8 14.69-17.9 27.44-34 37.91-48l4.37-5.8 35.42 12.9-1.22 7.9c-10.03 65.6-19.34 110.2-28.42 136.3" style="fill:#fff;fill-opacity:1;fill-rule:nonzero;stroke:none" transform="matrix(.23789 0 0 -.23789 0 4965.293)"></path><path d="M6212.4 15631.3c50.5 16.8 95.31 36 133.22 56.9 82.46 45.5 139.13 97.1 168.32 153.1 29.82 57.3 29.04 115.1-2.35 171.9-20.06 36.3-40.89 57.4-63.82 64.5-22.72 7-51.54 1-85.65-17.8l-47.89-33.4c-7.68-5.5-17.07-11.3-27.83-17.2-11.91-6.6-23.4-10.7-34.16-12.2-10.18-1.5-13.58 1.9-15.51 5.4-11.54 20.9-4.75 49 20.21 83.5 16.3 22.9 43.04 50.8 79.64 83.1l4.55 4.1-42.98 126.8-10.39-10c-51.39-49.6-88.58-119.9-110.67-209.1-22.19-89.9-21.2-157.5 2.87-201.2 10.19-18.4 24.29-28 41.99-28.6 15.88-.6 32.54 3.8 49.35 13.1l63.04 39.7c8.3 5.2 20.42 12.2 36.09 20.9 12.53 6.9 24.85 9.6 37.65 8.1 11.54-1.3 19.27-5.7 23.55-13.5 10.29-18.6-4.28-50-42.14-90.7-40.74-43.8-96.67-85.5-166.34-123.9-11.49-6.4-42.72-21.4-92.75-44.5-21.88-10.1-40.52-19.4-55.41-27.6l-3.29-1.9-12.64-43.5 15.67 4.2c61 16.1 107.32 29.5 137.67 39.8" style="fill:#fff;fill-opacity:1;fill-rule:nonzero;stroke:none" transform="matrix(.2553 0 0 -.2553 0 4965.293)"></path><path d="m7542.13 16130.4 216.56-6.4 35.91 167.4-213.45 8.6z" style="fill:#fff;fill-opacity:1;fill-rule:nonzero;stroke:none" transform="matrix(.2443 0 0 -.2443 0 4965.293)"></path><path d="m7672.81 16132.1 212.98-5.8 33.66 167-210.71 6.7z" style="fill:#fff;fill-opacity:1;fill-rule:nonzero;stroke:none" transform="matrix(.24678 0 0 -.24678 0 4965.293)"></path><path d="m7454.09 16275.9-197.52 24.1-49.01-154.5 200.62-22.3z" style="fill:#fff;fill-opacity:1;fill-rule:nonzero;stroke:none" transform="matrix(.26225 0 0 -.26225 0 4965.293)"></path><path d="m7592.94 16277.8-195.46 22.2-46.08-153.4 197.63-21.5z" style="fill:#fff;fill-opacity:1;fill-rule:nonzero;stroke:none" transform="matrix(.26447 0 0 -.26447 0 4965.293)"></path><path d="m8525.19 16142.9 205.65-39.5 59.09 156.7-203.25 39.9z" style="fill:#fff;fill-opacity:1;fill-rule:nonzero;stroke:none" transform="matrix(.25111 0 0 -.25111 0 4965.293)"></path><path d="m8363.97 16142.1 208.54-40.4 61.16 156.2-205.16 42.1z" style="fill:#fff;fill-opacity:1;fill-rule:nonzero;stroke:none" transform="matrix(.24916 0 0 -.24916 0 4965.293)"></path><path d="m8882.66 16232.9-183.41 67.1-81.28-136.7 186.71-66.1z" style="fill:#fff;fill-opacity:1;fill-rule:nonzero;stroke:none" transform="matrix(.26723 0 0 -.26723 0 4965.293)"></path><path d="m9059.9 16235-182.4 65-78.56-136.8 184.68-64.8z" style="fill:#fff;fill-opacity:1;fill-rule:nonzero;stroke:none" transform="matrix(.26865 0 0 -.26865 0 4965.293)"></path><path d="M9025.18 15510.1c-5.22 95.9-18.27 165.4-38.86 206.5-13.98 27.8-45.9 64.3-97.47 111.6l-8.32 7.6-78.9-151.4 5.66-4.4c50.98-39.8 83.53-70.8 96.83-92.2 18.52-29.3 29.9-73.1 33.79-130.1l-414.75-22.6-1.14 8.8-193.02 597.4 42.51-5.7 2.26 6.7c5.62 16.7 9.02 40.5 10.44 72.6 1.38 31.3.3 60.8-3.15 87.7l-.83 6.3-6.21 1.1c-35.41 6.4-70.33 12.8-103.43 19-41.18 9.1-62.89 26.7-66.39 53.7l-.64 4.9-28.82 12.4-3.15-8.6c-12.06-32.8-20.09-66.5-23.93-100.2-3.8-33.7-3.3-69.6 1.47-106.8l.79-5.9 54.87-13.5 200.11-646.2-307.48-39.6-9.95 48.4c-19.36 94.1-42.55 160.9-69 198.5-17.93 25.4-54.87 56.8-112.89 95.9l-9.36 6.3-55.6-161.4 6.25-3.5c56.3-31.8 93.04-57.7 109.39-76.9 22.66-26.2 40.34-67.8 52.65-123.7l-407.46-83.8-13.4 46.1c-26.94 92.2-55.46 156.9-84.81 192.3-20 23.9-59.35 52.2-120.32 86.5l-9.8 5.5-42.41-165.3 6.5-3.1c58.71-27.1 97.47-49.9 115.25-67.8 24.73-24.3 45.76-64.3 62.55-119l-399.34-116.4-17.09 44.8c-34.28 89.7-67.97 151.9-100.08 184.8-21.87 22.2-63.39 47.2-126.92 76.4l-10.25 4.7-28.86-168.2 6.75-2.5c60.68-22.3 101.12-41.9 120.32-58.2 26.6-22.2 50.78-60.4 71.96-113.6l-393.72-150.3-17.14 31.1-399.14 484.7 41.76 10.3-.49 7.2c-1.38 19.3-6.2 44.7-14.38 75.5-8.27 31-18.62 57.9-30.78 80l-3.11 5.6-115.69-25.1c-45.66-8.8-74.17-1.5-87.32 22.2l-2.37 4.3-31.37 1 .2-9.1c.88-35 5.76-69.3 14.62-102.1 8.82-32.7 22.51-65.9 40.64-98.7l2.85-5.2 56.05 7.6 428.69-524.6-545.71-301.4c-95.21-52.6-172.53-85.2-229.91-97.1-74.67-15.5-123.82.2-150.27 48-9.36 17-16.45 36.8-21.03 58.9-4.63 22.5-7.24 57.5-7.68 104.2l-.05 9-54.18-3.3-.39-7.7c-2.66-53.6-3.75-89-3.25-108 1.72-68.6 14.48-124.9 37.82-167.2 36.55-66.1 91.61-99.6 163.96-99.6 6.26 0 12.61.3 19.16.8 74.27 5.7 182.53 47.6 321.77 124.5l569.6 314.6 540.94 191.4 473.36 138 464.55 95.6 443.91 57.2-.1.6 492.96 26.8z" style="fill:#fff;fill-opacity:1;fill-rule:nonzero;stroke:none" transform="matrix(.27071 0 0 -.27071 0 4965.293)"></path><path d="M9322.57 16166.7c-23.85-7.1-33.52-9-37.45-9.4-5.83-.6-15.89-.8-29.83-.4-20.3.5-45.17 7.8-73.98 21.7-34.1 16.4-39.2 24.2-39.93 25.9.44.7 2.97 4.2 15.45 8 13.21 4.1 26.77 6 40.12 5.7 21.57-.5 41.83-8 60.19-22.1l6.65-5.1 5.2 6.6c7.72 9.7 13.84 18.6 18.12 26.5 4.76 8.8 7.28 17.6 7.53 26.3.34 14.4-5.3 26.3-16.76 35.4-10.74 8.5-23.76 13-38.67 13.4-31.42.8-67.95-15.5-108.8-48.4-38.33-31.1-56.4-54.6-56.88-74.1-.34-13.9 7.43-27.1 22.97-39 6.9-5.5 15.88-11.2 26.81-17-55.95-17-83.54-37.9-84.22-63.6l-.3-11.2 166.03 41.7-11.95-17.9c-15.25-22.8-31.91-48-49.54-74.9-17.34-26.6-33.08-51.6-46.73-74.5l-1.51-2.5.39-3c9.33-67.3 17.88-134.4 25.4-199.4 12.25-107.2 22.69-211.3 30.95-309.3 8.21-98 11.7-175.3 10.34-229.6-.19-6.5-1.31-19.9-3.44-39.7-2.14-19.8-4.38-37.5-6.66-52.5l-.97-6.3 29.43-14.1 4.23 5.6c34.49 46 56.44 78.8 67.03 100.2 20.45 40.2 31.38 82.5 32.5 125.8 1.36 53.4-2.62 133.6-11.71 238.2-7.04 84.1-17.39 179.7-30.7 284.2-13.3 104.4-24.58 187.9-33.51 248.3l-3.16 21.5 28.27 7.1c28.47 7.4 49.35 14.3 63.97 21.2 23.51 11.5 35.66 25.7 36.05 42.3l.34 11.7z" style="fill:#fff;fill-opacity:1;fill-rule:nonzero;stroke:none" transform="matrix(.2745 0 0 -.2745 0 4965.293)"></path><path d="m10944.3 16163.9 120.3-98.8 144.6 116.5-153.2 118.4-115.6-96.7-127.2 95.7-136.8-110.3 158-127.2z" style="fill:#fff;fill-opacity:1;fill-rule:nonzero;stroke:none" transform="matrix(.27004 0 0 -.27004 0 4965.293)"></path><path d="m13094.5 16098.6-172.2 201.4-197.7-115.3 173.9-200.3z" style="fill:#fff;fill-opacity:1;fill-rule:nonzero;stroke:none" transform="matrix(.25775 0 0 -.25775 0 4965.293)"></path><path d="m16300 15997.4-109.2 267.4-244-51.5 111.2-267z" style="fill:#fff;fill-opacity:1;fill-rule:nonzero;stroke:none" transform="matrix(.23645 0 0 -.23645 0 4965.293)"></path><path d="M13190.2 14629.1c66.8 32 118.9 53.1 156.3 63.2s63.1 9.8 77-1q16.05-12.45 12.3-48.9c-2.6-24.3-8.2-42.1-16.9-53.3-11.8-15.2-34-19.9-66.9-14.2-32.8 5.7-86.8 23.8-161.8 54.2m-74.1-500.9c-7.4-9.5-19.2-8.1-35.2 4.4-47.1 36.5-80.2 84.5-99.1 144.2-19 59.6-18 111.8 2.9 156.5q101.4-109.65 133.2-196.5 26.25-72.3-1.8-108.6m-886.8 1039.3c122.7 8.5 214.3 10.9 274.7 7 60.4-3.8 110.7-15.6 150.8-35.3 44.3-21.9 81.6-47.3 112-76.2 36.3-35 49.1-63.5 38.2-85.6q-36.9-75.15-336.9 72.6zm-1142.5 694.8c-33.5-9.8-58.9-15.9-76.4-18.3s-33.4-1.7-47.8 2.1c-22.2 6-44.3 14.1-66 24.5-21.8 10.3-31.7 19.2-29.7 26.6 1.5 5.8 10.4 12.8 26.6 20.9 12.8 6.2 28.6 12.5 47.1 18.9 25.1 7.4 57.7 14 97.8 19.7 13 1.6 31.1 3.6 54.2 5.9zm3305.9-2447.4 312.7 415.4 15.1-35.2c29.7 5.8 61 15.1 94 27.9s64.8 28.3 95.3 46.5c-21.7 53.7-34.9 95.1-39.6 124.1-5.8 32.6-1.8 54.8 11.9 66.6 12.6 7.2 20.1 11.9 22.6 14l-15.6 48.3c-67.8-9.2-122.6-21.5-164.3-36.8-32.8-12.2-61.5-28.8-85.9-49.9l16.3-71.8-342-456.7-248.4 288.5c67.1 68.8 111.5 127.3 133.4 175.3 22.4 49.3 31.8 108.3 28.1 177.1l-194.9-82.2c2-51.1 1.7-85.3-1.1-102.5-4-32.1-16.4-64.1-37.2-95.8l-345.4 339.8-157.9 134.6c-27.3 21.2-57.6 43.4-90.9 66.8s-71.5 47.6-114.6 72.7c67.6-23.3 129.8-25.9 186.8-7.7 52.1 16.4 97.6 49.7 136.4 99.9 28.2 36.3 48 79.7 59.7 130.2 13.7 58.6 6.8 98.5-20.5 119.6-33.7 26.2-90.3 29.5-169.6 10-90.4-22.8-215.8-76.2-376-160.4-15.1 8.2-41.8 22.3-80.3 42.4-33.3 18.9-64.4 39.6-93.4 61.9l-45 34.9 53.5 108.8c44.7 90.8 54.5 170.4 29.3 238.9-21.6 58.8-66.5 105-134.5 138.5-41.3 20.4-89.5 30.7-144.5 30.9q-36.15.45-109.8-4.5l-419.2-27.8c-69.3-4.3-119-5.1-149-2.5-30.1 2.6-60 11.2-89.7 25.9-29.8 14.6-50.1 34.1-60.9 58.3-10.7 24.1-9.2 50.2 4.6 78.2 9.7 19.6 23.7 45.1 42.1 76.3 5.9 10.5 14.1 24.1 24.7 40.9l-58.4 37.8c-52.3-75.4-107.9-119.4-166.9-131.8-28.6-6.1-58.4-4.2-86.8 1.9-37 7.9-212.5 46.3-262.9 59.9-25.3 6.7-50.5 13.9-75.9 20.3-27.5 7.3-46.7 22-57.6 44.2-16.9 33.9-22.5 91.8-16.8 173.5l37.8 519.9c-41.4-37.1-72-69.3-91.5-96.6-19.6-27.4-32-51.1-37.4-71.1-1.9-6.9-3.3-14.3-4.3-22.2-1.1-8-1.6-15.9-1.7-23.8l-58.5-10.7c-51.6-9.5-91.7-17.7-120.3-24.8-47.9-11.6-82-22.3-102.2-32.2-25-12.6-70.4-50.7-136.2-114.4-65.7-63.7-100.5-102.7-104.3-117-2.5-9.5 1.6-17.7 12.4-24.5 10.8-6.9 40.6-21.3 89.4-43.4l114.7-51c18.1-8.2 33.4-14 45.8-17.3 24.3-6.5 58-1.1 101.1 16.3q44.7 17.7 129.3 66.6c-15.5-100.1-13-182.9 7.3-248.3 15.3-47.7 39.9-84.3 73.8-109.7 17.5-13.2 38.1-22.9 61.6-29.2 31.4-8.4 299.2-70.3 341.3-71.9 43-1.6 94.7 9.8 155.1 34.3-1.1-48.2 6.9-87.4 24.2-117.5 17.3-30.2 47.4-55.9 90.6-77.1l886.8-457.5 183.2-141.8c-69-89.1-101.1-186.2-96.3-291.2 4.7-105.1 44.3-186.4 118.8-244.1 29.9-23.2 62.1-32.6 96.2-28.3q51.3 6.45 147.9 61.5c33.7 18.1 56.4 31.3 68 39.7 20.6 14.4 37.4 30.1 50.5 47 13.7 17.7 15.8 39.3 6.4 64.6-12.7 23.6-25.1 47.4-37.3 71.4 26.5-17.8 46.3-31.5 59.3-41.3 13-9.7 25.7-19.3 38-28.9l102.4-82.2 438.4-431.3 329.5-382.8z" style="fill:#fff;fill-opacity:1;fill-rule:nonzero;stroke:none" transform="matrix(.26507 0 0 -.26507 0 4965.293)"></path><path d="M15867.7 14141.5c64.5 58.8 137.6 132.7 219.2 221.9l213.1 236.4q-111.3-5.7-184.2-17.1c-48.6-7.5-80.2-16.6-94.8-27.4-10-7.2-25.7-24.1-47-50.5-61.4-75.2-116.1-137.2-164.4-186-48.3-48.6-98.3-96.3-149.9-143-51.7-46.6-92-80.5-120.8-101.6-38-27.6-92.4-56.6-163.3-86.7l21.4-65.3c84.5 7.7 148.6 18.1 192.4 31.1 43.8 13.1 86.8 35 129 65.8 49.8 36.3 99.5 77.1 149.3 122.4" style="fill:#fff;fill-opacity:1;fill-rule:nonzero;stroke:none" transform="matrix(.24724 0 0 -.24724 0 4965.293)"></path><path d="m16171.5 12611.1-145.5 36.2-9.6-186.1 139.6-36-6.2-184.8 143-34.7 7.2 187.5-136.3 37.2z" style="fill:#fff;fill-opacity:1;fill-rule:nonzero;stroke:none" transform="matrix(.24235 0 0 -.24235 0 4965.293)"></path><path d="M15940.7 11494.8c2.9 27.8-8.8 77.3-35.2 148.6-4.2 9.6-8 19.1-11.5 28.6s-7.1 19.1-10.7 28.9c-13.8 37.3-22.4 65.3-25.7 84.1-4.5 26.6-.9 42 10.7 46.3 22.2 8.2 60.9-12.5 116.2-62.3q82.95-74.55 102.6-127.5c8.5-22.9 9.2-42.4 2.4-58.7-6.9-16.3-25.8-40.2-56.7-71.8 39.8-12 70.6-18 92.2-18.2 21.7-.1 47 5.2 76.1 15.9 39.6 14.7 67.1 37.5 82.6 68.5s16.3 65.5 2.3 103.3c-16.9 45.8-48.5 87.3-94.7 124.4-46.1 37.2-105.7 69.3-178.8 96.5-48 17.9-94.1 29.7-138.2 35.3s-78.2 3.8-102.5-5.1c-51.2-18.9-81.2-45.7-90.1-80.1-10.6-42.6 2.7-114.2 40-214.9 4.8-13 12.4-35.7 22.9-67.9 10.4-32.1 12.9-49.2 7.6-51.1-10-3.8-26.8 6.7-50.3 31.5q-4.65 4.95-75.3 89.1c-29.3 35.3-54.2 66.9-74.8 94.9-31.6 43.3-60 87-85 131.3-25.1 44.2-47.3 92.4-66.6 144.7-51.6 139.2-27.5 227.3 72.3 264.2 38.5 14.2 88 18.8 148.4 13.7 60.4-5.2 132.6-19.6 216.4-43.6l7.1 53.9c-133.4 44.2-234.9 67.9-304.5 71.2-62.3 2.9-130.6-9.4-205.1-36.9q-220.8-81.75-108-386.7c26.8-72.5 66.6-146.7 119.3-222.7 52.8-76 111.2-146.3 175.3-211 51-51.7 115.5-81.7 193.6-89.9 61.9-6.8 121.3.3 178.4 21.4 29 10.8 44.7 28.1 47.3 52.1" style="fill:#fff;fill-opacity:1;fill-rule:nonzero;stroke:none" transform="matrix(.25769 0 0 -.25769 0 4965.293)"></path><path d="M16132.1 10350.9c75.8 51.4 131.7 125.4 167.9 221.9l-265.8 25.2c-18.1-61.5-43.9-111.5-77.5-150.2-40.3-46.9-98.7-85.4-175.1-115.6l-64.1 344.6c-4.9 26-4.7 49 .5 69 5.1 19.9 16.7 34.3 34.6 43.2l-8.7 37.7c-29.2.9-57.8.1-85.9-2-28-2.1-53.9-5.3-77.6-9.8-41.5-7.7-68.8-27.6-81.8-59.8-10.7-26.1-12-61.2-3.8-105.3l84.5-453.7 259.6 48.4c125.7 23.4 223.4 58.9 293.2 106.4" style="fill:#fff;fill-opacity:1;fill-rule:nonzero;stroke:none" transform="matrix(.2644 0 0 -.2644 0 4965.293)"></path><path d="M15604.6 9736.78c41.9 22.21 119 37.97 231.3 47.23l158.8 13.14c75.7 6.29 137.3 20.42 184.7 42.42 40.6 18.79 80.8 49.22 120.6 91.34l-210.3 91.09c-23.8-33.44-42.3-55.05-55.5-64.87-27.6-20.37-67.4-32.66-119.5-36.97l-229.7-19.03c-134.8-11.15-229.1-38.36-282.9-81.68-48.7-38.81-69.8-97.19-63.3-175l7.9-95.9 9.6-588.74 210.9 3.42c98.7 1.58 172.9 11.99 222.7 31.17 49.9 19.18 97.3 54.12 142.3 104.92l-193.7 76.97c-33.9-37.27-57.8-61.01-71.6-71.27-25.1-19.72-55.9-33.6-92.4-41.53l-7.4 459.19 2.4.2-3 36.52-.5 30.63-2-.05-6.1 72.61c-2.6 31.92 12.9 56.65 46.7 74.19" style="fill:#fff;fill-opacity:1;fill-rule:nonzero;stroke:none" transform="matrix(.26903 0 0 -.26903 0 4965.293)" data-source="https://football-logos.cc"></path><path d="m16115.7 9302.16-94.7-235.33 182.8-116.98 96.2 234.4z" style="fill:#fff;fill-opacity:1;fill-rule:nonzero;stroke:none" transform="matrix(.26957 0 0 -.26957 0 4965.293)"></path><path d="m12134.9 7147.6 367.2-188.1c238.1-122 391.9-188.1 461.5-198.3 69.5-10.3 133.7.6 192.4 32.6s107 84.9 144.8 158.7c42.3 82.7 54.5 160.8 36.4 234.3s-64 137.5-137.6 192.2c-37.3 26.2-156.6 90.8-357.8 193.9l-387.3 198.4zM10912 5983.4l1259.2 2457.9 1044.5-535.1c262.7-134.5 442.3-254.4 538.7-359.5 96.4-105.2 151.5-232.5 165.2-382.1 13.7-149.5-16.7-296.9-91.1-442.2-94.5-184.5-226.8-309-396.7-373.6-170-64.6-370.9-57.3-602.6 21.9 75.2-117.6 128.6-231.7 160.1-342.4 31.4-110.6 57.5-291.9 78.1-543.7l54.4-633.3-593.5 304.1-84.8 718.6q-44.25 384.6-76.5 495.3c-21.4 73.8-53.7 133.4-96.8 178.8-43.1 45.3-121.6 97.2-235.6 155.6l-100.6 51.5-525.7-1026.1zM13925.1 4622.1l159.4 504.8 504.8-159.4-159.4-504.8z" style="fill:#fff;fill-opacity:1;fill-rule:nonzero;stroke:none" transform="matrix(.13333 0 0 -.13333 0 4965.293)"></path><path d="m15699.5 4449.67 463-220.98c-111.8-259.71-263.2-443.15-454.2-550.17-190.9-107-419.2-142.1-684.7-105.11-328.6 45.69-583 195.48-763.3 449.4-180.3 253.91-243.3 575.57-189.3 964.9 57.4 411.76 208.2 716.87 452.6 915.06 244.3 198.29 539.8 273.37 886.4 225.15 302.7-42.15 536-165.81 700.2-371.05 97.8-121.4 161-285.03 189.8-490.91l-511-49.3c-11.4 132.34-58.3 242.06-140.8 329.26s-190.2 140.03-323 158.48c-183.3 25.51-341.3-19.63-473.9-135.41-132.5-115.7-219.2-321.04-260.3-615.83-43.5-312.81-18.3-543.38 75.8-691.82s231.1-235.18 411.1-260.24c132.8-18.46 252.9 7.86 360.3 78.88 107.4 71.09 194.5 194.3 261.3 369.69" style="fill:#fff;fill-opacity:1;fill-rule:nonzero;stroke:none" transform="matrix(.1474 0 0 -.1474 0 4965.293)"></path><path d="m15852.7 3262.99-11.7 447.3 447.3 11.75 11.7-447.3z" style="fill:#fff;fill-opacity:1;fill-rule:nonzero;stroke:none" transform="matrix(.15775 0 0 -.15775 0 4965.293)"></path><path d="m15430.6 3769.03-406.8 667.15-121.9-769.93zm869.4-626.55-425.6-82.77-254.8 407.27-774.5-150.53-74.4-471.24-415-80.69 378.1 2084.36 413.7 80.41z" style="fill:#fff;fill-opacity:1;fill-rule:nonzero;stroke:none" transform="matrix(.18655 0 0 -.18655 0 4965.293)"></path><path d="m15964.5 3190.72-126.2 335.57 335.5 126.24 126.2-335.57z" style="fill:#fff;fill-opacity:1;fill-rule:nonzero;stroke:none" transform="matrix(.19688 0 0 -.19688 0 4965.293)"></path><path d="m15109 3152.17-149.6 267 237.2 1382.46-683-382.67-139 248.01 1073 601.12 128.9-230-248.9-1438.94 834 467.32 138.4-247.05z" style="fill:#fff;fill-opacity:1;fill-rule:nonzero;stroke:none" transform="matrix(.21913 0 0 -.21913 0 4965.293)"></path><path d="M8149.41 15323.2s361.47 961.4 1245.96 976.8c-243.58-201.7-622.98-546.9-622.98-546.9s-336.66-316.2-622.98-429.9" style="fill:#3844a1;fill-opacity:1;fill-rule:nonzero;stroke:none" transform="matrix(.21557 0 0 -.21557 0 4965.293)"></path><path d="M8446.3 16300s-807.98 0-856.69-1682.1c428.31 268.2 752.21 505 752.21 505s484.08 261.2 609.42 689.6c-675.9-581.6-982.03-564.2-982.03-564.2s-149.79 210.6 477.09 1051.7" style="fill:#3844a1;fill-opacity:1;fill-rule:nonzero;stroke:none" transform="matrix(.21159 0 0 -.21159 0 4965.293)"></path><path d="M7813.81 16300s-809.73-587.9-382.68-2268.4c105.64 129.4 210.61 259.2 315.11 389.4 59.01 73.5 117.81 154 182.71 225.1 70.32 76.9 154.95 134.8 231.49 204.8 154.61 141.3 295.31 303.9 393.59 489.8 21.61 40.9 41.08 82.8 57.73 125.9 6.43 16.5 30.58 128.6 41.35 132.7-432.6-164.5-1013.04-713.6-1013.04-713.6 4.41 4.2-5.29 52-5.76 58.2-3.88 52.7-4.82 105.7-3.28 158.5 7.29 251.9 96.21 496.2 132.2 745 21.68 149.8 40.48 300.9 50.58 452z" style="fill:#3844a1;fill-opacity:1;fill-rule:nonzero;stroke:none" transform="matrix(.1993 0 0 -.1993 0 4965.293)"></path><path d="M7717.51 16300s-747.97-990.5 238.96-2639.1c346.85 797.1 552.15 1177.5 552.15 1177.5s374.46 688.6 354.35 1022.7c-531.53-286.6-855.58-1324.6-855.58-1324.6s-380.5 354.3-289.88 1763.5" style="fill:#3844a1;fill-opacity:1;fill-rule:nonzero;stroke:none" transform="matrix(.18302 0 0 -.18302 0 4965.293)"></path><path d="M8145.82 16300c-.06-.1-720.73-1108.5 1407.64-2876.5 0 0-40.85 1033.7 68.01 1438.3 108.77 404.5 0 1241 0 1241s-387.6-564.5-439.2-1570.8c-84.9 177.4-218.44 335.4-342.47 486.4-154.14 187.9-316.72 346.5-433.37 562.7-56.44 104.6-107.3 212.4-150.36 323.1-25.27 65-47.91 130.9-66.78 198-9.24 32.8-61.94 169.3-43.47 197.8" style="fill:#3844a1;fill-opacity:1;fill-rule:nonzero;stroke:none" transform="matrix(.16254 0 0 -.16254 0 4965.293)"></path><path d="M10615.7 14977.9c-176.4-38.3-352.4-78.1-528-119.5-96.36-22.8-192.69-45.9-288.73-69.6-553.4 741.6-590.35 1511.2-590.35 1511.2 345.93-639.4 978.18-1080.1 1407.08-1322.1" style="fill:#3844a1;fill-opacity:1;fill-rule:nonzero;stroke:none" transform="matrix(.14396 0 0 -.14396 0 4965.293)"></path><path d="M10994.7 14415.7q-227.1-41.85-453.3-87.3c17.3 307 31.6 894.9 4.6 1971.6.2-9.9 114.9-118.2 128.3-140.6 46.8-78.2 79.6-165.2 108.4-251.3 71.4-213.3 115.1-436 152-657.4 47.4-285.8 101.5-545.2 60-835" style="fill:#3844a1;fill-opacity:1;fill-rule:nonzero;stroke:none" transform="matrix(.15149 0 0 -.15149 0 4965.293)"></path><path d="M14884.2 15323.2s-361.5 961.4-1246 976.8c243.6-201.7 623-546.9 623-546.9s336.7-316.2 623-429.9" style="fill:#3844a1;fill-opacity:1;fill-rule:nonzero;stroke:none" transform="matrix(.21557 0 0 -.21557 0 4965.293)"></path><path d="M15020.4 16300s807.9 0 856.6-1682.1c-428.3 268.2-752.2 505-752.2 505s-484 261.2-609.4 689.6c675.8-581.6 982-564.2 982-564.2s149.8 210.6-477 1051.7" style="fill:#3844a1;fill-opacity:1;fill-rule:nonzero;stroke:none" transform="matrix(.21159 0 0 -.21159 0 4965.293)"></path><path d="M15563.1 14834.4s736.9-535 348.2-2064.4c-96.1 117.7-191.6 235.9-286.7 354.4-53.7 66.8-107.2 140.1-166.3 204.8-64 70-141.1 122.7-210.7 186.4-140.8 128.6-268.7 276.5-358.2 445.7-19.6 37.2-37.4 75.4-52.6 114.6-5.8 15-27.8 117.1-37.6 120.8 393.7-149.7 922-649.4 922-649.4-4 3.8 4.8 47.2 5.2 52.9 3.6 48 4.4 96.2 3 144.2-6.6 229.3-87.5 451.6-120.3 678.1-19.8 136.3-36.8 273.8-46 411.3z" style="fill:#3844a1;fill-opacity:1;fill-rule:nonzero;stroke:none" transform="matrix(.21898 0 0 -.21898 0 4965.293)"></path><path d="M15695.3 13178.8S16300 12378 15502 11045c-280.4 644.5-446.4 952.1-446.4 952.1s-302.7 556.7-286.5 826.9c429.8-231.7 691.8-1071 691.8-1071s307.6 286.5 234.4 1425.8" style="fill:#3844a1;fill-opacity:1;fill-rule:nonzero;stroke:none" transform="matrix(.22636 0 0 -.22636 0 4965.293)"></path><path d="M15791.9 11490.3s508.1-781.4-992.2-2027.68c0 0 28.7 728.68-48 1013.88s0 874.8 0 874.8 273.2-397.9 309.6-1107.3c59.9 125.1 154 236.5 241.4 342.9 108.7 132.4 223.3 244.3 305.5 396.7 39.8 73.7 75.7 149.7 106 227.7 17.8 45.8 33.7 92.3 47.1 139.6 6.5 23.1 43.7 119.4 30.6 139.4" style="fill:#3844a1;fill-opacity:1;fill-rule:nonzero;stroke:none" transform="matrix(.23058 0 0 -.23058 0 4965.293)"></path><path d="M16300 10503.5c-110.5 22.3-221.3 43.7-332.3 64-30.3 212.5 9.2 402.7 44.1 612.2 26.9 162.3 59 325.5 111.3 481.9 21.1 63.1 45.2 126.9 79.5 184.2 9.8 16.4 93.9 95.9 94 103.1-19.7-789.4-9.2-1220.3 3.4-1445.4" style="fill:#3844a1;fill-opacity:1;fill-rule:nonzero;stroke:none" transform="matrix(.20665 0 0 -.20665 0 4965.293)"></path><path d="M16300 10509.1s-23.8-496.2-380.6-974.34c-61.9 15.28-124 30.21-186.1 44.9-113.1 26.69-226.7 52.37-340.4 77.03 276.6 156.03 684.1 440.11 907.1 852.41" style="fill:#3844a1;fill-opacity:1;fill-rule:nonzero;stroke:none" transform="matrix(.22329 0 0 -.22329 0 4965.293)"></path><path d="M16300 12526.8c-204.7 19.5-409.7 36.5-615.1 51-146.7 278.9-210.8 582.5-243.2 910.6 54.4-35.8 62.1-79.6 78.4-119.2 101.2-245 223.5-476.8 427.9-653.8 106.2-91.9 225-151.5 352-188.6" style="fill:#3844a1;fill-opacity:1;fill-rule:nonzero;stroke:none" transform="matrix(.17865 0 0 -.17865 0 4965.293)"></path><path d="M14386 15847.8c-169-22.8-320.8-105.9-486.8-139.7-48.3-9.8-96.2-21.4-152.2-19.4 207.4 206.9 445 376.2 660.6 611.3 6.6-128.7-53.3-241.9 50.6-312.4 99.3-31 170.2 39.5 258.1 57.3-82.6-166.4-360.6-377.1-558.7-417.5 86.7 80.9 186.7 117.9 249.9 198.4 8.7 7.6 20 14.2 12.1 26.9-14.1 10.4-24.1 3.9-33.6-4.9" style="fill:#3844a1;fill-opacity:1;fill-rule:nonzero;stroke:none" transform="matrix(.18406 0 0 -.18406 0 4965.293)"></path><path d="M16300 13710.7c-80.9 3.6-162 6.8-243.1 9.5-15.9 277-69.6 545-115.1 818.2 179.1-83.6 341.4-485.7 358.2-827.7" style="fill:#3844a1;fill-opacity:1;fill-rule:nonzero;stroke:none" transform="matrix(.1644 0 0 -.1644 0 4965.293)"></path><path d="M14358.7 16300c-34.9-276.6-189.3-492.9-346.1-714-71.4-7.5-142.7-15.2-214.1-23.3 250 207.6 374.1 494.8 560.2 737.3" style="fill:#3844a1;fill-opacity:1;fill-rule:nonzero;stroke:none" transform="matrix(.14329 0 0 -.14329 0 4965.293)"></path><path d="M15365.1 16300c273-36.9 503.9-153.4 685.6-363.4-241.7 96.1-454.2 247.6-685.6 363.4" style="fill:#3844a1;fill-opacity:1;fill-rule:nonzero;stroke:none" transform="matrix(.1764 0 0 -.1764 0 4965.293)"></path><path d="M16216.6 14812.8c9.1 271.6-27.5 541-49.1 811.5 107.3-263.5 132.5-533.1 49.1-811.5" style="fill:#3844a1;fill-opacity:1;fill-rule:nonzero;stroke:none" transform="matrix(.18582 0 0 -.18582 0 4965.293)"></path><path d="M15827.8 15275.1c248.5 39.2 472.2-209 461.3-520.3-48.8 279.5-243.3 406.6-461.3 520.3" style="fill:#3844a1;fill-opacity:1;fill-rule:nonzero;stroke:none" transform="matrix(.18255 0 0 -.18255 0 4965.293)"></path><path d="M12733.9 16299.6c-.2.1-.4.3-.6.4-.4-.9-.7-1.8-1.2-2.6z" style="fill:#3844a1;fill-opacity:1;fill-rule:nonzero;stroke:none" transform="matrix(.18256 0 0 -.18256 0 4965.293)"></path><path d="M12893.1 16298.4c.8.1 1.5.1 2.2.2-.1.5-.3.9-.4 1.4z" style="fill:#3844a1;fill-opacity:1;fill-rule:nonzero;stroke:none" transform="matrix(.1807 0 0 -.1807 0 4965.293)"></path><path d="M15151.1 16300s506.2-93.6 705-485.8c-363.5 298.3-705 485.8-705 485.8" style="fill:#3844a1;fill-opacity:1;fill-rule:nonzero;stroke:none" transform="matrix(.18743 0 0 -.18743 0 4965.293)"></path><path d="M16131.3 14169.4c13.6 169.8 28.9 425 10.4 551.4 99.6-130 141.2-385.8 158.3-555.1-56.2 1.4-112.5 2.6-168.7 3.7" style="fill:#3844a1;fill-opacity:1;fill-rule:nonzero;stroke:none" transform="matrix(.15932 0 0 -.15932 0 4965.293)"></path><path d="M15372.3 16300c-55.6-141.6-76-292.5-83.4-397.6-157.6-11.2-315-23.6-472.3-37.2 204.9 249.1 555.7 434.8 555.7 434.8" style="fill:#3844a1;fill-opacity:1;fill-rule:nonzero;stroke:none" transform="matrix(.14128 0 0 -.14128 0 4965.293)"></path><path d="M12104.3 15168.5c-3.1-67.4-66.2-122.7-137.5-120.4-71 2.6-132.9 63.2-130.8 128.1 2 62.9 70.7 122.4 138.9 120.9 70-1.5 131.9-63.4 129.4-128.6m1372.1-1098.7c-479.8 150.9-917.2 87-1296.4-262.7-62.1-57.4-122.4-116.4-185.3-172.7-32.2-29.2-62.6-63.7-125.2-79.6 0 0 0 .2.2.9 2.3 17.5 161 308.7 473.9 502.2 16.3 8.5 33.5 16.7 51 25.1 0 0-192.5 72.5-488.4-53.6-6.3-2.5-12.7-5.3-19-8-77.9-33.5-152.5-77.2-224.5-127.4-2.9-1.9-5.8-4-8.8-6.1-2.6-1.7-5.3-3.8-7.8-5.5-5.9-4.1-11.8-8.4-17.6-12.7-110.3-79.1-218-162.3-320.2-252.6-5.2-4.5-9.7-8.3-14.2-12.7-62.5-53.7-125.4-97-186.2-132.6-17.5-8.6-37.5-18.5-61.6-30.2.2-1 .2-2 .5-2.8-213-107.7-385.7-116.3-385.7-116.3 137.5-62.9 363.9-16.8 367.5-16-9.2-8.6-20.9-17.3-35.8-25.4-565.5-227.7-1162.49-352.7-1751.5-516.8 117.36 343.1 385.42 561.7 653.21 813.7-104.98-9.8-173.98-24.3-240.91-52.7-66.4-28.1-126.48-63.1-182.83-103.7-13.44-7.8-222.15-136.4-562.2-625.3-24.82-36-50.76-73.8-77.11-113.9 5.59 33.5 21.36 77.9 43.38 127.8 76.84 176.2 227.94 419.5 256.88 465.4.8 1.7 1.8 3.2 3.06 4.8.53 1 1 1.5 1.8 2.7-52.3 24.4-72.79-49.9-130.61-18.2 162.81 397.1 459.01 670.7 812.7 898.5 0 0-280.7 41-515.76-105.8 184.56 274.9 453.62 409.8 775.19 371.7 130.1-15.2 259.9-30.4 390-46.9 67.7-8.6 135.2-6.8 201.1 11.4 118.4 32.8 185.1 121.7 187.4 250.9-57.8-5.2-98.6-44.9-145.3-69.6-64.7-34-130.1-61.8-203.9-61.8-260.4-.2-520.07 38.8-800.77-7.8 65.87 107.2 155.88 114.3 238.32 137.4 80.15 22.1 172.15-12.2 253.05 45.4-161.7 106.2-319.72 24.6-496.49 2.3 0 0 77.64 82.3 190.74 166.8 73.79 55.1 162.75 110.8 255.35 144.6 13.4 5 26.6 9.6 40.1 13.4 0 0-98.4 26.9-246.54-34 .79 1.1 5.12 6.1 13.43 13.9 24.89 23.9 85.71 72.9 205.61 124.1 19.1 8.1 39.4 16.1 61.4 24.3 0 0-21.3 5.6-57.3 7.3-70.7 3.9-198.26-5.8-332.66-96 8.85 21.3 27.08 46.6 49.9 73.2 46.91 54.3 114.44 114.1 164.16 156.5 7 6.1 13.9 11.7 20.2 17 5.9 5 11.7 9.9 17.5 14.2 2.6 2 5.1 4 7.4 6.1 4 3.3 8.1 6.6 12.2 9.6 5 3.8 8.3 6.6 9.6 7.6.5.3.7.5.7.5 184.1 143.1 350.3 230.2 350.3 230.2s-65.4 24.7-120.3 26c-12.1.5-23.8-.3-34-2.8 8 6.6 16 12.8 24.7 18.7 55.3 39.1 123.7 64.9 185.9 82.2l6 1.5c54.8 13 109.6 23.1 164.3 30.2 186.2 24.3 373.6 15.4 563.6-26.2 25.1-5.5 50.4-11.1 75.5-16.4.5 0 1.3 0 1.7-.3 4.7-1 9-2 13.5-2.8 346.9-76.3 562.2-72.5 667.4-61.3 3.6.5 7.1.7 10.5 1.2 45.8 5.4 67.6 12 67.6 12-291.6 88.7-1137.3 170.4-1137.3 170.4s141.3 86.9 322.8 65.6c-29.1 36.6-104 47.7-172.7 49.7 135.7 78.1 548.3 85 548.3 85-13.2 12.9-29.7 24.1-48.2 33.5-78.6 40.7-187.1 49.4-187.1 49.4 64.9 35.5 124.5 25.6 181.5 19 140-15.9 276.2-9.1 413.4 29.4 173.1 48.7 351.2 48 527.7 15.8 365.9-67 720.7-178 1079.5-272.8 73.8-19.6 144-52.1 204.9-98.2 80.1-61.1 146.6-133.4 140-253.1-81.9 5-159 4.1-217.3 53-7.9 6.6-15.5 14.5-22.8 23.1-4.4 5.3-9 10.1-13.5 14.4-50.2 50-112.6 59.6-180.3 57.8-98.2-2.7-193-24.1-282.7-62.6-216.4-93.3-416.7-223.9-650.8-275.9-13.9-3.2-74.2-5.6-89.5-6.8-311.4-27.9-602 56-891.1 157-277.9 97.1-565.7 118.1-855.6 106.2 0 0-72 9.9-161.5-15.3-55-11.8-99.4-33.6-136.4-66.8-1-.8-2.1-1.6-2.9-2.3-65.6-50.2-126-129.1-162-252.4 0 0 172 72.6 319.1 59.9 45.1-3.8 87.9-15.5 122.7-40.1 0 0-30.7-11.6-72.6-33.2-47.9-24.9-110.9-62.7-158.7-110.6-20.2-18.2-38-39.8-51.2-67.2-1.5-2.8-3-5.8-4-8.8-1.3-2.1-2.3-4.1-2.8-6.1-1.8-4.1-3.4-8.4-4.9-12.8-1.7-4.5-3.1-9-4.1-13.6 273.9 32.5 403-7.1 403-7.1s-13.7-78.7-113.1-151.2c0 0 103.2-36.5 248.5-2.2 58 10.7 109.1 32.2 157 62.1 75.4 42.3 154.9 106.5 233 202.9 3.6-40.4 33.5-298.2 204.7-389.5-132.9 157.9-152.2 339.8-154.2 408.2 2.2-6.4 43.9-119.9 113.1-222.6 14-21.1 29.4-41.9 46.2-61.1 61.8-72 138.7-123 225.2-98.7-178.3 76.1-181.4 147.8-215.9 250.6 89.3-141.6 216.4-199.4 378.1-169.4 116.2 21.3 203.4 82.9 260.2 226.4-107-48.7-173.2-120.2-268.3-128.3-97.8-8.1-177.5 41.1-212.2 148.6 97.4-63.9 189.9-125 305.8-91.6 52.2 35 86.3 84.3 120.2 132 37.8 52.4 82.4 92 152.9 114.8 6.4-39.3 6.1-76.1 1.2-110.5-67.1-257.7-233.7-363.7-233.7-363.7 45.1 3.3 86.7 21.8 123.4 45.9 13.2-3.8 23.6-8.9 22.7-29.4-40.4-39.1-82.5-69.2-126.9-91.3-2.7-1-5.3-2.3-8.1-3.6-98.9-41.5-207.6-41.3-300.2-26.8-.6 0-1 0-1.6.2-46.9 7.1-89.7 18-125 28.9-59.1 18.3-96.6 36.1-96.6 36.1 217.6-305.4 669.7-29.2 670-28.7 131.4 73 238.9 178 312.7 324.1 54.2 107.2 134.1 155.9 251.5 151.3 37.8-1.5 75.8 1.8 113.6.6 131.6-4.4 249.3 24.8 334 135.6.8 12.5 1.8 24.6 2.6 38.3-86.5 27.4-166.9-.8-248.3-19.5-76.4-17.5-146.8-62.9-233-37.8 273 105.7 520 286.8 836 277.4-8.4-4.3-16.8-8.6-24.9-13.1-349.1-186.7-476.2-492.1-483.7-511.3 18.4 26.9 39.8 53.2 63 78.9 61.1 67.2 135.4 128.8 204.7 179.5 116.1 85.3 217.6 140 217.6 140 56.2-31 83.7-77.6 122.7-121.7 0-.8-120.7-78.6-131.6-85.7-41.6-26.6-83.4-56.8-111.6-98.2-28.4-41.5-38-97.6-31.4-146.8 7.3-53 65.9-55.8 107-46.2 62.6 14.7 97.6 58.6 137.9 105.5 35.6 41.8 68 86.5 101.8 129.9 55.5 71.5 98.6 167.1 230.4 171.7-102.4-170.8-227-303.6-339-447.1 186.1 77.5 238.1 298.2 409.5 392.8 289.4 17 511.6-132.6 702-316.8 246.7-238.8 369.6-545.1 390.7-890.5 23.6-387.2-91.5-742-246.7-1088.2-5.6-12.4-11.7-32.2-41.1-22.2-48.4 122.2-73.8 254.3-98.9 386.4-32.4 168.8-120.9 296.6-271.6 384.9-156.7 91.8-332 140.5-492 223.7-134.8 69.7-271.3 137.5-409.7 199.3-116.2 52-238.4 87.7-368.2 79.9-65-4.1-129.6-11.7-191.4-76.1 293.1.8 572.5 8.1 788.6-217.8-39.6-32.7-64.7-7.4-90.3 1.7-95.4 34-189.2 73.4-285.8 103.8m-186.9-780.6c-201.1 118.4-425.8 123.5-648.7 136.5-93 5.6-185.1 12.9-267 64.2-50.4 31.6-87.4 67.9-54.2 141.7 246.2 71.2 933.3-155.4 1049.5-343.6-26.9-28.9-56.5-12.2-79.6 1.2m-1372.9-893.6c5.8 263.5 202.8 474 447.3 452.4-229.5-90.3-405.9-207.5-447.3-452.4m395.4 73.8c-72.9-212.5-132.4-421.7 22.3-634.5-182.1 136.4-192.5 453.7-22.3 634.5m1956.4 1326c91 19 162.2-16.3 221.1-85-82.7 3.1-149.2 51.8-221.1 85m1030.5-2568.6c-180.6 102-376.3 171.2-563.2 259.2-42.6 20.3-97.9 26.1-119.4 86.3 85.4 51.2 180.8 16.1 281.4 38-252.3 130.3-499.5 233-742.2 346.9 130.6 5.3 250-48.2 404.2-65-189.4 223.7-390.5 391.3-625.3 521.6 4.5 7.2 9.1 14.1 13.7 21.1 68.9 5.8 137.6 11.7 220.6 18.5-53.8 90.3-128.5 137.2-193.5 194-65.2 57.1-160.6 80.1-204.9 166.9 44.8 27.1 89-13.2 130.1 19.5-45.1 63.1-136.7 88.7-141.5 184.1 64.4 3.8 110.3-42.3 184.9-27.4-128.7 160.1-278.8 294.4-328.5 512.2 336-61.6 670.2-139.2 960.1 105.1 94.1-58.1 135.2-147.1 163.5-240.2 33.3-108.8 54.6-221.2 83.3-331.5 8.8-33.7 13.9-68.9 26.9-101.4 5.8-15 13.3-33.4 25-44.6 22.9-21.8 52.5 11.2 66.7 27.6 368.8 417.9 518.9 905.8 431.7 1454.3-82.5 519.6-449.4 872.1-962.7 960.6-53.5 9.1-109.2 11.2-164.1 37.5-8.5 44.2-22.5 92.1-66.2 114.1-103.9 52.8-158.2 147.7-215 241.2-36 59.4-87.2 102.2-146.3 137.2-252.6 149.4-528.7 239.4-789.9 327.6-57.6-5.5-42.6-63.8-94.3-71.7-139 39.1-288.6 82.9-439 123-219.6 58.5-441 22.8-651.7-27.9-111.8-26.9-219.1-46.9-331.9-46.7-101.9.5-202.7-10.6-302.6-27.9-222.9-38.8-437.2-105.5-617.7-246.4-229.5-179.2-453.1-365.4-676.82-551.6-149.84-124.5-283.76-266.1-395.34-426-94.08-134.9-193.68-275.7-183.1-448.4 6.86-111.5-26.34-197-87.22-280.7-37.26-51.2-77.58-100.6-110.84-154.1-54.96-88.1-111.85-176.1-126.22-313.5 37.53 33 72.19 65.2 105.99 96.1 76.84 64.4 190.42 150.4 323.81 221.4 8.59-2.6 15.7-6.8 17.77-18.5-71.53-73.8-141.78-146.5-211.98-219.1-81.43-84.5-154.22-175.2-209.77-278.9-21.56-40.1-41.59-81-60.08-122v.7c-179.57-342.5-244.44-646.4-267.79-832.8-2.8-12.1-4.6-24.6-4.26-36.2-10.38-98.9-8.65-156.2-8.65-156.2s79.84 153.6 223.15 260.9c11.91 8.7 23.82 17.5 36.52 25.6-26.61-131.8-114.1-234.8-166.13-374.3 109.58 44.9 186.43 103.6 270.39 149.1 81.04 44.2 157.42 107.5 265.2 105.8-16.5-86.7-66.93-144.8-109.78-205.9-261.47-373.1-476.04-767.3-569.58-1218.5-7.59-36.3-28.15-72.3 2.26-113.9 100.2 31.8 191.74 93.6 296.73 114.9 19.83-43-22.75-78-7.51-113.2 1.92-4.5 4.85-9.1 9.04-13.6 34.47 9.9 52.96 15 64.81 25 13.1 10.9 18.02 27.7 27.47 63.8 67.47 257.9 184.36 488.4 368.73 682.9 24.35 25.9 49.7 51.2 53.76 102.9-228.21-86.7-379.84-255-546.77-408 18.23 155.2 67.73 297 148.9 426.1 140.39 223.3 316.5 423.4 522.88 588.1 201.33 160.7 428.73 286.4 668.03 380.9 74.9 29.6 151.1 56.2 228 80.2 46.2 14.4 94.3 32.7 141.9 46.2 39.2 11.2 112.9 36.7 152.2 17.5 20.7-10.1 10.2-32.2-11.6-56.8-359.4-285.7-411.6-458.1-411.6-458.1s43.3 27.9 118.8 72.3c7.1 3.8 14 8 21.1 12.4 337.9 196.7 1218 664.2 1856.5 602.2-18.3-6.9-33.7-12.2-48.7-18.5-328.9-136.8-681.4-194.1-1019.6-299.3-810.3-245-841.5-642.8-841.5-642.8 9.4 9.1 19.8 18.2 31.5 27.6 68.7 55.3 175.2 114.4 286.3 168.7 218.3 107 454.4 194.7 454.4 194.7-319.8-434.8-296.7-665.1-296.7-665.1s80 151.6 202 325.5c60 83.4 124 163.7 191.2 241.4 7.6 8.4 14.5 16.3 20.9 23.8 33.6 38.2 67.7 76 102.5 113.2 67.4 72.3 150.7 137.3 247.4 164 52.7 14.5 50.6-28.9 33.9-64.6-11.5-24.5-30.6-44.7-49.3-63.7-81.7-82.3-165.2-162.8-250.3-241.9-549.2-465.8-538.3-744.5-538.3-744.5 8.8 15.3 20.7 32.8 34.6 52.5 40.7 56.3 100.5 128.8 165.2 203.9 155.4 180.1 339.8 374.3 357 392.5l1.3 1.3c43.9 37.1 92.5 65.9 169.3 44.9-171.6-360.3-432-674.3-517-1071.1 186.2 207.4 344.7 436.4 558.2 617.4-43.4-208.2-125.6-404.2-124.3-618.9 61.1 77 81.6 169.3 111.5 258.6 53.3 158.5 115.4 312.1 258.2 415.9 52.5 38 87.5 89.3 116.7 147.3 17.2 34.8 21 82.4 77 101.6 27.9-187.3 64-369.4 146.3-537.7 99.8-203.4 261.5-364.7 393.1-384.5-4.6 7.3-112.3 176.7-177.5 438.5-88.5 252.3-68.5 509.9-1.5 771.4 2.5 10.3 4.8 20.7 10.2 29.9 9.3 32.5 20 65.2 31.9 98.1 0 0 14.2-52.3 42.3-124 47.7-120.4 135.5-296.2 264-371.2-12.2 21.5-23.3 42.6-33 63.6-36.2 76.9-57 150.9-67.7 219.7-36.2 234.8 46.2 407.7 50.7 416.8 0 0 75.4-295.6 181.1-344.4-40.3 126.8-22.5 234.9-22.5 234.9 36.5-68.8 66.4-132.4 102.4-192.2 36.8-61.2 57.6-134.7 128.6-178.1 20 173.7-81.9 338.1-30.2 524.7 128.1-122 208.7-275.1 391.3-362.3-43.2 105.6-98.4 168.8-141.6 238.5-41.3 67-107.9 124.3-91.4 218.1 66.6-10.9 85.9-87.5 161.5-89.7-21.6 99.4-96.6 187.3-29.9 295.4 93.2-74.9 138.2-171.7 180.2-266.5 53.8-121.3 136.5-211.5 246.8-280.7 23.1-14.5 59.3-17.5 58.6-57.1-45.9-28.6-100.5 20.1-148.2-17.7-7.8-84.8 21.8-153.2 87.8-210.3 86.5-74.8 182.6-136.6 273.6-205.2 42.3-31.4 93.6-54 135-119.3-109.4-1.3-199.8 43-302.8 23.5 51.7-105.2 109-184.1 217.1-223.4 132.3-47.9 260.1-107.2 398.3-165.4-69.2-40.5-144.9 12-201.1-48.6 40.6-55.3 89-94.1 139.5-131.9 156.4-117.9 335.7-194.2 510.7-278.1 73.2-35.2 145-71.6 204.8-122.6 118.9-14.8 237.7-30.7 356.2-47.5-76.9 72.5-159.8 129.9-249.1 180.4" style="fill:#3844a1;fill-opacity:1;fill-rule:nonzero;stroke:none" transform="matrix(.2004 0 0 -.2004 0 4965.293)"></path><path d="M9859.06 16283.4c-19.8-49.9-57.3-94.6-111.42-132.6-56.11-39.4-108.37-66.5-155.41-80.4l-18.84-5.6v-212l33.84 10.1c79.26 23.6 150.97 58.1 213.79 102.8v-625.1h244.28v959.4h-199.7zM10623.1 16074.4c18.4 19.8 41 29.5 69.1 29.5 29.9 0 55.8-12.4 79.2-37.8 23.7-25.6 35.7-63.3 35.7-112.1 0-43.7-10.3-76.5-30.6-97.6-20.2-21.1-44.5-31.3-74.1-31.3-30.9 0-55.8 10.6-76.3 32.6-20.6 22.1-31.1 59.3-31.1 110.4 0 50.4 9.5 86.2 28.1 106.3m78 225.6c-99.8 0-183.2-30.7-248.2-91.1-65.6-61-98.8-142-98.8-240.8 0-94.8 31.5-173.3 93.7-233 61.9-59.4 136.5-89.5 221.9-89.5 55.4 0 105 13.7 147.9 41-10.7-76.2-27.2-110.8-40.5-126.5-22.7-26.9-49.1-39.9-80.8-39.9-25.2 0-44.3 5.9-58.6 18.2-14 12.1-22.9 32-26.6 59.3l-3.3 25.2-239.3-23.8 5.1-28.1c14.8-80.9 49.3-142.9 102.5-184.5 52.7-41.1 121.9-61.9 205.8-61.9 115.8 0 211.4 39.7 284 118.1 72.1 77.8 108.7 204 108.7 375.1 0 168.3-35.2 291.9-104.5 367.4-70 76.2-160.4 114.8-269 114.8" style="fill:#274492;fill-opacity:1;fill-rule:nonzero;stroke:none" transform="matrix(.22222 0 0 -.22222 0 4965.293)"></path><path d="M11227 16086.4h406.2c-74.9-93.4-136.7-198.1-183.9-311.9-55-132.3-84.5-264.2-87.7-391.7l-.8-27.1h238.6l-.1 26.5c-.5 76.8 13.7 165.7 42.3 264.2s70.7 192.9 125.1 280.4c54.4 87.4 108.3 155.2 160.3 201.4l8.9 7.8v164H11227zM12074.7 16300v-213.6h406.2c-74.9-93.4-136.7-198.1-183.9-311.9-55-132.3-84.5-264.2-87.7-391.7l-.8-27.1h238.6l-.1 26.5c-.5 76.8 13.7 165.7 42.3 264.2s70.7 192.9 125.1 280.4c54.4 87.4 108.3 155.2 160.3 201.4l8.9 7.8v164z" style="fill:#274492;fill-opacity:1;fill-rule:nonzero;stroke:none" transform="matrix(.222 0 0 -.222 0 4965.293)" data-source="https://football-logos.cc"></path><!-- source: https://football-logos.cc --></svg>