<svg xmlns="http://www.w3.org/2000/svg" viewBox="3 3 1270 1842"><!-- Source: https://football-logos.cc --><path fill="#FDFDFC" d="M3 254h116l4 2 3 9v189l15-9 27-16 5-3h98l-1-2 1-128h-17l-1-1v-41h158v40l-3 2h-15v130h98l13 7 30 18 6 4V257h118l5 6 1 523 3 45 5 42 8 43 9 36 12 38 10 26 13 30 14 28 12 21 15 24 14 20 13 17 13 16 11 13 24 26 12 12 8 7 14 13 11 9 14 12 32 24-1 4-14 18-11 14-9 11-12 14-13 15-7 7-7 8-5 4-17-12-18-14-11-9-28-24-10-10-8-7-20-20-7-8-11-12-9-11-9-10-10-13-15-20-22-33-13-21-14-25-10-19-13-28-12-28-11-29-13-40-9-33-8-36-7-41-4-34-2-26-1-22-1-241-25-15-24-14-58-34-27-16-12-7 1 89 1 310 2 43 5 49 6 38 7 35 9 35 9 30 12 34 10 24 11 24 17 34 14 24 13 21 13 19 14 19 11 14 4 1 11-4 20-4h34l20 4 17 6 19 10 11 8 11 9 8 8 10 13 8 13 7 15 7 23 2 13v31l-3 17-5 16-3 7 1 4 8 8 7 8 16 17 9 10 14 15 24 26 4 4v2l4-1 14-12 12-11 8-7 13-12 12-11 8-7 9-9 8-7 14-14 8-7 36-36-5-4-44-29-11-8-16-11-1-4 12-12 7-8 24-28 20-25 15-20 1-2 5 1 27 18 16 10 18 12 20 13 19 12 23 15 17 11 20 13 21 14-1 4-16 24-12 17-14 19-10 13-13 17-11 14-24 28-12 13-14 15-26 26-8 7-16 15-8 7-15 14-11 9-17 14-16 13-14 11-12 10-32 24-17 12-26 17-15 9-23 13-25 13-33 15-38 15-29 10-6-1-23-11-46-25-27-16-19-12-20-13-15-10-16-11-15-11v-2l20-12 20-13 17-11 25-16 21-14 10-7 6 1 14 9 28 17 25 14 12 6 14-6 19-10 17-10 30-20 19-14 12-9 14-11 22-18 4-4-10-3-31-14-35-15-32-14-7-3-7 4-13 8-21 8-17 4-15 2h-17l-21-3-14-4-15-6-15-8-16-12-17-17-11-16-8-15-7-19-3-14-1-7v-34l2-12-1-7-11-13-12-16-14-19-22-33-13-21-15-26-17-33-15-31-15-36-11-29-12-36-12-45-8-37-6-35-5-38-4-44-3-60V472l-26 15-22 13-87 51-8 5h-2l1 301 1 54 2 34 4 43 7 48 9 45 9 36 12 40 13 38 11 28 12 28 12 26 18 36 13 23 14 24 12 19 22 33 13 18 9 12 13 17 11 13 9 11 12 14 14 15 7 8 40 40 8 7 12 11 11 9 10 9 10 8 14 11 20 15 17 12-1 3-30 20-20 13-41 26-17 11-9-6-16-13-10-8-14-12-10-9-8-7-10-9-17-16-30-30-7-8-7-7-9-11-13-14-18-22-11-14-16-21-13-18-15-22-13-20-15-24-15-26-15-28-14-27-13-27-17-39-12-30-15-41-12-39-12-45-9-40-7-39-5-36-4-36-3-40-1-22z" data-source="https://football-logos.cc"></path><path fill="#ECAF3D" d="M47 3h61v29h92V4l2-1h209v29l90-1 1-27 1-1h229v29l94-1 1-27 2-1h215v29l94-1 1-27 1-1h76l8 7 9 8v5l-8 16-7 18-6 24-1 7v33l3 15 5 15 10 19 10 13 20 20v29l-1 1h-185l-11-11v-72l-3-12-6-10-9-7-5-2h-19l-12 5-10 9-5 9-1 4-1 86-2 1H827l-5-5-2-4-1-16-1-57-4-8-5-4-11-4 1-3 9-3 6-4 3-7-3-8-6-9-13-10-16-8-18-6-4-1h-17l-15 4-16 6-14 8-13 11-5 8 1 7 5 6 12 7v2l-14 7-3 6-1 84-1 1H557l-1-1-1-84-4-6-8-5-4-2 1-3 9-6 5-5 2-3-1-7-7-9-13-10-17-9-15-5-9-2h-16l-17 5-17 8-11 8-7 7-5 10v8l5 5 12 6v2l-11 4-7 8-1 2-1 75-6 8-2 1H252l-1-1-1-85-4-11-5-7-11-7-8-3h-17l-10 5-8 9-4 10-1 78-9 11-2 1H3v-29l10-13 10-16 9-17 7-19 4-20V97l-4-27-6-21-7-16-4-6 1-4 9-8L46 4zM3 254h116l4 2 3 9v35l-1 154-11 8-6 4-1 100 18-8 1 299 1 54 2 34 4 43 7 48 9 45 9 36 12 40 13 38 11 28 12 28 12 26 18 36 13 23 14 24 12 19 22 33 13 18 9 12 13 17 11 13 9 11 12 14 14 15 7 8 40 40 8 7 12 11 11 9 10 9 10 8 14 11 20 15 17 12-1 3-30 20-20 13-41 26-17 11-9-6-16-13-10-8-14-12-10-9-8-7-10-9-17-16-30-30-7-8-7-7-9-11-13-14-18-22-11-14-16-21-13-18-15-22-13-20-15-24-15-26-15-28-14-27-13-27-17-39-12-30-15-41-12-39-12-45-9-40-7-39-5-36-4-36-3-40-1-22zM540 257h118l5 6 1 523 3 45 5 42 8 43 9 36 12 38 10 26 13 30 14 28 12 21 15 24 14 20 13 17 13 16 11 13 24 26 12 12 8 7 14 13 11 9 14 12 32 24-1 4-14 18-11 14-9 11-12 14-13 15-7 7-7 8-5 4-17-12-18-14-11-9-28-24-10-10-8-7-20-20-7-8-11-12-9-11-9-10-10-13-15-20-22-33-13-21-14-25-10-19-13-28-12-28-11-29-13-40-9-33-8-36-7-41-4-34-2-26-1-22V559l5 1 12 6V465l-4-2-13-9z"></path><path fill="#ECAF3D" d="M735 260h58l279 1 2 1v122l-2 1H855l-5 3-2 5v44l1 266 1 1 7 1 215 1 2 2v123l-3 1H726l-1-1V267l5-5zM957 1308l5 1 27 18 16 10 18 12 20 13 19 12 23 15 17 11 20 13 21 14-1 4-16 24-12 17-14 19-10 13-13 17-11 14-24 28-12 13-14 15-26 26-8 7-16 15-8 7-15 14-11 9-17 14-16 13-14 11-12 10-32 24-17 12-26 17-15 9-23 13-25 13-33 15-38 15-29 10-6-1-23-11-46-25-27-16-19-12-20-13-15-10-16-11-15-11v-2l20-12 20-13 17-11 25-16 21-14 10-7 6 1 14 9 28 17 25 14 12 6 14-6 19-10 17-10 30-20 19-14 12-9 14-11 22-18 3-2 7 1 21 9 6 3 5 1-7-8v-2l-4-2-7-8-5-6 2-4 11-9 14-13 8-7 13-12 12-11 8-7 9-9 8-7 14-14 8-7 36-36-5-4-44-29-11-8-16-11-1-4 12-12 7-8 24-28 20-25 15-20zM1107 706h158l6 2 2 4v256l-3 46-5 48-5 35-8 44-9 40-8 30-8 27-12 36-14 38-16 38-12 26-6 11-5-2-24-15-47-30-50-32-17-11-24-16-13-9 1-4 10-18 16-30 12-22 14-26 5-8 4 1 32 21 14 9 6 3 8-16 8-20 8-24 8-32 6-34 5-39 3-30 2-35 1-34 1-98 1-4h-45zM1123 261h129l6 5 1 2v303l-2 6-6 2h-108l-5-3-2-4V396l-2-8-5-2-21-1-1-1-1-114 1-8z"></path><path fill="#ECAF3D" d="M734 928h122l7 2 5 5 15 31 8 16 13 23 12 19 10 14 12 16 18 22 14 15 11 12 8 7 9 9 11 9 10 9-2 6-12 26-11 22-13 23-10 17-9 14-5-1-11-9-10-8-13-11-8-7-12-11-5-4v-2l-4-2-12-12-7-8-7-7-7-8-12-14-11-14-16-21-19-29-12-20-11-19-8-16-12-25-13-31-13-35z"></path><path fill="#020102" d="M631 1432h10l12 4 6 4 3 6-2 22-6 26-6 16-8 13-9 10-5 5-7 6-14 9-14 6-15 5h-12l-11-4-6-4 1-3 9-6h2l1-3h2l2-4 6-10 5-18 2-5 11-6 8-7 7-11 4-12 1-14-1-12 8-7 12-5z"></path><path fill="#020102" d="m533 1338 1 4v12l4 12 6 10 14 14 1 4-1 8 3 14 6 12 7 8 13 8 8 4 2 3v16l-3 10-6 9-5 5-8 5h-7l-16-12-10-9-6-5-7-8-9-12-8-16-4-12-3-20v-9l3-23 4-14 6-8 7-6zM1206 1049h15l8 4 3 5v6l-5 9-32 144v5l9 8 5 9v4l-6-1-6-4v12l-4 10-6 5-9 1-9-3-7-6-4-8-1-4v-14l1-6-18 2-5-4v-9l4-6h7l5 2 24 3 8 2 1-10 10-48 11-53 7-34 2-7-10 3-3 10-12 57-6 28-7 14-6 3h-7l-9-4-10-12-4-10-1-5v-16l3-7 4-4h7l5 4v6l-6 9 2 9 6 11 5 4 3-1 4-11 9-42 10-47 3-6 6-5z"></path><path fill="#020102" d="M626 1371h28l14 3 15 6 14 9 13 11 9 8 5 8 3 16v6l-14-8-8-2h-19l-13 4h-7l-10-6-8-3-6-1h-14l-13 4-11 7-4 3h-6l-11-7-8-9-4-8-2-7v-9l4-8 18-8 20-6z"></path><path fill="#020102" d="M588 1317h27l20 4 15 5 19 10 13 10 12 11 11 14 9 15h-3l-14-10-15-8-15-5-10-2h-35l-19 4-22 8-12 6-7-1-10-9-5-8-3-11v-7l3-10 5-6 8-4 15-4zM494 1376h1l1 37 2 11 5 16 8 15 8 11 9 11 12 11 20 16 4 4-1 9-5 13-9 10-8 4-4 1h-12l-5-3v-2l-4-2-8-8-8-10-10-16-6-13-5-15-3-15-1-11v-15l2-15 4-15 8-20zM916 1566h8l6 4 3 5 1 7-2 8 9 2 11 2h9l9-5 5 1-1 7-5 5-5 4-4 2h-13l-17-4-8-2 3 6 10 10 11-1v4l-16 14-9 8-14 11-10 9-3 1 1-14-5-2-3-3-5 1-9 8-1 5 4 8 4 1h7v3l-7 6-9 7-2 2h-4l2-12-2-11-12-36-1-6 6-11 12 6 17 11 18 11 8 2 6-2 3-5-2-5-7-8-11-13-5-6v-2l-4-2-2-2h-10l2-4 10-8 6-7 10-7zM759 1691h17l8 3 8 7 5 8 3 10v8l-4 11-5 8-11 8-13 4h-8l-11-4-8-7-5-6-3-9v-15l6-12 8-8zM1207 828h15l8 4 3 3v6l-3 9-3 58-1 3 6 2 14 9 8 8 7 12 3 14-2 14-5 8-11 7-6 2-7 1h-9l-4-1 1-3 19-5 8-5 3-7 1-5v-14l-5-10-7-7-11-6-4-1-2 9-4 6-6 3h-8l-10-4-8-6-2-4v-8l5-6 9-4 12-2 1-1 3-57 2-12-4 4-4 6h-9l-5-6v-6l6-5zM1008 1471l5 1 31 15 15 7h9l6-1 1 2-7 8-17 17h-2v-12l-10-6-4 2-8 9h-2l6 12 4 2 9-1-2 4-15 15-3 1-1-4v-12l-10-24-10-21 1-5zM976 1510l6 3 5 5v3h-16l-7 4-5 9v10l6 12 9 8 10 4 10-1 5-4 2-6-6-8-7-1-7 1 2-4 18-18 3 1 1 10 5 6 5 3-1 6-5 9-8 10-11 7-9 2h-8l-9-3-11-8-5-10-1-3v-16l3-8 3-6 6-7 14-9zM830 1635l3 1v11l6 9 8 10 6 10 1 3v14l-4 8-9 8-8 4-11 1-9-3-9-9-10-14-5-6-7-3-4-1v-3l14-10 8-6h3l-1 11 12 17 8 9 6 3 10-1 7-6 2-4-1-9-6-10-12-15-4-3-10-1 2-4 12-9zM1189 1000h20l12 3 11 7 10 10 8 14 4 10 1 6v23l-4 13-6 9-3 2h-3l1-5 5-12 2-9v-15l-4-12-7-13-6-7v-2l-4-2-7-5-11-3h-16l-12 4v14l-5 4-8 1-5-5v-8l5-10 7-6 11-5zM717 1714h2l4 10 3 5v3h-6l-4-2-6 1-5 3v5l12 19 12 17v2l11-1 2 3-27 18h-3v-5l3-4-1-5-7-10-11-17-7-9-4 1-5 5-4 12h-4l-3-11-1-7 4-1 5-1 12-7 12-8 11-8zM330 550h19l8 4 5 7 1 3v7l-6 8-9 4-5 1h-10l-13-4-24-10-3-2v-8l9 2 14 5v-6l6-7zM687 1438h15l9 3 9 7 5 7v13l-6 23-4-1-15-15-7-8-14-15-5-7 4-4z"></path><path fill="#ECAF3D" d="m755 1700 8 1 9 5 9 9 6 11 1 3v8l-4 6-5 4-8 1-8-3-12-11-6-10-2-12 3-7 5-4z" data-source="https://football-logos.cc"></path><path fill="#020102" d="m640 1538 5 1 23 10v3l-16 8-16 6-24 5h-18l3-3 16-8 11-7 12-11zM357 592h6v26l-5 5-12-1-30-7-20-5-3-2v-9l10 2 48 12v-20zM1160 953h7l1 1 18 1 12-1h19l10 4 9 7 5 6-1 4-14-8-8-2h-21l-20 2-4 2h-7l-6-3-4-6 1-5zM352 524l10 1 2 5-1 8-5 4h-64l-1-1v-7h59zM353 630l9 2 2 6-2 8-5 3h-63l-1-1v-7h59v-9z"></path><path fill="#FCF7ED" d="M334 557h9l8 4 1 1v9l-5 4-3 1h-10l-7-4-1-2v-6l4-5z"></path><path fill="#ECAF3D" d="M1170 1227h7l6 3 4 5v8l-4 6-6 1-5-5-3-6-1-7zM909 1577l5 1 6 4 3 4v8l-4 5-4-2-8-9-3-4 1-5z"></path><path fill="#020102" d="m1129 1152 4 2 5 10v2l4 2 4 6-1 3h-6l-5-4-6-12-2-5zM1173 839h6l5 4 1 7-5 4h-6l-4-5v-6zM1175 823l7 1 3 5v7l-7 2-6-2-1-2v-7zM1127 1224l6 2 3 3v8l-3 2h-7l-4-4 1-8z"></path><path fill="#ECAF3D" d="m861 1629 4 1 7 5 6 3-1 4-5 5-4 1-2-2-5-15zM1013 1489l5 1 7 4 6 2-1 4-7 8h-2l-8-17z"></path><path fill="#020102" d="M1120 1245h7l5 4v6l-3 3-5 1-5-3-1-1v-6z"></path><path fill="#ECAF3D" d="M1207 921h3l1 3-2 4-5-1 1-4z" data-source="https://football-logos.cc"></path><!-- source: https://football-logos.cc --></svg>