<svg xmlns="http://www.w3.org/2000/svg" xml:space="preserve" viewBox="0 0 187.09 121.07"><!-- Source: https://football-logos.cc --><path fill="#FFF" fill-rule="evenodd" d="m11.96 76.517 10.525-32.199h15.548v32.199z" clip-rule="evenodd" data-source="https://football-logos.cc"></path><path fill="#EE3124" fill-rule="evenodd" d="M135.056 44.318H22.485l9.897-31.751h112.57z" clip-rule="evenodd"></path><path fill="#0066A6" fill-rule="evenodd" d="M138.009 108.267H2.063l9.897-31.75h135.945zM2.307 111.589h5.479c2.028 0 3.344.934 3.344 2.984 0 1.867-1.873 3.479-4.783 3.479H4.055l-.696 2.801H0zm2.306 4.256h1.299c1.362 0 1.812-.428 1.812-1.051 0-.713-.759-.83-1.471-.83H5.092zM18.035 111.589h3.343l1.719 9.264h-3.344l-.187-1.322h-3.605l-.852 1.322h-3.468zm-.835 5.955h2.119l-.371-2.775h-.031zM28.806 111.589h5.603c2.043 0 3.606.467 3.606 2.426 0 1.35-.991 2.336-2.584 2.557v.025c1.006.234 1.146 1.025 1.146 1.895s-.124 1.816.155 2.361h-3.25c-.124-.232-.14-.492-.14-.908 0-.439.17-1.012.17-1.479 0-.48-.433-.844-1.377-.844h-1.471l-.804 3.23h-3.344zm2.352 4.049h1.796c1.13 0 1.656-.48 1.656-1.037 0-.365-.264-.807-1.146-.807h-1.842zM45.75 111.589h3.343l1.719 9.264h-3.344l-.186-1.322h-3.606l-.852 1.322h-3.467zm-.836 5.955h2.121l-.372-2.775h-.03zM61.48 119.958l-.031-.025c-.712.805-1.812 1.141-2.988 1.141-3.87 0-4.489-2.75-4.489-3.906 0-2.904 1.98-5.799 6.315-5.799 2.477 0 4.55 1.051 4.581 3.465H61.65c-.093-.855-.696-1.154-1.563-1.154-1.873 0-2.709 1.674-2.709 3.27 0 1.09.557 1.816 1.935 1.816.913 0 1.688-.273 2.028-1.025h-1.548l.496-1.986h4.519l-1.269 5.1h-2.152zM78.24 117.714c-.588 2.336-2.631 3.359-5.417 3.359-3.313 0-4.69-1.348-4.69-2.828 0-.182.078-.545.125-.752l1.47-5.904h3.405l-1.253 5.061c-.078.285-.17.752-.17.895 0 .285-.093 1.221 1.285 1.221 1.408 0 1.842-1.064 2.089-2.09l1.269-5.086h3.406zM86.235 111.589h3.343l1.718 9.264h-3.343l-.186-1.322H84.16l-.851 1.322h-3.467zm-.836 5.955h2.122l-.372-2.775h-.031zM96.531 117.454l-2.368-5.865h3.421l1.053 3.451 2.693-3.451h3.993l-5.386 5.84-.835 3.424h-3.406zM104.442 116.325h4.876l-.496 2.127h-4.876zM115.165 118.479c.031.156.093.324.34.479.172.105.402.131.82.131 1.316 0 2.013-1.076 2.275-2.012h-.03c-.387.506-1.471.883-2.461.883-1.843 0-3.143-1.09-3.143-2.621 0-2.232 2.121-3.619 4.644-3.619 2.445 0 4.133 1.297 4.133 3.826 0 2.025-1.3 5.412-5.464 5.412-1.95 0-3.932-.584-4.024-2.479zm3.715-3.517c0-.791-.511-1.193-1.439-1.193-1.146 0-1.61.688-1.61 1.338 0 .285.171 1.127 1.424 1.127 1.268-.001 1.625-.895 1.625-1.272M126.012 118.479c.031.156.093.324.341.479.17.105.401.131.819.131 1.316 0 2.014-1.076 2.276-2.012h-.031c-.387.506-1.47.883-2.461.883-1.842 0-3.143-1.09-3.143-2.621 0-2.232 2.121-3.619 4.644-3.619 2.446 0 4.133 1.297 4.133 3.826 0 2.025-1.3 5.412-5.463 5.412-1.951 0-3.932-.584-4.024-2.479zm3.715-3.517c0-.791-.511-1.193-1.439-1.193-1.146 0-1.609.688-1.609 1.338 0 .285.171 1.127 1.424 1.127 1.268-.001 1.624-.895 1.624-1.272M44.797 5.969c-.201.946-1.068 3.737-5.665 3.737-3.204 0-4.751-1.739-4.751-4.217C34.38 2.492 36.608 0 40.369 0c2.461 0 4.66.895 4.722 3.672H41.87c.032-.869-.463-1.362-1.516-1.362-1.889 0-2.569 1.817-2.569 3.127 0 .766.217 1.959 1.78 1.959 1.067 0 1.672-.609 1.888-1.427zM52.333 0c3.127 0 5.031 1.233 5.031 4.061 0 3.114-2.446 5.645-6.207 5.645-3.127 0-5.031-1.388-5.031-4.062C46.126 2.53 48.572 0 52.333 0M51.25 7.396c2.043 0 2.708-2.024 2.708-3.399 0-.843-.387-1.687-1.719-1.687-2.042 0-2.708 2.024-2.708 3.4 0 .842.387 1.686 1.719 1.686M60.011.221h5.479c2.028 0 3.343.934 3.343 2.984 0 1.869-1.873 3.478-4.783 3.478h-2.29l-.697 2.803h-3.359zm2.306 4.256h1.299c1.362 0 1.811-.428 1.811-1.051 0-.714-.758-.83-1.47-.83h-1.161zM73.956.221h3.343l1.718 9.264h-3.344l-.186-1.323h-3.606l-.851 1.323h-3.468zm-.836 5.955h2.121L74.869 3.4h-.031zM90.303.221h3.343l1.717 9.264H92.02l-.186-1.323h-3.607l-.851 1.323h-3.467zm-.837 5.955h2.121L91.215 3.4h-.03zM98.429.221h4.751l.14 4.982h.032l3.017-4.982h4.844l-2.353 9.264h-3.157l1.703-6.384h-.031l-3.622 6.384h-2.523l-.402-6.384h-.032l-1.517 6.384h-3.157zM113.039.221h9.134l-.574 2.374h-5.727l-.294 1.155h5.31l-.543 2.206h-5.324l-.294 1.155h5.851l-.589 2.374h-9.256zM123.921.221h5.604c2.043 0 3.605.467 3.605 2.426 0 1.35-.99 2.335-2.586 2.556v.026c1.008.233 1.146 1.025 1.146 1.895 0 .869-.123 1.816.154 2.361h-3.25c-.124-.233-.14-.493-.14-.908 0-.441.171-1.013.171-1.479 0-.48-.434-.844-1.378-.844h-1.471l-.804 3.231h-3.345zm2.352 4.048h1.795c1.13 0 1.657-.48 1.657-1.038 0-.363-.264-.804-1.146-.804h-1.841zM135.391.221h3.406l-2.292 9.264h-3.404zM149.411 5.969c-.2.946-1.067 3.737-5.665 3.737-3.203 0-4.752-1.739-4.752-4.217 0-2.997 2.229-5.489 5.99-5.489 2.461 0 4.659.895 4.722 3.672h-3.221c.032-.869-.463-1.362-1.516-1.362-1.888 0-2.57 1.817-2.57 3.127 0 .766.217 1.959 1.78 1.959 1.068 0 1.673-.609 1.888-1.427zM155.354.221h3.344l1.718 9.264h-3.344l-.186-1.323h-3.606l-.851 1.323h-3.469zm-.836 5.955h2.121l-.372-2.776h-.03z" clip-rule="evenodd"></path><path fill="#0066A6" fill-rule="evenodd" d="M124.232 60.937c0 26.715-21.655 48.371-48.37 48.371s-48.37-21.657-48.37-48.371 21.656-48.371 48.371-48.371 48.369 21.656 48.369 48.371" clip-rule="evenodd"></path><path fill="#FFF" fill-rule="evenodd" d="M26.596 60.937c0 27.166 22.101 49.266 49.267 49.266s49.266-22.1 49.266-49.266S103.028 11.67 75.863 11.67c-27.166 0-49.267 22.101-49.267 49.267m1.793 0c0-26.178 21.296-47.475 47.474-47.475s47.473 21.297 47.473 47.475-21.296 47.475-47.473 47.475c-26.178-.001-47.474-21.298-47.474-47.475" clip-rule="evenodd"></path><path fill="#FFF" d="M123.989 62.263a43 43 0 0 0 .02-1.326c0-8.311-2.104-16.127-5.81-22.947a48.4 48.4 0 0 0-15.948-17.327c-1.509 2.306-4.992 4.308-9.725 5.73-4.738 1.424-10.741 2.275-17.271 2.275-6.252 0-12.023-.781-16.662-2.098-4.659-1.323-8.188-3.191-9.936-5.36A48.4 48.4 0 0 0 33.29 38.427a47.9 47.9 0 0 0-5.565 23.38q.009.385.022.777c3.087 2.867 9.475 5.348 17.955 7.105 8.361 1.734 18.746 2.762 30.002 2.762 11.476 0 22.048-1.068 30.492-2.865 8.551-1.817 14.908-4.376 17.793-7.323m.222.093.161.154c-2.92 3.037-9.387 5.664-18.082 7.514-8.476 1.805-19.08 2.875-30.585 2.875-11.282 0-21.699-1.031-30.091-2.771-8.623-1.787-15.119-4.33-18.239-7.279l-.071-.156a60 60 0 0 1-.035-1.756 48.4 48.4 0 0 1 5.627-22.718 48.8 48.8 0 0 1 15.683-17.498l.176-.12.129.169c1.641 2.163 5.146 4.039 9.832 5.369 4.6 1.306 10.328 2.081 16.542 2.081 6.487 0 12.445-.844 17.143-2.256 4.761-1.431 8.216-3.438 9.592-5.728l.119-.199.194.126a48.84 48.84 0 0 1 16.286 17.612 48.37 48.37 0 0 1 5.844 24.587z"></path><path fill="#FFF" d="M33.673 37.989c0 2.916 4.666 5.586 12.208 7.545 7.628 1.981 18.171 3.207 29.823 3.207 11.651 0 22.194-1.226 29.821-3.207 7.543-1.959 12.208-4.629 12.208-7.545h.448c0 3.146-4.794 5.964-12.544 7.978-7.665 1.991-18.249 3.223-29.933 3.223s-22.269-1.231-29.935-3.223c-7.751-2.013-12.545-4.832-12.545-7.978zM75.256 28.22c6.487 0 12.445-.844 17.143-2.256 4.634-1.393 8.031-3.331 9.477-5.545a48 48 0 0 0-12.342-5.659 48.1 48.1 0 0 0-13.671-1.969c-4.925 0-9.677.739-14.149 2.113a48 48 0 0 0-12.684 6.054c1.697 2.084 5.135 3.891 9.685 5.182 4.599 1.305 10.327 2.08 16.541 2.08m0 .447c-6.252 0-12.023-.781-16.662-2.098-4.779-1.357-8.369-3.288-10.068-5.528l-.143-.188.195-.132a48.4 48.4 0 0 1 13.004-6.245 48.6 48.6 0 0 1 14.281-2.134c4.792 0 9.423.695 13.797 1.989a48.4 48.4 0 0 1 12.645 5.833l.181.118-.11.185c-1.437 2.389-4.981 4.464-9.849 5.927-4.738 1.422-10.741 2.273-17.271 2.273M75.705 72.899c-11.282 0-21.699-1.031-30.091-2.771-8.271-1.715-14.585-4.125-17.84-6.922a48 48 0 0 0 2.349 12.791 48 48 0 0 0 5.947 12.045c5.313 1.146 11.515 2.064 18.331 2.691 6.6.605 13.784.938 21.305.938 7.61 0 14.876-.34 21.541-.961 6.882-.639 13.133-1.578 18.467-2.75a48 48 0 0 0 5.959-12.166 48 48 0 0 0 2.296-12.887c-3.087 2.869-9.363 5.35-17.678 7.117-8.477 1.805-19.081 2.875-30.586 2.875m0-.447c11.476 0 22.048-1.068 30.492-2.865 8.611-1.832 14.997-4.414 17.854-7.385l.386.16a48.5 48.5 0 0 1-2.338 13.568 48.4 48.4 0 0 1-6.065 12.355l-.137.094c-5.362 1.182-11.662 2.129-18.609 2.775-6.689.623-13.969.965-21.581.965-7.522 0-14.721-.334-21.346-.943-6.878-.631-13.129-1.559-18.472-2.715l-.137-.094a48.4 48.4 0 0 1-6.054-12.232 48.5 48.5 0 0 1-2.393-13.443l.377-.17c3.061 2.895 9.48 5.396 18.022 7.168 8.359 1.735 18.745 2.762 30.001 2.762"></path><path fill="#FFF" d="M36.441 88.579a48.36 48.36 0 0 0 16.992 14.971 47.9 47.9 0 0 0 22.43 5.533c8.118 0 15.766-2.01 22.474-5.557a48.4 48.4 0 0 0 17.004-15.027c-5.24 1.127-11.346 2.031-18.055 2.656-6.689.623-13.969.965-21.581.965-7.522 0-14.721-.334-21.346-.943-6.642-.61-12.699-1.496-17.918-2.598m-.506-.336.047-.219c5.332 1.154 11.564 2.078 18.418 2.709 6.6.605 13.784.938 21.305.938 7.61 0 14.876-.34 21.541-.961 6.919-.643 13.2-1.59 18.554-2.768l.232.344a48.84 48.84 0 0 1-17.487 15.637 48.4 48.4 0 0 1-22.682 5.607 48.4 48.4 0 0 1-22.638-5.586A48.8 48.8 0 0 1 35.75 88.368z"></path><path fill="#FFF" d="M65.546 20.124c-9.106 2.463-17.023 8.225-22.628 16.06-5.49 7.673-8.762 17.334-8.762 27.832 0 9.654 2.767 18.6 7.48 25.943 4.845 7.547 11.746 13.402 19.813 16.59l-.165.418c-8.155-3.225-15.13-9.141-20.025-16.766-4.758-7.414-7.551-16.443-7.551-26.186 0-10.593 3.303-20.344 8.845-28.091 5.665-7.918 13.669-13.742 22.877-16.232z"></path><path fill="#FFF" d="m61.337 106.534.465-.06.059.441-.464.063z"></path><path fill="#FFF" d="M61.64 106.812c-3.213-5.297-5.781-11.412-7.527-18.096-1.682-6.438-2.601-13.4-2.601-20.668 0-9.474 1.563-18.432 4.34-26.379 2.886-8.259 7.086-15.427 12.211-20.953l.327.305c-5.083 5.481-9.25 12.596-12.117 20.795-2.761 7.899-4.313 16.807-4.313 26.232 0 7.232.914 14.156 2.585 20.555 1.734 6.639 4.285 12.713 7.479 17.975z"></path><path fill="#FFF" d="m61.861 106.915-.464.063-.06-.444.465-.06z"></path><path fill="#FFF" d="M61.45 106.548c.148.059.254.102.327.129l.051.02.195-.119.126.209v-.002l.067.109-.268.326q-.177-.067-.333-.127l-.331-.127zM86.294 19.691c9.208 2.49 17.212 8.314 22.876 16.232 5.542 7.747 8.846 17.498 8.846 28.091 0 9.742-2.793 18.771-7.552 26.186-4.895 7.625-11.87 13.541-20.024 16.766l-.165-.418c8.067-3.188 14.969-9.043 19.813-16.59 4.713-7.342 7.479-16.289 7.479-25.943 0-10.498-3.271-20.159-8.761-27.832-5.605-7.834-13.522-13.597-22.629-16.06z"></path><path fill="#FFF" d="m90.328 106.978-.464-.063.06-.441.464.06z"></path><path fill="#FFF" d="M89.702 106.577c3.194-5.264 5.745-11.336 7.479-17.975 1.671-6.398 2.585-13.322 2.585-20.555 0-9.426-1.553-18.333-4.314-26.232-2.866-8.2-7.033-15.314-12.116-20.795l.327-.305c5.125 5.526 9.325 12.694 12.211 20.953 2.778 7.948 4.341 16.905 4.341 26.379 0 7.268-.919 14.23-2.602 20.668-1.746 6.684-4.313 12.799-7.527 18.096z"></path><path fill="#FFF" d="m89.924 106.474.464.06-.06.444-.464-.063z"></path><path fill="#FFF" d="m90.44 106.966-.331.127-.001.002-.332.125-.268-.326.067-.109v.002l.126-.209.195.119.052-.02h-.001q.107-.04.327-.129zm-.864-.182q.005-.007 0 0m0 0c-.005.008-.012.018 0 0M76.086 21.573v88.006h-.448V21.573z"></path><path fill="#FFF" d="M88.428 17.237c0 1.334-1.438 2.52-3.763 3.358-2.255.813-5.368 1.317-8.802 1.317s-6.546-.503-8.802-1.317c-2.325-.838-3.763-2.024-3.763-3.358 0-1.333 1.438-2.52 3.764-3.358 2.255-.813 5.368-1.317 8.802-1.317s6.546.503 8.802 1.317c2.324.839 3.762 2.025 3.762 3.358m-.448 0c0-1.124-1.325-2.164-3.466-2.936-2.211-.797-5.27-1.291-8.651-1.291s-6.44.493-8.651 1.291c-2.141.772-3.466 1.812-3.466 2.936 0 1.125 1.324 2.165 3.465 2.937 2.211.797 5.27 1.291 8.652 1.291s6.44-.493 8.651-1.291c2.141-.773 3.466-1.812 3.466-2.937"></path><path fill="#EE3124" fill-rule="evenodd" d="M60.197 17.04s-8.216 3.137-11.353 6.274l2.091 1.643 1.494.448-1.195 6.125-3.437 5.228-.447 6.722 1.494 3.884-.15 2.091 4.033 3.287.598 3.436 3.435 3.137 4.93.597 4.183 3.585 1.643 2.689-.747 4.033-2.689 3.436-1.045 3.734 1.942 3.734 2.987 4.184 2.241 2.838-1.045 2.838-1.045 1.494v3.734l-1.792 1.643-.299 2.391-.299 2.092.747 2.688.896 1.195 1.644.449.747-1.943 1.494-3.137 2.091-1.941 1.344.598 1.494-.746 1.045-.299.448-1.645 2.39-.299 3.287-2.092 5.079-3.734 4.033-1.045-.149-1.494 3.436-4.033v-6.125L92.016 75l-3.587-.3.299-2.838-.598-1.344-2.838-1.195-1.494-.299-3.884-3.885-4.481-.746-5.377-.148-1.195-3.734-2.689-2.541.747-4.183h-2.39l-1.494.896-.598 1.792-1.792-.149-.896-4.034 1.345-3.286 6.871.149 1.494 3.287 2.54.149.298-5.826 1.942-.149 1.467 2.348-.271-5.037 1.344-2.54 2.241-2.689 4.481-.597-2.688-4.333 3.436.299.298-3.437-2.838-1.344-.449-1.793h-4.182l-.896-1.942-1.644.149-.896 1.942.597 1.942-.747.598-1.195 2.091-1.344-2.838-1.644-1.793.748-1.942h2.39l-.149-3.734-3.436-.896-1.046 1.494-4.182-1.793.597-1.792-2.838.598z" clip-rule="evenodd"></path><path fill="#FFF" fill-rule="evenodd" d="M186.19 60.937c0 26.715-21.656 48.371-48.37 48.371-26.716 0-48.371-21.656-48.371-48.371s21.655-48.371 48.371-48.371c26.714 0 48.37 21.656 48.37 48.371" clip-rule="evenodd"></path><path fill="#ED1C24" d="M187.086 60.937c0 13.604-5.514 25.922-14.43 34.836-8.915 8.916-21.232 14.43-34.836 14.43-13.605 0-25.923-5.514-34.838-14.43-8.915-8.914-14.43-21.232-14.43-34.836 0-13.605 5.515-25.922 14.43-34.837s21.232-14.43 34.838-14.43c13.604 0 25.921 5.515 34.836 14.43 8.916 8.915 14.43 21.232 14.43 34.837m-1.792 0c0-13.11-5.314-24.979-13.905-33.57s-20.459-13.905-33.568-13.905c-13.11 0-24.979 5.313-33.57 13.905s-13.905 20.459-13.905 33.57c0 13.109 5.314 24.979 13.905 33.57 8.591 8.59 20.46 13.904 33.57 13.904s24.978-5.314 33.568-13.906c8.59-8.59 13.905-20.459 13.905-33.568"></path><path fill="#0066A6" d="m154.346 16.331-14.694 3.379-.514-.035-12.907-4.863.631-1.674 12.654 4.768 14.43-3.319zM139.147 27.47l.486.358 19.77 14.566.528.389-.21.619-7.283 21.502-.219.645-.674-.035-26.358-1.387-.641-.035-.175-.621-6.243-22.195-.182-.647.57-.354 20.115-12.485zm-.084 2.159-19.03 11.811 5.887 20.928 25.043 1.318 6.854-20.239z"></path><path fill="#0066A6" d="M140.35 18.838v9.711h-1.793v-9.711zM177.592 32.623l-2.242 8.976-.151.603-.62.069-15.606 1.734-.197-1.778 14.988-1.666 2.09-8.373z"></path><path fill="#0066A6" d="m175.206 40.86 11.523 16.004-1.45 1.043-11.522-16.004zM183.314 78.478l-22.848 7.363-10.677 14.56 7.789 4.362-.875 1.56-8.671-4.855-.882-.494.599-.815 11.445-15.607.449-.323 23.126-7.453z"></path><path fill="#0066A6" d="m159.085 85.417-8.323-20.463 1.659-.672 8.324 20.463zM148.435 101.583l-25.318-1.039-.47-.02-.251-.398-11.446-18.033-.327-.516.362-.494 13.527-18.381 1.443 1.057-13.165 17.89 10.866 17.122 24.849 1.021z"></path><path fill="#0066A6" d="m123.526 100.46-8.435 3.896-.749-1.623 8.435-3.898zM95.115 85.073l.774-7.22-5.096-22.082-1.125-.843L90.74 53.5l1.387 1.04.336.515 5.203 22.544.018.293-.79 7.371z"></path><path fill="#0066A6" d="m102.892 28.518.347 9.364-.136.5-10.751 17.341-1.52-.938 10.605-17.105-.337-9.099z"></path><path fill="#0066A6" d="m102.508 37.035 16.646 3.121-.329 1.758-16.646-3.122zM111.486 82.481l-14.668-3.736.442-1.736 14.668 3.736z"></path><path fill="#EE3124" fill-rule="evenodd" d="M127.987 69.575h-4.706l-3.062 4.332 7.917 5.303 19.494.748 7.102-3.461-2.61-6.307-20.55.057v2.166h18v2.316s-.821 2.016-8.439 1.867-10.681.075-13.146-7.021" clip-rule="evenodd"></path><path fill="#0061AF" fill-rule="evenodd" d="M131.572 72.413s1.344 3.287 8.664 3.287 8.889-3.287 8.889-3.287z" clip-rule="evenodd"></path><path fill="#EE3124" fill-rule="evenodd" d="m115.948 46.214-1.073-4.106-4.829-.936-.808 7.878 4.497 15.184 4.835 3.889 2.966-3.648-5.136-15.317-1.517.611 4.636 13.824-1.622.656s-1.625-.063-3.481-5.956c-1.857-5.894-2.803-8.182 1.532-12.079" clip-rule="evenodd"></path><path fill="#0061AF" fill-rule="evenodd" d="M114.884 49.769s-1.956 1.96-.07 7.583c1.884 5.622 4.706 6.241 4.706 6.241z" clip-rule="evenodd"></path><path fill="#EE3124" fill-rule="evenodd" d="m126.04 95.358 2.021 2.873 6.939.064.055-4.822-8.38-12.879-8.025-5.209-3.349 4.943 8.663 13.713 1.595-1.168-7.057-11.922 1.415-.996s3.196.426 5.961 4.68c1.963 3.018 3.437 6.169.162 10.723" clip-rule="evenodd" data-source="https://football-logos.cc"></path><path fill="#0061AF" fill-rule="evenodd" d="M125.56 92.874s1.893-3.211-1.252-7.684c-3.144-4.471-5.805-4.238-5.805-4.238z" clip-rule="evenodd"></path><path fill="#EE3124" fill-rule="evenodd" d="m111.721 73.345 2.858.443 2.956-4.09-5.119-4.449-11.287-1.563-4.977.543 1.535 7.521 12.177 1.527.109-2.004-10.99-1.379.116-2.143s.604-1.803 5.248-1.082c4.646.725 6.227-.078 7.374 6.676" clip-rule="evenodd"></path><path fill="#0061AF" fill-rule="evenodd" d="M109.974 71.274s-.654-3.145-5.124-3.705-5.866 2.326-5.866 2.326z" clip-rule="evenodd"></path><path fill="#EE3124" fill-rule="evenodd" d="m154.894 37.153 2.069 1.675 2.316-3.449v-4.532l-9.058-5.999-5.717.353-1.883 3.642 10.941 7.325 1.182-1.527-9.843-6.487.778-.805s2.562-.985 6.221 1.116c4.316 2.479 5.014 4.894 2.994 8.688" clip-rule="evenodd"></path><path fill="#0061AF" fill-rule="evenodd" d="M154.745 34.64s1.208-2.729-2.846-5.294-6.929-1.179-6.929-1.179z" clip-rule="evenodd"></path><path fill="#EE3124" fill-rule="evenodd" d="m172.626 30.368.765-1.266-2.436-2.542-5.806 1.714-4.54 8.682 2.599 3.727 5.667-.585 3.239-8.5-1.576-.239-2.926 7.671-2.481-.617s-1.425-.802-.071-4.015c1.353-3.213 1.678-4.568 7.566-4.03" clip-rule="evenodd"></path><path fill="#0061AF" fill-rule="evenodd" d="M170.538 31.36s-2.86-.164-4.049 2.957 1.133 4.66 1.133 4.66z" clip-rule="evenodd"></path><path fill="#EE3124" fill-rule="evenodd" d="m144.812 96.161-2.494 2.477-5.171-.236-.116-4.877 11.013-12.504 7.228-3.455 2.232 5.156-9.566 13.182-1.275-.744 9.035-11.854-1.648-1.168s-3.507.637-5.966 3.385c-3.796 4.242-4.878 6.978-3.272 10.638" clip-rule="evenodd"></path><path fill="#0061AF" fill-rule="evenodd" d="M146.661 95.159s-2.87-2.818 2.126-7.76c3.886-3.846 6.794-3.973 6.794-3.973z" clip-rule="evenodd"></path><path fill="#EE3124" fill-rule="evenodd" d="m155.406 63.47-.878 3.488 2.55 4.975 5.636-6.275 4.782-14.294-.426-5.953-6.775.746-4.253 15.206 1.606.404L161.538 48l1.28.067s1.639 1.556.106 7.176c-1.531 5.619-1.798 7.723-7.518 8.227" clip-rule="evenodd"></path><path fill="#0061AF" fill-rule="evenodd" d="M157.648 61.767s2.739-.488 4.104-5.915c1.367-5.425-.215-7.852-.215-7.852z" clip-rule="evenodd"></path><path fill="#EE3124" fill-rule="evenodd" d="m174.805 47.262-1.793-3.022-4.612.798.272 5.99 8.231 14.047 5.422 3.242.69-7.707-7.277-10.789-1.392.825 7.287 10.603-1.919 1.844s-1.608.24-4.414-4.711c-2.805-4.953-4.114-6.834-.495-11.12" clip-rule="evenodd"></path><path fill="#0061AF" fill-rule="evenodd" d="M174.347 50.646s-1.599 2.116 1.188 6.817c2.788 4.703 6.099 3.785 6.099 3.785z" clip-rule="evenodd"></path><path fill="#EE3124" fill-rule="evenodd" d="m163.403 78.575-3.301 1.074-2.174-5.963 5.847-6.326 12.649-1.115 5.696 3.465-2.163 5.555-14.159 3.117.049-2.252 11.4-2.639-.132-2.463s-3.137-1.859-7.229-.584c-4.876 1.52-6.217 2.551-6.483 8.131" clip-rule="evenodd"></path><path fill="#0061AF" fill-rule="evenodd" d="M165.848 76.13s.197-3.332 4.945-4.516c4.749-1.186 6.455 1.877 6.455 1.877z" clip-rule="evenodd"></path><path fill="#EE3124" fill-rule="evenodd" d="m102.637 41.674 1.054-1.586 5.173.887-.64 8.327-7.937 13.254-4.528.295-2.168-6.603 7.784-12.81 1.231 2.513-7.686 10.494.909 3.019s1.751 1.146 5.17-3.837 4.986-6.751 1.638-13.953" clip-rule="evenodd"></path><path fill="#0061AF" fill-rule="evenodd" d="M102.606 45.951s1.382 3.558-1.803 8.361c-4.158 6.271-5.837 2.118-5.837 2.118z" clip-rule="evenodd"></path><path fill="#EE3124" fill-rule="evenodd" d="m108.568 26.441-.296-1.379 4.122-2.898 2.153 1.894 2.502 10.234-1.042 3.432-4.936-.95-2.29-9.321 1.848.047 1.546 8.022 2.161-.068s.832-1.39.429-3.747c-.596-3.488-2.101-5.073-6.197-5.266" clip-rule="evenodd"></path><path fill="#0061AF" fill-rule="evenodd" d="M110.63 27.5s2.178.741 2.82 4.055c.645 3.316-1.276 3.893-1.276 3.893z" clip-rule="evenodd"></path><path fill="#EE3124" fill-rule="evenodd" d="m122.578 36.674-2.629 1.542-2.685-.248 2.475-7.347 9.588-6.941 5.063-1.064 1.965 4.762-12.209 8.059-.3-1.704 8.562-6.49-.533-1.37s-1.901-1.35-5.483 1.516-3.805 3.709-3.814 9.285" clip-rule="evenodd"></path><path fill="#0061AF" fill-rule="evenodd" d="M123.876 33.715s-.207-3.309 3.273-5.946c3.481-2.641 5.259-.526 5.259-.526z" clip-rule="evenodd"></path><path fill="#EE3124" fill-rule="evenodd" d="m157.475 18.128.973.521 2.753 1.654-5.637 3.428-8.585.385-1.943-2.363 2.123-3.295 6.988-1.275 1.576.838-8.138 1.703-.444 1.347s1.666.63 4.994.563 3.252-1.183 5.34-3.506" clip-rule="evenodd"></path><path fill="#0061AF" fill-rule="evenodd" d="M155.723 18.021s-1.217 2.679-4.385 2.66c-3.172-.018-3.661-.99-3.661-.99z" clip-rule="evenodd"></path><path fill="#EE3124" fill-rule="evenodd" d="m119.78 19.003-1.063-.494-4.646 2.333 4.16 2.29 10.288.032 5.838-1.29-.129-3.322-12.355-1.224-1.975.786 11.695 1.087.28.834s-1.425 1.08-5.644 1.128c-4.217.05-5.223-.483-6.449-2.16" clip-rule="evenodd"></path><path fill="#0061AF" fill-rule="evenodd" d="M119.899 18.114s2.509 2.184 6.523 2.058c4.017-.126 5.172-.971 5.172-.971z" clip-rule="evenodd"></path><path fill="#EE3124" fill-rule="evenodd" d="m144.36 102.438-5.65-.26s-.673 4.096 1.814 6.377c0 0 3.007-.051 4.251-.363 0 0-1.14-3.058-.415-5.754" clip-rule="evenodd"></path><path fill="#0061AF" fill-rule="evenodd" d="M145.501 107.935s-.362-1.867.83-2.801l1.089 2.385s-.674.259-1.919.416" clip-rule="evenodd"></path><path fill="#EE3124" fill-rule="evenodd" d="m146.331 105.134 1.089 2.385s1.192-.104 1.658-.363l-1.399-2.902zM129.662 102.128h5.657s.483 4.123-2.106 6.287c0 0-3.001-.191-4.229-.559-.001 0 1.28-3.003.678-5.728" clip-rule="evenodd"></path><path fill="#0061AF" fill-rule="evenodd" d="M128.271 107.565s.448-1.85-.7-2.836l-1.197 2.332c-.001.001.661.292 1.897.504" clip-rule="evenodd"></path><path fill="#EE3124" fill-rule="evenodd" d="m127.57 104.729-1.197 2.332s-1.186-.158-1.641-.439l1.532-2.834z" clip-rule="evenodd"></path><path fill="#EE3124" fill-rule="evenodd" d="M88.553 60.937c0 27.166 22.101 49.266 49.268 49.266 27.164 0 49.266-22.1 49.266-49.266S164.984 11.67 137.82 11.67c-27.167 0-49.267 22.101-49.267 49.267m1.792 0c0-26.178 21.296-47.475 47.475-47.475 26.177 0 47.474 21.297 47.474 47.475s-21.297 47.475-47.474 47.475c-26.178-.001-47.475-21.298-47.475-47.475" clip-rule="evenodd" data-source="https://football-logos.cc"></path><!-- source: https://football-logos.cc --></svg>