<svg xmlns="http://www.w3.org/2000/svg" xmlns:xlink="http://www.w3.org/1999/xlink" xml:space="preserve" width="228.103" height="221.405" viewBox="-30.39 -79.24 228.103 221.405"><!-- Source: https://football-logos.cc --><g transform="translate(-30.39 -79.24)" data-source="https://football-logos.cc"><defs><path id="a" d="M49.093 65.284c0 36.062 29.219 65.287 65.286 65.287 36.059 0 65.286-29.225 65.286-65.287C179.665 29.224 150.438 0 114.379 0 78.313 0 49.093 29.224 49.093 65.284"></path></defs><clipPath id="b"><use xlink:href="#a" overflow="visible"></use></clipPath><radialGradient id="c" cx="-115.255" cy="428.286" r="2.164" gradientTransform="matrix(-22.4369 27.3699 -26.1961 -21.4747 8755.025 12407.158)" gradientUnits="userSpaceOnUse"><stop offset="0" style="stop-color:#fff"></stop><stop offset=".448" style="stop-color:#fcfbfa"></stop><stop offset=".61" style="stop-color:#f3f1ef"></stop><stop offset=".725" style="stop-color:#e7e3e1"></stop><stop offset=".818" style="stop-color:#d7d0ce"></stop><stop offset=".898" style="stop-color:#c4bab7"></stop><stop offset=".967" style="stop-color:#aea19e"></stop><stop offset="1" style="stop-color:#a29490"></stop></radialGradient><path fill="url(#c)" d="m127.184 194.589 116.497-142.11-142.11-116.496-116.497 142.11z" clip-path="url(#b)" style="fill:url(#c)"></path></g><g transform="translate(-30.39 -79.24)"><defs><path id="d" d="M49.093 65.284c0 36.062 29.219 65.287 65.286 65.287 36.059 0 65.286-29.225 65.286-65.287C179.665 29.224 150.438 0 114.379 0 78.313 0 49.093 29.224 49.093 65.284"></path></defs><clipPath id="e"><use xlink:href="#d" overflow="visible"></use></clipPath><g clip-path="url(#e)"><defs><path id="f" d="M-30.39-79.235h289.554v289.564H-30.39z"></path></defs><clipPath id="g"><use xlink:href="#f" overflow="visible"></use></clipPath><g clip-path="url(#g)"><defs><path id="h" d="M117.79 110.372v-3.74l2.287-2.198 2.682 2.671-8.376 8.379-8.364-8.379 2.669-2.68 2.286 2.207v3.74h2.724v-4.855l-5.01-5.064-6.658 6.652 10.361 10.367-2.234 2.236 1.988 1.982 2.238-2.232 2.238 2.232 1.987-1.982-2.236-2.236 10.365-10.367-6.66-6.652-5.096 5.064v4.855z"></path></defs><clipPath id="i"><use xlink:href="#h" overflow="visible"></use></clipPath><radialGradient id="j" cx="-127.2" cy="427.937" r="2.165" gradientTransform="matrix(0 11.2855 -17.934 0 7789.157 1534.414)" gradientUnits="userSpaceOnUse"><stop offset="0" style="stop-color:#f15b22"></stop><stop offset=".5" style="stop-color:#ed1c24"></stop><stop offset=".712" style="stop-color:#ea1c24"></stop><stop offset=".79" style="stop-color:#e31b23"></stop><stop offset=".845" style="stop-color:#d81a22"></stop><stop offset=".89" style="stop-color:#ca191f"></stop><stop offset=".929" style="stop-color:#b8151b"></stop><stop offset=".963" style="stop-color:#a21014"></stop><stop offset=".993" style="stop-color:#8a070a"></stop><stop offset="1" style="stop-color:#840506"></stop></radialGradient><path fill="url(#j)" d="M102.03 100.453h24.707v21.237H102.03z" clip-path="url(#i)" style="fill:url(#j)"></path></g><g clip-path="url(#g)"><defs><path id="k" d="m117.771 11.764 2.079 2.074 2.069-2.074-2.069-2.079zm-10.746-.402 4.722 4.626.064 6.398-5.076 5.137 2.076 1.983h9.215V26.57h-6.189l8.012-8.012 1.154 1.156-1.673 1.669 2.084 2.07 3.745-3.738-5.311-5.3-5.18 5.163-.057-4.776-5.511-5.515zm4.617-2.377a2.15 2.15 0 1 0 4.298 0 2.15 2.15 0 0 0-4.298 0"></path></defs><clipPath id="l"><use xlink:href="#k" overflow="visible"></use></clipPath><radialGradient id="m" cx="-97.987" cy="419.8" r="2.165" gradientTransform="matrix(-.0186 -13.5392 30.8157 -.0424 -12823.603 -1279.141)" gradientUnits="userSpaceOnUse"><stop offset="0" style="stop-color:#0072bc"></stop><stop offset=".3" style="stop-color:#0061a8"></stop><stop offset=".66" style="stop-color:#0060a7"></stop><stop offset=".791" style="stop-color:#005da2"></stop><stop offset=".885" style="stop-color:#00579a"></stop><stop offset=".96" style="stop-color:#114f90"></stop><stop offset="1" style="stop-color:#1f4888"></stop></radialGradient><path fill="url(#m)" d="m106.703 6.835.032 22.698 18.455-.026-.029-22.697z" clip-path="url(#l)" style="fill:url(#m)"></path></g><g clip-path="url(#g)"><defs><path id="n" d="m86.398 37.568 5.725-36.124-32.592-16.598-25.853 25.851 16.6 32.586z"></path></defs><clipPath id="o"><use xlink:href="#n" overflow="visible"></use></clipPath><radialGradient id="p" cx="-94.728" cy="425.947" r="2.165" gradientTransform="rotate(-135 -2247.721 3963.872)scale(11.8429 19.6992)" gradientUnits="userSpaceOnUse"><stop offset="0" style="stop-color:#00baf2"></stop><stop offset=".5" style="stop-color:#00aeef"></stop><stop offset=".73" style="stop-color:#00aced"></stop><stop offset=".814" style="stop-color:#00a8e8"></stop><stop offset=".873" style="stop-color:#00a3e1"></stop><stop offset=".922" style="stop-color:#009bd8"></stop><stop offset=".963" style="stop-color:#0091cd"></stop><stop offset=".999" style="stop-color:#0084bf"></stop><stop offset="1" style="stop-color:#0084bf"></stop></radialGradient><path fill="url(#p)" d="m4.46 14.064 58.44 58.44 58.441-58.44L62.9-44.375z" clip-path="url(#o)" style="fill:url(#p)"></path></g><g clip-path="url(#g)"><defs><path id="q" d="m169.226 146.258 25.861-25.856-16.602-32.586-36.118 5.72-5.731 36.12z"></path></defs><clipPath id="r"><use xlink:href="#q" overflow="visible"></use></clipPath><radialGradient id="s" cx="-127.339" cy="419.807" r="2.166" gradientTransform="matrix(8.2145 8.5387 -14.2031 13.6637 7150.866 -4555.383)" gradientUnits="userSpaceOnUse"><stop offset="0" style="stop-color:#f15b22"></stop><stop offset=".5" style="stop-color:#ed1c24"></stop><stop offset=".712" style="stop-color:#ea1c24"></stop><stop offset=".79" style="stop-color:#e31b23"></stop><stop offset=".845" style="stop-color:#d81a22"></stop><stop offset=".89" style="stop-color:#ca191f"></stop><stop offset=".929" style="stop-color:#b8151b"></stop><stop offset=".963" style="stop-color:#a21014"></stop><stop offset=".993" style="stop-color:#8a070a"></stop><stop offset="1" style="stop-color:#840506"></stop></radialGradient><path fill="url(#s)" d="m224.287 118.167-57.295-59.555-59.556 57.294 57.295 59.557z" clip-path="url(#r)" style="fill:url(#s)"></path></g><g clip-path="url(#g)"><defs><path id="t" d="m92.123 129.656-5.725-36.12-36.12-5.72-16.6 32.586 25.853 25.856z"></path></defs><clipPath id="u"><use xlink:href="#t" overflow="visible"></use></clipPath><radialGradient id="v" cx="-116.235" cy="432.319" r="2.165" gradientTransform="rotate(135 1144.135 4716.52)scale(11.848 20.2019)" gradientUnits="userSpaceOnUse"><stop offset="0" style="stop-color:#ffde00"></stop><stop offset=".5" style="stop-color:#fdb913"></stop><stop offset=".77" style="stop-color:#fab613"></stop><stop offset=".869" style="stop-color:#f2ac15"></stop><stop offset=".939" style="stop-color:#e89e17"></stop><stop offset=".996" style="stop-color:#d98b18"></stop><stop offset="1" style="stop-color:#d88917"></stop></radialGradient><path fill="url(#v)" d="m62.9 175.479 58.445-58.442L62.9 58.594 4.456 117.037z" clip-path="url(#u)" style="fill:url(#v)"></path></g><g clip-path="url(#g)"><defs><path id="w" d="m178.485 43.283 16.602-32.586-25.861-25.851-32.59 16.598 5.731 36.124z"></path></defs><clipPath id="x"><use xlink:href="#w" overflow="visible"></use></clipPath><radialGradient id="y" cx="-105.702" cy="413.286" r="2.165" gradientTransform="rotate(-45 -10588.105 2509.381)scale(11.8487 20.2029)" gradientUnits="userSpaceOnUse"><stop offset="0" style="stop-color:#99ca3c"></stop><stop offset=".5" style="stop-color:#77b643"></stop><stop offset=".734" style="stop-color:#75b342"></stop><stop offset=".821" style="stop-color:#6fae41"></stop><stop offset=".882" style="stop-color:#66a73f"></stop><stop offset=".933" style="stop-color:#599c3c"></stop><stop offset=".975" style="stop-color:#498f38"></stop><stop offset="1" style="stop-color:#3d8534"></stop></radialGradient><path fill="url(#y)" d="m165.861-44.38-58.442 58.444 58.442 58.444 58.444-58.444z" clip-path="url(#x)" style="fill:url(#y)"></path></g><g clip-path="url(#g)"><defs><path id="z" d="M-6.276-55.11H235.03v241.318H-6.276z"></path></defs><clipPath id="A"><use xlink:href="#z" overflow="visible"></use></clipPath><path fill="#fff" d="M81.354 32.516 38.72 39.278 19.116.806l30.527-30.531 38.468 19.6zM147.408 98.585l42.642-6.751 19.598 38.46-30.523 30.529-38.475-19.607zM81.354 98.585 38.72 91.834l-19.604 38.46 30.527 30.529 38.468-19.607zM147.408 32.516l42.642 6.762L209.648.806l-30.523-30.531-38.475 19.6z" clip-path="url(#A)"></path></g><g clip-path="url(#g)"><defs><path id="B" d="m77.536 28.687 7.531-47.568L42.15-40.747 8.096-6.695 29.96 36.226z"></path></defs><clipPath id="C"><use xlink:href="#B" overflow="visible"></use></clipPath><radialGradient id="D" cx="-76.558" cy="427.317" r="2.166" gradientTransform="rotate(-135 -1416.123 2865.205)scale(6.0943 13.8704)" gradientUnits="userSpaceOnUse"><stop offset="0" style="stop-color:#0072bc"></stop><stop offset=".3" style="stop-color:#0061a8"></stop><stop offset=".66" style="stop-color:#0060a7"></stop><stop offset=".791" style="stop-color:#005da2"></stop><stop offset=".885" style="stop-color:#00579a"></stop><stop offset=".96" style="stop-color:#114f90"></stop><stop offset="1" style="stop-color:#1f4888"></stop></radialGradient><path fill="url(#D)" d="m-30.39-2.261 76.972 76.972 76.973-76.972-76.973-76.972z" clip-path="url(#C)" style="fill:url(#D)"></path></g><g clip-path="url(#g)"><defs><path id="E" d="m186.623 171.842 34.049-34.053-21.867-42.916-47.571 7.531-7.54 47.569z"></path></defs><clipPath id="F"><use xlink:href="#E" overflow="visible"></use></clipPath><radialGradient id="G" cx="-140.013" cy="418.564" r="2.165" gradientTransform="matrix(4.2252 4.3919 -9.9962 9.6166 4926.713 -3307.946)" gradientUnits="userSpaceOnUse"><stop offset="0" style="stop-color:#b11117"></stop><stop offset=".3" style="stop-color:#9e0b0f"></stop><stop offset=".633" style="stop-color:#9c0a0e"></stop><stop offset=".752" style="stop-color:#96080c"></stop><stop offset=".838" style="stop-color:#8c0507"></stop><stop offset=".907" style="stop-color:#7f0001"></stop><stop offset=".965" style="stop-color:#6f0000"></stop><stop offset="1" style="stop-color:#620000"></stop></radialGradient><path fill="url(#G)" d="m259.129 134.846-75.458-78.434-78.433 75.457 75.457 78.433z" clip-path="url(#F)" style="fill:url(#G)"></path></g><g clip-path="url(#g)"><defs><path id="H" d="m85.067 149.973-7.531-47.569-47.576-7.531-21.864 42.916 34.054 34.053z"></path></defs><clipPath id="I"><use xlink:href="#H" overflow="visible"></use></clipPath><radialGradient id="J" cx="-118.443" cy="436.31" r="2.166" gradientTransform="rotate(135 943.331 3332.916)scale(6.154 14.2779)" gradientUnits="userSpaceOnUse"><stop offset="0" style="stop-color:#f68c1f"></stop><stop offset=".3" style="stop-color:#f47920"></stop><stop offset=".631" style="stop-color:#f17720"></stop><stop offset=".751" style="stop-color:#ea721f"></stop><stop offset=".837" style="stop-color:#e0691e"></stop><stop offset=".907" style="stop-color:#d35d1c"></stop><stop offset=".966" style="stop-color:#c14e19"></stop><stop offset="1" style="stop-color:#b44315"></stop></radialGradient><path fill="url(#J)" d="m46.582 210.329 76.971-76.972-76.971-76.97-76.972 76.97z" clip-path="url(#I)" style="fill:url(#J)"></path></g><g clip-path="url(#g)"><defs><path id="K" d="m198.805 36.226 21.867-42.921-34.049-34.052-42.929 21.866 7.54 47.568z"></path></defs><clipPath id="L"><use xlink:href="#K" overflow="visible"></use></clipPath><radialGradient id="M" cx="-98.09" cy="409.332" r="2.166" gradientTransform="rotate(-45 -7247.91 2025.747)scale(6.1552 14.2812)" gradientUnits="userSpaceOnUse"><stop offset="0" style="stop-color:#388546"></stop><stop offset=".3" style="stop-color:#007447"></stop><stop offset=".631" style="stop-color:#007346"></stop><stop offset=".752" style="stop-color:#006f43"></stop><stop offset=".837" style="stop-color:#006940"></stop><stop offset=".907" style="stop-color:#00623b"></stop><stop offset=".966" style="stop-color:#005835"></stop><stop offset="1" style="stop-color:#005030"></stop></radialGradient><path fill="url(#M)" d="M182.183-79.236 105.209-2.261l76.974 76.975 76.976-76.975z" clip-path="url(#L)" style="fill:url(#M)"></path></g><g clip-path="url(#g)"><defs><path id="N" d="M-6.276-55.11H235.03v241.318H-6.276z"></path></defs><clipPath id="O"><use xlink:href="#N" overflow="visible"></use></clipPath><path fill="#fff" d="M72.559 23.708 18.55 32.26-6.276-16.45l38.664-38.661 48.716 24.819zM156.208 107.378l54-8.541 24.824 48.714-38.658 38.657-48.717-24.819zM72.559 107.378 18.55 98.837l-24.826 48.714 38.664 38.657 48.716-24.814zM156.208 23.708l54 8.552 24.824-48.71-38.658-38.661-48.717 24.819z" clip-path="url(#O)"></path></g><g clip-path="url(#g)"><defs><path id="P" d="M65.588 74.244c0 1.178.954 2.144 2.145 2.144a2.143 2.143 0 0 0 2.134-2.144 2.136 2.136 0 0 0-2.134-2.143 2.14 2.14 0 0 0-2.145 2.143M55.02 61.865l3.733 3.721 1.894-1.917-1.645-1.652 1.117-1.124 2.753 2.752-8.288 8.338 2.07 2.061 6.446-6.492-1.614 6.917h2.935l2.433-10.984-6.736-6.726zm13.577 1.62 2.437 10.984h2.939l-1.609-6.917 6.439 6.492 2.068-2.061-8.288-8.338 2.758-2.752 1.114 1.124-1.647 1.652 1.896 1.917 3.727-3.721-5.09-5.105zm-7.602-7.603 2.066 2.068 2.062-2.068-2.062-2.064zm9.347 0 2.056 2.068 2.068-2.068-2.068-2.064z"></path></defs><clipPath id="Q"><use xlink:href="#P" overflow="visible"></use></clipPath><radialGradient id="R" cx="-105.353" cy="430.728" r="2.165" gradientTransform="matrix(-14.8457 0 0 -22.6915 -1482.706 9839.355)" gradientUnits="userSpaceOnUse"><stop offset="0" style="stop-color:#f68c1f"></stop><stop offset=".3" style="stop-color:#f47920"></stop><stop offset=".631" style="stop-color:#f17720"></stop><stop offset=".751" style="stop-color:#ea721f"></stop><stop offset=".837" style="stop-color:#e0691e"></stop><stop offset=".907" style="stop-color:#d35d1c"></stop><stop offset=".966" style="stop-color:#c14e19"></stop><stop offset="1" style="stop-color:#b44315"></stop></radialGradient><path fill="url(#R)" d="M54.585 53.818h26.287v22.57H54.585z" clip-path="url(#Q)" style="fill:url(#R)"></path></g><g clip-path="url(#g)"><defs><path id="S" d="m74.209 83.889 18.616 2.954 10.773-10.774h-.005l32.326-32.327-2.945-18.619-40.164 40.17h.002z"></path></defs><clipPath id="T"><use xlink:href="#S" overflow="visible"></use></clipPath><linearGradient id="U" x1="-111.733" x2="-109.566" y1="417.584" y2="417.584" gradientTransform="rotate(-45 -21349.003 2788.233)scale(38.3792)" gradientUnits="userSpaceOnUse"><stop offset="0" style="stop-color:#00baf2"></stop><stop offset=".11" style="stop-color:#00aeef"></stop><stop offset=".423" style="stop-color:#32327b"></stop><stop offset=".614" style="stop-color:#830406"></stop><stop offset=".883" style="stop-color:#ed1c24"></stop><stop offset="1" style="stop-color:#f15b22"></stop></linearGradient><path fill="url(#U)" d="M105.064-5.732 43.352 55.982l61.712 61.716 61.717-61.716z" clip-path="url(#T)" style="fill:url(#U)"></path></g><g clip-path="url(#g)"><defs><path id="V" d="m92.825 86.843 2.944 18.599 18.596-18.591h.014l40.163-40.17-18.609-2.939-32.331 32.333-.004-.006z"></path></defs><clipPath id="W"><use xlink:href="#V" overflow="visible"></use></clipPath><linearGradient id="X" x1="-111.719" x2="-109.554" y1="417.944" y2="417.944" gradientTransform="rotate(-45 -21249.658 2771.372)scale(38.2293)" gradientUnits="userSpaceOnUse"><stop offset="0" style="stop-color:#00aeef"></stop><stop offset=".387" style="stop-color:#32327b"></stop><stop offset=".693" style="stop-color:#830406"></stop><stop offset="1" style="stop-color:#d81921"></stop></linearGradient><path fill="url(#X)" d="m123.683 12.883-61.709 61.71 61.709 61.708 61.71-61.708z" clip-path="url(#W)" style="fill:url(#X)"></path></g><g clip-path="url(#g)"><defs><path id="Y" d="m92.81 65.284 40.164 40.158 2.945-18.599-32.326-32.334h.005L92.825 43.726l-18.616 2.948 18.603 18.602z"></path></defs><clipPath id="Z"><use xlink:href="#Y" overflow="visible"></use></clipPath><linearGradient id="aa" x1="-118.392" x2="-116.227" y1="421.341" y2="421.341" gradientTransform="scale(38.3977)rotate(45 448.97 356.554)" gradientUnits="userSpaceOnUse"><stop offset="0" style="stop-color:#00baf2"></stop><stop offset=".11" style="stop-color:#00aeef"></stop><stop offset=".423" style="stop-color:#32327b"></stop><stop offset=".614" style="stop-color:#830406"></stop><stop offset=".853" style="stop-color:#ed1c24"></stop><stop offset="1" style="stop-color:#f15b22"></stop></linearGradient><path fill="url(#aa)" d="m166.779 74.584-61.715-61.711-61.71 61.711 61.71 61.713z" clip-path="url(#Z)" style="fill:url(#aa)"></path></g><g clip-path="url(#g)"><defs><path id="ab" d="m103.602 54.504 32.331 32.326 18.609-2.948-40.163-40.164-.014.005-18.596-18.6-2.944 18.603 10.773 10.783z"></path></defs><clipPath id="ac"><use xlink:href="#ab" overflow="visible"></use></clipPath><linearGradient id="ad" x1="-118.392" x2="-116.227" y1="420.976" y2="420.976" gradientTransform="scale(38.38)rotate(45 449.36 356.71)" gradientUnits="userSpaceOnUse"><stop offset="0" style="stop-color:#00aeef"></stop><stop offset=".387" style="stop-color:#32327b"></stop><stop offset=".686" style="stop-color:#830406"></stop><stop offset="1" style="stop-color:#d81921"></stop></linearGradient><path fill="url(#ad)" d="M185.398 55.976 123.683-5.736 61.972 55.976l61.711 61.713z" clip-path="url(#ac)" style="fill:url(#ad)"></path></g><g clip-path="url(#g)"><defs><path id="ae" d="M-6.276-55.11H235.03v241.318H-6.276z"></path></defs><clipPath id="af"><use xlink:href="#ae" overflow="visible"></use></clipPath><path fill="#a72c31" d="m114.365 65.272-10.774 10.776 10.774 10.782 10.785-10.782z" clip-path="url(#af)"></path><g clip-path="url(#af)" opacity=".15"><defs><path id="ag" d="M92.812 54.502h21.553v21.547H92.812z"></path></defs><clipPath id="ah"><use xlink:href="#ag" overflow="visible"></use></clipPath><g clip-path="url(#ah)"><defs><path id="ai" d="M92.812 54.506h21.553v21.543H92.812z"></path></defs><clipPath id="aj"><use xlink:href="#ai" overflow="visible"></use></clipPath><path fill="#ee2424" d="M103.593 54.504 92.812 65.271l10.781 10.778 10.775-10.778z" clip-path="url(#aj)"></path></g></g><path fill="#20468a" d="m114.365 43.72-10.774 10.782 10.774 10.77 10.785-10.77z" clip-path="url(#af)"></path><g clip-path="url(#af)" opacity=".3"><defs><path id="ak" d="M114.365 54.502h21.554v21.547h-21.554z"></path></defs><clipPath id="al"><use xlink:href="#ak" overflow="visible"></use></clipPath><g clip-path="url(#al)"><defs><path id="am" d="M114.365 54.506h21.554v21.543h-21.554z"></path></defs><clipPath id="an"><use xlink:href="#am" overflow="visible"></use></clipPath><path fill="#2e3192" d="m125.15 54.504-10.785 10.767 10.785 10.778 10.772-10.778z" clip-path="url(#an)"></path></g></g><path fill="#fff" d="m129.26 60.513-9.192 6.678 3.51 10.817-9.202-6.678-9.207 6.678 3.522-10.817-9.208-6.678h11.376l3.517-10.826 3.52 10.826z" clip-path="url(#af)"></path></g><g clip-path="url(#g)"><defs><path id="ao" d="M166.042 55.694v4.775h-11.09v-4.775h-2.778v7.546h6.933v2.778h-4.154l-1.867 8.816 3.175-.009 1.184-6.04h6.1l1.176 6.04h3.181l-1.857-8.808h-4.157V63.24h6.927v-7.546zm-8.02 1.68 2.472 2.478 2.475-2.476-2.475-2.467z"></path></defs><clipPath id="ap"><use xlink:href="#ao" overflow="visible"></use></clipPath><radialGradient id="aq" cx="-119.944" cy="412.265" r="2.165" gradientTransform="matrix(10.0783 0 0 17.1843 1360.763 -7020.496)" gradientUnits="userSpaceOnUse"><stop offset="0" style="stop-color:#99ca3c"></stop><stop offset=".5" style="stop-color:#77b643"></stop><stop offset=".736" style="stop-color:#75b342"></stop><stop offset=".822" style="stop-color:#6fae41"></stop><stop offset=".883" style="stop-color:#66a73f"></stop><stop offset=".933" style="stop-color:#5a9c3c"></stop><stop offset=".975" style="stop-color:#498f38"></stop><stop offset="1" style="stop-color:#3d8534"></stop></radialGradient><path fill="url(#aq)" d="M152.174 54.909h16.638v19.926h-16.638z" clip-path="url(#ap)" style="fill:url(#aq)"></path></g></g></g><path fill="#003375" d="M173.565 142.165c-7.526 0-15.071-1.58-22.425-4.697l2.062-3.908c4.835 1.985 9.42 2.912 14.804 3.028h.81c8.26 0 14.034-2.641 17.657-8.085 2.002-3.002 3.154-8.03 1.372-11.434-1.176-2.253-3.716-3.445-7.334-3.445l-.227.004c-1.641.025-2.85.167-4.513.549l-3.711-3.88c.18-6.635.636-12.265 1.356-16.751.927.054 1.89.078 2.858.078 4.509 0 9.328-.593 13.96-1.703l2.32 8.54c-4.55-.125-10.862-.696-14.578-1.582l-.39-.086-.057.395c-.273 2.05-.432 4.475-.611 7.291l-.182 2.837.524-.209a18.9 18.9 0 0 1 6.727-1.313h.29c4.312 0 7.63 1.229 9.878 3.671 2.573 2.79 3.792 6.445 3.52 10.573-.393 6.035-2.913 11.003-7.294 14.391-4.493 3.463-10.675 5.664-16.13 5.733zM7.08 142.024c-.201-3.012-.584-8.774-1.083-13.66l-.087-.829-.55.63c-2.82 3.183-5.418 5.875-10.943 9.028-3.094 1.762-6.673 2.796-9.82 2.832h-.205c-8.077 0-14.127-5.928-14.714-14.428-.488-6.982 1.679-13.506 5.794-17.435 3.5-3.344 7.354-5.002 11.779-5.057l.163-.006c3.754 0 7.13 1.776 9.282 4.869 1.737 2.495 2.054 7.353.785 11.654l-8.373-1.677c2.15-2.333 3.477-5.386 3.132-7.329-.305-1.664-2.208-2.964-4.334-2.964-1.784.025-3.447.704-5.3 2.149-4.626 3.605-6.468 9.759-5.051 16.877.877 4.488 3.948 7.273 8.015 7.273 1.722-.024 3.523-.4 5.612-1.15 5.797-2.079 10.006-5.111 14.064-10.155l.09-.114-.161-1.609c-.2-2.178-.455-4.245-.685-6.211-.562-4.715-1.041-8.787-.875-12.664.265-6.42 2.124-10.744 5.52-12.834 1.294-.799 2.982-1.245 4.756-1.245 1.643 0 3.226.387 4.44 1.086 3.69 2.14 4.33 6.264 4.44 7.479.979 10.757-4.912 17.747-12.382 26.602l-1.271 1.518.017.161c.034.235.079.763.117 1.265l.177 1.97.573-1.046c1.99-3.642 5.634-5.641 8.068-5.666l.176-.004c3.526 0 5.753 1.433 7.932 5.12.76 1.278 2.077 3.312 2.868 4.363.37.495 1.58 1.804 2.669 1.804 1.273-.018 1.935-1.732 2.37-3.223.612-2.083 1.018-4.255 1.348-7.226l5.45-.11c.22 5.652 2.45 10.772 4.855 11.039.136.022.269.026.402.026 2.44 0 5.329-2.433 7.925-6.688l.1-.162-.081-.174c-3.743-8.232-6.253-21.962-4.01-28.006 1.466-3.944 3.382-5.666 6.825-6.143a9 9 0 0 1 .987-.06c2.299 0 4.656 1.102 6.308 2.944 2.622 2.925 4.13 8.707 3.677 14.063-.507 6.021-3.443 13.138-8.055 19.52l-.127.173.093.199c1.82 3.779 5.255 4.574 7.813 4.574h.152c2.92-.04 6.396-1.112 9.53-2.967l.378-.224-.287-.331c-3.503-3.965-5.285-11.119-3.995-15.945.978-3.576 4.272-7.215 8.694-7.274h.009a14 14 0 0 1 2 .157c5.719.994 8.688 5.507 7.938 12.064-.595 5.145-4.708 10.799-6.78 12.68l-.361.335.42.242c1.233.743 2.898 1.166 4.579 1.166 3.694-.045 5.706-1.506 8.44-4.553l4.38 6.553c-3.293 2.724-6.406 3.94-10.062 3.94-.924 0-1.907-.08-2.923-.235-3.016-.458-5.564-1.812-8.031-4.254l-.226-.226-.252.2c-4.811 3.871-7.39 5.238-12.276 5.238-.454 0-.926 0-1.42-.031-4.796-.207-8.035-2.525-10.516-7.511l-.257-.517-.358.453c-3.857 5.063-6.405 6.684-10.475 6.684-.175 0-.35 0-.531-.009-4.1-.142-6.873-4.302-7.448-6.487l-.705.021c-.51 2.83-3.298 5.528-6.094 5.906q-.454.059-.926.058a7.6 7.6 0 0 1-3.537-.893c-2.801-1.482-4.252-3.889-5.85-6.892-1.14-2.132-2.08-3.01-3.231-3.01-.313 0-.643.062-1.05.19-1.934.64-3.091 3.788-3.935 6.089-.852 2.343-1.63 5.048-2.298 8.032zm74.134-29.639c-.198 0-.405.013-.623.049-3.075.392-3.848 3.356-4.012 4.253-.517 3.002 1.723 9.063 3.705 11.221l.222.249.265-.196c3.22-2.363 4.963-6.611 4.666-11.352-.13-2.106-1.464-4.224-4.156-4.224zM56.893 96.929c-1.378.013-2.472 1.621-2.904 3.107-1.346 4.648.318 15.482 2.64 21.696l.263.683.393-.622c3.272-5.229 3.976-10.929 3.986-14.782.02-5.726-1.594-8.199-2.552-9.16-.597-.6-1.233-.922-1.8-.922zm-43.844-2.668c-.688 0-1.341.239-1.89.696-1.632 1.381-2.554 3.494-2.978 6.837-.58 4.455-.523 6.714.37 16.107l.085.932.567-.748c5.37-7.121 7.926-15.381 6.664-21.556-.264-1.314-1.45-2.268-2.818-2.268m118.034 44.564c-4.004 0-8.341-2.814-11.32-7.348l-.233-.352-.314.281c-2.568 2.259-4.926 3.365-7.871 3.671l-.453.036-.234.004c-3.422 0-6.537-2.642-7.105-6.008-.594-3.578 1.478-8.14 5.857-9.271a7.7 7.7 0 0 1 1.978-.267c2.442 0 4.7 1.328 7.336 4.289l.3.342.265-.372c3.414-4.85 5.952-15.458 2.456-20.174-1.183-1.596-3.263-2.592-5.432-2.592-.977 0-1.922.212-2.73.598-2.23 1.067-3.634 3.909-3.797 7.665l-8.464-2.451c1.374-3.969 4.215-8.932 10.039-10.811 1.31-.423 2.7-.633 4.143-.633 4.6 0 8.878 2.18 11.18 5.69 4.726 7.211 3.068 17.677-4.226 26.649l-.205.25.219.235c2.774 2.895 5.345 4.276 8.077 4.343.137.004.287.009.428.009 2.799 0 4.715-.945 6.539-3.248l4.627 1.804c-1.686 5.409-6.62 7.513-10.73 7.655zm-19.716-15.344c-.132 0-.28.012-.422.025-1.566.161-3.265 1.364-3.28 3.02-.03 1.715.96 2.83 2.58 2.928.122.003.24.007.37.007 2.01 0 4.292-.92 5.8-2.33l.245-.218-.2-.266c-1.521-2.048-3.333-3.166-5.093-3.166m54.169 7.673c-3.142-.226-6.166-1.275-8.856-2.212a38 38 0 0 0-.944-.327c4.03-8.065 5.999-20.347 7.267-30.198l-.663-.245c-1.516 2.331-3.143 3.925-4.857 5.625-.374.372-.75.737-1.131 1.131l-5.921-3.989c4.663-3 7.739-5.277 11.94-9.533.752.228 3.28.962 5.385 1.303-1.587 10.65-3.08 26.884-2.22 38.445m-22.561-4.165c-2.587 0-5.13-1.15-6.971-3.145-1.722-1.838-2.678-4.271-2.7-6.837-.054-4.952 2.076-9.552 5.433-11.737a8.47 8.47 0 0 1 4.509-1.345h.006c2.478 0 4.875.949 6.713 2.601 2.499 2.442 3.732 5.983 3.373 9.695-.383 3.956-2.484 7.469-5.625 9.4a8.9 8.9 0 0 1-4.623 1.368zm-.58-16.607c-1.087.018-2.233.595-3.056 1.536-1.083 1.231-1.713 2.984-1.613 4.481.144 2.068 1.968 4.381 4.356 4.381.287 0 .56-.036.837-.092 2.472-.48 4.236-3.481 4.152-5.835-.085-2.342-2.287-4.474-4.62-4.474h-.01zm-104.441 6.575c-.163 0-.338-.003-.535-.021-1.912-.19-3.963-1.603-4.191-3.938-.123-1.231.295-2.426 1.178-3.371a5.18 5.18 0 0 1 3.21-1.582c.15-.017.292-.026.437-.035 2.207 0 4.578 1.491 4.824 3.982.242 2.438-1.556 4.329-3.434 4.752-.647.147-1.043.213-1.49.213" data-source="https://football-logos.cc"></path><path fill="#b72126" d="M.15 80.63c-6.696 0-10.855-4.215-10.855-10.996 0-6.709 4.323-11.037 11.007-11.037 6.696 0 10.857 4.224 10.857 11.037 0 6.78-4.217 10.996-11.01 10.996m0-18.171c-4.798 0-5.513 4.496-5.513 7.175 0 2.686.734 7.201 5.666 7.201 4.809 0 5.523-4.515 5.523-7.201 0-2.68-.74-7.175-5.675-7.175M169.727 80.608c-6.59 0-10.528-4.115-10.528-11.001 0-6.792 4.055-11.009 10.566-11.009 1.916 0 3.817.322 6.167 1.045.518.157 1.79.566 2.42.772l-1.488 3.896c-.497-.159-1.421-.44-1.802-.555-1.753-.506-3.225-.848-4.753-.848-3.73 0-5.615 2.256-5.615 6.7 0 4.42 1.895 6.667 5.638 6.667 1.448 0 2.952-.26 4.604-.774l.408-.131-1.747 4.767-.118.038c-1.408.29-2.534.435-3.553.435h-.2zM-19.87 80.608c-6.583 0-10.515-4.115-10.515-11.001 0-6.792 4.047-11.009 10.563-11.009 1.83 0 3.728.322 6.155 1.047l1.669.484-1.403 3.971-1.078-.32c-1.984-.564-3.337-.873-4.811-.873-3.731 0-5.618 2.256-5.618 6.7 0 4.42 1.898 6.667 5.636 6.667 1.516 0 3.077-.275 4.786-.823l1.082-.354L-12 79.063l-1.67.514c-2.384.7-4.296 1.032-6.024 1.032zM92.784 80.545c-1.5 0-2.471-.611-2.878-1.823l-3.27-9.707-1.005.135v11.249H81V61.715c0-1.967 1.439-3.141 3.834-3.141 2.243 0 3.596.922 4.248 2.899l3.796 11.596 3.955-11.596c.47-1.437 1.326-2.899 4.124-2.899 2.379 0 3.747 1.144 3.747 3.141v18.684h-4.768V69.074l-.997-.161-3.39 9.809c-.33 1.218-1.258 1.823-2.766 1.823M192.164 80.407l-1.341-3.885h-7.91l-.728 2.075a2.67 2.67 0 0 1-2.541 1.811h-3.432l7.163-19.587c.55-1.554 1.749-2.31 3.654-2.31 1.813 0 3.09.814 3.6 2.28l6.922 19.617zm-8.167-7.717h5.773l-2.831-8.601zM150.269 58.741h5.346v21.658h-5.346zM141.612 80.406l-3.441-7.833h-4.522v7.833h-5.271V61.423c0-1.624 1.172-2.68 2.98-2.68h7.606c4.465 0 7.465 2.68 7.465 6.662 0 2.404-1.08 4.401-3.027 5.623l-.422.256 4.224 9.122zm-7.963-11.603 4.578-.022c1.912 0 3.096-1.748 3.096-3.375 0-1.728-1.241-2.899-3.096-2.899h-4.578zM111.885 80.401c-1.856 0-3.014-1.028-3.014-2.69V61.457c0-1.677 1.157-2.715 3.014-2.715h13.024v1.309c0 1.406-1.23 2.604-2.68 2.604h-8.084v4.831h9.358v3.777h-9.358v5.254h10.764v3.886h-13.024zM73.6 80.407l-1.342-3.885h-7.926l-.712 2.073c-.347 1.061-1.39 1.813-2.545 1.813h-3.428l7.157-19.587c.563-1.554 1.76-2.31 3.654-2.31 1.818 0 3.092.814 3.602 2.28l6.926 19.617zm-8.167-7.717h5.769l-2.836-8.594zM45.856 80.407l-1.347-3.885h-7.907l-.735 2.082c-.33 1.059-1.371 1.804-2.53 1.804h-3.436l7.16-19.587c.555-1.554 1.753-2.31 3.669-2.31 1.81 0 3.088.814 3.59 2.28l6.94 19.617zm-8.164-7.717h5.784l-2.84-8.594zM14.296 80.406V61.461c0-1.679 1.158-2.72 3.018-2.72h6.648c4.488 0 7.387 2.747 7.387 7.004 0 4.262-3.01 7.013-7.665 7.013h-4.195v7.647zm5.193-11.495h3.799c2.026 0 3.244-1.182 3.244-3.166 0-2.172-1.244-3.186-3.897-3.186H19.49zM116.37 56.056l2.373-3.21c.249-.351.459-.653.99-.653h2.71c.417 0 .675.1.753.285.1.224-.105.491-.3.677l-3.17 2.902z" data-source="https://football-logos.cc"></path><!-- source: https://football-logos.cc --></svg>