<svg xmlns="http://www.w3.org/2000/svg" xml:space="preserve" viewBox="0 0 180 102.28"><!-- Source: https://football-logos.cc --><path d="M3.423 102.281H.614l2.093-9.071h2.79L3.86 99.109l5.249-5.899h2.747zM15.766 100.82l.828-1.423h2.768l-.828 1.423q-.848 1.461-3.617 1.461H11.3q-2.767 0-1.919-1.461l3.578-6.15q.848-1.46 3.485-1.46h3.879q2.636 0 1.788 1.46l-1.397 2.402q-.817 1.403-3.583 1.403h-3.617l-1.364 2.345zm3.576-6.15h-3.616l-1.364 2.345h3.617zM22.4 102.281h-2.768l4.426-7.611q.848-1.46 3.485-1.46h3.879q2.636 0 1.787 1.46l-4.426 7.611h-2.768l4.426-7.611h-3.617zM37.965 100.82l.828-1.423h2.768l-.828 1.423q-.85 1.461-3.617 1.461H33.5q-2.768 0-1.919-1.461l3.578-6.15q.85-1.46 3.485-1.46h3.879q2.636 0 1.788 1.46l-1.397 2.402q-.817 1.403-3.583 1.403h-3.617l-1.364 2.345zm3.577-6.15h-3.617l-1.364 2.345h3.617zM47.107 93.21h9.149l-10.269 7.61h5.843l-.85 1.461h-9.183l10.268-7.611h-5.808zM64.593 93.21h2.767l-4.426 7.61q-.848 1.461-3.617 1.461h-3.616q-2.768 0-1.919-1.461l4.427-7.61h2.768l-4.427 7.61h3.617zM71.266 100.82l.827-1.423h2.769l-.828 1.423q-.848 1.461-3.617 1.461H66.8q-2.767 0-1.919-1.461l3.577-6.15q.849-1.46 3.486-1.46h3.879q2.637 0 1.788 1.46l-1.397 2.402q-.817 1.403-3.583 1.403h-3.617l-1.364 2.345zm3.577-6.15h-3.617l-1.364 2.345h3.617zM78.406 101.41h4.576l-.506.871h-7.343l5.289-9.095h2.768zM93.568 102.281H90.8l2.639-4.536h-3.618l-2.637 4.536h-2.767l4.783-8.225q.505-.87 3.143-.87h3.879q2.636 0 2.13.87zm2.016-8.224h-3.618l-1.638 2.818h3.617zM102.938 102.281l2.638-4.536q.506-.87 3.273-.87h3.617l1.638-2.818h-3.616l-.814 1.398h-2.766l.813-1.398q.506-.87 3.143-.87h3.88q2.636 0 2.129.87l-1.644 2.826q-.496.853-3.264.853l-3.621.01-2.132 3.665h6.384l-.506.871zM118.819 94.057q.506-.87 3.144-.87h3.878q2.638 0 2.131.87l-4.276 7.354q-.508.871-3.274.871h-3.615q-2.77 0-2.263-.871zm-1.507 7.353h3.616l4.276-7.354h-3.616zM129.92 94.057q.506-.87 3.142-.87h3.88q2.637 0 2.13.87l-4.276 7.354q-.508.871-3.273.871h-3.616q-2.77 0-2.263-.871zm-1.509 7.353h3.616l4.276-7.354h-3.615zM138.996 102.281h-2.777l10.842-8.225h-6.04l.506-.87h9.15zM10.193 87.287h4.066l.969-1.698h3.112l-.97 1.698q-.995 1.74-4.106 1.74H9.198q-3.113 0-2.117-1.74l4.191-7.337q.994-1.74 3.958-1.741h4.362q2.963 0 1.97 1.741l-.97 1.696H17.48l.969-1.696h-4.066zM23.751 79.95q.993-1.74 3.958-1.741h4.362q2.963 0 1.969 1.741l-4.19 7.337q-.996 1.74-4.106 1.74h-4.066q-3.112 0-2.116-1.74zm7.178 0h-4.066l-4.19 7.337h4.065zM31.045 89.027l6.042-10.579h7.326q2.963.001 2.385 1.013l-1.872 3.277q-.579 1.014-3.69 1.013H37.17l-3.014 5.276zm8.577-9.566-1.872 3.277h4.066l1.872-3.277zM53.813 89.027h-3.111l3.014-5.276h-4.067l-3.013 5.276h-3.111l5.464-9.566q.577-1.012 3.542-1.013h4.361q2.965.001 2.385 1.013zm2.354-9.566H52.1l-1.872 3.277h4.065zM72.363 89.027h-3.307l3.205-5.276H67.94l-3.204 5.276H61.43l5.81-9.566q.614-1.012 3.763-1.013h4.634q3.15.001 2.535 1.013zm2.503-9.566h-4.32l-1.99 3.277h4.321zM90.187 79.005q.152-.248.86-.522.706-.272 1.188-.273h4.493q3.133 0 2.077 1.741l-5.511 9.077h-3.31l5.513-9.077h-4.321l-5.51 9.077H82.36l5.511-9.077h-4.363l-5.512 9.077H74.69l5.512-9.077q1.058-1.74 4.208-1.741h4.519q1.74 0 1.258.795M104.325 87.287l1.03-1.698h3.306l-1.03 1.698q-1.058 1.74-4.363 1.74h-4.319q-3.307 0-2.249-1.74l4.454-7.337q1.056-1.74 4.207-1.741h4.633q3.149 0 2.092 1.741l-1.74 2.866q-1.015 1.673-4.322 1.674h-4.319l-1.697 2.797zm4.454-7.337h-4.32l-1.698 2.797h4.318zM108.9 89.027l5.512-9.077q1.057-1.74 4.208-1.741h4.632q3.15 0 2.093 1.741l-1.029 1.696h-3.308l1.03-1.696h-4.32l-5.512 9.077zM122.16 89.027l6.565-10.81h3.307l-6.566 10.81zM132.123 87.287h4.319l1.03-1.698h3.306l-1.028 1.698q-1.06 1.74-4.365 1.74h-4.32q-3.308 0-2.249-1.74l4.453-7.337q1.057-1.74 4.207-1.741h4.635c2.101 0 2.796.581 2.093 1.741l-1.031 1.696h-3.306l1.03-1.696h-4.321zM151.951 89.027h-3.306l3.202-5.276h-4.319l-3.203 5.276h-3.307l5.81-9.566q.614-1.012 3.765-1.013h4.633c2.101 0 2.942.339 2.535 1.013zm2.503-9.566h-4.32l-1.989 3.277h4.318z" data-source="https://football-logos.cc"></path><g fill="#034694"><path d="M2.81 101.667H0l2.093-9.071h2.789l-1.636 5.9 5.249-5.9h2.748zM15.151 100.207l.828-1.423h2.768l-.828 1.423q-.85 1.46-3.617 1.46h-3.616q-2.768 0-1.919-1.46l3.578-6.151q.848-1.46 3.485-1.46h3.88q2.636 0 1.787 1.46L20.1 96.458q-.817 1.404-3.583 1.403H12.9l-1.364 2.346zm3.578-6.151h-3.617l-1.364 2.346h3.617zM21.786 101.667h-2.767l4.426-7.611q.849-1.46 3.485-1.46h3.879q2.636 0 1.788 1.46l-4.426 7.611h-2.768l4.426-7.611h-3.617zM37.351 100.207l.828-1.423h2.768l-.828 1.423q-.85 1.46-3.617 1.46h-3.616q-2.768 0-1.919-1.46l3.578-6.151q.85-1.46 3.485-1.46h3.879q2.637 0 1.788 1.46L42.3 96.458q-.816 1.404-3.583 1.403H35.1l-1.365 2.346zm3.577-6.151h-3.616l-1.364 2.346h3.616zM46.494 92.596h9.149l-10.27 7.611h5.843l-.849 1.46h-9.184l10.268-7.611h-5.808zM63.979 92.596h2.768l-4.426 7.611q-.849 1.46-3.617 1.46h-3.617q-2.767 0-1.918-1.46l4.426-7.611h2.768l-4.426 7.611h3.616zM70.651 100.207l.828-1.423h2.768l-.828 1.423q-.85 1.46-3.617 1.46h-3.617q-2.767 0-1.918-1.46l3.578-6.151q.848-1.46 3.485-1.46h3.878q2.637 0 1.788 1.46L75.6 96.458q-.817 1.404-3.584 1.403H68.4l-1.365 2.346zm3.578-6.151h-3.616l-1.364 2.346h3.617zM77.792 100.796h4.576l-.505.871h-7.344l5.289-9.095h2.768zM92.956 101.667h-2.768l2.638-4.535h-3.617l-2.638 4.535h-2.768l4.783-8.224q.506-.87 3.143-.871h3.879q2.636 0 2.13.871zm2.015-8.224h-3.617l-1.639 2.817h3.618zM102.324 101.667l2.639-4.535q.506-.87 3.272-.871h3.617l1.638-2.817h-3.615l-.814 1.397h-2.768l.814-1.397q.506-.87 3.142-.871h3.88q2.635 0 2.13.871l-1.645 2.826q-.494.852-3.264.853l-3.621.01-2.132 3.664h6.384l-.505.871h-9.152zM118.206 93.443q.507-.87 3.144-.871h3.879q2.636 0 2.132.871l-4.277 7.353q-.508.872-3.273.871h-3.617q-2.769.001-2.262-.871zm-1.508 7.353h3.616l4.277-7.353h-3.617zM129.308 93.443q.505-.87 3.142-.871h3.88q2.636 0 2.13.871l-4.277 7.353q-.506.872-3.273.871h-3.616q-2.769.001-2.262-.871zm-1.509 7.353h3.615l4.277-7.353h-3.616zM138.384 101.667h-2.777l10.842-8.224h-6.041l.507-.871h9.149z"></path></g><g fill="#C61D23"><path d="M9.579 86.673h4.066l.97-1.698h3.112l-.97 1.698q-.996 1.742-4.106 1.741H8.584q-3.112.001-2.116-1.741l4.189-7.337q.994-1.74 3.958-1.74h4.362q2.962 0 1.969 1.74l-.969 1.697h-3.112l.97-1.697H13.77zM23.138 79.336q.993-1.74 3.958-1.74h4.361q2.962 0 1.969 1.74l-4.19 7.337q-.995 1.742-4.106 1.741h-4.065q-3.111.001-2.117-1.741zm7.176 0H26.25l-4.19 7.337h4.065zM30.432 88.414l6.042-10.58H43.8q2.964.002 2.385 1.013l-1.872 3.277q-.58 1.015-3.69 1.014h-4.066l-3.014 5.276zm8.575-9.567-1.871 3.277h4.065l1.872-3.277zM53.199 88.414h-3.111l3.014-5.276h-4.066l-3.014 5.276H42.91l5.464-9.567q.579-1.011 3.542-1.013h4.361q2.964.002 2.386 1.013zm2.353-9.567h-4.065l-1.872 3.277h4.065zM71.749 88.414h-3.306l3.204-5.276h-4.32l-3.204 5.276h-3.306l5.809-9.567q.615-1.011 3.763-1.013h4.635q3.15.002 2.535 1.013zm2.502-9.567h-4.32l-1.99 3.277h4.32zM89.573 78.392q.152-.25.861-.523.705-.271 1.188-.272h4.494q3.131 0 2.074 1.74l-5.51 9.078h-3.31l5.514-9.078h-4.32l-5.512 9.078h-3.306l5.511-9.078h-4.363l-5.512 9.078h-3.306l5.512-9.078q1.057-1.74 4.208-1.74h4.519q1.743-.002 1.258.795M103.713 86.673l1.03-1.698h3.306l-1.03 1.698q-1.058 1.742-4.364 1.741h-4.318q-3.309.001-2.248-1.741l4.453-7.337c.702-1.16 2.107-1.74 4.206-1.74h4.634q3.148 0 2.092 1.74l-1.74 2.867q-1.016 1.672-4.322 1.673h-4.319l-1.698 2.797zm4.453-7.337h-4.32l-1.697 2.797h4.318zM108.288 88.414l5.511-9.078q1.057-1.74 4.208-1.74h4.633q3.149 0 2.092 1.74l-1.029 1.697h-3.307l1.029-1.697h-4.319l-5.513 9.078zM121.548 88.414l6.565-10.811h3.305l-6.564 10.811zM131.51 86.673h4.32l1.029-1.698h3.307l-1.028 1.698q-1.06 1.742-4.366 1.741h-4.32q-3.306.001-2.249-1.741l4.454-7.337q1.056-1.74 4.207-1.74h4.635q3.15 0 2.092 1.74l-1.03 1.697h-3.306l1.031-1.697h-4.322zM151.339 88.414h-3.306l3.203-5.276h-4.32l-3.203 5.276h-3.307l5.809-9.567q.614-1.011 3.766-1.013h4.634q3.147.002 2.533 1.013zm2.502-9.567h-4.319l-1.989 3.277h4.318z"></path></g><path fill="#DA2128" d="M89.887 57.881H23.351l-11.15 15.928h66.535z"></path><path d="M89.887 57.881H66.294l-5.589 8.176 18.031 7.752z"></path><path fill="#FD0" d="M112.185 26.027H45.649L34.5 41.954h66.536z"></path><path fill="#005B9E" d="M101.036 41.954H34.5L23.351 57.881h66.536z"></path><linearGradient id="a" x1="-1553.281" x2="-1638.217" y1="1060.094" y2="1060.094" gradientTransform="translate(1698.922 -1002.212)" gradientUnits="userSpaceOnUse"><stop offset=".6" style="stop-color:#da2128"></stop><stop offset="1" style="stop-color:#4c0000"></stop></linearGradient><path fill="url(#a)" d="M138.392 49.707H71.855l-11.15 16.35h84.936z"></path><linearGradient id="b" x1="-1538.233" x2="-1615.918" y1="1027.397" y2="1027.397" gradientTransform="translate(1698.922 -1002.212)" gradientUnits="userSpaceOnUse"><stop offset=".7" style="stop-color:#fd0"></stop><stop offset="1" style="stop-color:#bb8a0b"></stop></linearGradient><path fill="url(#b)" d="M160.688 17.012H94.154l-11.15 16.347h66.537z"></path><linearGradient id="c" x1="-1549.381" x2="-1627.067" y1="1043.744" y2="1043.744" gradientTransform="translate(1698.922 -1002.212)" gradientUnits="userSpaceOnUse" data-source="https://football-logos.cc"><stop offset=".7" style="stop-color:#005b9e"></stop><stop offset="1" style="stop-color:#000034"></stop></linearGradient><path fill="url(#c)" d="M149.541 33.359H83.004L71.855 49.707h66.537z"></path><g fill="#FFF"><path d="m67.248 30.214.979 2 2.226-.075-1.599 1.549.758 2.095-1.968-1.043-1.757 1.368.384-2.193-1.845-1.249 2.206-.313zM77.667 30.214l.616 2.139 2.206.313-1.845 1.249.384 2.193-1.757-1.368-1.968 1.043.759-2.095-1.6-1.549 2.226.075zM56.984 33.308l1.15 1.906 2.211-.268-1.458 1.683.938 2.02-2.052-.867-1.63 1.516.19-2.218-1.946-1.084 2.17-.504zM87.93 33.308l.428 2.184 2.171.504-1.947 1.084.19 2.218-1.63-1.516-2.052.867.939-2.02-1.46-1.683 2.212.268zM47.338 38.625l1.149 1.909 2.212-.269-1.459 1.683.938 2.02-2.051-.868-1.63 1.518.19-2.219-1.947-1.083 2.171-.504zM97.578 38.625l.428 2.187 2.17.504-1.947 1.083.191 2.219-1.632-1.518-2.05.868.939-2.02-1.46-1.683 2.212.269zM41.207 46.561l1.149 1.907 2.212-.269-1.46 1.683.939 2.018-2.051-.866-1.631 1.517.191-2.219-1.947-1.083 2.171-.503zM103.709 46.561l.428 2.186 2.17.503-1.946 1.083.19 2.218-1.63-1.516-2.051.866.938-2.019-1.46-1.683 2.212.269z"></path></g><radialGradient id="d" cx="-1553.65" cy="1032.623" r="33.28" fx="-1559.6" fy="1031.541" gradientTransform="translate(1698.922 -1002.212)" gradientUnits="userSpaceOnUse"><stop offset="0" style="stop-color:#fff"></stop><stop offset=".382" style="stop-color:#e6e7e8"></stop><stop offset=".882" style="stop-color:#d1d3d4"></stop><stop offset="1" style="stop-color:#939598"></stop></radialGradient><circle cx="145.109" cy="34.891" r="34.35" fill="url(#d)"></circle><path fill="#FFF" d="m168.194 27.233-12.081 1.302c-.482.072-.853.125-1.076.153l-3.042 6.137 2.997-5.585 13.607-1.397c-.001-.006-.403-.606-.405-.61M155.144 6.88c-.029-.018-.495-.327-.507-.333l-7.559 9.985.621.557c1.359-1.833 6.332-8.684 7.445-10.209m12.171 44.311c-.248.022-9.494.816-11.518.993l.261.65 11.865-1.055 7.425-13.391-.345-.535c-1.084 1.922-7.563 13.113-7.688 13.338m11.833-13.478h-2.772l-7.235-11.225-.405-12.171.062-.024-.434.113.132 12.393 7.315 11.307h3.344a6 6 0 0 1-.007-.393m-45.002 4.901c-.512 1.551-3.885 11.778-4.003 12.144l.543.332c.537-1.61 3.552-10.62 3.994-11.961l13.109-.665 7.215 11.139c.151-.135.535-.509.563-.532-.223-.341-6.32-9.757-7.409-11.438zm-3.552-38.301-.01.004-.101.048-1.655 6.125.063.121zm-3.984 26.774c1.044-2.107 6.128-12.171 6.248-12.415.299-.021 13.263-1.02 13.563-1.042.157.231 6.748 9.994 7.775 11.495.111-.225.354-.674.366-.701-.175-.253-7.783-11.374-7.953-11.622l-.038.003-.029.039-14.165.993c-.357.721-6.102 12.309-6.234 12.579.011.019.392.564.467.671m-12.78 1.46-2.217-5.004c-.088.23-.271.578-.309.752l2.166 4.89zm30.592 31.242-.097 5.431-.203-.006v.401c.18.008.631-.193.812-.188l.098-5.431 11.804-10.689-.802.072zm25.29-4.938.037.163c.151-.153-.006.321.144.167l-.107-.407zM152.931 1.447l1.853 4.558 13.381 7.896 3.335-.873c-.177-.157-.438-.354-.532-.467l-2.672.834-13.016-7.731-1.758-4.192c-.215-.05-.725-.401-.94-.447q.077.187.152.377zm26.278 37.2h-.03c.011.265.02.5.012.572zm-51.064-27.346.153.042 3.444 6.563.179-.36-3.562-6.787-.153-.041.009-.034-6.529-.384q-.182.172-.364.348l-.169.162 7.014.413zm-8.538 45.679-1.154.23.005.004c.131.161.266.315.399.473l10.847-1.944 14.166 8.66.011-.587-14.115-8.656zm13.827-13.931.228-.688-7.956-11.625-.106.02-.012.024-11.295 2.049-3.315 5.884-.001-.009c-.021-.177-.034-.355-.051-.533l-.098.179.002.012c.025.309.06.464.094.771 0 .002.271.47.271.473 1.486-2.637 3.581-6.029 3.651-6.153.227-.042 9.213-1.639 10.614-1.894z"></path><path fill="#C61D23" d="M139.815 35.526c.022.017.047.038.061.042.035.015.321.061.321.061s.104.11.158.182c.058.072.457.252.457.252s.049.138.064.217c.02.079.115.143.115.143l.229.221.271.215.165.146s.062.129.097.167c.034.034.02.169.02.169s-.042.173-.007.21c.035.035.048.137.048.137l-.037.243s.063.127.096.185a.7.7 0 0 1 .049.261c-.002.032-.114.158-.1.259.015.102.024.258.02.301-.004.046.079.242.079.242s-.008.065-.081.159c-.071.096-.01.09.044.361.049.272-.034.199-.046.298-.009.098-.104.536-.106.581a.7.7 0 0 0 .047.17l.044.316s.02.072.099.165c.082.096-.019.166-.022.211-.005.043-.118.167-.111.246.003.078.073.151.09.23s-.013.132-.032.197c-.02.067-.011.212-.011.212s-.224.259-.245.334-.08.149-.084.225c-.012.08-.016.123-.021.188-.007.068.026.126.057.207.029.081.045.049.089.13.041.083-.037.097-.04.141-.004.046-.05.11-.047.198.005.091-.05.14-.049.252s-.014.133-.018.209a.8.8 0 0 0-.003.257c.015.102.127.256.179.371.052.118.168.216.202.252.033.037-.008.211-.005.29.007.079.04.228.065.363.023.136-.048.462-.061.607-.014.144-.082.193-.082.193s-.12.19-.126.255l-.038.388c-.003.033-.044.308-.049.374-.008.065-.128.146-.167.165s-.025.096-.028.141c-.006.043.032.181.032.181s.018.078.009.157c-.006.076.132.212.132.212l.022.168.118.188.021.204s.021.033.05.105c.03.071.021.158.042.227.018.068-.018.142-.02.299-.003.156-.002.425.002.492.008.065.092.14.157.234.063.096.188.152.188.152l.225.273.095.187.151.248c.023.035-.012.124-.009.256-.004.133.055.184.057.292 0 .112-.023.11-.031.189a.8.8 0 0 1-.044.173l-.186-.038-.062.052-.049.039.031.225c.003.067-.031.188-.031.188s-.047.172-.053.252c-.01.077-.087.247-.087.247s.053.106.144.204a.8.8 0 0 0 .262.169c.05.014.197.038.197.038l.04.248-.146.197-.165.108-.017.188s.097.165.177.264c.081.094-.011.242-.011.242l.204.363.143.112.081.186.16.284.017.099.24.135s.15.034.26.065-.038.119-.038.119l.101.266.101.133s.031.104.124.166c.095.064.131.057.175.127.045.07.126.156.212.185a.6.6 0 0 1 .188.142l.075.118.211.172.114.134.334.074.001.112.42.114.216.11.177.127s.204.106.255.111c.051.004.347.197.383.213.037.017.15.014.15.014s.387.066.434.092.434.096.472.099c.039.003.308-.063.308-.063s.353.022.391.026c.038.003.404-.101.404-.101l.188-.107-.034-.056-.406-.092-.387-.09-.211-.12-.368-.235-.144-.133-.348-.187-.258-.333-.151-.216-.086-.176-.158-.068.008-.188-.17-.082-.168-.226-.157-.062.062-.283.115-.122.137-.1s.093-.035.151-.098c.055-.063-.002-.134-.002-.134l.001-.279.026-.119.301-.23.198-.173.189-.026-.161-.292-.154-.247-.248-.037-.215-.019-.194-.085-.124-.163-.23-.356-.014-.234.207-.284.16-.084.24-.111.094-.06s.073-.093.055-.187l-.018-.088.024-.223c.005-.056.087-.236.087-.236l.047-.23.243-.034.178.002.049.03.106-.317-.184-.202s-.026.029-.133.087c-.109.057-.125.098-.125.098l-.144.045-.204-.219-.108-.188-.128-.132.032-.2-.038-.248.107.076.289.148.36.056.289.026.199.006.183-.163.09-.037-.294-.326.116-.292.016-.141.081-.183.318-.039.464.041.297-.052s.503-.088.694-.127c.195-.038.274-.088.274-.088s.067-.284.08-.373c.005-.091.178-.285.178-.285s.033-.208.042-.307c.01-.1-.017-.203-.017-.203s-.224-.165-.308-.217-.004-.088.023-.231c.026-.141-.038-.125-.038-.125s-.109-.167-.175-.305c-.061-.14-.282-.193-.282-.193l.015-.154c.014-.132.126 0 .126 0l.279.246.277.137.382.123.226.02a.6.6 0 0 1 .148.036l.232.077.183-.074.319-.15-.036-.272.126-.232.341-.148.183-.172.089-.249-.009-.18.022-.333.105-.201s.153-.132.204-.138.142-.155.142-.155l-.054-.206.034-.23.163.147.025.137.11.165.124-.099.06-.096.022-.132.107-.167.247-.314.139-.144.14-.121.133-.078-.024-.27.216-.259.03-.3-.08-.217-.032-.17-.012-.268.069-.082.167-.253.19-.127.012-.101.169-.074.072-.095.474-.058.262-.21c.11-.09.258-.057.258-.057l.148.047.29-.13.18-.151.199-.093.456.017.325.029.127.011s.124.01.189.004c.062-.005.077-.169.077-.169s-.069-.196 0-.234c.066-.039.089-.003.089-.003l.222-.193s.15-.153.202-.25c.047-.096.046-.084.046-.084s.078-.171.096-.226l.088-.249.166-.264s.18-.129.344-.258c.164-.131.007-.068.017-.177.011-.11-.045-.071-.055-.105a4 4 0 0 1 .003-.267l-.032-.194s.084-.181.149-.196c.065-.017.195-.072.195-.072l.031-.219.01-.212.086-.216.067-.161.073-.127-.139-.48.001-.289s-.014-.369-.01-.402-.012-.146-.012-.146l-.025-.258.253-.232h-19.749z"></path><path fill="#034694" d="M131.017 17.218s.164.237.233.299c.071.063.036.037.229.131.191.095.049.004.049.004l.265.024c.176.015.336.186.336.186l.194.061.077.118.295.105.377.022s.062-.117.151-.165c.099-.048.2.051.2.051l.033.07-.087.081.007.19-.008.111.173.127.177.16.188.161.199.262s.066.107.085.155c.023.045-.022.14-.022.14l-.015.134-.047.309-.018.187.213.151s.312.072.349.075.146.046.146.046l.264.137.063.149.023.269-.011.089.092.086.166.137.094-.081.284-.041.239.154.22.198.256.211.092.111.226.029.165-.018.091-.149-.114-.232.176-.14.152-.122.149.025.355-.136.207.074.155.102s.07.062.138.146-.021.077-.021.077l-.1.125-.022.198-.014.155s.084.074.161.147c.08.074.132.212.132.212l.067.186-.02.221-.085.092.062.162.062.116s-.112.38-.13.423-.022.133-.022.133-.014.22-.001.254c.008.036.019.18.019.18l-.126.134-.111.102s-.198.194-.202.228c-.004.032-.112.111-.112.111l-.287-.003-.091.115-.134.211.007.056-.014.276-.231.036-.183.061-.236.091-.257.155.049.271s-.022.088-.077.151c-.058.06-.074.092-.074.092s-.173.097-.177.129-.032.064-.038.098c-.002.032-.057.083-.166.164-.108.079.002.11.055.204.054.095.044.082.044.082s-.237.237-.206.294a1 1 0 0 0 .156.203c.081.086.088.129.088.129l.15.148s.113.021.188.028c.072.006.043.058.043.058l-.035.097-.112.136s-.084.048-.153.108a.5.5 0 0 1-.236.09c-.036.009-.106.07-.199.117s-.103.125-.103.125l-.012.12c-.002.034-.015.124-.015.124s.068.116.133.223c.066.106.11.155.11.155l.038.149-.028.129-.14.011-.078.038.064.127s.092.074.136.136c.047.059.049.037.049.037l.214.12.113.143.12.21.139.113s.311.194.393.247c.084.052.069.207.069.207s.109.165.141.235c.03.069-.015.144-.015.144s.026.256.06.294c.037.037.043.093.072.151.032.059.093.232.093.232s.067.206.105.219c.037.016.102.11.102.11l-.013.132.176.272.046.161.154.237.089.13.021.169c.006.056.078.196.184.328.1.132.135.156.203.241.066.083.059.161.071.297.011.134.014.123.014.123s.029.215.089.251c.058.041.252.146.252.146l.169.06.059.207s.201.262.224.296a.9.9 0 0 0 .236.166c.061.027.252.135.288.16l.106.084h19.748l.025-.023.155-.029s.239-.114.279-.121c.038-.007.102-.125.102-.125l.147-.343s.123-.346.153-.4c.03-.05.234-.189.234-.189l.292-.164.204-.149.149-.21s.128-.255.229-.269c.104-.014.16-.208.16-.208l.215-.261.153-.23s.034-.242.037-.277c.003-.032-.072-.184-.083-.318-.013-.136-.036-.15-.057-.184-.021-.035-.076-.252-.076-.252l-.076-.395-.109-.166-.2-.019-.216-.02c-.048-.003-.197-.162-.197-.162l-.136-.012-.15-.036-.311-.161-.1-.175s-.278-.237-.429-.383-.216-.153-.216-.153-.113-.132-.213-.265c-.104-.131-.14-.146-.16-.182-.019-.035-.156-.035-.223-.029-.064.004-.432.006-.432.006l-.399-.035-.328-.029c-.049-.005-.249-.156-.249-.156l-.391-.27s-.131.135-.183.186a1 1 0 0 1-.321.162c-.104.023-.227.002-.264-.024-.035-.025.034-.219.034-.219s.003-.145-.042-.195c-.05-.048-.189-.26-.189-.26l-.17-.226-.472-.198s-.348-.176-.398-.192c-.049-.017-.261-.045-.261-.045s-.23.036-.271.044c-.036.008-.282.185-.282.185l-.148-.035.091-.26s.086-.125.088-.158-.207-.086-.207-.086l-.342-.119-.438-.029-.167.009-.108-.311.137-.11.206-.261.209-.193-.088-.139-.021-.193-.125-.01-.102-.088-.101-.174v-.225l-.058-.216-.096-.264.036-.153-.032-.148-.118-.098-.035-.148-.286-.181-.195-.185-.094-.097-.139-.113-.176-.17-.354-.121-.312-.039-.355-.12-.189.016-.179-.015-.299-.027-.434-.093-.176-.128-.076-.172-.163-.238-.288-.025-.09-.131.019-.177-.088-.141-.184-.206-.184-.184-.247-.189-.162-.015-.21.072-.271-.069-.161-.137.197-.194.14-.165s.012-.099.025-.131c.015-.032-.253-.124-.253-.124l-.224-.02-.324-.062-.33-.129-.099-.131.066-.172-.114-.1-.23.025s-.177.095-.204.126c-.026.032-.271.054-.271.054l-.317.005-.546-.237-.18-.105-.325-.041-.116.012-.194.039-.132.055s-.273-.158-.271-.191c.004-.033-.004-.212-.004-.212l-.223-.164-.47-.222-.185-.081-.136.11-.234.046s-.274.109-.305.14c-.026.032-.183.194-.213.227-.025.031.063.272.063.272s.089.131.167.237c.077.107-.118.281-.118.281l-.336.072-.135-.024-.125-.168-.018-.201.157-.242.135-.211.072-.205-.134-.201.068-.162.195-.082.11-.08.096-.224-.103-.09-.21.072-.162.108-.181.151-.264.11-.252.111-.151-.002-.305-.105-.104.046-.047.165-.093.091s-.04-.004-.147-.048c-.112-.043-.176-.036-.176-.036l-.12.078-.242.134-.103.248-.042.318-.075.094-.248.111-.142.133-.29.141s-.021.189-.036.221c-.018.032-.127-.012-.127-.012l-.149-.125-.184-.204-.174-.161s-.252-.134-.312-.161c-.063-.027-.174-.16-.174-.16s-.192-.106-.235-.099l-.424.085-.252.145-.385.155-.227-.02-.239-.087-.181-.25-.196-.208-.269-.212-.171-.439-.075-.273.115-.135.041-.286.114-.101.081-.349.074-.218-.007-.19.151-.129.084-.329.095-.214.075-.216-.131-.11-.14-.144h-5.062z"></path><path fill="#DDB10A" d="m152.537 1.391.19.128s-.128.011-.241.001-.168.042-.168.042-.183.039-.221.036-.206.06-.206.06-.124.065-.227.091-.197.104-.197.104l-.281.144.034.16.151.135.202-.004.282-.063.249-.067.216-.249.184-.095.191-.015.435-.018.163.014c.031.002.316-.08.514-.138q-.629-.145-1.27-.266m-.979.048c.051-.005.199-.083.199-.083l.215-.024s.146.003.27.008a37.6 37.6 0 0 0-6.374-.594c-8.817-.059-16.889 2.937-23.1 7.923.051.05.083.078.133.166.065.118.018.059.035.137l.03.114.16.169c.034.038.041.039.078.077.034.035.216.119.255.254.033.137-.046.097-.093.17-.046.074 0 0-.056.052a.2.2 0 0 0-.079.126 1 1 0 0 0 .007.088l.084.176.125.122.092.12.138.123.203.129.109.054-.04.142s.037.149.031.192c-.003.044.099.162.099.162l.096.188.087.143.172.193.112.132-.028.153.15.281.136.156s.004.079-.004.166-.145.066-.203.128c-.055.063.039.116.039.116s-.022.098-.055.173c-.032.074-.14.109-.14.109l-.031.074-.044.208-.005.168.251.277.286.182.05.138.074.15.309.184.321.072s.147.035.286.082c.133.045.188.128.188.128l.174.149c.045.039.192.228.192.228l.11.155.233.065.165-.009.204.143.322.182.361.2.087.118.211.052.088.11.508.121.165.015s.234-.078.276-.109c.04-.03.195-.073.195-.073l.352-.102.323.195.272.17s.035.045.179.26c.144.213.101.132.201.265.103.129.014.088.014.088l.011.006h5.062l-.089-.091-.511-.212-.313-.039-.254.023-.346.026-.385-.056-.351-.042-.314-.029-.229-.098-.026-.114.105-.058.239-.257.238-.224.25-.212.207-.326.13-.167.138-.212.011-.254-.009-.28.053-.15.159-.199s.206-.148.271-.165c.063-.016.053-.174.053-.174l-.102-.131-.229-.109-.42-.094-.382.013-.243.032-.35.071-.227.147-.021.187-.169.175s-.071.195-.075.227c-.001.033-.188.217-.253.268-.068.049-.198.082-.198.082l-.106.079-.142.145-.035.146-.253-.011-.148-.001-.33-.019-.335.037-.105.036-.408.052-.225-.029-.021-.148-.215-.164-.147-.024-.2-.163-.072-.273-.145-.203.015-.177-.084-.152-.021-.17-.182-.226.051-.129-.119-.188-.042-.116s.03-.276.036-.31c.002-.033.163-.264.163-.264l.029-.309.017-.311.296-.42.183-.317.128-.145.22-.17-.002-.347.144-.445.059-.194.265-.245.209-.069.184-.184.269-.044.284-.04.194-.05.199-.106.217-.159.221-.047.224-.093.215-.003.304.004.113.01.144.092.109.053.262-.087.308.083.137.145.144.09.179-.028s.182-.028.267-.01c.089.019.19.138.19.138l.207.075s.117-.024.156-.042-.037-.137-.037-.137l-.079-.23.119-.168.112-.012.34-.114.163-.084.223.163.105.077.271-.144.317-.039.179-.017.26.2.138.146.031.08.023.148.233.063.169-.051s.179-.151.217-.159.202.018.202.018l.05.004.105.209.164.238.195.241-.044.185s-.028.143-.163.198c-.127.054-.011.153-.011.153l-.022.2-.022.232.008.189.175.274.033.291.173.172.146.189.065.107h.114l.261-.189.104-.159.083-.336-.02-.304.036-.387-.06-.272.066-.173.054-.263-.104-.254-.055-.338.018-.288.159-.332.17-.196.234-.214.216-.227.336-.092h.125l.304-.117.233-.19.281-.131.155-.176.22-.036.318-.041.113-.101.18-.172s.219-.148.264-.134c.051.016 0 0 .065.005.064.006.291-.118.291-.118s.151-.142.206-.171c.052-.029.258-.179.296-.175.038.003.323-.183.323-.183l.063-.26.041-.311.13-.155.154-.166.263-.087.206-.15.116-.167.073-.35.183-.051.222-.08.22-.16.296-.174.172-.363.176-.085s.23-.146.294-.141c.062.006.097.009.238.032.135.023.135.034.135.034l.361-.079.313-.095s.22-.046.256-.044c.041.004.272-.066.272-.066l.126.002.125-.113-.002-.223.026-.254.223-.237.224-.191s.197-.095.299-.084c.101.007.169-.053.169-.053l.227.021s.119-.067.159-.097l.18-.13.274.024.229-.001.437-.073.158-.053.043-.05.101-.115zm-29.14 9.593c-.038-.002-.177-.149-.177-.149l-.075-.251.048-.23-.016-.069s-.029-.236-.052-.272c-.021-.035.006-.043.006-.043l.03-.465-.126-.112s-.002-.003-.046-.154c-.146.123-.286.253-.43.378l.088.109.009.167-.034.198-.116.157-.125.111-.017.177.142.112.049.127s.181.093.326.173c.143.08.152.125.152.125s.057.072.088.12c.034.046.118.088.118.088l-.104.157.003.113.076.128s.169-.05.269-.041c.1.008.084-.205.084-.205l.02-.344c-.001.001-.152-.101-.19-.105"></path><path d="M179.304 38.107h-3.493L168.495 26.8l-.132-12.393 3.587-.939c-.123-.154-.241-.311-.366-.463l-3.42.895-13.381-7.896-1.853-4.558c-.214-.05-.428-.103-.644-.149.825 2.028 1.744 4.293 1.971 4.853l-7.653 10.112-14.223.997-3.554-6.77 1.827-6.76-.01.004a28 28 0 0 0-.632.298l-1.643 6.074-6.623-.389q-.183.172-.364.348-.087.08-.171.162l7.015.413-.021.079.153.041c.446.853 3.13 5.966 3.562 6.787l-6.272 12.651-11.355 2.06-2.515-5.679c-.022.085-.039.173-.061.259q-.073.309-.143.619l2.255 5.09-2.941 5.22.001.012q.037.465.086.925l.001.009c1.486-2.637 3.259-5.783 3.328-5.908l11.4-2.069 7.956 11.625-4.048 12.276-11.099 1.989.005.005q.198.238.399.473l10.847-1.944 14.115 8.656-.097 5.39c.18.007.36.009.541.014l.097-5.431 11.611-10.41 11.85-1.053 1.626 6.737c.15-.152.296-.312.444-.466l-1.574-6.522 7.443-13.428h3.429l.001-.011q.03-.262.054-.528m-24.667-31.56c.378.221 11.577 6.831 13.029 7.686l.088.333.07-.018c.017 1.632.123 11.661.129 12.092l-12.946 1.475-7.929-11.584zm-28.493 23.87 6.254-12.617 14.213-.997c.17.249 7.778 11.369 7.953 11.622l-6.255 12.617-14.214.996c-.168-.247-7.78-11.368-7.951-11.621m17.98 32.914-13.98-8.573c.119-.367 3.538-10.734 4.016-12.182l13.977-.979c1.035 1.601 7.208 11.13 7.432 11.473-.332.297-11.157 10.001-11.445 10.261m23.8-11.552-11.865 1.055-7.359-11.361 6.354-12.817 13.036-1.486 7.26 11.219c-.154.275-7.291 13.146-7.426 13.39" opacity=".2"></path><path fill="#58595B" d="M110.219 34.891c0 19.239 15.65 34.89 34.891 34.89 19.237 0 34.891-15.65 34.891-34.89C180 15.652 164.347 0 145.109 0c-19.24 0-34.89 15.652-34.89 34.891m1.082 0c0-18.642 15.166-33.809 33.809-33.809s33.809 15.167 33.809 33.809-15.166 33.808-33.809 33.808-33.809-15.167-33.809-33.808" data-source="https://football-logos.cc"></path><!-- source: https://football-logos.cc --></svg>