<svg xmlns="http://www.w3.org/2000/svg" viewBox="28 31 1617 894"><!-- Source: https://football-logos.cc --><path fill="#E92026" d="M301 117h658l14 1-4 4-13 5-11 5-17 7-21 11-18 11-15 10-19 14-12 11-8 7-4 2-1 3-8 7-8 8-7 8-12 14-14 19-7 10-11 19-10 18-8 17-10 25-11 34-5 23-4 29-3 41v20l2 24 4 27 6 27 6 21 11 29 8 18 10 19 10 17 8 12 10 14 10 13 9 10 9 11 21 21 11 9 14 12 19 13 14 9 15 9 19 10 21 9 20 8 6 2v2l-947-1 3-10 11-30 48-128 17-44 19-51 9-23 6-17 22-58 4-13 14-37 15-41 10-26 16-42 12-32 14-38 11-29 14-37 11-30 13-33 3-8z" data-source="https://football-logos.cc"></path><path fill="#3E459D" d="M1084 118h15l30 1 29 4 27 6 21 6 27 10 24 11 22 12 19 12 19 14 14 12 12 11 10 9 14 15 18 22 13 19 11 18 13 24 10 23 8 22 8 29 5 26 3 25 1 12v43l-3 29-4 24-7 28-8 24-10 24-12 24-12 20-10 15-13 17-11 13-16 17-9 9-8 7-10 9-16 12-16 11-20 12-27 14-27 11-25 8-25 6-28 5-19 2h-56l-33-4-28-6-27-8-22-8-20-9-25-13-18-11-14-10-13-10-14-12-12-11-14-14-7-8-11-13-12-16-12-18-12-21-8-16-10-23-11-33-7-30-4-25-2-21v-43l2-25 4-25 5-23 6-20 10-27 8-18 13-25 14-22 11-15 13-16 7-8 9-10 17-17 11-9 16-13 24-16 15-9 27-14 27-11 28-9 27-6 25-4 9-1z"></path><path fill="#FDEE0D" d="M301 117h658l14 1-4 4-13 5-11 5-17 7-21 11-18 11-15 10-19 14-12 11-8 7-4 2-1 3-8 7-8 8-7 8-12 14-14 19-7 10-11 19-10 18-8 17-10 25-11 34-5 23-4 29-3 41-1 2H165l-1-3 14-37 15-41 13-34 16-42 12-32 14-38 11-29 14-37 11-30 13-33 3-8z"></path><path fill="#2B2D8B" d="M1084 118h15l30 1 29 4 27 6 21 6 27 10 24 11 22 12 19 12 19 14 14 12 12 11 10 9 14 15 18 22 13 19 11 18 13 24 10 23 8 22 8 29 5 26 3 25 1 12v43l-3 29-4 24-7 28-8 24-10 24-12 24-12 20-10 15-13 17-11 13-16 17-9 9-8 7-10 9-16 12-16 11-20 12-27 14-27 11-25 8-25 6-28 5-19 2h-56l-33-4-28-6-27-8-22-8-20-9-25-13-18-11-14-10-13-10-4-3 1-3 2 1v-2l4-1h3l4 1 4 4v2l12 6 8 7 10 6 11 7 9 1 2 2 6 5v2l6 1 7 3v2h5l7 3 8 4 6 1 9 3 13 4 8 1v2l16 3 1 1 26 2 5 3 7-1v2l3-1 8 1 16-1h12l4-1 30-2h17l10-2 3-2h7l11-3 7-2 13-4 9-3 9-6 2-4h3l-3-2 4-1 6 1h8l9-4h2v-2l16-8 8-5 5-3 7-4 4-4 7-3 5-6 6-3 6-4 7-8 14-15 19-19 9-11 11-14 16-24 12-21 13-27 1-3-36 12-26 8-27 9-25 8-38 12-6 3-11 15-10 14-11 14-10 14-26 36-7 6-3-1v-4l1-2 3-1-2-1-4 3-3-1-7 9-3 1-17-1h-23l-4 4-11 5-12 2-4 7-3 3-1-2-8-1v12l-5 4-7 8-2 2 1 5 2 2 1 4-1 1h-6v2h-8v1h-14l-11-2v-4l2-7 1-4h2l2-6 2-5h2l-1-20 5-15 3-10 2-4 3-9 2-7h2l-1-3h2l-1-5 1-2 1-7 1-4h2l-1-5h2l-1-5h2l1-16 1-3 1-7h2l2-16 1-10-11-10-10-7-4-8-10-29-8-14-5-9 1-7 5-6 2-1v-16l2-5 9-1 2-6 6-5 2-6 2-12-48-3h-7l-13 17-13 18-14 19-10 13-13 18-28 38-4 1-1 9-4 1-2-4-4-5 1-3h2l2-5 3-4 5-9 14-19 12-16 14-19 9-12 28-38 5-7-1-8-9-31-3-12-1-7h2l2 2 10 6 5 16 8 27 26 1-3-5-2-2v-4l11-1 3 9 1 2 3 1 23 1 6-9 12-1 4-3h6l-1 5-3 8 1 4h3l2-9 3-1h10l4 4v2l9 3h16l6 3 27 1h18l4-10 16-47 29-85 1-7-13-10-18-13-38-28-8-6-6-7-11-14-8-10v-2l5 2 15 12 13 9 13 10 57 42 8 5h11l43-5 48-5 8-1 4-17 9-36 1-6-6-8-11-13-7-8-21-21-8-7-16-13-20-14-26-15-16-8-21-9-12-4-4 2-18 5-73 17h-2v32l1 35 17 12 4 4-10 5-6-1-2-5-2-8-5-5-10-6-1-1-1-62-8-4-43-16-26-10-7-4-10 1-26 8-21 8-17 8-19 10-17 10-11 8-10 7-17 14-11 9-8 8-6 5-2 3h-2l-1 3-7 3-3 5-5 2 1 6-10 13-11 16-12 19-11 20-12 28-9 28-6 26-3 21 5-2v2l3 1-6 1v2l-3 1-2 5v2h-2v11l-1 1-1 15 1 1v26l2 23 3 19v5h2l6 27 2 11 10 34 4 10 4 7 2 1 3 8h4l3 10 4 9 2 6 10 16 10 13 4 6 2 9 1 4 3 3 3 5v2l-4-1-9-10-11-14-13-18-12-20-8-14-11-24-10-27-7-24-6-27-4-29-1-12v-43l2-25 4-25 5-23 6-20 10-27 8-18 13-25 14-22 11-15 13-16 7-8 9-10 17-17 11-9 16-13 24-16 15-9 27-14 27-11 28-9 27-6 25-4 9-1z"></path><path fill="#2A2C8B" d="M164 482h547l2 34 4 30 6 28 7 25 11 29 8 18 8 15v2l-18 1-643-1 6-17 15-40 17-45 18-48 11-29z"></path><path fill="#FCED0D" d="m1207 151 9 2 24 10 16 8 18 10 16 10 16 12 10 8 10 9 8 7 22 22 9 11 8 10 1 6-4 14-10 39-3 3-42 5-47 5-8 1h-11l-11-7-17-13-18-13-12-9-19-14-28-21-6-4 8 11 11 13 4 6 7 6 18 13 38 28 16 12 1 4-12 37-14 40-12 36-11 32-2 2h-18l-27-1-6-3h-16l-9-4-4-5h-13v7l-2 3-4-1-1-4 5-13-7 2-3 2-12 1-5 8-1 1-23-1-4-2-3-10h-11l2 5 3 3v3h-26l-3-7-10-35v-2l-5-2-5-3-2-1v-2l-4-1-1-3-5-2-13-11-3-4-3-15-6-14-5-12-7-14-4-6 2 9 6 15 3 6v7l-1 1h-5l-6-10-8-21-4-20-5-11v-2l-3-1-3-9v-3h-2l-1-3-1-13v-19l7-15 3-7 6-2-1-6-7-11-6-13-4-16-9 1-15 6-10 2 1-4 10-8 15-10 13-8 11-7 11-6 18-10 4-1h16l6-7 5-2h6l11 6 1 1-1 12 15 7 16 4 7 2 7-1 7-4h9l20 7 3 3v22l-4 4-6-1-5-6-7 1-10 6-7 4-3 4v6l5 5 8 7 9 8v2l3 1v3l6 1 5 3h5l10-7 6-2-4-16 2-7 7-1 7 6 10 6 3 5 2 11 9-1 6-3-4-4-13-9-4-3-1-35v-24l1-8 15-4 76-18z"></path><path fill="#FDFDFD" d="M1350 345h12l10 13 10 14 26 36 11 15 10 14 9 12 5 5v54l-2 23-6 32-7 25-4 11-7 3-67 22-57 18-29 9h-5l1-4 8-8 13-10 1-1v-16l-9-1-13-13-16-8h-9l-7-14-17-41-9-23v-7l12-36 13-38 10-29 12-36 4-10 31-4zM833 319l11 1 47 9 18 3 3 3 5 11 5 23 8 20 4 7h5v-7l-8-18-3-9 1-4 2 2 3 5 4 8 5 12 9 20 3 15 6 7 14 10 3 4 8 30 7 23v5l-28 38-11 15-14 19-13 17-13 18-8 11-8 10-12-2-89-23-3-4-9-37-18-78-8-36v-9l16-26 12-19 11-18 13-21 8-13 10-16z"></path><path fill="#2B2D8C" d="M1084 118h15l30 1 29 4 27 6 21 6 27 10 24 11 22 12 19 12 19 14 14 12 12 11 10 9 14 15 18 22 13 19 11 18 13 24 10 23 8 22 8 29 5 26 3 25 1 12v43l-3 29-4 24-7 28-8 24-10 24-12 24-12 20-10 15-13 17-11 13-16 17-9 9-8 7-10 9-16 12-16 11-20 12-27 14-27 11-25 8-25 6-28 5-19 2h-56l-33-4-28-6-27-8-22-8-20-9-25-13-18-11-14-10-13-10-4-3 1-3 2 1v-2l4-1h3l4 1 4 4v2l12 6 8 7 10 6 11 7 9 1 2 2 6 5v2l6 1 7 3v2h5l7 3 8 4 6 1 9 3 13 4 8 1v2l16 3 1 1 26 2 5 3 7-1v2l3-1 8 1 16-1h12l4-1 30-2h17l10-2 3-2h7l11-3 7-2 13-4 9-3 9-6 2-4h3l-3-2 4-1 6 1h8l9-4h2v-2l16-8 8-5 5-3 7-4 4-4 7-3 5-6 6-3 6-4 7-8 14-15 19-19 9-11 11-14 16-24 12-21 13-27h2v-3h-6l1-5h2v-4l5-1v-2l3-2 2-7 7-23 6-28 3-21 1-14v-54l-5-5-10-13-20-28-39-54-5-7v-2l5 2 5 4 4 8 6 5 2 1-1 6 3 1 4 4 3 1-3-4 1-2 6 5 5 5 10 13 12 17 12 16 1 3h2l-8-37-8-27-12-29-8-16-9-17-7-11-1-7-10-1v2h-2l-1 8-3 9-4 14-3 8-2 1v-9l10-40 1-6-6-8-11-13-7-8-21-21-8-7-16-13-20-14-26-15-16-8-21-9-12-4-4 2-18 5-73 17h-2v32l1 35 17 12 4 4-10 5-6-1-2-5-2-8-5-5-10-6-1-1-1-62-8-4-43-16-26-10-7-4-10 1-26 8-21 8-17 8-19 10-17 10-11 8-10 7-17 14-11 9-8 8-6 5-2 3h-2l-1 3-7 3-3 5-5 2 1 6-10 13-11 16-12 19-11 20-12 28-9 28-6 26-3 21 5-2v2l3 1-6 1v2l-3 1-2 5v2h-2v11l-1 1-1 15 1 1v26l2 23 3 19v5h2l6 27 2 11 10 34 4 10 4 7 2 1 3 8h4l3 10 4 9 2 6 10 16 10 13 4 6 2 9 1 4 3 3 3 5v2l-4-1-9-10-11-14-13-18-12-20-8-14-11-24-10-27-7-24-6-27-4-29-1-12v-43l2-25 4-25 5-23 6-20 10-27 8-18 13-25 14-22 11-15 13-16 7-8 9-10 17-17 11-9 16-13 24-16 15-9 27-14 27-11 28-9 27-6 25-4 9-1z"></path><path fill="#FCFCFC" d="m1207 151 9 2 24 10 16 8 18 10 16 10 16 12 10 8 10 9 8 7 22 22 9 11 8 10 1 6-4 14-10 39-3 3-42 5-47 5-8 1h-11l-11-7-17-13-18-13-12-9-19-14-28-21-9-6-13-10-10-7-1-35v-24l1-8 15-4 76-18z"></path><path fill="#FDFDFD" d="m1168 299 4 2 18 13 38 28 12 9 1 4-12 37-14 40-12 36-11 32-2 2h-18l-27-1-6-3h-16l-9-4-4-5h-13v7l-2 3-4-1-1-4 5-13-7 2-3 2-12 1-5 8-1 1-23-1-4-2-3-11h2l2-6 2-3v-8l-4-5-9-3-5-2 1-6 2-3 1-15-2-3h-7l-8 4-6 5-7-1-8-7-4-6-1-3v-7l2-17 4-8 5-3 11-3h16l12 1 11 4 6 7 3 7 3 10 5 5h2v-8l-3-13v-9l5-3 6-3 10-6 3-2 1-16 8-7 4-2 11 1 1-3v-6l4-3 9-2 5-3 4 1v9l8-1 9-4-1-4-11-6-4-4-1-9-5-2 1-4 4-1 11 2h17l5-3z"></path><path fill="#FDFCFC" d="m1000 505 22 1 31 2 2 1-2 16-8 8-2 6-9 1-1 4v16l-6 5-2 4 1 7 8 14 6 12 10 29 4 4 14 11 5 5-1 10-3 16h-2l1 6-1 1-1 9-2 10h-2l1 5h-2l1 5h-2l1 4h-2v10l-1 4-1 3h-2l1 3h-2l1 4h-2l-2 12-3 3v3h-2l1 3-6 2-55-3-5-5-11-17-14-22-16-25-7-11-12-19-14-22-2-4 1-5 9-11 10-14 28-38 12-16 13-18 21-28z"></path><path fill="#FDFDFD" d="M1415 615h2l-1 5-14 29-13 22-11 16-10 13-11 13-7 8-23 23-14 11-11 9-15 10-19 12-27 14-8 3-27-15-16-9-8-5 1-4 10-14 13-18 10-14 13-18 12-15 8-12 10-13 9-4 35-11 30-10 22-7 38-12z"></path><path fill="#E92225" d="m1076 662 135 1 37 1 1 1-1 7-7 12-13 13-10 7-5 5-11 15-28 38-6 7-19-1h-23l-4 4-11 5-12 2-4 7-3 3-1-2-8-1v12l-5 4-7 8-2 2 1 5 2 2 1 4-1 1h-6v2h-8v1h-14l-11-2v-4l2-7 1-4h2l2-6 2-5h2l-1-20 5-15 3-10 2-4 3-9 2-7h2l-1-3h2l-1-5 1-2 1-7 1-4h2l-1-5h2l-1-5h2l1-16 1-3 1-7h2l1-9z"></path><path fill="#FDFDFD" d="m796 615 8 1 69 17 22 6 6 7 12 19 11 17 28 44 10 16 12 19 1 4-16 8-23 11-9 4-7-1-17-10-16-11-13-10-11-9-15-14-11-11-7-8-9-10-11-14-18-27-3-9 2-7 4-31zM1008 141h5l12 6 40 15 29 11 4 3v60h-9l-1 8 3 9v6l-11 6-5 4h-5l-8-4-3-1-1-3-5-5-12-11-7-5-1-2v-6l4-5 10-6 9-5h5l5 6 6 1 3-3v-22l-4-3-18-6h-9l-9 5-9-1-13-4-9-2-13-7 1-12-11-6-9 1-5 4-3 4h-16l-7 3-19 10-13 8-15 9-15 10-12 9-1 3 12-3 12-5 9-1 2 7 5 15 7 13 5 8-1 5-6 2-5 13-4 8v19l1 15-10-1-42-8-12-2-3-3-2-54-1-6 7-8 8-7 9-9 14-11 13-11 15-10 14-9 22-12 23-11 28-10z"></path><path fill="#FDFCFC" d="M985 774h23l36 2 1 19-1 4h-2l-1 5-3 6h-2l-1 5-1 7h-2l1 2 11 2h10v-1h8l4 1v-2l6-1-2-5-2-7 5-4 2-3h2l1-3 4-4v-11l1-1h5l4 3h2l2-6 3-4 71 3 17 9 23 13 7 5v2l-27 9-25 6-30 5-24 2h-29l-29-2-27-4-29-7-33-11-22-9-2-4 16-8 26-12z"></path><path fill="#3E459D" d="M1098 127h7l5 1 18 1v2l6-2 16 2 3 3 20 2 8 3 9 2 7 4 3 2 4 1v2l7-1h7v2l4-1 5 3 5 1 3 3 10 2 1 3 6 1 6 5 4 1 3 1 1 2 14 7 2 4 5 2 13 9 6 3 10 10 6 4 6 7 5 3 3 4 2 4 2 1v2l4 2 8 7v2l4 2 3 3v2l4 2 4 5 1 3 6 5-1 3 2 1 1 6-2 1-3-7-9-11-11-13-23-23-8-7-16-13-20-14-26-15-16-8-21-9-12-4-4 2-18 5-73 17h-2v32l1 35 17 12 4 4-10 5-6-1-2-5-2-8-5-5-10-6-1-1-1-62-8-4-43-16-26-10-7-4-10 1-26 8-16 6-3-1 4-1v-2l-2-1 7-3 9-3 3-2 7-2h4l4 1 4-1 1-2 6-1h8l12-5 5-2 9-1 2-1 7 1 9-2 12-1z"></path><path fill="#2B2D8B" d="M494 860h37l-1 20-1 15 8-9 9-11 13-15h38l-2 5-17 35-11 23-1 1h-24l2-5 8-17 8-16v-2l-9 10-9 11-10 11-7 8h-21l1-16 3-25 1-2h-2l-2 6-17 35-2 2h-23l1-5 8-16 20-41z"></path><path fill="#2A2D8B" d="m943 31 3 1-1 16-2 19 5-4 9-11 11-13 6-7h38l-2 5-14 29-11 23-3 6-4 1h-19l-1-4 9-17 10-21-1 1-10 11-9 11-11 12-5 6-5 1-17-1 1-14 3-28-19 39-4 4h-21l-1-2 10-21 20-40 1-1zM628 860h60l9 3 4 5 1 4-4 8-7 6-8 3 5 4 4 5-2 8-7 9-9 5-11 3-11 1h-56l2-6 12-25 16-32zm23 13-4 4-2 7 1 1h12l8-2 5-5v-4l-9-1zm-12 24-3 3-3 6 1 4 21-1 5-3 3-5-3-3-4-1z"></path><path fill="#2A2C8B" d="M1122 32h60l11 2 5 6v8l-6 9-9 6-12 5 1 3 3 1 3 8 3 12v3l-2 1-29-1-4-9-5-13-3-2-5-1-2 5-10 20h-29l1-5 8-16 11-23 8-16zm23 13-5 9 1 4h10l10-2 5-3 1-6-5-2z"></path><path fill="#FDFDFD" d="M821 259h2l1 24v28l-6 12-12 19-13 21-12 19-25 40-7 9h-2l1-16 6-27 8-26 10-25 8-16 10-18 7-11 8-12 12-16z"></path><path fill="#2A2D8B" d="M414 858h13l12 2 10 5 5 6 1 3v9l-4 11-7 10-7 7-11 7-14 5-14 2h-19l-12-2-8-4-5-6-1-2v-12l4-10 8-11 10-8 16-8 13-3zm-5 16-10 3-6 4-7 8-4 10 1 6 5 4 10 1 9-2 9-6 7-10 2-5v-8l-4-4-2-1zM202 858h9l14 2 10 5 4 5 2 4v10l-8 16-8 9-10 7-11 5-12 3-8 1h-20l-14-3-6-4-5-6-1-3v-8l5-12 8-11 11-9 15-7 13-3zm-7 16-9 2-9 6-7 11-2 5 1 7 4 4 4 1h7l10-3 9-6 6-9 2-6v-6l-5-5-3-1zM469 31h26l11 3 6 4 4 5 1 2v11l-5 12-7 9-10 9-12 6-14 4-6 1h-25l-12-3-6-4-5-7-1-7 3-10 5-9 9-10 8-6 12-6zm3 15-9 2-8 5-6 7-4 9-1 5 3 5 6 3h9l11-4 8-7 6-12v-8l-5-4z"></path><path fill="#2B2D8C" d="M1030 32h76l-2 5-4 8-3 2h-45l-3 8 41 1-1 5-5 8-43 1-5 11h47l-2 6-4 8-12 1h-65l-2-2 9-16 11-23 11-22z"></path><path fill="#2A2D8B" d="M826 860h30l2 2 3 61-1 1h-29v-11l-30 1-4 2-6 8h-30l6-7 44-44 11-9zm5 19-7 7-9 11v2h16l1-1 1-19z"></path><path fill="#2B2D8B" d="M1394 32h32l1 1 3 49v13l-9 1h-19l-2-1V85l-31 1-7 9-3 1h-28l2-4 13-12 44-44zm7 19-9 9-7 8-1 3h17l1-3 1-17zM649 32h32l1 1 3 62-4 1h-25l-1-1V85l-31 1-8 9-7 1h-23l1-4 8-7 21-21 8-7 21-21zm5 20-11 12-5 6v1h18l1-8V52zM834 32h32l1 3 2 42v18l-5 1-24-1V85l-32 1-8 9-3 1h-26v-3l8-8 8-7 22-22 8-7zm6 20-5 4-7 8-5 5v2h18l1-19z"></path><path fill="#2A2D8B" d="M1302 31h26l12 4 5 6 2 4v5l-3 2-23 3-5-7-3-1h-9l-9 3-6 4h-2l-7 14-1 9v2l6 2h11l12-6 4-5h7l15 3 2 3-5 5-9 7-12 6-13 3h-27l-9-2-6-4-5-6-1-3V71l5-12 8-10 7-6 15-8 11-3z"></path><path fill="#2B2D8C" d="M369 31h26l12 4 6 7 2 6-1 3-10 2-16 2-5-7-3-1h-9l-10 3-4 3h-2l-2 4-5 8-2 6v6l3 3 3 1h11l12-6 5-5 10 1 13 3-2 5-12 9-10 5-16 4h-26l-11-3-6-4-4-7V71l5-12 8-10 12-9 13-6z"></path><path fill="#2B2D8B" d="m91 858 16 1 11 4 6 7 2 5-1 4-21 4-6-1-4-6-2-1H81l-11 4-3 1-2 4-6 10-2 5 1 7 7 3 12-1 10-6 4-4 11 1 12 3-1 4-14 11-14 6-13 2H51l-11-2-8-5-3-4-1-3v-14l7-14 11-11 10-6 12-5 10-2zM1194 858h9l10 2 6 3 4 5 1 3v7l-4 13-7 12-11 12-8 5-13 4-8 1h-17l-9-2-7-6-2-5 1-9 4-11 6-11 11-12 10-6 9-3zm-6 13-8 4-7 9-8 17-1 7 3 4h8l6-3 8-9 8-17 1-9-3-3z"></path><path fill="#2A2D8B" d="M1094 858h12l10 2 6 4 3 3 1 3v10l-4 11-6 11-11 12-9 6-12 4-9 1h-16l-9-2-6-4-3-5v-11l5-13 7-11 9-10 10-6 14-4zm-4 13-6 3-7 7-10 21v8l3 2h8l9-6 7-11 6-13v-9l-3-2zM544 32h55l10 2 5 6 1 6-5 10-4 5-8 6-11 4-5 1-28 1-10 19-4 4h-26l-1-3 10-19 13-28 7-13zm21 14-5 11v2h9l10-2 5-4v-6l-1-1z"></path><path fill="#FDFDFD" d="m1383 287 4 2 14 24 8 15 13 30 8 24 7 28 3 15v5h-2l-14-19-26-36-12-17-11-15-3-6v-7z"></path><path fill="#2B2D8C" d="m999 858 17 1 9 3 5 5 1 2v6l-6 9-8 7-16 8-23 9 6 1h29l1 3-6 11-1 1h-76l4-7 14-11 15-8 25-11 11-6 3-4-2-4-2-1-9 1-5 3h-2l-2 4-1 1h-13l-13-2 6-7 7-6 7-4 12-3z"></path><path fill="#FDFDFD" d="m744 445 3 1 7 31 12 51 11 48 5 23v22l-1 14-1 2-3-1-8-18-10-27-7-24-6-29-3-22v-69zM1080 131h24l28 2 26 4 23 5 6 2-1 2-46 11-30 7h-8l-42-16-26-9v-3l27-4z"></path><path fill="#2C2F8D" d="M1261 118h153l24 12 4 3v2h-152l-16-9-13-6zM1481 378h150l3 5 2 11-1 1h-151l-3-8-1-8z"></path><path fill="#2B2D8C" d="M280 860h28l-1 5-16 33-5 10h43l-1 4-6 12h-73l1-4 25-51z"></path><path fill="#2C2E8D" d="M1419 713h152l-1 4-11 13h-152l2-5z"></path><path fill="#2B2D8C" d="m1325 155 154 1 13 10 5 4v2h-152l-13-10-7-5zM1389 750h152l-2 4-13 13h-153l6-7 8-9zM1370 193h153l5 4v2l3 1 6 7v2h-152l-5-5-10-9zM1349 788h152l-2 4-12 9-3 3h-154l5-5 11-9zM1461 639h152l-3 9-3 6-1 1-152 1-1-2zM1452 304h152l4 7 3 6v4h-151l-4-5-4-9zM1404 230h153l6 7 5 7v2h-152l-7-8-5-7z"></path><path fill="#2B2D8B" d="M1431 267h152l3 3 6 11v2h-152l-7-10-2-3z"></path><path fill="#2B2D8C" d="M1468 342h153l5 13-1 3h-151l-3-5-3-8zM1442 677h153l-6 11-4 5h-152l2-5 6-10z"></path><path fill="#2C2E8C" d="M1474 602h153l-3 11-2 5h-152l-1-2z"></path><path fill="#2B2E8C" d="M1490 528h153l-1 13-1 3h-153z"></path><path fill="#2B2D8C" d="M1488 416h152l2 7v9h-152l-2-9zM1484 565h153l-3 15-1 1h-149l-3-1 1-8zM1493 453h150l2 2v14h-152l-1-4v-11zM1493 491h152v15l-1 1h-151l-1-1v-8zM1298 825h151l-1 3-24 12-5 2h-150v-2l26-14z"></path><path fill="#3E459D" d="M1377 285h10l2 4-2 2-4-4-2 11-8 32v7l7 12 10 13 12 17-1 2-3-3v-2l-4-2h-1l1 3-5-1-6-7 1-3-1-1-8-7-3-7-7-5h-15l-92 10h-5l-2 4 1-5-4 1-2-4v-3l-4-1-1-2 3-1v2l7-2-4-2 2-1h11l43-5 48-5 8-1 2-9 2 4 3-9 2-7 2-1 1-10 4-12h2zM1325 744l2 1-14 14-12 8-4 5-8 3-5 5-8 4-5 4-16 8-4 1v2l-9 4-5 2-5-1-7-1v2h-3l-2 5-9 6-16 5-9 3-16 4h-6l-6 3-12 1h-12l-15 1h-15v-1l38-4 23-4 25-6 25-8h2l-5-5-22-12-18-10-2-1-66-3v-2l9-2 10-5 2-3h24l19 1 8-10 3 1 5-3 2 2-5 4-1 2 4 1 5-4-2 5-4 5v3l22 12 28 16 16-7 21-11 14-9 12-8 16-12z"></path><path fill="#FDFCF8" d="M1197 703h6v2h6l7-2-2 5-10 13-8 11-14 19-12 16-4 2-41-2-5-9-3-4 1-7 5 1 3 6 5 2h6l6-5 4-5 4-2 2-2 5-3 6-4h2v-2h3l1-2 6-6 2-13 5-3h3l1-2h4l1-2 3 1 1-2z"></path><path fill="#2A2D8B" d="m1294 858 21 1-2 6-11 22-11 23-7 13-1 1h-26l2-5 18-36-15 5-14 3-1-2 7-13 24-8 12-7z"></path><path fill="#3E459D" d="m1424 597 1 3-1 3-3 2-6 3v2l-2 1 1 3h5l-2 4v-3l-36 12-26 8-27 9-25 8-29 9-5-1-7 1v-6h2v-2l-7-2 2-6 5-4 2 1-6 6-1 3 15-4 60-19 71-23 18-6z"></path><path fill="#2B2D8B" d="M740 860h28l-1 5-7 14-11 23-11 22h-29l2-6 12-24 11-23z"></path><path fill="#2A2C8B" d="M1222 32h29l-2 6-8 16-14 29-6 12-5 1h-24l1-5 8-16 17-35z"></path><path fill="#FDFDFD" d="m1157 513 24 1 10 1 16 38 8 22-1 4-7 7-4-1-4-6-6-5 4-4 7-6h2v-3l-4-4-3-11-5-6v-2l-4-2-5-3-12-2-7-6-7-8zM992 450l4 1 6 4 4 9 12 5 4 3 2 9h2l2 6 3 3v3h-26l-3-7z"></path><path fill="#2A2C8B" d="M1171 768h2l1 5 5 1 6 8 7 1 16 8 5 3v2l4 1v2h2l-1 3-4 1-1-2h-2v-2l-3 2-5-1-7-4-3-3-14-8-8-4-13-2 2-4 6-2h4l-1-3z"></path><path fill="#3D449C" d="m901 183 5 1-5 5-11 7-13 10-17 14-10 9-4 4-2-1 2-3-3-1v-3l8-7 4-2v2h2v-2h2l1-4 2-1 3-5 6-6 5-2 5-5 6-1v-2h2l1-2 7-1 1-2z"></path><path fill="#2F328F" d="m1086 244 3 1 2 11v3l-11 6-5 4h-5l-8-4-3-1 1-4 11-6 12-8z"></path><path fill="#2E318F" d="m824 328 2 1-1 4-11 18-13 21-12 19-11 18-5 2 1-4 8-13 3-5 8-13 4-6 4-7 3-3 2-5 5-7 2-1 1-4 7-11z"></path><path fill="#FDFDFD" d="m1091 258 4 4-1 6-5 4-4 3-2 11-2 2h-5l-2-3v-15l-2-1 7-4 10-6z"></path><path fill="#3F469E" d="M1212 811h3l-2 4-10 3-10 4-7 2-16 4h-6l-6 3-12 1h-12l-15 1h-15v-1l38-4 23-4 25-6zM1325 744l2 1-14 14-12 8-4 5-8 3-5 5-8 4-5 4-16 8-4 1v2l-9 4-5 2-5-1 1-2 16-7 21-11 14-9 12-8 16-12z"></path><path fill="#2E318F" d="M805 342h2l1 4-3 3-1 3-6 10-2 3-5 9h-3l-1 5-2 2-1 3-6 10-4 6h-3v5l-4 4v2l-3 2-3 5-2 1 1-5 40-64z"></path><path fill="#303390" d="m902 646 5 2 8 14 11 17 6 10 4 5 5 9 7 11-2 2-4-4-15-24-15-23-8-13z"></path><path fill="#323692" d="m910 646 3 1v2l3 1 3 7 5 3 11 18 7 11 11 17 1 5-2 2-3-5-5-7-4-7-2-5-6-7-9-14-9-15z" data-source="https://football-logos.cc"></path><path fill="#3F469E" d="m1442 452 3 1 1 2 1 48-2 6-3 24-5 27-2 3 1-9 4-23 2-23z"></path><path fill="#303491" d="M1372 617v3l-16 5-12 4-8 3-9 2-8 3-9 3h-7v2l-9 1 3-2h3v-2l56-18 10-2z"></path><path fill="#313592" d="m1106 241 7 2 17 12 4 4-10 5-6-1-2-5-2-8-8-8z"></path><path fill="#3F469E" d="M1000 139h11l1 2-17 4-30 10-5 2-3-1 4-1v-2l-2-1 7-3 9-3 3-2 7-2h4l4 1 4-1 1-2zM742 447h1l1 69 3 22v6h-1l-4-24-2-23v-26l-1-1 1-15 1-4z"></path><path fill="#2A2C8B" d="m831 619 17 3 12 4 20 4 12 4 1 2h-7l-55-14z"></path><path fill="#3F469E" d="M1076 651h1v9l26 1 100 1v1h-127l-2 2 1-9z"></path><path fill="#333893" d="M764 478h3l8 36 1 14-2 1-4-18-3-14-2-7z"></path><path fill="#3F469E" d="m1000 486 2 3 1 3 26 1 1-3 1 4-3 4h-11l-7 1-1-1-2 1-3-2v-3l-4-1zM1422 358l4 4 1 7 2 1 2 10 3 1 1 6 1 7 1 2 1 12v7h-1l-6-26-8-25z"></path><path fill="#3E459D" d="m1086 244 3 1 2 11-3-2-3 4-10 4h-5l1-3h2l1-2h3l1-4h2v-2l3-2v-3z"></path><path fill="#3F469E" d="m754 575 2 3 10 30 8 19 3 6-1 3v-2l-3-1-4-7-6-17-9-30zM1268 785h2l1 3-16 8-4 1v2l-9 4-5 2-5-1 1-2 16-7z"></path><path fill="#343894" d="m954 714 4 2 6 7 7 11 3 10 2 5-4-4-8-13-9-15z"></path><path fill="#3A4099" d="m1039 490 5 3 23 1 2-1-1 3-12 1 3 2-3 4-4-3-10-1v-4l-4-3z"></path><path fill="#3B429B" d="m853 216 4 2v-2l4 1-2 4-8 7-5 5-2-1 2-3-3-1v-3l8-7z"></path><path fill="#3F469E" d="m928 594 1 2-3 7h-2l-2 4-3 3-1 5-8 7h-3l2-5h2l2-4 12-16h2z"></path><path fill="#3E459D" d="m986 516 1 2-3 7-9 10-3 6-4 2-2 4-3 2v-3h2v-3h2l1-4 7-9 6-8zM939 163l4 2-25 13-5 2-2-3 4-3 6-1 1-2 7-3 4-1v-2z"></path><path fill="#323692" d="m939 688 4 2 10 16 1 5-2 2-3-5-5-7-4-7-2-5z"></path><path fill="#3E459D" d="M817 261h2l-2 4-14 19-7 11-2-3 4-6 4-4v-2h2l2-7 2-3h2v-2h3v-5h3z"></path><path fill="#2F3290" d="m777 530 2 1 4 17 1 15-2-1-3-13-2-7-1-11z"></path><path fill="#303490" d="m837 317 12 1 6 2 16 2 5 2v1l-16-1-22-4z"></path><path fill="#2B2E8C" d="M1124 769h10l4 3v2l-10 2h-3l-5-1v-3z"></path><path fill="#3F469E" d="M1352 718v3l-4 5h-2l-2 4-3 4h-2l-2 4-4 4-3-2z"></path><path fill="#2B2E8C" d="m910 646 3 1v2l3 1 3 7 5 3 2 6-1 4-4-5-9-15z"></path><path fill="#3F469E" d="M1276 612h6l1 2v14l-3 2-1-4-1-9 2-4z"></path><path fill="#3E459D" d="M1287 773h2l-2 5-7 4-5 3-2 2h-3l2-4 9-6z"></path><path fill="#3F469E" d="m1400 311 3 1 3 4 3 7 4 8 1 8-3-4-11-22z"></path><path fill="#2B2D8C" d="M769 501h2l3 12 1 1 1 14-2 1-4-18-1-3z"></path><path fill="#3F469E" d="M1191 500v3l-7 1-9-1v2h-3v-2l-26-1v-1h44zM1421 407l5 5 8 11-1 3-3-1 1-2-6-5-4-6z"></path><path fill="#2D308E" d="M1372 617v3l-16 5-6 1v-3l6-2 10-2z"></path><path fill="#3F469E" d="M1235 389h2l-1 5-5 15-2 3h-2l3-11 3-7z"></path><path fill="#303390" d="M805 342h2l1 4-3 3-1 3-3 4-5 2 2-5z"></path><path fill="#2F3390" d="m770 414 1 4-2 5-6 9-2-4 6-9z"></path><path fill="#3F469E" d="m1389 364 4 2 9 13-1 2-3-3v-2l-4-2-5-6v-3zM962 549l1 4-1 2h-2v2h-2l-1 2-3 5-3 1 1-4 1-3h2l2-4zM1039 490l5 3 10 1-4 4-1 2-7-1v-4l-4-3zM1438 415l2 4 2 12-2 4-4-4-2-6 4 3v2h2l-2-10zM1414 339l3 1 1 7h2l2 4v7l-2-2-6-14z"></path><path fill="#3A4099" d="m849 221 4 1-1 5-6 6-2-1 3-3-1-5z"></path><path fill="#3D439C" d="m755 376 2 1-1 7-2 8-2-2-1-6 2-2z"></path><path fill="#2A2C8B" d="m965 732 6 4 3 7 2 6-4-4-7-11z"></path><path fill="#2C2F8D" d="m944 700 5 2 4 4 1 5-2 2-3-5z"></path><path fill="#3F469E" d="m950 565 1 4-1 2h-2v2l-4 2-1 2h-2v-3h2l1-4z"></path><path fill="#2D308E" d="m779 400 2 1-1 5-3 4-4 1 1-4z"></path><path fill="#2F328F" d="M877 325h7l13 3v1h-11l-5-1v-2zM837 317l12 1 6 2v1h-11l-7-2z"></path><path fill="#323692" d="m1331 629 3 1-4 3-8 3-3-1v-2z"></path><path fill="#3F469E" d="m1239 589 7 1 12 6-3 1-4-2h-6l-2-4h-5zM747 415h1l-1 16-3-1v-10h3zM1410 392l5 5 6 8-1 2-3-1-4-5-1-4z"></path><path fill="#2A2C8B" d="m1056 156 10 3 8 4-3 1-16-6z"></path><path fill="#3F469E" d="M1201 742h2l-2 4-10 14-2 1 2-5 6-9h2z"></path><path fill="#FDFDFD" d="M1116 308h5l1 4-1 1h-7v-4z"></path><path fill="#2F3290" d="m954 714 4 2 6 7-1 2-4-1-3-6z"></path><path fill="#3E459D" d="m938 581 2 3-2 3h-2v2l-5 2 2-5z"></path><path fill="#3F469E" d="m1402 381 5 5 3 4-1 2-4-2-4-7z"></path><path fill="#313491" d="m756 481 2 4 2 9v4h-2l-2-9z"></path><path fill="#2D2F8D" d="m761 465 2 2v3h2v7l-1-2h-2l-1-2z"></path><path fill="#3F469E" d="M1246 359h1v6l-3 3-2-1 2-7z"></path><path fill="#3D449C" d="m953 156 5 1-4 3-7 2-2-3 6-2z"></path><path fill="#3F469E" d="m1393 663 1 3-2 4h-2v4l-5 3 2-5z"></path><path fill="#3E459D" d="M1235 389h2l-1 5-2 7-3-1 3-9z"></path><path fill="#3F469E" d="M801 284v3l-5 8-2-3 4-6z"></path><path fill="#FDEE0D" d="M961 115h2l-1 2z" data-source="https://football-logos.cc"></path><!-- source: https://football-logos.cc --></svg>