<svg xmlns="http://www.w3.org/2000/svg" xmlns:xlink="http://www.w3.org/1999/xlink" viewBox="0 0 180 182.01"><!-- Source: https://football-logos.cc --><defs data-source="https://football-logos.cc"><linearGradient id="a" x1="65.7" x2="117.29" y1="11.06" y2="93.93" gradientUnits="userSpaceOnUse"><stop offset="0" stop-color="#77a100"></stop><stop offset=".32" stop-color="#749e02"></stop><stop offset=".59" stop-color="#699507"></stop><stop offset=".84" stop-color="#588710"></stop><stop offset="1" stop-color="#497a17"></stop></linearGradient><linearGradient id="b" x1="71.28" x2="37.2" y1="-.42" y2="49.92" gradientUnits="userSpaceOnUse"><stop offset="0" stop-color="#ffc600"></stop><stop offset=".66" stop-color="#fcc200"></stop><stop offset="1" stop-color="#f7bd00"></stop></linearGradient><linearGradient id="e" x1="115.42" x2="115.7" y1="48.94" y2="52.04" gradientUnits="userSpaceOnUse"><stop offset="0" stop-color="#fff"></stop><stop offset="1" stop-color="#a9a9a1" stop-opacity="0"></stop></linearGradient><linearGradient id="h" x1="65.32" x2="115.62" y1="58.7" y2="58.7" gradientUnits="userSpaceOnUse"><stop offset="0" stop-color="#cfcca5"></stop><stop offset=".23" stop-color="#dee8e7"></stop><stop offset=".37" stop-color="#dbe5e2"></stop><stop offset=".53" stop-color="#d3dbd4"></stop><stop offset=".69" stop-color="#c5cabd"></stop><stop offset=".86" stop-color="#b1b39d"></stop><stop offset="1" stop-color="#9e9c7e"></stop></linearGradient><linearGradient id="i" x1="65.42" x2="114.61" y1="58.7" y2="58.7" gradientUnits="userSpaceOnUse"><stop offset="0" stop-color="#d0cda7"></stop><stop offset=".23" stop-color="#dfe9e8"></stop><stop offset=".37" stop-color="#dce6e3"></stop><stop offset=".53" stop-color="#d4dbd5"></stop><stop offset=".7" stop-color="#c6cbbe"></stop><stop offset=".87" stop-color="#b2b39e"></stop><stop offset="1" stop-color="#a09e81"></stop></linearGradient><linearGradient id="j" x1="65.52" x2="113.61" y1="58.69" y2="58.69" gradientUnits="userSpaceOnUse"><stop offset="0" stop-color="#d1cea9"></stop><stop offset=".23" stop-color="#e0e9e8"></stop><stop offset=".37" stop-color="#dde6e3"></stop><stop offset=".53" stop-color="#d5dcd5"></stop><stop offset=".7" stop-color="#c7cbbe"></stop><stop offset=".88" stop-color="#b3b49e"></stop><stop offset="1" stop-color="#a3a184"></stop></linearGradient><linearGradient id="k" x1="65.62" x2="112.6" y1="58.69" y2="58.69" gradientUnits="userSpaceOnUse"><stop offset="0" stop-color="#d3d0ac"></stop><stop offset=".23" stop-color="#e0eae9"></stop><stop offset=".38" stop-color="#dde7e4"></stop><stop offset=".54" stop-color="#d5ddd6"></stop><stop offset=".71" stop-color="#c7ccbf"></stop><stop offset=".89" stop-color="#b4b59f"></stop><stop offset="1" stop-color="#a5a387"></stop></linearGradient><linearGradient id="l" x1="65.72" x2="111.6" y1="58.68" y2="58.68" gradientUnits="userSpaceOnUse"><stop offset="0" stop-color="#d4d1ae"></stop><stop offset=".23" stop-color="#e1eae9"></stop><stop offset=".38" stop-color="#dee7e4"></stop><stop offset=".54" stop-color="#d6ddd6"></stop><stop offset=".72" stop-color="#c7ccbf"></stop><stop offset=".9" stop-color="#b4b59f"></stop><stop offset="1" stop-color="#a7a68b"></stop></linearGradient><linearGradient id="m" x1="65.82" x2="110.59" y1="58.68" y2="58.68" gradientUnits="userSpaceOnUse"><stop offset="0" stop-color="#d5d2b0"></stop><stop offset=".23" stop-color="#e2ebea"></stop><stop offset=".38" stop-color="#dfe8e5"></stop><stop offset=".55" stop-color="#d7ddd7"></stop><stop offset=".73" stop-color="#c9cdc0"></stop><stop offset=".91" stop-color="#b5b5a0"></stop><stop offset="1" stop-color="#aaa88e"></stop></linearGradient><linearGradient id="n" x1="65.92" x2="109.59" y1="58.67" y2="58.67" gradientUnits="userSpaceOnUse"><stop offset="0" stop-color="#d6d3b2"></stop><stop offset=".23" stop-color="#e3ebeb"></stop><stop offset=".38" stop-color="#e0e8e6"></stop><stop offset=".55" stop-color="#d8ded8"></stop><stop offset=".73" stop-color="#cacdc1"></stop><stop offset=".92" stop-color="#b6b6a1"></stop><stop offset="1" stop-color="#acaa91"></stop></linearGradient><linearGradient id="o" x1="66.02" x2="108.59" y1="58.67" y2="58.67" gradientUnits="userSpaceOnUse"><stop offset="0" stop-color="#d7d5b4"></stop><stop offset=".23" stop-color="#e4eceb"></stop><stop offset=".38" stop-color="#e1e9e6"></stop><stop offset=".56" stop-color="#d9dfd8"></stop><stop offset=".74" stop-color="#cbcec1"></stop><stop offset=".93" stop-color="#b7b7a1"></stop><stop offset="1" stop-color="#afad94"></stop></linearGradient><linearGradient id="p" x1="66.12" x2="107.66" y1="58.66" y2="58.66" gradientUnits="userSpaceOnUse"><stop offset="0" stop-color="#d8d6b7"></stop><stop offset=".23" stop-color="#e4ecec"></stop><stop offset=".39" stop-color="#e1e9e7"></stop><stop offset=".56" stop-color="#d9dfd9"></stop><stop offset=".75" stop-color="#cbcec2"></stop><stop offset=".94" stop-color="#b8b7a2"></stop><stop offset="1" stop-color="#b1af97"></stop></linearGradient><linearGradient id="q" x1="66.22" x2="107.25" y1="58.66" y2="58.66" gradientUnits="userSpaceOnUse"><stop offset="0" stop-color="#dad7b9"></stop><stop offset=".23" stop-color="#e5edec"></stop><stop offset=".39" stop-color="#e2eae7"></stop><stop offset=".57" stop-color="#dae0d9"></stop><stop offset=".76" stop-color="#cccfc2"></stop><stop offset=".95" stop-color="#b8b8a2"></stop><stop offset="1" stop-color="#b3b29a"></stop></linearGradient><linearGradient id="r" x1="66.32" x2="107.16" y1="58.65" y2="58.65" gradientUnits="userSpaceOnUse"><stop offset="0" stop-color="#dbd8bb"></stop><stop offset=".23" stop-color="#e6eeed"></stop><stop offset=".39" stop-color="#e3ebe8"></stop><stop offset=".57" stop-color="#dbe0da"></stop><stop offset=".77" stop-color="#cdd0c3"></stop><stop offset=".96" stop-color="#bab9a3"></stop><stop offset="1" stop-color="#b6b49d"></stop></linearGradient><linearGradient id="s" x1="66.41" x2="107.08" y1="58.64" y2="58.64" gradientUnits="userSpaceOnUse"><stop offset="0" stop-color="#dcdabd"></stop><stop offset=".23" stop-color="#e7eeed"></stop><stop offset=".4" stop-color="#e4ebe8"></stop><stop offset=".58" stop-color="#dbe1da"></stop><stop offset=".78" stop-color="#cdd0c3"></stop><stop offset=".99" stop-color="#bab9a3"></stop><stop offset="1" stop-color="#b8b7a1"></stop></linearGradient><linearGradient id="t" x1="66.51" x2="107" y1="58.64" y2="58.64" gradientUnits="userSpaceOnUse"><stop offset="0" stop-color="#dddbbf"></stop><stop offset=".23" stop-color="#e8efee"></stop><stop offset=".4" stop-color="#e5ece9"></stop><stop offset=".59" stop-color="#dce1db"></stop><stop offset=".79" stop-color="#ced1c4"></stop><stop offset="1" stop-color="#bab9a4"></stop><stop offset="1" stop-color="#bab9a4"></stop></linearGradient><linearGradient id="u" x1="66.61" x2="106.91" y1="58.63" y2="58.63" gradientUnits="userSpaceOnUse"><stop offset="0" stop-color="#dedcc2"></stop><stop offset=".23" stop-color="#e8efef"></stop><stop offset=".4" stop-color="#e5ecea"></stop><stop offset=".59" stop-color="#dde2dc"></stop><stop offset=".8" stop-color="#cfd1c5"></stop><stop offset="1" stop-color="#bdbba7"></stop></linearGradient><linearGradient id="v" x1="66.71" x2="106.83" y1="58.62" y2="58.62" gradientUnits="userSpaceOnUse"><stop offset="0" stop-color="#dfddc4"></stop><stop offset=".23" stop-color="#e9f0ef"></stop><stop offset=".41" stop-color="#e6edea"></stop><stop offset=".6" stop-color="#dee3dc"></stop><stop offset=".81" stop-color="#d0d2c5"></stop><stop offset="1" stop-color="#bfbeaa"></stop></linearGradient><linearGradient id="w" x1="66.8" x2="106.74" y1="58.62" y2="58.62" gradientUnits="userSpaceOnUse"><stop offset="0" stop-color="#e1dfc6"></stop><stop offset=".23" stop-color="#eaf0f0"></stop><stop offset=".41" stop-color="#e7edeb"></stop><stop offset=".61" stop-color="#dfe3dd"></stop><stop offset=".82" stop-color="#d1d2c6"></stop><stop offset="1" stop-color="#c1c0ad"></stop></linearGradient><linearGradient id="x" x1="66.9" x2="106.66" y1="58.61" y2="58.61" gradientUnits="userSpaceOnUse"><stop offset="0" stop-color="#e2e0c8"></stop><stop offset=".23" stop-color="#ebf1f0"></stop><stop offset=".41" stop-color="#e8eeeb"></stop><stop offset=".62" stop-color="#e0e4dd"></stop><stop offset=".84" stop-color="#d2d3c6"></stop><stop offset="1" stop-color="#c4c3b0"></stop></linearGradient><linearGradient id="y" x1="67" x2="106.57" y1="58.6" y2="58.6" gradientUnits="userSpaceOnUse"><stop offset="0" stop-color="#e3e1ca"></stop><stop offset=".23" stop-color="#ecf2f1"></stop><stop offset=".42" stop-color="#e9efec"></stop><stop offset=".62" stop-color="#e1e4de"></stop><stop offset=".85" stop-color="#d3d4c7"></stop><stop offset="1" stop-color="#c6c5b3"></stop></linearGradient><linearGradient id="z" x1="67.09" x2="106.49" y1="58.59" y2="58.59" gradientUnits="userSpaceOnUse"><stop offset="0" stop-color="#e4e2cd"></stop><stop offset=".23" stop-color="#ecf2f2"></stop><stop offset=".42" stop-color="#e9efed"></stop><stop offset=".64" stop-color="#e1e4df"></stop><stop offset=".86" stop-color="#d3d4c8"></stop><stop offset="1" stop-color="#c9c7b7"></stop></linearGradient><linearGradient id="aa" x1="67.19" x2="106.41" y1="58.58" y2="58.58" gradientUnits="userSpaceOnUse"><stop offset="0" stop-color="#e5e4cf"></stop><stop offset=".23" stop-color="#edf3f2"></stop><stop offset=".43" stop-color="#eaf0ed"></stop><stop offset=".65" stop-color="#e2e5df"></stop><stop offset=".88" stop-color="#d4d5c8"></stop><stop offset="1" stop-color="#cbcaba"></stop></linearGradient><linearGradient id="ab" x1="67.29" x2="106.32" y1="58.57" y2="58.57" gradientUnits="userSpaceOnUse"><stop offset="0" stop-color="#e6e5d1"></stop><stop offset=".23" stop-color="#eef3f3"></stop><stop offset=".43" stop-color="#ebf0ee"></stop><stop offset=".66" stop-color="#e3e6e0"></stop><stop offset=".9" stop-color="#d5d5c9"></stop><stop offset="1" stop-color="#cdccbd"></stop></linearGradient><linearGradient id="ac" x1="67.38" x2="106.24" y1="58.56" y2="58.56" gradientUnits="userSpaceOnUse"><stop offset="0" stop-color="#e8e6d3"></stop><stop offset=".23" stop-color="#eff4f3"></stop><stop offset=".44" stop-color="#ecf1ee"></stop><stop offset=".67" stop-color="#e4e6e0"></stop><stop offset=".92" stop-color="#d6d6c9"></stop><stop offset="1" stop-color="#d0cfc0"></stop></linearGradient><linearGradient id="ad" x1="67.48" x2="106.15" y1="58.55" y2="58.55" gradientUnits="userSpaceOnUse"><stop offset="0" stop-color="#e9e7d5"></stop><stop offset=".23" stop-color="#f0f4f4"></stop><stop offset=".44" stop-color="#edf1ef"></stop><stop offset=".68" stop-color="#e5e7e1"></stop><stop offset=".93" stop-color="#d7d6ca"></stop><stop offset="1" stop-color="#d2d1c3"></stop></linearGradient><linearGradient id="ae" x1="67.58" x2="106.07" y1="58.54" y2="58.54" gradientUnits="userSpaceOnUse"><stop offset="0" stop-color="#eae9d7"></stop><stop offset=".23" stop-color="#f1f5f4"></stop><stop offset=".45" stop-color="#eef2ef"></stop><stop offset=".7" stop-color="#e5e8e1"></stop><stop offset=".96" stop-color="#d7d7ca"></stop><stop offset="1" stop-color="#d4d4c6"></stop></linearGradient><linearGradient id="af" x1="67.67" x2="105.99" y1="58.53" y2="58.53" gradientUnits="userSpaceOnUse"><stop offset="0" stop-color="#ebeada"></stop><stop offset=".23" stop-color="#f1f5f5"></stop><stop offset=".46" stop-color="#eef2f0"></stop><stop offset=".71" stop-color="#e6e8e2"></stop><stop offset=".99" stop-color="#d8d7cb"></stop><stop offset="1" stop-color="#d7d6ca"></stop></linearGradient><linearGradient id="ag" x1="67.77" x2="105.9" y1="58.52" y2="58.52" gradientUnits="userSpaceOnUse"><stop offset="0" stop-color="#ecebdc"></stop><stop offset=".23" stop-color="#f2f6f6"></stop><stop offset=".46" stop-color="#eff3f1"></stop><stop offset=".73" stop-color="#e7e8e3"></stop><stop offset="1" stop-color="#d9d8cd"></stop></linearGradient><linearGradient id="ah" x1="67.87" x2="105.82" y1="58.5" y2="58.5" gradientUnits="userSpaceOnUse"><stop offset="0" stop-color="#edecde"></stop><stop offset=".23" stop-color="#f3f7f6"></stop><stop offset=".47" stop-color="#f0f4f1"></stop><stop offset=".75" stop-color="#e8e9e3"></stop><stop offset="1" stop-color="#dcdbd0"></stop></linearGradient><linearGradient id="ai" x1="67.96" x2="105.73" y1="58.49" y2="58.49" gradientUnits="userSpaceOnUse"><stop offset="0" stop-color="#efeee0"></stop><stop offset=".23" stop-color="#f4f7f7"></stop><stop offset=".48" stop-color="#f1f4f2"></stop><stop offset=".76" stop-color="#e9eae4"></stop><stop offset="1" stop-color="#deddd3"></stop></linearGradient><linearGradient id="aj" x1="68.06" x2="105.65" y1="58.48" y2="58.48" gradientUnits="userSpaceOnUse"><stop offset="0" stop-color="#f0efe2"></stop><stop offset=".23" stop-color="#f5f8f7"></stop><stop offset=".49" stop-color="#f2f5f2"></stop><stop offset=".79" stop-color="#e9eae4"></stop><stop offset="1" stop-color="#e0e0d6"></stop></linearGradient><linearGradient id="ak" x1="68.16" x2="105.57" y1="58.46" y2="58.46" gradientUnits="userSpaceOnUse"><stop offset="0" stop-color="#f1f0e5"></stop><stop offset=".23" stop-color="#f5f8f8"></stop><stop offset=".5" stop-color="#f2f5f3"></stop><stop offset=".81" stop-color="#eaebe5"></stop><stop offset="1" stop-color="#e3e2d9"></stop></linearGradient><linearGradient id="al" x1="68.25" x2="105.48" y1="58.45" y2="58.45" gradientUnits="userSpaceOnUse"><stop offset="0" stop-color="#f2f1e7"></stop><stop offset=".23" stop-color="#f6f9f9"></stop><stop offset=".51" stop-color="#f3f6f4"></stop><stop offset=".83" stop-color="#ebece6"></stop><stop offset="1" stop-color="#e5e4dc"></stop></linearGradient><linearGradient id="am" x1="68.35" x2="105.4" y1="58.43" y2="58.43" gradientUnits="userSpaceOnUse"><stop offset="0" stop-color="#f3f3e9"></stop><stop offset=".23" stop-color="#f7f9f9"></stop><stop offset=".54" stop-color="#f4f6f4"></stop><stop offset=".88" stop-color="#ebece6"></stop><stop offset="1" stop-color="#e7e7e0"></stop></linearGradient><linearGradient id="an" x1="68.45" x2="105.31" y1="58.41" y2="58.41" gradientUnits="userSpaceOnUse"><stop offset="0" stop-color="#f4f4eb"></stop><stop offset=".23" stop-color="#f8fafa"></stop><stop offset=".55" stop-color="#f5f6f5"></stop><stop offset=".91" stop-color="#edece7"></stop><stop offset="1" stop-color="#eae9e3"></stop></linearGradient><linearGradient id="ao" x1="68.54" x2="105.23" y1="58.39" y2="58.39" gradientUnits="userSpaceOnUse"><stop offset="0" stop-color="#f6f5ed"></stop><stop offset=".23" stop-color="#f9fbfa"></stop><stop offset=".58" stop-color="#f6f7f5"></stop><stop offset=".97" stop-color="#edede7"></stop><stop offset="1" stop-color="#ecece6"></stop></linearGradient><linearGradient id="ap" x1="68.64" x2="105.15" y1="58.38" y2="58.38" gradientUnits="userSpaceOnUse"><stop offset="0" stop-color="#f7f6f0"></stop><stop offset=".23" stop-color="#f9fbfb"></stop><stop offset=".6" stop-color="#f6f8f6"></stop><stop offset="1" stop-color="#eeeee9"></stop></linearGradient><linearGradient id="aq" x1="68.74" x2="105.06" y1="58.36" y2="58.36" gradientUnits="userSpaceOnUse"><stop offset="0" stop-color="#f8f8f2"></stop><stop offset=".23" stop-color="#fafcfb"></stop><stop offset=".64" stop-color="#f7f9f6"></stop><stop offset="1" stop-color="#f1f1ec"></stop></linearGradient><linearGradient id="ar" x1="68.83" x2="104.98" y1="58.34" y2="58.34" gradientUnits="userSpaceOnUse"><stop offset="0" stop-color="#f9f9f4"></stop><stop offset=".23" stop-color="#fbfcfc"></stop><stop offset=".67" stop-color="#f8f9f7"></stop><stop offset="1" stop-color="#f3f3ef"></stop></linearGradient><linearGradient id="as" x1="68.93" x2="104.9" y1="58.32" y2="58.32" gradientUnits="userSpaceOnUse"><stop offset="0" stop-color="#fafaf6"></stop><stop offset=".23" stop-color="#fcfdfd"></stop><stop offset=".71" stop-color="#f9faf8"></stop><stop offset="1" stop-color="#f6f5f2"></stop></linearGradient><linearGradient id="at" x1="69.02" x2="104.81" y1="58.3" y2="58.3" gradientUnits="userSpaceOnUse"><stop offset="0" stop-color="#fbfbf8"></stop><stop offset=".23" stop-color="#fdfdfd"></stop><stop offset=".85" stop-color="#fafaf8"></stop><stop offset="1" stop-color="#f8f8f6"></stop></linearGradient><linearGradient id="au" x1="69.12" x2="104.73" y1="58.27" y2="58.27" gradientUnits="userSpaceOnUse"><stop offset="0" stop-color="#fdfdfb"></stop><stop offset=".23" stop-color="#fdfefe"></stop><stop offset=".98" stop-color="#fafaf9"></stop><stop offset="1" stop-color="#fafaf9"></stop></linearGradient><linearGradient id="av" x1="69.22" x2="104.64" y1="58.25" y2="58.25" gradientUnits="userSpaceOnUse"><stop offset="0" stop-color="#fefefd"></stop><stop offset=".23" stop-color="#fefefe"></stop><stop offset="1" stop-color="#fdfdfc"></stop></linearGradient><linearGradient id="aw" x1="95.77" x2="98.65" y1="94.5" y2="101.33" gradientUnits="userSpaceOnUse"><stop offset="0" stop-color="#969478"></stop><stop offset="1" stop-color="#a9a9a1" stop-opacity="0"></stop></linearGradient><linearGradient xlink:href="#aw" id="ax" x1="78.45" x2="81.66" y1="109.27" y2="103"></linearGradient><linearGradient xlink:href="#aw" id="ay" x1="90.6" x2="90.4" y1="35.91" y2="33.45"></linearGradient><linearGradient xlink:href="#e" id="az" x1="110.11" x2="110.39" y1="32.27" y2="35.36"></linearGradient><linearGradient id="ba" x1="90.09" x2="90.37" y1="33.89" y2="36.98" gradientUnits="userSpaceOnUse"><stop offset="0" stop-color="#fff"></stop><stop offset="1" stop-color="#fffff3" stop-opacity="0"></stop></linearGradient><linearGradient xlink:href="#aw" id="bb" x1="90.89" x2="90.7" y1="53.1" y2="49.98"></linearGradient><linearGradient xlink:href="#ba" id="bc" x1="90.26" x2="90.67" y1="49.37" y2="52.93"></linearGradient><linearGradient xlink:href="#aw" id="bd" x1="90.4" x2="90.4" y1="14.5" y2="24.99"></linearGradient><clipPath id="d"><path d="M140.5 41.2c-3.6-21.9-21.6-38-41.8-40.9-13.6-1.9-31.8 5.3-32.4 17.9-.1 1.7-.3 3.5-.5 5.3-1.1 4.5-5.2 2.3-6.6-3.8s-6.9 2.4-1.5 6.5a17.3 17.3 0 0 1 5.5 6.5c.5 1.2.5 2.3 0 2.7s-1.1.5-1.5.2a3 3 0 0 1-1-2 3.5 3.5 0 0 0-3.9-2.4 3.8 3.8 0 0 0-3.3 3.6c-.1 1.6.6 3.4 2.3 3.8s2.9.3 3.4 1.1.1.4-.1.8-.4.3-.9.4-7.2 1.2-9.6-2.9-4.8 1.5-1.4 3.9 12.2.1 9.1 3.2-6 3.4-8.3 5c-6.3 4.2-7.9 9.5-4 21.3s12.5 19.3 23.1 24.8c12.5 6.4 31.2 7.2 45.7-.3 20.1-10.5 31.4-31.9 27.7-54.7" class="a"></path></clipPath><clipPath id="g"><path d="M105.8 98.3C97.2 97 95.4 88 100.6 84.5L103 83c5.6-3.5 9.4-9.9 11.3-20.4a85 85 0 0 0 1.2-8.9 2.1 2.1 0 0 0-1.3-2.2 4.5 4.5 0 0 0 1.6-2.4c0-2.9-.1-5.7-.3-8.5a6 6 0 0 0-3.9-5.1l-1.2-.5-.6-3.6a2.6 2.6 0 0 0-1.6-2.1c-6.5-3-4.9-8.5-4.3-12.8a2.9 2.9 0 0 0 3.9-2.2l.3-1.3a1.9 1.9 0 0 0-1.3-2.2 60.5 60.5 0 0 0-16.2-2.2 62.3 62.3 0 0 0-15.9 2.2 2.4 2.4 0 0 0-1.6 2.8l.2.8a3 3 0 0 0 3.9 2.2c.5 4.6 1.6 10-3.8 13a4.5 4.5 0 0 0-2.2 3.2l-.5 2.8-1.5.7a5.8 5.8 0 0 0-3.5 5.1 57.5 57.5 0 0 0-.1 8.3c0 1.2 1.5 2.4 1.5 2.4a2.1 2.1 0 0 0-1.1 2.2c.4 2.5.9 5.3 1.6 8.4 2.4 10.6 7.1 16.9 13 21l1.9 1.3c4.6 3.1 1.8 11.8-6.7 13.4a7.8 7.8 0 0 0-5.8 4.3l-.8 1.8a.9.9 0 0 0 .6 1.2 76.6 76.6 0 0 0 20.8 2.7 86 86 0 0 0 20.9-2.6 1 1 0 0 0 .6-1.3l-1.2-2.3a6.9 6.9 0 0 0-5.1-3.9" style="fill:none"></path></clipPath><style>.a{fill:url(#a)}.g{fill:#002b82}.fs{fill:#ffc600}.fs,.ft{mix-blend-mode:multiply}.k{fill:#fff}.eb{fill:url(#e)}.ft{fill:#347800}.gd{fill:#63900a}</style></defs><g style="isolation:isolate" data-source="https://football-logos.cc"><path d="M40.1 35.9a30.9 30.9 0 0 0-1.2 13.4c.3 2.6 2.4 3.3 4.7 1.3 11.2-10 18-20.7 19.3-32.4.6-5.7 4-9.3 6.9-12s6-6.6.6-4.2c-13.3 5.8-25 16-30.3 33.9" style="fill:url(#b)"></path><path d="M140.5 41.2c-3.6-21.9-21.6-38-41.8-40.9-13.6-1.9-31.8 5.3-32.4 17.9-.1 1.7-.3 3.5-.5 5.3-1.1 4.5-5.2 2.3-6.6-3.8s-6.9 2.4-1.5 6.5a17.3 17.3 0 0 1 5.5 6.5c.5 1.2.5 2.3 0 2.7s-1.1.5-1.5.2a3 3 0 0 1-1-2 3.5 3.5 0 0 0-3.9-2.4 3.8 3.8 0 0 0-3.3 3.6c-.1 1.6.6 3.4 2.3 3.8s2.9.3 3.4 1.1.1.4-.1.8-.4.3-.9.4-7.2 1.2-9.6-2.9-4.8 1.5-1.4 3.9 12.2.1 9.1 3.2-6 3.4-8.3 5c-6.3 4.2-7.9 9.5-4 21.3s12.5 19.3 23.1 24.8c12.5 6.4 31.2 7.2 45.7-.3 20.1-10.5 31.4-31.9 27.7-54.7" class="a"></path><g style="clip-path:url(#d)"><path d="M80 103.3c-7.4 9.5 10.6-14.7 7.4-23.5-2.1-5.8-18.2-14.7-19.6-27.3-.8-7-9.7-4.9-6 1.6 2.6 4.3 3.4 9.1 2.5 14.7s-2.1-1.3-2.2-2.7c-.4-3.9-4.9-2.5-6 0s1.2 4.6 2.8 7.3c.5.8-.1 1.3-.8.9-4.2-2.7-6-5.1-5.8-11.2.3-8.6-5.8-7.3-5.3-1.9 1.3 15.5 9.5 21.9 21.1 24.7C85.4 90.2 71.4 98 71.4 98Z" style="fill:#105e06"></path><path d="M128.1 21.5c-2-2.3-8.8-2.1-4.1 3.8 3.5 4.4 6.2 6.4 3.8 12.5-.6 1.5-4.1 3.4-2.3-1.1s-2.2-7-4.7-5.5-3 4-2.5 5.3c1.6 4-.5 4.7-.8 2.8-1.1-6.9-5.5-11.1-9.6-14.6s-8.3 2.4-4.6 4.3c5.7 2.9 11.1 13.2 10.1 17.7-2.1 9.6-1.5 12.8-10 18.1-2.4 1.4.2 5.6-3.8 8.5 0 0-14.6-33.6-11.6-3.8 1.3 13.7 7.9 27.5 15.4 26.3 10.3-1.5 11.7-12.6 14.5-30.9 2.3-15.4 9.7-16.4 15-25.3 2.6-4.5.1-12.5-4.8-18.1" class="g"></path><path d="M133.7 43.6c-3.2 4.1-6.1 6.4-8.9 9.3s-4.2 6.8-4.6 12.3c-.7 9.3-1.4 15.2-3.7 21.1-.9 2-.4 2.7 1.9 1.1 16-11.2 20.5-29.6 19.1-42.4-.3-3.2-2.3-3.3-3.8-1.4" style="fill:#05cddb"></path><path d="M113.3 19.5c.8-1.3.1-3.2.9-3.1s1 1.1 1.5 2a1.3 1.3 0 0 0 1.6.6 3.6 3.6 0 0 1 1.5 0c.5.2-.1.7-1.1 1.2s-1.1.7-.6 1.6 1.1 1.7 1.2 2.4-.8.1-1.5-.7-1.4-1.2-1.8-.8-.7 1.5-1.2 1.8-.7.1-.7-.6.8-1.9-.3-2.4-1.6-.4-2.1-1.1 2.2-.2 2.6-.9" style="fill:#ffc600"></path><g style="mix-blend-mode:multiply"><path d="M61.9 98.9c8.1-2.1 13.7-6.8 11.5-13-3.2-9.2-13.6-11.4-15-24.3-1.1-10.6 0-21.6 7-29.6s3.1-9.7 4.7-17.5S80.8 4.1 93.5 4.1s20.3 8.7 22.3 16.8 3.3 9.1 6.1 18c2.3 7.3 1.3 12.7 0 22.6-1.9 13.9-4.1 11-6.8 22.3-1.4 6 7.1 9 12.3 15.8 10.2 13.3-89.4 5.4-65.5-.7" class="k"></path><path d="M62.1 98.9c8-2.1 13.7-6.8 11.4-13.1-3.4-9.1-13.6-11.4-15-24.3-1.2-10.6 0-21.4 7-29.5s3.1-9.7 4.7-17.4S80.8 4.2 93.5 4.2s20.3 8.6 22.2 16.7 3.3 9.1 6.1 18c2.3 7.3 1.4 12.7 0 22.5-1.8 14-4 11.1-6.8 22.4-1.5 6 7 9 12.2 15.8 10.2 13.3-88.9 5.4-65.1-.7" style="fill:#fefefe"></path><path d="M62.2 98.9c7.9-2.1 13.7-6.7 11.3-13.1-3.4-9.1-13.6-11.5-15-24.3-1.1-10.6.1-21.4 7-29.4s3.2-9.7 4.8-17.5S80.8 4.3 93.4 4.3s20.3 8.5 22.2 16.6 3.2 9 6.1 17.9c2.3 7.3 1.4 12.7.1 22.6-1.9 14-4 11.2-6.9 22.4-1.6 6 6.9 9 12.1 15.8 10.3 13.2-88.3 5.5-64.8-.7" style="fill:#fdfdfd"></path><path d="M62.3 99c7.9-2.1 13.7-6.8 11.3-13.2-3.5-9-13.6-11.5-15-24.4-1.1-10.6 0-21.2 7-29.3s3.2-9.7 4.8-17.4 10.4-10.4 23-10.4 20.2 8.5 22.1 16.6 3.2 9 6.1 17.9c2.4 7.3 1.4 12.6.1 22.5-1.8 14-3.9 11.4-6.9 22.5-1.6 6.1 6.8 9.1 12.1 15.8 10.3 13.2-87.9 5.6-64.6-.6" style="fill:#fcfdfc"></path><path d="M62.5 99c7.8-2.1 13.7-6.8 11.2-13.2-3.6-9-13.7-11.6-15-24.5-1.2-10.5 0-21.1 6.9-29.1s3.3-9.7 4.8-17.5 10.4-10.3 23-10.3 20.1 8.4 22 16.5 3.2 9 6.1 17.8c2.4 7.3 1.5 12.7.2 22.6-1.9 14-3.9 11.4-7 22.5-1.7 6.1 6.7 9.1 12 15.8 10.3 13.1-87.3 5.6-64.2-.6" style="fill:#fbfcfb"></path><path d="M62.6 99c7.7-2.1 13.7-6.8 11.1-13.2-3.6-9-13.6-11.7-15-24.5-1.1-10.6.1-21 7-29.1s3.3-9.7 4.8-17.4S80.8 4.5 93.4 4.5s20 8.3 21.8 16.4 3.2 8.9 6.2 17.8c2.4 7.3 1.5 12.6.2 22.5-1.8 14-3.8 11.6-7 22.6-1.8 6.1 6.6 9.1 11.9 15.8 10.4 13.1-86.8 5.7-63.9-.6" style="fill:#fafbfa"></path><path d="M62.7 99c7.7-2.1 13.7-6.8 11.1-13.2-3.7-9-13.6-11.8-15-24.6-1.1-10.6 0-20.9 6.9-28.9s3.4-9.7 4.9-17.5S80.8 4.5 93.3 4.5s20.1 8.3 21.8 16.4 3.2 8.9 6.2 17.7c2.4 7.3 1.5 12.7.2 22.6-1.8 14-3.7 11.6-7 22.6-1.8 6.2 6.5 9.2 11.8 15.7 10.5 13.1-86.2 5.9-63.6-.5" style="fill:#f9faf9"></path><path d="M62.9 99.1c7.6-2.2 13.7-6.8 10.9-13.4-3.7-8.8-13.6-11.8-14.9-24.6-1.1-10.5 0-20.7 6.9-28.8s3.4-9.7 4.9-17.5S80.8 4.6 93.3 4.6s20 8.2 21.7 16.3 3.1 8.9 6.1 17.7c2.6 7.2 1.7 12.6.4 22.5-1.8 14-3.7 11.8-7.1 22.7-1.9 6.2 6.4 9.2 11.7 15.7 10.6 13.1-85.7 5.9-63.2-.4" style="fill:#f8f9f8"></path><path d="M63 99.1c7.5-2.2 13.7-6.8 10.9-13.4-3.8-8.8-13.6-11.9-15-24.6-1.1-10.6.1-20.7 6.9-28.7s3.5-9.7 5-17.5 10-10.3 22.5-10.3 19.9 8.2 21.6 16.3 3.1 8.8 6.1 17.6 1.7 12.7.4 22.6c-1.8 14-3.6 11.9-7.1 22.7-2 6.2 6.3 9.2 11.7 15.7 10.5 13-85.2 6-63-.4" style="fill:#f7f9f7"></path><path d="M63.1 99.1c7.5-2.2 13.7-6.8 10.8-13.4C70.1 76.9 60.4 73.8 59 61c-1.1-10.6 0-20.6 6.9-28.6s3.6-9.7 5-17.5S80.8 4.7 93.3 4.7s19.8 8.1 21.5 16.2 3 8.8 6.1 17.6c2.6 7.2 1.7 12.6.5 22.5-1.9 14-3.6 12-7.2 22.8-2.1 6.3 6.3 9.2 11.6 15.7 10.6 13-84.7 6-62.7-.4" style="fill:#f6f8f6"></path><path d="M63.3 99.1C70.7 97 77 92.3 74 85.7c-3.9-8.8-13.6-12-14.9-24.8-1.1-10.5 0-20.4 6.8-28.4s3.7-9.7 5-17.5S80.8 4.8 93.2 4.8s19.9 8 21.5 16.1 3 8.8 6.1 17.5 1.8 12.7.5 22.5c-1.8 14.1-3.5 12.2-7.2 22.9-2.1 6.3 6.2 9.3 11.5 15.7 10.7 12.9-84.1 6.1-62.3-.4" style="fill:#f5f7f5"></path><path d="M63.4 99.2C70.7 97 77.1 92.3 74 85.7 70.1 77 60.5 73.6 59.1 60.9c-1.1-10.6.1-20.4 6.9-28.4s3.7-9.7 5-17.5S80.8 4.8 93.2 4.8s19.8 8 21.4 16.1 2.9 8.7 6.1 17.5c2.6 7.2 1.8 12.6.5 22.5-1.8 14-3.5 12.2-7.2 22.9-2.2 6.3 6.1 9.3 11.4 15.7 10.8 12.9-83.6 6.2-62-.3" style="fill:#f4f6f4"></path><path d="M63.5 99.2c7.3-2.2 13.7-6.8 10.6-13.6-4-8.6-13.5-12.1-14.9-24.8-1.1-10.5 0-20.2 6.9-28.2s3.7-9.7 5-17.5S80.8 4.9 93.2 4.9s19.7 7.9 21.3 16 2.9 8.7 6.1 17.4 1.8 12.7.6 22.5c-1.8 14.1-3.5 12.4-7.3 23-2.3 6.3 6 9.3 11.3 15.7 10.8 12.8-83 6.2-61.7-.3" style="fill:#f3f5f3"></path><path d="M63.7 99.2c7.1-2.2 13.7-6.8 10.5-13.6-4.1-8.6-13.6-12.2-14.9-24.9-1.1-10.5 0-20.1 6.8-28.1s3.8-9.7 5.1-17.5 9.6-10.2 22-10.2 19.6 7.9 21.2 16 2.9 8.6 6.1 17.4c2.7 7.2 1.9 12.6.6 22.5-1.8 14-3.4 12.5-7.3 22.9-2.4 6.5 5.9 9.5 11.2 15.8 10.9 12.8-82.4 6.3-61.3-.3" style="fill:#f2f4f2"></path><path d="M63.8 99.3c7.1-2.3 13.7-6.9 10.4-13.7-4.1-8.6-13.5-12.3-14.9-24.9-1.1-10.6.1-20 6.9-28S70 23 71.3 15.1 80.8 5 93.2 5s19.6 7.8 21.1 15.9 2.8 8.6 6.1 17.3 1.9 12.6.6 22.5c-1.7 14.1-3.3 12.6-7.3 23-2.5 6.5 5.8 9.5 11.2 15.8 10.9 12.7-82 6.4-61.1-.2" style="fill:#f1f4f1"></path><path d="M63.9 99.3C71 97 77.7 92.4 74.3 85.6c-4.2-8.5-13.6-12.3-14.9-25-1.1-10.5 0-19.9 6.8-27.9s3.9-9.7 5.2-17.5S80.8 5.1 93.1 5.1s19.6 7.6 21.1 15.8 2.8 8.6 6.1 17.3c2.7 7.2 1.9 12.6.7 22.5-1.8 14-3.4 12.7-7.4 23-2.5 6.5 5.7 9.5 11.1 15.8 11 12.7-81.4 6.4-60.8-.2" style="fill:#f0f3f0"></path><path d="M64.1 99.3C71 97 77.8 92.4 74.3 85.6c-4.2-8.5-13.5-12.4-14.8-25.1-1.1-10.5 0-19.7 6.8-27.7s3.9-9.7 5.1-17.6S80.8 5.1 93.1 5.1s19.5 7.6 21 15.8 2.7 8.5 6.1 17.2 2 12.6.7 22.5c-1.7 14.1-3.3 12.9-7.4 23.1-2.6 6.6 5.6 9.5 11 15.7 11 12.7-80.9 6.6-60.4-.1" style="fill:#eff2ef"></path><path d="M64.2 99.3c6.9-2.2 13.7-6.8 10.2-13.8s-13.5-12.4-14.9-25c-1.1-10.5.1-19.7 6.8-27.7s4-9.7 5.2-17.5S80.8 5.2 93.1 5.2s19.4 7.5 20.9 15.7 2.7 8.5 6 17.2c2.9 7.2 2.1 12.6.9 22.5-1.8 14-3.3 12.9-7.5 23.1-2.7 6.6 5.5 9.6 10.9 15.7 11.1 12.6-80.3 6.6-60.1-.1" style="fill:#eef1ee"></path><path d="M64.3 99.4c6.9-2.3 13.8-6.9 10.1-13.9S60.9 73 59.6 60.4c-1.1-10.5 0-19.6 6.8-27.5s4-9.8 5.2-17.6S80.8 5.2 93.1 5.2s19.4 7.5 20.8 15.7c1.2 6.6 2.6 8.5 6 17.1s2.1 12.6.9 22.5c-1.8 14.1-3.3 13.1-7.5 23.2-2.8 6.6 5.4 9.6 10.8 15.7 11.2 12.6-79.8 6.7-59.8 0" style="fill:#edf0ed"></path><path d="M64.5 99.4c6.7-2.3 13.7-6.9 10-13.9S61 72.9 59.7 60.3c-1.1-10.5 0-19.4 6.7-27.4s4.1-9.7 5.3-17.5S80.8 5.3 93 5.3s19.4 7.4 20.8 15.6c1.1 6.6 2.6 8.4 6 17.1s2.2 12.6.9 22.5c-1.7 14.1-3.2 13.1-7.5 23.2-2.9 6.7 5.3 9.6 10.8 15.7 11.2 12.5-79.3 6.8-59.5 0" style="fill:#ecf0ec"></path><path d="M64.6 99.4c6.7-2.3 13.8-6.9 10-13.9S61.1 72.9 59.7 60.3c-1.1-10.5.1-19.4 6.8-27.3s4.1-9.8 5.3-17.6 9-10 21.2-10 19.3 7.3 20.7 15.5c1.1 6.6 2.6 8.4 6 17s2.2 12.6 1 22.5c-1.8 14.1-3.2 13.3-7.6 23.3-2.9 6.7 5.2 9.7 10.7 15.7 11.3 12.5-78.8 6.8-59.2 0" style="fill:#ebefeb"></path><path d="M64.7 99.5c6.7-2.4 13.8-6.9 9.9-14S61.1 72.8 59.8 60.2c-1.1-10.5 0-19.2 6.7-27.2s4.2-9.7 5.4-17.5S80.9 5.4 93 5.4s19.2 7.3 20.6 15.5c1 6.5 2.5 8.4 6 17s2.2 12.6 1 22.5c-1.7 14.1-3.2 13.4-7.6 23.3-3 6.8 5.1 9.7 10.6 15.7 11.3 12.4-78.2 6.9-58.9.1" style="fill:#eaeeea"></path><path d="M64.9 99.5c6.5-2.4 13.7-6.9 9.8-14.1S61.2 72.7 59.9 60.1c-1.1-10.5 0-19.1 6.7-27s4.2-9.8 5.3-17.6 9-10 21.1-10 19.2 7.2 20.5 15.4c1 6.5 2.5 8.3 6 17s2.2 12.5 1 22.4c-1.7 14.1-3.1 13.5-7.6 23.4-3.1 6.8 5 9.7 10.5 15.7 11.4 12.4-77.6 6.9-58.5.1" style="fill:#e9ede9"></path><path d="M65 99.5c6.5-2.4 13.8-6.9 9.7-14.1S61.3 72.6 59.9 60.1c-1.1-10.5 0-19 6.7-27s4.3-9.7 5.4-17.6 8.9-10 20.9-10 19.2 7.2 20.5 15.4c1 6.4 2.4 8.3 6 16.9s2.3 12.6 1.1 22.4c-1.7 14.2-3.1 13.7-7.7 23.5-3.2 6.8 4.9 9.8 10.4 15.7 11.5 12.3-77.1 7-58.2.1" style="fill:#e8ece8"></path><path d="M65.1 99.5c6.5-2.4 13.8-6.9 9.7-14.1S61.3 72.5 60 60c-1.1-10.5 0-18.9 6.7-26.8s4.3-9.8 5.4-17.6 8.8-10 20.8-10 19.1 7.1 20.4 15.3c.9 6.4 2.4 8.3 6 16.9s2.3 12.5 1.1 22.4c-1.7 14.1-3.1 13.7-7.7 23.5-3.3 6.9 4.8 9.8 10.3 15.7 11.6 12.3-76.5 7.1-57.9.1" style="fill:#e7ece7"></path><path d="M65.3 99.6c6.4-2.4 13.8-7 9.5-14.2s-13.4-13-14.7-25.5c-1.1-10.4 0-18.7 6.6-26.7s4.4-9.7 5.5-17.6 8.7-9.9 20.7-9.9 19 7 20.3 15.1c.9 6.5 2.3 8.3 6 16.9s2.3 12.5 1.2 22.4c-1.7 14.2-3.1 13.9-7.8 23.6-3.4 6.9 4.8 9.8 10.3 15.7 11.5 12.2-76.1 7.1-57.6.2" style="fill:#e6ebe6"></path><path d="M65.4 99.6c6.3-2.4 13.8-6.9 9.5-14.2s-13.5-13-14.8-25.5c-1.1-10.5 0-18.7 6.7-26.7s4.4-9.7 5.5-17.5 8.6-10 20.6-10 19 7 20.1 15.1c1 6.4 2.4 8.3 6.1 16.9s2.4 12.5 1.2 22.4c-1.7 14.1-3.1 13.9-7.8 23.6-3.4 6.9 4.7 9.8 10.2 15.6 11.6 12.3-75.5 7.3-57.3.3" style="fill:#e5eae5"></path><path d="M65.5 99.6c6.3-2.4 13.9-6.9 9.5-14.3s-13.5-13-14.8-25.5c-1.1-10.5 0-18.6 6.6-26.5s4.5-9.7 5.6-17.6 8.5-9.9 20.5-9.9 18.9 6.9 20 15c.9 6.4 2.4 8.3 6.1 16.8s2.4 12.5 1.2 22.4c-1.6 14.2-3 14.1-7.8 23.6-3.5 7.1 4.6 10 10.1 15.7 11.7 12.2-75 7.3-57 .3" style="fill:#e4e9e4"></path><path d="M65.7 99.6c6.2-2.4 13.8-6.9 9.3-14.3S61.6 72.2 60.3 59.7c-1.1-10.4 0-18.4 6.6-26.4s4.6-9.7 5.5-17.5 8.5-9.9 20.4-9.9 18.9 6.8 20 14.9c.9 6.3 2.3 8.2 6 16.8s2.5 12.5 1.4 22.4c-1.7 14.1-3 14.2-7.9 23.6-3.6 7.1 4.5 10 10 15.7 11.8 12.2-74.4 7.4-56.6.3" style="fill:#e3e8e3"></path><path d="M65.8 99.7c6.1-2.5 13.8-7 9.3-14.4S61.6 72.1 60.3 59.7c-1-10.5 0-18.4 6.6-26.3s4.7-9.7 5.6-17.6 8.4-9.9 20.3-9.9 18.9 6.8 19.9 14.9c.9 6.3 2.3 8.2 6 16.7s2.6 12.5 1.4 22.4c-1.7 14.2-3 14.3-7.9 23.7-3.7 7.1 4.4 10 9.9 15.7 11.9 12.1-73.8 7.5-56.3.4" style="fill:#e2e8e2"></path><path d="M65.9 99.7c6.1-2.5 13.9-6.9 9.2-14.4S61.7 72 60.4 59.6c-1.1-10.4 0-18.2 6.6-26.2s4.7-9.7 5.6-17.6S80.9 6 92.8 6s18.8 6.7 19.8 14.8c.8 6.3 2.2 8.2 6 16.7s2.6 12.5 1.4 22.4c-1.6 14.1-2.9 14.4-7.9 23.7-3.8 7.2 4.3 10.1 9.9 15.7 11.8 12.1-73.4 7.5-56.1.4" style="fill:#e1e7e1"></path><path d="M66.1 99.7c6-2.5 13.8-6.9 9.1-14.4S61.8 71.9 60.5 59.5c-1.1-10.4 0-18.1 6.5-26s4.8-9.7 5.7-17.6S80.9 6 92.8 6s18.7 6.7 19.7 14.8c.8 6.2 2.2 8.1 6 16.6s2.6 12.5 1.5 22.4c-1.7 14.2-3 14.5-8 23.8-3.9 7.2 4.2 10.1 9.8 15.7 11.9 12-72.8 7.6-55.7.4" style="fill:#e1e6e0"></path><path d="M66.2 99.8c5.9-2.6 13.9-7 9-14.5S61.8 71.9 60.5 59.5c-1-10.5 0-18 6.6-26s4.8-9.7 5.7-17.6 8.1-9.8 19.9-9.8 18.7 6.6 19.7 14.7c.8 6.2 2.2 8.1 6 16.6s2.7 12.5 1.5 22.4c-1.6 14.1-2.9 14.6-8 23.8-4 7.2 4.1 10.1 9.7 15.7 12 12-72.3 7.6-55.4.5" style="fill:#e0e5df"></path><path d="M66.3 99.8c5.9-2.5 13.9-7 9-14.6S61.9 71.8 60.6 59.4c-1.1-10.4 0-17.9 6.5-25.8S72 23.9 72.9 16s8-9.8 19.8-9.8 18.7 6.5 19.6 14.6c.7 6.1 2.1 8.1 6 16.5s2.7 12.5 1.6 22.4c-1.7 14.2-3 14.7-8.1 23.9-4.1 7.3 4 10.1 9.6 15.7 12.1 11.9-71.7 7.7-55.1.5" style="fill:#dfe4de"></path><path d="M66.5 99.8c5.8-2.5 13.9-7 8.8-14.6S62 71.7 60.7 59.3c-1.1-10.4 0-17.7 6.5-25.7s4.9-9.7 5.7-17.6 8-9.8 19.8-9.8 18.6 6.5 19.5 14.6c.7 6.1 2.1 8 6 16.5s2.7 12.5 1.6 22.4c-1.6 14.1-2.9 14.8-8.1 23.9-4.2 7.3 3.9 10.2 9.5 15.7 12.2 11.9-71.1 7.7-54.7.5" style="fill:#dee4dd"></path><path d="M66.6 99.8c5.7-2.5 13.9-6.9 8.8-14.6S62 71.6 60.7 59.3c-1-10.5 0-17.7 6.5-25.6s5-9.7 5.8-17.6 7.9-9.8 19.7-9.8 18.5 6.4 19.4 14.5c.7 6 2 8 6 16.4s2.8 12.5 1.6 22.4c-1.6 14.2-2.9 15-8.1 24-4.2 7.3 3.8 10.2 9.4 15.7 12.2 11.8-70.6 7.8-54.4.5" style="fill:#dde3dc"></path><path d="M66.7 99.9c5.7-2.6 14-7 8.8-14.7s-13.4-13.7-14.7-26c-1.1-10.4 0-17.6 6.5-25.5s5-9.7 5.8-17.6 7.8-9.8 19.5-9.8 18.5 6.4 19.4 14.5c.6 6 2 8 6 16.4s2.8 12.4 1.7 22.4c-1.6 14.2-3 15-8.2 24-4.3 7.4 3.7 10.2 9.4 15.6 12.2 11.9-70.1 7.9-54.2.7" style="fill:#dce2db"></path><path d="M66.9 99.9c5.6-2.6 13.9-7 8.6-14.7S62.1 71.4 60.9 59.1c-1.1-10.4 0-17.4 6.4-25.3s5.1-9.7 5.9-17.7 7.7-9.7 19.4-9.7 18.5 6.3 19.3 14.4c.6 6 1.9 7.9 6 16.3s2.8 12.5 1.7 22.4c-1.6 14.2-2.9 15.2-8.2 24.1s3.6 10.2 9.3 15.6c12.3 11.8-69.6 8-53.8.7" style="fill:#dbe1da"></path><path d="M67 99.9c5.6-2.6 14-7 8.6-14.8s-13.4-13.7-14.7-26c-1-10.4 0-17.4 6.5-25.3s5.1-9.7 5.9-17.6 7.6-9.7 19.3-9.7 18.4 6.1 19.2 14.3c.6 5.9 1.9 7.9 5.9 16.3s3 12.4 1.8 22.3c-1.5 14.3-2.9 15.3-8.2 24.2s3.6 10.3 9.2 15.6c12.4 11.8-69 8-53.5.7" style="fill:#dae0d9"></path><path d="M67.2 100c5.4-2.7 13.9-7.1 8.4-14.9S62.3 71.3 61 59c-1.1-10.4 0-17.2 6.4-25.1s5.2-9.7 6-17.7 7.5-9.7 19.2-9.7 18.3 6.1 19.1 14.3c.5 5.9 1.9 7.8 5.9 16.2s3 12.5 1.9 22.4c-1.6 14.2-2.9 15.4-8.3 24.2s3.5 10.3 9.1 15.6c12.5 11.7-68.4 8.1-53.1.8" style="fill:#d9dfd8"></path><path d="M67.3 100c5.4-2.7 14-7 8.4-14.9S62.3 71.2 61.1 58.9c-1.1-10.4 0-17.1 6.4-25s5.2-9.7 5.9-17.6 7.5-9.7 19.2-9.7 18.3 6 19 14.2c.5 5.8 1.8 7.8 5.9 16.2s3 12.4 1.9 22.3c-1.6 14.3-2.9 15.5-8.3 24.3s3.4 10.3 9 15.6c12.5 11.6-67.9 8.1-52.8.8" style="fill:#d8dfd7"></path><path d="M67.4 100c5.4-2.6 14-7 8.3-14.9s-13.3-14-14.6-26.2c-1-10.4 0-17 6.4-24.9s5.3-9.7 6-17.7 7.4-9.7 19-9.7 18.3 6 19 14.2c.5 5.8 1.8 7.8 5.9 16.1s3.1 12.5 2 22.4c-1.6 14.2-2.9 15.6-8.4 24.2s3.3 10.5 9 15.7c12.5 11.6-67.4 8.2-52.6.8" style="fill:#d7ded6"></path><path d="M67.6 100c5.2-2.6 14-7 8.2-14.9S62.5 71 61.2 58.8c-1.1-10.4 0-16.9 6.4-24.8s5.3-9.7 6-17.6 7.3-9.7 18.9-9.7 18.2 5.9 18.9 14.1c.4 5.8 1.7 7.7 5.9 16.1s3.1 12.4 2 22.3c-1.6 14.3-2.9 15.7-8.4 24.3s3.2 10.5 8.9 15.7c12.6 11.5-66.9 8.2-52.2.8" style="fill:#d6ddd5"></path><path d="M67.7 100.1c5.2-2.7 14-7.1 8.2-15.1S62.5 71 61.3 58.7c-1.1-10.3 0-16.7 6.3-24.6s5.4-9.7 6.1-17.7 7.2-9.6 18.8-9.6 18.1 5.8 18.8 14c.4 5.7 1.7 7.7 5.9 16s3.1 12.5 2 22.4c-1.5 14.2-2.9 15.8-8.4 24.3s3.1 10.5 8.8 15.7c12.7 11.5-66.3 8.3-51.9.9" style="fill:#d5dcd4"></path><path d="M67.8 100.1C73 97.4 81.9 93 75.9 85S62.6 70.9 61.3 58.7c-1-10.4 0-16.7 6.4-24.6s5.4-9.7 6.1-17.6S81 6.8 92.5 6.8s18.1 5.8 18.7 14c.4 5.7 1.7 7.7 5.9 16s3.2 12.4 2.1 22.3c-1.6 14.3-2.9 15.9-8.5 24.4s3 10.5 8.7 15.7c12.8 11.4-65.7 8.3-51.6.9" style="fill:#d4dbd3"></path><path d="M68 100.1c5.1-2.7 14-7.1 8-15.1S62.7 70.8 61.4 58.6c-1.1-10.4 0-16.6 6.3-24.4s5.6-9.7 6.2-17.7S81 6.9 92.4 6.9s18.1 5.7 18.7 13.9c.3 5.6 1.6 7.6 5.9 15.9s3.2 12.5 2.1 22.4c-1.5 14.2-2.9 16-8.5 24.4s2.9 10.6 8.6 15.7c12.8 11.4-65.2 8.4-51.2.9" style="fill:#d3dbd2"></path><path d="M68.1 100.2c5-2.8 14.1-7.1 7.9-15.2S62.7 70.7 61.5 58.5c-1.1-10.3-.1-16.4 6.3-24.3s5.6-9.7 6.1-17.7S81 6.9 92.4 6.9s18 5.7 18.6 13.9c.3 5.6 1.6 7.6 5.9 15.9s3.2 12.4 2.2 22.3c-1.6 14.3-2.9 16.1-8.6 24.5s2.8 10.6 8.5 15.6c12.9 11.4-64.6 8.5-50.9 1.1" style="fill:#d2dad1"></path><path d="M68.2 100.2c5-2.8 14.1-7.1 7.9-15.2S62.8 70.6 61.5 58.5c-1-10.4 0-16.4 6.3-24.2s5.7-9.7 6.2-17.7S81 7 92.4 7s18 5.6 18.4 13.8c.4 5.5 1.6 7.6 6 15.8S120.1 49 119 59c-1.5 14.2-2.9 16.2-8.6 24.5s2.7 10.6 8.5 15.6c12.9 11.4-64.1 8.6-50.7 1.1" style="fill:#d1d9d0"></path><path d="M68.4 100.2c4.9-2.8 14.1-7.1 7.7-15.3S62.8 70.5 61.6 58.4c-1.1-10.4 0-16.2 6.3-24.1s5.7-9.7 6.2-17.7S81 7.1 92.4 7.1s17.9 5.5 18.3 13.7c.3 5.5 1.6 7.5 5.9 15.8s3.4 12.4 2.3 22.3c-1.5 14.3-2.9 16.3-8.6 24.6s2.6 10.7 8.4 15.6c13 11.3-63.6 8.6-50.3 1.1" style="fill:#d0d8cf"></path><path d="M68.5 100.2c4.9-2.8 14.1-7.1 7.7-15.3S62.9 70.5 61.7 58.3c-1.1-10.3-.1-16.1 6.2-23.9s5.8-9.7 6.3-17.7S81 7.1 92.3 7.1s17.9 5.5 18.3 13.7c.3 5.5 1.5 7.5 5.9 15.7s3.4 12.4 2.4 22.4c-1.5 14.2-2.9 16.4-8.7 24.6s2.6 10.7 8.3 15.6c13.1 11.3-63 8.6-50 1.1" style="fill:#cfd7ce"></path><path d="M68.6 100.3c4.8-2.9 14.2-7.2 7.7-15.4S63 70.4 61.7 58.3c-1-10.4 0-16 6.3-23.9s5.8-9.7 6.3-17.7 6.7-9.5 18-9.5 17.9 5.4 18.2 13.6c.3 5.4 1.5 7.5 5.9 15.7s3.5 12.4 2.4 22.3c-1.5 14.3-2.9 16.5-8.7 24.7s2.5 10.7 8.2 15.6c13.2 11.2-62.5 8.7-49.7 1.2" style="fill:#ced7cd"></path><path d="M68.8 100.3c4.7-2.9 14.1-7.2 7.5-15.4S63 70.3 61.8 58.2c-1-10.3 0-15.9 6.2-23.8s5.9-9.6 6.4-17.6S81 7.3 92.3 7.3s17.8 5.3 18.1 13.5c.3 5.4 1.5 7.4 5.9 15.6s3.5 12.4 2.4 22.4c-1.5 14.2-2.9 16.6-8.7 24.7s2.4 10.7 8.1 15.6c13.2 11.2-61.9 8.7-49.3 1.2" style="fill:#cdd6cc"></path><path d="M68.9 100.3c4.7-2.9 14.2-7.1 7.5-15.4S63.1 70.2 61.9 58.1c-1.1-10.3-.1-15.7 6.2-23.6s5.9-9.7 6.3-17.7S81 7.3 92.3 7.3s17.7 5.3 18 13.5c.2 5.3 1.4 7.4 5.9 15.6s3.5 12.4 2.5 22.3c-1.5 14.3-2.9 16.7-8.8 24.8s2.3 10.8 8.1 15.6c13.2 11.1-61.4 8.8-49.1 1.2" style="fill:#ccd5cb"></path><path d="M69 100.3c4.7-2.8 14.2-7.1 7.4-15.5S63.2 70.1 61.9 58.1c-1-10.4 0-15.7 6.2-23.6s6-9.6 6.4-17.7S81 7.4 92.3 7.4s17.6 5.1 17.9 13.4c.2 5.3 1.4 7.4 5.9 15.5s3.6 12.4 2.5 22.3c-1.5 14.3-2.9 16.9-8.8 24.9s2.2 10.8 8 15.6c13.3 11-60.9 8.8-48.8 1.2" style="fill:#cbd4ca"></path><path d="M69.2 100.4c4.5-2.9 14.2-7.2 7.3-15.6S63.2 70 62 58c-1-10.3 0-15.5 6.2-23.4s6-9.7 6.4-17.7S81 7.4 92.2 7.4s17.7 5.1 17.9 13.4c.2 5.2 1.3 7.3 5.9 15.5s3.6 12.4 2.6 22.3c-1.5 14.3-3 16.9-8.9 24.9s2.1 10.8 7.9 15.6c13.4 11-60.3 8.8-48.4 1.3" style="fill:#cad3c9"></path><path d="M69.3 100.4c4.5-2.9 14.3-7.2 7.2-15.6S63.3 70 62.1 57.9C61 47.6 62 42.5 68.2 34.6s6.1-9.6 6.5-17.7S81 7.5 92.2 7.5s17.6 5 17.8 13.3c.1 5.2 1.3 7.3 5.9 15.5s3.6 12.3 2.6 22.2c-1.5 14.4-2.9 17.1-8.9 24.9s2 10.9 7.8 15.7c13.5 10.9-59.7 8.9-48.1 1.3" style="fill:#c9d3c8"></path><path d="M69.4 100.4c4.5-2.9 14.3-7.2 7.2-15.6S63.4 69.9 62.1 57.9c-1-10.3 0-15.4 6.2-23.2S74.4 25 74.8 17 81 7.6 92.2 7.6s17.5 4.9 17.7 13.2c.1 5.2 1.3 7.3 5.9 15.4s3.6 12.3 2.6 22.3c-1.4 14.3-2.9 17.1-8.9 24.9s1.9 11 7.7 15.6c13.6 11-59.2 9-47.8 1.4" style="fill:#c8d2c7"></path><path d="M69.6 100.5c4.4-3 14.3-7.3 7-15.7-5.8-7-13.2-15-14.4-27-1-10.3 0-15.2 6.1-23.1s6.2-9.6 6.6-17.7S81 7.6 92.2 7.6s17.5 4.9 17.6 13.2c.1 5.1 1.2 7.2 5.9 15.4s3.7 12.3 2.7 22.2c-1.5 14.4-3 17.3-9 25s1.8 11 7.6 15.6c13.6 10.9-58.6 9-47.4 1.5" style="fill:#c7d1c6"></path><path d="M69.7 100.5c4.3-3 14.3-7.2 7-15.8-5.9-6.8-13.2-15-14.4-27-1.1-10.3-.1-15.1 6.1-22.9s6.2-9.7 6.5-17.7S81 7.7 92.1 7.7s17.5 4.8 17.6 13.1c.1 5.1 1.2 7.2 5.8 15.3s3.8 12.3 2.8 22.3c-1.4 14.3-2.9 17.3-9 25s1.7 11 7.6 15.6c13.6 10.9-58.1 9.1-47.2 1.5" style="fill:#c6d0c5"></path><path d="M69.8 100.5c4.3-3 14.4-7.2 7-15.8-6-6.8-13.3-15.1-14.5-27-1-10.3 0-15 6.1-22.9s6.3-9.6 6.6-17.7 6-9.4 17.1-9.4 17.4 4.8 17.5 13.1c0 5 1.1 7.2 5.8 15.3s3.8 12.3 2.8 22.2c-1.4 14.4-2.9 17.5-9 25.1s1.7 11 7.5 15.6c13.7 10.8-57.6 9.1-46.9 1.5" style="fill:#c5cfc4"></path><path d="M70 100.5c4.2-3 14.3-7.2 6.8-15.8-6-6.8-13.2-15.2-14.4-27.1-1-10.3 0-14.9 6.1-22.7s6.4-9.7 6.6-17.8 5.9-9.3 17-9.3 17.4 4.7 17.4 13c0 5 1.1 7.1 5.8 15.2s3.9 12.3 2.9 22.3c-1.4 14.3-3 17.5-9.1 25.1s1.6 11.1 7.4 15.6c13.8 10.7-57 9.1-46.5 1.5" style="fill:#c4cfc4"></path><path d="M70.1 100.6c4.2-3.1 14.4-7.3 6.8-15.9-6-6.8-13.2-15.2-14.4-27.2-1.1-10.3-.1-14.7 6-22.6s6.5-9.6 6.7-17.7S81 7.9 92.1 7.9s17.3 4.6 17.3 12.9c0 5 1.1 7.1 5.8 15.2s3.9 12.3 2.9 22.2c-1.4 14.4-2.9 17.7-9.1 25.2s1.5 11.1 7.3 15.6c13.9 10.7-56.5 9.1-46.2 1.6" style="fill:#c3cec3"></path><path d="M70.2 100.6c4.1-3.1 14.5-7.3 6.7-15.9-6-6.8-13.2-15.3-14.4-27.2-1-10.3 0-14.7 6.1-22.5s6.5-9.7 6.7-17.8S81 7.9 92 7.9s17.3 4.6 17.3 12.9c-.1 4.9 1 7 5.8 15.1s3.9 12.3 3 22.3c-1.5 14.3-3 17.7-9.2 25.2s1.4 11.1 7.2 15.6c14 10.6-55.9 9.2-45.9 1.6" style="fill:#c2cdc2"></path><path d="M70.4 100.6c3.4-3.8 14.4-7.3 6.6-15.9-6.1-6.8-13.2-15.4-14.4-27.3-1-10.3 0-14.5 6-22.4s6.6-9.6 6.8-17.7S81 8 92 8s17.3 4.5 17.2 12.8c-.1 4.9 1 7 5.8 15.1s4 12.3 3 22.2c-1.4 14.4-3 17.8-9.2 25.3s1.3 11.1 7.2 15.6c14 10.6-56.6 7.3-45.6 1.6" style="fill:#c1ccc1"></path><path d="M70.5 100.7c3.4-3.9 14.5-7.4 6.5-16.1-6.1-6.7-13.1-15.4-14.3-27.3-1.1-10.2-.1-14.4 6-22.2s6.6-9.7 6.7-17.8S81 8 92 8s17.2 4.5 17.1 12.8c-.1 4.8.9 7 5.8 15s4 12.3 3 22.3c-1.4 14.3-3 17.9-9.2 25.3s1.2 11.2 7.1 15.6c14 10.5-56.1 7.4-45.3 1.7" style="fill:#c0cbc0"></path><path d="M70.6 100.7c3.3-3.9 14.5-7.4 6.5-16.1-6.1-6.7-13.2-15.5-14.4-27.3-1-10.3 0-14.4 6-22.2s6.7-9.6 6.8-17.7S81 8.1 92 8.1s17.1 4.4 17 12.6c-.1 4.9.9 7 5.8 15.1s4 12.3 3.1 22.2c-1.4 14.4-3 18-9.3 25.4s1.1 11.2 7 15.6c14.1 10.5-55.5 7.4-45 1.7" style="fill:#bfcabf"></path><path d="M70.8 100.7c3.2-3.9 14.5-7.4 6.4-16.1C71 77.9 64 69.1 62.8 57.2c-1-10.3 0-14.2 6-22s6.7-9.7 6.8-17.8S81 8.2 92 8.2s17.1 4.3 16.9 12.5c-.2 4.8.8 7 5.8 15s4.1 12.3 3.1 22.3c-1.4 14.3-3 18.1-9.3 25.4s1 11.2 6.9 15.5c14.2 10.5-55 7.5-44.6 1.8" style="fill:#becabe"></path><path d="M70.9 100.7c3.1-3.9 14.5-7.3 6.3-16.1C71 78 64.1 69 62.9 57.1c-1.1-10.2-.1-14.1 5.9-21.9s6.8-9.6 6.9-17.7 5.4-9.3 16.2-9.3 17.1 4.2 16.9 12.5c-.2 4.8.8 7 5.8 15s4.1 12.2 3.1 22.2c-1.3 14.4-3 18.2-9.3 25.5s.9 11.3 6.8 15.5c14.3 10.4-54.4 7.5-44.3 1.8" style="fill:#bdc9bd"></path><path d="M71 100.8c3.1-4 14.6-7.4 6.3-16.2C71 78 64.1 68.9 62.9 57.1c-1-10.3 0-14 6-21.8s6.8-9.7 6.9-17.8 5.3-9.2 16.1-9.2 17 4.1 16.7 12.4c-.1 4.8.9 6.9 5.9 14.9s4.1 12.3 3.2 22.2c-1.4 14.4-3 18.4-9.4 25.6s.9 11.3 6.7 15.5c14.4 10.4-53.9 7.5-44 1.9" style="fill:#bcc8bc"></path><path d="M71.2 100.8c3-4 14.6-7.4 6.1-16.3C71.1 78 64.2 68.8 63 57c-1-10.2-.1-13.9 5.9-21.7s6.9-9.6 7-17.8 5.2-9.2 16-9.2 17 4.1 16.6 12.4c-.1 4.7.8 6.9 5.8 14.9s4.3 12.2 3.3 22.2c-1.3 14.4-3 18.4-9.4 25.5-7.7 8.6.8 11.4 6.7 15.6 14.4 10.3-53.5 7.6-43.7 1.9" style="fill:#bbc7bb"></path><path d="M71.3 100.8c2.9-4 14.6-7.4 6.1-16.3-6.3-6.5-13.2-15.8-14.3-27.6-1-10.2-.1-13.7 5.9-21.5s6.9-9.7 6.9-17.8 5.2-9.2 16-9.2 16.9 4 16.5 12.3c-.2 4.7.8 6.9 5.8 14.8s4.3 12.3 3.4 22.2c-1.4 14.4-3.1 18.5-9.5 25.6-7.8 8.6.7 11.4 6.6 15.6 14.5 10.3-52.9 7.6-43.4 1.9" style="fill:#bac6ba"></path><path d="M71.4 100.8c2.9-4 14.7-7.4 6-16.3-6.3-6.5-13.1-15.9-14.3-27.6s0-13.7 5.9-21.5 7-9.6 7-17.8 5.1-9.1 15.8-9.1 17 3.9 16.5 12.2c-.2 4.6.7 6.8 5.8 14.8s4.3 12.2 3.4 22.2c-1.3 14.4-3.1 18.6-9.5 25.6-7.9 8.6.6 11.5 6.5 15.6 14.5 10.2-52.4 7.6-43.1 1.9" style="fill:#b9c6b9"></path><path d="M71.6 100.9c2.7-4.1 14.6-7.5 5.9-16.4-6.3-6.5-13.1-15.9-14.3-27.7-1-10.2-.1-13.5 5.9-21.3s7-9.7 7-17.8 5-9.2 15.7-9.2 16.9 3.9 16.4 12.2c-.2 4.6.7 6.8 5.8 14.7s4.4 12.3 3.4 22.2c-1.3 14.5-3 18.7-9.5 25.7-8 8.6.5 11.5 6.4 15.6 14.6 10.1-51.8 7.6-42.7 2" style="fill:#b8c5b8"></path><path d="M71.7 100.9c2.7-4.1 14.7-7.5 5.9-16.4-6.4-6.5-13.2-16-14.3-27.8-1-10.2-.1-13.4 5.8-21.2s7.1-9.6 7.1-17.8 4.9-9.1 15.6-9.1 16.8 3.8 16.3 12.1c-.2 4.5.7 6.8 5.8 14.7s4.4 12.2 3.5 22.2c-1.4 14.4-3.1 18.8-9.6 25.7-8.1 8.7.4 11.5 6.3 15.6 14.7 10.1-51.3 7.7-42.4 2" style="fill:#b7c4b7"></path><path d="M71.8 100.9c2.7-4.1 14.8-7.5 5.8-16.5-6.4-6.4-13.1-16-14.3-27.7-1-10.2 0-13.4 5.9-21.2s7.2-9.6 7.1-17.7 4.8-9.1 15.5-9.1 16.8 3.7 16.2 12c-.3 4.5.6 6.7 5.8 14.6s4.4 12.3 3.5 22.2c-1.3 14.5-3.1 18.9-9.6 25.8-8.2 8.7.3 11.5 6.3 15.6 14.7 10-50.9 7.7-42.2 2" style="fill:#b6c3b6"></path><path d="M72 101c2.5-4.2 14.7-7.6 5.7-16.6-6.5-6.4-13.1-16.1-14.3-27.8s-.1-13.2 5.8-21 7.3-9.6 7.2-17.8 4.7-9.1 15.3-9.1 16.8 3.7 16.2 12c-.3 4.5.6 6.7 5.8 14.6s4.5 12.2 3.6 22.2c-1.4 14.4-3.2 18.9-9.7 25.8-8.3 8.7.2 11.6 6.2 15.6 14.8 10-50.3 7.7-41.8 2.1" style="fill:#b5c2b5"></path><path d="M72.1 101c2.5-4.2 14.8-7.6 5.6-16.6-6.4-6.4-13.1-16.2-14.2-27.9-1-10.2-.1-13.1 5.8-20.9s7.3-9.6 7.1-17.8 4.7-9 15.3-9 16.7 3.6 16.1 11.9c-.3 4.4.5 6.7 5.8 14.5s4.5 12.3 3.6 22.2c-1.3 14.5-3.1 19.1-9.7 25.9-8.5 8.7.1 11.6 6.1 15.5 14.9 10-49.8 7.8-41.5 2.2" style="fill:#b4c2b4"></path><path d="M72.2 101c2.4-4.2 14.9-7.6 5.6-16.6-6.5-6.4-13.1-16.3-14.3-27.9s0-13 5.8-20.8 7.4-9.6 7.2-17.8 4.6-9.1 15.2-9.1 16.7 3.6 16 11.9c-.3 4.4.5 6.6 5.8 14.5s4.5 12.2 3.6 22.2c-1.3 14.4-3.1 19.1-9.7 25.9-8.6 8.7.1 11.6 6 15.5 15 9.9-49.2 7.8-41.2 2.2" style="fill:#b3c1b3"></path><path d="M72.4 101c2.3-4.2 14.8-7.6 5.4-16.6-6.5-6.3-13-16.3-14.2-28-1-10.2-.1-12.9 5.8-20.7s7.4-9.6 7.2-17.8 4.5-9 15.1-9 16.6 3.5 15.9 11.8c-.4 4.3.5 6.6 5.8 14.4s4.6 12.2 3.7 22.2c-1.3 14.5-3.2 19.3-9.8 26-8.7 8.7 0 11.6 5.9 15.5 15.1 9.9-48.7 7.9-40.8 2.2" style="fill:#b2c0b2"></path><path d="M72.5 101.1c2.3-4.3 14.9-7.7 5.4-16.8-6.5-6.2-13.1-16.3-14.2-28-1-10.2-.1-12.7 5.7-20.5s7.5-9.6 7.3-17.8 4.4-9 15-9 16.6 3.4 15.8 11.7c-.4 4.3.4 6.5 5.7 14.4s4.7 12.2 3.8 22.2c-1.3 14.4-3.1 19.3-9.8 26-8.8 8.7-.1 11.6 5.8 15.5 15.1 9.8-48.2 7.9-40.5 2.3" style="fill:#b1bfb1"></path><path d="M72.6 101.1c2.2-4.3 14.9-7.6 5.3-16.8-6.5-6.2-13-16.4-14.2-28s0-12.7 5.8-20.5S77 26.2 76.8 18s4.3-9 14.8-9 16.6 3.3 15.8 11.7c-.4 4.2.4 6.5 5.7 14.3s4.7 12.2 3.8 22.2c-1.2 14.5-3.1 19.4-9.8 26.1-8.9 8.8-.2 11.7 5.8 15.5 15.1 9.8-47.7 7.9-40.3 2.3" style="fill:#b0beb0"></path><path d="M72.8 101.1c2.1-4.3 14.9-7.6 5.2-16.8-6.6-6.2-13.1-16.5-14.2-28.1s-.1-12.5 5.7-20.3 7.6-9.6 7.4-17.8 4.2-9 14.7-9 16.5 3.2 15.7 11.6c-.4 4.2.3 6.5 5.7 14.3s4.8 12.2 3.9 22.2c-1.3 14.4-3.2 19.5-9.9 26.1-9 8.8-.3 11.7 5.7 15.5 15.2 9.7-47.2 7.9-39.9 2.3" style="fill:#afbeaf"></path><path d="M72.9 101.2c2-4.4 15-7.7 5.2-16.9-6.7-6.2-13.1-16.6-14.2-28.2-1-10.1-.1-12.4 5.7-20.2s7.6-9.6 7.3-17.8 4.2-9 14.7-9 16.5 3.2 15.6 11.6c-.5 4.2.3 6.4 5.7 14.2s4.8 12.2 3.9 22.2c-1.3 14.5-3.2 19.6-9.9 26.2-9.1 8.8-.4 11.7 5.6 15.5 15.3 9.6-46.6 7.9-39.6 2.4" style="fill:#aebdae"></path><path d="M73 101.2c2-4.4 15-7.7 5.1-16.9-6.6-6.2-13-16.7-14.2-28.2s0-12.4 5.7-20.1 7.7-9.6 7.4-17.9 4.1-8.9 14.6-8.9 16.4 3.1 15.5 11.5c-.5 4.1.3 6.4 5.7 14.2s4.8 12.2 4 22.1c-1.3 14.5-3.2 19.7-10 26.2-9.3 8.9-.5 11.8 5.5 15.6 15.4 9.6-46.1 8-39.3 2.4" style="fill:#adbcad"></path><path d="M73.2 101.2c1.9-4.4 15-7.7 5-17A45.7 45.7 0 0 1 64 56c-1-10.2-.1-12.2 5.7-20s7.7-9.6 7.4-17.8 4-8.9 14.4-8.9 16.5 3 15.5 11.4c-.5 4.1.2 6.4 5.7 14.1s4.9 12.2 4 22.2c-1.3 14.5-3.2 19.8-10 26.2-9.4 8.9-.6 11.9 5.4 15.6 15.5 9.5-45.6 8-38.9 2.4" style="fill:#acbbac"></path><path d="M73.3 101.2c1.8-4.4 15.1-7.7 4.9-17a45.9 45.9 0 0 1-14.1-28.3c-1-10.1-.1-12.1 5.6-19.8s7.8-9.6 7.5-17.9 3.9-8.9 14.3-8.9 16.4 3 15.4 11.4c-.5 4 .2 6.3 5.7 14.1s4.9 12.2 4 22.1c-1.2 14.5-3.2 19.9-10 26.3-9.5 8.9-.6 11.9 5.4 15.6 15.5 9.4-45.1 8-38.7 2.4" style="fill:#abbaab"></path><path d="M73.4 101.3c1.8-4.5 15.1-7.8 4.9-17.1a46.8 46.8 0 0 1-14.2-28.3c-1-10.2 0-12 5.7-19.8s7.8-9.6 7.5-17.8 3.8-8.9 14.2-8.9 16.4 2.9 15.3 11.3c-.6 4 .1 6.3 5.7 14s4.9 12.2 4.1 22.2c-1.3 14.5-3.3 19.9-10.1 26.3-9.6 8.9-.7 11.9 5.3 15.6 15.6 9.4-44.6 8-38.4 2.5" style="fill:#aab9aa"></path><path d="M73.6 101.3c1.6-4.5 15.1-7.8 4.7-17.1a46.4 46.4 0 0 1-14.1-28.4c-1-10.1-.1-11.9 5.6-19.6s8-9.6 7.6-17.9 3.7-8.9 14.1-8.9 16.3 2.9 15.2 11.3c-.6 3.9.1 6.3 5.7 14s5 12.2 4.1 22.1c-1.2 14.5-3.2 20.1-10.1 26.4-9.7 8.9-.8 11.9 5.2 15.5 15.6 9.4-44 8.2-38 2.6" style="fill:#a9b9a9"></path><path d="M73.7 101.3c1.6-4.5 15.2-7.8 4.7-17.1-6.8-6.1-13-17-14.1-28.5s-.1-11.7 5.6-19.5 8-9.6 7.5-17.8 3.7-8.9 14-8.9 16.3 2.8 15.2 11.2c-.6 3.9.1 6.2 5.7 14s5 12.1 4.1 22.1c-1.2 14.5-3.2 20.1-10.1 26.4-9.8 8.9-.9 12 5.1 15.5 15.7 9.4-43.5 8.2-37.7 2.6" style="fill:#a8b8a8"></path><path d="M73.9 101.3c1.5-4.4 15.1-7.8 4.6-17.2-6.9-6-13.1-16.9-14.2-28.4s0-11.7 5.6-19.4 8.1-9.6 7.6-17.9 3.6-8.8 13.9-8.8 16.3 2.7 15 11.1c-.5 3.9.1 6.2 5.7 13.9s5.1 12.1 4.3 22.1c-1.2 14.6-3.3 20.2-10.2 26.5-10 8.9-1 12 5 15.5 15.8 9.3-43 8.2-37.3 2.6" style="fill:#a7b7a7"></path><path d="M74 101.4c1.4-4.5 15.2-7.9 4.5-17.3-6.8-6-13-17-14.1-28.5s-.1-11.5 5.6-19.3 8.1-9.6 7.6-17.8 3.6-8.9 13.8-8.9 16.2 2.7 14.9 11.1c-.5 3.8.1 6.2 5.7 13.9s5.2 12.1 4.3 22.1c-1.2 14.5-3.3 20.3-10.2 26.5-10.1 8.9-1.1 12 4.9 15.5 15.9 9.2-42.4 8.2-37 2.7" style="fill:#a7b6a6"></path><path d="M74.1 101.4c1.4-4.5 15.3-7.9 4.5-17.3-6.9-6-13-17.1-14.1-28.6s-.1-11.4 5.5-19.1 8.2-9.6 7.7-17.9 3.5-8.8 13.7-8.8 16.2 2.6 14.8 11c-.6 3.8 0 6.1 5.7 13.8s5.2 12.1 4.4 22.1C115.1 71.2 113 77 106 83.2c-10.2 8.9-1.2 12 4.9 15.5 15.9 9.2-42 8.2-36.8 2.7" style="fill:#a6b5a5"></path><path d="M74.3 101.4c1.2-4.5 15.2-7.9 4.3-17.3-6.9-6-13-17.2-14.1-28.6s-.1-11.4 5.6-19.1 8.2-9.6 7.7-17.9 3.4-8.8 13.6-8.8 16.1 2.6 14.7 11c-.6 3.7 0 6.1 5.7 13.8s5.2 12.1 4.4 22.1c-1.2 14.5-3.3 20.5-10.3 26.6-10.3 9-1.3 12.1 4.8 15.5 16 9.1-41.4 8.3-36.4 2.7" style="fill:#a5b5a4"></path><path d="M74.4 101.5c1.2-4.6 15.3-8 4.3-17.4-6.9-6-13-17.3-14.1-28.7s-.1-11.2 5.5-18.9 8.3-9.6 7.8-17.9 3.3-8.8 13.4-8.8 16.2 2.5 14.7 10.9c-.6 3.7 0 6 5.7 13.7s5.2 12.1 4.4 22.1c-1.2 14.6-3.3 20.6-10.3 26.7-10.4 9-1.4 12.1 4.7 15.5 16.1 9-40.9 8.3-36.1 2.8" style="fill:#a4b4a3"></path><path d="M74.5 101.5c1.2-4.6 15.4-8 4.2-17.4-6.9-5.9-12.9-17.4-14-28.7s-.1-11.2 5.5-18.9 8.3-9.6 7.7-17.9 3.3-8.7 13.4-8.7 16.1 2.4 14.6 10.8c-.6 3.6-.1 6 5.7 13.7s5.3 12.1 4.5 22.1c-1.2 14.5-3.4 20.6-10.4 26.7-10.6 9-1.4 12.1 4.6 15.5 16.2 9-40.4 8.3-35.8 2.8" style="fill:#a3b3a2"></path><path d="M74.7 101.5c1-4.6 15.3-8 4.1-17.5-7-5.8-13-17.3-14.1-28.7s-.1-11 5.5-18.7S78.6 27 78 18.7s3.2-8.8 13.3-8.8 16.1 2.3 14.5 10.8c-.6 3.6-.1 6 5.7 13.6s5.3 12.1 4.5 22.1c-1.2 14.6-3.3 20.7-10.4 26.8-10.7 9-1.5 12.1 4.5 15.5 16.3 8.9-39.8 8.3-35.4 2.8" style="fill:#a2b2a1"></path><path d="M74.8 101.5c1-4.6 15.4-8 4.1-17.5-7.1-5.8-13-17.4-14.1-28.8s-.1-10.9 5.5-18.6 8.4-9.6 7.8-17.9S81.2 10 91.3 10s16 2.2 14.4 10.7c-.7 3.6-.2 5.9 5.7 13.6s5.3 12.1 4.5 22c-1.1 14.6-3.3 20.9-10.4 26.9-10.8 9-1.6 12.1 4.5 15.5 16.2 8.8-39.4 8.3-35.2 2.8" style="fill:#a1b1a0"></path><path d="M74.9 101.6c.9-4.7 15.5-8.1 4-17.6-7-5.8-12.9-17.5-14-28.8s-.1-10.8 5.4-18.5 8.5-9.6 7.9-17.9 3-8.8 13-8.8 16.1 2.2 14.4 10.7c-.7 3.5-.2 5.9 5.7 13.5s5.4 12.1 4.6 22.1c-1.2 14.6-3.4 20.9-10.5 26.9-10.9 9-1.7 12.2 4.4 15.4 16.3 8.9-38.8 8.5-34.9 3" style="fill:#a0b19f"></path><path d="M75.1 101.6c.8-4.7 15.4-8.1 3.9-17.6-7.1-5.8-13-17.6-14.1-28.9s-.1-10.7 5.5-18.4 8.5-9.6 7.9-17.9 2.9-8.7 12.9-8.7 16 2.1 14.3 10.6c-.7 3.5-.2 5.9 5.7 13.5s5.4 12 4.6 22c-1.1 14.6-3.4 21-10.5 26.9-11 9.1-1.8 12.3 4.3 15.5 16.4 8.8-38.3 8.5-34.5 3" style="fill:#9fb09e"></path><path d="M75.2 101.6C76 96.9 90.7 93.5 79 84c-7.1-5.8-12.9-17.7-14-29s-.1-10.5 5.4-18.3 8.6-9.5 8-17.9 2.8-8.6 12.8-8.6 16 2 14.2 10.5c-.7 3.4-.3 5.8 5.6 13.4s5.5 12.1 4.8 22.1c-1.2 14.6-3.4 21.1-10.6 26.9-11.2 9.1-1.9 12.3 4.2 15.5 16.5 8.7-37.8 8.5-34.2 3" style="fill:#9eaf9d"></path><path d="M75.3 101.7c.7-4.8 15.6-8.2 3.8-17.8-7.1-5.7-13-17.7-14-28.9s-.1-10.5 5.4-18.2 8.7-9.6 7.9-17.9 2.8-8.7 12.8-8.7 15.9 2 14.1 10.5c-.7 3.4-.3 5.8 5.6 13.4s5.6 12 4.8 22c-1.1 14.6-3.4 21.2-10.6 27-11.3 9.1-2 12.3 4.1 15.5 16.6 8.7-37.2 8.5-33.9 3.1" style="fill:#9dae9c"></path><path d="M75.5 101.7c.6-4.8 15.5-8.2 3.6-17.8-7.1-5.7-12.9-17.7-14-29s-.1-10.4 5.4-18.1 8.8-9.5 8-17.9 2.7-8.6 12.6-8.6 16 1.9 14.1 10.4c-.8 3.4-.4 5.8 5.6 13.3s5.6 12.1 4.8 22.1c-1.1 14.6-3.4 21.2-10.6 27-11.4 9.1-2.1 12.4 4 15.5 16.7 8.6-36.7 8.6-33.5 3.1" style="fill:#9cad9b"></path><path d="M75.6 101.7c.5-4.8 15.6-8.3 3.6-17.8-7.2-5.7-12.9-17.8-14-29.1s-.1-10.2 5.4-17.9 8.8-9.6 8-17.9 2.6-8.6 12.5-8.6 15.9 1.8 14 10.3c-.8 3.3-.4 5.7 5.6 13.3s5.6 12 4.9 22c-1.1 14.6-3.4 21.4-10.7 27.1-11.5 9.1-2.1 12.4 4 15.5 16.7 8.5-36.2 8.6-33.3 3.1" style="fill:#9bad9a"></path><path d="M75.7 101.7c.5-4.8 15.7-8.3 3.5-17.8C72 78.2 66.3 66 65.3 54.8s-.1-10.2 5.3-17.9 8.9-9.5 8.1-17.9 2.5-8.6 12.4-8.6S107 12.2 105 20.7c-.8 3.3-.4 5.7 5.6 13.2s5.7 12.1 4.9 22.1c-1.1 14.6-3.4 21.4-10.8 27.1-11.6 9-2.1 12.4 4 15.5 16.8 8.5-35.7 8.6-33 3.1" style="fill:#9aac99"></path><path d="M75.9 101.8c.4-4.9 15.6-8.4 3.4-17.9-7.2-5.7-12.9-18-14-29.2s-.1-10 5.4-17.7 8.9-9.6 8.1-17.9 2.4-8.6 12.3-8.6 15.8 1.7 13.8 10.1c-.8 3.3-.5 5.7 5.6 13.3s5.7 12 4.9 22c-1.1 14.6-3.4 21.5-10.8 27.2-11.7 9-2.2 12.4 3.9 15.5 16.9 8.4-35.2 8.6-32.6 3.2" style="fill:#99ab98"></path><path d="M76 101.8c1.1-4.8 15.7-8.4 3.4-18-7.3-5.6-12.9-18-14-29.2s-.1-9.9 5.3-17.6 9-9.5 8.2-17.9 2.3-8.6 12.2-8.6 15.8 1.7 13.7 10.1c-.8 3.3-.5 5.7 5.6 13.2s5.7 12.1 5 22.1c-1.1 14.6-3.5 21.6-10.9 27.2-11.8 9-2.3 12.4 3.8 15.5 17 8.3-33.7 9-32.3 3.2" style="fill:#98aa97"></path><path d="M76.1 101.8c1.1-4.8 15.8-8.4 3.3-18-7.3-5.6-12.9-18.1-13.9-29.2s-.1-9.8 5.3-17.5 9-9.6 8.1-18 2.3-8.5 12.1-8.5 15.8 1.6 13.7 10c-.9 3.3-.6 5.7 5.6 13.2s5.8 12 5 22c-1.1 14.7-3.4 21.7-10.9 27.3-11.9 9-2.4 12.5 3.7 15.5 17 8.2-33.2 8.9-32 3.2" style="fill:#97a996"></path><path d="M76.3 101.9c.9-5 15.7-8.5 3.2-18.1-7.3-5.6-12.9-18.1-14-29.3s-.1-9.7 5.3-17.4 9.1-9.5 8.2-17.9 2.2-8.5 12-8.5 15.8 1.5 13.6 9.9c-.9 3.2-.6 5.6 5.6 13.1s5.8 12.1 5.1 22.1c-1.1 14.6-3.5 21.7-11 27.3-12 9-2.5 12.5 3.7 15.4 17 8.3-32.8 9-31.7 3.4" style="fill:#96a995"></path><path d="M76.4 101.9c.8-5 15.8-8.5 3.1-18.1-7.3-5.6-12.8-18.2-13.9-29.4s-.1-9.5 5.3-17.2 9.1-9.6 8.2-18 2.1-8.5 11.9-8.5 15.8 1.5 13.5 9.9c-.9 3.2-.6 5.6 5.6 13.1s5.8 12 5.1 22c-1.1 14.7-3.5 21.8-11 27.4-12.2 9-2.6 12.5 3.6 15.4 17.1 8.2-32.3 9-31.4 3.4" style="fill:#95a894"></path><path d="M76.5 101.9c.7-5 15.9-8.5 3.1-18.1-7.4-5.6-12.9-18.3-13.9-29.4s-.1-9.5 5.2-17.2 9.2-9.5 8.3-17.9 2-8.5 11.8-8.5 15.7 1.4 13.4 9.8c-.9 3.1-.7 5.6 5.6 13s5.9 12 5.1 22.1c-1 14.6-3.5 21.9-11 27.4-12.3 9-2.7 12.5 3.5 15.4 17.2 8.1-31.8 9-31.1 3.4" style="fill:#94a793"></path><path d="M76.7 101.9c.5-5 15.8-8.5 2.9-18.2-7.4-5.5-12.8-18.3-13.9-29.4s-.1-9.3 5.3-17 9.2-9.6 8.3-18 1.9-8.5 11.6-8.5 15.8 1.4 13.3 9.8c-.8 3.1-.6 5.5 5.6 13s6 12 5.3 22c-1.1 14.7-3.5 22-11.1 27.5-12.4 9-2.7 12.6 3.4 15.4 17.3 8.1-31.4 9-30.7 3.4" style="fill:#93a692"></path><path d="M76.8 102c.4-5.1 15.9-8.6 2.9-18.3-7.4-5.5-12.9-18.4-13.9-29.5S65.7 45 71 37.3s9.4-9.5 8.4-17.9 1.8-8.5 11.5-8.5 15.7 1.3 13.2 9.7c-.9 3.1-.6 5.5 5.6 12.9s6 12 5.3 22c-1 14.7-3.5 22.1-11.1 27.6-12.5 9-2.8 12.6 3.3 15.4 17.4 8-30.9 9-30.4 3.5" style="fill:#92a591"></path><path d="M76.9 102c.4-5.1 16-8.6 2.9-18.3-7.5-5.5-12.9-18.4-13.9-29.5s-.1-9.2 5.2-16.8 9.4-9.6 8.3-18S81.2 11 90.9 11s15.7 1.2 13.1 9.6c-.9 3-.7 5.4 5.6 12.9s6.1 12 5.4 22c-1.1 14.7-3.6 22.2-11.2 27.5-12.7 9.1-2.9 12.7 3.2 15.5 17.5 7.9-30.4 9-30.1 3.5" style="fill:#91a490"></path><path d="M77.1 102c.2-5.1 16-8.6 2.7-18.3-7.5-5.5-12.8-18.5-13.9-29.6s-.1-9 5.2-16.7 9.5-9.5 8.4-17.9S81.3 11 90.9 11s15.7 1.2 13 9.6c-.9 3-.7 5.4 5.6 12.8s6.1 12 5.4 22c-1 14.7-3.5 22.3-11.2 27.6-12.8 9.1-3 12.7 3.2 15.5 17.5 7.8-30 9-29.8 3.5" style="fill:#90a48f"></path><path d="M77.2 102c.1-5.1 16-8.6 2.7-18.3C72.4 78.2 67 65.1 66 54s-.1-8.9 5.2-16.5 9.5-9.6 8.4-18 1.7-8.4 11.2-8.4c11 0 15.7 1.1 13 9.5-.9 2.9-.8 5.4 5.6 12.8s6.1 12 5.4 22c-1 14.7-3.5 22.3-11.2 27.6-12.9 9.1-3.1 12.7 3.1 15.5 17.6 7.8-29.6 9-29.5 3.5" style="fill:#8fa38e"></path><path d="M77.3 102.1c0-5.3 16.1-8.8 2.6-18.5C72.4 78.2 67.1 65 66.1 54s-.2-8.8 5.1-16.5 9.6-9.5 8.5-18 1.6-8.4 11.1-8.4c11 .1 15.7 1.1 12.9 9.5-.9 2.9-.8 5.3 5.6 12.7s6.2 12 5.5 22c-1.1 14.7-3.6 22.4-11.3 27.7-13 9-3.2 12.8 3 15.5 17.7 7.7-29.1 9-29.2 3.6" style="fill:#8ea28d"></path><path d="M77.5 102.1c-.2-5.3 16.1-8.8 2.5-18.5-7.6-5.4-12.8-18.7-13.9-29.7s-.1-8.7 5.2-16.3 9.6-9.6 8.5-18 1.5-8.4 11-8.4c11 0 15.7 1 12.8 9.4-.9 2.9-.9 5.3 5.6 12.7s6.2 12 5.5 22c-1 14.7-3.6 22.5-11.3 27.7-13.2 9-3.3 12.8 2.9 15.5 17.7 7.6-28.6 9-28.8 3.6" style="fill:#8da18c"></path><path d="M77.6 102.1c-.4-5.3 16.1-8.8 2.4-18.5-7.6-5.4-12.8-18.8-13.8-29.8s-.1-8.5 5.1-16.2 9.7-9.5 8.6-18 1.4-8.3 10.9-8.3 15.6.9 12.7 9.3c-1 2.8-.9 5.3 5.6 12.6s6.2 12 5.5 22c-1 14.7-3.5 22.6-11.3 27.8-13.3 9-3.4 12.8 2.8 15.4 17.8 7.7-28.1 9.1-28.5 3.7" style="fill:#8ca08b"></path><path d="M77.7 102.2c-.5-5.3 16.2-8.9 2.4-18.6-7.6-5.4-12.8-18.8-13.8-29.8s-.2-8.5 5.1-16.1 9.7-9.6 8.5-18 1.4-8.4 10.9-8.4 15.6.9 12.6 9.3c-1 2.8-.9 5.2 5.6 12.6s6.3 12 5.6 22c-1 14.7-3.6 22.6-11.4 27.8-13.4 9-3.4 12.8 2.8 15.4 17.8 7.5-27.8 9.1-28.3 3.8" style="fill:#8ba08a"></path><path d="M77.9 102.2c-.7-5.3 16.2-8.9 2.3-18.6-7.7-5.4-12.8-18.9-13.9-29.9s-.1-8.3 5.1-16 9.8-9.5 8.6-18 1.3-8.3 10.7-8.3 15.7.8 12.6 9.2c-1 2.8-1 5.2 5.6 12.5s6.3 12 5.6 22c-1 14.7-3.6 22.7-11.4 27.9-13.5 9-3.5 12.8 2.7 15.4 17.9 7.5-27.3 9.1-27.9 3.8" style="fill:#8a9f89"></path><path d="M78 102.2c-.8-5.3 16.2-8.9 2.2-18.7-7.7-5.3-12.8-18.9-13.8-29.9s-.1-8.2 5.1-15.8 9.8-9.6 8.6-18 1.2-8.4 10.6-8.4 15.6.9 12.5 9.2c-1 2.7-1 5.2 5.5 12.5s6.4 11.9 5.8 22c-1 14.7-3.7 22.8-11.5 27.9-13.7 9-3.6 12.9 2.6 15.4 18 7.4-26.8 9.2-27.6 3.8" style="fill:#899e88"></path></g><path d="m115.7 51.8-.1-.4zM115.7 51.8l-.1-.4z" class="eb"></path></g><path d="M66.6 130.6h-.9l-.9-.5-.6-.8a2.5 2.5 0 0 1-.3-1.3v-6a3.6 3.6 0 0 1 .2-1.1 2.4 2.4 0 0 1 .6-.8l.8-.6a3.8 3.8 0 0 1 2.1 0l.8.6a1.5 1.5 0 0 1 .6.9 3.6 3.6 0 0 1 .2 1.1v.5a.3.3 0 0 1-.1.2h-1.5a.2.2 0 0 1-.2-.2v-.5a1.9 1.9 0 0 0-.2-.7.9.9 0 0 0-.6-.3c-.4 0-.6.1-.7.3a2 2 0 0 0-.2.9v5.5a1.4 1.4 0 0 0 .2.7c.1.2.3.3.7.3h.2l.3-.2.2-.3a.7.7 0 0 0 .1-.5v-.5h1.8v.7a4.4 4.4 0 0 1-.2 1 1.6 1.6 0 0 1-.6.8l-.8.6zM73.1 130.6l-1-.2-.8-.5a2.2 2.2 0 0 1-.7-.9 3.7 3.7 0 0 1-.2-1.2v-5.7a5 5 0 0 1 .2-1.2l.7-.9a1.9 1.9 0 0 1 .9-.5 3.1 3.1 0 0 1 1.9 0l.9.5.6.9a2.5 2.5 0 0 1 .2 1.2v5.7a2.2 2.2 0 0 1-.2 1.2 3.5 3.5 0 0 1-.6.9l-.9.5zm0-9.5-.6.3a.8.8 0 0 0-.3.7v5.7a1 1 0 0 0 .3.8l.6.2.7-.2a1 1 0 0 0 .3-.8v-5.7a.8.8 0 0 0-.3-.7.9.9 0 0 0-.7-.3M82.9 130.5h-1.5l-2-5.5h-.2v5.4h-1.8v-10.8l.2-.2h1.6l1.9 5.5h.2v-5.6h1.5l.2.2v10.8h-.2M91.7 130.5h-1.6V125h-.2l-1.1 3.5h-1l-1.2-3.5h-.2v5.4h-1.7v-10.8c0-.1 0-.2.1-.2h1.6l1.8 5.2h.2l1.8-5.2h1.5l.2.2v10.8h-.2M98.2 130.5h-4.7v-10.9c0-.1 0-.2.1-.2h4.6c.1 0 .1.1.1.2v1.4h-2.9a.1.1 0 0 0-.1.1v2.9h2.5c.1 0 .1 0 .1.1v1.4c0 .1 0 .2-.1.2h-2.4c-.1 0-.1 0-.1.1v2.7h2.9c.1 0 .1.1.1.2v1.5h-.1M101.8 130.5h-2.2v-10.9c0-.1 0-.2.1-.2h2.2a3.2 3.2 0 0 1 1.4.3l.9.6a4 4 0 0 1 .5.9 4 4 0 0 1 .1 1.1v.4a1.9 1.9 0 0 1-.1.8.8.8 0 0 1-.2.5l-.3.5-.3.2a1.3 1.3 0 0 1 .6.7 2.9 2.9 0 0 1 .3 1.4v.6a2.7 2.7 0 0 1-3 3.1m-.5-1.9h1.3l.3-.3a1.4 1.4 0 0 0 .2-.6v-1.4l-.2-.4c-.1-.2-.2-.3-.4-.3h-1.2Zm0-4.8h.6a1.1 1.1 0 0 0 1-.4 2.5 2.5 0 0 0 .2-1 1.3 1.3 0 0 0-.3-1c-.1-.3-.5-.4-.9-.4h-.6ZM108.7 130.6l-.9-.2a2.6 2.6 0 0 1-.9-.5 1.5 1.5 0 0 1-.6-.9 2.1 2.1 0 0 1-.3-1.2v-5.7a2.7 2.7 0 0 1 .3-1.2 2.4 2.4 0 0 1 .6-.9 2.6 2.6 0 0 1 .9-.5 3.1 3.1 0 0 1 1.9 0l.9.5a2.4 2.4 0 0 1 .6.9 2.7 2.7 0 0 1 .3 1.2v5.7a2.1 2.1 0 0 1-.3 1.2 1.5 1.5 0 0 1-.6.9l-.9.5zm0-9.5a.9.9 0 0 0-.6.3.8.8 0 0 0-.3.7v5.7a1 1 0 0 0 .3.8l.6.2.7-.2a1 1 0 0 0 .3-.8v-5.7a.8.8 0 0 0-.3-.7.9.9 0 0 0-.7-.3M117.4 130.5h-4.7v-11h1.5l.2.2v9h2.9c.1 0 .1.1.1.2v1.5h-.1M122.5 125.9h-3l-.2-.2v-1.4l.2-.2h3l.2.2v1.4zM60.5 125.9h-3l-.2-.2v-1.4l.2-.2h3l.2.2v1.4zM24.1 154.7c-5.3 0-8.6-3.3-8.6-8.7s3.5-8.7 8.7-8.7 8.6 3.4 8.6 8.7-3.3 8.7-8.7 8.7m0-14.3c-3.8 0-4.3 3.5-4.3 5.6s.5 5.7 4.4 5.7 4.4-3.5 4.4-5.7-.6-5.6-4.5-5.6M158 154.7c-5.2 0-8.3-3.2-8.3-8.7s3.2-8.7 8.4-8.7a14.9 14.9 0 0 1 4.8.9l1.9.6-1.1 3-1.5-.4a12.7 12.7 0 0 0-3.7-.7c-3 0-4.5 1.8-4.5 5.3s1.5 5.3 4.5 5.3a12.3 12.3 0 0 0 3.6-.6h.4l-1.4 3.7h-.1l-2.8.3ZM8.3 154.7c-5.2 0-8.3-3.2-8.3-8.7s3.2-8.7 8.3-8.7a16 16 0 0 1 4.9.9l1.3.3-1.1 3.2-.8-.3a16.3 16.3 0 0 0-3.8-.7c-3 0-4.5 1.8-4.5 5.3s1.5 5.3 4.5 5.3a11 11 0 0 0 3.8-.7l.8-.2 1.1 3.1-1.3.4a19 19 0 0 1-4.8.8ZM97.3 154.7a2.1 2.1 0 0 1-2.3-1.5l-2.6-7.7-.8-2.2v11.2H88v-14.7c0-1.6 1.1-2.5 3-2.5a3 3 0 0 1 3.3 2.3l3 9.2 3.2-9.2a2.9 2.9 0 0 1 3.2-2.3c1.9 0 3 .9 3 2.5v14.7h-3.8v-11.3l-.8 2.3-2.6 7.7a2 2 0 0 1-2.2 1.5M175.7 154.5l-1-3h-6.3l-.5 1.6a2 2 0 0 1-2 1.4h-2.8l5.7-15.4a2.7 2.7 0 0 1 2.9-1.8 2.7 2.7 0 0 1 2.8 1.8l5.5 15.4Zm-6.4-6h4.6l-2.3-6.8ZM142.7 137.4h4.2v17.1h-4.2zM135.8 154.5l-2.7-6.1h-3.6v6.1h-4.1v-14.9a2.1 2.1 0 0 1 2.3-2.2h6c3.6 0 5.9 2.2 5.9 5.3a4.8 4.8 0 0 1-2.4 4.4l-.3.2 3.3 7.2Zm-6.3-9.1h3.7a2.6 2.6 0 0 0 2.4-2.7 2.2 2.2 0 0 0-2.4-2.3h-3.7ZM112.3 154.5a2.1 2.1 0 0 1-2.3-2.1v-12.8a2.1 2.1 0 0 1 2.3-2.2h10.3v1.1a2 2 0 0 1-2.1 2h-6.4v3.8h7.4v3h-7.4v4.2h8.5v3ZM82.1 154.5l-1-3h-6.3l-.6 1.6a2 2 0 0 1-2 1.4h-2.7l5.7-15.4a2.7 2.7 0 0 1 2.9-1.8 2.7 2.7 0 0 1 2.8 1.8l5.5 15.4Zm-6.4-6h4.5l-2.2-6.8ZM60.2 154.5l-1.1-3h-6.2l-.6 1.6a2 2 0 0 1-2 1.4h-2.7l5.7-15.4c.4-1.2 1.3-1.8 2.9-1.8a2.7 2.7 0 0 1 2.8 1.8l5.5 15.4Zm-6.4-6h4.5l-2.2-6.8ZM35.3 154.5v-14.9a2.2 2.2 0 0 1 2.4-2.2h5.2c3.6 0 5.9 2.2 5.9 5.6s-2.4 5.5-6.1 5.5h-3.3v6Zm4.1-9h3a2.3 2.3 0 0 0 2.5-2.5c0-1.7-.9-2.5-3-2.5h-2.5Z" class="g"></path><g style="clip-path:url(#g)"><path d="M100.6 84.5 103 83c5.6-3.5 9.4-9.9 11.3-20.4a77.5 77.5 0 0 0 1.2-21.9 6 6 0 0 0-3.9-5.1l-1.2-.5-.6-3.6a2.9 2.9 0 0 0-1.6-2.1c-6.5-3-4.9-8.5-4.3-12.8a2.9 2.9 0 0 0 3.9-2.2l.3-1.3a1.9 1.9 0 0 0-1.3-2.2 60.5 60.5 0 0 0-16.2-2.3 62.3 62.3 0 0 0-15.9 2.2 2.4 2.4 0 0 0-1.6 2.8l.2.8a3 3 0 0 0 3.9 2.2c.5 4.5 1.6 10-3.7 13a4.3 4.3 0 0 0-2.3 3.2l-.5 2.8-1.5.7a5.8 5.8 0 0 0-3.5 5.1c-.5 6.5-.2 12.1 1.9 21.2 2.4 10.6 7.1 16.9 13 21l1.9 1.3c4.6 3.1 1.8 11.8-6.7 13.4a7.8 7.8 0 0 0-5.9 4.3l-3.1 6.2h47.5l-3.4-6.7a6.9 6.9 0 0 0-5.1-3.8C97.2 97 95.4 88 100.6 84.5" style="fill:url(#h)"></path><path d="m100.2 84.5 2.4-1.5c5.2-3.6 9-9.9 10.8-20.3a81.7 81.7 0 0 0 1.1-22 5.9 5.9 0 0 0-3.7-5.1l-1.2-.5-.6-3.5a2.7 2.7 0 0 0-1.5-2.2c-6.2-3.1-4.7-8.5-4-13h.1c1.9.3 3.8-.3 4.2-2.1l.2-1.2a1.9 1.9 0 0 0-1.4-2.2 62 62 0 0 0-16.3-2.3 59.3 59.3 0 0 0-15.5 2.2 2.4 2.4 0 0 0-1.7 2.7l.2.9a3 3 0 0 0 3.9 2.1h.1c.6 4.8 1.6 10.2-3.7 13.1a4.5 4.5 0 0 0-2.4 3.4l-.4 2.7-1.5.7a5.8 5.8 0 0 0-3.5 5.1c-.5 6.6-.2 12.1 1.9 21.2 2.4 10.6 7 16.8 12.9 21l1.9 1.2c4.6 3.2 1.8 11.9-6.7 13.5a8.2 8.2 0 0 0-5.9 4.3l-3 6.2h46.6l-3.3-6.7a6.6 6.6 0 0 0-5-3.7c-8.3-1.6-9.9-10.4-5-14" style="fill:url(#i)"></path><path d="m99.8 84.5 2.3-1.5c5-3.7 8.6-9.9 10.3-20.3a86 86 0 0 0 1.1-22 6.1 6.1 0 0 0-3.5-5.1l-1.2-.5-.5-3.5a3 3 0 0 0-1.5-2.2c-5.8-3.2-4.4-8.5-3.8-13.1h.3c2.1.4 4-.3 4.4-2l.3-1.3a1.9 1.9 0 0 0-1.6-2.1 58.7 58.7 0 0 0-16.3-2.3 62.8 62.8 0 0 0-15.3 2.2 2.2 2.2 0 0 0-1.6 2.7v.8a2.9 2.9 0 0 0 3.9 2h.2c.6 4.9 1.6 10.2-3.7 13.2a4.5 4.5 0 0 0-2.4 3.4l-.4 2.7-1.5.7a5.8 5.8 0 0 0-3.5 5c-.5 6.7-.2 12.3 1.9 21.4s7 16.7 12.9 20.8l1.8 1.3c4.6 3.2 1.8 11.9-6.7 13.5a7.8 7.8 0 0 0-5.8 4.3l-3.1 6.1h45.8l-3.2-6.6a6.8 6.8 0 0 0-4.9-3.7c-7.9-1.5-9.4-10.2-4.7-13.9" style="fill:url(#j)"></path><path d="m99.4 84.5 2.2-1.6c4.7-3.7 8.2-9.7 9.9-20.2a95.3 95.3 0 0 0 1-22 5.9 5.9 0 0 0-3.4-5.1l-1.1-.5-.5-3.5a3 3 0 0 0-1.4-2.3c-5.5-3.2-4.1-8.4-3.6-13.2h.4c2.3.3 4.4-.3 4.7-1.9l.3-1.2c.2-1-.8-1.9-1.7-2.2a61 61 0 0 0-16.3-2.1 58 58 0 0 0-15.1 2.1 2.3 2.3 0 0 0-1.6 2.7l.2.7a2.8 2.8 0 0 0 3.8 2h.3c.7 5.1 1.6 10.4-3.8 13.4a4.8 4.8 0 0 0-2.3 3.4l-.5 2.7-1.4.6a6.2 6.2 0 0 0-3.6 5.1 67.8 67.8 0 0 0 2 21.4c2.4 10.5 6.9 16.6 12.8 20.8l1.8 1.3c4.7 3.2 1.8 11.9-6.7 13.5a8 8 0 0 0-5.8 4.3l-3 6.1h44.9l-3.1-6.6a7 7 0 0 0-4.7-3.7c-7.8-1.6-9.1-10.3-4.7-14" style="fill:url(#k)"></path><path d="m99.1 84.5 2.1-1.6c4.3-3.9 7.8-9.7 9.4-20.1a101.7 101.7 0 0 0 .9-22.1c-.2-2.3-1.4-4.4-3.2-5.1l-1.1-.5-.5-3.4a3.7 3.7 0 0 0-1.2-2.4c-5.2-3.3-3.9-8.4-3.4-13.3h.5c2.5.3 4.6-.2 4.9-1.8l.3-1.2c.2-.9-.9-1.9-1.8-2.1a59 59 0 0 0-16.3-2.2 55.2 55.2 0 0 0-14.8 2.1 2.3 2.3 0 0 0-1.7 2.6l.2.8a3 3 0 0 0 3.9 1.9c0-.1.2-.1.3-.1.7 5.2 1.6 10.4-3.8 13.5a5 5 0 0 0-2.4 3.4l-.4 2.7-1.5.6a6.3 6.3 0 0 0-3.5 5.1 67.8 67.8 0 0 0 2 21.4c2.4 10.5 6.8 16.6 12.7 20.8l1.9 1.3c4.6 3.1 1.7 11.9-6.7 13.5a7.8 7.8 0 0 0-5.8 4.3l-3 6.1h44l-3.1-6.6a6.9 6.9 0 0 0-4.5-3.7c-7.4-1.6-8.6-10.1-4.4-13.9" style="fill:url(#l)"></path><path d="M98.7 84.5a11.6 11.6 0 0 1 2-1.6c4-4 7.4-9.7 8.9-20.1a101.7 101.7 0 0 0 .9-22.1c-.2-2.3-1.3-4.4-3.1-5.1l-1-.5-.5-3.4a3.6 3.6 0 0 0-1.1-2.4c-4.9-3.4-3.7-8.4-3.2-13.5h.6c2.7.3 4.9-.1 5.3-1.7l.2-1.2c.2-.9-1-1.8-1.9-2.1a64.7 64.7 0 0 0-16.3-2 58.5 58.5 0 0 0-14.6 2.1 2.1 2.1 0 0 0-1.6 2.6v.7a2.9 2.9 0 0 0 3.9 1.8h.4c.8 5.5 1.6 10.6-3.8 13.7a4.7 4.7 0 0 0-2.4 3.4l-.4 2.7-1.5.6a6.2 6.2 0 0 0-3.5 5.1A68.4 68.4 0 0 0 68 63c2.4 10.4 6.8 16.4 12.6 20.7l1.9 1.3c4.6 3.1 1.8 11.9-6.7 13.5a8.1 8.1 0 0 0-5.8 4.2l-3 6.1h43.1l-2.9-6.6a6.2 6.2 0 0 0-4.3-3.6 8.4 8.4 0 0 1-4.2-14.1" style="fill:url(#m)"></path><path d="M98.3 84.5a16 16 0 0 1 1.9-1.6c3.7-4.1 7.1-9.6 8.5-20a108.5 108.5 0 0 0 .8-22.2c-.2-2.3-1.3-4.4-2.9-5.1l-1-.5-.4-3.4a3.6 3.6 0 0 0-1.1-2.4c-4.5-3.5-3.4-8.4-3-13.7h.8c2.8.3 5.1-.1 5.5-1.7l.2-1.1c.2-.9-1.1-1.9-2.1-2.1a59.5 59.5 0 0 0-16.2-2 61.7 61.7 0 0 0-14.3 2 2.4 2.4 0 0 0-1.7 2.6l.2.8c.3 1.5 2.1 2.3 3.8 1.7h.5c.8 5.6 1.6 10.6-3.8 13.8a4.7 4.7 0 0 0-2.4 3.4l-.5 2.7-1.4.6a6.2 6.2 0 0 0-3.5 5.1 68.4 68.4 0 0 0 2 21.5c2.3 10.4 6.7 16.4 12.6 20.6l1.8 1.3c4.6 3.2 1.8 12-6.7 13.6a7.8 7.8 0 0 0-5.7 4.2l-3 6.1h42.2l-2.8-6.4a6.2 6.2 0 0 0-4.2-3.7c-6.9-1.9-7.8-10.2-4.1-14.1" style="fill:url(#n)"></path><path d="M98 84.5a6.6 6.6 0 0 1 1.7-1.6c3.5-4.2 6.7-9.6 8.1-20a115 115 0 0 0 .7-22.2c-.2-2.3-1.2-4.4-2.8-5.1l-.9-.5-.4-3.3a3.6 3.6 0 0 0-1-2.5c-4.1-3.6-3.1-8.4-2.8-13.8h1c3 .3 5.4 0 5.7-1.6l.2-1.1c.2-.9-1.2-1.8-2.2-2.1a66 66 0 0 0-16.2-2 60.5 60.5 0 0 0-14.1 2 2.2 2.2 0 0 0-1.6 2.6v.7a2.8 2.8 0 0 0 3.8 1.7h.6c.8 5.7 1.6 10.7-3.8 13.9a5.1 5.1 0 0 0-2.4 3.4l-.4 2.5-1.4.7a6.2 6.2 0 0 0-3.5 5.1 68.4 68.4 0 0 0 2 21.5c2.3 10.4 6.6 16.3 12.5 20.6l1.9 1.3c4.5 3.2 1.7 12-6.8 13.5a8.3 8.3 0 0 0-5.7 4.3l-3 6.1h41.4l-2.7-6.4a6.5 6.5 0 0 0-4.1-3.7c-6.6-1.8-7.3-10-3.8-14" style="fill:url(#o)"></path><path d="M97.6 84.5a6.6 6.6 0 0 1 1.7-1.6c3.1-4.3 6.3-9.6 7.5-20a124 124 0 0 0 .7-22.2c-.2-2.3-1.1-4.4-2.6-5.1l-.9-.5-.4-3.3a4.1 4.1 0 0 0-.8-2.5c-3.9-3.7-2.9-8.4-2.6-14h1c3.2.3 5.7 0 6-1.5l.2-1c.2-.9-1.3-1.9-2.3-2.1a66.8 66.8 0 0 0-16.2-2 59.3 59.3 0 0 0-13.9 2 2.2 2.2 0 0 0-1.6 2.5v.7c.4 1.5 2.1 2.2 3.9 1.7l.6-.2c.9 5.9 1.6 10.8-3.8 14a5.2 5.2 0 0 0-2.4 3.6l-.4 2.5-1.4.7a6 6 0 0 0-3.5 5.1 68.2 68.2 0 0 0 2 21.5c2.3 10.4 6.6 16.3 12.4 20.6l1.9 1.3c4.6 3.1 1.7 12-6.7 13.5a7.9 7.9 0 0 0-5.7 4.3l-3 6h40.5l-2.6-6.4a6.4 6.4 0 0 0-3.9-3.7c-6.4-1.8-6.9-9.8-3.7-13.9" style="fill:url(#p)"></path><path d="M97.2 84.5a6.4 6.4 0 0 1 1.6-1.7c2.8-4.3 5.9-9.4 7.1-19.8a134 134 0 0 0 .6-22.3c-.2-2.3-1-4.4-2.5-5.1l-.8-.5-.4-3.3a4.1 4.1 0 0 0-.7-2.5c-3.5-3.8-2.6-8.4-2.4-14.1a2.3 2.3 0 0 1 1.2-.1c3.4.2 5.9 0 6.2-1.5l.3-1c.1-.9-1.5-1.8-2.5-2.1a68.4 68.4 0 0 0-16.2-1.8 61.8 61.8 0 0 0-13.6 2 2.2 2.2 0 0 0-1.7 2.5l.2.7c.3 1.4 2 2.1 3.8 1.5h.7c.9 6 1.6 10.9-3.9 14.1a5 5 0 0 0-2.4 3.5l-.4 2.5-1.4.6a6.1 6.1 0 0 0-3.5 5.2 69 69 0 0 0 2 21.6C70.8 73.2 75 79 80.9 83.4l1.8 1.3c4.6 3.1 1.7 12-6.7 13.5a7.9 7.9 0 0 0-5.7 4.3l-2.9 6H107l-2.6-6.4a6.1 6.1 0 0 0-3.7-3.7c-6.1-1.8-6.5-9.8-3.5-13.9" style="fill:url(#q)"></path><path d="M96.9 84.5a5.5 5.5 0 0 1 1.4-1.7c2.5-4.4 5.6-9.4 6.6-19.8a133.7 133.7 0 0 0 .6-22.3c-.2-2.3-.9-4.4-2.3-5.1l-.8-.5-.3-3.2a5.4 5.4 0 0 0-.7-2.6c-3.1-3.9-2.4-8.4-2.2-14.3h1.3c3.6.3 6.3.1 6.6-1.4l.2-1c.2-.8-1.6-1.8-2.6-2a66 66 0 0 0-16.2-1.8 56.2 56.2 0 0 0-13.4 1.9 2.1 2.1 0 0 0-1.6 2.5v.6c.3 1.5 2 2.1 3.8 1.5l.8-.2c1 6.3 1.6 11.1-3.9 14.3a5.5 5.5 0 0 0-2.4 3.6l-.4 2.5-1.3.6a6.1 6.1 0 0 0-3.5 5.2 69 69 0 0 0 2 21.6C70.9 73.2 75 79 80.9 83.4l1.9 1.3c4.5 3.1 1.6 12-6.8 13.5a8 8 0 0 0-5.6 4.2l-3 6.1h38.8l-2.5-6.3a6.1 6.1 0 0 0-3.6-3.6c-5.7-2-6-10-3.2-14.1" style="fill:url(#r)"></path><path d="M96.5 84.5a4.6 4.6 0 0 1 1.4-1.7c2.1-4.5 5.1-9.4 6.1-19.7a145.5 145.5 0 0 0 .5-22.4c-.2-2.3-.9-4.4-2.1-5.1l-.8-.5-.3-3.2a5.1 5.1 0 0 0-.6-2.7c-2.7-3.8-2.1-8.3-2-14.4h1.5c3.8.3 6.5.2 6.8-1.3l.2-.9c.2-.9-1.7-1.8-2.7-2a62 62 0 0 0-16.2-1.8 53.2 53.2 0 0 0-13.1 1.9 2.1 2.1 0 0 0-1.7 2.4v.6c.4 1.5 2 2 3.8 1.5l.9-.2c1 6.4 1.6 11.1-3.9 14.4a5.2 5.2 0 0 0-2.4 3.6l-.4 2.5-1.4.6a6.1 6.1 0 0 0-3.4 5.2c-.4 6.7 0 12.5 2 21.6s6.3 16 12.2 20.4l1.9 1.3c4.5 3.2 1.6 12.1-6.8 13.6a8 8 0 0 0-5.6 4.2l-2.9 6.1h37.8l-2.3-6.2a6 6 0 0 0-3.4-3.7c-5.5-2.1-5.6-9.9-3.1-14.1" style="fill:url(#s)"></path><path d="M96.1 84.5c.4-.7.6-1.3 1.3-1.7 1.9-4.6 4.8-9.3 5.7-19.7a157.6 157.6 0 0 0 .4-22.4 7.1 7.1 0 0 0-2-5.1 1.6 1.6 0 0 1-.7-.5l-.3-3.2a5.2 5.2 0 0 0-.5-2.7c-2.4-3.9-1.8-8.3-1.7-14.5a3.5 3.5 0 0 1 1.5-.1c4 .2 6.8.2 7.1-1.3l.2-.9c.2-.8-1.8-1.8-2.8-2a68.7 68.7 0 0 0-16.2-1.6 52 52 0 0 0-12.9 1.9 2.1 2.1 0 0 0-1.7 2.4l.2.6c.3 1.4 1.9 1.9 3.8 1.3l.9-.2c1 6.6 1.6 11.3-3.9 14.6A5.2 5.2 0 0 0 72 33l-.4 2.5-1.4.6a6.1 6.1 0 0 0-3.4 5.2c-.4 6.7 0 12.6 2 21.7S75.1 78.9 81 83.3l1.8 1.3c4.6 3.1 1.6 12.1-6.7 13.6a7.8 7.8 0 0 0-5.6 4.2l-2.9 6h36.9l-2.2-6.2a6.4 6.4 0 0 0-3.3-3.6c-5.2-2.1-5.2-9.9-2.9-14.1" style="fill:url(#t)"></path><path d="M95.7 84.5a4.3 4.3 0 0 1 1.2-1.7c1.6-4.7 4.4-9.3 5.2-19.7a157.5 157.5 0 0 0 .4-22.4 8.3 8.3 0 0 0-1.8-5.1 1.6 1.6 0 0 1-.7-.5l-.3-3.1a7.2 7.2 0 0 0-.3-2.8c-2.1-3.9-1.6-8.3-1.6-14.7a4.4 4.4 0 0 1 1.7-.1c4.1.2 7.1.3 7.3-1.2l.2-.8c.2-.9-1.9-1.8-3-2a63 63 0 0 0-16.1-1.6 56 56 0 0 0-12.7 1.9 2 2 0 0 0-1.6 2.3v.6c.3 1.4 2 1.9 3.8 1.3l1-.2c1.1 6.7 1.6 11.3-3.9 14.7a5.3 5.3 0 0 0-2.5 3.7l-.4 2.4-1.3.6a5.7 5.7 0 0 0-3.4 5.2c-.4 6.7 0 12.6 2 21.7S75.1 78.9 81 83.3l1.8 1.3c4.6 3.1 1.6 12.1-6.7 13.6a8 8 0 0 0-5.6 4.2l-2.9 6h36.1l-2.2-6.2a6.4 6.4 0 0 0-3-3.7c-5-2-4.8-9.8-2.8-14" style="fill:url(#u)"></path><path d="M95.4 84.5c.3-.7.4-1.3 1.1-1.7 1.2-4.8 4-9.3 4.7-19.6a219 219 0 0 0 .3-22.5 8.3 8.3 0 0 0-1.7-5.1 1 1 0 0 1-.6-.5L99 32a9.9 9.9 0 0 0-.3-2.8c-1.7-3.9-1.4-8.3-1.4-14.8l1.9-.2c4.3.3 7.3.4 7.6-1.1v-.8c.2-.8-2.1-1.8-3.1-2a69.2 69.2 0 0 0-16-1.5 60.4 60.4 0 0 0-12.4 1.8 2.2 2.2 0 0 0-1.7 2.4v.6c.4 1.3 2 1.8 3.8 1.2l1.1-.3c1.1 7 1.6 11.5-3.9 14.9a5 5 0 0 0-2.6 3.7l-.4 2.4-1.3.6a5.7 5.7 0 0 0-3.3 5.2c-.4 6.7 0 12.6 2 21.7s6.1 15.8 12 20.3l1.9 1.3c4.5 3.1 1.6 12.1-6.8 13.6a7.4 7.4 0 0 0-5.5 4.2l-2.9 6h35.2l-2.1-6.2a5.7 5.7 0 0 0-2.9-3.6c-4.7-2.2-4.3-9.8-2.5-14.1" style="fill:url(#v)"></path><path d="M95 84.5c.3-.8.4-1.4 1-1.7.9-4.9 3.6-9.3 4.3-19.6s.4-15.7.2-22.5a9.1 9.1 0 0 0-1.5-5.1 1 1 0 0 1-.6-.5l-.2-3.1a18 18 0 0 0-.2-2.8c-2.1-3.6-1.1-8.3-1.1-15l1.9-.2c4.5.3 7.6.4 7.9-1l.2-.8c.1-.8-2.3-1.7-3.3-1.9a71.3 71.3 0 0 0-16.2-1.5 59 59 0 0 0-12.1 1.8 2.1 2.1 0 0 0-1.6 2.4v.5c.3 1.3 1.9 1.7 3.7 1.1l1.2-.2c1.2 7.1 1.7 11.5-4 14.9a6 6 0 0 0-2.6 3.8l-.3 2.4-1.3.6a5.7 5.7 0 0 0-3.4 5.2A72.5 72.5 0 0 0 69 63c2.2 10.1 6.1 15.8 12 20.3l1.8 1.2c4.5 3.2 1.6 12.2-6.8 13.7a7.7 7.7 0 0 0-5.5 4.1l-2.8 6H102l-2-6.1a6.2 6.2 0 0 0-2.8-3.6c-4.2-2.2-3.8-9.8-2.2-14.1" style="fill:url(#w)"></path><path d="M94.6 84.5c.3-.8.3-1.4.9-1.8.6-4.9 3.2-9.1 3.8-19.4s.4-15.8.2-22.6a10 10 0 0 0-1.4-5.1 1 1 0 0 1-.5-.5l-.2-3.1a22 22 0 0 0-.1-2.8c-1.8-3.7-.8-8.3-.9-15.1a4.6 4.6 0 0 1 2.1-.2c4.7.2 7.9.4 8.1-.9l.2-.8c.1-.8-2.4-1.8-3.4-2a67.8 67.8 0 0 0-16.2-1.3 50.7 50.7 0 0 0-11.8 1.7c-1.3.4-1.9 1.3-1.7 2.3v.5c.3 1.3 1.9 1.7 3.8 1.1l1.2-.3c1.2 7.3 1.7 11.7-4 15.1a6 6 0 0 0-2.6 3.8l-.4 2.4-1.2.5a6 6 0 0 0-3.4 5.3c-.4 6.7 0 12.7 2 21.8s6 15.6 11.9 20.1l1.8 1.3c4.6 3.1 1.6 12.2-6.8 13.7a7.6 7.6 0 0 0-5.4 4.1l-2.9 6h33.5l-1.9-6.1a6.9 6.9 0 0 0-2.6-3.6c-4-2.3-3.4-9.8-2.1-14.1" style="fill:url(#x)"></path><path d="M94.3 84.5c.2-.8.2-1.4.7-1.8.4-5 2.9-9.1 3.4-19.4s.3-15.8.1-22.6a11.5 11.5 0 0 0-1.2-5.1 1 1 0 0 1-.5-.5l-.2-3c.1-1.2.1-2.3.1-2.9-1.5-3.7-.6-8.3-.8-15.3l2.2-.2c4.9.2 8.2.5 8.4-.8l.2-.8c.1-.8-2.5-1.7-3.5-1.9A68.3 68.3 0 0 0 87 8.9a55.6 55.6 0 0 0-11.6 1.7 2.1 2.1 0 0 0-1.7 2.3v.5c.4 1.2 1.9 1.6 3.8 1l1.3-.3c1.2 7.4 1.7 11.7-4 15.2a5.4 5.4 0 0 0-2.6 3.8l-.4 2.3-1.3.6a6.4 6.4 0 0 0-3.4 5.3 77.4 77.4 0 0 0 2.1 21.8c2.2 10 5.9 15.6 11.8 20.1l2 1.3c4.5 3.1 1.5 12.2-6.8 13.7a7.5 7.5 0 0 0-5.5 4.1l-2.8 6h32.6l-1.8-6a6.7 6.7 0 0 0-2.5-3.7c-3.8-2.3-3.1-9.8-1.9-14.1" style="fill:url(#y)"></path><path d="M93.9 84.5c.2-.8.1-1.4.7-1.8 0-5.1 2.4-9.1 2.8-19.3s.3-15.9.1-22.7a13.7 13.7 0 0 0-1-5.1c-.5-.2-.5-.5-.5-.5v-3a25 25 0 0 1 .1-3c-1.2-3.7-.3-8.2-.6-15.4l2.4-.2c5.1.3 8.4.6 8.6-.7l.2-.7c.2-.8-2.6-1.8-3.6-2a70 70 0 0 0-16.3-1.2 54.3 54.3 0 0 0-11.4 1.7 1.9 1.9 0 0 0-1.6 2.2v.5c.3 1.2 1.8 1.6 3.7 1l1.4-.4c1.3 7.6 1.7 11.9-4 15.4a5.8 5.8 0 0 0-2.7 3.8l-.2 2.3-1.3.6a6.4 6.4 0 0 0-3.4 5.3 77.4 77.4 0 0 0 2.1 21.8c2.1 10 5.9 15.5 11.8 20.1l1.8 1.3c4.5 3.1 1.5 12.2-6.8 13.7a7.1 7.1 0 0 0-5.4 4.1l-2.8 5.9 16.1.2h15.5l-1.7-6a7.3 7.3 0 0 0-2.2-3.7c-3.6-2.4-2.8-9.9-1.8-14.2" style="fill:url(#z)"></path><path d="M93.5 84.5c.2-.9.1-1.5.6-1.8-.3-5.2 2.1-9 2.4-19.3s.2-15.8 0-22.8a17.2 17.2 0 0 0-.9-5 .6.6 0 0 1-.4-.5v-3a22 22 0 0 1 .2-3c-.9-3.7-.1-8.2-.3-15.5a9 9 0 0 1 2.5-.2c5.2.2 8.7.6 8.9-.7V12c.2-.8-2.7-1.7-3.7-1.9a70.4 70.4 0 0 0-16.2-1.2 50.8 50.8 0 0 0-11.1 1.7 2.1 2.1 0 0 0-1.7 2.2v.5c.3 1.1 1.8 1.4 3.7.8l1.5-.3c1.3 7.8 1.7 11.9-4 15.5a5.8 5.8 0 0 0-2.7 3.9l-.3 2.2-1.3.6a6.2 6.2 0 0 0-3.4 5.3 78.1 78.1 0 0 0 2.1 21.9c2.1 9.9 5.8 15.4 11.7 20l1.9 1.3c4.5 3.1 1.5 12.2-6.8 13.7a7.5 7.5 0 0 0-5.4 4.1l-2.8 5.9h30.8l-1.6-5.9a7.1 7.1 0 0 0-2.1-3.6c-3.3-2.5-2.3-9.9-1.6-14.2" style="fill:url(#aa)"></path><path d="M93.1 84.5c.2-.9 0-1.5.5-1.8-.6-5.3 1.7-9 2-19.3s0-15.8-.1-22.8a23.7 23.7 0 0 0-.7-5 .6.6 0 0 1-.4-.5v-2.9c.1-1.3.2-2.4.3-3.1-.6-3.8.2-8.2-.1-15.7a9.8 9.8 0 0 1 2.6-.2c5.5.2 9 .7 9.2-.6v-.7c.2-.7-2.8-1.7-3.9-1.8a70 70 0 0 0-16.1-1.2 49.6 49.6 0 0 0-10.9 1.7 1.9 1.9 0 0 0-1.6 2.2v.4c.2 1.1 1.8 1.4 3.7.8l1.5-.4c1.4 8 1.7 12.1-4 15.7a5.5 5.5 0 0 0-2.7 3.9l-.4 2.2-1.2.6a6.2 6.2 0 0 0-3.4 5.3 78.1 78.1 0 0 0 2.1 21.9c2.1 9.9 5.7 15.3 11.6 19.9l1.9 1.3c4.5 3.1 1.5 12.3-6.8 13.8a7.2 7.2 0 0 0-5.3 4.1l-2.8 5.9H98l-1.5-5.9a8.1 8.1 0 0 0-2-3.6c-2.9-2.5-1.9-9.9-1.4-14.2" style="fill:url(#ab)"></path><path d="M92.8 84.5c.1-.9-.1-1.5.4-1.8-1-5.4 1.3-9 1.4-19.2s0-15.9-.2-22.9a20.2 20.2 0 0 0-.5-5 .4.4 0 0 1-.2-.5v-2.9a12.4 12.4 0 0 1 .3-3.1c-.3-3.8.5-8.2.1-15.8a11 11 0 0 1 2.8-.3c5.6.3 9.2.7 9.4-.5l.2-.6c.1-.8-3-1.7-4.1-1.9a71.4 71.4 0 0 0-16.2-1.1 46.3 46.3 0 0 0-10.6 1.7c-1.3.3-1.9 1.2-1.7 2.1v.4c.3 1.1 1.8 1.4 3.7.8l1.6-.4c1.4 8.1 1.7 12.2-4.1 15.8a5.8 5.8 0 0 0-2.7 3.9l-.3 2.2-1.1.6a5.9 5.9 0 0 0-3.4 5.3 77.8 77.8 0 0 0 2.1 21.9c2.1 9.9 5.7 15.3 11.6 19.9l1.8 1.3c4.5 3.1 1.4 12.3-6.8 13.8a7.4 7.4 0 0 0-5.4 4l-2.7 5.9 14.8.2h14.2l-1.4-5.9a8.1 8.1 0 0 0-1.8-3.6c-2.7-2.6-1.6-10-1.2-14.3" style="fill:url(#ac)"></path><path d="M92.4 84.4c0-.9-.2-1.5.3-1.8-1.2-5.4.9-8.8 1-19.1s-.1-15.9-.3-22.9a49 49 0 0 0-.3-5c-.4-.2-.2-.5-.2-.5v-2.9a12.5 12.5 0 0 1 .5-3.1c.6-3.8.7-8.2.3-16a11.4 11.4 0 0 1 2.8-.2c5.8.2 9.6.7 9.7-.5l.2-.6c.1-.8-3.1-1.7-4.2-1.8A71.8 71.8 0 0 0 86 8.9a60.3 60.3 0 0 0-10.4 1.6 2.2 2.2 0 0 0-1.7 2.2v.4c.3 1 1.8 1.2 3.7.6l1.7-.4c1.4 8.3 1.7 12.3-4.1 15.9a6.2 6.2 0 0 0-2.7 4l-.3 2.2-1.2.6a5.9 5.9 0 0 0-3.4 5.3 77.5 77.5 0 0 0 2.1 21.9c2.1 9.9 5.6 15.2 11.5 19.9l1.8 1.3c4.5 3.1 1.5 12.3-6.8 13.8a7.3 7.3 0 0 0-5.3 4l-2.8 5.9 14.5.2h13.8l-1.4-5.9a8.1 8.1 0 0 0-1.6-3.6c-2.4-2.7-1.2-10-1-14.4" style="fill:url(#ad)"></path><path d="M92 84.4c0-.9-.2-1.5.2-1.8-1.5-5.5.6-8.8.6-19s-.2-16-.4-23c0-2.1-.1-4-.2-5s-.1-.5-.1-.5v-2.8a18.4 18.4 0 0 1 .6-3.2c.9-3.8 1-8.2.5-16.2a12.8 12.8 0 0 1 3-.2c6 .2 9.8.8 10-.4v-.6c.1-.7-3.2-1.6-4.3-1.8A68 68 0 0 0 85.8 9a52 52 0 0 0-10.2 1.5c-1.2.4-1.8 1.2-1.6 2.1v.4c.2 1.1 1.7 1.2 3.6.6l1.8-.4c1.5 8.5 1.7 12.4-4.1 16a5.9 5.9 0 0 0-2.7 4l-.4 2.2-1.1.5a6.1 6.1 0 0 0-3.4 5.4 78.4 78.4 0 0 0 2.1 22c2.1 9.8 5.5 15.1 11.4 19.8l1.8 1.3c4.5 3.1 1.5 12.3-6.8 13.8a7.3 7.3 0 0 0-5.3 4l-2.7 5.9h27.4l-1.3-5.7a9.2 9.2 0 0 0-1.5-3.7c-2.1-2.6-.8-9.9-.8-14.3" style="fill:url(#ae)"></path><path d="M91.7 84.4c-.1-.9-.3-1.5.1-1.8-1.9-5.6.1-8.8 0-19s-.2-16-.4-23v-5c-.3-.1-.1-.5-.1-.5v-2.8a17.3 17.3 0 0 1 .7-3.2c1.2-3.9 1.2-8.2.7-16.3a14 14 0 0 1 3.2-.3c6.1.2 10 .9 10.2-.3v-.5c.1-.8-3.4-1.7-4.4-1.8A68.2 68.2 0 0 0 85.6 9a48.3 48.3 0 0 0-9.9 1.5 2 2 0 0 0-1.7 2.1v.3c.3 1.1 1.7 1.2 3.7.6l1.8-.5c1.5 8.7 1.7 12.5-4.1 16.2a6.3 6.3 0 0 0-2.8 4l-.3 2.2-1.2.5a6 6 0 0 0-3.3 5.4 78.4 78.4 0 0 0 2.1 22c2 9.8 5.5 15 11.4 19.8l1.8 1.3c4.4 3.1 1.4 12.3-6.9 13.8a7.1 7.1 0 0 0-5.2 4l-2.7 5.8 13.7.2h12.8l-1.2-5.7a9.8 9.8 0 0 0-1.3-3.6c-1.8-2.8-.5-10.1-.6-14.5" style="fill:url(#af)"></path><path d="M91.3 84.4c-.1-1-.4-1.6 0-1.8-2.2-5.7-.3-8.8-.4-19s-.4-16-.5-23a33.4 33.4 0 0 1 .2-5c-.3-.1-.1-.5-.1-.5v-2.8a8.9 8.9 0 0 1 .7-3.2c1.4-3.9 1.5-8.2.9-16.5a25 25 0 0 1 3.3-.3c6.4.3 10.4 1 10.5-.2v-.5c.1-.7-3.5-1.6-4.5-1.8a74.8 74.8 0 0 0-16-.8 47 47 0 0 0-9.7 1.5 2 2 0 0 0-1.7 2.1v.3c.3 1 1.7 1.1 3.7.5l1.9-.5c1.6 8.8 1.7 12.6-4.1 16.3a6 6 0 0 0-2.8 4.1l-.3 2.1-1.2.5a6 6 0 0 0-3.2 5.4 81.5 81.5 0 0 0 2 22c2.1 9.8 5.5 15 11.4 19.7l1.8 1.3c4.5 3.1 1.4 12.4-6.8 13.9a7.3 7.3 0 0 0-5.3 4l-2.7 5.8 13.2.2h12.3l-1-5.7a13.6 13.6 0 0 0-1.2-3.6c-1.5-2.9-.1-10.1-.4-14.5" style="fill:url(#ag)"></path><path d="M90.9 84.4c-.1-1-.4-1.6-.1-1.8-2.5-5.8-.6-8.7-.9-18.9s-.4-16.1-.5-23.1a31 31 0 0 1 .3-5c-.3-.1 0-.5 0-.5v-2.7a9.9 9.9 0 0 1 .9-3.4c1.6-3.8 1.7-8.1 1.1-16.5a10.9 10.9 0 0 1 3.4-.3c6.5.2 10.6 1 10.7-.2v-.4c.2-.8-3.6-1.7-4.6-1.8a69.8 69.8 0 0 0-16-.8 54 54 0 0 0-9.5 1.5 1.9 1.9 0 0 0-1.6 2v.3c.2 1 1.6 1 3.6.4l2.1-.5c1.5 9 1.6 12.7-4.2 16.5a5.7 5.7 0 0 0-2.8 4.1l-.3 2.1-1.2.5a6 6 0 0 0-3.3 5.4 82.5 82.5 0 0 0 2 22.1c2.1 9.7 5.4 14.8 11.3 19.6l1.8 1.3c4.5 3.1 1.4 12.4-6.8 13.8a7.3 7.3 0 0 0-5.2 4l-2.6 5.9 12.8.2h11.8l-.9-5.7a24.4 24.4 0 0 0-1-3.6c-1.3-2.9.2-10.1-.3-14.5" style="fill:url(#ah)"></path><path d="M90.6 84.4c-.2-1-.6-1.6-.3-1.8-2.7-5.9-1-8.7-1.3-18.9s-.5-16.1-.6-23.1a20.2 20.2 0 0 1 .5-5c-.3-.1 0-.5 0-.5v-2.7a9.8 9.8 0 0 1 1-3.4c1.9-3.9 2-8.1 1.3-16.7a16.2 16.2 0 0 1 3.5-.3c6.8.2 10.9 1 11.1-.1v-.4c.2-.7-3.7-1.6-4.8-1.8A75.2 75.2 0 0 0 85 9a49.5 49.5 0 0 0-9.2 1.5c-1.2.3-1.8 1.1-1.7 2v.3c.3.9 1.7.9 3.6.3l2.2-.5c1.6 9.1 1.6 12.8-4.3 16.6a6.3 6.3 0 0 0-2.8 4.1l-.3 2-1.1.6a5.9 5.9 0 0 0-3.3 5.4c-.4 6.8.1 13 2 22.1S75.6 78.2 81.5 83l1.7 1.3c4.5 3.1 1.4 12.4-6.8 13.8a7.1 7.1 0 0 0-5.2 4l-2.7 5.9h23.8l-.9-5.6a18 18 0 0 0-.8-3.6c-1-2.8.6-9.9 0-14.4" style="fill:url(#ai)"></path><path d="M90.2 84.4c-.2-1-.6-1.7-.3-1.9-3.1-5.9-1.4-8.6-1.8-18.7s-.6-16.2-.7-23.2a15.7 15.7 0 0 1 .6-5c-.2-.1.1-.5.1-.5v-2.7a8.5 8.5 0 0 1 1.1-3.4c2.1-3.9 2.2-8.1 1.5-16.8a17.3 17.3 0 0 1 3.7-.4c6.9.2 11.2 1.1 11.3.1v-.5c.1-.7-3.9-1.6-5-1.7a75.5 75.5 0 0 0-16-.7 46.7 46.7 0 0 0-9 1.5c-1.2.3-1.8 1.1-1.6 1.9v.3c.3.9 1.7.9 3.7.3l2.2-.6c1.6 9.4 1.6 12.9-4.3 16.8a6 6 0 0 0-2.7 4.1l-.3 2-1.1.6a5.9 5.9 0 0 0-3.3 5.4c-.4 6.8.1 13 2 22.1S75.6 78.1 81.5 83l1.8 1.3c4.4 3.1 1.3 12.4-6.9 13.8a7.1 7.1 0 0 0-5.1 4l-2.7 5.8 11.9.2h11l-.8-5.5A29 29 0 0 0 90 99c-.7-3.1 1-10.1.2-14.6" style="fill:url(#aj)"></path><path d="M89.8 84.4c-.2-1.1-.7-1.7-.4-1.9-3.4-6.1-1.8-8.5-2.3-18.7s-.6-16.1-.7-23.2a13.4 13.4 0 0 1 .8-5c-.2-.1.1-.5.1-.5v-2.6a8.5 8.5 0 0 1 1.2-3.5c2.4-4 2.5-8.1 1.8-17a14 14 0 0 1 3.8-.3c7.1.2 11.4 1.1 11.5.1v-.4c.1-.7-4-1.6-5.1-1.7a70.6 70.6 0 0 0-16-.7 42.8 42.8 0 0 0-8.6 1.5c-1.3.3-1.8 1.1-1.7 1.9v.2c.2.9 1.6.9 3.6.2l2.3-.5c1.6 9.5 1.6 13-4.3 16.8a6.1 6.1 0 0 0-2.8 4.2l-.3 2-1.1.5a6.1 6.1 0 0 0-3.3 5.5c-.4 6.8.1 13.1 2 22.1S75.6 78.1 81.5 83l1.8 1.2c4.5 3.1 1.3 12.5-6.8 13.9a7.1 7.1 0 0 0-5.2 4l-2.6 5.8 11.5.2h10.5l-.7-5.5-.5-3.6c-.5-3.1 1.3-10.1.3-14.6" style="fill:url(#ak)"></path><path d="M89.4 84.4c-.3-1.1-.7-1.7-.5-1.9-3.7-6.2-2.1-8.5-2.7-18.7s-.8-16.1-.8-23.2a11.5 11.5 0 0 1 .9-5c-.2-.1.2-.5.2-.5v-2.6a7.3 7.3 0 0 1 1.3-3.5c2.7-4 2.8-8.1 2-17.2a20.6 20.6 0 0 1 3.9-.3c7.3.2 11.7 1.2 11.8.2v-.4c.1-.7-4.1-1.6-5.2-1.7a71.2 71.2 0 0 0-16.1-.5 45 45 0 0 0-8.4 1.3c-1.2.4-1.8 1.2-1.7 1.9v.3c.2.8 1.6.7 3.6.1l2.4-.6c1.7 9.7 1.6 13.1-4.3 17a6.5 6.5 0 0 0-2.9 4.3l-.3 1.9-1.1.5a6 6 0 0 0-3.2 5.4c-.4 6.9.1 13.2 2 22.3S75.7 78 81.6 82.9l1.7 1.3c4.5 3.1 1.4 12.5-6.8 13.9a6.8 6.8 0 0 0-5.1 4l-2.7 5.8 11.1.2h10.1l-.6-5.5c-.2-1.5-.3-2.7-.4-3.6-.1-3.1 1.7-10.1.5-14.6" style="fill:url(#al)"></path><path d="M89.1 84.4c-.4-1.1-.9-1.7-.6-1.9-4.1-6.3-2.6-8.5-3.2-18.6s-.9-16.2-.9-23.3a10 10 0 0 1 1.1-5c-.2-.1.2-.5.2-.5v-2.6a6.5 6.5 0 0 1 1.5-3.5c2.9-4.1 3-8.1 2.1-17.3a22 22 0 0 1 4.1-.4c7.5.2 12 1.3 12 .3v-.3c.1-.7-4.2-1.6-5.3-1.7A66.2 66.2 0 0 0 84 9.1a54 54 0 0 0-8.2 1.3c-1.2.4-1.7 1.1-1.6 1.9v.2c.3.8 1.6.7 3.6.1l2.5-.6c1.7 9.8 1.6 13.2-4.3 17.1a6.5 6.5 0 0 0-2.9 4.3l-.3 1.9-1.1.5a6 6 0 0 0-3.2 5.4c-.4 6.9.1 13.2 2 22.3s5.1 14.5 11 19.4a18 18 0 0 0 1.8 1.3c4.4 3.1 1.3 12.5-6.9 13.9a7.2 7.2 0 0 0-5.1 3.9l-2.6 5.8 10.7.2H89l-.5-5.4a23 23 0 0 1-.1-3.6c.1-3.2 2-10 .7-14.6" style="fill:url(#am)"></path><path d="M88.7 84.4c-.4-1.1-.9-1.8-.7-1.9-4.3-6.4-3-8.4-3.7-18.6s-.9-16.2-.9-23.3a9.9 9.9 0 0 1 1.3-5c-.2-.1.2-.5.2-.5v-2.5a7.4 7.4 0 0 1 1.6-3.6c3.1-4.1 3.3-8.1 2.3-17.5a17.2 17.2 0 0 1 4.2-.3c7.7.1 12.3 1.3 12.4.3v-.3c.1-.7-4.3-1.6-5.4-1.7a72 72 0 0 0-16.1-.4 49 49 0 0 0-7.9 1.3c-1.2.3-1.8 1.1-1.7 1.9v.2c.2.7 1.5.6 3.5 0l2.6-.6c1.8 10 1.6 13.3-4.3 17.2a6.2 6.2 0 0 0-2.9 4.3l-.2 1.9-1.1.5a6 6 0 0 0-3.3 5.4c-.3 6.9.3 13.3 2.1 22.3s5 14.5 10.9 19.4l1.8 1.3c4.4 3.1 1.3 12.5-6.9 13.9a6.9 6.9 0 0 0-5 3.9l-2.6 5.8 10.2.2h9.1l-.4-5.4a21.4 21.4 0 0 1 0-3.6c.4-3.2 2.4-10 .9-14.6" style="fill:url(#an)"></path><path d="M88.3 84.4c-.4-1.2-1-1.8-.8-1.9-4.6-6.5-3.3-8.4-4.1-18.5s-1-16.3-1-23.4a9 9 0 0 1 1.4-5c-.1-.1.3-.5.3-.5l.2-2.5a6.5 6.5 0 0 1 1.5-3.7c3.4-4.1 3.5-8 2.6-17.5a13.3 13.3 0 0 1 4.3-.4c7.8.2 12.5 1.4 12.6.4v-.3c.1-.6-4.4-1.5-5.5-1.6a72 72 0 0 0-16.1-.4 47.5 47.5 0 0 0-7.7 1.3c-1.2.3-1.7 1.1-1.6 1.8v.2c.2.7 1.5.5 3.6-.1l2.6-.6c1.8 10.2 1.6 13.4-4.4 17.4a6.5 6.5 0 0 0-2.9 4.3l-.3 1.9-1 .5a6 6 0 0 0-3.3 5.4c-.3 6.9.3 13.3 2.1 22.4s5 14.3 10.9 19.3l1.7 1.3c4.4 3 1.3 12.5-6.8 13.9a7.1 7.1 0 0 0-5.1 3.9l-2.6 5.8 9.9.2h8.6l-.3-5.4a19 19 0 0 1 .1-3.5c.7-3.3 2.8-10.1 1.1-14.7" style="fill:url(#ao)"></path><path d="M88 84.4c-.5-1.2-1.1-1.8-.9-1.9-5-6.6-3.8-8.4-4.7-18.5a228 228 0 0 1-1-23.4 8.3 8.3 0 0 1 1.6-5c-.2-.1.3-.5.3-.5l.2-2.5a6.9 6.9 0 0 1 1.6-3.7c3.7-4.2 3.8-8 2.8-17.7a25.5 25.5 0 0 1 4.4-.4c8.1.2 12.9 1.4 12.9.5v-.2c0-.7-4.6-1.6-5.7-1.7a72.4 72.4 0 0 0-16.1-.3 42.6 42.6 0 0 0-7.4 1.3c-1.3.3-1.8 1-1.7 1.8.3.7 1.6.5 3.6-.1l2.7-.6C82.4 21.8 82.2 25 76.2 29a6.5 6.5 0 0 0-2.9 4.3l-.3 1.9-1 .5a6 6 0 0 0-3.3 5.4c-.3 6.9.3 13.3 2.1 22.4s4.9 14.3 10.8 19.2l1.8 1.3c4.4 3.1 1.2 12.6-6.9 14a6.9 6.9 0 0 0-5 3.9l-2.5 5.8 9.4.3h8.2l-.2-5.3a9.7 9.7 0 0 1 .3-3.6c.9-3.4 3.1-10 1.3-14.7" style="fill:url(#ap)"></path><path d="M87.6 84.4c-.5-1.2-1.2-1.9-1-2-5.3-6.6-4.2-8.2-5.1-18.4a205 205 0 0 1-1.1-23.4 8.3 8.3 0 0 1 1.7-5c-.1-.1.4-.5.4-.5l.2-2.4a7.1 7.1 0 0 1 1.8-3.8c3.9-4.2 4-8 2.9-17.9a27 27 0 0 1 4.6-.4c8.2.2 13.1 1.5 13.1.6V11c.1-.6-4.8-1.5-5.9-1.6a66 66 0 0 0-16-.3 41.4 41.4 0 0 0-7.2 1.3c-1.2.3-1.7 1-1.7 1.7v.2c.2.7 1.5.4 3.5-.2l2.8-.7c1.9 10.5 1.6 13.6-4.4 17.7a6.5 6.5 0 0 0-2.9 4.3l-.3 1.9-1 .5a5.9 5.9 0 0 0-3.3 5.4c-.3 6.9.3 13.3 2.1 22.4s4.8 14.2 10.7 19.2l1.8 1.3c4.4 3.1 1.2 12.6-6.9 14a6.8 6.8 0 0 0-5 3.9l-2.5 5.7 8.9.2h7.8v-5.2a9.7 9.7 0 0 1 .4-3.6c1.3-3.4 3.6-10 1.6-14.7" style="fill:url(#aq)"></path><path d="M87.2 84.4c-.5-1.2-1.2-1.9-1.1-2-5.6-6.7-4.5-8.2-5.5-18.3a189 189 0 0 1-1.2-23.5 7.3 7.3 0 0 1 1.9-5c-.1 0 .4-.5.4-.5l.2-2.4a6.6 6.6 0 0 1 1.9-3.8c4.2-4.3 4.3-8 3.1-18a21.5 21.5 0 0 1 4.8-.4c8.4.1 13.3 1.5 13.4.6.1-.7-4.9-1.5-6-1.7a71.6 71.6 0 0 0-16-.2 53 53 0 0 0-7 1.3c-1.2.3-1.7 1-1.6 1.7.2.7 1.5.4 3.5-.3l2.9-.6C82.8 21.9 82.5 25 76.5 29a6.7 6.7 0 0 0-3 4.5l-.2 1.8-1.1.4a6.2 6.2 0 0 0-3.2 5.5c-.3 6.9.3 13.4 2.1 22.4s4.8 14.2 10.7 19.2l1.7 1.3c4.4 3.1 1.2 12.6-6.9 14a6.6 6.6 0 0 0-4.9 3.8l-2.6 5.8 8.6.2H85v-5.2a9.7 9.7 0 0 1 .6-3.6c1.4-3.4 3.8-10 1.6-14.7" style="fill:url(#ar)"></path><path d="M86.8 84.4c-.6-1.2-1.2-1.9-1.2-2-5.8-6.8-4.9-8.2-6-18.3a189 189 0 0 1-1.2-23.5 7.4 7.4 0 0 1 2-5l.5-.5.3-2.4a6 6 0 0 1 1.9-3.8c4.5-4.4 4.5-8 3.4-18.2a28.7 28.7 0 0 1 4.8-.4c8.6.2 13.7 1.6 13.7.7.1-.6-5-1.5-6.1-1.6a61.3 61.3 0 0 0-16-.1 37.6 37.6 0 0 0-6.7 1.2c-1.3.3-1.8 1-1.7 1.7.2.7 1.5.3 3.6-.3l2.9-.7C83 22 82.6 24.9 76.6 29a6.7 6.7 0 0 0-3 4.5l-.3 1.8-1 .4a6.1 6.1 0 0 0-3.2 5.5c-.3 6.9.3 13.4 2.1 22.5s4.7 14 10.6 19.1l1.7 1.3c4.4 3 1.2 12.6-6.9 14a7 7 0 0 0-4.9 3.8l-2.5 5.7 8.1.3h6.9v-5.2a7.5 7.5 0 0 1 .8-3.5c1.7-3.6 4.2-10 1.8-14.8" style="fill:url(#as)"></path><path d="M86.5 84.4c-.7-1.3-1.4-2-1.3-2-6.2-6.9-5.3-8.2-6.5-18.2a159 159 0 0 1-1.3-23.6 7.1 7.1 0 0 1 2.2-5l.5-.5.3-2.3a6.7 6.7 0 0 1 2-3.9c4.8-4.4 4.8-8 3.6-18.3a22 22 0 0 1 5-.5c8.8.2 13.9 1.7 13.9.8.1-.6-5.1-1.4-6.2-1.5a61.3 61.3 0 0 0-16-.1 36.4 36.4 0 0 0-6.5 1.2c-1.2.3-1.7.9-1.6 1.6.2.6 1.4.2 3.5-.4l3-.7c2 11 1.6 13.9-4.5 18a6.9 6.9 0 0 0-2.9 4.5l-.3 1.7-1 .5a6.1 6.1 0 0 0-3.2 5.5c-.3 6.9.3 13.4 2.1 22.5s4.6 14 10.5 19.1l1.8 1.3c4.4 3 1.2 12.6-6.9 14a6.6 6.6 0 0 0-4.9 3.8l-2.5 5.7 7.7.3h6.3l.2-5.2a9.5 9.5 0 0 1 .9-3.5c2-3.6 4.6-10 2.1-14.8" style="fill:url(#at)"></path><path d="M86.1 84.4a9.3 9.3 0 0 0-1.4-2c-6.5-7-5.7-8.1-6.9-18.2a148 148 0 0 1-1.4-23.6 6.7 6.7 0 0 1 2.4-5l.5-.5.3-2.3a6.3 6.3 0 0 1 2.1-3.9c5.1-4.5 5.1-8 3.8-18.5a24.5 24.5 0 0 1 5.1-.4c9 .1 14.2 1.7 14.2.8.1-.6-5.2-1.5-6.3-1.6-6.9-.6-9.8-.7-16 0a46 46 0 0 0-6.2 1.1c-1.3.4-1.8 1-1.7 1.7.2.6 1.4.2 3.5-.5l3.1-.7c2 11.2 1.6 14-4.5 18.2a7 7 0 0 0-3 4.5l-.2 1.7-1 .5a6.1 6.1 0 0 0-3.2 5.5 89.6 89.6 0 0 0 2.1 22.5c1.9 9.3 4.5 13.9 10.5 19l1.7 1.3c4.4 3.1 1.2 12.7-6.9 14.1a6.6 6.6 0 0 0-4.9 3.8l-2.5 5.7 7.3.2h5.9l.3-5.1a6.9 6.9 0 0 1 1.1-3.5c2.3-3.6 4.9-9.9 2.2-14.8" style="fill:url(#au)"></path><path d="M85.7 84.4a7.7 7.7 0 0 0-1.5-2c-6.8-7.1-6-8.1-7.4-18.2a137 137 0 0 1-1.4-23.6 6.8 6.8 0 0 1 2.5-5l.6-.5.3-2.3a6.5 6.5 0 0 1 2.3-3.9c5.2-4.6 5.3-8 4-18.7a33 33 0 0 1 5.2-.4c9.2.2 14.4 1.7 14.4.9h.1c0-.6-5.4-1.4-6.5-1.5-7-.6-9.9-.7-16 0a44 44 0 0 0-6 1.1c-1.2.3-1.7 1-1.7 1.6.2.5 1.4.1 3.5-.6l3.2-.7C83.4 22 82.9 24.8 76.8 29a6.7 6.7 0 0 0-3 4.5l-.3 1.7-.9.5a6 6 0 0 0-3.2 5.5 89.6 89.6 0 0 0 2.1 22.5c1.9 9.3 4.5 13.9 10.4 19l1.7 1.3c4.4 3.1 1.2 12.7-6.9 14.1a6.6 6.6 0 0 0-4.8 3.8l-2.5 5.6 6.9.3h5.4l.4-5a7.4 7.4 0 0 1 1.2-3.6c2.6-3.7 5.3-9.9 2.4-14.8" style="fill:url(#av)"></path><path d="M85.4 84.4a12.5 12.5 0 0 0-1.6-2.1c-7.2-7.1-6.5-8-7.9-18a129.5 129.5 0 0 1-1.5-23.7 6.7 6.7 0 0 1 2.7-5l.6-.5.4-2.2a6.3 6.3 0 0 1 2.3-4.1c5.5-4.6 5.6-7.9 4.2-18.7a25.4 25.4 0 0 1 5.4-.5c9.3.2 14.7 1.8 14.7 1.1 0-.6-5.5-1.5-6.6-1.6a65.4 65.4 0 0 0-16 .1 43 43 0 0 0-5.8 1.1c-1.2.3-1.7 1-1.6 1.6.2.5 1.4 0 3.5-.6l3.2-.8C83.5 22.1 83 24.7 76.9 29a6.7 6.7 0 0 0-3 4.5l-.3 1.7-.9.5c-2.2 1-3.1 3.1-3.2 5.5-.3 7 .3 13.5 2.1 22.6S76 77.5 81.9 82.7l1.8 1.3c4.3 3 1.1 12.7-7 14.1a6.5 6.5 0 0 0-4.8 3.7l-2.4 5.7 6.4.3h5l.4-5a9.3 9.3 0 0 1 1.4-3.6c2.9-3.7 5.7-9.8 2.7-14.8" class="k"></path><path d="M97.1 42.7c.2 3.4-1.9 7-6.5 6.8s-6.5-2.6-6.5-6.5a6.8 6.8 0 0 1 6.5-6.5c3.6-.3 6.3 2.6 6.5 6.2" class="g"></path><path d="M87.7 43.4c-.5-.1-.7-.2-.9 0s.2.4.5.6.4.1.3.4-.2.4-.2.8.2.4.5.2.4-.7.8-.4.8.6.9.5-.3-.7-.4-1 0-.3.3-.5.7-.3.7-.5-.3-.2-.7-.2-.5.2-.7 0-.1-.6-.2-.9-.3-.2-.4.2-.3.8-.5.8M92.2 45.2l-.7.2c-.1.1.2.3.5.4s.3.1.3.3-.1.4 0 .7.2.3.4.1.3-.6.6-.5l.8.3c.1-.1-.3-.5-.4-.8s-.1-.2.1-.4.5-.3.5-.5-.2-.2-.6-.1-.4.2-.5.1-.3-.5-.4-.7-.3-.1-.3.3-.1.6-.3.6M91.8 40c.5-.4.4-1.2.7-1.1s.3.5.4.9.2.4.6.4l.6.2c.1.1-.2.2-.6.4s-.5.1-.4.5.3.8.2 1.1-.3-.1-.5-.4-.4-.7-.6-.5-.4.5-.7.6-.2-.1-.2-.3.5-.7.2-1-.7-.3-.8-.7.9.2 1.1-.1" class="k"></path><path d="M99.3 61a11.9 11.9 0 0 1-4.4-3.5c-1.1-1.4-2.1-1.7-2.8-1.6s.4-.7.2-1.9-3.5-2.6-4.8-.1.7 2.7 0 3.6-1.9 1.2-2.1-1.2a11.7 11.7 0 0 0-2.3-6.6 10.4 10.4 0 0 1-1.6-6 7.2 7.2 0 0 1 1.1-3.3c.5-1-1.8-1.6-3.7 1.4s-1.7 2.3-1.1 3.3 1.6.6 1.9 2.2 0 3 .4 4 1.4 2.2.9 5 1.1 3-1.6 3.6l-3.4.9c-2 .8-4 2.6-3.5 4.7 1.1 5.3 2.9 7.8 4.7 10.7a36.8 36.8 0 0 0 6.4 7.7c4.3 3.8 2.4 11.6-3.9 14.9-2 1.1-3.4 1.3-4.2 3.3l-2.2 5.8h6l3 1.2h1.9l.6-6.2c.1-1.3.9-2.3 1.6-3.8 2-4 3.2-10.8.4-14.9a36 36 0 0 0-2.3-3.2 34.5 34.5 0 0 1-3.6-5.6 34.8 34.8 0 0 1-3.6-9.7c-.2-1.1.6-1.7 2.4-1.5a10.4 10.4 0 0 0 5.1-.7c1.4-.7 1 .6.5 1.8s-2.6 7.7-.3 5.8 3.5-6.6 4.2-7.8a7.3 7.3 0 0 1 2-2.7c1.2-1 1.3-1.1 3 0a7.7 7.7 0 0 0 4.3 1.7c1.4.3 1.8-.8.8-1.3" class="fs"></path><path d="M101.1 38.2c-2.1-.5-2.9.6-2.6 2.6s.8 2.5 2.6 2.2-.2-2.7 2-1.3a10.7 10.7 0 0 1 3.5 2.9 7.4 7.4 0 0 1 1 3.2c.1 3.5-1.4.6-2.8-1.3s-3.5-2-4.7-.9-1 3.1-.7 4.3 2.3 4.2 4.9 2.7 2.4-.2 2.1.8c-.8 2.5-3.2 2.6-5.3 1.8s-4.4-6.2-5.7-4 1.7 4.8 2.8 5.7 1.9 1.2 3.4 2.3 2.9 3.1 2 8.1-2.6 9.2-7.6 14.6a6.8 6.8 0 0 0-1.4 2c-2.6 5-1.8 11.1.3 15.1.7 1.5 1.5 2.5 1.6 3.8l.6 6.2H99l2.9-1.2h6.1l-2.2-5.8c-.8-2-2.3-2.2-4.2-3.3-6.4-3.3-7.8-11.8-4-14.9l1.5-1.2c8.9-7.1 9.5-12.6 10.8-19.8a123 123 0 0 0 1.1-12.1c.3-6.2-3.4-10.9-9.9-12.5" class="ft"></path><path d="M90.6 102c4.4-.4 9.4-3.7 7.5-9.5a9 9 0 0 0 7.7 5.8c-3.5 2-8.1 3.7-15.2 3.7" style="mix-blend-mode:multiply;opacity:.5;fill:url(#aw)"></path><path d="M70.3 102a7.7 7.7 0 0 1 3.2-3 48.2 48.2 0 0 0 17.1 3v6.8H67.3Z" style="mix-blend-mode:multiply;fill:url(#ax)"></path><path d="M109.8 31.8c-11.1-1.4-27.4-1-38.5.5l-.6 3.3a175.7 175.7 0 0 1 39.7-.5Z" style="mix-blend-mode:multiply;opacity:.5;fill:url(#ay)"></path><g style="opacity:.5;mix-blend-mode:screen"><path d="m110.4 35.1-.1-.4z" style="fill:url(#az)"></path><path d="m111.6 35.6-1.2-.5a175.7 175.7 0 0 0-39.7.5v-.4.4l-1.5.7a6.1 6.1 0 0 0-3.1 3.2c14.3-1.7 34.7-2.2 49-.6a6.3 6.3 0 0 0-3.5-3.3" style="fill:url(#ba)"></path></g><path d="M114.2 51.6a4.5 4.5 0 0 0 1.6-2.4l-.2-.7a279.6 279.6 0 0 0-50.1.5l.3 3.2a300.5 300.5 0 0 1 48.4-.6" style="mix-blend-mode:multiply;opacity:.5;fill:url(#bb)"></path><path d="M115.5 53.8a2.1 2.1 0 0 0-1.3-2.2 300.5 300.5 0 0 0-48.4.6c.1 1.1.2 2.2.4 3.4a425 425 0 0 1 49.2-.5c0-.4.1-.9.1-1.3" style="opacity:.5;mix-blend-mode:screen;fill:url(#bc)"></path><path d="M92.4 15.7c4.7 2 6.9 8.2 12.3 11a45.6 45.6 0 0 1-.8-10.1 46.4 46.4 0 0 0-13.5-2.2 42 42 0 0 0-4.6.2 42 42 0 0 0-8.6 2c-.1 3.9.9 8.5-1.1 10.7 4.5-1.3 3.4-7.4 7.2-10.3s5.6-2.8 9.1-1.3" style="mix-blend-mode:multiply;opacity:.5;fill:url(#bd)"></path><path d="M85.8 14.6a56 56 0 0 0-5.6 1.1c1.6 9.6 1.7 10.5-1.9 12.9a6.6 6.6 0 0 0-2.7 4.6l-.2 1.8-.8.4a7.2 7.2 0 0 0-3.5 5.6 79 79 0 0 0 .2 10.7c.2 1.5.1 2.2.6 5.7s4.9 1.8 4.4-1.8a59.8 59.8 0 0 1-.3-15.3 8.4 8.4 0 0 1 2.8-5.1l.5-.5.3-2.2c.2-1.5 2.4-3.7 3.5-4.6 3.1-2.6 4.3-5.3 3.2-13.3Z" class="fs"></path><path d="M110.1 39.5c-.7-1.4-2.5-3.9-3.6-4.5l-.8-.4-.3-1.7a5.9 5.9 0 0 0-2.6-4.3c-3.7-2.4-3.5-3.2-2-12.8a47 47 0 0 0-6.1-1.2c-1.1 8.1.2 10.7 3.2 13.3 1.2.9 3.3 2.8 3.5 4.4l.3 2.2.6.5a16.5 16.5 0 0 0 3 2.4 11.4 11.4 0 0 1 4 3c1.3 1.4 1.3.2.8-.9" class="ft"></path></g><path d="M35.7 182a4.9 4.9 0 0 1-2.4-.8c-1.7-1.6-2.3-5.2-2.6-6.8-.8-4.1-.9-7.1-.3-9.2s3-1.9 4.9-1.8a8.6 8.6 0 0 1 4.7 1.1c3.1 1.7-1.2 4.8-2.6 5.7 4.1.4 8.8 3.2 5.2 8-1.1 1.5-4.8 4-6.9 3.8m-1.9-12.8a8.5 8.5 0 0 0 3.6-2.5c.1-.2 0-.5-.2-.5l-2.4.3c-.3.1-1.3.2-1.4.5s.1 1.6.4 2.2m2.2 9.6c1.3-.9 5.7-2.7 5.7-4.5s-5.6-1.6-7.1-1.7c.5 2.1.8 4.1 1.4 6.2M46.3 181c-1.5-.8-1.4-2.2-1.3-3.8s.3-5.1.7-7.9c.1-1.2.3-2.5.5-3.7s.8-.9 1.4-1.1a27.3 27.3 0 0 1 4.9-.6c3.3.1 6.7 1.8 5.3 5.4s-4 3.7-6.2 4a17 17 0 0 0 2.6 2.9c.8.8 2.2 1.3 2.3 2.4s-.5 2.6-2.3 1.5-3.8-3.2-5.3-5.1c.1 1.6.1 3.2.2 4.7s-1.1 2.2-2.8 1.3m2.7-9.1a12.2 12.2 0 0 0 4.4-2.2c1.7-1.5 2.3-3.3-.5-3.4a10.5 10.5 0 0 0-2.5.1c-1 .1-1.3.1-1.3 1.3a29.5 29.5 0 0 0-.1 4.2M66.7 180.7c-2.5-.2-1.5-3.3-2.6-4.2s-1.8-.1-2.2-.2-1 1.3-1.3 2.3a3 3 0 0 1-1.2 1.8.9.9 0 0 1-1.4-.5c-.3-2.7.7-5.8 1.4-8.4s1.5-6.6 3.4-6.8 2.2 0 3.1 1.4c2 3.1 2.8 9.2 2.5 12.7-.1.9-.6 2-1.7 1.9m-2.6-6.6a10.8 10.8 0 0 0-.7-5.1 24.4 24.4 0 0 0-1.2 5.2ZM74.1 180.6c-1 0-3.8-1-2.6-2.6s2.9-.7 3.8-1a15.7 15.7 0 0 0 4.2-1.8c-2.7-1.2-5.8 1.4-8.4-.7-4.4-3.5.7-7.8 3.9-9.2 1.4-.7 4-1.6 5-.2s-.4 1.9-1.5 2.5-4.3 1.5-5.7 3.7c2.8-.1 6.4-.5 8.4 1.9s2 3.2.5 4.5a14 14 0 0 1-7.6 2.9M86.4 181.1a4.8 4.8 0 0 1-2-.7c-1.2-.7-.8-3.2-.7-4.2l.6-4.5c.2-1.3.2-3.2 1.5-3.5 2.9-.7 2.5 5.6 2.4 7.2s.1 6-1.8 5.7m1-14.8a8.5 8.5 0 0 1-2.2.4c-1.6.1-2-2.2-.6-2.9s2-1.5 3-.4.6 2.5-.2 2.9M91.4 178.4c-1-2.6-.8-4.1-1-6.9s-.2-7.6 1.5-7.6c4.4-.1 2.5 9.3 3.3 12.5.3 1.1 6.1-4.2 7.6-3.2s.7 3.4-3.8 6.7c-2.1 1.6-6.1 2.1-7.6-1.5M108.8 180.1c-6.4-2.9 6.5-9.1 5.6-12.4-.5-1.7-3.6.6-5.2 1.6s-3.7 3.1-5 2.2 1.2-4.3 3-5.3c3.4-2 6.6-2.6 9.1-1.2a2.9 2.9 0 0 1 1.1 4 8.8 8.8 0 0 1-.9 2c-1.3 2-3.8 4-5.3 5.9 1.6 0 5.6-1.1 6.1 1.2s-2 1.8-3.9 2.1a8 8 0 0 1-4.6-.1M121.8 179.8c-3.7-1.5-4.1-7.6-2.3-11s3.6-3.6 6.4-2.3 5.3 7 2.8 10.3a7.9 7.9 0 0 1-2.8 2.6 4.5 4.5 0 0 1-4.1.4m1.3-2.2c2.9.4 3.7-3.8 3.1-6a6.4 6.4 0 0 0-1.3-2.6c-1-1.3-1.2-1.2-2.1 0s-2.6 7.8.3 8.6" class="gd"></path><path d="M130 180.1c-.8-.3-1.2-.9-.7-1.5s3-.6 3.2-1.9 1.2-4.9 1.5-7.6a5.6 5.6 0 0 1-1.9.7c-1.3-.1-2.4-.9-2.1-2.2s1.4-2.1 3.8-2.8 3.3.6 3.4 2.6c.4 3.7-1.1 6.1-1.8 9.3 1.4-.1 1.9.7 1.9 2s-2.1 1.6-3.6 1.8a8.8 8.8 0 0 1-3.7-.4M139.8 180.5c-1.4-.8-.3-1.7.7-2.6a21.5 21.5 0 0 0 4-4.5c-1.8 0-3.5-.2-4.5-1.4s-.9-3.4-.3-4.8c1.6-4 7.3-5.6 9.3-1.4 3 6.3-1.7 11.1-6.3 14.4a3.8 3.8 0 0 1-2.9.3m5.6-9.1a5.8 5.8 0 0 0 1.1-2.5c.3-1.5 0-3.8-1.8-2.7s-2.8 3.8.7 5.2" class="gd"></path></g><!-- source: https://football-logos.cc --></svg>