<svg xmlns="http://www.w3.org/2000/svg" xml:space="preserve" viewBox="-3.76 124.05 385 237.66"><!-- Source: https://football-logos.cc --><path d="M485.336 446.13q-1.27-.062-2.54-.173l.01.002c-1.68 11.195-1.614 22.864.449 34.665a110 110 0 0 0 3.49 14.25l2.477.216c6.486 21.052 18.877 39.292 35.025 53.033-18.393-2.149-37.993 4.882-55.546-.72-58.385-18.633-94.457-41.999-126.988-1.487-22.651 28.208-92.008 16.932-130.757 22.126-39.218 5.256-78.124 8.699-115.351 10.009 3.513-4.179 7.215-8.575 11.063-13.014a485 485 0 0 1 12.218-13.598c4.353-4.655 8.907-9.325 13.579-13.996 4.661-4.662 9.544-9.297 14.576-13.991l63.548-54.521a5927 5927 0 0 0 31.671-25.183 1503 1503 0 0 0 29.519-24.239c35.025 2.423 53.901-1.79 71.256-7.979 17.303-6.171 33.465-24.089 62.809-26.128 25.462-1.769 54.606 12.255 97.87 13.843a110.1 110.1 0 0 0-18.378 46.885" style="fill:#05689d" transform="matrix(.6408 0 0 .6408 -65.02 -100.054)" data-source="https://football-logos.cc"></path><path d="m210.589 462.872-63.548 54.52c23.49-1.418 47.14-3.023 70.732-4.815 14.421-1.095 28.68-2.277 42.994-3.374 57.053-4.231 101.818-60.395 156.846-35.501l.005.002c17.541 7.935 34.04 12.207 53.089 13.718 2.412.191.053.003.105.007l15.933 1.387a110 110 0 0 1-3.49-14.25c-2.063-11.802-2.129-23.471-.449-34.665-32.667-2.782-66.532-28.849-98.398-19.081-34.237 10.56-60.55 35.151-101.296 40.477-23.943 3.163-48.399 1.355-72.523 1.575" style="fill:#fff" transform="matrix(.6408 0 0 .6408 -65.02 -100.054)"></path><path d="M485.336 440.07c-33.446-1.579-68.239-29.271-100.929-19.252-34.237 10.56-60.55 35.151-101.296 40.477-23.942 3.165-48.398 1.357-72.522 1.577a5927 5927 0 0 0 31.671-25.183 1503 1503 0 0 0 29.519-24.239c35.025 2.424 53.901-1.79 71.256-7.98 17.303-6.171 33.465-24.089 62.809-26.128 25.462-1.768 54.606 12.255 97.87 13.843a110.1 110.1 0 0 0-18.378 46.885m-224.569 69.132c-14.314 1.097-28.573 2.279-42.994 3.374a4576 4576 0 0 1-70.732 4.815c-5.033 4.694-9.915 9.329-14.576 13.991-4.672 4.671-9.227 9.341-13.579 13.996a486 486 0 0 0-12.218 13.599c-3.848 4.438-7.55 8.836-11.063 13.014 37.227-1.311 76.133-4.752 115.351-10.009 38.749-5.194 108.105 6.083 130.757-22.126 32.531-40.513 68.604-17.146 126.988 1.487 17.553 5.603 37.153-1.43 55.546.72-16.148-13.741-28.539-31.981-35.025-53.033q-9.205-.8-18.409-1.603c-.053-.004 2.307.185-.105-.007-19.049-1.511-35.548-5.783-53.089-13.718l-.005-.002c-55.028-24.891-99.794 31.271-156.847 35.502" style="fill:#9ccafc" transform="matrix(.6408 0 0 .6408 -65.02 -100.054)"></path><path d="m246.964 162.392.059.005.127.01.256.018.075.005q-.103-.32-.202-.641z"></path><path d="M472.997 481.901c-10.716-61.006 30.296-119.339 91.426-130.034s119.58 30.236 130.296 91.243c10.717 61.004-30.297 119.336-91.427 130.03-61.131 10.696-119.579-30.234-130.295-91.239" style="fill:#f8f8f8" transform="matrix(.6408 0 0 .6408 -65.02 -100.054)"></path><path d="M683.636 424.823a111 111 0 0 0-.122-14.527 111.7 111.7 0 0 1 11.204 32.814c10.717 61.005-30.297 119.336-91.427 130.03-59.058 10.333-115.609-27.521-129.038-85.107 23.146 39.165 68.982 61.981 116.441 53.679 56.722-9.924 96.113-60.859 92.942-116.889" style="fill:#e8e9ea" transform="matrix(.6408 0 0 .6408 -65.02 -100.054)"></path><path d="m653.292 425.273-37.774 10.884c-1.496.498-2.646.875-3.344 1.087l-6.261 21.239 6.427-19.459 42.584-12.037zm22.623 94.655-9.994-14.676-2.749.48 11.955 16.429zm-75.601-152.194-1.802-.776c-.637 1.236-16.263 31.654-18.504 36.012l2.291 1.427c3.304-6.594 15.323-31.187 18.015-36.663m63.578 134.326c-.777.21-29.801 7.893-36.15 9.583l1.195 1.927c4.384-1.174 36.405-9.755 37.225-9.976.292-.852 15.839-45.822 16.171-46.783-.084-.094-.59-.643-1.398-1.512-2.383 6.724-16.77 45.974-17.043 46.761m30.174-49.518-8.836 1.545-29.34-31.711-8.099-38.534.183-.109-1.318.602 7.353 39.395 29.64 31.929 10.655-1.865c-.122-.588-.224-1.074-.238-1.252m-140.68 40.7c-.764 5.224-5.793 39.674-5.965 40.903l1.916.755c.813-5.428 5.379-35.8 6.038-40.319l41.408-9.425c3.817 4.106 24.743 26.625 29.224 31.448.408-.515 1.421-1.919 1.496-2.01-.901-.961-25.601-27.546-30.012-32.293-3.593.891-40.147 9.958-44.105 10.941m-32.749-119.993-.028.02-.293.209-1.85 20.427.27.35c.411-4.563 1.26-13.921 1.901-21.006m2.283 87.486c2.149-7.291 12.722-42.179 12.968-43.02.941-.233 41.698-10.644 42.645-10.88.631.65 27.097 28.065 31.21 32.273.229-.779.75-2.345.775-2.437-.698-.71-31.167-31.882-31.848-32.577l-.12.03-.071.141-44.588 11.062c-.735 2.494-12.56 42.601-12.833 43.534.043.049 1.563 1.573 1.862 1.874m-39.913 11.776-9.865-14.699c-.15.782-.539 1.99-.562 2.567l9.638 14.365zm114.971 82.434 2.73 17.349-.651.095.226 1.278c.292-.038.771-.283 1.252-.527.47-.242.94-.482 1.229-.525l-2.726-17.35 31.638-40.624-2.515.679zm77.838-29.828.21.498c.195-.285.237-.028.275.227.039.257.078.514.274.226l-.57-1.237zm-85.595-173.452 8.453 13.482 47.063 17.683 10.14-4.639c-.65-.402-1.595-.884-1.958-1.191l-8.047 4.147-45.808-17.364-7.945-12.37c-.713-.04-2.534-.872-3.247-.898.23.366.466.742.696 1.116zm104.56 103.818-.098.017c.184.838.343 1.583.358 1.815.003.008-.148-1.047-.26-1.832m-178.04-58.615.513.048c1.773 2.3 11.82 15.319 14.648 18.98l.367-1.244a33334 33334 0 0 1-15.146-19.628l-.512-.045.009-.114-21.023 2.419c-.325.432-.642.873-.966 1.312l-.448.61c7.978-.916 20.901-2.404 22.584-2.597zm-1.654 150.23-3.55 1.378.018.011c.508.439 1.022.855 1.537 1.283l33.481-12.241 49.992 19.681-.296-1.875-49.826-19.696zm36.271-52.073.341-2.318-31.86-32.584-.328.122-.023.083-34.852 12.824c-.337.961-4.097 11.604-7.273 20.586l-.009-.028c-.164-.551-.308-1.111-.46-1.667l-.211.625.014.036c.254.97.448 1.444.729 2.403l1.126 1.355c3.263-9.227 8.04-21.195 8.195-21.631.7-.258 28.446-10.354 32.769-11.948z" style="fill:#b0b0b0" transform="matrix(.6408 0 0 .6408 -65.02 -100.054)"></path><path d="m588.555 349.841.696.371s-.411.127-.784.163c-.372.034-.522.268-.522.268l-.698.279-.634.363s-.365.331-.686.494c-.318.162-.58.523-.58.523l-.83.735.207.591.573.418.656-.146.881-.428.771-.417.554-1.096.541-.483.614-.182 1.403-.35.54-.053c.104-.011.984-.511 1.592-.86a113 113 0 0 0-4.294-.19m-21.069 139.108.222.124 1.082.025.626.598 1.638.67.338.791.462.474.875.698 1.01.648.627.456.413.577.164.636.103.812.239.495.022.955.423.646.314.971c.012.123-.278.68-.169 1.056.106.38.233.975.243 1.143l.401.877s.014.258-.169.663c-.176.413.021.352.357 1.355.322 1.014.007.785.029 1.171.029.384-.02 2.122 0 2.296l.254.623.332 1.182s.105.264.419.571c.324.314.038.646.053.822l-.216 1.015.429.824.014.775.091.82-.6 1.441-.137.916.04.732.308.756.367.439-.047.566-.034.79c.07.343-.079.567-.009 1 .074.427.036.517.069.813.007.305.033.603.143.986.109.382.567.899.803 1.306.238.419.676.722.81.835l.155 1.114c.07.298.267.848.43 1.351.159.505.121 1.804.166 2.369.042.559-.152.793-.152.793l-.258 1.06.109 1.512.063 1.465-.446.74-.009.558.214.675.122.596.557.729.175.631.496.646.19.768.226.368.271.843c.099.251.027.556.115 1.158.083.6.246 1.633.3 1.887.063.242.382.477.651.795.264.328.701.463.701.463l.895.899.42.655.642.853c.096.117.034.481.125.987.064.515.285.669.357 1.085.067.433-.011.438.011.746l-.041.692-.625-.026-.172.237-.134.183.236.841.009.739-.022 1-.135 1.003s.237.374.589.689c.359.304.792.45.954.479l.665.021.278.924-.356.852-.473.521.058.73s.414.569.733.896c.319.306.109.935.109.935l.882 1.261.531.34.373.659.692.987.112.366.861.361s.512.033.886.082c.375.049-.053.481-.053.481l.486.954.407.444s.164.376.503.556c.347.187.46.132.645.374l.802.57.697.422.316.404.789.521.451.439 1.132.067.07.431 1.436.167.768.284.652.372.897.262 1.372.566.497-.043 1.469.072 1.595.073.964-.443 1.288-.15 1.256-.647.548-.533-.145-.191-1.378-.089-1.313-.095-.757-.323-1.34-.664-.55-.416-1.241-.491-1.038-1.11-.623-.729-.384-.618-.557-.16-.086-.727-.603-.205-.683-.758-.549-.134.032-1.126.303-.542.386-.471.435-.471-.086-.513-.165-1.071.016-.475.843-1.078.542-.791.602-.223-.699-1.016-.649-.849-.831.021-.709.065-.685-.199-.502-.546-.962-1.216-.185-.891.506-1.224.471-.426.716-.583.271-.289s.182-.401.065-.75l-.108-.325-.055-.869.143-.962.015-.914.772-.287.578-.107.179.082.157-1.284-.718-.653s-.068.129-.382.419c-.322.288-.348.458-.348.458l-.44.267-.795-.71-.465-.653-.497-.423-.013-.787-.272-.926.395.222 1.028.38 1.207-.02.957-.086.653-.104.498-.742.27-.2-1.151-1.061.205-1.198-.034-.548.156-.753 1.013-.354 1.536-.144.935-.393s1.586-.661 2.187-.935c.612-.272.841-.514.841-.514l.039-1.483c-.039-.352.408-1.206.408-1.206s-.017-.819-.048-1.207c-.026-.388-.174-.766-.174-.766l-1.131-.632c-.304-.141-.065-.337-.062-.904.002-.557-.198-.453-.198-.453s-.457-.568-.752-1.057c-.282-.498-1.035-.56-1.035-.56l-.044-.602c-.035-.517.412-.079.412-.079l1.055.763.985.346 1.315.223.747-.071.504.041.804.145.551-.402.949-.781-.278-1.018.271-.974 1.023-.784.492-.779.14-1.012-.136-.683-.124-1.292.223-.841.582-.66.368-.686-.296-.754-.027-.906.619.461.163.507.458.56.346-.459.137-.408-.004-.521.248-.708.618-1.362.365-.641.384-.551.385-.388-.24-1.018.549-1.135-.081-1.169-.389-.78-.208-.632-.197-1.02.178-.359.393-1.079.543-.611-.021-.395.507-.391.179-.412 1.508-.527s.418-.559.727-.976c.306-.417.806-.384.806-.384l.511.083.867-.686.496-.696.593-.484 1.496-.23 1.077-.097.419-.041.619-.107.15-.698-.14-.898.288-.068.606-.884s.398-.686.509-1.088c.096-.397.1-.354.1-.354l.177-.929.139-1.01.383-1.12s.508-.612.965-1.212c.456-.611-.019-.264-.052-.69-.031-.43-.188-.243-.239-.368l-.151-1.025-.221-.723.37-.849.593-.404-.029-.859-.094-.819.15-.884.124-.662.161-.534-.736-1.753-.169-1.107-.272-1.536-.125-.552-.237-.974.682-1.051.001-.001.069-.105.487-.211.838-.645.257-.543.274-1.411.262-1.636.649-.875.854-.818.575-.704.362-.899s.263-1.063.583-1.181c.329-.121.396-.902.396-.902l.546-1.14.36-.98-.042-1.085c-.011-.125-.346-.657-.461-1.165-.123-.515-.206-.554-.293-.67l-.4-.918-.482-1.467-.455-.563-.664.058-.715.065-.738-.495-.449.044-.512-.042-1.105-.417-.43-.605s-1.05-.729-1.626-1.194c-.58-.467-.794-.446-.794-.446s-.448-.434-.852-.878c-.414-.433-.541-.469-.629-.594l-.743.033-1.403.302-1.321.125-1.086.102-.902-.436-1.434-.782-.484.83c-.147.227-.627.668-.95.827-.326.158-.736.153-.873.078l-.019-.863-.253-.72-.773-.874-.688-.758-1.654-.455-1.411-.478-.877-.006-.857.343-.81.893-.503-.036.14-1.056.192-.662-.727-.197-1.184-.235-1.445.174-.538.142-.538-1.121.38-.511.516-1.136.564-.876-.37-.477-.185-.726-.413.041-.383-.272-.433-.604-.134-.861-.316-.793-.47-.95.026-.609-.193-.549-.442-.3-.203-.546-1.042-.509-.746-.583-.361-.313-.519-.342-.675-.538-1.228-.235-1.036.053-1.229-.231-.608.183-.591.058-.989.09-1.469-.077-.647-.376-.352-.611-.672-.808-.953.091-.372-.445-.046-.692-.37-.481-.72-.67-.708-.587-.917-.564-.536.048-.641.411-.927-.087-.605-.424.526-.872.355-.722.005-.519-.898-.313-.739.069-1.092-.028-1.153-.283-.4-.438.115-.702-.432-.31-.736.244-.589.617-.85.381-1.029.229-1.919-.557-.648-.285-1.083.054-.372.122-.609.273-.395.298-.999-.557-.14-.812-.823-.483-1.661-.544-.649-.194-.376.513-.736.328-.91.731-.557 1.008.368 1.003s.367.443.686.801c.313.36-.217 1.151-.217 1.151l-1.053.492-.452-.005-.508-.564-.178-.761.353-1.031.312-.898.114-.832-.557-.685.126-.665.588-.439.312-.378.178-.921-.388-.279-.64.411-.465.521-.499.695-.792.593-.755.591-.494.09-1.054-.205-.31.244-.055.662-.248.409s-.133.012-.509-.089c-.392-.093-.593-.021-.593-.021l-.346.375-.707.672-.188 1.017.053 1.246-.188.409-.742.588-.382.602-.861.728.015.872-.422.036-.561-.384-.719-.664-.661-.504-1.111-.415-.663-.502-.824-.228-1.329.598-.735.722-1.159.841-.751.071-.833-.18-.735-.843-.764-.669-1.001-.642-.818-1.574-.407-.997.294-.595-.037-1.121.312-.461.057-1.39.112-.885-.137-.723.416-.596.077-1.313.182-.884.116-.875-.492-.34-.54-.459-.345-.293-1.79-.481-1.041.052-.813.253-1.111.324-1.286.032-1.166.068-1.042.093-.806-.229-.153-.419.31-.29.625-1.139.643-1.014.689-.975.478-1.385.325-.723.32-.904-.116-.983-.196-1.067.083-.609.399-.866.786-.806.068-.701-.41-.438-.809-.27-1.425-.088-1.235.294-.771.281-1.098.499-.649.712.045.728-.446.781-.111.919-.661 1.19-.597.441-.301.372-.374.646-.046.566-.831.121-.483.092-1.087.143-1.068.356-.323.206-1.297.464-.749.032-.155-.554-.798-.488-.494.001-.75-.493-.397-.999-.591-.684-.059-.687-.364-.527-.168-.644-.727-.746.089-.529-.501-.646-.205-.418-.067-1.209.373-1.118-.088-1.199-.132-1.204.713-1.801.405-1.335.331-.638.614-.793-.214-1.328.202-1.799.076-.781.716-1.111.639-.399.488-.826.849-.345.9-.335.604-.321.586-.536.61-.749.69-.319.673-.502.698-.15.991-.18.376-.035.522.26.389.131.8-.502 1.051.12.531.468.521.253.565-.224.863-.21.701.406.72.153.483-.263-.202-.5-.395-.831.287-.72.357-.12 1.04-.659.481-.428.822.48.388.229.797-.728 1.01-.354.573-.18.964.598.536.473.149.286.166.552.796.093.52-.304.612-.749.67-.063.163-.014.47.731.677.809.778.796-.033.737s-.007.565-.413.865c-.381.289.057.593.057.593l.045.781.065.903.141.722.731.938.281 1.091.665.55.591.631.277.368.372-.076.734-.895.243-.677.071-1.341-.245-1.151-.114-1.509-.356-1.006.112-.705.02-1.043-.489-.905-.38-1.262-.114-1.116.32-1.377.437-.86.637-.972.565-1.01 1.04-.571.406-.083.92-.645.646-.882.838-.687.4-.775.694-.279 1.013-.362.307-.46.483-.773.78-.685.215-.021.879-.641.569-.788.857-.862.944-.912.052-1.035-.052-1.219.33-.68.404-.737.804-.503.582-.707.277-.716.028-1.392.567-.312.674-.45.62-.755.859-.859.344-1.502.521-.441.873-.731c.204-.017.321-.025.796-.03.452.004.459.043.459.043l1.129-.535.965-.568.807-.336.848-.43.412-.07.341-.515-.141-.853-.064-.99.583-1.054.614-.878s.585-.491.922-.519c.332-.038.52-.313.52-.313l.75-.068.46-.476.508-.615.908-.084.746-.155 1.378-.56.484-.305.111-.22.258-.507 1.136-.453.601-.447.684-.232s.48-.082.883-.143a106 106 0 0 0-21.111 1.844c-28.752 5.476-53.251 22.181-70.504 45.315l.531.552c.284.409.094.212.196.5l.167.42.624.547.299.243c.132.108.775.314.981.808.19.503-.091.4-.199.711l-.15.238-.183.536.074.332.379.62.479.387.371.401.523.383.737.365.389.135-.046.571.218.716.416.558.425.661.369.492.674.629.444.434-.001.607.659.979.534.513.087.639-.585.623.195.417-.074.701-.391.509-.057.305-.02.824.085.649.981.899 1.042.513.244.499.332.525 1.114.509 1.089.069s.502.04.981.127c.459.089.69.369.69.369l.655.458.762.75.451.521.799.101.532-.142.749.417 1.159.49 1.296.534.355.398.717.063.352.364 1.726.136.547-.051.835-.597.593-.406 1.084-.616 1.169.541.988.476s.143.151.737.883c.595.723.408.441.813.885.238.247.234.319.188.335l-.004.002-.016.002c-.031.003-.071-.01-.071-.01l.039.017.881.378.938.993c.271.195.141.12.827.354.679.241.16-.016.16-.016s.298-.026.877-.08c.581-.057 1.204.497 1.204.497l.671.108.322.4 1.021.214 1.241-.158.395-.73c.292-.247.683.066.683.066l.149.247-.234.364.136.725.041.433.638.375.672.497.705.495.807.876.369.539.01.552.033.524.031 1.216.054.728.783.441 1.181.063.505.084.94.353.295.529.236 1.017.019.349.351.271.622.416.257-.371.901-.339.872.438.833.614.959.646.365.366.753-.034.525-.175.208-.633-.511-.816.489-.65.421-.567.504.002 1.076-.749.719.149.565.291.537.474-.021.306-.25.544.046.774.047.603.613.462.557.729.329.669.067.857-.22.409.296.58.269.404-.169 1.708.005.524.149.975.167.677-.33.595-.302.463-.522 1.007-.3.497-.936.176-.227.502-.311.896.056.209.121 1.068-.733.289-.558.351-.715.503-.744.764.319 1.008-.16.627-.188.4-.498.611-.064.401c.012.124-.134.357-.444.736-.305.373.072.422.302.744.229.328.191.287.191.287l-.497 1.259.63.679.364.438.579.474.631-.014.173.195-.056.395-.284.596-.435.513-.717.497c-.111.059-.304.338-.58.576-.276.24-.259.546-.259.546l.034.467.026.484s.292.401.563.769c.279.362.453.521.453.521l.213.547-.016.512-.447.134-.232.196.285.446.524.434.18.109.769.32.453.477.518.729.52.346 1.426.693.349.746.599.812.038.563.37 1.089.325.531.441.831.474.772.396.355.038.514.734.93.245.586.643.807.368.442.171.636c.057.212.372.702.794 1.136.403.442.53.512.805.793.265.274.287.58.41 1.092.113.506.117.462.117.462l.438.905.907.397.587.122.313.753.906.993.868.482 1.034.427zm-71.269-82.664-.666-.456-.394-.916.018-.914-.092-.256-.331-1.009-.007-.169-.177-1.803-.479-.349s-.009-.012-.241-.563c-.404.566-.781 1.156-1.174 1.73l.352.36.129.637.006.782-.285.678-.341.507.052.689.528.339.234.456s.646.239 1.167.453c.512.216.569.383.569.383l.359.402.437.264-.247.668.077.431.325.442s.52-.304.849-.333c.33-.032.151-.839.151-.839l-.14-1.332z" style="fill:#049acc" transform="matrix(.6408 0 0 .6408 -65.02 -100.054)"></path><path d="M582.517 543.396c.012.07.022.128.031.166.063.242.382.476.651.795.264.327.701.463.701.463l.895.899.42.655.642.853c.096.118.034.481.124.987.065.515.286.669.358 1.085.067.434-.012.438.012.746l-.041.691-.625-.025-.173.237-.134.183.236.84.009.74-.021 1-.137 1.003s.237.374.589.689c.359.304.792.448.954.479l.665.02.278.924-.356.851-.473.521.058.729s.414.57.733.897c.32.306.11.935.11.935l.881 1.26.531.341.373.658.692.988.113.366.86.361s.513.032.887.082c.375.049-.054.481-.054.481l.486.953.407.445s.164.376.503.556c.347.187.46.132.645.374l.803.57.696.422.316.404.789.521.451.439 1.132.067.071.431 1.435.167.768.283.652.372.898.263 1.372.566.496-.043 1.469.072 1.595.073.964-.443 1.288-.151 1.256-.646.548-.534-.145-.191-1.378-.09-1.313-.094-.757-.324-1.341-.664-.548-.416-1.242-.49-1.038-1.11-.623-.729-.384-.618-.556-.16-.087-.728-.603-.204-.682-.759-.55-.133.032-1.126.303-.542.387-.471.434-.471-.086-.513-.165-1.072.016-.474.844-1.078.542-.791.601-.223-.699-1.017-.649-.848-.831.021-.709.065-.685-.2-.502-.545-.962-1.216-.185-.891.506-1.225.471-.425.716-.583.271-.289s.182-.401.066-.75l-.109-.326-.054-.868.143-.963.014-.913.772-.287.579-.107.178.082.158-1.284-.718-.653s-.069.129-.382.419c-.322.288-.349.458-.349.458l-.44.267-.796-.709-.463-.653-.498-.424-.01-.599c-5.143.648-10.261.93-15.323.873" style="fill:#05689d" transform="matrix(.6408 0 0 .6408 -65.02 -100.054)"></path><path d="m589.196 349.729.003.004.669.036.042.069-.042-.069c-.226-.013-.447-.028-.672-.04" style="fill:#d9dbdc" transform="matrix(.6408 0 0 .6408 -65.02 -100.054)" data-source="https://football-logos.cc"></path><path d="M355.533 409.521c-.439-.685.482-2.822-1.014-2.328-.935 4.62-.084 9.495-.865 14.041-.014 1.529-.149 3.025-.274 4.497-.875.291-1.751.613-2.597.964-.729-4.62-3.548-7.179-3.787-12.274l-.142.047c.054-.34.097-.679.15-1.028.106-.412.201-.823.307-1.246.093-.242.187-.485.291-.741l.005-.66.005-.492-.723.237c-1.017 1.311-1.177 3.319-1.912 5.019-.022 2.447-.044 4.896.649 6.635.149.444.284 1.226.566 1.464-.012 1.305.7 2.238.544 3.757.119.309.188.702.234 1.112a40 40 0 0 0-3.431 2.103c-2.139-4.657-4.389-9.449-6.845-13.863-.273.088-.415-.019-.693.388.265 1.034.393 2.596.934 3.373.273 1.026.542 1.753.817 2.629.254 1.198.529 2.089 1.079 2.887.131 1.408.67 2.21.944 3.413.294 1.1.588 2.213.883 3.315a44 44 0 0 0-2.772 2.409c-.292-.222-.719-.288-.795-.778-.418-.842-1.234-1.565-1.356-2.651-1.091-1.583-1.752-3.62-3.224-4.755-.545-.311-1.079-.632-1.626-.779 0 0-.266.081-.132-.12-.132.041-.274.083-.396.122.002-.15-.141-.108-.139-.271-.093.027-.174.055-.256.08-.141-.119-.272-.078-.271-.229-.67.045-1.471-.018-2.135.498-.152.985.392.349.785.699.392.351.796.55 1.056.942l.274-.083c.125.746.926.979 1.183 1.687 1.346 1.511 1.585 5.232 2.643 7.161.124.896.781 1.188.802 2.258a40 40 0 0 0-1.643 2l-.947-.755c-1.339-1.202-2.407-2.01-3.86-2.854-.403-.356-.782-1.038-1.442-1.009-1.044-1.244-2.336-1.96-3.503-3.016-.784.231-.77-1.178-1.682-.283l-.007.783c2.049 2.188 3.858 3.994 5.948 6.229q.06.068.12.116c1.106 1.193 2.222 2.401 3.337 3.604a52 52 0 0 0-1.185 1.888c-.203-.055-.62.034-.731-.064-.141-.125 0 0-.263-.091-.272-.25-.538-.017-.536-.178.001-.151-.396-.045-.67.027-.121-.128-1.175-.314-1.175-.314-.366.044-.711.083-1.058.123-.039.012-.091.025-.132.036a3 3 0 0 1-.385-.045.6.6 0 0 0 .131.113c-.779-.257-1.568-.512-2.348-.766l-.002.159c-1.152-.467-2.437-1.032-3.188-2.053l.122-.034a8 8 0 0 1-.369-.673c-.133.036-.133.036-.131-.111-.25-.392-.633-.745-.491-1.706-.214.062-.438.123-.642.181.114 1.957.091 4.275 1.219 5.183.762 1.181 2.038 2.388 3.447 2.638.818.41 1.637.82 2.465 1.221.303.136.607.269.92.39.131.126.131.126.264.092.303.242.604.474.918.704-.001.011.01.008.01.007a56 56 0 0 0-1.516 3.551c-.041-.001-.071-.014-.111-.025-.041.01-.082.021-.133.032a8 8 0 0 1-.648-.146l-.265.065c-.354-.06-.699-.133-1.043-.205l.001-.16-.132.034c-.65-.038-1.3-.076-1.938-.125.001-.158-.131-.125-.131-.125-.396-.049-.771-.11-1.156-.172l-.132.034a8 8 0 0 1-.384-.219l-.122.032-.122.031s-.131-.114-.263-.081a45 45 0 0 1-.629.005l.001-.158c-.041.011-.093.022-.133.034q-.32.016-.64.016c-.425-.089-.841-.19-1.256-.293l-.132.033c-.121-.125-.243-.093-.243-.093q-1.886-.28-3.74-.556l-.003.312a2 2 0 0 0-.133.033l-.004.456c-.002.154.131.121.131.121l-.002.146c3.965 1.476 8.021 2.976 12.149 4.492a50 50 0 0 0-1.001 3.835c-.142.034-.295.059-.447.094l-.132.031-.133.031a4 4 0 0 1-.386-.058l-.529.123q-.06.016-.122.028s-.132.031-.131-.128l-.254.061c-.172-.012-.354-.022-.517-.037a3 3 0 0 1-.386-.057l-.517-.194a10 10 0 0 1-.629.002l-.518-.035c-.253-.033-.507-.078-.761-.123a15 15 0 0 0-.385-.066c-.122-.022-.254-.043-.375-.067-.082.021-.173.041-.255.062l-.509.121a1 1 0 0 1-.12-.117l-3.267.778c-.747.634-1.37.927-2.115 1.411-.495.716-1.36.918-1.116 1.922.112-.027.234-.057.357-.085.747-.628 2.111-1.102 3.229-1.207l-.132.029c.131.022.253.045.375.067.953.142 1.916.272 2.89.403.415.112.83.204 1.267.304.333.186.666.371 1.01.545.243.101.506.2.759.289.344.08.679.162 1.023.23.385.071.771.144 1.155.204.295.019.6.035.903.052-.1.943-.18 1.902-.24 2.866-4.604 1.435-9.146 2.772-13.526 4.194l-.006.607c2.325-.046 4.918-.298 7.441-.832 1.135.22 2.544-.54 3.7-.321a13.4 13.4 0 0 1 2.341-.506c.031.936.073 1.868.156 2.771a13.4 13.4 0 0 0-3.437 2.407c-.775.47-1.415 1.52-2.188 1.673-1.396 1.508-3.533 1.926-5.272 2.111-.374-.227-.982-.26-1.224-.512l-.733.146c-.372.824.6 1.086.718 1.527.24.252.615.335.849.434l.12.131.133-.024q.06-.014.122-.024c.162.073.323.145.496.205.122-.024.122-.024.12.132l.132-.024.112-.022c2.885.063 5.804-1.415 7.991-2.92.4-.395 1.037-.043 1.298-.717.477.012.936-.119 1.374-.279.223 1.133.497 2.237.821 3.291a2270 2270 0 0 1-6.636 5.538c-.296.21-.593.42-.89.618l.123-.021s-.124.179-.246.2c-.511.236-1.018 1.097-1.65 1.51-1.022.635-2.513 1.349-3.014 2.801a.805.805 0 0 0 1.108-.189c.5-.229 1-.47 1.369-.835.592-.298 1.186-.608 1.777-.917l.254-.044c.256-.201.636-.57 1.024-.793.837-.45 1.694-.904 2.563-1.371.122-.022.256-.203.39-.374 1.655-.936 3.33-1.88 5.006-2.829a31 31 0 0 0 1.494 3.065c-.287.338-.586.666-.914.968-.409.389-.941.788-1.33 1.163l-.266.045s-.259.521-.788.611c-.388.214-.646.574-.646.574s-.268.353-.4.374-.389.371-.389.371l-.4.383c-.215.195-.44.391-.646.571a9 9 0 0 1-.389.211s-.001.159-.266.202c-.124.178-.257.347-.391.527-.122.02-.38.378-.38.378-.185.187-.35.371-.523.546-.124.229-.258.451-.393.672-.124.229-.259.461-.383.68-.124.178-.258.356-.391.523-.085.381-.18.751-.255 1.12l-.001.167c-.053.165-.095.329-.137.481l-.133.021c-.011 1.069-.396 2.059-.153 3.248.761.192.517-.842.905-1.212.516-1.769 2.075-3.406 3.379-4.697 1.175-.65 2.087-1.421 3.261-2.078.942-.78 1.988-.629 2.802-1.863l.132-.021c.349-.283.717-.568 1.075-.854a28 28 0 0 0 1.587 1.979c-1.629 2.525-3.248 5.047-4.867 7.54-.39.365-.668.725-.804 1.213-.835 1.268-1.681 2.543-2.506 3.79-.051.06-.092.118-.134.177l.133-.018c-.261.648-.915 1.053-.668 1.792 1.051-.445 1.708-1.159 2.489-2.039.937-1.225 1.463-2.098 2.275-3.15.797-.423 1.336-1.603 2.002-2.172.944-.922 1.494-2.111 2.437-2.889a22 22 0 0 1 1.687-2.182c.514.483 1.068.941 1.623 1.366l-.321.678c-.137.51-.283 1.009-.431 1.507-.231.935-.474 1.868-.697 2.8-.576 3.108-1.956 5.99-3.582 8.093-.81.735-2.134 1.049-2.541 2.2 2.915.28 5.501-2.409 6.888-4.979.686-.566.838-1.543 1.383-2.247.187-.449.374-.898.561-1.372l.002-.163c.053-.159.095-.329.147-.5l.132-.018c.042-.159.095-.329.137-.499.146-.282.28-.563.426-.856.001-.162.002-.315.146-.5l.002-.163s.425-.858.559-1.042c.092-.014.421-.399.637-.673.98.526 1.993.995 3.036 1.396-.895 3.326-1.779 6.628-2.663 9.917-.664 2.597-1.339 5.199-2.014 7.783.051.05.092.1.142.148l-.001.153.142-.015.275-.029c.135-.331.28-.663.426-1.007l.001-.153c.083-.162.187-.337.279-.511 0 0 .002-.164.144-.181.005-.481.429-1.174.707-1.698.613-1.353 1.235-2.709 1.848-4.079a2324 2324 0 0 0 2.152-5.298l-.143.019c.562-1.355 1.123-2.738 1.684-4.111.994.262 2.029.452 3.095.596.083.915-.059 1.982-.197 2.759-.052.062-.093.124-.145.175-.16.901-.311 1.79-.451 2.677-.104.348-.198.683-.304 1.018-.147.619-.306 1.239-.444 1.856-.605 3.005-.494 6.438 1.22 8.051-.149.673.561.925 1.142.71-.553-1.753-.831-3.688-.516-5.866.142-.017.145-.341.146-.508.001-.168.136-.341.137-.509l.002-.167.003-.324.153-.186c.146-.396.292-.795.448-1.205.083-.222.188-.446.291-.683l.142-.019.003-.168c.052-.163.104-.337.156-.511.395-.867.788-1.733 1.192-2.615.521-1.348.889-2.778 1.157-4.265.833-.012 1.677-.07 2.542-.152.005.542.001 1.085-.004 1.617.437 1.109-.025 2.831.411 3.932.105 4.153-.076 8.67.773 12.572 1.355-.291.324-2.188.934-3.262.36-5.121.497-10.209.766-15.283.855-.161 1.721-.37 2.577-.6.135.839.25 1.682.689 2.495-.009 1.009.6 1.263.886 2.087 1.061 2.063 2.275 3.771 2.562 7.142.443 1.648-.801 3.13-.512 4.967.927-.094 1.088-1.127 1.713-1.712l.002-.162c.103-.173.206-.356.32-.542l.001-.174.143-.015c.053-.342.117-.685.171-1.038.106-.463.212-.926.328-1.402l.001-.163c.289-5.133-1.93-8.36-2.267-12.873a39 39 0 0 0 3.756-1.771c.984 2.447 1.91 4.888 3.425 7.207.476 1.323 1.263 2.083 1.569 3.079.629 1.312 1.269 2.616 1.899 3.77.473.645.462 1.86 1.604 1.562-.9-2.973-1.78-5.923-2.669-8.874-.16-.38-.319-.759-.469-1.163l.001-.177c-.156-.556-.314-1.109-.463-1.665-.479-.97-.775-1.96-.93-2.971l.001-.175-.476-1.304c-.141-.319-.301-.647-.298-.987-.019-.055-.038-.11-.059-.178a39 39 0 0 0 3.447-2.54c1.621 1.816 3.016 3.867 3.811 6.046.317 1.002.959 1.962 1.613 2.758 1.476 1.04 1.957 1.864 3.274 2.407.435.186.891.359 1.337.532.324.081.648.162.983.242.062-.008.112-.015.173-.021.674-.262 1.191-.143 1.692-.565.178-.554-.343-.31-.665-.619l-.173.021a56 56 0 0 1-1.67-.865c-1.487-.868-2.145-2.556-3.118-4.006-.475-1.511-.795-3.387-1.443-4.88.006-.69-.151-1.203-.474-1.68-.161-.155-.319-.654-.318-.832-.171-.143-.17-.32-.331-.474a4 4 0 0 1-.322-.297c-.1-.27-.209-.55-.318-.829-.091-.105-.171-.224-.261-.341a61 61 0 0 0 2.133-2.289c.636.509 1.271 1.019 1.918 1.528l.151.156c.061-.009.111-.018.173-.026.11.162.221.325.332.477.161.154.495.271.656.427.494.406.989.8 1.494 1.194 1.498.657 2.834 2.602 4.181 3.308 1.707 1.365 3.229 2.949 5.299 3.383l.003-.355c-2.224-2.751-4.602-5.455-6.949-7.784l-.172-.144c.333.313.666.613 1.009.913-.394-.353-.797-.704-1.181-1.068-.17-.324-.319-.663-.664-.779a807 807 0 0 1-3.806-4.254 48 48 0 0 0 1.851-2.627c.982.462 2.057.791 3.193 1.004 2.019.386 4.238 1.099 6.308 1.673.869.586 1.914.778 2.427 1.423.517.277 1.218 1.438 1.916 1.874.339.862.512 2.095 1.567 2.312.371-1.873-.154-3.612-.661-4.979-.878-.775-1.569-1.948-2.62-2.677-.98-.676-1.961-1.362-2.94-2.044a1.5 1.5 0 0 0-.164.211c-.525-.45-1.217-.52-1.722-.787-.79-.329-1.59-.668-2.39-1.018-.505-.446-.836-.923-1.342-1.186-.252-.222-.494-.434-.727-.659a48 48 0 0 0 1.79-3.884c1.41.314 2.84.618 4.26.924.518.153 1.034.294 1.563.434.517.092 1.035.185 1.562.265 0 0 .173-.031.172.153l.347-.061c.183-.031.183-.031.355-.063.64.134 1.278.269 1.938.389.343.299.871.393 1.397.487-.172-.094-.354-.187-.525-.28 2.07.249 4.151.514 6.273.753l.733-.125c.234-.14.479-.307.726-.474l.193-.033c-1.155-.43-2.3-.845-3.445-1.259l-.184.032-3.029-1.109-.173.03-.182-.154c-.831-.273-1.652-.547-2.463-.833l-.183.033c-.173.032-.173.032-.172-.142l-.183.032c-.519-.09-.699-.243-.871-.383a35 35 0 0 1-.701-.058c-.749-.281-1.499-.561-2.248-.852-.061-.051-.121-.101-.172-.151a20 20 0 0 1-1.044-.346l-.184.034a51 51 0 0 1-1.185-.486c-.415-.13-.82-.272-1.226-.415a52 52 0 0 0 1.131-4.03c.509-.063 1.007-.1 1.505-.136l.691-.135c.528.081 1.574.062 1.907.353.873.138 1.746.265 2.628.391.579.074 1.158.148 1.757.207l2.311-.441 1.789-.153c.663-.302 1.325-.615 2.009-.933 0 0 .184-.035.724-.326.368-.245 1.092-.573 1.092-.573.491-.332.981-.679 1.482-1.026.234-.096.479-.207.734-.319.368-.449.92-.745.569-1.408-1.66.502-3.324 1.566-5.123 1.556-.18-.34-.741-.043-1.096-.161-.365-.103-.711-.034-.893-.185l.002-.188c-2.202-.396-4.394-.8-6.555-1.227a42 42 0 0 0-1.032-.331c-.872-.191-1.736-.187-2.78-.51a13 13 0 0 1-.751-.077q.182-1.706.242-3.402l10.396-3.098c1.681-.483 3.381-.972 5.091-1.462.612-.257 1.214-.513 1.846-.772.356-.141.714-.281 1.091-.425.183-.104.377-.207.561-.311.063-.316.127-.634.201-.964-3.012.54-5.992 1.063-8.932 1.579l-.896.195-5.827.902a50 50 0 0 1-3.552.643 48 48 0 0 0-.212-2.511 8.6 8.6 0 0 0 2.053-1.34c2.606-.772 4.387-3.518 6.518-4.565.72-1.071 2.146-1.59 3.043-1.986.552-.489 1.646-.195 2.008-.83 1.997-.845 3.465-.259 5.299-.877-.181-.322-.177-.701-.531-.983-.133.093-.255.185-.378.277a17 17 0 0 1-.909-.527l-1.657.204c-.427.051-.854.09-1.271.126l-1.81.242c-.854.141-1.688.276-2.512.411-.836.323-1.672.646-2.496.966-.886.21-2.108.673-2.813 1.209-.881.919-2.104 1.573-3.154 1.99-.774.242-1.528.479-2.281.704a34 34 0 0 0-1.128-3.605c2.942-2.162 6.567-4.52 9.259-6.974l.173-.043c2.678-2.122 5.386-4.266 8.126-6.443a7 7 0 0 1-.181-.317l.003-.376-.356.092-.733.379c-.174.044-.358.28-.725.375-.378.222-.734.438-1.092.655-1.634 1.155-3.771 1.704-5.195 3.144-2.477 1.173-5.267 3.311-7.865 4.497-.769.764-1.819 1.305-2.798 1.861a27 27 0 0 0-1.792-3.111c2.836-2.818 5.56-5.631 8.817-7.895 1.223-1.775 2.471-2.836 3.541-4.556l.001-.186q.7-1.822 1.431-3.657c-.043-.889-.097-1.776-.15-2.676l-.356.1c-.001.174-.001.174-.176.409-.001.186-.187.409-.36.646-.002.185-.178.592-.178.592-.176.42-.362.829-.538 1.237 0 0-.35.64-.536 1.06-.002.173-.883 1.145-.883 1.145-.655.61-1.299 1.205-1.934 1.796a60 60 0 0 1-5.721 4.215c-1.029.458-1.707 1.34-2.554 1.747-1.182.494-2.195 1.641-3.031 2.041-.083.118-.165.223-.237.339a27 27 0 0 0-1.631-1.602c.452-.707.925-1.408 1.388-2.12.173-.046.175-.214.175-.214.719-1.072 1.449-2.16 2.2-3.257 1.87-2.641 3.248-4.806 5.14-7.65.883-2.396 2.964-3.725 3.504-6.39l-.864.26c-1.058 1.387-2.258 2.995-3.304 4.186-.512.513-1.032.835-1.372 1.296-.001.17-.001.17-.174.221s-.348.281-.35.633c-.328.276-.678.909-1.18 1.402-.348.28-.523.681-.862 1.138 0 0-.164.229-.339.446l.002-.169a5477 5477 0 0 0-6.678 8.08 27 27 0 0 0-1.625-1.037c.268-.477.535-.953.813-1.445.105-.373.219-.749.334-1.138l.165-.225c.063-.123.114-.257.176-.392l.001-.18c.054-.182.115-.377.167-.57.22-.68.449-1.387.668-2.093.062-.075.113-.15.175-.227-.171-.298-.167-.655.158-.749l.004-.525c.004-.346.006-.524.168-.572.063-.124.114-.26.177-.396.32-.786.663-1.589 1.004-2.392l.003-.359c.002-.168.165-.217.165-.217.103-.257.217-.53.331-.803.061-.018.122-.034.173-.051.848-1.832 1.869-3.708 3.545-5.107.515-.866 2.373-.903 1.693-2.109-1.007.129-1.854.751-2.691 1.358l-.173.052c-1.176 1.008-2.353 2.013-3.507 3.009-.83.942-1.488 1.831-2.16 3.254-.492.669-.824 1.469-1.318 2.301-.166.403-.332.796-.499 1.365l-.152.045c-.394.87-.786 1.74-1.159 2.593l-.001.178c-.114.268-.229.523-.342.78-.364.978-.94 1.965-1.567 2.857a29 29 0 0 0-3.301-1.022c.451-1.707.901-3.416 1.374-5.135l.001-.164c.209-.636.437-1.275.655-1.915 0 0 .337-1.31.659-2.25-.163.049.001-.178.167-.568l.003-.354c.166-.391.335-1.135.493-1.877.163-.05.164-.215.164-.215l.002-.177c.333-.961.659-2.274.993-3.415.168-.571.336-1.308.339-1.651.154-.226.156-.402.156-.402.167-.573.17-.916.17-.916.063-.184.115-.378.177-.573-.17-.302.169-.751-.152-.988-.175.054-.326.104-.489.156-.112.036-.225.071-.326.106-.166.453-.332.906-.488 1.356 0 0-.002.177-.164.229a5150 5150 0 0 0-5.684 14.085c-.56 1.36-1.099 2.717-1.639 4.056a26 26 0 0 0-3.044-.148 21 21 0 0 1-.003-.827l.009-1.018q.082-.7.165-1.397l.164-.221c.005-.509.161-1.063.318-1.619.152-.044.154-.218.154-.218.004-.497.486-2.168.486-2.168.214-1.301.438-2.618.652-3.935.009-1.021.019-2.029.027-3.062-.147-.623-.304-1.256-.441-1.892a81 81 0 0 1-.302-1.427 10 10 0 0 1-.309-.58l-.153.049a3 3 0 0 1-.304-.062q.077-.025.152-.051c-.313-.069-.608.028-.773.253.441 1.71.271 3.794.11 5.873-.05.017-.11.033-.161.049.154.794-.317 1.448-.627 2.051a2.7 2.7 0 0 1-.48 1.505l-.002.162q-.322.612-.629 1.201l-.002.174c-.001.172-.003.333-.157.553a7 7 0 0 0-.145.389s-.003.161-.164.209l-.156.392-.002.16-.001.174q-.078.109-.154.219l-.003.333s-.153.046-.154.218a6 6 0 0 0-.146.365l-.001.172-.153.046-.001.161c-.158.608-.326 1.217-.483 1.825a173 173 0 0 0-.463 1.816l-.186.468c-.925.144-1.852.323-2.766.535-.311-5.026-.325-10.332-.666-15.406" style="fill:#cc9b05" transform="matrix(.6408 0 0 .6408 -65.02 -100.054)"></path><path d="M355.468 407.949c-.44-.685.481-2.822-1.015-2.328-.934 4.621-.084 9.496-.865 14.042-.014 1.529-.148 3.026-.273 4.496-.875.291-1.751.614-2.597.965-.73-4.621-3.55-7.179-3.787-12.274l-.143.047c.055-.34.098-.679.151-1.029.104-.412.2-.823.306-1.246.093-.241.188-.485.29-.741l.006-.66.005-.491-.723.236c-1.016 1.312-1.176 3.32-1.912 5.02-.021 2.447-.044 4.895.65 6.634.147.445.283 1.226.565 1.464-.012 1.305.7 2.24.545 3.757.118.31.187.702.233 1.112a40 40 0 0 0-3.43 2.103c-2.14-4.656-4.39-9.448-6.845-13.861-.274.087-.415-.021-.693.386.264 1.035.392 2.596.933 3.373.274 1.028.542 1.753.818 2.629.252 1.2.528 2.09 1.079 2.888.13 1.407.67 2.21.942 3.413.296 1.101.59 2.212.885 3.315a44 44 0 0 0-2.773 2.409c-.293-.223-.718-.288-.795-.779-.418-.841-1.234-1.564-1.355-2.65-1.092-1.584-1.754-3.621-3.225-4.756-.545-.31-1.08-.632-1.626-.779 0 0-.265.081-.131-.119l-.397.121c.002-.15-.141-.108-.139-.27-.092.027-.173.054-.255.079-.141-.119-.273-.078-.272-.229-.67.046-1.471-.019-2.135.498-.151.985.393.349.785.698.392.352.796.55 1.056.943q.139-.042.275-.082c.125.745.925.977 1.182 1.686 1.347 1.51 1.585 5.232 2.644 7.16.124.897.781 1.19.801 2.259a40 40 0 0 0-1.642 1.999l-.948-.754c-1.338-1.203-2.407-2.011-3.86-2.854-.402-.357-.782-1.038-1.441-1.01-1.044-1.243-2.336-1.96-3.503-3.016-.784.232-.771-1.177-1.683-.282l-.008.782c2.05 2.189 3.859 3.994 5.95 6.231a1 1 0 0 0 .12.114c1.105 1.193 2.221 2.401 3.337 3.605a52 52 0 0 0-1.187 1.887c-.202-.054-.619.035-.729-.063-.142-.124 0 0-.264-.092-.271-.25-.537-.017-.535-.178.001-.149-.396-.044-.672.028-.119-.128-1.174-.314-1.174-.314l-1.057.123c-.041.012-.092.024-.132.036a3 3 0 0 1-.385-.045.6.6 0 0 0 .13.113c-.779-.257-1.568-.513-2.348-.767l-.002.159c-1.151-.467-2.436-1.032-3.188-2.053l.123-.034a8 8 0 0 1-.37-.673c-.132.037-.132.037-.13-.111-.25-.392-.633-.745-.492-1.706-.213.062-.438.123-.641.182.112 1.957.091 4.275 1.219 5.182.76 1.181 2.038 2.388 3.446 2.638.818.41 1.637.82 2.466 1.222.303.135.606.268.92.39.131.125.131.125.263.091.303.242.605.475.917.704 0 .011.011.009.011.007a56 56 0 0 0-1.516 3.552c-.041-.001-.071-.015-.111-.026l-.133.033a8 8 0 0 1-.647-.146l-.266.066a28 28 0 0 1-1.044-.206l.002-.159-.132.033c-.65-.038-1.299-.075-1.938-.125.002-.158-.131-.125-.131-.125-.395-.048-.77-.11-1.155-.17l-.133.033a9 9 0 0 1-.384-.22l-.122.033a2 2 0 0 0-.122.031s-.131-.115-.263-.081c-.213.002-.427.004-.63.004l.002-.157-.132.033c-.214.013-.427.015-.641.016a34 34 0 0 1-1.256-.293l-.132.034c-.121-.126-.243-.094-.243-.094l-3.739-.555-.004.311-.133.033-.004.456c-.002.154.131.122.131.122l-.002.145c3.965 1.477 8.022 2.977 12.15 4.493a50 50 0 0 0-1.001 3.834c-.144.034-.295.059-.448.094l-.132.031-.132.031a3 3 0 0 1-.386-.058l-.651.152s-.132.03-.131-.128l-.254.061c-.174-.012-.355-.023-.519-.037a4 4 0 0 1-.385-.058l-.516-.192c-.214.009-.427.006-.63.002l-.518-.036c-.253-.033-.507-.079-.76-.124l-.385-.065c-.122-.022-.255-.044-.375-.067-.082.021-.174.042-.256.062l-.509.12a1 1 0 0 1-.12-.116q-1.65.392-3.267.777c-.747.634-1.37.927-2.115 1.413-.495.714-1.359.917-1.116 1.92.112-.027.234-.057.356-.084.748-.628 2.113-1.103 3.23-1.208l-.132.029c.131.022.253.046.375.068.953.141 1.916.272 2.89.402.416.112.831.205 1.267.304.333.187.666.372 1.01.545.243.102.506.2.76.289.344.08.679.162 1.022.231.385.071.771.143 1.156.204.294.018.599.034.903.051a63 63 0 0 0-.24 2.867c-4.604 1.435-9.147 2.772-13.527 4.193l-.006.607a40.3 40.3 0 0 0 7.442-.831c1.135.219 2.544-.541 3.699-.322a13.4 13.4 0 0 1 2.341-.506c.031.936.073 1.869.156 2.773a13.3 13.3 0 0 0-3.436 2.405c-.776.471-1.416 1.521-2.189 1.674-1.396 1.508-3.532 1.926-5.271 2.11-.374-.226-.983-.26-1.225-.511l-.732.145c-.373.825.599 1.087.717 1.527.241.252.616.335.849.434l.12.132.133-.025.122-.024c.161.073.323.146.495.205.122-.023.122-.023.121.132l.132-.024.112-.022c2.884.064 5.804-1.414 7.992-2.92.399-.393 1.036-.043 1.297-.717.477.012.935-.118 1.374-.279.223 1.135.497 2.238.822 3.291a2381 2381 0 0 1-6.637 5.538c-.296.211-.593.42-.89.619l.123-.022s-.124.18-.246.201c-.511.236-1.017 1.097-1.65 1.51-1.022.634-2.513 1.348-3.015 2.8a.803.803 0 0 0 1.11-.189c.5-.229 1-.47 1.369-.834a120 120 0 0 0 1.776-.918l.254-.044c.256-.201.637-.57 1.024-.793.837-.45 1.695-.904 2.563-1.37.122-.022.257-.204.391-.375 1.653-.936 3.33-1.88 5.005-2.829a31 31 0 0 0 1.495 3.065c-.288.338-.586.667-.914.968-.41.389-.942.789-1.332 1.163-.081.015-.173.03-.265.045 0 0-.259.522-.787.611a2.2 2.2 0 0 0-.646.574s-.267.353-.4.374c-.132.022-.389.371-.389.371l-.399.384c-.216.194-.441.39-.646.571-.133.074-.265.148-.388.211 0 0-.001.158-.267.201-.124.178-.257.347-.391.527-.122.021-.38.378-.38.378-.185.187-.35.372-.523.546-.124.23-.259.452-.393.672-.124.23-.258.461-.382.68a9 9 0 0 1-.392.523c-.085.381-.18.752-.255 1.12l-.001.168c-.053.164-.095.328-.137.48l-.133.021c-.011 1.07-.396 2.059-.153 3.248.761.192.516-.84.906-1.212.515-1.769 2.075-3.406 3.378-4.696 1.175-.651 2.086-1.422 3.261-2.079.942-.78 1.988-.629 2.802-1.863l.132-.021c.349-.282.718-.568 1.075-.854a28 28 0 0 0 1.587 1.979c-1.629 2.526-3.248 5.047-4.866 7.54-.391.366-.668.726-.805 1.214-.836 1.267-1.681 2.542-2.506 3.789-.051.06-.092.119-.134.177l.133-.018c-.261.648-.915 1.054-.668 1.792 1.051-.445 1.708-1.158 2.489-2.039.937-1.225 1.463-2.097 2.275-3.149.798-.424 1.337-1.604 2.003-2.173.943-.922 1.493-2.111 2.436-2.888a22 22 0 0 1 1.687-2.183 21 21 0 0 0 1.623 1.366l-.32.678a65 65 0 0 1-.432 1.508c-.231.934-.475 1.867-.696 2.799-.577 3.108-1.956 5.992-3.582 8.093-.811.735-2.135 1.049-2.541 2.2 2.914.281 5.501-2.408 6.887-4.979.686-.566.838-1.543 1.383-2.247.188-.448.374-.898.562-1.371l.002-.164c.052-.158.094-.328.146-.498l.132-.02c.042-.158.096-.329.138-.499.145-.281.278-.562.424-.854.002-.164.003-.317.146-.501l.002-.164s.425-.858.559-1.042c.092-.013.421-.399.637-.672.981.526 1.993.994 3.036 1.396-.895 3.326-1.779 6.628-2.663 9.917-.664 2.598-1.339 5.2-2.013 7.784.05.049.09.099.141.148l-.002.152.144-.014q.121-.015.274-.029c.135-.332.28-.664.426-1.007l.001-.154c.083-.162.187-.337.279-.511 0 0 .002-.164.145-.18.005-.482.428-1.175.707-1.698.611-1.354 1.234-2.71 1.847-4.08q1.077-2.642 2.153-5.298l-.144.019c.563-1.355 1.123-2.736 1.684-4.109.994.261 2.029.45 3.096.595.083.914-.06 1.981-.198 2.758-.051.063-.093.124-.144.175-.16.901-.312 1.79-.451 2.677-.105.348-.199.683-.305 1.018-.147.62-.306 1.24-.443 1.856-.606 3.006-.495 6.438 1.219 8.051-.149.674.562.925 1.142.71-.553-1.753-.83-3.688-.516-5.866.142-.016.146-.34.147-.508s.135-.34.136-.507l.002-.168.003-.325.154-.186c.146-.396.292-.795.447-1.204.083-.223.188-.447.291-.684l.143-.018.002-.168c.052-.163.104-.338.157-.512.394-.866.788-1.733 1.191-2.614.521-1.348.89-2.778 1.157-4.266a31 31 0 0 0 2.542-.152 87 87 0 0 1-.004 1.617c.437 1.109-.025 2.831.412 3.932.104 4.153-.077 8.671.772 12.573 1.355-.292.324-2.188.935-3.263.359-5.121.497-10.209.765-15.283.856-.161 1.721-.37 2.577-.6.135.84.25 1.683.69 2.495-.01 1.009.599 1.263.886 2.087 1.06 2.063 2.274 3.771 2.56 7.142.444 1.648-.8 3.13-.511 4.967.926-.093 1.088-1.126 1.713-1.711l.002-.163c.104-.172.206-.356.319-.542l.002-.174.143-.015c.054-.342.117-.685.171-1.037.106-.464.213-.927.328-1.403l.001-.163c.289-5.133-1.93-8.36-2.267-12.872a40 40 0 0 0 3.756-1.771c.985 2.446 1.91 4.887 3.425 7.206.477 1.323 1.264 2.083 1.569 3.079.629 1.313 1.269 2.616 1.9 3.77.472.645.461 1.86 1.603 1.562-.9-2.973-1.78-5.923-2.669-8.874-.16-.38-.319-.759-.468-1.163l.001-.176c-.158-.556-.316-1.11-.463-1.666-.48-.97-.776-1.959-.931-2.97l.001-.176q-.236-.652-.476-1.304c-.14-.319-.3-.647-.297-.987a3 3 0 0 1-.06-.178 39 39 0 0 0 3.447-2.54c1.621 1.817 3.016 3.867 3.812 6.046.316 1.002.959 1.963 1.612 2.758 1.477 1.04 1.957 1.864 3.273 2.407.436.187.892.359 1.338.533.325.081.649.161.984.241l.173-.021c.673-.262 1.19-.143 1.691-.565.179-.554-.343-.309-.665-.618l-.173.021a54 54 0 0 1-1.671-.865c-1.487-.868-2.143-2.556-3.117-4.005-.475-1.512-.795-3.387-1.442-4.88.006-.691-.153-1.204-.475-1.681-.161-.154-.319-.654-.317-.832-.172-.142-.17-.32-.331-.474a4 4 0 0 1-.323-.297c-.099-.27-.209-.55-.318-.829-.091-.105-.171-.224-.262-.341a59 59 0 0 0 2.134-2.289c.637.509 1.272 1.019 1.918 1.528l.151.156c.061-.009.112-.018.173-.026.11.162.221.325.331.477.162.154.496.271.657.427.495.406.99.8 1.495 1.194 1.498.657 2.834 2.603 4.18 3.308 1.707 1.366 3.228 2.949 5.299 3.383l.003-.355c-2.224-2.751-4.601-5.455-6.95-7.784l-.171-.144c.333.313.666.613 1.01.913-.395-.352-.799-.703-1.182-1.067-.17-.325-.318-.663-.664-.78a812 812 0 0 1-3.806-4.254 48 48 0 0 0 1.851-2.627c.982.462 2.058.792 3.193 1.004 2.019.386 4.239 1.099 6.308 1.673.869.586 1.914.779 2.428 1.423.516.277 1.218 1.438 1.915 1.874.34.862.512 2.095 1.567 2.313.371-1.873-.154-3.612-.661-4.98-.878-.775-1.57-1.948-2.62-2.677-.98-.676-1.961-1.361-2.94-2.044a1.5 1.5 0 0 0-.164.211c-.525-.45-1.216-.52-1.722-.787-.789-.329-1.589-.668-2.39-1.018-.505-.446-.836-.923-1.342-1.186-.252-.222-.494-.434-.726-.659a49 49 0 0 0 1.79-3.884c1.409.315 2.84.618 4.26.924.517.153 1.034.294 1.562.434.518.093 1.034.186 1.563.265 0 0 .173-.031.172.154q.165-.03.346-.062c.183-.031.183-.031.356-.063.639.135 1.277.269 1.938.389.343.299.87.393 1.398.487-.172-.093-.354-.187-.526-.28 2.071.249 4.152.516 6.274.753l.732-.125c.235-.14.48-.307.726-.474l.193-.033c-1.154-.429-2.3-.845-3.444-1.259l-.185.032-3.029-1.109-.173.03-.182-.153c-.831-.274-1.652-.547-2.462-.833l-.184.032c-.173.032-.173.032-.172-.142l-.183.033c-.519-.091-.699-.243-.871-.384a46 46 0 0 1-.701-.057c-.749-.281-1.499-.562-2.248-.853a3 3 0 0 1-.172-.151 21 21 0 0 1-1.044-.345l-.183.033c-.396-.158-.79-.316-1.186-.486a33 33 0 0 1-1.226-.415 52 52 0 0 0 1.131-4.03 29 29 0 0 1 1.505-.136l.692-.135c.527.081 1.574.063 1.907.353.873.139 1.744.265 2.628.391.578.074 1.156.148 1.756.207l2.31-.441 1.79-.153c.663-.302 1.326-.615 2.009-.933 0 0 .184-.035.725-.326.368-.245 1.092-.573 1.092-.573.491-.332.98-.679 1.481-1.026.234-.096.479-.207.734-.318.369-.45.92-.746.57-1.409-1.66.502-3.325 1.567-5.123 1.556-.18-.339-.742-.043-1.096-.161-.365-.102-.712-.034-.894-.185l.002-.188c-2.202-.396-4.393-.8-6.554-1.227a42 42 0 0 0-1.033-.331c-.873-.191-1.735-.187-2.779-.51a13 13 0 0 1-.751-.077c.12-1.135.201-2.272.24-3.402 3.422-1.019 6.885-2.05 10.398-3.098l5.091-1.462c.612-.257 1.213-.513 1.845-.772.357-.14.714-.281 1.091-.424.184-.104.377-.208.562-.312.063-.316.127-.634.201-.964-3.013.541-5.993 1.064-8.934 1.579l-.895.195q-2.945.456-5.828.903a51 51 0 0 1-3.551.643 48 48 0 0 0-.213-2.512 8.6 8.6 0 0 0 2.053-1.34c2.606-.772 4.387-3.518 6.518-4.565.72-1.071 2.146-1.59 3.043-1.986.552-.489 1.647-.195 2.008-.83 1.997-.845 3.466-.258 5.3-.877-.182-.322-.179-.701-.531-.983-.133.093-.255.186-.378.277a16 16 0 0 1-.91-.526l-1.657.203c-.427.051-.854.09-1.271.127l-1.811.24c-.854.142-1.688.277-2.512.413l-2.496.965c-.885.21-2.108.673-2.813 1.209-.881.919-2.105 1.573-3.155 1.99-.773.242-1.528.479-2.281.704a34 34 0 0 0-1.128-3.605c2.943-2.161 6.568-4.52 9.259-6.974.051-.012.112-.026.173-.042 2.679-2.123 5.387-4.267 8.126-6.444-.061-.098-.12-.207-.181-.317l.003-.376-.355.092-.734.379c-.173.045-.358.28-.724.375-.378.222-.735.438-1.093.655-1.634 1.155-3.771 1.704-5.194 3.144-2.478 1.173-5.267 3.311-7.866 4.497-.768.764-1.818 1.306-2.799 1.861a27 27 0 0 0-1.791-3.111c2.836-2.817 5.56-5.631 8.818-7.895 1.223-1.775 2.471-2.836 3.54-4.555l.001-.187a335 335 0 0 1 1.432-3.657c-.043-.888-.098-1.775-.151-2.676l-.355.1c-.001.174-.001.174-.177.409-.001.186-.186.41-.359.646-.002.186-.179.592-.179.592-.176.421-.361.83-.537 1.237 0 0-.351.64-.537 1.061-.001.172-.882 1.144-.882 1.144-.655.61-1.3 1.205-1.935 1.796a60 60 0 0 1-5.721 4.216c-1.029.457-1.707 1.339-2.553 1.746-1.183.494-2.197 1.641-3.033 2.042-.082.117-.164.222-.236.338a26 26 0 0 0-1.632-1.602c.453-.707.926-1.407 1.39-2.12.173-.046.174-.214.174-.214.72-1.072 1.45-2.16 2.201-3.256 1.868-2.641 3.247-4.807 5.14-7.651.882-2.395 2.964-3.725 3.504-6.39l-.865.26c-1.057 1.387-2.258 2.995-3.304 4.186-.511.514-1.032.835-1.371 1.297-.001.169-.001.169-.174.22s-.348.281-.352.633c-.326.276-.677.909-1.179 1.403-.347.28-.522.68-.862 1.137 0 0-.163.229-.339.446l.002-.169a6191 6191 0 0 0-6.678 8.08 26 26 0 0 0-1.626-1.037c.27-.476.537-.953.815-1.445.104-.373.219-.749.334-1.138l.165-.225c.062-.123.113-.257.176-.392l.001-.18c.052-.182.115-.376.167-.569.219-.681.449-1.388.668-2.094.061-.075.113-.15.174-.227-.17-.298-.167-.655.159-.748l.004-.525c.003-.346.005-.524.168-.572.063-.124.113-.26.176-.396.321-.786.663-1.589 1.004-2.393l.003-.359c.002-.167.165-.216.165-.216.104-.258.218-.531.331-.803q.095-.028.173-.052c.849-1.831 1.869-3.708 3.546-5.106.515-.866 2.373-.904 1.692-2.11-1.006.129-1.854.752-2.691 1.358l-.174.053c-1.175 1.008-2.351 2.013-3.506 3.009-.831.941-1.487 1.83-2.16 3.253-.492.669-.823 1.469-1.317 2.301-.166.403-.332.797-.499 1.365l-.153.045c-.393.871-.786 1.74-1.159 2.593l-.001.178c-.113.268-.228.523-.342.781-.364.977-.94 1.964-1.568 2.857a28 28 0 0 0-3.3-1.023c.451-1.707.902-3.416 1.374-5.135l.001-.163c.208-.637.438-1.276.656-1.916 0 0 .336-1.309.659-2.25-.163.049.001-.178.167-.567l.003-.354c.166-.39.334-1.135.493-1.877.163-.05.164-.215.164-.215l.002-.176c.333-.961.659-2.274.993-3.416.167-.571.336-1.308.339-1.651.153-.226.155-.402.155-.402.167-.572.171-.915.171-.915.062-.185.114-.379.177-.574-.17-.301.169-.751-.154-.988l-.488.156c-.111.036-.224.071-.325.106-.166.453-.332.906-.488 1.356 0 0-.002.177-.165.229a4847 4847 0 0 0-5.683 14.085c-.561 1.361-1.1 2.717-1.64 4.056a26 26 0 0 0-3.044-.147 25 25 0 0 1-.003-.828l.009-1.018.165-1.396.164-.222c.004-.508.162-1.063.319-1.619.151-.044.154-.218.154-.218.004-.497.485-2.168.485-2.168.214-1.301.438-2.618.653-3.935.009-1.021.018-2.029.025-3.062-.146-.623-.303-1.255-.439-1.892a72 72 0 0 1-.302-1.426c-.11-.186-.21-.383-.31-.58l-.152.048a3 3 0 0 1-.305-.062q.078-.024.153-.05c-.314-.07-.609.027-.774.252.442 1.711.272 3.794.111 5.873-.05.017-.112.033-.163.05.156.794-.316 1.447-.626 2.05a2.7 2.7 0 0 1-.479 1.506l-.002.161c-.217.41-.424.807-.63 1.202l-.002.173c-.001.172-.003.333-.156.553a7 7 0 0 0-.146.389s-.002.161-.165.209l-.155.393-.002.161-.001.172-.153.219-.003.333s-.153.046-.154.219a6 6 0 0 0-.146.364l-.001.172-.152.047-.001.16c-.158.609-.326 1.217-.483 1.825q-.238.91-.463 1.818l-.188.466c-.924.144-1.85.324-2.765.537-.31-5.03-.324-10.336-.665-15.411" style="fill:#fbc928" transform="matrix(.6408 0 0 .6408 -65.02 -100.054)"></path><path d="m190.739 631.642 5.37 9.657-.733.613c-.529-.59-.964-.879-1.301-.879q-.509 0-2.854 1.631c-3.239 2.232-5.957 3.747-8.176 4.522-2.207.774-4.838 1.168-7.894 1.168-6.073 0-11.067-1.724-14.961-5.182-2.304-2.013-4.107-4.511-5.427-7.495-1.523-3.399-2.285-7.17-2.285-11.275 0-5.599 1.369-10.468 4.097-14.597 4.106-6.21 10.305-9.32 18.605-9.32 3.055 0 5.668.382 7.855 1.155 2.179.765 4.907 2.279 8.185 4.534 1.562 1.064 2.516 1.585 2.854 1.585.337 0 .771-.29 1.301-.88l.733.613-5.37 9.658-.761-.613c.038-.359.058-.66.058-.914 0-.648-.231-1.272-.704-1.839q-.709-.867-2.516-2.082c-3.326-2.255-6.854-3.388-10.585-3.388-4.405 0-7.914 1.317-10.536 3.967-3.085 3.088-4.627 7.135-4.627 12.12s1.542 9.032 4.627 12.121c2.622 2.647 6.131 3.967 10.536 3.967 3.73 0 7.259-1.134 10.585-3.39q1.807-1.215 2.516-2.082c.473-.577.704-1.19.704-1.85 0-.243-.02-.544-.058-.879zm31.243-31.157c6.719 0 12.04 2.174 15.981 6.534 4.155 4.568 6.237 10.454 6.237 17.684 0 4.429-.993 8.57-2.988 12.398-3.903 7.506-10.295 11.253-19.174 11.253-6.67 0-11.962-2.174-15.904-6.534-2.103-2.325-3.702-5.124-4.802-8.374-.954-2.868-1.436-5.888-1.436-9.044 0-4.626.993-8.859 2.969-12.699 3.78-7.344 10.152-11.079 19.117-11.218m.029 7.83c-3.674 0-6.729 1.307-9.179 3.932-2.9 3.088-4.347 7.147-4.347 12.155s1.446 9.066 4.347 12.155c2.449 2.625 5.524 3.933 9.227 3.933 3.711 0 6.776-1.308 9.206-3.933 1.445-1.551 2.563-3.458 3.335-5.726a19.4 19.4 0 0 0 1.012-6.222c0-5.239-1.446-9.368-4.347-12.363-2.468-2.578-5.553-3.885-9.254-3.931m38.491 20.459v15.243c0 .682.136 1.203.415 1.572.271.382.732.659 1.397.867v1.087h-12.04v-1.087c.685-.23 1.147-.52 1.417-.879.261-.357.396-.879.396-1.561v-39.16c0-.706-.135-1.238-.396-1.597-.27-.358-.732-.647-1.417-.88v-1.087h24.071c2.805 0 5.031.232 6.68.684a10.9 10.9 0 0 1 4.358 2.336c1.301 1.145 2.322 2.659 3.055 4.533q1.099 2.914 1.099 6.176c0 3.111-.693 5.841-2.092 8.199-1.205 2.001-2.795 3.436-4.781 4.28-1.995.844-4.762 1.272-8.318 1.272h-13.844zm0-7.622h12.851c2.563 0 4.356-.324 5.397-.983q.984-.641 1.592-2.047c.404-.937.606-1.978.606-3.1 0-1.11-.202-2.14-.606-3.076q-.608-1.406-1.592-2.047c-1.021-.659-2.813-.983-5.397-.983h-12.851zm58.215 14.596h-17.525l-2.594 6.512c-.366.901-.539 1.607-.539 2.128 0 .994.626 1.688 1.898 2.069v1.087h-12.763v-1.087c.751-.185 1.33-.497 1.725-.947.396-.451.85-1.33 1.351-2.649l14.18-35.528c.453-1.134.675-2.036.675-2.718 0-1.041-.54-1.781-1.639-2.233v-1.087h13.669v1.087c-1.109.382-1.668 1.053-1.668 2.001 0 .648.183 1.4.54 2.233l14.691 35.644c.616 1.516 1.167 2.544 1.639 3.101.472.555 1.099.913 1.889 1.098v1.087h-14.17v-1.087c1.243-.243 1.86-.948 1.86-2.104 0-.475-.184-1.168-.568-2.094zm-2.42-6.338-6.256-16.481-6.353 16.481zm63.931 6.338h-17.525l-2.593 6.512c-.367.901-.54 1.607-.54 2.128 0 .994.626 1.688 1.899 2.069v1.087h-12.764v-1.087c.752-.185 1.33-.497 1.726-.947.396-.451.849-1.33 1.35-2.649l14.18-35.528c.453-1.134.676-2.036.676-2.718 0-1.041-.54-1.781-1.64-2.233v-1.087h13.669v1.087c-1.107.382-1.667 1.053-1.667 2.001 0 .648.184 1.4.539 2.233l14.691 35.644c.617 1.516 1.167 2.544 1.639 3.101.472.555 1.099.913 1.89 1.098v1.087h-14.171v-1.087c1.244-.243 1.861-.948 1.861-2.104 0-.475-.184-1.168-.569-2.094zm-2.42-6.338-6.256-16.481-6.354 16.481zm44.95 18.134-14.209-31.955v28.394c0 .706.135 1.238.396 1.596.27.359.742.648 1.417.879v1.087h-11.337v-1.087c.685-.23 1.146-.52 1.417-.879.261-.357.396-.89.396-1.596v-39.16c0-.684-.135-1.203-.396-1.562-.271-.358-.732-.647-1.417-.88v-1.087h14.864v1.087c-.887.268-1.329.892-1.329 1.862q.002.677.395 1.562l10.507 23.895 10.643-23.489c.473-1.041.703-1.793.703-2.267 0-.926-.463-1.446-1.406-1.563v-1.087h14.574v1.087c-.675.232-1.146.521-1.417.88q-.393.536-.395 1.562v39.16q.002 1.058.395 1.596c.271.359.742.648 1.417.879v1.087h-12.04v-1.087c.665-.208 1.129-.486 1.398-.867.279-.369.414-.901.414-1.607V615.59zm42.386-20.297v12.676h24.794c.568 0 1.002-.161 1.301-.474.299-.324.54-.891.732-1.7h.906v11.97h-.906c-.192-.821-.434-1.377-.732-1.699-.299-.313-.732-.476-1.301-.476h-35.021v-1.087c.684-.23 1.147-.52 1.417-.879.26-.357.396-.89.396-1.596v-39.125c0-.706-.136-1.238-.396-1.597-.27-.358-.733-.647-1.417-.88v-1.087h34.346q.853 0 1.302-.485c.299-.336.54-.901.732-1.712h.906v11.958h-.906c-.192-.797-.434-1.341-.732-1.665-.3-.312-.732-.474-1.302-.474h-24.118v10.977h15.646c.568 0 1.002-.162 1.301-.476.299-.324.54-.89.733-1.7h.906v11.704h-.906c-.193-.798-.435-1.353-.733-1.677-.299-.335-.732-.497-1.301-.497zm43.947 1.423v15.348c0 .682.135 1.203.415 1.572.271.381.732.659 1.397.867v1.087h-12.04v-1.087c.685-.23 1.146-.52 1.417-.879.261-.357.396-.879.396-1.561v-39.16c0-.706-.135-1.238-.396-1.597-.271-.358-.732-.647-1.417-.88v-1.087h24.119c2.939 0 5.272.209 6.988.613 1.726.405 3.229 1.11 4.512 2.128 1.484 1.18 2.593 2.775 3.335 4.776.694 1.943 1.042 4.025 1.042 6.234 0 7.552-3.49 11.97-10.479 13.253l7.49 12.77c1.311 2.244 2.285 3.678 2.892 4.325.617.636 1.36.995 2.246 1.063v1.087H527.06v-1.087q1.446-.278 1.446-1.214 0-.625-1.331-2.949l-7.808-13.624h-10.276zm0-7.622h12.994c1.919 0 3.278-.068 4.068-.208a5.5 5.5 0 0 0 2.169-.844c1.437-.926 2.149-2.591 2.149-5.021 0-2.417-.713-4.082-2.149-5.008a5.5 5.5 0 0 0-2.159-.867c-.761-.127-2.121-.185-4.078-.185h-12.994zm38.358 22.934v-39.16c0-.684-.135-1.203-.396-1.562-.269-.358-.731-.647-1.417-.88v-1.087h12.04v1.087c-.674.209-1.146.486-1.417.868-.26.37-.395.89-.395 1.573v39.16c0 .706.135 1.238.415 1.607.27.381.731.659 1.396.867v1.087h-12.04v-1.087c.686-.23 1.148-.52 1.417-.879.262-.355.397-.888.397-1.594m54.503-12.34 5.369 9.657-.732.613c-.53-.59-.964-.879-1.302-.879-.337 0-1.291.544-2.854 1.631-3.238 2.232-5.957 3.747-8.175 4.522-2.207.774-4.839 1.168-7.894 1.168-6.074 0-11.067-1.724-14.961-5.182-2.305-2.013-4.107-4.511-5.428-7.495-1.523-3.399-2.284-7.17-2.284-11.275 0-5.599 1.369-10.468 4.097-14.597 4.106-6.21 10.305-9.32 18.604-9.32 3.057 0 5.67.382 7.857 1.155 2.178.765 4.907 2.279 8.184 4.534 1.563 1.064 2.517 1.585 2.854 1.585s.771-.29 1.302-.88l.732.613-5.369 9.658-.762-.613c.039-.359.058-.66.058-.914 0-.648-.231-1.272-.704-1.839q-.707-.867-2.516-2.082c-3.325-2.255-6.854-3.388-10.584-3.388-4.405 0-7.914 1.317-10.536 3.967-3.085 3.088-4.627 7.135-4.627 12.12s1.542 9.032 4.627 12.12c2.622 2.648 6.131 3.968 10.536 3.968 3.73 0 7.259-1.134 10.584-3.39q1.808-1.215 2.516-2.082c.474-.577.704-1.19.704-1.85 0-.243-.019-.544-.058-.879zm38.644 4.106h-17.523l-2.594 6.511c-.366.902-.539 1.608-.539 2.128 0 .995.626 1.688 1.898 2.07v1.087h-12.764v-1.087c.752-.185 1.331-.497 1.726-.948.396-.45.849-1.329 1.351-2.648l14.18-35.528c.453-1.134.674-2.036.674-2.718 0-1.041-.539-1.781-1.638-2.233v-1.087h13.669v1.087c-1.109.382-1.668 1.053-1.668 2.001 0 .648.183 1.4.54 2.233l14.69 35.644c.617 1.516 1.166 2.544 1.64 3.101.472.555 1.099.913 1.889 1.098v1.087h-14.17v-1.087c1.243-.243 1.86-.948 1.86-2.104 0-.475-.184-1.168-.568-2.094zm-2.419-6.338-6.256-16.481-6.353 16.481z" style="fill:#05689d" transform="matrix(.6408 0 0 .6408 -65.02 -100.054)"></path><path d="m188.788 628.513 5.369 9.657-.733.613c-.529-.589-.964-.878-1.301-.878s-1.292.543-2.853 1.63c-3.239 2.232-5.958 3.747-8.175 4.522-2.207.774-4.84 1.168-7.896 1.168-6.073 0-11.065-1.724-14.961-5.182-2.304-2.012-4.105-4.51-5.427-7.494-1.523-3.4-2.285-7.171-2.285-11.275 0-5.599 1.369-10.468 4.097-14.597 4.107-6.211 10.306-9.322 18.605-9.322 3.056 0 5.668.383 7.855 1.157 2.18.764 4.907 2.278 8.186 4.533 1.561 1.064 2.516 1.585 2.853 1.585s.771-.289 1.301-.879l.733.613-5.369 9.656-.762-.612c.039-.359.058-.659.058-.914 0-.647-.23-1.272-.704-1.839q-.708-.867-2.516-2.081c-3.326-2.255-6.854-3.39-10.584-3.39-4.405 0-7.914 1.319-10.537 3.968-3.084 3.088-4.627 7.136-4.627 12.12s1.543 9.032 4.627 12.12c2.623 2.648 6.132 3.968 10.537 3.968 3.73 0 7.258-1.134 10.584-3.39q1.808-1.213 2.516-2.082c.474-.578.704-1.19.704-1.85 0-.243-.019-.544-.058-.879zm31.242-31.157c6.719 0 12.04 2.175 15.983 6.534 4.154 4.568 6.236 10.455 6.236 17.684 0 4.43-.993 8.569-2.988 12.397-3.904 7.507-10.296 11.254-19.174 11.254-6.671 0-11.963-2.175-15.905-6.534-2.102-2.325-3.701-5.124-4.801-8.373-.954-2.869-1.437-5.888-1.437-9.044 0-4.627.993-8.86 2.969-12.699 3.78-7.344 10.152-11.08 19.117-11.219m.029 7.831c-3.673 0-6.729 1.307-9.178 3.932-2.901 3.088-4.348 7.147-4.348 12.156 0 5.007 1.446 9.066 4.348 12.154 2.449 2.625 5.524 3.933 9.226 3.933 3.712 0 6.777-1.308 9.206-3.933 1.446-1.55 2.563-3.458 3.336-5.725a19.4 19.4 0 0 0 1.012-6.222c0-5.239-1.446-9.368-4.348-12.364-2.468-2.579-5.552-3.886-9.254-3.931m38.492 20.459v15.243c0 .683.135 1.202.413 1.572.271.383.733.66 1.398.868v1.087h-12.04v-1.087c.684-.231 1.147-.521 1.417-.879.26-.359.396-.879.396-1.562v-39.161c0-.705-.136-1.237-.396-1.596-.27-.358-.733-.647-1.417-.879v-1.087h24.07c2.805 0 5.032.231 6.681.682a10.9 10.9 0 0 1 4.357 2.337c1.301 1.145 2.322 2.659 3.056 4.533q1.098 2.915 1.098 6.176c0 3.111-.692 5.841-2.091 8.2-1.205 2.001-2.796 3.436-4.782 4.279-1.995.844-4.761 1.271-8.318 1.271zm0-7.622h12.85c2.563 0 4.356-.324 5.397-.984q.983-.641 1.591-2.046c.404-.938.607-1.979.607-3.1 0-1.11-.203-2.141-.607-3.076q-.608-1.407-1.591-2.048c-1.021-.659-2.814-.983-5.397-.983h-12.85zm58.214 14.595H299.24l-2.593 6.511c-.366.902-.54 1.608-.54 2.128 0 .995.627 1.689 1.898 2.071v1.087h-12.763v-1.087c.752-.185 1.33-.498 1.727-.949.395-.45.848-1.33 1.349-2.647l14.18-35.529c.453-1.133.675-2.036.675-2.718 0-1.041-.54-1.781-1.639-2.232v-1.087h13.669v1.087c-1.107.382-1.667 1.052-1.667 2.001 0 .647.184 1.399.54 2.232l14.69 35.644c.618 1.516 1.167 2.545 1.639 3.101.473.555 1.099.914 1.89 1.099v1.087h-14.171v-1.087c1.244-.243 1.861-.949 1.861-2.104 0-.475-.183-1.168-.569-2.095zm-2.419-6.338-6.258-16.48-6.352 16.48zm63.93 6.338h-17.525l-2.593 6.511c-.366.902-.54 1.608-.54 2.128 0 .995.627 1.689 1.899 2.071v1.087h-12.764v-1.087c.752-.185 1.33-.498 1.727-.949.395-.45.848-1.33 1.349-2.647l14.182-35.529c.451-1.133.674-2.036.674-2.718 0-1.041-.54-1.781-1.639-2.232v-1.087h13.669v1.087c-1.108.382-1.668 1.052-1.668 2.001 0 .647.184 1.399.54 2.232l14.691 35.644c.617 1.516 1.166 2.545 1.639 3.101.473.555 1.099.914 1.89 1.099v1.087h-14.171v-1.087c1.243-.243 1.86-.949 1.86-2.104 0-.475-.183-1.168-.568-2.095zm-2.419-6.338-6.257-16.48-6.353 16.48zm44.949 18.135-14.209-31.955v28.394c0 .705.136 1.236.396 1.596.27.358.742.647 1.417.879v1.087h-11.336v-1.087c.684-.231 1.146-.521 1.417-.879.26-.359.395-.891.395-1.596v-39.161c0-.683-.135-1.203-.395-1.562-.271-.358-.733-.647-1.417-.879v-1.087h14.864v1.087c-.887.266-1.33.891-1.33 1.862 0 .451.135.971.395 1.561l10.507 23.895 10.644-23.489c.472-1.041.703-1.792.703-2.268 0-.925-.463-1.445-1.407-1.561v-1.087h14.575v1.087c-.675.231-1.147.521-1.417.879-.261.358-.396.879-.396 1.562v39.161c0 .705.135 1.236.396 1.596.27.358.742.647 1.417.879v1.087h-12.04v-1.087c.666-.208 1.128-.486 1.397-.868.28-.37.415-.901.415-1.606v-28.394zm42.387-20.297v12.675h24.793c.568 0 1.003-.162 1.302-.474.299-.324.54-.892.732-1.7h.906v11.97h-.906c-.192-.82-.434-1.376-.732-1.699-.299-.313-.733-.475-1.302-.475h-35.021v-1.087c.685-.231 1.147-.521 1.417-.879.261-.359.396-.891.396-1.596v-39.127c0-.705-.135-1.237-.396-1.596-.27-.358-.732-.647-1.417-.879v-1.087h34.347q.853 0 1.302-.486c.299-.335.54-.901.731-1.711h.907v11.958h-.907c-.191-.798-.433-1.342-.731-1.666-.299-.312-.733-.474-1.302-.474h-24.118v10.976h15.645c.569 0 1.003-.162 1.302-.474.299-.324.539-.891.732-1.7h.906v11.704h-.906c-.193-.798-.434-1.354-.732-1.677-.299-.335-.732-.497-1.302-.497h-15.646zm43.947 1.422v15.348c0 .683.135 1.202.414 1.572.271.383.733.66 1.398.868v1.087h-12.04v-1.087c.684-.231 1.147-.521 1.417-.879.26-.359.395-.879.395-1.562v-39.161c0-.705-.135-1.237-.395-1.596-.27-.358-.733-.647-1.417-.879v-1.087h24.118c2.94 0 5.272.208 6.989.613 1.726.404 3.229 1.109 4.512 2.128 1.483 1.179 2.593 2.774 3.335 4.775.694 1.943 1.041 4.025 1.041 6.234 0 7.552-3.489 11.97-10.479 13.254l7.49 12.769c1.312 2.244 2.284 3.678 2.893 4.326a3.4 3.4 0 0 0 2.246 1.063v1.087h-13.949v-1.087q1.446-.277 1.445-1.215.001-.624-1.33-2.949l-7.809-13.624H507.14zm0-7.621h12.994c1.918 0 3.277-.07 4.068-.209a5.55 5.55 0 0 0 2.169-.844c1.436-.925 2.15-2.591 2.15-5.02 0-2.417-.714-4.083-2.15-5.008a5.5 5.5 0 0 0-2.16-.868c-.761-.127-2.12-.185-4.077-.185H507.14zm38.357 22.934v-39.161c0-.683-.135-1.203-.396-1.562-.27-.358-.732-.647-1.416-.879v-1.087h12.039v1.087c-.675.208-1.146.486-1.417.867-.261.37-.395.891-.395 1.573v39.161c0 .705.134 1.237.414 1.606.27.383.732.66 1.397.868v1.087h-12.039v-1.087c.684-.231 1.146-.521 1.416-.879.262-.357.397-.888.397-1.594M600 628.513l5.37 9.657-.733.613c-.529-.589-.964-.878-1.301-.878-.338 0-1.292.543-2.854 1.63-3.239 2.232-5.957 3.747-8.175 4.522-2.206.774-4.839 1.168-7.895 1.168-6.073 0-11.066-1.724-14.961-5.182-2.304-2.012-4.107-4.51-5.427-7.494-1.523-3.4-2.285-7.171-2.285-11.275 0-5.599 1.369-10.468 4.097-14.597 4.107-6.211 10.305-9.322 18.605-9.322 3.056 0 5.668.383 7.855 1.157 2.179.764 4.907 2.278 8.185 4.533 1.562 1.064 2.516 1.585 2.854 1.585.337 0 .771-.289 1.301-.879l.733.613-5.37 9.656-.761-.612a9 9 0 0 0 .058-.914c0-.647-.231-1.272-.704-1.839q-.708-.867-2.516-2.081c-3.326-2.255-6.854-3.39-10.584-3.39-4.406 0-7.915 1.319-10.537 3.968-3.084 3.088-4.627 7.136-4.627 12.12s1.543 9.032 4.627 12.12c2.622 2.648 6.131 3.968 10.537 3.968 3.729 0 7.258-1.134 10.584-3.39q1.808-1.213 2.516-2.082c.473-.578.704-1.19.704-1.85 0-.243-.02-.544-.058-.879zm38.646 4.106h-17.525l-2.593 6.511c-.366.902-.54 1.608-.54 2.128 0 .995.627 1.689 1.898 2.071v1.087h-12.763v-1.087c.752-.185 1.33-.498 1.725-.949.396-.45.85-1.33 1.351-2.647l14.18-35.529c.453-1.133.675-2.036.675-2.718 0-1.041-.54-1.781-1.639-2.232v-1.087h13.669v1.087c-1.108.382-1.667 1.052-1.667 2.001 0 .647.183 1.399.54 2.232l14.689 35.644c.618 1.516 1.168 2.545 1.64 3.101.473.555 1.099.914 1.89 1.099v1.087h-14.171v-1.087c1.244-.243 1.861-.949 1.861-2.104 0-.475-.185-1.168-.569-2.095zm-2.42-6.338-6.257-16.48-6.352 16.48z" style="fill:#049acc" transform="matrix(.6408 0 0 .6408 -65.02 -100.054)"></path><path d="M146.631 706.957h-18.222l-2.696 6.364c-.381.881-.562 1.571-.562 2.079 0 .973.652 1.65 1.975 2.023v1.063h-13.27v-1.063c.781-.181 1.383-.485 1.794-.927.411-.44.882-1.3 1.403-2.588l14.743-34.724c.472-1.108.701-1.99.701-2.656 0-1.019-.561-1.741-1.704-2.182v-1.063h14.213v1.063c-1.152.372-1.733 1.028-1.733 1.955 0 .634.189 1.367.561 2.182l15.275 34.837c.642 1.479 1.213 2.486 1.704 3.029s1.143.893 1.965 1.073v1.063h-14.734v-1.063c1.293-.237 1.935-.927 1.935-2.057 0-.464-.19-1.143-.591-2.046zm-2.516-6.193-6.505-16.107-6.605 16.107zm32.695-.725v15c0 .667.14 1.175.431 1.537.28.373.762.645 1.453.848v1.063h-12.519v-1.063c.712-.226 1.192-.509 1.474-.858.271-.352.411-.859.411-1.526v-38.272c0-.69-.141-1.209-.411-1.561-.281-.35-.762-.633-1.474-.858v-1.063h25.077c3.058 0 5.483.203 7.268.599 1.794.396 3.356 1.085 4.689 2.08 1.544 1.152 2.696 2.712 3.469 4.668.722 1.899 1.083 3.934 1.083 6.093q.002 11.071-10.896 12.953l7.788 12.479c1.363 2.193 2.375 3.595 3.006 4.229a3.63 3.63 0 0 0 2.336 1.039v1.063h-14.503v-1.063q1.503-.271 1.503-1.187 0-.61-1.383-2.882l-8.119-13.316H176.81zm0-7.448h13.511c1.994 0 3.408-.067 4.229-.203a6 6 0 0 0 2.256-.825c1.492-.904 2.234-2.532 2.234-4.906 0-2.362-.742-3.99-2.234-4.894a5.9 5.9 0 0 0-2.246-.849c-.791-.124-2.205-.181-4.239-.181H176.81zm72.877 9.641h-9.873c-.612 0-1.063.158-1.363.464-.311.315-.561.859-.752 1.661h-.942v-10.546h.942c.2.813.441 1.379.752 1.673.3.305.751.452 1.363.452h19.004v1.063c-.702.227-1.193.508-1.484.859q-.42.525-.421 1.56v9.269c0 .689.141 1.21.411 1.56.271.352.772.633 1.494.859v.825c-7.618 4.895-14.995 7.347-22.131 7.347-6.485 0-11.768-1.729-15.856-5.199-5.142-4.375-7.718-10.443-7.718-18.209 0-7.234 2.285-12.999 6.866-17.283 4.349-4.058 10.123-6.093 17.329-6.093 2.285 0 4.439.238 6.475.713 2.025.475 4.33 1.277 6.906 2.396 1.333.599 2.285.893 2.846.893.411 0 .893-.249 1.443-.758l.823.498-4.691 10.828-.853-.497c-.02-.725-.11-1.255-.271-1.571-.15-.317-.511-.712-1.052-1.176-1.193-1.018-2.947-1.876-5.252-2.599q-3.473-1.072-6.556-1.074c-4.18 0-7.657 1.322-10.414 3.967-3.116 3.007-4.671 6.963-4.671 11.891q-.002 7.141 4.552 11.553 4.163 4.034 10.975 4.034c2.205 0 4.39-.281 6.545-.858 2.144-.576 4.009-1.356 5.573-2.352zm26.58-3.583v12.388h25.779c.592 0 1.042-.158 1.354-.463.31-.316.561-.871.761-1.662h.943v11.699h-.943c-.2-.802-.451-1.345-.761-1.661-.312-.306-.762-.464-1.354-.464h-36.414v-1.063c.713-.226 1.193-.509 1.474-.858.271-.352.411-.871.411-1.561v-38.238c0-.69-.141-1.209-.411-1.561-.28-.35-.761-.633-1.474-.858v-1.063h35.713q.886 0 1.353-.475c.312-.328.562-.883.762-1.674h.942v11.688h-.942c-.2-.779-.45-1.311-.762-1.627-.311-.305-.762-.464-1.353-.464h-25.078v10.727h16.268c.591 0 1.042-.158 1.354-.463.31-.317.561-.871.762-1.662h.941v11.439h-.941c-.201-.78-.452-1.322-.762-1.64-.312-.327-.763-.485-1.354-.485zm44.964-11.122v27.478c0 .689.14 1.209.411 1.561.279.35.771.633 1.473.858v1.063h-11.787v-1.063c.711-.226 1.193-.509 1.474-.858q.408-.527.41-1.561v-38.272c0-.667-.14-1.175-.41-1.526-.28-.35-.763-.633-1.474-.858v-1.063h13.631v1.063q-1.263.355-1.263 1.525c0 .531.271 1.108.822 1.752l22.11 25.931v-26.823c0-.667-.141-1.175-.41-1.526-.281-.35-.763-.633-1.475-.858v-1.063h11.788v1.063c-.702.226-1.194.509-1.474.858-.271.352-.411.859-.411 1.526v38.272c0 .689.14 1.209.411 1.561.279.35.771.633 1.474.858v1.063h-12.63v-1.063q1.233-.305 1.233-1.424 0-.659-1.443-2.316zm63.565-6.794v34.271c0 .689.141 1.209.411 1.561.28.35.772.633 1.474.858v1.063h-12.519v-1.063c.712-.226 1.192-.509 1.474-.858q.408-.527.41-1.561v-34.271h-12.448c-.592 0-1.042.146-1.354.453-.31.293-.561.847-.761 1.638h-.943v-11.688h.943c.21.814.471 1.38.781 1.685.301.305.741.464 1.333.464h33.616c.612 0 1.073-.159 1.384-.464s.562-.87.762-1.685h.941v11.688h-.941c-.2-.791-.451-1.345-.762-1.638-.311-.307-.771-.453-1.384-.453zm21.378 34.272v-38.272c0-.667-.14-1.175-.411-1.526-.28-.35-.762-.633-1.473-.858v-1.063h12.518v1.063c-.7.203-1.191.475-1.473.848-.27.362-.411.87-.411 1.537v38.272c0 .689.142 1.209.432 1.571.28.373.762.644 1.452.848v1.063H404.29v-1.063c.711-.226 1.192-.509 1.473-.858q.41-.529.411-1.562m27.725-27.478v27.478c0 .689.14 1.209.409 1.561.281.35.772.633 1.475.858v1.063h-11.787v-1.063c.711-.226 1.193-.509 1.473-.858.271-.352.411-.871.411-1.561v-38.272c0-.667-.14-1.175-.411-1.526-.279-.35-.762-.633-1.473-.858v-1.063h13.631v1.063q-1.263.355-1.263 1.525c0 .531.271 1.108.822 1.752l22.11 25.93v-26.822c0-.667-.141-1.175-.411-1.526-.28-.35-.762-.633-1.474-.858v-1.063h11.787v1.063c-.701.226-1.193.509-1.474.858q-.408.527-.41 1.526v38.272c0 .689.14 1.209.41 1.561.28.35.772.633 1.474.858v1.063H456.57v-1.063q1.232-.305 1.232-1.424 0-.659-1.442-2.316zm72.525 19.43h-18.221l-2.696 6.364c-.381.881-.562 1.571-.562 2.079 0 .973.651 1.65 1.975 2.023v1.063h-13.271v-1.063c.781-.181 1.383-.485 1.794-.927.411-.44.882-1.3 1.403-2.588l14.743-34.724c.471-1.108.702-1.99.702-2.656 0-1.019-.561-1.741-1.704-2.183v-1.062H504.8v1.062c-1.152.373-1.734 1.029-1.734 1.956 0 .634.19 1.367.562 2.182l15.275 34.837c.641 1.479 1.213 2.485 1.704 3.028s1.143.894 1.964 1.074v1.063h-14.733v-1.063c1.293-.237 1.935-.927 1.935-2.057 0-.464-.19-1.143-.592-2.046zm-2.515-6.193-6.505-16.107-6.605 16.107z" style="fill:#05689d" transform="matrix(.6408 0 0 .6408 -65.02 -100.054)"></path><path d="M145.224 703.611h-18.223l-2.694 6.364c-.382.881-.563 1.57-.563 2.079 0 .973.652 1.65 1.976 2.023v1.063h-13.271v-1.063c.782-.181 1.383-.486 1.794-.927s.882-1.3 1.403-2.588l14.744-34.725c.471-1.107.702-1.989.702-2.655 0-1.019-.562-1.741-1.704-2.183v-1.062h14.213v1.062c-1.153.373-1.734 1.029-1.734 1.956 0 .633.19 1.367.562 2.182l15.274 34.837c.642 1.479 1.213 2.485 1.704 3.028s1.142.894 1.964 1.074v1.063h-14.732v-1.063c1.292-.238 1.934-.927 1.934-2.057 0-.464-.191-1.143-.592-2.046zm-2.515-6.194-6.505-16.106-6.604 16.106zm32.694-.724v15c0 .667.141 1.175.431 1.537.281.373.763.644 1.454.848v1.063h-12.519v-1.063c.712-.226 1.192-.509 1.473-.858.271-.352.412-.859.412-1.526V673.42c0-.689-.141-1.209-.412-1.56-.28-.35-.761-.633-1.473-.859v-1.062h25.078c3.057 0 5.481.203 7.266.599 1.794.396 3.358 1.085 4.691 2.079 1.543 1.154 2.695 2.713 3.468 4.669.722 1.899 1.082 3.933 1.082 6.092 0 7.381-3.628 11.699-10.895 12.954l7.787 12.479c1.363 2.192 2.376 3.595 3.007 4.228a3.63 3.63 0 0 0 2.335 1.04v1.063h-14.503v-1.063q1.504-.272 1.504-1.187 0-.61-1.384-2.883l-8.118-13.315zm0-7.448h13.511c1.995 0 3.408-.067 4.23-.204a6 6 0 0 0 2.255-.824c1.494-.904 2.235-2.532 2.235-4.906 0-2.362-.741-3.99-2.235-4.895a5.9 5.9 0 0 0-2.245-.848c-.792-.124-2.205-.181-4.24-.181h-13.511zm72.877 9.642h-9.872c-.612 0-1.063.157-1.364.464-.31.315-.561.858-.751 1.661h-.941v-10.547h.941c.2.814.441 1.38.751 1.674.302.305.752.451 1.364.451h19.003v1.063c-.702.226-1.192.508-1.482.859q-.422.524-.422 1.56v9.268c0 .69.141 1.211.411 1.561.271.351.772.633 1.493.859v.824c-7.617 4.896-14.994 7.349-22.131 7.349-6.484 0-11.767-1.73-15.856-5.2-5.142-4.374-7.718-10.444-7.718-18.209 0-7.235 2.286-12.999 6.866-17.283 4.35-4.058 10.124-6.093 17.33-6.093 2.285 0 4.44.237 6.475.713 2.024.474 4.33 1.277 6.905 2.396 1.334.6 2.286.894 2.847.894.411 0 .893-.249 1.443-.758l.822.498-4.691 10.827-.851-.496c-.021-.725-.111-1.256-.271-1.571-.15-.317-.511-.712-1.052-1.176-1.193-1.018-2.947-1.876-5.253-2.6q-3.473-1.071-6.555-1.073c-4.18 0-7.657 1.321-10.414 3.967-3.117 3.007-4.67 6.963-4.67 11.891 0 4.759 1.513 8.613 4.55 11.552q4.164 4.035 10.976 4.035c2.204 0 4.39-.282 6.544-.858 2.146-.576 4.011-1.356 5.573-2.352zm26.581-3.583v12.388h25.779c.592 0 1.043-.158 1.353-.463.312-.316.562-.87.762-1.662h.942v11.699h-.942c-.2-.803-.45-1.346-.762-1.661q-.465-.462-1.353-.464h-36.413v-1.063c.711-.226 1.191-.509 1.473-.859.271-.351.411-.87.411-1.56V673.42c0-.689-.14-1.209-.411-1.56-.281-.351-.762-.633-1.473-.859v-1.062h35.712q.887 0 1.352-.476c.312-.327.563-.882.763-1.673h.941v11.688h-.941c-.2-.779-.451-1.312-.763-1.627-.31-.306-.761-.464-1.352-.464h-25.078v10.727h16.268c.592 0 1.042-.158 1.353-.463.311-.317.562-.871.762-1.662h.942v11.439h-.942c-.2-.78-.451-1.322-.762-1.64-.311-.328-.761-.485-1.353-.485zm44.963-11.122v27.478c0 .689.141 1.209.411 1.561.281.35.771.633 1.474.858v1.063h-11.788v-1.063c.713-.226 1.193-.509 1.475-.858.27-.352.411-.871.411-1.561v-38.272c0-.667-.142-1.176-.411-1.526-.281-.35-.762-.633-1.475-.859v-1.062h13.633v1.062q-1.264.356-1.264 1.526c0 .531.271 1.107.822 1.752l22.11 25.93v-26.822c0-.667-.141-1.176-.411-1.526-.28-.35-.763-.633-1.474-.859v-1.062h11.787v1.062c-.702.227-1.192.509-1.473.859-.271.351-.411.859-.411 1.526v38.272c0 .689.14 1.209.411 1.561.28.35.771.633 1.473.858v1.063h-12.629v-1.063q1.233-.306 1.233-1.424c0-.441-.481-1.21-1.443-2.317zm63.566-6.794v34.271c0 .689.14 1.209.411 1.56.279.351.771.634 1.473.859v1.063h-12.52v-1.063c.713-.226 1.193-.509 1.475-.859.27-.351.41-.87.41-1.56v-34.271h-12.448c-.591 0-1.042.147-1.354.452-.311.293-.561.848-.762 1.639h-.941v-11.688h.941c.211.814.471 1.379.782 1.685.301.305.742.464 1.333.464h33.617c.61 0 1.071-.159 1.383-.464.311-.306.562-.87.762-1.685h.942v11.688h-.942c-.2-.791-.451-1.346-.762-1.639-.312-.305-.772-.452-1.383-.452zm21.379 34.271v-38.272c0-.668-.141-1.176-.411-1.526-.281-.351-.763-.633-1.475-.859v-1.062h12.52v1.062c-.701.204-1.193.476-1.474.849-.271.361-.41.869-.41 1.537v38.272c0 .689.14 1.209.431 1.571.28.373.761.644 1.453.848v1.063h-12.52v-1.063c.712-.226 1.193-.509 1.475-.859.271-.352.411-.871.411-1.561m27.723-27.477v27.478c0 .689.141 1.209.411 1.56.28.351.771.634 1.474.859v1.063h-11.788v-1.063c.712-.226 1.193-.509 1.475-.859.27-.351.41-.87.41-1.56v-38.272c0-.668-.141-1.176-.41-1.526-.281-.351-.763-.633-1.475-.859v-1.062h13.632v1.062q-1.263.356-1.263 1.526c0 .531.271 1.107.822 1.752l22.109 25.93v-26.822c0-.668-.14-1.176-.41-1.526-.28-.351-.763-.633-1.474-.859v-1.062h11.787v1.062c-.702.227-1.193.509-1.474.859q-.408.525-.41 1.526v38.272c0 .689.14 1.209.41 1.56.28.351.771.634 1.474.859v1.063h-12.629v-1.063q1.233-.306 1.233-1.424c0-.441-.481-1.21-1.443-2.317zm72.525 19.429h-18.222l-2.696 6.364c-.381.881-.561 1.57-.561 2.079 0 .973.651 1.65 1.974 2.023v1.063h-13.27v-1.063c.782-.181 1.383-.486 1.794-.927s.882-1.3 1.403-2.588l14.743-34.725c.472-1.107.702-1.989.702-2.655 0-1.019-.562-1.741-1.704-2.183v-1.062h14.213v1.062c-1.152.373-1.734 1.029-1.734 1.956 0 .633.191 1.367.562 2.182l15.274 34.837c.642 1.479 1.213 2.485 1.704 3.028.492.543 1.143.894 1.965 1.074v1.063H506.43v-1.063c1.293-.238 1.936-.927 1.936-2.057 0-.465-.191-1.143-.592-2.047zm-2.515-6.194-6.504-16.106-6.605 16.106z" style="fill:#049acc" transform="matrix(.6408 0 0 .6408 -65.02 -100.054)"></path><path d="M550.285 710.337H574.8c.611 0 1.072-.159 1.383-.464.312-.315.562-.87.763-1.661h.941v12.399h-.941c-.201-.802-.451-1.345-.763-1.661-.311-.306-.771-.464-1.383-.464h-31.212c-.992 0-1.673.136-2.023.396-.352.271-.612.836-.792 1.719h-.942a141 141 0 0 1-.03-2.114c0-2.825.281-5.154.853-6.985 1.151-3.708 3.307-6.86 6.464-9.438 1.624-1.323 4.27-2.939 7.959-4.838l4.961-2.556c2.325-1.209 3.999-2.464 5.021-3.752 1.033-1.289 1.544-2.814 1.544-4.578 0-2.012-.61-3.538-1.834-4.589-1.223-1.051-2.996-1.57-5.321-1.57-2.848 0-5.483.778-7.929 2.351-2.365 1.503-3.549 3.04-3.549 4.634 0 .373.151 1.074.461 2.08l-.641.769-7.808-9.507.701-.723c.742.396 1.294.588 1.644.588.321 0 .592-.079.822-.226q.36-.239 1.443-1.323c4.3-4.216 9.622-6.33 15.937-6.33 4.541 0 8.179 1.255 10.895 3.776 2.756 2.554 4.141 5.968 4.141 10.229 0 4.194-1.323 7.664-3.96 10.399-1.743 1.786-4.09 3.425-7.025 4.895l-4.521 2.283c-.461.271-1.532.78-3.196 1.526-2.035.926-3.469 1.684-4.29 2.271-.825.587-1.587 1.401-2.288 2.464m51.417-37.844c5.262 0 9.632 1.933 13.121 5.799 3.918 4.34 5.873 10.32 5.873 17.904 0 2.385-.291 4.804-.882 7.257-.581 2.453-1.394 4.578-2.405 6.386-1.785 3.177-4.13 5.597-7.047 7.258-2.586 1.458-5.462 2.181-8.63 2.181-5.272 0-9.632-1.944-13.1-5.832a21 21 0 0 1-3.879-6.352c-1.333-3.493-1.995-7.234-1.995-11.225 0-5.381 1.092-10.049 3.288-13.971 1.724-3.109 4.069-5.516 7.046-7.223 2.465-1.412 5.332-2.136 8.61-2.182m0 7.688c-3.117 0-5.592 1.559-7.426 4.668q-2.558 4.341-2.558 10.749c0 4.283.853 7.866 2.558 10.761 1.834 3.107 4.318 4.668 7.457 4.668 3.146 0 5.632-1.56 7.446-4.668 1.703-2.895 2.556-6.409 2.556-10.558q0-6.714-2.556-10.952c-1.814-3.064-4.309-4.623-7.477-4.668m29.127 9.437v-12.027h.942c.211.814.421 1.346.611 1.595.2.236.501.361.912.361.2 0 .471-.046.822-.136l2.525-.723v-1.956c0-.667-.141-1.175-.411-1.526-.28-.35-.762-.633-1.474-.858v-1.063h12.258v1.063c-.701.226-1.192.498-1.473.848-.271.339-.411.848-.411 1.537v38.272c0 .689.141 1.209.411 1.561.28.35.771.633 1.473.858v1.063h-12.258v-1.063c.712-.226 1.193-.509 1.474-.858.271-.352.411-.871.411-1.561v-28.597l-2.757.757c-.651.182-1.111.43-1.393.757-.291.34-.522.905-.722 1.696zm32.535 0v-12.027h.941c.21.814.421 1.346.611 1.595.201.236.501.361.912.361.201 0 .471-.046.822-.136l2.525-.723v-1.956c0-.667-.14-1.175-.411-1.526-.28-.35-.762-.633-1.474-.858v-1.063h12.259v1.063c-.702.226-1.192.498-1.474.848-.271.339-.411.848-.411 1.537v38.272c0 .689.141 1.209.411 1.561.281.35.771.633 1.474.858v1.063H667.29v-1.063c.712-.226 1.193-.509 1.474-.858.271-.352.411-.871.411-1.561v-28.597l-2.756.757c-.651.182-1.112.43-1.394.757-.29.34-.521.905-.722 1.696z" style="fill:#cc9b05" transform="matrix(.6408 0 0 .6408 -65.02 -100.054)"></path><path d="M547.823 706.64h24.517c.611 0 1.072-.158 1.383-.464.311-.316.562-.87.763-1.661h.941v12.399h-.941c-.201-.803-.452-1.345-.763-1.662-.311-.305-.771-.463-1.383-.463h-31.212c-.992 0-1.674.135-2.023.396-.352.271-.612.837-.792 1.718h-.942c-.021-1.096-.03-1.808-.03-2.113 0-2.826.28-5.153.853-6.985 1.151-3.707 3.307-6.861 6.464-9.438 1.624-1.322 4.27-2.939 7.959-4.838l4.961-2.554c2.325-1.21 3.999-2.464 5.021-3.753 1.033-1.288 1.544-2.815 1.544-4.578 0-2.013-.61-3.538-1.834-4.589-1.223-1.052-2.996-1.571-5.321-1.571-2.848 0-5.483.78-7.929 2.351-2.365 1.503-3.549 3.041-3.549 4.634 0 .373.151 1.074.461 2.08l-.641.77-7.808-9.506.701-.725c.741.396 1.294.588 1.644.588.321 0 .592-.078.822-.226q.36-.237 1.443-1.322c4.299-4.216 9.622-6.33 15.937-6.33 4.541 0 8.179 1.255 10.895 3.775 2.756 2.555 4.141 5.968 4.141 10.229 0 4.193-1.323 7.663-3.96 10.399-1.744 1.785-4.09 3.425-7.025 4.894l-4.521 2.283c-.461.271-1.532.78-3.196 1.526-2.035.927-3.469 1.684-4.29 2.271-.826.589-1.588 1.402-2.29 2.465m51.418-37.844c5.262 0 9.632 1.934 13.12 5.798 3.919 4.342 5.874 10.32 5.874 17.905 0 2.385-.291 4.804-.882 7.256-.581 2.453-1.394 4.578-2.406 6.388-1.784 3.176-4.129 5.595-7.046 7.256-2.586 1.459-5.462 2.182-8.63 2.182-5.272 0-9.633-1.943-13.1-5.832a21 21 0 0 1-3.879-6.353c-1.334-3.493-1.995-7.234-1.995-11.225 0-5.38 1.092-10.049 3.288-13.971 1.724-3.108 4.069-5.516 7.046-7.223 2.465-1.412 5.333-2.136 8.61-2.181m0 7.686c-3.117 0-5.592 1.56-7.426 4.668q-2.558 4.34-2.558 10.75 0 6.423 2.558 10.76c1.834 3.109 4.318 4.668 7.456 4.668 3.147 0 5.633-1.559 7.447-4.668 1.703-2.893 2.556-6.409 2.556-10.557q0-6.715-2.556-10.953c-1.814-3.063-4.309-4.623-7.477-4.668m29.127 9.438v-12.026h.942c.211.813.421 1.346.611 1.594.2.238.5.362.911.362.201 0 .472-.045.823-.137l2.524-.723v-1.956c0-.666-.14-1.175-.41-1.526-.28-.35-.762-.633-1.474-.858v-1.063h12.258v1.063c-.701.226-1.192.498-1.474.848q-.408.507-.41 1.537v38.273c0 .689.141 1.21.41 1.56.281.351.772.633 1.474.859v1.063h-12.258v-1.063c.712-.227 1.193-.509 1.474-.859q.408-.525.41-1.56V682.71l-2.756.757c-.651.182-1.111.431-1.393.759-.291.339-.522.903-.722 1.694zm32.535 0v-12.026h.941c.21.813.421 1.346.611 1.594.201.238.501.362.912.362.2 0 .471-.045.822-.137l2.525-.723v-1.956c0-.666-.14-1.175-.411-1.526-.28-.35-.762-.633-1.474-.858v-1.063h12.259v1.063c-.702.226-1.192.498-1.474.848-.271.339-.411.849-.411 1.537v38.273c0 .689.141 1.21.411 1.56.281.351.771.633 1.474.859v1.063h-12.259v-1.063c.712-.227 1.193-.509 1.474-.859.271-.35.411-.87.411-1.56V682.71l-2.756.757c-.651.182-1.113.431-1.394.759-.29.339-.521.903-.722 1.694z" style="fill:#fbc928" transform="matrix(.6408 0 0 .6408 -65.02 -100.054)" data-source="https://football-logos.cc"></path><!-- source: https://football-logos.cc --></svg>