<svg xmlns="http://www.w3.org/2000/svg" viewBox="1 1 200 218.37"><!-- Source: https://football-logos.cc --><defs data-source="https://football-logos.cc"><clipPath id="a"><path fill="#fff" d="M89.3 93c-8.1-1.3-9.8-9.8-4.9-13.1l2.3-1.4c5.3-3.4 8.9-9.4 10.7-19.3.5-3.2.9-5.9 1.1-8.5a2.1 2.1 0 0 0-1.2-2.1s1.4-1.2 1.4-2.3a73 73 0 0 0-.2-8.1 5.8 5.8 0 0 0-3.7-4.8l-1.1-.4-.6-3.4a2.6 2.6 0 0 0-1.5-2c-6.2-2.9-4.7-8-4-12.2a2.7 2.7 0 0 0 3.6-2l.3-1.2a1.8 1.8 0 0 0-1.2-2.1A56.3 56.3 0 0 0 74.9 8 55.4 55.4 0 0 0 60 10.1a2.1 2.1 0 0 0-1.6 2.6l.2.8a2.8 2.8 0 0 0 3.7 2.1c.5 4.3 1.5 9.5-3.5 12.3a4 4 0 0 0-2.2 3.1l-.4 2.6-1.4.6a5.9 5.9 0 0 0-3.4 4.8 70 70 0 0 0-.1 7.9 4.7 4.7 0 0 0 1.4 2.3 2.2 2.2 0 0 0-1 2.1c.4 2.4.8 5 1.5 8C55.6 69.2 60 75.1 65.5 79l1.8 1.3C71.7 83.2 69 91.5 61 93a7.5 7.5 0 0 0-5.5 4.1l-.7 1.7a.9.9 0 0 0 .6 1.2 75.7 75.7 0 0 0 19.6 2.4 76.6 76.6 0 0 0 19.7-2.5.8.8 0 0 0 .6-1.2l-1.1-2.2a6.6 6.6 0 0 0-4.9-3.5" class="a"></path></clipPath><style>.a{fill:#fff}.c{fill:#95c6e6}.d{fill:#fdce3d}.e{fill:#003282}.f{fill:#de2e33}.g{fill:#58aa41}.h{fill:none}.j,.k{fill:#c9c8c9}.j{fill-rule:evenodd}</style></defs><g data-source="https://football-logos.cc"><path fill="#003282" stroke-width="1.3" d="M27.8 191.4c-5.867 0-9.467-3.733-9.467-9.6s3.734-9.733 9.6-9.733c5.867 0 9.467 3.733 9.467 9.733s-3.6 9.6-9.6 9.6m0-15.867c-4.267 0-4.8 3.867-4.8 6.267s.667 6.267 4.933 6.267c4.267 0 4.8-4 4.8-6.267s-.666-6.267-4.933-6.267M176.6 191.4c-5.733 0-9.2-3.6-9.2-9.6s3.467-9.733 9.2-9.733a17.5 17.5 0 0 1 5.467.933l2.133.667-1.333 3.466-1.6-.533a17.3 17.3 0 0 0-4.134-.8c-3.333 0-4.933 2-4.933 6s1.6 5.733 4.933 5.733a11.5 11.5 0 0 0 4-.666h.4l-1.6 4.266-3.2.4zM10.2 191.4c-5.733 0-9.2-3.6-9.2-9.6s3.6-9.733 9.2-9.733a17.5 17.5 0 0 1 5.467.933l1.466.4-1.2 3.467L15 176.6a13.9 13.9 0 0 0-4.267-.8c-3.333 0-4.933 2-4.933 6s1.733 5.733 4.933 5.733a12.8 12.8 0 0 0 4.267-.666l.933-.267 1.2 3.467-1.466.4a17.3 17.3 0 0 1-5.334.933ZM109.133 191.4a2.27 2.27 0 0 1-2.533-1.6l-2.933-8.533-.934-2.534v12.534h-4v-16.4c0-1.734 1.2-2.8 3.334-2.8a3.47 3.47 0 0 1 3.733 2.533l3.333 10.133L112.6 174.6a3.33 3.33 0 0 1 3.6-2.533c2.133 0 3.333.933 3.333 2.8v16.4H115.4V178.6l-.933 2.533-2.934 8.667a2.27 2.27 0 0 1-2.4 1.6M196.333 191.267l-1.2-3.467H188.2l-.667 1.867a2.4 2.4 0 0 1-2.266 1.6h-2.934l6.267-17.2a2.93 2.93 0 0 1 3.2-2 2.8 2.8 0 0 1 3.067 2l6.133 17.2zm-7.2-6.8h5.067l-2.533-7.6zM159.533 172.2h4.667v19h-4.667zM151.933 191.267l-3.066-6.934h-4v6.934h-4.534V174.6a2.267 2.267 0 0 1 2.534-2.4h6.666c4 0 6.667 2.4 6.667 5.867a5.87 5.87 0 0 1-2.667 4.933l-.4.267 3.734 8zM144.867 181H149a2.8 2.8 0 0 0 2.667-2.933 2.533 2.533 0 0 0-2.667-2.534h-4.133zM125.8 191.267a2.4 2.4 0 0 1-2.667-2.4V174.6a2.4 2.4 0 0 1 2.667-2.4h11.467v1.2a2.4 2.4 0 0 1-2.4 2.267H127.8v4.266h8.267v3.2H127.8v4.667h9.467v3.467zM92.2 191.267 91 187.8h-6.933l-.534 1.867a2.53 2.53 0 0 1-2.266 1.6H78.2l6.267-17.2a3.07 3.07 0 0 1 3.2-2 3.07 3.07 0 0 1 3.2 2l6.133 17.2zm-7.067-6.8H90.2l-2.533-7.6zM67.933 191.267l-1.2-3.467H59.8l-.667 1.867a2.27 2.27 0 0 1-2.266 1.6h-2.934l6.267-17.2a2.93 2.93 0 0 1 3.2-2 3.07 3.07 0 0 1 3.2 2l6 17.2zm-7.2-6.8H65.8l-2.533-7.6zM40.2 191.267V174.6a2.4 2.4 0 0 1 2.667-2.4h5.866c3.867 0 6.4 2.4 6.4 6.133s-2.666 6.134-6.666 6.134h-3.734v6.8zm4.533-10.134h3.334a2.667 2.667 0 0 0 2.933-2.8c0-1.866-1.2-2.8-3.467-2.8h-2.8zM76.733 164.333H75.8a2 2 0 0 1-.933-.4L74.2 163a3.3 3.3 0 0 1-.267-1.333v-6.134a3.2 3.2 0 0 1 .267-1.066c.133-.267.267-.667.533-.8a2.4 2.4 0 0 1 .934-.667 2.93 2.93 0 0 1 2.133 0 2 2 0 0 1 .8.667l.667.8a3.7 3.7 0 0 1 .133 1.2v.533c0 .133 0 .133-.133.133h-1.6a.133.133 0 0 1-.134-.133v-.533c0-.4 0-.667-.133-.8a.8.8 0 0 0-.667-.267c-.4 0-.666 0-.666.267a1.87 1.87 0 0 0-.267.933v5.733a1.07 1.07 0 0 0 .267.667c.133.267.266.267.666.267h.534l.266-.4V161H79.4v.667a3.3 3.3 0 0 1-.133 1.066l-.667.8c-.133.267-.533.4-.8.534a1.47 1.47 0 0 1-1.067.266M83.533 164.333h-1.066l-.934-.533a2.13 2.13 0 0 1-.533-.933 2 2 0 0 1-.267-1.2v-6a2 2 0 0 1 .267-1.2 2.13 2.13 0 0 1 .533-.934l.934-.533a2.53 2.53 0 0 1 2 0l.933.533a2.4 2.4 0 0 1 .667.934 3.9 3.9 0 0 1 .266 1.2v6a3.9 3.9 0 0 1-.266 1.2 2.4 2.4 0 0 1-.667.933l-.933.533zm0-9.733c-.266 0-.533 0-.666.267-.134.266-.267.4-.267.666v6c0 .267 0 .534.267.667.266.133.4.267.666.267a.8.8 0 0 0 .667-.267 1.07 1.07 0 0 0 .267-.667v-6a1.07 1.07 0 0 0-.267-.666.8.8 0 0 0-.667-.267M93.667 164.2h-1.6l-2-5.733c-.134 0-.267 0-.267.133v5.467c0 .133 0 .133-.133.133h-1.6a.133.133 0 0 1-.134-.133V153H89.8l2 5.733a.133.133 0 0 0 .133-.133V153H93.8v11.067c0 .133 0 .133-.133.133M102.867 164.2h-1.6c-.134 0-.134 0-.134-.133V158.6c0-.133-.133-.133-.266 0l-1.2 3.6h-.934l-1.2-3.6c0-.133-.266-.133-.266 0v5.467c0 .133 0 .133-.134.133h-1.466c-.134 0-.267 0-.267-.133V153h1.733L99 158.467h.133L101 153h1.867v11.067a.133.133 0 0 1-.134.133M109.533 164.2h-4.8a.133.133 0 0 1-.133-.133V153h5.067v1.467h-3.2v2.933h2.8v1.467h-2.8v3.466h3.066a.133.133 0 0 1 .134.134v1.466a.133.133 0 0 1-.134.134M113.267 164.2H111a.133.133 0 0 1-.133-.133V153h3.866l.934.667a3.3 3.3 0 0 1 .533.933 3.7 3.7 0 0 1 .133 1.2v1.2c-.133.133-.133.4-.266.533l-.4.534h-.267l.667.8a4.1 4.1 0 0 1 .266 1.466V161a3.87 3.87 0 0 1-.666 2.267 3.2 3.2 0 0 1-2.4.8m-.534-1.867h1.334l.4-.4c0-.133.133-.267.133-.533V159.8l-.267-.533-.266-.267h-1.334zm0-5.067h.667a1.07 1.07 0 0 0 .933-.4 1.73 1.73 0 0 0 .267-1.066 2.5 2.5 0 0 0-.267-1.067l-1.066-.267h-.534zM120.467 164.333H119.4l-.933-.533-.667-.933a3.7 3.7 0 0 1-.133-1.2v-6a2 2 0 0 1 .266-1.2 2.13 2.13 0 0 1 .534-.934l.933-.533a2.67 2.67 0 0 1 2 0l.933.533a2.4 2.4 0 0 1 .667.934 3.9 3.9 0 0 1 .267 1.2v6a3.9 3.9 0 0 1-.267 1.2 2.4 2.4 0 0 1-.667.933l-.933.533zm0-9.733c-.267 0-.534 0-.667.267-.133.266-.267.4-.267.666v6c0 .267 0 .534.267.667s.4.267.667.267a.8.8 0 0 0 .666-.267 1.07 1.07 0 0 0 .267-.667v-6a1.07 1.07 0 0 0-.267-.666.8.8 0 0 0-.666-.267M129.4 164.2h-4.667c-.133 0-.266 0-.266-.133V153h1.866v9.333h3.067c.133 0 .133 0 .133.134v1.466c0 .134 0 .134-.133.134M134.733 159.4H131.4v-1.467h3.467v1.467zM70.467 159.4h-3.334v-1.467H70.6v1.467z" class="e"></path><path fill="#fff" stroke-width="1.3" d="M162.867 64.6a63.867 63.867 0 1 1-127.6 0c0-23.6 14.533-45.467 32.8-55.333l1.6-1.2a40.8 40.8 0 0 1 27.466-2.934c2.267.667 6.667-4.266 8.934-4 2.266.267 3.6 1.867 5.733 2.267 28.667 6.267 51.067 30.667 51.067 61.2" class="a"></path><path fill="#fdce3d" stroke-width="1.3" d="M109.667 95.8A21.733 21.733 0 0 1 69 103.667l-2.533 6.533a21.47 21.47 0 0 1-12.134-11.733 22 22 0 0 1-.266-16.934 23.1 23.1 0 0 1 5.066-7.6C55.267 71.4 49.667 69.8 48.6 66.2s5.867-11.067 6.133-16.133C55 45 48.067 38.333 49.8 33.533S61 28.2 64.2 24.067c3.2-4.134 1.467-12.8 5.467-16A64.4 64.4 0 0 0 79 126.867a66.8 66.8 0 0 0 15.867 3.066c11.466.8-.4-2.8 10.133-8.133l5.867-26.667z" class="d"></path><path fill="#de2e33" stroke-width="1.3" d="M70.2 68.067a22.27 22.27 0 0 0-16.133 13.466 22 22 0 0 0 .266 16.934A21.47 21.47 0 0 0 66.467 110.2l3.6-9.067 9.066-22.8 3.6-9.066a21.47 21.47 0 0 0-12.533-1.2" class="f"></path><path fill="#95c6e6" stroke-width="1.3" d="M97.8 16.333c.933-14.133 14.533-15.2 25.6-11.866 14.933 4.4 27.467 15.866 34.8 29.466a65.47 65.47 0 0 1-15.467 81.6 59 59 0 0 1-7.333.4 22 22 0 0 1-3.067 4.267L117 92.067a2.53 2.53 0 0 1 .8-3.2 28.533 28.533 0 0 0 8.933-37.2 27.33 27.33 0 0 0-33.466-12.934 2.4 2.4 0 0 1-3.067-2.8l3.333-14.266a2.67 2.67 0 0 1 1.067-1.6c2.267-1.334 3.067-2.534 3.2-3.734" class="c"></path><circle cx="88.067" cy="93.267" r="21.733" fill="#58aa41" stroke-width="1.3" class="g"></circle><ellipse cx="105.533" cy="11.667" fill="#fdce3d" stroke-width="1.3" class="d" rx="10.533" ry="10.667"></ellipse><path fill="#fdce3d" stroke-width="1.3" d="M144.067 60.733a34 34 0 0 0-13.2-22.266l-8.934 12-22.666 30-8.934 12a33.867 33.867 0 0 0 53.734-31.734" class="d"></path><path fill="#fff" stroke-width="1.3" d="M142.867 115.667a60.1 60.1 0 0 1-14.8-.534c0 4.667-11.467 10.667-2.134 14.667a66.4 66.4 0 0 0 16.934-14.133M141.533 51.267A54 54 0 0 1 154.2 55.4a56.3 56.3 0 0 1-7.067 11.333A50.4 50.4 0 0 1 157.667 75a57.9 57.9 0 0 0-3.467-19.6 59.6 59.6 0 0 0-9.867-17.2A61.3 61.3 0 0 0 129 25.4a47.3 47.3 0 0 1 1.867 13.333A49 49 0 0 1 144.2 38.2a56.8 56.8 0 0 1-2.667 13.067m4.534 32.8A58.4 58.4 0 0 1 153.8 96.6a52 52 0 0 1-14 4.533 56.3 56.3 0 0 1 3.067 14.534A62.3 62.3 0 0 0 153.8 96.733 64.4 64.4 0 0 0 157.667 75a60.8 60.8 0 0 1-11.6 9.067" class="a"></path><ellipse cx="116.467" cy="106.333" fill="#58aa41" stroke-width="1.3" class="g" rx="21.067" ry="21.2"></ellipse><path fill="#fdce3d" stroke-width="1.3" d="M126.867 18.333a27.87 27.87 0 0 1 15.2 4.667l-6.8 10.4a15.333 15.333 0 0 0-21.467 4.4 15.6 15.6 0 0 0 4.4 21.6l-6.8 10.4a27.6 27.6 0 0 1-12-17.733 27.33 27.33 0 0 1 4-21.067 28 28 0 0 1 23.467-12.667" class="d"></path><path fill="#003282" stroke-width="1.3" d="M87 87.267 83.8 55.8l-1.333-12.533A28.4 28.4 0 0 0 67.4 93.533 28.13 28.13 0 0 0 88.2 99.8z" class="e"></path><circle cx="115.4" cy="113" r="10.667" fill="#fdce3d" stroke-width="1.3" class="d"></circle><circle cx="92.067" cy="29" r="24.4" fill="#de2e33" stroke-width="1.3" class="f"></circle><path fill="#fdce3d" stroke-width="1.3" d="M116.733 65.8a33.2 33.2 0 0 1-7.466 17.2L98.2 73.667a18.4 18.4 0 0 0-2.4-25.734A18.53 18.53 0 0 0 82.467 43.8a17.33 17.33 0 0 0-12 6.8l-11.6-9.6a32.27 32.27 0 0 1 22.266-11.733 32.8 32.8 0 0 1 35.6 36.533" class="d"></path><path fill="none" stroke-width="1.3" d="M109.667 95.8A21.733 21.733 0 0 1 69 103.667l-2.533 6.533a21.47 21.47 0 0 1-12.134-11.733 22 22 0 0 1-.266-16.934 23.1 23.1 0 0 1 5.066-7.6C55.267 71.4 49.667 69.8 48.6 66.2s5.867-11.067 6.133-16.133C55 45 48.067 38.333 49.8 33.533S61 28.2 64.2 24.067c3.2-4.134 1.467-12.8 5.467-16A64.4 64.4 0 0 0 79 126.867a66.8 66.8 0 0 0 15.867 3.066c11.466.8-.4-2.8 10.133-8.133l5.867-26.667z" class="h"></path><circle cx="119.133" cy="98.067" r="14.933" fill="#fff" stroke-width="1.3" class="a"></circle><circle cx="115.8" cy="106.067" r="8.8" fill="#95c6e6" stroke-width="1.3" class="c"></circle><path fill="#fff" stroke-width="1.3" d="M120.067 125c-10.8-1.733-13.067-13.067-6.534-17.467l3.067-1.866c7.067-4.534 11.867-12.534 14.267-25.734.666-4.266 1.2-7.866 1.466-11.333a2.8 2.8 0 0 0-1.6-2.8s1.867-1.6 1.867-3.067a97 97 0 0 0-.267-10.8 7.73 7.73 0 0 0-4.933-6.4L125.933 45l-.8-4.533a3.47 3.47 0 0 0-2-2.667c-8.266-3.867-6.266-10.667-5.333-16.267a3.6 3.6 0 0 0 4.8-2.666l.4-1.6a2.4 2.4 0 0 0-1.6-2.8 75 75 0 0 0-20.533-2.8A73.9 73.9 0 0 0 81 14.467a2.8 2.8 0 0 0-2.133 3.466L79.133 19a3.733 3.733 0 0 0 4.934 2.8c.666 5.733 2 12.667-4.667 16.4a5.33 5.33 0 0 0-2.933 4.133l-.534 3.467-1.866.8a7.87 7.87 0 0 0-4.534 6.4 93 93 0 0 0-.133 10.533 6.27 6.27 0 0 0 1.867 3.067 2.93 2.93 0 0 0-1.334 2.8c.534 3.2 1.067 6.667 2 10.667 3.2 13.2 9.067 21.066 16.4 26.266l2.4 1.734C96.6 111.933 93 123 82.333 125A10 10 0 0 0 75 130.467l-.933 2.266a1.2 1.2 0 0 0 .8 1.6 101 101 0 0 0 26.133 3.2 102.1 102.1 0 0 0 26.267-3.333 1.067 1.067 0 0 0 .8-1.6l-1.467-2.933a8.8 8.8 0 0 0-6.533-4.667" class="a"></path><path fill="#fff" stroke-width="1.3" d="M120.067 125c-10.8-1.733-13.067-13.067-6.534-17.467l3.067-1.866c7.067-4.534 11.867-12.534 14.267-25.734.666-4.266 1.2-7.866 1.466-11.333a2.8 2.8 0 0 0-1.6-2.8s1.867-1.6 1.867-3.067a97 97 0 0 0-.267-10.8 7.73 7.73 0 0 0-4.933-6.4L125.933 45l-.8-4.533a3.47 3.47 0 0 0-2-2.667c-8.266-3.867-6.266-10.667-5.333-16.267a3.6 3.6 0 0 0 4.8-2.666l.4-1.6a2.4 2.4 0 0 0-1.6-2.8 75 75 0 0 0-20.533-2.8A73.9 73.9 0 0 0 81 14.467a2.8 2.8 0 0 0-2.133 3.466L79.133 19a3.733 3.733 0 0 0 4.934 2.8c.666 5.733 2 12.667-4.667 16.4a5.33 5.33 0 0 0-2.933 4.133l-.534 3.467-1.866.8a7.87 7.87 0 0 0-4.534 6.4 93 93 0 0 0-.133 10.533 6.27 6.27 0 0 0 1.867 3.067 2.93 2.93 0 0 0-1.334 2.8c.534 3.2 1.067 6.667 2 10.667 3.2 13.2 9.067 21.066 16.4 26.266l2.4 1.734C96.6 111.933 93 123 82.333 125A10 10 0 0 0 75 130.467l-.933 2.266a1.2 1.2 0 0 0 .8 1.6 101 101 0 0 0 26.133 3.2 102.1 102.1 0 0 0 26.267-3.333 1.067 1.067 0 0 0 .8-1.6l-1.467-2.933a8.8 8.8 0 0 0-6.533-4.667" class="a"></path><g style="clip-path:url(#a)" transform="matrix(1.33333 0 0 1.33333 1 1)"><path fill="#c9c8c9" fill-rule="evenodd" d="M94.4 33a14.5 14.5 0 0 0-4.2-8.7c-.6-.7-.6-.4-.1.2s3.1 4.2 3 5.2-.2.5-.5-.3a2.5 2.5 0 0 0-1.6-1.7c-.7-.1.1 1.1.7 1.7s.2.8-.7.2a15.8 15.8 0 0 1-2.6-3.1l-1.2-2c-.3-.6-.7-.7-.3 0l.3.7a5.6 5.6 0 0 1 .5.8 8.8 8.8 0 0 1 1.2 3.7c0 .7-.8.3-.9-.2s-.8-1.9-1.4-1.8c-.7-.1-.1 1.1.4 1.8s0 .9-.7.2a12.1 12.1 0 0 1-2.2-3.2c-.2-.6-.5-1.2-.7-1.7a.4.4 0 0 0-.1-.3 1.4 1.4 0 0 0-.3-.5c-.2 0-.2.2-.1.5l.2.3a15 15 0 0 0 .5 1.7 7.8 7.8 0 0 1 .5 3.2c-.2.7-.9.3-.9-.2s-.5-1.9-1.1-1.8c-.7-.1-.3 1.1.1 1.8s-.2.9-.8.2a12.6 12.6 0 0 1-2-5.2c-.1-.3-.2-.5-.3-.4s-.2.1-.1.4a11.7 11.7 0 0 1 .2 5.2c-.3.7-1 .3-.9-.2s-.1-1.9-.7-1.8c-.7-.1-.6 1.1-.3 1.8s-.4.9-.8.2a8 8 0 0 1-1-3.2v-2c-.1-.3-.2-.5-.3-.4s-.1.1-.1.4v2a7.9 7.9 0 0 1-.8 3.2c-.4.7-1 .3-.8-.2s.2-1.9-.4-1.8c-.6-.1-.8 1.1-.6 1.8s-.6.9-.9.2a6.6 6.6 0 0 1-.3-3.2c.1-.6.1-1.2.2-1.7v-.2c.1-.4 0-.6-.1-.5s-.2.1-.3.5v.2l-.3 1.7a8.4 8.4 0 0 1-1.4 3.2c-.5.7-1.1.3-.8-.2s.7-1.9 0-1.8c-.6-.1-1 1.1-1 1.8s-.7.9-.9.2a5.5 5.5 0 0 1 .2-2.8c.3-.9.5-1.7.7-2.4v-.2c0-.2-.1-.3-.1-.2s-.2 0-.2.2-.1.1-.2.2l-.8 2.4a13.4 13.4 0 0 1-1.8 2.8c-.7.7-1.2.3-.8-.2s1-1.9.3-1.8c-.6-.1-1.2 1.1-1.3 1.8s-.9.9-.9.2a12.1 12.1 0 0 1 1.8-5.1c.2-.5.1-.6 0-.5s-.3.2-.4.5a18.3 18.3 0 0 1-3.6 5c-.8.7-1.2.3-.7-.1s1.3-1.9.6-1.8a2.5 2.5 0 0 0-1.5 1.8c-.2.8-.4.7-.5.3s1.1-3.6 2.9-5.4.4-.9-.2-.3c-4.3 4.5-5.4 6.9-5 9.1v.4l1.6-.2h.4s9.9-1.1 18.5-1.2a152 152 0 0 1 18.7.8" class="j"></path><path fill="#c9c8c9" d="M97.3 48.7s1.7.1 1.8-1l.3-.3-.2-.7c-15.9-.3-32.5-.8-47.8 1.6v1a280 280 0 0 1 45.8-.6zM76.6 14.7c5.3 1.4 6.7 5.8 11.8 8.4a21.9 21.9 0 0 1-.8-7.6 45.4 45.4 0 0 0-12.8-2 38 38 0 0 0-4.4.2 33.3 33.3 0 0 0-8.1 1.9c-.1 3.7.4 1.8-1.3 5.6 2.5.4 3.4-2.5 7.1-5.3s5-2.1 8.5-1.2" class="k"></path><path fill="#c9c8c9" fill-rule="evenodd" d="M98.6 58.4c-.1-.5-.6-.3-.5.2a4.4 4.4 0 0 1-1.8 4.3c-.5.4-.7.4-.2-.3s.5-1.3-.3-1.4-1 .9-.8 1.5-.6.6-1 .1a4.2 4.2 0 0 1-.5-2.5c.1-.6.1-1.2.2-1.7s-.5-.6-.6 0a1.3 1.3 0 0 1-.1.6 1.3 1.3 0 0 1-.1.6 5.7 5.7 0 0 1-1.5 3c-.5.6-1.2.3-1-.1a1.2 1.2 0 0 0 .1-1.4c.4-1.7 1.8-2.8 2.6-4.3a8.5 8.5 0 0 0 .6-1.7c0 .2.2.4.3.7s1.4 1.8.7 3.9c2.6-1.4 5.9-4.8 4-9.3-.2-.6-.7-.3-.4.1a3.8 3.8 0 0 1-1 4.3c-.5.4-.7.4-.3-.2s.3-1.4-.6-1.5-.8.9-.5 1.5-.6.7-1 .1a4.6 4.6 0 0 1-1-2.5 9 9 0 0 1-.1-1.6c0-.5-.6-.6-.6 0V52a4.6 4.6 0 0 1-1.1 3c-.5.6-1.2.2-1-.1s.2-1.6-.7-1.6c-.8 0-.9 1-.6 1.6s-.5.7-1 .1a4.6 4.6 0 0 1-1.1-2.7v-1.5c0-.3-.2-.5-.3-.4s-.3.1-.3.4v.2c0 .4-.1.9-.1 1.3a5.2 5.2 0 0 1-1 2.7c-.5.6-1.2.2-1.1-.1s.3-1.6-.6-1.6-.9 1-.6 1.6-.6.7-1.1.1a6.6 6.6 0 0 1-1.1-4.2c.1-.3-.1-.5-.3-.4s-.3.1-.3.4a5.6 5.6 0 0 1-1.1 4.2c-.5.6-1.2.2-1-.1s.2-1.6-.7-1.6c-.8 0-.9 1-.6 1.6s-.6.7-1.1.1a5.2 5.2 0 0 1-1-2.7v-1.5c0-.3-.2-.5-.3-.4s-.4.1-.3.4v.2a5.7 5.7 0 0 0-.1 1.3 5.2 5.2 0 0 1-1 2.7c-.5.6-1.3.2-1.1-.1s.3-1.6-.6-1.6-.9 1-.6 1.6-.6.7-1.1.1a5.2 5.2 0 0 1-1-2.7c0-.4-.1-.9-.1-1.3v-.2c0-.3-.1-.5-.3-.4s-.3.1-.3.4v1.5a4.6 4.6 0 0 1-1.1 2.7c-.5.6-1.2.2-1-.1s.2-1.6-.6-1.6c-.9 0-1 1-.7 1.6s-.5.7-1 .1a4.3 4.3 0 0 1-1-2.3c0-.7-.1-1.4-.1-1.9v-.3h-.3c-.1 0-.2 0-.2.1a.4.4 0 0 0-.1.3c0 .5-.1 1.2-.1 1.9a5 5 0 0 1-.9 2.3c-.5.6-1.3.2-1.1-.1s.2-1.6-.6-1.6c-.9 0-1 1-.7 1.6s-.5.7-1 .1a5.6 5.6 0 0 1-1.1-4.3c0-.4-.2-.5-.4-.4s-.2.2-.2.4a6.2 6.2 0 0 1-1.1 4.2c-.5.5-1.2.2-1-.2s.2-1.5-.7-1.5-.9.9-.5 1.5.2.7-.4.3a4.1 4.1 0 0 1-1-4.5c.3-.4-.2-.7-.5-.2-1.9 4.7 1.6 8.3 4.3 9.7-.7-2.2-.2-2.4.7-4a3 3 0 0 0 .4-.8 7 7 0 0 0 .5 1.7c.9 1.7 2.7 2.7 2.7 5.1 0-2.2 1.7-3.4 2.6-5.1a3 3 0 0 0 .4-1 10 10 0 0 0 .4 1c.8 1.5 2.3 2.5 2.6 4.3s-.1 1 .1 1.4-.4.7-1 .1a6.1 6.1 0 0 1-1.3-2.2 12 12 0 0 0-.4-2c0-.1 0-.2-.1-.2s-.2-.2-.2-.2l-.3.2v.2l.3 2a4 4 0 0 1-.5 2.2c-.4.6-1.2.3-1.1-.1s0-1.6-.9-1.5c-.8-.1-.7.9-.3 1.5s-.3.7-.9.1a7.2 7.2 0 0 1-2-4.2c-.1-.3-.4-.4-.5-.3s-.2.1-.2.4.7 3 0 4.1-1.1.3-1-.1-.2-1.6-1-1.5-.6.9-.1 1.5.3.6-.3.2-2.5-2.9-2.2-4.4-.5-.8-.6-.2c-.4 4.7 3.9 8.2 6.7 9.7-1.2-2.2-.7-2.4-.3-4.1 0-.2.1-.5.1-.7l.9 1.7c1.2 1.6 3 2.6 3.5 5.1-.4-2.3.9-3.5 1.4-5.1a3.6 3.6 0 0 0 .2-1l.6 1c1 1.6 2.7 2.6 3.1 5-.3.2-.2 1 .1 1.5s-.3.7-.8.1a6.5 6.5 0 0 1-1.3-2.3l-.6-2a.3.3 0 0 0-.1-.2c0-.1-.1-.2-.2-.1s-.2 0-.2.1v.2a19 19 0 0 0 .5 2 4.3 4.3 0 0 1-.2 2.3c-.2.6-.9.2-.9-.1s-.3-1.7-1-1.6c-.7-.1-.4 1 0 1.6s-.1.7-.7.1a10.7 10.7 0 0 1-2.5-4.2c-.1-.4-.4-.5-.5-.4s-.2.1-.1.4a6.8 6.8 0 0 1 .9 4.2c-.1.5-.9.2-.9-.2s-.5-1.6-1.2-1.5-.3.9.3 1.5.4.6-.2.2a7.5 7.5 0 0 1-3-4.4c-.1-.5-.6-.7-.5-.2.9 4.7 5.4 8.2 7.9 9.7-1.5-2.2-1.2-2.4-1.2-4a1.5 1.5 0 0 0-.1-.7l1.1 1.6c1.3 1.7 2.8 2.7 3.6 5.1-.7-2.2.1-3.4.3-5.1v-1l.6 1c1 1.7 2.4 2.7 2.8 5.1-.4-2.2.6-3.4 1-5.1a3.6 3.6 0 0 0 .2-1c.2.3.3.7.5 1s2 2.7 2.1 5.1c-.1-2.2 1.1-3.4 1.7-5.1a4.2 4.2 0 0 0 .4-1l.3 1c.5 1.7 1.6 2.7 1.4 5.1.2-2.2 1.6-3.4 2.4-5.1l.6-1.1a3.7 3.7 0 0 0 .1 1.1c.3 1.7 1.3 2.7.7 5.1.5-2.2 2.1-3.4 3.2-5.1l.6-1v1c.1 1.7.9 2.7 0 5.1.8-2.2 2.5-3.4 3.9-5.1l1.2-1.7a1.7 1.7 0 0 0-.1.7c-.1 1.6.2 1.8-1.4 3.9 2.5-1.4 7-4.8 8.1-9.4.2-.5-.4-.2-.5.2a7.4 7.4 0 0 1-3.1 4.3c-.6.4-.8.4-.2-.2s1-1.4.4-1.5-1.2.9-1.3 1.5-.7.7-.8.1a4.7 4.7 0 0 1 .4-2.5c.2-.6.5-1.1.7-1.7s-.3-.5-.5.1l-.3.5-.3.7a8.9 8.9 0 0 1-2.2 3c-.6.6-1 .2-.7-.1s.8-1.7.1-1.6h-.1c-.6-.1-1 1-1 1.6s-.7.7-.9.1a4.6 4.6 0 0 1 0-2.6 10 10 0 0 0 .4-1.4.3.3 0 0 0 .1-.2c.1-.3 0-.5-.1-.4s-.3.1-.4.4v.2c-.1.4-.3.9-.4 1.4a8.3 8.3 0 0 1-1.7 2.6c-.5.6-1 .2-.7-.1s.6-1.7-.2-1.6c-.7-.1-.9 1-.8 1.6a.5.5 0 0 1-.9.1 7.4 7.4 0 0 1-.1-4.2c.1-.4 0-.5-.2-.4s-.3 0-.3.4a8 8 0 0 1-1.7 4.2c-.4.6-1 .2-.8-.1s.4-1.3 0-1.5c0-2.2 1.6-3.4 2.4-5l.5-1.2.3 1.2c.8 1.6 2.3 2.6 2.2 5.1.1-2.3 1.8-3.5 2.7-5.1a5.4 5.4 0 0 0 .5-1.1l.3 1.1c.7 1.6 2.1 2.6 1.8 5.1.3-2.3 2-3.5 3.1-5.1a9 9 0 0 0 .8-1.7c.1.2.1.4.2.6s1 1.8 0 4c2.6-1.4 6.4-4.8 5.6-9.4m-24-1.4a3.7 3.7 0 0 0 .5-1.1 3.6 3.6 0 0 0 .4 1.1c.8 1.5 2.2 2.4 2.5 4.2-.7 0-.7 1-.4 1.5s-.6.7-1 .1a4.1 4.1 0 0 1-1.1-2.6c0-.5-.1-.9-.1-1.3v-.3c0-.3-.2-.4-.3-.4s-.3.1-.3.4v1.6a3.9 3.9 0 0 1-.9 2.6c-.4.6-1.1.3-1-.1s.2-1.6-.7-1.5h-.1c.4-1.7 1.8-2.8 2.5-4.2m-7.5 5.7c.2-.6 0-1.6-.8-1.5H66c.3-1.7 1.7-2.7 2.5-4.2a3.6 3.6 0 0 0 .4-1.1 3.7 3.7 0 0 0 .5 1.1c.7 1.5 2.2 2.4 2.5 4.2-.5.2-.4 1-.2 1.5s-.4.7-1 .1a5.7 5.7 0 0 1-1.2-2.6c-.1-.5-.1-.9-.2-1.3v-.3c0-.3-.2-.4-.3-.4s-.4.1-.3.4v.3c0 .4.1.8.1 1.3a3.8 3.8 0 0 1-.7 2.6c-.4.6-1.1.3-1-.1m5.3 8.7c.2.3-.4.7-.8.1a6.6 6.6 0 0 1-1.1-2.6 6 6 0 0 0-.2-1.4v-.2c0-.3-.2-.5-.3-.4s-.3.1-.2.4v.2a6 6 0 0 1 .1 1.4 4.6 4.6 0 0 1-.4 2.6c-.3.6-1 .2-.9-.1s-.1-1.7-.8-1.6h-.3c-.3-2.2 1.1-3.4 1.8-5a4.3 4.3 0 0 0 .2-1.1l.5 1.1c1 1.6 2.6 2.6 2.8 4.9-.7.1-.6 1.1-.4 1.7m5.5-1.6c-.7-.1-.9 1-.7 1.6s-.5.7-.8.1a4.8 4.8 0 0 1-.7-2.6v-1.6c0-.3-.1-.5-.3-.4s-.2.1-.2.4v.2a6 6 0 0 0-.1 1.4 6.2 6.2 0 0 1-.9 2.6c-.3.6-.9.2-.8-.1s.2-1.7-.5-1.6h-.1c0-2.1 1.4-3.3 2.1-4.9a5 5 0 0 0 .4-1.1 5 5 0 0 0 .4 1.1c.9 1.6 2.5 2.6 2.5 5zm6.2-8.6c-.8-.1-.9.9-.7 1.5s-.5.7-1 .1a5.9 5.9 0 0 1-.9-4.2c0-.3-.1-.4-.3-.4s-.3.1-.3.4a6.5 6.5 0 0 1-1.1 4.2c-.5.6-1.2.3-1-.1s.2-1.5-.6-1.5c.4-1.7 1.8-2.8 2.6-4.2a3.4 3.4 0 0 0 .4-1.2 3.3 3.3 0 0 0 .5 1.2c.7 1.5 2.2 2.4 2.5 4.2zm5.9 0c-.8-.1-1 .9-.8 1.5s-.6.7-1 .1a4.4 4.4 0 0 1-.7-2.6c0-.5.1-.9.1-1.3v-.3c.1-.3-.1-.4-.2-.4a.4.4 0 0 0-.4.4v.3c-.1.4-.1.8-.2 1.3a4.8 4.8 0 0 1-1.2 2.6c-.5.6-1.2.3-1-.1s.3-1.3-.2-1.5c.4-1.7 1.8-2.8 2.5-4.2a3.7 3.7 0 0 0 .5-1.1 3.6 3.6 0 0 0 .4 1.1c.8 1.5 2.2 2.4 2.6 4.2z" class="j"></path><path fill="#c9c8c9" d="M75.2 96.4c4.1-.4 8.8-3.5 7-9.1 1.1 2.7 6.5 5.8 10.4 6.4-3.2 2-10.7 2.7-17.4 2.7" class="k"></path><path fill="#c9c8c9" d="M27.2 60.9C27.2 88.8 50.9 100 75 100s47.8-11.2 47.8-39.1v54.2H27.2Z" class="k"></path><path fill="#c9c8c9" d="m93.6 32.7.1.4z" class="k" style="opacity:.5;mix-blend-mode:screen"></path></g><path fill="#003282" d="M138.182 131.235h-.333l-.666 1.498-.832-1.498h-.499v2.496h.5v-1.497l.499 1.165h.499l.499-1.165v1.497h.665v-2.496zM133.356 131.235v.333h.832v2.163h.5v-1.996h.665c.166 0 .166-.167.166-.333a.166.166 0 0 0-.166-.167z" class="h"></path><path d="M120.453 226.24a.6.6 0 0 0-.541.332c-.096.182-.466.647-.824 1.033-.358.387-.75.94-.871 1.23-.2.477-.198.554.02.794.131.146.393.304.58.35.188.048.371.17.408.272s.016 2.14-.046 4.528a736 736 0 0 0-.124 5.263l-.011.92h-.964c-.57 0-1.14.09-1.392.22-.428.222-.428.223-.215.824.116.332.387.924.6 1.317.284.52.494.73.775.775.212.034 1.472.054 2.8.045 2.4-.016 2.414-.018 2.664-.384.203-.297.235-.565.163-1.386-.087-1.005-.096-1.021-.601-1.19l-.512-.172.038-4.036c.021-2.22.109-5.084.195-6.363s.119-2.478.072-2.663c-.046-.185-.224-.514-.395-.732s-.568-.527-.881-.686-.735-.29-.938-.29m-27.277.001c-.508.001-.914.122-1.46.435-.415.238-1.068.784-1.45 1.213-.383.429-.854 1.115-1.047 1.525s-.388.94-.433 1.178c-.072.371-.019.469.378.69.253.142.752.258 1.109.258.597 0 .67-.043.941-.552.162-.304.379-.653.482-.777.103-.123.378-.372.612-.552.246-.19.633-.328.92-.328.308 0 .613.118.806.311.264.265.302.442.248 1.183-.049.672-.223 1.182-.76 2.23-.384.748-1.02 1.822-1.415 2.388s-1.316 1.89-2.047 2.942c-.73 1.053-1.596 2.245-1.923 2.65s-.594.804-.595.887.445.589.992 1.124 1.093 1.008 1.214 1.052c.122.043.652.083 1.178.088s1.398-.085 1.937-.199a36 36 0 0 0 2.467-.666c1.118-.345 1.545-.549 1.724-.821.2-.307.209-.432.052-.81-.102-.247-.392-.556-.643-.688-.321-.169-.744-.227-1.415-.196-.526.024-1.42.052-1.985.063-.822.015-1.036-.027-1.072-.21-.025-.126.3-.623.723-1.104s1.331-1.737 2.018-2.79c.688-1.052 1.439-2.33 1.67-2.838.239-.526.487-1.422.575-2.076.11-.816.109-1.402-.004-2.013-.088-.474-.375-1.218-.638-1.652-.262-.434-.693-.953-.956-1.154a5.4 5.4 0 0 0-.989-.579c-.28-.117-.827-.212-1.214-.212m9.468.297c-.17.002-.59.13-.933.286s-.892.569-1.22.917c-.326.349-.856 1.164-1.177 1.811-.32.648-.683 1.575-.807 2.061-.123.486-.264 1.513-.313 2.282-.05.77-.015 2.001.075 2.738.091.736.298 1.863.46 2.502.161.64.522 1.63.802 2.201.327.667.72 1.206 1.1 1.512.324.26.741.535.926.61s.525.139.756.144.643-.097.916-.227c.274-.13.729-.492 1.011-.804.283-.313.692-.919.91-1.347.27-.533.456-1.242.59-2.25.107-.81.195-2.532.196-3.828 0-1.295-.095-3.024-.211-3.843-.116-.818-.305-1.757-.418-2.087-.114-.33-.427-.877-.696-1.217a6.6 6.6 0 0 0-1.074-1.042c-.321-.232-.723-.421-.893-.42m9.878.012q-.269 0-.599.02c-.765.046-1.45.184-1.902.383-.388.172-1.06.648-1.494 1.058-.48.453-.916 1.043-1.114 1.503-.244.566-.308.942-.255 1.493.057.591.162.818.534 1.15.254.227.618.413.809.413.19 0 .512-.131.716-.292.22-.172.414-.517.475-.841.056-.302.192-.722.301-.934.11-.211.468-.627.798-.925.45-.407.727-.54 1.116-.54.423 0 .57.086.817.478.225.358.283.644.233 1.14-.042.412-.372 1.257-.87 2.229-.443.86-1.526 2.61-2.407 3.888a151 151 0 0 1-2.656 3.727l-1.052 1.405.905.998.905.998 2.797-.077c1.538-.042 3.052-.11 3.365-.149.312-.04.762-.173 1-.296.237-.123.501-.375.585-.56.115-.251.096-.474-.074-.881-.16-.384-.393-.62-.785-.797-.445-.2-.939-.245-2.435-.223-1.032.015-1.877-.024-1.877-.086 0-.063.172-.274.382-.47.21-.197.892-1.12 1.516-2.05a86 86 0 0 0 1.666-2.577c.292-.485.772-1.363 1.066-1.95s.665-1.575.823-2.195c.159-.62.288-1.366.288-1.656 0-.291-.072-.784-.159-1.096-.086-.312-.422-.855-.746-1.207-.396-.43-.833-.72-1.331-.885-.41-.136-.8-.196-1.341-.196m-9.667 3.96c.066 0 .2.243.298.54.118.358.149.996.09 1.878-.048.734-.16 2.163-.246 3.175-.087 1.012-.225 2.18-.306 2.594s-.238.876-.347 1.026c-.182.248-.219.207-.422-.477a30 30 0 0 1-.474-1.983c-.18-.885-.231-1.65-.18-2.705.054-1.086.173-1.743.454-2.503.21-.567.523-1.146.697-1.288s.37-.258.436-.258" style="opacity:1;fill:#003282;fill-opacity:1;stroke:none;stroke-width:3;stroke-miterlimit:4;stroke-dasharray:none;stroke-opacity:1;paint-order:markers stroke fill" transform="translate(-1.327 -24.82)"></path></g><!-- source: https://football-logos.cc --></svg>