<svg xmlns="http://www.w3.org/2000/svg" viewBox="0 0 61.72 83.45"><!-- Source: https://football-logos.cc --><defs data-source="https://football-logos.cc"><clipPath id="a" clipPathUnits="userSpaceOnUse"><path d="M2826.51 550.37h34.678v46.885h-34.677z"></path></clipPath><clipPath id="b" clipPathUnits="userSpaceOnUse"><path d="M0 0h1191v842H0Z"></path></clipPath><clipPath id="c" clipPathUnits="userSpaceOnUse"><path d="M2826.51 550.37h34.678v46.885h-34.677z"></path></clipPath><clipPath id="d" clipPathUnits="userSpaceOnUse"><path d="M0 0h1191v842H0Z"></path></clipPath><clipPath id="e" clipPathUnits="userSpaceOnUse"><path d="M2826.51 550.37h34.678v46.885h-34.677z"></path></clipPath><clipPath id="f" clipPathUnits="userSpaceOnUse"><path d="M0 0h1191v842H0Z"></path></clipPath><clipPath id="g" clipPathUnits="userSpaceOnUse"><path d="M2826.51 550.37h34.678v46.885h-34.677z"></path></clipPath><clipPath id="h" clipPathUnits="userSpaceOnUse"><path d="M0 0h1191v842H0Z"></path></clipPath><clipPath id="i" clipPathUnits="userSpaceOnUse"><path d="M2826.51 550.37h34.678v46.885h-34.677z"></path></clipPath><clipPath id="j" clipPathUnits="userSpaceOnUse"><path d="M0 0h1191v842H0Z"></path></clipPath><clipPath id="k" clipPathUnits="userSpaceOnUse"><path d="M2826.51 550.37h34.678v46.885h-34.677z"></path></clipPath><clipPath id="l" clipPathUnits="userSpaceOnUse"><path d="M0 0h1191v842H0Z"></path></clipPath><clipPath id="m" clipPathUnits="userSpaceOnUse"><path d="M2826.51 550.37h34.678v46.885h-34.677z"></path></clipPath><clipPath id="n" clipPathUnits="userSpaceOnUse"><path d="M0 0h1191v842H0Z"></path></clipPath><clipPath id="o" clipPathUnits="userSpaceOnUse"><path d="M2826.51 550.37h34.678v46.885h-34.677z"></path></clipPath><clipPath id="p" clipPathUnits="userSpaceOnUse"><path d="M0 0h1191v842H0Z"></path></clipPath><clipPath id="q" clipPathUnits="userSpaceOnUse"><path d="M2826.51 550.37h34.678v46.885h-34.677z"></path></clipPath><clipPath id="r" clipPathUnits="userSpaceOnUse"><path d="M0 0h1191v842H0Z"></path></clipPath><clipPath id="s" clipPathUnits="userSpaceOnUse"><path d="M2826.51 550.37h34.678v46.885h-34.677z"></path></clipPath><clipPath id="t" clipPathUnits="userSpaceOnUse"><path d="M0 0h1191v842H0Z"></path></clipPath><clipPath id="u" clipPathUnits="userSpaceOnUse"><path d="M2826.51 550.37h34.678v46.885h-34.677z"></path></clipPath><clipPath id="v" clipPathUnits="userSpaceOnUse"><path d="M0 0h1191v842H0Z"></path></clipPath><clipPath id="w" clipPathUnits="userSpaceOnUse"><path d="M2826.51 550.37h34.678v46.885h-34.677z"></path></clipPath><clipPath id="x" clipPathUnits="userSpaceOnUse"><path d="M0 0h1191v842H0Z"></path></clipPath><clipPath id="y" clipPathUnits="userSpaceOnUse"><path d="M2826.51 550.37h34.678v46.885h-34.677z"></path></clipPath><clipPath id="z" clipPathUnits="userSpaceOnUse"><path d="M0 0h1191v842H0Z"></path></clipPath><clipPath id="A" clipPathUnits="userSpaceOnUse"><path d="M2826.51 550.37h34.678v46.885h-34.677z"></path></clipPath><clipPath id="B" clipPathUnits="userSpaceOnUse"><path d="M0 0h1191v842H0Z"></path></clipPath><clipPath id="C" clipPathUnits="userSpaceOnUse"><path d="M2826.51 550.37h34.678v46.885h-34.677z"></path></clipPath><clipPath id="D" clipPathUnits="userSpaceOnUse"><path d="M0 0h1191v842H0Z"></path></clipPath><clipPath id="E" clipPathUnits="userSpaceOnUse"><path d="M2826.51 550.37h34.678v46.885h-34.677z"></path></clipPath><clipPath id="F" clipPathUnits="userSpaceOnUse"><path d="M0 0h1191v842H0Z"></path></clipPath><clipPath id="G" clipPathUnits="userSpaceOnUse"><path d="M2826.51 550.37h34.678v46.885h-34.677z"></path></clipPath><clipPath id="H" clipPathUnits="userSpaceOnUse"><path d="M0 0h1191v842H0Z"></path></clipPath><clipPath id="I" clipPathUnits="userSpaceOnUse"><path d="M2826.51 550.37h34.678v46.885h-34.677z"></path></clipPath><clipPath id="J" clipPathUnits="userSpaceOnUse"><path d="M0 0h1191v842H0Z"></path></clipPath><clipPath id="K" clipPathUnits="userSpaceOnUse"><path d="M2826.51 550.37h34.678v46.885h-34.677z"></path></clipPath><clipPath id="L" clipPathUnits="userSpaceOnUse"><path d="M0 0h1191v842H0Z"></path></clipPath><clipPath id="M" clipPathUnits="userSpaceOnUse"><path d="M2826.51 550.37h34.678v46.885h-34.677z"></path></clipPath><clipPath id="N" clipPathUnits="userSpaceOnUse"><path d="M0 0h1191v842H0Z"></path></clipPath><clipPath id="O" clipPathUnits="userSpaceOnUse"><path d="M2826.51 550.37h34.678v46.885h-34.677z"></path></clipPath><clipPath id="P" clipPathUnits="userSpaceOnUse"><path d="M0 0h1191v842H0Z"></path></clipPath><clipPath id="Q" clipPathUnits="userSpaceOnUse"><path d="M2826.51 550.37h34.678v46.885h-34.677z"></path></clipPath><clipPath id="R" clipPathUnits="userSpaceOnUse"><path d="M0 0h1191v842H0Z"></path></clipPath><clipPath id="S" clipPathUnits="userSpaceOnUse"><path d="M2826.51 550.37h34.678v46.885h-34.677z"></path></clipPath><clipPath id="T" clipPathUnits="userSpaceOnUse"><path d="M0 0h1191v842H0Z"></path></clipPath><clipPath id="U" clipPathUnits="userSpaceOnUse"><path d="M2826.51 550.37h34.678v46.885h-34.677z"></path></clipPath><clipPath id="V" clipPathUnits="userSpaceOnUse"><path d="M0 0h1191v842H0Z"></path></clipPath><clipPath id="W" clipPathUnits="userSpaceOnUse"><path d="M2826.51 550.37h34.678v46.885h-34.677z"></path></clipPath><clipPath id="X" clipPathUnits="userSpaceOnUse"><path d="M0 0h1191v842H0Z"></path></clipPath><clipPath id="Y" clipPathUnits="userSpaceOnUse"><path d="M2826.51 550.37h34.678v46.885h-34.677z"></path></clipPath><clipPath id="Z" clipPathUnits="userSpaceOnUse"><path d="M0 0h1191v842H0Z"></path></clipPath><clipPath id="aa" clipPathUnits="userSpaceOnUse"><path d="M2826.51 550.37h34.678v46.885h-34.677z"></path></clipPath><clipPath id="ab" clipPathUnits="userSpaceOnUse"><path d="M0 0h1191v842H0Z"></path></clipPath><clipPath id="ac" clipPathUnits="userSpaceOnUse"><path d="M2826.51 550.37h34.678v46.885h-34.677z"></path></clipPath><clipPath id="ad" clipPathUnits="userSpaceOnUse"><path d="M0 0h1191v842H0Z"></path></clipPath><clipPath id="ae" clipPathUnits="userSpaceOnUse"><path d="M2826.51 550.37h34.678v46.885h-34.677z"></path></clipPath><clipPath id="af" clipPathUnits="userSpaceOnUse"><path d="M0 0h1191v842H0Z"></path></clipPath><clipPath id="ag" clipPathUnits="userSpaceOnUse"><path d="M2826.51 550.37h34.678v46.885h-34.677z"></path></clipPath><clipPath id="ah" clipPathUnits="userSpaceOnUse"><path d="M0 0h1191v842H0Z"></path></clipPath><clipPath id="ai" clipPathUnits="userSpaceOnUse"><path d="M2826.51 550.37h34.678v46.885h-34.677z"></path></clipPath><clipPath id="aj" clipPathUnits="userSpaceOnUse"><path d="M0 0h1191v842H0Z"></path></clipPath><clipPath id="ak" clipPathUnits="userSpaceOnUse"><path d="M2826.51 550.37h34.678v46.885h-34.677z"></path></clipPath><clipPath id="al" clipPathUnits="userSpaceOnUse"><path d="M0 0h1191v842H0Z"></path></clipPath><clipPath id="am" clipPathUnits="userSpaceOnUse"><path d="M2826.51 550.37h34.678v46.885h-34.677z"></path></clipPath><clipPath id="an" clipPathUnits="userSpaceOnUse"><path d="M0 0h1191v842H0Z"></path></clipPath><clipPath id="ao" clipPathUnits="userSpaceOnUse"><path d="M2826.51 550.37h34.678v46.885h-34.677z"></path></clipPath><clipPath id="ap" clipPathUnits="userSpaceOnUse"><path d="M0 0h1191v842H0Z"></path></clipPath><clipPath id="aq" clipPathUnits="userSpaceOnUse"><path d="M2826.51 550.37h34.678v46.885h-34.677z"></path></clipPath><clipPath id="ar" clipPathUnits="userSpaceOnUse"><path d="M0 0h1191v842H0Z"></path></clipPath><clipPath id="as" clipPathUnits="userSpaceOnUse"><path d="M2826.51 550.37h34.678v46.885h-34.677z"></path></clipPath><clipPath id="at" clipPathUnits="userSpaceOnUse"><path d="M0 0h1191v842H0Z"></path></clipPath><clipPath id="au" clipPathUnits="userSpaceOnUse"><path d="M2826.51 550.37h34.678v46.885h-34.677z"></path></clipPath><clipPath id="av" clipPathUnits="userSpaceOnUse"><path d="M0 0h1191v842H0Z"></path></clipPath><clipPath id="aw" clipPathUnits="userSpaceOnUse"><path d="M2826.51 550.37h34.678v46.885h-34.677z"></path></clipPath><clipPath id="ax" clipPathUnits="userSpaceOnUse"><path d="M0 0h1191v842H0Z"></path></clipPath><clipPath id="ay" clipPathUnits="userSpaceOnUse"><path d="M2826.51 550.37h34.678v46.885h-34.677z"></path></clipPath><clipPath id="az" clipPathUnits="userSpaceOnUse"><path d="M0 0h1191v842H0Z"></path></clipPath><clipPath id="aA" clipPathUnits="userSpaceOnUse"><path d="M2826.51 550.37h34.678v46.885h-34.677z"></path></clipPath><clipPath id="aB" clipPathUnits="userSpaceOnUse"><path d="M0 0h1191v842H0Z"></path></clipPath><clipPath id="aC" clipPathUnits="userSpaceOnUse"><path d="M2826.51 550.37h34.678v46.885h-34.677z"></path></clipPath><clipPath id="aD" clipPathUnits="userSpaceOnUse"><path d="M0 0h1191v842H0Z"></path></clipPath><clipPath id="aE" clipPathUnits="userSpaceOnUse"><path d="M2826.51 550.37h34.678v46.885h-34.677z"></path></clipPath><clipPath id="aF" clipPathUnits="userSpaceOnUse"><path d="M0 0h1191v842H0Z"></path></clipPath><clipPath id="aG" clipPathUnits="userSpaceOnUse"><path d="M2826.51 550.37h34.678v46.885h-34.677z"></path></clipPath><clipPath id="aH" clipPathUnits="userSpaceOnUse"><path d="M0 0h1191v842H0Z"></path></clipPath><clipPath id="aI" clipPathUnits="userSpaceOnUse"><path d="M2826.51 550.37h34.678v46.885h-34.677z"></path></clipPath><clipPath id="aJ" clipPathUnits="userSpaceOnUse"><path d="M0 0h1191v842H0Z"></path></clipPath><clipPath id="aK" clipPathUnits="userSpaceOnUse"><path d="M2826.51 550.37h34.678v46.885h-34.677z"></path></clipPath><clipPath id="aL" clipPathUnits="userSpaceOnUse"><path d="M0 0h1191v842H0Z"></path></clipPath><clipPath id="aM" clipPathUnits="userSpaceOnUse"><path d="M2826.51 550.37h34.678v46.885h-34.677z"></path></clipPath><clipPath id="aN" clipPathUnits="userSpaceOnUse"><path d="M0 0h1191v842H0Z"></path></clipPath><clipPath id="aO" clipPathUnits="userSpaceOnUse"><path d="M2826.51 550.37h34.678v46.885h-34.677z"></path></clipPath><clipPath id="aP" clipPathUnits="userSpaceOnUse"><path d="M0 0h1191v842H0Z"></path></clipPath><clipPath id="aQ" clipPathUnits="userSpaceOnUse"><path d="M2826.51 550.37h34.678v46.885h-34.677z"></path></clipPath><clipPath id="aR" clipPathUnits="userSpaceOnUse"><path d="M0 0h1191v842H0Z"></path></clipPath><clipPath id="aS" clipPathUnits="userSpaceOnUse"><path d="M2826.51 550.37h34.678v46.885h-34.677z"></path></clipPath><clipPath id="aT" clipPathUnits="userSpaceOnUse"><path d="M0 0h1191v842H0Z"></path></clipPath><clipPath id="aU" clipPathUnits="userSpaceOnUse"><path d="M2826.51 550.37h34.678v46.885h-34.677z"></path></clipPath><clipPath id="aV" clipPathUnits="userSpaceOnUse"><path d="M0 0h1191v842H0Z"></path></clipPath><clipPath id="aW" clipPathUnits="userSpaceOnUse"><path d="M2826.51 550.37h34.678v46.885h-34.677z"></path></clipPath><clipPath id="aX" clipPathUnits="userSpaceOnUse"><path d="M0 0h1191v842H0Z"></path></clipPath><clipPath id="aY" clipPathUnits="userSpaceOnUse"><path d="M2826.51 550.37h34.678v46.885h-34.677z"></path></clipPath><clipPath id="aZ" clipPathUnits="userSpaceOnUse"><path d="M0 0h1191v842H0Z"></path></clipPath><clipPath id="ba" clipPathUnits="userSpaceOnUse"><path d="M2826.51 550.37h34.678v46.885h-34.677z"></path></clipPath><clipPath id="bb" clipPathUnits="userSpaceOnUse"><path d="M0 0h1191v842H0Z"></path></clipPath><clipPath id="bc" clipPathUnits="userSpaceOnUse"><path d="M2826.51 550.37h34.678v46.885h-34.677z"></path></clipPath><clipPath id="bd" clipPathUnits="userSpaceOnUse"><path d="M0 0h1191v842H0Z"></path></clipPath><clipPath id="be" clipPathUnits="userSpaceOnUse"><path d="M2826.51 550.37h34.678v46.885h-34.677z"></path></clipPath><clipPath id="bf" clipPathUnits="userSpaceOnUse"><path d="M0 0h1191v842H0Z"></path></clipPath><clipPath id="bg" clipPathUnits="userSpaceOnUse"><path d="M2826.51 550.37h34.678v46.885h-34.677z"></path></clipPath><clipPath id="bh" clipPathUnits="userSpaceOnUse"><path d="M0 0h1191v842H0Z"></path></clipPath><clipPath id="bi" clipPathUnits="userSpaceOnUse"><path d="M2826.51 550.37h34.678v46.885h-34.677z"></path></clipPath><clipPath id="bj" clipPathUnits="userSpaceOnUse"><path d="M0 0h1191v842H0Z"></path></clipPath><clipPath id="bk" clipPathUnits="userSpaceOnUse"><path d="M2826.51 550.37h34.678v46.885h-34.677z"></path></clipPath><clipPath id="bl" clipPathUnits="userSpaceOnUse"><path d="M0 0h1191v842H0Z"></path></clipPath><clipPath id="bm" clipPathUnits="userSpaceOnUse"><path d="M2826.51 550.37h34.678v46.885h-34.677z"></path></clipPath><clipPath id="bn" clipPathUnits="userSpaceOnUse"><path d="M0 0h1191v842H0Z"></path></clipPath></defs><g clip-path="url(#a)" transform="matrix(1.7799 0 0 1.7799 -5030.9 -979.61)"><path d="M936.645 412.781c1.199-.015 2.382.789 2.886 1.965.149.344.278.692.313 1.07.058 9.688.008 19.372.027 29.055 0 .152-.019.305.02.457-.711.41-1.481.676-2.25.942a28.2 28.2 0 0 1-4.965 1.207c-1.078.164-2.156.324-3.246.355-.465.051-.93-.02-1.391.063-.754.085-1.516.031-2.269.031-.153.004-.305-.02-.454-.031-.007-.02.063-.04.012-.04-.398-.019-.801.024-1.199-.027-2.016-.113-4-.433-5.953-.922a25.6 25.6 0 0 1-4.039-1.375c-.188-.082-.254-.179-.254-.383q.005-14.318.004-28.632c0-1.25.39-2.328 1.453-3.078a3.5 3.5 0 0 1 1.801-.649c.109.027.222.012.332.012q9.423.006 18.839 0c.11 0 .223.023.333-.02" clip-path="url(#b)" style="fill:#0064ad;fill-opacity:1;fill-rule:evenodd;stroke:none" transform="matrix(1.33333 0 0 1.33333 1608 0)"></path></g><g clip-path="url(#c)" transform="matrix(1.7799 0 0 1.7799 -5030.9 -979.61)"><path d="M936.684 413.633c.371.09.746.152 1.078.371.898.586 1.254 1.461 1.258 2.484.011 4.617.003 9.231.003 13.848v8.141c0 .371 0 .371-.363.246a38 38 0 0 0-8.406-1.938c-.82-.09-1.649-.18-2.481-.148a29 29 0 0 0-2.609 0c-1.418 0-2.82.168-4.211.418-.101.101-.25-.004-.359.074-1.16.164-2.289.473-3.414.812a21 21 0 0 0-2.375.895c-.067-.125-.039-.238-.039-.344v-21.711c0-.469.019-.929.172-1.379.339-.992 1.078-1.5 2.062-1.714.078-.016.156-.04.234-.059.09-.067.196-.035.293-.035h18.864c.097 0 .203-.035.293.039" clip-path="url(#d)" style="fill:#fff;fill-opacity:1;fill-rule:evenodd;stroke:none" transform="matrix(1.33333 0 0 1.33333 1608 0)"></path></g><g clip-path="url(#e)" transform="matrix(1.7799 0 0 1.7799 -5030.9 -979.61)"><path d="M925.047 447.027a157 157 0 0 1-1.352-.113c-2.988-.254-5.898-.832-8.683-1.984-.192-.078-.25-.172-.25-.375.008-1.344.008-2.692 0-4.035-.004-.208.066-.301.254-.379 1.871-.762 3.808-1.282 5.8-1.614a34 34 0 0 1 4.125-.445c.039-.004.079-.02.118-.031.296-.082.597-.028.898-.028q.059 0 .117-.007c.793-.012 1.582 0 2.371-.004.059 0 .121-.012.168.039.836.074 1.676.129 2.508.226 2.578.301 5.098.871 7.512 1.852.301.121.402.266.398.59a109 109 0 0 0 .035 3.703c.004.273-.097.387-.332.484-2.086.864-4.257 1.41-6.48 1.746a37 37 0 0 1-6.934.368c-.09-.004-.179.007-.269.011z" clip-path="url(#f)" style="fill:#fff;fill-opacity:1;fill-rule:evenodd;stroke:none" transform="matrix(1.33333 0 0 1.33333 1608 0)"></path></g><g clip-path="url(#g)" transform="matrix(1.7799 0 0 1.7799 -5030.9 -979.61)"><path d="M934.938 425.344c.378 2.41-.149 4.605-1.649 6.527-1.484 1.899-3.461 2.969-5.851 3.172-2.227.191-4.231-.453-5.985-1.855-.051-.043-.055-.079-.043-.126-.211-.664-.137-1.328-.023-1.992a.6.6 0 0 1 .144-.297c.215-.117.34.063.477.161.754.554 1.531 1.086 2.277 1.656.211.16.395.176.641.082.386-.149.773-.289 1.16-.438.199-.074.281-.187.285-.402.004-.508.074-1.008.059-1.512-.008-.203-.067-.336-.235-.457-.64-.457-1.265-.933-1.91-1.39-.34-.246-.64-.586-1.125-.504-.031-.149.098-.211.176-.293.297-.313.594-.629.867-.965.348-.418.805-.731 1.266-1.023a12.5 12.5 0 0 1 3.113-1.442c.078-.023.152-.058.234-.023.141.086.176.238.223.382.266.809.52 1.622.789 2.426.07.207.18.34.391.426.496.199 1.011.352 1.515.539.145.055.25.027.336-.105.297-.446.582-.903.938-1.305.121-.133.078-.281.031-.43-.211-.636-.383-1.281-.59-1.918-.031-.093-.07-.187-.035-.293.156-.172.328-.035.477-.004.742.145 1.414.426 1.863 1.086.039.118.113.215.184.317" clip-path="url(#h)" style="fill:#282425;fill-opacity:1;fill-rule:evenodd;stroke:none" transform="matrix(1.33333 0 0 1.33333 1608 0)"></path></g><g clip-path="url(#i)" transform="matrix(1.7799 0 0 1.7799 -5030.9 -979.61)"><path d="M919.652 431.34c-.468-.574-.636-1.266-.836-1.961-.496-1.727-.586-3.449-.019-5.16.949-2.852 2.867-4.762 5.777-5.543 2.918-.781 5.535-.102 7.805 1.902.09.078.195.145.297.207a4.03 4.03 0 0 1 1.508 1.539c-.102.129-.188.016-.258-.031-.942-.621-2-.797-3.098-.813-.871-.011-1.742-.039-2.598.172-2.636.653-4.968 1.836-6.773 3.918-.758.871-1.359 1.848-1.664 2.969-.211.766-.273 1.551-.105 2.344.031.148.109.316-.036.457" clip-path="url(#j)" style="fill:#282425;fill-opacity:1;fill-rule:evenodd;stroke:none" transform="matrix(1.33333 0 0 1.33333 1608 0)"></path></g><g clip-path="url(#k)" transform="matrix(1.7799 0 0 1.7799 -5030.9 -979.61)"><path d="M919.652 431.34c-.039-.36-.082-.715-.113-1.074-.113-1.477.434-2.754 1.238-3.938 1.289-1.89 3.078-3.133 5.153-4.019 1.664-.707 3.386-1.067 5.199-.918.93.074 1.84.222 2.66.714.129.079.207.254.395.219.203.371.535.649.66 1.082.168.571.109 1.129.07 1.696a.15.15 0 0 1-.125-.063c-.23-.414-.426-.848-.773-1.187-.543-.532-1.211-.797-1.922-.977-.828-.211-1.68-.184-2.508-.102a10.7 10.7 0 0 0-5.09 1.879c-1.195.832-2.125 1.887-2.851 3.137-.493.84-.84 1.731-.942 2.699-.086.809.129 1.563.563 2.25.058.09.16.172.074.297-.817-.191-1.285-.758-1.574-1.504-.028-.078-.094-.117-.114-.191" clip-path="url(#l)" style="fill:#ffed00;fill-opacity:1;fill-rule:evenodd;stroke:none" transform="matrix(1.33333 0 0 1.33333 1608 0)"></path></g><g clip-path="url(#m)" transform="matrix(1.7799 0 0 1.7799 -5030.9 -979.61)"><path d="M921.34 433.035c-.16-.371-.43-.687-.547-1.082-.176-.601-.262-1.203-.117-1.82.73-3.098 2.656-5.184 5.488-6.516 1.688-.793 3.469-1.07 5.309-.929 1.078.085 2.07.46 2.793 1.332.25.3.453.632.562 1.011.02.106-.035.106-.109.074-.563-.761-1.34-1.082-2.262-1.125-.23.028-.461.004-.691-.007-.895-.043-1.766.101-2.637.273-.098.02-.195.066-.297.016-.52.113-1.016.308-1.496.523-.727.324-1.449.672-2.086 1.156-.402.305-.805.598-1.125.997-.297.359-.633.687-.953 1.027-.09.336-.371.539-.555.808-.355.532-.679 1.071-.879 1.68-.031.102-.062.215-.148.293-.188.645-.344 1.297-.149 1.973.028.109.063.234-.031.343q-.035-.016-.07-.027" clip-path="url(#n)" style="fill:#e63616;fill-opacity:1;fill-rule:evenodd;stroke:none" transform="matrix(1.33333 0 0 1.33333 1608 0)"></path></g><g clip-path="url(#o)" transform="matrix(1.7799 0 0 1.7799 -5030.9 -979.61)"><path d="M936.715 420.195c-.141.172-.274.348-.418.508-.125.137-.156.254-.024.414.141.176.25.379.422.645-.297-.102-.519-.157-.722-.254-.188-.09-.293-.039-.403.113-.136.184-.285.356-.457.574-.066-.304.004-.55.012-.797.004-.132-.031-.203-.16-.246-.238-.078-.469-.172-.738-.269.218-.145.449-.168.664-.223.207-.047.32-.121.3-.359-.015-.215.016-.438.032-.703.211.187.312.394.425.582.114.191.231.211.422.14.196-.07.403-.113.606-.172z" clip-path="url(#p)" style="fill:#0064aa;fill-opacity:1;fill-rule:evenodd;stroke:none" transform="matrix(1.33333 0 0 1.33333 1608 0)"></path></g><g clip-path="url(#q)" transform="matrix(1.7799 0 0 1.7799 -5030.9 -979.61)"><path d="M932.465 416.203c-.059.309-.082.527-.145.738-.062.2.004.293.18.375.207.094.406.211.617.325-.086.093-.183.054-.265.089-.219.102-.547-.039-.68.2-.113.211-.102.488-.149.734-.003.027-.015.055-.031.117-.176-.172-.242-.379-.32-.574-.086-.207-.195-.301-.434-.23-.203.058-.418.07-.718.117.23-.219.39-.395.57-.539.152-.125.172-.246.078-.414-.109-.203-.199-.414-.316-.668.285.07.48.215.679.328.157.09.25.07.364-.051.156-.168.332-.32.57-.547" clip-path="url(#r)" style="fill:#0064ac;fill-opacity:1;fill-rule:evenodd;stroke:none" transform="matrix(1.33333 0 0 1.33333 1608 0)"></path></g><g clip-path="url(#s)" transform="matrix(1.7799 0 0 1.7799 -5030.9 -979.61)"><path d="M922.801 416.445c-.098.219-.153.356-.215.496-.199.45-.199.45.172.789.109.102.215.204.383.364-.317-.039-.563-.059-.801-.098-.156-.027-.242.008-.301.164-.082.223-.195.438-.312.688-.122-.223-.137-.446-.157-.657-.031-.269-.179-.347-.414-.367-.16-.015-.418.063-.453-.133-.031-.164.231-.211.371-.277.254-.117.309-.269.219-.527a1.3 1.3 0 0 1-.074-.586c.199.187.375.344.539.511.097.102.18.126.308.043.211-.132.438-.246.735-.41" clip-path="url(#t)" style="fill:#0064ad;fill-opacity:1;fill-rule:evenodd;stroke:none" transform="matrix(1.33333 0 0 1.33333 1608 0)"></path></g><g clip-path="url(#u)" transform="matrix(1.7799 0 0 1.7799 -5030.9 -979.61)"><path d="M928.051 415.805c-.18.14-.352.289-.539.418-.137.097-.18.187-.114.351.094.223.153.453.254.766-.265-.188-.464-.317-.648-.465-.125-.098-.215-.098-.344.004-.176.137-.332.312-.582.363.008-.238.106-.441.18-.648.054-.164.015-.254-.121-.352-.192-.137-.41-.246-.582-.453.277-.055.527-.047.773-.039.133.004.199-.043.231-.176.058-.234.136-.465.214-.719.168.192.196.418.254.625.063.215.172.29.387.266.199-.019.406-.004.606-.004q.018.028.031.063" clip-path="url(#v)" style="fill:#0064ac;fill-opacity:1;fill-rule:evenodd;stroke:none" transform="matrix(1.33333 0 0 1.33333 1608 0)"></path></g><g clip-path="url(#w)" transform="matrix(1.7799 0 0 1.7799 -5030.9 -979.61)"><path d="M918.488 420.59c.289.164.637.16.969.332-.258.101-.473.203-.695.269-.172.055-.227.145-.2.313.016.105.02.219.02.328-.004.082.113.195-.039.242-.105.035-.164-.066-.207-.14-.219-.36-.477-.512-.875-.246-.113.07-.258.082-.422.132.047-.218.199-.371.316-.519.184-.231.161-.399-.039-.59-.086-.082-.156-.18-.234-.27.031-.218.176-.07.27-.086.453.207.699-.019.863-.414.012-.027.039-.043.062-.066.18-.074.164.055.176.164.016.184-.047.375.035.551" clip-path="url(#x)" style="fill:#0064ac;fill-opacity:1;fill-rule:evenodd;stroke:none" transform="matrix(1.33333 0 0 1.33333 1608 0)"></path></g><g clip-path="url(#y)" transform="matrix(1.7799 0 0 1.7799 -5030.9 -979.61)"><path d="M918.488 420.59c-.144-.141-.043-.317-.062-.477-.02-.105.019-.23-.149-.238.016-.066.024-.156.114-.152.07.004.066.089.07.144.016.242.019.485.027.723" clip-path="url(#z)" style="fill:#1a698e;fill-opacity:1;fill-rule:evenodd;stroke:none" transform="matrix(1.33333 0 0 1.33333 1608 0)"></path></g><g clip-path="url(#A)" transform="matrix(1.7799 0 0 1.7799 -5030.9 -979.61)"><path d="M934.719 425.105c.051-.003.093-.019.109-.074q.04.036.086.071l.024.242c-.114-.043-.2-.11-.219-.239" clip-path="url(#B)" style="fill:#b04533;fill-opacity:1;fill-rule:evenodd;stroke:none" transform="matrix(1.33333 0 0 1.33333 1608 0)"></path></g><g clip-path="url(#C)" transform="matrix(1.7799 0 0 1.7799 -5030.9 -979.61)"><path d="M917.352 420.355c-.09.028-.204-.027-.27.086-.047-.05-.133-.097-.102-.168.04-.074.125-.015.188 0 .062.016.121.055.184.082" clip-path="url(#D)" style="fill:#1f7dae;fill-opacity:1;fill-rule:evenodd;stroke:none" transform="matrix(1.33333 0 0 1.33333 1608 0)"></path></g><g clip-path="url(#E)" transform="matrix(1.7799 0 0 1.7799 -5030.9 -979.61)"><path d="M926.426 439.926a46 46 0 0 1-.004 3.183c-.024.661-.504 1.125-1.172 1.172a17 17 0 0 1-1.336.02c-1.059-.028-1.555-.574-1.512-1.645 0-.816.008-1.636-.007-2.457-.004-.258.078-.332.328-.308.199.019.402.004.605.004.348 0 .348 0 .348.335v2.305c.004.098-.031.203.035.297.195.367 1.004.492 1.297.203.129-.129.117-.297.117-.453.004-.801 0-1.602.004-2.398 0-.102-.031-.204.027-.297.082.152.035.316.035.472.008.696.004 1.395.004 2.09.004-.761.008-1.523-.004-2.285-.003-.211.059-.289.274-.273.211.015.422.004.637.004.066.003.175-.028.199.031.058.133.086-.031.125 0" clip-path="url(#F)" style="fill:#0064ac;fill-opacity:1;fill-rule:evenodd;stroke:none" transform="matrix(1.33333 0 0 1.33333 1608 0)"></path></g><g clip-path="url(#G)" transform="matrix(1.7799 0 0 1.7799 -5030.9 -979.61)"><path d="M933.605 439.926q.425 1.434.848 2.867c.129.453.25.91.375 1.367-.414.106-.836.02-1.25.043-.094.004-.113-.058-.121-.137a.44.44 0 0 0-.09-.254c-.058-.253-.211-.363-.472-.304-.032.008-.063 0-.09 0-.25.004-.532-.063-.743.027-.222.098-.164.426-.253.641q-.023.065-.086.066c-.348-.078-.7-.012-1.047-.039-.086-.008-.211.063-.25-.09.394-1.355.793-2.715 1.187-4.07.02-.066.032-.137.11-.172.519.055 1.039.008 1.558.024.11.003.219-.028.324.031" clip-path="url(#H)" style="fill:#0064ad;fill-opacity:1;fill-rule:evenodd;stroke:none" transform="matrix(1.33333 0 0 1.33333 1608 0)"></path></g><g clip-path="url(#I)" transform="matrix(1.7799 0 0 1.7799 -5030.9 -979.61)"><path d="M928.391 440.949c-.039.692-.039.684.648.696.328.003.66-.059.984.039-.496.074-.996.011-1.492.035.5-.024 1 .039 1.496-.031a2.2 2.2 0 0 1 .004.972c-.078-.222-.008-.445-.035-.637 0 .118-.004.266 0 .418.004.118-.019.188-.164.188-.43-.004-.859-.004-1.23 0 .437.031.933-.051 1.425.035-.445.094-.898.035-1.343.035-.231 0-.321.051-.309.301.02.391 0 .781-.004 1.172-.168-.117-.016-.301-.086-.426.024.102.008.219.004.332 0 .11-.078.129-.164.129-.273 0-.547-.004-.82 0-.2 0-.192-.141-.196-.273v-1.973c0-.578.008-1.156-.004-1.731-.003-.238.051-.347.321-.339.808.015 1.621.007 2.429 0 .192 0 .282.043.266.254a5 5 0 0 0-.004.574c.008.16-.055.211-.211.211-.465-.008-.929-.004-1.398-.004a.3.3 0 0 0-.117.023" clip-path="url(#J)" style="fill:#0064ac;fill-opacity:1;fill-rule:evenodd;stroke:none" transform="matrix(1.33333 0 0 1.33333 1608 0)"></path></g><g clip-path="url(#K)" transform="matrix(1.7799 0 0 1.7799 -5030.9 -979.61)"><path d="M921.812 440.918c-.484.008-.968.035-1.449.016-.336-.012-.246.203-.258.378-.007.188-.027.344.266.336.461-.007.926-.062 1.383.036-.465.078-.934.004-1.309.031.285.008.664.012 1.043 0 .223-.012.301.082.27.281-.028.188.078.402-.035.563-.125.175-.336.019-.508.046-.285.047-.574.008-.86.02-.043.004.024.059 0 .023-.007-.011 0-.019.024-.015.457.019.918-.063 1.375.031-.445.098-.899.035-1.348.035-.238.004-.304.067-.308.305 0 .41.066.82-.039 1.226-.059-.453-.008-.906-.028-1.324 0 .328-.008.696.004 1.063.004.187-.055.254-.242.242-.293-.023-.59.012-.879-.02-.133-1.324-.039-2.652-.066-3.98-.004-.156.031-.277.207-.313.851-.007 1.699.004 2.543-.007.195 0 .281.047.257.254-.031.257.043.519-.043.773" clip-path="url(#L)" style="fill:#0064ad;fill-opacity:1;fill-rule:evenodd;stroke:none" transform="matrix(1.33333 0 0 1.33333 1608 0)"></path></g><g clip-path="url(#M)" transform="matrix(1.7799 0 0 1.7799 -5030.9 -979.61)"><path d="M928.391 440.949c.386-.121.777-.039 1.168-.051.625-.019.523.067.523-.539 0-.476.082-.429-.434-.429-.738-.004-1.476.004-2.214-.008-.196 0-.27.047-.266.254a295 295 0 0 1 0 3.762c-.004.191.066.261.246.238.039-.004.082 0 .121 0 .223-.004.488.062.653-.035.199-.118.019-.414.105-.641.086.23-.035.465.078.672-.019.129-.121.09-.191.09-.293.004-.586-.008-.879.008-.192.007-.239-.067-.235-.247q.006-1.97 0-3.941c-.004-.187.051-.242.239-.242.879.012 1.757.008 2.636.004.168-.004.227.039.231.218.035.883.039.883-.84.883-.312 0-.625.004-.941.004" clip-path="url(#N)" style="fill:#00699d;fill-opacity:1;fill-rule:evenodd;stroke:none" transform="matrix(1.33333 0 0 1.33333 1608 0)"></path></g><g clip-path="url(#O)" transform="matrix(1.7799 0 0 1.7799 -5030.9 -979.61)"><path d="M919.031 439.926c-.109.078-.125.191-.125.32.004 1.102 0 2.203.004 3.309 0 .066-.004.144.024.207.113.258.117.254-.024.41-.004.039-.043.043-.066.066-.086-.043-.047-.125-.047-.187a667 667 0 0 1 0-4c0-.059-.039-.145.055-.18.046.051.132-.004.179.055" clip-path="url(#P)" style="fill:#005697;fill-opacity:1;fill-rule:evenodd;stroke:none" transform="matrix(1.33333 0 0 1.33333 1608 0)"></path></g><g clip-path="url(#Q)" transform="matrix(1.7799 0 0 1.7799 -5030.9 -979.61)"><path d="M922.824 446.055c-.258-.008-.457-.008-.48-.282-.004-.05 0-.105.066-.113.047-.004.078.028.082.074.008.149.11.18.231.172.129-.008.308.071.332-.152.027-.227-.16-.192-.289-.203-.243-.02-.454-.059-.411-.383.032-.211.176-.254.352-.25.188 0 .398-.039.481.207.019.051.023.102-.036.129-.039.019-.078-.004-.093-.047-.028-.09-.086-.145-.176-.129-.133.02-.344-.098-.367.141-.024.219.179.172.308.183.219.02.414.059.399.34-.02.289-.227.324-.399.313" clip-path="url(#R)" style="fill:#0c6da0;fill-opacity:1;fill-rule:evenodd;stroke:none" transform="matrix(1.33333 0 0 1.33333 1608 0)"></path></g><g clip-path="url(#S)" transform="matrix(1.7799 0 0 1.7799 -5030.9 -979.61)"><path d="M923.711 442.832c-.117-.086-.059-.207-.059-.309a98 98 0 0 1 0-2.304c.004-.223-.05-.317-.285-.297a3.2 3.2 0 0 1-.637-.004c-.253-.02-.308.09-.304.316.012.707.004 1.418 0 2.125 0 .098-.016.2-.024.297l-.023-2.636c0-.137.062-.176.183-.172.286.004.571.015.852-.004.223-.012.293.054.289.285-.008.902.004 1.801.008 2.703" clip-path="url(#T)" style="fill:#005989;fill-opacity:1;fill-rule:evenodd;stroke:none" transform="matrix(1.33333 0 0 1.33333 1608 0)"></path></g><g clip-path="url(#U)" transform="matrix(1.7799 0 0 1.7799 -5030.9 -979.61)"><path d="M928.438 445.02c.183-.168.398-.133.593-.047.184.078.149.265.149.425q.001.12-.004.243c-.004.136.027.297-.141.363a.7.7 0 0 1-.558 0c-.106-.047-.137-.137-.059-.266.121.149.277.184.453.164.137-.019.16-.113.16-.218-.004-.153-.109-.059-.176-.067-.144-.015-.304.055-.425-.086-.02-.051.004-.082.047-.105.101-.031.203.015.3 0 .086-.016.164-.047.157-.149-.004-.093-.086-.101-.157-.109-.082-.008-.164 0-.242-.02-.058-.023-.121-.043-.097-.128" clip-path="url(#V)" style="fill:#0e6ea1;fill-opacity:1;fill-rule:evenodd;stroke:none" transform="matrix(1.33333 0 0 1.33333 1608 0)"></path></g><g clip-path="url(#W)" transform="matrix(1.7799 0 0 1.7799 -5030.9 -979.61)"><path d="M925.051 445.5c.039.133-.051.336.148.383.153.031.375.113.438-.164.008-.039.039-.074.086-.059.078.028.066.098.054.152-.035.208-.199.239-.367.243-.195 0-.433.027-.476-.246a2.8 2.8 0 0 1-.008-.633c.012-.184.152-.254.32-.258.188-.008.395-.039.512.164.027.051.047.121-.008.168-.047.043-.09.02-.117-.039-.102-.219-.301-.156-.445-.109-.18.054-.11.253-.137.398" clip-path="url(#X)" style="fill:#2171a1;fill-opacity:1;fill-rule:evenodd;stroke:none" transform="matrix(1.33333 0 0 1.33333 1608 0)"></path></g><g clip-path="url(#Y)" transform="matrix(1.7799 0 0 1.7799 -5030.9 -979.61)"><path d="M926.762 445.965c-.27.094-.492.055-.715.047-.09-.004-.086-.098-.086-.168v-.391c0-.547.191-.66.777-.441-.152.129-.316.058-.465.07-.097.012-.175.012-.179.145 0 .132.051.171.179.179.137.008.289-.054.442.078-.156.078-.301.043-.43.047-.121.004-.187.031-.191.168 0 .149.058.192.199.192.137 0 .289-.043.469.074" clip-path="url(#Z)" style="fill:#0070a7;fill-opacity:1;fill-rule:evenodd;stroke:none" transform="matrix(1.33333 0 0 1.33333 1608 0)"></path></g><g clip-path="url(#aa)" transform="matrix(1.7799 0 0 1.7799 -5030.9 -979.61)"><path d="M921.754 442.664h-1.633c.41-.191.863.133 1.18-.277.023.175.14.261.304.199.172-.066.102-.223.067-.34-.051-.16.172-.383-.067-.476-.148-.063-.339-.02-.511-.02-.301-.004-.602-.004-.903-.066h1.563c.074.324.07.652 0 .98" clip-path="url(#ab)" style="fill:#005b95;fill-opacity:1;fill-rule:evenodd;stroke:none" transform="matrix(1.33333 0 0 1.33333 1608 0)"></path></g><g clip-path="url(#ac)" transform="matrix(1.7799 0 0 1.7799 -5030.9 -979.61)"><path d="M931.016 446.031c-.055-.34-.293-.25-.473-.254-.188-.004-.258-.054-.125-.226.133-.164.258-.332.387-.5.05-.067.105-.129.199-.094.086.035.058.117.07.184.031.191-.097.421.149.554-.059.106-.188.164-.207.336" clip-path="url(#ad)" style="fill:#006faf;fill-opacity:1;fill-rule:evenodd;stroke:none" transform="matrix(1.33333 0 0 1.33333 1608 0)"></path></g><g clip-path="url(#ae)" transform="matrix(1.7799 0 0 1.7799 -5030.9 -979.61)"><path d="M923.941 444.965c.219.074.239.305.356.457.078.098.137.211.234.351.067-.296-.027-.566.102-.804.097.32.062.644.058.965 0 .058-.046.078-.105.078-.082.004-.125-.051-.164-.114-.125-.203-.246-.414-.371-.617-.024-.035-.051-.148-.106-.015-.148-.102-.101-.2-.004-.301" clip-path="url(#af)" style="fill:#036b9f;fill-opacity:1;fill-rule:evenodd;stroke:none" transform="matrix(1.33333 0 0 1.33333 1608 0)"></path></g><g clip-path="url(#ag)" transform="matrix(1.7799 0 0 1.7799 -5030.9 -979.61)" data-source="https://football-logos.cc"><path d="M923.406 445.484v-.422c0-.078.008-.144.11-.144.093 0 .113.066.113.144 0 .293.004.586 0 .879 0 .082-.039.133-.129.129-.082-.008-.094-.066-.094-.129-.004-.152 0-.304 0-.457" clip-path="url(#ah)" style="fill:#0071ac;fill-opacity:1;fill-rule:evenodd;stroke:none" transform="matrix(1.33333 0 0 1.33333 1608 0)"></path></g><g clip-path="url(#ai)" transform="matrix(1.7799 0 0 1.7799 -5030.9 -979.61)"><path d="M926.426 439.926c-.09.078-.028.191-.094.359.035-.355-.137-.363-.359-.363-.746.008-.746 0-.746.738 0 .664 0 1.328-.071 1.992v-2.765c.426-.035.852-.11 1.27.039" clip-path="url(#aj)" style="fill:#00578b;fill-opacity:1;fill-rule:evenodd;stroke:none" transform="matrix(1.33333 0 0 1.33333 1608 0)"></path></g><g clip-path="url(#ak)" transform="matrix(1.7799 0 0 1.7799 -5030.9 -979.61)"><path d="M930.117 445.016c.106.418.071.484-.316.597-.051.016-.102.02-.149.035a.16.16 0 0 0-.105.164c.008.086.086.067.144.075.157.019.321-.039.543.078a1.6 1.6 0 0 1-.796.031c-.122-.023-.04-.383.109-.457a.8.8 0 0 1 .23-.066c.219-.035.282-.164.239-.364-.012-.078.019-.113.101-.093" clip-path="url(#al)" style="fill:#0073a9;fill-opacity:1;fill-rule:evenodd;stroke:none" transform="matrix(1.33333 0 0 1.33333 1608 0)"></path></g><g clip-path="url(#am)" transform="matrix(1.7799 0 0 1.7799 -5030.9 -979.61)"><path d="M919.031 439.926c-.066-.008-.136.015-.179-.055q1.435-.013 2.871-.019c.058 0 .156-.004.152.054-.012.34.113.684-.063 1.012.004-.242-.003-.488.016-.727.016-.218-.07-.273-.277-.273-.84.012-1.68.008-2.52.008" clip-path="url(#an)" style="fill:#005d88;fill-opacity:1;fill-rule:evenodd;stroke:none" transform="matrix(1.33333 0 0 1.33333 1608 0)"></path></g><g clip-path="url(#ao)" transform="matrix(1.7799 0 0 1.7799 -5030.9 -979.61)"><path d="M927.492 445.242c.035-.043.059-.09.094-.117.086-.074.152-.227.293-.156.117.054.062.199.062.301-.007.242.039.492-.066.73-.117-.262-.039-.547-.086-.816-.117-.059-.144.148-.297.058" clip-path="url(#ap)" style="fill:#006095;fill-opacity:1;fill-rule:evenodd;stroke:none" transform="matrix(1.33333 0 0 1.33333 1608 0)"></path></g><g clip-path="url(#aq)" transform="matrix(1.7799 0 0 1.7799 -5030.9 -979.61)"><path d="M918.848 444.238q.03-.033.066-.066c.277 0 .563-.004.844.008.183.008.25-.059.246-.242a6.6 6.6 0 0 1 .055-1.145v1.437c-.403.051-.809.04-1.211.008" clip-path="url(#ar)" style="fill:#00538a;fill-opacity:1;fill-rule:evenodd;stroke:none" transform="matrix(1.33333 0 0 1.33333 1608 0)"></path></g><g clip-path="url(#as)" transform="matrix(1.7799 0 0 1.7799 -5030.9 -979.61)"><path d="m930.117 445.016-.101.093c-.18-.011-.383-.129-.496.125-.02.043-.071.055-.098.024-.024-.024-.035-.074-.031-.11.019-.179.156-.226.3-.234.149-.004.309-.039.426.102" clip-path="url(#at)" style="fill:#307baa;fill-opacity:1;fill-rule:evenodd;stroke:none" transform="matrix(1.33333 0 0 1.33333 1608 0)"></path></g><g clip-path="url(#au)" transform="matrix(1.7799 0 0 1.7799 -5030.9 -979.61)"><path d="M933.367 443.812c.031.02.098.04.094.055-.02.375.242.313.465.309q.451-.008.902-.016c.039.129-.066.098-.121.098q-.539.006-1.078 0c-.32-.004-.184-.293-.262-.446" clip-path="url(#av)" style="fill:#005589;fill-opacity:1;fill-rule:evenodd;stroke:none" transform="matrix(1.33333 0 0 1.33333 1608 0)"></path></g><g clip-path="url(#aw)" transform="matrix(1.7799 0 0 1.7799 -5030.9 -979.61)"><path d="M933.605 439.926c-.523 0-1.046.004-1.57-.004-.105 0-.223.043-.312-.051q.884-.013 1.769-.019c.051 0 .102.011.113.074" clip-path="url(#ax)" style="fill:#005a86;fill-opacity:1;fill-rule:evenodd;stroke:none" transform="matrix(1.33333 0 0 1.33333 1608 0)"></path></g><g clip-path="url(#ay)" transform="matrix(1.7799 0 0 1.7799 -5030.9 -979.61)"><path d="M923.941 444.965c-.035.101-.101.199.004.301 0 .211.008.422.008.632 0 .047-.004.106-.074.098-.024 0-.059-.031-.063-.047-.004-.32-.035-.64.024-.961 0-.015.066-.015.101-.023" clip-path="url(#az)" style="fill:#005682;fill-opacity:1;fill-rule:evenodd;stroke:none" transform="matrix(1.33333 0 0 1.33333 1608 0)"></path></g><g clip-path="url(#aA)" transform="matrix(1.7799 0 0 1.7799 -5030.9 -979.61)"><path d="M930.426 444.113c.316.133.644.032.965.067.113.011.242-.055.332.062-.387.008-.778.012-1.164.016-.09 0-.2.004-.133-.145" clip-path="url(#aB)" style="fill:#058;fill-opacity:1;fill-rule:evenodd;stroke:none" transform="matrix(1.33333 0 0 1.33333 1608 0)"></path></g><g clip-path="url(#aC)" transform="matrix(1.7799 0 0 1.7799 -5030.9 -979.61)"><path d="M928.523 445.441a2 2 0 0 1-.093.09c-.082-.172-.102-.343.008-.511a.13.13 0 0 0 .117.066c.066.125.039.242-.032.355" clip-path="url(#aD)" style="fill:#0072b7;fill-opacity:1;fill-rule:evenodd;stroke:none" transform="matrix(1.33333 0 0 1.33333 1608 0)"></path></g><g clip-path="url(#aE)" transform="matrix(1.7799 0 0 1.7799 -5030.9 -979.61)"><path d="M926.977 431.074c0-.129.023-.265-.004-.39-.106-.536.156-.844.578-1.133.699-.477 1.359-1.012 2.031-1.531.113-.086.203-.118.352-.059.535.211 1.078.402 1.625.59.16.054.246.117.25.312.011.563.039 1.129.07 1.696.008.152-.055.242-.172.324a628 628 0 0 0-2.617 1.918c-.086.066-.16.113-.293.062a34 34 0 0 0-1.598-.566c-.195-.067-.261-.16-.242-.375.027-.277.008-.563.008-.848z" clip-path="url(#aF)" style="fill:#fff;fill-opacity:1;fill-rule:evenodd;stroke:none" transform="matrix(1.33333 0 0 1.33333 1608 0)"></path></g><g clip-path="url(#aG)" transform="matrix(1.7799 0 0 1.7799 -5030.9 -979.61)"><path d="M921.59 430.746c.066-.434.273-.812.469-1.195a7 7 0 0 1 1.113-1.586c.297-.168.519-.055.769.14.762.59 1.543 1.153 2.321 1.711.164.118.234.227.222.446a27 27 0 0 0-.023 1.668c.004.172-.035.277-.215.34q-.785.273-1.558.582c-.149.058-.211-.04-.29-.098q-1.41-1.004-2.808-2.008" clip-path="url(#aH)" style="fill:#fff;fill-opacity:1;fill-rule:evenodd;stroke:none" transform="matrix(1.33333 0 0 1.33333 1608 0)"></path></g><g clip-path="url(#aI)" transform="matrix(1.7799 0 0 1.7799 -5030.9 -979.61)"><path d="M928.832 424.262c.258-.164.566-.164.848-.215a10.4 10.4 0 0 1 2.562-.152c.086.003.16.015.215.085.231.754.457 1.508.695 2.258.051.164.032.266-.09.399-.367.394-.636.859-.921 1.312-.11.172-.2.231-.411.145-.55-.219-1.113-.414-1.675-.61-.141-.046-.203-.117-.25-.257-.317-.993-.645-1.977-.973-2.965" clip-path="url(#aJ)" style="fill:#fff;fill-opacity:1;fill-rule:evenodd;stroke:none" transform="matrix(1.33333 0 0 1.33333 1608 0)"></path></g><g clip-path="url(#aK)" transform="matrix(1.7799 0 0 1.7799 -5030.9 -979.61)"><path d="M932.215 429.566c0-.312.008-.625-.008-.937-.004-.117.051-.191.109-.27.364-.496.743-.984 1.098-1.484.109-.152.223-.219.402-.199.09.012.18.004.274.004.637 0 .652 0 .598.648a8.1 8.1 0 0 1-1.356 3.875c-.117.172-.176.168-.363.055-.559-.328-.785-.789-.715-1.418.012-.09.004-.18.004-.274z" clip-path="url(#aL)" style="fill:#fff;fill-opacity:1;fill-rule:evenodd;stroke:none" transform="matrix(1.33333 0 0 1.33333 1608 0)"></path></g><g clip-path="url(#aM)" transform="matrix(1.7799 0 0 1.7799 -5030.9 -979.61)"><path d="M926.742 434.707a8 8 0 0 1-2.183-.297c-.184-.047-.239-.125-.161-.297a.1.1 0 0 0 .008-.027c.071-.633.403-1.016 1.043-1.121.145-.027.293-.086.422-.16.543-.309 1.078-.289 1.633-.024a6.7 6.7 0 0 0 1.027.364c.223.062.34.187.395.402.027.105.054.215.086.32.144.477.144.477-.321.598q-.96.253-1.949.242" clip-path="url(#aN)" style="fill:#fff;fill-opacity:1;fill-rule:evenodd;stroke:none" transform="matrix(1.33333 0 0 1.33333 1608 0)"></path></g><g clip-path="url(#aO)" transform="matrix(1.7799 0 0 1.7799 -5030.9 -979.61)"><path d="M924.613 420.109c0 .086-.054.141-.09.196-.125.211-.261.41-.382.621-.481.851-1.231 1.336-2.161 1.566-.085.02-.175.051-.265.063-.172.031-.336.23-.5.133-.293-.176-.559-.399-.828-.61-.09-.07-.024-.144.027-.211a8.05 8.05 0 0 1 3.672-2.683c.074-.028.156-.071.199.046z" clip-path="url(#aP)" style="fill:#fff;fill-opacity:1;fill-rule:evenodd;stroke:none" transform="matrix(1.33333 0 0 1.33333 1608 0)"></path></g><g clip-path="url(#aQ)" transform="matrix(1.7799 0 0 1.7799 -5030.9 -979.61)"><path d="M931.375 420.266c-.77-.149-1.547-.176-2.328-.168-.168.004-.199-.032-.137-.176.043-.106.074-.211.106-.317.172-.515.175-.519.664-.316.605.254 1.183.555 1.695.977" clip-path="url(#aR)" style="fill:#fdfcfd;fill-opacity:1;fill-rule:evenodd;stroke:none" transform="matrix(1.33333 0 0 1.33333 1608 0)"></path></g><g clip-path="url(#aS)" transform="matrix(1.7799 0 0 1.7799 -5030.9 -979.61)"><path d="M926.496 420.426c-.641.219-1.273.453-1.902.73.004-.043.004-.062.008-.078.226-.535.609-.766 1.203-.66.222.043.461.008.691.008" clip-path="url(#aT)" style="fill:#fbfafa;fill-opacity:1;fill-rule:evenodd;stroke:none" transform="matrix(1.33333 0 0 1.33333 1608 0)"></path></g><g clip-path="url(#aU)" transform="matrix(1.7799 0 0 1.7799 -5030.9 -979.61)"><path d="M918.879 427.988a3.9 3.9 0 0 1-.102-1.105c.008-.223.219-.102.336-.117.121-.02.125.058.094.152z" clip-path="url(#aV)" style="fill:#f4f3f4;fill-opacity:1;fill-rule:evenodd;stroke:none" transform="matrix(1.33333 0 0 1.33333 1608 0)"></path></g><g clip-path="url(#aW)" transform="matrix(1.7799 0 0 1.7799 -5030.9 -979.61)"><path d="M921.23 423.578c.032-.383.047-.398.422-.465-.144.164-.273.305-.422.465" clip-path="url(#aX)" style="fill:#e8e2e4;fill-opacity:1;fill-rule:evenodd;stroke:none" transform="matrix(1.33333 0 0 1.33333 1608 0)"></path></g><g clip-path="url(#aY)" transform="matrix(1.7799 0 0 1.7799 -5030.9 -979.61)"><path d="M932.297 442.531c-.078-.187.027-.355.066-.527.078-.32.157-.641.293-.965q.173.68.344 1.359c.023.102-.062.11-.125.133a1 1 0 0 1-.578 0" clip-path="url(#aZ)" style="fill:#f6fafb;fill-opacity:1;fill-rule:evenodd;stroke:none" transform="matrix(1.33333 0 0 1.33333 1608 0)"></path></g><g clip-path="url(#ba)" transform="matrix(1.7799 0 0 1.7799 -5030.9 -979.61)"><path d="M932.297 442.531h.578a.56.56 0 0 1-.578 0" clip-path="url(#bb)" style="fill:#005385;fill-opacity:1;fill-rule:evenodd;stroke:none" transform="matrix(1.33333 0 0 1.33333 1608 0)"></path></g><g clip-path="url(#bc)" transform="matrix(1.7799 0 0 1.7799 -5030.9 -979.61)"><path d="M930.027 442.664h-1.566q-.002-.033-.004-.066c.379 0 .762-.024 1.137.007.324.028.418-.097.375-.39a.33.33 0 0 1 .062-.27v.715z" clip-path="url(#bd)" style="fill:#005a94;fill-opacity:1;fill-rule:evenodd;stroke:none" transform="matrix(1.33333 0 0 1.33333 1608 0)"></path></g><g clip-path="url(#be)" transform="matrix(1.7799 0 0 1.7799 -5030.9 -979.61)"><path d="M930.027 441.688c-.203.128-.425.042-.64.054a3.8 3.8 0 0 1-.934-.058h1.57z" clip-path="url(#bf)" style="fill:#004f87;fill-opacity:1;fill-rule:evenodd;stroke:none" transform="matrix(1.33333 0 0 1.33333 1608 0)"></path></g><g clip-path="url(#bg)" transform="matrix(1.7799 0 0 1.7799 -5030.9 -979.61)"><path d="M928.312 442.789v.465h-.027v-.465z" clip-path="url(#bh)" style="fill:#00699d;fill-opacity:1;fill-rule:evenodd;stroke:none" transform="matrix(1.33333 0 0 1.33333 1608 0)"></path></g><g clip-path="url(#bi)" transform="matrix(1.7799 0 0 1.7799 -5030.9 -979.61)"><path d="M920.047 440.969v.586h-.031v-.586z" clip-path="url(#bj)" style="fill:#00548a;fill-opacity:1;fill-rule:evenodd;stroke:none" transform="matrix(1.33333 0 0 1.33333 1608 0)"></path></g><g clip-path="url(#bk)" transform="matrix(1.7799 0 0 1.7799 -5030.9 -979.61)"><path d="M928.523 445.441c-.027-.121-.039-.242.032-.355q.018-.002.031-.004c.152 0 .332-.078.434.106.039.07.039.171-.02.226-.145.133-.312.109-.477.027" clip-path="url(#bl)" style="fill:#ecf4f8;fill-opacity:1;fill-rule:evenodd;stroke:none" transform="matrix(1.33333 0 0 1.33333 1608 0)"></path></g><g clip-path="url(#bm)" transform="matrix(1.7799 0 0 1.7799 -5030.9 -979.61)" data-source="https://football-logos.cc"><path d="M930.906 445.125c.074.539.071.547-.355.48z" clip-path="url(#bn)" style="fill:#f1f6f7;fill-opacity:1;fill-rule:evenodd;stroke:none" transform="matrix(1.33333 0 0 1.33333 1608 0)"></path></g><!-- source: https://football-logos.cc --></svg>