<svg xmlns="http://www.w3.org/2000/svg" viewBox="10.55 123.48 767.78 881.88"><!-- Source: https://football-logos.cc --><defs data-source="https://football-logos.cc"><clipPath id="a" clipPathUnits="userSpaceOnUse"><path d="M-49.191 564.621h595.28v-841.89h-595.28Z"></path></clipPath><clipPath id="b" clipPathUnits="userSpaceOnUse"><path d="M-295.436 637.423h595.28v-841.89h-595.28Z"></path></clipPath><clipPath id="c" clipPathUnits="userSpaceOnUse"><path d="M-551.509 586.68h595.28v-841.89h-595.28Z"></path></clipPath><clipPath id="d" clipPathUnits="userSpaceOnUse"><path d="M-497.513 467.41h595.28v-841.89h-595.28Z"></path></clipPath><clipPath id="e" clipPathUnits="userSpaceOnUse"><path d="M-444.045 624.496h595.28v-841.89h-595.28Z"></path></clipPath><clipPath id="f" clipPathUnits="userSpaceOnUse"><path d="M-93.244 467.41h595.28v-841.89h-595.28Z"></path></clipPath><clipPath id="g" clipPathUnits="userSpaceOnUse"><path d="M-146.712 624.496h595.28v-841.89h-595.28Z"></path></clipPath><clipPath id="h" clipPathUnits="userSpaceOnUse"><path d="M-295.436 614.97h595.28v-841.89h-595.28Z"></path></clipPath><clipPath id="i" clipPathUnits="userSpaceOnUse"><path d="M-168.387 178.445h595.28v-841.89h-595.28Z"></path></clipPath><clipPath id="j" clipPathUnits="userSpaceOnUse"><path d="M-464.99 178.445h595.28v-841.89h-595.28Z"></path></clipPath><clipPath id="k" clipPathUnits="userSpaceOnUse"><path d="M-316.124 129.015h595.28v-841.89h-595.28Z"></path></clipPath><clipPath id="l" clipPathUnits="userSpaceOnUse"><path d="M-159.004 650.711h595.28v-841.89h-595.28Z"></path></clipPath><clipPath id="m" clipPathUnits="userSpaceOnUse"><path d="M-199.624 668.225h595.28v-841.89h-595.28Z"></path></clipPath><clipPath id="n" clipPathUnits="userSpaceOnUse"><path d="M-224.165 698.264h595.28v-841.89h-595.28Z"></path></clipPath><clipPath id="o" clipPathUnits="userSpaceOnUse"><path d="M-292.04 686.773h595.28v-841.89h-595.28Z"></path></clipPath><clipPath id="p" clipPathUnits="userSpaceOnUse"><path d="M-317.72 720.69h595.28V-121.2h-595.28Z"></path></clipPath><clipPath id="q" clipPathUnits="userSpaceOnUse"><path d="M-317.72 720.69h595.28V-121.2h-595.28Z"></path></clipPath><clipPath id="r" clipPathUnits="userSpaceOnUse"><path d="M-360.55 699.196h595.28v-841.89h-595.28Z"></path></clipPath><clipPath id="s" clipPathUnits="userSpaceOnUse"><path d="M-360.55 699.196h595.28v-841.89h-595.28Z"></path></clipPath><clipPath id="t" clipPathUnits="userSpaceOnUse"><path d="M-401.046 710.461h595.28v-841.89h-595.28Z"></path></clipPath><clipPath id="u" clipPathUnits="userSpaceOnUse"><path d="M-421.366 654.944h595.28v-841.89h-595.28Z"></path></clipPath><clipPath id="v" clipPathUnits="userSpaceOnUse"><path d="M-449.756 669.443h595.28v-841.89h-595.28Z"></path></clipPath><clipPath id="w" clipPathUnits="userSpaceOnUse"><path d="M-275.31 386.583h595.28v-841.89h-595.28Z"></path></clipPath><clipPath id="x" clipPathUnits="userSpaceOnUse"><path d="M-335.41 506.564h595.28v-841.89h-595.28Z"></path></clipPath><clipPath id="y" clipPathUnits="userSpaceOnUse"><path d="M-310.235 295.356h595.28v-841.89h-595.28Z"></path></clipPath><clipPath id="z" clipPathUnits="userSpaceOnUse"><path d="M-216.568 332.268h595.28v-841.89h-595.28Z"></path></clipPath><clipPath id="A" clipPathUnits="userSpaceOnUse"><path d="M-260.566 363.79h595.28V-478.1h-595.28Z"></path></clipPath><clipPath id="B" clipPathUnits="userSpaceOnUse"><path d="M-214.385 420.208h595.28v-841.89h-595.28Z"></path></clipPath><clipPath id="C" clipPathUnits="userSpaceOnUse"><path d="M-219.062 479.998h595.28v-841.89h-595.28Z"></path></clipPath><clipPath id="D" clipPathUnits="userSpaceOnUse"><path d="M-301.703 464.55h595.28v-841.89h-595.28Z"></path></clipPath><clipPath id="E" clipPathUnits="userSpaceOnUse"><path d="M-222.294 387.978h595.28v-841.89h-595.28Z"></path></clipPath><clipPath id="F" clipPathUnits="userSpaceOnUse"><path d="M-313.807 581.518h595.28v-841.89h-595.28Z"></path></clipPath></defs><path d="M0 0c-38.782 112.265 35.154 122.244 56.594 117.224-14.84 43.416-21.059 86.214-23.562 118.197-3.751 47.925 2.292 105.966 2.292 105.966s27.726-7.144 54.438-6.752c41.667.628 43.538 8.963 68.081 21.795 30.606 15.82 60.336 24.333 88.402 24.332 23.304 0 55.736-7.34 86.288-23.608 4.408-2.347 21.498-12.876 28.268-15.547 11.43-4.509 25.486-6.355 41.92-7.027 20.766-.848 53.68 7.062 53.68 7.062s6.037-59.067 2.108-107.196c-3.503-42.915-11.479-82.531-23.342-117.589 96.9 7.428 63.56-102.796 56.53-116.403 7.597-2.949 32.658 0 42.864-.227-22.112-56.359-43.742-109.81-119.664-150.509-95.602-51.248-297.643-69.485-406.732 55.254C-13.61-70.129-28.724-37.694-41.277.227-4.819-1.871.068-.197 0 0" clip-path="url(#a)" style="fill:#c78e3d;fill-opacity:1;fill-rule:nonzero;stroke:none" transform="matrix(1.33333 0 0 -1.33333 65.588 752.829)"></path><path d="M0 0c-90.843 54.414-131.265 117.578-138.21 129.244-.294.494-1.042.274-1.042-.301-.006-24.065-21.746-25.268-21.746-25.268 3.742 22.623.766 34.019.766 34.019-13.608-7.569-32.999-4.082-32.999-4.082 20.582 22.538-.255 35.721-.255 35.721 18.502 0 37.238-15.306 43.16-20.596.372-.331.915.102.683.543-56.821 107.855-42.993 240.244-42.993 240.244 29.682-4.507 61.051-4.613 85.985 5.614 9.615 3.943 18.878 10.331 30.277 16.499C-35.04 434.005 0 432.729 0 432.729s35.04 1.276 76.374-21.092c11.399-6.168 20.662-12.556 30.277-16.499 24.934-10.227 55.878-10.206 85.56-5.699 0 0 12.473-134.497-43.082-240.485-.22-.419.296-.831.649-.517 5.861 5.201 25.088 20.967 42.773 20.896 0 0-19.221-14.374.255-35.721 0 0-18.115-2.977-33.084 3.6 0 0-2.977-10.914.851-32.857 0 0-8.761-2.551-17.265 9.27 0 0-5.026 6.41-4.495 15.994.031.553-.693.785-.98.312C130.31 117.55 87.692 51.951 0 0" clip-path="url(#b)" style="fill:#000;fill-opacity:1;fill-rule:nonzero;stroke:none" transform="matrix(1.33333 0 0 -1.33333 393.915 849.898)"></path><path d="M0 0c-9.345-24.038-26.229-54.502-47.022-73.934-49.478-46.226-125.532-76.827-208.88-74.786-88.438 2.166-125.022 18.711-173.5 47.171-39.193 23.01-67.954 59.565-83.437 101.848 15.792-1.347 26.964 3.579 57.466 32.986C-443.806-44.62-345.83-89.982-256.623-89.982c77.265 0 184.597 36.517 199.48 123.267C-31.203 7.94-18.36-.57 0 0" clip-path="url(#c)" style="fill:#000;fill-opacity:1;fill-rule:nonzero;stroke:none" transform="matrix(1.33333 0 0 -1.33333 735.345 782.24)"></path><path d="M0 0s34.076.085 34.076-37.79c0-35.494-14.571-61.916-14.571-61.916S-3.402-75.779-11.51-76.572c-7.794-.763-13.835-2.495-27.896-17.464s-30.618-41.731-30.618-41.731-3.713-7.796-19.703-9.071c0 0-6.804 10.29 2.467 26.081 9.132 15.556 48.988 39.917 48.988 39.917s22.028 12.587 14.713 36.401c0 0 18.031-.936 26.621 2.041 0 0-15.989 10.886-15.706 23.7 0 0 .057 8.788 12.644 16.698" clip-path="url(#d)" style="fill:#000;fill-opacity:1;fill-rule:nonzero;stroke:none" transform="matrix(1.33333 0 0 -1.33333 663.35 623.214)"></path><path d="M0 0s-15.932 3.232-25.345 9.299c0 0 8.732-1.361 18.995 17.463C4.437 46.548 32.432 79.333 45.133 74.333c0 0 .229-38.499-45.133-74.333" clip-path="url(#e)" style="fill:#000;fill-opacity:1;fill-rule:nonzero;stroke:none" transform="matrix(1.33333 0 0 -1.33333 592.06 832.661)"></path><path d="M0 0s-34.076.085-34.076-37.79c0-35.494 14.571-61.916 14.571-61.916S.739-75.212 11.51-76.572c7.794-.763 13.835-2.495 27.896-17.464s30.618-41.731 30.618-41.731 3.713-7.796 19.703-9.071c0 0 6.804 10.29-2.467 26.081-9.132 15.556-48.988 39.917-48.988 39.917S16.244-66.253 23.559-42.439c0 0-18.031-.936-26.621 2.041 0 0 15.989 10.886 15.706 23.7 0 0-.057 8.788-12.644 16.698" clip-path="url(#f)" style="fill:#000;fill-opacity:1;fill-rule:nonzero;stroke:none" transform="matrix(1.33333 0 0 -1.33333 124.326 623.214)"></path><path d="M0 0s15.933 3.232 25.345 9.299c0 0-8.732-1.361-18.995 17.463-10.787 19.786-38.782 52.571-51.483 47.571 0 0-.229-38.499 45.133-74.333" clip-path="url(#g)" style="fill:#000;fill-opacity:1;fill-rule:nonzero;stroke:none" transform="matrix(1.33333 0 0 -1.33333 195.616 832.661)"></path><path d="M0 0c-99.734 66.905-130.805 135.228-130.805 135.228-27.216 54.148-44.453 125.362-42.355 208.625 5.46-.375 11.532-.969 16.684-.969 21.947 0 40.153 4.203 56.884 10.239 8.249 2.977 30.019 16.344 33.764 18.371C-32.514 389.522-.082 389.44 0 389.439c0 0 32.627-.03 65.941-18.058 3.745-2.027 25.085-15.218 32.66-18.325 16.456-6.749 47.06-12.18 73.418-9.634 2.218-84.646-15.147-156.555-42.077-208.16 0 0-33.043-72.893-129.942-135.262" clip-path="url(#h)" style="fill:#d02422;fill-opacity:1;fill-rule:nonzero;stroke:none" transform="matrix(1.33333 0 0 -1.33333 393.915 819.96)"></path><path d="m0 0 9.539-17.18-19.16-.013-10.546-18.841-11.342 18.82-21.065-.02L-42.028.238l-10.546 17.493 21.153.089 11.213 18.588 10.267-18.493 20.018.081z" clip-path="url(#i)" style="fill:#c78e3d;fill-opacity:1;fill-rule:nonzero;stroke:none" transform="matrix(1.33333 0 0 -1.33333 224.516 237.926)"></path><path d="m0 0 9.539-17.18-19.16-.013-10.546-18.841-11.342 18.82-21.065-.02L-42.028.238l-10.546 17.493 21.153.089 11.213 18.588 10.267-18.493 20.018.081z" clip-path="url(#j)" style="fill:#c78e3d;fill-opacity:1;fill-rule:nonzero;stroke:none" transform="matrix(1.33333 0 0 -1.33333 619.987 237.926)"></path><path d="m0 0 9.539-17.18-19.16-.014-10.546-18.84-11.342 18.82-21.065-.02L-42.028.238l-10.546 17.493 21.153.088 11.213 18.589 10.267-18.493 20.018.081z" clip-path="url(#k)" style="fill:#c78e3d;fill-opacity:1;fill-rule:nonzero;stroke:none" transform="matrix(1.33333 0 0 -1.33333 421.498 172.02)"></path><path d="m0 0-23.058-37.054-7.274 4.524 9.498 15.262-13.533 8.423-9.498-15.261-7.266 4.524 23.065 37.054 7.266-4.524-9.042-14.527 13.533-8.423 9.042 14.527z" clip-path="url(#l)" style="fill:#fff;fill-opacity:1;fill-rule:nonzero;stroke:#1d1d1b;stroke-width:1.417;stroke-linecap:butt;stroke-linejoin:miter;stroke-miterlimit:10;stroke-dasharray:none;stroke-opacity:1" transform="matrix(1.33333 0 0 -1.33333 212.006 867.615)"></path><path d="m0 0-17.132-40.64-12.458 5.436 1.258 34.891c.014.327-.435.429-.564.129l-12.921-29.685-8.063 3.517 17.085 40.055 12.458-5.205-1.395-34.836c-.013-.395.531-.517.687-.156L-8.444 3.524Z" clip-path="url(#m)" style="fill:#fff;fill-opacity:1;fill-rule:nonzero;stroke:#1d1d1b;stroke-width:1.417;stroke-linecap:butt;stroke-linejoin:miter;stroke-miterlimit:10;stroke-dasharray:none;stroke-opacity:1" transform="matrix(1.33333 0 0 -1.33333 266.165 890.966)"></path><path d="m0 0 2.946-24.031-9.927 2.905L-8.75-2.722l-6.008.776-4.524-15.595-8.614 2.518 12.165 41.926 8.607-2.525-5.28-18.193 5.396-.694L5.055 20.806l9.839-2.884z" clip-path="url(#n)" style="fill:#fff;fill-opacity:1;fill-rule:nonzero;stroke:#1d1d1b;stroke-width:1.417;stroke-linecap:butt;stroke-linejoin:miter;stroke-miterlimit:10;stroke-dasharray:none;stroke-opacity:1" transform="matrix(1.33333 0 0 -1.33333 298.887 931.019)"></path><path d="M0 0s-18.547 5.918-25.691 1.042c0 0-7.144-3.289-7.938-17.691s1.588-19.674 7.031-23.36 23.615-1.899 23.615-1.899l1.446 22.765-12.474.793-.453-7.938 3.742-.113-.227-7.598s-9.299-.595-11.907 2.609c0 0-3.062 3.401-1.928 13.834S-19-5.989-19-5.989s4.082 1.587 18.484-1.928z" clip-path="url(#o)" style="fill:#fff;fill-opacity:1;fill-rule:nonzero;stroke:#1d1d1b;stroke-width:1.417;stroke-linecap:butt;stroke-linejoin:miter;stroke-miterlimit:10;stroke-dasharray:none;stroke-opacity:1" transform="matrix(1.33333 0 0 -1.33333 389.387 915.697)"></path><path d="M0 0c-5.688-.354-8.675 1.96-9.471 13.193-.959 13.472 4.559 14.873 8.11 14.88 4.593 0 8.512-.66 9.471-15.268C8.505 6.892 8.138.517 0 0m17.35 13.411C15.935 34.809 6.579 37.34-3.177 36.544c-11.2-.912-16.568-8.376-15.534-23.964C-17.466-6.205-8.974-9.362 2.041-8.423 14.744-7.341 18.146 1.395 17.35 13.411" clip-path="url(#p)" style="fill:#fff;fill-opacity:1;fill-rule:nonzero;stroke:none" transform="matrix(1.33333 0 0 -1.33333 423.626 960.92)" data-source="https://football-logos.cc"></path><path d="M0 0c-5.688-.354-8.675 1.96-9.471 13.193-.959 13.472 4.559 14.873 8.11 14.88 4.593 0 8.512-.66 9.471-15.268C8.505 6.892 8.138.517 0 0Zm17.35 13.411C15.935 34.809 6.579 37.34-3.177 36.544c-11.2-.912-16.568-8.376-15.534-23.964C-17.466-6.205-8.974-9.362 2.041-8.423 14.744-7.341 18.146 1.395 17.35 13.411Z" clip-path="url(#q)" style="fill:none;stroke:#1d1d1b;stroke-width:1.417;stroke-linecap:butt;stroke-linejoin:miter;stroke-miterlimit:10;stroke-dasharray:none;stroke-opacity:1" transform="matrix(1.33333 0 0 -1.33333 423.626 960.92)"></path><path d="m0 0-6.96-1.572-2.912 12.88 6.96 1.572a6.606 6.606 0 0 0 8.063-6.45A6.604 6.604 0 0 0 0 0m10.308-3.388c5.97 6.817 3.381 14.583 3.381 14.583-1.918 7.288-7.191 12.051-14.9 10.312l-19.391-4.382 9.6-42.483 8.961 2.027L-5.13-9.648l7.6 1.715 7.886-12.37 10.09 2.048z" clip-path="url(#r)" style="fill:#fff;fill-opacity:1;fill-rule:nonzero;stroke:none" transform="matrix(1.33333 0 0 -1.33333 480.733 932.262)"></path><path d="m0 0-6.96-1.572-2.912 12.88 6.96 1.572a6.606 6.606 0 0 0 8.063-6.45A6.604 6.604 0 0 0 0 0Zm10.308-3.388c5.97 6.817 3.381 14.583 3.381 14.583-1.918 7.288-7.191 12.051-14.9 10.312l-19.391-4.382 9.6-42.483 8.961 2.027L-5.13-9.648l7.6 1.715 7.886-12.37 10.09 2.048z" clip-path="url(#s)" style="fill:none;stroke:#1d1d1b;stroke-width:1.417;stroke-linecap:butt;stroke-linejoin:miter;stroke-miterlimit:10;stroke-dasharray:none;stroke-opacity:1" transform="matrix(1.33333 0 0 -1.33333 480.733 932.262)"></path><path d="m0 0-8.549-2.971-14.405 41.454 8.55 2.971z" clip-path="url(#t)" style="fill:#fff;fill-opacity:1;fill-rule:nonzero;stroke:#1d1d1b;stroke-width:1.417;stroke-linecap:butt;stroke-linejoin:miter;stroke-miterlimit:10;stroke-dasharray:none;stroke-opacity:1" transform="matrix(1.33333 0 0 -1.33333 534.728 947.282)"></path><path d="M0 0s-16.273-2.268-20.865-10.886c0 0-3.856-4.99 2.268-19.221 5.788-13.452 10.546-17.01 15.932-17.35 8.269-.523 20.188 9.661 20.188 9.661l-3.915 7.178s-11.17-8.334-15.319-7.067c0 0-3.959.83-7.871 10.186-1.85 4.422-2.576 7.578-2.832 9.665a5.55 5.55 0 0 0 2.727 5.48c2.175 1.264 6.02 2.933 12.749 4.643z" clip-path="url(#u)" style="fill:#fff;fill-opacity:1;fill-rule:nonzero;stroke:#1d1d1b;stroke-width:1.417;stroke-linecap:butt;stroke-linejoin:miter;stroke-miterlimit:10;stroke-dasharray:none;stroke-opacity:1" transform="matrix(1.33333 0 0 -1.33333 561.82 873.258)"></path><path d="m0 0-6.892 18.826 2.293 1.456L9.158 5.777Zm-2.878 31.114-14.397-8.96 15.193-42.409 7.702 4.892-2.585 7.055L15.22-.619l5.11-5.389 8.036 5.11z" clip-path="url(#v)" style="fill:#fff;fill-opacity:1;fill-rule:nonzero;stroke:#1d1d1b;stroke-width:1.417;stroke-linecap:butt;stroke-linejoin:miter;stroke-miterlimit:10;stroke-dasharray:none;stroke-opacity:1" transform="matrix(1.33333 0 0 -1.33333 599.675 892.59)"></path><path d="M0 0s-10.097-9.301-11.342-8.961-7.369-1.701-11.921-5.878c-4.259-3.906-13.369-9.261-13.369-9.261-6.233-4.538-11.621-3.912-15.588-4.252-3.974-.34-7.09-3.286-7.09-3.286-.299.537-.714 1.068-1.218 1.592C-44.6-23.46-32.999-8.022-32.999 9.975c0 11.627-4.07 20.825-11.223 28.598l1.916-.127c1.973-1.382 7.735-9.019 9.416-11.176a10 10 0 0 1 .871-.98c5.987-5.824 14.322-8.96 19.656-10.587 2.137-.646 4.45-1.564 6.09-2.422 1.524-.796 2.939-1.796 4.157-3.014 2.285-2.294 5.101-4.433 6.794-5.65a1.022 1.022 0 0 0-.127-1.739C2.483 1.801 0 0 0 0m-58.425 51.485c.19-1.014.462-1.952.782-2.803a44 44 0 0 1-5.348 2.245c2.661.062 4.566.558 4.566.558m228.089 18.052c-5.443-8.3-13.582-8.22-15.48-8.295q-.704-.03-1.409-.082c-15.281-1.136-28.964-.979-34.36-1.19-2.497-.095-4.987-.456-7.361-1.218-17.085-5.457-26.726-25.44-24.876-45.6.769-8.382 4.437-17.044 8.199-25.175 6.103-13.199 13.254-24.603 14.595-28.12 3.633-9.526 3.109-14.207-4.137-24.726-6.716-9.736-16.928-4.096-16.928-4.096.075.327.333 3.198 1.109 22.358 1.02 25.175-3.627 36.741-3.627 36.741 5.443 11.791-3.517 24.835-3.517 24.835s3.66 22.357.51 35.489C79.66 61.8 62.821 77.224 62.821 77.224c.282 1.586.08 3.066-.193 4.151-.183.731.487 1.394 1.221 1.221 9.727-2.295 19.513 4.923 19.513 4.923-3.574 19.612-24.153 14.738-24.153 14.738l-.586 2.748c5.899 17.35-12.727 20.667-12.727 20.667s-17.62 4.077-23.644 11.439c-3.062 3.742-1.631 10.025-.297 12.162.694 1.102 1.512 2.148 1.546 3.448.067 2.391-1.166 3.154-2.29 3.357-.962.173-1.953-.074-2.773-.606-1.95-1.262-6.16-4.895-7.443-13.27-1.875-12.243 20.562-24.491 21.208-24.865l-20.157 4.678c-.721.183-1.578.485-2.636.765-3.683.974-18.099 4.018-22.242 14.19-1.586 3.885-1.946 6.974-3.062 8.668-1.293 1.973-4.348 1.463-4.967-.81a34 34 0 0 1-.687-3.136c-1.721-9.839 6.688-20.814 6.688-20.814 7.995-12.866 31.244-17.86 31.244-17.86-3.627-1.925-4.028-3.456-7.995-6.974-3.966-3.511-12.587-9.75-16.329-9.185-3.742.571-6.92-.619-8.165-7.253-1.354-7.192 4.137-8.505 4.137-8.505 1.701-9.757 13.043-9.811 15.765-7.995 2.721 1.81 3.708-.973 3.708-.973 2.497-8.613 17.669-8.498 17.669-8.498l1.13-1.136c-4.423-4.763-14.288-20.861-14.288-20.861s-2.776.681-10.376 2.606c-7.593 1.926-10.09 6.92-14.288 9.41-3.096 1.844-8.635 3.007-10.846 2.939a8.8 8.8 0 0 0-2.313.245c-2.082.504-6.103 1.64-7.988 3.28-2.606 2.272-3.967 6.579-3.967 6.579-2.272 6.464-8.28 4.987-8.28 4.987-2.041 1.701-6.11 1.143-6.11 1.143-1.871 12.812-21.637 8.226-21.637 8.226l-5.136-7.436c1.061-5.559 3.687-8.757 6.729-10.553a44 44 0 0 1-5.369.326c-23.977 0-42.864-19.438-42.864-43.415 0-22.896 17.22-41.647 39.653-43.287-3.273-3.545-6.586-7.144-8.355-9.104 13.274-15.342 32.087-3.742 32.087-3.742s2.041-1.469 4.878-1.361c2.838.116 5.729 1.674 8.335 4.28 2.606 2.613 9.58 4.797 9.58 4.797 10.546 3.626 22.793 2.49 22.793 2.49C.054-25.46 15.193-21.323 15.193-21.323c2.64-7.451 9.471-11.275 13.526-15.364q.157-.159.283-.309c.532-.635-.208-1.554-.948-1.182-3.729 1.877-8.981 2.83-12.772 3.015a41 41 0 0 1-9.716-.646c-19.085-3.633-22.623-14.982-22.093-25.624.565-11.457 5.75-18.853 5.75-18.853.115-6.124 5.334-12.819 5.334-12.819-1.817.912-7.825 7.035-9.417 8.396-1.585 1.361-6.348 6.233-13.152 7.709-6.804 1.477-13.267-7.144-13.267-7.144-10.717 2.123-20.725-11.499-20.725-11.499 6.123-8.505 18.228-11.893 23.106-9.852s5.327 9.22 5.327 9.22c2.953-.797 5.267-4.239 5.267-4.239s-.402-1.735 2.436-3.205c2.83-1.476 5.681-.497 5.681-.497 13.832-18.146 30.958-25.855 37.986-19.051 7.035 6.804 2.953 23.698 2.953 23.698l4.416 5.77c-.041-.252-.592-3.545.061-12.798.68-9.641 9.471-11.342 9.471-11.342s-.714-5.586 1.667-12.05c1.878-5.082 9.219-11.009 12.451-13.37a1.84 1.84 0 0 0 .476-2.463c-7.953-12.845-7.11-22.01-7.11-22.01-2.272-1.245-8.396-4.763-10.886-8.73-2.497-3.973-1.647-11.512-1.647-11.512-11.736-1.191-14.288-19.731-14.288-19.731 4.198-1.477 6.389-1.075 6.389-1.075l.585-1.361c14.744-2.273 18.881 5.838 18.881 5.838 1.245 5.443-.428 9.695-.428 9.695 1.762 7.682 11.187 6.039 11.187 6.039-.225 20.636 20.594 33.989 20.594 33.989l.626 13.124c.381 1.447.562 2.88.631 4.165.132 2.454-.391 4.878-1.335 7.146-1.305 3.137-1.453 6.023-1.188 8.312a12.85 12.85 0 0 0 2.606 6.368c.98 1.259 2.722 3.77 5.695 8.743 5.552 9.295 6.464 23.814 6.464 23.814s5.021-4.082 19.615.905c13.948 4.763 19.276 14.513 21.092 26.651 1.817 12.131-4.082 24.834-11.791 39.347-6.13 11.54-12.648 28.304-14.921 34.714a12.5 12.5 0 0 0-.66 5.348c.164 1.735.715 3.871.837 4.844.225 1.817 3.457 7.26 5.219 9.07 1.279 1.326 5.552 1.816 4.871-2.382-.68-4.191-6.007-9.75-6.007-9.75 9.811-2.157 14.791-.279 19.214 4.144 4.422 4.422-.728 14.683-.728 14.683 3.966-2.273 4.531-7.09 4.531-7.09.796-9.015-8.091-17.605-8.091-17.605 17.635-.055 22.672 6.821 24.761 12.107 2.177 5.491-.422 10.424-2.089 12.799-.361.51.102 1.183.714 1.054 13.622-2.857 22.841 2.307 25.774 5.505 1.156 1.265 1.696 2.582 2.082 4.259 2.041 8.884-.829 13.942-.829 13.942" clip-path="url(#w)" style="fill:#000;fill-opacity:1;fill-rule:nonzero;stroke:none" transform="matrix(1.33333 0 0 -1.33333 367.08 515.444)"></path><path d="M0 0c-.225-3.851.565-8.274 2.946-13.832s2.953-13.833 2.953-13.833C-3.177-33.904-7.6-47.056-7.6-47.056c1.32 11.05 5.511 17.2 7.974 19.942 1.028 1.143 1.327 2.77.721 4.185-3.476 8.212-5.579 19.405-4.198 26.188 1.824 8.974 9.73 14.098 9.73 14.098C3.565 12.934.225 3.858 0 0m-.225 211.153s4.423.789 4.763 4.987c0 0 2.041-1.361 4.532-1.245 2.497.109 7.375-4.654 7.375-4.654s-7.43-4.348-14.064-2.721c0 0-1.02 1.122-3.286 1.129 0 0-.571 2.048.68 2.504m-56.588-108.638c-6.804-4.988-18.03-13.492-18.03-13.492s-8.961-.341-15.765 0c0 0 10.097 1.245 14.86 3.286s12.247 9.865 16.894 12.247 10.206 4.987 18.881.565c0 0-10.036 2.381-16.84-2.606m41.389 114.87s-2.151-.109-3.967.456-10.886 2.381-14.969-6.348c0 0-4.422 1.926-6.293 1.245s-3.572-.565-7.77-4.198c-4.192-3.626-7.709-4.871-13.152-5.103 0 0 6.579 3.293 8.504 4.763 1.926 1.476 6.199 3.273 10.887 9.757 0 0 4.878 5.443 10.206 8.049 0 0-15.86 1.136-25.501 7.253.693-.184 25.698-6.961 31.624-2.035 0 0 5.559-11.457 17.806-7.824 0 0-1.592-4.994-7.375-6.015m-10.091-9.75s-1.245-.796.456-1.476c1.701-.681 6.008.796 7.709 2.381 0 0-1.061-3.864-6.083-3.851-5.014.014-6.674 4.858-6.674 4.858s-.81-.619-.851-4.858c0 0-4.307 3.048-.456 6.906 0 0 2.157 2.164 5.103 2.048 0 0 1.477 1.252 5.103.68 0 0 1.558.152 2.514.57.371.162.8.091 1.086-.196l.962-.962a1.323 1.323 0 0 0 .016-1.853c-1.613-1.689-5.247-4.921-8.885-4.247m-6.994 38.762c10.532-3.504 18.677-8.6 18.677-8.6s4.647-2.15 2.265-7.028c-2.381-4.879-7.824 0-7.824 0 4.538 3.857 1.925 4.306.469 6.742-1.422 2.354-12.88 8.505-13.587 8.886m138.759-63.603c-5.219-4.075-18.507-4.899-20.521-5.001a5 5 0 0 0-.476 0c-2.266.075-21.602.647-31.761-1.116-10.797-1.871-17.009-12.587-18.792-15.05-1.783-2.47-12.302-17.459-.762-45.083C46.226 87.124 49.199 87.376 51.88 79.98c4.062-11.22.932-19.092-7.491-28.787-8.417-9.696-20.834-.558-20.834-.558 1.538 9.865.98 29.427.98 29.427.088 27.515-4.382 29.767-4.382 29.767 4.906 9.743 2.422 18.214.327 22.235-1.014 1.932-1.381 4.123-1 6.267 1.68 9.43 2.517 25.276-.769 34.005C14.969 182.291.51 195.898.51 195.898.762 199.13 0 200.28 0 200.28l-.299 3.872.653.986c.245.374.701.538 1.136.429 9.927-2.47 19.003 2.96 19.003 2.96-4.048 13.396-23.344 9.614-23.344 9.614-.081 2.463-2.599 5.905-2.599 5.905.429.313.762.83 1.014 1.361.456.966.633 2.041.558 3.109-.272 3.879-1.572 6.294-1.572 6.294-2.551 5.906-14.54 9.485-14.54 9.485S-31.72 249.057-37 252.8c-5.266 3.742-5.633 9.6-4.926 12.587.422 1.789 1.803 4.769 2.871 6.919.402.817-.585 1.62-1.292 1.041-3.429-2.782-5.974-7.872-6.389-11.58-.51-4.592 4.974-13.819 15.778-19.35 7.022-3.586 9.995-6.355 11.22-7.852.435-.531.081-1.333-.599-1.381-2.34-.163-5.008.061-15.724 1.408-12.846 1.62-29.406 9.417-33.598 12.676-4.218 3.28-6.354 11.097-7.926 15.404-.238.653-1.204.572-1.32-.116-1.034-6.375 2.361-13.499 2.361-13.499 6.382-13.015 15.479-17.098 21.943-19.989 6.463-2.892 17.941-4.164 17.941-4.164s-7.906-4.26-9.607-6.981-8.423-7.736-8.423-7.736c-2.545-2.974-10.546-5.784-11.567-5.784-.53 0-1.66-.068-2.537.109-1.293.259-2.654-.013-3.661-.864-1.606-1.354-.429-2.606-.429-2.606s5.015 1.572 8.165-.381c3.144-1.953.681-2.891.681-2.891-3.661.299-3.491-1.552-3.491-1.552.51-1.51 2.933-1.469 2.933-1.469.68-1.191 3.442-.722 3.442-.722l1.62.892s1.279 1.912 2.123 1.068c.401-.401.324-1.205.045-1.885-.333-.817-.773-1.425-1.637-1.595-.585-.116-1.361-.553-1.13-1.031.66-1.371 2.084-.478 2.084-.478.53.353 1.225.677 2.049.888 1.68.422 3.671.338 5.297-.254 1.334-.476 2.436-1.306 1.545-2.708-1.116-1.748-3.055-.326-4.362.994-.823.837-2.116.98-3.075.313l-.048-.027c-.258-.184-.639-.368-1.075-.552a4.68 4.68 0 0 0-5.32 1.246c-1.13 1.299-2.198 2.367-2.198 2.367h-3.313c-.681-.68-.769-2.381-.429-4.082s2.47-3.239 6.042-4.763c2.197-.946 5.273.531 7.307 1.803a2.824 2.824 0 0 0 3.681-.598c4.613-5.627 9.253-5.791 9.253-5.791 12.758-1.496 22.623 12.152 22.623 12.152-1.442-11.308-14.118-14.029-14.118-14.029 18.146-11.268 31.564 8.028 31.883 8.498-3.143-9.519-7.974-12.982-11.723-14.459-4.939-1.932-16.588.517-16.588.517-4.504-5.191-15.05-23.051-18.37-32.577s-1.191-12.669-1.191-12.669c3.232 1.701 6.709 8.505 8.308 11.274.775 1.341 1.898 2.457 3.293 3.123 2.762 1.32 4.388.055 4.388.055-2.81-1.184-8.933-9.607-9.437-10.628-.517-1.02-1.959-3.32-1.959-3.32-2.722-2.803-13.268-10.288-13.268-10.288-2.463-2.891-11.907-9.103-11.907-9.103-2.463.68-13.186-5.865-16.839-9.526-3.654-3.654-12.159-7.144-13.948-7.988-1.79-.857-8.417-2.469-11.139-2.299s-5.361-1.62-5.62-5.525c-.251-3.919 2.722-7.743 6.212-7.913 2.783-.136 8.118 4.116 10.152 5.838.578.49 1.211.898 1.891 1.224a37.9 37.9 0 0 0 14.588 3.668l12.744.585c4.599 4.164 20.5 13.349 27.733 14.968 7.225 1.613 22.112 1.783 22.112 1.783l8.927 9.784-6.294-13.186c-10.886 1.279-20.411-.939-20.411-.939 1.612-4.844 12.158-14.37 12.158-14.37s9.362-7.994 10.886-18.629c1.538-10.628-10.709-27.216-12.498-31.039-1.79-3.824-3.994-13.268-2.13-22.113 1.878-8.845 9.866-8.165 9.866-8.165s-.762-8.164 1.449-14.029c2.211-5.872 8.505-9.526 11.056-11.826 2.552-2.299.851-5.524.851-5.524-7.233-11.567-6.634-22.63-6.634-22.63s-8.845-5.103-10.805-8.165c-1.952-3.062-1.442-11.907-1.442-11.907l6.634-3.062c1.789 6.723 10.927 6.172 10.927 6.172.088 17.35 20.201 33.631 20.201 33.631.85 3.919.17 13.867.17 13.867-.681 1.02-.851 2.299-.851 2.299S5.783-10.349 5.613-4.225 9.355 7.43 9.355 7.43s2.511 2.511 6.593 10.076c4.083 7.573 5.995 20.684 5.995 20.684-7.396 5.239-4.593 9.812-4.593 9.812 6.124-12.336 18.452-10.975 26.454-7.485 10.968 4.164 20.493 16.418 18.622 30.189-1.871 13.785-4.205 20.327-12.304 35.211-8.391 15.422-10.918 24.916-12.36 30.699-.694 2.79-.796 5.824-.531 8.838a24 24 0 0 0 2.994 9.709l.98 1.735c.68 1.211 1.544 2.327 2.605 3.225 1.776 1.511 4.511 2.844 7.39.565 4.932-3.912-2.042-13.267-2.042-13.267 7.144.081 12.159 2.041 12.159 9.784 0 8.43-8.587 11.226-8.587 11.226 16.718.429 18.453-9.063 16.969-15.697-.884-3.932-3.197-7.566-4.579-9.477-.347-.484.102-1.144.681-.994 4.429 1.143 7.865 2.926 9.763 4.987 10.805 11.737-4.463 24.324-4.463 24.324 5.613-2.211 8.763-4.164 22.283-3.402 9.641.545 13.036 8.975 14.186 13.772.19.768-.694 1.34-1.32.85" clip-path="url(#x)" style="fill:#fff;fill-opacity:1;fill-rule:nonzero;stroke:none" transform="matrix(1.33333 0 0 -1.33333 447.213 675.418)"></path><path d="M0 0s-1.417-.397-1.191-1.701C-.964-3.005.51-2.155.51-2.155S2.325-.638 2.778.39c.454 1.027-.283 2.388-1.361 1.935C.34 1.871-.17.85 0 0" clip-path="url(#y)" style="fill:#fff;fill-opacity:1;fill-rule:nonzero;stroke:none" transform="matrix(1.33333 0 0 -1.33333 413.647 393.808)"></path><path d="M0 0s-12.587-6.124-17.237 7.938l2.042 1.247s2.381.227 2.721.454c0 0 7.825 1.02 9.299-.454 0 0 .907 2.835-5.443 2.268l-6.351-.567 2.042 3.629s16.556 4.57 17.123-7.921z" clip-path="url(#z)" style="fill:#fff;fill-opacity:1;fill-rule:nonzero;stroke:none" transform="matrix(1.33333 0 0 -1.33333 288.757 443.023)"></path><path d="M0 0c-6.348.565-14.853 6.464-17.234 12.472 0 0 5.327-5.668 9.75-7.26C-3.062 3.626 6.042 1.755 10.9-3.647 10.9-3.647 6.348-.572 0 0m25.515 6.913c-3.967-.225-13.384 3.177-15.99 4.538S3.177 17.119.34 19.16s-10.886 2.041-10.886 2.041-5.328.572-8.505 2.953-4.763 4.987-6.464 9.07c-1.701 4.082-6.008 2.946-6.008 2.946-1.592 1.36-5.783 1.36-5.783 1.36l-4.422-7.334 3.17-6.042c1.021.109 4.994-3.518 4.994-3.518 7.825-.68 10.431-6.348 17.459-14.404C-9.07-1.817 3.402-4.654 5.327-5.219c1.933-.564 8.621-3.742 10.662-6.688 2.041-2.953 3.287-2.613 3.287-2.613-1.586 6.464 6.239 21.433 6.239 21.433" clip-path="url(#A)" style="fill:#fff;fill-opacity:1;fill-rule:nonzero;stroke:none" transform="matrix(1.33333 0 0 -1.33333 347.422 485.053)"></path><path d="M0 0s-1.026-6.513 1.582-11.163c0 0-10.767-7.293-24.574 1.014l4.196 4.309s7.484-4.111 13.523-.964c0 0-8.25-.34-13.636 3.572l2.721 3.289s8.22-.566 12.983 1.362z" clip-path="url(#B)" style="fill:#fff;fill-opacity:1;fill-rule:nonzero;stroke:none" transform="matrix(1.33333 0 0 -1.33333 285.846 560.278)"></path><path d="M0 0s7.399 9.355 14.969 6.719c0 0 2.891-4.508 5.613-7.74 0 0-.255-5.528-4.253-9.185 0 0-6.151-1.681-14.118 3.147 0 0 5.018 8.76 9.696 8.76 0 0-4.338.85-9.1-4.167z" clip-path="url(#C)" style="fill:#fff;fill-opacity:1;fill-rule:nonzero;stroke:none" transform="matrix(1.33333 0 0 -1.33333 292.083 639.997)"></path><path d="M0 0c-2.177-4.395-6.586-11.601-14.601-18.765 0 0 1.959-14.547-1.531-18.031s-7.995.422-7.995.422-9.035 5.552-14.553 11.485c-.32.347.129.851.503.579 2.47-1.81 6.484-4.103 12.519-5.852 0 0 6.804-4.933 7.573.681.762 5.613 0 11.655 0 11.655S-5.756-2.858-5.334-.653c0 0 7.205 5.926 4.851 17.724-.218 1.102.748 1.545 1.191.51a19.7 19.7 0 0 0 1.524-6.014C2.606 7.586 1.776 3.586 0 0m7.593 9.131s1.109 7.566-6.464 18.629c-7.566 11.05-17.431 8.328-21.092 8.246-3.653-.081-18.874-.85-20.323-15.308S-34.931.456-34.931.456s0-6.464 3.402-10.716c1.844-2.307 3.286-5.682 4.565-8.111.701-1.326-.313-2.578-1.681-1.952-2.673 1.224-4.327 2.497-4.327 2.497s-7.484 6.715-11.056 9.947-7.144 6.124-11.907 6.382c-4.763.252-10.117-6.382-10.117-6.382l5.694-7.824c7.315-1.361 8.165-6.723 8.165-6.723l1.109-.762c4.083-2.463 4.763.34 4.763.34l1.02-.17s6.628-9.273 12.588-13.608c5.946-4.334 14.288-9.273 20.575-5.014 6.3 4.246 2.898 19.473 2.898 19.473C8.614.116 7.593 9.131 7.593 9.131" clip-path="url(#D)" style="fill:#fff;fill-opacity:1;fill-rule:nonzero;stroke:none" transform="matrix(1.33333 0 0 -1.33333 402.27 619.4)"></path><path d="M0 0s-10.635-3.402-15.649-1.953c0 0-8.165-10.376-11.226-12.675L-18.282-.68l-7.825 15.737s10.288 9.954 11.73 11.995c0 0-3.313 13.091-3.225 14.792l6.716-13.914s11.995-6.722 13.778-8.736c0 0 .34-11.791-2.892-19.194m17.139 14.928c-1.483 3.524-3.783 8.593-5.232 9.995 0 0-1.089 7.062-5.368 14.342a41.1 41.1 0 0 1-22.215 12.683l5.035-2.973-8.41-5.253c-2.211 1.783-15.669 2.191-15.669 2.191l-8.213-6.226c-.231-.177-.517.143-.313.347l6.695 7.042-.306 3.688c-10.743-3.62-19.452-11.771-24.12-22.113l1.014-.075c2.381 2.042 10.124 3.743 10.124 3.743 1.531-1.783 4.593-13.772 4.593-13.772 5.953-.428 14.54-3.061 14.54-3.061-4.048-.429-15.649.762-15.649.762-1.021-1.871-8.321-12.628-8.321-12.628-5.6 2.429-8.6 5.463-10.009 7.28.143-12.526 6.022-23.929 15.118-31.509l2.28 4.62S-53.581-1.864-53.663-.68c0 0 8.669-12.329 9.438-14.289 0 0 9.015-2.633 15.057-2.463 0 0 4.585-8.586 6.715-9.947l-5.103-1.701.436-.871a38 38 0 0 1 3.422-.15c6.981 0 13.574 1.831 19.35 5.022 2.96 3.266 8.247 9.274 9.451 11.988L.17-1.953l6.545-9.614 6.417 4.94a41.04 41.04 0 0 1 4.164 17.996c0 1.198-.048 2.389-.157 3.559" clip-path="url(#E)" style="fill:#fff;fill-opacity:1;fill-rule:nonzero;stroke:none" transform="matrix(1.33333 0 0 -1.33333 296.392 517.304)"></path><path d="M0 0s1.247-5.84.284-9.129c0 0-4.31-5.556-15.026-3.798 0 0 .339 5.427 3.328 9.535.304.417-.24.924-.639.596-1.176-.968-2.579-2.686-3.596-5.709 0 0-2.44-.829-4.026 1.021 0 0 5.16 12.7 10.773 12.417C-8.902 4.933-1.304.51 0 0" clip-path="url(#F)" style="fill:#fff;fill-opacity:1;fill-rule:nonzero;stroke:none" transform="matrix(1.33333 0 0 -1.33333 418.41 775.357)" data-source="https://football-logos.cc"></path><!-- source: https://football-logos.cc --></svg>