<svg xmlns="http://www.w3.org/2000/svg" xmlns:xlink="http://www.w3.org/1999/xlink" viewBox="48.8 63.22 497.67 715.45"><!-- Source: https://football-logos.cc --><defs data-source="https://football-logos.cc"><linearGradient id="a"><stop offset="0%" stop-color="#ece9e4"></stop><stop offset="12%" stop-color="#fff"></stop><stop offset="0%" stop-color="#d6d6d6"></stop><stop offset="83887360%" stop-color="#fff"></stop><stop offset="0%" stop-color="#fff"></stop></linearGradient><linearGradient xlink:href="#a" id="b" x1="0" x2="0" y1="0" y2="1" gradientTransform="rotate(-132 .5 .5)" gradientUnits="objectBoundingBox"></linearGradient></defs><path d="M231.45 118.386c6.31-13.65 16.959-24.852 30.158-31.808a2 2 0 0 0-.168.391c8.57-4.484 18.224-7.188 28.469-7.643l.005.001a69 69 0 0 1 3.08-.068c17.433 0 33.334 6.533 45.357 17.324l-.086-.05a67.8 67.8 0 0 1 17.23 24.168c3.431 8.145 5.327 17.118 5.327 26.563 0 6.642-.937 13.062-2.685 19.132a68.4 68.4 0 0 1-14.561 26.452l.046-.01c-10.293 11.601-24.454 19.643-40.44 22.065l.007-.006a68 68 0 0 1-10.184.77c-30.127.023-55.67-19.696-64.539-47.117a69.1 69.1 0 0 1-3.337-21.298c0-10.355 2.266-20.126 6.325-28.86l-.005-.007z" style="fill:url(#b);stroke:#1b1918;stroke-width:.56690001;stroke-linecap:butt;stroke-linejoin:miter;stroke-dasharray:none"></path><path d="M293.235 79.583c-37.487 0-67.865 30.087-67.865 67.994 0 37.908 30.39 68.443 67.877 68.416s67.817-30.62 67.817-68.404c0-37.785-30.342-68.006-67.829-68.006z" style="fill:none;stroke:#342f29;stroke-width:.7087;stroke-linecap:butt;stroke-linejoin:miter;stroke-dasharray:none"></path><path d="M303.424 215.227c.682-.573 1.607-1.113 2.664-1.561-3.511-2.341-5.281-5.111-4.98-8.391 8.517-5.583 16.983-11.402 25.312-17.86 6.16.421 12.601.595 18.633.445-.559 2.127-1.82 3.999-2.765 5.673l1.576-.371M231.692 118.71c1.805 3.005 4.553 4.865 7.485 6.367a381 381 0 0 1 23.625-19.899l4.783-17.508c-2.093.188-4.047.481-6.14.669.062-.375.19-1.073.405-1.436M290.15 79.65c11.662 1.9 20.908 5.833 29.068 10.357 6.588.586 13.973 3.834 19.436 6.935M355.737 121.026a710 710 0 0 1-.187 16.382c1.745 9.625 2.667 19.749 2.83 29.327" style="fill:none"></path><path d="M319.155 89.197c.222 6.307.214 12.568-.188 18.75M356.326 137.478c-6.613-2.392-13.027-4.078-18.89-3.656" style="fill:none;stroke:#342f29;stroke-width:.7087;stroke-linecap:butt;stroke-linejoin:miter;stroke-dasharray:none"></path><path d="M290.156 79.652c11.659 1.899 20.903 5.832 29.062 10.355 6.564.584 13.918 3.81 19.375 6.9-12.023-10.79-27.924-17.324-45.358-17.324q-1.548 0-3.08.069" style="fill:#1a1914;fill-rule:evenodd"></path><path d="M355.737 121.026a710 710 0 0 1-.187 16.382c1.744 9.62 2.666 19.74 2.83 29.313a69 69 0 0 0 2.684-19.132c0-9.446-1.896-18.418-5.327-26.564" style="fill:#1a1915;fill-rule:evenodd"></path><path d="M266.794 88.072c9.138-3.338 17.92-7.148 29.016-7.875M261.826 104.806c9.868 3.258 19.468 6.7 27.703 12.188M239.327 123.838c-1.187 8.765-.906 19.798.657 32.813" style="fill:none;stroke:#342f29;stroke-width:.7087;stroke-linecap:butt;stroke-linejoin:miter;stroke-dasharray:none"></path><defs><radialGradient id="c" cx=".605" cy=".605" r=".86"><stop offset="0%" stop-color="#6b6865"></stop><stop offset="100%" stop-color="#191814"></stop></radialGradient></defs><path d="M288.44 116.243c6.773-5.195 17.155-8.368 30.679-9.562 8.21 7.837 15.499 16.268 19.453 26.859-3.24 9.914-9.444 18.24-16.195 26.273-12.881-2.12-23.456-5.95-32.462-10.945-1.54-10.89-2.184-21.734-1.476-32.625" style="fill:url(#c)"></path><path d="M264.547 169.4c8.774-6.36 17.461-13.512 26.111-20.999" style="fill:none;stroke:#342f29;stroke-width:.7087;stroke-linecap:butt;stroke-linejoin:miter;stroke-dasharray:none"></path><path d="M231.692 118.71c1.805 3.005 4.553 4.865 7.485 6.367a381 381 0 0 1 23.625-19.899l4.783-17.508c-2.093.188-4.047.481-6.14.669.062-.375.19-1.073.405-1.436-13.2 6.955-23.848 18.157-30.159 31.807" style="fill:#201f1b;fill-rule:evenodd"></path><path d="M239.833 155.124c-4.192 5.678-6.433 11.635-7.125 17.813 3.761 11.962 10.675 20.071 18.937 26.531 6.246.489 12.722.234 19.969-2.531l-6.281-28.22c-8.25-4.78-16.624-9.439-25.5-13.593" style="fill:#191814;fill-rule:evenodd"></path><path d="M322.16 159.371c2.067 9.579 3.402 19.157 4.219 28.736M358.864 163.826c-4.073 9.176-9.053 17.448-14.625 25.125M302.239 205.545c-11.788-1.302-21.996-4.974-31.782-9.28M233.284 173.108c-1.907-1.21-3.307-2.724-4.588-4.248M251.377 198.795c1.435 2.353 3.106 4.484 5.104 6.305" style="fill:none;stroke:#342f29;stroke-width:.7087;stroke-linecap:butt;stroke-linejoin:miter;stroke-dasharray:none"></path><path d="M301.108 205.275c-.301 3.28 1.469 6.05 4.98 8.39-1.057.45-1.982.989-2.664 1.562 15.986-2.421 30.147-10.463 40.44-22.065l-1.576.371c.944-1.674 2.207-3.546 2.766-5.673-6.033.15-12.475-.024-18.634-.445-8.33 6.458-16.795 12.277-25.312 17.86" style="fill:#1d1c18;fill-rule:evenodd"></path><path d="M213.388 151.01c0 .192.005.419.008.67l.027 1.701-1.521.75c-52.917 26.089-90.157 65.792-115.104 110.581C66.055 319.911 53.95 382.84 54.17 437.59c.08 20.031 1.864 40.048 5.496 59.926a329.6 329.6 0 0 0 15.936 57.338l.333.882-.302.907c-.518 1.555-.977 3.162-1.303 4.78-.31 1.542-.499 3.125-.499 4.73v38.55c0 7.835 2.214 13.907 6.101 18.02 3.994 4.227 9.843 6.476 16.941 6.524l13.913.093c5.025.034 8.165 1.554 9.83 4.482 1.536 2.703 1.523 6.361.38 10.974l-4.05 16.35c-1.303 5.263-.773 9.837 1.209 14.038 2.063 4.374 5.71 8.448 10.518 12.52 20.598 17.443 44.84 32.705 71.278 46.405 26.49 13.727 55.21 25.898 84.695 37.132 3.253 1.24 6.398 1.949 9.518 2.05 3.114.101 6.248-.392 9.489-1.554 26.725-9.58 53.244-20.357 79.381-33.726 26.107-13.353 51.846-29.3 77.043-49.234 4.602-3.64 8.977-7.368 11.647-11.883 2.55-4.312 3.591-9.516 1.817-16.401l-3.15-12.225c-1.482-5.752-2.23-10.294-.48-13.729 1.864-3.658 6.033-5.483 14.188-5.217l11.475.376q.31.01.542.01c4.967-.008 9.954-2.371 13.766-6.103 3.831-3.75 6.436-8.844 6.614-14.289q.01-.356.011-.636l-.074-43.573-.001-.522.18-.456c7.855-19.936 13.965-40.153 18.112-60.634 4.15-20.497 6.351-41.29 6.384-62.365.102-65.534-15.048-127.516-44.583-178.96-28.035-48.831-69.044-88.161-122.279-111.99l-1.642-.736.054-1.79q.033-1.131.025-2.222c-.136-16.922-7.44-35.773-20.569-50.592-13.105-14.793-32.02-25.522-55.398-26.22a83 83 0 0 0-3.106-.034h-.01q-.338.002-.76.01h-.01c-26.025.403-45.962 10.69-59.339 26.008-13.406 15.352-20.269 35.774-20.104 56.395zm-5.368-.946c.047-21.561 7.355-42.874 21.432-58.995 14.318-16.396 35.595-27.405 63.304-27.839q.364-.006.813-.01a88 88 0 0 1 3.294.035c25.026.747 45.26 12.217 59.27 28.03 13.987 15.787 21.77 35.951 21.915 54.105q.003.312.002.62c53.551 24.393 94.847 64.197 123.146 113.489 29.995 52.244 45.38 115.15 45.277 181.631-.034 21.438-2.27 42.58-6.49 63.416-4.19 20.693-10.323 41.056-18.184 61.081l.073 43.053q0 .442-.01.804c-.226 6.906-3.46 13.298-8.213 17.95-4.772 4.67-11.116 7.628-17.532 7.638q-.394 0-.711-.01l-11.475-.375c-5.697-.186-8.372.622-9.223 2.293-.966 1.895-.3 5.38.88 9.962l3.15 12.225c2.186 8.487.846 14.998-2.385 20.462-3.111 5.26-7.918 9.373-12.952 13.355-25.495 20.171-51.527 36.3-77.926 49.803-26.37 13.487-53.095 24.348-80.013 34-3.902 1.398-7.69 1.991-11.466 1.868-3.77-.122-7.488-.947-11.264-2.386-29.62-11.286-58.514-23.534-85.243-37.385-26.78-13.878-51.362-29.358-72.287-47.079-5.365-4.543-9.482-9.187-11.907-14.328-2.507-5.316-3.19-11.06-1.566-17.614l4.05-16.35c.813-3.283.948-5.665.166-7.04-.653-1.15-2.299-1.749-5.18-1.768l-13.912-.094c-8.615-.058-15.807-2.887-20.833-8.206-4.826-5.107-7.575-12.428-7.575-21.702v-38.55c0-1.907.237-3.85.626-5.781a44 44 0 0 1 1.174-4.497 335 335 0 0 1-15.86-57.391c-3.687-20.183-5.497-40.517-5.58-60.874-.223-55.557 12.073-119.437 43.302-175.507 25.204-45.252 62.723-85.414 115.913-112.04z" style="fill:#886639;fill-rule:evenodd"></path><path d="M80.98 545.624c4.791-4.935 12.487-5.63 21.28-5.062-10.885-29.412-17.83-64.823-17.905-107.063-.202-114.194 59.966-218.644 142.172-252.94-3.106-6.314-5.55-13.465-6.655-21.28C108.99 209.169 62.93 329.588 62.702 432.746c-.09 40.679 5.832 76.608 18.277 112.877" style="fill:none"></path><path d="M220.686 163.877c-68.052 32.888-107.83 88.155-129.836 142.481-31.487 77.73-30.658 160.076-6.151 236.514" style="fill:none"></path><path d="M224.679 176.51c-58.649 27.56-101.45 78.062-125.434 145.039-27.289 76.206-24.677 149.245-1.831 218.848" style="fill:none"></path><path d="M273.45 398.821a21.98 21.98 0 0 0 6.463 15.606 21.98 21.98 0 0 0 15.606 6.464c5.88 0 11.448-2.306 15.606-6.464a21.98 21.98 0 0 0 6.464-15.606 21.98 21.98 0 0 0-6.464-15.606 21.98 21.98 0 0 0-15.606-6.464 21.98 21.98 0 0 0-15.606 6.465 21.98 21.98 0 0 0-6.464 15.605M261.488 279.327l7.035 33.154-4.272-33.154zM261.097 277.484l1.011-2.645-1.26 1.477z" style="fill:#fff;fill-rule:evenodd"></path><path d="m255.979 376.399 7.253-.002c-4.236 6.303-6.714 13.92-6.714 22.127 0 21.705 17.326 39.3 38.7 39.3 21.373 0 38.7-17.595 38.7-39.3 0-8.213-2.483-15.837-6.726-22.143l7.293-.002c8.1 6.775 11.245 15.27 11.25 24.15l.038 70.65c.003 4.743.377 9.487 1.2 14.231.166 1.469.961.994 1.153.113 1-4.602 1.848-13.133 1.848-22.52v-27.6c6.186 4.76 11.615 10.997 15.02 22.575l7.294-.02c8.914-.023 16.162 6.469 16.162 16.069v67.612l-4.022-.01.01-68.43c0-6.088-6.36-11.441-11.532-11.455l-6.807-.019c.233 1.813.243 3.625.226 5.437l2.882-.005c5.292-.009 10.285 4.436 10.28 10.018l-.056 65.156 15.019-.02c19.99-3.892 39.834-9.705 59.625-16.2h3.75V551.5l36.488-.15c8.478-.036 13.913 5.088 13.913 12.974v42.6c0 7.617-4.978 13.696-12.863 13.801l-18.319.244c-12.019.16-18.455 13.073-16.331 22.03l4.8 20.25c1.206 5.093-.2 10.125-4.2 13.5-48.987 41.314-113.82 70.661-159.338 86.774-5.565 1.97-7.221 2.415-12.713.337-68.798-26.024-121.658-52.158-158.026-85.312-5.265-4.8-7.514-9.51-6.075-15.45l4.65-19.2c2.989-12.345-5.939-22.726-17.025-22.932l-18.169-.337c-6.395-.119-12.206-5.807-12.206-12.207v-43.725c0-7.343 6.012-13.35 13.35-13.35h36.9l.005-25.13 4.496.004c19.009 6.258 38.238 12.277 59.457 16.123h14.644l-.149-64.876c-.013-5.866 4.438-10.313 9.03-10.313h4.18c.167-1.775.318-3.663.684-5.437h-7.18c-5.182 0-11.513 6.144-11.513 10.65l-.02 69.074h-3.806l-.15-69.151c-.013-6.327 7.383-14.287 14.363-14.287h9.113c2.047-8.51 7.08-16.093 14.926-22.802l.038 25.65c.016 10.635.225 16.732 1.95 24.712.12.554 1.179.316 1.275-.3 1.025-7.395.949-15.044.939-22.65l-.083-63.064c-.01-7.697 3.63-15.857 11.119-23.15z" style="fill:#191814;fill-rule:evenodd"></path><path d="M283.979 365.889c-4.076 1.43-7.879 3.65-11.39 6.724l-19.907-93.818h-9.545l26.447 96.783a34.7 34.7 0 0 0-8.89 23.243c0 9.617 3.898 18.324 10.2 24.626s15.009 10.2 24.625 10.2c9.617 0 18.324-3.898 24.626-10.2s10.2-15.01 10.2-24.626-3.134-17.177-9.173-23.554l26.456-96.467-74.87.009zm11.54 2.358c-8.443 0-16.086 3.423-21.619 8.955-5.533 5.533-8.955 13.177-8.955 21.62 0 8.442 3.422 16.086 8.955 21.618 5.533 5.533 13.176 8.955 21.62 8.955 8.442 0 16.086-3.422 21.618-8.955 5.533-5.532 8.955-13.176 8.955-21.619s-3.422-16.086-8.955-21.619c-5.532-5.532-13.176-8.955-21.619-8.955M268.5 238.18h5.278l-.023 9.9-19.35 22.687h-9.263l23.372-24.375zM281.399 238.18l.005 10.012-8.655 22.631h72.922l-23.278-23.006v-9.635z" style="fill:#1b1918;fill-rule:evenodd"></path><path d="m136.089 655.539-2.155 7.992c-.318 1.18-.38 2.261-.09 3.25.291.99.946 1.937 2.062 2.858 22.565 18.607 47.455 34.755 73.84 48.762 26.399 14.016 54.272 25.88 82.793 35.918 1.014.356 1.991.552 2.937.573a7.5 7.5 0 0 0 2.747-.457c29.136-10.642 57.033-22.33 83.195-36.03 26.15-13.692 50.577-29.399 72.786-48.084 1.263-1.063 2.19-2.164 2.717-3.254.465-.96.61-1.909.384-2.804l-2.309-9.164c-31.243-5.818-59.276-9.202-85.531-11.165-26.477-1.98-51.106-2.516-75.385-2.646-27.156-.145-54.029.857-80.53 3.194-26.265 2.316-52.116 5.942-77.461 11.057m-4.206 7.444 2.325-8.625.17-.633.648-.131c25.676-5.21 51.82-8.89 78.341-11.23 26.509-2.337 53.448-3.34 80.721-3.194 24.37.13 49.067.667 75.534 2.647 26.5 1.98 54.82 5.409 86.433 11.321l.668.125.167.66 2.475 9.825c.351 1.397.15 2.83-.534 4.24-.656 1.356-1.769 2.693-3.266 3.952-22.338 18.794-46.89 34.584-73.167 48.343-26.264 13.752-54.244 25.477-83.452 36.145a9.5 9.5 0 0 1-3.512.581c-1.18-.026-2.376-.261-3.592-.69-28.645-10.08-56.62-21.986-83.093-36.04-26.486-14.062-51.492-30.288-74.188-49.004-1.467-1.21-2.342-2.503-2.751-3.897-.41-1.397-.343-2.852.073-4.396" style="fill:#8c652c;fill-rule:evenodd"></path><path d="m265.388 641.575-.084 102.505" style="fill:none"></path><path d="m326.616 641.575-.084 102.505M397.766 646.548l-.084 62.961M260.57 641.575l-.085 100.603M199.057 645.837l-.084 67.09M194.238 646.4l-.084 63.451" style="fill:none;stroke:#1b1918;stroke-width:.21600001;stroke-linecap:butt;stroke-linejoin:miter;stroke-dasharray:none"></path><path d="m194.154 709.768.084-63.336c-19.644 2.24-39.04 5.25-58.15 9.107l-2.154 7.992c-.318 1.18-.38 2.261-.09 3.25.291.99.946 1.937 2.062 2.858 18.067 14.898 37.626 28.22 58.248 40.13M397.766 646.563l-.084 62.929c20.061-11.517 38.983-24.415 56.522-39.171 1.263-1.063 2.19-2.164 2.717-3.254.465-.96.61-1.909.384-2.804l-2.309-9.165c-20.3-3.78-39.247-6.532-57.23-8.535" style="fill:#2c2842;fill-rule:evenodd"></path><path d="m198.973 712.515.084-66.616q-2.411.259-4.819.533l-.084 63.336q2.4 1.386 4.82 2.747" style="fill:#b7924c;fill-rule:evenodd" data-source="https://football-logos.cc"></path><path d="m326.616 641.788-.084 101.78c18.977-7.675 37.323-15.965 54.886-25.162a479 479 0 0 0 16.263-8.914l.085-62.929a782 782 0 0 0-28.301-2.629c-14.772-1.105-28.968-1.76-42.849-2.146M260.485 742.122l.084-100.413c-15.789.49-31.468 1.402-47.019 2.773q-7.267.641-14.493 1.417l-.084 66.616a506 506 0 0 0 10.773 5.886c16.41 8.712 33.388 16.593 50.739 23.72" style="fill:#fff;fill-rule:evenodd"></path><path d="m260.571 641.655-.089 100.574c1.604.659 3.217 1.262 4.827 1.908l.079-102.637c-1.607.039-3.211.105-4.817.155" style="fill:#b7924c;fill-rule:evenodd"></path><path d="M194.238 646.432h.004zm-.084 63.336c-20.622-11.909-40.18-25.23-58.247-40.13-1.116-.92-1.772-1.866-2.062-2.858-.29-.988-.229-2.068.09-3.25l2.154-7.991c19.108-3.856 38.505-6.866 58.15-9.107zm98.385 44.55a675 675 0 0 1-27.235-10.24l-.03-.012a635 635 0 0 1-4.759-1.932l-.03-.012c-17.35-7.128-34.33-15.009-50.74-23.72a506 506 0 0 1-10.772-5.887l.084-66.616q7.225-.777 14.493-1.417c15.551-1.371 31.23-2.283 47.02-2.773q2.406-.075 4.818-.134a919 919 0 0 1 28.692-.287c10.734.057 21.536.194 32.536.5 13.881.386 28.077 1.041 42.849 2.146 9.195.688 18.608 1.55 28.301 2.63 17.983 2.002 36.93 4.755 57.23 8.535l2.309 9.164c.225.895.081 1.844-.384 2.804-.527 1.09-1.454 2.19-2.717 3.254-17.539 14.756-36.46 27.654-56.523 39.17a479 479 0 0 1-16.263 8.915c-17.563 9.197-35.909 17.487-54.886 25.163a888 888 0 0 1-28.309 10.866 7.5 7.5 0 0 1-2.747.457c-.946-.02-1.923-.217-2.937-.573M134.38 653.726l-.17.632-2.326 8.625c-.415 1.544-.483 2.999-.073 4.396.409 1.394 1.284 2.687 2.751 3.897 22.696 18.716 47.702 34.942 74.188 49.003 26.472 14.055 54.448 25.96 83.093 36.042 1.216.428 2.412.663 3.592.69a9.5 9.5 0 0 0 3.512-.582c29.209-10.668 57.188-22.393 83.453-36.145 26.276-13.76 50.828-29.549 73.167-48.343 1.496-1.26 2.61-2.596 3.265-3.951.683-1.411.885-2.844.534-4.24l-2.475-9.826-.167-.66-.668-.125c-31.614-5.912-59.932-9.34-86.433-11.321-26.467-1.98-51.164-2.516-75.534-2.647-27.273-.145-54.212.857-80.72 3.195-26.522 2.339-52.666 6.02-78.342 11.229z" style="fill:#b7924c;fill-rule:evenodd"></path><path d="M330.531 641.9c-.307-.01-.613-.015-.92-.024.307.009.614.014.92.024m-3.915-.147-.086 101.835c1.312-.531 2.623-1 3.929-1.536l.073-100.152c-1.309-.041-2.613-.111-3.916-.147M397.766 646.496c-1.288-.143-2.561-.325-3.848-.462 1.283.137 2.556.32 3.848.462m-.065 63.07.07-63.064c-1.293-.144-2.58-.298-3.862-.435l-.042 65.71c1.275-.716 2.566-1.485 3.834-2.21" style="fill:#b7924c;fill-rule:evenodd"></path><path d="m265.385 641.566-.084 102.503a675 675 0 0 0 27.235 10.24c1.014.356 1.991.553 2.937.573.93.021 1.845-.127 2.748-.457a888 888 0 0 0 28.308-10.866l.084-101.78c-11-.307-21.802-.444-32.536-.5a919 919 0 0 0-28.692.287" style="fill:#0c498f;fill-rule:evenodd"></path><path d="M243.35 499.194h7.04V542.5h-8.922v-32.208l-5.554 5.418-4.43-6.729zm21.673 42.411.583-7.457q1.59.889 3.276 1.404c1.133.343 2.132.52 3.005.52 3.151 0 5.47-.926 6.968-2.777 1.487-1.85 2.382-4.898 2.662-9.141a9.3 9.3 0 0 1-3.182 2.142c-1.217.49-2.548.728-4.014.728-3.349 0-6.074-1.268-8.185-3.806-2.1-2.538-3.151-5.845-3.151-9.9 0-4.493 1.206-8.092 3.609-10.806 2.412-2.715 5.595-4.067 9.557-4.067 4.898 0 8.56 1.779 10.972 5.346 2.423 3.567 3.63 8.954 3.63 16.182 0 7.52-1.436 13.26-4.296 17.243-2.87 3.983-7.01 5.97-12.438 5.97-1.445 0-2.922-.136-4.451-.406a33 33 0 0 1-4.545-1.175m11.742-36.233c-1.467 0-2.58.603-3.339 1.799s-1.144 2.943-1.144 5.252c0 2.475.364 4.337 1.082 5.574s1.81 1.851 3.276 1.851q2.294 0 3.432-1.747c.76-1.164 1.144-2.932 1.144-5.304 0-2.537-.364-4.41-1.082-5.616q-1.09-1.81-3.37-1.81m32.083-6.178h7.041V542.5h-8.923v-32.208l-5.554 5.418-4.43-6.728zm35.485 10.088-9.287 17.867h9.287zm-1.768-10.088h10.441v27.955h4.618v6.802h-4.618v8.548h-8.923v-8.548h-15.85v-8.539z" style="fill:#926b2c;fill-rule:evenodd"></path><text x="205.271" y="637.747">
        <tspan font-size="31.5" style="font-size:31.5px;font-family:Arial;fill:#fff">Z</tspan>
      </text><text x="230.584" y="636.216">
        <tspan font-size="31.5" style="font-size:31.5px;font-family:Arial;fill:#fff">A</tspan>
      </text><text x="259.531" y="634.951">
        <tspan font-size="31.5" style="font-size:31.5px;font-family:Arial;fill:#fff">G</tspan>
      </text><text x="292.999" y="634.576">
        <tspan font-size="31.5" style="font-size:31.5px;font-family:Arial;fill:#fff">R</tspan>
      </text><text x="323.849" y="635.841">
        <tspan font-size="31.5" style="font-size:31.5px;font-family:Arial;fill:#fff">E</tspan>
      </text><text x="352.682" y="636.872">
        <tspan font-size="31.5" style="font-size:31.5px;font-family:Arial;fill:#fff">B</tspan>
      </text><path d="M94.382 606.313v-26.22c0-4.583 1.231-8.258 3.703-11.014 2.462-2.756 5.748-4.14 9.85-4.14 4.091 0 7.214 1.344 9.378 4.019s3.25 6.532 3.25 11.55v25.805h-10.755v-25.805c0-2.423-.788-3.635-2.372-3.635-1.53 0-2.299 1.212-2.299 3.635v25.805zm64.167-40.404L149 584.243l9.496 22.07H146.4L138.207 584l9.28-18.092zm-20.668 0v40.404h-10.754v-40.404zm37.1 0h10.754v24.008c0 1.878.272 3.12.806 3.746.543.626 1.611.929 3.205.929h.552v11.72h-2.86c-3.93 0-6.98-1.281-9.171-3.836q-3.287-3.83-3.287-10.63zm36.139-.97c5.123 0 9.523 2.08 13.19 6.24 3.666 4.17 5.504 9.147 5.504 14.942 0 5.906-1.847 10.914-5.54 15.033-3.694 4.129-8.184 6.189-13.471 6.189q-7.876 0-13.444-6.21c-3.712-4.149-5.567-9.146-5.567-15.012 0-5.916 1.864-10.924 5.603-15.023 3.74-4.109 8.32-6.158 13.725-6.158m-.317 11.934c-2.21 0-4.092.909-5.65 2.716-1.557 1.807-2.335 3.998-2.335 6.552s.778 4.745 2.345 6.552c1.566 1.808 3.45 2.716 5.64 2.716 2.227 0 4.119-.898 5.667-2.706 1.548-1.796 2.317-3.987 2.317-6.562 0-2.574-.769-4.765-2.317-6.562-1.548-1.807-3.44-2.706-5.667-2.706m55.512-10.964-9.55 18.334 9.496 22.07h-12.095L245.973 584l9.28-18.092zm-20.667 0v40.404h-10.755v-40.404zm41.435-.97c5.124 0 9.524 2.08 13.19 6.24 3.666 4.17 5.504 9.147 5.504 14.942 0 5.906-1.847 10.914-5.54 15.033-3.694 4.129-8.184 6.189-13.47 6.189q-7.877 0-13.445-6.21c-3.711-4.149-5.567-9.146-5.567-15.012 0-5.916 1.865-10.924 5.604-15.023 3.739-4.109 8.32-6.158 13.724-6.158m-.317 11.934c-2.209 0-4.092.909-5.65 2.716-1.556 1.807-2.335 3.998-2.335 6.552s.779 4.745 2.345 6.552c1.566 1.808 3.45 2.716 5.64 2.716 2.227 0 4.12-.898 5.667-2.706 1.548-1.796 2.318-3.987 2.318-6.562 0-2.574-.77-4.765-2.318-6.562-1.548-1.807-3.44-2.706-5.667-2.706m23.33 29.44v-29.117c0-3.604.977-6.542 2.942-8.834q2.944-3.422 7.64-3.422c3.712 0 6.564 1.898 8.564 5.684 1.222-2.05 2.535-3.504 3.93-4.372 1.403-.878 3.123-1.312 5.178-1.312q4.888 0 7.495 3.422c1.73 2.292 2.599 5.573 2.599 9.874v28.077h-10.755v-26.28c0-1.272-.09-2.12-.28-2.534s-.571-.626-1.15-.626c-1.078 0-1.612.99-1.612 2.958v26.482h-10.755v-26.28c0-1.252-.1-2.1-.29-2.524-.199-.424-.579-.636-1.15-.636-1.067 0-1.602 1.05-1.602 3.16v26.28zm62.021-41.373c5.124 0 9.524 2.08 13.19 6.24 3.667 4.169 5.504 9.146 5.504 14.941 0 5.906-1.846 10.914-5.54 15.033-3.694 4.129-8.184 6.189-13.47 6.189q-7.878 0-13.444-6.21c-3.712-4.149-5.568-9.146-5.568-15.012 0-5.916 1.865-10.924 5.604-15.023 3.739-4.109 8.32-6.158 13.724-6.158m-.317 11.933c-2.209 0-4.092.909-5.649 2.716s-2.336 3.998-2.336 6.552.78 4.745 2.345 6.552c1.566 1.808 3.45 2.716 5.64 2.716 2.227 0 4.12-.898 5.667-2.706 1.548-1.796 2.318-3.987 2.318-6.562 0-2.574-.77-4.765-2.318-6.562-1.548-1.807-3.44-2.706-5.667-2.706m39.842.666v28.774h-10.754V577.54h-8.257v-11.631h27.213v11.63zm22.959-11.63v40.404h-10.755v-40.404zm33.26 0-15.779 42.706-15.67-42.706h12.465l3.313 12.62 3.658-12.62zm15.463 20.111v10.661h-3.097v9.632h-10.754v-25.694c0-4.957 1.213-8.814 3.648-11.56q3.653-4.12 10.266-4.12c4.255 0 7.396 1.243 9.433 3.736s3.051 6.33 3.051 11.53v26.108h-10.755v-25.31c0-1.556-.172-2.626-.507-3.231-.344-.596-.95-.899-1.829-.899-1.702 0-2.553 1.373-2.553 4.13v5.017z" style="fill:#926b2c;fill-rule:evenodd"></path><path d="M194.22 646.47c-19.645 2.24-39.042 5.25-58.15 9.107l-2.154 7.991q-.197.72-.255 1.392l-.008.098a5 5 0 0 0 .172 1.76q.066.22.151.431c.338.828.946 1.625 1.882 2.403l.03.024c18.066 14.9 37.624 28.22 58.247 40.13zM397.752 646.601l-.07 62.917c19.574-11.244 38.283-23.924 55.702-38.488l.8-.671c1.018-.856 1.816-1.736 2.365-2.616q.198-.32.353-.638c.465-.96.61-1.91.384-2.804l-2.309-9.165-.045-.009c-20.101-3.741-38.873-6.475-56.697-8.472zM99.245 321.549C123.23 254.572 166.03 204.07 224.68 176.51a71 71 0 0 1-3.993-12.634c-68.052 32.888-107.83 88.155-129.836 142.481-31.487 77.73-30.658 160.076-6.151 236.514 3.51-1.84 7.868-2.468 12.715-2.475-22.846-69.603-25.458-142.642 1.831-218.848" style="fill:#0c498f;fill-rule:evenodd"></path><path d="M84.699 542.872c-24.507-76.438-25.336-158.785 6.15-236.514 22.007-54.326 61.785-109.593 129.84-142.482a67 67 0 0 1-.817-4.597C108.99 209.169 62.93 329.588 62.702 432.748c-.09 40.678 5.832 76.607 18.277 112.876a14.4 14.4 0 0 1 3.72-2.752" style="fill:#886639;fill-rule:evenodd"></path><path d="M99.245 321.549c-27.289 76.206-24.677 149.245-1.831 218.846 1.568-.003 3.188.06 4.846.167-10.885-29.412-17.83-64.823-17.905-107.063-.202-114.194 59.966-218.644 142.172-252.94a77 77 0 0 1-1.848-4.048c-58.649 27.56-101.45 78.06-125.434 145.038" style="fill:#886639;fill-rule:evenodd"></path><path d="M494.074 320.699C470.09 253.72 422.34 201.12 363.691 173.56a71 71 0 0 0 3.992-12.634c68.052 32.889 112.781 90.256 134.787 144.582 31.485 77.728 31.473 162.832 6.966 239.27-1.194-.837-6.884-4.324-11.73-4.331 22.845-69.604 23.657-143.543-3.632-219.748" style="fill:#0c498f;fill-rule:evenodd"></path><path d="M509.436 544.796c24.507-76.438 24.519-161.56-6.966-239.288-22.006-54.325-66.735-111.693-134.79-144.582.322-1.505.297-3.188.517-4.748 112.707 49.77 166.541 172.27 162.42 275.72-1.618 40.645-5.213 80.244-17.658 116.513-.964-1.333-2.37-2.793-3.523-3.615" style="fill:#886639;fill-rule:evenodd"></path><path d="M494.074 320.699c27.29 76.205 26.478 150.144 3.632 219.746a74 74 0 0 0-4.847.166c10.886-29.411 16.03-65.722 16.105-107.962.202-114.194-64.916-220.744-147.122-255.04a77 77 0 0 0 1.849-4.049c58.648 27.56 106.399 80.161 130.383 147.139" style="fill:#886639;fill-rule:evenodd"></path><path d="M222.433 195.212c-39.922 20.908-66.778 49.89-86.7 82.8l.15 237.075h2.326c17.515 5.42 35.056 10.79 53.176 15l-.15-57.675c-.028-10.838 10.13-25.395 26.85-25.425 1.174-2.69 2.677-5.259 4.65-7.65z" style="fill:none"></path><path d="m142.379 516.375-.225-236.212c20.034-30.941 41.224-55.554 73.65-73.687l-.062 240.613" style="fill:none"></path><path d="m142.379 516.375-.225-236.212c20.034-30.941 41.224-55.554 73.65-73.687l-.062 240.612q1.149-.099 2.343-.1c1.174-2.692 2.677-5.26 4.65-7.65l-.302-244.126c-39.922 20.908-66.778 49.89-86.7 82.8l.15 237.075h2.326q2.085.645 4.17 1.288" style="fill:#886639;fill-rule:evenodd"></path><path d="m142.154 280.163.225 236.213c16.132 4.977 32.323 9.835 49.006 13.711l-.15-57.675c-.027-10.322 9.185-24.017 24.507-25.324l.062-240.612c-32.426 18.133-53.616 42.746-73.65 73.687" style="fill:#0c498f;fill-rule:evenodd"></path><path d="m448.53 516.375.226-236.212c-20.034-30.941-41.224-55.554-73.65-73.687l.062 240.612q-1.149-.099-2.344-.1c-1.173-2.692-2.676-5.26-4.65-7.65l.303-244.126c39.922 20.908 66.778 49.89 86.7 82.8l-.151 237.075H452.7q-2.085.645-4.17 1.288" style="fill:#886639;fill-rule:evenodd"></path><path d="m448.756 280.163-.225 236.213c-16.132 4.977-32.324 9.835-49.006 13.711l.15-57.675c.026-10.322-9.186-24.017-24.507-25.324l-.062-240.612c32.426 18.133 53.616 42.746 73.65 73.687" style="fill:#0c498f;fill-rule:evenodd" data-source="https://football-logos.cc"></path><!-- source: https://football-logos.cc --></svg>