<svg xmlns="http://www.w3.org/2000/svg" xml:space="preserve" viewBox="18.9 24.86 755.91 745.09"><!-- Source: https://football-logos.cc --><path d="M2976.38 5773.55c1565.27 0 2834.64-1251.22 2834.64-2794.1S4541.65 185.348 2976.38 185.348 141.73 1436.57 141.73 2979.45s1269.38 2794.1 2834.65 2794.1" style="fill:#231f20;fill-opacity:1;fill-rule:evenodd;stroke:none" transform="matrix(.13333 0 0 -.13333 0 794.667)" data-source="https://football-logos.cc"></path><path d="M2976.38 5718.47c1534.85 0 2779.56-1226.56 2779.56-2739.02S4511.23 240.43 2976.38 240.43 196.816 1466.99 196.816 2979.45 1441.53 5718.47 2976.38 5718.47" style="fill:#fff;fill-opacity:1;fill-rule:evenodd;stroke:none" transform="matrix(.13333 0 0 -.13333 0 794.667)"></path><path d="M3368 5484.92c192.32-24.65 377.63-68.43 553.64-129.73l-356.36-69.77 169.15-221.08 528.25 144.71c124.41-64.09 242.53-137.64 353.4-219.72l-690.45-237.08 186.81-249.34-1223.3-501.11-207.1 324.43-1138.61-389.82 235-395.15-936.379-385.44-199.309 471.83-224.426-76.38c29.086 124.64 67.461 245.35 114.497 361.45l110.429-266.23 870.498 298.3-247.38 410.97-602.891-170.53c112.726 202 253.14 386.39 416.511 549.12l205-359.03 1167.25 326.69-203.42 331.37-1071.3-206.8c257.91 231.13 565.06 411.9 904.88 529.04l189.15-305.23 1243.55 235.84zm-881.39-788.33 218.29-348.83 1208.53 414.1-202.54 274.56z" style="fill:#ed1b29;fill-opacity:1;fill-rule:evenodd;stroke:none" transform="matrix(.13333 0 0 -.13333 0 794.667)"></path><path d="M5596.35 2615.64C5416.53 1349.23 4311.95 374.203 2976.38 374.203c-598.19 0-1150 195.68-1593.22 525.422z" style="fill:#2e3292;fill-opacity:1;fill-rule:evenodd;stroke:none" transform="matrix(.13333 0 0 -.13333 0 794.667)" data-source="https://football-logos.cc"></path><path d="M1505.85 3277.16c88.54-8.4 171.66 4.23 243.84 59.27 57.88 44.14 98.82 105.7 145.1 160.91 50.36 60.07 103.56 116.35 161.6 169.07 35.85 32.54 88.36 104.22 139.44 106.39 77.6 3.31 147.51 12.33 224.68-5.26 147.92-33.73 276.85-122.95 409.9-192.57 26.08 59.03 54.66 116.23 98.27 164.74 26.58 29.59 56.08 56.38 83.4 85.26 15.77 16.68 29.62 35.14 43.49 53.39 37.56 49.53 87.53 120.35 158.87 110.44 102-14.17 172.61-48.79 257.95-104.07 50.21-32.52 99.49-66.57 147.11-102.78 59.67 101.99 124.78 200.79 179.8 305.44 33.77 64.22 61.43 158.35 150.1 158.46 96.61.13 162.1-9 244.35-63.35 22.52-14.88 42.92-32.31 62.54-50.73 52.72 53.83 108.2 104.03 153.87 164.5 40.01 52.96 95.97 141.62 172.64 134.14 85-8.3 106.77-96.12 169.91-119.11 63.96-23.28 111.63-61.78 161.22-107.08 60.2-55.01 131.27-129.65 205.94-162.94 104.29-46.51 242.86-48.54 355.47-43.23 48.82 2.26 51.42-52.76 2.59-55.02-122.33-5.76-267.17-2.62-380.51 47.93-82.44 36.76-154.54 112.21-220.64 172.59-43.81 40.03-86.35 75.41-142.91 95.99-59.51 21.67-107.67 111.3-156.42 116.04-44.5 4.34-99.6-81.1-123.34-112.51-47.18-62.46-104.03-114.2-158.43-169.8 27.45-27.28 55.06-54.36 86.66-76.56 71.09-49.91 90.04-104.23 134.55-173.21 8.5-13.18 17.84-25.81 28.67-37.18 39.28-41.21 95.59-75.5 145.23-103.01 179.27-99.29 465.6-146.89 669.57-154.51 51.11-1.9 101.38-9.95 151.32-20.59 26.28-5.6 60.62-16.33 87-16.69 48.85-.67 48.09-55.76-.79-55.09-31.13.45-67.04 11.39-97.69 17.91-46.82 9.98-93.98 17.63-141.9 19.41-213.14 7.98-506.82 57.6-694.19 161.39-54.94 30.42-114.93 67.55-158.43 113.18-62.16 65.22-76.12 147.93-154.98 203.32-32.81 23.04-61.97 51.62-90.64 79.5-30.13 29.31-61.55 62.2-96.69 85.4-72.78 48.1-128.62 54.35-213.89 54.23-9.23-.02-17.66-1.99-25.65-6.67-31.99-18.76-58.4-89.3-75.77-122.34-55.46-105.49-121.04-205.08-181.15-307.87l-3.64-6.23c9.51-7.69 18.94-15.48 28.3-23.37 87.65-74.01 180.04-155.77 283.52-206.58 44.14-21.67 21.57-71.92-24.27-49.44-108.11 53.1-203.27 136.66-294.79 213.93-67.46 56.96-139.51 108.32-213.58 156.29-78.06 50.56-142.18 82.77-235.59 95.76-4.68.64-9.33.5-13.95-.43-34.45-6.94-73.03-61.8-93.46-88.74-15.08-19.87-30.19-39.83-47.36-57.97-27-28.53-56.18-54.98-82.45-84.21-41.7-46.4-68.41-103.27-93.12-159.93 28.94-33.01 32.96-77.07 65.1-96.75 71.39-43.73 150.18-74.06 220.79-119.24 43.05-27.5 11.79-72.88-29.68-46.39-70.25 44.93-148.78 75.11-219.88 118.67-51.95 31.81-56.02 100.29-92.77 119.05-132.61 67.67-265.32 162.13-411.81 195.52-70.81 16.14-138.72 6.99-210.09 3.94-21.21-.91-86.32-75.39-104.75-92.13-56.2-51.04-107.67-105.51-156.43-163.68-49.57-59.13-91.73-121.93-153.91-169.33-83.36-63.58-179.92-80.05-282.45-70.31-48.94 4.62-45.64 59.66 5.21 54.84" style="fill:#231f20;fill-opacity:1;fill-rule:evenodd;stroke:none" transform="matrix(.13333 0 0 -.13333 0 794.667)"></path><path d="M851.328 2573.87v495.06h97.285l202.637-330.57v330.57h92.91v-495.06h-100.4l-199.522 322.86v-322.86zM1337.29 2573.87v495.06h99.94v-219.8l201.95 219.8h134.4l-186.38-192.84 196.52-302.22h-129.33l-136.01 232.38-81.15-82.77v-149.61zM2285.91 2573.87v90.14l260.05 321.13h-230.65v83.79h362.4v-77.68l-271.23-333.93h281.72v-83.45zM3232.38 2573.87h-108.82l-43.22 112.5h-197.91l-40.81-112.5h-106.04l192.83 495.06h105.71zm-184.09 195.83-68.23 183.74-66.86-183.74zM3474.2 2755.87v83.46h215.43v-197.22c-20.98-20.29-51.3-38.16-91.06-53.6-39.77-15.33-80-23.05-120.68-23.05-51.76 0-96.94 10.83-135.44 32.5-38.5 21.78-67.43 52.79-86.8 93.25-19.36 40.45-29.04 84.37-29.04 131.86 0 51.52 10.84 97.4 32.39 137.52 21.67 40 53.25 70.77 94.97 92.09 31.7 16.48 71.24 24.67 118.5 24.67 61.44 0 109.5-12.91 143.96-38.62 34.59-25.82 56.84-61.43 66.74-106.96l-99.24-18.56c-7.03 24.32-20.17 43.57-39.42 57.63s-43.22 21.1-72.04 21.1c-43.68 0-78.38-13.84-104.2-41.49-25.82-27.79-38.62-68.82-38.62-123.34 0-58.68 13.03-102.82 39.2-132.21 26.04-29.4 60.28-44.03 102.58-44.03 20.98 0 41.96 4.14 63.05 12.33 20.98 8.18 39.07 18.21 54.18 29.85v62.82zM3740.81 2818.35c0 50.49 7.49 92.79 22.59 127.02 11.3 25.13 26.63 47.83 46.11 67.89 19.48 19.94 40.8 34.81 63.97 44.49 30.89 13.14 66.4 19.6 106.73 19.6 72.97 0 131.3-22.6 175.1-67.9 43.8-45.18 65.69-108.11 65.69-188.68 0-79.99-21.78-142.47-65.23-187.66-43.46-45.06-101.55-67.65-174.17-67.65-73.65 0-132.21 22.47-175.67 67.31-43.45 44.95-65.12 106.85-65.12 185.58m102.93 3.34c0-56.01 13.03-98.56 38.85-127.48 25.93-28.94 58.79-43.34 98.66-43.34 39.77 0 72.51 14.29 98.1 43.1 25.47 28.71 38.26 71.71 38.26 129.1 0 56.71-12.45 99.02-37.22 127.03-24.9 27.89-57.98 41.84-99.14 41.84-41.26 0-74.45-14.18-99.7-42.42-25.13-28.24-37.81-70.78-37.81-127.83M4264.7 2573.87v495.06h210.46c52.91 0 91.29-4.49 115.27-13.36 23.97-8.88 43.22-24.68 57.63-47.38 14.41-22.82 21.56-48.76 21.56-78.04 0-37.11-10.95-67.88-32.74-92.09-21.79-24.1-54.52-39.42-97.97-45.65 21.66-12.67 39.53-26.51 53.6-41.61 14.06-15.1 32.96-41.84 56.82-80.34l60.52-96.59h-119.53l-72.28 107.77c-25.7 38.5-43.22 62.71-52.67 72.74-9.46 10.02-19.49 16.82-30.09 20.63-10.6 3.69-27.32 5.53-50.37 5.53h-20.17v-206.67zm100.04 285.74h73.89c47.94 0 77.92 1.96 89.9 6 11.88 4.03 21.21 11.06 28.01 20.97 6.68 9.92 10.15 22.25 10.15 37.12 0 16.71-4.5 30.08-13.37 40.34-8.88 10.26-21.44 16.72-37.69 19.48-8.08 1.04-32.4 1.62-72.97 1.62h-77.92zM5231.08 2573.87h-108.81l-43.22 112.5h-197.91l-40.81-112.5h-106.04l192.84 495.06h105.69zM5047 2769.7l-68.23 183.74-66.86-183.74zM837.168 2404.33h104.539v-268.1c0-42.53 1.32-70.2 3.856-82.76 4.46-20.28 15.183-36.54 31.953-48.76 16.871-12.33 39.904-18.44 69.084-18.44 29.65 0 52.08 5.76 67.16 17.41 15.07 11.52 24.1 25.82 27.12 42.64 3.14 16.95 4.58 44.95 4.58 84.15v273.86h104.53v-260.04c0-59.47-2.77-101.43-8.43-125.98-5.67-24.55-16.04-45.18-31.24-62.12-15.19-16.83-35.55-30.32-60.87-40.35-25.45-10.02-58.72-14.98-99.71-14.98-49.44 0-86.931 5.41-112.494 16.37-25.562 10.95-45.699 25.13-60.523 42.53-14.832 17.41-24.598 35.74-29.301 54.87-6.883 28.35-10.254 70.19-10.254 125.64zM1332.34 1909.27v495.06h101.75l211.96-330.57v330.57h97.18v-495.06h-105.02l-208.69 322.86v-322.86zM1824.87 1909.27v495.06h383.88v-83.79H1929.4V2210.8h259.94v-83.33H1929.4v-134.75h289.24v-83.45zM2251.91 2070.3l101.77 9.57c6.02-32.74 18.44-56.72 37.25-72.05 18.69-15.21 43.88-22.93 75.71-22.93 33.63 0 59.08 6.8 76.09 20.51 17.11 13.61 25.67 29.51 25.67 47.73 0 11.75-3.62 21.67-10.86 29.85-7.1 8.29-19.64 15.44-37.61 21.44-12.17 4.14-40.15 11.29-83.68 21.67-56.06 13.25-95.36 29.62-117.91 48.98-31.83 27.2-47.75 60.4-47.75 99.59 0 25.25 7.48 48.75 22.44 70.77 14.94 21.9 36.53 38.62 64.62 50.14 28.22 11.41 62.09 17.17 101.88 17.17 65.1 0 113.93-13.6 146.85-40.79 32.8-27.33 50.04-63.63 51.73-109.16l-104.54-4.38c-4.46 25.47-14.11 43.8-28.82 54.86-14.7 11.19-36.77 16.71-66.19 16.71-30.38 0-54.25-5.87-71.37-17.85-11.1-7.61-16.64-17.88-16.64-30.67 0-11.76 5.18-21.78 15.55-30.08 13.15-10.6 45.22-21.68 96.09-33.08 50.89-11.53 88.5-23.4 112.86-35.62 24.35-12.33 43.4-29.04 57.27-50.37 13.73-21.32 20.61-47.61 20.61-78.84 0-28.36-8.2-54.98-24.72-79.65-16.51-24.78-39.78-43.22-69.92-55.21-30.14-12.11-67.75-18.09-112.74-18.09-65.46 0-115.74 14.4-150.83 43.33-35.08 28.94-56.06 71.12-62.81 126.45m91.88 464.05h80.17l38.1-50.25 40.99 50.25h79.82l-73.06-99.59h-91.88zM2728.75 1909.27v495.06h104.54v-495.06zM3235.38 2091.27l101.27-30.65c-15.55-54.06-41.35-94.18-77.52-120.45-36.06-26.17-81.99-39.31-137.57-39.31-68.73 0-125.28 22.48-169.52 67.31-44.25 44.96-66.43 106.39-66.43 184.2 0 82.41 22.3 146.38 66.79 192.02 44.49 45.54 102.96 68.35 175.55 68.35 63.3 0 114.77-17.86 154.32-53.71 23.63-21.09 41.24-51.52 53.05-91.17l-103.57-23.63c-6.02 25.71-18.81 46-38.34 60.86-19.41 14.87-43.03 22.25-70.77 22.25-38.34 0-69.57-13.14-93.44-39.54-23.88-26.28-35.81-68.92-35.81-127.94 0-62.59 11.7-107.2 35.33-133.71 23.51-26.63 54.13-39.88 91.74-39.88 27.86 0 51.73 8.41 71.75 25.36 20 16.83 34.36 43.46 43.17 79.64m-180.13 341.42 48.7 100.97h111.29l-97.19-100.97z" style="fill:#231f20;fill-opacity:1;fill-rule:nonzero;stroke:none" transform="matrix(.13333 0 0 -.13333 0 794.667)"></path><path d="M2023 3076.22h81.02v-72.03l-15.74-87.76h-47.29l-17.99 85.51zM5257.13 3076.22h81.02v-72.03l-15.74-87.76h-47.29l-17.99 85.51zM2196.12 3076.22h81.01v-72.03l-15.74-87.76h-47.28l-17.99 85.51zM5430.25 3076.22h81.02v-72.03l-15.74-87.76h-47.3l-17.98 85.51z" style="fill:#231f20;fill-opacity:1;fill-rule:evenodd;stroke:none" transform="matrix(.13333 0 0 -.13333 0 794.667)" data-source="https://football-logos.cc"></path><!-- source: https://football-logos.cc --></svg>