<svg xmlns="http://www.w3.org/2000/svg" xml:space="preserve" viewBox="0 0 154.25 226.77"><!-- Source: https://football-logos.cc --><defs data-source="https://football-logos.cc"><clipPath id="a" clipPathUnits="userSpaceOnUse"><path d="M0 198.43h198.43V0H0Z"></path></clipPath></defs><g clip-path="url(#a)" transform="matrix(1.33333 0 0 -1.33333 -55.164 245.673)" data-source="https://football-logos.cc"><path d="m0 0-2.567 1.913c-9.927 7.407-15.591 9.459-22.499 11.556-7.435 2.256-15.859 4.81-23.385 13.06-8.063 8.838-9.344 22.006-9.39 29.068v114.482H57.843V55.627c-.046-7.078-1.328-20.262-9.39-29.098-7.527-8.25-15.954-10.804-23.387-13.06-6.912-2.097-12.572-4.157-22.499-11.556Z" style="fill:#fff;fill-opacity:1;fill-rule:nonzero;stroke:none" transform="translate(99.214 14.176)"></path><path d="M152.635 179.699h-27.029v-26.888h27.029zM72.771 179.699H45.544v-26.888h27.227z" style="fill:#2d5da7;fill-opacity:1;fill-rule:nonzero;stroke:none"></path><path d="M125.606 179.121H72.771v-26.31h52.835z" style="fill:#fff;fill-opacity:1;fill-rule:nonzero;stroke:none"></path><path d="M0 0v-82.696c.04-6.339 1.144-18.108 8.071-25.7 6.591-7.222 14.311-9.565 21.122-11.63 7.067-2.146 13.31-4.402 23.604-12.012 10.296 7.61 16.538 9.866 23.606 12.012 6.809 2.065 14.531 4.408 21.121 11.63 6.929 7.592 8.032 19.361 8.07 25.706V0z" style="fill:#2d5da7;fill-opacity:1;fill-rule:nonzero;stroke:none" transform="translate(46.417 152.498)"></path><path d="M0 0h-.01q-.065-.031-.125-.066.07.032.135.066" style="fill:#5cb7e8;fill-opacity:1;fill-rule:nonzero;stroke:none" transform="translate(134.908 36.305)"></path><path d="M0 0a36 36 0 0 1 2.872-1.68h71.624c.972.512 1.933 1.06 2.881 1.68z" style="fill:#5cb7e8;fill-opacity:1;fill-rule:nonzero;stroke:none" transform="translate(60.402 37.985)"></path><path d="M0 0c-.492.147-.984.301-1.477.452C-.984.301-.492.147 0 0" style="fill:#5cb7e8;fill-opacity:1;fill-rule:nonzero;stroke:none" transform="translate(75.208 31.775)"></path><path d="M0 0h12.538l-.006-.004c.953.61 1.873 1.168 2.76 1.684H-2.756A76 76 0 0 0 0 0" style="fill:#5cb7e8;fill-opacity:1;fill-rule:nonzero;stroke:none" transform="translate(92.821 23.884)"></path><path d="m0 0-.008-.012z" style="fill:#5cb7e8;fill-opacity:1;fill-rule:nonzero;stroke:none" transform="translate(143.33 42.52)"></path><path d="M0 0a99 99 0 0 0 5.061-1.662h37.515c1.652.6 3.316 1.132 5.064 1.662l.06.02H-.064z" style="fill:#5cb7e8;fill-opacity:1;fill-rule:nonzero;stroke:none" transform="translate(75.272 31.755)"></path><path d="M0 0" style="fill:#5cb7e8;fill-opacity:1;fill-rule:nonzero;stroke:none" transform="translate(117.848 30.093)"></path><path d="M0 0" style="fill:#5cb7e8;fill-opacity:1;fill-rule:nonzero;stroke:none" transform="translate(53.222 44.301)"></path><path d="M0 0h105.7q.134.847.241 1.678H-.237Q-.132.846 0 0" style="fill:#5cb7e8;fill-opacity:1;fill-rule:nonzero;stroke:none" transform="translate(46.24 61.154)"></path><path d="M0 0" style="fill:#5cb7e8;fill-opacity:1;fill-rule:nonzero;stroke:none" transform="translate(143.323 42.508)"></path><path d="M0 0h102.87q.256.837.474 1.68H-.476Q-.254.837 0 0" style="fill:#5cb7e8;fill-opacity:1;fill-rule:nonzero;stroke:none" transform="translate(47.654 54.94)"></path><path d="M0 0v-18.423h-106.419V0h-.528v-83.009a65 65 0 0 1 .069-2.439L.074-85.454c.038.837.068 1.656.069 2.445V0Z" style="fill:#5cb7e8;fill-opacity:1;fill-rule:nonzero;stroke:none" transform="translate(152.491 152.811)"></path><path d="M0 0h97.733c.297.548.578 1.11.841 1.678H-.839C-.578 1.11-.295.548 0 0" style="fill:#5cb7e8;fill-opacity:1;fill-rule:nonzero;stroke:none" transform="translate(50.223 48.731)"></path><path d="M0 0c.345-.375.69-.731 1.036-1.078h88.485q.523.517 1.038 1.078c.178.197.337.4.504.6H-.506C-.333.4-.177.197 0 0" style="fill:#5cb7e8;fill-opacity:1;fill-rule:nonzero;stroke:none" transform="translate(53.81 43.598)"></path><path d="M0 0" style="fill:#5cb7e8;fill-opacity:1;fill-rule:nonzero;stroke:none" transform="translate(147.09 47.239)"></path><path d="M152.491 152.873H46.072v-18.484h106.419z" style="fill:#fff;fill-opacity:1;fill-rule:nonzero;stroke:none"></path><path d="M0 0c-9.966 1.644-20.874 2.579-20.874 2.579l-.036 16.175h2.109v3.702h-2.091v3.696h-6.301v-3.696h-3.696v3.696h-6.293v-3.696h-3.699v3.696h-6.323v-3.696h-2.09v-3.702h2.096l-.035-16.137S-60.027 1.532-69.171-.147c-8.43-1.555-17.164-3.96-18.479-4.329v-26.535h13.367v8.85a6.438 6.438 0 1 0 12.875 0v-8.85h17.002v13.491c0 5.691 4.615 10.306 10.307 10.306 5.695 0 10.306-4.615 10.306-10.306v-13.491h17.002v8.85a6.44 6.44 0 1 0 12.879 0v-8.85h13.365v26.494C17.727-4.021 8.266-1.365 0 0" style="fill:#fff;fill-opacity:1;fill-rule:nonzero;stroke:none" transform="translate(133.313 96.433)"></path><path d="M0 0v10.952h-10.735v6.62H0v10.579h6.62V17.572h10.956v-6.62H6.62V0Z" style="fill:#fff;fill-opacity:1;fill-rule:nonzero;stroke:none" transform="translate(56.086 152.122)"></path><path d="M0 0h-10.952v10.579h-5.352V0h-10.735v-5.35h10.735v-10.954h5.352V-5.35H0z" style="fill:#323235;fill-opacity:1;fill-rule:nonzero;stroke:none" transform="translate(73.024 169.06)"></path><path d="m0 0 1.228-.917L2.459 0C12.672 7.616 18.51 9.738 25.646 11.903c7.156 2.172 15.267 4.633 22.377 12.426 7.56 8.284 8.762 20.844 8.805 27.593v112.206H-54.371V51.896c.043-6.737 1.243-19.283 8.802-27.567 7.112-7.793 15.224-10.254 22.38-12.426C-16.057 9.74-10.221 7.62 0 0m1.228-3.71-2.567 1.913c-9.928 7.406-15.591 9.459-22.5 11.555-7.435 2.256-15.858 4.811-23.384 13.061-8.063 8.837-9.344 22.005-9.39 29.068v114.481H59.07V51.916c-.046-7.078-1.327-20.262-9.389-29.097-7.527-8.25-15.954-10.805-23.387-13.061-6.913-2.096-12.572-4.156-22.5-11.555Z" style="fill:#323235;fill-opacity:1;fill-rule:nonzero;stroke:none" transform="translate(97.987 17.886)"></path><path d="m0 0-8.009-1.174 4.93 6.098-4.93 6.1L0 9.848l2.768 7.339 2.766-7.339 8.005 1.176-4.93-6.1 4.93-6.098L5.534 0 2.768-7.335Z" style="fill:#fff;fill-opacity:1;fill-rule:nonzero;stroke:none" transform="translate(136.362 161.46)"></path><path d="M0 0q.053.057.108.106l-2.077 3.591-6.171.906Z" style="fill:#323235;fill-opacity:1;fill-rule:nonzero;stroke:none" transform="translate(138.206 167.21)"></path><path d="M0 0q.016.074.046.143l-8.18 4.622L-4.286 0Z" style="fill:#323235;fill-opacity:1;fill-rule:nonzero;stroke:none" transform="translate(137.915 166.635)"></path><path d="M0 0c-.018.05-.036.094-.046.148h-4.286l-3.92-4.857z" style="fill:#323235;fill-opacity:1;fill-rule:nonzero;stroke:none" transform="translate(137.96 165.989)"></path><path d="M0 0c.052-.01.098-.028.143-.044l2.019 3.497L0 9.19Z" style="fill:#323235;fill-opacity:1;fill-rule:nonzero;stroke:none" transform="translate(139.39 167.61)"></path><path d="m0 0 8.059 4.599-6.094-.892L-.114.116A.7.7 0 0 0 0 0" style="fill:#323235;fill-opacity:1;fill-rule:nonzero;stroke:none" transform="translate(140.077 167.2)"></path><path d="M0 0v9.194l-2.164-5.739L-.145-.044C-.1-.028-.052-.01 0 0" style="fill:#323235;fill-opacity:1;fill-rule:nonzero;stroke:none" transform="translate(138.891 167.61)"></path><path d="M0 0c-.008-.042-.022-.084-.034-.126l8.138-4.601L4.286 0Z" style="fill:#323235;fill-opacity:1;fill-rule:nonzero;stroke:none" transform="translate(140.362 166.137)"></path><path d="M0 0a3 3 0 0 0-.108.108l-8.026-4.586 6.058.889z" style="fill:#323235;fill-opacity:1;fill-rule:nonzero;stroke:none" transform="translate(138.313 165.451)"></path><path d="M0 0c.012-.042.028-.084.036-.129h4.286l3.904 4.826z" style="fill:#323235;fill-opacity:1;fill-rule:nonzero;stroke:none" transform="translate(140.326 166.764)"></path><path d="M0 0a2 2 0 0 0-.124-.124l2.079-3.588 6.227-.913Z" style="fill:#323235;fill-opacity:1;fill-rule:nonzero;stroke:none" transform="translate(140.087 165.575)"></path><path d="M0 0c-.052.01-.1.028-.145.044l-2.019-3.497L0-9.19Z" style="fill:#323235;fill-opacity:1;fill-rule:nonzero;stroke:none" transform="translate(138.891 165.16)"></path><path d="M0 0c-.046-.016-.092-.034-.143-.044v-9.19l2.162 5.737z" style="fill:#323235;fill-opacity:1;fill-rule:nonzero;stroke:none" transform="translate(139.533 165.204)"></path><path d="M0 0c-.44.211-.865.42-1.283.638-.676.354-1.397.524-2.21.524-.528 0-1.084-.07-1.764-.215C-6.255.721-7.038.159-7.801-.385c-.297-.213-.602-.43-.913-.623-.269-.166-.532-.341-.795-.51.526.629 1.008 1.305 1.55 1.913.054.051.1.107.152.161.705.763 1.468 1.471 2.479 1.736 1.125.297 2.01.075 2.773-.265C-1.427 1.521-.628.797.169-.082Q.087-.041 0 0m19.688 3.677c-.311.53-.815.595-1.265.191-.688-.612-.813-1.556-1.367-2.258-.379-.474-.692-1.032-1.16-1.401a7.34 7.34 0 0 0-4.573-1.61c-1.152-.012-2.115.066-3.286.791-.293.152-4.617 3.199-6.124 3.95-.514.299-2.547 1.182-3.079 1.287-1.201.387-3.1.853-5.267.351-1.434-.285-2.803-.753-4.144-1.347-1.979-.873-3.91-1.838-5.825-2.838-1.18-.616-2.326-.388-3.085.715-.747 1.083-1.737 1.882-2.873 2.523-.299.17-.508.184-.5-.295-.252.234-.21.55-.449.726-.313.223-.61.484-.779-.12-.07-.269-.295-.339-.508-.416-.425-.152-.927-.194-1.265-.457-.61-.468-1.23-.89-1.927-1.203-.25-.11-.182-.239-.102-.427.335-.809 1.028-1.018 1.795-1.032 1.439-.032 2.523-.699 3.442-1.757.833-.961 1.429-2.167 2.776-2.677-.805-.713-1.519-1.401-2.611-1.524-.335-.036-.845-.028-.911-.614 1.019-.197 1.991-.239 3.019.104.794.263 1.605.54 2.444.689.57.106 1.137.271 1.669.496.279.124.411.514.845.2.214-.156 2.94.548 3.896 1.028.263.131.502.293.732.466q.302.201.607.399c.566.376 1.104.729 1.662 1.072.319.199.63.422.929.638.769.545 1.488 1.064 2.415 1.271.65.143 1.19.209 1.688.209.753 0 1.423-.157 2.046-.484.421-.219.847-.429 1.294-.64l.625-.305.094-.047c.253-.433.512-.859.831-1.252.522-.646 1.209-1.068 2.005-1.202.673-.113 1.333-.285 1.996-.424.397-.08.859-.335.819-.825-.036-.436-.265-.859-.424-1.283-.122-.315-.445-.234-.684-.315a1.8 1.8 0 0 1-.452-.235c-.141-.104-.245-.275-.221-.441.034-.221.245-.205.414-.205.467-.002.931.002 1.395-.006.229-.004.361.07.5.283.55.861.829 1.865 1.457 2.68.09.114.1.277-.106.339-1.092.319-1.775 1.112-2.367 2.019-.249.376-.506.751-.781 1.11-.128.169-.046.283.032.41.097.161.223.004.273-.026.626-.388 1.18-.683 1.757-1.04 1.591-.779 3.442-1.62 6.307-2.048 1.13-.156 2.25.091 3.229.551 1.147.541 2.142 1.381 2.811 2.523.608 1.033.995 2.613.331 3.733" style="fill:#323235;fill-opacity:1;fill-rule:nonzero;stroke:none" transform="translate(102.807 164.068)"></path><path d="M0 0v-1.851h-.791v-8.306h-2.433l-3.691 5.871h-.032v-4.02h.867v-1.851h-3.852v1.851h.805v6.455h-.805V0h3.123l3.808-6.197h.03v4.346h-.867V0z" style="fill:#323235;fill-opacity:1;fill-rule:nonzero;stroke:none" transform="translate(66.432 148.74)"></path><path d="M0 0v-1.851h-.805v-2.898l2.776 2.898h-.626V0h4.3v-1.851H4.81L2.27-4.362l2.809-3.944h.716v-1.851H1.359v1.851h.717L.478-6.022-.805-7.261v-1.045H0v-1.851h-3.988v1.851h.808v6.455h-.808V0z" style="fill:#323235;fill-opacity:1;fill-rule:nonzero;stroke:none" transform="translate(72.496 148.74)"></path><path d="M0 0c0-1.943.327-3.453 2.104-3.453 1.782 0 2.109 1.51 2.109 3.453 0 1.941-.327 3.3-2.109 3.3C.327 3.3 0 1.941 0 0m-2.509 0c0 2.895.999 5.155 4.613 5.155 3.617 0 4.617-2.26 4.617-5.155 0-2.899-1-5.305-4.617-5.305-3.614 0-4.613 2.406-4.613 5.305" style="fill:#323235;fill-opacity:1;fill-rule:nonzero;stroke:none" transform="translate(87.477 143.736)"></path><path d="M0 0v-1c.899-.18 1.57-.269 2.094-.269.953 0 1.433.374 1.433.972 0 .819-1.032 1.014-2.256 1.373-1.809.522-3.108 1.509-3.108 3.226 0 2.093 1.749 2.916 3.796 2.916 1.18 0 2.224-.152 3.659-.584V3.96H3.766v1.09a9 9 0 0 1-1.807.179c-.823 0-1.287-.329-1.287-.867 0-.671.882-1.014 2.17-1.315C4.649 2.63 6.038 1.748 6.038-.032c0-2.24-1.748-3.21-3.944-3.21-1.181 0-2.51.151-3.945.584V0z" style="fill:#323235;fill-opacity:1;fill-rule:nonzero;stroke:none" transform="translate(98.064 141.674)"></path><path d="M0 0v6.454h-.807v1.852H3.18V6.454h-.805V0h.805v-1.851H-.807V0z" style="fill:#323235;fill-opacity:1;fill-rule:nonzero;stroke:none" transform="translate(107.177 140.434)"></path><path d="M0 0v-1.851h-.807v-5.53c0-2.074-1.122-2.927-2.842-2.927-.685 0-1.251.061-1.688.133l.196 1.855c.285-.045.54-.075.837-.075.568 0 1.122.163 1.122 1.014v5.53h-.807V0z" style="fill:#323235;fill-opacity:1;fill-rule:nonzero;stroke:none" transform="translate(117.752 148.74)"></path><path d="M0 0v-2.674h-1.851v.823h-2.916v-2.152h4.02v-1.838h-4.02v-2.465h2.916v.819H0v-2.67h-7.949v1.851h.807v6.455h-.807V0z" style="fill:#323235;fill-opacity:1;fill-rule:nonzero;stroke:none" transform="translate(127.758 148.74)"></path><path d="M0 0v-1.851h-.807v-2.898l2.78 2.898h-.628V0h4.3v-1.851h-.833L2.27-4.362l2.809-3.944h.718v-1.851H1.361v1.851h.715L.48-6.022-.807-7.261v-1.045H0v-1.851h-3.987v1.851h.807v6.455h-.807V0z" style="fill:#323235;fill-opacity:1;fill-rule:nonzero;stroke:none" transform="translate(134.015 148.74)"></path><path d="M93.559 108.114h3.198v4.763h-3.198zm8.116 0h3.194v4.763h-3.194zm50.336 45.319h-25.656v25.776h25.656zm0-18.297H46.417v16.803h105.594zm0-42.232c-3.087.861-11.291 3.063-18.576 4.266-8.461 1.397-17.701 2.292-20.248 2.525l-.034 14.746h2.104v5.191h-2.092v3.703h-7.787v-3.703h-2.206v3.703h-7.79v-3.703H93.18v3.703h-7.813v-3.703h-2.093v-5.191h2.095l-.034-14.706c-2.78-.253-13.457-1.267-21.326-2.716-7.294-1.341-14.878-3.342-17.592-4.079v40.701h105.594zM96.877 118.14v3.698h4.802v-3.698h5.193v3.698h4.802v-3.698h2.091v-2.206H84.769v2.206h2.088v3.698h4.827v-3.698zm55.134-28.446c-14.798 4.471-33.173 7.231-49.902 7.518v4.95a2.915 2.915 0 0 1-2.915 2.914 2.917 2.917 0 0 1-2.913-2.914v-4.95c-16.731-.297-35.086-3.067-49.864-7.542v1.724c2.278.623 10.235 2.751 17.859 4.154 9.003 1.658 21.738 2.746 21.866 2.76l.683.056.034 16.077h24.8l.035-16.113.686-.058c.106-.01 10.988-.952 20.81-2.574 7.556-1.246 16.133-3.585 18.821-4.346zm0-3.201c-15.645 4.729-35.289 7.549-52.751 7.549-17.502 0-37.18-2.83-52.843-7.572v1.622c15.597 4.784 35.319 7.638 52.843 7.638 17.484 0 37.172-2.842 52.751-7.613zm0-16.685a62 62 0 0 0-.135-3.638h-11.728v8.102c0 3.966-3.224 7.188-7.185 7.188a7.19 7.19 0 0 1-7.186-7.188V66.17h-15.509v12.743c0 6.096-4.956 11.054-11.054 11.054-6.094 0-11.052-4.958-11.052-11.054V66.17H72.653v8.102a7.194 7.194 0 0 1-7.188 7.188c-3.959 0-7.183-3.222-7.183-7.188V66.17H46.554a60 60 0 0 0-.137 3.632v15.091c15.597 4.785 35.319 7.64 52.843 7.64 17.484 0 37.172-2.847 52.751-7.614zm-8.07-25.706c-6.59-7.221-14.312-9.565-21.121-11.629-7.068-2.146-13.31-4.402-23.606-12.012-10.294 7.61-16.538 9.866-23.604 12.012-6.811 2.064-14.531 4.408-21.123 11.629-5.334 5.847-7.211 14.161-7.809 20.573h13.098v9.597a5.7 5.7 0 0 0 5.689 5.695 5.7 5.7 0 0 0 5.694-5.695v-9.597h18.496v14.238c0 5.273 4.29 9.561 9.559 9.561 5.273 0 9.561-4.288 9.561-9.561V64.675h18.495v9.597a5.7 5.7 0 0 0 5.693 5.695 5.697 5.697 0 0 0 5.689-5.695v-9.597h13.1c-.602-6.414-2.477-14.726-7.811-20.573M46.417 179.209h25.607v-25.776H46.417zm27.101 0h51.34v-25.776h-51.34zm79.99-86.731v88.225H44.924V92.529l-.008-.006.008-.382V69.794c.038-6.552 1.198-18.737 8.459-26.696 6.869-7.529 14.796-9.936 21.795-12.056 7.024-2.132 13.224-4.376 23.59-12.108l.446-.333.45.333c10.361 7.732 16.562 9.976 23.586 12.108 6.999 2.12 14.924 4.527 21.795 12.056 7.263 7.959 8.419 20.144 8.463 26.704v22.293l.004.383z" style="fill:#323235;fill-opacity:1;fill-rule:nonzero;stroke:none"></path></g><!-- source: https://football-logos.cc --></svg>