<svg xmlns="http://www.w3.org/2000/svg" xml:space="preserve" viewBox="11.04 0 277.92 300"><!-- Source: https://football-logos.cc --><path d="m212.348 0-2.04 1.6c-17.655 13.858-39.525 20.191-59.95 20.191-19.739 0-41.612-6.541-60.765-20.265L87.577.08 85.86 1.873l-45.71 47.755L53.389 86.03c-24.606 22.348-42.221 56.143-42.345 89.758-.152 41.294 26.532 73.154 52.366 86.333 15.86 8.09 35.821 11.648 51.605 14.809 11.4 2.283 20.441 4.656 26.802 10.7 2.411 2.292 3.86 4.364 5.672 7.703l2.533 4.668 2.502-4.685c1.702-3.186 3.415-5.615 5.948-7.952 6.335-5.844 15.286-8.185 26.516-10.434 15.783-3.161 35.745-6.719 51.605-14.809 25.834-13.179 52.516-45.039 52.365-86.333-.123-33.615-17.739-67.41-42.344-89.758l13.236-36.4z" style="color:#000;font-style:normal;font-variant:normal;font-weight:400;font-stretch:normal;font-size:medium;line-height:normal;font-family:sans-serif;font-variant-ligatures:normal;font-variant-position:normal;font-variant-caps:normal;font-variant-numeric:normal;font-variant-alternates:normal;font-feature-settings:normal;text-indent:0;text-align:start;text-decoration:none;text-decoration-line:none;text-decoration-style:solid;text-decoration-color:#000;letter-spacing:normal;word-spacing:normal;text-transform:none;writing-mode:lr-tb;direction:ltr;text-orientation:mixed;dominant-baseline:auto;baseline-shift:baseline;text-anchor:start;white-space:normal;shape-padding:0;clip-rule:nonzero;display:inline;overflow:visible;visibility:visible;opacity:1;isolation:auto;mix-blend-mode:normal;color-interpolation:sRGB;color-interpolation-filters:linearRGB;solid-color:#000;solid-opacity:1;vector-effect:none;fill:#fff;fill-opacity:1;fill-rule:evenodd;stroke:none;stroke-width:12;stroke-linecap:butt;stroke-linejoin:miter;stroke-miterlimit:4;stroke-dasharray:none;stroke-dashoffset:0;stroke-opacity:1;color-rendering:auto;image-rendering:auto;shape-rendering:auto;text-rendering:auto" data-source="https://football-logos.cc"></path><path d="M87.927 3.85 43.447 50.32l13.277 36.515c-24.78 21.802-42.699 55.703-42.821 88.962-.147 40.047 25.932 71.086 50.805 83.775 15.288 7.799 35.041 11.383 50.867 14.552 11.477 2.299 21.153 4.726 28.21 11.432 2.637 2.506 4.328 4.932 6.216 8.41 1.798-3.366 3.735-6.126 6.532-8.706 7.027-6.482 16.587-8.872 27.893-11.136 15.825-3.169 35.578-6.754 50.867-14.552 24.872-12.689 50.952-43.728 50.805-83.775-.122-33.26-18.042-67.16-42.82-88.962l13.277-36.515L212.074 3.85c-18.223 14.303-40.701 20.8-61.716 20.8-20.368 0-42.791-6.727-62.431-20.8" style="fill:#2e318e;fill-opacity:1;fill-rule:evenodd;stroke:none;stroke-width:.99999994"></path><path d="M59.213 86.883h181.575l13.09-35.998-42.042-43.926c-17.584 13.174-39.559 20.015-61.478 20.015-22.07 0-44.033-7.576-62.134-20.076L46.122 50.885z" style="fill:#fff;fill-opacity:1;fill-rule:evenodd;stroke:none;stroke-width:.13333333"></path><path d="M88.224 6.899 46.582 50.405H91.97V9.377A117 117 0 0 1 88.224 6.9m3.746 43.506v36.478h38.937V50.405Zm38.937 0h38.936V25.16a106 106 0 0 1-19.485 1.813c-6.526 0-13.041-.668-19.451-1.924zm38.936 0v36.478h38.938V50.405Zm38.938 0h44.638L211.836 6.959a95 95 0 0 1-3.055 2.191z" style="fill:#e41e2b;fill-opacity:1;fill-rule:evenodd;stroke:none;stroke-width:.13333333" data-source="https://football-logos.cc"></path><path d="M64.48 139.855v117.473c10.23 5.135 20.165 8.108 31.578 10.775V139.855ZM25.509 216.01l.196-76.155H22.68c-4.29 11.603-7.033 22.922-7.081 35.951s3.136 28.282 9.91 40.204" style="fill:#fff;fill-opacity:1;fill-rule:evenodd;stroke:none;stroke-width:.13333333"></path><path d="M56.563 127.526v-25.152h5.166l10.76 16.796v-16.796h4.933v25.152h-5.33l-10.596-16.403v16.403zM82.368 127.526v-25.152h5.307v11.168l10.724-11.168h7.136l-9.897 9.797 10.436 15.355h-6.868l-7.223-11.806-4.308 4.205v7.601zM119.772 127.526v-25.152h11.176q4.213.002 6.121.68 1.912.675 3.06 2.407c.766 1.159 1.145 2.477 1.145 3.964 0 1.886-.582 3.45-1.738 4.68-1.157 1.223-2.895 2.002-5.203 2.318q1.727.965 2.846 2.114c.747.767 1.75 2.126 3.018 4.082l3.213 4.907h-6.347l-3.838-5.475q-2.046-2.933-2.797-3.695c-.501-.51-1.035-.855-1.597-1.049-.563-.187-1.45-.281-2.675-.281h-1.071v10.5zm5.313-14.517h3.923q3.818.001 4.775-.305a2.87 2.87 0 0 0 1.487-1.065c.355-.504.538-1.13.538-1.886 0-.85-.238-1.528-.71-2.05q-.706-.78-2.001-.99-.643-.08-3.875-.081h-4.137zM145.877 102.374h5.307v13.622c0 2.16.067 3.566.196 4.204a4.05 4.05 0 0 0 1.621 2.478q1.286.938 3.508.937 2.26.001 3.409-.885c.765-.586 1.224-1.312 1.377-2.166.16-.862.232-2.284.232-4.275v-13.915h5.308v13.211q.001 4.532-.43 6.401c-.287 1.248-.813 2.296-1.585 3.157-.77.855-1.805 1.54-3.09 2.05q-1.938.762-5.062.76-3.764.002-5.711-.83-1.945-.835-3.072-2.162-1.13-1.328-1.488-2.787-.521-2.158-.52-6.384zM172.417 102.374h9.701q3.276 0 5 .48 2.316.65 3.961 2.32 1.653 1.66 2.515 4.07c.57 1.61.857 3.59.857 5.95q0 3.102-.808 5.352c-.654 1.827-1.591 3.309-2.815 4.438-.919.862-2.161 1.529-3.728 2.01q-1.754.534-4.701.532h-9.982zm5.306 4.258v16.654h3.96c1.482 0 2.553-.076 3.214-.24.856-.205 1.573-.55 2.142-1.042s1.028-1.306 1.39-2.43c.354-1.124.538-2.665.538-4.61 0-1.943-.184-3.431-.539-4.473q-.542-1.565-1.505-2.437-.975-.876-2.46-1.182c-.741-.164-2.192-.24-4.36-.24zM198.59 127.526v-25.152h19.488v4.258h-14.182v5.574h13.196v4.235h-13.196v6.845h14.683v4.24zM221.738 119.345l5.165-.486q.46 2.494 1.891 3.66c.95.773 2.229 1.166 3.845 1.166 1.707 0 2.998-.346 3.862-1.043q1.305-1.036 1.304-2.424c0-.598-.184-1.101-.552-1.517q-.54-.632-1.909-1.09c-.618-.21-2.038-.573-4.248-1.1q-4.269-1.011-5.986-2.489-2.424-2.073-2.424-5.06c0-1.282.38-2.477 1.138-3.595q1.141-1.67 3.281-2.548c1.433-.58 3.153-.872 5.172-.872 3.306 0 5.785.69 7.455 2.073 1.666 1.387 2.54 3.232 2.627 5.545l-5.308.223c-.226-1.294-.716-2.225-1.462-2.787q-1.12-.852-3.36-.85c-1.543 0-2.755.299-3.624.908q-.845.582-.845 1.558 0 .895.79 1.528 1.002.809 4.878 1.681 3.874.879 5.73 1.81c1.236.626 2.203 1.476 2.906 2.558q1.047 1.626 1.047 4.006c0 1.44-.416 2.794-1.254 4.047-.84 1.259-2.02 2.196-3.55 2.805q-2.297.921-5.724.92-4.984.001-7.657-2.202-2.672-2.206-3.188-6.425m4.664-23.577h4.07l1.934 2.554 2.081-2.554h4.052l-3.71 5.06h-4.664z" style="fill:#fff;fill-opacity:1;fill-rule:nonzero;stroke:none;stroke-width:.13333333"></path><path d="M235.519 139.855v117.473c-10.23 5.135-20.165 8.108-31.578 10.775V139.855ZM274.49 216.01l-.196-76.155h3.025c4.29 11.603 7.033 22.922 7.08 35.951.049 13.028-3.135 28.282-9.91 40.204M134.782 139.855v137.73c3.722 1.649 7.552 3.698 10.565 6.562 1.857 1.765 3.348 3.444 4.653 5.43 1.304-1.986 2.795-3.665 4.652-5.43 3.013-2.864 6.843-4.913 10.565-6.563v-137.73Z" style="fill:#fff;fill-opacity:1;fill-rule:evenodd;stroke:none;stroke-width:.13333333" data-source="https://football-logos.cc"></path><!-- source: https://football-logos.cc --></svg>