<svg xmlns="http://www.w3.org/2000/svg" viewBox="106 204.81 589.33 837.52"><!-- Source: https://football-logos.cc --><path d="M452.59 267.03C508.855 368.4 522.035 458.275 522 514.49v100.673c-62.9 40.84-137.103 72.62-221 72.62s-158.1-31.78-221-72.62V514.49c-.035-56.215 13.145-146.09 69.41-247.46C207.1 163.092 301 59.64 301 59.64s93.9 103.452 151.59 207.39" style="fill:#f4e711;fill-opacity:1;fill-rule:nonzero;stroke:none" transform="matrix(1.33333 0 0 -1.33333 -.667 1121.853)" data-source="https://football-logos.cc"></path><path d="M508.979 530.155c-60.041 38.063-129.801 66.6-207.979 66.6-78.175 0-147.934-28.536-207.974-66.596l-.006.046v77.774c70.942 44.88 139.047 66.783 207.98 66.783s137.038-21.903 207.98-66.783v-77.79z" style="fill:#fff;fill-opacity:1;fill-rule:nonzero;stroke:none" transform="matrix(1.33333 0 0 -1.33333 -.667 1121.853)"></path><path d="M264.582 520.59c0 23.116 18.807 41.923 41.922 41.923 23.117 0 41.924-18.807 41.924-41.923s-18.807-41.924-41.924-41.924c-23.115 0-41.922 18.807-41.922 41.924" style="fill:#fff;fill-opacity:1;fill-rule:nonzero;stroke:none" transform="matrix(1.33333 0 0 -1.33333 -.667 1121.853)"></path><path d="M123.563 559.805v47.431a349 349 0 0 0 8.332 4.682V594.36a354 354 0 0 0 9.64 5.054v17.558a347 347 0 0 0 8.642 4.215v-47.431a347 347 0 0 1-8.643-4.214v20.636a350 350 0 0 1-9.639-5.053v-20.637a349 349 0 0 1-8.332-4.683M162.893 579.438v47.431a358 358 0 0 0 8.986 3.657q4.488-11.012 9.014-22.152.4-1.091 1.127-3.382a343 343 0 0 0 1.654-5.409 137 137 0 0 0-1.06 8.87 93 93 0 0 0-.34 7.725v18.224a349 349 0 0 0 8.424 2.872v-47.43a349 349 0 0 1-8.425-2.872q-4.913 11.525-9.785 22.9-.246.488-1.28 4.343-.49 1.754-.761 2.753.303-2.643.458-6.04.154-3.401.154-8.208v-19.947a352 352 0 0 1-8.166-3.335M203.953 594.003v47.317q4.442 1.261 8.91 2.404v-20.672q4.501 11.487 9.027 22.856a354 354 0 0 0 9.644 2.057q-4.8-11.745-9.58-23.624a9756 9756 0 0 0 9.936-23.622 351 351 0 0 1-9.936-2.114 9580 9580 0 0 1-9.091 20.876v-23.073a355 355 0 0 1-8.91-2.405M260.299 606.716v9.834q1.781-1.335 3.5-1.925a8.2 8.2 0 0 1 3.471-.424c1.6.152 2.86.679 3.781 1.596.921.92 1.382 2.096 1.382 3.542 0 1.785-1.245 3.631-3.73 5.499q-1.037.776-1.555 1.213c-2.893 2.33-4.877 4.449-5.953 6.403q-1.616 2.926-1.616 6.866c0 4.103 1.147 7.56 3.442 10.336 2.296 2.775 5.3 4.34 9.017 4.641q1.976.16 3.906-.278 1.93-.437 4.072-1.52v-8.477c-1.666.724-2.956 1.204-3.874 1.453q-1.377.37-2.446.288c-1.362-.104-2.474-.626-3.336-1.557q-1.296-1.4-1.295-3.484 0-1.822.972-3.318c.646-.999 2.156-2.423 4.533-4.308 3.178-2.492 5.222-4.644 6.13-6.399q1.362-2.633 1.363-6.462c0-4.307-1.22-7.768-3.654-10.417-2.436-2.652-5.755-4.131-9.948-4.513q-2.4-.221-4.423.122a11.7 11.7 0 0 0-3.74 1.289M293.764 607.275v47.431q4.823.096 9.647.058v-47.43q-4.824.035-9.647-.06M317.569 606.945v47.431q4.611-.219 9.218-.558c6.161-.456 10.508-1.896 13.055-4.117 2.546-2.227 3.817-5.64 3.817-10.197q0-3.875-1.454-6.21c-.969-1.557-2.476-2.718-4.524-3.502 2.289-1.061 3.975-2.55 5.064-4.44s1.633-4.277 1.633-7.15q-.001-3.21-1.064-5.689t-3.094-4.063c-1.353-1.04-2.984-1.712-4.888-2.034-1.906-.322-4.905-.292-9 .005q-4.38.315-8.763.524m9.152 27.154 1.008-.076c2.427-.186 4.207.131 5.344.979q1.704 1.27 1.704 4.253c0 2.098-.58 3.702-1.736 4.802-1.16 1.1-2.951 1.758-5.378 1.943l-.942.07zm0-19.27q.225-.015.66-.08.435-.064.66-.082c2.404-.187 4.147.141 5.23 1.011s1.627 2.356 1.627 4.47c0 2.26-.546 3.93-1.64 5-1.092 1.07-2.892 1.718-5.4 1.91q-.569.044-1.137.086zM356.025 603.014v47.43a354 354 0 0 0 19.624-3.663v-8.78a353 353 0 0 1-10.565 2.116v-9.577a356 356 0 0 0 9.618-1.912v-8.665a353 353 0 0 1-9.618 1.911V610.7q5.296-.975 10.565-2.114v-9.235a354 354 0 0 1-19.624 3.663M388.017 596.445v47.431q4.658-1.183 9.288-2.494 4.607-14.071 9.183-28.27.405-1.362 1.139-4.144.732-2.782 1.667-6.526-.721 5.27-1.066 9.585-.345 4.317-.345 7.955v18.225q4.236-1.343 8.444-2.798v-47.43q-4.208 1.452-8.444 2.797a5995 5995 0 0 1-9.953 29.538q-.25.656-1.313 5.214a879 879 0 0 0-.783 3.273q.313-2.85.472-6.353.156-3.505.157-8.312v-19.948q-4.212 1.182-8.446 2.257M429.727 583.044v47.432a353 353 0 0 0 9.074-3.7v-47.43a355 355 0 0 1-9.074 3.698M451.967 573.554v47.318a352 352 0 0 0 8.416-4.122v-20.673q4.218 8.2 8.39 16.28 4.436-2.399 8.817-4.934-4.351-8.273-8.757-16.68a5374 5374 0 0 0 9.08-30.824 353 353 0 0 1-9.08 5.089q-4.202 13.81-8.45 27.499v-23.075a348 348 0 0 1-8.416 4.122M260.188 661.68q2.277.366 4.558.72 2.988-1.495 5.982-3.006 2.558 2.337 5.12 4.658 2.286.325 4.576.64a2544 2544 0 0 1-5.619-7.415 904 904 0 0 1-7.55-1.123q-3.536 2.775-7.067 5.527" style="fill:#3652ac;fill-opacity:1;fill-rule:nonzero;stroke:none" transform="matrix(1.33333 0 0 -1.33333 -.667 1121.853)"></path><path d="M280.515 354.474a163 163 0 0 1 4.617-2.97c15.279-9.465 26.109-17.597 33.587-25.108l.054-.048c-11.705-2.728-28.978-2.382-39.27 1.038l-73.869 24.549c-16.002 5.317-41.071 5.317-57.073 0l-21.409-7.115-.022.047a545 545 0 0 0-8.824 24.388l-.007.063 22.05 7.328c21.294 7.076 52.204 7.076 73.497 0l66.62-22.14z" style="fill:#fff;fill-opacity:1;fill-rule:nonzero;stroke:none" transform="matrix(1.33333 0 0 -1.33333 -.667 1121.853)"></path><path d="M380.944 334.996c17.08-31.976 6.956-71.056-35.052-97.571-43.71-27.59-88.04-10.23-111.91 14.26-18.842 19.33-31.155 49.29-31.155 49.29l27.9 19.53s10.075-31 23.405-47.43c12.054-14.858 32.211-24.737 53.01-15.19 18.91 8.68 31.665 28.953 24.18 49.91-1.083 3.033-2.62 6.064-4.7 9.156l-.032.035-.573-.19c-13.76-4.573-36.275-4.573-50.034 0l-73.869 24.548c-13.76 4.573-36.274 4.573-50.033 0l-20.773-6.903.013-.036c8.069-19.57 17.785-40 29.473-61.057C206.344 191.282 275.728 108.454 301 79.333c25.273 29.12 94.656 111.949 140.206 194.015 11.685 21.051 21.4 41.476 29.467 61.043l.028.047-20.782 6.906c-13.76 4.573-36.274 4.573-50.034 0l-18.96-6.301z" style="fill:#3652ac;fill-opacity:1;fill-rule:nonzero;stroke:none" transform="matrix(1.33333 0 0 -1.33333 -.667 1121.853)" data-source="https://football-logos.cc"></path><path d="M356.653 366.13c6.658-7.315 12.868-14.542 17.759-20.98l.284-.376.034-.03 21.636 7.19c16.002 5.318 41.07 5.318 57.072 0l21.415-7.116.012.037a545 545 0 0 1 8.835 24.417l.015.04-22.065 7.334c-21.293 7.076-52.203 7.076-73.496 0l-31.54-10.481z" style="fill:#fff;fill-opacity:1;fill-rule:nonzero;stroke:none" transform="matrix(1.33333 0 0 -1.33333 -.667 1121.853)"></path><path d="M267.24 489.088c-5.693-3.095-11.238-7.064-16.518-12.033-10.54-9.92-19.84-26.97-18.6-46.81 1.405-22.485 10.954-41.1 25.07-56.22l.025-.032-39.852 13.243c-23.709 7.88-56.826 7.88-80.535 0l-21.975-7.302-.016.046C96.657 438.339 93.02 485.732 93.02 514.274v.394c70.966 46.464 139.064 69.068 207.98 69.068s137.014-22.604 207.98-69.068v-.386c0-28.55-3.638-75.949-21.823-134.314l-.008-.035-21.979 7.304c-23.709 7.88-56.826 7.88-80.535 0l-36.368-12.086-.02.028c-11.647 12.307-23.552 24.043-31.495 31.817-14.57 14.26-26.686 32.193-18.29 46.81 8.37 14.57 22.048 14.636 40.61 4.03 15.19-8.68 26.97-26.66 26.97-26.66l25.11 10.54s-10.357 19.311-30.69 36.58c-4.24 3.602-9.446 7.035-15.348 10.005l-.033.018a50.1 50.1 0 0 1 11.717 32.272c0 27.777-22.516 50.293-50.293 50.293s-50.293-22.516-50.293-50.293a50.08 50.08 0 0 1 11.07-31.483z" style="fill:#5ca2dd;fill-opacity:1;fill-rule:nonzero;stroke:none" transform="matrix(1.33333 0 0 -1.33333 -.667 1121.853)"></path><path d="M323.061 473.047c5.82-1.072 12.5-3.566 20.164-7.945 11.255-6.432 20.595-17.093 25.681-23.647l9.88 4.147c-4.697 6.77-12.652 16.895-23.743 26.314-3.995 3.393-9.536 7.008-16.213 10.1l-.04.009a50.2 50.2 0 0 0-15.802-8.966zM303.17 470.382c-5.352-2.976-9.21-7.61-11.966-12.408-6.322-11.005-8.037-29.82 19.693-56.961 17.684-17.307 42.816-42.452 56.85-60.927 10.62-13.98 14.72-29.734 11.856-45.562-3.466-19.147-16.667-36.444-38.178-50.022-18.2-11.487-37.468-15.28-57.268-11.273-16.227 3.284-32.33 12.14-44.18 24.298-12.565 12.89-22.194 31.2-26.66 40.574l13.268 9.288c4.284-11.023 11.836-28.234 21.047-39.588 16.679-20.556 41.408-27.435 63.002-17.523 21.397 9.822 38.082 33.7 28.57 60.332-5.541 15.517-20.394 29.876-49.664 48.01-30.755 19.055-47.263 43.329-49.064 72.148-1.095 17.512 7.539 32.244 15.983 40.192 5.492 5.169 11.182 9.014 16.843 11.835l.013.007c8.085-7.107 18.47-11.66 29.894-12.399z" style="fill:#fff;fill-opacity:1;fill-rule:nonzero;stroke:none" transform="matrix(1.33333 0 0 -1.33333 -.667 1121.853)"></path><path d="M331.192 486.725a42.3 42.3 0 0 1 9.188 9.192l-.05-.023c-9.764-2.942-21.377-4.65-33.826-4.65-12.442 0-24.05 1.706-33.81 4.646l-.058.017a42.3 42.3 0 0 1 9.18-9.18l-.013.056c-2.938 9.76-4.644 21.365-4.644 33.807 0 12.44 1.706 24.047 4.644 33.807l.023.062a42.3 42.3 0 0 1-9.185-9.183l.068.018c9.758 2.938 21.36 4.642 33.795 4.642 12.44 0 24.043-1.705 33.802-4.643l.065-.02a42.3 42.3 0 0 1-9.183 9.184l.022-.074c2.936-9.757 4.641-21.358 4.641-33.793 0-12.436-1.705-24.038-4.641-33.796zm-65.754 25.613c12.043-1.781 26.086-2.804 41.066-2.804 14.984 0 29.029 1.023 41.073 2.805l.036.007a42 42 0 0 1 .815 8.244c0 2.823-.281 5.582-.815 8.25h-.031c-12.046 1.783-26.092 2.806-41.078 2.806-14.982 0-29.026-1.023-41.07-2.804h-.037a42 42 0 0 1-.815-8.252c0-2.823.28-5.58.814-8.249zm32.814 49.312c-1.78-12.042-2.803-26.081-2.803-41.06 0-14.977 1.022-29.017 2.803-41.058l.008-.05a42 42 0 0 1 8.244-.815c2.823 0 5.582.28 8.25.815l.002.043c1.782 12.042 2.805 26.085 2.805 41.066 0 14.98-1.023 29.02-2.804 41.063l-.002.044a42 42 0 0 1-8.251.815c-2.82 0-5.578-.28-8.244-.814z" style="fill:#e6243b;fill-opacity:1;fill-rule:nonzero;stroke:none" transform="matrix(1.33333 0 0 -1.33333 -.667 1121.853)" data-source="https://football-logos.cc"></path><!-- source: https://football-logos.cc --></svg>