<svg xmlns="http://www.w3.org/2000/svg" xml:space="preserve" viewBox="0 0 597.17 755.9"><!-- Source: https://football-logos.cc --><path d="M737.008 5814.09H5215.75V5001.5c0-2343.21-1099.95-3930.71-2238.3-4856.695C1704.63 1203.31 737.051 2789.83 737.02 5001.5Z" style="fill:#fff;fill-opacity:1;fill-rule:evenodd;stroke:none" transform="matrix(.13333 0 0 -.13333 -98.268 775.212)" data-source="https://football-logos.cc"></path><path d="M2935.2 238.07C2376.32 715.711 1926.58 1256.58 1585.54 1850l3586.13 3920.02V5001.5c0-1025.84-214.08-2025.96-687.32-2939.54C4122.78 1364 3622.62 742.863 3020.66 237.684l-42.89-36z" style="fill:#205bb2;fill-opacity:1;fill-rule:evenodd;stroke:none" transform="matrix(.13333 0 0 -.13333 -98.268 775.212)"></path><path d="M3319.19 5640.25c-673.62-220.34-965.97-830.05-963.22-1397.61 3.19-660.05 630.37-1227.31 651.58-1950.05 13.11-446.99-251.82-791.62-509.91-1109.57 931.79 343.18 1243 897.24 1237.05 1539.25-8.65 932.25-743.33 1359.64-757.24 2020.86-6.73 319.93 76.74 588.64 341.74 897.12" style="fill:#231f20;fill-opacity:1;fill-rule:evenodd;stroke:none" transform="matrix(.13333 0 0 -.13333 -98.268 775.212)"></path><path d="M3117.09 5482.26c-449.47-242.05-697.55-713.41-695.01-1239.3.22-46.51 3.78-92.92 10.21-138.99 47.15-338.21 252.8-675.19 400.13-980.14 127.19-263.28 232.53-533.24 241.21-829.3 10.92-372.01-158.24-673.81-368.72-954.8 579.98 266.68 970.12 684.98 963.66 1381.92-3.37 365.3-120.83 658.75-301.79 969.21-149.43 256.37-343.42 520.24-420.41 809.19-21.08 79.12-33.29 159.78-35.02 241.7-6.07 288.84 62.62 519.56 205.74 740.51" style="fill:#30944c;fill-opacity:1;fill-rule:evenodd;stroke:none" transform="matrix(.13333 0 0 -.13333 -98.268 775.212)" data-source="https://football-logos.cc"></path><path d="M737.008 5814.09H5215.75V5001.5c0-2343.21-1099.95-3930.71-2238.3-4856.695C1704.63 1203.31 737.051 2789.83 737.02 5001.5Zm4368.552-159.38L1647.89 1874.33c337.16-584.25 780.61-1116.24 1330.27-1586.002C3573.42 787.887 4067.95 1401.89 4425.64 2092.37c468.55 904.5 679.92 1893.18 679.92 2909.13zm-3492-3719.98L5060.97 5703.9H847.199l.012-702.4c.019-1122.47 255.799-2156.86 766.349-3066.77" style="fill:#231f20;fill-opacity:1;fill-rule:evenodd;stroke:none" transform="matrix(.13333 0 0 -.13333 -98.268 775.212)"></path><path d="M1058.08 4658.14v793.24h96.2l372.24-622.77v622.77h89.92v-793.24h-96.2l-372.23 623.33v-623.33zM1770.06 4658.14v793.24h93.89v-393.39l351.93 393.39h127.06l-297.33-321.36 310.36-471.88h-123.75l-252.28 401.51-115.99-126.69v-274.82z" style="fill:#231f20;fill-opacity:1;fill-rule:nonzero;stroke:none" transform="matrix(.13333 0 0 -.13333 -98.268 775.212)" data-source="https://football-logos.cc"></path><!-- source: https://football-logos.cc --></svg>