<svg xmlns="http://www.w3.org/2000/svg" viewBox="34.74 190.3 719.79 719.79"><!-- Source: https://football-logos.cc --><path d="M566.397 324.218c.014-6.177-2.298-9.52-5.107-12.33l-147.959-147.96c-4.684-4.348-8.358-5.106-12.33-5.106H191.95c-3.973 0-7.647.758-12.331 5.107L31.66 311.888c-2.809 2.81-5.12 6.153-5.107 12.33v209.05c-.014 6.177 2.298 9.521 5.107 12.33l147.959 147.96c4.684 4.349 8.358 5.107 12.33 5.107H401c3.973 0 7.647-.758 12.331-5.108L561.29 545.6c2.809-2.81 5.12-6.154 5.107-12.33z" style="fill:#af984f;fill-opacity:1;fill-rule:nonzero;stroke:none" transform="matrix(1.33333 0 0 -1.33333 -.667 1121.853)" data-source="https://football-logos.cc"></path><path d="M41.842 350.124V329.87c-.077-5.46 1.351-8.19 5.683-12.226l137.503-137.503c4.493-4.607 7.586-6.002 15.413-6.033H392.51c7.826.031 10.92 1.426 15.413 6.033l137.503 137.503c4.332 4.036 5.76 6.766 5.683 12.226v20.264l-.773-.003H42.89z" style="fill:#2b4ea8;fill-opacity:1;fill-rule:nonzero;stroke:none" transform="matrix(1.33333 0 0 -1.33333 -.667 1121.853)"></path><path d="M41.842 360.297V496.25l.017.912h508.568l.682-.002V360.328l-.59-.004H42.888zM41.86 507.354h508.627l.622-.002v20.264c.077 5.46-1.351 8.19-5.683 12.225L407.923 677.345c-4.493 4.606-7.587 6.001-15.413 6.032H200.44c-7.826-.03-10.919-1.426-15.412-6.032L47.525 539.84c-4.332-4.035-5.76-6.765-5.683-12.225v-18.989z" style="fill:#fff;fill-opacity:1;fill-rule:nonzero;stroke:none" transform="matrix(1.33333 0 0 -1.33333 -.667 1121.853)"></path><path d="M194.679 385.938h-48.886l13.905 79.597c9.49 1.711 20.073 0 20.073 0l-11.038-62.585h28.822s.006-9.084-2.876-17.012M256.757 415.639l-3.008 33.17-14.482-33.17zm2.726-29.405-1.286 13.548h-25.813l-5.872-13.704c-10.512-2.125-20.936.156-20.936.156l38.14 79.301c16.884 1.802 25.514-.147 25.514-.147l11.765-79.154s-11.064-2.423-21.512 0M330.313 385.938l38.566 79.298s-8.74 2.17-21.795.152l-25.52-58.824-6.015 58.672s-8.29 2.322-21.796 0l12.614-79.158s10.221-1.949 23.946-.14M422.062 385.938h-51.89l13.897 79.45h51.047s-.49-10.506-3.013-16.727h-30.97l-2.438-13.696h23.8s.291-8.747-2.865-16.88h-23.8l-2.725-15.42h31.829s.076-8.8-2.872-16.727M505.354 465.388l-8.594-48.735-24.087 48.735s-7.335 1.928-17.343 0l-13.905-79.45c9.935-1.809 18.064 0 18.064 0l8.454 48.306 24.233-48.306c8.726-1.991 17.057 0 17.057 0l13.905 79.45s-7.712 1.837-17.784 0M74.536 404.397s-3.608-6.4-5.16-16.15c11.532-5.417 28.053-4.139 34.605-2.956s20.02 6.37 23.66 17.108 2.002 17.746-2.275 23.114c-4.277 5.37-15.015 9.737-19.292 11.922-4.277 2.183-6.461 5.55-5.46 9.1 1.001 3.548 6.825 5.55 14.56 4.732 7.735-.82 14.844-4.051 14.844-4.051 4.561 6.718 5.598 15.431 5.598 15.431s-6.398 3.21-17.318 4.18-24.005-.028-32.881-9.95c-8.25-9.22-5.613-22.746-3.033-26.45 4.944-7.097 12.952-10.282 20.05-13.65 7.098-3.366 6.734-7.552 5.824-10.465-1.08-3.458-6.001-5.968-14.56-5.732-9.919.272-19.162 3.817-19.162 3.817" style="fill:#2b4ea8;fill-opacity:1;fill-rule:nonzero;stroke:none" transform="matrix(1.33333 0 0 -1.33333 -.667 1121.853)"></path><path d="M151.61 642.457V509.324l.055-1.97h96.551l-.03 1.606v173.446l.03.97h96.551l-.004-.879v-173.9l.004-1.243h96.642l-.07 1.788v133.952l-.003.837 48.64-48.638-1.61.026H104.617l-1.581.035 48.592 48.593z" style="fill:#d91728;fill-opacity:1;fill-rule:nonzero;stroke:none" transform="matrix(1.33333 0 0 -1.33333 -.667 1121.853)" data-source="https://football-logos.cc"></path><path d="M245.947 260.97c0-27.906 22.622-50.528 50.529-50.528 27.906 0 50.528 22.622 50.528 50.529 0 27.906-22.622 50.529-50.528 50.529-27.907 0-50.53-22.623-50.53-50.53M198.634 249.375h-23.776c-.223 3.314.873 5.626.873 5.626h8.7l3.432 19.22-8.494-3.838c-1.78 2.24-2.071 5.328-2.071 5.328l16.947 8.083h2.036l-5.086-28.793h8.27s.153-3.1-.83-5.626M399.826 248.698l22.553 33.343-.42 1.142H396.06s-1.19-2.05-1.065-5.935h16.57c-.839-1.228-17.404-25.434-17.404-25.434s1.634-2.117 5.665-3.116M389.782 266.203c-1.76-10.192-7.766-17.561-17.892-17.411-8.195.12-13.412 6.37-11.471 18.381 1.606 9.937 8.311 16.623 17.589 16.623 9.408 0 13.443-7.923 11.774-17.593m-12.732 11.856c-4.862.034-8.593-4.495-9.784-11.174-1.437-8.074.797-12.209 5.352-12.357 5.288-.172 8.61 4.576 9.969 11.704 1.239 6.497-.51 11.792-5.537 11.827M225.072 272.057c-.607-4.459-3.787-6.46-7.204-6.46-4.02 0-5.801 2.903-5.172 6.46.789 4.46 3.787 6.408 7.204 6.461 3.898.06 5.659-2.881 5.172-6.46m-3.397-20.112c6.764 4.444 9.827 10.313 10.192 19.17.271 6.621-3.034 12.984-11.933 12.695-6.913-.225-12.894-3.61-13.972-11.693-.68-5.104 1.404-9.35 5.72-11.054 4.654-1.837 9.81.164 11.206 1.377 0 0-1.497-3.868-6.492-6.673-4.428-2.487-8.418-2.424-8.418-2.424s-.948-3.504.459-5.636c0 0 7.05.173 13.238 4.238" style="fill:#fff;fill-opacity:1;fill-rule:nonzero;stroke:none" transform="matrix(1.33333 0 0 -1.33333 -.667 1121.853)"></path><path d="M247.948 260.97c0 26.759 21.77 48.528 48.528 48.528s48.527-21.77 48.527-48.527-21.77-48.528-48.527-48.528-48.528 21.77-48.528 48.528" style="fill:#2b4ea8;fill-opacity:1;fill-rule:nonzero;stroke:none" transform="matrix(1.33333 0 0 -1.33333 -.667 1121.853)"></path><path d="M297.411 295.171c-2.479 1.172-9.145 3.962-17.102 4.353h-.152v5.019a46.3 46.3 0 0 0 16.319 2.953 46.3 46.3 0 0 0 16.382-2.977l-.019-.095c-.094-1.514-.275-3.946-.55-5.824l-.042-.21c-2.65-.325-8.173-1.174-14.576-3.139zM337.918 279.998c-3.228 2.54-8.147 4.02-10.822 4.683l-.212.06c-1.405 2.135-6.27 9.118-12.602 13.575l.018.209c.228 1.63.388 3.563.489 5.02l.018.186a46.8 46.8 0 0 0 23.501-22.406zM332.372 231.548c.865 2.203 2.707 7.559 2.59 12.981l.004.155c1.37 1.33 4.926 5.095 7.652 10.777l.081.201c-1.05-9.207-4.798-17.606-10.433-24.385zM297.023 214.998c8.06 1.585 12.547 5.72 14.307 7.718l.1.105c2.78.198 10.972 1.063 17.13 4.576l.248.15c-8.158-7.894-19.185-12.837-31.346-13.09zM265.263 266.503c-1.78-2.217-6.034-8.048-7.066-14.281l-.121-.012c-1.42-.198-4.227-.416-7.181.336l-.189.05a46.6 46.6 0 0 0-.755 8.375 46.24 46.24 0 0 0 6.446 23.61l.144-.021c2.128-.189 4.731-.454 6.22-.608v-.156c.045-4.057.421-12.149 2.582-17.167zM283.531 262.778c-2.91.974-11.505 3.776-16.298 4.52l-.077.178c-2.292 5.345-2.416 14.808-2.394 17.806l.005.15c3.457 6.091 10.354 10.37 13.61 12.139l.264-.002c7.66-.042 14.385-2.623 17.306-3.93l.012-.186c.378-3.062 1.366-11.195 1.693-15.238l-.086-.056c-2.436-1.873-8.339-6.878-13.95-15.237zM258.238 250.21c-1.474-.2-4.076-.382-6.935.19l-.148.029c2.573-11.062 9.101-20.622 18.01-27.103l4.243.057-.086.206c-2.102 4.276-2.051 8.977-1.837 11.387l.014.21c-9.228 7.422-12.268 13.01-13.142 15.044zM306.864 236.18c-9.918-.091-16.02 3.892-18.713 6.196l-.08.055c-3.886-1.72-11.536-5.625-14.559-7.18v-.156c-.234-2.302-.4-7.709 2.396-12.017l.22-.328c2.73-1.48 9.944-5.052 17.907-6.212l.262.058c8.957 1.056 13.725 5.387 15.469 7.36l.11.131c-1.223 3.3-2.421 9.595-2.87 12.09z" style="fill:#fff;fill-opacity:1;fill-rule:nonzero;stroke:none" transform="matrix(1.33333 0 0 -1.33333 -.667 1121.853)"></path><path d="M321.062 250.167c.404 9.121-1.903 16.53-3.126 19.756l-.034.07c-5.683 1.715-15.344 5.407-18.856 6.765l-.149-.106c-2.297-1.758-8.432-6.904-14.094-15.564l-.097-.133c.756-5.52 2.56-12.396 3.534-15.894l.102-.124c1.331-1.422 7.573-7.27 19.763-6.721l.116.016c4.549 3.404 10.272 9.11 12.825 11.723zM323.093 250.942c.255 9.342-2.145 16.776-3.377 19.943l-.05.11c1.639 2.52 5.268 8.205 7.01 11.738l.248-.074c2.735-.698 7.513-2.193 10.253-4.649l.128-.098s3.58-7.642 5.051-17.836l-.082-.226c-2.753-7.843-7.834-12.916-8.965-13.978l-.15.072c-2.335 1.056-6.531 3.011-9.91 4.9z" style="fill:#fff;fill-opacity:1;fill-rule:nonzero;stroke:none" transform="matrix(1.33333 0 0 -1.33333 -.667 1121.853)" data-source="https://football-logos.cc"></path><!-- source: https://football-logos.cc --></svg>