<svg xmlns="http://www.w3.org/2000/svg" viewBox="47.7 82.67 696.31 955.99"><!-- Source: https://football-logos.cc --><path d="M394.482 717.598c-6.64 10.184-13.168 23.183-15.215 37.036l-81.871 24.752-81.87-24.752c-2.045-13.838-8.562-26.824-15.194-37.004l-.295-.502c-16.037-4.281-34.614-8.968-54.142-13.358-59.296-13.328-109.616-15.504-109.616-15.504V479.642c0-96.016-.26-167.426 26.656-215.152 26.383-46.784 92.752-137.632 234.461-202.096 141.71 64.464 208.078 155.312 234.462 202.096 26.916 47.726 26.656 119.136 26.656 215.152v208.624s-50.32 2.176-109.616 15.504c-19.492 4.381-38.036 9.06-54.051 13.334z" style="fill:#ca9f51;fill-opacity:1;fill-rule:evenodd;stroke:none" transform="matrix(1.33333 0 0 -1.33333 -.667 1121.853)" data-source="https://football-logos.cc"></path><path d="m297.396 770.861 74.768-22.605c5.185-23.572 20.927-43.73 28.856-52.704-4.567-7.762-11.438-22.6-11.438-41.645 0-2.332.103-4.727.326-7.18 1.654-18.199 8.183-32.564 12.056-39.707-6.957-10.26-24.953-37.834-44.65-76.333-19.736-38.576-30.545-74.15-34.053-86.73l-25.865-6.494-25.864 6.494c-3.508 12.58-14.317 48.154-34.053 86.73-19.697 38.499-37.693 66.073-44.65 76.334 3.872 7.142 10.401 21.507 12.056 39.706a79 79 0 0 1 .326 7.18c0 19.046-6.871 33.883-11.439 41.645 7.93 8.974 23.671 29.132 28.858 52.704z" style="fill:#49abe4;fill-opacity:1;fill-rule:evenodd;stroke:none" transform="matrix(1.33333 0 0 -1.33333 -.667 1121.853)"></path><path d="M303.042 487.852c-1.564.476-2.448 2.583-2.448 2.583-1.156.136-1.699-.067-2.242-1.767-.545-1.7-.953-3.331-1.632-4.283-.68-.952-.952-.204-1.088 1.36-.136 1.563-.204 5.642.204 7.546.408 1.902.68 4.01.68 5.506 0 1.495 1.496 2.31 1.496 2.31s-.409.613-.137 2.244 1.224 1.36 1.768 1.972.815 1.564.34 2.38c-.476.815-1.428.815-2.448.067s-2.311-2.04-2.923-1.496.136 2.04.884 3.4.884 2.175 2.72 3.874c1.835 1.7 3.67 2.04 3.67 2.04.408 2.175 2.651 2.243 4.35 1.767 1.7-.476 3.196-1.903 5.1-3.195s1.29-1.971 1.834-2.107c.545-.136.748.544 2.176 2.311 1.427 1.767 2.38 2.787 3.671 4.69 1.291 1.905 1.836 3.468 1.7 4.895-.136 1.428-1.496 2.244-4.08 3.06-2.582.815-5.914 1.29-9.109 1.563s-4.487 1.02-5.642 1.971-1.971.272-2.991-1.835-3.263-5.235-5.099-7.682c-1.835-2.447-2.922-2.311-4.214-1.428-1.292.884-1.156 1.156.34 2.516s2.719 2.38 3.466 3.875 1.496 5.981 1.02 12.984c-.475 7.002.204 9.177 1.768 14.48 1.563 5.302 3.602 7.137 5.778 10.129 2.175 2.99 2.311 4.01 1.224 5.709-1.088 1.7-2.991 2.652-5.575 1.564-1.597-.672-2.787-3.059-3.06-4.215-.27-1.156.273-2.447.749-3.807s1.088-2.515-.748-4.826c-1.835-2.31-2.855-4.486-3.875-6.187-1.02-1.699-1.631-2.378-1.835-1.563s-.272 1.563.748 3.127 1.292 2.787.408 2.856c-.885.067-1.292-.952-2.38-2.991s-1.155-3.467-1.7-5.915c-.543-2.447-1.087-4.35-.951-6.05s1.02-4.079.408-4.69c-.612-.613-1.767-.68-2.991 1.087s-1.7 2.924-2.923 1.971c-1.224-.95-2.652-2.175-2.04-3.33s.816-2.516-.272-4.963c-1.087-2.447-2.107-3.875-4.146-4.622-2.04-.748-2.584-.273-4.35-1.156-1.769-.884-4.488-1.36-5.643-.409-1.156.952-1.768 1.088-.205 2.245 1.564 1.155 2.788.542 2.992 1.903s-.884.34-.952 1.835.204 3.807-.544 4.283c-.747.477-1.767-.068-1.767-.068s.068-1.36.068-3.807-.204-2.923-2.652-4.69c-2.446-1.769-3.466-2.312-5.573-2.176s-3.264.475-4.08 1.292c-.815.815-1.835 1.223-1.97.204-.136-1.02-.68-2.04-.545-3.06.136-1.02-.204-1.427-.748-1.903-.543-.476-1.087 0-1.971 1.7s-1.088 3.807-.68 5.507.884 1.902-.068 2.922-1.903 2.04-2.515 3.739-.884 2.379-2.244 1.903c-1.359-.476-2.107-1.155-2.582-1.155-.477 0-1.564.408-.477 4.01 1.088 3.603 1.768 4.623 3.331 5.71 1.564 1.088 3.4 1.225 3.4 1.225-.613 1.427.815 2.243 1.699 2.378.884.137 1.224 1.156 1.224 1.156s-.748 2.04-.477 3.603c.272 1.564 1.36 2.108 1.428 2.719.069.612-.136 1.428-1.767 2.312-1.632.884-1.7 1.019-.884 1.835s3.263 1.156 5.914.68c2.652-.476 4.079-1.496 4.079-1.496s2.312.476 3.67-.543c1.36-1.02 2.584-2.72 2.584-4.351s-1.223-1.631-1.36-2.651c-.135-1.02.137-2.108 1.157-2.38s2.922 0 4.962.748 4.146 1.428 5.302 2.515 2.516 3.468 3.807 5.982c1.445 2.814 1.972 4.351 1.7 5.167s-1.7 2.311-2.176 3.74c-.476 1.426-1.223 2.378-2.039 2.446s-1.36-.272-3.331-1.903-3.399-1.496-6.118-1.36-3.06.272-3.127 1.224c-.069.952 2.447 2.243 3.535 3.263 1.087 1.02 1.155 1.903.611 1.971s-2.786 1.496-4.215 2.651c-1.427 1.156 0 1.225 1.836 1.36 1.835.136 3.06 1.496 4.622 3.128 1.564 1.63 2.856 4.554 4.76 7.613s3.126 4.69 5.37 6.39c2.243 1.7 4.078 2.855 5.778 2.991s3.263.272 4.486 1.36c1.225 1.088 1.972 1.495 2.04 2.515s-1.088 2.38-2.923 3.67c-1.836 1.292-2.379 2.924-2.515 4.216-.136 1.291-1.768 0-3.06-1.224-1.291-1.224-2.855-1.36-4.894-2.652-2.04-1.29-4.419-3.33-6.322-5.845-1.903-2.516-2.855-4.283-3.603-7.139-.747-2.855-1.156-2.922-2.176-1.97-1.02.95-.271 1.97.409 5.234.68 3.263.815 5.438.68 7.41-.137 1.97-.748 2.855-1.428 3.127s-2.855-1.36-4.759-2.992c-1.903-1.631-2.651-4.214-2.651-6.321 0-2.108.068-2.244-.816-2.38s-2.04.476-3.127 2.31c-1.087 1.837-1.563 5.643-1.563 8.566s-.748 3.196-1.972 2.516-2.243-2.855-3.263-4.623c-1.02-1.767-1.428-3.4-.815-4.418.611-1.02 1.087-2.108.611-2.652-.476-.543-1.903-.135-3.263 1.156-1.36 1.292-1.292 2.72-1.495 4.215-.204 1.496-.476 2.99-.34 5.167.136 2.175.068 2.855-.816 2.787s-1.564-.68-2.99-3.603c-1.429-2.924-1.905-4.76-1.837-7.138.068-2.38-.272-2.107-1.087-1.835-.816.272-1.631 1.495-2.72 4.078-1.087 2.583-1.835 4.01-1.835 6.866s.272 4.351.272 4.351c-1.863.762-2.923-.748-2.923-1.835 0-1.088.136-1.904-.952-4.147-1.087-2.244-1.632-1.632-3.33-1.7-1.7-.068-2.312-1.02-2.72-2.72-.408-1.699-.136-2.65.884-3.738s.747-2.04.407-3.06c-.34-1.019-2.447.34-4.35 2.788-1.904 2.448-2.243 3.807-1.971 6.526s1.155 4.215 1.155 4.215c-.952 1.903.068 4.962.068 4.962-.748.34-1.767-.068-2.243-1.223s-1.156-2.584-2.583-3.739c-1.428-1.156-3.331-.952-4.42 0-1.087.952-2.242 3.331-2.174 5.506.067 2.176.407 4.011 1.7 5.575 1.291 1.563 2.514 1.631 3.466.951s2.107-1.088 2.923-.544 1.7 1.088 1.7 1.088.068 2.243 0 4.42c-.068 2.174 1.156 4.214 3.807 5.437 2.65 1.224 3.806 1.156 4.69.748s1.36-.476 1.224.68c-.136 1.155.34 2.107 2.515 3.943s3.535 2.175 5.506 1.631 1.632-1.156 2.38-1.36.951 1.292.204 2.108c-.748.816-2.176 1.7-3.196 2.855-.407.462 1.156.748 2.311.408 1.157-.34 1.768-.136 3.264.408s3.195-.544 4.01-1.904c.816-1.36 1.903-1.059 3.06-1.02 1.971.069 3.413 1.977 6.934 4.283a246 246 0 0 0 7.342 4.623c.135 1.631.951 4.418 2.175 6.322s1.972 2.991 1.835 3.875c-.136.884-1.768.952-5.234 1.087-3.467.137-5.574-.475-7.002-1.087s-3.195.068-3.807 1.02c-.612.951-.408 1.427.816 1.631s3.059.748 4.69 2.38c1.632 1.63 2.108 3.059 1.292 4.486-.816 1.428-2.107 2.311-3.127 1.836-1.02-.476-2.175-1.632-2.447-2.788s-.408-1.903-1.292-1.427-1.224 2.243-1.427 4.418c-.205 2.176.136 6.119.136 6.119-.748.612-1.36 0-1.768-1.7s-.543-2.923-1.02-2.99c-.476-.07-2.175 1.223-3.466 3.058-1.292 1.836-1.156 4.963-.613 7.614.545 2.651 1.904 4.962 1.904 4.962-1.904-.067-2.651.612-3.535 1.768-.884 1.155-.748 1.903-.748 1.903-2.175-.204-4.894-.136-5.03.34s.272 1.292 2.039 2.991 3.195 2.651 3.195 2.651 0 1.496 1.224 2.924 1.97 1.563 2.311 2.107-.135 1.088-1.292 1.291c-1.155.205-2.039-.067-3.874-.203-1.836-.136-2.72 1.223-4.283 3.263s-.68 4.214-.543 5.03c.135.816.34 1.564-.137 1.836-.476.272-1.971.476-3.195.204s-1.563.136-1.563.612c0 .475 1.563 1.427 2.243 3.602.572 1.829 1.564 2.651 3.195 4.215s3.67 1.156 4.555.612c.883-.544 1.495-.748 2.243-.612s1.836.68 3.195.272c1.36-.408 2.04-.544 2.04-.544-.069 1.088 1.155 3.603 2.99 5.235 1.836 1.631 3.739 1.971 5.099 1.903s1.564.476 1.496 2.243c-.068 1.768-1.088 2.787-2.244 3.603s-.068 1.02 2.176.884c2.243-.136 3.467 0 5.098-1.291 1.631-1.292 1.768-3.74 1.768-6.323s.611-3.263 1.359-3.33c.748-.069 1.7-.409 2.311-.137.612.272.612 2.312.409 3.671-.205 1.36-.613 2.175.068 2.72.68.543 1.563-.205 3.194-2.244s1.904-2.38 1.496-4.759-.884-3.67-.884-3.67c.748-2.584.816-4.963-.068-5.915-.884-.951-2.584-2.31-4.283-3.127-1.7-.815-2.447-2.175-3.194-4.214-.748-2.04.067-3.875 1.223-6.459s1.768-3.059 2.516-5.574c.747-2.515 2.243-3.943 4.622-5.914 2.052-1.7 2.787-1.836 2.99-1.292.205.544.545 1.564 1.497 2.38.951.815 1.087-.136 1.087-1.768 0-1.631.816-1.156 1.495-.544s.613 1.768.273 3.4c-.34 1.63.34 3.602 1.427 5.71 1.088 2.107 3.4 4.894 4.623 5.438s1.495-.068.883-.816c-.611-.748-.747-1.495-1.36-3.195-.61-1.7-.202-2.991 1.157-3.671 1.36-.68 3.33-.34 6.526.816s6.254 3.399 6.661 4.487c.409 1.087-.34 1.7-1.97 3.059-1.559 1.298-1.156 2.311-.816 3.127s1.02-.408 1.36-1.428c.339-1.02.95-1.02 2.243.136 1.291 1.156 3.602 2.855 4.962 4.079s2.04 2.787 1.427 4.011c-.61 1.224-1.223.815-2.583.067-1.359-.747-3.263-1.291-4.486-1.291-1.224 0-2.788.952-4.555 2.244-1.768 1.29-2.787 3.058-4.419 5.166-1.63 2.107-1.63 3.059-.61 2.651 1.019-.408.95-.884 2.174-1.087 1.224-.205 1.631.34 1.631.34-1.427.951-2.923 2.65-4.01 4.486-1.088 1.836-1.496 3.467-1.02 4.419s1.563-1.292 2.72-2.991c1.155-1.7 1.903-1.904 2.65-1.428.748.476.952 1.836 1.7 3.467.747 1.631 2.72 2.311 2.72 2.311s-.817 1.632-2.449 4.011c-1.63 2.38-2.515 3.739-2.786 5.574-.272 1.836-.136 5.167-.204 6.73s-1.02 1.904-2.107 2.108c-1.089.204-.885.476.203 1.7s2.04 1.019 2.72 1.835c.68.815 1.699 1.223 3.466.34 1.768-.884 2.856-2.992 2.924-4.759s-.409-3.33-.612-4.962.067-3.807.067-3.807c1.496 0 2.38.135 3.128.747s1.155.544 1.155.544c0 2.176.544 3.127 1.972 5.915 1.427 2.787 2.311 3.807 2.311 3.807s-.204 2.31.68 4.282 1.767 1.835 2.923 1.835c1.155 0 1.984-.704 2.515-1.835.544-1.156 2.787-2.583 5.37-4.623s3.536-2.855 4.487-2.855 1.564.408 2.38.816 1.359.204 2.311-1.02 2.991-3.875 3.807-5.234c.815-1.36 1.564-2.175 3.603-1.224 2.039.952 3.33 1.836 5.506 1.836 2.175 0 2.583-.068 4.42-2.04 1.835-1.971 2.514-2.515 3.805-3.059s2.108-1.02 1.224-1.835c-.883-.816-2.243-.68-3.807-.816 0 0-.272-1.155.408-1.564.68-.407 2.516-.68 4.147-3.33 1.631-2.652 3.67-5.439 4.555-6.73.883-1.292 1.631-.884 2.651-.884s2.04-.136 1.02-2.04-1.768-2.65-3.875-1.36c-2.108 1.293-3.68 1.876-4.827 2.04-1.903.272-2.787-1.427-2.787-1.427s.748-1.156 1.496-3.263c.747-2.108 1.97-5.506 2.923-6.186.951-.68 2.175-1.564 2.175-2.244s-1.36-1.427-4.01-1.088c-2.652.34-5.235 1.428-5.915 1.904s-1.83-.214-2.04-1.496c-.543-3.33-1.563-5.438-2.923-7.681-1.359-2.244-1.903-2.787-1.495-4.283 0 0 5.846 3.059 8.77 4.758 0 0 .544.612 1.699 2.788s1.427 2.515 2.787 2.447 2.312.068 5.914 1.632c3.603 1.563 8.022 3.33 8.838 4.418s2.378 3.331 5.03 3.195c0 0 .476 1.564 1.088 2.923.612 1.36 1.631 2.04 2.855 2.448s2.855.272 3.943-.476c0 0 .543.476 1.971.884 1.428.407 3.467.203 4.147-1.496s-.544-3.603-2.991-5.71c0 0-.204-1.292-.816-2.72-.612-1.427-1.904-2.99-3.943-3.263s-2.99 0-4.079 1.088c0 0-2.039-1.36-3.874-1.563 0 0-2.448-6.663-3.195-11.149-.748-4.487-2.108-14.276-2.787-20.598-.68-6.322-1.157-11.693-1.089-17.81.069-6.119.34-9.45.613-11.49.272-2.038.067-3.33-.884-2.854s-1.02 1.155-1.496 5.302c-.475 4.147-1.223 6.526-2.175 9.79-.952 3.262-1.156 5.165-1.292 6.525-.135 1.36-1.155 3.399-1.427 7.41l-.272 4.01s-1.224.817-1.835-2.583c-.613-3.398-1.836-10.672-2.244-15.839s-1.7-8.973-2.516-13.936c-.815-4.962-2.446-8.293-3.602-8.905s-2.244-.476-1.292.748 2.176 3.535 2.991 7.274c.816 3.738.884 6.05.748 8.497s-1.387 10.34-2.107 15.024c-.816 5.302-1.632 7.274-1.36 14.615s.816 10.605.816 10.605-.272.68-1.971-.612c-1.7-1.291-2.311-2.175-1.768-2.719s1.903-1.224.543-2.651c-1.36-1.428-2.583-1.7-3.33-1.7-.748 0-1.7-.611-1.768-2.379-.068-1.767-.544-4.283-.748-6.39-.203-2.108.476-3.807 1.836-5.438 1.36-1.632 2.311-1.836 2.311-2.516s-1.292-2.107-3.534-3.059c-2.244-.952-4.624-1.087-6.73.204-2.108 1.292-2.72 1.564-3.06.952s-.407-3.671.204-7.07c.612-3.399 2.186-9.926 1.768-13.324-.544-4.419-1.292-7.07-2.243-8.974-.952-1.903-2.652-2.99-3.06-4.35s-.68-4.69-.34-7.41.884-9.313 1.089-11.284c.203-1.972 3.466-14.004 5.03-18.49 1.563-4.487 5.574-12.985 7.545-15.772s5.235-5.71 7.41-5.983c2.176-.272 4.622.069 6.458 2.176 1.835 2.108 2.04 4.147 2.04 5.847 0 1.699-.205 3.67-2.652 4.554s-6.934 2.583-9.449 6.186-3.399 6.322-3.33 10.469c.067 4.147 1.834 9.517 5.03 13.12 3.194 3.603 8.43 7.002 11.148 9.45 2.72 2.446 5.71 5.506 7.342 7.273s2.243 4.08 2.652 5.167c.407 1.088 1.087 1.155 1.155-.612.068-1.768.136-7.546.136-7.546s1.36-.476 2.243 1.02c.884 1.495 1.7 3.67 2.108 5.302.407 1.632 1.156 1.903 1.632.204.475-1.7.407-6.798-.409-9.993s-2.515-6.526-3.33-7.614c-.817-1.088-.884-2.447-.612-3.466.271-1.02.68-2.72.951-3.468.273-.748 1.36-2.176 2.652-2.583.638-.202 1.835 0 2.583 1.632.747 1.631 1.359 2.719 1.359.816s-1.223-4.827-3.194-8.09c-1.972-3.263-4.284-3.467-6.595-3.331s-3.467 1.767-4.418 2.99-2.633 1.998-3.876.34c-1.02-1.359-1.087-4.622-.407-7.137.68-2.516 2.175-4.01 4.35-6.594 2.176-2.583 2.924-5.235 2.72-10.13-.205-4.894-2.38-7.884-2.38-7.884s.544-1.632.884-4.963.476-5.37-1.563-8.906c-2.04-3.535-3.399-3.67-3.332-2.72.068.953.748 2.38.748 3.332s-1.36 2.175-2.379 2.855c-1.02.68-2.107.476-4.827.476s-6.118 0-9.72 2.38c-3.604 2.379-6.39 4.622-8.43 5.846 0 0 .34-4.487-.544-9.246-.883-4.758-1.36-6.661-.748-7.342.612-.679 1.564-.476 2.04 1.088s.34 2.787 2.855 2.583 3.467-.203 4.35-2.175c.884-1.972.273-4.826.68-5.982s1.292-2.652 2.38-2.787c1.087-.136 2.107 1.292 2.923 1.903.815.612 1.292 1.7 1.903 2.244.612.543 1.768.068 1.156-2.107s-1.36-6.595-2.447-9.382c0 0 1.156-.612 1.903-3.262.748-2.652.272-5.644-1.36-7.275 0 0 .34-1.087-1.02-3.602-1.359-2.516-2.175-2.652-2.107-3.332s.816-.884 1.768-2.38c.952-1.494 1.087-2.31 1.02-3.806-.068-1.495.136-2.65 1.223-2.72 1.088-.067 2.515-.067 3.263.748.748.817 1.156.885 1.156.069s-1.224-2.108-1.836-2.788-.543-1.903-2.311-2.855-3.467-1.7-4.487-1.7-1.903.204-2.175 1.02c0 0-2.379-.407-3.943.272-1.563.68-2.447 1.972-2.515 3.196 0 0-1.156-.613-1.632-1.836-.475-1.223-1.767-2.379-1.7-3.33.07-.952 1.292-2.448.613-4.692-.68-2.243-.068-3.806-1.632-5.438s-2.99-2.991-4.486-3.262c-1.496-.273-2.04-.545-2.176-1.973s.068-2.99.613-4.01c.415-.78 1.29-1.155 1.155-1.971-.136-.817-1.36-1.496-3.4-.34s-3.127 2.379-3.738 4.622-1.495 3.06-2.04 3.262c-.543.205-1.316-.387-2.311-1.63-1.903-2.38-3.602-1.768-5.166-1.292m-9.654 251.05s.044-1.267 1.292-2.244c1.564-1.224 2.243-1.088 2.787-.952 0 0 0 .544-.883 1.292-.884.747-1.36 1.155-1.904 1.631s-1.292.272-1.292.272m12.985-9.041c-1.087-.906-1.36-1.224-.816-1.972.544-.747 1.088-1.495 1.7-.475s1.155 1.97.747 2.65-.815.477-1.631-.203m-9.041-3.875c-.913.28-1.429.136-.545-1.156.885-1.291 1.292-2.243 2.175-2.515.885-.272.613.136.613 1.156s-1.36 2.243-2.243 2.515" style="fill:#231f20;fill-opacity:1;fill-rule:evenodd;stroke:none" transform="matrix(1.33333 0 0 -1.33333 -.667 1121.853)"></path><path d="M52.72 404.842c-.512 21.263-.53 44.356-.53 69.318V673.4c19.649 1.631 56.152 5.62 97.194 14.845a1366 1366 0 0 1 33.523 7.995l.524.186s15.952-20.092 13.328-48.96c-2.176-23.936-13.6-40.8-13.6-40.8s22.342-31.392 47.056-79.696c23.935-46.784 34.679-89.76 34.679-89.76l32.502-8.16 32.503 8.16s10.743 42.976 34.68 89.76c24.712 48.304 47.055 79.696 47.055 79.696s-11.424 16.864-13.6 40.8c-2.624 28.868 13.328 48.96 13.328 48.96l.424-.16a1366 1366 0 0 1 33.623-8.02c41.042-9.226 77.545-13.215 97.193-14.845V474.16c0-24.962-.018-48.055-.529-69.318H53.615Z" style="fill:#fff;fill-opacity:1;fill-rule:evenodd;stroke:none" transform="matrix(1.33333 0 0 -1.33333 -.667 1121.853)"></path><path d="M52.72 404.842c1.375-57.128 6.318-101.05 24.074-132.536 25.661-45.5 88.257-130.31 220.602-192.344 132.345 62.034 194.942 146.844 220.602 192.344 17.757 31.486 22.7 75.408 24.075 132.536H53.615Z" style="fill:#49abe4;fill-opacity:1;fill-rule:evenodd;stroke:none" transform="matrix(1.33333 0 0 -1.33333 -.667 1121.853)"></path><path d="M151.607 304.473v26.11h-9.294v-26.11h-8.11v57.24h8.11v-24.406h9.294v24.406h8.11v-57.24zM184.134 361.713h8.11v-57.24h-8.11v11.4l-8.702 26.069v-37.469h-8.111v57.24h8.11l8.703-27.664zM207.959 332.854l8.702 28.859h7.435l-8.787-28.54 10.645-28.7h-8.11l-9.886 27.902v-27.902h-8.11v57.24h8.11zM270.392 361.713l-9.8-57.24h-9.632l-9.8 57.24h8.026l6.59-43.687 6.59 43.687zM300.723 361.713v-46.398c-.051-8.937-3.886-10.842-11.575-10.842h-2.45c-7.688 0-11.594 2.449-11.49 10.922v46.318h8.11v-46.557c0-2.471.93-3.747 3.55-3.747h2.027c2.45 0 3.717 1.276 3.717 3.747v46.557zM316.606 332.854l8.702 28.859h7.436l-8.787-28.54 10.645-28.7h-8.11l-9.886 27.902v-27.902h-8.11v57.24h8.11zM347.865 304.473c-6.506 0-9.8 3.269-9.8 9.726v37.708c0 6.537 3.21 9.806 9.716 9.806h6.928c6.505 0 9.716-3.269 9.716-9.806V314.2c0-6.457-3.296-9.726-9.8-9.726zm5.66 6.378c1.86 0 2.789.957 2.789 2.95v38.584c0 1.993-1.098 2.95-3.21 2.95h-3.802c-2.113 0-3.126-.957-3.126-2.95v-38.584c0-1.993 1.098-2.95 3.21-2.95zM398.05 361.713l-9.8-57.24h-9.632l-9.8 57.24h8.026l6.59-43.687 6.59 43.687zM409.709 304.473h-8.11v47.434c0 6.537 3.21 9.806 9.715 9.806h6.083c6.506 0 9.716-3.269 9.716-9.806v-47.434h-8.11v20.967h-9.294zm9.293 27.902v19.054q0 3.348-3.548 3.348h-2.197q-3.548 0-3.548-3.348v-19.054zM451.698 304.473l-5.323 23.12h-4.9v-23.12h-8.111v57.24h15.884c6.168 0 9.293-3.269 9.293-9.806v-14.11c0-5.023-1.605-8.132-4.815-9.487l5.66-23.837zm-10.223 29.657h5.323c2.45 0 3.633 1.355 3.633 4.144v12.357c0 2.79-1.183 4.146-3.633 4.146h-5.323zM246.682 252.65l-3.126 5.857c2.788 1.503 4.816 2.85 6.083 3.878 1.182.95 2.281 2.217 3.38 3.72h.844l5.323-2.69v-54.141h-8.026v45.75zM314.704 229.878c-6.505-.013-9.558 3.617-9.558 10.345v15.909c0 6.649 3.21 9.973 9.715 9.973h5.323c6.505 0 9.716-3.324 9.716-9.973v-36.727c0-6.728-3.21-10.131-9.716-10.131h-4.816c-6.505 0-9.716 3.403-9.716 10.131v2.802h8.111v-3.514c0-1.662.845-2.533 2.45-2.533h3.464c1.436 0 2.112.87 2.112 2.533v14.041h-.896s-1.748-2.847-6.189-2.856m7.085 7.1v19.946c0 1.503-1.013 2.295-3.126 2.295h-2.619c-1.858 0-2.788-.792-2.788-2.295v-17.176c0-1.82.93-2.77 2.788-2.77zM280.008 229.878c-6.506-.013-9.559 3.617-9.559 10.345v15.909c0 6.649 3.21 9.973 9.716 9.973h5.323c6.505 0 9.716-3.324 9.716-9.973v-36.727c0-6.728-3.21-10.131-9.716-10.131h-4.816c-6.505 0-9.716 3.403-9.716 10.131v2.802h8.11v-3.514c0-1.662.846-2.533 2.451-2.533h3.463c1.437 0 2.113.87 2.113 2.533v14.041h-.896s-1.748-2.847-6.189-2.856m7.085 7.1v19.946c0 1.503-1.013 2.295-3.126 2.295h-2.62c-1.858 0-2.787-.792-2.787-2.295v-17.176c0-1.82.93-2.77 2.788-2.77zM339.758 252.65l-3.126 5.857c2.788 1.503 4.816 2.85 6.083 3.878 1.183.95 2.281 2.217 3.38 3.72h.844l5.323-2.69v-54.141h-8.026v45.75z" style="fill:#fff;fill-opacity:1;fill-rule:nonzero;stroke:none" transform="matrix(1.33333 0 0 -1.33333 -.667 1121.853)"></path><path d="M317.93 735.842c-.68 0-1.564-1.156-1.564-2.175 0-1.02.136-2.243 1.291-3.127s2.108-1.224 3.331-.884c1.224.34 1.903 1.563 1.36 1.7-.544.135-.952.135-1.631-.272-.68-.408-1.292-.34-1.836.271-.544.612-.816 1.496-.34 2.651.476 1.156.34 1.836-.612 1.836" style="fill:#fbc30f;fill-opacity:1;fill-rule:evenodd;stroke:none" transform="matrix(1.33333 0 0 -1.33333 -.667 1121.853)"></path><path d="M320.444 734.006c-.708-.298-.68-1.155.273-1.495.951-.34 1.835.068 1.835.748s-.816 1.292-2.108.747M288.698 753.109c-1.02 0-.952-1.156-.34-1.7s.612-2.379-.136-3.874c-.747-1.496-.884-4.011-.34-5.847.544-1.835 1.428-2.515 1.428-.951 0 1.563-.205 3.33.408 3.806.612.477.612-.34.543-1.903-.067-1.564-.067-3.943.68-5.642s1.972-3.196 2.788-4.147 1.223-1.427 3.127-.952 2.311 1.428.407 2.243c-1.903.816-3.942 1.564-4.622 3.196-.68 1.63-.748 3.33-.68 5.846s.63 4.253.476 5.846c-.204 2.107-1.496 4.079-3.739 4.079" style="fill:#fbc30f;fill-opacity:1;fill-rule:evenodd;stroke:none" transform="matrix(1.33333 0 0 -1.33333 -.667 1121.853)"></path><path d="M296.312 740.125c-.936-.268-1.156-.748-.409-1.224.749-.476 1.496-.816 1.496.068s-.136 1.428-1.087 1.156M295.903 730.336c-1.102-.441-1.427-1.496-1.087-1.972s.884-.68 1.632-.068 1.02.952.884 1.564c-.137.611-.749.747-1.429.476M299.371 731.491c-.746-.093-.952-.544-.884-1.631.068-1.088-.135-1.564.68-1.496s.952.544.952 1.564-.204 1.631-.748 1.563M302.634 731.967c-1.02 0-1.088-.408-1.088-1.496 0-1.087-.136-1.427.544-1.427s1.223.476 1.563 1.088c.34.611-.135 1.835-1.02 1.835M301.954 727.209c-.821-.89-1.02-1.972-.34-2.924.68-.951 1.088-1.7 1.564-1.7.475 0 1.02.341 1.563 1.904.544 1.564 0 2.448-.476 3.195-.476.748-1.495.408-2.31-.475" style="fill:#fbc30f;fill-opacity:1;fill-rule:evenodd;stroke:none" transform="matrix(1.33333 0 0 -1.33333 -.667 1121.853)"></path><path d="M316.23 738.425c.476-.816.408-.951.952-.951.543 0 .95-.069 1.563.747.612.816 1.496.408 3.331-1.02s2.99-2.786 4.487-3.738.815-1.496 0-2.176c-.816-.68-.884-1.291.136-2.107s.611-1.496-.069-1.632-2.107-.135-3.059.544c-.951.68-2.107.612-3.806.272-1.7-.34-2.923-.611-3.196.476-.272 1.088-1.223 3.127-1.223 3.943s.272 2.38 0 3.467-.485 2.273.068 3.195c.204.34.34-.204.815-1.02m-5.914-7.206c-.204-.951-.34-1.767-.61-2.99-.273-1.224-1.429-2.652-3.128-4.76s-2.924-3.398-4.419-3.398-2.107.136-3.06.748c-.951.612-2.446 1.767-2.922 2.99s-1.496 1.224-2.243 1.768c-.748.544-.952 1.36-.748 2.515s.067 1.632-1.224 1.292c-.857-.226-1.564-.884-1.564-2.04 0-1.155-.612-2.854-1.427-3.33s-2.107.135-1.971-.748c.135-.884.067-1.428 1.835-1.632 1.767-.203 2.516-.884 3.74-1.087 1.222-.204 1.087-1.156-.273-1.088s-3.535-.136-4.35-.068c-.817.068-1.768-.34-.341-1.088s2.515-1.291 3.603-1.971 1.496-.748 3.671-.612c2.176.136 3.603.204 4.283.68.68.475 2.243-.068 2.991-2.04.748-1.97 1.903-4.418 2.515-6.798s.204-3.738-.272-3.738-.34.068-.816 1.291c-.476 1.224-1.563 1.904-2.311 2.515s-1.903.544-2.922-.68c-1.02-1.223-2.38-2.107-2.38-2.583 0-.475.068-.816 1.97-.951 1.905-.136 1.8-1.287 1.02-2.516-1.767-2.787-4.35-6.458-8.768-8.633-4.42-2.175-6.527-1.903-8.702-1.156s-3.06 2.243-3.806 3.06c-.749.815-1.564 1.155-2.176-.136-.612-1.292-.272-4.487.748-6.663 1.02-2.175 2.854-3.806 5.166-5.03s4.419-1.903 7.818-.748 5.098 2.651 6.73 5.37c1.631 2.72 1.495 4.623 2.107 5.235s1.564.544 1.632-1.088c.067-1.631-.204-4.214-.68-4.894s-.476-1.836-1.02-3.127c-.544-1.292-2.311-2.175-3.33-2.856-1.02-.68-1.496-1.087-.952-2.039.543-.951 2.379-.544 3.943.272 1.563.816 3.874 2.515 5.03 3.4 1.156.883 2.923 2.786 3.67 4.69.748 1.903 1.496 2.379 1.836 3.67.34 1.292.204 2.176-.748 1.088-.952-1.087-1.7-1.36-1.427 0s1.02 2.312 1.7 3.06c.68.747 1.019 1.291 2.378 3.398s3.332 5.099 6.934 7.41c1.477.948 1.496.204 1.224-.748-.272-.951-1.7-2.039-2.447-3.399s-1.156-4.146-1.632-6.05c-.475-1.903.204-2.311.884-2.311s1.7.476 2.176 1.835c.475 1.36 1.019 2.583 1.631 3.195s1.427 1.224 2.38 3.4c.816 1.866 1.02 3.874.475 5.642-.544 1.767-1.292 1.291-3.195 1.02-1.903-.273-2.379.61-2.923 2.243-.544 1.631-.136 1.699 1.224 1.835s1.903 0 1.835-.952c-.068-.951.068-1.427.68-1.427.611 0 .611.612 1.291 1.835.68 1.224 1.835.408 2.583-.475.748-.884 1.769-1.02 2.788-.273 1.02.748 1.63 1.36 1.156 2.448-.476 1.088-.205 1.835 1.223 2.311s2.107.272 2.788 1.292 1.359 1.427 1.835.884c.475-.544-.205-1.632-.748-2.312-.544-.68-.272-1.7.136-1.835.407-.136 1.223-.069 1.564.748.339.815 1.02 1.767 1.02 2.923s-.477 2.107-1.632 2.515c-1.156.408-2.447-.136-4.08-.068-1.631.068-1.97.611-2.175 1.835s.544 1.292 1.36 1.972 1.495.34 2.108-.476c.612-.816 1.223-1.292 2.447-2.04 1.224-.747 2.379-1.291 2.991-2.175s.068-3.399-.272-4.486c-.34-1.088.204-1.088 1.156-1.496.951-.408 1.97-1.767 3.467-2.447 1.495-.68 3.739-1.7 4.487-.816.747.883-.205 1.835-1.02 3.942s-1.224 2.04-2.38 4.42c-1.156 2.378-1.563 2.855-2.855 3.739s-2.651 1.29-2.72 1.767c-.067.476 1.564.544 2.856.883 1.292.34 3.263.476 4.554-.272 1.293-.747 1.972-.815 2.584-.68.611.137.544 1.836-.272 3.536s-2.38 3.467-4.963 5.234-4.487 1.496-6.118.68-2.38-.612-2.583-.068.748 1.563 1.563 2.243c.816.68 1.904.272 2.448.816a6.5 6.5 0 0 0 2.65 1.563c1.157.34.68 1.292-.543 2.176s-3.059 1.7-4.623 1.428c-1.563-.273-3.942-2.108-5.098-2.448s-2.04.476-3.4 1.768c-1.359 1.291-2.31 3.67-3.126 5.37s-1.836 1.428-2.719.748c-.884-.68-1.564-1.632-2.38-1.632s-.68.137-.747 1.02c-.068.884-.136 1.36-.748 1.7s-2.584 1.427-4.35 2.65c-1.768 1.224-2.788 1.292-4.011.748-1.224-.543-2.72-.612-3.4-.883-.68-.272-1.903-2.176-3.398-4.963s-1.292-6.39-.749-8.497c.545-2.107 1.156-2.244 2.584-2.244 1.427 0 1.972-1.02 2.855-1.903.884-.884 2.04-.476 2.652.272.611.748 1.255 1.878 2.378 1.156.952-.612.749-1.428.544-2.38zM370.206 717.895c-1.081-.12-1.632-.883-1.632-2.311s.272-2.583.747-2.651c.477-.068.817-.476 1.769.476.951.951.68 1.087.407 2.38-.271 1.29-.68 2.174-1.29 2.106M365.855 712.933c-.838-.28-1.088-.884-1.972-1.767-.883-.884-1.02-1.496.069-1.496s1.767.612 2.447 1.02c.68.407.612.951.34 1.495s-.476.884-.884.748M374.217 718.235c-1.123-.467-1.36-1.155-.748-1.835s1.291-.884 1.97-.204c.68.68 1.769 1.632 1.225 2.243-.544.612-1.632.136-2.447-.204M360.688 709.126c-.664.2-.883-.204-3.874-1.496-2.992-1.291-5.235-2.583-8.158-3.466-2.923-.884-3.739-1.224-5.167-4.963s-2.379-7.478-2.583-11.964c-.203-4.487-.407-9.314 0-13.596.408-4.283.68-8.362 1.224-13.664.544-5.303.34-7.478.816-7.478s1.088.612 1.427 3.331c.34 2.72.34 4.487 1.292 11.489.952 7.001 2.107 9.993 2.72 13.731.61 3.74 1.223 5.37 1.29 6.866.069 1.496 1.248 2.047 1.7 2.108 1.02.136.544-.952.272-2.787-.272-1.836-.544-5.643-.544-8.702s.205-5.71.748-9.857c.544-4.147 1.087-7.342 1.564-8.361.476-1.02 1.7-1.904 1.563.611-.136 2.516.204 8.634.68 13.324.476 4.691 1.292 11.421 1.971 16.86.68 5.438 1.632 9.177 2.312 12.78s1.428 5.03.747 5.234" style="fill:#fbc30f;fill-opacity:1;fill-rule:evenodd;stroke:none" transform="matrix(1.33333 0 0 -1.33333 -.667 1121.853)"></path><path d="M330.505 713.272c-1.223 0-1.631-.747-1.97-1.563-.34-.816-1.157-2.039-2.788-2.787-1.632-.748-2.244-.34-2.583.204-.34.544-1.292.884-1.292-.068s.544-1.7 1.224-2.31c.68-.613 2.651-.885 3.263.339.611 1.223.883 1.631 2.31 2.243 1.429.612 2.177.816 2.448 2.04.272 1.223.34 1.902-.612 1.902M333.496 712.185c-.95.042-.951-1.088-1.427-1.903-.476-.816-1.155-1.632-2.447-2.108s-2.447-1.971-2.38-2.855-.475-2.175-1.495-3.263c-1.02-1.087-.816-1.835-.544-3.263s-.544-2.855 0-4.147.34-2.65 1.36-2.583c.681.045 1.7.748 2.515 1.427.816.68.68.816.68 2.992 0 2.175.747 3.603 2.107 5.778s2.923 3.195 3.196 5.71c.271 2.516 0 4.147-1.565 4.215M340.838 696.89c.119 1.361-.475 1.223-2.719-.136-2.244-1.36-9.313-5.507-10.877-6.594-1.563-1.088-1.699-1.768-1.495-2.244s1.223-.476 3.059.612c1.835 1.088 6.866 4.147 8.701 5.167s3.196 1.631 3.331 3.195M333.496 688.732c-.973-.649-.747-1.36-.34-1.631.408-.272 1.089-.34 1.564.067s.34 1.02 0 1.428-.612.544-1.224.136" style="fill:#fbc30f;fill-opacity:1;fill-rule:evenodd;stroke:none" transform="matrix(1.33333 0 0 -1.33333 -.667 1121.853)" data-source="https://football-logos.cc"></path><path d="M299.371 671.33c1.546 1.592 2.107 2.514 2.787 2.447.68-.068.748-.476.408-1.088s-1.088-1.36-1.02-2.107-.34-1.428-1.02-2.312-1.224-2.991-1.155-5.234c.067-2.244-.409-2.856-.748-4.691-.34-1.835-.068-2.583.612-2.447s1.02 1.156 2.039 3.467 2.651 5.03 3.263 7.41 1.632 4.418 3.535 6.866 2.04 2.786 2.312 2.243.543-1.292-.34-2.107c-.884-.816-1.156-1.428-1.428-2.788s.068-1.903.476-2.175.884.544 3.399 2.72c2.515 2.175 3.195 3.942 3.671 5.302s.544 2.719 1.427 5.438c.884 2.72.952 4.01.884 5.846s.136 2.855.748 3.127.407-1.427.407-4.146c0-2.72-.067-4.08.34-5.099s1.088-3.467 1.156-4.962c.068-1.496-.407-2.856-1.496-4.691-1.087-1.836-1.495-2.447-1.495-3.535s.816-.68 1.835-.34 2.72 1.972 3.332 3.739c.611 1.768.951.612.951-.816s0-2.447.272-3.059 1.767-.816 2.583-1.495 2.992-.68 3.4-.204.135 2.107-1.02 2.583-1.224 1.36-1.088 2.515-.136 1.631-.748 2.107c-.61.476-.475 1.088-.068 1.632.408.544.68 1.768.544 2.311-.136.544-.544 1.428-.407 2.312.135.883.747 2.04.34 3.263-.41 1.223-.953 1.563-1.7 1.291-.748-.272-1.7-.068-2.448 1.632-.747 1.7-.747 5.234-.747 8.43 0 3.194.067 3.535-.952 3.67-.687.092-1.36-1.495-1.836-3.195-.475-1.7-2.855-4.419-3.67-4.826-.816-.408-2.176-1.496-2.924-2.108-.747-.611-1.835-1.088-2.583-.952s-.476 1.292.272 2.584c.748 1.291 1.564 2.447.816 3.33-.748.884-1.156.749-2.04-1.087-.883-1.836-1.291-3.807-1.767-5.778-.476-1.972-2.243-4.827-4.351-6.458s-3.875-3.263-7.273-3.332c-3.4-.067-4.283.069-5.1-.543-.815-.612-1.631-1.02-1.495 0s.204 1.224 1.02 2.175c.816.952.817 1.586.136 2.04-1.02.68-2.583.135-3.739-.34s-3.942-1.36-5.098-.816-2.788 1.155-4.555.952-2.584-.748-4.35.68c-1.768 1.427-2.04 2.379-2.448 3.263s-1.768 1.223-1.292-.748 1.36-3.74 2.584-4.895 2.72-1.904 1.087-1.904c-1.63 0-2.99 0-4.419-1.155a261 261 0 0 0-5.438-4.283c-1.7-1.291-2.515-2.923-3.807-4.486-1.291-1.564-2.583-2.72-2.446-3.331.135-.612 1.63-1.156 3.534-1.088s5.643.272 8.09 1.563c2.447 1.292 4.895 2.516 6.321 4.488 1.429 1.97 2.108 3.33 3.06 4.078s1.156.068 1.563-.476.476-.816-.407-2.787c-.885-1.971-.952-3.331-.952-4.623 0-1.291.067-2.175 2.447-.68 2.38 1.496 1.904 2.516 3.127 4.011 1.224 1.496 2.244 2.652 4.35 2.652 2.108 0 4.692.068 5.847-.136s2.651-1.156 4.895 1.155M252.805 732.851c-.605.725-1.292-.476-.748-1.427.544-.953.408-2.924-.204-3.807-.612-.884-.883-1.904-.408-2.652.476-.747 1.495-.611 2.515.884s1.631 3.263 1.088 4.487c-.544 1.223-1.563 1.7-2.243 2.515M228.672 719.731c-1.138-.643-1.836-2.107-1.564-2.787s.816-.952 2.04-.748c1.223.204 2.039 1.02 2.515 1.02s1.631-.816 2.312-.068c.679.747.679 1.7-.409 2.31-1.087.613-3.33 1.157-4.894.273M263.749 725.713c-.668.892-1.087.476-1.087-.544s-1.088-2.379-1.088-3.127 0-1.223.68-1.02c.68.205 1.155 1.156 1.631 2.38s.272 1.767-.136 2.31" style="fill:#fbc30f;fill-opacity:1;fill-rule:evenodd;stroke:none" transform="matrix(1.33333 0 0 -1.33333 -.667 1121.853)"></path><path d="M247.298 717.08c.174.52.068.951-1.155 1.088-1.224.135-1.972.475-2.448 1.835s-.34 4.01.817 5.302c1.154 1.292 3.52 1.809 4.418 1.36.544-.272.475-1.292.544-2.175.068-.885.883-1.972 1.767-2.244s2.175-.068 2.72.952c.543 1.02 1.36 1.291 1.903.748.544-.544.816-2.312.068-3.671-.748-1.36-1.428-2.04-2.787-2.04-1.36 0-1.904-.34-1.292-1.495s.748-2.38 1.632-2.584c.884-.203 1.29.136 1.495 1.292.204 1.156.408 1.7 1.428 3.06s1.291 1.767 1.427 2.514c.136.748 1.292 1.02 1.563.272.272-.747.68-1.767 1.904-1.835s2.04-.068 2.04-1.564-.408-2.447-1.7-3.195-1.972-.408-2.72-.475c-.747-.068-1.223-.748-2.582-2.448-1.36-1.7-1.564-2.311-2.108-4.554-.543-2.244-.34-2.992.477-4.147.815-1.156 2.174-3.467 2.99-5.099.816-1.631.816-1.903 1.428-4.554.611-2.652 1.7-4.147 3.807-5.643s3.399-1.36 4.554-2.039c1.157-.68.952-1.36 1.088-2.923.136-1.564.272-2.312 1.156-3.195.883-.884.408-1.904-1.087-2.516-1.497-.611-3.491-2.154-5.236-4.078-1.971-2.175-2.855-4.01-3.806-5.303-.952-1.291-2.992-3.943-4.827-4.894-1.836-.952-3.127-1.496-3.127-.544s.748 1.428 1.972 2.923 2.175 3.195 2.243 5.099c.068 1.903-1.02 3.263-2.924 3.807-1.903.543-2.855 0-4.486-.816s-2.72-1.496-2.583.067c.136 1.564.272 4.76 1.36 5.779 1.087 1.02 2.174 1.768 1.087 2.515-1.088.748-3.263.816-4.69.068s-2.38-1.224-3.127-2.583c-.749-1.36-1.428-1.972-1.768-1.7s-.68 2.108-.408 3.06c.272.951.816 2.107 1.155 3.534.34 1.428 1.768 2.856 3.06 3.535s2.175.952 3.603.476c1.427-.476 1.563-.476 1.835.272s-.476 1.428-1.087 2.651c-.613 1.224-.613.952-1.836 1.7s-2.311.952-2.448.068c-.135-.884-.68-1.836-1.902-2.515-1.225-.68-2.448-1.36-3.264-.68s-1.02 1.36-.883 2.243c.135.884 1.088 1.496 1.631 2.38.544.883.884 1.359.136 2.175s-1.632 1.427-.476 2.855 2.175 1.972 2.923 1.972.816-.137.884-1.292.272-1.36.951-1.36c.68 0 1.088.476 1.157 1.428.068.951-.205 1.563-1.157 3.33-.95 1.768-1.63 3.128-1.63 4.148s.067 1.02-1.157 1.02-2.039-.953-2.583-1.632c-.544-.68-1.835-1.156-2.99-1.02-1.157.136-2.244.884-2.788 1.835-.544.952-1.428 2.448-1.428 3.467s.816 1.768 2.515 2.583 2.652 1.564 3.4 3.06.612 2.107 0 2.787-.204 1.292 1.223 1.292 2.448-.952 2.855-1.7.136-1.971.884-2.923 1.632-1.156 2.311-1.156c.68 0 .884.952 1.972.884 1.087-.068 1.768.136 2.107 1.156M274.286 684.653c-1.222.088-1.223-.476-.612-1.36.612-.883 1.224-1.087 2.312-.951s1.087.408.475 1.088c-.61.68-1.223 1.155-2.175 1.223" style="fill:#fbc30f;fill-opacity:1;fill-rule:evenodd;stroke:none" transform="matrix(1.33333 0 0 -1.33333 -.667 1121.853)"></path><path d="M235.878 696.142c-.874.131-1.564-.34-2.584-1.088s-1.155-1.495-.272-1.7c.884-.203 1.564-.407 2.244-.407s1.02.612 1.631 1.563c.612.952.34 1.428-1.02 1.632M293.049 668.61c-2.312 0-3.4-1.02-5.44-2.447-4.096-2.868-43.03-27.532-50.032-31.61-3.586-2.09-4.758-3.672-4.622-4.283.205-.922 1.754.034 5.438 2.175 20.938 12.168 45.78 28.111 50.645 31.679 2.04 1.495 8.703 4.486 4.01 4.486M276.19 663.716c-.397-.264-.612-.544-1.496-1.36-.883-.816-3.06-2.38-5.778-2.583-2.72-.204-3.943 0-5.438-1.564-1.496-1.563-2.651-3.603-3.264-5.234-.611-1.632-.204-3.06 2.04-1.632 2.243 1.428 10.945 6.798 13.052 8.43s1.835 2.039 1.7 2.787c-.136.748-.408 1.427-.816 1.156M311.2 658.413c.916 1.757 1.223 2.923 1.02 2.991-.556.185-2.176-1.087-4.216-3.263-2.04-2.175-4.215-6.186-4.486-8.497-.272-2.311-.544-2.855-.816-4.894s-.272-6.458-.748-9.11-.816-4.079-1.496-5.575c-.68-1.495-2.923-3.534-3.466-3.534s-1.292.747-1.7 4.215c-.455 3.866-2.855 4.758-3.603 7.205s-2.311 4.215-2.923 5.915c-.612 1.699-.544 4.418.136 6.934.68 2.514.952 3.602 1.835 4.35.884.748 1.36 1.496.884 2.38s-1.224.271-2.176-.68c-.95-.952-2.243-.68-2.243-1.768s.273-1.088-.408-2.447c-.68-1.36-1.155-.816-1.767-.136s-1.088 1.292-.816 3.331c.272 2.04.612 2.923 1.836 3.67 1.224.749 5.234 3.468 7.41 4.896 2.175 1.427 2.99 1.63 3.535 1.29.543-.34 0-1.223-.408-2.65-.408-1.428-.136-1.836.136-3.127.272-1.292.68-2.855.475-4.351-.203-1.495-.883-3.059-1.903-4.146-1.02-1.089-1.088-1.7-.476-2.04s1.087.34 2.991 2.447c2.481 2.747 3.943 4.962 5.302 7.546 1.36 2.583 1.02 3.603 1.768 3.875s.544-.272 1.02-1.564c.476-1.291.068-1.971 1.156-1.835s.883 1.156.951 3.059 1.224 3.603 3.331 5.098c2.108 1.496 3.67 3.331 4.894 5.37s1.501 2.472 2.04 1.972c.952-.884.34-2.243-1.02-4.147-1.359-1.903-2.039-2.855-2.855-3.535s-1.019-1.223.612-1.223c1.632 0 2.787.475 3.331-1.36s.815-4.147.884-6.118c.068-1.971.951-4.759.951-8.022s.68-6.118.409-8.02c-.273-1.905-.477-4.284-1.564-5.848-1.088-1.563-1.564-2.175-2.107.137-.544 2.31-1.02 4.418-2.72 7.137-1.7 2.72-3.059 4.215-3.739 5.303-.68 1.087-.544 2.923-.544 4.35 0 1.428.477 2.856 1.292 4.42M281.356 656.578c-1.048-.74-1.496-1.496-.612-2.04s1.7-.883 1.768.136 0 2.72-1.156 1.904M276.326 653.314c-2.108-1.462-5.507-3.534-7.139-4.554-1.63-1.02-.951-1.496.205-1.631 1.155-.136 3.807-.748 5.439-1.02 1.63-.272 3.941-.204 5.846.475 1.903.68 3.126 1.224 3.874 2.176s.408 1.36-.748 1.835a7.8 7.8 0 0 0-3.263 2.583c-.883 1.224-.883 2.448-4.214.136M259.195 642.981c-1.916-1.094-1.904-1.63-1.904-2.787 0-1.155.816-1.563 1.224-1.427.407.136.612 1.087 1.36 2.175.747 1.088 1.7 3.4-.68 2.04" style="fill:#fbc30f;fill-opacity:1;fill-rule:evenodd;stroke:none" transform="matrix(1.33333 0 0 -1.33333 -.667 1121.853)"></path><path d="M252.873 638.7c-2.717-1.594-3.74-2.244-4.623-2.72-.884-.476-.544-.748-.136-1.36s0-3.195-1.088-3.943c-1.088-.747-3.807-2.38-3.262-3.127.543-.747 1.563-1.02 2.514-1.02.952 0 1.156.34 3.74 1.7 2.583 1.36 4.282 1.496 6.186 3.127 1.903 1.632 6.458 4.76 8.77 6.526 2.31 1.768 5.234 3.4 5.437 4.08s.069.951-1.291.951-2.855.272-4.555-1.088-2.855-2.583-5.438-5.302c-2.584-2.72-2.72-3.331-3.127-3.263-.409.068-.612.271-.409 2.447.205 2.175.205 3.263-.34 3.67-.543.409-.407.476-2.378-.679M237.44 641.01c-1.104.582-2.106-.068-2.174-.747-.068-.68.272-2.108.34-3.06s1.087-1.427 2.04-.543c.95.883 1.291 1.632 1.291 2.311 0 .68-.204 1.36-1.496 2.04" style="fill:#fbc30f;fill-opacity:1;fill-rule:evenodd;stroke:none" transform="matrix(1.33333 0 0 -1.33333 -.667 1121.853)"></path><path d="M285.979 644.953c-.738.138-2.583-.884-4.962-1.36-2.38-.475-5.303-1.29-9.79-4.418-4.486-3.127-8.498-6.662-13.596-9.517s-8.022-5.099-10.74-4.963c-2.72.136-4.487-.068-4.76 1.428-.271 1.495-.543 2.515.341 3.263.883.748 2.548 1.257 3.262 1.971.544.544.544 1.563.137 2.175-.408.613-1.142.453-4.011-1.36-3.875-2.446-4.759-3.194-4.01-3.942.747-.748.95-1.292.135-1.903-.816-.612-2.923-.544-3.943-.204s-2.175 1.223-2.583 2.72c-.408 1.494-.272 4.01.544 4.825s1.087 1.564-.408 2.516-3.331 1.087-4.962-.34c-1.632-1.428-2.652-2.991-2.652-5.642 0-2.04.68-4.08.204-5.303s-1.224-1.563-1.903-1.02c-.68.544-1.156.748-.68 2.312s.612 2.923 0 3.943-1.836.884-2.991 0-2.244-1.496-2.855-3.603c-.612-2.108-.612-3.672-.069-5.643.544-1.971.612-3.059 3.06-3.059s3.467.476 4.623 1.292c1.155.816 2.692 1.087 2.65.204-.067-1.428-.815-.816-2.311-1.564s-2.379-1.835-2.99-2.65c-.613-.817-.85-1.16-1.904-.75-1.564.613-2.991-.678-3.331-1.835-.34-1.155-.612-2.174 1.156-3.466s3.194-1.7 4.078-1.36 1.564.884 2.38 1.632 1.02.951.544 2.38c-.477 1.427-.612 1.902.135 2.719.748.815 2.107.475 4.079.475s3.399-.612 3.943-1.292.068-1.563-.544-2.718c-.611-1.156-1.088-2.448-.884-3.875s1.156-2.38 2.175-.544c1.02 1.835 3.671 4.554 5.915 5.846s4.622 1.699 5.574 1.699.748-.543-.271-1.63c-1.02-1.089-2.787-3.672-3.127-5.1s0-2.175.883-2.107c.884.068 1.292.68 2.311 2.515 1.02 1.836 2.447 2.72 5.031 4.691s3.535 2.38 4.894 2.515c1.36.136.816-.544.068-1.156s-2.311-3.467-2.311-6.118c0-2.65.136-4.35.476-6.39s1.156-2.04 1.767-.748c.613 1.292 1.02 2.991 2.38 6.187 1.36 3.194 3.467 4.894 4.214 5.166s2.312-.408 3.399-1.495 1.564-2.108 1.836-4.419c.271-2.311-.136-4.895.204-5.099s1.155-.204 2.719 1.835 3.127 4.76 5.098 6.391 5.031 3.263 7.478 4.486c2.447 1.225 4.215 1.972 6.526 4.555 2.311 2.584 2.991 3.603 4.215 6.458s1.496 4.555.408 6.526-2.175 3.603-3.263 5.507-1.428 1.767-1.632 4.622-.272 3.536-1.36 3.74M206.85 619.325c-.413.414-1.971-.272-2.175-.952s-.884-2.243.068-3.331 1.292-1.768 2.04-.816c.747.952 1.427 3.74.068 5.099M211.813 619.188c-2.175-1.359-2.788-2.106-2.108-2.99s.748-.884 2.788.476 2.583 1.971 2.311 2.786c-.272.816-.816 1.088-2.991-.272M216.64 606.884c-1.058.94-1.768.272-2.176-1.495s-.408-2.855.34-3.535 1.155-.408 1.767 1.292 1.292 2.65.069 3.738M311.879 499.408c1.23 1.878 2.29 2.473 3.195 2.516 1.428.068 2.04.34 2.447 1.495s1.156 1.904 1.156 3.127c0 1.224-1.02.817-1.495-.203s-.953-1.565-1.972-1.7c-1.02-.136-1.155.205-2.584-.884-1.427-1.087-2.04-2.31-2.515-3.603-.475-1.291-1.359-1.224-2.175-1.155s-.68.951-.68 2.379.544 1.836 1.564 1.903c1.02.068 1.564 1.427 1.631 1.972.069.543-.067 1.02-.68.475-.611-.543-1.223-.815-2.175-.543s-1.971.748-3.399 1.223c-1.427.477-1.699.612-1.903 1.292s.68.748 1.631 1.088c.952.34 1.429 1.36 1.429 2.447 0 1.088-.817 1.904-1.36 2.719-.545.816 0 1.565 1.02 1.7 1.019.136 1.699-.135 2.854-1.088 1.156-.952 2.38-2.923 3.4-3.739 1.019-.815 2.107-1.155 3.33-.952 1.224.205 1.768.68 1.904 1.7s.951 1.836 3.126 4.01c2.176 2.176 2.448 3.06 2.924 4.215.476 1.157.544 2.108 1.495 3.876.953 1.767.544 2.446.34 2.855-.203.407-1.36 1.631-1.632 2.651s-.747 1.767-1.631 1.767c-.883 0-2.582.408-3.535.68-.951.272-2.04.544-2.583.136s-1.224-.952-2.855-.747c-1.631.203-3.739.34-5.846.679-2.108.34-2.72 1.36-3.671 2.787-.952 1.429-2.175 1.156-2.583-.068s-.952-2.65-1.972-3.875c-1.02-1.223-.952.884-.68 4.352.273 3.466-.136 8.7-.067 11.827.067 3.128 1.427 6.866 2.922 9.245 1.496 2.38 2.584 3.807 5.235 6.866 2.65 3.06 4.622 8.158 5.71 10.81 1.088 2.65.884 5.438-.203 8.429a578 578 0 0 1-4.827 12.712c-1.564 3.944-5.643 14.548-6.526 17.063-.884 2.515-1.291 2.72-1.904 2.04-.612-.68-.952-.885-1.427-.545s-.749.408-1.36-.135c-.612-.544.476-.952 1.428-1.904.952-.951 2.582-4.215 3.806-6.526s2.583-4.42 2.652-5.574c.068-1.156-.136-1.156-.68-1.156s-1.292 1.36-2.787 2.583c-1.496 1.224-2.923 1.904-4.623 2.448s-2.855 1.291-3.535 1.97c-.68.68-2.651 3.74-3.67 5.304-1.02 1.563-.34 2.515 1.427 4.079s2.515 3.466 3.67 5.914c1.156 2.446 1.496 2.651 3.196 2.651s3.331 1.767 4.962 4.01c1.632 2.244 2.855 4.963 2.991 6.662.136 1.7-.068 4.147.816 8.838s1.903 5.71 3.06 5.71c1.155 0 2.786-1.495 4.69-4.078 1.903-2.584 2.447-4.487 2.447-5.915s-.747-1.903-1.496-3.74c-.747-1.834-.34-4.893.273-8.7.611-3.807 2.039-8.498 3.534-14.412 1.496-5.914 5.303-19.238 7.206-24.2 1.904-4.963 4.08-9.518 6.05-11.83 1.972-2.31 5.37-4.962 8.226-5.301 2.855-.34 5.778.135 7.954 2.515 2.175 2.38 3.059 4.214 3.262 7.273.205 3.06.068 4.76-1.699 6.323s-4.418 2.243-7.818 5.71-5.506 6.458-5.506 10.333.68 7.953 3.74 11.352c3.058 3.4 7.001 6.866 9.516 8.974 2.515 2.107 3.671 3.535 5.507 5.506s2.651 3.331 3.195 3.331.611-1.155-.204-4.079-1.496-4.282-5.234-7.274c-3.74-2.99-7.547-5.914-9.45-7.885-1.904-1.972-3.603-4.894-4.01-6.798-.409-1.904-.204-3.4.339-3.807.544-.408.816.204 1.156 2.447.34 2.244 1.835 4.963 5.37 7.954s8.702 6.934 11.08 9.042c2.38 2.106 3.332 3.059 4.895 5.914 1.564 2.855 2.107 5.302 2.72 5.234.611-.068 1.087-.612.407-3.127-.68-2.516-1.835-6.458-4.01-9.45-2.176-2.99-3.671-3.942-5.303-4.418-1.631-.476-5.098-3.195-6.525-4.555s-3.604-4.894-4.08-6.118c-.475-1.223-1.155-2.311.476-.34 1.632 1.972 4.147 4.555 5.983 5.71s2.854 1.496 4.282 1.496 2.855-.408 3.263-2.243 1.428-2.72 2.787-3.739c1.36-1.02 1.768-1.156 2.788-.952s1.495-.204.476-1.291c-1.02-1.088-2.992-1.496-4.284-.952-1.291.543-2.514 1.768-4.146 3.127-1.631 1.36-4.079 1.563-5.37.544-1.292-1.02-3.4-4.555-3.4-7.002s.816-5.71 3.4-9.314c2.583-3.602 4.146-6.525 4.146-9.993s-.543-5.37-1.495-6.322c-.952-.95-2.312-1.495-1.428-2.106.883-.612 1.632-1.496 1.903-3.196.273-1.7.477-3.263.68-4.35.204-1.088-.748-1.904-1.291-1.904-.544 0-1.02 1.7-2.923 2.04s-3.264-.069-5.439-.205-6.39.272-10.129 2.856-8.021 6.865-9.925 8.837-4.01 2.787-3.398.883c.61-1.903 1.427-6.933 1.495-12.576.068-5.642-.816-10.196-1.156-11.284s-.748-1.496.612-2.787c1.36-1.292 3.875-3.127 5.166-3.535s1.428-.272 1.36.475c-.068.748-.544.477-1.36 1.088-.815.612-.815.816.069 2.516s2.039 3.738 2.515 4.282 1.427.408 2.175.068.544-1.087.747-3.127c.205-2.04.816-4.419 1.632-6.05s2.108-2.243 3.671-2.243c1.564 0 1.972-.34 1.7-1.428s-.884-1.496-1.632-1.836-.612-.883.204-1.223 2.073-.51 2.617-2.481.85-5.2.238-5.813c-.612-.611-.952-1.087-1.36-.068-.407 1.02-.475 1.02.069 1.428s.475.884-.272.884c-.748 0-1.292 0-1.768.748-.475.747-1.02.34-.272-1.156s1.768-3.331 1.7-4.963c-.068-1.63-.476-2.379-1.428-2.311s-1.563.612-2.31 2.04c-.749 1.427-1.973 1.903-1.089-.069s.816-3.942.612-5.03-.408-2.108.272-2.108 2.04 0 3.127-1.7c1.087-1.698 1.224-3.602.884-4.35s-1.768-2.31-1.971-2.786c-.205-.477.203-1.7-1.428-1.7s-2.924.203-3.807 1.223c-.884 1.02-1.224 1.02-1.088 2.856.137 1.835-.68 2.243-1.155 1.087-.477-1.156-1.36-1.767-2.72-2.311s-1.767-1.36-2.379-2.583-1.7-1.971-1.903-2.788c-.204-.815.271-.883.883-1.903s.544-3.943.34-6.118c-.203-2.176-.272-3.33-1.291-4.215-1.02-.883-2.38-1.156-3.67 0-1.293 1.156-1.972 2.039-2.992 1.496s-1.088-1.496-2.108-2.176-2.039-1.36-2.65-.136c-.613 1.225-.545 4.079.747 6.05" style="fill:#fbc30f;fill-opacity:1;fill-rule:evenodd;stroke:none" transform="matrix(1.33333 0 0 -1.33333 -.667 1121.853)"></path><path d="M295.02 600.97c-1.599.819-2.583.204-4.555-.747-1.97-.952-2.99-1.495-3.942-3.875s-1.632-2.923-2.72-2.311c-1.087.611-2.786 1.359-5.37-.34s-4.147-3.332-6.118-6.934c-1.971-3.604-2.65-4.895-4.419-7.342s-2.107-3.467-1.02-3.604c1.088-.135 1.972-.68.408-1.97-1.563-1.292-2.039-1.768-2.039-2.924s.68-2.04 2.04-.883c1.36 1.155 3.33 2.65 4.146 3.942s1.836 2.244 1.836 4.351.612 4.487.884 1.428c.27-3.06.883-5.846 1.766-7.206.884-1.36 2.04-1.767 2.72-2.244.68-.476.475-1.427.748-3.602.272-2.176.884-3.196-.136-5.099s-2.04-3.671-3.535-5.643c-1.496-1.97-1.632-3.33-2.108-4.214-.475-.884-1.971-1.903-3.398-2.175s-3.127-1.7-7.139-1.904c-4.01-.204-4.894-.068-5.438 2.108-.544 2.175-.611 3.058.476 4.078 1.088 1.02 1.7 1.632.68 2.856s-2.04 1.563-2.447 1.63c-.408.07-1.089-.27-1.156-1.359-.068-1.087-.748-2.04-1.563-2.515-.816-.476-1.429-.544-2.856-.34s-2.651-.068-2.107-1.563c.544-1.496.476-2.244 2.107-2.787 1.632-.545 2.04-1.564 1.7-2.04s-1.564-.68-2.923.204c-1.36.884-2.72 1.02-3.67-.068-.953-1.088-1.633-2.379-1.157-2.923s.476-1.156-.612-1.087c-1.087.067-2.379-.816-3.535-2.176-1.155-1.359-1.971-2.04-.068-2.175 1.904-.136 3.195-.476 3.875.272.68.747.748 1.767.748 2.719 0 .95.408 1.36 1.291.475.884-.883.884-1.63-.476-2.719-1.36-1.087-2.039-2.039-1.97-2.855.067-.816.272-1.38 1.766-1.428 2.176-.066 1.632-.135 3.468 1.633 1.835 1.767 3.467 2.65 4.35 2.854.884.204 2.759-.575 3.06-.816.679-.543.203-2.038-.341-3.059-.543-1.019-1.427-1.767-1.36-.272.07 1.496-.27 2.244-1.495 2.244-1.224 0-2.106-.476-2.99-1.631s-2.243-2.176-2.108-2.72c.136-.544.544-.544 1.291-.952.748-.407 1.496-.884 1.632-2.447s.612-2.379 2.108-3.195 3.059-.748 4.622.204c1.564.952 2.447 1.903 2.787 4.42.34 2.514.069 3.057-.204 3.806-.272.747 0 1.495 1.223 1.564 1.225.067 2.38.203 3.4 1.63 1.02 1.428 2.04 1.428 3.33 1.224 1.293-.204 1.7-.407 1.7-1.291s-1.427-1.36-2.04-2.176c-.61-.815-1.019-1.836-1.019-2.99 0-1.156.68-1.633 1.428-1.156.748.476 1.495.543 2.583.543s1.156-.816.748-1.292c-.408-.475-1.36-.271-2.38-1.29s-1.699-2.04-2.446-3.128c-.26-.375.407-1.088 1.495-.544s2.311 1.292 2.99 2.244c.68.951-.203 1.223 1.293 1.971 1.495.747 2.107.408 2.039 2.651-.067 2.244-.272 3.059-1.427 3.059s-2.244.136-1.632 1.564.75 2.327 2.312 2.243c2.514-.136 3.33 0 4.554 1.292 1.224 1.29 1.292 1.767 1.224 3.943-.069 2.175-.272 3.058 1.088 3.467 1.359.407 1.563-.409 1.086-2.108-.475-1.7-.407-3.127.069-3.739.476-.611 1.36-1.427 1.564 1.292s.883 4.486 1.7 7.477c.815 2.992 1.223 3.74 2.242 4.963 1.02 1.224 1.088 1.7 1.02 2.583s.476 1.088 1.563.068c1.089-1.02 1.292-1.767 1.972-1.767s1.224.408 1.02 1.971-.884 3.875-.816 5.983.951 3.943 1.903 5.03 2.72 1.904 4.012 2.584c1.29.68 3.67.407 5.097-.069a23 23 0 0 0 3.128-1.291c.68-.34 1.155-.408 1.7 2.04.543 2.446.475 3.738-.273 3.806s-1.835-.272-2.923-.204c-1.087.068-4.418 1.02-6.39 2.856s-2.855 2.65-2.855 4.146.748 1.903 1.7 1.971c.951.069 3.262-.34 4.01-.34s1.767.68 2.448 1.428c.68.748.407 1.972-1.36 4.826-1.768 2.855-4.691 6.39-7.613 7.886" style="fill:#fbc30f;fill-opacity:1;fill-rule:evenodd;stroke:none" transform="matrix(1.33333 0 0 -1.33333 -.667 1121.853)"></path><path d="M251.037 559.91c-1.141.603-1.495 0-1.495-1.155s.34-2.312 1.36-2.855c1.019-.544 1.835-.34 2.379.543.543.884.204 2.176-2.244 3.468M249.202 531.835c-.95.047-1.632-.204-2.108-1.904-.475-1.7-.68-1.972.204-1.972.885 0 1.428.749 1.972 1.564.543.816 1.292 2.244-.068 2.312M300.459 585.81c-1.773 0-2.447-.203-1.564-1.835.883-1.63 3.263-2.31 4.758-2.719s3.196-.544 4.08-.068 1.223 1.02.68 3.127c-.545 2.108-.748 2.991-1.633 3.67-.883.68-1.563.273-2.446-.746-.885-1.02-1.904-1.428-3.876-1.428M302.566 504.303c-1.059-.824-1.903-2.583-1.02-3.874.884-1.292 1.632-2.04 1.7-3.4s-.612-2.99-1.02-3.466c-.408-.477 0-1.02 1.02-2.176s2.243-1.36 3.059-1.088c.815.272 1.427.816 1.7 2.72.271 1.903-.273 3.127-.817 4.486-.543 1.36-1.087 1.224-1.019 2.992.068 1.767-.34 2.582-1.428 3.466s-1.563.815-2.175.34" style="fill:#fbc30f;fill-opacity:1;fill-rule:evenodd;stroke:none" transform="matrix(1.33333 0 0 -1.33333 -.667 1121.853)"></path><path d="M299.71 499.749c-.888-.255-1.087-1.36-1.358-2.652-.273-1.291-1.429-2.31-1.565-3.33s-.067-2.856.476-2.923c.544-.07.952 0 1.496 1.36.543 1.359 1.971 2.106 2.311 2.582s.816 1.02.612 2.38-1.02 2.855-1.971 2.583M300.254 513.073c-1.399-.613-2.039-1.7-1.223-2.176s1.563-1.088 2.719-1.292 2.244-.204 2.244 1.224-.409 2.176-1.088 2.856c-.68.68-1.564-.137-2.652-.612M315.55 493.494c-.865-.191-.748-1.767-.748-3.195s.408-2.787 1.088-3.399 1.292-1.02 1.02 1.156c-.272 2.175 0 2.448.407 3.671.408 1.224.068 2.176-1.767 1.767M340.023 509.538c-1.835-.063-2.38-.34-1.7-1.02s1.564-1.36 2.448-1.088 1.835.476 1.835 1.36-.612.815-2.583.748" style="fill:#fbc30f;fill-opacity:1;fill-rule:evenodd;stroke:none" transform="matrix(1.33333 0 0 -1.33333 -.667 1121.853)"></path><path d="M150.27 687.722v-282.88H52.72c-.512 21.263-.53 44.356-.53 69.318v7.964l1.22.058h196.112l.58.056c10.096-26.246 14.792-45.028 14.792-45.028l32.502-8.16 32.503 8.16s4.688 18.753 14.77 44.97l.597.001H541.48l1.122-.02v-8.002c0-24.962-.018-48.054-.529-69.318h-97.55V687.45l.05.983a1369 1369 0 0 0-32.787 7.832l-.424.16s-4.842-6.098-8.752-16.403l1.374.084h81.294l2.664-.011c22.914-3.674 42.184-5.66 54.66-6.695v-92.312l-1.427.057H396.64l-1.61.007c-8.392-13.622-19.176-32.142-30.452-54.182-7.211-14.095-13.225-27.845-18.109-40.178l-.03-.894v-81.055h-98.085v80.579l.026 1.228c-4.894 12.37-10.926 26.17-18.165 40.32-11.281 22.05-22.069 40.576-30.463 54.2l-.753-.024H53.274l-1.084.016v92.239c12.5 1.037 31.821 3.029 54.792 6.716l1.915-.011h82.35l.887.044c-3.902 10.228-8.703 16.276-8.703 16.276l-.524-.186a1367 1367 0 0 0-32.594-7.785z" style="fill:#ed2025;fill-opacity:1;fill-rule:evenodd;stroke:none" transform="matrix(1.33333 0 0 -1.33333 -.667 1121.853)" data-source="https://football-logos.cc"></path><!-- source: https://football-logos.cc --></svg>