<svg xmlns="http://www.w3.org/2000/svg" viewBox="55.77 137.48 483.73 566.93"><!-- Source: https://football-logos.cc --><path d="M300.577 268.852a164 164 0 0 0 8.589 4.949c9.315.531 18.618 1.607 27.812 3.02 13.872 2.132 27.64 5.063 41.26 8.44 11.775 2.921 23.466 6.187 35.093 9.664a302 302 0 0 0 18.361-1.409c-41.813-14.768-86.836-24.094-131.115-24.664m137.957 23.862a367 367 0 0 0 10.183-1.444c-14.978-6.286-31.398-11.758-47.843-16.045-15.316-3.993-30.885-7.203-47.274-9.669-9.06-1.362-19.223-2.631-28.257-3.348a65.4 65.4 0 0 1-11.135 4.013c42.256 2.2 84.811 11.961 124.326 26.493m-287.186.14c41.132-16.327 84.682-25.109 128.79-26.8l-.116-.032a65.4 65.4 0 0 1-10.109-3.685c-9.03.717-19.183 1.985-28.237 3.348-16.39 2.465-31.959 5.675-47.275 9.668-16.925 4.412-33.822 10.08-49.149 16.597q3.038.494 6.096.904m142.732-24.026c-46.559.217-92.712 8.303-136.253 24.81 2.7.29 5.407.538 8.113.747 21.747-6.23 44.05-11.287 66.33-14.999 17.521-2.918 35.544-5.108 53.417-5.756a165 165 0 0 0 8.393-4.802m22.193 8.565c7.72 3.668 15.65 6.694 23.822 9.164 3.938-.183 7.878-.208 11.827-.028 14.161.648 27.54 4.029 40.8 8.522q5.303.185 10.612.142c-8.572-2.468-17.181-4.802-25.836-6.949-13.53-3.355-27.207-6.267-40.987-8.385-6.7-1.03-13.459-1.88-20.238-2.466m-37.297-.371c-15.493.891-31.039 2.87-46.2 5.396a595 595 0 0 0-57.454 12.544q1.008.046 2.015.088c8.06.325 16.21.362 24.32.03 4.866-1.824 9.776-3.529 14.763-5 8.968-2.644 17.957-4.421 27.272-5.28 5.96-.55 11.946-.728 17.93-.629a173 173 0 0 0 17.354-7.15m72.38 12.559q5.465 1.29 11.08 2.3c5.67 1.02 11.37 1.786 17.087 2.323-9.028-2.458-18.21-4.169-27.742-4.605zm-99.743-2.225q-3.825.154-7.64.504c-9.115.84-17.908 2.58-26.684 5.168q-2.175.642-4.334 1.342l.984-.087c12.835-1.157 25.451-3.42 37.674-6.927m202.94 6.438 19.426 40.203-.24.542c-4.73 10.695-8.75 21.745-12.07 32.957-5.499 18.567-9.353 38.392-10.098 57.768-.17 4.417-.124 8.84.115 13.254 1.598 29.469 11.817 58.598 24.793 84.855l.23.463-.158.493c-13.145 41.218-33.243 79.273-63.877 110.153-32.056 32.313-72.347 54.446-114.898 69.767l-.444.16-.441-.166c-39.836-15.02-80.275-35.746-111.21-65.47-33.276-31.972-53.463-70.184-67.434-113.78l-.16-.497.234-.467c14.568-29.137 25.18-62.577 24.837-95.406-.341-32.68-10.9-63.58-22.183-93.88l-.19-.514 19.478-40.101a253 253 0 0 0-11.81 5.646c-6.624-8.482-13.663-16.25-21.502-22.644-2.24-1.826-4.262-3.541-6.64-5.128-6.295-4.198-12.048-8.923-20.33-8.493-4.047.21-6.653 1.695-9.128 5.025L55.775 244.38l23.574-12.444 3.89 6.138 12.837-6.118-3.293-6.663 22.733-12.01 9.144 24.996-12.574 7.156c-1.225 1.114-.522 1.947.39 2.192l4.667 1.252 36.404-12.015 1.685-6.847-11.632 3.01-9.474-23.68 23.504-8.75 3.35 6.958 14.67-4.225-1.537-8.424 24.54-7.652 6.684 27.044-9.388 3.345 5.381 4.236 30.112-6.22-.331-6.076-5.247-.746-5.526-30.146 16.09-.046c9.689-24.12 33.378-41.165 61.061-41.165 27.633 0 51.287 16.985 61.008 41.036l16.44.047-5.525 30.146-5.247.746-.331 6.075 30.112 6.22 5.38-4.235-9.387-3.345 6.684-27.044 24.54 7.652-1.537 8.424 14.67 4.225 3.35-6.958 23.504 8.75-9.475 23.68-11.631-3.01 1.685 6.847 36.404 12.015 4.666-1.252c.913-.245 1.616-1.078.39-2.192l-12.573-7.157 9.143-24.995 22.733 12.01-3.293 6.663 12.838 6.118 3.89-6.139 23.574 12.445-15.078 24.154c-2.476-3.33-5.081-4.814-9.128-5.025-8.282-.43-14.036 4.294-20.33 8.493-2.378 1.587-4.401 3.302-6.64 5.128-7.84 6.394-14.879 14.162-21.503 22.644a255 255 0 0 0-12.269-5.852" style="fill:#000200;fill-rule:evenodd" data-source="https://football-logos.cc"></path><path d="M142.352 292.759c22.142 3.89 49.588 4.794 71.702 2.8 31.817-2.87 59.689-12.213 83.267-27.244l.021.014v434.715c-45.07-16.992-82.87-38.383-110.774-65.195-33.099-31.802-53.145-69.696-67.102-113.247 13.719-27.439 25.333-61.573 24.973-95.992-.326-31.165-9.505-60.05-22.264-94.315z" style="fill:#ffe100;fill-rule:evenodd"></path><path d="M233.575 412.796h127.58v83.554c0 35.276-28.966 62.155-63.79 62.155-34.807 0-63.79-27.399-63.79-62.54z" style="fill:#000200;fill-rule:evenodd"></path><path d="M326.82 550.73c-8.81 4.49-18.842 7.006-29.455 7.006-12.451 0-24.104-3.534-33.92-9.666 2.504-.018 4.742.523 7.07 1.442 4.23 1.67 7.834 3.604 12.543 3.494 3.055-.072 5.5-1.175 8.332-1.968 2.66-.745 5.708-1.189 8.566-1.162 2.05.02 3.819.303 5.813.697 4.299.85 8.684 2.586 13.102 2.422 1.947-.072 3.562-.629 5.366-1.322a58 58 0 0 1 2.582-.943m-92.477-137.165h126.044v82.785c0 4.797-.545 9.442-1.575 13.885-3.167.65-6.98.682-9.71.171-3.904-.73-7.667-2.066-11.59-2.68-5.855-.916-11.54.164-17.04 2.21-3.9 1.45-7.685 3.368-11.67 4.557-4.364 1.3-8.75 1.582-13.273 1.582-6.047 0-10.506-1.186-15.88-3.935-2.763-1.413-5.587-2.725-8.529-3.722-5.28-1.79-10.295-1.924-15.666-.412-3.767 1.06-7.214 2.553-11.205 2.696-2.722.097-5.614-.217-8.335-.904a61.3 61.3 0 0 1-1.571-13.832zM355.739 519.77a60 60 0 0 1-3.485 7.016q-.743.003-1.473-.024c-3.231-.115-6.962-.613-10.116-1.306-4.442-.976-7.633-1.829-12.199-.643-4.137 1.075-8.734 3.554-12.973 3.443-3.595-.093-5.98-1.77-9.196-2.905a18 18 0 0 0-2.798-.727c1.898-.198 3.784-.531 5.668-1.093 4.022-1.199 7.693-3.122 11.624-4.584 5.29-1.967 10.379-3.152 16.012-2.273 3.898.609 7.022 2.204 10.91 2.93 2.108.394 5.129.445 8.026.166m-112.956 7.183a61 61 0 0 1-3.742-7.456c1.868.257 3.748.358 5.51.295 4.155-.148 6.833-1.773 10.738-2.87 5.121-1.44 9.873-1.185 14.908.52 2.928.991 5.616 2.376 8.357 3.778 4.93 2.52 9.587 3.474 14.915 3.657-1.792.417-3.443 1.018-5.31 1.642-2.275.76-4.222 1.125-6.626 1.186-2.018.051-4.116-.223-6.004-.959-2.193-.855-4.625-1.986-6.89-2.581-4.614-1.214-8.79-.803-13.332.473-3.745 1.053-7.112 2.146-11.058 2.286q-.732.027-1.467.03m102.63 9.347a62 62 0 0 1-4.87 4.959 22.4 22.4 0 0 0-6.836-.884c-1.927.05-4.123.487-5.954 1.084a83 83 0 0 0-4.197 1.506c-1.57.605-3.04 1.005-4.733 1.068a18 18 0 0 1-3.091-.162c-2.435-.324-4.836-1.038-7.22-1.617-2.079-.504-4.37-1.024-6.604-1.214a21.6 21.6 0 0 0-5.555.241c-1.77.31-3.396.884-5.382 1.53-2.623.855-5.16 1.16-7.943 1.231-1.748.038-3.503-.083-5.164-.495-2.493-.619-4.764-1.972-7.135-2.91-2.607-1.03-4.85-1.605-7.686-1.524-3.052.087-5.907 1.057-8.774 1.983a62 62 0 0 1-4.216-4.25c1.885-.79 3.763-1.587 5.728-2.14 4.312-1.211 8.411-1.745 12.789-.595 1.13.297 2.38.75 3.234 1.234.855.483 1.832 1.13 2.93 1.558 2.044.795 4.64 1.1 6.831 1.046 2.529-.06 4.349-.325 6.743-1.123.452-.15 1.154-.581 1.595-.763 1.952-.804 3.37-1.418 5.525-1.648 3.062-.327 6.203-.171 9.15.773 2.234.717 3.914 1.794 5.567 2.522.99.436 1.477.753 3.01.79 1.654.04 3.994-.025 5.86-.508 3.327-.86 6.789-2.363 9.645-3.103 3.111-.807 6.292-.657 9.401-.092 1.217.22 2.423.613 3.61.873 1.323.29 2.54.505 3.742.63" style="fill:#e6e4e3;fill-rule:evenodd"></path><path d="M339.622 542.079a62.6 62.6 0 0 1-8.418 6.192 19.4 19.4 0 0 0-3.758.712c-1.295.383-2.506.901-3.76 1.384-1.644.631-3.097 1.027-4.872 1.093-4.192.155-8.638-1.582-12.747-2.395-2.089-.413-3.948-.704-6.096-.725-3.213-.032-6.014.856-9.063 1.736-2.627.758-5.128 1.33-7.887 1.393-4.424.103-7.957-1.684-11.942-3.258-2.64-1.043-5.172-1.752-8.043-1.67q-.871.026-1.722.137a63 63 0 0 1-6.172-4.796c2.604-.845 5.223-1.668 7.93-1.745 2.69-.076 5.063.605 7.537 1.582 2.946 1.163 5.212 2.397 8.146 2.99 1.238.25 2.913.388 4.297.357 2.935-.074 5.657-.84 8.382-1.578 2.725-.74 5.452-1.452 8.396-1.423 2.908.029 5.626.375 8.44 1.057 2.423.587 5.62 1.436 8.095 1.764 1.408.187 2.729.236 4.134.007 1.166-.19 2.273-.528 3.426-.973 1.387-.535 2.728-1.153 4.146-1.615 1.737-.567 3.45-.86 5.278-.907a24.4 24.4 0 0 1 6.273.68zm18.925-30.75a60 60 0 0 1-2.048 6.537c-1.22.16-2.45.232-3.671.21-2.275-.04-4.726-.422-6.948-.92-2.767-.62-5.506-1.687-8.328-2.128-5.9-.922-11.627.418-17.169 2.479-3.893 1.448-7.677 3.365-11.655 4.551-4.337 1.294-8.701 1.316-13.199 1.316-5.97 0-10.425-.793-15.763-3.522-2.817-1.44-5.553-2.845-8.564-3.866-5.329-1.805-10.396-1.941-15.817-.416-3.74 1.053-7.187 2.545-11.145 2.687a29.6 29.6 0 0 1-5.855-.393 61 61 0 0 1-2.2-6.946 31.2 31.2 0 0 0 8.101.807c4.123-.147 7.567-1.642 11.446-2.733 5.172-1.456 9.974-1.327 15.06.396 2.893.981 5.673 2.274 8.39 3.664 5.52 2.823 10.137 4.048 16.347 4.048 4.627 0 9.103-.295 13.565-1.626 4.015-1.197 7.81-3.118 11.736-4.578 5.332-1.984 10.846-3.046 16.524-2.158 3.906.611 7.666 1.947 11.559 2.675 2.732.511 6.435.505 9.634-.084m-6.9 16.48a61 61 0 0 1-5.06 7.11 26 26 0 0 1-1.664-.092c-2.225-.194-4.19-.843-6.343-1.3-3.41-.723-6.682-1.066-10.306-.126-4.211 1.092-8.61 3.543-12.903 3.435-3.683-.093-6.614-2.045-9.94-3.111-3.154-1.012-6.889-1.187-10.167-.838-2.315.246-3.85.764-5.946 1.627a21.7 21.7 0 0 1-7.792 1.643c-1.987.048-4.177-.22-6.032-.942-2.27-.884-4.187-1.973-6.533-2.59-4.654-1.224-9.01-.687-13.596.603-2.2.618-4.278 1.532-6.375 2.406a61.6 61.6 0 0 1-5.592-7.662q.444-.008.888-.024c4.046-.144 7.461-1.245 11.298-2.323 4.36-1.226 8.62-1.764 13.051-.598 2.2.58 4.38 1.839 6.522 2.673 2.016.787 4.246 1.084 6.402 1.03 2.505-.064 4.553-.447 6.924-1.239 2.647-.884 4.858-1.734 7.686-2.039 3.173-.34 6.76-.202 9.787.866 3.375 1.19 5.19 2.736 8.998 2.834 4.476.116 9.465-2.23 13.77-3.347 4.367-1.134 8.107-.412 12.362.523 3.215.707 6.366 1.34 9.659 1.458q.448.016.902.022" style="fill:#25b9df;fill-rule:evenodd"></path><path d="m225.795 373.838 5.529-1.812.906 2.904 3.084-.994-.74-2.728 4.891-1.293.783 2.892 3.363-1.04-.713-2.996 3.96-1.045c-.404-2.322-1.788-3.667-4.103-4.699l-.504-.224-1.345.343-.734-3.186q-.865.223-1.728.45l-.491.13-2.073-7.604 3.503-.872.738 2.738 3.665-.9-.566-2.691 4.36-.938.563 2.618 2.866-.636-.528-2.66 4.112-.884.531 2.659 3.61-.66-.421-2.622 4.964-.881.422 2.626 3.709-.613-.187-2.776 3.846-.648.544 7.951q-1.024.122-2.044.255l.497 3.02-.92.159c-1.984 1.694-3.301 4.143-2.31 6.773l5.26-.728.296 2.992 3.184-.354-.226-3.191 5.036-.483.283 3.107 3.467-.355-.07-3.177 3.223-.245c.242-2.86-.947-4.028-3.652-5.749l-.594.023-.51.02-.136-3.084q-.865.027-1.73.058l-.492.017-.588-7.924 4.02-.172.15 2.815 3.376-.099v-2.695h4.463v2.68h3.22v-2.68h4.207v2.68h3.477v-2.68h4.975v2.694l3.888.102.151-2.818 3.91.175-.732 8.186-.492-.025q-.93-.048-1.86-.09l-.126 2.86-.51-.02-.742-.03c-1.18.927-2.697 2.201-3.088 3.646-.187.69-.144 1.407-.028 2.104l3.303.25-.07 3.178 3.466.355.283-3.107 5.036.483-.226 3.19 3.183.355.297-2.992 5.42.75c.682-2.412-.034-4.263-1.802-6.207l-.372-.409-1.369-.226.608-3.212a299 299 0 0 0-1.764-.282l-.501-.078 1.157-7.796 3.558.609-.424 2.803 3.718.65.563-2.693 4.37.894-.537 2.623 2.88.569.585-2.647 4.121.843-.582 2.647 3.57.848.668-2.572 4.9 1.188-.669 2.575 3.643.93.944-2.618 3.782.952-2.697 7.5q-.986-.299-1.974-.589l-.757 2.965-.907-.223c-2.399.724-4.514 2.333-4.81 4.945l3.54.935-.713 2.995 3.363 1.04.782-2.891 4.892 1.292-.74 2.728 3.084.994.906-2.904 5.7 1.868-1.039-4.745-.549-.222 1.058-2.721-2.728-1.092 3.252-8.522 3.86 1.572-1.33 3.553 3.507 1.36 1.48-3.5 4.29 1.806-1.405 3.46 3.664 1.415 1.457-3.238 3.831 1.798-3.393 7.984-1.52-.608-1.153 2.76-.938-.38c-2.483.545-3.868 1.514-4.863 3.899l-9.31 22.317c2.416 1.814.14 3.704-2.737 2.283.541 1.26-.56 2.428-3.3 1.341.353.853-.083 2.041-.98 2.385l.362.178c.996.491 1.138 1.174.946 1.642a.98.98 0 0 1-.47.528l.02.01c2.678 1.42 3.084 5.272-1.074 3.465-8.172-3.551-13.132-5.524-23.506-8.056-10.546-2.575-22.803-4.049-38.595-4.05-9.01-.002-19.336.447-29.636 2.073-11.915 1.881-22.967 4.485-34.02 10.097-1.616.82-2.652.532-2.961-.199-.346-.816.436-2.34 1.662-3.213-.164-.101-.298-.277-.375-.556-.145-.519.359-1.153 1.406-1.705-.937-.334-1.506-1.452-1.092-2.427-.902.429-1.567.606-2.118.433-.87-.273-1.242-1.1-.981-1.85q.018-.055.042-.109c-3.807 1.92-4.468-1.308-2.957-2.28l.412-.26-9.198-22.047c-.995-2.385-2.38-3.354-4.862-3.899l-.939.38-1.153-2.76-1.52.608-3.393-7.984 3.83-1.798 1.458 3.238 3.664-1.416-1.404-3.459 4.29-1.807 1.479 3.502 3.506-1.36-1.328-3.554 3.86-1.572 3.251 8.522-2.727 1.092 1.057 2.721-.549.222z" style="fill:#000200;fill-rule:evenodd"></path><path d="M233.944 409.515q-.324.156-.61.376c-.547.415-1.71 1.771-1.39 2.524.327.773 1.783.182 2.256-.058 10.944-5.555 22.139-8.246 34.173-10.146 9.803-1.548 19.799-2.08 29.716-2.08 12.994.002 26.064.976 38.717 4.065 4.993 1.22 9.86 2.597 14.673 4.406 3.01 1.131 5.967 2.397 8.915 3.678 3.626 1.576 2.57-1.514.63-2.542a89 89 0 0 0-1.337-.693c-7.949-3.47-13.039-5.168-23.13-7.68-9.485-2.363-22.676-4.179-38.468-4.179-9.01 0-20.106.704-30.405 2.33-11.453 1.807-23.264 5.141-33.155 9.746a4 4 0 0 1-.354.143z" style="fill:#e6e4e3;fill-rule:evenodd"></path><path d="M234.55 407.52c-.262.13-1.411.782-1.298 1.188.145.522.703.256 1.06.09 10.327-4.808 22.037-8.012 33.292-9.788 9.976-1.574 20.395-2.336 30.485-2.336 12.7 0 26.236 1.117 38.591 4.193 4.912 1.224 9.791 2.532 14.562 4.235 3.084 1.101 6.103 2.355 9.1 3.671.334.147.74.168.898-.22.184-.45-.367-.825-.699-.99q-.876-.432-1.752-.85c-7.095-3.008-12.952-4.846-22.36-7.142-10.545-2.572-22.76-4.192-38.552-4.192-9.011 0-19.126.59-29.424 2.216-11.17 1.762-22.971 4.974-32.862 9.441a2 2 0 0 1-.23.09q-.406.195-.81.394" style="fill:#e6e4e3;fill-rule:evenodd"></path><path d="M227.336 401.339c-.428.276-.634.867-.45 1.345.438 1.145 2.348.34 3.032-.02 11.98-6.312 25.117-10.127 38.455-12.234 9.787-1.545 19.81-2.21 29.716-2.208 13.224.003 26.37 1.309 39.23 4.45 9.167 2.238 19.076 5.372 27.374 9.956 2.327 1.286 4.764.107 2.03-1.566-7.683-4.7-17.01-8.064-25.675-10.366-14.092-3.743-28.893-5.291-43.451-5.289-21.697.005-51.72 4-70.26 15.932" style="fill:#e6e4e3;fill-rule:evenodd"></path><path d="M232 402.254c-.526.225-1.338.622-1.542 1.21-.187.538.122 1.029.65 1.195.563.176 1.475-.27 1.963-.515 11.041-5.51 23.154-8.723 35.302-10.64 9.803-1.549 19.799-2.081 29.716-2.08 12.994.002 26.064.975 38.717 4.064 5.19 1.268 10.25 2.72 15.252 4.608 3.106 1.173 6.155 2.485 9.189 3.833.548.243 2.613.996 3.011.124.235-.513-.27-1.103-.76-1.489-5.764-3.055-14.328-6.47-26.301-9.395-10.548-2.576-23.316-4.431-39.108-4.434-9.01-.002-19.336.574-29.636 2.201-11.87 1.874-23.838 5.146-35.025 10.532q-.716.386-1.428.786" style="fill:#e6e4e3;fill-rule:evenodd"></path><path d="M234.326 404.12c-1.82 1.001-.499 3.15 1.055 2.45 10.24-4.626 21.893-7.73 32.992-9.481 9.733-1.536 19.652-2.222 29.504-2.222 13.055 0 25.968 1.107 38.673 4.207 5.426 1.324 10.798 2.768 16.058 4.659 2.27.816 4.51 1.708 6.728 2.655 1.508.644 2.204-1.555 1.165-2.098a94 94 0 0 0-1.891-.96c-7.069-3.068-12.592-5.065-21.926-7.344-10.546-2.575-22.803-4.048-38.595-4.05-9.01-.001-19.336.447-29.636 2.073-11.43 1.805-23.067 4.8-33.79 9.928q-.168.09-.337.183m11.968-11.924-1.946-5.419-7.3 2.318 3.89 4.968c1.75-.665 3.538-1.286 5.356-1.867m1.157-6.404-2.614.83 1.945 5.418q.417-.131.836-.259zm-10.74 2.872 5.167-1.64-1.866-5.194-6.93 2.2zm-3.965-5.065 2.525-.802-1.722-4.752-4.147 1.284zm-3.682-4.702 18.036-5.583-.123-4.402a9 9 0 0 0-.047-.675l-3.418.902.708 2.976-4.328 1.338-.788-2.912-3.901 1.03.733 2.703-4.041 1.302-.905-2.902-5.322 1.745-.024.11zm6.695 3.745 8.766-2.783-1.7-4.686-8.787 2.72zm9.254-2.938 2.247-.713-.145-5.146-3.8 1.177zm-2.646 7.165 5.068-1.61-.16-5.735-6.775 2.15zm105.352-.984 10.213 3.243-4.051 5.174a115 115 0 0 0-6.404-2.258zm10.55 2.812-4.697-1.49 1.521-5.432 6.884 2.185zm4.046-5.167-3.098-.984 1.449-4.833 4.993 1.546zm3.682-4.703-17.785-5.506.19-4.835 2.961.781-.708 2.976 4.328 1.338.788-2.912 3.902 1.03-.733 2.703 4.04 1.302.906-2.902 5.433 1.782zm-7.269 3.564-7.083-2.249 1.302-4.819 7.23 2.238zm-7.571-2.404-3.167-1.005.202-5.131 4.266 1.32zm1.926 7.064-5.344-1.697.23-5.841 3.054.97v.005l.106.029 3.476 1.103zm-84.203-17.887 17.557-2.29.73-4.417q.036-.214.063-.42l-2.644.202.07 3.165-4.452.455-.283-3.11-4.026.386.225 3.184-4.188.466-.295-2.978-4.611.638zm2.105 5.36 2.442-.319-.521-5.05-3.834.5zm2.429-5.435.521 5.05 7.23-.942-.522-5.05zm7.737-1.009.522 5.05 3.81-.497.866-5.23zm-7.822 12.413 4.665-.608-.586-5.682-6.23.812zm4.587-6.357.586 5.682 5.92-.772.974-5.885zm-2.353 12.044c2.075-.236 4.126-.436 6.137-.606l-.576-5.581-7.602.991zm8.772-6.606-2.703.353.579 5.605 1.153-.09zm44.043-15.102-4.805-.665-.295 2.978-4.188-.467.226-3.183-4.027-.386-.283 3.11-4.452-.456.07-3.164-2.693-.205.811 4.837 17.737 2.312 1.756-4.33q.078-.192.143-.382m-18.67 8.159 2.047.267.522-5.05-3.446-.45zm3.077-4.717-.521 5.05 12.043 1.57 1.973-4.86zm-2 11.132 5.544.723.586-5.682-7.117-.928zm6.638-4.893-.586 5.682 5.052.659 2.219-5.47zm4.267 6.831-7.347-.958.057 5.589q2.654.233 5.194.533zm-7.802 4.588-.057-5.612-2.957-.386.979 5.836q1.026.076 2.035.162m-77.376-32.264 2.507-.624.738 2.736 4.632-1.137-.563-2.678 3.362-.722.563 2.62 3.858-.856-.527-2.656 3.11-.669.529 2.643 4.599-.84-.422-2.62 3.956-.702.421 2.62 4.675-.772-.187-2.778 2.831-.477.472 6.902c-9.088 1.092-21.028 3.526-32.753 6.619z" style="fill:#e6e4e3;fill-rule:evenodd"></path><path d="m269.059 354.07.417 2.533c-9.341 1.62-18.822 3.518-28.188 5.916l-.62-2.687a304 304 0 0 1 15.112-3.474c4.39-.89 8.831-1.69 13.279-2.289M252.1 390.503l-.412-13.674c-.098-3.26 2.443-6.052 5.565-6.699 2.807-.582 5.304.577 6.504 3.18l6.17 13.601c1.714-.249 3.42-.472 5.11-.67l-8.644-22.007c-.912-2.298-.279-4.866 1.797-6.886-8.43 1.484-16.829 3.18-25.135 5.253 1.848.834 4.296 2.284 4.434 6.294l.638 22.733q1.969-.593 3.974-1.125m.51-.135-.41-13.554c-.105-3.494 2.835-5.701 5.157-6.182 2.957-.613 4.995.853 5.934 2.89l6.11 13.467q-.87.128-1.742.266l-5.068-11.075c-.956-2.04-2.854-3.494-5.172-2.84-2.77.78-3.25 3.857-3.162 6.334l.36 10.186q-1.006.246-2.008.508m2.514-.632-.042-1.212.007.033c1.206-1.046 4-2.027 7.386-2.27-2.268-.617-4.552-.781-7.475-.082l-.027-.757c1.38-.906 3.91-1.7 6.91-1.915-2.124-.579-4.444-1.066-6.99-.375l-.027-.75c1.564-.853 4.192-1.667 6.899-1.862-1.982-.54-4.526-1.014-6.983-.515l-.013-.375q-.01-.314-.01-.607c1.4-.721 3.375-1.358 5.705-1.525-1.761-.48-3.536-.753-5.525-.42a7 7 0 0 1 .21-.8c1.295-.495 2.865-.842 4.43-.795-1.28-.35-2.452-.582-3.721-.553a3.25 3.25 0 0 1 1.7-1.124c1.94-.546 3.638.58 4.568 2.563l5.009 10.944c-4.008.647-8.04 1.439-12.01 2.397zm8.24-28.777 2.358 7.328.575-.194.246.73-1.857.622-.245-.726.553-.187-2.385-7.407-.666.147-.165-.75 2.014-.445.165.75zm-12.983 2.354.523 6.913.676-.043.05.767-1.985.127-.049-.767.54-.034-.518-6.865-.594.076-.098-.762 2.025-.26.098.762zm29.754-17.943 2.985-.128.151 2.809 4.373-.128v-2.68h3.438v2.68h4.245v-2.68h3.182v2.68h4.501v-2.68h3.95v2.68l4.886.128.15-2.809 2.868.128-.64 7.162c-9.481-.485-22.257-.66-33.577-.256zm31.692 7.56-.105 2.352a363 363 0 0 0-28.701 0l-.114-2.567c9.59-.287 19.333-.215 28.92.215m-.5 32.442-3.987-23.765c-.402-2.4.267-3.753 2.84-5.87a363 363 0 0 0-25.662.002c3.23 2.198 3.653 3.793 3.155 6.802l-3.783 22.863q2.12-.152 4.17-.257l2.319-13.38c.548-3.163 3.578-5.689 6.778-5.663 2.844.023 5.184 1.681 5.815 4.5l3.242 14.476q2.604.114 5.113.291zm-20.814-28.104 1.841.011-.005.769-.606-.004-.724 6.978.532.071-.103.762-1.76-.238.103-.761.466.063.714-6.88-.463-.003zm15.179 1.025-.569.003.767 7.656.563-.064.087.763-1.947.222-.086-.764.62-.07-.776-7.74-.721.005-.004-.769 2.062-.01zm-17.108 26.827q1.035-.05 2.048-.088l1.768-10.446c.424-2.509 1.486-5.223 4.396-5.407 2.435-.155 3.911 1.97 4.405 4.11l2.698 11.704q.897.028 1.784.065l-3.21-14.342c-.491-2.19-2.299-4.075-5.32-4.1-2.373-.019-5.673 1.794-6.27 5.238zm2.57-.108c2.241-.079 4.396-.116 6.443-.117q2.94 0 5.772.082l-2.667-11.572c-.492-2.135-1.862-3.843-3.873-3.715-.592.037-1.224.197-1.814.626 1.223.242 2.305.712 3.465 1.312-1.523-.375-3.133-.366-4.504-.152q-.287.464-.527 1.096c2.1.05 3.897.637 5.543 1.49-2.331-.33-4.457-.19-6.008.184q-.041.207-.08.426l-.104.62c2.501.032 4.883 1.028 6.704 1.97-2.667-.375-5.388-.138-7.099.36l-.126.748c2.614-.128 4.769.83 6.713 1.838-2.934-.414-5.543-.183-7.091.394l-.13.77c2.97-.058 5.15.58 7.221 1.653-3.29-.464-6.17-.117-7.606.619zm33.769-38.652 2.547.435-.424 2.802 4.698.82.56-2.678 3.37.69-.538 2.626 3.877.766.585-2.644 3.117.638-.578 2.632 4.548 1.079.667-2.57 3.904.948-.666 2.569 4.59 1.17.946-2.618 2.784.7-2.341 6.51c-8.761-2.652-20.673-5.221-32.652-7.1z" style="fill:#e6e4e3;fill-rule:evenodd"></path><path d="m354.42 360.136-.636 2.488c-9.204-2.271-18.65-4.342-28.19-5.91l.513-2.71a304 304 0 0 1 15.234 2.892c4.378.95 8.765 2.002 13.079 3.24m-30.209 26.619 5.157-12.758c1.222-3.025 4.669-4.56 7.788-3.898 2.804.595 4.625 2.66 4.678 5.525l.183 14.803q2.577.704 4.954 1.456l.923-23.51c.088-2.471 1.7-4.568 4.413-5.583-8.316-2.03-16.688-3.852-25.127-5.291 1.357 1.506 3.015 3.818 1.53 7.545l-8.611 21.164q2.096.252 4.112.547m.527.079 5.105-12.646c1.308-3.24 4.887-4.08 7.206-3.588 2.954.627 4.231 2.788 4.272 5.031l.182 14.658q-.84-.225-1.702-.445l-.189-12.06c-.056-2.251-1.21-4.347-3.594-4.68-2.85-.398-4.526 2.227-5.442 4.53l-3.77 9.521a162 162 0 0 0-2.068-.321m2.583.406.455-1.17-.007.033c1.525-.473 4.477-.249 7.675.89-1.828-1.478-3.853-2.545-6.811-3.08l.28-.704c1.628-.275 4.263.015 7.097 1.024-1.713-1.384-3.642-2.763-6.251-3.153l.276-.697c1.775-.154 4.51.157 7.066 1.067-1.598-1.292-3.737-2.748-6.187-3.278l.139-.35q.115-.291.235-.558c1.571-.099 3.635.112 5.836.895-1.42-1.147-2.935-2.11-4.89-2.604q.253-.362.514-.648c1.385.067 2.961.38 4.377 1.052-1.032-.834-2.013-1.518-3.187-2.002a3.25 3.25 0 0 1 2.01-.345c1.995.278 3.098 1.992 3.152 4.181l.187 11.92a150 150 0 0 0-11.966-2.473m19.115-23.084-.784 7.658.604.054-.068.766-1.951-.175.067-.764.582.052.793-7.742-.67-.133.151-.754 2.023.403-.15.753zm-12.834-3.062-2.3 6.541.637.233-.263.721-1.868-.68.264-.722.509.185 2.283-6.494-.574-.17.216-.737 1.959.576-.217.738zM207.07 365.2l3.004 7.068 18.28-7.314-2.885-7.562-2.914 1.187 1.331 3.56-4.442 1.724-1.473-3.488-3.352 1.412 1.41 3.473-4.603 1.78-1.443-3.208zm4.724 6.931.955 2.286 13.933-5.647-.873-2.246zm2.469 2.225c2.045.607 3.522 1.745 4.483 4.047l2.291 5.493c1.262-.582 2.69-.87 4.073-.717 2.511.277 4.016 1.418 5.4 3.466l6.108 9.186a90 90 0 0 1 3.82-1.576l-15.346-19.6 1.126-5.144zm6.971 10.013.791 1.895c3.064-1.128 5.748-.325 7.544 3.2l4.426 7.579a78 78 0 0 1 2.148-1.001l-6.06-9.113c-1.26-1.866-2.617-2.975-5.03-3.241-1.228-.136-2.571.101-3.819.68m.988 2.366 5.689 13.636a67 67 0 0 1 5.622-3.103l-.594-1.018c-1.411.23-3.1.755-4.833 1.64 1.134-1.191 2.392-2.192 4.043-2.992l-.62-1.063c-1.27.303-2.716.828-4.193 1.582.992-1.042 2.078-2.094 3.43-2.889l-.573-.98c-1.075.18-2.29.422-3.628 1.057.64-.984 1.633-1.934 2.677-2.697-.138-.236-.228-.408-.363-.645-1.387-.075-2.427.164-3.629.48.487-.623 1.141-1.3 2.452-2.059-.194-.27-.456-.458-.56-.498-1.202.074-1.991.264-3.083.758.536-.687.842-1.16 1.482-1.519-1.037-.253-2.158-.117-3.32.31m.426-12.243-.482.245 3.445 5.365.49-.32.421.642-1.64 1.074-.42-.644.506-.331-3.49-5.435-.668.34-.349-.684 1.838-.937zm165.289-9.291-3.004 7.068-18.28-7.314 2.886-7.562 2.913 1.187-1.331 3.56 4.442 1.724 1.473-3.488 3.352 1.412-1.41 3.473 4.603 1.78 1.443-3.208zm-4.724 6.931-.955 2.286-13.932-5.647.872-2.246zm-2.469 2.225c-2.044.607-3.522 1.745-4.483 4.047l-2.291 5.493c-1.262-.582-2.69-.87-4.072-.717-2.512.277-4.017 1.418-5.4 3.466l-6.292 9.444a100 100 0 0 0-3.864-1.608l15.573-19.826-1.126-5.144zm-6.971 10.013-.791 1.895c-3.063-1.128-5.748-.325-7.544 3.2l-4.592 7.841a89 89 0 0 0-2.156-1.002l6.234-9.374c1.26-1.866 2.617-2.975 5.03-3.241 1.228-.136 2.571.101 3.819.68m-.988 2.366-5.787 13.894-.007-.004a69 69 0 0 0-5.658-3.083l.735-1.291c1.411.23 3.101.755 4.834 1.64-1.135-1.192-2.393-2.192-4.044-2.992l.62-1.064c1.27.303 2.716.828 4.193 1.582-.992-1.041-2.078-2.094-3.43-2.888l.572-.98c1.076.179 2.522.403 3.805.933-.674-.879-1.717-1.868-2.76-2.631l.358-.57c.963.067 2.38.26 3.581.576a15.8 15.8 0 0 0-2.524-2.123c.193-.198.426-.487.68-.637.755.104 2.074.45 2.995.847-.63-.758-1.084-1.215-1.482-1.519 1.037-.253 2.158-.116 3.32.31zm-.425-12.243.48.245-3.444 5.365-.49-.32-.42.642 1.639 1.074.42-.644-.506-.331 3.49-5.435.668.34.349-.684-1.837-.937z" style="fill:#e6e4e3;fill-rule:evenodd"></path><path d="M306.795 464.722c.796 2.581 1.211 6.423 1.007 8.976.53.718 1.017 1.48 1.493 2.346l5.114.01c.024.434.051.869.067 1.304.116 3.262-.366 6.924-1.337 10.117.568 3.042.908 6.34.968 9.79h3.563c-.241 1.257-.49 2.463-1.022 3.643-.693 1.538-1.706 2.943-2.884 4.154-.4 3.705-1.127 7.137-2.11 10.148.527 1.81 1.134 2.914 2.978 3.876l.72.376-.533.612c-1.881 2.163-3.862 2.515-5.69.974-1.226 2.152-2.63 3.845-4.156 4.96-2.801-.783-5.969-.86-8.804-.556-2.554.276-4.604.995-6.927 1.782-.306-1.38-.53-2.736-.59-3.956a18 18 0 0 1-1.293-2.043l-4.946.507-.055-.65c-.308-3.627.204-7.742 1.223-11.256-.679-3.483-1.012-7.127-1.057-10.677l-3.67.063.212-.802c.597-2.262 2.123-5.05 3.808-6.745.378-3.596.91-7.574 2.369-10.903a6.63 6.63 0 0 0-2.4-2.847c-.37-.244-.645-.44-1.036-.646.245-.453.54-.903.976-1.307.698-.647 1.485-.973 2.576-1.046l2.486.016c.802-1.67 2.137-3.25 3.725-4.202-.116-2.291-1.067-4.987-1.916-7.062l-.359-.876 5.172-.035c.444-.003.915-.012 1.35.09 1.849.438 3.317 3.092 4.087 5.386.16-1.714.1-3.553-.137-4.94l-.128-.748 6.115-.004c.415.647.785 1.34 1.041 2.17zm-4.835 29.971c.559.687.85 1.771.98 2.705h4.063c-.077-3.613-.5-7.462-1.399-11.1l-4.072 7.984q.234.17.428.411m5.043 5.128h-4.083c-.153 1-.493 2.137-1.142 2.77-.158.154-.309.26-.46.332l4.201 8.189c.955-3.689 1.404-7.61 1.484-11.291m-2.509 14.6-5.487-10.693v19.026c2.096-1.444 3.662-4.115 4.585-6.13.327-.713.627-1.45.902-2.202m-7.91 7.603v-18.138l-4.737 9.288c1.18 3.913 2.82 7.008 4.738 8.85m-5.636-12.42 3.65-7.153c-.578-.65-.883-1.692-1.022-2.63h-3.687c.07 3.493.444 6.801 1.06 9.783m-1.059-12.206h3.708c.164-.866.495-1.848.983-2.55l-3.653-7.12c-.602 2.953-.968 6.221-1.038 9.67m1.927-13.243 4.769 9.295V475.2c-1.935 1.86-3.588 4.993-4.769 8.955m7.192-9.88V493.9l5.597-10.975a31 31 0 0 0-.951-2.394c-.92-2.05-2.503-4.817-4.647-6.258" style="fill:#000200;fill-rule:evenodd"></path><path d="M300.687 469.918c1.411 0 2.769.51 4.038 1.45.695-2.6.871-5.903.827-8.03.942 1.708 1.97 7.044 1.606 10.491 1.65 2.16 3.065 5.123 4.134 8.646 1.024-1.58 1.681-2.92 2.525-5.515.18 3.433-.351 7.275-1.328 10.448.636 3.383.988 7.096.988 10.993q0 .784-.019 1.558c1.092-.228 2.137-.668 3.367-1.688-.397 2.072-1.564 4.397-3.67 6.498-.394 3.848-1.14 7.399-2.156 10.478.665 2.302 1.422 3.409 3.337 4.407-1.885 2.166-3.658 2.225-5.334.385-1.105 2.108-2.374 3.804-3.758 4.98a20.3 20.3 0 0 0-3.314-.618c5.739-1.404 10.208-12.415 10.208-25.788 0-14.325-5.128-25.942-11.45-25.942-6.324 0-11.452 11.617-11.452 25.942 0 13 4.224 23.77 9.732 25.65-.987.009-1.964.07-2.909.17a21 21 0 0 0-1.654.246 21 21 0 0 1-.127-1.628c-1.531-1.98-2.862-4.647-3.905-7.812-1.235 1.595-1.888 3.06-2.71 5.126.009-4.48.645-8.235 1.314-10.499-.694-3.508-1.08-7.386-1.08-11.465q0-.294.003-.586c-1.133-.047-2.309.19-3.46.663.588-2.223 2.126-4.922 3.786-6.507.419-4.04 1.223-7.75 2.323-10.93-.444-1.657-1.423-2.964-3.03-3.972 1.153-1.938 3.265-1.757 5.007-.596 1.256-2.32 2.714-4.116 4.307-5.237-.025-2.569-.85-5.797-1.592-7.8 2.052-.061 3.97 3.973 4.485 6.562q.476-.079.962-.08zm-9.548 16.821 4.734 9.227c.23.45.531.473.81.33.379-.195.346-.579.206-.851l-5.33-10.39a42 42 0 0 0-.42 1.684m9.818 7.262 6.187-12.129c.23-.45.072-.707-.207-.85-.38-.193-.671.058-.81.331l-6.416 12.578.706-.003q.286 0 .54.074zm-9.37 18.275 5.522-10.827c.23-.45.073-.708-.207-.85-.379-.194-.67.058-.81.33l-4.929 9.664q.198.863.424 1.683m7.808-9.195 6.394 12.462c.231.45.532.473.811.33.378-.195.345-.579.205-.852l-6.131-11.95a7 7 0 0 1-.399.01zm-9.517-4.029h6.114c.506 0 .663-.257.663-.57 0-.426-.356-.572-.663-.572h-6.111a55 55 0 0 0-.004.703zm8.49 4.02v20.08q-.09.042-.175.084a7 7 0 0 1-.968-.651v-19.513zm0-29.174v20.037h-1.143V474.64a7 7 0 0 1 1.142-.742m2.251 20.746c.975 0 1.765 1.745 1.765 3.898s-.79 3.898-1.765 3.898-1.765-1.745-1.765-3.898.79-3.898 1.765-3.898m-3.452-.06 2.285-.011c-.738.775-1.238 2.262-1.238 3.969 0 1.657.47 3.106 1.173 3.898h-2.065l.358-.7c.341-.67.199-1.362-.487-1.712-.67-.342-1.35-.018-1.671.611l-.6 1.175c-.342-.492-.603-1.24-.726-2.121h1.796c.752 0 1.303-.442 1.303-1.211 0-.753-.596-1.212-1.303-1.212h-1.735c.15-.682.402-1.283.67-1.743l.376.731c.343.669.988.959 1.673.607.67-.344.805-1.084.482-1.713zm5.829 4.597h5.801c.506 0 .664-.257.664-.571 0-.426-.357-.572-.664-.572h-5.791q.019.278.019.504c0 .186-.01.403-.03.639m10.232-22.48h-3.585a32.5 32.5 0 0 1 1.802 4.265c.723-1.303 1.234-2.576 1.763-4.204zm3.034 21.203h-2.146l.002.497q0 .36-.004.716c.753-.252 1.422-.633 2.148-1.213m-15.838-28.62c.326-2.199.221-4.642-.026-6.089l4.51-.003.004.158c.041 2.023-.104 4.714-.598 7.003-1.154-.7-2.37-1.075-3.627-1.075q-.132 0-.263.006m-10.76 56.726a22 22 0 0 1-.35-2.433l4.34-.074q.034.64.108 1.307c-1.407.309-2.716.734-4.098 1.2m-.466-3.071a16 16 0 0 1-1.156-1.794l.216-.543c.594-1.493 1.139-2.765 1.943-4.01.903 2.445 1.984 4.567 3.2 6.275zm-2.176-2.313-4.026.413c-.363-4.285.494-8.524 1.154-10.865l4.09-.07c-.89 3.197-1.21 7.07-1.217 10.26zm-2.848-11.093c-.612-3.206-.969-6.7-1.01-10.38l1.174-.018c.891-.314 1.908-.576 2.92-.664.004 3.89.36 7.602 1.003 10.992zm-4.483-10.974c.572-2.141 2.036-4.815 3.624-6.418l3.918-.065c-1.577 1.76-2.902 4.348-3.43 6.345l-.017.068zm3.846-7.063c.397-3.69.95-7.298 2.209-10.272l4.052.13c-.995 2.984-1.736 6.392-2.153 10.074zm2.323-10.91a7.3 7.3 0 0 0-2.598-3.15l3.73.059.186.117c1.292.81 2.14 1.821 2.599 3.102zm-2.983-3.798c.512-.612 1.138-1.133 2.5-1.221l2.616.017a3.8 3.8 0 0 0-1.025 1.158l-.066.11zm5.483-1.436c.795-1.728 2.138-3.238 3.596-4.095l3.71.126c-1.211 1.06-2.334 2.492-3.34 4.23-1.298-.688-2.765-.91-3.966-.26m3.845-4.727c-.151-2.477-1.23-5.41-1.958-7.189l4.3-.03.093.252c.697 1.884 1.43 4.74 1.54 7.102zm6.898 2.958c2.334 1.432 4.388 4.476 5.898 8.567l.555-1.088c.321-.63 1-.952 1.671-.61.686.35.829 1.042.487 1.711l-1.675 3.284c.938 3.533 1.514 7.602 1.604 11.951h1.37c.707 0 1.088.459 1.088 1.212 0 .77-.552 1.21-1.304 1.21h-1.154c-.094 4.435-.704 8.566-1.694 12.13l1.426 2.78c.323.628.187 1.368-.483 1.712-.685.351-1.33.062-1.672-.607l-.333-.648c-1.546 4.027-3.632 7.004-5.98 8.383.58.225 1.174.344 1.78.344 5.97 0 10.811-11.33 10.811-25.301 0-13.972-4.841-25.302-10.81-25.302a4.8 4.8 0 0 0-1.585.272" style="fill:#e30016;fill-rule:evenodd"></path><path d="M297.03 415.141a22.316 22.316 0 0 1 22.315 22.316 22.316 22.316 0 1 1-22.316-22.316" style="fill:#000200;fill-rule:evenodd"></path><path d="M297.03 428.202a9.254 9.254 0 0 1 9.254 9.255 9.254 9.254 0 1 1-9.255-9.255" style="fill:#ffd72b;fill-rule:evenodd" data-source="https://football-logos.cc"></path><path d="M297.049 415.782c3.43.003 6.672.802 9.554 2.224-3.185.199-5.875 2.655-7.34 5.32zm10.212 2.563a21.8 21.8 0 0 1 4.95 3.645l-7.664 4.3c-.418-2.939.831-5.326 2.714-7.945m5.109 3.8a21.66 21.66 0 0 1 5.397 8.992c-2.348-2.417-6.208-2.72-9.27-1.9zm5.547 9.51a21.7 21.7 0 0 1 .787 5.733l-8.523-2.396c1.893-2.267 4.515-2.948 7.736-3.338m.786 5.955a21.6 21.6 0 0 1-2.761 10.438c-.086-3.484-2.884-6.479-5.762-7.938zm-3.135 11.079a21.8 21.8 0 0 1-3.204 4.084l-4.002-7.133c2.662-.071 4.846 1.212 7.206 3.049m-3.363 4.24a21.66 21.66 0 0 1-9.218 5.372c2.38-2.465 2.572-6.456 1.638-9.512zm-9.9 5.555a21.7 21.7 0 0 1-5.276.648h-.026l2.256-8.024c2.02 1.848 2.67 4.343 3.047 7.376m-5.6.644a21.6 21.6 0 0 1-9.563-2.38c3.13-.167 5.844-2.505 7.374-5.078zm-10.349-2.805a21.8 21.8 0 0 1-4.605-3.493l7.57-4.248c.292 2.915-1.019 5.23-2.965 7.74m-4.837-3.729a21.66 21.66 0 0 1-5.229-8.824c2.407 2.226 6.191 2.45 9.17 1.61zm-5.452-9.612a21.7 21.7 0 0 1-.71-5.323l8.044 2.261c-1.838 2.025-4.318 2.684-7.334 3.062m-.713-5.55a21.6 21.6 0 0 1 2.65-10.367c.257 3.494 3.208 6.453 6.122 7.793zm3.148-11.227a21.8 21.8 0 0 1 3.058-3.928l3.856 6.872c-2.542.019-4.652-1.2-6.914-2.944m3.216-4.09a21.66 21.66 0 0 1 9.202-5.46c-2.371 2.696-2.217 6.915-.953 9.967zm9.723-5.605a21.7 21.7 0 0 1 5.384-.726l-2.138 7.604c-1.9-1.684-2.674-4.031-3.246-6.878" style="fill:#25b9df;fill-rule:evenodd"></path><path d="m299.969 428.007-3.02-10.294-2.899 10.307a9.9 9.9 0 0 1 2.979-.458 9.9 9.9 0 0 1 2.94.445m-7.54.69-9.42-5.147 5.24 9.342a9.94 9.94 0 0 1 4.18-4.196m-4.848 5.814-10.301 3.023 10.312 2.9a9.9 9.9 0 0 1-.457-2.977c0-1.026.156-2.015.446-2.946m.56 7.295-5.28 9.668 9.465-5.311a9.94 9.94 0 0 1-4.185-4.357m5.612 4.988 3.092 10.537 2.913-10.362a10 10 0 0 1-2.729.382 9.9 9.9 0 0 1-3.276-.557m7.681-.477 9.478 5.177-5.207-9.28a9.94 9.94 0 0 1-4.27 4.103m4.997-5.773 10.338-3.034-10.258-2.884c.268.896.413 1.847.413 2.83a9.9 9.9 0 0 1-.493 3.088m-.641-7.688 5.142-9.414-9.335 5.238a9.94 9.94 0 0 1 4.193 4.176m-21.707 7.257c-1.867 2.21-4.374 2.985-7.122 3.395 2.362 1.961 6.089 2.065 8.94 1.062l1.869-3.42zm3.252 15.978c2.948-.273 5.572-2.664 6.928-5.279l-1.26-4.295-2.989 1.677-.075.151c.36 3.026-.893 5.434-2.604 7.747m12.116-5.667c2.192 1.865 2.962 4.363 3.37 7.101 2.02-2.432 2.07-6.31.972-9.19l-3.255-1.778zm15.826-2.76c-.3-3.228-3.138-6.068-6.029-7.28l-3.294.966 2.057 3.667c2.804-.182 5.077 1.027 7.266 2.647m-5.756-12.875c1.886-2.397 4.473-3.212 7.319-3.636-2.319-1.925-5.95-2.06-8.78-1.117l-2.066 3.78 3.497.983zm-3.282-16.103c-2.933.385-5.46 2.87-6.716 5.531l1.233 4.2 3.114-1.747.066-.144c-.48-3.009.683-5.464 2.303-7.84m-11.744 5.382c-2.026-1.671-2.905-3.967-3.484-6.497-1.9 2.682-1.557 6.76-.102 9.566l2.361 1.29zm-15.843 3.056c.309 3.331 3.323 6.25 6.307 7.392q.144.004.287.013l2.737-.803-2.214-3.947c-2.735.13-4.967-1.064-7.117-2.655" style="fill:#ffd72b;fill-rule:evenodd"></path><path d="M301.996 434.394c-1.384-.018-2.637.172-3.506 1.456-.664.98-.71 2.382-.658 3.528 0 .253-.149.385-.26.543-.136.195-.12.381-.12.604h-.385c0-.259-.004-.491.12-.73.112-.215.133-.35.133-.405-.057-1.268.01-2.74.746-3.827.786-1.162 1.877-1.544 3.068-1.644.624-.052 1.275-.028 1.923.002l.104.512a38 38 0 0 0-1.165-.038zm-8.472.091c-.508-.132-1.063-.25-1.48-.398a7.4 7.4 0 0 1-1.124-.52l.334-.448c.34.188.595.355.962.485.458.162 1.048.284 1.582.427a6.3 6.3 0 0 1 1.093.405l-.221.405c-.373-.178-.744-.251-1.146-.356m6.276 7.93-5.279-.029c.437-.286 1.22-.628 1.655-.573.213.027.438.136.666.123.378-.02.765-.175 1.118-.114.64.111 1.198.252 1.84.593m-4.423.029c.124.258.505.568 1.312.573.87.006 1.227-.306 1.455-.516zm-5.25-6.024c.352.01.533.02.885.03.085.267.486.655.856.66.537.005.741-.374.913-.632h.827c-.57-.822-1.004-.907-1.626-.917-.682-.012-1.265.344-1.855.86" style="fill:#000200;fill-rule:evenodd"></path><path d="M303.34 436.42c-.352.01-.533.02-.885.03-.085.267-.486.655-.856.66-.537.005-.741-.374-.912-.632h-.828c.57-.822 1.004-.907 1.626-.917.682-.012 1.265.344 1.855.86m-36.618 26.11-.466-.566c-.642-.782-1.493-1.79-1.88-2.724-.406-.978-.336-2.015-.108-3.028a.4.4 0 0 0 .014-.125c-.057-.155-.448-.526-.596-.907-.213-.55-.032-1.323-.054-1.926-.045-1.165-.492-1.465-1.049-2.332-.23-.359-.536-.677-.868-.986v.234c.003.879-.297 1.767-.555 2.599-.24.774-.321 1.546-.337 2.354-.067 3.496.574 7.052.47 10.552a9.5 9.5 0 0 1-.156 1.523c-.036.185-.208.532-.228.69.091.223.185.314.239.606.07.384.083.81.082 1.201a4.8 4.8 0 0 1-.21 1.417c-.194.622-.872 2.009-1.643 1.966-.446-.025-.813-.59-1.098-.984a3.4 3.4 0 0 1-.385.87c-.272.427-.735.88-1.292.722-.813-.232-1.843-2.064-2.195-2.762-.892-1.771-1.45-3.781-1.496-5.769-.046-1.948-.053-2.865-.072-4.701-.015-1.555.01-2.75-.117-4.49-.095-1.296-.221-2.603-.45-3.835-.13-.698-.38-.98-.536-1.677-.503 1.296-1.485 2.03-2.33 3.122l-.77.879c-.377 2.13-.628 1.09.256 2.669.392.698-.172 1.92-.754 2.374-.402.312-1.14.371-1.338.632-.295.39-.29 1.495-.482 2.056-.14.412-.334.718-.474 1.136-.18.539-.424.966-.632 1.495-.18.453-.268 1.275-.35 1.797-.048.314.035.56-.06.86-.153.483-.49.934-.823 1.293-.488.527-1.353 1.115-1.923 1.67-.598.58-1.156 1.22-1.492 1.518-.487.431-1.078.36-1.62-.544-.577-.96-1.178-2.276-1.172-3.421.006-1.114-.13-2.368.644-3.246.13-.148.846-.534.868-.685.078-.57-.718-.695-.614-1.906.088-1.014.963-1.265 1.016-1.562.072-.404-.257-.922-.27-1.349-.035-1.068.825-1.204.785-2.464-.126-.24-.419-.38-.375-1.237.07-1.378 1.093-3.65 1.422-4.74.483-1.595.579-2.923 1.23-4.422.67-1.542 1.581-2.896 2.306-4.392.559-1.153.84-2.401 1.416-3.52q.084-.162.185-.323-.447.378-.906.82c-1.636 1.576-3.14 3.612-4.35 5.532-.83 1.317-1.534 2.707-2.47 3.99-.796 1.094-1.722 1.994-2.852 2.83.998-2.375 1.66-3.789 1.988-5.954.341-2.248.558-4.605 2.042-6.45 1.249-1.552 2.797-2.651 4.492-3.57-2.154-.254-4.483-.673-5.912-2.106a5.4 5.4 0 0 1-1.4-2.446c-.606-2.207.099-5.154-.778-7.021l-.743-1.582 1.589.727c1.823.835 2.954 2.104 3.954 3.798 1.029 1.744 2.114 4.47 3.877 5.545.904.552 1.525.965 2.579 1.1.819.106 2.059.022 2.884-.146.903-.184 2.096-.643 2.692-.742l-4.396-5.735c-1.248-1.63 1.463-4.748 3.228-2.558l2.212 2.745c.042-1.898.152-4.208.908-5.417.422-.675 1.238-.776 1.697-.11.659.957.846 3.894.911 6.102l3.104-4.777 1.991 2.29-.22.394a88 88 0 0 0-3.586 7.12q.09-.048.203-.09c1.087-.401 2.168-.621 3.28-.917.62-.165 1.458-.404 1.896-.906.145-.167.243-.35.302-.562.149-.538.043-1.272-.008-1.824-.083-.897-.104-1.73.179-2.6.415-1.282 1.78-2.088 2.943-2.62 1.448-.66 3.246-.978 4.783-1.535l1.904-.69-1.161 1.66c-.659.94-1.146 2.103-1.106 3.27.044 1.269.316 2.161-.19 3.436-.676 1.705-3.054 3.356-4.628 4.143-.883.442-1.805.793-2.75 1.037 2.21.411 3.81 1.768 5.29 3.659 2.227 2.846 3.784 6.86 5.332 10.135.833 1.764 1.566 3.16 2.765 4.732l1.58 2.07-2.36-1.102c-2.42-1.13-4.559-2.847-6.068-5.061a34.5 34.5 0 0 1-2.364-4.093c.164 1.608 1.37 3.504.709 5.557.547.761 1.053 1.353 1.443 2.28.64 1.519.63 3.181.346 4.781l-.216 1.212c.298 1.198-.402 2.843-.141 3.742l.005.016.004.018c.087.377.227.734.395 1.082.376.783.844 1.498 1.188 2.304.48 1.124.67 2.238.635 3.46-.02.745-.336 1.72-1.142 1.929-.801.207-1.401-.292-1.7-1.004-.168-.399-.26-1.566-.329-1.672-.266-.334-.7-.431-.99-.936-.32-.553-.255-1.535-.427-1.794-.176-.265-.335-.326-.618-.464-1.015-.494-1.455-1.608-1.181-2.644z" style="fill:#000200;fill-rule:evenodd"></path><path d="M252.033 434.492c-3.318.963-5.221 2.299-6.998 4.01-1.576 1.518-3.197 3.668-4.447 5.652-1.175 1.864-1.991 3.57-3.143 4.87.378-.812.768-2.144.983-3.567.316-2.08.52-4.419 1.907-6.144 1.541-1.916 3.556-3.134 6.227-4.365-3.002-.383-6-.468-7.692-2.165-2.6-2.607-.764-6.544-2.052-9.288 1.737.796 2.766 2.01 3.67 3.541 1.237 2.099 2.182 4.6 4.095 5.767.927.566 1.7 1.051 3.028 1.15 1.384.103 2.982-.17 4.536-.657.834 0 .453 1.032-.114 1.196m9.684 14.604c.541.495 1.084.981 1.405 1.481.297.461 1.094 1.195 1.15 2.654.03.825-.141 1.326.011 1.719.091.235.215.39.329.524-.03-.54.223-.898.197-1.276-.082-1.216-.519-2.43-.65-3.661-.17-1.593-.04-3.182-.17-4.767-.153-1.857-.098-1.564-.733-3.975-.056-.21-.251-.975-.383-1.124-.782-.686-1.215-.056-1.965.503-.105.28-.095 1.711-.104 2.016-.035 1.237.567 2.445.77 3.67.127.774.144 1.496.143 2.236m3.193 7.166q-.007.044-.017.092c-.267 1.188-.198 1.986.074 2.642.327.789 1.106 1.74 2.022 2.852.302-.765.328-1.539.13-2.357-.167-.685-.776-1.707-1.238-2.24-.322-.373-.708-.629-.971-.989m-13.447-20.573c-1 .064-3.632 1.01-4.694 3.07-.554 1.076-.717 2.078-1.41 3.506-.665 1.376-1.57 2.7-2.294 4.368-.524 1.206-.763 3.524-1.204 4.978-.342 1.131-.718 1.292-.997 2.54-.34 1.511.178 2.44.523 2.452.153.005 1.176-.859 1.461-2.202.156-.738-.324-.984.128-1.642.549-.8 1.535-1.432 1.988-2.51.318-.755-.002-1.66.122-2.386.074-.436.788-1.282 1.072-1.637-.298-.831-.46-1.561-.207-2.331.326-.994 1.214-1.605 2.288-1.576.257-1.019.182-1.337.532-2.174s1.07-1.626 1.833-2.16c.917-.642 1.587-1.157.859-2.296m11.74-.855c2.37.027 4.188 1.038 6.15 3.544 1.966 2.513 3.222 5.707 5.257 10.013.617 1.306 1.275 2.803 2.835 4.847-1.956-.913-4.177-2.446-5.81-4.842-1.863-2.732-2.384-4.728-3.326-6.61-.482-.964-1.262-1.503-2.055-2.073-.7-.503-1.486-1.098-2.023-1.866-.568-.812-1.1-1.9-1.029-3.013m9.513-12.764c-1.968.713-3.495.95-4.735 1.516-1.095.5-2.268 1.21-2.6 2.235-.65 2.002.575 3.861-.6 5.209-.992 1.137-3.099 1.14-5.437 2.003-.382.141-.426.428-.53.719 6.046 1.55 11.686-2.702 12.536-4.844.457-1.154.179-2.194.145-3.178-.038-1.115.341-2.403 1.221-3.66m-18.86 10.37-4.673-6.097c-.738-.964.984-3.301 2.221-1.766l3.307 4.105c.095-2.137-.025-5.433.855-6.84.277-.444.541-.21.627-.085.682.99.782 4.854.84 7.835l3.776-5.813 1.138 1.31q-2.42 4.332-4.16 8.434z" style="fill:#3ea839;fill-rule:evenodd"></path><path d="M253.458 433.011c-.488.123.105.569-.15 1.28-.166.465-.663.652-.961.997-.356.41.028.627.047 1.252.015.546-.347 1.222-1.312 1.855a4.95 4.95 0 0 0-1.588 1.776c-.433.827-.492 1.612-.71 2.926-.462 2.794.19 6.041.115 9.972 1.12-1.446 1.974-2.279 2.361-3.604.203-.693.211-1.17.203-2.437-.004-.553.658-.55.683-.114.044.748.075 1.346.092 2.096.02.93.495 2.101.663 3.002.314 1.686.465 4.012.613 6.214.036.54 1.4.237 1.807-.368.359-.534.4-1.399.359-2.454-.007-.189.371-.313.456-.143.312.626.077 1.6.256 1.879.35.544 1.073-.355 1.169-.994.244-1.638-.55-1.52-.561-2.516-.005-.46.76-.725.788-1.552.031-.715-.822-1.489-.706-2.66.082-.831.918-1.267.963-2.56.022-.945-.89-1.756-.886-2.635.003-.642.925-1.492.942-2.18.015-.55-.448-.901-.427-1.452s.643-.672.656-1.595c.005-.416-.506-1.336-.143-1.54.381-.216.818.163 1.282.106.464-.056.93-.378 1.31-.162.67.378.496 1.26.913 1.907.382.593 1.108.413 1.62.898.624.59.724 3.615 2.155 5.21.251.279.791.545 1.154.816l.14.713c-.57-.571-1.45-.655-2.135-1.226.125 1.518-.003 3.14.17 4.75.133 1.254.572 2.501.652 3.687.036.533-.239.778-.195 1.307.082.56.556.726 1.112 1.37.556.642 1.195 1.762 1.376 2.508.26 1.07.178 2.07-.283 3.036-.29.606-.311 1.718.726 2.223.402.196.621.312.87.685.298.448.162 1.334.448 1.829.194.335.703.562.938.857.305.383.135 1.151.417 1.823.284.674.692.698.95.632.43-.111.647-.78.663-1.328.097-3.396-1.709-4.553-2.202-6.683-.282-.97.401-2.85.12-3.82-.237-.815-1.106-2.028-1.553-2.91-.573-1.134-.526-1.503-1.123-2.09-.338-.333-.133-1.003.14-.844.639.374.906 1.245 1.473 2.41.34.7.923 1.474 1.284 2.01.718-4.038-.925-5.491-1.823-6.78.2-1.673.13-2.587-.35-3.713-.387-.912-.191-2.177-1.003-3.923-1.35-2.907-4.61-3.29-4.916-8.034-1.748.207-3.117-.077-4.922-.554-1.235-.326-2.903-.743-4.137-1.155m-5.38 10.38c-.853-.36-1.452.386-1.592 1.252-.09.551.225 1.218.35 1.753.06.253-.78.743-1.068 1.39-.323.72.337 1.41-.105 2.41-.394.895-.759 1.214-2.084 2.72-.488.554.032 1.214-.127 1.808-.327 1.218-1.339 1.628-1.292 2.355.038.588.018.569.288.706.208.105.481.371.615.794.121.384.117 1.096-.071 1.862-.022.089-.623.731-.973 1.17-.1-.494-.117-1.018-.11-1.73.002-.375.518-.08.596-.739.111-.945-1.456-1.253-1.99-.683-.745.796-.034 1.313-.199 2.243-.12.677-.942.734-1.008 1.505-.078.909 1.009.89.867 1.937-.06.438-.578.825-1.052 1.363-.667.757-.706 1.57-.711 2.485-.004.728.315 1.814 1.08 3.089.412.686 1.483-.069 1.024-.74-.846-1.234-.663-2.928-.455-3.638.054-.183.483-.226.569-.057.168.33-.133.871-.102 1.464.05.987.414 2.019.954 1.72 1.03-1.472 2.235-1.379 2.57-2.547.204-.714.074-1.213 1.012-3.25-1.06.269-2.184 1.2-2.444.709-.195-.367-.134-.839-.023-1.246.185-.68.79-1.248 1.123-1.905.177-.35-.082-.986.264-1.114.257-.094.786-.283.739-.055-.092.44-.207.745-.35 1.261-.12.428-.293.869-.446 1.267-.217.567.48.385 1.068-.058.352-.265.666-.764.717-.915.256-.747.114-1.622.577-2.234.412-.545 1.018-.412 1.456-.752s.764-1.242.589-1.555c-.259-.462-1.23-.266-1.735-.428-.161-.052-.169-.502 0-.512.228-.013.651-.141 1.025-.846.302-.57.518-1.905.568-3.047.139-3.235-.474-6.539-.114-9.211m8.244 14.84c-.665-.028-1.125 1.327-1.433 1.307-1.576-.105-1.415.394-1.41.91.009.888 1.369 1.579 1.367 2.172-.003.88-1.338.7-1.296 2.521.099 4.25 2.637 7.762 3.227 7.93.303.086.904-.718.992-1.703.036-.411-.201-1.108-.242-1.613-.07-.845.457-1.7.352-2.972-.086-1.053-.923-1.786-1.038-2.8-.223-1.964 1.385-1.462 1.319-2.432-.018-.262-.318-.45-.374-.793a15 15 0 0 0-.328-1.55c-.062-.216-.324-.15-.481-.303-.263-.255-.467-.666-.655-.674m1.865 11.565c-.001-.432.277-.823.458-1.198.18-.375.18-1.082.136-1.573-.114-1.266-1.122-2.35-.894-3.444.16-.76 1.572-.902 1.551-1.675-.018-.706-.806-1.342-1.016-2.098-.527-1.899-.255-2.488-.189-3.666.053-.953-.17-2.046.001-2.881.104-.508.19-.738.21-1.236.037-.91-.629-1.74-.489-2.62.13-.814.783-1.72.836-2.563.05-.785-.535-1.593-.509-2.438.019-.594.39-1.487.48-2.163.067-.512-.185-1.053-.155-1.643.018-.354.23-.75.494-1.216.078-.138.2-.235.428-.826.084-.216 1.108-.431 1.225.157.107.536.287.88.254 1.254-.06.693-.415.517-.633.847s-.176 1.17-.21 2.357c-.041 1.404.546 2.399.776 3.794.203 1.226.13 2.38.133 3.209.003.73-.237 1.474-.526 2.406-.233.752-.346 1.53-.365 2.531-.056 2.917.558 7.603.47 10.546a9 9 0 0 1-.145 1.419c-.048.25-.233.51-.241.81-.015.275.188.384.25.725.063.34.073.8.072 1.083-.002.732-.171 1.463-.579 2.066-.85 1.256-1.82-.777-1.823-1.964m-2.218-19.929c.245 0 .315.22.315.492s-.07.493-.315.493c-.244 0-.315-.221-.315-.493 0-.271.07-.492.315-.492m-.567-3.786c.407 0 .525.29.525.649 0 .358-.118.649-.525.649s-.525-.29-.525-.65c0-.358.118-.648.525-.648m.05-3.217c.344 0 .444.246.444.55 0 .302-.1.548-.444.548-.345 0-.444-.246-.444-.549s.1-.549.444-.549m-.074-2.692c.344 0 .444.246.444.548s-.1.55-.444.55c-.345 0-.444-.247-.444-.55 0-.302.1-.548.444-.548m.238-4.288c.444 0 .572.297.572.664 0 .366-.128.664-.572.664s-.571-.298-.571-.664.128-.664.571-.664m-3.134 4.02c.047.597-.244 1.305-.176 3 .02.48.283.757.26 1.242-.007.179-.357.474-.709.135-.113-.108-.103-.371-.193-.71-.258-.019-.737-.04-1.014-.094-.386-.075-.383-.619-.03-.705.324-.078.715-.038 1.051-.018.092-.905.05-1.491.208-2.817.073-.615.569-.481.603-.033m13.347 8.687c.8.137 1.548.632 2.141 1.185.166.154.206.895-.289.605-.906-.531-.892-.615-1.937-.982-.5-.175-.207-.859.085-.808" style="fill:#ffd72b;fill-rule:evenodd"></path><path d="M333.809 428.777c-.8-.877-.553-1.62.142-2.282-1.996-.944-2.291-2.259-2.49-3.773-2.995-.172-3.857-1.871-4.84-3.39-1.182 1.86-2.776 1.764-4.42.817-1.39 1.021-2.917.58-4.309-.108.749 1.807.675 3.026-.221 3.759.88 1.165 1.005 3.073.703 4.61.74.434.645 1.236.473 3.616 1.726 1.7 3.129 2.956 5.001 3.346-1.516.923-2.96 3.92-4.023 8.004-1.283 4.928-1.169 8.847-3.595 13.42 1.721-.425 2.653.049 3.466 1.858 1.922-2.752 3.962-2.462 7.439-3.246a16 16 0 0 0 2.007-.61q-.053.301-.053.599c0 1.46.996 2.96 2.562 2.96 1.007.04 2.032-.562 2.23-1.002.11.625.291 1.405.766 1.785-1.505.929-1.953 2.205-2.135 3.488-.205 1.45.499 3.64 2.009 3.73.615.037 1.268-.112 1.704-.46a4.6 4.6 0 0 0-.59 2.324c0 1.405.78 2.96 2.324 2.96 1.302 0 2.152-1.108 2.385-2.297.231-1.183-.08-2.483-.403-3.615.98-.318 1.7-1.395 1.762-2.464.882.762 2.408 1.087 3.437.377 1.287-.887.973-2.842.16-4.028-.654-.953-1.78-1.42-1.763-2.784.01-.721.166-.998.418-1.41.828-.417 1.608-.472 2.485-.49.384.297.916.756 1.571 1.59.743.945 1.427 1.994 2.057 2.349 1.96 1.101 2.508.873 5.107 3.945-.706-4.644 1.637-11.136.496-15.934-.612-2.573-1.567-4.36-3.61-6.914 1.894-.277 2.14-1.06 2.218-1.992.995-.187 1.598-.365 1.802-.914.372-1.002-.112-1.986 1.35-5.26-.585-.887-1.135-.998-1.337-2.597-1.351-1.007-2.88-2.239-3.205-2.888-1.887.49-3.127.503-4.878-.008-1.885 1.968-1.415 2.554-2.387 3.953q-.281.405-.59.797c-.162-1.032-1.357-1.877-2.268-2.214-1.06-.393-3.48-.253-4.504.72l.685-4.737-4.204-5.858-2.25 2.937c1.273 1.608 2.546 3.087 3.82 4.694l-.39 2.662a3.37 3.37 0 0 0-2.114-.025" style="fill:#000200;fill-rule:evenodd"></path><path d="M322.234 420.894c-1.073.63-2.2.6-3.311.258.21.962.18 1.95-.438 2.73.682 1.233.788 2.876.584 4.26q.058.058.11.122c.621.769.426 2.454.331 3.516 1.262 1.242 2.697 2.596 4.469 2.966l1.588.33-1.386.843c-1.844 1.122-3.227 5.661-3.736 7.618-1.148 4.41-1.237 8.344-3.116 12.476 1.084.016 1.854.518 2.471 1.478 1.97-2.183 4.263-2.047 7.194-2.707a16 16 0 0 0 2.37-.747c.282-.684.77-1.274 1.413-1.546.182-.076.55-.239.072-.348-.334-.077-1.199-.307-1.498-.484-.98-.578-1.53-1.635-1.53-2.802a3.23 3.23 0 0 1 1.106-2.422l-.01.002c-.456.294-1.029.394-1.36.394q-.24 0-.458-.044c-.833.205-1.582.477-2.234.897 1.156 1.586 1.446 2.915 1.126 4.501l-.646.11c.329-1.742.028-3.353-1.033-4.186-1.484.836-2.53 2.19-2.822 3.58l-.536-.077c.337-1.57 1.594-3.093 3.368-4.171a11 11 0 0 1 1.985-.98c-.87-.566-1.364-1.697-1.364-2.76v-.048a25 25 0 0 0-3.342.138l.242-.888c1.087-.127 2.16-.09 3.186.022.133-.602.414-1.175.826-1.606a10 10 0 0 0-.498-.286c.916-.551 1.893-.714 2.893-.72l.068-.025c-.903-.604-1.437-1.745-1.437-2.873 0-1.644 1.134-3.314 2.89-3.314.416 0 .798.094 1.138.26.852.396 1.226-.193.895-.845a3.38 3.38 0 0 1 1.395-4.477c-.57-.72-.733-1.526-.232-2.35-1.298-.815-1.805-1.86-2.064-3.371-2.197-.25-3.202-1.245-4.324-2.888-1.196 1.254-2.732 1.28-4.346.465zm22.18 33.197c.592-.175 1.239-.244 2.012-.26l.226-.005.179.138a9.6 9.6 0 0 1 1.683 1.7c.406.516 1.339 1.89 1.868 2.187.561.316 1.14.575 1.707.877.884.47 1.625 1.097 2.307 1.795-.023-2.111.328-4.353.579-6.348.301-2.4.637-5.233.073-7.606-.645-2.71-1.748-4.489-3.486-6.663l-.697-.871 1.104-.162c1.064-.156 1.582-.337 1.672-1.412l.04-.486.48-.09c.273-.051 1.202-.192 1.32-.508q.03-.082.051-.167c.125-.494.127-1.149.21-1.674.172-1.074.529-2.116.956-3.115-.14-.174-.287-.338-.43-.515-.457-.566-.659-1.126-.77-1.808-.805-.603-2.206-1.673-2.886-2.515-1.58.368-2.82.393-4.398-.015-.612.673-.956 1.208-1.309 2.12-.21.545-.419.994-.755 1.478a19 19 0 0 1-1.23 1.58c.941.102 1.772.786 1.866 1.748 1.64-.164 3.095-.42 5.196-.698l-.054.928-5.178.357c-.15.666-.662 1.174-1.297 1.406.787.396 1.37 1.139 1.37 2.093 0 1.295-1.074 2.2-2.274 2.378.497.587.796 1.346.796 2.175 0 .409-.072.8-.206 1.163.802.066 1.496.263 2.164.675.331.204.884.781 1.594 1.119.668.317 1.675.523 3.338.294-1.082.644-2.061.644-2.645.735 1.122 1.414 1.782 3.792 1.682 5.991-.721-3.069-1.53-5.087-3.17-6.204q.079.341.08.694c0 1.465-1.058 2.864-2.592 2.864-.661 0-1.233-.26-1.67-.672.12.743.098 1.734-.083 2.53a2.7 2.7 0 0 1 .733 1.858c0 .32-.055.626-.156.91zm-6.858-24.58.72-4.98-3.55-4.948-1.42 1.855c1.157 1.444 2.359 2.853 3.508 4.305l.172.216-.457 3.12q.31.18.572.42zM322.1 423.88l-.074.83c1.286.278 2.38.77 3.314 1.492-1.125 1.056-2.279 1.8-3.683 2.233l.148.462c1.75-.471 3.094-1.582 3.89-2.404 1.68 1.473 2.808 3.771 3.598 7.012-.181-2.143-.697-3.977-1.609-5.484a23 23 0 0 1 .095-3.276l-.536-.147c-.065.911-.097 1.824-.02 2.735-1.165-1.576-2.843-2.736-5.123-3.453" style="fill:#3ea839;fill-rule:evenodd"></path><path d="M336.485 439.828c1.404 0 2.542 1.409 2.542 3.146s-1.138 3.145-2.542 3.145-2.543-1.408-2.543-3.145 1.139-3.146 2.543-3.146m5.362 11.27a2.082 2.082 0 1 1 0 4.165 2.082 2.082 0 0 1 0-4.165m.703 4.97q.115.31.117.66a1.915 1.915 0 1 1-2.958-1.606 2.72 2.72 0 0 0 2.841.946m-3.398 4.671a1.915 1.915 0 1 1 0 3.83 1.915 1.915 0 0 1 0-3.83m-2.619-5.2a1.915 1.915 0 1 1 0 3.83 1.915 1.915 0 0 1 0-3.83m5.443-16.134a2.73 2.73 0 1 1 0 5.458 2.73 2.73 0 0 1 0-5.458m-.866-7.663c-1.363-.505-2.148-1.532-1.752-2.294.395-.761 1.822-.969 3.185-.464 1.364.505 2.15 1.532 1.753 2.294-.396.761-1.822.969-3.186.464m-11.483 10.051c.35-.835 1.067-1.407 1.895-1.407.834 0 1.555.58 1.902 1.424a4.3 4.3 0 0 0-.163 1.164c0 .381.053.765.155 1.135-.35.833-1.067 1.404-1.894 1.404-.59 0-1.124-.29-1.509-.76.103-.343.157-.701.157-1.052 0-.66-.19-1.346-.543-1.908m6.521 26.429c0-1.282.81-2.32 1.81-2.32s1.811 1.038 1.811 2.32c0 1.28-.81 2.32-1.81 2.32s-1.81-1.04-1.81-2.32m-6.42-12.825c0-1.281.861-2.32 1.923-2.32 1.06 0 1.921 1.039 1.921 2.32s-.86 2.32-1.921 2.32c-1.062 0-1.922-1.039-1.922-2.32m14.947-20.41c-.819.003-1.484-.58-1.486-1.302s.661-1.31 1.48-1.312c.82-.003 1.484.58 1.486 1.302s-.661 1.309-1.48 1.312m-5.046-.192c-.64-.974-.608-2.126.071-2.572.68-.446 1.749-.018 2.389.956s.607 2.126-.072 2.572c-.68.446-1.749.018-2.388-.956m-2.647 2.76c-.692-1.053-.658-2.298.077-2.781s1.892-.02 2.584 1.034.657 2.3-.078 2.782-1.891.02-2.583-1.034m-3.836 25.163c.226-1.594 1.245-2.774 2.276-2.637 1.032.138 1.684 1.541 1.46 3.134-.227 1.593-1.246 2.774-2.277 2.636s-1.684-1.54-1.459-3.133m-7.562-19.017c0-1.374.883-2.49 1.973-2.49s1.973 1.116 1.973 2.49-.883 2.49-1.973 2.49-1.973-1.115-1.973-2.49m6.675-6.194c0-1.222.883-2.213 1.973-2.213s1.973.99 1.973 2.213c0 1.221-.883 2.212-1.973 2.212s-1.973-.99-1.973-2.212m-4.738-.093c0-1.476 1.007-2.673 2.25-2.673 1.242 0 2.25 1.197 2.25 2.673 0 1.477-1.008 2.674-2.25 2.674-1.243 0-2.25-1.197-2.25-2.674m16.594-1.604c1.141 0 2.067.793 2.067 1.77 0 .978-.926 1.77-2.067 1.77s-2.068-.792-2.068-1.77c0-.977.926-1.77 2.068-1.77m-9.857 10.16a3.44 3.44 0 0 1 1.757 6.396 2.574 2.574 0 0 1 3.255 2.024c-.44.314-.616.532-.788 1.031-1.335-1.217-3.14-.798-4.045.572a2.57 2.57 0 0 1 .905-3.319 3.44 3.44 0 0 1-3.41-.732 3.215 3.215 0 0 0 .974-5.696 3.4 3.4 0 0 1 1.352-.277m.57-16.71a2.741 2.741 0 1 1 0 5.483 2.741 2.741 0 0 1 0-5.483m-3.795 17.024a2.573 2.573 0 1 1 0 5.146 2.573 2.573 0 0 1 0-5.146m10.833 12.521c.852-.587 2.138-.202 2.87.861.73 1.067.633 2.403-.218 2.99-.853.588-2.139.202-2.87-.86-.732-1.064-.634-2.403.218-2.99m3.724-14.427c1.077 0 1.951.996 1.951 2.223s-.874 2.223-1.951 2.223c-1.078 0-1.952-.996-1.952-2.223s.874-2.223 1.952-2.223m-4.857 1.426a2.573 2.573 0 1 1 0 5.146 2.573 2.573 0 0 1 0-5.146" style="fill:#db2582;fill-rule:evenodd"></path><path d="m65.472 246.323 7.506 12.197 46.047-22.53-7.055-13.276-9.008 4.82 2.518 5.937-24.046 12.44-4.82-5.64zm302.461-60.454-3.11 15.524-1.617-.05a65 65 0 0 0-2.238-15.466zm-140.59.128 3.11 15.524 1.317-.04a65.2 65.2 0 0 1 2.205-15.477zm143.632 67.17-5.672 11.022-32.35-3.375 6.808-5.872 13.795 2.327.99-2.057-11.291-3.15 4.571-4.623zm-146.675.128 5.673 11.022 34.399-3.759-6.809-5.872-13.795 2.326-.99-2.056 11.292-3.15-4.572-4.623zm155.987-15.118-6.863 11.147-22.87-5.67 2.874-3.135 10.965 2.27 1.12-3.503-10.161-2.086 1.26-3.346zm-165.298.128 6.734 11.147 24.919-6.183-2.874-3.134-10.965 2.27-1.119-3.503 10.16-2.086-1.26-3.347zm174.34-12.41-5.067 8.595-25.117-4.381 1.556-2.964 10.39 2.523.225-3.191-9.27-2.311.778-3.488zm-183.382.129 5.067 8.594 27.165-4.765-1.556-2.965-12.438 2.908-.225-3.191 11.32-2.695-.78-3.489zm235.008 44.22 10.47 4.595-7.274 10.397-5.332-2.326 1.472-5.859 5.62 2.3 1.64-2.753-7.118-2.88zm-286.634.128-10.47 4.595 7.273 10.397 5.333-2.326-1.473-5.859-5.619 2.3-1.64-2.753 7.118-2.88zm308.608-8.34-9.085 9.46-11.475-4.17.045-3.772 8.9 2.057.694-2.837-10.09-3.19.07-3.958zm-330.583.127 9.086 9.462 11.474-4.17-.044-3.773-8.9 2.057-.694-2.837 10.09-3.19-.071-3.958zm342.41-10.495L440.8 239.95l.367 4.127 13.243 4.822-.806 3.163-12.07-4.227.115 3.404 24.915 8.58zm-354.237.129 33.957-11.715-.367 4.127-13.243 4.822.805 3.163 12.07-4.227-.114 3.404-24.915 8.58zm314.961 30.066-13.229-3.43c.645-26.31-2.345-40.077-9.117-41.613-6.772-1.535-17.272 7.328-31.176 31.131l-12.61-3.164c7.052-15.535 17.248-31.223 34.736-47.042l28.637 8.779c8.41 12.41 6.022 31.098 2.76 55.34m-275.685.129 13.23-3.432c-.646-26.308 2.345-40.076 9.116-41.612 6.772-1.535 17.272 7.328 31.177 31.131l12.61-3.164c-7.052-15.535-17.248-31.222-34.736-47.042l-28.638 8.779c-8.41 12.41-6.022 31.098-2.759 55.34m293.217-70.995-4.665 14.716-52.934-15.255 4.638-15.705 13.558 3.958-1.736 7.802 25.615 7.776 2.955-6.9zm-310.749.128 4.666 14.716 52.934-15.255-4.639-15.705-13.558 3.958 1.736 7.802-25.614 7.776-2.956-6.9zm365.318 47.373-18.365-9.755c-16.3 9.93-29.128 21.587-40.843 37.72l9.008 4.382c15.254-14.427 31.74-26.053 50.2-32.347m-419.887.128 18.365-9.755c16.3 9.93 29.129 21.587 40.843 37.72l-9.008 4.382c-15.253-14.427-31.74-26.053-50.2-32.347m442.11-12.427-7.507 12.197-46.047-22.53 7.055-13.276 9.008 4.82-2.518 5.937 24.047 12.44 4.82-5.64z" style="fill:#ffe100;fill-rule:evenodd"></path><path d="M241.453 181.575c.346 3.52 3.094 2.706 6.468 3.225 23.594 3.627 40.995 13.053 55.364 23.905 2.287 1.727 7.744.215 10.435-3.287 4.008-5.215 2.13-9.171 0-11.08-16.795-15.049-33.098-23.645-59.659-27.44-1.395-.199-3.042.258-4.312.942-1.632.881-2.808 2.324-3.786 3.852-2.01 3.141-4.731 7.639-4.51 9.883m1.613 29.278c3.05-1.778 5.566.094 8.023 1.838 6.543 4.646 11.183 12.102 15.66 20.143 1.82 3.268 3.775 6.956 5.564 9.997 3.465 5.89 7.029 9.897 10.01 14.607.644 1.017.274 3.248-2.152 2.921-7.341-.987-17.539-8.102-24.979-16.174-5.78-6.27-12.197-14.921-14.488-25.226-.62-2.786-.292-6.559 2.362-8.106m45.698 49.25c-2.368-2.941-6.233-8.73-10.488-15.388-4.125-6.452-8.502-13.227-10.939-19.512-1.052-2.715.285-7.514 6.516-5.882 5.49 1.437 10.475 5.483 13.896 10.27 3.877 5.426 3.173 10.662 10.703 16.32 1.294.973 3.035-.16 4.807.836.867.487 1.259 1.469 1.478 2.47.17.78.087 1.572.527 2.208 2.31 3.332 6.58 7.535 8.032 9.19.882 1.004 1.402 2.56-.221 2.968-5.08 1.276-11.78 1.519-16.973.848-2.694-.347-5.634-2.213-7.338-4.329m58.919-62.123c-6.878 17.67-23.656 36.492-37.426 49.13-2.915 2.676.328 8.74 6.163 10.769 3.409 1.186 7.561.604 9.612-.743 11.161-7.327 19.705-16.778 24.804-24.82 6.63-10.46 8.458-20.675 7.85-30.926-.188-3.153-1.88-6.943-5.554-7.4-2.643-.33-4.593 1.79-5.45 3.99m-4.016-5.846c-2.523 14.224-15.762 31.506-31.948 46.91-3.028 2.883-7.86 5.404-11.782 2.287-2.452-1.948-4.996-4.985-6.675-8.702-.636-1.412-.716-3.491 1.373-3.668 6.628-.563 10.704-5.3 11.027-12.454.069-1.532 1.99-3.25 3.238-3.265 3.588-.044 5.879-2.175 7.813-4.177 2.828-2.926 5.128-6.935 4.822-11.913-.085-1.393 1.519-3.09 2.903-3.278 1.274-.174 2.095-.167 2.927-.796 3.002-2.267 4.445-6.97 6.408-11.582.21-.494.579-1.186 1.261-1.584.877-.512 2.19-.623 3.47-.093 2.439 1.011 3.917 2.903 4.721 4.727 1.002 2.273.962 4.659.442 7.588m-47.194 17.446c-14.64-11.87-34.708-18-52.351-19.38-2.209-.173-4.385.341-5.541 2.554-1.506 2.882-2.14 7.265-1.484 10.45.588 2.858 2.884 2.463 6.083 2.346 2.05-.075 4.777.241 6.67.977 3.316 1.288 7.711 3.467 10.856 7.86.79 1.104 1.994 1.337 3.305.986 5.535-1.48 9.46-.871 12.475.102 5.76 1.858 10.632 6.63 13.412 8.806 2.528 1.977 7.675-.24 8.965-2.826 2.356-4.726.738-9.339-2.39-11.875m-10.885-63.9c11.147 4.164 22.109 9.019 32.097 15.677 3.078 2.053 6.26 5.079 9.168 7.867 2.384 2.286 4.503 4.543 6.942 5.846 2.272 1.214 4.58.21 6.649.883 3.025.986 6.844 4.984 8.406 11.29.36 1.45 2.658 2.393 4.387 2.229 2.31-.22 3.247-2.122 2.965-3.358-3.552-15.55-10.531-23.626-18.065-30.334-1.37-1.22-3.302-2.737-4.868-3.68-13.505-8.133-33.339-12.39-47.61-9.954-2.966.506-1.686 2.93-.071 3.534m-29.714 13.191c-.25.732-.139 1.29.023 1.722.58 1.539 3.315 1.454 5.95 1.858 9.953 1.53 19.391 4.117 27.351 8.265 10.908 5.683 19.108 13.362 28.154 17.994 2.55 1.305 7.595 1.432 10.284-2.067 4.005-5.214.463-10.512-1.671-12.412-8.252-7.35-23.376-14.62-34.653-19.731-4.941-2.24-9.009-4.035-11.12-4.75-3.25-1.102-7.357-2.11-10.686-.975-3.074 1.048-6.395 3.198-9.173 5.471-2.16 1.768-4.147 3.714-4.46 4.625" style="fill:#fff;fill-rule:evenodd"></path><path d="M221.055 476.611h-12.309l-4.89-12.725H181.47l-4.616 12.725h-11.995l21.813-56.001h11.957zm-20.823-22.152-7.72-20.784-7.562 20.784z" style="fill:#000200;fill-rule:evenodd"></path><path d="M382.855 423.171h20.666c4.655 0 8.201.352 10.653 1.07 3.285.964 6.102 2.685 8.436 5.162 2.346 2.465 4.133 5.49 5.359 9.062 1.212 3.586 1.825 7.993 1.825 13.248 0 4.602-.574 8.58-1.721 11.917-1.395 4.068-3.39 7.367-5.998 9.883-1.956 1.917-4.603 3.404-7.94 4.473-2.49.795-5.829 1.186-10.014 1.186h-21.266zm11.304 9.479v37.082h8.436c3.156 0 5.437-.17 6.846-.534 1.825-.457 3.35-1.226 4.563-2.321s2.19-2.908 2.96-5.411c.756-2.504 1.147-5.933 1.147-10.262 0-4.328-.391-7.64-1.147-9.961-.77-2.321-1.839-4.134-3.208-5.424-1.382-1.304-3.129-2.178-5.241-2.634-1.578-.365-4.668-.535-9.284-.535z" style="fill:#ffe100;fill-rule:evenodd"></path><path d="M222.495 628.018v-36.454h22.57v6.17H229.45v8.624h13.34v6.17h-13.34v15.49zm67.885 0h-7.45l-2.958-8.284h-13.55l-2.793 8.284h-7.26l13.202-36.454h7.236zm-12.602-14.42-4.672-13.53-4.577 13.53z" style="fill:#000200;fill-rule:evenodd"></path><path d="M308.66 628.018v-36.454h22.57v6.299h-15.615v8.495h13.34v6.298h-13.34v15.362zm41.693 0v-36.454h22.564v6.299h-15.618v7.952h14.456v6.264H357.3v9.666h16.275v6.273z" style="fill:#ffe100;fill-rule:evenodd" data-source="https://football-logos.cc"></path><!-- source: https://football-logos.cc --></svg>