<svg xmlns="http://www.w3.org/2000/svg" viewBox="0.15 0 195.35 282.36"><!-- Source: https://football-logos.cc --><g transform="translate(-2.177 -17.44)" data-source="https://football-logos.cc"><path d="m31.82 337.896 346.133 773.79 346.133-773.79H377.953Z" style="fill:#fff;stroke:#040306;stroke-width:11.3386;stroke-linecap:round;stroke-miterlimit:4;stroke-dasharray:none;stroke-opacity:1;paint-order:markers fill stroke;fill-opacity:1" transform="scale(.26458)"></path><path d="M175.383 88.173 163.89 70.626l-93.264-5.145-43.03 11.693-2.122 12.228Z" style="fill:#f63a27;fill-opacity:1;stroke:none;stroke-width:.001;stroke-linecap:square;stroke-linejoin:miter;stroke-miterlimit:4;stroke-dasharray:none;stroke-opacity:1;paint-order:markers fill stroke"></path><path d="M150.5 73.705v15.697" style="fill:none;stroke:#040306;stroke-width:1.5;stroke-linecap:round;stroke-miterlimit:4;stroke-dasharray:none;stroke-opacity:1;paint-order:markers fill stroke"></path><path d="M117.665 254.44 43.84 89.403H25.474l83.129 185.836Z" style="fill:#196735;fill-opacity:1;stroke:#040306;stroke-width:1.5;stroke-linecap:round;stroke-miterlimit:4;stroke-dasharray:none;stroke-opacity:1;paint-order:markers fill stroke"></path><path d="M44 73.705v15.697m-5.6-15.697v15.697m-5.7-15.697v15.697m16.9-15.697v15.697m112.1-15.697v15.697" style="fill:none;stroke:#040306;stroke-width:1.5;stroke-linecap:round;stroke-miterlimit:4;stroke-dasharray:none;stroke-opacity:1;paint-order:markers fill stroke"></path><path d="m31.82 337.896 346.133 773.79 346.133-773.79H377.953Z" style="fill:none;stroke:#040306;stroke-width:11.3386;stroke-linecap:round;stroke-miterlimit:4;stroke-dasharray:none;stroke-opacity:1;paint-order:markers fill stroke" transform="scale(.26458)"></path><path d="M61.148 39.814c2.887-.649 5.28-1.065 10.531-1.717l.837 5.177 2.236-.187-.484-5.297 6.311-.464.295 5.25 2.237-.188.104-5.204c3.74-.245 6.138-.42 9.037-.177L88.109 57.62l-18.442-.167z" style="fill:#fff63d;fill-opacity:1;stroke:#040306;stroke-width:1;stroke-linecap:square;stroke-miterlimit:4;stroke-dasharray:none;stroke-opacity:1;paint-order:markers fill stroke"></path><path d="M83.11 42.388a150 150 0 0 1 7.836-.4m48.975-2.174c-2.887-.649-6.349-1.065-11.6-1.717l-.837 5.177-2.236-.187.484-5.297-6.311-.464-.295 5.25-2.237-.188-.104-5.204c-3.74-.245-6.138-.42-9.037-.177l4.143 20.613 18.442-.167z" style="fill:#fff63d;fill-opacity:1;stroke:#040306;stroke-width:1;stroke-linecap:square;stroke-miterlimit:4;stroke-dasharray:none;stroke-opacity:1;paint-order:markers fill stroke"></path><path d="M55.2 73.705v15.697m5.6-15.697v15.697m5.6-15.697v15.697m39.3-15.697v15.697m5.6-15.697v15.697m5.6-15.697v15.697m5.6-15.697v15.697m5.6-15.697v15.697m5.6-15.697v15.697m5.6-15.697v15.697m5.6-15.697v15.697m11.2-15.697v15.697m11.2-15.697v15.697" style="fill:none;stroke:#040306;stroke-width:1.5;stroke-linecap:round;stroke-miterlimit:4;stroke-dasharray:none;stroke-opacity:1;paint-order:markers fill stroke"></path><path d="m86.576 56.02-15.672 2.202-20.447 4.543-24.388 7.083-9.136 3.844c8.428 5.573 7.187 9.498 7.188 14.623l21.325-8.043L67.43 75.46l22.785-2.667h19.572l22.785 2.667 21.983 4.81 21.325 8.044c0-5.125-1.24-9.05 7.188-14.623l-9.136-3.844-24.388-7.083-20.446-4.543-15.672-2.201H100Z" style="fill:#fff63d;fill-opacity:1;stroke:#040306;stroke-width:1;stroke-linecap:round;stroke-miterlimit:4;stroke-dasharray:none;stroke-opacity:1;paint-order:markers fill stroke"></path><path d="M116.89 42.388a150 150 0 0 0-7.836-.4" style="fill:#fff63d;fill-opacity:1;stroke:#040306;stroke-width:1;stroke-linecap:square;stroke-miterlimit:4;stroke-dasharray:none;stroke-opacity:1;paint-order:markers fill stroke"></path><path d="M129.977 51.146c-4.8-.62-9.902-1.23-16.984-1.42m-42.97 1.42c4.8-.62 9.902-1.23 16.984-1.42" style="fill:none;stroke:#040306;stroke-width:1;stroke-linecap:round;stroke-miterlimit:4;stroke-dasharray:none;stroke-opacity:1;paint-order:markers fill stroke"></path><path d="M86.576 17.94v10.016h4.078L85.533 57 100 55.359 114.467 57l-5.12-29.043h4.078V17.94h-5.48v5.103h-5.482V17.94h-4.926v5.103h-5.481V17.94Z" style="fill:#fff63d;fill-opacity:1;stroke:#040306;stroke-width:1;stroke-linecap:round;stroke-miterlimit:4;stroke-dasharray:none;stroke-opacity:1;paint-order:markers fill stroke"></path><path d="M72 73.705v15.697" style="fill:none;stroke:#040306;stroke-width:1.5;stroke-linecap:round;stroke-miterlimit:4;stroke-dasharray:none;stroke-opacity:1;paint-order:markers fill stroke"></path><path d="M100 72.794c-35.547 0-59.551 9.203-75.383 15.379" style="fill:none;stroke:#040306;stroke-width:4;stroke-linecap:round;stroke-miterlimit:4;stroke-dasharray:none;stroke-opacity:1;paint-order:markers fill stroke"></path><path d="M100 73.705v15.697" style="fill:none;stroke:#040306;stroke-width:1.5;stroke-linecap:round;stroke-miterlimit:4;stroke-dasharray:none;stroke-opacity:1;paint-order:markers fill stroke"></path><path d="M100 72.794c35.548 0 59.551 9.203 75.383 15.379" style="fill:none;stroke:#040306;stroke-width:4;stroke-linecap:round;stroke-miterlimit:4;stroke-dasharray:none;stroke-opacity:1;paint-order:markers fill stroke"></path><path d="m178.967 76.534-9.2 1.014 5.877 6.561" style="fill:none;stroke:#040306;stroke-width:1;stroke-linecap:square;stroke-miterlimit:4;stroke-dasharray:none;stroke-opacity:1;paint-order:markers fill stroke"></path><path d="M77.6 73.705v15.697m5.6-15.697v15.697m5.6-15.697v15.697m5.6-15.697v15.697" style="fill:none;stroke:#040306;stroke-width:1.5;stroke-linecap:round;stroke-miterlimit:4;stroke-dasharray:none;stroke-opacity:1;paint-order:markers fill stroke"></path><path d="M100 72.794c-35.547 0-59.551 9.203-75.383 15.379" style="fill:none;stroke:#fff63d;stroke-width:2;stroke-linecap:round;stroke-miterlimit:4;stroke-dasharray:none;stroke-opacity:1;paint-order:markers fill stroke"></path><path d="m100 60.415-7.944 4.063L100 68.542l7.944-4.064zm-39.768 3.941-6.92 5.634 8.618 2.313 6.92-5.633z" style="fill:none;stroke:#040306;stroke-width:1;stroke-linecap:round;stroke-miterlimit:4;stroke-dasharray:none;stroke-opacity:1;paint-order:markers fill stroke"></path><path d="m21.034 76.534 9.199 1.014-5.877 6.561" style="fill:none;stroke:#040306;stroke-width:1;stroke-linecap:square;stroke-miterlimit:4;stroke-dasharray:none;stroke-opacity:1;paint-order:markers fill stroke"></path><circle cx="80.458" cy="64.97" r="3.15" style="fill:none;stroke:#040306;stroke-width:1;stroke-linecap:round;stroke-miterlimit:4;stroke-dasharray:none;stroke-opacity:1;paint-order:markers fill stroke"></circle><circle cx="41.704" cy="73.389" r="3.15" style="fill:none;stroke:#040306;stroke-width:1;stroke-linecap:round;stroke-miterlimit:4;stroke-dasharray:none;stroke-opacity:1;paint-order:markers fill stroke"></circle><path d="M100 72.794c35.548 0 59.551 9.203 75.383 15.379" style="fill:none;stroke:#fff63d;stroke-width:2;stroke-linecap:round;stroke-miterlimit:4;stroke-dasharray:none;stroke-opacity:1;paint-order:markers fill stroke"></path><path d="M18.6 52.558c2.649-1.32 4.228-1.774 9.17-3.663l2.05 4.827 2.128-.716-1.737-5.028 6.017-1.96 1.542 5.027 2.127-.717-1.144-5.078c3.574-1.132 5.86-1.875 8.733-2.332l.906 21.006-17.947 4.247z" style="fill:#fff63d;fill-opacity:1;stroke:#040306;stroke-width:1;stroke-linecap:square;stroke-miterlimit:4;stroke-dasharray:none;stroke-opacity:1;paint-order:markers fill stroke"></path><path d="m33.768 60.4 2.9 6.52" style="fill:none;stroke:#040306;stroke-width:1;stroke-linecap:round;stroke-miterlimit:4;stroke-dasharray:none;stroke-opacity:1;paint-order:markers fill stroke"></path><path d="M22.77 56.786c2.141-1.31 3.533-1.755 7.05-3.064v0" style="fill:#fff63d;fill-opacity:1;stroke:#040306;stroke-width:1;stroke-linecap:square;stroke-miterlimit:4;stroke-dasharray:none;stroke-opacity:1;paint-order:markers fill stroke"></path><path d="M29.283 61.961c4.512-1.749 9.32-3.562 16.151-5.44" style="fill:none;stroke:#040306;stroke-width:1;stroke-linecap:round;stroke-miterlimit:4;stroke-dasharray:none;stroke-opacity:1;paint-order:markers fill stroke"></path><path d="m2.827 38.244 5.257-2.11 1.9 4.737 5.087-2.041-1.9-4.736 5.086-2.04 3.73 9.296-3.786 1.518 15.566 25.048-17.008 5.057z" style="fill:#fff63d;fill-opacity:1;stroke:#040306;stroke-width:1;stroke-linecap:round;stroke-miterlimit:4;stroke-dasharray:none;stroke-opacity:1;paint-order:markers fill stroke"></path><path d="M18.201 42.868 6.556 47.54" style="fill:none;stroke:#040306;stroke-width:1;stroke-linecap:square;stroke-miterlimit:4;stroke-dasharray:none;stroke-opacity:1;paint-order:markers fill stroke"></path><path d="m139.768 64.356 6.92 5.634-8.618 2.313-6.92-5.633z" style="fill:none;stroke:#040306;stroke-width:1;stroke-linecap:round;stroke-miterlimit:4;stroke-dasharray:none;stroke-opacity:1;paint-order:markers fill stroke"></path><circle cx="-119.542" cy="64.97" r="3.15" style="fill:none;stroke:#040306;stroke-width:1;stroke-linecap:round;stroke-miterlimit:4;stroke-dasharray:none;stroke-opacity:1;paint-order:markers fill stroke" transform="scale(-1 1)"></circle><circle cx="-158.296" cy="73.389" r="3.15" style="fill:none;stroke:#040306;stroke-width:1;stroke-linecap:round;stroke-miterlimit:4;stroke-dasharray:none;stroke-opacity:1;paint-order:markers fill stroke" transform="scale(-1 1)"></circle><path d="M90.654 27.956h18.692" style="fill:#f4e3d7;fill-opacity:1;stroke:#040306;stroke-width:1;stroke-linecap:square;stroke-miterlimit:4;stroke-dasharray:none;stroke-opacity:1;paint-order:markers fill stroke"></path><path d="M100 42.65c-1.47 0-5.214 1.475-5.818 13.37l5.818-.66 5.818.66c-.604-11.895-4.347-13.37-5.818-13.37Z" style="fill:none;stroke:#040306;stroke-width:1;stroke-linecap:round;stroke-miterlimit:4;stroke-dasharray:none;stroke-opacity:1;paint-order:markers fill stroke"></path><path d="M39.897 50.328a148 148 0 0 1 7.512-2.26m17.527-3.504c2.393-.76 3.851-.86 7.58-1.29v0" style="fill:#fff63d;fill-opacity:1;stroke:#040306;stroke-width:1;stroke-linecap:square;stroke-miterlimit:4;stroke-dasharray:none;stroke-opacity:1;paint-order:markers fill stroke"></path><path d="m38.25 25.323 1.974 9.82 3.998-.804.704 29.482 13.86-4.459 14.507-1.245-10.745-27.463 3.998-.804-1.974-9.82-5.373 1.08 1.006 5.003-5.374 1.08-1.006-5.002-2.414.486-2.415.485 1.006 5.002-5.374 1.08-1.006-5.002z" style="fill:#fff63d;fill-opacity:1;stroke:#040306;stroke-width:1;stroke-linecap:round;stroke-miterlimit:4;stroke-dasharray:none;stroke-opacity:1;paint-order:markers fill stroke"></path><path d="m44.222 34.339 18.326-3.685" style="fill:#f4e3d7;fill-opacity:1;stroke:#040306;stroke-width:1;stroke-linecap:square;stroke-miterlimit:4;stroke-dasharray:none;stroke-opacity:1;paint-order:markers fill stroke"></path><path d="M56.281 46.902c-1.442.29-4.82 2.473-3.068 14.255l5.573-1.795 5.834-.498c-2.937-11.544-6.897-12.252-8.339-11.962z" style="fill:#040306;fill-opacity:1;stroke:#040306;stroke-width:1;stroke-linecap:round;stroke-miterlimit:4;stroke-dasharray:none;stroke-opacity:1;paint-order:markers fill stroke"></path><path d="m78.666 42.826.549 7.02m-4.463.856 1.257 7.025m6.432-7.309.11 7.096" style="fill:none;stroke:#040306;stroke-width:1;stroke-linecap:round;stroke-miterlimit:4;stroke-dasharray:none;stroke-opacity:1;paint-order:markers fill stroke"></path><path d="m74.752 43.087 6.122-.512" style="fill:#fff63d;fill-opacity:1;stroke:#040306;stroke-width:1;stroke-linecap:square;stroke-miterlimit:4;stroke-dasharray:none;stroke-opacity:1;paint-order:markers fill stroke"></path><path d="m35.685 51.817 2.211 6.684m3.27-.216 1.804 6.864" style="fill:none;stroke:#040306;stroke-width:1;stroke-linecap:round;stroke-miterlimit:4;stroke-dasharray:none;stroke-opacity:1;paint-order:markers fill stroke"></path><path d="m31.948 53.006 5.822-1.961" style="fill:#fff63d;fill-opacity:1;stroke:#040306;stroke-width:1;stroke-linecap:square;stroke-miterlimit:4;stroke-dasharray:none;stroke-opacity:1;paint-order:markers fill stroke"></path><path d="M14.868 59.98c-.416.186-1.962.906-1.962 3.153 3.853 9.84.873 2.183 3.853 9.84l4.35.171 4.542-3.35C20.228 59.19 16.21 59.378 14.868 59.98z" style="fill:#040306;fill-opacity:1;stroke:#040306;stroke-width:1;stroke-linecap:round;stroke-miterlimit:4;stroke-dasharray:none;stroke-opacity:1;paint-order:markers fill stroke"></path><path d="M182.067 52.825c-2.647-1.32-4.895-2.041-9.838-3.93l-2.05 4.827-2.127-.716 1.737-5.028-6.017-1.96-1.542 5.027-2.127-.717 1.144-5.078c-3.574-1.132-5.86-1.875-8.733-2.332l-.906 21.006 19.283 4.247z" style="fill:#fff63d;fill-opacity:1;stroke:#040306;stroke-width:1;stroke-linecap:square;stroke-miterlimit:4;stroke-dasharray:none;stroke-opacity:1;paint-order:markers fill stroke"></path><path d="M177.23 56.786c-2.14-1.31-3.533-1.755-7.05-3.064v0" style="fill:#fff63d;fill-opacity:1;stroke:#040306;stroke-width:1;stroke-linecap:square;stroke-miterlimit:4;stroke-dasharray:none;stroke-opacity:1;paint-order:markers fill stroke"></path><path d="M170.717 61.961c-4.512-1.749-9.32-3.562-16.151-5.44" style="fill:none;stroke:#040306;stroke-width:1;stroke-linecap:round;stroke-miterlimit:4;stroke-dasharray:none;stroke-opacity:1;paint-order:markers fill stroke"></path><path d="m197.173 38.244-5.257-2.11-1.9 4.737-5.087-2.041 1.9-4.736-5.086-2.04-3.73 9.296 3.786 1.518-15.566 25.048 17.008 5.057z" style="fill:#fff63d;fill-opacity:1;stroke:#040306;stroke-width:1;stroke-linecap:round;stroke-miterlimit:4;stroke-dasharray:none;stroke-opacity:1;paint-order:markers fill stroke"></path><path d="m181.799 42.868 11.645 4.672" style="fill:none;stroke:#040306;stroke-width:1;stroke-linecap:square;stroke-miterlimit:4;stroke-dasharray:none;stroke-opacity:1;paint-order:markers fill stroke"></path><path d="M109.346 27.956H90.654" style="fill:#f4e3d7;fill-opacity:1;stroke:#040306;stroke-width:1;stroke-linecap:square;stroke-miterlimit:4;stroke-dasharray:none;stroke-opacity:1;paint-order:markers fill stroke"></path><path d="M100 42.65c1.47 0 5.214 1.475 5.818 13.37L100 55.36l-5.818.66c.604-11.895 4.347-13.37 5.818-13.37z" style="fill:#040306;fill-opacity:1;stroke:#040306;stroke-width:1;stroke-linecap:round;stroke-miterlimit:4;stroke-dasharray:none;stroke-opacity:1;paint-order:markers fill stroke"></path><path d="M135.064 44.564c-2.393-.76-3.851-.86-7.58-1.29v0m32.619 7.054a148 148 0 0 0-7.512-2.26" style="fill:#fff63d;fill-opacity:1;stroke:#040306;stroke-width:1;stroke-linecap:square;stroke-miterlimit:4;stroke-dasharray:none;stroke-opacity:1;paint-order:markers fill stroke"></path><path d="m161.75 25.323-1.974 9.82-3.998-.804-.704 29.482-13.86-4.459-14.507-1.245 10.745-27.463-3.998-.804 1.974-9.82 5.373 1.08-1.006 5.003 5.374 1.08 1.006-5.002 2.414.486 2.415.485-1.006 5.002 5.374 1.08 1.006-5.002z" style="fill:#fff63d;fill-opacity:1;stroke:#040306;stroke-width:1;stroke-linecap:round;stroke-miterlimit:4;stroke-dasharray:none;stroke-opacity:1;paint-order:markers fill stroke"></path><path d="m155.778 34.339-18.326-3.685" style="fill:#f4e3d7;fill-opacity:1;stroke:#040306;stroke-width:1;stroke-linecap:square;stroke-miterlimit:4;stroke-dasharray:none;stroke-opacity:1;paint-order:markers fill stroke"></path><path d="M143.72 46.902c1.441.29 4.82 2.473 3.067 14.255l-5.573-1.795-5.834-.498c2.937-11.544 6.897-12.252 8.34-11.962z" style="fill:#040306;fill-opacity:1;stroke:#040306;stroke-width:1;stroke-linecap:round;stroke-miterlimit:4;stroke-dasharray:none;stroke-opacity:1;paint-order:markers fill stroke"></path><path d="m121.334 42.826-.549 7.02m4.463.856-1.257 7.025m-6.432-7.309-.11 7.096" style="fill:none;stroke:#040306;stroke-width:1;stroke-linecap:round;stroke-miterlimit:4;stroke-dasharray:none;stroke-opacity:1;paint-order:markers fill stroke"></path><path d="m125.248 43.087-6.122-.512" style="fill:#fff63d;fill-opacity:1;stroke:#040306;stroke-width:1;stroke-linecap:square;stroke-miterlimit:4;stroke-dasharray:none;stroke-opacity:1;paint-order:markers fill stroke"></path><path d="m158.834 58.285-1.804 6.864m7.285-13.332-2.211 6.684m4.128 1.899-2.9 6.52" style="fill:none;stroke:#040306;stroke-width:1;stroke-linecap:round;stroke-miterlimit:4;stroke-dasharray:none;stroke-opacity:1;paint-order:markers fill stroke"></path><path d="m168.052 53.006-5.822-1.961" style="fill:#fff63d;fill-opacity:1;stroke:#040306;stroke-width:1;stroke-linecap:square;stroke-miterlimit:4;stroke-dasharray:none;stroke-opacity:1;paint-order:markers fill stroke"></path><path d="M185.132 59.98c.416.186 1.962.906 1.962 3.153-3.853 9.84-.872 2.183-3.853 9.84l-4.35.171-4.542-3.35c5.423-10.605 9.441-10.417 10.783-9.815z" style="fill:#040306;fill-opacity:1;stroke:#040306;stroke-width:1;stroke-linecap:round;stroke-miterlimit:4;stroke-dasharray:none;stroke-opacity:1;paint-order:markers fill stroke"></path><path d="M100 56.021c-37.072 0-68.503 11.252-83.067 17.67M100 56.021c37.072 0 68.503 11.252 83.067 17.67" style="fill:none;stroke:#040306;stroke-width:4;stroke-linecap:round;stroke-miterlimit:4;stroke-dasharray:none;stroke-opacity:1;paint-order:markers fill stroke"></path><path d="M100 56.021c-37.072 0-68.503 11.252-83.067 17.67M100 56.021c37.072 0 68.503 11.252 83.067 17.67" style="fill:none;stroke:#fff63d;stroke-width:2;stroke-linecap:round;stroke-miterlimit:4;stroke-dasharray:none;stroke-opacity:1;paint-order:markers fill stroke"></path><path d="M73.045 108.565c0-3.675 2.606-6.281 6.28-6.281h13.63c3.676 0 6.282 2.606 6.282 6.281v10.29h-6.281v-6.815c0-2.239-1.236-3.475-3.475-3.475h-6.68c-2.24 0-3.475 1.236-3.475 3.475v26.127l13.63 30.47v-28.902c0-2.773-1.269-4.042-4.042-4.042h-4.11v-6.281h8.152c3.675 0 6.281 3.616 6.281 6.281v62.759l-26.192-58.554zm32.472-6.281v6.281h1.443v91.036h-1.443v6.281h16.751c3.43 0 6.282-2.852 6.282-6.281v-91.036c0-3.429-2.852-6.281-6.282-6.281z" style="fill:#196735;fill-opacity:1;stroke:#000008;stroke-width:1.5;stroke-linecap:square;stroke-linejoin:miter;stroke-miterlimit:4;stroke-dasharray:none;stroke-opacity:1;paint-order:markers fill stroke"></path><path d="M113.24 108.565v91.036h4.907c2.94 0 4.121-1.181 4.121-3.474v-84.088c0-2.293-1.181-3.474-4.121-3.474z" style="fill:#fff;fill-opacity:1;stroke:#000008;stroke-width:1.5;stroke-linecap:square;stroke-linejoin:miter;stroke-miterlimit:4;stroke-dasharray:none;stroke-opacity:1;paint-order:markers fill stroke"></path><path d="M154.896 102.284h-13.898c-3.007 0-6.281 3.275-6.281 6.281v90.162l6.281-13.723v-16.478l13.898-31.069v16.16l6.28-14.042v-31.01c0-3.006-3.274-6.28-6.28-6.28z" style="fill:#196735;fill-opacity:1;stroke:#000008;stroke-width:1.5;stroke-linecap:square;stroke-linejoin:miter;stroke-miterlimit:4;stroke-dasharray:none;stroke-opacity:1;paint-order:markers fill stroke"></path><path d="M152.086 108.565h-7.915c-1.712 0-3.173 2.068-3.173 3.475v40.733l13.898-31.068v-9.665c0-1.407-1.098-3.475-2.81-3.475z" style="fill:#fff;fill-opacity:1;stroke:#000008;stroke-width:1.5;stroke-linecap:square;stroke-linejoin:miter;stroke-miterlimit:4;stroke-dasharray:none;stroke-opacity:1;paint-order:markers fill stroke"></path><path d="M99.988 198.224v3.739l-1.52-3.396zm34.014.226v3.738l1.52-3.396zm-40.294-29.871v3.576l-1.456-3.254zm46.541-15.865v3.577l1.455-3.255zm15.397-15.195v-3.577l-1.456 3.255zm-1.502 16.043v3.576l1.455-3.254z" style="fill:#00000d;fill-opacity:1;stroke:#000008;stroke-width:.001;stroke-linecap:square;stroke-linejoin:miter;stroke-miterlimit:4;stroke-dasharray:none;stroke-opacity:1;paint-order:markers fill stroke"></path></g><!-- source: https://football-logos.cc --></svg>