<svg xmlns="http://www.w3.org/2000/svg" viewBox="52.22 137.48 490.83 566.93"><!-- Source: https://football-logos.cc --><path d="m52.224 175.804 23.98-7.253 6.405 14.102 14.373-3.825-5.7-14.776 23.042-5.465 2.188 37.726 20.059 25.084.155-.033 7.326-30.66-18.642-34.797 26.12-5.464 4.954 16.324 11.883-2.19-1.344-17.027 20.382-3.12 5.128 16.546 13.323-1.8-2.314-17.271 27.57-2.313-6.145 38.926 19.91 26.331.137-.012 12.228-30.577-10.994-36.78h23.564v15.514h15.315V137.48h24.862v15.514h15.314V137.48h23.525l-11.037 36.727 12.037 30.401.691.063 19.773-26.15-6.145-38.927 27.57 2.313-2.314 17.27 13.323 1.801 5.128-16.546 20.382 3.12-1.344 17.028 11.883 2.189 4.953-16.324 26.12 5.464-18.641 34.797 7.372 30.849 20.185-25.243 2.187-37.725 23.043 5.465-5.7 14.776 14.373 3.825 6.405-14.102 23.98 7.253-22.65 30.524-9.525 27.23c2.785 1.148 3.928 4.504 3.396 7.859-.548 3.456-2.876 6.87-7.02 6.597l-4.938 15.234c2.794 1.206 3.82 5.048 2.988 8.422-.868 3.522-3.762 6.533-8.304 5.495-5.515 82.417-24.902 161.633-60.57 236.248-34.561 72.302-80.453 134.584-139.23 190.996-61.762-59.428-109.957-125.576-144.54-202.975-17.607-39.407-31.124-80.262-40.423-122.456-7.38-33.481-11.919-67.472-14.556-101.64-4.326.555-7.03-2.108-7.904-5.465-.892-3.431.126-7.266 2.9-8.613l-5.049-15.066c-3.682-.175-6.005-2.777-6.816-5.767-.987-3.635.263-7.843 3.558-8.956l-9.496-27.143Z" style="fill:#09120b;fill-rule:evenodd" data-source="https://football-logos.cc"></path><path d="M104.858 275.091c64.566-18.686 128.91-28.317 193.279-28.29 63.981.026 127.867 9.605 191.656 28.29-5.318 82.163-25.098 161.214-60.63 235.554-31.69 66.284-74.096 127.955-131.66 184.017-57.338-56.763-104.208-121.42-137.63-196.218-29.49-65.998-48.112-131.75-55.015-223.353m17.282 10.386c4.501 50.535 12.54 98.888 27.91 146.769 8.141 25.36 18.047 49.72 29.51 73.783 29.938 62.836 70.178 119.559 118.012 166.678 49.918-49.8 88.44-104.897 118.733-168.27 33.032-69.103 50.067-142.991 56.311-219.099-57.563-15.872-114.667-23.725-174.485-23.75-60.33-.025-117.902 8.05-175.991 23.89" style="fill:#fff;fill-rule:evenodd"></path><path d="M257.78 268.526v141.049l1.177 4.623V619.96c-26.774-32.651-49.937-68.432-68.976-106.48V276.785c25.347-5.127 46.507-7.33 67.798-8.258m77.683 352.24c26.928-32.842 49.815-67.945 69.369-106.637V276.533c-22.678-4.722-44.537-6.951-67.537-7.942v144.451l-1.832 6.068z" style="fill:#fff;fill-rule:evenodd"></path><path d="m78.314 199.756 31.982-9.155-1.731-24.124-8.346 2.054 4.404 14.834-25.337 7.01-6.986-13.467-9.884 2.82zm8.722 19.68 6.313-2.086c-1.811-1.316-5.017-2.113-7.499-1.345zm2.258 6.702 13.16-3.912-3.857-2.157-10.365 3.028zm2.15 6.167 17.16-4.686-4.516-2.656-13.866 3.923zm-7.394-20.67c17.498.766 23.355 5.834 31.315 14.898l14.872-4.012-19.99-23.414-27.921 7.863zm432.911-11.879-31.982-9.155 1.732-24.124 8.346 2.054-4.404 14.834 25.337 7.01 6.985-13.467 9.885 2.82zm-8.722 19.68-6.312-2.086c1.81-1.316 5.017-2.113 7.498-1.345zm-2.257 6.702-13.16-3.912 3.856-2.157 10.366 3.028zm-2.15 6.167-17.16-4.686 4.516-2.656 13.866 3.923zm7.394-20.67c-17.499.766-23.356 5.834-31.315 14.898l-14.873-4.012 19.99-23.415 27.922 7.864zm-256.895-68.92 7.376 24.948h72.023l7.003-24.948h-9.802v14.99h-26.7V141.8h-13.346v15.906h-26.962v-14.99Zm36.664 45.309h13.566c-1.769-2.283-4.393-3.127-6.958-3.109s-5.073.898-6.608 3.109m-8.022 6.543h29.392l-2.422-2.564h-24.632zm-7.5 8.114h44.536l-3.14-3.467h-38.385zm-9.662-28.882-12.284 29.772 16.282-.586c3.542-.005 7.225-3.106 10.535-7.644 4.839-6.632 9.021-15.518 17.283-15.52 7.794-.003 12.135 8.143 16.647 14.76 3.087 4.527 6.402 8.34 9.944 8.335l17.344.857-12.047-29.974zM135.39 160.68l11.888 23.326 71.644-11.33 4.27-26.325-12.654 1.392 2.083 16.592-24.162 3.529-5.21-16.31-9.854 1.508 1.46 16.841-21.664 3.62-6.538-15.552zm46.484 37.88 11.225-1.929c-1.605-1.56-3.55-2.049-6.115-1.642-2.8.443-4.262 2.104-5.11 3.572m-7.915 8.44 30.616-5.262-3.063-2.356-25.472 4.43zm-6.644 8.704 45.575-7.387-4.44-2.955-38.196 6.19zm-16.961-24.962-7.162 29.51 17.665-3.594c3.807-8.675 8.734-15.268 13.597-19.69 4.29-3.902 8.644-6.264 12.028-6.727 3.094-.423 6.875.304 11.196 1.901 6.666 2.464 14.364 7.356 21.77 14.746l18.023-1.015-19.385-25.842zm309.516-30.06-11.889 23.325-71.643-11.33-4.272-26.325 12.655 1.392-2.083 16.592 24.162 3.528 5.21-16.31 9.854 1.51-1.459 16.84 21.663 3.62 6.538-15.553zm-46.485 37.88-11.225-1.93c1.606-1.56 3.55-2.049 6.115-1.643 2.8.444 4.262 2.105 5.11 3.572m7.915 8.439-30.616-5.263 3.063-2.356 25.473 4.432zm6.644 8.703-45.575-7.386 4.44-2.955 38.197 6.19zm16.961-24.961 7.162 29.51-17.665-3.595c-3.807-8.674-8.733-15.267-13.597-19.69-4.29-3.901-8.644-6.263-12.028-6.726-3.094-.424-6.874.303-11.196 1.901-6.666 2.464-14.364 7.356-21.77 14.746l-18.023-1.015 19.385-25.843zm-339.396 69.593c11.37-2.974 23.958-6.327 37.019-9.2 15.793-3.475 32.678-6.473 50.031-9.3a618 618 0 0 1 5.355-.847l-21.594-7.78 10.718-7.844c-26.921 4.398-54.079 10.764-83.253 18.79l19.285 1.265zm259.332-36.078-37.5-2.564-.254 9.13 37.207 2.566zm99.285 16.63-36.52-7.704-1.961 8.974 36.582 7.679zM230.29 224.126l37.5-2.564.254 9.13-37.207 2.567zm-99.285 16.63 36.52-7.704 1.961 8.974-36.582 7.679zm70.557-.318c32.185-4.756 62.085-6.534 94.915-6.611l-19.852-10.661 10.729-6.272c-28.518.202-57.758 2.504-83.903 6.028l18.847 4.63zm97.304-6.614c32.264.004 62.337 1.536 94.015 6.318l-20.049-12.46 18.083-4.442c-26.654-3.706-54.43-5.533-82.773-6.152l10.668 6.193zm98.934 7.085q1.839.295 3.686.606c17.504 2.944 34.887 6.232 51.284 9.752 12.763 2.741 24.905 5.954 36.615 8.998l-17.324-14.715 18.867-1.237c-13.556-3.691-27.07-7.335-40.685-10.328-13.662-3.003-27.429-5.633-41.444-7.974l10.012 7.328z" style="fill:#fcc500;fill-rule:evenodd"></path><path d="m195.551 224.759 16.71 4.08-12.84 8.597-13.498-5.087zM92.356 247.526l21.564.749-16.863 13.568zm204.843-30.01 12.493 6.59-12.493 5.54-12.494-5.672z" style="fill:#3ea82e;fill-rule:evenodd"></path><path d="m134.899 242.528 29.91-6.38.832 3.856-29.934 6.333zm99.239-16.201 30.49-1.884.157 3.938-30.414 1.833z" style="fill:#e1001d;fill-rule:evenodd"></path><path d="m399.581 224.89-16.71 4.08 12.84 8.597 13.498-5.087zm103.195 22.767-21.564.749 16.864 13.568z" style="fill:#3ea82e;fill-rule:evenodd" data-source="https://football-logos.cc"></path><path d="m460.234 242.66-29.911-6.38-.832 3.855 29.935 6.333zm-99.24-16.202-30.49-1.884-.157 3.938 30.414 1.833z" style="fill:#e1001d;fill-rule:evenodd"></path><path d="M298.2 297.804c25.504 0 48.5 8.511 67.141 24.95-18.791 14.969-31.544 40.721-33.885 51.27 25.078-5.68 40.859-19.71 53.074-32.784 18.717 17.524 28.143 44.81 28.143 69.205s-13.232 53.368-26.98 69.908c-12.243-13.335-25.486-26.296-52.47-35.564 4.442 18.546 14.834 36.57 34.247 52.718-19.022 15.112-43.094 24.532-69.27 24.532-26.761 0-51.323-8.913-70.538-24.638 16.093-13.68 27.821-29.165 34.241-52.41-15.251 4.35-37.414 16.686-52.343 35.626-19.501-24.339-25.833-49.303-25.833-70.041 0-20.739 4.63-47.079 27.048-69.404 15.322 18.66 39.503 29.937 52.885 32.894-3.767-12.149-13.503-34.953-33.603-51.406 20.12-17.696 42.54-24.856 68.143-24.856" style="fill:#09120b;fill-rule:evenodd"></path><path d="M384.973 467.707c14.14-20.12 18.67-38.766 18.67-57.262 0-20.185-6.797-40.17-19.043-56.59-14.044 12.95-30.265 22.581-49.177 28.027-.145 4.046 1.933 6.186 3.983 6.826 14.7-4.924 30.504-12.763 43.159-22.906 8.3 13.36 12.965 28.787 12.965 44.643 0 16.682-4.347 30.829-12.449 44.614-13.07-11.863-24.023-19.155-42.788-24.36-2.7 1.673-3.628 3.466-3.24 6.45 19.639 7.134 33.857 16.462 47.92 30.558m-61.521-96.13c8.595-20.254 17.86-36.098 30.814-49.016-15.888-10.942-35.82-18.083-56.066-18.083-21.215 0-41.053 6.512-57.121 18.01 10.54 11.232 23.499 30.408 30.551 48.958 3.963-.04 5.947-1.344 7.106-3.899-5.105-14.595-15.08-31.905-25.565-43.338 13.659-7.797 29.202-11.748 45.029-11.748 15.131 0 30.381 4.409 43.673 11.798-10.5 12.67-18.263 25.166-25.447 43.137 1.43 2.415 3.223 4.108 7.026 4.18m-63.578 10.24c-18.928-5.34-35.81-15.18-48.955-28.121-13.653 16.447-19.209 39.807-19.209 56.88s5.121 39.14 18.891 56.904c12.979-13.407 29.189-23.092 47.382-30.389 1.158-1.363-.426-5.326-3.013-6.367-17.938 4.879-32.138 13.762-42.616 24.6-7.854-13.317-12.661-29.626-12.661-44.748 0-14.796 4.744-31.726 12.89-44.852 8.775 6.339 23.629 17.167 43.747 23.113 1.24-.41 3.834-2.763 3.544-7.02m11.062 67.607c-4.958 14.308-18.455 36.14-30.675 48.687 17.14 11.558 37.088 18.17 57.939 18.17 20.367 0 38.673-6.967 55.493-18.104-14.69-16.629-23.7-31.517-30.543-48.884-4.645-.362-6.595 2.038-7.335 3.568 6.229 16.134 14.506 29.996 25.636 43.502-12.218 6.705-27.68 11.804-43.382 11.804-16.084 0-31.312-4.284-45.288-11.966 11.41-13.252 19.953-28.499 25.303-43.027-1.239-2.49-3.003-4.328-7.148-3.75" style="fill:#fff;fill-rule:evenodd"></path><path d="M275.945 386.59c-2.854 7.667-4.147 15.337-4.147 22.968 0 8.887 1.496 17.723 4.98 26.443 2.787 1.618 6.304 2.419 10.1 2.352-5.414-19.09-5.322-37.95-.853-56.635-1.707-.156-4.866.36-7.51 1.673-1.734.86-1.91 1.427-2.57 3.2m-1.391 53.93c10.251 2.49 16.466 3.055 23.316 2.927 6.774-.126 14.53-1.23 22.68-2.948 3.017-.636 4.067 2.947 1.73 4.558-8.382 5.778-16.838 7.812-25.11 7.724-8.718-.093-19.025-3.427-24.537-7.92-1.668-1.36-.624-4.96 1.92-4.342m.13-60.722c10.252-2.492 16.467-3.056 23.317-2.928 6.774.126 14.53 1.23 22.68 2.948 3.017.636 4.067-2.947 1.73-4.557-8.383-5.779-16.838-7.813-25.11-7.725-8.719.093-19.025 3.427-24.537 7.92-1.668 1.36-.624 4.96 1.92 4.342m60.958 44.065c.09 3.08-2.939 9.357-6.202 12.33-.574.521-2.351.839-3.845.763-1.827-.091-2.699-1.086-2.448-3.05.165-1.29.6-2.633.949-3.896.449-1.626.842-3.123 1.245-4.221 2.479-2.433 10.253-3.573 10.301-1.926m.399-27.258c.09-3.08-2.94-9.357-6.203-12.33-.573-.522-2.35-.84-3.844-.764-1.827.092-2.7 1.087-2.448 3.05.165 1.291.6 2.633.949 3.897.448 1.625.842 3.123 1.244 4.221 2.48 2.433 10.254 3.573 10.302 1.926m.151 4.724c1.271.244 2.403 1.713 2.819 4.133.249 1.451.23 3.134.159 4.8-.133 3.143-1.655 8.264-2.49 8.54-1.208.401-5.015.006-5.873-.226-2.709-.731-3.81-4.323-4.16-8.025-.372-3.942-.225-8.013 3.04-8.899 1.437-.39 4.8-.65 6.505-.323m-77.07-.049c-1.27.244-2.402 1.713-2.818 4.133-.25 1.451-.23 3.134-.16 4.8.134 3.143 1.656 8.264 2.49 8.54 1.209.4 5.016.006 5.874-.226 2.709-.731 3.81-4.323 4.16-8.025.372-3.942.225-8.013-3.04-8.899-1.437-.39-4.8-.65-6.505-.323m.152-4.593c-.09-3.08 2.939-9.358 6.203-12.33.573-.522 2.35-.84 3.844-.764 1.827.091 2.699 1.086 2.448 3.05-.165 1.29-.6 2.633-.949 3.897-.449 1.625-.842 3.123-1.244 4.22-2.48 2.433-10.254 3.573-10.302 1.927m.268 26.734c-.09 3.08 2.939 9.357 6.202 12.33.574.522 2.351.84 3.845.764 1.827-.092 2.699-1.087 2.448-3.05-.165-1.291-.6-2.633-.949-3.897-.449-1.625-.843-3.123-1.245-4.221-2.479-2.433-10.253-3.573-10.301-1.926m49.627-41.73c4.582 19.868 5.21 34.4-.723 56.463 3.708.13 7.143-.661 9.929-2.009 7.532-16.966 6.544-35.507.158-51.868-3.142-1.89-6.425-2.713-9.364-2.587m-18.128-.434c-3.742 16.011-4.301 35.85.605 57.358 3.861 2.165 8.655 1.509 12.06.185 4.374-19.071 4.96-37.979.51-57.53-4.063-1.608-9.44-1.355-13.175-.013" style="fill:#fcc500;fill-rule:evenodd"></path><path d="M211.378 438.64c-1.189-7.38-.738-17.717.792-26.327 1.905-10.727 5.313-20.738 11.25-30.266.354-.57 1.683-1.265 2.228.192 4.949 13.232 8.749 26.319 13.636 39.567 1.03 2.791-6.463 7.056-7.736 4.367-.932-1.968-1.587-4.106-2.551-6.485-.189-.466-1.174-.179-1.644 0-2.618.994-4.563 1.892-7.564 4.367-.49.404-.957 1.18-.998 1.815-.16 2.465.55 5.34.393 7.806-.08 1.24-.225 1.947-1.196 2.64-1.871 1.336-3.438 2.466-4.987 3.26-.402.206-1.431.254-1.623-.937m10.756-40.214c-1.682 4.467-2.745 9.464-3.026 14.029a.548.548 0 0 0 .756.53c1.762-.635 3.606-1.407 5.054-2.366 1.044-.692 1.078-1.779.897-2.813-.539-3.08-1.034-6.054-2.189-9.077-.55-1.443-1.329-.736-1.492-.303m51.298-68.002 12.588 28.835c.482 1.103 2.037 1.429 3.687 1.387 2.41-.06 5.212-.807 4.923-2.542-.443-2.66-1.733-5.676-2.725-8.65-.19-.569.243-.815.957-.917 2.14-.304 6.717.262 7.48-.598 1.472-1.66 1.009-6.94-1.21-6.965l-11.72-.13-2.554-6.491c-.248-.63-.012-1.406.647-1.555 5.228-1.185 15.46-1.327 23.015 0 1.674.293 2.214 1.467 2.397 2.76.184 1.291.011 2.704.783 3.476 1.031 1.032 2.931.69 3.663-.37 1.731-2.512 2.84-5.617 3.37-8.592.175-.975-.06-1.933-1.472-2.464-11.057-4.154-27.751-5.17-42.831-.242-1.399.457-1.675 1.505-.998 3.058m109.054 87.161h-7.198c-1.28 5.753-3.825 8.556-6.955 8.551-6.995-.01-7.37-11.623-7.113-16.56.282-5.38 1.846-16.457 8.963-16.497 4.551-.026 5.912 4.166 6.223 8.977l6.848.13c.511-8.013-3.688-18.304-12.723-18.3-12.71.008-16.224 16.104-16.723 25.622-.477 9.097 1.193 25.627 14 25.627 8.386 0 12.708-7.159 14.678-17.55" style="fill:#fff;fill-rule:evenodd" data-source="https://football-logos.cc"></path><!-- source: https://football-logos.cc --></svg>