<svg xmlns="http://www.w3.org/2000/svg" xml:space="preserve" viewBox="0 0 155.05 234.33"><!-- Source: https://football-logos.cc --><defs data-source="https://football-logos.cc"><clipPath id="a" clipPathUnits="userSpaceOnUse"><path d="M0 792h612V0H0Z"></path></clipPath></defs><g clip-path="url(#a)" transform="matrix(1.33333 0 0 -1.33333 -329.643 644.665)" data-source="https://football-logos.cc"><path d="M304.56 307.748c39.046 29.724 59.971 71.546 58.923 127.955-4.923 1.833-8.275 4.923-10.004 9.323-.89.314-1.754.733-2.645 1.047 1.99 6.207 3.981 12.309 5.972 18.515.549 3.169 1.465 7.569-5.003 10.738-4.006 1.44-8.746-.681-9.558-4.06l-6.207-20.034a1237 1237 0 0 0-4.767 10.266c5.264 1.44 8.8 4.95 7.412 12.44-1.362 6.049-8.38 7.672-17.441 8.327-1.048-9.715-2.069-19.431-3.117-29.147-1.519.105-3.928.288-5.446.366 6.782 4.426 6.337 20.191 3.509 25.796-2.881 5.866-11.392 5.421-14.037-.131-2.75-5.447-3.928-20.715 3.797-25.769-2.121-.079-4.373.026-6.416-.157-.707 10.03-1.44 19.955-2.147 29.985-2.226-.236-4.059-.34-6.285-.576-1.1-3.771-2.881-8.616-4.086-12.282-2.147 3.247-4.976 7.49-7.123 10.763-2.383-.471-3.666-.759-6.049-1.231 1.518-9.48 2.906-18.96 4.321-28.414-.629-.236-1.493-.157-2.121-.419-1.991 7.254-3.51 12.937-5.605 20.165-1.362 4.583-5.552 6.73-10.58 4.95-4.269-1.991-5.866-6.469-4.504-11.576l5.264-17.677c-1.1-.392-1.677-.706-2.803-1.099-1.754-5.814-6.259-8.354-10.553-10.345-.917-55.231 19.981-96.66 57.299-127.719" style="fill:#fff;fill-opacity:1;fill-rule:evenodd;stroke:none"></path><path d="M258.391 431.722c15.031 5.342 30.457 7.516 46.169 7.516-3.588-10.187-7.202-20.4-10.789-30.613h-33.888c-.995 7.463-1.833 14.979-1.492 23.097m94.12-.628c.34-8.118-.263-14.927-1.283-22.365h-33.626c-3.588 10.188-7.202 20.401-10.789 30.614 15.712 0 30.666-2.907 45.698-8.249m-1.833-25.952c-3.013-18.202-9.272-33.102-16.997-46.537-3.195 9.69-6.39 19.379-9.584 29.042zm-46.118-31.373c9.27-6.103 18.07-12.675 27.367-18.778-7.019-11.915-15.451-22.521-27.105-32.394-10.633 9.427-19.667 20.845-27.602 33.626 9.113 5.84 18.227 11.705 27.34 17.546m-44.153 31.346 25.586-17.807c-3.274-9.612-6.521-19.222-9.795-28.833-7.306 13.512-13.172 28.44-15.791 46.64m44.153-97.367c39.046 29.724 59.971 71.546 58.923 127.955-4.923 1.833-8.275 4.923-10.004 9.323-.89.314-1.754.733-2.645 1.047 1.99 6.207 3.981 12.309 5.972 18.515.549 3.169 1.465 7.569-5.003 10.738-4.006 1.44-8.746-.681-9.558-4.06l-6.207-20.034a1237 1237 0 0 0-4.767 10.266c5.264 1.44 8.8 4.95 7.412 12.44-1.362 6.049-8.38 7.672-17.441 8.327-1.048-9.715-2.069-19.431-3.117-29.147-1.519.105-3.928.288-5.446.366 6.782 4.426 6.337 20.191 3.509 25.796-2.881 5.866-11.392 5.421-14.037-.131-2.75-5.447-3.928-20.715 3.797-25.769-2.121-.079-4.373.026-6.416-.157-.707 10.03-1.44 19.955-2.147 29.985-2.226-.236-4.059-.34-6.285-.576-1.1-3.771-2.881-8.616-4.086-12.282-2.147 3.247-4.976 7.49-7.123 10.763-2.383-.471-3.666-.759-6.049-1.231 1.518-9.48 2.906-18.96 4.321-28.414-.629-.236-1.493-.157-2.121-.419-1.991 7.254-3.51 12.937-5.605 20.165-1.362 4.583-5.552 6.73-10.58 4.95-4.269-1.991-5.866-6.469-4.504-11.576l5.264-17.677c-1.1-.392-1.677-.706-2.803-1.099-1.754-5.814-6.259-8.354-10.553-10.345-.917-55.231 19.981-96.66 57.299-127.719" style="fill:#00f;fill-opacity:1;fill-rule:evenodd;stroke:none"></path><path d="M348.948 460.005c.472 1.572.996 3.536 1.389 4.819.891 2.828-2.095 3.509-3.065 1.048l-1.544-4.636zm-86.053 2.226c-.367 1.493-.76 2.959-1.126 4.452-.628 2.593 2.383 3.667 3.692 1.205l1.31-4.426zm64.501 11.916c-.262-1.807-.498-3.98-.759-5.788 2.775-.628 5.106-.393 5.472 2.174.656 2.619-1.806 3.247-4.713 3.614m-2.567-22.024.76 5.604 3.116-6.076zm-17.467 21.343c.707 2.645 2.908 2.698 3.509 0 .838-3.954.97-8.354 0-11.051-.76-2.069-2.487-2.122-3.404-.184-.916 2.881-1.153 7.019-.105 11.235m-23.779-8.93c.367-3.483 1.048-8.642 1.415-12.125 2.409.34 5.106.524 7.752.602l-1.127 12.57-3.404-7.882zm61.883-16.263 1.44 4.819-3.248 1.179c-.55-1.598-.969-3.248-1.518-4.846 1.283-.34 2.409-.838 3.326-1.152m-79.062.367-1.885 6.599 4.137 1.336c.707-2.226 1.283-4.426 1.886-6.626a50 50 0 0 1-4.138-1.309" style="fill:#fff;fill-opacity:1;fill-rule:evenodd;stroke:none"></path><path d="M293.063 402.549c-2.199-2.829-3.142-5.971-3.247-9.375 2.41.182 4.819.34 7.202.497.105 4.609-1.388 7.359-3.955 8.878m26.032 0c1.964-2.541 2.801-5.081 2.88-8.118-2.148.051-4.163 0-6.468.131-.079 4.164 1.257 6.651 3.588 7.987m-26.66-17.965c-1.781 2.278-2.514 4.426-2.593 7.149 1.991.158 5.159.367 7.071.236.262-3.954-1.518-6.443-4.478-7.385m26.738-.394c-3.823 1.598-3.876 6.05-3.745 8.748 1.912-.131 4.583-.052 6.495-.158.288-4.399-1.886-7.803-2.75-8.59m-22.024 17.05c2.095 1.413 4.426 2.54 7.568 2.592.027-7.044.079-14.011.131-21.055-2.723.367-5.08 1.676-7.071 3.405 1.807 5.001 1.493 10.736-.628 15.058m17.441-.786c-1.885 1.885-4.451 3.326-7.699 3.299l-.158-20.95c2.593.079 6.259 1.309 7.883 3.116-1.597 3.824-1.624 9.926-.026 14.535" style="fill:#f7ed1b;fill-opacity:1;fill-rule:evenodd;stroke:none"></path><path d="M294.242 403.963c6.678 6.573 16.76 6.835 23.439.209-.813-.68-1.258-1.283-1.912-2.042-5.526 4.975-13.906 4.714-19.668.367-.55.471-1.1.995-1.859 1.466m2.567-18.986c-.943-.943-2.096-1.913-3.405-2.279 6.285-7.07 17.179-8.222 24.8-.235-.838.497-1.624 1.073-2.724 1.937-6.285-4.215-12.858-4.765-18.671.577" style="fill:#f7ed1b;fill-opacity:1;fill-rule:evenodd;stroke:none"></path></g><!-- source: https://football-logos.cc --></svg>