<svg xmlns="http://www.w3.org/2000/svg" fill="none" viewBox="0 0 1357.27 2000"><!-- Source: https://football-logos.cc --><path fill="#FFC700" d="M677.058 1996.65 136.197 573.226H1221.07z" data-source="https://football-logos.cc"></path><path fill="#FFC700" d="M617.168 119.056c-6.487 0-11.746-5.259-11.746-11.746s5.259-11.746 11.746-11.746h4.786l.797-18.717h-37.976L568.16 3.267h47.471l7.12 37.976h33.23V3.267l45.097.01v37.977h33.23l7.121-37.977h47.47l-16.615 73.58h-37.976l.797 18.717h4.787c6.487 0 11.746 5.259 11.746 11.746s-5.259 11.746-11.746 11.746h-3.786l.789 18.443 174.625 17.538 3.936-15.894-3.71-.753c-6.358-1.29-10.466-7.49-9.176-13.847 1.29-6.358 7.49-10.466 13.847-9.176l4.691.952 4.503-18.185-37.218-7.552-1.651-75.414 46.522 9.44-.573 38.634 32.566 6.607 7.552-37.218 44.201 8.967-7.56 37.219 32.57 6.607 14.53-35.802 46.52 9.44-30.91 68.806-37.22-7.551-2.94 18.502 4.69.951c6.36 1.29 10.47 7.49 9.18 13.848-1.29 6.357-7.49 10.465-13.85 9.175l-3.71-.752-2.27 14.27 166.16 55.661 10.56-19.825-3.41-1.634c-5.85-2.8-8.33-9.813-5.53-15.665s9.82-8.326 15.67-5.527l4.32 2.066 8.79-16.541-34.26-16.389 16.77-73.545 42.82 20.486-9.96 37.331 50.31 24.072 22.81-31.185 42.82 20.486-46.74 59.205-34.25-16.388-8.98 16.451 4.32 2.066c5.85 2.8 8.32 9.813 5.52 15.665s-9.81 8.326-15.66 5.527l-3.42-1.634-111.3 232.81c4.12 3.155 5.5 8.796 3.15 13.647-2.69 5.541-9.37 7.852-14.91 5.161l-30.66 63.136c5.62 2.727 7.96 9.491 5.23 15.107-2.72 5.616-9.49 7.958-15.1 5.231-128.684-46.648-267.792-72.169-412.58-72.169s-283.897 25.511-412.578 72.159c-5.616 2.727-12.38.385-15.107-5.231s-.385-12.38 5.231-15.107l-30.657-63.136c-5.541 2.691-12.215.38-14.906-5.161-2.355-4.851-.977-10.492 3.144-13.647l-111.301-232.81-3.415 1.634c-5.852 2.799-12.865.325-15.665-5.527s-.325-12.865 5.527-15.665l4.318-2.066-8.977-16.451-34.258 16.388-46.741-59.205 42.822-20.486 22.812 31.185 50.314-24.072-9.966-37.331 42.822-20.486 16.766 73.545-34.258 16.389 8.797 16.541 4.318-2.066c5.852-2.799 12.865-.325 15.665 5.527s.325 12.865-5.527 15.665l-3.415 1.634 10.565 19.824 166.159-55.66-2.269-14.271-3.71.753c-6.357 1.29-12.557-2.818-13.847-9.175s2.818-12.558 9.176-13.848l4.691-.951-2.941-18.502-37.218 7.551-30.914-68.807 46.522-9.439 14.53 35.802 32.566-6.607-7.551-37.219 44.197-8.967 7.551 37.218 32.566-6.608-.573-38.634 46.523-9.44-1.652 75.415-37.218 7.552 4.503 18.185 4.691-.952c6.358-1.29 12.557 2.818 13.847 9.176 1.29 6.357-2.818 12.557-9.176 13.847l-3.71.753 3.936 15.894 174.625-17.538.79-18.443z"></path><path fill="#EA2A00" d="M678.635 499.927c-144.766 0-283.853 25.517-412.514 72.158a11.3 11.3 0 0 1-4.82 1.138h834.759a11.25 11.25 0 0 1-4.91-1.138c-128.662-46.641-267.749-72.158-412.515-72.158m502.915 103.414L726.129 1802.74 270.163 603.341"></path><path fill="#0E62C5" d="M1181.55 603.341 788.98 1637.03 396.415 603.341"></path><path fill="#FAF7F1" d="M1181.55 603.341 846.188 1483.16 510.831 603.341" data-source="https://football-logos.cc"></path><path fill="#23221E" d="M644.306 377.286c0-79.51 11.784-108.525 34.329-127.476 22.545 18.951 34.331 47.966 34.331 127.476a1209 1209 0 0 0-34.331-.482c-11.522 0-22.875.158-34.329.482m12.264-205.001c0 12.186 9.879 22.065 22.065 22.065s22.067-9.879 22.067-22.065-9.88-22.066-22.067-22.066-22.065 9.879-22.065 22.066m-256.284 52.094c11.943-2.424 19.661-14.07 17.238-26.013s-14.07-19.661-26.013-17.238-19.661 14.07-17.238 26.013 14.07 19.661 26.013 17.238M245.4 456.786c-34.313-71.724-57.936-94.486-86.452-101.852l54.887 114.885c.587-.45 1.326-.924 2.017-1.259a1197 1197 0 0 1 29.548-11.774M135.014 304.904c10.994-5.259 15.642-18.434 10.383-29.427-5.259-10.994-18.434-15.642-29.428-10.383zm334.827 89.938c-15.724-76.726-32.834-102.115-58.527-116.111-18.211 22.91-24.07 52.968-8.631 129.8a1208 1208 0 0 1 67.158-13.689m487.144-170.463c-11.943-2.424-19.661-14.07-17.237-26.013 2.423-11.943 14.069-19.661 26.013-17.238 11.943 2.424 19.66 14.07 17.237 26.013s-14.07 19.661-26.013 17.238m154.885 232.407c34.31-71.724 57.94-94.486 86.45-101.852l-54.88 114.885c-.59-.45-1.33-.924-2.02-1.259-9.81-4.06-19.6-7.963-29.55-11.774m110.39-151.882c-11-5.259-15.65-18.434-10.39-29.427 5.26-10.994 18.44-15.642 29.43-10.383zm-334.83 89.938c22.607 3.944 45 8.513 67.159 13.689 15.439-76.832 9.579-106.89-8.632-129.8-25.693 13.996-42.802 39.385-58.527 116.111M663.485 777.864h-9.956l4.978-60.453zm8.296-119.287h-25.442l-11.615 114.429-5.531 51.277h19.912l3.318-26.448h12.721l3.319 26.448h19.911l-5.531-51.277m2.149-95.476h15.218v146.753h20.291V677.53h15.218v-18.953h-51.29m83.683 0h-20.557v165.706h43.399v-19.431h-22.842m86.532-127.322h15.218v146.753h20.29V677.53h15.218v-18.953h-51.29m82.853 0h-19.727v165.706h19.727zm37.199-3.946c-16.908 0-25.363 8.818-25.363 25.351v122.896c0 16.533 9.018 25.35 25.363 25.35 16.909 0 25.928-8.817 25.928-25.35v-17.636h-20.291v17.636c0 4.96-1.691 5.511-5.073 5.511s-5.073-1.103-5.073-5.511V679.982c0-4.409 1.691-5.511 5.073-5.511s5.073 1.102 5.073 5.511v18.186h20.291v-18.186c0-16.533-9.019-25.351-25.928-25.351m58.058 25.351c0-4.96 1.69-5.511 5.07-5.511s5.07 1.102 5.07 5.511v122.896c0 4.96-1.69 5.511-5.07 5.511s-5.07-1.103-5.07-5.511zm5.07-25.351c-16.91 0-25.36 8.818-25.36 25.351v122.896c0 16.533 9.01 25.35 25.36 25.35 16.91 0 25.93-8.817 25.93-25.35V679.982c0-16.533-9.02-25.351-25.93-25.351m-195.016-19.727-14.795 15.782h-20.714l14.796-15.782M802.79 824.283h39.454v-19.431h-20.516v-53.976h20.516v-19.432h-20.516v-53.976h20.516v-18.891H802.79"></path><path fill="#FFC700" d="m1047.4 855.846-13.56 35.595H695.956l39.05 102.406h260.331l-13.559 35.593H710.6l-65.625-173.594m125.766 240.944 30.592 81.48H887.1l30.045-81.48zm197.555-35.23-18.374 50.64-38.239 101.85h-96.146l48.073 127.72-19.12 50.65-124.553-330.86"></path><path fill="#BF7E00" fill-rule="evenodd" d="M565.663 1.26A3.35 3.35 0 0 1 568.282 0h47.464a3.355 3.355 0 0 1 3.296 2.736l6.606 35.235h27.088V3.354A3.353 3.353 0 0 1 656.089 0h45.092a3.354 3.354 0 0 1 3.354 3.354V37.97h27.087l6.607-35.235A3.35 3.35 0 0 1 741.525 0h47.463a3.352 3.352 0 0 1 3.271 4.092l-16.612 73.569a3.354 3.354 0 0 1-3.271 2.615h-34.471l.511 12.007h1.572c8.338 0 15.098 6.76 15.098 15.098s-6.76 15.098-15.098 15.098h-.285l.516 12.04 168.815 16.954 2.395-9.674-.28-.057c-8.172-1.658-13.452-9.626-11.794-17.798s9.627-13.452 17.799-11.794l1.54.312 2.889-11.665-33.783-6.855a3.355 3.355 0 0 1-2.686-3.213l-1.651-75.403a3.355 3.355 0 0 1 4.02-3.36l46.515 9.438a3.354 3.354 0 0 1 2.686 3.337l-.532 35.845 26.547 5.386 6.884-33.926a3.353 3.353 0 0 1 3.953-2.62l44.194 8.967a3.364 3.364 0 0 1 2.62 3.953l-6.89 33.926 26.55 5.386 13.48-33.217a3.35 3.35 0 0 1 3.77-2.026l46.52 9.438c1 .203 1.85.849 2.32 1.755.46.907.49 1.976.07 2.906l-30.91 68.796a3.35 3.35 0 0 1-3.72 1.912l-33.79-6.854-1.88 11.869 1.54.313c8.17 1.658 13.45 9.626 11.79 17.798s-9.62 13.452-17.8 11.794l-.28-.057-1.27 8.008 160.75 53.849 7.58-14.227-.25-.122c-7.52-3.598-10.7-12.613-7.11-20.135 3.6-7.522 12.62-10.702 20.14-7.104l1.42.679 5.64-10.611-31.1-14.876a3.356 3.356 0 0 1-1.82-3.771l16.77-73.534a3.33 3.33 0 0 1 1.81-2.275 3.34 3.34 0 0 1 2.9-.005l42.82 20.483a3.354 3.354 0 0 1 1.79 3.89l-9.25 34.636 45.29 21.667 21.16-28.935a3.364 3.364 0 0 1 4.16-1.045l42.81 20.483a3.357 3.357 0 0 1 1.19 5.103l-46.74 59.197a3.34 3.34 0 0 1-4.07.947l-31.39-15.014-5.76 10.553 1.13.539c7.52 3.598 10.7 12.613 7.1 20.135s-12.61 10.702-20.13 7.104l-.39-.187-54.95 114.863-53.83 112.679c3.75 4.261 4.7 10.472 2.08 15.869-3 6.169-9.79 9.259-16.2 7.828l-28.06 57.79c5.16 4.194 6.96 11.53 3.93 17.774q-.39.812-.87 1.552h112.67c1.11 0 2.14.543 2.76 1.452.63.909.77 2.068.37 3.099L680.191 1997.84a3.36 3.36 0 0 1-3.136 2.16 3.35 3.35 0 0 1-3.132-2.16L133.062 574.417a3.354 3.354 0 0 1 3.135-4.545h112.675a15 15 0 0 1-.873-1.552c-3.031-6.244-1.231-13.58 3.934-17.774l-28.061-57.79c-6.413 1.431-13.203-1.659-16.198-7.828-2.621-5.397-1.675-11.608 2.081-15.869l-53.833-112.677-54.95-114.865-.39.187c-7.521 3.598-16.536.418-20.134-7.104-3.599-7.522-.418-16.537 7.103-20.135l1.127-.539-5.758-10.553-31.385 15.014a3.355 3.355 0 0 1-4.08-.947L.722 158.243a3.352 3.352 0 0 1 1.185-5.103l42.816-20.483a3.355 3.355 0 0 1 4.154 1.045l21.166 28.935 45.284-21.667-9.246-34.636a3.35 3.35 0 0 1 1.792-3.89l42.816-20.483a3.355 3.355 0 0 1 4.717 2.28l16.764 73.534a3.355 3.355 0 0 1-1.823 3.771l-31.096 14.876 5.643 10.611 1.418-.679c7.522-3.598 16.537-.418 20.135 7.104s.418 16.537-7.104 20.135l-.255.122 7.582 14.227 160.75-53.849-1.272-8.008-.28.057c-8.172 1.658-16.141-3.622-17.799-11.794s3.622-16.14 11.794-17.798l1.541-.313-1.887-11.869-33.782 6.854a3.35 3.35 0 0 1-3.726-1.912l-30.91-68.796a3.354 3.354 0 0 1 2.393-4.66l46.515-9.439a3.354 3.354 0 0 1 3.774 2.026l13.481 33.218 26.547-5.387-6.884-33.926a3.354 3.354 0 0 1 2.62-3.953l44.19-8.966a3.355 3.355 0 0 1 3.954 2.62l6.883 33.925 26.547-5.386-.532-35.845a3.354 3.354 0 0 1 2.687-3.337l46.515-9.438a3.352 3.352 0 0 1 4.019 3.36l-1.651 75.403a3.354 3.354 0 0 1-2.686 3.213l-33.782 6.855 2.888 11.665 1.541-.312c8.172-1.658 16.14 3.622 17.798 11.794s-3.622 16.14-11.794 17.798l-.28.057 2.396 9.674 168.815-16.954.515-12.04h-.285c-8.338 0-15.098-6.76-15.098-15.098s6.76-15.098 15.098-15.098h1.572l.512-12.007h-34.471a3.355 3.355 0 0 1-3.272-2.615L565.011 4.092a3.36 3.36 0 0 1 .652-2.832m60.416 79.016-.512 12.007h106.136l-.511-12.007zm-1.798 42.203-10.822 252.707q13.712-.732 27.499-1.156c.319-77.226 12.071-107.077 35.519-126.787a3.35 3.35 0 0 1 4.316 0c23.448 19.71 35.2 49.561 35.519 126.787q13.787.424 27.5 1.156L732.99 122.479zm126.26 253.084 2.738.164 3.393-33.668-7.598-.763zm-1.757-41.037 52.85 5.308 3.29-32.758-57.563-5.781zm-1.713-40.001 14.232 1.429 3.29-32.758-18.945-1.903zm-1.713-40.002 64.196 6.448 3.29-32.759-68.909-6.92zm-1.713-40.001 25.579 2.569 3.289-32.758-30.291-3.043zm-1.713-40.002 75.543 7.587 3.29-32.758-80.256-8.06zm85.506-24.501-3.29 32.758 75.262 7.559 7.995-32.286zm70.343 46.894-30.012-3.014-3.29 32.758 25.307 2.542zm-9.623 38.863-68.64-6.893-3.29 32.758 63.935 6.421zm-9.624 38.863-18.685-1.876-3.29 32.758 13.98 1.404zm-9.624 38.863-57.312-5.756-3.29 32.758 52.607 5.284zm-9.624 38.863-7.353-.739-3.344 33.703q1.225.171 2.449.347zm-1.579 34.282a1213 1213 0 0 1 27.097 4.337c15.582-74.438 32.834-100.645 59.548-115.198a3.356 3.356 0 0 1 4.23.858c18.935 23.822 24.606 54.691 9.927 129.364a1207 1207 0 0 1 26.639 6.617l39.392-247.875-106.532-21.616zm136.962 28.499a1211 1211 0 0 1 78.721 24.09l10.35-31.045-78.06-26.148zm4.654-35.233-2.074-.695-2.108 13.263zm-1.006-7.411 45.343 15.188 10.45-31.218-50.55-16.936zm6.303-39.681 9.41 3.152 10.46-31.218-14.63-4.9zm6.31-39.682 57.9 19.396 10.46-31.218-63.12-21.144zm6.31-39.682 21.97 7.361 10.46-31.218-27.19-9.109zm6.3-39.682 70.47 23.604 10.45-31.218-75.68-25.352zm87.28-5.484-10.45 31.218 71.33 23.896 15.7-29.461zm57.68 61.116-28.06-9.399-10.45 31.218 22.81 7.643zm-18.9 35.464-63.95-21.424-10.46 31.218 58.71 19.668zm-18.9 35.464-15.43-5.171-10.46 31.218 10.19 3.414zm-18.9 35.463-51.33-17.195-10.45 31.218 46.08 15.439zm-18.89 35.464-2.81-.941-5.53 16.589zm-9.23 31.565 120.56-226.215 46.01 22.011-10.62 22.197c-11.94-3.894-25.21 1.571-30.78 13.21-5.57 11.638-1.5 25.4 9.03 32.255l-21.92 45.811c-29.01 8.085-52.71 32.015-85.78 100.457-8.78-3.34-17.61-6.583-26.5-9.726m32.79 12.137a1202 1202 0 0 1 25.48 10.187l50.03-104.715c-23.58 8.814-45.15 31.795-75.51 94.528m23.56 16.652a1202 1202 0 0 0-186.205-59.819 1205 1205 0 0 0-66.972-13.651c-67.689-11.809-137.294-17.988-208.218-17.988s-140.529 6.179-208.218 17.988a1205 1205 0 0 0-66.972 13.651 1202.5 1202.5 0 0 0-186.208 59.819 9 9 0 0 0-1.364.866c-2.845 2.177-3.831 6.088-2.166 9.517a7.8 7.8 0 0 0 10.422 3.609 3 3 0 0 1 .207-.092c140.379-56.779 293.578-87.996 454.299-87.996s313.92 31.217 454.295 87.996q.105.042.21.092a7.795 7.795 0 0 0 10.42-3.609c1.67-3.429.68-7.34-2.16-9.517a9.6 9.6 0 0 0-1.37-.866m-924.709-6.465a1202 1202 0 0 1 25.48-10.187c-30.363-62.733-51.928-85.714-75.508-94.528zm-54.014-113.056c29.01 8.086 52.715 32.016 85.779 100.458q13.176-5.011 26.501-9.725L153.031 216.612l-46.009 22.011 10.619 22.197c11.943-3.894 25.213 1.571 30.781 13.21 5.568 11.638 1.496 25.4-9.03 32.255zm-24.844-51.933c7.197-5.195 9.874-14.948 5.908-23.238-3.965-8.29-13.239-12.325-21.8-9.981zm147.422 139.074a1210 1210 0 0 1 78.717-24.09l-11.014-33.103-78.055 26.148zm-15.64-36.348 39.01-13.067-10.457-31.218-51.332 17.195 15.679 29.422 7.082-2.325zm-3.898 8.34 8.357 15.681-5.537-16.607zm-22.08-41.432 10.192-3.414-10.458-31.218-15.435 5.171zm-18.899-35.463 58.711-19.668-10.457-31.218-63.955 21.424zm-18.9-35.464 22.815-7.643-10.458-31.218-28.058 9.399zm-18.899-35.464 71.335-23.896-10.458-31.217-76.578 25.652zm67.237-57.244 10.457 31.218 70.463-23.604-5.239-32.966zm81.988 14.33-27.192 9.109 10.458 31.218 21.973-7.361zm6.307 39.682-63.119 21.144 10.457 31.218 57.901-19.396zm6.306 39.682-14.629 4.9 10.458 31.218 9.411-3.152zm6.307 39.681-50.556 16.936 10.457 31.218 45.339-15.188zm6.307 39.682-2.073.695 4.181 12.568zm12.101 33.407L332.726 164.75l106.536-21.616 60.302 243.513a1214 1214 0 0 0-27.098 4.337c-15.582-74.438-32.834-100.645-59.548-115.198a3.356 3.356 0 0 0-4.23.858c-18.935 23.822-24.606 54.691-9.927 129.364a1209 1209 0 0 0-26.639 6.617m33.175-8.143a1211 1211 0 0 1 60.558-12.344c-14.952-71.319-31.043-95.715-53.658-109.052-15.632 21.102-20.94 49.849-6.9 121.396m100.936-18.806q1.224-.176 2.448-.347l-3.343-33.703-7.354.739zm-9.878-39.888 52.608-5.284-3.29-32.758-57.313 5.756zm-9.623-38.863 13.98-1.404-3.29-32.758-18.685 1.876zm-9.624-38.863 63.934-6.421-3.289-32.758-68.64 6.893zm-9.624-38.863 25.307-2.542-3.29-32.758-30.012 3.014zm-9.624-38.863 75.262-7.559-3.29-32.758-79.967 8.031zm78.646-40.987 3.29 32.758 75.543-7.587 1.423-33.231zm78.543 31.941-30.292 3.043 3.29 32.758 25.579-2.569zm-1.713 40.002-68.91 6.92 3.29 32.759 64.197-6.448zm-1.713 40.001-18.946 1.903 3.29 32.758 14.233-1.429zm-1.713 40.002-57.564 5.781 3.29 32.758 52.851-5.308zm-1.713 40.001-7.598.763 3.392 33.668q1.369-.084 2.738-.164zm-10.904 34.859-3.368-33.425-81.913 8.226 3.318 33.455a1217 1217 0 0 1 81.963-8.256m-7.999-79.531-3.29-32.758-81.909 8.226 3.29 32.758zm-7.921-78.863-3.29-32.758-81.908 8.226 3.29 32.758zM336.876 338.104l-10.458-31.218-78.057 26.148 10.458 31.217zM311.7 262.948l-10.458-31.218-78.057 26.148 10.458 31.218zm909.11 37.214 15.89-33.219c-8.56-2.344-17.84 1.691-21.8 9.981-3.97 8.29-1.29 18.043 5.91 23.238m-122.36 64.089 10.46-31.217-78.06-26.148-10.46 31.218zm25.18-75.155 10.46-31.218-78.06-26.148-10.46 31.218zM951.973 404.482c14.041-71.547 8.732-100.294-6.9-121.396-22.615 13.337-38.705 37.733-53.658 109.052a1211 1211 0 0 1 60.558 12.344m-110.033-20.07 3.319-33.456-81.914-8.226-3.368 33.425a1216 1216 0 0 1 81.963 8.257m7.945-79.562 3.29-32.758-81.908-8.226-3.29 32.758zm7.92-78.863 3.29-32.758-81.908-8.226-3.29 32.758zM709.604 373.842c-.328-74.063-11.317-101.866-30.969-119.587-19.652 17.721-30.641 45.524-30.969 119.587a1227 1227 0 0 1 61.938 0M431.997 113.797l-2.889-11.665-103.013 20.901 1.887 11.869zm-293.16 76.133-5.643-10.611-44.215 21.155 5.758 10.553zm-55.943 6.02 50.305-24.068 31.834-15.23-15.235-66.83-36.52 17.471 9.246 34.636a3.355 3.355 0 0 1-1.793 3.891l-50.305 24.068a3.354 3.354 0 0 1-4.154-1.045l-21.166-28.934-36.52 17.471 42.473 53.799zM230.18 490.393l27.755 57.157c130.802-48.247 273.161-75.046 420.7-75.046s289.899 26.799 420.705 75.046l27.75-57.157c-138.685-55.612-289.88-86.166-448.455-86.166s-309.769 30.554-448.455 86.166m869.51 64.44c-130.81-48.603-273.322-75.622-421.055-75.622-147.734 0-290.244 27.019-421.056 75.622a7.95 7.95 0 0 0 7.077 14.236q.156-.077.322-.137C394 522.161 533.472 496.573 678.635 496.573s284.636 25.588 413.655 72.359c.11.04.22.086.32.137a7.96 7.96 0 0 0 10.63-3.679 7.96 7.96 0 0 0-3.55-10.557m-817.308 15.039c124.053-43.098 257.535-66.591 396.253-66.591s272.201 23.493 396.255 66.591zm980.148-358.845 5.76-10.553-44.21-21.155-5.65 10.611zm-233.24-76.125 1.88-11.869-103.008-20.901-2.889 11.665zM572.478 6.707l15.097 66.862h182.12l15.098-66.862h-40.485l-6.607 35.236a3.35 3.35 0 0 1-3.296 2.735h-33.224a3.354 3.354 0 0 1-3.354-3.353V6.706h-38.384v34.618a3.353 3.353 0 0 1-3.354 3.353h-33.224a3.35 3.35 0 0 1-3.296-2.735l-6.607-35.236zM427.334 27.424l.532 35.845a3.354 3.354 0 0 1-2.687 3.337l-32.561 6.606a3.354 3.354 0 0 1-3.953-2.62l-6.884-33.925-37.617 7.632 6.884 33.926a3.354 3.354 0 0 1-2.62 3.954l-32.561 6.606a3.354 3.354 0 0 1-3.774-2.025l-13.481-33.218-39.676 8.05 28.091 62.524 178.482-36.214 1.501-68.528zm462.926-8.05 1.501 68.528 178.479 36.214 28.09-62.524-39.67-8.05-13.48 33.218a3.36 3.36 0 0 1-3.78 2.025l-32.56-6.606a3.356 3.356 0 0 1-2.62-3.954l6.89-33.926-37.621-7.632-6.884 33.926a3.353 3.353 0 0 1-3.953 2.62l-32.561-6.607a3.354 3.354 0 0 1-2.686-3.337l.531-35.845zm317.21 70.448-15.23 66.83 113.97 54.527 42.48-53.799-36.53-17.471-21.16 28.934a3.36 3.36 0 0 1-4.16 1.045l-50.3-24.068a3.344 3.344 0 0 1-1.79-3.891l9.24-34.636zM617.282 98.99a8.39 8.39 0 0 0-8.39 8.391 8.39 8.39 0 0 0 8.39 8.39h122.706a8.39 8.39 0 1 0 0-16.78zm-165.94 26.288a8.39 8.39 0 0 0-9.891-6.555l-120.255 24.4a8.39 8.39 0 1 0 3.337 16.446l120.255-24.4a8.39 8.39 0 0 0 6.554-9.891m464.478-6.555a8.391 8.391 0 0 0-3.337 16.446l120.257 24.4a8.39 8.39 0 0 0 9.89-6.555 8.39 8.39 0 0 0-6.56-9.891zm-237.185 34.85c-10.335 0-18.712 8.377-18.712 18.712s8.377 18.712 18.712 18.712 18.713-8.378 18.713-18.712c0-10.335-8.379-18.712-18.713-18.712m-25.419 18.712c0-14.039 11.38-25.42 25.419-25.42s25.42 11.381 25.42 25.42-11.381 25.419-25.42 25.419-25.419-11.381-25.419-25.419m-238.98 26.748c-2.055-10.128-11.931-16.673-22.059-14.618s-16.673 11.932-14.618 22.06c2.056 10.128 11.932 16.672 22.06 14.617s16.672-11.931 14.617-22.059m-23.393-21.191c13.759-2.791 27.175 6.099 29.967 19.857 2.791 13.759-6.099 27.175-19.857 29.967-13.759 2.791-27.175-6.099-29.967-19.858-2.791-13.758 6.099-27.174 19.857-29.966m545.618 19.857c2.791-13.758 16.208-22.648 29.966-19.857s22.649 16.208 19.857 29.966c-2.791 13.759-16.208 22.649-29.966 19.858s-22.649-16.208-19.857-29.967m28.632-13.284c-10.128-2.055-20.004 4.49-22.059 14.618s4.489 20.004 14.617 22.059 20.005-4.489 22.06-14.617-4.49-20.005-14.618-22.06m-804.697 11.938a8.39 8.39 0 0 0-11.19-3.948l-58.76 28.11a8.39 8.39 0 0 0 7.242 15.138l58.76-28.11a8.39 8.39 0 0 0 3.948-11.19m1047.664-3.948a8.39 8.39 0 1 0-7.24 15.138l58.76 28.11a8.39 8.39 0 1 0 7.24-15.138zM141.059 576.579 677.067 1987.23 1216.2 576.579zm126.343 24.858a3.36 3.36 0 0 1 2.761-1.449h911.387c1.1 0 2.13.541 2.76 1.449.62.907.76 2.064.37 3.095L729.264 1803.93a3.354 3.354 0 0 1-6.27 0L267.028 604.533a3.35 3.35 0 0 1 .374-3.096m908.728 5.258H515.697l330.218 867.045zm-667.61 0 334.261 877.665q.136.345.342.66l-54.142 142.57L401.276 606.695zm-114.418 0L785.427 1637.12l-59.3 156.18L275.026 606.695zm248.113 247.244a3.35 3.35 0 0 1 2.759-1.447H1047.4c1.11 0 2.14.542 2.76 1.451.63.908.77 2.066.38 3.096l-13.56 35.596c-.5 1.3-1.74 2.16-3.14 2.16H700.824l36.492 95.698h258.021a3.354 3.354 0 0 1 3.134 4.548l-13.559 35.599a3.36 3.36 0 0 1-3.134 2.16H710.599a3.36 3.36 0 0 1-3.137-2.17l-65.625-173.599a3.36 3.36 0 0 1 .378-3.092m7.612 5.26 63.09 166.891h266.55l11.004-28.889H735.005a3.35 3.35 0 0 1-3.133-2.159l-39.05-102.406a3.352 3.352 0 0 1 3.134-4.548h335.574l11.01-28.889zm67.352 200.451a3.35 3.35 0 0 1 2.757-1.45h248.36a3.37 3.37 0 0 1 2.746 1.43c.627.9.779 2.04.406 3.07l-18.374 50.65-.013.03-38.239 101.85a3.35 3.35 0 0 1-3.14 2.17h-91.3l46.366 123.19c.287.76.286 1.6-.002 2.36l-19.119 50.65a3.35 3.35 0 0 1-3.14 2.17 3.35 3.35 0 0 1-3.137-2.17l-124.552-330.86a3.35 3.35 0 0 1 .381-3.09m7.603 5.26 119.711 318 15.532-41.14-47.628-126.54a3.36 3.36 0 0 1 .381-3.09 3.36 3.36 0 0 1 2.758-1.44h93.823l37.41-99.64.013-.03 16.73-46.12zm43.202 29.97a3.36 3.36 0 0 1 2.757-1.44h146.404a3.348 3.348 0 0 1 3.146 4.51l-30.045 81.48a3.36 3.36 0 0 1-3.147 2.19h-85.766a3.36 3.36 0 0 1-3.14-2.18l-30.592-81.47a3.35 3.35 0 0 1 .383-3.09m7.598 5.26 28.074 74.77h81.106l27.572-74.77z" clip-rule="evenodd" data-source="https://football-logos.cc"></path><!-- source: https://football-logos.cc --></svg>