<svg xmlns="http://www.w3.org/2000/svg" xml:space="preserve" viewBox="27.02 12.24 203.67 234.33"><!-- Source: https://football-logos.cc --><path d="M1010.36 1838.8c11.08 4.05 23.44 5.97 36.23 4.48 11.51-1.28 23.23-5.33 35.16-12.79 9.81 2.13 20.46 2.77 31.76.64 11.72-2.13 24.09-7.04 36.45-16.42 9.8 1.93 21.1.86 33.04-3.19 11.93-4.26 24.5-11.51 36.86-21.74 11.3.64 23.23-1.92 34.96-7.46 11.3-5.32 22.59-13.43 32.61-24.3 10.23-1.28 21.1-4.04 31.96-10.01 11.3-5.97 22.59-15.13 33.04-28.99 10.23-1.7 20.89-7.03 30.9-14.7 10.88-8.32 21.31-19.4 30.06-31.97 11.08-2.99 21.95-9.38 31.75-18.76 9.59-9.16 18.33-21.1 25.57-35.59 11.73-4.48 21.96-12.15 30.91-22.16 9.17-10.45 16.62-23.45 21.74-37.95 11.93-7.24 23.44-17.04 32.18-29.19 7.46-10.23 12.79-21.95 15.13-35.17 11.72-7.24 20.46-17.69 26.86-29.62 6.18-11.72 10.23-24.94 13-38.15 10.44-8.31 18.54-18.76 24.29-31.12 5.97-12.36 9.39-26.43 10.45-41.13 9.8-8.96 17.05-20.68 21.95-33.68 4.9-13.42 7.24-28.56 6.6-43.48 8.32-8.31 14.5-18.97 18.13-31.97 3.62-12.78 4.9-27.7 3.41-44.75 9.16-11.94 14.49-24.51 16.83-37.72 2.13-12.8 1.49-26.01-1.28-39.22 7.03-10.87 11.3-23.02 12.79-35.81 1.49-13.21.21-27.06-3.84-41.56 6.61-10.44 9.81-21.95 10.02-34.74.21-12.572-2.56-26.639-7.46-42.408 5.33-9.379 8.1-19.613 7.67-31.969-.21-12.152-3.62-26.644-10.44-44.547 4.48-11.511 5.97-23.019 4.48-35.379-1.5-12.152-5.97-25.152-13-39.644 3.83-11.719 4.26-23.438 1.7-35.59-2.35-11.934-7.88-24.086-15.98-37.086 2.77-12.359 2.13-23.66-1.28-35.168-3.2-11.082-9.38-22.375-18.12-35.164 1.71-12.57.64-23.867-3.63-34.957-4.04-10.867-10.65-21.52-20.24-32.816.43-14.282-2.34-26.215-7.67-37.086-5.12-10.235-12.36-18.969-21.1-27.707-.86-12.364-3.63-22.805-9.17-32.825-5.32-9.589-13-18.539-23.44-28.132-1.49-12.36-5.33-22.801-11.72-32.391-6.18-9.164-14.5-17.266-25.58-25.152-1.92-9.586-5.11-18.539-11.08-27.493-6.39-9.375-15.56-18.332-29.84-27.281-4.05-13.215-10.44-23.23-18.54-31.328-7.67-7.883-16.83-13.852-27.28-19.187-4.26-10.868-10.02-20.028-17.91-27.489-7.88-7.672-17.89-13.429-30.9-18.121-4.47-9.371-10.23-17.687-18.75-24.719-8.53-7.242-19.61-13.003-34.31-16.836-6.83-11.082-14.71-19.398-24.31-25.363-9.16-5.965-19.39-9.379-31.11-10.871-5.12-7.672-11.51-14.492-20.67-19.82-9.38-5.543-21.75-9.586-38.15-11.086-7.25-8.735-15.57-15.559-25.8-20.242-10.22-4.477-21.73-6.395-35.8-5.328-6.61-7.036-14.7-12.575-24.72-16.204-10.44-3.828-23.02-5.32-38.58-3.195-8.1-7.457-17.69-12.574-28.98-14.703-11.08-2.344-23.66-1.703-38.15 1.914-7.89-5.75-17.48-9.797-28.56-11.504-11.51-1.703-24.94-.644-40.065 4.688-10.235-5.118-21.747-7.883-33.891-7.672-11.297.21-23.231 2.984-35.379 8.738-7.676-3.625-16.836-5.539-27.711-4.688-11.719.848-25.574 5.114-42.199 14.063-12.36-2.984-24.938-3.41-37.512-.422-11.508 2.555-22.586 7.883-33.035 16.192-11.082-1.489-23.441-.211-35.801 4.05-11.512 4.051-22.804 10.661-33.254 20.036-11.078-.426-22.586 1.921-33.879 7.246-11.726 5.332-23.023 13.644-33.254 24.086-11.933 1.066-23.445 5.113-34.097 11.507-11.297 7.036-21.742 16.625-30.266 27.496-10.23 1.918-21.523 6.821-32.609 15.129-10.231 7.672-20.246 18.121-29.41 31.118q-15.351 4.16-30.051 17.906c-9.379 9.16-18.332 21.312-26.43 36.23-11.933 4.692-21.949 12.364-30.265 21.739-9.805 11.082-17.047 24.082-22.164 36.871-10.231 5.113-19.18 13.64-27.071 24.293-8.097 11.511-14.914 25.582-19.82 41.14-11.293 7.672-20.668 17.473-27.703 29.406-6.395 11.086-10.66 24.083-12.574 38.579-9.379 6.394-17.047 15.769-22.805 27.703-5.758 12.152-9.59 27.281-11.512 44.547-10.015 8.523-17.051 19.183-21.949 32.179-4.688 12.578-7.031 27.282-7.461 43.696-7.887 7.886-13.852 18.113-17.48 30.691-3.622 12.359-5.114 27.281-3.833 44.969-8.308 9.164-13.429 20.672-15.773 34.312-2.344 13-1.918 28.133.43 44.762-8.742 11.934-13.004 24.508-14.282 37.723-1.066 12.574.852 25.789 4.903 39.429-7.031 12.36-10.235 25.149-10.445 38.36-.211 12.789 2.343 26.004 6.609 39.855-5.543 13.215-7.461 25.574-6.609 37.94.851 11.94 4.476 23.87 9.593 37.08-4.906 13.86-5.543 27.07-3.625 39.86 2.133 12.14 6.606 24.08 12.364 35.59-3.411 16.2-3.2 29.41 0 41.56 2.769 11.29 7.886 21.1 14.281 30.9-3.414 15.14-2.344 28.14 1.492 39.86 3.621 11.3 10.016 21.1 17.687 30.48-1.281 15.55.426 28.77 4.688 40.49 4.262 11.3 10.656 20.89 19.395 28.77.851 15.35 3.41 27.28 8.097 37.3 4.477 10.23 10.867 18.33 19.61 26 2.128 14.49 5.539 26.43 10.871 36.45 5.539 10.23 13 18.33 22.804 25.57 4.047 14.49 8.309 26.01 13.848 35.6 5.758 9.59 12.789 17.05 22.383 22.8 4.047 14.28 9.164 24.72 15.98 33.25 6.614 8.52 14.922 14.7 25.153 20.67 3.41 11.3 8.101 20.03 15.347 28.13 7.457 7.89 17.051 14.71 30.477 21.74 5.754 13.86 12.785 23.66 21.308 30.91 8.102 7.25 17.266 11.72 27.922 15.13 5.543 11.3 12.364 20.25 20.887 27.28 8.738 7.03 19.184 11.93 31.969 14.71 5.969 10.02 13.004 18.11 21.953 24.29 8.953 6.18 19.82 10.23 33.035 11.94 5.754 8.31 12.359 15.34 21.316 20.67 9.375 5.76 21.098 9.59 36.657 10.66 7.457 8.1 15.984 14.7 26.215 19.39 10.656 4.69 22.593 7.25 37.082 6.61 7.461 7.46 15.984 13 26.429 16.62 10.653 3.41 23.016 4.48 37.938 2.56 8.097 6.4 17.476 11.51 28.347 14.07 11.082 2.77 23.657 2.77 37.723-.64 10.441 6.82 21.738 10.87 33.672 11.93 11.508.86 23.445-.85 35.379-5.75 10.019 5.54 21.101 8.31 32.398 8.1 11.934-.22 24.512-3.41 36.872-9.38" style="fill:#231f20;fill-opacity:1;fill-rule:evenodd;stroke:none" transform="matrix(.13333 0 0 -.13333 0 258.667)" data-source="https://football-logos.cc"></path><path d="M1004.39 1746.73c-6.39-1.92-13.851-3.63-23.445-4.27-10.23-.42-22.375.64-37.937 4.91-6.391-3.2-13.852-5.54-23.231-6.61-9.8-1.06-21.523-.85-35.8 1.7-.219-.21-.43-.21-.43-.42-10.02-5.75-23.231-13.43-58.399-11.94-5.113-3.83-10.867-7.67-19.394-10.87-9.164-3.19-20.887-5.75-37.301-6.18-5.539-4.9-11.504-9.59-19.605-13.64-8.524-4.47-19.18-7.67-33.672-9.16-5.754-6.61-11.938-12.15-19.824-16.62-8.098-4.69-17.903-8.32-30.477-10.88-4.473-6.18-10.016-11.93-17.691-17.47-8.098-5.75-18.329-10.87-31.754-15.77-4.047-5.97-8.098-11.72-14.703-17.69-6.821-6.18-15.778-12.15-29.625-17.69-4.266-8.31-11.086-17.26-18.969-24.72-7.461-7.04-15.985-13-24.508-16.63-4.266-9.37-8.742-17.05-14.922-24.3-6.18-7.24-14.062-13.64-24.726-20.24-2.766-9.6-6.817-17.26-12.786-24.51-5.753-7.25-13.214-14.07-23.23-22.17-1.707-11.29-5.754-20.46-11.723-28.77-5.758-8.1-13-15.13-21.738-23.44-3.41-22.6-12.359-33.89-23.871-48.6-1.277-1.49-2.348-2.98-4.051-5.33-1.703-11.72-4.687-22.16-8.949-31.75-4.266-9.17-9.59-17.48-15.984-25.79-.211-10.23-2.348-19.82-6.18-29.63-3.836-9.8-9.164-19.6-15.563-30.05.426-11.08-.636-21.09-3.832-31.54-2.773-10.02-7.461-20.03-13.855-31.54 1.492-13.21.64-24.94-2.129-36.02-2.348-10.44-6.184-19.82-10.656-28.78 2.554-12.14 2.554-23.01 1.066-33.88-1.707-10.44-4.691-20.89-8.957-31.97 3.625-11.93 4.477-23.45 3.625-34.53-1.062-10.866-3.41-21.526-6.394-33.034 3.839-9.164 5.753-18.968 5.972-30.472.211-11.297-1.07-23.871-3.84-38.582 4.262-9.164 7.032-19.606 8.528-31.114 1.273-11.508 1.273-24.511-.43-39.218 5.328-9.59 8.738-20.465 10.656-31.754 2.348-13 2.774-26.645 1.918-39.219 6.18-9.164 10.66-19.82 13.641-31.328 2.984-11.293 4.687-23.656 5.543-36.442 5.324-6.394 10.015-14.707 14.066-25.578 4.262-11.297 7.672-25.148 10.446-42.199 7.242-6.609 12.785-15.559 17.687-26.641 4.688-11.086 8.313-24.086 11.723-39.004 7.672-6.179 14.277-14.707 20.035-24.511 6.605-11.078 11.933-24.078 15.984-37.086 7.242-4.684 14.703-11.93 21.735-21.949 6.824-9.594 13.429-21.524 19.398-36.235 8.313-4.898 17.262-12.359 25.789-22.379 7.242-8.308 14.277-18.75 20.246-31.113 9.805-4.906 19.395-11.937 28.133-20.25 8.738-8.734 16.414-18.543 22.375-28.769 9.594-3.196 19.609-8.739 28.988-15.985a118.5 118.5 0 0 0 24.723-25.793c9.379-2.34 20.035-7.027 30.48-13.422 9.59-5.965 18.965-13.636 27.493-22.804 11.293-1.918 23.656-5.543 35.168-11.086 9.375-4.473 18.113-10.227 25.148-17.903 10.23-.425 20.887-2.769 31.332-6.394 9.801-3.832 19.602-8.949 28.766-15.555 10.23.852 20.894 0 31.332-2.344 10.66-2.562 21.097-6.609 30.691-12.367 10.442 1.918 21.098 2.348 31.758 1.074a105.7 105.7 0 0 0 29.836-8.316c10.019 2.77 20.031 4.051 30.051 4.051 9.808-.215 19.824-1.918 29.836-4.903 9.164 4.047 18.973 6.602 29.413 7.461 9.8.848 20.25.211 31.12-2.136 8.74 5.117 18.12 8.738 28.34 10.656 9.6 1.918 19.61 2.137 30.48.644 1.06.637.64.43 0 0 15.56 10.012 30.48 19.184 54.78 17.477 9.37 8.52 18.32 14.281 27.28 17.898 8.95 3.625 17.69 5.114 26.85 4.899 7.25 6.828 13.85 12.793 21.31 17.48 8.1 5.118 17.06 8.532 28.35 9.59 5.97 7.461 12.78 13.856 20.67 19.395 8.31 5.543 17.91 10.019 29.2 13.218 5.75 8.739 12.58 15.985 19.82 21.735 8.1 6.609 16.63 11.297 24.09 14.066 5.54 10.449 12.36 18.547 19.81 24.938 7.47 6.609 15.35 11.508 23.45 15.773 5.33 10.016 10.87 18.75 17.26 26.211 6.61 7.25 13.86 13.43 23.02 18.547 4.05 11.297 9.17 20.246 15.13 27.918 5.97 7.672 12.79 13.855 20.9 19.609 4.04 14.489 8.95 24.297 14.91 32.18 5.54 7.246 11.3 12.363 17.69 17.688 1.92 13.003 5.75 23.023 10.87 31.757 5.12 8.532 11.51 15.774 18.54 23.231 2.56 15.133 6.18 26.433 10.66 35.597 4.05 8.735 8.95 15.555 14.28 21.735.43 10.66 2.98 20.25 7.03 30.055 4.05 9.589 9.16 18.542 15.13 28.984-1.27 11.508.22 22.164 3.41 32.609 3.2 10.231 7.89 19.824 13.43 30.262-1.49 13.852 0 26.219 2.99 37.512 2.76 10.445 6.81 19.82 10.86 29.203-2.77 10.437-2.98 20.668-1.49 31.539 1.71 10.66 4.9 21.738 9.17 34.316-3.63 12.149-4.48 23.446-3.41 34.524.85 10.445 3.41 21.097 6.39 32.398-4.69 12.36-6.18 24.719-5.97 36.442.21 11.513 1.92 22.383 4.05 32.613-4.47 11.51-7.24 23.02-8.31 34.73-1.07 11.31-.85 22.6.64 34.32-5.75 10.87-9.17 23.02-10.87 35.38-1.71 11.94-1.92 23.87-1.71 34.95-4.9 7.46-9.37 15.99-12.57 26.86-3.41 11.3-5.76 25.36-6.18 43.48-6.82 9.16-11.94 20.24-15.77 32.18-3.63 11.51-6.18 23.44-8.1 34.74-7.88 8.52-14.71 18.75-20.24 30.48-4.91 10.23-8.32 21.74-10.23 34.1-8.32 7.67-15.36 16.83-20.89 26.42-7.04 12.15-11.94 25.37-15.35 37.09-6.6 5.75-13.64 12.14-20.46 20.67-7.25 8.95-13.85 20.04-19.61 34.74-8.31 5.54-16.84 13.86-24.94 23.66-7.88 9.38-15.13 20.46-21.31 32.4-9.37 4.9-19.6 12.14-28.77 20.88-8.31 8.1-15.98 17.27-21.95 27.71-11.3 4.69-21.31 11.08-30.05 18.12-10.02 7.88-18.33 16.83-24.51 25.36-9.81 2.55-20.25 7.25-30.27 13.43-10.22 6.17-19.82 13.85-27.92 22.37-.85.22-1.91.43-2.77.64-11.94 2.56-27.7 5.97-56.05 28.56-7.89.64-17.26 2.13-27.71 5.33-10.65 3.2-22.37 8.52-34.1 16.62-13.85-.42-31.97-.63-61.81 13.86-7.67-1.07-16.83-1.49-26.85-.64-10.66 1.06-22.38 3.62-34.74 8.95" style="fill:#fff;fill-opacity:1;fill-rule:evenodd;stroke:none" transform="matrix(.13333 0 0 -.13333 0 258.667)"></path><path d="M966.242 1721.16c350.388 0 636.188-337.82 636.188-751.5 0-414.109-285.8-751.918-636.188-751.918S329.84 555.551 329.84 969.66c0 413.68 286.015 751.5 636.402 751.5" style="fill:#231f20;fill-opacity:1;fill-rule:evenodd;stroke:none" transform="matrix(.13333 0 0 -.13333 0 258.667)"></path><path d="M966.242 1689.61c333.118 0 604.858-323.53 604.858-719.95 0-396.847-271.74-720.375-604.858-720.375-333.121 0-604.859 323.528-604.859 720.375 0 396.42 271.738 719.95 604.859 719.95M694.5 1697.71l-65.215 26.85-2.347-.21c-11.934-.85-21.094-4.05-28.344-8.95-4.903-3.2-9.164-7.67-12.789-13l68.84-21.1 2.558.43c11.938 2.13 21.102 5.11 28.133 9.37 3.41 1.92 6.394 4.05 9.164 6.61M748.422 1722.43l-63.512 33.04h-1.492c-14.066-.64-23.871-3.41-31.332-7.89-4.473-2.77-8.309-6.18-11.719-10.44l66.711-27.28h2.129c14.066 1.28 23.66 3.84 30.691 7.46 3.2 1.49 5.969 3.2 8.524 5.11M806.18 1741.61l-61.168 39.43h-.211c-12.789 1.07-23.231-.64-31.969-4.68-5.332-2.35-10.23-5.76-14.707-9.6l65.219-34.1 1.062.43c15.985.21 26.641 2.13 34.317 5.11 2.769.86 5.328 2.14 7.457 3.41M865.219 1755.04l-57.117 44.54-.856.22c-13.641 2.34-24.293 1.92-32.82-1.07-5.543-1.7-10.446-4.69-14.707-8.31l62.445-40.28.426.22c22.808-1.29 34.742 1.48 42.629 4.68M926.387 1762.5l-53.922 50.3-1.281.42c-12.575 3.84-23.227 4.05-32.18 1.92-5.758-1.49-11.086-3.84-15.774-7.03l58.61-45.61 2.137.21c13.636-2.55 24.718-2.98 33.457-1.92 3.41.43 6.179.86 8.953 1.71M988.621 1763.57l-49.023 55.2-1.918.85c-10.231 4.9-20.461 6.82-30.262 5.97-6.609-.64-13.215-2.56-19.184-5.54l55.204-51.8 1.492-.42c14.703-4.47 25.785-5.76 34.949-5.12 3.199.22 6.18.43 8.742.86M432.566 479.258l-5.753-88.028.851-2.132c4.266-12.145 10.867-24.723 19.609-34.739 4.262-4.48 8.739-8.527 14.063-11.937l-2.129 91.859-.637.637c-5.757 14.496-12.152 26.219-18.547 35.383-2.554 3.41-4.902 6.394-7.457 8.957M394.629 540.844l-13.852-87.168.637-1.067c4.477-14.707 10.445-28.129 18.117-38.578 3.621-5.109 7.672-9.375 11.938-12.785l5.965 90.582-.852 2.559c-3.625 12.781-8.738 25.574-15.129 36.441a92 92 0 0 1-6.824 10.016M362.875 607.344l-20.891-83.551.215-.211.43-5.328c1.062-13.852 4.687-25.578 10.441-35.379 3.625-6.18 8.098-11.723 13.637-16.625l14.07 89.73-.851 1.489c-3.414 15.344-7.035 28.347-11.512 39.004-1.707 4.05-3.625 7.672-5.539 10.871M336.234 675.336l-28.132-81.207.421-4.266c1.282-17.05 4.692-31.113 10.016-42.199 2.559-5.539 5.758-10.226 9.379-14.062l22.594 90.148-.43.641c-2.766 17.48-5.965 31.332-10.012 41.773a135 135 0 0 1-3.836 9.172M314.703 744.809l-35.375-78.856v-2.133c.211-15.769 2.133-29.621 6.391-41.132 2.344-6.395 5.543-12.149 9.379-17.051l30.265 87.597-.429 1.063c-.848 13-2.129 25.152-5.114 35.808-1.281 5.329-2.98 10.227-5.117 14.704M576.219 319.621l16.617-82.695 1.922-2.774c7.461-10.015 16.836-18.968 27.066-25.363 5.328-3.195 10.867-5.539 16.41-7.031l-23.867 81.199-.429.219-2.344 3.621c-6.18 9.59-14.067 17.902-22.375 24.293-4.477 3.41-8.742 6.18-13 8.531M523.785 367.57l9.375-87.164.43-.644c8.523-12.789 17.687-22.59 26.855-29.621 5.114-3.84 10.231-6.61 15.129-8.743l-17.047 84.829-1.922 3.836c-5.113 9.589-12.359 19.179-20.671 27.277-3.836 3.836-8.098 7.25-12.149 10.23M516.328 287.863l-10.019 91.215-1.067 1.285c-5.539 11.93-12.148 21.946-18.969 29.836-3.41 4.262-7.246 7.887-10.867 10.871l2.129-88.023 1.067-1.063c7.461-14.5 15.773-26.011 24.511-34.316 4.473-4.266 8.95-7.461 13.215-9.805M691.73 242.891l29.2-74.168 2.343-2.348c9.165-9.164 19.18-15.129 29.2-18.754 6.39-2.129 12.789-3.41 18.757-3.41l-35.812 72.039h-.422l-2.984 3.625c-5.539 6.82-13 12.148-21.528 16.195-5.964 2.77-12.359 5.118-18.754 6.821M703.453 169.152l-30.902 79.278-1.281.644a109.3 109.3 0 0 1-25.36 21.739c-4.48 2.769-8.953 5.113-13.43 7.031l23.231-79.281 1.707-1.922c9.164-10.016 19.391-17.688 29.621-22.379 5.543-2.555 11.086-4.262 16.414-5.11M816.625 194.301l39.641-64.793 2.343-1.278c15.137-8.742 27.496-12.578 37.301-13.218 4.899-.422 9.164 0 12.785.859l-46.675 62.656-2.77 1.918c-8.523 5.325-18.328 9.59-28.133 11.723-4.902 1.277-9.804 1.922-14.492 2.133M839.215 126.738l-40.703 66.492-3.203 2.348c-8.309 6.82-17.262 11.719-26.637 15.129-4.902 1.711-9.809 3.199-14.703 4.051l34.523-69.481 2.985-2.554c8.523-7.676 18.113-12.575 27.703-14.922 6.609-1.492 13.429-1.703 20.035-1.063M1052.13 1757.38l-44.75 60.32-2.56 1.28c-10.664 5.75-21.316 8.95-31.547 8.95-6.179.21-12.148-.85-17.691-3.2l52.008-58.18 1.7-.21c11.3-5.12 21.95-7.68 31.55-8.53 3.84-.43 7.67-.43 11.29-.43M1115.64 1744.81l-40.49 65.65-1.28 1.06c-10.23 7.03-20.03 10.66-29.41 11.73-7.25.84-14.07.21-20.46-1.29l47.53-63.94.85-.21c18.97-9.59 32.61-12.36 43.26-13M1178.09 1724.56l-34.52 69.48-2.14 1.71c-11.08 9.38-21.74 13.85-31.54 15.77-5.76 1.07-11.51 1.07-16.84.43l42.2-68.63 1.49-.64c10.87-7.89 21.53-12.58 31.12-15.56 3.62-1.07 7.03-1.92 10.23-2.56M1240.54 1696l-28.99 74.6-1.7 1.28c-11.51 10.01-23.03 16.83-33.46 20.67-5.76 1.92-11.09 2.99-15.77 2.99l37.08-74.6 1.92-.85c19.18-15.35 31.54-21.1 40.92-24.09M1300 1661.05l-23.23 79.92-1.49.86c-9.16 10.23-18.97 17.69-28.99 22.38-5.97 2.77-11.72 4.47-17.27 5.33l30.91-79.5 1.5-.86c7.02-8.09 15.98-15.34 25.36-21.09 4.47-2.78 8.95-5.12 13.21-7.04M1356.7 1619.07l-16.63 82.9-1.28 1.71c-9.38 13-19.18 21.31-28.77 26.64a65.2 65.2 0 0 1-15.35 5.97l24.3-82.7 2.13-1.49c5.11-7.67 13-16.41 22.59-24.08 4.05-3.2 8.31-6.4 13.01-8.95M1409.34 1570.89l-9.39 85.68-.84 1.29c-8.11 12.14-17.91 22.8-27.93 30.47-4.68 3.62-9.37 6.39-13.85 8.31l17.69-88.02 2.13-1.92c5.12-9.38 12.15-18.32 19.83-25.57 4.04-3.84 8.09-7.25 12.36-10.24M1457.5 1515.91l-1.7 86.96-1.28 2.56c-6.61 14.06-14.7 25.36-23.23 33.45-4.69 4.69-9.59 8.1-14.49 10.66l9.8-90.15 1.92-1.92c5.75-11.93 12.78-22.59 20.03-31.76 2.99-3.41 5.97-6.82 8.95-9.8M1500.55 1459.21l5.97 87.6-.85 1.07c-4.47 13.42-11.08 25.36-19.18 34.74-4.47 4.9-9.38 9.17-14.5 12.36l1.92-93.14 1.92-2.34c5.12-13.85 11.08-24.08 17.69-32.18 2.34-2.99 4.69-5.76 7.03-8.11M1538.7 1395.71l13.22 85.25-.43 5.11c-1.28 11.51-5.76 21.95-12.36 30.91-4.9 6.82-10.87 12.79-17.26 17.69l-6.18-90.37 1.06-1.92c2.99-10.87 7.46-23.66 14.28-35.38 2.35-3.84 4.9-7.67 7.67-11.29M1570.67 1330.91l21.53 86.32-.64 1.07c-2.35 12.57-5.97 25.36-11.72 36.23-3.41 6.61-7.89 12.36-13.21 17.05l-14.29-91.65 1.71-3.19c1.28-11.72 4.48-22.38 8.74-31.97 2.34-4.9 5.11-9.38 7.88-13.86M1597.53 1263.57l27.92 80.34-.22 4.48c-.42 13.64-3.19 26.64-8.52 37.72-2.98 6.4-6.82 12.16-11.51 17.27l-22.16-88.66 1.27-2.34c1.92-11.52 4.27-23.88 7.89-34.96 1.49-4.9 3.2-9.59 5.33-13.85M1617.77 1191.31l35.39 79.29.21 2.35c1.28 14.06-.64 27.7-5.12 39.85-2.55 7.03-5.97 13.43-10.23 18.97l-30.05-86.75.85-2.13c.22-18.11 2.35-31.33 5.33-41.56 1.07-3.62 2.35-7.03 3.62-10.02M1632.7 1120.56l41.98 75.65.21 1.29c1.71 16.41.86 30.05-2.34 41.34-1.92 6.82-4.69 12.79-8.1 17.7l-37.3-83.56.42-1.27c-.21-11.51 0-23.66 1.72-35.17.64-5.33 1.7-10.87 3.41-15.98M1642.28 1050.01l46.89 68.63 1.07 4.47c3.2 12.15 4.05 24.09 2.13 35.38-1.28 7.46-4.05 14.71-8.1 21.74l-44.12-78.85.43-2.13c-1.7-11.73-2.13-22.6-1.07-33.47.43-5.11 1.28-10.44 2.77-15.77M1645.27 979.039l53.07 64.151 1.06 3.2c4.05 13.43 5.55 26.43 4.27 38.15-.86 6.82-2.56 13.21-5.33 19.39l-50.51-73.74.21-1.71c-2.13-10.44-4.05-21.09-4.05-31.964a81 81 0 0 1 1.28-17.477M1643.78 909.559l57.54 58.398.64 1.922c5.11 15.555 7.89 28.98 7.67 40.491 0 6.18-1.06 12.15-3.4 17.48l-56.27-68.42v-1.282c-3.2-11.293-5.75-21.523-6.61-31.968-.43-5.539-.43-10.867.43-16.621M1636.96 841.57l62.02 52.434.42 1.062c6.83 17.473 10.23 30.907 10.66 41.774 0 5.543-.64 10.441-2.13 15.133l-61.17-62.02c-4.48-13.004-7.88-23.871-9.16-33.676-.86-5.117-1.07-10.019-.64-14.707M1624.81 774.434l66.07 46.679.42.848c7.25 13.855 11.51 25.789 12.79 36.66.86 6.395.64 12.359-.84 18.117l-64.59-54.562c-4.05-9.379-8.31-18.969-11.09-28.981-1.48-5.972-2.55-12.152-2.76-18.761M1608.19 710.285l68.41 39.211 1.28 1.922c7.88 12.148 13.21 23.227 15.34 33.676 1.28 6.179 1.49 12.359.43 18.543l-69.06-48.809-.21-.851c-5.75-10.446-10.44-19.825-13.43-29.204-1.49-4.902-2.34-9.589-2.76-14.488M1587.73 648.691l70.33 32.391.42.856c8.95 12.359 14.92 22.804 17.91 32.609 1.7 5.75 2.34 11.504 1.91 17.687l-70.54-40.921-.22-.637c-6.6-11.297-12.35-21.102-15.77-29.621-1.92-4.055-3.19-8.102-4.04-12.364M1563.43 589.652l71.39 25.364.86 1.062c9.38 10.66 15.77 20.039 19.39 29.418 2.13 5.75 3.2 11.719 2.99 18.113l-73.75-34.101-.63-1.492c-5.33-5.328-9.81-11.508-13.64-19.399-2.56-5.32-4.69-11.504-6.61-18.965M1533.8 533.176l73.32 18.754.85.851c8.53 8.102 15.56 15.985 19.82 24.938 2.99 5.754 4.69 12.359 5.33 19.816l-74.59-26.426-.64-1.066c-7.03-7.461-13.21-14.277-17.69-21.949-2.77-4.477-4.91-9.379-6.4-14.918M1603.71 534.664l-75.02-19.394-.85-1.489c-6.82-5.758-13.01-10.66-17.7-17.051-3.19-4.054-5.96-8.957-8.31-15.562l74.81 11.719c9.8 8.957 17.05 16.843 21.53 24.941 2.77 5.117 4.69 10.656 5.54 16.836M1465.6 430.66l72.46 4.688 2.14 1.492c10.66 7.246 18.33 14.281 23.66 21.953 3.4 5.113 5.75 10.867 7.24 17.047l-76.3-11.934-1.07-1.492c-7.67-5.328-14.28-10.867-19.6-17.687-3.2-4.051-5.97-8.739-8.53-14.067M1425.96 384.41l73.95-1.918.43.426c13.43 8.098 21.53 15.559 26.64 23.23 2.77 4.262 4.69 8.528 6.18 13l-76.51-5.117-.85-.847c-8.32-4.262-14.92-9.379-20.46-15.774-3.41-3.832-6.39-8.101-9.38-13M1381.84 341.57l73.32-8.312.64.43c10.01 4.687 18.75 10.011 25.36 16.832 4.47 4.265 8.1 9.589 11.08 16.203l-76.51 1.914-.85-.852c-7.89-3.836-15.56-8.312-22.17-14.066-3.83-3.41-7.46-7.457-10.87-12.149M1337.51 303.633l69.9-14.707 1.29.429c12.14 3.836 21.09 8.735 27.71 14.918 4.04 3.836 7.45 8.524 10.22 13.852l-73.95 8.527-3.41-.851c-5.97-1.703-13.64-5.754-21.11-11.727-3.62-2.984-7.24-6.601-10.65-10.441M1287.85 269.746l68.85-21.316.84.218c13.43 2.981 23.02 7.672 30.27 13.641 4.26 3.621 7.46 7.668 10.23 12.356l-72.89 15.347-.64-.422c-10.66-2.773-19.18-6.613-26.43-11.511-3.83-2.559-7.03-5.329-10.23-8.313M1237.13 240.121l65-26.855 2.13.214c10.66.852 19.61 3.411 27.07 8.098 5.33 3.41 10.02 7.887 14.28 13.645l-69.06 21.308-.64-.855-4.68-.211c-9.59-.422-16.62-2.985-23.02-6.817-3.62-2.347-7.25-5.332-11.08-8.527M1182.14 216.039l63.73-33.25h.42c15.35.856 26.01 4.047 33.67 8.527 4.48 2.774 7.89 5.75 10.88 9.375l-66.71 27.493-.43-.422-4.26.211c-7.89.64-15.13-.426-22.59-3.41-4.69-1.918-9.6-4.688-14.71-8.524M1126.3 196.004l58.82-37.934 2.56-.218c12.37-1.704 22.38-.422 30.48 3.199 5.33 2.554 10.23 5.965 14.71 10.656l-63.52 33.035-.21-.215-4.69.43c-15.98 2.129-27.28-2.559-38.15-8.953M1066.41 183.219l56.91-44.121 2.13-.422c14.28-2.563 24.93-1.707 33.46 1.273 5.12 1.918 9.38 4.477 13 7.672l-62.45 40.285-1.91-.429c-9.6 1.921-18.55 1.707-27.07.214a77.6 77.6 0 0 1-14.07-4.472M1005.24 176.184l53.07-49.657 2.56-.644c13-3.832 24.08-4.692 33.46-2.985 5.55 1.278 10.66 3.411 15.13 6.61l-58.82 46.035-2.98.641c-9.81 2.554-19.4 3.41-28.35 2.554-4.9-.425-9.59-1.273-14.07-2.554M943.223 174.902l49.875-55.832.847-.433c13.855-5.114 25.145-6.395 34.745-4.903 5.54.645 10.44 2.559 14.92 4.903l-56.266 52.429-1.922-.214c-9.379 3.199-18.543 4.906-27.707 5.113-4.688.219-9.594-.207-14.492-1.063M976.258 113.734l-50.942 57.332-2.765 1.282c-8.317 4.476-17.477 7.031-26.856 8.308-5.117.43-10.445.641-15.558.43l44.968-60.742 1.708-.856c10.867-5.754 21.308-8.308 31.113-8.523 6.609-.211 12.578.855 18.332 2.769M300.43 816.422l-41.989-74.809-.218-3.41c-1.489-17.051-.422-31.113 2.773-42.414 1.918-5.965 4.262-11.078 7.25-15.555l37.293 82.907-.422 1.492c1.063 12.148 1.063 25.359-1.066 37.933-.852 4.692-2.129 9.379-3.621 13.856M291.051 887.18l-47.531-69.477-.426-2.351c-2.555-16.192-3.196-30.473-1.063-42.411 1.063-6.605 2.981-12.574 5.969-17.472l44.965 80.136-.211 1.067c1.703 14.277 1.918 26.848.641 37.723-.43 4.476-1.282 8.738-2.344 12.785M287.426 957.938l-52.43-63.727-1.277-4.258c-4.047-12.789-6.18-24.937-5.117-36.445.636-7.035 2.558-14.067 5.968-20.676l50.297 73.527-.426 1.922c2.985 14.707 4.477 27.067 4.051 37.723 0 4.262-.429 8.316-1.066 11.934M288.703 1026.99l-59.031-59.677v-.633c-4.266-12.789-7.035-24.938-6.82-36.45.207-7.242 1.488-14.062 4.043-20.671l55.628 67.562-.214 1.703c3.199 11.297 5.754 22.166 6.609 32.826.426 4.9.426 10.23-.215 15.34M295.313 1095.2l-62.875-53.29v-1.06c-5.114-12.58-8.735-23.87-9.379-34.53-.422-7.035 0-13.855 2.132-20.886l60.317 60.956v1.91c4.262 11.3 7.672 21.32 9.164 31.12.641 5.12.851 10.23.641 15.78M306.82 1161.48l-66.07-46.46v-.86c-5.754-10.87-10.23-21.95-12.148-32.82-1.063-7.03-1.063-14.06.429-21.52l64.789 54.77v1.71c4.473 8.52 8.524 17.68 10.871 27.49 1.282 5.54 2.129 11.51 2.129 17.69M323.445 1226.27l-67.566-39-1.488-2.13c-6.391-9.38-11.297-18.34-13.852-28.35-1.707-6.82-2.348-14.49-1.277-23.45l67.558 47.74.215 1.07c6.606 11.51 11.293 21.1 13.852 30.05 1.277 4.69 2.133 9.17 2.558 14.07M344.328 1288.07l-69.262-31.96-2.562-2.98c-7.246-8.53-13.211-17.27-16.41-26.86-2.129-6.61-3.196-13.64-2.344-21.74l71.184 41.13.214.43c6.821 10.87 12.149 20.25 15.559 29.41 1.707 4.27 2.984 8.31 3.621 12.57M368.414 1347.11l-70.973-25.15-2.554-2.34c-7.676-6.18-13.211-13.85-16.625-23.02-2.555-6.82-3.836-14.49-4.051-23.44l73.531 33.88.211.43c6.18 8.1 11.512 15.98 15.344 24.51 2.137 4.69 3.836 9.81 5.117 15.13M396.547 1403.16l-73.317-18.54-1.066-1.91c-7.668-6.61-13.422-13.22-17.047-21.53-2.773-5.97-4.476-13-5.543-21.74l73.317 26v.21c1.277 1.5 3.621 4.48 5.754 7.46 7.886 10.02 14.277 18.12 17.902 30.05M548.723 1595.84l-72.465 8.3-.641-.63c-13-6.61-21.738-12.58-27.918-19.19-3.625-4.04-6.394-8.52-8.738-13.85l73.742-1.7 4.473 1.49c6.82 2.13 14.496 7.46 21.101 13.64 4.051 3.84 7.461 7.89 10.446 11.94M593.906 1633.98l-69.269 14.49-2.129-.63c-9.805-2.98-18.117-6.61-24.938-12.37-4.476-4.04-8.738-9.16-12.359-16.19l73.316-8.53 1.489.64c13.425 5.12 21.527 10.02 27.281 15.14 2.344 2.34 4.476 4.9 6.609 7.45M533.801 1662.97l72.465-15.34c12.789 4.47 22.379 9.16 29.414 14.06 2.769 2.13 5.328 4.26 7.457 6.4l-68.203 21.09-1.493-.42c-11.503-1.92-20.242-5.76-27.277-11.3-4.687-3.83-8.738-8.73-12.363-14.49M430.223 1456.87l-74.594-11.93-1.277-1.92c-8.528-5.75-14.922-12.36-19.399-20.67-2.984-5.76-5.328-12.37-7.035-20.04l74.172 18.76v.42c9.164 8.53 16.625 15.56 21.738 22.81 2.77 3.84 4.902 7.89 6.395 12.57M465.813 1506.32l-73.532-4.69-2.551-1.28c-8.101-4.26-13.855-9.8-18.546-17.69-3.407-5.54-6.18-12.36-8.739-20.67l73.321 11.72.422.85c10.66 8.53 18.117 15.14 23.445 21.74 2.558 3.2 4.687 6.4 6.18 10.02M398.039 1518.04l75.66 4.9.43.22c10.652 6.39 17.898 12.15 23.441 18.54 2.985 3.41 5.543 7.03 7.672 11.3l-73.527 1.7-.856-.43c-9.8-5.32-17.261-10.65-23.015-17.69-3.836-4.9-7.035-10.87-9.805-18.54" style="fill:#fddd04;fill-opacity:1;fill-rule:evenodd;stroke:none" transform="matrix(.13333 0 0 -.13333 0 258.667)"></path><path d="M1320.25 1115.66c11.94-9.81 24.93-20.46 36.87-31.34 17.05-15.77 31.97-31.96 44.97-50.93-28.13-35.812-60.31-65.648-100.6-87.601-28.35-15.559-57.97-25.57-86.53-29.195 3.84-34.953 8.53-69.696 14.28-104.434 15.77 7.25 31.12 15.77 46.25 25.36-14.49 14.281-27.71 29.625-40.28 45.613 76.51-.856 128.3 36.867 180.52 87.808 1.28-92.5-19.82-176.902-87.17-243.394-2.77 21.949-6.4 43.691-11.29 65.219-26.86-23.871-51.15-41.137-73.97-54.563 11.31-52.43 25.15-104.433 42-155.797-25.79-20.676-49.66-42.41-70.76-67.988-29.84-36.23-54.35-83.117-64.79-115.73-6.83 43.054-11.3 85.468-15.14 128.945-4.47 51.152-8.31 104.219-11.29 159.847-20.89-7.671-41.14-16.203-61.81-28.777-29.41-17.687-59.89-43.687-93.776-87.379l-1.492-2.133-1.492 2.133c-33.891 43.692-64.367 69.692-93.781 87.379-20.668 12.574-40.918 21.106-61.805 28.777a4741 4741 0 0 0-11.293-159.847c-3.836-43.477-8.316-85.891-15.137-128.945-10.441 32.613-34.949 79.5-64.789 115.73-21.097 25.578-44.968 47.312-70.761 67.988 16.839 51.364 30.695 103.367 41.988 155.797-22.805 13.426-47.102 30.692-73.957 54.563-4.899-21.528-8.524-43.27-11.293-65.219-67.352 66.492-88.449 150.894-87.172 243.394 8.102-7.675 15.988-15.132 23.871-22.164 2.77 23.653 5.328 47.524 7.246 71.183 2.559 32.4 4.266 64.58 4.266 95.7 0 31.11-1.707 63.29-4.266 95.69-2.769 35.17-6.82 70.33-11.297 105.29h190.543c-.64 12.78-1.281 25.36-2.347 38.15h-81.629c-2.344-4.69-5.328-8.96-8.949-12.58-8.313-8.31-19.821-13.43-32.61-13.43-12.578 0-24.086 5.12-32.609 13.43-8.313 8.53-13.426 20.03-13.426 32.61 0 12.79 5.113 24.3 13.426 32.61 8.523 8.52 20.031 13.64 32.609 13.64 12.789 0 24.297-5.12 32.61-13.64 3.621-3.63 6.605-7.67 8.949-12.36h78.008a2001 2001 0 0 1-23.02 158.57l46.676 42.2c21.523-67.78 44.328-134.7 69.691-200.77h129.582v32.82c-13.215 3.83-25.148 10.87-34.742 20.46-14.703 14.7-23.652 34.74-23.652 57.11 0 22.17 8.949 42.42 23.652 56.91 14.496 14.71 34.742 23.87 56.91 23.87 22.164 0 42.408-9.16 56.908-23.87 14.7-14.49 23.65-34.74 23.65-56.91 0-22.37-8.95-42.41-23.65-57.11-9.6-9.59-21.53-16.63-34.744-20.46v-32.82h129.574c25.37 66.07 48.17 132.99 69.7 200.77l46.68-42.2c-9.81-52.65-17.48-105.5-23.02-158.57h74.16c17.91 0 34.32-7.46 46.05-19.18 11.93-11.94 19.18-28.14 19.18-46.04v-10.02c4.69-2.34 8.95-5.33 12.57-8.95 8.31-8.31 13.43-19.82 13.43-32.61 0-12.57-5.12-24.08-13.43-32.61-.85-.85-1.92-1.7-2.77-2.34 14.92-13.86 28.77-28.98 41.56-45.4-13-18.97-27.92-35.17-44.97-50.72-11.94-11.09-24.93-21.74-36.87-31.54m-352.73 423.05c-8.95.43-17.477-2.98-23.657-8.73-6.394-5.76-10.445-13.85-10.871-23.02s2.981-17.69 8.738-24.08c5.754-6.18 14.067-10.45 23.231-10.88 8.953-.21 17.477 2.99 23.66 8.96 6.395 5.75 10.445 13.85 10.867 23.02.426 9.16-2.98 17.68-8.742 24.08-5.754 6.18-14.062 10.23-23.226 10.65m-121.485-222.07h97.613c.215 12.78.215 25.36.215 38.15H830.266c5.113-12.79 10.441-25.37 15.769-38.15m142.797 0h97.618c5.32 12.78 10.65 25.36 15.76 38.15H988.621c0-12.79 0-25.37.211-38.15m216.538-.65c26.64-2.13 54.35-10.01 81.63-22.8 2.35 6.61 6.18 12.79 11.08 17.69 3.62 3.62 7.88 6.61 12.36 8.95v10.02c0 6.82-2.77 13-7.24 17.48-4.48 4.68-10.87 7.46-17.7 7.46h-77.78c-1.07-13-1.71-25.79-2.35-38.8M1093.9 1147.2h24.08c.44 15.55.86 31.11 1.5 46.89zm-151.314 106.56h-69.059c16.411-36.02 33.676-71.61 51.789-106.56h13.645c1.699 35.59 2.984 71.18 3.625 106.56m116.364 0h-69.052c.641-35.38 1.918-70.97 3.622-106.56h13.64c18.12 34.95 35.38 70.54 51.79 106.56M814.492 1147.2h24.086L813 1194.09c.641-15.78 1.066-31.34 1.492-46.89m-85.676-63.09h-93.351c-.637-18.33-1.707-36.23-2.985-54.13-1.281-16.63-2.769-34.316-4.691-52.218h95.484c2.77 35.378 4.477 70.758 5.543 106.348m.426 169.65H627.789c1.922-17.9 3.41-35.59 4.691-52.43 1.278-17.9 2.348-36.02 2.985-54.13h94.629v29.62c0 25.79-.215 51.37-.852 76.94m144.071-169.65h-57.329c.641-36.44.852-71.82.852-106.348h109.121c.215 2.769.641 5.754 1.066 8.523zm243.187 0h-57.33l-53.71-97.825c.42-2.769.85-5.754 1.06-8.523h109.12c0 34.528.22 69.908.86 106.348m92.28-100.809c5.33 2.558 10.02 5.965 14.06 10.023 9.59 9.586 15.57 23.016 15.57 37.506 0 14.71-5.98 27.92-15.57 37.72-5.32 5.33-11.93 9.59-19.17 12.15 1.06-32.61 2.77-65 5.11-97.399m-6.39 166.879c7.67 2.56 14.7 7.03 20.45 12.79 9.59 9.59 15.57 22.8 15.57 37.51s-5.98 28.13-15.57 37.72c-5.53 5.55-12.14 9.81-19.81 12.58-.43-24.51-.64-49.23-.64-73.96zm-86.53-235.289h-98.26c4.27-19.184 9.59-37.727 16.2-54.567 8.53-21.738 21.74-39.429 38.58-51.785 13.43-9.594 28.99-15.984 46.25-18.332 0 3.406-.21 6.82-.21 10.016-1.28 37.082-2.14 75.234-2.56 114.668m-200.985 0h-98.25c-.43-39.434-1.281-77.586-2.559-114.668 0-3.196-.214-6.61-.214-10.016 17.265 2.348 32.82 8.738 46.25 18.332 16.836 12.356 30.05 30.047 38.578 51.785 6.609 16.84 11.933 35.383 16.195 54.567m-197.57 0H585.168c32.395-20.25 67.984-32.192 112.102-31.758-12.575-15.988-25.79-31.332-40.282-45.613 15.133-9.59 30.481-18.11 46.25-25.36 5.754 34.098 10.231 68.418 14.067 102.731" style="fill:#231f20;fill-opacity:1;fill-rule:evenodd;stroke:none" transform="matrix(.13333 0 0 -.13333 0 258.667)" data-source="https://football-logos.cc"></path><path d="m899.531 1084.11 31.543-57.54c1.703 19.18 2.985 37.72 4.047 54.34-.637 1.07-1.277 2.13-1.918 3.2zM791.262 1147.2c-.426 17.48-1.067 34.95-1.707 52.85-1.063 30.27-2.129 60.74-3.196 91.01l78.645-143.86h34.316c-25.363 49.44-49.019 100.17-70.976 151.96-35.375 82.91-66.492 168.37-94.625 255.54l-10.656-9.59c10.656-58.61 18.539-116.58 23.656-173.49 5.543-65.21 6.179-129.37 6.39-194.8.215-7.88.215-17.9.215-29.62zM790.621 789.355c.215 3.84.215 7.672.426 11.723 2.773 87.594 3.625 181.375 1.707 283.032h-40.492c-2.133-72.04-8.742-171.993-27.071-281.118.426 0 .852-.215 1.282-.426 21.097-7.668 42.621-12.574 64.148-13.211M1032.95 1084.11l-31.54-57.54c-1.707 19.18-2.988 37.72-4.051 54.34.641 1.07 1.274 2.13 1.918 3.2zM1141.22 1147.2c.42 17.48 1.07 34.95 1.7 52.85 1.07 30.27 2.14 60.74 3.2 91.01l-78.64-143.86h-34.32c25.36 49.44 49.02 100.17 70.97 151.96 35.39 82.91 66.5 168.37 94.63 255.54l10.66-9.59c-10.66-58.61-18.54-116.58-23.65-173.49-5.55-65.21-6.19-129.37-6.4-194.8-.21-7.88-.21-17.9-.21-29.62zM1141.86 789.355c-.22 3.84-.22 7.672-.43 11.723-2.77 87.594-3.62 181.375-1.7 283.032h40.49c2.13-72.04 8.74-171.993 27.07-281.118-.43 0-.85-.215-1.28-.426-21.1-7.668-42.63-12.574-64.15-13.211" style="fill:#fff;fill-opacity:1;fill-rule:evenodd;stroke:none" transform="matrix(.13333 0 0 -.13333 0 258.667)"></path><path d="m1290.2 1115.66 9.16 7.45c13.64 10.87 29.62 23.87 44.97 37.94 12.79 11.72 24.94 24.09 34.1 36.23-25.14 30.48-54.77 54.78-85.89 71.83-29.2 15.98-59.46 25.57-88.02 27.92-.43-8.74-.64-17.69-.85-26.64 12.36-3.2 23.65-9.81 32.61-18.76 13-13.21 21.1-31.12 21.1-51.15 0-19.82-8.1-37.94-21.1-50.94-13.22-13.21-31.12-21.31-51.16-21.31H616.922c-.641 24.08-1.707 47.95-3.41 71.82-1.707 24.3-4.262 48.6-6.821 72.68h122.125c-.214 8.31-.429 16.62-.855 24.94H558.102c3.406-27.92 6.39-56.7 8.734-84.83 2.559-32.39 4.266-65 4.266-97.18 0-32.19-1.707-64.8-4.266-97.19-2.344-27.923-5.328-56.693-8.734-84.615h161.125c.847 8.313 1.703 16.625 2.343 24.938H606.691c2.559 24.293 5.114 48.377 6.821 72.457 1.918 24.09 2.769 47.74 3.41 71.83h568.198c20.04 0 37.94-8.1 51.16-21.31 13-13 21.1-31.12 21.1-50.94s-8.1-37.725-21.1-50.939c-7.26-7.246-15.99-13-25.79-16.625.85-9.161 1.7-18.539 2.55-27.918 26.01 3.406 53.29 12.574 79.5 27.066 31.12 17.051 60.75 41.346 85.89 71.606-9.16 12.16-21.31 24.52-34.1 36.24-15.35 14.06-31.33 27.06-44.97 38.15z" style="fill:#fff;fill-opacity:1;fill-rule:evenodd;stroke:none" transform="matrix(.13333 0 0 -.13333 0 258.667)"></path><path d="M943.438 1297.67h-89.305c3.41-8.32 7.035-16.63 10.871-24.94h78.004c.215 8.31.215 16.62.43 24.94M1078.55 1297.67h-89.503c.211-8.32.211-16.63.422-24.94h78.011c3.83 8.31 7.46 16.62 11.07 24.94M1258.44 590.504c-22.38-18.539-43.05-38.996-61.59-61.379-12.58-15.344-24.09-31.543-34.53-48.812-6.82 67.781-12.36 139.175-16.41 215.054 1.28.422 2.56 1.063 3.84 1.488 22.8 7.887 46.67 16.415 72.25 29.629 9.8-44.972 21.73-90.578 36.44-135.98M674.039 590.504c22.383-18.539 43.055-38.996 61.598-61.379 12.574-15.344 24.082-31.543 34.523-48.812 6.82 67.781 12.363 139.175 16.414 215.054-1.277.422-2.558 1.063-3.84 1.488-22.8 7.887-46.671 16.415-72.25 29.629-9.804-44.972-21.738-90.578-36.445-135.98M1013.55 933.855h102.09v24.938h-106.35c1.28-8.313 2.77-16.625 4.26-24.938M816.836 933.855h102.09c1.492 8.313 2.98 16.625 4.265 24.938H816.836z" style="fill:#fff;fill-opacity:1;fill-rule:evenodd;stroke:none" transform="matrix(.13333 0 0 -.13333 0 258.667)"></path><path d="M1064.07 292.336c0 .215 0 .855-.21 1.492v1.492c0 8.102 2.12 14.922 6.18 20.461 4.26 5.754 10.86 11.934 19.82 18.332 9.16 6.602 15.13 11.293 18.11 13.852 2.99 2.773 5.11 6.394 5.76 11.297v2.129c.21 1.062.21 1.707.21 2.343 0 4.903-1.28 8.743-3.84 11.512-2.34 2.981-5.54 4.258-8.95 4.258-6.39 0-10.65-1.91-12.57-5.539-1.92-3.832-2.99-8.738-2.99-14.703h-20.03c0 5.328.64 10.871 2.34 16.625 1.49 5.539 4.9 10.652 9.81 15.129 5.11 4.265 12.36 6.609 21.95 6.609 5.54 0 10.66-.855 15.13-2.559 4.48-1.707 8.32-4.05 11.51-6.82 2.99-2.984 5.54-6.394 7.04-10.445 1.7-3.836 2.55-7.887 2.55-12.36 0-4.476-.85-8.742-2.34-13-1.28-3.625-3.63-7.035-7.03-10.66-3.41-3.406-8.54-7.668-15.14-12.574-6.82-5.109-11.29-8.734-14.07-10.656-2.55-2.125-4.68-4.477-6.18-6.813h43.91v-19.402zM977.109 292.336v1.492c-.214.641-.214 1.067-.214 1.492q0 12.153 6.394 20.461c4.055 5.754 10.656 11.934 19.821 18.332 8.95 6.602 14.92 11.293 17.9 13.852 3.2 2.773 5.12 6.394 5.76 11.297 0 .422 0 1.066.21 2.129 0 1.062.21 1.707.21 2.343 0 4.903-1.27 8.743-3.83 11.512-2.56 2.981-5.54 4.258-9.16 4.258-6.4 0-10.45-1.91-12.58-5.539-1.917-3.832-2.987-8.738-2.987-14.703h-20.031c0 5.328.64 10.871 2.343 16.625 1.493 5.539 4.903 10.652 10.02 15.129 4.898 4.472 12.355 6.609 21.735 6.609 5.55 0 10.66-.855 15.14-2.559 4.69-1.707 8.52-4.05 11.5-6.82 3.2-2.984 5.55-6.394 7.04-10.445 1.7-3.836 2.55-7.887 2.55-12.36 0-4.476-.85-8.742-2.13-13-1.28-3.625-3.62-7.035-7.03-10.66-3.62-3.406-8.73-7.668-15.34-12.574-6.61-5.109-11.3-8.734-13.86-10.656-2.77-2.125-4.69-4.477-6.39-6.813h43.9v-19.402zM836.02 292.336v70.117h-23.231v13.856c9.375.644 14.488 2.347 20.031 5.332 5.543 2.769 8.953 7.457 10.231 13.847h14.07V292.336zM889.086 318.34h21.738c0-7.461 4.692-11.508 14.071-11.082 5.539.215 9.589 3.621 11.933 9.379 2.344 5.968 3.41 12.57 3.41 19.82-4.472-6.394-11.508-9.805-20.886-10.023-5.329 0-10.227 1.707-15.133 4.48-4.688 2.774-8.739 6.82-11.723 12.363q-4.471 7.989-4.473 19.176c0 6.184.852 11.512 2.981 16.203 2.137 4.688 4.906 8.52 8.316 11.512 3.41 2.98 7.032 5.113 11.078 6.391 4.051 1.492 7.891 2.129 11.508 2.129 7.461 0 14.067-1.493 19.399-4.688 5.328-2.984 9.379-7.246 12.363-12.359 2.98-5.118 4.687-10.657 5.109-16.84.434-7.035.641-13 .641-17.692 0-16.832-2.77-30.472-8.309-41.136-5.543-10.653-15.343-15.981-29.203-15.981-5.539 0-10.652.856-15.343 2.988-4.899 1.915-8.739 5.11-11.934 9.375-3.195 4.262-4.902 9.59-5.543 15.985m18.758 44.973q.316-9.271 4.476-14.071c2.77-3.195 6.395-4.687 11.078-4.687 4.907 0 8.739 1.707 11.512 5.543 2.985 3.621 4.262 8.097 4.262 13 0 5.113-1.277 9.59-4.262 13.211-2.773 3.836-6.605 5.543-11.512 5.543-5.539 0-9.375-1.707-11.929-5.543-2.344-3.621-3.625-7.883-3.625-12.996" style="fill:#231f20;fill-opacity:1;fill-rule:evenodd;stroke:none" transform="matrix(.13333 0 0 -.13333 0 258.667)" data-source="https://football-logos.cc"></path><!-- source: https://football-logos.cc --></svg>