<svg xmlns="http://www.w3.org/2000/svg" viewBox="0 0 64 77.85"><!-- Source: https://football-logos.cc --><g transform="translate(-68 -122.013)" data-source="https://football-logos.cc"><path d="M76.398 146.05c0 7.772.248 27.967.248 27.967-.248 20.715 15.968 25.148 23.354 25.148s23.602-4.433 23.354-25.148c0 0 .248-20.195.248-27.967H100Z" style="fill:#fff;fill-opacity:1;stroke:#d1ad36;stroke-width:1;stroke-linecap:butt;stroke-linejoin:miter;stroke-miterlimit:4;stroke-dasharray:none;stroke-opacity:1"></path><path d="M-385.719-908.683c57.134 0 90.456 18.265 90.456 18.265 1.405 0 2.565-2.058 1.967-3.599-48.463-24.608-136.409-24.599-184.854 0-.59 1.541.9 4.3 2.304 4.3 0 0 33.024.128 90.167.128" style="fill:#fff;fill-opacity:1;fill-rule:nonzero;stroke:none;stroke-width:11.3386;stroke-miterlimit:4;stroke-dasharray:none;stroke-opacity:1" transform="translate(202.056 380.754)scale(.26458)"></path><path d="M100.001 139.265 100 146.05h23.888v-1.826l-10.365-2.551z" style="fill:#636;fill-opacity:1;stroke:none;stroke-width:.264583px;stroke-linecap:butt;stroke-linejoin:miter;stroke-opacity:1"></path><g stroke="none" style="fill:#ababab;fill-opacity:1;stroke:red;stroke-width:3.77953;stroke-miterlimit:4;stroke-dasharray:none;stroke-opacity:1"><path d="m-264.779-952.112-6.816-3.018s-1.813 3.653-2.258 4.541c-.824-.362-3.462-1.523-4.36-1.912l2.257-4.56-6.508-2.883s-1.83 3.699-2.275 4.587c-.843-.371-3.753-1.65-4.668-2.048l2.275-4.596-6.835-3.028-.29.58-4.423 8.92 3.326 1.468-.036.272-.399 2.883 2.04.924-2.366 3.835-2.837-.934-.245.59-1.668 4.051c-.843-.263-3.59-1.106-4.532-1.396.344-.979 1.631-4.74 1.631-4.74l-7.287-2.058-.173.67s-.87 3.2-1.142 4.17a1728 1728 0 0 0-6.019-1.532l-.01-.815.662.064.834-4.034-1.568-.363-.064-3.761 3.853.716 1.468-2.901 2.729.498 1.994-10.098-6.49-1.169s-.662 3.5-.853 4.46c-.942-.172-4.151-.752-5.067-.925l.608-4.56-6.808-1.196s-.562 3.517-.707 4.496c-.979-.163-4.206-.725-5.158-.888.163-.97.753-4.45.753-4.45l-6.49-1.288s-.562 3.5-.726 4.496c-.997-.19-4.468-.87-5.393-1.051l.644-4.533-6.282-1.142-.127.671-1.722 9.509 3.236.589v3.091l3.626.67-1.433 3.609-3.09-.39-.1.661s-.508 3.327-.653 4.297c-.97-.1-4.623-.49-5.557-.59.028-.97.154-5.03.154-5.03l-7.143-.607v.725l-.072 4.306c-1.052-.074-4.831-.318-5.81-.39.027-.988.154-5.004.154-5.004l-2.43-.127-.888-4.641h2.756l2.04-3.227h2.283v-10.27h-6.236v4.768h-5.81v-4.768h-6.128v4.768h-4.623v-4.768h-6.137v4.768h-5.81v-4.768h-6.237v10.27h2.285l2.04 3.227h2.764l-.897 4.641-.164.018-2.257.118s.118 4.016.145 5.004c-.97.073-4.759.317-5.81.39-.01-1.061-.073-5.032-.073-5.032l-7.152.608.027.643s.11 3.418.145 4.388c-.942.099-4.595.49-5.556.589-.145-.97-.762-4.958-.762-4.958l-3.082.39-1.44-3.608 3.625-.671v-3.091l3.245-.59-1.858-10.179-.671.127-5.61 1.015s.516 3.58.652 4.533c-.925.181-4.406.86-5.403 1.051-.163-.997-.725-4.496-.725-4.496l-6.481 1.287.752 4.451c-.952.164-4.188.725-5.158.888l-.707-4.496-6.807 1.197s.471 3.607.598 4.56c-.915.172-4.115.752-5.067.924-.181-.96-.852-4.46-.852-4.46l-6.49 1.17 1.994 10.097 2.728-.498 1.478 2.9 3.843-.716-.063 3.762-.163.037-1.405.326.136.653.698 3.381.67-.062-.018.816c-1.532.39-5.185 1.314-6.019 1.532-.263-.97-1.323-4.832-1.323-4.832l-.653.181-6.626 1.868.236.68 1.396 4.06c-.934.29-3.68 1.134-4.524 1.396-.362-.879-1.921-4.64-1.921-4.64l-2.828.933-2.366-3.834 2.03-.925-.435-3.154 3.327-1.469-4.705-9.5-.598.263-6.246 2.765s1.813 3.644 2.285 4.596c-.925.399-3.835 1.677-4.678 2.048-.444-.888-2.275-4.586-2.275-4.586l-6.508 2.882s1.795 3.608 2.257 4.56c-.897.39-3.526 1.55-4.36 1.912-.435-.888-2.248-4.541-2.248-4.541l-6.826 3.019 4.714 9.5 2.837-1.252 2.765 2.384 1.885-.86 4.977 11.647c-1.17.426-1.958 1.088-1.958 2.003 0 1.224.707 1.95 1.885 1.95l.925-.182c.2-.054.426-.118.689-.181l8.312 19.425a97 97 0 0 0-3.082 1.441l-.218.1-.1.217c-.57 1.197-.516 2.52.118 3.454.553.797 1.469 1.196 2.52 1.115h.127l.118-.054c.09-.046.2-.1.3-.145a2.74 2.74 0 0 0 .307 1.976c.436.716 1.17 1.142 1.958 1.152h.154l.136-.074c.834-.38 1.868-.86 3.1-1.396-.145.608-.1 1.224.154 1.777.2.444.517.789.907 1.024-3.426 1.478-5.258 2.448-5.34 2.484l-.217.119-.09.244c-.39 1.016-.218 2.257.462 3.254.553.798 1.332 1.26 2.14 1.26h.18l.154-.081c.327-.182 33.848-18.184 90.13-18.184s89.794 18.002 90.129 18.184l.154.081h.172c.807 0 1.586-.462 2.14-1.26.68-.997.86-2.238.47-3.254l-.09-.244-.227-.119c-.081-.036-1.912-1.006-5.339-2.484.39-.235.716-.58.916-1.024a2.66 2.66 0 0 0 .145-1.777 142 142 0 0 1 3.1 1.396l.136.074h.154c.798 0 1.523-.436 1.958-1.143a2.68 2.68 0 0 0 .308-1.985c.1.045.218.1.3.145l.117.054h.136c1.052.082 1.967-.317 2.511-1.115.644-.934.689-2.257.118-3.454l-.1-.217-.217-.1a89 89 0 0 0-3.082-1.44l.01-.018 8.303-19.408c.263.063.499.128.69.182l.924.181c1.187 0 1.885-.725 1.885-1.949 0-.915-.788-1.577-1.958-2.003l4.986-11.648 1.885.861 2.765-2.384 2.828 1.25 4.714-9.499" style="fill:#000;fill-opacity:1;fill-rule:nonzero;stroke:none;stroke-width:15.1181;stroke-miterlimit:4;stroke-dasharray:none;stroke-opacity:1" transform="translate(202.056 380.754)scale(.26458)"></path><path d="M-453.458-922.77q-3.318.885-6.337 1.795l2.992 4.832.081.163c1.025-.299 2.085-.598 3.164-.897zm47.072-7.904v4.034l.78-4.097c-.263.028-.517.045-.78.064m-.689.053c-2.193.173-4.369.363-6.49.58l2.194 5.503q2.121-.204 4.296-.38zm-53.645 3.3c-.86.245-1.703.499-2.519.752l3.073 4.995c.154-.045.317-.1.462-.136zm.663-.19 1.015 5.602a269 269 0 0 1 5.593-1.578l.1-5.883a221 221 0 0 0-6.708 1.859m46.528-8.92q-1.251.121-2.474.254l2.175 5.475c.127 0 .263-.018.39-.037zm.68-.072.09 5.701c2.385-.235 4.805-.453 7.289-.625l1.106-5.774c-2.892.19-5.72.426-8.485.698m4.976-6.844c-3.634.272-7.17.607-10.596.997l2.203 5.52c2.728-.308 5.53-.57 8.393-.798zm.68-.054v5.72q1.47-.11 2.964-.218l1.115-5.775a273 273 0 0 0-4.079.272m-49.384 8.204a247 247 0 0 0-10.161 2.964l3.127 5.067a264 264 0 0 1 8.449-2.43zm.662-.163 1.414 5.593c.39-.1.77-.209 1.16-.309l.1-5.982c-.906.226-1.795.462-2.674.698m-8.212-2.185a239 239 0 0 0-4.95 1.532l1.967 3.182c1.242-.4 2.538-.789 3.871-1.188zm.652-.19.889 3.526a252 252 0 0 1 9.354-2.556l.064-3.762c-3.653.906-7.098 1.85-10.307 2.792m49.711-9.436.19 3.634c3.435-.335 6.961-.616 10.587-.834l.716-3.689c-3.952.227-7.777.526-11.493.889m-.689.063c-1.913.19-3.817.39-5.675.607l1.396 3.5a311 311 0 0 1 4.478-.472zm-38.616.489a233 233 0 0 0-6.49 1.65l-1.314-4.813a213 213 0 0 0-5.92 1.668l1.623 4.722a293 293 0 0 0-5.801 1.786l-1.904-4.623c-.707.227-1.396.453-2.085.68l5.52 8.938a237 237 0 0 1 16.28-4.623zm.082-5.157c-.245.062-.508.118-.752.181l.698 3.381zm51.242-7.234.154 5.004c-2.438.127-4.822.29-7.179.471l-.09-5.013c-1.94.145-3.871.309-5.766.49l.163 5.013c-2.311.226-4.595.462-6.834.734l-.753-4.95c-.752.091-1.504.191-2.248.282l2.602 6.526 1.305 3.29a292 292 0 0 1 18.247-1.577l1.015-5.294.98-5.057zm-66.353 44.263-10.56 3.788 8.802-6.444a17 17 0 0 0-.517-.707l-9.753 3.535 8.294-5.357c-.145-.173-.3-.345-.453-.517l-8.648 3 6.381-5.303a19 19 0 0 0-.634-.561l-7.216 2.32 4.823-4.106a14 14 0 0 0-.707-.426l-5.185 1.849 3.553-2.683c-1.577-.689-3.254-1.115-5.03-1.115-.88 0-1.66.1-2.321.236l8.258 19.28h.018c2.837-1.25 6.916-2.919 12.101-4.723l-.462-.78c-.01-.017-.272-.507-.744-1.286" style="fill:#d1ad36;fill-opacity:1;fill-rule:nonzero;stroke:none;stroke-width:11.3386;stroke-miterlimit:4;stroke-dasharray:none;stroke-opacity:1" transform="translate(202.056 380.754)scale(.26458)"></path><path d="m-466.747-913.768.508.852c.933-.318 1.894-.644 2.891-.97l-.39-1.287s-7.288-15.456-21.546-15.456c-3.01 0-5.484.798-5.484 1.94 0 1.133.734 1.27 1.205 1.27s2.14-.735 4.614-.735c10.778 0 18.202 14.386 18.202 14.386" style="fill:#d1ad36;fill-opacity:1;fill-rule:nonzero;stroke:none;stroke-width:11.3386;stroke-miterlimit:4;stroke-dasharray:none;stroke-opacity:1" transform="translate(202.056 380.754)scale(.26458)"></path><path d="m-478.323-949.7-15.518 7.097 5.013 11.711c1.051-.28 2.302-.426 3.544-.426 14.521 0 22.09 15.691 22.163 15.854l.027.046.399 1.323a187 187 0 0 1 5.248-1.632l.055-.054zm-8.647 15.101-3.454-8.05 2.71-1.16 3.454 8.05zm60.298-26.478-25.554 4.687-.643 39.367a237 237 0 0 1 7.614-1.94l-.227-1.241c-3.254-17.54 2.593-28.282 8.059-29.288 5.466-1.015 14.775 6.916 18.02 24.447l.254 1.387c2.312-.29 4.66-.562 7.08-.798zm-21.72 14.25-1.459-8.648 3.79-.643 1.459 8.647zm17.26-3.68-1.46-8.648 3.798-.634 1.46 8.638z" style="fill:#d1ad36;fill-opacity:1;fill-rule:nonzero;stroke:none;stroke-width:11.3386;stroke-miterlimit:4;stroke-dasharray:none;stroke-opacity:1" transform="translate(202.056 380.754)scale(.26458)"></path><path d="M-444.584-919.117c1.015-.235 2.04-.471 3.082-.698l-.462-2.529c-.916-4.93-1.45-22.135 5.239-23.377 6.699-1.233 12.364 15.02 13.28 19.95l.48 2.612c1.033-.145 2.085-.281 3.136-.417l-.244-1.342c-3.055-16.48-11.911-24.891-17.223-23.903-5.312.979-10.57 12.01-7.515 28.49z" style="fill:#d1ad36;fill-opacity:1;fill-rule:nonzero;stroke:none;stroke-width:11.3386;stroke-miterlimit:4;stroke-dasharray:none;stroke-opacity:1" transform="translate(202.056 380.754)scale(.26458)"></path><path d="m-437.106-922.733 12.6-4.614c-.055-.172-.1-.354-.154-.544l-12.582.807 11.694-3.635c-.046-.155-.1-.308-.154-.462l-13.208 1.087 11.975-4.27c-.064-.126-.118-.262-.173-.398l-11.539 1.323 10.28-3.988c-.1-.2-.209-.399-.309-.598l-10.705.77 9.473-2.882c-.1-.173-.209-.327-.318-.49l-9.091.635 7.432-2.774c-.525-.58-1.07-1.079-1.631-1.46-1.07-.734-2.085-1.006-3.082-.815-5.91 1.096-5.602 17.685-4.696 22.58l.463 2.501a248 248 0 0 1 17.195-3.09l-.172-.934zm-39.294-28.581-.336-2.384-21.62 9.581 2.113 1.84zm2.71-4.55-4.107-8.276-5.593 2.465 2.285 4.605-5.92 2.601-2.275-4.586-5.266 2.33 2.266 4.559-5.611 2.456-2.257-4.532-5.575 2.466 4.106 8.276zm16.225-2.548 34.41-6.272v2.202l-33.331 6.2zm-4.686-9.055 1.731 8.756 40.492-7.433-1.605-8.829-4.967.907.652 4.514-6.735 1.314-.725-4.496-5.14 1.025.753 4.468-6.5 1.124-.715-4.496-5.475.961.598 4.55-6.373 1.17-.852-4.469zm76.432 58.784c57.134 0 90.456 18.265 90.456 18.265 1.405 0 2.565-2.058 1.967-3.599 0 0-34.899-18.763-92.423-18.763-57.533 0-92.431 18.763-92.431 18.763-.59 1.541.562 3.599 1.967 3.599 0 0 33.321-18.265 90.464-18.265" style="fill:#d1ad36;fill-opacity:1;fill-rule:nonzero;stroke:none;stroke-width:11.3386;stroke-miterlimit:4;stroke-dasharray:none;stroke-opacity:1" transform="translate(202.056 380.754)scale(.26458)"></path><path d="M-385.719-913.47c43.266 0 74.067 10.742 86.567 16.018 1.088-.254 1.695-1.596 1.043-2.82-12.763-5.429-43.538-16.152-87.61-16.152-44.08 0-74.855 10.723-87.618 16.153-.653 1.223-.045 2.565 1.052 2.819 12.5-5.276 43.292-16.017 86.566-16.017" style="fill:#d1ad36;fill-opacity:1;fill-rule:nonzero;stroke:none;stroke-width:11.3386;stroke-miterlimit:4;stroke-dasharray:none;stroke-opacity:1" transform="translate(202.056 380.754)scale(.26458)"></path><path d="M-385.719-917.104c49.738 0 82.624 13.624 91.86 17.984 1.26 0 2.104-1.514 1.397-2.855-9.5-4.478-42.94-18.32-93.257-18.32s-83.766 13.842-93.265 18.32c-.707 1.341.145 2.855 1.396 2.855 9.246-4.36 42.123-17.984 91.87-17.984" style="fill:#d1ad36;fill-opacity:1;fill-rule:nonzero;stroke:none;stroke-width:11.3386;stroke-miterlimit:4;stroke-dasharray:none;stroke-opacity:1" transform="translate(202.056 380.754)scale(.26458)"></path><path d="M-385.719-920.975c52.774 0 87.075 15.201 94.725 18.945 2.013.164 2.81-1.83 1.967-3.599-7.714-3.788-42.866-19.443-96.692-19.443-53.834 0-88.978 15.655-96.7 19.443-.835 1.768-.046 3.762 1.966 3.6 7.65-3.745 41.96-18.946 94.734-18.946" style="fill:#d1ad36;fill-opacity:1;fill-rule:nonzero;stroke:none;stroke-width:11.3386;stroke-miterlimit:4;stroke-dasharray:none;stroke-opacity:1" transform="translate(202.056 380.754)scale(.26458)"></path><path d="M-317.988-922.77c2.212.59 4.333 1.188 6.336 1.795l-2.982 4.832-.082.163a296 296 0 0 0-3.172-.897zm-47.063-7.904v4.034l-.789-4.097c.263.028.526.045.789.064m.679.053c2.203.173 4.37.363 6.49.58l-2.193 5.503a294 294 0 0 0-4.297-.38zm53.654 3.3c.852.245 1.695.499 2.52.752l-3.082 4.995c-.154-.045-.308-.1-.463-.136zm-.662-.19-1.024 5.602a269 269 0 0 0-5.593-1.578l-.1-5.883c2.348.608 4.578 1.233 6.717 1.859m-46.538-8.92q1.25.121 2.484.254l-2.184 5.475a3 3 0 0 1-.39-.037zm-.679-.072-.091 5.701a246 246 0 0 0-7.288-.625l-1.106-5.774c2.892.19 5.72.426 8.485.698m-4.968-6.844c3.626.272 7.161.607 10.588.997l-2.194 5.52a257 257 0 0 0-8.394-.798zm-.689-.054v5.72q-1.469-.11-2.964-.218l-1.115-5.775q2.067.123 4.08.272m49.383 8.204a240 240 0 0 1 10.162 2.964l-3.128 5.067a257 257 0 0 0-8.448-2.43zm-.652-.163-1.424 5.593c-.39-.1-.761-.209-1.16-.309l-.09-5.982c.906.226 1.785.462 2.674.698m8.212-2.185a221 221 0 0 1 4.94 1.532l-1.967 3.182c-1.242-.4-2.538-.789-3.861-1.188zm-.653-.19-.897 3.526a248 248 0 0 0-9.355-2.556l-.063-3.762c3.662.906 7.097 1.85 10.315 2.792m-49.71-9.436-.2 3.634a282 282 0 0 0-10.587-.834l-.707-3.689c3.953.227 7.769.526 11.494.889m.68.063q2.885.283 5.674.607l-1.395 3.5a290 290 0 0 0-4.478-.472zm38.615.489c2.24.535 4.415 1.088 6.5 1.65l1.314-4.813c2.04.544 4.015 1.106 5.92 1.668l-1.624 4.722a296 296 0 0 1 5.793 1.786l1.912-4.623c.707.227 1.396.453 2.076.68l-5.511 8.938a239 239 0 0 0-16.29-4.623zm-.082-5.157c.254.062.508.118.762.181l-.698 3.381zm-51.242-7.234-.144 5.004c2.429.127 4.822.29 7.179.471l.081-5.013q2.924.218 5.765.49l-.163 5.013c2.32.226 4.605.462 6.835.734l.752-4.95c.762.091 1.514.191 2.257.282l-2.601 6.526-1.315 3.29a291 291 0 0 0-18.247-1.577l-1.015-5.294-.97-5.057zm66.353 44.263 10.56 3.788-8.801-6.444c.163-.236.344-.472.526-.707l9.753 3.535-8.303-5.357c.145-.173.299-.345.453-.517l8.648 3-6.382-5.303c.209-.19.426-.38.644-.561l7.206 2.32-4.822-4.106c.236-.145.471-.29.707-.426l5.194 1.849-3.562-2.683c1.577-.689 3.254-1.115 5.03-1.115.889 0 1.668.1 2.32.236l-8.257 19.28h-.019c-2.837-1.25-6.907-2.919-12.092-4.723l.453-.78c.02-.017.272-.507.744-1.286" style="fill:#d1ad36;fill-opacity:1;fill-rule:nonzero;stroke:none;stroke-width:11.3386;stroke-miterlimit:4;stroke-dasharray:none;stroke-opacity:1" transform="translate(202.056 380.754)scale(.26458)"></path><path d="m-304.7-913.768-.507.852c-.925-.318-1.885-.644-2.892-.97l.39-1.287s7.297-15.456 21.547-15.456c3.01 0 5.484.798 5.484 1.94 0 1.133-.734 1.27-1.206 1.27-.462 0-2.139-.735-4.614-.735-10.768 0-18.201 14.386-18.201 14.386" style="fill:#d1ad36;fill-opacity:1;fill-rule:nonzero;stroke:none;stroke-width:11.3386;stroke-miterlimit:4;stroke-dasharray:none;stroke-opacity:1" transform="translate(202.056 380.754)scale(.26458)"></path><path d="m-314.054-915.78.054.053a188 188 0 0 1 5.258 1.632l.399-1.324.018-.045c.073-.163 7.642-15.854 22.163-15.854 1.251 0 2.502.145 3.554.426l5.012-11.711-15.527-7.098zm26.877-19.98 3.453-8.049 2.701 1.16-3.453 8.05zm-72.191 11.304c2.411.236 4.768.508 7.07.798l.254-1.387c3.254-17.53 12.555-25.462 18.02-24.447 5.467 1.006 11.313 11.748 8.06 29.288l-.228 1.242c2.665.634 5.213 1.278 7.615 1.94l-.644-39.368-25.553-4.687zm32.524-23.015 1.46-8.647 3.797.643-1.46 8.648zm-17.26-3.68 1.46-8.638 3.79.634-1.46 8.648z" style="fill:#d1ad36;fill-opacity:1;fill-rule:nonzero;stroke:none;stroke-width:11.3386;stroke-miterlimit:4;stroke-dasharray:none;stroke-opacity:1" transform="translate(202.056 380.754)scale(.26458)"></path><path d="M-326.853-919.117a199 199 0 0 0-3.091-.698l.471-2.529c.916-4.93 1.441-22.135-5.248-23.377-6.69-1.233-12.355 15.02-13.27 19.95l-.49 2.612c-1.025-.145-2.085-.281-3.137-.417l.245-1.342c3.055-16.48 11.91-24.891 17.232-23.903 5.312.979 10.56 12.01 7.505 28.49z" style="fill:#d1ad36;fill-opacity:1;fill-rule:nonzero;stroke:none;stroke-width:11.3386;stroke-miterlimit:4;stroke-dasharray:none;stroke-opacity:1" transform="translate(202.056 380.754)scale(.26458)"></path><path d="m-334.34-922.733-12.591-4.614c.045-.172.1-.354.145-.544l12.581.807-11.693-3.635.163-.462 13.207 1.087-11.974-4.27c.054-.126.109-.262.172-.398l11.53 1.323-10.28-3.988c.1-.2.21-.399.318-.598l10.705.77-9.481-2.882a21 21 0 0 1 .317-.49l9.092.635-7.433-2.774c.526-.58 1.079-1.079 1.64-1.46 1.07-.734 2.076-1.006 3.074-.815 5.91 1.096 5.61 17.685 4.704 22.58l-.462 2.501a248 248 0 0 0-17.196-3.09l.172-.934zm-51.379-27.421c-1.559 0-2.891 1.106-4.024 2.82l7.45 1.114-8.565.925c-.1.2-.19.408-.281.625l9.6 1.414-10.47.87c-.073.21-.136.417-.2.626l10.67 2.466-11.477.426c-.027.118-.054.244-.09.362l11.765 1.768-12.355 1.088c-.036.172-.063.344-.09.507l12.346 2.32-12.8.817c-.01.127-.027.253-.036.38l11.938 2.566-12.119 1.595v1.858c2.855-.09 5.765-.144 8.738-.144 2.974 0 5.874.054 8.73.144v-3.2c0-4.976-2.72-21.347-8.73-21.347" style="fill:#d1ad36;fill-opacity:1;fill-rule:nonzero;stroke:none;stroke-width:11.3386;stroke-miterlimit:4;stroke-dasharray:none;stroke-opacity:1" transform="translate(202.056 380.754)scale(.26458)"></path><path d="M-398.98-927.356c0-17.83 7.696-27.32 13.261-27.32 5.557 0 13.262 9.49 13.262 27.32v1.94c2.375.118 4.732.253 7.025.425l-7.578-39.43h-25.426l-7.578 39.43a274 274 0 0 1 7.034-.425zm19.58-36.123h3.852v8.766h-3.853zm-16.49 0h3.844v8.766h-3.843zm100.844 12.165.336-2.384 21.628 9.581-2.121 1.84zm-2.71-4.55 4.106-8.276 5.593 2.465-2.284 4.605 5.928 2.601 2.266-4.586 5.267 2.33-2.266 4.559 5.62 2.456 2.248-4.532 5.575 2.466-4.107 8.276zm-16.225-2.548-34.41-6.272v2.202l33.33 6.2zm4.695-9.055-1.731 8.756-40.501-7.433 1.614-8.829 4.958.907-.644 4.514 6.735 1.314.716-4.496 5.14 1.025-.752 4.468 6.508 1.124.707-4.496 5.484.961-.607 4.55 6.372 1.17.852-4.469zm-60.642 2.366 1.604-2.548h-34.79l1.605 2.548zm4.015-3.227v-8.902h-4.867v4.768h-7.18v-4.768h-4.767v4.768h-5.992v-4.768h-4.768v4.768h-7.17v-4.768h-4.868v8.902z" style="fill:#d1ad36;fill-opacity:1;fill-rule:nonzero;stroke:none;stroke-width:11.3386;stroke-miterlimit:4;stroke-dasharray:none;stroke-opacity:1" transform="translate(202.056 380.754)scale(.26458)"></path><path d="M-385.719-950.834c6.808 0 9.418 17.006 9.418 22.027v3.218c1.061.037 2.113.09 3.155.136v-1.904c0-16.76-7.17-26.64-12.573-26.64-5.402 0-12.581 9.88-12.581 26.64v1.904c1.051-.045 2.094-.1 3.163-.136v-3.218c0-5.021 2.61-22.027 9.418-22.027" style="fill:#d1ad36;fill-opacity:1;fill-rule:nonzero;stroke:none;stroke-width:11.3386;stroke-miterlimit:4;stroke-dasharray:none;stroke-opacity:1" transform="translate(202.056 380.754)scale(.26458)"></path></g><path d="m91.806 173.88-1.228-.63-.302-.846h2.327zm-1.351-5.443-1.228-.63-.302-.846h2.327zm.119 9.996-.894-.264-.3-.845h2.326zm-4.382-4.511-.222-.38-3.205 3.869c.163.02.35.247.331.245zm-.257-1.8-.223.38-3.205-3.868.489-.058z" style="fill:#636;fill-opacity:1;stroke:#000;stroke-width:.0793829;stroke-linecap:butt;stroke-linejoin:miter;stroke-miterlimit:4;stroke-dasharray:none;stroke-opacity:1"></path><path d="M77.986 182.563c-.622-.089 1.155 3.478 2.15 5.853l5.506 2.167 7.921-2.299 6.437 2.348v-6.934l-5.908-2.222-7.236 2.222-7.233-2.222z" style="fill:#004f94;fill-opacity:1;stroke:#000;stroke-width:.264583px;stroke-linecap:butt;stroke-linejoin:miter;stroke-opacity:1"></path><path d="M80.135 188.416c.116.004.396.063.51.076 2.115.252 3.812 2.059 5.743 2.14 2.609 0 4.694-2.222 7.18-2.222 2.238 0 3.566 2.222 6.432 2.222" style="fill:none;stroke:#000;stroke-width:1.5;stroke-linecap:butt;stroke-linejoin:miter;stroke-miterlimit:4;stroke-dasharray:none;stroke-opacity:1"></path><path d="M86.765 180.796H84.52l.716 1.476h2.326zm-1.447-15.468h2.244l-.715-1.476H84.52z" style="fill:#636;fill-opacity:1;stroke:#000;stroke-width:.0793829;stroke-linecap:butt;stroke-linejoin:miter;stroke-miterlimit:4;stroke-dasharray:none;stroke-opacity:1"></path><path d="M86.065 164.544c-3.154.007-5.709 3.852-5.709 8.592 0 4.745 2.56 8.592 5.717 8.592 3.158 0 5.717-3.847 5.717-8.592s-2.56-8.592-5.717-8.592zm1.11.558c-.593-.457-.552.28-.555.934 2.24 1.596 3.181 4.034 3.181 7.099 0 2.99-.896 5.384-3.02 6.98-.488.369-.74.453-.98.542-.276-.094.24.133 0 0l-.089-.049c-2.78-1.597-3.314-5.534-3.314-7.474 0-2.24.713-7.146 4.778-8.032m-.555.934c-.012-.008.247-.078.234-.087-.414-2.26-1.185-.6-1.5-.786z" style="fill:#636;fill-opacity:1;stroke:#000;stroke-width:.158766;stroke-linecap:round;stroke-linejoin:round;stroke-miterlimit:4;stroke-dasharray:none;stroke-opacity:1;paint-order:stroke fill markers"></path><path d="M82.433 172.82v.513h8.292l-.295-.512Z" style="fill:#636;fill-opacity:1;stroke:#000;stroke-width:.0793829;stroke-linecap:butt;stroke-linejoin:miter;stroke-miterlimit:4;stroke-dasharray:none;stroke-opacity:1"></path><path d="M86.19 165.54h.518v15.147h-.518z" style="fill:#636;fill-opacity:1;stroke:#000;stroke-width:.159061;stroke-linecap:butt;stroke-linejoin:miter;stroke-miterlimit:4;stroke-dasharray:none;stroke-opacity:1;paint-order:stroke fill markers"></path><path d="m86.66 173.856.253-.36 2.881 4.115-.492.018zm.036-1.438.316.31 2.772-4.589-.492-.018z" style="fill:#636;fill-opacity:1;stroke:#000;stroke-width:.0793829;stroke-linecap:butt;stroke-linejoin:miter;stroke-miterlimit:4;stroke-dasharray:none;stroke-opacity:1"></path><path d="M88.675 166.234c2.3 1.898 2.55 4.763 2.55 6.874m-2.55 6.874c2.3-1.898 2.55-4.763 2.55-6.874" style="fill:none;stroke:#000;stroke-width:.0793829;stroke-linecap:butt;stroke-linejoin:miter;stroke-miterlimit:4;stroke-dasharray:none;stroke-opacity:1"></path><path d="M86.36 171.702a.878 1.338 0 0 0-.878 1.339.878 1.338 0 0 0 .878 1.338.878 1.338 0 0 0 .878-1.338.878 1.338 0 0 0-.878-1.339zm.08.578a.448.77 0 0 1 .007 0 .448.77 0 0 1 .449.769.448.77 0 0 1-.449.77.448.77 0 0 1-.448-.77.448.77 0 0 1 .44-.77z" style="fill:#636;fill-opacity:1;stroke:#000;stroke-width:.158766;stroke-linecap:butt;stroke-linejoin:miter;stroke-miterlimit:4;stroke-dasharray:none;stroke-opacity:1;paint-order:stroke fill markers"></path><ellipse cx="86.452" cy="173.053" rx=".376" ry=".696" style="fill:#636;fill-opacity:1;stroke:none;stroke-width:.00457634;stroke-linecap:round;stroke-linejoin:round;stroke-miterlimit:4;stroke-dasharray:none;paint-order:stroke fill markers"></ellipse><path d="M81.306 168.554h1.947l-.62-1.483h-2.019z" style="fill:#636;fill-opacity:1;stroke:#2d2d2d;stroke-width:.0793829;stroke-linecap:butt;stroke-linejoin:miter;stroke-miterlimit:4;stroke-dasharray:none;stroke-opacity:1"></path><path d="M81.218 177.809h2.098l-.33 1.234h-2.099zm-.924-5.08h2.098l-.588 1.26h-2.098z" style="fill:#636;fill-opacity:1;stroke:#000;stroke-width:.0793829;stroke-linecap:butt;stroke-linejoin:miter;stroke-miterlimit:4;stroke-dasharray:none;stroke-opacity:1"></path><path d="M85.91 165.599a5.6 5.6 0 0 1 1.301-.474" style="fill:none;stroke:#000;stroke-width:.0793829;stroke-linecap:butt;stroke-linejoin:miter;stroke-miterlimit:4;stroke-dasharray:none;stroke-opacity:1"></path><path d="M77.606 182.364c.09-.053.459-.267.547-.313 3.41-1.775 5.605 1.537 8.235 1.647 2.609 0 4.694-2.222 7.18-2.222 2.238 0 3.566 2.222 6.432 2.222" style="fill:none;stroke:#000;stroke-width:1.5;stroke-linecap:butt;stroke-linejoin:miter;stroke-miterlimit:4;stroke-dasharray:none;stroke-opacity:1"></path><path d="M85.774 180.595c.387.201 1.021.46 1.437.55" style="fill:none;stroke:#000;stroke-width:.0793829;stroke-linecap:butt;stroke-linejoin:miter;stroke-miterlimit:4;stroke-dasharray:none;stroke-opacity:1"></path><path d="m105.741 173.88-1.228-.63-.3-.846h2.326zm-1.351-5.443-1.228-.63-.3-.846h2.326zm.12 9.996-.894-.264-.301-.845h2.326zm-4.382-4.511-.222-.38-3.206 3.869c.163.02.35.247.332.245zm-.258-1.8-.222.38-3.205-3.868.488-.058zm.83 8.674h-2.244l.715 1.476h2.327zm-1.447-15.468h2.245l-.715-1.476h-2.327z" style="fill:#636;fill-opacity:1;stroke:#000;stroke-width:.0793829;stroke-linecap:butt;stroke-linejoin:miter;stroke-miterlimit:4;stroke-dasharray:none;stroke-opacity:1"></path><path d="M100 164.544c-3.154.007-5.708 3.852-5.708 8.592 0 4.745 2.56 8.592 5.717 8.592s5.717-3.847 5.717-8.592-2.56-8.592-5.717-8.592zm1.112.558c-.594-.457-.553.28-.556.934 2.24 1.596 3.181 4.034 3.181 7.099 0 2.99-.896 5.384-3.02 6.98-.489.369-.741.453-.98.542-.276-.094.24.133 0 0l-.089-.049c-2.78-1.597-3.315-5.534-3.315-7.474 0-2.24.714-7.146 4.779-8.032m-.556.934c-.012-.008.246-.078.234-.087-.414-2.26-1.185-.6-1.5-.786z" style="fill:#636;fill-opacity:1;stroke:#000;stroke-width:.158766;stroke-linecap:round;stroke-linejoin:round;stroke-miterlimit:4;stroke-dasharray:none;stroke-opacity:1;paint-order:stroke fill markers"></path><path d="M96.369 172.82v.513h8.292l-.295-.512z" style="fill:#636;fill-opacity:1;stroke:#000;stroke-width:.0793829;stroke-linecap:butt;stroke-linejoin:miter;stroke-miterlimit:4;stroke-dasharray:none;stroke-opacity:1"></path><path d="M100.125 165.54h.518v15.147h-.518z" style="fill:#636;fill-opacity:1;stroke:#000;stroke-width:.159061;stroke-linecap:butt;stroke-linejoin:miter;stroke-miterlimit:4;stroke-dasharray:none;stroke-opacity:1;paint-order:stroke fill markers"></path><path d="m100.596 173.856.253-.36 2.881 4.115-.492.018zm.036-1.438.315.31 2.772-4.589-.492-.018z" style="fill:#636;fill-opacity:1;stroke:#000;stroke-width:.0793829;stroke-linecap:butt;stroke-linejoin:miter;stroke-miterlimit:4;stroke-dasharray:none;stroke-opacity:1"></path><path d="M102.61 166.234c2.301 1.898 2.55 4.763 2.55 6.874m-2.55 6.874c2.301-1.898 2.55-4.763 2.55-6.874" style="fill:none;stroke:#000;stroke-width:.0793829;stroke-linecap:butt;stroke-linejoin:miter;stroke-miterlimit:4;stroke-dasharray:none;stroke-opacity:1"></path><path d="M100.296 171.702a.878 1.338 0 0 0-.878 1.339.878 1.338 0 0 0 .878 1.338.878 1.338 0 0 0 .878-1.338.878 1.338 0 0 0-.878-1.339zm.08.578a.448.77 0 0 1 .007 0 .448.77 0 0 1 .448.769.448.77 0 0 1-.448.77.448.77 0 0 1-.449-.77.448.77 0 0 1 .441-.77z" style="fill:#636;fill-opacity:1;stroke:#000;stroke-width:.158766;stroke-linecap:butt;stroke-linejoin:miter;stroke-miterlimit:4;stroke-dasharray:none;stroke-opacity:1;paint-order:stroke fill markers"></path><ellipse cx="100.387" cy="173.053" rx=".376" ry=".696" style="fill:#636;fill-opacity:1;stroke:none;stroke-width:.00457634;stroke-linecap:round;stroke-linejoin:round;stroke-miterlimit:4;stroke-dasharray:none;paint-order:stroke fill markers"></ellipse><path d="M95.242 168.554h1.947l-.62-1.483H94.55z" style="fill:#636;fill-opacity:1;stroke:#2d2d2d;stroke-width:.0793829;stroke-linecap:butt;stroke-linejoin:miter;stroke-miterlimit:4;stroke-dasharray:none;stroke-opacity:1"></path><path d="M95.154 177.809h2.098l-.33 1.234h-2.1zm-.924-5.08h2.098l-.588 1.26h-2.098Z" style="fill:#636;fill-opacity:1;stroke:#000;stroke-width:.0793829;stroke-linecap:butt;stroke-linejoin:miter;stroke-miterlimit:4;stroke-dasharray:none;stroke-opacity:1"></path><path d="M99.845 165.599a5.6 5.6 0 0 1 1.302-.474m-1.437 15.47c.387.201 1.021.46 1.437.55" style="fill:none;stroke:#000;stroke-width:.0793829;stroke-linecap:butt;stroke-linejoin:miter;stroke-miterlimit:4;stroke-dasharray:none;stroke-opacity:1"></path><path d="M77.606 182.364c.09-.053.459-.267.547-.313 3.41-1.775 5.605 1.537 8.235 1.647 2.609 0 4.694-2.222 7.18-2.222 2.238 0 3.566 2.222 6.432 2.222" style="fill:none;stroke:#ababab;stroke-width:1.2;stroke-linecap:butt;stroke-linejoin:miter;stroke-miterlimit:4;stroke-dasharray:none;stroke-opacity:1"></path><path d="m1167.5 888-145.8-448.8 381.8-277.4H931.6L785.7-287 639.9 161.8H168l381.2 277L404 888l381.7-277.4z" style="fill:#ababab;fill-opacity:1;stroke:#000;stroke-width:22.4636;stroke-miterlimit:4;stroke-dasharray:none;stroke-opacity:1" transform="translate(91.569 151.32)scale(.01073)"></path><path d="M100 146.05h23.6c0 7.772-.247 27.967-.247 27.967.247 20.716-15.968 25.148-23.354 25.148z" style="fill:#636;fill-opacity:1;stroke:none;stroke-width:1;stroke-linecap:butt;stroke-linejoin:miter;stroke-miterlimit:4;stroke-dasharray:none;stroke-opacity:1"></path><path d="M80.135 188.416c.116.004.396.063.51.076 2.115.252 3.812 2.059 5.743 2.14 2.609 0 4.694-2.222 7.18-2.222 2.238 0 3.566 2.222 6.432 2.222" style="fill:none;stroke:#ababab;stroke-width:1.2;stroke-linecap:butt;stroke-linejoin:miter;stroke-miterlimit:4;stroke-dasharray:none;stroke-opacity:1"></path><path d="M84.114 152.26c.489.025.738.142.852.61-.048-.007 0 0-.138-.014.35 1.109.267 1.27.401 1.905-.9.058-1.339.158-2.7.174.055-.067.131-.12.11-.247-.275.096-.62.287-.758.041.291-.05.152-.53.579-.992-.02-.227-.158-.21-.29-.206-.21.2-.547.62-1.129.29.054-.046.125-.071.124-.18-.303-.032-.634-.002-.868-.192.088-.046.211-.086.166-.152-.354-.14-.703-.256-.771-.468.22-.138.813-.59.372-.66.14-.255.478-.35.785-.469-.008-.04-.012-.081-.193-.124.445-.35.895-.165 1.078-.057.108.064.255-.026.282-.133.05-.2-.317-.244-.446-.429-.287-.414-.403-.46-.501-.428.045-.197.25-.27.702-.247l-.179-.18c.383-.176.598.098.881.055l-.165-.22c.823-.09 1.114 1.078 1.408.814.088-.08-.237-.594-.237-.594.527-.003.513.258.716.414.069-.137.051-.09.069-.137.166.24.286.483.234.73.124-.097.058-.023.124-.097.038.374-.1.506-.24.716.328-.115.613-.252.876.13.28-.861.913-2.267-.314-2.047.102-.27.19-.425.352-.408.136.016.201-.064.256-.184 1.315.666.047 1.95.165 3.002.19-.514.734-.6 1.218-.497l.387.453c-1.74-.685-1.395.86-1.485 1.767l-.333-.11s-.033-1.812-.723-1.89c-.253-.029-.667.262-.667.262z" style="fill:#006033;fill-opacity:1;stroke:#000;stroke-width:.1;stroke-linecap:butt;stroke-linejoin:miter;stroke-miterlimit:4;stroke-dasharray:none;stroke-opacity:1"></path><path d="M80.5 152.805c1.386-.125 1.352-.573 2.393-.566" style="fill:none;stroke:#000;stroke-width:.1;stroke-linecap:butt;stroke-linejoin:miter;stroke-miterlimit:4;stroke-dasharray:none;stroke-opacity:1"></path><path d="M80.925 153.248c.466-.178.685-.497.906-.782m-.931-.432c.846-.012 1.33-.028 1.55.256m-.524-1.734c.525.406.585.53 1.12 1.352m-.029-.968c.254.318-.023.609.03.968m.896-.778c-.36.157.095.761-.496.795m-.723 2.149c-.036-.555.467-.27.533-1.471m.133-.153c.523-.09.716.266.85.603m-.694.149c.026-.114.042-.18-.002-.33a.5.5 0 0 0-.287-.27m-.211-.694c.106.257.1.161.15.242" style="fill:none;stroke:#000;stroke-width:.1;stroke-linecap:butt;stroke-linejoin:miter;stroke-miterlimit:4;stroke-dasharray:none;stroke-opacity:1"></path><path d="M83.478 151.922c-.13.006-.198.153-.282.228m.225.295c-.194.036-.169-.184-.225-.295" style="fill:none;stroke:#000;stroke-width:.1;stroke-linecap:butt;stroke-linejoin:miter;stroke-miterlimit:4;stroke-dasharray:none;stroke-opacity:1"></path><path d="M83.254 152.645c.015-.195-.038-.344-.058-.495m-.356.089.914-.019" style="fill:none;stroke:#000;stroke-width:.1;stroke-linecap:butt;stroke-linejoin:miter;stroke-miterlimit:4;stroke-dasharray:none;stroke-opacity:1"></path><path d="M86.935 151.78c-.19-.127-.3-.343-.261-.717.066.075 0 0 .124.097-.052-.247.068-.489.234-.73.018.047 0 0 .069.138.202-.156.189-.418.716-.415 0 0-.325.515-.237.594.294.264.584-.903 1.408-.813l-.166.22c.284.042.499-.231.882-.055l-.18.18c.453-.023.658.05.703.247-.098-.033-.214.014-.502.428-.128.185-.495.229-.445.428.027.107.174.197.281.134.184-.109.634-.294 1.079.057-.181.042-.185.083-.193.124.307.12.645.214.785.468-.44.07.152.523.372.66-.068.213-.417.328-.771.469-.046.066.078.106.165.151-.233.191-.564.16-.867.193 0 .108.07.134.124.179-.582.331-.92-.09-1.13-.29-.131-.004-.269-.02-.289.207.427.461.288.941.579.992-.138.246-.484.055-.758-.042-.021.127.054.18.11.248-1.361-.017-1.8-.116-2.7-.174.133-.635.052-.796.4-1.906-.137.014-.09.007-.137.014.114-.467.504-.61.992-.634" style="fill:#006033;fill-opacity:1;stroke:#000;stroke-width:.1;stroke-linecap:butt;stroke-linejoin:miter;stroke-miterlimit:4;stroke-dasharray:none;stroke-opacity:1"></path><path d="M90.796 152.802c-1.387-.125-1.353-.573-2.393-.567" style="fill:none;stroke:#000;stroke-width:.1;stroke-linecap:butt;stroke-linejoin:miter;stroke-miterlimit:4;stroke-dasharray:none;stroke-opacity:1"></path><path d="M90.37 153.244c-.465-.178-.685-.497-.905-.781m.931-.433c-.846-.012-1.33-.028-1.55.257m.524-1.734c-.525.406-.585.53-1.12 1.352m.029-.968c-.254.317.022.609-.03.968m-.896-.778c.36.157-.095.76.496.794m.723 2.149c.035-.555-.467-.27-.533-1.47m-.132-.154c-.524-.09-.717.267-.852.604m.695.149c-.026-.114-.043-.18.002-.33a.5.5 0 0 1 .287-.27" style="fill:none;stroke:#000;stroke-width:.1;stroke-linecap:butt;stroke-linejoin:miter;stroke-miterlimit:4;stroke-dasharray:none;stroke-opacity:1"></path><path fill="#fff" fill-rule="evenodd" stroke="#fff" stroke-miterlimit="2.613" stroke-width=".083" d="m83.24 154.164-.016-.076.015-.077.016-.076.015-.061.015-.077.046-.061.03-.062.047-.061.046-.046.061-.061.061-.03.062-.047.06-.03.077-.03.077-.016h.076l.077-.015.076.015.061.015.077.015.076.016.062.046.06.03.062.046.046.046.046.061.046.062.046.06.03.062.016.076.03.077v.23l-.015.061-.015.076-.031.077-.03.061-.031.062-.046.06-.046.047-.061.046-.061.046-.062.046-.06.03-.077.015-.077.03h-.23l-.076-.014-.061-.016-.077-.03-.061-.03-.061-.032-.062-.046-.045-.045-.062-.062-.03-.06-.046-.062-.03-.061-.031-.077-.016-.076z" clip-rule="evenodd" style="stroke-width:.105059;stroke-miterlimit:2.61;stroke-dasharray:none"></path><path fill="none" stroke="#000" stroke-miterlimit="2.613" stroke-width=".083" d="M83.24 154.164v-.153l.03-.137.061-.138.077-.123.107-.107.122-.076.138-.061.153-.031.153.015.138.03.138.047.122.092.107.107.077.122.06.138.016.138v.168l-.03.138-.062.137-.076.123-.107.092-.123.091-.137.046-.154.03h-.153l-.137-.03-.138-.061-.123-.077-.091-.107-.092-.122-.046-.138-.03-.153" style="stroke-width:.105059;stroke-miterlimit:2.61;stroke-dasharray:none"></path><path fill="#fff" fill-rule="evenodd" stroke="#fff" stroke-miterlimit="2.613" stroke-width=".083" d="M86.591 154.134v-.153l.015-.077.016-.076.03-.062.031-.076.03-.061.047-.046.045-.061.062-.046.06-.046.062-.031.061-.03.077-.031.076-.016.077-.015h.153l.077.015.06.016.077.03.061.031.062.046.061.046.046.045.061.046.03.062.047.061.03.077.03.061.016.076v.077l.015.077-.015.076v.077l-.03.076-.016.061-.046.062-.03.076-.046.046-.046.061-.061.046-.062.046-.06.03-.062.031-.077.031-.076.015-.077.016h-.153l-.06-.016-.077-.015-.077-.03-.061-.031-.061-.046-.062-.046-.045-.046-.046-.046-.046-.06-.046-.062-.03-.077-.016-.06-.03-.078z" clip-rule="evenodd" style="stroke-width:.105059;stroke-miterlimit:2.61;stroke-dasharray:none"></path><path fill="none" stroke="#000" stroke-miterlimit="2.613" stroke-width=".083" d="M86.591 154.134v-.153l.03-.153.062-.138.076-.107.108-.107.122-.077.138-.06.153-.031h.153l.138.03.137.061.123.077.107.107.076.122.062.138.03.153-.015.153-.03.153-.047.123-.091.122-.107.107-.123.077-.138.06-.137.032h-.154l-.153-.046-.137-.046-.123-.092-.092-.092-.091-.122-.046-.138-.03-.153" style="stroke-width:.105059;stroke-miterlimit:2.61;stroke-dasharray:none"></path><path fill="#fff" fill-rule="evenodd" stroke="#fff" stroke-miterlimit="2.613" stroke-width=".083" d="m82.734 154.93-.015-.077.015-.076.016-.077.015-.076.015-.062.046-.076.03-.062.047-.06.046-.047.06-.046.062-.046.061-.045.062-.03.076-.016.077-.015.076-.016h.153l.062.016.076.015.077.03.06.031.062.03.061.047.046.061.046.046.046.061.046.061.03.062.016.076.03.077v.23l-.015.076-.015.076-.03.062-.032.06-.03.062-.046.061-.046.062-.061.046-.061.046-.062.03-.06.031-.077.03-.077.016-.076.015h-.077l-.076-.015h-.077l-.06-.03-.077-.016-.062-.03-.06-.047-.062-.046-.046-.046-.061-.06-.03-.047-.047-.076-.03-.061-.03-.077-.016-.061z" clip-rule="evenodd" style="stroke-width:.105059;stroke-miterlimit:2.61;stroke-dasharray:none"></path><path fill="none" stroke="#000" stroke-miterlimit="2.613" stroke-width=".083" d="M82.734 154.914v-.153l.031-.137.061-.138.077-.123.107-.091.122-.092.138-.046.153-.03h.153l.138.03.137.061.123.077.107.107.077.122.06.138.016.153v.153l-.03.138-.062.138-.076.122-.107.107-.123.077-.138.061-.153.015h-.153l-.137-.03-.138-.061-.122-.077-.092-.107-.092-.123-.046-.137-.03-.153" style="stroke-width:.105059;stroke-miterlimit:2.61;stroke-dasharray:none"></path><path fill="#fff" fill-rule="evenodd" stroke="#fff" stroke-miterlimit="2.613" stroke-width=".083" d="M83.163 155.91v-.154l.015-.061.015-.077.031-.076.03-.062.031-.061.046-.062.061-.045.046-.046.062-.046.061-.046.061-.03.077-.016.076-.03h.23l.076.015.061.015.077.03.061.031.061.03.062.047.06.046.047.06.046.062.03.061.03.062.031.076.016.077.015.076v.077l-.015.076v.077l-.03.06-.016.077-.03.062-.047.06-.046.062-.046.046-.06.061-.047.031-.076.046-.061.03-.077.031-.061.016h-.077l-.092.015-.06-.015h-.077l-.077-.031-.061-.015-.077-.046-.06-.03-.062-.047-.046-.046-.046-.061-.046-.061-.046-.062-.03-.061-.016-.077-.015-.076z" clip-rule="evenodd" style="stroke-width:.105059;stroke-miterlimit:2.61;stroke-dasharray:none"></path><path fill="none" stroke="#000" stroke-miterlimit="2.613" stroke-width=".083" d="M83.163 155.91v-.154l.03-.138.062-.137.076-.123.107-.092.123-.091.138-.046.153-.031h.153l.153.03.122.062.123.076.107.107.076.123.061.138.031.153v.153l-.03.137-.062.138-.092.123-.091.107-.123.076-.138.046-.153.03h-.153l-.153-.03-.138-.061-.107-.077-.107-.107-.076-.122-.062-.138-.03-.153" style="stroke-width:.105059;stroke-miterlimit:2.61;stroke-dasharray:none"></path><path fill="#fff" fill-rule="evenodd" stroke="#fff" stroke-miterlimit="2.613" stroke-width=".083" d="M87.142 154.807v-.153l.015-.076.031-.062.015-.076.03-.061.047-.062.046-.061.046-.046.06-.061.047-.031.06-.046.078-.03.076-.031.061-.016h.077l.076-.015.077.015h.076l.077.031.061.015.077.046.06.03.062.047.046.046.046.061.046.061.03.062.046.061.016.076.015.077.015.076v.153l-.015.062-.015.076-.031.077-.03.061-.047.061-.03.062-.061.046-.046.045-.061.046-.062.046-.076.03-.061.016-.077.03h-.23l-.076-.014-.077-.016-.06-.03-.062-.031-.061-.03-.062-.047-.06-.046-.047-.06-.046-.062-.03-.062-.03-.06-.032-.077-.015-.077z" clip-rule="evenodd" style="stroke-width:.105059;stroke-miterlimit:2.61;stroke-dasharray:none"></path><path fill="none" stroke="#000" stroke-miterlimit="2.613" stroke-width=".083" d="m87.142 154.807.015-.153.031-.138.046-.137.092-.123.107-.107.122-.076.138-.062.138-.03.168.015.138.03.138.046.122.092.092.107.092.123.046.137.03.138v.153l-.03.153-.061.138-.077.122-.107.092-.123.092-.137.046-.153.03h-.153l-.138-.03-.138-.061-.122-.077-.108-.107-.076-.122-.061-.138-.03-.153" style="stroke-width:.105059;stroke-miterlimit:2.61;stroke-dasharray:none"></path><path fill="#fff" fill-rule="evenodd" stroke="#fff" stroke-miterlimit="2.613" stroke-width=".083" d="M86.729 155.74v-.152l.015-.077.016-.061.03-.077.03-.061.031-.061.046-.062.046-.045.061-.062.062-.03.06-.046.062-.031.077-.03.076-.016h.077l.076-.015.077.015h.076l.061.03.077.016.061.046.061.03.062.046.046.046.06.062.031.06.046.062.03.061.031.077.016.076v.077l.015.077-.015.076v.061l-.03.077-.016.076-.046.062-.03.061-.046.061-.046.046-.062.046-.06.046-.062.046-.061.03-.077.016-.076.03h-.23l-.061-.015-.077-.015-.076-.03-.062-.032-.06-.03-.062-.046-.046-.046-.046-.061-.046-.062-.046-.061-.03-.062-.016-.076-.015-.077z" clip-rule="evenodd" style="stroke-width:.105059;stroke-miterlimit:2.61;stroke-dasharray:none"></path><path fill="none" stroke="#000" stroke-miterlimit="2.613" stroke-width=".083" d="M86.729 155.74v-.152l.03-.138.062-.138.076-.122.107-.107.123-.077.137-.061.153-.03.153.015.138.03.138.046.122.092.107.107.077.122.061.138.03.138-.015.153-.03.153-.046.138-.092.122-.107.092-.123.091-.137.046-.138.031h-.153l-.153-.03-.138-.062-.122-.077-.092-.107-.092-.122-.046-.138-.03-.153" style="stroke-width:.105059;stroke-miterlimit:2.61;stroke-dasharray:none"></path><path fill="#fff" fill-rule="evenodd" stroke="#fff" stroke-miterlimit="2.613" stroke-width=".083" d="M84.984 159.016v-.153l.015-.076.016-.077.03-.061.031-.077.03-.061.047-.046.046-.061.06-.046.062-.046.061-.03.061-.032.077-.03.076-.015.077-.016h.153l.076.016.062.015.076.03.061.031.062.046.06.046.047.046.06.046.031.061.046.062.031.076.015.061.03.077v.076l.016.077-.015.076-.015.077-.016.076-.03.061-.031.062-.03.076-.047.046-.046.061-.06.046-.062.046-.061.03-.062.032-.076.03-.077.015-.076.016h-.153l-.077-.016-.06-.015-.077-.03-.062-.031-.06-.046-.062-.046-.046-.046-.046-.046-.046-.061-.046-.061-.03-.077-.016-.061-.03-.077z" clip-rule="evenodd" style="stroke-width:.105059;stroke-miterlimit:2.61;stroke-dasharray:none"></path><path fill="none" stroke="#000" stroke-miterlimit="2.613" stroke-width=".083" d="M84.984 159.016v-.153l.03-.153.062-.138.076-.107.108-.107.122-.077.138-.06.153-.032h.153l.138.031.137.061.123.077.107.107.076.122.062.138.015.153v.153l-.03.153-.062.123-.076.122-.108.107-.122.077-.138.06-.153.032h-.153l-.137-.046-.138-.046-.123-.092-.091-.092-.092-.122-.046-.138-.03-.153" style="stroke-width:.105059;stroke-miterlimit:2.61;stroke-dasharray:none"></path><path fill="#fff" fill-rule="evenodd" stroke="#fff" stroke-miterlimit="2.613" stroke-width=".083" d="M84.357 157.853v-.153l.015-.077.015-.061.03-.076.031-.062.031-.061.046-.061.046-.046.061-.046.062-.046.06-.046.062-.03.077-.016.076-.03h.077l.076-.016.076.015.077.016.061.015.076.03.062.031.061.03.061.047.046.045.061.062.03.061.047.062.03.061.031.077.016.076v.077l.015.076-.015.077v.076l-.031.062-.015.076-.046.061-.031.062-.046.061-.046.046-.061.061-.061.03-.062.047-.06.03-.077.016-.077.03h-.076l-.076.016-.077-.016-.061-.015-.077-.015-.076-.031-.062-.03-.061-.031-.061-.046-.046-.046-.046-.062-.046-.06-.046-.062-.03-.062-.016-.076-.015-.077z" clip-rule="evenodd" style="stroke-width:.105059;stroke-miterlimit:2.61;stroke-dasharray:none"></path><path fill="none" stroke="#000" stroke-miterlimit="2.613" stroke-width=".083" d="M84.357 157.853v-.153l.03-.138.061-.138.077-.122.107-.107.122-.077.138-.06.153-.016h.153l.138.03.138.062.122.077.107.107.077.122.061.138.03.153-.015.153-.03.138-.046.137-.092.123-.107.092-.123.091-.137.046-.138.031h-.153l-.153-.03-.138-.062-.122-.076-.092-.107-.092-.123-.046-.138-.03-.153" style="stroke-width:.105059;stroke-miterlimit:2.61;stroke-dasharray:none"></path><circle cx="85.751" cy="158.97" r=".734" style="fill:#636;fill-opacity:1;stroke:#000;stroke-width:.2;stroke-linecap:round;stroke-miterlimit:4;stroke-dasharray:none;stroke-opacity:1;paint-order:stroke fill markers"></circle><path fill="#fff" fill-rule="evenodd" stroke="#fff" stroke-miterlimit="2.613" stroke-width=".083" d="M85.505 157.838v-.154l.015-.06.015-.077.03-.077.031-.061.046-.062.03-.061.062-.046.046-.046.061-.046.061-.046.077-.03.061-.016.077-.015.076-.015h.153l.077.015.076.015.062.03.06.032.062.03.061.046.062.046.045.061.046.061.03.062.032.061.03.077.015.076.016.077v.153l-.016.076-.015.061-.03.077-.031.061-.046.062-.046.06-.046.047-.046.061-.06.03-.062.047-.076.03-.062.031-.076.015h-.077l-.076.016-.077-.016h-.076l-.077-.03-.061-.015-.076-.046-.062-.03-.046-.047-.061-.046-.046-.06-.046-.062-.03-.062-.031-.061-.03-.076-.016-.077z" clip-rule="evenodd" style="stroke-width:.105059;stroke-miterlimit:2.61;stroke-dasharray:none"></path><path fill="none" stroke="#000" stroke-miterlimit="2.613" stroke-width=".083" d="M85.505 157.838v-.153l.03-.138.061-.138.092-.122.092-.092.122-.092.138-.046.153-.03h.153l.153.03.138.061.107.077.107.107.077.122.06.138.031.153v.153l-.03.137-.061.138-.092.123-.092.107-.122.076-.138.046-.153.03h-.153l-.153-.03-.138-.061-.107-.077-.107-.107-.077-.122-.06-.138-.031-.153" style="stroke-width:.105059;stroke-miterlimit:2.61;stroke-dasharray:none"></path><path fill="#fff" fill-rule="evenodd" stroke="#fff" stroke-miterlimit="2.613" stroke-width=".083" d="M85.918 156.75v-.152l.015-.077.015-.06.03-.078.032-.06.045-.062.046-.061.046-.046.046-.062.061-.03.062-.046.076-.03.061-.016.077-.03h.076l.077-.016.076.015.077.015.076.016.062.03.076.03.061.031.046.046.061.046.046.062.046.061.03.061.032.062.03.076.016.077.015.076v.153l-.015.077-.016.061-.03.077-.031.06-.046.062-.03.061-.062.046-.046.046-.061.046-.061.046-.077.03-.061.016-.076.03h-.077l-.076.016-.077-.015-.076-.016-.077-.015-.061-.03-.061-.031-.062-.03-.06-.047-.062-.046-.046-.061-.046-.061-.03-.062-.031-.061-.03-.077-.016-.076z" clip-rule="evenodd" style="stroke-width:.105059;stroke-miterlimit:2.61;stroke-dasharray:none"></path><path d="M76.398 146.05c0 7.772.248 27.967.248 27.967-.248 20.715 15.968 25.148 23.354 25.148s23.602-4.433 23.354-25.148c0 0 .248-20.195.248-27.967H100Z" style="fill:none;fill-opacity:1;stroke:#000;stroke-width:1.4;stroke-linecap:butt;stroke-linejoin:miter;stroke-miterlimit:4;stroke-dasharray:none;stroke-opacity:1"></path><path fill="none" stroke="#000" stroke-miterlimit="2.613" stroke-width=".083" d="m85.918 156.75.015-.152.03-.138.047-.138.092-.122.107-.107.122-.077.138-.061.138-.015h.153l.153.03.137.062.123.076.092.107.092.123.046.138.03.153v.153l-.03.137-.062.138-.076.123-.108.091-.122.092-.138.046-.153.03h-.153l-.137-.03-.138-.061-.123-.077-.107-.107-.076-.122-.061-.138-.031-.153" style="stroke-width:.105059;stroke-miterlimit:2.61;stroke-dasharray:none"></path><path fill="#fff" fill-rule="evenodd" stroke="#fff" stroke-miterlimit="2.613" stroke-width=".083" d="M83.928 156.75v-.152l.015-.077.016-.06.03-.078.031-.06.046-.062.046-.061.046-.062.046-.045.06-.046.062-.031.077-.03.06-.031.077-.016.077-.015h.076l.077.015h.076l.077.031.06.015.077.031.062.046.046.046.06.046.047.061.046.046.03.077.03.06.032.077.015.062.015.076v.153l-.015.077-.015.076-.031.062-.03.076-.047.062-.046.06-.046.047-.045.046-.062.046-.06.045-.077.031-.062.015-.076.016-.077.015h-.153l-.076-.015-.077-.016-.06-.03-.062-.03-.076-.032-.046-.045-.062-.062-.046-.046-.045-.06-.031-.062-.03-.062-.031-.076-.016-.077z" clip-rule="evenodd" style="stroke-width:.105059;stroke-miterlimit:2.61;stroke-dasharray:none"></path><path fill="none" stroke="#000" stroke-miterlimit="2.613" stroke-width=".083" d="M83.928 156.75v-.152l.046-.153.046-.122.092-.123.092-.107.122-.076.138-.062.153-.03h.153l.153.03.138.062.107.091.107.092.076.123.061.137.031.153v.153l-.03.153-.062.138-.076.107-.107.107-.123.077-.137.06-.154.031h-.153l-.153-.03-.122-.061-.122-.077-.108-.107-.076-.122-.061-.138-.031-.153" style="stroke-width:.105059;stroke-miterlimit:2.61;stroke-dasharray:none"></path><path fill="#fff" fill-rule="evenodd" stroke="#fff" stroke-miterlimit="2.613" stroke-width=".083" d="M84.096 153.935v-.153l.016-.062.03-.076.016-.077.03-.061.046-.061.046-.062.046-.046.061-.045.046-.046.077-.046.06-.03.077-.016.062-.03h.23l.076.015.076.015.062.03.076.031.061.03.061.047.046.046.046.061.046.061.03.062.046.06.016.077.015.077.016.076v.154l-.016.076-.015.061-.03.077-.031.061-.03.062-.047.061-.061.046-.046.061-.061.03-.062.047-.076.03-.061.031-.077.015h-.076l-.077.016-.076-.016-.077-.015-.076-.015-.061-.015-.062-.046-.061-.031-.061-.046-.062-.046-.046-.061-.045-.061-.031-.062-.03-.061-.031-.076-.016-.077z" clip-rule="evenodd" style="stroke-width:.105059;stroke-miterlimit:2.61;stroke-dasharray:none"></path><path fill="none" stroke="#000" stroke-miterlimit="2.613" stroke-width=".083" d="m84.096 153.935.016-.153.03-.138.046-.138.092-.122.107-.107.123-.077.137-.061.138-.015h.168l.138.03.138.061.122.077.092.107.092.123.046.137.03.153v.153l-.03.138-.061.138-.077.122-.107.092-.123.092-.137.046-.153.03h-.153l-.138-.03-.138-.061-.122-.077-.107-.107-.077-.122-.061-.138-.03-.153" style="stroke-width:.105059;stroke-miterlimit:2.61;stroke-dasharray:none"></path><path fill="#fff" fill-rule="evenodd" stroke="#fff" stroke-miterlimit="2.613" stroke-width=".083" d="M85.688 153.996v-.153l.015-.077.016-.076.03-.061.031-.062.03-.061.047-.061.06-.062.047-.046.061-.046.061-.03.061-.031.077-.03.077-.016.076-.015h.077l.076.015h.076l.062.03.076.016.061.03.062.046.06.046.062.046.046.062.046.045.03.077.031.061.03.077.016.061.015.077v.076l-.015.077v.076l-.03.077-.016.06-.03.077-.046.062-.046.06-.046.047-.062.046-.045.046-.077.03-.061.046-.077.016-.061.015-.076.015h-.153l-.077-.015-.076-.015-.062-.031-.076-.03-.061-.031-.061-.046-.046-.062-.046-.046-.046-.06-.046-.062-.03-.062-.016-.076-.015-.077z" clip-rule="evenodd" style="stroke-width:.105059;stroke-miterlimit:2.61;stroke-dasharray:none"></path><path fill="none" stroke="#000" stroke-miterlimit="2.613" stroke-width=".083" d="M85.688 153.996v-.153l.03-.153.062-.122.077-.123.107-.107.122-.076.138-.062.153-.03h.153l.153.03.122.062.122.091.108.092.076.123.061.137.031.153v.153l-.03.153-.062.138-.092.107-.091.107-.123.077-.138.061-.153.03h-.153l-.153-.03-.137-.061-.107-.077-.107-.107-.077-.122-.061-.138-.03-.153m1.315-.107-.015.184-.092.137-.137.123-.169.046" style="stroke-width:.105059;stroke-miterlimit:2.61;stroke-dasharray:none"></path><path fill="#fff" fill-rule="evenodd" stroke="#fff" stroke-miterlimit="2.613" stroke-width=".083" d="M86.178 154.715v-.153l.015-.076.015-.077.031-.061.03-.077.047-.06.046-.062.046-.046.045-.046.062-.046.06-.03.077-.047.062-.015.076-.015.077-.016h.153l.076.016.077.015.061.03.061.031.077.031.046.046.06.061.047.046.046.061.03.062.03.061.032.077.015.076.015.077v.153l-.015.076-.015.077-.031.06-.03.062-.047.062-.045.061-.046.061-.046.046-.062.046-.06.03-.077.031-.062.031-.076.015-.076.016h-.077l-.076-.016h-.077l-.076-.03-.062-.016-.076-.03-.061-.046-.046-.046-.061-.046-.046-.061-.046-.046-.03-.077-.031-.06-.031-.077-.015-.062z" clip-rule="evenodd" style="stroke-width:.105059;stroke-miterlimit:2.61;stroke-dasharray:none"></path><path fill="none" stroke="#000" stroke-miterlimit="2.613" stroke-width=".083" d="M86.178 154.7v-.153l.03-.138.062-.138.092-.122.092-.092.122-.092.138-.046.153-.03h.153l.153.03.138.062.107.077.107.107.076.122.062.138.03.153v.153l-.03.138-.062.137-.076.123-.107.107-.123.076-.138.062-.153.03-.153-.015-.152-.03-.123-.062-.122-.076-.108-.107-.076-.123-.061-.137-.03-.153" style="stroke-width:.105059;stroke-miterlimit:2.61;stroke-dasharray:none"></path><path fill="#fff" fill-rule="evenodd" stroke="#fff" stroke-miterlimit="2.613" stroke-width=".083" d="M83.714 154.73v-.152l.015-.077.03-.061.016-.077.03-.061.047-.062.045-.06.046-.047.062-.061.046-.03.076-.047.061-.03.077-.015.061-.031h.077l.076-.015.077.015.076.015.077.016.06.03.077.03.061.032.062.045.046.046.045.062.046.061.03.061.047.062.015.076.015.077.016.076v.153l-.016.077-.015.061-.03.077-.031.061-.03.061-.047.062-.061.046-.046.045-.061.046-.061.046-.077.03-.061.016-.077.03h-.076l-.077.016-.076-.015-.077-.015-.076-.016-.061-.03-.061-.031-.062-.03-.061-.047-.061-.046-.046-.06-.046-.062-.03-.062-.031-.06-.031-.077-.015-.077z" clip-rule="evenodd" style="stroke-width:.105059;stroke-miterlimit:2.61;stroke-dasharray:none"></path><path fill="none" stroke="#000" stroke-miterlimit="2.613" stroke-width=".083" d="m83.714 154.73.015-.152.03-.138.047-.138.092-.122.107-.107.122-.077.138-.061.138-.015h.168l.138.03.137.062.123.076.092.107.092.123.046.137.03.153v.153l-.03.138-.062.138-.076.122-.107.092-.123.092-.137.046-.153.03h-.153l-.138-.03-.138-.062-.122-.076-.107-.107-.077-.123-.061-.137-.031-.153" style="stroke-width:.105059;stroke-miterlimit:2.61;stroke-dasharray:none"></path><path fill="#fff" fill-rule="evenodd" stroke="#fff" stroke-miterlimit="2.613" stroke-width=".083" d="m85 156.843-.016-.077.015-.076v-.077l.031-.061.016-.077.046-.061.03-.061.046-.062.046-.06.061-.047.061-.046.062-.03.06-.031.077-.03.077-.016.076-.015h.077l.076.015h.061l.077.03.076.016.062.03.06.047.062.046.046.045.046.062.046.046.046.076.03.061.016.077.03.061v.245l-.015.061-.015.077-.03.076-.031.062-.031.06-.046.062-.046.046-.061.046-.061.046-.062.046-.06.03-.077.016-.077.015-.076.015h-.153l-.077-.015-.061-.015-.077-.031-.061-.03-.061-.031-.061-.046-.046-.046-.061-.061-.031-.062-.046-.061-.03-.061-.031-.077-.016-.077z" clip-rule="evenodd" style="stroke-width:.105059;stroke-miterlimit:2.61;stroke-dasharray:none"></path><path fill="none" stroke="#000" stroke-miterlimit="2.613" stroke-width=".083" d="M85 156.843v-.153l.03-.153.062-.123.076-.122.107-.107.123-.077.137-.061.153-.03h.153l.138.045.138.046.122.092.092.107.092.122.046.138.03.138v.153l-.03.153-.061.138-.077.122-.107.092-.123.077-.137.061-.153.03h-.153l-.138-.03-.138-.061-.122-.077-.092-.107-.092-.122-.046-.138-.03-.153" style="stroke-width:.105059;stroke-miterlimit:2.61;stroke-dasharray:none"></path><path fill="#fff" fill-rule="evenodd" stroke="#fff" stroke-miterlimit="2.613" stroke-width=".083" d="M84.326 155.771v-.153l.015-.076.016-.077.03-.061.03-.077.031-.061.046-.046.046-.061.062-.046.06-.046.062-.03.061-.031.077-.03.076-.016.077-.015h.153l.076.015.061.015.077.03.061.032.062.045.06.03.062.062.046.046.046.061.03.062.031.076.03.061.016.077.015.076v.077l-.015.077v.076l-.03.077-.016.06-.03.062-.047.061-.045.062-.046.061-.062.046-.045.046-.077.03-.061.031-.077.03-.061.016-.076.015h-.169l-.061-.015-.076-.03-.077-.016-.061-.03-.062-.046-.06-.046-.047-.046-.046-.046-.046-.061-.045-.062-.03-.076-.016-.062-.015-.076z" clip-rule="evenodd" style="stroke-width:.105059;stroke-miterlimit:2.61;stroke-dasharray:none"></path><path fill="none" stroke="#000" stroke-miterlimit="2.613" stroke-width=".083" d="M84.326 155.771v-.153l.03-.153.062-.137.076-.123.107-.092.123-.092.138-.045.153-.031h.153l.153.03.122.062.123.076.107.107.076.123.062.138.03.153v.153l-.046.137-.046.138-.091.123-.092.107-.123.076-.137.061-.153.031-.154-.015-.153-.03-.137-.047-.107-.091-.108-.107-.076-.123-.061-.138-.031-.137" style="stroke-width:.105059;stroke-miterlimit:2.61;stroke-dasharray:none"></path><path fill="#fff" fill-rule="evenodd" stroke="#fff" stroke-miterlimit="2.613" stroke-width=".083" d="M85.719 155.771v-.153l.015-.076.015-.077.03-.061.032-.077.046-.061.03-.046.061-.061.046-.046.062-.046.06-.03.077-.031.061-.03.077-.016.076-.015h.153l.077.015.076.015.062.03.06.032.062.045.061.03.062.062.046.046.045.061.031.062.03.076.031.061.016.077.015.076v.153l-.015.077-.016.076-.03.062-.031.061-.046.061-.046.062-.046.061-.045.046-.062.046-.061.03-.076.031-.062.03-.076.016-.077.015h-.153l-.076-.015-.077-.03-.061-.016-.076-.03-.062-.047-.046-.046-.06-.046-.047-.045-.046-.062-.03-.061-.03-.077-.032-.06-.015-.078z" clip-rule="evenodd" style="stroke-width:.105059;stroke-miterlimit:2.61;stroke-dasharray:none"></path><path fill="none" stroke="#000" stroke-miterlimit="2.613" stroke-width=".083" d="M85.719 155.771v-.153l.03-.153.062-.137.091-.123.092-.092.123-.091.137-.046.153-.031h.153l.153.03.138.062.107.076.107.108.077.122.061.138.03.153v.153l-.03.137-.06.138-.093.122-.092.107-.122.077-.138.061-.153.03-.153-.015-.153-.03-.138-.046-.107-.092-.107-.107-.076-.122-.062-.138-.03-.138m1.178-.214-.015.184-.076.153-.138.107-.168.046" style="stroke-width:.105059;stroke-miterlimit:2.61;stroke-dasharray:none"></path><path fill="#fff" fill-rule="evenodd" stroke="#fff" stroke-miterlimit="2.613" stroke-width=".083" d="M84.969 154.67v-.154l.015-.06.015-.078.031-.076.03-.061.031-.062.046-.061.046-.046.061-.046.061-.046.062-.046.061-.03.077-.016.076-.015.076-.015h.154l.076.015.061.015.077.031.06.03.062.031.061.046.046.046.061.061.031.062.046.061.03.061.031.077.016.077.015.076v.077l-.015.076v.077l-.031.06-.015.077-.031.061-.046.062-.046.061-.046.046-.061.061-.061.031-.061.046-.062.03-.076.031-.062.015h-.091l-.077.016-.076-.016h-.062l-.076-.03-.077-.016-.06-.045-.062-.031-.061-.046-.046-.046-.046-.061-.046-.062-.046-.06-.03-.062-.016-.077-.015-.076z" clip-rule="evenodd" style="stroke-width:.105059;stroke-miterlimit:2.61;stroke-dasharray:none"></path><path d="m86.147 154.547-.03.168-.077.153-.138.107-.168.046" style="fill:#fff;fill-opacity:1;stroke:#000;stroke-width:.105059;stroke-miterlimit:2.61;stroke-dasharray:none;stroke-opacity:1"></path><path d="M84.969 154.67v-.154l.03-.137.062-.138.076-.123.107-.091.123-.092.137-.046.153-.03h.153l.153.03.123.061.122.077.107.107.077.122.061.138.03.153v.153l-.045.138-.046.137-.092.123-.107.107-.122.076-.138.062-.138.015h-.153l-.153-.03-.138-.062-.122-.077-.092-.107-.077-.122-.06-.138-.031-.153" style="fill:#fff;fill-opacity:1;stroke:#000;stroke-width:.105059;stroke-miterlimit:2.61;stroke-dasharray:none;stroke-opacity:1"></path><circle cx="87.347" cy="154.034" r=".734" style="fill:#636;fill-opacity:1;stroke:#000;stroke-width:.2;stroke-linecap:round;stroke-miterlimit:4;stroke-dasharray:none;stroke-opacity:1;paint-order:stroke fill markers"></circle><circle cx="83.991" cy="154.084" r=".734" style="fill:#636;fill-opacity:1;stroke:#000;stroke-width:.2;stroke-linecap:round;stroke-miterlimit:4;stroke-dasharray:none;stroke-opacity:1;paint-order:stroke fill markers"></circle><circle cx="85.099" cy="157.821" r=".734" style="fill:#636;fill-opacity:1;stroke:#000;stroke-width:.2;stroke-linecap:round;stroke-miterlimit:4;stroke-dasharray:none;stroke-opacity:1;paint-order:stroke fill markers"></circle><circle cx="86.264" cy="157.8" r=".734" style="fill:#636;fill-opacity:1;stroke:#000;stroke-width:.2;stroke-linecap:round;stroke-miterlimit:4;stroke-dasharray:none;stroke-opacity:1;paint-order:stroke fill markers"></circle><circle cx="84.661" cy="156.708" r=".734" style="fill:#636;fill-opacity:1;stroke:#000;stroke-width:.2;stroke-linecap:round;stroke-miterlimit:4;stroke-dasharray:none;stroke-opacity:1;paint-order:stroke fill markers"></circle><circle cx="86.705" cy="156.702" r=".734" style="fill:#636;fill-opacity:1;stroke:#000;stroke-width:.2;stroke-linecap:round;stroke-miterlimit:4;stroke-dasharray:none;stroke-opacity:1;paint-order:stroke fill markers"></circle><circle cx="85.745" cy="156.796" r=".734" style="fill:#636;fill-opacity:1;stroke:#000;stroke-width:.2;stroke-linecap:round;stroke-miterlimit:4;stroke-dasharray:none;stroke-opacity:1;paint-order:stroke fill markers"></circle><circle cx="83.458" cy="154.828" r=".734" style="fill:#636;fill-opacity:1;stroke:#000;stroke-width:.2;stroke-linecap:round;stroke-miterlimit:4;stroke-dasharray:none;stroke-opacity:1;paint-order:stroke fill markers"></circle><circle cx="83.908" cy="155.836" r=".734" style="fill:#636;fill-opacity:1;stroke:#000;stroke-width:.2;stroke-linecap:round;stroke-miterlimit:4;stroke-dasharray:none;stroke-opacity:1;paint-order:stroke fill markers"></circle><circle cx="84.862" cy="153.854" r=".734" style="fill:#636;fill-opacity:1;stroke:#000;stroke-width:.2;stroke-linecap:round;stroke-miterlimit:4;stroke-dasharray:none;stroke-opacity:1;paint-order:stroke fill markers"></circle><circle cx="84.475" cy="154.666" r=".734" style="fill:#636;fill-opacity:1;stroke:#000;stroke-width:.2;stroke-linecap:round;stroke-miterlimit:4;stroke-dasharray:none;stroke-opacity:1;paint-order:stroke fill markers"></circle><circle cx="87.928" cy="154.724" r=".734" style="fill:#636;fill-opacity:1;stroke:#000;stroke-width:.2;stroke-linecap:round;stroke-miterlimit:4;stroke-dasharray:none;stroke-opacity:1;paint-order:stroke fill markers"></circle><circle cx="87.51" cy="155.666" r=".734" style="fill:#636;fill-opacity:1;stroke:#000;stroke-width:.2;stroke-linecap:round;stroke-miterlimit:4;stroke-dasharray:none;stroke-opacity:1;paint-order:stroke fill markers"></circle><circle cx="85.083" cy="155.696" r=".734" style="fill:#636;fill-opacity:1;stroke:#000;stroke-width:.2;stroke-linecap:round;stroke-miterlimit:4;stroke-dasharray:none;stroke-opacity:1;paint-order:stroke fill markers"></circle><circle cx="86.472" cy="155.711" r=".734" style="fill:#636;fill-opacity:1;stroke:#000;stroke-width:.2;stroke-linecap:round;stroke-miterlimit:4;stroke-dasharray:none;stroke-opacity:1;paint-order:stroke fill markers"></circle><circle cx="86.449" cy="153.909" r=".734" style="fill:#636;fill-opacity:1;stroke:#000;stroke-width:.2;stroke-linecap:round;stroke-miterlimit:4;stroke-dasharray:none;stroke-opacity:1;paint-order:stroke fill markers"></circle><circle cx="86.951" cy="154.627" r=".734" style="fill:#636;fill-opacity:1;stroke:#000;stroke-width:.2;stroke-linecap:round;stroke-miterlimit:4;stroke-dasharray:none;stroke-opacity:1;paint-order:stroke fill markers"></circle><circle cx="85.726" cy="154.603" r=".734" style="fill:#636;fill-opacity:1;stroke:#000;stroke-width:.2;stroke-linecap:round;stroke-miterlimit:4;stroke-dasharray:none;stroke-opacity:1;paint-order:stroke fill markers"></circle><path d="M88.25 151.905c-.106.256-.1.16-.15.241m-.282-.228c.13.006.198.153.282.228" style="fill:none;stroke:#000;stroke-width:.1;stroke-linecap:butt;stroke-linejoin:miter;stroke-miterlimit:4;stroke-dasharray:none;stroke-opacity:1"></path><path d="M88.042 152.642c-.015-.195.037-.345.058-.496m.357.089-.916-.018" style="fill:none;stroke:#000;stroke-width:.1;stroke-linecap:butt;stroke-linejoin:miter;stroke-miterlimit:4;stroke-dasharray:none;stroke-opacity:1"></path><path d="M87.874 152.442c.194.035.17-.185.226-.296" style="fill:none;stroke:#000;stroke-width:.1;stroke-linecap:butt;stroke-linejoin:miter;stroke-miterlimit:4;stroke-dasharray:none;stroke-opacity:1"></path><path d="M76.398 146.05c0 7.772.248 27.967.248 27.967-.248 20.715 15.968 25.148 23.354 25.148s23.602-4.433 23.354-25.148c0 0 .248-20.195.248-27.967H100Z" style="fill:none;fill-opacity:1;stroke:#d1ad36;stroke-width:1;stroke-linecap:butt;stroke-linejoin:miter;stroke-miterlimit:4;stroke-dasharray:none;stroke-opacity:1"></path><path d="M112.507 154.186c-6.914-4.22-10.385 4.651-7.039 9.914 1.898 2.671 6.321 1.022 7.436-.93.171-.3.254-.58.128-.895-.676-.468-1.138.664-2.281 1.35-.67.4-1.571.65-2.885.334-.565-.218-1.008-.745-1.342-1.334-2.315-4.108.862-10.758 4.916-7.287.084.546-.08.952.418 1.138.429.138.558-1.699.65-2.29zm7.017 16.55c-4.17-2.545-7.045-.426-7.937 2.812-.587 2.131-.315 4.748 1.014 6.838 1.976 2.552 5.362 1.746 6.971.901v-3.945c-.506-1.243-1.423-.231-1.746.374 1.746 3.895-2.668 3.93-4.187 1.26-.943-1.674-.99-3.738-.442-5.36.798-2.359 2.858-3.785 5.26-1.728.083.546-.08.952.417 1.138.43.137.559-1.699.65-2.29z" style="fill:#fff;fill-opacity:1;stroke:#000;stroke-width:.15;stroke-linecap:butt;stroke-linejoin:miter;stroke-miterlimit:4;stroke-dasharray:none;stroke-opacity:1"></path><path d="M109.271 173.3c-1.418.195-1.11 1.499.513.76 2.8-.014 4.578.128 5.821-2.079 1.364-2.901 1.804-6.737-.148-9.167-1.837-1.914-6.643-.078-6.864.415-.118.263.187 1.098.678.562z" style="fill:#fff;fill-opacity:1;stroke:#000;stroke-width:.15;stroke-linecap:butt;stroke-linejoin:miter;stroke-miterlimit:4;stroke-dasharray:none;stroke-opacity:1"></path><path d="M112.635 163.386c-.593.017-1.254.172-1.958.29v8.838c.168.167.447.37 1.127.37.755 0 1.224.024 1.719 0 0 0 1.14-.278 1.594-3.238.283-1.249.287-2.776-.203-4.383-.493-1.55-1.29-1.905-2.279-1.877z" style="fill:#636;fill-opacity:1;stroke:#000;stroke-width:.15;stroke-linecap:butt;stroke-linejoin:miter;stroke-miterlimit:4;stroke-dasharray:none;stroke-opacity:1"></path><path d="M119.524 170.736c-3.877-2.366-6.635-.7-7.72 2.148h1.719c.953-1.865 2.81-2.815 4.933-.996.084.546-.08.952.418 1.138.43.137.559-1.699.65-2.29zm-8.84-5.762c.987-.437 1.818-1.1 2.22-1.804.171-.3.254-.58.128-.895-.676-.468-1.138.664-2.281 1.35l-.088.05c.014.48.014.862.02 1.3z" style="fill:#fff;fill-opacity:1;stroke:#000;stroke-width:.15;stroke-linecap:butt;stroke-linejoin:miter;stroke-miterlimit:4;stroke-dasharray:none;stroke-opacity:1"></path><path d="M100 146.611v52.005" style="fill:none;stroke:#000;stroke-width:1.4;stroke-linecap:butt;stroke-linejoin:miter;stroke-miterlimit:4;stroke-dasharray:none;stroke-opacity:1"></path><path d="M100 146.05v53.115" style="fill:none;stroke:#d1ad36;stroke-width:1;stroke-linecap:butt;stroke-linejoin:miter;stroke-miterlimit:4;stroke-dasharray:none;stroke-opacity:1"></path></g><!-- source: https://football-logos.cc --></svg>