<svg xmlns="http://www.w3.org/2000/svg" xml:space="preserve" viewBox="61.9 85.45 696.09 901.11"><!-- Source: https://football-logos.cc --><path d="M159.297 588.886 78.725 561.44v-66.678l80.568 28.259z" style="fill:#d3d2d2;fill-opacity:1;fill-rule:nonzero;stroke:none" transform="matrix(1.33333 0 0 -1.33333 0 1056)" data-source="https://football-logos.cc"></path><path d="m159.05 589.595-81.081-27.62v-68.274l82.082 28.79.002 67.446z" style="fill:#000;fill-opacity:1;fill-rule:nonzero;stroke:none" transform="matrix(1.33333 0 0 -1.33333 0 1056)"></path><path d="m158.54 574.04-79.06-26.99v-12.1l79.06 26.99zm.001 13.795-79.06-26.93v-12.27l79.058 26.99zm-.001-27.481-79.06-26.99v-12.476l79.06 26.988zm0-14.064-79.06-26.988v-12.194l79.057 26.989zm-79.06-40.768v-9.7l79.057 27.729v8.96z" style="fill:#ccc;fill-opacity:1;fill-rule:nonzero;stroke:none" transform="matrix(1.33333 0 0 -1.33333 0 1056)"></path><path d="m158.54 547.876-79.06-26.988v-1.586l79.06 26.988zm0 14.064-79.06-26.99v-1.586l79.06 26.99zm0 13.685-79.06-26.99v-1.585l79.06 26.99zm-.003-41.528L79.48 507.108v-1.586l79.057 26.989z" style="fill:#000;fill-opacity:1;fill-rule:nonzero;stroke:none" transform="matrix(1.33333 0 0 -1.33333 0 1056)"></path><path d="M91.373 509.839v-10h1.008v10zm25.547 9.334v-10h1.008v10zm23.867 8v-10h1.008v10zm9.074 16.999v-13h1.01v13zm-21.849-7.667v-13h1.01v13zm-23.53-8v-13h1.008v13zm-21.849-7.333v-13h1.008v13zm8.067 16.666v-13h1.009v13zm23.53 8v-13h1.008v13zm23.868 7.667v-13h1.007v13zm14.452 19.333v-13h1.01v13zm-25.21-9v-13h1.008v13zm-25.883-8.666v-13h1.008v13zm-15.799 8.333v-13h1.008v13zm27.229 9.333v-13h1.008v13zm23.193 7.667v-13h1.008v13z" style="fill:#000;fill-opacity:1;fill-rule:nonzero;stroke:none" transform="matrix(1.33333 0 0 -1.33333 0 1056)"></path><path d="m79.172 548.84 10.016 16.999v21.254h2.503l-12.52 16.998-12.52-16.998h2.503v-21.254z" style="fill:#d3d2d2;fill-opacity:1;fill-rule:nonzero;stroke:none" transform="matrix(1.33333 0 0 -1.33333 0 1056)"></path><path d="m78.568 604.536-13.401-18.193h3.237v-20.709l10.768-18.272 10.766 18.272v20.709h3.237l-14.003 19.012zm.604-1.709 11.036-14.983h-1.77v-21.8l-9.266-15.726-9.268 15.726v21.8h-1.77z" style="fill:#231f20;fill-opacity:1;fill-rule:nonzero;stroke:none" transform="matrix(1.33333 0 0 -1.33333 0 1056)"></path><path d="M84.928 574.56H73.416v12.294h11.512z" style="fill:#000;fill-opacity:1;fill-rule:nonzero;stroke:none" transform="matrix(1.33333 0 0 -1.33333 0 1056)"></path><path d="m451.623 588.886 80.572-27.446v-66.678l-80.568 28.259z" style="fill:#d3d2d2;fill-opacity:1;fill-rule:nonzero;stroke:none" transform="matrix(1.33333 0 0 -1.33333 0 1056)"></path><path d="m450.867 589.937.004-67.447 82.08-28.789v68.275l-81.08 27.619z" style="fill:#000;fill-opacity:1;fill-rule:nonzero;stroke:none" transform="matrix(1.33333 0 0 -1.33333 0 1056)"></path><path d="m452.38 574.04 79.06-26.99v-12.1l-79.06 26.99zm0 13.795 79.06-26.93v-12.27l-79.06 26.99zm.003-27.481 79.056-26.99v-12.476l-79.056 26.988zm0-14.064 79.056-26.988v-12.194l-79.056 26.989zm79.057-40.768v-9.7l-79.057 27.729v8.96z" style="fill:#ccc;fill-opacity:1;fill-rule:nonzero;stroke:none" transform="matrix(1.33333 0 0 -1.33333 0 1056)"></path><path d="m452.383 547.876 79.056-26.988v-1.586l-79.056 26.988zm-.003 14.064 79.06-26.99v-1.586l-79.057 26.99q0 .795-.002 1.585m-.001 13.686 79.06-26.99v-1.585l-79.06 26.99zm.003-41.528 79.056-26.989v-1.586l-79.056 26.989z" style="fill:#000;fill-opacity:1;fill-rule:nonzero;stroke:none" transform="matrix(1.33333 0 0 -1.33333 0 1056)"></path><path d="M519.549 509.839v-10h-1.01v10zM494 519.173v-10h-1.008v10zm-23.865 8v-10h-1.008v10zm-9.076 16.999v-13h-1.008v13zm21.849-7.667v-13h-1.01v13zm23.532-8v-13h-1.01v13zm21.847-7.333v-13h-1.008v13zm-8.067 16.666v-13h-1.01v13zm-23.53 8v-13h-1.008v13zm-23.868 7.667v-13h-1.008v13zm-14.452 19.333v-13h-1.009v13zm25.21-9v-13h-1.008v13zm25.883-8.666v-13h-1.008v13zm15.799 8.333v-13h-1.008v13zm-27.229 9.333v-13h-1.008v13zm-23.193 7.667v-13h-1.008v13z" style="fill:#000;fill-opacity:1;fill-rule:nonzero;stroke:none" transform="matrix(1.33333 0 0 -1.33333 0 1056)"></path><path d="m531.748 548.84-10.014 16.999v21.254h-2.505l12.519 16.998 12.522-16.998h-2.504v-21.254z" style="fill:#d3d2d2;fill-opacity:1;fill-rule:nonzero;stroke:none" transform="matrix(1.33333 0 0 -1.33333 0 1056)"></path><path d="m531.145 604.536-13.4-18.193h3.24v-20.709l10.763-18.272 10.768 18.272v20.709h3.238l-14.006 19.012zm.603-1.709 11.037-14.983h-1.77v-21.8l-9.267-15.726c-1.118 1.899-9.073 15.404-9.264 15.726v21.8h-1.772z" style="fill:#231f20;fill-opacity:1;fill-rule:nonzero;stroke:none" transform="matrix(1.33333 0 0 -1.33333 0 1056)"></path><path d="M525.992 574.56h11.514v12.294h-11.514z" style="fill:#000;fill-opacity:1;fill-rule:nonzero;stroke:none" transform="matrix(1.33333 0 0 -1.33333 0 1056)"></path><path d="m436.738 724.985-8.314-18.297V690.7h-14.067v16.031l-12.601 18.92-14.12-18.905V690.7H374.16v16.03l-12.613 18.95-12.924-18.946V690.7h-12.588v34.08l-.955.222-9.21-18.304V690.7h-8.157v16.331l-12.25 18.665-12.256-18.665V690.7h-8.158v15.998l-9.207 18.304-.955-.223V690.7h-12.59v16.035l-12.926 18.945-12.611-18.949V690.7h-13.477v16.046l-14.12 18.905-12.597-18.92V690.7h-14.07v15.988l-8.795 19.345-8.172-19.352V690.7h-11.404v16.078l-12.326 13.041-11.735-12.358v-63.2l21.278-36.094v-87.724h308.236v87.724l21.28 36.094v62.463l-11.573 18.446-12.49-18.437V690.7H445.39v15.981l-8.176 19.352z" style="fill:#d3d2d2;fill-opacity:1;fill-rule:nonzero;stroke:none" transform="matrix(1.33333 0 0 -1.33333 0 1056)"></path><path d="m173.004 726.323-8.23-19.491V691.45h-9.893v15.625l-13.08 13.84-12.492-13.156v-63.702l21.277-36.093v-88.27h309.748v88.27l21.28 36.094v62.88l-12.303 19.613-13.274-19.59V691.45h-9.89v15.382l-8.907 21.082-9.572-21.065v-15.4h-12.555v15.507l-13.322 20.003-14.91-19.966V691.45h-11.963v15.506l-13.363 20.073-13.688-20.065V691.45h-11.076v33.923l-2.121.496-9.557-18.994V691.45h-6.642v15.804l-13.008 19.816-13.012-19.816V691.45h-6.646v15.425l-9.555 18.994-2.121-.496V691.45h-11.074v15.514l-13.692 20.065-13.36-20.073V691.45H224.04v15.543l-14.912 19.966-13.318-20.003V691.45h-12.555v15.4l-9.578 21.065z" style="fill:#231f20;fill-opacity:1;fill-rule:nonzero;stroke:none" transform="matrix(1.33333 0 0 -1.33333 0 1056)"></path><path d="M148.145 615.078h314.63l6.121 10.38h-326.87c2.197-3.73 4.36-7.4 6.119-10.38m3.953-6.708v-5.172H458.82v5.172s1.225 2.072 3.07 5.208H149.028c1.85-3.136 3.07-5.208 3.07-5.208m-10.958 18.588h328.64c2.18 3.697 4.341 7.364 6.12 10.379H135.021zm-10.32 23.758h349.282v10.38H130.82zm0-6.253c.051-.085 1.368-2.317 3.317-5.626h342.646l3.319 5.627v4.752H130.82zm21.278-53.143H458.82v10.378H152.098zm0-47.518H458.82v10.379H152.098zM130.82 662.595h349.282v10.38H130.82zm21.278-130.673H458.82v10.38H152.098zm0 47.518H458.82v10.38H152.098zm0-58.247H458.82v9.229H152.098zm0 34.487H458.82v10.38H152.098zm0 11.88H458.82v10.38H152.098zM130.82 674.475h349.282v10.379H130.82zm349.282 32.035-10.84 17.28-11.711-17.286V689.95h-12.918v16.58l-7.444 17.622c-.445-.981-7.88-17.344-8.01-17.625V689.95H413.6v16.556l-11.88 17.837-13.326-17.845V689.95h-14.989v16.555L361.54 724.33l-12.16-17.826V689.95h-14.1v33.768l-8.654-17.197V689.95h-9.668v16.859l-11.494 17.512-11.5-17.512v-16.86h-9.67v16.572l-8.65 17.197V689.95H261.54v16.554c-.242.354-11.025 16.162-12.162 17.825l-11.863-17.824V689.95h-14.989v16.548l-13.33 17.846c-1.068-1.608-11.642-17.488-11.875-17.839V689.95H181.74v16.577c-.12.265-6.816 14.992-8.011 17.625-1.125-2.66-7.336-17.37-7.444-17.622v-16.58h-12.918v16.532c-.377.4-10.582 11.197-11.568 12.242l-10.979-11.56v-20.81h349.282z" style="fill:#ccc;fill-opacity:1;fill-rule:nonzero;stroke:none" transform="matrix(1.33333 0 0 -1.33333 0 1056)"></path><path d="M152.098 531.172H458.82v.75H152.098zm0 0v-.75H458.82v.75zm0 11.88v-.75H458.82v.75zm0 0H458.82v.75H152.098zm0 11.878v-.75H458.82v.75zm0 0H458.82v.75H152.098zm0 11.88H458.82v.75H152.098zm0 0v-.75H458.82v.75zm0 11.88v-.75H458.82v.75zm0 0H458.82v.75H152.098zm0 11.88H458.82v.75H152.098zm0 0v-.75H458.82v.75zm0 11.878v-.75H458.82v.75zm0 0H458.82v.75H152.098zm-3.512 11.88.441-.75h312.864q.217.365.443.75zm0 0h313.748l.441.75h-314.63zm-7.004 11.88.443-.75h326.871l.442.75zm0 0h327.756l.441.75H141.141zm-7.002 11.879h341.76l.443.75H134.137zm0 0c.147-.249.29-.491.441-.75h340.88c.15.259.294.5.439.75zm-3.76 11.879h349.282v.75H130.82zm0 0v-.75h349.282v.75zm0 11.879v-.75h349.282v.75zm0 0h349.282v.75H130.82zm0 11.88h349.282v.75H130.82zm0 0v-.75h349.282v.75zm0 11.879v-.75h349.282v.75zm349.282 0v.75H130.82v-.75z" style="fill:#000;fill-opacity:1;fill-rule:nonzero;stroke:none" transform="matrix(1.33333 0 0 -1.33333 0 1056)"></path><path d="M141.912 638.505h18.824l12.102-23.334h-6.725zm327.408 0h-18.824l-12.101-23.334h6.724z" style="fill:#000;fill-opacity:1;fill-rule:nonzero;stroke:none" transform="matrix(1.33333 0 0 -1.33333 0 1056)"></path><path d="M176.115 531.838v-11.333h1.512v11.333zm-17.145 11.5v-11.333h1.514v11.333zm36.305-1v-11.333h1.512v11.333zm41.346.5v-11.333h1.514v11.333zm38.826.5v-11.333h1.512v11.333zm32.776 0v-11.333h1.511v11.333zm37.817-1v-11.333h1.51v11.333zm33.782.5v-11.333h1.512v11.333zm35.799 0v-11.333h1.514v11.333zm34.791 0v-11.333h1.514v11.333zm-291.442 25v-11.333h1.514v11.333zm36.305-1v-11.333h1.512v11.333zm41.346.5v-11.333h1.514v11.333zm38.826.5v-11.333h1.512v11.333zm32.776 0v-11.333h1.511v11.333zm37.817-1v-11.333h1.51v11.333zm33.782.5v-11.333h1.512v11.333zm35.799 0v-11.333h1.514v11.333zm34.791 0v-11.333h1.514v11.333zm-291.945 23.5v-11.333h1.513v11.333zm36.304-1v-11.333h1.512v11.333zm41.346.5v-11.333h1.514v11.333zm38.826.5v-11.333h1.512v11.333zm32.774 0v-11.333h1.513v11.333zm37.818-1v-11.333h1.512v11.333zm33.781.5v-11.333h1.514v11.333zm35.801 0v-11.333h1.512v11.333zm34.791 0v-11.333h1.514v11.333zm-292.449 24.5v-11.333h1.512v11.333zm36.303-1v-11.333h1.513v11.333zm41.348.5v-11.333h1.511v11.333zm38.824.5v-11.333h1.513v11.333zm32.775 0v-11.333h1.514v11.333zm37.816-1v-11.333h1.514v11.333zm33.784.5v-11.333h1.513v11.333zm35.801 0v-11.333h1.511v11.333zm34.79 0v-11.333h1.512v11.333zm-293.459 24v-11.333h1.514v11.333zm36.305-1v-11.333h1.512v11.333zm41.346.5v-11.333h1.513v11.333zm38.826.5v-11.333h1.512v11.333zm32.773 0v-11.333h1.514v11.333zm37.819-1v-11.333h1.511v11.333zm33.781.5v-11.333h1.514v11.333zm35.801 0v-11.333h1.512v11.333zm34.791 0v-11.333h1.513v11.333zm-291.442 24.5v-11.333h1.514v11.333zm36.305-1v-11.333h1.512v11.333zm41.346.5v-11.333h1.513v11.333zm38.826.5v-11.333h1.512v11.333zm32.773 0v-11.333h1.514v11.333zm37.819-1v-11.333h1.511v11.333zm33.781.5v-11.333h1.514v11.333zm35.801 0v-11.333h1.512v11.333zm34.791 0v-11.333h1.513v11.333zm26.221-.5v-11.333h1.511v11.333zm-.506 23v-11.333h1.513v11.333zm-317.157 1.5v-11.333h1.514v11.333zm36.305-1v-11.333h1.512v11.333zm41.346.5v-11.333h1.513v11.333zm38.826.5v-11.333h1.512v11.333zm32.773 0v-11.333h1.514v11.333zm37.819-1v-11.333h1.511v11.333zm33.781.5v-11.333h1.514v11.333zm35.801 0v-11.333h1.512v11.333zm34.791 0v-11.333h1.513v11.333zm-229.758-153.5v-11.333h1.514v11.333zm40.338.167v-10.833h1.512v10.833zm34.791-.5v-10.833h1.514v10.833zm34.287 0v-10.833h1.514v10.833zm37.313 0v-10.833h1.513v10.833zm35.294 0v-10.833h1.514v10.833zm33.28 0v-10.833h1.513v10.833zm-258.834 24.304v-13.304h1.511v13.304zm41.01 0v-13.304h1.513v13.304zm40.337.196v-12.717h1.512v12.717zm34.791-.587v-12.717h1.514v12.717zm34.288 0v-12.717h1.513v12.717zm37.312 0v-12.717h1.514v12.717zm35.297 0v-12.717h1.512v12.717zm33.277 0v-12.717h1.514v12.717zm-256.816 23.92v-11.333h1.512v11.333zm41.01 0v-11.333h1.513v11.333zm40.338.167v-10.833h1.511v10.833zm34.791-.5v-10.833h1.513v10.833zm34.287 0v-10.833h1.513v10.833zm37.312 0v-10.833h1.514v10.833zm35.295 0v-10.833h1.514v10.833zm33.279 0v-10.833h1.514v10.833zm-256.816 23.333v-11.333h1.512v11.333zm41.01 0v-11.333h1.511v11.333zm40.338.167v-10.833h1.511v10.833zm34.791-.5v-10.833h1.511v10.833zm34.287 0v-10.833h1.511v10.833zm37.312 0v-10.833h1.512v10.833zm35.296 0v-10.833h1.513v10.833zm33.278 0v-10.833h1.514v10.833zM172.08 625.838v-11.333h1.514v11.333zm-24.707 0v-11.333h1.514v11.333zm65.719 0v-11.333h1.512v11.333zm40.338.167v-10.833h1.511v10.833zm34.79-.5v-10.833h1.512v10.833zm34.288 0v-10.833h1.512v10.833zm37.312 0v-10.833h1.512v10.833zm35.295 0v-10.833h1.514v10.833zm33.28 0v-10.833h1.511v10.833zm32.773-.5v-10.833h1.514v10.833zm-289.592 23.833v-11.333h1.514v11.333zm-33.783.5v-11.333h1.514v11.333zm-.503 23v-11.333h1.513v11.333zm75.298-23.5v-11.333h1.512v11.333zm40.336.167v-10.833h1.514v10.833zm34.793 1v-12.333h1.512v12.333zm34.287 1v-13.333h1.512v13.333zm37.312-2.5v-10.833h1.512v10.833zm35.295 0v-10.833h1.512v10.833zm33.279 0v-10.833h1.512v10.833zm34.792 2v-10.833h1.511v10.833zm-291.61 23.333v-11.333h1.514v11.333zm41.01 0v-11.333h1.514v11.333zm40.338.167v-10.833h1.514v10.833zm34.79-.5v-10.833h1.515v10.833zm34.288 0v-10.833h1.514v10.833zm37.312 0v-10.833h1.514v10.833zm35.297 0v-10.833h1.512v10.833zm33.28 0v-10.833h1.511v10.833z" style="fill:#231f20;fill-opacity:1;fill-rule:nonzero;stroke:none" transform="matrix(1.33333 0 0 -1.33333 0 1056)"></path><path d="M332.816 659.156h-55.095v19.015h55.095z" style="fill:#000;fill-opacity:1;fill-rule:nonzero;stroke:none" transform="matrix(1.33333 0 0 -1.33333 0 1056)"></path><path d="M286.234 641.671h-8.572v36.5h8.572z" style="fill:#d3d2d2;fill-opacity:1;fill-rule:nonzero;stroke:none" transform="matrix(1.33333 0 0 -1.33333 0 1056)"></path><path d="M286.234 678.671h-9.076v-37.5h9.58v37.5zm-.504-1v-35.5h-7.564v35.5z" style="fill:#000;fill-opacity:1;fill-rule:nonzero;stroke:none" transform="matrix(1.33333 0 0 -1.33333 0 1056)"></path><path d="M277.914 652.671h8.068" style="fill:#d3d2d2;fill-opacity:1;fill-rule:nonzero;stroke:none" transform="matrix(1.33333 0 0 -1.33333 0 1056)"></path><path d="M277.914 653.171v-1h8.068v1z" style="fill:#000;fill-opacity:1;fill-rule:nonzero;stroke:none" transform="matrix(1.33333 0 0 -1.33333 0 1056)"></path><path d="M277.914 667.171h8.068" style="fill:#d3d2d2;fill-opacity:1;fill-rule:nonzero;stroke:none" transform="matrix(1.33333 0 0 -1.33333 0 1056)"></path><path d="M277.914 667.671v-1h8.068v1z" style="fill:#000;fill-opacity:1;fill-rule:nonzero;stroke:none" transform="matrix(1.33333 0 0 -1.33333 0 1056)"></path><path d="M309.555 641.671h-8.57v36.5h8.57z" style="fill:#d3d2d2;fill-opacity:1;fill-rule:nonzero;stroke:none" transform="matrix(1.33333 0 0 -1.33333 0 1056)"></path><path d="M309.555 678.671h-9.076v-37.5h9.58v37.5zm-.504-1v-35.5h-7.563v35.5z" style="fill:#000;fill-opacity:1;fill-rule:nonzero;stroke:none" transform="matrix(1.33333 0 0 -1.33333 0 1056)"></path><path d="M301.236 652.671h8.067" style="fill:#d3d2d2;fill-opacity:1;fill-rule:nonzero;stroke:none" transform="matrix(1.33333 0 0 -1.33333 0 1056)"></path><path d="M301.236 653.171v-1h8.067v1z" style="fill:#000;fill-opacity:1;fill-rule:nonzero;stroke:none" transform="matrix(1.33333 0 0 -1.33333 0 1056)"></path><path d="M301.236 667.171h8.067" style="fill:#d3d2d2;fill-opacity:1;fill-rule:nonzero;stroke:none" transform="matrix(1.33333 0 0 -1.33333 0 1056)"></path><path d="M301.236 667.671v-1h8.067v1z" style="fill:#000;fill-opacity:1;fill-rule:nonzero;stroke:none" transform="matrix(1.33333 0 0 -1.33333 0 1056)"></path><path d="M332.875 641.671h-8.57v36.5h8.57z" style="fill:#d3d2d2;fill-opacity:1;fill-rule:nonzero;stroke:none" transform="matrix(1.33333 0 0 -1.33333 0 1056)" data-source="https://football-logos.cc"></path><path d="M332.875 678.671h-9.076v-37.5h9.58v37.5zm-.504-1v-35.5h-7.562v35.5z" style="fill:#000;fill-opacity:1;fill-rule:nonzero;stroke:none" transform="matrix(1.33333 0 0 -1.33333 0 1056)"></path><path d="M324.557 652.671h8.066" style="fill:#d3d2d2;fill-opacity:1;fill-rule:nonzero;stroke:none" transform="matrix(1.33333 0 0 -1.33333 0 1056)"></path><path d="M324.557 653.171v-1h8.066v1z" style="fill:#000;fill-opacity:1;fill-rule:nonzero;stroke:none" transform="matrix(1.33333 0 0 -1.33333 0 1056)"></path><path d="M324.557 667.171h8.066" style="fill:#d3d2d2;fill-opacity:1;fill-rule:nonzero;stroke:none" transform="matrix(1.33333 0 0 -1.33333 0 1056)"></path><path d="M324.557 667.671v-1h8.066v1z" style="fill:#000;fill-opacity:1;fill-rule:nonzero;stroke:none" transform="matrix(1.33333 0 0 -1.33333 0 1056)"></path><path d="M177.291 685.505v-72h1.514v72zm254.633 1v-72h1.512v72zM302.64 615.93l-5.726-7.476c-.725-.945-74.322-94.763-236.73-96.509l-7.188-.08-1.586-7.007c-.635-2.794-59.992-281.539 248.37-450.41l4.316-2.364 4.338 2.313C624.793 223.13 564.06 502.11 563.41 504.908l-1.625 6.964-7.148.073c-166.684 1.741-242.578 95.656-243.323 96.605l-7.248 9.246z" style="fill:#231f20;fill-opacity:1;fill-rule:nonzero;stroke:none" transform="matrix(1.33333 0 0 -1.33333 0 1056)"></path><path d="M304.105 611.853c1.633-2.08 4.35-5.553 4.35-5.553.762-.963 77.7-96.23 246.15-97.995l4.291-.045.971-4.177c.18-.775 5.016-22.954 5.016-58.166 0-90.657-32.055-267.712-258.156-388.307 0 0-1.63-.866-2.608-1.388-.97.533-2.588 1.418-2.588 1.418C81.322 178.23 50.04 355.028 50.04 445.704c0 35.32 4.75 57.572 4.924 58.35 0 0 .596 2.627.951 4.206l4.316.045c164.403 1.767 238.85 96.983 239.583 97.944v-.002z" style="fill:#f6e900;fill-opacity:1;fill-rule:nonzero;stroke:none" transform="matrix(1.33333 0 0 -1.33333 0 1056)"></path><path d="M302.855 593.02c-19.369-21.482-93.664-91.848-236.507-95.357l-1.508-.039-.242-1.488c-1.368-8.404-3.664-26.11-3.664-50.272 0-90.332 31.486-259.377 242.365-376.597l.873-.484.879.477c216.594 117.227 248.937 286.283 248.937 376.622 0 24.167-2.361 41.861-3.765 50.257l-.248 1.482-1.504.035c-146.77 3.448-223.045 73.877-242.93 95.382l-1.353 1.462z" style="fill:#231f20;fill-opacity:1;fill-rule:nonzero;stroke:none" transform="matrix(1.33333 0 0 -1.33333 0 1056)"></path><path d="M159.017 290.914h358.746c26.182 59.535 32.585 115.02 32.585 154.968 0 22.816-2.105 39.515-3.501 48.217-144.357 3.874-220.825 71.978-242.624 95.058-21.26-23.08-95.75-91.102-236.242-95.049-1.36-8.71-3.408-25.427-3.408-48.244 0-39.946 6.231-95.423 31.714-154.95h26.597z" style="fill:#223f89;fill-opacity:1;fill-rule:nonzero;stroke:none" transform="matrix(1.33333 0 0 -1.33333 0 1056)"></path><path d="M519.705 289.623h.646v1.291h-2.588l-.573-1.291zm-286.055-41.31h35.489v1.29h-15.492v-.573.574h-20.642v-1.29zm235.865-19.651H129.852l.093-.142h353.24l.095.142zm-20.786 60.961h35.487v1.291h-36.133v-1.291zm-36.133 0h35.487v1.291H411.95v-1.291zm-215.078-41.31h35.487v1.29h-15.491v-.573.574h-20.642v-1.29zm144.532 0h35.488v1.29h-15.491v-.573.574h-20.642v-1.29zm-72.266 0h35.487v1.29H289.78v-.573.574h-20.64v-1.29z" style="fill:#000;fill-opacity:1;fill-rule:nonzero;stroke:none" transform="matrix(1.33333 0 0 -1.33333 0 1056)"></path><path d="M378.185 248.313h35.487v1.29H398.18v-.573.574h-20.643v-1.29zm-1.722 41.31h35.487v1.291h-36.133v-1.291zm-70.546-41.31h35.488v1.29h-15.491v-.573.574h-20.643v-1.29zm34.413 41.31h35.487v1.291h-36.132v-1.291zm-178.946-41.31h35.488v1.29h-15.491v-.573.574h-20.643v-1.29zm34.413 41.31h35.487v1.291h-36.133v-1.291zm36.133 0h35.487v1.291h-36.133v-1.291zm-107.325-41.31v1.29h-7.673q.371-.645.746-1.29h6.282zm33.766 41.31h.646v1.291h-36.133v-1.291z" style="fill:#000;fill-opacity:1;fill-rule:nonzero;stroke:none" transform="matrix(1.33333 0 0 -1.33333 0 1056)"></path><path d="M159.662 289.623h35.489v1.291h-36.134v-1.291zm.431-41.31h.645v1.29h-15.491v-.573.574h-20.642v-1.29h.646zm107.97 41.31h35.487v1.291h-36.133v-1.291zm36.132 0h35.49v1.291H303.55v-1.291zm-181.957 0h.646v1.291H96.287q.276-.645.557-1.291zm384.342-19.077v-.861zh-36.134v-.86.86h-36.133v-.86.86h-36.132v-.86.86h-36.134v-.86.86h-36.133v-.86.86H289.78v-.86.86h-36.133v-.86.86h-36.133v-.86.86H181.38v-.86.86h-36.134v-.86.86h-36.134v-.86.86h-3.405q.32-.645.643-1.29h18.254v1.004-1.004h36.133v1.004-1.004h36.134v1.004-1.004h36.133v1.004-1.004h36.134v1.004-1.004h36.132v1.004-1.004h36.134v1.004-1.004h36.133v1.004-1.004h36.134v1.004-1.004h36.133v1.004-1.004h36.132v1.004-1.004h21.486c.223.43.44.86.661 1.29h-.858zm-22.364 10.471v-.718zh-36.133v-.718.718H411.95v-.718.718h-36.133v-.718.718h-36.132v-.718.718H303.55v-.718.718h-36.133v-.718.718h-36.133v-.718.718h-36.133v-.718.718h-36.134v-.718.718h-36.133v-.718.718h-22.196q.297-.646.598-1.291h7.827v.574-.574h36.134v.574-.574h36.134v.574-.574h36.133v.574-.574h36.133v.574-.574h36.133v.574-.574h36.134v.574-.574h36.133v.574-.574h36.134v.574-.574h36.132v.574-.574h36.133v.574-.574h36.134v.574-.574h6.046l.614 1.29h-28.379zm-13.77-31.987v.574h-20.641v-1.29h36.133v1.29h-15.492zm15.492 11.045v-.718zh-36.133v-.718.718h-36.133v-.718.718h-36.134v-.718.718h-36.133v-.718.718h-36.134v-.718.718H269.14v-.718.718h-36.134v-.718.718h-36.133v-.718.718h-36.134v-.718.718h-36.133v-.718.718h-13.492c.23-.43.467-.86.699-1.29h33.435v1.147-1.148h36.134v1.148-1.148h36.133v1.148-1.148h36.133v1.148-1.148h36.133v1.148-1.148h36.134v1.148-1.148h36.133v1.148-1.148h36.134v1.148-1.148h36.132v1.148-1.148h36.133v1.148-1.148h31.366q.362.646.718 1.291h-15.947zm.645-11.762h9.204l.766 1.29h-10.615v-1.29zm-72.266 0h35.488v1.29h-15.492v-.573.574h-20.641v-1.29zm71.621-9.18v-.43zh-36.133v-.43.43h-36.133v-.43.43h-36.134v-.43.43h-36.133v-.43.43h-36.134v-.43.43H269.14v-.43.43h-36.134v-.43.43h-36.133v-.43.43h-36.134v-.43.43h-36.133v-.43.43h-1.433q.396-.645.795-1.291h365.359c.275.43.544.86.817 1.29h-3.56zm-1.722 50.49h32.975l.572 1.291h-33.547z" style="fill:#000;fill-opacity:1;fill-rule:nonzero;stroke:none" transform="matrix(1.33333 0 0 -1.33333 0 1056)"></path><path d="M218.16 249.604v9.18h-.646v-9.18zm35.487 0v9.18h-.646v-9.18zm72.913 0v9.18h-.646v-9.18zm-.646 0v9.18h-.645v-9.18zm-36.134 0v9.18h-.645v-9.18zm-35.488 0v9.18h-.645v-9.18zm36.133 0v9.18h-.645v-9.18zm143.888 0v9.18h-.645v-9.18zm.646 0v9.18h-.646v-9.18zm-72.912 0v9.18h-.646v-9.18zm36.778 0v9.18h-.644v-9.18zm71.621 0v9.18h-.645v-9.18z" style="fill:#000;fill-opacity:1;fill-rule:nonzero;stroke:none" transform="matrix(1.33333 0 0 -1.33333 0 1056)"></path><path d="M471.092 249.604v9.18h-.646v-9.18zm-108.4 0v9.18h-.645v-9.18zm35.488 0v9.18h-.645v-9.18zm-216.8 0v9.18h-.645v-9.18zm-35.488 0v9.18h-.645v-9.18zm36.134 0v9.18h-.645v-9.18z" style="fill:#000;fill-opacity:1;fill-rule:nonzero;stroke:none" transform="matrix(1.33333 0 0 -1.33333 0 1056)"></path><path d="M145.247 249.604v9.18h-.645v-9.18zm72.267 0v9.18h-.646v-9.18zm268.424-10.471h.645v9.18h-.646zm-361.978 9.18v-9.18h.645v9.18zm216.8 0v-9.18h.645v9.18z" style="fill:#000;fill-opacity:1;fill-rule:nonzero;stroke:none" transform="matrix(1.33333 0 0 -1.33333 0 1056)"></path><path d="M485.292 248.313v-9.18h.646v9.18zm-71.62 0v-9.18h.645v9.18zm-36.778 0v-9.18h.644v9.18zm36.132 0v-9.18h.646v9.18zm36.779 0v-9.18h.645v9.18zm-.645 0v-9.18h.645v9.18zm-107.755 0v-9.18h.646v9.18zm-109.045 0v-9.18h.645v9.18zm145.178 0v-9.18h.647v9.18zm-180.666 0v-9.18h.646v9.18zm107.754 0v-9.18h.645v9.18zm-35.487 0v-9.18h.645v9.18zm-.646 0v-9.18h.646v9.18z" style="fill:#000;fill-opacity:1;fill-rule:nonzero;stroke:none" transform="matrix(1.33333 0 0 -1.33333 0 1056)"></path><path d="M233.005 248.313v-9.18h.645v9.18zm-72.267 0v-9.18h.646v9.18zm-36.133 0v-9.18h.646v9.18zm35.488 0v-9.18h.645v9.18zm36.134 0v-9.18h.645v9.18zm109.044 0v-9.18h.646v9.18zM181.74 228.662v9.18h-1.292v-9.18zm144.532 0v9.18h-1.29v-9.18zm-36.132 0v9.18h-1.291v-9.18zm108.4 0v9.18h-1.291v-9.18zm36.133 0v9.18h-1.291v-9.18zm36.133 0v9.18h-1.291v-9.18zm-216.799 0v9.18h-1.291v-9.18zm-108.401 0v9.18h-1.29v-9.18zm72.266 0v9.18h-1.291v-9.18zm144.533 0v9.18h-1.29v-9.18zm15.78 31.413v9.18h-.647v-9.18zm-216.801 0v9.18h-.646v-9.18zm35.488 0v9.18h-.645v-9.18zm-36.134 0v9.18h-.645v-9.18zm36.78 0v9.18h-.646v-9.18zm-72.913 0v9.18h-.645v-9.18zm108.4 0v9.18h-.645v-9.18zm216.8 0v9.18h-.646v-9.18zm-324.554 0v9.18h-.646v-9.18zm288.421 0v9.18h-.646v-9.18zm72.266 0v9.18h-.646v-9.18zm-143.888 0v9.18h-.645v-9.18zm-108.4 0v9.18h-.645v-9.18zm107.755 0v9.18h-.644v-9.18zm109.045 0v9.18h-.645v-9.18zm-72.912 0v9.18h-.644v-9.18zm-108.399 0v9.18h-.646v-9.18zm.645 0v9.18h-.645v-9.18z" style="fill:#000;fill-opacity:1;fill-rule:nonzero;stroke:none" transform="matrix(1.33333 0 0 -1.33333 0 1056)"></path><path d="M486.583 260.075v9.18h-.646v-9.18zm-181.312 0v9.18h-.645v-9.18z" style="fill:#000;fill-opacity:1;fill-rule:nonzero;stroke:none" transform="matrix(1.33333 0 0 -1.33333 0 1056)"></path><path d="M305.917 260.075v9.18h-.646v-9.18zm108.4 0v9.18h-.645v-9.18zm-160.025 10.471v9.18h-.645v-9.18zm-36.778 0v9.18h-.646v-9.18zm217.445 0v9.18h-.646v-9.18zm-289.067 0v9.18h-.645v-9.18zm361.334 0v9.18h-.646v-9.18zm-.646 0v9.18h-.645v-9.18zm-252.933 0v9.18h-.646v-9.18zm216.799 0v9.18h-.645v-9.18zm-252.286 0v9.18h-.646v-9.18zm180.02 0v9.18h-.645v-9.18z" style="fill:#000;fill-opacity:1;fill-rule:nonzero;stroke:none" transform="matrix(1.33333 0 0 -1.33333 0 1056)"></path><path d="M471.092 270.546v9.18h-.646v-9.18zm-36.779 0v9.18h-.645v-9.18zm-72.266 0v9.18h-.646v-9.18zm-216.8 0v9.18h-.645v-9.18zm145.178 0v9.18h-.645v-9.18zm-109.045 0v9.18h-.645v-9.18zm145.18 0v9.18h-.646v-9.18zm-.646 0v9.18h-.645v-9.18zm-143.888 0v9.18h-.645v-9.18zm-72.913 0v9.18h-.645v-9.18zm.646 0v9.18h-.646v-9.18zm180.021 0v9.18h-.645v-9.18zm72.912 0v9.18h-.645v-9.18zm36.133 0v9.18h-.644v-9.18zm12.48 19.077v-8.606h.645v8.606zm.645 0v-8.606h.646v8.606zm-36.133 0v-8.606h.646v8.606zm-.645 0v-8.606h.645v8.606zm72.266 0v-8.606h.645v8.606zm-288.421 0v-8.606h.645v8.606zm325.844-8.606v8.606h-.645v-8.606zm-326.49 8.606v-8.606h.646v8.606zm325.199-8.606h.646v8.606h-.646zm-143.885 8.606v-8.606h.645v8.606zm108.398 0v-8.606h.646v8.606zm-181.312 0v-8.606h.646v8.606zm-35.487 0v-8.606h.646v8.606zm107.756 0v-8.606h.645v8.606z" style="fill:#000;fill-opacity:1;fill-rule:nonzero;stroke:none" transform="matrix(1.33333 0 0 -1.33333 0 1056)"></path><path d="M230.639 289.623v-8.606h.645v8.606zm-107.109-8.606v8.606h-.646v-8.606zm71.621 8.606v-8.606h.646v8.606zm-72.267-8.606v8.606h-.646v-8.606zm180.666 8.606v-8.606h.645v8.606zm-109.044 0v-8.606h.645v8.606zm72.911 0v-8.606h.646v8.606zm35.487 0v-8.606h.646v8.606zm166.508-80.189v-1.14h.646v1.988zM361.66 216.9v-8.606h.645v8.606zm-.646 0v-8.606h.645v8.606zm109.044-6.618v6.618h-.646v-7.466zM433.28 216.9v-8.606h.645v8.606zm-36.134 0v-8.606h.646v8.606zm73.557-5.77v5.77h-.645v-6.618zm-72.911 5.77v-8.606h.646v8.606zm-144.533 0v-8.606h.645v8.606zm71.621 0v-8.606h.646v8.606zm-35.488 0v-8.606h.645v8.606zm-36.779 0v-8.606h.646v8.606zm-107.755 0v-8.606h.646v8.606zm-.645 0v-8.606h.645v8.606zm36.78 0v-8.606h.646v8.606zm107.753 0v-8.606h.646v8.606zm-71.62 0v-8.606h.645v8.606zm108.4 0v-8.606h.646v8.606zm-109.046 0v-8.606h.646v8.606z" style="fill:#000;fill-opacity:1;fill-rule:nonzero;stroke:none" transform="matrix(1.33333 0 0 -1.33333 0 1056)"></path><path d="M180.348 216.9v-8.606h.645v8.606z" style="fill:#000;fill-opacity:1;fill-rule:nonzero;stroke:none" transform="matrix(1.33333 0 0 -1.33333 0 1056)"></path><path d="M484.861 289.623v-8.606h28.38a386 386 0 0 1 3.95 8.606zm-14.055-60.961h12.474a403 403 0 0 1 6.046 9.18h-18.52zm-326.491 9.18h-20.348a403 403 0 0 1 5.885-9.18h14.463zm108.686 32.704v9.18h-34.842v-9.18zm196.804-20.942H469.8v9.18h-34.842v-9.18zm.645-1.291v-9.18h34.842v9.18zm-289.712 1.291h19.997v9.18h-34.843v-9.18zm-35.487-1.291v-9.18h34.842v9.18zm36.133 0v-9.18h34.843v9.18zm35.488 1.291h19.996v9.18h-34.842v-9.18zm.646-1.291v-9.18h34.842v9.18zm35.487 1.291H253v9.18h-34.842v-9.18zm.645-1.291v-9.18h34.843v9.18zm35.489 1.291h19.996v9.18h-34.843v-9.18zm.645-1.291v-9.18h34.842v9.18zm35.487 1.291h19.998v9.18h-34.844v-9.18zm.646-1.291v-9.18h34.844v9.18zm35.488 1.291h19.996v9.18H326.56v-9.18zm.645-1.291v-9.18h34.844v9.18zm35.488 1.291h19.997v9.18h-34.843v-9.18zm.647-1.291v-9.18h34.841v9.18zm35.487 1.291h19.996v9.18h-34.843v-9.18zm.645-1.291v-9.18h34.842v9.18zm70.975 11.762v9.18H450.45v-9.18zM469.8 270.546v9.18h-34.84v-9.18zm-20.64-10.471v9.18h-34.843v-9.18zm-15.492 10.471v9.18h-34.843v-9.18zm-20.642-10.471v9.18h-34.841v-9.18zm-15.491 10.471v9.18h-34.843v-9.18zm-20.641-10.471v9.18H342.05v-9.18zm-15.493 10.471v9.18H326.56v-9.18zm-20.641-10.471v9.18h-34.843v-9.18zm-15.491 10.471v9.18h-34.844v-9.18zm-20.643-10.471v9.18h-34.842v-9.18zm-15.491 10.471v9.18h-34.843v-9.18zm-20.642-10.471v9.18H233.65v-9.18zm-36.133 0v9.18h-34.842v-9.18zm-15.492 10.471v9.18h-34.842v-9.18zm-20.641-10.471v9.18h-34.843v-9.18zm-15.492 10.471v9.18h-34.843v-9.18zm-20.642-10.471v9.18H125.25v-9.18zm-15.491 10.471v9.18h-34.843v-9.18zm-20.642-1.291h-17.609a393 393 0 0 1 4.762-9.18h12.847zm20.642-19.651v9.18h-32.79a398 398 0 0 1 5.12-9.18h7.673zm-20.642-1.291h-6.282a399 399 0 0 1 5.494-9.18h.788zm36.42-20.942h-29.672a409 409 0 0 1 6.29-9.18h23.382zm20.068 1.291v9.18h-34.842v-9.18zm16.065-1.291H161.67v-9.18h34.842zm20.068 1.291v9.18H181.74v-9.18zm16.065-1.291h-34.842v-9.18h34.842zm20.07 1.291v9.18h-34.844v-9.18zm16.064-1.291h-34.843v-9.18h34.843zm20.069 1.291v9.18h-34.842v-9.18zm16.064-1.291h-34.842v-9.18h34.842zm20.068 1.291v9.18H290.14v-9.18zm16.065-1.291h-34.842v-9.18h34.842zm20.068 1.291v9.18h-34.842v-9.18zm16.065-1.291h-34.842v-9.18h34.842zm20.07 1.291v9.18h-34.844v-9.18zm16.064-1.291H378.47v-9.18h34.843zm20.069 1.291v9.18H398.54v-9.18zm16.064-1.291h-34.842v-9.18h34.842zm20.069 1.291v9.18h-34.842v-9.18zm-18.778-1.291v-9.18h25.202q3.325 4.59 6.462 9.18zm35.846 20.942v-9.18h3.56a398 398 0 0 1 5.644 9.18zm-15.491 1.291h25.461a390 390 0 0 1 5.26 9.18h-30.721zm15.491 10.471h15.947a389 389 0 0 1 4.893 9.18h-20.84zm19.352 10.471v9.18h-34.843v-9.18zm-57.206 19.077v-8.606h34.841v8.606zm-36.133 0v-8.606h34.842v8.606zm-36.133 0v-8.606h34.842v8.606zm-36.133 0v-8.606h34.842v8.606zm-36.135 0v-8.606h34.844v8.606zm-36.132 0v-8.606h34.841v8.606zm-36.133 0v-8.606h34.841v8.606zm-36.133 0v-8.606h34.842v8.606zm-36.135 0v-8.606h34.844v8.606zm-36.132 0v-8.606h34.841v8.606zm-1.292 0H96.844a389 389 0 0 1 3.844-8.606h21.55zm-13.77-9.897h-7.182a390 390 0 0 1 4.422-9.18h2.76zm29.449-62.826q3.061-4.306 6.289-8.606h.007v8.606zm7.587 0v-8.606h34.844v8.606zm36.135 0v-8.606h34.841v8.606zm36.132 0v-8.606h34.842v8.606zm36.133 0v-8.606h34.842v8.606zm36.133 0v-8.606h34.844v8.606zm36.135 0v-8.606h34.842v8.606zm36.133 0v-8.606h34.841v8.606zm36.133 0v-8.606h34.841v8.606zm70.974 0H434.57v-8.606h33.965q.44.57.877 1.14zm1.291-5.77a417 417 0 0 1 4.293 5.77h-4.293zm36.523 59.416h.858a388 388 0 0 1 4.542 9.18h-5.4z" style="fill:#ccc;fill-opacity:1;fill-rule:nonzero;stroke:none" transform="matrix(1.33333 0 0 -1.33333 0 1056)"></path><path d="M198.892 258.794c-26.39 0-47.784-22.857-47.784-51.055h95.565c0 28.198-21.392 51.055-47.781 51.055" style="fill:#223f89;fill-opacity:1;fill-rule:nonzero;stroke:none" transform="matrix(1.33333 0 0 -1.33333 0 1056)"></path><path d="M247.423 206.99v.75c0 28.565-21.771 51.804-48.531 51.804-26.762 0-48.534-23.24-48.534-51.805v-.75" style="fill:#231f20;fill-opacity:1;fill-rule:nonzero;stroke:none" transform="matrix(1.33333 0 0 -1.33333 0 1056)"></path><path d="M307.46 258.794c-26.39 0-47.783-22.857-47.783-51.055h95.565c0 28.198-21.392 51.055-47.782 51.055" style="fill:#223f89;fill-opacity:1;fill-rule:nonzero;stroke:none" transform="matrix(1.33333 0 0 -1.33333 0 1056)"></path><path d="M258.927 207.74v-.75h97.065v.75c0 28.565-21.771 51.804-48.532 51.804s-48.533-23.24-48.533-51.805m108.569.001v-.75h97.064v.75c0 28.565-21.772 51.804-48.532 51.804s-48.532-23.24-48.532-51.805" style="fill:#231f20;fill-opacity:1;fill-rule:nonzero;stroke:none" transform="matrix(1.33333 0 0 -1.33333 0 1056)"></path><path d="M307.46 258.044c-25.515 0-46.31-22.59-46.975-50.624h93.949c-.666 28.034-21.46 50.624-46.974 50.624m-108.568 0c-25.416 0-46.142-22.562-46.96-50.624h93.918c-.82 28.062-21.544 50.624-46.958 50.624m217.136 0c-25.316 0-45.975-22.532-46.946-50.624h93.892c-.971 28.092-21.63 50.624-46.946 50.624" style="fill:#223f89;fill-opacity:1;fill-rule:nonzero;stroke:none" transform="matrix(1.33333 0 0 -1.33333 0 1056)"></path><path d="m257.215 180.29 7.284 1.71c41.017 9.645 41.754 9.653 78.942.98l11.58-2.684c43.695-10.018 78.499-3.477 89.08-.958 8.6 9.3 16.537 18.663 23.83 28.042l-316 .04c-.004-.14-7-.165-7-.165a428 428 0 0 1 22.773-27.574c13.204-2.04 56.495-7.636 89.51.609m64.916-75.163c-16.249 4.16-16.249 4.16-34.357-.513l-3.432-.884c-8.35-2.289-17.722-2.761-25.973-2.503a597 597 0 0 1 34.304-21.655c.753.13 1.484.293 2.177.501l1.474.416c9.085 2.567 9.94 2.577 18.277.241l2.332-.649a616 616 0 0 1 33.455 20.56c-6.672.14-14.34.97-22.66 3.063z" style="fill:#33b540;fill-opacity:1;fill-rule:nonzero;stroke:none" transform="matrix(1.33333 0 0 -1.33333 0 1056)"></path><path d="m352.787 170.548-11.617 2.693c-35.258 8.224-35.258 8.224-74.383-.975l-7.222-1.695c-27.804-6.944-61.418-4.758-81.106-2.459a468 468 0 0 1 22.812-22.116c13.66-1.646 43.02-4.157 66.02 1.005l5.753 1.214c32.539 6.878 33.124 6.884 62.636.697l9.15-1.906c28.498-5.873 52.188-3.704 64.205-1.777a479 479 0 0 1 23.098 21.65c-17.313-2.501-45.631-4.06-79.346 3.669" style="fill:#33b540;fill-opacity:1;fill-rule:nonzero;stroke:none" transform="matrix(1.33333 0 0 -1.33333 0 1056)"></path><path d="m342.81 137.21-9.183 1.915c-27.729 5.813-27.729 5.813-58.515-.694l-5.696-1.202c-18.191-4.083-39.505-3.738-55.168-2.574a522 522 0 0 1 27.762-21.868c7.823-1.188 25.824-3.212 39.766.609l3.499.9c20.211 5.217 20.947 5.226 39.336.518l5.556-1.413c15.854-3.989 29.18-2.843 36.58-1.55a538 538 0 0 1 28.53 21.725c-13.525-.923-31.706-.643-52.466 3.635" style="fill:#33b540;fill-opacity:1;fill-rule:nonzero;stroke:none" transform="matrix(1.33333 0 0 -1.33333 0 1056)"></path><path d="m259.565 170.571 7.222 1.695c39.125 9.199 39.125 9.199 74.383.975l11.617-2.693c33.715-7.73 62.033-6.17 79.346-3.67a453 453 0 0 1 11.968 12.46c-10.581-2.519-45.385-9.06-89.08.958l-11.58 2.683c-37.188 8.674-37.925 8.666-78.942-.979l-7.284-1.71c-33.016-8.245-76.307-2.648-89.51-.61a445 445 0 0 1 10.754-11.568c19.688-2.299 53.302-4.485 81.106 2.46m85.265-23.566-9.15 1.906c-29.512 6.187-30.097 6.18-62.636-.697L267.292 147c-23.001-5.162-52.36-2.651-66.021-1.005a493 493 0 0 1 12.977-11.34c15.663-1.165 36.977-1.51 55.168 2.573l5.696 1.202c30.786 6.507 30.786 6.507 58.515.694l9.184-1.914c20.76-4.278 38.941-4.558 52.465-3.635a506 506 0 0 1 13.76 11.653c-12.018-1.927-35.708-4.096-64.207 1.777m-14.662-33.604-5.556 1.413c-18.39 4.708-19.125 4.699-39.336-.517l-3.5-.901c-13.94-3.82-31.942-1.797-39.765-.609a556 556 0 0 1 16.358-11.56c8.251-.258 17.623.214 25.973 2.503l3.432.884c18.108 4.673 18.108 4.673 34.358.513l5.596-1.423a101.5 101.5 0 0 1 22.66-3.062 574 574 0 0 1 16.36 11.21c-7.4-1.294-20.726-2.44-36.58 1.55M296.323 80.49l-1.474-.417a19 19 0 0 0-2.177-.5 632 632 0 0 1 11.525-6.6c4.32 2.347 8.56 4.718 12.735 7.108l-2.332.65c-8.338 2.335-9.192 2.325-18.277-.242" style="fill:#ccc;fill-opacity:1;fill-rule:nonzero;stroke:none" transform="matrix(1.33333 0 0 -1.33333 0 1056)"></path><path d="M445.095 356.041c-11.163 7.389-32.242 1.598-35.828-12.958l-91.818 60.77 137.302 90.876s3.888 8.605-6.086 9.197a469 469 0 0 1-15.623-10.344l-13.536 20.45-5.98-3.957 9.888-14.934-8.275-5.477-9.883 14.936-10.111-6.69 9.886-14.938-8.274-5.473-9.882 14.935-5.978-3.955 13.537-20.45-86.974-57.565-86.974 57.564 13.536 20.451-5.977 3.955-9.882-14.935-8.274 5.473 9.886 14.937-10.11 6.691-9.884-14.936-8.275 5.477 9.888 14.934-5.98 3.956-13.536-20.45s-6.777 4.734-15.623 10.345c-9.974-.592-6.086-9.197-6.086-9.197l137.302-90.876-91.818-60.77c-3.586 14.556-24.665 20.347-35.828 12.958-12.522-8.29-17.124-30.254 6.114-38.668-.387-24.052 20.298-28.452 32.82-20.162 11.392 7.541 16.684 22.759 2.275 36.21l96.426 63.82 96.426-63.82c-14.41-13.451-9.117-28.669 2.274-36.21 12.523-8.29 33.208-3.89 32.82 20.162 23.239 8.414 18.637 30.378 6.115 38.668m-241.46-50.008c-8.908-5.897-23.63-2.767-23.35 14.34-16.53 5.982-13.258 21.611-4.348 27.508 7.588 5.023 21.601 1.48 25.069-7.875l-.518-.342 1.054-1.588c.216-1.097.34-2.236.258-3.462 1.854-1.3 3.398-2.645 4.682-4.005l.094-.14.013.01c8.584-9.227 4.782-19.326-2.954-24.446m231 14.34c.28-17.107-14.442-20.237-23.35-14.34-7.736 5.12-11.538 15.22-2.954 24.446l.013-.01.093.14c1.285 1.36 2.829 2.705 4.683 4.005-.083 1.226.042 2.365.258 3.462l1.054 1.588-.518.342c3.468 9.355 17.48 12.898 25.07 7.875 8.908-5.897 12.18-21.526-4.348-27.508z" style="fill:#f6e900;fill-opacity:1;fill-rule:nonzero;stroke:none" transform="matrix(1.33333 0 0 -1.33333 0 1056)"></path><path d="M267.817 478.465c4.619.77 12.097 0 12.097 10.667v45.855c0 10.667-7.478 9.898-12.097 10.667v3.3c4.619 0 12.097-.55 18.475-.55 7.697 0 15.615.55 23.312.55 22.763 0 37.499-13.416 37.499-35.63 0-23.093-12.756-38.158-38.818-38.158-7.258 0-14.736.55-21.993.55-6.378 0-13.856-.55-18.475-.55zm24.963 10.667c0-3.739 0-9.787 11.436-9.787 21.114 0 28.372 15.725 28.372 33.98 0 19.353-7.809 31.45-28.922 31.45-10.886 0-10.886-3.96-10.886-9.788zm-126.065-93.356c0-3.739.77-7.698 1.429-10.447-2.419.66-4.838 1.32-7.258 1.32-6.927 0-15.835-5.278-26.831-5.278-20.014 0-34.86 12.096-34.86 39.257 0 24.523 16.276 37.389 39.698 37.389 9.567 0 16.935-3.3 21.444-3.3 2.309 0 4.178.77 5.828 2.86-.33-1.1-.55-5.828-.55-8.028 0-2.749.33-14.075.55-16.824h-4.069c-2.969 9.457-6.818 20.453-23.203 20.453-18.804 0-25.182-12.756-25.182-32.55 0-15.944 6.268-32.44 27.602-32.44 8.687 0 12.536 2.09 12.536 7.588v13.196c0 5.718-4.509 7.918-12.317 7.918v3.298c6.158 0 12.317-.55 18.584-.55 4.84 0 9.677.55 14.626.55v-3.298c-6.158 0-8.027-2.75-8.027-7.918zm349.01 13.306c-1.76-8.908-9.788-27.71-33.431-27.71-21.113 0-32.44 18.033-32.44 39.256 0 21.884 11.876 37.389 36.399 37.389 9.127 0 16.056-3.3 20.344-3.3 2.31 0 4.178.77 5.828 2.86-.33-1.1-.55-5.829-.55-8.028 0-2.749.33-14.075.55-16.824h-4.07c-2.858 9.457-6.487 20.453-22.102 20.453-17.815 0-21.884-18.254-21.884-32.55 0-15.944 7.698-29.911 22.764-29.911 14.405 0 21.553 10.777 24.192 18.365z" style="fill:#ed1c24;fill-opacity:1;fill-rule:nonzero;stroke:none" transform="matrix(1.33333 0 0 -1.33333 0 1056)" data-source="https://football-logos.cc"></path><!-- source: https://football-logos.cc --></svg>