<svg xmlns="http://www.w3.org/2000/svg" xml:space="preserve" viewBox="-0.19 0.4 138 212"><!-- Source: https://football-logos.cc --><path fill="#FFF" d="M10.086 52.805-.19 13.793l.874-.389C20.801 4.428 44.641.569 66.587.402c21.563-.163 45.026 3.219 64.825 12.02l.836.372-8.363 38.586q1.881.583 3.743 1.22c1.356.461 2.708.946 4.047 1.456l6.136 2.327-.739 6.495c-.699 6.104-1.723 12.173-2.975 18.189-1.248 6.014-2.722 11.979-4.332 17.906a357 357 0 0 1-6.342 20.836 359 359 0 0 1-7.594 20.424c-4.913 12.088-10.485 24.024-17.038 35.322-6.473 11.158-14.199 22.228-23.529 31.216l-5.836 5.625-5.881-5.572c-18.764-17.76-33.117-39.234-43.315-62.851-11.103-25.721-17.158-53.6-19.021-81.487l-.414-6.213 5.842-2.217q.977-.374 1.958-.724a98 98 0 0 1 1.491-.527" data-source="https://football-logos.cc"></path><path fill="#328255" d="M8.884 54.125q-.958.342-1.946.718L1.68 56.838l.373 5.594c1.861 27.882 7.934 55.681 18.956 81.208 10.059 23.299 24.247 44.714 43.117 62.573l5.295 5.016 5.253-5.058c8.884-8.563 16.669-19.455 23.385-31.036 6.721-11.586 12.371-23.868 16.985-35.218a360 360 0 0 0 13.904-41.166c1.601-5.894 3.073-11.857 4.322-17.854 1.246-5.999 2.266-12.047 2.96-18.111l.667-5.85-5.523-2.094a128 128 0 0 0-8.234-2.807l-.247-.076 8.383-38.676-.207-.093C112.574 4.97 89.593 1.07 66.589 1.243c-23.397.179-46.817 4.57-65.562 12.929l-.218.099 10.292 39.076-.246.085c-.675.231-1.335.461-1.971.693m1.202-1.32L-.19 13.793l.874-.389C20.801 4.428 44.641.569 66.587.402c21.563-.163 45.026 3.219 64.825 12.02l.836.372-8.363 38.586q1.881.583 3.743 1.22c1.356.461 2.708.946 4.047 1.456l6.136 2.327-.739 6.495c-.699 6.104-1.723 12.173-2.975 18.189-1.248 6.014-2.722 11.979-4.332 17.906a357 357 0 0 1-6.342 20.836 359 359 0 0 1-7.594 20.424c-4.913 12.088-10.485 24.024-17.038 35.322-6.471 11.158-14.199 22.228-23.529 31.216l-5.836 5.625-5.881-5.572c-18.764-17.76-33.117-39.234-43.315-62.851-11.103-25.721-17.158-53.6-19.021-81.487l-.414-6.213 5.842-2.217q.977-.374 1.958-.724c.497-.176.994-.355 1.491-.527"></path><path fill="#FFF" fill-rule="evenodd" d="M12.814 59.813.809 14.239c37.306-16.638 93.08-17.604 130.474-.989l-10.097 46.584-3.876-1.429c-2.273-.841-4.837-1.497-7.183-2.071-6.692-1.637-13.583-2.727-20.426-3.42-24.473-2.487-49.627.033-73.444 6.033z" clip-rule="evenodd"></path><path fill="#2D9B67" fill-rule="evenodd" d="M14.624 56.789 4.171 17.899s25.963-11.7 62.913-11.7c36.957 0 60.966 10.778 60.966 10.778l-8.707 39.38c.001 0-41.799-15.107-104.719.432" clip-rule="evenodd"></path><path fill="#328255" d="m14.546 56.919-.027-.103L4.043 17.839l.083-.038c.26-.117 26.407-11.71 62.958-11.71 36.557 0 60.771 10.679 61.011 10.788l.08.036-.019.085-8.733 39.5-.116-.042c-.183-.066-18.566-6.583-48.693-6.583-18.282 0-37.11 2.361-55.963 7.017zM4.3 17.961l10.401 38.697c18.835-4.643 37.646-6.998 55.912-6.998 28.915 0 47.034 5.998 48.651 6.555l8.661-39.175c-1.565-.679-25.389-10.733-60.841-10.733-35.465 0-61.118 10.926-62.784 11.654"></path><path fill="#FFF" fill-rule="evenodd" d="M8.147 58.006c35.414-13.446 86.611-13.446 122.025 0l3.064 1.164-.366 3.249c-1.362 11.875-4.059 23.94-7.188 35.474a356 356 0 0 1-13.768 40.776c-8.965 22.037-22.28 48.413-39.595 65.091l-2.913 2.816-2.947-2.792C27.54 166.946 8.94 114.703 5.434 62.219l-.209-3.108z" clip-rule="evenodd"></path><path fill="#328255" d="m69.408 206.726-3.023-2.863C30.866 170.245 9.181 119.944 5.325 62.227l-.214-3.188 2.997-1.133c17.14-6.507 38.821-10.091 61.051-10.091s43.911 3.583 61.052 10.091l3.143 1.193-.376 3.333c-1.201 10.479-3.554 22.088-7.191 35.49a357 357 0 0 1-13.771 40.789c-11.801 29.008-25.502 51.528-39.62 65.128zM5.338 59.184l.204 3.028c3.853 57.663 25.514 107.913 60.993 141.494l2.872 2.72 2.838-2.744c14.097-13.578 27.779-36.073 39.569-65.054a356 356 0 0 0 13.763-40.764c3.635-13.391 5.985-24.989 7.187-35.457l.355-3.166-2.985-1.134C113.019 51.609 91.364 48.03 69.16 48.03S25.301 51.609 8.185 58.107z"></path><path fill="#2D9B67" fill-rule="evenodd" d="M9.655 61.926c3.434 51.423 21.588 102.695 59.72 138.792 31.165-30.031 54.931-100.646 59.284-138.792-34.419-13.067-84.596-13.064-119.004 0" clip-rule="evenodd"></path><path fill="#FFF" fill-rule="evenodd" d="m68.825 68.484 12.254 19.471 24.323.096-12.07 19.568 12.07 19.573-24.323.097-12.254 19.474-12.252-19.474-24.326-.097 12.071-19.573-12.071-19.568 24.326-.096z" clip-rule="evenodd"></path><path fill="#328255" d="m68.826 141.724-10.755-17.096-21.016-.085 10.428-16.91-10.428-16.9 21.016-.083 10.755-17.096L79.581 90.65l21.016.083-10.427 16.9 10.427 16.91-21.016.085zm-31.324-17.429 20.709.083 10.616 16.876 10.616-16.876h.068l20.64-.083-10.274-16.662L100.15 90.98l-20.708-.083-.036-.058-10.58-16.816-10.615 16.875-.069.001-20.64.082 10.275 16.652z"></path><path fill="#FFF" fill-rule="evenodd" d="M79.848 10.584s-5.602-.833-14.871-1.021-13.624.93-14.246 1.302c-.623.372-4.854 6.13-3.545 16.226 1.307 10.089 9.642 16.716 15.988 17.461 6.345.744 11.833-.947 13.904-2.073 2.07-1.131 3.406-2.152 3.406-2.152l-4.931-4.971s-3.328 1.703-8.43 1.703c-5.101 0-10.483-3.656-10.483-9.04 0-5.388 2.984-9.785 10.699-9.785 7.713 0 6.688 4.245 6.688 4.245l7.808-.527zm40.679 6.921s-5.167-1.811-13.961-3.669c-8.791-1.856-13.162-1.586-13.829-1.346-.666.243-5.841 4.958-6.61 14.802-.763 9.843 5.858 17.66 11.752 19.515 5.897 1.857 11.464 1.248 13.657.547 2.196-.703 3.675-1.43 3.675-1.43l-3.708-5.625s-3.51 1.02-8.368.093c-4.86-.922-9.259-5.379-8.185-10.505 1.072-5.127 4.792-8.77 12.141-7.37 7.348 1.397 5.521 5.246 5.521 5.246l7.543.913zm-95.686-2.664c-2.736.997-5.535 2.193-7.18 3.112-6.591 3.693-8.6 9.552-6.635 13.789 1.661 3.585 7.543 5.592 12.262 5.349 2.474-.127 9.227-2.438 10.328 1.359.466 1.613-.279 3.625-1.928 4.056-1.647.437-4.854.639-5.818.373-.964-.261-6.765-1.656-7.279 2.79-.512 4.442 2.845 4.859 5.817 4.797 2.969-.063 7.915-1.022 10.514-2.274 2.595-1.257 9.826-4.193 9.39-10.544-.436-6.343-6.966-8.449-11.103-8.449s-11.17 2.696-12.072-2.352c-.901-5.051 10.67-4.056 13.841-5.762 3.174-1.701 1.415-4.58.95-5.542-1.035-2.125-2.797-2.281-4.546-2.215-2.134.075-4.351.713-6.541 1.513" clip-rule="evenodd"></path><path fill="#FFEB00" fill-rule="evenodd" d="M69.658 119.896c-3.081-.523-5.761-.865-8.432-.124-2.671.738-5.66 3.406-6.002 4.146-.342.748-.551 2.857-.234 4.512.309 1.662.651 1.986.743 1.936.092-.041-.743 2.203-.635 3.948.109 1.753.309 3.133-.175 3.564s-2.063.49-2.463.2c-.401-.292-1.753-1.455-2.721-1.238-.96.216-1.57 1.878-1.57 1.878s-.292.215-.593.548c-.292.35-.309 1.038-.309 1.038l1.085.084s-.309.274-.401.806c-.091.524 1.069-.05 1.511.199.435.249 1.62 1.022 2.33 1.007.718-.017 1.068-.017 1.068-.017s.918.539 2.697.506c1.77-.024 2.354-1.08 2.354-1.08s.493.406.367.698c-.125.291.901-.216.851-.989-.042-.772-.033-2.152-.033-2.152s.785-2.576 1.261-3.208c.484-.631 1.461-1.736 1.277-3.141-.183-1.412.184-2.975.552-3.59.375-.623 2.721-2.251 4.699-2.584 1.97-.35 4.324-.191 4.492-.89.175-.697-1.719-6.057-1.719-6.057" clip-rule="evenodd"></path><path fill="#060007" d="M55.401 142.998c-1.636 0-2.506-.473-2.59-.52-.005.012-.354.013-1.016.028-.673 0-1.654-.585-2.182-.9l-.204-.12c-.138-.079-.467-.045-.762-.001-.285.042-.564.155-.749-.063q-.08-.094-.053-.247c.056-.319.184-.552.288-.695l-.976-.076.002-.103c.001-.028.021-.73.334-1.104.307-.342.599-.558.611-.566-.012-.021.604-1.671 1.61-1.897.867-.192 2.094.71 2.637 1.126l.173.131c.135.099.467.159.867.159.627 0 1.228-.145 1.459-.353.366-.325.291-1.353.196-2.654l-.057-.822c-.081-1.293.343-2.831.546-3.571.034-.122.065-.238.083-.31-.267-.161-.53-.881-.736-1.99-.313-1.633-.13-3.763.242-4.577.378-.816 3.438-3.477 6.073-4.205 1.047-.29 2.15-.432 3.373-.432 1.71 0 3.532.286 5.107.555l.063.011.021.059c.195.553 1.899 5.412 1.723 6.12-.129.534-1.191.623-2.535.736-.645.055-1.375.114-2.043.233-1.992.335-4.274 1.95-4.625 2.533-.342.573-.719 2.116-.537 3.521.175 1.337-.67 2.416-1.174 3.061l-.125.159c-.457.607-1.228 3.126-1.243 3.174.005 0-.003 1.354.038 2.115.019.29-.101.588-.336.838-.19.201-.435.348-.583.348h-.059l-.11-.114.027-.119c.057-.132-.109-.351-.248-.489-.211.284-.89 1.002-2.373 1.022zm-2.54-.724c.063.02.919.509 2.54.509l.155-.002c1.68-.023 2.238-.984 2.261-1.024l.064-.114.101.084c.055.045.519.441.41.788.046-.065.208-.157.354-.314.137-.145.296-.38.277-.676-.042-.775-.034-2.16-.034-2.16.037-.136.8-2.632 1.282-3.272l.126-.161c.515-.658 1.294-1.652 1.13-2.9-.179-1.376.155-2.97.565-3.659.416-.69 2.835-2.31 4.775-2.634.678-.121 1.413-.183 2.062-.237 1.157-.098 2.251-.188 2.343-.571.121-.485-.939-3.793-1.695-5.938-1.551-.263-3.337-.54-5.007-.54-1.203 0-2.287.139-3.315.424-2.712.75-5.619 3.409-5.933 4.088-.31.678-.552 2.747-.226 4.446.312 1.678.628 1.854.631 1.855l.097.037c.044.059.035.092-.078.504-.201.729-.618 2.245-.54 3.501l.057.82c.103 1.413.178 2.434-.268 2.833-.337.299-1.075.405-1.604.405-.216 0-.746-.02-.995-.199l-.177-.135c-.518-.397-1.691-1.258-2.456-1.087-.892.2-1.486 1.795-1.492 1.811-.04.052-.325.264-.614.583-.199.238-.257.67-.274.867l1.23.094-.188.17c-.003.002-.283.258-.367.743.021.154.257.104.555.06.348-.051.711-.08.903.027l.208.122c.509.305 1.458.87 2.046.87.739-.018 1.09-.018 1.091-.018"></path><path fill="#FFEB00" fill-rule="evenodd" d="M79.876 119.926c.835.856 1.745 2.759 4.667 2.659 2.921-.091 4.508-1.978 4.257-4.919-.375-6.873-7.746-9.938-7.495-19.411.148-5.75 2.745-7.645 5.017-7.803 2.872-.2 5.541 2.535 5.759 5.36.268 3.415 1.586 2.136 1.837 4.471s.092 3.482.509 4.337c.427.848.409 2.583.409 2.583s-2.137-2.417-2.963-2.708c-.819-.299-2.763-1.703-2.604-4.047.151-2.334.885-3.04.885-3.697 0-2.785-1.786-4.571-3.507-4.404-1.669.158-3.289 2.152-3.179 5.967-.103 6.988 7.92 13.47 7.92 19.203 0 5.725-4.223 7.429-6.844 7.429-2.604 0-6.313-1.953-6.369-3.009-.07-1.047 1.701-2.011 1.701-2.011" clip-rule="evenodd"></path><path fill="#060007" d="M84.543 125.055c-2.662 0-6.417-1.985-6.478-3.112-.072-1.101 1.684-2.071 1.759-2.111l.072-.039.058.059c.148.153.301.339.465.541.72.882 1.705 2.09 3.905 2.09l.215-.004c1.366-.043 2.471-.493 3.193-1.302.752-.84 1.083-2.05.959-3.501-.165-3.03-1.711-5.326-3.348-7.757-2.108-3.133-4.288-6.372-4.148-11.666.183-7.019 3.964-7.828 5.118-7.908 2.823-.194 5.646 2.49 5.875 5.459.144 1.842.586 2.273 1.014 2.691.362.354.706.689.822 1.776.093.867.13 1.57.16 2.156.052.98.086 1.627.339 2.146.433.859.421 2.561.42 2.633l-.003.282-.188-.212c-.021-.023-2.128-2.4-2.917-2.679-.942-.344-2.835-1.811-2.677-4.156.097-1.495.437-2.346.661-2.909.13-.325.224-.56.224-.78 0-2.785-1.812-4.45-3.388-4.297-1.561.148-3.19 2.043-3.081 5.856-.053 3.66 2.127 7.162 4.235 10.548 1.895 3.044 3.685 5.919 3.685 8.658.001 5.962-4.547 7.538-6.951 7.538m-4.687-4.993c-.325.191-1.63 1.017-1.574 1.868.05.938 3.576 2.908 6.261 2.908 2.329 0 6.735-1.53 6.735-7.321 0-2.678-1.773-5.528-3.652-8.544-2.125-3.413-4.322-6.942-4.269-10.661-.113-3.948 1.62-5.916 3.278-6.073 1.686-.161 3.625 1.584 3.625 4.512 0 .262-.105.525-.238.86-.233.584-.552 1.383-.646 2.844-.151 2.223 1.642 3.614 2.532 3.939.701.247 2.262 1.916 2.813 2.523-.016-.524-.086-1.637-.393-2.249-.273-.56-.309-1.224-.36-2.23a37 37 0 0 0-.159-2.144c-.108-1.01-.41-1.305-.76-1.646-.435-.424-.927-.905-1.079-2.828-.219-2.861-2.929-5.44-5.642-5.261-1.108.077-4.739.862-4.916 7.699-.138 5.226 2.022 8.435 4.111 11.539 1.653 2.457 3.215 4.776 3.385 7.863.128 1.509-.223 2.774-1.014 3.659-.765.854-1.923 1.329-3.35 1.374l-.222.004c-2.304 0-3.326-1.254-4.073-2.171-.138-.169-.267-.327-.393-.464m-14.118 7.194c-.021-.002-.092-.002-.203-.003-3.438-.013-5.284-.446-5.487-1.289-.175-.722.855-1.646 3.15-2.825l.054-.027.119.072.02.114-.017.077-.178.032-.027-.056c-2.568 1.37-3.01 2.149-2.91 2.563.1.412.918 1.105 5.277 1.123.212 0 .224.001.247.007l-.06.209.03-.104zm-10.11 3.993-.206-.065c.298-.916.698-1.414 1.158-1.44.423-.041.897.409 1.29 1.262l-.198.09c-.345-.752-.725-1.128-1.08-1.136-.358.019-.7.478-.964 1.289m4.452 5.258c-.126-.254-.064-.613.016-1.067.135-.771.304-1.732-.366-2.656l.176-.126c.724.997.539 2.051.404 2.819-.07.399-.13.743-.036.936zm-2.174 5.41q-.513-.01-.769-.309c-.321-.371-.238-.983-.188-1.35.013-.096.024-.175.024-.229h.217c0 .06-.012.149-.026.257-.045.33-.12.883.138 1.182.129.149.328.227.608.232zm1.155-1.728c-.012-.005-1.265-.577-1.279-.704l.164-.104c.072.043.848.474 1.195.607zm-10.713.305-.173-.112c-.036-.104.041-.229.256-.417.524-.452 2.242-1.48 3.003-1.092q.39.198.342.79l-.216-.017c.041-.5-.197-.599-.381-.629-.903-.149-2.74 1.106-2.797 1.32z"></path><path fill="#FFEB00" fill-rule="evenodd" d="M63.937 90.988c-1.485.989-5.376 3.44-6.461 4.953-1.094 1.521-1.787 3.349-1.97 4.246-.192.897 1.628 5.884 3.056 8.018 1.427 2.136 3.114 3.932 4.725 5.485 1.62 1.545 3.206 2.817 4.107 4.454.901 1.646 1.394 5.144 1.711 6.78.309 1.646 1.745 5.485 4.909 6.997 3.182 1.521 6.504 2.236 7.256 3.383.741 1.139.792 4.978.634 5.177-.159.209-1.245.324-1.805 0s-2.003-.199-2.346.142c-.351.34-.877 2.276-.877 2.276s-.667.466-.817.932c-.133.465.033.971.033.971s.644-.09 1.045-.09c.409 0 .877.107.877.107s-.177.391-.202.623c-.033.232.401.382 1.119.166.71-.217 2.203-.184 2.638-.091.435.091 1.135-.274 1.135-.274s1.521.365 2.405 0c.876-.357 1.061-1.255 1.061-1.255s1.145.133 1.293.017c.15-.116.677-.931.519-1.438-.166-.499-.501-1.837-.785-2.094-.275-.266-.475-3.873-.393-5.094.076-1.222.26-2.345-.2-2.742-.468-.399-2.964-1.239-4.198-2.868-1.253-1.62-1.979-4.162-1.669-5.442.307-1.288.5-4.104-1.278-5.468-1.771-1.363-4.541-4.553-4.666-6.688-.126-2.136-.235-10.355-.235-13.206 0-2.849-.191-5.95-.191-5.95z" clip-rule="evenodd" data-source="https://football-logos.cc"></path><path fill="#060007" d="M78.303 145.82c-.246 0-.436-.06-.532-.171a.27.27 0 0 1-.067-.223 2.4 2.4 0 0 1 .157-.528 4 4 0 0 0-.725-.079 9 9 0 0 0-1.029.091l-.091.013-.027-.088c-.008-.021-.176-.543-.035-1.034.161-.498.831-.969.859-.989.013-.142.502-1.915.863-2.267.249-.247.924-.36 1.444-.36.254 0 .728.027 1.032.203.206.118.527.188.883.188.425 0 .73-.094.781-.159.126-.267.081-3.947-.64-5.053-.445-.68-1.933-1.237-3.654-1.885-1.097-.41-2.341-.877-3.557-1.458-3.162-1.512-4.633-5.288-4.968-7.076a68 68 0 0 1-.183-1.002c-.311-1.754-.781-4.401-1.518-5.746-.716-1.302-1.896-2.393-3.144-3.547q-.466-.428-.943-.881c-1.283-1.238-3.17-3.155-4.74-5.504-1.464-2.188-3.267-7.185-3.072-8.1.175-.855.85-2.703 1.989-4.286.971-1.354 4.169-3.455 5.888-4.583l.602-.396 10.589 2.027.006.083c.002.031.191 3.137.191 5.957 0 2.95.111 11.091.235 13.2.12 2.056 2.811 5.212 4.624 6.608 1.768 1.354 1.659 4.145 1.317 5.579-.316 1.307.455 3.807 1.649 5.352.863 1.14 2.349 1.883 3.331 2.374.411.204.707.354.853.478.426.368.358 1.236.28 2.241l-.043.59c-.087 1.285.13 4.759.361 5.01.219.199.435.882.673 1.686.054.18.1.337.138.451.178.569-.381 1.423-.555 1.558-.046.035-.13.069-.419.069-.294 0-.684-.037-.859-.055-.075.252-.345.93-1.101 1.238-.274.113-.63.171-1.058.171a6.7 6.7 0 0 1-1.411-.166c.027.018-.704.361-1.135.274-.193-.041-.612-.068-1.042-.068-.65 0-1.212.057-1.542.157a2.3 2.3 0 0 1-.655.106m-1.167-1.216c.417 0 .881.106.901.111l.128.028-.054.12c-.002.004-.17.378-.193.592.104.183.498.194.98.051.495-.151 1.287-.168 1.604-.168.45 0 .877.028 1.087.072.363.082 1.057-.26 1.063-.262.086-.001.745.149 1.438.149.398 0 .727-.052.975-.153.814-.333.994-1.17.995-1.178l.021-.097.1.011c.001 0 .547.063.928.063.232 0 .283-.024.289-.026.121-.095.621-.861.479-1.318-.038-.114-.085-.273-.14-.456-.156-.528-.418-1.413-.615-1.591-.343-.33-.502-4.09-.428-5.18l.043-.593c.074-.947.138-1.765-.206-2.062-.124-.105-.426-.257-.808-.447-1-.501-2.512-1.257-3.407-2.436-1.227-1.588-2.015-4.174-1.688-5.534.331-1.384.441-4.069-1.238-5.356-1.845-1.421-4.584-4.648-4.709-6.769-.123-2.111-.234-10.259-.234-13.211 0-2.555-.156-5.346-.187-5.859l-10.344-2.012-.521.381c-1.706 1.121-4.882 3.207-5.831 4.528-1.119 1.557-1.78 3.368-1.953 4.205-.184.863 1.632 5.832 3.04 7.938 1.558 2.33 3.434 4.235 4.71 5.466q.475.452.94.88c1.262 1.166 2.454 2.269 3.187 3.602.753 1.374 1.227 4.043 1.541 5.81.067.377.127.718.183 1.001.329 1.75 1.767 5.447 4.849 6.921 1.207.577 2.446 1.042 3.539 1.452 1.83.686 3.276 1.229 3.761 1.968.762 1.171.834 5.044.628 5.303-.127.169-.57.243-.952.243-.23 0-.666-.027-.992-.217-.464-.271-1.924-.164-2.215.125-.27.263-.703 1.698-.848 2.229-.05.064-.683.511-.819.937-.091.314-.028.661.01.818.194-.026.647-.079.963-.079"></path><path fill="#060007" d="m79.523 130.809-.092-.02c-.369-.096-6.043-4.836-5.979-6.81l.217.008c-.034 1.027 1.677 2.909 3.254 4.401-.196-.361-.406-.84-.602-1.284-.19-.434-.427-.974-.51-1.039l.066-.203c.134.027.248.259.644 1.156.299.684.673 1.534.905 1.724 2.213 1.842 2.184 1.897 2.136 1.99zm2.304-.672a.15.15 0 0 1-.087-.024l-.015-.027c-1.608-.417-2.673-3.781-2.673-5.049h.218c0 1.232 1.098 4.508 2.536 4.847l.088.021-.001.026c.045-.038.177-.092.437-.242l.122.181c-.369.21-.535.267-.625.267m4.223 6.168h-.217c0-1.789-.313-2.411-1.761-3.505l.131-.171c1.502 1.132 1.847 1.819 1.847 3.676m-7.937 8.551-.204-.074c.045-.122.066-.349.091-.611.07-.729.165-1.731.866-2.197.447-.299 1.079-.321 1.882-.074l-.065.206c-.735-.227-1.308-.212-1.696.048-.615.409-.704 1.351-.77 2.038-.028.288-.049.516-.104.664m4.327-3.622-.092-.197c.061-.027.153-.084.267-.152.466-.281 1.172-.711 1.638-.537q.255.091.355.387l-.206.07q-.067-.199-.223-.255c-.375-.132-1.073.291-1.452.52a4 4 0 0 1-.287.164m.115 4.149-.21-.054c.123-.458.585-1.95 1.416-1.95v.216c-.538 0-.986.964-1.206 1.788m3.716-1.37-.214-.041c.036-.188.029-.428-.054-.521a.12.12 0 0 0-.115-.04l-.016-.217c.126.001.221.031.294.113.188.211.121.625.105.706"></path><path fill="#FFEB00" fill-rule="evenodd" d="M58.014 101.941c-.435-.216-2.613-.956-3.757-3.19-1.161-2.228-1.377-4.363-2.313-5.792-.927-1.421-1.928-1.172-1.862-1.604.059-.432.359-.698.142-.931s-2.087-1.903-2.304-2.975c-.217-1.063-.359-1.944.501-2.177.852-.232 1.252-.107 1.252-.107s-.008-1.198.643-1.255c.651-.067.943-.017.943-.017s-.15-.948.518-1.005c.668-.067 1.185.116 1.185.116s.217-.457.401-.474 1.761.805 2.07 1.454.417 2.351.05 2.941c-.375.59-1.11 1.488-1.177 2.369-.058.881 4.533 5.834 5.185 6.639s4.184 2.775-1.477 6.008" clip-rule="evenodd"></path><path fill="#060007" d="m58.018 102.064-.052-.026q-.07-.033-.197-.089c-.703-.308-2.572-1.125-3.608-3.148-.575-1.104-.925-2.199-1.233-3.166-.326-1.021-.607-1.903-1.074-2.617-.537-.824-1.087-1.063-1.451-1.221-.25-.109-.467-.203-.427-.458.024-.177.084-.323.137-.453.089-.218.113-.302.033-.388a5 5 0 0 0-.174-.172c-.537-.52-1.963-1.9-2.157-2.855-.194-.953-.415-2.033.579-2.303.469-.128.95-.159 1.176-.132.019-.332.128-1.181.737-1.234.414-.043.684-.039.833-.029-.01-.189.001-.53.182-.761a.6.6 0 0 1 .446-.231 3.2 3.2 0 0 1 1.139.094c.086-.162.259-.434.447-.451.271 0 1.853.833 2.177 1.516.309.647.448 2.396.045 3.044a12 12 0 0 1-.242.36c-.386.566-.868 1.27-.92 1.959-.043.65 3.003 4.103 4.304 5.577.407.462.719.816.857.986.084.104.219.229.375.374.577.535 1.45 1.345 1.321 2.451-.126 1.091-1.174 2.185-3.205 3.344zm-8.674-16.825a3.5 3.5 0 0 0-.894.137c-.743.202-.65.943-.424 2.052.181.89 1.572 2.236 2.096 2.744.087.084.151.146.182.179.181.195.093.409.009.617a1.6 1.6 0 0 0-.124.402c-.012.08.032.114.299.229.364.159.974.424 1.546 1.301.483.738.769 1.633 1.099 2.67.306.957.652 2.043 1.219 3.131 1.001 1.956 2.818 2.751 3.502 3.05l.153.068c1.908-1.098 2.933-2.158 3.048-3.154.116-.998-.708-1.762-1.253-2.268a5 5 0 0 1-.397-.397 40 40 0 0 0-.851-.978c-2.132-2.417-4.402-5.052-4.357-5.736.057-.747.556-1.478.957-2.064q.132-.191.237-.354c.333-.535.248-2.198-.057-2.837-.287-.602-1.777-1.382-1.967-1.393-.058.006-.21.206-.308.412l-.042.088-.093-.032c-.004-.001-.502-.174-1.138-.11a.4.4 0 0 0-.295.149c-.165.209-.147.599-.125.73l.023.149-.147-.024c-.01-.001-.299-.045-.914.018-.538.047-.545 1.136-.545 1.146l.001.146-.142-.042c-.001 0-.099-.029-.298-.029m36.175 56.966-.146-.158c.474-.437.604-.438.988-.386.148.022.344.05.637.05v.216a4 4 0 0 1-.667-.051c-.324-.048-.391-.057-.812.329m.137-1.516-.035-.001.02-.217c.04.011.093-.008.158-.023.167-.04.396-.095.799.028l-.064.207c-.344-.105-.533-.061-.684-.024a1 1 0 0 1-.194.03m-13.63-27.941c-.529-1.548-3.47-8.194-4.1-8.418l.073-.203c.825.293 3.924 7.65 4.233 8.551zm-5.674-3.89h-.013l.017-.217c.207.016 1.224-.732 1.754-1.396.266-.334.255-.475.245-.509l.209-.059c.05.179-.052.42-.314.739-.479.582-1.565 1.442-1.898 1.442m.641 1.051-.057-.209c.554-.147 1.927-1.188 2.106-1.669l.204.074c-.218.586-1.687 1.652-2.253 1.804m1.366 1.178-.03-.001.02-.216c.237-.002.824-.699 1.16-1.131.2-.259.346-.446.442-.519l.131.174c-.073.055-.233.26-.402.478-.533.687-.97 1.215-1.321 1.215m1.231 1.303h-.014l.008-.216h.008c.404 0 1.014-1.009 1.128-1.41l.209.059c-.114.394-.764 1.567-1.339 1.567m20.643-9.192-.201-.082c.183-.446.15-.708.113-1.013-.063-.515-.135-1.098.814-2.633l.231-.043c-.012.069-.02.119-.05.162-.906 1.465-.84 2.008-.781 2.488.038.306.077.623-.126 1.121m1.389 1.161-.208-.064c.114-.369.074-.747.028-1.184-.059-.55-.125-1.173.069-2l.212.05c-.187.791-.122 1.395-.065 1.927.049.462.092.86-.036 1.271m1.195.595c-.011-.112-.022-.271-.035-.457-.038-.527-.137-1.927-.3-2.055l.053-.207c.239.044.343.548.463 2.247.013.183.024.341.034.452z"></path><path fill="#FFEB00" fill-rule="evenodd" d="M64.108 95.965c1.026.93 3.171 4.214 3.238 6.565.059 2.351-.501 4.088-2.246 4.245-1.736.15-3.289-1.645-3.289-1.645s-2.587 1.43-5.318 1.021c-2.738-.398-5.978-.273-6.57.091-.592.375-.976.99-1.26.914-.276-.074-.309-.771-.726-.613-.426.149-1.186 1.145-2.137.489-.952-.647-2.546-1.827-2.664-2.832-.108-1.006-.943-1.58-.943-1.58s.325-.765 1.068-.532c.751.233-.518-1.379-.76-1.404-.25-.033.367-.898 1.052-.623.684.274.284-1.005-.117-1.188-.409-.191.384-.823.834-.532.451.298.376-1.064.159-1.239-.217-.165 1.027-.415 1.511.341.476.756 1.411 1.071 1.302 1.862-.108.789.885 2.061 1.119 2.152s4.125.091 4.792-.068c.668-.157 2.455-.024 4.567-3.523 2.122-3.505 6.388-1.901 6.388-1.901" clip-rule="evenodd"></path><path fill="#060007" d="M46.459 107.363c-.246 0-.489-.081-.72-.241-1.733-1.178-2.619-2.129-2.709-2.908-.102-.947-.89-1.498-.897-1.503l-.073-.05.035-.081c.011-.026.28-.642.896-.642q.148 0 .306.049l.092.126.015-.109c.042-.171-.729-1.156-.916-1.211-.095-.012-.155-.089-.148-.191.019-.283.671-.875 1.258-.639.103.041.18.096.213-.052.057-.26-.2-.839-.417-.938-.136-.063-.199-.18-.169-.313.078-.345.754-.639 1.109-.408.072.025.096-.002.117-.061.108-.307.004-.931-.085-1.003l-.06-.047.001-.124c.064-.188.483-.197.566-.197.5 0 .935.212 1.163.567.171.272.406.485.633.692.392.355.761.692.686 1.242-.105.761.881 1.97 1.051 2.037.082.025.724.054 1.753.054 1.176 0 2.608-.04 2.973-.126q.12-.026.282-.05c.771-.12 2.374-.371 4.217-3.423 1.16-1.919 2.956-2.321 4.257-2.321 1.254 0 2.22.358 2.26.373 1.151 1.033 3.242 4.322 3.309 6.663.068 2.744-.72 4.209-2.344 4.356-1.603.146-3.02-1.289-3.323-1.617-.39.199-2.212 1.068-4.282 1.068-.351 0-.697-.025-1.028-.075a25.5 25.5 0 0 0-3.551-.245c-1.45 0-2.633.129-2.945.322-.241.151-.449.348-.632.521-.246.231-.44.415-.637.415-.234-.053-.319-.211-.402-.363-.091-.169-.159-.28-.257-.28-.172.05-.296.138-.438.239-.313.22-.697.494-1.159.494m-4.127-4.773c.217.174.819.729.913 1.599.082.703.962 1.63 2.616 2.754.578.4 1.195.057 1.626-.251.156-.111.291-.208.414-.25.295-.112.485.152.6.365.058.107.124.228.191.247.114-.006.314-.17.508-.354.19-.179.406-.383.666-.547.424-.262 1.859-.354 3.061-.354 1.214 0 2.487.087 3.583.247.32.048.655.073.996.073 2.27 0 4.234-1.071 4.253-1.082l.077-.043.058.067c.015.017 1.52 1.747 3.198 1.607 1.489-.134 2.211-1.526 2.146-4.135-.063-2.248-2.138-5.523-3.202-6.487-.007.003-.939-.339-2.149-.339-1.246 0-2.964.385-4.072 2.217-1.896 3.14-3.566 3.4-4.369 3.526q-.152.023-.266.047c-.383.091-1.795.132-3.023.132-.388 0-1.668-.005-1.833-.069-.292-.114-1.3-1.447-1.187-2.267.06-.438-.239-.709-.616-1.054-.227-.206-.483-.44-.67-.736-.277-.433-.819-.466-.979-.466-.226 0-.351.05-.371.068.204.08.271.828.153 1.158-.131.37-.309.257-.441.169-.251-.162-.74.107-.777.274.384.223.66.915.585 1.25-.049.225-.24.313-.506.206-.268-.107-.588-.01-.819.23-.11.115-.141.205-.14.225.177.013 1.07 1.037 1.051 1.405-.009.163-.149.238-.376.17-.476-.15-.8.226-.899.398"></path><path fill="#060007" d="M58.88 104.506c-1.121 0-2.423-.055-3.623-.124l-.019-.217.031.001c3.507.203 6.144.141 6.272-.149-.002 0-.02-.06-.228-.172l.104-.19c.168.091.386.235.333.422-.092.323-1.305.429-2.87.429m-6.222-2.932c-.083 0-.116-.014-.14-.035l.108-.181c.16.028 1.428-.211 2.554-.42 1.63-.302 3.477-.644 4.096-.644v.216c-.599 0-2.436.339-4.057.64-1.745.325-2.335.424-2.561.424m-4.619 4.996-.21-.056c.072-.271.331-.74.657-.887a.48.48 0 0 1 .423.004l-.097.193a.27.27 0 0 0-.237 0c-.248.111-.475.512-.536.746m-1.998-7.098-.216-.019c.028-.318-.592-.679-.925-.873a5 5 0 0 1-.221-.133l.121-.179c.051.034.125.077.209.126.426.248 1.072.624 1.032 1.078m-.314 2.172c-.326-.479-1.288-1.735-1.813-1.773l.016-.215c.725.052 1.851 1.683 1.977 1.868zm-.744 1.608c-.078 0-.147-.081-.283-.239-.282-.33-.808-.942-1.416-.817l-.044-.211c.739-.155 1.314.525 1.625.888.063.073.133.155.157.17l-.017.056.11-.003-.086.147a.1.1 0 0 1-.046.009m6.384-14.434-.18-.111-.001.001c-.034 0-.224-2.426-1.575-3.462l.132-.171c1.432 1.098 1.656 3.649 1.624 3.743m1.647-1.699-.113-.008c-.079-.057-.049-.283-.042-.327.087-1.504-.461-1.886-1.041-2.291-.219-.153-.444-.311-.637-.531l.163-.142c.176.2.381.343.599.496.603.421 1.226.856 1.131 2.49-.002.018-.003.06-.003.103h.004c0 .152 0 .179-.061.21m1.226-1.101-.072-.203c.073-.026.113-.162.108-.364-.019-.754-.643-2.13-1.347-2.339l.062-.208c.827.246 1.481 1.711 1.502 2.542.01.396-.132.53-.253.572"></path><path fill="#FFEB00" fill-rule="evenodd" d="M66.605 85.705c-1.002-.357-3.081-.698-3.949-.647-.868.041-2.646.398-3.298.232-.651-.174-1.152-.789-1.152-1.33 0-.548.234-1.736-.025-1.986-.267-.249-.518.772-.801 1.181-.276.398-.668.805-.368 1.529.292.73.601 1.669 1.711 1.662 1.102-.017 2.98-.789 3.824-.715s2.379.099 3.64.606c1.261.498.418-.532.418-.532" clip-rule="evenodd"></path><path fill="#060007" d="M66.706 86.481c-.131 0-.314-.047-.559-.144-1.038-.418-2.252-.502-3.139-.564l-.583-.04c-.42 0-1.046.163-1.709.336-.707.185-1.438.375-1.991.384-1.13 0-1.483-.894-1.767-1.613l-.046-.117c-.292-.701.03-1.146.289-1.504l.09-.126c.095-.136.185-.343.274-.545.177-.402.316-.72.532-.72h.043l.116.067c.204.197.171.725.102 1.45-.022.233-.043.452-.043.614 0 .509.491 1.069 1.072 1.225.358.091 1.275-.007 2.115-.114.437-.055.848-.107 1.15-.122.883-.048 2.991.298 3.99.654.139.145.429.526.325.744-.03.062-.099.135-.261.135m-4.28-.963q.07 0 .131.005l.466.035c.901.063 2.136.149 3.205.579.268.106.408.128.479.128.042 0 .061-.008.064-.011.026-.047-.08-.272-.25-.481-.926-.313-2.975-.652-3.858-.608-.299.014-.704.065-1.134.121-.868.11-1.791.21-2.197.108-.681-.182-1.234-.825-1.234-1.434 0-.167.021-.394.044-.635.043-.451.107-1.135-.036-1.273-.091.009-.254.382-.343.583-.095.216-.193.437-.294.582l-.092.13c-.262.363-.51.706-.264 1.296l.047.12c.273.691.583 1.475 1.55 1.475.539-.008 1.256-.195 1.951-.376.677-.178 1.317-.344 1.765-.344"></path><path fill="#FFEB00" fill-rule="evenodd" d="M64.39 90.425c-1.586 1.396-3.606 1.978-5.535 3.465-1.928 1.488-2.496 5.892-2.496 5.892s1.11-1.139 1.294-1.445c.191-.308.267-.374.267-.374l.317 1.195s.81-.448 1.069-.988c.25-.533.259-.548.259-.548s.108.831.342 1.172.526.706.526.706.785-.664.893-1.138c.109-.474.017-.024.3.541.285.565 1.979 1.221 1.979 1.221s-.192-.731-.05-1.463c.142-.722.183-1.703.183-1.703s.134 2.301 1.645 3.399 2.571 1.413 2.571 1.413-.518-1.787-.443-2.909c.075-1.138.075-1.662.075-1.662s-.092 3.374 1.796 4.803c1.878 1.421 3.264 1.58 3.264 1.58s-1.82-2.667-1.93-4.18l-.158-2.236s.735 5.444 2.43 6.515c1.694 1.063 3.64 1.13 3.64 1.13s-2.287-2.103-2.587-3.573c-.293-1.472-.109-2.742-.109-2.742s-.893 4.594 3.148 6.298c4.04 1.703.468-.573.049-3.191-.425-2.608-.066-4.005-.066-4.005s-.56 3.175.843 4.429c1.396 1.255 2.146 1.272 2.146 1.272s-1.262-2.203-1.252-4.106c.023-1.903.476-3.564.476-3.564s-.343 1.753.291 2.85c.635 1.106 1.487 1.396 1.487 1.396s-.577-4.878-.386-6.066c.185-1.197 0-1.845 0-1.845s.994.018 1.353-.39c.36-.399.419-.574.419-.574s-1.495.018-1.979-.939c-.478-.964-.895-2.692-.895-2.692s.542-1.646-.408-2.261c-.951-.623-2.413-2.293-2.522-2.634-.107-.34-3.08-3.232-3.08-3.232s.144-2.451-1.301-3.083c-1.446-.632-2.338.415-2.88.914-.544.499-.636.557-.636.557s-2.529.565-2.98.565-1.394 1.247-1.703 1.354c-.309.108-2.604.432-3.005.266-.4-.174-.793.357-.793.615 0 .266.109.665.109.665s-.401.964-.275 1.288c.125.324.242 1.762 1.377 1.762s2.63-.292 3.297.083c.668.366 1.194 1.388.777 1.87-.418.482-1.069 1.313-2.129 1.271-1.061-.05-1.695-.665-1.779-.839-.075-.166-.542-.125-.901.391-.351.508.426.864.426 1.113s-.501 1.413-.067 1.796c.434.389.392.59 1.094.572.692-.018 2.203.023 2.203.023" clip-rule="evenodd"></path><path fill="#060007" d="M78.823 105.49c-.258 0-.792-.179-1.785-.598a6 6 0 0 1-.316-.143l.194.179-.292-.01c-.08-.003-1.994-.081-3.693-1.147l-.088-.06-.209-.023c-.059-.006-1.437-.178-3.317-1.601-1.048-.794-1.5-2.157-1.694-3.247l-.002.027c-.073 1.09.434 2.854.438 2.872l.055.189-.19-.056c-.044-.013-1.095-.333-2.604-1.43-.933-.678-1.354-1.783-1.542-2.566a10 10 0 0 1-.115.805c-.136.699.046 1.408.048 1.415l.053.204-.197-.077c-.071-.027-1.737-.678-2.037-1.274a2.3 2.3 0 0 1-.156-.397c-.216.472-.841 1.005-.871 1.03l-.085.072-.07-.087s-.294-.37-.53-.713c-.147-.214-.246-.595-.302-.875l-.112.236c-.271.566-1.08 1.018-1.114 1.037l-.122.068-.296-1.12a4 4 0 0 0-.126.192c-.188.313-1.263 1.417-1.309 1.464l-.227.233.042-.322c.023-.181.596-4.465 2.537-5.963.927-.714 1.869-1.218 2.779-1.706.907-.485 1.768-.946 2.536-1.573a69 69 0 0 0-1.519-.022l-.397.004h-.007c-.587 0-.713-.135-.92-.358a3 3 0 0 0-.241-.242c-.37-.327-.172-1.064-.042-1.552a2 2 0 0 0 .073-.324c0-.044-.099-.15-.172-.227-.204-.217-.513-.545-.235-.948.442-.635.978-.619 1.09-.373.071.149.677.728 1.685.775h.002c.979 0 1.574-.693 1.969-1.153l.07-.082c.139-.161.134-.38.106-.538-.08-.442-.447-.944-.853-1.167-.216-.121-.546-.177-1.04-.177-.342 0-.718.027-1.094.054-.381.027-.764.055-1.112.055-1.029 0-1.29-1.079-1.415-1.598-.024-.1-.043-.182-.064-.233-.135-.349.224-1.242.274-1.364.005.012-.115-.36-.115-.627 0-.337.506-.908.946-.714.033.013.128.037.386.037.799 0 2.32-.23 2.54-.306.101-.035.346-.281.563-.499.504-.505.884-.862 1.176-.862.347 0 2.083-.367 2.955-.562-.013 0 .107-.091.588-.531l.151-.142c.415-.397 1.044-.997 1.925-.997q.45 0 .922.206c1.496.654 1.371 3.085 1.365 3.188.467.403 2.965 2.845 3.075 3.194.092.285 1.523 1.949 2.479 2.576 1.006.651.479 2.305.453 2.384.016 0 .426 1.68.887 2.611.439.869 1.818.878 1.876.878h.15l-.042.143c-.007.02-.076.208-.44.612-.305.347-.997.412-1.299.423.045.251.112.849-.026 1.756-.188 1.161.379 5.988.385 6.037l.021.17-.163-.055c-.036-.012-.899-.316-1.546-1.445-.245-.424-.35-.937-.385-1.412a15 15 0 0 0-.18 2.075c-.01 1.852 1.226 4.029 1.237 4.051l.096.166-.191-.004c-.033-.001-.808-.032-2.217-1.299-.304-.272-.521-.627-.671-1.02q.032.241.074.499c.168 1.052.851 2.038 1.35 2.757.403.585.579.851.484 1.03q-.063.117-.248.117m-4.998-7.016.214.036a9 9 0 0 0 .1 2.664q.038.157.088.326c.326.929 1.319 2.056 1.883 2.643.294.203.64.394 1.013.551.939.396 1.48.581 1.701.581.046 0 .061-.009.061-.009.019-.084-.256-.481-.478-.8-.481-.696-1.209-1.747-1.385-2.847-.423-2.601-.079-3.991-.063-4.049l.211.045c-.005.032-.532 3.13.809 4.331.926.832 1.562 1.108 1.868 1.2-.313-.596-1.162-2.362-1.154-3.954.023-1.896.475-3.575.479-3.592l.211.049c-.004.017-.327 1.727.279 2.775.439.768.991 1.131 1.263 1.272-.105-.925-.535-4.836-.363-5.905.179-1.154.005-1.792.003-1.799l-.039-.139.146.002h.002c.119 0 .967-.011 1.268-.353.162-.181.261-.313.319-.402-.438-.03-1.487-.185-1.895-.991-.478-.965-.886-2.644-.903-2.715.008-.074.507-1.633-.361-2.196-.927-.607-2.438-2.29-2.567-2.691-.079-.237-1.914-2.081-3.053-3.188-.03-.107.089-2.467-1.269-3.061a2.1 2.1 0 0 0-.834-.188c-.793 0-1.36.542-1.775.938l-.153.145c-.535.491-.641.563-.651.569-.139.037-2.581.582-3.038.582-.225 0-.686.461-1.022.798-.308.31-.504.501-.644.55-.265.092-1.819.318-2.612.318-.228 0-.382-.018-.471-.054-.312-.135-.643.321-.643.515 0 .249.104.632.104.636-.152.427-.358 1.071-.279 1.277.022.058.045.148.072.261.121.5.347 1.432 1.205 1.432.343 0 .72-.027 1.096-.054a16 16 0 0 1 1.109-.054c.532 0 .896.065 1.145.205.465.254.869.809.961 1.317.052.291-.001.539-.156.717l-.069.081c-.421.49-1.057 1.23-2.066 1.23-1.129-.051-1.834-.658-1.952-.902-.235-.026-.492.087-.715.405-.166.242-.023.425.215.677.124.132.231.245.231.375 0 .079-.034.205-.081.379-.11.411-.293 1.097-.023 1.336.108.098.188.183.256.256.19.206.27.291.684.291l.48-.005c.752 0 1.808.029 1.808.029l.275.008-.206.181c-.839.739-1.788 1.247-2.791 1.784-.903.483-1.837.982-2.75 1.686-1.563 1.207-2.225 4.434-2.402 5.485.396-.415.926-.987 1.041-1.179.192-.307.274-.387.289-.399l.132-.116.325 1.225c.229-.144.72-.486.903-.868.252-.537.261-.552.261-.552l.16-.294.044.331c.001.008.108.81.324 1.125.162.233.351.481.451.61.249-.226.7-.688.773-1.006.05-.218.064-.283.165-.283.097 0 .115.087.136.188.026.125.074.358.202.612.192.383 1.188.864 1.733 1.093-.048-.274-.109-.787-.008-1.307.139-.706.181-1.677.182-1.687l.091-2.142.126 2.14c.001.022.149 2.264 1.601 3.318 1.109.806 1.979 1.188 2.347 1.329-.133-.502-.452-1.827-.391-2.745a33 33 0 0 0 .074-1.585l.109-.07.101.003.008-.003c-.001.625.081 3.452 1.752 4.716 1.375 1.042 2.49 1.397 2.965 1.51-.438-.672-1.711-2.728-1.805-4.016l-.158-2.236.216-.022c.007.054.748 5.406 2.38 6.438 1.263.792 2.682 1.023 3.286 1.089q-.155-.152-.38-.386c-.929-.648-1.584-1.572-1.933-2.73a3 3 0 0 1-.085-.303c-.358-1.492-.123-2.736-.113-2.788m-3.02.648.02.27c.032.449.223 1.008.471 1.567a21 21 0 0 1-.491-1.837"></path><path fill="#060007" d="M63.544 88.991v-.216c1.188 0 2.047-.143 2.918-.873 1.232-1.054 1.204-2.385.962-3.317-.379-1.464-1.409-2.595-1.724-2.66l.044-.211c.43.089 1.499 1.311 1.89 2.818.257.99.286 2.408-1.031 3.536-.923.772-1.821.923-3.059.923"></path><path fill="#060007" d="m64.402 90.532-.024-.214c2-.224 3.993-1.45 4.844-2.982.561-1.007.597-2.078.104-3.096a.7.7 0 0 1-.129-.183l.203-.077c.012.029.061.086.081.111.564 1.138.526 2.278-.069 3.349-.883 1.59-2.944 2.861-5.01 3.092m7.436-2.221-.076-.029c-.092-.044-.086-.109-.042-.619.059-.689.182-2.124-.177-2.537a.28.28 0 0 0-.199-.104l.014-.215a.5.5 0 0 1 .35.178c.387.444.32 1.625.229 2.696-.008.088-.016.179-.021.257.58-.583 1.015-1.259 1.312-1.72.314-.491.456-.72.636-.661.194.063.228.371.095 2.414.035-.02.429-.295 2.136-2.52.141-.182.141-.182.159-.195l.084-.055.063.079c.274.352.468 1.223.434 1.873.193-.223.445-.499.764-.842.217-.233.395-.424.458-.506l.109-.145.075.165c.289.634.405 1.221.339 1.697q.345-.301.881-.646l.208-.01-.012.216-.144-.008c-.436.306-.805.595-1.033.84l-.062.066-.176-.073.041-.107c.174-.434.112-1.042-.172-1.729-.089.1-.214.234-.354.386-.262.283-.723.779-.987 1.111q-.079.272-.243.392l-.173.123v-.211c0-.081.071-.208.219-.4q.017-.068.028-.148c.084-.583-.083-1.399-.296-1.79l-.037.049c-1.922 2.503-2.251 2.65-2.419 2.588-.044-.017-.116-.066-.106-.213.048-.724.135-2.069.033-2.208-.016.043-.201.331-.364.585-.331.514-.831 1.292-1.517 1.926zm-13.81 9.663-.216-.017c.067-.869.73-2.267 1.392-2.935l.154.151c-.621.628-1.267 1.989-1.33 2.801m1.539-.35-.102-.038c.279-.856.642-1.868.888-2.151l.164.141c-.1.116-.341.532-.827 2.02l-.22-.02zm1.723.576c-.003-.413.112-.759.223-1.094.153-.462.286-.862.071-1.338l.199-.089c.249.553.097 1.011-.063 1.495-.106.318-.215.647-.211 1.024zm2.325-.971c-.042-.22-.034-.836-.029-1.287l.002-.279h.217l-.002.281c-.005.391-.012 1.045.025 1.244zm1.968.389-.085-.078c-.257-.333-.38-4.065-.052-4.598l.185.113c-.261.424-.187 3.464-.014 4.206.049-.196.124-.645.206-1.671.023-.176.541-2.37.774-2.659l.169.135c-.175.216-.696 2.305-.728 2.547-.154 1.917-.287 1.956-.384 1.984zm5.702-3.058a.25.25 0 0 1-.115-.03c-.47-.238-1.329-2.161-1.329-3.204h.218c0 1.171.982 2.996 1.227 3.018-.006-.002.084-.111-.032-.833-.053-.352.229-2.482.488-2.758l.158.147c-.158.17-.494 2.169-.432 2.578.127.791.03.974-.067 1.045a.2.2 0 0 1-.116.037m4.817.093-.095-.039c-2.222-.908-2.207-2.224-2.186-4.216l.005-.654h.217l-.005.656c-.021 1.917-.034 3.095 1.886 3.943l-.002-.016c-.336-3.433-.104-3.542.021-3.601l.092.196c-.055.063-.176.535.103 3.384.021.224.021.224.008.253zm-6.069 6.069c-.691-.657-.672-2.429-.66-3.487l.002-.339h.217l-.003.341c-.011 1.023-.028 2.737.595 3.329zm2.811 1.305-.202-.359c-.747-1.315-1.24-2.184-1.24-3.932h.218c0 1.691.456 2.494 1.211 3.825l.203.36zm4.513 1.637c-.498 0-1.01-.269-1.477-.776-.787-.854-1.332-2.263-1.277-2.906l.218.018c-.045.516.418 1.873 1.22 2.742.426.462.881.706 1.316.706zm-1.512-4.289h-.217c0-.297-.066-.51-.137-.736-.121-.39-.248-.794-.02-1.612l.209.057c-.211.757-.1 1.114.018 1.492.073.231.147.47.147.799m2.121.672c-.393-1.835-.396-1.856-.337-2.195.034-.189.084-.477.084-1.326h.217c0 .869-.053 1.167-.087 1.364-.052.295-.053.301.335 2.113zm-5.622-19.309-.16-.129c1.058-.559 1.146-.995 1.194-1.229.021-.1.04-.194.131-.239l.096.194-.048-.097.06.088c-.009.012-.018.06-.025.097-.052.251-.159.773-1.248 1.315m-.721-1.049-.169-.137c.489-.6.719-1.25.613-1.739-.074-.336-.301-.602-.678-.789-.237-.116-.681.292-.975.567a4 4 0 0 1-.307.271l-.129-.173c.079-.059.177-.151.287-.255.378-.353.852-.79 1.221-.603.438.218.704.533.791.937.121.553-.124 1.271-.654 1.921"></path><path fill="#FFEB00" fill-rule="evenodd" d="M65.008 79.998c-.017.017 0 .042.034.042.743.017 1.227-.091 1.778-.033.667.066 1.202-.831 1.202-.839.025-.025.008-.042-.033-.025-.518.133-1.619-.158-1.995.042-.16.089-.427.306-.986.813" clip-rule="evenodd"></path><path fill="#060007" d="M65.204 80.149q-.002 0 0 0l-.236-.004-.094-.151.057-.073c.542-.491.833-.731 1.007-.831.2-.107.618-.093 1.087-.054.365.03.741.05.936 0h.073l.127.132-.064.075c.03 0-.516.874-1.207.874-.509-.041-.653-.016-.96.002-.22.015-.456.03-.726.03m1.232-.93q-.28 0-.393.06c-.139.08-.383.278-.802.654.25-.001.47-.016.675-.029.321-.021.606-.04.914-.006h.004c.438 0 .806-.385.983-.621-.216.02-.52-.002-.81-.026-.199-.016-.397-.032-.571-.032" data-source="https://football-logos.cc"></path><!-- source: https://football-logos.cc --></svg>