<svg xmlns="http://www.w3.org/2000/svg" viewBox="128.58 163.39 338.11 515.11"><!-- Source: https://football-logos.cc --><path d="M398.766 295.549c5.642 4.288 12.634 6.735 20.98 6.746 10.731.011 17.067-3.993 25.404-9.73 14.353 37.905 21.493 72.822 21.541 113.42.138 116.92-65.855 220.162-169.03 272.515-103.351-52.64-168.937-156.083-169.076-272.893-.048-40.871 7.336-75.717 21.76-113.806 8.841 6.406 15.619 10.207 27.054 10.22 7.858.008 14.52-2.206 20.043-6.049v-.65z" style="fill:#2b2b6e;fill-rule:evenodd" data-source="https://football-logos.cc"></path><path d="m398.715 252.347.542.218c.867.489 1.412 1.465 1.412 2.496.002 1.462-1.19 2.653-2.706 2.652-.162 0-.325 0-.489-.054l-.077 117.299-.973 8.974c-8.346 48.451-52.796 84.468-92.453 84.423l-12.734-.013c-38.228-.044-88.541-37.339-93.148-84.556l-.5-9.053-.192-117.245c-.216-.002-.378-.002-.54-.002-1.519-.002-2.713-1.194-2.715-2.659 0-1.139.865-2.167 1.786-2.546.109-.378.163-.757.16-1.19-.001-1.184 73.255-13.476 101.379-13.114s101.138 12.192 101.138 13.34z" style="fill:#e30016;fill-rule:evenodd"></path><path d="M228.154 244.49s52.165-7.969 66.614-8.354c14.448-.385 71.45 8.91 71.45 8.91l.22 185.845-138.065-.154z" style="fill:#1b1918;fill-rule:evenodd"></path><path d="M297.678 461.736c-51.81-.058-93.858-42.114-93.918-93.988l-.136-114.855 54.943-21.349 31.72-2.941 25.76-2.573 10.903 5.082-14.276 10.785-1.064-14.598-8.297 11.526-2.988-11.316-5.178 10.116-6.509-9.332-2.504 11.704-8.704-8.999.117 12.732-12.341-7.331 4.988 13.693-11.778-2.725 6.882 9.732-10.19-1.06 9.62 8.517-13.723 2.911 13.554 4.893-14.946 8.711 16.53.885-9.472 10.885 13.654-2.64-6.65 13.544 12.781-6.87-1.829 11.707 6.932-5.034c-.7 4.119-1.4 8.238-2.208 12.356l3.528 4.937 1.689 7.047-.108.814c-.758.27-1.787 1.027-2.816 2.165l-1.52-3.634-2.054 4.877-9.184-21.692-5.999 14.195-8.151-19.253-9.133 21.672-2.066-4.826-6.215 14.358.015 12.737-8.13-.008.094 78.814 8.128.008.005 3.09 34.575.038 4.601-3.03 48.72.001 4.718 3.096 34.576.037-.113-94.208-6.248-14.804-2.054 4.822-9.183-21.693-8.108 19.233-6.033-14.207-9.186 21.672-2.01-4.882-1.297 3.09a4.8 4.8 0 0 0-.868-.545c-2.928-1.575-4.985 1.241-7.476 2.106l5.023-13.328-4.678-15.834 7.972 5.863-1.803-11.71 12.799 6.899-6.736-13.559 13.713 2.672-9.55-10.907 16.582-.848-15.021-8.744 13.596-4.864-14.799-3.268 7.984-10.056-11.455.74 7.674-10.655-12.617 1.84 2.399-12.04 41.374 10.243 26.732 9.081.191 114.502c.06 51.875-41.943 93.836-93.75 93.779z" style="fill:#fff;fill-rule:evenodd"></path><path d="M306.382 294.431q-.95.39-1.936.695a23.7 23.7 0 0 1-7 1.042l-1.092-.03c-12.74-.628-22.833-11.183-22.848-24.1-.015-13.314 10.678-24.094 23.883-24.078 13.208.015 23.926 10.818 23.94 24.13.014 10.122-6.352 18.778-14.947 22.341" style="fill:#ffe500;fill-rule:evenodd"></path><path d="m315.862 303.37-2.821-2.064-1.41-1.03-1.741-5.912c1.082-.648 2.112-1.298 3.14-2.055a62 62 0 0 0 2.815-2.491c.92-1.029 1.841-2.111 2.652-3.249a25 25 0 0 0 3.029-5.851c1.3-.595 2-3.141 1.079-4.118.268-1.517.428-3.035.427-4.606-.025-22.262-21.116-25.916-26.57-25.663-.073.003-24.562 1.004-24.534 25.604.01 8.131 3.811 15.345 9.725 20.067.542.434 1.085.814 1.628 1.195-.486 2.708-.916 5.419-1.347 8.13l-.27.16-4.926 3.627 1.72-11.11-11.21 6.06 5.891-12.029-12.297 2.426 8.604-9.909-14.524-.775 13.32-7.736-11.6-4.188 12.351-2.696-9.23-6.918 9.934 1.256-8.08-9.753 11.713 3.865-5.749-14.322 11.92 8.358-.698-13.122 8.202 9.507 2.739-13.117 5.597 10.812 4.8-11.695 2.112 12.15 9.933-11.773-1.758 14.434 11.255-6.751-4.523 11.687 12.87-3.713-6.563 8.243-1.352 1.742 11.236.287-4.75 6.342-2.651 2.545 12.36 2.724-11.593 4.16 13.34 7.767-14.523.742 8.63 9.929-12.305-2.452 5.92 12.04-9.272-5.052-1.952-1.031 1.692 11.113z" style="fill:#ffe500;fill-rule:evenodd"></path><path d="M398.605 251.317c.002.38.057.705.11 1.03l.542.218c.867.489 1.412 1.465 1.412 2.496.002 1.462-1.19 2.653-2.706 2.652-.162 0-.325 0-.489-.054 0 0-44-18.913-99.907-18.975-57.576-.065-100.17 18.804-100.17 18.804-.216-.002-.378-.002-.54-.002-1.519-.002-2.713-1.194-2.715-2.659 0-1.139.865-2.167 1.786-2.546.109-.379.163-.757.16-1.19-.001-2.333-1.033-3.58-2.497-4.449-.271.108-.596.216-.921.215a2.667 2.667 0 0 1-2.659-2.659c0-.759.323-1.409.866-1.896-.548-4.987-3.782-36.429-3.891-36.918-.382-2.114-1.2-5.639-4.396-4.99l-1.03.377-1.957-6.127-3.63 1.243-3.481-10.249c2.168-.757 4.334-1.514 6.555-2.27l1.74 5.532c1.518-.541 3.088-1.136 4.606-1.675l-1.74-5.37c2.22-.756 4.442-1.458 6.661-2.16l1.741 5.369c1.518-.488 3.143-.918 4.714-1.35l-1.85-5.477a300 300 0 0 1 6.61-1.998l3.262 10.302-.432.163-2.762.81 2.012 6.127-1.41.323c-3.033 1.19-4.383 4.386-2.755 7.37l.272.38c2.005-.649 4.008-1.297 6.067-1.892l1.578 5.423 4.712-1.457-1.469-5.316c2.656-.755 5.31-1.402 7.964-2.104l1.307 5.259c1.68-.377 3.305-.7 4.985-1.078l-1.2-5.26c2.44-.54 4.877-1.186 7.37-1.725-.437-3.037-3.096-5.478-6.347-5.32l-1.41.27-.98-5.965c-1.844.38-3.306.7-4.39.972l-1.91-10.627c1.734-.43 3.523-.917 5.256-1.295l1.253 5.694c1.246-.27 2.439-.595 3.685-.918l-1.037-5.639c1.843-.377 3.74-.754 5.58-1.13l.983 5.745c1.192-.27 2.438-.54 3.629-.809l-.982-5.583 2.764-.54 2.925-.484.982 5.637c1.246-.214 2.493-.322 3.739-.538l-1.037-5.692c1.843-.268 3.74-.591 5.582-.861l.981 5.692c1.247-.16 2.493-.268 3.793-.429l-.764-5.746a174 174 0 0 1 5.364-.59l1.855 10.627c-1.138.107-2.71.321-4.552.645l1.037 5.963-1.246.161c-3.088.972-4.765 4.223-4.11 7.205 2.6-.322 5.202-.645 7.748-.967l.548 5.475c1.79-.16 3.577-.375 5.364-.536l-.548-5.53c2.818-.268 5.636-.48 8.453-.695l.55 5.53c1.787-.106 3.521-.213 5.31-.319l-.278-5.53a405 405 0 0 1 8.074-.37c-.005-3.362-2.283-5.965-5.318-6.347l-1.247.052-.007-6.07c-1.898.051-3.469.103-4.606.157l-.012-10.787c1.787-.107 3.576-.268 5.364-.32l.278 5.8c1.3-.052 2.546-.213 3.792-.267l-.06-5.744c1.897-.052 3.793-.05 5.69-.102l.006 5.8c1.246-.054 2.493-.16 3.74-.16l-.061-5.69c1.951.002 3.848.003 5.744.007l.007 5.69c1.246.002 2.493.11 3.74.168l-.008-5.802c1.898.057 3.794.06 5.637.116l-.048 5.746c1.301.055 2.548.22 3.848.275l.21-5.8c1.788.057 3.63.221 5.42.332l.013 10.786c-1.139-.055-2.657-.11-4.5-.167l.063 6.07-1.41-.054c-3.033.375-5.306 2.975-5.303 6.064 2.655.383 5.366.494 8.076.66l-.32 5.528 5.366.332.536-5.528c2.818.219 5.637.438 8.401.713l-.482 5.528c1.789.164 3.576.384 5.365.548l.481-5.473c2.602.327 5.205.655 7.751.984.702-2.98-.983-6.236-4.072-7.214l-1.247-.164 1.022-5.962c-1.842-.327-3.414-.544-4.553-.655l1.831-10.622c1.788.164 3.577.383 5.366.603l-.752 5.744c1.3.164 2.546.275 3.794.439l.915-5.69c1.896.272 3.794.599 5.637.872l-1.024 5.69c1.246.218 2.493.329 3.74.547l.97-5.637 2.763.492 2.927.545-1.022 5.581c1.246.273 2.439.545 3.685.818l.969-5.744c1.842.382 3.74.763 5.583 1.144l-1.077 5.637c1.301.326 2.494.653 3.74.924l1.24-5.69c1.734.382 3.47.871 5.259 1.306l-1.885 10.623c-1.084-.271-2.602-.598-4.39-.98l-.969 5.96-1.41-.271c-3.252-.166-5.904 2.323-6.334 5.305 2.494.545 4.933 1.198 7.372 1.742l-1.186 5.257c1.68.382 3.307.709 4.987 1.09l1.295-5.256c2.655.707 5.312 1.36 7.967 2.122l-1.455 5.31 4.715 1.47 1.567-5.42a255 255 0 0 1 6.07 1.905l.217-.38c1.623-3.087.209-6.396-3.043-7.43l-1.085-.489 1.89-5.905-3.09-.98 3.239-10.294c2.223.652 4.392 1.305 6.56 2.012l-1.781 5.473c1.571.436 3.143.871 4.716 1.36l1.727-5.364c2.223.707 4.446 1.414 6.669 2.176l-1.729 5.364c1.52.543 3.09 1.141 4.608 1.686l1.73-5.528 6.504 2.285-3.402 10.24-3.686-1.251-1.89 5.962-.38-.165c-3.632-1.087-4.712 2.381-5.034 4.927-.053.272-1.018 9.432-1.983 18.699l-1.821 17.995c.596.542.87 1.355.87 2.114.001 1.464-1.027 2.655-2.49 2.653-.379 0-.812-.109-1.193-.273-1.516.813-2.598 2.166-2.596 4.496z" style="fill:#1b1918;fill-rule:evenodd"></path><path d="m338.804 181.868.916-4.985c8.78 1.365 23.144 3.928 31.817 5.672l-.861 4.987c-5.962-1.308-25.855-4.855-31.872-5.674m53.609 11.118 1.565-4.985c6.181 1.958 13.934 4.461 20.223 6.582l-1.566 4.985c-3.904-1.469-16.265-5.546-20.222-6.582m-33.193-23.129-1.842-.327-1.951-.326-.97 5.581c-1.843-.328-3.74-.492-5.582-.819l1.022-5.69c-1.247-.218-2.493-.438-3.74-.602l-.914 5.69c-1.896-.272-3.794-.436-5.69-.656l.75-5.8c-1.137-.162-2.33-.272-3.468-.381l-1.56 8.778c7.586.931 33.387 5.513 40.813 7.201l1.508-8.724c-1.139-.273-2.223-.6-3.416-.871l-1.24 5.689c-1.842-.382-3.685-.927-5.527-1.307l1.022-5.637c-1.193-.271-2.44-.49-3.686-.762l-.968 5.744c-1.843-.382-3.687-.871-5.53-1.2zm31.939 16.298c5.204 1.578 21.955 7.017 27.052 8.811l2.808-8.453c-1.518-.542-3.144-1.087-4.662-1.631l-1.783 5.473c-2.114-.707-4.283-1.577-6.45-2.284l1.78-5.364-4.878-1.578-1.674 5.364c-2.223-.707-4.39-1.251-6.613-1.958l1.836-5.473c-1.572-.435-3.198-.98-4.718-1.414zm-32.032 42.515-2.82-.6c.316-9.376-1.92-20.871-5.497-21.417-4.012-.818-9.85 10.776-12.443 18.253l-2.872-.382c4.265-13.167 12.112-22.806 16.013-22.043 4.013.654 8.09 12.422 7.62 26.189m32.146 8.925c4.054-8.451 9.681-15.274 14.122-18.197l-.429 4.065c-4.601 3.898-8.387 9.748-10.982 15.057z" style="fill:#bf942d;fill-rule:evenodd"></path><path d="M352.731 227.308c-4.5-.873-8.781-1.582-13.388-2.238 2.592-7.803 7.353-15.007 9.467-14.571 2.059.328 4.074 8.677 3.921 16.809m52.131-2.543-1.716 17.125a283 283 0 0 0-8.294-3.043c2.758-5.636 6.76-11.214 10.01-14.082m-5.168 30.401c0-.65-.38-1.3-.868-1.626-31.447-12.286-65.596-19.046-101.363-19.086-35.604-.038-69.683 6.589-100.992 18.75-.704.217-1.354.975-1.352 1.733 0 .976.76 1.735 1.735 1.737.272 0 .543 0 .813-.107 31.85-12.432 65.605-18.627 99.8-18.59 35.172.04 68.832 6.69 99.79 18.759.217.109.435.164.705.164.976 0 1.733-.757 1.732-1.734" style="fill:#bf942d;fill-rule:evenodd"></path><path d="M192.502 242.522c-.812.378-1.57.757-1.57 1.786a1.695 1.695 0 0 0 1.682 1.683c.272 0 .488-.053.76-.216 32.284-12.54 67.39-19.439 104.08-19.397 35.604.04 70.728 6.584 103.908 19.521.272.164.705.327 1.03.328.868 0 1.518-.703 1.516-1.68-.002-.596-.217-1.193-.598-1.464-32.802-12.882-68.522-20.024-105.86-20.065-37.014-.042-72.392 6.856-104.948 19.504m60.148-50.236-.109-.812c1.843-.268 3.686-.484 5.527-.699l.494 5.476c2.818-.323 5.635-.591 8.453-.857l-.494-5.53c1.734-.161 3.523-.322 5.31-.43l.55 5.53c2.762-.212 5.58-.371 8.399-.532l-.333-5.528a196 196 0 0 1 5.69-.265l.056 1.518-1.997 6.664a301 301 0 0 0-28.068 2.409zm55.925-2.104.052-1.518c1.896.056 3.794.166 5.637.277l-.265 5.53c2.818.165 5.582.331 8.4.55l.536-5.527c1.733.11 3.522.274 5.312.438l-.483 5.529c2.82.274 5.637.55 8.455.877l.482-5.474c1.843.22 3.686.437 5.528.71l-.107.813-3.46 6.935a302 302 0 0 0-28.075-2.471zm55.338 6.62.324-1.355c1.68.329 3.36.818 5.04 1.2l-1.24 5.256c2.656.598 5.366 1.143 8.023 1.798l1.293-5.257c1.627.436 3.254.871 4.934 1.307l-1.511 5.31c2.601.707 5.151 1.578 7.753 2.339l1.51-5.42c1.41.436 2.82.872 4.175 1.36a784 784 0 0 0-4.545 7.097 290 290 0 0 0-24.881-6.533zm-39.116 10.148.642-7.534c4.01.33 8.02.767 11.978 1.313l-.215 1.41-2.92 5.797a266 266 0 0 0-9.485-.987m-13.067-6.302.106-2.168c4.065.166 8.075.443 12.085.773l-.641 7.586a608 608 0 0 0-9.864-.715zm18.875 14.547.645-6.015 2.275.273zm-12.951-.556c3.793.221 7.587.551 11.326.989l.753-6.612a282 282 0 0 0-11.653-1.044zm-3.747-6.888 2.6.166-.37 6.612zm9.555 15.405.535-6.45c1.896.165 3.739.329 5.581.548l-3.08 6.177zm-7.052-7.055c2.005.111 4.01.275 6.014.441l-.533 6.503-3.47-.274z" style="fill:#bf942d;fill-rule:evenodd"></path><path d="m397.035 251.858-.002-.434a6.84 6.84 0 0 1 2.379-5.202c-31.663-12.121-66.028-18.774-101.957-18.814-35.93-.04-70.389 6.534-102.077 18.694 1.357 1.25 2.28 3.092 2.282 5.099l-.052.541c31.038-11.835 64.683-18.303 99.853-18.263 34.087.039 67.748 6.2 99.574 18.379m-196.45-48.735c1.354-.486 2.762-.918 4.116-1.35l1.578 5.422c2.602-.755 5.148-1.62 7.748-2.322l-1.525-5.313c1.68-.432 3.306-.865 4.93-1.295l1.307 5.258c2.655-.646 5.31-1.186 7.964-1.779l-1.198-5.26c1.68-.377 3.359-.863 5.04-1.186l.326 1.355-.86 7.1c-8.342 1.834-16.63 3.938-24.866 6.476-1.9-2.983-3.583-5.533-4.56-7.106m19.848 12.219-1.905-7.266a254 254 0 0 1 11.107-2.643l.109.488-.858 7.37a484 484 0 0 0-8.453 2.05M202.36 192.99l-1.685-5.152c-6.772 2.053-13.488 4.212-20.152 6.535l1.633 5.152c6.554-2.649 13.325-4.864 20.205-6.535m1.238-7.046-2.72-8.513c-1.57.432-3.142.973-4.711 1.405l1.794 5.476c-2.168.702-4.39 1.242-6.555 1.943l-1.74-5.367-4.822 1.566 1.74 5.368c-2.167.702-4.28 1.568-6.446 2.27l-1.74-5.477c-1.518.54-3.143 1.08-4.659 1.62l2.828 8.46c5.092-1.782 21.83-7.185 27.03-8.751m.279 51.333-.488.16-2.166.758c-2.663-5.423-6.68-11.608-11.4-15.57l-.33-4.011c4.502 2.986 10.254 9.985 14.384 18.663" style="fill:#bf942d;fill-rule:evenodd"></path><path d="m191.85 241.652-1.809-17.671c3.257 2.876 7.49 8.843 10.26 14.592-2.545.865-5.254 1.892-8.45 3.08m6.727-39.941c.38.76 5.43 8.57 10.37 16.11 4.126 6.293 8.198 12.531 9.664 14.754-5.202 1.513-9.318 2.863-13.814 4.376-3.369-6.942-8.743-15.241-15.576-19.585-.658-6.235-1.206-11.438-1.316-12.199-.382-2.492-1.305-4.88-3.257-5.585 4.82-1.893 9.75-3.459 14.733-4.863-1.677 1.841-2.16 4.496-.804 6.992m197.64.222c1.352-2.6.805-5.366-1.039-7.157a360 360 0 0 1 15.125 4.95c-2.058.649-3.085 3.086-3.407 5.743-.16.812-.697 6.287-1.394 12.736-6.607 4.276-11.8 12.291-15.152 19.062-4.39-1.413-8.837-2.827-14.149-4.405 1.352-2.113 5.518-8.45 9.63-14.84 4.976-7.584 10.007-15.44 10.386-16.09m-68.095 21.714-.65-.108 15.95-31.638c1.458-2.925.696-6.559-1.8-8.62 6.992 1.092 18.756 3.165 25.801 4.583-3.033 1.078-4.98 4.221-4.652 7.474l4.215 35.13c-2.385-.6-4.715-1.09-6.883-1.58.47-13.605-3.448-26.564-8.433-27.33-4.878-.98-12.995 9.852-17.097 22.857-2.06-.273-4.175-.493-6.451-.768m-72.233-41.871c-6.014.806-25.899 4.307-31.804 5.6l-.874-4.987c8.669-1.725 23.027-4.257 31.805-5.602zm-20.444-12.058 1.035 5.585c-1.843.323-3.684.81-5.526 1.186l-.982-5.746c-1.246.268-2.493.484-3.684.754l1.036 5.639c-1.841.377-3.684.916-5.525 1.295l-1.309-5.694c-1.137.27-2.274.594-3.412.864l1.581 8.73c7.423-1.674 33.213-6.197 40.798-7.11l-1.581-8.783c-1.193.105-2.33.214-3.523.375l.82 5.8c-1.896.216-3.792.377-5.688.645l-.928-5.693c-1.247.161-2.493.377-3.74.592l1.038 5.694c-1.843.321-3.74.482-5.582.805l-.982-5.583-1.843.268zm23.854 54.72-2.872.43c-2.555-7.538-8.422-19.144-12.486-18.334-3.52.537-5.675 11.863-5.447 21.241l-2.818.54c-.45-13.715 3.602-25.311 7.502-25.956 4.01-.756 11.878 8.902 16.122 22.08" style="fill:#bf942d;fill-rule:evenodd"></path><path d="M255.508 224.976c-4.66.645-9.32 1.399-13.87 2.206-.173-7.969 1.767-16.856 4.26-17.286.974-.161 2.114.653 3.362 2.117 2.28 3.364 4.616 8.083 6.248 12.963" style="fill:#bf942d;fill-rule:evenodd"></path><path d="m227.876 229.986 4.13-34.795c.322-3.252-1.633-6.4-4.668-7.487 7.042-1.4 18.745-3.447 25.79-4.523-2.49 2.058-3.245 5.688-1.778 8.616l15.97 31.675c-2.277.268-4.605.536-7.044.859-4.188-13.015-12.276-23.865-17.26-22.893-4.876.752-8.765 13.54-8.26 27.037-2.438.486-4.713 1.026-6.88 1.511m53.427-50.242-.005-5.096c8.887-.152 23.41-.136 32.244.037l.06 5.096c-6.07-.225-26.228-.247-32.3-.037m17.927-9.736.049-5.693-3.848-.003.007 5.691c-1.843.052-3.74.158-5.636.211l.047-5.801c-1.246 0-2.548-.002-3.794.05l.062 5.746c-1.896.052-3.793.267-5.69.32l-.224-5.801c-1.192.054-2.383.16-3.523.213l.012 8.89c7.585-.372 33.76-.342 41.349.045l-.012-8.888c-1.19-.056-2.33-.166-3.521-.222l-.211 5.8c-1.896-.055-3.793-.275-5.69-.332l.046-5.744c-1.246-.057-2.546-.059-3.792-.059l.06 5.8c-1.897-.057-3.793-.168-5.69-.223zm10.141 52.318-2.87-.112c-1.366-9.271-5.499-20.223-9.184-20.175-4.01-.058-7.734 12.242-8.972 20.1l-2.872.106c1.882-13.658 7.937-24.491 11.84-24.432 4.064-.05 10.145 10.852 12.058 24.513" style="fill:#bf942d;fill-rule:evenodd"></path><path d="M302.814 222.101c-4.66-.058-9.051-.063-13.494-.015 1.183-8.074 4.642-15.931 6.756-15.874 2.059-.052 5.481 7.811 6.738 15.89" style="fill:#bf942d;fill-rule:evenodd"></path><path d="m307.164 188.825 10.283 33.943c-2.44-.164-4.823-.276-7.1-.387-1.86-13.499-7.944-25.594-13.036-25.49-4.932-.114-10.988 11.913-12.814 25.353-2.33.105-4.66.21-7.1.371l10.204-33.812a8.2 8.2 0 0 0 .268-2.005c-.003-2.657-1.469-4.935-3.585-6.183 7.1-.156 18.969-.142 26.175.029a7.05 7.05 0 0 0-3.568 6.176c0 .704.11 1.354.273 2.005M177.419 318.608c7.262.008 13.926-1.339 20.045-3.88l-.008-7.967a45.2 45.2 0 0 1-20.045 4.638c-7.696-.008-15.665-1.807-22.443-5.228-11.073 31.046-17.102 64.537-17.062 99.446.136 114.101 65.011 213.152 159.744 262.368 94.67-49.059 159.8-147.962 159.666-262.01-.04-34.691-5.879-68.304-16.863-99.268a45.16 45.16 0 0 1-20.695 4.964c-8.075-.008-15.61-2.131-22.225-5.825l.008 8.185c6.615 3.097 14.042 4.84 22.225 4.85 5.744.007 11.054-1.126 16.58-2.475 9.303 30.093 13.67 58.07 13.707 89.561.128 107.596-58.342 202.985-151.98 254.05-93.866-51.22-152.778-146.633-152.905-254.393-.037-32.142 4.969-60.433 14.58-91.047 5.583 1.47 11.871 4.025 17.67 4.03" style="fill:#bf942d;fill-rule:evenodd"></path><path d="M197.476 324.702a64 64 0 0 1-18.042 3.231l18.064 14.601zm.276 49.544-36.56-29.638a279.6 279.6 0 0 0-6.648 61.028c.047 40.653 8.818 79.256 24.521 114.127l75.85-61.436c-32.045-15.214-54.789-46.84-57.163-84.081m85.516 92.677-92.905 75.241c25.36 44.855 62.69 82.081 107.698 107.174 44.842-24.992 82.028-62.135 107.174-106.933l-93.137-75.45c-4.714.646-9.535 1.02-14.414 1.013-4.876-.005-9.7-.389-14.416-1.045m57.162-8.5 76.05 61.608c15.62-34.837 24.301-73.475 24.253-114.074-.026-20.923-2.163-41.578-6.467-61.314l-36.815 29.826c-2.34 37.237-24.956 68.812-57.02 83.954m57.199-115.609 18.137-14.723a59.5 59.5 0 0 1-18.159-3.977z" style="fill:#fff;fill-rule:evenodd"></path><path d="m190.995 203.925 2.924-.971 7.981 11.987-2.926.974zm56.722-13.703-3.034.538 6.138 12.041 3.087-.54zm-12.896 2.262 3.036-.538-1.61 13.44-3.09.54zm168.985 11.681-2.981-.978-7.897 11.969 2.926.98zm-43.855-11.54-3.089-.547 1.696 13.446 3.089.546zm-12.901-2.292 3.036.546-6.163 12.026-3.035-.544zm-43.14-3.681-3.09-.003 3.972 12.96 3.09.005zm-13.06-.013 3.089.003-3.94 12.95-3.09-.004z" style="fill:#1b1918;fill-rule:evenodd"></path><path d="M329.565 342.79h-1.355l-.488-.001 1.843 1.196z" style="fill:#c5c7c9;fill-rule:evenodd"></path><path d="m363.379 341.961.003 2.495-9.05-.01-.002-.38-14.523-.016.001.379-9.104-.01-.003-2.493z" style="fill:#d9dadb;fill-rule:evenodd"></path><path d="m329.712 423.07-3.742-2.445.008 6.668 3.742 2.444zm-3.752-11.605 3.742 2.443-.008-6.34-3.74-2.499zm-.008-7.751 3.742 2.443-.008-6.396-3.742-2.444zm-.01-7.751 3.742 2.443-.007-6.396-3.742-2.445zm-.009-7.751 3.743 2.442-.008-6.396-3.743-2.444zm-.01-7.806 3.742 2.497-.007-6.396-3.742-2.444zm-.008-7.752 3.742 2.498-.008-6.396-3.742-2.497zm-.01-7.751 3.742 2.443-.007-6.341-3.742-2.498zm-.009-7.751 3.743 2.443-.008-6.396-3.743-2.443zm-.016-14.202.007 6.396 3.742 2.497-.007-6.45zm.09 76.266 3.742 2.498-.008-6.396-3.742-2.497zm-10.869-71.4-.325.218a7.4 7.4 0 0 1-1.787.973l2.114.002zM289.2 348.98c-.761-.976-1.413-1.519-2.225-1.792l.002 1.79zm-15.127-6.251h-.49l-1.3-.002.002 1.192z" style="fill:#c5c7c9;fill-rule:evenodd"></path><path d="m265.72 430.099-.007-6.886-13.006-.013.008 6.883zm-14.144-.017-.008-6.884-13.006-.015.008 6.885zm15.256-22.422.008 6.611 4.39.005-.009-6.612zm-1.13 6.611-.007-6.613-13.007-.016.007 6.614zm-14.144-.016-.008-6.612-13.006-.016.008 6.612zm-7.478 1.129.008 6.613 13.006.015-.008-6.613zm14.145.016.007 6.612 13.006.015-.007-6.612zm8.589-23.298.008 6.612 4.389.007-.007-6.614zm-1.131 6.612-.007-6.614-13.006-.013.007 6.612zm-14.143-.017-.008-6.612-13.007-.015.008 6.614zm-7.479 1.184.008 6.614 13.007.015-.008-6.614zm14.146.017.007 6.612 13.006.015-.007-6.612zm8.589-23.298.008 6.611 4.389.007-.007-6.613zm-1.131 6.611-.007-6.613-13.007-.015.007 6.613zm-14.144-.016-.008-6.612-13.006-.015.008 6.613zm-7.476 1.13.007 6.612 13.006.016-.008-6.614zm14.143.015.008 6.614 13.005.015-.007-6.613zm8.571-38.854.008 6.612 4.389.007-.008-6.614zm-4.706 7.8 9.105.01.008 6.614-9.105-.01zm-14.516 6.597-3.523-.005-.007-6.612 3.523.003zm-.008-7.805-9.051-.012-.007-6.612 9.05.01zm18.099.02-3.577-.005-.007-6.612 3.577.003zm1.149 8.944.008 6.614 4.389.005-.007-6.614zm-1.131 6.612-13.006-.015-.007-6.234 9.43.012v-.38l3.576.005zm-14.143-.015-13.007-.015-.008-6.614 9.051.01v.38l3.957.005zm-7.477 1.129.007 6.614 13.006.015-.007-6.614zm14.144.017.008 6.612 13.006.015-.008-6.614zm-19.705-28.102 32.678.037-.003-2.98-32.678-.037zm32.679 1.177.003 2.492-9.104-.01v-.379l-14.524-.017v.38l-9.05-.01-.003-2.494zm-4.294 81.355.009 6.884 4.389.007-.008-6.886zm-23.954-1.219-.007-6.612-4.336-.005.007 6.612zm-.017-15.503-.008-6.613-4.336-.003.008 6.612zm-.019-15.556-.008-6.613-4.335-.005.008 6.613zm-.037-31.059-.008-6.614-4.335-.005.008 6.614zm.019 15.502-.008-6.614-4.336-.005.008 6.614z" style="fill:#d9dadb;fill-rule:evenodd"></path><path d="M324.925 406.694c-.325-.651-.652-1.301-1.032-1.898h1.03z" style="fill:#c5c7c9;fill-rule:evenodd" data-source="https://football-logos.cc"></path><path d="m324.868 357.204-5.366-.005-.008-6.614 5.366.007z" style="fill:#d9dadb;fill-rule:evenodd"></path><path d="M313.49 406.03a5.79 5.79 0 0 0-5.791 5.794l.017 15.232 11.597.012-.017-15.23c-.005-3.199-2.61-5.804-5.806-5.807m1.993-55.071-8.615-.01.015 13.606 8.617.01zm-20.429-.023-8.617-.008.017 13.604 8.615.01zm57.329-4.975-10.676-.014.017 13.66 10.676.013zm-92.235-.104-10.676-.012.015 13.66 10.676.011z" style="fill:#e30016;fill-rule:evenodd"></path><path d="m311.131 335.344.43-2.112c3.034-.54 5.036-3.68 7.422-2.43.378.215.65.433.921.65l-4.268 10.186-.543-.002.007 4.825-.975.65c-1.787 1.135-3.52 1.675-5.362 1.891l-2.386-.003-.008-7.373-10.892-.011.008 7.372-4.876-.007c-1.304-1.844-2.498-2.712-3.635-2.983l-.005-4.39-.76-.003-4.13-9.761c.758-.866 1.462-1.516 2.166-1.841l-.43 2.655 4.988 2.662z" style="fill:#fff;fill-rule:evenodd"></path><path d="m310.423 333.013-.27 1.192-21.08-.023-3.96-2.173.378-2.655h.54l2.05-9.483 4.817-4.82 5.237-16.254c1.137.164 1.571.217 2.818-.865.65.652 1.03.868 1.68 1.141l.886 16.424 5.098 2.065-.319 6.18 3.091 1.684z" style="fill:#e30016;fill-rule:evenodd"></path><path d="m211.172 219.505 2.166-.593 1.796 6.397zm13.29 11.345-1.578-6.02c1.57-.43 3.196-.809 4.767-1.186l-.75 6.557zM206.61 212.4l-.324-.923c3.575-1.08 7.15-2.106 10.724-3.024l1.907 7.267a255 255 0 0 0-8.614 2.43zm21.47 7.83-1.144-4.88 1.734-.378zm-11.428 4.647c3.359-.972 6.826-1.834 10.292-2.697l-1.524-6.453c-3.577.863-7.096 1.78-10.62 2.753zm-.757 1.843c1.842-.54 3.63-1.026 5.47-1.511l1.58 6.017c-1.137.325-2.33.648-3.467.973zm55.631-19.938-.658-7.59c4.009-.32 8.019-.587 12.083-.746l.057 2.167-1.618 5.529c-3.307.159-6.612.371-9.864.64m-13.932-4.732-.218-1.41a443 443 0 0 1 11.92-1.288l.659 7.535q-4.715.402-9.428.965zm21.096 12.436-.441-6.614 2.655-.159-2.052 6.773zm-12.898 1.07c3.794-.43 7.533-.75 11.38-.963l-.441-6.667c-3.902.266-7.803.586-11.65 1.015zm-4.505-6.185 2.275-.268.659 6.018zm11.668 13.511-.605-6.398c2.006-.16 4.01-.32 6.016-.427l-1.943 6.612zm-7.756-5.701a200 200 0 0 1 5.635-.536l.55 6.342-3.09.268zm110.712-1.285 1.834-7.262c3.632.927 7.21 1.96 10.735 3.048l-.271.92-3.138 4.876-.54.867a256 256 0 0 0-8.62-2.449m-10.851-9.823.11-.487c3.685.817 7.426 1.688 11.113 2.668l-1.89 7.26c-2.817-.707-5.637-1.415-8.456-2.069zm14.657 19.422 1.78-6.394 2.115.598-3.788 5.796zm-11.818-3.158c3.469.872 6.885 1.743 10.3 2.723l1.781-6.395q-5.205-1.47-10.572-2.775zm-1.796-7.211 1.787.382-1.13 4.876zm5.762 16.539 1.619-6.285c1.842.489 3.631.98 5.476 1.469l-3.734 5.742zm-4.724-7.865c1.627.382 3.198.762 4.825 1.144l-1.618 6.34-2.33-.6z" style="fill:#bf942d;fill-rule:evenodd"></path><path d="m230.42 411.465 6.99.008-.007-6.612-6.99-.008zm-.01-7.751 6.99.008-.006-6.612-6.993-.008zm-.008-7.804 6.99.007-.008-6.613-6.99-.007zm-.01-7.752 6.99.007-.008-6.612-6.99-.008zm-.009-7.751 6.991.007-.008-6.612-6.99-.008zm-.01-7.751 6.991.007-.007-6.666-6.99-.008zm-.008-7.806 6.99.008-.007-6.614-6.991-.007zm-.008-7.751 6.99.008-.008-6.614-6.99-.007zm.073 63.311.008 6.56 6.99.006-.007-6.558zm6.983-7.797-6.993-.008.008 6.613 6.99.007z" style="fill:#c5c7c9;fill-rule:evenodd"></path><path d="m270.813 336.6-4.837-11.443-4.81 11.432zm-22.436-.024-4.837-11.444-4.81 11.432zm11.543-.042-10.297-.012-3.369-8.026 8.485-20.154 8.586 20.173zm71.1.134 9.647.011-4.837-11.443zm22.435.025 9.647.012-4.836-11.444zm-14.966-8.093 8.538-20.154 8.532 20.172-3.35 8.02-10.296-.012z" style="fill:#ecedee;fill-rule:evenodd"></path><path d="m284.963 341.603-4.836-11.388-4.81 11.378zm-10.893-.012-1.517-.002-.005-3.848-6.575-15.51-2.054 4.82-.38-.974 5.349-12.733 8.587 20.228zm42.812.049 9.646.01-4.836-11.388zm7.47-8.014 8.537-20.21 5.38 12.745-.378.975-2.064-4.826-6.54 15.495.005 3.795-1.572.051z" style="fill:#d9dadb;fill-rule:evenodd"></path><path d="m272.322 421.649 3.737-2.488-.008-6.398-3.735 2.49zm-.008-7.805 3.735-2.436-.007-6.396-3.737 2.49zm-.01-7.751 3.737-2.436-.008-6.396-3.738 2.436zm-.009-7.751 3.736-2.436-.007-6.396-3.738 2.436zm-.01-7.752 3.737-2.435-.008-6.396-3.735 2.436zm-.008-7.75 3.735-2.49-.007-6.342-3.737 2.434zm-.01-7.753 3.737-2.49-.008-6.395-3.736 2.489zm-.009-7.805 3.736-2.436-.007-6.396-3.737 2.49zm-.01-7.752 3.738-2.435-.008-6.396-3.736 2.436zm3.721-16.635-3.738 2.434.008 6.45 3.736-2.489zm.091 77.675-3.736 2.434.008 6.667 3.735-2.434z" style="fill:#c5c7c9;fill-rule:evenodd"></path><path d="m300.986 419.08-9.646-.011-.008-6.558 9.648.01zm-17.412-14.329.007 6.612 13.008.015-.008-6.613zm17.457 6.632-3.36-.005-.007-6.612 5.42.007a12.5 12.5 0 0 0-2.053 6.61m4.379-9.21-.007-5.15 13.007.015.005 3.198a12.55 12.55 0 0 0-4.934-1.035 12.4 12.4 0 0 0-8.07 2.972zm-1.46 1.462-12.628-.015-.007-6.612 12.95.014.009 6.233zm-20.394-14.388.008 6.614 13.006.015-.008-6.614zm27.104 6.644-.008-6.612-13.006-.015.007 6.612zm7.74-7.743-.008-6.558-13.005-.015.007 6.558zm-14.144-.015-.008-6.56-12.95-.013.006 6.558zM283.537 373.8l.008 6.559 13.007.013-.008-6.558zm27.105 6.589-.008-6.559-13.006-.015.008 6.559zm7.739-7.688-13.006-.015-.007-6.233 12.085.013v-.38l.921.002zm-14.143-.016-12.953-.016-.007-6.233 5.635.007v-.38l7.318.008zm20.683 30.974-1.896-.003a12.4 12.4 0 0 0-3.473-2.821l-.003-3.794 5.364.005zm-.008-7.751-13.115-.015-.008-6.614 13.115.015zm-.01-7.753-5.364-.005-.008-6.558 5.364.005zm-.008-7.751-13.115-.014-.008-6.56 13.115.015zm-.01-7.696-5.364-.007-.008-6.612 5.365.005zm-23.835 54.394-3.359-.003-.008-6.884 3.305.003zm-4.443-.004-13.006-.015-.008-6.885 13.006.015zm-14.145-.017-5.202-.005-.008-6.885 5.202.007zm-5.212-8.027-.007-6.558 12.951.013.008 6.558zm-.008-7.698-.008-6.613 5.202.007.008 6.612zm-.01-7.751-.007-6.613 12.95.015.009 6.613zm-.008-7.751-.008-6.613 5.201.007.008 6.612zm-.01-7.751-.007-6.56 12.95.015.008 6.558zm-.009-7.751-.008-6.56 5.203.007.007 6.558zm-.01-7.698-.007-6.613 7.316.008v.378l5.637.007.007 6.234zm6.324-14.358.975.002.008 6.614-.975-.002zm21.685 6.637-8.292-.008-.007-6.613 8.29.01zm13.159-7.736-.92-.002-.008-6.612.922.002zm-13.169-.015-8.29-.008-.008-6.613 8.292.01zm-8.572-8.193-.007-6.233 8.616.008.008 6.667-8.346-.008v-.434zm28.254 15.968-7.424-.01-.008-6.612 7.424.008zm-8.636-15.947-.008-6.233 8.618.008.008 6.668-7.425-.008v-.434zm-39.053 15.893-.008-6.613 5.203.007.008 6.612zm-.01-7.751-.007-6.614 7.315.008.008 6.614zm-.015-14.418 8.615.008.007 6.233h-1.3v.432l-7.315-.007z" style="fill:#d9dadb;fill-rule:evenodd"></path><path d="m324.767 410.542-4.444-.005a7.5 7.5 0 0 0-.816-2.17l2.977-3.628a11.44 11.44 0 0 1 2.283 5.803m-8.459-5.104.97-4.498a10.8 10.8 0 0 1 4.445 2.932l-2.921 3.52c-.652-.813-1.52-1.52-2.494-1.954m-4.554-.385-.981-4.446a11.2 11.2 0 0 1 2.71-.322c.921 0 1.843.11 2.709.328l-.968 4.443c-.597-.109-1.14-.218-1.736-.218s-1.193.107-1.734.215m-3.628 2.273-2.876-3.526a11.4 11.4 0 0 1 4.44-2.868l.98 4.5a7.3 7.3 0 0 0-2.544 1.894m-3.58-2.716 2.932 3.744c-.379.65-.704 1.41-.811 2.168l-4.498-.005c.214-2.223 1.079-4.226 2.377-5.907m20.288 17.533-4.389-.005.007 4.878 4.39.005zm-.004-5.205-4.391-.005.005 4.066 4.389.005zm-.007-5.258-4.39-.003.003 4.12 4.391.004zm-18.305 10.604-4.336-.005.007 4.77 4.336.006zm-.005-5.257-4.336-.005.003 4.12 4.336.004zm-.007-5.367-4.335-.005.005 4.228 4.335.005z" style="fill:#c5c7c9;fill-rule:evenodd"></path><path d="m335.195 430.176-.008-6.884-4.389-.005.008 6.884zm15.275-6.867.007 6.885 13.006.013-.008-6.883zm-14.164-15.573.008 6.614 13.006.015-.008-6.614zm-1.129 6.612-.008-6.612-4.39-.007.008 6.614zm15.274-6.595.008 6.612 13.005.015-.007-6.614zm8.679 7.761.008 6.612 4.336.005-.008-6.613zm-1.184 6.611-.008-6.612-13.006-.015.008 6.613zm-14.143-.015-.008-6.614-13.007-.015.008 6.613zm-7.515-29.93.008 6.612 13.006.016-.008-6.614zm-1.129 6.61-.008-6.611-4.39-.005.007 6.612zm15.274-6.594.007 6.613 13.006.014-.007-6.612zm8.679 7.814.008 6.614 4.335.005-.008-6.614zm-1.184 6.612-.008-6.612-13.006-.015.008 6.614zm-14.144-.015-.008-6.614-13.006-.015.008 6.614zm-7.514-29.93.007 6.613 13.006.015-.008-6.613zm-1.13 6.612-.008-6.612-4.389-.006.007 6.612zm15.275-6.596.007 6.612 13.005.015-.007-6.612zm8.679 7.761.008 6.614 4.335.003-.008-6.612zm-1.184 6.612-.009-6.613-13.006-.015.008 6.613zm-14.144-.016-.008-6.612-13.007-.015.008 6.612zm-7.516-29.93 3.579.004v.38l9.43.01.007 6.233-13.007-.015zm-1.128 6.613-.008-6.614-4.39-.005.008 6.614zm19.229-6.593 9.051.01.007 6.615-13.006-.016-.007-6.233 3.957.005zm4.724 7.757.008 6.614 4.336.005-.008-6.614zm-1.185 6.612-.007-6.614-13.005-.013.007 6.612zm-14.143-.017-.008-6.612-13.006-.015.008 6.614zm-7.421 47.802.007 6.883 13.006.015-.008-6.885zm18.007-77.709 9.05.01.008 6.612-9.05-.01zm.01 7.805 3.523.003.007 6.613-3.521-.005zm-14.516 6.597-9.104-.01-.008-6.614 9.104.01zm-3.595-14.424 3.577.005.008 6.612-3.577-.003zm-1.129 6.612-.008-6.612-4.389-.005.008 6.612zm23.954 1.22.008 6.613 4.335.005-.008-6.613zM330.7 340.787l32.677.037-.002-2.982-32.68-.037z" style="fill:#d9dadb;fill-rule:evenodd"></path><path d="m199.143 447.799-.015-11.4 6.414.007.013 11.4zm161.752 122.579-.054-44.857 17.933.02.01 8.356-12.695-.014.012 9.55 11.653.012.008 7.664-11.653-.011.013 10.93 12.963.015.01 8.356zm-23.37-14.915 5.105.005q.003 4.209 1.585 6.348 1.414 1.95 3.73 1.951 1.847.003 3.056-1.065 1.608-1.444 1.606-4.521-.004-3.833-3.702-5.783-6.25-3.337-6.888-3.903-3.697-3.397-3.708-10.497-.005-6.47 2.843-10.237 2.481-3.327 6.11-3.322 4.095.005 6.652 3.273 2.96 3.837 2.968 11.187l-5.104-.007q-.209-6.784-4.742-6.79-1.48 0-2.451 1.128-1.174 1.382-1.171 3.957.003 2.45 1.313 3.583 1.077.943 5.848 3.21 2.822 1.324 4.202 3.02 2.925 3.522 2.933 10.056.008 7.287-3.144 11.117-2.683 3.262-6.813 3.258-4.332-.005-7.123-3.84-3.129-4.275-3.105-12.128m-23.363 14.863-.054-44.857 5.168.007 10.121 30.174.024-30.164 4.937.007.053 44.857-5.273-.007-10.076-30.04.036 30.028zm-21.763-.025-.052-44.856 17.933.02.01 8.355-12.694-.014.011 9.55 11.653.012.008 7.664-11.653-.011.014 10.93 12.962.016.008 8.355zm-19.07-37.213.015 12.627 5.816.007q3.653.004 3.645-6.404-.007-6.219-3.658-6.223zm-5.197 37.186-.052-44.857 12.93.015q3.023.003 5.023 3.397 2.003 3.395 2.009 8.988.01 8.355-3.781 11.24c2.106 1.133 3.275 4.632 3.505 10.621l.224 5.404q.156 3.581.796 5.215l-5.272-.007q-.405-1.82-.576-5.089a343 343 0 0 0-.278-5.654q-.24-3.581-1.168-5.185-.93-1.602-2.85-1.604l-5.29-.007.02 17.529zm-9.94-.012-.054-44.855 5.24.005.052 44.857zm-21.761-.023-.054-44.857 17.933.02.01 8.356-12.694-.015.011 9.55 11.653.013.008 7.664-11.653-.013.014 10.932 12.962.014.01 8.356zm-19.883-.022-.054-44.857 16.858.018.01 8.356-11.62-.013.014 10.304 10.073.01.01 7.664-10.075-.01.022 18.533zM189.88 428.671l6.795.008.008 7.304c.005 4.476-.943 7.81-2.878 9.967-1.933 2.156-4.059 3.202-6.441 3.2-3.206-.003-5.493-1.213-6.925-3.692-1.463-2.478-2.166-6.352-2.173-11.592l-.025-21.435c-.012-10.287 2.967-15.364 8.999-15.294 2.984.003 5.272 1.18 6.893 3.531 1.622 2.352 2.42 5.942 2.426 10.768l.002.922.003 3.206-6.858-.007-.003-3.303c-.005-4.287-.739-6.447-2.23-6.448-.89.094-1.492.442-1.936 1.077-.412.635-.632 1.873-.63 3.777l.03 25.467c.003 2.921.799 4.352 2.354 4.354 1.524.129 2.38-1.522 2.534-4.952l.062-2.158zm230.22 21.315-.012-11.4 6.414.008.013 11.4zm-11.63-8.966a3.2 3.2 0 0 0 1.047-.54c.699-.538 1.079-1.999 1.171-4.35l-.025-20.512c-.034-1.588-.163-2.826-.354-3.747-.159-.922-.572-1.557-1.177-1.97a2.8 2.8 0 0 0-.699-.319c-.571-.159-1.333-.256-2.253-.224l.037 31.944c.89 0 1.65-.094 2.253-.283m-.047-40.361c1.905.067 3.493.544 4.733 1.435 1.524 1.08 2.574 2.448 3.115 4.068s.83 3.144.927 4.573c.065 1.429.129 2.541.162 3.303l.027 23.148c.007 4.478-.72 7.716-2.18 9.747-1.457 2.03-3.519 3.043-6.122 3.042l-.603-.002-8.954-.01-.059-49.283 7.43.008c.54-.03 1.048-.03 1.524-.03z" style="fill:#e30016;fill-rule:evenodd"></path><path d="M277.152 272.09c-.014-11 9.082-19.907 20.318-19.896 11.236.014 20.354 8.94 20.367 19.944.013 11-9.085 19.908-20.32 19.896s-20.354-8.94-20.365-19.943" style="fill:#1b1918;fill-rule:evenodd"></path><path d="M310.79 275.503c-.056-.327.107-.596.214-.921 1.787-.595 2.003-2.547 1.893-4.171-.166-2.604-4.664-2.446-6.289-1.852-.27 1.518-.484 3.09-.482 4.66 2.223.492 1.41 2.117.924 3.688-3.032.92-5.85 1.457-8.992 1.834-.596.052-.81 1.895-.377 1.95 2.059.166 4.496-1.187 6.446-1.13 2.548.056-.208 6.449-.695 7.045-1.191 1.516-2.762 1.297-3.791 2.49-1.516 1.623-2.595 5.526-2.213 7.803.055.107.164.596.271.705.868.109 1.248.164 1.627.055.379-.107.704-.432 1.57-1.3l.434.38.542.543c.434.38 1.573 1.195 2.06.545 1.353-1.788.048-5.69 3.73-7.964 1.193-.702 2.437-1.027 3.303-2.218 1.895-2.438-.28-7.319 1.942-8.455 3.953-1.946 7.86 2.774 8.831-.64.11-.378.217-.866-.055-1.193-1.951-.273-9.374.587-10.678-1.204-.107-.218-.216-.38-.216-.65" style="fill:#fff;fill-rule:evenodd"></path><path d="m283.963 320.355-3.42-4.72c1.508-7.425 2.798-16.259 4.145-23.576 1.4-7.532 2.856-12.897 4.481-13.762 2.763-1.514.75-8.672 3.185-11.163 2.11-2.057 6.717-2.106 8.347 1.419-2.005-.056-5.474.21-5.524 2.975l-1.72 12.14 7.427 3.097c-.379.38-.704.488-1.029.704-2.22 1.191-3.19 4.55-3.459 6.826-.162.922-.375 3.47.655 4.229l-5.185 15.93-4.816 4.819-1.616 7.37zm20.64-5.669-.669-15.504c1.788-.54 1.892-4.009 2.27-5.471.324-1.302.865-2.005 1.515-2.493l8.16 27.33-3.728 9.752.484-3.47-3.146-1.736.319-6.289z" style="fill:#102a83;fill-rule:evenodd"></path><path d="M315.82 268.353a20 20 0 0 1 .33 3.632 19 19 0 0 1-.322 3.577l-.162.596c-1.029-.055-1.95-.11-2.655-.273-.541-.11-.975-.218-1.084-.435.434-.217.757-.488 1.082-.867.92-1.082 1.136-2.817 1.079-4.226-.109-.977-.49-1.68-1.086-2.17-1.844-1.574-5.583-1.308-7.426-.442-.377 2.114-.645 4.282-.588 6.396.163.054 1.355.273 1.464.327.054.216-.27 1.355-.323 1.517-1.952.594-3.846.972-5.905 1.294l-.11-.65 1.732-1.679-.005-5.15.54.056c-.162-.596-.38-1.14-.597-1.682 1.355-.648 2.49-1.514 2.598-3.194.107-1.084-.382-1.79-1.14-2.332 0 0-1.545-.947-5.308-3.827-1.53-1.17-4.491 1.793-4.491 1.793-1.436 1.075-2.394 1.16-3.858 2.019a2.6 2.6 0 0 0-.432 1.19c-.161 1.518.76 2.441 1.9 3.202-1.083 1.57-1.188 3.955-1.294 5.689-.054 1.03-.104 4.012-1.132 4.553-1.572.865-2.76 4.116-3.785 8.451-1.248-1.194-2.331-2.496-3.2-3.906a18.6 18.6 0 0 1-2.83-9.869c-.005-3.415 1.97-10 6.009-13.225 4.137-3.306 7.35-4.934 12.65-4.94 9.129-.01 16.542 6.5 18.35 14.575" style="fill:#ffe500;fill-rule:evenodd"></path><path d="m300.653 274.461-1.73 1.732.162 1.248-1.191.161c-1.788.16-2.218 4.062-.322 4.228.543.054 1.248 0 1.952-.16l.383 3.469-5.204-2.175 1.666-11.38c-.003-1.844 2.979-1.95 4.279-1.892zm.643-7.317c-2.442-2.712-6.4-3.855-9.54-.987-.813-.543-1.573-1.248-1.466-2.223.107-1.084 1.625-1.3 2.491-1.623 1.3-.487 3.304-1.84 4.332-2.76.652.76 1.466 1.303 2.17 2.008.815.814 1.9 1.194 2.874 1.739 2.223 1.301.762 3.035-.86 3.846" style="fill:#fff;fill-rule:evenodd"></path><path d="M314.371 279.95c-.432.868-.866 1.681-1.405 2.493-.003-1.139.051-2.005.43-2.223a4.2 4.2 0 0 1 .975-.27m-12.078 6.22-1.14-.542-.492-4.175c1.03-.27 2.114-.539 2.927-.7l.271-.055c.163 1.084-.05 3.687-1.295 5.203zm17.553-5.563a24.04 24.04 0 0 1-13.804 13.807c.054-.271.107-.54.162-.703 1.026-3.74 3.683-2.76 5.683-5.36.705-.92.973-2.113 1.08-3.306a22.2 22.2 0 0 0 3.138-5.09c1.084.108 2.385.38 3.74.652" style="fill:#ffe500;fill-rule:evenodd"></path><path d="M300.913 288.233c-.929.466-1.51.707-2.527 2.915-.945 2.048-1.204 4.635-.93 5.824l-1.14-.031c-.1-1.707-.025-2.785.544-4.95.687-2.61 2.022-3.792 2.022-3.792s3.004-.454 2.03.034m10.636-1.682 1.461-1.724c.003 1.32-.243 2.14-.972 3.238-.82 1.243-1.534 1.537-3.035 2.324-.885.464-1.427.77-2.024 1.573-.646.873-.656 1.575-.934 2.625-.213.807-.116 1.32-.41 2.1-.415 1.103-.549 2.242-1.7 2.495-.497.11-.812.034-1.301-.109-.759-.223-1.193-.516-1.68-1.14l-.655-.984.598-.59c.785.625 1.174 1.151 1.85 1.526.237.131.406.166.676.151 1.238-.074 1.16-2.287 1.459-3.826.24-1.236.416-2.012 1.196-2.999.694-.876 1.258-1.075 2.287-1.723 1.723-1.086 2.737-1.573 3.184-2.937m4.659-6.587 2.022.323 3.297.431-.406-1.14c-.606.514-1.64.158-2.62-.143-.738-.228-1.152-.357-1.89-.535zm.931-2.63 4.545.023.252-1.052-4.56-.007z" style="fill:#1b1918;fill-rule:evenodd"></path><path d="M391.365 255.31c-26.25-9.763-58.259-16.59-94.026-16.63-35.603-.04-73.998 7.913-95.059 17.02l.907 3.214c31.85-12.432 59.962-16.749 94.157-16.712 35.171.04 63.041 4.93 93.999 16.998z" style="fill:#e30016;fill-rule:evenodd" data-source="https://football-logos.cc"></path><!-- source: https://football-logos.cc --></svg>