<svg xmlns="http://www.w3.org/2000/svg" viewBox="0 0 590.58 690.23"><!-- Source: https://football-logos.cc --><path d="M143.09 229.207h309.448c-3.621-2.324-5.576-4.584-9.306-6.747-50.458-93.922-200.637-55.989-286.332-1.68a288 288 0 0 0-62.08 47.172 287.9 287.9 0 0 0-51.165 69.403h99.434zM258.554 755.16 12.247 441.597a290 290 0 0 0-1.474 29.261c0 79.24 32.119 150.978 84.046 202.906 43.22 43.22 100.165 72.718 163.736 81.395m324.39-316.01L333.618 755.587c64.89-8.097 123.052-37.861 167.014-81.823 51.927-51.928 84.046-123.666 84.046-202.906 0-10.717-.588-21.297-1.733-31.71M452.405 229.19v108.163h103.82c-14.141-25.525-34.832-48.269-52.64-69.402-13.19-15.652-28.067-29.5-51.18-38.76" style="fill:#0e437f;stroke-width:1;fill-opacity:1" transform="translate(-2.438 -75.92)" data-source="https://football-logos.cc"></path><path d="M297.726 183.906c-79.24 0-150.978 32.118-202.906 84.046S10.774 391.618 10.774 470.858 42.892 621.836 94.82 673.764s123.666 84.046 202.906 84.046 150.978-32.118 202.906-84.046 84.046-123.666 84.046-202.906-32.118-150.978-84.046-202.906-123.666-84.046-202.906-84.046m-208.8 78.152c53.437-53.437 127.259-86.488 208.8-86.488s155.363 33.051 208.8 86.488 86.488 127.259 86.488 208.8-33.051 155.363-86.488 208.8-127.259 86.488-208.8 86.488-155.363-33.051-208.8-86.488S2.438 552.4 2.438 470.858s33.051-155.363 86.488-208.8" style="fill:#000;fill-rule:evenodd;stroke-width:1;fill-opacity:1" transform="translate(-2.438 -75.92)"></path><path d="m117.995 142.214 5.608-2.685 6.711 14.86-5.32 2.444zm-9.418-3.788 16.825-7.526 37.58 63.799-6.663 2.493-12.99-24.566c-4.155-7.86-13.91-11.594-22.911-8.1zm-5.987-3.356 2.469 2.468 22.121-9.753.024-3.524zm-7.38 1.461 37.796-17.04-5.368-11.768-4.314 1.894-.048 5.56-8.532 3.69-3.883-3.594-4.362 1.822-.048 5.416-8.484 3.978-3.763-3.811-4.505 2.301zm378.794 3.871-5.608-2.685-6.711 14.86 5.32 2.444zm9.418-3.788-16.825-7.525-37.58 63.798 6.663 2.493 12.99-24.566c4.155-7.859 13.911-11.594 22.911-8.1zm5.987-3.356-2.469 2.469-22.12-9.754-.025-3.523zm7.381 1.462-37.796-17.04 5.367-11.769 4.315 1.894.047 5.56 8.533 3.691 3.882-3.595 4.362 1.822.048 5.416 8.484 3.978 3.763-3.81 4.506 2.3zM274.614 93.673l1.486 3.164 42.613.047 1.438-3.211zm-7.141-14.956h4.865l2.421 4.865 9.023.168 2.226-5.118 4.52.085 2.206 5.08 9.49-.095 2.11-4.937h4.649l2.133 5.08 9.515-.095 1.821-4.985h5.13v13.133h-60.205z" style="fill:#f3dc2a;fill-rule:evenodd;fill-opacity:1" transform="translate(-2.438 -75.92)"></path><path d="m311.254 75.92-9.346.04-1.822 5.08-4.889-.005-2.013-5.082-9.684-.006-1.82 5.03-5.106-.147-2.133-4.89-9.795-.006v18.548l7.381.05 2.182 5.056 1.797.119-1.293 10.643c-1.822-.096-3.665.045-5.524.168l-1.248 4.716-2.877.334-2.105-4.431-10.982.927-.885 4.551-4.268.5-2.084-4.26-10.638 1.291-.907 4.381-2.015.39-2.184-3.942-5.621.886-3.883-11.17 2.11-.478.863-4.987 7.236-1.437-3.88-18.31-9.409 1.978-1.183 5.68-5.065.908-2.988-4.594-8.985 1.822-.623 5.172-5.103 1.233-3.092-4.342-8.982 1.683-1.092 5.422-4.738 1.04-3.153-4.594-9.916 2.06 4.313 18.168 6.71-1.437 2.924 4.457 2.243-.492.898 11.564c-1.843.474-3.668.91-5.475 1.404l-.337 4.951-2.282.8-2.806-4.218-9.221 2.825-.111 4.933-1.672.64-3.174-3.913-9.342 3.406.145 4.602-1.743.738-3.115-3.475-5.277 2.213-6.041-9.97 1.894-1.102-.048-5.082 6.998-2.78-7.957-17.064-8.735 3.723.102 5.344-4.877 2.517-3.629-3.908-8.414 3.691.375 5.35-4.906 2.215-3.737-3.783-9.414 4.216 7.957 16.682 6.758-2.973 3.932 3.692 1.845-.936 28.1 65.711.28-.12a405 405 0 0 0-9.997 4.59l-3.537 1.684 3.578 1.6 13.647 6.104.025.052.045-.021 11.69 5.228 1.472-3.299-8.781-3.925c23.246-10.405 47.24-18.086 71.853-23.305 26.218-5.56 53.116-8.329 80.54-8.623 27.815-.299 55.42 1.832 82.789 7.197 25.932 5.084 51.63 13.074 77.066 24.656l-8.297 3.815 1.5 3.283 24.397-11.217 3.377-1.552-3.305-1.696a323 323 0 0 0-15.53-7.447q.233.101.463.203l28.112-64.951 2.06.768 3.787-3.739 6.903 3.547 7.574-16.92-9.023-4.267-3.764 3.85-4.72-2.012.32-5.598-8.512-3.723-3.623 3.785-4.955-2.406.15-5.037-9.107-4.197-7.477 17.158 6.613 2.684-.047 5.681 1.916.91-5.703 9.346a161 161 0 0 0-5.238-2.12l-3.082 3.714-1.113-.434-.102-5.008-7.875-2.586-2.668 2.999-.77.86-1.054-.269-1.719-.44-.058-4.859-8.598-2.667-2.807 4.083-.935-.238-.512-4.949-5.219-1.291.91-11.025 2.399.431 2.828-4.074 6.902 1.342 4.026-18.264-9.711-2.06-3.026 4.545-5.218-.975-.748-5.479-9.118-1.875-2.994 4.627-5.265-1.193-.557-5.316-9.113-1.936-2.926 4.945-4.783-1.242-1.194-5.592-9.48-2.013-4.076 18.119 7.527 1.533.67 5.273 1.99.479-3.668 10.834c-1.976-.38-3.699-.933-5.765-1.166l-2.307 4.477-2.398-.374-1.024-4.875-10.92-1.388-2.062 4.222-3.785-.31-1.243-4.484-10.646-.905-1.867 4.71-1.846.017-1.725-5.041-5.939-.203-1.342-11.075 2.014.336 1.965-4.888 7.43-.096.072-18.598-10.268-.007-1.437 5.175-5.416.094zm-25.246 2.71 4.521.087 2.205 5.082 9.49-.098 2.11-4.935h4.648l2.133 5.08 9.516-.096 1.82-4.984h5.131v13.132h-60.205l.096-13.181h4.865l2.422 4.865 9.023.168zm-62.541 4.42 2.756 12.415-58.36 12.484-2.972-12.535 4.916-1.049 3.355 4.194 8.674-1.942 1.15-5.058 5.106-1.053 2.877 4.385 9.25-2.133.55-4.987 5.155-1.054 2.78 4.219 9.179-2.061 1.222-5.057zm147.863 0 4.361.768 1.223 5.057 9.18 2.06 2.781-4.218 5.152 1.054.551 4.987 9.252 2.133 2.875-4.385 5.106 1.053 1.15 5.058 8.674 1.942 3.355-4.194 4.916 1.05-2.972 12.534-58.36-12.484zm-51.18 10.622-1.437 3.213-42.613-.05-1.487-3.161zm-100.545 5.05-.167 3.38-42.229 9.06-2.014-3.068zm155.586 0 44.41 9.372-2.013 3.068-42.229-9.06zm-96.334.319h37.291l1.541 13.822q1.161.054 2.323.116l1.488.078 2.67.138 1.678 4.85 5.767.174 1.711-4.407 6.71.573 1.339 4.771 7.338.664 1.96-4.326 7.3.908.8 4.655 6.485.814 2.19-4.12 2.314.368 2.672.422 1.218.201 4.586-13.765 36.285 7.765-1.32 13.809-1.055 11.031q1.39.352 2.77.719.726.192 1.451.388l1.139-11.03 1.63.421.5 4.672 4.64 1.478 2.933-3.865 4.455 1.373.135 4.606 6.066 1.781 3.725-3.647 3.982 1.381.256 4.834 4.768 1.711 3.037-3.61 2.162.825-5.703 9.629a411 411 0 0 0-16.442-5.533 445 445 0 0 0-18.734-5.414c-13.726-3.646-28.014-6.126-42.201-8.588-1.042-.18-2.234-.386-4.92-.856a314 314 0 0 0-22.996-3.136 321 321 0 0 0-23.332-1.457 912 912 0 0 1-7.967-.256c-4.968-.175-9.93-.35-14.957-.365a442 442 0 0 0-36.025 1.377c-11.462.9-22.76 2.217-33.856 3.853l-3.523-10.654 2.31-.354 2.436 4.123 5.615-.691 1.062-4.711 6.416-.772 2.036 4.225 8.084-.805.95-4.566 7.005-.611 2.103 4.431 6.66-.697 1.493-4.457 2.15-.123 2.016-.115q.93-.05 1.859-.096zm-62.298 5.936 4.615 13.855 3.55 10.64a435 435 0 0 0-21.003 3.81 422 422 0 0 0-23.38 5.53c-6.966 1.862-13.752 3.867-20.308 6.038-6.564 2.173-12.932 4.527-19.06 7.086l1.345-.56-5.707-9.698 1.877-.686 3.168 3.424 5.502-2.096.088-4.295 5.381-1.98 2.86 3.605 5.556-1.886.04-4.436 5.7-1.785 2.266 3.545 5.973-1.928.537-4.183a379 379 0 0 1 4.662-1.262l1.449-.38-1.397-14.593zm247.802.935 4.315 1.893.047 5.56 8.533 3.692 3.883-3.596 4.361 1.822.049 5.416 8.484 3.979 3.762-3.81 4.506 2.3-5.512 11.55-37.795-17.038zm-336.722 1.81 5.367 11.768-37.797 17.041-5.51-11.552 4.506-2.301 3.762 3.81 8.484-3.976.049-5.418 4.361-1.82 3.883 3.593 8.531-3.69.05-5.56zm337.156 14.727 24.613 10.809-2.467 2.469-22.123-9.754zm-337.59 1.813-.025 3.523-22.121 9.754-2.47-2.469zm166.272 3.744c-5.37 1.14-9.603 4.69-11.975 9.777-2.3.077-4.599.172-6.898.27l1.033-9.516a440 440 0 0 1 17.84-.531m7.974.015c3.942.058 7.92.177 11.914.317 2.634.092 5.27.185 8 .256q3.199.083 6.405.232l-.774 9.16q-2.125-.106-4.254-.187a516 516 0 0 0-9.736-.27c-2.309-4.827-6.1-8.361-11.555-9.508m-29.697.729-1.041 9.475c-.879.043-1.755.084-2.639.132l-.484-9.353c1.385-.095 2.775-.173 4.164-.254m60.357.309q5.232.314 10.463.802l-1.174 9.125a373 373 0 0 0-10.064-.757zm134.487.029 16.824 7.525-11.84 26.102c-9-3.494-18.757.24-22.912 8.1l-12.352 23.357c.759.278 1.514.573 2.272.857a333 333 0 0 0-8.928-3.22zm-203.334.232.48 9.291c-2.853.182-5.72.393-8.59.64l-.947-9.14q4.31-.418 8.652-.76zm83.623.975q4.907.527 9.812 1.213l-1.734 8.93a389 389 0 0 0-9.25-1.043zm-96.994.254.943 9.105c-3.283.329-6.552.712-9.785 1.158l-.975-9.125q4.884-.615 9.817-1.138m-124.49.351 37.35 63.414q1.323-.468 2.645-.927a403 403 0 0 0-9.4 3.404l.09-.035-12.758-24.131c-4.155-7.859-13.911-11.594-22.912-8.1l-11.84-26.1zm235.593 1.24q3.031.469 6.055.997l4.935.857c4.246.737 8.494 1.49 12.735 2.262-4.604.397-8.85 3.012-11.75 6.848q-2.394-.411-4.79-.793-4.45-.707-8.906-1.313zm-125.223.108.983 9.2a192 192 0 0 0-3.72.624l-2.985-9.01a509 509 0 0 1 5.722-.814m-9.652 1.41 3.031 9.123c-2.29.422-4.535.833-6.66 1.215-2.89-4.112-7.065-7.072-11.82-7.68 5.13-.985 10.283-1.86 15.45-2.658m168.076 4.387c5.92 1.176 11.786 2.45 17.532 3.922l-.893 9.33q1.253.328 2.506.662c-3.164-.845-6.33-1.65-9.5-2.426-1.46-5.08-4.81-9.218-9.645-11.488m-194.738.584c-4.405 2.464-7.423 6.759-8.68 11.568-2.95.68-5.899 1.4-8.843 2.182a266 266 0 0 0-9.346 2.672l-2.72-8.752a380 380 0 0 1 11.593-3.291 417 417 0 0 1 17.996-4.38m115.115 3.266c2.67.06 5.34.132 8.016.234q5.344.205 10.68.568l-1.313 12.125a414 414 0 0 0-6.61-.404c-3.122-.167-6.22-.265-9.3-.322v-.006h.006l-.145-3.233c-.135-3.18-.572-6.207-1.334-8.963zm-34.625.275q-.255 1.077-.416 2.207v.002l-.013.121q-.15 1.072-.21 2.186l-.425 8.119a823 823 0 0 1-6.123.164l1.367-12.563q2.916-.13 5.82-.236m-9.724.428-1.366 12.482c-.986.028-1.98.049-2.957.086l-1.379-12.26c1.91-.119 3.806-.212 5.702-.308m67.375.418q6.494.518 12.978 1.261l-2.453 12.032a331 331 0 0 0-11.84-1.16zm78.316.054c1.386.376 2.77.748 4.16 1.139l-1.592 9.146c-1.175-.325-2.352-.641-3.529-.959zm-155.727.13 1.37 12.163c-2.54.136-5.049.307-7.536.516a228 228 0 0 0-5.101.486l-1.201-12.021q2.24-.254 4.488-.471c2.654-.257 5.32-.48 7.98-.674m94.706 1.595q6.307.795 12.607 1.795c1.001.159 2.002.331 3.004.498-.614 1.275-1.187 2.718-1.568 4.098l-2.168 7.834a766 766 0 0 0-8.506-1.354q-2.902-.443-5.825-.824zm-111.479.072 1.201 12.002c-2.566.325-5.148.699-7.758 1.125l-8.636 1.776-2.364-8.584a26 26 0 0 0-1.123-3.194c2.572-.464 5.24-.942 7.455-1.357 3.682-.69 7.434-1.273 11.225-1.768m180.857.545a438 438 0 0 1 14.172 4.402l-3.22 8.633a243 243 0 0 0-6.014-1.953 321 321 0 0 0-6.525-1.953zm-258.552 2.166 2.726 8.77q-1.784.57-3.558 1.158a428 428 0 0 0-6.342 2.158l-3.281-8.584a295 295 0 0 1 10.455-3.502m276.834 3.613c1.777.608 3.528 1.238 5.283 1.866l-4.856 8.226c-1.218-.473-2.435-.95-3.67-1.398zm-291.37 1.377 3.264 8.545a664 664 0 0 0-5.275 1.916l-4.625-7.861a248 248 0 0 1 6.637-2.6m253.43 1.631q2.902.723 5.803 1.485l-1.152 12.027q1.458.371 2.916.756.544.142 1.084.287l1.238-11.979c3.47.94 6.927 1.903 10.334 2.922l-4.207 11.196a194 194 0 0 0-8.45-2.426 402 402 0 0 0-8.982-2.237l1.16-7.304c.248-1.556.328-3.211.256-4.727m-214.412.59c-.03 1.328.02 2.783.234 4.137l1.323 8.342-8.46 1.738a305 305 0 0 0-12.33 3.783l-3.886-11.434c5.358-1.761 10.717-3.392 15.955-4.783 2.387-.634 4.776-1.22 7.164-1.783m126.057 3.649c2.939.057 5.891.151 8.867.31 5.076.271 10.165.63 15.252 1.106l-.969 13.365a487 487 0 0 0-22.54-1.463zm-37.588.709-.65 12.49q-9.203.399-18.49 1.254l-1.741-12.944c3.529-.248 7.052-.4 10.592-.51l-1.422 12.833q1.974-.144 3.945-.266l1.383-12.688q3.208-.072 6.383-.17m-25.211 1.142 1.752 13.024a390 390 0 0 0-22.443 2.98l-3.395-12.336 8.18-1.682a215 215 0 0 1 15.906-1.986m91.24 0c4.243.456 8.546 1.007 12.916 1.674 2.653.405 5.316.83 7.985 1.266l-3.477 12.605a434 434 0 0 0-18.39-2.207zm84.291.684a207 207 0 0 1 11.72 4.072l-6.321 10.65a256 256 0 0 0-9.63-3.466zm-266.023 1.761 3.89 11.444a276 276 0 0 0-9.156 3.345l-6.287-10.683a530 530 0 0 1 11.553-4.106m239.59 7.805a412 412 0 0 1 6.287 1.557l-1.24 12.968q1.933.522 3.865 1.067l1.341-12.985c3.25.89 6.482 1.85 9.729 2.922a245 245 0 0 1 9.625 3.418l-6.51 10.987a349 349 0 0 0-25.164-7.243zm-210.12 1.01 1.977 12.47-7.14 1.919-1.247-13.073zm-10.24 2.31 1.276 13.705a403 403 0 0 0-17 5.446l.283-.1-6.817-11.582c3.681-1.41 7.409-2.76 11.17-4.02a298 298 0 0 1 11.088-3.449m113.252 1.026c30.1.092 60.009 2.516 89.4 8.513 28.2 5.754 55.925 14.8 82.89 28.239l-5.292 2.414-.701-.244c-27.266-12.844-54.805-21.582-82.592-27.03-27.739-5.437-55.755-7.596-84.015-7.293-27.878.3-55.189 3.109-81.768 8.745-26.619 5.643-52.53 14.122-77.578 25.755l-.492.221-5.532-2.482c26.1-12.118 52.798-21.109 79.442-27.17 29.083-6.617 58.112-9.754 86.238-9.668" style="fill:#000;fill-rule:evenodd;fill-opacity:1" transform="translate(-2.438 -75.92)"></path><path d="m167.241 193.734-30.629-52.055 1.877-.687 3.167 3.424 5.503-2.096.087-4.294 5.38-1.98 2.86 3.604 5.557-1.887.04-4.435 5.7-1.785 2.265 3.545 5.974-1.929.537-4.183q2.333-.649 4.662-1.262c14.438-3.798 28.827-7.044 43.242-9.24l3.987-.608 2.437 4.123 5.616-.692 1.061-4.711 6.416-.771 2.035 4.225 8.084-.806.952-4.567 7.003-.61 2.103 4.431 6.661-.698 1.492-4.456a564 564 0 0 1 4.167-.238c14.875-.798 29.726-.895 44.535-.118l4.159.218 1.677 4.85 5.767.172 1.71-4.405 6.71.571 1.34 4.771 7.338.665 1.961-4.325 7.298.906.801 4.656 6.484.814 2.19-4.119q2.494.382 4.986.79c14.382 2.354 28.837 4.902 43.13 8.61l3.576.929.5 4.67 4.639 1.479 2.933-3.864 4.454 1.372.135 4.606 7.794-2.532 1.998.666 3.982 1.382.256 4.834 4.767 1.711 3.037-3.61q1.084.41 2.163.824L425.24 191.17" style="fill:none" transform="translate(-2.438 -75.92)"></path><path d="m206.81 114.46 6.149-1.199 3.283 16.01-5.968 1.246zm-26.537-1.718 36.286-7.765 23.488 70.51-7.19 1.006-6.997-25.308c-2.387-8.632-9.486-15.5-17.976-14.955-12.52.803-19.226 11.468-17.446 22.696l3.978 25.094-7.141 1.917zm6.597 5.935 6.149-1.198 3.283 16.01-5.967 1.246zm-11.674-10.583 2.013 3.068 42.23-9.06.167-3.38zm-10.305-12.68 2.972 12.536 58.36-12.485-2.756-12.415-4.362.767-1.222 5.057-9.18 2.062-2.78-4.219-5.153 1.055-.551 4.986-9.251 2.133-2.876-4.386-5.105 1.054-1.15 5.058-8.675 1.942-3.355-4.194zm113.966 3.626h37.292l8.196 73.578-7.478-.24-.958-21.521c-.57-12.79-5.84-23.115-18.359-23.248-10.522-.111-17.66 8.052-18.239 19.078l-1.341 25.548-7.094.048zm25.81 7.143 6.52.024.024 16.488-6.47.072zm-20.802-.096 6.519.024.024 16.488-6.47.072zm104.122 8.373-6.149-1.199-3.283 16.01 5.968 1.246zm26.537-1.718-36.286-7.765-23.488 70.51 7.19 1.006 6.998-25.308c2.386-8.632 9.485-15.5 17.975-14.955 12.52.803 19.227 11.468 17.446 22.696l-3.978 25.094 7.142 1.917zm-6.597 5.935-6.149-1.198-3.283 16.01 5.968 1.246zm11.674-10.583-2.013 3.068-42.229-9.06-.167-3.38zm10.305-12.68-2.971 12.536-58.36-12.485 2.755-12.415 4.362.767 1.222 5.057 9.18 2.062 2.78-4.219 5.153 1.055.551 4.986 9.251 2.133 2.877-4.386 5.104 1.054 1.15 5.058 8.676 1.942 3.355-4.194z" style="fill:#f3dc2a;fill-rule:evenodd;fill-opacity:1" transform="translate(-2.438 -75.92)"></path><path d="m177.79 127.153 5.753 61.066m41.319-70.842 19.462 58.813m29.191-63.462-6.711 60.971m54.596-61.544 6.758 61.114m41.845-55.889-19.03 58.286m66.627-48.891-6.28 60.826" style="fill:none" transform="translate(-2.438 -75.92)"></path><path d="M160.034 144.85a358 358 0 0 1 18.89-5.656l-1.022-10.86q-1.172.316-2.343.642l-.537 4.183-5.974 1.929-2.265-3.545-5.7 1.785-.04 4.435-5.556 1.887-2.86-3.604-5.381 1.98-.087 4.294-5.503 2.097-3.167-3.425-1.877.687 5.707 9.699c5.713-2.344 11.63-4.513 17.715-6.528m65.106-26.632 3.524 10.648a501 501 0 0 1 33.856-3.846q4.832-.379 9.714-.659l1.228-11.15-2.152.123-1.492 4.456-6.66.698-2.104-4.43-7.003.61-.952 4.567-8.084.805-2.035-4.225-6.416.77-1.061 4.712-5.616.692-2.437-4.123zm96.36-5.162 1.243 11.243c7.356.22 14.727.695 22.058 1.422a315 315 0 0 1 21.537 2.884l3.424-10.486-2.314-.367-2.19 4.12-6.485-.815-.801-4.656-7.298-.906-1.96 4.325-7.34-.664-1.339-4.772-6.71-.571-1.71 4.406-5.767-.173-1.677-4.85zm96.008 14.601-1.139 11.032a445 445 0 0 1 17.284 5.026 411 411 0 0 1 16.44 5.526l5.704-9.622-2.163-.823-3.037 3.61-4.767-1.712-.256-4.834-3.982-1.382-3.724 3.647-6.068-1.781-.135-4.606-4.454-1.373-2.933 3.865-4.64-1.479-.499-4.67zm25.046 23.535-3.242 8.692q1.84.67 3.657 1.375l4.872-8.22a399 399 0 0 0-5.287-1.847m-7.329 7.256 3.22-8.634a438 438 0 0 0-14.171-4.402l-1.59 9.13q3.28.942 6.527 1.951 3.028.94 6.014 1.955m-16.741-5.093 1.593-9.146a438 438 0 0 0-4.159-1.149l-.964 9.336zm10.508 7.618-4.23 11.255a254 254 0 0 1 9.651 3.466l6.314-10.652c-3.818-1.462-7.742-2.807-11.735-4.069m-8.362 9.919 4.208-11.195a407 407 0 0 0-10.335-2.93l-1.238 11.987c2.494.67 4.943 1.383 7.365 2.138m1.911 5.176a196 196 0 0 0-9.727-2.942l-1.342 13.005a343 343 0 0 1 14.187 4.332l6.514-10.99a246 246 0 0 0-9.632-3.405m-95.545-38.082.774-9.16q-2.275-.106-4.546-.178l1.019 9.217zm5.115-8.928-.775 9.17q5.036.311 10.064.759l1.175-9.125a317 317 0 0 0-10.464-.804m14.775 1.237-1.172 9.1q4.627.465 9.25 1.042l1.734-8.928a310 310 0 0 0-9.812-1.214m14.111 1.846-1.72 8.858q1.44.195 2.883.402l2.815-8.62q-1.987-.333-3.978-.64m-29.04 22.682 1.313-12.127a364 364 0 0 0-8.546-.478l1.354 12.24q2.928.16 5.88.364m5.642-11.806-1.314 12.132q2.697.218 5.415.48 3.221.31 6.424.68l2.453-12.031a378 378 0 0 0-12.979-1.261m17.295 1.78-2.455 12.045q2.244.293 4.477.623l3.878-11.88a393 393 0 0 0-5.9-.788m-14.514 15.058a377 377 0 0 0-13.819-1.026l1.495 13.517q5.685.365 11.355.867zm4.321.434-.966 13.328q3.825.376 7.64.818l4.173-12.78c-3.66-.53-7.276-.982-10.847-1.366m-107.945-18.841-.983-9.198q-2.871.387-5.724.803l2.985 9.02q1.85-.328 3.722-.625m3.32-9.759.975 9.124c3.233-.447 6.502-.829 9.785-1.157l-.944-9.106q-4.932.524-9.816 1.14m14.13-1.577.948 9.14c2.87-.248 5.737-.458 8.59-.64l-.481-9.292-.403.032q-4.343.34-8.654.76m13.383-1.107.485 9.352 2.635-.133 1.043-9.485q-2.084.123-4.163.266m-22.972 27.865-1.2-12.002c-3.032.396-6.04.848-9.006 1.366l3.82 11.541q3.213-.504 6.386-.906m3.103-12.525 1.203 12.022q2.554-.273 5.1-.487 3.729-.313 7.535-.515l-1.37-12.165c-2.66.194-5.324.417-7.978.674q-2.249.219-4.49.471m16.803-1.438 1.38 12.26q1.467-.056 2.952-.097l1.374-12.484q-2.842.143-5.706.32m-11.061 17.385c-4.636.408-9.232.952-13.85 1.66l4.203 12.702a388 388 0 0 1 11.397-1.349zm4.328-.343 1.74 12.935q3.722-.344 7.431-.612l1.415-12.853c-3.54.11-7.057.282-10.586.53m-103.34 1.166-3.265-8.546q-3.373 1.26-6.642 2.59l4.631 7.872a639 639 0 0 1 5.276-1.916m.816-10.033 3.28 8.584a428 428 0 0 1 6.343-2.158l3.558-1.16-2.726-8.768q-2.178.686-4.329 1.4a295 295 0 0 0-6.126 2.101m14.603-4.78 2.722 8.752a272 272 0 0 1 7.62-2.208l-.873-9.261q-4.79 1.307-9.47 2.717m-6.898 16.435a530 530 0 0 0-11.558 4.098l6.29 10.69a278 278 0 0 1 9.157-3.344zm4.114-1.378 3.886 11.432a305 305 0 0 1 10.805-3.344l-1.151-12.215a302 302 0 0 0-13.54 4.127m4.026 15.953a278 278 0 0 0-11.176 4.006l6.823 11.596a402 402 0 0 1 16.724-5.356l-1.292-13.713a298 298 0 0 0-11.078 3.467" style="fill:#f3dc2a;fill-rule:evenodd;fill-opacity:1" transform="translate(-2.438 -75.92)"></path><path d="M150.107 221.454c44.543-19.89 93.79-28.904 147.538-29.095 50.937-.181 100.906 8.462 149.79 29" style="fill:none" transform="translate(-2.438 -75.92)"></path><path d="M295.18 187.805c-27.423.295-54.32 3.064-80.538 8.623-24.613 5.22-48.608 12.9-71.854 23.305l8.024 3.588c44.355-19.668 93.364-28.587 146.826-28.777 50.784-.181 100.606 8.41 149.35 28.814l8.048-3.7c-25.436-11.582-51.134-19.572-77.066-24.656-27.37-5.365-54.973-7.496-82.79-7.197" style="fill:#000;fill-opacity:1;fill-rule:evenodd" transform="translate(-2.438 -75.92)"></path><path d="M213.373 188.229c26.58-5.636 53.89-8.445 81.767-8.744 28.26-.304 56.277 1.855 84.016 7.293 27.786 5.447 55.326 14.184 82.592 27.028l.702.244 5.29-2.414c-26.963-13.438-54.69-22.485-82.89-28.238-29.391-5.998-59.299-8.42-89.398-8.513-28.126-.086-57.156 3.05-86.239 9.667-26.644 6.062-53.343 15.054-79.442 27.172l5.53 2.482.493-.221c25.048-11.633 50.96-20.113 77.58-25.756" style="fill:#f3dc2a;fill-rule:evenodd;fill-opacity:1" transform="translate(-2.438 -75.92)"></path><path d="M295.188 185.62c-27.424.295-54.322 3.065-80.54 8.624-24.612 5.219-48.607 12.9-71.852 23.305l8.023 3.588c44.355-19.668 93.364-28.588 146.826-28.778 50.784-.18 100.606 8.41 149.35 28.815l8.048-3.7c-25.436-11.582-51.134-19.572-77.066-24.656-27.369-5.366-54.973-7.496-82.789-7.197" style="fill:#f3dc2a;fill-rule:evenodd;fill-opacity:1" transform="translate(-2.438 -75.92)"></path><path d="m134.673 206.356-28.4-66.41-1.846.935-3.93-3.691-6.759 2.971-7.957-16.68 9.414-4.217 3.736 3.782 4.906-2.214-.375-5.35 8.416-3.69 3.627 3.908 4.878-2.52-.101-5.343 8.734-3.722 7.957 17.064-6.998 2.78.048 5.081-1.893 1.103 6.04 9.97 5.278-2.213 3.115 3.475 1.74-.738-.143-4.602 9.341-3.406 3.175 3.915 1.672-.64.112-4.936 9.219-2.823 2.807 4.217 2.28-.8.34-4.95c1.805-.494 3.63-.931 5.474-1.405l-.899-11.564-2.24.492-2.925-4.458-6.71 1.438-4.313-18.167 9.916-2.062 3.151 4.594 4.74-1.04 1.09-5.42 8.984-1.684 3.091 4.341 5.103-1.233.624-5.171 8.984-1.822 2.988 4.593 5.064-.907 1.184-5.68 9.408-1.978 3.882 18.31-7.238 1.439-.863 4.985-2.109.48 3.883 11.168 5.62-.886 2.185 3.944 2.016-.39.905-4.382 10.64-1.29 2.084 4.259 4.268-.501.884-4.551 10.981-.928 2.107 4.432 2.877-.334 1.248-4.716c1.858-.122 3.7-.265 5.522-.17l1.294-10.64-1.797-.12-2.181-5.057-7.382-.048v-18.55l9.795.007 2.133 4.89 5.105.147 1.822-5.03 9.683.007 2.013 5.082 4.889.003 1.821-5.079 9.347-.04 2.014 5.322 5.416-.094 1.438-5.175 10.266.007-.072 18.598-7.43.096-1.965 4.889-2.013-.336 1.342 11.073 5.94.203 1.724 5.042 1.845-.018 1.869-4.708 10.645.904 1.244 4.484 3.784.312 2.061-4.224 10.922 1.388 1.023 4.876 2.398.372 2.307-4.476c2.066.233 3.79.786 5.766 1.166l3.667-10.833-1.99-.48-.67-5.272-7.526-1.534 4.074-18.119 9.482 2.013 1.192 5.593 4.783 1.242 2.926-4.946 9.115 1.935.555 5.317 5.267 1.193 2.994-4.626 9.116 1.874.749 5.48 5.218.974 3.026-4.545 9.71 2.061-4.026 18.263-6.902-1.342-2.828 4.074-2.397-.431-.91 11.025 5.218 1.29.512 4.95.936.239 2.805-4.085 8.598 2.67.06 4.859 2.773.708 3.438-3.86 7.875 2.587.1 5.008 1.115.433 3.082-3.713c1.809.693 3.54 1.4 5.237 2.12l5.704-9.347-1.917-.91.048-5.68-6.615-2.685 7.477-17.159 9.107 4.199-.148 5.037 4.954 2.406 3.624-3.785 8.51 3.721-.32 5.599 4.72 2.011 3.765-3.85 9.022 4.268-7.573 16.92-6.902-3.547-3.787 3.738-2.061-.767-28.401 65.623" style="fill:none" transform="translate(-2.438 -75.92)"></path><path d="m180.624 157.15 1.15 12.294q.764-.22 1.527-.437 1.143-.326 2.293-.639l-1.163-12.232c-.464.12-.928.23-1.393.353-.802.213-1.607.438-2.414.662m-.414-4.258c.575-.157 1.17-.302 1.745-.455.692-.184 1.368-.387 2.061-.565l-.89-9.316c-.555.146-1.114.263-1.668.411-.71.19-1.413.381-2.12.574zm12.155 18.187 2.051 12.94-7.141 1.917-1.261-13.183a254 254 0 0 0-3.825 1.088l1.292 13.713a400 400 0 0 1 24.94-6.527 396 396 0 0 1 24.377-4.748l-3.494-12.637m88.385-50.84 1.273 11.448c.847.026 1.687.039 2.518.06.425.011.844.023 1.269.036l-1.25-11.4-1.463-.053zm3.653 15.696c-.649-.017-1.292-.06-1.93-.079l1.045 9.416c.762.026 1.523.15 2.285.178l1.525.018-1.055-9.468c-.62-.02-1.25-.05-1.87-.065m1.258 13.559c-.548-.021-1.11-.04-1.658-.06l1.371 12.348c1.013.041 1.993.09 3.01.144.244.013.511.038.755.051l-1.354-12.407c-.711-.031-1.411-.05-2.123-.076m2.537 16.583c-.78-.042-1.573-.056-2.35-.09l1.513 13.62c1.256.07 2.5.135 3.755.216l-1.495-13.679c-.478-.027-.944-.042-1.423-.067M216.242 129.27l-1.901-9.462c-2.029.369-4.1.74-6.128 1.144l2.002 9.553z" style="fill:#000;fill-rule:evenodd;fill-opacity:1" transform="translate(-2.438 -75.92)"></path><path d="M208.256 121.16q3.042-.608 6.085-1.16l-1.382-6.739-6.149 1.198zm-13.863 3.018-1.374-6.699-6.149 1.198 1.5 6.954q3.012-.746 6.023-1.453" style="fill:#000;fill-rule:evenodd;fill-opacity:1" transform="translate(-2.438 -75.92)"></path><path d="M194.381 124.094c-2.007.47-4.003.968-6.01 1.465l1.964 9.176 5.967-1.246zm79.1-11.023-1.256 11.39c1.292-.074 2.578-.172 3.875-.235l1.236-11.257c-.62.031-1.23.033-1.849.067zm-143.167 41.317-6.71-14.859-5.609 2.685 6.999 14.619zm153.551-48.301.029 6.633q3.25-.115 6.5-.183l-.01-6.426z" style="fill:#000;fill-rule:evenodd;fill-opacity:1" transform="translate(-2.438 -75.92)"></path><path d="M290.393 112.393c-2.166.045-4.332.166-6.499.243l.043 10.036 6.471-.073zm14.275-6.21.028 6.296q3.25.042 6.5.139l-.009-6.411z" style="fill:#000;fill-rule:evenodd;fill-opacity:1" transform="translate(-2.438 -75.92)"></path><path d="M311.196 112.45c-2.166-.064-4.333-.026-6.5-.055l.044 10.373 6.471-.073zm-91.14 31.991 2.443-.439c-2.893-4.137-7.062-7.08-11.837-7.687m-11.188 2.305c-4.467 2.493-7.46 6.685-8.688 11.571m37.357 9.25-2.283-8.256a24 24 0 0 0-1.127-3.184l-3.912.703c-10.168 1.826-20.415 3.666-30.659 6.086a22.6 22.6 0 0 0 .276 4.136l1.245 7.85m0 .001.682 4.304m36.94-7.438-1.162-4.202m-35.778 11.639 2.051 12.94-7.141 1.917-1.261-13.183-1.542.431q-1.143.325-2.283.657l1.292 13.713a400 400 0 0 1 24.94-6.527 396 396 0 0 1 24.377-4.748l-3.494-12.637m140.494-45.62-3.556 10.87c.487.083.974.071 1.46.156l2.35.457 3.625-10.848c-.407-.067-.79-.146-1.196-.212zm-2.748 14.946c-.691-.121-1.287-.335-1.98-.451l-2.946 8.991c1.253.18 2.494.377 3.747.569l2.888-8.74zm-2.497 13.065c-1.244-.188-2.465-.382-3.71-.558l-3.987 12.131c.45.067.959.146 1.408.215.767.117 1.5.187 2.268.307zm-5.353 16.084c-.52-.08-1.027-.184-1.546-.263-.692-.106-1.358-.268-2.046-.368l-4.274 13.079c1.194.138 2.358.33 3.552.478zm-176.49-23.904-1.04-10.951-1.449.38c-.772.202-1.546.385-2.32.594l1.029 11.027c.471-.127.989-.255 1.462-.381.786-.21 1.527-.463 2.318-.67m49.472 8.377c-.536.101-1.083.214-1.648.319l3.863 11.613c1.105-.227 1.718-.3 2.487-.482.458-.075.9-.168 1.356-.24l-3.836-11.578c-.743.13-1.485.23-2.222.369m5.368 15.611c-.605.1-1.208.249-1.811.348l4.227 12.678c1.29-.185 2.584-.357 3.873-.528l-4.252-12.84c-.684.104-1.352.23-2.038.342m142.931-42.317-1.925 9.386 5.968 1.246 2.063-9.564q-3.052-.548-6.106-1.068" style="fill:#000;fill-rule:evenodd;fill-opacity:1" transform="translate(-2.438 -75.92)"></path><path d="M380.468 119.969c2.035.347 4.059.714 6.094 1.08l1.425-6.59-6.149-1.198zm21.31-2.49-1.288 6.262c2.02.424 3.992.96 6.008 1.419l1.429-6.483z" style="fill:#000;fill-rule:evenodd;fill-opacity:1" transform="translate(-2.438 -75.92)"></path><path d="M406.57 124.968q-3.026-.688-6.056-1.323l-2.02 9.844 5.969 1.246zm61.826 12.749-6.711 14.86 5.32 2.444 7-14.62z" style="fill:#000;fill-rule:evenodd;fill-opacity:1" transform="translate(-2.438 -75.92)"></path><path d="M192.26 279.042h210.545v188.235c0 51.786-51.115 87.32-102.9 87.32h-2.209c-51.783 0-105.437-32.972-105.437-84.784z" style="fill:none" transform="translate(-2.438 -75.92)"></path><path d="M143.048 229.191h309.408v241.047c0 77.68-75.94 134.058-153.627 134.058h-1.793c-77.687 0-153.988-57.07-153.988-134.783z" style="fill:none" transform="translate(-2.438 -75.92)"></path><path d="M235.029 303.82c12.932 30.03 33.5 53.26 63.269 70.82 23.75 14.012 42.182 36.42 55.843 66.028 11.157 24.184 26.092 41.065 42.91 55.63 3.7-8.917 5.754-18.643 5.754-29.021V279.042H221.162c5.65 8.154 10.277 16.442 13.867 24.778m43.374 105.211c-8.97-7.198-19.535-11.537-28.582-18.814-17.926-14.42-33.144-32.327-42.841-54.165-4.363-9.825-9.069-19.2-14.72-27.908v161.669c0 51.813 53.653 84.784 105.436 84.784h2.208c26.924 0 53.665-9.604 73.137-26.104-20.93-13.74-37.728-34.53-49.58-60.384-10.852-23.673-25.674-43.522-45.058-59.078M69.995 377.965h34.671v11.264l-21.74-.037v13.259l19.888.014.04 10.917-19.928-.026v22.928H69.995Zm420.53-.319h34.671v11.264l-21.74-.037v13.259l19.888.014.04 10.917-19.927-.027v22.928h-12.932zM320.96 643.97l-2.837 10.225c-4.334-1.584-7.992-2.088-10.865-2.037-11.015.196-18.86 6.604-19.093 18.455-.216 10.954 9.175 17.99 19.213 18.134 3.917.056 7.45-.937 10.825-2.077.532 3.249 1.225 6.498 1.757 9.746-3.941 1.518-8.808 2.787-13.74 2.796-14.62.027-32.19-7.882-31.956-28.52.177-15.633 12.844-29.439 32.915-29.439 5.447 0 10.542 1.097 13.78 2.716" style="fill:#fff;fill-rule:evenodd" transform="translate(-2.438 -75.92)"></path><path d="m51.299 348.697 492.75.479c13.958 26.826 22.402 55.832 27.201 86.279L323.837 749.413c-16.973 2.165-34.984 1.962-54.085.08L24.176 436.49c3.807-30.791 13.091-59.985 27.123-87.794" style="fill:none" transform="translate(-2.438 -75.92)"></path><path d="M143.09 469.6V348.839l-91.776-.09c-14.036 27.818-23.324 57.02-27.132 87.82l245.65 313.096c19.106 1.882 37.123 2.086 54.1-.08L571.42 435.531c-4.8-30.456-13.246-59.47-27.21-86.304l-91.805-.09-3.063 121.483c-1.958 77.678-74.94 112.439-152.107 121.61-85.781 6.517-112.104-38.685-113.985-97.826Zm347.58-33.559v-58.335h34.682v11.267l-21.746-.037V402.2l19.893.014.04 10.92-19.933-.026v22.935zm-183.4 205.35c5.448 0 10.545 1.098 13.784 2.718l-2.837 10.229c-4.335-1.585-7.995-2.09-10.868-2.038-11.019.196-18.866 6.606-19.1 18.46-.215 10.958 9.179 17.997 19.22 18.14 3.918.056 7.452-.937 10.827-2.078.533 3.25 1.226 6.5 1.759 9.75-3.943 1.518-8.811 2.787-13.745 2.796-14.625.027-32.199-7.884-31.965-28.528.177-15.638 12.848-29.448 32.925-29.448M102.884 413.454l-19.934-.026v22.934H70.015v-58.335h34.681v11.267l-21.746-.037v13.263l19.894.014z" style="fill:#d3262a;fill-rule:evenodd;stroke-width:1;fill-opacity:1" transform="translate(-2.438 -75.92)"></path><path d="M24.182 436.568c3.808-30.8 13.096-60.002 27.132-87.82l91.775.09v-11.483H43.655c-16.695 31.706-27.628 66.917-31.408 104.242L258.555 755.16a290 290 0 0 0 39.17 2.651c12.156 0 24.135-.756 35.893-2.223L582.945 439.15a285 285 0 0 0-31.15-101.795h-99.39v11.785l91.805.089c13.963 26.833 22.409 55.848 27.21 86.304l-247.489 314.05c-16.977 2.167-34.994 1.963-54.1.08z" style="fill:#f3dc2a;fill-opacity:1;fill-rule:evenodd;stroke-width:1" transform="translate(-2.438 -75.92)"></path><path d="M220.82 148.704c-10.167 1.826-20.414 3.666-30.658 6.085a22.6 22.6 0 0 0 .276 4.137l3.978 25.094-7.141 1.917-1.261-13.183-1.542.431q-1.143.324-2.283.657l1.292 13.713a400 400 0 0 1 24.94-6.527 396 396 0 0 1 24.377-4.748l-6.938-25.095a24 24 0 0 0-1.127-3.184" style="fill:#000;fill-rule:evenodd;fill-opacity:1" transform="translate(-2.438 -75.92)"></path><path d="m185.59 168.314-2.304.643c-.509.144-1.002.315-1.511.462l.414 4.423q1.14-.332 2.283-.657l1.542-.431z" style="fill:#000;fill-rule:evenodd;fill-opacity:1" transform="translate(-2.438 -75.92)" data-source="https://football-logos.cc"></path><path d="M397.052 496.299c-16.819-14.566-31.754-31.447-42.911-55.63-13.66-29.61-32.092-52.017-55.843-66.028-29.77-17.562-50.337-40.791-63.27-70.82-3.59-8.337-8.217-16.625-13.866-24.78H192.26v29.103c5.652 8.709 10.358 18.083 14.721 27.908 9.697 21.838 24.915 39.746 42.842 54.165 9.046 7.277 19.611 11.616 28.58 18.814 19.385 15.556 34.207 35.405 45.06 59.078 11.851 25.853 28.65 46.643 49.58 60.384 25.534 7.364 18.846-19.749 24.01-32.194" style="fill:#0e437f;fill-opacity:1" transform="translate(-2.438 -75.92)"></path><path d="M143.047 229.191v233.657c0 93.587 84.168 141.425 154.68 141.425s154.677-47.838 154.677-141.425V229.19H297.727Zm49.213 49.85h210.933v184.09c0 61.271-56.344 91.603-105.466 91.603-49.123 0-105.467-30.332-105.467-91.603z" style="fill:#000;fill-opacity:1;stroke:none;stroke-width:1;stroke-linecap:square;stroke-miterlimit:4;stroke-dasharray:none;paint-order:markers fill stroke" transform="translate(-2.438 -75.92)"></path><g style="fill:#a52830;fill-opacity:1"><path d="M323.82 298.019c.759.93 1.539 1.356 2.31 1.642.543.2.907.533 1.116 1.108.119.33.144.7.145 1.09.25-.305.436-.608.544-.988.027-.098.091-.155.15-.016.16.384.322.957.283 1.364-.049.51-.288.984-.426 1.478-.12.427-.072.799.1 1.116.157.291.266.33.344.313.14-.031.185-.18.188-.337.014-.575-.049-1.126.057-1.674.169-.87 1.038-2.023 2.026-3.01.094-.094.17-.041.213.018.341.454.728.884.999 1.4.19.363.227.858.153 1.222a2 2 0 0 1-.363.807c-.059.078-.009.097.046.096.503-.01.775-.268.963-.618.04-.074.086-.074.09-.007.022.437.034.884-.03 1.293a1.03 1.03 0 0 1-.745.867 4 4 0 0 1-1.056.174c-.091 0-.15.048-.213.093-.158.114-.281.25-.348.39a.86.86 0 0 0-.085.392c0 .138.106.266.28.316.144.04.379-.103.658-.28.511-.327 1.043-.404 1.592-.438.24-.015.475-.046.668-.155.045-.025.062.005.053.027-.144.342-.261.875-.44 1.293-.158.367-.436.671-.711.967-.076.081.093.047.206.035.174-.017.355-.022.519-.07-.143.155-.237.344-.384.54-.358.477-.853.92-1.535.938-.498.013-.94-.13-1.205-.455-.219-.27-.456-.592-.643-.768-.187-.175-.45-.237-.725-.248-.023-.001-.112-.024-.043.053.175.195.337.381.48.59a7.6 7.6 0 0 1 .915 1.914c.764-.47 1.696-.687 2.607-.635.824-1.368 2.355-2.376 3.994-3.155 1.917-.911 3.386-2.119 4.008-3.81.435-1.18.258-2.278-.568-3.183-.775-.85-1.835-1.441-3.27-1.507-2.015-.093-3.145 1.01-3.496 3.013-.01.056-.1.122-.078-.092.021-.211.02-.426.053-.636.177-1.096.808-2.214 1.795-2.616 1.244-.507 2.743-.43 4.033.267 1.64.886 2.554 2.077 2.672 3.54a3.9 3.9 0 0 1-.256 1.733c-.507 1.354-1.567 2.188-2.69 2.946-1.855 1.253-4.01 2.375-4.914 3.437-.056.065-.047.124.035.135 1.15.15 2.186.597 3.134 1.308.944.707 1.797 1.583 1.791 3.155-.007 1.934-2.521 3.235-4.158 3.276-1.895.049-3.25-.683-3.887-2.508-.453-1.298.092-2.743.845-3.966.044-.071-.049-.091-.085-.078-2.12.785-3.4 1.972-3.802 3.532-.337 1.31-.159 2.372.355 3.312 1.7 3.112 4.43 5.054 6.851 6.809l-.526-.91a8.5 8.5 0 0 0 2.417-1.635c.705 2.346.917 5.006.789 7.882-.015.242-.039.483-.043.725-.003.137-.042.161-.142.128a3.1 3.1 0 0 0-1.123-.128c-.075.004-.111-.006-.114-.135-.029-1.392-.153-2.716-.465-3.841-2.575-1.756-5.19-3.603-7.53-6.372-1.592-1.883-2.205-4.532-1.564-6.318.53-1.476 1.452-2.486 2.559-3.262.044-.031.064-.08.064-.178-.002-.52-.083-1.033-.32-1.535-.218-.325-.44-.643-.649-.974-.027-.044-.046-.072-.094-.039-.169.116-.246.354-.277.693-.025.27.064.47.107.71.09.512-.039.858-.214 1.123-.303.46-.694.74-1.23.814-.43.06-.862.058-1.275-.004-.099-.014-.126-.041-.021-.117.137-.099.266-.209.394-.32.072-.062.067-.117-.036-.113-.418.014-.81.025-1.087-.082-.269-.104-.517-.262-.775-.37-.158-.04-.298-.092-.476-.12-.146-.025-.062-.116.043-.179a2.7 2.7 0 0 0 .518-.408c.305-.304.606-.535.907-.679.28-.134.595-.205.852-.348.204-.113.356-.27.182-.47a1 1 0 0 0-.448-.273c-.146-.05-.357-.049-.494.042-.21.14-.338.291-.53.455-.291.248-.604.439-.999.455a1.03 1.03 0 0 1-.654-.217c-.16-.118-.311-.23-.469-.353-.111-.105-.226-.208-.334-.316-.05-.05-.096-.08-.142-.131-.098-.06.027-.079.146-.066.104.01.218.042.323.034.287-.022.477-.17.659-.313.056-.044.092-.078-.02-.103-.494-.11-.937-.283-1.198-.598-.28-.339-.48-.74-.572-1.14-.098-.427-.15-.827-.245-1.255-.027-.12.048-.07.128-.07.596 0 1.192-.067 1.787-.044.627.025 1.262.196 1.763.505.472.291.88.692 1.295 1.06.13.116.31.178.416.112.113-.07.066-.24.009-.405-.155-.446-.497-.759-.92-.931-.472-.192-.942-.384-1.365-.725-.345-.278-.602-.727-.754-1.036-.035-.072-.078-.21.075-.123.43.247.746.435.952.409.17.05.105-.05-.071-.167-.397-.262-.631-.62-.71-.953a1.66 1.66 0 0 1 .056-.952c.318-.873.602-1.872.33-3.188m1.418 2.98 2.7 5.373c1.483-.858 2.354-2.267 2.786-4.15-.168 1.807-1.028 3.408-2.558 4.442-.038.025-.045.11.008.13 1.418.556 2.724.654 3.915.247-1.041.576-2.736.755-3.991.028-.056-.032-.075-.012-.096.075-.16 1.471-1.078 2.415-2.168 3.166.892-.86 1.673-1.858 1.912-3.34.01-.064.053-.091-.121-.065-1.443.542-3.088.59-5.213-.536 1.674.688 3.344.942 5.046.249.079-.032.097-.045.078-.093zm7.87 9.826c1.468-.003 2.645.521 3.653 1.358.61.507 1.02 1.2.98 2.054-.063 1.38-1.672 2.313-3.311 2.345-1.203.024-2.183-.402-2.609-1.567-.277-.76-.194-1.495.135-2.257a8.4 8.4 0 0 1 1.152-1.933m4.913 10.072 1.321 1.13c-.08-.763-.132-1.527-.063-2.288.021-.244.047-.49.113-.725.285-1.018.626-2.019.938-3.028.405.633.856 1.138 1.38 1.532a7 7 0 0 1 2.07 2.42c.362.683.325.991.86 1.531.201.203.415.272.612.256.291-.023.527-.257.717-.632.239-.47.285-.987.093-1.578-.173-.53-.597-.745-.938-1.067-.776-.73-1.632-1.49-1.685-2.736-.057-1.344 1.061-2.535 2.019-3.81.075-.1.175-.165.135-.003-.313 1.258.163 2.024 1.137 2.746a8 8 0 0 1 .583-2.331c.368-.869 1.214-1.716 2.537-2.278 1.042-.443 2.211-.716 3.361-1.059.099-.03.164.006.178.075.289 1.458.441 2.931.526 4.377.125 2.143-.316 3.805-1.173 5.16-.461.729-1.043 1.341-1.51 2.1-.182.295-.365.615-.398.96-.015.151.119.346.27.369.284.042.578-.085.838-.206.907-.424 1.57-1.147 1.905-2.317.529-1.846 1.182-3.53 2.125-4.335.58-.495 1.198-.942 1.926-1.251-.682 1.162-.941 2.394-.863 3.07.526-1.046 1.161-2.076 2.327-2.52 1.134-.43 2.281-.115 3.404.122 2.156.454 4.316.546 6.475-.299-1.809 1.875-2.328 2.96-2.694 4.115-.439 1.384-.944 2.921-1.429 3.543-.98 1.259-2.53 1.487-4.035 1.618.735.483 1.643.832 2.639 1.137.147.045.14.098 0 .185-.808.505-1.641.858-2.509.974-.848.112-1.72-.021-2.658-.214-.824-.169-1.725-.384-2.502-.326-.873.064-1.598.407-2.174 1.037-.15.164-.206.38-.06.537.262.28.722.206 1.184.216.877.02 1.234-.27 2.757-.284 2.527-.024 4.801 1.262 7.065 3.035.46.36.92.722 1.371 1.094.06.05.026.086-.035.157a17.7 17.7 0 0 1-2.893 2.68c-1.07.78-2.12.945-3.205.817a5.5 5.5 0 0 1-2.019-.644c.06.452.145.904.38 1.29.335.549.901.876 1.514 1.138-.89.193-1.83.332-2.711.34-1.02.01-1.792-.282-2.431-1.037-.32-.378-.633-1.204-.853-2.132-.15-.637-.079-1.18-.771-1.66-.492-.34-1.035-.519-1.653-.333-.367.11-.55.38-.455.867.088.45.857 1.305 1.265 2.04.393.708.581 1.536.74 2.416.148.828.395 1.506.66 2.004l-.14.014a106 106 0 0 1-3.144-.766c-.163-.043-.24-.124-.252-.256-.131-1.435-.576-2.832-1.72-3.887-1.13-1.042-2.47-1.352-3.867-1.251.016-.348.19-.807.533-1.237.287-.358.64-.658.98-.966.645-.584 1.13-1.502 1.061-2.541-.005-.068-.069-.08-.122-.034-1.997 1.689-4.4 3.024-6.97 4.29a6 6 0 0 0-1.39-.799c-.053-.023-.07-.072.008-.089a12 12 0 0 0 2.786-.96c2.082-1.02 3.669-2.212 5.116-3.226.067-.047.015-.092-.014-.12-.307-.302-.81-.48-1.585-.488-.698-.007-1.238.222-1.755.412-.488.18-.958.318-1.642.192-.785-.144-1.754-.635-2.566-1.492-.76-.802-1.018-2.549-1.026-4.792zm2.943.996c2.15 2.836 4.798 4.535 8.18 4.566-1.317 3.48-.35 6.418 1.219 9.214-1.204-2.955-1.66-5.979-.399-9.161 3.059 3.6 7.062 5.087 11.712 5.124-4.404-.55-8.305-2.015-11.04-5.597l12.624-8.103-13.148 7.26c-1.992-3.558-2.288-7.62-.718-12.239-1.876 4.184-2.128 8.429.014 12.764-3.507-.247-6.34-1.497-8.444-3.828m-8.258 9.482c.102.062.116.121.057.149a1.5 1.5 0 0 0-.526.384c-.058.07-.105.03-.21-.043-.886-.615-1.848-.824-2.825-.81-.922.013-1.729.191-2.523.288-.174.02-.359-.01-.465-.025.047.381.141.66.354.93.213.271.646.6 1.145.882.781.442 1.332.821 1.57 1.336.346.75.29 1.646.028 2.63-.082.31-.172.204-.298.113q-1.454-1.042-3.22-.788c-.072.01-.079-.069-.067-.143.336-2.115-.064-3.984-1.184-5.604 2.485-.73 3.858-2.416 4.75-4.513-1.163 1.944-2.79 3.361-5.053 4.055.693-3.813-.566-6.406-2.303-8.7 1.749 2.69 2.52 5.494 1.692 8.486l-10.398-2.566 10.177 3.256c-1.216 2.967-3.548 4.715-6.432 5.863 2.863-.792 5.369-2.336 7.007-5.636.023-.046.058-.082.1-.021 1.2 1.74 1.582 3.583 1.471 5.469q-.039.03-.078.064c-.567.158-1.123.333-1.574.657-.079.056-.12.059-.093-.071.115-.529.33-.961.485-1.457.079-.25.12-.539-.073-.76-.19-.222-.492-.21-.746-.093-.462.211-.926.537-.91 1.158a12 12 0 0 1-.085 1.87c-.12.88-.706 1.338-1.578 1.534-.608.137-1.19.235-1.829.317-.105.013-.123-.027-.037-.1.418-.355.75-.703.803-1.109a2.5 2.5 0 0 0-.002-.767c-.006-.034-.087-.03-.109-.011-.586.505-1.236.898-2.072.987-1.263.136-2.604-.676-3.973-1.507-.077-.046-.025-.111.03-.192 1.052-1.53 2.176-2.951 3.63-3.798a5.3 5.3 0 0 1 1.72-.63c.662-.117 1.419-.129 1.986-.352.12-.046.288-.1.349-.199.05-.082.063-.171.017-.238-.144-.209-.395-.349-.682-.43a2.5 2.5 0 0 0-.675-.12c-.297-.004-.582.072-.874.184a10 10 0 0 0-1.38.668 4.8 4.8 0 0 1-2.203.618 5.7 5.7 0 0 1-1.418-.278c-.08-.027-.081-.072.004-.12.577-.332 1.093-.708 1.524-1.171.033-.036-.025-.087-.05-.08-.583.154-1.268.262-2.117.049-.562-.141-1.083-.498-1.535-1.134-.508-.716-.936-1.519-1.514-2.154-.635-.698-1.4-1.26-2.138-1.592.876-.038 1.728-.043 2.386-.203 1.182-.288 2.122-.85 3.114-1.301.606-.276 1.256-.435 1.94-.164.58.23 1.045.648 1.474 1.106.049.052.088.002.064-.054a6.6 6.6 0 0 0-.987-1.652c-.064-.078-.165-.226.007-.185.708.17 1.35.406 1.87.853.625.538 1.13 1.19 1.578 1.946.35.592.82 1.1 1.45 1.408.312.152.66.175 1.018.16q.196-.008.22-.184c.023-.17-.077-.305-.18-.431a4.3 4.3 0 0 0-.973-.86c-.909-.613-1.606-1.49-2.103-2.63-.491-1.123-.788-2.63-.867-4.548.881-.035 1.792-.049 2.743.12 1.1.196 1.987.762 2.474 1.72.124.245.244.51.351.771.045.109.095.074.14 0 .197-.327.414-.672.418-1.055.005-.385-.13-.703-.22-.973-.011-.035.062-.01.085.007.646.424 1.2.879 1.592 1.35.446.534.69 1.05.526 1.713-.154.628-.494 1.17-.838 1.663-.255.364-.294.712-.228 1.112.059.358.309.618.54.792a.48.48 0 0 0 .487.068c.17-.067.31-.244.377-.48.084-.294.122-.6.17-.902.154-.964.718-1.732 1.145-2.381.207-.315.385-.636.502-1 .037-.116.076-.079.095-.045.284.499.616 1.025.988 1.556.437.626.57 1.538.757 2.346.009.038.053.011.063-.007.16-.274.378-.617.619-.956.274.63.392 1.472.433 2.352.041.886-.382 1.585-1.04 2.175-.454.405-1.02.61-1.66.628-.538.016-1.087-.069-1.542.047-.473.12-.712.347-.889.568-.06.075-.07.082.01.09.41.037.276-.202 2.19-.26 1.592-.048 2.944.303 4.051.985m-.479 5.631c.076 1.315.635 2.353 1.507 3.213 1.14 1.084 2.339 1.413 3.554 1.55-1.707.266-3.157.023-4.165-1.21-.828-1.01-1.032-2.218-.896-3.553m9.267.865c-.063-3.21-2.722-6.354-5.813-6.337s-5.049 2.794-5.101 5.915c-.026 1.513.084 2.44 1.057 3.784.97 1.342 2.78 1.917 4.442 1.885 1.431-.028 2.906-.417 3.905-1.31 1.013-.903 1.541-2.321 1.51-3.937m-19.283 5.204c.374 1.7.941 2.644 1.62 3.284.93.875 2.085 1.354 3.426 1.435-1.093.283-2.605.134-3.681-.767-1.077-.9-1.456-2.265-1.365-3.952m9.353.071c-1.336-.932-1.862-2.768-1.855-4.193-1.026-.874-2.44-1.527-3.674-1.563-2.444-.072-4.591 1.994-4.89 6.04-.298 4.048 2.389 5.982 4.89 6.042 2.984.07 5.557-2.762 5.529-6.326m10.084-8.728c1.296 1.983 1.25 4.078.725 6.212 1.421.467 2.487 1.466 3.226 2.957 1.976.3 3.416-1.1 3.753-2.673.52-2.426-.146-4.664-1.99-6.367-1.789-1.4-3.698-1.383-5.714-.129m-4.954 13.475c.214 1.524.92 2.556 1.848 3.369.96.841 2.173 1.297 3.582 1.464-1.303.25-2.613.104-3.91-.867-1.043-.783-1.543-2.114-1.52-3.966m-.946-.739c-.421 4.285 2.328 6.911 4.784 6.922 2.768.013 5.067-2.709 5.067-5.998s-2.398-5.657-3.916-5.87c-1.592 1.852-2.555 2.425-5.369 2.625-.286.695-.443 1.072-.566 2.321m10.493-2.061c1.423.035 2.4-.495 3.027-1.464 1.879.807 3.041 2.369 3.042 4.52 0 2.35-1.389 4.122-3.624 4.193-.988.031-1.976-.305-2.964-.867 1.29-1.93 1.56-4.012.519-6.382m-13.717-1.43c.588.417 1.29.776 2.537.818-.553 1.134-.554 2.487-.497 3.894-.26.37-.644.765-1.054.748-.235-.01-.41-.1-.602-.158-1.324-.404-2.2.007-2.601 0 1.223-1.154 2.238-2.849 2.217-5.302m-10.903 8.691c-.11 1.188.072 2.17.767 2.779.59.516 1.42.612 2.36.511-.943-.146-1.703-.472-2.225-1.044-.482-.528-.805-1.257-.902-2.246m5.347-1.68c-1.342 1.605-1.71 3.482-1.422 5.543-1.558.628-2.814.501-3.752-.555-.699-.786-1.011-1.908-.981-3.042.032-1.215.411-2.37 1.45-3.354.957 1.32 2.686 1.565 4.705 1.407m9.24 4.846c.007-.598.037-1.067-.032-1.592-.535-.487-1.359-1.547-1.553-2.689-.945-.654-1.976-.9-3.02-.925-2.844-.068-4.765 2.127-4.789 5.063-.018 2.269 1.617 5.135 4.58 5.167 2.635.03 4.78-2.03 4.814-5.024m-8.339-.988c-.183 1.682.256 2.991 1.187 3.866 1.04.978 2.472 1.167 3.902.867-1.524-.094-2.558-.671-3.334-1.307-.854-.7-1.651-2.13-1.755-3.426m-3.326 4.58c.03.75.371 1.365.872 1.747.429.322 1.073.443 1.678.433-.527-.182-1.075-.457-1.45-.767a4.1 4.1 0 0 1-1.1-1.413m-.738-1.325c.694.1 1.282-.07 1.962-.441.446 1.75 1.432 2.843 2.75 3.532-.004.407-.215.672-.54.839-1.116.571-2.174.368-3.198-.498-.717-.607-1.084-1.79-.974-3.432m13.224 2.387c.487 1.058 1.11 1.861 1.948 2.274.813.4 1.7.648 2.807.44-1.078.433-2.138.521-3.127 0-.9-.474-1.367-1.477-1.628-2.714m1.194-5.22c-.269.108-.451.336-.568.653.06 1.508-.245 2.688-.96 3.667-.24.328-.492.896-.476 1.627.025 1.19.748 2.094 1.549 2.573 1.582.948 3.713.957 5.003-.092 1.35-1.098 2.085-3.12 1.904-4.634-.161-1.353-.581-2.68-1.947-3.752-1.57.895-3.067.805-4.505-.043m5.965-.434a3.5 3.5 0 0 0 1.223-1.393c1.01.583 2.107.995 3.496.838.83 1.182 1.143 2.616.924 3.895-.354 2.072-2.24 3.1-4.35 3.212.392-1.258.695-2.492.367-3.727-.298-1.118-.961-2.02-1.66-2.825m1.06 8.174c.712-.083 1.405-.205 2.004-.526.245 1.124-.043 2.028-.626 2.815-.544.735-1.256 1.124-2.25.991-.118-.517-.293-1.039-.735-1.517.687-.499 1.242-1.075 1.607-1.763m-18.816.44c.957.27 1.57-.048 2.146-.426-.543 2.053-.667 4.012.497 5.686-1.088-.325-2.107-.884-2.63-2.473-.314-.958-.25-1.927-.014-2.786m3.887 1.692c.193 1.283.669 2.063 1.286 2.637.738.685 1.658.99 2.63 1.137-.936.132-1.908.165-2.914-.682-.888-.748-1.087-1.86-1.002-3.092m4.566-3.724c-.11 1.007.033 1.869.427 2.42.51.716 1.274 1.049 1.804 1.346a3.37 3.37 0 0 1-.355 3.035c-.868 1.277-2.597 1.722-4.122 1.628-1.585-.277-2.856-1.196-3.205-3.462-.196-1.272.018-2.66.49-4.171 1.629 1.09 3.77.303 4.96-.796m2.317 9.856c.374.615.808 1.173 1.456 1.486.64.308 1.392.366 2.21.277-.703.394-1.466.569-2.245.263-.872-.343-1.236-1.136-1.421-2.025m1.357-5.316c1.479.476 2.705.309 3.766-.277 1.092 1.584 1.514 3.096 1.152 4.535-.54 2.146-1.663 3.642-3.568 4.15-1.089.291-2.24-.1-3.113-1.151-.527-.635-.906-1.446-1.178-2.546 2.199-1.037 3.214-2.155 2.94-4.71m-5.61 7.515c-.152.714.083 1.571.522 1.999.675.411 1.338.42 1.994.092-.83.013-1.256-.113-1.624-.437a2.6 2.6 0 0 1-.892-1.654m-.385-1.941c.65.313 1.345.367 2.09.15.434 1.827 1.37 2.961 2.792 3.425-.479 1.08-1.437 1.464-2.526 1.467-1.148.004-2.176-.61-2.588-1.716-.389-1.045-.128-2.171.232-3.326m4.376 6.38c.103.663.392 1.087.76 1.294.555.31 1.307.292 1.685.004-.575.009-1.06-.1-1.429-.295-.367-.195-.712-.51-1.016-1.002zm1.487-2.573c1.154.211 2.092.101 2.715-.483.627 1.18.884 2.376.27 3.54-.59 1.117-1.67 1.827-2.786 1.812-1.268-.018-2.37-1.035-2.68-2.765 1.12-.462 1.987-1.13 2.481-2.104m-97.049 69.478c.76.929 1.54 1.356 2.31 1.641.544.202.908.533 1.116 1.11.12.329.144.7.146 1.088.25-.305.436-.607.543-.988.028-.097.092-.155.15-.016.16.385.323.958.284 1.365-.049.51-.289.984-.426 1.478-.12.427-.073.798.099 1.116.158.291.267.33.345.313.139-.032.184-.18.188-.338.013-.575-.05-1.126.057-1.674.168-.87 1.037-2.022 2.026-3.01.093-.093.169-.04.213.018.341.455.728.884.998 1.4.19.364.228.858.153 1.223a2 2 0 0 1-.362.806c-.059.08-.008.097.046.096.503-.009.774-.268.963-.618.04-.073.086-.073.089-.007.023.438.034.885-.028 1.294a1.03 1.03 0 0 1-.747.867 4 4 0 0 1-1.055.174c-.092 0-.151.048-.213.092-.158.114-.282.25-.349.391a.9.9 0 0 0-.085.391c0 .139.106.267.28.317.144.04.38-.103.658-.281.512-.326 1.043-.404 1.592-.437.24-.015.476-.046.668-.155.045-.025.063.005.054.027-.144.342-.261.875-.441 1.293-.157.367-.436.67-.71.967-.076.081.093.047.206.035.173-.018.354-.022.518-.07-.142.154-.237.344-.383.54-.358.477-.853.92-1.536.938-.497.013-.94-.13-1.204-.455-.22-.27-.456-.592-.643-.768-.188-.175-.45-.237-.725-.248-.023-.001-.113-.025-.043.053.175.194.336.38.48.59.388.566.696 1.24.915 1.913.764-.469 1.695-.686 2.606-.634.825-1.369 2.356-2.377 3.995-3.155 1.917-.912 3.386-2.119 4.008-3.81.435-1.18.258-2.278-.569-3.184-.774-.849-1.834-1.44-3.269-1.506-2.016-.093-3.145 1.01-3.496 3.013-.01.056-.1.122-.079-.092.022-.212.02-.427.054-.636.177-1.096.807-2.214 1.794-2.616 1.245-.507 2.744-.43 4.033.267 1.641.885 2.555 2.077 2.673 3.539a3.9 3.9 0 0 1-.256 1.734c-.507 1.353-1.567 2.188-2.69 2.946-1.855 1.253-4.01 2.375-4.915 3.436-.055.066-.047.125.036.136 1.15.15 2.186.597 3.134 1.307.944.708 1.796 1.584 1.79 3.156-.006 1.934-2.52 3.235-4.157 3.276-1.895.049-3.25-.683-3.888-2.508-.453-1.298.093-2.743.846-3.966.044-.071-.05-.092-.085-.078-2.12.785-3.401 1.972-3.803 3.532-.337 1.31-.158 2.372.356 3.312 1.7 3.112 4.43 5.054 6.85 6.808l-.525-.91a8.5 8.5 0 0 0 2.416-1.634c.705 2.346.918 5.005.79 7.882-.015.242-.04.483-.043.725-.002.137-.042.16-.143.128a3.1 3.1 0 0 0-1.123-.128c-.074.004-.11-.006-.113-.135-.03-1.393-.153-2.716-.466-3.841-2.574-1.757-5.19-3.603-7.53-6.372-1.591-1.883-2.205-4.532-1.563-6.318.53-1.477 1.452-2.486 2.558-3.262.045-.032.065-.08.064-.178-.002-.52-.083-1.034-.32-1.535-.217-.325-.44-.643-.648-.974-.028-.044-.046-.072-.094-.04-.17.117-.247.355-.277.694-.025.269.063.47.106.71.091.512-.038.858-.213 1.123-.303.46-.695.739-1.23.814a4.5 4.5 0 0 1-1.275-.004c-.1-.015-.126-.041-.022-.117.137-.1.267-.21.395-.32.072-.063.066-.117-.036-.114-.418.015-.81.025-1.087-.082-.27-.104-.517-.262-.775-.37-.159-.04-.298-.091-.476-.12-.146-.024-.063-.115.042-.178a2.8 2.8 0 0 0 .52-.409c.304-.304.604-.535.905-.678.28-.134.595-.206.853-.349.204-.113.356-.27.181-.469a1 1 0 0 0-.448-.274c-.145-.05-.356-.048-.494.043-.21.139-.337.29-.53.454-.29.249-.604.44-.998.455a1.03 1.03 0 0 1-.654-.217c-.16-.118-.312-.23-.47-.352-.11-.105-.225-.208-.334-.316-.049-.05-.095-.08-.142-.132-.097-.06.027-.078.146-.066.104.011.219.042.323.034.287-.022.477-.17.66-.313.055-.043.092-.078-.02-.103-.495-.11-.938-.283-1.198-.597-.28-.34-.48-.741-.572-1.14-.099-.427-.15-.827-.246-1.255-.026-.121.048-.071.128-.071.596 0 1.192-.067 1.788-.043.627.025 1.261.195 1.762.504.472.292.881.692 1.296 1.06.13.117.31.178.415.113.113-.071.066-.24.01-.405-.155-.446-.497-.759-.921-.932-.471-.192-.941-.384-1.365-.725-.345-.277-.602-.726-.753-1.036-.036-.072-.078-.21.074-.122.43.247.746.434.953.408.17.05.105-.05-.071-.167-.397-.261-.632-.62-.711-.952a1.67 1.67 0 0 1 .057-.953c.317-.872.602-1.872.33-3.188zm1.418 2.98 2.7 5.373c1.483-.859 2.354-2.267 2.787-4.15-.168 1.807-1.029 3.408-2.559 4.441-.037.026-.044.11.008.131 1.418.555 2.725.654 3.915.246-1.04.577-2.736.755-3.99.029-.056-.032-.076-.013-.096.074-.16 1.472-1.078 2.416-2.168 3.166.891-.86 1.673-1.858 1.911-3.34.01-.063.053-.09-.12-.064-1.443.542-3.088.59-5.214-.536 1.674.688 3.344.942 5.046.249.08-.033.098-.046.079-.093zm7.87 9.826c1.468-.003 2.646.52 3.653 1.357.611.508 1.02 1.2.981 2.054-.063 1.38-1.673 2.314-3.312 2.346-1.202.023-2.183-.402-2.608-1.567-.278-.76-.195-1.496.135-2.257a8.4 8.4 0 0 1 1.151-1.933m4.913 10.072 1.322 1.13c-.08-.763-.132-1.527-.064-2.289.022-.243.048-.489.114-.724.285-1.018.625-2.019.938-3.028.404.632.856 1.137 1.379 1.531a7 7 0 0 1 2.071 2.42c.361.684.325.992.86 1.532.2.202.415.271.611.256.292-.023.527-.258.718-.633.239-.47.285-.987.092-1.578-.173-.53-.597-.744-.938-1.066-.776-.731-1.631-1.49-1.684-2.736-.058-1.345 1.06-2.536 2.018-3.81.076-.1.176-.165.135-.002-.313 1.258.164 2.024 1.137 2.746a8 8 0 0 1 .583-2.331c.369-.87 1.215-1.716 2.537-2.278 1.043-.444 2.212-.716 3.362-1.06.098-.029.164.007.177.075.29 1.459.442 2.932.526 4.378.126 2.142-.315 3.805-1.172 5.16-.462.728-1.044 1.34-1.51 2.1-.182.294-.366.614-.399.959-.014.152.12.347.27.37.285.041.578-.085.839-.207.906-.423 1.57-1.146 1.905-2.316.528-1.846 1.181-3.53 2.125-4.335.58-.495 1.198-.942 1.926-1.251-.682 1.162-.942 2.394-.864 3.07.527-1.046 1.162-2.076 2.328-2.52 1.134-.43 2.28-.115 3.404.122 2.156.454 4.316.546 6.474-.299-1.808 1.875-2.327 2.96-2.693 4.115-.44 1.383-.945 2.92-1.429 3.542-.98 1.26-2.531 1.487-4.035 1.62.734.482 1.642.83 2.638 1.136.147.045.14.097 0 .185-.807.505-1.64.858-2.508.973-.848.113-1.72-.02-2.658-.213-.824-.169-1.726-.384-2.502-.327-.873.065-1.598.408-2.175 1.038-.15.164-.205.38-.059.537.262.28.722.206 1.184.216.877.02 1.234-.27 2.757-.284 2.527-.024 4.8 1.261 7.064 3.035.46.36.921.721 1.372 1.094.059.049.026.086-.036.156a17.8 17.8 0 0 1-2.892 2.68c-1.07.78-2.12.946-3.206.817a5.5 5.5 0 0 1-2.018-.643c.06.452.144.904.38 1.29.335.548.9.875 1.514 1.137-.89.194-1.831.333-2.712.341-1.02.01-1.792-.282-2.43-1.037-.32-.378-.633-1.204-.853-2.132-.151-.638-.08-1.18-.771-1.66-.493-.341-1.036-.519-1.653-.334-.368.11-.55.381-.455.867.087.451.857 1.306 1.265 2.04.393.708.58 1.537.739 2.416.148.829.395 1.506.66 2.005l-.14.014a106 106 0 0 1-3.143-.766c-.163-.043-.24-.124-.253-.256-.13-1.435-.576-2.833-1.72-3.887-1.13-1.042-2.47-1.352-3.866-1.251.016-.348.19-.808.533-1.237.286-.358.64-.658.98-.967.644-.583 1.13-1.502 1.06-2.54-.004-.068-.068-.08-.122-.034-1.997 1.689-4.4 3.024-6.97 4.29a6 6 0 0 0-1.389-.8c-.054-.022-.07-.071.007-.088a12 12 0 0 0 2.786-.96c2.083-1.02 3.67-2.212 5.117-3.226.067-.047.015-.092-.014-.12-.307-.302-.811-.48-1.585-.488-.698-.007-1.238.222-1.756.412-.487.18-.958.318-1.642.192-.785-.145-1.753-.635-2.566-1.493-.759-.801-1.017-2.548-1.025-4.79zm2.944.995c2.15 2.836 4.798 4.536 8.18 4.567-1.317 3.479-.35 6.417 1.218 9.213-1.203-2.954-1.66-5.978-.398-9.16 3.059 3.6 7.061 5.086 11.712 5.123-4.404-.55-8.305-2.014-11.041-5.597l12.625-8.102-13.148 7.26c-1.993-3.558-2.289-7.62-.718-12.239-1.877 4.184-2.128 8.428.013 12.763-3.506-.246-6.339-1.496-8.443-3.828m-8.258 9.482c.102.063.116.122.056.15a1.5 1.5 0 0 0-.525.383c-.059.071-.106.03-.21-.042-.887-.615-1.849-.825-2.825-.81-.923.013-1.729.191-2.523.287-.175.021-.36-.01-.466-.024.048.38.142.66.355.93.213.271.646.6 1.144.882.782.442 1.333.82 1.57 1.336.346.75.29 1.646.029 2.63-.083.31-.172.204-.298.113-.968-.694-2.045-.958-3.22-.789-.072.01-.08-.068-.067-.142.335-2.116-.065-3.984-1.185-5.604 2.486-.731 3.858-2.417 4.751-4.513-1.163 1.944-2.79 3.36-5.053 4.054.693-3.813-.566-6.405-2.303-8.699 1.749 2.69 2.52 5.493 1.691 8.486l-10.397-2.566 10.177 3.255c-1.216 2.967-3.549 4.716-6.433 5.864 2.863-.792 5.37-2.336 7.008-5.636.023-.046.058-.082.1-.022 1.2 1.741 1.582 3.583 1.47 5.47l-.078.063c-.567.159-1.123.334-1.574.657-.078.057-.12.06-.092-.07.114-.529.33-.962.485-1.458.078-.25.12-.538-.073-.76-.191-.22-.492-.209-.746-.092-.463.21-.927.537-.91 1.158.02.791-.026 1.433-.086 1.87-.12.88-.705 1.338-1.578 1.534-.607.137-1.19.235-1.828.316-.105.014-.123-.026-.038-.1.419-.354.75-.703.804-1.108a2.5 2.5 0 0 0-.002-.768c-.006-.033-.087-.029-.109-.01-.586.504-1.236.897-2.072.987-1.263.135-2.604-.676-3.973-1.507-.077-.047-.025-.111.03-.192 1.052-1.531 2.175-2.951 3.63-3.799a5.3 5.3 0 0 1 1.72-.629c.662-.117 1.418-.129 1.986-.352.12-.047.288-.1.349-.199.05-.082.063-.172.017-.238-.145-.21-.395-.35-.682-.43a2.5 2.5 0 0 0-.675-.121c-.297-.003-.582.073-.875.185a10 10 0 0 0-1.379.668 4.8 4.8 0 0 1-2.203.618 5.7 5.7 0 0 1-1.418-.278c-.08-.028-.082-.072.004-.12.576-.332 1.093-.709 1.523-1.172.033-.035-.024-.087-.049-.08-.583.155-1.268.262-2.118.05-.561-.142-1.082-.498-1.535-1.135-.508-.715-.936-1.518-1.514-2.154-.635-.698-1.4-1.26-2.137-1.592.876-.037 1.728-.042 2.386-.203 1.182-.288 2.122-.85 3.113-1.3.606-.276 1.257-.435 1.94-.164.58.23 1.045.648 1.474 1.105.05.053.088.002.065-.053a6.6 6.6 0 0 0-.987-1.653c-.064-.077-.165-.225.007-.184.707.169 1.35.405 1.869.852.625.538 1.131 1.19 1.579 1.947.35.592.82 1.1 1.45 1.407.312.153.66.175 1.017.16q.197-.007.22-.183c.023-.17-.076-.306-.179-.432a4.3 4.3 0 0 0-.973-.86c-.909-.612-1.606-1.49-2.104-2.63-.49-1.122-.788-2.63-.867-4.548.882-.034 1.793-.048 2.744.12 1.1.197 1.987.762 2.473 1.72.124.245.245.51.352.772.044.108.094.074.139 0 .197-.328.415-.672.419-1.055.005-.385-.131-.703-.22-.974-.012-.034.061-.009.085.007.646.425 1.2.88 1.592 1.35.445.535.69 1.05.526 1.713-.155.628-.495 1.17-.839 1.663-.254.365-.293.712-.227 1.113.059.357.308.618.54.792a.48.48 0 0 0 .487.068c.17-.067.309-.244.376-.48.084-.295.123-.6.17-.903.155-.963.718-1.731 1.145-2.38.207-.316.386-.636.503-1.001.037-.115.075-.078.094-.045.285.5.617 1.026.988 1.557.438.626.57 1.537.757 2.345.01.039.053.012.064-.007.159-.273.377-.616.618-.956.275.631.393 1.473.434 2.352.041.887-.382 1.586-1.041 2.175-.453.406-1.02.61-1.66.629-.537.016-1.086-.07-1.542.046-.472.12-.712.348-.888.569-.06.075-.07.081.01.089.41.038.276-.202 2.19-.26 1.591-.048 2.943.303 4.05.985zm-.479 5.632c.075 1.315.635 2.353 1.507 3.212 1.139 1.085 2.338 1.414 3.553 1.55-1.706.267-3.157.023-4.164-1.208-.828-1.012-1.032-2.219-.896-3.554m9.266.865c-.062-3.211-2.722-6.354-5.812-6.337s-5.05 2.793-5.102 5.915c-.025 1.513.084 2.44 1.058 3.784.97 1.341 2.779 1.917 4.442 1.885 1.43-.028 2.905-.417 3.905-1.31 1.012-.904 1.54-2.322 1.51-3.937m-19.282 5.204c.373 1.7.94 2.644 1.62 3.284.93.874 2.085 1.354 3.426 1.435-1.093.283-2.605.133-3.682-.767s-1.455-2.265-1.364-3.952m9.352.071c-1.336-.933-1.861-2.768-1.854-4.193-1.026-.875-2.441-1.527-3.675-1.563-2.443-.072-4.59 1.993-4.89 6.04-.298 4.048 2.39 5.982 4.89 6.041 2.985.072 5.558-2.761 5.53-6.325m10.085-8.728c1.296 1.983 1.249 4.077.725 6.212 1.421.466 2.487 1.466 3.226 2.956 1.976.301 3.415-1.099 3.752-2.672.52-2.426-.146-4.664-1.99-6.368-1.788-1.399-3.698-1.382-5.713-.128m-4.954 13.475c.214 1.524.92 2.556 1.847 3.369.96.84 2.174 1.297 3.582 1.464-1.303.25-2.612.104-3.909-.867-1.044-.783-1.544-2.114-1.52-3.966m-.946-.74c-.421 4.285 2.327 6.912 4.783 6.923 2.769.012 5.068-2.709 5.068-5.998s-2.398-5.657-3.916-5.87c-1.592 1.852-2.555 2.425-5.37 2.625-.286.695-.442 1.071-.565 2.32m10.492-2.06c1.424.034 2.4-.495 3.028-1.465 1.878.808 3.04 2.37 3.042 4.52 0 2.35-1.389 4.123-3.625 4.194-.988.03-1.976-.305-2.963-.867 1.289-1.93 1.56-4.012.518-6.383m-13.716-1.43c.587.416 1.29.776 2.537.817-.553 1.134-.554 2.488-.498 3.895-.26.369-.644.765-1.053.748-.235-.01-.411-.1-.603-.158-1.324-.404-2.2.007-2.6 0 1.222-1.154 2.238-2.849 2.217-5.302m-10.904 8.69c-.11 1.188.073 2.17.767 2.78.59.516 1.421.612 2.36.511-.943-.147-1.702-.472-2.224-1.045-.482-.527-.806-1.256-.903-2.245m5.347-1.68c-1.342 1.605-1.71 3.483-1.421 5.543-1.558.629-2.815.502-3.753-.554-.698-.786-1.01-1.909-.98-3.042.031-1.215.41-2.37 1.45-3.354.956 1.32 2.686 1.565 4.704 1.407m9.24 4.847c.006-.599.037-1.067-.031-1.592-.535-.488-1.36-1.547-1.554-2.689-.945-.654-1.976-.9-3.02-.925-2.844-.068-4.764 2.127-4.788 5.063-.019 2.268 1.617 5.134 4.58 5.167 2.634.03 4.78-2.03 4.813-5.024m-8.338-.988c-.184 1.682.256 2.991 1.186 3.866 1.04.978 2.473 1.167 3.902.867-1.523-.095-2.557-.672-3.333-1.308-.855-.7-1.652-2.13-1.755-3.425m-3.327 4.58c.031.75.371 1.364.873 1.746.429.322 1.073.443 1.677.434-.527-.183-1.075-.458-1.45-.768a4.1 4.1 0 0 1-1.1-1.412m-.737-1.326c.694.1 1.282-.07 1.961-.44.447 1.75 1.433 2.843 2.75 3.532-.003.407-.215.672-.54.838-1.116.572-2.174.369-3.198-.497-.717-.607-1.083-1.79-.973-3.433m13.224 2.387c.486 1.058 1.11 1.862 1.947 2.274.814.4 1.7.649 2.808.441-1.078.432-2.139.52-3.127 0-.9-.474-1.367-1.477-1.628-2.715m1.194-5.22c-.27.108-.451.336-.569.654.06 1.507-.245 2.688-.96 3.667-.239.327-.491.896-.476 1.627.026 1.19.749 2.093 1.55 2.573 1.582.948 3.712.957 5.002-.092 1.351-1.099 2.086-3.12 1.905-4.634-.162-1.354-.581-2.68-1.947-3.753-1.571.896-3.067.805-4.505-.042m5.965-.433a3.5 3.5 0 0 0 1.222-1.393c1.01.583 2.108.995 3.497.838.83 1.182 1.142 2.615.924 3.895-.354 2.071-2.24 3.1-4.35 3.212.392-1.258.695-2.493.366-3.728-.298-1.118-.96-2.02-1.66-2.824m1.06 8.174c.712-.083 1.405-.206 2.003-.526.246 1.124-.043 2.028-.625 2.814-.544.735-1.256 1.124-2.25.992-.118-.517-.294-1.039-.735-1.518.687-.498 1.242-1.074 1.606-1.762m-18.817.44c.958.27 1.57-.048 2.146-.426-.542 2.053-.666 4.012.498 5.685-1.088-.325-2.108-.883-2.63-2.473-.314-.958-.25-1.926-.014-2.786m3.887 1.692c.193 1.282.67 2.063 1.287 2.636.738.686 1.658.991 2.63 1.138-.936.132-1.908.165-2.915-.683-.888-.748-1.086-1.86-1.002-3.091m4.566-3.725c-.109 1.007.034 1.87.427 2.42.51.716 1.274 1.05 1.805 1.347a3.37 3.37 0 0 1-.355 3.035c-.869 1.276-2.597 1.722-4.123 1.627-1.584-.276-2.856-1.196-3.205-3.46-.196-1.274.019-2.661.49-4.173 1.63 1.091 3.77.304 4.961-.796m2.317 9.857c.374.615.809 1.173 1.457 1.486.64.308 1.392.366 2.21.277-.703.393-1.467.568-2.246.263-.872-.343-1.235-1.137-1.421-2.026m1.357-5.316c1.48.476 2.705.308 3.767-.277 1.092 1.584 1.513 3.095 1.152 4.534-.54 2.146-1.663 3.643-3.568 4.151-1.089.29-2.24-.1-3.113-1.151-.528-.635-.906-1.446-1.178-2.546 2.198-1.037 3.213-2.156 2.94-4.71m-5.61 7.514c-.152.714.084 1.572.523 2 .674.41 1.338.42 1.993.092-.83.012-1.256-.113-1.624-.437a2.6 2.6 0 0 1-.892-1.655m-.385-1.94c.65.312 1.345.367 2.09.149.435 1.828 1.371 2.962 2.793 3.425-.479 1.08-1.437 1.464-2.527 1.468-1.148.004-2.175-.611-2.587-1.717-.39-1.045-.129-2.17.231-3.325m4.377 6.38c.102.663.392 1.086.76 1.293.554.311 1.307.293 1.684.004-.574.01-1.06-.1-1.428-.295s-.712-.509-1.016-1.002m1.487-2.573c1.153.211 2.092.101 2.715-.484.627 1.18.883 2.377.27 3.54-.59 1.117-1.67 1.828-2.786 1.812-1.268-.018-2.37-1.034-2.68-2.764 1.12-.462 1.987-1.13 2.48-2.104" style="fill:#a52830;fill-rule:evenodd;fill-opacity:1" transform="translate(-2.438 -75.92)"></path></g><path fill="#f9dc30" fill-rule="evenodd" d="M168.968 320.05a2.572 2.572 0 1 1-5.144 0 2.572 2.572 0 0 1 5.144 0" clip-rule="evenodd" style="fill:#f3dc2a;fill-opacity:1;stroke-width:12.9698" transform="translate(-2.438 -75.92)"></path><path fill="#f9dc30" fill-rule="evenodd" d="M165.198 318.161s-.344-3.77-4.793-2.744zm2.396 0s.344-3.77 4.797-2.744zm1.169 9.515c0 .467-1.004.844-2.244.844-1.239 0-2.24-.377-2.24-.844v-4.628c0-.467 1.005-.844 2.24-.844 1.24 0 2.244.377 2.244.844zm0 7.481c0 .467-1.004.844-2.244.844-1.239 0-2.24-.377-2.24-.844v-4.629c0-.466 1.005-.843 2.24-.843 1.24 0 2.244.377 2.244.843z" clip-rule="evenodd" style="fill:#f3dc2a;fill-opacity:1;stroke-width:12.9698" transform="translate(-2.438 -75.92)"></path><path fill="#f9dc30" fill-rule="evenodd" d="M167.643 327.919s13.077-8.981 12.453.5zm0 2.811s13.077 8.07 12.453-.448zm-2.49-2.811s-13.077-8.981-12.453.5zm0 2.811s-13.077 8.07-12.453-.448zm.747 10.908.62-5.637.873 5.637zm263.048-21.588a2.572 2.572 0 1 1-5.144 0 2.572 2.572 0 0 1 5.144 0" clip-rule="evenodd" style="fill:#f3dc2a;fill-opacity:1;stroke-width:12.9698" transform="translate(-2.438 -75.92)"></path><path fill="#f9dc30" fill-rule="evenodd" d="M425.177 318.161s-.343-3.77-4.79-2.744zm2.4 0s.344-3.77 4.797-2.744zm1.165 9.515c0 .467-1 .844-2.24.844-1.239 0-2.247-.377-2.247-.844v-4.628c0-.467 1.008-.844 2.247-.844 1.24 0 2.24.377 2.24.844zm0 7.481c0 .467-1 .844-2.24.844-1.239 0-2.247-.377-2.247-.844v-4.629c0-.466 1.008-.843 2.247-.843 1.24 0 2.24.377 2.24.843z" clip-rule="evenodd" style="fill:#f3dc2a;fill-opacity:1;stroke-width:12.9698" transform="translate(-2.438 -75.92)"></path><path fill="#f9dc30" fill-rule="evenodd" d="M427.63 327.919s13.073-8.981 12.453.5zm0 2.811s13.073 8.07 12.453-.448zm-2.494-2.811s-13.073-8.981-12.453.5zm0 2.811s-13.073 8.07-12.453-.448zm.743 10.908.627-5.637.866 5.637zm-256.91-93.004a2.572 2.572 0 1 1-5.145 0 2.572 2.572 0 0 1 5.144 0" clip-rule="evenodd" style="fill:#f3dc2a;fill-opacity:1;stroke-width:12.9698" transform="translate(-2.438 -75.92)"></path><path fill="#f9dc30" fill-rule="evenodd" d="M165.198 246.75s-.344-3.775-4.793-2.745zm2.396 0s.344-3.775 4.797-2.745zm1.169 9.51c0 .467-1.004.84-2.244.84-1.239 0-2.24-.376-2.24-.84v-4.628c0-.467 1.005-.844 2.24-.844 1.24 0 2.244.381 2.244.844zm0 7.485c0 .467-1.004.844-2.244.844-1.239 0-2.24-.377-2.24-.844v-4.628c0-.467 1.005-.844 2.24-.844 1.24 0 2.244.377 2.244.844z" clip-rule="evenodd" style="fill:#f3dc2a;fill-opacity:1;stroke-width:12.9698" transform="translate(-2.438 -75.92)"></path><path fill="#f9dc30" fill-rule="evenodd" d="M167.643 256.503s13.077-8.981 12.453.497zm0 2.815s13.077 8.067 12.453-.448zm-2.49-2.815s-13.077-8.981-12.453.497zm0 2.815s-13.077 8.067-12.453-.448zm.747 10.904.62-5.637.873 5.637zm134.267-21.588a2.568 2.568 0 1 1-5.136.007 2.568 2.568 0 0 1 5.136-.007" clip-rule="evenodd" style="fill:#f3dc2a;fill-opacity:1;stroke-width:12.9698" transform="translate(-2.438 -75.92)"></path><path fill="#f9dc30" fill-rule="evenodd" d="M296.405 246.75s-.344-3.775-4.797-2.745zm2.392 0s.344-3.775 4.797-2.745zm1.172 9.51c0 .467-1.007.84-2.247.84s-2.243-.376-2.243-.84v-4.628c0-.467 1.004-.844 2.243-.844 1.24 0 2.247.381 2.247.844zm0 7.485c0 .467-1.007.844-2.247.844s-2.243-.377-2.243-.844v-4.628c0-.467 1.004-.844 2.243-.844 1.24 0 2.247.377 2.247.844z" clip-rule="evenodd" style="fill:#f3dc2a;fill-opacity:1;stroke-width:12.9698" transform="translate(-2.438 -75.92)"></path><path fill="#f9dc30" fill-rule="evenodd" d="M298.846 256.503s13.073-8.981 12.453.497zm0 2.815s13.073 8.067 12.453-.448zm-2.49-2.815s-13.073-8.981-12.45.497zm0 2.815s-13.073 8.067-12.45-.448zm.747 10.904.623-5.637.87 5.637zm3.064 300.688a2.568 2.568 0 1 1-5.136.007 2.568 2.568 0 0 1 5.136-.007" clip-rule="evenodd" style="fill:#f3dc2a;fill-opacity:1;stroke-width:12.9698" transform="translate(-2.438 -75.92)"></path><path fill="#f9dc30" fill-rule="evenodd" d="M296.405 569.025s-.344-3.774-4.797-2.74zm2.392 0s.344-3.774 4.797-2.74zm1.172 9.515c0 .463-1.007.84-2.247.84s-2.243-.377-2.243-.84v-4.629c0-.467 1.004-.844 2.243-.844 1.24 0 2.247.377 2.247.844zm0 7.48c0 .467-1.007.844-2.247.844s-2.243-.377-2.243-.843v-4.63c0-.462 1.004-.843 2.243-.843 1.24 0 2.247.381 2.247.844z" clip-rule="evenodd" style="fill:#f3dc2a;fill-opacity:1;stroke-width:12.9698" transform="translate(-2.438 -75.92)"></path><path fill="#f9dc30" fill-rule="evenodd" d="M298.846 578.779s13.073-8.978 12.453.5zm0 2.814s13.073 8.071 12.453-.447zm-2.49-2.814s-13.073-8.978-12.45.5zm0 2.814s-13.073 8.071-12.45-.447zm.747 10.908.623-5.64.87 5.64zm131.845-343.867a2.572 2.572 0 1 1-5.144 0 2.572 2.572 0 0 1 5.144 0" clip-rule="evenodd" style="fill:#f3dc2a;fill-opacity:1;stroke-width:12.9698" transform="translate(-2.438 -75.92)"></path><path fill="#f9dc30" fill-rule="evenodd" d="M425.177 246.75s-.343-3.775-4.79-2.745zm2.4 0s.344-3.775 4.797-2.745zm1.165 9.51c0 .467-1 .84-2.24.84-1.239 0-2.247-.376-2.247-.84v-4.628c0-.467 1.008-.844 2.247-.844 1.24 0 2.24.381 2.24.844zm0 7.485c0 .467-1 .844-2.24.844-1.239 0-2.247-.377-2.247-.844v-4.628c0-.467 1.008-.844 2.247-.844 1.24 0 2.24.377 2.24.844z" clip-rule="evenodd" style="fill:#f3dc2a;fill-opacity:1;stroke-width:12.9698" transform="translate(-2.438 -75.92)"></path><path fill="#f9dc30" fill-rule="evenodd" d="M427.63 256.503s13.073-8.981 12.453.497zm0 2.815s13.073 8.067 12.453-.448zm-2.494-2.815s-13.073-8.981-12.453.497zm0 2.815s-13.073 8.067-12.453-.448zm.743 10.904.627-5.637.866 5.637zM168.97 462.874a2.568 2.568 0 1 1-5.137.007 2.568 2.568 0 0 1 5.136-.007" clip-rule="evenodd" style="fill:#f3dc2a;fill-opacity:1;stroke-width:12.9698" transform="translate(-2.438 -75.92)"></path><path fill="#f9dc30" fill-rule="evenodd" d="M165.198 460.988s-.344-3.774-4.793-2.74zm2.396 0s.344-3.774 4.797-2.74zm1.169 9.516c0 .463-1.004.843-2.244.843-1.239 0-2.24-.38-2.24-.843v-4.63c0-.466 1.005-.843 2.24-.843 1.24 0 2.244.377 2.244.844zm0 7.484c0 .463-1.004.84-2.244.84-1.239 0-2.24-.377-2.24-.84v-4.628c0-.467 1.005-.844 2.24-.844 1.24 0 2.244.377 2.244.844z" clip-rule="evenodd" style="fill:#f3dc2a;fill-opacity:1;stroke-width:12.9698" transform="translate(-2.438 -75.92)"></path><path fill="#f9dc30" fill-rule="evenodd" d="M167.643 470.75s13.077-8.981 12.453.497zm0 2.811s13.077 8.07 12.453-.448zm-2.49-2.81s-13.077-8.982-12.453.496zm0 2.81s-13.077 8.07-12.453-.448zm.747 10.904.62-5.637.873 5.637zm35.44 55.483a2.568 2.568 0 1 1-3.606.422 2.565 2.565 0 0 1 3.607-.422" clip-rule="evenodd" style="fill:#f3dc2a;fill-opacity:1;stroke-width:12.9698" transform="translate(-2.438 -75.92)"></path><path fill="#f9dc30" fill-rule="evenodd" d="M197.53 541.74s-3.17-2.072-5.122 2.068zm1.485-1.885s-2.74-2.61.821-5.469zm8.179 4.976c.366.291.037 1.314-.728 2.285-.77.974-1.687 1.526-2.05 1.239l-3.628-2.87c-.366-.288-.037-1.315.728-2.281.769-.975 1.687-1.531 2.05-1.24zm5.864 4.64c.366.291.038 1.314-.728 2.285-.765.974-1.683 1.527-2.049 1.243l-3.628-2.875c-.366-.287-.042-1.31.727-2.28.766-.975 1.684-1.53 2.05-1.24z" clip-rule="evenodd" style="fill:#f3dc2a;fill-opacity:1;stroke-width:12.9698" transform="translate(-2.438 -75.92)"></path><path fill="#f9dc30" fill-rule="evenodd" d="M206.69 545.869s1.068-15.847 8.112-9.482zm2.206 1.743s14.428-5.278 7.365-10.064zm-3.748.213s-15.14 4.711-7.328 10.094zm2.203 1.74s-1.781 15.282-8.071 9.515zm9.007 6.174-4.031-3.983 4.957 2.81zm175.816-15.79a2.576 2.576 0 0 0 3.188 4.038 2.573 2.573 0 1 0-3.188-4.039" clip-rule="evenodd" style="fill:#f3dc2a;fill-opacity:1;stroke-width:12.9698" transform="translate(-2.438 -75.92)"></path><path fill="#f9dc30" fill-rule="evenodd" d="M395.985 541.74s3.173-2.072 5.126 2.068zm-1.485-1.885s2.747-2.61-.825-5.469zm-8.183 4.976c-.366.291-.03 1.314.735 2.285.766.974 1.684 1.526 2.042 1.239l3.632-2.87c.366-.288.045-1.315-.727-2.281-.766-.975-1.684-1.531-2.05-1.24zm-5.86 4.64c-.367.291-.038 1.314.727 2.285.773.974 1.684 1.527 2.05 1.243l3.632-2.875c.366-.287.037-1.31-.728-2.28-.765-.975-1.684-1.53-2.05-1.24z" clip-rule="evenodd" style="fill:#f3dc2a;fill-opacity:1;stroke-width:12.9698" transform="translate(-2.438 -75.92)"></path><path fill="#f9dc30" fill-rule="evenodd" d="M386.828 545.869s-1.07-15.847-8.108-9.482zm-2.21 1.743s-14.42-5.278-7.365-10.064zm3.748.213s15.145 4.711 7.328 10.094zm-2.202 1.74s1.78 15.282 8.07 9.515zm-9.011 6.174 4.031-3.983-4.95 2.81zm51.795-92.865a2.568 2.568 0 1 1-5.137.007 2.568 2.568 0 0 1 5.137-.007" clip-rule="evenodd" style="fill:#f3dc2a;fill-opacity:1;stroke-width:12.9698" transform="translate(-2.438 -75.92)"></path><path fill="#f9dc30" fill-rule="evenodd" d="M425.177 460.988s-.343-3.774-4.79-2.74zm2.4 0s.344-3.774 4.797-2.74zm1.165 9.516c0 .463-1 .843-2.24.843-1.239 0-2.247-.38-2.247-.843v-4.63c0-.466 1.008-.843 2.247-.843 1.24 0 2.24.377 2.24.844zm0 7.484c0 .463-1 .84-2.24.84-1.239 0-2.247-.377-2.247-.84v-4.628c0-.467 1.008-.844 2.247-.844 1.24 0 2.24.377 2.24.844z" clip-rule="evenodd" style="fill:#f3dc2a;fill-opacity:1;stroke-width:12.9698" transform="translate(-2.438 -75.92)"></path><path fill="#f9dc30" fill-rule="evenodd" d="M427.63 470.75s13.073-8.981 12.453.497zm0 2.811s13.073 8.07 12.453-.448zm-2.494-2.81s-13.073-8.982-12.453.496zm0 2.81s-13.073 8.07-12.453-.448zm.743 10.904.627-5.637.866 5.637zm-260.681-94.888s-.344-3.774-4.793-2.744zm2.396 0s.344-3.774 4.797-2.744zm1.169 9.511c0 .467-1.004.844-2.244.844-1.239 0-2.24-.377-2.24-.844v-4.629c0-.466 1.005-.843 2.24-.843 1.24 0 2.244.377 2.244.843zm0 7.485c0 .466-1.004.844-2.244.844-1.239 0-2.24-.378-2.24-.844v-4.629c0-.467 1.005-.844 2.24-.844 1.24 0 2.244.377 2.244.844z" clip-rule="evenodd" style="fill:#f3dc2a;fill-opacity:1;stroke-width:12.9698" transform="translate(-2.438 -75.92)"></path><path fill="#f9dc30" fill-rule="evenodd" d="M167.643 399.33s13.077-8.98 12.453.501zm0 2.816s13.077 8.07 12.453-.448zm-2.49-2.815s-13.077-8.982-12.453.5zm0 2.815s-13.077 8.07-12.453-.448zm.747 10.904.62-5.633.873 5.633zm259.278-23.473s-.344-3.774-4.79-2.744zm2.4 0s.343-3.774 4.796-2.744zm1.164 9.511c0 .467-1 .844-2.24.844-1.239 0-2.247-.377-2.247-.844v-4.629c0-.466 1.008-.843 2.247-.843 1.24 0 2.24.377 2.24.843zm0 7.485c0 .466-1 .844-2.24.844-1.239 0-2.247-.378-2.247-.844v-4.629c0-.467 1.008-.844 2.247-.844 1.24 0 2.24.377 2.24.844z" clip-rule="evenodd" style="fill:#f3dc2a;fill-opacity:1;stroke-width:12.9698" transform="translate(-2.438 -75.92)"></path><path fill="#f9dc30" fill-rule="evenodd" d="M427.63 399.33s13.073-8.98 12.453.501zm0 2.816s13.073 8.07 12.453-.448zm-2.494-2.815s-13.073-8.982-12.453.5zm0 2.815s-13.073 8.07-12.453-.448zm.743 10.904.627-5.633.866 5.633z" clip-rule="evenodd" style="fill:#f3dc2a;fill-opacity:1;stroke-width:12.9698" transform="translate(-2.438 -75.92)"></path><path d="m135.303 214.205 7.493 3.344 33.992-9.25 38.628-10.857 60.553-6.89 50.32-.21 57.63 6.682 63.476 19.628 7.648.822 7.407-3.424-15.055-9.091-26.518-9.814-37.375-10.649-35.705-4.385-38.211-3.132-40.299 1.044-36.54 5.012s-6.184 1.53-13.573 1.879c-7.388.348-22.968 4.385-22.968 4.385l-29.232 9.604-29.859 11.067Z" style="fill:#f3dc2a;stroke:none;stroke-width:.377953;stroke-linecap:square;paint-order:markers fill stroke;fill-opacity:1" transform="translate(-2.438 -75.92)" data-source="https://football-logos.cc"></path><!-- source: https://football-logos.cc --></svg>