<svg xmlns="http://www.w3.org/2000/svg" fill-rule="evenodd" viewBox="41.01 137.51 513.1 566.89"><!-- Source: https://football-logos.cc --><path d="M85.68 245.082c22.464-17.568 52.704-20.952 83.376-12.168 30.384 8.64 61.2 29.304 85.104 59.904 23.976 30.528 36.648 65.376 37.8 96.984.792 20.016-3.096 38.664-11.664 54.144l179.928-130.032c17.352-12.6 36.792-22.464 58.968-16.56 21.816 5.76 36 25.272 34.848 47.808-1.152 22.896-16.488 38.376-33.768 51.048L330.12 536.178l97.848 124.848c2.808-.576 6.336-.504 8.208 2.088l7.704 10.368c3.888 5.256 1.296 9-2.376 13.248-5.616 6.336-12.024 11.376-19.512 15.264-4.968 2.52-9.216 4.176-13.392-.864l-8.208-9.936c-2.088-2.448-1.296-5.904-.072-8.496l-98.496-125.712-57.96 42.696c-3.096-1.872-6.192-3.6-9.576-4.896-2.808-1.08-5.616-1.944-8.64-2.448-3.312.216-7.56-.936-10.584-2.592-1.872.936-3.96 1.44-6.048 1.152-2.016 1.8-4.752 2.808-7.344 2.232-1.44 1.584-3.312 2.592-5.256 3.312-1.44 2.232-4.68 2.16-7.128 3.024-1.44 2.232-4.176 2.952-6.696 3.744-1.44 2.232-3.6 3.672-6.12 4.464-1.44 2.232-3.672 3.672-6.12 4.464-1.44 2.232-4.32 2.736-6.768 3.6-1.44 2.232-3.888 3.312-6.336 4.104-1.44 2.232-4.176 2.952-6.696 3.816-1.368 2.232-3.6 3.6-6.12 4.464-1.368 2.232-4.032 3.384-6.552 4.176-1.368 2.304-3.744 3.456-6.192 4.32-1.44 2.232-3.672 3.312-6.12 4.176-1.44 2.232-3.888 3.24-6.336 4.104-1.44 2.232-3.816 3.456-6.264 4.32-1.44 2.232-3.528 3.744-6.048 4.608-1.368 2.232-3.744 3.456-6.192 4.32-1.44 2.232-4.104 3.096-6.552 3.888-1.44 2.376-3.168 3.816-5.76 4.68-1.08 4.32-2.952 4.896-4.824 5.904-1.008 4.896-1.872 7.704-7.272 9.72-1.656 1.728-3.744 5.472-9.36 2.736-6.264 1.224-10.944.864-14.328-2.376-8.208-1.512-11.232-5.688-10.152-13.968-2.232-2.52-2.016-7.128 1.296-15.48-1.368-5.472 1.224-7.704 4.176-9.864 2.376-5.832 6.12-5.184 11.088-4.392 1.224-1.368 5.544-1.8 7.632-1.296 1.584-2.232 3.6-4.032 6.336-4.752 1.512-2.088 3.528-3.744 6.12-4.464 1.512-2.088 3.528-3.744 6.12-4.464 1.512-2.088 3.528-3.744 6.12-4.464 1.512-2.088 3.528-3.744 6.12-4.464 1.512-2.088 3.528-3.744 6.12-4.464 1.512-2.088 3.528-3.744 6.12-4.464 1.512-2.088 3.528-3.744 6.12-4.464 1.512-2.088 3.528-3.744 6.12-4.464 1.584-2.088 3.528-3.744 6.12-4.464 1.584-2.088 3.528-3.816 6.12-4.464 1.584-2.088 3.456-3.96 5.976-4.608 1.584-2.088 3.024-4.536 5.616-5.184 1.584-2.088 3.6-3.816 6.12-4.464 1.584-2.088 3.6-3.817 6.12-4.464 1.584-2.088 3.6-3.816 6.12-4.464 1.584-2.088 3.6-3.816 6.12-4.464 1.296-1.728 2.808-3.168 4.752-4.032.288-2.664 2.088-4.968 4.32-6.336.36-2.088 1.584-3.96 2.952-5.4-.576-3.384-.072-7.272 1.224-10.368.432-2.952.504-5.976.288-8.928-.216-3.6-.936-7.128-1.728-10.656l44.28-31.968c-15.552 3.024-32.472 1.872-49.536-3.024-30.384-8.64-61.2-29.304-85.176-59.832-23.904-30.528-36.648-65.376-37.8-96.984-1.152-31.824 9.36-60.408 31.824-78.048m11.088 11.448 3.312 4.824 4.032-2.736-3.312-4.824a79 79 0 0 0-4.032 2.736m6.264-3.96 3.168 4.608 4.032-2.736-2.808-4.104a84 84 0 0 0-4.392 2.232m6.84-3.24 2.52 3.672 3.96-2.736-1.728-2.52c-1.584.504-3.168 1.008-4.752 1.584m7.416-2.305 1.224 1.801 4.032-2.736-.072-.072c-1.8.288-3.528.576-5.184 1.007m93.744 32.113.36.576.144-.072zm2.448 2.304-.576.432 2.88 4.32 1.512-1.008a185 185 0 0 0-3.816-3.744m5.616 5.616-1.872 1.224 2.952 4.32 2.448-1.656c-1.152-1.368-2.376-2.664-3.528-3.888m5.256 5.832-2.736 1.872 2.952 4.248 3.168-2.088c-1.152-1.368-2.232-2.736-3.384-4.032m4.968 6.048-3.312 2.232 2.88 4.32 3.6-2.448c-1.008-1.368-2.088-2.736-3.168-4.104m4.68 6.192-3.6 2.448 2.88 4.32 3.672-2.448c-1.008-1.44-1.944-2.88-2.952-4.32m4.32 6.48-3.6 2.448 2.952 4.248 3.384-2.304c-.864-1.44-1.8-2.952-2.736-4.392m4.032 6.623-3.24 2.233 2.952 4.32 2.88-1.944c-.864-1.584-1.656-3.096-2.592-4.609m3.744 6.913-2.592 1.728 2.88 4.32 2.016-1.368a94 94 0 0 0-2.304-4.68m3.384 7.056-1.584 1.152 2.88 4.32.792-.576c-.648-1.656-1.368-3.24-2.088-4.896m3.096 7.344-.36.216.936 1.296c-.216-.504-.432-1.008-.576-1.512m-3.6 87.048-.432.288.144.144c.072-.144.216-.288.288-.432m-1.944 2.592-.576-.864-4.032 2.736 1.368 1.944a54 54 0 0 0 3.24-3.816m-5.112 5.688-1.656-2.376-4.032 2.736 2.016 2.88a39 39 0 0 0 3.672-3.24m-5.688 4.824-2.088-3.024-4.032 2.736 2.088 3.024c1.368-.864 2.736-1.728 4.032-2.736m-6.264 4.032-1.944-2.88-4.032 2.736 1.584 2.304a50 50 0 0 0 4.392-2.16m-6.84 3.168-1.296-1.872-4.032 2.736.576.792c1.584-.504 3.168-1.008 4.752-1.656m-7.416 2.376v-.072l-.216.144c.072-.072.144-.072.216-.072m-94.68-32.832.288-.216-2.952-4.32-1.224.864a91 91 0 0 0 3.888 3.672m-5.688-5.544 1.584-1.08-2.88-4.32-2.376 1.584a187 187 0 0 0 3.672 3.816m-5.4-5.76 2.664-1.728-2.952-4.32-3.096 2.088c1.152 1.368 2.232 2.664 3.384 3.96m-5.04-5.976 3.312-2.232-2.952-4.32-3.528 2.448c.576.792 1.224 1.584 1.8 2.448.504.576.936 1.08 1.368 1.656m-4.752-6.192 3.672-2.448-2.952-4.32-3.672 2.52a89 89 0 0 0 2.952 4.248m-4.392-6.336 3.672-2.52-2.88-4.32-3.6 2.448a110 110 0 0 0 2.808 4.392m-4.176-6.624 3.528-2.376-2.952-4.32-3.168 2.16zm-3.816-6.84 2.952-1.944-2.952-4.32-2.376 1.584a282 282 0 0 0 2.376 4.68m-3.456-6.984 2.016-1.44-2.88-4.248-1.296.864a91 91 0 0 0 2.16 4.824m-3.168-7.272.792-.576-2.304-3.456c.432 1.296 1.008 2.664 1.512 4.032m.288-85.248.216.288 3.96-2.736-1.296-2.016c-1.008 1.44-2.016 2.952-2.88 4.464m4.464-6.624 1.872 2.736 4.032-2.736-2.592-3.816c-1.152 1.224-2.232 2.52-3.312 3.816m5.184-5.688 2.808 4.176 4.032-2.736-3.168-4.68a39 39 0 0 0-3.672 3.24m-16.992 74.16.936-.648-1.512-2.16c.216.936.36 1.872.576 2.808m1.872 8.064 3.384-2.304-2.88-4.248-1.8 1.152c.36 1.8.864 3.6 1.296 5.4m.864 2.592 2.88 4.32 4.032-2.736-2.952-4.32zm4.32 6.408 2.952 4.32 4.032-2.736-2.952-4.32zm4.392 6.48 2.952 4.248 4.032-2.736-2.952-4.248zm4.392 6.408 2.88 4.32 4.032-2.736-2.88-4.32zm4.392 6.408 2.88 4.32 4.032-2.736-2.952-4.32zm4.32 6.48 2.952 4.248 4.032-2.736-2.952-4.248zm4.392 6.408 2.952 4.32 4.032-2.736-2.952-4.32zm4.392 6.408 2.88 4.32 4.032-2.736-2.88-4.32zm4.392 6.48 2.88 4.32 4.032-2.736-2.952-4.32zm4.32 6.408 2.952 4.32 4.032-2.736-2.952-4.32zm4.392 6.408 2.952 4.32 4.032-2.736-2.952-4.32zm4.392 6.48 2.88 4.248 4.032-2.664-2.88-4.32zm4.32 6.336.432.576c1.224 1.008 2.52 1.944 3.744 2.88l2.808-1.872-2.952-4.248zm11.016 8.28.36-.288-2.952-4.32-2.016 1.44c1.512 1.08 3.024 2.16 4.608 3.168m-68.4-113.329.504-.431-.576-.864c0 .432 0 .864.072 1.295m.72 8.569.144.216 4.032-2.736-2.88-4.32L72 321.186c.144 1.872.36 3.744.576 5.616m1.584 2.304 2.952 4.32 4.032-2.736-2.952-4.32zm4.392 6.408 2.952 4.32 4.032-2.736-2.952-4.32zm4.392 6.48 2.952 4.32 3.96-2.736-2.88-4.32zm4.392 6.408 2.88 4.32 4.032-2.736-2.88-4.32zm4.32 6.48 2.952 4.248 4.032-2.736-2.952-4.248zm4.392 6.408L99 365.61l4.032-2.736-2.952-4.32zm4.392 6.408 2.952 4.32 3.96-2.736-2.88-4.32zm4.392 6.48 2.88 4.248 4.032-2.736-2.88-4.248zm4.32 6.408 2.952 4.32 4.032-2.736-2.952-4.32zm4.392 6.408 2.952 4.32 4.032-2.736-2.952-4.32zm4.392 6.48 2.952 4.248 3.96-2.736-2.88-4.248zm4.392 6.408 2.88 4.32 4.032-2.736-2.88-4.32zm4.32 6.408 2.952 4.32 4.032-2.736-2.952-4.32zm4.392 6.48 2.952 4.32 4.032-2.736-2.952-4.32zm4.392 6.408 2.952 4.248 3.96-2.664-2.88-4.32zm4.392 6.336 2.88 4.32 4.032-2.736-2.88-4.32zm4.32 6.48 2.448 3.528c.288.144.576.36.864.504l3.672-2.448-2.952-4.32zm11.088 8.136.288-.144-2.952-4.32-2.592 1.8c1.728.936 3.456 1.872 5.256 2.664M71.784 308.802l2.376-1.584-2.088-3.024c-.144 1.512-.216 3.096-.288 4.608m-.072 3.456 2.808 4.104 4.032-2.736-2.952-4.32-3.888 2.664zm4.248 6.264 2.952 4.32 4.032-2.736-2.952-4.32zm4.392 6.408 2.952 4.32 3.96-2.736-2.88-4.32zm4.392 6.408 2.88 4.32 4.032-2.736-2.952-4.32zm4.32 6.48 2.952 4.32 4.032-2.736-2.952-4.32zm4.392 6.408 2.952 4.32 4.032-2.736-2.952-4.32zm4.392 6.408 2.88 4.32 4.032-2.736-2.88-4.32zm4.392 6.48 2.88 4.32 4.032-2.736-2.952-4.32zm4.32 6.408 2.952 4.32 4.032-2.736-2.952-4.32zm4.392 6.48 2.952 4.248 4.032-2.736-2.952-4.248zm4.392 6.408 2.88 4.32 4.032-2.736-2.88-4.32zm4.392 6.408 2.88 4.32 4.032-2.736-2.952-4.32zm4.32 6.48 2.952 4.248 4.032-2.736-2.952-4.248zm4.392 6.408 2.952 4.32 4.032-2.736-2.952-4.32zm4.392 6.408 2.88 4.32 4.032-2.736-2.88-4.32zm4.392 6.48 2.88 4.248 4.032-2.736-2.952-4.248zm4.32 6.408 2.952 4.32 4.032-2.736-2.952-4.32zm4.392 6.336 2.952 4.32 4.032-2.736-2.952-4.248zm4.392 6.48 2.88 4.32 4.032-2.736-2.88-4.32zm4.392 6.408 2.88 4.32 4.032-2.736-2.952-4.32zm4.32 6.408 1.296 1.872c1.08.504 2.16.936 3.24 1.368l2.448-1.656-2.952-4.32zm9.288 5.04-.864-1.296-.936.648c.576.216 1.224.432 1.8.648M72.792 298.722l3.168-2.16-2.16-3.168c-.432 1.8-.72 3.528-1.008 5.328m.576 2.736 2.952 4.32 4.032-2.736-2.952-4.32zm4.392 6.408 2.88 4.32 4.032-2.736-2.88-4.32zm4.32 6.48 2.952 4.248 4.032-2.736-2.952-4.248zm4.392 6.408 2.952 4.32 4.032-2.736-2.952-4.32zm4.392 6.408 2.952 4.32 4.032-2.736-2.952-4.32zm4.392 6.48 2.88 4.32 4.032-2.736-2.88-4.32zm4.32 6.408 2.952 4.32 4.032-2.736-2.952-4.32zm4.392 6.408 2.952 4.32 4.032-2.736-2.952-4.32zm4.392 6.48 2.952 4.32 3.96-2.736-2.88-4.32zm4.392 6.408 2.88 4.32 4.032-2.736-2.88-4.32zm4.32 6.408 2.952 4.32 4.032-2.736-2.952-4.32zm4.392 6.48 2.952 4.32 4.032-2.736-2.952-4.32zm4.392 6.408 2.952 4.32 3.96-2.736-2.88-4.32zm4.392 6.48 2.88 4.248 4.032-2.736-2.88-4.248zm4.32 6.408 2.952 4.32 4.032-2.736-2.952-4.32zm4.392 6.408 2.952 4.32 4.032-2.736-2.952-4.32zm4.392 6.48 2.952 4.248 3.96-2.736-2.88-4.248zm4.392 6.408 2.88 4.32 4.032-2.736-2.88-4.32zm4.32 6.408 2.952 4.248 4.032-2.664-2.952-4.32zm4.392 6.408 2.952 4.248 4.032-2.736-2.952-4.176zm4.392 6.408 2.952 4.32 3.96-2.736-2.88-4.32zm4.392 6.408 2.88 4.32 4.032-2.736-2.88-4.32zm4.32 6.48 2.808 4.032c.072.072.144.072.216.072s.072.072.144.072l3.816-2.592-2.952-4.32zm10.008 5.976-1.584-2.304-2.088 1.44zM75.312 287.634l2.376-1.656-1.224-1.8c-.36 1.152-.792 2.232-1.152 3.456m-.144 3.24 2.88 4.248 4.032-2.736-2.952-4.248zm4.32 6.408 2.952 4.32 4.032-2.736-2.952-4.32zm4.392 6.408 2.952 4.32 4.032-2.736-2.952-4.32zm4.392 6.48 2.952 4.248 3.96-2.736-2.88-4.248zm4.392 6.408 2.88 4.32 4.032-2.736-2.952-4.32zm4.32 6.408 2.952 4.32 4.032-2.736-2.952-4.32zm4.392 6.48 2.952 4.248 4.032-2.736-2.952-4.248zm4.392 6.408 2.952 4.32 3.96-2.736-2.88-4.32zm4.392 6.408 2.88 4.32 4.032-2.736-2.952-4.32zm4.32 6.48 2.952 4.32 4.032-2.736-2.952-4.32zm4.392 6.408 2.952 4.32 4.032-2.736-2.952-4.32zm4.392 6.408 2.952 4.32 3.96-2.736-2.88-4.32zm4.392 6.48 2.88 4.32 4.032-2.736-2.952-4.32zm4.32 6.408 2.952 4.32 4.032-2.736-2.952-4.32zm4.392 6.408 2.952 4.32 4.032-2.736-2.952-4.32zm4.392 6.48 2.88 4.32 4.032-2.736-2.88-4.32zm4.392 6.408 2.88 4.32 4.032-2.736-2.952-4.32zm4.32 6.48 2.952 4.248 4.032-2.736-2.952-4.248zm4.392 6.408 2.952 4.32 4.032-2.736-2.952-4.32zm4.392 6.408 2.88 4.32 4.032-2.736-2.88-4.32zm4.392 6.48 2.88 4.176 4.032-2.736-2.952-4.176zm4.32 6.336 2.952 4.32 4.032-2.736-2.952-4.32zm4.392 6.408 2.952 4.32 4.032-2.736-2.952-4.32zm4.392 6.48 2.88 4.248 4.032-2.736-2.88-4.248zm4.392 6.408 2.88 4.32 4.032-2.736-2.952-4.32zm9.576 5.544-1.224-1.872-2.016 1.44zM77.616 281.298l2.232 3.24 4.032-2.736-2.952-4.32-2.304 1.584c-.36.72-.72 1.44-1.008 2.232m3.672 5.328 2.952 4.32 4.032-2.736-2.952-4.32zm4.392 6.48 2.88 4.32 4.032-2.736-2.88-4.32zm4.32 6.408 2.952 4.32 4.032-2.736-2.952-4.32zm4.392 6.48 2.952 4.248 4.032-2.736-2.952-4.248zm4.392 6.408 2.952 4.32 4.032-2.736-2.952-4.32zm4.392 6.408 2.88 4.32 4.032-2.736-2.88-4.32zm4.32 6.48 2.952 4.248 4.032-2.736-2.952-4.248zm4.392 6.408 2.952 4.32 4.032-2.736-2.952-4.32zm4.392 6.408 2.952 4.32 4.032-2.736-2.952-4.32zm4.392 6.48 2.88 4.248 4.032-2.736-2.88-4.248zm4.32 6.408 2.952 4.32 4.032-2.736-2.952-4.32zm4.392 6.408 2.952 4.32 4.032-2.736-2.952-4.32zm4.392 6.48 2.952 4.32 4.032-2.736-2.952-4.32zm4.392 6.408 2.88 4.32 4.032-2.736-2.88-4.32zm4.32 6.408 2.952 4.32 4.032-2.736-2.952-4.32zm4.392 6.48 2.952 4.32 4.032-2.736-2.952-4.32zm4.392 6.408 2.952 4.32 3.96-2.736-2.88-4.32zm4.392 6.408 2.88 4.32 4.032-2.736-2.88-4.32zm4.32 6.48 2.952 4.32 4.032-2.736-2.952-4.32zm4.392 6.408 2.952 4.32 4.032-2.736-2.952-4.32zm4.392 6.48 2.952 4.248 3.96-2.736-2.88-4.248zm4.392 6.336 2.88 4.32 4.032-2.736-2.88-4.248zm4.32 6.408 2.952 4.32 4.032-2.736-2.952-4.32zm4.392 6.48 2.952 4.248 4.032-2.736-2.952-4.248zm4.392 6.408 2.952 4.32 3.96-2.736-2.88-4.32zm4.392 6.408 2.376 3.6c.504 0 1.008.072 1.44.072l3.096-2.088-2.88-4.32zm8.424 3.816-.072-.072-.144.072zM83.088 276.042l2.88 4.32L90 277.626l-2.88-4.32zm4.32 6.408 2.952 4.32 4.032-2.736-2.952-4.32zm4.392 6.48 2.952 4.32 4.032-2.736-2.952-4.32zm4.392 6.408 2.952 4.32 3.96-2.736-2.88-4.32zm4.392 6.408 2.88 4.32 4.032-2.736-2.952-4.248zm4.32 6.48 2.952 4.32 4.032-2.736-2.952-4.32zm4.392 6.408 2.952 4.32 4.032-2.736-2.952-4.32zm4.392 6.48 2.952 4.248 3.96-2.736-2.88-4.248zm4.392 6.408 2.88 4.32 4.032-2.736-2.952-4.32zm4.32 6.408 2.952 4.32 4.032-2.736-2.952-4.32zm4.392 6.48 2.952 4.248 4.032-2.736-2.952-4.248zm4.392 6.408 2.952 4.32 3.96-2.736-2.88-4.32zm4.392 6.408 2.88 4.32 4.032-2.736-2.952-4.32zm4.32 6.48 2.952 4.248 4.032-2.664-2.952-4.32zm4.392 6.408 2.952 4.32 4.032-2.736-2.952-4.32zm4.392 6.408 2.952 4.32 3.96-2.736-2.88-4.32zm4.392 6.48 2.88 4.32 4.032-2.736-2.952-4.32zm4.32 6.408 2.952 4.32 4.032-2.736-2.952-4.32zm4.392 6.408 2.952 4.32 4.032-2.736-2.952-4.32zm4.392 6.48 2.88 4.32 4.032-2.736-2.88-4.32zm4.392 6.408 2.88 4.32 4.032-2.736-2.952-4.32zm4.32 6.408 2.952 4.32 4.032-2.736-2.952-4.32zm4.392 6.48 2.952 4.248 4.032-2.664-2.952-4.32zm4.392 6.336 2.88 4.32 4.032-2.736-2.88-4.32zm4.392 6.48 2.88 4.248 4.032-2.736-2.952-4.248zm4.32 6.408 2.952 4.32 4.032-2.736-2.952-4.32zm4.392 6.408 2.952 4.32 4.032-2.736-2.952-4.32zm4.392 6.48 1.008 1.44a69 69 0 0 0 5.544-.432l-2.52-3.744zm-111.96-177.84 2.952 4.32 4.032-2.736-2.952-4.32zm4.392 6.408 2.88 4.32 4.032-2.736-2.88-4.32zm4.392 6.48 2.88 4.32 4.032-2.736-2.952-4.32zm4.32 6.408 2.952 4.32 4.032-2.736-2.952-4.32zm4.392 6.408 2.952 4.32 4.032-2.736-2.952-4.32zm4.392 6.48 2.88 4.32 4.032-2.736-2.88-4.32zm4.392 6.408 2.88 4.32 4.032-2.736-2.952-4.32zm4.32 6.408 2.952 4.32 4.032-2.736-2.952-4.248zm4.392 6.48 2.952 4.32 4.032-2.736-2.952-4.32zm4.392 6.408 2.88 4.32 4.032-2.736-2.88-4.32zm4.32 6.48 2.952 4.248 4.032-2.736-2.952-4.248zm4.392 6.408 2.952 4.32 4.032-2.736-2.952-4.32zm4.392 6.408 2.952 4.32 4.032-2.736-2.952-4.32zm4.392 6.48 2.88 4.248 4.032-2.736-2.88-4.248zm4.32 6.408 2.952 4.32 4.032-2.736-2.952-4.32zm4.392 6.408 2.952 4.32 4.032-2.736-2.952-4.32zm4.392 6.48 2.952 4.248 4.032-2.664-2.952-4.32zm4.392 6.408 2.88 4.32 4.032-2.736-2.88-4.32zm4.32 6.408 2.952 4.32 4.032-2.736-2.952-4.32zm4.392 6.48 2.952 4.32 4.032-2.736-2.952-4.32zm4.392 6.408 2.952 4.32 4.032-2.736-2.952-4.32zm4.392 6.408 2.88 4.32 4.032-2.736-2.88-4.32zm4.32 6.48 2.952 4.32 4.032-2.736-2.952-4.32zm4.392 6.408 2.952 4.248 4.032-2.736-2.952-4.248zm4.392 6.336 2.952 4.32 3.96-2.736-2.88-4.32zm4.392 6.48 2.88 4.32 4.032-2.736-2.88-4.32zm4.32 6.408 2.952 4.32 4.032-2.736-2.952-4.32zm4.392 6.48 2.952 4.248 4.032-2.736-2.952-4.248zM95.328 267.69l2.952 4.32 4.032-2.736-2.952-4.32zm4.392 6.408 2.952 4.32 4.032-2.736-2.952-4.32zm4.392 6.48 2.952 4.32 3.96-2.736-2.88-4.32zm4.392 6.408 2.88 4.32 4.032-2.736-2.88-4.32zm4.32 6.408 2.952 4.32 4.032-2.736-2.952-4.32zm4.392 6.48 2.952 4.32 4.032-2.736-2.952-4.32zm4.392 6.408 2.952 4.32 3.96-2.736-2.88-4.32zM126 312.69l2.88 4.32 4.032-2.736-2.88-4.32zm4.32 6.48 2.952 4.32 4.032-2.736-2.952-4.32zm4.392 6.408 2.952 4.32 4.032-2.736-2.952-4.32zm4.392 6.408 2.952 4.32 3.96-2.736-2.88-4.248zm4.392 6.48 2.88 4.32 4.032-2.736-2.88-4.32zm4.32 6.408 2.952 4.32 4.032-2.736-2.952-4.32zm4.392 6.48 2.952 4.248 4.032-2.736-2.952-4.248zm4.392 6.408 2.952 4.32 3.96-2.736-2.88-4.32zm4.392 6.408 2.88 4.32 4.032-2.736-2.952-4.32zm4.32 6.48 2.952 4.248 4.032-2.736-2.952-4.248zm4.392 6.408 2.952 4.32 4.032-2.736-2.952-4.32zm4.392 6.408 2.952 4.32 3.96-2.736-2.88-4.32zm4.392 6.48 2.88 4.32 4.032-2.736-2.952-4.32zm4.32 6.408 2.952 4.32 4.032-2.736-2.952-4.32zm4.392 6.408 2.952 4.32 4.032-2.736-2.952-4.32zm4.392 6.48 2.952 4.32 3.96-2.736-2.88-4.32zm4.392 6.408 2.88 4.32 4.032-2.736-2.952-4.32zm4.32 6.336 2.952 4.32 4.032-2.736-2.952-4.248zm4.392 6.48 2.952 4.32 4.032-2.736-2.952-4.32zm4.392 6.408 2.952 4.32 3.96-2.736-2.88-4.32zm4.392 6.408 2.88 4.32 4.032-2.736-2.952-4.32zM101.52 263.514l2.88 4.32 4.032-2.736-2.88-4.32zm4.392 6.408 2.88 4.32 4.032-2.736-2.952-4.32zm4.32 6.48 2.952 4.248 4.032-2.736-2.952-4.248zm4.392 6.408 2.952 4.32 4.032-2.736-2.952-4.32zm4.392 6.408 2.88 4.32 4.032-2.736-2.88-4.32zm4.392 6.48 2.88 4.32 4.032-2.736-2.952-4.32zm4.32 6.408 2.952 4.32 4.032-2.736-2.952-4.32zm4.392 6.408 2.952 4.32 4.032-2.736-2.952-4.32zm4.392 6.48 2.88 4.32 4.032-2.736-2.88-4.32zm4.392 6.408 2.88 4.32 4.032-2.736-2.952-4.32zm4.32 6.408 2.952 4.32 4.032-2.736-2.952-4.32zm4.392 6.48 2.952 4.32 4.032-2.736-2.952-4.32zm4.392 6.408 2.88 4.32 4.032-2.736-2.88-4.32zm4.392 6.48 2.88 4.248 4.032-2.736-2.952-4.248zm4.32 6.408 2.952 4.32 4.032-2.736-2.952-4.32zm4.392 6.408 2.952 4.32 4.032-2.736-2.952-4.32zm4.392 6.48 2.88 4.248 4.032-2.736-2.88-4.248zm4.32 6.408 2.952 4.32 4.032-2.736-2.952-4.32zm4.392 6.408 2.952 4.32 4.032-2.736-2.952-4.32zm4.392 6.48 2.952 4.248 4.032-2.736-2.952-4.248zm4.392 6.408 2.88 4.32 4.032-2.736-2.88-4.32zm4.32 6.408 2.952 4.32 4.032-2.736-2.952-4.32zm4.392 6.48 2.952 4.32 4.032-2.736-2.952-4.32zm4.392 6.408 2.952 4.32 4.032-2.736-2.952-4.32zm4.392 6.408 2.88 4.248 4.032-2.664-2.88-4.32zm4.32 6.408 2.952 4.32 4.032-2.736-2.952-4.32zm4.392 6.408 2.952 4.32 4.032-2.736-2.952-4.32zm4.392 6.408 2.952 4.32 4.032-2.736-2.952-4.32zM107.64 259.338l2.952 4.32 4.032-2.736-2.952-4.32zm4.392 6.408 2.952 4.32 3.96-2.736-2.88-4.32zm4.392 6.48 2.88 4.248 4.032-2.736-2.88-4.248zm4.32 6.408 2.952 4.32 4.032-2.736-2.952-4.32zm4.392 6.408 2.952 4.32 4.032-2.736-2.952-4.32zm4.392 6.48 2.952 4.248 3.96-2.736-2.88-4.248zm4.392 6.408 2.88 4.32 4.032-2.736-2.88-4.32zm4.32 6.408 2.952 4.32 4.032-2.736-2.952-4.32zm4.392 6.48 2.952 4.32 4.032-2.736-2.952-4.32zm4.392 6.408 2.952 4.32 3.96-2.736-2.88-4.32zm4.392 6.408 2.88 4.32 4.032-2.736-2.88-4.32zm4.32 6.48 2.952 4.32 4.032-2.736-2.952-4.32zm4.392 6.408 2.952 4.32 4.032-2.736-2.952-4.32zm4.392 6.408 2.952 4.32 3.96-2.736-2.88-4.32zm4.392 6.48 2.88 4.32 4.032-2.736-2.88-4.32zm4.32 6.408 2.952 4.32 4.032-2.736-2.952-4.32zm4.392 6.48 2.952 4.248 4.032-2.736-2.952-4.248zm4.392 6.408 2.952 4.32 3.96-2.736-2.88-4.32zm4.392 6.408 2.88 4.32 4.032-2.736-2.88-4.32zm4.32 6.48 2.952 4.248 4.032-2.736-2.952-4.248zm4.392 6.408 2.952 4.32 4.032-2.736-2.952-4.32zm4.392 6.408 2.952 4.32 3.96-2.736-2.88-4.32zm4.392 6.48 2.88 4.248 4.032-2.736-2.952-4.248zm4.32 6.408 2.952 4.32 4.032-2.736-2.952-4.32zm4.392 6.408 2.952 4.32 4.032-2.736-2.952-4.32zm4.392 6.48 2.952 4.248 3.96-2.736-2.88-4.248zm4.392 6.336 2.88 4.32 4.032-2.736-2.952-4.32zm4.32 6.408 2.952 4.32 4.032-2.736-2.952-4.32zM113.832 255.162l2.88 4.32 4.032-2.736-2.952-4.32zm4.32 6.408 2.952 4.32 4.032-2.736-2.952-4.32zm4.392 6.48 2.952 4.248 4.032-2.736-2.952-4.248zm4.392 6.408 2.952 4.32 3.96-2.736-2.88-4.32zm4.392 6.408 2.88 4.32 4.032-2.736-2.952-4.32zm4.32 6.48 2.952 4.248 4.032-2.736-2.952-4.248zm4.392 6.408 2.952 4.32 4.032-2.736-2.952-4.32zm4.392 6.408 2.88 4.32 4.032-2.736-2.88-4.32zm4.392 6.48 2.88 4.248 4.032-2.736-2.952-4.248zm4.32 6.408 2.952 4.32 4.032-2.736-2.952-4.32zm4.392 6.408 2.952 4.32 4.032-2.736-2.952-4.32zm4.392 6.48 2.88 4.32 4.032-2.736-2.88-4.32zm4.392 6.408 2.88 4.32 4.032-2.736-2.952-4.32zm4.32 6.408 2.952 4.32 4.032-2.736-2.952-4.32zm4.392 6.48 2.952 4.32 4.032-2.736-2.952-4.32zm4.392 6.408 2.88 4.32 4.032-2.736-2.88-4.32zm4.392 6.408 2.88 4.32 4.032-2.736-2.952-4.32zm4.32 6.48 2.952 4.32 4.032-2.736-2.952-4.32zm4.392 6.408 2.952 4.32 4.032-2.736-2.952-4.32zm4.392 6.48 2.88 4.248 4.032-2.736-2.88-4.248zm4.392 6.408 2.88 4.32 4.032-2.736-2.952-4.32zm4.32 6.408 2.952 4.32 4.032-2.736-2.952-4.32zm4.392 6.48 2.952 4.248 4.032-2.736-2.952-4.248zm4.392 6.408 2.88 4.32 4.032-2.736-2.88-4.32zm4.32 6.408 2.952 4.32 4.032-2.736-2.952-4.32zm4.392 6.48 2.952 4.248 4.032-2.736-2.952-4.248zm4.392 6.336 2.952 4.32 4.032-2.736-2.952-4.248zm4.392 6.408 2.88 4.32 4.032-2.736-2.88-4.32zm-111.96-177.768 2.952 4.32 4.032-2.736-2.952-4.32zm4.392 6.408 2.88 4.32 4.032-2.736-2.88-4.32zm4.32 6.408 2.952 4.32 4.032-2.736-2.952-4.32zm4.392 6.48 2.952 4.32 4.032-2.736-2.952-4.32zm4.392 6.408 2.952 4.32 4.032-2.736-2.952-4.32zm4.392 6.48 2.88 4.248 4.032-2.736-2.88-4.248zm4.32 6.408 2.952 4.32 4.032-2.736-2.952-4.32zm4.392 6.408 2.952 4.32 4.032-2.736-2.952-4.32zm4.392 6.48 2.952 4.248 3.96-2.736-2.88-4.248zm4.392 6.408 2.88 4.32 4.032-2.736-2.88-4.32zm4.32 6.408 2.952 4.32 4.032-2.736-2.952-4.32zm4.392 6.48L171 326.01l4.032-2.736-2.952-4.249zm4.392 6.408 2.952 4.32 3.96-2.736-2.88-4.32zm4.392 6.408 2.88 4.32 4.032-2.736-2.88-4.32zm4.32 6.48 2.952 4.32 4.032-2.736-2.952-4.32zm4.392 6.408 2.952 4.32 4.032-2.736-2.952-4.32zm4.392 6.408 2.952 4.32 3.96-2.736-2.88-4.32zm4.392 6.48 2.88 4.32 4.032-2.736-2.88-4.32zm4.32 6.408 2.952 4.32 4.032-2.736-2.952-4.32zm4.392 6.408 2.952 4.32 4.032-2.736-2.952-4.32zm4.392 6.48 2.952 4.32 3.96-2.736-2.88-4.32zm4.392 6.408 2.88 4.32 4.032-2.736-2.88-4.32zm4.32 6.48 2.952 4.248 4.032-2.736-2.952-4.248zm4.392 6.408 2.952 4.32 4.032-2.736-2.952-4.32zm4.392 6.408 2.952 4.32 3.96-2.736-2.88-4.32zm4.392 6.48 2.88 4.248 4.032-2.736-2.952-4.248zm4.32 6.408 2.952 4.248 4.032-2.664-2.952-4.32zm4.392 6.336 2.952 4.32 4.032-2.736-2.952-4.32zM126.072 246.81l2.952 4.32 4.032-2.736-2.16-3.24c-.864.072-1.728.072-2.592.144zm4.392 6.408 2.952 4.32 4.032-2.736-2.952-4.32zm4.392 6.408 2.952 4.32 3.96-2.736-2.88-4.32zm4.392 6.48 2.88 4.32 4.032-2.736-2.952-4.32zm4.32 6.408 2.952 4.32 4.032-2.736-2.952-4.32zm4.392 6.408 2.952 4.32 4.032-2.736-2.952-4.32zm4.392 6.48 2.952 4.32 3.96-2.736-2.88-4.32zm4.392 6.408 2.88 4.32 4.032-2.736-2.952-4.32zm4.32 6.48 2.952 4.248 4.032-2.736-2.952-4.248zm4.392 6.408 2.952 4.32 4.032-2.736-2.952-4.32zm4.392 6.408 2.952 4.32 3.96-2.736-2.88-4.32zm4.392 6.48 2.88 4.248 4.032-2.736-2.952-4.248zm4.32 6.408 2.952 4.32 4.032-2.736-2.952-4.32zm4.392 6.408 2.952 4.32 4.032-2.736-2.952-4.32zm4.392 6.48 2.88 4.248 4.032-2.736-2.88-4.248zm4.392 6.408 2.88 4.32 4.032-2.736-2.952-4.32zm4.32 6.408 2.952 4.32 4.032-2.736-2.952-4.32zm4.392 6.48 2.952 4.32 4.032-2.736-2.952-4.32zm4.392 6.408 2.88 4.32 4.032-2.736-2.88-4.32zm4.392 6.408 2.88 4.32 4.032-2.736-2.952-4.32zm4.32 6.48 2.952 4.32 4.032-2.736-2.952-4.32zm4.392 6.408 2.952 4.32 4.032-2.736-2.952-4.32zm4.392 6.408 2.88 4.32 4.032-2.736-2.88-4.32zm4.392 6.48 2.88 4.32 4.032-2.736-2.952-4.32zm4.32 6.408 2.952 4.32 4.032-2.736-2.952-4.32zm4.392 6.48 2.952 4.248 4.032-2.736-2.952-4.248zm4.392 6.408 2.88 4.32 4.032-2.736-2.88-4.32zm4.392 6.408 2.88 4.248 4.032-2.736-2.952-4.248zM133.92 245.082l1.224 1.8 2.592-1.656c-1.296-.072-2.52-.144-3.816-.144m2.664 3.96 2.952 4.32 4.032-2.736-2.952-4.32zm4.392 6.408 2.952 4.32 4.032-2.736-2.952-4.32zm4.392 6.48 2.952 4.32 4.032-2.736-2.952-4.32zm4.392 6.408 2.88 4.32 4.032-2.736-2.88-4.32zm4.32 6.408 2.952 4.32 4.032-2.736-2.952-4.32zm4.392 6.48 2.952 4.32 4.032-2.736-2.952-4.32zm4.392 6.408 2.952 4.32 4.032-2.736-2.952-4.32zm4.392 6.408 2.88 4.32 4.032-2.736-2.88-4.32zm4.32 6.48 2.952 4.32 4.032-2.736-2.952-4.32zm4.392 6.408 2.952 4.32 4.032-2.736-2.952-4.32zm4.392 6.48 2.952 4.248 4.032-2.736-2.952-4.248zm4.392 6.408 2.88 4.32 4.032-2.736-2.88-4.32zm4.32 6.408 2.952 4.32 4.032-2.736-2.952-4.32zm4.392 6.48 2.952 4.248 4.032-2.736-2.952-4.248zm4.392 6.408 2.952 4.32 3.96-2.736-2.88-4.32zm4.392 6.408 2.88 4.32 4.032-2.736-2.88-4.32zm4.32 6.48 2.952 4.248 4.032-2.736-2.952-4.248zm4.392 6.408 2.952 4.32 4.032-2.736-2.952-4.32zm4.392 6.408 2.952 4.32 3.96-2.736-2.88-4.32zm4.392 6.48 2.88 4.32 4.032-2.736-2.88-4.32zm4.32 6.408 2.952 4.32 4.032-2.736-2.952-4.32zm4.392 6.408 2.952 4.32 4.032-2.736-2.952-4.32zm4.392 6.48 2.952 4.32 3.96-2.736-2.88-4.32zm4.392 6.408 2.88 4.32 4.032-2.736-2.88-4.32zm4.32 6.408 2.952 4.32 4.032-2.736-2.952-4.32zm4.392 6.48 2.952 4.32 4.032-2.736-2.952-4.32zm4.392 6.408 2.592 3.816a66 66 0 0 0 2.376-5.112l-.936-1.44zM143.28 245.658l2.448 3.528 3.744-2.592c-2.088-.361-4.104-.72-6.192-.936m3.888 5.616 2.88 4.32 4.032-2.736-2.88-4.32zm4.32 6.48 2.952 4.32 4.032-2.736-2.952-4.32zm4.392 6.408 2.952 4.32 4.032-2.736-2.952-4.32zm4.392 6.408 2.952 4.32 3.96-2.736-2.88-4.32zm4.392 6.48 2.88 4.32 4.032-2.736-2.952-4.32zm4.32 6.408 2.952 4.32 4.032-2.736-2.952-4.32zm4.392 6.408 2.952 4.32 4.032-2.736-2.952-4.32zm4.392 6.48 2.952 4.32 3.96-2.736-2.88-4.32zm4.392 6.408 2.88 4.32 4.032-2.736-2.952-4.32zm4.32 6.408 2.952 4.32 4.032-2.736-2.952-4.248zm4.392 6.48 2.952 4.32 4.032-2.736-2.952-4.32zm4.392 6.408 2.952 4.32 3.96-2.736-2.88-4.32zm4.392 6.48 2.88 4.248 4.032-2.736-2.952-4.248zm4.32 6.408 2.952 4.32 4.032-2.736-2.952-4.32zm4.392 6.408 2.952 4.32 4.032-2.736-2.952-4.32zm4.392 6.48 2.952 4.248 3.96-2.736-2.88-4.248zm4.392 6.408 2.88 4.32 4.032-2.736-2.952-4.32zm4.32 6.408 2.952 4.32 4.032-2.736-2.952-4.32zm4.392 6.48 2.952 4.248 4.032-2.664-2.952-4.32zm4.392 6.408 2.88 4.32 4.032-2.736-2.88-4.32zm4.392 6.408 2.88 4.32 4.032-2.736-2.952-4.32zm4.32 6.48 2.952 4.32 4.032-2.736-2.952-4.32zm4.392 6.408 2.952 4.32 4.032-2.736-2.952-4.32zm4.392 6.408 2.88 4.32 4.032-2.736-2.88-4.32zm4.392 6.48 2.88 4.32 2.736-1.872c.216-.648.36-1.296.576-1.944l-2.232-3.24zm-98.64-158.256 2.736 3.96 3.456-2.376c-2.088-.576-4.104-1.152-6.192-1.584m4.176 6.12 2.88 4.248 4.032-2.736-2.88-4.248zm4.392 6.408 2.88 4.32 4.032-2.736-2.952-4.32zm4.32 6.408 2.952 4.32 4.032-2.736-2.952-4.32zm4.392 6.48 2.952 4.32 4.032-2.736-2.952-4.32zm4.392 6.408 2.88 4.32 4.032-2.736-2.88-4.32zm4.32 6.408 2.952 4.32 4.032-2.736-2.952-4.32zm4.392 6.48 2.952 4.32 4.032-2.736-2.952-4.32zm4.392 6.408 2.952 4.32 4.032-2.736-2.952-4.32zm4.392 6.408 2.88 4.32 4.032-2.736-2.88-4.32zm4.32 6.48 2.952 4.32 4.032-2.736-2.952-4.32zm4.392 6.408 2.952 4.32 4.032-2.736-2.952-4.32zm4.392 6.408 2.952 4.32 4.032-2.736-2.952-4.248zm4.392 6.48 2.88 4.32 4.032-2.736-2.88-4.321zm4.32 6.408 2.952 4.32 4.032-2.736-2.952-4.32zm4.392 6.48 2.952 4.248 4.032-2.736-2.952-4.248zm4.392 6.408 2.952 4.32 4.032-2.736-2.952-4.32zm4.392 6.408 2.88 4.32 4.032-2.736-2.88-4.32zm4.32 6.48 2.952 4.248 4.032-2.736-2.952-4.248zm4.392 6.408 2.952 4.32 4.032-2.736-2.952-4.32zm4.392 6.408 2.952 4.32 3.96-2.736-2.88-4.32zm4.392 6.48 2.88 4.32 4.032-2.736-2.88-4.32zm4.32 6.408 2.952 4.32 4.032-2.736-2.952-4.32zm4.392 6.408 2.952 4.32 3.384-2.304c.072-.36.144-.72.144-1.08l-2.448-3.672zm4.392 6.48.864 1.296c.216-.72.36-1.512.504-2.232zm-93.528-150.84 2.016 2.952 2.088-1.368c-1.368-.576-2.736-1.08-4.104-1.584m3.456 5.112 2.952 4.32 3.96-2.736-2.376-3.528a14 14 0 0 0-1.008-.432zm4.392 6.408 2.88 4.32 4.032-2.736-2.88-4.32zm4.32 6.48 2.952 4.248 4.032-2.736-2.952-4.248zm4.392 6.408 2.952 4.32 4.032-2.736-2.952-4.32zm4.392 6.408 2.952 4.32 3.96-2.736-2.88-4.32zm4.392 6.48 2.88 4.32 4.032-2.736-2.952-4.32zm4.32 6.408 2.952 4.32 4.032-2.736-2.952-4.32zm4.392 6.408 2.952 4.32 4.032-2.736-2.952-4.32zm4.392 6.48 2.952 4.32 3.96-2.736-2.88-4.32zm4.392 6.408 2.88 4.32 4.032-2.736-2.952-4.32zm4.32 6.408 2.952 4.32 4.032-2.736-2.952-4.32zm4.392 6.48 2.952 4.32 4.032-2.736-2.952-4.32zm4.392 6.408 2.952 4.32 3.96-2.736-2.88-4.32zm4.392 6.408 2.88 4.32 4.032-2.736-2.952-4.248zm4.32 6.48 2.952 4.32 4.032-2.736-2.952-4.32zm4.392 6.408 2.952 4.32 4.032-2.736-2.952-4.32zm4.392 6.48 2.952 4.248 3.96-2.736-2.88-4.248zm4.392 6.408 2.88 4.32 4.032-2.736-2.952-4.32zm4.32 6.408 2.952 4.32 4.032-2.736-2.952-4.32zm4.392 6.48 2.952 4.248 4.032-2.736-2.952-4.248zm4.392 6.408 2.952 4.32 2.52-1.728c0-1.008.072-2.088.072-3.096l-1.512-2.232zm4.392 6.408.72 1.152c.072-.576.144-1.152.144-1.728zm-81.36-132.84 2.952 4.32 3.384-2.304-5.184-2.808zm4.392 6.48 2.88 4.248 4.032-2.736-2.88-4.248zm4.392 6.408 2.88 4.32 4.032-2.736-2.952-4.32zm4.32 6.408 2.952 4.32 4.032-2.736-2.952-4.32zm4.392 6.48 2.952 4.248 4.032-2.736-2.952-4.248zm4.392 6.408 2.88 4.32 4.032-2.736-2.88-4.32zm4.392 6.408 2.88 4.32 4.032-2.736-2.952-4.32zm4.32 6.48 2.952 4.32 4.032-2.736-2.952-4.32zm4.392 6.408 2.952 4.32 4.032-2.736-2.952-4.32zm4.392 6.408 2.88 4.32 4.032-2.736-2.88-4.32zm4.32 6.48 2.952 4.32 4.032-2.736-2.952-4.32zm4.392 6.408 2.952 4.32 4.032-2.736-2.952-4.32zm4.392 6.408 2.952 4.32 4.032-2.736-2.952-4.32zm4.392 6.48 2.88 4.32 4.032-2.736-2.88-4.32zm4.32 6.408 2.952 4.32 4.032-2.736-2.952-4.32zm4.392 6.48 2.952 4.248 4.032-2.736-2.952-4.248zm4.392 6.408 2.952 4.32 4.032-2.736-2.952-4.32zm4.392 6.408 2.88 4.32 4.032-2.736-2.88-4.32zm4.32 6.48 2.952 4.248.72-.432c-.144-1.944-.288-3.96-.504-5.976zm-65.448-109.584.216.288.144-.072c-.144-.072-.288-.144-.36-.216m1.656 2.448 2.952 4.32 2.52-1.8a100 100 0 0 0-4.464-3.168zm4.392 6.408 2.88 4.32 4.032-2.736-1.368-2.016c-.72-.576-1.512-1.224-2.304-1.8zm4.32 6.48 2.952 4.248 4.032-2.736-2.952-4.248zm4.392 6.408 2.952 4.32 4.032-2.736-2.952-4.32zm4.392 6.408 2.952 4.32 3.96-2.736-2.88-4.32zm4.392 6.48 2.88 4.248 4.032-2.736-2.88-4.248zm4.32 6.408 2.952 4.32 4.032-2.736-2.952-4.32zm4.392 6.408 2.952 4.32 4.032-2.736-2.952-4.32zm4.392 6.479 2.952 4.321 3.96-2.736-2.88-4.32zm4.392 6.409 2.88 4.32 4.032-2.736-2.952-4.32zm4.32 6.408 2.952 4.32 4.032-2.736-2.952-4.32zm4.392 6.48 2.952 4.32 4.032-2.736-2.952-4.32zm4.392 6.408 2.952 4.32 3.96-2.736-2.88-4.32zm4.392 6.408 2.88 4.32 3.384-2.304c-.216-.792-.432-1.512-.648-2.304l-1.656-2.448zm4.32 6.48 2.952 4.32 1.008-.72c-.432-1.8-.792-3.6-1.296-5.4zm4.392 6.408.144.144c-.072-.072-.072-.144-.072-.216z" style="stroke:none;fill:#1f211d" data-source="https://football-logos.cc"></path><path d="M411.984 675.066a71 71 0 0 0 5.688-4.536l-70.56-90.072-5.688 4.536zm12.168-11.52-69.552-88.92-3.96 3.096 70.272 89.568c1.152-1.152 2.232-2.448 3.24-3.744m-19.656 20.736c-.432.864-1.44 3.168-.648 4.032l8.208 9.936c2.52 3.096 4.968 1.296 7.848-.216 7.056-3.672 13.032-8.352 18.216-14.256 2.16-2.52 4.464-4.392 2.16-7.632l-7.704-10.368c-.72-.936-3.312-.504-4.248-.288-6.336 8.208-14.256 14.76-23.832 18.792m-70.488-93.528 69.696 88.992c1.512-.72 3.024-1.44 4.464-2.304l-70.272-89.712z" style="stroke:none;fill:#b68251"></path><path d="M359.496 137.514c30.672 0 58.608 12.6 78.84 32.76 20.16 20.232 32.688 48.168 32.688 78.84 0 30.744-12.528 58.68-32.688 78.84-20.232 20.232-48.168 32.76-78.84 32.76-30.744 0-58.68-12.528-78.84-32.76-20.16-20.16-32.688-48.096-32.688-78.84 0-30.672 12.528-58.608 32.688-78.84 20.16-20.16 48.096-32.76 78.84-32.76" style="stroke:none;fill:#1f211d"></path><path d="M302.904 340.05c16.416 10.224 35.784 16.2 56.592 16.2 16.056 0 31.32-3.6 45.072-10.008 4.752-2.232 9.072-4.824 13.464-7.632-4.104.36-8.136.504-12.096.576-9.216 5.832-19.224 10.152-30.096 11.808 8.064-3.528 15.696-7.488 22.68-11.952-3.024-.072-6.048-.288-9.072-.576-15.984 8.64-33.984 12.816-51.984 9.504 16.56-.576 31.824-3.888 45.36-10.368-2.664-.36-5.328-.864-7.92-1.368-12.528 5.616-26.352 8.208-40.536 6.48 13.32-2.448 23.544-4.32 33.264-8.136-2.088-.576-4.176-1.152-6.264-1.8-11.592 4.032-23.832 5.688-34.056 3.312 9.648-1.008 18.936-2.232 28.44-5.184a111 111 0 0 1-6.264-2.376c-8.208 2.304-17.136 3.312-23.904 1.584 7.272-1.224 13.248-2.089 18.936-3.672-17.352-7.776-33.336-18.936-47.736-32.976-1.224.504-2.952.936-4.104 1.008 1.656 15.624 5.256 30.744 10.224 45.576" style="stroke:none;fill:#b68251"></path><path d="M435.168 276.69c-38.16 25.776-86.472 31.248-132.048 6.768-.36 2.592-1.296 5.112-3.024 7.128 15.48 14.832 32.616 26.352 51.336 33.912 4.536-.864 11.016-2.952 14.904-4.464-2.016 2.376-5.76 5.328-9.792 6.408 1.08.36 2.16.791 3.24 1.152l2.808.864c11.304-4.464 18.576-9.144 28.8-15.48-6.12 8.424-13.248 13.248-22.968 17.136a176 176 0 0 0 5.904 1.44c15.984-7.992 26.352-17.496 39.672-29.304-5.4 12.384-20.376 23.976-32.472 30.672 2.736.432 5.472.792 8.208 1.008 21.888-12.672 37.008-33.697 45.432-57.24" style="stroke:none;fill:#b68251"></path><path d="M451.584 263.73c-3.096 2.88-6.336 5.544-9.648 8.064-5.76 25.344-24.12 48.6-45.864 62.64 2.952.216 5.976.288 8.928.288 22.608-16.2 38.736-38.736 46.584-70.992" style="stroke:none;fill:#b68251"></path><path d="M425.664 333.21q4.968-3.888 9.504-8.424c20.304-20.304 31.68-47.952 31.392-76.752-2.952 3.528-5.976 6.912-9.144 10.08-4.032 27.576-20.592 57.888-44.784 76.392 4.32-.288 8.64-.648 13.032-1.296m40.608-91.944c-1.872-25.416-12.672-48.384-29.232-65.808-65.376-3.096-120.24 20.952-141.48 89.424 2.52 1.944 4.752 4.824 6.192 8.28a19.8 19.8 0 0 1 1.368 5.184c59.4 33.192 124.056 13.32 163.152-37.08" style="stroke:none;fill:#b68251"></path><path d="M359.496 142.05c-29.52 0-56.304 12.024-75.6 31.392-.864.864-1.728 1.728-2.52 2.664-9.504 28.152-8.712 56.88 2.808 86.256 2.376-.792 4.968-.576 7.416.288 21.528-68.256 75.888-93.6 140.76-91.872-19.152-17.784-44.784-28.728-72.864-28.728" style="stroke:none;fill:#b68251"></path><path d="M274.176 184.602c-13.608 17.928-21.744 40.32-21.744 64.512 0 1.944.072 3.816.144 5.688 7.344 6.336 15.192 11.88 23.688 16.56.648-2.592 1.944-5.04 3.96-6.84-10.728-27.072-12.672-53.712-6.048-79.92m-21.096 76.464c1.152 10.296 3.744 20.16 7.632 29.376 6.048-1.152 12.024-2.736 17.496-5.4-1.44-2.736-2.304-5.832-2.376-8.856-8.064-4.248-15.696-9.36-22.752-15.12m9.504 33.552a106.1 106.1 0 0 0 21.312 30.168c4.032 4.104 8.424 7.776 13.032 11.16-4.248-13.68-7.344-27.648-8.784-42.048-2.88-.936-5.472-2.808-7.416-5.112-5.688 2.808-11.88 4.608-18.144 5.832m22.32-27.792c-2.088.864-3.528 2.88-4.248 5.4-.72 2.736-.504 6.048.864 9.288 1.872 4.536 7.272 10.296 12.744 8.064 5.4-2.304 5.184-10.152 3.384-14.688-1.296-3.24-3.456-5.76-5.904-7.2-2.232-1.368-4.68-1.728-6.84-.864" style="stroke:none;fill:#b68251" data-source="https://football-logos.cc"></path><path d="M228.456 588.162a48.5 48.5 0 0 1 7.776 2.376c2.592 1.008 5.112 2.304 7.632 3.672l273.96-201.672c16.2-11.88 30.888-26.28 32.04-47.736 1.008-20.376-11.88-38.016-31.608-43.272-20.736-5.472-38.952 4.176-55.152 15.912l-275.76 199.296c.576 2.808 1.008 5.616 1.152 8.424.216 2.664.216 5.4-.072 8.064 24.624 9.936 38.088 28.44 40.032 54.936M53.064 679.026c.288-3.168 1.512-6.336 2.52-9.288-3.096.072-6.48.288-9.576-.432.072 5.112 2.304 8.136 7.056 9.72m2.808-13.752c-3.096-4.032-6.408-7.56-9.504-10.152-2.304 6.336-2.088 8.784-.288 9.576 2.664 1.08 6.84.576 9.792.576m9.864-4.392c-3.816-4.896-7.992-9.576-12.6-13.968-3.024-2.952-6.84 3.312-3.6 5.904 3.96 3.096 8.064 7.488 11.808 12.312 3.024 3.888 5.184-3.168 4.392-4.248m14.472 8.208a52 52 0 0 0-1.584-3.528 35 35 0 0 1-3.24 2.448l1.944 3.24c.792 1.368 3.456-.792 2.88-2.16m-3.168-6.552a39 39 0 0 0-2.304-3.672 23.6 23.6 0 0 1-3.528 2.88 342 342 0 0 0 2.448 3.528c1.224-.864 2.52-1.872 3.384-2.736m-4.68-6.84c-3.96-4.968-7.992-8.784-12.816-12.312-1.368-1.008-5.832-2.304-3.24.576 4.176 4.536 8.208 9.144 12.24 14.328 1.8 2.376 5.256-.864 3.816-2.592m14.184 8.496c-.144-1.296-.432-2.592-.72-3.816-4.176 4.32-4.608.72-2.088 6.12.792 1.656 2.952-1.008 2.808-2.304m-2.088-8.136a22 22 0 0 0-1.512-2.88c-1.584 1.728-3.024 2.664-4.752 3.456a78 78 0 0 1 1.512 2.52c1.368 2.016 5.832-.792 4.752-3.096m-3.672-5.688c-3.528-4.104-7.848-7.92-13.248-9.792-2.16-.792-5.328-.864-2.232 1.8a81.5 81.5 0 0 1 10.584 11.088c1.584 2.016 6.12-1.728 4.896-3.096m6.696-23.112c-2.304-1.152-5.904.288-2.088 2.664 3.888 2.448 7.344 5.472 10.368 9 1.368 1.656 4.392-.792 3.168-2.304-3.312-3.96-7.272-7.272-11.448-9.36m10.584 14.76c.504.864 1.008 1.656 1.512 2.52 1.296 2.304 4.248-.36 3.384-2.016-.504-.864-1.152-1.872-1.728-2.88a14.6 14.6 0 0 1-3.168 2.376m3.384 6.768c.432 1.08.792 2.232 1.152 3.384.648 2.376 3.6 0 3.096-1.944a33 33 0 0 0-1.08-3.528 16 16 0 0 1-3.168 2.088M93.6 622.794c-2.376-1.152-5.976.288-2.088 2.664 3.888 2.448 7.344 5.544 10.368 9.072 1.368 1.728 4.32-1.008 3.096-2.376-3.312-3.96-7.272-7.272-11.376-9.36m10.584 14.832a78 78 0 0 1 1.512 2.52c1.296 2.376 4.104-.576 3.384-1.944-.576-1.08-1.152-2.088-1.8-3.024a17.2 17.2 0 0 1-3.096 2.448m3.384 6.768c.36 1.08.792 2.16 1.08 3.312.72 2.592 3.528-.216 3.312-1.656-.216-1.368-.72-2.592-1.224-3.816-1.008.792-2.016 1.512-3.168 2.16m-7.92-25.992c-2.304-1.224-5.904.216-2.016 2.664 3.744 2.376 6.984 5.544 10.152 8.928 1.656 1.8 4.68-.72 3.024-2.448-3.456-3.672-7.056-7.128-11.16-9.144m10.656 14.76c.504.792.936 1.584 1.368 2.304 1.584 2.808 4.104.144 3.168-2.52-.288-.864-.936-1.512-1.512-2.232-.864.864-1.944 1.728-3.024 2.448m3.384 6.84c.36 1.08.72 2.16 1.08 3.312.72 2.664 3.528-.288 3.168-1.656-.288-1.296-.648-2.592-1.152-3.888a24 24 0 0 1-3.096 2.232m-7.92-26.064c-2.376-1.224-5.904.288-2.088 2.664a44.5 44.5 0 0 1 10.368 9.072c1.44 1.656 4.248-1.008 3.168-2.448-3.024-4.176-7.272-7.2-11.448-9.288m10.584 14.832c.504.72 1.008 1.512 1.44 2.304 1.44 2.592 4.248-.504 3.24-2.376-.432-.864-1.008-1.656-1.584-2.448-.864.936-1.944 1.728-3.096 2.52m3.384 6.768c.432 1.08.792 2.16 1.08 3.312.792 2.592 3.528-.288 3.168-1.8-.288-1.368-.648-2.52-1.08-3.744-.936.864-2.016 1.584-3.168 2.232m-7.848-26.064c-2.376-1.152-5.976.288-2.088 2.664 3.816 2.448 7.056 5.616 10.152 8.928 1.728 1.872 4.536-.792 3.312-2.232-3.312-3.96-7.272-7.272-11.376-9.36m10.584 14.832c.432.72.864 1.44 1.368 2.232 1.512 2.736 4.32-.216 3.096-2.448a23 23 0 0 0-1.368-2.232 26 26 0 0 1-3.096 2.448m3.384 6.84 1.08 3.456c.648 2.16 3.528-.36 3.096-2.16-.36-1.152-.648-2.448-1.008-3.6-1.008.864-2.016 1.656-3.168 2.304m-7.92-26.136c-2.304-1.152-5.904.288-2.016 2.664 3.528 2.232 6.768 5.04 9.576 8.208 2.736 3.168 5.328.144 3.24-2.232-3.168-3.6-6.912-6.624-10.8-8.64m10.656 14.832c.432.792.936 1.512 1.368 2.304 1.44 2.664 4.32-.288 3.096-2.448a39 39 0 0 0-1.368-2.304 26 26 0 0 1-3.096 2.448m3.384 6.84c.288 1.008.576 2.016.936 3.024.864 2.88 3.672.072 3.24-1.8a29 29 0 0 0-1.08-3.528 19.2 19.2 0 0 1-3.096 2.304m-7.92-26.064c-2.376-1.224-5.904.216-2.088 2.664 3.6 2.232 6.696 5.184 9.648 8.352 2.376 2.52 5.544.144 3.24-2.448-3.24-3.6-6.912-6.624-10.8-8.568m10.584 14.76c.504.792 1.008 1.512 1.44 2.304 1.44 2.664 4.248-.36 3.168-2.232a17 17 0 0 0-1.512-2.448c-.864.864-1.944 1.656-3.096 2.376m3.384 6.84c.432 1.08.792 2.088 1.08 3.168.864 2.952 3.528-.288 3.096-2.088-.288-1.224-.648-2.304-1.008-3.384a17 17 0 0 1-3.168 2.304m-7.848-26.064c-2.376-1.224-5.976.216-2.088 2.664a43.4 43.4 0 0 1 9.432 7.992c2.448 2.736 5.904.792 3.528-2.088-3.024-3.6-6.984-6.624-10.872-8.568m10.512 14.688c.432.792.864 1.656 1.368 2.448 1.368 2.376 4.464-.144 3.456-2.088-.504-.864-1.008-1.728-1.584-2.592-1.008.864-2.16 1.584-3.24 2.232m3.456 6.984c.36.936.72 1.872 1.008 2.88.936 3.168 3.744.288 3.096-2.16-.288-1.08-.576-2.088-1.008-3.096a20.7 20.7 0 0 1-3.096 2.376m-7.92-26.136c-2.304-1.152-5.904.288-2.016 2.664 3.528 2.232 6.768 5.04 9.576 8.208 2.088 2.376 5.688.576 3.456-2.016-3.168-3.816-6.984-6.84-11.016-8.856m10.512 14.616c.504.792.936 1.584 1.44 2.376 1.44 2.52 4.464.072 3.312-2.088-.432-.792-.936-1.584-1.44-2.376a19.7 19.7 0 0 1-3.312 2.088m3.456 6.912c.36.864.648 1.872.936 2.808 1.08 3.456 3.816.576 3.24-1.872-.288-1.008-.576-2.016-.936-3.024a22.5 22.5 0 0 1-3.24 2.088m-7.848-25.992c-2.376-1.152-5.904.288-2.088 2.664 3.528 2.232 6.696 4.968 9.504 8.064 2.304 2.592 5.976.792 3.312-2.088-3.096-3.528-6.84-6.624-10.728-8.64m10.44 14.616c.576.864 1.08 1.728 1.584 2.592 1.224 2.16 4.392-.072 3.24-2.088-.504-.864-.936-1.728-1.44-2.592-1.08.792-2.232 1.584-3.384 2.088m3.456 6.84c.432 1.08.864 2.16 1.152 3.24.864 3.024 3.6 0 3.096-2.088-.216-1.08-.576-2.088-1.008-3.168-1.08.792-2.232 1.512-3.24 2.016m-7.776-25.848c-2.376-1.224-5.976.216-2.088 2.664 3.528 2.16 6.84 4.896 9.576 8.064 2.376 2.736 5.688.648 3.24-2.232-3.096-3.672-6.84-6.624-10.728-8.496m10.368 14.544a16 16 0 0 1 1.728 2.592c.936 1.8 4.32-.072 3.384-1.872-.504-1.008-1.08-1.872-1.728-2.808a17.8 17.8 0 0 1-3.384 2.088m3.528 6.984c.432 1.08.792 2.16 1.152 3.312.864 3.024 3.456-.504 3.024-2.304-.288-1.008-.576-2.088-.936-3.096-1.08 1.08-2.016 1.512-3.24 2.088m-7.848-25.992c-2.304-1.224-5.904.216-2.088 2.664 3.6 2.232 6.768 4.968 9.576 8.136 2.16 2.448 5.76.648 3.6-1.872-3.24-3.744-7.056-6.912-11.088-8.928m10.512 14.616c.504.792 1.008 1.584 1.44 2.376 1.368 2.448 4.392-.072 3.528-1.8-.504-1.008-1.08-1.872-1.656-2.736a14.6 14.6 0 0 1-3.312 2.16m3.384 6.84c.432 1.08.792 2.16 1.152 3.312.864 2.88 3.672 0 3.096-2.232-.288-1.008-.576-2.088-.936-3.096-1.08.792-2.16 1.44-3.312 2.016m-7.776-25.92c-2.376-1.224-5.904.288-2.088 2.664 3.528 2.232 6.696 5.04 9.504 8.208 2.304 2.592 5.76.576 3.456-2.232-3.096-3.744-6.912-6.696-10.872-8.64m10.512 14.688c.576.864 1.08 1.656 1.512 2.52 1.224 2.16 4.32-.288 3.384-2.016a15.4 15.4 0 0 0-1.656-2.736c-.936.864-2.016 1.584-3.24 2.232m3.744 7.272c.432 1.08.792 2.16 1.152 3.24.936 3.312 3.528-.288 3.24-1.656a34 34 0 0 0-1.08-3.6c-1.008.792-2.16 1.512-3.312 2.016m-8.136-26.424c-2.376-1.152-5.976.288-2.088 2.664a42.5 42.5 0 0 1 9.792 8.496c2.088 2.376 5.328.072 3.168-2.304-3.312-3.6-6.984-6.84-10.872-8.856m11.448 16.056c.648 1.008 1.296 2.016 1.872 3.096.792 1.44 4.104-.648 3.168-2.376-.576-1.08-1.224-2.088-1.872-3.096a14.6 14.6 0 0 1-3.168 2.376m2.808 5.976c.432 1.152.864 2.304 1.152 3.456.648 2.016 4.68.648 4.68-.072-.072-1.296-.792-2.448-1.296-3.672-1.368.288-3.312-.288-4.536.288M172.8 565.05c-2.304-1.224-5.904.216-2.088 2.664 3.744 2.304 6.984 5.4 10.008 8.712 1.944 2.088 4.968-.36 3.168-2.448-3.24-3.745-7.056-6.912-11.088-8.928m11.52 15.984a42 42 0 0 1 1.8 3.024c1.08 2.016 4.32-.216 3.24-2.16l-1.944-3.24a14.2 14.2 0 0 1-3.096 2.376m4.176 7.992c.432 1.08.864 2.232 1.224 3.384.72 2.304 3.6-.072 3.24-1.656-.36-1.224-.72-2.448-1.152-3.672-1.008.792-2.16 1.44-3.312 1.944m-9.36-28.656c-2.376-1.08-6.192.504-2.304 2.88 3.744 2.16 7.056 4.896 9.936 8.136 2.448 2.736 5.688 0 3.384-2.52-3.312-3.528-6.984-6.552-11.016-8.496m11.52 16.128c.576.864 1.152 1.8 1.656 2.664 1.296 2.376 4.824.144 3.6-2.016a31 31 0 0 0-1.944-3.312 20.6 20.6 0 0 1-3.312 2.664m4.032 7.848c.432 1.08.792 2.232 1.152 3.312.792 2.736 3.888.072 3.456-1.8a46 46 0 0 0-1.008-3.384 13.2 13.2 0 0 1-3.6 1.872m-113.472 47.52c-2.376-1.224-5.976.288-2.088 2.664 3.816 2.376 7.272 5.4 10.224 8.928 1.368 1.584 4.608-.72 3.384-2.016-3.672-3.816-7.344-7.416-11.52-9.576m10.512 14.688a74 74 0 0 1 1.512 2.448c1.224 2.232 4.392 0 3.384-1.872-.504-.936-1.08-1.872-1.656-2.808-1.008.864-2.088 1.584-3.24 2.232m3.384 6.696a36 36 0 0 1 1.296 3.96c.576 2.016 3.384-.792 3.168-2.088s-.72-2.52-1.224-3.816c-.936.72-2.016 1.296-3.168 1.872zM74.88 636.474c-2.304-1.224-5.904.216-2.016 2.664 3.816 2.376 7.344 5.472 10.296 9 1.296 1.512 4.68-.576 3.024-2.376-3.456-3.744-7.2-7.2-11.304-9.288m10.512 14.544c.576.936 1.08 1.8 1.656 2.736 1.008 1.872 4.248-.216 3.312-2.016-.504-.936-1.08-1.872-1.656-2.808-1.008.864-2.16 1.512-3.312 2.088m3.456 6.984c.576 1.152 1.08 2.304 1.368 3.528.432 2.304 3.168-1.08 2.88-2.304-.288-1.08-.648-2.232-1.008-3.384-1.152 1.08-2.088 1.584-3.24 2.16" style="stroke:none;fill:#e11f26"></path><path d="M188.28 543.522q11.88 4.86 19.224 13.176c2.016 2.304 5.904-.504 3.744-2.808-5.832-6.048-12.6-11.376-21.744-15.336-3.888-1.656-4.176 3.816-1.224 4.968m22.68 17.784c1.296 1.944 2.448 3.96 3.384 6.12.792 1.8 6.192 2.16 4.536-1.512a40.6 40.6 0 0 0-3.888-7.2c-1.224 1.008-2.52 1.872-4.032 2.592m5.4 11.448c.432 1.44.864 2.952 1.152 4.536.936 4.464 5.616 3.024 4.824-.36-.432-1.728-.792-3.528-1.296-5.256a13.4 13.4 0 0 1-4.68 1.08m2.16 11.016c.144 1.584.216 4.248 2.448 4.248 1.44.072 2.952-1.512 2.52-5.04-1.584.576-3.312.864-4.968.792m-35.064-29.448c-2.88-1.368-5.472 1.008-2.232 2.808 4.896 2.664 9 5.832 12.312 9.576 2.016 2.304 5.904-.072 3.456-2.592-3.744-4.032-8.064-7.2-13.536-9.792m13.752 17.208c.72 1.008 1.296 2.016 1.872 3.168 1.08 2.088 5.184.648 3.744-2.232a27 27 0 0 0-1.944-3.456c-1.152.936-2.448 1.8-3.672 2.52m4.176 8.424c.432 1.08.864 2.232 1.152 3.456.432 1.728 3.96.216 3.456-1.872-.288-1.224-.576-2.376-.936-3.456-1.08.792-2.376 1.44-3.672 1.872m2.304 8.496c.864 2.376 3.024 1.224 3.24-1.152-1.008.576-2.088.936-3.24 1.152m-18.144-37.368c6.12 3.096 10.728 6.336 14.688 10.728 2.016 2.232 6.048-.144 3.816-2.592-4.176-4.608-9.648-8.352-16.344-11.16-3.168-1.296-5.544 1.296-2.16 3.024m18.36 15.552a56 56 0 0 1 2.088 3.672c1.512 2.952 5.328.864 4.392-1.296-.864-1.872-1.656-3.384-2.664-4.968a40 40 0 0 1-3.816 2.592m4.392 9.216c.36 1.296.648 2.664 1.08 4.032.504 1.872 4.752 3.168 4.032-.504-.36-1.656-.648-3.384-1.08-4.968-1.296.648-2.592 1.224-4.032 1.44m2.304 9.648c.576 3.312 3.24 2.448 3.528-.216a14.5 14.5 0 0 1-3.528.216" style="stroke:none;fill:#e11f26"></path><path d="M518.616 344.154c.432.648 1.008 1.008 1.656 1.08q.864.216 1.728-.432c1.08-.72 1.728-1.728 2.016-2.88.288-1.224.072-2.232-.576-3.168-.864-1.152-1.872-1.944-3.024-2.304-1.08-.36-5.256.72-5.04 2.664.072.504.36 1.08.792 1.728.864 1.08 1.656 2.232 2.448 3.312m-7.2-10.152c.288.432.648.648.936.648 1.08-.072 2.52-1.656 2.52-2.664q0-1.08-.864-2.16c-.792-1.152-1.584-1.872-2.448-2.16-1.08-.433-3.672.432-3.24 1.944.144.504.504 1.152 1.008 1.872.36.432.72.936 1.224 1.512s.792.864.864 1.008m2.376 13.392c-2.952-4.248-6.12-9-9.648-12.744a25 25 0 0 0-1.08-1.152c-.144-.072-.576-.144-1.152-.144-1.296 0-2.232-1.296-1.8-2.52.216-.576.72-1.152 1.44-1.728.288-.144.576-.36 1.008-.576 1.512-.72 2.592-1.944 3.96-2.88l.432-.36c2.592-1.872 5.616-3.096 8.712-1.584 2.52 1.224 3.816 3.744 4.104 6.48.072.36.144.648.216.72.072.144.576.216 1.368.072.792-.072 1.44-.072 2.016.144.72.288 1.512.648 2.304 1.296 2.664 1.872 4.464 5.472 4.104 8.64-.648 5.112-4.176 5.112-7.416 7.848-1.152 1.008-2.304 2.16-3.456 2.952 0 .072-.072.072-.144.144-.072 0-.144.072-.216.072 0 .072-.072.144-.144.216l-.288.288c-.576.432-1.152.576-1.872.504-.648-.072-1.152-.36-1.584-1.008-.432-.504-.504-1.224-.144-2.016.216-.864.216-1.512-.144-1.944v-.072zM267.768 532.65c-.216-.288-.288-.576-.36-1.008 0-.432.072-.72.216-1.08.36-.432.432-.792.432-1.152-.072-.432-.288-.864-.648-1.368-3.528-4.824-7.056-9.72-10.584-14.544-.144-.288-.576-.432-1.152-.504-.576-.144-1.008-.432-1.296-.792-.288-.504-.432-1.008-.288-1.728.144-.648.432-1.152.936-1.512.216-.144.504-.36.936-.576s.72-.432.936-.576c.288-.216.576-.504.936-.936.36-.36.576-.648.72-.72.504-.36.936-.432 1.368-.36.36.072.792.432 1.152.936.36.432.504 1.008.504 1.728v.864c.072.432.144.792.36 1.152 1.008 2.304 8.64 13.032 10.584 14.832q.324.324.648.432c.144.072.504.216 1.08.36s.936.36 1.152.648c.36.504.504 1.008.36 1.656-.072.576-.432 1.008-.864 1.368 0 0-.216.144-.576.36-.36.288-.72.504-1.08.792l-.576.432a3.1 3.1 0 0 0-.792.864c-.288.36-.432.576-.576.648 0 .072-.144.072-.288.144s-.288.072-.36.144c-.072 0-.072.072-.144.144l-.072.072c-.36.216-.792.288-1.296.144-.576-.072-1.008-.432-1.368-.864m11.304-10.368c.072-.144.144-.216.144-.288.072-.864.288-1.512.432-2.376.288-2.088-.576-5.256-.792-7.056-.072-.792-.144-1.296-.36-1.512-.36-.504-1.8-1.224-4.392-2.088-1.368-.504-5.616-2.88-7.2-2.88-.216 0-.504 0-.936.072-.72.216-1.296-.072-1.8-.72-.432-.576-.576-1.152-.36-1.728.216-.648.72-1.224 1.512-1.8 1.296-.936 2.592-.864 3.6-2.376.288-.432.576-.72.792-.864.864-.648 1.656-1.008 2.304-1.008.576.072 1.152.432 1.728 1.152.144.288.216.648.072 1.152s-.072.864.072 1.08c.432.576 3.6 2.16 4.464 2.448.432.072.72.144.792.072.576-.432-.432-5.184-1.44-5.616-.432-.216-.864-.504-1.224-1.008-.36-.576-.576-1.152-.504-1.8.072-.72.36-1.152.864-1.512 1.08-.792 2.304-1.512 3.384-2.304.504-.36 1.008-.432 1.656-.36.648.144 1.08.432 1.512.936.504.72.576 1.296.216 1.8-.216.216-.288.432-.36.648-.36 2.088-1.08 8.064.216 9.864 1.224 1.728 7.488 4.608 9.504 5.4.648.216 1.368.72 2.16.504 1.584-.504 3.888.936 2.808 2.592a8 8 0 0 0-.576.648c-1.152 1.152-2.88 1.8-3.888 2.879-.216.361-.504.577-.648.649-1.008.792-1.8 1.152-2.376 1.224-.504.072-1.008-.144-1.368-.72-.648-.936-.072-1.944-.504-2.592-.504-.648-4.752-2.232-4.824-2.16-.144.072.144 5.112.36 5.4.72 1.008 2.592.504 2.304 2.808a2.04 2.04 0 0 1-.864 1.44c-1.224.864-2.304.936-3.384 2.088-.288.36-.504.576-.648.72-.36.216-.792.36-1.296.288-1.584-.145-1.8-1.872-1.152-3.096m6.552-42.336c0-1.368.792-2.592 1.512-3.168 1.368-.936 2.664-1.656 3.888-2.088 1.152-.36 1.8-.576 1.8-.576 1.152-.864.432-1.728 1.224-2.736.72-.936 1.944-.792 2.448.432.216.576.576 1.944.288 3.168-.288 1.296-1.296 2.376-1.872 2.808-.72.504-1.872.864-3.312 1.512-.72.288-1.152.432-1.584.648-.72.36-1.296.72-1.368 1.872-.072 1.008-.432 2.016-1.656 1.872-.864-.072-1.368-2.952-1.368-3.744m52.848-8.064c1.728-.288 2.448.648 3.24 1.44 1.728 1.584 8.712-1.224 6.336-4.824q-.972-1.404-3.456-1.296h-.936c-2.304-.144-3.816.504-5.76.432-2.664-.216-5.544-1.8-7.128-3.96-1.296-1.728-1.8-3.528-1.656-5.4v-.36c.144-2.52 1.728-4.68 4.032-5.688q1.08-.54 1.512-.864c1.008-.72.792-2.52 2.808-2.088q.432.108 1.728.864.432.324.648.432c.216.072.504.288.936.504 1.224.576 1.944 1.08 2.232 1.44q.648.864.648 1.728c0 .504-.216.936-.576 1.224-.504.36-1.224.36-2.16.072a22 22 0 0 0-1.296-.504c-.216 0-.576-.072-1.008-.216-1.728-.36-3.024-.216-3.96.432-1.08.792-.648 1.944 0 2.808 2.016 2.736 6.336 1.584 7.992 1.44 3.6-.288 6.984 1.008 9.144 4.032 3.384 4.68 2.088 9-2.376 12.312-1.728 1.224-4.176 1.656-4.968 2.304-.576.36-.648.648-1.224 1.224-1.08 1.008-2.808 2.16-4.176.216l-.288-.36c-.288-.432-1.44-2.952-2.016-4.68s-.576-2.304 1.728-2.664m43.056-37.296c.36.072.864-.072 1.44-.504.432-.36.648-1.152.648-2.448-.072-1.296-.432-2.448-1.152-3.384q-1.404-1.944-3.024-2.592c-1.08-.432-2.088-.288-2.952.36-.432.288-.576.72-.504 1.296.144.936 4.536 7.128 5.544 7.272m1.008 14.04c-.504-.648-.648-1.296-.504-1.944.072-.648 0-1.152-.216-1.44-3.384-4.68-7.272-9.144-10.656-13.824-.288-.36-.72-.576-1.44-.648-.648-.144-1.224-.432-1.512-.936q-.756-.972-.648-1.944c.072-.576.432-1.152 1.08-1.584.432-.36 1.152-.792 1.944-1.296a17 17 0 0 0 1.656-1.08c.072-.072.36-.288.864-.792s.936-.864 1.44-1.224c2.448-1.728 6.696-1.584 9.36-.216 1.08.576 2.016 1.296 2.664 2.304 1.872 2.52 2.736 4.896 2.664 7.2-.072 2.232-1.152 4.032-3.168 5.544-.288.216-.576.432-.936.648-.36.144-.504.288-.576.288q-.54.432-.432.864c.072 1.224 2.52 3.456 3.456 3.888q1.188.648 1.728 1.296c.36.576.504 1.08.432 1.656s-.36 1.008-.864 1.368c-.072.144-.432.216-.864.432a5.5 5.5 0 0 0-1.08.432l-.072.144c-.072 0-.216.144-.288.288-.144.144-.288.216-.36.288l-.432.432c-.288.216-.504.36-.648.504-.504.36-.936.432-1.368.36-.36-.144-.792-.432-1.224-1.008m25.128-21.384c.288-.144.576-.288.792-.36.144-.144.36-.216.504-.36.504-.36.864-.936 1.08-1.8.216-.792.288-1.584.144-2.304-.144-.576-.432-1.44-1.008-2.664-2.016-4.752-5.472-6.48-10.296-7.488-.648-.072-1.296 0-2.088.216-2.952.72-3.528 2.592-2.88 5.688.36 1.656.792 2.808 1.44 3.672 1.872 2.592 5.832 4.824 8.856 5.4q1.836.324 3.456 0m-16.128 0c-3.384-4.176-3.96-11.016-1.512-15.84.648-1.224 1.224-2.088 1.944-2.592 0 0 .216-.144.504-.288s.576-.36.864-.576c5.76-4.176 14.904-1.008 18.72 4.248a15.8 15.8 0 0 1 1.872 3.456c1.296 3.456 1.296 9.864-1.224 13.248-.648.864-1.44 1.656-2.304 2.232l-.288.288c-5.976 4.32-14.328 1.08-18.576-4.176m28.944-21.312c.432.144.72.144.936 0 .576-.504.864-1.224.792-2.304s-.576-2.16-1.44-3.312l-.072-.144c-.936-1.296-1.872-2.16-2.736-2.52-.936-.432-1.728-.36-2.448.144-.36.216-.504.576-.504 1.008 0 .936 4.536 6.912 5.472 7.128m.792 14.328c-.216-.288-.36-.936-.36-1.944-.072-2.88-8.496-13.536-11.016-15.768-.288-.216-.792-.504-1.584-.72-.792-.288-1.296-.504-1.512-.792-.288-.432-.36-1.008-.216-1.656a2.76 2.76 0 0 1 1.08-1.728c1.224-.864 2.16-.936 3.456-2.16.576-.576 1.08-.936 1.44-1.224 3.816-2.808 6.84-3.024 10.8-.36 2.232 1.584 5.616 5.976 3.312 8.928-.216.36-.216.72 0 1.008s.864.648 1.872.936c2.592.72 6.696 2.52 9.288 2.232.648-.072 1.08.072 1.296.504 1.224 1.728.216 4.608-1.44 5.4-1.728.792-6.048-.432-9.504-1.584-1.8-.648-3.096-2.016-4.176-2.16-.432 0-.792 0-.936.144-.144.072-.216.288-.288.576-.216.576 3.024 3.96 3.528 4.176.072.072.216.072.432.144a3.03 3.03 0 0 1 1.8 1.152c.36.504.432 1.008.288 1.584a2.58 2.58 0 0 1-1.008 1.512c-1.08.72-2.088 1.512-3.168 2.304-.648.432-1.296.576-1.8.504-.576-.072-1.152-.36-1.584-1.008m24.264-14.688c-.432.36-.936.432-1.512.36a2.26 2.26 0 0 1-1.368-.936c-.288-.432-.504-.792-.504-1.224-.072-.432 0-.792.216-1.224a1.34 1.34 0 0 0 .288-.792q0-.324-.432-.864a2.2 2.2 0 0 0-.36-.504c-.144-.216-.288-.288-.288-.36-.36-.504-9.072-13.248-10.152-13.536-.288-.072-.648 0-.936.288-.432.288-.864.72-1.152 1.368-1.008 1.8-.504 3.744-2.448 5.184q-.54.324-1.08.216c-.288-.144-.648-.36-.936-.792-.432-.576-.576-1.728-.288-3.312.072-.576.144-.936.144-1.224.288-2.88-.432-2.808 2.304-4.824.144-.144.72-.432 1.584-.864.936-.432 1.728-.936 2.448-1.44 1.944-1.44 3.672-2.952 5.256-4.464 1.152-1.08 2.16-.936 3.6-.36.72.216 1.224.432 1.656.504.216 0 .504.072.864.144 1.296.216 2.16.576 2.592 1.152q.432.54.216 1.296c-.072.504-.36.864-.72 1.152-.648.504-4.176.72-5.112.72-.648 0-1.152.144-1.44.36-.36.288-.504.576-.504.936-.072 1.8 9.576 14.112 11.736 14.904 1.152.432 1.872.864 2.16 1.224.36.576.504 1.08.36 1.584s-.576 1.008-1.224 1.512c-.432.36-.936.648-1.44.936-.576.288-.792.432-.864.432-.144.072-.288.216-.504.504-.216.216-.36.36-.504.432-.072.072-.216.144-.36.216s-.288.144-.288.216c-.216.144-.432.288-.576.576-.216.288-.36.432-.432.504m28.368-23.112a2.6 2.6 0 0 1-.576-1.296c-.144-.432-.072-.864.072-1.296 0-.072 0-.072.072-.144.432-1.296-9.072-13.968-9.864-15.048s-1.584-1.584-2.232-1.512h-.288c-.144 0-.432-.216-.864-.504s-.72-.504-.792-.576c-.288-.504-.432-.936-.216-1.368.216-.504.792-1.08 1.8-1.8 1.224-.936 2.448-1.872 3.6-2.736.648-.432 1.152-.72 1.584-.72.432-.072.792.144 1.08.504s.432.792.576 1.296c.072.504.072 1.08.072 1.872q-.108.648.216 1.296c1.8 3.744 6.624 8.712 8.928 12.24.216.288.288.432.36.504.504.648 1.008 1.152 1.584 1.44.504.288 1.008.36 1.296.072.936-.648 1.728-1.656 2.52-3.024 1.008-1.872 1.512-3.816 1.728-5.904.144-.864.288-1.368.576-1.512.432-.36.936-.432 1.368-.216.504.216 1.008.648 1.584 1.44.504.648.648 1.8.504 3.312-.288 2.592.432 5.112-2.088 6.912-.432.36-1.152.864-2.16 1.368-1.512.936-2.592 1.872-3.744 2.808-1.08.864-4.032 3.312-5.328 3.312-.576 0-1.08-.216-1.368-.72m28.944-18.36c-10.368 7.56-17.64-6.552-23.976-12.168-.72-.648-1.872-.864-2.448-1.584-.288-.504-.36-1.08-.072-1.8.72-2.304 2.88-2.088 4.32-3.6 1.224-1.296 3.24-2.592 4.608-.72.504.72.648 1.728.432 2.952-.216 1.08.072 2.376.72 3.168 2.448 3.456 6.408 8.928 11.16 9 2.88.072 5.688-1.584 5.328-5.4-.072-1.296-.36-2.376-.936-3.24-.216-.432-.432-.792-.648-1.224a3.3 3.3 0 0 1-.288-.576c-1.728-2.448-3.168-5.184-4.896-7.56-.288-.36-.936-.72-2.088-1.152-1.08-.36-1.872-.864-2.304-1.44-1.008-1.44-.144-2.376 1.224-2.952.504-.216.864-.36 1.008-.504 1.008-.72 1.512-1.944 3.096-1.944 3.024.144 1.152 3.168 1.368 4.248.072.432.288.864.72 1.368.72 1.08 1.44 2.088 2.232 3.168.072.072.216.288.432.576 1.512 1.8 3.672 5.688 4.752 7.776.144.432.36 1.008.576 1.656.72 2.592.648 4.752-.36 7.2-.792 1.8-2.736 3.816-3.96 4.752m-156.888 56.52c.576 2.592-1.8 5.904-2.376 10.08-.864 6.624 1.656 10.656 5.4 13.536 6.264 4.68 16.416 5.328 23.112 8.352 3.528 1.584 6.48 5.4 7.2 9.36.72 3.744-1.008 8.208-4.896 9.36-.864.288-1.8.36-2.88-.073-1.584-.503-1.512-2.447-4.176-1.583-1.44.432.072 3.6-.072 6.12-.144 2.592.72 4.32 3.168 4.032 2.088-.216 2.016-.432 2.592-2.376 9.864-.216 12.96-12.024 10.656-19.8-3.024-9.936-14.04-16.056-24.12-18-5.76-1.08-12.816-4.248-10.224-10.584.72-1.944 3.816.648 3.96.072.216-1.008 1.44-2.592.864-3.384-.288-.432-2.736-2.16-3.024-2.088.216.36.576-5.256-5.184-3.024" style="stroke:none;fill:#fff"></path><path d="m467.352 346.53-.072 5.904c-2.088 2.52-4.032-.36-4.32-1.944-.432-2.016-4.392-2.232-5.904 1.08-1.656 3.672-1.224 10.944 1.8 18.36 3.456 8.568 11.952 15.624 19.08 19.44 6.552 3.528 13.896 2.376 16.56-5.328.432-1.296.216-2.808.648-3.168 1.872-1.8 4.464 3.888 4.032 6.264-1.08 6.48-9.36 10.224-15.336 10.152-3.672-.072-8.712-.792-15.552-4.032-6.12-2.952-13.392-9.792-16.92-21.744-2.304-7.992-2.448-26.568 8.64-28.368 6.984-1.08 7.632-1.296 7.344 3.384M308.016 499.962c.288-.144.504-.288.72-.36.216-.144.36-.216.504-.288.504-.432.864-1.008 1.152-1.8a5.35 5.35 0 0 0 .072-2.376c-.072-.576-.432-1.512-.936-2.736-2.088-4.752-5.544-6.48-10.368-7.488-.576-.072-1.296 0-1.944.216-2.952.72-3.6 2.592-2.952 5.688.36 1.656.864 2.88 1.512 3.744 1.8 2.592 5.688 4.824 8.712 5.4 1.224.216 2.448.216 3.528 0m-16.128 0c-3.384-4.176-3.96-11.088-1.512-15.84.648-1.296 1.296-2.16 1.944-2.664.072 0 .216-.144.504-.288.36-.144.648-.36.864-.576 5.688-4.176 14.832-1.008 18.72 4.32.72.936 1.296 2.088 1.8 3.384 1.368 3.456 1.296 10.008-1.224 13.32-.648.864-1.368 1.656-2.232 2.304l-.288.216c-6.048 4.32-14.328 1.08-18.576-4.176m28.008-5.472q-.54-.864-.216-2.16c.144-.432.144-.792.216-1.08 0-.36-.144-.936-.504-1.584-1.368-2.88-7.416-11.232-9.864-13.392a4.5 4.5 0 0 0-1.008-.648c-.072 0-.432.072-1.152.144-.792.072-1.368-.216-1.872-.936-.432-.504-.504-1.08-.288-1.8.216-.648.72-1.224 1.44-1.801.36-.215 1.224-.719 2.664-1.439 3.24-1.656 3.96-3.384 6.48-5.184.72-.576 1.224-.864 1.656-.936s1.008 0 1.728.36c1.44.504 4.32.504 5.184 1.656.288.432.432 1.08.432 1.872.072.864-.072 1.368-.36 1.584-.648.432-5.76-.648-7.56.144-.504.216-1.08.576-1.728 1.008-.504.36-.72.935-.576 1.656s.648 1.728 1.512 2.88c.072.072.216.288.432.576.144.288.36.576.504.72.504.72.936 1.152 1.224 1.368.288.144.648.144 1.08-.216.216-.144.36-.432.36-.792 0-1.224-.504-1.728.936-2.736.432-.36 1.008-.36 1.656-.072 1.728.648.792.144 1.8 1.44 1.872 2.304 3.672 3.672 1.224 5.472q-.432.324-1.296.216c-.504-.072-.936-.216-1.224-.504-.864-.72-1.368-.72-1.44.936-.072.288.072.576.36.936l.576.864c.144.144.288.36.432.576s.216.36.288.432c.792 1.152 1.512 1.8 2.088 2.088 1.512.792 3.528-1.872 4.464-2.736 1.8-1.872 1.224-4.104 2.808-5.256.432-.288.792-.36 1.224-.288 1.944.72 2.232 4.248 1.872 5.832-.648 2.664-.36 2.736-2.448 3.456-.36.144-.576.216-.792.36-1.872.504-5.76 4.032-7.344 5.76-.504.576-.864.936-1.224 1.152-.792.576-1.512.936-2.16.936s-1.152-.288-1.584-.864m-76.392 66.888-22.536-31.968c-2.52-3.6-1.368 1.152-4.824-2.088-2.304-2.16 0-4.608-.288-4.968 1.584-1.224 1.08-8.496 3.384-9.288 2.592-.936 4.248 7.344 5.4 8.928l20.88 28.584c1.872 2.52 4.392 7.056 7.992 4.752l19.296-12.672c2.952-1.44 4.32-10.008 7.488-7.416.792.72 1.08 3.456.936 5.688-.504 10.008-2.232 4.464-5.112 6.48l-19.872 14.04c-1.872 1.296-8.064 6.264-9.648 5.76-2.448-.648-2.232-4.68-3.096-5.832" style="stroke:none;fill:#fff"></path><path d="M248.256 546.474q-.54-.864-.216-2.16.216-.648.216-1.081c.072-.359-.144-.935-.432-1.583-1.368-2.88-7.488-11.232-9.936-13.392-.36-.288-.72-.504-1.008-.576 0-.072-.432 0-1.152.072s-1.368-.216-1.872-.936c-.36-.504-.504-1.08-.288-1.728.216-.72.72-1.296 1.44-1.872.36-.216 1.224-.72 2.664-1.44 3.24-1.656 3.96-3.384 6.48-5.184.72-.504 1.296-.864 1.656-.936.432-.072 1.008 0 1.8.36 1.368.504 4.248.504 5.112 1.656.288.432.432 1.08.504 1.872 0 .864-.144 1.368-.432 1.584-.648.432-5.688-.648-7.56.144-.504.216-1.08.576-1.728 1.008-.504.36-.648.936-.504 1.656.144.792.648 1.728 1.512 2.88 0 .072.144.288.36.576s.36.576.504.72c.504.72.936 1.152 1.224 1.368q.432.324 1.08-.216c.288-.144.36-.432.36-.792.072-1.224-.432-1.728 1.008-2.736.432-.36.936-.36 1.656-.072 1.656.648.72.144 1.728 1.44 1.944 2.304 3.672 3.744 1.296 5.472q-.432.324-1.296.216c-.576-.072-1.008-.216-1.296-.504-.864-.72-1.368-.72-1.44.936 0 .288.072.576.36.936l.576.864c.144.144.288.36.432.576s.288.36.36.504c.792 1.08 1.44 1.728 2.016 2.016 1.512.792 3.528-1.872 4.464-2.736 1.8-1.872 1.224-4.104 2.808-5.256.432-.288.864-.36 1.224-.216 1.944.648 2.232 4.176 1.872 5.76-.576 2.664-.36 2.736-2.448 3.456-.36.144-.576.288-.792.36-1.8.504-5.76 4.032-7.344 5.76-.504.576-.864.936-1.152 1.152-.864.576-1.584.936-2.232.936-.576 0-1.152-.288-1.584-.864" style="stroke:none;fill:#fff"></path><path d="M285.264 370.002c-1.8-9.648-4.608-19.44-8.496-29.16l-17.424 4.464c2.736 8.496 4.608 16.92 5.544 25.128zm-.936 51.408c2.52-9.72 3.6-20.376 3.168-31.464-.144-3.456-.36-6.912-.792-10.44l-21.096.504c.432 12.816-1.44 24.912-5.688 35.568zm-14.112 29.88a79.3 79.3 0 0 0 10.296-18.216l-11.88-2.952c-1.296 4.032-2.088 8.064-2.16 12.024-.072 3.456.504 6.912 1.944 10.368zm-5.472 3.96c-2.016-4.392-2.808-8.784-2.736-13.176 0-4.392.936-8.712 2.304-13.032l-9.936-2.52a60.2 60.2 0 0 1-14.112 15.768c-5.688 4.464-11.952 7.776-18.72 9.936l.072 10.224c4.464-.216 8.928-.072 13.176.936 4.032.936 7.848 2.52 11.376 5.184zm-43.056 23.976a86.7 86.7 0 0 0 14.904-3.672l5.76-4.176c-2.736-1.8-5.544-2.952-8.568-3.672-3.816-.864-7.92-1.008-12.168-.72zm-53.64-6.84c3.312 1.224 6.696 2.304 10.008 3.312 10.656 3.024 21.168 4.535 31.392 4.464l.072-25.128c-11.376 1.512-23.544.504-35.928-3.024zm-35.136-18.936c8.496 6.12 17.352 11.232 26.28 15.264l5.328-19.656c-7.776-2.88-15.552-6.696-23.112-11.448z" style="stroke:none;fill:#b68251"></path><path d="M88.416 248.682c-21.24 16.632-31.176 43.848-30.096 74.304 1.152 30.672 13.536 64.584 36.864 94.392C105.48 430.41 117 441.642 129.24 450.786l8.424-15.552c-13.536-9-26.424-20.736-37.656-34.992-20.232-25.848-31.176-55.08-32.616-81.432-1.44-26.64 6.84-50.328 25.272-64.8 18.432-14.4 43.416-16.848 68.976-9.072 25.2 7.704 50.976 25.416 71.208 51.192 11.232 14.328 19.584 29.664 25.056 44.928l17.136-4.464c-5.976-14.04-14.112-27.936-24.408-41.04-23.328-29.808-53.28-49.896-82.8-58.392-29.304-8.352-58.104-5.184-79.416 11.52m217.008 305.64 25.776 32.904 20.592-16.128-25.344-32.256z" style="stroke:none;fill:#b68251" data-source="https://football-logos.cc"></path><!-- source: https://football-logos.cc --></svg>