<svg xmlns="http://www.w3.org/2000/svg" version="1.2" viewBox="139.5 108.8 312.8 622.8"><!-- Source: https://football-logos.cc --><style data-source="https://football-logos.cc">.s0{fill:#231f20}.s1{fill:#fefefe}.s2{fill:#9a8754}.s3{fill:#e02922}</style><g id="321353356351 1" data-source="https://football-logos.cc"><g id="<Group>"><path id="<Compound Path>" fill-rule="evenodd" d="M320.6 108.8c.9 0 1.8.4 2.4 1.1s.8 1.6.7 2.5L321 132c-.2 1.5-1.5 2.7-3.1 2.7h-5.1c.4 2.1.7 4.2 1 5.4 7.1.4 14.2 1.1 21.2 1.9.5-1.1 1.1-2.7 1.9-4.6-2.1-.4-5.1-1-5.1-1-1.4-.3-2.5-1.6-2.5-3.1v-.2l1.2-19.7c0-.9.5-1.7 1.2-2.3.7-.5 1.6-.7 2.5-.6l11 2.2c1.5.3 2.6 1.6 2.6 3.1l-.1.6s-.6 3.3-1.1 5.5c.2 0 .9.1 1 .2.4-2.2 1.1-5.5 1.1-5.5.3-1.7 2-2.8 3.7-2.5l12.1 2.4c.8.2 1.5.7 2 1.4l.5 1.7v.6s-.7 3.4-1.1 5.5c.4.1.5.1.9.2.5-2.2 1.1-5.5 1.1-5.5.4-1.7 2-2.8 3.7-2.4l11 2.2c.9.1 1.7.7 2.2 1.5.4.8.5 1.7.2 2.6l-6.5 18.6c-.5 1.5-2 2.4-3.6 2.1 0 0-2.8-.6-5-1 0 1.7 0 3.1-.1 4.5 7.6 1.9 15.2 4 22.5 6.4.7-.9 1.3-1.7 2.1-2.8l-1.2-.6c-1.1-.5-1.8-1.7-1.8-2.9v-.7l4.5-19.3c.2-.9.8-1.7 1.6-2.1.9-.4 1.9-.5 2.7-.1l11.1 5c1.1.5 1.8 1.6 1.8 2.8l-.2 1.3s-1.5 3.3-2.4 5.3c1.2.5 1.7.8 2.8 1.3 1-1.9 2.5-5 2.5-5 .8-1.6 2.6-2.2 4.2-1.5l10.4 4.9c.8.3 1.4 1 1.7 1.9.2.8.1 1.7-.3 2.5l-9.5 16.9c-.8 1.5-2.6 2-4.1 1.4 0 0-.4-.3-.8-.4-1.4 2.5-20.9 37.5-21.7 38.9 1 1.5 1.6 3.2 1.6 4.8q0 1.7-.8 3.3c-.8 1.9-2.3 3.3-4.2 4-1.8.7-3.9.7-6.4.1-.5 1.2-.9 2.3-1.4 3.5.5.5 1 1.2 1.2 2q.3.8.3 1.6c0 1.2-.4 2.5-1 3.6l-.2.5c-1.1 2-3 3.3-4.9 3.5-.7 1.6-2.2 5.4-2.2 5.4-.9 2.3-1.3 3.6-2.4 5.8q-.5 1.2-1.3 2.2c-7.5 10-35 17.1-69.2 18.2 11.4 7.8 37.1 22 74 23.3 46.3 1.6 68.4-11.2 68.6-11.3l4.4-2.7.3 5.2c.1.2.2 3.4.2 9.1 0 25.7-3.3 102.1-38.7 176-24.6 51.1-53.7 89.2-74.2 112.5 4 5.3 12.3 16.4 19.1 26.4 7.2 10.3 9.7 18.5 9.7 24.9 0 6.5-2.6 11.2-5.7 14.5-3.6 3.6-8.9 6.3-15.8 8.1v22.1c0 1.3-.8 2.5-2 2.9-1.2.5-2.6.2-3.5-.7 0 0-11.4-11.9-12.5-13h-22.2v56.2l13 12.5c.7.6 1 1.4 1 2.2l-.2 1.2c-.5 1.2-1.7 2-2.9 2h-42.9c-1.3 0-2.4-.8-2.9-2l-.3-1.2c0-.8.4-1.6 1-2.2 0 0 11.9-11.5 13.1-12.5v-56.2h-22.3c-1.1 1.1-12.5 13-12.5 13-.9.9-2.2 1.2-3.4.7-1.2-.4-2-1.6-2-2.9v-22.1c-6.9-1.8-12.3-4.5-15.8-8.1-3.1-3.3-5.8-8-5.8-14.5 0-6.4 2.6-14.6 9.7-24.9 7-10.1 15.7-21.8 19.2-26.4-20.5-23.3-49.7-61.4-74.2-112.5-35.5-73.9-38.8-150.3-38.8-176 0-5.7.2-8.9.2-9.1l.3-5.2 4.5 2.7c.2.1 22.2 12.9 68.6 11.3 36.8-1.3 62.5-15.5 74-23.3-34.6-1.1-62.1-8.3-69.4-18.4l-1.1-1.9-1.3-3-.1-.3s-2.5-6.1-3.3-8c-1.9-.2-3.7-1.5-4.8-3.5l-.3-.5c-.6-1.1-.9-2.4-.9-3.5 0-1.5.5-2.9 1.4-3.8-.4-1.2-.8-2.1-1.4-3.4-2.4.6-4.6.6-6.4-.1-1.9-.7-3.3-2.1-4.2-4q-.7-1.6-.7-3.3c0-1.6.5-3.3 1.5-4.8-.8-1.5-20.2-36.4-21.6-38.9-.4.1-.9.4-.9.4-1.5.6-3.2.1-4-1.4l-9.6-16.9c-.4-.8-.5-1.7-.2-2.5.3-.9.9-1.6 1.6-1.9l10.5-4.9c1.5-.7 3.4-.1 4.1 1.5 0 0 1.6 3.1 2.5 5 1.1-.5 2.6-1.2 2.8-1.3-.9-2.1-2.3-5.3-2.3-5.3l-.3-1.3c0-1.2.8-2.3 1.9-2.8l11-5c.9-.4 1.9-.3 2.7.1.9.4 1.5 1.2 1.7 2.1l4.4 19.3q.1.4.1.7c0 1.2-.7 2.4-1.8 2.9 0 0-.7.3-1.2.5.9 1.3 1.4 2.1 2 2.9 7.4-2.4 14.9-4.5 22.5-6.4 0-1.4 0-2.7-.1-4.5l-5 1c-1.5.3-3.1-.6-3.6-2.1l-6.4-18.6c-.3-.9-.2-1.8.2-2.6.5-.8 1.2-1.4 2.1-1.5l11-2.2c.9-.2 1.7 0 2.4.4.7.5 1.2 1.2 1.3 2 0 0 .7 3.4 1.1 5.5l1-.2c-.5-2.2-1.1-5.5-1.1-5.5l-.1-.6.6-1.7c.4-.7 1.2-1.2 2-1.4l12.1-2.4c1.7-.3 3.3.8 3.7 2.5l1 5.5c.2-.1.9-.2 1-.2-.4-2.2-1.1-5.5-1.1-5.5v-.6c0-1.5 1-2.8 2.5-3.1l11-2.2c.9-.1 1.8.1 2.6.6.7.6 1.1 1.4 1.2 2.3l1.1 19.7v.2c0 1.5-1 2.8-2.5 3.1 0 0-2.9.6-5 1 .7 1.8 1.3 3.3 1.8 4.6 7.1-.9 14.2-1.5 21.3-1.9.3-1.5.6-3.4 1-5.4H274c-1.6 0-2.9-1.2-3.2-2.7l-2.7-19.6c-.1-.9.2-1.8.8-2.5s1.4-1.1 2.3-1.1h11.3c1.7 0 3.1 1.4 3.1 3.2v5.5h1V112c0-1.8 1.4-3.2 3.2-3.2h12.3c1.7 0 3.1 1.4 3.1 3.2v5.5h1V112c0-1.8 1.4-3.2 3.2-3.2zM278 607.6h9.4c-6-5.2-15.8-14.3-27.7-27.2-5.5 9.2-7.6 15.6-7.6 19.3 0 1.4.3 2.4.7 3.1 3 4.9 10.4 4.8 25.2 4.8m26.4 0h9.4c14.8 0 22.2.1 25.2-4.8.4-.7.7-1.7.7-3.1 0-3.7-2.1-10.1-7.6-19.3-11.9 12.9-21.7 22-27.7 27.2" class="s0"></path><path id="<Path>" d="M297.1 286.5V579c22-21.1 61.4-64.6 93-130.5 26.5-55.1 33.6-112.3 35.5-142.3-14.7 2.7-30.8 3.9-47.8 3.3-38.1-1.4-66.3-14.8-80.7-23.3z" class="s1"></path><path fill-rule="evenodd" d="M372.7 408.8c-1.9 1.7-2.9 4.2-3.4 6.7 5.9-.9 11.3-2.4 15.6-4.3 6.9-3.2 10.7-7.8 10.7-7.8q.75-.9 1.8-.9h2.2c.8 0 1.5.5 1.9 1.2.5.7.5 1.5.1 2.2l-7.3 12.8c-.4.6-1.1 1-1.9 1-.7.1-1.5-.3-2-.9l.2.2c-.2-.1-.9-.3-2.3.3-6 2.9-12.7 5-19.6 6.2q-.1 4.6-.7 8.6c2.1.6 4.1 1.8 6.1 3.4.4.4.7 1 .7 1.6.2 4.8.1 7.9-.6 8.9 0 0-2.2-2.8-5.8-4.8q-1-.6-2.5-1-1.4 3.8-3.5 6.7c.9 1.7 2.6 3.3 5.7 5.3 3.8 2.5 6.8 4.6 7.4 7.9q.2.7.2 1.3c0 1.8-.8 3.8-2.3 5.9-3.5 5.1-8.4 12-10.4 16.1-1 2.1-2.2 4.1-4.4 4.6s-4.3-.7-6.8-2.7c-4.1-3.3-13.3-7-21.7-3.9-6.3 2.3-11.5 7.4-11.2 9.8.1.9 1.5 1.6 3.8 2 1.2.1 2 1.1 2 2.2v3.7c0 .6-.3 1.2-.7 1.7-.4.4-1 .6-1.6.6-.4 0-9.1-.2-11.3-6.5q-.6-1.6-.6-3.4c0-5.6 4.3-12.6 13.7-17.4q3.3-1.65 6.6-2.4v-14.5c-18.9-5-19-26.8-19-37.4v-8.3c-7.2-6-11-13.4-11-21.2 0-8.3 4.4-16.2 12.4-22.4 2.5-11 8.4-17.8 17.6-20.3v-19.2c0-1.2 1.1-2.2 2.3-2.2h5.7c1.3 0 2.3 1 2.3 2.2v18.3c6.4.7 11.7 3.8 16.4 7.2.1-.4.1-1 .2-2 .1-1.1 1-2.1 2.2-2.1l3-.2c.7 0 1.4.3 1.8.9.4.4.6.9.6 1.4q0 .3-.1.5c-.3 1.2-.5 2.6-.6 3.9 7.7 1 15.2 3 21.8 6 3.5 1.6 6.3 2.8 7.2 3h.1-.1.1c-.1-.2-.1-.3-.1-.5 0-.5.1-1 .4-1.4.5-.6 1.2-.9 2-.9l2.7.1c1 .1 1.9.9 2.1 1.9l3.3 16.1c.1.7-.1 1.4-.5 2-.5.5-1.2.8-1.9.8l-2.5-.2c-.8 0-1.5-.4-1.9-1.1-4.1-6.9-6.2-7.8-13.2-10.8 0 0-.2-.1-.2-.2-5.1-2.3-11.9-3.9-19.7-4.6.1 4.7.6 8.4.6 8.4v.3c0 .6-.2 1.1-.5 1.5-.5.5-1.1.8-1.7.8h-3c-1.2 0-2.2-.9-2.3-2 0-.1-.6-5.3-1.9-9.5h-.5c-4.7 0-9.3.5-13.8 1.3v46c4.5.8 9.1 1.3 13.8 1.3 1.7 0 3.3-.1 5-.2-.6-1.3-2.1-1.8-5.7-2.7-5.3-1.5-8.1-4-9.3-5.4-1.3-1.4-1.6-4.2-1.6-4.2s3.4.1 6.8.4c8.7.8 18 .3 21.7-.2 4.4-.5 4.8-.4 4.8-.4s-.6 1.9-3.9 4.9m-31.6 51.3v13.1c3.3.6 6 1.6 8.1 2.6l1.7.8c3.9 1.9 5.4 2.6 8.1-1.2l2.2-3.1c1.7-2.4 3.8-5.3 4.5-6.4.9-1.5 1.1-2.2 1.1-2.5v-.2c-.1-.3-.5-.6-.8-.8l-.6-.4c-3.3-1.9-6.6-4-9-7.1-4.4 3.1-9.5 4.8-15.3 5.2m0-10.3c4.5-.4 8.3-1.9 11.3-4.8l.7-.7c.2-3.8 2-7.1 5.1-9 .9-2.6 1.4-5.6 1.8-8.7-1.7.1-3.4.3-5.1.3-4.7 0-9.3-.5-13.8-1.2zm-10.2-1.5v-24.9c-3.1-1-6-2.2-8.8-3.5v1.9c0 15.8 2.4 23.5 8.8 26.5m-8.2-72.3c-.4 2.4-.5 5-.6 8.1v24.2q3.9 2.4 8.8 4.2v-40.4c-3 1.1-5.8 2.4-8.2 3.9m3.8-12.9c1.5-.6 2.9-1.1 4.4-1.6V360c-1.6.8-3 2-4.4 3.1M312.1 398v-11.6c-.9 1.9-1.5 3.8-1.5 5.8 0 1.9.6 3.9 1.5 5.8m29.1-39.9.2 1.2s2.6-.4 4.5-.4c0 0-1.7-.6-4.7-.8" class="s0"></path><path fill-rule="evenodd" d="M213.8 303.8c39.8-1.5 68.3-16.2 82.1-25.1 13.8 8.9 42.3 23.6 82.1 25.1 19.8.7 37.8-.9 53.7-4.7-1.4 31.9-8 92.8-36.4 151.9-35.4 73.6-80.7 119.9-99.4 137-18.6-17.1-64-63.4-99.3-137-28.4-59.1-35-120-36.4-151.9 15.9 3.8 33.9 5.4 53.6 4.7m81.5-20.7c-13.6 8.4-42.2 22.7-81.4 24.1-17.4.6-33.7-.6-48.6-3.5l-1.5-.3.1 1.5c2.1 36.4 10.1 91.1 35.8 144.6 32.8 68.3 73.9 112.7 95.4 133.1l.8.7.8-.7c21.6-20.4 62.7-64.8 95.5-133.1 25.7-53.5 33.6-108.2 35.7-144.6l.1-1.5-1.4.3c-14.9 2.9-31.3 4.1-48.7 3.5-39.2-1.4-67.8-15.7-81.4-24.1l-.6-.3z" class="s2"></path><path fill-rule="evenodd" d="M213.2 287.8c48.2-1.8 77.9-24.8 82.7-28.8 4.9 4 34.6 27 82.7 28.8 41.4 1.4 63.4-8 69.3-11 .1 1.5.1 4 .1 7.3 0 25.6-3.2 100.8-38.3 173.8-45.6 94.9-106.7 145.7-113.8 151.3-7-5.6-68.2-56.4-113.8-151.3-35-73-38.3-148.2-38.3-173.8 0-3.3.1-5.8.1-7.3 5.9 3 27.9 12.4 69.3 11m82-23.9c-10.1 7.7-38.4 25.7-81.8 27.3-31.8 1.1-52.7-4.1-64.6-8.6l-1.5-.6-.1 2.1c0 28 3.7 100.9 38 172.3 41.1 85.5 94.6 134.7 110 147.7l.7.7.8-.7c15.4-13 68.8-62.2 109.9-147.7 34.3-71.4 38-144.3 38-172.3V282l-1.5.6c-12 4.5-32.8 9.7-64.6 8.6-43.4-1.6-71.7-19.6-81.9-27.3l-.7-.5z" class="s2"></path><path d="M317.8 611.9c13.8 0 21-.5 24.9-6.8 4.2-6.8-2.1-19.5-8.5-29.4l-.1-.4q.5-.6 1.1-1.3l.2.1c3.1 4.2 12.3 16.4 19.6 27 10.3 14.9 11.8 26.3 4.4 34-3.7 3.8-9.4 5.9-14.8 7.2l.1-.5v-16.3c0-.5-.3-.9-.8-1.1-.4-.2-.9-.1-1.2.3 0 0-12.5 13-13.1 13.6h-25.1v-13.6c.6-.6 10.5-10.1 13.1-12.6zm-43.8 0c2.1 2 12.8 12.2 13.4 12.8v13.6h-25.1c-.7-.6-13.1-13.6-13.1-13.6-.4-.4-.9-.5-1.3-.3s-.7.6-.7 1.1v16l.1.8c-5.4-1.2-11.2-3.4-14.8-7.2-7.4-7.7-6-19.1 4.3-34 7.3-10.5 16.3-22.5 19.6-26.8l.2-.3 1.2 1.4-.2.3c-6.4 9.9-12.6 22.6-8.4 29.4 3.8 6.2 11 6.8 24.5 6.8z" class="s2"></path><path d="m314.5 611.9-11.9 11.5c-.3.2-.4.5-.4.8v15.3c0 .6.5 1.1 1.2 1.1h26.7c.3 0 .6-.1.8-.3 0 0 8.6-9 11.5-12v37.2c-2.9-3-11.5-12-11.5-12-.2-.2-.5-.3-.8-.3h-26.7c-.7 0-1.2.5-1.2 1.1V715c0 .3.1.6.4.8l11.9 11.5h-37.2c3-2.9 12-11.5 12-11.5.2-.2.3-.5.3-.8v-60.7c0-.3-.1-.6-.3-.8s-.5-.3-.8-.3h-26.7q-.45 0-.9.3s-8.6 9-11.4 12v-37.2c2.8 3 11.4 12 11.4 12q.45.3.9.3h26.7c.6 0 1.1-.5 1.1-1.1v-15.3c0-.3-.1-.6-.3-.8 0 0-9-8.6-12-11.5z" class="s3"></path><path fill-rule="evenodd" d="M294.7 416.8h-.3v3c0 .4.1.7.3 1l.1.1v11.7h-.2c-4.5-.6-8-4.6-8-9.3v-15.9h8.2v9.4zm-5 7.1v3.1c0 .8.7 1.5 1.6 1.5.8 0 1.5-.7 1.5-1.5v-3.1zm0-14.3v3c0 .9.7 1.6 1.6 1.6.8 0 1.5-.7 1.5-1.6v-3zm-10.4-2.2v15.9c0 5.2-4.2 9.4-9.3 9.4s-9.3-4.2-9.3-9.4v-15.9zm-10.9 9.4v3c0 .9.7 1.6 1.6 1.6s1.6-.7 1.6-1.6v-3zm-4.6 7.1v3.1c0 .8.7 1.5 1.5 1.5.9 0 1.6-.7 1.6-1.5v-3.1zm0-14.3v3c0 .9.7 1.6 1.5 1.6.9 0 1.6-.7 1.6-1.6v-3zm9.3 14.3v3.1c0 .8.7 1.5 1.6 1.5.8 0 1.5-.7 1.5-1.5v-3.1zm0-14.3v3c0 .9.7 1.6 1.6 1.6.8 0 1.5-.7 1.5-1.6v-3zm21.6 42.8h-.3v3c0 .4.1.8.3 1.1h.1v11.8h-.1c-4.6-.7-8.1-4.6-8.1-9.4V443h8.2v9.4zm-5 7.2v3c0 .9.7 1.6 1.6 1.6.8 0 1.5-.7 1.5-1.6v-3zm0-14.3v3c0 .9.7 1.6 1.6 1.6.8 0 1.5-.7 1.5-1.6v-3z" class="s2"></path><path d="M180 333c-.2-.4-.2-.9-.2-1.6v-7.3c0-.8.7-1.5 1.5-1.5h5.5c.8 0 1.4.7 1.4 1.5v7.3h6.2v-7.3c0-.8.6-1.5 1.5-1.5h7.5c.8 0 1.5.7 1.5 1.5v7.3h6.1v-7.3c0-.8.7-1.5 1.5-1.5h5.5c.8 0 1.5.7 1.5 1.5v7.3c0 .7-.1 1.2-.3 1.7-.3.7-.9 1.3-2.4 1.7-4.4 1.1-10.3 1.8-17.2 1.8-6.8 0-12.6-.7-17.1-1.8-1.4-.4-2.1-.9-2.5-1.8" class="s2"></path><path fill-rule="evenodd" d="M294.8 385.2V397c-4.6-.6-8.2-4.5-8.2-9.4v-15.9h8.2v9.4h-.4v3q0 .6.3 1zm-5.1 3.1v3c0 .9.7 1.6 1.6 1.6.8 0 1.5-.7 1.5-1.6v-3zm0-14.3v3c0 .9.7 1.6 1.6 1.6.8 0 1.5-.7 1.5-1.6v-3z" class="s2"></path><path d="M199.6 365.6v.3h-19.2c-.9 0-1.5-.6-1.5-1.4v-8.6c0-.8.6-1.7 1.3-2.1 1.3-.8 2.7-1.5 5.7-2.2 4-.9 8.7-1.3 13.7-1.3 5.1 0 9.8.5 13.9 1.4 3.1.7 4.4 1.4 5.6 2.1.7.4 1.3 1.3 1.3 2.1v8.6c0 .8-.7 1.4-1.5 1.4h-8.2v-8.1c0-2.9-2.5-5.4-5.6-5.4-3 0-5.5 2.5-5.5 5.6zm11.8-15.6c-.5-.4-.9-1.2-.9-1.9v-1.9h-21.7v1.9c0 .7-.4 1.4-.9 1.9l-.3.2c3.6-.6 7.7-1 12-1 4.4 0 8.5.4 12.1 1zm-1.1-4.9h-21.5v-4.2c0-.8-.4-1.7-1-2-.5-.3-4.6-2.9-4.6-2.9l.3.1c4.5 1 10.1 1.6 16.1 1.6 6.1 0 11.6-.6 16.1-1.6l.4-.1s-4.1 2.6-4.7 2.9c-.5.3-.9 1.2-.9 2v4.2zm84.5-22.7c-6.3 0-11.8-.7-16-1.8-1.4-.4-2.1-.9-2.5-1.8-.2-.4-.2-.9-.2-1.6v-7.3c0-.8.7-1.5 1.5-1.5h5.4c.9 0 1.5.7 1.5 1.5v7.3h6.2v-7.3c0-.8.6-1.5 1.4-1.5h2.7v13.7zm0 12.7V332h-9.7v1.9c0 .7-.4 1.4-.9 1.9l-.4.2c3.3-.5 6.9-.9 10.8-.9zm0 1v15.6h-18.2c-.8 0-1.4-.6-1.4-1.4v-8.6c0-.8.6-1.7 1.3-2.1 1.3-.8 2.7-1.5 5.7-2.2 3.6-.8 7.9-1.2 12.3-1.3" class="s2"></path><path d="M294.6 276.9c-13.7 8.8-41.7 23.2-80.9 24.6-20.1.7-38.4-1-54.5-4.9l-1.4-.4v1.5c1.3 31.7 7.7 93.9 36.7 154.3 35.7 74.2 81.5 120.9 100.1 137.9l.2.2v10.7l-.2-.2c-17.5-15.2-68.1-63.5-107.3-145.2-33.7-70-37.7-141.5-37.8-170.1 12.4 4.5 33 9.3 63.9 8.2 41.6-1.5 69.5-17.9 81.2-26.3l.2-.1v9.6z" class="s1"></path><path fill-rule="evenodd" d="M294.6 406.3h-9.1v17c0 5.4 4 9.8 9.1 10.5h.2v8.1h-9.3v17c0 5.4 4 9.9 9.2 10.5l.1.1v6.8c-22.4-.6-40.5-19.3-40.5-42.2v-70.3h40.5v6.8h-9.3v17c0 5.4 3.9 9.8 9 10.5l.3.1v8.1zm-35 0v17c0 5.8 4.6 10.6 10.4 10.6 5.7 0 10.4-4.8 10.4-10.6v-17z" class="s1"></path><path d="M294.8 330.9h-9.7v-4.2c0-.8-.5-1.7-1-2s-4.6-2.9-4.6-2.9l.3.1c4.2.9 9.4 1.5 15 1.6v7.1z" class="s2"></path><path fill-rule="evenodd" d="M219.9 235.9c0-9.7 30.6-20.1 76-20.1 45.5 0 76 10.4 76 20.1s-30.5 20.2-76 20.2c-45.4 0-76-10.5-76-20.2m22.3-8.2c-6 1.7-9.4 4.6-9.5 7.9s3 6.3 8.5 8.2c10.1 3 27.7 6.5 54.7 6.5 27.1 0 44.7-3.5 54.7-6.5 5.6-1.9 8.7-4.9 8.6-8.2s-3.6-6.2-9.6-7.9c-9.9-2.8-27.3-6.2-53.7-6.2s-43.8 3.4-53.7 6.2" class="s2"></path><path d="M241.9 241.6c-4.4-1.5-7-3.7-7-5.9.1-2.2 3.1-4.4 7.9-5.8 9.8-2.8 27-6.1 53.1-6.1 26.2 0 43.3 3.3 53.1 6.1 4.9 1.4 7.8 3.6 7.9 5.8s-2.5 4.4-7 5.9c-8 2.4-25.8 6.5-54 6.5s-45.9-4.1-54-6.5M201 209.8q-1.2-.5-1.8-1.7c-1.8-4.1 4.2-7.4 6.2-8.3 4.5-2.2 9.6-4.2 16.1-6.3 14.8-4.8 44.4-10 74.4-10s59.6 5.2 74.5 10c6.4 2.1 11.5 4.1 16.1 6.3 1.9.9 8 4.2 6.1 8.3q-.5 1.2-1.8 1.7c-1.2.4-3.6.5-8-1.5-4.7-2.2-10.1-4.4-15.4-6.1-14.6-4.8-43.8-9.6-71.5-9.6-27.6 0-56.9 4.8-71.5 9.6-5.2 1.7-10.7 3.9-15.3 6.1-4.5 2-6.9 1.9-8.1 1.5" class="s2"></path><path d="M290.2 205v-.5c0-1.1.9-2.1 2.1-2.1h7.2c1.2 0 2.1 1 2.1 2.1v.5c0 1.2-.9 2.1-2.1 2.1h-7.2c-1.2 0-2.1-.9-2.1-2.1m-79.4 18-.2-.4c-.6-1.2-.5-2.2-.2-2.3l3.5-2c.5-.2 1.1-.3 1.6-.1.6.1 1 .5 1.3 1l.2.4q.3.5.3 1c0 .7-.4 1.5-1.1 1.8l-3.5 2c-.3.1-1.3-.3-1.9-1.4m59.2-19.4c.5 0 1.1.1 1.5.5.4.3.7.8.8 1.4v.5c.2 1.1-.7 2.2-1.8 2.3l-7.2.8c-.6 0-1.1-.1-1.6-.5-.4-.3-.7-.8-.7-1.4l-.1-.5v-.2c0-1 .8-1.9 1.9-2.1zm-29.3 4.7c1.1-.3 2.2.4 2.5 1.5l.2.5c.2 1.1-.4 2.3-1.5 2.6l-7.1 1.8c-.5.1-1.1 0-1.5-.2-.5-.3-.9-.8-1-1.3l-.1-.5q-.1-.3-.1-.5c0-.9.6-1.8 1.6-2zm133.9 12.3q0-.5.2-1l.3-.4c.3-.5.7-.9 1.2-1 .6-.2 1.1-.1 1.6.1l3.5 2c.3.1.5 1.1-.1 2.3l-.3.4c-.6 1.1-1.5 1.5-1.8 1.4l-3.5-2c-.7-.3-1.1-1.1-1.1-1.8m-46-11.5-7.2-.8c-1.2-.1-2-1.2-1.9-2.3l.1-.5c0-.6.3-1.1.7-1.4.5-.4 1-.5 1.6-.5l7.2.8c1 .2 1.8 1.1 1.8 2.1v.7c-.1.6-.4 1.1-.8 1.4-.4.4-1 .5-1.5.5m28.4 5.6-7-1.8c-1.1-.3-1.8-1.5-1.5-2.6l.1-.5c.3-1.1 1.5-1.8 2.6-1.5l7 1.9c.9.2 1.6 1.1 1.6 2q0 .2-.1.5l-.1.5c-.2.5-.5 1-1 1.3-.5.2-1.1.3-1.6.2m-37.7-101.6c-.3 2.2-2.2 15.6-2.4 17.3h-42c-.2-1.7-2-15.1-2.3-17.3h8.7v7.6c0 .6.5 1.1 1.2 1.1h7.3c.6 0 1.1-.5 1.1-1.1v-7.6h10v7.6c0 .6.6 1.1 1.2 1.1h7.3c.6 0 1.1-.5 1.1-1.1v-7.6z" class="s2"></path><path fill-rule="evenodd" d="m308.1 132.7 8.8 48.9v.4q-5.6-.5-11.4-.7l-.1-.1c-.1-1.9-.7-7.2-3.5-11.8-2.3-3.8-3.9-4.3-6-4.3-2 0-3.6.5-5.9 4.3-2.8 4.5-3.4 9.7-3.5 11.7l-.1.2q-5.8.2-11.5.7l.1-.5 8.8-48.8h23.8zm-16.7 10.5c0-1.1-.8-1.9-1.8-1.9h-.8c-1 0-1.9.8-1.9 1.9v5.8c0 1 .9 1.8 1.9 1.8h.8c1 0 1.8-.8 1.8-1.8zm9.2 5.8c0 1 .9 1.8 1.9 1.8h.8c1 0 1.8-.8 1.8-1.8v-5.8c0-1.1-.8-1.9-1.8-1.9h-.8c-1 0-1.9.8-1.9 1.9zm81.9 62-2.4 5.8-1.1-.5c-1-.5-2.2-.7-3.3-.3-1.1.3-2.1 1-2.6 2.1l-.3.4c-1.1 2.1-.3 4.8 1.8 5.9l1.9 1.1-2.8 7-.2.3c-5.1-11-37.3-19.3-77.6-19.3s-72.6 8.3-77.6 19.4l-.2-.5-2.8-6.9.3-.1 1.7-1c2.1-1.1 2.9-3.8 1.7-5.9l-.2-.4c-.6-1.1-1.5-1.8-2.6-2.1-1.2-.4-2.4-.2-3.4.3l-1 .6-2.5-6.2.7-.4c4.6-2.1 10-4.2 15.1-5.9 14.5-4.7 43.4-9.5 70.8-9.5s56.4 4.8 70.8 9.5c5.2 1.7 10.5 3.8 15.1 5.9l.8.4zm-90.2-10.8c-2.4 0-4.3 1.9-4.3 4.4v.4c0 2.5 1.9 4.4 4.3 4.4h7.3c2.4 0 4.4-1.9 4.4-4.4v-.4c0-2.5-2-4.4-4.4-4.4zm-22.6 1.2-7.2.8c-2.4.2-4.1 2.4-3.9 4.8l.1.5c.1 1.2.7 2.2 1.6 2.9.9.8 2.1 1.1 3.2 1l7.2-.8c2.4-.3 4.2-2.5 3.9-4.9l-.1-.5c-.1-1.1-.7-2.2-1.6-2.9s-2-1.1-3.2-.9m-29.6 4.7-7 1.9c-2.4.6-3.8 3-3.2 5.3l.2.5c.2 1.1 1 2 2 2.6s2.2.8 3.3.5l7-1.8c2.3-.6 3.8-3 3.1-5.4l-.1-.4c-.6-2.4-3-3.8-5.3-3.2m78.8-3.8c-.9.7-1.5 1.8-1.6 3l-.1.4c-.2 2.4 1.5 4.6 3.9 4.9l7.2.8c1.1.1 2.3-.2 3.2-1 .9-.7 1.5-1.7 1.6-2.9l.1-.5c.2-2.4-1.5-4.6-3.9-4.8l-7.2-.8c-1.1-.2-2.3.2-3.2.9m27.5 7-.1.4c-.6 2.4.8 4.8 3.1 5.4l7 1.8c1.1.3 2.3.1 3.3-.5s1.8-1.5 2.1-2.6l.1-.5c.6-2.3-.8-4.7-3.2-5.3l-7-1.9c-2.3-.6-4.7.8-5.3 3.2" class="s2"></path><path d="M200.2 159.2q11.6-3.8 23.6-6.7l.3-.1.6 37.1v.7q-1 .2-2 .5l-.2-.3-22.2-30.9zm57-44.2c.1 2.2.9 15.7 1 17.4-1.8.4-39.3 7.8-41.1 8.2-.6-1.6-5-14.4-5.8-16.5 1.8-.3 7.1-1.4 8.6-1.7.4 1.7 1.5 7.4 1.5 7.4.1.6.7 1 1.4.9l7.1-1.4c.3-.1.6-.3.7-.5q.2-.3.2-.6v-.3s-1.1-5.7-1.5-7.4c1.7-.3 8.2-1.6 9.9-1.9.3 1.7 1.5 7.4 1.5 7.4 0 .3.2.5.4.7.3.2.6.2.9.2l7.1-1.5c.6-.1 1-.5 1-1.1q0-.1-.1-.2s-1.1-5.7-1.4-7.4c1.5-.3 6.8-1.4 8.6-1.7" class="s2"></path><path fill-rule="evenodd" d="m250 136.4 18 45.7.2.4q-6 .6-11.6 1.4v-.4c-.7-2.2-2.4-6.5-5.5-9.9-3-3.3-4.7-3.4-6.7-3s-3.5 1.1-5 5.3c-1.4 3.9-1.5 8-1.3 10.5v.5c-4.1.9-7.8 1.7-11.1 2.6v-.5l-.8-47.9.3-.1 23-4.6zM235.6 150c-.2-1-1.1-1.7-2.1-1.5l-.8.2c-1 .2-1.7 1.2-1.5 2.1l1.2 5.7c.2 1 1.1 1.7 2.1 1.5l.8-.2c1-.2 1.7-1.1 1.5-2.1zm10.1 3.9c.2 1 1.2 1.6 2.2 1.4l.8-.1c1-.2 1.6-1.2 1.4-2.2l-1.1-5.7c-.2-1-1.2-1.7-2.2-1.5l-.7.2c-1 .2-1.7 1.2-1.5 2.2zm-68.3 5.3 14.9-6.9.2.1 27.6 38.7.3.4c-4 1.3-7.4 2.5-10.6 3.8l-.2-.1c-1.3-2.1-3.6-5.1-6.8-7.3-3.7-2.5-5.3-2.3-7.2-1.5-.8.4-1.4.8-2 1.4l-.2.2-15.9-28.6zm12.8 12.4c.6.9 1.7 1.2 2.6.6l.7-.4c.8-.5 1.1-1.7.6-2.5l-3.1-5c-.5-.8-1.6-1.1-2.5-.6l-.7.4c-.8.6-1.1 1.7-.6 2.6z" class="s2"></path><path d="M192.1 130.9c.5 2.2 3.6 15.6 3.9 17.1-1.5.7-21.5 10-23.2 10.8-.9-1.5-7.4-13.2-8.4-15 1.6-.7 6.8-3.2 8.3-3.8.7 1.5 3.4 6.8 3.4 6.8.2.5.9.8 1.5.5l8.3-3.9c.4-.2.6-.6.6-1.1v-.4s-2.4-5.5-3.1-7.1c1.5-.6 6.9-3.1 8.7-3.9m120.4 13.4q11.5.6 23 2.1l-.1.3-14 35.3-.1.3-2-.2v-.1l-6.8-37.4zm-55.7 2q11.1-1.4 22.3-2h.3l-6.7 36.9-.1.9q-1 .1-2.1.2l-.1-.3-14-35.6zm77.9-31.3c1.8.3 7 1.4 8.6 1.7-.3 1.7-1.5 7.4-1.5 7.4v.2c0 .6.4 1 .9 1.1l7.2 1.5c.3 0 .6 0 .8-.2.3-.2.4-.4.5-.7 0 0 1.1-5.7 1.5-7.4 1.6.3 8.2 1.6 9.8 1.9-.3 1.7-1.4 7.4-1.4 7.4q-.1.1-.1.3 0 .3.2.6c.2.2.5.4.7.5l7.2 1.4c.6.1 1.2-.3 1.3-.9 0 0 1.2-5.7 1.5-7.4 1.6.3 6.8 1.4 8.6 1.7-.7 2.1-5.2 14.9-5.7 16.5-1.8-.4-39.3-7.8-41.1-8.2.1-1.7.9-15.2 1-17.4" class="s2"></path><path fill-rule="evenodd" d="m365.7 141.5-.9 47.4v.6c-3.3-.9-7-1.7-11.1-2.6l.1-.3c.1-2.5.1-6.6-1.3-10.7-1.6-4.2-3-4.9-5-5.3-2.1-.4-3.7-.3-6.7 3-3.2 3.4-4.8 7.7-5.5 10l-.1.3q-5.6-.8-11.5-1.4l.1-.2 18.1-46 .1.1 23.7 4.7zm-10.6 14.1c-.2 1 .5 1.9 1.5 2.1l.7.2c1 .2 2-.5 2.2-1.5l1.1-5.7c.2-1-.4-1.9-1.4-2.1l-.8-.2c-1-.2-1.9.5-2.1 1.5zm-8-7.5c.2-1-.4-2-1.4-2.2l-.8-.2c-1-.2-2 .5-2.2 1.5l-1.1 5.7c-.2 1 .5 2 1.5 2.2l.7.1c1 .2 2-.4 2.2-1.4z" class="s2"></path><path d="M399.7 130.9c1.8.8 7.3 3.3 8.8 3.9-.7 1.6-3.1 7.1-3.1 7.1q-.1.2-.1.4c0 .5.2.9.7 1.1l8.3 3.9c.6.3 1.2 0 1.5-.5 0 0 2.6-5.3 3.4-6.8 1.4.6 6.7 3.1 8.3 3.8-1 1.8-7.6 13.5-8.4 15-1.7-.8-21.8-10.1-23.3-10.8.4-1.5 3.4-14.9 3.9-17.1" class="s2"></path><path fill-rule="evenodd" d="M338.8 350.8c7.3.1 13 3.8 17.8 7.3 2.1 1.5 3.1 1.1 3.4-4l3-.2c-.5 2.1-.8 4.2-.9 6.4l.6.1c8.3.8 16.2 3 22.7 6 7.6 3.4 8.6 3.8 9.7 2.7 1.2-1.2.8-2.3.8-2.3l2.7.1 3.3 16.2-2.6-.2c-4.6-7.5-7.3-8.7-14.5-11.8-6.2-2.9-14.2-4.5-22.4-5.1l-.6-.1c0 6.3.8 11.3.8 11.3h-3s-.7-6.7-2.5-11.4l-.5-.1h-1.7c-5.5 0-10.7.5-15.6 1.6l-.5.1v49.8l.3.1c4.9 1 10.2 1.6 15.8 1.6q3.9 0 7.8-.3l-.1-.3c-.4-5.6-3.6-5.6-10.2-7.5-4.6-1.3-6.7-4.9-6.7-4.9 13.1 2.5 26.7.3 26.7.3-4.1 3.3-5.4 6.8-5.8 11.7v.3c7.1-.9 13.8-2.5 19.2-5 7.6-3.4 11.6-8.4 11.6-8.4h2.2l-7.3 12.7s-1.3-1.8-5-.3c-6 2.9-13.2 5.2-20.8 6.4v.2c0 4.2-.3 8.1-1 11.7l-.1.3c2.3.3 4.8 1.4 7.2 3.4l.4 5.2s-2-3.9-7.6-4.6q-.5 0-1-.1l-.1.3c-1.1 3.3-2.6 6.3-4.6 8.8l.1.3c1.1 2.5 3.2 4.5 7 7 5.7 3.7 8.8 6.2 4.8 11.9s-8.6 12.3-10.6 16.4c-2 4.2-3.4 4.6-7.7 1.2-4.3-3.5-14.5-7.9-24-4.3-9.6 3.5-19.2 14.3-6.9 16.1v3.7s-7.4-.1-9.2-5c-1.7-4.8 1.6-12.7 12.1-18 2.7-1.4 5.3-2.2 7.7-2.6l.1-.1v-18c-19-3.6-19-25-19-35.6v-9.4l-.3-.2c-6.8-5.5-10.7-12.3-10.7-19.9 0-8.1 4.5-15.4 12.1-21l.2-.6c1.9-8.9 6.6-17.1 17.7-19.4v-20.9h5.7v20zM357 451.6c-4.9 4.2-11.1 6.4-18.2 6.3l.1.2v17.1c3.9.3 7 1.5 9.4 2.6 4.7 2.1 8.2 5 12.6-1.1 1.7-2.5 5.7-8 6.8-9.6 1.7-2.7 2.2-5.1-.6-6.7-3.8-2.3-7.8-4.6-10-8.4zM338.9 423v29.2c6.1 0 11.2-1.8 15.1-5.6l1.1-1.1.2-.3c-.1-3.9 1.9-7 4.8-8.5l.1-.3q1.95-5.25 2.4-12v-.3q-3.8.4-7.7.4c-5.5 0-10.7-.5-15.7-1.4zm-19-6.8v5.5c0 16.2 2.4 27.1 13.3 29.8v-29.9l-.3-.1c-4.7-1.3-9-3.1-12.8-5.2zm12.8-47.3c-4.3 1.4-8.1 3.1-11.4 5.2l-.7.5q-.6 4.1-.7 9.4v25.4c3.6 2.5 8 4.6 13 6.1l.3.1v-46.8zM339 357v4.4l.5-.1c4-.7 8.2-1.2 12.6-1.3l-.5-.4c-3.6-2.1-7.9-3.4-12.5-3.2zm-5.7.2c-5.1 1.4-8.5 4.4-10.7 9.5l.4-.1q4.5-2.2 9.9-3.8h.3V358zm-18.8 22.3c-3.5 3.8-5.6 8.1-5.6 12.7 0 4.4 2 8.6 5.4 12.3v-20.6q0-1.8.1-3.8z" class="s2"></path><path d="M198.4 424.4c-.3-.3-.5-.8-.7-1.4l-2.8-6.8c-.3-.8.1-1.6.9-1.9l5-2.1c.8-.3 1.7.1 2 .9l2.7 6.8 5.7-2.3-2.8-6.8c-.3-.8.1-1.6.9-1.9l7-2.9c.7-.3 1.6.1 1.9.9l2.8 6.8 5.6-2.3-2.7-6.8c-.3-.8.1-1.6.8-2l5.1-2c.8-.3 1.6.1 1.9.9l2.8 6.8c.2.6.4 1.1.4 1.6-.1.7-.4 1.5-1.6 2.4-3.8 2.7-8.9 5.6-15.3 8.2-6.3 2.5-12 4-16.6 4.6-1.4.2-2.3 0-3-.7m30.3 22.9.2.4-17.9 7.1c-.7.3-1.6 0-1.9-.8l-3.2-7.9c-.3-.8 0-1.8.5-2.5.8-1.2 1.9-2.3 4.4-4.1 3.4-2.3 7.7-4.5 12.3-6.4 4.6-1.8 9.2-3.1 13.3-3.9 3.2-.5 4.6-.3 6-.1.8.2 1.8.8 2.1 1.5l3.1 7.9c.3.8 0 1.7-.8 2l-7.7 3.1-.1-.3s-1.8-4.5-2.9-7.3c-1.1-2.7-4.3-4.1-7.1-2.9-2.9 1.1-4.2 4.3-3.1 7.2 1.1 2.8 2.8 7 2.8 7m5.2-18.8c-.6-.2-1.3-.8-1.6-1.4l-.7-1.8h-.1l-19.8 8-.2.1.7 1.8c.3.6.2 1.4-.1 2l-.3.4c3.2-2 6.8-3.8 10.9-5.4 4-1.7 8-2.9 11.6-3.6z" class="s2"></path><path d="m231.1 424.4-19.8 7.9-.2.1-1.6-3.9c-.3-.8-1-1.5-1.6-1.6-.6 0-5.4-.9-5.4-.9h.3c4.6-.8 10-2.3 15.6-4.6 5.6-2.2 10.5-4.8 14.3-7.4l.3-.3s-2.8 4-3.2 4.4c-.4.5-.4 1.5-.1 2.3l1.5 3.9z" class="s2"></path><path fill-rule="evenodd" d="M294.8 478.9v99.3l.1 1c-21.9-21-61.4-64.6-93.2-130.7-26.4-55.1-33.5-112.3-35.4-142.3 14.7 2.7 30.7 3.9 47.7 3.3 38.1-1.4 66.4-14.8 80.8-23.4v20.2h-2.7c-1.9 0-3.6 1.6-3.6 3.6v5.2h-1.9v-5.2c0-2-1.6-3.6-3.6-3.6h-5.4c-2 0-3.6 1.6-3.6 3.6v7.6c0 3.2 1.8 4.4 4.1 5.9l.2.2s3.7 2.2 4.6 2.8c0 .1.1.2.1.3v7.2c0 .1-.1.2-.2.3l-7.2 3.5c-1.5.7-2.6 2.4-2.6 4v8.6c0 1.9 1.7 3.6 3.6 3.6h18.2v7.6H252v72.6c0 24.2 19.1 43.9 42.8 44.5zm-82.2-158.4c-2 0-3.6 1.6-3.6 3.6v5.2h-1.9c-.1-2.1-.1-5.2-.1-5.2 0-2-1.6-3.6-3.6-3.6h-7.5c-2 0-3.6 1.6-3.6 3.6v5.2h-1.9v-5.2c0-2-1.6-3.6-3.6-3.6h-5.5c-1.9 0-3.6 1.6-3.6 3.6v7.6c0 3.2 1.8 4.4 4.1 5.9l.2.2c.1 0 3.7 2.2 4.6 2.8.1.1.1.2.1.3v7.2c0 .1-.1.3-.2.3l-7.2 3.5c-1.4.7-2.5 2.4-2.5 4.1v8.5c0 2 1.6 3.6 3.6 3.6h38.5c2 0 3.6-1.6 3.6-3.6V356c0-1.7-1-3.4-2.5-4.1l-7.2-3.5c-.1 0-.2-.2-.2-.3v-7.2c0-.1.1-.2.1-.3.9-.6 4.6-2.8 4.6-2.8l.2-.2c2.3-1.5 4.1-2.7 4.1-5.9v-7.6c0-2-1.6-3.6-3.6-3.6zm11.4 80.2c-1.8.7-2.7 2.8-2 4.7 0 0 1.2 2.9 2 4.8-.8.4-1 .4-1.8.7-.8-1.9-1.9-4.8-1.9-4.8-.8-1.8-2.9-2.7-4.7-2l-7 2.8c-1.9.7-2.8 2.8-2 4.7 0 0 1.1 2.9 1.9 4.8-.8.4-1 .4-1.8.8-.8-2-1.9-4.9-1.9-4.9-.7-1.8-2.8-2.7-4.7-2l-5 2c-1.9.8-2.8 2.9-2 4.7l2.7 6.8q0 .1.1.2c1.2 3 3.3 3.5 6 4l.2.1c.1 0 4.3.7 5.3.9l.3.3 2.6 6.7v.3l-5.4 5.9c-1.1 1.2-1.5 3.2-.9 4.7l3.2 7.9c.7 1.8 2.8 2.7 4.7 2l35.8-14.3c1.8-.8 2.7-2.9 2-4.7l-3.2-7.9c-.6-1.5-2.2-2.7-3.9-2.8l-8-.6s-.2-.1-.2-.2l-2.7-6.7v-.3c.6-.9 3.1-4.3 3.1-4.3.1 0 .2-.3.2-.3 1.6-2.2 2.8-4 1.6-7q-.1-.1-.1-.3l-2.7-6.7c-.8-1.9-2.9-2.8-4.7-2zm34.3 73.5c-1.6 1.1-2 3.4-.9 5 0 0 1.8 2.5 3.1 4.2-.7.5-.9.7-1.6 1.2-1.2-1.8-3-4.3-3-4.3-1.2-1.6-3.4-2-5-.8l-6.2 4.4c-1.6 1.1-2 3.4-.8 5 0 0 1.8 2.5 3 4.2-.7.5-.8.6-1.5 1.1-1.3-1.7-3.1-4.2-3.1-4.2-1.1-1.6-3.4-2-5-.8l-4.4 3.1c-1.6 1.2-2 3.4-.9 5l4.3 6 .2.2c1.8 2.6 4 2.6 6.7 2.5h.3c0-.1 4.3-.3 5.3-.4.1 0 .3.1.3.2l4.2 5.9v.3l-3.8 7c-.8 1.5-.7 3.5.3 4.8l4.9 6.9c1.2 1.6 3.5 2 5.1.8l31.3-22.4c1.6-1.1 2-3.4.9-5l-5-6.9c-.9-1.4-2.8-2.1-4.4-1.8l-7.9 1.3c-.1 0-.3-.1-.3-.1l-4.2-5.9c-.1-.1-.1-.2-.1-.3.4-1 2-4.9 2-4.9.1-.1.2-.3.2-.3.9-2.6 1.7-4.6-.2-7.2q-.1-.1-.1-.2l-4.3-6c-1.1-1.6-3.4-2-5-.8z" class="s3"></path><path d="M239.1 503.3c-.4-.3-.7-.7-1.1-1.2l-4.3-6c-.4-.6-.3-1.6.4-2.1l4.4-3.1c.7-.5 1.6-.3 2.1.3l4.2 6 5-3.6-4.2-5.9c-.5-.7-.4-1.6.3-2.1l6.2-4.4c.6-.5 1.6-.3 2 .3l4.3 6 5-3.6-4.3-5.9c-.5-.7-.3-1.6.4-2.1l4.4-3.2c.7-.5 1.6-.3 2.1.4l4.2 5.9c.4.6.7 1 .8 1.5.2.7 0 1.6-.9 2.8-3 3.5-7.4 7.5-13 11.5-5.5 4-10.7 6.8-15 8.5-1.3.5-2.2.5-3 0m34.8 15.1.2.3-15.6 11.1c-.7.5-1.6.4-2.1-.3l-4.9-6.9c-.5-.7-.5-1.8-.2-2.6.6-1.3 1.3-2.7 3.4-5 2.7-3.1 6.3-6.2 10.4-9.1s8.2-5.3 12-6.9c3-1.3 4.4-1.4 5.8-1.6.8 0 1.9.3 2.4 1l4.9 6.9c.5.7.3 1.6-.3 2.1l-6.8 4.8-.1-.2s-2.8-4-4.6-6.4c-1.7-2.4-5.1-2.9-7.6-1.2-2.5 1.8-3.1 5.3-1.3 7.8 1.8 2.4 4.4 6.2 4.4 6.2m.6-19.6c-.7 0-1.5-.4-1.9-1l-1.1-1.5h-.1l-17.3 12.4-.2.2 1.1 1.5c.4.6.5 1.4.3 2.1l-.1.4c2.6-2.7 5.7-5.3 9.3-7.9 3.5-2.5 7.1-4.6 10.4-6.2z" class="s2"></path><path d="m270.8 495.5-17.4 12.4-.1.1-2.5-3.4c-.5-.7-1.4-1.2-2-1.1s-5.4.4-5.4.4l.3-.2c4.3-1.8 9.1-4.5 14.1-8.1 4.9-3.5 9-7.2 12.1-10.6l.3-.3s-1.9 4.5-2.2 5c-.2.6 0 1.6.5 2.3l2.4 3.4z" class="s2"></path><path fill-rule="evenodd" d="M414.3 159.5 398.4 188l-.3-.4c-.5-.5-1.2-.9-1.9-1.2-1.8-.8-3.5-1-7.2 1.5-3.1 2.2-5.3 5.1-6.7 7.2l-.2.3c-3.1-1.3-6.6-2.6-10.6-3.9l.2-.4 27.7-38.7.1-.2 14.9 7zm-9.6 7.1c.5-.9.3-2-.6-2.5l-.7-.4c-.8-.6-2-.3-2.5.6l-3.1 4.9c-.5.9-.2 2 .7 2.6l.6.4c.9.5 2 .2 2.6-.6z" class="s2"></path><path d="M368 152.4q11.9 2.9 23.5 6.8h.2l-22.2 31-.3.6q-1-.3-2.1-.7v-.4l.7-37.3z" class="s2"></path><path d="M297.3 276.8c13.6 8.9 41.7 23.3 80.8 24.7 20.1.7 38.5-1 54.5-4.9l1.5-.4-.1 1.5c-1.2 31.7-7.7 93.9-36.7 154.3-35.5 74.1-81.3 120.7-100 137.8l-.2.2v10.8l.2-.2c17.6-15.3 68.1-63.6 107.3-145.2 33.6-70 37.6-141.5 37.7-170.1-12.3 4.5-33 9.3-63.9 8.2-41.6-1.5-69.5-17.9-81.2-26.3l-.1-.1v9.6z" style="fill:#417d2e"></path></g></g><!-- source: https://football-logos.cc --></svg>