<svg xmlns="http://www.w3.org/2000/svg" viewBox="74.89 137.48 445.5 566.93"><!-- Source: https://football-logos.cc --><path d="M130.22 425.841c22.92 64.728 55.835 129.042 96.572 187.263l254.485-252.911c8.931-34.34 17.308-69.461 24.019-104.771-62.778-3.946-107.893-23.096-152.558-51.26z" style="fill:#ffe000;fill-rule:evenodd" data-source="https://football-logos.cc"></path><path d="M507.44 256.266c-6.7 35.252-15.02 70.19-24.051 104.913l-.15.577-256.748 255.16-1.487-2.125c-40.316-57.619-73.372-121.508-96.842-187.785l-.46-1.3 224.728-223.88 1.472.927c12.213 7.701 24.74 14.896 37.712 21.246 36.545 17.888 73.222 27.13 113.819 29.681l2.468.155z" style="fill:none;stroke:#000200;stroke-width:.0011;stroke-linecap:butt;stroke-linejoin:miter;stroke-dasharray:none"></path><path d="M294.709 137.48c29.1 33.842 66 59.804 104.361 80.057 27.605 14.573 69.105 27.805 121.32 27.54-18.819 103.243-46.476 188.218-77.741 256.889-41.886 91.999-92.175 156.092-147.067 202.443-57.991-46.34-106.164-116.09-143.094-197.724-34.246-75.702-59.69-163.9-77.602-262.428 47.516-2.123 88.839-12.73 124.333-29.48 38.986-18.399 71.078-44.202 95.49-77.297m-164.49 288.797c22.921 64.728 55.836 129.042 96.573 187.263l254.485-252.91c8.931-34.341 17.308-69.462 24.019-104.772-62.778-3.945-107.893-23.096-152.558-51.259z" style="fill:#009a2e;fill-rule:evenodd"></path><path d="M304.851 281.49a110.526 110.526 0 0 1 110.526 110.525A110.526 110.526 0 1 1 304.851 281.49" style="fill:#009a2e;fill-rule:evenodd"></path><path d="M304.851 292.399a99.616 99.616 0 0 1 99.617 99.616A99.616 99.616 0 1 1 304.85 292.4m-2.343 331.596-17.152-17.358 5.455-5.39 16.698 10.358.05-.05-10.172-16.807 5.481-5.416 17.153 17.357-3.48 3.439-14.34-14.513-.051.05 10.898 17.914-3.69 3.647-17.647-11.245-.051.05 14.34 14.513zm19.543-19.312-10.66-23.773 4.33-4.28 23.573 11.014-4.124 4.075-4.695-2.434-6.702 6.624 2.276 4.823zm-.23-12.772 4.63-4.575-9.048-4.64-.05.05zm18.803-5.582-17.152-17.357 11.964-11.823 2.955 2.99-8.177 8.08 4.023 4.071 7.043-6.96 2.955 2.99-7.044 6.96 7.22 7.307zm-2.918-31.422 8.067-7.972c1.399-1.382 2.688-2.276 3.856-2.696 1.17-.42 2.393-.477 3.666-.157a6.85 6.85 0 0 1 3.281 1.863q1.507 1.522 1.82 3.34.313 1.808-.527 3.57c1.232-.555 2.386-.677 3.466-.342q1.09.345 2.876 2.152l1.167 1.181c.868.878 2.29 2.477 3.803 2.264l-3.734 3.676c-.775.013-1.763-.029-3.276-1.56l-1.609-1.628q-1.176-1.19-2.011-1.454a2.35 2.35 0 0 0-1.615.043c-.52.205-1.206.73-2.05 1.564l-2.983 2.948 6.742 6.823-3.787 3.742zm6.742-.753 4.595 4.651 3.366-3.326q1.478-1.462 1.724-2.452c.26-1.047-.054-2.026-.938-2.92q-1.296-1.313-2.827-.99-1.05.223-2.432 1.59zm25.889 2.814-10.66-23.773 4.33-4.28 23.573 11.013-4.124 4.076-4.695-2.434-6.703 6.624 2.277 4.823zm-.23-12.772 4.63-4.575-9.048-4.64-.05.05zM163.15 314.098c-2.498-1.346-4.8-.7-6.66 1.137-2.939 2.905-1.747 7.348 1.16 10.29 2.867 2.9 7.14 4.367 10.208 1.518 2.25-2.09 2.45-4.67.971-7.25l3.876-3.829c2.97 4.726 2.457 9.964-1.53 14.002-4.94 5.003-11.997 4.722-17.313-.48-5.296-5.183-5.658-12.264-.43-17.429 3.936-3.89 8.916-5.098 13.619-1.814zm31.615-9.398-17.152-17.357 7.36-7.273c5.087-5.027 11.794-4.2 16.204.555 5.654 6.097 5.873 11.936-.1 17.839zm-10.41-18.11 11.147 11.28 2.73-2.697c3.633-3.59 2.436-7.488-.806-10.769-3.095-3.132-6.999-3.814-10.34-.511zm-6.055 27.738a2.746 2.746 0 1 1 3.86 3.908 2.746 2.746 0 0 1-3.86-3.908m32.587-33.254a2.746 2.746 0 1 1 3.86 3.908 2.746 2.746 0 0 1-3.86-3.908" style="fill:#fff;fill-rule:evenodd"></path><path d="M221.129 368.464v2.924l-1.02.433-.023 3.008 1.043.313v6.157l-2.493.548-3.511.915-.253 7.327 4.8-.088v3.008l-2.867 2.543-.205 2.56-.998.801.082 1.271.621.209.345 6.156.814.672.656-1.273.276-5.035 2.035-1.043 1.242 2.379 3.718.492-.423 10.507-1.77.9-.89-1.371-.129-9.885-.762-.055.06 9.318-1.857-.442-.6.906-2.676.23-.447 1.557 1.934 1.844.058 1.816 4.361-.5 1.61 1.095-2.317.426-1.436 2.343-3.664-.037.008.433 3.35.308.27 1.94 2.174.398-.014 2.387-1.812 2.162-.414 1.879-.72.011-.004-6.523-1.4.791-.003 2.499-1.53.134 1.408 1.515.03 2.254 3.14.126.025 3.109 3.277.123-.064 1.533-3.684-.018-.153-2.297-2.121-.036-4.45.943 1.7 4.373 11.516-.014.011-2.628 2.8-.056-.035 2.65 22.519-.05 3.834-1.31 17.136-.164.28-2.92 2.734-.446.257 2.835 2.713-1.296.755-2.113 8.672 1.004-.014 3.18-7.587-.002-.298 1.018 3.091-.193.884-.316 5.397-.158v-3.876l1.4-.015-.003.212 1.738.245.579.48 12.159-.193 2.445 2.806 1.53.004.928-.671 2.504.785 16.594.086-.013-1.38-1.241-.013v-6.569l-1.538-.043-.001 3.105-1.385.01v-3.106l-1.537-.069-.003 3.147-1.432-.004.023-3.024-3.731-.979-1.724-1.432.208-1.74 13.998 1.19.169-10.296 1.547.205c-.004 1.304-.01 2.594-.013 3.88-.003.828.405 1.655.402 2.484-.003.828-.417 1.66-.42 2.497l-.003 1.281c-.002.67.303 1.348.3 2.03-.001.681-.327 1.13-.468 2.993l-1.431.002.016-1.948-1.542-.123-.02 4.679 1.514.005.046-2.083 1.524-.013.018.509 4.409.268.533 2.395-.345.806-4.721.05-.997 1.265-.077 1.077 13.682.263 1.907 1.344 2.527-.742 2.259.043 1.179.594 40.05 1.08 7.205-18.647-2.78-2.407-.037-6.383-2.16-3.167-2.118-.817-1.35-1.257c.06-1.487-.217-3.139-1.577-4.394-1.542-1.422-3.583-1.561-7.152-3.638l-.101-2.513.931-.776c-.439-2.127-1.4-2.793-2.255-3.877l-.85.149-.672 2.94-.717.858 1.001.51.004 2.651-1.635 1.389c-3.79.673-5.991 2.91-7.278 6.923l-3.787-.167-.52-1.205-2.859-.676-1.42 1.123-5.775-1.8.136-8.028-.79-1.192-.156-5.56.912-.971-.018-2.705-2.734-3.876.01-5.514.363-1.02-.644-4.524-2.54-.22.89-.728c.339-3.084.007-4.88-2.822-7.474l-.322-4.004.24-1.334-.135-2.008-2.035-.03-.163 2.12.368 1.355-.373 3.508c-.546.033-1.111.74-1.585 1.254-1.037 1.12-1.552 3.3-1.619 4.422l.386-.04.612 3.656-.654-.225-.654-2.842-1.57.21-.107 3.9-.095.94-.02 2.196.32 1.269-.096 6.609-1.59.335-.157 9.671-3.181-1.108-.02-1.821 2.41.219-.043-.665-2.443-.656.17-1.74.788-1.139.085-11.53-4.219-3.727.203-1.75 1.321-.7.192-2.007.318-1.147.182-4.074-.36-1.254.16-4.126-1.157-.17-.4 2.306-1.697.091.145-8.159-3.118-3.209-.193-3.486-.699-.862.65-.965.032-3.198-2.614.053.07 3.15.688.763-.554 1.065-.283 3.632-3.555 2.698.377 8.468-1.422-.183-.641-3.91-.892.262-.634 5.142-.884.858.09 4.062.904.932.02 6.932-2.431.968-.162 2.116.394 1.048-.054 1.457 3.227 1.803-.13 3.237-2.576-.356.014-1.846-.757-.463-.004 6.447-10.206-3.59.54-8.715 1.103-.542 1.4-5.269-4.431-1.102-1.452-1.32.196-3.196-9.438-5.033.095-1.083c.59-.813 2.538-1.795 1.768-2.44-2.573-2.16-3.03-6.604-5.42-9.561-1.477-1.827-3.7-2.59-7.456-4.674-1.46-.81-2.904-2.171-4.875-3.353s-4.408-2.352-7.046-3.288c-2.592-.92-.214-3.92-2.312-4.639l.01-1.316c.44-.422 1.353-1.248 2.04-2.324.31-.488.446-.94.206-1.236-.738-.914-1.895-1.768-2.842-2.464l-.028-6.32c-.001-.403-.702-1.225-1.1-1.16-.563.091-1.102.725-1.188 1.539l-.458 4.284c-1.496 1.102-4.698 2.073-4.549 3.304.175 1.443 1.706 2.255 2.607 3.397l.003 1.922c-1.443.31-.613 3.703-2.361 4.92-2.227 1.547-5.543 1.426-9.794 2.234-1.107.21-2.167 1.387-3.964 1.772-2.293.536-4.77.906-6.716 1.65-3.137 1.198-5.298 3.173-6.086 6.897-.093.44-.35 1.285-.974 1.548-1.034.436-.806 1.591-.34 1.913.445.306 1.238.476 1.857.807l-.197 2.111-3.952 2.32-7.482.767-.537 4.426-3.272.682-1.298 1.873-1.837 1.364.107 1.644z" style="fill:#1b1918;fill-rule:evenodd"></path><path d="M330.383 425.862v-20.045l1.733-1.58 1.856-.681.003-.785-2.546-.084-1.324-1.874-8.645-3.271-1.23 1.028-1.994-2.995-9.596-3.121v5.55l3.949 1.08 2.615 3.032.205 2.416.923.103.695-2.16 1.521-1.077.437-1.556.373.218.513 3.393 2.615 1.439-1.693.977v7.863l1.59.103.025.838-1.615 1.218v9.2l3.487.206v-9.355l1.539.463v9.047l1.436.102v-8.789l1.487.41v8.636zm-1.517-19.551-1.636-.422v7.505l1.636.421zm-3.272-.963-1.731-.421v2.598l-1.758-.11-.07 3.478 1.828.48.096 1.059 1.635.421zm-86.847 15.42 3.7-.22c.945-.112 2.841.303 2.754 2.477l-.145 2.186-1.149 1.496.027 6.454 10.184.288 2.305-13.545 7.686-.48-.769 12.392-6.34.769-.288.576h16.716l-.079-14.744-.938-.577-.425-3.508-4.854-.559-.088 1.236-25.469 1.708.007.568-2.5.08-.753-.69-5.5.158-1.244 1.28-4.366.734v4.707l4.804.097.03-2.839 1.795-1.1 1.153 3.17 2.69 1.633zm41.531 11.542-3.485.063-1.868-1.798-.177-15.365 15.198 2.322.82 2.029 2.164.178 1.059-1.44 7.969 1.347-.263 1.723 2.007.297c1.054-.507 1.69-1.25 3.003-.905 1.232.323 2.312.98 2.803 1.952.425.843 1.032 1.84 1.185 2.94.103.74.182 1.502.271 2.235.287 2.348.205 4.042 1.073 6l-3.751-.033c-.916-1.005-.713-1.788-.844-2.904-.267-2.28-.003-4.075-.163-6.273-.119-1.626-3.116-1.78-3.118-.536l-.013 7.766 2.024 1.824-8.44.015-.143-9.905c-.006-.464-.913-1.724-1.646-2.124-1.03-.561-2.293.287-2.32.935l-.06 1.442-.613.958.791 2.15-.237 6.36-2.573.79-4.096-1.002-.335-3.518-.71-.995-.466-8.196c-.071-1.258-2.323-1.252-3.701-.56-.727.366-1.077.925-1.009 1.627l.96 9.914zm64.742-43.595-2.007 1.258.036 3.503 1.793.385 1.958-.664-.003-3.122zm-.722 6.015-2.067 1.72v3.185l2.294-.031 2.852-1.596-.051-3.314zm6.981-2.502-2.164-.154v4.587l1.107.183 2.5 5.399 1.526-.557.082-2.036-1.307-1.932-1.771-1.014zm.625-15.348-1.394-.202-.096 7.416 1.49.108zm-17.078 1.589-2.885-1.068-.486 1.027.815 1.299.103 7.542 2.452.876zm-.096 12.413-2.068-.3-.435 1.702-.142 5.474 3.27.828.069-2.598-.516-.435zm-9.19-12.34-2.307-.018-.435.527.002 1.816 2.644.063zm24.297 9.463-.626-.1v2.71l.606.08zm-25.498 4.377-2.02-.34.364 2.84 2.957.966zm-32.516 9.244 2.723.524.088 10.443 2.765.366-.082-8.195-.72-1.142.021-1.915-1.52-.459-.053-1.356-6.494-.633-.096 12.5 3.463.46zm23.241 14.004-3.317-.378.081 6.261 3.325.28zm-38.968-20.578-2.26-.105-.014 13.974 2.266-.213-.019-2.65 2.007-1.424.081-5.79-2.135-.29z" style="fill:#fff;fill-rule:evenodd" data-source="https://football-logos.cc"></path><path d="m319.212 411.711-1.888-.518-.657-.82-1.772-.364.133 4.607 3.962.747zm-8.502 3.678-2.036-.225.106 4.625 1.983.225zm-26.127-9.719-2.562-.128.103 4.529.302.83-.197 1.68-1.266-.368-4.173-.517-.168-1.419-2.151-.007.06 3.473 3.603-.168 1.44.707 5.012.536zm13.782 9.352-1.635-.28v3.05l1.635.281zm2.695-14.047-2.887-.474v1.608l2.886.473zm9.573 3.623-3.127-.584-.096 6.044 3.127.584.397-3.12zm-15.939 11.142-5.846-.85.192 1.539 5.461.659zm61.833 11.914-4.652-.638v2.591l4.652.638zm-2.663 4.726-1.785-.048-.02 2.568 1.784.05zm-16.844-10.962-2.245-.358v3.29l2.246.357zm-2.017-14.218-.18 3.86-2.93-.375.193 4.057 1.183.108.489-1.176 2.878.273-.097-6.598zm4.867 25.171-2.286-.358.033 1.175 2.286.358zm-1.454-13.833-2.29-.359.046 1.175 2.29.359zm11.962 7.821-1.481-.207v2.59l1.481.208zm-16.908-20.086-.96-.103v2.59l.96.104zm20.03-.251-13.065-4.516.007 3.649-.696.388-.272 9.99-.96-.193-.097 1.153 4.227.577v-7.014h1.633v-4.322l-1.825-.77v-.96l4.708 1.442-.047 2.367-1.587 1.187v5.86l1.826.192-.097-4.227 1.73-.864v-3.843l4.515 1.441z" style="fill:#fff;fill-rule:evenodd"></path><path d="m357.438 421.969-16.235-4.035.073 1.586 1.12.477-.033 1.2-.696.293-.176 11.814 3.386.505 1.61-1.273-.06-3.234-2.727-.609-.095-7.589c5.92.623 9.531 2.716 12.584 4.515l.259-1.12-1.973-.819.486-1.003zm-7.108-13.545-.142 3.231-1.107.515v5.86l.97.145 1.336-2.163.095-3.938 2.21.48-.096-3.266zm4.707-.769-.096 11.24 1.258.433-.01-5.718.817-.382.055-1.826 1.186.097-.04-2.884zm-100.54-31.362-.375 17.223-4.867.375.874-3.37.374-4.743 1.467-3.016 1.279-1.227v-4.743zm-.624 19.845-.25 14.227-3.494.125.25-14.103zM240.998 409.6l.043 2.144-2.046.125-.043-2.145zm29.814-14.662.043 1.54-2.045.09-.043-1.541zM268 390.364l.043.976-2.045.09-.043-.977zm-24.502-4.26.044.631-2.046.059-.043-.632zm8.282-12.714-7.376-.084-3.062 1.266-.466 1.966-1.66.123.548-4.033 5.638-.97.51-1.263 5.795.69zm7.344 18.164-.082 1.353-2.045.09-.043-.977zm18.251-1.064.043 1.54-2.045.09-.043-1.542zm-11.938-13.41.043 1.54-2.045.09-.043-1.54zm16.688 1.567-.02 2.167-2.295-.475-.892-1.566.787-.852zm-3.158-17.493 1.003 1.817-.44 1.385-2.787-.49-.85-1.405.375-1.262zm-24.787-2.307.036 1.54-1.726.09-.036-1.54zm31.313 6.141-.026 2.166-.975-.286.026-2.355zm-15.563-29.7-.15 2.166-1.727.09-.036-1.54zm-6.187 3.258-1.277 2.166-2.101.09.714-2.731 2.204-.508zm-15.111 20.928.02 1.54-.99.09-.02-1.541zm38.94-1.127-.354 1.476-1.616-.975.041-.601zm-.562-10.903-.233.85-1.06-.348.028-.601zm13.688 17.67-.354 1.476-1.616-.975.104-1.228zm-10-5.514.833.85-1.753 3.404-2.058-1.5.02-.543 1.05-.143.041-2.795zm-31.07-4.638.026 1.836-1.236.108-.026-1.837zm8.889-11.868.012 1.84-.551.009-.012-1.842zm10.876.063.011 1.84-1.224-.272-.92-1.474.738-.245zm-5.157-1.66.074.743-1.224-.271-.265-.807zm-13.171 2.124.026 2.556-1.236.108-.026-2.558zm4.835 8.959-.183 2.088-3.184.107-.004-1.336 2.358-1.075zm17.313 2.884.336 2.112-2.052.49-.51-1.317-2.33-.961-1.815.385-2.933-1.836-.067-2.339 2.046-.323zm4.784 21.275-3.214.102-1.316-1.746-3.433-1.836-.004-2.902 2.046-.324 5.962 3.084zm-48.427-17.892.02 1.54-.99.09-.022-1.54zm-.273 6.767.043 1.954-2.031.115-.043-1.956zm22.564-1.88-1.04.565.02 1.014-2.343.051-.043-2.645 3.2-.245zm-2.987 6.516.031 1.506-.8.279-.016 1.004-1.217.095-.043-2.726zm-31.627 3.572 6.407-1.029 1.495.913.193 2.222-3.429.303-.043 3.107-1.167.016-.787-1.235-2.636-.209-.693 1.055-1.155-.63-.043-1.541 1.14-.05zm33.627-4.824 7.345-.528.62-1.219 3.039-.001-.113 5.191-1.233 2.673-2.154-.364-.275-1.777-5.258.112-.256 1.744-2.654-.317-.23-1.666 1.138-.05zm16.501 15.414.043 3.983-2.045.09-.043-3.985zm24.689-6.83 1.966.004 2.11 2.22.11 3.686-3.965-.095-2.41-.489-.044-3.984zm-2.063 6.579.293 10.187-3.198.818-2.35-1.481.026-2.416 3.29-2.847-.037-1.44-.702-.502.633-2.23zm-28.421 1.066-.028 1.571-3.197 2.098-2.045.09.082-6.177 1.883-.191.867 2.515zm-2.455-2.695.08-4.639 2.26-1.318.125 1.569 1.996 1.068-.025 2.805-1.923.026-.067.824zm-40.441 15.852-.207 4.086-.704-.049-.435-1.803-2.469.16-.168-1.142zm12.621 4.386-.062 2.458h-1.622v-2.396zm-.062-13.471-.063 2.457h-1.622v-2.395zm16.501-3.697-.063 2.457h-1.121v-2.396zm32.376 3.634-.062 2.457h-1.122v-2.395zm7.939-19.737 1.337 2.005-2.522.452-.625-1.33zm-6.314-2.256.588 1.504-1.522.577-1.625-1.455zm-57.94-.063-.062 2.458h-1.998v-2.396zm36.753-5.388.25 2.207h-3.56l.124-2.835 1.908-.036zm-18.002 1.88.219 1.066-.74.12-.166.958h-1.185l-.062-2.083zm9.438 22.494.51 1.423-.01 2.037-2.81.062v-3.398zm-16.251 11.591-.125 1.643-3.06.125.063-1.581zm24.064.878-.079 7.581-.51 1.066-.036 3.272-3.248.188-.096-3.334 2.14-.69.082-7.958zm-37.002 2.444-.125 11.98-1.747.126.125-11.982zm3.937-4.386-.25 14.989-1.747.125.25-14.99zm1.25-21.429-.25 15.74-1.497-.125-2.729-1.585-.028-1.058 2.83-2.256.177-10.654z" style="fill:#fff;fill-rule:evenodd"></path><path d="m286.428 390.378-.021-10.477 2.334-1.755.122-4.637 3.48.144 1.13 1.286 3.09.153 1.59 1.777v1.96l-5.595-.922-.712 1.251-3.994.879-.051 10.279zm-54.498-3.459v6.403l-1.748.126v-6.405zm24.626 12.281-.312 11.04-1.748.126.313-11.042zm-7.313 1.377-.125 12.545 2.527.691-.073 1.083-2.994.36-1.332-3.637-1.713-.26 1.6-2.449.074-1.653-1.433-.209-.032-.956 1.705-.689.049-4.701zm12.43 1.88-.082 7.708-1.852.075.187-7.534zM231.395 428.2l-.02 1.665-5.67.216.145-4.862zm9.249-5.2 1.038 2.228-.807 1.818-1.669.215.144-4.298zm-16.813-1.709-.144 1.075-.67.205.082-1.363z" style="fill:#fff;fill-rule:evenodd"></path><path d="m296.623 436.54-.019 1.353-3.482-.16.02-1.29zm5.312-.75-.019 2.291-2.606-.097-.106-1.29 1.014.012v-.992zm-19.731 5.527h22.34l-.125-1.498h2.746v.999l4.493.624 17.473-.25 13.354.624 1.498 1.248h7.863l2.62 1.124 10.859-.25 2.121 1.248 4.993-.125.499 1.872-2.122 1.623-20.218-.75-1.249-1.122-16.599-.25-3.245-1.498-19.47.375-4.617-1.498-24.962-.25zm-32.864-19.999-.25 3.133 3.875-.063.313-3.133zm-1.125 6.392-.062 1.064 3.875-.062.125-1.066zm.875-10.402.564 1.754 4.124-.062-.75-1.755zm125.033-21.545-.106-.573-4.567-.842-4.383-.254-.813 1.327-2.362.465 1.772 3.48-.71 1.514 2.999.421.87-.546 3.112-.023 2.175-.918.204-.682-3.49-1.25-.254-.873zm-8.182.348 1.406.112-.11-1.106-1.352-.166z" style="fill:#1b1918;fill-rule:evenodd"></path><path d="M359.334 410.864v9.61l2.995 2.247 4.493-.125.489-.688-4.161-.128-2.318-1.805.374-3.37h.874v1.124l2.995.499.874-1.872 2.37.624 1 2.745 3.368.603 1.393-.869 1.347 1.09 2.375-.06 1.251-.888v-2.621l-5.591-.335-1.38-2.149-3.726-1.552-2.257.83-1.236-1.462zm14.491 17.231 1.687 1.32.743.22.384-1.798.687-1.13-2.125-1.428zm4.125 3.76 1.375.003-.312-1.44-.69.373zm15.5-12.406 3.189.253-.25-2.506-3.065-.378zm-10.687-15.038.63 2.101 2.163.352-.292-1.49-.626-.773-.687-2.38-2.252-.316zm-24.877 33.772v2.07l1.743-.028.009-1.862 5.903-.195.16-1.123-9.376-.3.001 1.255zm1.529-14.339v9.36l4.402 1.474.162-3.111 1.532-.137.175 3.62 1.316.204-.275-5.748 1.473-.403 1.706 2.097.059 3.529 8.104 1.045-.197-3.11-4.228-.286-3.664-4.026.018-4.298-1.447.415-.873 2.285-5.622 3.258.267-4.219z" style="fill:#fff;fill-rule:evenodd" data-source="https://football-logos.cc"></path><!-- source: https://football-logos.cc --></svg>