<svg xmlns="http://www.w3.org/2000/svg" viewBox="398.1 157.2 270.47 485.6"><!-- Source: https://football-logos.cc --><defs data-source="https://football-logos.cc"><clipPath id="a" clipPathUnits="userSpaceOnUse"><path d="M-424.984 225.044h800v-600h-800Z"></path></clipPath><clipPath id="b" clipPathUnits="userSpaceOnUse"><path d="M-493.255 354.347h800v-600h-800Z"></path></clipPath><clipPath id="c" clipPathUnits="userSpaceOnUse"><path d="M-483.312 316.209h800v-600h-800Z"></path></clipPath><clipPath id="d" clipPathUnits="userSpaceOnUse"><path d="M-328.067 362.81h800v-600h-800Z"></path></clipPath><clipPath id="e" clipPathUnits="userSpaceOnUse"><path d="M-333.723 368.79h800v-600h-800Z"></path></clipPath><clipPath id="f" clipPathUnits="userSpaceOnUse"><path d="M-484.423 347.983h800v-600h-800Z"></path></clipPath><clipPath id="g" clipPathUnits="userSpaceOnUse"><path d="M-357.508 384.543h800v-600h-800Z"></path></clipPath><clipPath id="h" clipPathUnits="userSpaceOnUse"><path d="M-382.76 366.416h800v-600h-800Z"></path></clipPath><clipPath id="i" clipPathUnits="userSpaceOnUse"><path d="M-407.129 341.894h800v-600h-800Z"></path></clipPath><clipPath id="j" clipPathUnits="userSpaceOnUse"><path d="M-418.479 337.902h800v-600h-800Z"></path></clipPath><clipPath id="k" clipPathUnits="userSpaceOnUse"><path d="M-430.686 319.658h800v-600h-800Z"></path></clipPath><clipPath id="l" clipPathUnits="userSpaceOnUse"><path d="M-453.62 309.848h800v-600h-800Z"></path></clipPath><clipPath id="m" clipPathUnits="userSpaceOnUse"><path d="M-360.495 166.004h800v-600h-800Z"></path></clipPath><clipPath id="n" clipPathUnits="userSpaceOnUse"><path d="M-373.518 243.316h800v-600h-800Z"></path></clipPath><clipPath id="o" clipPathUnits="userSpaceOnUse"><path d="M-385.57 236.187h800v-600h-800Z"></path></clipPath><clipPath id="p" clipPathUnits="userSpaceOnUse"><path d="M-392.22 227.95h800v-600h-800Z"></path></clipPath><clipPath id="q" clipPathUnits="userSpaceOnUse"><path d="M-390.28 222.967h800v-600h-800Z"></path></clipPath><clipPath id="r" clipPathUnits="userSpaceOnUse"><path d="M-384.393 209.609h800v-600h-800Z"></path></clipPath><clipPath id="s" clipPathUnits="userSpaceOnUse"><path d="M-427.479 217.846h800v-600h-800Z"></path></clipPath><clipPath id="t" clipPathUnits="userSpaceOnUse"><path d="M-387.58 212.24h800v-600h-800Z"></path></clipPath><clipPath id="u" clipPathUnits="userSpaceOnUse"><path d="M-429.695 216.115h800v-600h-800Z"></path></clipPath><clipPath id="v" clipPathUnits="userSpaceOnUse"><path d="M-414.179 213.9h800v-600h-800Z"></path></clipPath><clipPath id="w" clipPathUnits="userSpaceOnUse"><path d="M-395.684 206.91h800v-600h-800Z"></path></clipPath><clipPath id="x" clipPathUnits="userSpaceOnUse"><path d="M-396.931 204.142h800v-600h-800Z"></path></clipPath><clipPath id="y" clipPathUnits="userSpaceOnUse"><path d="M-398.386 202.203h800v-600h-800Z"></path></clipPath><clipPath id="z" clipPathUnits="userSpaceOnUse"><path d="M-407.599 204.902h800v-600h-800Z"></path></clipPath><clipPath id="A" clipPathUnits="userSpaceOnUse"><path d="M-428.864 195.559h800v-600h-800Z"></path></clipPath><clipPath id="B" clipPathUnits="userSpaceOnUse"><path d="M-412.1 192.79h800v-600h-800Z"></path></clipPath><clipPath id="C" clipPathUnits="userSpaceOnUse"><path d="M-429.695 192.721h800v-600h-800Z"></path></clipPath><clipPath id="D" clipPathUnits="userSpaceOnUse"><path d="M-406.56 192.582h800v-600h-800Z"></path></clipPath><clipPath id="E" clipPathUnits="userSpaceOnUse"><path d="M-408.083 187.807h800v-600h-800Z"></path></clipPath><clipPath id="F" clipPathUnits="userSpaceOnUse"><path d="M-406.352 186.838h800v-600h-800Z"></path></clipPath><clipPath id="G" clipPathUnits="userSpaceOnUse"><path d="M-403.928 183.515h800v-600h-800Z"></path></clipPath><clipPath id="H" clipPathUnits="userSpaceOnUse"><path d="M-417.365 188.499h800v-600h-800Z"></path></clipPath><clipPath id="I" clipPathUnits="userSpaceOnUse"><path d="M-395.2 182.893h800v-600h-800Z"></path></clipPath><clipPath id="J" clipPathUnits="userSpaceOnUse"><path d="M-392.013 179.155h800v-600h-800Z"></path></clipPath><clipPath id="K" clipPathUnits="userSpaceOnUse"><path d="M-390.28 175.487h800v-600h-800Z"></path></clipPath><clipPath id="L" clipPathUnits="userSpaceOnUse"><path d="M-357.655 164.343h800v-600h-800Z"></path></clipPath><clipPath id="M" clipPathUnits="userSpaceOnUse"><path d="M-403.581 157.837h800v-600h-800Z"></path></clipPath><clipPath id="N" clipPathUnits="userSpaceOnUse"><path d="M-403.026 161.575h800v-600h-800Z"></path></clipPath><clipPath id="O" clipPathUnits="userSpaceOnUse"><path d="M-397.762 156.868h800v-600h-800Z"></path></clipPath><clipPath id="P" clipPathUnits="userSpaceOnUse"><path d="M-434.406 155.76h800v-600h-800Z"></path></clipPath><clipPath id="Q" clipPathUnits="userSpaceOnUse"><path d="M-397.762 154.93h800v-600h-800Z"></path></clipPath><clipPath id="R" clipPathUnits="userSpaceOnUse"><path d="M-387.996 153.269h800v-600h-800Z"></path></clipPath><clipPath id="S" clipPathUnits="userSpaceOnUse"><path d="M-398.455 141.503h800v-600h-800Z"></path></clipPath><clipPath id="T" clipPathUnits="userSpaceOnUse"><path d="M-377.12 139.91h800v-600h-800Z"></path></clipPath><clipPath id="U" clipPathUnits="userSpaceOnUse"><path d="M-387.649 136.104h800v-600h-800Z"></path></clipPath><clipPath id="V" clipPathUnits="userSpaceOnUse"><path d="M-397.208 136.52h800v-600h-800Z"></path></clipPath><clipPath id="W" clipPathUnits="userSpaceOnUse"><path d="M-403.65 135.896h800v-600h-800Z"></path></clipPath><clipPath id="X" clipPathUnits="userSpaceOnUse"><path d="M-404.62 133.336h800v-600h-800Z"></path></clipPath><clipPath id="Y" clipPathUnits="userSpaceOnUse"><path d="M-408.083 124.684h800v-600h-800Z"></path></clipPath><clipPath id="Z" clipPathUnits="userSpaceOnUse"><path d="M-405.313 125.584h800v-600h-800Z"></path></clipPath></defs><path d="M0 0c-.437-1.675-1.563-3.056-2.078-4.707-.192-.613-.176-1.23-.346-1.938-.208-.86-1.75-2.576-2.355-2.907-.446-.243-1.128-.343-1.662-.553-2.087-.823-3.739-1.979-5.889-2.63.131-.239.166-.574.348-.762-.813-.659-.912-2.116-.624-3.402h-26.738c-.054.015-.081.138-.07.218.458.728 1.372.795 1.939 1.316.828.757 1.104 1.853 1.109 3.46.844 1.031 1.588 2.062 2.425 3.114.84 1.059 1.963 1.837 2.701 2.908.714 1.036 1.15 2.21 2.009 3.184.074 1.073-.105 2.41-.485 3.253 1.189 1.921-1.204 3.538-.762 5.675.128.622.645 1.022 1.108 1.454.112-.698-.005-1.498.416-1.731 2.063.822 3.899 1.872 5.265 3.392.166-.527.044-1.339.416-1.661 1.736.514 3.304.874 4.156 2.214.408.645.509 1.471 1.316 1.8 1.203-1.151 2.697-2.01 4.432-2.63.905-1.483 2.752-2.025 4.364-2.838 1.27-.639 2.178-1.53 3.187-2.353.586.481.884 1.523 1.108 2.146 1.181-.829 2.551-1.466 4.087-1.938.092-.74.758-.904 1.108-1.385C.184 1.799.225.857 0 0m-40.383 83.887c.386.115 1.07-.025 1.316-.277-.554-.022-1.059.004-1.316.277M56.084-73.891c-11.155 9.288-24.332 17.409-32.899 28.127-5.964 7.459-9.25 16.312-9.259 27.657v1.208H5.403c.306 1.051.586 2.106.278 3.402-.161.681-.79 1.119-.831 1.592-.051.571.482 1.072.693 1.731.139.441.038.952.138 1.383.191.834 1.162 1.579 1.662 2.493.53.968.686 2.116 1.108 2.976.561 1.144 1.662 1.754 2.078 3.045.165.512.071.948.208 1.523.242 1.015.761 1.983.624 3.53-.277 3.099-2.533 5.048-5.057 6.437.355.522 1.223.531 1.456 1.177-1.641.53-2.752 1.588-3.741 2.768.469.13 1.104.096 1.315.484.03.274-.342.401 0 .762-.612 1.067-1.328 2.406-1.662 3.876-.268 1.176-.625 2.131-1.178 2.976-.145.222-.433.499-.346.761 1.352.402 2.264 1.245 3.048 2.215.093.419-.639.294-.416.623 2.484.563 3.785 2.309 4.988 4.153-.454.109-1.192.116-1.455.207.579.776 1.563 2.432 1.109 4.015.206.216.486.632.623 1.038.24.717.586 1.648.207 2.077-.272.396-.793-.601-1.039-.208.081 6.494-1.886 11.015-4.849 15.296-1.343 1.941-2.837 3.913-3.948 6.091-1.277 2.504-2.684 5.442-2.425 8.997.157 2.155 1.26 3.901 3.255 4.43-.1-.565.364-1.133.348-1.799-.007-.273-.367-.744-.348-.9.027-.204.666-.78.902-1.038.673-.74 1.67-1.411 2.84-1.592.487-.075 1.062.001 1.524-.139.754-.226 1.282-1.112 2.078-1.453 1.918-.82 4.008.164 4.987 1.315.124.356-.25.212-.276.416.534.15 1.049.328 1.454.622.681.495 1.343 1.346 1.731 2.076-.827.281-1.892.324-2.632.693.35.151.921.183 1.386.346.717.252 2.431.81 2.215 1.592-.172.632-2.129.653-2.769.969-1.204.594-2.217 1.97-3.602 2.907-.985.666-2.05 1.117-3.187 1.661-.328.156-.753.42-1.039.138.052-.577.441-1.4.623-2.076-.714.163-.614 1.14-1.108 1.522-5.337-.32-9.199-1.157-11.567-4.083-1.118-1.381-1.854-2.983-2.356-4.845-.257-.951-.137-2.308-1.04-2.7.266-.358.635-.611.832-1.038-.215-.177-.435-.348-.554-.623.446-.176.644-.601.901-.968-.167-.249-.309-.522-.485-.762 1.094-.681 1.531-2.428 2.147-3.737 2.058-4.365 4.716-8.367 6.72-13.013.813-1.887 1.693-3.974 1.662-6.229-.041-3.09-1.721-4.745-4.711-5.052-.04.636-.607 1.097-.83 1.591-.337.744-.462 1.494-.763 2.146-2.093 4.537-5.825 7.625-10.321 10.037.747.099 1.472-.189 2.078 0-.262 1.627-.781 2.872-1.662 3.875-.365.418-.909.661-1.178 1.177.832-.045 2.496-.259 2.909.138-.229.901-.689 1.572-1.039 2.354.352.049.678-.289.97-.07-.246 3.069-2.276 6.344-.346 8.998.323.229-.335.544 0 .554.893.054 1.744.149 2.355.484-.333.665-.8 1.497-1.177 2.423-.506 1.236-1.004 2.735-.277 3.807.265.142.527-.082.761.138.93 1.724 2.514 3.668 1.732 6.437.761.095 1.565.144 2.009.554-.387 1.145-.838 2.336-1.039 3.806-.377 2.762.671 5.973-.346 8.306-.098.422.43.503.277.761-.437.194-.534.71-.763 1.108-.636 1.109-1.085 2.593-1.663 3.945-.225.531-.815 1.029-1.037 1.592 1.521.28 3.315-1.424 3.878-.069-1.616 1.924-2.764 4.523-5.334 5.398-.479.164-.995.189-1.523.277-.385.064-1.011.082-1.455.277-.564.248-.941.941-1.593 1.316-1.104.633-2.606.622-4.572.622-2.428 0-4.148-.03-5.473-1.107-.573-.466-.85-1.287-.969-2.077-4.061-.116-6.759-3.903-11.36-2.146-1.303-.77-3.379-2.041-2.217-4.014-1.38-.121-2.289-1.054-3.325-1.661-1.402-.821-2.978-1.211-4.918-1.592-.546-1-1.042-2.05-1.524-3.115 1.039-.785 2.053-1.593 3.256-2.214-.315-1.429.163-2.214.623-3.115.184-.359.399-1.048.831-1.177 1.067-.317 2.807.258 4.087.693 1.761.597 3.635 1.846 5.195.692.857-.634 1.937-2.69-.069-2.769.053.402.951.703.693 1.661-.407 1.512-4.032 1.044-4.849.069-.065-.28-.122-.701 0-.968-.56-.063-.925-.323-1.454-.416-.338.213-.458.384-.832.485-1.876.505-3.15-.697-3.117-2.284.756-.562.329-1.563.208-2.422.678-.676 1.474-2.118 2.425-2.216 1.396-.143 2.246 1.044 3.186 1.454.756.329 2.701.636 2.909-.208.164-.666-.962-1.58-1.385-1.869-1.16-.788-3.023-1.18-4.572-1.799-1.626-.65-2.836-1.409-3.81-2.561-1.581 2.184-4.738 2.746-7.066 4.36-1.694 1.176-3.035 3.187-4.64 4.569-.833.716-1.626 1.48-2.217 2.422-.571.911-.867 2.016-1.455 3.115-1.221 2.284-4.019 4.588-7.689 3.945-.226-.174.327-.716 0-.761-1.73.981-3.796.139-5.334-.416-.321-.44-.513-.865-.484-1.384.028-.499.596-.947.693-1.523.049-.296-.12-.544-.07-.761.135-.58.843-.899.762-1.315-.334-.197-.881-.181-1.247-.346-.619-1.454.367-2.079.901-2.976.157-.264.156-.632.277-.831.673-1.109 2.191-1.847 3.463-1.938 1.108-1.303 3.602-2.283 5.68-1.384.587-.659 1.058-1.652 1.663-2.423.151-.192.501-.48.346-.692-.507.102-1.323.235-1.87.069.312-2.341 1.16-4.147 3.671-4.291-.17-.563.593-.718.762-1.177.187-.507-.027-1.062.07-1.522.268-1.29 1.468-1.532 2.493-2.146-3.414-.584-6.735.021-9.906.761-2.361.552-4.798.555-6.995 1.316-.684.236-1.339.749-2.079.9-.918.186-2.053-.028-3.116-.208-1.046-.178-2.188-.339-2.91-.554-.85-.254-1.325-1.032-1.801-1.869-.514-.34-1.871-.306-1.94-.9-.095-.813 2.622-.906 2.564-1.869-.382-.369-.373-.921-.624-1.384-.356-.656-1.129-1.029-1.247-1.661 1.308-.193 2.425-.576 3.395-1.107-.169-.705-2.792-.997-2.841-1.731-.048-.735 1.572-.711 2.147-1.038 1.032-2.327 4.569-1.803 7.135-1.176 1.727.421 2.816 1.86 4.988 1.868.926.004 1.738-.352 2.84-.276.147-.403-.762-.346-.693-.901 1.007-.608 1.945-1.286 3.533-1.314-.075-.272-.567-.127-.416-.623 1.482-.898 3.779-1.814 5.888-1.246 1.422-.964 3.381-2.049 5.611-1.176.459.179.758.607 1.177.622.858.032 1.865-.838 2.771-.346.11-.338-.206-.794-.277-1.176.688-.328 1.461-.571 1.801-1.246-.927-1.55-.33-3.764.069-5.468-.632-.415-.837-1.184-1.385-1.661-.597-.52-1.357-.572-2.147-.97.679-.778 1.104-1.561 2.008-2.145 1.991-1.286 4.829-.433 6.72.554 1.388-2.427 4.453-3.322 7.896-3.807 2.645-.373 5.528-.126 8.174-.346 2.073-.173 3.766-1.183 4.987-2.284-.179-.731.01-1.493-.207-2.284-.32-1.163-1.604-2.821-2.494-3.254-.852-.413-2.448-.673-3.533-.899-3.817-.795-7.682-.733-10.321-2.838-1.686-1.345-3.072-2.898-4.087-4.706-1.001-1.784-2.081-3.752-2.493-6.161.625.166.949.983 1.593.9-.057-3.484.608-5.912 2.216-7.89.393-.483 1.093-1.033 1.663-1.592.488-.478 1.378-1.107 1.593-1.592.261-.587.027-1.222.139-1.73.142-.65.538-.729.415-1.731-.095-.771-.553-1.743-.901-2.561-.771-1.821-1.281-3.49-3.255-4.013-.919-.245-1.977-.378-2.979-.555-2.718-.481-5.686-1.154-7.219-2.956-.311-.366-.723-1.489-1.244-1.946-1.08-.947-1.145-2.432-.591-3.691h-7.738v-1.208c-.008-11.345-3.295-20.198-9.258-27.657-8.567-10.718-21.744-18.839-32.899-28.127-11.131-9.263-20.363-19.93-20.357-35.733-.008-8.438 2.33-15.03 6.132-20.979 3.8-5.955 9.014-11.3 14.845-17.513 3.79-4.035 7.724-8.082 11.475-12.178 13.122-14.347 25.244-31.33 25.259-58.455.001-7.709-.906-17.453-2.312-27.047l-.234-1.586 1.59.215c13.268 1.785 23.175 5.336 25.97 6.412 2.08-2.26 9.562-10.129 18.024-15.844l.675-.457.677.457c8.46 5.715 15.943 13.584 18.023 15.844 2.796-1.076 12.703-4.627 25.971-6.412l1.589-.215-.234 1.586c-1.405 9.594-2.312 19.338-2.312 27.047.015 27.125 12.138 44.108 25.258 58.455 3.751 4.096 7.688 8.143 11.476 12.178 5.832 6.213 11.045 11.558 14.845 17.513 3.802 5.949 6.141 12.541 6.132 20.979.006 15.803-9.227 26.47-20.356 35.733" clip-path="url(#a)" style="fill:#000;fill-opacity:1;fill-rule:nonzero;stroke:none" transform="matrix(1.33333 0 0 -1.33333 566.646 300.059)"></path><path d="M0 0c-3.604-5.659-8.715-10.93-14.57-17.16-3.769-4.013-7.71-8.068-11.494-12.198-13.261-14.455-25.91-32.192-25.895-60.088.001-7.459.822-16.643 2.11-25.799a124 124 0 0 0-17.291 3.842c-2.312.691-4.14 1.32-5.387 1.771-1.246.453-1.893.725-1.895.725l-.796.334-.573-.647c-.002-.002-.521-.588-1.466-1.586-2.748-2.9-9.051-9.213-15.997-14.025-4.555 3.156-8.837 6.959-12.017 10.019a124 124 0 0 0-3.98 4.006 66 66 0 0 0-1.467 1.586l-.574.647-.796-.334c-.002 0-.648-.272-1.894-.725-3.567-1.295-11.899-4.019-22.679-5.613 1.288 9.156 2.109 18.34 2.11 25.799.016 27.896-12.632 45.633-25.895 60.088-3.783 4.13-7.725 8.185-11.493 12.198-5.855 6.23-10.967 11.501-14.57 17.16-3.603 5.665-5.746 11.685-5.754 19.679.005 14.758 8.505 24.699 19.488 33.877 10.958 9.153 24.278 17.304 33.238 28.471 6.08 7.579 9.554 16.704 9.777 27.96h8.699c.258-.3.686-.476.839-.964.201-.64-.197-1.578.415-1.938.762.229.912 1.205 1.663 1.592.651.336 1.553.264 2.286.553.49.194.854.6 1.276.757h.665c.296-.892.021-1.91.83-2.002.746-.086.874 1.142 1.316 1.73a12.5 12.5 0 0 0 1.665.272h29.644c.027-.796-.035-1.003.764-1.241.597.25.664.96 1.213 1.241h3.656c.249-.204.418-.487.74-.618.153-.793-.006-1.897.624-2.214.632.382.91 1.12 1.454 1.591 1.174-.062 2.034.548 2.701.762.145-1-.531-2.179.07-2.769.858.263 1.338 1.143 2.286 1.661.605.33 1.359.38 2.009.692.423.203.79.689 1.24.895h6.954c.225-11.256 3.697-20.381 9.779-27.96 8.959-11.166 22.28-19.318 33.238-28.471C-2.751 44.378 5.749 34.437 5.754 19.679 5.745 11.685 3.603 5.665 0 0" clip-path="url(#b)" style="fill:#ff0;fill-opacity:1;fill-rule:nonzero;stroke:none" transform="matrix(1.33333 0 0 -1.33333 657.673 472.462)"></path><path d="M0 0c-5.053 6.031-12.082 11.34-19.454 16.931-8.592 6.507-17.384 13.184-24.178 21.671-5.58 6.969-9.163 14.92-10.735 23.791l-.177.998h-57.535l-.177-.998c-1.572-8.871-5.156-16.822-10.735-23.791-6.794-8.487-15.586-15.164-24.177-21.671-7.373-5.591-14.402-10.9-19.455-16.931-4.944-5.885-7.253-11.703-7.238-18.459-.011-5.658 1.319-10.139 4.07-14.584 2.747-4.449 6.846-8.902 12.47-14.879l1.491-1.586a835 835 0 0 1 4.192-4.424c2.43-2.555 4.939-5.192 7.374-7.851 13.986-15.287 28.101-34.842 28.115-65.801.001-4.418-.26-9.074-.647-13.545l-.146-1.676 1.636.399c8.814 2.148 14.356 5.965 16.724 7.886 1.436-3.078 5.422-10.048 14.523-17.21l.747-.588.749.588c9.1 7.162 13.085 14.132 14.523 17.21 2.367-1.921 7.908-5.738 16.724-7.886l1.635-.401-.146 1.678c-.387 4.471-.647 9.127-.647 13.545.014 30.959 14.129 50.514 28.116 65.801 2.434 2.659 4.943 5.296 7.374 7.851a979 979 0 0 1 5.682 6.01c5.623 5.977 9.723 10.43 12.471 14.879 2.751 4.445 4.08 8.926 4.069 14.584C7.254-11.703 4.944-5.885 0 0" clip-path="url(#c)" style="fill:#000;fill-opacity:1;fill-rule:nonzero;stroke:none" transform="matrix(1.33333 0 0 -1.33333 644.415 421.612)"></path><path d="m0 0 107.886 86.128a56 56 0 0 1 1.841-2.435 71 71 0 0 1 1.754-2.095L3.984-4.221a785 785 0 0 0-2.808 2.969z" clip-path="url(#d)" style="fill:#fff;fill-opacity:1;fill-rule:nonzero;stroke:none" transform="matrix(1.33333 0 0 -1.33333 437.423 483.747)"></path><path d="m0 0 107.439 85.772c6.421-6.961 13.962-12.673 21.235-18.186 5.086-3.852 9.946-7.543 14.042-11.34L27.183-35.986C21.716-24.646 14.349-15.465 7.106-7.568 4.75-4.996 2.338-2.459 0 0" clip-path="url(#e)" style="fill:#fff;fill-opacity:1;fill-rule:nonzero;stroke:none" transform="matrix(1.33333 0 0 -1.33333 444.964 491.719)"></path><path d="M0 0c-2.549-4.142-6.556-8.528-12.173-14.491l-1.493-1.588a853 853 0 0 0-4.181-4.412c-2.43-2.556-4.95-5.203-7.406-7.883-14.133-15.41-28.764-35.691-28.75-67.436 0-3.947.203-8.052.517-12.046-4.908 1.377-8.614 3.265-11.149 4.859a31 31 0 0 0-3.133 2.242 18 18 0 0 0-.94.83c-.038.037-.045.047-.045.047l-1.393 1.422-.621-1.891-.024-.07c-.304-.836-3.318-8.67-13.631-17.043-5.388 4.375-8.782 8.598-10.841 11.758-1.075 1.65-1.787 3.01-2.225 3.947a19 19 0 0 0-.567 1.338l-.025.07-.621 1.891-1.39-1.422s-.008-.01-.046-.047c-.538-.521-5.562-5.219-15.222-7.931.313 3.994.515 8.099.516 12.046.007 14.414-3.012 26.457-7.627 36.762L-6.227 33.751a52 52 0 0 0 3.261-3.525c4.678-5.617 6.66-10.706 6.676-16.911C3.699 8.019 2.544 4.149 0 0" clip-path="url(#f)" style="fill:red;fill-opacity:1;fill-rule:nonzero;stroke:none" transform="matrix(1.33333 0 0 -1.33333 645.897 463.978)"></path><path d="m0 0 6.966 6.273q1.59-1.504 3.027-1.807 2.333-.486 4.539 1.274 1.646 1.315 1.951 2.76t-.466 2.412q-.735.917-2.162.967-1.428.048-5.03-1.774-5.92-2.956-9.503-2.886-3.601.053-5.815 2.828-1.453 1.82-1.635 4.328t1.309 5.216 5.378 5.811q4.768 3.806 8.616 4.119t7.257-2.982l-6.924-6.187q-1.563 1.365-3.067 1.353-1.504-.014-3.132-1.314-1.341-1.07-1.589-2.153-.247-1.081.37-1.855.452-.564 1.371-.569.916-.034 3.274 1.19 5.864 2.99 8.887 3.676 3.024.684 5.265-.086 2.241-.772 3.785-2.707 1.815-2.272 2.023-5.247t-1.377-5.864q-1.584-2.887-5.198-5.773-6.347-5.066-10.643-4.695T0 0" clip-path="url(#g)" style="fill:#000;fill-opacity:1;fill-rule:nonzero;stroke:none" transform="matrix(1.33333 0 0 -1.33333 476.677 512.724)"></path><path d="m0 0 7.381 5.893 5.251-6.579L5.25-6.578Z" clip-path="url(#h)" style="fill:#000;fill-opacity:1;fill-rule:nonzero;stroke:none" transform="matrix(1.33333 0 0 -1.33333 510.347 488.555)"></path><path d="m0 0 8.282 3.443Q9.752.209 9.734-2.762a11.8 11.8 0 0 0-1.447-5.616q-1.431-2.645-4.773-5.315-4.056-3.238-7.522-4.17-3.463-.934-7.581.396-4.117 1.33-7.628 5.728-4.681 5.864-3.912 11.635.768 5.77 6.776 10.565 4.7 3.753 8.832 4.096 4.13.34 8.423-2.356L-4.74 5.348q-1.219.794-2.009.983a5.6 5.6 0 0 1-2.607.03q-1.294-.295-2.448-1.215-2.613-2.087-2.41-5.193.13-2.322 2.662-5.494 3.137-3.929 5.556-4.383 2.42-.456 4.692 1.36Q.901-6.803 1.092-4.725 1.281-2.648 0 0" clip-path="url(#i)" style="fill:#000;fill-opacity:1;fill-rule:nonzero;stroke:none" transform="matrix(1.33333 0 0 -1.33333 542.839 455.86)"></path><path d="m0 0 7.381 5.893 5.251-6.577L5.25-6.577Z" clip-path="url(#j)" style="fill:#000;fill-opacity:1;fill-rule:nonzero;stroke:none" transform="matrix(1.33333 0 0 -1.33333 557.971 450.536)"></path><path d="M0 0q2.857-3.58 5.406-4.104 2.55-.524 4.792 1.266 2.304 1.839 2.344 4.378T9.416 8.045q-2.663 3.338-5.211 3.824-2.546.488-4.803-1.314-2.162-1.727-2.223-4.334Q-2.883 3.61 0 0m-7.176-5.676q-4.62 5.789-4.037 11.531.583 5.746 6.217 10.243 5.775 4.61 11.429 3.937 5.652-.672 10.21-6.379 3.308-4.143 4.058-7.885.753-3.742-.65-7.277-1.403-3.534-5.253-6.609-3.915-3.125-7.495-3.898-3.582-.774-7.375.71-3.797 1.485-7.104 5.627" clip-path="url(#k)" style="fill:#000;fill-opacity:1;fill-rule:nonzero;stroke:none" transform="matrix(1.33333 0 0 -1.33333 574.247 426.21)"></path><path d="m0 0 7.382 5.893 5.251-6.577-7.382-5.893Z" clip-path="url(#l)" style="fill:#000;fill-opacity:1;fill-rule:nonzero;stroke:none" transform="matrix(1.33333 0 0 -1.33333 604.827 413.13)"></path><path d="M0 0c-.004-.042-.01-.082-.069-.069-1.333-.944-3.134-2.37-5.542-2.146-.535.05-1.043.243-1.523.277-2.66.19-3.86-1.406-5.819-1.869-1.734-.409-3.51-.897-5.057-.207-.411.233-.575.719-.901 1.038-.194.191-.621.172-.623.554 1.313.649 1.741 2.183 3.741 2.145.421.514 1.333.114 1.939.415-1.462.796-3.374-.242-4.917 0-.722.113-1.139.731-1.802.831.267.448.509.922.624 1.523.826.584 2.045 1.232 3.394 1.383.63.072 1.549-.155 2.009.347-1.231-.068-2.747.02-3.949-.139-.409-.053-.661-.291-1.039-.208-.625.14-.762.921-1.316 1.178.761.533.884 1.607 1.732 1.938.285.111.683.047 1.108.138 1.2.258 3.304.985 4.572.554.924-.315 1.87-.929 2.979-1.177 1.583-.355 3.626-.497 5.61-.9 1.911-.387 3.754-.949 5.542-1.038 4.583-.228 7.767.659 11.776 1.246-2.186.771-6.149.173-7.897 1.315-.373.244-.844.808-.693 1.384 2.288-.276 4.42.503 5.195 1.731-1.446-.419-4.055-1.071-5.403-.139.051.629.933.973.416 1.73-1.861-.801-4.313-.113-4.433 1.869.698.337 2.158-.202 2.632.484-.849.909-1.507 1.568-2.217 2.77-.343.581-.965 1.753-1.524 1.868-.779.161-1.582-.534-2.424-.415-.301.042-.623.289-.97.415-1.002.363-1.539.491-1.939 1.315-1.549-.048-2.31.692-3.048 1.454-.123 1.056-1.33 1.39-1.178 2.491 1.083.403 2.56.875 3.88.693.637-.089 1.033-.789 1.592-.416.591-.494 1.354-.817 2.355-.9-.216.46-.699.685-1.177 1.038-.356.265-.862.793-1.316.9-.601.143-1.274-.046-1.87 0-1.374.106-2.475.464-2.909 1.385.393 1.151-.839 1.519-.555 2.561.987.158 1.559.814 2.563.83 1.849.03 3.36-1.419 4.295-2.491.424-.201.979-.637 1.524-.485-.188.412-.681.52-.97.831-.14 1.105-1.243 1.25-1.455 2.283 1.349.429 2.729-.289 3.672-1.037 1.457-1.158 2.149-3.23 3.117-4.984.488-.884 1.039-1.699 1.731-2.354.723-.682 1.537-1.215 2.148-1.937 1.493-1.764 2.717-3.231 4.572-4.223 1.818-.971 4.039-1.322 5.542-3.252-2.137-1.119-4.66-1.851-5.404-4.361.78.434 1.871.7 2.702.554 1.353-.239 1.868-1.288 2.702-2.076 1.238-1.172 3.18-1.713 5.541-.97-2.217.319-3.666.567-4.78 1.731-.456.477-.706 1.049-1.247 1.384-.679.421-1.495.452-2.078.969 1.452 1.503 4.677 1.233 7.343 1.523-.592.885-1.901 1.054-2.771 1.661 1.071 1.362 3.002 1.856 5.057 2.561 1.847.634 4.413 1.734 4.294 4.222-.727 1.249-2.876 1.313-4.294.623-.973-.473-1.567-1.395-2.563-1.315-.531.485-1.143.888-1.524 1.523.099.464.36.895.277 1.522-.091.681-.446.578-.416 1.108.042.746.999 1.103 1.801.83.334-.113.504-.504.901-.554.991-.124 1.331.618 2.078.485.447-.08.815-.592 1.385-.693.467-.081 1.203.056 1.801 0 .396-.036.659-.183.97-.138.921.135 1.804 1.282 1.524 2.492-.313 1.35-2.018 2.876-3.741 2.699-2.348-.24-4.306-2.032-7.065-1.869-.744.869-1.269 2.851-.554 4.153.764.509 1.771 1.135 1.593 2.354-.734-.381-1.859-2.134-2.84-2.077-.798.047-1.179 1.121-2.009 1.316.28.712.597 1.387.969 2.006 1.117.165 1.915.421 2.841.762.705.259 1.526.542 2.009.831.272.162.426.495.692.692.442.325 1.198.699 1.732.83 1.767.434 1.791-.72 3.048-1.107.904-.279 1.553.533 2.355.831.062-.657-1.353-1.41-.623-2.284.994 1.589 2.048 3.121 3.809 3.944-.45.614-.997.017-1.523-.207-1.035-.441-2.905-1.123-4.503-.831-.82.151-1.796.974-1.732 1.869.063.878 1.101 1.245 1.801 1.661 4.886-1.388 7.365 2.225 11.776 2.423.025 2.183 1.845 3.019 4.018 3.183 2.242.17 5.18.013 6.027-1.176-.241-.338-1.039-.116-.97-.761.66.054 1.345.087 1.939 0 1.614-.241 3.452-.496 4.502-1.315.49-.383.858-.932 1.247-1.385.386-.447.967-.855 1.039-1.523-1.125.128-3.068.198-3.602-.691 2.013-1.104 2.445-3.788 3.394-5.953-.961.078-1.172.905-2.078 1.038.409-1.046.946-2.133.901-3.53-.065-1.984-.891-4.434.346-5.883-.137 2.602.617 4.321.831 6.437.034.324-.101.8.208 1.038 1.474-1.848.585-4.854.623-7.544.025-1.737.546-3.193.832-4.568-3.51-1.088-3.926 3.463-5.819 5.26-.351.334-.734.394-1.039.83-.225 2.657 1.439 4.664 1.662 6.922.091.912-.101 1.477-.415 2.007-.146-1.017-.12-2.695-.97-2.768-1.07-.093-1.526 2.425-2.355 2.423.223-1.484 1.621-2.735 1.801-4.361.082-.742.037-1.956-.416-2.146-.432.078-.491.688-.761 1.038-.453.589-1.09 1.112-1.87 1.315.912-1.659 2.877-4.522 1.246-6.783-1.11.815-1.533 3.023-3.463 2.561-.215-1.192.967-3.452-1.109-3.184-.61.336-.705 1.187-1.454 1.385-.371-.6-.335-1.972-.208-2.838.972.869 1.417-.407 2.148-.761.491.663 1.004 3.015 2.078 2.976 1.26-.046 1.018-2.688 2.216-3.115.511 1.148.727 2.819 1.94 2.976 1.453.189 1.97-1.873 2.77-2.769.74-.825 2.183-1.742 2.494-2.699.359-1.107-.143-2.311-.416-2.907-.141-.306-.278-.822-.623-.761-.19.618-.055 1.56-.484 1.938-.178-1.24-.288-2.122-.694-3.184-.292-.765-.804-1.481-.83-2.145-.069-1.696 1.022-3.197 1.385-4.569-2.527-.309-3.71 2.006-3.463 4.222.324 2.936 2.619 7.043 0 9.067.513-2.46.283-5.477-.347-7.405-.188-.575-.803-2.338-1.385-2.423-1.314-.19-.581 1.313-.347 2.008.192.57.347 1.117.485 1.522.575 1.682 1.283 3.31.485 4.915-.164.112-.684.12-.762-.07.522-1.951.033-4.045-.554-5.676-.478-1.329-1.623-3.436.346-3.322-.448-1.166-1.129-2.102-1.94-2.907-.661.71-1.307 1.333-1.454 2.422-.482 3.574 2.928 7.039.623 9.967.204-2.269.264-3.945-.692-5.26-.394-.54-.876-.885-1.247-1.453-1.967-3-3.559-5.287-7.204-6.506-1.404-.469-2.996-.895-3.741-1.799-.778-.948-1.01-2.907-.069-3.669.674 3.345 3.496 4.1 6.027 5.537 1.341.761 2.262 1.686 3.325 2.63.625.713 1.164 1.512 2.078 1.938.568-3.103 1.602-6.702 4.086-7.891-.051.886-.787 1.64-.762 2.769.028 1.206 1.141 3.581 2.078 3.668.563.053.661-.832.901-1.453.43-1.114.755-1.803 1.593-2.284-1.502-2.264-.22-5.588.207-7.821-1.841.305-2.929 1.363-3.809 2.63-.73-1.774 1.007-2.165 2.009-2.976.871-.706 1.279-1.423 1.662-2.285-3.684-.375-6.38 1.787-7.826 3.876.662-4.921 6.921-4.249 7.896-8.859-3.34-.104-7.1.6-9.422 1.938-1.673.995-1.101 3.698-1.385 5.884-.149-1.563-.766-2.916-.553-4.5.147-1.099.77-2.171 1.385-2.907 1.163-1.39 3.29-2.06 3.325-4.152-.559.175-.891.531-1.455.761-1.152.47-2.573.33-3.809.692-.814.238-2.058.98-2.287 1.662-.506 1.509.16 3.569.277 5.329.126 1.88-.056 3.114-.969 4.014.094-.648-.137-.971-.346-1.315 1.21-2.475-.376-5.528-.277-8.236.057-1.604.481-2.898.969-4.361-1.545.073-2.709.649-3.532 1.592-1.069 1.225-1.001 3.134-1.802 4.638-.501-4.407 1.341-5.708 4.156-6.992.545-.247 2.992-1.218 3.048-1.799.037-.389-.919-1.069-1.385-1.384-1.307-.883-2.31-1.205-3.879-1.661-.521-.152-1.859-.369-1.732-1.108.175-1.011 1.445-.052 1.94.208.523.275 1.168.522 1.592.693 1.877.747 3.407 1.57 4.227 3.183-1.09 1.506-2.659 2.79-2.148 5.675.797-.271 1.347-.902 2.216-1.246.873-.344 1.883-.412 2.911-.553 2-.276 3.71-1.059 4.986-1.8-1.068 1-1.131 3.03-2.008 4.153-.289.369-.905.536-.832 1.108 4.314-.387 7.535-2.197 10.113-4.361 2.02-1.695 3.789-3.728 4.989-6.021.589-1.129.854-2.737 1.591-3.669.054-.125-.363-.373-.207-.83 3.584-1.098 6.596 1.534 6.858 4.983.24 3.174-.832 5.404-1.801 7.683-2.224 5.23-6.084 10.126-7.689 15.434-.279.137-.334.497-.623.623.501.516.141 1.365-.416 1.592.587.2.324 1.182 0 1.454.214.188.162.27.208.554.286 1.747.52 3.134 1.177 4.429.647 1.273 1.368 2.315 2.493 3.184 2.082 1.607 5.032 2.309 8.868 2.492.572-1.367 2.058-2.187 3.81-2.146-.498.591-1.232 1.303-1.247 2.146 1.474-.38 2.485-1.276 3.463-2.146.693-.616 1.556-1.479 2.354-1.869.332-.161.782-.072 1.04-.415-2.411-1.682-5.689.254-7.965.554.237-1.716 2.632-1.515 4.503-1.384.246-1.438 1.6-1.768 2.978-2.077-.544-1.135-2.79-1.355-3.88-.761.119-.866.927-1.028 1.109-1.731-.7-.533-1.998-.885-3.048-.415-.508.227-.949.906-1.594 1.246-.987.521-2.375.294-3.324.761-.739.364-1.264 1.083-1.594 1.592.43.75-.184 1.704-.068 2.492.07.485.455.706.414 1.108-4.19-.153-5.987-3.084-5.611-7.545.193-2.274 1.13-4.628 2.079-6.575 3.467-7.125 10.038-12.146 8.867-23.048.225-.302.606-.08.831-.138-.078-1.47-1.533-1.561-2.494-2.146.225-.68 1.461-.465 2.009-.624-.145-1.631-1.319-2.234-2.563-2.768.352-.617 1.419-.521 2.009-.899-1.038-1.731-3.104-2.437-5.334-2.977.165-.551.849-.582 1.039-1.107-.514-.935-2.252-1.46-3.395-.762-.08.427-.136.879-.276 1.246-.268.131-.629.359-.97.208.199-1.747 1.572-2.324 2.492-3.461 1.035-1.274.985-2.823 1.664-4.568.147-.378.584-.739.485-1.246-1.118.294-1.947.683-2.563 1.454-.787.983-.969 2.503-2.147 3.114.18-1.478.843-2.54 1.593-3.46.766-.94 1.846-1.572 2.632-2.492-2.89-1.161-4.423 1.532-6.442 2.146.917-2.138 3.622-2.489 5.681-3.392.658-.289 1.537-.547 1.731-1.315-.909-.24-1.982-.392-2.909-.277-1.764.219-2.865 1.832-4.434 1.869 1.399-2.479 5.899-1.859 8.797-2.838-.244-.624-1.359-.979-2.009-1.107-1.618-.321-2.648.559-3.741.761.784-.911 1.615-1.35 2.979-1.454.895-.067 1.914.334 2.771.208.464-.068 1.619-.874 2.148-1.315 1.087-.907 2.275-2.515 2.563-3.806.309-1.389.156-2.655-.485-3.6-.783.21-.443 1.911-1.109 2.007.797-3.873-3.238-3.862-3.532-6.644 1.571 1.222 2.002 3.583 4.571 3.807.036-1.638-1.296-2.398-2.008-3.668-.628-1.122-.792-2.394-1.525-3.531-.549-.854-1.349-1.803-1.453-2.561-.051-.356.065-.595 0-.899-.168-.779-.921-1.362-.763-2.423.089-.596.6-.842.763-1.384.498-1.676-.594-2.689-.07-4.153-.856-1.545-3.22-1.95-4.572-2.768.038 1.042-.682 2.169-.623 3.045.07.369.541.703.416 1.038-.594-.422-1.17-.861-1.109-1.938-.417-1.221-2.261-1.017-3.393-1.523-.096.751-1.118.985-1.179 1.731-.146 1.789 1.218 2.25 1.663 3.391-.797-.305-1.507-1.14-1.594-1.73-.236-.52-.709-.378-1.039-.692-.163-.155-.158-.492-.415-.692-.746-.582-1.628-.019-2.632-.139-.41-.048-.59-.409-.9-.415.256 1.156-.775 1.672-.832 2.422-.031.419.367.704 0 1.108.256.536.974.878.832 1.592 1.687.73 3.119 1.565 4.779 2.215.543.212 1.219.346 1.732.622.946.51 2.573 2.436 2.84 3.531.241.989.262 1.826.623 2.699.926 2.242 2.502 4.608 2.215 7.614-.615.237-1.122.584-1.175 1.384-2.69.88-5.041 1.753-6.166 3.875-.387.73-.487 1.645-1.039 2.354-.225.288-.763.455-.901.831.834 1.006 2.733-.169 3.811.276-.97.093-1.306.819-1.94 1.247-.343.041-.471-.133-.623.068-.196.929-.957 2.123-.486 2.976.336.606 1.256.404 1.455 1.177-.869 1.416-1.045 3.524-1.801 5.053.126.774 1.379.422 1.593 1.107-1.532.295-3.427-.025-3.948-1.176 1.076-1.209 2.889-1.682 3.187-3.669-1.887.541-2.522-.689-3.81-.969 1.41-1.338 3.334-2.528 3.047-5.329-.865.287-1.725.824-2.493 1.384-.712.519-1.589 1.211-2.148 1.869-1.093 1.287-1.081 3.156-1.385 5.26-2.174-3.653 1.936-6.777 4.225-8.167-.071-.67.11-1.089.277-1.523 1.963-1.081 3.646-3.114 3.117-6.229-1.799 1.985-5.335 2.236-6.719 4.637-2.167.657-3.981 1.694-5.402 3.461-1.438 1.789-1.967 4.193-3.325 5.606-.212.221-.832.405-.832.693 0 .48.937.712.901 1.107-.252.455-.486.89-.554 1.384-.413 2.951 1.911 3.639 1.593 6.23-.117.949-.778 1.887-1.316 2.63-1.613 2.222-4.181 4.278-7.412 4.637-1.595.177-3.337-.009-5.057.069-3.93.178-7.817.624-9.836 3.253.576.512 1.539.996 1.594 1.799-2.862-.606-7.864-4.069-9.698-.761.501.248 1.142.433 1.593 1.039.158.212.19.554.346.76.192.255.732.474.831.832.234.839-.482 2.126-.554 3.322-.057.957.429 1.683.485 2.283.113 1.202-1.109 1.591-1.524 2.077.736 2.057 4.066 1.89 4.71 3.807-2.301-.138-3.638-2.088-5.749-2.354-.397-.049-1.228-.099-1.524.208.222.52.691.781.97 1.246.643 1.075.901 2.209 1.87 3.046.877.757 1.927 1.049 2.979 1.73.555-1.053 2.23-.477 3.602-.623.899-.095 1.361-.484 1.939-.83-1.263-2.361-3.58-3.668-3.879-6.991.885 1.465 2.573 2.302 4.434 2.838 4.012 1.157 8.429 1.74 9.836 5.329-1.679-.024-2.548-.705-3.602-1.453-2.131-1.514-4.129-3.198-7.62-2.838 1.156 3.807 4.521 5.77 7.689 7.336-2.09-.013-3.358-.953-4.572-1.937-.382-.31-.947-.847-1.316-.9-.574-.083-1.194.301-1.801.484.957 1.403 3.225 1.386 4.572 2.423.509.392.883.964 1.108 1.661-1.948-1.749-6.134-1.272-6.373-4.43-1.137.825-3.765.16-4.71 1.177.647 2.635 3.705 3.212 6.789 3.183-1.277 1.483-3.808-.192-5.542.555-.975.419-1.244 1.753-2.494 1.73-.265-1.701 1.739-1.72 1.94-3.184-1.499-.962-1.402-3.662-3.117-4.43-1.518-.679-4.053-.154-5.472.139.527-1.227 2-1.508 3.463-1.8-.757-1.951-2.353-4.599-5.403-4.153-.505.074-1.146.34-1.386.692 1.299.848 3.109 1.555 2.841 3.738-.408-.277-1.235-.254-1.732-.069-.513-2.501-4.089-3.933-6.65-2.492C1.117-4.3 3.601-3.598 4.434-1.246 2.647-2.389.44-4.653-2.563-4.36c-.412.039-.937.125-1.177.484C-2.584-2.47-.537-1.955.069 0Z" clip-path="url(#m)" style="fill:#ff0;fill-opacity:1;fill-rule:nonzero;stroke:none" transform="matrix(1.33333 0 0 -1.33333 480.66 221.34)"></path><path d="M0 0c-.048.466.277 1.221.485 1.73.222.545.522 1.077.831 1.454.728.888 1.778 1.515 2.009 2.353-.923-.394-1.63-.866-2.148-1.73-.284-.475-.36-1.1-.692-1.523-.818-1.041-2.612-.811-3.88-1.246.361 1.072-.508 1.542-.276 2.562.076.333.6.908.9 1.383.357.566.581 1.103.832 1.454 1.001 1.402 3.738 2.111 5.887 2.561 2.139.447 4.471.472 5.888 1.661.409.343.834.905 1.108 1.384.624 1.091 1.464 3.173 1.801 4.568.276 1.137-.086 1.631-.277 2.63-.154.808-.015 1.529-.346 2.077-.279.463-1.004.827-1.455 1.245-2.082 1.941-4.14 4.647-3.81 8.929.066.848.578 1.455.277 2.354-.44.12-.608-.705-.831-.346.88 2.605 2.282 4.524 3.948 6.159.845.829 1.76 1.721 2.91 2.146 2.274.841 5.402 1.113 8.105 1.661 1.242.253 2.801.411 3.809.97 1.508.834 2.553 2.857 2.979 4.637.92-.398 1.77-1.461 2.078-2.7-.306-.41-.914-.517-1.455-.692.635-.479 1.077-1.631.694-2.699-.479.054-.744.918-1.455.969.427-1.281 1.316-2.466.968-4.292-1.093.268-1.336 1.757-2.146 2.077.434-.948 1.202-2.101 1.316-3.53.119-1.5-.189-3.019.415-4.222.889.404.091 2.493 1.109 2.769 1.737-1.472 1.686-4.73 3.533-6.091-.97-.311-1.043-1.546-1.594-2.215-.609-.74-1.477-.933-2.494-1.177-.504 1.097.529 2.058.139 3.253-1.094-.636-1.675-1.856-2.562-2.768-.896-.92-1.904-1.691-3.187-2.076-.419.665.453 2.221-.277 2.768-.933-1.698-2.924-2.271-2.909-4.499.003-.676.268-1.405.484-2.007.207-.576.695-1.218.693-1.8-.001-.456-.408-.821-.416-1.245-.017-.982.932-1.849.485-2.977-.654-.762-1.004-1.643-1.524-2.491-.505-.825-1.209-1.334-1.939-2.077-.604-.615-1.194-1.398-1.801-2.215-.551-.74-1.42-1.616-1.663-2.353-.233-.709-.017-1.356-.207-2.008-.312-1.065-1.169-1.182-2.009-1.66-.533-.304-.638-1.002-.97-1.454-.156-.212-.489-.449-.762-.692-.255-.228-.543-.581-.762-.692-.827-.417-1.745-.19-2.494-.969-.125.727-.719.955-.969 1.453-.99 1.975.799 3.294 1.177 4.499-.702-.753-2.143-1.633-2.217-2.838-.024-.401.346-.787.347-1.245 0-.221-.209-.723-.277-.831C4.58-.939 2.146-.818.969-1.8 1.012-.766.081-.791 0 0" clip-path="url(#n)" style="fill:#ff0;fill-opacity:1;fill-rule:nonzero;stroke:none" transform="matrix(1.33333 0 0 -1.33333 498.024 324.422)"></path><path d="M0 0c.613-.622.87.286 1.385.761.355.328 2.038 1.276.901 1.592C1.177 2.662.092.794 0 0" clip-path="url(#o)" style="fill:#000;fill-opacity:1;fill-rule:nonzero;stroke:none" transform="matrix(1.33333 0 0 -1.33333 514.094 314.917)"></path><path d="M0 0c-.77-.069-.949-.688-1.316-1.177-.498-.664-2.114-1.394-1.939-2.215.225-1.062 2.079.099 2.493.623.199.251.839 1.202.97 1.523C.396-.789.439-.282 0 0" clip-path="url(#p)" style="fill:#000;fill-opacity:1;fill-rule:nonzero;stroke:none" transform="matrix(1.33333 0 0 -1.33333 522.96 303.934)"></path><path d="M0 0c-.6-.294-.079-.812.139-1.384.274-.721.084-1.639.762-1.869.207.116.329.316.485.484C1.416-1.354.96-.426 0 0" clip-path="url(#q)" style="fill:#000;fill-opacity:1;fill-rule:nonzero;stroke:none" transform="matrix(1.33333 0 0 -1.33333 520.374 297.29)"></path><path d="M0 0c-.507-.368-.62-1.136-.693-1.661-.137-.985-.139-2.248.139-3.254.476-1.721 2.265-4.027 3.533-4.36.222-.058.524.324.554.484.09.485-.534 1.059-.901 1.523C1.154-5.395.181-3.125 0 0" clip-path="url(#r)" style="fill:#000;fill-opacity:1;fill-rule:nonzero;stroke:none" transform="matrix(1.33333 0 0 -1.33333 512.524 279.479)"></path><path d="M0 0c-.597.927-2.127.589-3.324.761-1.192.172-2.137.724-2.91.9C-5.921.182-3.072-1.023-.9-.692c.453.069.647.311.9.692" clip-path="url(#s)" style="fill:#000;fill-opacity:1;fill-rule:nonzero;stroke:none" transform="matrix(1.33333 0 0 -1.33333 569.971 290.46)"></path><path d="M0 0c-.815-2.163 1.318-5.048 2.84-5.468.488-.135.833.486.762.969-.077.522-.783.838-1.178 1.177-.745.638-1.412 1.529-1.87 2.491C.43-.569.426-.064 0 0" clip-path="url(#t)" style="fill:#000;fill-opacity:1;fill-rule:nonzero;stroke:none" transform="matrix(1.33333 0 0 -1.33333 516.773 282.986)"></path><path d="M0 0c-.058.378-.298.151-.485.208-.724.218-1.118.678-2.148.623-.161-.116-.266-.287-.415-.415C-2.938-.812-.594-.781 0 0" clip-path="url(#u)" style="fill:#000;fill-opacity:1;fill-rule:nonzero;stroke:none" transform="matrix(1.33333 0 0 -1.33333 572.927 288.154)"></path><path d="M0 0c-.088.707-.913 1.125-1.454 1.592-.594.511-1.173.971-1.594 1.592-.424 1.26-.996 2.741-2.078 3.114-.862-.539.006-1.679.277-2.353.221-.549.297-1.172.555-1.591C-3.538 1.12-1.476.427-.138 0Z" clip-path="url(#v)" style="fill:#000;fill-opacity:1;fill-rule:nonzero;stroke:none" transform="matrix(1.33333 0 0 -1.33333 552.238 285.2)"></path><path d="M0 0c-.284-1.232-.262-2.371-.623-3.668-.183-.656-.989-2.189 0-2.285.216-.02.696.27.831.415C1.196-4.467 1.309-.843 0 0" clip-path="url(#w)" style="fill:#000;fill-opacity:1;fill-rule:nonzero;stroke:none" transform="matrix(1.33333 0 0 -1.33333 527.578 275.88)"></path><path d="M0 0c.003-1.288.623-2.777.484-4.706C.405-5.82-.555-7.851.346-8.098c.409-.112 1.004.341 1.177.623C2.54-5.828 1.781-2.06.969-.761.75-.411.375-.014 0 0" clip-path="url(#x)" style="fill:#000;fill-opacity:1;fill-rule:nonzero;stroke:none" transform="matrix(1.33333 0 0 -1.33333 529.242 272.189)"></path><path d="M0 0c-.07-.989.571-2.146.762-3.53.14-1.019.143-2.757 0-3.876-.076-.59-.537-1.909.346-2.007.627-.07 1.168.945 1.247 1.592C2.688-5.065 1.536-.914 0 0" clip-path="url(#y)" style="fill:#000;fill-opacity:1;fill-rule:nonzero;stroke:none" transform="matrix(1.33333 0 0 -1.33333 531.18 269.604)"></path><path d="M0 0c-.046.254-.256.344-.415.484-1.237-.062-1.729-2.645-.277-2.838C.399-2.046-.824-.625 0 0" clip-path="url(#z)" style="fill:#000;fill-opacity:1;fill-rule:nonzero;stroke:none" transform="matrix(1.33333 0 0 -1.33333 543.465 273.203)" data-source="https://football-logos.cc"></path><path d="M0 0c-.408.314-1.231.305-1.871.554-.616.239-1.107.662-1.662.83C-4.065-.392-.892-1.382 0 0" clip-path="url(#A)" style="fill:#000;fill-opacity:1;fill-rule:nonzero;stroke:none" transform="matrix(1.33333 0 0 -1.33333 571.82 260.745)"></path><path d="M0 0c-.827 1.081-1.792-.715-3.048-1.039-.494-.127-1.214-.097-1.247-.691-.019-.362.233-.702.831-.624C-2.232-2.191-.576-.959 0 0" clip-path="url(#B)" style="fill:#000;fill-opacity:1;fill-rule:nonzero;stroke:none" transform="matrix(1.33333 0 0 -1.33333 549.467 257.053)"></path><path d="M0 0c-.788-.479-2.59.06-2.563-.969.018-.693 1.204-.607 1.801-.277.108.06.104.264.277.415C-.27-.643.133-.554 0 0" clip-path="url(#C)" style="fill:#000;fill-opacity:1;fill-rule:nonzero;stroke:none" transform="matrix(1.33333 0 0 -1.33333 572.927 256.962)"></path><path d="M0 0c.786-.313 1.991.421 2.7 1.039.543.471 1.979 1.767.832 1.937-.449.067-1.027-.658-1.523-1.038C1.265 1.367.786 1.45.208 1.177-.27.951-.676.269 0 0" clip-path="url(#D)" style="fill:#000;fill-opacity:1;fill-rule:nonzero;stroke:none" transform="matrix(1.33333 0 0 -1.33333 542.08 256.777)"></path><path d="M0 0c-1.204-.097-1.573-1.213-2.563-1.661-.619-.28-1.866-.275-1.939-.969-.032-.307.248-.756.831-.692.799.087 1.463.444 2.356 1.107C-.517-1.622.737-.644 0 0" clip-path="url(#E)" style="fill:#000;fill-opacity:1;fill-rule:nonzero;stroke:none" transform="matrix(1.33333 0 0 -1.33333 544.11 250.409)"></path><path d="M0 0c-.051.295-.28.412-.416.623-1.385-.071-2.049-1.571-3.81-1.938-.678-.142-1.777-.149-1.87-.831-.076-.564.478-.916 1.246-.83C-3.055-2.775-.969-1.18 0 0" clip-path="url(#F)" style="fill:#000;fill-opacity:1;fill-rule:nonzero;stroke:none" transform="matrix(1.33333 0 0 -1.33333 541.802 249.117)"></path><path d="M0 0c-1.105-.246-1.533-1.212-2.355-1.869-.726-.579-1.751-1.26-2.702-1.523-.831-.23-2.238.045-2.356-.761-.232-1.607 2.556-.815 3.395-.415 1.334.635 2.408 1.615 3.393 2.699C-.187-1.388.634-.661 0 0" clip-path="url(#G)" style="fill:#000;fill-opacity:1;fill-rule:nonzero;stroke:none" transform="matrix(1.33333 0 0 -1.33333 538.57 244.687)"></path><path d="M0 0c1.396-.469.863 1.386.485 2.146-.51 1.025-1.075 1.693-1.94 2.491-.469.433-1.713 1.521-1.869.347-.111-.822 1.842-2.072 2.216-2.769C-.715 1.483-.838.282 0 0" clip-path="url(#H)" style="fill:#000;fill-opacity:1;fill-rule:nonzero;stroke:none" transform="matrix(1.33333 0 0 -1.33333 556.487 251.332)"></path><path d="M0 0c-.632.655-1.298-.098-1.801-.484-1.419-1.089-3.631-2.287-5.888-2.423-.603-.036-1.468.14-1.524-.553-.041-.517.606-.732.762-.9 2.32-.138 3.961.714 5.472 1.592C-1.78-2.072-.396-1.302 0 0" clip-path="url(#I)" style="fill:#000;fill-opacity:1;fill-rule:nonzero;stroke:none" transform="matrix(1.33333 0 0 -1.33333 526.932 243.857)"></path><path d="M0 0c-.513.655-1.193.131-1.663-.138-1.462-.838-3.295-1.768-5.402-1.939-.724-.058-3.077.405-3.256-.415-.255-1.159 1.461-1.344 2.701-1.246 1.419.113 3.066.612 4.433 1.246C-1.86-1.876-.437-1.111 0 0" clip-path="url(#J)" style="fill:#000;fill-opacity:1;fill-rule:nonzero;stroke:none" transform="matrix(1.33333 0 0 -1.33333 522.684 238.874)"></path><path d="M0 0c-1.191.442-2.271-.591-3.463-.969-1.467-.465-3.405-.854-5.195-.623-.674.087-1.934.627-2.356.069-.438-.58.061-1.459.555-1.73.85-.466 2.257-.395 3.255-.277 1.363.161 2.857.698 4.157 1.246C-1.797-1.756-.203-1.217 0 0" clip-path="url(#K)" style="fill:#000;fill-opacity:1;fill-rule:nonzero;stroke:none" transform="matrix(1.33333 0 0 -1.33333 520.374 233.982)"></path><path d="M0 0c.646-.038 2.836-.336 2.84.554.002.372-.606.63-1.039.692-1.518.217-3.969-.151-5.819-.07-.954.043-2.108.147-2.078-.622.034-.849 1.81-.369 2.701-.346C-2.042.243-1.06.062 0 0" clip-path="url(#L)" style="fill:#000;fill-opacity:1;fill-rule:nonzero;stroke:none" transform="matrix(1.33333 0 0 -1.33333 476.874 219.124)"></path><path d="M0 0c-1.419.591-1.794-.877-2.425-1.73-1.106-1.495-3.199-2.722-4.017-4.291-.02-.112.065-.12.069-.208.056-.014.069-.069.138-.069 2.501.432 3.664 1.705 4.849 3.599C-.825-1.805-.239-.85 0 0" clip-path="url(#M)" style="fill:#000;fill-opacity:1;fill-rule:nonzero;stroke:none" transform="matrix(1.33333 0 0 -1.33333 538.108 210.45)"></path><path d="M0 0c-.616-.438-1.683-.848-1.385-1.869.177-.608 1.092-.749 1.454 0C.247-1.502.562-.049 0 0" clip-path="url(#N)" style="fill:#000;fill-opacity:1;fill-rule:nonzero;stroke:none" transform="matrix(1.33333 0 0 -1.33333 537.369 215.433)"></path><path d="M0 0c-2.843.002-4.461-1.817-7.689-1.661.447.433 1.396.616 2.424 1.038.634.26 2.124.804 2.009 1.384-.123.627-1.383.282-1.87.692-.58.993.251 1.466 1.039 2.008.95.652 1.478 1.091 2.355 1.799.406.328.92.789 1.178.83.815.133 1.404-.611 2.147-.484-.811 2.486.445 5.139.346 7.544-.488.076-.45-.567-.554-.83-.799-2.026-2.134-5.115-3.948-6.23-.343-.21-.837-.348-1.316-.345-.894 1.424.875 2.923 1.108 4.291.159.935.021 2.09-.693 2.492-.362-.204-.257-.644-.346-.969-.376-1.373-1.087-2.608-2.148-3.323-.239.996.092 2.808-.623 3.738-.114.149-.75.863-.9.761-.101-.068.061-3.257-.139-3.945-.375-1.289-1.502-2.303-1.593-3.53 1.569-.565 2.486.99 3.81.9.295-1.472-2.836-2.586-2.84-3.599-.004-.687.787-.737 1.316-1.038-1.145-1.14-2.911-1.659-4.78-2.077-.372.789.436 1.363.208 2.007-.327.18-.52-.221-.762-.346C-14.218.093-17.57.28-20.435 0c.14-.607 1.041-1.28 1.802-1.523 1.542-.493 3.849-.249 5.541-.623 1.339-.295 2.378-1.146 3.394-1.315 2.4-.398 4.52.297 6.303.831.566.443 1.21.817 1.802 1.246C-1.032-.978-.349-.618 0 0" clip-path="url(#O)" style="fill:#000;fill-opacity:1;fill-rule:nonzero;stroke:none" transform="matrix(1.33333 0 0 -1.33333 530.35 209.158)"></path><path d="M0 0c-.28.51-.898.618-1.316.899-.388.262-.894.584-1.178.97-.552.747-.323 1.894-1.178 2.491-.582-.269-.808-1.109-.693-1.73.145-.776 1.406-1.272 1.316-2.146C-2.566-.216-.922-.568 0 0" clip-path="url(#P)" style="fill:#000;fill-opacity:1;fill-rule:nonzero;stroke:none" transform="matrix(1.33333 0 0 -1.33333 579.208 207.68)"></path><path d="M0 0c.164-.081.649-.07.969.069.834.36 1.954 1.529 2.771 2.492 1.085 1.277 2.123 2.527 1.871 4.914-.02.181-.209 1.195-.555 1.176-.525-.028-.383-1.178-.416-1.383-.359-2.351-2.008-3.741-3.601-5.053C.803 2.02-1.212.6 0 0" clip-path="url(#Q)" style="fill:#000;fill-opacity:1;fill-rule:nonzero;stroke:none" transform="matrix(1.33333 0 0 -1.33333 530.35 206.574)"></path><path d="M0 0c-.378 1.135-4.279 1.792-4.226.138.03-.93 1.039-.597 2.009-.553C-1.285-.373-.151-.58 0 0" clip-path="url(#R)" style="fill:#000;fill-opacity:1;fill-rule:nonzero;stroke:none" transform="matrix(1.33333 0 0 -1.33333 517.327 204.359)"></path><path d="M0 0c-.712-.006-.57-.654-.831-1.246-.444-1.007-1.792-1.245-1.593-2.422.088-.523.679-.748 1.108-.485.182.112.438.771.693 1.177C-.144-2.211 1.075-.974 0 0" clip-path="url(#S)" style="fill:#000;fill-opacity:1;fill-rule:nonzero;stroke:none" transform="matrix(1.33333 0 0 -1.33333 531.273 188.67)"></path><path d="M0 0c-1.827-.213-4.07.241-6.166.069C-7.497-.04-9.083-.213-9.49-1.315c.21-.77 1.202-.573 2.217-.623 1.124-.056 2.561-.465 3.601-.554C-1.398-2.686 1.937-1.829 0 0" clip-path="url(#T)" style="fill:#000;fill-opacity:1;fill-rule:nonzero;stroke:none" transform="matrix(1.33333 0 0 -1.33333 502.827 186.547)"></path><path d="M0 0c.525-.836 1.618-.806 2.424-1.177 1.466-.675 2.649-1.672 2.979-3.599.344-.279.542-.704 1.316-.554.627.391.679 1.257.277 2.146C6.441-1.958 4.527-.385 2.84.138 1.903.429.716.689 0 0" clip-path="url(#U)" style="fill:#000;fill-opacity:1;fill-rule:nonzero;stroke:none" transform="matrix(1.33333 0 0 -1.33333 516.865 181.472)"></path><path d="M0 0c.953-.408 2.219-1.104 4.018-.899C5.267.045 3.09.333 2.078.831 1.261 1.233.487 2.199-.208 2.077c-.596-.105-.774-.923-.346-1.523-.733.353-1.27.901-2.425.83-.174-.149-.282-.363-.415-.553.052-.293.289-.404.415-.623C-1.508.085-.767-.766-.554-2.145c.381-.576 1.391-.791 1.593-.07C1.293-1.307.318-.549 0 0" clip-path="url(#V)" style="fill:#000;fill-opacity:1;fill-rule:nonzero;stroke:none" transform="matrix(1.33333 0 0 -1.33333 529.61 182.026)"></path><path d="M0 0c-.186.803-1.346.781-2.355 1.246-.35.16-.72.45-1.109.692-.367.228-.787.625-1.108.623-.608-.003-.811-.625-.762-1.177C-4.771.592-3.39-.247-2.078-.415-1.359-.508-.423-.503 0 0" clip-path="url(#W)" style="fill:#000;fill-opacity:1;fill-rule:nonzero;stroke:none" transform="matrix(1.33333 0 0 -1.33333 538.2 181.195)"></path><path d="M0 0c-.028.272-.306.296-.347.554-1.632.146-2.908.647-4.155 1.177C-6.765-.009-1.258-1.442 0 0" clip-path="url(#X)" style="fill:#000;fill-opacity:1;fill-rule:nonzero;stroke:none" transform="matrix(1.33333 0 0 -1.33333 539.493 177.781)"></path><path d="M0 0c-1.105 1.85-4.302 3.227-7.065 1.938-.593-.276-1.619-.855-1.524-1.385.168-.932 1.343-.397 1.94-.069.884.488 2.492.636 3.74.139C-2.53.472-1.692.11-1.594-.416c.109-.571-.559-1.436-.76-1.73C-3.095-3.22-4.56-4.377-6.165-4.43c-1.127-.037-2.489.706-2.563-.623-.029-.537.175-.47.485-.899.944.201 1.355-.681 2.217-.693.019 0 .051-.005.069 0C-3.081-5.758-.229-3.641 0 0" clip-path="url(#Y)" style="fill:#000;fill-opacity:1;fill-rule:nonzero;stroke:none" transform="matrix(1.33333 0 0 -1.33333 544.11 166.245)"></path><path d="M0 0c-.186.789-1.168.813-1.939.623-.88-.216-2.98-1.751-3.187-2.63-.257-1.092.937-1.422 1.524-.692C-3.191-1.01-1.806-.295 0 0" clip-path="url(#Z)" style="fill:#000;fill-opacity:1;fill-rule:nonzero;stroke:none" transform="matrix(1.33333 0 0 -1.33333 540.417 167.445)" data-source="https://football-logos.cc"></path><!-- source: https://football-logos.cc --></svg>