<svg xmlns="http://www.w3.org/2000/svg" xml:space="preserve" viewBox="0 0 630.7 755.9"><!-- Source: https://football-logos.cc --><path d="M711.168 5019.75c324.542-9.49 562.782 28.2 783.422 138.25 283.71 141.49 513.23 402.95 625.83 655.83l1712.96.26c133.4-249.63 359.24-474.93 576.19-591.66 238.29-128.21 457.53-178.9 800.19-161.83 168.67-810.56 159.65-1344.37 61.52-1965.69-103.39-654.51-377.59-1193.89-645.67-1590.68-339.31-502.19-973.59-1042.335-1692.34-1359.425-280.72 137.34-553.13 298.172-777.44 473.691C1636.84 1024.61 1225.5 1532.66 953.105 2170.65c-167.125 391.46-294.906 874.24-323.894 1253.01-12.731 166.32-18.754 350.8-17.856 539.53 1.782 373.07 39.813 778.68 99.813 1056.56" style="fill:#fff;fill-opacity:1;fill-rule:evenodd;stroke:none" transform="matrix(.13333 0 0 -.13333 -81.502 775.212)" data-source="https://football-logos.cc"></path><path d="M711.168 5019.75c324.542-9.49 562.782 28.2 783.422 138.25 283.71 141.49 513.23 402.95 625.83 655.83l1712.96.26c133.4-249.63 359.24-474.93 576.19-591.66 238.29-128.21 457.53-178.9 800.19-161.83 168.67-810.56 159.65-1344.37 61.52-1965.69-103.39-654.51-377.59-1193.89-645.67-1590.68-339.31-502.19-973.59-1042.335-1692.34-1359.425-280.72 137.34-553.13 298.172-777.44 473.691C1636.84 1024.61 1225.5 1532.66 953.105 2170.65c-167.125 391.46-294.906 874.24-323.894 1253.01-12.731 166.32-18.754 350.8-17.856 539.53 1.782 373.07 39.813 778.68 99.813 1056.56m186.707-2063.01L2925.04 981.695 5054.61 3028.26 3034.95 5003.3z" style="fill:#231f20;fill-opacity:1;fill-rule:evenodd;stroke:none" transform="matrix(.13333 0 0 -.13333 -81.502 775.212)"></path><path d="M805.109 4903.36c-42.492-229.87-63.019-475-73.019-704.97-3.414-78.53-5.402-157.14-5.781-235.75-.836-176.6 4.043-354.1 17.523-530.21 11.152-145.71 35.723-299.67 70.066-454.24L3035.48 5105.68l2110.27-2063.64c4.23 23.54 8.24 47.14 11.98 70.81 24.63 155.95 44.47 312.55 56.29 470.03 34.97 466.2-8.79 905.42-97.7 1359.71-277.3-3.67-506.1 41.34-761.22 178.61-232.52 125.11-449.94 346.12-588.68 577.93l-1573.78-.24c-139.08-269.11-379.09-510.28-646.74-643.76-236.86-118.14-482.53-151.79-740.791-151.77m21.305-1979.72c58.484-247.09 140.879-493.44 232.416-707.85 258.27-604.92 651.74-1102.92 1167.84-1506.759 216.61-169.496 462.15-313.695 708.92-437.129C3532.42 545.688 4164.5 1027.09 4530.36 1568.59c294.87 436.45 510.62 921.43 609.06 1439.14L2924.69 879.324z" style="fill:#ea1f2a;fill-opacity:1;fill-rule:evenodd;stroke:none" transform="matrix(.13333 0 0 -.13333 -81.502 775.212)"></path><path d="m3250.3 4174.18 3.58-919.68-51.8-489.11-17.43-986.01 256.03-293.42-1061.08 2.86 347.78 336.38 9.21 850.1 43.58 638.36-10.71 861.13-305.3 276.82h1135.83z" style="fill:#ea1f2a;fill-opacity:1;fill-rule:evenodd;stroke:none" transform="matrix(.13333 0 0 -.13333 -81.502 775.212)"></path><path d="m1674.63 3222.15 2581.21-40.5 11.74 15.68 284.15 286.77-5.75-1014.84-252.75 235.13-161.63 26.57-360.05 11.1-131.41-1.97-22.04 6.7-1293.96 39.87-18.03-8.51-129.66 7.43-20.56 6.26-309.26 9.54-207.45-62.52-257.66-237.03 43.25 945.34z" style="fill:#ea1f2a;fill-opacity:1;fill-rule:evenodd;stroke:none" transform="matrix(.13333 0 0 -.13333 -81.502 775.212)"></path><path d="M2924.81 4184.72h197.03v-323.13h-197.03z" style="fill:#231f20;fill-opacity:1;fill-rule:evenodd;stroke:none" transform="matrix(.13333 0 0 -.13333 -81.502 775.212)"></path><path d="M2957 4152.54h132.65v-361.58H2957z" style="fill:#fff;fill-opacity:1;fill-rule:evenodd;stroke:none" transform="matrix(.13333 0 0 -.13333 -81.502 775.212)"></path><path d="m3272.49 4161.25-1.11-914.77-53.36-542.92-11.48-908.83 287.92-325.46-1156.53.8 365.3 355.88-5.39 151.48 9.09 19.68 14.84 688.14 40.92 625.3-7.38 858.45-326.91 296.4h1211.18zm-760.67 271.96h1035.39l-315.34-250.17 3.61-927.6-51.77-488.92-17.57-993.9 233.99-268.16-975.18 2.63 320.74 310.23 9.28 857.26 43.6 638.57-10.82 869.89z" style="fill:#231f20;fill-opacity:1;fill-rule:evenodd;stroke:none" transform="matrix(.13333 0 0 -.13333 -81.502 775.212)"></path><path d="m1686.45 3235.64 2551.11-40.01 335.98 348.36-3.44-1069.81-57.88-19.34-217.98 206.5-152.61 62.52-306.97 5.38-152.53.74-17.7 8.38-302.11 7.39-114.16.38-14.78 5.37-466.72 14.21-479.87-3.89-316.85.7-12.8 9.99-242.04 2.03-347.98-333.38 31.54 1061.3zm-284.52-690.03 39.43 861.86 226.09-203.6 2597.48-40.75 16.61 22.16 251.55 253.87-5.26-927.88-226.13 210.37-168.32 27.67-361.68 11.15-128.97-1.93-21.62 6.57-1300.83 40.08-17.78-8.4-122.8 7.04-20.79 6.33-314.71 9.7-214.37-64.6z" style="fill:#231f20;fill-opacity:1;fill-rule:evenodd;stroke:none" transform="matrix(.13333 0 0 -.13333 -81.502 775.212)"></path><path d="M2861.83 3573.15c-12.66-24.49-37.56-42.8-65.68-43.11-22.86-.26-37.58 16.63-35.69 39 1.74 20.68 19.12 35.86 39.57 36.6 6.1.23 11.62-1.02 17.05-3.78 4.99-2.55 9.28-6.22 14.26-8.64 6.21-3.02 12.98-3.59 19.8-3.31l19.79.83z" style="fill:#ea1f2a;fill-opacity:1;fill-rule:evenodd;stroke:none" transform="matrix(.13333 0 0 -.13333 -81.502 775.212)"></path><path d="M2766.88 3762.6c0 19.97 30.58 33.61 46.67 23.58 23.3-14.52 33.98-36.23 48.8-58.14 8.87-13.13 4.94-37.19-14.15-37.69l-57.2-1.48c-13.38-.35-24.12 8.01-24.12 21.86z" style="fill:#fff;fill-opacity:1;fill-rule:evenodd;stroke:none" transform="matrix(.13333 0 0 -.13333 -81.502 775.212)"></path><path d="M2744.2 3817.15c.69 35.72 31.86 55.32 64.23 59.59 26.85 3.53 73.27-3.52 82.5-33.72 4.52-14.77 2.8-33.01-5.85-45.97-10.88-16.28-32.97-22.04-49.52-10.89-4.1 2.76-25.99 19.22-30.24 19.28-13.37.2-18.68-4.23-29.72-10.4-6.14-3.43-14.05-3.03-20.11.37-7.97 4.48-11.45 12.88-11.29 21.74" style="fill:#fff;fill-opacity:1;fill-rule:evenodd;stroke:none" transform="matrix(.13333 0 0 -.13333 -81.502 775.212)"></path><path d="M2857.82 2005.52h195.06l136.57-20.9 1.35-91.41h-135.95v-135.95h-197.03v133.99h-135.96l-.09 98.63z" style="fill:#231f20;fill-opacity:1;fill-rule:evenodd;stroke:none" transform="matrix(.13333 0 0 -.13333 -81.502 775.212)"></path><path d="M2890 1973.34h132.66v-183.89H2890zm-300.67 1814.29c10.61 8.94 25.46 2.69 35.52-3.82 6.05-3.92 14.25-10.45 18.09-16.61 25.58-41.1 53.34-68.77 99.7-84.75 17.33-5.98 37.08-7.95 55.31-8.95 23.22-1.26 46.63-1.02 69.89-1.4 8.97-.14 17.88-3.28 22.07-11.83 7.34-14.95-5.97-32.57-17.63-40.95-6.62-4.75-14.45-8.13-22.64-8.61-53.07-3.05-89.78-3.31-138.39 22.87-44.4 23.92-88.93 68.9-115.01 111.81-5.89 9.7-18.66 32.34-6.91 42.24m-893.57-708.77 27.6-130.13 323.33-23.65 88.74 142-295.7 21.67zm2119.64-42.35 153.69-149.74 277.82 11.82 23.64 102.46-155.66 41.37z" style="fill:#fff;fill-opacity:1;fill-rule:evenodd;stroke:none" transform="matrix(.13333 0 0 -.13333 -81.502 775.212)"></path><path d="M1941.61 2907.94c-52.94-57.41-126.04-96.79-194.13-113.88-28.08-7.04-52.17-11.29-71.39-13.7-28.11-3.52-46.16-5.35-71.7-24.73-16.03-12.17-23.25-45.37-6-62.75 9.4-9.49 24.97-12.93 36.92-13.25 116.84-3.06 281.92 39.44 347.3 83.19l108.54 1.54c23.22-10.79 2.56-25.55-15.32-50.78-39.36-55.51-86.09-122.45-129.97-140.32-35.74-14.56-70.05-17.13-99.41-23.94-37.75-8.76-66.69-24.63-73.17-37.34-6.94-13.59-.88-25.18 15.38-18.36 12.8 5.36 33.05 14.83 53.04 21.47 24.9 8.27 49.13 12.96 54.88 9.41 4.63-2.88 1.92-13.02-11.07-23.23-14.73-11.59-38.05-23.76-45.77-32.49-12.48-14.13-2.72-19.14 12.36-19.28 12.5-.12 22.22 3.6 30.19 6.75 5.85 2.31 17 8.53 24 14.26 19.34 15.83 44.21 39.93 69.63 68.65 80.4 90.87 171.58 224.67 181.64 235.64 6.78 7.4 27.49 1.99 34.5 9.26-.53 36.28 64.42 88.19 100.16 110.28 21.62 13.37 43.98 16.52 45.92 2.09 1.7-12.72-17.68-42.48-22.69-49.62-13.72-19.55-29.31-39.76-41.64-58.74-3.17-4.89-6.39-9.76-9.64-14.61-3.4-20.8-7.1-30.64-16.91-44.31-12.65-17.61-27.96-33.21-40.39-51.29-48.41-70.43-105.82-185.18-155.75-250.88-37.85-49.8-61.83-80.04-88.66-101.75-12.2-9.87-25-15.63-39.94-24.78-19.39-11.88-10.37-51.77 52.87-47.19 64.2 4.65 143.72 42.16 215.41 102.2 33.79 28.28 71 59.23 94.32 98.55 30.97 52.22 75.42 140.76 112.56 209.03 28.96 53.23 38.59 92.59 83.3 108.53 12.74 12.71-10.44 33.45 5.65 42.07 30.12 16.13 49.55 7.15 43.78-17.02-1.5-6.26-4.01-13.55-7.34-21.69-16.61-19.33 28.16-.65 8.59-46.6-32.39-76.01-80.74-196.77-185.19-276.49-3.43-2.63-5.15-12.2-.79-15.93 4.49-3.84 14.2-1.93 18.23.02 32.08 15.45 61.66 42.58 88.55 64.22 51.33 41.32 92.9 83.51 123.51 132.55 27.99 44.83 42.91 78.01 51.73 113.72 6.43 26.1 90.98 18.7 74.54-24.43-19.28-50.6-61.64-98.41-133.01-145.3-13.65-8.96-2.87-18.65 4.99-15.68 34.35 12.95 67.31 10.12 45.08-28.05-20.74-35.6-65.26-107.31-106.29-163.6-18.01 6.46-25.44 15.64-41.31 18.54-11.78 2.15-60.58-22.94-76-72.83-5.06-16.4-10.13-35.57-9.54-56.5.46-16.28 5.52-33.63 9.14-51.57 7.16-35.43 27.17-70.27 45.38-106.83 19.38-38.92 35.68-67.61 67.52-111.27-3.62-15.45-20.66-113.14-23.99-138.99-.67-5.25-9.67-32.68 9.97-33.57 12.78-.57 27.84 32.74 53.81 19.48 19.31-9.86 30.78-50.09 37.9-64.49 8.16-16.5 32.69-13.45 32.32 13.81-.71 52.65.47 87.41 5.04 115.83 10.07 62.52 33.93 73.66 51.11 73.67 14.53 0 24.85-9.59 33.95-27.71 11.98 2.55 31.08 38.24 39.52 30.92 32.12-27.86 109.71 3.17 128.15 3.19l175.31.08c42.71 7.75 98.79-32.84 142.36-23.34 2.19.46 44.85 16.42 58.64 7.58 8.26-5.29 12.03-19.38 10.87-29.74-4.54-40.32-4.9-91.28 4.51-135.68 7.92-37.33 21.22-35.71 26.08-25.35 7.34 15.62 16.77 29.14 34.81 39.53 18.03 10.38 41.41-9.05 46.12-13.67 6.03-5.93 25.33-4.07 23.53 10.81-4 33.15-22.26 116.91-14.5 145.11 16.45 14.87 27.02 27.49 33.34 39.97l91.93 181.41c12.67 25.02 29.8 54.15 29.32 71.26-.91 32.71-2.67 74.62-51.92 94.7-18.11 7.39-46.52 6.04-79.09 11-45.15 74.75-77.62 136.24-88.76 161.5-15.94 36.12.07 34.27 7.46 34.69 13.03.75 28.49-15.78 38.31-21.81 6.43-3.95 15.51 2.41 15.1 10.38-.32 6.2-8.53 13.63-13.55 17.46-116.51 88.88-106.48 150.79-98.44 177.57 4.9 16.32 55.63 21.85 60.54 7.36 19.58-57.77 66.12-169.39 112.96-227.23 44.01-54.33 89.05-78.22 101.27-83.75 14.7-6.65 23.23 5.21 7.77 24.28-20.41 25.16-42.82 51.14-58 77.14-22.09 37.81-29.27 61.76-41.15 88.83-22.84 52.01-34.55 76.91-31.44 97.24 2.41 15.8 13.78 16.18 20.1 18.82 6.74 2.8 13.85 5.56 23.9 5.56 11.89.01 20.16-22.63 37.4-67.65 17.42-45.5 37.67-86.7 57.5-131.87 62.43-142.23 145.14-238.93 233.92-291.1 49.81-29.26 116.95-46.76 149.37-48.29 21.7-1.03 59.57 7.38 28.38 37.54-29.24 28.27-58.81 48.19-83.37 73.55-58.97 60.9-69.37 118.34-98.74 170.87-20.61 36.84-36.2 81.05-51.34 112.74-23.62 49.44-41.96 75.66-44.03 111.35-.79 13.55 11.89 27.2 22.13 32.25-1.19 5.97-35.62 4.94-34.24 8.54-8.72 11.39-43.85 51.02-57.38 83.68-5.3 12.77-16.53 25.32-5.23 33.44 13.33 9.55 29.98 4.38 47.95-13.64 19.13-19.17 39.63-52.11 54.73-70.46 9.81-11.92 20.13-21.89 9.19-39.93 3.26 1.02 24.25-4.3 43.81-28.74 34.86-43.58 68.54-116.67 138.66-190.05 15.74-16.47 30.46-34.27 45.54-49.01 15.86-15.51 39-29.68 52.93-42.06 35.62-31.67 59.89-51.51 65.55-54.87 4.35-2.57 11.76 2.89 8.47 11.59-4.86 12.86-26.57 25.89-47.75 49.99-15.27 17.38-4.14 21.22 9.39 18.88 9.17-1.59 67.32-16.27 76.9-19.57 15.54-5.36 29.79 11.63 2.9 21.19-61.07 21.71-141.79 46.99-188.42 90.96-48.67 45.9-85.2 116.74-100.11 154.31-6.29 15.84 7.57 25.07 21.38 39.33l-51.18 5.34c-9.35 22.19-34.78 28.91-12.82 45.96 8.87 6.9 52.45 1.5 98.26-25.11 2.51-1.45 19.89-10.34 47.14-28.18 9.18-7.45 19.66-25.33 36.97-35.22 17.32-9.89 41.48-11.8 70.12-26.67 37.41-19.43 55.79-37.57 120.71-53.7 43.55-10.83 146.67-5.57 177.66 1.03 47.52-8.56-34.6 64.9-28.64 69.94 5.46 4.61-1.93 13.37-17.39 24.55-10.98 7.95-31.94 16.16-49.34 25.97-88.69 49.94-146.88 78.53-212.55 119.69 2.82.13 2.73-1.75 5.59-1.71 71.26.98 164.87-.53 215.54 4.71 6.51.67 6.15 15.36 5.9 32.11-.32 21.54.16 46.48 22.45 49.41 16.88 2.21 39.04-2.07 57.74-3.07 82.76-4.44 90.28 53.47 36.41 87.79-84.97 54.14-182.99 31.55-266.23 133.35-8.74 5.43-36.11 12.8-44.65 18.12-44.24 27.61-82.53 49.44-113.77 69.76-10.85 7.05-26.77 14.17-35.87 21.03-8.77 6.62-12.65 11.39-15.89 16.34-14.01 21.46 13.84 31.41 24.53 28.66 17.08-4.38 45.48-13.84 93.91-43.61 54.91-33.75 107.28-55.81 87.63-97.1-14.41-9.38 148.03-19.05 136.68-7.15-3.97 4.16-7.91 8.25-11.8 12.24-27.67 28.43-64.15 39.14-86.33 56.71-15.18 12.03-2 23 10.61 22.28 32.31-1.86 112.6-20.13 129.67-38.97 14.55-3.65 27.98-5.62 39.13-4.44 29.25 3.1 43.42 16.86 52.85 29.87 17.98 24.84 26.96 52.82-19.8 57.51-215.72 21.63-442.14 140.27-505.67 265.6-17.78 35.08 69.67 45.14 88.85 24.34 25.36-27.52 44.72-49.87 67.59-75.33 40.27-44.82 69.91-80.66 116.66-106.01 43.91-23.81 99.12-39.78 164.25-25.2 5.34 1.19 7.34 6.12 1.88 5.94-78.62-2.55-172.86 38.4-200.3 87.05-11.6 20.54 8.83 25.07 22.51 13.72 41.77-34.67 143.61-54.07 192.69-45.2 53.2 9.63 65.98 65.89 1.3 65.11-44.88-.54-97.19 18.47-156.69 58.67-121.86 82.33-220.71 199.97-454.08 222.45-25.89 2.49-80.72-2.34-121.75-40.42-27.18-25.21-30.13-75.89-61.36-104.06-17.92-16.18-37.81-8.68-71.53-6.92l-14.83-20.84 48.78-12.76c-10.31-18-26.89-31.38-36.98-43.46 31.69.37 62.65 6.47 88.82 5.2 7.74 17.48 27.28 37.06 47.65 38.42 44.82 2.98 97.37-48.69 63.57-140.24-19.34 15.19-33.41 25.81-75.57 26.37-7.33 8.39-12.41 12.6-24.96 12.95-21.8.62-58.65-30.33-59.25-35.9 66.06 14.52 142.93-70.43 133.46-69.81-9.31-52.76-33.5-91.35-68.03-115.43-24.3-16.95-53.76-31.24-94.38-36.18-77.56-9.42-198.6 10.04-208.59 73.67-23.09-14.59-52.81-5.73-62.82 24.37-8.63 25.94 7.32 35.88 23.47 34.89 18.31-1.12 37.31-10.54 47.65-16.22l-6.49 85.68c-18.94-5.54-34.13-3.67-46.14-4.77-19.59-1.8-37.62 1.59-42.75 7.82-7.46 9.05 7.21 16.24 19.1 30.08 12.66 14.74 23.23 35.98 36.36 39.27 5.61 1.41 19.01 2.01 28.79 1.29l1.8 51.16c-30.57-30.58-43.64-11.04-48.05-.8-4.4 10.25 1.81 33.84 45.22 40.89l-.22 47.34c-61.17-14.95-58.72 12.88-60.12 29.03 11.38 12.27 19.18-2.99 23.21 45.94 3.3 40.05-16.76 29.73-16.34 41.3.5 14.01 27.18 39.87 23.47 63.75-2.31 14.87-38.56-1.92-40.97-3.74-7.75 37.42-41.69 62.28-82.87 78.32-24.7 9.62-54.35 17.12-81.33 17.65-17.19.34-23.71-7.85-38.58-10.94-15.34-3.17-29.82-.08-43.96-6.88-22-10.57-41.89-22.84-60.15-46.19-59.71.47-78.43-4.93-110.07-24.51-27.91-17.27-34.38-71.17-7.56-89.82 1.17-25.44-.28-50.89-4.36-76.33-32.72-1.12-60.95 21.97-92.55 73.14-8.76 14.19-33.89 23.04-46 32.86-14.07 11.39-22.33 23.61-33.33 31.24-19.68 13.64-31.56 3.57-30.35-1.38.94-3.91 19.13-16.05 33.95-40.3 10.15-16.58 12.97-41.98 30.43-61.83 49.25-55.92 92.1-101.54 137.42-116.01l-.42-271.74c-51.11-51.41-166.78-80.29-232.69-47.77-14.45 7.13-53.16 32.21 11.02 104.89 2.85 3.23 11.15 7.83 3.8 16.67-6.48 7.78-14.82 4.17-18.58.1-18.22-19.71-41.94-48.38-59.46-52.66-29.22-7.14-53.21 18.63-57.11 26.73-12.33 25.61-27.82 109.98 94.9 109.66 25.19-.06 26.26 9.66 6.9 22.66-10.37 6.98-55.89 26.82-67.32 22.92-2.9-.99-29.96-19.29-54.85-27.86-16.58-5.71-33.33-1.63-34.39 23.2-1.54 35.78 12.57 59.56 39.59 81.36 17.17 13.85 42.9 23.54 62.82 19.19 42.89-9.37 67.66-45.88 106.36-81.38 8.95-8.21 18.02-1.42 18.41 13.32s-2 33.51-13.98 37.43c-34.27 11.24-79.35 55.84-86.95 69.89-13.07 24.15-1.16 73.97-31.76 108.91-14.81 16.92-32.55 31.47-52.24 40.38-54.45 24.61-123.91 19.19-188.06 1.79-49.02-13.28-88.22-36.74-131.71-57.11-30.82-14.43-61.8-29.35-92.68-44.54-49.63-24.41-99.02-55.43-147.12-80.39-63.83-33.12-100.8-43.36-157.64-73.93-18.07-9.72-45.76-29.18-38.68-66.69 8.16-43.27 98.06-78.7 139.23-70.22 30.43 6.27 61.22 27.05 89.04 43.8 37.99 22.87 72.76 48.45 107.88 76.9 19.25 15.6 36.57 34.7 55.94 49.32 21.95 16.57 50.92 32.17 74.18 40.8 40.41 15 38.42-4.92 34.49-17.74-10.53-34.31-28.11-71.74-50.93-98.82-15.96-18.93-39.45-30.51-60.88-44.61-32.55-21.42-70.87-47.68-110.53-67.24-34.99-17.26-70.8-28.43-107.69-38.86-83.77-23.69-163.4-29.66-231.54-32.23l116.27-128.06c1.39-.56 20.68 3.55 17.22 5.83-25.06 16.5-29.12 52.11-10.41 57.86 10.17 3.13 20.13.46 35.96 2.37 13.95 1.69 32.48 7.61 59.75 14.89 20.11 5.37 43.29 12.12 56.56 14.45 9.08 1.59 14.65-.71 16.51-2.75 3.65-4-3-10.21-10.88-15.01-17.11-10.4-47.3-21.64-71.61-35.04-24.32-13.39-43.28-26.99-54.69-32.22-18.25-8.39 32.81-14.56 40.28-14.18 31.72 1.63 64.81 5.13 84.42 8.32-21.22 18.83-15.86 30.26-5.13 38.16 56.93 41.91 162.68 102.74 212.7 115.07 39.38 9.7 53-9.39 27.09-39.68-24.77-28.94-74.14-62.1-137.2-112.88-16.39-13.21-71.66 2.52-90.48-8.16 6.18-23-31.43-40.17-81.89-62.16-78.72-34.29-217.68-71.85-231.04-96.44-8.71-16.01-5.52-28.71 25.61-43.35 25.19-11.86 99.88-9.29 119.2-10.84-1.62-6.19-4.86-28.17 11.82-40.39-34.03-23.12-18.07-44.24 2.96-48.27 82.91-13.92 207.28-2.77 249.25-6.9m1237.71-338.72c-5.46 36.18-42.18 80.62-80.9 80.11-19.34-.25-32.04-17-16.66-42.83 10.15-17.04 31.51-34.56 48.07-44.14 18.76-10.86 33.08-24.47 33.63-37.56.44-10.46-3.87-12.67-.8-20.62 2-5.17 12.32-5.19 14.29 0l8.72 23zm-429.8 12.69c9.51 35.34 42.18 80.63 80.9 80.11 19.34-.25 31.26-28.1 15.87-53.93-10.16-17.05-29.93-30.59-46.49-40.18-18.76-10.86-33.86-17.33-34.42-30.42-.45-10.47 10.22-12.67 7.14-20.62-2-5.18-12.49-4.41-15.87 0l-18.24 23.79zm441.16-160.54c-12.72 21.42-35.2 33.4-44.48 24.6-30.08-28.51-10.11-61.76-32.57-72.31-14.62-6.87-27.41-7.61-42.33 8.81-8.94 9.85-5.37 22.94-18.06 30.92-6.83 4.3-21.43.75-22.23-27.79-1.28-45.69 4.55-100.37 37.35-123.13 3.71-2.58 12.8.26 12.7 4.76-.71 34.15 3.63 44.38 19.87 47.66 26.21 5.31 37.14-20.66 53.21-23.83 8.32-1.64 20.12.27 28.59.8 2.65 51.37 5.3 78.15 7.95 129.51m-454.28 35.7c12.71 1.59 39.94 4.05 49.23-4.75 30.09-28.52 10.11-72.06 24.65-77.07 15.27-5.27 28.19 6.65 43.11 23.09 8.95 9.86 14.1 21.35 26.79 29.33 6.83 4.3 22.23.76 19.85-27.79-3.8-45.55-11.69-108.3-47.65-125.51-4.09-1.96-12.81.25-12.72 4.76.72 34.15-.44 41.99-16.68 45.28-26.23 5.31-37.14-19.86-53.22-23.03-8.33-1.65-16.94 1.06-25.42 1.58-2.64 51.37-5.29 102.74-7.94 154.11m718.23-250.62c-3.28-1.8-2.5-14.4 3.75-18.91 3.98-2.88 9.33-7 14.69-3.57 5.29 3.39 8.38 20.94 5.42 24.67-5.23 6.57-17.93 1.06-23.86-2.19m-973.83 8.69c-3.56-.03-2.01-10.25-2.28-19.83-.24-8.45-1.12-16.42 2.48-16.46 8.32-.11 25.12.11 33.24.38 3.13.1 1.81 8.31 1.87 17 .07 8.69.74 17.87-1.59 18.33-5.23 1.04-27.79.63-33.72.58m68.24 30.83c-6.84-11.65 9.98-24.99 13.61-16.54l11.54 26.86c3.92 9.09-7.82 19.19-12.73 10.83zm-98.21-12.65c-3.42-1.53-2.5-12.82 3.74-17.32 3.98-2.88 10.92-3.46 16.28-.02 5.28 3.38 13.9 11.06 10.94 14.79-5.24 6.57-17.54 8.57-30.96 2.55m973.54-39.52c-6.35-.13-21.64-29.11-11.04-36.76 4.94-3.57 4.53-5.34 8.69-6.16 4.17-.82 12.94-.71 18.92-.56 5.01.13 8.68 4.99 9.2 10.97.59 6.78-2.51 15.02-6.05 19.46-8.88 11.16-11.66 13.21-19.72 13.05m-122.28-4.75c-3.02-.63-7.38-5.53-10.4-10.75-3.89-6.7-5.83-13.01-2.61-15.33 9.91-7.16 25.12-9.01 37.47-17.39 8.88-6.02 22.86 34.29 16.18 42.68-8.9 11.17-26.66 3.73-40.64.79m-686.06 65.54c-7.76-1.62-17.64-5.68-19.74-12.93-3.31-11.37-11.91-27.11-18.27-38.12-1.94-3.34-21.55-6.81-29.22-13.66-7.66-6.85-2.84-16.6-1.79-18.27 1.96-3.13 13.37 3.08 21.43 2.35 10.36-.94 20.13-8.71 27.08-13.42 4.43-3 37.77 19 41.53 29.37 3.76 10.38-8.61 18.61-11.95 22.8-8.89 11.16 4.9 44.81-9.07 41.88m841.95 58.91c-11.52 5.46-25.89-8.27-39.78-7.87-13.91.41-34.78 11.89-40.49 11.62-24.31-1.17-35.76-12.09-48.2-12.28-20.56-.31-29.72 6.54-39.17 8.98-7.14 1.84-17.19-20.43-20.84-26.47-3.13-5.19-1.47-15.75 3.94-17.35 8.67-2.58 23.63 16.19 32.72 16.92 19.21 1.54 44.84-7.98 39.35-52.64-.7-5.67 10.49-9.8 12.04 8.49 1.21 14.42-5.21 41.06 15.27 38.84 15.89-1.72 20.52-22.86 35.47-21.06 8.79 1.07 4.6 17.39 8.01 22.18 1.05 1.46 13.55 12.26 22.38 13.72 14.33 2.37 36.75-6.46 41.39 3.53 2.78 6-9.15 7.24-22.09 13.39m-1002.01 26.07c11.51 5.47 22.73-7.48 36.62-7.07 13.91.41 24.52 8.96 44.43 6.88 35.21-3.7 43.65-17.31 65.55-23.34 8.43-2.32 14.74 6.54 24.2 5.82 7.36-.57 23.36-10.82 27.93-16.21 7.08-8.35 1.48-13.37-3.95-14.98-8.66-2.58-24.4 11.45-33.49 12.18-19.22 1.55-21.19-11.91-36.21-14.7-19.96-3.71-26.3 14.87-38.35 11.77-15.49-3.98-33.8-26.85-41.78-34.48-8.63-8.25-17.46 2.14-11.04 7.1 15.9 12.29 26.05 29.64 20.38 35.61-3.42 3.6-16.69 8.31-29.48 7.4-14.48-1.04-23.07-10.91-32.7-2.8-5.68 4.79-5.06 20.68 7.89 26.82m78.22-345.89c126.77-1.46 280.95 36.97 425.81 34.42 52.85-.93 132.35-2.55 186.27-12.34 53.93-9.8 87.19-29.33 140.09-27.97 57.41 1.49 113 12.16 123.15 36.46l27.59 66c12.95 31.01-9.39 42.63-25.63 42.36-37.47-.63-72.33-6.05-111.92-.78-48.25 6.42-97.21 23.62-147.53 32.27-73.54 12.65-146.92 18.96-218.01 17.68-152.74-2.77-297.39-43.65-444.65-35.88-3.04 5.96-13.12 21.12-22.11 20.29-17.76-1.64-18.42-16.39-16.31-22.74 7.21-21.78 38.6-97.98 83.25-149.77m189.51 515.12c-.62 21.59-21.88 20.25-26.57 12.79L2603.64 2373c-14.07-22.38 23.24-8.51 52.38-16.46 13.25-3.6 25.6-15.64 29.3-30.77 4.89-20 4.37-34.2 2.71-45.32-3.65-24.47-19.6-34.1-19.44-58 .09-13.22 6.87-24.3 19.68-23.62 13.89.73 32.84 28.49 34.44 42.31 11.46 98.4 3.82 168.64.99 267.66m481.76-20.67c.62 21.58 26.34 20.55 30.51 12.79l68.89-127.92c12.52-23.27-11.56-21.87-37.62-37.12-33.75-19.75-38.11-45.42-33.98-73.14 3.65-24.47 31.4-33.12 31.25-57.03-.08-13.19-18.39-24.83-38.38-20.66-34.75 7.25-18.08 25.56-19.68 39.36-11.45 98.4-3.81 164.7-.99 263.72m-659.49-527.47-10.84-43.29-9.67-23.89c-3.27-8.1-9.78-20.37.79-29.24 4.59-3.86 12.09-1 17.52-3.87 9.07-4.79 16.68-14.31 26.66-15.1 6.86-.54 10.55 9.83 11.83 16.6l16.56 87.72c1.43 7.56-6.59 14.72-14.19 15.81-6.84.98-18.55 2.99-25.25 3.96-5.46.78-12.07-3.35-13.41-8.7m811.92-4.75.58-51.98c.27-24.01 10.53-16.23 12.04-24.68 1.85-10.41-11.51-24.5-26.32-27.87-11.53-2.61-20.3.43-23.55-1.29-9.06-4.78-7.21-16.68-17.19-17.46-6.85-.55-15.62 7.34-15.77 14.22l-2.37 104.32c-.17 7.69 8.18 16.31 15.78 17.39 6.83.98 29.6-.17 36.29.8 5.45.77 20.45-7.94 20.51-13.45m-365.04 1893.13c15.24 0 27.61-8.85 27.61-19.76 0-10.9-12.37-19.76-27.61-19.76-15.25 0-27.61 8.86-27.61 19.76 0 10.91 12.36 19.76 27.61 19.76m-237.15-32.11c.54 28.38 25.71 44.65 54.23 48.41 20.36 2.68 62.73-1.86 70.01-25.69 2.93-9.56 3.19-24.83-4.42-36.22-8.63-12.91-24.13-14.07-33.54-7.73-19.44 13.08-27.82 21.1-36.48 21.23-16.75.25-24.02-5.43-35.5-11.85-4.38-2.44-14.54-.56-14.3 11.85m22.68-54.33v-51.87c0-5.23 3.15-10.6 12.32-10.37l57.2 1.48c9.17.24 8.68 14.2 4.93 19.76-14.16 20.93-24.28 41.68-45.36 54.83-8.81 5.49-29.09-3.45-29.09-13.83m73.24-184.17c-11.47-22.18-33.22-36.64-55.6-36.9-17.54-.19-25.29 12.49-24.11 26.54 1.06 12.55 11.52 25.47 28.54 26.09 17.95.65 19.16-17.08 51.17-15.73m-254.88 200.4c-1.99-1.67-.5-11.3 9.33-27.47 18.76-30.88 60.09-80.43 110.63-107.65 47.77-25.74 83.94-24.3 132.28-21.51 23.18 1.33 46.78 37.96 18.68 38.41-49.66.79-94.99-.68-128.77 10.97-43.43 14.98-74.92 40.07-105.71 89.54-4.52 7.26-27.74 25.05-36.44 17.71m-710.94-250.59-103.81-59.52c-8.66-4.97-57.81-11.54-64.04-3.07-12.17 16.53 8.89 41.68 19.76 44.88l130.38 38.38c22.35 6.57 34.97-10.78 17.71-20.67m2233.65-508.74 112.18-42.31c7.26-2.74 10.34-29.93 2.27-41.68-10.45-15.22-41.09-11.8-45.81-8.02l-90.29 72.33c-10.74 8.61-7.68 30.74 21.65 19.68m-2307.94 34.45-70.85-26.57c-7.27-2.73-12.76-23.79-9.16-32.83 1.95-4.91 21-8.27 26.14-5.06l71.58 44.77c11.67 7.31 11.65 30.69-17.71 19.69m2198.72-6.9-129.89 2.96c-41.72 30.3 9.27 39.89 32.79 36.09l93.36-28.65zm-2040.3 47.24 129.9-14.76c21.97 43.29.43 52.83-17.71 55.1-13.49 1.69-25.78 1.14-34.77-.31zm2165.27-187.95h-162.37l-87.57 86.59c-24.55 24.27-23.38 33.68 4.92 33.46l123-.98c15.33-.12 31.35-4.05 42.31-14.76l85.61-83.65c7.28-7.11 23.99-20.66-5.9-20.66m-2327.63 35.43h177.13l91.51 80.68c25.89 22.83-.22 39.08-28.53 39.37l-97.42.98c-15.35.15-37.87-11.52-50.19-20.67l-103.32-76.75c-8.19-6.08-19.07-23.61 10.82-23.61" style="fill:#231f20;fill-opacity:1;fill-rule:evenodd;stroke:none" transform="matrix(.13333 0 0 -.13333 -81.502 775.212)"></path><path d="M2978.68 2783.25c-119.03 0-216.36 97.34-216.36 216.36v271.95h432.71v-271.95c0-119.03-97.33-216.36-216.35-216.36" style="fill:#fff;fill-opacity:1;fill-rule:evenodd;stroke:none" transform="matrix(.13333 0 0 -.13333 -81.502 775.212)"></path><path d="M3179.63 3256.16h-401.9v-256.55c0-110.52 90.43-200.95 200.95-200.95s200.95 90.42 200.95 200.95z" style="fill:#ea1f2a;fill-opacity:1;fill-rule:evenodd;stroke:none" transform="matrix(.13333 0 0 -.13333 -81.502 775.212)"></path><path d="M3086.97 3163.5h-216.59v-163.89c0-59.38 48.92-108.3 108.3-108.3 59.37 0 108.29 48.92 108.29 108.3z" style="fill:#fff;fill-opacity:1;fill-rule:evenodd;stroke:none" transform="matrix(.13333 0 0 -.13333 -81.502 775.212)"></path><path d="m2965.24 3251.78 5.4-.01v-3.95h3.94v4.04l5.53-.02v-4.02l3.96.01v4.02h5.53l-.01-10.43h-24.3zm22.35-12.04.57-29.19-21.46-.02.66 29.21zm-12.1-9.14c-.11 2.83 3.87 2.87 3.83 0v-6.94h-3.83zm-11.1 11.1h-4.72v-3.75h-3.44v3.83l-4.84-.02v-3.81l-3.46.01v3.81h-4.83l.01-9.78h21.24zm-18.85-11.39-.49-19.74 17.37-.01-.44 19.75zm10.18-4.06c.11 2.83-3.86 2.88-3.83 0v-6.93h3.83zm56.04 15.45h-4.72v-3.75h-3.45v3.83l-4.84-.02v-3.81l-3.45.01v3.81h-4.84l.01-9.78h21.24zm-18.86-11.39-.49-19.74 17.38-.01-.45 19.75zm10.18-4.06c.12 2.83-3.86 2.88-3.82 0v-6.93h3.82zm-61.1-17.45h72.18v-6.3h-72.18zm-5.12-33.67h79.67v-8.22h-79.67zm7.09 25.66h26.08c-8.59-3.77-12.33-13.63-12.28-23.88v-.1h-13.8zm42.43 0h24.63v-23.98h-12.31v.69c.06 10.16-3.86 19.62-12.32 23.29m10.71-23.98h-37.73v.11c-.05 12.11 5.34 23.88 18.85 23.85 13.23-.02 18.95-11.19 18.88-23.26zm122.87-109.97 5.4-.01v-3.94h3.95v4.03l5.53-.02v-4.01h3.95v4.03l5.54-.01-.01-10.43h-24.3zm22.35-12.04.58-29.19-21.46-.02.65 29.21zm-12.09-9.14c-.11 2.83 3.86 2.88 3.82 0v-6.93h-3.82zm-11.1 11.11-4.72-.02v-3.73h-3.45v3.82l-4.83-.02v-3.8h-3.46v3.82h-4.84l.01-9.79h21.24zm-18.86-11.39-.49-19.75 17.38-.01-.44 19.76zm10.19-4.06c.11 2.83-3.86 2.87-3.83 0v-6.94h3.83zm56.04 15.45-4.72-.02v-3.73h-3.45v3.82l-4.84-.02v-3.8h-3.45v3.82h-4.84l.01-9.79h21.24zm-18.86-11.39-.5-19.75 17.39-.01-.45 19.76zm10.18-4.06c.11 2.83-3.86 2.87-3.83 0v-6.94h3.83zm-61.1-17.45h72.18v-6.31h-72.18zm-5.13-33.67h79.67v-8.22h-79.67zm7.1 25.65h26.07c-8.59-3.76-12.32-13.63-12.28-23.87v-.1h-13.79zm42.43 0h24.62v-23.97h-12.3v.68c.05 10.16-3.86 19.63-12.32 23.29m10.7-23.97h-37.73v.1c-.04 12.12 5.35 23.88 18.86 23.86 13.22-.02 18.95-11.2 18.88-23.27zm-299.17-98.42 3.3 4.28 3.13-2.4 2.4 3.13-3.19 2.45 3.38 4.38 3.18-2.44 2.41 3.14-3.2 2.45 3.38 4.39 8.27-6.36-14.81-19.28zm23.16 10.4 23.5-17.32-13.04-17.04-22.78 18.31zm-.11-15.16c-2.32 1.64.07 4.82 2.33 3.04l5.5-4.23-2.33-3.03zm-15.56-2.04-2.88-3.75 2.97-2.28-2.1-2.73-3.03 2.33-2.93-3.85 3.02-2.31-2.11-2.75-3.03 2.33-2.94-3.84 7.76-5.95 12.94 16.85zm-2.45-21.89 15.36-12.42 10.59 13.78-15.94 11.68zm9.41 5.6c-2.17 1.82-4.63-1.31-2.32-3.03l5.5-4.23 2.33 3.04zm21.88 53.86-2.87-3.75 2.97-2.28-2.11-2.73-3.03 2.33-2.93-3.85 3.02-2.32-2.1-2.74-3.03 2.33-2.94-3.84 7.75-5.95 12.94 16.85zm-2.45-21.89 15.36-12.42 10.59 13.78-15.94 11.68zm9.42 5.6c-2.18 1.81-4.63-1.31-2.33-3.03l5.5-4.23 2.33 3.03zm-23.37-59.09 43.95 57.25 5-3.84-43.95-57.25zm23.59-24.57 48.51 63.19 6.52-5-48.52-63.2zm-16.03 21.25 15.88 20.68c-2.25-9.1 3.31-18.07 11.46-24.28l.07-.06-8.4-10.94zm25.84 33.65 14.99 19.53 19.02-14.59-7.5-9.76-.54.42c-8.03 6.23-17.91 8.88-25.97 4.4m25.53-6.1-22.98-29.93-.08.06c-9.64 7.34-15.68 18.78-7.44 29.49 8.07 10.47 20.42 8.21 29.95.8zm171.91 20.38-3.29 4.28-3.13-2.4-2.4 3.13 3.2 2.45-3.39 4.38-3.18-2.44-2.41 3.14 3.2 2.45-3.37 4.39-8.27-6.36 14.79-19.28zm-23.15 10.4-23.51-17.32 13.05-17.04 22.78 18.31zm.11-15.16c2.32 1.64-.07 4.82-2.33 3.04l-5.5-4.23 2.33-3.03zm15.56-2.04 2.87-3.75-2.96-2.28 2.1-2.73 3.03 2.33 2.93-3.85-3.02-2.31 2.11-2.75 3.03 2.33 2.94-3.84-7.76-5.95-12.94 16.85zm2.45-21.89-15.36-12.42-10.59 13.78 15.94 11.68zm-9.42 5.6c2.18 1.82 4.64-1.31 2.33-3.03l-5.5-4.23-2.33 3.04zm-21.87 53.86 2.87-3.75-2.96-2.28 2.09-2.73 3.04 2.33 2.93-3.85-3.02-2.32 2.1-2.74 3.03 2.33 2.95-3.84-7.76-5.95-12.94 16.85zm2.45-21.89-15.36-12.42-10.59 13.78 15.94 11.68zm-9.42 5.6c2.18 1.81 4.63-1.31 2.33-3.03l-5.5-4.23-2.33 3.03zm23.37-59.09-43.95 57.25-5-3.84 43.95-57.25zm-23.58-24.57-48.52 63.19-6.52-5 48.52-63.2zm16.02 21.25-15.88 20.68c2.25-9.1-3.31-18.07-11.46-24.28l-.07-.06 8.4-10.94zm-25.84 33.65-15 19.53-19.01-14.59 7.5-9.76.54.42c8.02 6.23 17.92 8.88 25.97 4.4m-25.53-6.1 22.98-29.93.08.06c9.64 7.34 15.68 18.78 7.44 29.49-8.08 10.47-20.42 8.21-29.95.8zm95.4 378.44 5.4-.01v-3.95h3.95v4.03l5.53-.01v-4.02l3.95.01v4.02h5.54l-.01-10.43h-24.3zm22.35-12.04.58-29.19-21.46-.02.65 29.21zm-12.09-9.14c-.11 2.83 3.86 2.87 3.82 0v-6.93h-3.82zm-11.1 11.1-4.72-.01v-3.73h-3.45v3.82l-4.83-.02v-3.8h-3.46v3.82l-4.84-.01.01-9.78h21.24zm-18.86-11.39-.49-19.74 17.38-.01-.44 19.75zm10.19-4.06c.11 2.83-3.86 2.88-3.83 0v-6.93h3.83zm56.04 15.45-4.72-.01v-3.73h-3.45v3.82l-4.84-.02v-3.8h-3.45v3.82l-4.84-.01.01-9.78h21.24zm-18.86-11.39-.5-19.74 17.39-.01-.45 19.75zm10.18-4.06c.11 2.83-3.86 2.88-3.83 0v-6.93h3.83zm-61.1-17.44h72.18v-6.31h-72.18zm-5.13-33.67h79.67v-8.22h-79.67zm7.1 25.64h26.07c-8.59-3.76-12.32-13.62-12.28-23.87v-.1h-13.79zm42.43 0h24.62v-23.97h-12.3v.69c.05 10.16-3.86 19.62-12.32 23.28m10.7-23.97h-37.73v.11c-.04 12.11 5.35 23.88 18.86 23.86 13.22-.03 18.95-11.2 18.88-23.27zm-339.5 74.97 5.4-.01v-3.95h3.94v4.03l5.53-.01v-4.02l3.96.01v4.02h5.53l-.01-10.43h-24.3zm22.35-12.04.57-29.19-21.46-.02.65 29.21zm-12.1-9.14c-.11 2.83 3.86 2.87 3.83 0v-6.93h-3.83zm-11.1 11.1-4.72-.01v-3.73h-3.44v3.82l-4.84-.02v-3.8h-3.45v3.82l-4.85-.01.02-9.78h21.24zm-18.85-11.39-.5-19.74 17.38-.01-.44 19.75zm10.18-4.06c.11 2.83-3.86 2.88-3.83 0v-6.93h3.83zm56.04 15.45-4.72-.01v-3.73h-3.45v3.82l-4.84-.02v-3.8h-3.45v3.82l-4.84-.01.01-9.78h21.24zm-18.86-11.39-.49-19.74 17.38-.01-.45 19.75zm10.18-4.06c.12 2.83-3.86 2.88-3.82 0v-6.93h3.82zm-61.1-17.44h72.18v-6.31h-72.18zm-5.13-33.67h79.68v-8.22h-79.68zm7.1 25.64h26.08c-8.6-3.76-12.33-13.62-12.28-23.87v-.1h-13.8zm42.43 0h24.63v-23.97h-12.31v.69c.06 10.16-3.86 19.62-12.32 23.28m10.71-23.97h-37.73v.11c-.05 12.11 5.34 23.88 18.85 23.86 13.23-.03 18.95-11.2 18.88-23.27z" style="fill:#f8d90f;fill-opacity:1;fill-rule:evenodd;stroke:none" transform="matrix(.13333 0 0 -.13333 -81.502 775.212)"></path><path d="M2945.99 3104.01v-.02c0-8.62 3.67-16.47 9.56-22.17a33 33 0 0 1 22.93-9.26c8.94 0 17.06 3.53 22.93 9.21 5.88 5.69 9.52 13.54 9.52 22.19v41.95l-64.82.05z" style="fill:#154281;fill-opacity:1;fill-rule:nonzero;stroke:none" transform="matrix(.13333 0 0 -.13333 -81.502 775.212)"></path><path d="M2945.99 3104.01v-.02c0-8.62 3.67-16.47 9.56-22.17a33 33 0 0 1 22.93-9.26c8.94 0 17.06 3.53 22.93 9.21 5.88 5.69 9.52 13.54 9.52 22.19v41.95l-64.82.05z" style="fill:#2f439e;fill-opacity:1;fill-rule:nonzero;stroke:none" transform="matrix(.13333 0 0 -.13333 -81.502 775.212)"></path><path d="M2996.7 3137.52c-3.67 0-6.66-2.98-6.66-6.65s2.99-6.65 6.66-6.65c3.66 0 6.66 2.98 6.66 6.65s-3 6.65-6.66 6.65m-18.68-17.9c-3.67 0-6.66-2.99-6.66-6.66 0-3.66 2.99-6.65 6.66-6.65s6.66 2.99 6.66 6.65c0 3.67-2.99 6.66-6.66 6.66m18.64-18.69c-3.68 0-6.66-2.99-6.66-6.66 0-3.66 2.98-6.64 6.66-6.64 3.66 0 6.66 2.98 6.66 6.64 0 3.67-3 6.66-6.66 6.66m-36.37-.05c-3.67 0-6.66-2.99-6.66-6.65 0-3.67 2.99-6.66 6.66-6.66s6.66 2.99 6.66 6.66c0 3.66-2.99 6.65-6.66 6.65m-.08 36.67c-3.67 0-6.66-2.99-6.66-6.65s2.99-6.65 6.66-6.65 6.66 2.99 6.66 6.65-2.99 6.65-6.66 6.65" style="fill:#fff;fill-opacity:1;fill-rule:evenodd;stroke:none" transform="matrix(.13333 0 0 -.13333 -81.502 775.212)" data-source="https://football-logos.cc"></path><path d="M2945.99 3018.65v-.02c0-8.62 3.67-16.47 9.56-22.17a33 33 0 0 1 22.93-9.26c8.94 0 17.06 3.53 22.93 9.21 5.88 5.69 9.52 13.54 9.52 22.19v41.95l-64.82.05z" style="fill:#154281;fill-opacity:1;fill-rule:nonzero;stroke:none" transform="matrix(.13333 0 0 -.13333 -81.502 775.212)"></path><path d="M2945.99 3018.65v-.02c0-8.62 3.67-16.47 9.56-22.17a33 33 0 0 1 22.93-9.26c8.94 0 17.06 3.53 22.93 9.21 5.88 5.69 9.52 13.54 9.52 22.19v41.95l-64.82.05z" style="fill:#2f439e;fill-opacity:1;fill-rule:nonzero;stroke:none" transform="matrix(.13333 0 0 -.13333 -81.502 775.212)"></path><path d="M2996.7 3052.17c-3.67 0-6.66-2.99-6.66-6.66 0-3.66 2.99-6.65 6.66-6.65 3.66 0 6.66 2.99 6.66 6.65 0 3.67-3 6.66-6.66 6.66m-18.68-17.91c-3.67 0-6.66-2.99-6.66-6.65s2.99-6.66 6.66-6.66 6.66 3 6.66 6.66-2.99 6.65-6.66 6.65m18.64-18.69c-3.68 0-6.66-2.99-6.66-6.65 0-3.67 2.98-6.65 6.66-6.65 3.66 0 6.66 2.98 6.66 6.65 0 3.66-3 6.65-6.66 6.65m-36.37-.05c-3.67 0-6.66-2.98-6.66-6.65 0-3.66 2.99-6.65 6.66-6.65s6.66 2.99 6.66 6.65c0 3.67-2.99 6.65-6.66 6.65m-.08 36.68c-3.67 0-6.66-2.99-6.66-6.66 0-3.66 2.99-6.65 6.66-6.65s6.66 2.99 6.66 6.65c0 3.67-2.99 6.66-6.66 6.66" style="fill:#fff;fill-opacity:1;fill-rule:evenodd;stroke:none" transform="matrix(.13333 0 0 -.13333 -81.502 775.212)"></path><path d="M3017.59 3018.65v-.02c0-8.62 3.67-16.47 9.56-22.17a33 33 0 0 1 22.93-9.26c8.94 0 17.05 3.53 22.93 9.21 5.88 5.69 9.52 13.54 9.52 22.19v41.95l-64.83.05z" style="fill:#154281;fill-opacity:1;fill-rule:nonzero;stroke:none" transform="matrix(.13333 0 0 -.13333 -81.502 775.212)"></path><path d="M3017.59 3018.65v-.02c0-8.62 3.67-16.47 9.56-22.17a33 33 0 0 1 22.93-9.26c8.94 0 17.05 3.53 22.93 9.21 5.88 5.69 9.52 13.54 9.52 22.19v41.95l-64.83.05z" style="fill:#2f439e;fill-opacity:1;fill-rule:nonzero;stroke:none" transform="matrix(.13333 0 0 -.13333 -81.502 775.212)"></path><path d="M3068.3 3052.17c-3.67 0-6.66-2.99-6.66-6.66 0-3.66 2.99-6.65 6.66-6.65 3.66 0 6.66 2.99 6.66 6.65 0 3.67-3 6.66-6.66 6.66m-18.68-17.91c-3.67 0-6.66-2.99-6.66-6.65s2.99-6.66 6.66-6.66 6.66 3 6.66 6.66-2.99 6.65-6.66 6.65m18.63-18.69c-3.66 0-6.65-2.99-6.65-6.65 0-3.67 2.99-6.65 6.65-6.65 3.68 0 6.66 2.98 6.66 6.65 0 3.66-2.98 6.65-6.66 6.65m-36.36-.05c-3.67 0-6.66-2.98-6.66-6.65 0-3.66 2.99-6.65 6.66-6.65 3.66 0 6.66 2.99 6.66 6.65 0 3.67-3 6.65-6.66 6.65m-.08 36.68c-3.67 0-6.66-2.99-6.66-6.66 0-3.66 2.99-6.65 6.66-6.65s6.66 2.99 6.66 6.65c0 3.67-2.99 6.66-6.66 6.66" style="fill:#fff;fill-opacity:1;fill-rule:evenodd;stroke:none" transform="matrix(.13333 0 0 -.13333 -81.502 775.212)"></path><path d="M2874.8 3018.65v-.02c0-8.62 3.68-16.47 9.57-22.17 5.9-5.71 14.03-9.26 22.93-9.26 8.93 0 17.05 3.53 22.92 9.21 5.88 5.69 9.53 13.54 9.53 22.19v41.95l-64.83.05z" style="fill:#154281;fill-opacity:1;fill-rule:nonzero;stroke:none" transform="matrix(.13333 0 0 -.13333 -81.502 775.212)"></path><path d="M2874.8 3018.65v-.02c0-8.62 3.68-16.47 9.57-22.17 5.9-5.71 14.03-9.26 22.93-9.26 8.93 0 17.05 3.53 22.92 9.21 5.88 5.69 9.53 13.54 9.53 22.19v41.95l-64.83.05z" style="fill:#2f439e;fill-opacity:1;fill-rule:nonzero;stroke:none" transform="matrix(.13333 0 0 -.13333 -81.502 775.212)"></path><path d="M2925.51 3052.17c-3.67 0-6.66-2.99-6.66-6.66 0-3.66 2.99-6.65 6.66-6.65s6.66 2.99 6.66 6.65c0 3.67-2.99 6.66-6.66 6.66m-18.68-17.91c-3.67 0-6.66-2.99-6.66-6.65s2.99-6.66 6.66-6.66 6.67 3 6.67 6.66-3 6.65-6.67 6.65m18.64-18.69c-3.67 0-6.66-2.99-6.66-6.65 0-3.67 2.99-6.65 6.66-6.65s6.66 2.98 6.66 6.65c0 3.66-2.99 6.65-6.66 6.65m-36.37-.05c-3.67 0-6.66-2.98-6.66-6.65 0-3.66 2.99-6.65 6.66-6.65s6.67 2.99 6.67 6.65c0 3.67-3 6.65-6.67 6.65m-.08 36.68c-3.66 0-6.66-2.99-6.66-6.66 0-3.66 3-6.65 6.66-6.65 3.68 0 6.67 2.99 6.67 6.65 0 3.67-2.99 6.66-6.67 6.66" style="fill:#fff;fill-opacity:1;fill-rule:evenodd;stroke:none" transform="matrix(.13333 0 0 -.13333 -81.502 775.212)"></path><path d="M2945.99 2936.46v-.03c0-8.62 3.67-16.47 9.56-22.16a33 33 0 0 1 22.93-9.27c8.94 0 17.06 3.53 22.93 9.22 5.88 5.69 9.52 13.54 9.52 22.19v41.95l-64.82.04z" style="fill:#154281;fill-opacity:1;fill-rule:nonzero;stroke:none" transform="matrix(.13333 0 0 -.13333 -81.502 775.212)"></path><path d="M2945.99 2936.46v-.03c0-8.62 3.67-16.47 9.56-22.16a33 33 0 0 1 22.93-9.27c8.94 0 17.06 3.53 22.93 9.22 5.88 5.69 9.52 13.54 9.52 22.19v41.95l-64.82.04z" style="fill:#2f439e;fill-opacity:1;fill-rule:nonzero;stroke:none" transform="matrix(.13333 0 0 -.13333 -81.502 775.212)"></path><path d="M2996.7 2969.97c-3.67 0-6.66-2.99-6.66-6.65 0-3.67 2.99-6.66 6.66-6.66 3.66 0 6.66 2.99 6.66 6.66 0 3.66-3 6.65-6.66 6.65m-18.68-17.91c-3.67 0-6.66-2.99-6.66-6.65s2.99-6.65 6.66-6.65 6.66 2.99 6.66 6.65-2.99 6.65-6.66 6.65m18.64-18.68c-3.68 0-6.66-2.99-6.66-6.65 0-3.67 2.98-6.66 6.66-6.66 3.66 0 6.66 2.99 6.66 6.66 0 3.66-3 6.65-6.66 6.65m-36.37-.05c-3.67 0-6.66-2.99-6.66-6.66 0-3.66 2.99-6.65 6.66-6.65s6.66 2.99 6.66 6.65c0 3.67-2.99 6.66-6.66 6.66m-.08 36.67c-3.67 0-6.66-2.99-6.66-6.65s2.99-6.65 6.66-6.65 6.66 2.99 6.66 6.65-2.99 6.65-6.66 6.65" style="fill:#fff;fill-opacity:1;fill-rule:evenodd;stroke:none" transform="matrix(.13333 0 0 -.13333 -81.502 775.212)"></path><path d="m2812.99 3066.84 5.4-.01v-3.94h3.94v4.03l5.54-.02v-4.01h3.95v4.03l5.53-.01-.01-10.43h-24.3zm22.35-12.04.57-29.19-21.46-.02.66 29.21zm-12.1-9.14c-.11 2.83 3.86 2.88 3.83 0v-6.93h-3.83zm-11.1 11.11-4.72-.02v-3.73h-3.44v3.82l-4.84-.02v-3.8h-3.45v3.82h-4.84l.01-9.79h21.24zm-18.85-11.39-.49-19.75 17.37-.01-.44 19.76zm10.18-4.06c.11 2.83-3.86 2.87-3.83 0v-6.94h3.83zm56.04 15.45-4.72-.02v-3.73h-3.45v3.82l-4.83-.02v-3.8h-3.46v3.82h-4.84l.01-9.79h21.24zm-18.86-11.39-.49-19.75 17.38-.01-.44 19.76zm10.18-4.06c.12 2.83-3.86 2.87-3.82 0v-6.94h3.82zm-61.1-17.45h72.18v-6.31h-72.18zm-5.13-33.67h79.68v-8.22h-79.68zm7.1 25.65h26.08c-8.6-3.76-12.33-13.63-12.28-23.87v-.1h-13.8zm42.43 0h24.63v-23.97h-12.31v.68c.06 10.16-3.86 19.63-12.32 23.29m10.71-23.97h-37.73v.1c-.06 12.12 5.34 23.88 18.85 23.86 13.23-.02 18.95-11.2 18.88-23.27z" style="fill:#f8d90f;fill-opacity:1;fill-rule:evenodd;stroke:none" transform="matrix(.13333 0 0 -.13333 -81.502 775.212)"></path><path d="M2496.17 2157.08c18.66-.81 37.34-.85 56.01-.29 62.86 1.88 125.37 10.45 187.65 18.67 64.45 8.5 128.88 16.63 193.97 17.81 73.65 1.34 147.62-5.36 220.17-17.84 49.44-8.5 97.56-25.61 147.1-32.21 37.18-4.95 73.09.26 110.21.88 11.92.2 24.51-4.26 32.55-13.3 11.47-12.92 10.14-29.98 3.87-44.98l-27.58-66.01c-15.72-37.6-99.26-42.63-133.46-43.51-52.8-1.37-92.23 19.02-142.44 28.15-29.06 5.27-59.64 7.55-89.12 9.16-31.74 1.73-63.52 2.43-95.3 3-43.47.76-87.04-2.18-130.26-6.5-50.88-5.1-101.5-12.23-152.27-18.17-47.31-5.55-95.53-10.31-143.21-9.76l-5.18.06-3.39 3.93c-8.36 9.7-16.09 19.97-23.3 30.54-15.68 22.96-29.33 47.73-41.25 72.84-7.59 16.02-15.33 33.43-20.92 50.28-6.3 19.03 6.68 36.01 26.18 37.81 12.23 1.11 23.21-10.02 29.97-20.56" style="fill:#fff;fill-opacity:1;fill-rule:evenodd;stroke:none" transform="matrix(.13333 0 0 -.13333 -81.502 775.212)"></path><path d="m2551.55 2049.93-18.27-2.64-2.18-7.28c-.71-2.43-1.06-4.39-1.06-5.91 0-2.01.58-3.41 1.75-4.17.68-.48 2.37-.65 5.07-.55v-1.95l-17.2-2.48v1.94c1.84.66 3.38 1.95 4.57 3.87 1.2 1.9 2.68 5.72 4.43 11.43l18.5 59.79.73.11 18.65-56c1.78-5.31 3.24-8.6 4.39-9.88.87-.97 2.09-1.42 3.67-1.37v-1.95l-25.03-3.62v1.94l1.03.15c2 .29 3.42.9 4.23 1.79.56.64.85 1.49.85 2.55 0 .64-.08 1.27-.24 1.91-.05.32-.43 1.59-1.15 3.8zm-1.3 3.73-7.7 23.53-7.94-25.8zm45.04 54.89 26.74 3.22v-1.96l-1.33-.16c-2.02-.24-3.4-.7-4.15-1.36-.76-.67-1.3-1.55-1.6-2.59-.32-1.07-.49-3.65-.49-7.72v-35.04c0-6.42.35-10.61 1.06-12.62.7-1.98 1.85-3.55 3.46-4.75 1.6-1.18 3.62-1.62 6.07-1.32 2.81.34 5.2 1.49 7.16 3.47 1.99 1.99 3.46 4.56 4.44 7.74s1.47 8.58 1.47 16.18v29.19c0 3.21-.24 5.47-.73 6.78-.48 1.31-1.09 2.19-1.82 2.62-1.15.68-2.77.88-4.87.63v1.96l17.93 2.16v-1.96l-1.08-.14c-1.44-.17-2.66-.71-3.62-1.64-.97-.92-1.68-2.22-2.1-3.9-.33-1.16-.49-3.21-.49-6.13v-27.18c0-8.42-.41-14.54-1.21-18.36-.81-3.83-2.76-7.49-5.87-11-3.1-3.51-7.35-5.59-12.73-6.23-4.47-.55-7.94-.13-10.39 1.23-3.34 1.85-5.69 4.45-7.07 7.8-1.37 3.37-2.07 8-2.07 13.97v35.04c0 4.11-.15 6.65-.49 7.62-.33.97-.9 1.69-1.72 2.19-.81.51-2.31.6-4.5.3zm77.55 9.23 25.61-41.93v30.77c0 4.29-.45 7.15-1.34 8.58-1.23 1.91-3.28 2.71-6.16 2.35v1.97l17.13 1.65v-1.96c-2.19-.59-3.65-1.24-4.42-1.92-.75-.69-1.34-1.75-1.75-3.18-.43-1.43-.63-3.84-.63-7.22v-59.6l-1.31-.13-35.08 56.23v-45.51c0-4.11.68-6.82 2.05-8.13 1.35-1.33 2.92-1.9 4.67-1.73l1.23.12v-1.95l-18.4-1.77v1.95c2.86.31 4.84 1.31 5.97 3.01 1.12 1.69 1.68 4.43 1.68 8.23v50.52l-1.11 1.8c-1.1 1.79-2.06 2.94-2.91 3.47-.84.51-2.05.72-3.63.64v1.97zm67.53-62.96v-1.94l-27.17-1.97v1.95l1.73.12c1.5.11 2.72.58 3.64 1.38.66.54 1.17 1.42 1.52 2.65.29.85.44 3.08.44 6.69v47.08c0 3.65-.15 5.93-.44 6.83-.27.9-.83 1.65-1.69 2.27-.85.62-2.02.89-3.47.78l-1.73-.12v1.96l27.17 1.96v-1.96l-1.73-.13c-1.51-.11-2.72-.55-3.64-1.36-.66-.56-1.19-1.42-1.57-2.65-.27-.87-.41-3.1-.41-6.68v-47.09c0-3.65.14-5.93.43-6.83.3-.89.87-1.65 1.72-2.27.87-.64 2.02-.9 3.47-.79zm37.62 20.88-18.34-1.33-2.19-7.12c-.72-2.38-1.07-4.32-1.07-5.83 0-2.02.59-3.46 1.77-4.31.68-.52 2.38-.82 5.08-.91v-1.95l-17.28-1.24v1.94c1.87.54 3.41 1.71 4.6 3.54 1.2 1.82 2.69 5.53 4.45 11.12l18.58 58.45.73.06 18.72-57.35c1.8-5.45 3.26-8.83 4.41-10.19.88-1.04 2.11-1.58 3.69-1.65v-1.94l-25.14-1.82v1.95l1.04.08c2.01.14 3.44.64 4.25 1.48.56.59.85 1.42.85 2.49 0 .63-.08 1.27-.24 1.93-.05.32-.43 1.6-1.15 3.88zm-1.31 3.82-7.72 24.08-7.98-25.22zm7.11 68.7 2.02.15c.03-.7.04-1.3.04-1.8 0-3.87-.78-7.03-2.38-9.51-1.58-2.47-3.49-3.8-5.74-3.96-1.66-.12-3.75.56-6.26 2.04-2.51 1.47-4.2 2.18-5.03 2.12-.78-.06-1.42-.46-1.93-1.2s-.87-2.03-1.07-3.88l-2.23-.16c-.08 4.57.67 8.21 2.29 10.94 1.63 2.71 3.61 4.17 5.99 4.34.78.05 1.42-.01 1.93-.19.7-.23 1.93-.85 3.67-1.84 2.62-1.47 4.51-2.16 5.64-2.08.56.04 1.09.4 1.61 1.07.5.67.99 1.98 1.45 3.96m46.26-15.82c8.29.83 15.02-2.18 20.2-8.99 5.17-6.83 7.76-15.55 7.76-26.18 0-9.09-1.92-17.16-5.79-24.25-5.11-9.4-12.34-14.32-21.67-14.77-9.34-.44-16.58 3.56-21.69 12.06-4.04 6.7-6.06 14.79-6.06 24.25 0 10.63 2.63 19.62 7.87 26.95 5.26 7.35 11.72 10.99 19.38 10.93m.48-3.35c-4.77-.23-8.38-3.75-10.87-10.55-2.01-5.58-3.02-13.52-3.02-23.79q0-18.315 4.68-26.85c2.16-3.99 5.22-5.88 9.13-5.69 2.63.13 4.83 1.12 6.59 2.95 2.24 2.36 4 6.05 5.25 11.06 1.26 5 1.89 11.48 1.89 19.43 0 9.47-.64 16.52-1.93 21.14-1.28 4.64-2.91 7.88-4.89 9.73-1.98 1.84-4.25 2.7-6.83 2.57m72.33 1.63v-29.41l1.5.03c2.3.06 4.18.59 5.64 1.56 1.46.99 2.69 2.62 3.7 4.9s1.68 5.34 1.98 9.18l1.34.03v-35.94l-1.34-.03c-.48 6.78-1.81 11.22-3.97 13.32-2.16 2.12-4.61 3.16-7.35 3.09l-1.5-.03v-21.92c0-3.65.16-5.94.45-6.85.3-.91.87-1.69 1.72-2.35.86-.69 2.02-1 3.47-.97l1.73.05v-1.95l-27.19-.66v1.95l1.73.05c1.5.03 2.72.44 3.64 1.2.66.5 1.18 1.36 1.53 2.58.29.83.42 3.05.42 6.65v47.09c0 3.65-.13 5.94-.42 6.86-.28.9-.85 1.68-1.71 2.35-.85.66-2.01.98-3.46.94l-1.73-.04v1.96l43.87 1.06v-20.54l-1.57-.04c-.36 4.82-1.27 8.36-2.73 10.65-1.49 2.29-3.61 3.86-6.4 4.75-1.53.48-4.37.69-8.5.59zm50.9-46.53h-18.37l-2.18-6.97c-.73-2.32-1.08-4.23-1.08-5.75 0-2.02.59-3.49 1.77-4.43.68-.58 2.38-.99 5.09-1.28v-1.94h-17.29v1.94c1.85.4 3.4 1.46 4.59 3.21 1.21 1.73 2.69 5.33 4.45 10.79l18.61 57.12h.74l18.75-58.7c1.79-5.57 3.25-9.07 4.41-10.51.88-1.1 2.11-1.73 3.69-1.91v-1.94h-25.17v1.94h1.04c2.01 0 3.44.4 4.25 1.17.57.56.85 1.37.85 2.44 0 .63-.07 1.28-.23 1.94-.05.32-.44 1.64-1.16 3.96zm-1.31 3.91-7.74 24.65-7.98-24.65zm75.67 47.3-30.57-67.57h9.9c4.67 0 7.95.4 9.82 1.21 3.03 1.26 5.67 3.6 7.87 6.99 2.2 3.41 3.72 7.95 4.56 13.66h1.49l-2.11-25.87h-47.63l30.61 67.67h-7.72c-3 0-4.96-.13-5.9-.38-1.8-.45-3.48-1.35-5.05-2.72-1.57-1.35-2.87-3.15-3.92-5.4-1.04-2.25-1.84-5.1-2.43-8.54h-1.42l1.42 20.95zm55.59-53.07-18.37.44-2.19-6.92c-.72-2.31-1.08-4.21-1.08-5.72 0-2.02.6-3.51 1.77-4.48.69-.59 2.39-1.05 5.09-1.4v-1.94l-17.29.41v1.95c1.86.35 3.41 1.37 4.6 3.09 1.2 1.71 2.69 5.27 4.45 10.69l18.6 56.67.74-.02 18.74-59.15c1.8-5.61 3.27-9.14 4.42-10.61.88-1.12 2.11-1.78 3.69-2v-1.94l-25.17.6v1.94l1.04-.02c2.02-.05 3.44.31 4.25 1.07.57.54.86 1.35.86 2.41q0 .945-.24 1.95c-.05.33-.43 1.65-1.15 3.99zm-1.32 3.94-7.73 24.83-7.99-24.45zm66.19 40.72v-29.4l1.51-.08c2.29-.1 4.17.29 5.62 1.16 1.47.88 2.7 2.43 3.7 4.63 1.01 2.2 1.68 5.22 1.98 9.04l1.34-.06v-35.95l-1.34.07c-.48 6.81-1.8 11.34-3.96 13.61-2.16 2.26-4.61 3.48-7.34 3.62l-1.51.07v-21.91c0-3.66.15-5.96.44-6.89.3-.93.88-1.75 1.73-2.48.85-.74 2.02-1.14 3.47-1.21l1.73-.08v-1.95l-27.18 1.31v1.94l1.72-.08c1.51-.07 2.72.25 3.64.94.67.46 1.18 1.28 1.53 2.47.29.82.42 3.02.42 6.62v47.09c0 3.66-.13 5.95-.42 6.88-.27.93-.85 1.76-1.7 2.48-.86.73-2.01 1.13-3.47 1.19l-1.72.09v1.96l43.85-2.1v-20.54l-1.57.07c-.35 4.85-1.27 8.46-2.74 10.85-1.47 2.4-3.6 4.12-6.38 5.21-1.53.6-4.37 1-8.51 1.2zm55.13.73c8.28-.16 15.01-3.98 20.18-11.42 5.17-7.45 7.76-16.48 7.76-27.12 0-9.08-1.93-16.92-5.78-23.54-5.12-8.79-12.33-12.84-21.66-12.17-9.33.68-16.57 5.55-21.67 14.66-4.03 7.19-6.06 15.52-6.06 24.98 0 10.63 2.63 19.31 7.87 26.01 5.26 6.72 11.7 9.59 19.36 8.6m.48-3.4c-4.76.34-8.37-2.75-10.86-9.26-2.01-5.33-3.01-13.15-3.01-23.42 0-12.21 1.55-21.35 4.66-27.42 2.17-4.24 5.22-6.5 9.13-6.78 2.63-.19 4.82.54 6.59 2.15 2.24 2.1 3.99 5.58 5.24 10.44q1.89 7.275 1.89 19.2c0 9.47-.65 16.6-1.92 21.38-1.29 4.79-2.91 8.22-4.9 10.32-1.97 2.07-4.24 3.2-6.82 3.39m50.38-41.77v-20.07c0-3.87.17-6.33.51-7.35.35-1.04.95-1.91 1.81-2.59.88-.67 2.5-1.14 4.88-1.37v-1.94l-26.57 2.55v1.95c2.4-.23 4.02-.08 4.88.47.85.53 1.46 1.26 1.8 2.22.35.96.51 3.36.51 7.23v46.45c0 3.87-.16 6.32-.51 7.36-.34 1.05-.95 1.9-1.83 2.58-.86.69-2.48 1.14-4.85 1.36v1.97l24.11-2.32c6.28-.61 10.87-1.66 13.78-3.13 2.9-1.47 5.28-3.91 7.12-7.31 1.83-3.39 2.75-7.26 2.75-11.59 0-5.28-1.38-9.5-4.14-12.7-1.76-2.01-4.21-3.4-7.37-4.19l12.47-25.43c1.63-3.29 2.79-5.35 3.47-6.19 1.06-1.2 2.27-1.91 3.65-2.15v-1.95l-16.34 1.58-16.72 34.23zm0 35.1v-31.35l2.18-.21c3.54-.34 6.19-.16 7.95.56 1.77.74 3.15 2.23 4.16 4.47 1 2.24 1.51 5.24 1.51 9.01 0 5.46-.92 9.57-2.78 12.36-1.84 2.79-4.82 4.37-8.93 4.76zm88.16-5.3v-24.79l-1.49.18c-1.12 6.6-3.21 11.81-6.28 15.64-3.05 3.81-6.52 5.95-10.39 6.42-3.24.39-6.2-.53-8.9-2.78-2.7-2.26-4.68-5.37-5.92-9.38-1.6-5.13-2.41-10.94-2.41-17.44 0-6.39.59-12.3 1.76-17.71 1.17-5.4 3-9.6 5.5-12.59 2.49-3 5.73-4.72 9.71-5.2 3.26-.39 6.24.22 8.96 1.87 2.71 1.64 5.57 4.68 8.58 9.15v-6.18c-2.91-3.83-5.93-6.51-9.08-8-3.15-1.52-6.82-2.02-11.03-1.51-5.52.67-10.44 2.79-14.73 6.37s-7.6 8.38-9.94 14.39c-2.32 6.02-3.5 12.27-3.5 18.74 0 6.83 1.29 13.14 3.89 18.96 2.59 5.81 6.07 10.15 10.47 12.99 4.39 2.86 9.06 3.97 14.01 3.38 3.63-.44 7.48-1.99 11.54-4.65 2.34-1.54 3.83-2.37 4.47-2.46.81-.09 1.51.24 2.12 1 .6.75.99 2.02 1.17 3.78zm-21.67-69.96 2.52-.31-1.79-3.64c1.53-.52 2.69-1.53 3.5-2.97.79-1.45 1.2-3.2 1.2-5.25 0-1.82-.39-3.45-1.19-4.87-.78-1.42-1.8-2.34-3.01-2.8-1.95-.63-4.87-.72-8.8-.21v2.49c2.55-.16 4.27.19 5.18 1.09.9.9 1.36 2.21 1.36 3.98 0 1.06-.3 1.96-.9 2.74-.6.79-1.46 1.24-2.58 1.37zm54.74 11.16-18.28 2.64-2.17-6.66c-.71-2.22-1.07-4.08-1.07-5.59 0-2.02.59-3.58 1.76-4.69.68-.67 2.37-1.33 5.07-2.01v-1.95l-17.21 2.49v1.95c1.85.13 3.39.97 4.57 2.54 1.2 1.56 2.69 4.95 4.43 10.16l18.51 54.43.73-.1 18.65-61.4c1.78-5.82 3.24-9.53 4.39-11.14.86-1.22 2.09-2.03 3.66-2.44v-1.95l-25.02 3.62v1.95l1.02-.15c2.01-.29 3.43-.1 4.24.56.56.48.85 1.25.85 2.31q0 .945-.24 1.98c-.05.33-.43 1.7-1.15 4.13zm-1.31 4.1-7.69 25.76-7.94-23.5z" style="fill:#231f20;fill-opacity:1;fill-rule:nonzero;stroke:none" transform="matrix(.13333 0 0 -.13333 -81.502 775.212)"></path><path d="M1171.34 4698.87c86.75 90.09 180.39 149.4 272.07 183.35l.45-514.34 153.91-155.06 79.19 75.54-.1 552.64c21.73-3.2 43.81-10.49 60.3-26.8v-561.88l-317.41-268.11-248.41 246.42z" style="fill:#231f20;fill-opacity:1;fill-rule:evenodd;stroke:none" transform="matrix(.13333 0 0 -.13333 -81.502 775.212)"></path><path d="M1240.32 4670.39v-411.03l183.17-181.71 122.76 102.95-156.67 170.65-.69 421.89c-45.53-13.28-105.88-52.4-148.57-102.75" style="fill:#2f439e;fill-opacity:1;fill-rule:evenodd;stroke:none" transform="matrix(.13333 0 0 -.13333 -81.502 775.212)"></path><path d="M1764.58 4170.93c37.34 0 67.61-30.28 67.61-67.61 0-37.34-30.27-67.62-67.61-67.62s-67.62 30.28-67.62 67.62c0 37.33 30.28 67.61 67.62 67.61m1591.46 922.93c37.34 0 67.61-30.27 67.61-67.61s-30.27-67.61-67.61-67.61-67.61 30.27-67.61 67.61 30.27 67.61 67.61 67.61m1451.44-1041.23c37.34 0 67.61-30.28 67.61-67.61 0-37.34-30.27-67.62-67.61-67.62s-67.62 30.28-67.62 67.62c0 37.33 30.28 67.61 67.62 67.61m-621.66 549.81 374.37 244.32 273.88-244.32v-411.81l-372.4-234.47-275.85 214.77zm382.25-122.12-114.28 116.25v-323.25l114.28-90.89z" style="fill:#231f20;fill-opacity:1;fill-rule:evenodd;stroke:none" transform="matrix(.13333 0 0 -.13333 -81.502 775.212)"></path><path d="m4560.8 4100.08-165.16 132.09v417.77l-112.3-70.09V4194.8l191.38-144.65zm76.25 48.01 128.04 80.62v335.94l-208.46 189.59-99.89-65.19 180.31-180.51z" style="fill:#2f439e;fill-opacity:1;fill-rule:evenodd;stroke:none" transform="matrix(.13333 0 0 -.13333 -81.502 775.212)"></path><path d="M2956.33 5472.67v-279.46c0-16.74 10.67-31.39 29.56-24.3 53.13 19.95 106.62 102.57 107.38 155.66 1.44 101.15-83.08 156.27-110.35 169.45-17.06 8.25-26.59-8.43-26.59-21.35m-256.14-293.21v291.82c-23.13 1.79-51.08-2.35-66.01 13.86-6.68 7.26-11.87 20.54-10.18 32.56 1.9 13.64 11.79 25.57 22.98 25.57 36.78 0 66.98-3.71 102.46.49 13.88 1.64 32.74 7.99 46.85 11.5l221.4 55.12c112.13 27.91 238.68-17.56 305.52-100.03 39.7-48.98 52.34-108.03 50.84-161.15-2.03-71.43-30.31-153.63-85.03-213.83-62.98-69.28-136.67-87.61-225.14-85.6-87.69 2-156.05 14.28-225.77 47.22h-181.27c-15.88 0-18.84 38.06-5.91 47.29z" style="fill:#231f20;fill-opacity:1;fill-rule:evenodd;stroke:none" transform="matrix(.13333 0 0 -.13333 -81.502 775.212)"></path><path d="M2887.36 5181.89v308.2c-25.59 12.6-91.59-19.67-100.48-23.82v-282.59c33.49-6.5 66.98-5.79 100.48-1.79m159.16-66.3c86.8-13.67 159.89 28.6 190.48 62.24 36.52 37.62 65.99 110.25 64.16 170.37-4.16 137.2-150.23 213.39-251.22 205.99 56.18-58.58 124.95-109.05 130-223.21 1.69-77.82-64.5-172.41-133.42-215.39" style="fill:#2f439e;fill-opacity:1;fill-rule:evenodd;stroke:none" transform="matrix(.13333 0 0 -.13333 -81.502 775.212)" data-source="https://football-logos.cc"></path><!-- source: https://football-logos.cc --></svg>