<svg xmlns="http://www.w3.org/2000/svg" xml:space="preserve" viewBox="0 0 592.7 755.9"><!-- Source: https://football-logos.cc --><path d="m5199.01 4571.27-569.75 626.1c-463.74-37.03-800.74 171.61-982.81 616.54l-1342.05.18c-190.16-480.95-553.94-646.98-978.74-616.96l-571.914-625.86c143.961-191.36 239.07-467.9 242.582-679.98 9.782-590.99-15.277-1003.74-29.84-1366.81-34.105-849.96 171.102-1185.54 796.222-1506.6 358.42-184.091 846.45-472.278 1213.27-873.075 348.23 375.468 752.84 629.062 1213.83 873.705 611.94 324.76 819.58 613.08 797.93 1499.2-11.47 469.5-53.23 907.83-32.92 1364.86 10.8 242.71 108.54 502.95 244.19 688.7" style="fill:#fff;fill-opacity:1;fill-rule:evenodd;stroke:none" transform="matrix(.13333 0 0 -.13333 -100.5 775.212)" data-source="https://football-logos.cc"></path><path d="m5199.01 4571.27-569.75 626.1c-463.74-37.03-800.74 171.61-982.81 616.54l-1342.05.18c-190.16-480.95-553.94-646.98-978.74-616.96l-571.914-625.86c143.961-191.36 239.07-467.9 242.582-679.98 9.782-590.99-15.277-1003.74-29.84-1366.81-34.105-849.96 171.102-1185.54 796.222-1506.6 358.42-184.091 846.45-472.278 1213.27-873.075 348.23 375.468 752.84 629.062 1213.83 873.705 611.94 324.76 819.58 613.08 797.93 1499.2-11.47 469.5-53.23 907.83-32.92 1364.86 10.8 242.71 108.54 502.95 244.19 688.7M2670.23 3522.46l-.74 286.93L1386.86 5059.7c30.03.34 113.35 8.03 142.47 10.42 385.08 31.56 688.99 241.35 859.01 616.22l1175.07-.16c166.45-347.38 439.21-561.01 798.63-609.86 66.55-9.04 148.72-12.43 221.09-9.98L3292.46 3816.18l.04-294.03 293.25.74L4851.3 4763.57l186.15-204.55c-130.71-215.98-202.84-462.71-212.01-714.6-8.87-243.56-.92-486.56 9.96-729.94 8.94-199.82 20.36-399.53 24.64-599.53 4.62-216.66 2.61-430.83-48.7-642.15-11.16-45.94-24.43-89.19-40.02-130.14l-14.64-27.32-1179.95 1175.11-284.55-.04.75-286.92 1231.94-1215.08c-17.45-15.03-48.32-39.32-67.35-53.92-167.09-128.19-359.66-217.42-542.46-320.5-148.2-83.564-293.26-172.892-433.09-269.314-179.77-123.977-350.44-260.547-505.69-415.867-152.73 152.402-320.45 287.476-497.05 410.996-142.15 99.425-289.09 190.066-440.38 274.895-186.04 104.32-380.53 189.73-549.33 321.88-18.6 14.57-49.07 38.84-66.16 53.86l1246.6 1218.91-.04 290.86-283.76-.73-1196.15-1181.5c-22.61 53.96-40.93 111.65-55.38 173.86-48.13 207.28-48.17 416.03-40.49 627.99 7.24 199.58 17.94 399.03 24.07 598.65 7.37 239.87 9.64 479.64 6.66 719.6-1.15 93.11-7.36 180.32-27.48 271.35-35.26 159.58-96.22 310.47-181.3 450.14l201.06 214.89 1268.54-1252.04z" style="fill:#18416f;fill-opacity:1;fill-rule:evenodd;stroke:none" transform="matrix(.13333 0 0 -.13333 -100.5 775.212)"></path><path d="M2747.15 3849.04v-402.56h-413.32l-515.94 503.8V2427.8l539.18 541.74h390.08v-400.26l-529.14-523.52h1522.48l-529.04 521.91v401.87h389.09l539.17-541.74v1528.8l-515.93-510.12h-412.33v401.02l535.36 521.91h-1528.8zm278.39 179.52h-94.82V3279.5h-749.06v-94.81h749.06v-749.06h94.82v749.06h749.05v94.81h-749.05z" style="fill:#e31c22;fill-opacity:1;fill-rule:evenodd;stroke:none" transform="matrix(.13333 0 0 -.13333 -100.5 775.212)" data-source="https://football-logos.cc"></path><path d="m1659.5 2902.27-34.38-12.42c-13.1-3.83-27.83-6.55-44.2-8.19l-41.75-2.46h-8.18c-80.77 0-149.8 26.47-207.1 79.41-57.29 52.93-85.94 127.42-85.94 223.46 0 100.41 30.15 175.99 90.44 226.74 60.31 50.75 127.02 76.12 200.14 76.12H1567l31.93-4.91c15.28-3.41 31.24-8.32 47.88-15 16.65-6.55 32.33-14.88 47.07-24.83v-167.26h-8.19l-11.46 12.28-14.73 13.92c-10.37 8.73-25.37 18.27-45.02 28.64-19.64 9.28-39.84 13.92-60.57 13.92-43.66 0-78.31-16.65-103.96-50.07s-38.47-71.62-38.47-114.87c0-48.7 14.19-86.77 42.56-114.05 28.38-27.42 61.67-41.07 99.87-41.07 27.82 0 53.2 6.96 76.12 20.74 20.74 11.59 39.29 25.65 55.66 42.29h8.19v-163.57zm1208.16 2260.36h351.97v-137.51h-183.35v-85.95h166.17v-131.79h-166.17v-217.73h-168.62zm1660.58-1700.39c48.97 0 84.66-9 107.08-27.01 22.43-18.01 37.5-38.75 45.23-62.21l6.97-30.29 2.31-26.19c0-28.92-8.37-53.89-25.13-74.9-16.75-21.01-36.47-35.88-59.14-44.6l22.42-9.01c2.57-1.09 6.83-3 12.75-5.73q8.895-4.095 14.31-8.19 23.97-14.73 44.46-44.61c13.66-19.91 20.48-46.79 20.48-80.63l-.77-9.82v-9c-3.09-33.84-18.42-65.76-46-95.77-27.58-30.02-71-45.02-130.28-45.02H4258.4v572.98h7.73zm-47.94-458.38h16.24c6.7 0 14.56 1.22 23.58 3.68 9.02 2.45 18.17 7.91 27.45 16.1 9.28 8.18 13.92 21.96 13.92 41.2 0 17.59-4.51 30.28-13.54 37.92-9.02 7.64-19.45 13.51-31.31 17.33l-18.55 1.64h-79.64v-117.87zm-6.19 232.46c21.66 0 37.37 3.55 47.17 10.64q14.685 10.65 20.1 25.38l1.55 9v9.01c0 15.28-5.16 28.37-15.34 39.29-9.79 12-27.7 18-53.86 18h-55.28v-111.32z" style="fill:#a49132;fill-opacity:1;fill-rule:nonzero;stroke:none" transform="matrix(.13333 0 0 -.13333 -100.5 775.212)" data-source="https://football-logos.cc"></path><!-- source: https://football-logos.cc --></svg>