<svg xmlns="http://www.w3.org/2000/svg" viewBox="0 0 72.13 96.84"><!-- Source: https://football-logos.cc --><path d="M107.841 197.663a10.35 10.35 0 0 0 2.874 2.92v-9.343a17.5 17.5 0 0 0-2.827 6.12 1.5 1.5 0 0 0-.047.303m-.771 6.705v-1.192 1.005z" class="a" style="fill:none;stroke-width:2.33595" transform="translate(-97.212 -162.337)" data-source="https://football-logos.cc"></path><path d="M110.621 182.994v1.915l2.523 3.55-.818.749a13 13 0 0 0-1.705 1.915v28.032c0 35.039 50.503 35.039 50.503 0v-36.161z" class="b" style="fill:#009448;stroke-width:2.33595" transform="translate(-97.212 -162.337)"></path><path d="M107.841 197.663a28 28 0 0 0-.747 5.49v1.191c0 1.308 0 2.453.117 3.387l.163 2.827v.257a35 35 0 0 0 3.317 2.733v-12.965a10.4 10.4 0 0 1-2.85-2.92" class="c" style="fill:#9e2432;stroke-width:2.33595" transform="translate(-97.212 -162.337)"></path><path d="M107.187 207.755c0-.935 0-2.08-.117-3.387v-1.192a28 28 0 0 1 .748-5.49 1.5 1.5 0 0 1 0-.233 17.45 17.45 0 0 1 2.803-6.33 13 13 0 0 1 1.705-1.916l.818-.748-2.43-3.55-4.414-6.238-1.028 1.308c-5.35 6.704-8.06 12.217-8.06 16.469a8.3 8.3 0 0 0 .702 3.41 37.9 37.9 0 0 0 7.194 9.017l2.336 1.939v-.234z" class="d" style="fill:#cb4838;stroke-width:2.33595" transform="translate(-97.212 -162.337)"></path><path d="M161.195 212.287v6.844a32 32 0 0 1-.304 4.508 38.3 38.3 0 0 1 7.265 3.387c.42-.817.793-1.658 1.168-2.5a15.3 15.3 0 0 0-8.13-12.24" class="c" style="fill:#9e2432;stroke-width:2.33595" transform="translate(-97.212 -162.337)"></path><path d="M124.847 253.68v.14h.28v-.163zm16.749-1.028a.65.65 0 0 0-.56-.164.7.7 0 0 0-.492.35 1.33 1.33 0 0 0 0 .841 1.36 1.36 0 0 0 .35.771.65.65 0 0 0 .561.187.68.68 0 0 0 .468-.35 1.3 1.3 0 0 0 0-.864 1.26 1.26 0 0 0-.328-.771zm-26.793-5.793a.72.72 0 0 0-.608 0 1.08 1.08 0 0 0-.49.607 1.43 1.43 0 0 0 0 .84.77.77 0 0 0 .373.514.65.65 0 0 0 .608 0 1.54 1.54 0 0 0 .607-1.448.77.77 0 0 0-.49-.514zm6.12 2.055a1.2 1.2 0 0 0-.35-.163l-.842-.374-.42 1.309.84.373a.93.93 0 0 0 .655 0 .6.6 0 0 0 .327-.42.65.65 0 0 0 0-.42.6.6 0 0 0-.21-.304zm24.294 5.023v.187h.28v-.257zm-32.237-9.204a2 2 0 0 0-.373-.257l-.795-.397-.584 1.098.795.513a.9.9 0 0 0 .654.188.56.56 0 0 0 .373-.351.58.58 0 0 0 0-.42.7.7 0 0 0-.07-.374m14.904 7.311a.63.63 0 0 0-.56.164 1.2 1.2 0 0 0-.282.77 1.4 1.4 0 0 0 .117.841.77.77 0 0 0 .49.373.68.68 0 0 0 .561-.163 1.22 1.22 0 0 0 .304-.794 1.4 1.4 0 0 0-.116-.818.75.75 0 0 0-.514-.373m-5.303-.257h-.397a.3.3 0 0 0-.187 0 .35.35 0 0 0-.117.188.44.44 0 0 0 0 .326.51.51 0 0 0 .35.257.58.58 0 0 0 .421 0 .5.5 0 0 0 .35-.21 1 1 0 0 0 .188-.444v-.094a3 3 0 0 1-.608-.026zm36.254-7.965a.6.6 0 0 0-.56.14.7.7 0 0 0-.257.538 1.24 1.24 0 0 0 .28.794 1.2 1.2 0 0 0 .63.537.56.56 0 0 0 .561-.116.86.86 0 0 0 .281-.56 1.47 1.47 0 0 0-.304-.841 1.1 1.1 0 0 0-.63-.491zm-11.119 7.054a.58.58 0 0 0-.56 0 .61.61 0 0 0-.445.42 1.4 1.4 0 0 0 0 .841 1.45 1.45 0 0 0 .444.724.677.677 0 0 0 1.005-.35 1.4 1.4 0 0 0 0-.865 1.22 1.22 0 0 0-.444-.77m15.791-10.324-.116-.117a2.8 2.8 0 0 1-.374.654 1.8 1.8 0 0 0-.21.374.6.6 0 0 0 0 .234.44.44 0 0 0 .397.35.44.44 0 0 0 .327-.304.9.9 0 0 0 .234-.42.86.86 0 0 0 0-.444 1.3 1.3 0 0 0-.257-.327z" class="d" style="fill:#cb4838;stroke-width:2.33595" transform="translate(-97.212 -162.337)"></path><path d="M169.347 224.504a48 48 0 0 1-1.168 2.499c-10.395 20.23-39.711 33.17-60.922 7.008v13.081c18.548 19.552 54.545 15.768 61.506-14.226.28-2.92.444-5.956.514-8.316v-.044zm-9.064 15.767.327.444-.327.28-.326-.444zm-2.172 2.103v.934l-.28.234-.163-.818zm-2.71 2.172.21.467-.35.28-.28-.491zm-43.448 1.542-.818-.514-.654 1.378-.397-.257 1.588-3.41 1.075.794a4 4 0 0 1 .467.327 1.5 1.5 0 0 1 .304.373 1.5 1.5 0 0 1 0 .491 1.6 1.6 0 0 1 0 .514 1 1 0 0 1-.607.584 1.3 1.3 0 0 1-1.052-.281zm3.177 2.99a.96.96 0 0 1-.584.234 1.03 1.03 0 0 1-.608-.164 1.22 1.22 0 0 1-.654-.794 1.6 1.6 0 0 1 0-1.121 1.33 1.33 0 0 1 .841-.818 1.1 1.1 0 0 1 .818.14 1.33 1.33 0 0 1 .63.771 1.57 1.57 0 0 1 0 1.121 1.6 1.6 0 0 1-.537.655zm2.335-.63a.5.5 0 0 0-.256-.258.35.35 0 0 0-.257 0 .6.6 0 0 0-.234.164 2.7 2.7 0 0 0-.257.467l-.56 1.308-.444-.21 1.004-2.57.35.187-.163.42a1.1 1.1 0 0 1 .374-.256.47.47 0 0 1 .28 0 .7.7 0 0 1 .35.35zm3.668 2.055a1.22 1.22 0 0 1-1.075 0l-.864-.373-.467 1.471-.49-.257 1.144-3.644 1.191.56.49.235a1 1 0 0 1 .351.35 1.05 1.05 0 0 1 .164.467 1.15 1.15 0 0 1 0 .537 1.03 1.03 0 0 1-.514.677zm2.756.584a3 3 0 0 1 0 .42l-.14.607a6 6 0 0 0-.163.818 1.4 1.4 0 0 0 0 .373l-.42-.14a.8.8 0 0 1 0-.35 1.3 1.3 0 0 1-.514.163h-.491a1.08 1.08 0 0 1-.584-.42.9.9 0 0 1 0-.63.9.9 0 0 1 .163-.351.7.7 0 0 1 .28-.188.8.8 0 0 1 .327 0h.398a3.8 3.8 0 0 0 .794 0v-.044a.75.75 0 0 0 0-.444.72.72 0 0 0-.467-.303.58.58 0 0 0-.467 0 .63.63 0 0 0-.28.326l-.397-.187a.77.77 0 0 1 .257-.397.65.65 0 0 1 .444-.14 1.6 1.6 0 0 1 .583 0 1.2 1.2 0 0 1 .491.28.6.6 0 0 1 .257.28.9.9 0 0 1-.07.327zm.795 2.009a.63.63 0 0 0 .42.373.54.54 0 0 0 .444 0 .84.84 0 0 0 .304-.467l.397.187a1.2 1.2 0 0 1-.467.654.9.9 0 0 1-.7 0 .56.56 0 0 1 .256.234.3.3 0 0 1 0 .257.4.4 0 0 1-.233.28.65.65 0 0 1-.538 0h-.326v-.28h.21a.75.75 0 0 0 .327 0h-.21l.116-.28a1.05 1.05 0 0 1-.467-.491 1.64 1.64 0 0 1 0-1.145 1.75 1.75 0 0 1 .28-.748.89.89 0 0 1 .468-.583.98.98 0 0 1 .63 0 1.08 1.08 0 0 1 .607.42 1.15 1.15 0 0 1 .21.724h-.42a.84.84 0 0 0-.116-.491.6.6 0 0 0-.327-.234.56.56 0 0 0-.538 0 1.2 1.2 0 0 0-.373.748 1.38 1.38 0 0 0 .027.887zm4.275.14a1.7 1.7 0 0 1-.257.817.98.98 0 0 1-.467.42 1.4 1.4 0 0 1-.63 0 1.12 1.12 0 0 1-.818-.56 1.64 1.64 0 0 1-.234-1.121 1.4 1.4 0 0 1 .514-1.075 1.03 1.03 0 0 1 .817-.163 1.2 1.2 0 0 1 .795.537 1.64 1.64 0 0 1 .28 1.191zm2.336 1.004a.68.68 0 0 1-.14.444.77.77 0 0 1-.374.28 1.03 1.03 0 0 1-.537 0 1.2 1.2 0 0 1-.748-.303 1.3 1.3 0 0 1-.28-.724h.444a.8.8 0 0 0 .163.467.9.9 0 0 0 .444.21.58.58 0 0 0 .444 0 .35.35 0 0 0 .163-.28.28.28 0 0 0 0-.28 1.5 1.5 0 0 0-.444-.211 2.5 2.5 0 0 1-.747-.42.9.9 0 0 1-.257-.28.9.9 0 0 1 0-.397.7.7 0 0 1 0-.35.75.75 0 0 1 .233-.235h.654a1.3 1.3 0 0 1 .514.163.84.84 0 0 1 .327.304 1.1 1.1 0 0 1 0 .467h-.28a.7.7 0 0 0-.14-.35.6.6 0 0 0-.374-.164.5.5 0 0 0-.42 0 .33.33 0 0 0-.14.234.5.5 0 0 0 0 .188.44.44 0 0 0 .162.163l.398.257.63.304a.9.9 0 0 1 .28.303.6.6 0 0 1 .027.257zm1.892 1.075v-3.925h2.523v.468h-2.056v1.19h1.939v.445h-1.939v1.331h2.15v.467zm5.045-.444a.9.9 0 0 1-.326.35 1.05 1.05 0 0 1-.514.14.98.98 0 0 1-1.168-.84h.42a.6.6 0 0 0 .257.42.77.77 0 0 0 .467.116.72.72 0 0 0 .42-.163.47.47 0 0 0 0-.327.37.37 0 0 0-.163-.257l-.467-.116a4 4 0 0 1-.677-.188.75.75 0 0 1-.304-.256.6.6 0 0 1 0-.327.63.63 0 0 1 0-.35.6.6 0 0 1 .187-.28.6.6 0 0 1 .257-.164.8.8 0 0 1 .374 0 1.1 1.1 0 0 1 .537 0 .68.68 0 0 1 .35.234 1.2 1.2 0 0 1 .188.444h-.42a.5.5 0 0 0-.21-.326.65.65 0 0 0-.398 0 .54.54 0 0 0-.397.163.3.3 0 0 0-.116.257.3.3 0 0 0 0 .163.28.28 0 0 0 .187.117h.397l.63.163a1 1 0 0 1 .327.257.72.72 0 0 1 .117.42 1 1 0 0 1 .07.42zm1.238.257h-.42l-.303-2.453h-.374v-.374h.35v-.163a1.4 1.4 0 0 1 0-.444.37.37 0 0 1 .164-.304.6.6 0 0 1 .373-.163 1 1 0 0 1 .398 0v.397a.8.8 0 0 0-.28 0 .33.33 0 0 0-.257 0 .7.7 0 0 0 0 .374v.257h.49v.35h-.49zm2.804-1.005a1.26 1.26 0 0 1-.327.56 1.5 1.5 0 0 1-.56.258 1.03 1.03 0 0 1-.912-.257 1.54 1.54 0 0 1-.514-1.028 1.47 1.47 0 0 1 .188-1.215 1.1 1.1 0 0 1 .724-.444 1.08 1.08 0 0 1 .91.257 1.6 1.6 0 0 1 .492.981 1.75 1.75 0 0 1 0 .958zm1.425-2.055a.56.56 0 0 0-.304 0 .5.5 0 0 0-.234.163.47.47 0 0 0 0 .304 1.24 1.24 0 0 0 0 .56l.327 1.449h-.42l-.631-2.78h.373v.42a1.3 1.3 0 0 1 .188-.444.56.56 0 0 1 .234-.163.96.96 0 0 1 .467 0zm2.336 1.471a.9.9 0 0 1-.584.444.5.5 0 0 1 .327 0 .35.35 0 0 1 .14.234.4.4 0 0 1 0 .374.82.82 0 0 1-.467.303 1 1 0 0 1-.327 0v-.326h.21a.42.42 0 0 0 .281-.14.2.2 0 0 0 0-.164.47.47 0 0 0-.257 0v-.14a1.05 1.05 0 0 1-.63-.187 1.75 1.75 0 0 1-.794-.982 2.6 2.6 0 0 1 0-.817 1.03 1.03 0 0 1 .257-.608 1.3 1.3 0 0 1 .514-.444.96.96 0 0 1 .7 0 1 1 0 0 1 .515.537l-.374.187a.68.68 0 0 0-.303-.35.54.54 0 0 0-.398 0 .63.63 0 0 0-.42.397 1.82 1.82 0 0 0 .42 1.589.584.584 0 0 0 .911-.027 1 1 0 0 0 0-.584h.42a1.36 1.36 0 0 1-.07.771zm2.57-1.261a1 1 0 0 1-.282.607 1.1 1.1 0 0 1-.514.35.98.98 0 0 1-.91 0 1.57 1.57 0 0 1-.631-.934 1.66 1.66 0 0 1 0-1.214 1.03 1.03 0 0 1 .654-.56 1 1 0 0 1 .935 0 1.47 1.47 0 0 1 .607.91 1.9 1.9 0 0 1 .14.84zm3.643-1.191a1.2 1.2 0 0 1-.538.56 1.05 1.05 0 0 1-.934 0 1.45 1.45 0 0 1-.748-.817 1.66 1.66 0 0 1-.163-1.145 1.08 1.08 0 0 1 .584-.77.93.93 0 0 1 .887 0 1.66 1.66 0 0 1 .748.84.3.3 0 0 1 0 .116l-1.658.911a1 1 0 0 0 .513.304.63.63 0 0 0 .584 0 .84.84 0 0 0 .304-.327 1.2 1.2 0 0 0 0-.514l.42-.187a1.36 1.36 0 0 1 0 1.028zm2.897-1.566-3.037-2.616.42-.49 2.15 1.961a3 3 0 0 1 .466.467c0-.233 0-.467-.14-.677l-.63-2.92.42-.28.817 4.158zm1.822-1.308-1.448-2.336.373-.257 1.448 2.336zm1.425-.934-.444.044a.33.33 0 0 1-.257 0 1.9 1.9 0 0 1-.35-.467l-.865-1.355-.234.187-.187-.303.257-.188-.35-.607.28-.514.514.84.35-.256.21.326-.35.281.864 1.402.117.116h.233l.14-.14.28.304zm1.705-1.682a1.17 1.17 0 0 1-.397.56 1.08 1.08 0 0 1-.888.234 1.5 1.5 0 0 1-.864-.794 1.6 1.6 0 0 1-.327-1.191 1.22 1.22 0 0 1 .467-.795.98.98 0 0 1 .864-.234 1.3 1.3 0 0 1 .84.63 2.3 2.3 0 0 1 .351.795 1.4 1.4 0 0 1-.044.701zm.934-.677-1.635-2.336.281-.257.257.35a1.6 1.6 0 0 1 0-.49.44.44 0 0 1 .163-.28.7.7 0 0 1 .398-.164l.14.467a.5.5 0 0 0-.28.14.44.44 0 0 0-.164.235.65.65 0 0 0 0 .303 3 3 0 0 0 .28.491l.865 1.168zm1.192-1.215-1.682-2.196.303-.303 1.776 2.079zm2.149-2.336a.7.7 0 0 1-.28-.187 1.6 1.6 0 0 1-.14.584 1.2 1.2 0 0 1-.257.444.9.9 0 0 1-.608.28.56.56 0 0 1-.467-.256.84.84 0 0 1-.187-.351.9.9 0 0 1 0-.35 1 1 0 0 1 .187-.351 2.3 2.3 0 0 1 .234-.35 5 5 0 0 0 .444-.701.5.5 0 0 0-.326-.234.75.75 0 0 0-.445.256.8.8 0 0 0-.256.42.84.84 0 0 0 .14.468l-.35.28a1.6 1.6 0 0 1-.188-.514.93.93 0 0 1 0-.491 2 2 0 0 1 .327-.514 1.2 1.2 0 0 1 .304-.397.65.65 0 0 1 .35 0 1 1 0 0 1 .327.14l.28.304.42.467.561.607.304.164z" class="d" style="fill:#cb4838;stroke-width:2.33595" transform="translate(-97.212 -162.337)"></path><path d="M151.197 249.218a.54.54 0 0 0-.584 0 .72.72 0 0 0-.35.444 1.05 1.05 0 0 0 0 .63l1.238-.677a1 1 0 0 0-.304-.397" class="d" style="fill:#cb4838;stroke-width:2.33595" transform="translate(-97.212 -162.337)"></path><path d="M151.897 250.34a1.2 1.2 0 0 1 0 .513.84.84 0 0 1-.303.327.63.63 0 0 1-.654-.094.98.98 0 0 1-.491-.514l1.658-.91a.3.3 0 0 0 0-.117 1.66 1.66 0 0 0-.77-.795.93.93 0 0 0-.888 0 1.08 1.08 0 0 0-.584.77 1.66 1.66 0 0 0 .163 1.145 1.45 1.45 0 0 0 .748.818 1.05 1.05 0 0 0 .935 0 1.2 1.2 0 0 0 .537-.397 1.36 1.36 0 0 0 0-.818zm-1.565 0a1.05 1.05 0 0 1 0-.631.72.72 0 0 1 .35-.444.54.54 0 0 1 .584 0 1 1 0 0 1 .374.397zm4.042-5.093.607 2.99c0 .21 0 .444.14.677a3 3 0 0 0-.467-.467l-2.125-2.032-.42.28 3.036 2.616.467-.187-.748-4.158zm-12.614 7.078a1.08 1.08 0 0 0-.912-.257 1.1 1.1 0 0 0-.724.444 1.47 1.47 0 0 0-.187 1.215 1.54 1.54 0 0 0 .514 1.027 1.03 1.03 0 0 0 .911.257 1.5 1.5 0 0 0 .56-.257 1.26 1.26 0 0 0 .328-.56 1.75 1.75 0 0 0 0-.865 1.6 1.6 0 0 0-.49-1.004m0 1.939a.68.68 0 0 1-.468.35.65.65 0 0 1-.56-.187 1.36 1.36 0 0 1-.35-.77 1.33 1.33 0 0 1 0-.842.7.7 0 0 1 .49-.35.65.65 0 0 1 .56.163 1.26 1.26 0 0 1 .327.747 1.3 1.3 0 0 1 0 .888zm6.19-3.738a1 1 0 0 0-.935 0 1.03 1.03 0 0 0-.747.56 1.66 1.66 0 0 0 0 1.239 1.57 1.57 0 0 0 .63.934.98.98 0 0 0 .91 0 1.1 1.1 0 0 0 .515-.35 1 1 0 0 0 .28-.63 1.9 1.9 0 0 0 0-.865 1.47 1.47 0 0 0-.654-.888zm.257 1.916a.677.677 0 0 1-1.005.35 1.45 1.45 0 0 1-.444-.724 1.4 1.4 0 0 1 0-.84.61.61 0 0 1 .444-.42.58.58 0 0 1 .56 0 1.2 1.2 0 0 1 .445.7 1.4 1.4 0 0 1 0 .935zm-4.929-.842a.56.56 0 0 0-.233.164 1.3 1.3 0 0 0-.188.444v-.42h-.373l.63 2.78h.42l-.326-1.449a1.24 1.24 0 0 1 0-.56.47.47 0 0 1 0-.304.5.5 0 0 1 .234-.163.56.56 0 0 1 .304 0v-.467a.96.96 0 0 0-.467-.027zm2.522 1.215a1 1 0 0 1 0 .585.584.584 0 0 1-.91.163 1.82 1.82 0 0 1-.42-1.588.63.63 0 0 1 .42-.398.54.54 0 0 1 .397 0 .68.68 0 0 1 .304.35l.373-.186a1 1 0 0 0-.514-.538.96.96 0 0 0-.7 0 1.3 1.3 0 0 0-.538.327 1.03 1.03 0 0 0-.257.607 2.6 2.6 0 0 0 0 .818 1.75 1.75 0 0 0 .583.98 1.05 1.05 0 0 0 .63.188v-.187h.304v.187a.9.9 0 0 0 .585-.444 1.36 1.36 0 0 0 .21-.911z" class="e" style="fill:#fff;stroke-width:2.33595" transform="translate(-97.212 -162.337)"></path><path d="M145.217 254.123v.327a.47.47 0 0 1 .257 0 .2.2 0 0 1 0 .163.42.42 0 0 1-.281.14h-.21v.327a1 1 0 0 0 .326 0 .82.82 0 0 0 .467-.28.4.4 0 0 0 0-.373.35.35 0 0 0-.14-.234.5.5 0 0 0-.327 0zm14.576-10.044a1.3 1.3 0 0 0-.84-.63.98.98 0 0 0-.865.233 1.22 1.22 0 0 0-.467.794 1.6 1.6 0 0 0 .327 1.191 1.5 1.5 0 0 0 .864.678 1.08 1.08 0 0 0 .888-.234 1.17 1.17 0 0 0 .397-.56 1.4 1.4 0 0 0 0-.678 2.3 2.3 0 0 0-.304-.794m-.327 1.705a.56.56 0 0 1-.56.117 1.2 1.2 0 0 1-.63-.538 1.24 1.24 0 0 1-.327-.864.7.7 0 0 1 .35-.42.6.6 0 0 1 .56-.141 1.1 1.1 0 0 1 .631.514 1.47 1.47 0 0 1 .304.84.86.86 0 0 1-.304.444z" class="e" style="fill:#fff;stroke-width:2.33595" transform="translate(-97.212 -162.337)"></path><path d="m27.24 33.72-.13.14.73.93.13-.13z" class="e" style="fill:#fff" transform="translate(0 -.017)scale(2.33595)"></path><path d="M160.284 242.84a.65.65 0 0 1 0-.303.44.44 0 0 1 .163-.234.5.5 0 0 1 .28-.14l-.233-.42a.7.7 0 0 0-.42.187.44.44 0 0 0-.164.28 1.6 1.6 0 0 0 0 .49l-.257-.35-.28.257 1.635 2.336.326-.28-.864-1.168a3 3 0 0 1-.187-.654zm3.573-2.592-.42-.467-.28-.374a1 1 0 0 0-.327 0 .65.65 0 0 0-.35 0 1.2 1.2 0 0 0-.42.327 2 2 0 0 0-.328.514.93.93 0 0 0 0 .49 1.6 1.6 0 0 0 .188.515l.35-.28a.84.84 0 0 1-.14-.467.8.8 0 0 1 .257-.42.75.75 0 0 1 .234-.258.5.5 0 0 1 .326.234 5 5 0 0 1-.444.701 2.3 2.3 0 0 0-.233.35 1 1 0 0 0-.116.351.9.9 0 0 0 0 .351.84.84 0 0 0 .187.35.56.56 0 0 0 .514.257.9.9 0 0 0 .607-.28 1.2 1.2 0 0 0 .514-.398 1.6 1.6 0 0 0 .14-.583.7.7 0 0 0 .28.187l.305-.327-.281-.163zm0 1.145a.9.9 0 0 1-.233.42.44.44 0 0 1-.351.187.444.444 0 0 1-.49-.257.6.6 0 0 1 0-.233 1.8 1.8 0 0 1 .21-.374 2.8 2.8 0 0 0 .373-.654l.116.117a1.3 1.3 0 0 1 .257.42.9.9 0 0 1 .027.373zm-24.247 10.932h-.49v-.187a.7.7 0 0 1 0-.374.33.33 0 0 1 .256 0 .8.8 0 0 1 .28 0v-.538a1 1 0 0 0-.397 0 .6.6 0 0 0-.42.164.37.37 0 0 0-.164.304 1.4 1.4 0 0 0 0 .444v.303h-.35v.374h.373l.304 2.452h.42l-.326-2.335h.49z" class="e" style="fill:#fff;stroke-width:2.33595" transform="translate(-97.212 -162.337)"></path><path d="m25.11 35.59-.15.11.62 1.02.16-.11z" class="e" style="fill:#fff" transform="translate(0 -.017)scale(2.33595)" data-source="https://football-logos.cc"></path><path d="M158.205 246.765h-.257l-.14-.234-.865-1.401.35-.281-.21-.327-.35.257-.491-.7-.21.49.35.607-.257.188.187.303.234-.187.865 1.355a1.9 1.9 0 0 0 .35.467.33.33 0 0 0 .257 0l.35-.14.235-.257-.28-.304zm-36.582 2.546a1.05 1.05 0 0 0-.163-.467 1 1 0 0 0-.35-.35l-.538-.234-1.261-.537-1.075 3.62.444.188.467-1.472.865.374a1.22 1.22 0 0 0 1.074 0 1.03 1.03 0 0 0 .514-.655 1.15 1.15 0 0 0 .024-.467zm-.513.374a.6.6 0 0 1-.327.42.93.93 0 0 1-.654 0l-.841-.373.42-1.309.864.327a1.2 1.2 0 0 1 .374.21.58.58 0 0 1 .21.35.65.65 0 0 1-.047.374zm-7.546-3.925a1.6 1.6 0 0 0 0-.513 1.5 1.5 0 0 0 0-.491 1.5 1.5 0 0 0-.303-.373 4 4 0 0 0-.514-.304l-1.145-.748-1.612 3.387.398.257.654-1.378.817.514a1.3 1.3 0 0 0 1.051.257 1 1 0 0 0 .654-.608m-.443-.256a.56.56 0 0 1-.374.35.9.9 0 0 1-.654-.187l-.864-.49.584-1.099.794.491a2 2 0 0 1 .374.257.7.7 0 0 1 .163.374.6.6 0 0 1-.07.326z" class="e" style="fill:#fff;stroke-width:2.33595" transform="translate(-97.212 -162.337)"></path><path d="m24.84 35.51.16-.11-.13-.2-.14.11z" class="e" style="fill:#fff" transform="translate(0 -.017)scale(2.33595)"></path><path d="M117.325 247.77a.47.47 0 0 0-.28 0 1.1 1.1 0 0 0-.374.257l.164-.42-.374-.258-1.004 2.57.443.21.491-1.378a2.7 2.7 0 0 1 .257-.467.6.6 0 0 1 .233-.164.35.35 0 0 1 .257 0 .5.5 0 0 1 .257.257l.28-.326a.7.7 0 0 0-.35-.28zm-1.728-.468a1.33 1.33 0 0 0-.631-.77 1.1 1.1 0 0 0-.841-.117 1.33 1.33 0 0 0-.817.84 1.6 1.6 0 0 0 0 1.122 1.22 1.22 0 0 0 .654.794 1.03 1.03 0 0 0 .607.164.96.96 0 0 0 .584-.234 1.6 1.6 0 0 0 .444-.677 1.57 1.57 0 0 0 0-1.122m-.514.911a1.2 1.2 0 0 1-.49.63.65.65 0 0 1-.608 0 .77.77 0 0 1-.42-.56 1.43 1.43 0 0 1 0-.84 1.08 1.08 0 0 1 .49-.608.72.72 0 0 1 .607 0 .77.77 0 0 1 .374.514 1.2 1.2 0 0 1 .047.864" class="e" style="fill:#fff;stroke-width:2.33595" transform="translate(-97.212 -162.337)"></path><path d="m25.91 34.77.12-.1v-.4l-.19.15zm1.06-1.09.13-.12-.14-.19-.14.12z" class="e" style="fill:#fff" transform="translate(0 -.017)scale(2.33595)"></path><path d="m124.777 253.82-.117.303h.21a.75.75 0 0 1-.326 0h-.21v.304h.327a.65.65 0 0 0 .538 0 .4.4 0 0 0 .234-.28.3.3 0 0 0 0-.257.56.56 0 0 0-.257-.234zm6.19-.21-.607-.188-.444-.28a.4.4 0 0 1 0-.163.5.5 0 0 1 0-.187.33.33 0 0 1 .14-.234.5.5 0 0 1 .42 0 .6.6 0 0 1 .374.163.7.7 0 0 1 .14.35h.42a1.1 1.1 0 0 0 0-.466.84.84 0 0 0-.326-.304 1.3 1.3 0 0 0-.514-.163h-.935a.75.75 0 0 0-.234.234.7.7 0 0 0 0 .35.9.9 0 0 0 0 .398.9.9 0 0 0 .257.28 2.5 2.5 0 0 0 .654.327 1.5 1.5 0 0 1 .444.21.28.28 0 0 1 0 .28.35.35 0 0 1-.163.28.58.58 0 0 1-.444 0 1 1 0 0 1-.233-.026.8.8 0 0 1-.164-.467h-.537a1.3 1.3 0 0 0 .28.724 1.2 1.2 0 0 0 .748.304 1.03 1.03 0 0 0 .537 0 .77.77 0 0 0 .374-.28.68.68 0 0 0 .14-.445.6.6 0 0 0 0-.397.9.9 0 0 0-.327-.304zm-3.037-1.963a1.03 1.03 0 0 0-.817.164 1.4 1.4 0 0 0-.514 1.074 1.64 1.64 0 0 0 .234 1.121 1.12 1.12 0 0 0 .818.561 1.4 1.4 0 0 0 .63 0 .98.98 0 0 0 .467-.42 1.7 1.7 0 0 0 .257-.818 1.64 1.64 0 0 0-.234-1.098 1.2 1.2 0 0 0-.841-.583zm.585 1.589a1.22 1.22 0 0 1-.304.794.68.68 0 0 1-.56.164.77.77 0 0 1-.491-.374 1.4 1.4 0 0 1-.117-.84 1.2 1.2 0 0 1 .281-.771.63.63 0 0 1 .56-.163.75.75 0 0 1 .492.373 1.4 1.4 0 0 1 .14.818z" class="e" style="fill:#fff;stroke-width:2.33595" transform="translate(-97.212 -162.337)"></path><path d="m16.46 38.2-1.08-.04.03 1.68 1.12.03-.01-.2-.92-.03v-.57l.83.02-.01-.19-.83-.03v-.51l.88.03z" class="e" style="fill:#fff" transform="translate(0 -.017)scale(2.33595)"></path><path d="M123.586 250.503a1.2 1.2 0 0 0-.491-.281 1.6 1.6 0 0 0-.584 0 .65.65 0 0 0-.444.14.77.77 0 0 0-.257.398l.397.187a.63.63 0 0 1 .281-.327.58.58 0 0 1 .467 0 .72.72 0 0 1 .467.304.75.75 0 0 1 0 .444v.116a3.8 3.8 0 0 1-.794 0h-.398a.8.8 0 0 0-.326 0 .7.7 0 0 0-.28.188.9.9 0 0 0-.164.35.9.9 0 0 0 0 .63 1.08 1.08 0 0 0 .584.42h.49a1.3 1.3 0 0 0 .514-.163.8.8 0 0 0 0 .35l.491.164a1.4 1.4 0 0 1 0-.373 6 6 0 0 1 .164-.818l.14-.607a3 3 0 0 0 0-.42.9.9 0 0 0 0-.374.6.6 0 0 0-.257-.327zm-.304 1.495a1 1 0 0 1-.187.444.5.5 0 0 1-.35.21.58.58 0 0 1-.42 0 .51.51 0 0 1-.351-.257.44.44 0 0 1 0-.327.35.35 0 0 1 .116-.187.3.3 0 0 1 .187 0h.398a3 3 0 0 0 .7 0v.163zm1.705-.444a.56.56 0 0 1 .538 0 .6.6 0 0 1 .327.234.84.84 0 0 1 .116.49h.42a1.15 1.15 0 0 0-.21-.723 1.08 1.08 0 0 0-.583-.467.98.98 0 0 0-.63 0 .9.9 0 0 0-.492.373 1.75 1.75 0 0 0-.28.748 1.64 1.64 0 0 0 0 1.145 1.05 1.05 0 0 0 .467.49v-.14h.303v.163a.9.9 0 0 0 .701 0 1.2 1.2 0 0 0 .467-.654l-.397-.187a.84.84 0 0 1-.304.467.54.54 0 0 1-.444 0 .63.63 0 0 1-.42-.373 1.4 1.4 0 0 1 0-.84 1.2 1.2 0 0 1 .42-.725zm13.198 2.523a1 1 0 0 0-.326-.257l-.63-.164h-.398a.28.28 0 0 1-.187-.234.3.3 0 0 1 0-.163.3.3 0 0 1 .116-.257.54.54 0 0 1 .398-.163.65.65 0 0 1 .397 0 .5.5 0 0 1 .21.327h.42a1.2 1.2 0 0 0-.187-.445.68.68 0 0 0-.35-.234 1.1 1.1 0 0 0-.538 0 .8.8 0 0 0-.373 0 .6.6 0 0 0-.257.164.6.6 0 0 0-.188.28.63.63 0 0 0 0 .351.6.6 0 0 0 .117.374.75.75 0 0 0 .304.256 4 4 0 0 0 .677.188l.467.116a.37.37 0 0 1 .163.257.47.47 0 0 1 0 .327.72.72 0 0 1-.42.163.77.77 0 0 1-.467-.116.6.6 0 0 1-.257-.42h-.42a.98.98 0 0 0 1.168.84 1.05 1.05 0 0 0 .514-.14.9.9 0 0 0 .326-.351 1 1 0 0 0 0-.444.7.7 0 0 0-.28-.257z" class="e" style="fill:#fff;stroke-width:2.33595" transform="translate(-97.212 -162.337)"></path><path d="M123.539 233.1v3.807h-4.392v-10.722h6.658a5.35 5.35 0 0 1 3.27.84 3.364 3.364 0 0 1 0 5.163 5.96 5.96 0 0 1-3.62.911zm25.695-4.298v1.261h4.836v2.593h-4.789v4.181h-4.391v-10.745h10.02v2.733h-5.629zm8.036-34.596a4.95 4.95 0 0 1-1.915 1.238 8.5 8.5 0 0 1-2.85.398 9.9 9.9 0 0 1-3.387-.491 5 5 0 0 1-2.336-1.799 5.14 5.14 0 0 1-.981-3.27 5.07 5.07 0 0 1 1.728-4.112 7.5 7.5 0 0 1 4.812-1.425 7.85 7.85 0 0 1 3.831.795 5.1 5.1 0 0 1 2.103 2.546v.304l-3.925.7v-.21a1.8 1.8 0 0 0-.326-.607 1.8 1.8 0 0 0-.678-.49 2.3 2.3 0 0 0-.957-.164 2.17 2.17 0 0 0-1.8.77 3.06 3.06 0 0 0-.49 1.87 3.36 3.36 0 0 0 .56 2.149 2.34 2.34 0 0 0 1.59.56 2.1 2.1 0 0 0 1.47-.444 2.73 2.73 0 0 0 .749-1.355v-.233l3.854.958v.257a5.05 5.05 0 0 1-1.121 2.055zm-39.711-6.727v1.261h4.812v2.57h-4.859v4.18h-4.391v-10.72h10.044v2.71h-5.653zm5.98 43.051h.677a2.8 2.8 0 0 0 1.402-.28.7.7 0 0 0 .35-.584.8.8 0 0 0-.304-.63 2.34 2.34 0 0 0-1.308-.257h-.817z" class="f" style="fill:#231f20;fill-rule:evenodd;stroke-width:2.33595" transform="translate(-97.212 -162.337)"></path><path d="M119.428 226.419h6.4a5 5 0 0 1 3.107.795 2.83 2.83 0 0 1 1.051 2.336 2.85 2.85 0 0 1-1.144 2.336 5.6 5.6 0 0 1-3.458.864h-2.102v3.784h-3.854zm3.854 4.368h.958a2.76 2.76 0 0 0 1.541-.326.93.93 0 0 0 .467-.795 1.12 1.12 0 0 0-.397-.84 2.34 2.34 0 0 0-1.471-.327h-1.122v2.336zm21.888-4.438h9.507v2.196h-5.653v1.798h4.812v2.056h-4.812v4.181h-3.854zm9.647-35.04 3.364.818a4.7 4.7 0 0 1-1.074 1.962 4.9 4.9 0 0 1-1.8 1.192 8.8 8.8 0 0 1-2.779.397 9.3 9.3 0 0 1-3.294-.654 4.95 4.95 0 0 1-2.219-1.705 5.05 5.05 0 0 1-.934-3.107 4.84 4.84 0 0 1 1.658-3.925 7 7 0 0 1 4.672-1.354 7.3 7.3 0 0 1 3.691.77 4.67 4.67 0 0 1 1.986 2.336l-3.387.608a2 2 0 0 0-.42-.63 1.96 1.96 0 0 0-.771-.561 2.6 2.6 0 0 0-1.052-.21 2.45 2.45 0 0 0-2.009.864 3.22 3.22 0 0 0-.537 2.032 3.2 3.2 0 0 0 .654 2.336 2.34 2.34 0 0 0 1.752.63 2.34 2.34 0 0 0 1.682-.42 2.85 2.85 0 0 0 .817-1.471zm-41.44-6.306h9.531v2.219h-5.653v1.775h4.812v2.056h-4.812v4.181h-3.877z" class="g" style="fill:#f5eb00;fill-rule:evenodd;stroke-width:2.33595" transform="translate(-97.212 -162.337)"></path><path d="M137.718 207.404a15.63 15.63 0 0 0 11.68-7.989l.187-.35.257.327a17.38 17.38 0 0 1 0 19.972l-.233.327-.21-.35a15.56 15.56 0 0 0-11.68-7.943 15.58 15.58 0 0 0 7.966 11.68l.35.21-.327.233a17.31 17.31 0 0 1-19.949 0l-.326-.233.373-.234a15.63 15.63 0 0 0 7.896-11.68 15.63 15.63 0 0 0-11.68 7.942l-.187.35-.257-.326a17.31 17.31 0 0 1 0-19.949l.233-.35.21.35a15.6 15.6 0 0 0 11.68 7.989 15.58 15.58 0 0 0-7.918-11.68l-.374-.187.327-.257a17.29 17.29 0 0 1 19.949 0l.327.234-.35.21a15.6 15.6 0 0 0-7.99 11.68z" class="f" style="fill:#231f20;fill-rule:evenodd;stroke-width:2.33595" transform="translate(-97.212 -162.337)"></path><path d="M135.756 192.314a17.1 17.1 0 0 1 9.811 3.084 15.91 15.91 0 0 0-8.152 12.287 15.79 15.79 0 0 0 12.263-8.153 17.1 17.1 0 0 1 0 19.669 15.79 15.79 0 0 0-12.24-8.106 15.79 15.79 0 0 0 8.152 12.217 17.08 17.08 0 0 1-19.668 0 15.84 15.84 0 0 0 8.082-12.193 15.88 15.88 0 0 0-12.194 8.105 17.08 17.08 0 0 1 0-19.668 15.84 15.84 0 0 0 12.217 8.152 15.79 15.79 0 0 0-8.105-12.24 16.9 16.9 0 0 1 9.834-3.154M115.34 165.31a6.38 6.38 0 0 1 4.532 1.87 6.494 6.494 0 0 1 10.535-1.683 6.47 6.47 0 0 1 11.119 0 6.47 6.47 0 0 1 10.512 1.682 6.47 6.47 0 1 1-1.309 7.405 6.494 6.494 0 0 1-10.09-1.308 6.47 6.47 0 0 1-9.345 0 6.494 6.494 0 0 1-10.114 1.308 6.47 6.47 0 1 1-5.84-9.344zm26.606 1.028a6.5 6.5 0 0 1-.7 6.19 5.583 5.583 0 0 0 9.133 1.145 6.3 6.3 0 0 1-.28-1.892 6.47 6.47 0 0 1 1.284-3.878 5.58 5.58 0 0 0-5.116-3.527 5.51 5.51 0 0 0-4.251 1.962zm-1.028-.116a6.45 6.45 0 0 0-1.214 3.76 6.5 6.5 0 0 0 .467 2.453 5.51 5.51 0 0 1-4.228 1.963 5.58 5.58 0 0 1-4.252-1.963 6.3 6.3 0 0 0 .56-2.476 6.56 6.56 0 0 0-1.214-3.76 5.606 5.606 0 0 1 9.928 0zm10.442 7.615a6.38 6.38 0 0 0 1.005-5.746 5.583 5.583 0 1 1-1.005 5.746m-10.044-6.587a5.54 5.54 0 0 0-.491 4.298 5.56 5.56 0 0 0 .77-2.733 5.3 5.3 0 0 0-.233-1.565zm9.624 5.466a5.63 5.63 0 0 0 .724-2.757 5.3 5.3 0 0 0 0-.91 5.47 5.47 0 0 0-.724 2.732 6 6 0 0 0 0 .935m-20.393-.187a6.56 6.56 0 0 1-.63-6.19 5.583 5.583 0 0 0-9.344 1.564 6.5 6.5 0 0 1 1.284 3.878 6.7 6.7 0 0 1-.28 1.892 5.56 5.56 0 0 0 9.134-1.144zm.42-1.005a5.65 5.65 0 0 1-.701-2.733 5.5 5.5 0 0 1 .21-1.565 5.47 5.47 0 0 1 .724 2.733 5.4 5.4 0 0 1-.234 1.565zm-10.395 2.313a6.45 6.45 0 0 1-1.285-3.878 7 7 0 0 1 .257-1.892 5.583 5.583 0 1 0 1.028 5.77m.327-1.145a5.47 5.47 0 0 1-.7-2.756 5.4 5.4 0 0 1 0-.911 5.5 5.5 0 0 1 .723 2.733 5.6 5.6 0 0 1 0 .91z" class="h" style="fill:#cb4838;fill-rule:evenodd;stroke-width:2.33595" transform="translate(-97.212 -162.337)" data-source="https://football-logos.cc"></path><!-- source: https://football-logos.cc --></svg>