<svg xmlns="http://www.w3.org/2000/svg" xml:space="preserve" viewBox="9.92 7.6 237.18 238.39"><!-- Source: https://football-logos.cc --><path d="m428.254 1570.11 2.984-30.47c-13.812-2.8-120.789-27.33-200.273-92.71 0 0-2.598 18.55-7.527 53.64 128.742 48.68 204.816 69.54 204.816 69.54" style="fill:#387ac7;fill-opacity:1;fill-rule:nonzero;stroke:none" transform="matrix(.13333 0 0 -.13333 0 257.333)" data-source="https://football-logos.cc"></path><path d="m426.379 1577.04 2.971-30.6c-13.752-2.81-120.26-27.45-199.396-93.12 0 0-2.587 18.63-7.495 53.88 128.179 48.89 203.92 69.84 203.92 69.84z" style="fill:none;stroke:#231f20;stroke-width:8.12236023;stroke-linecap:butt;stroke-linejoin:miter;stroke-miterlimit:2.61310005;stroke-dasharray:none;stroke-opacity:1" transform="matrix(.13392 0 0 -.13275 0 257.333)"></path><path d="m1499.3 1570.11-2.98-30.47c13.82-2.8 120.79-27.33 200.27-92.71 0 0 2.6 18.55 7.54 53.64-128.75 48.68-204.83 69.54-204.83 69.54" style="fill:#387ac7;fill-opacity:1;fill-rule:nonzero;stroke:none" transform="matrix(.13333 0 0 -.13333 0 257.333)"></path><path d="m1492.74 1577.04-2.97-30.6c13.76-2.81 120.26-27.45 199.4-93.12 0 0 2.58 18.63 7.49 53.88-128.18 48.89-203.92 69.84-203.92 69.84z" style="fill:none;stroke:#231f20;stroke-width:8.12236023;stroke-linecap:butt;stroke-linejoin:miter;stroke-miterlimit:2.61310005;stroke-dasharray:none;stroke-opacity:1" transform="matrix(.13392 0 0 -.13275 0 257.333)"></path><path d="M963.512 1642.41C431 1640.3 226.188 1482.33 226.188 1482.33l-23.411 101.1c239.926 259.09 760.735 259.09 760.735 259.09h.043s520.805 0 760.735-259.09l-23.41-101.1s-204.82 157.97-737.325 160.08z" style="fill:#fff;fill-opacity:1;fill-rule:nonzero;stroke:none" transform="matrix(.13333 0 0 -.13333 0 257.333)"></path><path d="M959.294 1649.67c-530.181-2.12-734.097-160.8-734.097-160.8l-23.307 101.55c238.875 260.24 757.404 260.24 757.404 260.24h.042s518.524 0 757.404-260.24l-23.31-101.55s-203.92 158.68-734.094 160.8z" style="fill:none;stroke:#231f20;stroke-width:8.12236023;stroke-linecap:butt;stroke-linejoin:miter;stroke-miterlimit:2.61310005;stroke-dasharray:none;stroke-opacity:1" transform="matrix(.13392 0 0 -.13275 0 257.333)"></path><path d="m249.07 1603.83 7.821 4.01 18.714-42.47c3.254-7.39 5.168-13.61 5.747-18.64.566-5.04-.301-9.82-2.606-14.35-2.305-4.52-6.305-8.25-11.996-11.18-5.539-2.84-10.586-3.98-15.148-3.41-4.567.57-8.594 2.71-12.079 6.43-3.484 3.73-6.945 9.48-10.378 17.28l-18.715 42.47 7.816 4.02 18.684-42.41c2.82-6.39 5.367-10.85 7.652-13.38 2.289-2.54 4.953-4.03 8-4.47 3.043-.45 6.25.2 9.602 1.92 5.754 2.95 9.132 6.68 10.148 11.17 1.016 4.5-.508 11.37-4.57 20.59zm52.157-64.25-32.914 93.54 8.296 3.41 57.914-59.63-25.636 72.87 7.75 3.18 32.91-93.54-8.293-3.4-57.918 59.62 25.641-72.86zm62.261 24.62-31.804 103.74 8.101 2.9 31.805-103.74zm1.219 115.23c-1.301 4.68-1.508 8.68-.613 11.99.851 3.3 2.547 5.35 5.062 6.15 1.758.55 4.477.11 8.164-1.31 2.035-.8 3.551-1.03 4.539-.72q1.376.42 1.786 1.83c.265.93.191 2.58-.235 4.96l5.617 1.78c1.301-5.18 1.524-9.29.657-12.35-.864-3.06-2.504-4.97-4.903-5.73-1.808-.57-4.504-.03-8.078 1.63-2.398 1.04-4.035 1.41-4.914 1.14-.969-.31-1.601-1.11-1.898-2.41q-.493-1.95.437-5.19zm14.055-109.4-2.778 106.65 9.071 2.86 52.082-91.11-9.442-2.98-15.39 27.79-26.129-8.23 1.258-32.25zm6.879 46.33 21.316 6.71-13.805 25.38c-4.195 7.72-7.582 14.12-10.144 19.19.797-6.7 1.359-13.41 1.672-20.11zm40.422 35.82c-4.762 21.39-5.672 38.88-2.711 52.45 2.961 13.58 8.918 21.53 17.859 23.85 5.863 1.52 11.773.05 17.75-4.41 5.965-4.46 11.324-11.46 16.055-20.99 4.734-9.53 8.535-20.74 11.406-33.64 2.91-13.07 4.219-25.1 3.922-36.1-.301-10.99-2.242-19.75-5.817-26.29-3.586-6.54-8.129-10.53-13.64-11.96-5.973-1.55-11.965-.01-17.977 4.63-6.015 4.64-11.363 11.71-16.039 21.22-4.683 9.51-8.285 19.93-10.808 31.24m8.824 2.06c3.465-15.55 8.238-27.26 14.32-35.15 6.082-7.88 12.215-11.02 18.387-9.42 6.281 1.63 10.453 7.49 12.504 17.59 2.047 10.08 1.226 23.43-2.473 40.04q-3.515 15.75-8.734 26.82c-3.485 7.38-7.375 12.79-11.684 16.24-4.305 3.44-8.535 4.62-12.699 3.54-5.918-1.54-10.074-7.01-12.492-16.42-2.414-9.41-1.457-23.82 2.871-43.24m89.597 4.38 7.649 3.11c1.601-7.18 3.484-12.96 5.648-17.33 2.164-4.38 4.946-7.72 8.332-10.01q5.092-3.45 10.547-2.37c3.235.63 5.903 2.28 8.008 4.94 2.109 2.66 3.445 6 4.016 10.03.566 4.03.476 8.27-.274 12.74-.765 4.53-2.015 8.37-3.765 11.52-1.75 3.16-4.153 5.62-7.207 7.4-1.973 1.18-6.153 2.78-12.559 4.82-6.402 2.04-11.024 4.25-13.852 6.62-3.66 3.03-6.695 7.09-9.093 12.17-2.411 5.08-4.172 10.96-5.293 17.62-1.231 7.32-1.465 14.35-.707 21.07.754 6.73 2.621 12.09 5.586 16.08 2.957 3.99 6.593 6.41 10.898 7.26 4.738.92 9.211.02 13.414-2.73 4.199-2.74 7.844-7.29 10.922-13.62 3.082-6.33 5.406-13.74 6.984-22.2l-7.941-2.9c-1.957 8.97-4.582 15.52-7.875 19.66-3.289 4.13-7.391 5.71-12.297 4.75-5.117-1-8.48-3.86-10.098-8.56-1.632-4.7-1.933-10.05-.925-16.03.875-5.2 2.421-9.31 4.64-12.34 2.192-3.04 7.02-5.64 14.481-7.81 7.457-2.17 12.691-4.32 15.703-6.44 4.383-3.15 7.965-7.52 10.742-13.12s4.824-12.27 6.129-20.03c1.301-7.69 1.539-15.13.742-22.31-.805-7.19-2.707-13.03-5.715-17.52-3.015-4.5-6.797-7.19-11.363-8.09q-8.668-1.695-15.496 2.88c-4.551 3.04-8.586 8.18-12.094 15.41-3.512 7.23-6.141 15.67-7.887 25.33m69.805-34.73-21.219 154.72 24.2 3.87c4.257.68 7.578.71 9.96.08 3.321-.76 6.293-2.74 8.907-5.95 2.617-3.2 5.011-7.9 7.183-14.09 2.172-6.18 3.789-13.11 4.84-20.76 1.805-13.13 1.594-24.53-.633-34.19-2.234-9.66-7.886-15.2-16.968-16.66l-16.473-2.63 8.644-63.04zm-2.703 82.62 16.519 2.64c5.461.87 8.997 3.96 10.622 9.24 1.625 5.27 1.82 12.38.593 21.31-.882 6.46-2.32 11.89-4.3 16.27-1.977 4.39-4.176 7.14-6.59 8.26-1.543.68-4.242.73-8.075.11l-16.343-2.61zm50.363 3.94c-2.824 26.43-2.14 47.48 2.043 63.16 4.188 15.67 10.844 24.08 19.988 25.22 5.981.74 11.758-2.1 17.317-8.53 5.551-6.42 10.262-15.76 14.125-28.01 3.867-12.25 6.641-26.35 8.344-42.28 1.722-16.15 1.937-30.77.64-43.85-1.297-13.07-4.023-23.18-8.191-30.35q-6.244-10.74-14.692-11.79c-6.109-.75-11.949 2.19-17.527 8.83-5.578 6.65-10.277 16.07-14.09 28.3q-5.724 18.33-7.957 39.3m8.992.84c2.051-19.21 5.75-34.08 11.106-44.61q8.046-15.795 17.504-14.61c6.422.8 11.117 7.04 14.074 18.71s3.348 27.77 1.156 48.28q-2.076 19.455-6.285 33.63-4.214 14.175-10.191 21.54c-3.981 4.89-8.102 7.08-12.356 6.55-6.039-.75-10.691-6.53-13.957-17.32-3.262-10.8-3.609-28.19-1.051-52.17m71.883-69.76-13.047 167.14 28.664 2.61q8.672.78 13.536-3.3c3.238-2.73 6.05-7.81 8.445-15.25q3.588-11.145 4.668-24.93c.922-11.85.215-21.98-2.133-30.37-2.34-8.41-6.539-13.99-12.582-16.76 2.496-2.6 4.441-5.22 5.84-7.85q4.463-8.55 8.855-21.6l14.782-44.49-10.754-.98-11.301 34.01c-3.285 9.81-5.949 17.3-7.988 22.48-2.039 5.17-3.786 8.77-5.231 10.78-1.449 2.01-2.863 3.37-4.258 4.09-1.015.44-2.632.56-4.84.35l-9.945-.9 5.793-74.26zm1.211 94.18 18.438 1.68c3.925.36 6.898 1.68 8.91 3.97q3.029 3.435 4.183 10.5c.77 4.71.954 9.77.524 15.17-.617 7.91-2.223 14.31-4.824 19.21-2.598 4.9-6.282 7.14-11.032 6.71l-20.519-1.87zm79.848-87.51-8.231 150.35-21.422-1.37-1.105 20.24 51.355 3.29 1.114-20.25-21.418-1.36 8.226-150.35zm107.785 65.36 9.16-5.52c-1.344-18.83-4.238-33.24-8.687-43.22-4.453-10-10.059-15.09-16.836-15.28q-10.524-.3-17.391 10.89c-4.586 7.46-8.195 18.34-10.844 32.66-2.64 14.32-4.172 29.73-4.574 46.23-.445 18 .465 33.74 2.719 47.22 2.258 13.47 5.683 23.75 10.281 30.85 4.602 7.09 9.77 10.72 15.5 10.88 6.496.18 12.059-4.06 16.711-12.72q6.967-13.005 10.172-36.84l-8.402-5.55c-1.813 12.54-4.207 21.65-7.2 27.31-2.984 5.67-6.632 8.44-10.953 8.32-4.961-.15-9.031-3.45-12.211-9.92-3.172-6.47-5.3-15.1-6.39-25.88-1.086-10.78-1.493-21.88-1.215-33.29.367-14.72 1.472-27.54 3.332-38.47 1.863-10.94 4.531-19.07 8.031-24.4 3.484-5.33 7.184-7.95 11.094-7.84 4.754.14 8.695 3.95 11.812 11.44 3.118 7.49 5.082 18.54 5.891 33.13m20.039-60.31-.996 176.94 8.531.06.883-156.14 32.426.21.121-20.8zm95.993 176.02 9.02-.2-2.01-102.14c-.34-17.77-1.36-31.86-3.04-42.28q-2.535-15.63-8.52-25.32c-3.99-6.47-9.12-9.62-15.4-9.48-6.09.14-11.023 3.1-14.785 8.9-3.77 5.8-6.379 14.12-7.824 24.97-1.45 10.85-1.985 25.64-1.618 44.38l2.008 102.14 9.012-.21-1.996-102.05q-.453-23.025.875-33.99c.883-7.3 2.535-12.95 4.953-16.94 2.425-4 5.435-6.04 9.055-6.12 6.18-.14 10.66 3.65 13.45 11.39 2.77 7.74 4.38 22.71 4.82 44.91zm18.66-177.58 7.25 175.98 24.44-1.17c4.98-.24 8.9-2.22 11.75-5.92 2.86-3.7 5-9.3 6.4-16.78 1.39-7.48 1.93-15.26 1.6-23.35-.32-7.52-1.37-14.56-3.16-21.13s-4.3-11.83-7.53-15.76c3.82-3.31 6.65-8.78 8.46-16.4 1.82-7.63 2.52-16.57 2.1-26.81-.34-8.25-1.3-15.88-2.88-22.9s-3.4-12.41-5.46-16.16c-2.05-3.75-4.55-6.54-7.49-8.36s-6.48-2.63-10.63-2.43zm9.38 20.37 16.24-.78c2.78-.14 4.76.06 5.91.56 2.02.86 3.75 2.38 5.17 4.56 1.42 2.17 2.66 5.39 3.69 9.63 1.05 4.24 1.68 9.16 1.9 14.76.28 6.56-.11 12.3-1.14 17.19-1.04 4.91-2.62 8.39-4.76 10.46-2.12 2.06-5.26 3.2-9.42 3.4l-15.1.72zm3.35 81.28 14.12-.67c3.83-.19 6.6.36 8.32 1.64 2.27 1.65 4.04 4.49 5.33 8.51 1.27 4.03 2.04 9.12 2.3 15.28.24 5.84-.07 10.99-.93 15.49q-1.275 6.72-4.08 9.33c-1.86 1.72-5.14 2.71-9.82 2.93l-13.05.63zm72.77-106.42 12.73 171.4 22.27-1.94q7.545-.645 11.34-3.45c3.53-2.58 6.39-6.95 8.57-13.09 2.84-7.94 4.67-17.92 5.48-29.95s.64-25.69-.48-40.96q-1.455-19.53-4.29-34.47c-1.9-9.96-3.99-18.14-6.27-24.57s-4.63-11.44-7.04-15.04c-2.42-3.6-5.21-6.24-8.37-7.93s-6.69-2.36-10.6-2.02zm10.01 19.47 13.76-1.19c4.25-.36 7.66.39 10.24 2.3 2.58 1.89 4.72 4.69 6.45 8.38 2.41 5.2 4.53 12.3 6.33 21.28s3.19 19.95 4.15 32.89c1.33 17.93 1.24 31.81-.25 41.63-1.51 9.82-3.71 16.5-6.64 20.05-2.11 2.54-5.7 4.02-10.78 4.47l-13.54 1.16zm54.73-25.3 16.2 161.52 46.79-5.48-1.92-19.11-38.3 4.48-4.94-49.21 35.88-4.2-1.92-19.11-35.87 4.2-5.52-54.98 39.76-4.65-1.92-19.11zm84.02-10.67 21.62 154.66 24.19-3.94c4.26-.7 7.44-1.72 9.55-3.07 2.97-1.78 5.28-4.62 6.91-8.51s2.65-9.14 3.05-15.74c.41-6.61.07-13.73-1-21.39q-2.745-19.695-9.87-32.49c-4.74-8.53-11.65-12.05-20.74-10.57l-16.47 2.68-8.8-63zm19.8 79.86 16.51-2.69c5.46-.89 9.68.93 12.66 5.47 2.98 4.55 5.09 11.28 6.35 20.19.9 6.46.99 12.11.29 16.93-.71 4.82-2.06 8.14-4.07 9.98-1.29 1.14-3.86 2.03-7.68 2.65l-16.34 2.66zm32.14-88.29 50.05 143.97 9.37-1.87.37-154.05-9.67 1.93.3 46.54-26.81 5.36-14.73-43.65zm28.77 57.45 21.85-4.37.51 42.56q.225 19.395.63 31.92-3.915-14.13-8.46-27.84zm37.14-70.83 28.97 138.98 28.08-6.82c5.65-1.38 9.69-3.68 12.11-6.89 2.42-3.22 3.86-8.2 4.3-14.95s-.13-13.95-1.73-21.6c-2.06-9.87-5.25-17.82-9.57-23.88-4.33-6.06-9.73-9.26-16.2-9.61 1.74-2.88 2.96-5.6 3.64-8.15 1.43-5.52 2.47-12.25 3.11-20.17l3.12-40.48-10.53 2.56-2.38 30.94c-.71 8.93-1.41 15.8-2.07 20.61-.67 4.81-1.44 8.24-2.33 10.31s-1.91 3.61-3.06 4.61c-.87.68-2.38 1.28-4.54 1.81l-9.74 2.36-12.85-61.65zm24.5 75.56 18.05-4.39c3.84-.93 7.02-.8 9.5.43 2.5 1.22 4.7 3.6 6.61 7.16 1.9 3.55 3.33 7.57 4.26 12.06 1.38 6.57 1.42 12.24.15 17-1.28 4.75-4.24 7.71-8.9 8.84l-20.08 4.88zm38.59-91.24 31.93 127.05 45.42-13.3-3.77-15-37.18 10.9-9.77-38.88 34.82-10.21-3.76-14.99-34.83 10.2-10.86-43.2 38.59-11.31-3.76-14.99zm57.5-17.12 34.9 115.39 21.24-7.49c4.8-1.7 8.29-3.53 10.49-5.53 3.07-2.77 5.25-6.59 6.54-11.45 1.7-6.29 2.14-13.73 1.34-22.3-.81-8.56-2.77-17.99-5.88-28.28-2.65-8.77-5.55-16.34-8.69-22.72s-6.24-11.49-9.29-15.32-5.98-6.66-8.78-8.49c-2.81-1.83-5.85-2.89-9.11-3.19-3.28-.3-6.78.21-10.51 1.53zm12.2 10.65 13.12-4.62c4.05-1.43 7.45-1.84 10.18-1.23 2.74.59 5.18 1.94 7.33 4.04 3.03 2.95 6 7.3 8.94 13.05 2.92 5.74 5.71 12.98 8.35 21.71 3.66 12.1 5.41 21.77 5.27 29-.15 7.25-1.4 12.5-3.74 15.78-1.71 2.35-4.98 4.37-9.82 6.08l-12.91 4.55zm49.09-32.74 36.38 99.14 43.75-18.72-4.31-11.75-35.81 15.33-11.06-30.11 33.56-14.36-4.32-11.75-33.55 14.36-12.39-33.78 37.17-15.91-4.31-11.75zm64.09 3.35 7.71-3.06c-1.49-4.21-2.18-7.94-2.09-11.19.09-3.26 1.11-6.38 3.05-9.39 1.94-3 4.57-5.39 7.91-7.15 2.95-1.57 5.83-2.35 8.65-2.34 2.81.01 5.25.77 7.31 2.29 2.07 1.51 3.66 3.5 4.78 5.97 1.13 2.5 1.59 4.97 1.36 7.41s-1.29 4.94-3.16 7.52c-1.2 1.67-4.08 4.82-8.68 9.45-4.59 4.62-7.6 8.29-9.05 11.01-1.87 3.48-2.82 7.07-2.84 10.77-.02 3.71.81 7.4 2.49 11.09 1.84 4.05 4.41 7.39 7.69 10.02 3.27 2.64 6.95 4.01 11 4.12 4.06.12 8.06-.87 12.01-2.97 4.35-2.3 7.74-5.29 10.19-8.97s3.71-7.85 3.82-12.52c.09-4.67-.87-9.4-2.88-14.18l-7.76 3.23c1.88 5.25 2.25 9.76 1.11 13.55-1.15 3.8-3.97 6.89-8.48 9.28-4.7 2.49-8.66 3.14-11.88 1.93s-5.57-3.47-7.08-6.78c-1.31-2.88-1.62-5.65-.94-8.31.64-2.65 3.68-6.63 9.12-11.92 5.42-5.29 8.99-9.29 10.67-11.99 2.44-3.96 3.72-8.01 3.85-12.16.13-4.16-.78-8.38-2.73-12.67-1.93-4.25-4.65-7.79-8.14-10.61-3.5-2.81-7.4-4.38-11.69-4.7-4.3-.32-8.53.63-12.71 2.84-5.3 2.82-9.26 6.23-11.88 10.25s-3.98 8.7-4.08 14.03c-.11 5.34 1.02 10.72 3.35 16.15" style="fill:#387ac7;fill-opacity:1;fill-rule:nonzero;stroke:none" transform="matrix(.13333 0 0 -.13333 0 257.333)"></path><path d="M1496.32 1542.43c185.97-44.94 326.41-175.54 326.41-175.54l-80.62-5.62 36.41-84.26s-169.06 155.88-296.5 174.14z" style="fill:#fff;fill-opacity:1;fill-rule:nonzero;stroke:none" transform="matrix(.13333 0 0 -.13333 0 257.333)"></path><path d="M1489.77 1549.24c185.15-45.14 324.98-176.32 324.98-176.32l-80.27-5.64 36.26-84.63s-168.32 156.57-295.21 174.91z" style="fill:none;stroke:#231f20;stroke-width:8.12236023;stroke-linecap:butt;stroke-linejoin:miter;stroke-miterlimit:2.61310005;stroke-dasharray:none;stroke-opacity:1" transform="matrix(.13392 0 0 -.13275 0 257.333)"></path><path d="M431.238 1542.43c-185.965-44.94-326.414-175.54-326.414-175.54l80.625-5.62-36.41-84.26s169.059 155.88 296.504 174.14z" style="fill:#fff;fill-opacity:1;fill-rule:nonzero;stroke:none" transform="matrix(.13333 0 0 -.13333 0 257.333)"></path><path d="M429.35 1549.24c-185.15-45.14-324.985-176.32-324.985-176.32l80.272-5.64-36.25-84.63s168.318 156.57 295.205 174.91z" style="fill:none;stroke:#231f20;stroke-width:8.12236023;stroke-linecap:butt;stroke-linejoin:miter;stroke-miterlimit:2.61310005;stroke-dasharray:none;stroke-opacity:1" transform="matrix(.13392 0 0 -.13275 0 257.333)"></path><path d="M925.961 1608.35c-27.836-18.53-278.496-178.96-501.219-102.36l-77.414 26.63-11.926-80.38c-3.089-20.75-10.3-77.78-10.3-158.95 0-269.6 77.609-781.009 597.332-1176.782l41.336-31.469 41.32 31.469c519.76 395.836 597.37 907.282 597.37 1176.902 0 80.83-7.19 138.02-10.27 158.87l-11.92 80.34-77.45-26.63c-222.59-76.57-473.36 83.83-501.22 102.36l-37.811 25.2z" style="fill:#231f20;fill-opacity:1;fill-rule:nonzero;stroke:none" transform="matrix(.13333 0 0 -.13333 0 257.333)"></path><path d="M963.789 1613.29c6.938-4.63 28.356-18.89 28.356-18.89 28.585-19.03 285.855-183.53 516.245-104.29 0 0 43.85 15.08 58.06 19.97 2.21-14.76 8.95-60.27 8.95-60.27 3.04-20.45 10.1-76.67 10.1-156.4 0-266.53-76.75-772.137-590.738-1163.566 0 0-23.399-17.813-30.992-23.598-7.582 5.766-31.016 23.598-31.016 23.598C418.809 521.211 342.066 1026.77 342.066 1293.29c0 80.05 7.082 136.13 10.118 156.51l8.945 60.29c14.226-4.89 58.047-19.98 58.047-19.98 230.48-79.27 487.668 85.26 516.238 104.29l23.652 15.74s2.352 1.58 4.723 3.15" style="fill:#f9c837;fill-opacity:1;fill-rule:nonzero;stroke:none" transform="matrix(.13333 0 0 -.13333 0 257.333)"></path><path d="M959.152 1549.5c-48.941-31.71-305.257-185.99-546.863-109.42l-9.656 3.07-1.348-9.97c-3.801-28.39-8.344-75.68-8.344-139.89 0-255.78 73.485-741.286 565.629-1119.216l5.188-3.988 5.18 3.988C1461.13 552.043 1534.62 1037.61 1534.62 1293.41c0 64.2-4.54 111.45-8.33 139.77l-1.34 9.97-9.66-3.07c-241.58-76.56-497.92 77.73-546.86 109.42l-4.641 3.02z" style="fill:#231f20;fill-opacity:1;fill-rule:nonzero;stroke:none" transform="matrix(.13333 0 0 -.13333 0 257.333)"></path><path d="M963.789 1532.55c57.171-36.41 306.321-180.85 546.751-110.75 3.47-28.35 7.12-71.05 7.12-128.39 0-251.78-72.36-728.812-553.902-1101.773C482.262 564.57 409.902 1041.55 409.902 1293.29c0 57.35 3.661 100.11 7.118 128.51 240.519-70.13 489.617 74.33 546.769 110.75" style="fill:#231f20;fill-opacity:1;fill-rule:nonzero;stroke:none" transform="matrix(.13333 0 0 -.13333 0 257.333)"></path><path d="M963.789 1532.49c-57.055-36.19-307.902-180.49-546.898-110.81-3.082-25.95-6.989-69.98-6.989-128.39 0-167.16 31.981-432.903 193.52-701.602l813.968 813.022c-207.59-16.97-403.96 96.29-453.601 127.78" style="fill:#fff;fill-opacity:1;fill-rule:nonzero;stroke:none" transform="matrix(.13333 0 0 -.13333 0 257.333)"></path><path d="M1437.33 1406.79c-6.66-.82-13.3-1.54-19.94-2.08L603.422 591.688c2.23-3.708 4.437-7.418 6.715-11.133 265.097 264.789 613.453 612.735 827.193 826.235m75.99-221.2a61813432 61813432 0 0 0-778.004-777.098c2.723-3.199 5.512-6.383 8.278-9.574l768.026 767.132c.62 6.59 1.19 13.11 1.7 19.54" style="fill:#231f20;fill-opacity:1;fill-rule:nonzero;stroke:none" transform="matrix(.13333 0 0 -.13333 0 257.333)"></path><path d="M1510.69 1421.68c-24.4-7.12-48.92-11.9-73.36-14.89-213.74-213.5-562.096-561.446-827.193-826.235 35.152-57.215 76.254-114.496 124.218-170.946.321-.375 779.015 776.561 779.035 776.851 3.06 38.85 4.27 74.74 4.27 106.95 0 58.36-3.89 102.36-6.97 128.27" style="fill:#fff;fill-opacity:1;fill-rule:nonzero;stroke:none" transform="matrix(.13333 0 0 -.13333 0 257.333)"></path><path d="m768.262 689.879 16.164 16.109 55.488-54.711q14.473-14.28 18.832-26.82c2.902-8.363 2.512-17.91-1.168-28.629-3.68-10.726-11.398-21.953-23.168-33.672q-17.14-17.085-32.691-23.359c-10.375-4.188-20.047-4.934-29.028-2.234-8.98 2.691-18.558 9.058-28.73 19.093l-55.488 54.711 16.16 16.11 55.457-54.68c8.348-8.227 15.484-13.317 21.406-15.254 5.922-1.938 12.356-1.578 19.289 1.094q10.405 4.004 20.805 14.359 17.8 17.742 19.012 31.547 1.205 13.822-16.883 31.656zm153.633-37.434-13.493 13.282 17.024 16.976 13.484-13.289zm20.746 82.043 14.261 16.278q8.285-6.017 16.844-6.637c5.707-.41 12.281 1.211 19.711 4.859q11.151 5.48 21.533 15.832c6.15 6.125 10.85 12.243 14.12 18.356 3.26 6.113 4.78 11.547 4.57 16.316-.22 4.766-1.8 8.606-4.76 11.528-3.01 2.957-6.75 4.437-11.22 4.429-4.47-.011-10.02-1.801-16.63-5.371-4.265-2.269-13.05-7.937-26.336-16.988q-19.935-13.594-29.515-17.543c-8.246-3.453-15.59-4.848-22.024-4.184-6.437.664-11.863 3.172-16.289 7.539-4.867 4.786-7.664 11.008-8.402 18.657-.734 7.648 1.156 15.89 5.668 24.738 4.516 8.844 10.871 17.359 19.074 25.539q13.547 13.51 27.34 20.441c9.195 4.625 17.875 6.586 26.043 5.899s15.211-3.672 21.125-8.942l-14.602-16.285q-10.23 7.61-21.996 4.973c-7.843-1.762-16.437-7.297-25.781-16.621-9.742-9.711-15.426-18.172-17.066-25.383-1.641-7.215-.473-12.773 3.492-16.684q5.171-5.095 13.238-3.664 7.98 1.344 31.106 17.465c15.421 10.742 26.433 17.692 33.046 20.828 9.649 4.52 18.139 6.52 25.459 5.992 7.33-.527 13.56-3.324 18.71-8.398 5.11-5.031 8.07-11.625 8.87-19.773.81-8.157-1.01-16.93-5.45-26.336-4.45-9.399-11.01-18.438-19.71-27.11-11.02-10.992-21.52-18.957-31.504-23.883-9.988-4.937-19.64-7.011-28.964-6.21q-13.994 1.182-23.961 10.343m164.399 102.598-13.49 13.281 17.02 16.981 13.48-13.293zm110.34 177.094 19.37 12.95c7.05-13.67 8.94-27.599 5.63-41.79-3.31-14.188-11.32-27.613-24.03-40.297-13.16-13.129-25.97-21.734-38.44-25.805-12.46-4.062-24.85-4.308-37.16-.715-12.3 3.586-23.05 9.907-32.23 18.961-10.02 9.864-16.33 20.883-18.92 33.075-2.6 12.191-1.35 24.668 3.74 37.421 5.1 12.77 13.03 24.52 23.81 35.27 12.21 12.19 24.93 20.02 38.16 23.51s25.92 2.49 38.08-2.99l-12.85-18.68c-9.84 4.06-19.05 4.97-27.64 2.74-8.58-2.24-16.96-7.43-25.13-15.58-9.4-9.38-15.48-18.96-18.25-28.74-2.76-9.791-2.44-18.897.97-27.326s8.29-15.766 14.63-22.012c8.18-8.051 16.83-13.57 25.96-16.563 9.12-2.988 18.39-2.789 27.79.606 9.4 3.402 17.82 8.812 25.25 16.23 9.05 9.028 14.66 18.696 16.82 29.004s.31 20.551-5.56 30.731m84.14 16.93-13.5 13.29 17.02 16.98 13.49-13.29zm56.83 56.71-96.21 94.69 46.02 45.94c8.1 8.08 14.59 13.95 19.48 17.62 6.77 5.2 13.29 8.74 19.56 10.61 6.26 1.86 12.61 2.07 19.06.62 6.45-1.46 12.06-4.53 16.83-9.22 8.18-8.06 11.8-18.17 10.87-30.34-.94-12.16-10.03-26.85-27.28-44.08l-31.29-31.23 39.11-38.49zm-34.38 65.85 31.53 31.47c10.42 10.41 16.3 19.3 17.63 26.67 1.33 7.38-.77 13.8-6.31 19.24-4.01 3.95-8.73 6.04-14.17 6.27-5.44.24-10.71-1.3-15.84-4.6-3.29-2.15-8.59-6.89-15.9-14.2l-31.2-31.13zm140.46 40.08-13.5 13.27 16.99 16.99 13.51-13.27z" style="fill:#387ac7;fill-opacity:1;fill-rule:nonzero;stroke:none" transform="matrix(.13333 0 0 -.13333 0 257.333)"></path><path d="M1198.21 853.012c51.34-49.199 115.12-110.336 176.45-169.114a1347 1347 0 0 1 35.52 77.235c-54.52 52.25-109.65 105.086-155.11 148.66zM743.594 398.918c61.707-71.172 134.422-140.898 220.176-207.313a1629 1629 0 0 1 42.68 34.247c.54.441 1.08.898 1.62 1.355L785.379 440.645zm135.797 135.633-4.489-4.485-21.129-21.097 226.917-217.492c16.71 15.746 32.72 31.625 48.21 47.593L901.691 556.832zm202.629 202.39c58.66-56.226 136.16-130.515 207.79-199.168 15.45 23.133 29.97 46.282 43.45 69.407-66.76 63.992-138.21 132.472-194.51 186.429zM970.094 625.156l223.796-214.5a1399 1399 0 0 1 46.62 57.989c-74.5 71.398-156.64 150.128-217.96 208.898zm541.526 540.894-81.4-81.3c19.59-18.79 40.13-38.47 61.04-58.51 9.76 49.4 16.28 96.32 20.36 139.81m-140.87-140.71-56.21-56.145c38.03-36.457 82.77-79.336 128.21-122.89 9.91 28.785 18.6 57.136 26.18 84.949-33.56 32.164-67.07 64.289-98.18 94.086" style="fill:#fff;fill-opacity:1;fill-rule:nonzero;stroke:none" transform="matrix(.13333 0 0 -.13333 0 257.333)"></path><path d="M901.691 556.832 1128.9 339.07a1446 1446 0 0 1 64.99 71.586l-223.796 214.5zm-86.613-86.512-4.488-4.496-25.211-25.179 222.691-213.438c1.07.895 2.14 1.785 3.22 2.684 21.96 18.355 43.01 36.925 63.15 55.683 1.55 1.438 3.07 2.887 4.61 4.332.56.516 1.08 1.047 1.64 1.571L853.773 508.969zm207.472 207.223c61.32-58.77 143.46-137.5 217.96-208.898a1375 1375 0 0 1 49.3 69.128c-71.63 68.653-149.13 142.942-207.79 199.168zm116.2 116.066c56.3-53.957 127.75-122.437 194.51-186.429 14.96 25.644 28.68 51.238 41.4 76.718-61.33 58.778-125.11 119.915-176.45 169.114zm116.32 116.184c45.46-43.574 100.59-96.41 155.11-148.66a1348 1348 0 0 1 32.57 85.172c-45.44 43.554-90.18 86.433-128.21 122.89zm236.19 116.447c-20.91 20.04-41.45 39.72-61.04 58.51l-59.47-59.41c31.11-29.797 64.62-61.922 98.18-94.086 8.85 32.492 16.25 64.23 22.33 94.986" style="fill:#387ac7;fill-opacity:1;fill-rule:nonzero;stroke:none" transform="matrix(.13333 0 0 -.13333 0 257.333)"></path><path d="M814.445 1238.07c75.86-58.65 89.465-167.82 30.297-243.007-59.16-75.192-169.281-88.692-245.148-30.032-75.852 58.649-89.457 167.799-30.305 242.999 59.172 75.19 169.305 88.69 245.156 30.04" style="fill:#fff;fill-opacity:1;fill-rule:nonzero;stroke:none" transform="matrix(.13333 0 0 -.13333 0 257.333)"></path><path d="M597.98 962.977c37.239-28.789 83.692-41.469 130.778-35.704 47.086 5.77 89.008 29.278 118.055 66.188 60.121 76.419 46.328 187.059-30.75 246.659-77.075 59.59-188.708 45.92-248.84-30.49-60.11-76.41-46.313-187.05 30.757-246.653" style="fill:#231f20;fill-opacity:1;fill-rule:nonzero;stroke:none" transform="matrix(.13333 0 0 -.13333 0 257.333)"></path><path d="M595.363 967.23c37.075-28.917 83.325-41.652 130.204-35.861 46.88 5.795 88.619 29.406 117.538 66.48 59.858 76.751 46.126 187.881-30.615 247.751-76.737 59.85-187.881 46.12-247.751-30.63-59.846-76.75-46.109-187.88 30.624-247.74z" style="fill:none;stroke:#231f20;stroke-width:2.70770001;stroke-linecap:butt;stroke-linejoin:miter;stroke-miterlimit:2.61310005;stroke-dasharray:none;stroke-opacity:1" transform="matrix(.13392 0 0 -.13275 0 257.333)"></path><path d="M842.68 996.656c-28.18-35.82-68.867-58.625-114.567-64.226-45.691-5.602-90.761 6.707-126.91 34.648-74.797 57.832-88.18 165.212-29.848 239.352 58.356 74.15 166.68 87.42 241.481 29.59 74.801-57.84 88.184-165.21 29.844-239.364" style="fill:#f9c837;fill-opacity:1;fill-rule:nonzero;stroke:none" transform="matrix(.13333 0 0 -.13333 0 257.333)"></path><path d="M596.984 1109.14c19.496 6.63 44.996 12.17 65.61 14.77 2.793 17.17 9.008 49.13 15.551 65.64l-46.61 22.02c-21.586-8.41-44.984-28.98-57.133-47.84 5.614-19.65 14.489-36.36 22.582-54.59" style="fill:#231f20;fill-opacity:1;fill-rule:nonzero;stroke:none" transform="matrix(.13333 0 0 -.13333 0 257.333)"></path><path d="M594.371 1114.04c19.411 6.66 44.799 12.22 65.322 14.83 2.781 17.25 8.968 49.35 15.483 65.93l-46.406 22.12c-21.491-8.45-44.787-29.1-56.882-48.05 5.588-19.74 14.425-36.52 22.483-54.83z" style="fill:none;stroke:#231f20;stroke-width:4.59955978;stroke-linecap:butt;stroke-linejoin:miter;stroke-miterlimit:2.61310005;stroke-dasharray:none;stroke-opacity:1" transform="matrix(.13392 0 0 -.13275 0 257.333)"></path><path d="M791.934 1251.32c20.191-11.32 37.925-26.52 52.105-44.62-1.926-8.34-.367-20.65-3.312-43.23-12.149-.57-31.192-.31-41.325-3.89-12.734 14.58-37.773 36.9-55.433 48.21 5.086 10.66 12.074 22.71 15.383 33.38 12.089 4.94 21.257 9.6 32.582 10.15" style="fill:#231f20;fill-opacity:1;fill-rule:nonzero;stroke:none" transform="matrix(.13333 0 0 -.13333 0 257.333)"></path><path d="M788.467 1256.84a174.3 174.3 0 0 0 51.877-44.81c-1.917-8.37-.366-20.75-3.298-43.42-12.095-.58-31.055-.31-41.143-3.91-12.679 14.65-37.608 37.06-55.191 48.43 5.063 10.7 12.021 22.8 15.315 33.52 12.037 4.96 21.165 9.64 32.44 10.19z" style="fill:none;stroke:#231f20;stroke-width:4.59955978;stroke-linecap:butt;stroke-linejoin:miter;stroke-miterlimit:2.61310005;stroke-dasharray:none;stroke-opacity:1" transform="matrix(.13392 0 0 -.13275 0 257.333)"></path><path d="M879.57 1118.32c.348-3.49.606-7.04.723-10.59.945-26.01-4.051-50.89-13.77-73.38-2.003 6.9-4.543 14.13-6.89 18.82 7.922 19.28 8.578 42.69 8.312 62.39 4.5.67 8.293 1.53 11.625 2.76" style="fill:#231f20;fill-opacity:1;fill-rule:nonzero;stroke:none" transform="matrix(.13333 0 0 -.13333 0 257.333)"></path><path d="M875.72 1123.26c.346-3.51.603-7.07.719-10.64.941-26.12-4.033-51.11-13.709-73.7-1.995 6.93-4.523 14.19-6.86 18.9 7.887 19.37 8.54 42.88 8.276 62.67 4.48.67 8.256 1.53 11.574 2.77z" style="fill:none;stroke:#231f20;stroke-width:4.59955978;stroke-linecap:butt;stroke-linejoin:miter;stroke-miterlimit:2.61310005;stroke-dasharray:none;stroke-opacity:1" transform="matrix(.13392 0 0 -.13275 0 257.333)"></path><path d="M615.938 955.516c-32.989 20.324-58.747 51.324-72.118 88.264 13.602-5.17 34.141-4.92 42.828 4.88 8.536-17.33 40.79-41.3 55.106-54.894-6.902-13.469-5.301-23.809-3.813-34.286-8.343-.031-15.918-1.593-22.003-3.964" style="fill:#231f20;fill-opacity:1;fill-rule:nonzero;stroke:none" transform="matrix(.13333 0 0 -.13333 0 257.333)" data-source="https://football-logos.cc"></path><path d="M613.241 959.736c-32.844 20.414-58.489 51.544-71.801 88.654 13.542-5.19 33.991-4.94 42.64 4.91 8.498-17.42 40.611-41.49 54.864-55.145-6.872-13.529-5.277-23.914-3.795-34.437-8.308-.031-15.849-1.601-21.908-3.982z" style="fill:none;stroke:#231f20;stroke-width:4.59955978;stroke-linecap:butt;stroke-linejoin:miter;stroke-miterlimit:2.61310005;stroke-dasharray:none;stroke-opacity:1" transform="matrix(.13392 0 0 -.13275 0 257.333)"></path><path d="M765.121 976.367c-8.183 5.992-51.957 28.313-63.012 32.153-.566 20.54 10.95 46.2 13.172 64.98 19.844 6.78 44.34 10.94 67.145 15.33 7.875-13.17 18.375-28.35 32.265-49.08-13.191-19.33-34.707-48.09-49.57-63.383" style="fill:#231f20;fill-opacity:1;fill-rule:nonzero;stroke:none" transform="matrix(.13333 0 0 -.13333 0 257.333)"></path><path d="M761.772 980.679c-8.148 6.019-51.73 28.441-62.736 32.291-.564 20.63 10.901 46.41 13.114 65.27 19.757 6.81 44.146 10.99 66.85 15.4 7.841-13.23 18.295-28.48 32.125-49.3-13.134-19.42-34.555-48.3-49.353-63.661z" style="fill:none;stroke:#231f20;stroke-width:4.59955978;stroke-linecap:butt;stroke-linejoin:miter;stroke-miterlimit:2.61310005;stroke-dasharray:none;stroke-opacity:1" transform="matrix(.13392 0 0 -.13275 0 257.333)"></path><path d="M762.496 938.789c1.688 12.969 4.09 28.899 3.328 37.484z" style="fill:#231f20;fill-opacity:1;fill-rule:nonzero;stroke:none" transform="matrix(.13333 0 0 -.13333 0 257.333)"></path><path d="M759.158 942.935c1.68 13.026 4.072 29.026 3.314 37.65z" style="fill:none;stroke:#231f20;stroke-width:4.59955978;stroke-linecap:butt;stroke-linejoin:miter;stroke-miterlimit:2.61310005;stroke-dasharray:none;stroke-opacity:1" transform="matrix(.13392 0 0 -.13275 0 257.333)"></path><path d="M866.527 1057.44c-11.808-9.95-44.941-16.19-58.632-17.14z" style="fill:#231f20;fill-opacity:1;fill-rule:nonzero;stroke:none" transform="matrix(.13333 0 0 -.13333 0 257.333)"></path><path d="M862.734 1062.11c-11.757-10-44.745-16.26-58.376-17.22z" style="fill:none;stroke:#231f20;stroke-width:4.59955978;stroke-linecap:butt;stroke-linejoin:miter;stroke-miterlimit:2.61310005;stroke-dasharray:none;stroke-opacity:1" transform="matrix(.13392 0 0 -.13275 0 257.333)"></path><path d="M709.734 1012.46c-20.187-7.32-51.894-12.608-74.328-17.081z" style="fill:#231f20;fill-opacity:1;fill-rule:nonzero;stroke:none" transform="matrix(.13333 0 0 -.13333 0 257.333)"></path><path d="M706.627 1016.94c-20.099-7.36-51.667-12.67-74.002-17.165z" style="fill:none;stroke:#231f20;stroke-width:4.59955978;stroke-linecap:butt;stroke-linejoin:miter;stroke-miterlimit:2.61310005;stroke-dasharray:none;stroke-opacity:1" transform="matrix(.13392 0 0 -.13275 0 257.333)"></path><path d="M626.906 967.512c1.309.484 27.133-19.539 46.891-34.578-19.758 15.039-45.582 35.062-46.891 34.578" style="fill:#231f20;fill-opacity:1;fill-rule:nonzero;stroke:none" transform="matrix(.13333 0 0 -.13333 0 257.333)"></path><path d="M624.162 971.785c1.303.486 27.014-19.626 46.685-34.731-19.671 15.105-45.382 35.217-46.685 34.731z" style="fill:none;stroke:#231f20;stroke-width:4.59955978;stroke-linecap:butt;stroke-linejoin:miter;stroke-miterlimit:2.61310005;stroke-dasharray:none;stroke-opacity:1" transform="matrix(.13392 0 0 -.13275 0 257.333)"></path><path d="M542.398 1155.26c11.79 3.37 29.899 5.6 40.086 5.87-10.187-.27-28.296-2.5-40.086-5.87" style="fill:#231f20;fill-opacity:1;fill-rule:nonzero;stroke:none" transform="matrix(.13333 0 0 -.13333 0 257.333)"></path><path d="M540.024 1160.36c11.737 3.39 29.767 5.63 39.91 5.9-10.143-.27-28.173-2.51-39.91-5.9z" style="fill:none;stroke:#231f20;stroke-width:4.59955978;stroke-linecap:butt;stroke-linejoin:miter;stroke-miterlimit:2.61310005;stroke-dasharray:none;stroke-opacity:1" transform="matrix(.13392 0 0 -.13275 0 257.333)"></path><path d="M588.539 1042.73c-1.148 23.34 5.094 54.76 9.781 73.19z" style="fill:#231f20;fill-opacity:1;fill-rule:nonzero;stroke:none" transform="matrix(.13333 0 0 -.13333 0 257.333)"></path><path d="M585.963 1047.34c-1.144 23.44 5.071 55 9.738 73.51z" style="fill:none;stroke:#231f20;stroke-width:4.59955978;stroke-linecap:butt;stroke-linejoin:miter;stroke-miterlimit:2.61310005;stroke-dasharray:none;stroke-opacity:1" transform="matrix(.13392 0 0 -.13275 0 257.333)"></path><path d="M723.895 1065.41c-15.707 18.72-51.286 49.24-66.797 64.52z" style="fill:#231f20;fill-opacity:1;fill-rule:nonzero;stroke:none" transform="matrix(.13333 0 0 -.13333 0 257.333)"></path><path d="M720.725 1070.12c-15.638 18.8-51.06 49.46-66.504 64.8z" style="fill:none;stroke:#231f20;stroke-width:4.59955978;stroke-linecap:butt;stroke-linejoin:miter;stroke-miterlimit:2.61310005;stroke-dasharray:none;stroke-opacity:1" transform="matrix(.13392 0 0 -.13275 0 257.333)"></path><path d="M779.254 1084.3c9.266 25.68 17.297 69.46 20.844 80.69z" style="fill:#231f20;fill-opacity:1;fill-rule:nonzero;stroke:none" transform="matrix(.13333 0 0 -.13333 0 257.333)"></path><path d="M775.842 1089.09c9.226 25.79 17.222 69.77 20.753 81.05z" style="fill:none;stroke:#231f20;stroke-width:4.59955978;stroke-linecap:butt;stroke-linejoin:miter;stroke-miterlimit:2.61310005;stroke-dasharray:none;stroke-opacity:1" transform="matrix(.13392 0 0 -.13275 0 257.333)"></path><path d="M869.922 1110.87c-6.457 17.46-23.067 44.83-33.176 56.72z" style="fill:#231f20;fill-opacity:1;fill-rule:nonzero;stroke:none" transform="matrix(.13333 0 0 -.13333 0 257.333)"></path><path d="M866.114 1115.78c-6.429 17.54-22.966 45.02-33.031 56.97z" style="fill:none;stroke:#231f20;stroke-width:4.59955978;stroke-linecap:butt;stroke-linejoin:miter;stroke-miterlimit:2.61310005;stroke-dasharray:none;stroke-opacity:1" transform="matrix(.13392 0 0 -.13275 0 257.333)"></path><path d="M770.047 1230.5c-15.543 12.57-43.797 32.45-64.59 44.99z" style="fill:#231f20;fill-opacity:1;fill-rule:nonzero;stroke:none" transform="matrix(.13333 0 0 -.13333 0 257.333)"></path><path d="M766.676 1235.94c-15.475 12.62-43.605 32.59-64.307 45.18z" style="fill:none;stroke:#231f20;stroke-width:4.59955978;stroke-linecap:butt;stroke-linejoin:miter;stroke-miterlimit:2.61310005;stroke-dasharray:none;stroke-opacity:1" transform="matrix(.13392 0 0 -.13275 0 257.333)"></path><path d="M631.586 1206.79c-.641 10.28 2.016 34.64 4.914 51.72z" style="fill:#231f20;fill-opacity:1;fill-rule:nonzero;stroke:none" transform="matrix(.13333 0 0 -.13333 0 257.333)"></path><path d="M628.821 1212.12c-.638 10.33 2.007 34.8 4.893 51.95z" style="fill:none;stroke:#231f20;stroke-width:4.59955978;stroke-linecap:butt;stroke-linejoin:miter;stroke-miterlimit:2.61310005;stroke-dasharray:none;stroke-opacity:1" transform="matrix(.13392 0 0 -.13275 0 257.333)"></path><path d="M754.516 1210.68c-22.84-2.83-70.743-17.89-84.809-23.23z" style="fill:#231f20;fill-opacity:1;fill-rule:nonzero;stroke:none" transform="matrix(.13333 0 0 -.13333 0 257.333)"></path><path d="M751.213 1216.02c-22.74-2.83-70.433-17.97-84.438-23.33z" style="fill:none;stroke:#231f20;stroke-width:4.59955978;stroke-linecap:butt;stroke-linejoin:miter;stroke-miterlimit:2.61310005;stroke-dasharray:none;stroke-opacity:1" transform="matrix(.13392 0 0 -.13275 0 257.333)"></path><path d="M543.52 1044.57c8.335-8.69 16.839-17.21 22.019-25.56-5.18 8.35-13.684 16.87-22.019 25.56" style="fill:#231f20;fill-opacity:1;fill-rule:nonzero;stroke:none" transform="matrix(.13333 0 0 -.13333 0 257.333)"></path><path d="M541.14 1049.19c8.3-8.73 16.766-17.29 21.923-25.68-5.157 8.39-13.623 16.95-21.923 25.68zm218.018-106.255c1.68 13.026 4.072 29.026 3.314 37.65m100.262 81.525c-11.757-10-44.745-16.26-58.376-17.22m-97.731-27.95c-20.099-7.36-51.667-12.67-74.002-17.165m-8.463-27.99c1.303.486 27.014-19.626 46.685-34.731-19.671 15.105-45.382 35.217-46.685 34.731zm-84.138 188.575c11.737 3.39 29.767 5.63 39.91 5.9-10.143-.27-28.173-2.51-39.91-5.9zm45.939-113.02c-1.144 23.44 5.071 55 9.738 73.51m125.024-50.73c-15.638 18.8-51.06 49.46-66.504 64.8m121.621-45.83c9.226 25.79 17.222 69.77 20.753 81.05m-45.382 45.88c-22.74-2.83-70.433-17.97-84.438-23.33" style="fill:none;stroke:#231f20;stroke-width:4.59955978;stroke-linecap:butt;stroke-linejoin:miter;stroke-miterlimit:2.61310005;stroke-dasharray:none;stroke-opacity:1" transform="matrix(.13392 0 0 -.13275 0 257.333)"></path><path d="M541.14 1049.19c8.3-8.73 16.766-17.29 21.923-25.68-5.157 8.39-13.623 16.95-21.923 25.68z" style="fill:none;stroke:#231f20;stroke-width:4.59955978;stroke-linecap:butt;stroke-linejoin:miter;stroke-miterlimit:2.61310005;stroke-dasharray:none;stroke-opacity:1" transform="matrix(.13392 0 0 -.13275 0 257.333)"></path><path d="m580.18 1340.09 7.34 2.7c1.011-1.83 2.343-3.02 3.984-3.55 1.644-.53 3.637-.46 5.984.2 2.481.7 4.235 1.63 5.258 2.8 1.024 1.17 1.383 2.3 1.067 3.39-.196.71-.633 1.23-1.301 1.57-.672.34-1.719.51-3.141.5-.969-.01-3.144-.16-6.535-.45-4.352-.38-7.527-.23-9.523.46-2.805.97-4.54 2.61-5.211 4.95-.43 1.5-.286 3.06.441 4.68.723 1.62 2.023 3.06 3.898 4.33 1.872 1.26 4.27 2.31 7.196 3.13 4.781 1.35 8.617 1.55 11.5.59 2.886-.96 4.781-2.79 5.683-5.48l-7.609-2.4q-1.158 2.16-3.066 2.7c-1.282.36-3.004.24-5.172-.37-2.243-.63-3.891-1.48-4.953-2.55-.684-.69-.922-1.42-.7-2.19q.305-1.05 1.664-1.47c1.153-.36 3.704-.36 7.645.02 3.945.38 6.918.45 8.926.22 2.004-.23 3.699-.83 5.078-1.82q2.07-1.485 2.879-4.29c.484-1.7.336-3.46-.457-5.29-.789-1.82-2.192-3.41-4.203-4.75q-3.024-2.025-7.993-3.42c-4.824-1.36-8.777-1.53-11.859-.52-3.086 1.02-5.359 3.11-6.82 6.31m38.711 16.11c-.762 3.04-.821 5.74-.164 8.09.496 1.74 1.343 3.4 2.558 4.98a15.9 15.9 0 0 0 4.297 3.92c2.207 1.38 4.867 2.45 8.004 3.22q8.502 2.1 14.637-.75c4.09-1.89 6.746-5.27 7.965-10.13 1.207-4.83.46-9.02-2.231-12.58-2.695-3.56-6.871-6.02-12.523-7.41q-8.585-2.115-14.672.69c-4.051 1.89-6.676 5.21-7.871 9.97m7.937 2.16c.844-3.38 2.496-5.7 4.957-6.95 2.453-1.25 5.238-1.49 8.344-.72 3.109.76 5.437 2.26 7 4.48 1.559 2.22 1.902 5.07 1.031 8.53-.855 3.43-2.465 5.74-4.828 6.95s-5.144 1.42-8.363.62c-3.211-.79-5.59-2.28-7.129-4.47s-1.875-5-1.012-8.44m65.301 10.72 7.961-.24c-.461-3.54-1.867-6.4-4.231-8.57-2.359-2.17-5.625-3.69-9.777-4.57q-7.717-1.62-13.566 1.44c-3.895 2.03-6.352 5.42-7.368 10.16-1.07 5.01-.238 9.25 2.497 12.73 2.734 3.47 6.812 5.78 12.238 6.92 4.738 1 8.824.72 12.246-.84 2.035-.91 3.75-2.48 5.144-4.7l-7.445-3.05c-.789 1.45-2.008 2.48-3.652 3.07-1.649.59-3.504.67-5.586.23-2.867-.6-5.027-1.89-6.469-3.87-1.449-1.97-1.785-4.76-1.016-8.35.813-3.8 2.274-6.33 4.383-7.57 2.11-1.25 4.578-1.58 7.403-.98 2.082.43 3.761 1.32 5.043 2.66 1.277 1.34 2.007 3.19 2.195 5.53m20.32-7.57-5.703 30.23 7.848 1.46 5.703-30.24zm19.281 3.56-5.003 30.36 29 4.69.843-5.13-21.117-3.42 1.113-6.74 19.668 3.19.848-5.13-19.672-3.19 1.36-8.22 21.835 3.53.844-5.12zm36.075 36.83 14.504 1.88c3.269.42 5.789.55 7.554.38q3.562-.345 6.297-2.04a13.3 13.3 0 0 0 4.403-4.46c1.113-1.83 1.859-4.18 2.234-7.03.332-2.52.219-4.73-.348-6.65-.691-2.35-1.855-4.33-3.5-5.93-1.238-1.23-2.992-2.28-5.254-3.16-1.695-.66-4.007-1.18-6.937-1.55l-14.934-1.94zm8.601-4.13 2.66-20.19 5.946.77c2.222.29 3.816.59 4.773.92q1.887.615 3.047 1.68t1.695 3.21c.36 1.43.383 3.33.075 5.69-.313 2.36-.821 4.13-1.524 5.32s-1.586 2.08-2.648 2.66c-1.059.58-2.352.9-3.871.96-1.137.05-3.329-.13-6.575-.56zm74.282-17.53-8.661-.83-4.089 6.64-15.719-1.51-2.559-7.29-8.527-.82 12.18 32.07 8.546.83zm-15.852 10.74-6.563 10.78-4.152-11.82zm21.719 20.52 14.593.93c3.293.21 5.813.17 7.567-.11 2.351-.39 4.402-1.2 6.14-2.45a13.34 13.34 0 0 0 4.102-4.73q1.481-2.865 1.762-7.17c.164-2.53-.098-4.73-.793-6.61-.844-2.3-2.133-4.2-3.879-5.7-1.32-1.13-3.137-2.06-5.457-2.8-1.735-.55-4.078-.91-7.027-1.1l-15.024-.95zm8.304-4.68 1.313-20.32 5.98.38c2.243.14 3.848.34 4.832.6 1.282.33 2.329.83 3.149 1.48s1.453 1.69 1.906 3.1c.453 1.4.606 3.3.453 5.67-.156 2.37-.547 4.17-1.168 5.41q-.936 1.86-2.465 2.82c-1.019.65-2.289 1.06-3.8 1.22-1.133.12-3.332.08-6.602-.13zm37.231-23.46-1.008 30.74 29.367.94.172-5.19-21.387-.69.223-6.82 19.922.64.172-5.19-19.922-.65.269-8.33 22.118.71.172-5.19zm60.176 32 14.625-.2q4.946-.06 7.531-.69c2.316-.56 4.293-1.54 5.937-2.91a13.25 13.25 0 0 0 3.715-5.04c.832-1.97 1.231-4.4 1.192-7.28-.032-2.54-.469-4.71-1.305-6.53-1.02-2.23-2.457-4.02-4.316-5.38-1.407-1.03-3.29-1.82-5.657-2.38-1.773-.4-4.14-.59-7.093-.55l-15.055.21zm7.918-5.31-.289-20.35 5.996-.09c2.242-.03 3.859.05 4.855.23 1.309.24 2.395.64 3.262 1.23s1.578 1.57 2.144 2.94c.559 1.37.856 3.25.887 5.62.039 2.38-.207 4.21-.734 5.48-.528 1.28-1.27 2.29-2.239 3.02q-1.451 1.08-3.695 1.5c-1.117.2-3.312.33-6.586.38zm35.036-26.23 1.4 30.72 29.35-1.32-.24-5.19-21.37.96-.31-6.82 19.91-.89-.23-5.19-19.92.89-.38-8.33 22.11-.99-.24-5.2zm39.24 8.22 7.83.01c.31-2.07 1.14-3.63 2.5-4.69s3.26-1.68 5.68-1.86c2.58-.2 4.55.08 5.92.83 1.37.74 2.09 1.68 2.18 2.82.06.72-.17 1.36-.68 1.91s-1.43 1.07-2.77 1.55c-.91.32-3.01.92-6.29 1.81-4.21 1.13-7.14 2.37-8.77 3.7-2.3 1.86-3.36 4.01-3.17 6.42.12 1.56.8 2.98 2.04 4.25 1.25 1.26 2.97 2.17 5.17 2.72s4.81.71 7.85.48c4.95-.37 8.62-1.5 11-3.39 2.36-1.88 3.51-4.24 3.42-7.09l-7.98.36c-.23 1.61-.87 2.81-1.94 3.58-1.07.78-2.73 1.26-4.98 1.43-2.32.17-4.17-.06-5.54-.7-.88-.42-1.35-1.02-1.41-1.82-.06-.72.29-1.37 1.04-1.95.96-.73 3.35-1.6 7.18-2.59 3.83-1 6.65-1.95 8.46-2.86 1.8-.9 3.18-2.05 4.13-3.44.95-1.41 1.35-3.07 1.2-5.02-.13-1.76-.89-3.36-2.27-4.8-1.37-1.44-3.24-2.45-5.6-3.02s-5.26-.73-8.69-.48c-5 .38-8.77 1.57-11.31 3.58-2.55 2.01-3.94 4.76-4.2 8.26m41.88-13.46 3.3 30.58 12.75-1.35q7.23-.765 9.39-1.47c2.2-.69 3.98-1.89 5.33-3.59s1.9-3.76 1.64-6.2c-.2-1.87-.81-3.41-1.83-4.59a9.5 9.5 0 0 0-3.66-2.66c-1.44-.59-2.86-.92-4.28-1.01-1.93-.09-4.68.05-8.28.43l-5.18.55-1.25-11.53zm10.68 24.57-.94-8.71 4.35-.46q4.68-.51 6.33-.18c1.08.2 1.97.62 2.64 1.24s1.06 1.38 1.15 2.29c.13 1.12-.19 2.08-.96 2.9-.75.81-1.77 1.38-3.04 1.7-.93.24-2.83.51-5.69.82zm30.16-13.73c.45 3.11 1.41 5.63 2.91 7.57 1.12 1.42 2.54 2.65 4.25 3.67 1.72 1.01 3.55 1.69 5.47 2.03 2.57.46 5.44.47 8.64.02 5.78-.82 10.21-2.86 13.29-6.14 3.07-3.27 4.26-7.39 3.55-12.35-.71-4.92-2.98-8.53-6.82-10.83s-8.65-3.04-14.42-2.23c-5.84.82-10.28 2.86-13.33 6.11-3.06 3.25-4.23 7.3-3.54 12.15m8.18-.94c-.49-3.45.16-6.21 1.96-8.28 1.81-2.07 4.3-3.32 7.47-3.77s5.9.07 8.19 1.55c2.28 1.48 3.68 4 4.18 7.53.5 3.49-.12 6.24-1.85 8.24-1.74 1.99-4.24 3.22-7.52 3.68s-6.04-.04-8.3-1.5c-2.25-1.46-3.63-3.94-4.13-7.45m37.62-21.07 5.46 30.28 16.52-2.93c4.16-.74 7.13-1.54 8.92-2.42 1.78-.88 3.11-2.12 3.99-3.71s1.16-3.29.84-5.08c-.41-2.28-1.6-4-3.57-5.18-1.98-1.19-4.7-1.67-8.17-1.45 1.55-1.07 2.8-2.16 3.73-3.28.94-1.11 2.13-3.01 3.57-5.69l3.69-6.73-9.41 1.66-4.43 7.62c-1.61 2.69-2.73 4.4-3.36 5.14s-1.35 1.3-2.14 1.67c-.8.37-2.1.72-3.91 1.04l-1.59.28-2.28-12.61zm11 16.04 5.8-1.03c3.76-.67 6.14-.96 7.12-.87q1.47.12 2.43.9c.64.51 1.05 1.23 1.21 2.14q.27 1.545-.6 2.67c-.58.76-1.5 1.33-2.74 1.72-.62.18-2.52.55-5.7 1.12l-6.12 1.08zm40.66-25.75 5.41 25-11.45 2.43 1.1 5.08 30.7-6.53-1.1-5.08-11.44 2.44-5.41-25zm27.7-6.15 7.28 29.9 7.76-1.86-7.28-29.89zm28.55-7.15-5.41 33.36 8.36-2.27 3.59-24.59 15.44 19.43 8.18-2.22-21.87-25.96zm59-17.91-8.27 2.69-1.05 7.71-15 4.89-5.3-5.65-8.15 2.65 24.18 24.5 8.16-2.65zm-10.16 16.15-1.63 12.49-8.6-9.17z" style="fill:#387ac7;fill-opacity:1;fill-rule:nonzero;stroke:none" transform="matrix(.13333 0 0 -.13333 0 257.333)" data-source="https://football-logos.cc"></path><!-- source: https://football-logos.cc --></svg>