<svg xmlns="http://www.w3.org/2000/svg" xml:space="preserve" viewBox="51.2 101.75 660.95 899.01"><!-- Source: https://football-logos.cc --><defs data-source="https://football-logos.cc"><clipPath id="a" clipPathUnits="userSpaceOnUse"><path d="M.5-.5h595.446v841.89H.5Z"></path></clipPath></defs><g clip-path="url(#a)" transform="matrix(1.33333 0 0 -1.33333 -.667 1121.853)" data-source="https://football-logos.cc"><path d="M117.123 606.902a2169 2169 0 0 0 15.66-25.015l-.277-.274c-1.104-1.147-1.788-2.307-2.093-3.52-.404-1.609-.103-3.256.897-4.899 2.445-4.018 7.544-4.672 12.99-1.666l.185.106.43-.224c8.583-3.132 29.076-10.066 53.727-14.639l1.129-.241c-39.195-5.034-64.162 9.7-64.424 9.859l-1.052.635-41.513-63.133c-4.826-7.46-6.447-15.175-4.69-22.32 1.56-6.35 5.8-11.757 11.935-15.225 10.327-5.837 20.674-1.96 24.709 5.16l12.178 19.618.241.41q.719-2.049 1.205-4.318c2.677-12.46-.81-27.753-5.58-34.781-8.745-12.888-19.259-19.245-32.144-19.435-11.1-.162-14.973 1.572-15.012 1.59l-1.79.83-.034-1.968c-.01-1.026-.383-103.759 69.193-209.387C215.682 128.89 285.467 91.5 286.165 91.135l.593-.314.593.313c.698.367 70.487 37.757 133.176 132.93 69.577 105.63 69.203 208.362 69.193 209.388l-.023 1.973-1.801-.835c-.037-.018-3.91-1.752-15.012-1.59-12.885.19-23.399 6.547-32.144 19.435-4.766 7.025-8.256 22.32-5.582 34.78a36 36 0 0 0 1.163 4.194l.327-.351 12.162-19.594c4.01-7.078 14.355-10.956 24.684-5.118 6.135 3.468 10.374 8.876 11.934 15.224 1.756 7.146.137 14.861-4.685 22.314l-41.518 63.14-1.052-.635c-.261-.159-25.022-14.77-63.933-9.922l-.526.093c25.332 4.595 46.444 11.761 55.058 14.912l.445.056c5.447-3.006 10.545-2.352 12.991 1.666 1 1.643 1.302 3.29.896 4.899-.295 1.174-.945 2.3-1.987 3.411l-.33.467a2172 2172 0 0 0 15.786 25.208l.387-.068c4.89-1.952 7.817.365 9.474 2.898 1.116 1.71 1.483 3.478 1.092 5.26-.364 1.66-1.338 3.078-2.495 4.24l-.324.341c9.943 15.324 20.249 30.537 25.195 35.763 11.179 11.809 24.68 21.105 32.105 22.104l5.568.655c4.53.48 6.806.722 7.017 3.047.537 5.912-7.886 10.14-15.047 12.646-6.433 2.252-9.84 3.804-13.026 7.045l-1.883 2.146c-1.674 2.027-3.406 4.123-7.506 6.024-6.238 2.892-10.998-.518-13.288-3.482-1.313.978-3.577 2.266-5.974 1.806-2.142-.411-3.836-2.066-5.037-4.916-3.954-9.395-7.336-16.772-11.977-24.513-2.525-4.208-4.694-8.354-4.694-12.4 0-3.226 1.379-6.388 5.054-9.468 3.473-2.91 6.64-4.106 9.14-4.56-1.918-.755-4.611-1.567-8.38-2.204-5.796-.981-10.675-.53-14.5 1.34-8.917 4.36-13.103 21.315-13.145 21.486l-.417 1.726-1.504-.945c-.155-.098-15.655-9.688-27.932-3.844-8.565 4.076-10.81 11.562-11.371 16.153 1.909-1.809 5.063-3.811 10.098-4.714 10.636-1.907 14.116 5.414 17.013 13.746 2.96 8.514 6.453 15.844 11.13 24.91.811 1.576 1.218 3.023 1.218 4.332q0 1.462-.677 2.685c-1.192 2.15-3.642 3.05-5.233 3.424.188.841.33 1.755.33 2.77 0 3.391-1.361 7.397-6.161 9.662-4.44 2.094-7.212 2.039-10.147 1.982-2.304-.045-4.69-.094-8.29.915-3.534 1.107-5.508 2.444-7.414 3.738-2.43 1.647-4.726 3.202-9.59 3.865-6.81.928-10.364-3.733-11.68-7.24-1.54.55-4.074 1.119-6.234-.029-1.928-1.024-3.06-3.103-3.369-6.18-1.014-10.144-2.078-18.191-4.236-26.952-2.112-8.564-3.183-16.598 6.779-20.794 4.463-1.881 7.996-1.982 10.56-1.586-3.898-4.046-11.595-10.06-21.455-7.747-10.132 2.375-19.294 18.571-19.384 18.735l-1.041 1.86-1.15-1.796c-.09-.14-9.127-13.987-23.517-12.844-11.578.92-15.341 9.756-16.543 14.62 2.303-1.338 6.095-2.653 11.713-2.029 10.74 1.193 11.997 9.2 12.406 18.012.42 9.008 1.687 17.027 3.595 27.045.578 3.038.084 5.353-1.473 6.883-1.771 1.738-4.353 1.878-5.982 1.78-.256 3.737-2.314 9.229-9.13 10.278-4.852.746-7.494-.094-10.293-.982-2.197-.698-4.468-1.42-8.21-1.478-3.7.058-5.972.78-8.168 1.478-2.798.888-5.442 1.728-10.292.982-6.816-1.049-8.876-6.541-9.131-10.278-1.63.098-4.211-.042-5.982-1.78-1.557-1.53-2.053-3.845-1.474-6.883 1.908-10.018 3.176-18.037 3.595-27.045.41-8.812 1.667-16.819 12.406-18.012 5.619-.624 9.411.69 11.714 2.029-1.202-4.864-4.964-13.7-16.543-14.62-14.39-1.143-23.428 12.704-23.518 12.844l-1.15 1.795-1.04-1.859c-.09-.164-9.251-16.36-19.383-18.735-9.86-2.312-17.557 3.7-21.456 7.747 2.564-.396 6.096-.295 10.56 1.586 9.961 4.196 8.89 12.23 6.778 20.794-2.156 8.758-3.22 16.806-4.236 26.952-.308 3.077-1.441 5.156-3.368 6.18-2.16 1.148-4.694.58-6.234.029-1.317 3.507-4.87 8.168-11.681 7.24-4.863-.663-7.159-2.218-9.588-3.865-1.908-1.294-3.882-2.631-7.452-3.75-3.566-.995-5.949-.949-8.253-.903-2.935.057-5.708.112-10.147-1.982-4.8-2.265-6.162-6.27-6.162-9.663 0-1.014.142-1.928.33-2.769-1.59-.374-4.04-1.274-5.232-3.423a5.45 5.45 0 0 1-.678-2.686c0-1.309.407-2.756 1.22-4.331 4.677-9.068 8.17-16.4 11.128-24.911 2.897-8.332 6.378-15.652 17.013-13.746 5.035.903 8.19 2.905 10.099 4.714-.563-4.591-2.808-12.077-11.371-16.153-12.278-5.844-27.78 3.745-27.934 3.844l-1.503.945-.417-1.726c-.041-.17-4.229-17.127-13.145-21.485-3.825-1.871-8.703-2.322-14.5-1.341-3.77.637-6.462 1.449-8.38 2.204 2.5.454 5.667 1.65 9.14 4.56 3.676 3.08 5.055 6.242 5.055 9.468 0 4.046-2.17 8.192-4.694 12.4-4.64 7.737-8.022 15.116-11.978 24.513-1.2 2.851-2.894 4.505-5.038 4.916-2.395.46-4.66-.828-5.972-1.806-2.29 2.964-7.051 6.374-13.288 3.482-4.102-1.901-5.833-3.998-7.508-6.026l-1.882-2.144c-3.185-3.241-6.593-4.793-13.026-7.045-7.16-2.506-15.584-6.734-15.047-12.646.212-2.325 2.486-2.566 7.018-3.047l5.57-.655c7.422-1 20.924-10.295 32.105-22.104 4.926-5.205 15.173-20.324 25.08-35.59l.171-.143c-1.321-1.228-2.474-2.772-2.878-4.61-.39-1.783-.022-3.552 1.093-5.261 1.691-2.585 4.706-4.945 9.775-2.772z" style="fill:#231f20;fill-opacity:1;fill-rule:nonzero;stroke:none"></path><path d="M109.221 611.406c-.738 1.129-.98 2.213-.737 3.315.369 1.678 1.908 3.44 4.334 4.958 4.995 3.126 10.45 6.246 17.163 9.818 47.5 25.268 101.713 38.624 156.778 38.624s109.277-13.356 156.779-38.624c6.714-3.572 12.168-6.692 17.163-9.818 2.425-1.518 3.965-3.279 4.333-4.958.242-1.102.002-2.188-.736-3.316-1.233-1.884-3.468-4.014-8.632-.753-4.914 3.103-10.412 6.254-17.308 9.917-45.982 24.43-98.404 37.343-151.599 37.343S181.143 645 135.16 620.57c-6.89-3.662-12.39-6.813-17.306-9.917-5.163-3.26-7.399-1.131-8.632.754" style="fill:#756620;fill-opacity:1;fill-rule:nonzero;stroke:none"></path><path d="m286.76 648.584 17.86-8.186-17.86-8.187-17.86 8.187z" style="fill:#2fac52;fill-opacity:1;fill-rule:nonzero;stroke:none"></path><path d="m201.108 636.313 19.412-3.034-14.969-12.726-19.41 3.034z" style="fill:#e22920;fill-opacity:1;fill-rule:nonzero;stroke:none"></path><path d="M273.798 731.29c0 7.147 5.814 12.962 12.961 12.962s12.961-5.815 12.961-12.961c0-7.147-5.813-12.962-12.96-12.962s-12.962 5.815-12.962 12.962m5.524 0c0-4.102 3.336-7.438 7.437-7.438s7.438 3.336 7.438 7.438c0 4.1-3.336 7.437-7.438 7.437-4.101 0-7.437-3.336-7.437-7.437" style="fill:#756620;fill-opacity:1;fill-rule:nonzero;stroke:none"></path><path d="M280.598 731.29a6.17 6.17 0 0 0 6.161 6.162 6.17 6.17 0 0 0 6.162-6.161 6.17 6.17 0 0 0-6.162-6.162 6.17 6.17 0 0 0-6.16 6.162m-113.095-19.569c-2.03 6.852 1.893 14.079 8.746 16.109 3.32.983 6.823.617 9.866-1.035a12.88 12.88 0 0 0 6.242-7.71c.984-3.32.616-6.824-1.036-9.866a12.88 12.88 0 0 0-7.71-6.243c-6.85-2.03-14.077 1.893-16.108 8.745m10.314 10.812a7.38 7.38 0 0 1-4.421-3.578 7.4 7.4 0 0 1-.598-5.666c1.166-3.931 5.313-6.182 9.245-5.018 3.23.958 5.326 3.926 5.326 7.135a7.4 7.4 0 0 1-.307 2.11 7.38 7.38 0 0 1-3.585 4.424 7.38 7.38 0 0 1-5.66.593" style="fill:#756620;fill-opacity:1;fill-rule:nonzero;stroke:none"></path><path d="M174.023 713.653a6.12 6.12 0 0 0 .495 4.694 6.1 6.1 0 0 0 3.662 2.963 6.12 6.12 0 0 0 4.69-.49 6.12 6.12 0 0 0 2.97-3.667c.965-3.256-.901-6.691-4.158-7.657a6.17 6.17 0 0 0-7.659 4.157m-102.632-43.57a93 93 0 0 1-4.45 3.198l.272.317a13 13 0 0 0 2.602 2.284 12.87 12.87 0 0 0 9.733 1.914 12.88 12.88 0 0 0 8.235-5.532 12.87 12.87 0 0 0 1.913-9.734 12.9 12.9 0 0 0-2.963-5.998l-.316-.242q-.536.644-.947 1.078-1.388 1.465-2.808 2.871l.149.214a7.4 7.4 0 0 1 1.471 3.17q.15.741.149 1.481a7.4 7.4 0 0 1-1.246 4.101 7.4 7.4 0 0 1-4.729 3.176 7.4 7.4 0 0 1-5.583-1.099 7.5 7.5 0 0 1-1.138-.927z" style="fill:#756620;fill-opacity:1;fill-rule:nonzero;stroke:none"></path><path d="M72.838 669.643q.345.313.74.576a6.12 6.12 0 0 0 4.626.91 6.12 6.12 0 0 0 3.918-2.63 6.12 6.12 0 0 0 .91-4.624 6.14 6.14 0 0 0-1.091-2.46l-.223-.253a118 118 0 0 1-9.246 8.085z" style="fill:#756620;fill-opacity:1;fill-rule:nonzero;stroke:none"></path><path d="M122.87 602.618a2159 2159 0 0 0 8.1-12.943l.262.335c2.785 3.87 8.5 11.818 10.4 14.46l-18.164-1.804z" style="fill:#2fac52;fill-opacity:1;fill-rule:nonzero;stroke:none"></path><path d="M154.831 617.27a1.77 1.77 0 0 0-.06 1.36c.152.412.45.738.839.916l7.999 3.683c.389.18.828.194 1.239.043a1.77 1.77 0 0 0 .995-.931c.201-.437.223-.92.06-1.36a1.6 1.6 0 0 0-.838-.915l-8-3.683c-.83-.382-1.833.015-2.234.888m5.766-11.289c-.44.163-.794.494-.995.931-.202.437-.223.92-.06 1.36.15.412.449.735.838.915l7.999 3.684c.83.382 1.834-.016 2.235-.888.112-.243.168-.5.168-.756 0-.205-.035-.41-.108-.604a1.6 1.6 0 0 0-.84-.916l-7.998-3.684a1.6 1.6 0 0 0-1.239-.042m77.083 36.691c-.118.952.526 1.819 1.434 1.931l8.74 1.082a1.6 1.6 0 0 0 1.192-.336c.371-.288.608-.711.665-1.189h.001c.118-.952-.524-1.82-1.432-1.932l-8.74-1.082c-.907-.11-1.742.572-1.86 1.526m2.07-12.508c-.371.29-.608.712-.668 1.19s.067.945.356 1.315c.27.345.651.563 1.075.616l8.741 1.083c.907.111 1.742-.574 1.86-1.527q.014-.115.014-.229c0-.395-.127-.774-.37-1.084a1.6 1.6 0 0 0-1.076-.616l-8.741-1.083a1.6 1.6 0 0 0-1.191.335" style="fill:#42499d;fill-opacity:1;fill-rule:nonzero;stroke:none"></path><path d="M133.49 574.521c-.64 1.051-.835 2.016-.601 2.95.42 1.672 2.275 3.484 5.51 5.385 6.888 4.047 12.233 7.007 17.332 9.6 39.912 20.28 85.221 31 131.028 31s91.116-10.72 131.028-31c5.097-2.592 10.443-5.552 17.332-9.6 3.237-1.9 5.09-3.713 5.51-5.386.235-.933.04-1.898-.6-2.949-2.03-3.335-6.28-2.58-9.577-.758l-5.441 3.112-7.067 3.998c-39.7 21.178-85.062 32.373-131.185 32.373-46.122 0-91.485-11.195-131.185-32.373l-7.07-4-5.437-3.11c-3.298-1.822-7.546-2.577-9.577.758" style="fill:#756620;fill-opacity:1;fill-rule:nonzero;stroke:none"></path><path d="m372.41 636.313 14.967-12.726-19.41-3.034L353 633.28z" style="fill:#e22920;fill-opacity:1;fill-rule:nonzero;stroke:none"></path><path d="M389.905 702.977a12.88 12.88 0 0 0-7.708 6.243 12.87 12.87 0 0 0-1.037 9.866 12.88 12.88 0 0 0 6.244 7.71 12.87 12.87 0 0 0 9.864 1.035c6.853-2.03 10.776-9.257 8.746-16.109a12.87 12.87 0 0 0-6.243-7.708 12.87 12.87 0 0 0-9.866-1.037m.135 18.964a7.4 7.4 0 0 1-3.584-4.425c-1.166-3.931 1.086-8.078 5.018-9.244 3.933-1.165 8.08 1.087 9.245 5.018a7.4 7.4 0 0 1-.596 5.665 7.38 7.38 0 0 1-4.423 3.58 7.38 7.38 0 0 1-5.66-.594" style="fill:#756620;fill-opacity:1;fill-rule:nonzero;stroke:none"></path><path d="M391.836 709.496a6.17 6.17 0 0 0-4.157 7.657 6.12 6.12 0 0 0 2.97 3.666 6.1 6.1 0 0 0 4.688.491 6.1 6.1 0 0 0 3.664-2.963 6.12 6.12 0 0 0 .494-4.694 6.17 6.17 0 0 0-7.659-4.157" style="fill:#756620;fill-opacity:1;fill-rule:nonzero;stroke:none"></path><path d="M278.681 705.09c-2.339-1.01-5.273-2.365-10.706-1.762-8.046.895-9.68 5.741-10.14 15.594-.426 9.16-1.707 17.276-3.636 27.405-.409 2.144-.156 3.684.75 4.579 1.384 1.366 4.21 1.15 5.182.95l1.63-.332-.098 1.663c-.02.324-.394 7.942 7.003 9.08 4.26.656 6.52-.063 9.13-.892 2.264-.719 4.827-1.533 8.943-1.597 4.157.064 6.72.878 8.984 1.597 2.613.83 4.87 1.548 9.13.892 7.396-1.138 7.022-8.756 7.002-9.08l-.1-1.66 1.632.33c.972.199 3.799.415 5.182-.951.907-.895 1.16-2.435.75-4.58-1.93-10.128-3.21-18.244-3.636-27.404-.458-9.853-2.091-14.699-10.139-15.594-5.245-.583-8.253.7-10.698 1.816s-3.935 2.18-3.935 2.18.077-1.77.438-3.703c.929-4.994 4.906-16.837 19.104-17.965 12.956-1.029 21.671 8.455 24.698 12.379 2.749-4.431 10.753-16.103 20.013-18.275 10.811-2.534 19.218 3.746 23.607 8.19 2.303 2.482 3.174 5.39 3.174 5.39s-1.649-.532-5.643-.942c-2.116-.218-5.028-.001-8.668 1.533-7.465 3.144-7.654 8.255-5.293 17.831 2.195 8.907 3.273 17.052 4.299 27.309.216 2.171.897 3.577 2.02 4.177 1.715.916 4.363-.094 5.238-.56l1.468-.782.379 1.622c.073.316 1.879 7.727 9.295 6.717 4.27-.581 6.229-1.91 8.499-3.45 1.965-1.33 4.192-2.84 8.122-4.07 4.003-1.12 6.692-1.068 9.067-1.021 2.74.054 5.107.1 9.006-1.738 6.77-3.194 4.246-10.391 4.137-10.696l-.57-1.563 1.66-.148c.988-.086 3.758-.681 4.698-2.384.614-1.115.42-2.664-.582-4.603-4.728-9.167-8.263-16.587-11.27-25.244-3.24-9.317-6.183-13.5-14.152-12.071-3.058.548-5.298 1.53-6.918 2.577-3.573 2.135-5.753 4.687-5.753 4.687s-.861-2.532-.298-5.972c.854-5.215 3.58-13.21 12.693-17.548 11.424-5.436 24.612.781 28.912 3.141 1.324-4.57 5.708-17.467 14.062-21.551 4.316-2.11 9.714-2.636 16.048-1.565 5.327.901 8.719 2.194 10.853 3.184 2.356 1.095 4.031 2.69 4.031 2.69s-2.788.055-7.735 1.623c-1.9.547-4.19 1.642-6.696 3.741-6.209 5.2-4.886 10.14.188 18.598 4.72 7.87 8.145 15.338 12.144 24.837.845 2.011 1.909 3.154 3.158 3.398 1.908.37 4.143-1.374 4.842-2.077l1.173-1.18.84 1.44c.163.28 4.069 6.832 10.858 3.685 3.574-1.658 4.983-3.362 6.612-5.335l2.031-2.308c3.541-3.605 7.181-5.279 14.003-7.666 8.652-3.028 13.642-6.769 13.348-10.006-.327-.271-2.473-.499-4.744-.74l-5.641-.663c-3.706-.499-8.625-2.753-13.996-6.244l-.233.236a14.2 14.2 0 0 1-3.027 2.706 14.14 14.14 0 0 1-10.692 2.102 14.14 14.14 0 0 1-9.045-6.077 14.13 14.13 0 0 1-2.102-10.692 14.14 14.14 0 0 1 3.408-6.758l.228-.246c-2.556-3.07-5.908-7.654-9.656-13.053l-.652-.254c-7.193-3.095-21.083-7.28-32.263-1.927-11.743 5.625-13.943 19.528-13.965 19.668l-.326 2.186-1.734-1.376c-.422-.337-10.552-8.168-27.256-1.928-11.382 4.252-17.936 18.538-18 18.682l-.711 1.576-1.3-1.144c-.108-.096-11.009-9.545-25.082-6.931-14.005 2.601-19.633 15.49-19.688 15.62l-.973 2.29-1.295-2.129c-.273-.45-6.885-11.008-23.489-9.808-12.637.913-21.942 13.077-22.034 13.2l-1.018 1.351-1.021-1.351c-.093-.123-9.405-12.287-22.043-13.2-16.603-1.2-23.215 9.358-23.49 9.808l-1.291 2.127-.976-2.288c-.054-.13-5.682-13.019-19.688-15.62-14.073-2.614-24.974 6.835-25.082 6.93l-1.298 1.145-.711-1.576c-.065-.144-6.618-14.43-18.002-18.682-16.704-6.24-26.833 1.591-27.256 1.928l-1.73 1.376-.33-2.186c-.02-.14-2.222-14.043-13.965-19.668-11.77-5.636-26.547-.7-33.347 2.408l-.34.523c-3.403 4.874-6.682 9.438-8.923 12.265l.29.308a14.16 14.16 0 0 1 3.385 6.734 14.14 14.14 0 0 1-2.101 10.693 14.14 14.14 0 0 1-9.047 6.076 14.13 14.13 0 0 1-10.69-2.102 14.2 14.2 0 0 1-3.04-2.72l-.225-.218c-5.37 3.489-10.288 5.74-13.991 6.24l-5.64.663c-2.272.241-4.418.469-4.793.815-.247 3.162 4.743 6.903 13.396 9.931 6.822 2.387 10.462 4.061 14.003 7.666l2.03 2.308c1.629 1.973 3.037 3.677 6.612 5.335 6.79 3.147 10.696-3.405 10.859-3.685l.835-1.438 1.178 1.178c.699.703 2.933 2.448 4.841 2.077 1.25-.243 2.313-1.387 3.16-3.398 3.998-9.501 7.424-16.97 12.142-24.837 5.074-8.457 6.397-13.397.189-18.598-2.432-2.037-4.663-3.13-6.528-3.692-5.24-1.65-8.16-1.698-8.16-1.698s2.552-2.127 6.1-3.464c2.115-.797 5.03-1.705 9.04-2.384 6.334-1.071 11.734-.545 16.048 1.565 8.355 4.084 12.739 16.98 14.062 21.551 4.302-2.36 17.49-8.577 28.912-3.14 8.004 3.809 11.114 10.432 12.303 15.525 1.058 4.432.686 7.568.686 7.568s-2.125-2.197-7.337-4.847a21 21 0 0 0-5.927-1.991c-7.969-1.428-10.912 2.754-14.152 12.072-3.008 8.654-6.542 16.075-11.27 25.243-1.001 1.94-1.197 3.488-.582 4.603.939 1.703 3.709 2.298 4.698 2.384l1.656.144-.566 1.567c-.11.305-2.633 7.502 4.136 10.696 3.899 1.838 6.266 1.792 9.007 1.738 2.374-.047 5.069-.098 9.028 1.009 3.968 1.241 6.195 2.751 8.16 4.082 2.27 1.54 4.23 2.869 8.501 3.45 7.415 1.01 9.22-6.401 9.293-6.717l.375-1.62 1.472.78c.876.467 3.524 1.476 5.239.56 1.123-.6 1.802-2.006 2.02-4.177 1.026-10.258 2.104-18.404 4.297-27.309 2.362-9.576 2.173-14.687-5.29-17.831-3.118-1.314-6.22-1.761-7.975-1.655-4.361.106-5.956.638-5.956.638s.288-2.76 3.254-5.422c4.688-4.204 12.702-10.18 23.146-7.731 9.259 2.17 17.263 13.843 20.013 18.274 3.026-3.924 11.74-13.408 24.698-12.379 14.184 1.127 18.085 12.967 19.103 17.951.554 3.026.606 3.877.606 3.877s-1.544-1.291-4.094-2.393m-6.159 26.2c0-7.85 6.388-14.238 14.237-14.238s14.238 6.387 14.238 14.238c0 7.85-6.388 14.237-14.238 14.237s-14.237-6.387-14.237-14.237m-8.58-7.06c.017-3.213.468-8.923 3.205-11.964 2.563-2.846 5.84-2.708 7.964-2.19 1.287.314 1.834 1.407 1.834 1.407s-1.088.067-2.167-.2c-1.799-.443-4.533-.551-6.682 1.837-2.464 2.737-2.858 8.197-2.873 11.218a4.6 4.6 0 0 1-.567 2.18s-.723-.967-.715-2.287m-88.054 4.823c-7.527-2.23-11.836-10.169-9.607-17.695 2.23-7.527 10.168-11.837 17.696-9.607a14.14 14.14 0 0 1 8.468 6.858 14.16 14.16 0 0 1 1.138 10.837 14.14 14.14 0 0 1-6.858 8.47 14.15 14.15 0 0 1-10.837 1.137m7.606 12.217c-2.822-.367-4.146-1.288-5.55-2.263-1.111-.773-2.263-1.573-4.356-2.23-2.094-.584-3.493-.54-4.848-.498-1.707.054-3.314.103-5.885-1.123-1.16-.555-2.055-2.616-2.055-2.616s1.663 1.014 2.605 1.464c2.286 1.095 3.68 1.051 5.295 1 1.383-.043 2.95-.091 5.25.55 2.3.72 3.588 1.615 4.724 2.406 1.326.921 2.472 1.718 4.985 2.046 1.036.134 2.985.198 2.985.198s-1.873 1.233-3.15 1.066m-23.4-36.723s-.422-1.113-.048-2.354c.925-3.069 2.981-8.453 6.485-10.6 3.26-1.999 6.356-.943 8.246.154a3.1 3.1 0 0 1 1.413 1.835s-1.102-.202-2.06-.764c-1.6-.937-4.19-1.818-6.931-.137-3.103 1.9-5.023 6.927-5.91 9.835-.387 1.269-1.196 2.031-1.196 2.031m42.437 12.578s-.35-.995-.014-2.133c.845-2.865 2.083-8.33.473-11.708-1.329-2.786-3.827-3.517-5.663-3.646-1.223-.087-2.37-.5-2.37-.5s.94-.849 2.36-.755c2.175.143 5.223.992 6.824 4.351 1.816 3.807.495 9.641-.405 12.658a3.55 3.55 0 0 1-1.205 1.733M75.176 699.474c-2.52-1.15-3.484-2.414-4.506-3.753-.838-1.1-1.706-2.237-3.618-3.441-.667-.42-2.261-.912-3.769-1.312-1.118-.297-2.667-1.298-2.667-1.298s1.402-.35 2.63-.035c1.627.42 3.595 1.003 4.486 1.565 2.107 1.327 3.088 2.613 3.953 3.747.961 1.26 1.792 2.35 4.021 3.366.95.435 2.805 1.148 2.805 1.148s-2.167.547-3.335.013m27.241-18.52s.194-1.319 1.065-2.69c1.665-2.622 4-6.983 3.609-10.31-.302-2.56-1.857-3.909-3.318-4.617-1.356-.658-2.699-1.322-2.699-1.322s1.492-.608 3.067.113c1.812.83 3.839 2.467 4.218 5.676.432 3.682-1.963 8.25-3.717 11.03-.907 1.436-2.225 2.12-2.225 2.12m173.58 74.127c-1.275-.204-2.75-1.88-2.75-1.88s1.917.454 2.952.62c2.502.4 3.825-.037 5.36-.545 1.313-.435 2.801-.927 5.19-.965 2.41.038 3.897.53 5.21.965 1.534.507 2.859.945 5.361.545 1.035-.166 2.932-.644 2.932-.644s-1.455 1.7-2.73 1.904c-2.81.45-4.342-.058-5.963-.593-1.286-.426-2.616-.866-4.81-.9-2.173.034-3.503.474-4.789.9-1.622.536-3.153 1.042-5.963.593m32.939-28.556s-.624-1.038-.642-2.452c-.04-3.066-.48-8.294-2.872-10.952-2.146-2.384-4.876-2.28-6.674-1.838-1.082.266-2.195.164-2.195.164s.553-1.048 1.82-1.362c2.123-.524 5.421-.68 7.999 2.182 2.724 3.026 3.184 8.692 3.207 11.914.01 1.348-.643 2.344-.643 2.344m77.86 1.392a14.15 14.15 0 0 1-6.86-8.469 14.14 14.14 0 0 1 1.14-10.837 14.14 14.14 0 0 1 8.467-6.858 14.14 14.14 0 0 1 10.837 1.14 14.14 14.14 0 0 1 6.858 8.467c2.23 7.526-2.08 15.464-9.607 17.695a14.14 14.14 0 0 1-10.836-1.138m.079 12.293s1.95-.068 2.987-.202c2.513-.328 3.658-1.125 4.985-2.047 1.136-.79 2.424-1.684 4.703-2.4 2.32-.648 3.888-.598 5.27-.555 1.615.051 3.01.097 5.294-1 .943-.45 2.71-1.4 2.71-1.4s-.998 1.997-2.159 2.552c-2.565 1.228-4.178 1.177-5.885 1.123-1.355-.042-2.755-.087-4.866.504-2.075.65-3.226 1.45-4.339 2.224-1.402.975-2.727 1.896-5.548 2.263-1.278.167-3.152-1.062-3.152-1.062m25.334-37.763c-.896-2.918-2.81-7.878-5.888-9.764-2.289-1.404-4.475-1.02-6.065-.308-1.453.65-2.947 1.186-2.947 1.186s.673-1.525 2.372-2.297c1.893-.862 4.542-1.366 7.309.33 3.427 2.101 5.469 7.298 6.422 10.396.416 1.35.055 2.55.055 2.55s-.857-.785-1.258-2.093m-42.59 12.37c-.882-3.137-1.944-8.503-.24-12.08 1.656-3.472 4.855-4.262 7.039-4.364a3.04 3.04 0 0 1 2.146.771s-1.036.432-2.146.483c-1.85.084-4.501.757-5.886 3.659-1.502 3.151-.526 8.12.298 11.099.41 1.482.15 2.747.15 2.747s-.96-.88-1.362-2.315m125.4-15.417s1.845-.65 2.795-1.087c2.23-1.017 3.06-2.106 4.022-3.366.865-1.134 1.846-2.42 3.952-3.747.772-.487 2.353-.99 3.821-1.388 1.502-.408 3.293-.155 3.293-.155s-1.726 1.055-2.942 1.385c-1.423.386-2.866.843-3.491 1.238-1.912 1.204-2.78 2.341-3.618 3.44-1.023 1.34-1.987 2.604-4.506 3.755-1.171.535-3.326-.075-3.326-.075m-26.275-20.782c-1.74-2.795-4.004-7.225-3.583-10.813.346-2.929 2.064-4.549 3.738-5.44 1.757-.935 3.541-.45 3.541-.45s-1.566.783-3.047 1.606c-1.348.75-2.686 2.08-2.964 4.433-.37 3.14 1.69 7.201 3.323 9.852 1.001 1.627 1.319 3.174 1.319 3.174s-1.359-.805-2.327-2.362" style="fill:#756620;fill-opacity:1;fill-rule:nonzero;stroke:none"></path><path d="m416.452 616.383-8 3.683a1.6 1.6 0 0 0-.837.915 1.76 1.76 0 0 0 .06 1.36v.001c.202.437.555.767.996.93.41.151.85.137 1.238-.043l8-3.683a1.6 1.6 0 0 0 .838-.915c.164-.44.143-.923-.06-1.36-.401-.873-1.404-1.271-2.235-.888m-4.769-10.359-8 3.684c-.389.18-.686.504-.838.916-.163.44-.142.923.06 1.36.4.872 1.404 1.27 2.236.888l7.998-3.684a1.6 1.6 0 0 0 .838-.915c.163-.44.142-.923-.06-1.36a1.76 1.76 0 0 0-.996-.93 1.6 1.6 0 0 0-1.238.041m-87.211 39.326c.344.269.77.388 1.194.336l8.739-1.082c.907-.112 1.55-.979 1.433-1.932-.118-.953-.953-1.636-1.861-1.525l-8.738 1.082c-.908.113-1.55.98-1.433 1.932.06.478.295.9.666 1.189" style="fill:#42499d;fill-opacity:1;fill-rule:nonzero;stroke:none"></path><path d="M119.216 608.494c4.86 3.07 10.306 6.19 17.14 9.82 45.618 24.236 97.626 37.046 150.403 37.046 52.778 0 104.787-12.81 150.403-37.046 6.837-3.63 12.283-6.751 17.14-9.82l-.03-.152q-1.07-1.683-2.1-3.314l-.305.023-25.354 2.517 1.651-2.295 12.736-17.706.196-.236c-1.014-1.64-1.805-2.92-2.324-3.765l-.319.19q-.925.646-2.04 1.3c-6.937 4.076-12.324 7.06-17.469 9.674-40.268 20.462-85.977 31.278-132.185 31.278s-91.916-10.816-132.185-31.278c-5.147-2.616-10.533-5.6-17.468-9.673a31 31 0 0 1-1.914-1.215l-.44-.283c-.518.842-1.308 2.125-2.322 3.763l.211.274 14.365 19.972-2.813-.279-22.484-2.233-.425.071q-.921 1.459-1.876 2.96zm167.011 42.654-23.452-10.75 23.984-10.995 23.985 10.995-23.985 10.994zm-86.326-12.511-19.655-16.71 26.066-4.075 20.102 17.088-26.067 4.075zm-37.36-13.09-8-3.683a4.15 4.15 0 0 1-2.164-2.348 4.3 4.3 0 0 1 .136-3.313c.99-2.15 3.512-3.109 5.62-2.138l8 3.684a4.14 4.14 0 0 1 2.165 2.349 4.3 4.3 0 0 1-.136 3.311 4.3 4.3 0 0 1-2.43 2.257 4.14 4.14 0 0 1-3.191-.118m4.77-10.358-7.999-3.684a4.14 4.14 0 0 1-2.164-2.348c-.4-1.08-.35-2.256.136-3.312a4.3 4.3 0 0 1 2.43-2.258 4.14 4.14 0 0 1 3.19.119l7.998 3.683a4.14 4.14 0 0 1 2.166 2.348 4.3 4.3 0 0 1-.135 3.313c-.99 2.15-3.513 3.11-5.622 2.139m80.23 33.03-8.742-1.083c-2.303-.286-3.942-2.43-3.653-4.778.292-2.35 2.404-4.03 4.708-3.745l8.74 1.083c2.126.263 3.684 2.107 3.684 4.237q0 .268-.033.54a4.3 4.3 0 0 1-1.628 2.888 4.15 4.15 0 0 1-3.076.857m1.4-11.317-8.74-1.083a4.14 4.14 0 0 1-2.776-1.58 4.3 4.3 0 0 1-.876-3.198 4.3 4.3 0 0 1 1.63-2.89 4.15 4.15 0 0 1 3.077-.854l8.739 1.082c1.1.136 2.087.697 2.776 1.58a4.3 4.3 0 0 1 .876 3.198c-.292 2.348-2.403 4.029-4.706 3.745m123.653 2.023-25.49-3.985 20.102-17.088 26.066 4.074-20.1 17.09zm35.192-13.26a4.3 4.3 0 0 1-2.43-2.257 4.3 4.3 0 0 1-.137-3.311 4.14 4.14 0 0 1 2.167-2.35l7.999-3.683c2.11-.972 4.632-.01 5.62 2.138a4.3 4.3 0 0 1 .136 3.312 4.14 4.14 0 0 1-2.164 2.35l-8 3.683a4.14 4.14 0 0 1-3.191.118m-7.2-12.615a4.3 4.3 0 0 1-.403-1.822c0-.502.088-1.006.268-1.49a4.14 4.14 0 0 1 2.166-2.349l7.998-3.683a4.14 4.14 0 0 1 3.19-.119 4.3 4.3 0 0 1 2.43 2.258 4.3 4.3 0 0 1 .137 3.311 4.15 4.15 0 0 1-2.166 2.35l-7.999 3.683c-2.11.97-4.63.013-5.62-2.139m-77.685 34.31a4.3 4.3 0 0 1-1.629-2.887c-.29-2.348 1.349-4.492 3.652-4.777l8.739-1.082c2.305-.285 4.416 1.395 4.707 3.744s-1.348 4.492-3.652 4.778l-8.74 1.082a4.14 4.14 0 0 1-3.077-.858m-3.03-14.203a4.3 4.3 0 0 1 .876-3.198 4.15 4.15 0 0 1 2.777-1.58l8.74-1.081a4.14 4.14 0 0 1 3.074.854 4.3 4.3 0 0 1 1.63 2.89 4.3 4.3 0 0 1-.875 3.198 4.15 4.15 0 0 1-2.778 1.58l-8.737 1.082c-2.305.284-4.416-1.396-4.708-3.744z" style="fill:#756620;fill-opacity:1;fill-rule:nonzero;stroke:none"></path><path d="m324.265 634.368 8.738-1.082a1.6 1.6 0 0 0 1.079-.617c.287-.37.413-.836.354-1.313a1.77 1.77 0 0 0-.666-1.191 1.6 1.6 0 0 0-1.192-.335l-8.74 1.082a1.62 1.62 0 0 0-1.078.617 1.76 1.76 0 0 0-.356 1.313c.118.953.953 1.638 1.861 1.526" style="fill:#42499d;fill-opacity:1;fill-rule:nonzero;stroke:none"></path><path d="M140.256 303.243c-.58.322-.981.855-1.158 1.54-.308 1.196.073 2.742 1.08 4.348 1.86 2.976 6.548 5.086 12.233 5.507l.566.041c5.516.407 8.556.63 10.966 3.73.85 1.092 2.38 2.402 3.892 2.497.783.049 1.477-.241 2.121-.885.756-.756 1.172-1.884 1.172-3.144q0-.239-.02-.482c-.106-1.282-.599-2.267-1.032-2.575-4.805-3.435-9.158-5.186-13.308-5.353-6-.24-9.337-1.318-11.517-3.717-1.716-1.888-3.397-2.395-4.995-1.507" style="fill:#756620;fill-opacity:1;fill-rule:nonzero;stroke:none"></path><path d="M417.375 317.115c7.535 36.988 14.065 66.07 18.229 84.007a7760 7760 0 0 0-12.627-84.487l-.06-.259q-.819.108-1.668.172l-.566.04c-1.27.095-2.374.175-3.345.279z" style="fill:#75796b;fill-opacity:1;fill-rule:nonzero;stroke:none"></path><path d="M415.231 306.668q.723-.085 1.442-.113c1.806-.072 3.34-.22 4.647-.457l-.028-.236q-.526-3.343-1.06-6.71c-1.187-7.504-2.572-11.696-4.23-12.815-.423-.284-.859-.355-1.415-.227-1.102.254-1.978.83-1.978 3.916 0 2.102.406 5.369 1.425 10.493q.596 2.995 1.185 5.931z" style="fill:#756620;fill-opacity:1;fill-rule:nonzero;stroke:none"></path><path d="M405.683 320.906c1.512-.095 3.043-1.405 3.893-2.498 2.41-3.099 5.448-3.322 10.966-3.727l.566-.043c5.685-.42 10.372-2.53 12.233-5.507 1.004-1.608 1.388-3.152 1.079-4.348-.176-.685-.577-1.218-1.158-1.54-1.598-.888-3.28-.38-4.995 1.507-2.18 2.4-5.517 3.476-11.517 3.717-4.148.167-8.501 1.916-13.307 5.353-.434.308-.927 1.293-1.033 2.575q-.02.244-.02.482c0 1.26.416 2.388 1.172 3.144.645.644 1.338.934 2.12.885M223.22 235.81c-2.596 2.569-3.638 6.695-3.638 10.987 0 2.661.4 5.386 1.08 7.844 1.164 4.225 3.518 6.672 5.013 7.874.068-3.77.563-7.498 1.57-11.094 2.207-7.884 6.96-11.86 9.332-13.416l-.066-.069c-4.588-2.672-9.566-2.687-13.086-2.172z" style="fill:#756620;fill-opacity:1;fill-rule:nonzero;stroke:none"></path><path d="M264.308 247.302c-1.001-2.873-4.462-11.166-12.997-17.508-6.277-4.665-12.013-6.753-15.803-7.7-1.134.218-4.872 1.145-8.24 4.45-2.906 2.853-3.42 5.85-3.498 7.31 3.792-.48 8.87-.388 13.705 2.427 8.044 4.684 10.421 11.384 10.955 13.294 1.711.628 9.2 2.898 15.878-2.273" style="fill:#756620;fill-opacity:1;fill-rule:nonzero;stroke:none"></path><path d="M252.453 228.258c8.346 6.202 12.054 14.054 13.411 17.675.311-.308.627-.6.931-.948 3.04-3.463 5.144-7.38 6.272-11.642-.071-.911-1.038-9.031-13.096-14.013-9.67-3.996-18.401-.46-22.058 1.474 3.865 1.174 8.974 3.32 14.54 7.454" style="fill:#756620;fill-opacity:1;fill-rule:nonzero;stroke:none"></path><path d="M187.435 387.537c-2.573-10.806-5.105-11.486-5.105-11.486 3.51 16.75 2.233 34.298 2.872 46.262 1.029 19.298 7.246 29.671 17.707 38.444 9.89 8.296 27.278 9.572 33.659 6.7 6.38-2.871 8.933-5.582 8.933-5.582s-.638-1.118-1.383-2.5c-2.503-4.649-.106-8.508-.106-8.508s-1.222-.596-2.63-1.52c0 0-3.356 2.867-9.122 5.03-6.38 2.393-16.766 2.41-25.523-5.743-4.626-4.307-9.412-9.093-11.166-21.855 0 0 .08-.279.279-.558.199-.28.654-.901.144-1.49-1.122-1.293-3.055-3.774-3.933-6.406 0 0 .107-.197.292-.465s.514-1.44.168-2.262c-.799-1.893-2.151-5.24-2.375-6.685-.318-2.074.01-7.184-.159-10.369-.478-9.092-1.755-7.657-2.552-11.007" style="fill:#75796b;fill-opacity:1;fill-rule:nonzero;stroke:none"></path><path d="M332.28 457.142c-9.473-4.443-10.953-12.23-9.677-24.78 1.276-12.549-.533-17.972-5.318-24.033-4.91-6.221-12.23-3.829-15.314-.852-3.085 2.977-1.701 5.85-1.701 5.85 5.531-2.341 9.572-.85 12.017 3.722 4.11 7.687 1.17 15.473.213 27.437-.958 11.964 7.019 22.493 14.835 26.162 13.305 6.245 30.947.319 42.752-13.081 12.62-14.324 14.676-39.083 15.155-56.949.397-14.844 2.392-21.854 2.392-21.854-2.073 1.755-3.828 5.424-3.828 5.424s-1.313-12.006 1.755-24.408c3.668-14.835 6.54-21.216 6.54-21.216-6.7 2.233-10.37 3.829-15.474 11.007-5.105 7.179-2.553 16.59-4.148 8.454s5.424-14.356 5.424-14.356c-1.914-.319-3.19-2.712-2.233-7.976s4.307-14.836 4.307-14.836-2.393 13.081-2.552 15.793.798 6.54 2.552 5.104 3.03-1.914 3.03-1.914c2.075-11.325 4.468-22.811 11.008-39.72 6.54-16.91 9.73-24.407 9.73-24.407-7.656 3.828-13.878 9.73-19.301 17.706-5.424 7.977-7.976 12.762-11.326 20.58-3.35 7.815-.16-2.075 1.595-7.02s3.35-8.774 4.307-13.878-2.711-1.436-7.019 4.307c-4.307 5.742-9.252 12.283-12.442 20.418s-5.265 15.474-5.265 14.038 1.117-7.018 4.626-17.069c3.51-10.049-6.54 5.584-13.08 17.867s-10.21 23.769-10.21 23.769.16-4.946.957-8.934c.798-3.988-.318-3.03-4.307-.638-3.987 2.393-6.221 7.976-7.975 13.08-1.755 5.106-3.83 14.358-2.554 3.67s11.327-37.648 22.015-56.311c15.831-27.645 22.492-37.966 32.223-49.611 8.594-10.286 14.198-15.474 14.198-15.474s-3.35-.318-8.136 2.233c-4.786 2.553-13.878 9.412-18.824 14.198-4.945 4.786-3.987 3.35-2.233.797s2.552-6.38 2.552-6.38c-6.54 2.871-14.357 10.05-18.185 14.835-3.829 4.786-5.264 5.902-4.307 2.393s.797-7.338.797-7.338-4.945 3.988-9.092 8.614-1.595 5.265.32 5.584c1.913.319.318 4.306.318 8.613s2.552 3.51 2.552 3.51-3.51 3.67-4.466 7.179c-.957 3.508-1.915 4.626-1.595 1.276.319-3.35 2.711-5.424 2.552-12.124-.16-6.7-4.945-8.773-4.945-8.773 2.073-1.915.637-5.105-.638-7.658-1.276-2.551-2.233-.957-3.191 0s-1.436 10.21-1.276 17.389c.16 7.177-1.754-2.394-2.234-7.977-.478-5.583-.159-8.773 1.117-10.369 1.277-1.594 1.755-3.35 1.915-10.847.159-7.498.478-18.026.478-20.26 0-2.233-3.51-2.233-4.307-.478-.797 1.754-.479 8.136-1.276 19.621-.798 11.485-.958 13.878-.958 13.878s-1.116-3.35-3.35-.957-4.785 6.86-4.785 6.86c-3.988-5.583-4.466-.638-5.104 6.062s-1.117 4.467-3.35 9.73c-2.234 5.265-5.743 14.676-11.008 24.726s-6.22 8.615-6.061 3.51 1.914-6.7 2.074-3.989c.16 2.713 1.275.638 7.019-9.41 5.742-10.051 3.669-12.603 1.594-13.242-2.073-.637-3.03.32-7.018 3.35s-10.848 6.86-10.848 6.86c0-2.871-1.435-4.785-1.435-4.785-3.83 2.87-5.265 7.018-5.265 7.018-2.87-3.03-4.466-2.392-4.466-2.392s-2.552 2.392-4.147 4.306-1.436 5.743-.32 10.849c1.117 5.104-.957 1.594-1.914-1.596s-1.595-6.381-3.031-9.093-2.074-5.423-2.074-5.423-4.307.797-5.104 2.233c-.798 1.435 1.116 5.104-1.117 3.509s-.638-7.178-.16-12.762c.479-5.583 1.755-6.859 1.755-10.687 0-3.829-.478-5.743-1.914-5.743s-3.51.638-3.031 2.233.319 4.307-.16 10.528c-.478 6.221-.956 13.081-.956 13.081s-.639-7.338-2.074-5.742c-1.436 1.595-1.755 6.858-1.755 6.858s-.638-.956-.478-4.466c.159-3.51-3.51.16-4.787 4.786-1.275 4.626.16 8.933.16 8.933-.797-3.51-2.233-4.467-3.19-.16-.958 4.307-.638 11.646.957 15.953 1.316 3.555 3.828 1.914 4.147 4.147s2.074 3.988 4.786 4.786 7.657-.798 11.007-.957c3.35-.16 4.945-2.234 6.522.498.37.644 1.233.848 1.932.459 1.436-.798 3.032-3.19 3.032-3.19-.479.797-1.596 7.656.318 7.656s2.712-3.669 2.712-3.669.638 5.584-2.87 9.412c-3.51 3.829-2.393 6.86-4.308 10.05-1.914 3.19-3.988 6.381-4.467 16.112s1.436 19.142 5.583 30.787 2.872 18.664.48 22.014c-2.394 3.35-3.35 8.295-3.35 8.295-4.041.531-5.531-1.01-9.04-1.808-3.51-.798-4.998 1.01-4.998 1.01 2.233 2.234 3.988 5.265 3.988 5.265-4.786-3.031-8.934-5.264-8.934-5.264-1.594 4.307-.638 7.338 2.234 10.05 2.87 2.711 5.742 3.668 5.742 3.668-3.03 9.412 1.914 11.008 11.167 16.59 9.252 5.584 10.687 12.762 10.687 12.762s3.828-3.03 1.49-12.176c0 0 7.445-4.148 14.038-9.04s8.082-7.976 8.082-7.976-2.02-.426-6.7-1.276c0 0 4.042-2.871 10.528-8.933s8.19-9.997 8.19-9.997-2.234-.53-5-.106c0 0 2.233-2.765 4.254-7.55 2.021-4.787 3.51-7.765.958-7.871-2.553-.106-5.317 1.382-5.317 1.382s-2.022-5.635 1.063-9.676 8.72-4.68 8.72-4.68 2.34-1.808 4.042-5.106c1.7-3.296 3.51-5.316 1.808-1.487-1.703 3.828-2.765 6.806-.957 7.443 1.807.639 2.126-.32 2.764-3.084s2.022-7.125 4.574-9.996 1.913-1.49.85 1.382-.531 6.488 2.34 11.274 3.934 5.422 1.808-.745c-2.127-6.168-1.702-9.784-.745-11.273.957-1.49 2.126-.532 2.34-2.872s2.552-10.209 1.808-5.104-1.382 11.272.851 16.271.638 3.83-.851-.106c-1.49-3.936-2.235-7.55-2.766-7.232-.53.319-1.488 2.766.214 8.934 1.7 6.167 3.297 11.166 2.127 10.847s-3.19-3.19-5.743-7.763c-2.552-4.574-3.509-8.19-4.148-6.807-.637 1.383-2.658 6.592-.318 9.252s5.635 7.764 6.592 14.89c.957 7.124-.745 15.632-.638 20.204s.425 11.702 9.998 15.846c7.124 3.085 11.591 2.127 17.44.426 3.867-1.125 14.19-7.732 17.974-15.527 3.51-7.231 5.74-16.485 7.55-24.886 1.808-8.4 2.87-12.761 2.445-8.4-.424 4.36-1.594 13.717-4.466 23.076s-5.44 15.29-13.72 21.802c-7.975 6.274-17.333 9.68-29.35 4.042m-78.273-.213c-2.01-2.146-1.276-3.616-1.276-3.616s1.808.32 2.978 1.701c1.17 1.383.745 3.403.745 3.403s-.851.214-2.447-1.488m76.464-7.764c-2.764-1.842-2.022-3.51 0-4.467s2.872-.957 2.872-7.338c0-6.38.744-9.995.744-12.654s-1.277-4.786.532-3.51 2.02-1.49.745-4.041c-1.277-2.553-1.914-4.68-.213-3.085s3.51.32 2.233-2.871-1.596-7.233.106-6.806 2.552-2.764 2.87-5.955c.32-3.19-.956-12.125.32-6.807s1.382 7.977 3.51 3.617c2.127-4.36 3.296-7.87 6.38-2.447 3.085 5.424 3.085 8.721 3.085 8.721s2.977-4.787 7.445-12.124c4.466-7.338 7.337-7.975 8.932-4.36 1.596 3.616 1.277 15.952 1.277 15.952s1.064-2.339 4.041-5.742 4.149-5.211 4.36-.639c.212 4.573-.318 9.997-5.956 16.697 0 0 1.17.957.639 4.68-.532 3.722-1.915 4.36-1.915 4.36s1.278 2.657.533 4.997c-.745 2.341-2.871 3.51-2.871 3.51s1.807 1.915.743 3.723c-1.062 1.808-2.551 2.233-2.551 2.233s1.489 1.914.637 3.51c-.851 1.595-2.127 1.701-2.127 1.701s.531 2.02-2.552 4.466-7.446 3.936-4.786 2.446 5.53-4.145 5.637-5.53c.106-1.382-.32-2.128-2.234-2.34s-2.554.64-3.722 2.34c-1.169 1.702-3.297 3.085-2.02-.318 1.276-3.404 2.127-7.976 3.403-12.656s1.596-5.53 1.596-2.871c0 2.658 2.656 3.189 4.678 2.658 2.021-.53 4.147-1.594 4.786-3.402s.533-3.19-3.722-3.19c-4.254 0-5.956-.108-1.489-.746 4.466-.638 5.956-2.126 6.274-4.892.32-2.765-.105-3.722-4.147-3.509s-5.105-1.169-1.489-1.382c3.615-.213 6.382-.958 8.508-4.785 2.126-3.829 2.445-8.084 2.445-9.466s-.85-1.488-3.296 1.808-5.105 6.806-5.105 6.806.214-5.105-.106-10.316c-.319-5.211-.957-8.933-2.233-9.253-1.276-.319-6.062 5.743-9.252 11.805s-5.21 13.825-6.7 20.418c-1.49 6.595-2.872 9.678-1.703 4.148 1.17-5.529 2.234-13.08 2.447-17.653s-.957-8.508-2.553-10.741c-1.595-2.234-2.763-.108-4.572 2.87-1.809 2.98-4.468 7.231-4.893 8.296s-2.978.32-1.595 4.467 1.172 5.743-.212 6.062-2.235.212-1.383 2.66c.851 2.445.746 5.104-.531 5.423s-.957 2.977-.957 7.976 1.7 8.933 4.678 12.442 5.743 6.594 9.252 6.7 7.871-.213 4.255 1.277c-3.616 1.488-6.275 2.126-10.104.424-3.828-1.7-3.403-3.402-5.317-5.849s-2.871-2.87-3.296-.319-2.447 4.145-4.36 2.87m33.712-10.951c-3.726-.151-4.147-.639-3.935-1.49.211-.85-.213-1.064 2.977-1.17s3.51 0 3.83 1.277c.318 1.275-.214 1.49-2.872 1.383m2.233-4.574c-4.018.482-5.105-.427-4.786-1.915s1.275-1.912 3.935-1.807c2.66.106 3.616-.211 3.722.958s-.213 2.444-2.871 2.764m-12.124-41.582c.13-2.34.746-5.848 3.085-8.933s2.871-6.169 3.296-8.508c.426-2.34 0-3.296.957.32.957 3.614.427 4.998-2.339 8.613-2.765 3.616-5.105 10.423-4.999 8.508m20.525-1.595c-1.457.91-1.49-2.126-.957-7.657.532-5.53 2.233-11.38 2.552-8.189.319 3.19-.742 10.103-.53 12.443s-.215 2.872-1.065 3.403m-16.59-36.37c.211-1.383-.958-3.617-.744-7.765s3.19-9.145 6.38-12.868c3.191-3.722 6.594-7.018 6.806-6.167.212.85-4.04 5.104-8.188 11.485-4.147 6.38-2.66 12.016-2.66 12.016s1.596-4.04 5.105-8.825c3.51-4.786 4.361-4.255 5-2.552.637 1.701.424 6.806.743 11.485.319 4.68-.744-1.383-.957-5.956-.213-4.572-.425-5-1.701-3.829s-4.041 4.148-7.338 12.443-3.51 18.718-4.254 18.504c-1.33-.38.851-7.869-2.552-14.143s-6.807-10.848-7.87-5.318-3.51 17.44-3.829 21.482-1.275 4.04-3.19-.957c-1.914-4.998-2.553-10.847-5.636-5.636s-2.978 9.466-2.978 10.529-.32-.214-2.128-1.17c-1.807-.958-1.702-2.128-.319-1.596s1.809-4.785 4.68-8.72c2.872-3.936 4.573-3.086 5.53-1.064s2.127 7.764 2.127 7.764.533-6.064 1.914-12.231c1.383-6.168 3.297-12.229 4.787-12.336s6.168 2.659 9.676 10.848c0 0 1.384-4.041 1.596-5.424m-8.507-79.23c-1.783 1.835-1.063.746 1.595-2.445s6.062-9.572 6.381-8.72c.32.85-4.36 7.443-7.976 11.165m-31.904 53.494c-2.778 1.39 1.382-3.086 1.7-5.531.32-2.445 2.022-4.042 2.766-7.02.744-2.976 2.127-2.763 1.595-.53s-2.659 4.998-3.297 8.188-.85 3.935-2.764 4.893m12.229-25.737c1.408 2.256.425 4.15.425 6.913s2.977.212 5.743-2.659c2.765-2.872 2.021-.424-.531 2.34s-6.062 4.68-6.594 8.933-3.617 7.552-3.403 11.167c.212 3.615-1.17 6.062-3.403 8.933s-4.468 4.148-2.66.638c1.809-3.51 4.254-6.38 4.148-10.528s1.808-7.869 2.871-9.677c1.065-1.809 1.81-3.83 2.34-8.296.532-4.466-.849-8.933-1.594-9.89s1.595.424 2.658 2.126m-51.153 15.633c-.28-3.498 1.383-6.273 3.829-8.72 2.444-2.447 7.338-8.296 8.295-9.784s2.126-1.49-.213 1.595-4.042 5.424-6.913 7.976c-2.871 2.553-4.147 4.36-4.147 7.976 0 3.617-.637 3.616-.851.957m32.543 60.618c-6.062-2.233-8.615-3.828-6.062-3.296s6.7 2.764 10.634 3.721 2.658-2.444.425-2.764-5.53-1.914-9.252-5.212-3.19-6.062-.957-2.658c2.233 3.403 7.445 5.849 10.317 6.486 2.871.639.637-2.977-2.341-4.997s-1.701-6.38-.212-9.997 1.7-9.039 1.488-14.888c-.213-5.848.852-3.723 1.276 2.871s0 10.422-1.595 14.463c-1.595 4.042.213 7.02 1.17 7.338s1.49-1.808 2.128-5.21 1.7-1.703 1.381 3.296-.098 9.092.426 11.272c.638 2.659-2.764 1.809-8.826-.425m-45.836 52.961c.712-1.661 3.828-7.23 3.828-5.21s-2.02 3.19-3.51 5.636-.957 1.063-.318-.426m19.886-11.166c2.34-3.404 4.253-7.551 4.786-11.485.532-3.935 2.02 1.063.532 5.423s-6.488 9.89-6.488 9.89 1.276-.213 4.68.425 3.828 2.872.106 6.17-10.741 7.338-11.592 7.763c-.85.424 3.296-2.766 7.762-6.062 4.467-3.297 6.276-5.424 4.467-6.487-1.808-1.063-6.273-.746-6.273-.746-2.234 0-.319-1.488 2.02-4.891m-8.508-11.698c1.914-5.104 2.021-6.7 2.021-9.784s1.382-3.296.745 2.02c-.64 5.317-3.15 11.653-3.935 14.358-.957 3.295-.745-1.489 1.169-6.594m-9.57-22.44c-1.065-6.062.106-10.421 1.276-13.718s1.488-2.02.637 2.233c-.85 4.253-1.489 7.445.213 15.846 1.433 7.076-1.063 1.701-2.127-4.36m9.04 2.978c-.12-2.872-.534-11.166.531-14.57s1.064-2.977.532 2.127c-.532 5.105-.32 9.997-.213 13.187s-.637 4.36-.85-.744m-2.447-21.908c-.05-2.233-.743-10.634.958-12.868s3.51-5.53 3.722-7.657 1.382.32-.213 3.19c-1.595 2.872-3.615 5.742-3.403 10.74.212 5-.958 11.275-1.064 6.595m-11.06 8.72c.125-2.992 1.277-7.019 3.51-9.571 2.234-2.553 2.021-1.595.425.957s-2.66 5.53-3.084 8.083c-.425 2.553-.957 3.083-.85.53m8.4-35.625c1.304-2.7 2.978-4.254 4.574-5.317s3.084-1.597-.851 2.02-5.21 6.382-3.722 3.297m3.296-28.182c.335-2.566 2.127-4.467 3.616-6.062s2.071-1.266-.106 1.384c-2.447 2.976-3.829 7.123-3.51 4.678m-36.051 9.997c-.543-1.738-1.383-9.147.319-11.273 1.701-2.127-.32.319-.213 4.466s.425 8.51-.106 6.807" style="fill:#75796b;fill-opacity:1;fill-rule:nonzero;stroke:none"></path><path d="M247.096 429.703c3.79-1.384 7.657.745 7.657.745 3.616-3.296 5.211-10.528 3.829-16.803s-4.68-15.527-6.807-23.184-3.934-8.082-8.401-8.4c-4.467-.32-4.254-1.809-2.233-2.128s.743-2.553-.957-6.063c-1.702-3.509-2.021-2.233-2.233-.956-.213 1.276-.214 3.509-1.277 4.892s-1.701-.426-.745-5.317c.958-4.892 2.446-3.83 5.106 1.489 2.658 5.318 3.403 5.848 5.423 5.848s.531-7.124-2.233-14.675-8.509-14.89-10.423-15.953-2.977-1.17-2.34 2.658c.64 3.83 2.766 7.127 2.766 7.127s-1.915-2.34-3.616-6.062c-1.702-3.721-2.552-10.528-6.062-19.143-3.51-8.613-12.443-19.78-12.443-19.78.106 3.085-1.276 14.888-1.276 14.888s-2.34-14.676-6.38-23.502c-4.042-8.826-11.592-17.229-11.592-17.229-.107 3.085-.426 12.443-.426 12.443s-7.338-13.825-13.932-20.42c-6.592-6.593-15.42-9.464-15.42-9.464s6.7 10.955 13.187 30.309c6.488 19.354 9.89 40.307 9.89 40.307-1.381-.85-6.274-1.064-6.274-1.064 6.062 14.25 6.062 28.607 7.232 36.158s3.084 13.4 4.253 16.377c1.17 2.978.852 6.595 3.404 10.316s9.677 13.506 9.677 13.506-3.084-3.509-6.38-7.231c-3.298-3.723-5.53-5.744-5.956-4.786-.426.957-.426 4.041 2.553 9.252 2.977 5.21 12.761 11.06 12.761 11.06-4.36-1.809-11.38-6.487-12.761-6.381-1.384.106.957 3.084 5.317 8.295 4.36 5.21 11.06 10.209 11.06 10.209-6.7-2.552-11.06-8.614-12.655-8.614-1.596 0 .85 8.827 7.338 15.846 5.388 5.83 7.656 5.85 9.996 6.275s2.872-.745 3.829.425 5.105 2.127 10.103.213 7.976-5.318 7.976-5.318a9 9 0 0 1-.553-1.141c-1.98-4.93.766-10.237.766-10.237s.729.351 2.446 1.488c0 0 1.275-4.255 6.806-6.275m-13.507 1.702c-3.61 2.134-9.251 3.296-5.742 1.807s7.976-3.826 9.677-7.869c1.703-4.041 1.808-7.445 2.872-6.168 1.064 1.276-.319 4.89-1.489 6.38s-.956 2.022 1.277 1.703 2.977.638.424 1.063c-2.551.425-4.68 1.702-7.019 3.084m-3.722 7.125c.958-1.489 2.128-1.808 1.064.32-1.063 2.127-4.679 3.084-9.252 3.615-4.573.53-2.262-.26 1.808-.957 3.722-.638 5.424-1.488 6.38-2.978m17.23-19.461c-2.564-4.699-5-15.103-7.551-17.547-2.553-2.446-6.062-7.656-2.872-4.36 3.19 3.297 4.679 3.933 2.977-2.66-1.7-6.592-2.658-9.146-3.722-10.847-1.063-1.701-.531-2.445 1.277.213s4.254 8.19 5.636 15.846 3.296 12.762 4.785 17.016 2.021 7.017-.53 2.339m-14.358-.212c-.426-2.234-2.127-7.764-3.935-11.38-1.808-3.615-6.381-9.252-9.572-13.08-3.19-3.83-3.828-3.724-3.721-.852s.531 9.36-.213 15.528-1.914 5.423-2.765 3.403-2.127-8.295-4.36-13.719-5.318-11.486-7.338-14.995c-2.021-3.51 2.871.957 5.53 7.02 2.659 6.06 3.615 8.614 3.615 7.443 0-1.17-.105-6.275-.743-9.996-.639-3.721 1.063-.638 2.977 9.358s1.702 1.914 1.702-4.253c0-6.168.531-5.105 2.126-3.723s6.168 6.062 9.678 10.103c3.51 4.042 4.36 6.274 4.254 3.616s-1.702-9.785-2.978-12.976c-1.276-3.19-1.276-4.358 2.552 3.618 3.83 7.976 3.617 16.153 3.617 21.482 0 4.253 0 5.636-.426 3.403m19.036 3.402c.74-1.48 1.595-6.38 1.276-11.697-.32-5.318-.532-8.721.32-3.298.85 5.424.85 8.721-.106 12.656-.958 3.934-2.341 4.04-1.49 2.339m-22.546-58.703c-1.701-1.703-2.34-1.914-1.169-1.489 1.17.426 3.294 2.3 4.998 4.998 1.276 2.02-2.127-1.807-3.829-3.51m-7.975-7.23c-2.127-2.234-5.637-4.469-6.275-.745-.638 3.722-.532 8.295-2.659 4.36s-4.254-4.253-8.614-9.571-6.487-10.953-6.062-2.872c.426 8.083.319 11.061-2.02 12.975s-3.616 1.17-1.383-2.022c2.234-3.19 2.552-6.699 2.659-12.123s-1.064-6.699 1.702-4.678c2.764 2.02 4.466 6.167 7.976 9.358 3.508 3.19 5.742 5.53 5.742 5.53s1.927-5.072 3.403-4.786c3.297.638 8.524 7.717 5.53 4.573" style="fill:#75796b;fill-opacity:1;fill-rule:nonzero;stroke:none"></path><path d="M490.705 660.457a7.4 7.4 0 0 0-1.47 3.166q-.147.743-.147 1.481c0 1.45.425 2.867 1.246 4.101a7.4 7.4 0 0 0 4.729 3.176 7.38 7.38 0 0 0 5.582-1.099 7.5 7.5 0 0 0 1.301-1.093l.149-.132a93 93 0 0 0 4.497 3.233l-.13.125a13 13 0 0 1-2.758 2.467 12.88 12.88 0 0 1-9.734 1.914 12.88 12.88 0 0 1-8.235-5.532 12.87 12.87 0 0 1-1.912-9.734 12.86 12.86 0 0 1 3.002-6.042l.218-.233q.532.612 1.005 1.113 1.394 1.472 2.823 2.884z" style="fill:#756620;fill-opacity:1;fill-rule:nonzero;stroke:none"></path><path d="M491.617 661.363a6.16 6.16 0 0 0-1.13 2.512 6.12 6.12 0 0 0 .91 4.624 6.13 6.13 0 0 0 3.916 2.63 6.12 6.12 0 0 0 4.625-.91q.515-.341.944-.768l.153-.213a118 118 0 0 1-9.237-8.078zm-30.984-195.077c3.52-.598 7.555-.006 11.605 2.282 5.517 3.119 9.32 7.953 10.711 13.612.41 1.664.614 3.368.614 5.097 0 4.201-1.2 8.553-3.558 12.865-2.277 3.865-3.624 4.643-5.772 6.157-3.97 2.637-10.501 5.186-19.2 2.524l.154-.412 15.461-24.914-2.779.462c-.076.012-7.607 1.207-11.755-2.94-3.069-3.07-3.373-6.024-3.086-7.963.204-1.38.716-2.732 1.613-3.728 1.109-1.232 2.314-2.246 5.992-3.042" style="fill:#756620;fill-opacity:1;fill-rule:nonzero;stroke:none"></path><path d="m450.124 474.186-12.39 19.963-.16.337a26 26 0 0 0 3.074 4.994l.243-.276c2.57-4.081 8.795-13.832 9.215-13.242.427.597-5.43 10.889-7.773 14.956l-.156.32a24 24 0 0 0 3.931 3.303l.226-.397c2.23-3.91 7.836-13.61 8.347-13.184.507.424-4.738 10.258-6.879 14.217l-.107.355a37 37 0 0 0 4.81 2.39l.184-.327 12.982-20.916c-3.007.055-7.949-.443-11.362-3.856-2.66-2.658-4.021-5.812-3.91-8.99zm-335.48-7.487c-3.922-1.098-8.623-.809-13.36 1.87-5.518 3.118-9.323 7.952-10.714 13.611a21.3 21.3 0 0 0-.611 5.096c0 3.968 1.07 8.07 3.176 12.15 1.573 2.884 2.523 4.03 4.112 5.35 3.556 2.95 10.883 7.25 21.335 4.017l-.283-.44-13.942-22.463-1.486-2.394 2.78.463c.077.012 7.609 1.207 11.756-2.94 3.07-3.07 3.372-6.025 3.086-7.964a7.9 7.9 0 0 0-1.135-3.055c-.89-1.214-2.006-2.542-4.714-3.301" style="fill:#756620;fill-opacity:1;fill-rule:nonzero;stroke:none"></path><path d="M123.128 474.316c-.037 3.013-1.392 5.984-3.916 8.507-3.413 3.413-8.355 3.911-11.362 3.856l13.004 20.95.205.276a37 37 0 0 0 4.833-2.413l-.152-.274c-2.127-3.932-7.41-13.832-6.899-14.258.5-.418 5.907 8.913 8.217 12.957l.357.624a24 24 0 0 0 3.933-3.306l-.205-.393c-2.372-4.118-8.153-14.287-7.729-14.88.424-.595 6.738 9.307 9.274 13.332l.168.208a26 26 0 0 0 3.098-5.033l-.162-.312-12.692-20.45zm28.851 97.345c35.733 25.187 89.194 39.033 134.78 39.033 45.44 0 98.707-13.758 134.438-38.792l.421-.243c-11.773-3.996-32.421-10.229-55.84-13.847l-.435.073c-47.601 9.297-77.292 45.7-77.59 46.07l-.995 1.24-.995-1.24c-.299-.372-30.189-37.025-78.078-46.166l-.576.121c-22.8 3.576-42.91 9.6-54.662 13.563z" style="fill:#756620;fill-opacity:1;fill-rule:nonzero;stroke:none"></path><path d="m442.306 589.982-10.42 14.487 18.337-1.82.405-.066a2188 2188 0 0 1-8.063-12.882z" style="fill:#2fac52;fill-opacity:1;fill-rule:nonzero;stroke:none"></path><path d="m99.343 509.223 35.762 54.388c5.568-2.947 32.665-15.712 72.127-8.503 44.676 8.162 74.081 39.822 79.526 46.085 5.445-6.263 34.855-37.923 79.53-46.085 39.463-7.21 66.56 5.556 72.127 8.503l35.73-54.34-.441.218c-6.013 3.252-15.683 5.404-28.096-2.234-6.6-4.063-11.077-10.807-12.944-19.504-2.854-13.294.792-29.126 5.966-36.749 9.118-13.439 20.63-20.353 34.217-20.554 7.65-.112 12.074.651 14.3 1.23-.267-13.736-4.501-108.668-68.75-206.21C359.029 135.34 293.412 97.41 286.758 93.72c-6.654 3.691-72.266 41.62-131.633 131.75-64.25 97.54-68.483 192.473-68.752 206.208 2.228-.578 6.652-1.341 14.301-1.229 13.587.2 25.1 7.115 34.218 20.554 5.173 7.625 8.82 23.455 5.965 36.75-1.867 8.696-6.343 15.44-12.945 19.503-12.154 7.479-21.678 5.572-27.714 2.435zm24.444 14.014c3.607-1.197 7.232-2.91 10.813-5.113 9.64-5.934 16.118-15.51 18.734-27.693.86-4.001 1.295-8.26 1.295-12.659 0-12.4-3.602-25.72-9.177-33.936-14.298-21.072-31.883-25.84-44.117-26.13l-1.366-.032.125-1.36c2.717-29.412 14.555-106.196 65.689-183.825 48.199-73.175 100.18-110.728 120.292-123.477l.683-.433.683.433c20.113 12.75 72.1 50.303 120.298 123.477 51.133 77.628 62.972 154.413 65.689 183.824l.125 1.361-1.366.033c-12.235.289-29.821 5.057-44.118 26.129-5.574 8.216-9.177 21.537-9.177 33.936 0 4.395.436 8.654 1.294 12.658 2.616 12.185 9.094 21.76 18.735 27.694 3.454 2.125 6.943 3.79 10.422 4.98l.33.157-16.026 24.374-.944-.338c-14.624-5.218-38.414-10.277-68.708-4.743-34.724 6.343-60.695 24.998-76.368 39.53l-.868.804-.867-.804c-15.674-14.533-41.646-33.188-76.367-39.53-30.294-5.534-54.085-.475-68.707 4.743l-.945.338-15.69-23.864z" style="fill:#756620;fill-opacity:1;fill-rule:nonzero;stroke:none"></path><path d="M150.535 316.676a7764 7764 0 0 0-12.62 84.443c4.166-17.945 10.7-47.044 18.238-84.053l.05-.198c-.976-.103-2.087-.184-3.367-.28l-.566-.04a30 30 0 0 1-1.724-.179z" style="fill:#75796b;fill-opacity:1;fill-rule:nonzero;stroke:none"></path><path d="M152.213 306.1c1.304.236 2.832.383 4.633.455q.714.029 1.433.112l.03-.262q.584-2.915 1.175-5.886c1.02-5.124 1.426-8.392 1.426-10.493 0-3.087-.877-3.662-1.978-3.916-.556-.128-.992-.057-1.415.227-1.658 1.119-3.042 5.31-4.232 12.815q-.525 3.31-1.04 6.594zm99.283-37.932c.997 2.014.212 4.015-.04 5.95-.048.367-.015.629.089.806 0 0 .257.012 1.174-.029.917-.04 1.22-.073 1.22-.073 1.1-.38 2.446-.933 3.792-1.236a29 29 0 0 1 3.204-.547s.518-.218 1.296-.616c.777-.399 1.56-.858 1.56-.858.33-.475.86-.932 1.708-1.109 0 0 .6-.426 1.278-.945s.961-.812.961-.812c.317-.66.469-1.258.469-1.258q.101.22.193.479l.066.13c4.015-3.77 5.62-7.763 6.26-10.478l.058-.277a34.9 34.9 0 0 1-8.045 6.527c-5.186 3.055-10.679 4.056-15.316 4.186z" style="fill:#756620;fill-opacity:1;fill-rule:nonzero;stroke:none"></path><path d="M247.655 251.316c-.725.36-2.953 1.812-4.397 6.56l-.084.296a4.5 4.5 0 0 1 1.05-.431s-.212 1.594-.106 3.402c.106 1.807 2.234 3.297 2.234 3.297s1.1-.367 3.389 1.628h.226c4.667.047 10.462-.75 15.802-3.896 3.693-2.174 6.913-5.04 9.572-8.52.008-.013 2.692-3.87 2.543-9.98-.122-4.978-1.786-7.221-3.317-8.58l-.057.168c-1.273 4-3.373 7.696-6.276 10.989a20.2 20.2 0 0 1-4.198 3.568c-6.8 4.235-14.12 2.272-16.203 1.571z" style="fill:#756620;fill-opacity:1;fill-rule:nonzero;stroke:none"></path><path d="M229.425 267.413c.854.602 1.886.613 2.57.75 1.063.21 2.127 1.382 2.127 1.382 3.733-.688 5.316 1.436 6.684 3.945l.15-.015q.122-.027.226-.056c-.435-2.45-.824-5.37-.824-8.384 0-2.01.167-4.03.594-5.911 1.408-6.215 4.127-8.539 5.536-9.35l-.052-.162c-.644-1.925-2.682-6.654-8.03-10.456l-.12.047c-1.638.962-6.926 4.614-9.199 12.734a42.2 42.2 0 0 0-1.54 12.23l.084.273c.084.24.236.596.455 1.047.346.715.737 1.502 1.339 1.926" style="fill:#756620;fill-opacity:1;fill-rule:nonzero;stroke:none"></path><path d="m127.748 524.548 13.167 20.025c14.984-5.205 38.843-10.052 69.07-4.53 34.708 6.34 60.77 24.74 76.774 39.384 16.003-14.644 42.065-33.043 76.778-39.384 30.225-5.522 54.086-.675 69.068 4.53l13.152-20-.127-.143a57 57 0 0 1-8.047-4.133c-10.249-6.306-17.126-16.45-19.892-29.332-.897-4.178-1.352-8.617-1.352-13.193 0-12.875 3.776-26.758 9.619-35.37 14.386-21.205 32.039-26.562 44.792-27.182-2.916-30.09-15.029-105.245-65.143-181.328-47.427-72.004-98.435-109.244-118.849-122.28-20.413 13.036-71.415 50.275-118.844 122.28-50.115 76.085-62.227 151.239-65.141 181.328 12.752.62 30.402 5.977 44.791 27.182 5.842 8.611 9.618 22.495 9.618 35.37 0 4.579-.455 9.018-1.353 13.195-2.766 12.88-9.644 23.023-19.892 29.33a57 57 0 0 1-7.72 3.996zm22.623-219.207 1.025-6.487c1.33-8.394 2.84-12.611 5.051-14.104.864-.582 1.845-.752 2.916-.504 3.938.909 4.387 4.642 2 16.647a2561 2561 0 0 1-1.174 5.879l.006.217c3.499.763 7.125 2.506 10.995 5.273.983.703 1.683 2.226 1.827 3.974.166 2.014-.456 3.888-1.707 5.139-1.026 1.025-2.268 1.523-3.593 1.442-2.147-.135-4.137-1.758-5.284-3.233-1.102-1.419-2.385-2.07-4.315-2.443l-.058.163c-12.952 63.6-22.973 104.008-23.081 104.442a.957.957 0 0 1-1.877-.363c.073-.527 6.777-48.604 15.569-105.16l.005-.17c-4.682-.96-8.343-3.063-10.12-5.907-1.287-2.058-1.752-4.133-1.31-5.842.307-1.187 1.046-2.16 2.082-2.734 1.395-.775 4.204-1.56 7.342 1.894.888.978 2.057 1.69 3.67 2.187zm272.841.302c1.597-.497 2.757-1.208 3.64-2.18 3.138-3.452 5.945-2.668 7.34-1.893 1.036.575 1.776 1.547 2.084 2.734.44 1.71-.025 3.784-1.312 5.842-1.78 2.85-5.454 4.956-10.15 5.915l.047.224c8.786 56.528 15.484 104.571 15.559 105.098a.958.958 0 0 1-1.877.363c-.11-.434-10.119-40.799-23.062-104.34l-.088-.262c-1.925.375-3.205 1.024-4.305 2.44-1.148 1.475-3.139 3.1-5.285 3.233-1.324.081-2.567-.417-3.593-1.442-1.25-1.251-1.873-3.125-1.705-5.14.143-1.747.843-3.27 1.825-3.973 3.894-2.784 7.543-4.53 11.06-5.285l-.052-.17q-.587-2.93-1.18-5.914c-2.386-12.005-1.938-15.738 1.998-16.647 1.073-.248 2.055-.079 2.917.504 2.212 1.493 3.723 5.71 5.053 14.104q.518 3.266 1.028 6.51zm-195.476-37.13c-1.122-1.471-1.664-2.723-1.907-3.42l-.05-.147c-1.263-.761-5.251-3.59-6.963-9.797-1.896-6.872-1.7-15.75 2.872-20.51l.13-.143v-.095c0-1.502.38-5.562 4.11-9.221 3.705-3.637 7.737-4.684 9.167-4.957 1.135-.779 12.383-8.128 25.608-2.663 11.945 4.937 13.913 12.996 14.234 15.252l.021.125c1.8 1.389 4.677 3.975 4.84 10.688.142 5.803-2.002 9.72-2.704 10.842l-.038.236c-.068 1.998-.848 9.382-8.398 15.74l-.05.214a7.1 7.1 0 0 1-.667 1.971c-.83 1.662-2.34 2.766-2.34 2.766s.638 1.276-2.126 3.403c-2.766 2.128-5.85 2.34-9.147 2.34s-3.403.744-3.51 3.509-1.276 6.487-1.594 9.465c-.32 2.979.637 6.7.637 6.7 1.915-.638 5.531-1.595 5.531-1.595s-.425 1.701.425 4.147c.852 2.447 2.606 3.935 2.606 3.935s6.115-6.806 6.86-6.7c1.9.27 3.509.638 3.509.638 2.393-2.871 7.657-6.38 7.657-6.38.957 1.275 1.595 3.509 1.595 3.509s2.393-.638 7.178-3.35 7.02-7.179 7.02-7.179c2.712.798 4.307 2.553 4.307 2.553s3.828-1.755 5.264-11.964c.88-6.259 3.03-7.976 3.03-7.976 2.712.638 4.308 2.393 4.308 2.393 1.914-6.062 6.221-7.976 6.221-7.976s1.595-23.61 2.552-28.715c.957-5.104-3.03-5.104-9.57-4.944s-7.02-5.903-7.02-5.903c-5.584-2.871-3.35-7.497-3.35-7.497.32 3.19 5.105 3.03 5.105 3.03 5.583-3.509 7.816.16 9.092 2.712s4.149 1.436 4.149 1.436c-1.277-3.03 0-6.86 0-6.86-1.118-3.35 2.711-5.423 2.711-5.423.16 2.871 1.915 3.51 1.915 3.51 5.104 0 6.699 4.307 5.263 6.38-1.435 2.074-1.276 3.828-1.276 3.828 1.436.798 5.265.958 5.265-2.073s1.116-4.307 2.552-4.148 3.51 2.553 3.51 2.553c3.19-2.074 3.509-5.105 3.509-5.105 4.626 7.817-2.234 9.571-2.234 9.571.798 5.903-5.423 6.221-7.976 5.584-2.552-.639-3.03 0-2.711 2.711.319 2.712-1.755 5.106-1.755 5.106s-.16 2.392-.16 9.57c0 7.18.639 14.038.639 14.038s1.914 2.394 2.871 4.627 3.19 1.754 4.307.318c7.174-9.223 11.007-9.252 11.007-9.252.638 2.553.479 5.902.479 5.902 12.123-15.313 22.492-16.43 22.492-16.43 0 2.074-.479 3.988-.479 3.988 17.548-16.111 30.31-15.474 30.31-15.474s-5.105 5.743-16.431 18.505-23.29 33.818-35.892 57.108-12.603 29.671-12.603 29.671c3.35-3.03 7.338-2.552 7.338-2.552s9.89-17.387 14.835-25.524c4.946-8.135 9.093-8.454 9.093-8.454 9.89-16.271 17.548-20.898 17.548-20.898.957 2.713.957 7.657.957 7.657 12.921-20.896 28.075-23.13 28.075-23.13s-6.38 12.443-14.676 34.138c-6.38 16.69-8.135 33.02-8.135 33.02 5.264-2.711 10.528-3.03 10.528-3.03s-5.423 11.006-8.454 22.811-2.712 18.823-2.712 18.823c2.552-2.393 5.264-2.233 5.264-2.233-1.914 5.105-3.35 15.474-3.828 27.119-.559 13.571.318 31.585-9.89 50.25-11.539 21.091-33.18 27.756-47.378 23.13s-22.972-18.345-19.94-33.66c3.03-15.314 1.7-19.088.424-21.162-1.537-2.497-2.871-3.084-2.871-3.084-.896 5.217-4.998 11.485-4.998 11.485 1.809-.319 3.616.32 3.616.32 0 2.232 0 4.466-6.168 10.847s-11.166 9.146-11.166 9.146c2.34-.106 4.572.318 4.572.318s.958 4.148-4.041 8.402c-4.606 3.918-16.484 11.167-16.484 11.167.85 12.229-5.318 14.569-5.318 14.569s-3.34-6.74-7.976-10.954c-3.882-3.53-8.468-5.748-11.828-8.209 0 0-3.804 3.477-11.62 6.508-7.817 3.03-27.757 2.552-41.317-13.879-13.56-16.43-12.123-30.788-12.603-51.206-.478-20.418-.478-25.524-6.38-39.402 0 0 5.265 3.83 7.976 7.976 0 0-.32-11.645-2.552-20.578-2.234-8.933-6.7-17.866-6.7-17.866s4.786.478 6.7 1.595c0 0-2.871-25.045-10.05-42.592-7.178-17.547-14.357-28.555-14.357-28.555s18.026 1.436 31.745 22.972c0 0 .797-3.829.319-8.455 0 0 13.56 10.209 20.1 30.947 0 0 .478-1.595 1.276-3.988 0 0 16.43 19.78 19.94 36.371 0 0 2.233-.957 5.583 2.711 3.35 3.67 8.295 11.805 10.848 20.26a498 498 0 0 1 4.625 16.43s.958-4.786 1.277-12.602c.32-7.816 2.233-11.964 4.945-16.111s3.03-9.412.638-11.805-5.424-2.233-10.688-.798-9.252 1.595-14.197-4.785-4.786-11.645-4.626-20.419c.16-8.773 3.35-12.442 3.35-12.442s2.552-5.105 6.38-7.338c3.83-2.234 4.467-4.627 4.627-8.774.159-4.148-.532-6.54-4.467-7.498-5.068-1.232-7.604-5.637-7.764-8.189 0 0-.106.107-2.233-1.595a2.83 2.83 0 0 1-1.025-1.625z" style="fill:#e22920;fill-opacity:1;fill-rule:nonzero;stroke:none"></path><path d="M99.568 638.102a1354 1354 0 0 0 11.312-16.725l.583.465c5.048 3.16 10.551 6.308 17.32 9.908 47.868 25.464 102.495 38.923 157.976 38.923 55.482 0 110.109-13.46 157.977-38.923 6.769-3.6 12.272-6.749 17.319-9.908l.615-.418c3.796 5.847 7.646 11.677 11.24 16.951l-.465-.122c-8.335-2.939-20.84-5.337-30.91-.514-10.39 4.975-13.937 15.389-14.99 19.686-3.743-2.225-13.692-6.602-28.083-1.227-10.284 3.843-16.676 14.645-18.718 18.575-3.369-2.532-13.289-8.861-25.948-6.51-12.137 2.255-18.38 11.23-20.603 15.217-2.811-3.373-10.38-10.305-24.56-9.28-11.442.827-20.025 9.649-22.87 12.964-2.847-3.315-11.435-12.137-22.877-12.964-14.18-1.025-21.75 5.907-24.56 9.28-2.224-3.986-8.466-12.962-20.603-15.217-12.659-2.351-22.578 3.978-25.949 6.51-2.042-3.93-8.433-14.732-18.717-18.575-14.392-5.375-24.341-.998-28.082 1.227-1.055-4.297-4.602-14.711-14.99-19.686-10.43-4.995-23.47-2.245-31.786.83z" style="fill:#756620;fill-opacity:1;fill-rule:nonzero;stroke:none"></path><path d="M171.827 527.144h36.92v-10.458h-23.864v-10.249h20.636v-10.106h-20.636v-19.302h-13.056zm216.879-17.899c-.702 5.054-4.632 7.722-10.107 7.722-8.424 0-11.651-7.44-11.651-14.881s3.227-14.88 11.65-14.88c6.108 0 9.617 3.51 10.108 9.265h13.056c-.703-12.914-10.178-20.495-22.883-20.495-15.16 0-24.988 11.581-24.988 26.11s9.828 26.111 24.988 26.111c10.81 0 22.532-6.88 22.883-18.952zm-119.89-318.69h23.794c9.336 0 18.11-4.283 18.11-16.144 0-12.424-7.09-17.267-18.11-17.267h-10.739v-16.706h-13.055zm13.055-23.305h8.775c4.07 0 7.019 1.686 7.019 6.249 0 4.701-3.02 6.597-7.02 6.597h-8.774z" style="fill:#231f20;fill-opacity:1;fill-rule:nonzero;stroke:none"></path></g><!-- source: https://football-logos.cc --></svg>