<svg xmlns="http://www.w3.org/2000/svg" xml:space="preserve" viewBox="2 2 224.86 250"><!-- Source: https://football-logos.cc --><path d="m503.726 505.59-1.913 10.238-8.832 4.982c-85.869 48.612-174.13 47.825-183.913 47.577-9.68.277-97.409 1.303-183.783-47.595l.004.001-8.827-4.966-1.896-10.263c-.04-.21-3.924-21.454-3.924-55.06 0-30.249 3.119-60.2 9.266-89.018 9.986-46.787 27.675-90.08 52.575-128.683 31.062-48.145 73.37-88.91 125.75-121.156l10.914-6.724 10.92 6.727c52.38 32.246 94.684 73.009 125.744 121.153 24.9 38.598 42.59 81.893 52.574 128.683 16.988 79.6 5.458 143.469 5.34 144.104z" style="fill:#fbbc09;fill-opacity:1;fill-rule:nonzero;stroke:none" transform="matrix(.39171 0 0 -.39171 -6.65 293.1)" data-source="https://football-logos.cc"></path><path d="m127.878 515.789.007.004c85.057 48.15 171.55 47.167 181.133 46.896 9.68.242 96.707.996 181.28-46.883.003 0 5.278-2.974 6.557-3.697l1.417-7.6c.039-.203 3.833-21.286 3.833-54.005 0-29.83-3.077-59.368-9.141-87.79-9.84-46.097-27.259-88.74-51.78-126.748-30.596-47.433-72.31-87.608-123.978-119.418l-8.1-4.99c-.65.397-8.097 4.988-8.097 4.988-51.67 31.805-93.387 71.986-123.988 119.42-24.519 38.01-41.94 80.654-51.776 126.748-6.063 28.405-9.136 57.94-9.136 87.782 0 32.839 3.785 53.79 3.824 53.996l1.406 7.617z" style="fill:#231f20;fill-opacity:1;fill-rule:nonzero;stroke:none" transform="matrix(.39171 0 0 -.39171 -6.65 293.1)"></path><path d="M337.444 291.064c0 15.637-8.111 25.352-28.34 34.04l-.022-64.404c18.026 2.495 28.362 14.02 28.362 30.364" style="fill:#fff;fill-opacity:1;fill-rule:nonzero;stroke:none" transform="matrix(.39171 0 0 -.39171 -6.65 293.1)"></path><path d="M282.045 381.028c0-15.085 8.351-23.339 26.984-31.802v58.606c-19.416-2.114-26.984-15.46-26.984-26.804" style="fill:#000;fill-opacity:1;fill-rule:nonzero;stroke:none" transform="matrix(.39171 0 0 -.39171 -6.65 293.1)"></path><path d="M299.917 240.576c-16.596 0-34.723 5.372-43.912 11.817l5.869 19.605c9.958-6.714 24.256-11.817 39.574-11.817 2.663 0 5.185.183 7.581.514v64.44a138 138 0 0 1-4.008 1.646c-28.083 10.74-45.443 26.319-45.443 51.563 0 26.416 19.491 46.466 49.451 48.894v35.007h-.009c-9.263.264-92.814 1.213-175.054-45.244 1.283-15.592 3.59-32.677 7.428-50.657 9.396-44.006 26.014-84.685 49.39-120.914 29.135-45.149 68.923-83.47 118.245-113.913v109.515a92 92 0 0 0-9.112-.456" style="fill:#000;fill-opacity:1;fill-rule:nonzero;stroke:none" transform="matrix(.39171 0 0 -.39171 -6.65 293.1)"></path><path d="m309.148 462.248-.011-35c1.985.159 4.02.24 6.097.24 17.36 0 30.38-4.296 37.784-8.863l-6.126-19.065c-5.362 3.491-16.851 8.592-32.425 8.592a50 50 0 0 1-5.337-.308l-.019-58.655a196 196 0 0 1 7.145-3.072c29.104-12.086 43.655-26.585 43.655-53.173 0-25.736-16.49-48.49-50.835-51.909l-.036-109.524q.033-.022.066-.041c49.358 30.45 89.172 68.788 118.319 113.96 23.378 36.23 39.997 76.908 49.391 120.914 3.843 17.98 6.146 35.063 7.431 50.654-81.457 46.024-165.179 45.487-175.099 45.25" style="fill:#fff;fill-opacity:1;fill-rule:nonzero;stroke:none" transform="matrix(.39171 0 0 -.39171 -6.65 293.1)"></path><path d="M337.444 291.064c0-16.343-10.336-27.869-28.362-30.364l-.006-19.665c34.346 3.42 50.835 26.173 50.835 51.91 0 26.587-14.55 41.086-43.655 53.172a196 196 0 0 0-7.145 3.072l-.008-24.085c20.23-8.688 28.341-18.403 28.341-34.04m-22.977 117.088c15.574 0 27.063-5.1 32.425-8.592l6.126 19.065c-7.404 4.567-20.424 8.863-37.784 8.863a76 76 0 0 1-6.097-.24l-.007-19.404a50 50 0 0 0 5.337.308" style="fill:#231f20;fill-opacity:1;fill-rule:nonzero;stroke:none" transform="matrix(.39171 0 0 -.39171 -6.65 293.1)"></path><path d="M301.448 260.18c-15.318 0-29.616 5.104-39.574 11.818l-5.87-19.605c9.19-6.445 27.317-11.817 43.913-11.817 3.172 0 6.2.168 9.112.456v19.663a55 55 0 0 0-7.58-.514m-19.404 120.847c0 11.343 7.568 24.69 26.984 26.804v19.406c-29.96-2.428-49.45-22.478-49.45-48.894 0-25.244 17.358-40.823 45.442-51.563a139 139 0 0 0 4.008-1.646v24.09c-18.633 8.464-26.984 16.718-26.984 31.803" style="fill:#fff;fill-opacity:1;fill-rule:nonzero;stroke:none" transform="matrix(.39171 0 0 -.39171 -6.65 293.1)"></path><path d="m309.104 325.104-.075.03v-64.439l.053.005zm-.074 24.122.081-.037.019 58.655c-.034-.003-.067-.01-.1-.012zm0-108.194V131.517l.01-.006.036 109.524z" style="fill:#000;fill-opacity:1;fill-rule:nonzero;stroke:none" transform="matrix(.39171 0 0 -.39171 -6.65 293.1)" data-source="https://football-logos.cc"></path><path d="M260.993 382.76c-6.712 6.04-16.982 9.114-30.503 9.114-9.78 0-18.646-.744-26.351-2.213l-1.25-.237V282.828h16.653v41.902c2.998-.516 6.225-.699 9.389-.699 14.17 0 25.987 4.275 33.271 12.034 5.754 5.751 8.689 13.68 8.689 23.528 0 9.42-3.515 17.65-9.898 23.168m-31.75-44.733c-3.964 0-7.188.28-9.701.802v38.355c2.121.358 5.944.846 11.26.846 8.694 0 23.28-2.497 23.28-19.22 0-13.207-9.054-20.783-24.839-20.783" style="fill:#fff;fill-opacity:1;fill-rule:nonzero;stroke:none" transform="matrix(.39171 0 0 -.39171 -6.65 293.1)"></path><path d="M410.152 301.208c-4.423-2.52-11.304-4.086-17.958-4.086-20.044 0-32.01 14.864-32.01 39.76 0 25.198 12.521 40.851 32.678 40.851 8.631 0 14.273-2.55 16.868-4.069l2.515-1.477 4.234 16.028-1.601.981c-1.919 1.175-9.205 5.005-22.415 5.005-29.392 0-49.139-23.222-49.139-57.786 0-33.967 18.243-55.914 46.477-55.914 11.837 0 20.757 2.861 24.799 5.31l1.52.921-3.312 15.99zm-85.549 436.028s4.1-7.172 14.346-12.296l-7.173-2.048S328.667 720 339 715.666c2.694-.67-4.15-.972-4.15-.972s-.517-7.36 10.246-11.27l-5.123-1.025s2.197-7.815 8.36-7.399c-4.503-1.917-4.666-1.333-5.287-2.848 0 0 4.1-7.94 25.616 11.528 0 0 15.37 18.186 46.109 17.162 0 0 58.402 5.123 109.634 0 0 0 18.444 1.024 25.616-15.37 0 0 38.937-3.073 37.913-22.541l8.196-4.098s-6.15-14.346-25.616-13.32c0 0-6.66 5.38-8.197-2.05 0 0-15.37-8.965-29.97-1.28 0 0 6.148-3.843-5.38-9.223 0 0-29.97-11.526-31.506-3.074 0 0-14.603-13.832-33.046-9.99 0 0-16.906-14.6-28.434-5.378 0 0-7.683-9.223-29.2-4.612 0 0-12.296-3.842-21.518 0 0 0 .768-8.453-20.748-1.536l-13.065-.77 8.453-3.841s-2.305-3.842-9.989-4.611c0 0 2.305-6.916 8.452-8.454l-6.916-3.073s3.074-5.38 7.686-7.685l-7.686-3.074s4.612-6.148 9.223-6.916l-8.454-1.537s3.843-5.38 9.222-7.684c0 0-6.148-6.917-12.295-4.612l3.841-3.073h11.528l4.611-3.842 5.378-2.306s2.307-2.306 0-7.685l-.768 3.842s-6.147-3.073-9.99 0l-8.453 5.38 2.305-4.61v-3.843l-2.305-3.843-2.563 3.843-8.195 3.073v2.305l-3.844-3.841-8.964-4.099-7.173-1.281-2.305 3.843 2.817 6.148s-6.66 4.61-6.66-2.306c0 0 0 10.758 9.223 5.38 0 0 2.048 5.634 8.452 5.378v3.074s-20.143 5.44-15.531 45.785l-19.818 2.63s11.526-35.35-6.917-46.878l-5.378-.768v-4.61s14.6-2.306 13.063-13.065l-11.527-2.305s-.768 5.38-8.453 6.147l-3.075-6.916-10.757-1.537 1.537 7.685-5.38-1.537-1.536-4.61h-2.306l-3.074.768-1.536 2.305-.769 2.305-3.074-3.073s-2.306 7.684 3.074 8.453h3.842s6.916 3.842 11.527 1.537l6.916 4.61v3.074s-9.99-1.537-16.138 3.843c0 0 5.38 1.537 9.222 6.147l-5.38 2.306s5.38.768 6.148 8.453l-5.38.768 6.918 9.99-6.149 1.537 6.916 8.454s-5.378-.77-9.221 3.074l6.916 5.379s-7.684-1.537-13.832 1.537c0 0-22.285-9.222-22.285 0 0 0-13.833-3.843-21.518 0 0 0-19.98-5.38-29.97 5.38 0 0-9.221-7.685-26.897 5.378 0 0-25.36-.768-32.276 9.99 0 0-30.738-6.147-38.423 11.528 0 0-22.286-7.685-30.739 7.685 0 0-13.833-8.453-23.054-.77l-7.685 13.065 6.148 3.074s-1.538 11.527 13.064 16.907l25.36 4.61s3.842 15.369 23.054 15.369c0 0 51.487 6.148 93.753.769 0 0 49.951-1.793 57.636-9.222 0 0 23.566-23.31 29.714-21.773 5.038 1.26 7.668 2.175 15.428 11.224 1.71 1.993 9.163 9.78 1.677 13.697-2.337 1.412-5.784 2.705-10.701 3.769 0 0-8.196-.257-7.94-5.124s-6.149 8.197 6.147 18.444c0 0 20.491 19.468 49.18 4.098" style="fill:#231f20;fill-opacity:1;fill-rule:nonzero;stroke:none" transform="matrix(.39171 0 0 -.39171 -6.65 293.1)"></path><path d="m371.875 568.874-5.378-1.537s-6.15 5.652-3.074 4.995c-.826 13.85-2.966 24.757-13.065 37.271l1.154 2.305c13.063-16.188 20.267-42.804 20.363-43.034m21.217-6.777-16.82 3.961 3.938 1.384s1.546 1.85 5.187.993c-6.835 19.416-19.856 33.89-31.964 50.773l2.561 2.05c24.078-27.153 37.098-59.161 37.098-59.161" style="fill:#000;fill-opacity:1;fill-rule:nonzero;stroke:none" transform="matrix(.39171 0 0 -.39171 -6.65 293.1)"></path><path d="M573.075 682.93s-11.526 3.075-10.758 11.528l-4.611 1.537-9.222 2.305-8.453.769s-19.212 7.684-69.162 12.296c0 0 5.379 3.842 54.562-.77 0 0-1.537 6.917-6.149 6.149 0 0-28.433 3.074-112.197.768 0 0-16.138-1.536-27.664-9.99l-19.98-17.675s-8.454-6.916-16.14-3.842c0 0-5.377 7.684-9.22 9.222l3.074 4.61-9.221 9.223 3.842 1.536-8.453 8.453h3.073l-5.38 9.222 2.307 2.305s-6.917 9.99-19.212 9.99c0 0-12.296 1.538-26.896-9.221 0 0-2.306-3.074 3.074-5.38 0 0 4.61 0 .768-4.611 0 0 13.064.769 13.832-13.063 0 0-3.842-13.833-22.285-22.286 0 0-6.148-.769-20.75 9.99l-9.221 8.453s-7.685 10.759-26.897 10.759c0 0-31.507 3.074-38.423 2.305l-82.995-.768-2.305-6.148s47.645 6.148 53.025 0c0 0-56.867-10.759-65.32-11.527-8.453-.769-22.286-4.611-22.286-4.611s-2.306-4.611-9.99-11.527c0 0 4.61-3.074 19.98.768l63.783 16.138-35.35-17.674-6.147-.769-19.212-7.685s15.37-6.916 19.98-2.305l58.404 22.285s-13.064-13.064-43.803-25.36c0 0 9.99-1.536 16.138-4.61 0 0 9.99-3.073 14.601 2.305 0 0 9.222 7.685 40.729 24.592 0 0-12.296-17.675-45.34-36.118l14.6-1.538s9.222-1.537 13.065 2.306l39.96 22.286s1.537-6.916-26.895-29.202c0 0 12.294-.769 18.443 4.61l22.285 19.98s-.768-10.758-16.138-28.433c0 0 10.76 0 16.138 4.611 0 0 8.453 6.148 18.443 21.518 0 0 .769-6.917-8.453-25.36h6.148l4.611 3.842s8.453 6.916 12.295 19.98c0 0 1.537-15.37-3.842-31.507 0 0 6.916 0 9.222 6.916 0 0 6.916 13.065 1.537 29.971 0 0 10.758-15.37 6.915-34.582h6.149s2.305-.768 2.305 4.61c0 0-3.074 24.593 6.148 29.972 0 0-6.148-29.971 5.379-36.887l-2.305-7.685s-2.306-2.305 4.61-3.073l-6.147-8.454s1.537-3.073 5.379-1.537l-6.916-10.759s1.537-2.305 5.379-2.305c0 0-.768-3.073-7.685-11.527 0 0 12.296-6.147 19.212 2.306l2.306 1.537c4.649 5.314 5.28 23.823 5.365 28.748l18.515-2.873.221 1.42 2.795-.399c2.305-33.044 10.759-33.813 10.759-33.813 6.404-3.586 8.965-2.56 14.6 3.074 0 0-.768 9.99-6.148 12.296l4.611 1.536s-.77 8.454-6.147 10.76l4.611 1.536-4.611 7.685h4.611s2.305 4.61-1.538 6.916.77 7.685.77 7.685 6.147-1.537 3.073 33.044c0 0 9.99-13.063 6.147-30.738l6.149-3.075s-3.074 17.676 5.379 30.74c0 0-5.38-20.75 6.147-30.74l7.686-1.537s-9.222 13.833-5.38 30.74c0 0 3.843-12.296 10.759-23.823l14.6-2.305s-12.296 19.211-9.99 31.507c0 0 13.064-24.592 24.592-31.507h9.22s-17.674 19.98-19.21 27.665c0 0 29.202-24.592 36.118-24.592l10.757 1.537s-22.285 15.37-30.737 29.971l46.876-26.129 22.284 3.075s-42.264 23.822-46.875 36.886c0 0 31.507-17.675 48.413-27.665l23.824 4.61s-35.35 13.065-43.036 26.898c0 0 36.119-18.444 59.94-23.823 4.612-3.074 8.454-.768 8.454-.768l6.917 3.073s-35.35 12.296-57.637 26.128c0 0 27.666-6.148 73.774-21.517z" style="fill:#fff;fill-opacity:1;fill-rule:nonzero;stroke:none" transform="matrix(.39171 0 0 -.39171 -6.65 293.1)"></path><path d="M299.885 697.532c-3.17 1.584-5.764-11.911-5.764-11.911l6.532-.385s.769 11.528-.768 12.296m12.287-13.257c-3.352 1.77-4.255-16.109-4.255-16.109l6.55.117s-.67 15.133-2.295 15.992m-27.272-9.413c-3.17 1.584-5.764-11.91-5.764-11.91l6.531-.386s.77 11.527-.768 12.296m12.617-5.537c2.819 1.207 3.083-12.457 3.083-12.457l-5.414.368s.963 11.504 2.33 12.09m23.787 18.484c2.539 1.719 5.393-11.646 5.393-11.646l-5.385-.667s-1.239 11.478-.008 12.312zm9.641-17.033c2.74 1.376 3.834-12.247 3.834-12.247l-5.425.039s.262 11.542 1.591 12.208m-11.828-9.7c-1.98.966-2.308-9.281-2.308-9.281l3.834.161s-.565 8.652-1.526 9.12m-8.165 43.591c-2.117.4-.366-8.905-.366-8.905l3.688 1.053s-2.295 7.658-3.322 7.852m14.985-3.074c-2.118.4-.366-8.905-.366-8.905l3.688 1.053s-2.294 7.658-3.322 7.852m-9.378 11.854c-1.87.342-.363-7.786-.363-7.786l3.266.936s-1.995 6.685-2.903 6.85m-5.321 10.651c-1.63-.746 2.04-5.83 2.04-5.83l2.386 2.412s-3.636 3.78-4.426 3.418m-8.059-6.103c-1.371.649-2.145-5.524-2.145-5.524l2.76-.029s.049 5.24-.615 5.553m6.761 17.856c-1.14-.656 3.069-4.27 3.069-4.27l1.35 1.956s-3.867 2.634-4.42 2.314m-3.124-86.71c1.337 1.357 3.732-8.572 3.732-8.572l-3.012-.642s-1.368 8.557-.72 9.214m-5.007 85.277s4.995-2.306.383-7.686c0 0-6.53-3.841-11.142 4.996 0 0-1.047 5.604 0 2.69" style="fill:#231f20;fill-opacity:1;fill-rule:nonzero;stroke:none" transform="matrix(.39171 0 0 -.39171 -6.65 293.1)"></path><path d="m247.083 568.874 5.378-1.537s6.15 5.652 3.074 4.995c.826 13.85 2.966 24.757 13.065 37.271l-1.154 2.305c-13.063-16.188-20.268-42.804-20.363-43.034m-21.217-6.777 16.82 3.961-3.939 1.384s-1.545 1.85-5.187.993c6.836 19.416 19.858 33.89 31.965 50.773l-2.561 2.05c-24.08-27.153-37.098-59.161-37.098-59.161" style="fill:#000;fill-opacity:1;fill-rule:nonzero;stroke:none" transform="matrix(.39171 0 0 -.39171 -6.65 293.1)"></path><path d="M325.177 526.179c10.054-.372 14.594-10.228 14.594-22.84s-4.925-23.025-14.789-22.651c-9.86.375-14.787 10.04-14.787 22.65 0 12.613 4.927 23.214 14.982 22.84m-.059-8.816c3.164-.23 4.05-6.308 4.05-14.086s-.621-14.013-4.196-13.78c-3.578.23-4.012 6.002-4.012 13.78s.994 14.315 4.158 14.086m-149.263-14.854c9.829 3.49 14.363-4.62 14.489-17.233.126-12.611-4.583-24.917-14.223-28.331-9.64-3.415-14.55 4.36-14.675 16.97-.126 12.612 4.582 25.105 14.41 28.594m.03-8.839c3.094.986 4.022-4.751 4.1-12.529.076-7.779-.467-14.25-3.966-15.394-3.496-1.143-3.977 4.463-4.055 12.24s.827 14.698 3.922 15.683m76.094 28.369 10.286 1.365v-44.43l-10.286-1.365zm19.194 2.452 11.035.465 5.498-29.462 5.111 30.03 11.05.56 2.8-44.23-9.015-.48-1.317 27.577-5.34-27.054-7.585-.304-5.394 26.156-1.076-27.49-9.013-.646zm-23.125-3.449-.01-9.598-7.55-1.378v-34.801l-9.974-1.906v34.887l-7.95-1.452.01 9.599zm96.855 4.199v-44.338l8.783-1.193-.298 26.417 9.772-27.667 9.135-1.307v44.265l-8.784 1.193.745-26.695-10.099 28.018zm60.671-11.016v-44.338l8.67-2.449-.294 26.157 9.195-28.761 9.471-2.614v44.265l-8.672 2.45.736-27.105-9.97 29.764zm58.521-20.281V449.66l19.457-8.744-.126 8.942-9.527 4.396v9.603l8.586-3.907.026 8.942-8.612 3.917v7.688l8.871-4.034.024 9.091zm-84.817 25.505v-44.285l20.886-3.792.024 8.948-10.626 1.952v9.299l9.483-1.741.024 8.948-9.507 1.746v7.99l9.78-1.796.027 9.098zm-244.62-35.552 8.852 4.579c6.191 3.201 11.06 3.166 13.523.627 1.43-1.474 2.333-3.837 2.348-7.4.04-9.83-5.404-16-10.624-19.221l-4.155-2.564v-15.67l-9.945-4.781zm9.945-3.279.001-12.596c1.627.679 2.758 1.752 3.753 3.016 1.149 1.458 2.01 4.105 1.984 6.048-.031 2.302-.918 4.412-2.247 4.544-1.27.126-2.392-.249-3.49-1.012m49.562 27.76 8.853 3.179c6.19 2.223 11.816 1.794 14.279-1.134 1.429-1.699 2.518-3.828 2.536-7.393.025-5.43-2.936-9.695-6.46-12.646 2.166-1.14 3.583-2.152 4.166-4.74l3.113-13.802-10.209-2.892-2.51 12.733c-.328 1.668-.84 2.601-2.49 2.598l-1.332-.003v-16.933l-9.946-2.737zm9.946-4.85V491.97c1.626.422 2.948 1.128 3.942 2.233 1.147 1.275 2.008 3.978 1.983 5.923-.028 2.305-.873 3.662-2.2 4.002-1.269.326-2.438-.201-3.725-.601m254.548-8.468L457 486.74c-2.263 2.168-4.06 3.749-6.565 4.159-1.5.244-2.421.629-2.944-1.74-.185-.833-.02-2.97 2.23-5.308 3.113-3.234 5.955-6.124 7.884-9.081 2.19-3.354 3.257-6.548 3.019-10.264-.457-7.157-4.984-8.983-8.68-9.226-4.85-.319-11.397 3.328-14.72 6.353l1.434 9.225c2.542-2.723 5.303-4.659 7.85-5.293 2.432-.605 3.495-.142 4 1.134.472 1.187.025 2.823-1.364 4.577-1.327 1.675-2.747 3.172-4.614 5.28-3.326 3.76-7.083 9.025-7.231 14.494-.189 6.928 4.757 9.81 8.605 9.984 4.681.21 9.6-2.547 12.758-5.975" style="fill:#fbbc09;fill-opacity:1;fill-rule:evenodd;stroke:none" transform="matrix(.39171 0 0 -.39171 -6.65 293.1)" data-source="https://football-logos.cc"></path><!-- source: https://football-logos.cc --></svg>