<svg xmlns="http://www.w3.org/2000/svg" xml:space="preserve" viewBox="101.44 19.45 590.83 755.9"><!-- Source: https://football-logos.cc --><path d="M3021.54 4700.13c602.61-448.33 1334.63-554.35 2069.16-506.8l101.28 6.55-8.48-101.14c-132.69-1582.09-796.04-3045.56-2159.7-3923.681l-46.99-30.254-47.19 29.922c-607.4 385.136-1096.21 915.963-1452.6 1539.083-417.03 729.15-635.747 1551.23-707.61 2384.73l-8.637 100.19 100.422-5.35c346.985-18.45 700.695-8.75 1042.525 57.39 367.11 71.03 718.78 207.89 1010.16 446.82l52.84 43.32z" style="fill:#fff;fill-opacity:1;fill-rule:evenodd;stroke:none" transform="matrix(.13333 0 0 -.13333 0 794.667)" data-source="https://football-logos.cc"></path><path d="m3192.69 5342.86 484.69-69.95-351.04-341.52 83.28-497.49-433.2 243.02-433.28-246.76 83.29 501.23-351.05 341.52 484.69 69.95 216.31 439.35z" style="fill:#f5b713;fill-opacity:1;fill-rule:evenodd;stroke:none" transform="matrix(.13333 0 0 -.13333 0 794.667)"></path><path d="M3021.54 4700.13c602.61-448.33 1334.63-554.35 2069.16-506.8l101.28 6.55-8.48-101.14c-132.69-1582.09-796.04-3045.56-2159.7-3923.681l-46.99-30.254-47.19 29.922c-607.4 385.136-1096.21 915.963-1452.6 1539.083-417.03 729.15-635.747 1551.23-707.61 2384.73l-8.637 100.19 100.422-5.35c346.985-18.45 700.695-8.75 1042.525 57.39 367.11 71.03 718.78 207.89 1010.16 446.82l52.84 43.32zm-45.09-4451.54c1307.03 841.65 1985.3 2252.66 2119.9 3857.46-815.91-52.81-1537.81 85.56-2127.02 523.91-619.01-507.61-1474.04-557.9-2112.787-523.91C1014.78 2270.76 1848.71 963.656 2976.45 248.59" style="fill:#231f20;fill-opacity:1;fill-rule:evenodd;stroke:none" transform="matrix(.13333 0 0 -.13333 0 794.667)"></path><path d="M2971.08 4551.37c-214.44-167.22-457.03-285.47-713.74-366.13v-672.58h1438.07v676.25c-96.11 30.98-190.86 67.16-283.85 109.1-154.97 69.9-302.33 154.55-440.48 253.36m-713.74-2505.1V916.809c215.24-223.411 455.23-422.981 718.87-593.852 267.72 175.895 506.89 375.438 719.2 594.582V2046.27z" style="fill:#231f20;fill-opacity:1;fill-rule:evenodd;stroke:none" transform="matrix(.13333 0 0 -.13333 0 794.667)"></path><path d="m3202.05 5355.73 505.65-72.96-366.26-356.32 86.92-519.22-451.89 253.51-452.07-257.46 86.93 523.16-366.28 356.32 505.67 72.97 225.66 458.36zm-225.67 394.61-206.95-420.36-463.73-66.92 335.82-326.71-79.64-479.31 414.49 236.05 414.51-232.54-79.64 475.79 335.82 326.72-463.73 66.92z" style="fill:#231f20;fill-opacity:1;fill-rule:evenodd;stroke:none" transform="matrix(.13333 0 0 -.13333 0 794.667)" data-source="https://football-logos.cc"></path><path d="m3011.52 976.023 78.76-11.367-57.04-55.492 13.53-80.84-70.39 39.489-70.4-40.094 13.53 81.445-57.04 55.492 78.76 11.367 35.15 71.387z" style="fill:#f5b713;fill-opacity:1;fill-rule:evenodd;stroke:none" transform="matrix(.13333 0 0 -.13333 0 794.667)"></path><path d="m2070.04 2694.2-133.47 482.44-129.86-482.44zm-624.5-459.45 336.48 1110.68h327.88l339.07-1110.68h-254.59l-86.8 294.67h-333.35l-78.93-294.67zm1165.14 6.25v1098.18c107.19 7.07 221.45 12.5 332.17 12.5 432.47 0 648.71-170.22 648.71-561.33 0-402.98-296.26-561.85-648.71-561.85-110.72 0-186.08.12-332.17 12.5m243.84 927.74v-762.97h125.82c218.1 0 356.41 164.65 362.05 390.24 5.39 214.97-126.69 372.73-352.98 372.73zm1582.85 133.85-54.89-190.32c-77.85 35.48-133.52 57.12-211.59 57.12-99.13 0-196.07-32.51-188.82-138.2 5.65-82.44 159.83-123.56 243.34-158.06 128.86-53.22 262.38-141.71 257.44-318.72-2.16-77.42-26.36-141.5-63.85-192.18-83.74-113.21-232.09-149.5-366.02-149.5-133.26 0-243.52 26.11-326.43 67.52l57.01 196.47c84.78-46.05 172.39-74.6 256.9-74.6 87.09 0 191.45 37.14 197.47 124.99 3.18 46.46-14.05 81.02-46.16 100-32.24 19.05-73.16 42.88-161.11 79.16-158.6 65.43-280.57 141.52-285.73 323.91-5.64 199.87 186.34 331.43 399.93 331.43 98.19 0 205.13-16.84 292.51-59.02" style="fill:#231f20;fill-opacity:1;fill-rule:nonzero;stroke:none" transform="matrix(.13333 0 0 -.13333 0 794.667)"></path><path d="m2685.6 1344.7.45 162.51-48.46.45v37.77c7.1 0 14.16.47 21.11 1.37 7.01.96 12.64 2.44 16.86 4.51 4.9 2.49 8.74 5.83 11.48 10.03 2.74 4.24 4.32 9.44 4.69 15.64h50.3v-232.3zm276.75 129c0-68.15-40.06-129.33-106.59-129.33-11.26 0-23.31-1.49-34.95.97l3.54 41.6c30.45-2.82 74.44 1.41 79.15 45.69-14.41-10.06-24.23-10.31-41.53-10.31-41.48 0-66.17 39.36-64.04 80.91 2.54 49.81 44.8 77.36 80.28 76.58 57.87-1.26 84.14-50.54 84.14-106.11m-80.13 61.36c-20.54 1.4-30.7-17.87-30.7-37.79 0-19.91 10.36-35.38 28.42-36.34s28.34 16.16 27.79 35.79-4.97 36.95-25.51 38.34m253.46-190.6H2974.1v36.92c32.29 30.26 100.2 75.12 104.55 115.1 2.76 25.33-16.42 32.44-25.18 33.51-10.28 1.27-25.66.8-39.36-20.63l-27.84 28.28c12.1 23 39.12 42.9 73.33 42.03 44.45-1.12 77.06-30.96 74.1-80.7-2.8-46.88-53.33-76.72-82.57-103.36l83.75-.01zm200.19 54.83h-24.85v-54.66h-55.86v54.66H3153.9v30.46l93.01 147.43h64.11v-136.16h24.85zm-80.71 41.73v79.06l-51.88-79.06z" style="fill:#fff;fill-opacity:1;fill-rule:nonzero;stroke:none" transform="matrix(.13333 0 0 -.13333 0 794.667)" data-source="https://football-logos.cc"></path><!-- source: https://football-logos.cc --></svg>