<svg xmlns="http://www.w3.org/2000/svg" viewBox="7.72 36.83 579.84 768.23"><!-- Source: https://football-logos.cc --><path d="M374.698 285.956c1.587 5.668 2.335 10.914 3.393 16.618.064.342.184.583.384.635.342.09.818-.223 1.004-.424 3.54-3.808 7.098-8.554 10.694-12.943l.172.045c-.973 4.12-1.77 8.533-3.036 12.503-.246.77-1.013 1.014-1.498.887l-1.601-.418c-.2-.052-.24-.002-.28.135l-.239.79c-.049.165-.038.274.164.311 3.252.597 6.873 1.932 9.478 2.893.22.082.277-.016.322-.183l.22-.81c.03-.11.017-.186-.15-.246l-1.653-.603c-.388-.141-.54-.617-.264-1.676.13-.5 1.203-5.928 1.334-6.488.137-.588 1.803-7.426 1.91-7.843.152-.583.223-.734.897-.648l2.28.291c.205.026.287.042.331-.125l.167-.64c.043-.168.018-.372-.124-.409-.315-.081-1.937-.618-6.396-1.783-.857-.223-1.217-.095-1.412.169-1.237 1.667-7.64 9.434-9.14 11.26-.733-4.596-1.698-9.008-2.776-14.26-.1-.482-.277-.578-.563-.653-.343-.089-.802-.237-2.145-.588-3.373-.88-4.799-1.449-5.084-1.523-.17-.044-.218.034-.244.115l-.335 1.061c-.034.109-.02.195.15.248l1.074.34c2.107.667 1.827 1.226 1.507 2.545l-1.02 4.206c-.174.721-2.033 6.844-2.645 8.722-.287.882-.925 1.77-1.846 1.561l-1.228-.278c-.144-.033-.194.04-.216.122l-.189.725c-.058.222-.037.258.192.318.257.067 1.28.245 3.71.88 2.086.545 3.287.83 3.601.912.229.06.28-.017.309-.128l.196-.752c.03-.111.022-.203-.149-.247l-1.115-.292c-.943-.246-1.522-1.434-1.204-2.454.67-2.14 2.305-9.747 3.063-11.878m-21.634-7.34 4.076.733c.785.141 4.135 1.061 4.625 1.593.847.92 1.323 3.168 1.43 3.42.065.154.2.167.331.169l1.028.016c.172.003.169-.119.134-.27-.07-.303.514-4.221.459-4.638-.012-.09-.065-.157-.21-.18-.146-.022-.674-.293-1.14-.374l-12.704-2.22c-2.647-.463-5.454-.8-6.095-.903-.174-.027-.227.081-.236.166l-.082.767c-.02.2-.016.29.1.308l1.138.183c.788.127 1.963.344 1.843 1.264l-1.984 15.114c-.13.997-1.116 1.194-2.457.978l-.875-.141c-.204-.033-.305.039-.333.209l-.096.597c-.036.227.008.322.213.355.262.042.648.061 1.263.145.586.08 2.906.356 3.985.53 5.051.812 7.992 1.447 9.885 1.766 1.864.314 3.888.574 4.033.597.35.056.684-.677.804-.923l2.004-4.081c.04-.082.04-.194-.08-.247l-.91-.401c-.096-.043-.178-.066-.305.038-.71.577-2.131 2.298-2.96 2.814-.76.474-2.758.77-3.511.661-.622-.09-2.054-.29-2.55-.37-1.457-.233-2-.445-2.516-.63-.396-.141-.89-.317-.653-1.794.345-2.15.458-3.98.808-6.158 1.284.28 4.575.932 5.344 1.098.582.125 1.222.484 1.266 1.14.036.523-.123 1.672-.076 2.144.02.207.076.248.196.265l.967.139c.149.02.263-.016.27-.187.042-.953 1.139-7.126 1.425-7.948.057-.163-.051-.233-.196-.266l-.943-.211c-.142-.032-.244.02-.275.218-.085.54-.715 2.253-1.113 2.611-.509.457-.784.395-1.292.356-.363-.027-3.813-.71-5.155-.926zm-27.716-2.96c.017-.544 1.724-.375 2.33-.324 2.562.22 4.243 1.354 4.012 4.546-.097 1.349-.971 3.678-5.173 3.338-.196-.015-.813-.036-1.406-.062zm-5.205 15.893c-.078.715-1.069.551-1.743.494l-.92-.079c-.153-.013-.162.074-.175.217l-.061.66c-.019.2-.027.286.218.307.338.029 1.614.098 4.865.375 3.225.276 4.697.447 4.727.45.456.038.491-.016.51-.217l.064-.689c.013-.143-.01-.232-.224-.25l-1.252-.107c-.459-.04-1.606-.522-1.563-1.128l.491-7.034 1.605.07c1.471.065 2.08 2.581 2.94 4.62.43 1.019 1.642 4.584 2.501 5.322.893.048 2.333.237 3.222.313 2.361.202 3.15.357 3.396.378.215.018.253-.066.27-.238l.063-.688c.011-.115-.009-.232-.223-.25-.706-.06-1.85-.39-2.183-.794-.97-1.25-4.358-8.547-4.61-8.648l.018-.201c2.322-.374 4.919-.71 4.92-4.84 0-3.157-3.513-5.36-6.96-5.725-1.254-.132-3.953-.381-5.676-.399-3.264-.032-5.52-.06-5.796-.083-.152-.013-.201.041-.202.184l-.007.887c0 .115.012.204.165.217l1.227.105c.43.036 1.267.484 1.214 1.432-.288 5.113-.248 10.137-.821 15.34zm-19.87-7.603c.229-.722 1.85-4.857 1.987-5.235.093-.258.174-.377.35-.378.148-.001.364.141.52.56l1.88 5.087zm5.478 1.881c.364 1.033 1.392 3.955 1.66 4.991.191.745-.642.869-1.44.876l-.827.008c-.148.001-.176.118-.175.261l.005.547c.002.201.165.205.46.203.59-.005 2.019.085 4.508.174 3.779.136 4.085.232 4.646.227.236-.002.264-.204.262-.377l-.005-.547c0-.144-.036-.221-.209-.257l-.686-.14c-.433-.09-1.097-.394-1.609-1.338-1.37-2.528-5.654-14.194-6.828-17.276-.117-.306-.182-.553-.358-.552-.467.003-2.232-.116-2.28 0l-4.202 9.896c-1.06 2.497-3.002 7.573-3.409 8.18-.582.87-1.026.961-1.735.968l-.768.007c-.177 0-.206.088-.204.26l.005.548c.002.201.033.374.21.372.414-.004.839-.003 2.995-.023 2.422-.023 4.16-.061 4.544-.065.236-.002.264-.089.263-.32l-.006-.632c-.001-.115-.033-.239-.328-.227l-1.652.065c-.885.035-.87-.324-.875-.957-.008-.92 1.561-4.26 1.792-4.867zm-25.098 5.202c.02.503-1.019.947-1.626 1.042l-1.528.24c-.182.028-.213.09-.207.284l.017.53c.007.222.04.332.287.326.43-.011 1.798-.206 5.062-.293 3.42-.091 5.252-.232 5.56-.24.277-.007.311-.092.3-.231l-.038-.5c-.015-.195-.041-.242-.316-.27l-1.433-.152c-.734-.077-1.548-.349-1.56-1.048l-.287-15.383.604-.009c.709-.01 3.647-.163 4.227.237.841.58 1.07 1.867 1.529 2.92.091.21.19.238.315.242l.875.031c.1.003.077-.282.078-.395.006-1.345.373-6.255.041-6.247l-1.344.032c-.281.81-1.507 1.332-2.182 1.378-1.291.088-2.566.012-5.924.103l-1.786.049c-3.204.086-4.5.036-6.135-.002-1.11-.027-1.963-.358-2.318-.736-.283-.302-.383-.408-.598-.403-.215.006-.373.12-.447.487-.112.559-1.227 4.193-1.535 5.37-.022.087.01.21.131.248l1.172.374c.12.038.206-.067.302-.204.73-1.03 1.872-2.385 2.536-2.849 2.112-.3 3.607-.264 5.604-.155zm-16.249-2.081c.005.043-.097.046-.131.02-.39-.307-6.647-4.855-7.115-5.29-1.014-.942-8.432-6.357-8.602-6.506-.263-.23-.939-.443-1.32-.396-2.423.302-4.754.58-7.126.877-.146.018-.173.08-.155.193l.2 1.25c.013.084.054.197.201.178l.643-.083c1.465-.19 3.114.315 3.426 1.983.769 4.113 1.288 7.864 2.08 11.965.34 1.765.108 2.647-.53 2.77l-2.066.402c-.144.028-.128.109-.117.194l.094.742c.025.2.062.254.179.24.293-.038 3.702-.641 4.611-.755 1.377-.174 3.166-.554 3.46-.59.204-.026.226-.087.205-.259l-.086-.685c-.022-.172-.062-.253-.268-.228l-.732.092c-1.23.155-2.32-.357-2.603-2.003l-1.794-10.401-.112-.6c-.033-.084.1-.225.16-.175 1.333 1.109 14.875 10.816 17.064 12.408 1.252.91 3.028.295 2.91-.703l-1.912-16.07c-.122-1.033 1.258-1.82 1.75-1.925l.876-.188c.116-.025.13-.132.114-.275l-.095-.836c-.02-.172-.06-.224-.322-.191-.322.04-3.642.505-5.4.726-2.169.272-1.985.26-2.306.3-.234.028-.258.092-.239.233l.137 1.024c.023.169.061.248.208.234l.985-.09c.677-.062 1.685.225 1.938.92.264.721 1.504 8.873 1.79 11.498m-60.81 12.255c-.113.03-.237.067-.172.259l1.32 3.907c.102.3.614.55.938.534 2.465-.12 2.693.348 6.113-.636 3.748-1.078 6.222-4.953 5.21-8.317-1.036-3.445-4.7-4.439-7.662-4.393-1.81.029-5.594.342-6.169-2.565-.266-1.346.658-2.864 2.867-3.385 3.032-.714 3.886.976 5.575 2.886.146.164.292.174.425.088l.832-.543c.077-.051.132-.099.094-.207l-1.235-3.513c-.617-1.757-4.862-.678-6.23-.238-3.455 1.11-6.007 3.7-4.892 7.579.757 2.636 4.336 4.38 6.948 4.33 4.06-.075 6.784.5 7.112 2.843.304 2.167-2.082 3.778-3.453 4.14-2.951.778-4.809-1.005-6.06-2.95-.11-.168-.15-.194-.263-.164zm152.062-27.498 4.444 1.04-2.981 1.51-2.888-.562zm-129.767 18.336c.059-.756.695-5.152.742-5.551.032-.271.083-.406.255-.448.144-.035.352-.132.572.257.368.652 2.569 3.996 3.032 4.772zm5.763.583c.59.922 2.257 3.533 2.754 4.48.356.682-.427.993-1.202 1.182l-.803.196c-.144.035-.145.155-.11.294l.129.532c.047.195.207.162.494.092.574-.14 1.985-.378 4.428-.857 3.71-.73 4.03-.707 4.576-.839.23-.056.21-.259.17-.427l-.13-.531c-.034-.14-.086-.208-.263-.203l-.7.02c-.442.012-1.258-.33-1.972-1.133-1.975-2.222-8.161-11.933-10.2-14.892-.185-.269-.49-.615-.661-.574-.454.11-2.083.207-2.107.33l-2.047 10.726c-.509 2.665-1.197 8.057-1.455 8.742-.368.979-.78 1.17-1.468 1.337l-.747.182c-.171.042-.18.134-.139.3l.13.532c.048.196.118.357.29.315.401-.098.815-.194 2.91-.705 2.353-.574 4.037-1.008 4.41-1.099.23-.056.237-.147.183-.37l-.15-.616c-.027-.112-.086-.225-.37-.147l-1.595.441c-.853.236-.92-.117-1.07-.732-.217-.895.55-4.504.636-5.148zM407.08 604.675c-.108.042-.19.073-.144.275 1.365 2.18.918 2.367 2.181 4.123.085.118.717.071 1.137.098 1.552.1 3.452.27 5.91-.67 3.603-1.38 4.466-5.117 3.19-8.448-.731-1.91-1.891-3.02-3.322-3.568-1.507-.582-3.133-.876-4.59-.756-2.033.179-5.142-.198-6.052-2.466-.283-.704-.3-2.356 1.643-3.574.654-.41 2.077-.35 2.983.27 1.185.81 1.802 1.851 2.406 2.528.155.16.481.108.634.074.362-.078.72-.229 1.053-.702.053-.075.116-.107.074-.216l-2.3-3.884c-.37-.514-3.116-.343-5.022.174-3.297.893-5.023 4.414-3.847 7.484.606 1.583 1.742 3.078 2.981 3.655 1.713.798 3.917 1.23 4.851 1.216 4.063-.022 6.215.148 6.97 2.696.656 2.213-1.411 3.556-2.722 4.057s-3.179.188-4.47-.802c-1.064-.814-1.278-1.241-1.656-2.067-.074-.191-.166-.187-.275-.146zm-22.626 1.189c1.121 3.662 1.879 5.695 2.778 6.704 2.482 2.885 5.28 2.976 9.942 1.527 4.11-1.278 6.412-4.107 4.363-9.885-.31-1.1-2.487-5.85-2.628-6.235-.14-.384-1.587-3.357-1.672-3.761-.046-.295.137-1.038 1.18-1.42l.852-.313c.138-.05.107-.165.064-.335l-.25-.988c-.035-.142-.118-.237-.365-.147-2.229.818-5.334 1.522-6.743 2.038-.164.06-.175.126-.121.262l.412 1.052c.052.135.102.192.272.148l.897-.228c.482-.123 1.613-.195 1.984.479.342.591 1.37 3.154 2.308 5.423l1.832 4.434c1.925 4.659.008 6.548-2.753 7.468-3.958 1.319-5.44-.728-6.486-3.392-.349-.868-1.738-4.314-2.272-5.77l-.664-1.811c-.513-1.4-1.284-3.352-1.367-3.664-.147-.57.26-1.037 1.193-1.38l.934-.342c.192-.07.195-.134.15-.273l-.348-1.033c-.055-.166-.108-.209-.327-.129-.302.11-1.952.561-4.447 1.188-2.938.738-4.07.889-4.513 1.007-.224.06-.208.141-.166.31l.279 1.128c.048.196.523.12.695.083l1.61-.342c.6-.127 1.301 1.416 1.6 2.393zm-13.438 10.853c.067.525-.737 1.358-1.303 1.5l-1.787.445c-.168.042-.183.137-.13.333l.338 1.234c.061.223.112.332.339.278.396-.095 2.359-.754 5.37-1.485 3.153-.765 4.685-.885 4.968-.953.255-.061.248-.15.23-.296l-.16-1.235c-.025-.203-.093-.241-.353-.215l-2.591.273c-.696.074-.807-1.273-1.036-1.97l-3.704-14.32.619-.133c.657-.142 2.628-.679 3.442-.425 1.027.247 1.407 1.53 2.28 2.833.162.171.24.242.346.186l1.123-.578c.078-.05.108-.177.052-.283-.593-1.451-1.821-5.219-2.059-5.824-.139-.327-.496-.362-.695-.315a.83.83 0 0 0-.587.641c-.351 1.604-1.265 1.11-1.883 1.29-3.566 1.049-7.423 2.01-11.184 2.7-1.037.193-1.583-.494-1.992-.816-.332-.25-.951-.4-1.15-.351-.198.048-.313.196-.309.587.025.595.13 4.33.107 5.6-.007.092.055.227.176.228l.68.075c.121 0 .185-.105.236-.268.462-1.196 1.136-2.715 1.75-3.22 1.005-.83 2.63-.62 3.697-.78l1.238-.185zm-24.348-11.881c-.06-.35-.185-.593-.038-.913.2-.237 1.197-.397 1.693-.398 2.257-.004 4.053 1.324 4.47 3.528.37 1.95.086 4.087-3.726 4.66-.259.038-.607.166-1.161.22zm-1.575 15.763c.24 1.341-.8 1.746-1.43 1.868l-.961.186c-.142.028-.132.11-.11.254l.138.908c.03.202.044.289.275.255.317-.047 1.648-.417 4.729-.752 3.152-.344 4.922-.368 4.95-.371.428-.064.44-.126.418-.33l-.123-1.125c-.016-.145-.063-.208-.266-.196l-1.424.084c-.815.047-1.794-.158-1.943-.757-.115-.367-.651-3.599-.945-5.299l-.344-1.99 2.277-.458c1.293-.26 5.427 9.058 7.347 8.927 2.063-.31 3.938-.47 5.957-.765.201-.029.382-.19.342-.36l-.141-.61c-.026-.113-.065-.226-.266-.196-.665.099-2.05-.257-2.512-.647-2.252-1.897-3.957-4.898-6.354-7.337-.06-.062-.077-.23.003-.263 1.454-.613 2.998-2.07 2.446-5.742-.476-3.17-3.873-4.49-6.998-4.082-1.188.155-3.787.61-5.407.853-3.156.475-4.376.561-4.636.6-.144.021-.153.083-.143.228l.09 1.287c.008.116.058.186.204.177l1.382-.09c.408-.027 1.014-.114 1.186.837.849 4.507 1.67 10.368 2.26 14.906zm-12.435 1.667c-.064.709-.914 1.199-1.497 1.242l-.845.063c-.145.01-.229.077-.22.192l.076 1.107c.013.174.106.226.252.215.32-.023 1.643-.261 4.704-.49 2.77-.205 4.488-.244 4.838-.27q.261-.018.249-.194l-.08-1.097c-.01-.146-.103-.188-.249-.187l-1.982.014c-.554.004-.85-.58-.94-1.482l-1.483-14.86c-.052-.523.178-1.249.904-1.332l1.202-.139c.145-.016.227-.075.218-.221l-.073-1.142c-.011-.174-.079-.257-.224-.247-.408.03-1.317.282-4.29.503-2.858.213-4.409.332-4.758.357-.116.008-.2.074-.192.19l.082 1.146c.008.115.101.147.247.157l1.381.102c.612.045.944.187 1.055.882zm-12.717-15.917c.005.173.043.259.16.255l1.787-.057c.586-.018.89-.015 1 .146.22.323.255.655.003 1.43l-2.61 10.915c-.052.22-.524.304-.624.102l-5.24-10.639c-.184-.375-.218-.72-.14-.988.108-.364.578-.613 1.276-.691l1.255-.142c.204-.023.225-.129.22-.275l-.035-1.028c-.006-.175-.044-.26-.306-.247s-1.992.269-5.013.358c-3.305.097-4.107-.019-4.398-.005-.174.008-.196.07-.194.215l.018 1.235c.002.145.045.28.162.284l.909.035c.613.023 1.335.11 1.662.767l8.025 17.42c.195.371.575.85 1.197.79.676-.068.91-.153 1.096-.514l4.649-18.128c.682-1.325 1.057-1.512 1.93-1.558l.672-.035c.176-.009.196-.099.194-.215l-.02-1.123c-.003-.206-.045-.26-.218-.252-.261.012-.69.066-3.405.208-1.954.101-3.624.238-3.886.25-.144.006-.168.069-.164.213zm-32.118 18.826c-3.098-.168-6.047-2.383-5.642-9.858.214-3.977 1.138-8.894 6.106-8.625 2.452.133 6.069 2.578 5.896 10.072-.071 3.106-.958 8.705-6.36 8.411m-.57 1.697c6.175.324 11.412-3.613 11.752-9.906.356-6.571-3.739-11.607-10.227-11.959-7.008-.379-11.029 4.068-11.395 10.841-.366 6.766 4.473 10.741 9.87 11.024m-16.242-7.835c-.005.132-.317.12-.398.016l-4.692-6.034a6176 6176 0 0 0-6.24-8.723c-.217-.278-.537-.794-1.14-.827-1.852-.102-3.394-.314-5.235-.525-.555-.036-.786-.08-.932-.09-.145-.008-.174.049-.186.164l-.107.966c-.009.087.017.207.162.216l.766.104c1.456.123 2.571 1.278 2.33 2.984l-1.814 12.752c-.272 1.946-.835 2.452-2.528 2.237l-.956-.122c-.143-.018-.176.079-.186.164l-.142 1.124c-.025.202.013.264.128.272.292.019 3.428.324 4.332.381 1.371.088 3.54.524 3.83.542.204.012.226-.045.249-.219l.13-.992c.022-.173-.017-.243-.217-.276l-.777-.131c-1.21-.204-2.154-.848-2.104-2.544l1.613-11.853c.011-.078.187-.047.234.015 3.75 4.925 8.869 12.736 12.853 16.997.3.342 1.047.513 1.484.54.408.026 1.004-.572 1.024-1.01l.813-17.65c.155-1.044 1.304-1.259 1.8-1.227l.817.052c.117.007.155-.107.163-.253l.045-.822c.01-.176-.015-.236-.277-.253-.32-.02-1.815-.12-3.565-.231-2.159-.138-2.75-.183-3.072-.203-.232-.015-.266.042-.275.187l-.047.73c-.011.174.012.386.158.395l.934.06c.671.043 1.345.497 1.474 1.238zm-40.476-6.363c-1.112 4.6-.077 8.485 6.475 9.711 5.516 1.033 8.664-1.691 9.542-5.076l1.963-12.562c.11-.278.456-1.011 1.549-.812l.892.163c.143.027.202-.081.225-.255l.106-.83c.019-.145.112-.396-.146-.443-.259-.047-1.196-.13-2.749-.413-1.956-.358-3.264-.686-3.551-.738-.172-.031-.205.023-.238.164l-.277 1.152c-.034.14-.014.235.159.266l.92.169c.49.089 1.183.438 1.161 1.207l-1.472 11.309c-.408 3.136-2.973 5.391-6.782 4.778-3.188-.513-4.063-3.46-3.597-6.366l2.115-10.534c.162-.564.543-1.477 1.523-1.312l1.616.272c.201.034.246-.183.266-.328l.156-1.104c.024-.174.012-.236-.217-.277-.316-.057-2.146-.207-4.676-.668-3.02-.55-4.246-1.066-4.533-1.118-.23-.04-.274.012-.301.183l-.22 1.366c-.032.2-.016.253.154.296l1.952.49c.595.15.59.528.35 1.521zm-12.781 4.102c.03-.113.019-.19-.173-.259l-.923-.334c-.384-.14-1.034-.634-1.298-1.34l-3.118-10.073 7.072-5.762c.289-.235 1.183-.61 1.946-.405l.762.204c.142.038.185-.01.238-.208l.174-.65c.038-.141.04-.262-.157-.315-.283-.075-1.322-.264-2.876-.68-2.174-.584-3.779-1.093-4.09-1.176-.168-.045-.21.005-.25.145l-.283.969c-.04.14-.04.26.102.3l.828.236c1.345.384 1.875.632 1.469.983l-5.45 4.714-1.518-6.456c-.093-.397.928-.539 1.586-.4l.724.154c.23.048.277-.016.323-.186l.174-.65c.038-.14.02-.412-.176-.464-.255-.068-2.364-.565-5.188-1.323-2.852-.765-3.792-1.218-4.074-1.293-.112-.03-.162.049-.202.188l-.32 1.119c-.032.112-.032.234.08.264l.96.257c.255.068 1.305.416 1.437.979l2.652 10.06-7.579 5.883c-.818.62-2.567.41-3.018.289l-.678-.182c-.14-.038-.189.04-.223.152l-.258.837c-.06.194.132.431.273.468.253.068 1.857.4 3.523.847 2.287.613 3.967 1.089 4.249 1.163.196.053.244-.025.294-.193l.253-.847c.026-.084-.003-.132-.18-.23l-.838-.463c-.582-.323-1.414-1.236-1.09-1.487l5.868-4.55c.1.027 2.087 6.304 2.015 6.714-.229 1.313-2.266.708-2.905.573l-.537-.114c-.142-.03-.19.04-.222.152l-.227.781c-.048.168-.04.262.158.315.197.053 3.47.528 5.73 1.134 3.22.864 4.185 1.215 4.411 1.275.197.053.255-.053.287-.165zm-27.585-25.665c.287-.726 2.394.03 3.527.306.726.31 3.644 1.079 4.082 1.653.707 1.654.407 3.927.46 4.198.03.167.399.355.68.328.173-.018.292.08.52-.052.251-.144 1.735-4.737 1.778-5.237.004-.092-.16-.243-.297-.295s-.677-.196-1.114-.363l-11.478-3.787c-2.486-.95-3.467-1.248-4.068-1.477-.163-.062-.23.037-.264.118l-.476 1.124c-.079.189-.077.284.032.326l1.066.407c.738.281 1.791.624 1.566 1.54l-6.185 14.473c-.4.94-1.395 1.31-2.947.888l-1.083-.294c-.196-.054-.312-.025-.367.141l-.257.78c-.072.222-.06.323.132.396.245.093 5.786 1.457 8.77 2.568 4.533 1.475 7.455 2.532 9.191 3.046.336.1.582.035.758-.18l3.17-4.836c.172-.269-.22-.557-.386-.603-.24-.067-.907-.182-1.138.076-.935 1.047-2.393 2.378-3.32 2.68-.93.3-2.904-.15-3.472-.305-1.1-.305-3.296-.9-4.277-1.61-.337-.244-1.032-.542-.462-1.95l2.479-6.122c1.202.46 1.837.627 2.616.9.583.203 2.994.661 3.274 1.66.072.952-.335 2.332-.393 2.81-.018.212.015.288.135.303l.708.113c.147.025.266.04.302-.135.164-.594.875-2.68 1.344-3.908.365-.956 1.462-3.286 1.72-3.719.09-.153-.008-.222-.134-.302l-.706-.364c-.137-.052-.24-.028-.313.163-.198.519-1.372 2.068-1.824 2.365-.598.335-1.074.434-1.582.366-.357-.043-3.367-1.094-4.624-1.574zm-73.734-371.639 9.975-4.538 1.654-.752.77 1.652 2.266 4.855 1.037-.448-1.84-4.768-.652-1.69 1.682-.678 10.237-4.124 1.667-.672.708 1.658 2.17 5.071 1.155-.481-1.892-4.814-.71-1.807 1.847-.611 10.497-3.47 1.706-.564.605 1.7 5.175 14.55.624 1.756-1.776.598a533 533 0 0 0-19.782 7.095 428 428 0 0 0-19.176 7.83l-1.65.723-.754-1.636-6.45-13.988-.776-1.681zm9.846-.431-6.638 3.02 4.922 10.672a436 436 0 0 1 17.683-7.183 531 531 0 0 1 18.152-6.537l-3.947-11.097-6.944 2.296 1.839 4.68.658 1.674-1.666.694-4.5 1.875-1.679.7-.718-1.68-2.178-5.091-6.89 2.776 1.823 4.722.635 1.645-1.621.7-4.294 1.857-1.636.708-.753-1.614z" style="fill:#2b2f88;fill-rule:evenodd" data-source="https://football-logos.cc"></path><path d="m128.435 233.04 2.277 4.663c4.344-2.029 9.058-3.966 13.872-5.815 4.849-1.861 9.68-3.591 14.322-5.229l-1.783-4.773 3.44-1.282L163 227.13l.655 1.752-1.77.623c-5.245 1.845-10.739 3.793-15.99 5.81-5.29 2.03-10.487 4.186-15.241 6.486l-1.65.798-.805-1.647-3.075-6.3zm69.366 60.217c-7.803 2.271-15.257 4.695-22.312 7.316-7.034 2.613-13.69 5.43-19.92 8.497l-1.69.831-.793-1.71-5.176-11.137-.787-1.695 1.716-.76c24.407-10.785 49.225-18.506 74.31-23.58 25.057-5.07 50.367-7.492 75.787-7.686 25.978-.197 51.654 2.347 76.8 7.652 24.976 5.27 49.429 13.256 73.139 23.979l1.779.805-.909 1.728c-1.356 2.583-2.562 5.462-3.75 8.295a357 357 0 0 1-.966 2.294l-.78 1.829-1.761-.923c-3.901-2.041-11.095-4.964-18.605-7.784-9.561-3.59-19.585-6.994-24.022-8.215l.964-3.54c4.536 1.247 14.696 4.694 24.339 8.315 6.616 2.484 13.014 5.06 17.239 7.082l.196-.469c.961-2.294 1.935-4.619 3.014-6.849-22.93-10.222-46.538-17.866-70.625-22.948-24.908-5.255-50.33-7.776-76.038-7.58-25.184.192-50.259 2.59-75.082 7.613-24.209 4.898-48.194 12.301-71.827 22.597l3.594 7.737c5.832-2.795 12.035-5.39 18.573-7.818 7.152-2.657 14.691-5.11 22.57-7.403z" style="fill:#2b2f88;fill-rule:evenodd"></path><path d="m135.166 237.8 19.332 56.513-3.484 1.18-19.331-56.512zm16.739-6.882c6.509 11.735 12.612 23.623 18.714 35.51a2466 2466 0 0 0 9.17 17.745l-3.253 1.699a2443 2443 0 0 1-9.184-17.774c-6.065-11.814-12.131-23.63-18.657-35.396z" style="fill:#2b2f88;fill-rule:evenodd"></path><path d="m165.985 289.682-13.575-26.624a24 24 0 0 0-1.469-2.513c-1.13-1.662-2.545-3.204-4.198-4.006-1.493-.725-3.264-.827-5.314.218q-.609.31-1.16.684l-2.06-3.037q.83-.562 1.55-.93c3.234-1.647 6.108-1.446 8.582-.246 2.312 1.123 4.19 3.129 5.637 5.259a27 27 0 0 1 1.714 2.901l13.575 26.625zm-20.365-48.046a1.84 1.84 0 0 1 3.21-1.8l8.776 15.676a1.84 1.84 0 0 1-3.21 1.799zm26.852-42.442 10.312-3.263 1.793-.567.525 1.812 1.497 5.168 1.228-.303-1.249-5.078-.44-1.79 1.794-.434 10.537-2.55 1.732-.418.47 1.721 1.402 5.13 1.078-.267-1.1-5.244-.382-1.825 1.837-.356 10.65-2.062 1.774-.344.37 1.776 1.053 5.04 1.126-.227-.802-4.913-.294-1.799 1.798-.31 10.8-1.856 1.845-.317.285 1.857.808 5.265 1.132-.172-.563-5.262-.192-1.8 1.797-.223 10.557-1.311 1.806-.224.238 1.814 2.026 15.45.258 1.963-1.978.11c-9.69.543-20.673 2.076-32.448 4.48-11.876 2.426-24.581 5.746-37.606 9.84l-1.784.562-.527-1.806-4.373-15-.502-1.726zm9.628.817-6.808 2.153 3.345 11.473c12.484-3.866 24.693-7.024 36.18-9.37 11.17-2.282 21.642-3.79 31.006-4.43l-1.533-11.685-6.954.864.558 5.214.187 1.75-1.742.265-4.687.712-1.815.276-.28-1.823-.803-5.23-7.156 1.23.792 4.857.285 1.744-1.738.35-4.65.938-1.787.36-.373-1.785-1.054-5.05-7.04 1.364 1.08 5.15.363 1.732-1.724.427-4.537 1.125-1.736.43-.474-1.733-1.404-5.14-7.012 1.696 1.247 5.073.44 1.785-1.786.44-4.725 1.162-1.712.42-.49-1.694z" style="fill:#2b2f88;fill-rule:evenodd"></path><path d="m182.367 214.4 1.62 4.858a446 446 0 0 1 30.956-7.469 412 412 0 0 1 28.08-4.712l-.296-5.088 3.67-.201.395 6.787.099 1.704-1.704.218a408 408 0 0 0-29.524 4.891c-10.264 2.086-21.034 4.679-32.367 7.883l-1.681.476-.557-1.67-2.175-6.526z" style="fill:#2b2f88;fill-rule:evenodd"></path><path d="m194.71 218.565 7.8 59.25-3.641.476-7.801-59.251zm54.272 50.347-16.5-58.237 3.541-.993 16.5 58.237zm-39.834 6.58-1.72-30.341c-.18-3.181.646-6.476 2.505-9.035 1.684-2.318 4.188-4.033 7.527-4.545 3.105-.475 5.993.228 8.344 1.528 2.807 1.553 4.88 4.004 5.672 6.348l10.087 29.85-3.483 1.166-10.088-29.85c-.518-1.533-1.962-3.184-3.958-4.289-1.704-.942-3.792-1.453-6.026-1.111-2.269.348-3.962 1.503-5.095 3.062-1.351 1.86-1.948 4.296-1.814 6.674l1.72 30.342zm-9.984-51.045a1.836 1.836 0 0 1 3.656-.33l1.575 17.4a1.836 1.836 0 0 1-3.656.33zm28.272-5.468a1.84 1.84 0 0 1 3.512-1.095l5.457 17.363a1.84 1.84 0 0 1-3.512 1.094zm34.797-36.583 10.538-.412 1.845-.072.063 1.85.164 4.822h1.139l.07-5.274.024-1.787 1.79-.027 11.044-.169 1.852-.028.005 1.864.014 5.037 1.026.017.07-5.45.024-1.83 1.826.015 10.482.094 1.83.016-.009 1.826-.027 5.41 1.328.01.167-5.146.06-1.829 1.826.051 10.727.3 1.854.052-.07 1.848-.191 5.09 1.453.01.393-5.076.14-1.807 1.803.108 10.575.638 1.862.113-.135 1.852-1.125 15.45-.134 1.84-1.83-.134c-12.05-.887-23.985-1.436-35.845-1.495-11.905-.06-23.791.367-35.718 1.431l-1.91.17-.084-1.919-.679-15.544-.08-1.842zm8.838 3.331-6.85.268.515 11.788c11.406-.955 22.768-1.338 34.139-1.281 11.436.057 22.834.555 34.258 1.363l.856-11.76-6.908-.416-.385 4.98-.133 1.711-1.71-.012-5.063-.038-1.9-.014.072-1.886.193-5.127-7.046-.197-.165 5.109-.059 1.791-1.784-.013-4.95-.038-1.838-.014.01-1.829.027-5.412-6.826-.06-.07 5.463-.023 1.844-1.841-.03-4.669-.075-1.801-.028-.005-1.807-.014-4.98-7.402.113-.07 5.3-.024 1.814h-6.537l-1.775.001-.06-1.778z" style="fill:#2b2f88;fill-rule:evenodd"></path><path d="m268.869 199.418.123 5.23c10.227-.722 20.845-1.173 31.572-1.212 9.55-.033 19.113.26 28.468.982l.468-5.01 3.657.33-.638 6.826-.17 1.82-1.81-.15c-9.92-.827-19.992-1.162-29.975-1.127-11.206.04-22.409.547-33.232 1.352l-1.92.143-.045-1.936-.169-7.162z" style="fill:#2b2f88;fill-rule:evenodd"></path><path d="m271.685 265.9 4.125-60.018 3.671.245-4.125 60.019zm50.326-.035-4.05-60.113 3.67-.245 4.051 60.113zm-39.436-.608 3.45-27.413c.445-3.536 1.695-7.42 4.064-10.252 1.995-2.386 4.742-4.035 8.41-4.185 3.696-.152 6.686 1.339 8.911 3.688 2.494 2.634 3.99 6.362 4.39 9.99l3.074 27.975-3.656.39-3.075-27.976c-.317-2.885-1.476-5.818-3.396-7.845-1.537-1.624-3.588-2.655-6.104-2.551-2.486.102-4.361 1.234-5.732 2.874-1.875 2.242-2.876 5.414-3.244 8.338l-3.45 27.413zm.049-52.593a1.836 1.836 0 0 1 3.656.331l-1.687 17.926a1.836 1.836 0 0 1-3.656-.331zm28.802.286a1.839 1.839 0 0 1 3.656-.39l1.912 17.813a1.839 1.839 0 0 1-3.656.389zm169.871 6.522-9.975-4.538-1.654-.752-.771 1.652-2.266 4.855-1.037-.448 1.84-4.768.653-1.69-1.682-.678-10.238-4.124-1.666-.672-.709 1.658-2.169 5.071-1.156-.481 1.892-4.814.71-1.807-1.847-.611-10.497-3.47-1.705-.564-.605 1.7-5.175 14.55-.625 1.756 1.776.598a533 533 0 0 1 19.783 7.095 428 428 0 0 1 19.176 7.83l1.649.723.755-1.636 6.45-13.988.775-1.681zm-9.846-.431 6.638 3.02-4.922 10.672a436 436 0 0 0-17.683-7.183 531 531 0 0 0-18.152-6.537l3.947-11.097 6.944 2.296-1.84 4.68-.657 1.674 1.665.694 4.5 1.875 1.68.7.717-1.68 2.178-5.091 6.89 2.776-1.823 4.722-.635 1.645 1.621.7 4.294 1.857 1.636.708.754-1.614z" style="fill:#2b2f88;fill-rule:evenodd"></path><path d="m469.297 233.04-2.277 4.663c-4.344-2.029-9.059-3.966-13.872-5.815-4.85-1.861-9.681-3.591-14.322-5.229l1.783-4.773-3.44-1.282-2.437 6.526-.655 1.752 1.77.623c5.245 1.845 10.738 3.793 15.99 5.81 5.29 2.03 10.486 4.186 15.24 6.486l1.65.798.805-1.647 3.075-6.3z" style="fill:#2b2f88;fill-rule:evenodd"></path><path d="m462.565 237.8-19.332 56.513 3.484 1.18 19.332-56.512zm-16.739-6.882c-6.508 11.735-12.611 23.623-18.714 35.51a2466 2466 0 0 1-9.17 17.745l3.253 1.699a2404 2404 0 0 0 9.185-17.774c6.065-11.814 12.13-23.63 18.656-35.396z" style="fill:#2b2f88;fill-rule:evenodd"></path><path d="m431.746 289.682 13.575-26.624c.432-.847.926-1.713 1.47-2.513 1.129-1.662 2.544-3.204 4.197-4.006 1.493-.725 3.264-.827 5.314.218q.608.31 1.161.684l2.059-3.037a15 15 0 0 0-1.55-.93c-3.234-1.647-6.108-1.446-8.581-.246-2.313 1.123-4.19 3.129-5.638 5.259a27 27 0 0 0-1.714 2.901l-13.575 26.625zm20.364-48.046a1.84 1.84 0 0 0-3.21-1.8l-8.775 15.676a1.84 1.84 0 0 0 3.21 1.799zm-26.85-42.442-10.313-3.263-1.793-.567-.525 1.812-1.496 5.168-1.228-.303 1.248-5.078.44-1.79-1.793-.434-10.538-2.55-1.732-.418-.47 1.721-1.401 5.13-1.078-.267 1.099-5.244.382-1.825-1.836-.356-10.65-2.062-1.775-.344-.37 1.776-1.053 5.04-1.125-.227.802-4.913.293-1.799-1.797-.31-10.8-1.856-1.846-.317-.285 1.857-.808 5.265-1.13-.172.561-5.262.193-1.8-1.798-.223-10.557-1.311-1.806-.224-.238 1.814-2.026 15.45-.257 1.963 1.977.11c9.691.543 20.673 2.076 32.449 4.48 11.876 2.426 24.58 5.746 37.606 9.84l1.783.562.527-1.806 4.373-15 .503-1.726zm-9.628.817 6.807 2.153-3.345 11.473c-12.483-3.866-24.693-7.024-36.18-9.37-11.17-2.282-21.642-3.79-31.005-4.43l1.532-11.685 6.954.864-.557 5.214-.188 1.75 1.742.265 4.688.712 1.814.276.28-1.823.803-5.23 7.157 1.23-.793 4.857-.285 1.744 1.739.35 4.65.938 1.786.36.373-1.785 1.055-5.05 7.04 1.364-1.08 5.15-.363 1.732 1.723.427 4.538 1.125 1.736.43.473-1.733 1.405-5.14 7.012 1.696-1.248 5.073-.439 1.785 1.785.44 4.726 1.162 1.711.42.491-1.694z" style="fill:#2b2f88;fill-rule:evenodd"></path><path d="m415.365 214.4-1.62 4.858a446 446 0 0 0-30.957-7.469 412 412 0 0 0-28.079-4.712l.296-5.088-3.671-.201-.394 6.787-.099 1.704 1.704.218a408 408 0 0 1 29.523 4.891c10.264 2.086 21.034 4.679 32.367 7.883l1.682.476.557-1.67 2.174-6.526z" style="fill:#2b2f88;fill-rule:evenodd"></path><path d="m403.022 218.565-7.801 59.25 3.642.476 7.8-59.251zm-54.272 50.347 16.5-58.237-3.542-.993-16.5 58.237zm39.833 6.58 1.72-30.341c.18-3.181-.645-6.476-2.504-9.035-1.685-2.318-4.188-4.033-7.528-4.545-3.104-.475-5.993.228-8.344 1.528-2.806 1.553-4.88 4.004-5.671 6.348l-10.088 29.85 3.484 1.166 10.087-29.85c.518-1.533 1.962-3.184 3.959-4.289 1.704-.942 3.791-1.453 6.026-1.111 2.268.348 3.962 1.503 5.095 3.062 1.35 1.86 1.948 4.296 1.813 6.674l-1.72 30.342zm9.985-51.045a1.836 1.836 0 0 0-3.656-.33l-1.575 17.4a1.836 1.836 0 0 0 3.656.33zm-28.273-5.468a1.84 1.84 0 0 0-3.512-1.095l-5.456 17.363a1.84 1.84 0 0 0 3.512 1.094z" style="fill:#2b2f88;fill-rule:evenodd"></path><path d="M170.102 268.472a299 299 0 0 1 4.504-1.8l-4.498-12.142q-3.24 1.115-6.48 2.253l-1.21-3.47c5.58-1.957 11.161-3.882 16.76-5.69 5.62-1.813 11.241-3.505 16.871-4.986l.936 3.556q-3.613.95-7.206 2.005l3.796 12.096q2.043-.557 4.083-1.043l.849 3.584c-4.038.962-8.075 2.141-12.068 3.462l4.663 14.257-3.498 1.137-4.646-14.205a249 249 0 0 0-11.474 4.383zm7.942-3.113c1.877-.7 3.76-1.376 5.639-2.016 2.11-.72 4.23-1.403 6.354-2.037l-3.783-12.055a386 386 0 0 0-5.953 1.87 516 516 0 0 0-6.709 2.22zm236.897 2.39-4.58 13.677-3.484-1.166 4.596-13.72c-4.137-1.424-8.274-2.764-12.411-3.872l.95-3.555q2.15.577 4.295 1.226l3.971-12.029a341 341 0 0 0-7.229-2.007l.936-3.555a357 357 0 0 1 16.319 4.756 395 395 0 0 1 17.29 5.942l-1.266 3.454a406 406 0 0 0-6.611-2.375l-4.418 12.29c1.524.539 3.045 1.072 4.56 1.59l-1.18 3.483a634 634 0 0 1-7.967-2.8q-1.885-.672-3.77-1.338m-168.35-17.907q1.942-.286 3.915-.555l-1.736-12.795q-3.425.457-6.896.973l-.532-3.642c5.69-.844 11.336-1.585 17.076-2.177a271 271 0 0 1 17.35-1.25l.13 3.67c-2.286.09-4.55.21-6.8.359l.978 12.795q2.184-.158 4.37-.278l.2 3.67c-4.062.224-8.135.55-12.184.957l1.397 14.605-3.656.346-1.393-14.561c-3.914.44-7.822.956-11.687 1.525zm7.558-1.031a329 329 0 0 1 6.24-.724q3-.319 6.017-.578l-.979-12.816c-2.22.178-4.429.382-6.635.61q-3.18.328-6.377.723zm68.873-1.861q2.45.084 4.908.23l.943-12.996a324 324 0 0 0-6.724-.287l.115-3.671c5.039.166 10.575.445 16.368.988 5.803.544 11.854 1.352 17.902 2.575l-.72 3.599a147 147 0 0 0-6.27-1.124l-1.787 13.103q2.118.341 4.237.727l-.648 3.613a199 199 0 0 0-11.89-1.798l-1.54 14.706-3.657-.374 1.544-14.738a192 192 0 0 0-12.896-.882zm8.58.483a198 198 0 0 1 12.521 1.383l1.784-13.083c-2.567-.345-5.11-.629-7.606-.863a226 226 0 0 0-5.754-.462zm76.22 14.006c4.015 1.297 8.017 2.722 12.018 4.147l4.406-12.255a378 378 0 0 0-12.434-3.978zm-253.476-24.1a290 290 0 0 1 19.039-6.735A319 319 0 0 1 193.463 225l.863 3.57a315 315 0 0 0-19.832 5.547 287 287 0 0 0-18.808 6.649zm82.095-21.066c6.803-1.047 13.604-1.815 20.4-2.407 6.688-.583 13.505-1 20.373-1.347l.173 3.67c-6.667.338-13.387.751-20.23 1.348-6.735.586-13.461 1.346-20.17 2.378zm84.426-3.815c5.465.175 12.98.634 20.892 1.368 6.55.608 13.367 1.404 19.514 2.382l-.576 3.627c-6.08-.967-12.81-1.753-19.27-2.353-7.823-.725-15.26-1.18-20.675-1.353zm83.008 12.784a323 323 0 0 1 19.858 5.468c6.626 2.046 13.291 4.308 20.097 6.77l-1.253 3.456c-6.759-2.446-13.368-4.69-19.924-6.713-6.58-2.031-13.09-3.84-19.627-5.41z" style="fill:#2b2f88;fill-rule:evenodd"></path><path d="M124.565 232.733a436 436 0 0 1 17.683-7.183 531 531 0 0 1 18.152-6.537l-3.947-11.097-6.944 2.296 1.839 4.68.658 1.674-1.666.694-4.5 1.875-1.679.7-.718-1.68-2.178-5.091-6.89 2.776 1.823 4.722.635 1.645-1.621.7-4.294 1.857-1.636.708-.753-1.614-2.248-4.817-6.638 3.02zm18.993-3.743a444 444 0 0 0-14.3 5.734l1.454 2.98c4.344-2.03 9.058-3.967 13.872-5.816 4.849-1.861 9.68-3.591 14.322-5.229l-1.074-2.875a521 521 0 0 0-14.274 5.206m31.735-26.826 3.344 11.473c12.484-3.866 24.693-7.024 36.18-9.37 11.17-2.282 21.642-3.79 31.006-4.43l-1.533-11.685-6.954.864.558 5.214.187 1.75-1.742.265-4.687.712-1.815.276-.28-1.823-.803-5.23-7.156 1.23.792 4.857.285 1.744-1.738.35-4.65.938-1.787.36-.373-1.785-1.054-5.05-7.04 1.364 1.08 5.15.363 1.732-1.724.427-4.537 1.125-1.736.43-.474-1.733-1.404-5.14-7.012 1.696 1.247 5.073.44 1.785-1.786.44-4.725 1.162-1.712.42-.49-1.694-1.463-5.05zm40.259 5.701c-10.349 2.114-21.326 4.907-32.597 8.3l1.031 3.093a446 446 0 0 1 30.957-7.469 412 412 0 0 1 28.08-4.712l-.193-3.32c-8.364.73-17.55 2.122-27.278 4.108m49.184-10.082c11.406-.955 22.769-1.338 34.139-1.281 11.437.057 22.834.555 34.258 1.363l.856-11.76-6.908-.416-.385 4.98-.133 1.711-1.71-.012-5.063-.038-1.9-.014.072-1.886.193-5.127-7.046-.197-.165 5.109-.059 1.791-1.784-.013-4.95-.038-1.838-.014.01-1.829.027-5.412-6.826-.06-.07 5.463-.023 1.844-1.841-.03-4.669-.075-1.801-.028-.005-1.807-.014-4.98-7.402.113-.07 5.3-.024 1.814h-6.537l-1.775.001-.06-1.778-.162-4.75-6.85.268zm34.124 2.39c-9.984-.05-19.957.242-29.95.966l.082 3.51c10.227-.723 20.845-1.174 31.572-1.213 9.55-.033 19.113.26 28.468.982l.292-3.124c-10.225-.666-20.37-1.07-30.464-1.121m53.049-.335c9.363.639 19.835 2.147 31.005 4.429 11.487 2.346 23.697 5.504 36.18 9.37l3.345-11.473-6.807-2.153-1.463 5.05-.49 1.695-1.712-.421-4.726-1.163-1.785-.439.44-1.785 1.247-5.073-7.012-1.696-1.405 5.14-.473 1.734-1.736-.43-4.538-1.126-1.723-.427.363-1.732 1.08-5.15-7.04-1.364-1.055 5.05-.373 1.785-1.786-.36-4.65-.938-1.739-.35.285-1.744.793-4.857-7.157-1.23-.803 5.23-.28 1.823-1.814-.276-4.688-.712-1.741-.264.187-1.751.557-5.214-6.954-.864zm30.271 8.027c-9.728-1.986-18.914-3.378-27.278-4.107l-.193 3.319a412 412 0 0 1 28.08 4.712 446 446 0 0 1 30.956 7.469l1.031-3.093c-11.27-3.393-22.248-6.186-32.596-8.3m55.152 11.148a531 531 0 0 1 18.152 6.537 436 436 0 0 1 17.683 7.183l4.922-10.672-6.638-3.02-2.248 4.817-.754 1.614-1.636-.708-4.293-1.856-1.622-.701.635-1.646 1.823-4.721-6.89-2.776-2.178 5.092-.718 1.678-1.678-.7-4.5-1.874-1.666-.694.658-1.674 1.839-4.68-6.944-2.296zm16.842 9.977a521 521 0 0 0-14.274-5.206l-1.074 2.875c4.64 1.638 9.473 3.368 14.322 5.23 4.813 1.848 9.528 3.785 13.872 5.814l1.454-2.979a444 444 0 0 0-14.3-5.734m-24.999 15.003 2.516-6.856a403 403 0 0 0-5.094-1.671l-2.294 6.934-6.625-2.22 2.23-6.791q-2.64-.792-5.272-1.537l-2.116 6.891-6.469-1.906 1.837-6.81a294 294 0 0 0-2.585-.656l-1.814 13.78a357 357 0 0 1 14.815 4.353 393 393 0 0 1 15.783 5.389 1124 1124 0 0 1 6.645-12.62q-1.256-.449-2.504-.888l-2.803 7.015zm-85.052 4.823 1.784-13.083c-2.567-.345-5.11-.629-7.606-.863a226 226 0 0 0-5.754-.462l-.945 13.025a198 198 0 0 1 12.521 1.383m5.42-12.552-1.786 13.103q1.292.208 2.585.433l3.62-12.774a150 150 0 0 0-4.419-.762m-26.243-6.003c4.757.17 9.933.447 15.332.953 5.302.497 10.81 1.214 16.334 2.267l3.944-13.92q-1.257-.19-2.54-.368l-.947 7.49-6.782-.782.742-7.593a352 352 0 0 0-5.269-.565l-.63 7.439-6.858-.625.53-7.446c-1.733-.142-3.43-.27-5.074-.384l-.443 7.456-6.985-.453.197-7.432q-1.3-.063-2.5-.11zm5.573 3.924c-1.821-.098-3.6-.176-5.325-.24l.88 13.058q1.75.073 3.502.177zm6.931 17.318a194 194 0 0 0-11.128-.813l.904 13.41q4.424.29 8.831.688zm3.653.407-1.387 13.228q3.848.387 7.684.858l3.582-12.645a199 199 0 0 0-9.88-1.442m63.549-5.08-1.665 12.647q1.486.416 2.967.863l3.971-12.029a346 346 0 0 0-5.273-1.481m8.807 2.524-3.99 12.085c4.015 1.298 8.017 2.723 12.018 4.148l4.406-12.255a378 378 0 0 0-12.434-3.978m15.905 5.172-4.418 12.29q1.534.543 3.064 1.074l.75-1.46c1.752-3.415 3.505-6.83 5.268-10.241a400 400 0 0 0-4.664-1.663m-20.474 24.641 4.23-12.627c-3.54-1.218-7.079-2.374-10.618-3.377l-1.789 13.581q4.1 1.161 8.177 2.423m7.698-11.416-4.194 12.52a356 356 0 0 1 7.863 2.625c2.037-3.901 4.05-7.802 6.055-11.702a864 864 0 0 1-5.953-2.104zm-156.523-36.104a274 274 0 0 1 15.702-1.181l.973-14.154q-1.09.057-2.183.12l.193 7.3-6.984.452-.435-7.304q-2.526.172-5.072.373l.52 7.305-6.859.625-.62-7.322q-2.635.254-5.269.55l.733 7.49-6.782.782-.937-7.405a270 270 0 0 0-2.554.361l3.958 13.97a377 377 0 0 1 15.616-1.962m-7.912 17.642-1.736-12.796q-2.467.33-4.956.689l3.556 12.55zm1.909-13.262 1.734 12.785a329 329 0 0 1 6.24-.724q3-.319 6.017-.578l-.979-12.816c-2.22.178-4.429.382-6.635.61q-3.18.328-6.377.723m16.684-1.601.977 12.795q1.452-.105 2.906-.193l.885-12.873q-2.396.113-4.768.27m-9 31.005-1.289-13.47c-3.49.393-6.975.845-10.429 1.342l3.692 13.03q4.01-.493 8.026-.902m2.363-13.859 1.292 13.503q4.013-.372 8.033-.664l.94-13.683c-3.425.215-6.854.5-10.265.843m-83.283-3.945c5.016-1.62 10.035-3.142 15.06-4.503l-1.853-14.069q-1.3.328-2.6.666l1.92 7.119-6.468 1.906-2.207-7.185q-2.643.752-5.274 1.55l2.323 7.073-6.625 2.219-2.376-7.182q-2.557.84-5.085 1.723l2.589 7.052-6.25 2.407-2.838-7.101q-1.256.472-2.504.957a1119 1119 0 0 1 6.65 12.63c5.172-1.81 10.347-3.587 15.538-5.262m-4.573 19.048-4.498-12.142q-2.38.818-4.761 1.65c1.764 3.414 3.518 6.831 5.272 10.248l.779 1.517q1.599-.646 3.208-1.273m-1.014-13.331 4.452 12.018c1.877-.7 3.76-1.375 5.639-2.016 2.11-.72 4.23-1.403 6.354-2.037l-3.783-12.055a386 386 0 0 0-5.953 1.87 516 516 0 0 0-6.709 2.22m16.187-5.143 3.796 12.096a132 132 0 0 1 2.827-.737l-1.68-12.758q-2.475.675-4.943 1.399m-2.652 32.034-4.169-12.746a242 242 0 0 0-9.877 3.735 2043 2043 0 0 0 6.01 11.617q4.012-1.353 8.036-2.606m-.687-13.935 4.205 12.86a360 360 0 0 1 8.034-2.31l-1.793-13.614a151 151 0 0 0-10.446 3.064m-32.044-8.986-8.775-15.675a1.84 1.84 0 0 1 3.21-1.8l8.775 15.676a1.84 1.84 0 0 1-3.21 1.799m12.956 10.787c-5.845-11.384-11.69-22.77-17.946-34.11q-1.77.657-3.512 1.326a236 236 0 0 0-10.159 4.15l4.686 13.697c2.965-1.302 5.616-1.051 7.92.067 2.312 1.123 4.19 3.129 5.637 5.258a27 27 0 0 1 1.714 2.902l12.847 25.196q3.516-1.31 7.042-2.54a2769 2769 0 0 1-8.23-15.946" style="fill:#fff;fill-rule:evenodd"></path><path d="M150.941 260.545c-1.13-1.662-2.545-3.204-4.198-4.006-1.446-.702-3.154-.82-5.124.124l12.235 35.766a358 358 0 0 1 11.22-4.534l-12.664-24.837a24 24 0 0 0-1.469-2.513m51.879-36.429 1.575 17.4a1.836 1.836 0 0 1-3.656.331l-1.575-17.4a1.836 1.836 0 0 1 3.656-.33m-7.902-3.97 7.338 55.737q3.405-.9 6.816-1.73l-1.644-29.002c-.18-3.181.646-6.476 2.505-9.035 1.684-2.318 4.188-4.033 7.527-4.545 3.105-.475 5.993.228 8.344 1.528 2.807 1.553 4.88 4.004 5.672 6.348l9.596 28.397a384 384 0 0 1 7.312-1.041l-15.454-54.546c-5.606.893-11.36 1.93-17.267 3.131a433 433 0 0 0-20.745 4.758m32.518-1.167a1.84 1.84 0 0 1 3.512-1.095l5.457 17.363a1.84 1.84 0 0 1-3.512 1.094z" style="fill:#fff;fill-rule:evenodd"></path><path d="M212.913 238.275c-1.351 1.86-1.948 4.296-1.814 6.674l1.607 28.34a368 368 0 0 1 10.442-2.27 374 374 0 0 1 14.242-2.596l-9.398-27.81c-.518-1.533-1.962-3.185-3.958-4.289-1.705-.942-3.792-1.453-6.027-1.111-2.268.347-3.961 1.503-5.095 3.062m73.368-25.28-1.687 17.926a1.836 1.836 0 0 1-3.656-.331l1.687-17.926a1.836 1.836 0 0 1 3.656.331m-6.907-5.293-3.88 56.456a414 414 0 0 1 7.27-.396l3.262-25.918c.445-3.536 1.695-7.42 4.064-10.252 1.995-2.386 4.742-4.035 8.41-4.185 3.696-.152 6.686 1.339 8.911 3.688 2.494 2.634 3.99 6.362 4.39 9.99l2.908 26.467q3.59.127 7.17.325l-3.804-56.43a371 371 0 0 0-17.51-.34c-7.097.025-14.192.238-21.191.595m32.053 5.247a1.839 1.839 0 0 1 3.656-.389l1.912 17.813a1.839 1.839 0 0 1-3.656.389z" style="fill:#fff;fill-rule:evenodd"></path><path d="M292.91 229.952c-1.874 2.242-2.875 5.414-3.243 8.338l-3.187 25.318q6.223-.228 12.456-.275 6.042-.045 12.061.106l-2.854-25.965c-.317-2.885-1.476-5.818-3.396-7.845-1.537-1.624-3.588-2.655-6.104-2.551-2.486.102-4.361 1.234-5.732 2.874m77.384-10.973-5.456 17.362a1.84 1.84 0 0 1-3.512-1.094l5.456-17.363a1.84 1.84 0 0 1 3.512 1.095m-5.494-6.722-15.359 54.21q3.669.49 7.326 1.055l9.487-28.075c.792-2.344 2.866-4.795 5.672-6.348 2.351-1.3 5.24-2.003 8.344-1.528 3.34.512 5.843 2.227 7.528 4.545 1.859 2.559 2.684 5.854 2.504 9.035l-1.633 28.818a354 354 0 0 1 6.823 1.782l7.32-55.605a433 433 0 0 0-20.745-4.758 412 412 0 0 0-17.267-3.13m28.536 29.26 1.574-17.4a1.836 1.836 0 0 1 3.657.33l-1.575 17.4a1.836 1.836 0 0 1-3.656-.33" style="fill:#fff;fill-rule:evenodd"></path><path d="M373.698 236.324c-1.997 1.104-3.44 2.756-3.959 4.289l-9.292 27.497a353 353 0 0 1 24.59 4.97l1.595-28.13c.135-2.38-.462-4.815-1.813-6.675-1.133-1.56-2.827-2.715-5.095-3.062-2.235-.342-4.322.169-6.026 1.111m78.412 5.312-8.775 15.675a1.84 1.84 0 0 1-3.21-1.8l8.776-15.675a1.84 1.84 0 0 1 3.21 1.8m-3.785-7.648c-6.256 11.34-12.1 22.726-17.945 34.11a2739 2739 0 0 1-8.274 16.03q3.517 1.26 7.014 2.599l12.92-25.339a27 27 0 0 1 1.713-2.901c1.448-2.13 3.325-4.136 5.638-5.259 2.304-1.118 4.954-1.37 7.92-.067l4.685-13.697a236 236 0 0 0-10.159-4.15q-1.742-.668-3.512-1.326" style="fill:#fff;fill-rule:evenodd"></path><path d="M450.988 256.539c-1.653.802-3.068 2.344-4.198 4.006-.543.8-1.037 1.666-1.469 2.513l-12.751 25.009a359 359 0 0 1 11.213 4.641l12.33-36.045c-1.97-.944-3.678-.826-5.125-.124" style="fill:#fff;fill-rule:evenodd"></path><path d="m168.583 243.993-2.589-7.052q-3.275 1.143-6.499 2.358l2.838 7.1zm2.496-8.775 2.376 7.182 6.625-2.22-2.323-7.072a312 312 0 0 0-6.678 2.11m11.952-3.66 2.207 7.185 6.468-1.906-1.92-7.119q-3.386.883-6.755 1.84m58.367-12.281.937 7.405 6.782-.781-.733-7.492q-3.495.392-6.986.868m12.255-1.417.62 7.322 6.86-.625-.52-7.305a430 430 0 0 0-6.96.608m12.031-.981.435 7.304 6.984-.453-.193-7.3q-3.597.201-7.226.449m59.167-.581-.197 7.432 6.985.453.443-7.456a352 352 0 0 0-7.23-.43m12.303.814-.53 7.446 6.86.625.63-7.439a404 404 0 0 0-6.96-.632m12.228 1.197-.742 7.593 6.782.781.947-7.49c-2.286-.318-4.63-.613-6.987-.884m58.505 11.718-1.837 6.81 6.469 1.907 2.116-6.89q-3.377-.956-6.748-1.827m12.02 3.363-2.23 6.792 6.625 2.219 2.294-6.934a372 372 0 0 0-6.689-2.077m11.783 3.748-2.516 6.856 6.25 2.407 2.803-7.015a462 462 0 0 0-6.537-2.248m-230.61 66.293c-6.966 2.038-13.895 4.351-20.836 6.892-6.527 2.389-13.035 4.968-19.576 7.703.38.96.726 1.86 1.072 2.766.764 1.993 1.536 4.006 2.376 5.925 22.58-10.146 44.986-17.214 68.117-21.735 23.545-4.603 47.853-6.567 73.873-6.456 22.29.096 44.086 2.737 65.002 7.408 21.901 4.891 42.83 12 62.346 20.736a980 980 0 0 0 1.926-4.159c.63-1.363 1.26-2.727 1.906-4.111-6.483-2.778-12.976-5.405-19.519-7.824-6.996-2.587-14.069-4.945-21.268-7.006l.775-2.724c7.262 2.08 14.4 4.46 21.468 7.072 7.07 2.614 14.053 5.455 21.004 8.457l1.343.58-.623 1.325a810 810 0 0 0-2.517 5.416c-.83 1.798-1.66 3.596-2.527 5.44l-.593 1.26-1.267-.574c-19.729-8.93-40.906-16.183-63.062-21.13-20.73-4.63-42.326-7.248-64.405-7.342-25.812-.11-49.936 1.84-73.32 6.41-23.358 4.567-45.971 11.753-68.781 22.118l-1.268.576-.593-1.268c-1.16-2.485-2.105-4.951-3.039-7.387a201 201 0 0 0-1.563-4l-.531-1.295 1.289-.542c7.05-2.968 14.032-5.75 20.991-8.297 6.97-2.551 13.955-4.882 21.014-6.946z" style="fill:#2b2f88;fill-rule:evenodd"></path><path d="m442.329 306.65-4.838 10.387-2.569-1.196 4.838-10.387zm-283.875-.478 4.424 9.524-2.568 1.185-4.425-9.525zm8.705 295.323a1.982 1.982 0 0 1-1.938 3.457c-3.6-2.02-7.278-4.159-10.955-6.297a1206 1206 0 0 0-6.572-3.805 494 494 0 0 0 3.609 11.15c1.788 5.283 3.7 10.516 5.804 15.551a1.98 1.98 0 0 1-1.496 2.712v.001c-6.358 1.104-12.809 1.903-19.385 2.528-4.493.427-8.995.77-13.538 1.071a336 336 0 0 0 21.353 11.498 356 356 0 0 0 26.375 11.68c3.043-7.06 6.14-13.911 9.347-21.009 1.803-3.99 3.635-8.042 5.058-11.228a1.978 1.978 0 0 1 3.612 1.613c-2.012 4.505-3.552 7.91-5.058 11.243-3.486 7.713-6.84 15.134-10.052 22.646m-17.072-59.077c3.554 2.067 7.11 4.135 10.908 6.265m-21.863-12.562c3.6 2.019 7.278 4.158 10.955 6.297m-13.784-3.885a1.982 1.982 0 0 1 2.829-2.412m2.256 18.339c-1.781-5.261-3.459-10.637-5.085-15.927m10.037 29.422c-1.771-4.401-3.408-8.93-4.953-13.495m-11.697 15.584c5.591-.532 11.127-1.198 16.65-2.09m-36.418 3.544c6.766-.403 13.36-.845 19.768-1.454M115.212 628a1.98 1.98 0 0 1 .874-3.691m26.203 18.602A339 339 0 0 1 115.212 628m55.544 27.43a362 362 0 0 1-28.467-12.52m31.033 11.396a1.98 1.98 0 0 1-2.566 1.124m261.78-50.477a1.976 1.976 0 0 1-1.767-3.534 197 197 0 0 0 10.687-5.789c3.519-2.039 6.971-4.156 10.442-6.343a1.979 1.979 0 0 1 2.953 2.23 171 171 0 0 1-4.867 16.484c-1.524 4.362-3.16 8.538-4.86 12.639 5.36 1.091 10.662 1.886 16.07 2.487 6.245.694 12.623 1.135 19.385 1.483a1.98 1.98 0 0 1 .945 3.657c-8.269 5.17-17.028 9.982-26.195 14.494-9.145 4.502-18.694 8.703-28.565 12.662a1.98 1.98 0 0 1-2.565-1.082c-2.525-5.781-4.983-11.285-7.44-16.787-2.5-5.599-5-11.198-7.47-16.853a1.979 1.979 0 0 1 3.628-1.58c2.53 5.794 4.993 11.308 7.454 16.821 2.24 5.016 4.481 10.033 6.699 15.09 9.143-3.71 18.001-7.634 26.507-11.821 7.065-3.478 13.89-7.14 20.439-11.014-4.547-.293-8.94-.654-13.256-1.134-6.346-.705-12.533-1.665-18.801-3.04v-.006a1.977 1.977 0 0 1-1.404-2.7c1.991-4.719 3.913-9.524 5.692-14.619a171 171 0 0 0 3.567-11.453 289 289 0 0 1-6.374 3.81 200 200 0 0 1-10.904 5.897z" style="fill:#2b2f88;fill-rule:evenodd"></path><path d="m182.403 573.583-16.87 36.197c20.672 8.273 41.761 14.622 63.295 18.972 22.229 4.49 44.954 6.862 68.207 7.033 23.382.172 46.514-2.01 69.41-6.46 22.233-4.322 44.222-10.779 65.98-19.294a2151 2151 0 0 0-8.523-18.104 2695 2695 0 0 0-8.891-18.493c-20.226 8.243-39.765 13.95-58.874 17.633-19.642 3.786-38.853 5.436-57.908 5.508-18.764.07-37.732-2.074-56.474-5.845-20.24-4.072-40.201-10.035-59.352-17.147m-21.349 36.416 18.525-39.75.004.002a1.98 1.98 0 0 1 2.493-1.017c19.51 7.335 39.86 13.477 60.454 17.621 18.493 3.721 37.202 5.837 55.7 5.767 18.78-.071 37.742-1.702 57.163-5.446 19.388-3.737 39.216-9.578 59.758-18.075a1.98 1.98 0 0 1 2.611.937c3.404 7 6.658 13.75 9.72 20.183a2118 2118 0 0 1 9.421 20.049l-.004.002q.023.049.043.099a1.976 1.976 0 0 1-1.109 2.565c-22.651 8.998-45.528 15.787-68.644 20.28-23.119 4.494-46.503 6.697-70.169 6.522-23.514-.173-46.493-2.57-68.966-7.11-22.47-4.54-44.415-11.208-65.869-19.924a1.984 1.984 0 0 1-1.13-2.705z" style="fill:#2b2f88;fill-rule:evenodd"></path><path d="m167.248 328.14-.14 177.002c-.009 10.676 1.55 21.321 4.747 31.913 3.152 10.437 7.896 20.804 14.3 31.081 9.771 15.677 22.339 28.476 35.918 39.435 13.668 11.03 28.374 20.212 42.305 28.587a209 209 0 0 0 17.209 9.294 197 197 0 0 0 17.064 7.231c5.481-1.916 11.165-4.362 17.022-7.155 6.208-2.962 12.534-6.275 18.99-9.754 15.835-8.533 30.978-18.187 44.269-29.4 13.228-11.162 24.632-23.877 33.064-38.585 5.337-9.31 10.031-18.719 13.375-28.932 3.336-10.193 5.35-21.223 5.346-33.81l-.046-177.142h4.8l.046 177.142c.003 13.16-2.094 24.673-5.572 35.297-3.472 10.604-8.297 20.29-13.77 29.836-8.729 15.224-20.499 28.358-34.137 39.864-13.575 11.453-28.995 21.288-45.097 29.965-6.585 3.549-13.002 6.912-19.198 9.867-6.263 2.988-12.379 5.6-18.34 7.637l-.796.27-.796-.29a202 202 0 0 1-18.295-7.712 214 214 0 0 1-17.604-9.5c-14.093-8.472-28.974-17.766-42.851-28.964-13.965-11.27-26.902-24.454-36.99-40.64-6.64-10.655-11.559-21.405-14.828-32.229-3.325-11.012-4.944-22.122-4.936-33.306l.14-177.001z" style="fill:#2b2f88;fill-rule:evenodd"></path><path d="m219.314 599.009-7.072 5.762 3.118 10.072c.264.706.914 1.2 1.298 1.34l.923.334c.192.07.204.146.173.259l-.263.95c-.032.112-.09.218-.287.165-.226-.06-1.192-.41-4.411-1.274-2.26-.606-5.533-1.082-5.73-1.135s-.206-.147-.158-.315l.227-.78c.032-.112.08-.183.222-.153l.537.114c.639.135 2.676.74 2.905-.573.072-.41-1.915-6.687-2.015-6.713l-5.869 4.55c-.323.25.509 1.163 1.09 1.486l.839.463c.177.098.206.146.18.23l-.253.847c-.05.168-.098.246-.294.194-.282-.075-1.962-.551-4.25-1.164-1.665-.447-3.269-.78-3.522-.847-.14-.037-.333-.274-.273-.468l.258-.837c.034-.111.082-.19.223-.152l.678.182c.45.12 2.2.332 3.018-.289l7.579-5.882-2.652-10.061c-.132-.563-1.182-.91-1.436-.979l-.96-.257c-.113-.03-.113-.152-.081-.264l.32-1.119c.04-.14.09-.218.202-.188.282.075 1.222.528 4.074 1.293 2.824.758 4.933 1.255 5.188 1.323.197.053.214.324.176.465l-.174.65c-.046.169-.094.234-.323.185l-.725-.154c-.657-.139-1.678.003-1.585.4l1.517 6.456 5.45-4.714c.407-.35-.123-.599-1.468-.983l-.828-.237c-.141-.04-.143-.16-.102-.3l.283-.968c.04-.14.082-.19.25-.144.311.083 1.916.59 4.09 1.174 1.554.417 2.593.606 2.876.681.197.053.195.174.157.315l-.174.65c-.053.197-.096.246-.238.208l-.762-.204c-.763-.205-1.657.17-1.946.406m-22.818-1.937c-.26.433-1.356 2.763-1.72 3.719-.47 1.229-1.18 3.314-1.345 3.908-.036.175-.156.16-.302.135l-.708-.113c-.12-.015-.153-.09-.135-.303.057-.478.465-1.858.393-2.81-.28-.999-2.69-1.457-3.274-1.66-.779-.272-1.414-.44-2.616-.9l-2.479 6.122c-.57 1.408.125 1.706.462 1.95.98.71 3.176 1.305 4.277 1.61.567.154 2.543.606 3.471.304.928-.3 2.386-1.632 3.321-2.68.23-.257.897-.142 1.138-.075.167.046.558.334.387.603l-3.17 4.836c-.177.215-.423.28-.759.18-1.736-.514-4.658-1.571-9.19-3.046-2.985-1.111-8.526-2.475-8.771-2.568-.191-.073-.205-.174-.132-.396l.257-.78c.055-.166.17-.195.367-.141l1.083.294c1.551.423 2.546.052 2.947-.888l6.185-14.473c.225-.916-.828-1.259-1.566-1.54l-1.065-.407c-.11-.041-.112-.137-.032-.326l.475-1.124c.034-.08.1-.18.264-.118.6.229 1.582.527 4.068 1.477l11.478 3.787c.437.167.977.311 1.114.363.136.052.301.203.297.295-.043.5-1.527 5.093-1.778 5.237-.228.131-.347.035-.52.052-.281.027-.65-.16-.68-.328-.053-.27.247-2.544-.46-4.197-.438-.575-3.356-1.344-4.082-1.654-1.133-.277-3.24-1.031-3.527-.306l-2.857 6.615c1.257.48 4.267 1.53 4.624 1.574.508.068.984-.031 1.582-.366.452-.297 1.626-1.846 1.824-2.365.073-.191.176-.215.313-.163l.706.364c.126.08.225.149.135.302m40.514 25.313c-6.552-1.226-7.587-5.11-6.475-9.71l2.365-9.79c.24-.993.245-1.371-.35-1.52l-1.952-.491c-.17-.043-.186-.096-.154-.296l.22-1.366c.027-.171.072-.224.3-.182.288.051 1.515.567 4.534 1.117 2.53.461 4.36.611 4.676.668.229.041.241.103.217.277l-.156 1.104c-.02.146-.065.362-.266.328l-1.616-.272c-.98-.165-1.36.748-1.523 1.312l-2.115 10.534c-.466 2.906.41 5.853 3.597 6.366 3.809.613 6.374-1.642 6.782-4.778l1.472-11.31c.022-.768-.672-1.117-1.16-1.206l-.921-.169c-.173-.03-.193-.125-.16-.266l.278-1.152c.033-.14.066-.195.238-.164.287.052 1.595.38 3.551.738 1.553.283 2.49.366 2.749.413s.165.298.146.443l-.106.83c-.023.174-.082.282-.225.255l-.892-.163c-1.093-.2-1.44.535-1.55.812l-1.962 12.562c-.878 3.385-4.026 6.109-9.542 5.076m-8.182 6.367c22.229 4.49 44.954 6.862 68.207 7.033 23.382.172 46.514-2.01 69.41-6.46 22.233-4.322 44.222-10.779 65.98-19.294a2151 2151 0 0 0-8.523-18.104 2695 2695 0 0 0-8.891-18.493c-20.226 8.243-39.765 13.95-58.874 17.633-19.642 3.786-38.853 5.436-57.908 5.508-18.764.07-37.732-2.074-56.474-5.845-20.24-4.072-40.201-10.035-59.352-17.147l-16.87 36.198c20.672 8.272 41.761 14.62 63.295 18.97m26.51-21.464c.242-1.706-.873-2.86-2.33-2.983l-.765-.105c-.145-.01-.171-.129-.162-.216l.107-.966c.012-.115.04-.172.186-.163s.378.053.932.089c1.841.21 3.383.423 5.235.525.603.033.923.55 1.14.827l6.24 8.723 4.692 6.034c.081.105.394.116.398-.016l.449-11.85c-.129-.74-.803-1.194-1.474-1.237l-.934-.06c-.146-.009-.17-.22-.158-.396l.047-.73c.009-.144.043-.201.276-.187.32.021.912.066 3.07.204l3.566.231c.263.016.287.077.277.253l-.045.822c-.008.146-.046.26-.163.253l-.817-.052c-.496-.032-1.644.182-1.8 1.228l-.813 17.65c-.02.437-.616 1.035-1.024 1.01-.437-.028-1.183-.2-1.484-.541-3.984-4.261-9.104-12.072-12.853-16.998-.047-.061-.223-.092-.234-.015l-1.612 11.854c-.05 1.696.893 2.34 2.103 2.544l.777.13c.2.034.239.104.216.277l-.13.992c-.022.174-.044.231-.248.219-.29-.018-2.459-.454-3.83-.542-.904-.057-4.04-.362-4.332-.381-.115-.008-.153-.07-.128-.272l.142-1.124c.01-.085.043-.182.187-.164l.955.122c1.694.215 2.257-.29 2.528-2.237zm22.045 8.56c.366-6.773 4.387-11.22 11.395-10.84 6.488.35 10.583 5.387 10.227 11.958-.34 6.293-5.577 10.23-11.753 9.906-5.396-.283-10.235-4.258-9.869-11.024m29.717-8.915-.018-1.235c-.002-.145.02-.207.194-.215.29-.013 1.093.103 4.398.005 3.021-.09 4.752-.345 5.013-.358s.3.072.306.247l.035 1.028c.005.146-.016.252-.22.275l-1.255.142c-.698.078-1.168.327-1.276.691-.078.268-.044.613.14.989l5.24 10.638c.1.202.572.118.624-.101l2.61-10.917c.252-.774.217-1.106-.003-1.429-.11-.16-.414-.164-1-.146l-1.787.057c-.117.004-.155-.082-.16-.254l-.038-1.275c-.004-.144.02-.207.165-.213.261-.012 1.931-.149 3.886-.25 2.714-.141 3.143-.196 3.404-.208.173-.008.215.046.218.252l.02 1.123c.002.117-.018.206-.194.215l-.671.036c-.873.045-1.249.233-1.931 1.558l-4.65 18.127c-.185.361-.419.447-1.094.514-.623.061-1.002-.418-1.198-.789l-8.025-17.421c-.327-.656-1.049-.743-1.662-.767l-.91-.034c-.116-.004-.159-.14-.16-.284zm25.558 15.333-1.625-15.49c-.11-.696-.443-.838-1.055-.883l-1.381-.102c-.146-.01-.238-.042-.247-.157l-.082-1.146c-.008-.115.076-.182.192-.19l4.757-.357c2.975-.221 3.883-.473 4.291-.503.145-.01.213.073.224.247l.073 1.142c.009.146-.073.205-.218.221l-1.202.139c-.726.083-.956.809-.904 1.333l1.484 14.859c.09.902.385 1.486.939 1.482l1.983-.014c.145-.001.238.04.248.187l.08 1.097q.012.175-.25.195c-.349.025-2.067.064-4.836.27-3.062.228-4.385.466-4.705.49-.146.01-.24-.042-.252-.216l-.077-1.106c-.008-.116.076-.182.22-.193l.846-.063c.583-.043 1.433-.533 1.497-1.242m12.435-1.667c-.589-4.538-1.41-10.399-2.26-14.906-.172-.95-.777-.864-1.186-.837l-1.382.09c-.146.01-.196-.061-.204-.177l-.09-1.287c-.01-.145 0-.207.144-.228.26-.039 1.48-.125 4.636-.6 1.62-.243 4.219-.698 5.407-.852 3.125-.408 6.522.911 6.998 4.08.551 3.672-.993 5.13-2.446 5.743-.08.034-.064.201-.003.263 2.397 2.44 4.101 5.44 6.354 7.338.462.39 1.847.745 2.511.646.202-.03.24.083.266.196l.142.61c.04.17-.14.331-.342.36-2.019.294-3.895.456-5.957.765-1.92.131-6.055-9.187-7.347-8.927l-2.277.457.344 1.991c.293 1.7.83 4.932.945 5.299.149.599 1.127.804 1.942.757l1.424-.084c.203-.012.25.051.267.196l.123 1.126c.022.203.01.265-.419.329-.027.004-1.797.027-4.95.37-3.08.337-4.412.706-4.729.753-.23.034-.244-.053-.274-.255l-.138-.908c-.022-.144-.033-.226.11-.254l.96-.186c.631-.122 1.671-.526 1.431-1.868m14.39-14.953c-.12-.001-.183-.136-.176-.228.023-1.27-.082-5.005-.107-5.6-.004-.39.11-.54.31-.587.198-.048.817.1 1.15.35.408.323.954 1.01 1.991.818 3.761-.691 7.618-1.652 11.184-2.701.618-.18 1.532.314 1.883-1.29a.83.83 0 0 1 .587-.64c.199-.048.556-.013.695.314.238.605 1.466 4.373 2.059 5.824.056.106.026.234-.052.283l-1.123.578c-.106.056-.184-.015-.346-.186-.873-1.303-1.253-2.586-2.28-2.833-.814-.254-2.785.283-3.442.425l-.62.134 3.705 14.319c.23.697.34 2.044 1.036 1.97l2.591-.273c.26-.026.328.012.354.215l.159 1.235c.018.145.025.235-.23.296-.283.068-1.815.188-4.968.953-3.011.73-4.974 1.39-5.37 1.485-.227.054-.278-.055-.339-.278l-.337-1.235c-.054-.195-.039-.29.13-.332l1.786-.446c.566-.14 1.37-.974 1.303-1.5l-3.932-15.449-1.238.186c-1.067.16-2.692-.05-3.698.78-.613.505-1.287 2.024-1.749 3.22-.05.163-.115.269-.235.268zm24.97.218-1.776-5.804c-.299-.977-1-2.52-1.6-2.393l-1.61.342c-.172.036-.647.113-.695-.083l-.28-1.128c-.041-.169-.057-.25.167-.31.442-.118 1.575-.269 4.513-1.007 2.495-.627 4.145-1.077 4.447-1.188.219-.08.272-.037.327.13l.347 1.032c.046.139.043.202-.15.273l-.933.342c-.933.343-1.34.81-1.193 1.38.083.312.854 2.264 1.367 3.664l.664 1.812c.534 1.454 1.923 4.9 2.272 5.77 1.045 2.663 2.528 4.71 6.486 3.391 2.76-.92 4.678-2.81 2.753-7.468l-1.832-4.434c-.938-2.27-1.966-4.832-2.308-5.423-.371-.674-1.502-.602-1.984-.48l-.897.23c-.17.043-.22-.014-.272-.15l-.412-1.05c-.054-.137-.043-.203.121-.263 1.41-.516 4.514-1.22 6.743-2.038.247-.09.33.005.366.147l.25.988c.042.17.073.285-.065.335l-.851.312c-1.044.383-1.227 1.126-1.181 1.42.085.405 1.532 3.378 1.672 3.762s2.318 5.134 2.628 6.235c2.05 5.778-.253 8.607-4.363 9.884-4.662 1.45-7.46 1.359-9.942-1.526-.899-1.009-1.657-3.042-2.778-6.704m22.483-.914c-.046-.202.036-.233.145-.275l1.612-.649c.11-.041.2-.045.275.146.378.826.592 1.253 1.656 2.067 1.291.99 3.16 1.303 4.47.802s3.378-1.844 2.722-4.057c-.755-2.548-2.907-2.718-6.97-2.696-.934.013-3.138-.418-4.85-1.216-1.24-.577-2.376-2.072-2.982-3.655-1.176-3.07.55-6.59 3.847-7.484 1.906-.516 4.653-.688 5.022-.174l2.3 3.884c.042.11-.021.14-.074.216-.333.473-.691.624-1.053.702-.153.034-.479.086-.634-.074-.604-.676-1.221-1.717-2.406-2.529-.905-.62-2.329-.678-2.983-.27-1.944 1.22-1.926 2.87-1.643 3.575.91 2.268 4.02 2.645 6.051 2.466 1.458-.12 3.084.174 4.59.756 1.432.548 2.592 1.657 3.323 3.568 1.276 3.331.413 7.068-3.19 8.448-2.458.94-4.358.77-5.91.67-.42-.027-1.052.02-1.137-.097-1.263-1.757-.816-1.945-2.181-4.124" style="fill:#fff;fill-rule:evenodd"></path><path d="M288.287 606.692c-4.968-.27-5.892 4.648-6.106 8.625-.405 7.475 2.544 9.69 5.642 9.858 5.401.294 6.289-5.305 6.36-8.41.173-7.495-3.444-9.94-5.896-10.073m58.381-1.856 1.238 7.097c.554-.054.902-.182 1.161-.22 3.812-.573 4.097-2.71 3.727-4.66-.418-2.204-2.214-3.532-4.471-3.528-.496.001-1.492.16-1.693.398-.147.32-.023.563.038.913" style="fill:#fff;fill-rule:evenodd"></path><path d="m160.979 610.53 8.663 43.05m267.113-41.85-8.213 39.9" style="fill:none"></path><path d="M179.763 630.032c1.449-3.204 2.915-6.45 4.174-9.253a379 379 0 0 1-21.752-8.075l-.17-.07a2 2 0 0 1-.73-.582l7.734 38.432q.697.28 1.397.556c3.043-7.06 6.14-13.91 9.347-21.008" style="fill:#2b2f88;fill-rule:evenodd"></path><path d="M413.733 620.987c2.245 5.118 4.442 10.037 6.638 14.956 2.24 5.016 4.481 10.033 6.699 15.09l1.741-.711 7.814-37.96a2 2 0 0 1-.792.574 405 405 0 0 1-22.1 8.05z" style="fill:#2b2f88;fill-rule:evenodd;stroke:#221d1f;stroke-width:.56690001;stroke-linecap:butt;stroke-linejoin:miter;stroke-dasharray:none"></path><path d="m169.019 650.484-7.734-38.432a1.99 1.99 0 0 1-.23-2.053l2.73-5.857a934 934 0 0 1-9.519-5.487 1206 1206 0 0 0-6.572-3.805 494 494 0 0 0 3.609 11.15c1.788 5.283 3.7 10.516 5.804 15.551a1.98 1.98 0 0 1-1.496 2.713c-6.358 1.104-12.809 1.903-19.385 2.528-4.493.427-8.995.77-13.538 1.071a336 336 0 0 0 21.353 11.498 355 355 0 0 0 24.978 11.123m267.606-38.123-7.814 37.96c8.528-3.498 16.801-7.189 24.766-11.11 7.065-3.477 13.89-7.14 20.439-11.014-4.547-.293-8.94-.654-13.256-1.133-6.346-.705-12.533-1.666-18.801-3.04v-.007a1.977 1.977 0 0 1-1.404-2.7c1.991-4.718 3.913-9.524 5.692-14.618a171 171 0 0 0 3.567-11.454 289 289 0 0 1-6.374 3.811 204 204 0 0 1-9.372 5.122q1.414 3.028 2.835 6.091l-.004.002.042.1c.276.694.13 1.452-.316 1.99M325.348 275.655l-.237 7.499c.593.026 1.21.047 1.406.062 4.202.34 5.076-1.99 5.173-3.338.23-3.192-1.45-4.326-4.012-4.545-.606-.052-2.313-.221-2.33.322" style="fill:#fff;fill-rule:evenodd"></path><path d="M246.505 293.139c-.792-4.101-1.311-7.852-2.08-11.965-.312-1.668-1.961-2.173-3.426-1.983l-.643.083c-.147.019-.188-.094-.201-.178l-.2-1.25c-.018-.112.009-.175.155-.193 2.372-.297 4.703-.575 7.127-.876.38-.048 1.056.165 1.319.395.17.149 7.588 5.564 8.602 6.506.468.435 6.726 4.983 7.115 5.29.034.026.136.023.131-.02-.286-2.625-1.526-10.777-1.79-11.499-.253-.694-1.26-.98-1.938-.919l-.985.09c-.147.014-.185-.065-.208-.234l-.137-1.024c-.019-.141.005-.205.239-.233.321-.04.137-.028 2.306-.3 1.758-.22 5.078-.687 5.4-.726.263-.033.303.02.322.191l.095.836c.017.143.001.25-.114.275l-.877.188c-.491.105-1.871.892-1.749 1.925l1.912 16.07c.118.998-1.658 1.613-2.91.703-2.189-1.592-15.731-11.299-17.065-12.408-.06-.05-.192.091-.159.175l.112.6 1.794 10.401c.283 1.646 1.372 2.158 2.603 2.004l.732-.093c.206-.025.246.056.268.228l.086.685c.021.172 0 .233-.206.258-.293.037-2.082.417-3.459.59-.909.115-4.318.718-4.611.755-.117.015-.154-.039-.18-.238l-.093-.743c-.01-.085-.027-.166.117-.194l2.066-.401c.637-.123.87-1.006.53-2.771m34.148-2.11-.624-15.225c-1.997-.109-3.492-.144-5.604.156-.664.464-1.805 1.82-2.536 2.85-.096.135-.181.241-.302.203l-1.172-.374c-.12-.038-.153-.162-.131-.248.308-1.178 1.423-4.811 1.535-5.37.074-.366.232-.481.447-.487.215-.005.315.1.598.402.355.378 1.207.71 2.318.736 1.635.04 2.931.089 6.135.002l1.786-.048c3.357-.09 4.632-.015 5.924-.103.675-.046 1.9-.57 2.182-1.378l1.344-.032c.332-.008-.036 4.901-.041 6.247 0 .113.021.398-.078.395l-.875-.031c-.125-.004-.224-.032-.315-.243-.46-1.053-.688-2.34-1.529-2.919-.58-.4-3.518-.248-4.227-.237l-.604.009.286 15.382c.013.7.827.972 1.56 1.05l1.434.15c.275.029.301.075.316.27l.039.5c.01.14-.024.224-.301.231-.308.008-2.14.15-5.56.24-3.264.088-4.631.283-5.062.294-.246.006-.28-.105-.287-.327l-.017-.53c-.006-.194.025-.256.207-.284l1.528-.24c.607-.094 1.647-.538 1.626-1.042zm18.02-8.506 4.201-9.897c.049-.115 1.814.003 2.281 0 .176 0 .241.247.358.553 1.174 3.082 5.458 14.748 6.828 17.276.512.944 1.176 1.248 1.609 1.337l.686.14c.173.037.208.114.21.258l.004.547c.001.173-.026.375-.262.377-.561.005-.867-.091-4.646-.227-2.49-.09-3.917-.18-4.508-.174-.295.002-.458-.002-.46-.203l-.005-.547c0-.143.027-.26.175-.26l.827-.009c.798-.007 1.631-.131 1.44-.876-.268-1.036-1.296-3.958-1.66-4.99l-6.245.004c-.23.607-1.8 3.947-1.792 4.868.005.633-.01.991.874.957l1.653-.066c.295-.012.327.112.327.227l.006.633c.002.23-.026.318-.262.32-.384.003-2.122.042-4.544.064l-2.995.023c-.177.001-.208-.17-.21-.372l-.005-.547c-.002-.173.027-.26.204-.261l.768-.007c.71-.006 1.153-.098 1.735-.967.407-.608 2.349-5.684 3.409-8.18zm21.47 9.026c.573-5.202.534-10.226.821-15.339.054-.948-.784-1.396-1.213-1.432l-1.227-.105c-.153-.013-.166-.102-.166-.217l.007-.887c.001-.143.05-.197.203-.184.276.023 2.532.05 5.795.083 1.724.018 4.422.267 5.677.399 3.447.364 6.96 2.568 6.959 5.726 0 4.129-2.598 4.465-4.92 4.839l-.018.2c.253.102 3.64 7.398 4.61 8.649.334.404 1.477.734 2.183.794.215.018.235.135.224.25l-.064.688c-.016.172-.054.256-.27.238-.245-.021-1.034-.176-3.396-.378-.889-.076-2.329-.265-3.221-.313-.86-.738-2.072-4.303-2.502-5.322-.86-2.039-1.468-4.555-2.94-4.62l-1.604-.07-.492 7.034c-.042.606 1.105 1.088 1.563 1.128l1.253.107c.214.018.237.107.223.25l-.064.689c-.018.2-.054.255-.51.216-.03-.002-1.502-.173-4.727-.449-3.25-.277-4.527-.346-4.864-.375-.245-.02-.237-.107-.219-.308l.062-.66c.013-.142.021-.229.174-.216l.92.079c.675.057 1.665.221 1.744-.494zm-91.32-11.011c2.039 2.959 8.225 12.67 10.2 14.892.714.802 1.53 1.145 1.972 1.133l.7-.02c.177-.005.229.063.263.203l.13.531c.04.168.06.371-.17.427-.545.133-.865.11-4.576.839-2.443.48-3.855.718-4.429.857-.286.07-.446.103-.493-.092l-.13-.532c-.034-.14-.033-.259.11-.293l.804-.197c.775-.189 1.558-.5 1.202-1.181-.497-.948-2.163-3.559-2.754-4.481l-6.08 1.428c-.085.644-.852 4.253-.634 5.148.15.615.216.968 1.07.732l1.593-.44c.285-.079.344.034.371.146l.15.615c.054.224.047.315-.183.371-.373.09-2.057.525-4.41 1.099l-2.91.705c-.172.042-.242-.119-.29-.315l-.13-.531c-.04-.167-.032-.26.14-.3l.746-.183c.689-.168 1.1-.358 1.468-1.337.258-.685.946-6.077 1.455-8.742l2.047-10.727c.024-.122 1.653-.22 2.107-.329.171-.04.476.305.661.574m-4.955-5.92c-24.209 4.897-48.194 12.3-71.828 22.596l3.595 7.737c5.832-2.795 12.035-5.39 18.573-7.818 7.152-2.657 14.691-5.11 22.57-7.403l1.023 3.527c-7.803 2.271-15.257 4.695-22.312 7.316-5.748 2.135-11.242 4.406-16.46 6.839l3.208 6.904a456 456 0 0 1 17.044-6.652c6.97-2.551 13.955-4.882 21.014-6.946l.786 2.713c-6.966 2.037-13.895 4.35-20.836 6.891-6.527 2.389-13.035 4.968-19.576 7.703.38.96.726 1.86 1.072 2.766.764 1.993 1.536 4.006 2.376 5.925 22.58-10.146 44.986-17.214 68.117-21.735 23.545-4.603 47.853-6.567 73.873-6.456 22.29.096 44.086 2.737 65.002 7.408 21.901 4.891 42.83 12 62.345 20.736l1.927-4.159 1.906-4.111c-6.483-2.778-12.976-5.405-19.519-7.824-6.996-2.587-14.069-4.945-21.268-7.006l.775-2.724c7.262 2.08 14.4 4.46 21.468 7.072a406 406 0 0 1 16.772 6.652l3.397-7.293c-4.014-1.809-9.433-3.967-15.03-6.068-9.56-3.59-19.584-6.994-24.02-8.215l.963-3.54c4.536 1.247 14.696 4.694 24.339 8.315 6.616 2.484 13.014 5.06 17.239 7.082l.196-.469c.961-2.294 1.935-4.619 3.013-6.849-22.928-10.222-46.538-17.866-70.624-22.948-24.908-5.255-50.33-7.776-76.038-7.58-25.185.192-50.259 2.59-75.082 7.613m154.607 28.591c-.2-.052-.32-.292-.384-.635-1.058-5.704-1.806-10.95-3.393-16.618-.758 2.131-2.394 9.737-3.063 11.878-.318 1.02.261 2.208 1.204 2.454l1.115.292c.171.044.178.136.149.247l-.196.752c-.03.111-.08.187-.309.128-.314-.082-1.515-.367-3.601-.913-2.43-.634-3.453-.812-3.71-.88-.229-.059-.25-.095-.192-.317l.19-.725c.021-.083.071-.155.215-.122l1.228.278c.921.21 1.559-.679 1.846-1.56.612-1.88 2.47-8.002 2.645-8.723l1.02-4.206c.32-1.32.6-1.878-1.507-2.545l-1.075-.34c-.169-.053-.183-.14-.149-.248l.335-1.061c.026-.081.073-.159.244-.115.285.074 1.711.643 5.084 1.523 1.343.35 1.802.5 2.145.588.286.075.463.17.562.654 1.08 5.251 2.044 9.663 2.778 14.26 1.5-1.827 7.902-9.594 9.139-11.261.195-.264.554-.392 1.412-.169 4.459 1.165 6.081 1.702 6.395 1.783.143.037.168.241.125.408l-.167.64c-.044.168-.127.152-.332.126l-2.28-.29c-.673-.087-.744.064-.895.647l-1.911 7.843c-.13.56-1.204 5.987-1.334 6.488-.277 1.058-.124 1.534.264 1.676l1.654.603c.166.06.18.136.15.247l-.22.809c-.046.167-.103.265-.323.183-2.605-.96-6.226-2.296-9.478-2.893-.202-.037-.213-.146-.164-.31l.239-.79c.04-.138.08-.188.28-.136l1.6.418c.486.127 1.253-.118 1.499-.887 1.265-3.97 2.063-8.383 3.036-12.503l-.172-.045c-3.596 4.39-7.155 9.135-10.694 12.943-.186.2-.662.514-1.004.424m-32.698-9.445 1.984-15.114c.12-.92-1.055-1.137-1.843-1.264l-1.138-.183c-.116-.019-.12-.108-.1-.308l.082-.766c.009-.086.062-.194.236-.167.641.103 3.448.44 6.095.903l12.705 2.22c.465.081.993.352 1.138.375.146.023.199.09.21.18.056.416-.528 4.335-.458 4.637.035.151.038.273-.134.27l-1.028-.016c-.13-.002-.266-.015-.331-.17-.107-.251-.583-2.5-1.43-3.419-.49-.532-3.84-1.452-4.625-1.593l-4.076-.734-1.12 7.527c1.342.217 4.792.899 5.155.927.508.038.783.1 1.291-.357.399-.358 1.029-2.072 1.114-2.611.031-.197.133-.25.275-.218l.943.211c.145.033.253.103.196.266-.286.822-1.383 6.995-1.425 7.948-.007.17-.121.208-.27.187l-.967-.139c-.12-.017-.176-.057-.196-.265-.047-.472.112-1.62.076-2.143-.044-.657-.684-1.016-1.266-1.141-.769-.165-4.06-.817-5.344-1.098-.35 2.177-.463 4.008-.808 6.158-.237 1.477.256 1.653.653 1.795.515.184 1.06.396 2.517.63.495.079 1.927.279 2.549.369.753.11 2.751-.187 3.512-.661.828-.516 2.25-2.237 2.96-2.814.126-.103.208-.08.304-.038l.91.401c.12.053.12.165.08.247l-2.004 4.08c-.12.247-.454.98-.804.924-.145-.023-2.17-.283-4.033-.597-1.894-.319-4.834-.954-9.886-1.766-1.078-.174-3.399-.45-3.984-.53-.615-.084-1-.103-1.264-.145-.204-.033-.248-.128-.212-.355l.096-.597c.027-.17.13-.242.333-.209l.875.14c1.341.217 2.327.02 2.457-.977m-136.436-1.207c2.963-.046 6.626.948 7.662 4.393 1.012 3.364-1.462 7.24-5.21 8.317-3.42.984-3.648.516-6.113.636-.324.016-.836-.234-.937-.534l-1.32-3.907c-.066-.192.058-.23.17-.26l1.299-.344c.113-.03.153-.004.262.164 1.252 1.945 3.11 3.728 6.061 2.95 1.371-.362 3.757-1.972 3.453-4.14-.328-2.343-3.053-2.918-7.112-2.842-2.612.049-6.19-1.695-6.948-4.331-1.115-3.88 1.437-6.468 4.891-7.579 1.369-.44 5.614-1.519 6.231.238l1.235 3.513c.038.108-.017.156-.094.207l-.832.543c-.133.086-.28.076-.425-.088-1.689-1.91-2.543-3.6-5.575-2.886-2.21.521-3.133 2.039-2.867 3.385.575 2.907 4.36 2.594 6.169 2.565m147.778-16.302-2.888-.562 1.425-1.988 4.444 1.04z" style="fill:#fff;fill-rule:evenodd"></path><path d="M230.49 291.07c-.463-.775-2.664-4.12-3.032-4.77-.22-.39-.428-.292-.571-.258-.173.042-.224.177-.256.448-.047.4-.683 4.795-.742 5.55zm71.77-12.36c-.137.379-1.758 4.514-1.988 5.236l4.738.034-1.88-5.087c-.156-.419-.372-.561-.52-.56-.176.001-.257.12-.35.378" style="fill:#fff;fill-rule:evenodd" data-source="https://football-logos.cc"></path><path d="m261.444 446.983 30.033.343c1.666.02 3.331.015 4.996.01 8.288-.024 15.445.074 23.485 2.634 4.666 1.485 8.703 4.543 11.533 8.528a23.9 23.9 0 0 1 4.404 13.73l.399 81.163c.016 3.275-.075 6.599-.446 9.855-.373 3.266-1.08 6.946-2.677 9.849-2.512 4.566-6.614 7.348-11.515 8.881-4.461 1.396-9.387 1.707-14.038 1.686l-46.429-.212z" style="fill:#2b2f88;fill-rule:evenodd"></path><path d="m266.826 450.73 24.609.281c1.738.02 3.414.015 5.05.01 7.686-.023 14.492-.044 22.355 2.46 3.86 1.229 7.25 3.776 9.647 7.15a20.2 20.2 0 0 1 3.723 11.614l.398 81.164c.015 2.923-.066 6.296-.422 9.419-.372 3.265-1.052 6.323-2.244 8.49-2.021 3.675-5.342 5.876-9.386 7.14-3.827 1.198-8.31 1.54-12.922 1.519l-41.062-.187-1.69-.008.002-1.687.234-125.671.003-1.714zm24.582 3.67-22.905-.262-.227 122.27 39.371.18c4.296.02 8.438-.289 11.899-1.371 3.243-1.015 5.876-2.727 7.42-5.533.952-1.732 1.517-4.365 1.845-7.242.345-3.018.423-6.24.409-9.02l-.398-81.164a16.8 16.8 0 0 0-3.099-9.66c-1.981-2.789-4.76-4.887-7.907-5.889-7.355-2.341-13.919-2.322-21.332-2.3-1.645.006-3.332.01-5.076-.01m-2.684 7.125 6.118-.046h.007l.28-.001c4.672.008 8.521 1.078 11.262 3.358 2.81 2.337 4.388 5.848 4.425 10.673v.203l-.139 77.532v.252c-.029 5.049-1.44 8.95-3.861 11.624-2.479 2.736-5.955 4.147-10.055 4.162h-.16l-8.25-.047-1.694-.01.006-1.685.374-104.32.006-1.682zm6.131 3.342-4.436.034-.362 100.955 6.557.037h.146c3.121-.011 5.73-1.044 7.544-3.046 1.87-2.064 2.96-5.2 2.984-9.364v-.24l.14-77.531-.001-.19c-.029-3.739-1.17-6.392-3.202-8.082-2.1-1.747-5.216-2.567-9.097-2.574z" style="fill:#fff;fill-rule:evenodd"></path><path d="m291.408 454.4-22.905-.262-.227 122.27 39.371.18c4.296.02 8.438-.289 11.899-1.371 3.243-1.015 5.876-2.727 7.42-5.533.952-1.732 1.517-4.365 1.845-7.242.345-3.018.423-6.24.409-9.02l-.398-81.164a16.8 16.8 0 0 0-3.099-9.66c-1.981-2.789-4.76-4.887-7.907-5.889-7.355-2.341-13.919-2.322-21.332-2.3-1.645.006-3.332.01-5.076-.01m-4.745 113.14.374-104.32.006-1.682 1.681-.013 6.118-.046h.007l.279-.001c4.672.008 8.522 1.078 11.263 3.358 2.81 2.337 4.388 5.848 4.425 10.673v.203l-.14 77.532v.252c-.028 5.049-1.438 8.95-3.86 11.624-2.479 2.736-5.955 4.147-10.055 4.162h-.161l-8.25-.047-1.693-.01z" style="fill:#e40a20;fill-rule:evenodd"></path><path d="m290.42 464.901-.363 100.955 6.557.037h.146c3.121-.011 5.73-1.044 7.544-3.046 1.87-2.064 2.96-5.2 2.984-9.364v-.24l.14-77.531-.001-.19c-.029-3.739-1.17-6.392-3.202-8.082-2.1-1.747-5.216-2.567-9.097-2.574l-.273.001z" style="fill:#2b2f88;fill-rule:evenodd"></path><path d="M178.66 546.889c2.147.18 4.298.598 6.464 1.201 2.15.599 4.237 1.353 6.298 2.217a57 57 0 0 0 10.43 3.25c3.51.729 7.099 1.13 10.702 1.16 2.973.024 5.861-.11 8.785-.56a37.8 37.8 0 0 0 8.584-2.362c3.63-1.473 7.412-2.815 11.364-3.778 3.988-.972 8.093-1.53 12.296-1.41a534 534 0 0 0 5.193.127l-.098 6.212a593 593 0 0 1-5.265-.127c-3.602-.104-7.169.387-10.665 1.24-3.533.86-7.05 2.115-10.487 3.51a44 44 0 0 1-9.996 2.751c-3.187.49-6.406.636-9.76.609a61 61 0 0 1-11.92-1.283 63.3 63.3 0 0 1-11.574-3.59c-1.915-.802-3.766-1.478-5.544-1.973-1.76-.49-3.529-.833-5.319-.983zm160.628.027.935.033h.012l.935.034.959.035c7.551.275 14.649.534 22.405 3.982 2.968 1.32 6.156 2.277 9.486 2.9 3.491.651 7.11.928 10.773.863 3.485-.061 6.598-.184 9.657-.696 2.946-.493 5.871-1.366 9.102-2.937 2.338-1.136 4.714-2.055 7.24-2.691 2.558-.645 5.247-1 8.175-1v6.236c-2.415 0-4.606.286-6.665.805-2.092.527-4.077 1.297-6.045 2.254-3.813 1.853-7.28 2.885-10.784 3.472-3.39.567-6.788.702-10.582.77-4.093.072-8.13-.236-12.016-.963-3.755-.701-7.399-1.803-10.85-3.337-6.649-2.955-13.174-3.193-20.116-3.446l-.958-.036-.935-.034-.923-.032z" style="fill:#fff;fill-rule:evenodd"></path><path d="M427.55 327.171v178.501c0 14.697-3.03 28.372-8.62 41.767h.037v6.236a29 29 0 0 0-2.901.145c-2.949 6.142-6.425 12.25-10.385 18.397q-.27.42-.545.839a326 326 0 0 0 4.833-1.862 122 122 0 0 0 2.027-3.405c5.337-9.31 10.031-18.719 13.375-28.932 3.336-10.193 5.35-21.223 5.346-33.81l-.046-176.518q-1.554-.686-3.12-1.358M298.973 649.415c-7.935-2.627-15.986-6.41-24.284-10.396q-.15-.07-.297-.143a362 362 0 0 1-6.21-.483 207 207 0 0 0 13.405 7.059 197 197 0 0 0 17.065 7.231c5.48-1.916 11.164-4.362 17.02-7.155 4.584-2.187 9.232-4.565 13.949-7.06q-3.357.287-6.721.51l-.272.128c-8.004 3.754-15.864 7.572-23.655 10.308" style="fill:#fff;fill-rule:evenodd"></path><path d="M226.73 393.352h9.844v19.032h-9.843zm-22.11 0h9.844v19.032h-9.844zm15.903 30.598a4.957 4.957 0 1 0 0 9.914 4.957 4.957 0 0 0 0-9.914m-25.912-40.182h51.938v148.97h-13.33l-.065-53.73c-.005-3.856-6.303-7.533-12.573-7.528-8.139.006-12.47 5.243-12.47 7.07v54.188h-13.5zm25.912 61.867a4.957 4.957 0 1 0 0 9.914 4.957 4.957 0 0 0 0-9.914m-32.757-81.393 2.979-2.883 2.693 2.883v9.563h9.422v-9.563l2.885-2.765 2.716 2.765v9.563h9.423v-9.563l2.674-2.718 2.785 2.718v9.563h9.423v-9.563l2.886-2.812 2.715 2.812v9.563h9.422v-9.563l2.746-2.695 2.95 2.695v17.813h-65.72zm64.94 168.386h5.414V405.36l-2.648-2.79-2.766 2.79z" style="fill:none"></path><path d="M226.73 412.384v-19.032h9.844v19.032zm-12.266 0h-9.844v-19.032h9.844zm1.102 16.523a4.957 4.957 0 1 1 9.914 0 4.957 4.957 0 0 1-9.914 0m30.983-45.139H194.61v148.97h13.5V478.55c0-1.827 4.331-7.064 12.47-7.07 6.27-.005 12.568 3.672 12.573 7.527l.066 53.731h13.329zm-30.983 66.824a4.957 4.957 0 1 1 9.914 0 4.957 4.957 0 0 1-9.914 0m-12.706-86.35v9.563h-9.422v-9.563l-2.693-2.883-2.98 2.883v17.813h65.72v-17.813l-2.95-2.695-2.746 2.695v9.563h-9.422v-9.563l-2.715-2.812-2.886 2.812v9.563h-9.423v-9.563l-2.785-2.718-2.674 2.718v9.563h-9.422v-9.563l-2.717-2.765zm49.846 168.386h5.414V405.36l-2.648-2.79-2.766 2.79zm118.528-120.244v-19.032h-9.844v19.032zm12.266 0h9.844v-19.032H383.5zm-1.102 16.523a4.957 4.957 0 1 0-9.913 0 4.957 4.957 0 0 0 9.913 0m-30.982-45.139h51.938v148.97h-13.5V478.55c0-1.827-4.331-7.064-12.47-7.07-6.27-.005-12.569 3.672-12.574 7.527l-.065 53.731h-13.33zm30.982 66.824a4.957 4.957 0 1 0-9.913 0 4.957 4.957 0 0 0 9.913 0m12.707-86.35v9.563h9.422v-9.563l2.693-2.883 2.979 2.883v17.813H344.48v-17.813l2.95-2.695 2.745 2.695v9.563h9.423v-9.563l2.715-2.812 2.886 2.812v9.563h9.422v-9.563l2.786-2.718 2.674 2.718v9.563h9.422v-9.563l2.717-2.765zm-49.846 168.386h-5.415V405.36l2.649-2.79 2.766 2.79z" style="fill:#fff;fill-rule:evenodd"></path><path d="M291.522 377.473h13.687l.023 10.57c.008 3.763-2.969 6.978-6.733 6.978s-6.946-3.213-6.954-6.978z" style="fill:none"></path><path d="M298.51 386.452a1.69 1.69 0 0 1-1.688-1.687 1.688 1.688 0 1 1 1.687 1.687m3.657-3.515a1.69 1.69 0 0 1-1.688-1.688 1.688 1.688 0 1 1 1.688 1.688m-7.37 0a1.69 1.69 0 0 1-1.688-1.688 1.688 1.688 0 1 1 1.688 1.688m7.37 7.37a1.69 1.69 0 0 1-1.688-1.688 1.688 1.688 0 1 1 1.688 1.688m-7.37 0a1.69 1.69 0 0 1-1.688-1.688 1.688 1.688 0 1 1 1.688 1.688" style="fill:none"></path><path d="M294.796 386.932a1.687 1.687 0 1 0 0 3.375 1.687 1.687 0 0 0 0-3.375m5.682 1.688a1.687 1.687 0 1 0 3.375 0 1.687 1.687 0 0 0-3.375 0m-1.968-2.168a1.687 1.687 0 1 0 0-3.374 1.687 1.687 0 0 0 0 3.374m-3.714-3.515a1.687 1.687 0 1 0 0-3.375 1.687 1.687 0 0 0 0 3.375m5.682-1.687a1.687 1.687 0 1 0 3.375 0 1.687 1.687 0 0 0-3.375 0" style="fill:#fff;fill-rule:evenodd"></path><path d="M300.197 408.292a1.687 1.687 0 1 1-3.375 0 1.687 1.687 0 0 1 3.375 0m1.969-1.828a1.687 1.687 0 1 1 0-3.374 1.687 1.687 0 0 1 0 3.374m0 7.37a1.687 1.687 0 1 1 0-3.374 1.687 1.687 0 0 1 0 3.375M305.209 401h-13.688l.024 10.57c.008 3.765 3.19 6.979 6.954 6.979s6.742-3.215 6.733-6.978zm-8.726 11.147a1.687 1.687 0 1 1-3.375 0 1.687 1.687 0 0 1 3.375 0m0-7.37a1.687 1.687 0 1 1-3.375 0 1.687 1.687 0 0 1 3.375 0m3.714 27.61a1.687 1.687 0 1 1-3.375 0 1.687 1.687 0 0 1 3.375 0m1.969-1.828a1.687 1.687 0 1 1 0-3.375 1.687 1.687 0 0 1 0 3.375m0 7.37a1.687 1.687 0 1 1 0-3.375 1.687 1.687 0 0 1 0 3.375m3.043-12.834h-13.688l.024 10.57c.008 3.765 3.19 6.978 6.954 6.978s6.742-3.215 6.733-6.978zm-8.726 11.147a1.687 1.687 0 1 1-3.375 0 1.687 1.687 0 0 1 3.375 0m0-7.37a1.687 1.687 0 1 1-3.375 0 1.687 1.687 0 0 1 3.375 0m-18.863-20.634a1.687 1.687 0 1 1 0 3.375 1.687 1.687 0 0 1 0-3.375m-1.828-1.969a1.687 1.687 0 1 1-3.375 0 1.687 1.687 0 0 1 3.375 0m7.37 0a1.687 1.687 0 1 1-3.375 0 1.687 1.687 0 0 1 3.375 0m-12.835-3.043v13.687l10.57-.023c3.765-.008 6.979-3.19 6.979-6.954s-3.215-6.742-6.978-6.733zm11.147 8.726a1.687 1.687 0 1 1 0 3.375 1.687 1.687 0 0 1 0-3.375m-7.37 0a1.687 1.687 0 1 1 0 3.375 1.687 1.687 0 0 1 0-3.375m45.314-3.714a1.687 1.687 0 1 0 0 3.375 1.687 1.687 0 0 0 0-3.375m1.828-1.969a1.687 1.687 0 1 0 3.375 0 1.687 1.687 0 0 0-3.375 0m-7.37 0a1.687 1.687 0 1 0 3.375 0 1.687 1.687 0 0 0-3.375 0m12.834-3.043v13.687l-10.57-.023c-3.765-.008-6.978-3.19-6.978-6.954s3.215-6.742 6.978-6.733zm-11.147 8.726a1.687 1.687 0 1 0 0 3.375 1.687 1.687 0 0 0 0-3.375m7.37 0a1.687 1.687 0 1 0 0 3.375 1.687 1.687 0 0 0 0-3.375" style="fill:#2b2f88;fill-rule:evenodd"></path><path d="M291.522 401h13.687l.023 10.57c.008 3.764-2.969 6.979-6.733 6.979s-6.946-3.214-6.954-6.978zm17.64 8.936c0-3.764 3.215-6.742 6.978-6.733l10.57.023v13.687l-10.57-.023c-3.765-.008-6.978-3.19-6.978-6.954m-38.835-6.71 10.57-.023c3.764-.008 6.979 2.969 6.979 6.733s-3.214 6.946-6.978 6.954l-10.57.023zm21.218-15.183-.023-10.57h13.687l.023 10.57c.008 3.763-2.969 6.978-6.733 6.978s-6.946-3.213-6.954-6.978m-5.04-13.758H276.38V355.16h10.125zm46.475-26.626h-68.04v99.364l26.537.303c1.666.02 3.331.015 4.996.01 8.288-.024 15.445.074 23.485 2.634 4.666 1.485 8.703 4.543 11.533 8.528a24 24 0 0 1 1.49 2.383zm-21.876 26.626V355.16h10.125v19.125zm-19.582 50.81h13.687l.023 10.57c.008 3.763-2.969 6.978-6.733 6.978s-6.946-3.213-6.954-6.978z" style="fill:#fff;fill-rule:evenodd"></path><path d="M274.104 407.957a1.687 1.687 0 1 0 0-3.375 1.687 1.687 0 0 0 0 3.375m3.516.281a1.687 1.687 0 1 0 0 3.375 1.687 1.687 0 0 0 0-3.375m-1.828 5.402a1.687 1.687 0 1 0-3.375 0 1.687 1.687 0 0 0 3.375 0m5.682-1.688a1.687 1.687 0 1 0 0 3.375 1.687 1.687 0 0 0 0-3.375m-1.687-5.682a1.687 1.687 0 1 0 3.374 0 1.687 1.687 0 0 0-3.374 0m13.321-1.493a1.687 1.687 0 1 0 3.375 0 1.687 1.687 0 0 0-3.375 0m7.37 0a1.687 1.687 0 1 0 3.375 0 1.687 1.687 0 0 0-3.375 0m-.281 3.515a1.687 1.687 0 1 0-3.375 0 1.687 1.687 0 0 0 3.375 0m-3.714 3.855a1.687 1.687 0 1 0-3.375 0 1.687 1.687 0 0 0 3.375 0m3.995 0a1.687 1.687 0 1 0 3.375 0 1.687 1.687 0 0 0-3.375 0m13.398-5.877a1.687 1.687 0 1 0 3.375 0 1.687 1.687 0 0 0-3.375 0m7.37 0a1.687 1.687 0 1 0 3.375 0 1.687 1.687 0 0 0-3.375 0m-3.995 7.37a1.687 1.687 0 1 0-3.375 0 1.687 1.687 0 0 0 3.375 0m.479-3.714a1.687 1.687 0 1 0 3.375 0 1.687 1.687 0 0 0-3.374 0m5.203 2.026a1.687 1.687 0 1 0 0 3.375 1.687 1.687 0 0 0 0-3.375m-26.451 16.919a1.687 1.687 0 1 0-3.375 0 1.687 1.687 0 0 0 3.375 0m5.683-1.687a1.687 1.687 0 1 0 0 3.375 1.687 1.687 0 0 0 0-3.375m-1.969 5.203a1.687 1.687 0 1 0-3.375 0 1.687 1.687 0 0 0 3.375 0m-3.714 3.855a1.687 1.687 0 1 0-3.375 0 1.687 1.687 0 0 0 3.375 0m5.683-1.688a1.687 1.687 0 1 0 0 3.375 1.687 1.687 0 0 0 0-3.375" style="fill:#fff;fill-rule:evenodd"></path><path d="m256.898 322.482 3.656-3.703 3.89 3.703V334.6h11.439v-12.118l3.773-3.75 3.64 3.75V334.6h11.437v-12.118l4.001-3.656 3.837 3.656V334.6h11.437v-12.118l4.133-3.844 3.989 3.844V334.6h11.437v-12.118l3.793-3.75 3.609 3.75v22.852h-84.07z" style="fill:none"></path><path d="M275.883 334.6h-11.438v-12.118l-3.891-3.703-3.656 3.703v22.852h84.07v-22.852l-3.608-3.75-3.793 3.75V334.6H322.13v-12.118l-3.99-3.844-4.132 3.844V334.6h-11.437v-12.118l-3.837-3.656-4.001 3.656V334.6h-11.438v-12.118l-3.64-3.75-3.772 3.75z" style="fill:#fff;fill-rule:evenodd"></path><path d="M286.505 355.16H276.38v19.125h10.125zm24.599 0v19.125h10.125V355.16zm-96.64 57.224v-19.032h-9.844v19.032zm12.266-19.032v19.032h9.844v-19.032zm-1.25 35.555a4.957 4.957 0 1 0-9.914 0 4.957 4.957 0 0 0 9.914 0m-4.957 16.728a4.957 4.957 0 1 0 0 9.914 4.957 4.957 0 0 0 0-9.914m140.867-52.283v19.032h9.844v-19.032zm22.11 0v19.032h9.844v-19.032zm-6.058 30.598a4.957 4.957 0 1 0 0 9.914 4.957 4.957 0 0 0 0-9.914m4.957 26.642a4.957 4.957 0 1 0-9.914 0 4.957 4.957 0 0 0 9.914 0M297.02 639.738a367 367 0 0 1-22.628-.862l.297.143c8.298 3.986 16.349 7.769 24.284 10.396 7.79-2.737 15.65-6.555 23.655-10.31l.272-.127q-12.885.856-25.88.76" style="fill:#2b2f88;fill-rule:evenodd"></path><path d="m170.27 505.573.094-178.51a327 327 0 0 0-3.116 1.357l-.14 176.722c-.009 10.676 1.55 21.321 4.747 31.913 3.152 10.437 7.896 20.804 14.3 31.081q1.077 1.725 2.196 3.405a438 438 0 0 0 5.006 1.764c-4.493-5.73-8.529-12.443-11.922-19.72a27 27 0 0 0-3.287-.485l.494-5.994c-5.256-13.241-8.378-27.833-8.371-41.533" style="fill:#fff;fill-rule:evenodd"></path><path d="M208.111 478.55v54.188h-13.5v-148.97h51.938v148.97h-13.33l-.065-53.73c-.005-3.856-6.303-7.533-12.573-7.528-8.139.006-12.47 5.243-12.47 7.07m-37.747-151.487-.093 178.51c-.007 13.7 3.116 28.292 8.37 41.533l.019-.217c2.147.18 4.298.598 6.464 1.201 2.15.599 4.237 1.353 6.298 2.217a57 57 0 0 0 10.43 3.25c3.51.729 7.099 1.13 10.702 1.16 2.973.024 5.861-.11 8.785-.56a37.8 37.8 0 0 0 8.584-2.362c3.63-1.473 7.412-2.815 11.364-3.778 3.988-.972 8.093-1.53 12.296-1.41l2.603.07 2.59.057-.098 6.212-2.638-.057-2.627-.07c-3.602-.104-7.169.387-10.665 1.24-3.533.86-7.05 2.115-10.487 3.51a44 44 0 0 1-9.996 2.751c-3.187.49-6.406.636-9.76.609a61 61 0 0 1-11.92-1.283 63.3 63.3 0 0 1-11.574-3.59c-1.915-.802-3.766-1.478-5.544-1.973a32 32 0 0 0-2.032-.497c3.393 7.276 7.429 13.989 11.922 19.72 16.021 5.539 32.516 10.197 49.172 13.549 18.494 3.72 37.202 5.837 55.7 5.767 18.781-.071 37.743-1.703 57.163-5.446 16.22-3.126 32.748-7.725 49.744-14.12l.545-.84c3.96-6.145 7.436-12.254 10.385-18.396a26 26 0 0 0-3.764.66c-2.092.527-4.077 1.297-6.045 2.254-3.813 1.853-7.28 2.885-10.784 3.472-3.39.567-6.788.702-10.582.77-4.093.072-8.13-.236-12.016-.963-3.755-.701-7.399-1.803-10.85-3.337-6.649-2.955-13.174-3.193-20.116-3.446l-.958-.036-.935-.034-.923-.032.195-6.212.935.033h.012l.935.034.959.035c7.551.275 14.649.534 22.405 3.982 2.968 1.32 6.156 2.277 9.486 2.9 3.491.651 7.11.928 10.773.863 3.485-.061 6.598-.184 9.657-.696 2.946-.493 5.871-1.366 9.102-2.937 2.338-1.136 4.714-2.055 7.24-2.691a33 33 0 0 1 8.137-1c5.592-13.395 8.622-27.07 8.622-41.767v-178.5c-17.998-7.72-37.128-14.033-57.05-18.482-20.73-4.629-42.326-7.247-64.405-7.341-25.812-.11-49.936 1.84-73.32 6.41-21.183 4.142-41.753 10.437-62.412 19.304m82.342 205.565V405.36l2.766-2.79 2.648 2.79v127.267zm8.483 50.821.255-136.466 3.496.04v-99.364h68.04v113.222a23.9 23.9 0 0 1 2.915 11.346l.399 81.164c.016 3.275-.075 6.598-.446 9.855-.373 3.266-1.08 6.945-2.677 9.848-2.512 4.566-6.614 7.348-11.515 8.882-4.461 1.396-9.387 1.707-14.038 1.686zm78.656-50.821V405.36l2.648-2.79 2.766 2.79v127.267zm11.57.11v-148.97h51.939v148.97h-13.5V478.55c0-1.827-4.331-7.064-12.47-7.07-6.27-.005-12.569 3.672-12.574 7.527l-.065 53.731zM340.97 345.334H256.9v-22.852l3.655-3.703 3.89 3.703V334.6h11.439v-12.118l3.773-3.75 3.64 3.75V334.6h11.437v-12.118l4.001-3.656 3.837 3.656V334.6h11.437v-12.118l4.133-3.844 3.989 3.844V334.6h11.438v-12.118l3.792-3.75 3.609 3.75zm-87.484 36.721h-65.72v-17.813l2.98-2.882 2.693 2.882v9.563h9.422v-9.563l2.885-2.765 2.717 2.765v9.563h9.422v-9.563l2.674-2.718 2.785 2.718v9.563h9.423v-9.563l2.886-2.812 2.715 2.812v9.563h9.422v-9.563l2.746-2.695 2.95 2.695zm156.714 0h-65.72v-17.813l2.95-2.695 2.745 2.695v9.563h9.423v-9.563l2.715-2.812 2.886 2.812v9.563h9.422v-9.563l2.786-2.718 2.674 2.718v9.563h9.422v-9.563l2.717-2.765 2.885 2.765v9.563h9.422v-9.563l2.693-2.882 2.979 2.882zM68.63 359.728h32.139l.149 96.27c.002 1.192.035 2.387.134 3.575.07.848.177 1.714.374 2.543.184.77.534 1.705 1.172 2.22.582.472 1.404.592 2.13.586.534-.004 1.167-.047 1.673-.233.324-.119.603-.315.867-.533.78-.645 1.2-1.456 1.502-2.413.66-2.1.75-4.77.748-6.954l-.098-95.115 32.04.354.101 97.614c.001 1.103.017 2.206.032 3.31.061 4.32.193 9.038-1.118 13.195-2.456 7.79-7.077 13.972-14.375 17.786-6.018 3.144-12.888 4.153-19.607 4.255-7.839.12-16.246-1.207-23.152-5.069-6.41-3.584-10.928-8.987-13.045-16.083-.731-2.452-1.06-5.034-1.227-7.582-.176-2.663-.18-5.35-.187-8.018z" style="fill:#2b2f88;fill-rule:evenodd"></path><path d="M74.023 363.413h23.066l.003 1.701.14 90.89c.003 1.36.046 2.647.148 3.875.095 1.141.243 2.172.461 3.089.445 1.87 1.283 3.299 2.44 4.234 1.156.936 2.674 1.42 4.478 1.405 1.197-.01 2.134-.175 2.912-.458l-.001-.002c.744-.272 1.364-.669 1.947-1.151 1.218-1.007 2.092-2.317 2.668-4.146.632-2.007.922-4.616.919-8.064l-.093-89.673-.002-1.713 1.71.019 21.28.235 1.68.019.002 1.675.095 92.298c0 1.137.017 2.265.033 3.357.065 4.616.122 8.641-.949 12.037-2.492 7.903-7.038 12.737-12.567 15.627-5.427 2.836-11.746 3.742-17.956 3.837-7.235.11-15.025-1.093-21.298-4.6-5.206-2.912-9.358-7.373-11.311-13.92-.605-2.027-.919-4.293-1.082-6.772-.155-2.353-.172-4.976-.179-7.785l-.239-94.313-.004-1.7Zm19.683 3.402H75.72l.235 92.611c.006 2.692.023 5.213.178 7.573.147 2.234.424 4.253.95 6.014 1.671 5.605 5.233 9.428 9.702 11.927 5.7 3.186 12.89 4.278 19.611 4.175 5.748-.088 11.553-.904 16.428-3.452 4.772-2.493 8.709-6.706 10.893-13.633.916-2.907.863-6.671.802-10.987-.015-1.091-.031-2.219-.032-3.397l-.094-90.622-17.893-.198.091 87.96c.003 3.813-.333 6.747-1.065 9.073-.788 2.506-2.017 4.325-3.744 5.754-.858.71-1.79 1.3-2.944 1.722h-.007c-1.118.41-2.423.647-4.046.66-2.615.023-4.863-.719-6.631-2.149-1.756-1.419-3-3.476-3.623-6.094-.258-1.087-.432-2.285-.541-3.594-.102-1.224-.145-2.613-.147-4.154z" style="fill:#fff;fill-rule:evenodd"></path><path d="m134.488 457.646-.094-90.622-17.893-.198.091 87.96c.003 3.813-.333 6.747-1.065 9.073-.788 2.506-2.017 4.325-3.744 5.754-.858.71-1.79 1.3-2.944 1.722h-.007c-1.118.41-2.423.647-4.046.66-2.615.023-4.863-.719-6.631-2.149-1.756-1.419-3-3.476-3.623-6.094-.258-1.087-.432-2.285-.541-3.594-.102-1.224-.145-2.613-.147-4.154l-.138-89.19H75.72l.235 92.612c.006 2.692.023 5.213.178 7.573.147 2.234.424 4.253.95 6.014 1.671 5.605 5.233 9.428 9.702 11.927 5.7 3.186 12.89 4.278 19.611 4.175 5.748-.088 11.553-.904 16.428-3.452 4.772-2.493 8.709-6.706 10.893-13.633.916-2.907.863-6.671.802-10.987-.015-1.091-.031-2.219-.032-3.397m357.762-78.286h-.491c-1.213.091-2.389 1.105-3.118 1.985-.939 1.131-1.778 2.783-1.86 4.296v6.147c0 .976.043 1.977.211 2.94.119.678.308 1.391.638 2 2.055 3.793 6.252 6.262 9.8 8.462 1.2.745 2.402 1.488 3.578 2.268 1.123.744 2.253 1.477 3.383 2.21 6.518 4.222 14.23 9.11 18.75 15.472 2.495 3.51 4.132 7.309 4.993 11.525.737 3.61.845 7.23.781 10.902l-.234 13.407c-.08 4.592-.586 9.371-1.68 13.831-.898 3.655-2.32 7.576-4.652 10.572-3.596 4.62-7.824 8.024-13.349 10.01-5.461 1.96-11.444 2.244-17.194 2.093-4.987-.132-10.097-.882-14.832-2.493-4.279-1.455-8.303-3.641-11.601-6.76-2.994-2.833-4.972-6.445-6.205-10.352-1.377-4.36-1.84-9.096-1.808-13.65l.18-25.463 29.799.036v15.189h.006v3.685c0 1.994.167 5.67 1.473 7.33.808 1.025 2.455 1.133 3.647 1.119 1.64-.02 3.107-.509 4.174-1.79 1.415-1.7 1.84-4.268 1.832-6.412l-.023-6.798c-.009-2.601-.457-5.284-1.52-7.67-.833-1.87-2.05-3.555-3.722-4.76L467.94 420.48a27.6 27.6 0 0 1-4.213-3.756 26.5 26.5 0 0 1-3.34-4.503c-1.58-2.704-2.598-5.62-3.177-8.692-.516-2.737-.665-5.525-.645-8.306l.047-6.563c.024-3.364.31-6.752 1.12-10.026.885-3.585 2.376-6.928 4.662-9.85 3.087-3.943 7.363-6.498 12.072-8.068 5.385-1.795 11.327-2.323 16.986-2.246 5.064.07 10.215.454 15.119 1.79 5.159 1.406 9.729 3.787 13.623 7.496 2.926 2.787 4.637 6.27 5.48 10.187.662 3.07.738 6.168.712 9.295l-.092 10.862-29.696-.11-.004-11.92c0-1.724-.264-4.08-1.414-5.467-.74-.892-1.819-1.196-2.93-1.242z" style="fill:#2b2f88;fill-rule:evenodd"></path><path d="m503.668 390.943 15.611.058.032-3.821c.021-2.465-.008-5.188-.561-7.757-.52-2.417-1.522-4.717-3.437-6.54-3.073-2.927-6.644-4.72-10.602-5.799-4.06-1.106-8.553-1.475-13.35-1.54-5.052-.07-10.23.405-14.667 1.884-3.542 1.18-6.607 3.005-8.728 5.714-1.665 2.128-2.718 4.58-3.363 7.187-.664 2.687-.899 5.534-.919 8.37l-.047 6.563c-.016 2.34.099 4.68.528 6.96.416 2.207 1.137 4.368 2.34 6.427a19.4 19.4 0 0 0 2.437 3.302 20.5 20.5 0 0 0 3.131 2.789l25.266 18.211c2.67 1.925 4.686 4.558 6.05 7.618 1.407 3.16 2.118 6.782 2.131 10.54l.023 6.797c.015 4.34-1.173 8.19-3.47 10.948-2.22 2.668-5.425 4.29-9.524 4.34-4.094.05-7.186-1.131-9.298-3.813-2.001-2.54-2.994-6.364-2.994-11.71h.007v-11.807l-15.7-.02-.13 18.42c-.027 3.741.332 7.816 1.488 11.479v.007c.894 2.836 2.266 5.41 4.308 7.341 2.488 2.353 5.62 4.036 9.02 5.192 4.088 1.39 8.539 2.014 12.732 2.124 5.919.156 10.651-.25 14.629-1.678 3.881-1.395 7.117-3.81 10.146-7.702 1.463-1.88 2.577-4.687 3.368-7.911.936-3.81 1.41-8.152 1.483-12.26l.234-13.406c.056-3.205-.02-6.329-.64-9.37-.608-2.976-1.75-5.913-3.83-8.839-3.597-5.063-10.455-9.506-16.832-13.637a444 444 0 0 1-3.441-2.244 128 128 0 0 0-3.392-2.154c-4.828-2.995-9.466-5.871-12.307-11.114-.705-1.303-1.136-2.71-1.387-4.146-.243-1.388-.319-2.795-.319-4.158v-5.917h.007c.003-3.078 1.339-6.456 3.486-9.045 2.207-2.66 5.296-4.545 8.746-4.545v-.007h.009v.007c3.706.004 6.652 1.345 8.692 3.804 1.974 2.38 3.032 5.778 3.033 9.984zm17.291 3.452-18.984-.07-1.694-.006v-1.688l-.003-6.562c0-3.384-.79-6.044-2.262-7.818-1.384-1.669-3.442-2.579-6.075-2.581v.007h-.009v-.007c-2.338 0-4.515 1.378-6.128 3.322-1.672 2.016-2.712 4.587-2.715 6.879h.007v5.917c0 1.2.064 2.417.266 3.574.194 1.109.514 2.173 1.028 3.122 2.412 4.45 6.668 7.09 11.098 9.838 1.192.74 2.396 1.486 3.485 2.208 1.237.819 2.32 1.52 3.415 2.23 6.639 4.301 13.779 8.927 17.75 14.515 2.381 3.352 3.69 6.718 4.385 10.127.683 3.343.767 6.69.708 10.1l-.234 13.407c-.076 4.358-.581 8.968-1.576 13.018-.9 3.665-2.21 6.912-3.98 9.186-3.439 4.419-7.166 7.181-11.687 8.805-4.424 1.59-9.536 2.044-15.851 1.878-4.518-.119-9.32-.793-13.742-2.297-3.819-1.3-7.374-3.223-10.256-5.95-2.512-2.376-4.17-5.445-5.223-8.783h-.002c-1.268-4.02-1.663-8.457-1.635-12.515l.142-20.11.012-1.69 1.682.003 19.079.023 1.694.002v15.192h.006c0 4.554.75 7.69 2.263 9.61 1.401 1.78 3.596 2.561 6.587 2.524 3.027-.037 5.366-1.202 6.96-3.116 1.779-2.136 2.699-5.228 2.686-8.783l-.023-6.798c-.011-3.283-.625-6.431-1.839-9.157-1.127-2.53-2.773-4.692-4.933-6.25l-25.266-18.21a24 24 0 0 1-3.649-3.255 23 23 0 0 1-2.876-3.874c-1.41-2.411-2.253-4.937-2.739-7.516-.472-2.507-.598-5.057-.58-7.597l.046-6.562c.022-3.094.28-6.21 1.012-9.169.75-3.038 1.998-5.92 3.988-8.462 2.569-3.283 6.191-5.463 10.335-6.844 4.837-1.612 10.39-2.13 15.77-2.057 5.053.069 9.818.466 14.2 1.66 4.483 1.221 8.539 3.264 12.051 6.61 2.486 2.367 3.769 5.272 4.42 8.293.618 2.87.651 5.822.628 8.488l-.046 5.508-.015 1.687z" style="fill:#fff;fill-rule:evenodd"></path><path d="M502.073 468.854c-2.22 2.668-5.425 4.29-9.524 4.34-4.094.05-7.186-1.131-9.298-3.813-2.001-2.54-2.994-6.364-2.994-11.71h.007v-11.807l-15.7-.02-.13 18.42c-.027 3.741.332 7.816 1.488 11.479v.007c.894 2.836 2.266 5.41 4.308 7.341 2.488 2.353 5.62 4.036 9.02 5.192 4.088 1.39 8.539 2.014 12.732 2.125 5.919.155 10.651-.25 14.629-1.679 3.881-1.394 7.117-3.81 10.146-7.702 1.463-1.88 2.577-4.687 3.368-7.911.936-3.81 1.41-8.152 1.483-12.26l.234-13.406c.056-3.205-.02-6.329-.64-9.37-.608-2.976-1.75-5.913-3.83-8.839-3.597-5.063-10.455-9.506-16.832-13.637a444 444 0 0 1-3.441-2.244 128 128 0 0 0-3.392-2.154c-4.828-2.995-9.466-5.871-12.307-11.114-.705-1.303-1.136-2.71-1.387-4.146-.243-1.388-.319-2.795-.319-4.158v-5.917h.007c.003-3.078 1.339-6.456 3.486-9.045 2.207-2.66 5.296-4.545 8.746-4.545v-.007h.009v.007c3.706.004 6.652 1.345 8.692 3.804 1.974 2.38 3.032 5.778 3.033 9.984l.002 4.874 15.611.058.032-3.821c.021-2.465-.008-5.188-.561-7.757-.52-2.417-1.522-4.717-3.437-6.54-3.073-2.927-6.644-4.72-10.602-5.799-4.06-1.106-8.553-1.475-13.35-1.54-5.052-.07-10.23.405-14.667 1.884-3.542 1.18-6.607 3.005-8.728 5.714-1.665 2.128-2.718 4.58-3.363 7.187-.664 2.687-.899 5.534-.919 8.371l-.047 6.562c-.016 2.34.099 4.68.528 6.96.416 2.208 1.137 4.368 2.34 6.427a19.4 19.4 0 0 0 2.437 3.302 20.5 20.5 0 0 0 3.131 2.789l25.266 18.211c2.67 1.925 4.686 4.559 6.05 7.618 1.407 3.16 2.118 6.782 2.131 10.54l.023 6.797c.015 4.34-1.173 8.191-3.47 10.949z" style="fill:#2b2f88;fill-rule:evenodd"></path><path d="M581.89 420.57c0-104.831-31.674-199.524-83.089-267.948C447.643 84.54 376.932 42.498 298.505 42.498c-78.548 0-149.79 42.165-201.403 110.43-51.708 68.391-83.715 162.937-83.715 267.595 0 104.76 31.952 199.6 83.63 268.215 51.487 68.36 122.55 110.654 201.02 110.654 78.42 0 149.242-42.221 200.517-110.482 51.54-68.613 83.335-163.5 83.335-268.34m-78.57-271.336c52.126 69.372 84.239 165.269 84.239 271.336 0 106.076-32.236 202.168-84.487 271.728-52.334 69.67-124.744 112.763-205.036 112.763-80.347 0-153-43.156-205.536-112.912-52.39-69.56-84.783-165.611-84.783-271.626 0-105.917 32.448-201.674 84.867-271.005 52.669-69.662 125.5-112.69 205.921-112.69 80.298 0 152.596 42.913 204.814 112.406" style="fill:#e40a20;fill-rule:evenodd"></path><path d="m150.465 293.886-18.096-52.9q-.867.405-1.715.815l-1.65.798-.805-1.647-2.332-4.779q-.745.323-1.485.648l-1.65.722-.754-1.636-6.45-13.988-.776-1.681 1.682-.766 9.976-4.537 1.654-.753.77 1.652 2.266 4.855 1.037-.448-1.84-4.768-.652-1.69 1.682-.678 10.237-4.124 1.667-.672.708 1.658 2.17 5.071 1.155-.481-1.892-4.814-.71-1.807 1.847-.611 10.497-3.47 1.706-.564.605 1.7 5.175 14.55.624 1.756-1.776.598-2.037.691L163 227.13l.655 1.752-1.77.623a950 950 0 0 0-8.991 3.202 701 701 0 0 1 2.34 4.286 291 291 0 0 1 18.152-6.387 318 318 0 0 1 18.517-5.22l-.567-4.311q-3.972 1.047-8.04 2.196l-1.681.476-.557-1.67-1.613-4.84-1.499.469-1.784.56-.527-1.805-4.373-15-.502-1.726 1.712-.541 10.312-3.263 1.793-.567.525 1.812 1.496 5.167 1.229-.302-1.249-5.078-.44-1.79 1.794-.434 10.537-2.55 1.732-.418.47 1.721 1.402 5.13 1.078-.267-1.1-5.244-.382-1.825 1.837-.356 10.65-2.062 1.774-.344.37 1.776 1.053 5.04 1.126-.227-.802-4.913-.294-1.799 1.798-.31 10.8-1.856 1.845-.317.285 1.857.808 5.265 1.131-.172-.562-5.262-.192-1.8 1.797-.223 10.557-1.311 1.806-.224.238 1.814 2.026 15.45.258 1.963-1.978.11q-.748.042-1.504.092l.296 5.098.099 1.704-1.704.218q-4.239.542-8.595 1.194l1.24 4.374c6.34-.94 12.676-1.646 19.01-2.197 6.081-.53 12.27-.923 18.505-1.25l.324-4.714q-4.202.247-8.34.555l-1.919.143-.045-1.936-.124-5.243q-1.05.088-2.1.181l-1.91.17-.084-1.919-.68-15.544-.08-1.842 1.844-.073 10.538-.412 1.845-.072.063 1.85.164 4.822h1.139l.07-5.274.023-1.787 1.79-.027 11.045-.169 1.852-.028.005 1.864.014 5.037 1.026.017.07-5.45.024-1.83 1.826.015 4.967.045v-138.5h-.189c-78.548 0-149.79 42.166-201.403 110.431-51.708 68.391-83.715 162.937-83.715 267.595 0 104.76 31.952 199.6 83.63 268.215 51.487 68.36 122.55 110.654 201.02 110.654h.657V657.753l-.086.03-.797-.29a202 202 0 0 1-18.294-7.713 214 214 0 0 1-17.605-9.5 1012 1012 0 0 1-5.034-3.045 358 358 0 0 1-28.825-4.609 364 364 0 0 1-40.34-10.6c-1.67 3.73-3.016 6.709-4.338 9.633-3.486 7.713-6.84 15.134-10.053 22.647a1.98 1.98 0 0 1-2.565 1.124 362 362 0 0 1-28.468-12.52A339 339 0 0 1 115.212 628a1.98 1.98 0 0 1 .874-3.691c6.766-.404 13.36-.846 19.768-1.455 5.591-.532 11.127-1.199 16.65-2.09-1.771-4.4-3.408-8.93-4.952-13.494-1.781-5.261-3.459-10.637-5.085-15.927a1.982 1.982 0 0 1 2.829-2.412c3.6 2.019 7.278 4.158 10.955 6.297a906 906 0 0 0 9.213 5.31l14.12-30.288a1.98 1.98 0 0 1 1.532-1.127c-6.16-10.146-10.762-20.378-13.872-30.676-3.325-11.012-4.945-22.122-4.937-33.306l.14-175.289-.312-.668c-1.16-2.485-2.106-4.951-3.04-7.387a201 201 0 0 0-1.563-4l-.531-1.295 1.289-.542 1.332-.56-3.147-6.774q-.454.22-.906.443l-1.689.831-.794-1.71-5.175-11.137-.788-1.695 1.716-.76zm-41.045 65.788 32.04.354.101 97.614c.001 1.103.017 2.206.032 3.31.061 4.32.193 9.038-1.118 13.195-2.456 7.79-7.077 13.972-14.375 17.786-6.018 3.144-12.888 4.153-19.607 4.255-7.839.12-16.246-1.207-23.152-5.069-6.41-3.584-10.928-8.987-13.045-16.083-.731-2.452-1.06-5.034-1.227-7.582-.176-2.663-.18-5.35-.187-8.018l-.252-99.708h32.139l.149 96.27c.002 1.192.035 2.387.134 3.575.07.848.177 1.714.374 2.543.184.77.534 1.705 1.172 2.22.583.472 1.404.592 2.13.586.534-.004 1.167-.047 1.673-.233.324-.119.603-.315.867-.533.78-.645 1.2-1.456 1.502-2.413.66-2.1.75-4.77.748-6.954z" style="fill:#e40a20;fill-rule:evenodd"></path><path d="M435.517 505.047c.003 13.16-2.094 24.673-5.572 35.297-3.34 10.203-7.934 19.555-13.152 28.75.41.185.758.508.969.944 3.403 7 6.658 13.75 9.72 20.183q2.447 5.138 4.908 10.377a204 204 0 0 0 9.066-4.967 331 331 0 0 0 10.442-6.344 1.979 1.979 0 0 1 2.953 2.23 171 171 0 0 1-4.867 16.484c-1.524 4.362-3.16 8.538-4.86 12.639 5.36 1.091 10.662 1.886 16.07 2.487 6.244.694 12.623 1.135 19.385 1.483a1.98 1.98 0 0 1 .945 3.658c-8.269 5.17-17.028 9.981-26.195 14.493-9.145 4.502-18.694 8.704-28.565 12.662a1.98 1.98 0 0 1-2.565-1.081c-2.525-5.782-4.983-11.285-7.44-16.787a2440 2440 0 0 1-6.806-15.337c-14.165 4.536-28.418 8.21-42.764 10.998a357 357 0 0 1-25.092 3.96q-2.566 1.438-5.156 2.833c-6.585 3.548-13.002 6.912-19.198 9.867-6.263 2.988-12.379 5.6-18.34 7.637l-.709.241v141.637c78.159-.236 148.728-42.41 199.86-110.481 51.54-68.613 83.335-163.5 83.335-268.34 0-104.831-31.673-199.524-83.088-267.948C447.684 84.594 377.046 42.565 298.694 42.498v138.499l5.515.049 1.83.016-.009 1.826-.027 5.41 1.328.01.167-5.146.06-1.829 1.826.051 10.726.3 1.855.052-.07 1.848-.191 5.09 1.453.01.393-5.076.14-1.807 1.803.108 10.575.638 1.862.113-.135 1.852-1.125 15.45-.134 1.84-1.83-.134q-.86-.064-1.718-.124l-.469 5.02-.17 1.82-1.81-.15a312 312 0 0 0-8.765-.604l.329 4.873c5.334.2 12.325.645 19.657 1.325 6.073.564 12.374 1.289 18.159 2.17l1.22-4.307a403 403 0 0 0-8.594-1.194l-1.704-.218.099-1.703.296-5.099q-.757-.05-1.504-.091l-1.978-.111.257-1.962 2.027-15.45.237-1.815 1.807.224 10.557 1.311 1.797.224-.192 1.799-.563 5.262 1.131.172.808-5.265.285-1.857 1.846.317 10.8 1.857 1.798.309-.294 1.8-.802 4.912 1.125.227 1.053-5.04.37-1.776 1.775.344 10.65 2.062 1.836.356-.382 1.825-1.1 5.244 1.079.267 1.401-5.13.47-1.721 1.733.419 10.537 2.55 1.794.433-.44 1.79-1.25 5.078 1.23.303 1.496-5.168.524-1.812 1.793.567 10.313 3.263 1.712.541-.503 1.726-4.373 15-.526 1.806-1.784-.561-1.5-.468-1.612 4.839-.557 1.67-1.682-.476a470 470 0 0 0-8.04-2.196l-.61 4.635a326 326 0 0 1 17.949 5.002c6.192 1.912 12.417 4.013 18.76 6.289a697 697 0 0 1 2.344-4.294 949 949 0 0 0-8.991-3.202l-1.77-.623.655-1.752 1.697-4.544q-1.02-.348-2.038-.69l-1.776-.6.625-1.754 5.175-14.55.605-1.7 1.705.563 10.497 3.47 1.848.61-.71 1.808-1.892 4.814 1.155.481 2.17-5.071.708-1.658 1.666.672 10.238 4.124 1.682.678-.653 1.69-1.84 4.768 1.037.448 2.266-4.855.77-1.652 1.655.753 9.975 4.537 1.683.766-.776 1.681-6.45 13.988-.755 1.636-1.65-.722q-.74-.325-1.484-.648l-2.333 4.779-.804 1.647-1.65-.798q-.848-.41-1.715-.814l-18.201 53.208q.856.38 1.713.769l1.779.805-.908 1.728c-1.357 2.583-2.563 5.462-3.75 8.295l-.967 2.294-.78 1.829-1.761-.923a48 48 0 0 0-1.011-.513l-3.352 7.198q.811.346 1.622.697l1.343.58-.623 1.325a810 810 0 0 0-2.517 5.416c-.814 1.765-1.628 3.53-2.479 5.337zm56.288-7.568c-4.988-.13-10.097-.88-14.832-2.492-4.279-1.455-8.304-3.641-11.601-6.76-2.995-2.833-4.972-6.445-6.205-10.352-1.377-4.36-1.84-9.096-1.808-13.65l.18-25.463 29.799.036v15.189h.006v3.685c0 1.994.167 5.67 1.473 7.33.808 1.025 2.455 1.133 3.647 1.119 1.64-.02 3.107-.509 4.174-1.79 1.415-1.7 1.84-4.268 1.832-6.412l-.023-6.798c-.009-2.601-.457-5.284-1.52-7.67-.833-1.87-2.05-3.555-3.722-4.76L467.94 420.48a27.6 27.6 0 0 1-4.213-3.756 26.5 26.5 0 0 1-3.34-4.503c-1.58-2.704-2.598-5.62-3.177-8.692-.516-2.737-.665-5.525-.645-8.306l.047-6.563c.024-3.364.31-6.752 1.12-10.026.885-3.585 2.376-6.928 4.662-9.85 3.087-3.943 7.363-6.498 12.072-8.068 5.385-1.795 11.327-2.323 16.986-2.246 5.064.07 10.215.454 15.119 1.79 5.159 1.406 9.729 3.787 13.623 7.496 2.926 2.787 4.637 6.27 5.48 10.187.662 3.07.738 6.168.712 9.295l-.092 10.862-29.696-.11-.004-11.92c0-1.724-.264-4.08-1.414-5.467-.74-.892-1.819-1.196-2.93-1.242h-.491c-1.214.09-2.389 1.104-3.118 1.984-.939 1.131-1.778 2.784-1.86 4.296v6.147c0 .976.043 1.977.21 2.94.12.678.31 1.391.64 2 2.054 3.793 6.25 6.262 9.8 8.463 1.199.744 2.4 1.487 3.577 2.267 1.123.744 2.253 1.477 3.383 2.21 6.518 4.222 14.23 9.11 18.75 15.472 2.495 3.51 4.132 7.309 4.993 11.525.737 3.61.845 7.23.781 10.902l-.234 13.407c-.08 4.592-.586 9.371-1.68 13.831-.898 3.655-2.32 7.576-4.652 10.572-3.597 4.62-7.824 8.024-13.349 10.01-5.461 1.96-11.444 2.244-17.194 2.093" style="fill:#fff;fill-rule:evenodd"></path><path d="M173.322 654.307c3.213-7.513 6.567-14.934 10.053-22.647 1.321-2.924 2.668-5.903 4.338-9.632q-1.891-.614-3.776-1.25a4149 4149 0 0 1-4.174 9.254c-3.208 7.098-6.304 13.948-9.347 21.008q-.7-.276-1.397-.556a355 355 0 0 1-24.978-11.123 336 336 0 0 1-21.353-11.497 475 475 0 0 0 13.538-1.072c6.576-.625 13.027-1.424 19.385-2.528q.215-.037.426-.124a1.98 1.98 0 0 0 1.07-2.589c-2.104-5.035-4.016-10.268-5.804-15.551a494 494 0 0 1-3.609-11.15 1206 1206 0 0 1 6.572 3.805c3.19 1.855 6.379 3.71 9.518 5.487l1.68-3.603a906 906 0 0 1-9.214-5.31c-3.676-2.139-7.354-4.278-10.954-6.297a1.982 1.982 0 0 0-2.829 2.412c1.626 5.29 3.304 10.666 5.084 15.927 1.545 4.564 3.182 9.093 4.953 13.495-5.523.89-11.059 1.557-16.65 2.089-6.408.61-13.002 1.051-19.768 1.454a1.98 1.98 0 0 0-.874 3.691 339 339 0 0 0 27.077 14.91 362 362 0 0 0 28.468 12.52 1.98 1.98 0 0 0 2.565-1.123" style="fill:#2b2f88;fill-rule:evenodd"></path><path d="M296.822 384.765a1.687 1.687 0 1 0 3.374 0 1.687 1.687 0 0 0-3.374 0z" style="fill:#2b2f88;fill-rule:evenodd;stroke:#221d1f;stroke-width:.56690001;stroke-linecap:butt;stroke-linejoin:miter;stroke-dasharray:none"></path><path d="M298.51 383.077a1.687 1.687 0 1 1 0 3.375 1.687 1.687 0 0 1 0-3.375m6.722 4.966-.023-10.57h-13.687l.023 10.57c.008 3.765 3.19 6.978 6.954 6.978s6.742-3.215 6.733-6.978m-4.754.576a1.687 1.687 0 1 1 3.375 0 1.687 1.687 0 0 1-3.375 0m-7.37 0a1.687 1.687 0 1 1 3.375 0 1.687 1.687 0 0 1-3.375 0m9.058-5.682a1.687 1.687 0 1 1 0-3.375 1.687 1.687 0 0 1 0 3.375m-5.683-1.688a1.687 1.687 0 1 1-3.375 0 1.687 1.687 0 0 1 3.375 0" style="fill:#2b2f88;fill-rule:evenodd"></path><path d="M300.197 384.765a1.687 1.687 0 1 0-3.375 0 1.687 1.687 0 0 0 3.375 0" style="fill:#fff;fill-rule:evenodd" data-source="https://football-logos.cc"></path><!-- source: https://football-logos.cc --></svg>