<svg xmlns="http://www.w3.org/2000/svg" viewBox="84.16 43.33 659.27 985.95"><!-- Source: https://football-logos.cc --><path d="M398.274 758.434c-45.09-31.298-86.974-32.317-87.923-32.333-.948.016-42.83 1.035-87.927 32.333a5.994 5.994 0 0 1-7.556-.588L143.1 689.34a6.02 6.02 0 0 1-1.85-4.619c.133-2.914 2.38-71.737-71.512-105.172a5.99 5.99 0 0 1-3.458-4.58c-.124-.835-12.121-84.715 11.488-194.206 13.865-64.303 37.107-124.828 69.08-179.892C186.82 132.032 240.608 71.605 306.72 21.27a5.995 5.995 0 0 1 7.261 0c66.112 50.335 119.9 110.762 159.87 179.601 31.975 55.064 55.217 115.589 69.082 179.892 23.607 109.49 11.61 193.371 11.488 194.205a6 6 0 0 1-3.458 4.58c-73.893 33.436-71.646 102.26-71.514 105.173a6 6 0 0 1-1.847 4.62l-71.77 68.505a6 6 0 0 1-7.559.588" style="fill:#ed1c24;fill-opacity:1;fill-rule:nonzero;stroke:none" transform="matrix(1.33333 0 0 -1.33333 0 1056)" data-source="https://football-logos.cc"></path><path d="M467.456 682.451c-3.37 3.217-60.38 57.636-66.456 63.433-46.941-30.972-88.794-31.76-90.6-31.774h-.097c-1.808.015-43.66.802-90.603 31.774-6.075-5.797-63.084-60.216-66.455-63.433-.07-6.275-1.034-22.459-8.4-41.691-8.326-21.731-26.762-51.342-67.096-70.645-.82-6.992-2.652-25.64-2.652-52.62 0-34.024 2.921-81.21 14.49-134.67a628 628 0 0 1 2.809-12.356L468.05 672.966c-.438 4.106-.57 7.37-.594 9.485m69.028-109.043L134.642 249.824a584 584 0 0 1 22.726-43.195c38.408-66.068 89.91-124.185 152.983-172.92 63.07 48.735 114.575 106.852 152.983 172.92 31.342 53.913 54.145 113.193 67.78 176.195 11.568 53.46 14.49 100.647 14.49 134.67 0 26.98-1.833 45.629-2.652 52.621a156 156 0 0 0-6.468 3.293" style="fill:#fff;fill-opacity:1;fill-rule:nonzero;stroke:none" transform="matrix(1.33333 0 0 -1.33333 0 1056)"></path><path d="M197.556 549.497c-28.118.12-51.011-22.577-51.13-50.7-.122-28.12 22.575-51.014 50.69-51.133 28.124-.123 51.015 22.575 51.138 50.696s-22.578 51.016-50.698 51.137" style="fill:#231f20;fill-opacity:1;fill-rule:nonzero;stroke:none" transform="matrix(1.33333 0 0 -1.33333 0 1056)"></path><path d="M160.437 535.805c-9.943-9.859-15.452-23-15.512-37.002-.06-14 5.335-27.187 15.194-37.13 9.856-9.942 22.993-15.45 36.991-15.51 14-.06 27.186 5.334 37.129 15.19 9.944 9.857 15.454 22.998 15.515 37.001.06 14-5.335 27.187-15.192 37.13-9.858 9.943-22.999 15.453-37 15.513-13.999.06-27.184-5.335-37.125-15.192m36.686-86.641c-13.196.056-25.581 5.248-34.874 14.621s-14.38 21.806-14.324 35.006 5.25 25.59 14.624 34.883c9.372 9.293 21.803 14.38 35 14.323 13.2-.057 25.588-5.25 34.882-14.625s14.38-21.806 14.323-35.005c-.058-13.202-5.252-25.59-14.627-34.884-9.374-9.292-21.805-14.377-35.004-14.32" style="fill:#231f20;fill-opacity:1;fill-rule:nonzero;stroke:none" transform="matrix(1.33333 0 0 -1.33333 0 1056)"></path><path d="m182.421 459.235 13.645 6.871v15.98l-14.774 11.12-15.562-5.124-.708-14.329c1.585-2.708 7.041-10.796 17.4-14.518m-16.755 63.467c-9.19-6.858-10.798-19.752-11.049-22.732l10.771-10.831 15.863 5.222 5.518 17.596-7.008 13.747zm39.348-10.187 8.018 13.741-7.645 13.082c-1.648.51-5.113 1.424-8.744 1.424-3.742 0-7.224-.974-8.754-1.47l-7.375-12.62 7.215-14.156zm23.255-38.524-.691 14.056-15.641 5.149-14.762-11.11v-15.998l14.274-5.461-.37-1.272c10.463 3.895 15.822 12.23 17.19 14.636m4.16 60.039-3.34-11.177c8.821-7.351 10.333-20.063 10.564-22.898l7.186-7.549c.249 2.025.383 4.085.383 6.175 0 13.866-5.661 26.41-14.793 35.45" style="fill:#fff;fill-opacity:1;fill-rule:nonzero;stroke:none" transform="matrix(1.33333 0 0 -1.33333 0 1056)"></path><path d="M187.61 540.371c1.623.526 5.153 1.503 9.034 1.503 3.828 0 7.393-.95 9.095-1.479l9.014 4.942a49.8 49.8 0 0 1-17.413 3.127 49.7 49.7 0 0 1-18.224-3.436zm39.823-17.627-13.49 2.874-7.646-13.105 5.698-18.168 15.895-5.233 10.66 10.72c-.212 2.711-1.73 15.96-11.117 22.912m-45.22-64.612c-10.3 3.64-15.951 11.46-17.898 14.647l-9.493-.295c6.992-11.365 18.41-19.713 31.855-22.64zm46.632 14.652c-1.96-3.211-7.688-11.136-18.152-14.739l-2.381-8.135c13.294 2.986 24.578 11.275 31.518 22.531zM153.81 500.89c.182 2.472 1.582 15.68 10.696 23.168l-2.988 10.005c-8.513-8.948-13.74-21.053-13.74-34.378 0-1.649.083-3.276.24-4.882zm187.156 67.213s-4.094-3.071-8.446-1.536-11.515 2.303-17.403 2.303c-5.886 0-15.355 3.071-18.681 6.654-3.328 3.582-2.815 8.957-2.815 8.957s-7.423 0-8.444-4.606c-1.025-4.607 1.021-11.517 12.794-15.1s15.866-1.791 24.312-2.047c8.446-.255 11.26-2.303 16.122-3.07 4.863-.769 6.91-.512 6.656 4.093-.258 4.607-4.095 4.352-4.095 4.352" style="fill:#fff;fill-opacity:1;fill-rule:nonzero;stroke:none" transform="matrix(1.33333 0 0 -1.33333 0 1056)"></path><path d="M283.677 580.208c-1.278-5.745 1.69-13.202 13.848-16.9 8.709-2.652 13.444-2.441 18.456-2.22 1.934.087 3.934.175 6.255.105 5.266-.16 8.188-1.02 11.014-1.853 1.596-.47 3.102-.913 4.916-1.2 2.882-.454 5.401-.712 7.02.75 1.435 1.298 1.49 3.445 1.408 4.947-.109 1.928-.756 3.43-1.925 4.465-1.62 1.434-3.586 1.346-3.806 1.333a1.55 1.55 0 0 1-.813-.301c-.036-.026-3.52-2.555-7.02-1.32-5 1.766-12.774 2.391-17.913 2.391-5.861 0-14.721 3.11-17.557 6.163-2.801 3.017-2.414 7.724-2.41 7.771.038.43-.104.858-.397 1.176-.288.319-.7.502-1.132.502-.352 0-8.667-.066-9.944-5.81m14.743-13.963c-10.295 3.133-11.934 8.462-11.934 11.533 0 .74.095 1.35.187 1.765.502 2.254 3.52 3.004 5.41 3.262.117-2.107.717-5.62 3.228-8.325 3.736-4.023 13.715-7.145 19.806-7.145 6.35 0 13.137-.89 16.892-2.215 4.216-1.488 8.097.602 9.4 1.434.73-.088 1.99-.576 2.117-2.887q.02-.35.019-.641c0-1.268-.252-1.705-.418-1.856-.662-.598-3.338-.175-4.481.004-1.618.256-3.03.671-4.529 1.113-2.87.846-6.125 1.805-11.788 1.976-2.436.074-4.491-.016-6.482-.106-4.95-.22-9.223-.408-17.427 2.087z" style="fill:#231f20;fill-opacity:1;fill-rule:nonzero;stroke:none" transform="matrix(1.33333 0 0 -1.33333 0 1056)"></path><path d="M307.953 524.085s-7.422 4.35-22.523 16.89c-15.098 12.54-25.846 21.498-27.125 24.057-1.28 2.558.566 14.606-7.423 23.288-5.886 6.398-9.98 4.35-11.772 2.302-1.792-2.046.256-7.933.256-7.933s-10.748 8.702-16.636 1.536c-5.884-7.166 2.816-15.867 2.816-15.867s-7.932-2.303-7.42-8.7c.51-6.399 5.486-9.391 9.725-11.005 5.373-2.047 14.33-2.815 14.33-2.815s6.91-5.886 17.658-18.939c10.749-13.05 20.218-25.59 20.218-25.59s26.616 7.677 27.896 22.776" style="fill:#fff;fill-opacity:1;fill-rule:nonzero;stroke:none" transform="matrix(1.33333 0 0 -1.33333 0 1056)"></path><path d="M243.282 594.174c-2.731-.035-4.51-1.606-5.326-2.54-.834-.951-1.113-2.327-1.113-3.744 0-.61.053-1.227.133-1.821-4.64 2.584-11.181 4.304-15.43-.869-1.71-2.082-2.372-4.321-2.372-6.513 0-3.709 1.892-7.264 3.814-9.723-2.536-1.22-6.423-3.853-6.423-8.69q-.001-.36.03-.739c.451-5.638 4.055-9.782 10.708-12.317 4.83-1.84 12.231-2.664 14.239-2.863 1.527-1.366 7.935-7.286 17.112-18.431 10.603-12.876 20.083-25.416 20.178-25.541a1.54 1.54 0 0 1 1.65-.551c1.129.327 27.648 8.155 29.001 24.123a1.54 1.54 0 0 1-.754 1.454c-.074.043-7.526 4.464-22.316 16.748-13.152 10.923-25.575 21.239-26.734 23.561-.222.442-.352 2.057-.464 3.483-.402 5.048-1.072 13.496-7.201 20.158-2.973 3.23-5.91 4.851-8.732 4.815m-3.033-12.739c.56.394.792 1.11.567 1.758-.825 2.389-1.255 5.613-.55 6.418.482.55 1.515 1.473 3.054 1.492 1.885.024 4.11-1.3 6.432-3.823 5.413-5.884 6.008-13.37 6.401-18.323.175-2.19.288-3.635.779-4.612 1.384-2.77 10.387-10.324 27.519-24.552 12.204-10.134 19.374-14.925 21.8-16.462-1.915-11.776-21.08-18.746-25.625-20.233-2.302 3.025-10.532 13.764-19.603 24.778-10.71 13.007-17.56 18.886-17.846 19.13a1.52 1.52 0 0 1-.864.361c-.088.008-8.81.775-13.915 2.72-5.53 2.106-8.39 5.278-8.742 9.692a6 6 0 0 0-.017.453c0 4.723 6.073 6.574 6.339 6.652a1.538 1.538 0 0 1 .656 2.558c-.236.239-4.413 4.512-4.413 9.162 0 1.552.464 3.146 1.697 4.646 4.847 5.9 14.388-1.677 14.483-1.755a1.54 1.54 0 0 1 1.848-.06" style="fill:#231f20;fill-opacity:1;fill-rule:nonzero;stroke:none" transform="matrix(1.33333 0 0 -1.33333 0 1056)"></path><path d="M345.828 411.994s-12.54 3.07-32.502 2.815c-19.96-.256-33.525-10.494-34.804-26.104-1.28-15.611 5.886-25.849 9.724-31.222 3.84-5.375 5.887-7.165 5.887-10.493 0-3.326-.767-8.957-7.678-17.146s-9.47-11.262-9.47-11.262-4.849 4.608-15.098 4.608c-8.702 0-13.564-4.862-14.075-8.702-.511-3.838 1.536-7.164 1.536-7.164s-2.047-5.119.766-7.678c2.816-2.56 7.166-.51 7.166-.51s.512-2.562 4.094-3.33c3.584-.766 5.631 1.536 5.631 1.536s.51-2.047 5.12-2.047c4.605 0 7.165 1.28 9.723.512 2.56-.767 7.948-.94 9.214 2.303 4.093 10.494 11.771 22.779 21.24 32.758 9.47 9.98 16.124 14.588 16.124 14.588s-9.469 1.023-12.029 10.491c-2.56 9.47 2.047 16.123 8.957 18.428 6.91 2.302 15.612.767 15.612.767s20.472 15.355 4.862 36.852" style="fill:#fff;fill-opacity:1;fill-rule:nonzero;stroke:none" transform="matrix(1.33333 0 0 -1.33333 0 1056)"></path><path d="M313.307 416.344c-20.713-.266-34.967-11.065-36.317-27.513a46 46 0 0 1-.154-3.769c0-14.246 6.77-23.723 10.162-28.47l2.284-3.104c2.276-3.03 3.315-4.413 3.315-6.498 0-3.213-.76-8.382-7.316-16.154l-8.53-10.147c-2.146 1.467-7.008 4.038-14.864 4.038-9.26 0-14.949-5.17-15.597-10.034a11 11 0 0 1-.097-1.456c0-2.704.954-4.985 1.49-6.058-.246-.79-.585-2.127-.585-3.65 0-1.724.445-3.62 1.984-5.02 2.436-2.212 5.602-1.783 7.415-1.273.695-1.077 2.014-2.383 4.556-2.93 2.574-.55 4.507.183 5.71.92.939-.756 2.563-1.467 5.362-1.467 2.124 0 3.864.262 5.263.473 1.69.255 2.909.437 4.019.107 2.872-.862 9.358-1.211 11.084 3.215 4.236 10.852 12.058 22.91 20.927 32.258 9.225 9.725 15.815 14.335 15.882 14.381.525.365.766 1.016.614 1.637a1.54 1.54 0 0 1-1.318 1.152c-.345.038-8.474 1.063-10.715 9.367-2.096 7.755 1.026 14.26 7.958 16.568 6.448 2.148 14.775.728 14.861.712a1.55 1.55 0 0 1 1.189.283c.213.163 21.49 16.524 5.181 38.984a1.54 1.54 0 0 1-.877.589c-.52.127-12.96 3.114-32.886 2.859m-36.228-99.29c.42.03.816.226 1.088.549l9.462 11.251c7.207 8.542 8.039 14.442 8.039 18.136 0 3.112-1.479 5.078-3.93 8.343l-2.241 3.044c-3.473 4.857-10.694 14.97-9.445 30.203 1.21 14.756 14.279 24.45 33.294 24.693 17.124.22 28.84-2.06 31.526-2.638 3.85-5.468 5.299-10.498 5.299-14.914 0-10.286-7.597-17.27-9.639-18.96-2.25.32-9.528 1.115-15.66-.93-5.777-1.925-10.724-7.094-10.724-14.813 0-1.703.242-3.53.766-5.471 1.822-6.735 6.725-9.594 10.057-10.79-2.801-2.229-7.685-6.405-13.783-12.831-9.126-9.621-17.185-22.053-21.557-33.259-.823-2.11-5.217-2.027-7.342-1.387-1.77.53-3.431.28-5.359-.012-1.364-.204-2.91-.437-4.805-.437-2.592 0-3.531.736-3.675 1.02l.045-.134c-.168.515-.617.95-1.147 1.066-.532.118-1.108-.008-1.476-.407-.063-.065-1.561-1.628-4.175-1.068-2.437.522-2.875 1.996-2.918 2.162a1.57 1.57 0 0 1-.837 1.03 1.54 1.54 0 0 1-1.31.025c-.034-.016-3.475-1.57-5.486.258-1.952 1.776-.388 5.933-.374 5.976a1.56 1.56 0 0 1-.113 1.368c-.019.025-1.756 2.937-1.326 6.162.409 3.058 4.574 7.365 12.554 7.365 9.43 0 14.003-4.148 14.047-4.188.31-.288.725-.435 1.145-.411" style="fill:#231f20;fill-opacity:1;fill-rule:nonzero;stroke:none" transform="matrix(1.33333 0 0 -1.33333 0 1056)"></path><path d="M211.215 483.223c5.449.364 14.673 7.847 16.378 7.847 1.707 0 5.12 0 23.545-8.87 18.427-8.872 28.323-15.355 28.323-15.355s-2.987-.853 4.776-15.013c6.823-12.446 22.863-21.84 32.757-25.251 13.179-4.546 24.67-9.385 28.662-20.475 3.072-8.53-2.388-15.355-5.458-26.273-3.071-10.919 1.024-26.274 12.966-37.534 11.414-10.76 32.759-18.768 32.759-18.768s1.364-14.67-.343-23.542c-1.708-8.874-6.824-17.746-6.824-17.746s-8.19 2.39-16.378 1.026c-8.19-1.366-10.921-9.557-10.236-13.993.682-4.435 3.068-4.092 3.068-4.092s-.34-2.39 3.073-4.439c3.412-2.047 5.799-.679 5.799-.679s.103-2.441 5.46-3.072c5.802-.682 8.531 1.364 10.577 1.364 2.048 0 1.025-2.046 5.461-3.069 2.326-.539 12.484-.349 16.038 5.116 4.434 6.825 1.365 19.11 7.847 37.877 7.72 22.347 17.746 35.487 17.746 35.487s-17.738 9.677-22.182 21.838c-6.484 17.744 2.389 29.003 2.389 29.003s11.942-3.755 21.497 5.801c9.555 9.554 12.081 21.546 4.436 43.336-13.648 38.899-16.38 54.935-10.92 69.267 3.695 9.697 11.943 17.06 18.426 11.26 4.315-3.862.872-11.425-2.728-15.355-3.755-4.095-5.118-10.237-3.755-15.355 1.365-5.119 8.19-12.626 8.19-12.626s4.094-5.459 9.553-6.482 8.19 1.365 8.19 1.365 2.731-1.025 6.825-.683c4.096.341 5.8 3.071 5.8 3.071s-10.238 0-13.649 8.872c-3.412 8.872-1.706 15.356 2.048 24.227s5.118 23.884-9.555 31.391c-14.672 7.509-28.66.002-34.804-10.576-6.142-10.58-17.956-28.313-2.389-76.434 7.507-23.203 14.448-39.628 3.413-46.065-4.095-2.389-9.555-.341-10.92 1.364-1.364 1.708-4.093 15.698-13.647 27.64s-19.791 20.473-25.592 28.663c-5.802 8.188-5.802 12.965-5.802 12.965s2.73-3.07 8.189-4.435c5.46-1.365 8.532 1.024 8.532 1.024s-4.095 2.73-5.8 7.165c-1.708 4.435-.343 7.507-.343 7.507s1.705-3.07 4.778-5.8c3.07-2.73 6.483-3.754 6.483-3.754s-3.072 8.19-1.707 14.331c1.129 5.075 4.777 11.262 4.095 16.038s-1.706 6.823-1.706 6.823 2.048-1.365 4.095-2.047 4.435-.682 4.435-.682-4.095 5.119-2.73 13.307c1.366 8.19 1.706 13.308.341 15.356l-1.363 2.048s3.752-2.048 7.507-2.73c3.753-.683 5.8.682 5.8.682s-4.776 2.73-5.458 7.166c-.685 4.436-.002 10.577-2.39 15.013l-2.39 4.436s1.708-.683 5.12-1.365 5.8.342 5.8.342-5.119 3.07-6.482 7.847c-1.365 4.777.342 15.015-5.46 20.816-2.73 2.728-6.143 5.118-6.143 5.118s4.09 6.925-3.41 12.284c-9.557 6.823-17.403-1.366-17.403-1.366s-4.437.682-13.309.682c-8.87 0-13.306-.682-16.038-4.094-2.73-3.412-3.07-5.117-3.07-5.117s-4.094-.684-11.944-.684c-7.845 0-11.6.342-11.6-2.729 0-3.07 2.047-3.07 2.047-3.07s-4.435-3.073-4.435-8.19c0-5.119 3.41-9.215 14.331-9.555 10.918-.342 13.649 1.706 13.649 1.706s.682-3.07 3.754-6.483c3.07-3.412 5.458-5.118 5.458-5.118s-2.728-4.776-11.601-5.118c-8.872-.342-10.918 1.022-13.648 2.73-2.73 1.706-4.197 1.582-5.12 1.022-2.388-1.449 1.025-2.73 2.73-7.165 1.707-4.436 1.237-11.263 8.531-9.213 7.592 2.134 19.108 3.413 19.108 3.413s-2.559-1.536-5.118-4.437c-1.628-1.845-1.365-2.047-1.365-2.047s-1.707 1.621-10.918-1.45c-9.214-3.07-13.046-8.551-16.039-11.174-6.226-5.46-16.777-9.819-21.837-15.015-6.398-6.568-5.119-10.919-5.119-10.919s-9.725 1.792-27.127 6.143c-17.402 4.35-28.408 6.653-29.43 8.189-1.024 1.536-3.327 11.005-13.564 13.051-7.596 1.52-9.048-1.62-9.981-5.118-1.023-3.838 4.093-7.422 4.093-7.422s-6.14.512-11.259 0c-5.119-.511-10.748-9.98-3.326-16.634 4.808-4.312 14.332-3.327 14.332-3.327s-8.702-3.071-7.167-10.236c1.254-5.858 5.374-5.205 11.772-4.778" style="fill:#fff;fill-opacity:1;fill-rule:nonzero;stroke:none" transform="matrix(1.33333 0 0 -1.33333 0 1056)" data-source="https://football-logos.cc"></path><path d="M363.922 606.994c-1.576.19-5.795.605-12.806.605-9.145 0-14.057-.7-17.235-4.672-1.738-2.172-2.588-3.724-3.001-4.68-1.566-.19-5.22-.545-10.816-.545l-2.131.007c-5.385.024-8.35.037-9.97-1.575-.686-.684-1.035-1.592-1.035-2.696 0-1.554.445-2.59 1.031-3.294-1.488-1.556-3.418-4.283-3.418-7.966 0-4.834 2.743-10.682 15.818-11.09 7.025-.22 10.83.514 12.801 1.171.568-1.354 1.615-3.335 3.508-5.439a45 45 0 0 1 4.415-4.311c-1.254-1.222-4.047-3.156-9.475-3.365-8.273-.318-10.112.832-12.662 2.425l-.115.071c-2.795 1.748-4.997 2.087-6.726 1.035-.877-.53-1.374-1.168-1.521-1.949-.235-1.253.516-2.234 1.385-3.367.717-.936 1.608-2.101 2.23-3.713l.846-2.936c.676-2.709 1.371-5.511 3.741-6.888 1.516-.881 3.411-.985 5.791-.316 4.158 1.168 9.582 2.085 13.546 2.664a25 25 0 0 1-1.124-1.194 16 16 0 0 1-.972-1.197c-1.77.29-4.93.047-10.645-1.859-7.69-2.562-11.896-6.822-14.676-9.641l-1.89-1.836c-2.833-2.486-6.71-4.8-10.453-7.038-4.455-2.66-8.661-5.173-11.473-8.06-4.272-4.386-5.409-7.937-5.623-10.111-3.611.722-12.32 2.545-25.15 5.753l-10.83 2.665c-8.885 2.164-16.549 4.033-17.733 4.97l-.463.995c-1.402 3.22-4.686 10.757-14.04 12.627-8.428 1.686-10.635-1.997-11.764-6.228a5.5 5.5 0 0 1-.189-1.428c0-1.772.85-3.37 1.834-4.655-2.184.057-4.931.048-7.48-.207-3.266-.325-6.442-3.291-7.722-7.21a11.3 11.3 0 0 1-.574-3.517c0-3.16 1.41-6.168 4.096-8.578 2.74-2.456 6.724-3.37 9.972-3.677-1.924-1.72-3.497-4.079-3.497-7.095 0-.63.067-1.287.215-1.97 1.46-6.823 6.48-6.47 12.294-6.063l1.082.075c3.801.254 8.909 3.412 12.637 5.718 1.44.889 3.214 1.984 3.744 2.125 1.488-.005 5.074-.197 22.772-8.718 14.692-7.073 24.008-12.668 27.051-14.563-.059-.294-.155-.546-.155-.9 0-2.81 1.823-7.512 5.525-14.26 7.685-14.022 25.34-23.115 33.602-25.964 12.444-4.292 23.927-9.015 27.718-19.542.568-1.576.809-3.1.809-4.619 0-3.685-1.43-7.335-3.11-11.625-1.052-2.679-2.241-5.716-3.192-9.094-.718-2.55-1.064-5.234-1.064-7.981 0-10.724 5.282-22.437 14.455-31.086 10.33-9.738 28.175-17.09 32.36-18.735.141-1.828.43-6.117.43-10.84 0-3.88-.193-8.038-.828-11.329-1.322-6.873-4.778-13.78-6.095-16.25-2.628.62-9.178 1.867-15.85.754-7.919-1.319-11.624-8.637-11.624-14.1 0-.568.039-1.118.12-1.639.525-3.403 1.996-4.657 3.175-5.121.285-1.215 1.155-2.969 3.693-4.49 2.428-1.455 4.475-1.467 5.792-1.213.797-1.085 2.461-2.323 6.081-2.75 4.172-.49 6.863.318 8.822.91.792.238 1.474.443 1.933.443l.162-.01c0-.017.27-.32.27-.32.835-1.014 1.882-2.053 4.683-2.702 2.463-.567 13.557-.55 17.671 5.78 2.304 3.544 2.744 8.221 3.301 14.142.603 6.394 1.353 14.349 4.711 24.07 7.54 21.823 17.414 34.925 17.514 35.055a1.55 1.55 0 0 1 .279 1.252 1.53 1.53 0 0 1-.765 1.027c-.173.093-17.282 9.55-21.473 21.018-1.682 4.605-2.296 8.734-2.296 12.308 0 7.58 2.732 12.603 3.91 14.427 3.268-.724 13.382-2.078 21.914 6.455 10.67 10.67 12.105 24.108 4.799 44.931-13.729 39.133-16.182 54.433-10.933 68.212 2.405 6.311 6.665 11.193 10.605 12.15 1.93.47 3.737-.031 5.361-1.487.935-.836 1.423-1.922 1.491-3.32q.01-.174.01-.347c0-3.278-2.211-7.187-4.336-9.506-3.02-3.295-4.684-7.813-4.684-12.304 0-1.513.187-3.024.578-4.485 1.427-5.352 8.063-12.738 8.5-13.22.39-.512 4.627-5.909 10.444-7.002 4.532-.849 7.454.43 8.732 1.203 1.155-.315 3.52-.806 6.693-.541 4.806.401 6.887 3.649 6.975 3.787a1.54 1.54 0 0 1-1.299 2.35c-.376.001-9.239.134-12.22 7.887-3.133 8.145-1.842 13.932 2.03 23.077 4.507 10.658 4.524 25.788-10.27 33.358-15.359 7.859-30.155.327-36.83-11.174l-.603-1.028c-6.435-10.999-17.205-29.407-1.918-76.65l2.274-6.936c6.185-18.68 10.652-32.18 1.823-37.328-3.525-2.057-8.13-.025-8.948.998-.231.332-.768 1.9-1.289 3.419-1.837 5.361-5.257 15.344-12.359 24.22-4.737 5.924-9.695 11.068-14.065 15.606-4.609 4.783-8.59 8.914-11.472 12.984-2.452 3.46-3.783 6.235-4.541 8.273a20.8 20.8 0 0 1 5.305-2.12c6.113-1.528 9.698 1.185 9.844 1.3.375.293.593.742.593 1.214v.053a1.54 1.54 0 0 1-.68 1.222c-.037.025-3.721 2.537-5.222 6.442a10.8 10.8 0 0 0-.658 2.752 25.5 25.5 0 0 1 2.64-2.745c3.288-2.922 6.91-4.03 7.063-4.076a1.533 1.533 0 0 1 1.976 1.47q0 .273-.097.539c-.024.062-1.959 5.314-1.959 10.3 0 1.084.09 2.156.314 3.16.379 1.706 1.068 3.565 1.799 5.535 1.19 3.217 2.417 6.527 2.417 9.596q0 .739-.099 1.455a41 41 0 0 1-.657 3.52c.345-.144.682-.298 1.038-.416 2.258-.752 4.814-.76 4.92-.76a1.53 1.53 0 0 1 1.534 1.535c0 .34-.111.677-.327.953-.129.162-2.68 3.486-2.68 9.01 0 .965.077 1.998.26 3.092.824 4.946 1.234 8.53 1.234 11.16 0 1.336-.113 2.414-.324 3.31 1.165-.42 2.462-.816 3.783-1.057 4.242-.771 6.663.743 6.928.916.428.286.682.766.682 1.28v.048a1.54 1.54 0 0 1-.77 1.282c-.04.023-4.147 2.436-4.705 6.068-.203 1.32-.28 2.832-.363 4.437-.183 3.62-.393 7.725-2.193 11.07 0 0-.397.735-.659 1.227a45 45 0 0 1 1.737-.39c3.837-.767 6.591.388 6.705.436a1.53 1.53 0 0 1 .932 1.412c0 .535-.28 1.036-.744 1.315-.045.028-4.62 2.834-5.798 6.954-.373 1.302-.501 3.247-.637 5.306-.345 5.229-.776 11.736-5.214 16.174-1.898 1.897-4.057 3.592-5.305 4.528.423 1.081.74 2.41.74 3.878 0 2.917-1.217 6.328-5.182 9.159-8.99 6.422-16.689.822-18.797-1.001m1.607-2.68c.286.295 7.08 7.129 15.406 1.182 3.101-2.215 3.912-4.669 3.912-6.628 0-1.905-.767-3.342-.936-3.632a1.55 1.55 0 0 1 .446-2.032c.035-.023 3.34-2.35 5.938-4.946 3.62-3.62 4.009-9.49 4.322-14.206.15-2.323.284-4.328.746-5.946.78-2.735 2.6-4.925 4.213-6.437a10 10 0 0 0-1.753.175c-3.197.64-4.834 1.28-4.851 1.287a1.538 1.538 0 0 1-2.103-1.428c0-.248.06-.498.184-.726l2.387-4.438c1.474-2.734 1.656-6.312 1.83-9.77.086-1.683.169-3.274.395-4.749.42-2.718 2.081-4.827 3.588-6.243a9.2 9.2 0 0 0-2.138.14c-3.455.628-7.012 2.549-7.047 2.568a1.534 1.534 0 0 1-2.27-1.35c0-.295.085-.592.257-.85l1.365-2.048c.448-.671.614-1.986.614-3.578 0-3.52-.813-8.395-1.191-10.673a21.7 21.7 0 0 1-.3-3.58c0-3.486.87-6.24 1.725-8.126a10 10 0 0 0-1.133.285c-1.818.606-3.71 1.856-3.728 1.868a1.535 1.535 0 0 1-2.383-1.284c0-.227.05-.458.154-.672.009-.019.937-1.967 1.563-6.362q.07-.493.07-1.02c0-2.521-1.13-5.572-2.227-8.532-.732-1.98-1.49-4.025-1.916-5.936-.274-1.232-.385-2.531-.385-3.828 0-2.968.582-5.904 1.14-8.06a17.3 17.3 0 0 0-3.013 2.125c-2.822 2.51-4.44 5.371-4.454 5.401-.285.506-.832.81-1.412.784a1.53 1.53 0 0 1-1.333-.908c-.042-.093-.647-1.495-.647-3.728 0-1.373.23-3.06.957-4.955 1.06-2.748 2.903-4.854 4.342-6.208-1.22-.326-2.953-.517-5.266.06-4.882 1.22-7.394 3.944-7.421 3.971a1.53 1.53 0 0 1-1.69.405 1.53 1.53 0 0 1-.986-1.43c0-.214.068-5.363 6.084-13.854 3.017-4.258 7.07-8.466 11.763-13.339 4.328-4.49 9.232-9.58 13.883-15.394 6.765-8.458 10.073-18.111 11.85-23.297.871-2.542 1.278-3.693 1.798-4.343 1.778-2.223 8.026-4.57 12.89-1.732 10.98 6.404 6.184 20.893-.452 40.949l-2.27 6.916c-14.862 45.932-4.526 63.598 1.646 74.151l.608 1.039c5.951 10.25 19.12 16.97 32.777 9.981 8.268-4.23 11.21-11.23 11.21-18.196 0-3.92-.931-7.83-2.37-11.23-2.474-5.843-3.997-10.685-3.997-15.65 0-3.104.597-6.255 1.93-9.727 2.387-6.21 7.663-8.5 11.3-9.351a7.2 7.2 0 0 0-2.146-.511c-3.658-.305-6.139.583-6.164.593a1.58 1.58 0 0 1-1.527-.27c-.095-.078-2.342-1.882-6.913-1.025-4.79.897-8.573 5.846-8.61 5.896q-.043.058-.09.11c-.065.072-6.591 7.292-7.841 11.987-1.262 4.732.104 10.326 3.4 13.923 2.707 2.951 5.342 7.832 5.134 12.08-.109 2.197-.979 4.084-2.513 5.457-2.392 2.14-5.205 2.894-8.135 2.183-4.954-1.204-9.957-6.716-12.75-14.041-5.558-14.595-3.112-30.37 10.907-70.324 6.949-19.805 5.769-31.897-4.074-41.74-8.748-8.753-19.499-5.561-19.953-5.422a1.54 1.54 0 0 1-1.663-.514c-.28-.356-5.107-6.646-5.107-17.134 0-3.9.668-8.378 2.481-13.347 3.874-10.599 16.94-19.133 21.386-21.79-2.753-3.943-10.576-16.038-16.96-34.507-3.475-10.067-4.245-18.227-4.864-24.786-.517-5.5-.93-9.845-2.818-12.754-3.035-4.67-12.353-4.93-14.405-4.46-2.02.468-2.543 1.102-3.003 1.661-.477.577-1.197 1.45-2.803 1.45-.91 0-1.795-.268-2.82-.576-1.799-.54-4.037-1.215-7.577-.8-3.108.366-4.027 1.38-4.118 1.74l.012-.13a1.62 1.62 0 0 1-.816 1.232c-.445.239-1 .284-1.452.051-.07-.034-1.746-.866-4.276.654-2.399 1.44-2.337 2.895-2.333 2.955.029.448-.178.915-.499 1.227a1.63 1.63 0 0 1-1.247.455l.104.012c-.282.009-1.09.524-1.44 2.798-.545 3.537 1.584 11.01 8.972 12.244 7.73 1.287 15.62-.963 15.698-.987a1.54 1.54 0 0 1 1.76.706c.213.372 5.266 9.2 7 18.222.683 3.544.89 7.927.89 11.973 0 6.213-.492 11.636-.528 12.004a1.54 1.54 0 0 1-.987 1.295c-.212.078-21.192 8.028-32.245 18.447-9.6 9.054-13.465 20.002-13.465 28.898 0 2.573.324 4.971.925 7.103.907 3.231 2.018 6.065 3.093 8.805 1.75 4.464 3.332 8.503 3.332 12.744 0 1.832-.294 3.702-1 5.66-4.25 11.805-16.429 16.862-29.607 21.405-9.15 3.156-25.2 12.295-31.91 24.537-4.602 8.395-5.16 11.66-5.16 12.75 0 .253.026.365.043.421.257.232.456.52.51.874q.018.117.018.232c0 .512-.258.996-.694 1.283-.1.066-10.193 6.642-28.497 15.455-18.743 9.023-22.298 9.023-24.212 9.023-1.03 0-2.278-.748-5.25-2.585-3.26-2.017-8.189-5.062-11.23-5.265-.001 0 .003 0 0 0l-1.09-.076c-6.21-.436-8.216-.383-9.078 3.643-1.232 5.743 5.875 8.358 6.179 8.468a1.535 1.535 0 0 1-.67 2.974c-.091-.01-8.913-.857-13.152 2.943-3.731 3.345-3.264 6.984-2.652 8.854.884 2.71 3.08 4.906 5.108 5.11 4.914.49 10.919 0 10.979-.004a1.535 1.535 0 0 1 1.01 2.787c-1.177.831-4.101 3.489-3.492 5.77.734 2.757 1.428 5.362 8.194 4.009 7.78-1.557 10.514-7.828 11.827-10.842l.763-1.557c1.074-1.613 5.239-2.688 19.524-6.168l10.81-2.659c17.25-4.312 27.124-6.144 27.22-6.163a1.54 1.54 0 0 1 1.39.474c.358.378.494.93.37 1.435-.005.037-.821 3.742 4.738 9.449 2.531 2.599 6.57 5.01 10.846 7.566 3.864 2.309 7.86 4.694 10.904 7.365l2.049 1.987c2.732 2.768 6.472 6.556 13.462 8.886 7.59 2.53 9.56 1.649 9.577 1.639l-.201.154c.672-.514 1.698-.44 2.214.232.226.296.341.638.341.972 0 .203-.047.402-.133.588.106-.22.158-.44.158-.632 0-.16-.03-.3-.071-.393.006.014.17.365 1.064 1.378 2.356 2.668 4.737 4.123 4.76 4.136.617.374.892 1.126.659 1.81a1.53 1.53 0 0 1-1.62 1.033c-.475-.054-11.73-1.319-19.355-3.462-1.515-.425-2.665-.42-3.416.014-1.246.725-1.76 2.789-2.302 4.976l-.965 3.296c-.778 2.026-1.862 3.443-2.655 4.476-.213.28-.44.593-.609.85.86.398 2.486-.463 3.406-1.036l.114-.072c2.785-1.742 5.188-3.245 14.409-2.89 9.613.37 12.746 5.666 12.875 5.89.39.683.199 1.552-.44 2.01-.022.017-2.31 1.671-5.212 4.898-2.726 3.032-3.39 5.77-3.398 5.797-.112.487-.479.877-.942 1.064a1.58 1.58 0 0 1-1.43-.145c-.028-.018-2.813-1.741-12.726-1.433-12.843.401-12.843 6.136-12.843 8.021 0 4.222 3.74 6.904 3.78 6.93.538.38.748 1.062.561 1.693-.185.632-.78 1.077-1.441 1.102l.078-.002c-.36.047-.589.65-.589 1.538 0 .387.098.483.132.52.714.712 3.992.696 7.785.68l2.148-.007c7.883 0 12.024.675 12.196.704.602.1 1.099.584 1.244 1.178.005.015.403 1.533 2.772 4.496 2.159 2.696 5.625 3.518 14.84 3.518 8.617 0 13.032-.657 13.075-.664.49-.075.993.095 1.337.451m-85.111-138.608c-.06-.088-.185-.24-.535-.339.21.061.372.202.535.339m73.259-200.523q-.001.106.015.216c-.007-.03-.01-.146-.014-.222zm1.75-1.523a2 2 0 0 0-.222-.011c.102.003.205.011.222.011m-144.11 218.03" style="fill:#231f20;fill-opacity:1;fill-rule:nonzero;stroke:none" transform="matrix(1.33333 0 0 -1.33333 0 1056)"></path><path d="M449.88 506.884c-.219-.297-5.636-7.799-3.606-20.291 1.77-10.888 4.729-14.498 9.732-18.876 2.682-2.348 6.09-3.086 6.234-3.116a.77.77 0 0 1 .91.592c.085.414.301 1.223-.112 1.31-.031.008-2.361.482-4.734 2.56-4.723 4.131-8.554 7.742-10.247 18.165-1.92 11.814 3.008 18.675 3.057 18.742a.767.767 0 0 1-1.234.914m-8.948-11.628c-.08-.273-2.34-7.315-1.95-13.27.39-5.963 2.942-11.116 3.069-11.387.182-.385 1.478-1.26 1.863-1.08a.77.77 0 0 1 .367 1.022c-.028.063-3.011 6.468-3.383 12.135-.37 5.677 1.487 12.081 1.507 12.145a.77.77 0 0 1-.518.954.77.77 0 0 1-.955-.52m-74.186-225.644c-4.614-5.29-2.768-9.828-2.686-10.016a.764.764 0 0 1 1-.408.77.77 0 0 1 .414 1.004c-.064.155-1.524 3.878 2.43 8.41 4.029 4.626 10.043 4.182 10.103 4.177a.773.773 0 0 1 .832.7.77.77 0 0 1-.7.83c-.278.024-6.84.529-11.393-4.697m-8.308 4.701c-4.886-5.43-3.15-9.449-3.073-9.617a.763.763 0 0 1 1.008-.38c.384.168.559.62.395 1.008-.059.134-1.359 3.331 2.81 7.96 4.608 5.123 12.014 3.87 12.089 3.856a.768.768 0 0 1 .273 1.51c-.337.063-8.314 1.43-13.503-4.337m-88.839 38.633c-.297-.033-7.293-.952-10.363-4.892-4.176-5.358-2.089-9.6-1.997-9.778a.76.76 0 0 1 1.024-.336.77.77 0 0 1 .344 1.03c-.071.144-1.709 3.59 1.838 8.137 2.681 3.442 9.276 4.31 9.345 4.318a.77.77 0 0 1 .665.856.76.76 0 0 1-.856.665m-14.826 2.157c-4.976-3.729-5.73-8.824-5.758-9.038a.768.768 0 0 1 1.52-.213c.007.05.715 4.69 5.16 8.023 5.395 4.049 12.742 2.113 12.815 2.094a.768.768 0 0 1 .407 1.481c-.331.088-8.138 2.158-14.144-2.347m43.851 153.275c-8.179-2.044-11.846-3.856-12.776-4.365-.234.052-1.05.784-1.54 1.223l-1.266 1.078c-1.748 1.343-3.964 2.521-4.057 2.571a1.535 1.535 0 0 1-1.437-2.713c.02-.01 2.084-1.11 3.621-2.292l1.09-.93c1.285-1.153 3.044-2.732 5.06-1.632.603.33 4.025 2.075 12.05 4.081 6.624 1.657 13.536-.585 13.6-.608a1.537 1.537 0 0 1 1.942.974 1.534 1.534 0 0 1-.97 1.94c-.315.105-7.805 2.551-15.317.673m57.624 18.975c-.123-.219-2.832-6.775 1.48-14.067 2.452-4.147 3.882-7.471 3.968-7.549.308-.29 1.294 2.493 1.585 2.803s.387 1.899.076 2.188c-.016.018-.893 1.15-3.708 4.734-4.662 5.933-2.163 10.955-2.058 11.144a.77.77 0 0 1-1.343.747m11.852 7.232c-.015-.11-.678-5.065.379-8.76 1.055-3.696 2.056-5.491 2.173-5.629.272-.323 2.814.462 3.139.735s.077 1.373-.195 1.696c-.028.033-2.349 2.55-3.315 5.927-.96 3.365-.662 5.806-.659 5.83a.768.768 0 0 1-1.522.201" style="fill:#231f20;fill-opacity:1;fill-rule:nonzero;stroke:none" transform="matrix(1.33333 0 0 -1.33333 0 1056)"></path><path d="M357.405 514.995c-3.774-3.678-3.314-8.401-2.868-12.969.176-1.81.36-3.682.25-5.403-.361-5.656-5.118-10.73-5.165-10.78a.77.77 0 0 1 .61-1.295c.39.026 9.729.77 20.175 10.438 6.15 5.699 6.135 15.265 6.13 15.67a.768.768 0 0 1-1.535-.007v-.014c0-.316-.062-9.358-5.64-14.52-7.29-6.752-14.065-8.967-17.274-9.687 1.566 2.063 3.959 5.842 4.23 10.097q.038.597.037 1.205c0 1.472-.148 2.978-.292 4.446-.143 1.485-.285 2.942-.285 4.343 0 2.749.55 5.28 2.699 7.375a.764.764 0 0 1 .014 1.086.77.77 0 0 1-1.086.015" style="fill:#231f20;fill-opacity:1;fill-rule:nonzero;stroke:none" transform="matrix(1.33333 0 0 -1.33333 0 1056)"></path><path d="M360.963 541.738c-.14-.017-3.467-.447-6.929-3.377-3.154-2.667-5.714-7.311-8.296-15.057-2.182-6.552-6.314-9.432-6.357-9.46a.765.765 0 0 1 .15-1.348c.14-.058 1.529-.567 5.889-.695 4.68-.137 9.454.08 16.411 4.202 5.057 2.998 7.216 7.544 8.114 11.51a40.7 40.7 0 0 1 3.006-7.95c4.434-8.87 12.565-13.127 12.928-13.265.397-.148 1.294.996 1.442 1.393q.05.135.05.27c0 .311-1.314 2.059-1.62 2.176-.083.031-5.005 2.386-10.364 9.981-3.073 4.35-4.538 9.85-4.835 12.584 0 .045.005.103.005.148 0 1.649-.165 2.711-.17 2.748a.77.77 0 0 1-.803.641.766.766 0 0 1-.723-.728 8 8 0 0 1-.009-.447c0-.488.038-1.386.164-2.551-.05-3.967-1.149-11.147-7.97-15.19-6.6-3.91-11.135-4.117-15.58-3.987-1.856.054-3.11.18-3.955.303 1.524 1.423 4.07 4.338 5.684 9.179 2.489 7.464 4.904 11.895 7.83 14.372 3.093 2.616 6.094 3.019 6.123 3.023a.768.768 0 0 1-.185 1.525m12.034 31.578a.76.76 0 0 1-.297-.608.76.76 0 0 1 .098-.377c.048-.087 4.909-8.746 5.278-14.388.1-1.575.14-3.148.14-4.602 0-2.64-.123-4.864-.202-6.034-2.308.568-9.149 2.428-14.375 5.707-6.105 3.83-6.676 11.856-6.681 11.936a.767.767 0 0 1-1.533-.093c.022-.361.614-8.889 7.398-13.144 6.564-4.119 15.359-6.035 15.729-6.114a.77.77 0 0 1 .925.682c.003.042.274 3.128.274 7.066 0 1.483-.04 3.088-.146 4.697-.236 3.655-2.14 8.294-3.637 11.454 1.708-1.39 3.93-3.026 6.108-4.128 7.64-3.862 11.939-5.697 12.12-5.713.421-.033.815 1.733.848 2.155.035.422-1.65 1.283-2.072 1.32-.042.003-1.939-.015-9.268 3.69-4.178 2.113-9.66 6.395-9.706 6.44a.77.77 0 0 1-1.001.054" style="fill:#231f20;fill-opacity:1;fill-rule:nonzero;stroke:none" transform="matrix(1.33333 0 0 -1.33333 0 1056)"></path><path d="M378.69 548.408a.78.78 0 0 1-.237-1.07l.394-.63c.577-.944 1.313-2.654 4.472-6.245 2.871-3.262 5.336-4.899 5.503-4.99.372-.203 2.002.41 2.208.783.202.37 1.363.932.991 1.136-.04.022-4.223 1.92-7.87 5.113-3.497 3.064-3.476 4.159-3.994 5.002l-.417.67a.757.757 0 0 1-1.05.231" style="fill:#231f20;fill-opacity:1;fill-rule:nonzero;stroke:none" transform="matrix(1.33333 0 0 -1.33333 0 1056)"></path><path d="M342.116 563.496s1.152-1.28 4.223-2.559 5.247-1.408 5.247-1.408" style="fill:#fff;fill-opacity:1;fill-rule:nonzero;stroke:none" transform="matrix(1.33333 0 0 -1.33333 0 1056)"></path><path d="M341.082 564.616a1.53 1.53 0 0 1-.107-2.148c.142-.157 1.478-1.575 4.773-2.948 3.275-1.365 5.648-1.519 5.748-1.523a1.53 1.53 0 0 1 1.62 1.436 1.537 1.537 0 0 1-1.434 1.629c-.02 0-1.995.143-4.751 1.292-2.639 1.098-3.678 2.173-3.687 2.184a1.54 1.54 0 0 1-2.162.078m-10.81-23.053c-.228-.126-5.665-3.186-9.694-10.852-3.951-7.519-5.972-9.067-8.945-10.97-3.044-1.948-5.39-2.585-5.413-2.592a.769.769 0 0 1-.211-1.393c.3-.187 7.432-4.566 16.454-2.399 16.772 4.031 19.401 14.337 19.505 14.774a.767.767 0 0 1-1.493.356c-.025-.097-2.576-9.84-18.37-13.637-6.06-1.455-11.283.32-13.752 1.434a26.4 26.4 0 0 1 4.108 2.164c3.493 2.235 5.565 4.103 9.478 11.55 3.8 7.232 9.023 10.191 9.075 10.22a.765.765 0 0 1 .301 1.043.77.77 0 0 1-1.043.302m15.938-28.994c0-.056-.035-5.59-2.691-9.692-2.702-4.178-10.342-8.895-21.314-10.018-7.768-.795-13.778 1.678-16.608 3.166 1.337.262 3.073.693 4.591 1.386 1.858.843 3.333 2.388 5.566 4.728 1.401 1.468 3.147 3.296 5.52 5.52 5.708 5.351 11.284 3.616 11.517 3.541a.766.766 0 0 1 .968.49.764.764 0 0 1-.485.968c-.27.088-6.649 2.122-13.052-3.88-2.4-2.253-4.163-4.097-5.577-5.578-2.186-2.29-3.504-3.67-5.091-4.392-2.665-1.21-6.253-1.594-6.286-1.598a.77.77 0 0 1-.666-.566.77.77 0 0 1 .296-.822c.324-.232 8.045-5.658 19.462-4.49 11.479 1.173 19.546 6.226 22.449 10.711 2.906 4.49 2.938 10.281 2.938 10.526a.769.769 0 0 1-1.536 0" style="fill:#231f20;fill-opacity:1;fill-rule:nonzero;stroke:none" transform="matrix(1.33333 0 0 -1.33333 0 1056)"></path><path d="M354.629 501.118c-.018-.083-1.726-8.41-6.066-13.651-3.868-4.67-9.141-7.652-13.762-7.784-2.656-.076-4.905.667-6.201 1.224 1.658 1.101 4.677 3.468 7.131 7.46 1.72 2.792 2.101 5.02 2.101 6.45 0 1.086-.222 1.71-.241 1.767a.768.768 0 0 1-1.442-.525c.01-.027.873-2.665-1.723-6.89-3.25-5.278-7.715-7.628-7.76-7.65a.77.77 0 0 1-.414-.655.77.77 0 0 1 .363-.683c.143-.089 3.575-2.165 8.23-2.033 5.05.144 10.76 3.34 14.9 8.34 4.592 5.545 6.318 13.972 6.389 14.328a.768.768 0 1 1-1.505.302m-57.823 5.547c-.04-.02-4.175-1.934-8.93-2.29-4.67-.351-9.227 1.529-9.272 1.548a1.534 1.534 0 0 1-2.008-.821 1.534 1.534 0 0 1 .819-2.01c.211-.09 5.266-2.187 10.691-1.78 5.34.4 9.819 2.485 10.008 2.574a1.535 1.535 0 0 1-1.308 2.779M365.79 598.3s2.175 2.815 5.757 2.304c2.402-.344 4.35-2.688 4.222-5.503s-2.048-5.374-3.327-5.374.64 3.071-1.408 5.63c-2.046 2.56-5.245 2.943-5.245 2.943" style="fill:#231f20;fill-opacity:1;fill-rule:nonzero;stroke:none" transform="matrix(1.33333 0 0 -1.33333 0 1056)"></path><path d="M378.202 588.32s2.047.597 4.307 2.56c2.012 1.744 2.73 3.582 2.73 3.582" style="fill:#fff;fill-opacity:1;fill-rule:nonzero;stroke:none" transform="matrix(1.33333 0 0 -1.33333 0 1056)"></path><path d="M383.813 595.03c-.006-.014-.64-1.543-2.311-2.991-1.947-1.69-3.722-2.243-3.738-2.248a1.54 1.54 0 0 1-1.03-1.908 1.53 1.53 0 0 1 1.9-1.037c.093.029 2.397.716 4.882 2.873 2.27 1.97 3.118 4.093 3.151 4.183a1.53 1.53 0 0 1-.863 1.98 1.54 1.54 0 0 1-1.991-.852m-52.405 1.721c-.045-.136-.427-1.364.286-2.305.483-.636 1.29-.932 2.4-.88.938.046 1.89.256 2.9.478 1.93.424 3.924.863 5.862.088 1.17-.468 2.039-1.193 2.957-1.964 1.417-1.186 3.022-2.53 5.92-2.944l7.07-.9a.753.753 0 0 1 .84.666.787.787 0 0 1-.688.861l-7.005.892c-2.465.352-3.77 1.445-5.151 2.603-.97.813-1.975 1.653-3.373 2.212-2.376.95-4.707.437-6.763-.015-.942-.207-1.833-.404-2.643-.442-.556-.026-.944.068-1.098.27-.183.235-.116.708-.057.901a.77.77 0 0 1-.493.965.765.765 0 0 1-.964-.485" style="fill:#231f20;fill-opacity:1;fill-rule:nonzero;stroke:none" transform="matrix(1.33333 0 0 -1.33333 0 1056)"></path><path d="M336.36 594.59s-.257-4.223 3.58-6.142c3.84-1.92 7.55 3.198 7.55 3.198s-2.814 2.688-4.861 3.328c-2.048.639-6.27-.385-6.27-.385m-96.476-30.624c-1.337-.462-3.834-2.152-3.716-5.234.12-3.099 2.791-4.504 4.184-4.814a.769.769 0 0 1 .337 1.499c-.118.026-2.88.694-2.986 3.375-.103 2.703 2.571 3.685 2.686 3.725a.768.768 0 0 1-.505 1.45m6.114 8.036c-3.624-.945-4.245-3.7-4.064-5.026a.764.764 0 0 1 .855-.656.77.77 0 0 1 .667.855c-.029.256-.204 2.525 2.929 3.342 3.168.825 4.402-1.508 4.451-1.608a.774.774 0 0 1 1.031-.34c.377.19.531.646.345 1.024-.61 1.236-2.693 3.327-6.214 2.409m-20.769 78.988 12.996 1.537q2.211-15.374 14.483-15.372 6.078-.001 9.564 3.15 3.481 3.146 3.482 7.802 0 2.738-1.223 4.653-1.223 1.917-3.725 3.149t-12.035 4.144q-8.544 2.58-12.513 5.607-3.97 3.026-6.31 7.947-2.344 4.923-2.343 10.588 0 6.6 3.007 11.88 3.006 5.28 8.305 7.974 5.296 2.696 13.077 2.697 11.7 0 18.264-6.335 6.568-6.335 6.954-18.12l-13.415-.698q-.881 6.455-3.796 9.026-2.92 2.571-8.312 2.571-5.396 0-8.31-2.229-2.919-2.23-2.918-5.545 0-3.266 2.63-5.494 2.625-2.23 12.152-4.95 10.076-2.943 14.563-6.172 4.487-3.231 6.854-8.334 2.37-5.106 2.37-12.391 0-10.544-6.473-17.719-6.47-7.176-20.236-7.175-24.34 0-27.092 27.809m64.962-26.411v15.51h12.716v-15.51zm68.368 29.765 12.996-5.031q-3.033-13.593-10.088-19.86-7.055-6.273-17.363-6.272-12.956 0-21.002 9.976-9.261 11.521-9.26 31.09c0 13.78 3.104 24.566 9.32 32.357q8.105 10.141 21.782 10.142 11.14 0 18.641-7.597 5.345-5.395 7.83-16.02l-13.275-3.912q-1.272 6.557-5.056 10.055-3.786 3.499-8.92 3.5-7.35-.001-11.988-6.389-4.64-6.387-4.64-21.09 0-15.254 4.527-21.696 4.526-6.443 11.757-6.442 5.298 0 9.162 4.116 3.864 4.118 5.577 13.073m24.198-29.765v15.51h12.717v-15.51zM193.39 189.371l12.997 1.537q2.21-15.373 14.482-15.372 6.079 0 9.564 3.15 3.481 3.146 3.482 7.803 0 2.737-1.222 4.653-1.224 1.917-3.725 3.148-2.503 1.232-12.035 4.145-8.545 2.58-12.514 5.607-3.969 3.025-6.31 7.948-2.344 4.922-2.343 10.586 0 6.6 3.006 11.881 3.007 5.28 8.307 7.974 5.294 2.696 13.076 2.696 11.7 0 18.264-6.334 6.567-6.335 6.955-18.12l-13.415-.698q-.881 6.455-3.797 9.026-2.918 2.57-8.312 2.572-5.396-.001-8.31-2.23-2.918-2.231-2.917-5.545 0-3.266 2.628-5.494 2.626-2.232 12.153-4.95 10.076-2.943 14.564-6.172 4.486-3.231 6.854-8.335 2.368-5.106 2.368-12.39 0-10.544-6.471-17.719-6.472-7.176-20.237-7.175-24.34-.001-27.091 27.808m64.961-26.411v15.51h12.716v-15.51zm49.922 80.77h13.276v-51.141q0-12.4-2.484-18.463-2.481-6.063-7.42-9.312-4.94-3.25-12.165-3.25-9.544-.001-14.952 6.539-5.407 6.538-5.46 19.731l12.577 1.816q.222-7.086 1.84-10.05 2.174-4.065 6.53-4.064 4.237-.002 6.25 2.946 2.008 2.948 2.008 13.083zm27.316-80.77v15.51h12.718v-15.51zm42.93 0-23.75 80.77h14.409l16.823-59.778 15.982 59.777h14.412l-23.333-80.768zm36.075 0v15.51h12.717v-15.51z" style="fill:#231f20;fill-opacity:1;fill-rule:nonzero;stroke:none" transform="matrix(1.33333 0 0 -1.33333 0 1056)" data-source="https://football-logos.cc"></path><!-- source: https://football-logos.cc --></svg>