<svg xmlns="http://www.w3.org/2000/svg" xml:space="preserve" viewBox="49.15 11.66 158.7 234.33"><!-- Source: https://football-logos.cc --><path d="m1240.61 1790.78-4.75-19.67-8.15 1.8 4.76 19.68-22.16 5.42-5.2-19.67-7.92 1.81 4.52 20.12-22.61 5.43-4.97-19.9-8.14 2.04 4.75 19.67-22.16 5.43-10.63-43.42 25.33-6.56-3.62-14.46-12.89 3.16c-.68.23-1.36.23-1.58.23-.46-.23-.91-.23-1.36-.45l-12.67-9.28-17.18 2.27-3.16-26.46-21.48 2.49 3.16 26-32.11 3.84-3.39-26-17.18 2.04 2.94 26-20.13 2.26-10.17 11.53c-.23.46-.91.68-1.14 1.13-.44.23-1.12.23-1.35.23h-13.568v14.92h26.228v44.55h-23.06v-19.67h-8.59v19.67h-23.289v-19.67h-8.14v19.67h-23.293v-19.67h-8.59v19.67h-23.063v-44.55h26.227v-14.92h-13.566c-.223 0-.907 0-1.129-.23-.453-.45-.68-.67-1.129-1.13l-10.403-11.53-19.902-2.26 3.168-26-17.637-2.04-3.164 26-32.336-3.84 3.168-26-21.254-2.49-3.168 26.46-17.41-2.27-12.66 9.28c-.453.22-.906.22-1.355.45-.453 0-.907 0-1.133-.23l-13.34-3.16-3.621 14.46 25.551 6.56-10.625 43.42-22.387-5.43 4.75-19.67-7.918-2.04-4.973 19.9-22.836-5.43 4.754-20.12-8.144-1.81-4.75 19.67-22.156-5.42 4.293-19.68-7.915-1.8-4.972 19.67-22.156-5.43 10.398-43.86 25.324 6.1 3.617-14.24-13.339-3.39c-.45 0-.676-.23-1.129-.46-.227-.45-.453-.68-.907-1.13l-6.554-12.21-11.082-3.84 9.5-28.04-18.09-5.88-9.5 27.81-30.977-9.72 9.723-28.26-16.055-5.43-8.816 26.91-16.735-5.66-14.015 7.02c-.227.22-.906.22-1.356.22-.226 0-.906 0-1.132-.22l-12.661-5.43-5.878 14.02 24.417 10.17-16.957 40.92-21.253-9.04 7.23-18.08-7.687-3.4-7.911 18.09-21.031-8.82 7.465-18.09-7.914-3.16-7.688 17.64-21.031-8.6 16.961-40.47 22.156 8.82 61.504-147.2c-3.164-7.46-3.844-13.12-1.582-17.41 2.035-4.75 6.781-8.14 14.246-9.73.676 0 1.356 0 2.258.46.453.22.68.22.906.67-.453-2.93-.226-5.87 1.129-8.36.907-3.39 3.395-6.33 7.465-9.27-3.168-1.58-6.332-3.17-9.047-4.75-.679-.23-1.129-.45-1.355-.91-.227-.44-.227-.9-.68-1.12-1.809-8.59-.676-15.61 3.844-21.04h726.722c4.52 5.43 5.65 12.45 3.84 21.04-.45.22-.45.68-.68 1.12-.23.46-.68.68-.9.91-3.17 1.58-6.33 3.17-9.5 4.75 4.07 2.94 6.56 5.88 7.92 9.27.91 2.49 1.13 5.43.91 8.36.22-.45.67-.45.89-.67.68-.46 1.36-.46 2.04-.46 7.46 1.59 12.21 4.98 14.25 9.73 2.26 4.29 1.58 9.95-1.36 17.41l61.72 147.2 21.71-8.82 17.19 40.47-21.26 8.6-7.68-17.64-7.91 3.16 7.46 18.09-21.03 8.82-7.69-18.09-7.92 3.4 7.47 18.08-21.48 9.04-16.96-40.92 24.64-10.17-6.1-14.02-12.21 5.43c-.68.22-1.36.22-1.58.22-.46 0-.91 0-1.36-.22l-13.57-7.02-17.18 5.66-8.82-26.91-15.83 5.43 9.5 28.26-30.53 9.72-9.49-27.81-18.09 5.88 9.5 28.04-11.53 3.84-6.34 12.21c-.22.45-.67.68-.9 1.13-.23.23-.91.46-1.36.46l-13.11 3.39 3.39 14.24 25.32-6.1 10.63 43.86z" style="fill:#231f20;fill-opacity:1;fill-rule:nonzero;stroke:none" transform="matrix(.13333 0 0 -.13333 0 257.333)" data-source="https://football-logos.cc"></path><path d="M1543.63 1285.59c-60.06 4.18-111.55 32.65-153.05 84.62-31.57 39.54-45.21 78.56-45.35 78.95l-3.59 10.43h-.79c3.36 4.87 6.34 11.81 6.34 21.18 0 3.2-.35 6.68-1.14 10.46l-.86 4.06s-1.13 1.02-1.79 1.6c-.33.41-.76.92-1.24 1.5 10.38 4.16 15.27 10.98 17.46 15.61 2.22 4.31 3.05 8.7 3.05 12.91 0 3.86-.72 7.53-1.67 10.89 3.77 8.99 44.19 105.39 53.52 127.63 3.35-1.36 21.64-8.8 21.64-8.8l29.36 69.16s-23.42 9.47-29.66 11.99l.04.1-49.58 20.78v-.01l-29.73 12.52s-26.78-64.61-28.05-67.67c-.88.29-3.76 1.23-3.85 1.26.13.36.6 1.76.6 1.76s-47.65 15.18-48.68 15.51l.03.11s-8.27 2.75-11.98 3.99c.98 4.1 17.12 70.68 17.12 70.68l-52.65 12.76s-.03-.13-.03-.14c-3.87.95-5.31 1.3-8.89 2.18 0 .01.05.22.05.22l-52.52 12.6-.04-.15c-6.52 1.6-30.54 7.47-30.54 7.47s-17.25-70.46-17.71-72.35c-1.1.15-19.05 2.51-19.05 2.51s-.08-.65-.08-.71c-2.83.34-39.77 4.76-40.35 4.83v.04s-2.81.31-4.99.56l-8.02.96-.01-.06c-.66.07-6.04.68-8.75.98v74.01H889.043v-74.02c-2.586-.3-7.813-.89-8.395-.96l-.003.05s-5.016-.59-9.508-1.13c-1.387-.16-3.774-.43-3.774-.43v-.02l-40.218-4.78c-.008.05-.079.65-.079.65s-17.949-2.33-19.054-2.47c-.477 1.93-17.699 72.31-17.699 72.31s-23.954-5.81-30.559-7.41l-.024.09-52.921-12.57.086-.37c-3.782-.92-5.211-1.27-8.891-2.17 0 .01-.07.28-.07.28l-52.164-12.77 16.8-70.87c-3.211-1.11-7.328-2.54-9.519-3.3-2.258-.71-51.231-16.08-51.231-16.08s.493-1.43.625-1.82l-3.734-1.26c-1.242 2.99-28.078 67.76-28.078 67.76s-23.684-10.08-29.836-12.7l-.027.07-49.434-20.72s.047-.12.047-.13c-6.164-2.52-29.352-11.99-29.352-11.99l28.938-69.06s18.492 7.37 22.14 8.82l53.266-127.48c-.949-3.17-1.77-7.01-1.77-11.2 0-4.13.805-8.54 3.024-12.85 2.156-4.57 6.961-11.27 17.066-15.44-.64-.87-1.164-1.73-1.55-2.51 0-.02-.883-2.11-.883-2.11s1.769 1.97 3.551 3.95l.058-.15c-1.164-1.62-4.687-6.51-4.687-6.51-.793-3.77-1.137-7.25-1.137-10.44 0-9.37 2.973-16.3 6.32-21.17h-.445l-3.602-10.45c-.136-.39-13.777-39.41-45.351-78.95-41.489-51.97-92.981-80.44-153.039-84.62l-15.285-1.07 1.332-16.13c.574-6.96 14.992-173.27 94.082-402.327 46.414-134.434 105.582-262.305 175.859-380.059C727.816 338.73 833.43 206.953 953.836 94.34l9.941-9.3 9.942 9.3c120.401 112.613 226.021 244.39 313.921 391.664 70.27 117.754 129.44 245.625 175.86 380.059 79.09 229.057 93.51 395.367 94.09 402.327l1.32 16.13z" style="fill:#231f20;fill-opacity:1;fill-rule:nonzero;stroke:none" transform="matrix(.13333 0 0 -.13333 0 257.333)"></path><path d="m682.398 1743.43-.503-.27c.003 0 .503.27.503.27" style="fill:#231f20;fill-opacity:1;fill-rule:nonzero;stroke:none" transform="matrix(.13333 0 0 -.13333 0 257.333)"></path><path d="M959.551 1791.72h21.289v-39.79h23.4c3.01-3.42 10.69-12.13 10.69-12.13s8.96-1 10.61-1.19c-.57-5.07-2.93-25.9-2.93-25.9l47.84-5.67s2.71 20.78 3.39 25.98l1.33-.16c-.62-5.07-3.18-26.06-3.18-26.06l52.44-6.07s2.51 20.98 3.13 26.21c.26-.03 7.76-1.02 7.76-1.02s9.13 6.69 12.81 9.38c3.73-.92 22.87-5.62 22.87-5.62s8.51 34.05 9.57 38.31c2.98-.68 24.72-5.65 28.38-6.49 0-.02-.08-.34-.08-.34s2.85-.64 5.13-1.14c-1.02-4.29-9.03-37.91-9.03-37.91s19.01-4.92 22.83-5.91c1.81-3.49 6.65-12.81 6.65-12.81s1.35-.44 2.68-.89c-2.24-6.59-9.54-28.15-9.54-28.15l47.66-15.49s7.25 21.21 9.52 27.9l.94-.3c-2.22-6.62-9.38-27.94-9.38-27.94l45.38-15.56s6.92 21.11 8.88 27.1c.57-.19 8.59-2.83 8.59-2.83s10.14 5.25 14.09 7.28c3.41-1.51 21.29-9.46 21.29-9.46s14.19 32.6 15.96 36.65c.59-.24 1.1-.44 1.96-.78.79-.34 2.64-1.13 2.64-1.13l.03.06.04-.02c-1.67-3.99-67.6-161.2-67.6-161.2l2.32-5.89c.25-.64.41-1.13.59-1.65-8.46 8.28-17.54 17.15-17.54 17.15l.09-36.99c.02-.34.03-.64.03-.89 0-.32-.01-.54-.04-.72-.23-.38-.85-1.1-2.41-2.23l-20.81-15.04s14.76-7.39 19.63-9.82H617.641c4.687 2.45 19.101 10 19.101 10l-20.137 14.87c-1.101.79-1.527 1.21-1.746 1.45-.132.5-.269 1.01-.269 1.01s-.156.29-.274.5l4.414 41.81s-11.906-11.57-21.882-21.26c.175.47.316.87.554 1.43l2.555 6.03s-65.742 157.36-67.394 161.31c.003 0 2.566 1.13 4.519 1.99 1.664-3.97 15.324-36.53 15.324-36.53s18.196 7.8 21.782 9.33c4.097-2.04 14.507-7.25 14.507-7.25s7.633 2.58 7.996 2.7c1.942-5.92 8.821-26.91 8.821-26.91l45.758 15.47s-7.364 21.39-9.614 27.93c.617.2.621.2 1.239.39 2.293-6.72 9.546-27.96 9.546-27.96l47.653 15.49s-7.324 21.64-9.594 28.33c1.055.37 2.223.77 2.223.77s4.953 9.23 6.855 12.76l23.152 5.89s-8.57 33.75-9.64 37.95c2.172.5 4.922 1.13 4.922 1.13s-.063.28-.063.29c3.778.84 25.379 5.64 28.746 6.39 1.063-4.23 9.516-38.06 9.516-38.06s19.121 4.54 22.961 5.45c3.668-2.69 12.73-9.32 12.73-9.32s7.653.99 7.996 1.04c.625-5.25 3.141-26.26 3.141-26.26l52.199 6.11s-2.55 20.97-3.168 26.03c.715.08.715.08 1.426.17.625-5.12 3.16-25.95 3.16-25.95l48.559 5.61s-2.555 20.96-3.164 25.97c1.465.16 10.168 1.15 10.168 1.15l10.933 12.13h23.243v39.79z" style="fill:#231f20;fill-opacity:1;fill-rule:nonzero;stroke:none" transform="matrix(.13333 0 0 -.13333 0 257.333)"></path><path d="m1224.19 1722.57 1.08-1.49.02-.04c-.52.71-1.1 1.53-1.1 1.53m-638.327-224.64c.02-.04.032-.09.055-.14-.004 0-.008-.01-.008-.01-.027.06-.031.08-.058.14 0 .01.007.01.011.01m19.098-.09c-.051-.02-.5-.23-.5-.23s.055.05.062.05c.157.07.29.11.438.18m6.641-14.29-.274-.62c.016.11.047.26.067.38.011.01.207.24.207.24m724.178 42.38c.01 0 4.97-4.86 6.3-6.16-.18.17-4.08 3.99-6.3 6.16m.23-.1c.67-.29 1.37-.64 2.07-1.12l2.39-1.95s-3.76 2.59-4.46 3.07m-13.59-27.85c.05-.03.11-.05.16-.08 0-.01.12-.11.12-.11s-.2.13-.28.19m-6.81-14.35s.12-.15.23-.26c.02-.14.05-.3.07-.44-.16.36-.3.7-.3.7m-317.09 275.59.183-.23c-.117.14-.183.23-.183.23m361.1-245.22c-.04-.07-.06-.14-.1-.22l.53 1.12c-.12-.27-.3-.6-.43-.9m-791.901-.22c-.035.07-.055.14-.09.21-.141.3-.32.63-.438.91zm15.422-17.74h.004z" style="fill:#231f20;fill-opacity:1;fill-rule:nonzero;stroke:none" transform="matrix(.13333 0 0 -.13333 0 257.333)"></path><path d="M963.621 1539.12c-130.695 0-243.976-24.42-340.074-72.14h680.593c-96.09 47.72-209.6 72.14-340.519 72.14" style="fill:#fff;fill-opacity:1;fill-rule:nonzero;stroke:none" transform="matrix(.13333 0 0 -.13333 0 257.333)"></path><path d="m1113.53 1604.69-6.33.9h-.45c-4.07.68-7.92 1.36-11.98 1.59l-6.57.68h-.22c-3.39.45-7.23.9-10.63 1.35l-6.33.45c-4.29.46-8.36 1.14-12.43 1.36l-6.34.68c-6.09.23-12.43.9-18.54 1.35h-6.56c-3.84.46-7.69.46-11.53.91H912.066c-4.296-.45-8.14-.45-11.535-.91h-6.554c-6.559-.45-12.438-1.12-18.543-1.35l-6.332-.68h-.223c-4.297-.22-8.367-.9-12.438-1.36l-6.105-.45h-.223c-3.621-.45-7.011-.9-10.402-1.35h-.453l-6.332-.68c-4.071-.23-8.363-.91-12.434-1.59l-6.558-.9c-29.621-4.52-58.336-10.18-86.149-17.64l-6.332-1.35c-4.07-.91-8.137-2.27-11.984-3.17v-.46l-6.328-1.57c-4.524-1.36-8.821-2.49-13.114-4.08h-.226l-6.106-1.8c-4.75-1.58-9.496-3.4-14.25-4.75l-5.875-2.26c-4.297-1.59-8.367-2.94-12.66-4.53l.453.23-6.105-2.49c-4.07-1.58-7.918-3.16-11.309-4.75l-6.785-2.48h.453c-12.437-4.98-24.418-10.63-36.176-16.51l-2.941-2.49c-1.809-4.52-2.035-7.91-1.129-10.85 0-.22 0-.22.227-.67 1.355-2.5 4.07-4.3 8.363-5.21l.227.23 7.238 3.39c.453.45.676.45 1.129.45 21.707 10.63 44.32 20.35 67.832 28.49 6.558 2.27 13.57 4.53 20.578 6.79 80.719 26 171.164 38.88 270.656 38.88 99.709 0 190.159-12.88 271.109-38.88 6.55-2.26 13.56-4.52 20.35-6.79 23.51-8.14 46.35-17.86 68.06-28.49.45 0 .45 0 .67-.45l7.46-3.39h.23v-.23c4.07.91 7.01 2.71 8.6 5.21v.67c.9 2.94.67 6.33-.91 10.85l-2.94 2.49c-11.76 5.88-23.74 11.53-36.18 16.51l-6.33 2.48h-.22c-3.62 1.59-7.47 3.17-11.31 4.75l-5.88 2.49v-.23c-4.07 1.59-7.91 2.94-12.21 4.53h-.23l-6.1 2.26h.45c-4.74 1.35-9.49 3.17-14.24 4.75l-6.34 1.8c-4.52 1.59-9.04 2.72-13.34 4.08h.23l-6.33 1.57v.46c-4.07.9-7.91 2.26-11.99 3.17l-6.78 1.35c-27.58 7.46-56.52 13.12-85.92 17.64" style="fill:#fce819;fill-opacity:1;fill-rule:nonzero;stroke:none" transform="matrix(.13333 0 0 -.13333 0 257.333)"></path><path d="M695 1550.88c-7.008-2.04-13.797-4.3-20.352-6.56-23.285-8.14-45.675-17.64-67.605-28.04-2.035-3.62-2.262-7.24-1.355-9.95 1.355-2.94 4.066-5.65 8.589-7.92a589 589 0 0 0 66.25 27.59c6.786 2.27 13.793 4.75 20.805 6.79 78.234 25.32 165.512 37.98 262.289 37.98 96.769 0 184.499-12.66 262.739-37.98 6.78-2.04 13.8-4.52 20.8-6.79 22.38-7.91 44.77-17.18 66.03-27.59 4.29 2.27 7.23 4.98 8.36 7.92 1.13 2.71.68 6.33-.9 9.95h-.23c-21.93 10.4-44.09 19.9-67.38 28.04-6.56 2.26-13.57 4.52-20.35 6.56-80.5 26-170.49 38.88-269.069 38.88-98.586 0-188.351-12.88-268.621-38.88" style="fill:#fce819;fill-opacity:1;fill-rule:nonzero;stroke:none" transform="matrix(.13333 0 0 -.13333 0 257.333)"></path><path d="M703.141 1526.91c-7.012-2.27-13.567-4.75-20.352-7.02h-.226c-23.29-8.13-45.45-17.63-66.704-28.26-4.519-2.03-8.816-4.29-13.339-6.56-1.582-7.91.906-14.02 7.234-17.86 99.492 52.01 217.066 78.01 353.867 78.01 136.789 0 254.599-26 353.859-78.01 6.33 3.84 9.05 9.95 7.24 17.86-4.3 2.27-8.82 4.53-12.89 6.56a604 604 0 0 1-66.93 28.26c-6.78 2.27-13.79 4.75-20.35 7.02-78.01 25.09-165.06 37.53-260.929 37.53-95.875 0-182.699-12.44-260.48-37.53m497.899 66.7h.45c-2.94 46.35-11.76 72.35-26.23 78.46-7.92.91-16.96-3.84-26.91-14.02-10.4-10.17-21.7-25.78-34.14-47.03 30.07-4.3 58.79-10.17 86.83-17.41" style="fill:#fce819;fill-opacity:1;fill-rule:nonzero;stroke:none" transform="matrix(.13333 0 0 -.13333 0 257.333)"></path><path d="M1197.87 1597.68c-25.32 6.33-51.33 11.75-78.46 15.83 11.3 18.76 21.7 32.78 30.98 42.28 9.04 9.27 16.95 13.34 24.41 13.11 12.22-5.87 20.13-29.61 23.07-71.22" style="fill:#231f20;fill-opacity:1;fill-rule:nonzero;stroke:none" transform="matrix(.13333 0 0 -.13333 0 257.333)"></path><path d="M1362.02 1604.91h3.4l1.58 3.62c-15.15.9-36.86-15.15-64.44-48.84 12.44-5.42 24.87-11.08 36.85-17.18l1.59 3.39c-15.83 7.23-26.91 12.21-33.24 14.92 22.38 27.14 40.47 42.06 54.26 44.09m-635.817-11.3a808 808 0 0 0 86.828 17.41c-12.437 21.25-23.519 36.86-33.695 47.03-10.172 10.18-19.445 14.93-27.356 14.02-14.246-6.11-22.839-32.11-25.777-78.46" style="fill:#fce819;fill-opacity:1;fill-rule:nonzero;stroke:none" transform="matrix(.13333 0 0 -.13333 0 257.333)"></path><path d="M807.828 1613.51c-26.906-4.08-52.906-9.5-78.008-15.83 2.938 41.61 10.399 65.35 23.063 71.22 7.008.23 14.926-3.84 24.191-13.11 9.051-9.5 19.676-23.52 30.754-42.28" style="fill:#231f20;fill-opacity:1;fill-rule:nonzero;stroke:none" transform="matrix(.13333 0 0 -.13333 0 257.333)"></path><path d="M1009.06 1620.52c-14.013 47.93-29.162 73.25-45.439 76.2-16.055-2.95-31.43-28.27-45.223-76.2z" style="fill:#fce819;fill-opacity:1;fill-rule:nonzero;stroke:none" transform="matrix(.13333 0 0 -.13333 0 257.333)"></path><path d="M963.621 1693.33c14.242-3.17 28.266-26.46 41.379-69.65h-82.305c13.114 43.19 26.68 66.48 40.926 69.65" style="fill:#231f20;fill-opacity:1;fill-rule:nonzero;stroke:none" transform="matrix(.13333 0 0 -.13333 0 257.333)"></path><path d="m586.691 1545.9 1.36-3.39c11.98 6.1 24.418 11.76 36.855 17.18-27.812 33.69-49.293 49.74-64.215 48.84l1.129-3.62h3.391c13.793-2.03 31.883-16.95 54.719-44.09-6.559-2.71-17.637-7.69-33.239-14.92m589.929 132.5c.22 0 .22 0 .67-.45 17.42-5.43 27.59-34.37 30.53-86.38 4.07-.9 7.91-2.25 11.98-2.93h.23l7.01 111.24-85.24 20.35-46.36-106.72c4.07-.46 8.14-1.13 12.21-1.58 13.12 22.83 25.1 39.57 36.18 50.64 12.21 11.98 23.06 17.41 32.79 15.83" style="fill:#fce819;fill-opacity:1;fill-rule:nonzero;stroke:none" transform="matrix(.13333 0 0 -.13333 0 257.333)"></path><path d="M1158.3 1711.87c2.71-.91 4.3-5.66 4.52-14.48l-15.83 3.85c4.53 7.91 8.37 11.3 11.31 10.63m50.42-11.99c2.72-.9 4.3-5.65 4.75-14.92l-15.83 3.84c4.3 7.92 8.15 11.76 11.08 11.08" style="fill:#231f20;fill-opacity:1;fill-rule:nonzero;stroke:none" transform="matrix(.13333 0 0 -.13333 0 257.333)"></path><path d="m1369.49 1614.64 12.89 30.3-37.76 16.05-60.15-94.06c3.85-1.59 7.69-3.17 11.53-4.75h.23c31.43 38.44 55.85 55.85 73.26 52.46" style="fill:#fce819;fill-opacity:1;fill-rule:nonzero;stroke:none" transform="matrix(.13333 0 0 -.13333 0 257.333)"></path><path d="m1362.02 1634.54-15.37 6.33c5.43 7.23 9.95 10.17 12.67 9.27 2.7-1.36 3.61-6.56 2.7-15.6" style="fill:#231f20;fill-opacity:1;fill-rule:nonzero;stroke:none" transform="matrix(.13333 0 0 -.13333 0 257.333)"></path><path d="M750.168 1677.95c.227.45.227.45.68.45 9.726 1.58 20.574-3.85 33.011-15.83 10.629-11.07 22.614-27.81 35.727-50.64 4.07.45 8.367 1.12 12.437 1.58l-46.355 106.72-85.016-20.35 7.012-111.24c4.066.68 8.137 2.03 12.207 2.93 2.942 52.01 12.887 80.95 30.297 86.38" style="fill:#fce819;fill-opacity:1;fill-rule:nonzero;stroke:none" transform="matrix(.13333 0 0 -.13333 0 257.333)"></path><path d="M769.391 1711.87c2.941.67 6.332-2.72 10.855-10.63l-15.828-3.85c.223 8.82 2.258 13.57 4.973 14.48m-39.571-23.07-15.828-3.84c.227 9.27 1.809 14.02 4.75 14.92 2.711.68 6.555-3.16 11.078-11.08" style="fill:#231f20;fill-opacity:1;fill-rule:nonzero;stroke:none" transform="matrix(.13333 0 0 -.13333 0 257.333)"></path><path d="M899.855 1619.61c4.071.23 7.915.23 12.211.68 15.149 53.36 32.332 80.95 51.325 82.76 19.445-1.81 36.859-29.4 52.229-82.76 3.84-.45 7.69-.45 11.76-.68l-19.89 116.22h-87.283z" style="fill:#fce819;fill-opacity:1;fill-rule:nonzero;stroke:none" transform="matrix(.13333 0 0 -.13333 0 257.333)"></path><path d="M946.211 1718.43h-16.508c2.488 8.36 5.426 12.88 8.367 13.11 2.711-.23 5.653-4.75 8.141-13.11m51.328 0H981.48c2.262 8.36 4.969 12.88 8.145 13.11 2.934-.23 5.422-4.75 7.914-13.11" style="fill:#231f20;fill-opacity:1;fill-rule:nonzero;stroke:none" transform="matrix(.13333 0 0 -.13333 0 257.333)"></path><path d="M631.461 1562.18c3.617 1.58 7.687 3.16 11.309 4.75l-59.922 94.06-37.532-16.05 12.887-30.3c17.41 3.39 41.828-14.02 73.258-52.46" style="fill:#fce819;fill-opacity:1;fill-rule:nonzero;stroke:none" transform="matrix(.13333 0 0 -.13333 0 257.333)"></path><path d="M565.66 1634.54c-.902 9.04-.449 14.24 2.719 15.6 2.711.9 6.781-2.04 12.211-9.27z" style="fill:#231f20;fill-opacity:1;fill-rule:nonzero;stroke:none" transform="matrix(.13333 0 0 -.13333 0 257.333)"></path><path d="m1220.48 1768.85 4.07 18.08-10.17 2.5-4.52-18.1-20.13 4.75 4.07 18.09-10.17 2.49-4.53-18.09-20.35 5.2 4.07 18.54-10.18 2.26-7-30.75 102.43-24.65 7.68 30.75-10.17 2.49-4.52-18.31zm-2.94-34.37 3.62 14.69-51.55 12.21-3.4-14.47zm-70.77 10.85-10.4-7.23 5.88-11.54 87.27-21.02 10.18 7.46-5.65 11.3zm-16.73-9.5-10.18 1.13-3.39-26-34.14 3.85 2.94 26-19.45 2.49-3.16-26.23-29.85 3.39 2.94 26-13.34 1.58-8.82-9.94 6.34-37.54 101.52-11.53 15.14 34.6zm-32.11-50.42-1.81-16.28 15.83-1.81 6.78 15.83zm-8.37-15.6 2.04 16.05-39.12 4.75-1.81-16.06zm11.76-26.68 8.14 18.08-34.82 4.08-2.26-18.77zm214.58 12.43-27.58 9.5 8.81 25.55-18.54 6.56-9.05-26.23-29.84 10.17 8.59 26.01-3.84 1.36-11.08-7.92-2.26-37.53 88.41-29.85 20.12 32.11-4.3 12.66-10.62 3.62zm25.78 23.52 4.07-11.76 38.66-16.28 7.47 17.41-38.9 16.28zm-90.45-29.85-20.57 7.24-1.14-16.96 16.29-5.2zm5.66-1.58-4.98-15.38 30.98-10.39 5.2 15.14zm-27.59-14.47-.91-15.15 29.18-10.17 4.74 14.24zm10.17-50.65h.23l7.69 22.16-19.68 6.78-1.57-24.87c4.52-1.35 8.81-2.49 13.33-4.07m34.37 13.34-7.69-22.38c4.08-1.36 8.15-2.72 12.44-4.53l13.34 20.8zm-13.34-20.12 7.23 21.93-14.23 5.2-7.69-22.38c4.75-1.59 9.49-3.17 14.24-4.75zm7.46 44.54-4.74-14.24 32.1-10.63 8.14 12.89zm39.12-6.33 8.82 13.79-21.94 7.46-4.97-15.37zm71.46 124.36-9.95 4.07-11.99-29.17 68.29-28.49 11.98 28.49-9.95 4.07-7.23-16.96-19.22 8.15 6.78 17.18-9.04 3.84-7.47-17.18-19.67 8.14zm15.82-64.21 5.65 14.02-21.47 9.04-5.89-13.79zm-645.774 104.46-4.523 18.09-10.172-2.49 4.07-18.09-20.125-4.75-4.746 18.1-10.176-2.5 4.066-18.08-20.347-4.75-4.746 18.31-9.949-2.49 7.46-30.75 102.657 24.65-7.465 30.75-10.172-2.26 4.52-18.54zm-42.281-29.4 3.39-14.69 51.782 12.43-3.395 14.47zm101.523-12.21-10.398-1.13-6.332-12.2 14.922-34.6 101.523 11.53 6.559 37.54-9.043 9.94-13.344-1.58 3.164-26-30.297-3.39-2.715 26.23-19.668-2.49 3.164-26-34.593-3.85zm-22.383-10.4 5.879 11.54-10.402 7.23-87.277-21.03-6.106-11.3 10.625-7.46zm-91.125-26-11.078 7.92-4.297-1.36 9.047-26.01-30.301-10.17-8.816 26.23-18.316-6.56 8.82-25.55-27.586-9.5-8.82 26.01-10.856-3.62-4.519-12.66 20.574-32.11 88.41 29.85zm2.489-44.09-20.352-7.24 5.203-14.92 16.055 5.2zm-115.317 10.85 4.297 11.76-11.531 5.65-38.668-16.28 7.234-17.41zm42.738-59.01 8.137-12.89 31.653 10.63-4.747 14.24zm9.04 26.9-21.477-7.46 8.816-13.79 18.086 5.88zm66.027-17.18-.906 15.15-33.012-11.08 4.75-14.24zm-59.918 18.99 4.973-15.14 31.203 10.39-5.2 15.38zm27.809-61.27c4.75 1.58 9.722 3.16 14.699 4.75l-7.688 22.38-14.476-5.2zm-5.879-2.26-7.688 22.38-17.863-6.11 13.117-20.8c4.07 1.81 8.363 3.17 12.434 4.53m26.683 9.04c4.293 1.58 8.817 2.72 13.34 4.07l-1.586 24.87-19.441-6.78zm120.742 100.62 6.782-15.83 15.828 1.81-1.809 16.28zm9.496-21.94 7.688-18.08 29.168 3.39-2.488 18.77zm198.08 159.19h-10.41v-19.67h-21.252v19.22h-10.402v-19.22h-21.027v19.22h-10.403v-19.22h-21.253v19.67h-10.625v-31.66h105.372zm.67-68.74-8.14 9.5h-89.988l-8.368-9.5 8.368-9.5h89.988zm-26.902 15.83v14.92h-52.687v-14.92zm-89.769-97 .906-6.56.902 6.78zm3.168 6.78 2.711 16.96-25.098-2.94 2.031-16.05zm-65.801-7.46 39.117 4.74-2.035 16.06-38.891-4.75zm56.301 0-35.047-3.85 2.488-18.76 34.594 4.07zm-19.219-51.78c6.105.23 12.433.9 18.769 1.36l3.844 22.83v.23l-.226 2.49-25.102-3.17zm-6.328-.68-2.715 23.74-12.438-1.13 2.489-23.74c4.066.23 8.589.91 12.664 1.13m-18.996-2.04-2.489 23.98-18.09-2.27 9.727-22.83c3.617.45 7.457.9 10.852 1.12m184.056 54.5-2.26-18.54 35.05-4.07 2.03 18.76zm-7.01-5.88.67 6.56-1.8.22zm17.86 11.31 1.82 16.05-25.11 2.94 2.94-16.96zm14.93-57.89c4.06-.22 8.13-.9 12.2-1.13l2.94 23.74-12.43 1.13zm18.76-2.04c3.39-.22 7.24-.67 10.63-1.12h.45l9.72 22.83-18.08 2.27zm-47.48 29.63-.23-2.49v-.23l3.85-22.83c6.1-.46 12.43-1.13 18.31-1.36h.45l2.72 23.74zm-471.894 97.45-9.5-4.07 7.012-17.86-19.676-8.14-7.004 17.18-9.5-3.84 7.012-17.18-18.996-8.15-7.688 16.96-9.496-4.07 11.985-28.49 68.285 28.49zm-9.726-45.22-21.707-9.04 6.109-14.02 21.707 9.27z" style="fill:#fce819;fill-opacity:1;fill-rule:nonzero;stroke:none" transform="matrix(.13333 0 0 -.13333 0 257.333)"></path><path d="M963.781 127.547c14.961 14.226 29.664 28.773 44.149 43.594h-88.301c14.484-14.821 29.187-29.368 44.152-43.594" style="fill:#323898;fill-opacity:1;fill-rule:nonzero;stroke:none" transform="matrix(.13333 0 0 -.13333 0 257.333)"></path><path d="M1366.94 1350.66c-24.85 31.36-39.35 61.8-45.83 77.25H606.445c-6.48-15.45-20.984-45.89-45.836-77.25-42.793-54-97.543-86.58-159.086-95.03 5.504-46.51 26.692-193.58 91.059-379.708a2076 2076 0 0 1 57.754-148.352c.059-.144.125-.281.187-.425h826.517c.05.144.12.281.18.425a2075 2075 0 0 1 57.75 148.352c64.37 186.128 85.56 333.198 91.07 379.708-61.55 8.45-116.3 41.03-159.1 95.03" style="fill:#d22e2a;fill-opacity:1;fill-rule:nonzero;stroke:none" transform="matrix(.13333 0 0 -.13333 0 257.333)"></path><path d="m573.129 677.02.199-.418a1991 1991 0 0 1 24.293-50.125h732.309c8.31 16.55 16.42 33.261 24.3 50.125.07.14.13.281.2.418z" style="fill:#323898;fill-opacity:1;fill-rule:nonzero;stroke:none" transform="matrix(.13333 0 0 -.13333 0 257.333)" data-source="https://football-logos.cc"></path><path d="M597.621 626.477q.11-.212.215-.422a1960 1960 0 0 1 26.074-50.125h679.73a1938 1938 0 0 1 26.29 50.547z" style="fill:#fff;fill-opacity:1;fill-rule:nonzero;stroke:none" transform="matrix(.13333 0 0 -.13333 0 257.333)"></path><path d="m623.91 575.93.227-.422c9.109-16.887 18.414-33.613 27.965-50.125h623.358c9.54 16.512 18.85 33.238 27.96 50.125l.22.422z" style="fill:#323898;fill-opacity:1;fill-rule:nonzero;stroke:none" transform="matrix(.13333 0 0 -.13333 0 257.333)"></path><path d="M652.102 525.383c.078-.141.16-.278.242-.422a1936 1936 0 0 1 13.293-22.621 1846 1846 0 0 1 16.765-27.504h562.758c5.65 9.109 11.25 18.273 16.76 27.504 4.48 7.5 8.91 15.047 13.29 22.621.09.144.17.281.25.422z" style="fill:#fff;fill-opacity:1;fill-rule:nonzero;stroke:none" transform="matrix(.13333 0 0 -.13333 0 257.333)"></path><path d="M682.402 474.836c.086-.137.176-.277.262-.418a1846 1846 0 0 1 32.274-50.125h497.682c11 16.484 21.75 33.195 32.27 50.125q.135.212.27.418z" style="fill:#323898;fill-opacity:1;fill-rule:nonzero;stroke:none" transform="matrix(.13333 0 0 -.13333 0 257.333)"></path><path d="M714.938 424.293c.097-.145.191-.281.285-.422a1811 1811 0 0 1 34.699-50.125h427.718a1804 1804 0 0 1 34.69 50.125c.1.141.2.277.29.422z" style="fill:#fff;fill-opacity:1;fill-rule:nonzero;stroke:none" transform="matrix(.13333 0 0 -.13333 0 257.333)"></path><path d="M749.922 373.746c.101-.141.203-.277.308-.422a1780 1780 0 0 1 37.34-50.125h352.42a1805 1805 0 0 1 37.34 50.125c.1.145.21.281.3.422z" style="fill:#323898;fill-opacity:1;fill-rule:nonzero;stroke:none" transform="matrix(.13333 0 0 -.13333 0 257.333)"></path><path d="M787.57 323.199c.106-.136.219-.277.328-.418a1748 1748 0 0 1 40.231-50.125h271.301a1771 1771 0 0 1 40.23 50.125q.165.213.33.418z" style="fill:#fff;fill-opacity:1;fill-rule:nonzero;stroke:none" transform="matrix(.13333 0 0 -.13333 0 257.333)"></path><path d="M828.129 272.656c.117-.14.238-.281.351-.422a1733 1733 0 0 1 43.418-50.125h183.762a1741 1741 0 0 1 43.42 50.125c.12.141.23.282.35.422z" style="fill:#323898;fill-opacity:1;fill-rule:nonzero;stroke:none" transform="matrix(.13333 0 0 -.13333 0 257.333)"></path><path d="M871.895 222.109q.191-.21.378-.421c15.36-17.051 30.997-33.782 46.95-50.125h89.117c15.95 16.343 31.59 33.074 46.94 50.125.13.14.26.281.38.421z" style="fill:#fff;fill-opacity:1;fill-rule:nonzero;stroke:none" transform="matrix(.13333 0 0 -.13333 0 257.333)"></path><path d="M919.629 171.141h88.301c.14.136.27.281.41.422h-89.113c.132-.141.265-.286.402-.422" style="fill:#323898;fill-opacity:1;fill-rule:nonzero;stroke:none" transform="matrix(.13333 0 0 -.13333 0 257.333)"></path><path d="M1035.7 758.75h42.1v85.695c-2.94 1.469-34.88 17.442-42.1 21.047zm96.88-1.16h60.26v36.047h-60.26z" style="fill:#231f20;fill-opacity:1;fill-rule:nonzero;stroke:none" transform="matrix(.13333 0 0 -.13333 0 257.333)"></path><path d="M708.516 1122.51q-.914-14.19-.914-28.26c0-55.47 10.625-109.613 31.703-161.324 24.265-59.539 57.832-104.184 82.058-131.453-6.843 15.59-12.675 33.625-12.675 50.007 0 6.364.878 12.477 2.917 18.086 8.493 25.512 21.387 39.207 38.329 40.715 43.937 3.91 99.843-80.172 124.359-121.16 2.094 136.024 33.617 231.329 94.017 283.219 46.71 40.13 95.83 41.12 113.37 39.97-.03.02-381.551 248.81-392.446 255.92-48.375-83.09-75.562-165.73-80.718-245.72" style="fill:#fff;fill-opacity:1;fill-rule:nonzero;stroke:none" transform="matrix(.13333 0 0 -.13333 0 257.333)"></path><path d="M1276.72 753.648h-5.02c-25.07 0-49.2.094-72.52.262v-2.66h-72.94v3.484c-14.42.227-28.45.477-42.1.762v-3.086h-54.78v4.414c-68.801 1.942-126.762 4.594-175.028 7.489a6.3 6.3 0 0 0-1.898-3.348 6.34 6.34 0 0 0-8.305-.219c-.426.348-2.266 1.887-5.176 4.516-132.398 8.433-185.984 18.39-186.887 18.57l-12.8 2.457 7.468-10.676c.106-.152 10.547-15.125 20.055-32.781 2.625-4.879 9.024-10.449 29.715-15.687h581.546z" style="fill:#231f20;fill-opacity:1;fill-rule:nonzero;stroke:none" transform="matrix(.13333 0 0 -.13333 0 257.333)"></path><path d="m1032.53 870.625 48.43-24.219v-90.824h-.88c1.34-.031 2.71-.055 4.06-.086v92.863l-54.78 27.395v-118.93c1.04-.027 2.12-.054 3.17-.086z" style="fill:#231f20;fill-opacity:1;fill-rule:nonzero;stroke:none" transform="matrix(.13333 0 0 -.13333 0 257.333)"></path><path d="m1080.96 846.406-48.43 24.219V756.738c15.32-.422 31.15-.812 47.55-1.156h.88zm-3.16-87.656h-42.1v106.742c7.22-3.605 39.16-19.578 42.1-21.047z" style="fill:#231f20;fill-opacity:1;fill-rule:nonzero;stroke:none" transform="matrix(.13333 0 0 -.13333 0 257.333)"></path><path d="M1084.14 752.41v3.086c-1.35.031-2.72.055-4.06.086h-47.55v1.156c-1.05.032-2.13.059-3.17.086v-4.414z" style="fill:#231f20;fill-opacity:1;fill-rule:nonzero;stroke:none" transform="matrix(.13333 0 0 -.13333 0 257.333)"></path><path d="M1032.53 755.582h47.55c-16.4.344-32.23.734-47.55 1.156zm96.88 41.223h66.6v-42.387h-47.51c16.41-.211 33.32-.379 50.68-.508v46.063h-72.94v-45.239c1.06-.011 2.1-.035 3.17-.05z" style="fill:#231f20;fill-opacity:1;fill-rule:nonzero;stroke:none" transform="matrix(.13333 0 0 -.13333 0 257.333)"></path><path d="M1196.01 796.805h-66.6v-42.121c6.29-.094 12.66-.18 19.09-.266h47.51zm-3.17-39.215h-60.26v36.047h60.26z" style="fill:#231f20;fill-opacity:1;fill-rule:nonzero;stroke:none" transform="matrix(.13333 0 0 -.13333 0 257.333)"></path><path d="M1199.18 751.25v2.66c-17.36.129-34.27.297-50.68.508h-19.09v.266c-1.07.015-2.11.039-3.17.05v-3.484z" style="fill:#231f20;fill-opacity:1;fill-rule:nonzero;stroke:none" transform="matrix(.13333 0 0 -.13333 0 257.333)"></path><path d="M1129.41 754.418h19.09c-6.43.086-12.8.172-19.09.266zm188.19-27.273L1118.63 889.27l-1.33-1.641 196.95-160.484zm-200.3 160.484-1.34-1.637 194.95-158.847h3.34zm-263.905-118.41c-.426.621-42.114 62.304-29.813 96.183 6.801 20.434 16.027 31.227 27.477 32.246 39.332 3.5 102.734-96.293 123.847-135.039a6.334 6.334 0 0 1 7.16-3.101 6.34 6.34 0 0 1 4.747 6.191c-1.313 144.586 28.807 244.441 89.527 296.821 50.2 43.31 104.77 37.3 109.57 36.68 1.25-.46 36.67-13.35 36.67-13.35a6.341 6.341 0 0 1 5.63 11.27l-40.39 26.33-397.265 259.05a6.33 6.33 0 0 1-4.903.87c-.605-.14-1.164-.4-1.695-.7l4.723-2.73a3.17 3.17 0 0 0 1.156-4.33c-.031-.06-.07-.09-.102-.14l394.626-257.33 40.39-26.34-37.32 13.59s-210.352 33.98-206.957-339.745c0 0-122.137 224.238-162.852 101.921-13.57-37.375 30.535-101.921 30.535-101.921s-283.59 233.289-62.668 608.815l-5.488 3.18c-50.559-85.96-78.879-171.64-84.164-254.7-4.281-67.33 6.469-133.053 31.949-195.346 37.141-90.797 93.805-146.633 111.168-162.332q7.517-.475 15.379-.949c.352 1.652.074 3.421-.937 4.906" style="fill:#231f20;fill-opacity:1;fill-rule:nonzero;stroke:none" transform="matrix(.13333 0 0 -.13333 0 257.333)"></path><path d="m785.5 1374.45-.012.01c-220.922-375.526 62.668-608.815 62.668-608.815s-44.105 64.546-30.535 101.921c40.715 122.317 162.852-101.921 162.852-101.921-3.395 373.725 206.957 339.745 206.957 339.745l37.32-13.59-40.39 26.34-394.626 257.33c-.914-1.4-2.769-1.87-4.234-1.02m282.81-302.11c-60.4-51.89-91.923-147.195-94.017-283.219-24.516 40.988-80.422 125.07-124.359 121.16-16.942-1.508-29.836-15.203-38.329-40.715-2.039-5.609-2.917-11.722-2.917-18.086 0-16.382 5.832-34.417 12.675-50.007-24.226 27.269-57.793 71.914-82.058 131.453-21.078 51.711-31.703 105.854-31.703 161.324q0 14.07.914 28.26c5.156 79.99 32.343 162.63 80.718 245.72 10.895-7.11 392.416-255.9 392.446-255.92-17.54 1.15-66.66.16-113.37-39.97M852.434 760.965a6.3 6.3 0 0 1 1.898 3.348q-7.862.474-15.379.949c2.91-2.629 4.75-4.168 5.176-4.516a6.34 6.34 0 0 1 8.305.219m-84.305 627.205 13.473-7.8.035.06c.566.95 1.379 1.7 2.32 2.24l-14.238 8.24a3.17 3.17 0 0 1-4.332-1.15 3.165 3.165 0 0 1 1.156-4.33l13.457-7.79c.535.91 1.063 1.82 1.602 2.73z" style="fill:#231f20;fill-opacity:1;fill-rule:nonzero;stroke:none" transform="matrix(.13333 0 0 -.13333 0 257.333)"></path><path d="m787.09 1377.19-5.488 3.18c-.539-.91-1.067-1.82-1.602-2.73l5.488-3.18c.535.91 1.059 1.82 1.602 2.73" style="fill:#231f20;fill-opacity:1;fill-rule:nonzero;stroke:none" transform="matrix(.13333 0 0 -.13333 0 257.333)"></path><path d="m781.637 1380.43-.035-.06 5.488-3.18 2.644-1.72c.032.05.071.08.102.14a3.17 3.17 0 0 1-1.156 4.33l-4.723 2.73c-.941-.54-1.754-1.29-2.32-2.24" style="fill:#231f20;fill-opacity:1;fill-rule:nonzero;stroke:none" transform="matrix(.13333 0 0 -.13333 0 257.333)"></path><path d="m785.488 1374.46.012-.01c1.465-.85 3.32-.38 4.234 1.02l-2.644 1.72c-.543-.91-1.067-1.82-1.602-2.73" style="fill:#231f20;fill-opacity:1;fill-rule:nonzero;stroke:none" transform="matrix(.13333 0 0 -.13333 0 257.333)"></path><path d="m1317.6 727.145 19.01-15.489-2.67-3.277-23.03 18.766H550.523a2030 2030 0 0 1 22.606-50.125h781.301a2072 2072 0 0 1 22.61 50.125z" style="fill:#fff;fill-opacity:1;fill-rule:nonzero;stroke:none" transform="matrix(.13333 0 0 -.13333 0 257.333)"></path><path d="m1335.27 710.02-21.02 17.125h-3.34l23.03-18.766z" style="fill:#fff;fill-opacity:1;fill-rule:nonzero;stroke:none" transform="matrix(.13333 0 0 -.13333 0 257.333)"></path><path d="m1335.27 710.02 1.34 1.636-19.01 15.489h-3.35zm-778.899 451.2c7.504 1.89 18.063 6.53 26.348 13.95 8.922 8 10.324 15.92 5.183 21.66-4.683 5.23-11.617 4.76-25.144-.93-18.848-7.69-35.367-8.25-46.676 4.38-13.141 14.66-10.715 36.83 9.426 54.88 9.816 8.8 18.543 13.17 25.812 15.32l9.606-19.44c-4.801-1.31-13.219-4.49-21.504-11.91-8.414-7.54-8.953-15.15-5.067-19.49 4.915-5.48 11.801-3.68 26.907 2.05 20.195 7.99 34.293 6.36 45.258-5.87 12.91-14.41 12.914-36.47-10.668-57.61-9.817-8.8-21.903-14.8-29.149-16.47zm96.203 42.33c-7.164-5-16.176-3.14-21.371 4.29-5.387 7.73-3.918 16.69 3.524 21.88 7.296 5.09 15.976 3.43 21.605-4.33 5.191-7.44 3.961-16.44-3.621-21.74zm344.5 102.4c-4.578-2.32-15.476-5.29-29.336-5.57-39.883-.82-60.933 23.75-61.609 56.78-.805 39.37 26.816 61.68 61.734 62.39 13.524.28 23.848-2.25 28.516-4.55l-5.059-20.65c-5.175 2.12-12.578 4.03-21.992 3.83-20.539-.42-36.371-13.24-35.844-39.09.477-23.11 14.465-37.37 37.571-36.9 8.047.17 16.57 1.88 21.832 4.22zm25.626-8.87c-8.69.9-14.3 8.19-13.36 17.21.97 9.37 7.93 15.19 16.96 14.25 8.86-.91 14.34-7.85 13.52-17.4-.94-9.03-7.76-15.03-16.95-14.08zm333.71-8.24c7.43-4.19 17.55-11.3 28.32-20.29 13.15-10.98 20.7-20.62 22.73-31.02 1.88-8.7-.39-17.29-7.19-25.44-9.33-11.17-23.82-12.23-33.74-8.63l-.33-.39c4.09-7.66 2.68-16.29-1.89-26.3-5.68-12.43-12.71-26.18-13.86-31.03l-20.5 17.12c.77 3.59 4.57 12.68 11.18 25.68 6.83 13.25 5.43 19.33-2.74 26.37l-5.91 4.93-29.07-34.82-19.84 16.57zm-11.86-54.54 7.88-6.59c9.99-8.33 20.07-8.27 26.55-.52 6.68 8.02 4.68 16.83-4.52 24.51-4.86 4.06-7.84 6.1-9.62 6.91zm18.86-107.88c-5.92 6.42-5.31 15.6 1.36 21.75 6.93 6.39 16 6.14 22.15-.53 6.03-6.55 5.55-15.37-1.38-22-6.67-6.14-15.75-6.14-22.02.66z" style="fill:#fff;fill-opacity:1;fill-rule:nonzero;stroke:none" transform="matrix(.13333 0 0 -.13333 0 257.333)" data-source="https://football-logos.cc"></path><!-- source: https://football-logos.cc --></svg>