<svg xmlns="http://www.w3.org/2000/svg" viewBox="92.44 137.48 410.4 566.93"><!-- Source: https://football-logos.cc --><path d="M151.187 273.376c-2.72-.92-4.803-2.681-6.12-5.618-1.218-2.713-1.073-5.53-.092-8.036l-30.09-60.673-5.984 1.798c-3.4 1.021-7.365.07-9.633-4.27l-5.777-11.052c-1.531-3.627-2.193-8.896 3.755-11.328l5.777-2.226c1.714-.66 4.06-.513 5.986.634.91-2.244 1.992-3.147 3.544-3.72l6.627-2.452c1.695-.628 3.428-.24 5.628.658.933-1.786 2.104-3.264 4.431-4.057l5.048-1.721c5.259-1.793 8.688.384 10.033 3.148l6.577 13.517c1.102 2.265 1.794 5.24-1.699 8.797l5.596 2.241 4.414-1.226c2.967-.824 6.065.186 8.779 3.524.257-4.607 2.479-6.147 5.016-6.87l10.948-3.124c3.435-.98 7.765.095 9.699 5.854l1.424 4.243 1.462-.312-1.396-4.36c-1.063-3.32.351-7.837 4.773-8.95l1.8-.453 2.015-2.874c-4.935-.694-6.19-2.484-6.963-5.556l-3.195-13.806c-1.33-5.746 3.101-9.163 6.505-9.59l5.468-.686c2.293-.288 4.416.157 6.624 1.925.827-2.551 3.205-3.171 5.325-3.461l5.898-.806c2.805-.383 3.848.458 5.708 1.893 2.015-2.639 3.051-3.107 5.029-3.359l7.403-.94c1.878-.238 2.971.49 4.904 1.894 1.337-1.936 2.854-3.258 5.399-3.574l7.19-.89c2.469-.307 6.798 1.654 7.572 5.932l2.735 15.119c.32 1.773-.248 5.177-3.49 7.015l.344 1.82h63.117l.271-1.28c-3.24-1.86-3.81-5.268-3.489-7.038l2.735-15.1c.773-4.273 5.103-6.205 7.572-5.882l7.19.94c2.545.332 4.062 1.664 5.399 3.61 1.933-1.39 3.027-2.116 4.903-1.86l7.281.99c1.977.269 3.014.985 5.03 3.638 1.859-1.423 2.895-2.315 5.708-1.977l6.02.723c2.126.255 4.375 1.186 5.203 3.742 2.207-1.752 4.332-2.32 6.623-2.002l6.081.845c3.4.472 7.23 3.9 5.892 9.634l-3.073 13.172c-.771 3.067-2.15 5.461-7.084 6.122l.597 1.848 2.543.64c4.422 1.112 5.836 5.629 4.773 8.95l-1.396 4.36 1.462.312 1.424-4.243c1.934-5.76 6.264-6.834 9.7-5.854l10.947 3.123c2.537.724 4.76 2.263 5.016 6.871 2.714-3.339 5.812-4.348 8.78-3.524l4.873 1.353 5.183-2.246c-3.492-3.557-2.678-6.166-1.576-8.43l6.576-13.516c1.345-2.764 4.898-5.186 10.157-3.394l5.047 1.721c2.327.793 3.743 2.517 4.554 4.303 2.2-.898 3.687-1.286 5.383-.659l6.627 2.452c1.552.574 2.878 1.844 3.789 4.088 1.925-1.147 4.39-1.282 6.108-.634l5.9 2.225c5.947 2.433 5.286 7.702 3.754 11.329l-6.511 11.297c-2.445 4.242-6.331 5.559-9.633 4.27l-5.862-2.288-30.788 60.659-1.224 1.395c.708 5.392-1.476 9.637-6.905 11.384 3.762 7.004-1.505 17.634-10.336 17.015l-1.24-.087-1.147-.478c-42.424-17.659-84.95-24.319-130.714-24.336-46.296-.018-90.558 6.037-133.353 24.451l-2.389 1.028-2.518-.652c-7.356-1.906-11.2-10.296-7.977-17.032" style="fill:#09120b;fill-rule:evenodd" data-source="https://football-logos.cc"></path><path d="M154.096 259.852c22.862-9.267 46.443-15.767 70.833-19.707 24.008-3.878 48.207-5.2 72.501-5.188 13.404.006 26.81.447 40.173 1.533 35.203 2.863 68.62 10.212 101.175 23.748 3.986 1.89.816 7.69-2.763 6.209-31.89-13.259-64.485-20.316-98.968-23.12-13.178-1.07-26.4-1.504-39.62-1.51-23.924-.012-47.761 1.28-71.404 5.1-23.881 3.858-46.964 10.217-69.348 19.292-2.268 1.021-3.998-.04-4.68-1.56s-.315-3.62 2.101-4.797" style="fill:#faba00;fill-rule:evenodd"></path><path d="M159.655 266.82c44.161-17.945 90.289-23.921 137.775-23.9 46.656.02 91.482 6.428 134.92 23.873 2.654 1.835.155 6.438-3.19 6.112-42.42-16.924-86.189-23.106-131.733-23.126-46.443-.02-91.6 5.758-134.807 23.24-2.178-.446-5.423-2.88-2.965-6.2" style="fill:#faba00;fill-rule:evenodd"></path><path d="M158.354 276.757c44.726-19.247 90.661-25.649 139.076-25.63 16.96.005 33.91.861 50.748 2.937 29.623 3.65 57.95 11.035 85.515 22.509 1.809 1.668.298 6.539-2.636 6.333-43.632-18.162-86.693-24.902-133.63-24.92-47.462-.018-92.508 6.202-136.358 25.07-3.048-.79-3.87-4.077-2.715-6.3m42.228-123.861 3.123 14.212 58.286-7.585-2.865-14.2-6.372.824 1.683 8.157-10.737 1.36-1.626-8.135-6.736.871 1.524 8.11-10.617 1.304-1.706-8.064-6.502.888 1.654 8.248-11.119 1.38-1.91-8.188zm18.012 14.297 1.365 6.96 29.05-3.812-1.23-6.884zm-7.709 10.451 48.511-6.356 5.815 3.69-4.327 5.139-48.169 6.317-5.616-3.651zm2.925 10.857 47.196-6.22 19.597 48.78q-3.559.09-7.133.22l-.542-1.021c-2.726-5.134-5.693-9.9-9.181-14.56-3.039-4.06-6.203-7.822-10.24-10.945-3.517-2.721-8.013-5.5-12.643-5.138-3.98.312-7.093 2.887-9.417 5.95-3.17 4.179-4.79 7.834-6.404 12.765-1.8 5.497-3.164 11.655-3.816 17.414l-.093.827a517 517 0 0 0-7.054 1.238zm34.581 3.11 8.385-1.056c-1.268-2.035-3.23-4.992-5.274-4.759-2.184.25-2.686 3.877-3.11 5.815m-27.672 3.613 8.385-1.056c-1.268-2.035-3.23-4.991-5.274-4.758-2.184.248-2.686 3.876-3.11 5.815" style="fill:#faba00;fill-rule:evenodd"></path><path d="M270.504 231.546c-2.644-4.98-5.33-9.36-8.954-14.203-2.921-3.903-5.93-7.73-9.722-10.664-2.737-2.117-6.845-4.878-10.75-4.572-2.968.232-5.44 2.23-7.445 4.873-3.054 4.025-4.432 7.472-5.983 12.205-2.125 6.487-3.273 13.125-3.696 16.868 15.492-2.614 30.91-4.487 46.55-4.507m-44.264 2.141c13.568-2.214 27.221-3.828 40.972-4.07a103 103 0 0 0-7.231-11.1c-2.762-3.689-5.684-7.45-9.352-10.288-2.43-1.88-6.17-4.421-9.397-4.168-2.531.198-4.583 2.185-6.038 4.103-2.839 3.743-4.234 7.214-5.681 11.63a86 86 0 0 0-3.273 13.893m168.53-79.546-3.346 14.162-58.16-8.5 3.089-14.154 6.358.925-1.812 8.129 10.715 1.528 1.754-8.108 6.722.977-1.652 8.085 10.595 1.47 1.832-8.036 6.487.99-1.782 8.221 11.095 1.555 2.039-8.157zm-18.234 14.012-1.474 6.938-28.987-4.268 1.338-6.864zm7.544 10.571-48.406-7.117-5.872 3.597 4.246 5.207 48.064 7.073 5.673-3.562zm-3.095 10.81-47.093-6.961-20.36 48.467q3.555.144 7.128.332l.558-1.013c2.806-5.09 5.848-9.81 9.409-14.414 3.102-4.012 6.324-7.723 10.41-10.783 3.56-2.665 8.099-5.374 12.722-4.939 3.976.375 7.047 2.999 9.323 6.098 3.103 4.228 4.666 7.908 6.203 12.863 1.713 5.525 2.98 11.704 3.541 17.472l.08.829q3.507.645 7.034 1.348zM346.36 192.1l-8.367-1.187c1.3-2.016 3.308-4.941 5.348-4.676 2.18.283 2.625 3.92 3.019 5.863m27.612 4.047-8.367-1.187c1.3-2.015 3.308-4.94 5.348-4.675 2.18.283 2.625 3.918 3.019 5.862" style="fill:#faba00;fill-rule:evenodd"></path><path d="M323.621 231.683c2.722-4.936 5.477-9.275 9.177-14.06 2.982-3.856 6.05-7.636 9.888-10.51 2.77-2.074 6.921-4.77 10.819-4.403 2.966.28 5.406 2.316 7.369 4.99 2.99 4.073 4.314 7.54 5.79 12.297 2.023 6.52 3.067 13.175 3.431 16.925-15.45-2.857-30.836-4.972-46.474-5.239m44.225 2.837c-13.532-2.427-27.157-4.255-40.903-4.713a103 103 0 0 1 7.405-10.985c2.82-3.645 5.8-7.36 9.513-10.14 2.46-1.841 6.238-4.324 9.462-4.02 2.527.238 4.547 2.257 5.97 4.197 2.781 3.788 4.122 7.28 5.499 11.719a86 86 0 0 1 3.054 13.942m120.156-39.35-37.357-13.067 6.83-13.072 5.768 2.107-3.959 7.642 10.059 3.52 4.142-7.633 5.495 2.105-3.793 7.506 10.203 3.808 4.076-7.67 5.631 2.196zm-381.242-1.103 37.356-12.821-6.829-13.072-5.769 2.106 3.96 7.642-10.06 3.275-4.142-7.632-5.494 2.104 3.915 7.63-10.326 3.684-4.076-7.669-5.63 2.196zm364.832 5.387-12.029-4.323 2.98-6.327 12.353 4.274zm-348.545-.98 12.151-4.2-3.47-6.573-11.985 4.396zm347.317 3.1-21.2-7.5-6.574 2.538 2.84 5.6 20.736 7.261zm-346.334-.98 21.321-7.5 6.575 2.66-2.595 5.355-21.103 7.384zm341.207 11.002-20.746-6.864-31.362 41.536q3.473.989 6.95 1.997l1.038-1.144c3.876-4.271 7.899-8.122 12.4-11.734 3.922-3.146 8.386-6.216 13.053-8.191 3.646-1.543 7.677-2.729 11.65-1.83zm-11.105 4.722-7.82-3.202c1.754-1.635 4.418-3.98 6.33-3.222 2.044.809 1.585 4.443 1.49 6.424m-324.975-5.456 20.746-7.11 30.506 41.782c-2.247.642-4.43 1.266-6.58 1.889l-1.164-1.282c-3.876-4.271-7.899-8.122-12.4-11.734-3.922-3.146-8.386-6.216-13.054-8.192-3.463-1.465-7.274-2.608-11.052-1.948zm11.228 4.361 7.82-2.671c-1.754-1.755-4.418-4.28-6.331-3.652-2.044.67-1.584 4.335-1.49 6.323" style="fill:#faba00;fill-rule:evenodd"></path><path d="M423.075 248.987c3.776-4.213 7.448-7.825 12.142-11.642 3.784-3.077 7.634-6.056 12.027-7.944 2.695-1.158 6.465-2.511 9.816-2.066l-.928 1.881c-2.723-.13-5.855 1.015-8.115 1.986-4.25 1.826-7.999 4.765-11.563 7.664-3.62 2.944-6.905 6.04-10.059 9.4 5.66 2.203 11.468 4.167 17.051 6.691l-.867 1.76c-6.434-2.904-13.214-5.22-19.504-7.73m-252.122-.489c-3.777-4.214-7.45-8.193-12.144-12.01-3.783-3.077-7.633-6.056-12.026-7.944-2.663-1.145-6.375-2.48-9.696-2.082l.918 1.893c2.697-.096 5.775 1.032 8.004 1.99 4.25 1.826 8 4.765 11.564 7.663 3.645 2.964 6.85 6.234 9.99 9.663-5.709 2.099-11.46 4.05-17.013 6.565l.855 1.764c6.446-2.914 13.244-5.106 19.548-7.502m92.907-67.158 4.893-6.613h6.698v11.977h15.822v-11.977h12.107v11.977h15.822v-11.977h7.748l3.837 6.797-5.744 15.555H270.04zm59.776 17.683-3.26 7.978h-8.754v-7.978zM309.678 207h-24.426v-7.978h24.426zm-26.37 0h-9.373l-3.133-7.978h12.505zm36.519 1.944-3.906 8.958h-17.294v-8.958zm-24.104 8.958h-17.507l-3.518-8.958h21.025zm19.526 1.944-4.573 11.192-6.33.006v-11.198zm-12.848 11.2-11.123.01v-11.21h11.123zm-13.067.012-5.95.006-4.405-11.218h10.355zm94.581-42.351 6.221-4.114 2.724.685-4.413 11.246 15.563 3.996 4.441-11.32 10.56 2.657-4.461 11.368 14.495 3.722 4.487-11.436 6.047 1.522 2.623 5.865-10.652 14.518-47.99-12.32zm46.395 30.398-5.085 6.93-10.487-2.692 2.935-7.483zm-17.693 3.694-17.884-4.591 2.936-7.483 17.884 4.591zm-20.005-5.136-9.275-2.38.179-8.191 12.032 3.088zm31.373 10.062-4.695 6.399-18.023-4.627 2.711-6.908zm-24.601 1.288-16.254-4.172.164-7.562 18.8 4.826zm18.667 6.8-7.15 9.745-7.52-1.848 4.07-10.618zm-16.917 7.344-8.482-2.085 4.11-10.725 8.45 2.17zm-10.73-2.637-7.575-1.862.257-11.821 11.437 2.936zm-179.346-52.057-6.22-4.293-2.608.632 4.173 11.438-16.175 3.856-4.152-11.383-10.61 2.57 4.467 11.425-14.495 3.59-4.496-11.499-6.16 1.492-2.623 5.842 10.633 14.587 48.42-11.998zM164.03 218.42l5.086 6.976 10.383-2.572-2.936-7.51zm17.59 3.878 17.884-4.431-2.936-7.509-17.884 4.431zm20.005-4.957 9.683-2.399-.078-8.217-12.54 3.107zm-31.27 9.755 4.695 6.441 17.92-4.44-2.711-6.932zm24.498 1.535 16.545-4.1-.071-7.586-19.185 4.753zm-18.563 6.607 7.169 9.835 7.407-1.754-4.08-10.682zm16.823 7.548 8.482-2.01-4.12-10.787-8.45 2.093zm10.73-2.542 7.687-1.82-.112-11.89-11.705 2.9z" style="fill:#faba00;fill-rule:evenodd" data-source="https://football-logos.cc"></path><path d="M136.478 286.229h322.055c5.71 51.77 1.973 98.286-5.442 137.712-5.655 30.07-13.401 56.019-21.03 77.031-31.069 85.566-82.17 153.905-134.535 203.437-51.123-48.47-102.36-114.53-133.934-200.767-9.81-26.794-18.118-56.908-23.513-88.956-6.844-40.65-9.248-84.413-3.6-128.457" style="fill:#09120b;fill-rule:evenodd"></path><path d="M220.499 600.914c21.934 33.773 47.836 64.953 77.03 93.312 56.337-54.698 100.799-121.885 127.623-195.762 8.953-24.658 15.868-50.102 20.716-75.881a472 472 0 0 0 4.152-26.054zm-77.496-307.335c-4.402 39.873-2.327 80.382 4.324 119.887 5.013 29.777 12.784 59.291 23.167 87.65a489 489 0 0 0 11.567 28.727L447.383 293.58z" style="fill:#fff;fill-rule:evenodd"></path><path d="M185.22 536.873c9.168 19.992 19.63 39.26 31.27 57.768l234.838-209.119c3.07-28.737 3.46-57.69 1.054-86.553z" style="fill:#e0001d;fill-rule:evenodd"></path><path d="m279.21 311.22 18.433 20.923-9.978 8.791-10.37-11.77-5.096 4.488 10.37 11.77-9.978 8.792-10.37-11.77-23.118 20.365 20.317 17.899c13.017-12.854 27.86-18.446 35.596-11.63 8.514 7.5 3.21 25.426-10.612 41.116-13.822 15.689-30.936 23.21-39.45 15.709-7.598-6.694-4.189-21.693 6.459-35.994l-21.535-18.972-21.535 18.972c10.647 14.3 14.056 29.3 6.458 35.994-8.513 7.5-25.628-.02-39.45-15.71-13.822-15.689-19.125-33.614-10.612-41.114 7.737-6.817 22.58-1.225 35.597 11.629l20.316-17.899-23.117-20.366-10.37 11.771-9.98-8.791 10.371-11.771-5.095-4.489-10.37 11.771-9.979-8.79 18.433-20.924 49.333 43.462zm-15.738 80.532c4.497-5.105 10.387-10.329 16.599-13.236 1.503-.704 6.174-2.51 7.857-1.62a.6.6 0 0 1 .226.2c1.097 1.557-.107 6.418-.616 7.998-2.101 6.529-6.54 13.03-11.038 18.136s-10.388 10.328-16.6 13.236c-1.503.703-6.174 2.51-7.857 1.62a.6.6 0 0 1-.226-.2c-1.096-1.558.107-6.419.616-7.999 2.101-6.528 6.54-13.03 11.038-18.135m-67.188 0c-4.498-5.105-10.388-10.329-16.6-13.236-1.503-.704-6.174-2.51-7.857-1.62a.6.6 0 0 0-.226.199c-1.096 1.558.108 6.42.616 8 2.102 6.528 6.54 13.03 11.039 18.135s10.388 10.328 16.599 13.236c1.504.703 6.174 2.51 7.858 1.62a.6.6 0 0 0 .124-.087.6.6 0 0 0 .101-.113c1.097-1.558-.107-6.419-.615-7.999-2.102-6.528-6.541-13.03-11.039-18.135" style="fill:#09120b;fill-rule:evenodd"></path><path d="m232.615 559.717-4.56 4.094-15.437-17.197q-.396 4.589-2.787 8.746l-3.716-4.14c.838-1.452 1.473-3.353 1.894-5.693.417-2.345.237-4.475-.551-6.39l3.702-3.322zm5.035-47.829 8.785-7.885c1.978-1.776 3.62-2.98 4.936-3.61a10.6 10.6 0 0 1 5.555-1.024c1.938.152 3.851.757 5.735 1.807 1.884 1.062 3.825 2.701 5.83 4.935q2.636 2.935 3.815 5.722c.96 2.261 1.37 4.425 1.222 6.489q-.151 2.34-1.669 4.93c-.755 1.289-2.025 2.728-3.804 4.325l-9.039 8.114zm8.422-.284 14.148 15.761 3.585-3.218c1.341-1.204 2.246-2.147 2.706-2.84.602-.89.956-1.799 1.054-2.727s-.178-2.071-.806-3.429c-.634-1.352-1.776-2.96-3.427-4.8s-3.082-3.097-4.289-3.796q-1.82-1.04-3.432-1.081-1.626-.04-3.233.88c-.81.447-2.188 1.554-4.15 3.315zm37.32 2.536-21.365-23.803 17.646-15.84 3.616 4.03-12.84 11.526 4.735 5.276 11.949-10.725 3.596 4.007-11.948 10.725 5.815 6.478 13.295-11.934 3.602 4.013zm20.568-18.461-3.89-4.334-1.356-26.663-11.09 9.954-3.616-4.03 17.424-15.639 3.353 3.736 1.37 27.76 13.545-12.158 3.602 4.013zm22.489-20.515-21.366-23.803 17.646-15.84 3.617 4.03-12.841 11.526 4.736 5.276 11.948-10.725 3.596 4.007-11.948 10.725 5.815 6.478 13.295-11.934 3.602 4.013zm21.93-19.684-21.366-23.804 7.194-6.457 18.892 12.363-10.307-20.068 7.21-6.472 21.365 23.803-4.461 4.004-16.82-18.737 12.092 22.98-4.627 4.154-21.53-14.509 16.82 18.738zm7.112-48.872 9.516-8.54c1.884-1.692 3.362-2.878 4.431-3.548q1.596-1.012 3.364-1.248c1.179-.158 2.375-.04 3.609.353 1.229.388 2.308 1.1 3.229 2.126a7.5 7.5 0 0 1 1.858 3.876 7.55 7.55 0 0 1-.564 4.288c1.824-.877 3.59-1.161 5.277-.843q2.545.478 4.393 2.541 1.456 1.62 2.081 3.836c.412 1.472.46 2.91.137 4.3q-.484 2.085-2.21 4.025c-.724.8-2.608 2.591-5.653 5.364l-8.102 7.273zm8.368-.355 4.94 5.503 3.147-2.825q2.81-2.523 3.417-3.217 1.105-1.247 1.178-2.59.072-1.339-.967-2.493-.99-1.107-2.216-1.254-1.234-.137-2.558.796-.79.558-4.181 3.603zm8.496 9.466 5.71 6.362 4.446-3.99c1.734-1.556 2.792-2.586 3.168-3.103.6-.77.894-1.613.895-2.515-.004-.907-.384-1.787-1.14-2.63-.642-.715-1.361-1.16-2.152-1.35-.797-.185-1.624-.103-2.482.256-.858.36-2.382 1.528-4.566 3.488zm28.27-7.136L379.26 384.78l10.12-9.083c2.543-2.283 4.583-3.724 6.118-4.331q2.305-.914 4.816-.21c1.677.475 3.14 1.414 4.404 2.822 1.602 1.784 2.404 3.736 2.4 5.84-.007 2.099-.92 4.249-2.74 6.423q2.382-.489 4.373-.312c1.328.12 3.39.59 6.2 1.41l7.077 2.033-5.747 5.159-8.126-2.064c-2.897-.741-4.784-1.149-5.671-1.223s-1.663.031-2.337.306c-.67.28-1.553.913-2.661 1.908l-.97.87 8.92 9.938zm-7.521-18.056 3.552-3.189q3.46-3.103 4.064-4.168a3.5 3.5 0 0 0 .441-2.217c-.106-.766-.472-1.508-1.114-2.223-.721-.803-1.514-1.252-2.384-1.362q-1.303-.164-2.652.69-.65.446-3.578 3.07l-3.747 3.364zm20.434-14.43c-2.179-2.428-3.644-4.785-4.395-7.083a15.2 15.2 0 0 1-.713-5.254q.113-2.7 1.155-4.9c.918-1.965 2.347-3.807 4.287-5.548 3.507-3.15 7.287-4.58 11.348-4.292q6.085.425 11.302 6.237c3.452 3.846 5.101 7.79 4.962 11.838-.145 4.042-1.963 7.635-5.454 10.77q-5.314 4.766-11.352 4.344c-4.029-.286-7.742-2.327-11.14-6.112m4.805-4.603c2.418 2.693 4.88 4.176 7.37 4.453 2.495.272 4.696-.454 6.614-2.175 1.912-1.716 2.869-3.816 2.856-6.305-.014-2.48-1.254-5.1-3.732-7.86-2.447-2.726-4.871-4.222-7.272-4.5q-3.602-.399-6.572 2.267c-1.984 1.78-2.968 3.895-2.963 6.342.01 2.442 1.237 5.034 3.7 7.778M222.232 535.981c-1.725-1.922-2.582-3.857-2.573-5.795q.013-2.917 2.613-5.247 2.664-2.392 5.524-2.107c1.902.19 3.708 1.232 5.409 3.127q1.853 2.065 2.408 3.953.556 1.886.027 3.689c-.354 1.204-1.121 2.333-2.306 3.397q-1.804 1.62-3.558 2.05-1.752.423-3.722-.289-1.968-.714-3.822-2.778m3.314-2.945c1.069 1.19 2.033 1.864 2.9 2.026q1.3.24 2.334-.689 1.062-.954.96-2.238-.104-1.288-1.874-3.263-1.495-1.664-2.792-1.886-1.293-.221-2.337.715c-.663.596-.966 1.333-.9 2.215q.095 1.322 1.71 3.12" style="fill:#fff;fill-rule:evenodd" data-source="https://football-logos.cc"></path><!-- source: https://football-logos.cc --></svg>