<svg xmlns="http://www.w3.org/2000/svg" viewBox="2 2 996 886"><!-- Source: https://football-logos.cc --><path fill="#FE0000" d="M194 125h27l26 1 39 39v1h-78l1 132 246 246 1-42 37-37 1-2h-41l-66-66-8-7-69-69-8-7-13-13v-1l241-2h115l69 1-6 7-81 81-8 7-7 7-8 7-7 7-8 7-7 7-8 7-7 7-8 7-7 7-8 7-7 7-8 7-7 7-8 7-7 7-8 7 40 1-6 7-7 7-8 7-8 8-8 7-3 3h45l85-85 7-8 90-90 7-8 59-59 1-128h-78l6-7 34-34h47l39 39v89l-45 1 46 46-2 4-289 289-1 48-35 35h-47l6-7 27-27v-52l-8 7-11 11-7 8-18 18h-1l-1-45-2-6-10-10-8-7-30-30-8-7-29-29-8-7-30-30-8-7-30-30-8-7-29-29-8-7-30-30-8-7-30-30-8-7-13-13 2-4 42-42-43-1v-91zm262 421-1 40 4-2 7-7 8-7 16-16 7-6-4-2z" data-source="https://football-logos.cc"></path><path fill="#FE0000" d="M755 127h47l39 39v89l-45 1 46 46-2 4-289 289-1 48-35 35h-47l6-7 27-27v-54l38-38 7-8 83-83 7-8 90-90 7-8 59-59 1-128h-78l6-7z"></path><path fill="#00DA81" d="M194 125h27l26 1 39 39v1h-78l1 132 246 246 5-2 13-13 8-7 7-7 8-7 1-1h42l-6 7-7 7-8 7-8 8-8 7-3 3 44 1-6 8-55 55-7 8-18 18h-1l-1-45-2-6-10-10-8-7-30-30-8-7-29-29-8-7-30-30-8-7-30-30-8-7-29-29-8-7-30-30-8-7-30-30-8-7-13-13 2-4 42-42-43-1v-91zm262 421-1 40 4-2 7-7 8-7 16-16 7-6-4-2z"></path><path fill="red" d="M507 167h192l16 1v105H557l-50-1z"></path><path fill="#00DA81" d="M530 298h10l-6 7-74 74 2 4 24 24 8 7 49 49-49 1-41-1-66-66-8-7-69-69-8-7-13-13v-1l152-1z"></path><path fill="#00DB82" d="M287 166h195l24 1-6 7-97 97H287z"></path><path fill="#00DA81" d="M399 74h210l-6 7-65 65h-74l-135-1 6-7z"></path><path fill="#00B063" d="M530 298h10l-6 7-76 76-78-78-2-1v-2l63-1z"></path><path fill="#C70E13" d="M628 299h86l-6 7-68 68-85-1 6-7z"></path><path fill="#00B063" d="M287 166h104l-6 7-97 97h-1z"></path><path fill="#C70F14" d="M713 169h1v104H610l102-102zm-205-2h103l-6 7-96 96h-1z"></path><path fill="#FE0000" d="M536 74h73l-6 7-65 65h-74l6-7 21-21 8-7z"></path><path fill="#060C06" d="M296 775h45l14 12 2 2v78l-10 9-5 4-15 1h-19l-13-1-1-1v-99zm18 22v62h20l3-3v-56l-3-3z"></path><path fill="#040C06" d="M592 778h44l10 9 5 4 1 2v34l-10 10 7 27 3 10v5l-1 1h-17l-3-7-8-29-1-1-11-1-1 37-1 1h-17l-1-2v-99zm19 20-1 6v15l1 2h19l3-3v-16l-4-4zm-75-20h30l13 11 3 5v72l-12 11-5 3h-29l-15-13-1-1v-72l3-5 10-9zm7 20-4 3v55l3 3h18l3-3v-54l-4-4zm275-20h30l14 12 2 3v16l-2 3h-15l-2-1-1-9-9-3h-10l-3 3v54l2 2h18l2-2 1-8-11-1-1-1v-18l1-1h29l1 2v36l-5 6-10 8-1 1h-30l-15-13-1-1v-74l8-8z"></path><path fill="#060C06" d="M83 776h15l8 1 3 10 12 50 3 13 1 8v14l-2 7h-17l-1-2v-19H80v18l-2 3H62l-1-1v-27l11-47 6-26zm9 27-7 28v5l1 1h14v-7l-6-25zm799-25h27l3 9 13 56 3 12v22l-1 3h-18l-1-3v-18h-25v20l-1 1h-17l-1-2v-23l3-15 9-37 5-23zm13 27-7 28v5h15l1-3-7-30z"></path><path fill="#050D06" d="M222 776h15l8 1 3 8 15 64 1 3v25l-1 2h-17l-1-1-1-7v-13h-22l-2 1-1 19-1 1h-16l-1-1-1-7 1-23 11-46 6-25zm9 28-7 28 1 5h14l1-4-7-29z"></path><path fill="#040C06" d="M732 778h17l1 5 1 75h20l2-2 1-77 1-1h17l1 2v86l-11 10-6 4h-29l-14-12-2-2v-87z"></path><path fill="#071408" d="M366 775h49l3 2v18l-5 2h-30l1 22 16 1 3 2v17l-1 2-6 1h-13v17h33l2 2v18l-1 1-17 1h-35l-2-3V777z" data-source="https://football-logos.cc"></path><path fill="#040C06" d="M450 778h44l10 9 6 6v33l-7 8-9 8-25 1-1 36-1 1h-17l-1-1V779zm19 20-1 1v22h19l4-3v-16l-4-4z"></path><path fill="#00DB82" d="m226 3 4 1 28 28v3l-8 7-7 7-8 7-7 7h-2l17 17 8 7 6 7-15 16-8 8-5 6-4-1-28-28 1-4 26-26-2-4-26-26 2-4z"></path><path fill="#080C06" d="M148 776h29l15 12 1 2v19l-1 1h-15l-1-1-2-10-4-3h-15l-4 3v57l3 3h17l4-4 1-9h17v20l-10 9-5 4h-6v9h-19v-9h-6l-15-13v-75l1-3 11-9zM8 776h46l6 1 1 3v14l-2 3-17 1-1 80-1 1H23l-1-1-1-81H4l-2-2v-17z"></path><path fill="#00DA81" d="M549 596h1v47l-35 35h-47l6-7z"></path><path fill="#040C06" d="M663 778h57l1 2v16l-2 2h-17l-1 81-1 1h-17l-1-1-1-81h-17l-2-2v-17z"></path><path fill="#050C06" d="M947 778h18l1 3v78h30l2 2v17l-1 2h-50l-1-7v-93z"></path><path fill="red" d="m609 75 4 2 11 12 27 27 7 8 23 23v1h-72zM775 2l7 6 24 24-2 4-17 16-12 11-4-2-27-27 6-7z"></path><path fill="#C80E13" d="m773 64 4 2 16 15 12 11-2 4-11 11-7 8-9 9-7-6-24-24 2-4z"></path><path fill="#0B0E07" d="M366 775h49l3 2v18l-5 2h-30l1 22 16 1 3 2v17l-1 2-6 1h-13v17h33l2 2v18l-1 1-17 1h-35l-2-3V777zm0 3-1 3v93l2 4h49v-15l-1-1-29-1-4-1-1-4 1-16 17-1 2-2v-8l-1-6-18-2-1-2 1-23 1-1 32-1 1-2v-14z"></path><path fill="#00B063" d="M197 94h59l-6 8-16 16-5 6-4-1-28-28z"></path><path fill="red" d="m773 64 4 2 16 15 12 11-1 2-59-1 6-7z"></path><path fill="#C70F14" d="M792 296h1v54l-7-6-12-12-8-7 1-4z"></path><path fill="#00B063" d="m208 298 7 6 17 17-6 7-17 17h-1z"></path><path fill="#060C06" d="M492 730h17l5 4v13l-5 4h-10v12l-1 1h-5l-1-1zm8 6-1 1v7h8v-7l-1-1z"></path><path fill="#131208" d="M528 729h19v7h-12v8h6l1 1v6h-7v13h-7l-1-1v-33z"></path><path fill="#071107" d="M462 729h18l1 1v6l-12 1-1 7h7v7l-6 1-1 12h-7v-34z" data-source="https://football-logos.cc"></path><!-- source: https://football-logos.cc --></svg>