<svg xmlns="http://www.w3.org/2000/svg" viewBox="0 0 209.28 289.23"><!-- Source: https://football-logos.cc --><defs data-source="https://football-logos.cc"><clipPath id="a" clipPathUnits="userSpaceOnUse"><path d="M-64.136 78.423h283.465V-205.04H-64.136Z"></path></clipPath><clipPath id="b" clipPathUnits="userSpaceOnUse"><path d="M-78.612 143.613h283.465V-139.85H-78.612Z"></path></clipPath><clipPath id="c" clipPathUnits="userSpaceOnUse"><path d="M-216.58 84.292H66.885v-283.464H-216.58Z"></path></clipPath><clipPath id="d" clipPathUnits="userSpaceOnUse"><path d="M-69.7 109.862h283.465v-283.464H-69.7Z"></path></clipPath><clipPath id="e" clipPathUnits="userSpaceOnUse"><path d="M-108.413 115.024h283.465V-168.44h-283.465Z"></path></clipPath></defs><path d="M0 0a113.4 113.4 0 0 1 21.942 10.601c17.693 11.032 32.391 26.987 43.287 47.337.096.181.27.53.464.919 1.058 2.129 2.732 5.499 5.22 6.798 2.327 1.216 4.996.788 7.816-3.408 2.771 4.087 5.201 4.7 7.413 3.495 2.235-1.22 3.742-4.46 5.178-7.545.578-1.24 1.142-2.455 1.698-3.413 8.072-13.908 17.013-26.038 27.19-35.849 10.13-9.768 21.5-17.245 34.479-21.902l1.145-.41-.086-1.203c-2.242-31.401-10.347-59.074-23.963-83.241-13.614-24.162-32.729-44.795-56.992-62.122l-.965-.689-.935.726c-24.139 18.764-41.793 40.756-53.835 65.62C7.021-59.439.606-31.756-1.063-1.589L-1.128-.4 0-.001Zm12.677 1.865A119 119 0 0 0 2.195-2.594c1.748-29.313 8.048-56.196 19.726-80.309 11.67-24.097 28.726-45.46 51.992-63.756 23.417 16.907 41.893 36.967 55.092 60.395 13.205 23.438 21.137 50.271 23.462 80.717-12.939 4.836-24.31 12.401-34.464 22.19-10.406 10.032-19.524 22.395-27.738 36.546-.633 1.09-1.227 2.369-1.836 3.676-1.219 2.62-2.499 5.373-3.806 6.086-.927.506-2.296-.49-4.52-4.566l-1.428-2.619-1.381 2.644c-2.199 4.209-3.773 5.012-4.912 4.418-1.573-.821-2.961-3.615-3.837-5.378a37 37 0 0 0-.514-1.007C56.862 35.583 41.784 19.221 23.624 7.897a116 116 0 0 0-10.947-6.032" clip-path="url(#a)" style="fill:#fc0;fill-opacity:1;fill-rule:nonzero;stroke:none" transform="matrix(1.33333 0 0 -1.33333 1.504 88.388)"></path><path d="m0 0 132.071 22.99C121.83-19.974 97.058-54.144 59.445-81.469 33.009-61.006 11.443-32.508 0 0" clip-path="url(#b)" style="fill:#003b57;fill-opacity:1;fill-rule:evenodd;stroke:none" transform="matrix(1.33333 0 0 -1.33333 20.805 175.308)"></path><path d="M0 0c.003.095.021.225.023.321-12.973 4.822-24.201 12.337-34.389 22.111-10.383 10.036-19.478 22.404-27.666 36.561-.655 1.085-1.274 2.359-1.907 3.661-1.02 2.136-2.064 4.367-3.133 5.605-.245.282-.492.459-.749.56-.929.501-2.3-.499-4.535-4.594l-1.413-2.591-1.306 2.565c-2.113 4.269-3.845 5.089-4.96 4.51-1.609-.846-3.054-3.679-3.969-5.469-.174-.349-.327-.657-.514-1.008-11.17-20.666-26.248-36.751-44.408-48.365a117 117 0 0 0-10.946-6.032c-3.42-1.653-7.096-3.321-10.664-4.64.584-9.864 1.997-19.451 3.643-28.751z" clip-path="url(#c)" style="fill:red;fill-opacity:1;fill-rule:nonzero;stroke:none" transform="matrix(1.33333 0 0 -1.33333 204.763 96.213)" data-source="https://football-logos.cc"></path><path d="m0 0 146.88 25.57c-1.126-12.737-3.111-24.828-6.105-36.206L8.913-33.745C5.032-23.143 2.183-11.959 0 0" clip-path="url(#d)" style="fill:#fff;fill-opacity:1;fill-rule:evenodd;stroke:none" transform="matrix(1.33333 0 0 -1.33333 8.923 130.306)"></path><path d="m0 0-6.533-1.147Q-7.979.227-9.724.732q-1.745.506-3.792.148a8.1 8.1 0 0 1-3.021-1.172 7.9 7.9 0 0 1-2.31-2.263 9 9 0 0 1-1.37-3.195 8.9 8.9 0 0 1-.07-3.45c.449-2.507 1.631-4.46 3.543-5.877q2.866-2.123 6.361-1.506 2.008.351 3.479 1.383a6.55 6.55 0 0 1 2.21 2.636l6.546 1.149q-1.162-4.526-3.978-7.19c-1.875-1.777-4.293-2.922-7.245-3.441-2.05-.359-4.011-.293-5.888.19s-3.636 1.377-5.292 2.693a13.5 13.5 0 0 0-3.434 3.938q-1.345 2.306-1.848 5.123-.51 2.855.118 5.614c.418 1.831 1.203 3.576 2.354 5.225q1.638 2.302 3.891 3.732 2.25 1.434 5.046 1.924c2.991.524 5.674.262 8.05-.796Q-2.812 4.02 0 0m35.855-8.307c2.959.52 5.014 1.628 6.156 3.329 1.143 1.695 1.432 4.094.88 7.188-.507 2.838-1.673 4.915-3.487 6.223-1.813 1.308-4.101 1.719-6.847 1.237l-3.492-.613 3.223-17.99zm1.201-4.633-9.232-1.63-4.979 27.341 9.094 1.604c2.466.437 4.48.533 6.054.296q2.351-.359 4.484-1.807c1.504-1.025 2.744-2.365 3.726-4.031.976-1.659 1.669-3.602 2.068-5.818q.672-3.71-.174-6.896a12.45 12.45 0 0 0-3.121-5.548 9.6 9.6 0 0 0-3.037-2.165c-1.179-.532-2.802-.978-4.883-1.346m57.597 38.338.862-4.807-8.602-1.529 4.178-23.253-5.257-1.008-4.25 23.325-8.602-1.421-.861 4.807z" clip-path="url(#e)" style="fill:#fc0;fill-opacity:1;fill-rule:evenodd;stroke:none" transform="matrix(1.33333 0 0 -1.33333 60.54 137.189)" data-source="https://football-logos.cc"></path><!-- source: https://football-logos.cc --></svg>