<svg xmlns="http://www.w3.org/2000/svg" xml:space="preserve" viewBox="345.14 210.98 376.38 378.04"><!-- Source: https://football-logos.cc --><defs data-source="https://football-logos.cc"><linearGradient id="b" x1="0" x2="1" y1="0" y2="0" gradientTransform="matrix(199.86972 0 0 -199.86972 312.398 314.375)" gradientUnits="userSpaceOnUse" spreadMethod="pad"><stop offset="0" style="stop-opacity:1;stop-color:#fef01b"></stop><stop offset=".006" style="stop-opacity:1;stop-color:#fef01b"></stop><stop offset=".584" style="stop-opacity:1;stop-color:#dba912"></stop><stop offset="1" style="stop-opacity:1;stop-color:#fef01b"></stop></linearGradient><linearGradient id="c" x1="0" x2="1" y1="0" y2="0" gradientTransform="matrix(114.1075 0 0 -114.1075 424.803 300.963)" gradientUnits="userSpaceOnUse" spreadMethod="pad"><stop offset="0" style="stop-opacity:1;stop-color:#fef01b"></stop><stop offset=".006" style="stop-opacity:1;stop-color:#fef01b"></stop><stop offset=".258" style="stop-opacity:1;stop-color:#fef01b"></stop><stop offset=".539" style="stop-opacity:1;stop-color:#fbd014"></stop><stop offset=".826" style="stop-opacity:1;stop-color:#d5aa13"></stop><stop offset="1" style="stop-opacity:1;stop-color:#d5aa13"></stop></linearGradient><linearGradient id="d" x1="0" x2="1" y1="0" y2="0" gradientTransform="matrix(94.1973 0 0 -94.1973 444.713 287.557)" gradientUnits="userSpaceOnUse" spreadMethod="pad"><stop offset="0" style="stop-opacity:1;stop-color:#fef01b"></stop><stop offset=".006" style="stop-opacity:1;stop-color:#fef01b"></stop><stop offset=".258" style="stop-opacity:1;stop-color:#fef01b"></stop><stop offset=".539" style="stop-opacity:1;stop-color:#fbd014"></stop><stop offset=".826" style="stop-opacity:1;stop-color:#d5aa13"></stop><stop offset="1" style="stop-opacity:1;stop-color:#d5aa13"></stop></linearGradient><linearGradient id="e" x1="0" x2="1" y1="0" y2="0" gradientTransform="matrix(33.63266 0 0 -33.63266 492.07 241.856)" gradientUnits="userSpaceOnUse" spreadMethod="pad"><stop offset="0" style="stop-opacity:1;stop-color:#fef01b"></stop><stop offset=".006" style="stop-opacity:1;stop-color:#fef01b"></stop><stop offset=".258" style="stop-opacity:1;stop-color:#fef01b"></stop><stop offset=".539" style="stop-opacity:1;stop-color:#fbd014"></stop><stop offset=".826" style="stop-opacity:1;stop-color:#d5aa13"></stop><stop offset="1" style="stop-opacity:1;stop-color:#d5aa13"></stop></linearGradient><linearGradient id="f" x1="0" x2="1" y1="0" y2="0" gradientTransform="matrix(21.1914 0 0 -21.1914 499.963 230.25)" gradientUnits="userSpaceOnUse" spreadMethod="pad"><stop offset="0" style="stop-opacity:1;stop-color:#fef01b"></stop><stop offset=".006" style="stop-opacity:1;stop-color:#fef01b"></stop><stop offset=".258" style="stop-opacity:1;stop-color:#fef01b"></stop><stop offset=".539" style="stop-opacity:1;stop-color:#fbd014"></stop><stop offset=".826" style="stop-opacity:1;stop-color:#d5aa13"></stop><stop offset="1" style="stop-opacity:1;stop-color:#d5aa13"></stop></linearGradient><linearGradient id="g" x1="0" x2="1" y1="0" y2="0" gradientTransform="matrix(118.729 0 0 -118.729 261.089 287.557)" gradientUnits="userSpaceOnUse" spreadMethod="pad"><stop offset="0" style="stop-opacity:1;stop-color:#fef01b"></stop><stop offset=".006" style="stop-opacity:1;stop-color:#fef01b"></stop><stop offset=".258" style="stop-opacity:1;stop-color:#fef01b"></stop><stop offset=".539" style="stop-opacity:1;stop-color:#fbd014"></stop><stop offset=".826" style="stop-opacity:1;stop-color:#d5aa13"></stop><stop offset="1" style="stop-opacity:1;stop-color:#d5aa13"></stop></linearGradient><linearGradient id="h" x1="0" x2="1" y1="0" y2="0" gradientTransform="matrix(110.84029 0 0 -110.84029 261.089 300.963)" gradientUnits="userSpaceOnUse" spreadMethod="pad"><stop offset="0" style="stop-opacity:1;stop-color:#fef01b"></stop><stop offset=".006" style="stop-opacity:1;stop-color:#fef01b"></stop><stop offset=".258" style="stop-opacity:1;stop-color:#fef01b"></stop><stop offset=".539" style="stop-opacity:1;stop-color:#fbd014"></stop><stop offset=".826" style="stop-opacity:1;stop-color:#d5aa13"></stop><stop offset="1" style="stop-opacity:1;stop-color:#d5aa13"></stop></linearGradient><linearGradient id="i" x1="0" x2="1" y1="0" y2="0" gradientTransform="matrix(90.9013 0 0 -90.9013 261.089 314.412)" gradientUnits="userSpaceOnUse" spreadMethod="pad"><stop offset="0" style="stop-opacity:1;stop-color:#fef01b"></stop><stop offset=".006" style="stop-opacity:1;stop-color:#fef01b"></stop><stop offset=".258" style="stop-opacity:1;stop-color:#fef01b"></stop><stop offset=".539" style="stop-opacity:1;stop-color:#fbd014"></stop><stop offset=".826" style="stop-opacity:1;stop-color:#d5aa13"></stop><stop offset="1" style="stop-opacity:1;stop-color:#d5aa13"></stop></linearGradient><linearGradient id="j" x1="0" x2="1" y1="0" y2="0" gradientTransform="matrix(16.5078 0 0 -16.5078 265.141 337.408)" gradientUnits="userSpaceOnUse" spreadMethod="pad"><stop offset="0" style="stop-opacity:1;stop-color:#fef01b"></stop><stop offset=".006" style="stop-opacity:1;stop-color:#fef01b"></stop><stop offset=".258" style="stop-opacity:1;stop-color:#fef01b"></stop><stop offset=".539" style="stop-opacity:1;stop-color:#fbd014"></stop><stop offset=".826" style="stop-opacity:1;stop-color:#d5aa13"></stop><stop offset="1" style="stop-opacity:1;stop-color:#d5aa13"></stop></linearGradient><linearGradient id="k" x1="0" x2="1" y1="0" y2="0" gradientTransform="matrix(31.13751 0 0 -31.13751 273.215 360.41)" gradientUnits="userSpaceOnUse" spreadMethod="pad"><stop offset="0" style="stop-opacity:1;stop-color:#fef01b"></stop><stop offset=".006" style="stop-opacity:1;stop-color:#fef01b"></stop><stop offset=".258" style="stop-opacity:1;stop-color:#fef01b"></stop><stop offset=".539" style="stop-opacity:1;stop-color:#fbd014"></stop><stop offset=".826" style="stop-opacity:1;stop-color:#d5aa13"></stop><stop offset="1" style="stop-opacity:1;stop-color:#d5aa13"></stop></linearGradient><linearGradient id="l" x1="0" x2="1" y1="0" y2="0" gradientTransform="matrix(17.8364 0 0 -17.8364 278.622 370.93)" gradientUnits="userSpaceOnUse" spreadMethod="pad"><stop offset="0" style="stop-opacity:1;stop-color:#fef01b"></stop><stop offset=".006" style="stop-opacity:1;stop-color:#fef01b"></stop><stop offset=".258" style="stop-opacity:1;stop-color:#fef01b"></stop><stop offset=".539" style="stop-opacity:1;stop-color:#fbd014"></stop><stop offset=".826" style="stop-opacity:1;stop-color:#d5aa13"></stop><stop offset="1" style="stop-opacity:1;stop-color:#d5aa13"></stop></linearGradient><linearGradient id="m" x1="0" x2="1" y1="0" y2="0" gradientTransform="matrix(216.51924 0 0 -216.51924 289.926 301.01)" gradientUnits="userSpaceOnUse" spreadMethod="pad"><stop offset="0" style="stop-opacity:1;stop-color:#fef01b"></stop><stop offset=".006" style="stop-opacity:1;stop-color:#fef01b"></stop><stop offset=".584" style="stop-opacity:1;stop-color:#dba912"></stop><stop offset="1" style="stop-opacity:1;stop-color:#fef01b"></stop></linearGradient><linearGradient id="n" x1="0" x2="1" y1="0" y2="0" gradientTransform="matrix(199.15797 0 0 -199.15797 285.812 286.433)" gradientUnits="userSpaceOnUse" spreadMethod="pad"><stop offset="0" style="stop-opacity:1;stop-color:#fef01b"></stop><stop offset=".006" style="stop-opacity:1;stop-color:#fef01b"></stop><stop offset=".584" style="stop-opacity:1;stop-color:#dba912"></stop><stop offset="1" style="stop-opacity:1;stop-color:#fef01b"></stop></linearGradient><linearGradient id="o" x1="0" x2="1" y1="0" y2="0" gradientTransform="matrix(16.0264 0 0 -16.0264 518.995 264.68)" gradientUnits="userSpaceOnUse" spreadMethod="pad"><stop offset="0" style="stop-opacity:1;stop-color:#fef01b"></stop><stop offset=".006" style="stop-opacity:1;stop-color:#fef01b"></stop><stop offset=".258" style="stop-opacity:1;stop-color:#fef01b"></stop><stop offset=".539" style="stop-opacity:1;stop-color:#fbd014"></stop><stop offset=".826" style="stop-opacity:1;stop-color:#d5aa13"></stop><stop offset="1" style="stop-opacity:1;stop-color:#d5aa13"></stop></linearGradient><linearGradient id="p" x1="0" x2="1" y1="0" y2="0" gradientTransform="matrix(16.0152 0 0 -16.0152 265.007 264.7)" gradientUnits="userSpaceOnUse" spreadMethod="pad"><stop offset="0" style="stop-opacity:1;stop-color:#fef01b"></stop><stop offset=".006" style="stop-opacity:1;stop-color:#fef01b"></stop><stop offset=".258" style="stop-opacity:1;stop-color:#fef01b"></stop><stop offset=".539" style="stop-opacity:1;stop-color:#fbd014"></stop><stop offset=".826" style="stop-opacity:1;stop-color:#d5aa13"></stop><stop offset="1" style="stop-opacity:1;stop-color:#d5aa13"></stop></linearGradient><linearGradient id="q" x1="0" x2="1" y1="0" y2="0" gradientTransform="matrix(0 113.1357 113.1357 0 400.006 160.46)" gradientUnits="userSpaceOnUse" spreadMethod="pad"><stop offset="0" style="stop-opacity:1;stop-color:#fef01b"></stop><stop offset=".006" style="stop-opacity:1;stop-color:#fef01b"></stop><stop offset=".258" style="stop-opacity:1;stop-color:#fef01b"></stop><stop offset=".539" style="stop-opacity:1;stop-color:#fbd014"></stop><stop offset=".826" style="stop-opacity:1;stop-color:#d5aa13"></stop><stop offset="1" style="stop-opacity:1;stop-color:#d5aa13"></stop></linearGradient><linearGradient id="r" x1="0" x2="1" y1="0" y2="0" gradientTransform="matrix(0 119.4365 119.4365 0 386.572 161.496)" gradientUnits="userSpaceOnUse" spreadMethod="pad"><stop offset="0" style="stop-opacity:1;stop-color:#fef01b"></stop><stop offset=".006" style="stop-opacity:1;stop-color:#fef01b"></stop><stop offset=".258" style="stop-opacity:1;stop-color:#fef01b"></stop><stop offset=".539" style="stop-opacity:1;stop-color:#fbd014"></stop><stop offset=".826" style="stop-opacity:1;stop-color:#d5aa13"></stop><stop offset="1" style="stop-opacity:1;stop-color:#d5aa13"></stop></linearGradient><linearGradient id="s" x1="0" x2="1" y1="0" y2="0" gradientTransform="matrix(108.43352 0 0 -108.43352 273.229 241.856)" gradientUnits="userSpaceOnUse" spreadMethod="pad"><stop offset="0" style="stop-opacity:1;stop-color:#fef01b"></stop><stop offset=".006" style="stop-opacity:1;stop-color:#fef01b"></stop><stop offset=".258" style="stop-opacity:1;stop-color:#fef01b"></stop><stop offset=".539" style="stop-opacity:1;stop-color:#fbd014"></stop><stop offset=".826" style="stop-opacity:1;stop-color:#d5aa13"></stop><stop offset="1" style="stop-opacity:1;stop-color:#d5aa13"></stop></linearGradient><linearGradient id="t" x1="0" x2="1" y1="0" y2="0" gradientTransform="matrix(103.7026 0 0 -103.7026 277.96 227.522)" gradientUnits="userSpaceOnUse" spreadMethod="pad"><stop offset="0" style="stop-opacity:1;stop-color:#fef01b"></stop><stop offset=".006" style="stop-opacity:1;stop-color:#fef01b"></stop><stop offset=".258" style="stop-opacity:1;stop-color:#fef01b"></stop><stop offset=".539" style="stop-opacity:1;stop-color:#fbd014"></stop><stop offset=".826" style="stop-opacity:1;stop-color:#d5aa13"></stop><stop offset="1" style="stop-opacity:1;stop-color:#d5aa13"></stop></linearGradient><linearGradient id="u" x1="0" x2="1" y1="0" y2="0" gradientTransform="matrix(91.8143 0 0 -91.8143 289.848 213.684)" gradientUnits="userSpaceOnUse" spreadMethod="pad"><stop offset="0" style="stop-opacity:1;stop-color:#fef01b"></stop><stop offset=".006" style="stop-opacity:1;stop-color:#fef01b"></stop><stop offset=".258" style="stop-opacity:1;stop-color:#fef01b"></stop><stop offset=".539" style="stop-opacity:1;stop-color:#fbd014"></stop><stop offset=".826" style="stop-opacity:1;stop-color:#d5aa13"></stop><stop offset="1" style="stop-opacity:1;stop-color:#d5aa13"></stop></linearGradient><linearGradient id="v" x1="0" x2="1" y1="0" y2="0" gradientTransform="matrix(82.3345 0 0 -82.3345 299.328 187.119)" gradientUnits="userSpaceOnUse" spreadMethod="pad"><stop offset="0" style="stop-opacity:1;stop-color:#fef01b"></stop><stop offset=".006" style="stop-opacity:1;stop-color:#fef01b"></stop><stop offset=".258" style="stop-opacity:1;stop-color:#fef01b"></stop><stop offset=".539" style="stop-opacity:1;stop-color:#fbd014"></stop><stop offset=".826" style="stop-opacity:1;stop-color:#d5aa13"></stop><stop offset="1" style="stop-opacity:1;stop-color:#d5aa13"></stop></linearGradient><linearGradient id="w" x1="0" x2="1" y1="0" y2="0" gradientTransform="matrix(60.4795 0 0 -60.4795 418.35 179.404)" gradientUnits="userSpaceOnUse" spreadMethod="pad"><stop offset="0" style="stop-opacity:1;stop-color:#fef01b"></stop><stop offset=".006" style="stop-opacity:1;stop-color:#fef01b"></stop><stop offset=".258" style="stop-opacity:1;stop-color:#fef01b"></stop><stop offset=".539" style="stop-opacity:1;stop-color:#fbd014"></stop><stop offset=".826" style="stop-opacity:1;stop-color:#d5aa13"></stop><stop offset="1" style="stop-opacity:1;stop-color:#d5aa13"></stop></linearGradient><linearGradient id="x" x1="0" x2="1" y1="0" y2="0" gradientTransform="matrix(37.9805 0 0 -37.9805 418.35 213.684)" gradientUnits="userSpaceOnUse" spreadMethod="pad"><stop offset="0" style="stop-opacity:1;stop-color:#fef01b"></stop><stop offset=".006" style="stop-opacity:1;stop-color:#fef01b"></stop><stop offset=".258" style="stop-opacity:1;stop-color:#fef01b"></stop><stop offset=".539" style="stop-opacity:1;stop-color:#fbd014"></stop><stop offset=".826" style="stop-opacity:1;stop-color:#d5aa13"></stop><stop offset="1" style="stop-opacity:1;stop-color:#d5aa13"></stop></linearGradient><linearGradient id="y" x1="0" x2="1" y1="0" y2="0" gradientTransform="matrix(8.8067 0 0 -8.8067 418.35 241.856)" gradientUnits="userSpaceOnUse" spreadMethod="pad"><stop offset="0" style="stop-opacity:1;stop-color:#fef01b"></stop><stop offset=".006" style="stop-opacity:1;stop-color:#fef01b"></stop><stop offset=".258" style="stop-opacity:1;stop-color:#fef01b"></stop><stop offset=".539" style="stop-opacity:1;stop-color:#fbd014"></stop><stop offset=".826" style="stop-opacity:1;stop-color:#d5aa13"></stop><stop offset="1" style="stop-opacity:1;stop-color:#d5aa13"></stop></linearGradient><linearGradient id="z" x1="0" x2="1" y1="0" y2="0" gradientTransform="matrix(.9131 0 0 -.9131 418.35 247.22)" gradientUnits="userSpaceOnUse" spreadMethod="pad"><stop offset="0" style="stop-opacity:1;stop-color:#fef01b"></stop><stop offset=".006" style="stop-opacity:1;stop-color:#fef01b"></stop><stop offset=".258" style="stop-opacity:1;stop-color:#fef01b"></stop><stop offset=".539" style="stop-opacity:1;stop-color:#fbd014"></stop><stop offset=".826" style="stop-opacity:1;stop-color:#d5aa13"></stop><stop offset="1" style="stop-opacity:1;stop-color:#d5aa13"></stop></linearGradient><linearGradient id="A" x1="0" x2="1" y1="0" y2="0" gradientTransform="matrix(0 93.5137 93.5137 0 413.43 161.496)" gradientUnits="userSpaceOnUse" spreadMethod="pad"><stop offset="0" style="stop-opacity:1;stop-color:#fef01b"></stop><stop offset=".006" style="stop-opacity:1;stop-color:#fef01b"></stop><stop offset=".258" style="stop-opacity:1;stop-color:#fef01b"></stop><stop offset=".539" style="stop-opacity:1;stop-color:#fbd014"></stop><stop offset=".826" style="stop-opacity:1;stop-color:#d5aa13"></stop><stop offset="1" style="stop-opacity:1;stop-color:#d5aa13"></stop></linearGradient><linearGradient id="B" x1="0" x2="1" y1="0" y2="0" gradientTransform="matrix(120.5606 0 0 -120.5606 418.35 314.412)" gradientUnits="userSpaceOnUse" spreadMethod="pad"><stop offset="0" style="stop-opacity:1;stop-color:#fef01b"></stop><stop offset=".006" style="stop-opacity:1;stop-color:#fef01b"></stop><stop offset=".258" style="stop-opacity:1;stop-color:#fef01b"></stop><stop offset=".539" style="stop-opacity:1;stop-color:#fbd014"></stop><stop offset=".826" style="stop-opacity:1;stop-color:#d5aa13"></stop><stop offset="1" style="stop-opacity:1;stop-color:#d5aa13"></stop></linearGradient><linearGradient id="C" x1="0" x2="1" y1="0" y2="0" gradientTransform="matrix(16.5098 0 0 -16.5098 518.361 337.425)" gradientUnits="userSpaceOnUse" spreadMethod="pad"><stop offset="0" style="stop-opacity:1;stop-color:#fef01b"></stop><stop offset=".006" style="stop-opacity:1;stop-color:#fef01b"></stop><stop offset=".258" style="stop-opacity:1;stop-color:#fef01b"></stop><stop offset=".539" style="stop-opacity:1;stop-color:#fbd014"></stop><stop offset=".826" style="stop-opacity:1;stop-color:#d5aa13"></stop><stop offset="1" style="stop-opacity:1;stop-color:#d5aa13"></stop></linearGradient><linearGradient id="D" x1="0" x2="1" y1="0" y2="0" gradientTransform="matrix(107.34046 0 0 -107.34046 418.35 360.41)" gradientUnits="userSpaceOnUse" spreadMethod="pad"><stop offset="0" style="stop-opacity:1;stop-color:#fef01b"></stop><stop offset=".006" style="stop-opacity:1;stop-color:#fef01b"></stop><stop offset=".258" style="stop-opacity:1;stop-color:#fef01b"></stop><stop offset=".539" style="stop-opacity:1;stop-color:#fbd014"></stop><stop offset=".826" style="stop-opacity:1;stop-color:#d5aa13"></stop><stop offset="1" style="stop-opacity:1;stop-color:#d5aa13"></stop></linearGradient><linearGradient id="E" x1="0" x2="1" y1="0" y2="0" gradientTransform="matrix(103.3145 0 0 -103.3145 418.35 374.756)" gradientUnits="userSpaceOnUse" spreadMethod="pad"><stop offset="0" style="stop-opacity:1;stop-color:#fef01b"></stop><stop offset=".006" style="stop-opacity:1;stop-color:#fef01b"></stop><stop offset=".258" style="stop-opacity:1;stop-color:#fef01b"></stop><stop offset=".539" style="stop-opacity:1;stop-color:#fbd014"></stop><stop offset=".826" style="stop-opacity:1;stop-color:#d5aa13"></stop><stop offset="1" style="stop-opacity:1;stop-color:#d5aa13"></stop></linearGradient><linearGradient id="F" x1="0" x2="1" y1="0" y2="0" gradientTransform="matrix(90.72012 0 0 -90.72012 418.35 388.565)" gradientUnits="userSpaceOnUse" spreadMethod="pad"><stop offset="0" style="stop-opacity:1;stop-color:#fef01b"></stop><stop offset=".006" style="stop-opacity:1;stop-color:#fef01b"></stop><stop offset=".258" style="stop-opacity:1;stop-color:#fef01b"></stop><stop offset=".539" style="stop-opacity:1;stop-color:#fbd014"></stop><stop offset=".826" style="stop-opacity:1;stop-color:#d5aa13"></stop><stop offset="1" style="stop-opacity:1;stop-color:#d5aa13"></stop></linearGradient><linearGradient id="G" x1="0" x2="1" y1="0" y2="0" gradientTransform="matrix(81.04 0 0 -81.04 418.35 414.43)" gradientUnits="userSpaceOnUse" spreadMethod="pad"><stop offset="0" style="stop-opacity:1;stop-color:#fef01b"></stop><stop offset=".006" style="stop-opacity:1;stop-color:#fef01b"></stop><stop offset=".258" style="stop-opacity:1;stop-color:#fef01b"></stop><stop offset=".539" style="stop-opacity:1;stop-color:#fbd014"></stop><stop offset=".826" style="stop-opacity:1;stop-color:#d5aa13"></stop><stop offset="1" style="stop-opacity:1;stop-color:#d5aa13"></stop></linearGradient><linearGradient id="H" x1="0" x2="1" y1="0" y2="0" gradientTransform="matrix(61.6279 0 0 -61.6279 320.034 421.004)" gradientUnits="userSpaceOnUse" spreadMethod="pad"><stop offset="0" style="stop-opacity:1;stop-color:#fef01b"></stop><stop offset=".006" style="stop-opacity:1;stop-color:#fef01b"></stop><stop offset=".258" style="stop-opacity:1;stop-color:#fef01b"></stop><stop offset=".539" style="stop-opacity:1;stop-color:#fbd014"></stop><stop offset=".826" style="stop-opacity:1;stop-color:#d5aa13"></stop><stop offset="1" style="stop-opacity:1;stop-color:#d5aa13"></stop></linearGradient><linearGradient id="I" x1="0" x2="1" y1="0" y2="0" gradientTransform="matrix(41.5537 0 0 -41.5537 340.108 388.565)" gradientUnits="userSpaceOnUse" spreadMethod="pad"><stop offset="0" style="stop-opacity:1;stop-color:#fef01b"></stop><stop offset=".006" style="stop-opacity:1;stop-color:#fef01b"></stop><stop offset=".258" style="stop-opacity:1;stop-color:#fef01b"></stop><stop offset=".539" style="stop-opacity:1;stop-color:#fbd014"></stop><stop offset=".826" style="stop-opacity:1;stop-color:#d5aa13"></stop><stop offset="1" style="stop-opacity:1;stop-color:#d5aa13"></stop></linearGradient><linearGradient id="J" x1="0" x2="1" y1="0" y2="0" gradientTransform="matrix(33.6777 0 0 -33.6777 347.984 374.484)" gradientUnits="userSpaceOnUse" spreadMethod="pad"><stop offset="0" style="stop-opacity:1;stop-color:#fef01b"></stop><stop offset=".006" style="stop-opacity:1;stop-color:#fef01b"></stop><stop offset=".258" style="stop-opacity:1;stop-color:#fef01b"></stop><stop offset=".539" style="stop-opacity:1;stop-color:#fbd014"></stop><stop offset=".826" style="stop-opacity:1;stop-color:#d5aa13"></stop><stop offset="1" style="stop-opacity:1;stop-color:#d5aa13"></stop></linearGradient><linearGradient id="K" x1="0" x2="1" y1="0" y2="0" gradientTransform="matrix(12.3916 0 0 -12.3916 369.27 360.41)" gradientUnits="userSpaceOnUse" spreadMethod="pad"><stop offset="0" style="stop-opacity:1;stop-color:#fef01b"></stop><stop offset=".006" style="stop-opacity:1;stop-color:#fef01b"></stop><stop offset=".258" style="stop-opacity:1;stop-color:#fef01b"></stop><stop offset=".539" style="stop-opacity:1;stop-color:#fbd014"></stop><stop offset=".826" style="stop-opacity:1;stop-color:#d5aa13"></stop><stop offset="1" style="stop-opacity:1;stop-color:#d5aa13"></stop></linearGradient><linearGradient id="L" x1="0" x2="1" y1="0" y2="0" gradientTransform="matrix(4.4917 0 0 -4.4917 377.17 353.313)" gradientUnits="userSpaceOnUse" spreadMethod="pad"><stop offset="0" style="stop-opacity:1;stop-color:#fef01b"></stop><stop offset=".006" style="stop-opacity:1;stop-color:#fef01b"></stop><stop offset=".258" style="stop-opacity:1;stop-color:#fef01b"></stop><stop offset=".539" style="stop-opacity:1;stop-color:#fbd014"></stop><stop offset=".826" style="stop-opacity:1;stop-color:#d5aa13"></stop><stop offset="1" style="stop-opacity:1;stop-color:#d5aa13"></stop></linearGradient><linearGradient id="M" x1="0" x2="1" y1="0" y2="0" gradientTransform="matrix(5.3819 0 0 -5.3819 383.881 391.558)" gradientUnits="userSpaceOnUse" spreadMethod="pad"><stop offset="0" style="stop-opacity:1;stop-color:#fef01b"></stop><stop offset=".006" style="stop-opacity:1;stop-color:#fef01b"></stop><stop offset=".258" style="stop-opacity:1;stop-color:#fef01b"></stop><stop offset=".539" style="stop-opacity:1;stop-color:#fbd014"></stop><stop offset=".826" style="stop-opacity:1;stop-color:#d5aa13"></stop><stop offset="1" style="stop-opacity:1;stop-color:#d5aa13"></stop></linearGradient><linearGradient id="N" x1="0" x2="1" y1="0" y2="0" gradientTransform="scale(-96.70902 96.70902)rotate(50 -6.103 -3.028)" gradientUnits="userSpaceOnUse" spreadMethod="pad"><stop offset="0" style="stop-opacity:1;stop-color:#fef01b"></stop><stop offset=".006" style="stop-opacity:1;stop-color:#fef01b"></stop><stop offset=".258" style="stop-opacity:1;stop-color:#fef01b"></stop><stop offset=".539" style="stop-opacity:1;stop-color:#fbd014"></stop><stop offset=".826" style="stop-opacity:1;stop-color:#d5aa13"></stop><stop offset="1" style="stop-opacity:1;stop-color:#d5aa13"></stop></linearGradient><linearGradient id="O" x1="0" x2="1" y1="0" y2="0" gradientTransform="matrix(5.36429 0 0 -5.36429 410.748 378.598)" gradientUnits="userSpaceOnUse" spreadMethod="pad"><stop offset="0" style="stop-opacity:1;stop-color:#fef01b"></stop><stop offset=".006" style="stop-opacity:1;stop-color:#fef01b"></stop><stop offset=".258" style="stop-opacity:1;stop-color:#fef01b"></stop><stop offset=".539" style="stop-opacity:1;stop-color:#fbd014"></stop><stop offset=".826" style="stop-opacity:1;stop-color:#d5aa13"></stop><stop offset="1" style="stop-opacity:1;stop-color:#d5aa13"></stop></linearGradient><linearGradient id="P" x1="0" x2="1" y1="0" y2="0" gradientTransform="matrix(0 18.3164 18.3164 0 433.394 218.61)" gradientUnits="userSpaceOnUse" spreadMethod="pad"><stop offset="0" style="stop-opacity:1;stop-color:#fbd014"></stop><stop offset=".006" style="stop-opacity:1;stop-color:#fbd014"></stop><stop offset=".826" style="stop-opacity:1;stop-color:#d5aa13"></stop><stop offset="1" style="stop-opacity:1;stop-color:#d5aa13"></stop></linearGradient><linearGradient id="ab" x1="0" x2="1" y1="0" y2="0" gradientTransform="matrix(0 108.22771 108.22771 0 400 252.21)" gradientUnits="userSpaceOnUse" spreadMethod="pad"><stop offset="0" style="stop-opacity:1;stop-color:#88c6da"></stop><stop offset=".085" style="stop-opacity:1;stop-color:#88c6da"></stop><stop offset=".202" style="stop-opacity:1;stop-color:#22a3c4"></stop><stop offset="1" style="stop-opacity:1;stop-color:#183188"></stop></linearGradient><radialGradient id="Q" cx="0" cy="0" r="1" fx="0" fy="0" gradientTransform="matrix(141.45468 0 0 -141.45468 400 300)" gradientUnits="userSpaceOnUse" spreadMethod="pad"><stop offset="0" style="stop-opacity:1;stop-color:#cf0d00"></stop><stop offset=".68" style="stop-opacity:1;stop-color:#cf0d00"></stop><stop offset=".949" style="stop-opacity:1;stop-color:#560704"></stop><stop offset="1" style="stop-opacity:1;stop-color:#560704"></stop></radialGradient><radialGradient id="R" cx="0" cy="0" r="1" fx="0" fy="0" gradientTransform="matrix(141.45407 0 0 -141.45407 400 300)" gradientUnits="userSpaceOnUse" spreadMethod="pad"><stop offset="0" style="stop-opacity:1;stop-color:#cf0d00"></stop><stop offset=".68" style="stop-opacity:1;stop-color:#cf0d00"></stop><stop offset=".949" style="stop-opacity:1;stop-color:#560704"></stop><stop offset="1" style="stop-opacity:1;stop-color:#560704"></stop></radialGradient><radialGradient id="S" cx="0" cy="0" r="1" fx="0" fy="0" gradientTransform="matrix(141.45496 0 0 -141.45496 400 300)" gradientUnits="userSpaceOnUse" spreadMethod="pad"><stop offset="0" style="stop-opacity:1;stop-color:#cf0d00"></stop><stop offset=".68" style="stop-opacity:1;stop-color:#cf0d00"></stop><stop offset=".949" style="stop-opacity:1;stop-color:#560704"></stop><stop offset="1" style="stop-opacity:1;stop-color:#560704"></stop></radialGradient><radialGradient id="T" cx="0" cy="0" r="1" fx="0" fy="0" gradientTransform="matrix(141.45073 0 0 -141.45073 400 299.998)" gradientUnits="userSpaceOnUse" spreadMethod="pad"><stop offset="0" style="stop-opacity:1;stop-color:#cf0d00"></stop><stop offset=".68" style="stop-opacity:1;stop-color:#cf0d00"></stop><stop offset=".949" style="stop-opacity:1;stop-color:#560704"></stop><stop offset="1" style="stop-opacity:1;stop-color:#560704"></stop></radialGradient><radialGradient id="U" cx="0" cy="0" r="1" fx="0" fy="0" gradientTransform="matrix(141.45142 0 0 -141.45142 400 299.998)" gradientUnits="userSpaceOnUse" spreadMethod="pad"><stop offset="0" style="stop-opacity:1;stop-color:#cf0d00"></stop><stop offset=".68" style="stop-opacity:1;stop-color:#cf0d00"></stop><stop offset=".949" style="stop-opacity:1;stop-color:#560704"></stop><stop offset="1" style="stop-opacity:1;stop-color:#560704"></stop></radialGradient><radialGradient id="V" cx="0" cy="0" r="1" fx="0" fy="0" gradientTransform="matrix(141.55031 0 0 -141.55031 400.015 300.046)" gradientUnits="userSpaceOnUse" spreadMethod="pad"><stop offset="0" style="stop-opacity:1;stop-color:#cf0d00"></stop><stop offset=".68" style="stop-opacity:1;stop-color:#cf0d00"></stop><stop offset=".949" style="stop-opacity:1;stop-color:#560704"></stop><stop offset="1" style="stop-opacity:1;stop-color:#560704"></stop></radialGradient><radialGradient id="W" cx="0" cy="0" r="1" fx="0" fy="0" gradientTransform="matrix(141.45489 0 0 -141.45489 400 300)" gradientUnits="userSpaceOnUse" spreadMethod="pad"><stop offset="0" style="stop-opacity:1;stop-color:#cf0d00"></stop><stop offset=".68" style="stop-opacity:1;stop-color:#cf0d00"></stop><stop offset=".949" style="stop-opacity:1;stop-color:#560704"></stop><stop offset="1" style="stop-opacity:1;stop-color:#560704"></stop></radialGradient><radialGradient id="X" cx="0" cy="0" r="1" fx="0" fy="0" gradientTransform="matrix(141.45226 0 0 -141.45226 400.001 300.002)" gradientUnits="userSpaceOnUse" spreadMethod="pad"><stop offset="0" style="stop-opacity:1;stop-color:#cf0d00"></stop><stop offset=".68" style="stop-opacity:1;stop-color:#cf0d00"></stop><stop offset=".949" style="stop-opacity:1;stop-color:#560704"></stop><stop offset="1" style="stop-opacity:1;stop-color:#560704"></stop></radialGradient><radialGradient id="Y" cx="0" cy="0" r="1" fx="0" fy="0" gradientTransform="matrix(141.45209 0 0 -141.45209 400 300.002)" gradientUnits="userSpaceOnUse" spreadMethod="pad"><stop offset="0" style="stop-opacity:1;stop-color:#cf0d00"></stop><stop offset=".68" style="stop-opacity:1;stop-color:#cf0d00"></stop><stop offset=".949" style="stop-opacity:1;stop-color:#560704"></stop><stop offset="1" style="stop-opacity:1;stop-color:#560704"></stop></radialGradient><radialGradient id="Z" cx="0" cy="0" r="1" fx="0" fy="0" gradientTransform="matrix(141.4808 0 0 -141.4808 400 299.989)" gradientUnits="userSpaceOnUse" spreadMethod="pad"><stop offset="0" style="stop-opacity:1;stop-color:#cf0d00"></stop><stop offset=".68" style="stop-opacity:1;stop-color:#cf0d00"></stop><stop offset=".949" style="stop-opacity:1;stop-color:#560704"></stop><stop offset="1" style="stop-opacity:1;stop-color:#560704"></stop></radialGradient><clipPath id="a" clipPathUnits="userSpaceOnUse"><path d="M0 600h800V0H0Z"></path></clipPath><clipPath id="aa" clipPathUnits="userSpaceOnUse"><path d="M0 600h800V0H0Z"></path></clipPath><clipPath id="ac" clipPathUnits="userSpaceOnUse"><path d="M0 600h800V0H0Z"></path></clipPath></defs><g clip-path="url(#a)" transform="matrix(1.33333 0 0 -1.33333 0 800)"><path d="M0 0c.562 2.226 2.418 3.946 4.755 3.946 1.728 0 3.185-.924 4.058-2.295a15 15 0 0 0 8.31 2.495h2.119a15 15 0 0 0 8.317-2.495c.877 1.371 2.336 2.295 4.063 2.295 2.355 0 4.198-1.72 4.755-3.946 33.244-4.351 62.752-20.508 84.23-44.124h.827c5.78 0 8.661-4.598 7.83-7.502 6.084-4.485 11.195-13.375 12.917-21.022 3.654-1.453 5.125-6.7 2.671-8.703a137.7 137.7 0 0 0 10.447-36.962c2.711-.275 4.029-2.518 4.029-4.896 0-1.487-.517-2.934-1.588-3.864 1.071-2.091 1.588-5.107 1.588-9.733 0-4.31-.247-7.214-1.471-9.486.985-.926 1.471-2.331 1.471-3.771 0-2.332-1.26-4.534-3.878-4.872a137.7 137.7 0 0 0-10.142-37.057c1.786-2.295.584-7.425-3.589-8.503-1.043-2.658-2.676-6.09-5.031-10.248-1.024-1.85-2.441-3.958-4.028-6.025a3.96 3.96 0 0 0-1.137-2.606l-1.376-1.417c-.527-.562-1.195-.926-1.897-1.13a44 44 0 0 0-1.915-1.856c-1.089-3.152-3.655-6.951-8.415-11.689-4.649-4.685-8.297-7.168-11.296-8.205l-1.241-.989c-.112-.92-.569-1.779-1.312-2.553l-2.196-1.611c-.797-.755-1.744-.855-2.682-.585a137.7 137.7 0 0 0-62.816-25.005c-.557-2.208-2.4-3.912-4.755-3.912-1.481 0-2.753.662-3.655 1.727a14.95 14.95 0 0 0-8.725-2.787h-2.119c-3.245 0-6.26 1.032-8.726 2.787-.884-1.065-2.155-1.727-3.642-1.727-2.337 0-4.193 1.704-4.755 3.912-33.894 4.468-63.906 21.17-85.491 45.547h-.655c-5.903 0-8.779 4.803-7.765 7.689-5.236 5.259-10.382 13.96-12.391 20.655-4.275 1.13-5.979 7.29-2.882 9.14a138.3 138.3 0 0 0-9.908 36.576c-2.179.562-3.865 2.418-3.865 4.744 0 1.405.621 2.64 1.587 3.512-1.06 2.085-1.587 5.095-1.587 9.745 0 4.626.292 7.613 1.751 9.932-1.054.89-1.751 2.189-1.751 3.665 0 2.378 1.774 4.252 4.011 4.778a137.8 137.8 0 0 0 10.219 36.477c-3.578 1.307-2.553 8.913 3.098 9.615a54 54 0 0 0 5.838 10.922c.562.796 1.107 1.593 1.681 2.331a4.16 4.16 0 0 0 1.03 3.882l1.06 1.071c.54.557 1.189.938 1.886 1.137-.052 3.77 2.343 8.573 9.006 15.249 5.944 5.937 10.237 8.373 13.674 8.666.421 1.236 1.412 2.401 2.372 3.385a4.14 4.14 0 0 0 5.668.293C-45.161-12.058-23.5-3.069 0 0" style="fill:#000;fill-opacity:1;fill-rule:nonzero;stroke:none" transform="translate(381.815 437.62)"></path></g><path d="M314.33 410.378c-.947-.99-2.934-2.576-1.323-4.123l194.644-187.933a1.9 1.9 0 0 1 2.695.047l1.388 1.434c.737.75.702 1.973-.049 2.695L317.036 410.425a1.91 1.91 0 0 1-2.706-.047" style="fill:url(#b);stroke:none" transform="matrix(1.33333 0 0 -1.33333 0 800)"></path><path d="M536.539 309.498H424.803l17.62-17.011h94.116c.398 0 .774-.058 1.096-.124.766 1.635 1.275 4.164 1.275 8.451 0 2.911 0 6.249-1.405 8.748-.304-.058-.62-.064-.966-.064" style="fill:url(#c);stroke:none" transform="matrix(1.33333 0 0 -1.33333 0 800)"></path><path d="m444.712 290.238 5.605-5.363h86.222c1.534 0 2.371 1.019 2.371 2.681 0 1.675-.837 2.682-2.371 2.682z" style="fill:url(#d);stroke:none" transform="matrix(1.33333 0 0 -1.33333 0 800)"></path><path d="m492.07 244.561 5.586-5.409h24.243c4.192 0 4.579 5.409 2.799 5.409z" style="fill:url(#e);stroke:none" transform="matrix(1.33333 0 0 -1.33333 0 800)"></path><path d="m499.963 236.926 13.281-12.819c.175-.193.317-.368.463-.533 3.015 4.205 5.697 8.995 7.447 13.352z" style="fill:url(#f);stroke:none" transform="matrix(1.33333 0 0 -1.33333 0 800)"></path><path d="M264.163 290.238c-1.785 0-3.074-1.282-3.074-2.682 0-1.388 1.289-2.681 3.074-2.681h115.655l-5.581 5.363z" style="fill:url(#g);stroke:none" transform="matrix(1.33333 0 0 -1.33333 0 800)"></path><path d="M261.089 300.814c0-2.869.012-6.113 1.335-8.602.544.17 1.142.275 1.739.275H371.93l-17.627 17.011h-90.14c-.545 0-1.06.064-1.546.217-.919-1.604-1.528-4.193-1.528-8.901" style="fill:url(#h);stroke:none" transform="matrix(1.33333 0 0 -1.33333 0 800)"></path><path d="M264.163 317.105c-1.785 0-3.074-1.3-3.074-2.694 0-1.387 1.289-2.693 3.074-2.693h87.827l-5.575 5.387z" style="fill:url(#i);stroke:none" transform="matrix(1.33333 0 0 -1.33333 0 800)"></path><path d="M275.448 355.474a135 135 0 0 1-10.307-36.132h5.716c1.856 12.754 5.527 24.887 10.792 36.132z" style="fill:url(#j);stroke:none" transform="matrix(1.33333 0 0 -1.33333 0 800)"></path><path d="M277.034 363.103c-4.186 0-4.603-5.387-2.827-5.387h30.145l-5.593 5.387z" style="fill:url(#k);stroke:none" transform="matrix(1.33333 0 0 -1.33333 0 800)"></path><path d="M278.622 365.316h17.836l-11.612 11.227c-2.406-3.572-4.55-7.286-6.224-11.227" style="fill:url(#l);stroke:none" transform="matrix(1.33333 0 0 -1.33333 0 800)"></path><path d="M298.262 398.291c-6.36-6.358-8.421-10.576-8.333-13.702a4.04 4.04 0 0 0 1.71-.984L486.02 195.881l.164-.157c2.823.351 6.523 2.53 11.98 7.981 5.711 5.721 7.947 9.699 8.281 12.714-.117.094-.228.176-.345.304L311.449 404.652c-.567.55-.918 1.1-1.124 1.645-2.805-.317-6.54-2.49-12.063-8.006" style="fill:url(#m);stroke:none" transform="matrix(1.33333 0 0 -1.33333 0 800)"></path><path d="m287.382 381.947-1.019-1.095c-.749-.749-.726-1.956.017-2.704l192.987-186.289c.434-.433 2.202-2.02 2.87-1.358l2.179 1.591c.755.821.707 1.559.046 2.203L290.093 381.982a1.9 1.9 0 0 1-1.332.543c-.5 0-1.001-.193-1.379-.578" style="fill:url(#n);stroke:none" transform="matrix(1.33333 0 0 -1.33333 0 800)"></path><path d="M529.294 282.626a129.6 129.6 0 0 0-10.299-35.851h5.703c.165 0 .334-.023.468-.04a135.7 135.7 0 0 1 9.855 35.891z" style="fill:url(#o);stroke:none" transform="matrix(1.33333 0 0 -1.33333 0 800)"></path><path d="M265.007 282.626a135.7 135.7 0 0 1 9.813-35.851h6.202a129.3 129.3 0 0 0-10.307 35.851z" style="fill:url(#p);stroke:none" transform="matrix(1.33333 0 0 -1.33333 0 800)"></path><path d="M391.499 164.582c0-.539-.086-1.059-.215-1.575a12.8 12.8 0 0 1 7.653-2.547h2.119c2.876 0 5.546.959 7.673 2.547a5.7 5.7 0 0 0-.212 1.575v92.559l-17.018 16.454z" style="fill:url(#q);stroke:none" transform="matrix(1.33333 0 0 -1.33333 0 800)"></path><path d="M383.882 164.582c0-1.803 1.295-3.086 2.687-3.086 1.388 0 2.694 1.283 2.694 3.086v111.146l-5.381 5.204z" style="fill:url(#r);stroke:none" transform="matrix(1.33333 0 0 -1.33333 0 800)"></path><path d="M274.767 244.561c-3.114 0-1.041-5.409 2.132-5.409h104.763v5.409z" style="fill:url(#s);stroke:none" transform="matrix(1.33333 0 0 -1.33333 0 800)"></path><path d="M277.96 236.926c1.838-5.621 6.347-13.761 11.367-18.809.561.305 1.269.492 2.124.492h90.211v18.317z" style="fill:url(#t);stroke:none" transform="matrix(1.33333 0 0 -1.33333 0 800)"></path><path d="M291.451 216.371c-3.565 0-.756-5.375 4.217-5.375h85.994v5.375z" style="fill:url(#u);stroke:none" transform="matrix(1.33333 0 0 -1.33333 0 800)"></path><path d="M299.327 208.753c21.012-23.06 49.864-38.877 82.335-43.268v5.703c-28.999 4.112-54.934 17.714-74.54 37.565z" style="fill:url(#v);stroke:none" transform="matrix(1.33333 0 0 -1.33333 0 800)"></path><path d="M418.35 171.188v-5.703a135.5 135.5 0 0 1 60.479 23.903 9 9 0 0 0-1.018.854l-3.206 3.082c-16.402-11.427-35.537-19.209-56.255-22.136" style="fill:url(#w);stroke:none" transform="matrix(1.33333 0 0 -1.33333 0 800)"></path><path d="M418.35 216.371v-5.375h37.98l-5.569 5.375z" style="fill:url(#x);stroke:none" transform="matrix(1.33333 0 0 -1.33333 0 800)"></path><path d="M418.35 244.561v-5.409h8.806l-5.568 5.409z" style="fill:url(#y);stroke:none" transform="matrix(1.33333 0 0 -1.33333 0 800)"></path><path d="M418.35 246.775h.912l-.912.891z" style="fill:url(#z);stroke:none" transform="matrix(1.33333 0 0 -1.33333 0 800)"></path><path d="M410.748 164.582c0-1.803 1.305-3.086 2.689-3.086 1.387 0 2.675 1.283 2.675 3.086v85.222l-5.364 5.206z" style="fill:url(#A);stroke:none" transform="matrix(1.33333 0 0 -1.33333 0 800)"></path><path d="M418.35 317.105v-1.399l4.132-3.988h114.057c1.534 0 2.371 1.031 2.371 2.693 0 1.681-.837 2.694-2.371 2.694z" style="fill:url(#B);stroke:none" transform="matrix(1.33333 0 0 -1.33333 0 800)" data-source="https://football-logos.cc"></path><path d="M524.143 355.474h-5.782a129 129 0 0 0 10.776-36.132h5.734a136.3 136.3 0 0 1-10.302 36.167c-.134-.035-.282-.035-.426-.035" style="fill:url(#C);stroke:none" transform="matrix(1.33333 0 0 -1.33333 0 800)"></path><path d="M418.35 363.103v-5.387h105.793c3.126 0 1.053 5.387-2.133 5.387z" style="fill:url(#D);stroke:none" transform="matrix(1.33333 0 0 -1.33333 0 800)"></path><path d="M507.465 383.652H418.35v-18.336h103.314c-1.779 6.787-6.405 14.81-11.962 18.881-.586-.357-1.314-.545-2.237-.545" style="fill:url(#E);stroke:none" transform="matrix(1.33333 0 0 -1.33333 0 800)"></path><path d="M418.35 391.253v-5.376h89.115c3.567 0 .76 5.376-4.217 5.376z" style="fill:url(#F);stroke:none" transform="matrix(1.33333 0 0 -1.33333 0 800)"></path><path d="M418.35 429.644c28.306-3.982 53.687-17.041 73.139-36.148h7.9c-20.91 22.322-49.231 37.577-81.039 41.869z" style="fill:url(#G);stroke:none" transform="matrix(1.33333 0 0 -1.33333 0 800)"></path><path d="m320.035 410.636 4.14-3.994c16.66 11.928 36.248 20.027 57.487 23.002v5.721c-22.837-3.074-43.849-11.812-61.627-24.729" style="fill:url(#H);stroke:none" transform="matrix(1.33333 0 0 -1.33333 0 800)"></path><path d="m340.108 391.253 5.576-5.376h35.978v5.376z" style="fill:url(#I);stroke:none" transform="matrix(1.33333 0 0 -1.33333 0 800)"></path><path d="m347.984 383.652 18.968-18.336h14.71v18.336z" style="fill:url(#J);stroke:none" transform="matrix(1.33333 0 0 -1.33333 0 800)"></path><path d="m369.271 363.103 5.587-5.387h6.804v5.387z" style="fill:url(#K);stroke:none" transform="matrix(1.33333 0 0 -1.33333 0 800)"></path><path d="m377.17 355.474 4.492-4.323v4.323z" style="fill:url(#L);stroke:none" transform="matrix(1.33333 0 0 -1.33333 0 800)"></path><path d="M383.882 436.285v-87.288l5.381-5.211v92.499c0 1.798-1.306 3.046-2.694 3.046-1.392 0-2.687-1.248-2.687-3.046" style="fill:url(#M);stroke:none" transform="matrix(1.33333 0 0 -1.33333 0 800)"></path><path d="M398.937 439.529c-2.798 0-5.399-.902-7.507-2.401.047-.293.069-.561.069-.843v-94.644l17.018-16.42v111.064c0 .282.018.55.065.843a13 13 0 0 1-7.526 2.401z" style="fill:url(#N);stroke:none" transform="matrix(1.33333 0 0 -1.33333 0 800)"></path><path d="M410.748 436.285v-113.23l5.364-5.189v118.419c0 1.798-1.288 3.046-2.675 3.046-1.384 0-2.689-1.248-2.689-3.046" style="fill:url(#O);stroke:none" transform="matrix(1.33333 0 0 -1.33333 0 800)"></path><path d="M418.35 236.926v-18.317h30.088l-18.974 18.317z" style="fill:url(#P);stroke:none" transform="matrix(1.33333 0 0 -1.33333 0 800)"></path><path d="m452.624 282.626 37.138-35.851h26.773a127.7 127.7 0 0 1 10.518 35.851z" style="fill:url(#Q);stroke:none" transform="matrix(1.33333 0 0 -1.33333 0 800)"></path><path d="M284.115 355.474a128 128 0 0 1-11.004-36.132h70.997l-37.443 36.132z" style="fill:url(#R);stroke:none" transform="matrix(1.33333 0 0 -1.33333 0 800)"></path><path d="M272.959 282.626c1.762-12.637 5.346-24.677 10.518-35.851h98.185v35.851z" style="fill:url(#S);stroke:none" transform="matrix(1.33333 0 0 -1.33333 0 800)"></path><path d="M310.296 208.753c18.997-18.615 43.756-31.334 71.366-35.293v35.293z" style="fill:url(#T);stroke:none" transform="matrix(1.33333 0 0 -1.33333 0 800)"></path><path d="M418.35 208.753V173.46c20.102 2.869 38.666 10.412 54.623 21.456l-14.341 13.837z" style="fill:url(#U);stroke:none" transform="matrix(1.33333 0 0 -1.33333 0 800)"></path><path d="M418.35 246.775h.912l-.912.891z" style="fill:url(#V);stroke:none" transform="matrix(1.33333 0 0 -1.33333 0 800)"></path><path d="M418.35 355.474v-36.132h108.527a127.7 127.7 0 0 1-10.981 36.132z" style="fill:url(#W);stroke:none" transform="matrix(1.33333 0 0 -1.33333 0 800)"></path><path d="M418.35 393.496h69.907c-18.786 17.831-42.995 30.04-69.907 33.9z" style="fill:url(#X);stroke:none" transform="matrix(1.33333 0 0 -1.33333 0 800)"></path><path d="m325.803 405.06 11.987-11.564h43.872v33.9c-20.619-2.952-39.627-10.811-55.859-22.336" style="fill:url(#Y);stroke:none" transform="matrix(1.33333 0 0 -1.33333 0 800)"></path><path d="m377.17 355.474 4.492-4.323v4.323z" style="fill:url(#Z);stroke:none" transform="matrix(1.33333 0 0 -1.33333 0 800)"></path><g clip-path="url(#aa)" transform="matrix(1.33333 0 0 -1.33333 0 800)"><path d="M0 0c14.44-27.207 41.71-42.701 72.417-42.701 5.681 0 10.74.551 16.328 1.534.667-6.29 1.047-12.484 1.047-18.815 0-59.004-32.411-118.131-89.792-139.728-57.381 21.597-89.791 80.724-89.791 139.728 0 6.331.379 12.525 1.047 18.815 5.587-.983 10.646-1.534 16.327-1.534C-41.708-42.701-14.44-27.207 0 0" style="fill:#000;fill-opacity:1;fill-rule:nonzero;stroke:none" transform="translate(400 411.233)"></path><path d="M0 0c-14.974-25.46-41.771-40.545-72.417-40.545-4.74 0-9.292.374-14.502 1.2-.549-5.745-.817-11.138-.817-16.426 0-29.191 8.195-58.603 23.074-82.815C-48.917-164.208-26.571-183.112 0-193.3c26.571 10.188 48.918 29.092 64.663 54.714 14.879 24.212 23.074 53.624 23.074 82.815 0 5.288-.268 10.68-.817 16.426-5.21-.826-9.762-1.2-14.503-1.2C41.772-40.545 14.973-25.46 0 0" style="fill:#fff;fill-opacity:1;fill-rule:nonzero;stroke:none" transform="translate(400 407.022)"></path><path d="M0 0c0 1.317-1.06 2.407-2.371 2.407-1.324 0-2.39-1.09-2.39-2.407 0-1.306 1.066-2.36 2.39-2.36A2.363 2.363 0 0 1 0 0" style="fill:#000;fill-opacity:1;fill-rule:nonzero;stroke:none" transform="translate(453.824 275.733)"></path><path d="M0 0a5.04 5.04 0 0 0-2.301-1.194l-12 13.791c.27.62.628 1.153 1.13 1.633 2.658 2.513 7.795 1.359 11.432-2.565C1.897 7.742 2.676 2.519 0 0m-14.178 15.354c-3.102-2.916-2.202-8.929 2.015-13.467C-7.917-2.635-1.979-3.982 1.124-1.065 4.228 1.827 3.319 7.847-.907 12.392c-4.229 4.52-10.161 5.844-13.271 2.962" style="fill:#000;fill-opacity:1;fill-rule:nonzero;stroke:none" transform="translate(426.735 238.8)"></path><path d="M0 0a5.3 5.3 0 0 0-1.775-1.779l-8.532 8.455C-8.586 9.2-4.996 9.838-2.18 8.093.703 6.278 1.691 2.647 0 0m1.558 5.937C-.24 9.955-4.855 11.829-8.778 10.072c-.896-.41-1.71-.943-2.361-1.628l-3.443-4.052L1.615-11.595l3.133 3.578-5.076 4.744 1.657 1.932L9.334-3.35l1.2 1.511L1.839.012a8.17 8.17 0 0 1-.281 5.925" style="fill:#000;fill-opacity:1;fill-rule:nonzero;stroke:none" transform="translate(435.367 255.993)"></path><path d="M0 0c.592-1.464.668-2.975.153-4.315a5.1 5.1 0 0 0-1.622-2.186c-6.927 1.922-12.619 4.568-17.063 7.883-.019.715.075 1.418.339 2.091.468 1.235 1.386 2.172 2.564 2.804l-.932.973c-1.462-.738-2.582-1.851-3.149-3.326-1.634-4.181 1.81-9.598 7.671-12.064C-6.166-10.599-.08-9.205 1.523-5.019c.639 1.593.51 3.345-.158 5.048z" style="fill:#000;fill-opacity:1;fill-rule:nonzero;stroke:none" transform="translate(466.08 290.25)"></path><path d="M0 0c-.252 0-.51.007-.738.007l.252 12.543.486.012c3.871 0 7.016-2.811 7.016-6.278C7.016 2.8 3.871 0 0 0m-.375 14.307h-4.673L-5.78-9.387l4.802-1.779.182 9.334.421-.135c5.095 0 9.212 3.643 9.212 8.146 0 4.509-4.117 8.128-9.212 8.128" style="fill:#000;fill-opacity:1;fill-rule:nonzero;stroke:none" transform="translate(399.575 233.207)"></path><path d="m0 0 11.905-7.999-13.972-1.37-1.845-5.183 24.419 2.641L.585 1.669z" style="fill:#000;fill-opacity:1;fill-rule:nonzero;stroke:none" transform="translate(456.653 322.762)"></path><path d="m0 0-10.399.896c0 3.204 2.347 5.774 5.228 5.774C-2.277 6.67.048 4.1.048.896.048.597.048.305 0 0m-12.579.913-6.295.481a3.46 3.46 0 0 0-.404 1.663c0 1.991 1.652 3.613 3.707 3.613 2.05 0 3.713-1.622 3.713-3.613 0-.803-.264-1.546-.721-2.144m14.401 1.02c0 3.811-3.11 6.869-6.928 6.869-2.301 0-4.329-1.078-5.586-2.787-1.067 1.515-2.683 2.523-4.498 2.523-3.168 0-5.733-3.027-5.733-6.734l-.006-.293-.427-4.609L1.136-4.661l.697 5.973z" style="fill:#000;fill-opacity:1;fill-rule:nonzero;stroke:none" transform="translate(479.058 330.27)"></path><path d="m0 0-20.431 5.387-1.487-4.005L.375-5.552 4.076 6.067l-1.745.486Z" style="fill:#000;fill-opacity:1;fill-rule:nonzero;stroke:none" transform="translate(471.415 298.917)"></path><path d="m0 0-1.75 1.499-8.989-11.494 1.798-1.488L-5.65-7.22l16.66-11.782 3.039 3.643L-2.67-3.671z" style="fill:#000;fill-opacity:1;fill-rule:nonzero;stroke:none" transform="translate(440.408 279.926)"></path><path d="m0 0-5.393 10.102-1.412-.305 2.718-6.096-21.919-2.8-.088-.321 6.898-12.181 1.494.802-3.983 7.303z" style="fill:#000;fill-opacity:1;fill-rule:nonzero;stroke:none" transform="translate(359.246 282.45)"></path><path d="m0 0 9.282-2.179-7.115-5.053Zm-6.927 3.472V1.147l4.69-.678L.369-8.737l-3.092-2.595 1.886-4.713L17.872-2.132z" style="fill:#000;fill-opacity:1;fill-rule:nonzero;stroke:none" transform="translate(327.682 315.677)"></path><path d="M0 0c1.604-2.611.739-6.138-2.026-8.012-2.823-1.908-6.535-1.322-8.269 1.294-.515.71-.79 1.541-.896 2.36zm-5.505-10.54c4.41 0 7.97 3.484 7.97 7.746 0 1.001-.17 1.939-.526 2.835L-.363 4.813-21.55-3.479l1.991-4.298 6.401 2.706 1.095-2.32-5.077-6.487.884-1.705 5.24 7.197c1.418-1.347 3.362-2.154 5.511-2.154" style="fill:#000;fill-opacity:1;fill-rule:nonzero;stroke:none" transform="translate(348.611 300.627)"></path><path d="m0 0-14.874 4.386 13.275 8.122-.093 5.903-22.3-12.918L-.088-1.511z" style="fill:#000;fill-opacity:1;fill-rule:nonzero;stroke:none" transform="translate(344.143 320.045)"></path><path d="M0 0c.281-13.001-7.583-5.856-8.262-4.849-1.125 1.932-2.477 1.088-1.909.07s1.511-2.02 3.718-3.876c2.466-1.85 7.133-1.968 9.704.96C5.687-5.903 4.27-1.206 4.609 2.459c-.784 6.646 5.405 3.666 6.851 1.429.915-.873 2.267.047.844 1.487C2.519 13.591-.281 3.477 0 0" style="fill:#000;fill-opacity:1;fill-rule:nonzero;stroke:none" transform="translate(378.985 245.125)"></path><path d="M0 0a2.41 2.41 0 0 1 2.401-2.401c1.311 0 2.377 1.083 2.377 2.401a2.39 2.39 0 0 1-2.377 2.389A2.4 2.4 0 0 1 0 0" style="fill:#000;fill-opacity:1;fill-rule:nonzero;stroke:none" transform="translate(370.829 249.763)"></path><path d="m0 0 3.285 13.282L-15.6-.515l1.206-1.306 10.582 8.105-1.681-8.801 8.778.597-9.668-9.65 3.332-3.233L13.293 1.5Z" style="fill:#000;fill-opacity:1;fill-rule:nonzero;stroke:none" transform="translate(363.45 261.157)"></path><path d="m0 0-18.399-13.305 3.009-4.088L2.811-3.795z" style="fill:#000;fill-opacity:1;fill-rule:nonzero;stroke:none" transform="translate(360.944 280.846)"></path><path d="m0 0-1.44-1.414c-1.884-1.85-19.26-18.215-48.884-23.073l-1.534-.251-.176-1.544c-.238-2.085 1.218-15.224 8.238-31.357 6.34-14.57 18.894-35.109 42.694-50.222l1.102-.7 1.102.7c23.801 15.113 36.354 35.652 42.694 50.222 7.021 16.133 8.476 29.272 8.239 31.357l-.177 1.544-1.533.251C20.7-19.629 3.325-3.264 1.44-1.414Z" style="fill:#000;fill-opacity:1;fill-rule:nonzero;stroke:none" transform="translate(400 360.626)"></path></g><path d="M350.008 334.111c-.352-3.081 5.235-51.192 49.992-79.611 44.756 28.419 50.343 76.53 49.992 79.611-29.637 4.86-47.369 21.058-49.992 23.634-2.624-2.576-20.355-18.774-49.992-23.634" style="fill:url(#ab);stroke:none" transform="matrix(1.33333 0 0 -1.33333 0 800)"></path><g clip-path="url(#ac)" transform="matrix(1.33333 0 0 -1.33333 0 800)" data-source="https://football-logos.cc"><path d="M0 0a7.68 7.68 0 0 0-5.23 7.297A7.7 7.7 0 0 0 0 14.593a7.71 7.71 0 0 0 5.217-7.296A7.69 7.69 0 0 0 0 0m4.596 12.268A8.65 8.65 0 0 1 0 15.577a8.3 8.3 0 0 1-2.478.374c-4.79 0-8.672-3.871-8.672-8.654 0-4.79 3.882-8.638 8.672-8.638A8.5 8.5 0 0 1 .069-.96a8.6 8.6 0 0 1 4.456 3.186A8.55 8.55 0 0 1 6.16 7.297c0 1.861-.562 3.572-1.564 4.971" style="fill:#000;fill-opacity:1;fill-rule:nonzero;stroke:none" transform="translate(437.512 314.195)"></path><path d="M0 0c-2.799 1.493-4.626 4.321-4.626 7.647a8.65 8.65 0 0 0 4.608 7.661c-.298.034-.596.034-.907.034-4.263 0-7.718-3.432-7.718-7.695 0-4.262 3.455-7.706 7.718-7.706.322 0 .62.012.925.059" style="fill:#fff;fill-opacity:1;fill-rule:nonzero;stroke:none" transform="translate(435.959 313.845)"></path><path d="M0 0c4.778-.094 8.602-4.018 8.504-8.808-.084-4.766-4.03-8.584-8.791-8.497-4.772.077-8.596 4.024-8.485 8.802C-8.713-3.73-4.766.065 0 0" style="fill:#000;fill-opacity:1;fill-rule:nonzero;stroke:none" transform="translate(365.103 330.153)"></path><path d="M0 0c-4.245.069-7.759-3.304-7.824-7.566-.082-4.247 3.303-7.771 7.554-7.835 4.252-.071 7.765 3.313 7.847 7.553C7.653-3.584 4.246-.06 0 0" style="fill:#ffe500;fill-opacity:1;fill-rule:nonzero;stroke:none" transform="translate(365.091 329.193)"></path><path d="M0 0c.082.076.122-.029.211-.029.234.006.497-.053.714-.158.053-.118.152-.176.117-.328C.954-.55.954-.645.925-.691.743-.762.679-.567.567-.498c.024.135-.099.253-.204.311C.034-.129-.37-.211-.679-.363c-.053 0-.135 0-.153.058-.041.153.129.129.176.2.211.076.48.181.656.105m.937 1.02c.017.075.116.034.164.082-.077.034-.176.045-.288.063-.157-.029-.368-.099-.544-.063-.504-.094-.983.18-1.493-.007A5 5 0 0 0-.188.82c.41-.165.714.2 1.125.2m1.453.549c0-.093 0-.24-.101-.287-.263-.053-.527-.053-.672-.274-.341 0-.575-.235-.809-.399C.813.48.79.293.679.186.298.117.076.439-.264.409-.416.545-.627.551-.791.68c-.234.035-.462.105-.703.14-.122.023-.263.023-.363.111-.123.135-.315.335-.527.275-.151.095-.029.27-.053.422.1.094.041.357.258.281.106-.111.106-.281.246-.363.422 0 .797.117 1.119.363.111 0 .21.082.334.129.245.023.48-.176.702-.012.586.129.855-.462 1.376-.462.147.029.299.005.393.169 0 .071.035.153.105.2.153-.047.24-.2.294-.364m-4.873 5.224c.006-.257-.199-.463-.263-.68l.11-.023c.101.076.252.076.258.211.188.146.398.246.364.492-.089.164-.323.035-.469 0m-1.119-.082c.024.082-.07.117-.07.176-.088.093-.246.129-.328.07-.023-.07-.04-.176.006-.233.146.069.269-.142.392-.013m2.688.456c-.023-.263.082-.526.023-.796-.046-.041-.081-.059-.157-.041-.176.153.082.475-.235.416-.099.188-.287.421-.486.474-.187.158-.41.187-.609.311-.059 0-.146.04-.157-.048.345-.192.708-.385.854-.772.087-.07.111-.164.17-.264a.29.29 0 0 0-.105-.281c-.211-.041-.34-.275-.574-.275-.135-.071-.27-.152-.417-.012-.204.136-.473-.187-.596.095-.235.011-.522.07-.755.151-.2.205-.446.387-.37.727-.14.105-.258-.071-.387-.082-.052-.088-.199-.206-.093-.334-.023-.065-.106-.03-.164 0a1 1 0 0 0-.287.31c.076.358.457.516.791.586.052.151.245 0 .322.151.485.042.96.153 1.44.013.059-.013.099.012.123.065a.3.3 0 0 1-.281.122c-.082.193-.322.094-.386.281.023.095.099.065.157.117-.058.07-.157.082-.239.059-.217 0-.452 0-.662-.059-.029.346-.287.059-.474.105-.147-.175-.416-.175-.615-.257a2.7 2.7 0 0 0-.557-.269c-.034.023-.047.058-.047.117a.55.55 0 0 0 .182.187c.129.029.246.222.363.299.181.052.328.164.48.239.679.364 1.541.317 2.278.077.118-.077.281-.1.404-.205.1.012.187-.106.299-.146.416-.252.48-.745.767-1.061m4.708.364c.334-.269.761-.392 1.008-.738-.018-.152-.018-.357-.153-.41-.216.035-.357-.169-.556-.129-.023.164.258.293.099.492-.14.129-.328.094-.445.27-.082-.059-.023-.188-.052-.27.012-.463-.48-.492-.75-.702a.93.93 0 0 0-.919.374c-.035.164-.229.223-.38.293-.101-.035-.253-.147-.253-.275-.21-.222-.152-.451-.264-.626.106-.422-.175-.844.071-1.243.117-.327.545-.327.527-.702a.58.58 0 0 0-.334-.521c-.351.035-.252-.393-.533-.462-.135-.082-.369.046-.415-.164.046-.077-.047-.117-.035-.164.035-.129-.047-.188-.112-.264-.111-.018-.105.135-.164.199-.052.065.018.205-.07.229a.55.55 0 0 1-.24-.077.42.42 0 0 0-.146-.369c-.048-.047-.123.018-.146.065v.381c-.2.082-.246.315-.469.362-.088.147-.24.223-.399.264-.099.146-.234.258-.28.428.081.187.128.398.257.573.035.036.106.024.158.024.199-.234-.17-.433.024-.644.345 0 .573-.411.913-.422.141-.158.323 0 .451.041.141.299.469.234.738.299.053.082.029.222.012.357-.129.24-.574.081-.492.468-.012.146 0 .346-.082.498.035.586-.13 1.248.082 1.827-.1.311.211.469.187.768.469.836 1.423 1.421 2.442 1.328.181-.023.369-.046.526-.152.335-.058.528-.31.815-.474.041-.112.31-.182.199-.387-.059-.053-.199 0-.286.029-.176.305-.657-.187-.663.281-.128.159-.298.024-.45.077a3 3 0 0 1-.298 0c.028-.077.127-.1.052-.153-.234-.234-.72.076-.873-.287-.064-.14-.269-.082-.287-.221-.047-.041-.064-.077-.017-.119.152-.151.304.119.526.048.188.246.463.04.726.129.27.058.487-.129.75-.129M2.39 6.582c.251-.099.081.199.274.223-.082.152-.222.269-.415.175-.059-.175.128-.269.141-.398" style="fill:#000;fill-opacity:1;fill-rule:nonzero;stroke:none" transform="translate(365.185 316.45)"></path><path d="M0 0c-.012.129-.199.223-.141.398C.052.492.192.375.274.223.081.199.251-.099 0 0m1.404.949c-.263 0-.479.187-.749.129C.392.989.116 1.195-.071.949-.294 1.02-.446.75-.598.901c-.047.042-.029.078.017.119.018.139.223.081.287.221.153.363.639.053.873.287.076.053-.024.076-.052.153.093.005.21.005.298 0 .152-.053.322.082.45-.077.007-.468.487.024.663-.281.087-.029.228-.082.287-.029.111.205-.159.275-.2.387-.287.164-.48.416-.814.474-.157.106-.345.129-.527.152C-.334 2.4-1.289 1.815-1.757.979c.023-.299-.287-.457-.188-.768-.211-.579-.046-1.241-.081-1.827.081-.152.07-.352.081-.498-.081-.387.363-.228.492-.468.018-.135.041-.275-.012-.357-.269-.065-.597 0-.737-.299-.129-.041-.311-.2-.452-.041-.339.011-.568.422-.913.422-.193.211.175.41-.023.644-.053 0-.123.012-.158-.024-.129-.175-.176-.386-.258-.573.047-.17.182-.282.281-.428.158-.041.311-.117.398-.264.223-.047.27-.28.469-.362v-.381c.023-.047.099-.112.146-.065a.42.42 0 0 1 .146.369.55.55 0 0 0 .241.077c.087-.024.017-.164.07-.229.059-.064.053-.217.163-.199.066.076.147.135.112.264-.011.047.082.087.035.164.047.21.281.082.416.164.281.069.181.497.533.462a.57.57 0 0 1 .333.521c.018.375-.409.375-.526.702-.246.399.034.821-.071 1.243.111.175.053.404.217.561v.012c0 .023.012.053.047.053 0 .128.152.24.252.275.152-.07.346-.129.38-.293a.93.93 0 0 1 .919-.374c.27.21.762.239.751.702.029.082-.031.211.052.27.117-.176.304-.141.445-.27.158-.199-.123-.328-.1-.492.199-.04.34.164.556.129.136.053.136.258.153.41-.246.346-.674.469-1.008.738" style="fill:#000;fill-opacity:1;fill-rule:nonzero;stroke:none" transform="translate(367.575 323.032)"></path><path d="M0 0c.146.035.38.164.469 0C.503-.246.293-.346.105-.492.099-.627-.052-.627-.153-.703l-.11.023c.064.217.269.423.263.68m-1.119-.082c-.123-.129-.246.082-.392.013-.046.057-.029.163-.006.233.082.059.24.023.328-.07 0-.059.094-.094.07-.176m2.688.456c-.287.316-.351.809-.767 1.061-.112.04-.199.158-.299.146-.123.105-.286.128-.404.205-.737.24-1.599.287-2.278-.077-.152-.075-.299-.187-.48-.239-.117-.077-.234-.27-.363-.299a.55.55 0 0 1-.182-.187c0-.059.013-.094.047-.117.187.058.393.17.557.269.199.082.468.082.615.257.187-.046.445.241.474-.105.21.059.445.059.662.059.082.023.181.011.239-.059-.058-.052-.134-.022-.175-.105l.018-.012c.064-.187.304-.088.386-.281A.3.3 0 0 0-.1.768C-.124.715-.164.69-.223.703c-.48.14-.955.029-1.44-.013-.077-.151-.27 0-.322-.151-.334-.07-.715-.228-.791-.586a1 1 0 0 1 .287-.31c.058-.03.141-.065.164 0-.106.128.041.246.093.334.129.011.247.187.387.082-.076-.34.17-.522.37-.727.233-.081.521-.14.755-.151.123-.282.392.041.596-.083v-.012c.147-.14.282-.059.417.012.234 0 .363.234.574.275a.29.29 0 0 1 .105.281c-.059.1-.083.194-.17.264C.656.305.293.498-.052.69c.011.088.098.048.157.048C.304.614.527.585.714.427c.199-.053.387-.286.486-.474.317.059.059-.263.235-.416.076-.017.111 0 .157.041.059.27-.046.533-.023.796" style="fill:#000;fill-opacity:1;fill-rule:nonzero;stroke:none" transform="translate(362.702 323.243)"></path><path d="M0 0c-.411 0-.715-.364-1.125-.199-.304.11-.661.221-1.036.274.51.188.989-.087 1.493.007.176-.035.387.034.544.064.112-.018.211-.03.288-.064C.116.034.017.075 0 0m1.453.55c-.054.164-.142.316-.294.363a.25.25 0 0 1-.105-.199C.96.55.808.573.661.544c-.521 0-.79.592-1.376.463-.222-.164-.457.035-.703.012C-1.541.972-1.64.89-1.751.89A1.8 1.8 0 0 0-2.87.526c-.14.082-.14.252-.246.364-.217.076-.158-.188-.258-.282.024-.152-.098-.327.053-.422.212.06.404-.139.527-.275.1-.088.241-.088.363-.11.241-.035.469-.106.703-.141.164-.129.375-.135.527-.27.34.03.562-.292.943-.223.111.106.134.294.129.423.234.164.468.398.809.398.145.222.409.222.672.275.101.047.101.193.101.287" style="fill:#000;fill-opacity:1;fill-rule:nonzero;stroke:none" transform="translate(366.122 317.47)"></path><path d="M0 0c.082.076.122-.029.211-.029.234.006.497-.053.714-.158.053-.118.152-.176.117-.328C.954-.55.954-.645.925-.691.743-.762.679-.567.567-.498c.024.135-.099.253-.204.311C.034-.129-.37-.211-.679-.363c-.053 0-.135 0-.153.058-.041.153.129.129.176.2.211.076.48.181.656.105" style="fill:#000;fill-opacity:1;fill-rule:nonzero;stroke:none" transform="translate(365.185 316.45)"></path><path d="M0 0h-1.512v-2.559h-2.664v-1.258h2.664v-4.978H0v4.978h2.664v1.258H0Z" style="fill:#000;fill-opacity:1;fill-rule:nonzero;stroke:none" transform="translate(400.755 267.68)"></path><path d="M0 0c.744.199 1.16.99.949 1.723a1.386 1.386 0 0 1-1.716.96A1.4 1.4 0 0 1-1.733.955 1.397 1.397 0 0 1 0 0" style="fill:#000;fill-opacity:1;fill-rule:nonzero;stroke:none" transform="translate(391.744 333.97)"></path><path d="M0 0c.645.403.832 1.282.404 1.927a1.375 1.375 0 0 1-1.92.404A1.39 1.39 0 0 1-1.944.403 1.4 1.4 0 0 1 0 0" style="fill:#000;fill-opacity:1;fill-rule:nonzero;stroke:none" transform="translate(389.999 329.772)"></path><path d="M0 0c.568.527.591 1.405.088 1.968-.533.591-1.429.596-1.991.082A1.4 1.4 0 0 1-1.949.059 1.37 1.37 0 0 1 0 0" style="fill:#000;fill-opacity:1;fill-rule:nonzero;stroke:none" transform="translate(388.043 320.197)"></path><path d="M0 0a1.39 1.39 0 0 1 1.974-.041c.562.545.58 1.429.035 1.979a1.38 1.38 0 0 1-1.973.036A1.4 1.4 0 0 1 0 0" style="fill:#000;fill-opacity:1;fill-rule:nonzero;stroke:none" transform="translate(385.35 315.272)"></path><path d="M0 0a1.417 1.417 0 0 1 1.973-.041c.545.544.574 1.429.042 1.997a1.41 1.41 0 0 1-1.98.035C-.521 1.44-.539.551 0 0" style="fill:#000;fill-opacity:1;fill-rule:nonzero;stroke:none" transform="translate(384.67 310.277)"></path><path d="M0 0c.498-.609 1.371-.68 1.997-.199.586.48.673 1.37.205 1.968-.504.596-1.393.678-1.979.216C-.386 1.47-.479.598 0 0" style="fill:#000;fill-opacity:1;fill-rule:nonzero;stroke:none" transform="translate(383.65 305.394)"></path><path d="M0 0c.639.428.779 1.312.334 1.944-.451.62-1.3.785-1.938.351A1.41 1.41 0 0 1-1.95.34 1.41 1.41 0 0 1 0 0" style="fill:#000;fill-opacity:1;fill-rule:nonzero;stroke:none" transform="translate(384.295 300.24)"></path><path d="M0 0c.557.532.574 1.423.03 1.979-.528.568-1.411.568-1.967.036A1.435 1.435 0 0 1-1.984.023C-1.44-.522-.544-.551 0 0" style="fill:#000;fill-opacity:1;fill-rule:nonzero;stroke:none" transform="translate(380.29 285.987)"></path><path d="M0 0c.258.744-.095 1.547-.815 1.804a1.383 1.383 0 0 1-1.815-.791 1.404 1.404 0 0 1 .814-1.816A1.43 1.43 0 0 1 0 0" style="fill:#000;fill-opacity:1;fill-rule:nonzero;stroke:none" transform="translate(380.905 281.735)"></path><path d="M0 0c-.761-.029-1.382-.674-1.353-1.435A1.387 1.387 0 0 1 .094-2.794 1.397 1.397 0 1 1 0 0" style="fill:#000;fill-opacity:1;fill-rule:nonzero;stroke:none" transform="translate(381.906 279.575)"></path><path d="M0 0c-.732-.187-1.212-.943-1.013-1.687A1.393 1.393 0 0 1 .691-2.718 1.43 1.43 0 0 1 1.705-.996C1.523-.264.768.182 0 0" style="fill:#000;fill-opacity:1;fill-rule:nonzero;stroke:none" transform="translate(385.162 276.103)"></path><path d="M0 0c-.656-.423-.878-1.277-.446-1.933.393-.656 1.254-.837 1.916-.433.65.409.849 1.264.445 1.914A1.37 1.37 0 0 1 0 0" style="fill:#000;fill-opacity:1;fill-rule:nonzero;stroke:none" transform="translate(389.607 273.538)"></path><path d="M0 0c-.591.485-1.458.392-1.962-.187a1.405 1.405 0 0 1 .164-1.973 1.437 1.437 0 0 1 1.985.181C.667-1.388.591-.516 0 0" style="fill:#000;fill-opacity:1;fill-rule:nonzero;stroke:none" transform="translate(396.09 272.56)"></path><path d="M0 0a1.397 1.397 0 0 1 1.733.955 1.4 1.4 0 0 1-.965 1.728 1.386 1.386 0 0 1-1.716-.96C-1.159.99-.743.199 0 0" style="fill:#000;fill-opacity:1;fill-rule:nonzero;stroke:none" transform="translate(408.255 333.97)"></path><path d="M0 0a1.38 1.38 0 0 1 .404-1.927 1.4 1.4 0 0 1 1.945.404A1.39 1.39 0 0 1 1.92.404 1.375 1.375 0 0 1 0 0" style="fill:#000;fill-opacity:1;fill-rule:nonzero;stroke:none" transform="translate(409.596 331.698)"></path><path d="M0 0a1.4 1.4 0 0 1-.046 1.991c-.562.515-1.459.509-1.991-.082a1.407 1.407 0 0 1 .088-1.968A1.37 1.37 0 0 1 0 0" style="fill:#000;fill-opacity:1;fill-rule:nonzero;stroke:none" transform="translate(413.905 320.256)"></path><path d="M0 0c.533.544.515 1.44-.035 1.974a1.38 1.38 0 0 1-1.974-.036 1.387 1.387 0 0 1 .035-1.979A1.39 1.39 0 0 1 0 0" style="fill:#000;fill-opacity:1;fill-rule:nonzero;stroke:none" transform="translate(414.65 315.272)"></path><path d="M0 0c.539.551.521 1.44-.035 1.991a1.407 1.407 0 0 1-1.979-.035 1.436 1.436 0 0 1 .041-1.997A1.417 1.417 0 0 1 0 0" style="fill:#000;fill-opacity:1;fill-rule:nonzero;stroke:none" transform="translate(415.328 310.277)"></path><path d="M0 0c.48.598.387 1.47-.223 1.985-.586.462-1.475.38-1.978-.216-.469-.598-.381-1.488.205-1.968C-1.371-.68-.498-.609 0 0" style="fill:#000;fill-opacity:1;fill-rule:nonzero;stroke:none" transform="translate(416.348 305.394)"></path><path d="M0 0c-.446-.632-.305-1.517.333-1.944a1.407 1.407 0 0 1 1.951.34c.44.608.293 1.516-.345 1.955A1.41 1.41 0 0 1 0 0" style="fill:#000;fill-opacity:1;fill-rule:nonzero;stroke:none" transform="translate(415.37 302.185)"></path><path d="M0 0a1.39 1.39 0 0 1 .029-1.979c.545-.551 1.442-.522 1.985.023A1.434 1.434 0 0 1 1.967.035C1.411.567.527.567 0 0" style="fill:#000;fill-opacity:1;fill-rule:nonzero;stroke:none" transform="translate(419.68 287.967)"></path><path d="M0 0c-.72-.257-1.072-1.06-.814-1.804a1.43 1.43 0 0 1 1.815-.803 1.404 1.404 0 0 1 .814 1.816A1.38 1.38 0 0 1 0 0" style="fill:#000;fill-opacity:1;fill-rule:nonzero;stroke:none" transform="translate(419.908 283.54)"></path><path d="M0 0a1.404 1.404 0 0 1-1.447-1.341A1.396 1.396 0 0 1-.095-2.794a1.387 1.387 0 0 1 1.447 1.359C1.381-.674.76-.029 0 0" style="fill:#000;fill-opacity:1;fill-rule:nonzero;stroke:none" transform="translate(418.094 279.575)"></path><path d="M0 0c-.769.182-1.523-.264-1.705-.996A1.43 1.43 0 0 1-.691-2.718a1.39 1.39 0 0 1 1.703 1.031C1.211-.943.731-.187 0 0" style="fill:#000;fill-opacity:1;fill-rule:nonzero;stroke:none" transform="translate(414.838 276.103)"></path><path d="M0 0a1.37 1.37 0 0 1-1.916-.452 1.395 1.395 0 0 1 .445-1.914c.662-.404 1.524-.223 1.916.433C.878-1.277.655-.423 0 0" style="fill:#000;fill-opacity:1;fill-rule:nonzero;stroke:none" transform="translate(410.393 273.538)"></path><path d="M0 0a1.426 1.426 0 0 1-.187-1.979c.502-.591 1.381-.657 1.985-.181.579.479.667 1.387.163 1.973C1.457.392.59.485 0 0" style="fill:#000;fill-opacity:1;fill-rule:nonzero;stroke:none" transform="translate(403.91 272.56)"></path><path d="M0 0a1.4 1.4 0 1 1-2.801 0A1.4 1.4 0 0 1 0 0" style="fill:#000;fill-opacity:1;fill-rule:nonzero;stroke:none" transform="translate(401.4 270.954)"></path><path d="M0 0c-.544 0-.972-.627-.972-1.405v-3.198A4.2 4.2 0 0 0-3.698-2.62c.078.122.142.253.18.4.162.675-.173 1.356-.771 1.628-.002.058-.015.112-.015.17A4.306 4.306 0 0 0 0 3.877 4.305 4.305 0 0 0 4.303-.422c0-.058-.011-.112-.013-.17a1.42 1.42 0 0 1-.772-1.628c.037-.147.102-.278.18-.4A4.2 4.2 0 0 0 .972-4.603v3.198C.972-.627.544 0 0 0m22.692-34.737-7.689-9.428s.761.38 1.628.658a1.42 1.42 0 0 1 .608-1.344c.42-.289.937-.314 1.364-.112-3.828-7.502-15.142-13.729-15.382-.339-.521 14.171-.732 18.329-.732 28.718h11.43c2.349 0 2.933 1.112 2.933 2.494 0 1.359-.584 2.454-2.933 2.454H.972v5.522a5.76 5.76 0 0 1 4.05 2.857c.059.006.118.01.177.025.749.199 1.219.96 1.03 1.697a1.4 1.4 0 0 1-.477.746c.006.122.016.243.016.367A5.757 5.757 0 0 1 0 5.329 5.757 5.757 0 0 1-5.768-.422c0-.124.009-.245.017-.367a1.4 1.4 0 0 1-.478-.746c-.188-.737.28-1.498 1.03-1.697.059-.015.118-.019.177-.025a5.75 5.75 0 0 1 4.05-2.857v-5.522h-12.947c-2.348 0-2.934-1.095-2.934-2.454 0-1.382.586-2.494 2.934-2.494h11.431c0-10.389-.211-14.547-.733-28.718-.239-13.39-11.554-7.163-15.382.339a1.37 1.37 0 0 1 1.365.112c.458.312.667.839.606 1.344.868-.278 1.63-.658 1.63-.658l-7.689 9.428-2.061-12.11c1.487 1.645 2.676 2.518 3.601 2.565 0 0 .28-1.197 1.028-2.927a1.3 1.3 0 0 1-.23-.13c-.622-.445-.791-1.312-.34-1.938a1.377 1.377 0 0 1 1.816-.419c2.15-3.747 6.105-8.321 12.998-9.812C-1.007-61.979-.984-65.124 0-66.647c.984 1.523 1.006 4.668 5.879 7.139 6.893 1.491 10.848 6.065 12.999 9.812a1.377 1.377 0 0 1 1.816.419c.45.626.28 1.493-.34 1.938a1.4 1.4 0 0 1-.23.13c.748 1.73 1.027 2.927 1.027 2.927.926-.047 2.114-.92 3.602-2.565z" style="fill:#000;fill-opacity:1;fill-rule:nonzero;stroke:none" transform="translate(400 340.283)"></path></g><!-- source: https://football-logos.cc --></svg>