<svg xmlns="http://www.w3.org/2000/svg" viewBox="0 -3.54 260 283.01"><!-- Source: https://football-logos.cc --><defs data-source="https://football-logos.cc"><path id="a" d="M-23.573 326.283h358.462v59.494H-23.573z"></path></defs><g transform="translate(29.472 -14.711)" data-source="https://football-logos.cc"><path d="M123.744 355.674V714.08c0 229.107 188.485 275.162 254.21 275.162 65.723 0 254.208-46.055 254.208-275.162V355.674H377.953Z" style="display:inline;fill:#fff;fill-opacity:1;stroke:#000;stroke-width:11.3386;stroke-linecap:square;stroke-miterlimit:4;stroke-dasharray:none;stroke-opacity:1" transform="scale(.26458)"></path><path fill="#05040c" d="M138.26 288.67c-2.53-4.22.98-9.67 5.5-10.43 5.69-1.07 11.26 1.48 16.21 4.03 4.8 2.49 8.77 7.13 9.02 12.73.83 4.83-1.86 9.11-3.36 13.5-.94 2.82-2.67 5.26-4.1 7.84-2.01 3.7-.79 8.4-3.42 11.85-1.29.83-2.77 1.33-4.17 1.96 1.82 2.06 4.94 3.36 5.39 6.33 2 8.09-2.39 15.85-6.13 22.7-4.04 5.88-.41 13.68-4.2 19.69-1.25 2.62-4.22 3.28-6.81 3.78-6.96 2.38-14.18-1.04-19.85-4.95-5.47-4.38-12.45-6.57-19.41-6.71-1.36-.01-2.87.43-3.36 1.87-.28 5.45.91 10.8 1.52 16.19.03 8.5.26 17.02-.16 25.53 9.24-2.97 7.71-16.3 16.15-20.3 4.91-2.22 10.49-.65 15.05 1.69 4.23 1.77 6.93 5.64 9.79 9.03 4.55 6.5 11.28 10.93 18.06 14.8 4.19 3.83 7.05 9.43 7.45 15.12-.44 26.01 8.42 51.86 23.9 72.67 18.9 25.65 47.17 43.7 77.82 51.86 38.32 10.4 80.65 5.66 115.43-13.65 28.99-15.7 52.49-42.18 62.42-73.83 4.42-13.82 6.05-28.47 5.21-42.93 1.23-2.64 2.94-5.03 4.47-7.49 3.51-5.12 9.7-7.02 14.77-10.12 3.2-3.11 6.15-6.6 10.16-8.73 3.92-2.08 7.56-4.84 11.86-6.08 3.19-.86 6.16.99 9.03 2.08 7.44 2.78 8.79 12.2 15.59 15.8 1.93.74 6.21.55 5.56-2.41-2.06-5.17-2.96-10.67-4.1-16.09-.51-3.58 1.75-7.59-.51-10.83-4.3-5.04-12.05-6.36-17.9-3.36-4.92 2.56-10.65 4.92-16.23 3.18-5.12-2.02-9.39-6.49-10.51-11.97-1.6-8.26-1.35-17.15-5.75-24.62-1.83-2.95-2.8-6.79-1.01-10 .78-2.35 3.12-3.51 4.48-5.42-2-2.44-6.32-2.47-7.33-5.94-2.31-3.75.52-8.02-.7-12-1.48-7.57-4.34-15.56-1.68-23.2 2.01-6.89 8-12.33 15.1-13.53 4.19-1.55 8.75.37 11.85 3.25 1.94 2.17.62 5.07-.3 7.39-2.49 7.06-10.25 10.05-13.76 16.44-.3 1.65.13 3.76 1.63 4.76 8.78-.47 18.33-3.33 26.47 1.45 3.98 1.25 5.58 5.31 6.95 8.85 1.87 5.68 2.93 11.56 3.61 17.49.09 1.55.33 3.25-.46 4.68-4.08 7.49-11.47 13.51-20.05 14.75-2.74.06-2.36 3.35-1.94 5.21 1.21 4.16 4.37 7.92 8.49 9.42 2.4.07 2.74-2.91 3.69-4.51 1.79-4.64 6.11-8.46 11.29-8.35 9.15-.05 15.9 7.82 24.89 8.56 4.93.37 10.28 1.96 12.9 6.53 2.88 4.12 1.66 9.34-.13 13.63-2.54 6.54.27 13.37.13 20.08.93 4.62-1.77 10.19-6.57 11.32-4.29 1.57-8.88 2.6-12.6 5.38-4.36 2.81-7.44 7.59-12.69 8.94-6.17 2.18-12.65.41-18.88-.37 1.15 2.88 3.1 5.57 3.08 8.79-.84 34.78-13.97 68.82-35.49 96.03-23.75 30.23-57.27 52.22-93.84 63.68-40.63 12.92-85.17 13.02-125.89.44-37.3-11.42-71.51-33.76-95.55-64.64-20.68-26.31-33.36-58.96-35.01-92.44-.44-4.8-.41-9.65.85-14.33-3.57 1.98-6.77 5.46-11.18 5.2-4.97-.3-9.55-2.7-13.48-5.62-6.61-4.86-14.44-7.49-21.74-11.07-3.65-1.53-5.86-5.31-6.49-9.09-1.13-5.45 1.8-10.85.33-16.29-.73-5.74-4.19-12.18-.24-17.45 4.56-5.61 10.99-9.26 17.05-13.02 4.18-2.48 7.71-6.25 12.58-7.39 3.94-.74 8.13-1.68 12.06-.35 6.51 2.1 12.32 6.46 15.86 12.35 1.17 2.15 3.81 1.16 5.53.34 3.32-1.2 6.05-4.8 5.57-8.36-1.92-2.88-5.34-4.08-8.13-5.88-5.38-3.31-11.09-6.69-14.61-12.12-1.81-2.76-3.23-6.33-1.64-9.53 4.44-9.34 10.18-18.05 17.06-25.76 6.77-4.08 15.05-1.38 22.47-2.57-1.71-6.98-9.98-9.16-12.92-15.46" style="fill:#fff;fill-opacity:1;stroke:none;stroke-opacity:1" transform="translate(-64.311 -30.963)scale(.53173)"></path><path d="M158.67 71.47c-1.749 3.369-4.523 7.475-9.515 10.683-3.82-1.403-3.071-4.366-3.155-7.044z" style="fill:#000;fill-opacity:1;stroke:none;stroke-width:.05;stroke-linecap:square;stroke-miterlimit:4;stroke-dasharray:none;stroke-opacity:1"></path><path d="M59.5 94.105v94.41c.051 38.258 27.11 46.303 40.5 46.303s40.449-8.045 40.5-46.302v-94.41H100Z" style="fill:#d10c01;fill-opacity:1;stroke:#000;stroke-width:3;stroke-linecap:square;stroke-miterlimit:4;stroke-dasharray:none;stroke-opacity:1"></path><path d="M109.4 84.289v8.747m3.09-8.373v8.373m-47.237-7.344v7.344m3.175-7.344v7.344m3.18-7.344v7.344m3.181-7.344v7.344m3.181-7.344v7.344m3.13-7.344v7.344m3.183-7.344v7.344m3.227-8.373v8.373m3.09-8.747v8.747m3.225-8.56v8.56m3.225-9.028v9.028m2.95-8.42v8.42m37.697-7.344v7.344m-2.942-7.344v7.344m-3.175-7.344v7.344m-3.18-7.344v7.344m-3.181-7.344v7.344m-3.181-7.344v7.344m-3.13-7.344v7.344m-3.184-7.344v7.344m-53.421-7.344v7.344" style="fill:none;stroke:#000;stroke-width:1.5;stroke-linecap:butt;stroke-linejoin:miter;stroke-miterlimit:4;stroke-dasharray:none;stroke-opacity:1"></path><path d="m70.18 62.839-6.945 16.999L100 73.686l46 8.203-17.81-19.05-15.28 9.79L100 56.554 87.313 71.438Z" style="fill:#d10c01;fill-opacity:1;stroke:none;stroke-width:2;stroke-linecap:square;stroke-miterlimit:4;stroke-dasharray:none;stroke-opacity:1"></path><path d="M41.33 71.47c1.749 3.369 4.523 7.475 9.515 10.683 3.82-1.403 3.071-4.366 3.155-7.044Z" style="fill:#000;fill-opacity:1;stroke:none;stroke-width:.05;stroke-linecap:square;stroke-miterlimit:4;stroke-dasharray:none;stroke-opacity:1"></path><path d="M102.95 84.008v9.028m3.225-8.56v8.56" style="fill:none;stroke:#000;stroke-width:1.5;stroke-linecap:butt;stroke-linejoin:miter;stroke-miterlimit:4;stroke-dasharray:none;stroke-opacity:1"></path><path d="M371.799 278.484c-63.912.312-137.28 14.953-175.549 36.266l13.541 35.674c58.577-26.247 129.718-31.695 168.162-31.695s109.586 5.448 168.162 31.695l13.541-35.674c-39.504-22-116.407-36.89-181.703-36.25q-3.06-.03-6.154-.016z" style="fill:#fafd15;fill-opacity:1;stroke:#000;stroke-width:7.55906;stroke-linecap:square;stroke-miterlimit:4;stroke-dasharray:none;stroke-opacity:1" transform="scale(.26458)"></path><path d="m53.205 84.669 9.035.787-6.38 6.13z" style="fill:#d10c01;fill-opacity:1;stroke:#000;stroke-width:.264583px;stroke-linecap:butt;stroke-linejoin:miter;stroke-opacity:1"></path><path d="m68.362 116.45 1.984-.496 3.605 4.365 4.266 6.45 6.251 5.093 3.142 2.381 5.226.595 4.2 1.753 1.906-2.646-.867-1.72.867-3.075-1.972.562.827-3.903-2.68.133-3.24 1.62-1.257-2.943 4.068-1.489c.677-.12 1.365-.157 1.786-2.248l-1.182-1.085-2.357.49-2.807 1.892-2.088-.338-1.025-2.58 2.546-1.654 3.638-2.58 1.919-2.91 2.976-2.183 4.564-1.752.298-1.522s2.05-2.778 2.183-2.778c.132 0 2.116-1.124 2.116-1.124l.497.165.426 4.466 1.326.33 3.258-.424c1.133 1.208.397 2.271.513 3.4l2.348 2.018 2.117 2.81.727 2.613-1.984-.099.595 4.399 1.555 4.564-2.282-.132 3.77 11.278-.496 1.819.751 5.509-1.578-.945.397 5.953-2.282-.695-.237 4.32-.656 1.931-2.745-2.58-.728 3.97-.165 5.39 1.323 4.796 3.803 3.737 5.788.264 3.34-2.546 1.224-6.35-4.663-21.167.694-15.081.992-2.944s-3.24.331-3.208.166c.033-.166 3.539-5.986 3.539-5.986l4.498-9.79 2.216-1.19-.1 4.63 4.135-.166-.298 1.82c-1.46 1.484-2.119 3.53-2.712 5.622 1.529 1.03 3.147 2.065 3.307 3.01l-1.455.793-5.622 2.315-2.422 3.962.272 5.563.232 8.103 2.976 12.7 1.39-1.753 1.752 2.315.165 2.811 2.613-.793-.165 2.315-1.82 3.704.563 3.902-2.513.166-1.125 1.455.893 2.944-2.05 1.29-1.753 2.281-.016 4.623c.399 1.097.372 2.684 1.835 2.554 1.793 1.053 2.703.605 3.638.199l1.626.304.556 1.283-1.19 2.811-3.307 1.224.661 1.687 4.465-.132-.1 2.282-2.91 2.182-1.521.629 1.19 1.918 2.58.992-.066 1.753-2.083.96-5.028-.728 1.008 4.247-2.231 2.566-1.323 2.778.126 2.984-.093 1.91-1.422-1.223-1.422 3.472-.86-.959-2.018 2.315-1.29 2.349-.628 3.605-.827 1.686-2.712 2.745-1.124-1.521.066-1.521-3.092 2.348-.877-1.29-.083-1.786-2.364 1.455-1.059-1.356.926-3.208.794-2.546 3.704-2.514 2.845-.827 4.465-4.432 1.223-7.21-1.157-6.118s-4.067-3.204-4.432-3.109c-1.744.453-5.221-2.727-4.432-3.043l-.86-4.497-2.679-.463-8.566 1.852-4.994 3.01-2.017 2.116 1.025 1.951 2.547 1.555 4.254.86-3.097 2.05 3.097 2.282-4.076 1.61 2.17 2.656-3.803.86s.562 2.382.397 2.349c-.166-.034-3.473-.199-3.639-.199s-2.711.1-2.711.1l-3.903 3.538-1.356 2.25-6.813-1.092-2.646 1.984-.1-3.208-2.033.562.48-3.621-2.498 1.356.331-2.431 4.052-4.002 8.5-.132 3.406-1.125 1.653-2.745-3.141-6.217-2.15-7.243s.893-5.06 1.653-5.821c.761-.761 4.333-3.804 4.465-3.837a2258 2258 0 0 0 7.342-2.348l4.42-2.745v-2.183l-4.85-3.902-2.281-6.218-.869-4.07-2.24 2.45-.893.495-2.708-4.216c-.614 1.719-1.828 2.138-2.948 2.761l-2.216-4.928-1.653 2.183-1.654-4.597-2.183-2.91-3.87-.034-3.307.695-3.571-.298 3.307-4.332-3.06.612.133-1.836 2.464-2.43-2.233-.894s.017-1.108.827-1.306c.81-.199 2.133-.992 2.133-.992l2.183.959 3.473 3.142 8.896 5.291 5.524 2.117 5.126-.893.694-2.58.464-1.554-3.407.496-.908-.61-2.032-2.836-2.616 1.792-1.654-4.134-2.083 1.952-1.95-3.989-1.49 2.037-1.951-7.21s-2.382-3.175-2.878-3.24c-.496-.067-5.754-.331-5.754-.331l-1.39-1.72-2.199-.298 1.24-2.414-1.108-1.505 2.266-3.076-.992-.876.942-1.356z" style="fill:#fafd15;fill-opacity:1;stroke:none;stroke-width:.2;stroke-linecap:square;stroke-miterlimit:4;stroke-dasharray:none;stroke-opacity:1"></path><path d="m68.848 117.107-1.496 1.533-1.372.026.537 1.512c.506.985.19 1.559-.074 2.159l-.212 2.665-2.913.708 1.24-2.414-1.108-1.505 1.621-1.968.645-1.108-.992-.876.942-1.356zm-1.221 21.012c.328.78.098 1.188-.016 1.673l-.01 1.113c.602.89.642 1.876.911 2.822l-1.473 1.827c.424.712.713 1.43.273 2.172l-2.654.92-.96-.149 1.82-2.331 1.488-2.001-3.06.612.133-1.836 2.464-2.43-2.233-.894.827-1.306c.827-.078 1.42-1.168 2.49-.192m3.959 69.474.447 1.775.803 1.299.73 1.342.446.72.992 1.025-1.301 2.03-1.108.314s-.016-2.877-.198-2.86-1.968.942-1.968.942l.48-3.621-2.498 1.356.331-2.431 1.521-1.538zm37.446 14.824c.014.398.753.741 1.302 1.099l1.022.917c.867.047 1.171.707 1.576 1.257l1.83.215c.473.02 1.011.112 1.92.611l-2.73 2.167s.265-2.365.083-2.365c-.181 0-1.273-.033-1.273-.033l-2.083 1.753-.546-2.514-.414-.562-1.554.91s-1.406.793-1.257.578.629-3.638.629-3.638z" style="fill:#d10c01;fill-opacity:1;stroke:none;stroke-width:.2;stroke-linecap:square;stroke-miterlimit:4;stroke-dasharray:none;stroke-opacity:1"></path><path d="M95.292 119.797c-5.731 4.888-10.375 3.038-13.867 1.555-.951-.282-.846.658-.479.932 3.073 2.29 8.792 4.404 15.03-1.326 1.164-.603-1.128-1.378-.684-1.16z" style="fill:#d10c01;fill-opacity:1;stroke:#000;stroke-width:.2;stroke-linecap:square;stroke-miterlimit:4;stroke-dasharray:none;stroke-opacity:1"></path><path fill="#0f0804" d="M291.18-928.853c4.79-4.25 9.87-8.42 15.9-10.78 1.62 6.31 2.12 12.81 2.93 19.25 5.83 1.54 11.01-1.94 16.54-2.93.3.2.92.59 1.22.79 2.27 4.69 1.2 10.2 3.06 15.01 3.41 3.91 8.36 6.33 11.2 10.83 4.15 6.3 8.38 13.76 7.08 21.57-1.67.93-3.56 1.28-5.39 1.74.61 6.05 1.2 12.17 2.95 18.02 1.57 4.72 3.89 9.15 5.58 13.83-3.09-.35-6.17-.79-9.24-1.26 2.67 5.51 4.54 11.37 5.62 17.39.74 4.38 2.55 8.46 4.84 12.24 1.37 3.22 2.79 6.45 3.51 9.89.96 3.64-3.53 6.02-3 9.63.7 6.9 3.09 13.54 3.43 20.49l-.57.51c-1.8-.35-3.6-.7-5.4-1.04 0 7.68 2.51 15.91-1.59 23.02-2.14-1.09-4.28-2.19-6.42-3.29-.53 6.58-1.39 13.14-2.59 19.63-.16.37-.48 1.09-.65 1.45-1.33.8-2.68 1.62-4.19 2.04-2.39-1.91-4.3-4.34-6.44-6.52-4.3 12.77-5.32 27.08-.89 39.94 4.16 8.95 11.83 17.29 21.9 19.18 7.42 1.63 15.63.02 21.66-4.68 4.85-4.01 6.84-10.49 7.25-16.58.65-12.31-2.07-24.48-5.43-36.24-2.89-10.94-5.33-21.99-8.02-32.97-1.69-9.18-3.46-18.39-3.9-27.73-.56-16.75.55-33.66 4.53-49.99.69-2.94 1.24-5.92 1.75-8.9-4.22.69-7.716 1.103-11.996 1.373 1.27-11.1 7.795-19.713 15.085-27.643 3.21-3.28 4.05-7.91 4.87-12.24 1.51-8.2 5.44-15.82 10.65-22.27 4.79-5.57 10.53-10.87 17.91-12.56-1.85 7.27-4.37 14.42-4.67 21.99 6.53-.89 13.95-2.84 19.55 1.86-4.41 6.45-9.63 12.45-12.83 19.65-.68 1.78-1.57 4.03-.31 5.76 3.17 4.46 8.04 7.52 10.65 12.41 1.27 2.19 1.09 4.85.46 7.22-6.62-.03-13.57-.18-19.65 2.82-5.56 2.72-10.87 6.92-13.02 12.93-4.42 11.69-3.8 24.41-3.46 36.67 1.09 12.92 2.76 25.81 5.31 38.53 1.67 8.41 2.45 17.04 5.5 25.12 1.8-2.46 3.55-4.97 5.37-7.41 4.99 6.01 7.18 13.61 9.37 20.95 2.48-1.03 4.95-2.08 7.44-3.09.92 4.17 2.35 8.55 1.08 12.81-1.43 5.73-5.6 10.39-6.72 16.2.05 5.62 2.32 10.96 2.84 16.55-3.31-.82-6.61-2.02-10.06-1.99-3.04.15-3.98 3.75-4.15 6.25.47 4.11 3.08 7.54 4.98 11.1-4.89 1.96-11.25 2.81-13.86 8.01-2.93 6.1-3.9 13.13-3.04 19.82.63 3.88 2.16 8.54 6.34 9.84 6.43 2.45 13.12-.28 19.06-2.77.5-.06 1.5-.17 2-.22 2.58 5.86 2.77 12.66-.21 18.43-2.26 5.58-7.83 8.43-12.53 11.63 6.16.72 12.31-.2 18.39-1.12-.4 5.2-1.14 10.7-4.36 15-3.25 4.56-8.62 6.69-13.33 9.38 4.16 4.15 9.82 6 15.52 6.77-.22 4.4-1.16 9.3-5.12 11.9-6.97 5.33-16.23 2.74-23.91.7 1.46 4.25 3.05 8.46 4.72 12.64-4.35 5.47-10.55 9.75-12.93 16.58-3.17 8.48.84 22.092-2.587 26.113-1.703 1.998-3.528-1.634-5.1-4.443-3.174 3.376-4.397 11.664-6.407 12.999-1.5.995-3.307-4.272-3.307-4.272-2.95 3.18-7.289 7.873-9.639 11.543-5.07 7.74-1.7 18.63-8.38 25.6-5.33 5.18-10.85 10.74-18.19 12.89.23-4.47 1.06-8.87 1.86-13.26-4.95 3.5-8.68 8.85-14.75 10.57-1.22-5.07-.46-10.26.84-15.23-3.63 2.7-7.37 5.23-11.26 7.54-.77-1.88-1.66-3.73-2.05-5.72-.16-5.51 3.37-10.41 3.1-15.94-.08-4.09-1-8.87 2.24-12.08 6.74-7.67 17.97-6.87 26.44-11.45 6.7-3.26 11.21-9.75 13.47-16.7 3.09-9.33 5.68-18.97 6.19-28.83.09-8.73-3.31-18.24-10.59-23.46-7.41-3.6-16.33-4.58-22.4-10.65-6.28-6.3-6.39-15.74-8.25-23.9-16.29-1.62-32.34 3.47-47.05 10.02-5.5 2.86-11.14 5.83-15.53 10.28-2.12 2.02-1.49 5.24 0 7.42 2.3 3.57 6.34 5.45 10.14 7.02 6.4 2.72 13.49 1.4 20.21 2.14-2.9 4.9-7.89 7.79-12.24 11.22 3.5 2.58 7.38 4.58 11.46 6.09l.56 2.85c-5.74 1.74-11.44 3.61-17.11 5.54 1.298 5.762 8.352 6.049 7.489 10.058-.539 2.499-6.191 2.29-13.819 4.602 1.06 3.17 2.16 6.32 3.15 9.5-6.06.11-12.09-.56-18.12-1.02-4.18-.1-8.81-.54-12.46 1.9-7.09 4.79-11.88 12.21-15.16 19.98-8.32-.14-16.26-2.81-24.46-3.78-6.46-1.1-10.21 5.15-14.49 8.75-2.1-3.93-2.52-8.38-2.72-12.75-1.58 1.51-3.16 3.03-4.76 4.53l-.7.64c-3.35-4.33-1.83-9.9-1.05-14.81-2.25 1.21-4.5 2.42-6.76 3.6-1-3.1-2.02-6.39-1.22-9.66 1.08-5.92 6.22-9.65 9.97-13.9 2.91-3.03 5.46-7.21 10-7.83 12.07-2.06 24.25 2.33 36.31.2 4.76-.75 9.35-3.96 10.65-8.75.92-4.44-1.27-8.75-3.47-12.46-4.7-7.49-10.02-14.77-12.71-23.29-2.86-8.16-3.46-16.98-2.29-25.51 1.78-11.47 8.78-22.19 19-27.84 10.29-5.68 22.17-7.35 32.78-12.25 4.86-2.59 10.07-5.65 12.63-10.74 1.26-2.79-1.85-4.63-3.51-6.33-7.51-6.1-13.84-13.92-16.77-23.25-3.49-8.49-3.99-17.71-5.99-26.56-4.57 4.3-7.95 9.94-13.66 12.91-2.2-5.49-3.94-11.2-6.94-16.34-3.49 3.97-7.16 7.95-12.06 10.19-3.48-5.93-5.53-12.51-8.31-18.76-2.27 3.24-4.5 6.49-7.05 9.51-3.243-4.47-3.165-5.521-4.26-9.9-1.8-7.03-3.22-14.88-8.73-20.07-5.25-4.05-12.19-1.43-18-.32-6.7 1.8-14.1-1.16-20.28 2.78-1.76.5-3.52.95-5.3 1.36-1.36-5.31 1.14-10.41 5.1-13.86 2.14-2.21 4.19-4.51 6.09-6.94-4.11 1.18-8.07 2.77-12.02 4.4l-.16-1.6c.43-3.87 1.03-8.01 3.59-11.11 2.13-2.55 4.81-4.56 7.29-6.76-3.49.25-6.97.53-10.46.67 1.24-9.68 12.15-17.54 21.65-13.97 7.35 3.14 11.72 10.21 17.34 15.51 7.49 6.99 18.27 8.46 26.18 14.84 5.68 4.52 12.48 7.28 19.24 9.73 6.47 2.33 13.59 1.17 20.01-.74 4.76-1.23 6.41-6.37 8.23-10.34-5.81-.24-11.89 1.42-17.52-.43-2.12-3.48-2.11-8.03-3.69-11.84-3.29 2.86-6.78 5.49-10.51 7.76-1.57-5.43-2.83-11.1-6.32-15.7-2.65 2.99-5.47 5.94-9.23 7.51-1.34-4.86-2.84-9.68-4.98-14.26-2.63 3.67-5.69 7.04-9.43 9.6-.33-4.93-.4-9.89-1.13-14.79-1.88-9.61-4.17-20.43-12.38-26.74-6.41-4.91-14.9 1.53-21.62-2.45-3.35-1.85-4.87-5.75-7.94-7.83-3.75.14-7.4 1.25-11.13 1.62.73-5.44 3.61-10.14 6.97-14.36-1.78-.92-4.11-1.32-5.19-3.18.69-5.81 6.15-9.25 10.61-12.21-3.09-.07-6.18-.25-9.26-.58 1.03-5.45 4.75-10.37 10.16-12.02 3.88-.79 7.86-.17 11.79-.46 2.9-.03 5.94-.56 8.75.38 3.41 1.71 5.84 4.81 8.04 7.83 5.09 7.48 8.97 15.7 13.56 23.48 2.49 4.42 6.68 7.42 10.72 10.31 7.42 5.19 11.99 13.41 19.37 18.64 4.99 3.51 10.62 6.37 16.72 7.23 5.99.9 12.23.76 17.91 3.12 3.44 1.24 6.51 3.52 10.15 4.18 2.56-1.03 4.39-3.21 6.36-5.05-2-.34-4.01-.68-6.01-1 1.54-4.76 3.32-9.43 5.14-14.09-2.82.01-5.64 0-8.47-.07.92-2.05 1.89-4.07 2.72-6.16 1.24-2.8 1.61-5.86 1.9-8.89-7.43.5-8.592 4.655-17.954 7.193-4.231 1.147-7.46-6.213-8.514-10.963-.697-6.318 7.45-5.548 11.438-7.14 3.94-1.03 7.63-3.01 10.38-6.06.57-1.42 1.29-3.06.57-4.56-.92-1.73-3.07-1.35-4.7-1.45-4.83 1.02-8.64 4.32-11.97 7.76-3.206 2.046-11.867 7.205-17.78-6.82-1.05-2.34-1.14-5.65 1.3-7.16 6.94-5.53 15.9-8.3 21.9-15.05 3.77-4.09 4.56-10.41 9.48-13.52 6.56-4.26 14.18-6.47 21.16-9.94 5.35-2.47 5.73-9.3 9.78-13.08m9.31-1.8c-2.94 1.38-5.63 3.27-7.76 5.74-.35 1.49-.74 2.98-1.13 4.46 4.918-.742 8.462-3.537 8.462-3.537 1.854-.523 5.778-.123 5.778-.123.2-3.16.15-6.34-.11-9.49-1.76.96-3.55 1.88-5.24 2.95m-4.17 12.84c-10.45 5.01-21.08 9.63-31.62 14.46-4.37 1.69-3.79 7.31-6.44 10.5-6.5 7.81-16.13 11.86-24.12 17.85-1.09.79-2.43 2.03-1.8 3.54 1.06 2.71 3.12 4.92 5.43 6.63 7.59-1.88 12.41-10.61 20.86-10.39 5.46.25 8.59 6.85 6.06 11.52-3.6 7.6-12.82 8.57-20.01 10.61.84 2.43 1.48 5.02 3.1 7.07 7.51.28 11.27-9.18 18.82-8.26 2.29.29 4.65 1.71 5.56 3.9.97 4.63-2.21 8.58-3.72 12.69 3.76-1.88 6.9-4.75 9.51-8.01.53-.04 1.58-.13 2.1-.17-.57 1.78-1.13 3.57-1.68 5.36-.56 1.8-1.15 3.58-1.78 5.35-.19 1.01-.36 2.01-.54 3.02-1.57 2.39-2.32 5.16-2.94 7.91 1.95.03 3.9.03 5.85-.04.52.62 1.05 1.23 1.58 1.84-1.63 3.51-3.64 6.83-6.21 9.74-1.3 1.32-2.58 2.68-3.83 4.05 2.34-.03 4.67-.06 7.01-.22.44.45 1.33 1.36 1.78 1.81-3.06 5.26-8.07 8.78-12.33 12.96 2.68.37 5.3-.23 7.82-1.12 1.93 3.38 2.66 7.23 2.46 11.1-1.14 2.31-2.3 4.61-3.51 6.88 2.23-.45 4.45-.92 6.67-1.43l.72 1.71c-.6.44-1.19.88-1.79 1.31-1.97-.11-3.93-.21-5.9-.14l.41 1.05c-.27 2.85-.65 5.68-1.16 8.5-.58 2.8-2.87 4.51-4.87 6.3 6.5 1.18 12.66-2.83 16.96-7.34 1.75 1.91 3.37 4.04 3.97 6.62 1.35 5.05 2.8 10.11 5.44 14.66 3.2-3.49 6.05-7.91 7.16-12.36l3.24-2.7c1.8 7.23 4.8 14.16 9.29 20.14 3.75-3.95 6.51-8.93 7.42-14.33.2-1.29 1.34-2.11 2.06-3.11l-.53.86c1.93-.15 3.86-.39 5.8-.37-.81 1.6-1.76 3.13-2.74 4.62 3 5.15 6.6 9.91 10.26 14.61 1.28-2.53 2.18-5.22 3.09-7.91l.8.43c-.13-2-.27-3.99-.44-5.98-.03-1.14-.04-2.27-.04-3.4-.69-.62-1.38-1.23-2.08-1.83 1.29-2.51.43-5.35.52-8.03.4.08 1.2.22 1.6.3 2.67 2.27 5.29 4.6 8.04 6.77 2.67-6.48-.61-9.931-2.445-19.26l-1.44-6.28c1.6.23 3.576-.165 5.196.025.88 1.55 2.415 4.236 4.035 5.046-.16-2.63-1.176-6.481-1.566-9.081-2.362-2.337-2.178-9.691-3.43-13.1-.14-.43-.42-1.28-.57-1.7l-.76-.22c-1.379-4.491-6.089-6.287-4.36-10.52 2.911 3.012 5.071 4.417 7.331 5.777-1.18-4.07-3.88-6.805-4.6-11.005-.06-2.98-.99-8.242-2.42-10.892l.15-.32c-.67-2.27-.995-3.77-2.311-7.03-4.606-13.71-9.199-15.47 3.816-11.024-.59-4.765-2.476-9.766-4.646-13.896-.06-3.96-.125-8.045-.615-11.975-.3-4.19-1.468-6.729-5.16-10.219 4.626-.731 7.976 1.845 11.446 2.505-1.33-5-5.31-9.941-8.36-13.961-1.41-1.74-2.9-3.4-4.49-4.97-1.3-.71-2.6-1.4-3.91-2.08-.26 1-.5 1.99-.74 2.99.21 1.5.4 2.99.59 4.49 1.64 2.93 3.66 5.61 5.7 8.27-.79.01-2.38.03-3.17.05-3.05-3.34-3.85-8.15-7.31-11.14 1.16-6.78 2.2-13.61 2.1-20.51-3.88 1.6-7.91 2.78-11.93 3.96-4.76 1.31-7.78 5.58-12.25 7.47 1.32-3.96 4.21-7 7.06-9.93.41-1.93-1.92-1.86-3.17-2.35-3.08-.87-6.29-.01-9.08 1.35m83.18 36.16c-6.14 5.79-11.21 12.68-15.16 20.13 4.33-.48 8.67-.79 13.04-.73-1.76 7.82-4.71 15.31-6.31 23.18-.23 1.59-.8 3.26-.31 4.86l-.35-.36c-.32 3.53-.97 7.03-1.14 10.57-1.04 4.8-.73 9.74-.91 14.62-.04 8.72-.39 17.57 1.31 26.17.6 3.92 1.68 7.75 2.21 11.68 2.51 15.54 7.29 30.57 11 45.84 3.2 12.34 5.56 26.11-.43 38.02-3.67 9.12-13.18 14.77-22.74 15.54-7.32 1.13-14.54-1.41-20.75-5.12-2.27-1.86-4.68-3.57-6.7-5.71-3.92-4.05-6.09-9.39-8.07-14.57-.79-3.58-1.52-7.18-2.53-10.71.15-3.73-.27-7.45-.1-11.18.38-5.54 1.69-10.96 2.81-16.39.74-3.88 2.16-7.95.47-11.79-1.1 1.31-2.19 2.61-3.25 3.94-2.18 2.65-4.44 5.38-7.73 6.64-1.65-1.39-3.26-2.81-4.87-4.24-1.82-3.54-3.95-6.9-6.07-10.27-2.67 4.16-5 9.22-9.97 11.03-1.86-2.85-4.23-5.37-5.8-8.41-1.42-3.35-1.99-6.97-3.09-10.42-3.81.98-7.39 2.82-11.32 3.3-4.26.27-8.58 0-12.7-1.16 2.52-2.83 5.16-5.62 6.71-9.14-5.87 1.18-11.88 1.6-17.66 3.22-7.6 2.07-15.48 3.11-23.35 2.82-4.86-1.02-9.8-2.41-13.98-5.19-1.97-1.27-4.03-2.42-6.28-3.14-5.28-3.75-10.38-8.03-16.6-10.15-5.7-2.09-10.98-5.26-15.58-9.2-3.99-3.4-6.43-8.25-10.52-11.53-2.18-1.81-4.95-2.59-7.58-3.47-5.581-.04-8.69 1.809-10.744 3.899 2.927 1.644 7.106 1.372 10.683 2.431 3.047 1.437 1.75 2.31-.04 4.21-3.88 3.21-10.749 5.553-13.124 10.623 7.96-2.07 11.694-1.463 16.574.057-.487 3.352-2.942 4.589-5.21 6.38-4.092 3.37-8.77 7.456-10.798 10.916 3.051-1.085 7.797-1.95 11.468-2.166 5.03 1.19 9.9-.66 14.76-1.68.21-.26.63-.78.84-1.03 2.57.03 5.19-.17 7.72.43 4.09.95 6.73 4.5 10.14 6.67 4.01 4.32 6.44 9.8 7.35 15.6.32 1.87.72 3.73 1.16 5.58 1.1-1.78 1.97-3.7 2.54-5.72a59 59 0 0 1 2.17-3.68c2.13 2.19 3.85 4.73 5.71 7.14 1.45 2.79 2.695 5.452 4.225 8.202-.24.36.032.824-.208 1.184l.729.692c1.11.95 1.354 3.052 3.214 2.432 2.27-2.55 3.89-5.59 5.48-8.59l.982-2.02h1.818c3.06 3.69 5.36 7.9 7.81 12 1.05 1.74-.11 4.52 2.18 5.46 3.31-2.93 5.55-6.86 5.45-11.38 5.25 1.94 10.66 3.95 14.84 7.83.25 2.47.54 4.94.73 7.42-1.36-1.06-2.69-2.16-4.03-3.24.43 3.51.02 7.78 2.1 10.69.36 3.7 1.31 7.43 3.12 10.69 1.47 6.98 7.14 11.72 12.13 16.3 6.85 5.33 14.92 8.77 22.69 12.53 1.35 1.21 2.97 2.08 4.67 2.7 3.67 3.46 7.85 6.42 10.96 10.44 2.52 3.08 3.86 6.88 6.12 10.13.26 1.15.8 2.22 1.29 3.3 2.97 10.44 4.52 21.26 4.57 32.12.48 8.01 2.05 17.39 9.13 22.29 6.9 3.74 15.05 4.83 21.45 9.58 5.94 4.02 8.75 11.07 10.06 17.86 1.05 8.22-.42 16.46-1.82 24.54-.77 4.79-3.04 9.14-4.35 13.78-1.87 6.91-6.6 12.53-11.33 17.7-6.76 7.35-18.23 4.42-25.99 10-2.12 1.52-4.24 3.29-5.37 5.69-.95 3.1.91 6.608 2.81 8.958-4.523 2.95-6.604 7.376-5.844 12.486 2.835-3.58 6.326-6.128 10.771-8.33 2.32-2.91 4.255-6.564 8.26-7.29-2.642 3.489-3.567 6.054-4.43 9.484-1.582 4.713-2.525 9.315-2.44 13.204 1.866-2.446 5.222-8.17 8.437-7.17 3.966-3.115 6.761-8.103 9.656-9.815-.56 3.006-1.83 4.373-2.73 6.793-.06.91-1.5 3.524 0 3.834-.34 2.29-.454 4.462-.51 6.792 3.834.317 4.766-3.15 6.586-4.78 4.17-3.49 6.279-8.887 7.389-14.067.52-4.4-.61-9.15 1.7-13.18 2.6-4.56 6.79-7.88 9.86-12.09 3.558-5.257 3.17-4.903 3.685-4.848.735.079 1.553 1.676 3.27 3.689 1.45-4.03 1.81-8.31 2.75-12.46 1.14-.46 2.28-.91 3.42-1.37.69 1.52 1.41 3.02 2.25 4.48-.28-6.65-1.07-13.43.67-19.97.66-4.16 3.42-7.51 6.73-9.93 1.5-.93 3.01-1.86 4.51-2.8.26-.55.8-1.64 1.06-2.19-2.77-6.3-7.21-12.94-4.77-20.11 4.16 2.56 8.58 5.01 13.54 5.47 5.61.54 12.47.94 16.13-4.28-3.02-1.27-6.16-2.34-8.91-4.17-1.33-.89-2.38-2.76-4.11-2.69-3.02-3.26-5.3-7.19-5.81-11.66l.32-.41c8.54 3.09 19.59-2.52 20.89-11.72-4.46.66-8.98 2.26-13.51 1.09-6.65-1.2-11.9-7.01-13.07-13.58 5.91 1.35 13.09 2.3 18.43-1.22 4.06-3.82 5-9.51 5.11-14.83-2.63.88-5.25 1.8-7.81 2.86-4.88.21-10.22 1.08-14.63-1.58-4.56-2.99-6.04-8.63-7.3-13.6-1.55-9.97.26-21.61 8.38-28.42 1.9-.72 3.77-1.51 5.66-2.26-1.82-3.9-2.53-8.17-2.25-12.45 1.27-2.74 2.49-6.05 5.58-7.17 2.6-1.27 5.53-.88 8.31-.76-.81-3.48-2-6.978-4.3-9.728 1.44-2.74 2.71-5.262 4.39-7.872.91-1.62 1.82-3.24 2.72-4.87 1.05-2.52 2.696-5.473 3.016-8.268-5.155.722-8.493 4.507-12.673 6.847l-.215-1.81c.054.455 6.627-12.9-1.097-20.519-2.17 3.24-4.35 6.55-7.42 9.02-5.68-15.26-7.27-31.56-10.42-47.43-1-6.64-1.82-13.3-2.7-19.95-.28-3.51-.68-7.01-.94-10.52-.09-6.12.36-12.23.23-18.34-.07-1.46-.1-2.92-.1-4.38.49-1.89.93-3.8 1.36-5.7.13-1.57.4-3.13.35-4.7 1.14-2.5 2.34-4.97 3.44-7.49h1.01c.88-1.61 1.78-3.21 2.64-4.84 1.53-1.24 3.1-2.43 4.66-3.63 5.16-2.49 10.16-5.7 16.01-6.29 1.64-.04 3.29-.12 4.93-.22-1.67-2.59-3.69-4.95-6.11-6.87-2-1.69-4.42-2.73-6.73-3.9 1.82-9.69 7.94-17.57 12.22-26.19-5.96-1.04-10.93 3.03-16.5 4.25-1.03-5.85.73-11.65.68-17.5-10.01 8.47-13.62 21.91-16.04 34.29m-219.68-.82c-4.21-.97-10.54-1.459-13.94 1.871 3.524.563 6.859 1.763 8.28 3.929-2.8.66-4.15 3.11-3.16 5.82-3.26 1.27-6.38 2.97-8.67 5.66 2.33.32 4.77.25 7.01 1.06 1.21.28 2.27 2.36.96 3.2-3.21 2.87-7.41 4.93-8.9 9.28 2.84-.35 5.65-.93 8.52-.95l-.38.93c2.2 3.26 4.15 7.35 8.26 8.49 3.34-.32 6.56-1.46 9.93-1.58 7.35.56 14.34 4.91 17.87 11.42 4.81 7.57 5.94 16.61 8.03 25.13 1.36-2.52 2.29-5.23 3.3-7.9 4.73 4.38 6.31 10.81 8.95 16.45 2.03-1.58 3.94-3.29 5.8-5.05l1.8.2c1.05 1.44 2.12 2.87 3.22 4.29 1.98 2.77 4 5.51 5.87 8.36.7-.39 2.1-1.16 2.79-1.54 1.02-.79 2.03-1.59 3.03-2.39 3.28 1.83 6.14 4.51 7.4 8.13.16.73.49 2.17.66 2.89l.81 2.87c6.69.46 13.92-.98 18.7-6.02-2.41-1.61-5.14-2.8-7.22-4.86 1.34-.76 2.7-1.51 4.06-2.24 1.46-.45 2.92-.92 4.37-1.39-.76-1.22-1.54-2.43-2.32-3.64 2.08.06 3.75 1.66 5.62 2.42.83-.45 2.49-1.36 3.31-1.82-1.04-.98-2.07-1.95-3.06-2.97 1.32.91 2.57 1.93 3.93 2.78 2.57-1.06 4.95-2.55 7.23-4.13-3.95-.76-7.5-2.54-10.85-4.68-3.19-2.81-7.3-4.11-11.44-4.63-8.32-1.59-17.16-1.48-24.9-5.31-6.08-2.89-10.85-7.8-15.13-12.87-3.57-4.35-8.22-7.63-13.09-10.38-2.33-2.83-5.32-5.04-7.8-7.74-2.55-2.55-4.26-5.76-6.16-8.78-.5-2.51-1.97-4.68-3.04-6.96-3.42-6.84-7.27-13.88-13.65-18.39-1.8-1.42-4.71-.79-6 1.04m102.15 89.4c1.1.98 1.81 2.38 3.26 2.97-1.88 2.03-3.9 3.95-5.6 6.14-1.19.96-2.73 1.88-2.59 3.64-.35 3.88-1.88 7.46-3.2 11.07 4.81.11 9.88-.36 14.06-2.95 1.97-1 2.87-3.06 3.21-5.14 3.42-3.96 3.75-9.39 2.95-14.34-4.09.49-8.19-.09-12.09-1.39m8.19 129.13c-6.68 6.21-15.36 9.64-24.03 12.05-5.84 1.55-12.24 1.95-17.3 5.58-3.31 2.34-6.9 4.36-9.84 7.19-5.08 4.75-7.85 11.59-8.61 18.41l-.25.37c-.42 6.79-.22 13.67 1.15 20.34 2.57 10.43 10.05 18.49 15.49 27.46 2.14 3.55 2.66 7.75 2.65 11.82-1.93 6.04-6.54 11.62-12.91 13.1-12.74 3.11-25.82-.55-38.69.46-3.97.11-5.52 4.38-7.64 7.05-4.63 2.34-10.684 7.714-10.374 13.584 4.272-3.254 8.974-6.51 13.214-7.594 3.58-1.07 7.23-2.09 10.99-2.11-2.79 1.95-6.12 2.8-9.11 4.34-.84 1.14-.83 2.27.01 3.41-2.86 3.06-5.85 6.16-7.34 10.16 3.62-1.14 6.91-3.06 10.1-5.08 3.71-1.06 7.5-2.02 11.4-1.96-3.17 1.71-6.67 2.74-9.71 4.68-1.97 2.77-4.755 7.174-3.185 10.444 2.02-1.75 5.055-4.664 6.935-6.564 8.03.79 15.82 3.24 23.85 4.16 1.24.07 2.76.15 3.25-1.29 2.11-3.8 3.74-7.95 6.76-11.18 3.5-4.4 8.537-7.205 13.787-9.085 6.48-.09 12.625.253 20.079.622.299-2.965-2.96-4.552-2.742-7.071.282-3.27 8.281-2.541 13.16-2.663-2.36-3.54-6.902-7.3-6.372-11.96 4.36-1.26 9.679-2.135 13.949-3.695-4.17-2.33-8.318-4.697-11.858-7.907l-.293-1.5c3.957-1.099 7.865-2.726 11.075-4.997-4.18.016-9.125-.314-13.015-2.074-4.94-2.41-9.24-6.19-12.12-10.87-1.35-1.98-.89-4.56-.47-6.76 1.55-4.37 5.47-7.25 9.2-9.7 13.52-8.96 28.86-16.08 45.24-17.18.54-.12 1.62-.37 2.16-.49 1.75-.08 3.51-.18 5.26-.27 1.46-.01 2.92 0 4.38.02.82.04 2.45.12 3.26.15.23-6.84.36-14.05-2.61-20.39-.11-1.32-.68-2.55-1.09-3.78-.45-1.19-.85-2.39-1.23-3.6-1.01-3.22-2.62-6.24-4.93-8.71-.3-.36-.89-1.08-1.18-1.44-1.94-2.99-4.5-5.53-7.44-7.54-1.82-.05-3.63-.06-5.44-.22l.44-1.83c-1.71-1.12-3.4-2.27-5.21-3.22-1.69-.57-3.35-1.4-5.17-1.43-2.75 2.73-4.79 6.1-7.63 8.76" style="fill:#000;fill-opacity:1;stroke:none;stroke-width:1.26047;stroke-miterlimit:4;stroke-dasharray:none;stroke-opacity:1" transform="translate(26.608 350.345)scale(.2643)"></path><path d="M51.924 82.517c15.799-5.89 31.743-8.83 48.076-8.83" style="fill:none;stroke:#000;stroke-width:5.25;stroke-linecap:round;stroke-linejoin:miter;stroke-miterlimit:4;stroke-dasharray:none;stroke-opacity:1"></path><path d="M377.953 56.508c-6.179 10.77-26.141 27.166-27.387 49.664-6.578-8.791-17.41-13.19-25.66-14.277-43.466-5.728-44.415 46.95-13.947 71.134 14.876 11.808 14.348 38.277 12.15 45.29 26.044 7.25 35.061-1.428 45.106-9.034 5.145 38.52-37.931 78.234-74.149 50.512-3.494-2.675-6.924-5.978-10.242-9.97 12.87-20.643-65.68-23.646-28.701 5.679-10.34 39.619-60.328 46.225-84.408 11.28 18.959-.272 26.84-5.706 38.928-19.643-10.955-7.44-20.835-24.833-17.74-40.375 7.1-35.657-5.311-71.003-42.26-59.983-13.326 3.975-21.17 23.352-22.143 35.358-15-16.905-32.43-29.3-62.5-24.643 29.272 29.685 28.513 50.803 44.285 63.928 8.048 5.333 17.536 6.854 21.688 13.32 9.782 15.235 18.359 29.49 28.283 43.139q.9 1.238 1.816 2.47c42.387 45.379 94.841 26.26 109.643-21.072 36.332 43.397 92.17 26.17 107.238-16.785 15.069 42.955 70.906 60.182 107.238 16.785 14.802 47.332 67.256 66.451 109.643 21.072 10.707-14.399 19.723-29.452 30.098-45.609 4.151-6.466 13.64-7.987 21.687-13.32 15.773-13.125 15.015-34.243 44.287-63.928-30.07-4.656-47.5 7.738-62.5 24.643-.973-12.006-8.818-31.383-22.144-35.358-36.95-11.02-49.36 24.326-42.26 59.983 3.095 15.542-6.785 32.934-17.74 40.375 12.088 13.937 19.97 19.37 38.93 19.642-24.081 34.946-74.068 28.34-84.409-11.28 36.978-29.324-41.57-26.321-28.701-5.679-3.317 3.993-6.75 7.296-10.244 9.97-36.218 27.723-79.291-11.991-74.147-50.51 10.045 7.605 19.06 16.283 45.104 9.032-2.197-7.012-2.724-33.48 12.152-45.289 30.469-24.184 29.519-76.862-13.947-71.134-8.249 1.086-19.082 5.486-25.66 14.277-1.245-22.498-21.208-38.894-27.387-49.664z" style="fill:#fafd15;fill-opacity:1;stroke:#000;stroke-width:7.55906;stroke-linecap:butt;stroke-linejoin:miter;stroke-miterlimit:4;stroke-dasharray:none;stroke-opacity:1" transform="scale(.26458)"></path><path d="m67.866 53.049-3.242 3.043-.793 4.035 1.918 3.77 3.373 1.852 2.505.208 3.468-2.503 1.766-3.923-1.322-4.696-3.043-2.05z" style="fill:#fafd15;fill-opacity:1;stroke:none;stroke-width:.5;stroke-linecap:square;stroke-miterlimit:4;stroke-dasharray:none;stroke-opacity:1"></path><path d="M148.076 82.517c-15.799-5.89-31.743-8.83-48.076-8.83" style="fill:none;stroke:#000;stroke-width:5.25;stroke-linecap:round;stroke-linejoin:miter;stroke-miterlimit:4;stroke-dasharray:none;stroke-opacity:1"></path><path d="m100 76.478-7.267 3.388 7.274 3.388 7.267-3.388z" style="fill:#d10c01;fill-opacity:1;stroke:#000;stroke-width:.265;stroke-linecap:square;stroke-miterlimit:4;stroke-dasharray:none;stroke-opacity:1"></path><path d="M51.924 82.517c15.799-5.89 31.743-8.83 48.076-8.83" style="fill:none;stroke:#fafd15;stroke-width:1.6;stroke-linecap:round;stroke-linejoin:miter;stroke-miterlimit:4;stroke-dasharray:none;stroke-opacity:1"></path><circle cx="70.374" cy="59.035" r="6.527" style="fill:none;stroke:#000;stroke-width:1.94507;stroke-linecap:round;stroke-miterlimit:4;stroke-dasharray:none;stroke-opacity:1;paint-order:stroke fill markers"></circle><circle cx="70.378" cy="59.001" r="2.569" style="fill:none;stroke:#000;stroke-width:2.36159;stroke-linecap:round;stroke-miterlimit:4;stroke-dasharray:none;stroke-opacity:1;paint-order:stroke fill markers"></circle><circle cx="100" cy="38.587" r="3.426" style="fill:none;stroke:#000;stroke-width:3.14879;stroke-linecap:round;stroke-miterlimit:4;stroke-dasharray:none;stroke-opacity:1;paint-order:stroke fill markers"></circle><path d="m71.306 81.477 10.805-1.905.54 3.063-10.788 1.999z" style="fill:#d10c01;fill-opacity:1;stroke:#000;stroke-width:.264583px;stroke-linecap:butt;stroke-linejoin:miter;stroke-opacity:1"></path><circle cx="-166.14" cy="58.069" r="3.426" style="fill:none;stroke:#000;stroke-width:3.14879;stroke-linecap:round;stroke-miterlimit:4;stroke-dasharray:none;stroke-opacity:1;paint-order:stroke fill markers" transform="scale(-1 1)"></circle><path d="m128.701 81.477-10.804-1.905-.54 3.063 10.788 1.999z" style="fill:#d10c01;fill-opacity:1;stroke:#000;stroke-width:.265;stroke-linecap:butt;stroke-linejoin:miter;stroke-miterlimit:4;stroke-dasharray:none;stroke-opacity:1"></path><path d="m146.802 84.669-9.034.787 6.38 6.13z" style="fill:#d10c01;fill-opacity:1;stroke:#000;stroke-width:.264583px;stroke-linecap:butt;stroke-linejoin:miter;stroke-opacity:1"></path><path d="m88.867 119.573 6.431-4.77 2.058-3.251 7.18-3.602 4.7-.561-1.894 3.227 6.478-3.32-.514 6.08.42-.678 1.52 3.18.749.094-1.497-3.228.515-1.005s4.583 5.94 4.256 5.94-3.368-1.123-3.368-1.123l2.62 9.331-2.245-.467s3.975 11.038 3.835 11.038-2.362-1.1-2.362-1.1l2.993 8.794-2.198-1.73 1.146 7.249-2.268-1.614-.866 6.876-3.25-3.93-2.526 2.877-2.9-5.261s-1.1 5.916-2.222 4.209-2.946-4.981-2.946-4.981l-4.21 1.777 1.498-4.28-5.052 1.497.888-2.526 1.754-2.408s-1.122-.725-.889-.819.702-.701.702-.701 2.597.725 2.597.818c0 .094-1.778-1.216-1.662-1.216s3.275-3.227 3.275-3.227l-1.613-.398 2.408-4.14h-3.274l2.479-5.167-2.947 1.403-.28-.21.771-3.836-1.964.047-3.695 2.362-.866-2.316 5.964-3.671-2.292-2.83-2.783 1.286-3.017 2.129zm-5.075-.327-.14 4.794 2.783.07z" style="fill:none;stroke:none;stroke-width:3;stroke-linecap:square;stroke-miterlimit:4;stroke-dasharray:none;stroke-opacity:1"></path><circle cx="100" cy="38.587" r="1.967" style="fill:none;fill-opacity:1;stroke:#d10c01;stroke-width:2.5668;stroke-linecap:square;stroke-miterlimit:4;stroke-dasharray:none;stroke-opacity:1"></circle><path d="M98.686 114.943c-1.01-2.402.92-3.562 2.04-1.673-.436.229 1.243.58.474.817-1.197-.137-1.24.949-2.514.856" style="fill:#000;fill-opacity:1;stroke:none;stroke-width:.0499999;stroke-linecap:square;stroke-miterlimit:4;stroke-dasharray:none;stroke-opacity:1"></path><g style="font-style:normal;font-variant:normal;font-weight:400;font-stretch:normal;font-size:22.5778px;font-family:&quot;Tw Cen MT&quot;;-inkscape-font-specification:&quot;Tw Cen MT, Normal&quot;;font-variant-ligatures:normal;font-variant-caps:normal;font-variant-numeric:normal;font-variant-east-asian:normal;fill:#000;fill-opacity:1;stroke:none;stroke-width:2;stroke-linecap:square;stroke-miterlimit:4;stroke-dasharray:none;stroke-opacity:1"><path d="M97.77-53.945h3.406q4.046 0 6.019 2.139t1.973 4.884q0 2.767-2.04 4.895t-5.93 2.127h-3.429zm1.917 1.874v10.275h.11q2.14 0 3.22-.187 1.08-.199 2.05-.85.97-.65 1.544-1.72.573-1.08.573-2.37 0-1.62-.915-2.932t-2.194-1.764q-1.268-.452-3.417-.452zm14.894-2.414 6.637 14.585h-2.006l-1.643-3.594h-5.964l-1.599 3.594h-1.995zm0 4.398-2.26 4.994h4.52zm8.699-3.837h2.028l4.399 9.933 4.431-9.933h2.051l-6.504 14.497zm13.725-.023h1.896v14.045h-1.896zm3.66 0h1.896v12.149h4.575v1.896h-6.471zm14.177-.54 6.637 14.585h-2.007l-1.642-3.594h-5.964l-1.599 3.594h-1.995zm0 4.399-2.26 4.994h4.52zm12.006-3.86h3.406q4.046 0 6.02 2.14 1.973 2.138 1.973 4.883 0 2.767-2.04 4.895t-5.93 2.127h-3.43zm1.918 1.875V-41.8h.11q2.139 0 3.22-.187 1.08-.199 2.05-.85.97-.65 1.543-1.719.573-1.08.573-2.37 0-1.62-.915-2.933t-2.194-1.764q-1.267-.451-3.417-.451zm10.484-1.875h7.783v1.918h-5.887v3.506h5.887v1.896h-5.887v4.829h5.887v1.896h-7.783zm23.185 1.633-1.555 1.245q-.617-.64-1.124-.948-.496-.32-1.444-.32-1.037 0-1.687.475-.64.463-.64 1.201 0 .64.563 1.136.562.485 1.918 1.069 1.356.573 2.106 1.08.76.497 1.245 1.103t.717 1.279q.243.672.243 1.422 0 1.753-1.28 2.987-1.267 1.235-3.075 1.235-1.764 0-3.12-.959-1.345-.97-2.073-2.9l1.919-.54q1.047 2.37 3.208 2.37 1.047 0 1.742-.628.694-.628.694-1.587 0-.574-.364-1.147-.363-.584-.904-.959-.54-.375-1.73-.849-1.18-.485-1.82-.882-.628-.408-1.09-.959-.464-.562-.684-1.113-.21-.551-.21-1.18 0-1.51 1.213-2.569 1.212-1.069 2.943-1.069 1.147 0 2.326.496t1.963 1.51m4.604-3.339 10.01 12.514-1.946.491-2.473-3.081-5.783 1.462-.668 3.876-1.935.49zm1.078 4.265-.967 5.396 4.382-1.108zm3.643-5.547 14.284 4.236-4.951-8.827 1.673-.938 7.19 12.817-14.257-4.188 4.881 8.701-1.673.939zm12.464-7.051 6.189-5.954 1.33 1.382-2.415 2.324 8.407 8.739-1.366 1.315-8.408-8.74-2.407 2.316zm7.959-9.562 15.744 2.982-1.156 1.64-3.884-.73-3.437 4.875 2.016 3.377-1.15 1.631zm3.595 2.535 2.779 4.725 2.605-3.694zm5.649-20.623 2.073.648q-1.74 1.836-2.308 3.656-.73 2.336.286 4.409 1.005 2.07 3.205 2.756 2.241.7 4.255-.46 2.007-1.176 2.776-3.638.559-1.789.058-4.14l2.094.654q.4 2.123-.265 4.249-.973 3.114-3.767 4.667-2.806 1.55-5.784.619-2.925-.914-4.332-3.732-1.403-2.83-.446-5.891.614-1.968 2.155-3.797m-.275-1.474.164-3.038q.121-2.268 1.332-3.627 1.2-1.37 2.96-1.276 1.41.076 2.439 1.058t1.364 2.966l6.22-3.761-.119 2.19-5.977 3.587-.024.43 5.769.31-.103 1.915zm1.798-1.824 4.888.263q.316-4.234-2.227-4.37-.891-.049-1.48.417-.599.464-.841 1.28-.254.814-.34 2.41m-1.262-6.887-.284-1.897 8.536-1.28q1.897-.284 2.797-1.344.899-1.071.649-2.74-.249-1.657-1.334-2.43-1.099-.783-2.832-.523l-8.864 1.328-.284-1.897 8.733-1.309q2.55-.382 4.296.85 1.744 1.221 2.107 3.642.37 2.474-.954 4.2-1.326 1.715-4.346 2.168zm-2.385-12.096-3.24-8.91 13.709 2.148-2.246-6.175 1.783-.647 3.307 9.096-13.672-2.114 2.162 5.947zm-6.923-14.548-2.39-2.429q-2.837-2.884-2.697-5.79t2.097-4.832q1.973-1.94 4.92-1.98 2.947-.038 5.676 2.736l2.405 2.444zm-.01-2.682 7.324-7.206-.077-.079q-1.5-1.524-2.391-2.163-.9-.631-2.043-.866-1.144-.236-2.309.106-1.172.349-2.091 1.253-1.156 1.137-1.449 2.71t.281 2.8q.567 1.22 2.075 2.753zm-8.524-5.519-6.33-4.53 1.117-1.56 4.788 3.427 2.04-2.851-4.788-3.426 1.104-1.542 4.787 3.426 2.81-3.927-4.787-3.426 1.104-1.542 6.329 4.53zm-12.242-7.127-2.9-.92q-2.165-.685-3.178-2.197-1.026-1.505-.493-3.187.426-1.345 1.635-2.095t3.213-.578l-2.083-6.963 2.091.663 1.975 6.686.41.13 1.745-5.507 1.829.58zm-1.315-2.198 1.479-4.666q-4.02-1.366-4.79 1.061-.269.852.034 1.537.3.697 1.028 1.136.725.45 2.249.932m-7.348-.145-1.875-.279 2.062-13.892 1.875.278zm-3.376-.599-2.226-.022q-2.194-.022-3.574-.995-1.38-.962-1.365-2.417.018-1.775 2.08-2.945-3.164-1.09-3.139-3.702.018-1.82 1.672-2.916 1.643-1.098 4.388-1.07l2.304.022zm-1.879-1.717.041-4.156q-1.587.006-2.431.583-.855.576-.865 1.6-.009.894.747 1.43.755.548 2.034.56.275.003.474-.017m.058-5.82.047-4.807-.154-.002q-2.48-.024-3.392.76-.912.785-.92 1.612-.011 1.092.997 1.752t2.771.678zm-13.564 8.61-6.494-14.649 2.006.02 1.608 3.61 5.964.057 1.633-3.578 1.996.02zm.044-4.398 2.308-4.972-4.52-.044zm-10.103 4.254-8.587-.083.018-1.919 3.352.033.118-12.126 1.896.018-.118 12.127 3.34.032zm-14.479.39-6.495-14.65 2.007.02 1.607 3.61 5.964.058 1.633-3.578 1.996.019zm.043-4.399 2.308-4.972-4.52-.044zm-20.559 4.248-3.694-14.666 1.874.018 2.239 8.963 4.094-9.441 3.92 9.585 2.435-8.983 1.874.018-3.978 14.591-4.297-10.515zm-4.602-.639-7.783-.076.019-1.918 5.886.058.034-3.506-5.887-.057.019-1.896 5.887.057.047-4.829-5.887-.057.019-1.896 7.782.076zm-23.062-2.467 1.435-1.386q2.13 2.126 4.952 2.153 2.469.024 4.127-1.547t1.681-3.953q.02-2.083-1.55-3.774-1.583-1.68-4.383-1.707-4.2-.041-5.316 3.608l3.792.037-.019 1.918-5.985-.058q.014-1.444.22-2.302.196-.858.812-1.888t1.64-1.848q1.01-.806 2.171-1.147 1.15-.342 2.748-.326 3.638.035 5.788 2.338 2.138 2.314 2.11 5.257-.03 3.098-2.267 5.248-2.237 2.161-5.39 2.13-1.874-.017-3.412-.606-1.549-.577-3.154-2.147m-7.512 2.69-6.495-14.649 2.006.02 1.608 3.61 5.964.057 1.633-3.578 1.996.02zm.043-4.398 2.308-4.972-4.52-.044z" aria-label="DA VILA DE SANTA CRUZ DE RIBA TAMEGA" style="font-style:normal;font-variant:normal;font-weight:400;font-stretch:normal;font-size:22.5778px;font-family:&quot;Tw Cen MT&quot;;-inkscape-font-specification:&quot;Tw Cen MT, Normal&quot;;font-variant-ligatures:normal;font-variant-caps:normal;font-variant-numeric:normal;font-variant-east-asian:normal;fill:#000;fill-opacity:1;stroke-width:2" transform="rotate(89.985)"></path></g><circle cx="33.863" cy="58.091" r="3.426" style="fill:none;stroke:#000;stroke-width:3.14879;stroke-linecap:round;stroke-miterlimit:4;stroke-dasharray:none;stroke-opacity:1;paint-order:stroke fill markers"></circle><circle cx="33.863" cy="58.091" r="1.967" style="fill:none;fill-opacity:1;stroke:#d10c01;stroke-width:2.5668;stroke-linecap:square;stroke-miterlimit:4;stroke-dasharray:none;stroke-opacity:1"></circle><circle cx="70.378" cy="59.001" r="1.974" style="fill:#d10c01;fill-opacity:1;stroke:none;stroke-width:.0527457;stroke-linecap:square;stroke-miterlimit:4;stroke-dasharray:none;stroke-opacity:1"></circle><path d="M148.076 82.517c-15.799-5.89-31.743-8.83-48.076-8.83" style="fill:none;stroke:#fafd15;stroke-width:1.6;stroke-linecap:round;stroke-linejoin:miter;stroke-miterlimit:4;stroke-dasharray:none;stroke-opacity:1"></path><path d="m127.496 52.68-3.241 3.043-.794 4.035 1.918 3.77 3.374 1.853 2.504.207 3.469-2.502 1.766-3.923-1.323-4.697-3.043-2.05z" style="fill:#fafd15;fill-opacity:1;stroke:none;stroke-width:.5;stroke-linecap:square;stroke-miterlimit:4;stroke-dasharray:none;stroke-opacity:1"></path><circle cx="-129.626" cy="59.035" r="6.527" style="fill:none;stroke:#000;stroke-width:1.94507;stroke-linecap:round;stroke-miterlimit:4;stroke-dasharray:none;stroke-opacity:1;paint-order:stroke fill markers" transform="scale(-1 1)"></circle><circle cx="-129.622" cy="59.001" r="2.569" style="fill:none;stroke:#000;stroke-width:2.36159;stroke-linecap:round;stroke-miterlimit:4;stroke-dasharray:none;stroke-opacity:1;paint-order:stroke fill markers" transform="scale(-1 1)"></circle><circle cx="-166.137" cy="58.091" r="3.426" style="fill:none;stroke:#000;stroke-width:3.14879;stroke-linecap:round;stroke-miterlimit:4;stroke-dasharray:none;stroke-opacity:1;paint-order:stroke fill markers" transform="scale(-1 1)"></circle><circle cx="-166.137" cy="58.091" r="1.967" style="fill:none;fill-opacity:1;stroke:#d10c01;stroke-width:2.5668;stroke-linecap:square;stroke-miterlimit:4;stroke-dasharray:none;stroke-opacity:1" transform="scale(-1 1)"></circle><circle cx="-129.622" cy="59.001" r="1.974" style="fill:#d10c01;fill-opacity:1;stroke:none;stroke-width:.0527457;stroke-linecap:square;stroke-miterlimit:4;stroke-dasharray:none;stroke-opacity:1" transform="scale(-1 1)"></circle><path d="M97.023 113.306c.742-1.902 4.562-1.139 4.84 1.04a9.4 9.4 0 0 1-1.835-.035c-1.044-.601-1.873-.415-3.005-1.005m14.505-4.816c.585.643.497 2.54-.338 3.543-.041-.491-.276-.638-.196-1.44.13-1.346-.047-.966.534-2.103" style="fill:#000;fill-opacity:1;stroke:none;stroke-width:.0499999;stroke-linecap:square;stroke-miterlimit:4;stroke-dasharray:none;stroke-opacity:1"></path><path d="M224.883 355.674V712.5c.193 144.594 102.46 175 153.07 175s152.877-30.406 153.07-175V355.674h-153.07Z" style="fill:none;fill-opacity:1;stroke:#000;stroke-width:11.3386;stroke-linecap:square;stroke-miterlimit:4;stroke-dasharray:none;stroke-opacity:1" transform="scale(.26458)"></path><g style="font-style:normal;font-variant:normal;font-weight:700;font-stretch:normal;font-size:15.5222px;font-family:&quot;Tw Cen MT&quot;;-inkscape-font-specification:&quot;Tw Cen MT, Bold&quot;;font-variant-ligatures:normal;font-variant-caps:normal;font-variant-numeric:normal;font-variant-east-asian:normal;white-space:pre;shape-inside:url(#a);fill:#000;fill-opacity:1;stroke:#000;stroke-width:.2;stroke-linecap:square;stroke-miterlimit:4;stroke-dasharray:none;stroke-opacity:1" transform="translate(21.716 -27.202)"><path d="m5.157 266.097.86 1.42-6.405 8.63-1.116-1.84L-.25 272.6l-1.976-3.26-2.077.345-1.112-1.834zm-2.355 2.401-3.11.529 1.222 2.016zm4.814 1.428 4.057 5.322-1.681 1.282-1.383-1.814-6.233 4.75-1.3-1.705 6.232-4.751-1.373-1.803zm4.541 5.942 1.385 1.618-5.932 5.076 1.907 2.229-1.63 1.394-3.291-3.847zm4.171 4.042 4.034 3.886-1.367 1.42-2.49-2.398-1.393 1.446 2.49 2.398-1.347 1.397-2.49-2.398-1.43 1.485 2.49 2.398-1.367 1.42-4.034-3.887zm1.56.577 2.336-.896 1.709 1.646-3.068.191zm2.889 4.079 5.435 3.905-1.234 1.717-1.853-1.33-4.573 6.363-1.742-1.252 4.573-6.364-1.84-1.322zm5.898 4.302 1.824 1.114-5.187 8.493-1.824-1.114zm9.541 5.843-1.091 2.175q-1.005-1.598-2.089-2.142-1.083-.544-2.108-.125-1.024.419-1.656 1.679-.598 1.192-.274 2.254.327 1.054 1.472 1.629 1.002.503 2.802.397l-1.08 2.154q-1.827-.264-2.87-.787-1.796-.9-2.39-2.844-.59-1.95.362-3.846.969-1.931 2.912-2.627 1.953-.699 3.782.22 1.179.59 2.228 1.863zm-.504 4.956q.95-1.99 2.881-2.655 1.94-.67 3.747.193 1.997.953 2.68 2.884.685 1.923-.266 3.913-.943 1.977-2.86 2.666t-3.88-.249-2.614-2.844q-.644-1.904.312-3.908zm5.86-.628q-1.118-.56-2.19-.089-1.074.47-1.678 1.736-.572 1.196-.243 2.32.33 1.122 1.403 1.635 1.128.539 2.188.096 1.07-.447 1.678-1.719.597-1.251.276-2.337-.315-1.083-1.433-1.642zm17.336 3.898-.66 2.342q-1.288-1.378-2.456-1.707t-2.093.277q-.927.605-1.309 1.962-.361 1.284.158 2.265.521.973 1.754 1.32 1.08.304 2.827-.14l-.653 2.32q-1.843.087-2.967-.23-1.933-.544-2.884-2.34-.95-1.802-.374-3.845.585-2.079 2.361-3.13 1.786-1.056 3.755-.502 1.27.358 2.541 1.408zm1.605-.387 2.091.403-1.474 7.666 2.88.554-.404 2.106-4.972-.956zm5.211 1.204 2.11.139-.4 6.073q-.057.847.378 1.392t1.2.595q.876.058 1.394-.424.519-.49.581-1.435l.394-5.967 2.102.139-.424 6.428q-.056.847-.555 1.733-.498.879-1.445 1.302-.94.424-2.067.35-2.042-.135-2.912-1.332-.87-1.204-.787-2.46zm9.813.509h2.903q1.819 0 2.486.758t.667 1.774q0 .644-.243 1.091-.242.44-.78.894 1.03.357 1.455 1.054.432.69.432 1.478 0 1.372-.94 2.137-.94.766-2.645.766h-3.335zm2.145 1.675v2.175h.492q.546 0 .917-.34.372-.35.372-.857 0-.41-.364-.69-.364-.288-.91-.288zm0 3.866v2.736h.773q1.773 0 1.773-1.289 0-.697-.432-1.068-.432-.38-1.235-.38zm5.683-5.636 5.597-.2.07 1.969-3.453.124.072 2.007 3.454-.124.07 1.94-3.455.123.074 2.06 3.454-.124.07 1.97-5.597.2zm10.792-1.094 3.358-.502q2.152-.322 3.666.839 1.515 1.16 1.847 3.379.333 2.226-.823 3.77-1.149 1.544-3.398 1.88l-3.178.476zm2.415 1.54.909 6.079.84-.126q1.303-.195 2.036-1.033t.485-2.501q-.145-.967-.66-1.649-.518-.689-1.329-.836-.805-.155-1.502-.051zm6.362-2.988 5.37-1.592.56 1.89-3.314.982.571 1.926 3.314-.982.551 1.86-3.314.982.586 1.976 3.314-.982.56 1.89-5.37 1.591zm9.565-2.763 2.03-.757 4.67 5.322.047-7.079 2.038-.76-.048 10.638-1.747.651zm9.248-3.836 1.894-.99 4.61 8.82-1.895.99zm3.683-1.869 1.861-1.036 3.797 6.821 2.563-1.426 1.043 1.874-4.424 2.462zm7.382-4.582 1.36-.953 9.04 5.814-1.763 1.236-1.786-1.135-3.122 2.19.484 2.048-1.756 1.232zm2.554 2.19.735 3.067 1.93-1.354zm4.969-8.29 1.749-1.851 5.616 2.742-3.055-5.452 1.692-1.79 8.107 5.91-1.405 1.486-5.689-4.176 3.586 6.402-.672.71-6.675-3.22 4.567 5.451-1.427 1.51zm6.889-7.09 3.123-4.65 1.636 1.099-1.927 2.869 1.667 1.12 1.927-2.87 1.61 1.083-1.926 2.869 1.711 1.15 1.927-2.87 1.636 1.099-3.123 4.65zm5.186-8.232.807-1.45 10.67 1.292-1.046 1.88-2.103-.242-1.855 3.33 1.328 1.634-1.043 1.874zm3.252.857 1.999 2.44 1.147-2.06zm-4.33-.511-.468.84-.186-.103q-.695-.387-.915-.926-.223-.55.09-1.112.14-.252.317-.414.174-.172.683-.556.502-.388.665-.68.261-.47-.268-.86l.476-.854q1.656.922 1 2.1-.152.272-.288.422-.132.143-.695.61-.56.46-.726.759-.254.456.275.751z" aria-label="ATLÉTICO CLUBE DE VILA MEÃ" style="fill:#000;fill-opacity:1;stroke:#000;stroke-opacity:1"></path></g><path fill="#040309" d="M75.71 376.79c.69-.29 2.06-.88 2.74-1.17-.24 3.46.75 7.38-1.4 10.4-2.27-2.51-1.8-6.16-1.34-9.23" style="stroke:none;stroke-opacity:1" transform="translate(-64.311 -30.963)scale(.53173)"></path><g fill="#05040c" style="stroke:none;stroke-opacity:1"><path d="M138.26 288.67c-2.53-4.22.98-9.67 5.5-10.43 5.69-1.07 11.26 1.48 16.21 4.03 4.8 2.49 8.77 7.13 9.02 12.73.83 4.83-1.86 9.11-3.36 13.5-.94 2.82-2.67 5.26-4.1 7.84-2.01 3.7-.79 8.4-3.42 11.85-1.29.83-2.77 1.33-4.17 1.96 1.82 2.06 4.94 3.36 5.39 6.33 2 8.09-2.39 15.85-6.13 22.7-4.04 5.88-.41 13.68-4.2 19.69-1.25 2.62-4.22 3.28-6.81 3.78-6.96 2.38-14.18-1.04-19.85-4.95-5.47-4.38-12.45-6.57-19.41-6.71-1.36-.01-2.87.43-3.36 1.87-.28 5.45.91 10.8 1.52 16.19.03 8.5.26 17.02-.16 25.53 9.24-2.97 7.71-16.3 16.15-20.3 4.91-2.22 10.49-.65 15.05 1.69 4.23 1.77 6.93 5.64 9.79 9.03 4.55 6.5 11.28 10.93 18.06 14.8 4.19 3.83 7.05 9.43 7.45 15.12-.44 26.01 8.42 51.86 23.9 72.67 18.9 25.65 47.17 43.7 77.82 51.86 38.32 10.4 80.65 5.66 115.43-13.65 28.99-15.7 52.49-42.18 62.42-73.83 4.42-13.82 6.05-28.47 5.21-42.93 1.23-2.64 2.94-5.03 4.47-7.49 3.51-5.12 9.7-7.02 14.77-10.12 3.2-3.11 6.15-6.6 10.16-8.73 3.92-2.08 7.56-4.84 11.86-6.08 3.19-.86 6.16.99 9.03 2.08 7.44 2.78 8.79 12.2 15.59 15.8 1.93.74 6.21.55 5.56-2.41-2.06-5.17-2.96-10.67-4.1-16.09-.51-3.58 1.75-7.59-.51-10.83-4.3-5.04-12.05-6.36-17.9-3.36-4.92 2.56-10.65 4.92-16.23 3.18-5.12-2.02-9.39-6.49-10.51-11.97-1.6-8.26-1.35-17.15-5.75-24.62-1.83-2.95-2.8-6.79-1.01-10 .78-2.35 3.12-3.51 4.48-5.42-2-2.44-6.32-2.47-7.33-5.94-2.31-3.75.52-8.02-.7-12-1.48-7.57-4.34-15.56-1.68-23.2 2.01-6.89 8-12.33 15.1-13.53 4.19-1.55 8.75.37 11.85 3.25 1.94 2.17.62 5.07-.3 7.39-2.49 7.06-10.25 10.05-13.76 16.44-.3 1.65.13 3.76 1.63 4.76 8.78-.47 18.33-3.33 26.47 1.45 3.98 1.25 5.58 5.31 6.95 8.85 1.87 5.68 2.93 11.56 3.61 17.49.09 1.55.33 3.25-.46 4.68-4.08 7.49-11.47 13.51-20.05 14.75-2.74.06-2.36 3.35-1.94 5.21 1.21 4.16 4.37 7.92 8.49 9.42 2.4.07 2.74-2.91 3.69-4.51 1.79-4.64 6.11-8.46 11.29-8.35 9.15-.05 15.9 7.82 24.89 8.56 4.93.37 10.28 1.96 12.9 6.53 2.88 4.12 1.66 9.34-.13 13.63-2.54 6.54.27 13.37.13 20.08.93 4.62-1.77 10.19-6.57 11.32-4.29 1.57-8.88 2.6-12.6 5.38-4.36 2.81-7.44 7.59-12.69 8.94-6.17 2.18-12.65.41-18.88-.37 1.15 2.88 3.1 5.57 3.08 8.79-.84 34.78-13.97 68.82-35.49 96.03-23.75 30.23-57.27 52.22-93.84 63.68-40.63 12.92-85.17 13.02-125.89.44-37.3-11.42-71.51-33.76-95.55-64.64-20.68-26.31-33.36-58.96-35.01-92.44-.44-4.8-.41-9.65.85-14.33-3.57 1.98-6.77 5.46-11.18 5.2-4.97-.3-9.55-2.7-13.48-5.62-6.61-4.86-14.44-7.49-21.74-11.07-3.65-1.53-5.86-5.31-6.49-9.09-1.13-5.45 1.8-10.85.33-16.29-.73-5.74-4.19-12.18-.24-17.45 4.56-5.61 10.99-9.26 17.05-13.02 4.18-2.48 7.71-6.25 12.58-7.39 3.94-.74 8.13-1.68 12.06-.35 6.51 2.1 12.32 6.46 15.86 12.35 1.17 2.15 3.81 1.16 5.53.34 3.32-1.2 6.05-4.8 5.57-8.36-1.92-2.88-5.34-4.08-8.13-5.88-5.38-3.31-11.09-6.69-14.61-12.12-1.81-2.76-3.23-6.33-1.64-9.53 4.44-9.34 10.18-18.05 17.06-25.76 6.77-4.08 15.05-1.38 22.47-2.57-1.71-6.98-9.98-9.16-12.92-15.46m1.9-.78c1.42 4.62 6.39 6.2 9.51 9.41 2.13 1.8 3.25 4.38 4.25 6.92 3.72-.68 7.92-.73 10.92-3.35 2.21-1.87 2.93-5.13 1.95-7.82-3.05-9.12-13.66-14.21-22.83-12.61-3.41.36-5.44 4.45-3.8 7.45m327.05 1.41c-1.69 3.61-3.74 7.84-1.75 11.76 1.07 3.51 3.92 5.96 7.4 6.92.27-2.39.15-5.15 2.15-6.87 4.45-4.18 9.21-8.84 10.24-15.16.03-2.81-2.97-4.2-5.36-4.41-5.38-.6-10.12 3.38-12.68 7.76m-317.18 18.04c-6.2.67-13.14-1.71-18.72 1.92-2.03 1.08-1.58 3.77-1.08 5.6 1.93 5.52 7.73 8.1 12.62 10.46 3.52 1.14 7.43 3.07 11.14 1.82 2.6-3.01 1.82-7.39 3.54-10.81 1.83-3.81 3.56-7.66 5.32-11.5-4.31.73-8.34 2.78-12.82 2.51m316.35 1.62c.75 5.03 1.62 10.06 1.81 15.15.02 2.88 2.1 5.4 4.71 6.45 4.84 2.16 10.23.16 14.94-1.39 4.51-2.59 10.21-3.64 13.31-8.18 1.8-2.13 2.06-5.83-.54-7.43-4.09-2.2-9.08-2.11-13.57-1.71-6.92 1.91-14.47.67-20.66-2.89m-339.8 5.08c-3.04 4.23-6.41 8.31-8.35 13.2-1.43 3.58-5.14 7.32-2.94 11.34 3.42 7.09 10.63 10.85 16.72 15.28 4.92 4.03 11.02 6.37 15.56 10.91.2-.06.6-.19.8-.25.95-2.55.92-5.44 2.54-7.73 2.24-3.33 3.34-7.2 4.86-10.87 1.21-3.75 1.96-8.48-1.39-11.39-2.9-4.06-7.99-4.94-12.26-6.86-3.83-1.54-7.39-3.73-10.6-6.3-2.36-1.89-3.35-4.85-4.94-7.33m378.14 3.11c-.44 1.92-.47 4.11-1.91 5.62-5.3 6.6-13.84 9.02-21.69 11-4.19.48-9.7 1.77-10.91 6.45-1.4 3.25.58 6.66 2.14 9.46 2.37 3.45 2.46 7.77 3.6 11.67 2.32-1.27 4.21-3.43 6.89-3.97 7.03-1.67 14.44-2.78 20.63-6.76 4.21-2.74 7.78-7.39 7.49-12.64-1.31-7.12-1.81-14.78-6.24-20.83m-403.37 40.39c-2.14 3.03-1.18 7.05-1.18 10.52 4.35-.09 8.77-.15 12.88 1.53 4.91.88 7.95 5.28 12.52 6.92-1.29-4.81-4.84-8.5-7.43-12.62-4.1-4.39-10.67-8.49-16.79-6.35m-11.8 6.07c-6.13 4.46-13.18 7.94-18.15 13.81-3.37 4.33-.87 9.66-.09 14.42 1.66 6.02-1.75 12.22.14 18.24 1.76 4.73 6.76 6.9 11.15 8.55 5.17 1.94 9.4 5.65 14.46 7.81-.9-4.49.18-9 .2-13.5 1.21-8.56.94-17.27.2-25.85-2.39-8.93-.57-18.2-1.13-27.28-2.36 1.07-4.68 2.26-6.78 3.8m388.2 3.53c-1.08 5.1 1.17 10.69 5.39 13.73 5.49 4.3 14.61-.16 15.16-6.89-5.77-1.49-9.58-7.4-9.49-13.21-4.31.52-8.8 2.49-11.06 6.37m30.54.15c-1.98 3.69-4.11 7.32-5.68 11.22 3.15-1.08 6.46-2.75 9.87-1.78 3.02 1.06 5.18 3.55 7.69 5.44 2.27-5.13 1.69-10.92 1.08-16.33-.23-2.6-2.85-4-5.25-3.58-3.39-.19-6.2 2.18-7.71 5.03m-373.21.88c-2.3 1.96-5.26 2.84-8.02 3.94 1.71 2.55 3.71 4.97 6.28 6.69 3.05 1.99 6.94 1.52 10.28.64 3.2-.72 4.36-4.55 4.3-7.44-.79-4.58-5.11-7.21-9-8.99-1.26 1.73-2.35 3.61-3.84 5.16m389.85-3.45c.14 3.74.41 7.48.16 11.23-.28 7-2.74 13.87-1.82 20.92.53 9.29 5.06 17.67 6.45 26.81 2.11-.19 3.39-2.81 5.48-3.54 3.86-2.54 9.75-2.11 12.17-6.55 2.54-7.07-1.08-14.44-.22-21.66.21-3.81 2.4-7.15 2.81-10.91-.39-2.55-1.56-4.95-2.97-7.08-2.01-2.29-5.17-2.98-8.08-3.13-5.22-.47-9.43-3.86-13.98-6.09m-405.57 31.75c-6.52 2.99-6.73 11.14-10.49 16.42-1.29 2.35-4.11 3.18-5.64 5.23-.51 3.31-1.18 6.63-1.19 9.99.04 2.41 2.54 3.6 4.39 4.58 3.98 2.06 8.09-.83 11.41-2.89 6.52-5.05 11.48-12.51 12.59-20.77 1.26-3.79.41-8.17-2.28-11.13-2.21-2.37-5.93-2.99-8.79-1.43m373.82 5.8c-3.32 1-2.47 5.01-2.93 7.64-.92 7.88 4.19 15.26 10.76 19.13 4.39 2.83 9.95 2.67 14.96 2.23 3-.64 6.78-.85 8.62-3.68 2.02-3.26.46-7.17-.96-10.34-2.77.5-5.8 1.2-8.28-.62-3.74-2.92-6.34-7-9.57-10.41-3.44-2.78-8.08-5.44-12.6-3.95m-29.38 17.49c-3.53 1.89-5.29 5.61-7.28 8.88-.78 1.31-.39 2.9-.43 4.35.61 14.77-1.75 29.64-6.66 43.57-10.14 29.03-31.46 53.53-57.74 69.21-35.75 21.67-80.22 27.97-120.7 17.75-32.29-7.95-62.25-26.52-82.24-53.28-16.04-21.19-25.27-47.57-25.17-74.21.38-5.2-2.48-10-6.05-13.53-5.31-3.22-10.6-6.61-15.02-11.01-1.73-1.84-3-4.09-4.95-5.73-3.5 8.71-7.76 17.12-12.75 25.07-1.64 2.37-1.93 5.32-1.89 8.12.38 31.04 10.36 61.79 27.83 87.41 20.04 29.72 49.57 52.52 82.6 66.14 41.67 17.29 89.05 20.21 132.61 8.5 36.79-9.76 70.98-30.14 95.84-59.11 23.85-27.57 38.61-63.24 39.59-99.8-1.31-3.89-1.62-8.79-5.36-11.22-7.5-6.3-11.47-16.3-10.52-26.03-7.36 4.77-14.14 10.43-21.71 14.92" style="stroke:none;stroke-opacity:1" transform="translate(-64.311 -30.963)scale(.53173)"></path><path d="M540.16 376.13q2.025-.705 2.31 1.29c.09 2.95-.32 6.51-2.87 8.4.1-3.24.18-6.48.56-9.69" style="stroke:none;stroke-opacity:1" transform="translate(-64.311 -30.963)scale(.53173)"></path></g><path fill="#fffffe" d="M140.16 287.89c-1.64-3 .39-7.09 3.8-7.45 9.17-1.6 19.78 3.49 22.83 12.61.98 2.69.26 5.95-1.95 7.82-3 2.62-7.2 2.67-10.92 3.35-1-2.54-2.12-5.12-4.25-6.92-3.12-3.21-8.09-4.79-9.51-9.41m327.05 1.41c2.56-4.38 7.3-8.36 12.68-7.76 2.39.21 5.39 1.6 5.36 4.41-1.03 6.32-5.79 10.98-10.24 15.16-2 1.72-1.88 4.48-2.15 6.87-3.48-.96-6.33-3.41-7.4-6.92-1.99-3.92.06-8.15 1.75-11.76m10.54 77.84c2.26-3.88 6.75-5.85 11.06-6.37-.09 5.81 3.72 11.72 9.49 13.21-.55 6.73-9.67 11.19-15.16 6.89-4.22-3.04-6.47-8.63-5.39-13.73" style="stroke:none;stroke-opacity:1" transform="translate(-64.311 -30.963)scale(.53173)"></path><path fill="#fdfcfd" d="M150.03 307.34c4.48.27 8.51-1.78 12.82-2.51-1.76 3.84-3.49 7.69-5.32 11.5-1.72 3.42-.94 7.8-3.54 10.81-3.71 1.25-7.62-.68-11.14-1.82-4.89-2.36-10.69-4.94-12.62-10.46-.5-1.83-.95-4.52 1.08-5.6 5.58-3.63 12.52-1.25 18.72-1.92m-8.01 5.21c3.07 2.22 7.98 2.22 10-1.39-3.38-.18-6.71.7-10 1.39m.15 7.15c2.19 2.36 8.65 3.7 8.99-.67-3.02-.22-6.05 0-8.99.67" style="stroke:none;stroke-opacity:1" transform="translate(-64.311 -30.963)scale(.53173)"></path><path fill="#06050f" d="M142.02 312.55c3.29-.69 6.62-1.57 10-1.39-2.02 3.61-6.93 3.61-10 1.39m334.21 37.51c-.95-3.77 3.39-6.52 6.73-5.63-1.86 2.28-4.13 4.24-6.73 5.63" style="stroke:none;stroke-opacity:1" transform="translate(-64.311 -30.963)scale(.53173)"></path><path fill="#fdfdfd" d="M126.58 314.04c1.59 2.48 2.58 5.44 4.94 7.33 3.21 2.57 6.77 4.76 10.6 6.3 4.27 1.92 9.36 2.8 12.26 6.86 3.35 2.91 2.6 7.64 1.39 11.39-1.52 3.67-2.62 7.54-4.86 10.87-1.62 2.29-1.59 5.18-2.54 7.73-.2.06-.6.19-.8.25-4.54-4.54-10.64-6.88-15.56-10.91-6.09-4.43-13.3-8.19-16.72-15.28-2.2-4.02 1.51-7.76 2.94-11.34 1.94-4.89 5.31-8.97 8.35-13.2m-2.95 7.83c.09 2.83 2.72 4.35 4.75 5.83 1.88 1.2 4.07 2.64 6.4 1.82-2.57-2.77-5.97-4.57-8.76-7.1-.6-.14-1.79-.41-2.39-.55m-2.61 8.11c2.2 2.29 5.47 4.04 8.71 3.29-2.42-2.28-5.16-4.2-7.9-6.07-1.88-.5-1.59 1.83-.81 2.78m-3.51 2.42c-.25.4-.74 1.21-.99 1.61 1.76 2.51 4.57 4.05 7.3 5.29.97.57 2.73-.44 1.3-1.33-2.69-1.65-4.21-5.38-7.61-5.57m26.98 4.3c.6 2.35 2.34 4.1 4.04 5.72 1.01.68 1.92 2.39 3.38 1.6.57-4.16-3.53-7.37-7.42-7.32m-5.43 6.47c2.52 2.35 4.46 5.27 7.04 7.55.43.03 1.29.08 1.72.11.41-4.45-4.41-8.5-8.76-7.66m-2.48 7.29c.02.41.06 1.25.07 1.66 2.88 1.59 5.2 3.91 7.82 5.85.19-.5.56-1.5.75-2-1.68-2.93-5.2-5.37-8.64-5.51m368.14-33.31c4.43 6.05 4.93 13.71 6.24 20.83.29 5.25-3.28 9.9-7.49 12.64-6.19 3.98-13.6 5.09-20.63 6.76-2.68.54-4.57 2.7-6.89 3.97-1.14-3.9-1.23-8.22-3.6-11.67-1.56-2.8-3.54-6.21-2.14-9.46 1.21-4.68 6.72-5.97 10.91-6.45 7.85-1.98 16.39-4.4 21.69-11 1.44-1.51 1.47-3.7 1.91-5.62m-5.14 11.54c-1.96 1.35-3.86 2.82-5.52 4.51-.29 2.37 2.76 1.53 3.93.68 1.71-1.22 4.03-2.93 3.46-5.33-.47.03-1.4.11-1.87.14m-4.58 10.8c3.12 1.26 6.56-.84 8.14-3.53.62-.89-.19-1.64-1.12-1.61-2.59 1.33-5.08 2.94-7.02 5.14m-22.05 4.36c2.2.41 3.97-1.09 5.63-2.28.89-.77 2.45-1.6 1.81-3.01-3.28-.24-6.52 2.15-7.44 5.29m24.68 2.26c3.48 1.01 8.96-.83 8.49-5.2-3.23.81-6.08 2.96-8.49 5.2m-21.4 3.95c2.6-1.39 4.87-3.35 6.73-5.63-3.34-.89-7.68 1.86-6.73 5.63m1.84 4.97c2.55-.81 4.24-3.02 6.33-4.57-2.42-3.2-6.52 1.67-6.33 4.57m46.86 9.69c4.55 2.23 8.76 5.62 13.98 6.09 2.91.15 6.07.84 8.08 3.13 1.41 2.13 2.58 4.53 2.97 7.08-.41 3.76-2.6 7.1-2.81 10.91-.86 7.22 2.76 14.59.22 21.66-2.42 4.44-8.31 4.01-12.17 6.55-2.09.73-3.37 3.35-5.48 3.54-1.39-9.14-5.92-17.52-6.45-26.81-.92-7.05 1.54-13.92 1.82-20.92.25-3.75-.02-7.49-.16-11.23m2.64 8.62c-.26 2.9-.32 5.82-.35 8.74 1.18-.07 1.86-.68 2.06-1.83.69-2.16 1.28-4.43.96-6.71-.81-.99-1.71-1.05-2.67-.2m6.53 1.88c-1.1 3.12-.81 6.56-.64 9.82 2.07-1.52 2.41-4.25 2.92-6.58.42-1.63 0-4.3-2.28-3.24m6.06.91c-.38 3.21-.46 6.45-.56 9.69 2.55-1.89 2.96-5.45 2.87-8.4q-.285-1.995-2.31-1.29m1.01 30.74c-.3 1.5-.86 5.78 1.93 4.36 2.13-3.18 1.05-7.24-.16-10.55-2.94.69-1.01 4.11-1.77 6.19m-6.52-4.47c.32 3.62-.38 7.29.34 10.88 3.11-1.05 2.57-4.76 2.53-7.32.15-1.64-.78-4.15-2.87-3.56m-4.18 5.59c.21 2.07-.67 5.02 1.51 6.31 1.18-3.05 1.59-6.57.29-9.64-1.9-1.03-1.73 2.21-1.8 3.33" style="stroke:none;stroke-opacity:1" transform="translate(-64.311 -30.963)scale(.53173)"></path><path fill="#04030d" d="M472.35 315.33c2.88-.66 5.9.16 8.79.54 1.4.88.32 2.48-1.12 2.4-2.71.52-5.64.13-8.01-1.31.08-.4.25-1.22.34-1.63" style="stroke:none;stroke-opacity:1" transform="translate(-64.311 -30.963)scale(.53173)"></path><path fill="#09080f" d="M142.17 319.7c2.94-.67 5.97-.89 8.99-.67-.34 4.37-6.8 3.03-8.99.67m-21.15 10.28c-.78-.95-1.07-3.28.81-2.78 2.74 1.87 5.48 3.79 7.9 6.07-3.24.75-6.51-1-8.71-3.29" style="stroke:none;stroke-opacity:1" transform="translate(-64.311 -30.963)scale(.53173)"></path><path fill="#07070c" d="M123.63 321.87c.6.14 1.79.41 2.39.55 2.79 2.53 6.19 4.33 8.76 7.1-2.33.82-4.52-.62-6.4-1.82-2.03-1.48-4.66-3-4.75-5.83" style="stroke:none;stroke-opacity:1" transform="translate(-64.311 -30.963)scale(.53173)"></path><path fill="#04030a" d="M470.44 323.98c2.56-.85 5.22.01 7.79.32 1.04.19 2.34.16 2.95 1.24-3.43 1.01-8.35 1.81-10.74-1.56" style="stroke:none;stroke-opacity:1" transform="translate(-64.311 -30.963)scale(.53173)"></path><path fill="#08070d" d="M499.58 328.69c.47-.03 1.4-.11 1.87-.14.57 2.4-1.75 4.11-3.46 5.33-1.17.85-4.22 1.69-3.93-.68 1.66-1.69 3.56-3.16 5.52-4.51m-355.09 8.01c3.89-.05 7.99 3.16 7.42 7.32-1.46.79-2.37-.92-3.38-1.6-1.7-1.62-3.44-3.37-4.04-5.72" style="stroke:none;stroke-opacity:1" transform="translate(-64.311 -30.963)scale(.53173)"></path><path fill="#06050b" d="M117.51 332.4c3.4.19 4.92 3.92 7.61 5.57 1.43.89-.33 1.9-1.3 1.33-2.73-1.24-5.54-2.78-7.3-5.29.25-.4.74-1.21.99-1.61" style="stroke:none;stroke-opacity:1" transform="translate(-64.311 -30.963)scale(.53173)"></path><path fill="#06050d" d="M472.95 343.85c.92-3.14 4.16-5.53 7.44-5.29.64 1.41-.92 2.24-1.81 3.01-1.66 1.19-3.43 2.69-5.63 2.28" style="stroke:none;stroke-opacity:1" transform="translate(-64.311 -30.963)scale(.53173)"></path><path fill="#07060e" d="M497.63 346.11c2.41-2.24 5.26-4.39 8.49-5.2.47 4.37-5.01 6.21-8.49 5.2m-19.56 8.92c-.19-2.9 3.91-7.77 6.33-4.57-2.09 1.55-3.78 3.76-6.33 4.57m-341.49-4.57c3.44.14 6.96 2.58 8.64 5.51-.19.5-.56 1.5-.75 2-2.62-1.94-4.94-4.26-7.82-5.85a92 92 0 0 0-.07-1.66" style="stroke:none;stroke-opacity:1" transform="translate(-64.311 -30.963)scale(.53173)"></path><path fill="#0c0b10" d="M139.06 343.17c4.35-.84 9.17 3.21 8.76 7.66-.43-.03-1.29-.08-1.72-.11-2.58-2.28-4.52-5.2-7.04-7.55" style="stroke:none;stroke-opacity:1" transform="translate(-64.311 -30.963)scale(.53173)"></path><path fill="#fdfdfc" d="M101.35 357.54c6.12-2.14 12.69 1.96 16.79 6.35 2.59 4.12 6.14 7.81 7.43 12.62-4.57-1.64-7.61-6.04-12.52-6.92-4.11-1.68-8.53-1.62-12.88-1.53 0-3.47-.96-7.49 1.18-10.52" style="stroke:none;stroke-opacity:1" transform="translate(-64.311 -30.963)scale(.53173)"></path><path fill="#05030e" d="M90.81 367.83c.44-.08 1.31-.23 1.74-.31 1.4 3.14.81 6.69.87 10.04-4.1-.88-3.63-6.64-2.61-9.73" style="stroke:none;stroke-opacity:1" transform="translate(-64.311 -30.963)scale(.53173)"></path><path fill="#05050d" d="M82.59 376.01c-.05-1.86.71-4.67 3.15-3.95-.3 3.68.18 7.46-.77 11.08-2.07-1.73-2.26-4.63-2.38-7.13" style="stroke:none;stroke-opacity:1" transform="translate(-64.311 -30.963)scale(.53173)"></path><path fill="#05040d" d="M527.57 373.34c.96-.85 1.86-.79 2.67.2.32 2.28-.27 4.55-.96 6.71-.2 1.15-.88 1.76-2.06 1.83.03-2.92.09-5.84.35-8.74M83.63 407.23c2.71-.2 2.12 2.98 2.26 4.8.15 1.58-.09 4.68-2.49 3.63-1.77-2.54-.65-5.79.23-8.43m7.16 11.45c-1.97-3.21-2.17-8.52 1.64-10.43.23 3.12.56 6.29.09 9.4-.56.36-1.14.71-1.73 1.03" style="stroke:none;stroke-opacity:1" transform="translate(-64.311 -30.963)scale(.53173)"></path><path fill="#06050e" d="M534.1 375.22c2.28-1.06 2.7 1.61 2.28 3.24-.51 2.33-.85 5.06-2.92 6.58-.17-3.26-.46-6.7.64-9.82" style="stroke:none;stroke-opacity:1" transform="translate(-64.311 -30.963)scale(.53173)"></path><path fill="#04030c" d="M541.17 406.87c.76-2.08-1.17-5.5 1.77-6.19 1.21 3.31 2.29 7.37.16 10.55-2.79 1.42-2.23-2.86-1.93-4.36" style="stroke:none;stroke-opacity:1" transform="translate(-64.311 -30.963)scale(.53173)"></path><path fill="#030208" d="M534.65 402.4c2.09-.59 3.02 1.92 2.87 3.56.04 2.56.58 6.27-2.53 7.32-.72-3.59-.02-7.26-.34-10.88" style="stroke:none;stroke-opacity:1" transform="translate(-64.311 -30.963)scale(.53173)"></path><path fill="#03010d" d="M530.47 407.99c.07-1.12-.1-4.36 1.8-3.33 1.3 3.07.89 6.59-.29 9.64-2.18-1.29-1.3-4.24-1.51-6.31" style="stroke:none;stroke-opacity:1" transform="translate(-64.311 -30.963)scale(.53173)"></path><path fill="#06040d" d="M76.68 413.29c.4-2.66-1.14-6.66 2.23-7.81.56 2.65.85 5.52-.51 8-.43-.05-1.29-.15-1.72-.19" style="stroke:none;stroke-opacity:1" transform="translate(-64.311 -30.963)scale(.53173)"></path><path fill="#06060e" d="M137.66 412.34c4.12 1.55 2.23 6.51 1.38 9.69-.21.99-1.68 3.69-2.56 1.81.11-3.85-.36-7.86 1.18-11.5" style="stroke:none;stroke-opacity:1" transform="translate(-64.311 -30.963)scale(.53173)"></path><path fill="#050410" d="M479.31 417.32c1.35-1.69 3.43.07 3.14 1.79-.2 3.61 2.9 6.72 1.96 10.33-.36.09-1.09.26-1.46.35-2.3-3.56-6.16-8.13-3.64-12.47" style="stroke:none;stroke-opacity:1" transform="translate(-64.311 -30.963)scale(.53173)"></path><path fill="#05030f" d="M142.54 430.48c1.62-3.6.11-8.47 3.44-11.16 1.33 2.81 1.47 6.22.37 9.12-1.05.97-2.24 3.61-3.81 2.04" style="stroke:none;stroke-opacity:1" transform="translate(-64.311 -30.963)scale(.53173)"></path><path fill="#07060c" d="M470.96 421.88c1.21-.63 3.41-.77 3.43 1.12.07 3 2.85 5.54 2.05 8.52-3.81-.57-6.8-5.96-5.48-9.64" style="stroke:none;stroke-opacity:1" transform="translate(-64.311 -30.963)scale(.53173)"></path><path fill="#05050a" d="M153.02 428.02c-.64-1.58.74-2.69 1.85-3.45 3.06 2.19 1.82 5.91.77 8.88-.31 1.33-1.46 2.11-2.51 2.83-.04-2.76.45-5.52-.11-8.26" style="stroke:none;stroke-opacity:1" transform="translate(-64.311 -30.963)scale(.53173)"></path><path fill="#05040f" d="M462.45 428.41c2.03-1.14 3.62.52 3.46 2.57-.02 2.48 3.6 5.47.99 7.44-3.03-2.03-6.46-6.25-4.45-10.01" style="stroke:none;stroke-opacity:1" transform="translate(-64.311 -30.963)scale(.53173)"></path><path fill="#08070e" d="M198.895 149.554c1.031-1.17 2.355-2.026 3.733-2.733.494-.016.925.382.595.856-.84 1.43-2.67 2.547-4.328 1.877" style="stroke:none;stroke-width:.531729;stroke-opacity:1"></path><circle cx="-100.409" cy="38.497" r="1.974" style="fill:#d10c01;fill-opacity:1;stroke:none;stroke-width:.0527457;stroke-linecap:square;stroke-miterlimit:4;stroke-dasharray:none;stroke-opacity:1" transform="scale(-1 1)"></circle><circle cx="34.396" cy="57.745" r="1.974" style="fill:#d10c01;fill-opacity:1;stroke:none;stroke-width:.0527457;stroke-linecap:square;stroke-miterlimit:4;stroke-dasharray:none;stroke-opacity:1"></circle><circle cx="-166.224" cy="58.539" r="1.974" style="fill:#d10c01;fill-opacity:1;stroke:none;stroke-width:.0527457;stroke-linecap:square;stroke-miterlimit:4;stroke-dasharray:none;stroke-opacity:1" transform="scale(-1 1)"></circle><path fill="#d10d01" d="M104.409 105.375c.215-.184.446-.35.677-.515-.003.592.168 1.28-.524 1.499-.066-.327-.14-.653-.153-.984m1.272 4.596c-.01-.535.098-1.077.593-1.365a1.96 1.96 0 0 1-.593 1.365m-2.141-.381q.695-.366 1.41-.693-.101.43-.23.85c-.404.084-.796-.065-1.18-.157m-4.564 1.305c.683-.078 1.604-.4 2.099.266-.645.337-1.71.527-2.099-.266m14.11 1.717c.156-.083.465-.248.62-.329.422.219.846.432 1.266.663.24.178.426.417.637.638-.74.311-1.528.384-2.259.005-.08-.327-.173-.653-.264-.977m-17.797 2.928a7.2 7.2 0 0 1 1.393-1.758c.025.849-.512 1.654-1.393 1.757m33.404.341c-.452-.567-.236-1.282.22-1.764.174.605.06 1.212-.22 1.765m2.804-.869c.396-.319.793-.745 1.353-.715.2.587-.425.966-.736 1.365a50 50 0 0 1-.617-.65m-21.96-.607c1.067.77 2.126 1.581 2.796 2.746-1.616.344-2.899-1.225-2.796-2.746m20.004 3.323c.402-.916.959-1.77 1.752-2.397.289.557.42 1.182.058 1.742l-1.112-.165q.192.791.329 1.599a25 25 0 0 1-1.027-.779m-1.205-1.463c.166-.56.497.206.505.42-.015.436.155 1.41-.568 1.194-.115-.52-.25-1.145.063-1.614m-16.038 1.584c.33-.16.718-.377 1.055-.095.113.544-.623.59-.974.735-.437-.06-.41-.472-.08-.64m15.371 2.219c.22-.567.084-1.315.553-1.755.259.169.512.36.763.548.093-.136.276-.405.37-.54.652.346.888 1.03.976 1.725 1.024.366.582 1.905-.357 2.076-.672.17-1.016.77-1.335 1.325-1.04-.032-1.24-1.165-1.908-1.74-.301-.24-.349-.622-.42-.971l-.463-.178c.135.524.092 1.024-.487 1.157-.05-.57-.42-1.29.21-1.672l.116.557c.188-.208.371-.424.56-.635.472.05.943.11 1.423.103m-14.954-.642c-.118-.71.779-.578 1.208-.618l.003.003-.018.18.05 1.17c-.08.009-.238.02-.318.026-.563.195-1.004-.184-.924-.761zm-6.007.494.063.163c.16.432.33.861.47 1.303-.221.003-.663.008-.884.013.09-.5.2-.994.351-1.479m-38.356 1.248c.256.512.542 1.1.271 1.672-.206.68-.891.989-1.483 1.257-.097-1.052.58-2.082 1.212-2.93m63.526-.9c.119.293.274.612.166.938q-.395.181-.805.307.282-.64.64-1.245m-17.266.336c.61.673.899 1.735.384 2.546-.218-.585-.351-1.208-.693-1.738q.149-.405.31-.808m-1.496 1.827q-.015.392-.011.791c-.108.781.22 1.778-.46 2.368-.56-.297-.346-1.095-.532-1.607q.038-.6.174-1.185c.208-.09.622-.276.828-.366m-7.003 2.041c.193-.475.421-.952.853-1.263-.025.54-.12 1.333-.853 1.263m8.954-.832c.544.01 1.581.171 1.476.92-.643.032-1.173-.382-1.476-.92m11.978.056a4.9 4.9 0 0 1 1.497.442c-.294.278-.525.946-1.047.728-.565-.063-.36-.784-.45-1.17m-59.814.74q.535-.039 1.08-.055c.138.655.437 1.655-.314 2.036-.653-.442-.673-1.28-.766-1.98m2.034.524c.933-.18.567 1.66-.234 1.446-.22-.484-.105-1.047.234-1.446m1.262.01q.418 0 .799.183c.095.272.03.57.047.854a73 73 0 0 1-1.031.03c.05-.354-.01-.75.185-1.067m55.896.658c.271-.598.87-.196 1.315-.073a8.5 8.5 0 0 0-.896 2.129c-.359-.608-.956-1.363-.42-2.056m-22.057.668c.523.015 1.379-.538 1.635.173-.257.693-1.75.813-1.635-.173m2.769.371c.035-.58.683-.492 1.067-.331-.316.193-.673.59-1.067.331m5.086-.324c1.097-.24.64 1.333.053 1.712-.143-.29-.266-.582-.4-.873q.17-.42.347-.839m-9.499.671.12-.113c.535.798-.255 1.938-1.182 1.416.357-.432.706-.872 1.062-1.303m1.998.773c.281-.148.743.113.58.442-.075.447-.685.544-1.006.3-.03-.303.075-.68.426-.742m2.076.098c.397-.106.794-.211 1.2-.31q.065.458.138.917-.64.014-1.277.018a27 27 0 0 1-.06-.625M125.628 130a9.5 9.5 0 0 1 .386-2.287q.297.538.598 1.077-.105.613-.169 1.235a77 77 0 0 0-.815-.025m-50.11-1.354c.264-.133.598-.652.911-.306 1.075.97 2.049 2.232 2.152 3.73-.39-.152-.786-.278-1.142-.494-.221-.55-.284-1.155-.573-1.674-.354-.513-.888-.854-1.348-1.256m24.402.251a20 20 0 0 1 1.278-.474q-.12.442-.264.876c-.406.078-.81.15-1.215.196.06-.2.118-.404.201-.598m16.598.189.206-.033c.027.61.188 1.203.346 1.792-.344-.037-.688-.055-1.024-.075-.073-.615.053-1.212.472-1.684m-10.368 1.375q.21-.576.44-1.144.65.193 1.308.381c-.201.312-.317.748-.73.826a10 10 0 0 1-1.017-.063m4.864-1.195c.189-.25.811-.323.856.083-.062.487-1.154.49-.856-.083m-7.075 1.155c-.167-.775.584-1.1 1.199-.745-.369.28-.653.898-1.2.745m5.731.658c.437-.233.864-.482 1.308-.703-.025.603-.675 1.845-1.218.859zm-10.337.286c.356-.339.798-.67 1.325-.427-.331.422-.848.427-1.325.427m26.137 1.662c-.32-.763-.342-1.71.22-2.365.284.698.693 2.031-.22 2.365m-21.041.246c.381-.773.883-1.476 1.393-2.171.073.597.635.733 1.094.946-.419.404-.996.357-1.528.349-.184.861-.746 1.554-1.66 1.644l.008-.7c.173-.018.52-.05.693-.068m12.862-1.948.01-.003c.08.605.193 1.208.271 1.815-.632-.24-.951-.778-1.051-1.413q.381-.204.77-.4zm-3.541.198c.797-.055.925.962 1.169 1.51-.407.064-.818.348-1.228.215-.195-.517-.466-1.343.058-1.725m-36.305 1.379c-.098-.52.584-.372.84-.184.452.196.528.696.653 1.117-.575-.11-1.34-.268-1.493-.933m33.376.381c.647.927.934 2.036 1.049 3.15-.447-.132-.886-.265-1.33-.383-.262-.937-.063-1.883.28-2.767m-3.215 1.333c.085-.356.562-.718.901-.46.45 1.143.251 2.577-.876 3.24-.374-.887-.218-1.871-.025-2.78m-5.698.789c.075-.452.163-.902.273-1.346.154.23.314.464.477.693l.653-.168c.065.218.19.657.254.876-.231.384-.447.775-.658 1.172q-.477-.632-1-1.227m12-.141c-.372-.818.645-.941 1.205-.916.13.263.22.544.329.82-.492.08-1.097.495-1.534.096m11.821.884c-.69-.432-.533-1.409-.161-2.004.218.645.253 1.33.16 2.004m-44.428-.428c.437-.444 1.18-.376 1.368.277a7.3 7.3 0 0 1-1.368-.276m3.283.012c-.09-.84.896-.15 1.225.04-.311.477-.946.43-1.225-.04m32.59 2.24c-.383-.668-.725-1.441-.366-2.2.339.761.78 1.474 1.34 2.094q-.49.052-.973.106m-36.57-1.64c.37-.133.831-.08 1.11.221.412.967-1.838.497-1.11-.22m32.957.544c.452-.324.922-.637 1.444-.838-.194.986-.03 2.43-1.077 2.954-.515-.14-.987-.406-1.499-.554-.5-.033-1.029.248-1.5.042-.262-.406-.151-.918-.184-1.373q.66-.019 1.328-.022c.233.416.314 1.074.876 1.175l.901.238c.1-.567-.038-1.115-.289-1.622m-29.148-.258c.542-.372.893.369.451.71-.474.271-.918-.417-.452-.71m41.234 2.194c-.367-.58-.487-1.318-.066-1.903a3.7 3.7 0 0 1 .066 1.903m-38.304-1.562c.356-.268.881.319.645.665-.356.236-.906-.313-.645-.665m-4.491.359c.557.063 1.333-.12 1.534.588l-.605.411-.008.073c-.372-.296-.625-.71-.921-1.072m3.858.565c.61-.374 1.047.618.357.756-.537.27-.899-.6-.357-.756m6.783.69c.728-.446 1.388.108 1.973.525q-.563.22-1.12.434c-.286-.32-.574-.637-.853-.959m25.05-.253.017-.005c.08.359.153.72.246 1.082-.23.033-.695.095-.929.125a43 43 0 0 1-.185-.92q.421-.143.85-.282m-33.578.59c.752-.201 1.387.208 1.87.75-.141.106-.427.314-.57.42-.452-.317-1.28-.533-1.3-1.17m25.3 1.067c.123-.743.886-.901 1.456-1.195q.088.756.158 1.516a46 46 0 0 1-.786-.404c-.206.02-.62.06-.828.083m-19.251-1.218c.929.008 1.842.276 2.465 1-.42.235-.841.464-1.26.697-.477-.51-.846-1.104-1.205-1.697m8.582 1.213a6 6 0 0 1 1.368-1.11c.113.113.342.337.457.447-.23.349-.436.713-.695 1.042-.422.17-.77-.231-1.13-.38m26.135 1.103c-.427-.648-.626-1.604-.083-2.245.208.731.233 1.5.083 2.245m-18.177.442c.2-.66.155-1.6.868-1.958.771.394.269 1.41.304 2.09q-.592-.064-1.172-.132m-16.889-1.434c.394.028.612.435.916.643-.336.208-.668.417-1.004.615.008-.397-.542-1.162.088-1.258m27.63 1.434c-.01-.54.196-1.017.59-1.386.103.472.221.944.367 1.408zm-29.463.296c.254-.219.482-.475.764-.665.369.23.692.524 1.016.818-.45.38-.984.738-1.571.394a7 7 0 0 1-.209-.547m23.931-.013c.725.199 1.44.58 1.483 1.426-.49.076-.981.179-1.476.176-.49-.291-.562-.871-.49-1.386.121-.052.362-.163.483-.216m-5.345.721q.637-.017 1.28-.023c.023.646-.208 1.223-.913 1.313-.12.46-.244.927-.545 1.306-.442-.02-.901-.045-1.303.163-.017-.208-.05-.623-.065-.831.477-.003.951.048 1.43.09a3.2 3.2 0 0 0-.172-1.36q.138-.331.288-.658m-7.709.64.673-.271c.1.464.2.934.334 1.393q-.836.086-1.664.18.332-.648.657-1.302m10.694 2.287c.133-.74.254-1.569 1.032-1.91.082.484.173.971.26 1.456q-.142.502-.263 1.014-.512-.29-1.029-.56m3.09-1.07q.643-.068 1.293-.117c-.01.426.035 1.185-.588 1.144-.572.063-.582-.642-.705-1.026m-44.361.991c.349.482.226 1.137.291 1.7a34 34 0 0 1-1.734-.575c-3 1.65-.713-2.564 1.443-1.125m1.785-.261c.42-.078.848-.063 1.275-.065.023.354.203.766-.068 1.074-.376.377-.951.394-1.433.538.055-.518.02-1.062.226-1.547m3.608.469c.667.3 1.264.729 1.827 1.198-.839.595-1.948-.23-1.828-1.197m24.134 1.827c.107-.482.218-.964.32-1.448.548.003 1.098.005 1.65.017-.228.357-.389.77-.708 1.057-.406.176-.846.251-1.262.374m7.337.407c.66-.201.879.547 1.047 1.017a16 16 0 0 0-.522.344c-.297-.078-.59-.159-.881-.234.097-.379.022-.853.356-1.127m-27.404.53c.464.188 1.25.441 1.147 1.069-.454.028-.959.055-1.328-.254a.78.78 0 0 1 .18-.815m32.902 1.225c.34.055.668.158 1 .263.286.452-.462.517-.698.746l-.533.926c-.03-.65-.2-1.376.231-1.935m-32.597.447c.343-.078.697-.09 1.051-.108-.008.308 0 .62-.03.928-.309.214-.725.07-1.072.118q.005-.473.05-.938m3.236 1.029c1.042-.035 1.64 1.112 2.026 1.938a13 13 0 0 1-1.12.085c-.462-.55-1.192-1.255-.906-2.023m33.148 1.26c.03-.67.497-1.06 1.102-1.268-.048.462-.113.922-.138 1.386l-.018-.003a90 90 0 0 1-.946-.115m-28.544.6c.884.527 1.546 1.386 1.73 2.41l-.944.11c-.34-.815-.623-1.651-.786-2.52m-3.901 1.416c.299-.38.678-.678 1.162-.78a17 17 0 0 1-.396 1.26q-.389-.242-.766-.48m-.69 1.273c.416-.156.83-.34 1.275-.412.427.239.098.65-.023.98-.361-.034-.715-.126-1.064-.197zm49.615.585c.597.253.444.921.421 1.438-.507-.319-.497-.911-.421-1.438m-22.58 3.617c.03-.68.07-1.363.233-2.026.57.555.221 1.386.214 2.066zm21.686-1.657c.552-.431 1.04.467.663.894a8 8 0 0 1-.608.16c-.035-.35-.075-.702-.055-1.054m-1.054.937c.341-.37.979-.038.8.484.005.475-.517.864-.956.633-.21-.35-.198-.864.156-1.117m-36.421 1.142c.361.567.738 1.17 1.453 1.318.178.434.44.846.889 1.047.705.356.941 1.192 1.285 1.848-1.265-.287-2.272-1.223-3.055-2.21-.477-.56-.613-1.29-.572-2.003m39.817.859c.015-.375.372-.59.572-.864.106.51.314 1.298-.27 1.59-.465.064-.287-.453-.302-.726m-24.108-.452c.933-.05.836 1.009.931 1.664l-1.044-.015q.026-.825.113-1.65m21.944 1.959c.603-.048.39.64.229.969-.58 0-.422-.638-.229-.97m-21.869.5c.45.086 1.057-.04 1.343.422.319.485.279 1.097.359 1.652-.392-.113-.982.12-1.2-.334-.334-.52-.407-1.147-.502-1.74m-11.715.327c.78-.189 1.559.286 1.963.941.05.568-.515.41-.864.311-.522-.21-1.165-.605-1.1-1.252m2.375.735c.618-.677 1.853-.203 1.896.718a16 16 0 0 1-1.896-.718m31.145 1.963c-.477-.391-.284-.948.268-1.089q-.12.547-.268 1.09m-20.544-.267c.53.028 1.085.171 1.278.736.966 1.888 2.41 3.447 3.825 5-1.35-.303-2.696-.94-3.544-2.07-.778-1.085-1.664-2.252-1.559-3.666m-9.702.448c.078.097.238.288.319.383.71-.635 1.724-.318 2.503.018.404.138.562.54.68.916-.643-.16-1.22-.484-1.835-.715-.58-.025-1.137.165-1.695.28.008-.22.02-.662.028-.883m28.401 2.573c-.02-.713.304-1.348.846-1.8a1.71 1.71 0 0 1-.846 1.8m-.126.985c.279-.199.57-.395.869-.575l-.083.685a9 9 0 0 1-.786-.11m-22.891.025c.588.022 1.145.248 1.426.8-.61.003-1.227-.163-1.426-.8m.03 2.771c.25-.15.465-.514.801-.366.563.313.789.956 1.062 1.5l-1.521.069c.356-.116.725-.279.69-.723-.331-.189-.687-.334-1.031-.48m5.163-.248c.326-.344.78.29.487.577-.341.301-.765-.284-.487-.577m-10.124.2c.856.39 1.682.839 2.518 1.276q-.36.27-.76.47c-.211-.274-.39-.568-.57-.854q-.496-.041-.984-.078a55 55 0 0 1-.204-.814m4.002 4.072c-.73-.637-1.75-1.5-1.1-2.568.374.266.736.563 1.09.866q-.073.592.524.683l.035.05q-.27.486-.55.97m-3.031-.543c-.716-.336-.247-.871.228-1.077a3.4 3.4 0 0 1-.229 1.077m8.294.755c-.755-.408-.986-1.387-.286-1.97.766.384 1.037 1.416.286 1.97m1.511-1.435c.445-.05 1.306.01 1.15.663 0 .361-.502.057-.698.037-.176-.22-.314-.462-.452-.7m-9.456 1.368c.254-.311.558-.82 1.042-.59.339.259.595.618.79.997.028.507-.64.605-.933.896a63 63 0 0 1-.899-1.303m3.286.56c.075-.477.41-.708.879-.545.396.5.65 1.095.878 1.69-.374.256-.708.567-1.09.81-.263-.63-.71-1.247-.667-1.955m-4.676 1.448c.115-.562.958-.205 1.102.186.288.562-.169 1.077-.62 1.356-.201-.5-.385-1.012-.482-1.542m3.192-.045c.211-.196.48-.309.731-.452.19.598.397 1.203.427 1.838-.251.266-.573.628-.967.41-.256-.543-.605-1.243-.19-1.796m22.034.464c.272-.336.307.382.272.548-.046.314-.384.422-.613.57-.188-.404-.098-.919.341-1.117m-19.459 1.403c.211-.382.653-.5 1.024-.663.126.643.286 1.288.309 1.95-.088.468-.628.578-.976.787-.176-.68-.36-1.369-.357-2.074m-4.162.018c1.002.107.55 1.865-.339 1.812-.532-.545-.248-1.438.34-1.812m-3.49.288c.344.176.856.211.964.663.078.572-.58.693-.977.836q-.017-.752.013-1.499m26.585.52c.85-.37 1.321 1.318.664 1.795-.723-.271-.824-1.14-.663-1.795m-21.081.931c.1-.575.758-.685 1.21-.848.02.678.193 1.408-.078 2.058-.314.171-.663.259-.992.374-.07-.524-.213-1.057-.14-1.584m-4.775 2.039c-.446-.723-.27-1.742.648-1.956q.19.62.384 1.245c-.344.241-.685.48-1.032.71m-4.119-1.601c.844.17 1.383.846 1.717 1.597q-.471.2-.939.401c-.319-.642-.615-1.297-.778-1.998m6.406 1.022q.63-.36 1.275-.696c.02.53.123 1.075.008 1.605-.356.165-.738.276-1.107.396a40 40 0 0 1-.175-1.305zm5.186-.156c.261-.236.628-.311.947-.454a15 15 0 0 1-.254 2.842q-.66 0-1.308.025c.239-.794.327-1.632.615-2.413m19.126.66q.516-.618 1.114-1.154c.425.399.902.758 1.248 1.235.311.592-.236 1.328-.896 1.134-.59-.26-1.002-.79-1.466-1.215m5.013-.143q.634-.02 1.28-.017c-.163.354-.025 1.115-.577 1.08-.618.16-.578-.678-.703-1.063m-26.702.656c.352-.264.761-.43 1.16-.615a8 8 0 0 1-.407 1.938c-.198.022-.592.065-.788.085-.003-.472-.017-.941.035-1.408m24.829-.327q.535.026 1.077.07c-.058.452-.045 1.374-.786 1.055-.52-.043-.208-.776-.29-1.125m-29.165.517c.844.04.15 1.479-.565 1.288-.401-.462.028-1.187.565-1.288m-7.679.031c.753.235 1.135.938 1.3 1.666-.823-.135-1.187-.928-1.3-1.667m3.936 1.617c.058-.615.118-1.388.799-1.64.416-.042.487.51.439.804-.126.565-.808.623-1.238.836m18.074-.901c.525-.203.517.896-.003.974-.462-.055-.256-.766.003-.974m-2.455 2.335c-.62-.374-.296-1.29.018-1.778.23.573.218 1.21-.018 1.778m-18.279-1.253c.404.394 1.064.793.903 1.459-.13.572-.773.446-1.202.512q.183-.475.386-.94a29 29 0 0 1-.087-1.031m20.646.628c.676-.427 1.175.866.4 1.026-.626.256-1.01-.793-.4-1.026m-24.628.374c.405.306 1.004.733.781 1.323-.625.401-1.125-.799-.78-1.323m38.134 1.503c-.642-.185-.34-.984.212-1.059-.05.354-.073.723-.211 1.06m-16.287-.721q.498.13.995.281c-.251.289-.42.703-.809.831-.296-.291-.133-.748-.186-1.112m3.49.56c.18-.445.738-.337 1.114-.377-.23.442-.457.889-.763 1.283-.412-.06-.615-.577-.351-.906m-24.161.432c.6-.149.748.479.989.878-.327.045-.668.311-.992.181-.17-.339-.148-.723.003-1.06zm26.425.276c.432-.066.635.517.961.725-.451.33-1.029 1.273-1.619.643-.409-.545.226-1.087.658-1.368m10.965 1.506c-.31-.362-.096-.901.276-1.12.612-.123 1.137.314 1.67.55q-.31.638-.628 1.268c-.45-.219-.934-.38-1.318-.698m-14.891-.62c.879-.045-.256 1.903-.75.936.055-.416.283-.883.75-.936m4.892 1.222c.141-.431.294-.863.45-1.29.7.321 2.29.45 1.94 1.562-.587.858-1.664-.058-2.39-.272m12.2.262c-.012-.533-.105-1.29.573-1.451.89.348.3 1.722-.573 1.45m1.737-.087q.09-.547.404-.99c.58.31.244 1.148-.404.99m-17.827.695c.26-1.067 1.44-.788 2.204-.49-.241.352-.33.937-.836.997-.497-.033-.927-.314-1.368-.507m7.516-.472c.185.266.38.527.536.819.13.416-.331.71-.662.823-.37-.168-.648-.472-.95-.72q.528-.47 1.075-.922m-5.469 1.16c.336-.309.59-.861 1.094-.889.447.156.956.357 1.232.766.096.454-.464.542-.785.61-.57.103-1.065-.246-1.542-.487m2.681 1.487c.13-.28.04-.777.41-.877.406-.351.695.341 1.004.487-.47.148-.937.286-1.414.39m3.753-.52c.545.025.462.926-.063.946-.434-.168-.426-.954.063-.947m-2.136.791c.18-.464.85.269.728.628.07.876-1.07-.123-.728-.628m8.658.447c.853.158.467 1.582-.334 1.416-.347-.467-.203-1.167.334-1.416m-6.017.48c.522-.244.376.492.329.795-.535.57-.743-.537-.33-.795m6.846 1.697q.25-.603.517-1.195c.372.11.75.223 1.122.351.226.153.457.314.683.477-.246.264-.482.537-.75.78-.553-.007-1.062-.24-1.572-.413m-6.642 1.539c-.668-.515-.266-1.497 0-2.122.367.66.367 1.459 0 2.122m-32.676-1.467c.301.126.593.252.896.385l-.328.544q.069.36.145.726a12 12 0 0 1-.77-.196c-.113-.48.027-.977.057-1.459m1.865 1.208c.427.003.352.7-.055.658-.422-.013-.349-.693.055-.658m32.756 1.876a3.6 3.6 0 0 1 .99-.977c.107.605-.314 1.265-.99.976m-35.336.951c-.02-.667.14-1.327.723-1.719.035.655.003 1.454-.723 1.72m1.81-.565c1.094-.319.23 1.765-.51 1.097-.045-.427.103-.894.51-1.097m1.25.534q.417-.236.816.06c-.043.538-.66.965-1.135.598q-.02-.428.319-.657m32.588 1.594c-.525-.613.431-1.429 1.057-1.534-.116.64-.442 1.25-1.057 1.534m-36.615 1.19c-.602-.645-.175-1.597.676-1.695-.191.578-.42 1.142-.676 1.695m37.657-1.05c.496-.18.604.465.876.736q-.335.222-.653.46c-.178-.367-.68-.822-.224-1.196m-36.189 1.637c-.352-.695.245-1.413 1.003-1.293-.318.412-.379 1.278-1.004 1.293m1.283-.108c.324-.404.974.126.51.475-.334.419-.977-.128-.51-.475m-5.327 1.436c.023-.665.578-1.017 1.173-1.145-.118.626-.63.937-1.173 1.145m1.285.477c.018-.407.066-1.092.656-.944.421.525-.332.696-.655.944m1.471.741c-.332-.595.308-1.022.74-1.303.063.575-.203 1.077-.74 1.303m-4.81-.068c.351-.567.951-.854 1.614-.866-.344.577-.946.879-1.614.866m38.334 1.353c-.053-.989.477-2.27 1.687-2.003-.291.86-.977 1.478-1.687 2.003m-39.745-.291c-.068-.633.392-1 .994-1.004-.113.52-.524.826-.994 1.004m-1.77 1.263c.026-.588.575-.914 1.005-1.21.248.913.692 2.27-.307 2.89-.334-.508-.645-1.065-.698-1.68m41.539 1.147c-.057-.879.48-1.61 1.289-1.893.138.876-.437 1.682-1.288 1.893m-2.176.158c-.261-.946.647-1.853 1.586-1.582a11.7 11.7 0 0 1-1.586 1.582m.451 1.584c-.1-.856.48-1.556 1.225-1.878.118.789-.283 1.92-1.225 1.878m-40.6-1.484q.477.542.85 1.16c-.22.03-.436.04-.652.038-.113-.39-.156-.798-.198-1.197m-1.906.474c.61-.085 1.015.359 1.226.879-.538.118-1.617-.136-1.225-.879m-2.056.655c.424-.12.856-.208 1.295-.276-.158.625-.904.783-1.295.276m41.481 3.38c.688-.608 1.132-1.683 2.19-1.663-.535.821-1.376 1.379-1.911 2.202-.208.326-.565.495-.889.678a1.64 1.64 0 0 1 .61-1.218m-1.064 1.434c.635-.211.735.991.168.976-.597.058-.482-.71-.168-.976m-.628 1.657c1.32.228 1.371 2.367.026 2.593q-.061-1.299-.026-2.593m-.674 4.664c-.006-.592.105-1.185.69-1.461.042.59-.016 1.278-.69 1.461m-.739.472c.342-.15.583.422.198.522-.346.146-.587-.432-.198-.522" style="stroke-width:.352778"></path><g style="stroke-width:1.40013"><path fill="#020204" d="M47.21 176.538c.607-2.401-.26-6.735 2.929-7.443.289.379.846 1.116 1.125 1.485-1.424 4.125-.01 9.445-3.736 12.524-.508-1.943.34-4.812-2.102-5.62a49 49 0 0 1 1.784-.946m-52.435 7.961c.538-1.315 1.415-2.421 2.5-3.318.619 2.83 3.617 2.7 5.8 3.587 3.506 1.086 5.608 4.324 7.57 7.204-4.313-.08-8.308 1.703-12.532 2.172l.08-3.767c-2.362-1.225-4.992-1.673-7.582-2.042 1.125-1.534 2.63-2.72 4.164-3.836m46.785 8.021 1.425-1.066c4.454 2.39 10.491 6.117 9.674 11.966-2.66-4.623-6.864-7.842-11.098-10.9m22.824.12c.768-1.406 3.477-.23 2.142 1.195-.846 1.215-3.387.269-2.142-1.196m-6.326 14.607c2.47.369 3.348 2.68 3.278 4.902-.608-.349-1.813-1.066-2.421-1.425.02-.18.05-.538.07-.717l-.01-.01zm-15.143 4.633c.976.498 1.932.996 2.949 1.505-.429 2.71-.957 5.4-1.565 8.07a103 103 0 0 1-2.979-2.92 258 258 0 0 0 1.595-6.655m-12.324 3.178c.328-.647.976-1.933 1.305-2.58 3.327 2.331 3.885 6.337 2.78 10.023.956 1.335 1.922 2.69 2.879 4.045a54 54 0 0 1-4.006 4.235 164 164 0 0 1-.797-5.27c-.687-.08-2.062-.25-2.75-.33l.02-1.494c.718.09 2.163.279 2.88.379-.14-1.286-.17-2.581-.448-3.836-.558-1.754-1.226-3.458-1.863-5.172m19.756-.867c3.636 2.83 4.075 7.673 2.142 11.638a29 29 0 0 0-.688 4.703c-3.267-.767-2.49-4.773-2.181-7.254.797-2.979 1.574-5.998.727-9.086m8.767 1.175c1.166-.249 1.684 1.286 2.6 1.754-.418 1.066-.836 2.132-1.225 3.208-1.843-.996-2.66-2.83-2.64-4.862.319-.02.946-.07 1.265-.1m-20.105 5.879c1.445.528 2.88 1.096 4.334 1.674-.966.707-1.923 1.425-2.87 2.132-.697-1.186-1.155-2.491-1.464-3.806m16.768 3.128c-.25-1.923 2.261-2.052 3.586-2.47.837 2.84-.906 4.961-3.626 5.609-.01-1.056 0-2.102.04-3.139m-30.407-.059c2.301-.708 1.903 3.636-.12 3.357-1.434-.538-1.145-2.79.12-3.357m-17.415 4.055c1.186.11 2.381.229 3.597.359a208 208 0 0 0 1.683 5.898c-1.833-.817-3.746-1.405-5.609-2.102-.04-1.395.16-2.78.329-4.155m13.818.608c2.98 1.086 3.567 4.493 5.211 6.855l-2.6.398c.199-.827.607-2.48.817-3.318-.817.09-2.451.25-3.268.33-.08-1.426-.13-2.85-.16-4.265m27.169 7.771c-.21-1.684-.01-3.387.937-4.822.358 1.724 1.733 4.214-.937 4.822m-32.05 4.095c.817-2.261 2.092-4.294 3.377-6.307.588.429 1.763 1.276 2.351 1.694-1.813 1.654-3.586 3.378-5.728 4.613m-4.883-3.696c1.306-1.036 2.76-1.824 4.514-1.425a203 203 0 0 1-3.427 3.149A84 84 0 0 0 15 242.119l-.479.448c-1.215.807-2.5 1.534-3.726 2.302-2.68-2.133-1.992-5.52-1.783-8.51.986.27 1.983.529 2.999.788m36.095 1.494c1.395 1.216 1.933 2.98 2.74 4.594.528 1.155 1.016 2.311 1.584 3.467-1.664-1.126-3.885-1.953-4.603-3.995-.18-1.356.12-2.73.28-4.066m-1.964 10.642c.26-1.306.568-2.591.937-3.876 1.763 1.215 1.694 4.085-.937 3.876m5.301-1.266c.617-.04 1.873-.13 2.5-.18-.05 1.376-.07 3.737-2.201 3-.14-.947-.24-1.883-.3-2.82m-37.958 2.352c1.764.289 1.415 3.537-.219 3.796-1.654-.429-1.305-3.398.22-3.796m30.874 1.803c2.441-.966 1.335 3.168-.468 3.029-1.554-.339-.438-2.53.468-3.029m10.87.518c1.175-.359 2.8 1.206 1.634 2.232-1.555 1.465-4.045-1.694-1.634-2.232m-43.538 3.806c.458.12 1.385.349 1.843.469-.378 2.38-.707 4.782-1.335 7.114-2.172-2.053-.647-5.082-.508-7.583m26.441 3.677c1.066-.917 2.122-1.843 3.218-2.76l.738 1.285c.09.15.269.459.358.618-.837 2.072-1.942 4.025-3.208 5.859-2.032-1.236-3.656-2.97-4.622-5.132.876.03 2.63.1 3.516.13m-26.75 6.546c1.226.817 2.092 2.023 2.88 3.268.657.17 1.962.528 2.62.707l-.04 1.913c-.648.17-1.943.499-2.59.668a97 97 0 0 1-1.893-2.75c-.578-1.186-.708-2.56-.977-3.806m-1.245 15.961c1.624.14 3.278.28 4.872.718.209 1.774-.17 3.537-.449 5.28a100 100 0 0 1-5.26-1.095c.259-1.634.538-3.278.837-4.902m20.015 5.39c-.03-1.893 1.923-2.292 3.288-2.96.239 1.754.438 3.518.618 5.282-1.445-.538-3.707-.3-3.906-2.322m38.098-.169a22.2 22.2 0 0 1 2.132 10.362c-1.166-3.338-1.843-6.835-2.132-10.362m-60.733 2.849c1.434-.259 2.909-.588 4.373-.209.29 1.584-.996 3.278-2.56 1.983a152 152 0 0 1-1.813-1.774M20.2 293.65c-1.414-.846-.717-3.825.947-3.925 1.365.857.697 3.806-.947 3.926m4.494.359c2.052-.638 4.114-1.266 6.226-1.734-.757 2.45-2.271 4.533-4.742 5.45a144 144 0 0 1-1.484-3.717m18.042 6.307c2.053-.966 3.846-2.361 5.33-4.075.07.787.21 2.362.27 3.159 1.663-.578 3.317-1.156 5-1.724.33 1.574.648 3.148 1.007 4.733-.478.209-1.435.647-1.913.857-.09-2.302-2.401-3.159-4.294-2.272-1.843 1.534-3.357 3.437-5.21 4.972-.19-1.883-.22-3.767-.19-5.65m-25.794 1.465c2.013-1.784 4.354-3.139 6.835-4.185-.777 2.95-4.005 4.364-6.835 4.185m-6.326 8.649c.747-1.555 3.268-.31 1.963 1.145-.767 1.594-3.308.3-1.963-1.146m16.638 5.789c1.594-.827 3.417-.727 5.17-.647-.946 1.265-1.823 2.57-2.69 3.885-1.265-.298-2.54-.617-3.775-.896-.18.598-.548 1.813-.737 2.411-.967-.389-1.873-.907-2.79-1.325 1.594-1.146 3.188-2.312 4.822-3.428m35.846 5.899c.449-2.182.588-4.414.837-6.616 2.272.867 4.284 2.242 5.769 4.205-1.365-.459-2.72-1.017-4.035-1.545-.588 2.78-1.395 5.51-2.481 8.14 1.415.867 1.694 2.362 1.684 3.926a69 69 0 0 1-3.02-2.192c-1.225 1.555-2.4 3.159-4.004 4.334 1.185-3.706 3.836-6.675 5.25-10.252m-18.122-5.231c1.365.717 2.73 1.455 4.085 2.222-1.166.916-2.68 2.301-4.135 1.036-.09-1.086-.02-2.182.05-3.258m6.914 1.754c2.142 1.504 2.85 3.985 2.78 6.506-2.132-1.515-2.77-4.016-2.78-6.507m-21.211 2.741c1.375-1.017 2.72 1.404 1.405 2.271-1.415.967-2.58-1.395-1.405-2.272m11.846 3.916c.478-1.733 2.85-1.395 4.214-1.733-1.444 5.031-1.783 12.514-8.309 13.48.11-2.371.24-4.732.31-7.094a467 467 0 0 1 2.44 2.132c.448-2.261.737-4.563 1.345-6.785m12.523 5.281c-1.923-.26-1.215-2.63-.12-3.448.43.718 2.392 4.235.12 3.448m-75.359 38.898c2.79 1.793 3.527 5.091 5.131 7.752a16.1 16.1 0 0 1 5.171 4.872 57 57 0 0 1-3.248 2.79c-1.783-.797-2.82-2.431-3.527-4.155-1.295-3.717-2.64-7.423-3.527-11.259m11.289 11.159c-2.65-1.883-3.537-6.416-.29-8.17.25 2.72.359 5.44.29 8.17m-.698 17.547c.18-1.256.259-2.541.807-3.707 5.29 1.295 10.321 3.467 15.502 5.121-.03.877-.08 2.63-.11 3.507-5.519-1.205-11.008-2.65-16.2-4.922m16.32 16.689c-.777-1.365-.02-2.86 1.664-2.57 3.616-.14 7.273-.13 10.88.289 1.763.707 2.31 2.72 3.287 4.184-2.411.21-4.792.738-7.203.658a219 219 0 0 0-8.628-2.56m115.788 4.164q-1.24-1.704.359-2.78c1.404-.11 2.43 1.873 1.614 3-.489-.05-1.475-.16-1.973-.22m-87.613 6.765c2.082-.966 4.244-1.823 6.406-2.65.956 1.475 2.062 2.87 3.098 4.314-3.198-.398-6.555-.219-9.504-1.664m-5.34 3.787c-1.674-1.226-3.686-2.98-1.355-4.773 1.365.578 2.78 1.156 4.095 1.903.14 1.764-1.325 2.411-2.74 2.87" style="stroke-width:1.96037" transform="translate(99.065 65.897)scale(.25196)"></path></g><g style="stroke-width:1.40529"><path fill="#d93e05" d="M902.14 183.98c2.08.15 4.77-.76 6.46.93-1.54 2.15-5.03.86-6.46-.93" style="stroke-width:1.9676" transform="matrix(.25102 0 0 .25104 -124.786 63.942)"></path></g><g style="stroke-width:1.40529"><path fill="#680702" d="M849.32 232.25q.735.765 0 0" style="stroke-width:1.9676" transform="matrix(.25102 0 0 .25104 -124.786 63.942)"></path></g><g style="stroke-width:1.40529"><path fill="#cc1201" d="M913.77 241.88c.82-.08 2.46-.24 3.28-.33-.21.84-.62 2.5-.82 3.33l-1.08.45-.69-.45c-.59-.42-1.77-1.27-2.36-1.7z" style="stroke-width:1.9676" transform="matrix(.25102 0 0 .25104 -124.786 63.942)"></path></g><g style="stroke-width:1.40529"><path fill="#d52303" d="M892.64 245.58c1.26-1.48 2.93-.09 4.37.25a148 148 0 0 1-4.42 3.89c-.36-1.36-1.48-3.06.05-4.14" style="stroke-width:1.9676" transform="matrix(.25102 0 0 .25104 -124.786 63.942)"></path></g><g style="stroke-width:1.40529"><path fill="#610703" d="M889.22 279.26q.78.72 0 0" style="stroke-width:1.9676" transform="matrix(.25102 0 0 .25104 -124.786 63.942)"></path></g><g style="stroke-width:1.40529"><path fill="#d63104" d="M823.35 279.65c2.38.12 4.55 1.14 5.17 3.63-2.53.2-4.94-.8-5.17-3.63" style="stroke-width:1.9676" transform="matrix(.25102 0 0 .25104 -124.786 63.942)"></path></g><g style="stroke-width:1.40529"><path fill="#6f0803" d="M800.28 290.25c.85 1.51 1.8 3.03 2.21 4.74-.14 3.04-1.28 5.91-1.94 8.86-.37-4.53-.57-9.07-.27-13.6" style="stroke-width:1.9676" transform="matrix(.25102 0 0 .25104 -124.786 63.942)"></path></g><g style="stroke-width:1.40529"><path fill="#df6408" d="M878.18 296.36c1.36-.42 1.91.08 1.63 1.48-1.4.41-1.94-.09-1.63-1.48m133.1 225.86c1.64.07 1.23 2.79-.23 2.85-1.68-.09-1.24-2.78.23-2.85" style="stroke-width:1.9676" transform="matrix(.25102 0 0 .25104 -124.786 63.942)"></path></g><g style="stroke-width:1.40529"><path fill="#d73404" d="M786.79 327.09c-.37-2.82 2.49-1.99 4.29-2.18 0 .82 0 2.45.01 3.27-1.47-.25-3.1-.08-4.3-1.09" style="stroke-width:1.9676" transform="matrix(.25102 0 0 .25104 -124.786 63.942)"></path></g><g style="stroke-width:1.40529"><path fill="#d83905" d="M774.91 325.75c3.3-.79 1.77 3.24 2.17 5.07-2.02-1-2.36-3.04-2.17-5.07" style="stroke-width:1.9676" transform="matrix(.25102 0 0 .25104 -124.786 63.942)"></path></g><g style="stroke-width:1.40529"><path fill="#0f0f05" d="M902.78 331.09c1.37-2.19 3.35-3.83 5.48-5.24-1.85 4.42 5.97 1.48 4.45 5.28-3.31.22-6.63.1-9.93-.04" style="stroke-width:1.9676" transform="matrix(.25102 0 0 .25104 -124.786 63.942)"></path></g><g style="stroke-width:1.40529"><path fill="#dd5b07" d="M934.17 369.41c1.38.21 1.59.89.62 2.03-1.4-.22-1.61-.9-.62-2.03" style="stroke-width:1.9676" transform="matrix(.25102 0 0 .25104 -124.786 63.942)"></path></g><g style="stroke-width:1.40529"><path fill="#d62e04" d="M1022.63 395.64c-.14-2.15.47-5.77 3.54-4.88.42 2.48-1.25 4.29-3.54 4.88" style="stroke-width:1.9676" transform="matrix(.25102 0 0 .25104 -124.786 63.942)"></path></g><g style="stroke-width:1.40529"><path fill="#d73104" d="M1023.15 403.38c1.46-1.15 2.94 1.48 1.68 2.52-1.5 1.16-2.99-1.5-1.68-2.52" style="stroke-width:1.9676" transform="matrix(.25102 0 0 .25104 -124.786 63.942)"></path></g><g style="stroke-width:1.40529"><path fill="#e6920b" d="M915.46 421.18c1.38-.52 1.89-.07 1.51 1.35-1.4.51-1.9.06-1.51-1.35" style="stroke-width:1.9676" transform="matrix(.25102 0 0 .25104 -124.786 63.942)"></path></g><g style="stroke-width:1.40529"><path fill="#dc5107" d="M900.28 441.31c1.64.03 1.42 2.77-.15 2.71-1.68-.04-1.45-2.77.15-2.71" style="stroke-width:1.9676" transform="matrix(.25102 0 0 .25104 -124.786 63.942)"></path></g><g style="stroke-width:1.40529"><path fill="#b96609" d="M916.08 443.4c1.18.52 1.87 1.43 2.09 2.72-1.59-.24-2.28-1.15-2.09-2.72" style="stroke-width:1.9676" transform="matrix(.25102 0 0 .25104 -124.786 63.942)"></path></g><g style="stroke-width:1.40529"><path fill="#db4d06" d="M890.26 464.24c1.62-.53 2.16.03 1.63 1.67-1.64.51-2.18-.04-1.63-1.67" style="stroke-width:1.9676" transform="matrix(.25102 0 0 .25104 -124.786 63.942)"></path></g><g style="stroke-width:1.40529"><path fill="#f6fb70" d="M830.25 478.25q.705.795 0 0" style="stroke-width:1.9676" transform="matrix(.25102 0 0 .25104 -124.786 63.942)"></path></g><g style="stroke-width:1.40529"><path fill="#e8ed6a" d="M836.3 478.35q.765.72 0 0" style="stroke-width:1.9676" transform="matrix(.25102 0 0 .25104 -124.786 63.942)"></path></g><g style="stroke-width:1.40529"><path fill="#790802" d="M931.02 495.31c3.33.06-1.47 3.02 0 0" style="stroke-width:1.9676" transform="matrix(.25102 0 0 .25104 -124.786 63.942)"></path></g><g style="stroke-width:1.40529"><path fill="#d73204" d="M946.19 503.01c.67.06 2.02.17 2.69.23-.11 1.56-.9 3.5-2.84 2.99-2.54.82-.76-2.65.15-3.22" style="stroke-width:1.9676" transform="matrix(.25102 0 0 .25104 -124.786 63.942)"></path></g><g style="stroke-width:1.40529"><path fill="#82860c" d="M1031.13 512.13c1.4-.46 1.87.02 1.42 1.43-1.41.46-1.89-.02-1.42-1.43" style="stroke-width:1.9676" transform="matrix(.25102 0 0 .25104 -124.786 63.942)"></path></g></g><!-- source: https://football-logos.cc --></svg>