<svg xmlns="http://www.w3.org/2000/svg" viewBox="114.95 83.96 556.39 910.75"><!-- Source: https://football-logos.cc --><path d="M427.146 637.67c13.728 15.622 32.641 37.153 36.638 41.741 6.426 7.379 10.938 10.47 10.234 14.518-.952 5.475-23.086 19.517-47.838 30.465-23.184 10.254-61.37 22.814-92.344 35.462-28.56 11.662-34.034 18.564-38.476 18.563h-.001c-4.442 0-9.917-6.901-38.476-18.563-30.975-12.648-69.16-25.208-92.344-35.462-24.752-10.948-46.887-24.99-47.838-30.465-.704-4.047 3.808-7.14 10.234-14.518 4.004-4.597 22.982-26.202 36.715-41.83l-.629-.09c-22.495-4.301-38.558-2.431-55.602 1.698-13.352 3.236-16.184 6.665-19.517 2.38-3.331-4.283.953-7.378 5.237-12.613 4.284-5.236 4.76-8.807 4.839-36.652V332.16c0-52.112 2.39-62.887 15.549-93.049 14.122-32.367 42.394-54.372 91.075-76.477 47.52-21.578 65.608-35.977 77.033-50.02 10.978-13.493 9.044-17.254 13.724-17.254s2.747 3.76 13.725 17.255c11.424 14.042 29.512 28.44 77.032 50.02 48.68 22.104 76.954 44.109 91.075 76.476 13.16 30.162 15.55 40.937 15.55 93.05v260.143c.079 27.845.555 31.416 4.84 36.652 4.283 5.235 8.567 8.33 5.235 12.613-3.332 4.285-6.165.856-19.516-2.38-17.01-4.121-33.043-5.992-55.466-1.724z" style="fill:#2549a4;fill-opacity:1;fill-rule:nonzero;stroke:none" transform="matrix(1.33333 0 0 -1.33333 -.667 1121.853)" data-source="https://football-logos.cc"></path><path d="M300.674 118.863v540.2l.833.032c28.473-.868 49.107-8.107 74.78-17.114 6.558-2.3 13.339-4.68 20.664-7.102 39.587-13.086 63.233-12.01 88.389-5.965-2.841-6.757-3.013-15.929-3.071-36.58V332.16c0-51.135-2.218-60.305-14.676-88.86-12.43-28.493-37.29-49.1-85.806-71.13-52.617-23.893-69.942-39.567-80.827-52.947z" style="fill:#fff;fill-opacity:1;fill-rule:nonzero;stroke:none" transform="matrix(1.33333 0 0 -1.33333 -.667 1121.853)"></path><path d="M416.501 641.42c13.811 15.716 35.149 40.005 39.386 44.87 1.807 2.075 5.436 5.91 5.739 6.232-6.092 4.86-20.397 13.765-39.682 22.295-12.201 5.396-28.87 11.524-46.515 18.01-7.139 2.625-24.656 9.179-24.656 9.179h-110.79s-16.912-6.318-24.693-9.178c-17.647-6.487-34.314-12.615-46.516-18.011-19.284-8.53-33.59-17.434-39.682-22.295.303-.322 3.932-4.158 5.739-6.232 4.345-4.99 26.677-30.408 40.43-46.059l.551.199c4.61 1.222 9.485 2.679 14.668 4.392a860 860 0 0 1 11.785 4l-.583.876-29.189 43.782c-2.1 3.181-.993 5.21 1.777 6.631l41.222 21.206c2.894 1.47 4.387 1.032 6.11-1.426l4.527-6.142c2.134-2.98 2.312-4.35-.484-6.194-2.797-1.844-4.418-1.288-6.314 1.38l-2.668 3.617-34.903-17.955 9.094-13.64 6.5 3.332c2.527 1.31 4.134 1.43 5.68-1.724 1.548-3.154.54-4.42-2.288-5.898l-5.23-2.705L209.7 652.69l.76-1.004c10.03 3.519 19.391 6.812 28.8 9.593l-.479.151a8.125 8.125 0 1 0 8.197 2.57l-.56-.715c14.83 3.918 30.228 6.406 48.941 6.37h.001c10.952.02 20.768-.823 30-2.311l-.382.433a8.125 8.125 0 1 0 9.271-1.489l-.945-.406c10.987-2.27 21.335-5.418 32.067-9.037l-.027 1.225-.695 60.494c-.012 4.76 2.19 5.236 4.213 5.236 2.32 0 4.128-1.548 4.117-5.177l.67-58.41.727.714 38.738 39.028c2.098 2.127 4.344 2.105 5.966.7 1.785-1.548 2.17-4.433-.076-6.59l-39.883-40.183-1.204-1.374c5.2-1.824 10.568-3.715 16.208-5.633l-.345.464a8.125 8.125 0 1 0 14.385 5.18 8.13 8.13 0 0 0-6.023-7.85l-.831-.198a251 251 0 0 1 14.133-4.183z" style="fill:#fff;fill-opacity:1;fill-rule:nonzero;stroke:none" transform="matrix(1.33333 0 0 -1.33333 -.667 1121.853)"></path><path d="M306.267 670.249h-27.013c-2.796-.06-3.689 1.309-4.205 3.611l-11.17 53.516c-.679 3.22.976 5.585 4.606 5.585h51.23c3.034 0 4.521-2.023 4.521-6.128v-8.39c0-4.462-.952-5.83-4.284-5.83s-4.046 1.666-4.046 5.89v6.128h-42.945l9.613-46.052h21.64l2.976 4.637c1.576 2.503 3.361 3.038 5.86 1.313 2.5-1.726 2.44-3.749 1.137-5.835l-4.182-6.514c-1.18-1.812-2.37-1.931-3.738-1.931m110.328-180.474v-49.028c0-15.352-13.593-27.797-30.36-27.797s-30.36 12.445-30.36 27.797v49.028zM372.582 582v-49.028c0-15.352-13.592-27.797-30.36-27.797-16.767 0-30.359 12.445-30.359 27.797V582Zm27.306 0v-49.028c0-15.352 13.592-27.797 30.36-27.797 16.767 0 30.359 12.445 30.359 27.797V582Zm-27.306-184.45v-49.028c0-15.352-13.592-27.797-30.36-27.797-16.767 0-30.359 12.445-30.359 27.797v49.028zm27.306 0v-49.028c0-15.352 13.592-27.797 30.36-27.797 16.767 0 30.359 12.445 30.359 27.797v49.028z" style="fill:#2549a4;fill-opacity:1;fill-rule:nonzero;stroke:none" transform="matrix(1.33333 0 0 -1.33333 -.667 1121.853)"></path><path d="M393.988 452.836a7.752 7.752 0 1 0-15.506 0 7.753 7.753 0 0 0 15.506 0m0 24.287a7.753 7.753 0 1 0-15.506 0 7.753 7.753 0 0 0 15.506 0m0-48.575a7.753 7.753 0 1 0-15.506 0 7.753 7.753 0 0 0 15.506 0m19.969 24.288a7.752 7.752 0 1 0-15.505 0 7.753 7.753 0 0 0 15.505 0m-55.444 0a7.753 7.753 0 1 1 15.505 0 7.753 7.753 0 0 1-15.505 0m-8.537 92.224a7.753 7.753 0 1 0-15.506.002 7.753 7.753 0 0 0 15.506-.001m0 24.287a7.753 7.753 0 1 0-15.506.001 7.753 7.753 0 0 0 15.506 0m0-48.576a7.753 7.753 0 1 0-15.507.001 7.753 7.753 0 0 0 15.507 0m19.969 24.286a7.753 7.753 0 1 0-15.505 0 7.753 7.753 0 0 0 15.505 0m-55.445 0a7.752 7.752 0 1 1 15.505 0 7.753 7.753 0 1 1-15.505 0m107.995 0a7.753 7.753 0 1 1 15.506.001 7.753 7.753 0 0 1-15.506 0m0 24.287a7.753 7.753 0 1 1 15.506.001 7.753 7.753 0 0 1-15.506 0m0-48.576a7.753 7.753 0 1 1 15.506 0 7.753 7.753 0 0 1-15.506 0m-19.969 24.287a7.753 7.753 0 1 1 15.505 0 7.753 7.753 0 0 1-15.505 0m55.444 0a7.753 7.753 0 1 0-15.505.001 7.753 7.753 0 0 0 15.505 0m-107.994-184.45a7.753 7.753 0 1 0-15.507.001 7.753 7.753 0 0 0 15.507 0m0 24.286a7.753 7.753 0 1 0-15.507.002 7.753 7.753 0 0 0 15.507-.002m0-48.574a7.753 7.753 0 1 0-15.506 0 7.753 7.753 0 0 0 15.506 0m19.969 24.287a7.753 7.753 0 1 0-15.506 0 7.753 7.753 0 0 0 15.506 0m-55.445 0a7.753 7.753 0 1 1 15.506 0 7.753 7.753 0 0 1-15.506 0m107.995 0a7.753 7.753 0 1 1 15.506 0 7.753 7.753 0 0 1-15.506 0m0 24.287A7.753 7.753 0 1 1 438 384.9a7.753 7.753 0 0 1-15.505 0m0-48.576a7.753 7.753 0 1 1 15.505 0 7.753 7.753 0 0 1-15.505 0m-19.969 24.287a7.752 7.752 0 1 1 15.505 0 7.753 7.753 0 0 1-15.505 0m55.444 0a7.753 7.753 0 1 0-15.506 0 7.753 7.753 0 0 0 15.506 0m-304.697-91.353c-5.87-.07-6.981.16-6.981-.951s.396-1.19.476-3.809c.079-2.618-.16-4.284-.397-5.87s-.397-2.54.476-2.532h96.786c2.54.072 3.888.549 3.888.549v12.138s-14.2.554-20.389.554c-6.188 0-60.77.08-73.86-.079m8.331 57.676c.76.475 1.428 1.427.952 1.666-.476.237-.714.317-1.032-.397-.317-.714-.555-1.666.08-1.27m53.45-49.979H146.45c-1.19 0-1.309.238-.416 2.082.892 1.845 1.368 2.916 2.26 2.975.893.06 1.072-.476 2.619-1.666 1.546-1.19 2.023-1.785 4.165-1.844s5.83.178 8.687.297 5.235.714 4.76.714-1.25.06-1.547.476c-.298.417-.357.952.654 1.19s1.012-.06 1.548-.297c.534-.238 2.141-.12 2.796.119.654.238 2.677.654 3.986.713 1.309.06 1.19-.475 1.428-1.01.238-.536 1.012-.953 1.964-.893s2.26.595 6.783 1.25c4.522.653 6.128 1.486 9.639 1.368 3.51-.12 5.355-.952 6.724-1.666s1.546-.774 2.974-.774 2.26.238 3.868.536c1.606.297 3.082.765 5.057-.595 2.678-1.845 4.7-2.975.654-2.975m10.794 8.378c-.56.896-.714.856-1.523-.381-.81-1.238-1.19-2.238-.762-2.38.428-.143 1-.62 1.618-1.143.62-.524 1-1 1-.285 0 .713-.524 1.19-.762 1.57s.382.476 1.048.429c.666-.048.904 0 .57.619-.332.618-.952 1.19-1.19 1.57m-3.806-.523c-.763.05-1.096-.524-1.381-.381-.286.142-1.143.142-2.238.142s-.904-.714-.142-2.332c.761-1.618 1.522-3.665 1.904-4.284.38-.619 1-.523 1.57-.333s1.285.334 1.952.619.524.761-.286 1.047-1.76.571-1.285.81c.476.237.476 1.142.381 1.998s.238 2.666-.476 2.714m-23.086 1.618c-1.7.85-2.57.857-2.951.619s-.667-1.19.286-2.142c.951-.952 2.189-1.618 3.189-1.666s1.713-.286 1.999.38c.285.667-.143 1.19-.571 1.571s-1.285.905-1.952 1.238m45.267 1.856c-1.273.7-1.951.762-2.094-.332-.143-1.096-.81-2.809-1.523-3.285-.714-.476-1.476-.666-2.047-.81-.571-.142-.809-.57-.238-.856s1.476-.81.524-.81-1.048-.428-1.524-.428-1.094-.476-.285-.476 1.095-.81.333-.857-1.38-.57-.952-.809c.428-.238 1.524-.523 4.523-1.285s5.33-1.476 5.854-1.476.428.667.428 2.095-.952 5.236-1.284 6.473c-.334 1.238-.762 2.333-1.715 2.856m-13.899 5.57c-.628-.314-2.142-.905-1.333-1.143.81-.238 4.713-1.523 6.331-1.809 1.619-.285 2-.333 1.571.476-.428.81-1.095 1.333.238 1.571s3.522.762 4.57 1.857c1.047 1.094.904 3.617.476 4.617s-.952 1.285-2 1.999c-1.047.714-2.267 2.834-3.189 5.379-1 2.761-2.95 7.901-2.998 10.424s-.143 3.903.142 6.283c.286 2.38-.095 4.713-.428 8.093s-.524 5.235-1.19 5.379c-.666.142-.905-.572-1.666-3.523-.762-2.952-2.095-7.664-2.76-10.282-.667-2.618-1.19-3.523-.62-3.57.572-.047 1.048.333 1.333.524.286.19.048-2.333-.095-3.666s-.286-5.664-.333-6.807c-.048-1.142-.096-1.76.333-1.856.428-.095.476.381.762 1 .285.619.57.095.618-.904.048-1 .334-2.143.62-2.809.285-.666 1.094-1.047.475-1.903-.619-.858-2.57-3.142-3.19-4.142-.618-1-.57-1.38.762-2.904 1.333-1.523 1.952-2.094 1.571-2.284" style="fill:#fff;fill-opacity:1;fill-rule:nonzero;stroke:none" transform="matrix(1.33333 0 0 -1.33333 -.667 1121.853)"></path><path d="M154.733 282.19c-1.233-.247-1.857-1.095-.81-1.095s2.904-.095 3.618 0 1.285.809.38.761c-.904-.047-2.236.524-3.188.333m2.237 5.332c-.68.655-1.285.476-2.571-.667-1.285-1.142-2.189-2.379-2.333-3.189-.142-.809.286-.619 1.334-.619 1.047 0 2.332.571 3.141 1.429.81.857 1.714 1.809.429 3.046m-6.188 1.38c-.66.11-1.571-1-1.952-1.475-.38-.476-.428-1.095.38-1.095.81 0 1.381 0 1.762.667.38.666.38 1.808-.19 1.903m8.711-2.903c-.706-.106-1.333-.762-1.952-1.286-.619-.523-.666-1.095-.048-1.427.62-.334 1.333-.667 1.762-.62.428.048 1.38.048 1.38 1.476s-.19 2-1.142 1.857m-.523 10.282c-1.43.06-3.238-.905-4-1.476-.761-.572-1.142-1.524-1.094-2.095.047-.57.143-.952 1.094-.904.953.047 1.952.381 3.856 2.237s2.38 2.142.143 2.237m4.855-3.569c-.762.863-1.142.332-2.237-.524s-1.286-.857.19-2.856c1.476-2 2.38-3.38 2.761-3.332.38.047.904.523 1.38 1.094.477.572.048 1.904-.285 2.856s-1.095 1.952-1.809 2.761" style="fill:#fff;fill-opacity:1;fill-rule:nonzero;stroke:none" transform="matrix(1.33333 0 0 -1.33333 -.667 1121.853)"></path><path d="M161.444 294.518c-.28.204-.952.333-2.57-1.19-1.62-1.523-1.857-1.952-3.808-2.095-1.952-.142-3.19-.618-2.428-.856s1.142-.857 3.713-1.856c2.57-1 3.712-1.238 4.236-1.238s.714.048-.333 1.238-1.76 1.809-.952 2.712c.81.905 2.666 2.904 2.142 3.285m28.607-8.949c.727-1.072.953-1.523 1.572-1.428.618.095.958.577 2.142 3.38.904 2.142 1.665 2.522 1.57 5.474-.047 1.475.62 1.666.81 2.38s-.001 1.333-.857 2c-.857.666-1.38 2.141-.62 3.426.762 1.285.81 2.142.858 4.855s.142 5.855.808 8.52c.667 2.666.905 3 2.048 5.617 1.142 2.619 1.475 3.618.856 5.522-.618 1.904-.618 2.761.286 3.951.905 1.19 1.428 2.094.286 2.094-1.143 0-1.857-.76-2.665-4.189-.81-3.427-2.333-8.901-2.619-9.234s-.238.523-.19 2.38-.38 3.428-.38 4.95c0 1.524.094 2.19-1.762.191-1.857-2-3-3.237-2.523-3.57s.142-1.047-.571-2.142c-.714-1.095-1.095-1.856-1-3.142s.667-2.236.714-4.665c.047-2.427.096-3.522-.095-5.045-.19-1.523 0-1.19.19-1.904s.048-1.475-.285-2.237-.762-1.857-.19-1.952c.57-.095 1.285.095 1.046-1.666-.237-1.76-.333-4.379-.428-7.092s0-4.998 1-6.474M168.68 318.08c-1.125-1.664-1.143-2.333-.382-1.761.762.57 2.571.904 7.331 5.664s6.616 6.807 10.615 12.757c3.998 5.95 7.33 10.996 6.711 11.138-.619.143-2.38-1.856-4.997-4.902-2.619-3.047-8.759-10.091-11.425-13.376-2.665-3.284-6.664-7.759-7.854-9.52m61.976 23.133c-1.138.104-1.761-.523-1.714-1.713s.333-1.666 1.286-1.666c.951 0 1.998-.143 2.093.428.096.571-.475.857-.333 1.333.143.476.857.762.286 1.238s-1.095.333-1.618.38m.714 5.379c-.955.44-1.048-1.142-1.238-1.713s-.38-2.38 0-2.666c.38-.285 1.952-.19 2.76.048.81.238.62.762 1.143 1.57.524.81.381 1.81-.238 1.762s-1.809.714-2.427 1m8.329-25.943c-.67.773-1.094.238-.618-.523.476-.762.333-1.523.38-2.285.048-.761.429-1.285.572-.476.142.81.285 2.57-.334 3.284m-1.285 5.236c0-1.624.334-2.046.714-1.904.381.143-.095 2.714-.19 7.188s-.667 10.758 0 13.613c.667 2.857 1.174 5.895 3.142 10.568 1.523 3.617 1.504 7.857 1.19 10.71-.62 5.617-1.476 8.425-1 11.043s1.19 4.427 3.666 7.759c2.474 3.332 4.569 5.33 5.378 9.377.81 4.046 1.428 12.376 1.475 19.278s.429 10.9-1.142 16.517-1.761 8.616-1.095 13.137c.667 4.523 2.047 10.33 3.19 17.422s1.523 13.281.714 19.85c-.81 6.568-3.476 16.28-5.332 24.037-1.856 7.76-3.38 18.184-8.615 26.894-5.236 8.711-12.794 10.682-20.135 11.805-4.664.714-6.52 2.822-7.283 3.808-.81 1.048-1.428 1.571-1.142.428.285-1.142 1.475-2.998 4.283-4.33 2.809-1.334 5.38-1.572 9.95-2.762s6.378-2.046 8.9-4.379 5.95-6.949 8.235-14.28 3.76-15.184 5.997-24.609 3.999-16.898 4.285-22.42c.285-5.521-1.238-13.423-2.333-19.754-1.095-6.33-2.522-11.09-2.332-15.279s.857-7.045 1.713-10.282 1.19-5.664 1.19-9.092c0-3.426-.38-8.567-.666-13.47-.285-4.903-.524-9.615-1.142-11.947-.619-2.333-1.285-4.142-3.38-6.76s-4.189-4.903-5.093-8.806c-.905-3.903-.714-5.331-.143-8.663s.762-7.807.571-9.948c-.19-2.142-1.666-6.236-2.618-8.711s-1.713-4.618-1.76-9.806c-.049-5.188.046-7.664.428-11.376.38-3.713.38-4.237.38-4.856" style="fill:#fff;fill-opacity:1;fill-rule:nonzero;stroke:none" transform="matrix(1.33333 0 0 -1.33333 -.667 1121.853)" data-source="https://football-logos.cc"></path><path d="M236.652 370.82c-.474.57-1.094-.142-1.142-1.19-.048-1.046.19-1.665 1-1.808.808-.143 1.046.095 1.046.666s-.428 1.762-.904 2.333m-6.045-3.141c-1.38.105-3.332-.334-4.046-1.524s-.81-3.141-.19-3.284c.618-.143 1.332.38 2.19 1.332.855.952 1.713 1.476 2.902 1.524 1.19.047 1.714.047 2.38.666.667.619-1.38 1.142-3.236 1.285m-1.19-7.426c-1.004.106-1.809-.618-1.333-1.285s.38-1.761 1.619-1.761c1.237 0 2.19.714 1.618 1.38-.571.667-1 1.572-1.905 1.666m17.422 47.697c-1.292-.046-1.38-.477-1.19-1.429s.62-1.38 1.238-1.19c.619.19 1.38 1.19 1.714 1.761.333.571-.38.904-1.762.857M238.08 420.8c-.828.978-1.76.715-2.094.143-.333-.57-.667-1 .428-2.903s1.856-2.332 2.713-2.523c.857-.19 1.333 0 1.952.476.62.476.381.476-.238 1.571s-2.237 2.618-2.76 3.237m-47.898 35.307c-1.131.05-2.975-1.13-2.678-1.428.298-.297 1.012-1.19 2.32-1.25 1.31-.059 2.56-.059 3.154.179.595.238.179.892-.357 1.547-.535.655-1.07.893-2.44.952m38.855 0c-1.881-1.342-3.036-1.963-2.38-2.142.654-.178 2.737.714 5.354 2.202a194 194 0 0 0 4.998 2.737s.714-.476 1.369-1.131c.654-.654 1.309-2.142 1.487-.238s1.368 5.057 1.368 5.057.298-.892.774-1.547 1.19-1.665 1.428.833c.238 2.5.12 4.047.477 4.404s.833.238 1.308-.06c.476-.297.774-.119.357 1.25-.416 1.368-1.25 2.737-.535 5.176.714 2.44.119 5.117-.714 7.378s-1.947 2.67-3.927 1.845c-1.428-.596-3.927-2.143-4.165-6.426s.773-6.07 1.725-6.962 2.083-1.606.655-2.618-5.177-3.63-6.427-4.581c-1.249-.953-2.082-2.023-1.725-2.023s1.369.297 2.618.714c1.25.416 1.785.416.297-.595-1.487-1.012-3.093-2.38-4.342-3.273M238.556 488c-1.204-.505-1.725-1.785-1.963-2.618-.239-.833-.298-1.785.833-1.19 1.13.595 4.283 1.785 5.593 2.261s1.606-.06 1.666.893c.06.952.357 1.19.892 1.725.536.535.12 1.071-1.012 1.19-1.13.12-1.13.774-2.2.833-1.072.06-1.607-.119-1.489-.952.12-.833-.475-1.368-2.32-2.142m1.844 3.927c-1.225-1.276-1.844-2.082-2.498-2.201s-1.25.237-.893 1.844c.357 1.606.952 2.5 2.32 3.214 1.37.714 1.726.832 3.273.475s2.261-1.07 1.369-1.428-2.142-.416-3.57-1.904m2.201 6.01c-1.202-.06-1.606-.952-1.428-1.369s.179-.714 1.428-.714c1.25 0 1.547-.178 2.023.654.477.834.357 1.548-2.023 1.429m-12.673-14.875c.04-4.7-.179-8.152.178-8.806.357-.655.833-1.31 1.071-1.25s.595 1.964.952 5.057c.357 3.095.417 8.688.298 13.686-.12 4.998.119 13.685-1.012 17.433-1.13 3.749-2.022 5.653-2.44 6.724-.416 1.07-1.07.178-.773-1.548s.921-7.256 1.19-10.947c.595-8.152.477-13.388.536-20.35m3.391 30.405c-.66.528-1.19.179-1.785-.416s-.535-1.25.12-1.845c.654-.595.951-.595 1.665.12.714.713.595 1.665 0 2.14m-8.39-2.735c-1.052-.878-2.14-1.37-1.427-2.143.714-.774.773-1.546-.06-3.749-.833-2.2-2.082-8.687-4.224-13.03s-2.856-5.414-3.69-5.355c-.832.06-1.427.417-1.724-1.606-.298-2.023.297-1.904 1.724-1.904s3.154-.417 3.987 2.023 4.225 10.71 5.236 16.065 1.488 7.615 1.428 8.985c-.06 1.367-.536 1.308-1.25.713m-13.149-20.468c-.829.083-1.19-.238-1.904-2.261s-1.428-3.034-1.07-3.749c.356-.713.773-1.546 1.903.06s1.369 3.392 1.547 4.284c.179.893.12 1.607-.476 1.666m-11.959-.773c-.952.038-1.726-.714-1.845-2.142s-.357-3.213-.357-4.344c0-1.13.536-.892 1.547-.833 1.012.06 1.904-.06 1.845 2.618-.06 2.678.298 4.641-1.19 4.7m-6.545-.951c-.923.037-2.32.06-2.856-.476s-1.667-1.964-1.071-3.57c.595-1.607 1.904-2.797 3.391-3.867 1.488-1.072 1.904-1.37 2.38.059.476 1.428.12 3.808-.059 5.771s-.298 2.023-1.785 2.083m-6.783-.179c-.774-.05-2.5-1.606-3.332-4.284-.833-2.677-.892-5.355-1.25-7.08-.357-1.726-.536-.417-.475 2.082.059 2.5.237 6.188-.239 6.367-.476.178-1.606-.179-3.094-.476-1.487-.298-2.38-.715-1.963-3.094s1.487-4.404 1.785-7.14c.297-2.737.535-4.463.595-5.474s.416-1.666 1.19-1.607c.773.06 1.19.952 1.665 1.666.477.714.596-.178.714-1.25.12-1.07 0-2.676.477-2.856.475-.177 1.963.596 2.915 2.797.953 2.202 2.143 4.7 2.975 7.497s.714 3.332.06 3.332c-.655 0-.892.238-.892 2.618s.713 7.021-1.131 6.902m-14.518 9.936c-.263 1.228-.595 1.429-1.19-.178-.596-1.607-1.012-6.01-.774-10.234s1.13-7.14 2.202-8.985c1.07-1.844 1.904-2.677 1.665 1.25-.237 3.927-.535 8.39-1.07 11.722-.536 3.332-.655 5.593-.833 6.425m48.552 41.83c-.627.297-1.25.296-.833-1.607.416-1.905.773-2.678 1.07-2.619.298.06.358.655.239 1.31-.12.654.475.476.714.06.238-.417.119-1.072-.179-1.429-.297-.357-.178-1.011.536-3.034s3.094-7.913 4.046-10.71c.951-2.797 1.308-3.63 1.546-3.69.239-.059.477.655.417 2.38-.06 1.726-1.19 7.14-2.201 9.878-1.012 2.737-2.083 6.366-2.618 7.14a7.2 7.2 0 0 1-2.737 2.32m-7.259 29.928c-.503.403-.893 0-1.429-.297-.535-.297-.416-.952-.237-1.607.178-.654.594-1.309 1.13-.773s2.023 1.487.536 2.678m-3.035 8.329c-1.2.18-1.428-.356-1.309-1.308.12-.952.417-2.202.952-2.5.536-.297 1.726-.356 2.32-.178.595.179 1.012.952.834 1.547s-1.607 2.261-2.797 2.44m-19.873 16.064c-.541.602-3.213-.237-5.116-2.617-1.905-2.38-2.262-4.046-2.203-5.058s.655-1.369 1.19.12c.537 1.486 1.786 3.212 3.154 3.986 1.368.773 4.046 2.38 2.975 3.57m9.699 1.844c-.807.484-1.726.714-2.202.417-.476-.298 0-1.845.892-2.856.894-1.012 1.547-1.547 2.024-1.428.476.119.654.535.714 1.547.06 1.011-.238 1.606-1.428 2.32m-23.146-289.348c.762-3.332 1.619-8.664 2.047-10.948.429-2.286 1.143-1.857 1.143-2.666 0-.81.428-.333.428.762s-.048 1.475.285 2.189.143 1.238-.952 1.238-.809.952 0 2.427c.81 1.476.572 1.809-.142 1.762-.715-.048.047 1.38.618 2.38.572 1 .619 1.428-.143 1.38-.761-.048-.761.618-.38 1.38.38.762.714 1.38.714 2.19s-.143 1.238-1.19 1.618c-1.048.381-1.048.667-.19 1.333.856.666 2.094 1.714 4.045 3.617 1.952 1.905 2.951 2.571 3.428 2.428.476-.142.428-2.95.523-11.948.095-8.996-.428-10.757-.571-14.66s.38-3.665 1.38-4.474.096-1.142-.57-1.285c-.667-.144-.952.19-2.286.238-1.332.047-3.522.095-3.522.095.143-2-1.666-2.428-3.76-2.428-2.095 0-3.38.714-5.808 2.333-2.427 1.618-3.713 3.665-6.33 6.378s-4.618 4.903-6.236 6.378-1.761 2.809-1.904 3.665c-.143.857-.762 1.095-.286 1.762.476.666 2.523 1.808 4.618 2.618 2.094.809 6.33.476 8.14-.238 1.808-.715.999.333.19.714-.81.38-1.524.809-.762 1.19s2.288 1.265 4.284 1.904c.898.287 1.602.583 2 .38.654-.334.715-1.638 1.19-3.712m-4.238-5.141c-.81.324-1.284.38-.618-.714.666-1.095 1.19-1.19 1.904-1.19s.904.238.333.619c-.57.38-.905 1-1.619 1.285m-8.187-.143c-.854.389-1.475.476-.904-.762s1.238-2.713 2.332-4.141c1.095-1.428 2.57-3.617 3.523-5.188.952-1.57 1.523-2.142 2.094-2.19.571-.047 1.856-.428 1.619.429-.238.856-.286 2.523-1 2.856s-1.76 1.094-2.57 1.57-1.143.572-.667.953c.476.38.714.38 0 .856s-1.285.381-1.237 1.619-.19 1.618-.952 2.427c-.762.81-1.714 1.333-2.238 1.57m9.425-13.708c-1.185.222-1.523.048-1.047-.666s.81-1.714 1.143-2c.333-.285.809-.332 1.142.191.333.524.952.571 1.333.952.38.381.142.428-.477.761a7.3 7.3 0 0 1-2.094.762m30.798 20.944c.238-.238.666.143.666 1.761s-.19 5.474 0 7.33c.19 1.857-.143 2.809-.571 2.238-.429-.571-.905-.762-1.285-.524-.382.238 0 1.476.856 4.856.857 3.38 2.285 9.948 2.761 12.424.476 2.474 1.237 3.189 1.428 1.76.19-1.427-.095-2.713-.333-4.093s.142-2.19.619-1.714c.476.476 1 1.38 1.333 3.094s1.047 4.237 1.808 7.616c.762 3.38 1.095 3.38 2.904 3.808s2.522.905 3.284.857.334-1.428-.808-2.332c-1.144-.905-1.048-1.571-.858-4.713.19-3.141.286-7.806-.38-12.043-.667-4.236-2.857-10.567-3.332-12.042-.476-1.476-.286-1.714.237-.952.524.761.62.761 1 .38.38-.38-.095-2.046-.143-4.188s.334-2.666-.143-2.999c-.476-.333-.333-1.428.096-1.143.428.286 1.237 1.143 1.809 1.38.57.24.237-.95-.857-2.712-1.095-1.762-1.81-2.618-1.81-2.618s2.19-.476 3.951-.666 1.524-.858.191-1.286-1.904-.666-1.904-.666.809-.714 2.095-1.57c1.284-.858 2.332-.953 1.475-1.858-.857-.904-2.808-2.76-2.808-2.76s1.19-1.524 2.047-2.523c.856-1 1.094-2.047.238-2.904-.858-.857-1.524-1.427-3.094-2.76-1.571-1.334-1.809-1.095-2.619 0-.809 1.094-1.713 2.57-1.713 2.57s-4.665-4.38-5.236-5.189c-.572-.81-1-.237-1.38.762-.382 1-.762 2.094-1.19 3.047-.429.951-.048 1.142.952.951.999-.19 1.428.286 1.856 1.333.429 1.048 1.143 1.381.286 1.381s-1.048-.381-1.952-.381-.81.428-.714 3.141c.095 2.713.286 3.808-.048 3-.333-.81-.857-2.476-.857-4.094s-.523-1.38-.904-1.19c-.38.19-.143 1.475.095 4.379s.143 6.95.381 10.377.095 4.903.285 5.426c.191.524.882-.202 1.476-1.476.334-.714.572-2.237.81-2.475m9.043-14.28c-.585-.2-1.57-1.142-1.856-1.809-.285-.666-.904-1.951.619-.38 1.523 1.57 3.046 2.808 1.237 2.19m-4.379 37.27c-.515-.133-1-.905-1.285-2.19-.286-1.285-.857-1.999.381-.904s2.38 3.475.904 3.094" style="fill:#fff;fill-opacity:1;fill-rule:nonzero;stroke:none" transform="matrix(1.33333 0 0 -1.33333 -.667 1121.853)"></path><path d="M223.181 410.996c-.15 2.136-.38 1.903-1.761-4.285a3801 3801 0 0 0-6.664-29.226c-2.047-8.759-2.094-9.092-5.046-12.423-2.95-3.333-3.14-3-3.998-3.476-.857-.476-1.142-1.903-2.713-3.903-1.57-1.999-5.426-6.568-7.616-8.758-.813-.814-.784.231 2.475 5.76 3.76 6.378 6.664 13.518 9.806 20.8 3.142 7.283 6.235 14.518 8.52 21.468s3.665 15.708 4.475 19.944c.809 4.237 2.284 12.043 3.76 17.518 1.476 5.473 2.237 5.854 2.713 5.854s.81-.19 1-2.332.618-12.043.999-18.802 1-17.85 1.19-22.515.62-10.472.667-11.995.238-1.523 1-1.238c.761.286.856.476.666.905-.19.428-.714.81-.62 1.237.096.429.715 1.429.763 2.095.047.666-.524 1.047-.81 2.522-.285 1.476-.428 2.286.429 2.571s.523.571.19 1.285-.19 2.094-.476 3.856c-.285 1.76-.857 3.142-.904 5.045-.048 1.905.666 3.142.714 3.998s.047 2.476-.429 3.761-.714 1.761-.285 2.332c.428.571.666 1.048.523 2.19s-.809 2.618-1.285 3.95-.143 1.334.476 2.048c.62.714.19 1.714.571 2.142s.429.952-.094 1.618c-.524.666-.191 1.904-.096 3.094.096 1.19-.095 10.615-.143 13.47-.048 2.857.239 3 .81 2.429.57-.572 1.047-1.953 1.332-8.474.286-6.52.571-12.613 1.143-18.516.57-5.903 1.57-15.137 1.951-21.23.381-6.092 1.904-19.325 2-21.324.094-2-.334-1.714-1.619-.81a19 19 0 0 0-4.094 3.999c-1.238 1.666-1.332 2.237-1.047 2.475s1.19.476 1.809.762-1.143.952-1.952 1.428-.57-.19-1.047-2.666c-.476-2.475-.476-3.38-1.19-3.618-.714-.237-.904-.094-1.095-.475s-1.284-3.57-3.046-9.52c-1.76-5.95-2.142-7.664-2.903-7.807-.762-.142-2.666-.38-3.999-.618s-1.904-.144-2.38 2.38c-.476 2.522-.071 3.11 1.142 4.283 2.856 2.761 3.047 3.237 2.428 3-.619-.239-1.856-.715-1.809-.382.048.334-.285.429 1.333 2.285s2.19 3.237 2.904 6.807 1.19 11.329 1.332 16.374c.143 5.046.238 15.327 0 18.708m-45.077 21.49c-1.72-.644-2.915-2.141-2.082-2.796.832-.654 1.666-1.368 4.64-.416 2.976.952 7.974 2.498 9.104 3.094 1.131.594 2.38 1.725 3.035 3.153.654 1.428.892 1.904.178 2.023s-2.142-.773-5.95-2.083c-3.808-1.308-7.497-2.439-8.925-2.975m-10.353 4.761c-1.005-.805-1.13-2.023-1.13-2.856s.297-1.786 1.725-2.082c1.428-.298 2.5 0 5.474.416s3.868-.06 6.248 1.606 4.164 2.618 6.247 3.868c2.082 1.25 3.273 2.2 2.38 2.32-.892.12-1.547-.178-.952.476.595.655.536 1.785-1.368.893-1.904-.893-6.426-2.5-8.687-3.154s-2.975-1.309-1.19-.119 4.403 2.261 4.224 2.737-.614.535-2.677-.476c-2.916-1.428-8.508-2.201-10.294-3.63m35.521 3.094c.239-.654.477-1.19.834-.773s1.19.06 1.249-.774c.06-.832.417.774.417 2.38 0 1.607.178 2.738-.238 2.797-.417.06-1.19.357-1.19.893 0 .535 0 2.141-.476 1.963-.476-.179-.774-1.368-1.13-1.368-.358 0-.417 1.011-1.012 2.796s-1.429 4.225-1.666 5.058c-.238.833.773.773 1.309.06.535-.715.892-.536 1.25.237.356.774.773.06 1.487-.654s.892-.893 1.963.476 1.607 1.01 2.44.119c.833-.893 1.19-1.428 1.725-1.428s1.19-.298 1.428.238c.238.535 1.369 1.13 1.607.119.238-1.012.713-1.666 1.07-1.547s.06 1.725-.357 2.736c-.416 1.012 1.072.655 1.905 0 .833-.654 1.011-.951 1.25-.892.238.06.297 1.428-.417 2.38s-1.428 1.13-2.44 1.13c-1.011 0-1.547.417-2.44-.475-.892-.893-1.368-.357-2.2.654-.834 1.012-3.273 1.012-6.07 1.071-2.796.06-4.283.06-5.057.536s-.596.833 0 1.13c.594.298 1.784.536 2.201.654.417.12-.178.715-1.487 1.607s-2.797 3.273-2.976 4.225.357 1.309 1.071.535c.715-.773 2.083-2.201 3.095-3.094 1.011-.893 1.547-1.25 1.547-1.963s-.298-.714.357-1.071c.654-.357.535.238.595 1.25.06 1.01.833 1.427 1.368 1.367.536-.059.417 1.964.298 4.582-.12 2.618-.774 3.451-.833 4.82-.06 1.368.595 1.666 1.368.476s1.071-3.273 1.428-5.415.714-3.51.952-2.915-.238 3.094-.476 4.64c-.238 1.548.655 1.786 1.07 1.19.418-.594 1.072-1.19 1.489-4.105.416-2.916 1.011-4.224 1.487-5.236s1.19-1.07 1.19-.297.12 1.725.655 1.725.416.655-.12 2.142c-.535 1.488-.833 2.44-.833 3.451s-.178 2.32-.951 3.273c-.774.952-1.607 1.844-1.726 1.13s-.773-.654-1.19-.416-2.023 1.368-2.558 2.023c-.536.654 1.13 1.07 4.7.773s5.712-1.071 7.497-1.309 1.964.417 1.369.774c-.596.357.178.892 1.963.713 1.785-.178 3.63-.951 4.76-1.963 1.13-1.011 2.201-1.785 2.559-3.332.357-1.547.951-4.045 1.13-6.485s-.595-3.69-2.499-4.82-4.224-1.19-5.89-1.428-1.428-.535-.417-.892c1.012-.357 2.618-.18 3.094-.357.476-.18-.297-2.44-1.25-5.177-.95-2.736-1.19-4.64-1.19-9.282 0-4.64-.594-5.474-1.01-5.534s-1.072-.237-1.548 2.321-1.427 3.927-2.201 5.831-.476 3.51-.179 4.88c.298 1.368-1.011 1.666-1.07 1.13s-.596-2.559-.833-3.809c-.239-1.249-1.19-1.665-1.072-3.807.12-2.142.595-3.51.774-3.868.178-.357.833.06 1.725 1.19.893 1.131 1.31 1.369 1.547.417.238-.953.952-4.165 1.131-6.367.178-2.201-1.012-3.927-2.44-5.295-1.428-1.369-1.13-.357-1.369.476-.237.833-.476.714-.535-1.666s-.655-3.808-2.023-5.177-1.487-.237-1.547.655.238 2.38.416 4.046c.18 1.666.06 1.606-.356 1.011-.417-.595-.357-1.368-.893-.416-.535.952-1.19 3.748-1.606 5.771s-.714 1.25-1.19-.118c-.477-1.37-.477-1.845-1.547-.774-1.071 1.07-3.034 1.784-3.987 2.856-.952 1.07-1.19 1.903-1.19 3.51s.476 2.261.655 3.57c.178 1.31.222 2.574 1.427 1.369.298-.298.596-2.202.833-2.856m5.118 6.247c-.515.442-1.369-2.618-1.547-4.343-.179-1.726.059-2.619.773-3.332.714-.714 2.083-2.083 2.559-2.32.476-.238.297.654.297 2.736s-.416 3.273-1.011 2.202-1.071-1.488-1.012.535c.06 2.023.357 4.165-.06 4.522m16.601 16.78c-1.064 0-.952-.834-.297-1.548.654-.714.951-1.25 1.07.119s-.237 1.428-.773 1.428m-4.581 7.438c-.756-.425-.595-.833.476-2.142 1.071-1.31 1.428-2.142 2.082-2.202.655-.06 2.618.952 3.57 1.666s1.012 1.19.12 2.261c-.893 1.071-2.38 1.607-3.333 1.666-.952.06-1.963-.714-2.915-1.25m-6.367-.059c-.605.403-1.368-.059-.893-.833.476-.773 1.905-3.391 2.083-5.058s.357-3.034 1.607-3.986 1.368-.773 1.19.654c-.179 1.429-.833 4.582-1.785 6.248s-1.666 2.618-2.202 2.975m-28.322-14.28c1.588.476 3.094.833 3.332 1.607.238.773-.952 1.784-1.844 2.32s-2.796.833-5.296 1.13c-2.499.298-4.879 1.012-6.307 3.095-1.428 2.082-3.391 7.259-5.355 11.186-1.963 3.926-2.855 5.593-3.272 6.902s-.06 1.546.356 1.844c.417.298.477.952-.594 1.904s-1.726 1.964-.476 1.845c1.25-.12 2.856-.714 3.034 1.428.179 2.142.239 5.355.298 8.925.06 3.57.357 4.76.416 8.865.06 4.106-.118 5.236-.595 3.987-.476-1.25-.654-4.403-1.25-8.033-.595-3.63-.535-6.902-1.13-6.962s-.952.417-.595 3.035.953 10.83 1.487 15.708c.536 4.88.358 6.07.774 5.771.417-.297 1.25-1.487 1.547-1.487s1.25.298 1.25-.119c0-.416.476-.476.476.655 0 1.13-.536 1.13-.714.773s-.655-.06-.715 1.607c-.059 1.666-.535 5.89-1.308 8.151-.774 2.261-2.083 3.035-3.154 2.916s-2.856-.714-4.938-4.88c-2.083-4.164-5.355-10.828-5.355-25.287s-.893-19.397 1.428-26.834 5.414-10.234 6.664-11.483 7.854-7.617 10.293-10.176c2.44-2.558 4.939-5.77 5.415-5.95.476-.178.952.18 1.011 1.19.06 1.012.477 1.071 4.046.953 3.57-.12 5.415-.178 6.783-.178s2.737.296.357 1.01c-2.38.715-6.367 1.131-7.14 1.31-.774.178-.774.297-.774 1.428 0 1.13.655 1.487 1.845 1.844" style="fill:#fff;fill-opacity:1;fill-rule:nonzero;stroke:none" transform="matrix(1.33333 0 0 -1.33333 -.667 1121.853)"></path><path d="M178.675 400.523c-.904-.905-2.713-1.713-3.427-1.856s.19.333 1.713 1.761 2.542 2.64 2.952 2.523c.333-.096-.333-1.523-1.238-2.428M159.72 531.316c-3.966-4.899-6.51-14.316-7.129-26.787s-.38-20.753 1.762-29.465c1.508-6.132 6.616-10.519 9.806-13.613s3.807-5.807 3.093-8.758c-.713-2.951-2.332-3.142-3.57-5.093s-.904-3.665-.904-3.665c-.761-2.095-1.095-6.189 1.475-10.949s4.713-8.948 4.998-14.423c.286-5.473-1.427-10.28-3.522-18.008-2.275-8.395-4.01-20.884-5.87-33.161-1.983-13.09-4.92-21.658-5.713-27.37s-.396-24.594-.476-29.433c-.079-4.84-2.062-11.345-6.822-22.451s-4.443-11.821-4.364-19.675c.08-7.854.318-14.836.318-14.836h107.893s.238 14.36.238 18.564-.396 6.11-.714 7.379-.476 1.824-.714.714.397-2.38.476-7.537c.08-5.157-.476-6.823-.476-8.647v-8.973H144.466v16.43s1.825-.159 8.013-.317c6.188-.159 8.807-.476 19.279-.476s49.424-.16 52.439-.08c3.014.08 7.22.477 13.724.556 6.506.079 9.441.317 9.441.873 0 .554-2.063 1.03-5.553 1.11s-7.3.476-14.914.476c-7.617 0-28.005.476-47.284.476-19.277 0-25.148.08-28.084-.08-2.935-.158-5.632-.951-7.06-.951v2.459c0 2.856.238 3.967 2.697 9.758s2.935 6.584 3.967 6.902c1.031.318 1.586.635 2.221 2.142s-.793 3.41-.793 3.41.08.716 1.11 3.413c1.032 2.697 1.587 5.553 1.587 11.741s0 15.946.239 22.293c.237 6.346.793 8.25 2.617 15.628 1.825 7.379 3.014 13.011 3.729 16.978 0 0 3.728-1.35 7.06-3.412 0 0-2.22-2.142-4.046-4.046-1.824-1.904-1.983-2.776-3.57-8.488-1.586-5.713-2.855-9.917-2.855-9.917s-.636.396-1.111.714c-.476.317-1.031-.476-.556-3.491.477-3.014-.078-5.633.715-6.426s6.108-1.507 8.964-2.142c0 0-1.904-1.983-2.46-2.935-.554-.952-.872-1.27-1.824-1.35-.952-.078-1.031-.792-2.063-3.648-1.031-2.856-1.665-5.395-1.428-5.712s1.032-.16 2.301-.16 1.904-1.268.952-2.3-2.142-.793-2.618-.396-.397 1.666-.952 1.745c-.556.08-.635-.317-1.507-2.777-.873-2.459-1.745-4.125-.873-3.966s2.777.238 4.125.476c1.35.238 2.221.317 3.73 2.142 1.506 1.824 3.648 3.808 3.173 4.046-.477.238-1.35.476-1.35.476s.318.555 1.905 2.46 1.745 2.3 1.031 2.855c0 0 .317.873 2.3 2.46 1.984 1.586 2.618 2.935 1.27 2.46-1.349-.477-3.014-.953-4.443-.874 0 0 1.162 2.335 2.935 5.078 2.587 3.998 8.886 9.615 13.409 13.851 4.521 4.237 6.187 5.76 9.804 12.424 2.672 4.921 10.282 16.374 12.852 23.657s5.475 19.469 6.38 23.467c.904 3.998 2.236 9.187 1.522 10.33-.465.743-1.523-.192-3.76-6.284-2.237-6.093-7.14-17.707-10.234-25.704s-7.14-18.279-10.996-24.229c-3.855-5.95-10.948-14.137-15.232-17.088s-7.663-4.141-9.758-4.236-2.427.094-2.76.428-.144.571 1.57 1.285 2.762.429 4.046 1.428c1.285 1 3.237 3.237 5.094 5.427 1.856 2.19 2.284 2.427.999 2.38s-1.38.095-1.38.095 1.37 1.869 3.856 4.189c2.855 2.665 2.712 3.474 2.19 3.617-.525.143-.667.381-.572 1.714s-.286 1.666-.381 2.19c-.095.523.286.904 1.618 1.475s1.571.857 2.524-.523c.951-1.381 1.284-1.714 1.76-1.428.476.285 2.025 1.439 2.856 2.046 1.238.905.905 2.38 1.952 3.285 1.047.904 1.475.994 1.57 2.046.144 1.571-.618 1.048-.999.857-.381-.19-.857-.19.904 2s2.666 3.188 3.475 4.045.762 1.285 0 .905c-.761-.381-.761 0-.238.619.524.618.905.951.81 2.475-.096 1.523-.667 1.475-1.238.666s-.714-1-.714-.095c0 .904-.429 1.428-2.618-.714s-5.522-5.426-5.998-6.093-.19-1.142.476-1.142c.667 0 1.095-.238 1.523-.714.429-.476 1-.571-.523-1.952-1.523-1.38-3.95-3.236-4.427-3.38-.476-.142-.952-.095-.38.286.57.381.952 1.143-.144 1.285-1.094.143-2.427.048-2.284.857.142.81.571 1.285.476 1.951s-.238.477-1.095.334-1.619-.286-1.523.095c.095.381 10.52 8.092 14.946 11.567s10.662 10.758 13.375 18.66c2.714 7.901 2.095 7.901 1.334 7.14s-1.048-.429-.572.761 1.25 2.97 1.57 4.189c.24.904-.523.856-.856.285s-1.38-1.57-1.142-1.142.476 1.523 1.238 3.57c.76 2.047 1.142 2.904.523 2.76-.619-.142-1.333-1.428-2.999-4.427s-16.136-28.416-17.802-31.13-3.523-6.14-3.856-6.283-2.047.714-2.19 1.142c-.142.429 1.809 2.952 2.619 4.475.809 1.523 1.047 2 .333 2.618-.714.619-1.809 1.333-1.809 1.333s1.047 1 3.57 3.284c2.523 2.285 2.999 2.666 2.618 2.904-.38.238-.619.333-2.19-.714-1.57-1.048-2.331-1.571-2.57-1.571s-.143.476.572 1.19c.713.714 1.332 1.19.38 1.19s-1.809-.57-2.76-1.19c-.952-.619-1.905-.952-1.19-.047.713.904 8.615 8.854 12.423 12.946 3.808 4.094 7.33 7.854 8.615 9.092 1.286 1.237 1.714 1.619.952 2.523-.76.904-1.19.619-1.903.38-.714-.237-1.667-.761-1.667-.761s.381.572 1.81 3.904c1.427 3.332 2.76 5.95 2.95 7.044.19 1.095-.38 1.19-1.19.429-.81-.762-12.566-13.328-17.04-17.517 0 0 2.213 4.724 3.88 8.294 1.665 3.57 2.439 4.642.773 4.642h-5.653s2.737 1.367 8.211 3.807 10.591 4.64 11.067 4.998c.476.357.893.595.417 1.547s-1.607.952-4.641.12c-3.035-.834-14.34-4.047-14.34-4.047s3.154 1.37 6.724 2.797 6.188 2.44 6.128 2.796c-.06.357-1.666-.06-6.128-1.13-4.463-1.071-19.576-5.415-19.576-5.415l-.118-1.606s-.834 2.677-2.143 5.473c-1.31 2.797-4.403 6.13-3.927 13.33 0 0 .357-.12.714.594s1.488.833 2.796 1.011c1.31.179 2.44.595 3.63.952s1.428.833.06 1.13c-1.369.298-2.975.477-2.975.477s1.665.475 3.689 1.308 3.213 1.37 3.094 1.726c-.12.357-.774.298-3.154-.238s-4.938-1.07-4.938-1.07.952 1.724 1.784 3.57c.833 1.844.953 4.76-1.249 7.437s-5.83 6.068-7.735 8.21c-1.904 2.143-3.927 4.76-4.878 15.887-.953 11.127-1.25 13.983-.06 23.503s2.207 17.674 7.318 23.621c3.273 3.808 9.238 6.09 13.388 7.319 5.83 1.725 10.471 4.105 12.197 5.474s1.964 2.558 2.083 4.879-.476 4.046-2.559 7.854c-2.082 3.808-7.497 12.495-9.044 16.6s-2.142 7.259-1.725 10.175c.416 2.915 1.428 6.664 8.805 10.65 7.379 3.987 15.114 3.51 19.993 2.202 4.879-1.31 9.996-5.177 12.316-9.937s2.26-6.367 2.499-6.367c.238 0-.178 3.095-.952 5.534-.774 2.44-3.392 7.794-10.531 11.067s-16.78 2.678-23.265-.357-10.412-7.318-10.353-13.269c.06-5.95.714-7.972 5.236-15.886s7.556-12.852 8.152-16.184c.594-3.332 0-5.474-5.831-7.973-6.559-2.811-16.851-4.546-22.61-11.662m10.77-145.502c0-.523-2.857-13.137-3-13.042s-1.618 2.238-2.237 3.38-.952 1.666-1.285 1.19a48 48 0 0 1-.905-1.38c.572 3.856 2.143 13.709 2.143 13.709s5.283-3.333 5.283-3.857m-5.093 4.57s.476 4.617 2.38 11.424 4.188 14.328 2.475 21.563c0 0 3.808-.62 6.426-.952 0 0-.761-2.237-2.332-5.665-1.571-3.426-3.761-8.52-4-9.376-.237-.857.43-1.285 1.572-1.904 0 0-.81-1.142-1.38-1.952-.571-.81-.905-1.19.333-2.142s1.951-1.333 1.951-1.333-.904-1.094-3.522-4.617-3.903-5.045-3.903-5.045m-.321 56.084c-.536-.892-.774-.773-.774-.238 0 .536.359 1.415.833 1.487.774.12.476-.357-.06-1.249" style="fill:#fff;fill-opacity:1;fill-rule:nonzero;stroke:none" transform="matrix(1.33333 0 0 -1.33333 -.667 1121.853)"></path><path d="M189.766 497.52c-1.647 2.511-3.57 5.415-4.521 7.08-.953 1.667-.18 1.547.297 1.131.476-.417.654.297 0 2.082-.655 1.786-2.559 6.962-3.868 9.818s-1.666 2.38-1.666 1.13-.06-3.63.179-4.224c.238-.595.476-1.487.06-1.547-.417-.06-.774.655-1.905 2.559-1.13 1.904-3.808 7.02-4.998 9.638s-.833 2.38.357 2.262c1.19-.12 1.369-.655 1.666-2.023.298-1.369.595-2.083.714-1.607.12.476-.416 4.284-1.011 7.497s-.536 4.641-.12 4.641.953-.893 2.857-4.403 3.926-6.545 5.057-7.676c1.13-1.13 1.666-1.785 2.262-1.427.594.357.773.595-.537 3.153-1.308 2.559-5.533 9.401-6.187 10.77-.655 1.368-.12 1.07 1.666.713 1.785-.357 9.044-2.26 13.447-3.45s12.435-3.511 13.982-3.868 1.547-.12 1.547 1.19.06 1.428 1.071 1.904 4.224 1.904 6.01 2.678c1.785.773 2.26.356 2.677-.774s.833-3.63 1.488-6.902c.654-3.272-.12-4.224-1.071-5.414-.952-1.19-1.19-2.083-.774-2.559.417-.476.357-1.19-.238-1.904s.476-.535 1.25-.773c.773-.238.654-.298-.774-1.964s-6.129-6.128-8.568-8.627-2.677-2.856-2.26-3.63c.416-.773 1.487.238 5.057 2.261s7.394 4.54 7.973 4.106c.238-.179.357-1.13-1.547-5.653s-4.106-9.817-4.462-11.186c-.357-1.369-.714-1.011-1.905-.476-1.19.536-2.141 1.012-1.845 1.547.298.535 2.083 3.51 3.511 5.474s1.905 2.678.417 2.499-4.88-.595-6.724-.535-1.963.119-3.927 2.082c-1.964 1.964-3.153 3.154-4.522 3.867-1.368.714-2.32.18-2.499-.119-.178-.297.774-1.606 3.095-4.343 2.32-2.737 4.878-5.593 6.187-7.14s1.31-2.32.893-2.916c-.417-.594-1.13-.237-2.797-.296-1.666-.06-5.116-.239-6.545-.239-1.428 0-2.558-.476-4.046-1.666-1.487-1.19-1.725-1.25-2.915-.178-1.19 1.07-5.117 4.64-9.164 8.27-4.045 3.63-4.521 4.284-5.295 4.225-.773-.06-.238-.417 1.607-2.261s6.843-6.367 7.854-7.438 1.13-1.487-.774-2.201c-1.904-.715-4.879-2.023-6.604-2.44s-2.737-.655-3.57.238-1.19 2.44-1.13 4.998c.059 2.559.892 4.046.892 5.95s-.238 3.213-1.012 4.403c-.773 1.19-1.011 2.142-.476 3.273.536 1.13 1.666 1.011 1.666 1.011s-.535 2.44-1.904 5.653-1.666 4.82-1.309 4.938c.357.119 2.5-2.677 5.653-7.259s9.46-13.328 10.83-15.292c1.367-1.963 1.248-2.498 1.962-2.141s.833.535.893.951c.06.417-.357.655-1.607 2.559m-2.26 18.088c-.23-.814.356-3.57 1.903-7.14s4.165-8.151 6.07-11.245c1.903-3.095 2.736-3.57 4.105-3.868 1.368-.297 2.32-.238 2.44-.06.118.18 0 .596-1.429 2.023-1.428 1.429-2.38 2.618-2.38 3.035s-.357.179-.893.238c-.535.06-.773.595-1.01 1.607-.239 1.011-.834 1.606-1.131 2.2-.298.596-.357 1.19-.357 2.083s-.357 1.37-.833 1.37-.714.475-.536 1.427c.179.952 0 1.13-.595 1.071-.595-.06-.595.595-.476 1.547s.417 2.142-.357 1.904c-.773-.238-1.309-.178-1.13.595.178.773.773 1.666-.298 1.428s-1.368-.535-1.666.178c-.297.715-1.011 3.095-1.428 1.607m-5.95-22.49c-.51.47-.952-.299-.773-.893.178-.596.416-.536.951-.476.537.06.596.654-.178 1.368m13.09 24.99c-.59 1.013-1.428 1.488-1.428-.357s.536-4.284 1.31-6.069c.773-1.785 1.546-2.26 1.844-1.785.297.477.237 2.023-.18 3.63-.415 1.606-1.129 3.867-1.546 4.58m11.246-1.13c-.725.448-1.488 0-.774-1.487s1.488-2.737 2.975-3.808 2.618-1.19 3.273-1.07c.655.118 0 .535-.655 1.606-.654 1.07-2.796 3.51-4.82 4.76m5.891-1.547c1.042-.278 1.845.238 1.25.654s-2.5 1.19-3.094 1.666c-.595.476-.12 1.13-.12 2.082 0 .953-.416 1.547-1.368 2.5-.952.951-1.428 2.202-2.44 3.332-1.01 1.13-3.153 2.499-6.604 3.51-3.45 1.012-11.96 3.63-14.696 4.463-2.737.833-4.284 1.19-3.63.237.654-.951 2.083-1.666 4.047-2.498s2.677-.714 4.402-.714 2.618-.774 3.392-1.488c.773-.714.892-1.606.952-3.153s0-2.261.773-2.797c.774-.536 1.785-1.369 1.785-2.082v-2.678s.952.476 1.31-1.606c.356-2.083.534-3.451.892-4.7.357-1.25.655-2.202 2.202-2.738 1.546-.535 2.26-.297 2.38.179.118.476-.655 1.666-1.37 2.44-.713.772-1.427 1.665-2.022 3.986-.595 2.32-1.31 5.474-1.548 7.496-.237 2.023-.237 2.737.417 2.56.655-.18 2.5-2.38 4.581-4.345 2.083-1.963 3.333-3.034 4.76-4.105 1.429-1.071 2.857-1.963 3.75-2.201m-10.115 38.258c3.153 0 3.093-.535 3.093-1.904s.12-1.19 1.071-1.19c.952 0 .893-.298.893-1.13 0-.833-.476-2.5-.774-4.344-.297-1.844-.357-2.677-1.666-3.748s-1.25-1.071.298-1.071c1.547 0 2.677-.535 4.224-1.31 1.547-.773 1.904-.654 4.106-.654s2.142-.536 1.011-.595c-1.13-.06-6.069-.118-12.257-.118s-13.685.237-15.767.237c-2.083 0-3.213.238-2.559 1.012.655.773 3.69 2.201 5.177 3.629s1.606 4.403 1.606 6.367c0 1.963.295 3.627 1.071 4.402.578.58 9.022.417 10.472.417m-5.593-11.543c-1.307-.055-2.023-.535-1.19-.773s2.082-1.25 3.213-1.904c1.13-.655 1.548-.952 2.201-1.012.655-.06.893.357.417 1.19s-3.213 2.559-4.64 2.499" style="fill:#fff;fill-opacity:1;fill-rule:nonzero;stroke:none" transform="matrix(1.33333 0 0 -1.33333 -.667 1121.853)"></path><path d="m154.395 264.62-.031.35h1.428l-.012-.536c-.375.054-.256-.094-.702-1.076-.43-.946-2.112-4.552-2.112-4.552l-1.012.03-1.309 3.034c-.744 1.726-.863 2.202-1.071 2.202a5 5 0 0 0-.476.03v.868h2.38v-.839l-.476.03 1.815-3.57 1.725 3.273s.48.736-.147.755m10.679-4.95 1.636.06v-.923h-5.147v.952l3.689 4.79-2.125.008c-.786.009-.79-.484-.79-.484l-.821.03v.868h5.67v-.422l-.535-.06s-1.875-2.588-2.648-3.66c-.774-1.07-.855-1.608-.855-1.608s1.836-.117 1.926.449m8.946.127-.206-.99h-5.188l-.012 1.012c.506 0 .532.178.519.595v3.615c0 .141 0 .29-.023.387-.023.124-.205.203-.484.221v.334h4.812l.412-.809h-.744s-.178.387-1.34.369h-1.24l-.03-2.154h1.36c.566 0 .655.446.655.446h.387l.03-1.279h-.506s.003.2-1.01.248h-.886v-1.928c0-.59.518-.521 1.271-.521.661 0 1.113.189 1.451.455zm6.078-.097.952.03-.536-.923h-5.207l-.029.355c.271.035.443.104.469.2.034.097.034.246.034.388v4.279c0 .141 0 .29-.034.387-.026.094-.186.161-.443.197l.033.358 2.678.024v-.357s-.417-.058-.447-.61v-4.13c0-.624.288-.66.865-.65 1.637.023 1.665.452 1.665.452m16.66 1.784-.507.06s-.03-.78-.03-1.279c0-.803.418-.922.418-.922v-.536h-2.769v.335c.683-.052.686 1.39.686 3.206 0 1.814-.268 2.32-.686 2.29v.333h3.844c1.147 0 1.994-.502 1.994-1.646 0-.643-.479-1.365-1.378-1.603l1.64-2.26.476-.209-.027-.437h-1.815s-.061.348-.21.586-1.636 2.082-1.636 2.082m-.491.649h.585c1.107 0 1.278.738 1.278 1.248 0 .867-.378 1.16-1.156 1.16h-.707zm5.511-.079c0 1.722 1.67 3.35 4.051 3.35 1.942 0 3.686-1.315 3.686-3.312 0-2.47-2.35-3.54-4.072-3.54-1.233 0-3.665.691-3.665 3.502m6.225-.302c0 2.034-1.044 3.184-2.291 3.184-1.006 0-2.171-.744-2.35-2.587-.198-2.043.909-3.185 2.231-3.185.932 0 2.41.157 2.41 2.588m3.435 2.731a1 1 0 0 1-.305.124l-.007.364h2.083l2.259-4.006 2.183 4.006h1.895l-.022-.364c-.386-.074-.494-.3-.494-.772v-4.085c0-.142 0-.291.037-.388.027-.092.202-.16.476-.195l-.027-.36h-2.35v.506s.506-.06.506.893c0 .951-.09 2.707-.09 2.707l-2.457-3.59h-.764l-1.799 3.676h-.018v-2.73c0-.273 0-.528.036-.748.024-.162.093-.264.288-.32l-.016-.394h-1.845l-.03.863s.506.238.506 1.13c0 .952-.046 3.683-.046 3.683zm-54.218.488h2.38v-.353c-.23-.034-.373-.104-.396-.202-.028-.096-.028-.246-.028-.387v-4.28c.023-.307.424-.109.424-.109l-.03-.833h-2.497l-.002.684s.637-.168.631.259v4.279c0 .141 0 .29-.028.387-.024.105-.188.178-.45.209l-.034.28m28.381-1.249-.535.15-1.1-2.603 2.648.062zm1.32-2.94-3.138.056-.406-.96c-.161-.406-.08-.67.412-.67v-.335h-1.847l.03.774.416.03 2.5 5.466 1.24.001c.472-.96 1.977-4.138 2.39-5.08.127-.302.269-.444.534-.596l.06-.595h-2.38l-.09.566c.625.06.596.505.28 1.344m37.712 2.553-.438.535-1.101-2.602 2.075.049zm1.549-3.721c.165.209-.478 1.174-.478 1.174l-2.792.049-.406-.961c-.161-.405-.081-.669.411-.669v-.335h-1.847l.03.774.417.03 2.5 5.466 1.24.001c.47-.96 1.977-4.139 2.388-5.081.129-.3.27-.443.535-.595l.06-.595h-2.379l-.09.566c.2.018.333.077.41.176m15.29 3.929-.302.327-1.101-2.602 1.789.042zm.655-4.641-.625.863s.357.03.773.03.833-.09.654.356a4.6 4.6 0 0 1-.296.638l-2.747.048-.405-.96c-.161-.406-.08-.67.411-.67v-.335h-1.846l.03.774.416.03 2.5 5.466 1.24.001c.47-.96 1.977-4.138 2.388-5.08.129-.302.27-.444.536-.596l.06-.595zm-7.379.564s-.357.299-1.874 1.995c-1.227 1.37-1.933 1.636-1.933 1.636s.03-1.875.03-2.856c0-.982.476-.595.476-.595l-.001-.774h-1.874v.952s.446-.03.446.208c0 .239.03 1.845.03 3.184 0 1.338-.446 1.16-.446 1.16l-.03.625 1.726.03c1.754-2.232 2.439-3.273 3.986-4.166 0 0 .03 1.488.03 2.5 0 1.01-.476.981-.476.981l-.06.744h1.934l-.03-.446c-.252-.058-.476-.06-.476-.506s-.03-5.296-.03-5.296l-1.309.03z" style="fill:#2549a4;fill-opacity:1;fill-rule:nonzero;stroke:none" transform="matrix(1.33333 0 0 -1.33333 -.667 1121.853)"></path><path d="M189.623 399.81c-.677-.227-1.428-.24-2.475-1.381-1.047-1.143-1.047-2.047-.761-2.237.285-.191.904-.19 1.999.476 1.094.666 1.427 1.522 1.665 2.236.239.715-.142 1-.428.905m-17.171 40.829c3.103.796 4.343.952 3.808 1.369-.536.416-2.975.119-4.641.119s-2.856-.417-3.63-1.19c-.774-.774-.476-1.19.417-1.19.892 0 1.725.297 4.046.892m4.76 7.378c-.729.43-1.31.12-2.975-.475-1.666-.596-2.5-1.31-1.13-1.25 1.368.06 2.2.535 3.093.535s2.321.417 1.012 1.19m21.122 2.5c-.505.672-.952.416-.892-2.024s.535-3.927.714-5.712.892-1.963 1.427-1.963c.537 0 .894.595 1.012 2.38.12 1.784-.475 4.938-2.26 7.319m-2.559 138.694c1.308-.067 4.046-.714 5.057-1.488 1.012-.773 1.19-1.547 1.31-3.57.118-2.023.892-1.607 1.427-1.368.536.237 1.25.178 1.964-1.31s.654-2.26.178-3.212-.476-1.547-.178-2.083c.297-.535.178-1.844-.476-3.094-.655-1.25-.179-3.808-.417-4.7s-.892-2.38-.773-3.69c.119-1.308-.239-1.963-.833-2.736-.596-.774.06-1.964-.298-2.499-.357-.536-1.844-1.726-3.45-2.678-1.608-.952-3.392-1.309-6.724-.06-3.332 1.25-5.177 3.57-6.188 6.665-1.012 3.093-1.31 6.604-1.845 9.877-.535 3.272-.952 5.235-.892 7.556s2.297 4.469 4.165 5.772c2.558 1.784 5.652 2.737 7.973 2.618m5.95-20.885c-.944-.283-1.429-.892-1.309-1.547.119-.654.595-1.011 1.606-.298 1.012.714 1.37 2.083.893 2.083s-.595-.06-1.19-.238m-5.95-4.522a8.1 8.1 0 0 1-2.44-1.071c-.535-.357-.238-.595.476-.773s1.369-.417 1.13-1.19c-.237-.774 0-1.071 1.131-1.071 1.13 0 1.904.595 2.32 1.25.417.654.774 1.725 1.012 1.963.239.238-.416.713-.833.833-.416.119-1.309.416-2.796.06m.952 16.005c-.933-.503-1.428-1.488-1.428-3.511s0-6.366-.12-6.723c-.118-.357-1.19-1.012-1.308-1.666-.12-.655-.12-1.368.595-1.368.714 0 1.25.356 2.44.416s1.903 0 1.546 1.844-.416 4.403-.416 5.296c0 .892.654 1.19 1.547 1.428s1.666.357 2.142.892c.476.536-1.369.476-1.904.952s-.476 1.012.178 1.666 1.071.774.179 1.13c-.892.357-2.678.06-3.451-.356m-7.795-1.19c-.845.105-1.904-.357-2.618-1.012-.713-.654.536-.833 1.31-.714.772.12 1.963.12 2.677.06s.535.357.357.654-.774.893-1.726 1.012m-.297-2.737c-.835.026-1.428-.536-1.666-1.369s-.357-1.368.535-1.428 2.618-.06 3.154.416a181 181 0 0 0 1.01.893s-1.13 1.428-3.033 1.488" style="fill:#fff;fill-opacity:1;fill-rule:nonzero;stroke:none" transform="matrix(1.33333 0 0 -1.33333 -.667 1121.853)" data-source="https://football-logos.cc"></path><!-- source: https://football-logos.cc --></svg>